<svg width="471" height="326" fill="none" xmlns="http://www.w3.org/2000/svg"><path opacity=".75" d="M275.254 49.748c2.841 1.03 5.919 3.093 4.735 3.35-1.184.516 0 2.578.71 4.64.71 2.063-1.657.774-1.657 2.578 0 1.805.71 3.094-.473 3.867-1.184.773-.474 1.804-.474 3.35 0 1.805-2.367.259-3.551 2.579-.71 1.03 0 2.062.947 3.608.71 1.547.237 2.836-1.894 2.578s-4.735.773-8.286.773c-3.551 0-28.172-1.03-34.564-.515-6.392.515-17.992 2.835-20.833 3.35-3.078.774-34.327 8.507-53.74 15.724-19.412 7.218-49.952 22.684-62.499 31.706-12.547 9.022-40.246 31.705-51.61 45.109-11.363 13.662-21.306 23.973-26.514 37.377-5.208 13.661-11.6 36.603-10.89 44.336 0 0-1.657-1.289-2.841-8.249-1.184-6.96-2.13-28.87 0-42.016 1.894-12.115 12.074-38.407 28.645-56.193 16.572-17.786 31.96-34.799 53.977-49.234 22.017-14.435 34.564-22.941 60.369-32.479 25.804-9.795 29.592-10.31 31.486-11.341 1.894-1.032 2.841-1.29 4.735-1.29 1.894 0 3.077-1.288 4.735-1.804 1.657-.258 21.78-5.928 43.086-6.702 21.544-.773 39.299 2.32 46.401 4.898Z" fill="#CBF1CC"/><path opacity=".75" d="M393.387 151.051s-18.702 16.755-30.066 24.745c-11.126 7.991-47.584 37.119-88.067 45.883-40.482 8.764-72.442 12.889-124.051 9.795-51.61-3.093-75.047-17.012-83.333-27.323-8.286-10.311-16.572-34.025-17.518-45.109 0 0-2.841 27.838-3.078 36.345-.237 8.764.237 34.025 19.886 49.749 19.413 15.724 56.344 23.199 87.357 25.003 31.013 1.805 80.018-1.031 105.112-8.764 25.095-7.733 65.104-23.714 75.047-29.385 9.943-5.929 14.204-9.28 13.02-9.022-1.183.258-9.706 5.929-11.6 6.96-1.894 1.031-14.914 7.733-19.649 9.795-4.025 1.804-8.759 2.835-9.706 3.093 1.42-.258 10.653-4.124 13.967-5.671 3.315-1.804 8.049-4.64 8.996-5.155.947-.516 1.184-1.547 2.368-1.805 1.183-.257 1.657-.257 2.367-.773.71-.773 3.314-1.289 4.498-2.062 1.184-.773 1.657-1.547 2.131-2.062.473-.516 1.657-1.031 2.13-1.804.711-.774.947-1.032 2.131-1.289 1.184 0 2.604-.516 3.078-1.289.473-.773 1.42-1.289 1.894-1.289.473 0 2.367 0 3.077-.773.474-.516 12.074-8.507 15.862-11.858 4.024-3.351 6.392-5.928 7.102-6.702.71-.773.947-1.804 1.42-1.804.711-.258 1.184-.773 1.184-1.031 0-.516.474-1.289 1.184-1.547.71-.257 1.894-1.804 4.024-5.413 2.368-3.609 2.841-4.124 5.209-12.888 2.367-8.506 5.445-22.684 4.024-26.55Zm-43.086 42.789c-.947.774-1.894 1.289-2.841 2.062-6.629 4.64-23.201 15.724-35.511 20.88-16.098 6.702-39.536 15.466-46.875 17.27-7.339 1.804-8.285 1.804-9.706 1.289-1.42-.516-.947 0-4.261.258-3.315.257-6.866 1.804-8.286 2.062-1.421.258-15.862 2.32-31.723 3.093-16.099.773-41.193-.773-41.193-.773s40.246.515 58.238-2.062c18.229-2.578 24.858-4.125 27.935-4.898 3.078-.773 24.621-4.382 46.165-14.435 19.649-9.022 35.037-15.982 44.98-22.684 2.131-1.546 3.314-2.32 3.078-2.062Z" fill="#CBF1CC"/><path opacity=".75" d="M454.228 143.318c-.947-4.64-1.657-11.858-4.735-18.044-3.077-6.187-15.151-21.395-23.674-27.323-8.522-5.93-28.172-15.724-44.27-21.91-16.335-5.93-26.515-7.218-31.96-8.25-5.445-1.03-12.074-2.32-15.388-3.093-3.314-.515-22.727-2.32-29.592-3.093-6.629-.773-17.519-1.804-23.201-1.546-5.445.257-25.805-.258-29.119-.516s-12.074-.773-16.808-.515c-4.735.257-13.495 1.546-18.229 2.062-4.735.515-29.83 2.835-36.695 5.155-6.629 2.32-9.706 2.578-13.494 2.835-3.551.258-7.102 2.578-8.049 2.578-.947 0-18.466 4.64-23.674 6.187-5.209 1.546-22.964 10.31-33.381 16.497-10.416 5.928-20.833 13.661-27.225 19.59-6.392 5.929-11.126 9.795-17.282 22.426-5.918 12.373-7.575 21.395-8.522 31.705-.947 10.311-2.604 21.653-2.13 31.19.473 9.538 2.13 16.755 3.077 18.559 0 0 5.208-45.367 37.405-71.917 31.959-26.55 86.646-42.789 157.905-48.976 71.259-6.186 144.885 16.755 160.746 26.808 0 0 1.421-.515-3.788-3.351-5.445-2.835-12.547-5.413-12.547-5.413s5.208.258 16.335 6.187c11.127 5.928 17.756 11.599 22.727 16.239 4.735 4.382 10.18 10.826 12.311 18.301 2.13 7.218 3.787 18.044 3.787 26.293 0 8.248-1.42 13.661-.71 12.373.71-1.289 5.919-13.92 8.286-26.293 2.131-12.373 2.841-20.106 1.894-24.745Zm-79.071-59.545c-7.812-3.35-13.968-4.124-16.572-4.64-2.604-.515-3.788-1.03-6.392-1.288-2.604-.258.474-1.031-2.367-1.547s-6.629-.516-11.127-1.031c-4.498-.516-8.286-2.32-13.731-2.32-5.208 0-14.678-2.062-21.07-2.32-6.392-.258-13.02-.515-18.229-.773-5.208-.258-9.232-1.29-14.204-1.29-4.735 0-11.127-.515-6.392-1.288 2.367-.515 11.364-.773 15.862-.773 4.261 0 13.967.773 17.518 1.03 3.551.259 46.165 4.64 52.793 6.703 6.629 2.062 29.356 8.506 38.589 12.115 8.996 3.609 15.151 7.99 15.151 7.99s-22.017-7.217-29.829-10.568Z" fill="#CBF1CC"/><path opacity=".75" d="M453.519 140.74c-.473-1.546-12.784 26.55-19.176 34.799-6.392 8.248-32.67 29.901-46.874 37.892-14.204 7.991-58.238 25.777-62.263 27.323-3.787 1.547-6.392.773-8.996 1.805-2.604 1.031.237-1.547-3.077-.516-3.315 1.031-28.883 8.249-34.091 9.537-5.208 1.289-24.384 5.671-31.486 6.96-7.102 1.289-59.659 8.249-79.308 8.506-19.886.258-54.687-1.288-67.944-2.835-13.258-1.547-30.776-5.155-43.797-7.991-13.02-2.835-23.674-10.568-30.303-15.466-6.628-4.64-9.943-11.084-12.784-17.27-2.604-5.929-7.812-23.199-7.812-33.252 0 0-4.498 8.764-5.208 23.972-.71 15.208.71 42.274 10.653 53.358 9.943 11.084 31.96 25.519 62.973 29.901 30.776 4.382 65.34 5.413 71.022 5.413 5.681 0 23.2-.258 26.751-.258 3.551 0 5.919-.257 8.759-.515 2.841-.258 2.605-1.805 1.184-1.805-1.42 0-.947.258-3.077.516-2.131.258-3.078.773-4.262.258-1.183-.516-1.894-.516-3.314-.258-1.421.258-2.131 0-4.025 0-1.894 0-1.42 0-3.551.258-2.13.258-2.841-1.289-2.841-1.289s1.658-.516 3.551-.516c1.894 0 11.364 0 13.258-.257 1.657-.258 4.024-.258 5.682 0 1.657.257 3.551 0 4.971 0 1.421 0 1.184-1.805 2.604-1.805 1.421 0 .711.516 2.604.516 1.894 0 4.262-.773 5.919-.773s4.024-2.578 6.392-2.578c2.367 0 3.788-.773 4.261.515.474 1.289 1.184 1.031 1.184.258 0-.773 0-2.578 1.657-2.835 1.657-.258 3.551-.258 5.682-.774 2.13-.515 7.102-1.546 8.759-1.546s3.078.773 3.078.773-5.682.516-8.049 1.031c-2.368.516-5.919 1.547-4.025 1.547h5.682c1.42 0 1.894.515 3.788 0 1.894-.516 2.604-1.289 4.971-1.547 2.368-.258 2.841-1.031 5.208-1.031h4.262c.947 0 3.551-.258 5.208-.515 1.657-.258 1.894-1.547 3.551-1.805 1.657-.258 6.629-.773 8.286-1.031 1.657-.258 4.261-1.031 5.919-1.547 1.657-.515 4.498-1.288 6.391-1.546 1.894-.258 1.184.515 3.788.515s3.315 1.031 7.339-.773c4.025-1.804 3.315-2.062 5.445-3.093 2.131-1.031 6.392-2.062 9.233-2.578 2.841-.515 4.025-1.289 5.445-1.289 1.421 0 2.368 0 2.131-1.031-.237-1.031 1.184-2.062 1.894-1.031s2.367.774 2.367.774c2.604-1.032 5.445-2.578 6.866-2.578 1.42 0 2.367-.516 5.208-1.547s2.841-1.031 4.498-1.289c1.657-.257 1.42-3.093 3.551-3.608 2.131-.516 6.155-1.289 8.523-2.32 2.367-1.031 4.024-.774 6.392-1.805 2.367-1.031 2.13.258-4.025 2.063-6.155 1.804-6.392 2.835-4.261 2.577 2.13-.258 4.971-2.062 8.286-2.835 3.314-.774 4.261-1.289 5.208-2.062.947-.774 0-1.805 2.131-2.578 2.13-.773 5.918-2.578 8.049-3.351 2.13-.773 5.918-1.289 7.812-2.32 1.894-1.031 4.498-1.547 6.155-2.578s4.025-2.32 3.078-2.32c-.947 0-4.025 1.547-6.629 2.578-2.604 1.031-4.498.773-4.498.773s2.841-1.546 5.445-2.319c2.604-.774 3.315-1.805 5.445-2.578 2.131-.773 3.551-2.062 2.841-2.062s-4.261.515-2.367-.516c1.894-1.031 4.261-1.804 7.102-3.093s6.155-4.64 6.155-4.64.474 1.289-1.184 2.836c-1.657 1.546-2.84 2.577-.473 1.804 2.367-.773 1.184 0 3.788-1.547 2.604-1.546 6.628-3.608 10.18-5.671 3.551-2.062 4.261-2.062 5.681-3.35 1.421-1.289 1.894-.774 1.421-1.289-.474-.516-1.421-1.031-1.421-1.031 2.604-1.289 3.315-2.836 5.209-3.609 1.893-.773 4.734-4.898 6.628-6.187 1.894-1.288 5.209-3.093 6.392-4.382 1.184-1.288 2.368-2.32 4.262-4.124 1.893-1.804 5.208-6.702 6.392-8.248 1.183-1.547 2.604-3.867 3.314-5.671.71-1.805 3.788-6.702 6.155-14.178 4.735-7.733 10.653-33.252 7.102-42.016Zm-81.675 90.477c-10.416 5.155-24.858 11.857-28.172 13.146-3.078 1.289-15.625 4.124-21.306 6.702-5.682 2.32-21.781 5.929-27.462 7.733-5.682 1.804-39.773 9.795-50.663 11.084-10.89 1.289-41.666 5.155-47.584 5.155-5.682 0-9.943-.258-12.074 0-2.131.258-5.445 1.031-8.523 1.031-3.077 0-4.261.774-6.628.774h-7.102c-2.605 0-72.68-2.063-84.28-7.218-1.894-.773 41.666 3.867 45.217 4.124 3.552.258 32.197 1.805 41.43.258 9.233-1.289 35.511-1.031 41.666-1.804 6.392-.773 49.005-7.733 53.503-7.991 4.498-.258 25.095-6.96 31.96-8.764 6.629-1.804 33.38-7.733 41.666-9.795 8.286-2.062 20.36-8.764 28.172-11.858 7.576-3.093 34.328-17.786 39.536-21.137.473 0-18.703 13.147-29.356 18.56Z" fill="#CBF1CC"/><path d="M401.749 59.433c-.267-.158-.543-.306-.815-.458a1.85 1.85 0 0 0-.515-.525c-3.127-2.032-6.544-3.3-10.095-4.03a53.768 53.768 0 0 0-19.167-2.252c-5.176.339-10.324 1.393-15.176 3.244-1.85.706-4.729 1.46-5.344 3.644a2.778 2.778 0 0 0-.014 1.45c-.272.553-.19 1.202.119 1.736a3.441 3.441 0 0 0-.824 1.731c-.224 1.389.829 2.767 2.345 2.347.667-.186 1.339-.362 2.007-.544a44.15 44.15 0 0 0 7.903 6.855c.405 1.163 1.596 2.022 2.85 1.817 1.592.987 3.561 2.123 5.458 2.628.338 1.484 2.302 2.562 3.841 1.87.758.968 2.041 1.455 3.227.553.182-.133.348-.276.529-.415l.039-.038a70.099 70.099 0 0 0 7.312-6.51 107.938 107.938 0 0 0 6.887-5.72c1.306-1.183.749-3.095-.419-4.035a2.02 2.02 0 0 0-.186-.267c3.027.162 6.053.329 9.071.463 1.93.085 2.545-2.624.962-3.554l.005.01Zm-36.597 8.132c-.158.138-.315.282-.472.43-.205-.144-.41-.292-.615-.44.167-.009.338-.023.505-.038.191.02.386.034.577.048h.005Z" fill="#F7A392"/><path d="M397.55 44.9c-.39-2.624-.085-5.276-1.024-7.804-.515-1.379-1.173-2.628-1.292-4.13-.11-1.398.105-2.806.133-4.203a27.43 27.43 0 0 0-.743-6.997c-2.112-8.72-9.366-16.06-18.699-15.66-.167 0-.258-.01-.377-.019-9.404-.481-16.816 6.793-18.937 15.56a27.432 27.432 0 0 0-.744 6.997c.029 1.397.238 2.804.133 4.202-.114 1.502-.777 2.752-1.291 4.13-.944 2.529-.634 5.18-1.025 7.804-.339 2.28-1.745 4.35-1.111 6.687.053.191.253.363.458.348 4.919-.343 9.757 1.045 14.395-.949 2.555-1.097 8.07-1.507 8.098-5.099.057 0 .119 0 .177-.01-.101 3.707 5.514 4.117 8.098 5.229 4.638 1.989 9.476.605 14.395.949.205.014.41-.158.458-.349.633-2.337-.773-4.402-1.111-6.687h.009Z" fill="#1F2144"/><path d="M453.788 60.425a1.374 1.374 0 0 0-.367.12c.143-1.231-1.645-2.08-2.183-.783-3.999 9.592-8.451 20.257-18.137 25.356-4.261 2.242-19.104 4.727-23.652-15.754-.109-.487-4.042 6.734-4.442 7.011-1.816 1.269-3.627 2.543-5.443 3.811-1.225.859-3.251 1.808-3.861 3.301-.973 2.38-1.225-1.908 0 0 14.643 22.809 34.071 18.364 40.291 14.891 6.373-3.558 11.211-11.247 14.305-17.643a62.127 62.127 0 0 0 4.49-12.578c.324-1.35 2.564-8.29-.996-7.732h-.005Z" fill="#F79884"/><path d="M343.073 216.435c.1 17.148 7.598 75.773 7.693 92.921 0 .563.372.954.873 1.149 2.783 1.093 4.885-1.259 5.548-3.749 1.153-4.312 1.478-9.053 2.126-13.465 2.331-15.912 3.618-31.877 4.609-47.917 1.02-16.513 2.746-32.96 5.286-49.311.234-1.502-2.064-2.151-2.297-.639-.11.716-.22 1.431-.324 2.147-3.065.205-6.345.539-9.004 2.18-2.875 1.774-6.726-12.664-7.37-9.483-3.336 16.57-7.24 9.363-7.14 26.163v.004Z" fill="#F7A392"/><path d="M344.851 324.218c.992.239 2.46-.395 3.38-.667 1.358-.396 2.817-.825 4.104-1.417 2.064-.954 3.069-5.099 4.352-6.888 1.716-2.399 1.754-2.613 1.391-5.47-.481-3.792-.1-7.437.448-11.205.086-.601-.834-.854-.919-.253-.272 1.885-.544 3.773-.673 5.672-.038 0-.081-.01-.123 0-2.246.362-6.116.844-6.106 3.82.014 4.951-6.445 10.527-6.707 12.936-.124 1.159-.715 3.091.853 3.468v.004Z" fill="#F7A392"/><path d="M342.893 325.784c.482.434 1.397.095 1.921.009 1.687-.272 3.389-.539 5.067-.863 2.169-.42 3.732-1.197 4.657-3.282.648-1.459 1.168-2.9 1.754-4.307l.191 3.83c.004.124.104.248.238.239.357-.024.701-.067 1.058-.129.095-.019.181-.134.176-.229a27.123 27.123 0 0 1 .763-8.242c.238-.511-.543-.992-.901-.487-.691.968-1.32 1.97-1.878 3.01a23.952 23.952 0 0 0-1.416 3.162 21.41 21.41 0 0 0-.328 1.04c-.019 0-.029-.014-.048-.014-3.384-.296-6.22-.568-9.6-.234-.162.014-.338.177-.381.334-.305 1.116-2.341 5.199-1.263 6.172l-.01-.009Z" fill="#1F2144"/><path d="M373.784 214.967c.043 17.147 7.346 75.797 7.389 92.944 0 .563.371.959.867 1.155 2.779 1.097 4.891-1.245 5.563-3.73 1.167-4.308 1.511-9.049 2.168-13.461 2.384-15.902 3.723-31.862 4.767-47.898 1.072-16.508 2.85-32.95 5.448-49.291.238-1.503-2.054-2.156-2.297-.644-.115.715-.224 1.431-.334 2.146-3.065.196-6.344.515-9.014 2.151-2.879 1.765-6.687-12.682-7.335-9.506-3.389 16.556-7.269 9.339-7.226 26.139l.004-.005Z" fill="#F7A392"/><path d="M403.775 150.837c-3.198-15.049-5.591-17.925-5.82-24.112-.071-1.893 1.025-9.072.238-10.851-.872-1.97-49.567-2.089-49.653-2.027-.229-1.226.229 9.387.158 10.813-.391 7.913-3.261 11.161-5.086 18.76-1.85 7.703-11.44 77.032-7.574 105.412.09.649.543 1.173 1.191 1.193 14.157.333 31.931.591 48.49.777 1.635-8.018 2.274-14.502 4.457-22.41.2-.716 1.096-.745 1.487-.196 2.193 3.091.753 15.447.648 22.544 4.271.043 12.722.248 16.559.277.687.004 1.178-.554 1.192-1.193.448-25.795-.853-73.417-6.287-98.983v-.004Z" fill="#F5E4D5"/><path d="M375.21 322.754c.991.243 2.46-.391 3.38-.654 1.358-.391 2.821-.815 4.108-1.407 2.064-.944 3.089-5.089 4.371-6.873 1.726-2.394 1.764-2.604 1.411-5.466-.472-3.792-.076-7.436.482-11.204.09-.601-.83-.859-.92-.253-.282 1.884-.558 3.773-.692 5.671-.038 0-.081-.01-.124-.005-2.245.358-6.115.825-6.115 3.802 0 4.951-6.478 10.503-6.749 12.916-.129 1.159-.725 3.091.843 3.473h.005Z" fill="#F7A392"/><path d="M373.247 324.309c.481.434 1.396.101 1.92.015 1.693-.267 3.389-.525 5.072-.849 2.174-.415 3.737-1.188 4.667-3.268.653-1.459 1.177-2.895 1.768-4.302l.176 3.83c.005.124.105.248.239.239a8.77 8.77 0 0 0 1.058-.124c.1-.019.181-.134.176-.229a27.149 27.149 0 0 1 .791-8.243c.239-.51-.538-.992-.9-.486a27.495 27.495 0 0 0-1.888 3 23.136 23.136 0 0 0-1.425 3.158c-.124.338-.229.687-.329 1.035-.019 0-.029-.015-.048-.015-3.384-.305-6.215-.591-9.6-.267-.162.015-.338.177-.381.334-.31 1.116-2.359 5.195-1.287 6.168l-.009.004Z" fill="#1F2144"/><path d="M390.097 19.643c.024-2.986-1.368-4.235-3.765-5.533-12.918-6.987-24.515-.596-24.596 1.24-.324 7.465-.963 16.986 2.503 23.73 2.593 5.052 7.669 9.52 13.465 7.036 6.049-2.595 12.274-9.898 12.393-26.473ZM469.045 52.426c.529-.577 1.158-1.311 1.196-1.879.1-1.474-1.616-.386-2.126.072-1.072.953-2.131 1.912-3.236 2.833-.558.462-1.102.949-1.683 1.378-.286.21-1.892 1.193-2.269.802a673.37 673.37 0 0 0 4.571-4.436c.629-.62 2.789-2.5 2.236-3.606-.067-.139-.186-.2-.339-.196-1.759.077-3.546 2.085-4.676 3.267-.753.792-1.902 2.581-2.96 2.948a.951.951 0 0 1-.772-.043 8.67 8.67 0 0 1-.634-.949 6.636 6.636 0 0 0-.357-.734c-.029-.062-.058-.12-.081-.187a.33.33 0 0 0-.12-.143c-.433-.663-1.015-1.22-1.825-1.583-1.378-.615-3.923-.959-5.076.22-.172.176-.058.39.123.467.11.205.201.243.501.353.815.3 1.673.348 2.464.753 1.049.54 1.897 1.317 2.431 2.285.258 1.102.067 2.237-.691 3.2-.701.888-1.683 1.308-2.722 1.575-.009-.034-.019-.072-.043-.105-1.058-1.603-1.496-3.425-1.701-5.319-.091-.815.181-2.308-.625-2.814a.333.333 0 0 0-.405.038.305.305 0 0 0-.205.167c-.753 1.455-1.077 3.277-.92 4.913.124 1.298.734 2.433 1.383 3.54.104.882-.177 1.678-.396 2.613-.148.63-.324 1.593-.029 2.256a.55.55 0 0 0-.014.124v.1c0 .124.143.272.272.272h.076c.024 0 .043-.01.062-.01.071.049.143.091.229.125a.28.28 0 0 0 .186.01c.443.305 1.024.83 1.244.953.257.148.538.391.848.43.529.071 1.063-.3 1.497-.563 1.84-1.107 3.518-2.633 5.038-4.136.324-.32.696-.653 1.049-1.006 1.082-.696 2.121-1.46 3.112-2.194a49.317 49.317 0 0 0 3.68-3.015c.71-.644 1.83-1.416 1.85-2.466 0-.147-.048-.243-.163-.32l.02.01Z" fill="#F7A392"/><path d="m382.34 53.828 2.031-24.884c0-.949-2.255 2.137-3.051 2.714-4.051 2.924-7.293 3.826-12.135 4.331a1.414 1.414 0 0 0-.396.105c-.677 0-.624.325-.62 1.197.019 5.581-1.239 16.38.015 21.865.324 1.426.653-.72 2.14-.076 1.005.434 2.864.243 3.97.339 1.411.119 1.249-.034 2.66.085 1.54.13 3.508 1.26 4.814.015 1.273-1.212.582-4.226.577-5.69h-.005Z" fill="#F7A392"/><path d="M369.652 28.477c.015.887-.4 1.612-.924 1.621-.525.01-.958-.706-.968-1.593-.014-.887.401-1.612.925-1.621.524-.01.958.705.967 1.593ZM382.412 28.763c-.01.887-.443 1.602-.963 1.593-.524-.005-.939-.73-.929-1.617.009-.887.443-1.603.963-1.593.519.01.939.73.929 1.617ZM384.827 24.043c-.025-.024-.504-.155-.524-.155-1.497-.333-3.538-.592-4.976-.158-.747.226-1.478.78-.425 1.047.899.23 2.189.197 3.138.214.77.012 1.709.096 2.441-.113.884-.25.919-.559.346-.838v.003ZM365.35 24.664c.69.25 1.644.233 2.42.27.954.048 2.236.163 3.175-.002 1.103-.194.472-.787-.229-1.06-1.356-.525-3.443-.404-4.998-.174-.02 0-.522.094-.552.118-.626.235-.651.542.189.848h-.005Z" fill="#1F2144"/><path d="M379.366 37.897c-4.58 1.636-8.665-.315-8.908-.239-.1.034-.205.11-.186.22.391 1.984 2.64 3.1 4.39 3.2 1.825.105 4.38-.973 4.981-2.88.052-.163-.096-.373-.281-.306l.004.005Z" fill="#fff"/><path d="M376.133 35.531c-1.263.31-2.43-.1-2.564-1.507-.062-.653.153-1.498.229-2.151.157-1.407.338-2.81.529-4.207.043-.305-.434-.33-.477-.024a181.656 181.656 0 0 0-.453 3.544c-.119 1.04-.438 2.26-.309 3.306.176 1.488 1.94 1.807 3.146 1.507.295-.072.195-.54-.101-.468Z" fill="#DB745E"/><path d="M297.706 99.724c-.329-.53-1.483-.854-1.983-1.126a41.864 41.864 0 0 1-2.283-1.34c-.22-2.066-1.735-3.754-3.018-5.438-1.129-1.483-2.726-4.808-5.071-4.445-.186.028-.367.248-.262.443.634 1.164 1.654 2.07 2.373 3.187.425.653.787 1.335 1.101 2.036-.605-.5-1.244-.954-1.906-1.235a41.736 41.736 0 0 0-6.678-3.248c-1.468-.554-3.751-1.689-5.353-1.207-.1.029-.186.148-.195.248-.148 1.383 2.821 2.118 3.751 2.48a57.425 57.425 0 0 1 5.472 2.442c-.057.058-.119.115-.176.177l-.196.195a127.87 127.87 0 0 0-6.597-2.26c-1.487-.458-3.546-1.274-5.095-.811-.143.043-.2.205-.2.338.014.64.619.811 1.139 1.074 1.129.567 2.302 1.025 3.494 1.45 1.849.658 3.727 1.23 5.553 1.94-.019.025-.038.049-.062.072-1.978-.605-3.99-1.163-6.035-1.507-.977-.162-3.355-.715-4.094.224a.322.322 0 0 0-.048.32c.381.944 2.178 1.273 3.275 1.526a19.95 19.95 0 0 0-2.202.029c-.253.019-.353.324-.22.515.739 1.054 2.87 1.336 4.066 1.64 1.854.473 3.728.84 5.553 1.408.1.081.196.167.291.248 1.301 1.13 2.807 2.356 4.342 3.153.544.281 1.049.41 1.516.42.501.119 1.034.128 1.654.104 2.34-.076 4.233.368 6.144 1.78.238.176.534-.024.625-.253.371-.978 1.982-3.525 1.329-4.574l-.004-.005ZM390.015 26.774c-1.173-1.125-3.198-.024-3.594 1.322-.086.29.105.477.338.515a4.978 4.978 0 0 0-.367 1.64c-.185.683-.257 1.355-.147 1.837 0 .243.014.486.033.73-.105.276-.143.558-.033.82.71 1.689 2.926-.658 3.336-1.402.734-1.34 1.754-4.188.429-5.457l.005-.005Z" fill="#F7A392"/><path d="M359.989 26.602c1.044-1.244 3.179-.372 3.713.926.119.281-.053.482-.281.548.262.463.448 1.021.543 1.589.262.663.4 1.321.343 1.808.024.238.038.481.048.724.133.263.205.54.124.811-.525 1.756-2.984-.334-3.47-1.03-.877-1.254-2.202-3.968-1.02-5.376Z" fill="#F79884"/><path d="M390.469 23.435a.638.638 0 0 0 .067-.148 1.351 1.351 0 0 0 1.277-1.602 12.451 12.451 0 0 0-1.263-3.754c.41-.353.624-.959.286-1.593-1.349-2.51-3.894-4.179-6.678-5.185 0-.64-.381-1.321-1.139-1.402a56.936 56.936 0 0 0-6.559-.334c-.067-.406-.324-.75-.839-.859-1.792-.367-3.408-.048-5.029.425-.252-.454-.738-.768-1.32-.63-1.034.243-2.069.763-3.051 1.388-.424-.458-1.144-.658-1.744-.143-1.673 1.436-3.456 3.029-3.747 5.409a1.03 1.03 0 0 0 .534 1.063 22.63 22.63 0 0 0-1.616 5.534c-.181 1.125.882 1.798 1.631 1.554a21.544 21.544 0 0 0-.296 2.237c-.048.635.825.668.934.082 0-.01.01-.015.015-.024 1.353-4.021 4.842-5.715 8.293-7.122 2.441-.997 4.147-2.8 5.239-5.218.276 1.44.715 2.857 1.663 4.007 1.354 1.645 3.361 2.017 5.158 2.971 2.259 1.198 3.184 3.191 4.852 4.98.51.549 2.274 1.455 2.455 1.173a2.729 2.729 0 0 0 1.12-.39c.658-.392.267-1.317-.343-1.336.052-.1.09-.22.1-.363.014-.238.019-.477.019-.715l-.019-.005Z" fill="#1F2144"/><path d="M388.431 28.349a6.192 6.192 0 0 1-.658 2.7c-.138.271.276.514.41.238a6.79 6.79 0 0 0 .724-2.938c.005-.306-.471-.306-.476 0ZM362.611 30.733a7.006 7.006 0 0 1-.606-2.542c-.014-.305-.491-.305-.476 0 .047.973.271 1.898.672 2.786.124.281.538.038.41-.239v-.005Z" fill="#DB745E"/><path d="M367.245 16.16c-1.964 2.285-3.927 4.67-5.214 7.356-.115-1.226-1.979-1.67-2.307-.282a91.027 91.027 0 0 0-2.455 19.227 5.115 5.115 0 0 0-.024 1.217c.138 1.502 2.374 1.56 2.383 0 0-.291.015-.577.019-.868.243-1.875 1.754-3.392 2.503-5.114.882-2.027.839-4.207.801-6.372-.091-5.624 2.43-9.349 5.982-13.484.996-1.16-.687-2.853-1.688-1.689v.01Z" fill="#1F2144"/><path d="M398.224 129.453c-.024-.157-.048-.31-.067-.472a913.277 913.277 0 0 0-4.962-.157c-.52-4.14-1.106-8.271-1.768-12.392-.048-.301-.51-.172-.458.129a354.03 354.03 0 0 1 1.749 12.253 706.458 706.458 0 0 0-34.815-.119c-3.236.072-6.473.172-9.709.281-.033.163-.062.32-.095.477a712.522 712.522 0 0 1 44.676-.171 355.681 355.681 0 0 1 2.608 52.444 363.292 363.292 0 0 1-.911 18.216c-.023.305.453.305.477 0a356.555 356.555 0 0 0-1.072-65.371c-.191-1.76-.401-3.515-.62-5.27 1.635.048 3.275.095 4.909.152h.062-.004Z" fill="#DBC6B6"/><path d="M401.635 62.839c-.062-1.727-.668-3.258-1.602-4.593-3.017-1.89-6.292-3.091-9.69-3.792-.262.305-.548.639-.887.987-2.712 2.8-6.01 5.09-9.752 6.258-7.622 2.37-15.601-.596-19.4-7.67a48.609 48.609 0 0 0-4.323 1.412c-1.85.706-4.729 1.46-5.344 3.644a2.778 2.778 0 0 0-.014 1.45c-.272.554-.19 1.202.119 1.736a3.441 3.441 0 0 0-.824 1.732c-.224 1.388.829 2.766 2.345 2.347.667-.186 1.339-.363 2.007-.544a44.154 44.154 0 0 0 7.903 6.854c.405 1.164 1.596 2.022 2.85 1.817 1.592.988 3.561 2.123 5.458 2.629.338 1.483 2.302 2.56 3.841 1.87.758.968 2.041 1.454 3.227.552.182-.133.348-.276.529-.414l.039-.039a70.099 70.099 0 0 0 7.312-6.51 107.938 107.938 0 0 0 6.887-5.72c1.306-1.182.749-3.095-.419-4.035a2.02 2.02 0 0 0-.186-.267c3.027.162 6.053.33 9.071.463.324.014.605-.057.853-.176v.009Zm-36.955 5.185c-.205-.143-.41-.291-.615-.44.167-.009.338-.023.505-.037.191.019.386.033.577.047-.157.139-.315.282-.472.43h.005Z" fill="#A0A2CA"/><path d="M453.707 78.56c.414-.825.619-1.903.848-2.538.372-1.035 1.564-2.938 1.111-4.073-.486-1.211-2.965-1.727-4.023-2.199-1.301-.577-3.508-2.165-4.972-2.041-1.053.086-1.349.825-1.778 1.717-.786 1.64-1.43 3.348-2.021 5.07-2.421-.73-4.604.568-6.425 2.328-1.516 1.469-2.869 3.11-4.943 3.816-2.478.849-4.928-.043-7.188-1.069-1.349-.61-2.764-.825-4.19-.949-2.764-1.784-5.281-3.859-7.345-6.61-2.064-2.748-8.68-10.81-9.738-11.93-2.326-2.457-5.272-4.284-8.856-5.357-5.382 7.59-11.812 14.496-19.162 20.186-.519.406-1.334.72-1.949.253-4.104-3.124-17.736-18.703-18.571-20.114-12.345 4.455-17.969 14.114-23.594 25.532-1.911 2.943-3.742 6.072-6.049 8.7-2.254 2.562-5.267 4.255-7.602 6.736-1.507 1.602-2.751 2.847-5.134 2.919-1.535.047-3.051-.291-4.585-.077-1.182.167-2.231.568-3.051 1.245-.71-.334-1.416-.668-2.126-1.001-.782-.368-1.597-.873-2.459-1.002-.186-.029-.353 0-.501.052-.462-.128-1.01.038-1.192.625-.462 1.503-.919 3.01-1.382 4.512-.357 1.174-1.282 2.982-1.201 4.207.124 1.827 3.604 2.581 5.186 3.077 3.184 3.549 6.83 7.293 11.869 7.665 2.693.2 5.167-1.049 7.822-1.173 3.026-.148 5.92.686 8.98.348 2.245-.248 4.804-.42 6.826-1.512 2.125-1.145 3.689-3.296 5.143-5.161a51.056 51.056 0 0 0 4.123-6.215c.862 2.652 1.53 5.423 1.501 7.04-.076 4.388-.252 5.161.906 9.439a46.23 46.23 0 0 0 1.044 3.316c7.688 1.025 22.059-.249 29.4-.296 4.023-.029 13.847.558 17.836 1.011.248.029.496.052.748.081.549-.739 1.102-1.469 1.621-2.232 1.301-1.908 1.254-4.484 1.954-6.673.987-3.096 2.565-12.979 3.694-17.41 1.592.916 4.638 2.471 6.24 3.372 2.707 1.522 5.558 2.967 8.718 3.125 3.132.152 6.316-1.002 9.19-2.118 1.611-.625 3.17-1.488 4.886-1.751 1.954-.295 3.913.229 5.872-.033 4.733-.635 10.472-5.276 11.778-9.926.51-1.813.791-3.272 1.935-4.86.873-1.207 1.831-2.404 2.183-3.888.391-1.66-.138-3.239-1.372-4.183l-.005.019Z" fill="#4F5170"/><path d="M400.538 88.92c-1.454-3.349-2.793-6.793-3.418-10.408-.643-3.73-.4-7.575.649-11.21a25.597 25.597 0 0 1 4.156-8.313c-.119-.105-.238-.205-.358-.31-3.546 4.713-5.472 10.603-5.262 16.532.267 7.56 4.152 14.271 6.959 21.102.353.858.691 1.727 1.001 2.6a.727.727 0 0 0 .024-.1c.162.095.348.195.539.304-1.211-3.472-2.827-6.84-4.285-10.197h-.005Zm-57.771-26.51c-.167.161-.329.323-.491.486.329 10.097 4.09 20.4 3.866 30.464-.1 4.35-.825 8.653-1.602 12.926.239-.381.463-.772.692-1.159.529-2.976 1.005-5.962 1.244-8.976.3-3.83.09-7.637-.444-11.434-1.043-7.44-3.122-14.757-3.265-22.308ZM428.214 82.476a55.41 55.41 0 0 1-6.411 3.51c-.277.13-.039.54.238.41a55.659 55.659 0 0 0 6.411-3.51c.257-.162.019-.577-.238-.41ZM303.478 102.667c-.811 2.141-1.626 4.278-2.436 6.42-.11.286.353.41.458.129.81-2.142 1.625-4.279 2.435-6.42.11-.287-.352-.411-.457-.129ZM317.526 112.883a33.056 33.056 0 0 1-4.467-3.906c-.214-.224-.548.114-.338.338a34.123 34.123 0 0 0 4.561 3.983c.248.181.487-.233.239-.41l.005-.005ZM317.091 115.044a13.906 13.906 0 0 1-3.927-2.242c-.238-.191-.577.143-.339.339a14.57 14.57 0 0 0 4.138 2.366c.286.105.41-.353.128-.458v-.005ZM453.314 77.673c-3.17-1.055-6.34-2.118-9.514-3.158-.291-.095-.42.367-.129.458 3.179 1.035 6.344 2.103 9.514 3.157.291.096.415-.362.129-.457Z" fill="#20223F"/><path d="M262.818 312.808 259.716 4.4c0-2.39-1.904-4.291-4.244-4.237L91.699 0c-2.34 0-4.135 1.956-4.135 4.346l3.1 308.408c0 2.39 1.905 4.291 4.245 4.237l163.774.109c2.285 0 4.135-1.902 4.135-4.292Z" fill="#4F5170"/><path d="m253.079 303.138-2.72-288.09c0-2.118-1.687-3.803-3.7-3.748l-144.73-.543c-2.014 0-3.646 1.738-3.646 3.857l2.721 288.089c0 2.119 1.686 3.803 3.7 3.749l144.73.543c2.013 0 3.645-1.738 3.645-3.857Z" fill="#fff"/><path d="M143.278 54.218c-.054-.49-.326-.87-.653-.87-7.563-.38-29.708-.38-31.449-.489-1.414-.054-1.142 1.685-1.142 2.01.054 7.063 1.142 23.252 1.36 26.675.109 1.52.272 2.281 1.415 2.662 2.176.706 24.321.597 29.762.706 1.741 0 1.904-.598 1.741-4.51-.653-15.102.272-13.146-1.034-26.184Z" fill="#A7C6DF"/><path d="M133.919 63.236c-.436-.272-1.034-.11-1.306.326l-5.604 9.67-2.34-3.043c-.327-.434-.925-.489-1.36-.163-.436.326-.49.924-.164 1.358l3.211 4.183c.326.435.925.49 1.36.164.163-.11.272-.326.326-.49l6.203-10.702c.326-.489.163-1.086-.326-1.303Z" fill="#4F5170"/><path d="M154.541 81.76c.163 1.522.98 2.717 3.7 2.771 14.31.163 72.692.055 78.568-.054 3.863-.109 4.081-.76 3.972-2.553-.544-7.334-.055-17.602-.762-26.566-.109-1.63.816-2.444-2.938-2.39-4.57.054-61.266-.163-81.071-.434-3.7-.055-3.101 3.476-3.047 4.02.762 10.539 1.088 20.046 1.578 25.207Z" fill="#F5E4D5"/><path d="M229.843 60.086c-22.308-.055-44.616-.055-66.924-.109-.326 0-.381.543 0 .543 22.308.055 44.616.055 66.924.109.381 0 .381-.543 0-.543Zm.109 8.8c-22.308-.054-44.616-.054-66.924-.108-.327 0-.381.543 0 .543 22.308.054 44.616.054 66.924.109.381 0 .381-.544 0-.544Zm-.272 8.204c-6.42-.109-12.786-.055-19.207.108-.326 0-.381.544 0 .544 6.421-.163 12.787-.163 19.207-.11.326 0 .326-.542 0-.542Z" fill="#4F5170"/><path d="M144.094 213.5c-.055-.489-.327-.869-.653-.869-7.563-.38-29.708-.38-31.449-.489-1.415-.054-1.143 1.684-1.143 2.01.055 7.062 1.143 23.251 1.36 26.674.109 1.521.272 2.282 1.415 2.662 2.176.706 24.321.597 29.762.706 1.741 0 1.905-.597 1.741-4.509-.653-15.157.272-13.147-1.033-26.185Z" fill="#A7C6DF"/><path d="M134.954 221.595c-.436-.272-1.034-.109-1.306.326l-5.604 9.67-2.34-3.042c-.326-.435-.925-.489-1.36-.163-.435.326-.49.923-.163 1.358l3.21 4.183c.326.435.925.489 1.36.163.163-.109.272-.326.326-.489l6.203-10.702c.272-.489.109-1.087-.326-1.304Z" fill="#4F5170"/><path d="M157.914 240.935c.163 1.521.979 2.716 3.7 2.771 14.309.217 72.691.38 78.568.271 3.863-.054 4.08-.706 3.971-2.499-.489-7.334 0-17.601-.652-26.619-.109-1.63.816-2.445-2.939-2.391-4.57.055-61.265-.434-81.07-.76-3.7-.054-3.102 3.477-3.047 4.02.707 10.539 1.034 20.046 1.469 25.207Z" fill="#F5E4D5"/><path d="M234.141 218.988c-22.308-.272-44.616-.598-66.924-.869-.327 0-.327.543 0 .543 22.308.272 44.616.598 66.924.869.381 0 .381-.543 0-.543ZM233.925 227.789c-22.308-.272-44.616-.598-66.924-.869-.327 0-.327.543 0 .543 22.308.271 44.616.597 66.924.869.326 0 .326-.543 0-.543ZM186.317 235.503c-6.366-.271-12.787-.38-19.207-.38-.326 0-.326.543 0 .543 6.42 0 12.786.163 19.207.38.381 0 .381-.543 0-.543Z" fill="#4F5170"/><path d="M142.736 107.456c-.054-.489-.326-.869-.653-.869-7.563-.38-29.708-.38-31.449-.489-1.414-.054-1.142 1.684-1.142 2.01.054 7.063 1.142 23.252 1.36 26.674.109 1.521.272 2.282 1.415 2.662 2.176.706 24.321.598 29.762.706 1.741 0 1.904-.597 1.741-4.509-.707-15.102.218-13.146-1.034-26.185Z" fill="#A7C6DF"/><path d="M132.452 114.899c-.436-.272-1.034-.109-1.306.326l-5.604 9.724-2.34-3.042c-.326-.435-.925-.489-1.36-.163-.435.326-.49.924-.163 1.358l3.21 4.183c.326.435.925.489 1.36.163.163-.108.272-.326.327-.489l6.202-10.702c.272-.489.109-1.086-.326-1.358Z" fill="#4F5170"/><path d="M154.652 134.945c.109 1.521.925 2.716 3.645 2.825 14.31.38 72.692 1.141 78.568 1.086 3.863-.054 4.135-.706 4.027-2.499-.436-7.334.163-17.601-.381-26.619-.109-1.63.87-2.391-2.938-2.445-4.571 0-61.266-1.087-81.071-1.575-3.7-.109-3.156 3.422-3.102 4.02.653 10.485.817 19.992 1.252 25.207Z" fill="#F5E4D5"/><path d="M229.467 113.541c-22.308-.435-44.616-.924-66.924-1.358-.326 0-.381.543 0 .543 22.308.435 44.616.924 66.924 1.358.381.054.381-.489 0-.543Zm-67.196 7.986c22.308.434 26.661.76 48.969 1.249.326 0 .381-.543 0-.543-22.308-.435-26.661-.761-48.969-1.249-.381 0-.381.543 0 .543Zm66.271 9.778c-22.308-.434-44.616-.923-66.924-1.358-.326 0-.381.544 0 .544 22.308.434 44.616.923 66.924 1.358.381.054.381-.489 0-.544Z" fill="#4F5170"/><path d="M143.93 158.794c-.054-.488-.326-.869-.652-.869-7.563-.38-29.708-.38-31.449-.489-1.415-.054-1.143 1.684-1.143 2.01.054 7.063 1.143 23.252 1.36 26.674.109 1.521.272 2.282 1.415 2.662 2.176.707 24.321.598 29.762.707 1.741 0 1.904-.598 1.741-4.51-.653-15.102.218-13.146-1.034-26.185Z" fill="#A7C6DF"/><path d="M134.298 168.356c-.435-.272-1.033-.109-1.305.326l-5.605 9.67-2.339-3.043c-.327-.434-.925-.489-1.36-.163-.436.326-.49.924-.164 1.358l3.21 4.184c.327.434.925.488 1.361.163.163-.109.272-.326.326-.489l6.203-10.703c.272-.489.109-1.086-.327-1.303ZM229.137 164.879c-22.308-.272-44.616-.598-66.924-.869-.327 0-.327.543 0 .543 22.308.272 44.616.598 66.924.869.326 0 .326-.543 0-.543Z" fill="#4F5170"/><path d="M155.195 187.261c.109 1.521.925 2.716 3.646 2.825 14.309.38 72.691 1.195 78.567 1.141 3.864-.055 4.136-.707 4.027-2.499-.436-7.334.217-17.602-.327-26.62-.109-1.63.871-2.39-2.938-2.445-4.57 0-61.265-1.086-81.071-1.629-3.699-.109-3.155 3.422-3.101 4.02.599 10.539.762 20.046 1.197 25.207Z" fill="#F5E4D5"/><path d="M160.852 166.292c22.308.272 26.661.598 48.969.869.327 0 .327-.543 0-.543-22.308-.272-26.661-.598-48.969-.869-.38 0-.38.543 0 .543Zm66.38 9.29c-22.308-.272-44.616-.598-66.924-.87-.326 0-.326.544 0 .544 22.308.271 44.616.597 66.924.869.327 0 .327-.543 0-.543Z" fill="#4F5170"/><path d="M250.557 19.332c0-4.322-1.687-7.758-3.702-7.647l-144.821-1.108c-2.014 0-3.647 3.546-3.647 7.868l.054 15.182h152.171l-.055-14.295Z" fill="#A7C6DF"/><path fill-rule="evenodd" clip-rule="evenodd" d="M172.693 28.585c.394 0 .568-.193.787-.423l2.099-2.198-2.618-1.7" fill="#fff"/><path fill-rule="evenodd" clip-rule="evenodd" d="m172.984 24.407 6.417 4.702c.732.401 1.261.194 1.443-.674l2.612-12.21c.268-1.064-.409-1.546-1.109-1.23L167.01 20.86c-1.047.417-1.041.996-.191 1.254l3.936 1.219 9.112-5.703c.43-.259.825-.12.501.166" fill="#fff"/><path d="M100.95 302.705c0 2.118 1.687 3.802 3.7 3.748l144.73.543c2.013 0 3.646-1.738 3.646-3.857l-.164-18.634-152.13-.543.218 18.743Z" fill="#A7C6DF"/><path d="M178.701 299.01h-6.475c-.653 0-1.197-.489-1.197-1.141l-.272-5.053c0-.326.109-.652.326-.923.218-.272.544-.38.871-.38h6.475c.653 0 1.197.489 1.197 1.14l.272 5.053c0 .326-.109.652-.327.923-.217.218-.544.381-.87.381Zm-6.747-6.954c-.163 0-.381.054-.49.217-.109.109-.217.326-.163.489l.272 5.052a.66.66 0 0 0 .653.652h6.475c.163 0 .381-.054.489-.217.109-.163.218-.326.164-.489l-.272-5.052a.661.661 0 0 0-.653-.652h-6.475ZM228.104 298.738c-.054 0-.109 0-.163-.054l-4.679-3.64 4.298-3.911a.263.263 0 0 1 .381 0 .262.262 0 0 1 0 .38l-3.809 3.477 4.19 3.26c.109.108.163.271.054.38-.109.108-.163.108-.272.108ZM127.39 291.729h7.89c.163 0 .272-.108.272-.271 0-.163-.109-.272-.272-.272h-7.89c-.163 0-.272.109-.272.272 0 .163.163.271.272.271Zm7.944 2.988c.163 0 .272-.109.272-.272 0-.163-.109-.271-.272-.271h-7.889c-.164 0-.272.108-.272.271 0 .163.108.272.272.272h7.889Zm.218 2.445h-7.89c-.163 0-.272.108-.272.271 0 .163.109.272.272.272h7.89c.163 0 .272-.109.272-.272 0-.163-.109-.271-.272-.271Z" fill="#F5E4D5"/></svg>