<svg width="470" height="326" viewBox="0 0 470 326" fill="none" xmlns="http://www.w3.org/2000/svg">
<path opacity="0.75" d="M275.01 49.7479C277.851 50.7789 280.928 52.8411 279.745 53.0989C278.561 53.6144 279.745 55.6765 280.455 57.7387C281.165 59.8008 278.798 58.512 278.798 60.3164C278.798 62.1207 279.508 63.4096 278.324 64.1829C277.14 64.9562 277.851 65.9872 277.851 67.5339C277.851 69.3382 275.483 67.7916 274.3 70.1115C273.589 71.1426 274.3 72.1737 275.246 73.7203C275.957 75.2669 275.483 76.5557 273.353 76.298C271.222 76.0402 268.618 77.0713 265.067 77.0713C261.516 77.0713 236.895 76.0402 230.503 76.5557C224.111 77.0713 212.511 79.3912 209.67 79.9067C206.592 80.68 175.342 88.413 155.93 95.6305C136.517 102.848 105.978 118.314 93.4305 127.336C80.8833 136.358 53.1848 159.041 41.8213 172.445C30.4578 186.107 20.5147 196.418 15.3065 209.822C10.0982 223.483 3.70624 246.425 4.41646 254.158C4.41646 254.158 2.75928 252.869 1.57559 245.909C0.391888 238.949 -0.55507 217.039 1.57559 203.893C3.4695 191.778 13.6493 165.486 30.2211 147.7C46.7928 129.914 62.1809 112.901 84.1977 98.466C106.214 84.031 118.762 75.5247 144.566 65.9872C170.371 56.1921 174.159 55.6765 176.053 54.6455C177.947 53.6144 178.894 53.3566 180.787 53.3566C182.681 53.3566 183.865 52.0678 185.522 51.5523C187.179 51.2945 207.302 45.6236 228.609 44.8503C250.152 44.077 267.908 47.1702 275.01 49.7479Z" fill="white"/>
<path opacity="0.75" d="M393.144 151.051C393.144 151.051 374.441 167.806 363.078 175.797C351.951 183.787 315.493 212.915 275.01 221.679C234.528 230.443 202.568 234.568 150.959 231.474C99.3497 228.381 75.9125 214.462 67.6266 204.151C59.3407 193.84 51.0548 170.126 50.1079 159.042C50.1079 159.042 47.267 186.881 47.0303 195.387C46.7935 204.151 47.267 229.412 66.9164 245.136C86.329 260.86 123.26 268.335 154.273 270.14C185.286 271.944 234.291 269.109 259.386 261.376C284.48 253.642 324.489 237.661 334.432 231.99C344.375 226.061 348.636 222.71 347.453 222.968C346.269 223.226 337.746 228.897 335.853 229.928C333.959 230.959 320.938 237.661 316.203 239.723C312.179 241.527 307.444 242.558 306.497 242.816C307.917 242.558 317.15 238.692 320.464 237.145C323.779 235.341 328.514 232.506 329.461 231.99C330.408 231.474 330.644 230.443 331.828 230.186C333.012 229.928 333.485 229.928 334.195 229.412C334.906 228.639 337.51 228.123 338.693 227.35C339.877 226.577 340.351 225.804 340.824 225.288C341.298 224.772 342.481 224.257 342.955 223.484C343.665 222.71 343.902 222.453 345.085 222.195C346.269 222.195 347.69 221.679 348.163 220.906C348.636 220.133 349.583 219.617 350.057 219.617C350.53 219.617 352.424 219.617 353.135 218.844C353.608 218.328 365.208 210.337 368.996 206.987C373.021 203.636 375.388 201.058 376.098 200.285C376.809 199.511 377.045 198.48 377.519 198.48C378.229 198.222 378.702 197.707 378.702 197.449C378.702 196.934 379.176 196.16 379.886 195.902C380.596 195.645 381.78 194.098 383.911 190.489C386.278 186.881 386.752 186.365 389.119 177.601C391.486 169.095 394.564 154.917 393.144 151.051ZM350.057 193.84C349.11 194.614 348.163 195.129 347.216 195.902C340.587 200.542 324.016 211.626 311.705 216.782C295.607 223.484 272.17 232.248 264.831 234.052C257.492 235.857 256.545 235.857 255.124 235.341C253.704 234.825 254.177 235.341 250.863 235.599C247.549 235.856 243.998 237.403 242.577 237.661C241.157 237.919 226.716 239.981 210.854 240.754C194.756 241.527 169.661 239.981 169.661 239.981C169.661 239.981 209.907 240.496 227.899 237.919C246.128 235.341 252.757 233.794 255.835 233.021C258.912 232.248 280.455 228.639 301.999 218.586C321.648 209.564 337.036 202.604 346.979 195.902C349.11 194.356 350.294 193.583 350.057 193.84Z" fill="white"/>
<path opacity="0.75" d="M453.984 143.318C453.037 138.678 452.327 131.46 449.249 125.274C446.171 119.087 434.098 103.879 425.575 97.9505C417.052 92.0218 397.403 82.2266 381.305 76.0402C364.97 70.1115 354.79 68.8227 349.345 67.7916C343.9 66.7606 337.271 65.4717 333.957 64.6984C330.642 64.1829 311.23 62.3785 304.364 61.6052C297.736 60.8319 286.846 59.8008 281.164 60.0586C275.719 60.3164 255.359 59.8008 252.045 59.5431C248.73 59.2853 239.971 58.7698 235.236 59.0275C230.502 59.2853 221.742 60.5741 217.007 61.0897C212.273 61.6052 187.178 63.9251 180.313 66.245C173.684 68.5649 170.606 68.8227 166.819 69.0805C163.267 69.3382 159.716 71.6581 158.769 71.6581C157.822 71.6581 140.304 76.298 135.095 77.8446C129.887 79.3912 112.132 88.1553 101.715 94.3417C91.2987 100.27 80.8821 108.003 74.4902 113.932C68.0982 119.861 63.3634 123.727 57.2082 136.358C51.2897 148.731 49.6325 157.753 48.6855 168.063C47.7386 178.374 46.0814 189.716 46.5549 199.253C47.0284 208.791 48.6855 216.008 49.6325 217.812C49.6325 217.812 54.8408 172.445 87.0374 145.895C118.997 119.345 173.684 103.106 244.943 96.9194C316.201 90.733 389.827 113.674 405.689 123.727C405.689 123.727 407.109 123.212 401.901 120.376C396.456 117.541 389.354 114.963 389.354 114.963C389.354 114.963 394.562 115.221 405.689 121.15C416.816 127.078 423.444 132.749 428.416 137.389C433.151 141.771 438.596 148.215 440.726 155.69C442.857 162.908 444.514 173.734 444.514 181.983C444.514 190.231 443.094 195.644 443.804 194.356C444.514 193.067 449.722 180.436 452.09 168.063C454.22 155.69 454.931 147.957 453.984 143.318ZM374.913 83.7732C367.1 80.4223 360.945 79.649 358.341 79.1334C355.737 78.6179 354.553 78.1023 351.949 77.8446C349.345 77.5868 352.422 76.8135 349.582 76.298C346.741 75.7824 342.953 75.7824 338.455 75.2669C333.957 74.7514 330.169 72.947 324.724 72.947C319.516 72.947 310.046 70.8848 303.654 70.6271C297.262 70.3693 290.633 70.1115 285.425 69.8538C280.217 69.596 276.192 68.5649 271.221 68.5649C266.486 68.5649 260.094 68.0494 264.829 67.2761C267.196 66.7606 276.192 66.5028 280.69 66.5028C284.952 66.5028 294.658 67.2761 298.209 67.5339C301.76 67.7916 344.373 72.1737 351.002 74.2358C357.631 76.298 380.358 82.7422 389.591 86.3509C398.587 89.9597 404.742 94.3417 404.742 94.3417C404.742 94.3417 382.725 87.1242 374.913 83.7732Z" fill="white"/>
<path opacity="0.75" d="M453.275 140.74C452.802 139.194 440.491 167.29 434.099 175.539C427.707 183.787 401.429 205.44 387.225 213.431C373.02 221.422 328.987 239.208 324.962 240.754C321.174 242.301 318.57 241.527 315.966 242.559C313.362 243.59 316.203 241.012 312.889 242.043C309.574 243.074 284.006 250.292 278.798 251.58C273.59 252.869 254.414 257.251 247.312 258.54C240.209 259.829 187.653 266.789 168.004 267.046C148.118 267.304 113.317 265.758 100.06 264.211C86.8022 262.664 69.2835 259.056 56.2628 256.22C43.2421 253.385 32.5888 245.652 25.9601 240.754C19.3314 236.114 16.0171 229.67 13.1762 223.484C10.572 217.555 5.36378 200.285 5.36378 190.232C5.36378 190.232 0.865722 198.996 0.155503 214.204C-0.554715 229.412 0.865722 256.478 10.8088 267.562C20.7518 278.646 42.7686 293.081 73.7815 297.463C104.558 301.845 139.122 302.876 144.803 302.876C150.485 302.876 168.004 302.618 171.555 302.618C175.106 302.618 177.473 302.361 180.314 302.103C183.155 301.845 182.918 300.299 181.498 300.299C180.078 300.299 180.551 300.556 178.42 300.814C176.29 301.072 175.343 301.587 174.159 301.072C172.975 300.556 172.265 300.556 170.845 300.814C169.424 301.072 168.714 300.814 166.82 300.814C164.926 300.814 165.4 300.814 163.269 301.072C161.138 301.33 160.428 299.783 160.428 299.783C160.428 299.783 162.085 299.267 163.979 299.267C165.873 299.267 175.343 299.267 177.237 299.01C178.894 298.752 181.261 298.752 182.918 299.01C184.576 299.267 186.47 299.01 187.89 299.01C189.31 299.01 189.074 297.205 190.494 297.205C191.915 297.205 191.204 297.721 193.098 297.721C194.992 297.721 197.36 296.948 199.017 296.948C200.674 296.948 203.041 294.37 205.409 294.37C207.776 294.37 209.197 293.597 209.67 294.885C210.144 296.174 210.854 295.916 210.854 295.143C210.854 294.37 210.854 292.565 212.511 292.308C214.168 292.05 216.062 292.05 218.193 291.534C220.323 291.019 225.295 289.988 226.952 289.988C228.609 289.988 230.03 290.761 230.03 290.761C230.03 290.761 224.348 291.277 221.981 291.792C219.613 292.308 216.062 293.339 217.956 293.339C219.85 293.339 222.217 293.339 223.638 293.339C225.058 293.339 225.532 293.854 227.426 293.339C229.319 292.823 230.03 292.05 232.397 291.792C234.764 291.534 235.238 290.761 237.605 290.761C239.973 290.761 240.92 290.761 241.867 290.761C242.814 290.761 245.418 290.503 247.075 290.246C248.732 289.988 248.969 288.699 250.626 288.441C252.283 288.183 257.255 287.668 258.912 287.41C260.569 287.152 263.173 286.379 264.83 285.864C266.488 285.348 269.328 284.575 271.222 284.317C273.116 284.059 272.406 284.832 275.01 284.832C277.614 284.832 278.325 285.864 282.349 284.059C286.374 282.255 285.663 281.997 287.794 280.966C289.925 279.935 294.186 278.904 297.027 278.388C299.868 277.873 301.052 277.099 302.472 277.099C303.892 277.099 304.839 277.099 304.603 276.068C304.366 275.037 305.786 274.006 306.497 275.037C307.207 276.068 308.864 275.811 308.864 275.811C311.468 274.779 314.309 273.233 315.729 273.233C317.15 273.233 318.097 272.717 320.938 271.686C323.779 270.655 323.779 270.655 325.436 270.397C327.093 270.14 326.856 267.304 328.987 266.789C331.118 266.273 335.142 265.5 337.509 264.469C339.877 263.438 341.534 263.695 343.901 262.664C346.269 261.633 346.032 262.922 339.877 264.727C333.722 266.531 333.485 267.562 335.616 267.304C337.746 267.046 340.587 265.242 343.901 264.469C347.216 263.695 348.163 263.18 349.11 262.407C350.057 261.633 349.11 260.602 351.24 259.829C353.371 259.056 357.159 257.251 359.289 256.478C361.42 255.705 365.208 255.189 367.102 254.158C368.996 253.127 371.6 252.611 373.257 251.58C374.914 250.549 377.282 249.26 376.335 249.26C375.388 249.26 372.31 250.807 369.706 251.838C367.102 252.869 365.208 252.611 365.208 252.611C365.208 252.611 368.049 251.065 370.653 250.292C373.257 249.518 373.967 248.487 376.098 247.714C378.229 246.941 379.649 245.652 378.939 245.652C378.229 245.652 374.678 246.167 376.571 245.136C378.465 244.105 380.833 243.332 383.674 242.043C386.515 240.754 389.829 237.403 389.829 237.403C389.829 237.403 390.302 238.692 388.645 240.239C386.988 241.785 385.804 242.816 388.172 242.043C390.539 241.27 389.355 242.043 391.96 240.496C394.564 238.95 398.588 236.888 402.139 234.826C405.69 232.763 406.401 232.763 407.821 231.475C409.242 230.186 409.715 230.701 409.242 230.186C408.768 229.67 407.821 229.155 407.821 229.155C410.425 227.866 411.135 226.319 413.029 225.546C414.923 224.773 417.764 220.648 419.658 219.359C421.552 218.071 424.866 216.266 426.05 214.977C427.234 213.689 428.417 212.657 430.311 210.853C432.205 209.049 435.52 204.151 436.703 202.605C437.887 201.058 439.307 198.738 440.018 196.934C440.728 195.129 443.806 190.232 446.173 182.756C450.908 175.023 456.826 149.504 453.275 140.74ZM371.6 231.217C361.183 236.372 346.742 243.074 343.428 244.363C340.35 245.652 327.803 248.487 322.121 251.065C316.44 253.385 300.341 256.994 294.66 258.798C288.978 260.602 254.887 268.593 243.997 269.882C233.107 271.171 202.331 275.037 196.413 275.037C190.731 275.037 186.47 274.78 184.339 275.037C182.208 275.295 178.894 276.068 175.816 276.068C172.739 276.068 171.555 276.842 169.188 276.842C166.583 276.842 164.69 276.842 162.085 276.842C159.481 276.842 89.4063 274.78 77.8061 269.624C75.9122 268.851 119.472 273.491 123.023 273.748C126.574 274.006 155.22 275.553 164.453 274.006C173.686 272.717 199.964 272.975 206.119 272.202C212.511 271.429 255.124 264.469 259.622 264.211C264.12 263.953 284.717 257.251 291.582 255.447C298.211 253.643 324.962 247.714 333.248 245.652C341.534 243.59 353.608 236.888 361.42 233.794C368.996 230.701 395.747 216.008 400.956 212.657C401.429 212.657 382.253 225.804 371.6 231.217Z" fill="white"/>
<path d="M401.504 59.4327C401.237 59.2753 400.961 59.1274 400.689 58.9748C400.556 58.7745 400.384 58.5885 400.174 58.4501C397.048 56.4182 393.63 55.1494 390.079 54.4197C383.901 52.5308 377.39 51.7486 370.913 52.1683C365.736 52.507 360.588 53.5611 355.736 55.4118C353.886 56.1177 351.007 56.8713 350.393 59.0559C350.254 59.5472 350.259 60.0432 350.378 60.5059C350.107 61.0592 350.188 61.7079 350.497 62.2421C350.083 62.7191 349.787 63.2819 349.673 63.9736C349.449 65.3616 350.502 66.74 352.018 66.3203C352.685 66.1343 353.357 65.9578 354.025 65.7766C356.379 68.3618 359.03 70.6704 361.928 72.6308C362.333 73.7946 363.524 74.6532 364.778 74.448C366.37 75.4354 368.339 76.5706 370.236 77.0762C370.574 78.5596 372.538 79.6376 374.078 78.946C374.835 79.9142 376.118 80.4008 377.305 79.4993C377.486 79.3657 377.652 79.2226 377.834 79.0843C377.848 79.07 377.857 79.0604 377.872 79.0461C380.479 77.0285 382.915 74.863 385.184 72.5354C387.553 70.7228 389.855 68.8245 392.071 66.8164C393.377 65.6335 392.82 63.7208 391.652 62.7811C391.599 62.6905 391.537 62.5999 391.466 62.514C394.493 62.6762 397.519 62.8431 400.537 62.9767C402.467 63.0625 403.082 60.3533 401.5 59.4232L401.504 59.4327ZM364.907 67.5652C364.749 67.7035 364.592 67.8466 364.435 67.9945C364.23 67.8514 364.025 67.7036 363.82 67.5557C363.987 67.5461 364.158 67.5318 364.325 67.5175C364.516 67.5366 364.711 67.5509 364.902 67.5652H364.907Z" fill="#F7A392"/>
<path d="M397.306 44.8992C396.915 42.2758 397.22 39.6238 396.281 37.0958C395.767 35.7173 395.109 34.4676 394.99 32.9652C394.88 31.5676 395.095 30.1605 395.123 28.763C395.171 26.4162 394.933 24.0504 394.38 21.7657C392.268 13.0465 385.013 5.70575 375.68 6.10641C375.514 6.10641 375.423 6.09687 375.304 6.08733C365.9 5.60558 358.488 12.8795 356.366 21.6464C355.814 23.9312 355.575 26.297 355.623 28.6437C355.651 30.0413 355.861 31.4484 355.756 32.8459C355.642 34.3484 354.979 35.5981 354.465 36.9766C353.521 39.5046 353.831 42.1566 353.44 44.78C353.101 47.0599 351.695 49.13 352.329 51.4672C352.382 51.658 352.582 51.8297 352.787 51.8154C357.706 51.472 362.544 52.86 367.182 50.8662C369.737 49.7692 375.251 49.359 375.28 45.7673C375.337 45.7673 375.399 45.7673 375.456 45.7578C375.356 49.4639 380.971 49.8741 383.555 50.9855C388.193 52.9745 393.031 51.5912 397.95 51.9347C398.155 51.949 398.36 51.7773 398.407 51.5865C399.041 49.2493 397.635 47.1839 397.297 44.8992H397.306Z" fill="#1F2144"/>
<path d="M453.543 60.4248C453.405 60.4487 453.286 60.4916 453.176 60.5441C453.319 59.3135 451.532 58.4645 450.993 59.7618C446.994 69.3539 442.542 80.0192 432.856 85.1181C428.595 87.3599 413.752 89.845 409.205 69.3635C409.095 68.8769 405.163 76.0984 404.762 76.3751C402.946 77.6438 401.135 78.9174 399.319 80.1861C398.094 81.0447 396.068 81.9939 395.458 83.4868C394.486 85.867 394.233 81.5789 395.458 83.4868C410.101 106.296 429.529 101.851 435.75 98.3782C442.123 94.8199 446.961 87.131 450.054 80.7347C451.994 76.7233 453.51 72.4877 454.544 68.1567C454.868 66.8068 457.109 59.8668 453.548 60.4248H453.543Z" fill="#F79884"/>
<path d="M342.829 216.435C342.929 233.583 350.427 292.208 350.522 309.356C350.522 309.919 350.894 310.31 351.394 310.505C354.178 311.598 356.28 309.246 356.943 306.756C358.096 302.444 358.42 297.703 359.068 293.291C361.399 277.379 362.686 261.415 363.678 245.374C364.698 228.861 366.423 212.414 368.964 196.063C369.197 194.561 366.9 193.912 366.666 195.424C366.557 196.14 366.447 196.855 366.342 197.571C363.277 197.776 359.998 198.11 357.338 199.751C354.464 201.525 350.613 187.087 349.969 190.268C346.632 206.838 342.729 199.631 342.829 216.431V216.435Z" fill="#F7A392"/>
<path d="M344.607 324.219C345.598 324.457 347.066 323.823 347.986 323.551C349.345 323.155 350.803 322.726 352.09 322.134C354.154 321.18 355.16 317.035 356.442 315.247C358.158 312.847 358.196 312.633 357.834 309.776C357.352 305.984 357.734 302.34 358.282 298.571C358.368 297.97 357.448 297.718 357.362 298.319C357.09 300.203 356.819 302.091 356.69 303.99C356.652 303.99 356.609 303.98 356.566 303.99C354.321 304.352 350.451 304.834 350.46 307.81C350.474 312.762 344.016 318.337 343.754 320.746C343.63 321.905 343.039 323.837 344.607 324.214V324.219Z" fill="#F7A392"/>
<path d="M342.649 325.784C343.13 326.218 344.045 325.879 344.57 325.793C346.257 325.521 347.959 325.254 349.636 324.93C351.805 324.51 353.369 323.733 354.293 321.648C354.942 320.189 355.461 318.748 356.047 317.341L356.238 321.171C356.243 321.295 356.343 321.419 356.476 321.41C356.834 321.386 357.177 321.343 357.535 321.281C357.63 321.262 357.716 321.147 357.711 321.052C357.544 318.266 357.797 315.514 358.474 312.81C358.712 312.299 357.93 311.818 357.573 312.323C356.882 313.291 356.252 314.293 355.695 315.333C355.151 316.349 354.675 317.398 354.279 318.495C354.16 318.834 354.055 319.182 353.95 319.535C353.931 319.535 353.922 319.521 353.903 319.521C350.518 319.225 347.682 318.953 344.303 319.287C344.141 319.301 343.964 319.464 343.921 319.621C343.616 320.737 341.581 324.82 342.658 325.793L342.649 325.784Z" fill="#1F2144"/>
<path d="M373.539 214.967C373.582 232.114 380.884 290.764 380.927 307.911C380.927 308.474 381.299 308.87 381.795 309.066C384.574 310.163 386.685 307.821 387.357 305.336C388.525 301.028 388.868 296.287 389.526 291.875C391.909 275.973 393.249 260.013 394.293 243.977C395.365 227.469 397.143 211.027 399.741 194.686C399.979 193.183 397.687 192.53 397.443 194.042C397.329 194.757 397.219 195.473 397.11 196.188C394.045 196.384 390.765 196.703 388.096 198.339C385.217 200.104 381.409 185.657 380.76 188.833C377.371 205.389 373.492 198.173 373.534 214.972L373.539 214.967Z" fill="#F7A392"/>
<path d="M403.531 150.837C400.333 135.788 397.94 132.912 397.711 126.725C397.64 124.832 398.736 117.653 397.949 115.874C397.077 113.904 348.382 113.785 348.296 113.847C348.067 112.621 348.525 123.234 348.454 124.66C348.063 132.573 345.193 135.821 343.368 143.42C341.518 151.123 331.928 220.452 335.794 248.832C335.884 249.481 336.337 250.005 336.985 250.025C351.142 250.358 368.916 250.616 385.475 250.802C387.11 242.784 387.749 236.3 389.932 228.392C390.132 227.676 391.028 227.647 391.419 228.196C393.612 231.287 392.172 243.643 392.067 250.74C396.338 250.783 404.789 250.988 408.626 251.017C409.313 251.021 409.804 250.463 409.818 249.824C410.266 224.029 408.965 176.407 403.531 150.841V150.837Z" fill="#F5E4D5"/>
<path d="M374.965 322.754C375.957 322.997 377.425 322.363 378.345 322.1C379.703 321.709 381.167 321.285 382.454 320.693C384.517 319.749 385.542 315.604 386.824 313.82C388.55 311.426 388.588 311.216 388.235 308.354C387.763 304.562 388.159 300.918 388.717 297.15C388.807 296.549 387.887 296.291 387.797 296.897C387.516 298.781 387.239 300.67 387.106 302.568C387.068 302.568 387.025 302.559 386.982 302.563C384.737 302.921 380.866 303.389 380.866 306.365C380.866 311.316 374.389 316.868 374.117 319.281C373.988 320.441 373.392 322.372 374.961 322.754H374.965Z" fill="#F7A392"/>
<path d="M373.002 324.31C373.483 324.744 374.398 324.41 374.923 324.324C376.615 324.057 378.312 323.799 379.994 323.475C382.168 323.06 383.731 322.287 384.661 320.207C385.314 318.748 385.838 317.312 386.429 315.905L386.606 319.735C386.61 319.859 386.71 319.983 386.844 319.974C387.201 319.955 387.549 319.912 387.902 319.85C388.002 319.831 388.083 319.716 388.078 319.621C387.921 316.835 388.183 314.083 388.87 311.379C389.108 310.868 388.331 310.386 387.969 310.892C387.273 311.86 386.639 312.857 386.081 313.892C385.533 314.903 385.052 315.958 384.656 317.05C384.532 317.389 384.427 317.737 384.327 318.085C384.308 318.085 384.299 318.071 384.279 318.071C380.895 317.765 378.064 317.479 374.68 317.804C374.518 317.818 374.341 317.98 374.298 318.137C373.988 319.254 371.939 323.332 373.011 324.305L373.002 324.31Z" fill="#1F2144"/>
<path d="M389.853 19.6433C389.876 16.6574 388.485 15.4077 386.087 14.1103C373.17 7.12258 361.573 13.5141 361.492 15.3505C361.167 22.8152 360.529 32.3357 363.994 39.0802C366.587 44.1315 371.663 48.6008 377.46 46.1157C383.508 43.5209 389.733 36.2184 389.853 19.6433Z" fill="#F7A392"/>
<path d="M468.8 52.4264C469.329 51.8493 469.958 51.1147 469.996 50.5471C470.096 49.0733 468.38 50.1608 467.87 50.6187C466.798 51.5726 465.739 52.5314 464.634 53.4519C464.076 53.9146 463.532 54.4011 462.951 54.8304C462.665 55.0403 461.059 56.0229 460.682 55.6317C462.212 54.1579 463.737 52.684 465.253 51.1958C465.882 50.5758 468.042 48.6965 467.489 47.5899C467.422 47.4515 467.303 47.3895 467.15 47.3943C465.391 47.4706 463.604 49.4787 462.474 50.6616C461.721 51.4534 460.572 53.2421 459.514 53.6093C459.219 53.7095 458.966 53.6809 458.742 53.5664C458.513 53.2659 458.299 52.9511 458.108 52.6172C458.003 52.3644 457.884 52.1164 457.751 51.8827C457.722 51.8207 457.693 51.7634 457.67 51.6967C457.641 51.6299 457.598 51.587 457.55 51.5536C457.117 50.8906 456.535 50.3325 455.725 49.97C454.347 49.3547 451.802 49.0113 450.649 50.1894C450.477 50.3659 450.591 50.5805 450.772 50.6568C450.882 50.8619 450.973 50.9001 451.273 51.0098C452.088 51.3103 452.946 51.358 453.737 51.7634C454.786 52.3024 455.634 53.0799 456.168 54.0482C456.426 55.15 456.235 56.2852 455.477 57.2487C454.776 58.1359 453.794 58.5556 452.755 58.8227C452.746 58.7894 452.736 58.7512 452.712 58.7178C451.654 57.1152 451.216 55.2931 451.011 53.3995C450.92 52.5838 451.192 51.0909 450.386 50.5853C450.239 50.4947 450.086 50.5328 449.981 50.6235C449.9 50.6425 449.824 50.695 449.776 50.7904C449.023 52.2452 448.699 54.0672 448.856 55.7033C448.98 57.0007 449.59 58.1359 450.239 59.2425C450.343 60.1249 450.062 60.9215 449.843 61.8563C449.695 62.4859 449.519 63.4494 449.814 64.1125C449.805 64.1506 449.8 64.1935 449.8 64.2365C449.8 64.2699 449.8 64.3032 449.8 64.3366C449.8 64.4606 449.943 64.6085 450.072 64.6085C450.096 64.6085 450.119 64.6085 450.148 64.6085C450.172 64.6085 450.191 64.599 450.21 64.599C450.281 64.6467 450.353 64.6896 450.439 64.723C450.506 64.7516 450.567 64.7468 450.625 64.7325C451.068 65.0378 451.649 65.5625 451.869 65.6865C452.126 65.8343 452.407 66.0776 452.717 66.1158C453.246 66.1873 453.78 65.8153 454.214 65.5529C456.054 64.4463 457.732 62.92 459.252 61.4175C459.576 61.0979 459.948 60.7641 460.301 60.4111C461.383 59.7147 462.422 58.9515 463.413 58.217C464.686 57.2726 465.916 56.2661 467.093 55.2025C467.803 54.5585 468.923 53.7858 468.943 52.7365C468.943 52.5886 468.895 52.4932 468.78 52.4169L468.8 52.4264Z" fill="#F7A392"/>
<path d="M382.096 53.8283L384.126 28.9443C384.126 27.9951 381.872 31.0812 381.076 31.6583C377.024 34.5822 373.783 35.4837 368.94 35.9893C368.792 36.0036 368.664 36.0465 368.544 36.0942C367.868 36.0942 367.92 36.4186 367.925 37.2914C367.944 42.8721 366.685 53.6709 367.939 59.1562C368.263 60.5824 368.592 58.436 370.079 59.0799C371.085 59.5139 372.944 59.3231 374.05 59.4185C375.461 59.5378 375.299 59.3852 376.71 59.5044C378.249 59.6332 380.218 60.7636 381.524 59.5187C382.796 58.3072 382.105 55.2927 382.1 53.8283H382.096Z" fill="#F7A392"/>
<path d="M369.408 28.4766C369.422 29.3638 369.008 30.0888 368.483 30.0984C367.959 30.1079 367.526 29.3924 367.516 28.5053C367.502 27.6181 367.917 26.8931 368.441 26.8835C368.965 26.874 369.398 27.5894 369.408 28.4766Z" fill="#1F2144"/>
<path d="M382.167 28.7627C382.158 29.6499 381.724 30.3653 381.205 30.3558C380.681 30.351 380.266 29.626 380.276 28.7388C380.285 27.8517 380.719 27.1362 381.238 27.1457C381.758 27.1553 382.177 27.8755 382.167 28.7627Z" fill="#1F2144"/>
<path d="M384.582 24.0428C384.557 24.019 384.078 23.8881 384.058 23.8881C382.561 23.555 380.52 23.2963 379.082 23.7305C378.336 23.9565 377.605 24.5097 378.657 24.7774C379.556 25.0064 380.846 24.9737 381.795 24.9915C382.566 25.0034 383.505 25.0867 384.236 24.8785C385.121 24.6287 385.155 24.3194 384.582 24.0398V24.0428Z" fill="#1F2144"/>
<path d="M365.105 24.664C365.795 24.9144 366.749 24.8967 367.525 24.935C368.479 24.9821 369.761 25.097 370.7 24.932C371.803 24.7376 371.172 24.1456 370.471 23.8717C369.115 23.3474 367.028 23.4682 365.473 23.6979C365.453 23.6979 364.951 23.7922 364.921 23.8157C364.295 24.0514 364.27 24.3577 365.11 24.664H365.105Z" fill="#1F2144"/>
<path d="M379.122 37.8969C374.541 39.533 370.457 37.5821 370.213 37.6584C370.113 37.6918 370.008 37.7681 370.028 37.8779C370.418 39.8621 372.668 40.9782 374.418 41.0784C376.243 41.1833 378.798 40.1054 379.399 38.1974C379.451 38.0353 379.303 37.8254 379.117 37.8922L379.122 37.8969Z" fill="white"/>
<path d="M375.889 35.5314C374.626 35.8415 373.458 35.4313 373.325 34.0242C373.263 33.3707 373.477 32.5265 373.554 31.873C373.711 30.4659 373.892 29.0636 374.083 27.666C374.126 27.3608 373.649 27.3369 373.606 27.6422C373.444 28.8203 373.291 30.0032 373.153 31.1861C373.034 32.226 372.715 33.447 372.843 34.4916C373.02 35.9798 374.783 36.2994 375.989 35.9989C376.285 35.9273 376.185 35.4599 375.889 35.5314Z" fill="#DB745E"/>
<path d="M297.461 99.7238C297.132 99.1944 295.979 98.87 295.478 98.5981C294.701 98.1784 293.944 97.7253 293.195 97.2578C292.976 95.1925 291.46 93.504 290.178 91.8202C289.048 90.3368 287.452 87.0123 285.106 87.3748C284.921 87.4034 284.739 87.6228 284.844 87.8184C285.478 88.9822 286.498 89.8885 287.218 91.0046C287.642 91.6581 288.004 92.3401 288.319 93.0413C287.714 92.5405 287.075 92.0873 286.412 91.8059C284.282 90.5324 282.061 89.4353 279.735 88.5577C278.266 88.0044 275.983 86.8692 274.382 87.3509C274.282 87.3796 274.196 87.4988 274.186 87.599C274.038 88.9822 277.008 89.7168 277.938 90.0793C279.811 90.8043 281.632 91.6104 283.41 92.5214C283.352 92.5786 283.29 92.6359 283.233 92.6979C283.171 92.7599 283.104 92.8267 283.038 92.8934C280.859 92.0873 278.662 91.3194 276.441 90.6326C274.954 90.1747 272.895 89.359 271.345 89.8217C271.202 89.8646 271.145 90.0268 271.145 90.1603C271.159 90.7995 271.765 90.9712 272.284 91.2336C273.414 91.8012 274.587 92.2591 275.778 92.6836C277.628 93.3418 279.506 93.9142 281.331 94.6249C281.312 94.6487 281.293 94.6726 281.269 94.6964C279.291 94.0907 277.28 93.5326 275.235 93.1892C274.258 93.027 271.879 92.4737 271.14 93.4134C271.069 93.504 271.05 93.628 271.093 93.7329C271.474 94.6773 273.271 95.0065 274.367 95.2593C273.638 95.2306 272.904 95.2354 272.165 95.2879C271.913 95.307 271.813 95.6122 271.946 95.803C272.685 96.8572 274.815 97.1386 276.012 97.4438C277.866 97.916 279.739 98.2833 281.565 98.8509C281.665 98.932 281.76 99.0179 281.856 99.099C283.157 100.229 284.663 101.455 286.198 102.252C286.741 102.533 287.247 102.662 287.714 102.672C288.214 102.791 288.748 102.8 289.368 102.776C291.708 102.7 293.6 103.144 295.512 104.556C295.75 104.732 296.046 104.532 296.136 104.303C296.508 103.325 298.119 100.778 297.466 99.7286L297.461 99.7238Z" fill="#F7A392"/>
<path d="M389.771 26.7743C388.599 25.6487 386.573 26.7505 386.177 28.0956C386.092 28.3865 386.282 28.5725 386.516 28.6107C386.306 29.0972 386.182 29.6744 386.149 30.2515C385.963 30.9336 385.891 31.6061 386.001 32.0879C386.001 32.3311 386.015 32.5744 386.034 32.8177C385.93 33.0943 385.891 33.3757 386.001 33.6381C386.711 35.3266 388.928 32.9798 389.338 32.2357C390.072 30.8954 391.092 28.0479 389.767 26.7791L389.771 26.7743Z" fill="#F7A392"/>
<path d="M359.745 26.6027C360.788 25.3577 362.924 26.2306 363.458 27.528C363.577 27.8094 363.405 28.0097 363.176 28.0765C363.439 28.5392 363.625 29.0973 363.72 29.6649C363.982 30.3279 364.12 30.9861 364.063 31.4726C364.087 31.7111 364.101 31.9544 364.111 32.1976C364.244 32.46 364.316 32.7366 364.235 33.0085C363.71 34.7638 361.251 32.6746 360.765 31.9782C359.888 30.7238 358.562 28.0097 359.745 26.6027Z" fill="#F79884"/>
<path d="M390.224 23.4349C390.253 23.3872 390.276 23.3395 390.291 23.2871C390.977 23.2728 391.725 22.6432 391.568 21.6844C391.344 20.3203 390.901 19.0753 390.305 17.9306C390.715 17.5776 390.929 16.9719 390.591 16.3375C389.242 13.8286 386.697 12.1591 383.913 11.1527C383.913 10.5136 383.532 9.83147 382.774 9.75039C380.591 9.51667 378.403 9.39742 376.215 9.4165C376.148 9.01107 375.891 8.66764 375.376 8.55794C373.584 8.19066 371.968 8.51024 370.347 8.98245C370.095 8.52932 369.609 8.21451 369.027 8.35283C367.993 8.59609 366.958 9.116 365.977 9.74085C365.552 9.28295 364.833 9.08261 364.232 9.59775C362.559 11.0335 360.776 12.6266 360.485 15.0067C360.424 15.5028 360.667 15.87 361.019 16.0704C360.257 17.8113 359.713 19.6573 359.403 21.6033C359.222 22.729 360.285 23.4016 361.034 23.1583C360.895 23.8928 360.8 24.6417 360.738 25.3953C360.69 26.0297 361.563 26.0631 361.672 25.4764C361.672 25.4669 361.682 25.4621 361.687 25.4526C363.04 21.4316 366.529 19.7383 369.98 18.3313C372.421 17.3344 374.127 15.5314 375.219 13.1131C375.495 14.5536 375.934 15.9702 376.882 17.1197C378.236 18.7653 380.243 19.1374 382.04 20.0913C384.299 21.2885 385.224 23.2823 386.892 25.071C387.402 25.6195 389.166 26.5258 389.347 26.2444C389.704 26.2062 390.076 26.087 390.467 25.8532C391.125 25.4621 390.734 24.5368 390.124 24.5177C390.176 24.4175 390.214 24.2983 390.224 24.1552C390.238 23.9167 390.243 23.6782 390.243 23.4397L390.224 23.4349Z" fill="#1F2144"/>
<path d="M388.186 28.3485C388.172 29.2976 387.953 30.1991 387.529 31.0482C387.391 31.32 387.805 31.5633 387.939 31.2867C388.401 30.3613 388.644 29.3787 388.663 28.3485C388.667 28.0432 388.191 28.0432 388.186 28.3485Z" fill="#DB745E"/>
<path d="M362.366 30.7332C362.004 29.9223 361.804 29.0733 361.761 28.1909C361.747 27.8856 361.27 27.8856 361.285 28.1909C361.332 29.1639 361.556 30.0892 361.956 30.9764C362.08 31.2578 362.495 31.0146 362.366 30.7379V30.7332Z" fill="#DB745E"/>
<path d="M367 16.1609C365.036 18.4456 363.073 20.8305 361.786 23.5159C361.671 22.2901 359.807 21.8465 359.479 23.2345C357.977 29.5497 357.157 35.9746 357.024 42.4615C356.971 42.8479 356.957 43.2533 357 43.6778C357.138 45.1803 359.374 45.2376 359.383 43.6778C359.383 43.3869 359.398 43.1007 359.402 42.8097C359.645 40.9352 361.156 39.4184 361.905 37.6965C362.787 35.6693 362.744 33.4895 362.706 31.3241C362.615 25.7005 365.136 21.9752 368.688 17.8398C369.684 16.6808 368.001 14.9875 367 16.1513V16.1609Z" fill="#1F2144"/>
<path d="M397.979 129.453C397.955 129.296 397.932 129.143 397.913 128.981C396.259 128.924 394.605 128.872 392.951 128.824C392.431 124.684 391.845 120.553 391.182 116.432C391.134 116.131 390.672 116.26 390.725 116.561C391.378 120.634 391.964 124.722 392.474 128.814C380.872 128.49 369.261 128.447 357.659 128.695C354.423 128.767 351.186 128.867 347.95 128.976C347.916 129.139 347.888 129.296 347.854 129.453C362.74 128.929 377.645 128.872 392.531 129.282C394.686 146.668 395.567 164.206 395.138 181.726C394.991 187.802 394.681 193.879 394.228 199.942C394.204 200.247 394.681 200.247 394.705 199.942C396.344 178.177 395.996 156.269 393.632 134.571C393.442 132.811 393.232 131.056 393.013 129.301C394.647 129.349 396.287 129.396 397.922 129.453C397.941 129.453 397.965 129.453 397.984 129.453H397.979Z" fill="#DBC6B6"/>
<path d="M401.39 62.839C401.328 61.1123 400.723 59.5812 399.788 58.2457C396.771 56.3568 393.496 55.1548 390.098 54.4537C389.836 54.759 389.55 55.0928 389.211 55.441C386.499 58.2409 383.201 60.5304 379.459 61.699C371.837 64.0696 363.858 61.1028 360.059 54.0292C358.596 54.4346 357.152 54.902 355.736 55.441C353.886 56.147 351.007 56.9006 350.393 59.0852C350.254 59.5765 350.259 60.0725 350.378 60.5352C350.107 61.0885 350.188 61.7372 350.497 62.2714C350.083 62.7484 349.787 63.3112 349.673 64.0028C349.449 65.3908 350.502 66.7693 352.018 66.3496C352.685 66.1635 353.357 65.9871 354.025 65.8058C356.379 68.391 359.03 70.6996 361.928 72.66C362.333 73.8238 363.524 74.6824 364.778 74.4773C366.37 75.4647 368.339 76.5999 370.236 77.1055C370.574 78.5889 372.538 79.6669 374.078 78.9752C374.835 79.9435 376.118 80.43 377.305 79.5285C377.486 79.395 377.652 79.2519 377.834 79.1136C377.848 79.0992 377.857 79.0897 377.872 79.0754C380.479 77.0578 382.915 74.8923 385.184 72.5646C387.553 70.7521 389.855 68.8537 392.071 66.8456C393.377 65.6627 392.82 63.75 391.652 62.8104C391.599 62.7198 391.537 62.6291 391.466 62.5433C394.493 62.7054 397.519 62.8724 400.537 63.0059C400.861 63.0203 401.142 62.9487 401.39 62.8295V62.839ZM364.435 68.0238C364.23 67.8807 364.025 67.7328 363.82 67.5849C363.987 67.5754 364.158 67.5611 364.325 67.5468C364.516 67.5659 364.711 67.5802 364.902 67.5945C364.745 67.7328 364.587 67.8759 364.43 68.0238H364.435Z" fill="#A0A2CA"/>
<path d="M453.462 78.56C453.877 77.7349 454.082 76.6569 454.311 76.0225C454.682 74.9875 455.874 73.0843 455.421 71.9491C454.935 70.7376 452.456 70.2224 451.398 69.7502C450.097 69.1731 447.89 67.5847 446.427 67.7087C445.373 67.7946 445.078 68.5339 444.649 69.4259C443.862 71.0667 443.219 72.7743 442.628 74.4962C440.206 73.7664 438.023 75.0638 436.203 76.8238C434.687 78.2929 433.333 79.9337 431.26 80.6397C428.781 81.4887 426.331 80.5967 424.072 79.5712C422.723 78.9607 421.307 78.7461 419.882 78.622C417.117 76.8381 414.6 74.7633 412.537 72.0111C410.473 69.2637 403.857 61.2027 402.799 60.0818C400.472 57.6254 397.527 55.7985 393.942 54.7253C388.561 62.3141 382.131 69.2208 374.781 74.9111C374.261 75.3166 373.446 75.6314 372.831 75.1639C368.727 72.0397 355.095 56.4615 354.261 55.0497C341.915 59.5047 336.291 69.1635 330.666 80.5824C328.755 83.5254 326.925 86.6544 324.618 89.2826C322.363 91.8439 319.351 93.5372 317.015 96.0175C315.509 97.6202 314.265 98.8651 311.881 98.9366C310.347 98.9843 308.831 98.6457 307.296 98.8603C306.114 99.0273 305.065 99.4279 304.245 100.105C303.535 99.7713 302.83 99.4375 302.12 99.1036C301.338 98.7363 300.523 98.2307 299.66 98.1019C299.474 98.0733 299.307 98.1019 299.16 98.1544C298.697 98.0256 298.149 98.1925 297.968 98.7792C297.506 100.282 297.048 101.789 296.586 103.291C296.228 104.465 295.303 106.273 295.384 107.498C295.508 109.325 298.988 110.079 300.57 110.575C303.754 114.124 307.401 117.868 312.439 118.24C315.132 118.44 317.606 117.191 320.261 117.067C323.288 116.919 326.181 117.753 329.241 117.415C331.486 117.167 334.046 116.995 336.067 115.903C338.193 114.758 339.756 112.607 341.21 110.742C342.745 108.767 344.113 106.688 345.333 104.527C346.196 107.179 346.863 109.95 346.835 111.567C346.758 115.955 346.582 116.728 347.74 121.006C348.045 122.127 348.398 123.234 348.784 124.322C356.472 125.347 370.844 124.073 378.184 124.026C382.207 123.997 392.031 124.584 396.021 125.037C396.268 125.066 396.516 125.089 396.769 125.118C397.317 124.379 397.87 123.649 398.389 122.886C399.691 120.978 399.643 118.402 400.344 116.213C401.33 113.117 402.908 103.234 404.038 98.8031C405.63 99.7189 408.676 101.274 410.277 102.175C412.985 103.697 415.835 105.142 418.995 105.3C422.127 105.452 425.311 104.298 428.185 103.182C429.796 102.557 431.355 101.694 433.071 101.431C435.025 101.136 436.984 101.66 438.943 101.398C443.676 100.763 449.415 96.1224 450.721 91.4719C451.231 89.6594 451.513 88.1998 452.657 86.6115C453.529 85.4047 454.487 84.2075 454.84 82.7241C455.231 81.0642 454.701 79.4854 453.467 78.541L453.462 78.56Z" fill="#4F5170"/>
<path d="M400.293 88.9196C398.84 85.5712 397.5 82.1274 396.876 78.5119C396.232 74.7819 396.475 70.9375 397.524 67.3029C398.392 64.2931 399.807 61.4742 401.681 58.9891C401.561 58.8842 401.442 58.784 401.323 58.6791C397.777 63.3916 395.851 69.2823 396.061 75.2112C396.328 82.7713 400.212 89.4825 403.02 96.3128C403.373 97.1714 403.711 98.0395 404.021 98.9123C404.03 98.879 404.04 98.8456 404.045 98.8122C404.207 98.9076 404.393 99.0077 404.583 99.1175C403.373 95.645 401.757 92.2776 400.298 88.9196H400.293ZM342.523 62.4091C342.356 62.5712 342.194 62.7334 342.032 62.8956C342.361 72.9932 346.122 83.296 345.898 93.3603C345.798 97.7104 345.073 102.013 344.296 106.286C344.534 105.905 344.758 105.514 344.987 105.127C345.516 102.151 345.993 99.1651 346.231 96.1506C346.532 92.3205 346.322 88.5142 345.788 84.7174C344.744 77.2765 342.666 69.9597 342.523 62.4091Z" fill="#20223F"/>
<path d="M427.969 82.4759C425.91 83.7876 423.775 84.9562 421.558 85.9865C421.282 86.1152 421.52 86.5254 421.796 86.3967C424.008 85.3664 426.148 84.1978 428.207 82.8861C428.465 82.7239 428.226 82.3089 427.969 82.4759Z" fill="#20223F"/>
<path d="M303.233 102.667C302.423 104.808 301.608 106.945 300.797 109.087C300.688 109.373 301.15 109.497 301.255 109.216C302.065 107.074 302.88 104.937 303.691 102.796C303.8 102.509 303.338 102.385 303.233 102.667Z" fill="#20223F"/>
<path d="M317.282 112.883C315.675 111.715 314.188 110.413 312.815 108.977C312.601 108.753 312.267 109.091 312.477 109.315C313.878 110.78 315.404 112.106 317.038 113.298C317.286 113.479 317.525 113.065 317.277 112.888L317.282 112.883Z" fill="#20223F"/>
<path d="M316.847 115.044C315.417 114.51 314.106 113.766 312.919 112.802C312.681 112.611 312.342 112.945 312.581 113.141C313.83 114.157 315.207 114.944 316.718 115.507C317.004 115.612 317.128 115.154 316.847 115.049V115.044Z" fill="#20223F"/>
<path d="M453.069 77.6726C449.899 76.6184 446.729 75.5548 443.555 74.515C443.264 74.4196 443.135 74.8822 443.426 74.9729C446.605 76.0079 449.77 77.0763 452.94 78.1305C453.231 78.2259 453.355 77.768 453.069 77.6726Z" fill="#20223F"/>
<path d="M262.574 312.808L259.472 4.40039C259.472 2.01006 257.568 0.108652 255.228 0.162977L91.4547 0C89.115 0 87.3195 1.95573 87.3195 4.34607L90.4209 312.754C90.4209 315.144 92.3252 317.045 94.6649 316.991L258.439 317.1C260.724 317.1 262.574 315.198 262.574 312.808Z" fill="#4F5170"/>
<path d="M252.835 303.138L250.114 15.0482C250.114 12.9295 248.427 11.2454 246.414 11.2997L101.684 10.7565C99.6709 10.7565 98.0386 12.4949 98.0386 14.6136L100.759 302.703C100.759 304.822 102.446 306.506 104.459 306.452L249.189 306.995C251.202 306.995 252.835 305.257 252.835 303.138Z" fill="white"/>
<path d="M143.035 54.2177C142.98 53.7287 142.708 53.3485 142.382 53.3485C134.819 52.9682 112.674 52.9682 110.933 52.8595C109.518 52.8052 109.79 54.5436 109.79 54.8696C109.845 61.9319 110.933 78.121 111.151 81.5436C111.259 83.0647 111.423 83.8252 112.565 84.2055C114.742 84.9118 136.886 84.8031 142.327 84.9118C144.068 84.9118 144.232 84.3142 144.068 80.4027C143.416 65.3001 144.341 67.2559 143.035 54.2177Z" fill="#A7C6DF"/>
<path d="M133.675 63.2356C133.24 62.964 132.641 63.1269 132.369 63.5615L126.765 73.2315L124.426 70.1893C124.099 69.7547 123.501 69.7003 123.065 70.0263C122.63 70.3523 122.576 70.9498 122.902 71.3844L126.112 75.5675C126.439 76.0021 127.037 76.0565 127.473 75.7305C127.636 75.6219 127.745 75.4046 127.799 75.2416L134.002 64.5394C134.328 64.0505 134.165 63.4529 133.675 63.2356Z" fill="#4F5170"/>
<path d="M154.298 81.7609C154.461 83.282 155.277 84.4772 157.998 84.5315C172.307 84.6945 230.689 84.5858 236.565 84.4772C240.428 84.3685 240.646 83.7166 240.537 81.9239C239.993 74.5899 240.483 64.3223 239.776 55.3585C239.667 53.7287 240.592 52.9139 236.837 52.9682C232.267 53.0225 175.572 52.8052 155.767 52.5336C152.067 52.4793 152.665 56.0104 152.72 56.5537C153.481 67.0929 153.808 76.5999 154.298 81.7609Z" fill="#F5E4D5"/>
<path d="M229.6 60.0856C207.292 60.0313 184.984 60.0313 162.676 59.9769C162.349 59.9769 162.295 60.5202 162.676 60.5202C184.984 60.5745 207.292 60.5745 229.6 60.6288C229.981 60.6288 229.981 60.0856 229.6 60.0856ZM229.709 68.8864C207.401 68.832 185.093 68.832 162.785 68.7777C162.458 68.7777 162.404 69.321 162.785 69.321C185.093 69.3753 207.401 69.3753 229.709 69.4296C230.09 69.4296 230.09 68.8864 229.709 68.8864ZM229.437 77.0896C223.016 76.9809 216.65 77.0352 210.23 77.1982C209.904 77.1982 209.849 77.7415 210.23 77.7415C216.65 77.5785 223.016 77.5785 229.437 77.6328C229.763 77.6328 229.763 77.0896 229.437 77.0896Z" fill="#4F5170"/>
<path d="M143.85 213.5C143.796 213.011 143.524 212.631 143.197 212.631C135.634 212.251 113.49 212.251 111.749 212.142C110.334 212.088 110.606 213.826 110.606 214.152C110.66 221.215 111.749 237.404 111.966 240.826C112.075 242.347 112.238 243.108 113.381 243.488C115.557 244.194 137.702 244.086 143.143 244.194C144.884 244.194 145.047 243.597 144.884 239.685C144.231 224.528 145.156 226.538 143.85 213.5Z" fill="#A7C6DF"/>
<path d="M134.71 221.595C134.275 221.323 133.677 221.486 133.404 221.921L127.8 231.591L125.461 228.549C125.134 228.114 124.536 228.06 124.1 228.386C123.665 228.712 123.611 229.309 123.937 229.744L127.147 233.927C127.474 234.362 128.072 234.416 128.508 234.09C128.671 233.981 128.78 233.764 128.834 233.601L135.037 222.899C135.309 222.41 135.146 221.812 134.71 221.595Z" fill="#4F5170"/>
<path d="M157.671 240.935C157.834 242.456 158.65 243.651 161.371 243.706C175.68 243.923 234.062 244.086 239.938 243.977C243.802 243.923 244.019 243.271 243.91 241.478C243.421 234.144 243.91 223.877 243.257 214.859C243.149 213.229 244.074 212.414 240.319 212.468C235.749 212.523 179.054 212.034 159.249 211.708C155.549 211.654 156.147 215.185 156.202 215.728C156.909 226.267 157.235 235.774 157.671 240.935Z" fill="#F5E4D5"/>
<path d="M233.897 218.988C211.589 218.716 189.281 218.39 166.973 218.119C166.647 218.119 166.647 218.662 166.973 218.662C189.281 218.934 211.589 219.26 233.897 219.531C234.278 219.531 234.278 218.988 233.897 218.988Z" fill="#4F5170"/>
<path d="M233.681 227.789C211.373 227.517 189.065 227.191 166.757 226.92C166.43 226.92 166.43 227.463 166.757 227.463C189.065 227.734 211.373 228.06 233.681 228.332C234.007 228.332 234.007 227.789 233.681 227.789Z" fill="#4F5170"/>
<path d="M186.073 235.504C179.707 235.232 173.287 235.123 166.867 235.123C166.54 235.123 166.54 235.667 166.867 235.667C173.287 235.667 179.653 235.83 186.073 236.047C186.454 236.047 186.454 235.504 186.073 235.504Z" fill="#4F5170"/>
<path d="M142.492 107.456C142.437 106.968 142.165 106.587 141.839 106.587C134.276 106.207 112.131 106.207 110.39 106.098C108.975 106.044 109.247 107.782 109.247 108.108C109.302 115.171 110.39 131.36 110.608 134.782C110.716 136.303 110.88 137.064 112.022 137.444C114.199 138.151 136.344 138.042 141.785 138.151C143.526 138.151 143.689 137.553 143.526 133.641C142.818 118.539 143.743 120.495 142.492 107.456Z" fill="#A7C6DF"/>
<path d="M132.207 114.899C131.772 114.628 131.173 114.791 130.901 115.225L125.297 124.949L122.957 121.907C122.631 121.473 122.032 121.418 121.597 121.744C121.162 122.07 121.107 122.668 121.434 123.102L124.644 127.285C124.971 127.72 125.569 127.774 126.004 127.448C126.168 127.34 126.276 127.122 126.331 126.959L132.533 116.257C132.806 115.768 132.642 115.171 132.207 114.899Z" fill="#4F5170"/>
<path d="M154.407 134.945C154.516 136.466 155.332 137.661 158.052 137.77C172.362 138.15 230.744 138.911 236.62 138.856C240.483 138.802 240.755 138.15 240.647 136.357C240.211 129.023 240.81 118.756 240.266 109.738C240.157 108.108 241.136 107.347 237.328 107.293C232.757 107.293 176.062 106.207 156.257 105.718C152.557 105.609 153.101 109.14 153.155 109.738C153.808 120.223 153.972 129.73 154.407 134.945Z" fill="#F5E4D5"/>
<path d="M229.223 113.541C206.915 113.106 184.607 112.617 162.299 112.183C161.972 112.183 161.918 112.726 162.299 112.726C184.607 113.161 206.915 113.65 229.223 114.084C229.604 114.138 229.604 113.595 229.223 113.541ZM162.027 121.527C184.335 121.961 188.687 122.287 210.995 122.776C211.322 122.776 211.376 122.233 210.995 122.233C188.687 121.798 184.335 121.472 162.027 120.984C161.646 120.984 161.646 121.527 162.027 121.527ZM228.298 131.305C205.99 130.871 183.682 130.382 161.374 129.947C161.047 129.947 160.993 130.491 161.374 130.491C183.682 130.925 205.99 131.414 228.298 131.849C228.679 131.903 228.679 131.36 228.298 131.305Z" fill="#4F5170"/>
<path d="M143.687 158.794C143.633 158.306 143.361 157.925 143.034 157.925C135.471 157.545 113.326 157.545 111.585 157.436C110.171 157.382 110.443 159.12 110.443 159.446C110.497 166.509 111.585 182.698 111.803 186.12C111.912 187.641 112.075 188.402 113.218 188.782C115.394 189.489 137.539 189.38 142.98 189.489C144.721 189.489 144.884 188.891 144.721 184.98C144.068 169.877 144.939 171.833 143.687 158.794Z" fill="#A7C6DF"/>
<path d="M134.055 168.356C133.62 168.084 133.021 168.247 132.749 168.682L127.145 178.352L124.805 175.309C124.479 174.875 123.88 174.82 123.445 175.146C123.01 175.472 122.955 176.07 123.282 176.504L126.492 180.688C126.818 181.122 127.417 181.176 127.852 180.851C128.015 180.742 128.124 180.525 128.179 180.362L134.381 169.659C134.653 169.17 134.49 168.573 134.055 168.356Z" fill="#4F5170"/>
<path d="M228.894 164.879C206.586 164.607 184.278 164.282 161.97 164.01C161.643 164.01 161.643 164.553 161.97 164.553C184.278 164.825 206.586 165.151 228.894 165.422C229.22 165.422 229.22 164.879 228.894 164.879Z" fill="#4F5170"/>
<path d="M154.951 187.261C155.06 188.782 155.876 189.977 158.597 190.086C172.907 190.466 231.289 191.281 237.165 191.227C241.028 191.172 241.3 190.52 241.191 188.728C240.756 181.394 241.409 171.126 240.865 162.108C240.756 160.478 241.735 159.718 237.927 159.663C233.356 159.663 176.661 158.577 156.856 158.034C153.156 157.925 153.7 161.456 153.754 162.054C154.353 172.593 154.516 182.1 154.951 187.261Z" fill="#F5E4D5"/>
<path d="M160.61 166.292C182.918 166.564 187.27 166.89 209.579 167.161C209.905 167.161 209.905 166.618 209.579 166.618C187.27 166.346 182.918 166.02 160.61 165.749C160.229 165.749 160.229 166.292 160.61 166.292ZM226.99 175.582C204.682 175.31 182.374 174.984 160.066 174.712C159.739 174.712 159.739 175.256 160.066 175.256C182.374 175.527 204.682 175.853 226.99 176.125C227.316 176.125 227.316 175.582 226.99 175.582Z" fill="#4F5170"/>
<path d="M250.313 19.3317C250.313 15.0097 248.625 11.5743 246.611 11.6851L101.79 10.5769C99.7758 10.5769 98.1425 14.1232 98.1425 18.4451L98.1969 33.6275H250.367L250.313 19.3317Z" fill="#A7C6DF"/>
<path fill-rule="evenodd" clip-rule="evenodd" d="M172.45 28.5854C172.843 28.5854 173.017 28.3916 173.237 28.1616L175.336 25.9637L172.718 24.2634" fill="white"/>
<path fill-rule="evenodd" clip-rule="evenodd" d="M172.741 24.4065L179.157 29.1094C179.89 29.5102 180.418 29.3027 180.6 28.435L183.212 16.2248C183.48 15.1613 182.804 14.6789 182.103 14.9944L166.766 20.8611C165.719 21.2777 165.725 21.8571 166.575 22.1153L170.511 23.3339L179.623 17.6312C180.053 17.3724 180.448 17.5115 180.124 17.7968" fill="white"/>
<path d="M100.706 302.705C100.706 304.823 102.393 306.507 104.406 306.453L249.136 306.996C251.149 306.996 252.782 305.258 252.782 303.139L252.619 284.505L100.489 283.962L100.706 302.705Z" fill="#A7C6DF"/>
<path d="M178.457 299.01H171.982C171.329 299.01 170.785 298.521 170.785 297.869L170.513 292.817C170.513 292.491 170.622 292.165 170.84 291.893C171.057 291.621 171.384 291.513 171.71 291.513H178.185C178.838 291.513 179.382 292.002 179.382 292.654L179.654 297.706C179.654 298.032 179.545 298.358 179.328 298.629C179.11 298.847 178.784 299.01 178.457 299.01ZM171.71 292.056C171.547 292.056 171.329 292.11 171.221 292.273C171.112 292.382 171.003 292.599 171.057 292.762L171.329 297.815C171.329 298.195 171.656 298.466 171.982 298.466H178.457C178.62 298.466 178.838 298.412 178.947 298.249C179.056 298.086 179.164 297.923 179.11 297.76L178.838 292.708C178.838 292.328 178.512 292.056 178.185 292.056H171.71Z" fill="#F5E4D5"/>
<path d="M227.86 298.739C227.806 298.739 227.751 298.739 227.697 298.684L223.018 295.044L227.316 291.133C227.425 291.024 227.588 291.024 227.697 291.133C227.806 291.242 227.806 291.405 227.697 291.513L223.888 294.99L228.078 298.25C228.187 298.358 228.241 298.521 228.132 298.63C228.023 298.739 227.969 298.739 227.86 298.739Z" fill="#F5E4D5"/>
<path d="M127.146 291.729H135.036C135.199 291.729 135.308 291.621 135.308 291.458C135.308 291.295 135.199 291.186 135.036 291.186H127.146C126.983 291.186 126.874 291.295 126.874 291.458C126.874 291.621 127.037 291.729 127.146 291.729ZM135.09 294.717C135.253 294.717 135.362 294.609 135.362 294.446C135.362 294.283 135.253 294.174 135.09 294.174H127.201C127.038 294.174 126.929 294.283 126.929 294.446C126.929 294.609 127.038 294.717 127.201 294.717H135.09ZM135.308 297.162H127.418C127.255 297.162 127.146 297.271 127.146 297.434C127.146 297.596 127.255 297.705 127.418 297.705H135.308C135.471 297.705 135.58 297.596 135.58 297.434C135.58 297.271 135.471 297.162 135.308 297.162Z" fill="#F5E4D5"/>
</svg>
