<svg width="471" height="326" viewBox="0 0 471 326" fill="none" xmlns="http://www.w3.org/2000/svg">
<path opacity="0.75" d="M275.254 49.7479C278.095 50.7789 281.173 52.8411 279.989 53.0989C278.805 53.6144 279.989 55.6765 280.699 57.7387C281.409 59.8008 279.042 58.512 279.042 60.3164C279.042 62.1207 279.752 63.4096 278.569 64.1829C277.385 64.9562 278.095 65.9872 278.095 67.5338C278.095 69.3382 275.728 67.7916 274.544 70.1115C273.834 71.1426 274.544 72.1737 275.491 73.7203C276.201 75.2669 275.728 76.5557 273.597 76.298C271.466 76.0402 268.862 77.0713 265.311 77.0713C261.76 77.0713 237.139 76.0402 230.747 76.5557C224.355 77.0713 212.755 79.3912 209.914 79.9067C206.836 80.68 175.587 88.413 156.174 95.6305C136.762 102.848 106.222 118.314 93.675 127.336C81.1278 136.358 53.4293 159.041 42.0658 172.445C30.7023 186.107 20.7592 196.418 15.5509 209.822C10.3427 223.483 3.95069 246.425 4.66091 254.158C4.66091 254.158 3.00373 252.869 1.82003 245.909C0.636334 238.949 -0.310624 217.039 1.82003 203.893C3.71395 191.778 13.8937 165.486 30.4655 147.7C47.0373 129.914 62.4254 112.901 84.4421 98.466C106.459 84.031 119.006 75.5246 144.811 65.9872C170.615 56.1921 174.403 55.6765 176.297 54.6455C178.191 53.6144 179.138 53.3566 181.032 53.3566C182.926 53.3566 184.109 52.0678 185.767 51.5523C187.424 51.2945 207.547 45.6236 228.853 44.8503C250.397 44.077 268.152 47.1702 275.254 49.7479Z" fill="#C3B1FF"/>
<path opacity="0.75" d="M393.387 151.051C393.387 151.051 374.685 167.806 363.321 175.796C352.195 183.787 315.737 212.915 275.254 221.679C234.772 230.443 202.812 234.568 151.203 231.474C99.5934 228.381 76.1562 214.462 67.8703 204.151C59.5844 193.84 51.2985 170.126 50.3516 159.042C50.3516 159.042 47.5107 186.88 47.274 195.387C47.0372 204.151 47.5107 229.412 67.1601 245.136C86.5727 260.86 123.504 268.335 154.517 270.139C185.53 271.944 234.535 269.108 259.629 261.375C284.724 253.642 324.733 237.661 334.676 231.99C344.619 226.061 348.88 222.71 347.696 222.968C346.513 223.226 337.99 228.897 336.096 229.928C334.202 230.959 321.182 237.661 316.447 239.723C312.422 241.527 307.688 242.558 306.741 242.816C308.161 242.558 317.394 238.692 320.708 237.145C324.023 235.341 328.757 232.505 329.704 231.99C330.651 231.474 330.888 230.443 332.072 230.185C333.255 229.928 333.729 229.928 334.439 229.412C335.149 228.639 337.753 228.123 338.937 227.35C340.121 226.577 340.594 225.803 341.068 225.288C341.541 224.772 342.725 224.257 343.198 223.484C343.909 222.71 344.145 222.452 345.329 222.195C346.513 222.195 347.933 221.679 348.407 220.906C348.88 220.133 349.827 219.617 350.301 219.617C350.774 219.617 352.668 219.617 353.378 218.844C353.852 218.328 365.452 210.337 369.24 206.986C373.264 203.635 375.632 201.058 376.342 200.284C377.052 199.511 377.289 198.48 377.762 198.48C378.473 198.222 378.946 197.707 378.946 197.449C378.946 196.933 379.42 196.16 380.13 195.902C380.84 195.645 382.024 194.098 384.154 190.489C386.522 186.88 386.995 186.365 389.363 177.601C391.73 169.095 394.808 154.917 393.387 151.051ZM350.301 193.84C349.354 194.614 348.407 195.129 347.46 195.902C340.831 200.542 324.259 211.626 311.949 216.782C295.851 223.484 272.413 232.248 265.074 234.052C257.735 235.856 256.789 235.856 255.368 235.341C253.948 234.825 254.421 235.341 251.107 235.599C247.792 235.856 244.241 237.403 242.821 237.661C241.4 237.919 226.959 239.981 211.098 240.754C194.999 241.527 169.905 239.981 169.905 239.981C169.905 239.981 210.151 240.496 228.143 237.919C246.372 235.341 253.001 233.794 256.078 233.021C259.156 232.248 280.699 228.639 302.243 218.586C321.892 209.564 337.28 202.604 347.223 195.902C349.354 194.356 350.537 193.582 350.301 193.84Z" fill="#C3B1FF"/>
<path opacity="0.75" d="M454.228 143.318C453.281 138.678 452.571 131.46 449.493 125.274C446.416 119.087 434.342 103.879 425.819 97.9505C417.297 92.0218 397.647 82.2266 381.549 76.0402C365.214 70.1115 355.034 68.8227 349.589 67.7916C344.144 66.7606 337.515 65.4717 334.201 64.6984C330.887 64.1829 311.474 62.3785 304.609 61.6052C297.98 60.8319 287.09 59.8008 281.408 60.0586C275.963 60.3164 255.603 59.8008 252.289 59.5431C248.975 59.2853 240.215 58.7698 235.481 59.0275C230.746 59.2853 221.986 60.5741 217.252 61.0897C212.517 61.6052 187.422 63.9251 180.557 66.245C173.928 68.5649 170.851 68.8227 167.063 69.0805C163.512 69.3382 159.961 71.6581 159.014 71.6581C158.067 71.6581 140.548 76.298 135.34 77.8446C130.131 79.3912 112.376 88.1553 101.959 94.3417C91.5429 100.27 81.1264 108.003 74.7344 113.932C68.3424 119.861 63.6077 123.727 57.4524 136.358C51.5339 148.731 49.8768 157.753 48.9298 168.063C47.9828 178.374 46.3257 189.716 46.7991 199.253C47.2726 208.791 48.9298 216.008 49.8768 217.812C49.8768 217.812 55.085 172.445 87.2816 145.895C119.241 119.345 173.928 103.106 245.187 96.9194C316.446 90.733 390.072 113.674 405.933 123.727C405.933 123.727 407.354 123.212 402.145 120.376C396.7 117.541 389.598 114.963 389.598 114.963C389.598 114.963 394.806 115.221 405.933 121.15C417.06 127.078 423.689 132.749 428.66 137.389C433.395 141.771 438.84 148.215 440.971 155.69C443.101 162.908 444.758 173.734 444.758 181.983C444.758 190.231 443.338 195.644 444.048 194.356C444.758 193.067 449.967 180.436 452.334 168.063C454.465 155.69 455.175 147.957 454.228 143.318ZM375.157 83.7732C367.345 80.4222 361.189 79.6489 358.585 79.1334C355.981 78.6179 354.797 78.1023 352.193 77.8446C349.589 77.5868 352.667 76.8135 349.826 76.298C346.985 75.7824 343.197 75.7824 338.699 75.2669C334.201 74.7514 330.413 72.947 324.968 72.947C319.76 72.947 310.29 70.8848 303.898 70.6271C297.506 70.3693 290.878 70.1115 285.669 69.8538C280.461 69.596 276.437 68.5649 271.465 68.5649C266.73 68.5649 260.338 68.0494 265.073 67.2761C267.44 66.7606 276.437 66.5028 280.935 66.5028C285.196 66.5028 294.902 67.2761 298.453 67.5339C302.004 67.7916 344.618 72.1737 351.246 74.2358C357.875 76.298 380.602 82.7422 389.835 86.3509C398.831 89.9597 404.986 94.3417 404.986 94.3417C404.986 94.3417 382.969 87.1242 375.157 83.7732Z" fill="#C3B1FF"/>
<path opacity="0.75" d="M453.519 140.74C453.046 139.194 440.735 167.29 434.343 175.539C427.951 183.787 401.673 205.44 387.469 213.431C373.265 221.422 329.231 239.208 325.206 240.754C321.419 242.301 318.814 241.527 316.21 242.559C313.606 243.59 316.447 241.012 313.133 242.043C309.818 243.074 284.25 250.292 279.042 251.58C273.834 252.869 254.658 257.251 247.556 258.54C240.454 259.829 187.897 266.789 168.248 267.046C148.362 267.304 113.561 265.758 100.304 264.211C87.0463 262.664 69.5276 259.056 56.5069 256.22C43.4863 253.385 32.833 245.652 26.2043 240.754C19.5756 236.114 16.2612 229.67 13.4203 223.484C10.8162 217.555 5.60792 200.285 5.60792 190.232C5.60792 190.232 1.10986 198.996 0.399644 214.204C-0.310575 229.412 1.10986 256.478 11.0529 267.562C20.996 278.646 43.0128 293.081 74.0257 297.463C104.802 301.845 139.366 302.876 145.048 302.876C150.729 302.876 168.248 302.618 171.799 302.618C175.35 302.618 177.718 302.361 180.558 302.103C183.399 301.845 183.163 300.298 181.742 300.298C180.322 300.298 180.795 300.556 178.665 300.814C176.534 301.072 175.587 301.587 174.403 301.072C173.22 300.556 172.509 300.556 171.089 300.814C169.668 301.072 168.958 300.814 167.064 300.814C165.17 300.814 165.644 300.814 163.513 301.072C161.383 301.33 160.672 299.783 160.672 299.783C160.672 299.783 162.33 299.267 164.223 299.267C166.117 299.267 175.587 299.267 177.481 299.01C179.138 298.752 181.505 298.752 183.163 299.01C184.82 299.267 186.714 299.01 188.134 299.01C189.555 299.01 189.318 297.205 190.738 297.205C192.159 297.205 191.449 297.721 193.342 297.721C195.236 297.721 197.604 296.948 199.261 296.948C200.918 296.948 203.285 294.37 205.653 294.37C208.02 294.37 209.441 293.597 209.914 294.885C210.388 296.174 211.098 295.916 211.098 295.143C211.098 294.37 211.098 292.565 212.755 292.308C214.412 292.05 216.306 292.05 218.437 291.534C220.567 291.019 225.539 289.988 227.196 289.988C228.853 289.988 230.274 290.761 230.274 290.761C230.274 290.761 224.592 291.277 222.225 291.792C219.857 292.308 216.306 293.339 218.2 293.339C220.094 293.339 222.461 293.339 223.882 293.339C225.302 293.339 225.776 293.854 227.67 293.339C229.564 292.823 230.274 292.05 232.641 291.792C235.009 291.534 235.482 290.761 237.849 290.761C240.217 290.761 241.164 290.761 242.111 290.761C243.058 290.761 245.662 290.503 247.319 290.246C248.976 289.988 249.213 288.699 250.87 288.441C252.527 288.183 257.499 287.668 259.156 287.41C260.813 287.152 263.417 286.379 265.075 285.863C266.732 285.348 269.573 284.575 271.466 284.317C273.36 284.059 272.65 284.832 275.254 284.832C277.858 284.832 278.569 285.863 282.593 284.059C286.618 282.255 285.908 281.997 288.038 280.966C290.169 279.935 294.43 278.904 297.271 278.388C300.112 277.873 301.296 277.099 302.716 277.099C304.137 277.099 305.084 277.099 304.847 276.068C304.61 275.037 306.031 274.006 306.741 275.037C307.451 276.068 309.108 275.811 309.108 275.811C311.712 274.779 314.553 273.233 315.974 273.233C317.394 273.233 318.341 272.717 321.182 271.686C324.023 270.655 324.023 270.655 325.68 270.397C327.337 270.14 327.1 267.304 329.231 266.789C331.362 266.273 335.386 265.5 337.754 264.469C340.121 263.438 341.778 263.695 344.146 262.664C346.513 261.633 346.276 262.922 340.121 264.727C333.966 266.531 333.729 267.562 335.86 267.304C337.99 267.046 340.831 265.242 344.146 264.469C347.46 263.695 348.407 263.18 349.354 262.407C350.301 261.633 349.354 260.602 351.485 259.829C353.615 259.056 357.403 257.251 359.534 256.478C361.664 255.705 365.452 255.189 367.346 254.158C369.24 253.127 371.844 252.611 373.501 251.58C375.158 250.549 377.526 249.26 376.579 249.26C375.632 249.26 372.554 250.807 369.95 251.838C367.346 252.869 365.452 252.611 365.452 252.611C365.452 252.611 368.293 251.065 370.897 250.292C373.501 249.518 374.212 248.487 376.342 247.714C378.473 246.941 379.893 245.652 379.183 245.652C378.473 245.652 374.922 246.167 376.816 245.136C378.71 244.105 381.077 243.332 383.918 242.043C386.759 240.754 390.073 237.403 390.073 237.403C390.073 237.403 390.547 238.692 388.889 240.239C387.232 241.785 386.049 242.816 388.416 242.043C390.783 241.27 389.6 242.043 392.204 240.496C394.808 238.95 398.832 236.888 402.384 234.825C405.935 232.763 406.645 232.763 408.065 231.475C409.486 230.186 409.959 230.701 409.486 230.186C409.012 229.67 408.065 229.155 408.065 229.155C410.669 227.866 411.38 226.319 413.274 225.546C415.167 224.773 418.008 220.648 419.902 219.359C421.796 218.071 425.111 216.266 426.294 214.977C427.478 213.689 428.662 212.657 430.556 210.853C432.449 209.049 435.764 204.151 436.948 202.605C438.131 201.058 439.552 198.738 440.262 196.934C440.972 195.129 444.05 190.232 446.417 182.756C451.152 175.023 457.07 149.504 453.519 140.74ZM371.844 231.217C361.428 236.372 346.986 243.074 343.672 244.363C340.594 245.652 328.047 248.487 322.366 251.065C316.684 253.385 300.585 256.994 294.904 258.798C289.222 260.602 255.131 268.593 244.241 269.882C233.351 271.171 202.575 275.037 196.657 275.037C190.975 275.037 186.714 274.779 184.583 275.037C182.452 275.295 179.138 276.068 176.06 276.068C172.983 276.068 171.799 276.842 169.432 276.842C166.828 276.842 164.934 276.842 162.33 276.842C159.725 276.842 89.6505 274.779 78.0502 269.624C76.1563 268.851 119.716 273.491 123.267 273.748C126.819 274.006 155.464 275.553 164.697 274.006C173.93 272.717 200.208 272.975 206.363 272.202C212.755 271.429 255.368 264.469 259.866 264.211C264.364 263.953 284.961 257.251 291.826 255.447C298.455 253.643 325.206 247.714 333.492 245.652C341.778 243.59 353.852 236.888 361.664 233.794C369.24 230.701 395.992 216.008 401.2 212.657C401.673 212.657 382.497 225.804 371.844 231.217Z" fill="#C3B1FF"/>
<path d="M401.749 59.4326C401.482 59.2752 401.206 59.1273 400.934 58.9747C400.801 58.7744 400.629 58.5883 400.419 58.45C397.292 56.4181 393.875 55.1493 390.324 54.4195C384.146 52.5307 377.635 51.7484 371.157 52.1682C365.981 52.5068 360.833 53.561 355.981 55.4116C354.131 56.1176 351.252 56.8712 350.637 59.0558C350.499 59.5471 350.504 60.0431 350.623 60.5058C350.351 61.0591 350.433 61.7078 350.742 62.242C350.328 62.719 350.032 63.2818 349.918 63.9734C349.694 65.3615 350.747 66.7399 352.263 66.3202C352.93 66.1342 353.602 65.9577 354.27 65.7764C356.624 68.3617 359.274 70.6702 362.173 72.6306C362.578 73.7945 363.769 74.653 365.023 74.4479C366.615 75.4353 368.584 76.5705 370.481 77.0761C370.819 78.5595 372.783 79.6375 374.322 78.9458C375.08 79.9141 376.363 80.4006 377.549 79.4991C377.731 79.3656 377.897 79.2225 378.078 79.0842C378.093 79.0699 378.102 79.0603 378.117 79.046C380.724 77.0284 383.16 74.8629 385.429 72.5352C387.797 70.7227 390.1 68.8243 392.316 66.8162C393.622 65.6333 393.065 63.7206 391.897 62.781C391.844 62.6904 391.782 62.5997 391.711 62.5139C394.738 62.6761 397.764 62.843 400.782 62.9766C402.712 63.0624 403.327 60.3532 401.744 59.4231L401.749 59.4326ZM365.152 67.5651C364.994 67.7034 364.837 67.8465 364.68 67.9944C364.475 67.8513 364.27 67.7034 364.065 67.5556C364.232 67.546 364.403 67.5317 364.57 67.5174C364.761 67.5365 364.956 67.5508 365.147 67.5651H365.152Z" fill="#F7A392"/>
<path d="M397.55 44.8992C397.16 42.2758 397.465 39.6238 396.526 37.0958C396.011 35.7173 395.353 34.4676 395.234 32.9652C395.124 31.5676 395.339 30.1605 395.367 28.763C395.415 26.4162 395.177 24.0504 394.624 21.7657C392.512 13.0465 385.258 5.70575 375.925 6.10641C375.758 6.10641 375.667 6.09687 375.548 6.08733C366.144 5.60558 358.732 12.8795 356.611 21.6464C356.058 23.9312 355.819 26.297 355.867 28.6437C355.896 30.0413 356.105 31.4484 356 32.8459C355.886 34.3484 355.223 35.5981 354.709 36.9766C353.765 39.5046 354.075 42.1566 353.684 44.78C353.345 47.0599 351.939 49.13 352.573 51.4672C352.626 51.658 352.826 51.8297 353.031 51.8154C357.95 51.472 362.788 52.86 367.426 50.8662C369.981 49.7692 375.496 49.359 375.524 45.7673C375.581 45.7673 375.643 45.7673 375.701 45.7578C375.6 49.4639 381.215 49.8741 383.799 50.9855C388.437 52.9745 393.275 51.5912 398.194 51.9347C398.399 51.949 398.604 51.7772 398.652 51.5865C399.285 49.2493 397.879 47.1839 397.541 44.8992H397.55Z" fill="#1F2144"/>
<path d="M453.788 60.425C453.65 60.4488 453.53 60.4917 453.421 60.5442C453.564 59.3136 451.776 58.4646 451.238 59.762C447.239 69.354 442.787 80.0193 433.101 85.1182C428.84 87.36 413.997 89.8451 409.449 69.3636C409.34 68.8771 405.407 76.0985 405.007 76.3752C403.191 77.6439 401.38 78.9175 399.564 80.1863C398.339 81.0448 396.313 81.994 395.703 83.487C394.73 85.8671 394.478 81.579 395.703 83.487C410.346 106.296 429.774 101.851 435.994 98.3783C442.367 94.82 447.205 87.1311 450.299 80.7348C452.239 76.7234 453.754 72.4878 454.789 68.1568C455.113 66.807 457.353 59.8669 453.793 60.425H453.788Z" fill="#F79884"/>
<path d="M343.073 216.435C343.173 233.583 350.671 292.208 350.766 309.356C350.766 309.919 351.138 310.31 351.639 310.505C354.422 311.598 356.524 309.246 357.187 306.756C358.34 302.444 358.665 297.703 359.313 293.291C361.644 277.379 362.931 261.414 363.922 245.374C364.942 228.861 366.668 212.414 369.208 196.063C369.442 194.561 367.144 193.912 366.911 195.424C366.801 196.14 366.691 196.855 366.587 197.571C363.522 197.776 360.242 198.11 357.583 199.751C354.708 201.525 350.857 187.087 350.213 190.268C346.877 206.838 342.973 199.631 343.073 216.431V216.435Z" fill="#F7A392"/>
<path d="M344.851 324.218C345.843 324.457 347.311 323.823 348.231 323.551C349.589 323.155 351.048 322.726 352.335 322.134C354.399 321.18 355.404 317.035 356.687 315.246C358.403 312.847 358.441 312.633 358.078 309.776C357.597 305.984 357.978 302.339 358.526 298.571C358.612 297.97 357.692 297.717 357.607 298.318C357.335 300.203 357.063 302.091 356.934 303.99C356.896 303.99 356.853 303.98 356.811 303.99C354.565 304.352 350.695 304.834 350.705 307.81C350.719 312.761 344.26 318.337 343.998 320.746C343.874 321.905 343.283 323.837 344.851 324.214V324.218Z" fill="#F7A392"/>
<path d="M342.893 325.784C343.375 326.218 344.29 325.879 344.814 325.793C346.501 325.521 348.203 325.254 349.881 324.93C352.05 324.51 353.613 323.733 354.538 321.648C355.186 320.189 355.706 318.748 356.292 317.341L356.483 321.171C356.487 321.295 356.587 321.419 356.721 321.41C357.078 321.386 357.422 321.343 357.779 321.281C357.874 321.262 357.96 321.147 357.955 321.052C357.789 318.266 358.041 315.514 358.718 312.81C358.956 312.299 358.175 311.818 357.817 312.323C357.126 313.291 356.497 314.293 355.939 315.333C355.396 316.349 354.919 317.398 354.523 318.495C354.404 318.834 354.299 319.182 354.195 319.535C354.176 319.535 354.166 319.521 354.147 319.521C350.763 319.225 347.927 318.953 344.547 319.287C344.385 319.301 344.209 319.464 344.166 319.621C343.861 320.737 341.825 324.82 342.903 325.793L342.893 325.784Z" fill="#1F2144"/>
<path d="M373.784 214.967C373.827 232.114 381.13 290.764 381.173 307.911C381.173 308.474 381.544 308.87 382.04 309.066C384.819 310.163 386.931 307.821 387.603 305.336C388.77 301.028 389.114 296.287 389.771 291.875C392.155 275.973 393.494 260.013 394.538 243.977C395.61 227.469 397.388 211.027 399.986 194.686C400.224 193.183 397.932 192.53 397.689 194.042C397.574 194.757 397.465 195.473 397.355 196.188C394.29 196.384 391.011 196.703 388.341 198.339C385.462 200.104 381.654 185.657 381.006 188.833C377.617 205.389 373.737 198.172 373.78 214.972L373.784 214.967Z" fill="#F7A392"/>
<path d="M403.775 150.837C400.577 135.788 398.184 132.912 397.955 126.725C397.884 124.832 398.98 117.653 398.193 115.874C397.321 113.904 348.626 113.785 348.54 113.847C348.311 112.621 348.769 123.234 348.698 124.66C348.307 132.573 345.437 135.821 343.612 143.42C341.762 151.123 332.172 220.452 336.038 248.832C336.128 249.481 336.581 250.005 337.229 250.025C351.386 250.358 369.16 250.616 385.719 250.802C387.354 242.784 387.993 236.3 390.176 228.392C390.376 227.676 391.272 227.647 391.663 228.196C393.856 231.287 392.416 243.643 392.311 250.74C396.582 250.783 405.033 250.988 408.87 251.017C409.557 251.021 410.048 250.463 410.062 249.824C410.51 224.029 409.209 176.407 403.775 150.841V150.837Z" fill="#F5E4D5"/>
<path d="M375.21 322.754C376.201 322.997 377.67 322.363 378.59 322.1C379.948 321.709 381.411 321.285 382.698 320.693C384.762 319.749 385.787 315.604 387.069 313.82C388.795 311.426 388.833 311.216 388.48 308.354C388.008 304.562 388.404 300.918 388.962 297.15C389.052 296.549 388.132 296.291 388.042 296.897C387.76 298.781 387.484 300.67 387.35 302.568C387.312 302.568 387.269 302.558 387.226 302.563C384.981 302.921 381.111 303.388 381.111 306.365C381.111 311.316 374.633 316.868 374.362 319.281C374.233 320.44 373.637 322.372 375.205 322.754H375.21Z" fill="#F7A392"/>
<path d="M373.247 324.309C373.728 324.743 374.643 324.41 375.167 324.324C376.86 324.057 378.556 323.799 380.239 323.475C382.413 323.06 383.976 322.287 384.906 320.207C385.559 318.748 386.083 317.312 386.674 315.905L386.85 319.735C386.855 319.859 386.955 319.983 387.089 319.974C387.446 319.955 387.794 319.912 388.147 319.85C388.247 319.831 388.328 319.716 388.323 319.621C388.166 316.835 388.428 314.083 389.114 311.378C389.353 310.868 388.576 310.386 388.214 310.892C387.518 311.86 386.884 312.857 386.326 313.892C385.778 314.903 385.296 315.957 384.901 317.05C384.777 317.388 384.672 317.737 384.572 318.085C384.553 318.085 384.543 318.07 384.524 318.07C381.14 317.765 378.309 317.479 374.924 317.803C374.762 317.818 374.586 317.98 374.543 318.137C374.233 319.253 372.184 323.332 373.256 324.305L373.247 324.309Z" fill="#1F2144"/>
<path d="M390.097 19.6434C390.121 16.6575 388.729 15.4078 386.332 14.1105C373.414 7.1227 361.817 13.5142 361.736 15.3506C361.412 22.8153 360.773 32.3359 364.239 39.0804C366.832 44.1316 371.908 48.6009 377.704 46.1158C383.753 43.521 389.978 36.2185 390.097 19.6434Z" fill="#F7A392"/>
<path d="M469.045 52.4263C469.574 51.8492 470.203 51.1146 470.241 50.547C470.341 49.0731 468.625 50.1607 468.115 50.6186C467.043 51.5725 465.984 52.5312 464.879 53.4518C464.321 53.9145 463.777 54.401 463.196 54.8303C462.91 55.0402 461.304 56.0227 460.927 55.6316C462.457 54.1578 463.982 52.6839 465.498 51.1957C466.127 50.5756 468.287 48.6963 467.734 47.5897C467.667 47.4514 467.548 47.3894 467.395 47.3942C465.636 47.4705 463.849 49.4786 462.719 50.6615C461.966 51.4533 460.817 53.242 459.759 53.6092C459.464 53.7094 459.211 53.6808 458.987 53.5663C458.758 53.2658 458.544 52.951 458.353 52.6171C458.248 52.3643 458.129 52.1163 457.996 51.8826C457.967 51.8206 457.938 51.7633 457.915 51.6965C457.886 51.6298 457.843 51.5868 457.795 51.5534C457.362 50.8904 456.78 50.3324 455.97 49.9699C454.592 49.3546 452.047 49.0111 450.894 50.1893C450.722 50.3658 450.836 50.5804 451.017 50.6567C451.127 50.8618 451.218 50.9 451.518 51.0097C452.333 51.3102 453.191 51.3579 453.982 51.7633C455.031 52.3023 455.879 53.0798 456.413 54.048C456.671 55.1499 456.48 56.2851 455.722 57.2486C455.021 58.1358 454.039 58.5555 453 58.8226C452.991 58.7892 452.981 58.7511 452.957 58.7177C451.899 57.115 451.461 55.293 451.256 53.3994C451.165 52.5837 451.437 51.0908 450.631 50.5852C450.484 50.4945 450.331 50.5327 450.226 50.6233C450.145 50.6424 450.069 50.6949 450.021 50.7903C449.268 52.2451 448.944 54.0671 449.101 55.7032C449.225 57.0006 449.835 58.1358 450.484 59.2424C450.588 60.1248 450.307 60.9213 450.088 61.8562C449.94 62.4858 449.764 63.4493 450.059 64.1123C450.05 64.1505 450.045 64.1934 450.045 64.2363C450.045 64.2697 450.045 64.3031 450.045 64.3365C450.045 64.4605 450.188 64.6084 450.317 64.6084C450.341 64.6084 450.364 64.6084 450.393 64.6084C450.417 64.6084 450.436 64.5988 450.455 64.5988C450.526 64.6465 450.598 64.6895 450.684 64.7229C450.751 64.7515 450.812 64.7467 450.87 64.7324C451.313 65.0377 451.894 65.5623 452.114 65.6864C452.371 65.8342 452.652 66.0775 452.962 66.1156C453.491 66.1872 454.025 65.8151 454.459 65.5528C456.299 64.4462 457.977 62.9199 459.497 61.4174C459.821 61.0978 460.193 60.7639 460.546 60.411C461.628 59.7146 462.667 58.9514 463.658 58.2169C464.931 57.2724 466.161 56.266 467.338 55.2023C468.048 54.5584 469.168 53.7857 469.188 52.7364C469.188 52.5885 469.14 52.4931 469.025 52.4168L469.045 52.4263Z" fill="#F7A392"/>
<path d="M382.34 53.8283L384.371 28.9443C384.371 27.9951 382.116 31.0812 381.32 31.6583C377.269 34.5822 374.027 35.4837 369.185 35.9893C369.037 36.0036 368.908 36.0465 368.789 36.0942C368.112 36.0942 368.165 36.4186 368.169 37.2914C368.188 42.8721 366.93 53.6709 368.184 59.1562C368.508 60.5824 368.837 58.436 370.324 59.0799C371.329 59.5139 373.188 59.3231 374.294 59.4185C375.705 59.5378 375.543 59.3851 376.954 59.5044C378.494 59.6332 380.462 60.7636 381.768 59.5187C383.041 58.3072 382.35 55.2927 382.345 53.8283H382.34Z" fill="#F7A392"/>
<path d="M369.652 28.4766C369.667 29.3638 369.252 30.0888 368.728 30.0984C368.203 30.1079 367.77 29.3924 367.76 28.5052C367.746 27.6181 368.161 26.8931 368.685 26.8835C369.209 26.874 369.643 27.5894 369.652 28.4766Z" fill="#1F2144"/>
<path d="M382.412 28.7627C382.402 29.6499 381.969 30.3653 381.449 30.3558C380.925 30.351 380.51 29.626 380.52 28.7388C380.529 27.8517 380.963 27.1362 381.483 27.1457C382.002 27.1553 382.422 27.8755 382.412 28.7627Z" fill="#1F2144"/>
<path d="M384.827 24.0427C384.802 24.0189 384.323 23.888 384.303 23.888C382.806 23.5549 380.765 23.2961 379.327 23.7304C378.58 23.9564 377.849 24.5096 378.902 24.7773C379.801 25.0063 381.091 24.9736 382.04 24.9914C382.81 25.0033 383.749 25.0866 384.481 24.8784C385.365 24.6286 385.4 24.3193 384.827 24.0397V24.0427Z" fill="#1F2144"/>
<path d="M365.35 24.6639C366.04 24.9142 366.994 24.8966 367.77 24.9349C368.724 24.982 370.006 25.0969 370.945 24.9319C372.048 24.7375 371.417 24.1455 370.716 23.8716C369.36 23.3473 367.273 23.4681 365.718 23.6978C365.698 23.6978 365.196 23.7921 365.166 23.8156C364.54 24.0513 364.515 24.3576 365.355 24.6639H365.35Z" fill="#1F2144"/>
<path d="M379.366 37.8969C374.786 39.533 370.701 37.5821 370.458 37.6584C370.358 37.6918 370.253 37.7681 370.272 37.8779C370.663 39.8621 372.912 40.9782 374.662 41.0784C376.487 41.1833 379.042 40.1054 379.643 38.1974C379.695 38.0353 379.547 37.8254 379.362 37.8922L379.366 37.8969Z" fill="white"/>
<path d="M376.133 35.5313C374.87 35.8413 373.703 35.4311 373.569 34.0241C373.507 33.3706 373.722 32.5263 373.798 31.8729C373.955 30.4658 374.136 29.0635 374.327 27.6659C374.37 27.3606 373.893 27.3368 373.85 27.6421C373.688 28.8202 373.536 30.0031 373.397 31.186C373.278 32.2258 372.959 33.4469 373.088 34.4915C373.264 35.9797 375.028 36.2992 376.234 35.9987C376.529 35.9272 376.429 35.4598 376.133 35.5313Z" fill="#DB745E"/>
<path d="M297.706 99.7238C297.377 99.1944 296.223 98.87 295.723 98.5981C294.946 98.1784 294.188 97.7252 293.44 97.2578C293.22 95.1925 291.705 93.504 290.422 91.8202C289.293 90.3368 287.696 87.0123 285.351 87.3748C285.165 87.4034 284.984 87.6228 285.089 87.8184C285.723 88.9822 286.743 89.8885 287.462 91.0046C287.887 91.6581 288.249 92.3401 288.563 93.0413C287.958 92.5405 287.319 92.0873 286.657 91.8059C284.526 90.5324 282.305 89.4353 279.979 88.5577C278.511 88.0044 276.228 86.8692 274.626 87.3509C274.526 87.3796 274.44 87.4988 274.431 87.599C274.283 88.9822 277.252 89.7168 278.182 90.0793C280.055 90.8043 281.876 91.6104 283.654 92.5214C283.597 92.5786 283.535 92.6359 283.478 92.6979C283.416 92.7599 283.349 92.8267 283.282 92.8934C281.104 92.0873 278.906 91.3194 276.685 90.6326C275.198 90.1747 273.139 89.359 271.59 89.8217C271.447 89.8646 271.39 90.0268 271.39 90.1603C271.404 90.7995 272.009 90.9712 272.529 91.2336C273.658 91.8012 274.831 92.2591 276.023 92.6836C277.872 93.3418 279.75 93.9142 281.576 94.6249C281.557 94.6487 281.538 94.6726 281.514 94.6964C279.536 94.0907 277.524 93.5326 275.479 93.1892C274.502 93.027 272.124 92.4737 271.385 93.4133C271.313 93.504 271.294 93.628 271.337 93.7329C271.718 94.6773 273.515 95.0065 274.612 95.2593C273.882 95.2306 273.148 95.2354 272.41 95.2879C272.157 95.307 272.057 95.6122 272.19 95.803C272.929 96.8572 275.06 97.1386 276.256 97.4438C278.11 97.916 279.984 98.2833 281.809 98.8509C281.909 98.932 282.005 99.0179 282.1 99.099C283.401 100.229 284.907 101.455 286.442 102.252C286.986 102.533 287.491 102.662 287.958 102.672C288.459 102.791 288.992 102.8 289.612 102.776C291.952 102.7 293.845 103.144 295.756 104.556C295.994 104.732 296.29 104.532 296.381 104.303C296.752 103.325 298.363 100.778 297.71 99.7286L297.706 99.7238Z" fill="#F7A392"/>
<path d="M390.015 26.7743C388.842 25.6487 386.817 26.7505 386.421 28.0956C386.335 28.3865 386.526 28.5725 386.759 28.6107C386.55 29.0972 386.426 29.6744 386.392 30.2515C386.207 30.9336 386.135 31.6061 386.245 32.0879C386.245 32.3311 386.259 32.5744 386.278 32.8177C386.173 33.0943 386.135 33.3757 386.245 33.6381C386.955 35.3266 389.171 32.9798 389.581 32.2357C390.315 30.8954 391.335 28.0479 390.01 26.7791L390.015 26.7743Z" fill="#F7A392"/>
<path d="M359.989 26.6025C361.033 25.3576 363.168 26.2305 363.702 27.5279C363.821 27.8093 363.649 28.0096 363.421 28.0764C363.683 28.5391 363.869 29.0971 363.964 29.6647C364.226 30.3277 364.364 30.986 364.307 31.4725C364.331 31.711 364.345 31.9542 364.355 32.1975C364.488 32.4598 364.56 32.7365 364.479 33.0084C363.954 34.7637 361.495 32.6745 361.009 31.9781C360.132 30.7236 358.807 28.0096 359.989 26.6025Z" fill="#F79884"/>
<path d="M390.469 23.4351C390.497 23.3874 390.521 23.3397 390.536 23.2872C391.222 23.2729 391.97 22.6433 391.813 21.6845C391.589 20.3204 391.146 19.0755 390.55 17.9307C390.96 17.5778 391.174 16.972 390.836 16.3376C389.487 13.8287 386.942 12.1593 384.158 11.1528C384.158 10.5137 383.777 9.83159 383.019 9.75051C380.836 9.51679 378.648 9.39754 376.46 9.41662C376.393 9.01119 376.136 8.66776 375.621 8.55806C373.829 8.19078 372.213 8.51036 370.592 8.98257C370.34 8.52944 369.854 8.21463 369.272 8.35296C368.238 8.59622 367.203 9.11612 366.221 9.74097C365.797 9.28307 365.077 9.08274 364.477 9.59787C362.804 11.0336 361.021 12.6267 360.73 15.0068C360.668 15.5029 360.911 15.8702 361.264 16.0705C360.502 17.8115 359.958 19.6574 359.648 21.6035C359.467 22.7291 360.53 23.4017 361.279 23.1584C361.14 23.893 361.045 24.6418 360.983 25.3955C360.935 26.0298 361.808 26.0632 361.917 25.4765C361.917 25.467 361.927 25.4622 361.932 25.4527C363.285 21.4317 366.774 19.7385 370.225 18.3314C372.666 17.3345 374.372 15.5315 375.464 13.1132C375.74 14.5537 376.179 15.9703 377.127 17.1198C378.481 18.7654 380.488 19.1375 382.285 20.0914C384.544 21.2887 385.469 23.2824 387.137 25.0711C387.647 25.6196 389.411 26.5259 389.592 26.2445C389.949 26.2063 390.321 26.0871 390.712 25.8534C391.37 25.4622 390.979 24.5369 390.369 24.5178C390.421 24.4176 390.459 24.2984 390.469 24.1553C390.483 23.9168 390.488 23.6783 390.488 23.4398L390.469 23.4351Z" fill="#1F2144"/>
<path d="M388.431 28.3485C388.416 29.2976 388.197 30.1991 387.773 31.0482C387.635 31.32 388.049 31.5633 388.183 31.2867C388.645 30.3613 388.888 29.3787 388.907 28.3485C388.912 28.0432 388.436 28.0432 388.431 28.3485Z" fill="#DB745E"/>
<path d="M362.611 30.7333C362.248 29.9224 362.048 29.0734 362.005 28.191C361.991 27.8857 361.514 27.8857 361.529 28.191C361.576 29.164 361.8 30.0894 362.201 30.9765C362.325 31.258 362.739 31.0147 362.611 30.7381V30.7333Z" fill="#DB745E"/>
<path d="M367.245 16.1607C365.281 18.4455 363.318 20.8304 362.031 23.5158C361.916 22.2899 360.052 21.8463 359.724 23.2344C358.222 29.5496 357.402 35.9745 357.269 42.4614C357.216 42.8478 357.202 43.2532 357.245 43.6777C357.383 45.1802 359.619 45.2374 359.628 43.6777C359.628 43.3868 359.643 43.1006 359.647 42.8096C359.89 40.9351 361.401 39.4183 362.15 37.6964C363.032 35.6692 362.989 33.4894 362.951 31.3239C362.86 25.7003 365.381 21.9751 368.933 17.8397C369.929 16.6806 368.246 14.9874 367.245 16.1512V16.1607Z" fill="#1F2144"/>
<path d="M398.224 129.453C398.2 129.296 398.176 129.143 398.157 128.981C396.503 128.924 394.849 128.872 393.195 128.824C392.675 124.684 392.089 120.553 391.427 116.432C391.379 116.131 390.917 116.26 390.969 116.561C391.622 120.634 392.208 124.722 392.718 128.814C381.117 128.49 369.505 128.447 357.903 128.695C354.667 128.767 351.43 128.867 348.194 128.976C348.161 129.139 348.132 129.296 348.099 129.453C362.985 128.929 377.89 128.872 392.775 129.282C394.93 146.668 395.812 164.206 395.383 181.726C395.235 187.802 394.925 193.879 394.472 199.942C394.449 200.247 394.925 200.247 394.949 199.942C396.589 178.177 396.241 156.269 393.877 134.571C393.686 132.811 393.476 131.056 393.257 129.301C394.892 129.349 396.532 129.396 398.166 129.453C398.186 129.453 398.209 129.453 398.228 129.453H398.224Z" fill="#DBC6B6"/>
<path d="M401.635 62.839C401.573 61.1123 400.967 59.5812 400.033 58.2457C397.016 56.3568 393.741 55.1548 390.343 54.4537C390.081 54.759 389.795 55.0928 389.456 55.441C386.744 58.2409 383.446 60.5304 379.704 61.699C372.082 64.0696 364.103 61.1028 360.304 54.0292C358.841 54.4346 357.396 54.902 355.981 55.441C354.131 56.147 351.252 56.9006 350.637 59.0852C350.499 59.5765 350.504 60.0725 350.623 60.5352C350.351 61.0885 350.433 61.7372 350.742 62.2714C350.328 62.7484 350.032 63.3112 349.918 64.0028C349.694 65.3908 350.747 66.7693 352.263 66.3496C352.93 66.1635 353.602 65.9871 354.27 65.8058C356.624 68.391 359.274 70.6996 362.173 72.66C362.578 73.8238 363.769 74.6824 365.023 74.4773C366.615 75.4647 368.584 76.5999 370.481 77.1055C370.819 78.5889 372.783 79.6669 374.322 78.9752C375.08 79.9435 376.363 80.43 377.549 79.5285C377.731 79.395 377.897 79.2519 378.078 79.1136C378.093 79.0992 378.102 79.0897 378.117 79.0754C380.724 77.0578 383.16 74.8923 385.429 72.5646C387.797 70.7521 390.1 68.8537 392.316 66.8456C393.622 65.6627 393.065 63.75 391.897 62.8104C391.844 62.7198 391.782 62.6291 391.711 62.5433C394.738 62.7054 397.764 62.8724 400.782 63.0059C401.106 63.0202 401.387 62.9487 401.635 62.8295V62.839ZM364.68 68.0238C364.475 67.8807 364.27 67.7328 364.065 67.5849C364.232 67.5754 364.403 67.5611 364.57 67.5468C364.761 67.5659 364.956 67.5802 365.147 67.5945C364.99 67.7328 364.832 67.8759 364.675 68.0238H364.68Z" fill="#A0A2CA"/>
<path d="M453.707 78.56C454.121 77.7349 454.326 76.6569 454.555 76.0225C454.927 74.9875 456.119 73.0843 455.666 71.9491C455.18 70.7376 452.701 70.2224 451.643 69.7502C450.342 69.1731 448.135 67.5847 446.671 67.7087C445.618 67.7946 445.322 68.5339 444.893 69.4259C444.107 71.0667 443.463 72.7743 442.872 74.4962C440.451 73.7664 438.268 75.0638 436.447 76.8238C434.931 78.2929 433.578 79.9337 431.504 80.6397C429.026 81.4887 426.576 80.5967 424.316 79.5712C422.967 78.9607 421.552 78.7461 420.126 78.622C417.362 76.8381 414.845 74.7633 412.781 72.0111C410.717 69.2637 404.101 61.2027 403.043 60.0818C400.717 57.6254 397.771 55.7985 394.187 54.7253C388.805 62.3141 382.375 69.2208 375.025 74.9111C374.506 75.3166 373.691 75.6314 373.076 75.1639C368.972 72.0397 355.34 56.4615 354.505 55.0497C342.16 59.5047 336.536 69.1635 330.911 80.5824C329 83.5254 327.169 86.6544 324.862 89.2826C322.608 91.8439 319.595 93.5372 317.26 96.0175C315.753 97.6202 314.509 98.8651 312.126 98.9366C310.591 98.9843 309.075 98.6457 307.541 98.8603C306.359 99.0272 305.31 99.4279 304.49 100.105C303.78 99.7713 303.074 99.4375 302.364 99.1036C301.582 98.7363 300.767 98.2307 299.905 98.1019C299.719 98.0733 299.552 98.1019 299.404 98.1544C298.942 98.0256 298.394 98.1925 298.212 98.7792C297.75 100.282 297.293 101.789 296.83 103.291C296.473 104.465 295.548 106.273 295.629 107.498C295.753 109.325 299.233 110.079 300.815 110.575C303.999 114.124 307.645 117.868 312.684 118.24C315.377 118.44 317.851 117.191 320.506 117.067C323.532 116.919 326.426 117.753 329.486 117.415C331.731 117.167 334.29 116.995 336.312 115.903C338.437 114.758 340.001 112.607 341.455 110.742C342.989 108.767 344.357 106.688 345.578 104.527C346.44 107.179 347.108 109.95 347.079 111.567C347.003 115.955 346.827 116.728 347.985 121.006C348.29 122.127 348.643 123.234 349.029 124.322C356.717 125.347 371.088 124.073 378.429 124.026C382.452 123.997 392.276 124.584 396.265 125.037C396.513 125.066 396.761 125.089 397.013 125.118C397.562 124.379 398.115 123.649 398.634 122.886C399.935 120.978 399.888 118.402 400.588 116.213C401.575 113.117 403.153 103.234 404.282 98.8031C405.874 99.7189 408.92 101.274 410.522 102.175C413.229 103.697 416.08 105.142 419.24 105.3C422.372 105.452 425.556 104.298 428.43 103.182C430.041 102.557 431.6 101.694 433.316 101.431C435.27 101.136 437.229 101.66 439.188 101.398C443.921 100.763 449.66 96.1224 450.966 91.4719C451.476 89.6594 451.757 88.1998 452.901 86.6115C453.774 85.4047 454.732 84.2075 455.084 82.7241C455.475 81.0642 454.946 79.4854 453.712 78.541L453.707 78.56Z" fill="#4F5170"/>
<path d="M400.538 88.9196C399.084 85.5712 397.745 82.1274 397.12 78.5119C396.477 74.7819 396.72 70.9375 397.769 67.3029C398.636 64.2931 400.052 61.4742 401.925 58.9891C401.806 58.8842 401.687 58.784 401.567 58.6791C398.021 63.3916 396.095 69.2823 396.305 75.2112C396.572 82.7713 400.457 89.4824 403.264 96.3128C403.617 97.1714 403.955 98.0395 404.265 98.9123C404.275 98.8789 404.284 98.8456 404.289 98.8122C404.451 98.9076 404.637 99.0077 404.828 99.1174C403.617 95.645 402.001 92.2775 400.543 88.9196H400.538ZM342.767 62.4091C342.6 62.5712 342.438 62.7334 342.276 62.8956C342.605 72.9932 346.366 83.296 346.142 93.3603C346.042 97.7103 345.317 102.013 344.54 106.286C344.779 105.905 345.003 105.514 345.232 105.127C345.761 102.151 346.237 99.1651 346.476 96.1506C346.776 92.3205 346.566 88.5142 346.032 84.7174C344.989 77.2765 342.91 69.9597 342.767 62.4091Z" fill="#20223F"/>
<path d="M428.214 82.4759C426.154 83.7876 424.019 84.9562 421.803 85.9865C421.526 86.1152 421.764 86.5254 422.041 86.3967C424.253 85.3664 426.393 84.1978 428.452 82.8861C428.709 82.7239 428.471 82.3089 428.214 82.4759Z" fill="#20223F"/>
<path d="M303.478 102.667C302.667 104.808 301.852 106.945 301.042 109.087C300.932 109.373 301.395 109.497 301.5 109.216C302.31 107.074 303.125 104.937 303.935 102.796C304.045 102.509 303.583 102.385 303.478 102.667Z" fill="#20223F"/>
<path d="M317.526 112.883C315.919 111.715 314.432 110.413 313.059 108.977C312.845 108.753 312.511 109.091 312.721 109.315C314.122 110.78 315.648 112.106 317.282 113.298C317.53 113.479 317.769 113.065 317.521 112.888L317.526 112.883Z" fill="#20223F"/>
<path d="M317.091 115.044C315.662 114.51 314.351 113.766 313.164 112.802C312.926 112.611 312.587 112.945 312.825 113.141C314.074 114.157 315.452 114.944 316.963 115.507C317.249 115.612 317.373 115.154 317.091 115.049V115.044Z" fill="#20223F"/>
<path d="M453.314 77.6726C450.144 76.6184 446.974 75.5548 443.8 74.515C443.509 74.4196 443.38 74.8822 443.671 74.9729C446.85 76.0079 450.015 77.0763 453.185 78.1305C453.476 78.2259 453.6 77.768 453.314 77.6726Z" fill="#20223F"/>
<path d="M262.818 312.808L259.716 4.40039C259.716 2.01006 257.812 0.108652 255.472 0.162977L91.6986 0C89.359 0 87.5635 1.95573 87.5635 4.34606L90.6648 312.754C90.6648 315.144 92.5692 317.045 94.9088 316.991L258.683 317.1C260.968 317.1 262.818 315.198 262.818 312.808Z" fill="#4F5170"/>
<path d="M253.079 303.138L250.359 15.0482C250.359 12.9295 248.672 11.2454 246.659 11.2997L101.929 10.7565C99.9155 10.7565 98.2832 12.4949 98.2832 14.6136L101.004 302.703C101.004 304.822 102.69 306.506 104.704 306.452L249.434 306.995C251.447 306.995 253.079 305.257 253.079 303.138Z" fill="white"/>
<path d="M143.278 54.2177C143.224 53.7287 142.952 53.3485 142.625 53.3485C135.062 52.9682 112.917 52.9682 111.176 52.8595C109.762 52.8052 110.034 54.5436 110.034 54.8696C110.088 61.9319 111.176 78.121 111.394 81.5436C111.503 83.0647 111.666 83.8252 112.809 84.2055C114.985 84.9117 137.13 84.8031 142.571 84.9118C144.312 84.9118 144.475 84.3142 144.312 80.4027C143.659 65.3001 144.584 67.2559 143.278 54.2177Z" fill="#A7C6DF"/>
<path d="M133.919 63.2356C133.483 62.964 132.885 63.1269 132.613 63.5615L127.009 73.2315L124.669 70.1893C124.342 69.7547 123.744 69.7003 123.309 70.0263C122.873 70.3523 122.819 70.9498 123.145 71.3844L126.356 75.5675C126.682 76.0021 127.281 76.0565 127.716 75.7305C127.879 75.6219 127.988 75.4046 128.042 75.2416L134.245 64.5394C134.571 64.0505 134.408 63.4529 133.919 63.2356Z" fill="#4F5170"/>
<path d="M154.541 81.7609C154.704 83.282 155.521 84.4772 158.241 84.5315C172.551 84.6945 230.933 84.5858 236.809 84.4772C240.672 84.3685 240.89 83.7166 240.781 81.9238C240.237 74.5899 240.726 64.3223 240.019 55.3585C239.91 53.7287 240.835 52.9139 237.081 52.9682C232.511 53.0225 175.815 52.8052 156.01 52.5336C152.31 52.4793 152.909 56.0104 152.963 56.5537C153.725 67.0929 154.051 76.5999 154.541 81.7609Z" fill="#F5E4D5"/>
<path d="M229.843 60.0857C207.535 60.0314 185.227 60.0314 162.919 59.9771C162.593 59.9771 162.538 60.5203 162.919 60.5203C185.227 60.5746 207.535 60.5746 229.843 60.629C230.224 60.629 230.224 60.0857 229.843 60.0857ZM229.952 68.8865C207.644 68.8322 185.336 68.8322 163.028 68.7778C162.701 68.7778 162.647 69.3211 163.028 69.3211C185.336 69.3754 207.644 69.3754 229.952 69.4297C230.333 69.4297 230.333 68.8865 229.952 68.8865ZM229.68 77.0897C223.26 76.981 216.894 77.0354 210.473 77.1983C210.147 77.1983 210.092 77.7416 210.473 77.7416C216.894 77.5786 223.26 77.5786 229.68 77.6329C230.006 77.6329 230.006 77.0897 229.68 77.0897Z" fill="#4F5170"/>
<path d="M144.094 213.5C144.039 213.011 143.767 212.631 143.441 212.631C135.878 212.251 113.733 212.251 111.992 212.142C110.577 212.088 110.849 213.826 110.849 214.152C110.904 221.214 111.992 237.403 112.209 240.826C112.318 242.347 112.481 243.108 113.624 243.488C115.8 244.194 137.945 244.085 143.386 244.194C145.127 244.194 145.291 243.597 145.127 239.685C144.474 224.528 145.399 226.538 144.094 213.5Z" fill="#A7C6DF"/>
<path d="M134.954 221.595C134.518 221.323 133.92 221.486 133.648 221.921L128.044 231.591L125.704 228.549C125.378 228.114 124.779 228.06 124.344 228.386C123.909 228.712 123.854 229.309 124.181 229.744L127.391 233.927C127.717 234.362 128.316 234.416 128.751 234.09C128.914 233.981 129.023 233.764 129.077 233.601L135.28 222.899C135.552 222.41 135.389 221.812 134.954 221.595Z" fill="#4F5170"/>
<path d="M157.914 240.935C158.077 242.456 158.893 243.651 161.614 243.706C175.923 243.923 234.305 244.086 240.182 243.977C244.045 243.923 244.262 243.271 244.153 241.478C243.664 234.144 244.153 223.877 243.501 214.859C243.392 213.229 244.317 212.414 240.562 212.468C235.992 212.523 179.297 212.034 159.492 211.708C155.792 211.654 156.39 215.185 156.445 215.728C157.152 226.267 157.479 235.774 157.914 240.935Z" fill="#F5E4D5"/>
<path d="M234.141 218.988C211.833 218.716 189.525 218.39 167.217 218.119C166.89 218.119 166.89 218.662 167.217 218.662C189.525 218.934 211.833 219.26 234.141 219.531C234.522 219.531 234.522 218.988 234.141 218.988Z" fill="#4F5170"/>
<path d="M233.925 227.789C211.617 227.517 189.309 227.191 167.001 226.92C166.674 226.92 166.674 227.463 167.001 227.463C189.309 227.734 211.617 228.06 233.925 228.332C234.251 228.332 234.251 227.789 233.925 227.789Z" fill="#4F5170"/>
<path d="M186.317 235.503C179.951 235.232 173.53 235.123 167.11 235.123C166.784 235.123 166.784 235.666 167.11 235.666C173.53 235.666 179.896 235.829 186.317 236.046C186.698 236.046 186.698 235.503 186.317 235.503Z" fill="#4F5170"/>
<path d="M142.736 107.456C142.682 106.967 142.41 106.587 142.083 106.587C134.52 106.207 112.375 106.207 110.634 106.098C109.22 106.044 109.492 107.782 109.492 108.108C109.546 115.171 110.634 131.36 110.852 134.782C110.961 136.303 111.124 137.064 112.267 137.444C114.443 138.15 136.588 138.042 142.029 138.15C143.77 138.15 143.933 137.553 143.77 133.641C143.063 118.539 143.988 120.495 142.736 107.456Z" fill="#A7C6DF"/>
<path d="M132.452 114.899C132.016 114.627 131.418 114.79 131.146 115.225L125.542 124.949L123.202 121.907C122.876 121.472 122.277 121.418 121.842 121.744C121.407 122.07 121.352 122.668 121.679 123.102L124.889 127.285C125.215 127.72 125.814 127.774 126.249 127.448C126.412 127.34 126.521 127.122 126.576 126.959L132.778 116.257C133.05 115.768 132.887 115.171 132.452 114.899Z" fill="#4F5170"/>
<path d="M154.652 134.945C154.761 136.466 155.577 137.661 158.297 137.77C172.607 138.15 230.989 138.911 236.865 138.856C240.728 138.802 241 138.15 240.892 136.357C240.456 129.023 241.055 118.756 240.511 109.738C240.402 108.108 241.381 107.347 237.573 107.293C233.002 107.293 176.307 106.206 156.502 105.718C152.802 105.609 153.346 109.14 153.4 109.738C154.053 120.223 154.217 129.73 154.652 134.945Z" fill="#F5E4D5"/>
<path d="M229.467 113.541C207.159 113.106 184.851 112.617 162.543 112.183C162.217 112.183 162.162 112.726 162.543 112.726C184.851 113.161 207.159 113.65 229.467 114.084C229.848 114.138 229.848 113.595 229.467 113.541ZM162.271 121.527C184.579 121.961 188.932 122.287 211.24 122.776C211.566 122.776 211.621 122.233 211.24 122.233C188.932 121.798 184.579 121.472 162.271 120.984C161.89 120.984 161.89 121.527 162.271 121.527ZM228.542 131.305C206.234 130.871 183.926 130.382 161.618 129.947C161.292 129.947 161.237 130.491 161.618 130.491C183.926 130.925 206.234 131.414 228.542 131.849C228.923 131.903 228.923 131.36 228.542 131.305Z" fill="#4F5170"/>
<path d="M143.93 158.794C143.876 158.306 143.604 157.925 143.278 157.925C135.715 157.545 113.57 157.545 111.829 157.436C110.414 157.382 110.686 159.12 110.686 159.446C110.74 166.509 111.829 182.698 112.046 186.12C112.155 187.641 112.318 188.402 113.461 188.782C115.637 189.489 137.782 189.38 143.223 189.489C144.964 189.489 145.127 188.891 144.964 184.979C144.311 169.877 145.182 171.833 143.93 158.794Z" fill="#A7C6DF"/>
<path d="M134.298 168.356C133.863 168.084 133.265 168.247 132.993 168.682L127.388 178.352L125.049 175.309C124.722 174.875 124.124 174.82 123.689 175.146C123.253 175.472 123.199 176.07 123.525 176.504L126.735 180.688C127.062 181.122 127.66 181.176 128.096 180.851C128.259 180.742 128.368 180.525 128.422 180.362L134.625 169.659C134.897 169.17 134.734 168.573 134.298 168.356Z" fill="#4F5170"/>
<path d="M229.137 164.879C206.829 164.607 184.521 164.281 162.213 164.01C161.886 164.01 161.886 164.553 162.213 164.553C184.521 164.825 206.829 165.151 229.137 165.422C229.463 165.422 229.463 164.879 229.137 164.879Z" fill="#4F5170"/>
<path d="M155.195 187.261C155.304 188.782 156.12 189.977 158.841 190.086C173.15 190.466 231.532 191.281 237.408 191.227C241.272 191.172 241.544 190.52 241.435 188.728C240.999 181.394 241.652 171.126 241.108 162.108C240.999 160.478 241.979 159.718 238.17 159.663C233.6 159.663 176.905 158.577 157.099 158.034C153.4 157.925 153.944 161.456 153.998 162.054C154.597 172.593 154.76 182.1 155.195 187.261Z" fill="#F5E4D5"/>
<path d="M160.852 166.292C183.16 166.564 187.513 166.89 209.821 167.161C210.148 167.161 210.148 166.618 209.821 166.618C187.513 166.346 183.16 166.02 160.852 165.749C160.472 165.749 160.472 166.292 160.852 166.292ZM227.232 175.582C204.924 175.31 182.616 174.984 160.308 174.712C159.982 174.712 159.982 175.256 160.308 175.256C182.616 175.527 204.924 175.853 227.232 176.125C227.559 176.125 227.559 175.582 227.232 175.582Z" fill="#4F5170"/>
<path d="M250.557 19.3317C250.557 15.0097 248.87 11.5743 246.855 11.6851L102.034 10.5769C100.02 10.5769 98.3867 14.1232 98.3867 18.4451L98.4412 33.6275H250.612L250.557 19.3317Z" fill="#A7C6DF"/>
<path fill-rule="evenodd" clip-rule="evenodd" d="M172.693 28.5854C173.087 28.5854 173.261 28.3916 173.48 28.1616L175.579 25.9637L172.961 24.2634" fill="white"/>
<path fill-rule="evenodd" clip-rule="evenodd" d="M172.984 24.4065L179.401 29.1094C180.133 29.5102 180.662 29.3027 180.844 28.435L183.456 16.2248C183.724 15.1613 183.047 14.6789 182.347 14.9944L167.01 20.8611C165.963 21.2777 165.969 21.8571 166.819 22.1153L170.755 23.3339L179.867 17.6312C180.297 17.3724 180.692 17.5115 180.368 17.7968" fill="white"/>
<path d="M100.95 302.705C100.95 304.823 102.637 306.507 104.65 306.453L249.38 306.996C251.393 306.996 253.026 305.258 253.026 303.139L252.862 284.505L100.732 283.962L100.95 302.705Z" fill="#A7C6DF"/>
<path d="M178.701 299.01H172.226C171.573 299.01 171.029 298.521 171.029 297.869L170.757 292.816C170.757 292.49 170.866 292.164 171.083 291.893C171.301 291.621 171.627 291.513 171.954 291.513H178.429C179.082 291.513 179.626 292.002 179.626 292.653L179.898 297.706C179.898 298.032 179.789 298.358 179.571 298.629C179.354 298.847 179.027 299.01 178.701 299.01ZM171.954 292.056C171.791 292.056 171.573 292.11 171.464 292.273C171.355 292.382 171.247 292.599 171.301 292.762L171.573 297.814C171.573 298.195 171.899 298.466 172.226 298.466H178.701C178.864 298.466 179.082 298.412 179.19 298.249C179.299 298.086 179.408 297.923 179.354 297.76L179.082 292.708C179.082 292.327 178.755 292.056 178.429 292.056H171.954Z" fill="#F5E4D5"/>
<path d="M228.104 298.738C228.05 298.738 227.995 298.738 227.941 298.684L223.262 295.044L227.56 291.133C227.669 291.024 227.832 291.024 227.941 291.133C228.05 291.242 228.05 291.404 227.941 291.513L224.132 294.99L228.322 298.25C228.431 298.358 228.485 298.521 228.376 298.63C228.267 298.738 228.213 298.738 228.104 298.738Z" fill="#F5E4D5"/>
<path d="M127.39 291.729H135.28C135.443 291.729 135.552 291.621 135.552 291.458C135.552 291.295 135.443 291.186 135.28 291.186H127.39C127.227 291.186 127.118 291.295 127.118 291.458C127.118 291.621 127.281 291.729 127.39 291.729ZM135.334 294.717C135.497 294.717 135.606 294.608 135.606 294.445C135.606 294.282 135.497 294.174 135.334 294.174H127.445C127.281 294.174 127.173 294.282 127.173 294.445C127.173 294.608 127.281 294.717 127.445 294.717H135.334ZM135.552 297.162H127.662C127.499 297.162 127.39 297.27 127.39 297.433C127.39 297.596 127.499 297.705 127.662 297.705H135.552C135.715 297.705 135.824 297.596 135.824 297.433C135.824 297.27 135.715 297.162 135.552 297.162Z" fill="#F5E4D5"/>
</svg>
