<svg width="43" height="44" viewBox="0 0 43 44" fill="none" xmlns="http://www.w3.org/2000/svg">
<path d="M9.9742 3.30017L2.24499 3.79311C1.0306 3.8717 0.105523 4.92187 0.184101 6.13636L2.10212 36.22C2.1807 37.4345 3.23078 38.3597 4.44517 38.2811L12.1744 37.7881L9.9742 3.30017Z" fill="#81ABDD"/>
<path d="M3.52713 38.3241C3.5057 38.3241 3.48427 38.3206 3.46284 38.3134C3.03414 38.1507 2.66118 37.8683 2.38829 37.4997C2.1154 37.1312 1.95405 36.6921 1.92343 36.2345L0.637608 16.0668C0.637895 16.0213 0.655469 15.9776 0.686768 15.9446C0.718066 15.9116 0.760749 15.8917 0.806167 15.8889C0.851584 15.8862 0.896339 15.9009 0.931362 15.9299C0.966385 15.959 0.989056 16.0002 0.994781 16.0454L2.2806 36.2131C2.30609 36.6021 2.44287 36.9756 2.67464 37.2891C2.90641 37.6026 3.2234 37.8428 3.58785 37.9812C3.68072 38.0169 3.72715 38.1205 3.69143 38.2134C3.66643 38.2813 3.59857 38.3241 3.52713 38.3241ZM0.487596 11.066C0.394731 11.066 0.316153 10.9945 0.30901 10.8981L0.00541314 6.15084C-0.0328461 5.5848 0.132644 5.02374 0.471969 4.56908C0.811294 4.11442 1.30206 3.79617 1.85557 3.67185C1.90084 3.66435 1.94727 3.67445 1.98532 3.7001C2.02338 3.72574 2.05019 3.76497 2.06024 3.80975C2.07029 3.85453 2.06283 3.90146 2.03938 3.94091C2.01593 3.98036 1.97828 4.00934 1.93414 4.02191C0.959064 4.24338 0.298295 5.12924 0.359014 6.12941L0.666182 10.8766C0.673326 10.9767 0.598319 11.0588 0.498311 11.066H0.487596Z" fill="#727E99"/>
<path d="M31.2723 4.15398L33.1904 34.2376C33.2689 35.4521 32.3439 36.5023 31.1295 36.5809L6.94175 38.124C5.72737 38.2026 4.67728 37.2774 4.5987 36.0629L2.68068 5.97929C2.60211 4.76479 3.52718 3.71462 4.74157 3.63603L28.9293 2.09292C30.1437 2.01433 31.1938 2.93949 31.2723 4.15398Z" fill="#C7E0FF"/>
<path d="M31.2722 4.15386L33.1902 34.2375C33.2688 35.452 32.3437 36.5022 31.1293 36.5808L6.94158 38.1239C6.40225 38.1596 5.89506 37.9953 5.49146 37.6988L30.3149 2.47144C30.5918 2.66072 30.8219 2.9106 30.9878 3.20212C31.1536 3.49364 31.2509 3.81913 31.2722 4.15386Z" fill="#C7E0FF"/>
<path d="M6.79891 38.3063C6.22029 38.3063 5.66667 38.0991 5.22735 37.7098C4.99143 37.5034 4.79889 37.2522 4.66093 36.9707C4.52297 36.6892 4.44233 36.3831 4.42371 36.0702L2.50569 5.98655C2.4664 5.35073 2.67356 4.73634 3.09503 4.25769C3.51649 3.77904 4.09868 3.49327 4.73445 3.45398L28.9222 1.91086C30.2401 1.82871 31.3724 2.8253 31.4545 4.13981L33.3725 34.2235C33.4547 35.538 32.4546 36.6739 31.1438 36.756L6.95606 38.2992C6.89891 38.3063 6.84891 38.3063 6.79891 38.3063ZM29.0722 2.26449C29.0293 2.26449 28.9865 2.26449 28.94 2.26807L4.75231 3.81119C4.21298 3.84691 3.71651 4.0898 3.35933 4.49701C3.00216 4.90423 2.82357 5.42574 2.85572 5.96512L4.77374 36.0488C4.80945 36.5882 5.05233 37.0847 5.45951 37.4419C5.86668 37.7991 6.38816 37.9777 6.92749 37.9455L31.1152 36.4024C32.2332 36.331 33.0832 35.3665 33.0118 34.2485L31.0938 4.16482C31.0259 3.09321 30.133 2.26449 29.0722 2.26449Z" fill="#727E99"/>
<path d="M29.1329 4.229L31.0702 34.4413L6.75249 36.0008L4.81519 5.78855L29.1329 4.229Z" fill="white"/>
<path d="M4.81421 5.77724L6.10074 5.69508L8.03805 35.9073L6.75151 35.9895L4.81421 5.77724ZM27.7765 4.30163L29.0634 4.21912L31.0007 34.4314L29.7138 34.5139L27.7765 4.30163Z" fill="#EDEDED"/>
<path d="M6.7418 36.1702C6.69674 36.1706 6.65322 36.1539 6.62005 36.1234C6.58689 36.0928 6.56657 36.0509 6.56322 36.0059L4.63449 5.79366C4.63091 5.74723 4.64877 5.70079 4.67735 5.66507C4.70949 5.62935 4.75235 5.60792 4.79879 5.60435L29.1151 4.05408C29.2187 4.05051 29.2972 4.12195 29.3044 4.22197L31.2331 34.4342C31.2367 34.4807 31.2188 34.5271 31.1903 34.5628C31.1581 34.5985 31.1153 34.62 31.0688 34.6235L6.75252 36.1738C6.74895 36.1702 6.74538 36.1702 6.7418 36.1702ZM5.00237 5.94369L6.9061 35.7987L30.8652 34.2699L28.9615 4.41486L5.00237 5.94369Z" fill="#727E99"/>
<path d="M22.2287 5.9471L12.0564 6.59721C11.4099 6.64008 10.8956 6.06141 11.0099 5.42916L11.4492 2.97517C11.4889 2.75558 11.6008 2.55552 11.7671 2.4067C11.9333 2.25788 12.1445 2.16881 12.3671 2.15361L13.8315 2.06073C14.2066 2.03573 14.5459 1.80712 14.6852 1.46063C14.9566 0.774801 15.7674 0.249713 16.7568 0.185416C17.7461 0.12112 18.6141 0.54262 18.9748 1.18559C19.157 1.51421 19.5213 1.69639 19.8963 1.67495L21.3607 1.58208C21.8179 1.5535 22.2358 1.84284 22.3751 2.27863L23.1216 4.65403C23.3109 5.27199 22.8751 5.90781 22.2287 5.9471Z" fill="white"/>
<path d="M11.8992 5.37209C11.7849 6.00434 12.3028 6.58301 12.9458 6.54014L12.0564 6.59729C11.4099 6.64016 10.8956 6.06149 11.0099 5.42924L11.4492 2.97525C11.4876 2.75568 11.5986 2.55536 11.7644 2.40639C11.9302 2.25743 12.1412 2.16843 12.3636 2.15368L13.2529 2.09653C13.0305 2.11128 12.8195 2.20027 12.6537 2.34924C12.4879 2.49821 12.377 2.69853 12.3386 2.9181L11.8992 5.37209ZM17.1997 0.189067C16.421 0.356953 15.8031 0.824889 15.5745 1.40356C15.4317 1.75719 15.0959 1.98223 14.7173 2.00723L13.828 2.06438C14.2066 2.03938 14.5423 1.81434 14.6852 1.46071C14.9566 0.778452 15.7674 0.249792 16.7532 0.185495C16.9068 0.174779 17.0532 0.174779 17.1997 0.189067Z" fill="#EDEDED"/>
<path d="M11.9885 6.77941C11.8165 6.7798 11.6465 6.74237 11.4906 6.66976C11.3346 6.59716 11.1966 6.49115 11.0862 6.35925C10.9758 6.22736 10.8957 6.0728 10.8516 5.90651C10.8076 5.74023 10.8006 5.5663 10.8313 5.39703L11.2706 2.94304C11.367 2.40724 11.8099 2.01074 12.3528 1.97502L13.8172 1.88215C14.1315 1.86072 14.4066 1.6714 14.5173 1.39278C14.8209 0.628367 15.7138 0.0711305 16.7425 0.00683389C17.7675 -0.0610347 18.7283 0.381897 19.1248 1.09988C19.2712 1.36063 19.5713 1.5178 19.882 1.49637L21.3464 1.4035C21.8893 1.36778 22.3786 1.70712 22.5429 2.22507L23.2894 4.60047C23.3966 4.94695 23.343 5.31487 23.1358 5.61492C22.9287 5.91498 22.6037 6.10072 22.2393 6.12573L20.2892 6.25075C20.1892 6.25075 20.107 6.18288 20.0999 6.08286C20.0927 5.98284 20.1677 5.90069 20.2678 5.89354L22.2179 5.76852C22.4715 5.75066 22.7001 5.62207 22.843 5.41489C22.9858 5.20771 23.0251 4.95053 22.9501 4.70763L22.2036 2.33223C22.0893 1.97145 21.7464 1.73213 21.3714 1.7607L19.907 1.85357C19.457 1.88215 19.0284 1.65354 18.8176 1.27491C18.4855 0.674804 17.664 0.306885 16.7675 0.364037C15.8745 0.42119 15.103 0.889126 14.8494 1.52852C14.6887 1.93216 14.2923 2.21435 13.8422 2.24293L12.3778 2.3358C12.0028 2.3608 11.692 2.63585 11.6242 3.01091L11.1849 5.4649C11.142 5.71137 11.2134 5.96498 11.3813 6.15073C11.5492 6.34005 11.792 6.44006 12.0456 6.4222L18.064 6.04C18.1604 6.03642 18.2462 6.10787 18.2533 6.20788C18.2604 6.3079 18.1854 6.39006 18.0854 6.3972L12.0671 6.77941C12.0421 6.77584 12.0135 6.77941 11.9885 6.77941Z" fill="#727E99"/>
<path d="M14.2853 4.10045C14.1924 4.10045 14.1138 4.02901 14.1067 3.93257C14.0995 3.83255 14.1745 3.75039 14.2745 3.74325L19.7857 3.39319C19.8312 3.39348 19.8749 3.41105 19.9079 3.44235C19.9409 3.47365 19.9608 3.51634 19.9636 3.56176C19.9663 3.60718 19.9516 3.65194 19.9226 3.68697C19.8936 3.72199 19.8523 3.74467 19.8071 3.75039L14.296 4.10045H14.2853ZM15.7961 10.3551C15.7032 10.3551 15.6247 10.2836 15.6175 10.1872C15.6104 10.0872 15.6854 10.005 15.7854 9.99788L26.6684 9.30133C26.7684 9.29776 26.8506 9.3692 26.8577 9.46922C26.8649 9.56923 26.7899 9.65139 26.6899 9.65853L15.8104 10.3515C15.8068 10.3515 15.8032 10.3551 15.7961 10.3551ZM15.9175 12.2554C15.8247 12.2554 15.7461 12.184 15.739 12.0875C15.7318 11.9875 15.8068 11.9053 15.9068 11.8982L26.7899 11.2052C26.8934 11.1981 26.972 11.2731 26.9792 11.3731C26.9863 11.4731 26.9113 11.5553 26.8113 11.5624L15.9318 12.2554H15.9175ZM16.039 14.1557C15.9461 14.1557 15.8675 14.0843 15.8604 13.9878C15.8532 13.8878 15.9283 13.8057 16.0283 13.7985L22.7538 13.3699C22.861 13.3663 22.936 13.4377 22.9431 13.5378C22.9503 13.6378 22.8753 13.7199 22.7752 13.7271L16.0497 14.1557H16.039ZM16.3176 18.4815C16.2247 18.4815 16.1461 18.41 16.139 18.3136C16.1318 18.2136 16.2068 18.1314 16.3069 18.1243L25.1397 17.5599C25.2469 17.5527 25.3219 17.6277 25.329 17.7278C25.3362 17.8278 25.2612 17.9099 25.1612 17.9171L16.3283 18.4815H16.3176ZM16.439 20.3818C16.3461 20.3818 16.2676 20.3103 16.2604 20.2139C16.2533 20.1139 16.3283 20.0317 16.4283 20.0246L25.2612 19.4602C25.3683 19.453 25.4433 19.5281 25.4505 19.6281C25.4576 19.7281 25.3826 19.8102 25.2826 19.8174L16.4497 20.3818H16.439ZM16.5604 22.2857C16.4676 22.2857 16.389 22.2142 16.3819 22.1178C16.3747 22.0178 16.4497 21.9356 16.5497 21.9285L23.2753 21.4998C23.3824 21.4927 23.4574 21.5677 23.4646 21.6677C23.4717 21.7677 23.3967 21.8499 23.2967 21.857L16.5712 22.2857C16.5676 22.2821 16.564 22.2857 16.5604 22.2857ZM16.8355 26.6078C16.7426 26.6078 16.664 26.5364 16.6569 26.4399C16.6497 26.3399 16.7247 26.2578 16.8248 26.2506L27.7078 25.5577C27.815 25.5541 27.89 25.6255 27.8971 25.7255C27.9042 25.8256 27.8292 25.9077 27.7292 25.9149L16.8462 26.6078H16.8355ZM16.9569 28.5117C16.864 28.5117 16.7855 28.4403 16.7783 28.3438C16.7712 28.2438 16.8462 28.1617 16.9462 28.1545L27.8292 27.4615C27.9364 27.458 28.0114 27.5294 28.0185 27.6294C28.0257 27.7294 27.9507 27.8116 27.8507 27.8187L16.9676 28.5117H16.9569ZM17.0783 30.412C16.9855 30.412 16.9069 30.3406 16.8998 30.2442C16.8926 30.1441 16.9676 30.062 17.0676 30.0548L23.7932 29.6262C23.9039 29.6226 23.9753 29.6941 23.9825 29.7941C23.9896 29.8941 23.9146 29.9763 23.8146 29.9834L17.0891 30.412H17.0783Z" fill="#727E99"/>
<path d="M13.1994 12.2481C13.2459 12.9625 12.9958 13.6233 12.5565 14.127C12.3325 14.3819 12.0604 14.5901 11.7558 14.7396C11.4512 14.8892 11.12 14.9772 10.7814 14.9985C9.35268 15.0914 8.12401 14.0055 8.03114 12.5803C7.98471 11.8659 8.23473 11.2051 8.67048 10.705C9.12437 10.1901 9.76419 9.87654 10.4492 9.83339C11.1635 9.78695 11.8243 10.037 12.3208 10.4728C12.5779 10.6954 12.788 10.9671 12.9389 11.2719C13.0897 11.5768 13.1783 11.9086 13.1994 12.2481Z" fill="#FA9595"/>
<path d="M13.1996 12.2481C13.246 12.9625 12.996 13.6233 12.5567 14.127C12.3326 14.3818 12.0605 14.59 11.7559 14.7396C11.4513 14.8892 11.1202 14.9771 10.7815 14.9985C10.1454 15.0412 9.51626 14.8451 9.01709 14.4484L11.978 10.2156C12.0995 10.2906 12.2174 10.3763 12.3245 10.4692C12.5806 10.6932 12.7897 10.9658 12.9399 11.2711C13.0901 11.5764 13.1784 11.9085 13.1996 12.2481Z" fill="#FA8D8D"/>
<path d="M10.6099 15.1844C9.93485 15.1844 9.29551 14.9415 8.78476 14.495C8.23114 14.0056 7.89897 13.3305 7.85254 12.5947C7.8061 11.8589 8.04898 11.148 8.53474 10.5872C8.77478 10.3138 9.0666 10.0906 9.39335 9.93061C9.7201 9.77059 10.0753 9.67689 10.4385 9.65491C11.1742 9.60847 11.885 9.85137 12.4422 10.3372C12.7167 10.5765 12.9408 10.8682 13.1015 11.195C13.2622 11.5219 13.3561 11.8775 13.378 12.2411C13.4244 12.9769 13.1816 13.6913 12.6922 14.2485C12.4529 14.5219 12.1617 14.7451 11.8355 14.9051C11.5094 15.0651 11.1547 15.1588 10.7921 15.1808C10.7313 15.1808 10.6706 15.1844 10.6099 15.1844ZM10.6171 10.005C10.5635 10.005 10.5135 10.005 10.4599 10.0085C10.1438 10.0279 9.83462 10.1095 9.55012 10.2486C9.26562 10.3877 9.01138 10.5817 8.80199 10.8193C8.5926 11.0569 8.43218 11.3335 8.32993 11.6333C8.22768 11.9331 8.18561 12.2501 8.20614 12.5661C8.24543 13.2091 8.53474 13.7985 9.01692 14.2235C9.4991 14.6486 10.1206 14.8594 10.7635 14.8201C11.4064 14.7808 11.9922 14.4914 12.4172 14.0092C12.8458 13.5234 13.0565 12.9019 13.0173 12.2625C12.978 11.6195 12.6851 11.0337 12.2029 10.6051C11.7666 10.2158 11.2017 10.0021 10.6171 10.005Z" fill="#727E99"/>
<path d="M10.2671 13.3017C10.2243 13.3017 10.1814 13.2874 10.1493 13.2589L9.53135 12.7159C9.51343 12.7004 9.49881 12.6815 9.48836 12.6602C9.4779 12.6389 9.47183 12.6158 9.47049 12.5921C9.46916 12.5685 9.4726 12.5448 9.4806 12.5225C9.4886 12.5002 9.501 12.4797 9.51706 12.4623C9.58135 12.3873 9.69565 12.3801 9.77065 12.448L10.2528 12.8731L11.4136 11.555C11.4779 11.48 11.5922 11.4728 11.6672 11.5371C11.7422 11.6014 11.7494 11.7157 11.6851 11.7908L10.4064 13.2446C10.3743 13.2803 10.3314 13.3017 10.285 13.3053C10.2743 13.3017 10.2707 13.3017 10.2671 13.3017Z" fill="white"/>
<path d="M13.717 20.3783C13.7634 21.0927 13.5134 21.7536 13.0741 22.2572C12.8501 22.5121 12.578 22.7203 12.2733 22.8699C11.9687 23.0194 11.6376 23.1074 11.299 23.1288C9.87026 23.2217 8.64159 22.1358 8.54872 20.7105C8.50229 19.9961 8.75231 19.3353 9.18806 18.8352C9.64195 18.3203 10.2818 18.0068 10.9668 17.9636C11.6811 17.9172 12.3419 18.1672 12.8384 18.603C13.0958 18.8254 13.3061 19.097 13.457 19.4019C13.6079 19.7068 13.6963 20.0388 13.717 20.3783Z" fill="#FA9595"/>
<path d="M13.7172 20.3746C13.7636 21.0891 13.5136 21.7499 13.0742 22.2535C12.8502 22.5084 12.5781 22.7166 12.2735 22.8662C11.9689 23.0157 11.6378 23.1037 11.2991 23.1251C10.663 23.1678 10.0338 22.9716 9.53467 22.575L12.4956 18.3422C12.6171 18.4172 12.7349 18.5029 12.8421 18.5958C13.0984 18.8196 13.3078 19.0921 13.458 19.3974C13.6083 19.7028 13.6963 20.035 13.7172 20.3746Z" fill="#FA8D8D"/>
<path d="M11.128 23.3106C10.4529 23.3106 9.81358 23.0677 9.30282 22.6212C8.74921 22.1319 8.41704 21.4567 8.3706 20.7209C8.32417 19.9851 8.56705 19.2742 9.0528 18.7134C9.29285 18.44 9.58467 18.2168 9.91142 18.0568C10.2382 17.8968 10.5934 17.8031 10.9565 17.7811C11.6923 17.7347 12.4067 17.9776 12.9603 18.4634C13.2348 18.7028 13.4589 18.9944 13.6196 19.3212C13.7802 19.6481 13.8742 20.0037 13.8961 20.3673C13.9425 21.1031 13.6996 21.8175 13.2103 22.3748C12.9705 22.6473 12.6792 22.8697 12.3531 23.0291C12.0269 23.1885 11.6725 23.2818 11.3101 23.3035C11.2494 23.3071 11.1887 23.3106 11.128 23.3106ZM11.1351 18.1312C11.0815 18.1312 11.0315 18.1312 10.978 18.1348C10.6619 18.1541 10.3527 18.2357 10.0682 18.3748C9.78369 18.514 9.52945 18.7079 9.32006 18.9455C9.11067 19.1831 8.95025 19.4598 8.848 19.7595C8.74575 20.0593 8.70368 20.3763 8.7242 20.6923C8.76349 21.3353 9.0528 21.9211 9.53499 22.3498C9.77181 22.5604 10.0483 22.7216 10.3482 22.824C10.6481 22.9264 10.9654 22.968 11.2816 22.9463C11.9245 22.907 12.5102 22.6177 12.9353 22.1354C13.3639 21.6496 13.5746 21.0281 13.5353 20.3887C13.496 19.7457 13.2031 19.1599 12.721 18.7313C12.2838 18.3435 11.7194 18.1299 11.1351 18.1312Z" fill="#727E99"/>
<path d="M10.7849 21.4283C10.7421 21.4283 10.6992 21.414 10.6671 21.3854L10.0492 20.8425C10.0313 20.827 10.0166 20.808 10.0062 20.7868C9.99572 20.7655 9.98965 20.7424 9.98832 20.7187C9.98698 20.6951 9.99042 20.6714 9.99842 20.6491C10.0064 20.6268 10.0188 20.6063 10.0349 20.5889C10.0992 20.5139 10.2135 20.5067 10.2885 20.5746L10.7707 20.9997L11.9315 19.6816C11.9958 19.6066 12.1101 19.5994 12.1851 19.6637C12.2601 19.728 12.2672 19.8423 12.2029 19.9173L10.9242 21.3712C10.8921 21.4069 10.8492 21.4283 10.8028 21.4319C10.7921 21.4283 10.7885 21.4283 10.7849 21.4283Z" fill="white"/>
<path d="M14.2351 28.5046C14.2815 29.219 14.0315 29.8798 13.5922 30.3834C13.3681 30.6383 13.096 30.8465 12.7914 30.9961C12.4868 31.1456 12.1557 31.2336 11.817 31.255C10.3883 31.3479 9.15965 30.262 9.06679 28.8368C9.02036 28.1223 9.27038 27.4615 9.70613 26.9614C10.16 26.4465 10.7998 26.133 11.4848 26.0899C12.1992 26.0434 12.86 26.2935 13.3564 26.7293C13.6141 26.9514 13.8246 27.223 13.9756 27.5279C14.1265 27.8328 14.2147 28.1649 14.2351 28.5046Z" fill="#FA9595"/>
<path d="M14.2352 28.5044C14.2817 29.2188 14.0316 29.8796 13.5923 30.3833C13.3683 30.6382 13.0962 30.8464 12.7916 30.9959C12.487 31.1455 12.1558 31.2335 11.8172 31.2549C11.1811 31.2975 10.5519 31.1014 10.0527 30.7048L13.0137 26.4719C13.3659 26.6873 13.661 26.9845 13.8736 27.3384C14.0863 27.6923 14.2104 28.0923 14.2352 28.5044Z" fill="#FA8D8D"/>
<path d="M11.6491 31.4371C10.2026 31.4371 8.98105 30.3084 8.88818 28.8438C8.84175 28.108 9.08463 27.3972 9.57038 26.8363C9.81043 26.5629 10.1022 26.3398 10.429 26.1798C10.7557 26.0197 11.111 25.926 11.4741 25.9041C12.2099 25.8576 12.9242 26.1005 13.4778 26.5863C13.7524 26.8257 13.9765 27.1173 14.1371 27.4442C14.2978 27.771 14.3918 28.1266 14.4136 28.4902C14.4601 29.226 14.2172 29.9404 13.7279 30.4977C13.4885 30.771 13.1974 30.9942 12.8712 31.1542C12.545 31.3143 12.1903 31.408 11.8277 31.43C11.767 31.4371 11.7098 31.4371 11.6491 31.4371ZM11.6563 26.2577C11.6027 26.2577 11.5527 26.2577 11.4991 26.2613C11.183 26.2806 10.8738 26.3622 10.5893 26.5013C10.3048 26.6405 10.0506 26.8344 9.84121 27.072C9.63182 27.3096 9.4714 27.5863 9.36915 27.886C9.2669 28.1858 9.22483 28.5028 9.24535 28.8188C9.33108 30.1441 10.4812 31.1585 11.8063 31.0728C12.4492 31.0335 13.035 30.7442 13.46 30.2619C13.8886 29.7761 14.0993 29.1546 14.06 28.5152C14.0208 27.8722 13.7279 27.2864 13.2457 26.8578C12.8065 26.471 12.2414 26.2576 11.6563 26.2577Z" fill="#727E99"/>
<path d="M11.3028 29.5582C11.2599 29.5582 11.217 29.5439 11.1849 29.5153L10.567 28.9724C10.5491 28.9569 10.5345 28.9379 10.524 28.9167C10.5135 28.8954 10.5075 28.8723 10.5061 28.8486C10.5048 28.8249 10.5082 28.8013 10.5162 28.779C10.5242 28.7566 10.5366 28.7362 10.5527 28.7188C10.617 28.6438 10.7313 28.6366 10.8063 28.7045L11.2885 29.1296L12.4493 27.8115C12.5136 27.7365 12.6279 27.7293 12.7029 27.7936C12.7779 27.8579 12.785 27.9722 12.7207 28.0472L11.4421 29.501C11.4099 29.5368 11.3671 29.5582 11.3206 29.5618C11.3099 29.5582 11.3063 29.5582 11.3028 29.5582Z" fill="white"/>
<path d="M27.9177 16.6278L34.2743 5.31482L39.488 8.24496L33.1314 19.5576L27.9177 16.6278Z" fill="#FA9595"/>
<path d="M27.9155 16.6281L34.2721 5.31543L35.1658 5.81766L28.8092 17.1303L27.9155 16.6281ZM32.2416 19.0578L38.5982 7.74513L39.4918 8.24735L33.1356 19.56L32.2416 19.0578Z" fill="#FA8D8D"/>
<path d="M41.5624 4.57162L40.4766 6.50052L35.2583 3.56788L36.3441 1.63898C36.583 1.21573 36.9799 0.904405 37.4478 0.773183C37.9158 0.641961 38.4166 0.701536 38.8407 0.938862L40.8659 2.07834C41.2888 2.3167 41.5997 2.71324 41.7303 3.18078C41.8609 3.64832 41.8005 4.14859 41.5624 4.57162Z" fill="#C7E0FF"/>
<path d="M38.0693 0.713967C37.3871 0.66753 36.7049 1.0033 36.3478 1.63912L35.262 3.56802L36.1763 4.08239L38.0693 0.713967ZM41.4553 2.61786C41.8482 3.17867 41.9197 3.93594 41.5625 4.57176L40.4767 6.50066L39.5623 5.98629L41.4553 2.61786Z" fill="#C7E0FF"/>
<path d="M34.2654 5.31687L35.2562 3.55408L40.4791 6.48922L39.4887 8.25237L34.2654 5.31687Z" fill="#EDEDED"/>
<path d="M35.1565 5.81735L36.1469 4.0542L39.5854 5.98667L38.5946 7.74947L35.1565 5.81735Z" fill="white"/>
<path d="M33.1294 19.5707L27.554 23.3785L27.9147 16.6345L33.1294 19.5707Z" fill="#FCDCB5"/>
<path d="M28.3076 22.8677L27.554 23.3785L27.9147 16.6345L28.6148 17.0274L28.3076 22.8677Z" fill="#FCC583"/>
<path d="M33.1259 19.7496C33.0973 19.7496 33.0651 19.7425 33.0366 19.7282L27.8254 16.7991C27.7826 16.7777 27.754 16.7384 27.7397 16.692C27.7254 16.6455 27.7326 16.5991 27.7576 16.5562L34.1152 5.24717C34.1617 5.16144 34.2724 5.12929 34.3581 5.1793L39.5693 8.10837C39.655 8.15837 39.6871 8.26553 39.6371 8.35126L37.7655 11.684C37.7155 11.7697 37.6084 11.8018 37.5227 11.7518C37.4369 11.7018 37.4048 11.5947 37.4548 11.5089L39.2407 8.3334L34.3403 5.57937L28.1576 16.5705L33.058 19.3281L36.2368 13.6736C36.2833 13.5879 36.394 13.5557 36.4797 13.6057C36.5654 13.6557 36.5976 13.7629 36.5476 13.8486L33.283 19.6567C33.2509 19.7139 33.1902 19.7496 33.1259 19.7496ZM40.4765 6.67955C40.4479 6.67955 40.4158 6.67241 40.3872 6.65812L35.1725 3.72548C35.1296 3.70048 35.101 3.66476 35.0867 3.61832C35.0725 3.57188 35.0796 3.52545 35.1046 3.48258L36.1904 1.55368C36.4547 1.08575 36.8833 0.746406 37.4012 0.603524C37.9191 0.460643 38.462 0.52494 38.9299 0.785698L40.9551 1.9216C41.4196 2.18276 41.7614 2.61766 41.9054 3.13073C42.0494 3.6438 41.9838 4.19305 41.723 4.65778L40.6372 6.58668C40.5979 6.6474 40.5408 6.67955 40.4765 6.67955ZM35.5046 3.50044L40.4086 6.25805L41.4051 4.48275C41.8516 3.68976 41.5694 2.67888 40.7729 2.23237L38.7478 1.09646C38.5588 0.988785 38.3502 0.920034 38.1343 0.894267C37.9184 0.8685 37.6995 0.88624 37.4905 0.946439C37.2809 1.00439 37.0849 1.10338 36.9138 1.23766C36.7428 1.37195 36.6001 1.53886 36.494 1.72871L35.5046 3.50044Z" fill="#727E99"/>
<path d="M39.4908 8.44397C39.4623 8.44397 39.4301 8.43682 39.4015 8.42254L34.1797 5.48633C34.1368 5.46132 34.1082 5.4256 34.094 5.37917C34.0797 5.33273 34.0868 5.28629 34.1118 5.24343L35.1012 3.48242C35.1226 3.43955 35.1619 3.41097 35.2083 3.39669C35.2548 3.3824 35.3012 3.38954 35.3441 3.41455L40.5659 6.35076C40.6517 6.40077 40.6838 6.50793 40.6338 6.59366L39.6444 8.35467C39.623 8.39753 39.5837 8.42611 39.5373 8.4404C39.523 8.4404 39.5051 8.44397 39.4908 8.44397ZM34.5119 5.26129L39.423 8.02247L40.2373 6.57222L35.3262 3.81104L34.5119 5.26129ZM27.5541 23.5572C27.5298 23.5582 27.5055 23.554 27.4829 23.545C27.4603 23.5359 27.4399 23.5221 27.4231 23.5045C27.4062 23.487 27.3932 23.4661 27.385 23.4431C27.3768 23.4202 27.3736 23.3958 27.3755 23.3715L27.7327 16.6275C27.7363 16.5668 27.772 16.5096 27.8256 16.481C27.8792 16.4525 27.947 16.4525 28.0006 16.481L33.2189 19.4137C33.2725 19.4423 33.3082 19.4994 33.3082 19.5601C33.3095 19.5903 33.3029 19.6204 33.2891 19.6473C33.2754 19.6742 33.2549 19.6971 33.2296 19.7137L27.6541 23.5287C27.6256 23.5465 27.5899 23.5572 27.5541 23.5572ZM28.0756 16.9311L27.7506 23.0286L32.7903 19.5851L28.0756 16.9311Z" fill="#727E99"/>
<path d="M30.5221 18.2814C30.4935 18.2814 30.4613 18.2743 30.4328 18.26C30.4123 18.2486 30.3943 18.2332 30.3798 18.2148C30.3652 18.1964 30.3545 18.1753 30.3482 18.1527C30.3419 18.1301 30.3401 18.1065 30.343 18.0832C30.3459 18.0599 30.3533 18.0375 30.3649 18.0171L36.7226 6.70803C36.769 6.6223 36.8797 6.59015 36.9654 6.64016C37.0512 6.69017 37.0833 6.79733 37.0333 6.88306L30.6756 18.1921C30.6435 18.2493 30.5828 18.2814 30.5221 18.2814ZM27.729 20.071L27.554 23.3787L30.2899 21.5105L27.729 20.071Z" fill="#727E99"/>
<path d="M27.5541 23.5572C27.5298 23.5582 27.5055 23.554 27.4829 23.5449C27.4603 23.5358 27.4399 23.5221 27.4231 23.5045C27.4062 23.487 27.3932 23.466 27.385 23.4431C27.3768 23.4201 27.3736 23.3957 27.3755 23.3715L27.5506 20.0638C27.5541 20.003 27.5899 19.9459 27.6434 19.9173C27.697 19.8887 27.7649 19.8887 27.8184 19.9173L30.3758 21.3568C30.4294 21.3854 30.4651 21.4426 30.4651 21.5033C30.4664 21.5335 30.4598 21.5635 30.446 21.5904C30.4323 21.6174 30.4118 21.6403 30.3865 21.6569L27.6506 23.5251C27.6256 23.5465 27.5899 23.5572 27.5541 23.5572ZM27.8934 20.3674L27.7506 23.0285L29.9508 21.5247L27.8934 20.3674Z" fill="#727E99"/>
<path d="M35.905 28.0082L36.938 25.1802L38.6417 25.8028L37.6087 28.6304L35.905 28.0082Z" fill="white"/>
<path d="M37.6264 28.8047C37.6049 28.8047 37.5835 28.8011 37.5656 28.7939L35.8619 28.1724C35.818 28.1555 35.7823 28.1223 35.7623 28.0797C35.7424 28.0371 35.7397 27.9884 35.7548 27.9438L36.787 25.1148C36.8192 25.0219 36.9227 24.9754 37.0156 25.0076L38.7193 25.6291C38.7632 25.646 38.7989 25.6792 38.8189 25.7219C38.8389 25.7645 38.8416 25.8132 38.8265 25.8577L37.7942 28.6868C37.7692 28.7618 37.6978 28.8047 37.6264 28.8047ZM36.1512 27.8974L37.5192 28.3975L38.43 25.9042L37.062 25.4041L36.1512 27.8974Z" fill="#727E99"/>
<path d="M34.2404 43.8213C38.9746 43.8213 42.8125 39.9831 42.8125 35.2484C42.8125 30.5137 38.9746 26.6755 34.2404 26.6755C29.5061 26.6755 25.6682 30.5137 25.6682 35.2484C25.6682 39.9831 29.5061 43.8213 34.2404 43.8213Z" fill="#FCDCB5"/>
<path d="M39.923 37.3275C38.7764 40.4637 35.3011 42.0783 32.1652 40.9316C30.7317 40.4111 29.5495 39.3654 28.8578 38.0062C28.4764 37.2651 28.2529 36.453 28.2013 35.6211C28.1496 34.7893 28.271 33.9558 28.5577 33.1732C29.7043 30.0334 33.1795 28.4188 36.3191 29.5654C37.8371 30.1191 38.9943 31.2193 39.6622 32.5588C40.373 33.9948 40.5159 35.7058 39.923 37.3275Z" fill="white"/>
<path d="M42.291 38.192C40.6659 42.6356 35.744 44.9253 31.2973 43.3C29.2619 42.5581 27.5843 41.0706 26.604 39.1386L41.9124 31.423C42.9232 33.4626 43.1304 35.8916 42.291 38.192Z" fill="#F9D4A7"/>
<path d="M34.2294 43.9999C33.2329 43.9999 32.2221 43.8285 31.2363 43.4677C26.8431 41.8603 24.4929 37.1059 25.8858 32.6444C25.9144 32.5516 26.0144 32.498 26.1109 32.5266C26.2037 32.5551 26.2573 32.6552 26.2287 32.7516C24.8929 37.0309 27.1467 41.5924 31.3613 43.1319C33.4686 43.9035 35.7474 43.8035 37.7797 42.8605C38.7808 42.3976 39.6803 41.7411 40.4264 40.9288C41.1725 40.1164 41.7503 39.1644 42.1265 38.1275C42.8944 36.02 42.798 33.7411 41.855 31.7086C41.3922 30.7074 40.7358 29.8078 39.9235 29.0616C39.1112 28.3155 38.1592 27.7376 37.1225 27.3614C33.6043 26.0755 29.6183 27.2971 27.4324 30.3333C27.3753 30.4119 27.261 30.4298 27.1824 30.3726C27.1038 30.3155 27.0824 30.2047 27.1431 30.1226C29.4219 26.9578 33.5793 25.6825 37.2475 27.0221C39.4441 27.8258 41.1943 29.4332 42.1801 31.555C43.1659 33.6768 43.2659 36.0522 42.4622 38.2454C41.1621 41.796 37.8011 43.9999 34.2294 43.9999Z" fill="#727E99"/>
<path d="M39.9231 37.3276C38.7766 40.4638 35.3013 42.0784 32.1653 40.9318C30.7319 40.4112 29.5497 39.3655 28.8579 38.0063L39.6624 32.5625C40.3732 33.9949 40.516 35.7059 39.9231 37.3276Z" fill="#FADFCB"/>
<path d="M34.2439 41.4818C33.5224 41.4818 32.8009 41.3533 32.1008 41.0996C30.5364 40.5281 29.2899 39.3815 28.5898 37.8741C27.8898 36.3667 27.8183 34.6736 28.3898 33.1126C28.9613 31.5516 30.1078 30.305 31.6151 29.6013C32.3561 29.2548 33.1584 29.0587 33.9756 29.0244C34.7928 28.99 35.6088 29.1181 36.3762 29.4012C37.9406 29.9728 39.1871 31.1194 39.8872 32.6268C40.5873 34.1342 40.6587 35.8273 40.0872 37.3883C39.8086 38.1578 39.38 38.8644 38.8264 39.4672C38.2728 40.0699 37.6051 40.5568 36.8619 40.8996C36.0419 41.2816 35.1485 41.4803 34.2439 41.4818ZM34.2367 29.3727C33.3938 29.3727 32.5544 29.5584 31.7651 29.9228C30.3435 30.5836 29.2649 31.7588 28.7256 33.2305C28.1862 34.7021 28.2541 36.2988 28.9149 37.7205C29.5756 39.1422 30.7507 40.2209 32.2223 40.7603C33.6938 41.2997 35.2904 41.2318 36.7119 40.571C38.1335 39.9102 39.2121 38.735 39.7515 37.2633C40.2908 35.7916 40.2229 34.1949 39.5622 32.7732C38.9014 31.3516 37.7263 30.2728 36.2548 29.7334C35.5976 29.4941 34.9154 29.3727 34.2367 29.3727Z" fill="#727E99"/>
<path d="M36.0762 30.4015C36.0475 30.4014 36.0193 30.3944 35.9939 30.3812C35.9685 30.3679 35.9467 30.3488 35.9303 30.3253C35.9138 30.3019 35.9032 30.2748 35.8994 30.2464C35.8956 30.218 35.8986 30.1891 35.9083 30.1622L36.1476 29.5049C36.1659 29.4635 36.1993 29.4305 36.241 29.4127C36.2826 29.3949 36.3295 29.3936 36.3721 29.409C36.4147 29.4244 36.4499 29.4554 36.4706 29.4958C36.4912 29.5361 36.4958 29.5828 36.4833 29.6264L36.244 30.2836C36.219 30.3586 36.1476 30.4015 36.0762 30.4015ZM32.1651 41.1104C32.1365 41.1104 32.1083 41.1034 32.0829 41.0901C32.0575 41.0769 32.0357 41.0577 32.0192 41.0343C32.0028 41.0108 31.9922 40.9838 31.9884 40.9554C31.9845 40.927 31.9876 40.8981 31.9973 40.8711L32.2366 40.2139C32.2549 40.1724 32.2883 40.1395 32.3299 40.1217C32.3716 40.1039 32.4185 40.1025 32.4611 40.1179C32.5037 40.1334 32.5389 40.1644 32.5595 40.2047C32.5802 40.2451 32.5847 40.2917 32.5723 40.3353L32.333 40.9926C32.3044 41.064 32.2366 41.1104 32.1651 41.1104ZM29.2149 33.5913C29.1934 33.5913 29.172 33.5877 29.1542 33.5806L28.497 33.3413C28.4555 33.3229 28.4226 33.2896 28.4048 33.2479C28.387 33.2062 28.3856 33.1593 28.4011 33.1167C28.4165 33.0741 28.4475 33.0389 28.4878 33.0183C28.5282 32.9976 28.5748 32.9931 28.6184 33.0055L29.2756 33.2448C29.3147 33.2595 29.3474 33.2874 29.3681 33.3236C29.3888 33.3598 29.3962 33.4022 29.389 33.4433C29.3818 33.4844 29.3604 33.5217 29.3286 33.5487C29.2968 33.5757 29.2566 33.5908 29.2149 33.5913ZM39.9229 37.5027C39.9015 37.5027 39.8801 37.4991 39.8622 37.492L39.205 37.2526C39.1636 37.2343 39.1306 37.201 39.1128 37.1593C39.095 37.1176 39.0937 37.0707 39.1091 37.0281C39.1245 36.9855 39.1555 36.9503 39.1958 36.9297C39.2362 36.909 39.2829 36.9044 39.3264 36.9169L39.9836 37.1562C40.0227 37.1709 40.0554 37.1987 40.0761 37.235C40.0968 37.2712 40.1042 37.3135 40.097 37.3546C40.0898 37.3957 40.0685 37.433 40.0367 37.4601C40.0049 37.4871 39.9646 37.5022 39.9229 37.5027ZM31.9865 30.5765C31.9187 30.5765 31.8544 30.5372 31.8258 30.4729L31.5294 29.8371C31.5192 29.8161 31.5133 29.7932 31.5121 29.7698C31.511 29.7465 31.5145 29.7231 31.5225 29.7011C31.5305 29.6792 31.5428 29.659 31.5587 29.6419C31.5746 29.6247 31.5938 29.611 31.6151 29.6014C31.6361 29.5912 31.659 29.5853 31.6824 29.5841C31.7057 29.583 31.7291 29.5865 31.751 29.5945C31.773 29.6024 31.7932 29.6148 31.8103 29.6307C31.8274 29.6466 31.8412 29.6658 31.8508 29.6871L32.1473 30.3229C32.1901 30.4122 32.1508 30.5194 32.0615 30.5587C32.0365 30.5694 32.0115 30.5765 31.9865 30.5765ZM36.7905 40.914C36.7226 40.914 36.6584 40.8747 36.6298 40.8104L36.3333 40.1746C36.2905 40.0853 36.3298 39.9781 36.4191 39.9388C36.5083 39.8995 36.6155 39.9352 36.6548 40.0245L36.9512 40.6604C36.9941 40.7497 36.9548 40.8568 36.8655 40.8961C36.8405 40.9104 36.8155 40.914 36.7905 40.914ZM28.7541 37.9778C28.6863 37.9778 28.622 37.9385 28.5934 37.8742C28.5832 37.8531 28.5774 37.8302 28.5762 37.8069C28.575 37.7835 28.5785 37.7602 28.5865 37.7382C28.5945 37.7162 28.6068 37.6961 28.6227 37.6789C28.6386 37.6618 28.6578 37.648 28.6791 37.6384L29.3149 37.3419C29.4042 37.3027 29.5113 37.3384 29.5506 37.4277C29.5935 37.517 29.5542 37.6241 29.4649 37.6634L28.8291 37.9599C28.8041 37.9706 28.7791 37.9778 28.7541 37.9778ZM39.0907 33.1734C39.0228 33.1734 38.9585 33.1341 38.93 33.0698C38.9198 33.0487 38.9139 33.0259 38.9128 33.0025C38.9116 32.9792 38.9151 32.9558 38.9231 32.9338C38.9311 32.9118 38.9434 32.8917 38.9593 32.8746C38.9752 32.8574 38.9944 32.8436 39.0157 32.834L39.6515 32.5376C39.7408 32.4983 39.8479 32.534 39.8872 32.6233C39.9301 32.7126 39.8908 32.8198 39.8015 32.859L39.1657 33.1555C39.1407 33.1662 39.1157 33.1734 39.0907 33.1734Z" fill="#727E99"/>
<path d="M39.8267 25.9826V25.9862C39.7512 26.1911 39.5975 26.3578 39.3993 26.4495C39.2011 26.5413 38.9746 26.5506 38.7695 26.4756L36.4336 25.6219C36.3317 25.5856 36.238 25.5294 36.1579 25.4566C36.0779 25.3838 36.013 25.2959 35.9672 25.1979C35.9214 25.0999 35.8954 24.9938 35.8909 24.8857C35.8863 24.7775 35.9033 24.6696 35.9407 24.5681V24.5645C36.0164 24.3588 36.1706 24.1914 36.3694 24.0991C36.5682 24.0067 36.7955 23.9968 37.0015 24.0716L39.3374 24.9253C39.766 25.0825 39.9839 25.5576 39.8267 25.9826Z" fill="#FA9595"/>
<path d="M37.2404 25.9183L36.4332 25.6218C36.3315 25.5851 36.2381 25.5288 36.1583 25.4559C36.0784 25.3831 36.0138 25.2952 35.968 25.1973C35.9222 25.0994 35.8962 24.9934 35.8914 24.8854C35.8867 24.7775 35.9033 24.6696 35.9403 24.5681V24.5645C36.0974 24.1358 36.5689 23.9108 37.0011 24.068L37.8083 24.3645C37.3761 24.2073 36.9011 24.4287 36.7439 24.8574V24.861C36.5903 25.2896 36.8082 25.7611 37.2404 25.9183Z" fill="#FA8D8D"/>
<path d="M39.0551 26.708C38.9372 26.708 38.8194 26.6866 38.7086 26.6473L36.3727 25.7936C36.1227 25.7026 35.919 25.516 35.8065 25.2748C35.694 25.0337 35.6818 24.7578 35.7727 24.5076C35.8655 24.2505 36.0513 24.0504 36.2941 23.9397C36.537 23.8254 36.8085 23.8147 37.0621 23.9075L39.398 24.7613C39.9194 24.9506 40.1873 25.5292 39.998 26.0508V26.0543C39.9052 26.3079 39.723 26.508 39.4801 26.6187C39.3408 26.6759 39.198 26.708 39.0551 26.708ZM36.7156 24.2004C36.5831 24.2006 36.4537 24.2414 36.3451 24.3175C36.2366 24.3935 36.1539 24.501 36.1084 24.6255C35.987 24.9613 36.1584 25.3328 36.4942 25.4542L38.8301 26.3079C38.9944 26.3687 39.1694 26.3615 39.3265 26.2901C39.4837 26.2186 39.6016 26.0901 39.6587 25.9293V25.9257C39.7174 25.7647 39.7097 25.5869 39.6374 25.4315C39.5651 25.2761 39.434 25.1558 39.273 25.097L36.9371 24.2433C36.8656 24.2147 36.7906 24.2004 36.7156 24.2004ZM35.7512 38.6815C35.6834 38.6815 35.6191 38.6422 35.5905 38.5779L34.0797 35.3238C34.0596 35.2812 34.057 35.2325 34.0725 35.188L35.4548 31.4017C35.4731 31.3602 35.5065 31.3273 35.5482 31.3095C35.5898 31.2917 35.6367 31.2903 35.6793 31.3057C35.7219 31.3212 35.7571 31.3522 35.7778 31.3925C35.7984 31.4329 35.803 31.4795 35.7905 31.5231L34.4333 35.238L35.9155 38.4243C35.9584 38.5136 35.9191 38.6207 35.8298 38.66C35.8048 38.6779 35.7762 38.6815 35.7512 38.6815Z" fill="#727E99"/>
<path d="M34.2405 36.0488C34.6824 36.0488 35.0406 35.6905 35.0406 35.2486C35.0406 34.8067 34.6824 34.4485 34.2405 34.4485C33.7986 34.4485 33.4404 34.8067 33.4404 35.2486C33.4404 35.6905 33.7986 36.0488 34.2405 36.0488Z" fill="#727E99"/>
</svg>
