<svg width="153" height="70" fill="none" xmlns="http://www.w3.org/2000/svg"><path d="M1.582 3.31c.445 1.334 3.272 2.878 4.974 4.108C16.58 14.536 27.287 20.45 38.098 26.233c15.156 8.086 30.888 14.942 46.777 21.458 9.083 3.716 50.254 17.296 59.677 20.044 2.566.733 5.157 1.256 7.827 1.465.079-.68.314-1.413.131-1.544-.759-.523-1.597-1.047-2.487-1.282-12.355-3.193-56.274-17.819-68.001-22.896-3.377-1.465-6.859-2.643-10.235-4.134-7.172-3.167-14.37-6.28-21.438-9.709-6.387-3.088-12.67-6.437-18.9-9.892C21.633 14.248 11.844 8.623 2.891 1.74 1.216.457.823-.197.614.457c-.21.655.55 1.518.968 2.853Z" fill="#78BA7A"/></svg>