<svg width="122" height="22" viewBox="0 0 122 22" fill="none" xmlns="http://www.w3.org/2000/svg">
<path opacity="0.75" d="M121.896 15.9488C121.595 15.8863 121.474 15.7612 121.112 15.7612C120.69 15.6987 120.389 15.5736 120.208 15.3859C120.027 15.2608 119.725 15.1983 119.906 14.9481C120.148 14.6979 120.328 14.3227 120.087 14.3227C119.846 14.3227 119.303 14.1976 119.002 14.0725C118.7 14.01 118.459 13.8849 118.218 13.7598C117.916 13.6347 117.615 13.4471 117.736 13.1969C117.856 12.9467 117.494 12.7591 117.253 12.6965C117.012 12.634 114.057 12.0711 113.153 11.8834C112.248 11.6958 110.982 11.5082 109.776 11.0704C108.51 10.6326 107.364 10.1947 106.7 8.81876C106.037 7.44279 105.917 6.62971 105.615 6.1919C105.314 5.75409 105.012 4.75338 104.53 4.5032C104.047 4.19048 104.047 3.9403 103.685 4.00284C103.324 4.06539 103.022 4.25302 102.721 4.37811C102.359 4.5032 101.575 4.87847 101.273 5.00355C100.972 5.19119 100.912 5.37882 100.49 5.37882C100.067 5.37882 98.6805 6.25444 98.1981 6.56716C97.7157 6.87989 96.1479 7.94314 95.7257 8.13078C95.3639 8.31841 94.8212 8.88131 94.3991 9.0064C93.977 9.19403 93.6152 9.50675 93.0122 9.69439C92.4092 9.94456 90.5399 11.0704 89.6354 11.4456C88.7309 11.8209 86.7409 12.5089 85.957 12.3838C85.1731 12.2587 84.3892 10.6326 84.0877 9.81947C83.7862 9.0064 82.4596 5.94172 81.4948 5.44136C80.4697 4.87846 79.9269 5.00355 79.5048 5.12864C79.0827 5.25373 78.4194 5.69154 78.2385 5.75409C78.0576 5.81663 76.9722 6.31699 76.4898 6.50462C76.0074 6.69225 75.1632 6.94243 74.6205 7.19261C74.0778 7.44279 73.4748 7.63042 73.2939 7.63042C73.1733 7.63042 72.5703 7.25515 72.2688 7.44279C71.9069 7.63042 71.2436 7.8806 71.0024 8.00569C70.7612 8.19332 70.3391 8.31841 70.2788 8.4435C70.2788 8.56859 70.4597 8.63113 70.6406 8.56859C70.8215 8.50604 71.0024 8.38095 71.3039 8.25586C71.6054 8.19332 72.1481 8.00569 72.0275 8.06823C71.9069 8.13077 71.3039 8.56859 71.0024 8.69368C70.7009 8.81876 70.7612 8.94385 70.1582 9.06894C69.5552 9.25657 69.1934 9.13149 69.3743 9.0064C69.5552 8.88131 69.7964 8.69368 69.6155 8.63113C69.4346 8.56859 69.314 8.63113 69.0728 8.81876C68.8316 9.0064 68.6507 9.0064 68.108 9.13149C67.5653 9.25657 67.3844 9.38166 67.0829 9.63184C66.7814 9.88202 66.1784 9.88202 65.9975 9.94456C65.8769 10.0071 65.3945 10.1322 65.093 10.1322C64.7915 10.1322 64.6105 9.88202 64.0075 10.1322C63.3442 10.3824 61.897 10.8202 61.4146 10.8827C60.8719 10.9453 60.3292 10.6951 60.0277 10.3824C59.7262 10.1322 57.2539 5.12864 56.7715 4.56574C56.2287 4.00284 54.6006 2.06397 54.1785 1.93888C53.8167 1.81379 52.6107 1.75124 51.7665 2.06397C50.9223 2.37669 48.8118 3.06468 47.7263 3.75267C46.7615 4.62829 41.5154 8.13077 39.1636 9.50675C36.8119 10.8827 35.0632 11.8834 34.5808 12.0711C34.0381 12.2587 33.7969 12.2587 33.4954 12.3838C33.1939 12.5089 32.9527 12.3213 33.2542 12.1962C33.5557 12.0711 34.7014 11.4456 35.1838 11.258C35.6662 11.0078 36.5707 10.3824 37.0531 10.1947C37.5355 10.0071 37.2943 9.94456 36.7516 10.1947C36.2089 10.4449 35.4853 10.6326 34.9426 10.9453C34.3999 11.258 33.4351 11.5707 33.1336 11.8209C32.7718 12.0711 31.3848 12.5714 29.817 12.7591C28.2492 12.8842 26.4402 12.3838 26.1387 12.1962C25.8975 12.0085 25.2945 11.5082 25.2945 11.5082C25.2945 11.5082 24.9327 9.06894 24.5105 8.31841C24.0884 7.50533 21.0734 3.00213 20.4101 2.12651C19.6865 1.25089 18.4805 0 17.1539 0C15.8272 0 13.3549 1.43852 11.7871 2.43923C10.2193 3.50249 3.94799 9.19403 2.74197 10.3824C1.11385 12.0085 -0.212767 13.1343 0.0284362 14.3852C0.209338 15.6361 1.71686 18.7008 2.56107 19.764C3.40528 20.8273 3.70678 21.6404 5.0937 20.452C6.48062 19.2637 10.762 13.8223 13.9579 11.4456C17.1539 9.06894 20.4101 7.00498 21.1337 8.88131C21.9176 10.7576 24.6915 16.4492 26.1387 18.7008C27.5859 20.9524 32.7114 22.6411 37.7767 20.2018C42.842 17.7626 49.2942 13.1343 51.465 11.946C53.6961 10.7576 55.686 10.7576 56.0478 10.8827C56.47 11.0078 58.882 17.1997 59.3041 18.3255C59.7262 19.3888 63.0427 21.8905 66.9623 20.1393C69.314 19.1386 74.1381 16.6368 77.9973 15.3859C80.5902 14.5103 82.7611 14.3852 83.1229 15.0732C84.0274 16.8244 84.4495 20.5146 85.957 21.3902C87.4645 22.2658 88.6706 22.0782 89.9369 21.5778C91.2635 21.0775 91.8665 20.7647 92.4092 20.2018C92.8916 19.6389 94.58 18.3255 95.3639 18.1379C96.1479 17.9502 99.8865 15.5736 100.791 15.2608C101.696 14.9481 103.384 13.8849 103.384 13.8849C103.384 13.8849 104.047 13.5721 104.228 13.5096C104.349 13.4471 104.711 13.3845 104.831 13.4471C104.952 13.5096 104.952 13.7598 104.831 13.7598C104.711 13.7598 98.8011 17.0746 98.1378 17.4499C97.5348 17.8252 95.6051 18.951 95.183 19.1386C94.8212 19.2637 94.0373 19.764 93.6152 19.9517C93.1931 20.1393 93.2534 20.452 93.5549 20.3269C93.8564 20.2018 97.2936 18.5131 98.0775 18.0753C98.8614 17.6375 101.213 16.1365 101.816 15.7612C102.419 15.3859 102.781 15.2608 103.324 15.0732C103.866 14.8856 104.469 14.5103 104.53 14.5103C104.59 14.4478 105.012 14.1976 105.133 14.1976C105.193 14.1976 105.374 14.6354 105.374 14.7605C105.374 14.8856 107.062 18.1379 107.967 18.8884C108.932 19.639 109.896 20.0768 110.439 20.3895C111.042 20.7022 111.163 20.7647 111.645 20.7022C112.128 20.6397 112.248 20.5771 112.369 20.452C112.489 20.3269 112.429 20.2644 112.731 20.3895C113.032 20.5146 113.816 20.8273 114.841 20.9524C115.866 21.0775 116.53 21.0775 116.952 21.0775C117.374 21.0149 117.796 21.0149 117.615 21.0149C117.434 20.9524 116.409 21.0149 115.625 20.7647C114.841 20.5146 114.359 20.6397 113.756 20.3895C113.153 20.1393 113.273 19.9517 113.756 19.8891C114.298 19.8891 115.746 20.2644 116.469 20.3895C117.253 20.5146 118.218 20.452 118.821 20.5146C119.364 20.5771 119.846 20.5771 119.906 20.5146C120.027 20.3895 120.027 20.3269 120.268 20.3269C120.57 20.3269 120.751 20.2644 121.052 20.2644C121.354 20.2018 121.655 20.0768 121.112 20.0142C120.509 19.9517 119.725 19.764 119.424 19.7015C119.122 19.6389 118.7 19.5139 118.399 19.3888C118.097 19.2637 117.856 19.1386 117.796 19.076C117.675 19.0135 118.037 18.7633 118.519 18.7633C119.002 18.7633 119.665 18.8884 120.087 18.8884C120.509 18.8884 121.655 19.076 121.595 18.8884C121.534 18.7008 121.173 18.7008 120.871 18.5757C120.63 18.5131 120.449 18.3881 120.208 18.3255C119.967 18.263 119.665 18.0128 119.786 17.9503C119.906 17.8877 120.208 17.8252 120.087 17.7001C120.027 17.575 119.725 17.1372 120.027 17.0121C120.328 16.887 120.509 16.6368 120.751 16.6368C120.992 16.6368 121.293 16.4492 121.474 16.4492C121.776 16.199 122.198 16.0739 121.896 15.9488ZM14.7418 1.50107C14.5609 1.75124 14.1388 2.18905 13.6564 2.50178C13.174 2.8145 10.5208 4.94101 9.91776 5.19119C9.25445 5.50391 7.68663 7.13006 7.32483 7.50533C6.90272 7.81805 5.93791 8.63113 5.3349 9.19403C4.67159 9.75693 3.88769 10.2573 3.88769 10.2573C4.00829 10.1947 6.60122 7.19261 9.31475 5.12864C11.968 3.06468 12.7519 2.56432 13.3549 2.12651C14.0182 1.75124 14.0785 1.6887 14.4403 1.50107C14.7418 1.31343 14.9227 1.25089 14.7418 1.50107ZM45.7364 14.1976C45.6158 14.3227 45.3143 14.4478 45.0731 14.5729C44.8922 14.6979 44.651 14.6979 44.4701 14.8856C44.3495 15.0732 44.1083 15.0732 44.1083 14.9481C44.1083 14.823 44.1083 14.5103 44.3495 14.4478C44.651 14.3852 44.9525 14.2601 45.0731 14.1976C45.1937 14.135 45.3746 13.9474 45.4952 13.9474C45.6761 13.8849 45.9173 14.01 45.7364 14.1976ZM48.45 12.4463C48.2087 12.5714 47.7263 13.0092 47.5454 13.0718C47.3645 13.1343 47.1836 13.2594 47.0027 13.5096C46.8218 13.7598 46.6409 13.7598 46.5203 13.8223C46.3394 13.8849 46.2791 13.5721 46.46 13.4471C46.6409 13.3845 46.9424 12.9467 47.1233 12.8216C47.3042 12.6965 47.4248 12.634 47.7866 12.4463C48.2087 12.1962 48.269 12.0711 48.5103 12.1336C48.7515 12.2587 48.6912 12.2587 48.45 12.4463ZM51.1635 3.62758C50.3796 3.87775 49.7163 4.19048 47.4851 5.44136C45.1937 6.69225 42.0581 8.94385 41.5154 9.19403C41.033 9.38166 41.033 8.94385 41.2742 8.81876C41.5154 8.69368 41.5154 8.63113 42.3596 8.06823C43.1435 7.50533 45.0731 6.37953 46.3394 5.50391C47.6057 4.62829 49.8369 3.75267 50.5002 3.56503C51.1635 3.3774 52.0077 3.43994 52.0077 3.43994C52.0077 3.43994 51.9474 3.3774 51.1635 3.62758ZM72.0275 9.19403C72.5703 8.94385 73.6557 8.50604 74.1381 8.38095C74.6205 8.25586 73.7763 8.69368 73.5351 8.81876C73.2336 8.94385 73.0527 9.13149 72.8718 9.31912C72.6909 9.50675 72.0275 9.63184 71.7863 9.63184C71.4848 9.69439 71.6657 9.44421 72.0275 9.19403ZM70.1582 17.1372C70.3994 17.0746 71.0024 16.8244 71.123 16.7619C71.3039 16.6994 72.329 16.3866 72.6306 16.2616C72.9924 16.1365 73.1733 15.8863 73.4748 15.7612C73.7763 15.6361 73.8969 15.6361 74.4396 15.3859C74.922 15.1358 75.2235 15.0107 75.4647 14.9481C75.6456 14.8856 76.6707 14.3227 76.9119 14.3227C77.1531 14.3227 77.6958 14.1976 77.8164 14.135C77.937 14.0725 78.1782 14.0725 78.1179 14.135C78.0576 14.2601 77.8164 14.5729 77.6355 14.6354C77.4546 14.6979 76.6707 14.9481 76.4295 15.0732C76.128 15.1358 75.4647 15.3234 74.9823 15.511C74.4999 15.6986 73.7763 16.1365 73.3542 16.3241C72.9321 16.4492 72.4497 16.5743 72.0275 16.8244C71.6054 17.0121 71.6054 17.0121 71.0627 17.2623C70.52 17.5124 70.2185 17.7001 70.2185 17.7001C69.9773 17.8252 69.7361 17.8252 69.7361 17.6375C69.6155 17.4499 69.917 17.1372 70.1582 17.1372ZM73.5954 16.887C71.3039 18.0128 70.0979 18.5131 69.1331 18.8884C68.1683 19.2637 67.8065 19.2011 67.8065 19.2011C67.8065 19.2011 69.0125 18.6382 69.5552 18.4506C70.0979 18.263 73.5954 16.5743 75.2838 15.8863C76.6707 15.2608 76.5501 15.3859 77.4546 15.0732C78.1782 14.823 78.2988 15.0732 78.2988 15.0732C78.2988 15.0732 75.8868 15.7612 73.5954 16.887ZM103.022 4.87847C102.962 5.19119 103.022 5.19119 102.66 5.50391C102.238 5.75409 101.816 6.25444 102.057 6.12935C102.299 6.00426 102.238 6.37953 101.937 6.62971C101.635 6.87989 101.394 6.87989 100.851 7.13006C100.309 7.38024 100.067 7.63042 99.3438 7.75551C98.6805 7.8806 97.9569 8.38095 97.173 8.81876C96.3891 9.31912 95.0624 10.0697 94.2785 10.5075C93.4946 10.9453 93.0725 10.6951 92.771 11.0078C92.4695 11.3205 92.3489 11.1955 91.9268 11.258C91.5047 11.3205 91.6253 11.0078 91.6253 11.0078C91.8665 10.8202 92.2886 10.57 92.5901 10.4449C92.8313 10.2573 93.7961 9.94456 94.1579 9.81947C94.5197 9.63184 95.1227 9.19403 95.3639 9.06894C95.6051 8.94385 96.4493 8.25586 96.6906 8.06823C96.9318 7.8806 98.1981 7.13006 98.6202 6.94243C99.0423 6.7548 99.6453 6.44208 99.9468 6.37953C100.248 6.31699 100.791 6.00426 101.093 5.87918C101.394 5.75409 101.876 5.37882 102.057 5.25373C102.238 5.12864 102.419 5.00355 102.66 4.87847C102.962 4.69083 103.143 4.5032 103.022 4.87847Z" fill="#FDD771"/>
</svg>
