<svg width="254" height="158" viewBox="0 0 254 158" fill="none" xmlns="http://www.w3.org/2000/svg">
<path opacity="0.75" d="M153.469 3.78337C155.05 4.41045 156.764 5.66462 156.105 5.82139C155.446 6.13493 156.105 7.3891 156.5 8.64326C156.896 9.89743 155.578 9.11357 155.578 10.211C155.578 11.3084 155.973 12.0922 155.314 12.5625C154.655 13.0328 155.05 13.6599 155.05 14.6005C155.05 15.6979 153.732 14.7573 153.073 16.1683C152.678 16.7953 153.073 17.4224 153.6 18.363C153.996 19.3037 153.732 20.0875 152.546 19.9307C151.36 19.774 149.91 20.4011 147.932 20.4011C145.955 20.4011 132.247 19.774 128.688 20.0875C125.129 20.4011 118.67 21.812 117.088 22.1255C115.375 22.5958 97.9755 27.299 87.1669 31.6885C76.3583 36.0781 59.3545 45.4844 52.3684 50.9713C45.3823 56.4583 29.9603 70.2541 23.6333 78.4062C17.3063 86.715 11.7701 92.9859 8.87027 101.138C5.97039 109.447 2.41145 123.399 2.80689 128.102C2.80689 128.102 1.8842 127.319 1.22514 123.086C0.566078 118.853 0.0388279 105.528 1.22514 97.5322C2.27964 90.164 7.94758 74.1734 17.1745 63.3562C26.4013 52.539 34.9691 42.1922 47.2277 33.413C59.4863 24.6339 66.4723 19.4604 80.8399 13.6599C95.2075 7.70264 97.3165 7.3891 98.371 6.76201C99.4255 6.13493 99.9527 5.97816 101.007 5.97816C102.062 5.97816 102.721 5.19431 103.643 4.88077C104.566 4.724 115.77 1.27504 127.633 0.80473C139.628 0.334418 149.514 2.21567 153.469 3.78337Z" fill="#FFCA42"/>
<path opacity="0.75" d="M219.242 65.3966C219.242 65.3966 208.829 75.5867 202.502 80.4466C196.307 85.3065 176.008 103.022 153.468 108.352C130.928 113.682 113.133 116.19 84.3982 114.309C55.663 112.428 42.6136 103.962 38.0001 97.6914C33.3867 91.4205 28.7733 76.9976 28.246 70.2565C28.246 70.2565 26.6643 87.1877 26.5325 92.3612C26.4006 97.6914 26.6643 113.055 37.6047 122.618C48.4133 132.181 68.9761 136.727 86.2436 137.825C103.511 138.922 130.796 137.198 144.768 132.494C158.74 127.791 181.017 118.072 186.553 114.623C192.089 111.017 194.462 108.979 193.803 109.136C193.144 109.292 188.398 112.741 187.344 113.368C186.289 113.995 179.04 118.072 176.403 119.326C174.163 120.423 171.526 121.05 170.999 121.207C171.79 121.05 176.931 118.699 178.776 117.758C180.621 116.661 183.258 114.936 183.785 114.623C184.312 114.309 184.444 113.682 185.103 113.525C185.762 113.368 186.026 113.368 186.421 113.055C186.817 112.585 188.266 112.271 188.926 111.801C189.585 111.33 189.848 110.86 190.112 110.547C190.375 110.233 191.035 109.919 191.298 109.449C191.694 108.979 191.825 108.822 192.484 108.665C193.144 108.665 193.934 108.352 194.198 107.881C194.462 107.411 194.989 107.098 195.253 107.098C195.516 107.098 196.571 107.098 196.966 106.627C197.23 106.314 203.689 101.454 205.798 99.4158C208.038 97.3778 209.356 95.8101 209.752 95.3398C210.147 94.8695 210.279 94.2424 210.543 94.2424C210.938 94.0856 211.202 93.7721 211.202 93.6153C211.202 93.3018 211.466 92.8315 211.861 92.6747C212.256 92.5179 212.915 91.5773 214.102 89.3825C215.42 87.1877 215.683 86.8742 217.002 81.544C218.32 76.3705 220.033 67.7482 219.242 65.3966ZM195.253 91.4205C194.725 91.8908 194.198 92.2044 193.671 92.6747C189.98 95.4966 180.753 102.238 173.899 105.373C164.936 109.449 151.886 114.779 147.8 115.877C143.714 116.974 143.187 116.974 142.396 116.661C141.605 116.347 141.868 116.661 140.023 116.817C138.178 116.974 136.201 117.915 135.41 118.072C134.619 118.228 126.578 119.482 117.747 119.953C108.783 120.423 94.8114 119.482 94.8114 119.482C94.8114 119.482 117.22 119.796 127.237 118.228C137.387 116.661 141.078 115.72 142.791 115.25C144.505 114.779 156.5 112.585 168.495 106.471C179.435 100.984 188.003 96.7507 193.539 92.6747C194.725 91.7341 195.384 91.2638 195.253 91.4205Z" fill="#FFCA42"/>
<path opacity="0.75" d="M253.121 60.6913C252.594 57.8694 252.199 53.4798 250.485 49.7174C248.772 45.9549 242.049 36.7054 237.304 33.0997C232.559 29.4939 221.618 23.5367 212.655 19.7742C203.56 16.1684 197.892 15.3846 194.86 14.7575C191.829 14.1304 188.138 13.3466 186.292 12.8763C184.447 12.5627 173.638 11.4653 169.816 10.995C166.125 10.5247 160.062 9.89762 156.898 10.0544C153.867 10.2112 142.531 9.89762 140.685 9.74085C138.84 9.58408 133.963 9.27054 131.327 9.42731C128.69 9.58408 123.813 10.3679 121.177 10.6815C118.541 10.995 104.569 12.406 100.746 13.8169C97.0553 15.2278 95.3418 15.3846 93.2328 15.5414C91.2556 15.6981 89.2784 17.1091 88.7511 17.1091C88.2239 17.1091 78.4698 19.9309 75.5699 20.8716C72.67 21.8122 62.7841 27.1424 56.9843 30.9049C51.1845 34.5106 45.3848 39.2137 41.8259 42.8194C38.2669 46.4252 35.6307 48.7767 32.2035 56.4585C28.9082 63.9835 27.9855 69.4705 27.4583 75.7413C26.931 82.0121 26.0084 88.91 26.272 94.7105C26.5356 100.511 27.4583 104.901 27.9855 105.998C27.9855 105.998 30.8854 78.4064 48.8119 62.259C66.6066 46.1116 97.0553 36.2351 136.731 32.4726C176.406 28.7101 217.4 42.6627 226.232 48.7767C226.232 48.7767 227.023 48.4632 224.123 46.7387C221.091 45.0142 217.137 43.4465 217.137 43.4465C217.137 43.4465 220.036 43.6033 226.232 47.209C232.427 50.8148 236.118 54.2637 238.886 57.0856C241.522 59.7507 244.554 63.6699 245.74 68.2163C246.926 72.6059 247.849 79.1902 247.849 84.2069C247.849 89.2235 247.058 92.5157 247.453 91.7319C247.849 90.948 250.749 83.2663 252.067 75.7413C253.253 68.2163 253.649 63.5132 253.121 60.6913ZM209.096 24.4773C204.746 22.4393 201.319 21.969 199.869 21.6554C198.419 21.3419 197.76 21.0283 196.31 20.8716C194.86 20.7148 196.574 20.2445 194.992 19.9309C193.41 19.6174 191.301 19.6174 188.797 19.3039C186.292 18.9903 184.183 17.8929 181.152 17.8929C178.252 17.8929 172.979 16.6388 169.42 16.482C165.861 16.3252 162.171 16.1684 159.271 16.0117C156.371 15.8549 154.13 15.2278 151.362 15.2278C148.726 15.2278 145.167 14.9143 147.803 14.444C149.121 14.1304 154.13 13.9737 156.635 13.9737C159.007 13.9737 164.412 14.444 166.389 14.6007C168.366 14.7575 192.092 17.4226 195.783 18.6768C199.474 19.9309 212.128 23.8502 217.268 26.045C222.277 28.2398 225.704 30.9049 225.704 30.9049C225.704 30.9049 213.446 26.5153 209.096 24.4773Z" fill="#FFCA42"/>
<path opacity="0.75" d="M252.726 59.1227C252.463 58.1821 245.609 75.2701 242.05 80.2867C238.491 85.3034 223.859 98.4721 215.951 103.332C208.042 108.192 183.525 119.009 181.284 119.95C179.175 120.89 177.725 120.42 176.275 121.047C174.825 121.674 176.407 120.106 174.562 120.734C172.716 121.361 158.48 125.75 155.581 126.534C152.681 127.318 142.004 129.983 138.049 130.767C134.095 131.551 104.833 135.784 93.8923 135.94C82.82 136.097 63.4436 135.156 56.0621 134.216C48.6806 133.275 38.9264 131.08 31.6767 129.356C24.4271 127.631 18.4955 122.928 14.8047 119.95C11.114 117.128 9.26861 113.209 7.68686 109.446C6.23692 105.84 3.33704 95.3367 3.33704 89.2226C3.33704 89.2226 0.832605 94.5529 0.437168 103.802C0.0417299 113.052 0.832605 129.513 6.36873 136.254C11.9049 142.995 24.1634 151.774 41.4309 154.439C58.5665 157.104 77.8111 157.731 80.9746 157.731C84.1381 157.731 93.8923 157.575 95.8695 157.575C97.8466 157.575 99.1648 157.418 100.747 157.261C102.328 157.104 102.196 156.164 101.406 156.164C100.615 156.164 100.878 156.32 99.692 156.477C98.5057 156.634 97.9785 156.948 97.3194 156.634C96.6603 156.32 96.2649 156.32 95.474 156.477C94.6832 156.634 94.2877 156.477 93.2332 156.477C92.1787 156.477 92.4423 156.477 91.256 156.634C90.0697 156.791 89.6743 155.85 89.6743 155.85C89.6743 155.85 90.597 155.537 91.6515 155.537C92.706 155.537 97.9785 155.537 99.033 155.38C99.9556 155.223 101.274 155.223 102.196 155.38C103.119 155.537 104.174 155.38 104.965 155.38C105.755 155.38 105.624 154.282 106.414 154.282C107.205 154.282 106.81 154.596 107.864 154.596C108.919 154.596 110.237 154.126 111.16 154.126C112.082 154.126 113.401 152.558 114.719 152.558C116.037 152.558 116.828 152.088 117.091 152.872C117.355 153.655 117.75 153.499 117.75 153.028C117.75 152.558 117.75 151.461 118.673 151.304C119.596 151.147 120.65 151.147 121.837 150.833C123.023 150.52 125.791 149.893 126.714 149.893C127.636 149.893 128.427 150.363 128.427 150.363C128.427 150.363 125.264 150.677 123.946 150.99C122.627 151.304 120.65 151.931 121.705 151.931C122.759 151.931 124.077 151.931 124.868 151.931C125.659 151.931 125.923 152.244 126.977 151.931C128.032 151.617 128.427 151.147 129.745 150.99C131.063 150.833 131.327 150.363 132.645 150.363C133.963 150.363 134.491 150.363 135.018 150.363C135.545 150.363 136.995 150.206 137.918 150.05C138.84 149.893 138.972 149.109 139.895 148.952C140.818 148.795 143.586 148.482 144.508 148.325C145.431 148.168 146.881 147.698 147.804 147.385C148.726 147.071 150.308 146.601 151.363 146.444C152.417 146.287 152.022 146.757 153.472 146.757C154.921 146.757 155.317 147.385 157.558 146.287C159.799 145.19 159.403 145.033 160.589 144.406C161.776 143.779 164.148 143.152 165.73 142.838C167.312 142.525 167.971 142.054 168.762 142.054C169.553 142.054 170.08 142.054 169.948 141.427C169.816 140.8 170.607 140.173 171.003 140.8C171.398 141.427 172.321 141.27 172.321 141.27C173.771 140.643 175.352 139.703 176.143 139.703C176.934 139.703 177.461 139.389 179.043 138.762C180.625 138.135 180.625 138.135 181.548 137.978C182.47 137.822 182.339 136.097 183.525 135.784C184.711 135.47 186.952 135 188.27 134.373C189.588 133.746 190.511 133.902 191.829 133.275C193.147 132.648 193.015 133.432 189.588 134.529C186.161 135.627 186.029 136.254 187.216 136.097C188.402 135.94 189.984 134.843 191.829 134.373C193.674 133.902 194.202 133.589 194.729 133.118C195.256 132.648 194.729 132.021 195.915 131.551C197.102 131.08 199.211 129.983 200.397 129.513C201.583 129.042 203.692 128.729 204.747 128.102C205.801 127.475 207.251 127.161 208.174 126.534C209.096 125.907 210.415 125.123 209.887 125.123C209.36 125.123 207.647 126.064 206.197 126.691C204.747 127.318 203.692 127.161 203.692 127.161C203.692 127.161 205.274 126.221 206.724 125.75C208.174 125.28 208.569 124.653 209.756 124.182C210.942 123.712 211.733 122.928 211.337 122.928C210.942 122.928 208.965 123.242 210.019 122.615C211.074 121.988 212.392 121.517 213.974 120.734C215.555 119.95 217.401 117.912 217.401 117.912C217.401 117.912 217.664 118.696 216.742 119.636C215.819 120.577 215.16 121.204 216.478 120.734C217.796 120.263 217.137 120.734 218.587 119.793C220.037 118.852 222.278 117.598 224.255 116.344C226.232 115.09 226.628 115.09 227.418 114.306C228.209 113.522 228.473 113.836 228.209 113.522C227.946 113.209 227.418 112.895 227.418 112.895C228.868 112.111 229.264 111.171 230.318 110.7C231.373 110.23 232.955 107.722 234.009 106.938C235.064 106.154 236.909 105.056 237.568 104.273C238.227 103.489 238.886 102.862 239.941 101.764C240.995 100.667 242.84 97.6883 243.5 96.7476C244.159 95.807 244.949 94.3961 245.345 93.2987C245.74 92.2013 247.454 89.2226 248.772 84.6763C251.408 79.9732 254.704 64.4529 252.726 59.1227ZM207.251 114.149C201.451 117.285 193.411 121.361 191.565 122.144C189.852 122.928 182.866 124.653 179.702 126.221C176.539 127.631 167.575 129.826 164.412 130.924C161.248 132.021 142.267 136.881 136.204 137.665C130.141 138.449 113.005 140.8 109.71 140.8C106.546 140.8 104.174 140.643 102.987 140.8C101.801 140.957 99.9557 141.427 98.2421 141.427C96.5285 141.427 95.8695 141.898 94.5513 141.898C93.1014 141.898 92.0469 141.898 90.597 141.898C89.147 141.898 50.1305 140.643 43.6717 137.508C42.6172 137.038 66.8707 139.86 68.8479 140.016C70.8251 140.173 86.7744 141.114 91.9151 140.173C97.0558 139.389 111.687 139.546 115.114 139.076C118.673 138.605 142.399 134.373 144.904 134.216C147.408 134.059 158.876 129.983 162.698 128.886C166.389 127.788 181.284 124.182 185.897 122.928C190.511 121.674 197.233 117.598 201.583 115.717C205.801 113.836 220.696 104.9 223.596 102.862C223.859 102.862 213.183 110.857 207.251 114.149Z" fill="#FFCA42"/>
</svg>
