<svg width="193" height="60" viewBox="0 0 193 60" fill="none" xmlns="http://www.w3.org/2000/svg">
<g clip-path="url(#clip0_61_1562)">
<path d="M25.79 59.9998C30.3786 59.9998 34.0985 59.2257 34.0985 58.2707C34.0985 57.3158 30.3786 56.5416 25.79 56.5416C21.2013 56.5416 17.4814 57.3158 17.4814 58.2707C17.4814 59.2257 21.2013 59.9998 25.79 59.9998Z" fill="#CCCCCC"/>
<path d="M25.7916 13.8329C15.9252 13.8329 7.96289 21.9597 7.96289 31.8156C7.96289 46.6859 23.7145 55.8502 24.4068 56.5418C25.0992 57.2335 26.3109 57.2335 27.0033 56.5418C27.6956 56.0231 43.4472 46.6859 43.4472 31.8156C43.4472 21.9597 35.4849 13.8329 25.7916 13.8329ZM25.7916 41.8444C20.4257 41.8444 15.9252 37.3487 15.9252 31.8156C15.9252 26.2825 20.4257 21.7868 25.7916 21.7868C31.1575 21.7868 35.658 26.2825 35.658 31.8156C35.658 37.3487 31.1575 41.8444 25.7916 41.8444Z" fill="#2FBDDC"/>
<path fill-rule="evenodd" clip-rule="evenodd" d="M4.32836 13.487C4.67455 13.487 4.84764 13.8329 4.84764 14.1787C4.84764 14.6974 4.50146 15.0432 4.15527 15.0432C3.80908 15.0432 3.46289 14.6974 3.46289 14.1787C3.46289 13.8329 3.63598 13.487 3.98217 13.487V12.1038H4.50146L4.32836 13.487Z" fill="#333333"/>
<path fill-rule="evenodd" clip-rule="evenodd" d="M6.57784 33.8905L4.15452 16.0807L1.9043 33.8905H6.57784Z" fill="#2FBDDC"/>
<path fill-rule="evenodd" clip-rule="evenodd" d="M3.46118 14.6974C3.63427 14.8704 3.80737 15.0433 3.98046 15.0433C4.15356 15.0433 4.32665 14.8704 4.49975 14.6974V16.4266C4.15356 16.4266 3.80737 16.4266 3.28809 16.4266V14.6974H3.46118Z" fill="#2FBDDC"/>
<path d="M74.4313 58.617C71.4887 58.617 69.0654 57.9253 67.5075 56.5421C65.9497 55.1588 65.0842 53.2568 64.9111 50.6631H69.7578C69.7578 51.3547 69.9309 52.0464 70.104 52.5651C70.4501 53.0838 70.6232 53.6026 71.1425 53.9484C71.4887 54.2942 72.008 54.4671 72.7004 54.64C73.2197 54.813 73.912 54.813 74.6044 54.813C75.8161 54.813 76.6815 54.4671 77.3739 53.7755C78.0663 53.0838 78.4125 52.2193 78.4125 51.1818C78.4125 50.4902 78.2394 50.1444 78.0663 49.6256C77.8932 49.2798 77.547 48.934 77.2008 48.5882C76.6815 48.5882 76.1623 48.4153 75.643 48.4153C75.1237 48.4153 74.6044 48.2423 74.0851 48.2423H72.3542V44.957C72.5273 44.957 72.7004 44.957 73.0466 44.957C73.3927 44.957 73.5658 44.957 73.7389 44.957C76.3353 44.957 77.7201 43.9196 77.7201 42.0176C77.7201 41.153 77.3739 40.4614 76.8546 39.9426C76.3354 39.4239 75.4699 39.251 74.4313 39.251C73.2197 39.251 72.3542 39.5968 71.4887 40.1155C70.7963 40.6343 70.4501 41.4988 70.277 42.5363H65.7766C65.7766 41.3259 66.1228 40.2885 66.469 39.4239C66.9883 38.5593 67.5075 37.8677 68.373 37.1761C69.2385 36.6573 70.104 36.1386 71.1425 35.9657C72.1811 35.6199 73.2197 35.6199 74.4313 35.6199C75.4699 35.6199 76.5084 35.7928 77.547 36.1386C78.5856 36.4844 79.278 36.8302 79.9703 37.349C80.6627 37.8677 81.182 38.5593 81.5282 39.251C81.8744 39.9426 82.2205 40.8072 82.2205 41.6717C82.2205 42.7092 81.8744 43.7467 81.3551 44.6112C80.6627 45.4758 79.9703 45.9945 78.9318 46.1674C79.451 46.3403 79.9703 46.5132 80.4896 46.6861C81.0089 47.032 81.5282 47.3778 81.8744 47.7236C82.2205 48.0694 82.5667 48.5882 82.7398 49.2798C82.9129 49.7985 83.086 50.4902 83.086 51.1818C83.086 52.2193 82.9129 53.2568 82.3936 54.1213C82.0475 54.9859 81.3551 55.8504 80.6627 56.3691C79.9703 57.0608 78.9318 57.5795 77.8932 57.9253C76.8546 58.4441 75.8161 58.617 74.4313 58.617ZM86.0286 36.1386H90.8753V44.6112H99.7031V36.1386H104.55V58.0982H99.7031V48.5882H90.8753V58.0982H86.0286V36.1386ZM114.589 36.1386H119.436L127.571 58.0982H122.551L120.821 53.2568H112.685L110.954 58.0982H106.108C106.281 58.0982 114.589 36.1386 114.589 36.1386ZM119.782 49.6256L117.012 41.4988L114.07 49.6256H119.782ZM129.302 36.1386H134.149V44.6112H142.977V36.1386H147.823V58.0982H142.977V48.5882H134.149V58.0982H129.302V36.1386ZM151.804 36.1386H156.651V51.3547H156.824L165.133 36.1386H170.499V58.0982H165.652V42.8821H165.479L157.17 58.0982H151.804V36.1386ZM174.48 36.1386H179.326V51.3547H179.499L187.808 36.1386H193.174V58.0982H188.327V42.8821H188.154L179.846 58.0982H174.48V36.1386ZM184 34.2366C180.019 34.2366 178.115 32.6804 178.115 29.568H181.75C181.75 30.2596 181.923 30.7784 182.269 31.1242C182.615 31.47 183.308 31.8158 184 31.8158C184.865 31.8158 185.558 31.6429 185.904 31.2971C186.25 30.9513 186.423 30.4325 186.423 29.7409H190.058C189.885 32.6804 187.981 34.2366 184 34.2366Z" fill="black"/>
<path d="M69.4116 12.9685H64.9111V11.5853H75.643V13.1415H71.1425V25.0723H69.4116C69.4116 24.8994 69.4116 12.9685 69.4116 12.9685ZM82.7398 25.2452C81.7013 25.2452 80.6627 25.0723 79.9703 24.7265C79.1049 24.3807 78.4125 23.8619 77.8932 23.1703C77.3739 22.4786 77.0277 21.787 76.6815 20.9224C76.3353 20.0579 76.3353 19.1933 76.3353 18.3288C76.3353 17.4642 76.5084 16.5997 76.6815 15.7351C77.0277 14.8706 77.3739 14.1789 77.8932 13.4873C78.4125 12.7956 79.1049 12.2769 79.9703 11.9311C80.8358 11.5853 81.7013 11.4124 82.7398 11.4124C83.7784 11.4124 84.817 11.5853 85.5093 11.9311C86.3748 12.2769 87.0672 12.7956 87.5865 13.4873C88.1057 14.1789 88.4519 14.8706 88.7981 15.7351C89.1443 16.5997 89.1443 17.4642 89.1443 18.3288C89.1443 19.1933 88.9712 20.0579 88.7981 20.9224C88.4519 21.787 88.1057 22.4786 87.5865 23.1703C87.0672 23.8619 86.3748 24.3807 85.5093 24.7265C84.6439 25.0723 83.7784 25.2452 82.7398 25.2452ZM82.7398 23.689C83.6053 23.689 84.2977 23.5161 84.817 23.1703C85.3362 22.8245 85.8555 22.4786 86.2017 21.9599C86.5479 21.4412 86.8941 20.9224 87.0672 20.2308C87.2403 19.5392 87.4134 18.8475 87.4134 18.1559C87.4134 17.4642 87.2403 16.7726 87.0672 16.0809C86.8941 15.3893 86.5479 14.8706 86.2017 14.3518C85.8555 13.8331 85.3362 13.4873 84.817 13.1415C84.2977 12.7956 83.6053 12.6227 82.7398 12.6227C81.8744 12.6227 81.182 12.7956 80.6627 13.1415C80.1434 13.4873 79.6241 13.8331 79.2779 14.3518C78.9318 14.8706 78.5856 15.3893 78.4125 16.0809C78.2394 16.7726 78.0663 17.4642 78.0663 18.1559C78.0663 18.8475 78.2394 19.5392 78.4125 20.2308C78.5856 20.9224 78.9318 21.4412 79.2779 21.9599C79.6241 22.4786 80.1434 22.8245 80.6627 23.1703C81.182 23.689 81.8744 23.689 82.7398 23.689ZM98.8376 19.1933C98.6645 19.1933 98.4914 19.3662 98.1452 19.3662C97.799 19.3662 97.6259 19.5392 97.2797 19.5392C96.9336 19.5392 96.5874 19.7121 96.2412 19.7121C95.895 19.7121 95.5488 19.7121 95.2026 19.7121C94.164 19.7121 93.2986 19.5392 92.7793 19.3662C92.0869 19.1933 91.7407 18.8475 91.3945 18.3288C91.0484 17.983 90.8753 17.4642 90.7022 16.9455C90.5291 16.4268 90.5291 15.908 90.5291 15.3893V11.5853H92.26V15.5622C92.26 15.908 92.26 16.2539 92.26 16.5997C92.26 16.9455 92.4331 17.2913 92.6062 17.4642C92.7793 17.81 93.1255 17.983 93.4717 18.1559C93.8179 18.3288 94.3371 18.5017 95.0295 18.5017C95.895 18.5017 96.5874 18.5017 97.1066 18.3288C97.6259 18.1559 98.1452 17.983 98.4914 17.81V11.5853H100.222V25.0723H98.4914L98.8376 19.1933ZM103.338 11.5853H105.069V18.1559L111.82 11.5853H114.243L107.838 17.6371L114.416 25.0723H112.166L106.454 18.6746L105.069 19.885V24.8994H103.338V11.5853ZM119.263 11.5853H121.167L126.36 25.0723H124.456L123.071 21.0954H117.359L115.974 24.8994H114.07L119.263 11.5853ZM122.551 19.3662L120.301 13.1415L118.051 19.3662H122.551Z" fill="black"/>
<path fill-rule="evenodd" clip-rule="evenodd" d="M25.4434 7.78076H25.6165H25.7895H25.9626H26.1357V15.7347H25.9626H25.7895H25.6165H25.4434V7.78076Z" fill="#999999"/>
<path d="M25.791 0L0 11.0663L12.6359 16.5994V11.7579C12.809 11.7579 12.9821 11.9308 12.9821 11.9308C21.2906 7.08934 30.1184 7.26225 38.0807 12.1037C38.2538 12.1037 38.7731 11.585 38.9462 11.7579V16.0807L51.5821 11.0663C51.5821 10.8934 25.791 0 25.791 0Z" fill="#333333"/>
<path fill-rule="evenodd" clip-rule="evenodd" d="M25.7921 7.78076C25.7921 10.5473 25.7921 13.141 25.7921 15.9076C20.9455 15.9076 16.2719 17.4638 12.4639 20.2303C12.4639 14.5243 12.4639 11.7577 12.4639 11.7577C16.445 9.33696 21.1186 7.95367 25.7921 7.78076Z" fill="#999999"/>
<path fill-rule="evenodd" clip-rule="evenodd" d="M25.791 7.78101C25.791 10.5476 25.791 13.1412 25.791 15.9078C30.6377 15.9078 35.3112 17.464 39.1193 20.2306C39.1193 14.5245 39.1193 11.758 39.1193 11.758C35.1381 9.3372 30.4646 7.95392 25.791 7.78101Z" fill="#4D4D4D"/>
</g>
<defs>
<clipPath id="clip0_61_1562">
<rect width="193" height="60" fill="white"/>
</clipPath>
</defs>
</svg>
