<svg width="101" height="195" viewBox="0 0 101 195" fill="none" xmlns="http://www.w3.org/2000/svg">
<g clip-path="url(#clip0_2010_448)">
<path d="M14.7331 75.4532C13.9907 72.88 11.8739 71.2079 10.4293 69.0953C1.78165 56.3896 -1.2681 43.0231 5.01199 28.3049C7.58021 22.2874 10.941 16.9308 15.6561 12.3351C17.0004 11.0235 18.5453 10.4027 20.0601 9.62174C27.2732 5.90715 34.6769 2.74323 42.6424 0.890942C49.1432 -0.620928 55.5337 0.0999639 61.8739 1.20133C67.5521 2.19255 73.0698 3.96474 78.2062 6.7582C88.7901 12.4953 95.953 21.3563 99.3037 32.5601C101.641 40.3698 99.8154 48.4998 97.0766 56.3796C93.2544 67.3732 85.7202 75.6634 78.4068 84.204C74.6548 88.5994 70.7524 92.8447 65.6861 95.7383C61.5529 98.1012 59.6167 102.046 57.841 106.011C55.4133 111.458 54.4803 117.225 54.9618 123.272C55.2828 127.357 54.7612 131.533 57.2491 135.197C57.5501 135.638 57.7608 136.389 57.2692 136.689C54.3097 138.491 56.1456 140.794 56.6372 142.857C57.0585 144.629 57.8009 146.211 54.7913 145.65C53.8583 145.48 53.8182 146.111 53.9887 146.942C54.5505 149.775 53.6777 150.306 50.9891 149.705C47.5882 148.954 45.4113 146.962 43.756 143.367C42.7227 146.281 45.652 148.263 43.7158 150.937C42.1308 146.751 37.6063 145.54 35.7002 141.855C32.9514 136.559 31.2359 131.102 32.3796 124.944C33.8342 117.125 35.2086 109.325 40.004 102.667C44.6087 96.2789 49.8053 90.4017 56.4064 86.0363C60.7202 83.1827 64.4622 79.8887 67.3916 75.6534C71.7556 69.3356 76.5007 63.1379 77.7548 55.3083C79.2094 46.197 78.0156 38.107 71.3141 30.5176C64.3318 22.6178 56.1657 20.0947 46.4044 20.6053C38.1882 21.0359 28.0357 28.5151 26.3001 39.0682C25.7082 42.6726 24.5846 46.3572 26.0393 50.0518C27.9153 54.8076 30.2829 59.2932 33.9546 62.9177C36.9542 65.8813 39.8434 69.0653 44.1773 70.1967C44.8495 70.3669 45.4414 70.7474 45.7624 71.5584C42.3615 72.92 39.1011 72.0189 35.7403 71.1178C38.5092 74.1516 41.5991 76.7147 45.2407 78.5871C45.8527 78.8974 46.4847 79.1678 47.0666 79.5282C48.4811 80.3993 50.016 81.2804 49.7652 83.2729C49.6047 84.5444 46.4145 86.1464 44.6388 85.8561C40.3551 85.1452 36.5028 83.4831 33.0818 80.7397C32.1388 79.9788 30.8848 77.7961 29.9618 79.1277C28.9887 80.5495 31.4867 81.1602 32.5601 81.9813C35.008 83.8736 38.2885 84.7447 39.7331 87.8685C38.9907 88.7997 38.128 88.6996 37.1147 88.4292C33.8944 87.5582 30.9349 86.1464 28.2062 84.2441C27.0826 83.4531 26.0894 82.4618 24.5545 82.612C20.6821 81.0401 18.0638 77.7761 14.7331 75.4532ZM20.2307 65.8012C18.0136 60.5147 16.7395 55.078 15.9169 49.5511C15.0943 43.9943 17.4217 38.5475 17.0004 32.7504C10.7303 39.9793 11.3523 59.4534 20.2307 65.8012ZM10.5296 30.6978C15.9069 26.0921 20.5918 19.9445 21.5248 16.3701C15.0441 18.8732 12.4257 24.1197 10.5296 30.6978ZM91.9502 38.147C92.4317 30.828 90.957 26.9832 86.3924 22.9783C88.5694 27.7041 89.091 33.0607 91.9502 38.147ZM23.8924 10.5128C26.7516 10.1023 26.7415 10.0923 28.2664 8.34016C26.4506 8.51037 25.0862 9.1011 23.8924 10.5128Z" fill="#FA8D8D"/>
<path d="M45.9831 169.139C48.9827 166.155 52.7347 165.254 56.8177 165.124C58.9245 165.054 60.5697 165.655 61.7134 167.777C58.9847 168.668 56.0051 168.598 53.1159 170.591C56.0051 171.192 57.4698 172.954 59.1251 174.566C61.7034 177.079 61.7636 177.169 58.1319 178.491C57.8711 179.151 58.5433 179.332 58.7941 179.722C59.0649 180.153 59.3358 180.583 59.6468 181.074C56.4566 181.194 54.2595 182.325 52.825 185.309C51.2198 188.653 47.2371 189.524 44.6789 192.077C42.9734 193.78 39.5224 192.418 37.9574 190.155C37.2752 189.164 36.583 188.573 35.4393 188.303C31.1255 187.261 29.6207 184.338 30.8948 179.462C32.4798 173.394 36.8338 169.83 42.3314 167.497C43.9465 166.816 44.9698 168.328 46.0733 169.229C45.662 169.219 45.2507 169.229 44.8394 169.209C43.8964 169.169 43.0838 168.999 43.4951 170.581C43.6355 171.112 43.2042 171.732 44.087 171.933C45.0802 172.163 45.662 171.762 45.7925 170.751C45.8727 170.22 45.9229 169.68 45.9831 169.139ZM45.7423 189.484C44.1171 189.164 42.7527 188.773 41.5589 187.992C40.9469 187.592 40.2848 187.392 39.8334 188.153C39.4321 188.823 39.7531 189.464 40.2447 189.975C41.6592 191.437 43.0938 191.357 45.7423 189.484ZM41.3181 178.471C40.3049 178.26 39.392 178.431 38.5292 178.941C37.9574 179.282 37.1548 179.442 37.0545 180.203C36.9742 180.763 37.4758 181.154 37.9574 181.454C38.8101 181.995 39.4321 181.544 40.1644 181.104C41.2278 180.453 40.1042 178.991 41.3181 178.471Z" fill="#FA8D8D"/>
<path d="M14.7328 75.4532C18.0534 77.7661 20.6818 81.0402 24.5441 82.6121C24.795 82.9325 25.136 83.2229 25.2665 83.5833C25.5173 84.2441 24.8953 84.144 24.5742 84.164C23.26 84.2641 22.1565 83.5432 21.1734 82.8824C12.8969 77.4057 6.34592 70.387 2.57384 61.0454C2.16253 60.0342 1.82144 58.9628 2.24279 57.8415L2.16253 57.9115C3.84792 60.4947 4.61036 63.5485 6.41614 66.0917C8.85394 69.5359 11.2717 72.9501 14.7328 75.4532Z" fill="#FA8D8D"/>
<path d="M2.25296 57.8514C-0.024331 57.0104 0.938751 54.9178 0.376953 53.4259C1.67109 54.6675 2.32318 56.1493 2.1727 57.9215L2.25296 57.8514Z" fill="#FA8D8D"/>
<path d="M58.8239 188.062C57.2288 189.434 58.0113 191.196 55.5635 192.298C56.7774 190.636 54.6506 188.263 58.8239 188.062Z" fill="#FA8D8D"/>
<path d="M53.7483 193.97C52.9056 194.19 52.6749 193.78 52.6448 193.189C52.6147 192.668 52.5846 191.967 53.1163 191.827C53.9189 191.617 54.1998 192.348 54.4405 192.979C54.7616 193.8 53.9991 193.759 53.7483 193.97Z" fill="#FA8D8D"/>
</g>
<defs>
<clipPath id="clip0_2010_448">
<rect width="100" height="194" fill="white" transform="translate(0.376953 0.0298805)"/>
</clipPath>
</defs>
</svg>
