<svg width="71" height="137" viewBox="0 0 71 137" fill="none" xmlns="http://www.w3.org/2000/svg">
<g clip-path="url(#clip0_2010_457)">
<path d="M10.6012 53.6791C10.0815 51.8753 8.59975 50.7031 7.58852 49.2221C1.53515 40.315 -0.599685 30.9446 3.79638 20.6267C5.59414 16.4083 7.94666 12.6531 11.2472 9.43141C12.1882 8.51193 13.2697 8.07675 14.3301 7.52927C19.3792 4.92522 24.5618 2.70722 30.1377 1.40871C34.6882 0.348838 39.1615 0.854206 43.5998 1.62629C47.5745 2.32117 51.4368 3.56354 55.0323 5.52184C62.441 9.54372 67.4551 15.7555 69.8006 23.6098C71.4368 29.0846 70.1587 34.784 68.2416 40.308C65.566 48.0148 60.2922 53.8265 55.1728 59.8137C52.5464 62.8951 49.8146 65.8711 46.2683 67.8996C43.375 69.5561 42.0197 72.3216 40.7767 75.1011C39.0773 78.9194 38.4242 82.9624 38.7613 87.2019C38.986 90.0656 38.6208 92.9925 40.3624 95.5615C40.5731 95.8703 40.7205 96.3967 40.3764 96.6073C38.3048 97.8707 39.5899 99.4851 39.934 100.931C40.229 102.173 40.7486 103.282 38.6419 102.889C37.9888 102.77 37.9607 103.212 38.0801 103.795C38.4733 105.781 37.8624 106.153 35.9804 105.732C33.5998 105.206 32.0759 103.809 30.9172 101.289C30.1939 103.331 32.2444 104.721 30.8891 106.595C29.7795 103.661 26.6124 102.812 25.2781 100.229C23.354 96.5161 22.1531 92.6907 22.9537 88.374C23.9719 82.8922 24.934 77.4244 28.2908 72.7568C31.5141 68.2786 35.1517 64.1585 39.7725 61.0982C42.7922 59.0978 45.4115 56.7886 47.4621 53.8195C50.5169 49.3905 53.8385 45.0458 54.7163 39.5569C55.7346 33.1696 54.8989 27.4983 50.2079 22.1779C45.3203 16.6399 39.604 14.8711 32.7711 15.2291C27.0197 15.5309 19.913 20.7741 18.6981 28.1721C18.2837 30.699 17.4972 33.282 18.5155 35.872C19.8287 39.206 21.486 42.3505 24.0562 44.8914C26.1559 46.969 28.1784 49.201 31.2121 49.9942C31.6826 50.1135 32.0969 50.3802 32.3217 50.9488C29.941 51.9033 27.6587 51.2716 25.3062 50.6399C27.2444 52.7667 29.4073 54.5635 31.9565 55.8761C32.3849 56.0937 32.8273 56.2832 33.2346 56.5359C34.2248 57.1465 35.2992 57.7642 35.1236 59.161C35.0113 60.0524 32.7781 61.1754 31.5351 60.9719C28.5366 60.4735 25.8399 59.3084 23.4453 57.3852C22.7851 56.8517 21.9073 55.3216 21.2613 56.2551C20.5801 57.2518 22.3287 57.68 23.0801 58.2555C24.7936 59.5821 27.0899 60.1928 28.1012 62.3827C27.5815 63.0355 26.9776 62.9653 26.2683 62.7758C24.0141 62.1651 21.9424 61.1754 20.0323 59.8418C19.2458 59.2873 18.5506 58.5924 17.4762 58.6977C14.7655 57.5957 12.9326 55.3075 10.6012 53.6791ZM14.4495 46.9128C12.8975 43.2068 12.0057 39.3955 11.4298 35.521C10.854 31.6255 12.4832 27.8071 12.1882 23.7431C7.79919 28.8109 8.23458 42.4628 14.4495 46.9128ZM7.65874 22.3042C11.4228 19.0755 14.7023 14.7658 15.3554 12.2601C10.8189 14.0148 8.98599 17.6928 7.65874 22.3042ZM64.6531 27.5264C64.9902 22.3955 63.9579 19.7002 60.7627 16.8926C62.2865 20.2056 62.6517 23.9607 64.6531 27.5264ZM17.0127 8.15396C19.0141 7.86618 19.0071 7.85916 20.0745 6.63084C18.8034 6.75016 17.8483 7.16428 17.0127 8.15396Z" fill="#FA8D8D"/>
<path d="M32.4776 119.356C34.5773 117.264 37.2037 116.633 40.0619 116.541C41.5366 116.492 42.6883 116.913 43.4888 118.401C41.5787 119.026 39.493 118.977 37.4706 120.374C39.493 120.795 40.5183 122.03 41.677 123.16C43.4818 124.922 43.5239 124.985 40.9818 125.912C40.7992 126.375 41.2697 126.501 41.4453 126.775C41.6349 127.077 41.8245 127.379 42.0422 127.723C39.8091 127.807 38.2711 128.6 37.2669 130.692C36.1433 133.036 33.3554 133.647 31.5647 135.437C30.3709 136.63 27.9551 135.675 26.8596 134.089C26.3821 133.394 25.8975 132.98 25.097 132.79C22.0773 132.06 21.0239 130.011 21.9158 126.593C23.0253 122.339 26.0731 119.84 29.9214 118.205C31.052 117.728 31.7683 118.788 32.5408 119.419C32.2529 119.412 31.965 119.419 31.677 119.405C31.0169 119.377 30.4481 119.258 30.736 120.367C30.8343 120.739 30.5324 121.174 31.1503 121.314C31.8456 121.476 32.2529 121.195 32.3442 120.486C32.4003 120.114 32.4355 119.735 32.4776 119.356ZM32.3091 133.619C31.1714 133.394 30.2164 133.12 29.3807 132.573C28.9523 132.292 28.4888 132.152 28.1728 132.685C27.8919 133.155 28.1166 133.605 28.4607 133.963C29.4509 134.987 30.4551 134.931 32.3091 133.619ZM29.2121 125.898C28.5029 125.75 27.8638 125.87 27.2599 126.228C26.8596 126.466 26.2978 126.579 26.2276 127.112C26.1714 127.505 26.5225 127.779 26.8596 127.989C27.4565 128.368 27.8919 128.053 28.4046 127.744C29.1489 127.288 28.3624 126.263 29.2121 125.898Z" fill="#FA8D8D"/>
<path d="M10.6017 53.6792C12.9261 55.3006 14.766 57.5958 17.4697 58.6978C17.6452 58.9224 17.884 59.1259 17.9753 59.3786C18.1509 59.8419 17.7155 59.7717 17.4907 59.7857C16.5708 59.8559 15.7983 59.3505 15.1101 58.8873C9.31658 55.0479 4.73091 50.1276 2.09046 43.5789C1.80254 42.87 1.56378 42.1189 1.85872 41.3328L1.80254 41.3819C2.98231 43.1928 3.51602 45.3336 4.78007 47.1164C6.48653 49.531 8.17894 51.9245 10.6017 53.6792Z" fill="#FA8D8D"/>
<path d="M1.86691 41.34C0.272812 40.7504 0.946969 39.2835 0.553711 38.2376C1.45961 39.108 1.91607 40.1468 1.81073 41.3892L1.86691 41.34Z" fill="#FA8D8D"/>
<path d="M41.4659 132.622C40.3493 133.584 40.8971 134.819 39.1836 135.591C40.0333 134.426 38.5445 132.762 41.4659 132.622Z" fill="#FA8D8D"/>
<path d="M37.9131 136.763C37.3232 136.917 37.1617 136.629 37.1406 136.215C37.1195 135.85 37.0985 135.359 37.4707 135.261C38.0325 135.114 38.2291 135.626 38.3976 136.068C38.6224 136.643 38.0886 136.615 37.9131 136.763Z" fill="#FA8D8D"/>
</g>
<defs>
<clipPath id="clip0_2010_457">
<rect width="70" height="136" fill="white" transform="translate(0.552734 0.805115)"/>
</clipPath>
</defs>
</svg>
