<svg width="153" height="70" viewBox="0 0 153 70" fill="none" xmlns="http://www.w3.org/2000/svg">
<path d="M1.58247 3.30972C2.02746 4.64431 4.85448 6.18825 6.55593 7.41817C16.5814 14.536 27.2874 20.4501 38.0982 26.2333C53.2541 34.3194 68.986 41.1755 84.8749 47.6914C93.958 51.4074 135.129 64.9871 144.552 67.7348C147.118 68.4675 149.709 68.9908 152.379 69.2002C152.458 68.5198 152.693 67.7871 152.51 67.6563C151.751 67.1329 150.913 66.6095 150.023 66.374C137.668 63.1814 93.7486 48.555 82.0217 43.4783C78.645 42.0129 75.1635 40.8353 71.7868 39.3437C64.6146 36.1773 57.4161 33.0633 50.3486 29.6352C43.9616 26.5473 37.6793 23.1978 31.4494 19.7435C21.6334 14.2481 11.8435 8.62191 2.89127 1.73961C1.216 0.457352 0.823359 -0.19686 0.61395 0.457352C0.404541 1.11156 1.16365 1.97512 1.58247 3.30972Z" fill="#B9ACEB"/>
</svg>
