<svg width="239" height="191" viewBox="0 0 239 191" fill="none" xmlns="http://www.w3.org/2000/svg">
<g clip-path="url(#clip0_886_11818)">
<path d="M235.498 178.085C235.411 178.529 235.321 178.968 235.229 179.404C233.025 189.836 229.513 198.101 224.72 202.847C192.488 207.268 19.4676 205.9 19.4676 205.9C11.4167 200.437 5.76574 190.897 2.69782 179.404C2.58112 178.967 2.46828 178.528 2.35931 178.085C-0.815644 165.221 -0.826605 150.069 2.57209 135.492C2.67397 135.052 2.77971 134.612 2.88933 134.173C6.55883 119.369 13.7715 105.25 24.7871 94.8419C25.8852 93.8036 26.9581 92.7151 28.0091 91.5797C28.4095 91.1465 28.8061 90.7075 29.2 90.2607C39.4632 78.6517 47.6688 62.7087 57.2852 47.6675C57.5657 47.2266 57.8487 46.7876 58.1331 46.3486C66.1117 34.0263 75.113 22.418 87.0681 14.4349C87.7438 13.9836 88.4292 13.5434 89.1243 13.1159C93.5437 10.3976 98.359 8.16851 103.659 6.56378C130.872 -1.67228 152.661 0.685572 172.711 13.1159C173.4 13.544 174.088 13.9836 174.774 14.4349C186.073 21.874 196.853 32.5433 207.787 46.3486C208.133 46.785 208.478 47.2246 208.825 47.6675C209.293 48.2655 209.76 48.8693 210.228 49.4789C218.593 60.3689 225.035 74.6872 229.6 90.2607C229.729 90.6997 229.856 91.1387 229.982 91.5797C230.942 94.9501 231.817 98.3771 232.603 101.837C232.657 102.076 232.712 102.316 232.765 102.556C232.78 102.623 232.795 102.689 232.81 102.755C233.158 104.318 233.488 105.886 233.801 107.46V107.462C234.561 111.29 235.219 115.145 235.772 118.997C236.072 121.085 236.342 123.173 236.58 125.256V125.258C236.923 128.246 237.204 131.222 237.422 134.174C237.455 134.614 237.486 135.053 237.516 135.492C238.577 151.101 237.89 165.97 235.498 178.086L235.498 178.085Z" fill="#E6F1FF"/>
<path d="M18.2036 177.036C18.1327 177.18 18.0308 177.335 17.8748 177.351C17.7381 177.366 17.6111 177.257 17.5569 177.129C17.5021 176.999 17.5047 176.854 17.5111 176.713C17.5421 176.086 17.6491 175.463 17.829 174.863C17.8896 174.661 17.9651 174.451 18.1218 174.313C19.0715 173.473 18.3893 176.662 18.2036 177.036Z" fill="#7096B4"/>
<path d="M13.891 176.91C13.9065 177.001 13.9213 177.098 13.8943 177.176C13.8446 177.319 13.6712 177.323 13.5461 177.229C13.421 177.135 13.3333 176.976 13.2514 176.824C13.0032 176.36 12.7504 175.887 12.6131 175.377C12.4512 174.777 12.4867 173.714 13.1166 174.478C13.5809 175.04 13.773 176.216 13.891 176.91Z" fill="#7096B4"/>
<path d="M21.7057 146.623C22.4136 145.527 22.7315 144.215 22.9198 142.915C23.0778 141.825 23.2274 140.662 23.2067 139.559C23.19 138.665 22.6238 137.718 21.7514 138.216C20.9687 138.662 20.2658 139.64 19.7616 140.376C18.8434 141.713 18.227 143.269 17.9923 144.886C17.8446 145.903 17.5126 148.099 18.8267 148.524C19.8583 148.859 21.2221 147.372 21.7057 146.623Z" fill="#A7C6DF"/>
<path d="M15.4766 145.973C16.1832 147.587 16.6417 149.316 16.8293 151.074C16.9202 151.928 16.9389 152.834 16.5605 153.601C16.3851 153.955 16.0956 154.288 15.7126 154.353C15.1116 154.456 14.6164 153.888 14.2972 153.357C13.0031 151.2 12.4132 148.608 12.6421 146.088C12.6782 145.687 12.7407 145.273 12.958 144.938C13.8169 143.616 15.0948 145.101 15.4772 145.973H15.4766Z" fill="#A7C6DF"/>
<path d="M23.1811 149.579C22.7156 150.922 22.0424 152.189 21.1939 153.319C20.8418 153.788 20.4479 154.243 19.9391 154.525C19.7289 154.641 19.4381 154.713 19.2731 154.536C19.2054 154.464 19.1751 154.364 19.1525 154.267C18.8978 153.175 19.3414 152.052 19.816 151.04C20.3421 149.918 20.9611 148.738 21.9573 147.979C23.4133 146.87 23.608 148.348 23.1818 149.579H23.1811Z" fill="#A7C6DF"/>
<path d="M16.7247 166.622L16.5312 166.615C16.5332 166.566 16.7189 161.752 17.4784 155.983C18.18 150.654 19.5289 143.397 21.9714 139.084L22.1396 139.18C19.7126 143.465 18.3695 150.696 17.6706 156.007C16.9123 161.768 16.7266 166.574 16.7247 166.622V166.622Z" fill="#E0BA89"/>
<path d="M16.4202 166.168L16.2287 166.139C17.005 161.041 15.8837 151.519 13.8281 145.761L14.0106 145.696C16.0746 151.478 17.2004 161.044 16.4202 166.168Z" fill="#E0BA89"/>
<path d="M17.882 165.268C17.6002 162.932 17.8375 159.877 18.5158 157.095C19.0987 154.707 20.2915 151.317 22.6657 148.731L22.8082 148.862C18.4868 153.568 17.6105 161.409 18.0735 165.245L17.8813 165.268H17.882Z" fill="#E0BA89"/>
<path d="M12.2532 161.172C13.6982 160.396 15.2914 160.229 15.2914 158.467V156.946C15.2914 156.785 15.4578 156.656 15.6557 156.664L17.2909 156.734L18.9261 156.664C19.1241 156.656 19.2904 156.785 19.2904 156.946V158.086C19.2904 158.865 19.6721 159.626 20.3421 160.182C21.0314 160.753 22.0605 160.894 22.704 161.463C23.0605 161.778 23.292 162.173 23.4751 162.575C24.8447 165.578 23.212 168.847 22.3313 171.804C21.7168 173.869 21.1016 175.933 20.4872 177.998C20.4788 178.027 20.4698 178.057 20.4614 178.086H13.0495C12.6239 176.136 12.1984 174.185 11.7735 172.235C11.4536 170.769 10.4265 166.188 10.3884 165.333C10.3504 164.479 10.5051 163.618 10.8559 162.812C11.1306 162.18 11.5471 161.557 12.2313 161.186C12.239 161.182 12.2467 161.177 12.2538 161.174L12.2532 161.172Z" fill="#A7C6DF"/>
<path d="M14.57 159.812C14.9221 159.917 15.24 160.013 15.4386 160.041C16.6166 160.203 17.8146 160.361 19.0049 160.297C19.4666 160.273 19.9302 160.21 20.3654 160.105C20.3957 160.13 20.426 160.156 20.4576 160.181C20.7433 160.404 21.0837 160.561 21.4332 160.704C20.5788 161.051 19.5549 161.227 18.5336 161.258C17.2014 161.299 15.8654 161.113 14.5771 160.859C14.3579 160.815 13.8549 160.689 13.3984 160.515C13.8569 160.318 14.2683 160.108 14.572 159.812H14.57Z" fill="#7096B4"/>
<path d="M17.818 158.874C16.9088 158.881 15.9945 158.807 15.0938 158.69C15.1002 158.619 15.1047 158.545 15.1047 158.467V157.941C16.1531 158.066 17.2145 158.172 18.2642 158.145C18.6298 158.136 18.9954 158.109 19.3468 158.061V158.086C19.3468 158.313 19.3823 158.539 19.4493 158.76C18.9245 158.833 18.3719 158.87 17.8186 158.874H17.818Z" fill="#7096B4"/>
<path d="M22.0098 165.152C21.9969 165.499 21.9627 165.891 21.6977 166.107C21.6513 166.145 21.5945 166.177 21.5352 166.172C21.4443 166.165 21.3811 166.077 21.3431 165.991C21.2109 165.695 21.2251 165.356 21.2193 165.03C21.2083 164.462 20.4358 162.273 21.0922 162.203C22.1665 162.09 22.0304 164.61 22.0104 165.153L22.0098 165.152Z" fill="#7096B4"/>
<path d="M18.0296 164.447C18.0302 165.002 18.0309 165.558 18.0315 166.113C18.0315 166.23 18.0302 166.354 17.9709 166.454C17.8555 166.65 17.5615 166.662 17.3777 166.532C17.1939 166.402 17.0979 166.178 17.0289 165.961C16.7729 165.155 16.7613 164.27 16.9966 163.457C17.1146 163.05 17.3983 162.58 17.8039 162.924C18.1024 163.177 18.0283 164.095 18.0289 164.447H18.0296Z" fill="#7096B4"/>
<path d="M17.7796 175.083C17.7802 175.638 17.7809 176.194 17.7815 176.749C17.7815 176.867 17.7802 176.99 17.7209 177.091C17.6055 177.286 17.3115 177.298 17.1277 177.168C16.9439 177.038 16.8479 176.814 16.7789 176.597C16.5229 175.791 16.5113 174.906 16.7466 174.093C16.8646 173.687 17.1483 173.216 17.5539 173.56C17.8524 173.813 17.7783 174.731 17.7789 175.083H17.7796Z" fill="#7096B4"/>
<path d="M20.0316 165.936C19.9955 166.098 19.9323 166.28 19.7801 166.337C19.6467 166.386 19.4932 166.311 19.4062 166.196C19.3198 166.081 19.2856 165.934 19.2579 165.791C19.1341 165.155 19.087 164.503 19.1192 163.855C19.1302 163.637 19.1534 163.408 19.2766 163.228C20.0213 162.142 20.1251 165.513 20.0316 165.936Z" fill="#7096B4"/>
<path d="M19.2058 173.433C19.1484 173.588 19.062 173.761 18.9034 173.795C18.7641 173.825 18.6223 173.729 18.552 173.603C18.4817 173.477 18.4675 173.327 18.4591 173.182C18.4211 172.534 18.4617 171.882 18.5797 171.245C18.6197 171.03 18.6738 170.806 18.8189 170.645C19.7016 169.673 19.3547 173.027 19.2058 173.433V173.433Z" fill="#7096B4"/>
<path d="M20.9944 170.358C20.9306 170.511 20.8364 170.679 20.6765 170.706C20.5366 170.73 20.3986 170.627 20.3335 170.498C20.2684 170.369 20.2613 170.218 20.2587 170.072C20.249 169.424 20.3174 168.774 20.4631 168.143C20.5121 167.93 20.5759 167.709 20.7281 167.556C21.6521 166.624 21.1601 169.959 20.9938 170.358L20.9944 170.358Z" fill="#7096B4"/>
<path d="M15.4998 166.027C15.4721 166.127 15.4405 166.233 15.3638 166.301C15.2213 166.426 14.9859 166.358 14.866 166.209C14.7461 166.061 14.7132 165.861 14.6835 165.671C14.5939 165.092 14.5043 164.503 14.5881 163.923C14.6868 163.241 15.2974 162.169 15.7416 163.214C16.0692 163.985 15.7075 165.268 15.4992 166.026L15.4998 166.027Z" fill="#7096B4"/>
<path d="M15.9608 173.589C15.9331 173.689 15.9015 173.795 15.8247 173.863C15.6822 173.988 15.4462 173.92 15.327 173.771C15.2077 173.623 15.1741 173.423 15.1445 173.233C15.0549 172.654 14.9652 172.065 15.049 171.485C15.1477 170.803 15.7583 169.731 16.2026 170.776C16.5301 171.547 16.1684 172.83 15.9601 173.588L15.9608 173.589Z" fill="#7096B4"/>
<path d="M17.703 171.244C17.6752 171.344 17.6437 171.45 17.5669 171.517C17.4244 171.643 17.1884 171.575 17.0691 171.426C16.9499 171.277 16.9163 171.078 16.8867 170.888C16.797 170.309 16.7074 169.72 16.7912 169.14C16.8899 168.458 17.5005 167.386 17.9448 168.431C18.2723 169.201 17.9106 170.485 17.7023 171.243L17.703 171.244Z" fill="#7096B4"/>
<path d="M13.7215 162.818C13.8698 163.741 13.7595 164.706 13.4075 165.568C13.383 165.628 13.3559 165.689 13.3082 165.732C13.1966 165.831 13.0122 165.785 12.9129 165.673C12.8136 165.561 12.7794 165.406 12.7537 165.257C12.6544 164.689 12.6253 164.108 12.6666 163.532C12.7053 162.996 13.5351 161.662 13.7215 162.818Z" fill="#7096B4"/>
<path d="M14.1611 167.991C14.5332 168.845 14.6653 169.807 14.5383 170.732C14.5293 170.797 14.5183 170.863 14.4829 170.916C14.3997 171.041 14.2095 171.044 14.0857 170.962C13.9619 170.88 13.8903 170.738 13.8284 170.601C13.5918 170.077 13.4196 169.523 13.3171 168.955C13.2216 168.426 13.6943 166.92 14.1605 167.991L14.1611 167.991Z" fill="#7096B4"/>
<path d="M224.237 172.299C224.237 177.633 219.49 178.075 213.634 178.075C210.762 178.075 208.123 178.242 206.213 177.238C204.23 176.195 203.031 175.016 203.031 172.299C203.031 168.018 206.275 163.015 210.508 161.327C211.011 161.127 210.676 158.626 209.759 157.064C209.331 156.335 210.802 156.097 212.279 157.055C212.119 156.059 212.998 155.606 213.607 155.606C214.216 155.606 214.801 155.924 214.876 157.021C215.757 156.115 217.543 156.252 217.074 156.892C216.164 158.135 215.617 161.203 216.02 161.317C219.451 162.286 222.246 165.239 223.509 168.546C223.98 169.776 224.238 171.056 224.238 172.3L224.237 172.299Z" fill="#A7C6DF"/>
<path d="M216.089 160.042H210.627C210.604 160.042 210.586 160.06 210.586 160.082V160.988C210.586 161.01 210.604 161.028 210.627 161.028H216.089C216.111 161.028 216.129 161.01 216.129 160.988V160.082C216.129 160.06 216.111 160.042 216.089 160.042Z" fill="#7096B4"/>
<path d="M208.828 47.6685H57.2891C57.5695 47.2276 57.8526 46.7886 58.137 46.3496H207.79C208.136 46.786 208.482 47.2257 208.828 47.6685Z" fill="#A7C6DF"/>
<path d="M174.768 14.4361H87.0625C87.7382 13.9849 88.4237 13.5446 89.1187 13.1172H172.705C173.394 13.5452 174.082 13.9849 174.768 14.4361Z" fill="#A7C6DF"/>
<path d="M229.972 91.5802H28C28.4004 91.147 28.797 90.708 29.1909 90.2612H229.591C229.72 90.7002 229.847 91.1392 229.972 91.5802Z" fill="#A7C6DF"/>
<path d="M237.514 135.492H2.57031C2.67219 135.052 2.77794 134.612 2.88755 134.173H237.421C237.453 134.614 237.484 135.053 237.514 135.492Z" fill="#A7C6DF"/>
<path d="M235.49 178.085C235.402 178.528 235.313 178.968 235.221 179.404H2.69008C2.57337 178.967 2.46053 178.528 2.35156 178.085H235.49Z" fill="#A7C6DF"/>
<path d="M187.188 32.1699H159.805V46.3505H187.188V32.1699Z" fill="#A7C6DF"/>
<path d="M174.481 34.6256C174.481 34.1294 174.039 33.7271 173.494 33.7271C172.949 33.7271 172.508 34.1294 172.508 34.6256C172.508 35.0209 172.789 35.3562 173.178 35.476V36.6559H173.81V35.476C174.2 35.3562 174.481 35.0209 174.481 34.6256Z" fill="#7096B4"/>
<path d="M236.597 125.257V125.258L235.547 134.174L235.544 134.196L235.317 134.174L229.195 133.575L232.827 102.757C233.176 104.318 233.506 105.887 233.819 107.46V107.462C234.579 111.291 235.236 115.145 235.79 118.998C236.09 121.086 236.36 123.174 236.598 125.257L236.597 125.257Z" fill="#A7C6DF"/>
<path d="M235.792 118.997L235.12 124.7L231.828 124.378L233.822 107.461C234.582 111.29 235.239 115.144 235.792 118.997Z" fill="#7096B4"/>
<path d="M232.768 102.556L227.155 134.149L218.984 132.944L224.717 100.675L232.606 101.838C232.66 102.077 232.715 102.317 232.768 102.557V102.556Z" fill="#A7C6DF"/>
<path d="M226.573 126.09L222.336 125.466L225.308 108.733L229.545 109.358L226.573 126.09Z" fill="#7096B4"/>
<path d="M215.881 134.069L211.727 133.087L219.316 106.451L223.47 107.433L215.881 134.069Z" fill="#A7C6DF"/>
<path d="M215.334 132.268L213.18 131.759L219.878 108.251L222.031 108.76L215.334 132.268Z" fill="#7096B4"/>
<path d="M78.8047 90.2621V86.2197H43.3077V90.2621H78.8047Z" fill="#A7C6DF"/>
<path d="M70.2656 89.2883V87.1924H51.8601V89.2883H70.2656Z" fill="#7096B4"/>
<path d="M81.2891 86.2206V80.981H51.57V86.2206H81.2891Z" fill="#A7C6DF"/>
<path d="M74.1406 84.9592V82.2422H58.7308V84.9592H74.1406Z" fill="#7096B4"/>
<path d="M72.3359 81.0735V78.3564H47.318V81.0735H72.3359Z" fill="#A7C6DF"/>
<path d="M70.8672 80.4203V79.0112H48.787V80.4203H70.8672Z" fill="#7096B4"/>
<path d="M127.737 79.6973C129.887 80.0043 132.222 80.5682 133.502 82.3197C134.932 84.2752 134.987 86.6813 134.079 88.9259C138.515 85.5909 141.342 81.1031 142.819 75.7592C143.755 72.3746 143.976 68.8362 144.061 65.3262C144.118 62.9741 144.112 60.5879 143.506 58.3144C142.262 53.6528 138.648 49.9959 134.794 47.0864C132.123 45.0698 129.251 43.2887 126.137 42.0573C122.529 40.6308 118.622 39.964 114.744 40.1133C112.992 40.1809 111.172 40.4397 109.72 41.4213C108.832 42.0219 108.134 42.858 107.473 43.7C104.668 47.2705 102.256 51.2248 101.003 55.5864C99.5548 60.6298 99.7205 66.0555 100.99 71.1458C101.886 74.7376 103.319 78.1769 105.068 81.4346C105.64 82.4999 108.354 86.2559 108.354 86.2559C108.354 86.2559 108.094 83.9553 109.247 82.4613C111.289 79.8151 122.212 78.9081 127.737 79.6966L127.737 79.6973Z" fill="#5C2F1F"/>
<path d="M134.493 99.7396C131.329 93.0594 129.121 81.8391 129.587 71.8735C129.893 71.3077 113.887 71.8761 114.194 72.4419C114.658 82.4069 113.057 93.0594 109.893 99.7396C108.871 101.897 110.641 105.383 111.702 107.472C112.935 109.9 114.454 112.171 116.406 114.084C117.701 115.353 119.925 117.167 122.133 117.833V117.871C122.153 117.865 122.172 117.858 122.192 117.852C122.212 117.858 122.232 117.865 122.252 117.871V117.833C124.46 117.167 126.683 115.353 127.979 114.084C129.93 112.171 131.45 109.9 132.682 107.472C133.744 105.384 135.514 101.897 134.492 99.7396H134.493Z" fill="#FBAE96"/>
<g style="mix-blend-mode:multiply" opacity="0.28">
<path d="M128.639 81.233C128.742 81.1616 120.093 79.7783 114.215 78.8481C114.152 80.4715 114.039 82.0872 113.875 83.6752C116.696 85.0398 123.442 87.3192 128.639 81.233Z" fill="#FBAE96"/>
</g>
<path d="M141.748 51.4263C141.188 55.3651 138.938 65.2085 137.543 68.6419C134.713 75.608 131.04 81.483 123.093 83.835C121.954 84.1723 120.77 84.2792 119.617 83.9374C113.132 82.0121 108.223 75.3254 105.846 69.5264C104.111 65.2922 102.369 61.0463 101.094 56.6467C99.2548 50.305 98.0084 44.3682 100.881 38.2016C103.287 33.0373 107.769 28.8365 113.14 26.8823C116.834 25.5383 119.972 26.4253 123.679 26.3957C125.565 26.3802 126.872 26.0706 128.812 26.6087C132.516 27.6361 135.974 29.7023 138.33 32.7734C142.538 38.2596 142.72 44.5916 141.748 51.4263Z" fill="#FBAE96"/>
<path d="M143.274 38.5284C141.01 32.732 136.174 28.0433 130.393 25.717C128.81 25.0797 127.34 25.3893 125.835 25.0257C125.693 24.9915 125.556 24.9491 125.423 24.9034C125.028 24.2706 124.55 23.7421 123.97 23.3759C122.612 22.5178 117.066 23.0386 113.655 24.2346C98.2996 29.6203 95.997 46.2611 95.8236 48.6653C95.4831 53.3759 95.3973 58.1089 95.7068 62.8214C96.0144 67.4998 96.7321 72.2258 98.6922 76.4864C100.652 80.747 103.982 84.5306 108.349 86.2564C104.646 78.2907 103.13 69.3234 104.011 60.5859C104.148 59.227 104.346 57.8579 104.858 56.5918C105.431 55.1724 106.356 53.9745 107.454 52.9111C108.618 52.1496 109.868 51.4956 111.119 50.9189C112.14 50.4483 113.183 50.0081 114.22 49.5594C116.656 48.5076 119.067 47.4095 121.13 45.7687C121.357 45.9264 121.587 46.0764 121.82 46.2173C123.516 47.2492 125.354 48.0345 127.13 48.9228C128.163 49.4397 129.175 49.9907 130.126 50.646C132.161 52.0473 133.877 53.9082 135.107 56.0491C135.655 57.0018 136.142 58.0491 137.038 58.6863C138.775 59.9216 141.076 58.0053 141.956 56.5158C145.122 51.157 145.538 44.3255 143.274 38.5291L143.274 38.5284Z" fill="#7B3E29"/>
<path d="M130.499 63.8996C130.4 65.0756 131.415 66.0044 132.348 64.9056C132.75 64.4325 132.783 63.5262 132.636 62.9443C132.478 62.3128 131.828 61.8925 131.217 62.2614C130.72 62.5613 130.545 63.3589 130.499 63.8996Z" fill="#7B3E29"/>
<path d="M121.387 74.7602C120.202 74.7602 119.018 74.5941 117.867 74.2626C117.815 74.2478 117.786 74.1944 117.8 74.1429C117.815 74.0914 117.869 74.0618 117.92 74.0766C120.152 74.7196 122.514 74.7299 124.751 74.1055C124.802 74.0914 124.856 74.121 124.871 74.1725C124.885 74.224 124.855 74.2774 124.804 74.2916C123.685 74.6037 122.536 74.7595 121.387 74.7595L121.387 74.7602Z" fill="#A45236"/>
<path d="M120.175 76.6407C120.122 76.6407 120.079 76.5982 120.078 76.5454C120.077 76.492 120.12 76.4482 120.174 76.4476L122.179 76.4199C122.234 76.4199 122.276 76.4618 122.277 76.5152C122.278 76.5686 122.235 76.6124 122.181 76.613L120.176 76.6407H120.175Z" fill="#A45236"/>
<path d="M122.524 70.4943C122.516 70.4943 122.507 70.493 122.498 70.491C121.84 70.3108 121.208 69.9948 120.669 69.5764C120.503 69.4476 120.318 69.288 120.202 69.0762C119.932 68.5812 120.11 67.9948 120.268 67.4773L120.285 67.4232C120.798 65.7348 120.882 63.9286 120.528 62.2003C120.517 62.1481 120.551 62.0973 120.603 62.0863C120.656 62.076 120.707 62.1095 120.718 62.1616C121.078 63.9215 120.992 65.7605 120.47 67.4792L120.453 67.5339C120.299 68.0386 120.14 68.56 120.373 68.9835C120.471 69.1644 120.638 69.3073 120.788 69.4238C121.307 69.8268 121.916 70.1312 122.55 70.3044C122.602 70.3185 122.632 70.3713 122.618 70.4228C122.606 70.4659 122.567 70.4936 122.524 70.4936V70.4943Z" fill="#A45236"/>
<path d="M134.58 59.8287C134.553 59.5172 133.721 59.0537 133.559 58.97C132.995 58.6804 132.369 58.5104 131.735 58.4776C131.017 58.4409 130.278 58.6347 129.633 58.9385C129.196 59.1445 128.067 59.8023 128.979 60.2909C129.29 60.4576 129.67 60.3301 130.007 60.2226C131.268 59.8216 132.634 59.7534 133.929 60.0276C134.072 60.0579 134.223 60.092 134.363 60.0482C134.527 59.9961 134.587 59.9188 134.58 59.8281V59.8287Z" fill="#7B3E29"/>
<path d="M113.647 63.8996C113.746 65.0756 112.731 66.0044 111.798 64.9056C111.396 64.4325 111.363 63.5262 111.509 62.9443C111.668 62.3128 112.317 61.8925 112.929 62.2614C113.426 62.5613 113.601 63.3589 113.647 63.8996Z" fill="#7B3E29"/>
<path d="M109.563 59.8292C109.59 59.5176 110.421 59.0542 110.584 58.9705C111.148 58.6808 111.774 58.5109 112.408 58.4781C113.126 58.4414 113.865 58.6351 114.51 58.939C114.947 59.1449 116.076 59.8028 115.164 60.2914C114.852 60.4581 114.473 60.3306 114.136 60.2231C112.875 59.8221 111.509 59.7539 110.214 60.0281C110.071 60.0583 109.92 60.0925 109.78 60.0487C109.615 59.9966 109.555 59.9193 109.563 59.8285V59.8292Z" fill="#7B3E29"/>
<path d="M139.799 56.62C141.581 55.7664 143.849 56.7687 144.809 58.3689C145.768 59.9691 145.704 61.9498 145.357 63.7817C145.13 64.9809 144.785 66.1846 144.093 67.2261C143.401 68.267 142.32 69.1353 141.046 69.3915C139.771 69.6477 138.32 69.1855 137.689 68.1402C137.462 67.7649 137.347 67.3388 137.254 66.9139C136.627 64.0681 136.344 58.2762 139.8 56.62H139.799Z" fill="#FBAE96"/>
<path d="M138.392 66.4242C138.374 66.4242 138.357 66.4094 138.356 66.3901C138.249 64.4944 138.837 62.5324 139.969 61.0075C140.853 59.816 141.964 59.1672 143.013 59.2264C143.033 59.2277 143.048 59.2444 143.047 59.2644C143.046 59.2843 143.029 59.2998 143.009 59.2985C141.551 59.2161 140.439 60.4964 140.027 61.0506C138.906 62.5627 138.323 64.5072 138.428 66.3862C138.43 66.4061 138.414 66.4229 138.394 66.4242C138.394 66.4242 138.393 66.4242 138.392 66.4242Z" fill="#A45236"/>
<path d="M138.864 63.2207C138.852 63.2207 138.84 63.2143 138.833 63.2027C138.823 63.1853 138.829 63.1635 138.846 63.1538C140.004 62.4902 141.359 62.4863 142.299 63.1435C142.315 63.1551 142.319 63.1776 142.308 63.1937C142.297 63.2098 142.274 63.2137 142.258 63.2027C141.341 62.561 140.016 62.5668 138.882 63.2162C138.877 63.2195 138.871 63.2207 138.864 63.2207Z" fill="#A45236"/>
<path d="M99.7685 57.6111C97.8013 57.4276 96.0223 59.1534 95.6786 60.9866C95.3349 62.8199 96.0842 64.655 97.0456 66.2533C97.6749 67.2993 98.4177 68.3086 99.4287 69.0457C100.44 69.782 101.754 70.2223 103.04 70.0209C104.324 69.8194 105.524 68.8834 105.753 67.6842C105.835 67.2536 105.795 66.814 105.735 66.3833C105.333 63.4977 103.586 57.9677 99.7685 57.6111Z" fill="#FBAE96"/>
<path d="M104.467 66.3861C104.426 66.3861 104.388 66.3597 104.375 66.3179C103.825 64.5323 102.611 62.9224 101.045 61.9009C100.475 61.5288 99.0078 60.7255 97.6975 61.2958C97.6485 61.317 97.5918 61.2945 97.5705 61.2456C97.5492 61.1967 97.5718 61.14 97.6208 61.1188C98.6041 60.6907 99.8911 60.9173 101.152 61.7393C102.755 62.7853 103.998 64.4338 104.561 66.2613C104.576 66.3121 104.548 66.3662 104.497 66.3816C104.487 66.3848 104.478 66.3861 104.468 66.3861H104.467Z" fill="#A45236"/>
<path d="M99.7214 64.7132C99.7027 64.7132 99.6834 64.7074 99.6666 64.6958C99.6228 64.6655 99.6118 64.605 99.6421 64.5613C100.309 63.5996 101.605 63.1239 102.944 63.3492C102.997 63.3582 103.032 63.4078 103.023 63.4605C103.014 63.5133 102.965 63.5481 102.912 63.5397C101.646 63.3273 100.425 63.7708 99.8007 64.6713C99.782 64.6984 99.7517 64.7132 99.7214 64.7132Z" fill="#A45236"/>
<path d="M135.891 67.6381C136.511 75.0258 135.397 82.4643 133.629 89.6647C140.341 85.1099 145.484 78.1297 147.287 70.2296C147.531 69.1624 147.715 68.0829 147.868 66.9996C149.126 58.1378 148.632 45.3296 141.777 35.4676C141.093 34.4827 135.717 35.4367 134.794 34.6713C133.765 33.8184 140.465 36.4975 139.131 36.5837C137.797 36.67 136.513 37.1167 135.281 37.6355C133.386 38.4324 131.568 39.4089 129.857 40.547C129.263 40.9422 128.659 41.3831 128.342 42.0223C127.974 42.7651 128.057 43.6418 128.149 44.4658C128.406 46.7799 128.625 47.7126 129.924 49.6494C131.106 51.4112 132.103 53.294 132.926 55.2483C134.506 58.9972 135.891 63.532 135.891 67.6394L135.891 67.6381Z" fill="#7B3E29"/>
<path d="M161.672 114.408C157.086 108.189 149.033 106.318 142.369 103.226C138.837 101.587 135.708 100.03 133.306 96.9157C132.671 96.0918 112.158 94.7549 111.02 97.0001C109.304 100.383 105.061 101.587 101.529 103.226C94.8646 106.318 87.7712 108.805 83.1848 115.024C80.7701 118.298 78.7764 121.938 79.4186 125.953C79.926 129.127 81.4084 132.046 82.7044 134.988C87.4714 145.809 94.3855 183.546 97.6623 203.256C109.58 209.999 137.941 206.256 145.682 203.69C149.078 183.569 156.534 145.562 161.193 134.988C162.489 132.045 163.971 129.126 164.479 125.952C165.121 121.937 164.086 117.681 161.671 114.407L161.672 114.408Z" fill="#FBAE96"/>
<path d="M148.852 105.927C148.852 105.927 125.058 110.246 98.6695 104.467C86.4507 107.69 78.0568 117.716 72.391 130.115C64.0216 148.428 88.1755 135.795 89.5399 164.01C89.5857 164.955 90.8778 166.278 90.8321 166.17C91.5007 167.751 91.5865 169.912 91.9218 171.603C92.6942 175.498 93.437 179.4 94.1598 183.306C95.3888 189.945 96.5597 196.596 97.6675 203.257C109.585 210 137.946 206.257 145.687 203.691C149.083 183.57 156.54 145.563 161.198 134.989C162.494 132.046 164.241 116.386 162.533 113.823C158.823 108.252 148.852 105.926 148.852 105.926L148.852 105.927Z" fill="white"/>
<path d="M162.865 114.434C172.118 126.981 177.697 148.371 183.064 164.162C188.5 180.155 188.158 184.201 186.605 188.003C184.294 193.659 164.55 187.633 160.48 178.546C156.409 169.458 150.409 152.118 147.894 144.297C145.379 136.476 149.038 116.661 162.865 114.433V114.434Z" fill="white"/>
<path d="M148.851 175.134C148.851 188.146 134.72 198.696 117.287 198.696C109.373 198.696 102.141 196.523 96.6014 192.932C93.0538 190.632 90.1999 187.751 88.3074 184.488C87.8671 183.729 83.1291 184.295 82.4611 183.745C81.2521 182.752 81.7886 173.809 82.7842 172.627C83.1278 172.217 86.0507 171.612 86.2641 170.763C89.0096 159.839 101.855 151.572 117.287 151.572C127.496 151.572 136.573 155.19 142.343 160.802C146.425 164.773 148.851 169.742 148.851 175.134Z" fill="#FCC583"/>
<path d="M101.896 160.089C100.912 160.616 99.9566 160.703 99.1307 160.499C99.0617 160.424 98.9959 160.348 98.9346 160.268C98.9224 160.252 98.9063 160.238 98.8927 160.223C96.9255 158.08 96.1098 152.047 96.645 150.623C96.7056 150.462 96.8042 150.358 96.9351 150.305C97.2085 150.193 97.6218 150.301 98.1183 150.556C99.9592 151.714 101.946 153.146 102.566 153.893C103.684 155.241 105.024 158.409 101.896 160.088V160.089Z" fill="#FCC583"/>
<path d="M147.471 169.768C148.726 170.002 150.479 169.82 151.387 169.088C153.006 167.783 153.646 165.689 154.066 163.697C154.241 162.686 154.668 160.661 153.764 159.907C153.182 159.431 152.291 159.804 151.941 160.402C151.595 160.991 151.623 161.708 151.791 162.359C152.528 165.113 155.901 166.722 158.547 165.748C160.646 164.971 161.133 163.817 160.678 164.488C158.631 167.503 153.649 166.68 151.881 163.671C151.236 162.575 150.866 160.953 151.772 159.893C152.322 159.267 153.349 159.001 154.034 159.571C155.145 160.506 154.823 162.524 154.585 163.735C154.221 165.373 153.85 167.604 152.859 168.985C151.659 170.696 149.532 172.277 147.381 171.779C146.154 171.518 145.878 169.47 147.47 169.768L147.471 169.768Z" fill="#FCC583"/>
<path d="M131.21 155.983C127.886 155.006 123.788 154.34 119.339 154.148C114.831 153.954 110.642 154.277 107.221 154.982C107.07 154.812 106.898 154.726 106.68 154.58C109.552 153.307 114.099 152.705 119.39 152.976C125.361 153.282 128.887 154.216 131.675 155.624C131.539 155.722 131.392 155.835 131.211 155.983H131.21Z" fill="#BD8440"/>
<path d="M96.7937 167.841C96.9497 166.764 96.6663 165.832 96.1605 165.759C95.6547 165.686 95.1183 166.5 94.9622 167.577C94.8062 168.654 95.0897 169.586 95.5954 169.659C96.1012 169.732 96.6377 168.918 96.7937 167.841Z" fill="#BD8440"/>
<path d="M85.9357 111.176C73.8117 120.989 60.7721 141.651 51.5896 155.581C42.2898 169.689 40.2587 180.781 46.3726 185.179C51.3362 188.75 63.5775 182.953 69.8101 175.186C76.0452 167.416 86.231 152.146 90.6407 145.212C95.0504 138.276 98.7522 116.813 85.9357 111.177V111.176Z" fill="white"/>
<path d="M99.3218 138.308C99.2838 138.34 99.2451 138.374 99.2051 138.409C99.1774 138.434 99.149 138.46 99.12 138.486C98.4855 139.067 96.1733 139.835 95.072 141.126C86.3409 151.358 66.1183 181.206 59.711 184.252C52.4049 187.724 47.2936 186.367 45.149 182.639C42.0966 177.333 44.2308 170.992 49.9489 164.686C55.3354 158.745 82.182 140.083 89.9021 130.86C90.3753 130.294 90.777 129.764 91.0969 129.275C91.0969 129.275 91.0981 129.274 91.0988 129.273C93.3955 125.76 99.8712 130.781 100.484 135.042C100.661 136.267 100.353 137.429 99.3218 138.308Z" fill="#FBAE96"/>
<path d="M93.8733 127.796C92.7282 126.881 93.1022 125.392 94.6019 123.436C96.1017 121.48 100.367 116.362 101.405 115.089C102.443 113.816 106.104 110.094 107.912 110.251C109.591 110.397 104.948 117.026 104.51 117.61C104.071 118.194 98.7222 124.666 97.6492 126.028C96.5763 127.39 95.1951 128.851 93.874 127.795L93.8733 127.796Z" fill="#FBAE96"/>
<path d="M98.4749 127.355C97.3297 126.44 97.7037 124.951 99.2035 122.995C100.703 121.039 104.969 115.921 106.006 114.648C107.044 113.375 110.686 109.653 112.513 109.81C114.193 109.954 109.549 116.586 109.111 117.169C108.672 117.753 103.323 124.225 102.25 125.587C101.177 126.949 99.7961 128.41 98.4749 127.355V127.355Z" fill="#FBAE96"/>
<path d="M113.956 129.513C114.68 130.472 115.501 131.73 116.096 132.127C116.691 132.524 120.862 135.461 117.955 129.758C115.047 124.056 115.768 124.403 114.206 122.33C112.643 120.256 107.597 122.727 103.143 124.787C98.5297 126.919 97.9358 129.072 98.54 130.089C99.1442 131.107 100.947 132.428 103.815 130.291C106.664 128.169 111.137 125.323 111.951 126.602C112.765 127.88 113.335 128.692 113.956 129.513Z" fill="#FBAE96"/>
<path d="M103.295 127.134C102.15 126.219 102.524 124.73 104.024 122.774C105.524 120.817 109.789 115.7 110.827 114.427C111.864 113.154 115.796 109.131 117.334 109.589C118.949 110.07 114.37 116.364 113.932 116.948C113.493 117.532 108.144 124.004 107.071 125.366C105.998 126.728 104.617 128.189 103.296 127.133L103.295 127.134Z" fill="#FBAE96"/>
<path d="M107.642 138.206C108.607 139.431 110.176 140.027 110.919 140.852C111.662 141.678 112.263 143.531 109.676 142.85C107.088 142.169 106.302 141.31 104.192 140.525C102.743 139.986 101.51 140.454 99.7938 140.402C97.6209 140.337 97.6737 138.991 95.6878 140.525C93.3285 142.346 109.582 122.613 107.681 124.809C105.952 126.805 103.259 130.527 103.817 133.821C104.098 135.485 106.821 137.164 107.642 138.206H107.642Z" fill="#FBAE96"/>
<path d="M106.111 126.667C106.111 126.667 106.093 126.879 106.059 127.247C106.021 127.659 99.9988 137.944 99.1967 138.409C99.149 138.437 99.1013 138.465 99.0536 138.494C98.4081 138.881 97.2217 138.569 96.6221 139.046C95.8986 139.621 94.9901 140.211 94.471 140.651C92.3942 142.408 85.2067 139.292 87.9013 135.054C88.6711 133.843 89.3662 132.571 90.0413 131.286C90.3934 130.617 90.7396 129.945 91.0885 129.275C91.0885 129.275 91.0898 129.274 91.0904 129.273C92.1511 127.239 93.2356 125.237 94.562 123.465C94.8689 123.055 95.188 122.657 95.5233 122.274C97.1637 120.399 104.609 124.079 106.111 126.667Z" fill="#FBAE96"/>
<path d="M99.9791 122.968C99.9591 122.968 99.9391 122.961 99.9217 122.948C99.8791 122.916 99.8701 122.856 99.9017 122.813C99.9346 122.769 103.26 118.307 106.715 113.956C106.749 113.914 106.809 113.907 106.851 113.941C106.893 113.973 106.9 114.035 106.867 114.076C103.414 118.426 100.09 122.885 100.057 122.929C100.038 122.955 100.009 122.968 99.9797 122.968H99.9791Z" fill="#E8825F"/>
<path d="M104.073 123.883C104.053 123.883 104.033 123.876 104.015 123.864C103.973 123.831 103.964 123.772 103.995 123.728C104.032 123.679 107.688 118.789 111.142 114.438C111.176 114.396 111.236 114.389 111.278 114.423C111.32 114.455 111.327 114.516 111.294 114.558C107.841 118.908 104.187 123.795 104.151 123.844C104.132 123.87 104.102 123.883 104.073 123.883Z" fill="#E8825F"/>
<path d="M186.873 182.458C184.735 176.723 178.486 174.309 169.974 174.67C161.461 175.03 131.028 185.743 120.961 184.583C115.587 183.963 116.269 194.069 122.304 194.736C128.338 195.402 171.466 198.061 178.81 194.67C186.154 191.279 188.375 186.487 186.873 182.458Z" fill="#FBAE96"/>
<path d="M104.38 190.686C103.884 187.667 103.632 184.737 104.162 181.89C105.977 182.08 108.414 182.205 110.097 182.511C112.673 182.993 115.157 183.81 117.724 184.473C119.04 184.809 120.023 183.956 121.238 184.049C122.643 184.158 127.287 184.308 129.91 183.9C131.567 183.642 129.62 187.672 130.142 189.23C130.207 189.421 130.267 189.618 130.25 189.799C130.23 190.014 130.098 190.177 129.971 190.33C128.581 191.991 128.805 195.08 126.384 195.08C123.244 195.08 119.892 195.338 117.414 195.327C113.816 195.345 108.971 195.177 105.07 195.078C104.223 193.442 104.66 192.343 104.38 190.686Z" fill="#FBAE96"/>
<path d="M92.0002 180.63C91.4521 180.602 90.8822 180.577 90.3625 180.707C89.8427 180.837 89.3708 181.158 89.2979 181.612C89.2715 181.773 89.3011 181.954 89.4301 182.097C89.5823 182.266 89.8363 182.347 90.0691 182.416C95.5846 184.007 100.138 184.628 105.718 185.742C107.725 186.112 106.578 183.067 105.63 182.422C104.816 181.878 103.919 181.866 102.953 181.728C99.512 181.233 95.9425 180.836 91.9996 180.63H92.0002Z" fill="#FBAE96"/>
<path d="M92.7585 189.781C92.1517 189.643 91.5179 189.497 90.9479 189.576C90.3779 189.656 89.9027 190.045 90.0626 190.542C90.1896 190.938 90.6623 191.266 91.1072 191.53C94.0816 193.291 97.5177 194.157 100.746 194.646C103.441 195.046 105.347 195.318 108.177 194.775C108.426 194.725 108.689 193.996 108.811 193.815C109.379 192.95 108.013 191.852 107.062 191.637C105.996 191.398 104.602 191.585 103.494 191.484C100.037 191.178 96.4473 190.619 92.7579 189.781L92.7585 189.781Z" fill="#FBAE96"/>
<path d="M104.74 185.718C104.898 186.254 91.8773 183.036 87.8531 183.576C87.425 183.633 87.0168 183.842 86.7938 184.211C86.118 185.329 86.8028 187.947 104.484 191.268C105.744 191.534 106.997 191.768 108.243 191.971C106.893 189.874 105.725 187.784 104.74 185.718H104.74Z" fill="#FBAE96"/>
<path d="M104.461 188.569C104.456 188.569 104.452 188.569 104.448 188.568C99.2289 187.869 93.4961 186.88 86.9373 184.397C86.8876 184.378 86.8625 184.322 86.8812 184.273C86.8999 184.223 86.956 184.198 87.0056 184.217C93.5457 186.692 99.2657 187.679 104.473 188.377C104.526 188.384 104.563 188.432 104.556 188.486C104.55 188.534 104.508 188.569 104.461 188.569V188.569Z" fill="#E8825F"/>
<path d="M113.691 180.028C112.476 179.602 111.296 179.123 110.047 178.949C108.934 178.794 107.879 177.941 107.023 177.211C106.872 177.083 106.633 177.162 106.549 177.37C106.186 178.275 106.324 179.345 106.805 180.187C107.357 181.155 108.279 181.864 109.232 182.485C110.185 183.106 111.198 183.674 112.069 184.487C112.639 185.019 113.144 185.652 113.775 186.15C114.491 186.712 115.2 186.811 116.021 186.981C117.057 187.195 118.099 187.292 119.132 187.355C120.16 187.44 123.157 187.532 123.452 186.282C123.754 184.992 121.884 184.138 120.978 183.507C118.49 181.815 116.117 180.879 113.69 180.029L113.691 180.028Z" fill="#FBAE96"/>
<path d="M115.817 139.133C117.842 137.112 117.842 133.835 115.817 131.814C113.793 129.793 110.511 129.793 108.486 131.814C106.462 133.835 106.462 137.112 108.486 139.133C110.511 141.154 113.793 141.154 115.817 139.133Z" fill="#FFCA42"/>
<path d="M112.155 139.753C111.999 139.753 111.842 139.745 111.684 139.727C110.545 139.604 109.523 139.045 108.806 138.154C108.088 137.263 107.761 136.146 107.885 135.01C108.009 133.873 108.569 132.853 109.461 132.136C110.353 131.42 111.472 131.093 112.611 131.217C114.961 131.472 116.665 133.588 116.41 135.935C116.286 137.071 115.726 138.092 114.834 138.808C114.065 139.425 113.128 139.753 112.156 139.753H112.155ZM112.139 131.385C111.211 131.385 110.317 131.698 109.582 132.287C108.73 132.972 108.195 133.946 108.077 135.031C107.959 136.116 108.271 137.182 108.957 138.033C109.642 138.884 110.618 139.417 111.705 139.535C112.792 139.653 113.86 139.342 114.712 138.657C115.564 137.973 116.098 136.999 116.217 135.914C116.461 133.674 114.833 131.653 112.589 131.409C112.439 131.393 112.288 131.385 112.139 131.385Z" fill="#D1990A"/>
<path d="M112.104 131.385C112.051 131.385 112.008 131.342 112.008 131.288V130.421C112.008 130.367 112.051 130.324 112.104 130.324C112.158 130.324 112.201 130.367 112.201 130.421V131.288C112.201 131.342 112.158 131.385 112.104 131.385Z" fill="#D1990A"/>
<path d="M112.104 140.62C112.051 140.62 112.008 140.577 112.008 140.523V139.656C112.008 139.602 112.051 139.559 112.104 139.559C112.158 139.559 112.201 139.602 112.201 139.656V140.523C112.201 140.577 112.158 140.62 112.104 140.62Z" fill="#D1990A"/>
<path d="M117.153 135.57H116.284C116.231 135.57 116.188 135.526 116.188 135.473C116.188 135.42 116.231 135.376 116.284 135.376H117.153C117.207 135.376 117.25 135.42 117.25 135.473C117.25 135.526 117.207 135.57 117.153 135.57Z" fill="#D1990A"/>
<path d="M107.896 135.57H107.026C106.973 135.57 106.93 135.526 106.93 135.473C106.93 135.42 106.973 135.376 107.026 135.376H107.896C107.949 135.376 107.992 135.42 107.992 135.473C107.992 135.526 107.949 135.57 107.896 135.57Z" fill="#D1990A"/>
<path d="M115.089 132.61C115.065 132.61 115.039 132.601 115.021 132.582C114.983 132.544 114.983 132.483 115.021 132.446L115.635 131.832C115.673 131.794 115.735 131.794 115.772 131.832C115.809 131.87 115.81 131.931 115.772 131.969L115.157 132.582C115.139 132.601 115.114 132.61 115.089 132.61Z" fill="#D1990A"/>
<path d="M108.558 139.141C108.533 139.141 108.508 139.132 108.489 139.113C108.451 139.075 108.451 139.014 108.489 138.976L109.104 138.363C109.142 138.325 109.203 138.325 109.241 138.363C109.279 138.401 109.279 138.462 109.241 138.499L108.626 139.113C108.607 139.132 108.582 139.141 108.558 139.141Z" fill="#D1990A"/>
<path d="M115.704 139.141C115.679 139.141 115.654 139.132 115.635 139.113L115.021 138.499C114.983 138.461 114.983 138.4 115.021 138.363C115.059 138.325 115.12 138.325 115.157 138.363L115.772 138.976C115.81 139.014 115.81 139.076 115.772 139.113C115.753 139.132 115.728 139.141 115.704 139.141Z" fill="#D1990A"/>
<path d="M109.172 132.61C109.148 132.61 109.123 132.601 109.104 132.582L108.489 131.969C108.451 131.931 108.451 131.87 108.489 131.832C108.528 131.794 108.589 131.794 108.626 131.832L109.241 132.446C109.279 132.484 109.279 132.545 109.241 132.582C109.222 132.601 109.197 132.61 109.172 132.61Z" fill="#D1990A"/>
<path d="M99.9098 122.967C99.0928 122.967 98.281 122.524 97.958 122.201C97.9199 122.163 97.9206 122.102 97.958 122.065C97.996 122.027 98.0573 122.027 98.0947 122.065C98.3855 122.355 99.156 122.774 99.9104 122.774C99.9265 122.774 99.9426 122.774 99.9588 122.774C100.014 122.774 100.057 122.815 100.058 122.868C100.059 122.921 100.017 122.966 99.9639 122.967C99.9459 122.967 99.9278 122.967 99.9098 122.967Z" fill="#E8825F"/>
<path d="M104.019 123.883C103.202 123.883 102.39 123.44 102.067 123.117C102.029 123.079 102.03 123.018 102.067 122.981C102.105 122.944 102.167 122.943 102.204 122.981C102.495 123.271 103.265 123.69 104.02 123.69C104.036 123.69 104.052 123.69 104.068 123.69C104.124 123.69 104.166 123.731 104.167 123.784C104.169 123.838 104.127 123.882 104.073 123.883C104.055 123.883 104.037 123.883 104.019 123.883Z" fill="#E8825F"/>
<path d="M109.206 122.495C109.169 122.495 109.133 122.473 109.117 122.436C109.096 122.387 109.119 122.33 109.168 122.309L111.061 121.499C111.11 121.478 111.166 121.501 111.188 121.55C111.209 121.599 111.186 121.655 111.137 121.676L109.244 122.486C109.232 122.491 109.219 122.494 109.206 122.494V122.495Z" fill="#E8825F"/>
<path d="M99.9641 127.682C98.1632 127.682 96.4642 127.452 95.6834 127.329C95.6305 127.321 95.5944 127.271 95.6028 127.219C95.6112 127.166 95.6608 127.13 95.7137 127.138C96.7499 127.302 99.4141 127.654 101.767 127.399C102.873 127.279 104.402 126.806 105.66 126.194C105.708 126.171 105.766 126.191 105.79 126.238C105.813 126.286 105.793 126.344 105.745 126.368C104.469 126.989 102.915 127.469 101.788 127.591C101.189 127.656 100.572 127.682 99.9648 127.682H99.9641Z" fill="#E8825F"/>
<path d="M95.4563 131.387C95.4176 131.387 95.3808 131.364 95.366 131.325C95.3466 131.276 95.3711 131.22 95.4208 131.2C98.5203 129.997 103.789 129.539 104.501 129.539C104.555 129.539 104.598 129.582 104.598 129.636C104.598 129.689 104.555 129.732 104.501 129.732C103.795 129.732 98.5661 130.187 95.4911 131.381C95.4795 131.385 95.4679 131.387 95.4563 131.387Z" fill="#E8825F"/>
<path d="M97.4791 133.185C97.4675 133.185 97.4558 133.183 97.4442 133.178C97.3946 133.159 97.3701 133.103 97.3894 133.053C97.6699 132.334 99.5069 130.672 101.074 129.892C101.122 129.868 101.18 129.887 101.204 129.935C101.228 129.982 101.209 130.04 101.161 130.064C99.6559 130.813 97.8324 132.449 97.57 133.124C97.5551 133.162 97.5184 133.185 97.4797 133.185L97.4791 133.185Z" fill="#E8825F"/>
</g>
<defs>
<clipPath id="clip0_886_11818">
<rect width="239" height="191" fill="white"/>
</clipPath>
</defs>
</svg>
