<svg width="386" height="240" fill="none" xmlns="http://www.w3.org/2000/svg"><path opacity=".75" d="M233.986 4.924c2.407.954 5.015 2.864 4.012 3.102-1.003.478 0 2.387.602 4.296.602 1.91-1.404.716-1.404 2.386 0 1.671.601 2.864-.401 3.58-1.003.716-.402 1.67-.402 3.103 0 1.67-2.005.238-3.008 2.386-.602.955 0 1.91.802 3.341.602 1.432.201 2.625-1.605 2.387-1.805-.239-4.011.716-7.02.716-3.009 0-23.869-.955-29.285-.478-5.416.478-15.244 2.625-17.651 3.103-2.608.716-29.085 7.875-45.532 14.557-16.448 6.682-42.323 21.001-52.954 29.354-10.631 8.353-34.1 29.354-43.727 41.763-9.628 12.649-18.052 22.195-22.465 34.604-4.413 12.649-9.829 33.889-9.227 41.048 0 0-1.404-1.193-2.407-7.637-1.003-6.443-1.805-26.728 0-38.899 1.605-11.217 10.23-35.559 24.27-52.026 14.041-16.466 27.079-32.217 45.733-45.582 18.654-13.364 29.285-21.24 51.149-30.07 21.863-9.068 25.072-9.545 26.677-10.5 1.605-.954 2.407-1.193 4.012-1.193 1.604 0 2.607-1.193 4.011-1.67 1.404-.24 18.454-5.49 36.506-6.205 18.253-.716 33.297 2.147 39.314 4.534Z" fill="#cbf1cc"/><path opacity=".75" d="M334.081 98.713s-15.846 15.512-25.474 22.91c-9.428 7.399-40.317 34.366-74.617 42.48-34.299 8.114-61.378 11.932-105.105 9.068-43.727-2.863-63.585-15.75-70.605-25.296-7.02-9.546-14.04-31.502-14.843-41.764 0 0-2.407 25.774-2.608 33.65-.2 8.114.2 31.501 16.85 46.059 16.447 14.557 47.738 21.478 74.014 23.149 26.276 1.67 67.797-.955 89.059-8.114 21.261-7.16 55.16-21.956 63.584-27.206 8.425-5.489 12.035-8.592 11.032-8.353-1.003.239-8.224 5.489-9.828 6.444-1.605.954-12.637 7.159-16.649 9.068-3.409 1.671-7.421 2.625-8.223 2.864 1.203-.239 9.026-3.818 11.834-5.25 2.808-1.671 6.82-4.296 7.622-4.773.802-.478 1.003-1.432 2.006-1.671 1.003-.238 1.404-.238 2.006-.716.601-.716 2.808-1.193 3.811-1.909 1.003-.716 1.404-1.432 1.805-1.909.401-.477 1.404-.955 1.805-1.671.602-.716.803-.954 1.805-1.193 1.003 0 2.207-.477 2.608-1.193.401-.716 1.204-1.193 1.605-1.193s2.006 0 2.607-.716c.401-.478 10.23-7.876 13.439-10.978 3.41-3.103 5.416-5.489 6.018-6.205.602-.716.802-1.671 1.203-1.671.602-.238 1.003-.715 1.003-.954 0-.477.401-1.193 1.003-1.432.602-.239 1.605-1.671 3.41-5.012 2.006-3.341 2.407-3.818 4.413-11.932 2.006-7.875 4.613-21.001 3.41-24.58Zm-36.506 39.616c-.803.716-1.605 1.193-2.407 1.909-5.617 4.296-19.657 14.558-30.088 19.331-13.639 6.204-33.497 14.318-39.715 15.989-6.218 1.67-7.02 1.67-8.224 1.193-1.203-.477-.802 0-3.61.239-2.808.238-5.817 1.67-7.021 1.909-1.203.239-13.439 2.148-26.878 2.864-13.639.716-34.901-.716-34.901-.716s34.099.477 49.343-1.909c15.445-2.387 21.061-3.819 23.669-4.535 2.608-.716 20.861-4.057 39.114-13.364 16.648-8.353 29.686-14.796 38.11-21.001 1.805-1.432 2.808-2.148 2.608-1.909Z" fill="#cbf1cc"/><path opacity=".75" d="M385.634 91.555c-.802-4.296-1.404-10.978-4.012-16.706-2.607-5.727-12.837-19.808-20.058-25.296-7.221-5.49-23.869-14.558-37.509-20.285-13.84-5.49-22.465-6.683-27.078-7.637-4.614-.955-10.23-2.148-13.038-2.864-2.808-.477-19.256-2.148-25.073-2.864-5.616-.716-14.843-1.67-19.657-1.432-4.613.239-21.864-.238-24.672-.477s-10.229-.716-14.241-.477c-4.012.238-11.433 1.432-15.445 1.909-4.011.477-25.273 2.625-31.09 4.773-5.616 2.148-8.224 2.386-11.433 2.625-3.009.239-6.018 2.386-6.82 2.386-.802 0-15.645 4.296-20.058 5.728-4.413 1.432-19.457 9.546-28.282 15.274C78.342 51.7 69.516 58.86 64.1 64.349c-5.416 5.489-9.428 9.068-14.643 20.762-5.014 11.455-6.419 19.808-7.22 29.354-.803 9.546-2.207 20.046-1.806 28.876.401 8.83 1.805 15.513 2.607 17.183 0 0 4.413-42.002 31.692-66.583 27.079-24.58 73.414-39.615 133.789-45.343 60.375-5.728 122.756 15.512 136.195 24.82 0 0 1.204-.478-3.209-3.103-4.613-2.625-10.631-5.012-10.631-5.012s4.413.239 13.84 5.728c9.428 5.489 15.044 10.74 19.256 15.035 4.012 4.057 8.625 10.023 10.43 16.944 1.806 6.682 3.21 16.705 3.21 24.342 0 7.637-1.204 12.648-.602 11.455.602-1.193 5.015-12.887 7.02-24.342 1.806-11.455 2.407-18.615 1.605-22.91ZM318.64 36.427c-6.62-3.102-11.835-3.818-14.041-4.296-2.207-.477-3.21-.954-5.416-1.193-2.206-.239.401-.955-2.006-1.432s-5.616-.477-9.427-.954c-3.811-.478-7.02-2.148-11.634-2.148-4.413 0-12.436-1.91-17.852-2.148-5.415-.239-11.032-.477-15.445-.716-4.412-.239-7.822-1.193-12.034-1.193-4.012 0-9.428-.478-5.416-1.194 2.006-.477 9.628-.715 13.439-.715 3.61 0 11.834.715 14.843.954 3.009.239 39.113 4.296 44.73 6.205 5.616 1.91 24.872 7.875 32.695 11.216 7.622 3.341 12.837 7.398 12.837 7.398s-18.654-6.682-25.273-9.784Z" fill="#cbf1cc"/><path opacity=".75" d="M385.029 89.168c-.402-1.432-10.832 24.581-16.248 32.217-5.415 7.637-27.68 27.684-39.715 35.082-12.035 7.398-49.343 23.865-52.753 25.296-3.209 1.432-5.416.716-7.622 1.671-2.206.955.201-1.432-2.608-.477-2.808.954-24.471 7.636-28.884 8.83-4.412 1.193-20.659 5.25-26.677 6.443-6.017 1.193-50.547 7.637-67.195 7.876-16.849.238-46.334-1.194-57.567-2.626-11.233-1.431-26.076-4.773-37.108-7.398-11.032-2.625-20.058-9.784-25.674-14.319-5.617-4.295-8.425-10.261-10.832-15.989-2.206-5.489-6.619-21.478-6.619-30.786 0 0-3.811 8.114-4.413 22.195-.602 14.08.602 39.138 9.026 49.4 8.425 10.262 27.079 23.626 53.355 27.683 26.076 4.057 55.361 5.012 60.175 5.012s19.657-.239 22.666-.239c3.008 0 5.014-.239 7.421-.477 2.407-.239 2.207-1.671 1.003-1.671-1.203 0-.802.239-2.607.478-1.806.238-2.608.715-3.611.238-1.003-.477-1.605-.477-2.808-.238-1.204.238-1.805 0-3.41 0-1.605 0-1.203 0-3.009.238-1.805.239-2.407-1.193-2.407-1.193s1.404-.477 3.009-.477 9.628 0 11.233-.239c1.404-.239 3.41-.239 4.814 0s3.008 0 4.212 0c1.203 0 1.003-1.671 2.206-1.671 1.204 0 .602.478 2.207.478 1.604 0 3.61-.716 5.014-.716 1.404 0 3.41-2.387 5.416-2.387 2.006 0 3.209-.716 3.61.478.402 1.193 1.003.954 1.003.238s0-2.386 1.404-2.625c1.405-.239 3.009-.239 4.814-.716 1.806-.477 6.018-1.432 7.422-1.432s2.608.716 2.608.716-4.814.478-6.82.955c-2.006.477-5.015 1.432-3.41 1.432h4.814c1.203 0 1.604.477 3.209 0 1.605-.478 2.207-1.194 4.212-1.432 2.006-.239 2.407-.955 4.413-.955h3.611c.802 0 3.008-.238 4.412-.477 1.405-.239 1.605-1.432 3.009-1.671 1.404-.238 5.617-.716 7.021-.954 1.404-.239 3.61-.955 5.014-1.432 1.404-.477 3.811-1.193 5.416-1.432 1.605-.239 1.003.477 3.209.477 2.207 0 2.808.955 6.218-.716 3.41-1.67 2.808-1.909 4.614-2.863 1.805-.955 5.415-1.91 7.822-2.387 2.407-.477 3.41-1.193 4.614-1.193 1.203 0 2.006 0 1.805-.955-.201-.954 1.003-1.909 1.605-.954.601.954 2.005.716 2.005.716 2.207-.955 4.614-2.387 5.817-2.387 1.204 0 2.006-.477 4.413-1.432 2.407-.954 2.407-.954 3.811-1.193 1.404-.239 1.204-2.864 3.009-3.341 1.805-.477 5.215-1.193 7.221-2.148 2.006-.954 3.41-.716 5.416-1.67 2.005-.955 1.805.238-3.41 1.909-5.215 1.67-5.416 2.625-3.611 2.386 1.805-.238 4.212-1.909 7.021-2.625 2.808-.716 3.61-1.193 4.412-1.909.803-.716 0-1.671 1.806-2.387 1.805-.716 5.014-2.386 6.819-3.102 1.806-.716 5.015-1.193 6.62-2.148 1.604-.954 3.811-1.432 5.215-2.386 1.404-.955 3.41-2.148 2.607-2.148-.802 0-3.41 1.432-5.616 2.386-2.206.955-3.811.716-3.811.716s2.407-1.432 4.613-2.148c2.207-.716 2.809-1.67 4.614-2.386 1.805-.716 3.009-1.909 2.407-1.909-.602 0-3.611.477-2.006-.478 1.605-.954 3.61-1.67 6.017-2.863 2.407-1.194 5.216-4.296 5.216-4.296s.401 1.193-1.003 2.625-2.407 2.387-.401 1.671c2.005-.716 1.002 0 3.209-1.432 2.206-1.432 5.616-3.341 8.625-5.25 3.009-1.91 3.61-1.91 4.814-3.103 1.203-1.193 1.604-.716 1.203-1.193-.401-.477-1.203-.955-1.203-.955 2.206-1.193 2.808-2.625 4.413-3.341 1.604-.716 4.011-4.534 5.616-5.727 1.605-1.194 4.413-2.864 5.416-4.057 1.003-1.194 2.005-2.148 3.61-3.819 1.605-1.67 4.413-6.205 5.416-7.637 1.003-1.431 2.206-3.579 2.808-5.25.602-1.67 3.209-6.205 5.215-13.125 4.012-7.16 9.026-30.786 6.018-38.9Zm-69.201 83.765c-8.826 4.773-21.061 10.978-23.87 12.172-2.607 1.193-13.238 3.818-18.052 6.204-4.814 2.148-18.454 5.489-23.268 7.16-4.813 1.67-33.697 9.068-42.924 10.262-9.227 1.193-35.303 4.773-40.317 4.773-4.814 0-8.425-.239-10.23 0-1.805.238-4.613.954-7.221.954-2.607 0-3.61.716-5.616.716h-6.018c-2.206 0-61.578-1.909-71.407-6.682-1.605-.716 35.303 3.58 38.311 3.818 3.009.239 27.28 1.671 35.102.239 7.823-1.193 30.088-.955 35.303-1.67 5.415-.716 41.52-7.16 45.331-7.399 3.811-.238 21.262-6.443 27.079-8.114 5.616-1.67 28.282-7.159 35.302-9.068 7.021-1.909 17.25-8.114 23.87-10.978 6.418-2.864 29.084-16.467 33.497-19.569.401 0-15.846 12.171-24.872 17.182Z" fill="#cbf1cc"/></svg>