<svg width="160" height="115" viewBox="0 0 160 115" fill="none" xmlns="http://www.w3.org/2000/svg">
<mask id="mask0_2051_4302" style="mask-type:alpha" maskUnits="userSpaceOnUse" x="0" y="0" width="160" height="115">
<rect width="160" height="115" fill="#D9D9D9"/>
</mask>
<g mask="url(#mask0_2051_4302)">
<path opacity="0.75" d="M26.4492 101.444C26.6675 103.611 26.8942 104.001 27.437 106.188C28.0124 108.253 27.6795 110.011 26.9386 111.068C26.1977 112.125 25.094 112.559 23.9322 112.713C22.7704 112.868 22.3879 112.569 21.4017 112.308C20.4156 112.048 18.5142 112.007 17.7293 111.733C16.9897 111.538 15.7046 111.66 14.5952 111.366C13.4858 111.073 11.8054 110.695 11.7289 109.488C11.6523 108.281 11.7047 107.833 12.549 107.133C13.3481 106.355 14.089 105.298 14.1485 104.325C14.2079 103.351 15.2363 100.458 15.1853 99.6535C15.1342 98.8487 15.3055 96.4543 15.644 95.4228C15.9826 94.3913 15.8479 92.9051 16.1411 91.7957C16.4343 90.6863 17.3153 86.1056 17.6864 84.9509C18.0575 83.7961 18.8848 80.9157 19.1128 80.0528C19.4641 79.2225 20.0448 76.2769 20.331 75.6931C20.6172 75.1094 21.1838 73.2151 21.4572 72.4301C21.698 71.7684 22.0436 70.2113 22.6159 69.0438C23.1882 67.8763 24.0155 64.9958 24.5354 64.2761C25.0553 63.5563 25.4789 61.9538 25.901 61.6038C26.3232 61.2539 26.9537 60.3655 27.4864 59.8469C28.0644 59.4062 29.6611 59.1029 31.0893 58.6891C32.5953 58.2299 34.9317 58.1221 36.0028 57.8117C37.1192 57.5793 38.2286 57.8725 38.3576 58.6319C38.4866 59.3913 37.6224 60.4158 37.2909 60.9216C36.9594 61.4274 35.139 64.5729 34.697 65.2473C34.2549 65.9218 31.5421 72.1942 30.9104 74.3351C30.2786 76.476 30.4785 77.7157 29.8423 77.8773C29.3294 78.0714 29.277 78.5191 29.3607 79.2006C29.4897 79.96 29.2489 80.6217 28.9755 81.4066C28.78 82.1462 27.6001 87.1095 27.5081 88.2061C27.494 89.2574 27.0238 92.0344 26.8538 93.1764C26.6839 94.3183 27.1642 94.2475 26.6896 95.0452C26.215 95.8429 26.8824 96.8105 26.4857 97.5629C26.4135 98.3351 26.2947 100.282 26.4492 101.444Z" fill="#FFCA42"/>
<path opacity="0.75" d="M69.5252 46.2303C69.0647 45.9767 67.8576 46.0533 66.4294 46.4671C65.7805 46.4275 65.1316 46.3879 64.7292 46.4134C63.7559 46.354 60.296 47.2199 59.5041 47.4721C58.8679 47.6337 58.5562 47.815 58.5364 48.1395C58.0037 48.6581 57.5164 49.2546 56.7952 49.9872C55.6519 51.0697 54.6887 53.7164 53.6928 56.4864C52.6191 59.3017 48.6757 75.4693 48.2125 77.7207C47.7494 79.9721 46.7408 82.5409 46.3525 81.5151C45.9189 80.4114 44.6788 74.8745 44.0849 71.8822C43.8978 70.8437 42.339 66.0139 41.9507 64.9881C41.6404 63.917 39.2244 59.5859 38.4465 58.7869C37.6686 57.9878 37.0976 57.9029 36.0917 57.9667C35.0857 58.0305 33.846 58.2304 33.0866 58.3594C32.3272 58.4883 29.6466 58.9008 28.6534 59.1658C27.7382 59.3855 27.2693 60.91 27.3402 61.3903C27.3402 61.3903 28.2796 62.8255 28.9598 63.9943C29.5946 65.0853 31.492 68.8837 31.9001 69.585C32.3081 70.2863 33.5324 72.3902 33.7323 73.6299C33.9321 74.8696 35.1467 80.0041 35.2488 81.6136C35.3963 83.301 36.37 89.0972 36.3489 90.6741C36.3731 92.329 37.1641 99.066 37.364 100.306C37.5638 101.545 38.2255 101.786 39.1465 102.293C40.0221 102.723 41.5735 102.341 42.8713 102.421C44.1691 102.5 47.109 102.354 48.2057 102.446C48.2057 102.446 49.5035 102.525 50.5816 101.689C51.6598 100.853 51.5039 100.944 53.4335 98.8821C55.3631 96.8205 54.6574 95.2493 55.7043 93.2841C56.7512 91.3189 57.6591 85.8881 58.1222 83.6367C58.5854 81.3854 61.2142 68.6947 62.0669 66.2166C62.3077 65.5549 62.6789 64.4002 63.1152 62.9989C63.3929 64.1933 63.7033 65.2644 63.9102 65.9784C64.6216 68.2765 65.3968 71.5805 66.0118 72.9958C66.7501 74.4438 68.228 76.0872 69.2792 76.1013C70.4084 76.0701 72.8553 75.7936 74.5229 75.9706C76.1905 76.1476 78.9618 75.891 79.9748 75.3015C80.9878 74.712 80.0867 73.8804 79.5879 73.0233C79.0891 72.1661 78.6044 70.2577 78.3139 68.8621C77.9454 67.5119 76.8316 65.2394 76.6062 63.5973C76.3029 62.0006 74.5302 56.9823 74.4139 56.4241C74.2977 55.8658 71.8192 49.2763 71.1589 47.783C71.0555 47.426 70.7962 47.1597 70.5822 46.9712C70.7579 46.5561 70.0636 46.4385 69.5252 46.2303Z" fill="#FFCA42"/>
<path opacity="0.75" d="M69.2798 76.1039C70.7207 75.8913 74.3932 76.4663 76.1911 76.1502C77.9437 75.7562 80.7207 76.2264 82.1656 72.2563C83.6105 68.2863 83.8126 61.2843 85.4856 56.4514C87.2039 51.6964 89.384 45.9425 90.6079 42.3097C90.6079 42.3097 91.8564 46.0685 93.1515 48.6527C94.4467 51.2369 97.2875 52.713 99.7471 52.6378C102.207 52.5625 104.9 52.3512 106.886 51.8212C108.795 51.3365 110.835 49.1063 111.804 47.1864C112.695 45.3119 113.296 42.0418 114.011 40.5825C114.681 39.0452 116.559 30.4421 117.688 30.4108C118.818 30.3796 122.671 31.2662 124.651 31.2619C126.63 31.2575 131.27 31.1651 132.569 29.9919C133.868 28.8186 134.968 26.4057 135.482 24.9591C135.996 23.5125 136.122 21.0401 136.247 19.8202C136.449 18.555 136.333 17.9967 137.718 15.0001C139.104 12.0034 138.974 12.4964 139.618 10.5568C140.263 8.61709 140.107 8.70777 139.782 8.68796C139.503 8.74607 139.458 8.66814 139.289 8.55764C139.121 8.44714 139.03 8.2913 139.14 8.12269C139.206 7.87616 139.303 7.50636 139.524 7.16914C139.745 6.83192 140.187 6.15748 139.954 6.29351C139.72 6.42954 139.687 6.55281 139.519 6.44231C139.35 6.3318 139.259 6.17596 139.448 5.96201C139.636 5.74805 139.857 5.41083 139.565 5.26775C139.273 5.12467 138.78 4.99435 138.78 4.99435C138.78 4.99435 138.768 4.79316 138.579 5.00712C138.436 5.29899 138.26 5.71414 138.105 5.80483C137.949 5.89551 137.722 5.5059 137.755 5.38263C137.787 5.25936 138.028 4.59769 138.327 4.21513C138.581 3.75464 138.457 3.72206 138.678 3.38484C138.899 3.04762 138.874 2.64525 138.607 2.90454C138.341 3.16384 138.01 3.66968 137.789 4.0069C137.645 4.29877 137.424 4.63599 137.392 4.75925C137.281 4.92786 137.249 5.05113 137.126 5.01855C137.002 4.98597 136.698 4.6417 136.698 4.6417C136.698 4.6417 136.64 4.36259 136.705 4.11606C136.77 3.86953 136.926 3.77884 137.036 3.61023C137.101 3.3637 136.855 3.29854 136.654 3.31131C136.53 3.27873 135.894 3.44029 135.862 3.56355C135.751 3.73216 135.387 4.36126 135.231 4.45195C135.075 4.54263 130.395 12.2732 129.822 13.4407C129.283 14.4849 127.279 18.5712 126.837 19.2456C126.395 19.92 125.798 20.6852 125.415 20.3862C125.033 20.0873 120.387 19.4529 118.855 19.5097C117.369 19.6444 112.963 19.6007 111.502 20.1378C110.009 20.7981 107.548 22.1259 106.825 24.1109C106.103 26.0959 102.151 38.305 102.151 38.305C102.151 38.305 99.2045 31.9876 98.8418 31.3642C98.479 30.7408 98.0511 30.3639 97.1103 30.1812C96.1696 29.9985 88.3104 30.2952 87.4731 30.4695C86.6358 30.6438 83.805 31.8738 83.3956 32.425C82.9862 32.9762 79.2362 38.1832 78.1496 40.7974C77.0631 43.4115 74.9085 49.5677 74.4595 50.7678C73.9325 52.0133 71.1941 57.8834 70.5439 59.0962C69.8483 60.2311 68.6107 70.652 67.7069 72.3253C66.8484 74.0766 66.5552 75.186 67.1843 75.55C67.768 75.8362 69.2798 76.1039 69.2798 76.1039Z" fill="#FFCA42"/>
<ellipse cx="85" cy="57.5" rx="56" ry="55.5" fill="#cbf1cc"/>
<path d="M106.275 85.9246L101.297 90.1734L100.749 83.9634L100.425 80.3351L99.3291 67.9473L107.475 73.4355L111.26 75.9867L118.017 80.5409L111.815 82.7304L117.761 92.7085L112.218 95.9011L106.275 85.9246Z" fill="white"/>
<path d="M94.454 44.001L88.0688 44.0026C88.0688 41.5993 87.7312 39.3551 87.1396 37.4389C88.6057 37.1737 90.157 36.812 91.8562 36.3506H91.8578C93.4879 38.4774 94.454 41.1282 94.454 44.001Z" fill="white"/>
<path d="M88.0688 44.0039H94.454C94.454 46.8782 93.4879 49.5307 91.8562 51.6575C90.1586 51.1961 88.6057 50.8328 87.1396 50.5676C87.7296 48.6514 88.0688 46.4056 88.0688 44.0039Z" fill="white"/>
<path d="M81.6315 31.3188C85.8079 31.3188 89.5182 33.2929 91.8572 36.3521C90.1596 36.8119 88.6067 37.1752 87.1406 37.4404C86.0121 33.772 83.9673 31.3205 81.6299 31.3205L81.6315 31.3188Z" fill="white"/>
<path d="M91.8565 51.6577C89.5159 54.7136 85.8073 56.6893 81.6309 56.6893C83.9666 56.6893 86.0131 54.2378 87.1416 50.5693C88.6077 50.8346 90.1589 51.1963 91.8581 51.6593L91.8565 51.6577Z" fill="white"/>
<path d="M88.0691 44.0042H81.6309V37.9695C83.4185 37.9662 85.2077 37.7894 87.1416 37.439C87.7315 39.3552 88.0707 41.6009 88.0707 44.0026L88.0691 44.0042Z" fill="white"/>
<path d="M81.6315 44.004H88.0698C88.0698 46.4073 87.7322 48.6515 87.1406 50.5677C85.2067 50.2189 83.4175 50.042 81.6299 50.0372V44.0024L81.6315 44.004Z" fill="white"/>
<path d="M81.6309 31.3188C83.9666 31.3188 86.0131 33.7704 87.1416 37.4388C85.2077 37.7877 83.4185 37.9645 81.6309 37.9693V31.3205V31.3188Z" fill="white"/>
<path d="M87.1406 50.5676C86.0121 54.236 83.9673 56.6876 81.6299 56.6876V50.0371C83.4175 50.0403 85.2067 50.2172 87.1406 50.5676Z" fill="white"/>
<path d="M81.6311 50.0372V56.6877C79.2937 56.6877 77.2441 54.2297 76.1172 50.5532C78.0527 50.2044 79.8403 50.0324 81.6311 50.0372Z" fill="white"/>
<path d="M81.6306 44.0039V50.0387C79.8398 50.0355 78.0522 50.2059 76.1167 50.5547C75.53 48.6417 75.1924 46.4008 75.1924 44.0039H81.6306Z" fill="white"/>
<path d="M81.6306 37.9692V44.0039H75.1924C75.1924 41.6071 75.53 39.3661 76.1167 37.4531C78.0522 37.802 79.8398 37.974 81.6306 37.9692Z" fill="white"/>
<path d="M81.6311 31.3203V37.9692C79.8403 37.9724 78.0527 37.802 76.1172 37.4531C77.2264 33.8345 79.2278 31.3991 81.5202 31.3219C81.5556 31.3203 81.5941 31.3203 81.6311 31.3203Z" fill="white"/>
<path d="M81.5209 31.3203C79.2286 31.3975 77.2272 33.8345 76.1179 37.4515C74.6518 37.1911 73.1006 36.8246 71.4014 36.3568C73.7179 33.3233 77.3863 31.3541 81.5209 31.3203Z" fill="white"/>
<path d="M76.1179 50.5547C77.2448 54.2312 79.2929 56.6891 81.6319 56.6891C77.4538 56.6891 73.742 54.7134 71.4014 51.6526C73.0989 51.1832 74.6518 50.8183 76.1179 50.5563V50.5547Z" fill="white"/>
<path d="M76.1172 37.4531C75.5304 39.3661 75.1928 41.6071 75.1928 44.0039H68.8076C68.8076 41.1312 69.7722 38.4852 71.4022 36.3584C73.0998 36.8262 74.6527 37.1927 76.1188 37.4531H76.1172Z" fill="white"/>
<path d="M75.1915 44.0039C75.1915 46.4008 75.5291 48.6417 76.1159 50.5547C74.6498 50.8183 73.0985 51.1816 71.3993 51.6511C69.7692 49.5243 68.8047 46.875 68.8047 44.0039H75.1899H75.1915Z" fill="white"/>
<path d="M55.7874 47.354H52V83.9629H76.7837C76.9075 83.9629 78.2611 84.0642 78.2611 85.5271C80.8524 86.2842 82.3587 86.289 84.9983 85.5271C84.9983 84.0642 86.3503 83.9629 86.4757 83.9629H100.746" stroke="#75af7a" stroke-width="2" stroke-linecap="round" stroke-linejoin="round"/>
<path d="M107.474 47.354H111.259V75.9862" stroke="#75af7a" stroke-width="2" stroke-linecap="round" stroke-linejoin="round"/>
<path d="M66.5368 44.001H55.7871V80.3334H78.0357C80.021 80.3334 81.6286 81.2658 81.6286 83.2414C81.6286 81.2658 83.2394 80.3334 85.2247 80.3334H100.423" stroke="#75af7a" stroke-width="2" stroke-linejoin="round"/>
<path d="M107.473 73.4354V47.3543V44.001H96.6963" stroke="#75af7a" stroke-width="2" stroke-linejoin="round"/>
<path d="M81.6299 59.1587V81.9233" stroke="#75af7a" stroke-width="2" stroke-linejoin="round"/>
<path d="M106.266 85.9128L106.274 85.9241L101.296 90.1729L100.748 83.9629L100.424 80.3346L99.3281 67.9468L107.474 73.435L111.259 75.9862L118.016 80.5404L111.814 82.7299" stroke="#75af7a" stroke-width="2" stroke-linecap="round" stroke-linejoin="round"/>
<path d="M111.809 82.7222L111.814 82.7302L117.76 92.7083L112.218 95.9009L106.274 85.9244" stroke="#75af7a" stroke-width="2" stroke-linecap="round" stroke-linejoin="round"/>
<path d="M91.858 36.3522C93.4881 38.479 94.4542 41.1298 94.4542 44.0025C94.4542 46.8785 93.4881 49.5309 91.8564 51.6577C89.5158 54.7137 85.8072 56.6894 81.6308 56.6894C77.4543 56.6894 73.7409 54.7137 71.4003 51.6529C69.7702 49.5261 68.8057 46.8768 68.8057 44.0057C68.8057 41.133 69.7702 38.487 71.4003 36.3602C73.7168 33.3267 77.3852 31.3575 81.5198 31.3237" stroke="#75af7a" stroke-width="2" stroke-linecap="round" stroke-linejoin="round"/>
<path d="M81.6299 31.3188C85.8063 31.3188 89.5166 33.2929 91.8556 36.3521" stroke="#75af7a" stroke-width="2" stroke-linecap="round" stroke-linejoin="round"/>
<path d="M88.0686 44.0041C88.0686 46.4074 87.731 48.6515 87.1394 50.5677C86.0109 54.2362 83.9661 56.6877 81.6287 56.6877C79.2913 56.6877 77.2417 54.2298 76.1148 50.5533C75.528 48.6403 75.1904 46.3993 75.1904 44.0025C75.1904 41.6056 75.528 39.3647 76.1148 37.4517C77.224 33.8331 79.2254 31.3976 81.5178 31.3205C81.5531 31.3188 81.5917 31.3188 81.6287 31.3188C83.9645 31.3188 86.0109 33.7704 87.1394 37.4388C87.7294 39.355 88.0686 41.6008 88.0686 44.0025V44.0041Z" stroke="#75af7a" stroke-width="2" stroke-linecap="round" stroke-linejoin="round"/>
<path d="M68.8057 44.0039H75.1909H81.6308H88.069H94.4542" stroke="#75af7a" stroke-width="2" stroke-linecap="round" stroke-linejoin="round"/>
<path d="M71.4004 36.3567C73.098 36.8245 74.6509 37.191 76.117 37.4514C78.0525 37.8003 79.8401 37.9723 81.6309 37.9674C83.4185 37.9642 85.2077 37.7874 87.1416 37.4369C88.6077 37.1717 90.159 36.81 91.8582 36.3486H91.8598" stroke="#75af7a" stroke-width="2" stroke-linecap="round" stroke-linejoin="round"/>
<path d="M71.4004 51.6511C73.098 51.1816 74.6509 50.8167 76.117 50.5547C78.0525 50.2059 79.8401 50.0339 81.6309 50.0387C83.4185 50.0419 85.2077 50.2187 87.1416 50.5692C88.6077 50.8344 90.159 51.1961 91.8582 51.6591H91.8598" stroke="#75af7a" stroke-width="2" stroke-linecap="round" stroke-linejoin="round"/>
<path d="M81.6299 31.3203V37.9692V44.0039V50.0371V56.6876" stroke="#75af7a" stroke-width="2" stroke-linecap="round" stroke-linejoin="round"/>
<path d="M81.627 25.4946V20" stroke="#75af7a" stroke-width="2" stroke-linecap="round" stroke-linejoin="round"/>
<path d="M72.2736 27.9784L69.4941 23.2168" stroke="#75af7a" stroke-width="2" stroke-linecap="round" stroke-linejoin="round"/>
<path d="M65.4279 34.7509L60.6133 32.002" stroke="#75af7a" stroke-width="2" stroke-linecap="round" stroke-linejoin="round"/>
<path d="M93.7632 23.2168L90.9854 27.9784" stroke="#75af7a" stroke-width="2" stroke-linecap="round" stroke-linejoin="round"/>
<path d="M102.645 32.002L97.832 34.7509" stroke="#75af7a" stroke-width="2" stroke-linecap="round" stroke-linejoin="round"/>
</g>
</svg>
