<svg width="160" height="115" viewBox="0 0 160 115" fill="none" xmlns="http://www.w3.org/2000/svg">
<mask id="mask0_2051_4306" style="mask-type:alpha" maskUnits="userSpaceOnUse" x="0" y="0" width="160" height="115">
<rect width="160" height="115" fill="#D9D9D9"/>
</mask>
<g mask="url(#mask0_2051_4306)">
<path opacity="0.75" d="M138.284 78.2902C140.013 77.1624 140.244 76.8022 141.851 75.3931C143.341 74.0103 144.961 73.524 146.166 73.6861C147.371 73.8482 148.206 74.5867 148.832 75.4956C149.457 76.4045 149.369 76.8562 149.571 77.7984C149.773 78.7406 150.549 80.3561 150.654 81.1348C150.806 81.8414 151.456 82.8681 151.683 83.928C151.91 84.9879 152.309 86.5647 151.327 87.1549C150.345 87.7451 149.946 87.8962 148.997 87.4916C148.002 87.159 146.798 86.9969 145.954 87.371C145.111 87.7451 142.24 88.1414 141.585 88.5349C140.93 88.9283 138.844 89.8276 137.832 89.9924C136.821 90.1573 135.629 90.918 134.571 91.1549C133.514 91.3918 129.287 92.6471 128.158 92.8383C127.029 93.0295 124.254 93.5892 123.432 93.7735C122.584 93.84 119.86 94.6353 119.247 94.6492C118.634 94.663 116.8 95.0122 116.023 95.1244C115.364 95.2103 113.908 95.5982 112.682 95.6259C111.457 95.6536 108.682 96.2134 107.855 96.0901C107.028 95.9668 105.5 96.309 105.026 96.1067C104.552 95.9044 103.536 95.7617 102.873 95.54C102.256 95.2463 101.319 94.0367 100.362 93.0169C99.3338 91.9515 98.2463 90.0353 97.5284 89.2704C96.8567 88.4336 96.6299 87.3736 97.2133 86.9344C97.7967 86.4952 99.0266 86.7751 99.5932 86.8333C100.16 86.8915 103.581 87.0508 104.336 87.1284C105.092 87.206 111.522 86.753 113.592 86.3512C115.661 85.9494 116.618 85.2414 117.025 85.7055C117.407 86.0519 117.806 85.9009 118.343 85.5337C118.926 85.0945 119.585 85.0086 120.362 84.8964C121.067 84.7384 125.743 83.5677 126.704 83.1673C127.594 82.7211 130.129 81.9064 131.161 81.5517C132.194 81.197 131.929 80.8243 132.803 80.8756C133.676 80.9269 134.204 79.9445 135.006 79.9501C135.686 79.6744 137.373 78.9262 138.284 78.2902Z" fill="#FFCA42"/>
<path opacity="0.75" d="M73.4906 66.1478C73.4738 66.6452 74.0532 67.6261 75.0104 68.6459C75.2539 69.2084 75.4975 69.7709 75.6906 70.0979C76.0559 70.9417 78.26 73.4717 78.8099 74.0273C79.2171 74.4915 79.5026 74.6744 79.7838 74.5497C80.447 74.7713 81.1564 74.921 82.0799 75.2078C83.4777 75.6969 86.1137 75.3533 88.8671 74.9834C91.692 74.6592 106.966 70.9293 109.056 70.3377C111.146 69.7461 113.736 69.4746 113.04 70.2477C112.297 71.0929 108.171 74.547 105.909 76.3495C105.116 76.9592 101.721 80.3731 101.024 81.1462C100.256 81.8737 97.6456 85.7905 97.3058 86.7923C96.966 87.794 97.1381 88.3108 97.621 89.1283C98.1038 89.9458 98.8007 90.9004 99.2331 91.4823C99.6656 92.0642 101.156 94.137 101.802 94.8561C102.378 95.5295 103.859 95.2593 104.233 94.9905C104.233 94.9905 105.039 93.5759 105.731 92.4952C106.377 91.4865 108.761 88.2374 109.176 87.589C109.592 86.9406 110.838 84.9953 111.795 84.2873C112.752 83.5793 116.55 80.3219 117.86 79.5349C119.215 78.6759 123.672 75.3326 125.007 74.6634C126.388 73.9221 131.714 70.3225 132.671 69.6145C133.628 68.9065 133.548 68.2456 133.581 67.2508C133.569 66.3281 132.586 65.1905 132.099 64.0655C131.612 62.9404 130.235 60.5338 129.845 59.5722C129.845 59.5722 129.357 58.4471 128.195 57.9054C127.032 57.3636 127.175 57.4551 124.618 56.7318C122.062 56.0086 121.042 57.286 118.943 57.2625C116.845 57.2389 111.892 58.842 109.802 59.4336C107.711 60.0252 95.9213 63.3449 93.4742 63.7079C92.8153 63.7938 91.6862 63.985 90.322 64.2289C91.2076 63.4751 91.9756 62.7477 92.4876 62.2628C94.116 60.6639 96.5628 58.5731 97.4903 57.4398C98.3925 56.1886 99.1436 54.2309 98.7069 53.3414C98.1989 52.4061 96.9226 50.4705 96.3599 48.9922C95.7972 47.5138 94.3991 45.2969 93.4714 44.7025C92.5437 44.1081 92.229 45.2277 91.7212 46.0202C91.2135 46.8127 89.8159 48.0514 88.7667 48.9035C87.7888 49.8013 86.3536 51.7272 85.0693 52.6319C83.8564 53.5824 80.394 57.2582 79.9743 57.599C79.5546 57.9399 75.0725 62.8932 74.0989 64.0986C73.8429 64.341 73.7296 64.6749 73.6625 64.9368C73.2385 64.9701 73.4359 65.6046 73.4906 66.1478Z" fill="#FFCA42"/>
<path opacity="0.75" d="M98.7088 53.3402C97.9153 52.2221 96.8319 48.8857 95.7991 47.5127C94.7202 46.2117 93.9306 43.6734 89.9767 44.1888C86.0228 44.7042 80.0503 47.5847 75.2737 48.2844C70.5432 48.912 64.776 49.5867 61.1999 50.1409C61.1999 50.1409 63.8271 47.4544 65.447 45.2403C67.0669 43.0262 67.0958 39.9961 65.9832 37.9621C64.8705 35.9281 63.5438 33.757 62.2508 32.3188C61.0291 30.9264 58.2839 30.1837 56.2565 30.2059C54.3005 30.2738 51.2953 31.1937 49.7632 31.2284C48.185 31.3351 40.1514 33.5048 39.6434 32.5695C39.1353 31.6343 38.2365 28.0097 37.3884 26.3485C36.5402 24.6872 34.4829 20.8285 32.9424 20.248C31.4018 19.6674 28.9043 19.7949 27.4688 19.993C26.0334 20.1911 23.9012 21.1624 22.8225 21.5891C21.6725 21.9701 21.2528 22.311 18.1425 22.4523C15.0322 22.5936 15.5023 22.4883 13.5967 22.7918C11.6911 23.0952 11.8338 23.1866 11.9556 23.4679C12.1235 23.6771 12.0774 23.7491 12.0564 23.939C12.0354 24.1288 11.9431 24.2729 11.7542 24.2535C11.5192 24.3061 11.1666 24.3851 10.7888 24.3463C10.4111 24.3075 9.65551 24.2299 9.8696 24.3671C10.0837 24.5043 10.2012 24.4779 10.1803 24.6678C10.1593 24.8576 10.067 25.0017 9.80673 24.9365C9.54648 24.8714 9.1687 24.8326 9.17295 25.1402C9.17719 25.4478 9.27799 25.9189 9.27799 25.9189C9.27799 25.9189 9.1143 26.0173 9.37456 26.0824C9.68097 26.0755 10.1049 26.0422 10.2476 26.1336C10.3904 26.2251 10.1596 26.5853 10.042 26.6117C9.92451 26.638 9.26552 26.7239 8.81638 26.6394C8.32108 26.6269 8.34628 26.7447 7.96851 26.7059C7.59073 26.6671 7.26336 26.8638 7.59497 26.9747C7.92659 27.0855 8.49326 27.1437 8.87104 27.1825C9.17745 27.1756 9.55522 27.2144 9.67274 27.188C9.86163 27.2074 9.97916 27.1811 10.0044 27.2989C10.0296 27.4167 9.87012 27.8226 9.87012 27.8226C9.87012 27.8226 9.66027 27.993 9.42522 28.0457C9.19018 28.0983 9.04745 28.0069 8.85857 27.9875C8.62352 28.0401 8.67392 28.2757 8.77049 28.4392C8.79569 28.5569 9.20291 29.0211 9.32043 28.9948C9.50932 29.0142 10.1935 29.046 10.3362 29.1375C10.479 29.2289 18.9747 29.7943 20.2003 29.7665C21.3085 29.7652 25.5983 29.6682 26.3538 29.7458C27.1094 29.8234 28.0076 29.9924 27.9196 30.4441C27.8315 30.8958 29.2802 35.0759 29.9814 36.3382C30.7287 37.5283 32.572 41.2499 33.6467 42.2433C34.8389 43.2104 37.005 44.6999 38.9819 44.4422C40.9589 44.1845 52.9087 42.1866 52.9087 42.1866C52.9087 42.1866 48.8548 47.4142 48.4855 47.9905C48.1162 48.5669 47.982 49.0907 48.2298 49.9608C48.4775 50.8309 52.0799 57.3055 52.5837 57.9331C53.0875 58.5608 55.3292 60.4036 55.9672 60.5075C56.6053 60.6114 62.5826 61.494 65.2437 61.2682C67.9049 61.0423 73.9994 60.1708 75.1999 60.0254C76.4717 59.9256 82.5748 59.6693 83.8718 59.6873C85.1226 59.7774 94.4111 56.2776 96.2034 56.308C98.0418 56.2665 99.0996 56.0296 99.1372 55.3423C99.1288 54.7272 98.7088 53.3402 98.7088 53.3402Z" fill="#FFCA42"/>
<ellipse cx="86.999" cy="57.4688" rx="56" ry="55.5" fill="#cbf1cc"/>
<path d="M118.448 76.1042V81.0298C118.448 82.819 116.982 84.269 115.171 84.269H58.2736C56.4651 84.269 54.999 82.8174 54.999 81.0298V76.1042H81.1508L81.969 78.6619H91.4761L92.296 76.1042H118.448Z" fill="#B6ABDE"/>
<path d="M70.7318 52.1484C70.7045 51.7658 70.9151 51.3703 71.3652 51.179L87.1321 45.8709C87.4295 45.7439 87.7752 45.7439 88.071 45.8709L103.838 51.179C104.685 51.5375 104.685 52.6226 103.838 52.9827L97.091 55.6979L88.071 59.3277C87.7736 59.4547 87.4279 59.4547 87.1321 59.3277L78.1121 55.6979L71.3652 52.9827C70.9682 52.8155 70.7576 52.486 70.7318 52.1484Z" fill="#B6ABDE"/>
<path d="M97.0911 64.2227V64.2292C93.5481 64.2292 90.3185 65.1101 87.6017 67.5279C84.8849 65.1101 81.657 64.2227 78.1123 64.2227V55.6995L87.1323 59.3293C87.4297 59.4563 87.7753 59.4563 88.0711 59.3293L97.0911 55.6995V64.2227Z" fill="#B6ABDE"/>
<path d="M72.4632 59.5834C72.5613 59.7811 72.3587 59.9917 72.0678 59.9917H69.3896C69.1002 59.9917 68.8977 59.7811 68.9957 59.5834L70.5695 56.386C70.6017 56.3233 70.666 56.2927 70.7303 56.2927C70.7946 56.2927 70.8557 56.3233 70.8878 56.386L72.4616 59.5834H72.4632Z" fill="#B6ABDE"/>
<path d="M59.4326 73.6896V34.208C59.4326 32.4204 60.8987 30.9688 62.7088 30.9688H110.736C112.545 30.9688 114.011 32.4204 114.011 34.208V73.6896" stroke="#75af7a" stroke-width="2" stroke-linejoin="round"/>
<path d="M63.4922 73.6896V35.0552H109.954V73.6896" stroke="#75af7a" stroke-width="2" stroke-linejoin="round"/>
<path d="M92.2927 76.1042H118.446V81.0298C118.446 82.819 116.98 84.269 115.17 84.269H58.2736C56.4651 84.269 54.999 82.8174 54.999 81.0298V76.1042H81.1508" stroke="#75af7a" stroke-width="2" stroke-linecap="round" stroke-linejoin="round"/>
<path d="M92.2956 76.1008V76.104L91.4757 78.6617H81.9686L81.1504 76.104V76.1008" stroke="#75af7a" stroke-width="2" stroke-linecap="round" stroke-linejoin="round"/>
<path d="M97.0911 55.6978V64.2275C93.5481 64.2275 90.3185 65.1084 87.6017 67.5262C84.8849 65.1084 81.657 64.221 78.1123 64.221V55.6978" stroke="#75af7a" stroke-width="2" stroke-linecap="round" stroke-linejoin="round"/>
<path d="M97.091 55.6979L88.071 59.3277C87.7736 59.4547 87.4279 59.4547 87.1321 59.3277L78.1121 55.6979L71.3652 52.9827C70.9682 52.8155 70.7576 52.486 70.7318 52.1484C70.7045 51.7658 70.9151 51.3703 71.3652 51.179L87.1321 45.8709C87.4295 45.7439 87.7752 45.7439 88.071 45.8709L103.838 51.179C104.685 51.5375 104.685 52.6226 103.838 52.9827L97.091 55.6979Z" stroke="#75af7a" stroke-width="2" stroke-linecap="round" stroke-linejoin="round"/>
<path d="M70.7324 56.291V52.1483V52.0808" stroke="#75af7a" stroke-width="2" stroke-linecap="round" stroke-linejoin="round"/>
<path d="M68.9973 59.5834L70.5711 56.386C70.6033 56.3233 70.6676 56.2927 70.7319 56.2927C70.7962 56.2927 70.8573 56.3233 70.8894 56.386L72.4632 59.5834C72.5613 59.7811 72.3587 59.9917 72.0678 59.9917H69.3896C69.1002 59.9917 68.8977 59.7811 68.9957 59.5834H68.9973Z" stroke="#75af7a" stroke-width="2" stroke-linecap="round" stroke-linejoin="round"/>
</g>
</svg>
