<svg width="160" height="115" viewBox="0 0 160 115" fill="none" xmlns="http://www.w3.org/2000/svg">
<mask id="mask0_2051_4304" style="mask-type:alpha" maskUnits="userSpaceOnUse" x="0" y="0" width="160" height="115">
<rect width="160" height="115" fill="#D9D9D9"/>
</mask>
<g mask="url(#mask0_2051_4304)">
<path opacity="0.75" d="M121.16 28.9312C121.711 29.7534 122.118 30.9197 121.751 30.7777C121.332 30.7109 121.234 31.5296 121.009 32.2616C120.785 32.9935 120.412 32.183 120.05 32.7094C119.688 33.2358 119.619 33.7421 119.148 33.7505C118.677 33.7588 118.659 34.1899 118.349 34.6411C117.987 35.1675 117.666 34.2819 116.884 34.7414C116.488 34.9119 116.47 35.343 116.413 35.9679C116.292 36.5494 115.907 36.8385 115.39 36.3723C114.873 35.9061 113.972 35.729 113.025 35.0773C112.077 34.4257 105.716 29.6066 103.907 28.584C102.099 27.5614 98.5387 26.1093 97.6774 25.7384C96.7012 25.3992 86.8129 21.9203 80.1858 20.4633C73.5587 19.0063 62.3081 17.9137 57.1504 18.243C51.9927 18.5723 40.0514 20.1065 34.3301 21.9313C28.5571 23.8314 23.8354 25.0145 19.7561 27.9689C15.6251 30.9985 9.31608 36.518 7.95369 38.9042C7.95369 38.9042 7.77025 38.2241 8.85115 35.9766C9.93206 33.7291 14.0764 27.1636 17.2829 23.7196C20.2194 20.5329 28.2114 14.7311 36.2015 12.5837C44.1916 10.4363 51.7108 8.29723 60.481 8.12663C69.2511 7.95602 74.3054 7.77713 83.1032 9.73038C91.9527 11.6084 93.0667 12.1532 93.7788 12.1999C94.491 12.2467 94.7953 12.3453 95.3006 12.6929C95.8058 13.0404 96.3802 12.8817 96.9257 13.0354C97.4196 13.2643 103.926 15.3028 109.765 18.9873C115.667 22.7152 119.783 26.8759 121.16 28.9312Z" fill="#FFCA42"/>
<path opacity="0.75" d="M132.344 80.163C132.344 80.163 123.992 81.6186 119.357 81.8643C114.786 82.1535 99.2144 83.9602 86.6562 79.0877C74.0979 74.2153 64.7444 69.5533 51.5974 59.18C38.4505 48.8066 34.9915 40.4449 34.8503 35.9165C34.709 31.3881 37.2576 22.9494 39.2293 19.5422C39.2293 19.5422 32.8848 27.1421 31.1146 29.5801C29.2927 32.0933 24.3495 39.5495 26.4359 47.7424C28.4592 55.8918 36.8111 64.85 44.7223 71.0676C52.6335 77.2853 66.2755 85.4513 74.5217 87.8006C82.768 90.1499 96.6483 92.8299 100.439 93.0003C104.281 93.0955 106.09 92.8999 105.723 92.7579C105.355 92.6159 101.944 92.7062 101.232 92.6594C100.519 92.6126 95.701 92.1782 94.0241 91.9109C92.5883 91.6987 91.1183 91.1306 90.814 91.032C91.2446 91.2175 94.4836 91.7839 95.6781 91.941C96.9244 92.0228 98.7565 92.0646 99.1126 92.0879C99.4687 92.1113 99.7387 91.854 100.106 91.996C100.474 92.138 100.6 92.2249 100.893 92.2049C101.238 92.1096 102.036 92.4371 102.507 92.4288C102.978 92.4204 103.259 92.2817 103.489 92.2182C103.719 92.1547 104.138 92.2215 104.419 92.0828C104.764 91.9876 104.879 91.9558 105.246 92.0979C105.562 92.3151 106.045 92.4254 106.326 92.2867C106.608 92.148 106.964 92.1713 107.09 92.2582C107.216 92.3451 107.722 92.6927 108.066 92.5974C108.296 92.5339 112.994 92.3317 114.677 92.0492C116.423 91.8102 117.572 91.4927 117.917 91.3975C118.261 91.3022 118.531 91.0449 118.658 91.1318C118.899 91.1869 119.129 91.1234 119.18 91.0482C119.284 90.8978 119.565 90.7591 119.807 90.8143C120.048 90.8694 120.674 90.6354 121.966 89.9737C123.322 89.3554 123.552 89.2919 125.942 87.1697C128.281 85.1226 131.947 81.5516 132.344 80.163ZM112.263 84.7386C111.855 84.7904 111.499 84.767 111.091 84.8188C108.392 84.9559 101.747 85.1482 97.428 84.393C91.7885 83.3938 83.7774 81.6494 81.4575 80.829C79.1376 80.0086 78.885 79.8348 78.6095 79.4237C78.3341 79.0127 78.3569 79.25 77.421 78.7169C76.4851 78.1839 75.2274 77.9834 74.7968 77.7979C74.3661 77.6124 70.0999 75.5639 65.7133 72.8786C61.2636 70.15 54.8796 65.0936 54.8796 65.0936C54.8796 65.0936 65.5124 72.6297 70.8295 75.1795C76.2097 77.7728 78.2884 78.5381 79.2646 78.8773C80.2408 79.2165 86.712 82.1173 94.4765 83.1381C101.529 84.1122 107.031 84.9058 111.028 84.7754C111.907 84.7152 112.378 84.7069 112.263 84.7386Z" fill="#FFCA42"/>
<path opacity="0.75" d="M150.129 89.0726C150.807 87.5453 152.066 85.3095 152.487 82.94C152.907 80.5705 152.738 73.9182 151.654 70.6247C150.571 67.3312 147.294 60.8678 144.241 56.1088C141.073 51.3815 138.616 49.1374 137.371 47.8374C136.125 46.5374 134.615 44.9449 133.886 44.1111C133.106 43.3525 128.289 39.2636 126.613 37.7781C125 36.3361 122.302 34.0368 120.734 33.0693C119.23 32.1453 113.902 28.2586 113.07 27.5752C112.237 26.8918 110.004 25.1339 108.689 24.3402C107.374 23.5465 104.779 22.315 103.412 21.5965C102.046 20.878 94.8858 16.9496 92.5888 16.3665C90.3549 15.8268 89.4821 15.3372 88.4199 14.7172C87.4209 14.1408 86.008 14.1659 85.7554 13.9921C85.5028 13.8183 79.8982 11.9569 78.1984 11.4523C76.4987 10.9477 70.0033 10.246 65.983 10.1391C62.0144 9.95702 57.6838 10.3013 54.7888 10.8578C51.8939 11.4143 49.8549 11.6734 45.6781 14.2284C41.6163 16.7517 39.3637 19.0795 37.0419 21.9135C34.7202 24.7476 32.002 27.7521 30.2144 30.6213C28.4267 33.4905 27.4204 35.9001 27.3109 36.6002C27.3109 36.6002 37.8046 24.3215 51.7217 22.4848C65.5756 20.6046 83.4232 25.9031 103.674 37.1753C123.925 48.4476 138.963 68.6515 141.176 74.4949C141.176 74.4949 141.659 74.6052 140.838 72.8223C139.955 70.9959 138.578 68.9406 138.578 68.9406C138.578 68.9406 139.915 69.9715 141.694 73.743C143.472 77.5144 144.103 80.3852 144.498 82.6511C144.881 84.7983 145.041 87.6775 144.109 90.2492C143.229 92.7457 141.498 96.208 139.843 98.6143C138.188 101.021 136.723 102.339 137.171 102.093C137.619 101.848 141.543 99.1189 144.657 95.9439C147.709 92.7255 149.45 90.6 150.129 89.0726ZM140.984 57.1916C139.573 54.7804 138.086 53.4252 137.495 52.797C136.903 52.1687 136.691 51.8011 136.048 51.248C135.405 50.6949 136.381 51.0341 135.727 50.3623C135.073 49.6906 134.062 48.9955 132.966 48.0196C131.869 47.0438 131.221 45.8223 129.768 44.8231C128.379 43.8673 126.266 41.5279 124.613 40.2797C122.959 39.0315 121.243 37.7398 119.905 36.7088C118.568 35.6778 117.701 34.6385 116.375 33.7261C115.111 32.8572 113.51 31.5338 114.928 32.1771C115.663 32.4612 118.115 34.0369 119.315 34.8624C120.451 35.6444 122.886 37.6512 123.781 38.3781C124.677 39.105 135.165 48.2034 136.52 50.0214C137.874 51.8395 142.644 57.8901 144.383 60.6372C146.058 63.3409 146.821 65.7488 146.821 65.7488C146.821 65.7488 142.396 59.6029 140.984 57.1916Z" fill="#FFCA42"/>
<path opacity="0.75" d="M150.457 88.1901C150.641 87.652 141.718 93.5892 138.358 94.8225C134.998 96.0558 123.642 97.5499 118.249 97.2743C112.856 96.9986 97.5403 94.1064 96.1563 93.819C94.8355 93.5751 94.296 92.8716 93.3944 92.6945C92.4928 92.5174 93.7679 92.2867 92.6768 91.9793C91.5857 91.6718 83.3166 89.0853 81.6686 88.5055C80.0205 87.9257 74.0256 85.6849 71.8723 84.7576C69.7191 83.8302 54.3021 76.2157 49.0085 72.685C43.6518 69.1108 34.6784 62.2732 31.4521 59.3891C28.2259 56.505 24.2766 52.2373 21.3721 49.0206C18.4676 45.804 17.1775 41.5931 16.3921 38.9479C15.5548 36.3779 15.9639 33.8898 16.4475 31.5637C16.9426 29.3563 19.019 23.3623 21.0364 20.4297C21.0364 20.4297 18.0777 22.1609 14.8363 26.4672C11.5948 30.7734 6.54222 38.9297 6.97037 43.9878C7.39853 49.046 10.3751 57.2973 17.769 64.267C25.0997 71.1932 34.1133 77.8369 35.6291 78.8796C37.1448 79.9223 41.8699 83.062 42.8173 83.7137C43.7646 84.3654 44.4478 84.7247 45.2574 85.1708C46.067 85.6169 46.3142 85.1223 45.9353 84.8617C45.5564 84.601 45.631 84.7631 45.0108 84.4473C44.3907 84.1315 44.0346 84.1081 43.8223 83.7404C43.61 83.3728 43.4205 83.2425 42.9899 83.057C42.5592 82.8715 42.4215 82.666 41.9163 82.3185C41.411 81.9709 41.5373 82.0578 40.9172 81.742C40.2971 81.4262 40.418 80.8446 40.418 80.8446C40.418 80.8446 40.9635 80.9984 41.4688 81.3459C41.974 81.6935 44.5002 83.4313 45.0572 83.7037C45.551 83.9326 46.1825 84.367 46.5729 84.7463C46.9632 85.1257 47.5202 85.398 47.8991 85.6587C48.2781 85.9194 48.577 85.3495 48.9559 85.6102C49.3349 85.8709 49.0419 85.8909 49.5472 86.2385C50.0524 86.5861 50.8391 86.7949 51.2812 87.099C51.7233 87.4031 52.8721 87.0856 53.5037 87.5201C54.1352 87.9545 54.6693 87.9896 54.537 88.4525C54.4047 88.9154 54.6459 88.9705 54.8011 88.7449C54.9562 88.5193 55.3183 87.9929 55.8122 88.2219C56.306 88.4508 56.8112 88.7984 57.483 89.039C58.1549 89.2796 59.6881 89.8911 60.1301 90.1952C60.5722 90.4994 60.796 90.9856 60.796 90.9856C60.796 90.9856 59.1768 90.0933 58.4418 89.8093C57.7068 89.5252 56.5526 89.1743 57.0578 89.5219C57.563 89.8694 58.1946 90.3039 58.5735 90.5646C58.9524 90.8252 58.9753 91.0625 59.584 91.2597C60.1927 91.4569 60.5373 91.3616 61.2206 91.7209C61.9039 92.0801 62.1854 91.9414 62.8169 92.3759C63.4485 92.8103 63.7011 92.9841 63.9537 93.1579C64.2063 93.3317 64.9527 93.7344 65.4466 93.9633C65.9404 94.1922 66.2622 93.8597 66.756 94.0886C67.2498 94.3175 68.6795 95.0794 69.1733 95.3084C69.6671 95.5373 70.517 95.7896 71.0625 95.9433C71.6081 96.097 72.5211 96.3928 73.0781 96.6652C73.6351 96.9375 73.2904 97.0328 73.9851 97.5107C74.6798 97.9886 74.6624 98.4197 76.0981 98.6319C77.5338 98.8441 77.3961 98.6385 78.1714 98.7288C78.9467 98.819 80.2904 99.3002 81.1517 99.6712C82.013 100.042 82.484 100.034 82.8629 100.294C83.2418 100.555 83.4945 100.729 83.6382 100.385C83.782 100.04 84.3678 100 84.3504 100.431C84.3329 100.863 84.8267 101.091 84.8267 101.091C85.7283 101.269 86.7966 101.339 87.1755 101.599C87.5544 101.86 87.9105 101.883 88.8753 102.104C89.84 102.325 89.84 102.325 90.3339 102.553C90.8277 102.782 91.3335 101.912 92.0054 102.152C92.6772 102.393 93.906 102.906 94.7445 103.04C95.583 103.173 95.9733 103.553 96.8118 103.686C97.6502 103.82 97.3284 104.153 95.3243 103.549C93.3202 102.946 93.0501 103.203 93.6702 103.519C94.2904 103.835 95.4103 103.83 96.4497 104.213C97.489 104.595 97.8451 104.619 98.2529 104.567C98.6607 104.515 98.615 104.041 99.3386 104.206C100.062 104.371 101.435 104.54 102.158 104.706C102.882 104.871 103.996 105.416 104.708 105.462C105.42 105.509 106.218 105.837 106.867 105.84C107.516 105.843 108.406 105.902 108.154 105.728C107.901 105.554 106.77 105.441 105.868 105.264C104.967 105.086 104.513 104.664 104.513 104.664C104.513 104.664 105.581 104.734 106.431 104.986C107.281 105.238 107.677 105.068 108.401 105.233C109.125 105.399 109.762 105.284 109.573 105.153C109.383 105.023 108.333 104.522 109.045 104.568C109.757 104.615 110.544 104.824 111.56 104.969C112.577 105.115 114.133 104.745 114.133 104.745C114.133 104.745 114.001 105.208 113.248 105.355C112.496 105.502 111.973 105.586 112.76 105.795C113.547 106.004 113.076 106.012 114.081 106.039C115.086 106.065 116.573 106.202 117.935 106.253C119.296 106.303 119.485 106.433 120.123 106.318C120.76 106.202 120.783 106.44 120.76 106.202C120.737 105.965 120.588 105.641 120.588 105.641C121.542 105.743 122.041 105.422 122.702 105.544C123.362 105.666 124.948 104.984 125.712 104.956C126.476 104.927 127.722 105.009 128.296 104.85C128.871 104.692 129.393 104.608 130.261 104.429C131.128 104.25 132.995 103.43 133.621 103.196C134.247 102.962 135.092 102.546 135.643 102.15C136.195 101.754 137.999 100.89 140.13 99.1437C142.945 97.7567 149.645 91.3984 150.457 88.1901ZM110.512 99.5954C106.698 99.1878 101.501 98.4927 100.358 98.2605C99.2786 98.0717 95.3623 96.5962 93.3293 96.3055C91.3481 95.9396 86.3294 94.0381 84.4515 93.5218C82.5737 93.0055 71.8759 89.0805 68.7121 87.458C65.5484 85.8355 56.5623 81.3156 54.9835 80.2295C53.4677 79.1868 52.3827 78.3296 51.7626 78.0138C51.1425 77.6979 50.1031 77.3153 49.2821 76.7505C48.4611 76.1857 47.9901 76.1941 47.3586 75.7596C46.6639 75.2817 46.1586 74.9342 45.4639 74.4563C44.7692 73.9784 26.4893 60.5171 24.4293 56.8844C24.0792 56.3112 34.7686 65.6586 35.6642 66.3855C36.5598 67.1124 43.8911 72.8204 46.6645 74.0636C49.3862 75.382 56.3446 80.2796 58.1418 81.1835C60.0022 82.131 72.7667 87.9208 74.0184 88.671C75.27 89.4213 82.1094 91.2459 84.303 91.9794C86.4334 92.6695 94.7597 95.8493 97.3839 96.7683C100.008 97.6873 104.574 97.9479 107.279 98.4793C109.921 98.9671 120.006 99.5902 122.067 99.5685C122.194 99.6554 114.44 99.9713 110.512 99.5954Z" fill="#FFCA42"/>
<ellipse cx="86" cy="57.8057" rx="56" ry="55.5" fill="#cbf1cc"/>
<path d="M117.449 76.4409V81.3665C117.449 83.1557 115.983 84.6057 114.174 84.6057H57.2746C55.4661 84.6057 54 83.1541 54 81.3665V76.4409H80.1517L80.97 78.9985H90.4771L91.2969 76.4409H117.449Z" fill="#FFCA42"/>
<path d="M100.747 48.0581V66.381H85.7256V66.3425C89.4069 63.7125 92.5979 61.9233 96.6393 63.7961V48.0581H100.747Z" fill="#FFCA42"/>
<path d="M85.7241 66.3425V66.381H70.7031V48.0581H74.8088V63.7961C78.8518 61.9233 82.0428 63.7125 85.7241 66.3425Z" fill="#FFCA42"/>
<path d="M85.7227 46.714C88.8928 44.8187 92.1127 43.687 96.6364 45.3428V63.7975C92.595 61.9247 89.404 63.7139 85.7227 66.3439V46.7156" stroke="#75af7a" stroke-width="2" stroke-linejoin="round"/>
<path d="M85.7239 46.714C82.5538 44.8187 79.3339 43.687 74.8086 45.3428V63.7975C78.8516 61.9247 82.0426 63.7139 85.7239 66.3439" stroke="#75af7a" stroke-width="2" stroke-linejoin="round"/>
<path d="M96.6395 48.0581H100.747V66.381H85.7241H70.7031V48.0581H74.8088" stroke="#75af7a" stroke-width="2" stroke-linejoin="round"/>
<path d="M58.4346 74.0265V34.5449C58.4346 32.7573 59.9023 31.3057 61.7108 31.3057H109.738C111.547 31.3057 113.014 32.7573 113.014 34.5449V74.0265" stroke="#75af7a" stroke-width="2" stroke-linejoin="round"/>
<path d="M62.4932 74.0265V35.3921H108.956V74.0265" stroke="#75af7a" stroke-width="2" stroke-linejoin="round"/>
<path d="M91.2937 76.4409H117.447V81.3665C117.447 83.1557 115.981 84.6057 114.172 84.6057H57.2746C55.4661 84.6057 54 83.1541 54 81.3665V76.4409H80.1517" stroke="#75af7a" stroke-width="2" stroke-linecap="round" stroke-linejoin="round"/>
<path d="M91.2975 76.438V76.4412L90.4777 78.9988H80.9706L80.1523 76.4412V76.438" stroke="#75af7a" stroke-width="2" stroke-linecap="round" stroke-linejoin="round"/>
</g>
</svg>
