<svg width="160" height="115" viewBox="0 0 160 115" fill="none" xmlns="http://www.w3.org/2000/svg">
<mask id="mask0_2051_4303" style="mask-type:alpha" maskUnits="userSpaceOnUse" x="0" y="0" width="160" height="115">
<rect width="160" height="115" fill="#D9D9D9"/>
</mask>
<g mask="url(#mask0_2051_4303)">
<path opacity="0.75" d="M120.16 28.9312C120.711 29.7534 121.118 30.9197 120.751 30.7777C120.332 30.7109 120.234 31.5296 120.009 32.2616C119.785 32.9935 119.412 32.183 119.05 32.7094C118.688 33.2358 118.619 33.7421 118.148 33.7505C117.677 33.7588 117.659 34.1899 117.349 34.6411C116.987 35.1675 116.666 34.2819 115.884 34.7414C115.488 34.9119 115.47 35.343 115.413 35.9679C115.292 36.5494 114.907 36.8385 114.39 36.3723C113.873 35.9061 112.972 35.729 112.025 35.0773C111.077 34.4257 104.716 29.6066 102.907 28.584C101.099 27.5614 97.5387 26.1093 96.6774 25.7384C95.7012 25.3992 85.8129 21.9203 79.1858 20.4633C72.5587 19.0063 61.3081 17.9137 56.1504 18.243C50.9927 18.5723 39.0514 20.1065 33.3301 21.9313C27.5571 23.8314 22.8354 25.0145 18.7561 27.9689C14.6251 30.9985 8.31608 36.518 6.95369 38.9042C6.95369 38.9042 6.77025 38.2241 7.85115 35.9766C8.93206 33.7291 13.0764 27.1636 16.2829 23.7196C19.2194 20.5329 27.2114 14.7311 35.2015 12.5837C43.1916 10.4363 50.7108 8.29723 59.481 8.12663C68.2511 7.95602 73.3054 7.77713 82.1032 9.73038C90.9527 11.6084 92.0667 12.1532 92.7788 12.1999C93.491 12.2467 93.7953 12.3453 94.3006 12.6929C94.8058 13.0404 95.3802 12.8817 95.9257 13.0354C96.4196 13.2643 102.926 15.3028 108.765 18.9873C114.667 22.7152 118.783 26.8759 120.16 28.9312Z" fill="#FFCA42"/>
<path opacity="0.75" d="M131.344 80.163C131.344 80.163 122.992 81.6186 118.357 81.8643C113.786 82.1535 98.2144 83.9602 85.6562 79.0877C73.0979 74.2153 63.7444 69.5533 50.5974 59.18C37.4505 48.8066 33.9915 40.4449 33.8503 35.9165C33.709 31.3881 36.2576 22.9494 38.2293 19.5422C38.2293 19.5422 31.8848 27.1421 30.1146 29.5801C28.2927 32.0933 23.3495 39.5495 25.4359 47.7424C27.4592 55.8918 35.8111 64.85 43.7223 71.0676C51.6335 77.2853 65.2755 85.4513 73.5217 87.8006C81.768 90.1499 95.6483 92.8299 99.4388 93.0003C103.281 93.0955 105.09 92.8999 104.723 92.7579C104.355 92.6159 100.944 92.7062 100.232 92.6594C99.5194 92.6126 94.701 92.1782 93.0241 91.9109C91.5883 91.6987 90.1183 91.1306 89.814 91.032C90.2446 91.2175 93.4836 91.7839 94.6781 91.941C95.9244 92.0228 97.7565 92.0646 98.1126 92.0879C98.4687 92.1113 98.7387 91.854 99.1062 91.996C99.4737 92.138 99.6 92.2249 99.893 92.2049C100.238 92.1096 101.036 92.4371 101.507 92.4288C101.978 92.4204 102.259 92.2817 102.489 92.2182C102.719 92.1547 103.138 92.2215 103.419 92.0828C103.764 91.9876 103.879 91.9558 104.246 92.0979C104.562 92.3151 105.045 92.4254 105.326 92.2867C105.608 92.148 105.964 92.1713 106.09 92.2582C106.216 92.3451 106.722 92.6927 107.066 92.5974C107.296 92.5339 111.994 92.3317 113.677 92.0492C115.423 91.8102 116.572 91.4927 116.917 91.3975C117.261 91.3022 117.531 91.0449 117.658 91.1318C117.899 91.1869 118.129 91.1234 118.18 91.0482C118.284 90.8978 118.565 90.7591 118.807 90.8143C119.048 90.8694 119.674 90.6354 120.966 89.9737C122.322 89.3554 122.552 89.2919 124.942 87.1697C127.281 85.1226 130.947 81.5516 131.344 80.163ZM111.263 84.7386C110.855 84.7904 110.499 84.767 110.091 84.8188C107.392 84.9559 100.747 85.1482 96.428 84.393C90.7885 83.3938 82.7774 81.6494 80.4575 80.829C78.1376 80.0086 77.885 79.8348 77.6095 79.4237C77.3341 79.0127 77.3569 79.25 76.421 78.7169C75.4851 78.1839 74.2274 77.9834 73.7968 77.7979C73.3661 77.6124 69.0999 75.5639 64.7133 72.8786C60.2636 70.15 53.8796 65.0936 53.8796 65.0936C53.8796 65.0936 64.5124 72.6297 69.8295 75.1795C75.2097 77.7728 77.2884 78.5381 78.2646 78.8773C79.2408 79.2165 85.712 82.1173 93.4765 83.1381C100.529 84.1122 106.031 84.9058 110.028 84.7754C110.907 84.7152 111.378 84.7069 111.263 84.7386Z" fill="#FFCA42"/>
<path opacity="0.75" d="M149.129 89.0726C149.807 87.5453 151.066 85.3095 151.487 82.94C151.907 80.5705 151.738 73.9182 150.654 70.6247C149.571 67.3312 146.294 60.8678 143.241 56.1088C140.073 51.3815 137.616 49.1374 136.371 47.8374C135.125 46.5374 133.615 44.9449 132.886 44.1111C132.106 43.3525 127.289 39.2636 125.613 37.7781C124 36.3361 121.302 34.0368 119.734 33.0693C118.23 32.1453 112.902 28.2586 112.07 27.5752C111.237 26.8918 109.004 25.1339 107.689 24.3402C106.374 23.5465 103.779 22.315 102.412 21.5965C101.046 20.878 93.8858 16.9496 91.5888 16.3665C89.3549 15.8268 88.4821 15.3372 87.4199 14.7172C86.4209 14.1408 85.008 14.1659 84.7554 13.9921C84.5028 13.8183 78.8982 11.9569 77.1984 11.4523C75.4987 10.9477 69.0033 10.246 64.983 10.1391C61.0144 9.95702 56.6838 10.3013 53.7888 10.8578C50.8939 11.4143 48.8549 11.6734 44.6781 14.2284C40.6163 16.7517 38.3637 19.0795 36.0419 21.9135C33.7202 24.7476 31.002 27.7521 29.2144 30.6213C27.4267 33.4905 26.4204 35.9001 26.3109 36.6002C26.3109 36.6002 36.8046 24.3215 50.7217 22.4848C64.5756 20.6046 82.4232 25.9031 102.674 37.1753C122.925 48.4476 137.963 68.6515 140.176 74.4949C140.176 74.4949 140.659 74.6052 139.838 72.8223C138.955 70.9959 137.578 68.9406 137.578 68.9406C137.578 68.9406 138.915 69.9715 140.694 73.743C142.472 77.5144 143.103 80.3852 143.498 82.6511C143.881 84.7983 144.041 87.6775 143.109 90.2492C142.229 92.7457 140.498 96.208 138.843 98.6143C137.188 101.021 135.723 102.339 136.171 102.093C136.619 101.848 140.543 99.1189 143.657 95.9439C146.709 92.7255 148.45 90.6 149.129 89.0726ZM139.984 57.1916C138.573 54.7804 137.086 53.4252 136.495 52.797C135.903 52.1687 135.691 51.8011 135.048 51.248C134.405 50.6949 135.381 51.0341 134.727 50.3623C134.073 49.6906 133.062 48.9955 131.966 48.0196C130.869 47.0438 130.221 45.8223 128.768 44.8231C127.379 43.8673 125.266 41.5279 123.613 40.2797C121.959 39.0315 120.243 37.7398 118.905 36.7088C117.568 35.6778 116.701 34.6385 115.375 33.7261C114.111 32.8572 112.51 31.5338 113.928 32.1771C114.663 32.4612 117.115 34.0369 118.315 34.8624C119.451 35.6444 121.886 37.6512 122.781 38.3781C123.677 39.105 134.165 48.2034 135.52 50.0214C136.874 51.8395 141.644 57.8901 143.383 60.6372C145.058 63.3409 145.821 65.7488 145.821 65.7488C145.821 65.7488 141.396 59.6029 139.984 57.1916Z" fill="#FFCA42"/>
<path opacity="0.75" d="M149.457 88.1901C149.641 87.652 140.718 93.5892 137.358 94.8225C133.998 96.0558 122.642 97.5499 117.249 97.2743C111.856 96.9986 96.5403 94.1064 95.1563 93.819C93.8355 93.5751 93.296 92.8716 92.3944 92.6945C91.4928 92.5174 92.7679 92.2867 91.6768 91.9793C90.5857 91.6718 82.3166 89.0853 80.6686 88.5055C79.0205 87.9257 73.0256 85.6849 70.8723 84.7576C68.7191 83.8302 53.3021 76.2157 48.0085 72.685C42.6518 69.1108 33.6784 62.2732 30.4521 59.3891C27.2259 56.505 23.2766 52.2373 20.3721 49.0206C17.4676 45.804 16.1775 41.5931 15.3921 38.9479C14.5548 36.3779 14.9639 33.8898 15.4475 31.5637C15.9426 29.3563 18.019 23.3623 20.0364 20.4297C20.0364 20.4297 17.0777 22.1609 13.8363 26.4672C10.5948 30.7734 5.54222 38.9297 5.97037 43.9878C6.39853 49.046 9.3751 57.2973 16.769 64.267C24.0997 71.1932 33.1133 77.8369 34.6291 78.8796C36.1448 79.9223 40.8699 83.062 41.8173 83.7137C42.7646 84.3654 43.4478 84.7247 44.2574 85.1708C45.067 85.6169 45.3142 85.1223 44.9353 84.8617C44.5564 84.601 44.631 84.7631 44.0108 84.4473C43.3907 84.1315 43.0346 84.1081 42.8223 83.7404C42.61 83.3728 42.4205 83.2425 41.9899 83.057C41.5592 82.8715 41.4215 82.666 40.9163 82.3185C40.411 81.9709 40.5373 82.0578 39.9172 81.742C39.2971 81.4262 39.418 80.8446 39.418 80.8446C39.418 80.8446 39.9635 80.9984 40.4688 81.3459C40.974 81.6935 43.5002 83.4313 44.0572 83.7037C44.551 83.9326 45.1825 84.367 45.5729 84.7463C45.9632 85.1257 46.5202 85.398 46.8991 85.6587C47.2781 85.9194 47.577 85.3495 47.9559 85.6102C48.3349 85.8709 48.0419 85.8909 48.5472 86.2385C49.0524 86.5861 49.8391 86.7949 50.2812 87.099C50.7233 87.4031 51.8721 87.0856 52.5037 87.5201C53.1352 87.9545 53.6693 87.9896 53.537 88.4525C53.4047 88.9154 53.6459 88.9705 53.8011 88.7449C53.9562 88.5193 54.3183 87.9929 54.8122 88.2219C55.306 88.4508 55.8112 88.7984 56.483 89.039C57.1549 89.2796 58.6881 89.8911 59.1301 90.1952C59.5722 90.4994 59.796 90.9856 59.796 90.9856C59.796 90.9856 58.1768 90.0933 57.4418 89.8093C56.7068 89.5252 55.5526 89.1743 56.0578 89.5219C56.563 89.8694 57.1946 90.3039 57.5735 90.5646C57.9524 90.8252 57.9753 91.0625 58.584 91.2597C59.1927 91.4569 59.5373 91.3616 60.2206 91.7209C60.9039 92.0801 61.1854 91.9414 61.8169 92.3759C62.4485 92.8103 62.7011 92.9841 62.9537 93.1579C63.2063 93.3317 63.9527 93.7344 64.4466 93.9633C64.9404 94.1922 65.2622 93.8597 65.756 94.0886C66.2498 94.3175 67.6795 95.0794 68.1733 95.3084C68.6671 95.5373 69.517 95.7896 70.0625 95.9433C70.6081 96.097 71.5211 96.3928 72.0781 96.6652C72.6351 96.9375 72.2904 97.0328 72.9851 97.5107C73.6798 97.9886 73.6624 98.4197 75.0981 98.6319C76.5338 98.8441 76.3961 98.6385 77.1714 98.7288C77.9467 98.819 79.2904 99.3002 80.1517 99.6712C81.013 100.042 81.484 100.034 81.8629 100.294C82.2418 100.555 82.4945 100.729 82.6382 100.385C82.782 100.04 83.3678 100 83.3504 100.431C83.3329 100.863 83.8267 101.091 83.8267 101.091C84.7283 101.269 85.7966 101.339 86.1755 101.599C86.5544 101.86 86.9105 101.883 87.8753 102.104C88.84 102.325 88.84 102.325 89.3339 102.553C89.8277 102.782 90.3335 101.912 91.0054 102.152C91.6772 102.393 92.906 102.906 93.7445 103.04C94.583 103.173 94.9733 103.553 95.8118 103.686C96.6502 103.82 96.3284 104.153 94.3243 103.549C92.3202 102.946 92.0501 103.203 92.6702 103.519C93.2904 103.835 94.4103 103.83 95.4497 104.213C96.489 104.595 96.8451 104.619 97.2529 104.567C97.6607 104.515 97.615 104.041 98.3386 104.206C99.0622 104.371 100.435 104.54 101.158 104.706C101.882 104.871 102.996 105.416 103.708 105.462C104.42 105.509 105.218 105.837 105.867 105.84C106.516 105.843 107.406 105.902 107.154 105.728C106.901 105.554 105.77 105.441 104.868 105.264C103.967 105.086 103.513 104.664 103.513 104.664C103.513 104.664 104.581 104.734 105.431 104.986C106.281 105.238 106.677 105.068 107.401 105.233C108.125 105.399 108.762 105.284 108.573 105.153C108.383 105.023 107.333 104.522 108.045 104.568C108.757 104.615 109.544 104.824 110.56 104.969C111.577 105.115 113.133 104.745 113.133 104.745C113.133 104.745 113.001 105.208 112.248 105.355C111.496 105.502 110.973 105.586 111.76 105.795C112.547 106.004 112.076 106.012 113.081 106.039C114.086 106.065 115.573 106.202 116.935 106.253C118.296 106.303 118.485 106.433 119.123 106.318C119.76 106.202 119.783 106.44 119.76 106.202C119.737 105.965 119.588 105.641 119.588 105.641C120.542 105.743 121.041 105.422 121.702 105.544C122.362 105.666 123.948 104.984 124.712 104.956C125.476 104.927 126.722 105.009 127.296 104.85C127.871 104.692 128.393 104.608 129.261 104.429C130.128 104.25 131.995 103.43 132.621 103.196C133.247 102.962 134.092 102.546 134.643 102.15C135.195 101.754 136.999 100.89 139.13 99.1437C141.945 97.7567 148.645 91.3984 149.457 88.1901ZM109.512 99.5954C105.698 99.1878 100.501 98.4927 99.3582 98.2605C98.2786 98.0717 94.3623 96.5962 92.3293 96.3055C90.3481 95.9396 85.3294 94.0381 83.4515 93.5218C81.5737 93.0055 70.8759 89.0805 67.7121 87.458C64.5484 85.8355 55.5623 81.3156 53.9835 80.2295C52.4677 79.1868 51.3827 78.3296 50.7626 78.0138C50.1425 77.6979 49.1031 77.3153 48.2821 76.7505C47.4611 76.1857 46.9901 76.1941 46.3586 75.7596C45.6639 75.2817 45.1586 74.9342 44.4639 74.4563C43.7692 73.9784 25.4893 60.5171 23.4293 56.8844C23.0792 56.3112 33.7686 65.6586 34.6642 66.3855C35.5598 67.1124 42.8911 72.8204 45.6645 74.0636C48.3862 75.382 55.3446 80.2796 57.1418 81.1835C59.0022 82.131 71.7667 87.9208 73.0184 88.671C74.27 89.4213 81.1094 91.2459 83.303 91.9794C85.4334 92.6695 93.7597 95.8493 96.3839 96.7683C99.0082 97.6873 103.574 97.9479 106.279 98.4793C108.921 98.9671 119.006 99.5902 121.067 99.5685C121.194 99.6554 113.44 99.9713 109.512 99.5954Z" fill="#FFCA42"/>
<path d="M134.579 16.798C131.126 13.3558 127.027 10.6299 122.517 8.77689C118.008 6.92386 113.176 5.98026 108.301 6.00031C100.355 5.97019 92.6092 8.49596 86.2083 13.2047C79.7994 8.49958 72.0484 5.97815 64.0979 6.01215C59.2167 5.98466 54.3787 6.92592 49.8639 8.78142C45.3491 10.6369 41.2474 13.3698 37.7962 16.8217C23.3993 31.3074 23.3993 54.886 37.8081 69.3835L73.6465 105.228C76.9912 108.567 81.4488 110.408 86.2024 110.408C90.9559 110.408 95.4195 108.567 98.7642 105.228L134.597 69.3835C138.045 65.9346 140.775 61.8354 142.628 57.3235C144.48 52.8116 145.419 47.9769 145.388 43.0997C145.418 38.2183 144.477 33.3797 142.621 28.8647C140.766 24.3497 138.032 20.2482 134.579 16.798Z" fill="#DFEBFB"/>
<path d="M116.928 68.9697V73.7024C116.928 75.4225 115.518 76.8162 113.784 76.8162H59.1444C57.4066 76.8162 56 75.4209 56 73.7024V68.9697H81.1117L81.7016 71.4277H91.2248L91.8148 68.9697H116.93H116.928Z" fill="#F99494"/>
<path d="M95.1373 33.2852C100.4 33.2852 104.665 36.6224 104.665 40.7426C104.665 44.8628 100.4 48.2001 95.1373 48.2001C94.5039 48.2001 93.8866 48.1535 93.2886 48.0634C92.6889 47.9718 92.1118 47.8384 91.5588 47.6631C89.4256 48.5553 87.6766 49.7385 85.209 49.6903C85.209 49.679 87.204 46.7613 87.384 45.075C86.27 43.8532 85.6093 42.3582 85.6093 40.7426C85.6093 36.6224 89.8757 33.2852 95.1373 33.2852Z" fill="#F99494"/>
<path d="M60.2559 66.1856V28.1138C60.2559 26.3938 61.6657 25 63.4018 25H109.523C111.26 25 112.667 26.3954 112.667 28.1138V66.1856" stroke="#6885A9" stroke-width="2" stroke-linejoin="round"/>
<path d="M91.8148 68.9697H116.93V73.7024C116.93 75.4225 115.52 76.8162 113.785 76.8162H59.1444C57.4066 76.8162 56 75.4209 56 73.7024V68.9697H81.1149" stroke="#6885A9" stroke-width="2" stroke-linecap="round" stroke-linejoin="round"/>
<path d="M91.8148 68.9683V68.9699L91.2248 71.4278H81.7016L81.1133 68.9699V68.9683" stroke="#6885A9" stroke-width="2" stroke-linecap="round" stroke-linejoin="round"/>
<path d="M68.8867 62.9463V59.011C68.8867 56.3826 71.0344 54.251 73.6821 54.251H78.8311C81.4803 54.251 83.6264 56.3826 83.6264 59.011V62.9463" stroke="#6885A9" stroke-width="2" stroke-linejoin="round"/>
<path d="M76.2552 51.1085C78.806 51.1085 80.8737 49.0508 80.8737 46.5125C80.8737 43.9742 78.806 41.9165 76.2552 41.9165C73.7045 41.9165 71.6367 43.9742 71.6367 46.5125C71.6367 49.0508 73.7045 51.1085 76.2552 51.1085Z" stroke="#6885A9" stroke-width="2" stroke-linecap="round" stroke-linejoin="round"/>
<path d="M95.1373 33.2852C89.8757 33.2852 85.6093 36.6224 85.6093 40.7426C85.6093 42.3566 86.27 43.8532 87.384 45.075C87.204 46.7613 85.209 49.679 85.209 49.6903C87.6782 49.7385 89.4272 48.5569 91.5588 47.6631C92.1118 47.8384 92.6889 47.9718 93.2886 48.0634C93.8882 48.1535 94.5055 48.2001 95.1373 48.2001C100.4 48.2001 104.665 44.8596 104.665 40.7426C104.665 36.6257 100.4 33.2852 95.1373 33.2852Z" stroke="#6885A9" stroke-width="2" stroke-linecap="round" stroke-linejoin="round"/>
</g>
</svg>
