<svg width="160" height="115" viewBox="0 0 160 115" fill="none" xmlns="http://www.w3.org/2000/svg">
<mask id="mask0_2051_4305" style="mask-type:alpha" maskUnits="userSpaceOnUse" x="0" y="0" width="160" height="115">
<rect width="160" height="115" fill="#D9D9D9"/>
</mask>
<g mask="url(#mask0_2051_4305)">
<path opacity="0.75" d="M27.1058 101.123C27.3151 103.201 27.5325 103.574 28.0528 105.671C28.6044 107.65 28.2853 109.336 27.575 110.349C26.8647 111.362 25.8067 111.778 24.693 111.926C23.5792 112.074 23.2125 111.788 22.2671 111.538C21.3218 111.288 19.4991 111.249 18.7466 110.987C18.0376 110.799 16.8057 110.916 15.7422 110.635C14.6786 110.354 13.0678 109.991 12.9943 108.834C12.9209 107.677 12.9712 107.248 13.7806 106.577C14.5466 105.831 15.2569 104.818 15.3139 103.885C15.3709 102.952 16.3567 100.178 16.3078 99.4066C16.2588 98.6351 16.423 96.3397 16.7476 95.3509C17.0721 94.3621 16.943 92.9373 17.2241 91.8738C17.5052 90.8103 18.3497 86.4191 18.7055 85.3121C19.0613 84.2051 19.8543 81.4438 20.0729 80.6166C20.4097 79.8207 20.9664 76.9969 21.2407 76.4373C21.515 75.8777 22.0582 74.0617 22.3203 73.3092C22.5512 72.6749 22.8825 71.1822 23.4311 70.063C23.9798 68.9437 24.7728 66.1824 25.2712 65.4924C25.7696 64.8024 26.1756 63.2662 26.5804 62.9307C26.9851 62.5952 27.5894 61.7435 28.1001 61.2464C28.6542 60.824 30.1849 60.5332 31.554 60.1365C32.9978 59.6963 35.2375 59.593 36.2643 59.2954C37.3345 59.0726 38.3981 59.3537 38.5217 60.0817C38.6454 60.8097 37.8169 61.7918 37.4991 62.2767C37.1813 62.7616 35.4362 65.777 35.0125 66.4235C34.5887 67.07 31.9881 73.0831 31.3825 75.1354C30.7769 77.1877 30.9685 78.3762 30.3586 78.531C29.867 78.7172 29.8167 79.1464 29.8969 79.7997C30.0206 80.5277 29.7897 81.162 29.5276 81.9144C29.3402 82.6234 28.2091 87.3814 28.1209 88.4327C28.1074 89.4405 27.6567 92.1026 27.4937 93.1974C27.3308 94.2921 27.7913 94.2242 27.3363 94.9889C26.8813 95.7536 27.5211 96.6812 27.1409 97.4025C27.0717 98.1427 26.9577 100.009 27.1058 101.123Z" fill="#FFCA42"/>
<path opacity="0.75" d="M68.4016 48.1936C67.9602 47.9505 66.803 48.0239 65.4339 48.4206C64.8118 48.3826 64.1897 48.3446 63.804 48.3691C62.8709 48.3121 59.5542 49.1422 58.7949 49.384C58.1851 49.5389 57.8863 49.7127 57.8673 50.0238C57.3567 50.5209 56.8895 51.0928 56.1982 51.795C55.1021 52.8328 54.1787 55.37 53.2241 58.0254C52.1947 60.7243 48.4144 76.2232 47.9704 78.3815C47.5264 80.5397 46.5595 83.0023 46.1873 82.0189C45.7716 80.9609 44.5828 75.653 44.0135 72.7845C43.8342 71.7889 42.3398 67.1588 41.9676 66.1755C41.6701 65.1487 39.354 60.9968 38.6083 60.2308C37.8626 59.4648 37.3152 59.3833 36.3509 59.4445C35.3866 59.5057 34.1981 59.6973 33.4701 59.8209C32.7421 59.9446 30.1724 60.34 29.2203 60.594C28.3429 60.8046 27.8934 62.2661 27.9614 62.7265C27.9614 62.7265 28.862 64.1024 29.514 65.2229C30.1225 66.2687 31.9414 69.9099 32.3327 70.5822C32.7239 71.2545 33.8975 73.2714 34.0891 74.4599C34.2807 75.6483 35.445 80.5704 35.5429 82.1134C35.6843 83.731 36.6177 89.2875 36.5975 90.7992C36.6207 92.3856 37.379 98.8439 37.5706 100.032C37.7622 101.221 38.3965 101.452 39.2793 101.938C40.1188 102.349 41.606 101.984 42.8501 102.06C44.0943 102.136 46.9126 101.996 47.9639 102.084C47.9639 102.084 49.208 102.16 50.2416 101.358C51.2751 100.557 51.1257 100.644 52.9755 98.6676C54.8253 96.6913 54.1488 95.1851 55.1524 93.3011C56.156 91.4172 57.0263 86.2111 57.4702 84.0528C57.9142 81.8946 60.4343 69.7288 61.2518 67.3532C61.4827 66.7189 61.8384 65.6119 62.2567 64.2686C62.523 65.4135 62.8205 66.4403 63.0188 67.1249C63.7008 69.3279 64.444 72.4952 65.0335 73.852C65.7413 75.2401 67.158 76.8155 68.1658 76.8291C69.2483 76.7991 71.5939 76.5341 73.1926 76.7038C74.7912 76.8734 77.4479 76.6274 78.419 76.0623C79.3901 75.4973 78.5262 74.7 78.0481 73.8783C77.5699 73.0566 77.1053 71.2271 76.8268 69.8893C76.4735 68.5949 75.4058 66.4164 75.1898 64.8422C74.899 63.3115 73.1995 58.5008 73.0881 57.9657C72.9767 57.4305 70.6008 51.1136 69.9677 49.6821C69.8686 49.3398 69.62 49.0845 69.4149 48.9038C69.5833 48.5059 68.9177 48.3932 68.4016 48.1936Z" fill="#FFCA42"/>
<path opacity="0.75" d="M68.1654 76.8313C69.5467 76.6275 73.0672 77.1787 74.7908 76.8757C76.4709 76.498 79.133 76.9487 80.5182 73.1429C81.9033 69.337 82.0971 62.6247 83.7009 57.9916C85.3481 53.4333 87.438 47.9174 88.6113 44.4349C88.6113 44.4349 89.8081 48.0382 91.0497 50.5155C92.2913 52.9928 95.0146 54.4079 97.3725 54.3357C99.7304 54.2636 102.312 54.0611 104.217 53.553C106.046 53.0883 108.002 50.9503 108.931 49.1099C109.785 47.3129 110.361 44.1781 111.046 42.7791C111.689 41.3053 113.489 33.0581 114.572 33.0281C115.654 32.9982 119.349 33.8482 121.246 33.844C123.144 33.8398 127.592 33.7512 128.837 32.6265C130.083 31.5018 131.136 29.1887 131.629 27.8019C132.122 26.4151 132.243 24.045 132.362 22.8755C132.557 21.6626 132.445 21.1275 133.773 18.2548C135.101 15.382 134.977 15.8547 135.594 13.9952C136.212 12.1358 136.063 12.2227 135.752 12.2037C135.484 12.2594 135.441 12.1847 135.279 12.0788C135.118 11.9729 135.031 11.8235 135.137 11.6618C135.199 11.4255 135.293 11.071 135.505 10.7477C135.716 10.4244 136.14 9.77791 135.916 9.90831C135.692 10.0387 135.661 10.1569 135.499 10.051C135.337 9.94502 135.251 9.79563 135.431 9.59052C135.612 9.38542 135.824 9.06215 135.544 8.92498C135.264 8.78782 134.791 8.66289 134.791 8.66289C134.791 8.66289 134.779 8.47002 134.598 8.67513C134.461 8.95493 134.293 9.35291 134.144 9.43984C133.994 9.52678 133.777 9.15328 133.808 9.03511C133.839 8.91694 134.07 8.28264 134.357 7.9159C134.6 7.47446 134.482 7.44322 134.693 7.11995C134.905 6.79668 134.881 6.41094 134.626 6.65952C134.37 6.90809 134.052 7.393 133.841 7.71627C133.703 7.99608 133.492 8.31934 133.46 8.43751C133.354 8.59915 133.323 8.71732 133.205 8.68609C133.087 8.65486 132.795 8.32483 132.795 8.32483C132.795 8.32483 132.739 8.05726 132.802 7.82092C132.864 7.58459 133.013 7.49765 133.119 7.33602C133.182 7.09968 132.945 7.03722 132.753 7.04946C132.634 7.01822 132.025 7.1731 131.993 7.29127C131.887 7.4529 131.538 8.05598 131.389 8.14292C131.24 8.22985 126.752 15.6406 126.204 16.7599C125.686 17.7609 123.766 21.6782 123.342 22.3247C122.919 22.9712 122.346 23.7047 121.979 23.4182C121.612 23.1316 117.158 22.5234 115.69 22.5778C114.265 22.707 110.041 22.6651 108.641 23.18C107.209 23.813 104.85 25.0858 104.158 26.9888C103.465 28.8917 99.6765 40.5958 99.6765 40.5958C99.6765 40.5958 96.8524 34.5396 96.5046 33.942C96.1569 33.3444 95.7467 32.9832 94.8448 32.808C93.9429 32.6329 86.4089 32.9172 85.6062 33.0844C84.8035 33.2515 82.0898 34.4306 81.6973 34.959C81.3048 35.4873 77.7099 40.4791 76.6683 42.9851C75.6267 45.4911 73.5613 51.3927 73.1308 52.5431C72.6256 53.7371 70.0005 59.3644 69.3772 60.527C68.7103 61.615 67.5239 71.6049 66.6575 73.209C65.8345 74.8878 65.5534 75.9513 66.1565 76.3003C66.7161 76.5747 68.1654 76.8313 68.1654 76.8313Z" fill="#FFCA42"/>
<ellipse cx="89" cy="57.5" rx="56" ry="55.5" fill="#DFEBFB"/>
<path d="M112.449 68.3486H113.649C117.23 68.3486 120.135 71.2218 120.135 74.7672V76.9913H112.449V74.6599V68.3486Z" fill="#B1E0F7"/>
<path d="M104.764 76.9913V74.7672C104.764 71.2218 107.667 68.3486 111.248 68.3486H112.45V74.6563V76.9913H104.762H104.764Z" fill="#B1E0F7"/>
<path d="M91.3232 33.0107H72.8828V40.9222H91.3232V33.0107Z" fill="#B1E0F7"/>
<path d="M74.5652 75.3809V85.0605L70.7498 80.5193L66.9434 85.0605V75.3809H74.5652Z" fill="#B1E0F7"/>
<path d="M63.2187 24V71.1469H61.5113C59.339 71.6171 58.1751 73.2602 58.0195 74.9873V28.0299C58.0195 25.804 59.8825 24 62.1818 24H63.2187Z" fill="#B1E0F7"/>
<path d="M58.0176 74.9927V75.7704" stroke="#6885A9" stroke-width="2" stroke-linecap="round" stroke-linejoin="round"/>
<path d="M99.8348 71.1469V24H62.1798C59.8806 24 58.0176 25.804 58.0176 28.0299V74.9873" stroke="#6885A9" stroke-width="2" stroke-linecap="round" stroke-linejoin="round"/>
<path d="M64.2769 79.6182H61.5092C59.3315 79.148 58.1694 77.5031 58.0174 75.7724C57.9942 75.5132 57.9942 75.2504 58.0174 74.9929V74.9893C58.173 73.2622 59.3351 71.6191 61.5092 71.1489H99.8418C95.1646 72.1591 95.1646 78.608 99.8418 79.6182H77.232" stroke="#6885A9" stroke-width="2" stroke-linejoin="round"/>
<path d="M91.3193 33.0107H72.8789V40.9222H91.3193V33.0107Z" stroke="#6885A9" stroke-width="2" stroke-linecap="round" stroke-linejoin="round"/>
<path d="M72.8789 46.8335H91.3193" stroke="#6885A9" stroke-width="2" stroke-linecap="square" stroke-linejoin="round"/>
<path d="M76.5664 52.3379H87.6371" stroke="#6885A9" stroke-width="2" stroke-linecap="square" stroke-linejoin="round"/>
<path d="M74.5652 75.3804V85.0601L70.7498 80.5188L66.9434 85.0601V75.3804" stroke="#6885A9" stroke-width="2" stroke-linecap="round" stroke-linejoin="round"/>
<path d="M64.4668 75.3804H66.943H74.5649H77.2896" stroke="#6885A9" stroke-width="2" stroke-linecap="round" stroke-linejoin="round"/>
<path d="M63.2168 24V71.1469" stroke="#6885A9" stroke-width="2" stroke-linecap="round" stroke-linejoin="round"/>
<path d="M120.134 76.9913V85.0798C120.134 88.6252 117.229 91.4984 113.647 91.4984H111.244C107.662 91.4984 104.76 88.6252 104.76 85.0798V74.7672C104.76 71.2218 107.663 68.3486 111.244 68.3486H113.647C117.229 68.3486 120.134 71.2218 120.134 74.7672V76.9913Z" stroke="#6885A9" stroke-width="2" stroke-linejoin="round"/>
<path d="M104.76 76.9917H112.446H120.132" stroke="#6885A9" stroke-width="2" stroke-linejoin="round"/>
<path d="M102.406 36.562H104.55C108.911 36.562 112.445 40.0574 112.445 44.3716V68.3473V74.6586" stroke="#6885A9" stroke-width="2" stroke-linejoin="round"/>
<path d="M112.447 76.9937V76.9919V74.6587" stroke="#6885A9" stroke-width="2" stroke-linejoin="round"/>
</g>
</svg>
