<svg width="38" height="53" fill="none" xmlns="http://www.w3.org/2000/svg"><path opacity=".75" d="M9.44 30.497c-.21-.636-.463-2.122-.672-3.124-.209-1.002-.96-1.663-1.172-1.567-.187.104-1.58 1.22-1.698 1.265-.118.045-.177.342-.063.584.12.218.399.979.45 1.072.045.117 2.283 5.079 3.113 6.469.83 1.39 2.27 4.029 3.025 5.135.755 1.107 2.965 4.072 3.833 5.237.893 1.173 2.238 2.685 3.125 3.515.886.831 1.29 1.156 1.583 1.32.294.162.508.328.656.45.148.12.165.152.445.363s.404.325.57.478c.165.152.552.263.956.222.411-.065 1.075-.371 1.251-.53.201-.151.35-.58.095-.784-.255-.204-.839-.45-1.326-.669-.486-.218-2.378-1.468-2.809-1.88a25.68 25.68 0 0 1-3.29-3.668c-1.244-1.77-2.41-3.179-3.595-5.063-1.161-1.878-1.864-2.709-2.677-4.617-.836-1.915-1.552-3.43-1.8-4.207Z" fill="#FBB116"/><path opacity=".75" d="M22.441 44.808c.003.446-.224 2.238-.28 2.981-.057.743.05 2.553.232 3.103.19.525.5.902.87.982.369.08.56-.127.798-.137.238-.01.47-.178.432-.503-.037-.325-.053-1.089-.132-1.452-.086-.338-.083-2.17-.179-2.746-.088-.602.067-2.781.05-3.362.009-.573.22-2.763.225-3.782-.02-1.027.357-4.975.493-6.087.137-1.112.562-3.502.674-4.255.129-.722.446-2.097.619-2.518.15-.428.288-.728.402-.853a.923.923 0 0 0 .274-.68c0-.366.209-.908.24-1.108.032-.2-.099-.657-.354-.678-.28-.028-.629-.18-.874-.147-.245.035-.795.034-.933.15-.139.118-.34.27-.367.55-.028.28-.053.822-.217 1.298-.17.501-.476 1.748-.528 2.02-.028.28-.08.37-.105.546-.024.176.16-.006.152.2-.031.201.072.205-.039.408-.135.197-.214.384-.114.49.1.108.162.257.065.412-.122.148-.201.152-.146.325.055.172.169.231.03.349-.138.117-.149.428-.163.842-.015.415-.446 4.373-.503 5.116-.056.743-.203 3.893-.325 4.774-.188.836-.297 3.762-.297 3.762Z" fill="#FBB116"/><path opacity=".75" d="M15.445 4.326c.175-1.154.432-2.231.526-2.466.094-.235.17-.5-.016-.763-.162-.256-.352-.416-.766-.43-.415-.015-1.33-.016-1.773.066-.442.082-.837.545-.924 1.121-.063.584-.189 1.202-.183 2.094.005.891.055 2.083.013 2.411-.042.328-.177.525-.025.543.128.01.228.117.204.294-.025.176-.038 2.135.009 2.698.079.546.008 1.703 0 2.46.015.763.052 1.82.079 2.09.027.27.04.587.103.553.062-.034.032-.567-.002-.995a12.843 12.843 0 0 1-.05-1.375c.039-.225.021-.256.029-.463.007-.207-.038-.325.08-.37.117-.044.106.633.13.823.017.214-.023.988 0 1.361 0 .366-.008.94.01 1.154.016.214.154.463.147.67-.014.232.027.453.047.564.02.11.208 1.734.253 2.035.051.276.243 1.248.256 1.382.014.135.225 2.316.256 2.481.023.19.329 1.587.35 1.697.037.142.06.698.091.864.03.166.216.978.257 1.2.041.22.048.38.079.545.03.166.169.232.13.09-.037-.141.026-.359.046-.248.045.117.1.29.09.418-.011.128-.056.193-.036.304.02.11.135.17.134.352 0 .183-.042.329-.028.463.014.135.57 2.389.817 3.166.355.861 1.96 5.929 2.468 7.619.509 1.69 2.408 6.737 2.896 7.95.465 1.207 1.263 2.98 1.363 3.271.124.297.124.48.369.63.245.148.742.056.95.063.207.007.639.053.612-.217-.028-.269-.327-1.14-.416-1.375-.09-.235-1.997-4.526-2.21-5.058-.213-.533-1.909-5.286-2.496-7.156-.588-1.87-1.776-6.843-2.087-8.398-.312-1.556-1.353-7.586-1.424-8.34-.095-.76-.387-2.204-.467-3.562a219.822 219.822 0 0 1-.29-4.27c-.07-1.486.05-3.179.061-3.856-.02-.66.157-2.912.338-4.09Z" fill="#FBB116"/></svg>