<svg width="174" height="174" fill="none" xmlns="http://www.w3.org/2000/svg"><mask id="a" style="mask-type:alpha" maskUnits="userSpaceOnUse" x="0" y="0" width="174" height="174"><path transform="matrix(-1 0 0 1 174 0)" fill="#D9D9D9" d="M0 0h174v174H0z"/></mask><g filter="url(#b)" mask="url(#a)"><path fill-rule="evenodd" clip-rule="evenodd" d="M29.728 50.153 231.93-4.027c1.261-.338 2.491.372 2.829 1.632l36.639 136.742c.338 1.261-.372 2.49-1.632 2.828l-202.203 54.18c-1.26.338-2.49-.372-2.828-1.633L28.095 52.981c-.435-1.235.372-2.49 1.633-2.828Z" fill="#E4ECFD"/><path fill-rule="evenodd" clip-rule="evenodd" d="M32.2 52.4 230.233-.661a.686.686 0 0 1 .86.497l36.043 134.511a.687.687 0 0 1-.497.86L68.606 188.269 32.2 52.4Zm135.327 105.102 33.167-8.887a23.603 23.603 0 0 1 9.215-.91c2.18.767 6.719-.138 13.837-2.669l11.249-3.014c1.048.031 1.959-.837 1.893-1.858-.26-.97-.009-1.973.488-2.834.62-.789 1.512-1.34 2.534-1.406l4.849-1.299c3.642.791 7.36.314 10.617-1.494 1.713-.979 2.856-2.532 3.287-4.415a6.639 6.639 0 0 0-1.138-5.412c-1.899-2.817-3.364-5.959-4.248-9.256-.521-3.498-.409-6.958.311-10.477 1.548-3.533 1.091-7.569-1.106-10.722-4.69-6.643-7.79-14.335-9.119-22.398-2.881-7.648-4.042-15.86-3.302-23.958.326-3.83-1.296-7.553-4.403-9.838-2.357-2.59-4.21-5.628-5.508-8.919-.883-3.297-1.282-6.724-.95-10.14a6.635 6.635 0 0 0-1.72-5.255c-1.314-1.415-3.204-2.26-5.053-2.18-3.7.16-7.281 1.535-9.942 4.015l-4.849 1.3c-.918.453-1.966.422-2.898.048-.932-.374-1.579-1.24-1.839-2.21-.551-.892-1.677-1.214-2.569-.663l-11.249 3.014c-7.333 1.342-11.813 2.854-13.317 4.608a23.63 23.63 0 0 1-8.436 3.82l-33.167 8.887-33.167 8.887c-3.13.734-6.266 1.055-9.39.645-2.18-.767-6.72.137-13.837 2.668l-11.25 3.014c-1.047-.03-1.958.837-1.892 1.859.26.97.009 1.972-.488 2.833-.62.79-1.512 1.34-2.534 1.407l-4.849 1.299c-3.642-.791-7.36-.315-10.617 1.494-1.713.978-2.856 2.532-3.287 4.414a6.636 6.636 0 0 0 1.138 5.412c1.898 2.818 3.364 5.96 4.247 9.256.522 3.499.41 6.959-.31 10.478-1.548 3.533-1.09 7.568 1.105 10.722 4.69 6.642 7.791 14.335 9.12 22.398 2.881 7.648 4.042 15.86 3.302 23.958-.326 3.829 1.296 7.552 4.403 9.838 2.357 2.59 4.21 5.628 5.508 8.918.883 3.298 1.282 6.725.95 10.14a6.636 6.636 0 0 0 1.72 5.256c1.314 1.415 3.204 2.26 5.053 2.18 3.7-.16 7.28-1.535 9.942-4.015l4.85-1.3c.917-.453 1.965-.422 2.897-.048.931.374 1.58 1.239 1.84 2.209.55.892 1.676 1.214 2.567.663l11.25-3.014c7.332-1.341 11.813-2.853 13.317-4.608a23.625 23.625 0 0 1 8.436-3.819c11.133-2.672 22.189-5.634 33.342-8.622Z" fill="#76AFCB"/><path d="M70.758 94.664c-.07.123-.116.343-.135.66-.192 1.61-.462 2.93-.661 4.127-.199 1.196-.916 2.012-2.177 2.35-.194.052-.317-.019-.537-.064-.22-.045-.272-.239-.297-.336a.553.553 0 0 1 .16-.563c.072-.123.265-.175.556-.253.388-.104.627-.376.77-.621.07-.123.115-.343.276-.906-.64-.452-1.061-.86-1.385-1.292-.175-.265-.57-.575-.99-.982-.545-.478-.94-.788-1.089-.956-.123-.07-.148-.168-.174-.265-.053-.194.019-.317.09-.44a.767.767 0 0 1 .432-.324c.194-.052.414-.007.66.135.15.169.298.337.518.382.421.406.693.645.939.787.298.336.57.575.842.814.148.168.323.433.57.575.063-.537.172-1.294.3-2.367.046-.22.162-.563.225-1.1.02-.317.188-.466.478-.544.194-.052.317.02.537.064.123.071.272.24.298.336-.142.246-.187.466-.206.783ZM80.18 98.792a891.525 891.525 0 0 0 .103.388c.052.194-.019.317-.09.44a.767.767 0 0 1-.433.324c-.29.078-.51.033-.686-.232-.148-.168-.2-.362-.278-.653l-.13-.485a17874.294 17874.294 0 0 0-4.073 1.091l.207.776c.052.194-.019.317-.09.44a.767.767 0 0 1-.432.324c-.195.052-.317-.019-.537-.064-.123-.071-.272-.239-.298-.336l-.156-.582-.156-.582-.052-.194c-.078-.29.064-.537.523-.764.244-1.416.145-2.949-.27-4.5-.027-.098-.079-.292-.228-.46a1.093 1.093 0 0 1-.227-.458c-.103-.388.136-.66.717-.816l2.328-.624.679-.182c.07-.123.168-.149.265-.175.194-.052.317.02.537.064.123.071.271.24.297.336l.364 1.358.364 1.358c.13.485.364 1.358.605 2.644.317.02.466.187.544.478l.13.485c.394.31.446.504.472.601Zm-3.312-5.765-.68.182-.678.182-.873.234.104.388c.156.581.24 1.286.352 2.088.04.925.028 1.656-.01 2.29l.97-.26.97-.26.872-.234-.338-1.26-.338-1.261c.168-.15-.014-.828-.351-2.089ZM84.492 97.428c-.873.234-1.727.151-2.536-.152-.834-.4-1.307-1-1.541-1.873-.286-1.067-.229-2.018.216-3.073.42-1.151 1.259-1.896 2.326-2.182 1.067-.286 1.894-.3 2.632.126.615.355 1.114 1.053 1.374 2.023.285 1.067.228 2.017-.12 3.046-.542 1.08-1.285 1.8-2.351 2.085Zm-1.224-6.116c-.678.182-1.182.629-1.485 1.437-.33.712-.341 1.443-.133 2.219.13.485.427.82.92 1.105a2.465 2.465 0 0 0 1.584.095c.679-.182 1.183-.629 1.389-1.412.232-.686.244-1.416.036-2.192-.182-.68-.383-1.041-.752-1.254-.343-.116-.88-.18-1.558.002ZM92.522 89.768c-.291.078-.51.033-.686-.232-.149-.168-.272-.239-.369-.213l-.388.104c-.388.104-.698.499-1.123 1.236-.446 1.055-.626 1.935-.444 2.614.078.29.253.556.525.795s.589.258.88.18c.29-.078.556-.253.82-.428.072-.123.337-.298.55-.667.142-.246.336-.298.53-.35.194-.052.317.02.537.064.122.071.271.24.297.336.052.194-.019.317-.064.537-.69.913-1.362 1.509-2.235 1.743-.68.181-1.339.046-1.954-.309a2.352 2.352 0 0 1-1.12-1.466c-.26-.97-.061-2.167.526-3.468.542-1.08 1.188-1.773 1.963-1.98l.388-.105.291-.078a.767.767 0 0 1 .433-.324c.291-.078.537.064.712.33.175.264.253.555.33.846.053.194.079.291.008.414a.552.552 0 0 1-.407.42ZM99.42 87.192a5.408 5.408 0 0 1-1.093.19c-.485.129-.899.136-1.067.285.104.388.357.944.591 1.817.305.75.46 1.331.59 1.816l.13.485.13.485c.053.194.105.388.06.608-.045.22-.188.466-.382.518-.194.052-.316-.02-.536-.064a.767.767 0 0 1-.324-.433l-.052-.194-.052-.194-.182-.679-.182-.679a11.6 11.6 0 0 0-.539-1.623c-.305-.75-.46-1.331-.538-1.622l-.194.052c-.68.182-1.261.338-1.701.248-.317-.02-.563-.162-.64-.452-.053-.194.018-.317.09-.44.044-.22.238-.272.432-.324.097-.026.388-.104.705-.085.29-.078.608-.06.802-.111l.873-.234.872-.234 1.067-.286 1.067-.285c.194-.052.317.019.537.064a.767.767 0 0 1 .324.433c.052.194-.019.316-.064.536-.336.298-.53.35-.724.402ZM105.987 91.149c-.601.473-1.447.803-2.611 1.115a.767.767 0 0 1-.537-.064.767.767 0 0 1-.324-.433l-1.299-4.849-.156-.582-.156-.581c-.078-.291.161-.563.646-.693.168-.15.556-.253 1.138-.409a2.725 2.725 0 0 1 1.804.14c.686.232 1.23.71 1.412 1.389.104.388.085.705.04.925-.045.22-.187.466-.329.712.317.019.686.231.957.47.369.213.57.575.648.866.104.388.014.828-.367 1.346-.265.175-.601.473-.866.648Zm-2.988-5.332-.678.182.259.97.26.97.582-.157c.944-.356 1.254-.751 1.072-1.43-.052-.194-.201-.362-.544-.478-.246-.142-.563-.161-.951-.057Zm1.44 3.044-1.261.338.468 1.746a5.569 5.569 0 0 0 1.571-.733c.529-.35.697-.499.645-.693-.051-.194-.323-.433-.64-.452a.87.87 0 0 0-.783-.206ZM111.851 83.55l-.194.051c-.511.033-1.022.066-1.507.196-.194.052-.485.13-.75.305-.291.078-.556.253-.821.428l.494 1.842c.194-.052.75-.305 1.694-.661.556-.253.944-.357 1.04-.383.194-.052.317.019.537.064.22.045.272.239.324.433.104.388-.038.634-.426.737-.291.079-.582.156-1.041.383-.387.104-1.04.383-1.887.714l.26.97c.156.582.26.97.357.944 0 0 .22.045.607-.06l.873-.233.873-.234.291-.078.291-.078c.194-.052.317.019.537.064a.767.767 0 0 1 .324.433c.078.29-.038.634-.329.712-.265.175-.944.357-1.817.59-.97.26-1.675.345-2.043.132-.369-.213-.745-.84-1.005-1.81-.104-.387-.26-.97-.397-1.868a14.99 14.99 0 0 0-.397-1.869l-.129-.484-.13-.485c-.13-.485.012-.731.497-.861.097-.026.29-.078.413-.007.362-.201.627-.376.918-.454.291-.078.556-.253.847-.33.776-.209 1.384-.268 1.921-.204.317.02.466.187.544.478.051.194-.02.317-.091.44-.316-.019-.484.13-.678.182ZM115.908 85.892l-.388.104.572 2.133c.052.194-.019.317-.09.44s-.239.272-.336.298c-.097.026-.317-.019-.44-.09-.123-.07-.272-.239-.298-.336l-.337-1.26a20.421 20.421 0 0 1-.475-2.16c-.163-.996-.345-1.675-.475-2.16-.208-.775-.118-1.215.367-1.345.097-.026.291-.078.362-.201l.679-.182a2.728 2.728 0 0 1 1.805.14c.685.232 1.132.736 1.288 1.318.208.776.073 1.436-.476 2.102-.355.615-.982.991-1.758 1.199Zm-.715-3.446-.291.078-.194.052.182.678c.078.291.234.873.319 1.578l.291-.078c.484-.13.846-.33 1.085-.603.239-.272.329-.711.225-1.1-.078-.29-.323-.432-.666-.548-.149-.168-.563-.161-.951-.057ZM123.682 80.379l-.194.052c-.511.033-1.022.066-1.507.195-.194.052-.485.13-.75.305-.291.078-.556.253-.821.428l.494 1.843c.194-.052.75-.305 1.694-.662a6.646 6.646 0 0 1 1.041-.383c.194-.052.316.02.536.064.22.045.272.24.324.433.104.388-.038.634-.426.738a4.9 4.9 0 0 0-1.04.383c-.388.104-1.041.383-1.888.714l.26.97c.156.581.26.97.357.943 0 0 .22.045.607-.059l.873-.234.873-.233.291-.079.291-.077c.194-.052.317.019.537.064a.767.767 0 0 1 .324.433c.078.29-.038.633-.329.711-.265.175-.944.357-1.817.591-.97.26-1.675.345-2.043.132-.369-.213-.745-.84-1.005-1.81-.104-.388-.26-.97-.397-1.868a14.99 14.99 0 0 0-.397-1.869l-.129-.485-.13-.485c-.13-.485.012-.73.497-.86.097-.026.291-.079.414-.008.361-.2.626-.375.917-.453.291-.078.556-.253.847-.331.776-.208 1.384-.267 1.921-.203.317.019.466.187.544.478.052.194-.019.317-.09.44-.317-.02-.485.13-.679.182ZM131.673 77.614c-.045.22.007.414.059.608l.104.388.104.388.337 1.26.338 1.261c.052.194.156.582.357.944.13.485.305.75.357.944.052.194-.019.317-.09.44a.767.767 0 0 1-.433.324c-.194.052-.317-.02-.537-.064-.123-.071-.272-.24-.298-.336l-.26-.97-.26-.97-.13-.485c-.484.13-1.04.383-1.693.662l-1.668.759c.052.194.13.485.163.996l.26.97c.052.193-.019.316-.09.44a.767.767 0 0 1-.433.323c-.194.052-.317-.019-.537-.064-.265.175-.317-.019-.343-.116a8.2 8.2 0 0 1-.267-1.384c-.059-.608-.189-1.092-.267-1.383l-.467-1.746-.468-1.746c-.052-.194.019-.317.09-.44a.767.767 0 0 1 .433-.323c.194-.052.317.019.537.064.123.07.272.239.298.336l.286 1.066a512.148 512.148 0 0 0 .415 1.552l.13.485 1.668-.759c.653-.279 1.209-.531 1.694-.662a14.942 14.942 0 0 1-.345-1.674c-.052-.194-.033-.511-.014-.828.09-.44.232-.686.426-.738.194-.052.317.02.44.09.123.071.272.24.298.336-.22-.045-.194.052-.194.052ZM138.179 77.846l-.994 1.721c-.329.712-.658 1.424-.935 2.33-.142.246-.258.588-.419 1.151-.142.246-.213.37-.407.421a.767.767 0 0 1-.537-.064.767.767 0 0 1-.324-.433c-.37-1.771-.533-2.767-.585-2.961-.208-.776-.416-1.552-.695-2.205l-.104-.388-.104-.388c-.052-.194.019-.316.09-.44a.767.767 0 0 1 .433-.323c.194-.052.317.019.537.064.22.045.272.239.298.336l.104.388a1602.267 1602.267 0 0 0 .52 1.94l.389 1.454a20.59 20.59 0 0 1 1.723-3.268c.168-.15.187-.466.426-.738.213-.369.232-.686.303-.809.019-.317.187-.466.478-.544.194-.052.317.02.537.064.22.045.272.24.298.336l.234.873.234.873.259.97.26.97.338 1.26.338 1.261c.052.194-.019.317-.09.44a.767.767 0 0 1-.433.324c-.194.052-.317-.02-.537-.064-.123-.071-.272-.24-.298-.336l-.338-1.26-.337-1.262-.208-.775c-.35-.53-.402-.724-.454-.918ZM145.214 74.61l-.194.052c-.511.033-1.022.066-1.507.196-.194.052-.485.13-.75.305-.29.078-.555.253-.82.428l.493 1.842c.194-.052.75-.305 1.694-.661.556-.253.944-.357 1.041-.383.194-.052.317.019.537.064.22.045.272.239.324.433.103.388-.039.634-.426.738-.291.078-.582.155-1.041.382-.388.104-1.041.383-1.888.714l.26.97c.156.582.26.97.357.944 0 0 .22.045.608-.06l.873-.233.872-.234.291-.078.291-.078c.194-.052.317.02.537.064a.767.767 0 0 1 .324.433c.078.29-.038.634-.329.712-.265.175-.944.357-1.817.59-.969.26-1.674.345-2.043.132-.369-.213-.745-.84-1.005-1.81-.104-.387-.26-.97-.397-1.868-.11-.802-.292-1.48-.396-1.869l-.13-.484-.13-.485c-.13-.485.012-.731.497-.861.097-.026.291-.078.414-.007.362-.201.627-.376.918-.454.29-.078.555-.253.846-.33.776-.209 1.384-.268 1.921-.204.317.02.466.188.544.478.052.194-.019.317-.09.44-.414.007-.485.13-.679.182ZM75.306 107.373a1.696 1.696 0 0 1-1.048-.031c-.343-.116-.64-.452-.745-.84-.13-.484-.137-.898.05-1.364a1.431 1.431 0 0 1 1.008-.894c.485-.13.802-.111 1.145.005.246.142.518.381.648.866s.137.899-.05 1.365a1.43 1.43 0 0 1-1.008.893Zm-.508-2.67c-.29.078-.556.253-.672.596-.116.343-.135.66-.057.951.052.193.201.361.447.503.22.045.44.09.634.038.29-.077.556-.252.672-.595.116-.343.135-.66.057-.951-.078-.291-.227-.459-.35-.53-.22-.045-.44-.09-.73-.012ZM81.509 102.593c.052.194-.02.317-.31.395l.208.776.13.485.208.776.052.194.052.193c.026.097.026.097-.045.22s-.071.123-.168.149c-.194.052-.317-.019-.37-.213l-.103-.388-.182-.678-.156-.582-.208-.776-.485.13-.97.26.052.194.286 1.066.078.291.078.291.052.194a239.19 239.19 0 0 0 .13.485c.026.097-.045.22-.239.272-.097.026-.097.026-.22-.045-.097.026-.123-.071-.149-.168l-.182-.679-.078-.291-.078-.291-.285-1.066-.079-.291-.194.052c-.096.026-.096.026-.22-.045-.122-.071-.122-.071-.148-.168-.052-.194.019-.317.31-.395l.097-.026.097-.026.484-.13.485-.13 1.649-.442c.097-.026.097-.026.22.045a.76.76 0 0 1 .2.362ZM84.033 105.035a1.696 1.696 0 0 1-1.047-.031c-.343-.116-.641-.452-.745-.84-.13-.485-.137-.899.05-1.365a1.428 1.428 0 0 1 1.008-.893c.485-.13.802-.111 1.144.005.246.142.518.381.648.865.13.485.137.899-.05 1.365a1.431 1.431 0 0 1-1.008.894Zm-.507-2.671c-.291.078-.556.253-.672.596-.116.343-.135.66-.057.951.052.194.2.362.447.504.22.045.44.09.633.038.291-.078.556-.253.672-.596.116-.343.135-.66.057-.951-.078-.291-.227-.459-.35-.53-.22-.045-.44-.09-.73-.012ZM87.376 103.931a3.745 3.745 0 0 1-1.111.506c-.097.026-.194.052-.22-.045-.123-.071-.123-.071-.15-.168l-.57-2.133-.079-.291-.078-.291c-.026-.097.045-.22.336-.298l.485-.13c.291-.078.51-.033.73.012.344.116.493.284.57.575.053.194.079.291.008.414.026.097-.045.22-.116.343.123.071.246.142.466.187.122.071.271.239.297.336a.552.552 0 0 1-.16.563c-.169.148-.24.271-.408.42Zm-1.257-2.365-.291.078.104.388.104.388.29-.078c.389-.104.53-.35.453-.641-.026-.097-.15-.168-.272-.239l-.388.104Zm.558 1.306-.582.156.208.775c.194-.052.459-.227.75-.305.168-.148.362-.2.335-.297-.026-.097-.148-.168-.271-.239-.22-.045-.317-.019-.44-.09ZM89.342 103.509l-.291.078-.29.078-.098.026c-.194.052-.317-.019-.395-.31l-.078-.291-.182-.679-.181-.679-.182-.679c-.052-.194.019-.317.213-.369.096-.026.194-.052.22.045.123.071.123.071.148.168l.208.776.194-.052c.388-.104.802-.111 1.022-.066.343.116.492.284.596.672.078.291.059.608-.18.88-.071.123-.336.298-.724.402Zm-.39-1.455-.29.078.025.097.208.776.291-.078c.388-.104.627-.376.575-.57-.052-.194-.175-.265-.298-.336-.123-.071-.317-.019-.51.033Zm2.553-1.723c-.097.026-.194.052-.511.033l.26.969.234.873.582-.156c.096-.026.096-.026.22.045.122.071.122.071.148.168.026.097.026.097-.045.22-.07.123-.07.123-.168.149l-.387.104-.388.104-.388.104-.388.104c-.097.026-.194.052-.22-.045-.123-.071-.123-.071-.15-.168-.025-.097-.025-.097.046-.22.07-.123.07-.123.168-.149l.388-.104-.234-.873-.286-1.066-.388.103c-.097.026-.194.052-.22-.045-.123-.071-.123-.071-.149-.168-.026-.097-.026-.097.045-.219 0 0 .071-.123.168-.15l.582-.155c.291-.078.582-.156.996-.163.194-.052.22.045.272.239.026.097.052.194-.045.22-.045.22-.045.22-.142.246ZM95.84 101.768l-1.261.338-1.261.337-.097.026-.097.026c-.194.052-.317-.019-.343-.116l-.026-.097-.026-.097-.052-.194-.156-.582-.156-.581-.155-.582-.156-.582c-.026-.097-.026-.097.044-.22.072-.123.072-.123.168-.149.194-.052.317.019.37.213.077.29.304.75.486 1.429l.208.775.873-.233-.052-.194-.052-.194-.234-.873-.234-.873-.078-.29c.071-.124.071-.124.265-.176.097-.026.097-.026.22.045.026.097.123.071.15.168l.103.388.104.388.182.679.182.679.052.194.388-.104.388-.104-.052-.194-.052-.194-.234-.873-.234-.873-.078-.29c.07-.124.07-.124.265-.176.097-.026.097-.026.22.045.026.097.123.071.149.168a494.908 494.908 0 0 1 .208.776l.39 1.455.025.097.026.097c-.116.343-.187.466-.38.518ZM97.756 98.448c-.317-.02-.51.033-.704.084l-.291.078c-.097.026-.194.052-.362.201l.207.776c.098-.026.291-.078.75-.305l.485-.13c.097-.026.097-.026.22.045s.123.071.15.168c.051.194-.02.317-.214.37l-.485.13c-.194.051-.485.13-.847.33l.104.388.13.485.291-.078.388-.104.388-.104.097-.026.097-.026c.097-.026.097-.026.22.045.097-.026.123.071.149.168.052.194-.045.22-.116.343l-.873.234a2.004 2.004 0 0 1-.925.04c-.123-.071-.298-.336-.427-.821l-.208-.776-.208-.776-.052-.194-.052-.194c-.052-.194.019-.317.213-.369.097-.026.097-.026.22.045.194-.052.265-.175.459-.227l.388-.104c.29-.078.581-.155.801-.11.097-.026.22.045.272.239.026.097.026.097-.045.22-.026-.097-.123-.072-.22-.045ZM101.098 97.344l.078.291.052.194.052.194.156.582.155.582.104.388.104.388c.026.097.026.097-.045.22s-.071.123-.168.149c-.097.026-.097.026-.22-.045s-.123-.071-.149-.168l-.104-.388-.103-.388-.052-.194c-.194.052-.485.13-.75.305-.291.078-.46.227-.75.305l.104.387.104.388c.026.097.026.097-.045.22-.097.026-.071.123-.168.149-.097.026-.097.026-.22-.045-.097.026-.123-.071-.15-.168l-.155-.582-.156-.581-.208-.776-.208-.776c-.026-.097-.026-.097.045-.22.097-.026.071-.123.168-.149.097-.026.097-.026.22.045s.123.071.15.168l.13.485.129.485.052.194.052.194.75-.305c.265-.175.556-.253.75-.305l-.182-.679a.759.759 0 0 1-.007-.414c.045-.22.116-.343.213-.369.097-.026.097-.026.22.045-.097.026.026.097.052.194ZM103.633 97.496c-.071.123-.31.395-.426.738-.116.343-.258.589-.445 1.055a1.385 1.385 0 0 0-.187.465c-.071.123-.071.123-.168.15-.097.025-.194.051-.22-.046-.123-.07-.123-.07-.149-.168-.208-.775-.214-1.19-.24-1.286l-.26-.97-.052-.194-.052-.194c-.026-.097-.026-.097.045-.22s.071-.123.168-.149c.097-.026.097-.026.22.045s.123.071.149.168l.052.194.052.194.181.679.156.582c.187-.466.471-.958.755-1.45.071-.123.142-.246.116-.343.045-.22.142-.246.116-.343-.026-.097.045-.22.239-.272.097-.026.194-.052.22.045.097-.026.123.071.149.168l.104.388.104.388.104.388.104.388.156.582.156.582c.026.097.026.097-.045.22s-.071.123-.168.149c-.097.026-.194.052-.22-.045-.026-.097-.123-.071-.149-.168l-.156-.582-.156-.582-.104-.388c-.097.026-.123-.071-.149-.168ZM106.737 96.665c-.071.123-.31.394-.426.737-.116.343-.258.59-.445 1.055-.071.123-.142.246-.187.466-.071.123-.071.123-.168.149-.097.026-.194.052-.22-.045-.123-.071-.123-.071-.149-.168-.208-.776-.215-1.19-.241-1.287l-.26-.97-.052-.194-.052-.194c-.026-.096-.026-.096.045-.22.071-.122.071-.122.168-.148.097-.026.097-.026.22.045a.759.759 0 0 0 .007.414l.052.194.052.194.182.678.156.582c.187-.466.471-.957.755-1.45.071-.122.142-.245.116-.342.045-.22.142-.246.116-.343-.026-.097.045-.22.239-.272.097-.026.194-.052.22.045.097-.026.123.07.149.168l.104.388.104.388.104.388.103.388.156.581.156.582c.026.097.026.097-.045.22s-.071.123-.168.15c-.097.025-.194.051-.22-.046-.026-.097-.123-.07-.149-.168l-.155-.582-.156-.582-.104-.387a.759.759 0 0 0-.007-.414ZM112.035 97.428c-.096.026-.219-.045-.342-.116a5.75 5.75 0 0 0-.57-.575c-.298-.336-.615-.355-.712-.329l-.194.052.078.291.078.291.026.097.052.194c.078.29.033.51-.161.563-.097.026-.097.026-.22-.045s-.123-.071-.149-.168l-.104-.388-.104-.388-.208-.776-.208-.776c-.078-.29-.007-.414.187-.466.097-.025.097-.025.22.046.071-.124.097-.026.123.07l.234.873c.194-.052.265-.175.407-.42.045-.22.116-.343.161-.563a.552.552 0 0 1 .407-.421c.097-.026.097-.026.22.045.097-.026.123.07.149.168l.052.194c.026.097-.071.123-.071.123-.097.026-.168.148-.187.465-.045.22-.09.44-.258.59.22.044.492.283.861.496.272.24.543.478.595.672.026.097.026.097-.045.22-.22-.045-.317-.019-.317-.019ZM114.143 96.76a3.748 3.748 0 0 1-1.112.505c-.097.026-.194.052-.22-.045-.123-.07-.123-.07-.149-.168l-.571-2.134-.078-.29-.078-.291c-.026-.097.045-.22.336-.298l.485-.13c.291-.078.511-.033.73.012.343.116.492.284.57.575.052.194.078.29.007.414.026.097-.045.22-.116.343.123.07.246.142.466.187.123.07.272.239.298.336a.552.552 0 0 1-.161.562c-.265.175-.336.298-.407.421Zm-1.354-2.34-.291.078.104.388.104.388.29-.079c.388-.103.53-.35.452-.64-.026-.097-.149-.168-.271-.24l-.388.105Zm.654 1.28-.582.155.208.776c.194-.052.459-.227.75-.305.168-.149.362-.2.336-.297-.026-.097-.149-.168-.272-.24-.22-.044-.317-.019-.44-.09ZM117.465 95.973c-.097.026-.22-.045-.394-.31-.149-.168-.175-.265-.35-.53l-.485.13c-.194.052-.388.104-.459.227-.045.22-.09.44-.109.757-.071.123-.071.123-.168.149-.097.026-.097.026-.22-.045s-.123-.071-.149-.168c-.026-.097.019-.317.109-.757l-.026-.097c-.026-.097.071-.123.142-.246.116-.343.206-.783.322-1.126.161-.563.374-.932.374-.932.194-.052.317.02.369.213.026.097.201.362.279.653.201.362.402.724.628 1.183 0 0 .026.097.175.265.026.097.149.168.175.265.026.097.026.097-.045.22s-.168.149-.168.149Zm-1.321-1.829c-.045.22-.187.466-.206.783l.291-.078.291-.078c-.149-.168-.201-.362-.376-.627ZM120.375 95.193c-.194.052-.317-.019-.395-.31l-.13-.485-.13-.485-.13-.485-.13-.484-.194.052-.388.103-.388.104-.097.026.156.582.156.582.156.582c.078.29.033.51-.012.73-.045.22-.31.396-.601.474-.097.026-.097.026-.22-.045s-.123-.071-.149-.168c-.026-.097-.052-.194.045-.22 0 0 .097-.026.168-.15.097-.025.097-.025.071-.122-.026-.097.045-.22.019-.317l-.156-.582-.156-.582-.182-.679-.026-.097c-.026-.097-.026-.097.045-.22s.071-.123.168-.149l.194-.052.194-.052 1.261-.337c.097-.026.097-.026.22.045.123.07.123.07.149.168l.312 1.163.312 1.164c.123.071.052.194-.142.246ZM122.642 92.403c-.071.123-.31.395-.426.738-.116.343-.258.589-.445 1.055a1.385 1.385 0 0 0-.187.466c-.071.122-.071.122-.168.148-.097.026-.194.052-.22-.044-.123-.072-.123-.072-.149-.169-.208-.775-.215-1.19-.241-1.286l-.26-.97-.052-.194-.051-.194c-.026-.097-.026-.097.045-.22s.071-.123.167-.149c.097-.026.097-.026.22.045s.123.071.149.168l.052.194.052.194.182.679.156.582c.187-.466.471-.958.755-1.45.071-.123.142-.246.116-.343.045-.22.142-.246.116-.343-.026-.097.045-.22.239-.272.097-.025.194-.051.22.046.097-.026.123.07.149.167l.104.388.104.388.104.388.104.388.156.582.156.582c.026.097.026.097-.045.22s-.071.123-.168.149c-.097.026-.194.052-.22-.045-.026-.097-.194.052-.22-.045l-.156-.582-.156-.582-.104-.388-.078-.29ZM124.768 91.418c.29-.078.51-.033.633.038.22.045.395.31.447.504.13.484-.083.853-.665 1.01l.078.29.582-.156c.097-.026.097-.026.22.045 0 0 .123.071.149.168.026.097.026.097-.045.22 0 0-.071.123-.168.15l-.291.077-.291.078-.388.104-.388.104c-.097.026-.097.026-.22-.045s-.123-.071-.149-.168c-.026-.097-.026-.097.045-.22s.071-.123.168-.149l.388-.104-.078-.29-.097.025c-.194.052-.414.007-.633-.038a.552.552 0 0 1-.421-.407c-.078-.29-.033-.51.135-.66.071-.123.336-.298.627-.376l-.052-.194-.485.13c-.097.026-.097.026-.22-.045 0 0-.123-.07-.149-.168a.216.216 0 0 1 .142-.245l.582-.156c.291-.078.582-.156.995-.163a.216.216 0 0 1 .246.142c.026.097.026.097-.045.22 0 0-.071.123-.168.149-.097.026-.291.078-.607.059.22.045.123.07.123.07Zm-.355.614c-.291.078-.433.324-.355.615.026.097.052.194.149.168.123.071.219.045.316.02l-.052-.195c.046-.22-.006-.414-.058-.608Zm.555-.252.156.581.078.291c.291-.078.433-.324.381-.518-.175-.264-.324-.433-.615-.355ZM128.169 90.922c-.071.123-.31.395-.426.738-.116.343-.258.589-.445 1.054-.071.123-.142.246-.187.466-.071.123-.071.123-.168.15-.097.025-.194.051-.22-.046-.123-.07-.123-.07-.149-.168-.207-.776-.214-1.19-.24-1.287l-.26-.97-.052-.193-.052-.194c-.026-.097-.026-.097.045-.22s.071-.123.168-.15c.097-.025.097-.025.22.046.123.07.123.07.149.168a6271570758351.057 6271570758351.057 0 0 0 .286 1.067l.155.582c.187-.466.471-.958.755-1.45.071-.123.142-.246.116-.343.045-.22.142-.246.116-.343-.026-.097.045-.22.239-.272.097-.026.194-.052.22.045.097-.026.123.071.149.168l.104.388.104.388.104.388.104.388.156.582.156.582c.026.096.026.096-.045.22a1.443 1.443 0 0 1-.239.271c-.097.026-.194.052-.22-.045-.026-.097-.123-.07-.149-.168l-.156-.581-.156-.582-.104-.388-.078-.291ZM131.723 92.153c-.097.026-.22-.045-.343-.116a5.761 5.761 0 0 0-.57-.575c-.298-.336-.615-.355-.712-.329l-.097.026a1167.465 1167.465 0 0 0 .156.582l.026.097.052.194c.078.29.033.51-.161.563-.097.026-.097.026-.22-.045s-.123-.071-.149-.168l-.104-.388-.104-.388-.208-.776-.208-.776c-.077-.29-.006-.414.187-.466.097-.026.097-.026.22.045s.123.071.149.168l.234.873c.194-.052.265-.175.407-.42.045-.22.116-.344.161-.564a.552.552 0 0 1 .407-.42c.097-.026.097-.026.22.044.097-.025.123.072.149.169l.052.194c.026.096-.071.122-.071.122-.097.026-.168.15-.187.466-.045.22-.09.44-.258.59.22.044.492.283.861.496.272.24.544.478.596.672.026.097.026.097-.045.22-.343-.116-.343-.116-.44-.09ZM134.534 91.4c-.097.025-.22-.046-.395-.31-.149-.169-.175-.266-.35-.53l-.485.13c-.194.051-.388.103-.459.226-.045.22-.09.44-.109.757-.071.123-.071.123-.168.15-.097.025-.097.025-.22-.046-.123-.07-.123-.07-.149-.168-.026-.097.019-.317.109-.757l-.026-.097c-.026-.097.071-.123.142-.246.116-.343.206-.782.322-1.125.161-.563.374-.932.374-.932.194-.052.317.019.369.213.026.097.201.362.279.653.201.362.402.724.629 1.183 0 0 .026.096.175.264.026.097.149.168.175.266.026.096.026.096-.045.22.026.096-.071.122-.168.148Zm-1.225-1.855c-.045.22-.187.466-.206.782l.291-.078.291-.077c-.149-.168-.298-.336-.376-.627ZM137.702 90.03c.096-.025.193-.051.316.02.123.07.149.168.175.265a891.525 891.525 0 0 0 .104.388c.026.097.026.097-.045.22s-.071.123-.168.149c-.194.052-.317-.02-.369-.213l-.026-.097-.026-.097-.026-.097-.484.13-1.455.39-.097.026-.097.025c-.194.052-.317-.019-.343-.115l-.026-.097-.078-.292-.156-.581-.156-.582-.156-.582-.156-.582c-.026-.097-.026-.097.045-.22s.071-.123.168-.149c.194-.052.317.02.369.213.104.388.357.944.565 1.72l.156.582.388-.104.388-.104.679-.182-.052-.194-.052-.194-.234-.873-.234-.873c-.052-.194-.078-.29.019-.317.071-.123.071-.123.265-.175.097-.026.097-.026.22.045.026.097.123.071.149.168l.104.388.104.388c-.161.563.066 1.022.222 1.604ZM139.905 87.778c-.071.123-.31.394-.426.737-.116.343-.258.59-.445 1.055a1.385 1.385 0 0 0-.187.466c-.071.123-.071.123-.168.149-.097.026-.194.052-.22-.045-.123-.071-.123-.071-.149-.168-.208-.776-.215-1.19-.241-1.287l-.26-.97-.052-.194-.052-.193c-.026-.097-.026-.097.045-.22s.071-.123.168-.15c.097-.025.097-.025.22.046.123.07.123.07.149.168l.052.194.052.194.182.678.156.582c.187-.466.471-.957.755-1.45.071-.122.142-.245.116-.342.045-.22.142-.246.116-.343-.026-.097.045-.22.239-.272.097-.026.194-.052.22.045.097-.026.123.071.149.168a1602.267 1602.267 0 0 1 .208.776l.103.388.104.388.156.582.156.581c.026.097.026.097-.045.22s-.071.123-.168.15c-.097.025-.194.051-.22-.046-.026-.097-.123-.07-.149-.168l-.156-.582-.155-.581-.104-.388c-.097.026-.123-.071-.149-.168ZM143.008 86.946c-.071.123-.31.395-.426.738-.116.343-.258.588-.445 1.054-.071.123-.142.246-.187.466-.071.123-.071.123-.168.15-.097.025-.194.051-.22-.046-.123-.07-.123-.07-.149-.168-.208-.776-.214-1.19-.24-1.287l-.26-.97-.052-.193-.052-.194c-.026-.097-.026-.097.045-.22s.071-.123.168-.15c.097-.025.097-.025.22.046.123.07.123.07.149.168l.052.194.052.194.181.679.156.582c.187-.466.471-.958.755-1.45.071-.123.142-.246.116-.343.045-.22.142-.246.116-.343-.026-.097.045-.22.239-.272.097-.026.194-.052.22.045.097-.026.123.071.149.168l.104.388.104.388.104.388.104.388.156.582.156.582c.026.097.026.097-.045.22s-.071.123-.168.148c-.097.026-.194.052-.22-.044-.026-.097-.123-.072-.149-.169l-.156-.581-.156-.582-.104-.388c-.097.026-.123-.071-.149-.168Z" fill="#727E99"/><path d="m150.704 47.777 72.832-19.515M152.394 54.08l72.831-19.515M154.029 60.19l72.832-19.515M162.943 93.454l72.832-19.515M164.58 99.564l72.832-19.515M166.27 105.867l72.831-19.515M167.907 111.977l72.832-19.515M169.491 117.893l72.832-19.515" stroke="#727E99" stroke-width="1.5" stroke-miterlimit="22.926"/><path d="M89.363 123.357c.264-.175.142-.246.258-.589.045-.22.464-1.372.535-1.495.096-.026.045-.22.148.168.305.75.428.821.345 1.675-.045.22.078.291.13.485-.052-.194.516-1.178.464-1.372-.026-.097.02-.317.168-.149.201.362.828-.014.698-.498-.194.051-.128 1.073.092 1.118.22.045 1.19-.215 1.384-.267a.551.551 0 0 0 .407-.42s.019-.317-.078-.291c-.298-.336-1.145-.005-1.384.266-.071.123-.097.026-.045.22.078.291.272.239.563.161.414-.007 1.19-.214 1.552-.415.891-.551.199-1.197-.04-.925-.071.123.117 1.216.117 1.216-.019.317-.38.517-.672.595-.103-.388-.155-.581.058-.95.284-.492 1.298-.972 1.816-.591.246.142.596.672.712.329-.026-.097.355-.615.355-.615.194-.052.324.433 1.287-.241.265-.175.116-.343.537.064.097-.026.246.142.459-.227.213-.369-.007-.414.581-.156.123.071.194-.052.291-.078 0 0 .045-.219.168-.148 0 0 .343.116.511-.033.071-.123.045-.22.22.045l.149.168c.22.045.355-.615.329-.712l.078.291-.026-.097M103.047 118.962c-.246-.142-.369-.213-.607.059-.071.123-.194.052-.116.343.078.29.226.458.472.6.097-.026.44.09.537.064.168-.149.031-1.047-.312-1.163-.246-.142-.466-.187-.704.085M104.327 118.307c.246.142.499.698.577.989 0 0 .206-.783.277-.906.045-.22.251-1.002.594-.886.343.116-.071.123-.239.272.026.096-.045.219.059.607.052.194.13.485.35.53.22.045.509-1.591.93-1.184l-.052-.194c-.291.078-.012.731.014.827.44.091.22.045.705-.084.194-.052.433-.324.504-.447l-.026-.097c.071-.123.187-.466.232-.686-.026-.097.09-.44-.052-.194-.071.123-.116.343-.187.466-.142.246-.168.149-.187.466-.18.879.783.206.854.083.045-.22-.007-.414.141-.246 0 0 .026.097.22.045l.582-.156c.097-.026.142-.246.116-.343-.078-.291.175.265.466.187.097-.026.414-.007.485-.13.847-.331.587-1.301 1.079-1.017.123.071.246.142.194-.052.168-.149.064-.536.142-.245.104.387-.154.976.054 1.752.026.097.097-.026.097-.026l-.026-.097c-.007-.414.116-.343-.066-1.022-.078-.291-.201-.362-.466-.187-.336.298-.284.492-.18.88.104.388 1.41-.17 1.552-.416.142-.246.09-.439.012-.73.078.291.118 1.215.421.407.07-.123.064-.537.038-.634.097-.026.026.097.174.265.298.336.104.388.589.258.873-.234.457-1.786.795-.525.194-.052.433-.324.575-.57.142-.246-.026-.097.324.433.175.265.769-.622.717-.816.156.582.033.511.518.381.291-.078.724-.402.866-.648l.13.485c.026.097.193-.052.167-.149.097-.026.045-.22.149.168s.118 1.216-.218 1.514c.078.291-.491-.284-.427-.821.019-.317.142-.246.406-.421l.97-.26c-.078-.291.019-.317-.033-.511l.208.776c.194-.052.284-.492.329-.712.187-.465-.078-.29.343.116.272.239.433-.323.53-.349-.078-.291.246.142.44.09l-.026-.097M94.551 132.256c.149.168.104.388.182.679l.286 1.066c-.104-.388-.06-.608-.163-.995l-.182-.679c.194-.052-.123-.071.071-.123-.026-.097.168-.149.239-.272.07-.122.142-.245.239-.271 0 0 .491.283.517.38.246.142.246.142.298.336.026.097-.187.466-.187.466-.045.22-.265.175-.362.201-.07.123-.097.026-.194.052l-.193.051.07-.122M96.566 133.172c.388-.104.653-.279.866-.648l.02-.317c-.292.078-.654.279-.673.596l.078.291c.317.019-.097.026.246.142.22.045.925-.04.97-.26.071-.123-.208-.776-.286-1.066l.357.943c.123.071.045-.22.116-.343.09-.439-.052-.194.09-.439-.026-.097.09-.44.168-.149.156.581.752 1.253.854.083m0 0c-.208-.776.038-.634 0 0Zm0 0c.052.194.078.291.246.142.265-.175.322-1.126.407-.421l.078.291c.581-.156.581-.156.936-.771.071-.123.045-.22.142-.246-.052-.194.149.168.071-.123-.097.026-.045.22-.116.343.014.828.168-.149.31-.395.071-.123.045-.22.149.168l.234.873c-.026-.097-.111-.802-.111-.802l.142-.246.097-.026c.026.097.35.53.428.821.071-.123.019-.317-.007-.414.123.071.376.627.518.381.142-.246.336-.298.329-.712.045-.22-.31.395-.154.977.388-.104.459-.227.698-.499.452-.641.147-1.39.537.064.194-.052.168-.149.336-.298.213-.369.109-.757.187-.466.026.097.078.291.297.336.615.355.051-1.364.627-.375.201.361.383 1.04.487 1.428-.246-.142-.447-.504-.331-.847.09-.439.575-.569.788-.938l.071-.123c.168-.149.045-.22.123.071.052.194-.18.88.227.459.168-.149.265-.175.407-.421l.168-.149c.052.194.246.142.343.116-.13-.485-.258.589.104.388.097-.026.187-.466.161-.563-.078-.291.019-.317-.272-.239-.291.078-.329.712-.18.88.026.097.899-.137 1.034-.797.064-.537-.014-.828.194-.052l-.052-.194c.149.168.123.071.175.265.22.045.298.336.511-.033.142-.246-.118-1.216.142-.246.181.679-.175-.265.116-.343.122.071.446.504.472.601.194-.052-.007-.414.064-.537-.046-1.338.293 1.481.388-.104.038-.634.071-.123.22.045l.123.071s.052.194.246.142c.291-.078.452-.641.374-.931.26.969.693.645.641.451-.156-.581-.362.201.026.097.485-.129.996-.162.84-.744l.078.291c.175.265.336-.298.407-.421.09-.44-.033-.511.097-.026.052.194.201.362.227.459.194-.052.258-.589.433-.324l.051.194M115.681 127.322c.078.291.13.485.279.653.149.168.246.142.44.09.291-.078.18-.88.128-1.074.052.194.279.653.615.355.071-.123.452-.641.549-.667.122.071.174.265.2.362.104.388.331.847.241 1.287-.116.343-.686-.232-.253-.556.336-.298 2.004-1.056 2.075-1.179.045-.22-.291.078-.362.201.026.097-.142.246-.116.342.194-.051.194-.051.362-.2.168-.149.09-.44.161-.563.026.097-.083.853.156.582 0 0 .31-.395.284-.492.104.388.078.291.22.045.071-.123-.026-.097.142-.246-.026-.097-.007-.414.097-.026.13.485.246.142.246.142.168-.149.116-.343.064-.537-.026-.097-.305-.75.019-.317.227.459.364 1.358.371 1.772-.045.22-.104-.388-.104-.388s-.203-1.921.095-1.585l.026.097c.026.097.298.336.324.433.201.362.201.362-.239.272-.414.007-.097.026-.466-.187M162.327 87.279c.265-.175.142-.246.258-.59.045-.22.464-1.37.535-1.494.097-.026.045-.22.149.168.305.75.428.821.345 1.675-.045.22.078.29.13.485-.052-.194.516-1.178.464-1.372-.026-.097.019-.317.168-.149.201.362.828-.014.698-.499-.194.052-.128 1.074.092 1.119.22.045 1.19-.215 1.384-.267a.552.552 0 0 0 .406-.42s.019-.318-.078-.292c-.297-.336-1.144-.005-1.383.267-.071.123-.097.026-.045.22.078.291.272.24.563.161.414-.007 1.189-.215 1.551-.416.892-.55.199-1.196-.04-.924-.071.123.118 1.215.118 1.215-.019.317-.381.518-.672.596-.104-.388-.156-.582.057-.95.284-.492 1.299-.972 1.817-.591.246.142.596.672.712.329-.026-.097.355-.615.355-.615.194-.052.324.433 1.287-.241.265-.175.116-.343.536.064.097-.026.246.142.459-.227.213-.369-.007-.414.582-.156.123.071.194-.052.291-.078 0 0 .045-.22.168-.149 0 0 .343.116.511-.033.071-.123.045-.22.22.045l.149.168c.22.045.355-.615.329-.712l.078.291-.026-.096M155.62 64.961c.246.142.499.698.577.989 0 0 .206-.783.277-.906.045-.22.251-1.003.594-.887.343.116-.071.123-.239.272.026.097-.045.22.059.608.052.194.13.485.35.53.22.045.509-1.592.93-1.185l-.052-.194c-.291.078-.012.731.014.828.44.09.22.045.705-.085.194-.052.433-.324.504-.447l-.026-.097c.071-.123.187-.465.232-.685-.026-.097.09-.44-.052-.194-.071.123-.116.343-.187.465-.142.246-.168.15-.187.466-.18.88.782.206.853.084.045-.22-.006-.414.142-.246 0 0 .026.097.22.044l.582-.155c.097-.026.142-.246.116-.343-.078-.291.175.265.466.187.097-.026.414-.007.485-.13.847-.331.587-1.3 1.079-1.017.123.071.246.142.194-.052.168-.149.064-.537.142-.246.104.388-.154.977.054 1.753.026.097.097-.026.097-.026l-.026-.097c-.007-.414.116-.343-.066-1.022-.078-.29-.201-.362-.466-.187-.336.298-.284.492-.18.88.104.388 1.41-.17 1.552-.416.142-.246.09-.44.012-.73.078.29.117 1.215.42.406.071-.123.065-.537.039-.634.096-.026.025.097.174.265.298.336.104.388.589.258.873-.234.457-1.785.795-.525.194-.052.433-.323.575-.57.142-.245-.026-.096.324.434.175.264.769-.622.717-.816.156.582.033.51.518.38.291-.077.724-.401.866-.647l.129.485c.026.097.194-.052.168-.149.097-.026.045-.22.149.168s.118 1.216-.218 1.514c.078.29-.492-.284-.427-.821.019-.317.141-.246.406-.421l.97-.26c-.078-.29.019-.317-.033-.51l.208.775c.194-.052.284-.492.329-.712.187-.466-.078-.29.343.116.272.24.433-.324.53-.35-.078-.29.246.142.44.09l-.026-.097M108.983 160.508c.078.291.13.485.279.653.149.168.245.142.439.09.291-.078.18-.88.129-1.074.051.194.278.653.614.355.071-.123.452-.641.549-.667.123.071.175.265.201.362.104.388.331.847.241 1.287-.116.343-.686-.232-.253-.556.336-.298 2.004-1.057 2.075-1.18.045-.22-.291.078-.362.201.026.097-.142.246-.116.343.194-.052.194-.052.362-.201.168-.149.09-.44.161-.563.026.097-.083.854.156.582 0 0 .31-.395.284-.491.104.387.078.29.22.045.071-.123-.026-.097.142-.246-.026-.097-.007-.414.097-.026.129.485.245.142.245.142.168-.149.116-.343.065-.537-.026-.097-.305-.75.019-.317.226.459.363 1.358.37 1.771-.045.22-.104-.387-.104-.387s-.202-1.921.095-1.585l.026.097c.026.097.298.336.324.433.201.362.201.362-.239.272-.414.007-.097.026-.465-.187" stroke="#727E99" stroke-width=".567" stroke-miterlimit="22.926"/><path clip-rule="evenodd" d="M234.553-1.612c.251-1.002-.326-1.991-1.355-2.34C165.297 11.853 97.87 29.816 30.988 49.816c-1.7.248-2.662.921-2.985 2.047 1.84 8.03 4.68 19.015 8.493 32.857 6.342 25.222 16.253 59.882 29.609 103.909a3.51 3.51 0 0 0 1.347 1.925c.738.426 1.592.509 2.342.204l156.071-42.858c27.49-7.574 41.888-11.64 43.466-11.959.511-.033.97-.26 1.254-.751.31-.395.374-.932.244-1.417l-18.817-67.51-17.459-67.874Z" stroke="#727E99" stroke-width="2" stroke-miterlimit="22.926"/><path fill-rule="evenodd" clip-rule="evenodd" d="M2.872 87.897 198.46 13.28c1.219-.465 2.515.115 2.98 1.335l50.46 132.267c.465 1.219-.115 2.515-1.335 2.98L54.978 224.479c-1.22.465-2.515-.115-2.98-1.335L1.537 90.877c-.559-1.183.115-2.515 1.334-2.98Z" fill="#FDFBE4"/><path fill-rule="evenodd" clip-rule="evenodd" d="m5.563 89.88 191.553-73.077a.686.686 0 0 1 .907.406l49.636 130.109a.686.686 0 0 1-.406.907L55.701 221.302 5.563 89.879Zm145.385 90.68 32.082-12.239a23.614 23.614 0 0 1 9.073-1.85c2.247.54 6.67-.825 13.49-4.072l10.882-4.151c1.045-.077 1.863-1.033 1.692-2.043-.358-.938-.211-1.961.195-2.868.536-.849 1.367-1.489 2.377-1.659l4.69-1.789c3.704.413 7.354-.442 10.409-2.574 1.603-1.149 2.581-2.812 2.816-4.728a6.638 6.638 0 0 0-1.686-5.267c-2.177-2.608-3.957-5.583-5.174-8.772-.877-3.427-1.12-6.88-.764-10.455 1.177-3.673.309-7.64-2.199-10.551-5.346-6.128-9.219-13.462-11.367-21.347-3.649-7.312-5.646-15.362-5.739-23.493-.069-3.842-2.063-7.38-5.388-9.335-2.61-2.335-4.765-5.167-6.393-8.307-1.217-3.19-1.964-6.558-1.984-9.989a6.633 6.633 0 0 0-2.25-5.052c-1.452-1.273-3.418-1.92-5.25-1.65-3.663.537-7.085 2.272-9.478 5.012l-4.691 1.79c-.866.545-1.912.622-2.877.345-.965-.276-1.698-1.071-2.056-2.01-.639-.83-1.792-1.035-2.623-.396l-10.881 4.151c-7.157 2.086-11.458 4.05-12.775 5.949a23.631 23.631 0 0 1-8 4.663l-32.081 12.24-32.082 12.239c-3.038 1.05-6.125 1.691-9.274 1.603-2.248-.54-6.67.826-13.491 4.072L39.269 82.18c-1.045.076-1.862 1.033-1.692 2.042.358.938.21 1.962-.195 2.869-.536.849-1.367 1.488-2.376 1.658l-4.69 1.79c-3.705-.414-7.354.441-10.41 2.574-1.603 1.149-2.58 2.811-2.816 4.728a6.637 6.637 0 0 0 1.686 5.267c2.178 2.608 3.957 5.582 5.174 8.772.877 3.426 1.12 6.88.764 10.454-1.177 3.673-.309 7.64 2.2 10.552 5.345 6.127 9.218 13.461 11.366 21.346 3.65 7.312 5.646 15.362 5.74 23.493.068 3.843 2.062 7.38 5.387 9.335 2.61 2.336 4.765 5.167 6.393 8.307 1.217 3.19 1.965 6.558 1.984 9.989a6.635 6.635 0 0 0 2.25 5.052c1.452 1.273 3.419 1.92 5.25 1.651 3.663-.538 7.085-2.273 9.478-5.013l4.69-1.789c.867-.546 1.913-.622 2.878-.346.965.277 1.698 1.072 2.056 2.01.64.831 1.792 1.036 2.623.396l10.881-4.151c7.157-2.085 11.458-4.049 12.775-5.948a23.634 23.634 0 0 1 8-4.664c10.801-3.798 21.495-7.878 32.283-11.993Z" fill="#C8CB76"/><path d="M48.247 127.969c-.058.129-.08.353-.067.67-.026 1.622-.16 2.962-.235 4.173-.075 1.211-.705 2.096-1.924 2.561-.188.072-.317.014-.54-.009-.224-.022-.296-.21-.331-.303a.553.553 0 0 1 .102-.577c.058-.129.246-.201.527-.308.375-.143.585-.438.701-.698.058-.129.08-.353.183-.929-.684-.384-1.144-.746-1.51-1.143-.202-.246-.627-.513-1.087-.875-.59-.42-1.014-.688-1.18-.84-.13-.058-.165-.151-.2-.245-.072-.188-.014-.317.044-.447a.768.768 0 0 1 .397-.367c.188-.071.411-.049.67.067.166.152.331.304.554.326.46.362.756.572 1.015.688.33.303.626.513.92.723.166.152.367.397.626.513.009-.54.04-1.304.057-2.385.023-.224.103-.577.111-1.117-.013-.318.139-.483.42-.59.188-.072.317-.014.54.008.13.058.296.21.331.304-.116.259-.138.483-.124.8ZM58.042 131.11a64.144 64.144 0 0 0 .143.375c.072.187.014.317-.044.447a.766.766 0 0 1-.398.366c-.281.108-.505.085-.706-.16-.165-.152-.237-.34-.344-.621l-.179-.469-1.97.751-1.97.752.287.75c.071.188.013.317-.045.447a.768.768 0 0 1-.398.367c-.187.071-.317.013-.54-.009-.13-.058-.295-.21-.33-.304l-.216-.563-.214-.562-.072-.188c-.107-.281.009-.541.442-.813.098-1.435-.158-2.949-.73-4.45a1.09 1.09 0 0 0-.273-.433c-.165-.152-.237-.34-.273-.433-.143-.376.067-.671.63-.885l2.251-.859.657-.251c.058-.129.152-.165.245-.201.188-.071.318-.013.541.009.13.058.295.21.33.303l.502 1.314.5 1.313c.18.469.502 1.313.873 2.569.317-.014.483.138.59.419.036.094.107.282.18.469.424.268.495.456.531.55Zm-3.885-5.396-.657.251-.656.25-.845.322.144.376c.214.563.371 1.255.563 2.041.135.916.198 1.644.225 2.279l.938-.358.938-.358.844-.322-.465-1.22a4122.4 4122.4 0 0 0-.465-1.219c.152-.165-.099-.822-.564-2.042ZM62.191 129.311c-.844.323-1.702.327-2.538.109-.87-.312-1.403-.862-1.725-1.706-.393-1.032-.434-1.983-.1-3.078.3-1.189 1.058-2.016 2.09-2.409 1.032-.394 1.854-.493 2.632-.145.648.291 1.215.934 1.573 1.872.394 1.032.434 1.983.194 3.042-.429 1.131-1.094 1.922-2.126 2.315Zm-1.843-5.959c-.657.251-1.112.747-1.331 1.583-.254.741-.192 1.47.095 2.22.179.469.51.773 1.028 1.005a2.466 2.466 0 0 0 1.586-.068c.657-.251 1.112-.747 1.237-1.546.16-.706.097-1.435-.189-2.185-.25-.657-.487-.996-.876-1.17-.353-.081-.894-.089-1.55.161ZM69.393 120.868c-.281.108-.505.086-.706-.16-.165-.152-.295-.21-.389-.174l-.375.143c-.375.143-.643.568-.991 1.345-.335 1.095-.424 1.989-.173 2.645.107.282.308.527.603.737.295.21.613.196.894.089.281-.107.527-.308.773-.51.058-.129.303-.33.477-.719.116-.259.304-.331.492-.402.187-.072.317-.014.54.008.13.058.295.21.331.304.072.188.014.317-.009.54-.593.979-1.2 1.641-2.045 1.963-.657.25-1.327.184-1.975-.106a2.355 2.355 0 0 1-1.265-1.345c-.358-.938-.282-2.149.168-3.502.429-1.131 1-1.886 1.75-2.173l.376-.143.281-.107a.767.767 0 0 1 .398-.367c.281-.107.54.009.742.255.2.245.308.527.415.808.072.188.108.281.05.411a.551.551 0 0 1-.362.46ZM75.99 117.599a5.364 5.364 0 0 1-1.067.3c-.469.179-.88.229-1.032.394.144.375.452.902.774 1.746.38.715.595 1.278.774 1.747l.179.469.179.469c.071.188.143.375.12.599-.022.223-.138.482-.325.554-.188.071-.317.013-.54-.009a.768.768 0 0 1-.367-.397l-.072-.188-.072-.188-.25-.656-.25-.657c-.144-.375-.358-.938-.703-1.559a13 13 0 0 1-.702-1.559l-.188.072c-.656.25-1.219.465-1.666.421-.317.013-.576-.103-.683-.384-.072-.188-.014-.317.044-.447.022-.223.21-.295.397-.367.094-.035.376-.143.693-.156.281-.108.599-.121.786-.193l.844-.322.845-.322 1.032-.394 1.031-.393c.188-.072.318-.014.541.008.13.058.295.21.367.398.071.188.013.317-.01.541-.303.33-.49.402-.678.473ZM82.931 120.862c-.549.532-1.357.948-2.483 1.377a.765.765 0 0 1-.54-.008.767.767 0 0 1-.367-.398l-1.79-4.69-.214-.563-.215-.563c-.107-.281.103-.576.572-.755.151-.165.527-.309 1.09-.523a2.726 2.726 0 0 1 1.809-.046c.706.161 1.296.58 1.546 1.237.144.375.157.692.135.916-.022.223-.138.482-.254.742.317-.014.706.16 1 .37.39.174.626.513.734.795.143.375.098.822-.228 1.376-.245.201-.549.532-.794.733Zm-3.518-4.998-.657.251.358.938.358.938.563-.215c.902-.451 1.17-.876.92-1.533-.072-.187-.237-.339-.59-.419-.26-.116-.577-.103-.952.04Zm1.744 2.881-1.22.466.645 1.688a5.554 5.554 0 0 0 1.487-.89c.491-.402.643-.567.571-.755-.071-.188-.366-.398-.683-.384a.871.871 0 0 0-.8-.125ZM87.983 112.701l-.188.072c-.505.085-1.01.17-1.479.349-.187.072-.469.179-.715.38-.28.108-.526.309-.772.51l.68 1.782c.187-.071.715-.38 1.617-.831.527-.309.902-.452.996-.488.187-.071.317-.013.54.009.224.022.295.21.367.397.143.375.027.635-.348.778a4.94 4.94 0 0 0-.996.487c-.376.143-.996.488-1.805.904l.358.938c.215.563.358.938.452.902 0 0 .223.022.598-.121l.845-.322.844-.322.281-.107.282-.108c.187-.071.317-.013.54.009.13.058.295.21.367.397.107.282.027.635-.254.742-.246.201-.903.452-1.747.774-.938.358-1.63.514-2.02.34-.388-.174-.826-.759-1.184-1.697a15.789 15.789 0 0 1-.586-1.818 14.98 14.98 0 0 0-.586-1.818 390.39 390.39 0 0 0-.18-.469c-.07-.188-.142-.375-.178-.469-.18-.469-.063-.728.406-.907.094-.036.281-.108.411-.05.34-.237.585-.438.867-.545.28-.107.526-.309.808-.416.75-.286 1.349-.407 1.89-.399.317-.013.482.139.59.42.071.188.013.317-.045.447-.317.014-.469.179-.656.25ZM92.26 114.616l-.375.143.788 2.064c.071.188.013.317-.045.447-.058.129-.21.295-.303.331-.094.035-.318.013-.447-.045-.13-.058-.295-.21-.33-.304l-.466-1.219a20.443 20.443 0 0 1-.694-2.1 20.441 20.441 0 0 0-.693-2.099c-.286-.751-.242-1.197.227-1.376.094-.036.282-.108.34-.237l.656-.251a2.726 2.726 0 0 1 1.81-.045c.706.16 1.202.616 1.416 1.179.287.75.22 1.42-.258 2.14-.29.648-.875 1.086-1.625 1.372Zm-1.064-3.355-.282.108-.187.071.25.657c.108.281.322.844.479 1.537l.281-.108c.47-.179.809-.416 1.019-.711.21-.295.254-.741.11-1.117-.106-.281-.366-.397-.719-.477-.165-.152-.576-.103-.951.04ZM99.429 108.335l-.188.072c-.505.085-1.01.17-1.478.349-.188.072-.47.179-.715.38-.282.108-.527.309-.773.51l.68 1.782c.188-.071.715-.38 1.617-.831.527-.309.902-.452.996-.488.188-.071.317-.013.541.009.223.022.295.21.366.397.143.375.027.635-.348.778a4.945 4.945 0 0 0-.996.487c-.375.143-.996.488-1.805.904l.358.938c.215.563.358.938.452.902 0 0 .223.022.599-.121l.844-.322.844-.322.282-.107.281-.108c.188-.071.317-.013.541.009.129.058.295.21.366.397.108.282.027.635-.254.742-.246.201-.902.452-1.747.774-.938.358-1.63.514-2.019.34-.389-.174-.827-.759-1.185-1.697a15.804 15.804 0 0 1-.586-1.818 14.983 14.983 0 0 0-.586-1.818l-.179-.469-.179-.469c-.179-.469-.063-.728.406-.907.094-.036.282-.108.411-.05.34-.237.585-.438.867-.545.281-.107.527-.309.808-.416.75-.286 1.35-.407 1.89-.399.317-.013.483.139.59.42.071.188.013.317-.045.447-.317.014-.469.179-.656.25ZM107.095 104.766c-.023.224.049.411.121.599l.143.375.143.376a1375.405 1375.405 0 0 0 .93 2.439c.072.187.215.562.452.902.179.469.38.714.452.902.071.188.013.317-.045.447a.767.767 0 0 1-.397.366c-.188.072-.317.014-.541-.008-.129-.058-.295-.21-.331-.304l-.358-.938-.357-.938-.179-.469c-.469.179-.996.487-1.617.832l-1.581.925c.071.188.179.469.264.974l.358.938c.071.188.013.317-.045.447a.769.769 0 0 1-.397.367c-.188.071-.318.013-.541-.009-.246.201-.317.013-.353-.08-.107-.282-.286-.751-.407-1.349-.121-.599-.3-1.068-.407-1.35l-.645-1.688-.644-1.689c-.071-.187-.013-.317.045-.446a.769.769 0 0 1 .397-.367c.188-.071.317-.013.541.009.129.058.295.21.331.303l.393 1.032.394 1.032.179.469.179.469 1.581-.925c.621-.345 1.148-.653 1.617-.832a15.041 15.041 0 0 1-.515-1.631c-.071-.187-.085-.504-.098-.822.044-.446.16-.706.348-.777.187-.072.317-.014.446.044.13.058.295.21.331.304-.223-.022-.187.071-.187.071ZM113.589 104.33l-.812 1.814c-.255.742-.509 1.484-.692 2.413-.116.26-.196.613-.298 1.189-.116.259-.174.389-.362.46a.766.766 0 0 1-.541-.008.766.766 0 0 1-.366-.398c-.551-1.724-.815-2.698-.886-2.886-.286-.75-.573-1.501-.917-2.121l-.143-.376a36.102 36.102 0 0 1-.143-.375c-.072-.187-.014-.317.044-.447a.766.766 0 0 1 .398-.366c.187-.072.317-.014.54.009.224.022.295.209.331.303l.143.375.143.376a2595.714 2595.714 0 0 0 1.11 2.908 20.535 20.535 0 0 1 1.379-3.428c.151-.165.138-.482.348-.777.174-.389.16-.706.218-.836-.013-.317.138-.483.42-.59.187-.071.317-.013.54.009.224.022.295.21.331.303l.322.845.322.844.358.938.358.938.465 1.22.466 1.219c.071.188.013.317-.045.447a.767.767 0 0 1-.397.366c-.188.072-.318.014-.541-.008-.13-.058-.295-.21-.331-.304l-.465-1.219-.465-1.22-.286-.75c-.403-.492-.474-.679-.546-.867ZM120.255 100.391l-.188.071c-.505.085-1.009.171-1.478.35-.188.071-.469.178-.715.38-.281.107-.527.308-.773.509l.68 1.783c.188-.072.715-.38 1.617-.832.527-.309.902-.452.996-.488.188-.071.317-.013.541.009.223.022.295.21.366.398.144.375.028.634-.348.777a4.905 4.905 0 0 0-.996.488c-.375.143-.996.487-1.804.903l.358.938c.214.563.357.938.451.902 0 0 .224.023.599-.121l.844-.322.844-.322.282-.107.281-.108c.188-.071.317-.013.541.009.129.058.295.21.366.398.108.281.027.634-.254.741-.246.202-.902.452-1.747.774-.938.358-1.63.515-2.019.341-.389-.174-.827-.759-1.185-1.698a15.998 15.998 0 0 1-.586-1.818c-.192-.786-.443-1.443-.586-1.818l-.179-.469-.179-.469c-.179-.469-.063-.728.406-.907.094-.036.282-.107.411-.049.34-.237.586-.438.867-.546.281-.107.527-.308.808-.416.751-.286 1.349-.407 1.89-.398.317-.014.483.138.59.42.072.187.014.317-.044.446-.411.05-.469.179-.657.251ZM54.075 140.145a1.692 1.692 0 0 1-1.046.077c-.353-.08-.683-.384-.827-.759-.178-.469-.228-.88-.09-1.363.139-.482.442-.813.911-.992.47-.179.787-.193 1.14-.112.259.116.554.325.733.795.179.469.228.88.09 1.362a1.43 1.43 0 0 1-.911.992Zm-.779-2.604c-.281.107-.527.309-.607.662-.08.353-.067.67.04.951.072.188.237.34.497.456.223.022.446.044.634-.027.281-.108.527-.309.607-.662.08-.353.067-.67-.04-.952-.108-.281-.273-.433-.403-.491-.223-.022-.447-.044-.728.063ZM59.755 134.755c.072.188.014.317-.268.424l.287.751.178.469.287.75.071.188.072.188c.036.093.036.093-.022.223-.058.13-.058.13-.152.165-.188.072-.317.014-.389-.174a262.72 262.72 0 0 1-.143-.375l-.25-.656-.215-.563-.286-.751-.47.179-.938.358.072.188.394 1.032.107.281.107.281.072.188.072.188.107.281c.036.094-.022.223-.21.295-.094.036-.094.036-.223-.022-.094.036-.13-.058-.166-.152l-.25-.657-.108-.281-.107-.282-.394-1.031-.107-.282-.188.072c-.093.035-.093.035-.223-.023s-.13-.058-.165-.151c-.072-.188-.014-.318.267-.425l.094-.036.094-.036.47-.178.468-.179 1.595-.609c.094-.036.094-.036.223.022.166.152.201.246.237.34ZM62.517 136.925a1.691 1.691 0 0 1-1.045.076c-.353-.08-.684-.384-.827-.759-.18-.469-.229-.88-.09-1.362.138-.483.442-.814.91-.993.47-.179.787-.192 1.14-.112.26.116.554.326.733.795.179.469.228.88.09 1.363a1.432 1.432 0 0 1-.91.992Zm-.779-2.605c-.28.108-.527.309-.607.662-.08.353-.066.67.04.952.072.187.238.339.497.455.223.022.447.045.634-.027.282-.107.527-.309.608-.662.08-.353.066-.67-.041-.951-.107-.282-.273-.433-.402-.491-.224-.023-.447-.045-.728.062ZM65.73 135.485a3.752 3.752 0 0 1-1.055.617c-.093.036-.187.071-.223-.022-.13-.058-.13-.058-.165-.152l-.788-2.064-.107-.281-.108-.282c-.035-.094.023-.223.304-.331l.47-.179c.28-.107.504-.085.727-.062.353.08.519.232.626.513.072.188.108.281.05.411.035.094-.023.223-.08.353.129.058.258.116.482.138.13.058.295.21.33.304a.551.551 0 0 1-.102.576c-.152.166-.21.295-.362.461Zm-1.494-2.225-.281.108.143.375.143.375.281-.107c.376-.143.492-.402.384-.684-.035-.094-.165-.152-.295-.21l-.375.143Zm.689 1.242-.563.215.286.75c.188-.071.433-.272.715-.38.152-.165.34-.237.303-.33-.035-.094-.165-.152-.294-.21-.224-.023-.318.013-.447-.045ZM67.64 134.863l-.28.107-.282.107-.094.036c-.188.072-.317.014-.425-.268l-.107-.281-.25-.657-.251-.656-.25-.657c-.072-.188-.014-.317.174-.389.093-.036.187-.071.223.022.13.059.13.059.165.152l.287.751.187-.072c.375-.143.786-.192 1.01-.17.353.08.518.232.661.607.108.282.121.599-.089.894-.058.129-.303.331-.678.474Zm-.536-1.407-.282.107.036.094.286.75.282-.107c.375-.143.585-.438.513-.626-.071-.187-.2-.245-.33-.303-.13-.059-.318.013-.505.085Zm2.362-1.976c-.094.036-.187.071-.505.085l.358.938.322.844.563-.215c.094-.035.094-.035.224.023s.13.058.165.152c.036.093.036.093-.022.223-.058.13-.058.13-.152.165l-.375.143-.376.144-.375.143-.375.143c-.094.036-.188.071-.223-.022-.13-.058-.13-.058-.166-.152-.036-.094-.036-.094.023-.224.057-.129.057-.129.151-.165l.376-.143-.323-.844-.393-1.032-.375.143c-.094.036-.188.072-.224-.022-.13-.058-.13-.058-.165-.152-.036-.094-.036-.094.022-.224 0 0 .058-.129.152-.165l.563-.215c.281-.107.563-.214.974-.264.187-.071.223.023.294.21.036.094.072.188-.022.224-.022.223-.022.223-.116.259ZM73.926 132.465l-1.22.465-1.22.466-.093.035-.094.036c-.187.072-.317.014-.353-.08l-.035-.094-.036-.094-.072-.187-.215-.563-.214-.563-.215-.563-.215-.563c-.035-.093-.035-.093.022-.223.059-.13.059-.13.152-.165.188-.072.318-.014.39.174.107.281.38.714.63 1.371l.286.75.844-.322-.071-.187-.072-.188-.322-.844-.322-.844-.107-.282c.058-.129.058-.129.245-.201.094-.036.094-.036.224.022.035.094.13.058.165.152l.143.375.143.376c.036.093.144.375.25.656l.251.657.072.187.375-.143.375-.143-.071-.187-.072-.188-.322-.844-.322-.845-.107-.281c.058-.13.058-.13.245-.201.094-.036.094-.036.224.022.036.094.13.058.165.152a262.72 262.72 0 0 0 .286.75l.537 1.407.036.094.036.094c-.08.353-.138.483-.326.554ZM75.493 128.966a1.96 1.96 0 0 0-.693.157l-.281.107a.765.765 0 0 0-.34.237l.287.751c.093-.036.281-.108.714-.381l.47-.179c.093-.035.093-.035.223.023s.13.058.165.152c.072.187.014.317-.174.388l-.469.179c-.188.072-.469.179-.808.416l.143.375.179.469.281-.107.375-.143.376-.143.093-.036.094-.036c.094-.036.094-.036.224.022.093-.035.13.058.165.152.071.188-.022.224-.08.353l-.845.322a2.012 2.012 0 0 1-.915.135c-.13-.058-.331-.304-.51-.773-.072-.188-.18-.469-.286-.75l-.287-.751-.071-.187-.072-.188c-.072-.188-.013-.317.174-.389.094-.036.094-.036.224.022.187-.071.245-.201.433-.272l.375-.143c.282-.108.563-.215.786-.193.094-.036.224.022.295.21.036.094.036.094-.022.223-.036-.094-.13-.058-.223-.022ZM78.702 127.526l.108.281.071.188.072.188.215.563.214.562.143.376.144.375c.035.094.035.094-.023.223-.058.13-.058.13-.151.166-.094.035-.094.035-.224-.023s-.13-.058-.165-.151a445.561 445.561 0 0 0-.287-.751l-.071-.188c-.188.072-.47.179-.715.381-.281.107-.433.272-.715.38a116.113 116.113 0 0 1 .287.75c.036.094.036.094-.022.224-.094.035-.058.129-.152.165-.094.036-.094.036-.224-.022-.093.035-.13-.058-.165-.152l-.215-.563-.214-.563-.287-.75-.286-.751c-.036-.094-.036-.094.022-.223.094-.036.058-.13.152-.166.094-.035.094-.035.223.023.13.058.13.058.166.152l.179.469.179.469a64.144 64.144 0 0 0 .143.375l.715-.38c.245-.201.526-.309.714-.38l-.25-.657c-.036-.094-.072-.188-.05-.411.022-.223.08-.353.174-.389.094-.036.094-.036.224.022-.094.036.035.094.071.188ZM81.24 127.418c-.057.129-.267.424-.347.777-.08.353-.197.612-.335 1.095-.058.13-.116.259-.138.483-.058.129-.058.129-.152.165-.094.036-.188.072-.223-.022-.13-.058-.13-.058-.166-.152-.286-.751-.335-1.162-.371-1.255l-.358-.938-.072-.188-.071-.188c-.036-.093-.036-.093.022-.223.058-.13.058-.13.152-.165.094-.036.094-.036.223.022.13.058.13.058.166.152a50.893 50.893 0 0 0 .143.375l.25.656.215.563c.138-.482.37-1.001.603-1.519.057-.13.115-.259.08-.353.022-.223.116-.259.08-.353-.036-.094.022-.223.21-.295.094-.036.187-.072.223.022.094-.036.13.058.166.152l.143.375.143.376a100.382 100.382 0 0 1 .286.75l.215.563.215.563c.035.093.035.093-.023.223s-.058.13-.151.165c-.094.036-.188.072-.224-.022-.036-.094-.13-.058-.165-.152l-.215-.562-.215-.563-.143-.376c-.094.036-.13-.058-.165-.151ZM84.244 126.272c-.058.13-.268.425-.348.778-.08.353-.197.612-.335 1.095a1.38 1.38 0 0 0-.138.482c-.058.13-.058.13-.152.166-.094.035-.188.071-.223-.023-.13-.058-.13-.058-.166-.151-.286-.751-.335-1.162-.371-1.256l-.358-.938-.072-.187-.071-.188c-.036-.094-.036-.094.022-.223.058-.13.058-.13.152-.166.094-.036.094-.036.223.022a.756.756 0 0 0 .05.411l.071.188.072.188.25.656.215.563c.138-.482.37-1.001.602-1.519.058-.13.116-.259.08-.353.023-.224.117-.259.08-.353-.035-.094.023-.224.21-.295.094-.036.188-.072.224.022.094-.036.13.058.166.152l.143.375.143.375.143.376.143.375.215.563.215.562c.035.094.035.094-.023.224-.058.129-.058.129-.152.165-.093.036-.187.072-.223-.022-.036-.094-.13-.058-.165-.152l-.215-.563-.215-.562-.143-.376c.022-.223-.014-.317-.05-.411ZM89.59 126.489c-.094.036-.223-.022-.353-.081-.165-.151-.33-.303-.626-.513-.33-.304-.648-.29-.741-.254l-.188.071.107.282.108.281.035.094.072.188c.107.281.085.504-.103.576-.093.036-.093.036-.223-.022-.13-.058-.13-.058-.165-.152l-.143-.375-.144-.376-.286-.75-.286-.75c-.108-.282-.05-.412.138-.483.094-.036.094-.036.224.022.058-.129.093-.036.13.058l.321.844c.188-.071.246-.201.362-.46.022-.223.08-.353.102-.576a.553.553 0 0 1 .362-.461c.094-.035.094-.035.223.023.094-.036.13.058.166.151l.071.188c.036.094-.058.13-.058.13-.093.035-.151.165-.138.482-.022.224-.044.447-.196.612.223.023.518.232.907.406.295.21.59.42.662.608.035.094.035.094-.023.223-.223-.022-.317.014-.317.014ZM91.62 125.608a3.75 3.75 0 0 1-1.054.617c-.094.036-.188.072-.224-.022-.13-.058-.13-.058-.165-.152l-.787-2.064-.108-.281-.107-.282c-.036-.094.022-.223.304-.33l.469-.179c.281-.108.505-.086.728-.063.353.08.518.232.626.513.071.188.107.282.05.411.035.094-.023.224-.081.353.13.058.259.116.482.138.13.059.295.21.331.304a.553.553 0 0 1-.102.577c-.246.201-.304.33-.362.46Zm-1.587-2.189-.282.108.144.375.143.375.281-.107c.375-.143.492-.402.384-.684-.036-.094-.165-.152-.295-.21l-.375.143Zm.782 1.206-.563.215.287.751c.187-.072.433-.273.715-.381.151-.165.339-.237.303-.33-.036-.094-.165-.152-.295-.21-.223-.022-.317.013-.447-.045ZM94.846 124.485c-.094.036-.224-.023-.425-.268-.165-.152-.201-.246-.402-.491l-.47.179c-.187.071-.375.143-.433.272-.022.224-.044.447-.03.764-.058.13-.058.13-.152.166-.094.035-.094.035-.224-.023s-.13-.058-.165-.151c-.036-.094-.014-.318.03-.764l-.035-.094c-.036-.094.058-.13.116-.259.08-.353.125-.8.205-1.153.103-.577.277-.965.277-.965.187-.072.317-.014.388.174.036.094.237.339.345.621.237.339.474.678.746 1.112 0 0 .036.093.202.245.035.094.165.152.2.246.036.094.036.094-.022.223-.058.13-.151.166-.151.166Zm-1.502-1.684c-.022.223-.139.483-.125.8l.281-.107.282-.108c-.165-.152-.237-.339-.438-.585ZM97.658 123.411c-.187.072-.317.014-.424-.268l-.18-.469-.178-.469-.179-.469-.179-.469-.188.072-.375.143-.375.143-.094.036.215.563.215.562.214.563c.108.282.086.505.063.729-.022.223-.268.424-.549.531-.094.036-.094.036-.223-.022-.13-.058-.13-.058-.166-.152-.035-.093-.071-.187.023-.223 0 0 .093-.036.151-.165.094-.036.094-.036.058-.13-.035-.094.023-.223-.013-.317l-.215-.563-.215-.563-.25-.656-.036-.094c-.036-.094-.036-.094.022-.224.058-.129.058-.129.152-.165l.188-.072.187-.071 1.22-.465c.094-.036.094-.036.223.022.13.058.13.058.166.152l.429 1.125.43 1.126c.13.058.071.188-.117.259ZM99.627 120.403c-.057.13-.267.425-.348.778-.08.353-.196.612-.334 1.095a1.379 1.379 0 0 0-.138.482c-.058.13-.058.13-.152.166-.094.035-.188.071-.224-.023-.13-.058-.13-.058-.165-.152-.286-.75-.336-1.161-.371-1.255l-.358-.938-.072-.187-.072-.188c-.035-.094-.035-.094.023-.223.058-.13.058-.13.152-.166.093-.036.093-.036.223.022.13.058.13.058.165.152l.072.188.072.187.25.657.215.563c.138-.483.37-1.001.602-1.519.058-.13.116-.26.08-.353.023-.224.117-.26.08-.353-.035-.094.023-.224.21-.295.094-.036.188-.072.224.022.094-.036.13.058.165.152l.143.375.144.375.143.375.143.376.215.562.214.563c.036.094.036.094-.022.224-.058.129-.058.129-.152.165-.094.036-.187.072-.223-.022-.036-.094-.188.071-.224-.022l-.214-.563-.215-.563a134.931 134.931 0 0 0-.25-.657ZM101.641 119.205c.282-.107.505-.085.635-.027.223.022.424.268.496.455.179.469.005.858-.558 1.073l.107.281.563-.215c.094-.035.094-.035.223.023 0 0 .13.058.166.152.036.093.036.093-.022.223 0 0-.058.13-.152.165l-.282.108-.281.107-.375.143-.375.143c-.094.036-.094.036-.224-.022-.129-.058-.129-.058-.165-.152-.036-.094-.036-.094.022-.223.058-.13.058-.13.152-.165l.375-.144a23.355 23.355 0 0 1-.107-.281l-.094.036c-.188.071-.411.049-.635.027a.552.552 0 0 1-.46-.362c-.107-.281-.085-.505.067-.67.058-.13.303-.331.585-.438l-.072-.188-.469.179c-.094.036-.094.036-.223-.022 0 0-.13-.058-.166-.152a.217.217 0 0 1 .117-.259l.562-.215c.282-.107.563-.215.974-.264.094-.036.224.022.259.116.036.094.036.094-.022.224 0 0-.058.129-.152.165a1.763 1.763 0 0 1-.598.121c.223.022.129.058.129.058Zm-.29.648c-.281.107-.397.366-.29.648.036.094.072.187.165.152.13.058.224.022.318-.014l-.072-.188c.022-.223-.049-.411-.121-.598Zm.527-.309.215.563.107.282c.282-.108.398-.367.326-.555-.201-.245-.366-.397-.648-.29ZM104.974 118.363c-.058.13-.268.425-.348.778-.08.353-.196.612-.334 1.095a1.397 1.397 0 0 0-.139.482c-.058.13-.058.13-.152.166-.093.036-.187.071-.223-.022-.13-.058-.13-.058-.165-.152-.287-.751-.336-1.162-.372-1.256l-.358-.938-.071-.187-.072-.188c-.036-.094-.036-.094.022-.223.058-.13.058-.13.152-.166.094-.035.094-.035.224.023.129.058.129.058.165.151l.072.188.071.188.251.656.214.563c.139-.482.371-1.001.603-1.519.058-.13.116-.259.08-.353.022-.224.116-.259.08-.353-.035-.094.023-.224.21-.295.094-.036.188-.072.224.022.093-.036.129.058.165.152l.143.375.143.375.143.376.144.375.214.563.215.562c.036.094.036.094-.022.224-.058.129-.21.295-.21.295-.094.036-.188.071-.223-.022-.036-.094-.13-.058-.166-.152l-.215-.563-.214-.563-.143-.375-.108-.282ZM108.635 119.224c-.094.036-.223-.022-.353-.08a5.719 5.719 0 0 0-.626-.514c-.331-.303-.648-.29-.742-.254l-.093.036.107.281.107.282.036.093.072.188c.107.281.085.505-.103.576-.094.036-.094.036-.223-.022-.13-.058-.13-.058-.166-.152l-.143-.375-.143-.375-.286-.751-.286-.75c-.108-.281-.05-.411.138-.483.094-.035.094-.035.223.023.13.058.13.058.166.151l.322.845c.187-.072.245-.201.361-.461.023-.223.081-.353.103-.576a.55.55 0 0 1 .362-.46c.093-.036.093-.036.223.022.094-.036.13.058.165.152l.072.187c.036.094-.058.13-.058.13-.094.036-.152.165-.138.482-.023.224-.045.447-.197.613.224.022.519.232.907.406.295.21.59.419.662.607.036.094.036.094-.022.223-.353-.08-.353-.08-.447-.044ZM111.354 118.186c-.093.036-.223-.022-.424-.268-.165-.152-.201-.245-.402-.491l-.469.179c-.188.072-.376.143-.434.273a4.985 4.985 0 0 0-.031.764c-.058.129-.058.129-.151.165-.094.036-.094.036-.224-.022-.129-.058-.129-.058-.165-.152-.036-.094-.014-.317.031-.764l-.036-.094c-.036-.094.058-.129.116-.259.08-.353.125-.8.205-1.153.102-.576.276-.965.276-.965.188-.072.318-.013.389.174.036.094.237.34.345.621.237.339.473.679.746 1.112 0 0 .036.094.201.246.036.094.166.152.202.245.035.094.035.094-.023.224.036.094-.058.129-.152.165Zm-1.408-1.719c-.022.223-.138.482-.124.8l.281-.108.281-.107c-.165-.152-.33-.304-.438-.585ZM114.365 116.501c.094-.036.187-.072.317-.014.13.058.165.152.201.246a63.925 63.925 0 0 0 .143.375c.036.094.036.094-.022.223-.058.13-.058.13-.152.166-.187.071-.317.013-.388-.174l-.036-.094-.036-.094-.036-.094-.469.179-1.407.537-.094.036-.094.035c-.187.072-.317.014-.353-.08l-.035-.094-.108-.281-.214-.563-.215-.563-.215-.563a129.22 129.22 0 0 0-.215-.562c-.035-.094-.035-.094.023-.224.058-.129.058-.129.151-.165.188-.072.318-.014.389.174.143.375.452.902.738 1.653l.215.562.375-.143.375-.143.657-.25-.072-.188-.071-.188-.322-.844-.322-.844c-.072-.188-.108-.281-.014-.317.058-.13.058-.13.246-.201.094-.036.094-.036.223.022.036.094.13.058.166.152l.143.375.143.375c-.103.576.17 1.01.385 1.573ZM116.326 114.033c-.058.13-.268.425-.348.778-.081.353-.197.612-.335 1.095a1.377 1.377 0 0 0-.138.482c-.058.13-.058.13-.152.166-.094.035-.188.071-.223-.023-.13-.058-.13-.058-.166-.152-.286-.75-.335-1.161-.371-1.255l-.358-.938-.072-.187-.071-.188c-.036-.094-.036-.094.022-.223.058-.13.058-.13.152-.166.094-.036.094-.036.223.022.13.058.13.058.166.152l.071.188.072.187.25.657.215.563c.138-.483.37-1.001.602-1.519.058-.13.116-.26.081-.353.022-.224.116-.26.08-.353-.036-.094.022-.224.21-.295.094-.036.187-.072.223.022.094-.036.13.058.166.152l.143.375.143.375.143.375.143.376a131.4 131.4 0 0 1 .43 1.125c.035.094.035.094-.023.224-.058.129-.058.129-.151.165-.094.036-.188.072-.224-.022-.036-.094-.129-.058-.165-.152l-.215-.563-.215-.563-.143-.375c-.094.036-.129-.058-.165-.152ZM119.327 112.888c-.058.13-.268.425-.348.778-.081.353-.197.612-.335 1.094a1.39 1.39 0 0 0-.138.483c-.058.13-.058.13-.152.165-.094.036-.188.072-.223-.022-.13-.058-.13-.058-.166-.152-.286-.75-.335-1.161-.371-1.255l-.358-.938-.072-.188-.071-.187c-.036-.094-.036-.094.022-.224.058-.129.058-.129.152-.165.094-.036.094-.036.223.022.13.058.13.058.166.152l.071.188.072.187.25.657.215.563c.138-.483.37-1.001.602-1.52.058-.129.116-.259.081-.353.022-.223.116-.259.08-.353-.036-.093.022-.223.21-.295.094-.035.187-.071.223.023.094-.036.13.058.166.151l.143.376.143.375.143.375.143.375.215.563.215.563c.035.094.035.094-.023.223-.058.13-.058.13-.151.166-.094.036-.188.071-.224-.022-.036-.094-.129-.058-.165-.152l-.215-.563-.215-.563-.143-.375c-.094.036-.129-.058-.165-.152Z" fill="#727E99"/><path d="m122.968 73.136 70.448-26.875M125.295 79.234l70.448-26.876M127.55 85.143l70.448-26.875M139.823 117.319l70.449-26.876M142.078 123.229l70.449-26.876M144.404 129.326l70.449-26.876M146.658 135.236l70.449-26.876M148.843 140.958l70.448-26.876M161.369 143.379l60.318-23.011" stroke="#727E99" stroke-miterlimit="22.926" stroke-linecap="round"/><path d="M69.693 154.605c.246-.201.116-.259.197-.612.022-.224.32-1.412.379-1.542.093-.036.022-.223.165.152.38.715.51.773.515 1.63-.023.224.107.282.178.469-.071-.187.393-1.224.322-1.412-.036-.093-.014-.317.151-.165.237.339.822-.099.643-.568-.187.072-.017 1.082.207 1.104.223.022 1.16-.336 1.349-.407a.553.553 0 0 0 .361-.461s-.013-.317-.107-.281c-.33-.304-1.14.112-1.35.407-.057.13-.093.036-.021.223.107.282.294.21.576.103.411-.049 1.161-.336 1.5-.573.832-.639.076-1.21-.134-.916-.058.13.242 1.198.242 1.198.014.317-.326.554-.607.661-.143-.375-.215-.563-.04-.951.231-.519 1.192-1.1 1.746-.774.259.116.661.607.742.254-.036-.094.29-.648.29-.648.187-.071.366.398 1.255-.371.246-.201.08-.353.54.008.094-.035.26.117.434-.272s-.05-.411.563-.215c.13.058.187-.072.281-.107 0 0 .022-.224.152-.166 0 0 .353.081.505-.085.058-.129.022-.223.223.022l.165.152c.224.022.29-.648.255-.742l.107.282-.036-.094M82.857 148.83c-.26-.116-.389-.174-.599.121-.058.13-.187.072-.08.353.108.281.273.433.532.549.094-.036.446.044.54.009.152-.166-.076-1.045-.43-1.125-.258-.116-.481-.139-.691.156M84.063 148.048c.259.116.567.643.675.925 0 0 .124-.8.183-.93.022-.223.146-1.023.5-.943.352.081-.059.13-.21.295.035.094-.023.224.12.599.072.187.18.469.403.491.223.022.343-1.635.803-1.274l-.071-.187c-.281.107.063.728.099.822.446.044.223.022.692-.157.188-.071.397-.366.456-.496l-.036-.094c.058-.129.138-.482.16-.706-.036-.094.045-.447-.071-.187-.058.129-.08.353-.139.482-.116.259-.151.166-.138.483-.089.893.8.124.858-.005.022-.224-.05-.411.116-.259 0 0 .036.094.223.022l.563-.215c.094-.036.116-.259.08-.353-.107-.281.202.246.483.138.094-.035.411-.049.47-.178.808-.416.45-1.354.968-1.122.13.058.26.116.188-.072.151-.165.008-.54.116-.259.143.375-.053.987.233 1.738.036.094.094-.036.094-.036l-.036-.094c-.05-.411.08-.353-.17-1.009-.108-.282-.237-.34-.483-.139-.304.331-.232.519-.089.894.143.375 1.385-.314 1.501-.573.116-.259.044-.447-.063-.728.107.281.242 1.197.46.362.058-.13.01-.541-.027-.635.094-.035.036.094.201.246.331.304.144.375.613.196.844-.322.271-1.823.737-.603.187-.072.397-.367.513-.626.116-.259-.036-.094.367.397.2.246.7-.697.63-.884.214.562.084.504.553.325.282-.107.68-.473.795-.733l.18.469c.035.094.187-.071.151-.165.094-.036.022-.223.165.152.143.375.242 1.197-.062 1.528.108.281-.518-.232-.51-.773-.013-.317.117-.259.362-.46l.939-.358c-.108-.281-.014-.317-.086-.505l.287.751c.187-.072.232-.519.254-.742.138-.483-.107-.282.353.08.295.21.398-.367.491-.402-.107-.282.259.116.447.044l-.036-.094M75.768 162.925c.165.152.143.375.25.656l.394 1.032c-.143-.375-.121-.599-.264-.974l-.25-.656c.187-.071-.13-.058.058-.129-.036-.094.151-.166.21-.295.057-.13.115-.259.21-.295 0 0 .517.232.553.326.259.116.259.116.33.303.036.094-.138.482-.138.482-.022.224-.245.202-.339.237-.058.13-.094.036-.188.072l-.187.071.058-.129M77.864 163.63c.375-.143.62-.344.794-.733l-.013-.317c-.281.107-.621.344-.607.661l.107.282c.317-.014-.094.035.26.116.222.022.915-.135.937-.358.058-.13-.286-.751-.394-1.032l.452.902c.13.058.022-.223.08-.353.045-.447-.071-.187.045-.447-.036-.093.044-.446.152-.165.214.563.876 1.17.857-.005m0 0c-.286-.75-.027-.634 0 0Zm0 0c.072.188.108.282.26.116.245-.201.205-1.153.361-.46l.108.281c.563-.214.563-.214.853-.862.058-.13.022-.224.116-.26-.072-.187.165.152.058-.129-.094.036-.023.223-.08.353.098.822.151-.166.267-.425.058-.129.023-.223.166.152l.322.844a17.114 17.114 0 0 1-.193-.786l.116-.259.094-.036c.036.094.403.491.51.773.058-.13-.014-.317-.05-.411.13.058.439.585.555.326.116-.26.303-.331.254-.742.022-.224-.268.424-.053.987.375-.143.433-.272.643-.567.384-.684.004-1.399.54.008.188-.071.152-.165.304-.33.174-.389.031-.765.138-.483.036.094.108.281.331.304.648.29-.09-1.363.585-.439.237.34.488.997.63 1.372-.258-.116-.495-.456-.415-.809.045-.447.514-.625.688-1.014l.058-.13c.151-.165.022-.223.13.058.07.188-.09.894.272.433.152-.165.246-.201.362-.46l.151-.165c.072.187.26.116.353.08-.178-.469-.196.612.144.375.093-.036.138-.482.102-.576-.107-.282-.013-.317-.295-.21-.281.107-.254.742-.089.894.036.093.88-.229.947-.899.009-.541-.099-.822.188-.071.25.656.035.093-.072-.188.165.152.13.058.201.246.224.022.33.303.505-.086.116-.259-.242-1.197.116-.259.25.657-.201-.245.08-.353.13.058.496.456.532.55.188-.072-.05-.412.009-.541-.184-1.327.443 1.443.375-.143-.027-.635.058-.13.223.022l.13.058s.072.188.26.116c.28-.107.383-.684.276-.965.358.938.755.571.684.384-.215-.563-.34.237.035.094.47-.179.974-.264.76-.827-.18-.469.107.281.107.281.201.246.303-.331.361-.46.045-.447-.085-.505.094-.036.072.188.237.339.273.433.188-.071.196-.612.397-.366l.072.187M96.28 155.852c.107.281.178.469.344.621.165.152.26.116.447.044.281-.107.089-.893.017-1.081.072.188.344.621.648.29.058-.129.384-.684.478-.719.13.058.2.245.237.339.143.375.416.809.371 1.255-.08.353-.706-.16-.308-.527.303-.33 1.884-1.256 1.942-1.386.023-.223-.281.108-.339.237.036.094-.116.26-.08.353.187-.071.187-.071.339-.237.152-.165.045-.446.103-.576.035.094.004.858.214.563 0 0 .268-.425.232-.519.144.376.108.282.224.023.058-.13-.036-.094.116-.26-.036-.093-.05-.411.094-.035.179.469.259.116.259.116.152-.166.08-.353.009-.541-.036-.094-.381-.715-.014-.317.273.433.501 1.313.55 1.724-.022.224-.143-.375-.143-.375s-.398-1.89-.068-1.586l.036.094c.036.094.331.303.367.397.237.34.237.34-.21.295-.411.05-.094.036-.483-.138M138.578 111.239c.246-.201.116-.259.196-.612.023-.223.321-1.412.379-1.542.094-.035.023-.223.166.152.38.715.509.773.514 1.631-.022.223.108.281.179.469-.071-.188.393-1.225.321-1.412-.036-.094-.013-.317.152-.166.237.34.822-.098.643-.567-.187.071-.017 1.081.206 1.103.224.022 1.162-.336 1.349-.407a.552.552 0 0 0 .362-.46s-.014-.318-.107-.282c-.331-.304-1.14.112-1.349.407-.058.13-.094.036-.023.224.108.281.295.21.577.102.411-.049 1.161-.335 1.501-.572.83-.64.075-1.211-.135-.916-.058.129.242 1.197.242 1.197.014.317-.326.554-.607.662-.143-.376-.215-.563-.041-.952.232-.518 1.192-1.1 1.747-.774.259.116.661.607.741.254-.035-.093.29-.647.29-.647.188-.072.367.397 1.256-.372.245-.201.08-.353.54.009.094-.036.259.116.434-.273.174-.389-.05-.411.562-.215.13.058.188-.071.282-.107 0 0 .022-.223.152-.165 0 0 .353.08.504-.086.058-.129.023-.223.224.023l.165.151c.224.023.29-.647.255-.741l.107.281-.036-.094M129.62 89.726c.26.116.568.643.675.925 0 0 .125-.8.183-.93.022-.223.147-1.023.5-.943.353.08-.058.13-.21.295.036.094-.022.224.121.599.072.188.179.469.402.491.224.023.344-1.635.804-1.273l-.071-.188c-.282.107.062.728.098.822.447.044.224.022.693-.157.187-.071.397-.366.455-.496l-.036-.094c.058-.13.139-.482.161-.706-.036-.093.044-.447-.072-.187-.058.13-.08.353-.138.482-.116.26-.152.166-.138.483-.089.894.8.125.858-.005.022-.223-.05-.411.116-.26 0 0 .035.095.223.023l.563-.215c.094-.035.116-.259.08-.353-.107-.281.201.246.483.139.093-.036.411-.05.469-.18.808-.415.45-1.353.969-1.121.129.058.259.116.187-.072.152-.165.009-.54.116-.259.143.375-.053.987.233 1.738.036.094.094-.036.094-.036l-.036-.094c-.049-.41.081-.353-.17-1.01-.107-.28-.237-.339-.482-.138-.304.331-.232.519-.089.894.143.375 1.385-.313 1.501-.573.116-.259.044-.446-.063-.728.107.282.242 1.197.46.362.058-.13.009-.54-.027-.635.094-.035.036.094.201.246.331.304.143.375.612.196.845-.322.272-1.823.737-.603.188-.072.398-.367.514-.626.116-.26-.036-.094.366.398.201.245.701-.698.63-.885.214.563.085.504.554.325.281-.107.679-.473.795-.733l.179.47c.036.093.187-.072.152-.166.093-.036.022-.223.165.152.143.375.242 1.197-.062 1.528.108.281-.518-.232-.51-.773-.013-.317.116-.259.362-.46l.938-.358c-.107-.281-.013-.317-.085-.505l.286.75c.188-.07.232-.518.255-.741.138-.483-.108-.281.353.08.295.21.397-.366.491-.402-.107-.282.259.116.447.044l-.036-.094M162.684 151.044c.259.116.568.643.675.925 0 0 .125-.8.183-.93.022-.223.147-1.023.5-.943.353.081-.058.13-.21.295.036.094-.023.224.121.599.071.188.179.469.402.491.223.023.343-1.635.804-1.273l-.072-.188c-.281.107.063.728.099.822.446.045.223.022.692-.157.188-.071.398-.366.456-.496l-.036-.094c.058-.129.138-.482.16-.706-.035-.093.045-.446-.071-.187-.058.129-.081.353-.139.482-.116.26-.151.166-.138.483-.089.894.8.125.858-.005.022-.223-.049-.411.116-.259 0 0 .036.094.223.022l.563-.215c.094-.035.116-.259.081-.353-.108-.281.201.246.482.139.094-.036.411-.05.469-.179.809-.416.451-1.354.969-1.122.13.058.259.116.188-.072.152-.165.008-.54.116-.259.143.375-.053.988.233 1.738.036.094.094-.036.094-.036l-.036-.094c-.049-.411.08-.353-.17-1.009-.108-.282-.237-.34-.483-.138-.304.33-.232.518-.089.893.143.375 1.385-.313 1.501-.572.116-.26.045-.447-.063-.729.108.282.242 1.198.461.362.058-.13.008-.541-.028-.634.094-.036.036.093.202.245.33.304.143.375.612.196.844-.322.271-1.823.737-.603.187-.072.397-.367.513-.626.116-.259-.036-.094.367.398.201.245.701-.698.629-.885.215.563.085.505.554.326.282-.108.679-.474.795-.733l.179.469c.036.093.188-.072.152-.166.094-.036.022-.223.165.152.144.375.242 1.197-.061 1.528.107.281-.519-.232-.51-.773-.014-.317.116-.259.362-.46l.938-.358c-.108-.281-.014-.317-.085-.505l.286.751c.187-.072.232-.519.254-.742.138-.483-.107-.281.353.08.295.21.398-.366.491-.402-.107-.281.26.116.447.044l-.036-.093M167.016 158.74c.259.116.568.643.675.925 0 0 .125-.8.183-.93.022-.223.147-1.023.5-.943.353.081-.058.13-.21.295.036.094-.022.224.121.599.071.188.179.469.402.491.223.022.343-1.635.804-1.273l-.072-.188c-.281.107.063.728.099.822.447.044.223.022.692-.157.188-.071.398-.366.456-.496l-.036-.094c.058-.129.138-.482.16-.706-.035-.093.045-.446-.071-.187-.058.129-.08.353-.139.482-.116.26-.151.166-.138.483-.089.894.8.125.858-.005.022-.223-.049-.411.116-.259 0 0 .036.094.223.022l.563-.215c.094-.035.116-.259.081-.353-.108-.281.201.246.482.139.094-.036.411-.05.469-.179.809-.416.451-1.354.969-1.122.13.058.259.116.188-.072.152-.165.008-.54.116-.259.143.375-.053.987.233 1.738.036.094.094-.036.094-.036l-.036-.094c-.049-.411.08-.353-.17-1.009-.108-.282-.237-.34-.483-.139-.304.331-.232.519-.089.894.143.375 1.385-.313 1.501-.573.116-.259.045-.446-.063-.728.108.282.242 1.197.461.362.058-.13.008-.541-.028-.635.094-.035.036.094.202.246.33.304.143.375.612.196.844-.322.271-1.823.737-.603.187-.072.397-.367.513-.626.116-.259-.036-.094.367.398.201.245.701-.698.629-.885.215.563.085.505.554.326.282-.108.679-.474.795-.734l.179.47c.036.093.188-.072.152-.166.094-.036.022-.223.165.152.144.375.242 1.197-.061 1.528.107.281-.519-.232-.51-.773-.014-.317.116-.259.362-.46l.938-.358c-.108-.281-.014-.317-.085-.505l.286.751c.187-.072.232-.519.254-.742.138-.483-.107-.281.353.08.295.21.398-.366.491-.402-.107-.282.26.116.447.044l-.036-.093" stroke="#727E99" stroke-width=".567" stroke-miterlimit="22.926"/><path clip-rule="evenodd" d="M201.314 15.415c.147-1.023-.528-1.948-1.587-2.188C133.802 35.905 68.571 60.683 4.092 87.43c-1.667.42-2.555 1.19-2.76 2.343 2.653 7.799 6.603 18.435 11.814 31.813 8.894 24.439 22.304 57.901 40.101 100.328a3.51 3.51 0 0 0 1.538 1.777c.778.348 1.636.343 2.35-.037l150.858-58.626c26.569-10.351 40.475-15.871 42.012-16.35.504-.085.938-.358 1.17-.876.268-.425.276-.965.097-1.434l-25.635-65.227-24.323-65.727Z" stroke="#727E99" stroke-width="2" stroke-miterlimit="22.926"/></g><defs><filter id="b" x="-16.998" y="-21.29" width="306.19" height="264.537" filterUnits="userSpaceOnUse" color-interpolation-filters="sRGB"><feFlood flood-opacity="0" result="BackgroundImageFix"/><feColorMatrix in="SourceAlpha" values="0 0 0 0 0 0 0 0 0 0 0 0 0 0 0 0 0 0 127 0" result="hardAlpha"/><feOffset dy="1"/><feGaussianBlur stdDeviation="8.65"/><feComposite in2="hardAlpha" operator="out"/><feColorMatrix values="0 0 0 0 0 0 0 0 0 0 0 0 0 0 0 0 0 0 0.09 0"/><feBlend in2="BackgroundImageFix" result="effect1_dropShadow_2004_446"/><feBlend in="SourceGraphic" in2="effect1_dropShadow_2004_446" result="shape"/></filter></defs></svg>