<svg width="111" height="111" viewBox="0 0 111 111" fill="none" xmlns="http://www.w3.org/2000/svg">
<ellipse cx="55.5" cy="55.1103" rx="55.5" ry="55.1103" fill="#81ABDD" fill-opacity="0.28"/>
<path d="M26.3424 8.32568L6.70416 9.56924C3.61866 9.76749 1.26824 12.4168 1.46789 15.4806L6.34116 91.3735C6.54081 94.4373 9.20886 96.7713 12.2944 96.573L31.9326 95.3295L26.3424 8.32568Z" fill="#81ABDD"/>
<path d="M9.96169 96.6812C9.90724 96.6812 9.85279 96.6722 9.79834 96.6542C8.70911 96.2437 7.76149 95.5312 7.06813 94.6015C6.37477 93.6718 5.96482 92.5639 5.88702 91.4096L2.62003 40.532C2.62076 40.4172 2.66541 40.307 2.74493 40.2237C2.82445 40.1404 2.9329 40.0902 3.0483 40.0833C3.16369 40.0765 3.27741 40.1134 3.36639 40.1867C3.45538 40.26 3.51298 40.3641 3.52753 40.478L6.79452 91.3556C6.85929 92.337 7.20681 93.2793 7.79569 94.0701C8.38457 94.861 9.18997 95.467 10.116 95.8162C10.3519 95.9063 10.4699 96.1676 10.3791 96.4019C10.3156 96.5731 10.1432 96.6812 9.96169 96.6812ZM2.23888 27.9163C2.00293 27.9163 1.80328 27.736 1.78513 27.4927L1.01375 15.5168C0.916545 14.0888 1.33702 12.6734 2.19917 11.5264C3.06132 10.3794 4.30826 9.57656 5.7146 9.26294C5.82962 9.24401 5.94758 9.2695 6.04428 9.33419C6.14098 9.39888 6.20908 9.49786 6.23462 9.61082C6.26016 9.72379 6.2412 9.84217 6.18163 9.9417C6.12205 10.0412 6.02638 10.1143 5.91425 10.146C3.43678 10.7047 1.7579 12.9395 1.91218 15.4627L2.69263 27.4387C2.71078 27.691 2.5202 27.8982 2.2661 27.9163H2.23888Z" fill="#727E99"/>
<path d="M80.4562 10.4793L85.3294 86.3722C85.5291 89.436 83.1787 92.0853 80.0932 92.2836L18.6373 96.1765C15.5518 96.3747 12.8838 94.0408 12.6841 90.977L7.81088 15.0841C7.61123 12.0202 9.96165 9.37093 13.0471 9.17268L74.503 5.27982C77.5885 5.08157 80.2565 7.41549 80.4562 10.4793Z" fill="#C7E0FF"/>
<path d="M80.4562 10.4792L85.3294 86.3721C85.5291 89.4359 83.1787 92.0852 80.0932 92.2834L18.6374 96.1763C17.267 96.2664 15.9784 95.8519 14.9529 95.104L78.0241 6.23486C78.7275 6.71237 79.3122 7.34277 79.7336 8.07819C80.155 8.81362 80.4021 9.63473 80.4562 10.4792Z" fill="#C7E0FF"/>
<path d="M18.2744 96.6361C16.8042 96.6361 15.3976 96.1134 14.2814 95.1312C13.682 94.6105 13.1928 93.9768 12.8422 93.2667C12.4917 92.5566 12.2868 91.7844 12.2395 90.995L7.36623 15.1022C7.26641 13.4981 7.79276 11.9482 8.86361 10.7407C9.93445 9.53319 11.4137 8.81229 13.029 8.71316L74.4848 4.8203C77.8335 4.61304 80.7103 7.12718 80.919 10.4433L85.7923 86.3362C86.001 89.6524 83.46 92.5179 80.1295 92.7252L18.6737 96.6181C18.5285 96.6361 18.4014 96.6361 18.2744 96.6361ZM74.866 5.71241C74.7571 5.71241 74.6482 5.71241 74.5302 5.72142L13.0744 9.61429C11.7041 9.7044 10.4427 10.3172 9.53515 11.3445C8.62766 12.3717 8.17391 13.6874 8.25558 15.0481L13.1289 90.941C13.2196 92.3017 13.8367 93.5542 14.8712 94.4554C15.9058 95.3565 17.2307 95.8071 18.6011 95.7259L80.0569 91.8331C82.8974 91.6529 85.0572 89.2198 84.8757 86.3993L80.0024 10.5064C79.83 7.80302 77.5613 5.71241 74.866 5.71241Z" fill="#727E99"/>
<path d="M75.0215 10.6687L79.9438 86.886L18.1576 90.8203L13.2354 14.603L75.0215 10.6687Z" fill="white"/>
<path d="M13.2323 14.574L16.5011 14.3668L21.4234 90.5841L18.1546 90.7913L13.2323 14.574ZM71.5745 10.8515L74.8442 10.6433L79.7665 86.8606L76.4967 87.0688L71.5745 10.8515Z" fill="#EDEDED"/>
<path d="M18.1288 91.2472C18.0143 91.2482 17.9037 91.2059 17.8195 91.1289C17.7352 91.052 17.6836 90.946 17.6751 90.8327L12.7746 14.6154C12.7655 14.4982 12.8109 14.3811 12.8835 14.291C12.9652 14.2009 13.0741 14.1468 13.192 14.1378L74.9746 10.2269C75.2377 10.2179 75.4374 10.3981 75.4555 10.6504L80.356 86.8677C80.3651 86.9849 80.3197 87.102 80.2471 87.1921C80.1655 87.2822 80.0565 87.3363 79.9386 87.3453L18.1561 91.2562C18.147 91.2472 18.1379 91.2472 18.1288 91.2472ZM13.7093 14.9938L18.5463 90.31L79.4213 86.4532L74.5843 11.137L13.7093 14.9938Z" fill="#727E99"/>
<path d="M57.4787 15.0029L31.6332 16.6429C29.9906 16.7511 28.6838 15.2913 28.9742 13.6963L30.0904 7.50552C30.1913 6.95154 30.4756 6.44684 30.898 6.07141C31.3205 5.69598 31.8571 5.47128 32.4227 5.43292L36.1434 5.19863C37.0963 5.13555 37.9584 4.55883 38.3124 3.68474C39.0021 1.95457 41.0621 0.629919 43.5759 0.467716C46.0896 0.305513 48.2948 1.36884 49.2114 2.99087C49.6742 3.81991 50.5999 4.27948 51.5528 4.22541L55.2735 3.99112C56.4351 3.91903 57.4969 4.64894 57.8508 5.74832L59.7475 11.7408C60.2285 13.2998 59.1213 14.9038 57.4787 15.0029Z" fill="white"/>
<path d="M31.2339 13.5521C30.9435 15.1471 32.2593 16.6069 33.8928 16.4988L31.6332 16.643C29.9906 16.7511 28.6838 15.2913 28.9742 13.6963L30.0904 7.50556C30.188 6.95165 30.47 6.44629 30.8912 6.07048C31.3125 5.69467 31.8486 5.47017 32.4136 5.43296L34.6733 5.28878C34.1082 5.32599 33.5721 5.55049 33.1509 5.9263C32.7296 6.30211 32.4476 6.80747 32.3501 7.36138L31.2339 13.5521ZM44.7012 0.476768C42.7228 0.900297 41.1528 2.08077 40.572 3.5406C40.209 4.43271 39.356 5.00042 38.394 5.0635L36.1344 5.20768C37.0963 5.1446 37.9494 4.57689 38.3124 3.68478C39.0021 1.96363 41.0621 0.629959 43.5668 0.467756C43.957 0.440722 44.3291 0.440723 44.7012 0.476768Z" fill="#EDEDED"/>
<path d="M31.4606 17.1026C31.0236 17.1036 30.5917 17.0092 30.1955 16.826C29.7993 16.6428 29.4485 16.3754 29.168 16.0427C28.8874 15.7099 28.684 15.32 28.5721 14.9005C28.4602 14.481 28.4425 14.0423 28.5203 13.6152L29.6365 7.4245C29.8816 6.07281 31.0069 5.07256 32.3863 4.98245L36.107 4.74815C36.9056 4.69409 37.6044 4.21649 37.8857 3.51361C38.6571 1.5852 40.9258 0.179443 43.5394 0.0172401C46.1439 -0.153974 48.5851 0.963423 49.5924 2.77469C49.9645 3.43251 50.7268 3.82901 51.5163 3.77494L55.2371 3.54065C56.6165 3.45053 57.8597 4.3066 58.2772 5.61324L60.1739 11.6057C60.4461 12.4798 60.31 13.408 59.7836 14.1649C59.2573 14.9219 58.4315 15.3905 57.5058 15.4535L52.5509 15.7689C52.2968 15.7689 52.0881 15.5977 52.0699 15.3454C52.0518 15.0931 52.2423 14.8858 52.4964 14.8678L57.4514 14.5524C58.0957 14.5074 58.6765 14.1829 59.0395 13.6603C59.4025 13.1376 59.5023 12.4888 59.3117 11.8761L57.4151 5.88357C57.1247 4.97344 56.2535 4.36968 55.3006 4.44177L51.5799 4.67606C50.4364 4.74815 49.3474 4.17143 48.812 3.21624C47.968 1.70235 45.8808 0.774186 43.6029 0.918367C41.3342 1.06255 39.374 2.24302 38.7297 3.85604C38.3213 4.87431 37.314 5.5862 36.1705 5.65829L32.4498 5.89259C31.4969 5.95566 30.7074 6.64953 30.535 7.59571L29.4187 13.7865C29.3098 14.4082 29.4913 15.048 29.9179 15.5166C30.3444 15.9942 30.9615 16.2465 31.6058 16.2015L46.8972 15.2373C47.1422 15.2283 47.36 15.4085 47.3781 15.6608C47.3963 15.9131 47.2057 16.1204 46.9516 16.1384L31.6603 17.1026C31.5967 17.0936 31.5241 17.1026 31.4606 17.1026Z" fill="#727E99"/>
<path d="M37.2955 10.344C37.0596 10.344 36.8599 10.1638 36.8418 9.92052C36.8236 9.6682 37.0142 9.46094 37.2683 9.44292L51.271 8.55981C51.3866 8.56054 51.4976 8.60488 51.5815 8.68384C51.6654 8.76281 51.716 8.87049 51.7229 8.98508C51.7298 9.09966 51.6926 9.21258 51.6188 9.30094C51.545 9.3893 51.4402 9.4465 51.3255 9.46094L37.3228 10.344H37.2955ZM41.1343 26.1228C40.8983 26.1228 40.6987 25.9425 40.6805 25.6992C40.6624 25.4469 40.8529 25.2397 41.107 25.2216L68.7585 23.4644C69.0126 23.4554 69.2213 23.6357 69.2395 23.888C69.2576 24.1403 69.0671 24.3476 68.813 24.3656L41.1706 26.1138C41.1615 26.1138 41.1524 26.1228 41.1343 26.1228ZM41.4428 30.9168C41.2069 30.9168 41.0072 30.7365 40.9891 30.4932C40.9709 30.2409 41.1615 30.0337 41.4156 30.0156L69.0671 28.2675C69.3302 28.2494 69.5299 28.4387 69.548 28.691C69.5662 28.9433 69.3756 29.1506 69.1215 29.1686L41.4791 30.9168H41.4428ZM41.7514 35.7108C41.5154 35.7108 41.3158 35.5305 41.2976 35.2872C41.2795 35.0349 41.47 34.8277 41.7241 34.8096L58.8123 33.7283C59.0846 33.7193 59.2752 33.8995 59.2933 34.1518C59.3115 34.4041 59.1209 34.6114 58.8668 34.6294L41.7786 35.7108H41.7514ZM42.4592 46.6234C42.2233 46.6234 42.0236 46.4432 42.0055 46.1999C41.9873 45.9476 42.1779 45.7403 42.432 45.7223L64.8744 44.2985C65.1467 44.2805 65.3372 44.4697 65.3554 44.722C65.3735 44.9743 65.183 45.1816 64.9289 45.1996L42.4864 46.6234H42.4592ZM42.7678 51.4174C42.5318 51.4174 42.3322 51.2372 42.314 50.9939C42.2959 50.7416 42.4864 50.5343 42.7405 50.5163L65.183 49.0925C65.4552 49.0745 65.6458 49.2637 65.6639 49.516C65.6821 49.7683 65.4915 49.9756 65.2374 49.9936L42.795 51.4174H42.7678ZM43.0763 56.2204C42.8404 56.2204 42.6407 56.0402 42.6226 55.7969C42.6044 55.5446 42.795 55.3373 43.0491 55.3193L60.1373 54.2379C60.4095 54.2199 60.6001 54.4091 60.6183 54.6615C60.6364 54.9138 60.4458 55.121 60.1917 55.1391L43.1035 56.2204C43.0945 56.2114 43.0854 56.2204 43.0763 56.2204ZM43.7751 67.124C43.5391 67.124 43.3395 66.9438 43.3213 66.7005C43.3032 66.4482 43.4938 66.2409 43.7479 66.2229L71.3993 64.4747C71.6716 64.4657 71.8622 64.6459 71.8803 64.8983C71.8985 65.1506 71.7079 65.3578 71.4538 65.3759L43.8023 67.124H43.7751ZM44.0836 71.927C43.8477 71.927 43.648 71.7468 43.6299 71.5035C43.6117 71.2512 43.8023 71.0439 44.0564 71.0259L71.7079 69.2777C71.9801 69.2687 72.1707 69.4489 72.1889 69.7013C72.207 69.9536 72.0164 70.1608 71.7623 70.1789L44.1109 71.927H44.0836ZM44.3922 76.721C44.1562 76.721 43.9566 76.5408 43.9384 76.2975C43.9203 76.0452 44.1109 75.8379 44.365 75.8199L61.4532 74.7386C61.7345 74.7295 61.916 74.9098 61.9341 75.1621C61.9523 75.4144 61.7617 75.6217 61.5076 75.6397L44.4194 76.721H44.3922Z" fill="#727E99"/>
<path d="M34.5371 30.899C34.6551 32.7012 34.0198 34.3683 32.9036 35.6389C32.3344 36.2819 31.643 36.8071 30.8691 37.1844C30.0951 37.5617 29.2538 37.7837 28.3933 37.8377C24.7633 38.0719 21.6415 35.3325 21.4056 31.737C21.2876 29.9348 21.9229 28.2677 23.03 27.0061C24.1832 25.7071 25.8089 24.9162 27.5494 24.8074C29.3644 24.6902 31.0432 25.321 32.3047 26.4204C32.9579 26.9821 33.4917 27.6675 33.8751 28.4364C34.2584 29.2054 34.4834 30.0426 34.5371 30.899Z" fill="#FA9595"/>
<path d="M34.5368 30.8989C34.6547 32.7011 34.0195 34.3682 32.9033 35.6388C32.334 36.2818 31.6427 36.8071 30.8687 37.1844C30.0948 37.5616 29.2535 37.7836 28.393 37.8376C26.7768 37.9452 25.1782 37.4504 23.9099 36.4498L31.4331 25.7715C31.7417 25.9607 32.0411 26.177 32.3134 26.4113C32.964 26.9765 33.4954 27.6641 33.877 28.4343C34.2586 29.2045 34.4828 30.0422 34.5368 30.8989Z" fill="#FA8D8D"/>
<path d="M27.9577 38.3061C26.2425 38.3061 24.6181 37.6934 23.3203 36.567C21.9137 35.3324 21.0697 33.6293 20.9518 31.773C20.8338 29.9166 21.4509 28.1234 22.6851 26.7086C23.295 26.0189 24.0364 25.4559 24.8666 25.0522C25.6968 24.6485 26.5993 24.4121 27.5221 24.3567C29.3915 24.2395 31.1974 24.8523 32.6131 26.0778C33.3106 26.6817 33.88 27.4174 34.2882 28.242C34.6964 29.0666 34.9353 29.9637 34.9908 30.8808C35.1087 32.7372 34.4916 34.5394 33.2484 35.9452C32.6403 36.6348 31.9005 37.1977 31.0717 37.6015C30.243 38.0052 29.3419 38.2416 28.4205 38.2971C28.2662 38.2971 28.1119 38.3061 27.9577 38.3061ZM27.9758 25.2398C27.8397 25.2398 27.7126 25.2398 27.5765 25.2488C26.7734 25.2977 25.9878 25.5035 25.265 25.8545C24.5421 26.2055 23.8961 26.6947 23.3641 27.2941C22.8321 27.8936 22.4245 28.5914 22.1647 29.3476C21.9049 30.1038 21.798 30.9035 21.8502 31.7009C21.95 33.3229 22.6851 34.8098 23.9102 35.8821C25.1353 36.9544 26.7144 37.4861 28.3479 37.387C29.9814 37.2879 31.4697 36.5579 32.5496 35.3414C33.6386 34.1159 34.174 32.5479 34.0742 30.9349C33.9744 29.3129 33.2302 27.835 32.0051 26.7537C30.8967 25.7718 29.4612 25.2324 27.9758 25.2398Z" fill="#727E99"/>
<path d="M27.0862 33.5573C26.9773 33.5573 26.8684 33.5212 26.7867 33.4491L25.2167 32.0794C25.1712 32.0403 25.134 31.9925 25.1075 31.9389C25.0809 31.8852 25.0655 31.8268 25.0621 31.7671C25.0587 31.7075 25.0674 31.6477 25.0878 31.5914C25.1081 31.5352 25.1396 31.4835 25.1804 31.4396C25.3438 31.2504 25.6342 31.2323 25.8247 31.4036L27.0499 32.4759L29.9992 29.1507C30.1626 28.9615 30.453 28.9435 30.6436 29.1057C30.8341 29.2679 30.8523 29.5562 30.6889 29.7455L27.4401 33.4131C27.3584 33.5032 27.2495 33.5572 27.1315 33.5663C27.1043 33.5572 27.0952 33.5573 27.0862 33.5573Z" fill="white"/>
<path d="M35.8526 51.4085C35.9706 53.2107 35.3353 54.8778 34.2191 56.1484C33.6499 56.7914 32.9585 57.3167 32.1845 57.6939C31.4106 58.0712 30.5693 58.2932 29.7088 58.3472C26.0788 58.5815 22.957 55.842 22.7211 52.2465C22.6031 50.4443 23.2384 48.7772 24.3455 47.5156C25.4987 46.2166 27.1244 45.4257 28.8648 45.3169C30.6798 45.1997 32.3587 45.8305 33.6201 46.9299C34.2741 47.4909 34.8085 48.1762 35.1919 48.9453C35.5753 49.7144 35.7999 50.5519 35.8526 51.4085Z" fill="#FA9595"/>
<path d="M35.8526 51.3996C35.9706 53.2019 35.3353 54.869 34.2191 56.1396C33.6499 56.7826 32.9585 57.3078 32.1846 57.6851C31.4106 58.0624 30.5693 58.2844 29.7089 58.3383C28.0926 58.4459 26.4941 57.9511 25.2258 56.9506L32.749 46.2722C33.0575 46.4615 33.357 46.6777 33.6292 46.912C34.2806 47.4766 34.8126 48.164 35.1942 48.9344C35.5759 49.7047 35.7997 50.5427 35.8526 51.3996Z" fill="#FA8D8D"/>
<path d="M29.2733 58.8066C27.5581 58.8066 25.9337 58.1939 24.6359 57.0674C23.2293 55.8329 22.3853 54.1298 22.2674 52.2735C22.1494 50.4171 22.7665 48.6239 24.0007 47.2091C24.6106 46.5194 25.352 45.9564 26.1822 45.5527C27.0124 45.149 27.9149 44.9126 28.8376 44.8572C30.7071 44.74 32.5221 45.3528 33.9287 46.5783C34.6262 47.1822 35.1956 47.9179 35.6038 48.7425C36.012 49.5671 36.2509 50.4641 36.3064 51.3813C36.4243 53.2377 35.8072 55.0399 34.564 56.4457C33.9548 57.1333 33.2146 57.6943 32.3859 58.0965C31.5573 58.4986 30.6567 58.7338 29.7361 58.7886C29.5818 58.7976 29.4275 58.8066 29.2733 58.8066ZM29.2914 45.7403C29.1553 45.7403 29.0282 45.7403 28.8921 45.7493C28.089 45.7981 27.3034 46.004 26.5806 46.355C25.8577 46.7059 25.2117 47.1952 24.6797 47.7946C24.1477 48.3941 23.7401 49.0919 23.4803 49.8481C23.2205 50.6043 23.1136 51.404 23.1658 52.2014C23.2656 53.8234 24.0007 55.3012 25.2258 56.3826C25.8275 56.9139 26.53 57.3206 27.2919 57.579C28.0539 57.8374 28.8602 57.9423 29.6635 57.8875C31.297 57.7883 32.7853 57.0584 33.8652 55.8419C34.9542 54.6164 35.4896 53.0484 35.3898 51.4354C35.29 49.8134 34.5458 48.3355 33.3207 47.2542C32.2101 46.2759 30.776 45.7371 29.2914 45.7403Z" fill="#727E99"/>
<path d="M28.4017 54.0577C28.2928 54.0577 28.1839 54.0217 28.1023 53.9496L26.5323 52.5799C26.4868 52.5408 26.4496 52.493 26.423 52.4393C26.3965 52.3857 26.3811 52.3273 26.3777 52.2676C26.3743 52.2079 26.383 52.1482 26.4033 52.0919C26.4237 52.0357 26.4552 51.984 26.496 51.9401C26.6593 51.7509 26.9497 51.7328 27.1403 51.904L28.3654 52.9764L31.3148 49.6512C31.4782 49.462 31.7686 49.444 31.9591 49.6062C32.1497 49.7684 32.1679 50.0567 32.0045 50.246L28.7557 53.9136C28.674 54.0037 28.5651 54.0577 28.4471 54.0667C28.4199 54.0577 28.4108 54.0577 28.4017 54.0577Z" fill="white"/>
<path d="M37.1689 71.9092C37.2869 73.7115 36.6517 75.3786 35.5354 76.6492C34.9662 77.2922 34.2748 77.8174 33.5009 78.1947C32.7269 78.572 31.8856 78.794 31.0252 78.8479C27.3952 79.0822 24.2734 76.3428 24.0374 72.7473C23.9195 70.945 24.5547 69.2779 25.6619 68.0164C26.8151 66.7174 28.4407 65.9265 30.1812 65.8176C31.9962 65.7005 33.6751 66.3313 34.9365 67.4306C35.5912 67.991 36.1261 68.6761 36.5096 69.4454C36.893 70.2146 37.1172 71.0524 37.1689 71.9092Z" fill="#FA9595"/>
<path d="M37.1688 71.9092C37.2868 73.7114 36.6515 75.3785 35.5353 76.6491C34.9661 77.2921 34.2747 77.8173 33.5008 78.1946C32.7268 78.5719 31.8855 78.7939 31.025 78.8478C29.4088 78.9555 27.8103 78.4606 26.542 77.4601L34.0652 66.7817C34.9602 67.325 35.7097 68.0748 36.2501 68.9676C36.7905 69.8603 37.1057 70.8695 37.1688 71.9092Z" fill="#FA8D8D"/>
<path d="M30.5986 79.3076C26.9232 79.3076 23.8195 76.46 23.5836 72.7654C23.4656 70.9091 24.0827 69.1158 25.3169 67.7011C25.9268 67.0113 26.6683 66.4483 27.4985 66.0446C28.3287 65.641 29.2312 65.4046 30.1539 65.3491C32.0233 65.232 33.8383 65.8447 35.245 67.0703C35.9424 67.6741 36.5119 68.4098 36.9201 69.2344C37.3283 70.059 37.5671 70.9561 37.6226 71.8733C37.7406 73.7296 37.1235 75.5318 35.8802 76.9376C35.2721 77.6272 34.5323 78.1902 33.7036 78.5939C32.8748 78.9976 31.9737 79.2341 31.0523 79.2895C30.898 79.3076 30.7528 79.3076 30.5986 79.3076ZM30.6167 66.2412C30.4806 66.2412 30.3535 66.2412 30.2174 66.2502C29.4143 66.2991 28.6287 66.5049 27.9059 66.8559C27.183 67.2069 26.537 67.6961 26.005 68.2956C25.473 68.895 25.0654 69.5929 24.8056 70.3491C24.5458 71.1053 24.4389 71.905 24.4911 72.7023C24.7089 76.0455 27.631 78.6047 30.9979 78.3884C32.6314 78.2893 34.1197 77.5594 35.1996 76.3429C36.2886 75.1173 36.824 73.5494 36.7242 71.9364C36.6244 70.3143 35.8802 68.8365 34.6551 67.7551C33.5393 66.7794 32.1035 66.2411 30.6167 66.2412Z" fill="#727E99"/>
<path d="M29.7179 74.5673C29.609 74.5673 29.5001 74.5312 29.4184 74.4591L27.8485 73.0894C27.8029 73.0503 27.7658 73.0025 27.7392 72.9489C27.7127 72.8952 27.6972 72.8368 27.6939 72.7771C27.6905 72.7175 27.6992 72.6577 27.7195 72.6014C27.7399 72.5452 27.7714 72.4936 27.8122 72.4496C27.9755 72.2604 28.2659 72.2424 28.4565 72.4136L29.6816 73.4859L32.631 70.1608C32.7943 69.9715 33.0847 69.9535 33.2753 70.1157C33.4659 70.2779 33.484 70.5663 33.3207 70.7555L30.0718 74.4231C29.9902 74.5132 29.8813 74.5673 29.7633 74.5763C29.7361 74.5673 29.727 74.5673 29.7179 74.5673Z" fill="white"/>
<path d="M71.9326 41.9478L88.0834 13.4082L101.33 20.8001L85.1794 49.3388L71.9326 41.9478Z" fill="#FA9595"/>
<path d="M71.9275 41.9486L88.0783 13.4099L90.3488 14.6769L74.1981 43.2156L71.9275 41.9486ZM82.9191 48.0781L99.0699 19.5394L101.34 20.8064L85.1906 49.345L82.9191 48.0781Z" fill="#FA8D8D"/>
<path d="M106.601 11.5336L103.842 16.3997L90.5839 9.00143L93.3427 4.13534C93.9496 3.06759 94.958 2.28221 96.147 1.95117C97.3359 1.62013 98.6085 1.77042 99.6861 2.36913L104.832 5.24373C105.906 5.84504 106.696 6.84539 107.028 8.02487C107.36 9.20435 107.206 10.4664 106.601 11.5336Z" fill="#C7E0FF"/>
<path d="M97.7259 1.80149C95.9926 1.68435 94.2593 2.53141 93.3518 4.13541L90.593 9.0015L92.9162 10.2991L97.7259 1.80149ZM106.329 6.6045C107.327 8.01927 107.509 9.92966 106.601 11.5337L103.842 16.3997L101.519 15.1021L106.329 6.6045Z" fill="#C7E0FF"/>
<path d="M88.0605 13.4124L90.578 8.96533L103.848 16.3699L101.332 20.8179L88.0605 13.4124Z" fill="#EDEDED"/>
<path d="M90.3252 14.676L92.8417 10.228L101.578 15.1031L99.0608 19.5502L90.3252 14.676Z" fill="white"/>
<path d="M85.1748 49.3721L71.0088 58.9781L71.9254 41.9648L85.1748 49.3721Z" fill="#FCDCB5"/>
<path d="M72.9236 57.6895L71.0088 58.9781L71.9254 41.9648L73.7041 42.9561L72.9236 57.6895Z" fill="#FCC583"/>
<path d="M85.1665 49.8224C85.0939 49.8224 85.0122 49.8044 84.9396 49.7684L71.6992 42.3791C71.5903 42.3251 71.5177 42.2259 71.4814 42.1088C71.4451 41.9916 71.4632 41.8745 71.5268 41.7664L87.6802 13.2367C87.7982 13.0204 88.0795 12.9393 88.2973 13.0655L101.538 20.4547C101.756 20.5809 101.837 20.8512 101.71 21.0675L96.9549 29.475C96.8278 29.6913 96.5556 29.7724 96.3378 29.6462C96.12 29.52 96.0383 29.2497 96.1654 29.0334L100.703 21.0224L88.252 14.0747L72.5432 41.8024L84.994 48.7591L93.0708 34.4943C93.1888 34.278 93.4701 34.1969 93.6879 34.323C93.9057 34.4492 93.9874 34.7195 93.8603 34.9358L85.5658 49.5881C85.4841 49.7323 85.3298 49.8224 85.1665 49.8224ZM103.843 16.8502C103.77 16.8502 103.689 16.8322 103.616 16.7961L90.3664 9.39788C90.2575 9.3348 90.1849 9.24469 90.1486 9.12755C90.1123 9.0104 90.1305 8.89325 90.194 8.78512L92.9528 3.91903C93.6244 2.73856 94.7134 1.88249 96.0292 1.52204C97.3451 1.16159 98.7245 1.32379 99.9133 1.98161L105.059 4.84719C106.239 5.50601 107.107 6.60315 107.473 7.89748C107.839 9.19182 107.672 10.5774 107.01 11.7498L104.251 16.6159C104.151 16.7691 104.006 16.8502 103.843 16.8502ZM91.2104 8.83017L103.67 15.7869L106.202 11.3083C107.337 9.30777 106.62 6.75758 104.596 5.63117L99.4505 2.76559C98.9705 2.49394 98.4405 2.3205 97.8919 2.2555C97.3432 2.1905 96.787 2.23525 96.2561 2.38712C95.7236 2.53331 95.2255 2.78303 94.7909 3.12179C94.3563 3.46056 93.9937 3.88162 93.7242 4.36058L91.2104 8.83017Z" fill="#727E99"/>
<path d="M101.337 21.3018C101.265 21.3018 101.183 21.2838 101.111 21.2478L87.843 13.8405C87.7341 13.7774 87.6615 13.6873 87.6252 13.5702C87.5889 13.453 87.607 13.3359 87.6705 13.2277L90.1843 8.78518C90.2387 8.67704 90.3386 8.60495 90.4566 8.56891C90.5745 8.53286 90.6925 8.55089 90.8014 8.61396L104.069 16.0212C104.287 16.1474 104.369 16.4177 104.241 16.634L101.728 21.0765C101.673 21.1847 101.573 21.2568 101.455 21.2928C101.419 21.2928 101.374 21.3018 101.337 21.3018ZM88.6869 13.2728L101.165 20.2385L103.234 16.5799L90.756 9.61422L88.6869 13.2728ZM71.0089 59.4285C70.947 59.431 70.8854 59.4204 70.828 59.3975C70.7706 59.3746 70.7187 59.3398 70.6758 59.2956C70.6329 59.2513 70.6 59.1985 70.5792 59.1406C70.5584 59.0827 70.5502 59.0212 70.5551 58.9599L71.4626 41.9466C71.4717 41.7935 71.5624 41.6493 71.6985 41.5772C71.8347 41.5051 72.0071 41.5051 72.1432 41.5772L85.4018 48.9754C85.5379 49.0475 85.6287 49.1917 85.6287 49.3449C85.6319 49.4211 85.6152 49.4969 85.5803 49.5648C85.5453 49.6327 85.4932 49.6904 85.429 49.7324L71.2629 59.3564C71.1903 59.4015 71.0996 59.4285 71.0089 59.4285ZM72.3338 42.7126L71.508 58.0948L84.3128 49.408L72.3338 42.7126Z" fill="#727E99"/>
<path d="M78.5501 46.1189C78.4775 46.1189 78.3958 46.1009 78.3232 46.0649C78.2712 46.0361 78.2254 45.9973 78.1885 45.9509C78.1517 45.9044 78.1244 45.8511 78.1084 45.7942C78.0924 45.7372 78.0878 45.6776 78.0951 45.6189C78.1024 45.5602 78.1213 45.5035 78.1508 45.4521L94.3043 16.9224C94.4223 16.7062 94.7036 16.6251 94.9214 16.7512C95.1392 16.8774 95.2208 17.1477 95.0938 17.364L78.9403 45.8937C78.8587 46.0378 78.7044 46.1189 78.5501 46.1189ZM71.4535 50.6336L71.0088 58.978L77.9602 54.2651L71.4535 50.6336Z" fill="#727E99"/>
<path d="M71.0089 59.4284C70.947 59.4309 70.8854 59.4204 70.828 59.3975C70.7706 59.3745 70.7187 59.3398 70.6758 59.2955C70.6329 59.2512 70.6 59.1984 70.5792 59.1405C70.5584 59.0827 70.5502 59.0211 70.5551 58.9599L70.9998 50.6154C71.0088 50.4622 71.0996 50.3181 71.2357 50.246C71.3719 50.1739 71.5443 50.1739 71.6804 50.246L78.1781 53.8775C78.3142 53.9496 78.405 54.0938 78.405 54.247C78.4082 54.3232 78.3915 54.3989 78.3566 54.4668C78.3216 54.5347 78.2695 54.5925 78.2053 54.6344L71.2539 59.3473C71.1903 59.4014 71.0996 59.4284 71.0089 59.4284ZM71.871 51.3814L71.508 58.0948L77.0982 54.301L71.871 51.3814Z" fill="#727E99"/>
<path d="M92.2274 70.6564L94.8518 63.5222L99.1806 65.0929L96.5561 72.2262L92.2274 70.6564Z" fill="white"/>
<path d="M96.6002 72.6659C96.5457 72.6659 96.4913 72.6569 96.4459 72.6388L92.1171 71.0709C92.0055 71.0283 91.9148 70.9445 91.8641 70.837C91.8133 70.7294 91.8064 70.6066 91.8449 70.4942L94.4675 63.3572C94.5492 63.1229 94.8124 63.0058 95.0483 63.0869L99.3771 64.6549C99.4887 64.6975 99.5794 64.7813 99.6302 64.8888C99.6809 64.9963 99.6878 65.1191 99.6494 65.2316L97.0267 72.3685C96.9632 72.5577 96.7817 72.6659 96.6002 72.6659ZM92.8522 70.377L96.3279 71.6386L98.642 65.3487L95.1663 64.0872L92.8522 70.377Z" fill="#727E99"/>
<path d="M87.9977 110.549C100.026 110.549 109.778 100.867 109.778 88.9224C109.778 76.9782 100.026 67.2954 87.9977 67.2954C75.969 67.2954 66.2178 76.9782 66.2178 88.9224C66.2178 100.867 75.969 110.549 87.9977 110.549Z" fill="#FCDCB5"/>
<path d="M102.436 94.167C99.5227 102.079 90.6927 106.152 82.7249 103.259C79.0828 101.946 76.0791 99.3081 74.3215 95.8791C73.3526 94.0096 72.7847 91.9608 72.6535 89.8623C72.5223 87.7638 72.8307 85.6611 73.5592 83.6869C76.4722 75.766 85.3022 71.6929 93.2791 74.5855C97.136 75.9822 100.076 78.7577 101.773 82.1369C103.579 85.7595 103.942 90.0759 102.436 94.167Z" fill="white"/>
<path d="M108.452 96.3478C104.323 107.558 91.8176 113.334 80.5193 109.234C75.3478 107.362 71.0854 103.61 68.5947 98.7358L107.49 79.2715C110.058 84.4169 110.585 90.5446 108.452 96.3478Z" fill="#F9D4A7"/>
<path d="M87.9707 111C85.4387 111 82.8705 110.567 80.3658 109.657C69.2036 105.602 63.2322 93.6081 66.7715 82.353C66.8441 82.1187 67.0982 81.9835 67.3432 82.0556C67.5792 82.1277 67.7153 82.38 67.6427 82.6233C64.2486 93.4188 69.9749 104.926 80.6834 108.81C86.0377 110.757 91.8275 110.504 96.9912 108.125C99.5348 106.958 101.82 105.301 103.716 103.252C105.612 101.203 107.08 98.801 108.035 96.1853C109.987 90.8686 109.742 85.1195 107.346 79.992C106.17 77.4663 104.502 75.1968 102.438 73.3145C100.374 71.4322 97.9556 69.9745 95.3214 69.0253C86.3825 65.7813 76.2548 68.8631 70.7009 76.5227C70.5557 76.7209 70.2654 76.766 70.0657 76.6218C69.8661 76.4776 69.8116 76.1983 69.9659 75.991C75.7557 68.0071 86.319 64.79 95.639 68.1693C101.22 70.1968 105.667 74.2519 108.172 79.6046C110.676 84.9572 110.93 90.9497 108.889 96.4827C105.585 105.44 97.0456 111 87.9707 111Z" fill="#727E99"/>
<path d="M102.436 94.167C99.5227 102.079 90.6927 106.152 82.7249 103.259C79.0828 101.946 76.0791 99.3081 74.3215 95.8792L101.773 82.146C103.579 85.7595 103.942 90.0759 102.436 94.167Z" fill="#FADFCB"/>
<path d="M88.0062 104.647C86.1731 104.647 84.34 104.323 82.5613 103.683C78.5864 102.241 75.4192 99.3485 73.6405 95.5457C71.8618 91.743 71.6803 87.4716 73.1323 83.5337C74.5843 79.5958 77.4974 76.4509 81.3271 74.6756C83.2097 73.8016 85.2482 73.3069 87.3246 73.2203C89.4011 73.1337 91.4742 73.4568 93.424 74.171C97.3989 75.6128 100.566 78.5054 102.345 82.3082C104.123 86.1109 104.305 90.3823 102.853 94.3202C102.145 96.2615 101.056 98.0441 99.6494 99.5646C98.2428 101.085 96.5463 102.313 94.6582 103.178C92.5747 104.142 90.3047 104.643 88.0062 104.647ZM87.9881 74.0989C85.8464 74.0989 83.7138 74.5675 81.7082 75.4867C78.0964 77.1537 75.3557 80.1184 73.9854 83.8311C72.6151 87.5437 72.7875 91.5718 74.4664 95.1582C76.1452 98.7447 79.1309 101.466 82.8698 102.827C86.6087 104.188 90.6652 104.016 94.2771 102.349C97.8889 100.682 100.63 97.7174 102 94.0048C103.37 90.2922 103.198 86.2641 101.519 82.6776C99.84 79.0912 96.8544 76.3698 93.1155 75.0091C91.4457 74.4053 89.7123 74.0989 87.9881 74.0989Z" fill="#727E99"/>
<path d="M92.6617 76.6943C92.5889 76.6941 92.5173 76.6765 92.4528 76.643C92.3883 76.6096 92.3328 76.5613 92.291 76.5021C92.2492 76.443 92.2223 76.3747 92.2126 76.3031C92.2029 76.2315 92.2106 76.1586 92.2352 76.0906L92.8432 74.4325C92.8898 74.3279 92.9746 74.2448 93.0804 74.1999C93.1863 74.155 93.3054 74.1516 93.4137 74.1905C93.522 74.2294 93.6113 74.3076 93.6638 74.4094C93.7162 74.5112 93.7278 74.6289 93.6963 74.7389L93.0882 76.3969C93.0247 76.5862 92.8432 76.6943 92.6617 76.6943ZM82.7246 103.71C82.6518 103.71 82.5802 103.692 82.5157 103.659C82.4512 103.625 82.3957 103.577 82.3539 103.518C82.3121 103.459 82.2852 103.39 82.2755 103.319C82.2658 103.247 82.2735 103.174 82.2981 103.106L82.9061 101.448C82.9527 101.344 83.0374 101.261 83.1433 101.216C83.2492 101.171 83.3683 101.167 83.4766 101.206C83.5849 101.245 83.6742 101.323 83.7267 101.425C83.7791 101.527 83.7907 101.645 83.7592 101.755L83.1511 103.413C83.0785 103.593 82.9061 103.71 82.7246 103.71ZM75.2287 84.7414C75.1742 84.7414 75.1198 84.7324 75.0744 84.7143L73.4046 84.1106C73.2993 84.0644 73.2156 83.9802 73.1703 83.875C73.1251 83.7699 73.1217 83.6516 73.1609 83.5441C73.2001 83.4366 73.2788 83.3478 73.3813 83.2958C73.4838 83.2437 73.6024 83.2322 73.7131 83.2635L75.3829 83.8673C75.4822 83.9043 75.5653 83.9746 75.6179 84.066C75.6705 84.1574 75.6893 84.2642 75.671 84.3679C75.6527 84.4716 75.5985 84.5657 75.5177 84.6339C75.4369 84.7021 75.3347 84.7401 75.2287 84.7414ZM102.435 94.6087C102.381 94.6087 102.327 94.5997 102.281 94.5817L100.611 93.9779C100.506 93.9317 100.422 93.8475 100.377 93.7424C100.332 93.6372 100.329 93.519 100.368 93.4114C100.407 93.3039 100.486 93.2152 100.588 93.1631C100.691 93.111 100.809 93.0995 100.92 93.1309L102.59 93.7346C102.689 93.7716 102.772 93.8419 102.825 93.9333C102.877 94.0247 102.896 94.1315 102.878 94.2352C102.859 94.3389 102.805 94.433 102.724 94.5012C102.644 94.5694 102.541 94.6074 102.435 94.6087ZM82.2709 77.1359C82.0984 77.1359 81.9351 77.0367 81.8625 76.8745L81.1093 75.2705C81.0834 75.2174 81.0685 75.1597 81.0655 75.1008C81.0625 75.0419 81.0714 74.9829 81.0917 74.9275C81.112 74.8721 81.1433 74.8212 81.1837 74.778C81.2242 74.7348 81.2729 74.7 81.3271 74.6758C81.3805 74.6501 81.4387 74.6354 81.498 74.6324C81.5573 74.6294 81.6167 74.6382 81.6725 74.6584C81.7283 74.6785 81.7795 74.7096 81.8231 74.7497C81.8666 74.7899 81.9016 74.8383 81.926 74.8921L82.6792 76.4961C82.7881 76.7213 82.6883 76.9917 82.4614 77.0908C82.3979 77.1178 82.3344 77.1359 82.2709 77.1359ZM94.4767 103.214C94.3043 103.214 94.1409 103.115 94.0683 102.953L93.3151 101.349C93.2062 101.124 93.306 100.854 93.5329 100.754C93.7598 100.655 94.032 100.745 94.1319 100.971L94.8851 102.575C94.994 102.8 94.8942 103.07 94.6673 103.169C94.6038 103.205 94.5402 103.214 94.4767 103.214ZM74.058 95.8072C73.8856 95.8072 73.7222 95.7081 73.6496 95.5459C73.6238 95.4928 73.6089 95.435 73.6059 95.3761C73.6029 95.3172 73.6118 95.2583 73.6321 95.2029C73.6524 95.1474 73.6837 95.0966 73.7241 95.0533C73.7645 95.0101 73.8132 94.9754 73.8674 94.9511L75.4828 94.2032C75.7096 94.1041 75.9819 94.1942 76.0817 94.4195C76.1906 94.6448 76.0908 94.9151 75.8639 95.0142L74.2486 95.7622C74.185 95.7892 74.1215 95.8072 74.058 95.8072ZM100.321 83.6871C100.149 83.6871 99.9852 83.5879 99.9126 83.4257C99.8868 83.3726 99.8719 83.3149 99.8689 83.256C99.8659 83.1971 99.8748 83.1381 99.8951 83.0827C99.9154 83.0273 99.9467 82.9764 99.9871 82.9332C100.028 82.89 100.076 82.8552 100.13 82.831L101.746 82.0831C101.973 81.9839 102.245 82.074 102.345 82.2993C102.454 82.5246 102.354 82.7949 102.127 82.8941L100.512 83.642C100.448 83.669 100.385 83.6871 100.321 83.6871Z" fill="#727E99"/>
<path d="M102.191 65.5473V65.5564C101.999 66.0734 101.608 66.4937 101.105 66.7252C100.601 66.9566 100.026 66.9802 99.5046 66.7909L93.5696 64.6372C93.3106 64.5456 93.0725 64.4039 92.8691 64.2203C92.6657 64.0367 92.501 63.8149 92.3845 63.5677C92.268 63.3204 92.2021 63.0527 92.1905 62.78C92.179 62.5072 92.222 62.235 92.3172 61.9789V61.9699C92.5096 61.4509 92.9012 61.0286 93.4063 60.7956C93.9114 60.5625 94.4889 60.5376 95.0125 60.7263L100.948 62.88C102.037 63.2765 102.59 64.475 102.191 65.5473Z" fill="#FA9595"/>
<path d="M95.6209 65.3849L93.5699 64.637C93.3116 64.5445 93.0743 64.4023 92.8714 64.2185C92.6686 64.0347 92.5043 63.813 92.388 63.566C92.2716 63.319 92.2055 63.0517 92.1934 62.7793C92.1813 62.5069 92.2235 62.2348 92.3176 61.9787V61.9697C92.7169 60.8883 93.9148 60.3206 95.0128 60.7171L97.0638 61.465C95.9657 61.0685 94.7587 61.6272 94.3594 62.7086V62.7176C93.9692 63.7989 94.5228 64.9884 95.6209 65.3849Z" fill="#FA8D8D"/>
<path d="M100.231 67.3767C99.9315 67.3767 99.6321 67.3226 99.3507 67.2235L93.4157 65.0698C92.7804 64.8402 92.263 64.3695 91.9771 63.7612C91.6912 63.1528 91.6602 62.4567 91.8911 61.8257C92.127 61.1769 92.5989 60.6723 93.216 60.3929C93.8331 60.1046 94.5228 60.0775 95.1672 60.3118L101.102 62.4655C102.427 62.9431 103.108 64.403 102.627 65.7186V65.7276C102.391 66.3674 101.928 66.872 101.311 67.1514C100.957 67.2956 100.594 67.3767 100.231 67.3767ZM94.2869 61.0508C93.9501 61.0511 93.6215 61.1541 93.3456 61.3459C93.0697 61.5377 92.8597 61.809 92.7441 62.1231C92.4356 62.9702 92.8712 63.9073 93.7242 64.2137L99.6593 66.3674C100.077 66.5206 100.521 66.5026 100.921 66.3224C101.32 66.1421 101.619 65.8177 101.765 65.4122V65.4032C101.914 64.9969 101.894 64.5484 101.711 64.1564C101.527 63.7644 101.194 63.4609 100.785 63.3126L94.8495 61.1589C94.668 61.0868 94.4775 61.0508 94.2869 61.0508ZM91.8366 97.5824C91.6642 97.5824 91.5009 97.4833 91.4283 97.3211L87.5895 89.1118C87.5385 89.0045 87.532 88.8815 87.5714 88.7694L91.0834 79.2175C91.13 79.1129 91.2147 79.0298 91.3206 78.9849C91.4265 78.94 91.5456 78.9366 91.6539 78.9755C91.7622 79.0144 91.8515 79.0926 91.904 79.1944C91.9564 79.2962 91.968 79.4139 91.9365 79.5239L88.488 88.8956L92.2541 96.9336C92.363 97.1589 92.2632 97.4292 92.0363 97.5284C91.9728 97.5734 91.9002 97.5824 91.8366 97.5824Z" fill="#727E99"/>
<path d="M87.9975 90.9409C89.1202 90.9409 90.0303 90.0371 90.0303 88.9223C90.0303 87.8075 89.1202 86.9038 87.9975 86.9038C86.8748 86.9038 85.9647 87.8075 85.9647 88.9223C85.9647 90.0371 86.8748 90.9409 87.9975 90.9409Z" fill="#727E99"/>
</svg>
