<svg width="111" height="111" viewBox="0 0 111 111" fill="none" xmlns="http://www.w3.org/2000/svg">
<circle cx="55.5" cy="55.5" r="55.5" fill="#81ABDD" fill-opacity="0.28"/>
<g clip-path="url(#clip0_2003_270)">
<path d="M55.2027 27.3828L11.7679 23.9394C11.1741 23.892 10.5768 23.9621 10.0102 24.1456C9.4435 24.3291 8.91855 24.6225 8.46533 25.009C8.01211 25.3955 7.63949 25.8676 7.36879 26.3982C7.09808 26.9287 6.93459 27.5075 6.88766 28.1013L2.70932 80.9085C2.61349 82.1085 2.99802 83.2975 3.77841 84.2141C4.5588 85.1308 5.6712 85.7001 6.87114 85.7969L37.193 88.1999C38.5224 91.313 41.4621 93.4435 44.8395 93.7077L45.8386 93.7903C47.2837 93.9059 48.704 93.6499 50.0005 93.1132L55.2027 27.3828Z" fill="#C7E0FF"/>
<path d="M46.458 94.2281C46.235 94.2281 46.0203 94.2198 45.8056 94.2033L44.8064 94.1208C42.131 93.9061 39.6537 92.5601 38.0187 90.4296C37.8783 90.248 37.9114 89.992 38.093 89.8516C38.2747 89.7112 38.5307 89.7442 38.6711 89.9259C39.4121 90.8902 40.3466 91.6888 41.4146 92.2704C42.4826 92.852 43.6605 93.2039 44.8725 93.3033L45.8717 93.3858C46.0698 93.4023 46.268 93.4106 46.4662 93.4106C46.6974 93.4106 46.8791 93.6005 46.8791 93.8235C46.8708 94.0464 46.6809 94.2281 46.458 94.2281ZM6.87114 86.21H6.83811C5.52515 86.1027 4.32781 85.4916 3.46902 84.4842C2.61023 83.4767 2.19735 82.1968 2.29644 80.8756L3.89841 60.6115C3.91493 60.3803 4.13788 60.2152 4.34432 60.2317C4.57553 60.2482 4.74068 60.4464 4.72417 60.6776L3.11394 80.9417C3.02311 82.0399 3.36993 83.1134 4.08834 83.9474C4.43814 84.3606 4.86637 84.7003 5.34828 84.9469C5.83019 85.1935 6.3562 85.3422 6.89591 85.3842C7.12712 85.4008 7.29228 85.5989 7.27576 85.8302C7.25925 86.0449 7.08584 86.21 6.87114 86.21ZM5.21137 49.7445H5.17834C5.12394 49.7407 5.07085 49.7261 5.02217 49.7015C4.9735 49.6769 4.93021 49.6428 4.89485 49.6013C4.85948 49.5598 4.83274 49.5116 4.8162 49.4597C4.79965 49.4077 4.79363 49.353 4.79849 49.2986L6.48303 28.0684C6.69773 25.3517 9.09243 23.312 11.8092 23.5267C12.0404 23.5433 12.2055 23.7414 12.189 23.9726C12.1725 24.2039 11.9495 24.369 11.7431 24.3525C10.6541 24.2683 9.57604 24.619 8.74497 25.3278C7.9139 26.0366 7.39749 27.0458 7.30879 28.1345L5.61599 49.3647C5.59947 49.5794 5.41781 49.7445 5.21137 49.7445Z" fill="#727E99"/>
<path d="M100.735 35.5413L96.5481 88.3485C96.4537 89.5486 95.8866 90.662 94.9714 91.444C94.0562 92.226 92.868 92.6125 91.6679 92.5186L61.3461 90.1157C60.446 91.5442 59.1826 92.6673 57.7293 93.4022C56.2759 94.1371 54.6161 94.4839 52.9316 94.3518L51.9324 94.2692C48.5551 94.005 45.6154 91.8745 44.2859 88.7614L13.9641 86.3585C12.7642 86.2616 11.6518 85.6923 10.8714 84.7756C10.091 83.859 9.70645 82.67 9.80228 81.47L13.9889 28.6628C14.0358 28.069 14.1993 27.4903 14.47 26.9597C14.7407 26.4291 15.1133 25.9571 15.5665 25.5706C16.0198 25.1841 16.5447 24.8907 17.1114 24.7071C17.6781 24.5236 18.2753 24.4535 18.8691 24.501L96.5729 30.6529C99.0584 30.8593 100.933 33.0393 100.735 35.5413Z" fill="#C7E0FF"/>
<path d="M19.1501 24.5257L18.8611 24.501C18.2674 24.4535 17.6701 24.5236 17.1034 24.7071C16.5368 24.8907 16.0118 25.1841 15.5586 25.5706C15.1054 25.9571 14.7327 26.4291 14.462 26.9597C14.1913 27.4903 14.0278 28.069 13.9809 28.6628L9.79432 81.47C9.69848 82.67 10.083 83.859 10.8634 84.7756C11.6438 85.6923 12.7562 86.2616 13.9561 86.3585L14.2452 86.3832L19.1501 24.5257ZM96.2842 30.6363L96.5732 30.6611C99.067 30.8593 100.933 33.0393 100.735 35.5413L96.5484 88.3485C96.454 89.5486 95.8869 90.662 94.9717 91.444C94.0565 92.226 92.8683 92.6125 91.6682 92.5186L91.3792 92.4939L96.2842 30.6363Z" fill="#81ABDD"/>
<path d="M53.6416 94.7896C53.3938 94.7896 53.1461 94.7813 52.8984 94.7566L51.8992 94.674C48.4475 94.4015 45.4501 92.2875 44.005 89.1497L13.9309 86.7632C12.6179 86.6559 11.4206 86.0448 10.5618 85.0374C9.703 84.03 9.29012 82.75 9.38922 81.4288L13.5758 28.6216C13.7905 25.9049 16.1852 23.8653 18.9019 24.08L96.6057 30.2401C99.3225 30.4548 101.362 32.8413 101.147 35.5663L96.9608 88.3734C96.7461 91.0984 94.3432 93.1463 91.6347 92.9234L61.5606 90.5369C60.6434 91.9105 59.3859 93.0228 57.9107 93.7656C56.5813 94.4428 55.1197 94.7896 53.6416 94.7896ZM18.5056 24.9057C17.4692 24.9067 16.4712 25.2982 15.7106 26.0022C14.95 26.7062 14.4826 27.671 14.4016 28.7042L10.215 81.5114C10.1241 82.6097 10.471 83.6831 11.1894 84.5172C11.5392 84.9303 11.9674 85.27 12.4493 85.5166C12.9312 85.7633 13.4572 85.9119 13.9969 85.954L44.3188 88.3569C44.4757 88.3652 44.6078 88.4643 44.6656 88.6047C45.9372 91.5939 48.7366 93.6087 51.9653 93.8647L52.9644 93.9473C54.5499 94.0712 56.1271 93.7574 57.5474 93.0472C58.9594 92.3371 60.1568 91.2471 60.9991 89.9094C61.0816 89.7772 61.2303 89.7112 61.3789 89.7194L91.7007 92.1224C93.9881 92.2875 95.9534 90.603 96.135 88.3322L100.322 35.525C100.503 33.2624 98.8022 31.2723 96.5397 31.0906L18.8359 24.9305C18.7203 24.9057 18.6129 24.9057 18.5056 24.9057Z" fill="#727E99"/>
<path d="M93.9971 26.9784L89.7197 80.9746C89.7004 81.2198 89.633 81.4587 89.5212 81.6778C89.4095 81.8969 89.2556 82.0917 89.0685 82.2513C88.8813 82.4108 88.6646 82.5319 88.4306 82.6075C88.1966 82.6832 87.95 82.712 87.7049 82.6922L60.6365 80.5452C56.7224 80.2315 53.2955 83.1546 52.99 87.0687L57.5647 29.34C57.8785 25.4259 61.2971 22.5027 65.2112 22.8165L92.2796 24.9635C93.3118 25.0461 94.0797 25.9462 93.9971 26.9784Z" fill="white"/>
<path d="M74.0436 66.676L74.0436 66.676C74.4483 66.4164 74.5442 65.9078 74.2864 65.5357L74.0436 66.676ZM74.0436 66.676L69.6156 69.5158L69.6156 69.5158M74.0436 66.676L69.6156 69.5158M73.0484 65.3025L73.0484 65.3025L68.6204 68.1423C68.2165 68.4013 68.1192 68.9098 68.3776 69.2826L73.0484 65.3025ZM73.0484 65.3025C73.4631 65.0365 74.0194 65.1506 74.2864 65.5356L73.0484 65.3025ZM69.6156 69.5158C69.2008 69.7818 68.6445 69.6677 68.3776 69.2826L69.6156 69.5158ZM79.3577 59.7208L78.8577 59.7208L78.8577 60.2208L78.8577 61.7295C78.8577 62.1704 78.4805 62.5606 77.974 62.5606C77.4675 62.5606 77.0902 62.1704 77.0902 61.7295L77.0902 60.2208L77.0902 59.7208L76.5902 59.7208L75.022 59.7208C74.5155 59.7208 74.1382 59.3306 74.1382 58.8897C74.1382 58.4487 74.5155 58.0585 75.022 58.0585L76.5902 58.0585L77.0902 58.0585L77.0902 57.5585L77.0902 56.0498C77.0902 55.6089 77.4675 55.2187 77.974 55.2187C78.4805 55.2187 78.8577 55.6089 78.8577 56.0498L78.8577 57.5585L78.8577 58.0585L79.3577 58.0585L80.926 58.0585C81.4325 58.0585 81.8097 58.4487 81.8097 58.8897C81.8097 59.3306 81.4325 59.7208 80.926 59.7208L79.3577 59.7208ZM81.5579 45.9813L81.5578 45.9814C81.211 46.3151 80.641 46.3151 80.2942 45.9815L78.6896 44.4378L78.343 44.1044L77.9963 44.4378L76.3917 45.9815C76.0449 46.3151 75.475 46.3151 75.1281 45.9815C74.7922 45.6583 74.7922 45.1427 75.1281 44.8196L75.1281 44.8196L76.7327 43.276L77.1073 42.9156L76.7327 42.5553L75.1281 41.0117C74.7922 40.6885 74.7922 40.1729 75.1281 39.8498L75.1281 39.8498C75.475 39.5162 76.0449 39.5162 76.3917 39.8498L77.9963 41.3934L78.343 41.7269L78.6896 41.3934L80.2942 39.8498C80.641 39.5162 81.211 39.5162 81.5578 39.8498L81.5579 39.8498C81.8938 40.173 81.8938 40.6886 81.5579 41.0116L81.5578 41.0117L79.9532 42.5553L79.5787 42.9156L79.9532 43.276L81.5578 44.8195L81.5579 44.8195C81.8938 45.1427 81.8938 45.6583 81.5579 45.9813ZM69.0119 55.9207L69.0118 55.9208C68.665 56.2544 68.0951 56.2544 67.7482 55.9208L61.752 50.1524C61.416 49.8292 61.4161 49.3136 61.752 48.9905L61.752 48.9905C62.0988 48.6568 62.6688 48.6568 63.0156 48.9905L69.0118 54.7589L69.0119 54.7589C69.3478 55.082 69.3478 55.5976 69.0119 55.9207ZM84.7929 69.6433L84.7929 69.6433L84.1731 69.7626C82.3402 70.1153 80.6694 70.9747 79.3439 72.2498L79.3438 72.2498C78.997 72.5834 78.427 72.5834 78.0802 72.2498C77.7443 71.9266 77.7443 71.411 78.0802 71.0879L78.0802 71.0879C79.6514 69.5764 81.6351 68.5542 83.8193 68.134L83.8193 68.134L84.439 68.0147C84.4391 68.0147 84.4391 68.0147 84.4391 68.0147C85.0086 67.9051 85.5 68.325 85.5 68.8305C85.5 69.2037 85.2239 69.5604 84.7929 69.6433ZM78.0801 32.7503L78.0801 32.7502C78.427 32.4166 78.9969 32.4166 79.3437 32.7502C80.6694 34.0255 82.3402 34.8848 84.1731 35.2374L84.7929 35.3567L84.8805 34.9014L84.7929 35.3567C85.2238 35.4396 85.5 35.7963 85.5 36.1696C85.5 36.6749 85.0087 37.095 84.439 36.9854L83.8192 36.8661C81.6351 36.4458 79.6514 35.4238 78.0801 33.9121L77.7335 34.2724L78.0801 33.9121C77.7442 33.5889 77.7442 33.0733 78.0801 32.7503ZM70.4878 39.1399L70.4879 39.14C70.8237 39.463 70.8237 39.9787 70.4878 40.3018C70.141 40.6354 69.5711 40.6354 69.2242 40.3018L67.7482 38.8819C67.4123 38.5587 67.4123 38.0431 67.7482 37.72L67.7482 37.72C68.0951 37.3864 68.665 37.3864 69.0118 37.72L70.4878 39.1399ZM62.3837 55.2169C62.8902 55.2169 63.2675 55.6071 63.2675 56.0481C63.2675 56.4892 62.89 56.8797 62.3837 56.8797C61.8811 56.8797 61.5 56.4939 61.5 56.0481C61.5 55.6071 61.8773 55.2169 62.3837 55.2169ZM69.118 49.7801C68.6113 49.7801 68.2342 49.3901 68.2342 48.9494C68.2342 48.504 68.6149 48.1173 69.118 48.1173C69.6245 48.1173 70.0017 48.5075 70.0017 48.9485C70.0017 49.3896 69.6243 49.7801 69.118 49.7801Z" fill="#727E99" stroke="white"/>
<path d="M57.5731 29.3482L52.9984 87.0769C53.0732 86.1469 52.964 85.2113 52.6771 84.3235C52.3901 83.4357 51.9309 82.6133 51.3258 81.9031C50.7207 81.1929 49.9815 80.609 49.1506 80.1847C48.3196 79.7604 47.4132 79.5041 46.4831 79.4304L19.4148 77.2834C19.1696 77.2641 18.9307 77.1966 18.7116 77.0849C18.4926 76.9732 18.2977 76.8193 18.1382 76.6322C17.9786 76.445 17.8576 76.2282 17.7819 75.9943C17.7062 75.7603 17.6775 75.5137 17.6972 75.2685L21.9746 21.2722C22.0572 20.24 22.9573 19.4721 23.9895 19.5547L51.0578 21.7016C54.9719 22.0072 57.8868 25.4341 57.5731 29.3482Z" fill="white"/>
<path d="M46.2235 59.7142C46.1571 59.6416 46.0657 59.5967 45.9677 59.5885C45.8696 59.5804 45.7721 59.6095 45.6945 59.6701C45.617 59.7307 45.5652 59.8183 45.5495 59.9155C45.5337 60.0126 45.5552 60.1121 45.6097 60.1941L47.0695 62.0637L39.5221 61.1392C41.6467 60.4743 43.6715 59.0001 45.4261 56.7921C48.1958 53.3188 50.1092 48.223 50.8168 42.4462C50.8294 42.3433 50.8007 42.2396 50.7368 42.158C50.673 42.0764 50.5794 42.0234 50.4765 42.0108C50.3736 41.9982 50.27 42.027 50.1883 42.0908C50.1067 42.1546 50.0538 42.2483 50.0412 42.3511C48.6872 53.4045 42.8521 61.2066 36.3724 60.7415L38.6791 41.91L40.1411 43.7779C40.2075 43.8505 40.2989 43.8954 40.3969 43.9036C40.495 43.9118 40.5925 43.8827 40.6701 43.8221C40.7476 43.7615 40.7994 43.6738 40.8151 43.5767C40.8309 43.4795 40.8094 43.38 40.7549 43.2981L38.7129 40.686C38.6491 40.6048 38.5558 40.5523 38.4533 40.5397C38.3509 40.5272 38.2476 40.5557 38.1661 40.619L35.554 42.661C35.4814 42.7274 35.4365 42.8188 35.4283 42.9168C35.4201 43.0149 35.4492 43.1124 35.5098 43.19C35.5704 43.2675 35.6581 43.3193 35.7552 43.335C35.8524 43.3508 35.9519 43.3293 36.0339 43.2748L37.9034 41.815L35.5967 60.6465C29.1963 59.5338 25.4169 50.5541 26.7708 39.5007C26.7834 39.3978 26.7547 39.2942 26.6908 39.2125C26.627 39.1309 26.5334 39.0779 26.4305 39.0653C26.3277 39.0527 26.224 39.0815 26.1424 39.1453C26.0607 39.2092 26.0078 39.3028 25.9952 39.4057C25.2875 45.1825 25.9145 50.5894 27.7639 54.6286C28.9337 57.1948 30.5428 59.1142 32.4441 60.2722L23.9601 59.2329C23.8573 59.2203 23.7536 59.2491 23.672 59.3129C23.5903 59.3768 23.5374 59.4704 23.5248 59.5733C23.5122 59.6761 23.5409 59.7798 23.6048 59.8614C23.6686 59.9431 23.7622 59.996 23.8651 60.0086L35.5003 61.4338L35.0727 64.9244C35.0601 65.0273 35.0889 65.1309 35.1527 65.2125C35.2165 65.2942 35.3102 65.3471 35.413 65.3597C35.5159 65.3723 35.6195 65.3436 35.7012 65.2797C35.7828 65.2159 35.8358 65.1223 35.8484 65.0194L36.2759 61.5289L46.9745 62.8394L45.1066 64.3013C45.0617 64.3311 45.0235 64.3699 44.9943 64.4151C44.9652 64.4604 44.9457 64.5112 44.9371 64.5644C44.9285 64.6175 44.9309 64.6719 44.9443 64.724C44.9577 64.7762 44.9818 64.825 45.0149 64.8674C45.0481 64.9099 45.0897 64.945 45.1371 64.9706C45.1844 64.9962 45.2366 65.0117 45.2903 65.0162C45.3439 65.0207 45.3979 65.014 45.4489 64.9966C45.4999 64.9792 45.5467 64.9515 45.5865 64.9152L48.1985 62.8732C48.2797 62.8094 48.3323 62.716 48.3448 62.6136C48.3574 62.5111 48.3289 62.4078 48.2655 62.3263L46.2235 59.7142Z" fill="#727E99"/>
<path d="M32.8193 41.5425L32.6912 42.5878C32.6786 42.6906 32.7074 42.7943 32.7712 42.8759C32.8351 42.9576 32.9287 43.0105 33.0316 43.0231C33.1344 43.0357 33.2381 43.0069 33.3197 42.9431C33.4014 42.8793 33.4543 42.7856 33.4669 42.6828L33.5949 41.6376L34.4353 40.6579C34.4962 40.5788 34.5245 40.4793 34.5144 40.3799C34.5042 40.2806 34.4564 40.1889 34.3807 40.1237C34.3051 40.0585 34.2073 40.0247 34.1075 40.0294C34.0078 40.034 33.9135 40.0767 33.8443 40.1486L33.3073 40.7717L32.9367 40.0374C32.9154 39.9887 32.8844 39.9449 32.8456 39.9086C32.8068 39.8723 32.761 39.8443 32.7111 39.8263C32.6611 39.8083 32.6079 39.8006 32.5549 39.8039C32.5018 39.8071 32.45 39.8211 32.4026 39.8451C32.3551 39.869 32.3131 39.9024 32.279 39.9432C32.2449 39.9839 32.2195 40.0312 32.2043 40.0821C32.1891 40.133 32.1844 40.1865 32.1906 40.2393C32.1968 40.2921 32.2136 40.343 32.2402 40.3891L32.8193 41.5425ZM43.3692 63.2519C43.2907 63.1845 43.1888 63.151 43.0856 63.1586C42.9825 63.1663 42.8866 63.2145 42.819 63.2928L42.2821 63.9159L41.9114 63.1816C41.8615 63.0951 41.7804 63.0309 41.6847 63.0024C41.589 62.9738 41.486 62.9829 41.3968 63.028C41.3077 63.073 41.2391 63.1504 41.2053 63.2444C41.1715 63.3384 41.1749 63.4417 41.2149 63.5332L41.7309 64.5589L40.9826 65.4298C40.9457 65.468 40.917 65.5134 40.8983 65.5632C40.8796 65.6129 40.8712 65.6659 40.8737 65.719C40.8761 65.7721 40.8894 65.8241 40.9126 65.8719C40.9359 65.9196 40.9686 65.9622 41.0089 65.9969C41.0491 66.0315 41.0961 66.0577 41.1467 66.0736C41.1974 66.0895 41.2508 66.095 41.3037 66.0896C41.3566 66.0842 41.4078 66.068 41.4542 66.0422C41.5006 66.0163 41.5413 65.9812 41.5737 65.9391L42.1108 65.3141L42.4812 66.0503C42.5025 66.099 42.5335 66.1428 42.5723 66.1791C42.6111 66.2154 42.6569 66.2435 42.7069 66.2615C42.7568 66.2795 42.81 66.2871 42.863 66.2838C42.9161 66.2806 42.9679 66.2666 43.0153 66.2426C43.0628 66.2187 43.1048 66.1853 43.1389 66.1446C43.173 66.1038 43.1984 66.0565 43.2136 66.0056C43.2288 65.9547 43.2335 65.9012 43.2273 65.8484C43.2212 65.7957 43.2043 65.7447 43.1777 65.6987L42.6617 64.673L43.4101 63.8021C43.4774 63.7237 43.511 63.6217 43.5033 63.5186C43.4957 63.4154 43.4474 63.3195 43.3692 63.2519Z" fill="#727E99"/>
<path d="M55.1697 23.4357L50.595 81.1644C52.2217 82.593 53.1879 84.74 52.998 87.0686L57.5727 29.3399C57.6592 28.2366 57.4871 27.1284 57.0699 26.1034C56.6528 25.0784 56.0021 24.165 55.1697 23.4357ZM24.8974 19.629L23.9973 19.5547C22.9651 19.4721 22.0651 20.24 21.9825 21.2722L17.7051 75.2685C17.6225 76.3007 18.3905 77.2008 19.4226 77.2834L20.3227 77.3577L24.8974 19.629ZM60.8839 23.8899L56.3092 81.6186C54.4761 82.7747 53.1879 84.74 53.0062 87.0686L57.5809 29.3399C57.7626 27.0195 59.0508 25.046 60.8839 23.8899ZM91.3792 24.8973L92.2792 24.9716C93.3114 25.0542 94.0794 25.9543 93.9968 26.9865L89.7194 80.9828C89.7001 81.2279 89.6327 81.4669 89.5209 81.6859C89.4092 81.905 89.2553 82.0999 89.0682 82.2594C88.881 82.4189 88.6643 82.54 88.4303 82.6157C88.1963 82.6913 87.9497 82.7201 87.7045 82.7004L86.8045 82.626L91.3792 24.8973Z" fill="#EDEDED"/>
<path d="M52.9983 87.4815H52.9652C52.9108 87.4777 52.8577 87.463 52.8091 87.4384C52.7604 87.4138 52.7171 87.3798 52.6817 87.3383C52.6464 87.2968 52.6196 87.2486 52.6031 87.1967C52.5865 87.1447 52.5805 87.0899 52.5854 87.0356V87.0274L57.1601 29.3152C57.317 27.3086 58.2501 25.4919 59.7777 24.1872C61.3054 22.8825 63.2542 22.2549 65.2525 22.4118L92.3208 24.5588C92.9319 24.6083 93.4852 24.8891 93.8815 25.3515C94.2779 25.8139 94.4678 26.4085 94.4183 27.0113L90.1408 81.0076C90.0909 81.6098 89.8052 82.168 89.346 82.5607C88.8867 82.9535 88.291 83.1491 87.6883 83.105L60.62 80.958C58.8364 80.8177 57.1105 81.3792 55.748 82.5352C54.3855 83.6913 53.5598 85.3098 53.4194 87.0934V87.1017C53.3946 87.3164 53.213 87.4815 52.9983 87.4815ZM64.6497 23.2128C63.0643 23.2128 61.5366 23.7743 60.3145 24.8148C59.6435 25.384 59.0922 26.0808 58.6925 26.8646C58.2928 27.6485 58.0526 28.5039 57.9858 29.3812L53.6836 83.683C54.0883 83.0307 54.6002 82.4279 55.203 81.9159C55.9531 81.2731 56.8231 80.7852 57.7628 80.4805C58.7025 80.1758 59.6932 80.0602 60.6778 80.1405L87.7461 82.2875C88.5719 82.3453 89.249 81.7508 89.3151 80.9498L93.5925 26.9535C93.6255 26.5654 93.5017 26.1855 93.2457 25.8883C92.9897 25.591 92.6429 25.4093 92.2548 25.3846L65.1864 23.2376C65.0048 23.2211 64.8231 23.2128 64.6497 23.2128Z" fill="#727E99"/>
<path d="M52.9976 87.4815H52.9646C52.9102 87.4777 52.8571 87.463 52.8084 87.4385C52.7597 87.4139 52.7164 87.3798 52.6811 87.3383C52.6457 87.2968 52.619 87.2486 52.6024 87.1967C52.5859 87.1447 52.5799 87.09 52.5847 87.0356C52.7251 85.252 52.1636 83.5179 51.0075 82.1637C50.4405 81.4922 49.7454 80.9404 48.9628 80.5406C48.1802 80.1407 47.3257 79.9009 46.4493 79.835L19.381 77.6881C18.7783 77.6394 18.2193 77.3541 17.8263 76.8945C17.4333 76.435 17.2382 75.8385 17.2836 75.2356L18.8938 54.9054C18.9103 54.6742 19.1333 54.509 19.3397 54.5256C19.5709 54.5421 19.7361 54.7403 19.7196 54.9715L18.1093 75.3016C18.0433 76.1026 18.6461 76.8045 19.4471 76.8706L46.5154 79.0175C47.8939 79.1284 49.2151 79.6172 50.3339 80.4301C51.4527 81.2429 52.3258 82.3485 52.8572 83.6253L57.1594 29.3152C57.2998 27.5315 56.7383 25.7975 55.5822 24.4432C55.0152 23.7717 54.3201 23.2199 53.5375 22.8201C52.7549 22.4203 51.9004 22.1804 51.024 22.1146L23.9557 19.9676C23.1299 19.9181 22.4528 20.5043 22.3868 21.3053L20.2398 48.481C20.2233 48.7122 20.0086 48.8774 19.7939 48.8609C19.7395 48.857 19.6864 48.8424 19.6377 48.8178C19.589 48.7932 19.5458 48.7591 19.5104 48.7176C19.475 48.6761 19.4483 48.628 19.4317 48.576C19.4152 48.524 19.4092 48.4693 19.414 48.415L21.5693 21.2393C21.6683 19.9841 22.7914 19.051 24.0218 19.1418L51.0901 21.2888C53.0884 21.4457 54.9133 22.3788 56.2098 23.9065C57.5062 25.4341 58.1421 27.3747 57.9769 29.3812L53.4022 87.1017V87.1099C53.394 87.3164 53.2123 87.4815 52.9976 87.4815Z" fill="#727E99"/>
<path d="M102.912 99.1504L102.912 99.1504C103.134 99.0672 103.38 99.0753 103.596 99.1729C103.813 99.2704 103.982 99.4496 104.066 99.6712C104.151 99.8929 104.145 100.139 104.049 100.356C103.953 100.573 103.775 100.743 103.554 100.83L103.551 100.831L103.551 100.831L101.713 101.534C101.712 101.534 101.712 101.534 101.712 101.534L101.712 101.534L101.533 101.067C101.476 101.089 101.414 101.098 101.352 101.092L102.912 99.1504ZM102.912 99.1504L102.908 99.1517L101.07 99.8547L102.912 99.1504Z" fill="#B6ABDE" stroke="#727E99" stroke-linejoin="round"/>
<path d="M101.552 106.981C101.685 107.083 101.844 107.145 102.011 107.161L101.257 106.587C101.317 106.743 101.419 106.88 101.552 106.981ZM100.481 104.554L101.257 106.587L100.999 103.394C100.889 103.436 100.788 103.499 100.702 103.58C100.617 103.661 100.548 103.759 100.5 103.866C100.451 103.974 100.425 104.09 100.422 104.209C100.418 104.327 100.438 104.444 100.481 104.554C100.481 104.554 100.481 104.554 100.481 104.554ZM101.345 103.335C101.227 103.331 101.11 103.351 100.999 103.394L102.16 103.912C102.118 103.802 102.054 103.701 101.973 103.616C101.892 103.53 101.795 103.461 101.687 103.413C101.579 103.364 101.463 103.338 101.345 103.335ZM102.937 105.945L102.16 103.912L102.418 107.106C102.528 107.064 102.629 107 102.715 106.919C102.801 106.838 102.87 106.741 102.918 106.633C102.966 106.525 102.992 106.409 102.996 106.291C102.999 106.173 102.979 106.056 102.937 105.945C102.937 105.945 102.937 105.945 102.937 105.945Z" fill="#88B9D4" stroke="#727E99" stroke-linejoin="round"/>
<path d="M103.151 94.9113L103.151 94.9112C103.217 94.2311 102.72 93.6262 102.04 93.5599L85.8427 91.9823C85.1626 91.916 84.5577 92.4136 84.4914 93.0936C84.4252 93.7737 84.9228 94.3787 85.6028 94.4449L101.8 96.0226C102.48 96.0888 103.085 95.5912 103.151 94.9113Z" fill="#C7E0FF" stroke="#727E99" stroke-linejoin="round"/>
<path d="M93.3354 84.5071C93.2115 84.5545 93.1115 84.6491 93.0574 84.7702C93.0033 84.8913 92.9995 85.0289 93.0469 85.1527L100.511 104.674C100.511 104.674 100.511 104.674 100.511 104.674C100.747 105.291 101.553 105.419 101.974 104.923C102.362 104.466 102.805 103.661 102.572 102.554L102.569 102.538C102.541 102.425 102.502 102.232 102.447 101.966C102.138 100.444 101.343 96.5407 99.474 91.6527L96.4858 83.8378C96.3872 83.5799 96.0981 83.4507 95.8402 83.5494L93.3354 84.5071Z" fill="#FA8D8D" stroke="#727E99" stroke-linejoin="round"/>
<path d="M102.772 97.7763L102.772 97.7763C102.071 98.0445 101.72 98.8304 101.988 99.5318C101.988 99.5318 101.988 99.5318 101.988 99.5318L102.579 101.077L102.579 101.077C102.847 101.778 103.633 102.129 104.334 101.861C105.035 101.593 105.386 100.807 105.118 100.105L104.528 98.5606L104.528 98.5606C104.259 97.8593 103.473 97.5082 102.772 97.7763Z" fill="#FA8D8D" stroke="#727E99" stroke-linejoin="round"/>
<path d="M82.3475 105.246L82.3476 105.246C82.514 105.262 82.6818 105.232 82.8319 105.158C82.982 105.084 83.1085 104.97 83.1973 104.828C83.1973 104.828 83.1973 104.828 83.1973 104.828L85.0935 101.8L85.0935 101.8L85.0954 101.797C85.2199 101.595 85.2595 101.352 85.2055 101.121C85.1515 100.889 85.0083 100.689 84.8072 100.563C84.6061 100.437 84.3633 100.396 84.1318 100.448C83.9004 100.501 83.699 100.642 83.5716 100.842L83.5716 100.842L83.5697 100.846L81.6735 103.874C81.6735 103.874 81.6735 103.874 81.6735 103.874C81.5922 104.004 81.5454 104.152 81.5376 104.305C81.5297 104.458 81.561 104.61 81.6285 104.747C81.696 104.885 81.7974 105.003 81.9233 105.09C82.0491 105.177 82.1951 105.231 82.3475 105.246Z" fill="#81ABDD" stroke="#727E99" stroke-linejoin="round"/>
<path d="M84.5817 99.4155C84.4693 99.3451 84.3335 99.3222 84.2043 99.3519C84.0751 99.3817 83.9629 99.4615 83.8925 99.5739L82.6342 101.584L82.6342 101.584C82.2525 102.193 82.4372 102.997 83.0468 103.379L83.0469 103.379C83.6566 103.76 84.4602 103.576 84.842 102.966L84.842 102.966L86.1004 100.956C86.2469 100.722 86.176 100.414 85.942 100.267L84.5817 99.4155Z" fill="#FA8D8D" stroke="#727E99" stroke-linejoin="round"/>
<path d="M93.3166 83.529C93.4632 83.2949 93.7717 83.224 94.0058 83.3705L96.2787 84.7937C96.3911 84.864 96.4709 84.9762 96.5006 85.1054C96.5303 85.2347 96.5075 85.3704 96.4371 85.4828L86.1717 101.877C85.8696 102.36 85.2418 102.492 84.774 102.199L93.3166 83.529ZM93.3166 83.529L83.0513 99.9233C82.9806 100.036 82.9328 100.162 82.9106 100.293C82.8885 100.425 82.8925 100.559 82.9223 100.689C82.9522 100.819 83.0074 100.941 83.0847 101.05C83.1619 101.158 83.2598 101.251 83.3726 101.321C83.3727 101.321 83.3728 101.321 83.3729 101.321L84.7739 102.199L93.3166 83.529Z" fill="#FA8D8D" stroke="#727E99" stroke-linejoin="round"/>
<path d="M96.0956 85.5346C96.3705 85.5613 96.615 85.3602 96.6417 85.0854L97.1352 80.0203L97.1352 80.0203C97.2045 79.308 96.6834 78.6745 95.9712 78.6051L94.6831 78.4796C93.9709 78.4103 93.3374 78.9314 93.268 79.6436L92.7746 84.7087C92.7478 84.9835 92.9489 85.2281 93.2238 85.2548L96.0956 85.5346Z" fill="#C7E0FF" stroke="#727E99" stroke-linejoin="round"/>
<path d="M94.3609 88.4672C96.3325 88.6592 98.0865 87.2166 98.2786 85.2449C98.4706 83.2733 97.028 81.5193 95.0563 81.3273C93.0847 81.1352 91.3307 82.5778 91.1386 84.5495C90.9466 86.5211 92.3892 88.2751 94.3609 88.4672Z" fill="#81ABDD" stroke="#727E99" stroke-linejoin="round"/>
<path d="M95.0076 81.8247C94.6872 81.7935 94.3735 81.8126 94.0742 81.8753C95.2836 82.3877 96.0753 83.6407 95.9412 85.0171C95.8072 86.3935 94.7886 87.4702 93.503 87.7396C93.7916 87.8617 94.0971 87.9392 94.4091 87.9693C96.1059 88.1346 97.6154 86.893 97.7806 85.1963C97.9459 83.4995 96.7044 81.99 95.0076 81.8247Z" fill="#81ABDD"/>
<path d="M94.5589 86.428C95.4044 86.5104 96.1566 85.8917 96.2389 85.0462C96.3213 84.2007 95.7026 83.4485 94.8571 83.3662C94.0116 83.2838 93.2595 83.9025 93.1771 84.748C93.0947 85.5935 93.7134 86.3457 94.5589 86.428Z" fill="#C7EEFB" stroke="#727E99" stroke-linejoin="round"/>
<path d="M17.1349 67.7922L17.1349 67.7922C17.1701 67.7024 17.2942 67.6946 17.3403 67.7794L17.3403 67.7794L28.6638 88.5872C28.6938 88.6422 28.6734 88.7112 28.6183 88.7412L28.3862 88.8675L28.0727 88.7874L27.6818 88.6874L27.5015 89.0484L27.2955 89.4611L26.9576 89.645L26.498 89.6519L26.187 89.6565L26.0537 89.9376L25.9263 90.2062L25.6191 90.3734L25.2382 90.3376L24.9034 90.3061L24.748 90.6044L24.5712 90.9437L24.2443 91.1215L23.8651 91.1028L23.5604 91.0877L23.4076 91.3517L23.2175 91.6803L22.8965 91.855L22.5894 91.8185L22.2821 91.782L22.1124 92.0407L21.8664 92.4156L21.5491 92.5883L21.2608 92.5337L20.9231 92.4698L20.7425 92.7622L20.4958 93.1615L20.1818 93.3323L19.7949 93.264L19.4023 93.1948L19.2473 93.562L19.0945 93.924L18.7979 94.0854L18.417 94.0496L18.0822 94.0182L17.9268 94.3164L17.75 94.6557L17.4534 94.8171L17.0664 94.7489L16.6739 94.6796L16.5189 95.0468L16.3661 95.4088L16.0433 95.5845L15.5807 95.5924L15.2692 95.5978L15.1367 95.8797L15.0116 96.1459L14.7249 96.302L14.3379 96.2337L13.9454 96.1644L13.7904 96.5316L13.6376 96.8937L13.3607 97.0444L12.9737 96.9761L12.5812 96.9068L12.4262 97.274L12.2734 97.6361L11.9768 97.7975L11.5958 97.7617L11.261 97.7302L11.1056 98.0285L10.9288 98.3678L10.6555 98.5165L10.3574 98.4347L9.96598 98.3274L9.78045 98.6884L9.56325 99.1109L9.28314 99.2633L8.95585 99.1849L8.56508 99.0912L8.38953 99.4527L8.19353 99.8563L7.94501 99.9916L7.70387 99.9071L7.30931 99.7689L7.10342 100.133L6.84437 100.591L6.53951 100.756L6.15253 100.688L5.76001 100.619L5.60501 100.986L5.4522 101.348L3.85041 102.22C3.81972 102.237 3.79811 102.237 3.7825 102.235C3.76359 102.232 3.74127 102.223 3.72097 102.205C3.70066 102.187 3.68861 102.166 3.68361 102.148C3.67949 102.133 3.6776 102.111 3.69036 102.079L3.22487 101.896L3.69036 102.079L17.1349 67.7922ZM21.6249 87.3983C22.1547 87.11 22.3504 86.4468 22.0622 85.9171L19.0113 80.3108C18.5677 79.4958 17.374 79.5701 17.0353 80.4341L13.413 89.672C13.4129 89.672 13.4129 89.672 13.4129 89.672C13.0408 90.6209 14.0563 91.5171 14.9516 91.0299L21.6249 87.3983Z" fill="#FCDCB5" stroke="#727E99"/>
<path d="M28.0727 88.787L27.6818 88.6871L27.5015 89.0481L27.2957 89.4603L27.2775 89.4702C27.263 89.4357 27.2467 89.4015 27.2283 89.3679L16.4445 69.5518L17.1346 67.7918C17.1698 67.7021 17.2941 67.6942 17.3404 67.7791C17.3404 67.7791 17.3404 67.7791 17.3404 67.7792L28.6638 88.5867C28.6937 88.6416 28.6734 88.7106 28.6184 88.7405L28.3858 88.8671L28.0727 88.787Z" fill="#FCC583" stroke="#727E99"/>
<path d="M13.3759 81.1917L10.9182 87.4597C10.8781 87.562 10.8803 87.6761 10.9243 87.7768C10.9683 87.8775 11.0505 87.9567 11.1528 87.9968L11.9081 88.293C12.0104 88.3331 12.1245 88.3309 12.2252 88.287C12.326 88.243 12.4051 88.1608 12.4452 88.0584L14.9029 81.7905C14.943 81.6882 14.9409 81.5741 14.8969 81.4734C14.8529 81.3726 14.7707 81.2935 14.6684 81.2534L13.913 80.9572C13.8107 80.9171 13.6966 80.9193 13.5959 80.9633C13.4952 81.0072 13.416 81.0894 13.3759 81.1917Z" fill="#727E99"/>
<path d="M27.3852 88.3685C27.334 88.3964 27.2887 88.4341 27.2521 88.4794C27.2154 88.5248 27.188 88.5769 27.1715 88.6329C27.155 88.6888 27.1497 88.7474 27.1558 88.8054C27.162 88.8634 27.1795 88.9196 27.2074 88.9708L27.6721 89.8248L28.4522 89.4003L27.9875 88.5463C27.9596 88.4951 27.9219 88.4499 27.8766 88.4132C27.8312 88.3765 27.7791 88.3492 27.7232 88.3327C27.6672 88.3162 27.6086 88.3108 27.5506 88.317C27.4926 88.3231 27.4364 88.3407 27.3852 88.3685Z" fill="#727E99"/>
<path d="M26.0214 89.1112C25.9702 89.139 25.9249 89.1767 25.8883 89.2221C25.8516 89.2674 25.8243 89.3195 25.8077 89.3755C25.7912 89.4314 25.7859 89.49 25.7921 89.548C25.7982 89.606 25.8157 89.6622 25.8436 89.7134L26.3083 90.5674L27.0884 90.1429L26.6237 89.2889C26.5958 89.2377 26.5581 89.1924 26.5128 89.1558C26.4674 89.1191 26.4153 89.0918 26.3594 89.0753C26.3034 89.0588 26.2448 89.0534 26.1868 89.0596C26.1288 89.0658 26.0726 89.0833 26.0214 89.1112ZM24.374 89.3332C24.3227 89.3611 24.2775 89.3987 24.2409 89.4441C24.2042 89.4894 24.1768 89.5416 24.1603 89.5975C24.1438 89.6534 24.1385 89.7121 24.1446 89.7701C24.1508 89.828 24.1683 89.8843 24.1962 89.9355L24.9441 91.3097L25.7242 90.8852L24.9763 89.5109C24.9484 89.4597 24.9107 89.4145 24.8654 89.3778C24.82 89.3412 24.7679 89.3138 24.712 89.2973C24.656 89.2808 24.5974 89.2755 24.5394 89.2816C24.4814 89.2878 24.4252 89.3053 24.374 89.3332ZM23.2929 90.596C23.2417 90.6238 23.1965 90.6615 23.1598 90.7069C23.1231 90.7522 23.0958 90.8044 23.0793 90.8603C23.0628 90.9162 23.0574 90.9748 23.0636 91.0328C23.0697 91.0908 23.0873 91.147 23.1151 91.1983L23.5799 92.0522L24.36 91.6277L23.8952 90.7737C23.8674 90.7225 23.8297 90.6773 23.7843 90.6406C23.739 90.604 23.6868 90.5766 23.6309 90.5601C23.575 90.5436 23.5163 90.5383 23.4583 90.5444C23.4004 90.5506 23.3441 90.5681 23.2929 90.596ZM21.9287 91.3384C21.8775 91.3663 21.8322 91.4039 21.7956 91.4493C21.7589 91.4946 21.7316 91.5468 21.715 91.6027C21.6985 91.6586 21.6932 91.7173 21.6994 91.7752C21.7055 91.8332 21.723 91.8894 21.7509 91.9407L22.2156 92.7946L22.9957 92.3701L22.531 91.5161C22.4747 91.4127 22.3796 91.3359 22.2667 91.3025C22.1537 91.2692 22.0321 91.2821 21.9287 91.3384ZM20.2813 91.5604C20.23 91.5883 20.1848 91.626 20.1482 91.6713C20.1115 91.7167 20.0841 91.7688 20.0676 91.8247C20.0511 91.8807 20.0458 91.9393 20.0519 91.9973C20.0581 92.0553 20.0756 92.1115 20.1035 92.1627L20.8514 93.537L21.6315 93.1125L20.8836 91.7382C20.8273 91.6347 20.7322 91.5579 20.6192 91.5246C20.5063 91.4912 20.3847 91.5041 20.2813 91.5604ZM19.2002 92.8232C19.149 92.8511 19.1038 92.8888 19.0671 92.9341C19.0304 92.9795 19.0031 93.0316 18.9866 93.0875C18.9701 93.1434 18.9647 93.2021 18.9709 93.2601C18.977 93.3181 18.9946 93.3743 19.0224 93.4255L19.4872 94.2794L20.2673 93.8549L19.8025 93.001C19.7462 92.8975 19.6512 92.8207 19.5382 92.7873C19.4252 92.754 19.3037 92.7669 19.2002 92.8232ZM17.8359 93.5656C17.7847 93.5935 17.7395 93.6312 17.7028 93.6765C17.6662 93.7219 17.6388 93.774 17.6223 93.83C17.6058 93.8859 17.6005 93.9445 17.6066 94.0025C17.6128 94.0605 17.6303 94.1167 17.6582 94.1679L18.1229 95.0219L18.903 94.5973L18.4383 93.7434C18.4104 93.6922 18.3727 93.6469 18.3273 93.6103C18.282 93.5736 18.2299 93.5463 18.1739 93.5298C18.118 93.5133 18.0594 93.5079 18.0014 93.5141C17.9434 93.5202 17.8872 93.5378 17.8359 93.5656ZM16.1885 93.7877C16.1373 93.8155 16.0921 93.8532 16.0554 93.8986C16.0187 93.9439 15.9914 93.9961 15.9749 94.052C15.9584 94.1079 15.953 94.1666 15.9592 94.2245C15.9653 94.2825 15.9829 94.3387 16.0107 94.39L16.7586 95.7642L17.5387 95.3397L16.7908 93.9654C16.763 93.9142 16.7253 93.869 16.6799 93.8323C16.6346 93.7957 16.5824 93.7683 16.5265 93.7518C16.4706 93.7353 16.4119 93.73 16.3539 93.7361C16.296 93.7423 16.2397 93.7598 16.1885 93.7877ZM15.1075 95.0505C15.0562 95.0783 15.011 95.116 14.9744 95.1614C14.9377 95.2067 14.9103 95.2588 14.8938 95.3148C14.8773 95.3707 14.872 95.4293 14.8781 95.4873C14.8843 95.5453 14.9018 95.6015 14.9297 95.6527L15.3944 96.5067L16.1745 96.0822L15.7098 95.2282C15.6819 95.177 15.6442 95.1318 15.5989 95.0951C15.5535 95.0584 15.5014 95.0311 15.4455 95.0146C15.3895 94.9981 15.3309 94.9927 15.2729 94.9989C15.2149 95.0051 15.1587 95.0226 15.1075 95.0505ZM13.7432 95.7929C13.692 95.8207 13.6468 95.8584 13.6101 95.9038C13.5735 95.9491 13.5461 96.0013 13.5296 96.0572C13.5131 96.1131 13.5078 96.1717 13.5139 96.2297C13.5201 96.2877 13.5376 96.3439 13.5655 96.3951L14.0302 97.2491L14.8103 96.8246L14.3456 95.9706C14.2893 95.8672 14.1942 95.7903 14.0812 95.757C13.9683 95.7237 13.8467 95.7366 13.7432 95.7929ZM12.0958 96.0149C12.0446 96.0428 11.9994 96.0805 11.9627 96.1258C11.926 96.1712 11.8987 96.2233 11.8822 96.2792C11.8657 96.3352 11.8603 96.3938 11.8665 96.4518C11.8726 96.5098 11.8902 96.566 11.918 96.6172L12.6659 97.9915L13.446 97.5669L12.6981 96.1927C12.6418 96.0892 12.5468 96.0124 12.4338 95.979C12.3208 95.9457 12.1993 95.9586 12.0958 96.0149ZM11.0148 97.2777C10.9635 97.3056 10.9183 97.3432 10.8817 97.3886C10.845 97.4339 10.8176 97.4861 10.8011 97.542C10.7846 97.5979 10.7793 97.6566 10.7854 97.7146C10.7916 97.7725 10.8091 97.8287 10.837 97.88L11.3017 98.7339L12.0818 98.3094L11.6171 97.4554C11.5608 97.352 11.4657 97.2752 11.3527 97.2418C11.2398 97.2085 11.1182 97.2214 11.0148 97.2777ZM9.65049 98.0201C9.59926 98.048 9.55403 98.0857 9.51737 98.131C9.48071 98.1764 9.45335 98.2285 9.43684 98.2844C9.42033 98.3404 9.415 98.399 9.42116 98.457C9.42731 98.515 9.44483 98.5712 9.47271 98.6224L9.93743 99.4764L10.7175 99.0518L10.2528 98.1979C10.2249 98.1467 10.1872 98.1014 10.1419 98.0648C10.0965 98.0281 10.0444 98.0008 9.98847 97.9842C9.93254 97.9677 9.8739 97.9624 9.81591 97.9686C9.75792 97.9747 9.70171 97.9922 9.65049 98.0201ZM8.00312 98.2421C7.9519 98.27 7.90666 98.3077 7.87001 98.353C7.83335 98.3984 7.80598 98.4505 7.78947 98.5065C7.77297 98.5624 7.76764 98.621 7.77379 98.679C7.77995 98.737 7.79746 98.7932 7.82535 98.8444L8.57322 100.219L9.35333 99.7942L8.60545 98.4199C8.57757 98.3687 8.53988 98.3234 8.49452 98.2868C8.44917 98.2501 8.39703 98.2228 8.3411 98.2063C8.28517 98.1897 8.22653 98.1844 8.16854 98.1906C8.11055 98.1967 8.05434 98.2143 8.00312 98.2421ZM6.92207 99.5049C6.87085 99.5328 6.82561 99.5705 6.78896 99.6158C6.7523 99.6612 6.72493 99.7133 6.70843 99.7692C6.69192 99.8252 6.68659 99.8838 6.69274 99.9418C6.6989 99.9998 6.71642 100.056 6.7443 100.107L7.20902 100.961L7.98912 100.537L7.5244 99.6827C7.49652 99.6314 7.45883 99.5862 7.41347 99.5496C7.36812 99.5129 7.31598 99.4855 7.26005 99.469C7.20412 99.4525 7.14548 99.4472 7.08749 99.4534C7.0295 99.4595 6.97329 99.477 6.92207 99.5049ZM5.55784 100.247C5.50661 100.275 5.46138 100.313 5.42472 100.358C5.38807 100.404 5.3607 100.456 5.34419 100.512C5.32768 100.568 5.32235 100.626 5.32851 100.684C5.33466 100.742 5.35218 100.798 5.38006 100.85L5.84478 101.704L6.62489 101.279L6.16017 100.425C6.13229 100.374 6.0946 100.329 6.04924 100.292C6.00388 100.255 5.95175 100.228 5.89582 100.211C5.83989 100.195 5.78125 100.19 5.72326 100.196C5.66527 100.202 5.60906 100.219 5.55784 100.247Z" fill="#727E99"/>
<path d="M7.72312 97.7276C7.67191 97.7555 7.6157 97.773 7.55771 97.7791C7.49972 97.7853 7.44109 97.78 7.38516 97.7635C7.32923 97.7469 7.2771 97.7196 7.23175 97.6829C7.1864 97.6463 7.14871 97.601 7.12085 97.5498L6.99815 97.3244C6.94186 97.2209 6.92897 97.0993 6.96231 96.9864C6.99565 96.8734 7.07249 96.7784 7.17593 96.7221C7.27937 96.6658 7.40094 96.6529 7.51389 96.6862C7.62684 96.7196 7.72191 96.7964 7.77821 96.8999L7.9009 97.1253C7.92878 97.1765 7.9463 97.2327 7.95245 97.2907C7.95861 97.3487 7.95328 97.4073 7.93677 97.4633C7.92026 97.5192 7.89289 97.5713 7.85624 97.6167C7.81958 97.662 7.77435 97.6997 7.72312 97.7276ZM11.8158 95.5004C11.7646 95.5282 11.7084 95.5457 11.6504 95.5519C11.5924 95.5581 11.5338 95.5527 11.4779 95.5362C11.4219 95.5197 11.3698 95.4923 11.3244 95.4557C11.2791 95.419 11.2414 95.3738 11.2135 95.3226L11.0909 95.0971C11.0346 94.9937 11.0217 94.8721 11.055 94.7592C11.0883 94.6462 11.1652 94.5511 11.2686 94.4948C11.3721 94.4386 11.4936 94.4257 11.6066 94.459C11.7195 94.4923 11.8146 94.5692 11.8709 94.6726L11.9936 94.8981C12.0499 95.0015 12.0628 95.1231 12.0294 95.236C11.9961 95.349 11.9193 95.4441 11.8158 95.5004ZM15.9085 93.2731C15.8573 93.301 15.8011 93.3185 15.7431 93.3247C15.6851 93.3308 15.6265 93.3255 15.5706 93.309C15.5146 93.2925 15.4625 93.2651 15.4172 93.2285C15.3718 93.1918 15.3341 93.1466 15.3062 93.0953L15.1836 92.8699C15.1273 92.7665 15.1144 92.6449 15.1477 92.5319C15.181 92.419 15.2579 92.3239 15.3613 92.2676C15.4648 92.2113 15.5863 92.1984 15.6993 92.2318C15.8122 92.2651 15.9073 92.3419 15.9636 92.4454L16.0863 92.6708C16.1142 92.7221 16.1317 92.7783 16.1379 92.8363C16.144 92.8942 16.1387 92.9529 16.1222 93.0088C16.1057 93.0647 16.0783 93.1169 16.0416 93.1622C16.005 93.2076 15.9597 93.2453 15.9085 93.2731ZM20.0013 91.0459C19.9501 91.0737 19.8938 91.0913 19.8359 91.0974C19.7779 91.1036 19.7192 91.0982 19.6633 91.0817C19.6074 91.0652 19.5553 91.0379 19.5099 91.0012C19.4645 90.9645 19.4269 90.9193 19.399 90.8681L19.2763 90.6426C19.22 90.5392 19.2071 90.4176 19.2405 90.3047C19.2738 90.1917 19.3506 90.0967 19.4541 90.0404C19.5575 89.9841 19.6791 89.9712 19.792 90.0045C19.905 90.0379 20.0001 90.1147 20.0564 90.2181L20.179 90.4436C20.2353 90.547 20.2482 90.6686 20.2149 90.7815C20.1816 90.8945 20.1047 90.9896 20.0013 91.0459ZM24.094 88.8186C24.0428 88.8465 23.9865 88.864 23.9286 88.8702C23.8706 88.8763 23.8119 88.871 23.756 88.8545C23.7001 88.838 23.648 88.8106 23.6026 88.774C23.5572 88.7373 23.5196 88.6921 23.4917 88.6409L23.369 88.4154C23.3127 88.312 23.2998 88.1904 23.3332 88.0774C23.3665 87.9645 23.4433 87.8694 23.5468 87.8131C23.6502 87.7568 23.7718 87.7439 23.8847 87.7773C23.9977 87.8106 24.0928 87.8875 24.1491 87.9909L24.2717 88.2164C24.2996 88.2676 24.3171 88.3238 24.3233 88.3818C24.3295 88.4398 24.3241 88.4984 24.3076 88.5543C24.2911 88.6103 24.2637 88.6624 24.2271 88.7077C24.1904 88.7531 24.1452 88.7908 24.094 88.8186Z" fill="#727E99"/>
</g>
<defs>
<clipPath id="clip0_2003_270">
<rect width="109" height="109" fill="white" transform="translate(1 1)"/>
</clipPath>
</defs>
</svg>
