<svg width="127" height="32" fill="none" xmlns="http://www.w3.org/2000/svg"><g opacity=".57" fill="#F98D8D"><path opacity=".75" d="M13.12 23.723c-.7 1.326-.7 1.628-1.19 3.075-.42 1.386-1.33 2.29-2.24 2.652-.91.362-1.82.242-2.66-.06-.84-.301-.98-.603-1.54-1.085s-1.82-1.146-2.24-1.568c-.42-.361-1.329-.723-1.959-1.266-.63-.542-1.61-1.326-1.19-2.05.42-.723.63-.964 1.47-1.084.84-.181 1.75-.543 2.17-1.086.42-.542 2.24-1.869 2.52-2.35.28-.483 1.33-1.81 1.959-2.292.63-.482 1.12-1.386 1.75-1.929.63-.543 3.01-2.894 3.709-3.436.7-.543 2.38-1.93 2.87-2.351.56-.362 2.1-1.87 2.519-2.11.42-.242 1.54-1.146 2.03-1.508.42-.301 1.26-1.085 2.1-1.567.84-.482 2.519-1.869 3.149-2.11.63-.241 1.54-1.025 1.96-1.085.42-.06 1.19-.362 1.749-.483.56-.06 1.75.302 2.87.543 1.19.241 2.799.965 3.639 1.145.84.242 1.47.784 1.26 1.266-.21.483-1.19.784-1.61.965-.42.18-2.87 1.387-3.43 1.628-.56.24-4.829 2.954-6.088 3.979-1.26 1.025-1.61 1.808-2.1 1.688-.42-.06-.63.18-.84.603-.21.482-.63.783-1.12 1.145-.42.362-3.15 2.833-3.639 3.436-.42.603-1.82 2.05-2.38 2.653-.56.603-.21.723-.84 1.025-.63.301-.56 1.085-1.12 1.386-.35.422-1.189 1.508-1.539 2.231Z"/><path opacity=".75" d="M63.579 6.298c-.21-.301-1.05-.663-2.17-.904-.42-.241-.84-.482-1.12-.603-.63-.361-3.29-1.025-3.919-1.145-.49-.12-.77-.12-.91.06-.56.12-1.12.302-1.89.482-1.19.242-2.869 1.447-4.619 2.713-1.82 1.266-10.778 9.285-11.968 10.43-1.19 1.145-2.869 2.29-2.729 1.567.14-.783 1.47-4.4 2.24-6.33.28-.663 1.12-3.979 1.26-4.702.21-.724.28-4.04.07-4.763-.21-.723-.56-.964-1.26-1.266-.7-.301-1.61-.603-2.17-.783-.56-.181-2.52-.845-3.29-1.025-.7-.181-1.61.542-1.75.844 0 0 .07 1.145.07 2.05 0 .843-.21 3.677-.21 4.22 0 .542 0 2.17-.349 2.954-.35.783-1.54 4.16-2.1 5.124-.56 1.025-2.17 4.702-2.8 5.607-.629.964-2.729 5.124-3.079 5.908-.35.783 0 1.145.42 1.748.42.543 1.61.844 2.45 1.326.84.483 2.87 1.387 3.57 1.809 0 0 .84.482 1.889.362 1.05-.12.91-.12 3.01-.664 2.099-.542 2.239-1.688 3.709-2.471 1.47-.784 4.199-3.617 5.389-4.763 1.19-1.145 7.908-7.596 9.448-8.741.42-.302 1.12-.845 1.96-1.508-.28.784-.49 1.508-.63 1.99-.42 1.567-1.19 3.738-1.33 4.762-.07 1.086.28 2.533.98 2.894.77.362 2.52 1.025 3.57 1.688 1.049.663 3.009 1.447 3.919 1.447.91 0 .63-.784.63-1.447s.42-1.929.77-2.833c.28-.905.42-2.593.91-3.617.419-1.025 1.189-4.522 1.329-4.884.14-.361 1.05-5.003 1.19-6.089.07-.24 0-.482-.07-.663.28-.18-.14-.482-.42-.784Z"/><path opacity=".75" d="M51.75 23.48c1.05.363 3.29 1.93 4.62 2.352 1.33.362 3.01 1.567 5.529-.241 2.52-1.809 5.389-5.788 8.398-8.018 3.01-2.17 6.719-4.763 8.959-6.451 0 0-.63 2.592-.77 4.521-.14 1.93 1.19 3.738 2.87 4.522 1.679.784 3.569 1.568 5.108 1.93 1.47.36 3.71-.242 5.11-1.026 1.33-.783 3.009-2.471 4.059-3.074 1.05-.664 5.669-5.004 6.439-4.642.769.361 3.009 2.17 4.339 2.833 1.33.663 4.479 2.17 5.809 1.93 1.329-.242 3.009-1.267 3.919-1.93.91-.663 1.96-2.05 2.52-2.713.629-.663.769-1.025 2.869-2.29 2.1-1.267 1.82-1.026 3.009-1.93 1.19-.904 1.05-.904.84-1.025-.21-.06-.21-.12-.28-.24-.07-.122-.07-.242.07-.302.14-.121.35-.302.63-.422.28-.121.84-.362.63-.362-.21 0-.28.06-.35-.06-.07-.121-.07-.242.14-.302.21-.06.49-.18.35-.362-.14-.18-.42-.422-.42-.422s.07-.12-.14-.06c-.21.12-.49.302-.63.302s-.14-.302-.07-.362.49-.362.84-.482c.35-.181.28-.242.56-.362s.42-.362.14-.302c-.28.06-.7.242-.98.362-.21.12-.49.241-.56.302-.14.06-.21.12-.28.06-.07-.06-.14-.362-.14-.362s.07-.18.21-.301c.14-.12.28-.12.42-.181.14-.12 0-.241-.14-.302-.07-.06-.56-.18-.63-.12-.14.06-.629.301-.769.301s-6.299 2.894-7.139 3.376c-.77.422-3.709 2.11-4.269 2.352-.56.24-1.26.482-1.4.18-.14-.301-3.01-2.23-4.059-2.713-1.05-.422-3.99-1.929-5.179-2.11-1.26-.12-3.43-.18-4.69.724-1.26.904-8.678 6.631-8.678 6.631s.49-4.642.49-5.124c0-.482-.14-.844-.7-1.266-.56-.422-5.949-2.894-6.579-3.075-.63-.18-3.01-.422-3.5-.24-.49.18-5.038 1.928-6.788 3.074-1.75 1.145-5.599 3.979-6.369 4.521-.84.543-4.969 3.015-5.879 3.497-.91.422-5.809 6.029-7.069 6.692-1.26.723-1.89 1.266-1.61 1.688.28.362 1.19 1.025 1.19 1.025Z"/></g></svg>