<svg width="111" height="111" fill="none" xmlns="http://www.w3.org/2000/svg"><ellipse cx="55.5" cy="55.11" rx="55.5" ry="55.11" fill="#81ABDD" fill-opacity=".28"/><path d="M26.342 8.326 6.704 9.569c-3.085.198-5.436 2.848-5.236 5.912L6.34 91.374c.2 3.063 2.868 5.397 5.953 5.199l19.639-1.243-5.59-87.004Z" fill="#81ABDD"/><path d="M9.962 96.681a.518.518 0 0 1-.164-.027 6.08 6.08 0 0 1-2.73-2.052 6.015 6.015 0 0 1-1.181-3.192L2.62 40.532a.45.45 0 0 1 .428-.449.458.458 0 0 1 .48.395l3.267 50.878a5.108 5.108 0 0 0 1 2.714 5.163 5.163 0 0 0 2.321 1.746c.236.09.354.352.263.586a.443.443 0 0 1-.417.28ZM2.239 27.916a.455.455 0 0 1-.454-.423l-.771-11.976a5.966 5.966 0 0 1 1.185-3.99 6.041 6.041 0 0 1 3.516-2.264.459.459 0 0 1 .52.348.45.45 0 0 1-.32.535 5.11 5.11 0 0 0-4.003 5.317l.78 11.976a.448.448 0 0 1-.426.477H2.24Z" fill="#727E99"/><path d="m80.456 10.48 4.873 75.892c.2 3.064-2.15 5.713-5.236 5.912l-61.456 3.892c-3.085.199-5.753-2.135-5.953-5.199L7.811 15.084c-.2-3.064 2.15-5.713 5.236-5.911L74.503 5.28c3.085-.198 5.754 2.135 5.953 5.2Z" fill="#C7E0FF"/><path d="m80.456 10.48 4.873 75.892c.2 3.064-2.15 5.713-5.236 5.911l-61.456 3.893a5.615 5.615 0 0 1-3.684-1.072l63.071-88.87a5.585 5.585 0 0 1 1.71 1.844c.421.736.668 1.557.722 2.401Z" fill="#C7E0FF"/><path d="M18.274 96.636a6.01 6.01 0 0 1-3.993-1.505 5.973 5.973 0 0 1-1.439-1.864 5.934 5.934 0 0 1-.603-2.272L7.366 15.102a5.967 5.967 0 0 1 1.498-4.361 6.025 6.025 0 0 1 4.165-2.028L74.485 4.82c3.349-.207 6.225 2.307 6.434 5.623l4.873 75.893c.209 3.316-2.332 6.182-5.663 6.39l-61.455 3.892c-.145.018-.273.018-.4.018ZM74.866 5.712c-.109 0-.218 0-.336.01L13.074 9.613a5.146 5.146 0 0 0-3.539 1.73 5.099 5.099 0 0 0-1.28 3.704l4.874 75.893a5.083 5.083 0 0 0 1.742 3.514 5.18 5.18 0 0 0 3.73 1.27l61.456-3.892c2.84-.18 5-2.613 4.819-5.434l-4.874-75.893c-.172-2.703-2.44-4.794-5.136-4.794Z" fill="#727E99"/><path d="m75.022 10.669 4.922 76.217-61.786 3.934-4.923-76.217 61.787-3.934Z" fill="#fff"/><path d="m13.232 14.574 3.27-.207 4.921 76.217-3.268.207-4.923-76.217Zm58.343-3.723 3.27-.208 4.921 76.218-3.27.208-4.921-76.218Z" fill="#EDEDED"/><path d="M18.129 91.247a.453.453 0 0 1-.454-.414l-4.9-76.218a.47.47 0 0 1 .108-.324.462.462 0 0 1 .309-.153l61.783-3.911a.45.45 0 0 1 .48.423l4.901 76.218a.47.47 0 0 1-.109.324.462.462 0 0 1-.308.153l-61.783 3.911c-.009-.009-.018-.009-.027-.009Zm-4.42-76.253 4.837 75.316 60.875-3.857-4.837-75.316-60.875 3.857Z" fill="#727E99"/><path d="m57.479 15.003-25.846 1.64c-1.642.108-2.95-1.352-2.659-2.947l1.116-6.19c.101-.554.386-1.06.808-1.435.422-.375.96-.6 1.525-.638l3.72-.234c.953-.063 1.815-.64 2.17-1.514.69-1.73 2.75-3.055 5.263-3.217 2.514-.162 4.719.9 5.635 2.523.463.829 1.389 1.288 2.342 1.234l3.72-.234a2.546 2.546 0 0 1 2.578 1.757l1.897 5.993a2.525 2.525 0 0 1-2.27 3.262Z" fill="#fff"/><path d="M31.234 13.552c-.29 1.595 1.025 3.055 2.659 2.947l-2.26.144c-1.642.108-2.95-1.352-2.659-2.947l1.116-6.19c.098-.554.38-1.06.801-1.436.422-.375.958-.6 1.523-.637l2.26-.144a2.537 2.537 0 0 0-1.523.637 2.505 2.505 0 0 0-.8 1.435l-1.117 6.191ZM44.7.477C42.723.9 41.153 2.08 40.572 3.54c-.363.892-1.216 1.46-2.178 1.523l-2.26.144c.962-.063 1.815-.631 2.178-1.523.69-1.721 2.75-3.055 5.255-3.217.39-.027.762-.027 1.134.009Z" fill="#EDEDED"/><path d="M31.46 17.103a2.998 2.998 0 0 1-2.292-1.06 2.952 2.952 0 0 1-.648-2.428l1.117-6.19a2.976 2.976 0 0 1 2.75-2.443l3.72-.234c.799-.054 1.497-.532 1.779-1.234.771-1.929 3.04-3.335 5.653-3.497 2.605-.171 5.046.946 6.053 2.758.373.658 1.135 1.054 1.924 1l3.721-.234a2.979 2.979 0 0 1 3.04 2.072l1.897 5.993a2.92 2.92 0 0 1-.39 2.559 3.001 3.001 0 0 1-2.278 1.289l-4.955.315c-.254 0-.463-.171-.481-.424a.448.448 0 0 1 .426-.477l4.955-.316a2.1 2.1 0 0 0 1.588-.892 2.041 2.041 0 0 0 .273-1.784l-1.897-5.992a2.065 2.065 0 0 0-2.114-1.442l-3.721.234c-1.144.072-2.233-.505-2.768-1.46-.844-1.514-2.931-2.442-5.21-2.298-2.268.145-4.228 1.325-4.872 2.938-.409 1.018-1.416 1.73-2.56 1.802l-3.72.235a2.078 2.078 0 0 0-1.915 1.703l-1.116 6.19a2.045 2.045 0 0 0 .499 1.73 2.06 2.06 0 0 0 1.688.685l15.291-.964a.46.46 0 0 1 .481.424.448.448 0 0 1-.426.477l-15.292.965c-.063-.01-.136 0-.2 0Z" fill="#727E99"/><path d="M37.295 10.344a.454.454 0 0 1-.453-.423.448.448 0 0 1 .426-.478l14.003-.883a.457.457 0 0 1 .452.425.45.45 0 0 1-.398.476l-14.002.883h-.028Zm3.84 15.779a.455.455 0 0 1-.454-.424.448.448 0 0 1 .426-.477l27.651-1.758a.455.455 0 0 1 .482.424.448.448 0 0 1-.427.478l-27.642 1.748c-.01 0-.019.009-.037.009Zm.308 4.794a.455.455 0 0 1-.454-.424.448.448 0 0 1 .427-.477l27.651-1.748a.444.444 0 0 1 .481.423.448.448 0 0 1-.427.478L41.48 30.917h-.036Zm.308 4.794a.455.455 0 0 1-.453-.424.448.448 0 0 1 .426-.477l17.088-1.082a.444.444 0 0 1 .481.424.448.448 0 0 1-.426.477l-17.088 1.082h-.028Zm.708 10.912a.454.454 0 0 1-.454-.423.448.448 0 0 1 .427-.478l22.442-1.424a.439.439 0 0 1 .481.424.448.448 0 0 1-.426.478l-22.443 1.423h-.027Zm.309 4.794a.455.455 0 0 1-.454-.423.448.448 0 0 1 .426-.478l22.443-1.423a.439.439 0 0 1 .48.423.448.448 0 0 1-.426.478l-22.442 1.423h-.027Zm.308 4.803a.454.454 0 0 1-.453-.423.448.448 0 0 1 .426-.478l17.088-1.081a.439.439 0 0 1 .481.423.448.448 0 0 1-.426.478L43.103 56.22c-.009-.009-.018 0-.027 0Zm.7 10.904a.455.455 0 0 1-.455-.423.448.448 0 0 1 .427-.478l27.651-1.748a.444.444 0 0 1 .481.423.448.448 0 0 1-.426.478l-27.652 1.748h-.027Zm.308 4.803a.454.454 0 0 1-.454-.424.448.448 0 0 1 .426-.477l27.652-1.748a.444.444 0 0 1 .48.423.448.448 0 0 1-.426.478l-27.651 1.748h-.027Zm.308 4.794a.455.455 0 0 1-.454-.424.448.448 0 0 1 .427-.477l17.088-1.081c.281-.01.463.17.481.423a.448.448 0 0 1-.426.478L44.419 76.72h-.027Z" fill="#727E99"/><path d="M34.537 30.899c.118 1.802-.517 3.47-1.633 4.74a6.55 6.55 0 0 1-2.035 1.545c-.774.378-1.615.6-2.476.654-3.63.234-6.752-2.505-6.987-6.101a6.5 6.5 0 0 1 1.624-4.73 6.593 6.593 0 0 1 4.52-2.2 6.567 6.567 0 0 1 4.755 1.613 6.463 6.463 0 0 1 1.57 2.016 6.42 6.42 0 0 1 .662 2.463Z" fill="#FA9595"/><path d="M34.537 30.899c.118 1.802-.517 3.47-1.634 4.74a6.551 6.551 0 0 1-2.034 1.545c-.774.378-1.616.6-2.476.654a6.538 6.538 0 0 1-4.483-1.388l7.523-10.679c.309.19.608.406.88.64a6.507 6.507 0 0 1 1.564 2.023c.382.77.606 1.608.66 2.465Z" fill="#FA8D8D"/><path d="M27.958 38.306a7.032 7.032 0 0 1-4.638-1.739 6.93 6.93 0 0 1-2.368-4.794 6.982 6.982 0 0 1 6.57-7.416 7.058 7.058 0 0 1 6.766 3.885c.408.825.647 1.722.703 2.639a6.938 6.938 0 0 1-1.743 5.064 6.974 6.974 0 0 1-2.176 1.657c-.829.403-1.73.64-2.651.695-.155 0-.31.01-.463.01Zm.018-13.066a6.147 6.147 0 0 0-2.71.615 6.109 6.109 0 0 0-1.902 1.44 6.03 6.03 0 0 0-1.514 4.407 6.017 6.017 0 0 0 2.06 4.18 6.133 6.133 0 0 0 4.438 1.505 6.072 6.072 0 0 0 4.202-2.046 6.031 6.031 0 0 0 1.524-4.406c-.1-1.622-.844-3.1-2.069-4.181a6.032 6.032 0 0 0-4.03-1.514Z" fill="#727E99"/><path d="M27.086 33.557a.453.453 0 0 1-.3-.108l-1.57-1.37a.446.446 0 0 1-.036-.64.452.452 0 0 1 .645-.035l1.225 1.072L30 29.15a.46.46 0 0 1 .644-.045c.19.162.208.45.045.64l-3.249 3.667a.463.463 0 0 1-.309.153c-.027-.009-.036-.009-.045-.009Z" fill="#fff"/><path d="M35.853 51.408c.118 1.803-.518 3.47-1.634 4.74a6.548 6.548 0 0 1-2.035 1.546c-.773.377-1.615.6-2.475.653-3.63.234-6.752-2.505-6.988-6.1a6.5 6.5 0 0 1 1.625-4.731 6.593 6.593 0 0 1 4.519-2.2 6.567 6.567 0 0 1 4.755 1.614 6.443 6.443 0 0 1 1.572 2.015c.383.77.608 1.607.66 2.463Z" fill="#FA9595"/><path d="M35.853 51.4c.118 1.802-.518 3.469-1.634 4.74a6.55 6.55 0 0 1-2.034 1.545c-.774.377-1.616.6-2.476.653a6.539 6.539 0 0 1-4.483-1.387l7.523-10.679a6.488 6.488 0 0 1 2.445 2.662c.382.77.606 1.609.659 2.466Z" fill="#FA8D8D"/><path d="M29.273 58.807a7.032 7.032 0 0 1-4.637-1.74 6.93 6.93 0 0 1-2.369-4.794 6.982 6.982 0 0 1 6.57-7.416 7.045 7.045 0 0 1 5.092 1.721 6.93 6.93 0 0 1 1.675 2.164c.408.825.647 1.722.702 2.64a6.938 6.938 0 0 1-1.742 5.064 6.983 6.983 0 0 1-2.178 1.65 7.026 7.026 0 0 1-2.65.693 7.956 7.956 0 0 1-.463.018Zm.018-13.067c-.136 0-.263 0-.399.01a6.146 6.146 0 0 0-4.212 2.045 6.03 6.03 0 0 0-1.514 4.407c.1 1.621.835 3.1 2.06 4.18a6.094 6.094 0 0 0 4.438 1.505 6.072 6.072 0 0 0 4.201-2.045 6.031 6.031 0 0 0 1.525-4.407c-.1-1.622-.844-3.1-2.07-4.18a6.077 6.077 0 0 0-4.029-1.515Z" fill="#727E99"/><path d="M28.402 54.058a.453.453 0 0 1-.3-.108l-1.57-1.37a.447.447 0 0 1-.129-.488.447.447 0 0 1 .093-.152.452.452 0 0 1 .644-.036l1.225 1.072 2.95-3.325a.46.46 0 0 1 .644-.045c.19.162.209.45.046.64l-3.25 3.668a.462.462 0 0 1-.308.153c-.027-.01-.036-.01-.045-.01Z" fill="#fff"/><path d="M37.169 71.91c.118 1.802-.517 3.469-1.634 4.74a6.55 6.55 0 0 1-2.034 1.545c-.774.377-1.615.599-2.476.653-3.63.234-6.752-2.505-6.988-6.1a6.499 6.499 0 0 1 1.625-4.732 6.593 6.593 0 0 1 4.52-2.198 6.568 6.568 0 0 1 4.755 1.613 6.427 6.427 0 0 1 1.573 2.014c.383.77.607 1.607.659 2.464Z" fill="#FA9595"/><path d="M37.169 71.91c.118 1.801-.517 3.469-1.634 4.74a6.55 6.55 0 0 1-2.034 1.545c-.774.377-1.615.599-2.476.653a6.538 6.538 0 0 1-4.483-1.388l7.523-10.678a6.488 6.488 0 0 1 2.185 2.186c.54.892.856 1.901.919 2.941Z" fill="#FA8D8D"/><path d="M30.599 79.308c-3.676 0-6.78-2.848-7.015-6.543a6.981 6.981 0 0 1 6.57-7.416 7.045 7.045 0 0 1 5.091 1.721 6.93 6.93 0 0 1 1.675 2.164c.408.825.647 1.722.703 2.64a6.937 6.937 0 0 1-1.743 5.064 6.973 6.973 0 0 1-2.176 1.656c-.83.404-1.73.64-2.652.696-.154.018-.3.018-.453.018Zm.018-13.067c-.136 0-.264 0-.4.01a6.147 6.147 0 0 0-2.311.605 6.107 6.107 0 0 0-1.901 1.44 6.03 6.03 0 0 0-1.514 4.407c.218 3.343 3.14 5.902 6.507 5.685a6.071 6.071 0 0 0 4.202-2.045 6.032 6.032 0 0 0 1.524-4.407c-.1-1.622-.844-3.1-2.069-4.18a6.135 6.135 0 0 0-4.038-1.515Z" fill="#727E99"/><path d="M29.718 74.567a.453.453 0 0 1-.3-.108l-1.57-1.37a.446.446 0 0 1-.036-.64.452.452 0 0 1 .644-.035l1.226 1.072 2.949-3.325a.46.46 0 0 1 .644-.045c.19.162.209.45.046.64l-3.25 3.667a.462.462 0 0 1-.308.153c-.027-.009-.036-.009-.045-.009Z" fill="#fff"/><path d="m71.933 41.948 16.15-28.54L101.33 20.8 85.18 49.34l-13.247-7.391Z" fill="#FA9595"/><path d="m71.927 41.949 16.151-28.54 2.27 1.268-16.15 28.539-2.27-1.267Zm10.992 6.13 16.15-28.54 2.271 1.267-16.15 28.539-2.27-1.267Z" fill="#FA8D8D"/><path d="m106.601 11.534-2.759 4.866L90.584 9l2.759-4.866a4.662 4.662 0 0 1 2.804-2.184 4.696 4.696 0 0 1 3.54.418l5.145 2.875a4.626 4.626 0 0 1 2.196 2.78 4.59 4.59 0 0 1-.427 3.51Z" fill="#C7E0FF"/><path d="M97.726 1.801c-1.733-.117-3.467.73-4.374 2.334l-2.759 4.867 2.323 1.297 4.81-8.498Zm8.603 4.803c.998 1.415 1.18 3.326.272 4.93l-2.759 4.866-2.323-1.298 4.81-8.498Z" fill="#C7E0FF"/><path d="m88.06 13.412 2.518-4.447 13.27 7.405-2.516 4.448-13.271-7.406Z" fill="#EDEDED"/><path d="m90.325 14.676 2.517-4.448 8.736 4.875-2.517 4.447-8.736-4.874Z" fill="#fff"/><path d="m85.175 49.372-14.166 9.606.916-17.013 13.25 7.407Z" fill="#FCDCB5"/><path d="m72.924 57.69-1.915 1.288.916-17.013 1.78.991-.781 14.733Z" fill="#FCC583"/><path d="M85.166 49.822a.524.524 0 0 1-.226-.054L71.7 42.38a.436.436 0 0 1-.219-.27.416.416 0 0 1 .046-.343l16.153-28.53a.45.45 0 0 1 .617-.17l13.241 7.389a.446.446 0 0 1 .172.613l-4.755 8.407a.452.452 0 0 1-.617.171.446.446 0 0 1-.173-.613l4.538-8.01-12.451-6.948-15.709 27.727 12.451 6.957 8.077-14.265a.45.45 0 0 1 .617-.171c.218.126.3.396.172.613l-8.294 14.652a.462.462 0 0 1-.4.234Zm18.677-32.972a.523.523 0 0 1-.227-.054l-13.25-7.398a.461.461 0 0 1-.217-.27.416.416 0 0 1 .045-.343l2.759-4.866a5.057 5.057 0 0 1 3.076-2.397 5.162 5.162 0 0 1 3.884.46l5.146 2.865a5.078 5.078 0 0 1 2.414 3.05 5.042 5.042 0 0 1-.463 3.853l-2.759 4.866a.48.48 0 0 1-.408.234ZM91.21 8.83l12.46 6.957 2.532-4.479c1.135-2 .418-4.55-1.606-5.677l-5.145-2.865a4.158 4.158 0 0 0-3.195-.379 4.186 4.186 0 0 0-2.532 1.974L91.21 8.83Z" fill="#727E99"/><path d="M101.337 21.302a.52.52 0 0 1-.226-.054L87.843 13.84a.461.461 0 0 1-.218-.27.416.416 0 0 1 .046-.342l2.513-4.443a.438.438 0 0 1 .273-.216.424.424 0 0 1 .344.045l13.268 7.407c.218.126.3.397.172.613l-2.513 4.442a.44.44 0 0 1-.273.217c-.036 0-.081.009-.118.009Zm-12.65-8.03 12.478 6.966 2.069-3.658-12.478-6.966-2.07 3.659ZM71.009 59.429a.44.44 0 0 1-.43-.287.432.432 0 0 1-.024-.181l.908-17.013c.009-.154.1-.298.236-.37a.484.484 0 0 1 .444 0l13.259 7.398a.425.425 0 0 1 .227.37.44.44 0 0 1-.2.387l-14.166 9.624a.49.49 0 0 1-.254.072Zm1.325-16.715-.826 15.382 12.805-8.687-11.98-6.695Z" fill="#727E99"/><path d="M78.55 46.119a.524.524 0 0 1-.227-.054.452.452 0 0 1-.228-.446.445.445 0 0 1 .056-.167l16.153-28.53a.45.45 0 0 1 .617-.17c.218.125.3.396.173.612L78.94 45.894a.45.45 0 0 1-.39.225Zm-7.096 4.515-.445 8.344 6.951-4.713-6.506-3.631Z" fill="#727E99"/><path d="M71.009 59.428a.44.44 0 0 1-.43-.287.432.432 0 0 1-.024-.181L71 50.615a.453.453 0 0 1 .236-.369.484.484 0 0 1 .444 0l6.498 3.631a.425.425 0 0 1 .227.37.44.44 0 0 1-.2.387l-6.951 4.713a.382.382 0 0 1-.245.081Zm.862-8.047-.363 6.714 5.59-3.794-5.227-2.92Z" fill="#727E99"/><path d="m92.227 70.656 2.625-7.134 4.329 1.57-2.625 7.134-4.329-1.57Z" fill="#fff"/><path d="M96.6 72.666a.425.425 0 0 1-.154-.027l-4.329-1.568a.461.461 0 0 1-.272-.577l2.623-7.137a.456.456 0 0 1 .58-.27l4.33 1.568a.462.462 0 0 1 .271.577l-2.622 7.136a.446.446 0 0 1-.427.298Zm-3.748-2.289 3.476 1.262 2.314-6.29-3.476-1.262-2.314 6.29Z" fill="#727E99"/><path d="M87.998 110.549c12.028 0 21.78-9.682 21.78-21.627 0-11.944-9.752-21.627-21.78-21.627-12.029 0-21.78 9.683-21.78 21.627 0 11.945 9.751 21.627 21.78 21.627Z" fill="#FCDCB5"/><path d="M102.436 94.167c-2.913 7.912-11.743 11.985-19.711 9.092a15.246 15.246 0 0 1-8.403-7.38 15.126 15.126 0 0 1-.763-12.192c2.913-7.921 11.743-11.994 19.72-9.102a15.304 15.304 0 0 1 8.494 7.552 15.14 15.14 0 0 1 .663 12.03Z" fill="#fff"/><path d="M108.452 96.348c-4.129 11.21-16.634 16.986-27.933 12.886a21.659 21.659 0 0 1-11.924-10.498L107.49 79.27c2.568 5.146 3.095 11.274.962 17.077Z" fill="#F9D4A7"/><path d="M87.97 111c-2.531 0-5.1-.433-7.604-1.343-11.162-4.055-17.134-16.049-13.594-27.304a.455.455 0 0 1 .871.27c-3.394 10.796 2.332 22.303 13.04 26.187 5.355 1.947 11.144 1.694 16.308-.685a21.216 21.216 0 0 0 6.725-4.873 21.02 21.02 0 0 0 4.319-7.067 20.936 20.936 0 0 0-.689-16.193 21.082 21.082 0 0 0-4.908-6.678 21.251 21.251 0 0 0-7.117-4.289c-8.939-3.244-19.066-.162-24.62 7.498a.462.462 0 0 1-.635.099.446.446 0 0 1-.1-.631c5.79-7.984 16.353-11.201 25.673-7.822 5.581 2.028 10.028 6.083 12.533 11.436 2.504 5.352 2.758 11.345.717 16.878C105.585 105.44 97.046 111 87.971 111Z" fill="#727E99"/><path d="M102.436 94.167c-2.913 7.912-11.743 11.985-19.711 9.092a15.246 15.246 0 0 1-8.403-7.38l27.451-13.733a15.115 15.115 0 0 1 .663 12.021Z" fill="#FADFCB"/><path d="M88.006 104.647c-1.833 0-3.666-.324-5.445-.964-3.975-1.442-7.142-4.335-8.92-8.137a15.507 15.507 0 0 1-.509-12.012c1.452-3.938 4.365-7.083 8.195-8.858a15.809 15.809 0 0 1 12.097-.505c3.975 1.442 7.142 4.334 8.921 8.137a15.51 15.51 0 0 1 .508 12.012 15.59 15.59 0 0 1-3.204 5.245 15.715 15.715 0 0 1-4.99 3.613 15.909 15.909 0 0 1-6.653 1.469Zm-.018-30.548c-2.142 0-4.274.468-6.28 1.388a14.769 14.769 0 0 0-7.723 8.344 14.611 14.611 0 0 0 .481 11.327c1.68 3.587 4.665 6.308 8.404 7.669a14.906 14.906 0 0 0 11.407-.478A14.768 14.768 0 0 0 102 94.005a14.613 14.613 0 0 0-.481-11.327c-1.679-3.587-4.665-6.308-8.404-7.669a15.078 15.078 0 0 0-5.127-.91Z" fill="#727E99"/><path d="M92.662 76.694a.456.456 0 0 1-.45-.39.448.448 0 0 1 .023-.213l.608-1.658a.453.453 0 0 1 .57-.243.454.454 0 0 1 .283.549l-.608 1.658a.446.446 0 0 1-.426.297Zm-9.937 27.016a.46.46 0 0 1-.371-.192.451.451 0 0 1-.056-.412l.608-1.658a.454.454 0 0 1 .57-.242.453.453 0 0 1 .283.549l-.608 1.658a.468.468 0 0 1-.426.297Zm-7.496-18.969a.425.425 0 0 1-.155-.027l-1.67-.603a.453.453 0 0 1-.243-.567.452.452 0 0 1 .552-.28l1.67.603a.454.454 0 0 1 .288.5.45.45 0 0 1-.442.374Zm27.206 9.868a.43.43 0 0 1-.154-.027l-1.67-.604a.453.453 0 0 1-.243-.567.453.453 0 0 1 .552-.28l1.67.604a.454.454 0 0 1 .288.5.454.454 0 0 1-.443.374ZM82.271 77.136a.447.447 0 0 1-.409-.261l-.753-1.605a.438.438 0 0 1 .218-.594.446.446 0 0 1 .599.216l.753 1.604a.44.44 0 0 1-.218.595.49.49 0 0 1-.19.045Zm12.206 26.078a.447.447 0 0 1-.409-.261l-.753-1.604a.44.44 0 0 1 .218-.595.453.453 0 0 1 .599.217l.753 1.604a.44.44 0 0 1-.218.594.371.371 0 0 1-.19.045Zm-20.419-7.407a.447.447 0 0 1-.408-.261.44.44 0 0 1 .217-.595l1.616-.748c.227-.099.499-.009.599.216a.44.44 0 0 1-.218.595l-1.615.748a.492.492 0 0 1-.191.045Zm26.263-12.12a.448.448 0 0 1-.408-.261.44.44 0 0 1 .217-.595l1.616-.748c.227-.1.499-.009.599.216a.44.44 0 0 1-.218.595l-1.615.748a.493.493 0 0 1-.191.045Z" fill="#727E99"/><path d="M102.191 65.547v.01a2.089 2.089 0 0 1-1.086 1.168 2.11 2.11 0 0 1-1.6.066l-5.935-2.154a2.08 2.08 0 0 1-1.185-1.07 2.053 2.053 0 0 1-.068-1.588v-.01a2.097 2.097 0 0 1 1.09-1.173 2.12 2.12 0 0 1 1.606-.07l5.935 2.154a2.073 2.073 0 0 1 1.243 2.667Z" fill="#FA9595"/><path d="m95.62 65.385-2.05-.748a2.09 2.09 0 0 1-1.182-1.071 2.06 2.06 0 0 1-.07-1.587v-.01a2.108 2.108 0 0 1 2.695-1.252l2.05.748a2.113 2.113 0 0 0-2.704 1.244v.009a2.079 2.079 0 0 0 1.262 2.667Z" fill="#FA8D8D"/><path d="M100.231 67.377c-.3 0-.599-.054-.88-.153l-5.935-2.154a2.543 2.543 0 0 1-1.439-1.309 2.516 2.516 0 0 1-.086-1.935 2.492 2.492 0 0 1 1.325-1.433 2.527 2.527 0 0 1 1.951-.081l5.935 2.154a2.534 2.534 0 0 1 1.525 3.253v.009a2.488 2.488 0 0 1-1.316 1.423 2.863 2.863 0 0 1-1.08.226Zm-5.944-6.326c-.337 0-.666.103-.941.295a1.627 1.627 0 0 0 .379 2.868l5.934 2.153c.418.154.862.136 1.262-.045a1.58 1.58 0 0 0 .844-.91v-.009a1.625 1.625 0 0 0-.98-2.09l-5.935-2.154a1.522 1.522 0 0 0-.563-.108Zm-2.45 36.531a.447.447 0 0 1-.409-.26l-3.838-8.21a.45.45 0 0 1-.019-.343l3.512-9.552a.453.453 0 0 1 .57-.242.454.454 0 0 1 .283.549l-3.448 9.372 3.766 8.038a.44.44 0 0 1-.218.594.336.336 0 0 1-.2.054Z" fill="#727E99"/><path d="M87.998 90.94a2.026 2.026 0 0 0 2.032-2.018c0-1.114-.91-2.018-2.032-2.018a2.026 2.026 0 0 0-2.033 2.018c0 1.115.91 2.019 2.032 2.019Z" fill="#727E99"/></svg>