<svg width="208" height="168" viewBox="0 0 208 168" fill="none" xmlns="http://www.w3.org/2000/svg">
<path d="M210.138 179.121L116.635 131.928C112.084 128.097 92.4576 119.351 66.6732 105.461C34.4426 88.0973 25.6331 78.2782 36.1932 75.9599C44.6413 74.1052 114.331 69.5019 148.121 67.432L210.138 179.121Z" fill="#FFE5CA"/>
<path d="M124.306 82.5751L142.562 118.428C128.04 112.33 97.0596 99.3023 89.3153 95.9778C81.5709 92.6534 77.5144 88.0177 76.4542 86.1154L124.306 82.5751Z" fill="#EBF1FF"/>
<path d="M164.43 155.929C178.226 162.264 192.067 168.646 205.863 174.981C206.279 175.171 206.795 174.758 206.521 174.337C198.926 162.439 191.096 150.679 183.032 139.102C182.666 138.586 181.87 139.089 182.19 139.558C190.254 151.135 198.083 162.895 205.678 174.793C205.914 174.563 206.102 174.379 206.337 174.149C192.541 167.814 178.7 161.432 164.904 155.097C164.395 154.859 163.875 155.644 164.43 155.929Z" fill="#727E99"/>
<path d="M129.024 69.3946C132.612 68.8748 136.244 68.4949 139.876 68.2081C141.598 68.087 143.321 67.9658 145.089 67.9382C145.88 67.9002 146.766 67.7701 147.555 67.8716C148.577 68.0221 148.848 68.7693 149.351 69.612C153.012 75.2802 156.206 81.176 159.024 87.3003C159.297 87.8615 160.093 87.4048 159.867 86.8441C158.32 83.5246 156.681 80.2506 154.9 77.0682C153.987 75.4302 153.028 73.7917 152.068 72.1997C151.108 70.6543 150.197 68.8302 149.048 67.4688C148.267 66.5766 146.82 67.0263 145.703 67.0609C143.749 67.133 141.84 67.2057 139.885 67.3708C136.16 67.6567 132.481 68.036 128.8 68.6014C128.196 68.5484 128.418 69.4812 129.024 69.3946Z" fill="#727E99"/>
<path d="M138.16 67.7244C136.131 70.308 134.103 72.9381 132.075 75.5217C131.697 76.0294 132.529 76.5036 132.907 75.9958C134.935 73.4122 136.964 70.7821 138.992 68.1985C139.369 67.7373 138.537 67.2632 138.16 67.7244Z" fill="#727E99"/>
<path d="M141.928 67.6717C139.455 72.6698 136.936 77.6673 134.464 82.6188C134.179 83.174 135.011 83.6482 135.297 83.0929C137.769 78.0949 140.288 73.0974 142.76 68.1459C142.999 67.6367 142.213 67.1165 141.928 67.6717Z" fill="#727E99"/>
<path d="M145.834 67.8531C143.448 73.4104 141.016 78.9671 138.63 84.5709C138.391 85.1266 139.319 85.3691 139.558 84.8134C141.943 79.2562 144.375 73.6994 146.761 68.0957C146.999 67.5865 146.072 67.2974 145.834 67.8531Z" fill="#727E99"/>
<path d="M149.865 69.3847C148.515 73.8829 147.164 78.3812 145.813 82.8795C145.621 83.4822 146.548 83.7248 146.741 83.122C148.092 78.6238 149.442 74.1255 150.793 69.6272C150.939 69.0705 150.011 68.7814 149.865 69.3847Z" fill="#727E99"/>
<path d="M153.363 77.2844C152.64 79.6493 151.87 82.0137 151.147 84.3787C150.954 84.9814 151.882 85.224 152.075 84.6212C152.798 82.2563 153.568 79.8918 154.291 77.5269C154.437 76.9237 153.509 76.6811 153.363 77.2844Z" fill="#727E99"/>
<path d="M155.388 109.731C162.842 113.114 170.296 116.45 177.796 119.833C178.352 120.072 178.825 119.286 178.27 119.001C170.816 115.618 163.362 112.282 155.862 108.899C155.306 108.66 154.832 109.493 155.388 109.731Z" fill="#727E99"/>
<path d="M67.1274 141.212C69.1486 139.28 71.2162 137.348 73.2374 135.416C73.707 135.002 73.0167 134.297 72.5471 134.71C70.5259 136.643 68.4583 138.574 66.4371 140.507C66.0135 140.968 66.7043 141.626 67.1274 141.212Z" fill="#727E99"/>
<path d="M68.4159 142.528C71.2339 140.046 74.2809 137.892 77.5115 135.973C78.0267 135.653 77.5704 134.81 77.0553 135.131C73.7776 137.096 70.6831 139.343 67.7722 141.824C67.3025 142.237 67.9468 142.896 68.4159 142.528Z" fill="#727E99"/>
<path d="M71.01 143.487C74.3351 141.429 77.7063 139.418 81.0314 137.36C81.5466 137.04 81.0904 136.197 80.5752 136.517C77.2501 138.575 73.8789 140.586 70.5538 142.644C69.9916 143.01 70.4943 143.853 71.01 143.487Z" fill="#727E99"/>
<path d="M76.6359 143.872C79.6345 141.904 82.6335 139.889 85.5855 137.92C86.1007 137.6 85.6444 136.758 85.1293 137.078C82.1307 139.046 79.1317 141.061 76.1797 143.03C75.664 143.397 76.1208 144.193 76.6359 143.872Z" fill="#727E99"/>
<path d="M80.2094 144.608C83.1119 142.918 85.9674 141.274 88.8699 139.583C89.3851 139.263 88.9289 138.421 88.4137 138.741C85.5112 140.431 82.6557 142.076 79.7532 143.766C79.1915 144.086 79.6943 144.928 80.2094 144.608Z" fill="#727E99"/>
<path d="M85.599 145.271C88.6405 143.628 91.6821 141.986 94.7231 140.39C95.2843 140.117 94.7816 139.274 94.2669 139.548C91.2253 141.19 88.1838 142.833 85.1427 144.428C84.581 144.748 85.0378 145.544 85.599 145.271Z" fill="#727E99"/>
<path d="M91.2099 147.052C93.7853 145.498 96.3612 143.897 98.9366 142.343C99.4517 142.023 98.9955 141.18 98.4803 141.5C95.905 143.055 93.3291 144.655 90.7537 146.21C90.2385 146.53 90.6947 147.372 91.2099 147.052Z" fill="#727E99"/>
<path d="M97.4849 147.491C99.9677 145.89 102.497 144.335 104.979 142.733C105.495 142.413 105.038 141.571 104.523 141.891C102.04 143.493 99.5115 145.047 97.0287 146.649C96.4665 147.015 96.9697 147.811 97.4849 147.491Z" fill="#727E99"/>
<path d="M55.1617 107.356C60.9926 110.257 66.8234 113.157 72.6083 116.01C74.2745 116.819 75.7429 114.369 74.0767 113.56C68.2458 110.66 62.415 107.76 56.6301 104.906C55.0109 104.052 53.496 106.501 55.1617 107.356Z" fill="#727E99"/>
<path d="M69.8772 71.1344C62.2857 71.9371 54.7408 72.7403 47.1493 73.543C35.0869 74.8096 23.0245 76.0762 10.9156 77.3423C8.16766 77.6386 5.41977 77.9349 2.62537 78.2306C1.36796 78.3567 0.464267 80.2079 1.85276 80.874C5.97124 82.9185 10.0437 84.9159 14.1157 86.9598C15.7818 87.7685 17.2501 85.3186 15.584 84.5099C11.512 82.466 7.43959 80.4686 3.36762 78.4246C3.12559 79.3059 2.88356 80.1873 2.59502 81.0681C10.1865 80.2654 17.7314 79.4622 25.3229 78.6594C37.3853 77.3928 49.4477 76.1262 61.5566 74.8601C64.3045 74.5638 67.0989 74.2681 69.8468 73.9718C71.6629 73.8052 71.6932 70.9677 69.8772 71.1344Z" fill="#727E99"/>
<path d="M177.279 107.22C169.973 94.4419 162.62 81.6166 155.313 68.8383C154.263 67.0128 153.213 65.1407 152.162 63.3152C151.934 62.8941 151.426 62.563 150.914 62.604C144.068 63.3217 137.175 64.0388 130.329 64.7564C119.384 65.8954 108.393 67.0805 97.4482 68.2195C94.9333 68.4717 92.3715 68.77 89.8567 69.0222C88.0401 69.2354 88.0098 72.0728 89.8258 71.9061C96.6721 71.1885 103.565 70.4714 110.411 69.7537C121.356 68.6147 132.347 67.4297 143.292 66.2907C145.806 66.0385 148.368 65.7402 150.883 65.488C150.467 65.2509 150.051 65.0139 149.635 64.7768C156.941 77.5551 164.294 90.3804 171.601 103.159C172.651 104.984 173.701 106.856 174.752 108.682C175.712 110.227 178.193 108.812 177.279 107.22Z" fill="#727E99"/>
<path d="M115.041 137.072C118.558 138.831 122.121 140.59 125.638 142.349C134.107 146.534 142.529 150.718 150.997 154.948C161.27 160.036 171.543 165.124 181.816 170.258C190.654 174.632 199.493 179.053 208.331 183.428C212.635 185.567 216.889 187.985 221.288 189.846C221.334 189.893 221.427 189.894 221.473 189.941C222.723 190.56 224.225 189.32 223.448 188.009C219.521 181.128 215.548 174.201 211.62 167.32C205.318 156.32 199.063 145.321 192.76 134.321C191.345 131.794 189.883 129.313 188.468 126.785C187.555 125.194 185.074 126.61 185.987 128.201C189.914 135.082 193.888 142.009 197.815 148.89C204.117 159.889 210.373 170.889 216.675 181.889C218.09 184.416 219.552 186.897 220.967 189.424C221.625 188.78 222.284 188.136 222.942 187.491C219.425 185.733 215.862 183.973 212.345 182.214C203.876 178.03 195.454 173.846 186.986 169.615C176.713 164.528 166.44 159.44 156.167 154.306C147.329 149.931 138.491 145.511 129.652 141.136C125.348 138.997 121.094 136.625 116.695 134.717C116.649 134.67 116.556 134.669 116.51 134.622C114.844 133.767 113.375 136.263 115.041 137.072Z" fill="#727E99"/>
<path d="M136.817 106.275C139.458 111.654 142.099 117.032 144.739 122.41C145.398 121.766 146.056 121.121 146.714 120.477C139.398 117.235 132.083 113.994 124.767 110.752C113.099 105.557 101.431 100.408 89.7171 95.2116C87.0317 94.0198 84.3462 92.8281 81.6607 91.6363C79.9942 90.8742 78.5253 93.3706 80.1924 94.0862C87.508 97.3279 94.8236 100.57 102.139 103.811C113.807 109.007 125.475 114.156 137.189 119.352C139.875 120.544 142.56 121.735 145.246 122.927C146.542 123.499 147.903 122.351 147.22 120.994C144.579 115.616 141.939 110.238 139.298 104.86C138.478 103.223 135.997 104.638 136.817 106.275Z" fill="#727E99"/>
<path d="M113.672 82.4424C117.584 82.0656 121.542 81.7357 125.454 81.3588C125.038 81.1218 124.621 80.8847 124.205 80.6476C125.571 83.4536 126.983 86.3066 128.348 89.1126C129.168 90.7497 131.649 89.334 130.829 87.6969C129.463 84.8909 128.052 82.0379 126.686 79.232C126.504 78.8113 125.903 78.4792 125.438 78.5208C121.526 78.8976 117.568 79.2275 113.656 79.6044C111.886 79.725 111.856 82.6091 113.672 82.4424Z" fill="#727E99"/>
<path d="M75.9996 85.8537C80.1907 85.4798 84.4283 85.1064 88.6198 84.686C90.436 84.5193 90.4668 81.6352 88.6507 81.8019C84.4596 82.1758 80.222 82.5492 76.0305 82.9696C74.2138 83.1828 74.1834 86.0204 75.9996 85.8537Z" fill="#727E99"/>
<path d="M36.5293 96.5039C30.4288 97.0899 24.3283 97.676 18.2278 98.262C18.689 98.6391 19.1507 98.9697 19.6119 99.3468C18.4537 94.5428 17.296 89.6923 16.1379 84.8882C15.6662 85.488 15.1946 86.0877 14.723 86.6874C23.803 85.9006 32.8364 85.1133 41.9163 84.3266C48.2489 83.7895 54.6285 83.2065 60.961 82.6694C64.0811 82.3771 67.2026 81.9453 70.3206 81.8391C73.02 81.7284 74.2381 85.277 75.4266 87.2436C76.8432 89.6313 78.2598 92.019 79.6764 94.4067C80.1025 93.7134 80.5291 92.9737 80.9552 92.2804C76.2982 92.7423 71.6417 93.1578 66.9847 93.6197C65.1686 93.7863 65.1377 96.6703 66.9538 96.5036C71.6108 96.0417 76.2674 95.6263 80.9244 95.1644C81.9487 95.0823 82.7974 94.0214 82.2032 93.0381C80.9691 90.978 79.7351 88.9179 78.5016 86.8113C77.3136 84.7982 76.2256 82.1348 74.5219 80.4884C71.9434 77.9952 67.1849 79.2469 63.9719 79.5382C51.2132 80.6578 38.4551 81.7309 25.6964 82.8505C22.0642 83.1838 18.4325 83.4706 14.7538 83.8035C13.8225 83.8865 13.1169 84.6233 13.339 85.6026C14.4971 90.4067 15.6548 95.2572 16.813 100.061C16.9465 100.621 17.5918 101.186 18.197 101.146C24.2975 100.56 30.398 99.9739 36.4984 99.3878C38.315 99.1747 38.3924 96.2912 36.5293 96.5039Z" fill="#727E99"/>
<path d="M79.4521 93.6597C79.2966 95.1467 79.1877 96.6342 79.0327 98.0747C78.9287 99.0971 79.225 101.845 78.0101 102.344C77.0288 102.752 75.5418 102.596 74.517 102.725C67.6243 103.442 60.685 104.159 53.7918 104.922C45.7812 105.767 37.8171 106.612 29.8065 107.457C27.2917 107.709 24.7764 108.008 22.2616 108.26C21.7029 108.301 21.1437 108.388 20.585 108.429C19.5142 108.51 19.195 107.902 18.9719 107.016C18.4356 104.963 17.8523 102.956 17.316 100.904C16.8242 99.0376 16.1469 97.1231 16.0748 95.1684C15.9705 91.8643 16.1454 88.5632 16.1807 85.2606C16.2006 83.4 13.3167 83.3692 13.2968 85.2298C13.2634 88.3463 13.1836 91.4624 13.1968 94.5794C13.2015 98.4872 14.7407 102.458 15.7708 106.191C16.173 107.73 16.4342 109.408 17.7252 110.491C18.6475 111.246 19.7159 111.397 20.8803 111.269C22.9289 111.105 24.9321 110.848 26.9813 110.637C42.6763 108.99 58.3249 107.343 74.02 105.697C75.65 105.528 78.0678 105.647 79.5648 104.872C81.7169 103.732 81.6483 101.452 81.8562 99.4075C82.0157 97.5484 82.2221 95.6432 82.3816 93.7841C82.495 91.878 79.611 91.8471 79.4521 93.6597Z" fill="#727E99"/>
<path d="M16.7716 99.6421C16.8809 102.481 17.0361 105.367 17.1453 108.206C17.2189 110.021 20.1025 110.099 20.0294 108.237C19.9202 105.398 19.7649 102.512 19.6557 99.6729C19.5821 97.8577 16.6985 97.7804 16.7716 99.6421Z" fill="#727E99"/>
<path d="M30.1023 84.1069C31.8246 88.3587 33.5464 92.6571 35.2687 96.9089C35.4048 97.236 35.4938 97.6091 35.6764 97.9367C35.8595 98.2178 35.7655 98.3098 35.7234 97.8907C35.8065 98.822 35.7035 99.7513 35.6936 100.682C35.6692 102.961 35.6448 105.24 35.6204 107.519C35.6005 109.38 38.4845 109.411 38.5044 107.55C38.5293 105.224 38.5541 102.899 38.579 100.573C38.5959 98.9914 38.7019 97.783 38.1121 96.381C36.3908 92.0362 34.6225 87.7374 32.9012 83.3925C32.2213 81.7105 29.4224 82.4249 30.1023 84.1069Z" fill="#727E99"/>
<path d="M58.4094 82.0374C60.5528 86.0611 62.6498 90.0843 64.7932 94.108C64.8847 94.2485 65.52 95.744 65.6596 95.7455C65.334 95.742 65.533 94.5346 65.475 95.6039C65.4225 96.1616 65.4631 96.7203 65.4571 97.2785C65.4332 99.5112 65.4089 101.79 65.385 104.023C65.3651 105.884 68.249 105.915 68.2689 104.054C68.2938 101.728 68.3192 99.356 68.344 97.0302C68.3535 96.1464 68.5035 95.1711 68.1868 94.3304C68.0057 93.8632 67.6851 93.3946 67.457 92.9734C65.2681 88.8562 63.0791 84.739 60.9362 80.6688C60.0238 78.9843 57.543 80.3999 58.4094 82.0374Z" fill="#727E99"/>
<path d="M41.3554 97.7186C47.8268 97.276 54.2982 96.8335 60.7697 96.3909C61.3749 96.3509 61.3853 95.374 60.7801 95.4141C54.3087 95.8566 47.8373 96.2991 41.3659 96.7417C40.7601 96.8283 40.7037 97.7581 41.3554 97.7186Z" fill="#727E99"/>
<path d="M67.7912 127.03C69.2135 124.533 70.4512 121.895 71.9206 119.352C72.5842 118.196 73.2954 116.948 74.2356 116.027C74.4237 115.843 75.1734 115.339 74.7993 115.521C74.8928 115.476 75.452 115.389 75.2655 115.433C77.2691 115.129 79.3603 115.338 81.36 115.406C84.2429 115.529 87.0789 115.699 89.9608 115.916C95.3066 116.299 100.651 116.775 105.948 117.39C107.714 117.595 109.479 117.8 111.196 118.19C111.986 118.338 113.239 118.631 113.653 119.054C113.561 118.96 113.654 118.961 113.697 119.287C113.696 119.333 113.74 119.613 113.783 119.893C113.909 121.197 114.035 122.501 114.114 123.804C114.318 126.411 114.569 129.112 114.447 131.763C114.443 132.135 114.297 132.738 114.104 133.434C113.765 134.686 113.333 135.937 112.947 137.189C112.034 139.924 111.027 142.705 109.605 145.248C109.414 145.618 109.177 146.035 108.941 146.358C108.847 146.496 108.282 147.095 108.563 146.912C108.423 147.003 108.795 146.961 108.377 146.956C107.911 146.998 108.283 147.002 107.771 147.043C103.629 147.231 99.3562 146.534 95.2683 145.979C90.0191 145.271 84.7248 144.424 79.524 143.531C77.4808 143.183 75.3916 142.789 73.3489 142.395C72.7917 142.296 72.188 142.196 71.6313 142.051C70.2858 141.711 67.6394 141.217 66.7681 140.045C66.539 139.717 66.5054 138.507 66.4188 137.901C66.2957 136.365 66.2196 134.782 66.1435 133.2C66.1044 132.502 66.1119 131.804 66.1193 131.106C66.1218 130.874 66.1243 130.641 66.1268 130.408C66.1278 130.315 66.2278 129.665 66.1313 129.99C66.3268 129.108 67.224 127.861 67.7912 127.03C68.7849 125.459 66.335 123.991 65.3413 125.562C64.6791 126.578 63.8764 127.686 63.4453 128.845C63.1103 129.725 63.1929 130.703 63.1829 131.633C63.2001 134.378 63.3093 137.217 63.6991 139.919C64.1309 143.041 67.9337 144.151 70.5786 144.784C71.8776 145.124 73.178 145.324 74.4779 145.57C79.7707 146.557 85.1111 147.452 90.4529 148.207C95.6086 148.96 100.81 149.806 105.972 149.955C107.181 149.967 108.808 150.124 109.885 149.438C111.852 148.203 112.864 144.957 113.676 142.966C114.822 140.187 115.83 137.36 116.651 134.484C117.232 132.397 117.207 130.396 117.091 128.209C116.982 125.323 116.78 122.437 116.485 119.549C116.274 117.593 115.401 116.514 113.501 115.842C110.581 114.834 107.233 114.659 104.166 114.347C101.239 114.036 98.311 113.773 95.383 113.509C89.341 112.979 83.2069 112.355 77.1114 112.476C75.3433 112.503 73.6683 112.532 72.3054 113.82C70.0493 115.982 68.6195 119.177 67.1481 121.906C66.5305 123.109 65.9124 124.358 65.2017 125.56C64.4406 127.134 66.8905 128.602 67.7912 127.03Z" fill="#727E99"/>
<path d="M65.0824 132.258C74.8347 133.851 84.6816 135.305 94.5834 135.969C97.3728 136.139 100.163 136.262 102.954 136.245C104.629 136.216 106.397 136.235 108.029 135.834C110.781 135.166 111.755 131.082 112.57 128.812C113.72 125.707 114.731 122.554 115.649 119.354C116.179 117.592 113.397 116.772 112.912 118.581C112.235 120.993 111.466 123.357 110.65 125.721C110.073 127.436 109.497 129.104 108.735 130.771C108.449 131.419 108.163 132.067 107.785 132.622C107.737 132.714 107.453 133.13 107.548 132.991C107.311 133.361 107.734 132.993 107.501 133.037C103.631 133.88 99.3093 133.415 95.404 133.187C89.3135 132.843 83.2274 132.08 77.1889 131.224C73.4261 130.719 69.6178 130.12 65.856 129.522C64.0914 129.224 63.2713 131.959 65.0824 132.258Z" fill="#727E99"/>
<path d="M106.08 135.395C106.459 139.167 106.837 142.939 107.215 146.712C107.382 148.528 110.266 148.559 110.1 146.743C109.721 142.97 109.343 139.198 108.964 135.426C108.751 133.609 105.914 133.578 106.08 135.395Z" fill="#727E99"/>
<path d="M114.917 131.396C114.929 130.233 114.828 126.649 112.677 127.697C111.134 128.424 110.825 131.166 110.577 132.605C110.23 134.602 109.789 136.738 109.907 138.739C110.027 140.509 111.314 142.058 112.868 140.306C113.668 139.384 112.334 138.021 111.533 138.943C111.948 139.273 112.042 139.181 111.816 138.574C111.82 138.248 111.823 137.922 111.826 137.643C111.831 137.178 111.928 136.76 111.98 136.296C112.083 135.32 112.234 134.298 112.384 133.323C112.533 132.394 112.73 131.419 113.019 130.492C113.019 130.538 113.69 128.684 112.845 129.327C112.799 129.326 113.012 131.143 113.01 131.375C112.996 132.631 114.903 132.652 114.917 131.396Z" fill="#727E99"/>
<path d="M76.058 119.582C86.0989 120.294 96.1877 120.867 106.176 122.184C106.594 122.235 107.618 122.199 107.94 122.482C108.586 123 107.207 125.777 106.921 126.425C106.636 127.027 106.35 127.628 105.972 128.183C105.688 128.645 106.016 128.416 105.55 128.457C104.711 128.588 103.736 128.438 102.899 128.382C96.9009 128.132 90.8584 127.649 84.8619 127.213C84.3042 127.16 83.5154 126.966 82.9557 127.099C82.35 127.186 82.0655 127.694 81.7349 128.156C81.3103 128.71 81.2182 128.616 80.4275 128.607C77.498 128.483 74.6165 128.219 71.7351 127.956C71.8721 128.19 72.0092 128.424 72.1462 128.658C73.575 125.557 75.0503 122.456 76.4791 119.354C76.7177 118.798 75.9319 118.325 75.6468 118.88C74.218 121.981 72.7427 125.083 71.3139 128.184C71.1709 128.508 71.353 128.882 71.7251 128.886C74.467 129.148 77.2095 129.364 79.9524 129.533C80.9752 129.59 81.671 129.784 82.3776 128.954C82.7547 128.493 82.8042 128.214 83.2709 128.079C83.5975 127.99 84.0612 128.134 84.3868 128.138C90.6624 128.577 96.984 129.063 103.261 129.363C104.051 129.418 105.027 129.568 105.819 129.391C106.612 129.259 106.851 128.611 107.231 127.917C107.895 126.668 110.313 122.414 108.183 121.507C106.655 120.84 104.374 120.955 102.748 120.798C99.4023 120.436 96.0091 120.168 92.6625 119.899C87.1317 119.421 81.6003 118.99 76.0219 118.605C75.4643 118.552 75.4538 119.529 76.058 119.582Z" fill="#727E99"/>
<path d="M94.0288 122.612C98.8661 122.71 103.703 122.808 108.54 122.953C109.145 122.96 109.155 122.029 108.551 121.976C103.713 121.878 98.8761 121.78 94.0392 121.635C93.3875 121.675 93.3775 122.605 94.0288 122.612Z" fill="#727E99"/>
<path d="M74.331 128.822C75.0447 127.341 75.8054 125.814 76.5191 124.332C76.7572 123.823 77.6059 122.762 77.5654 122.204C77.5669 122.064 77.1002 122.199 77.3783 122.295C77.5634 122.39 77.9365 122.301 78.1226 122.303C81.6109 122.386 85.0527 122.47 88.541 122.554C89.1458 122.56 89.1557 121.63 88.5515 121.577C84.7841 121.49 80.9701 121.403 77.2027 121.316C77.0631 121.314 76.8761 121.405 76.7815 121.544C75.6873 123.812 74.593 126.08 73.4522 128.347C73.2606 128.857 74.046 129.377 74.331 128.822Z" fill="#727E99"/>
<path d="M76.9091 127.034C85.4215 127.125 93.9338 127.216 102.446 127.307C103.655 127.32 104.865 127.333 106.074 127.346C106.679 127.353 106.689 126.376 106.085 126.369C97.5724 126.278 89.0601 126.187 80.5478 126.096C79.3384 126.083 78.129 126.07 76.9196 126.057C76.3149 126.051 76.3044 127.028 76.9091 127.034Z" fill="#727E99"/>
<path d="M93.7023 122.748C93.7689 125.215 89.1112 125.723 88.905 123.255C88.6988 120.787 93.308 120.464 93.7008 122.888C93.7873 123.493 94.7207 123.224 94.6336 122.665C94.0202 119.123 87.5933 119.752 87.9266 123.384C88.26 127.017 94.7334 126.388 94.6321 122.805C94.6391 122.153 93.7087 122.143 93.7023 122.748Z" fill="#727E99"/>
<path d="M94.1815 121.497C93.1706 120.324 91.4529 119.979 90.0514 120.523C89.0241 120.884 87.5211 122.217 88.0193 123.479C88.5166 124.833 90.794 125.043 91.9139 124.73C93.2669 124.372 94.3482 123.314 94.3171 121.871C94.3236 121.266 93.3467 121.256 93.3403 121.861C93.3293 122.884 92.5776 123.574 91.6442 123.843C90.9445 124.022 89.2693 124.05 88.9067 123.162C88.5895 122.368 90.0405 121.546 90.6002 121.413C91.6731 121.145 92.787 121.389 93.4758 122.234C93.89 122.657 94.5487 121.967 94.1815 121.497Z" fill="#727E99"/>
<path d="M90.4594 121.457C90.5924 122.064 90.6785 122.716 90.8116 123.322C90.9447 123.928 91.8315 123.659 91.7444 123.099C91.6114 122.493 91.5253 121.841 91.3922 121.235C91.2591 120.628 90.3263 120.851 90.4594 121.457Z" fill="#727E99"/>
<path d="M92.1327 121.661C91.3404 121.792 90.5941 121.971 89.8018 122.102C89.1956 122.235 89.4653 123.122 90.0245 123.035C90.8168 122.903 91.563 122.725 92.3553 122.594C93.0081 122.462 92.7389 121.528 92.1327 121.661Z" fill="#727E99"/>
<path d="M71.4913 76.7807C77.0008 79.2587 82.5568 81.7372 88.1122 84.2622C100.52 89.8378 112.928 95.4134 125.289 100.989C138.253 106.803 151.217 112.617 164.133 118.477C171.17 121.669 178.254 124.815 185.291 128.007C187.977 129.199 191.137 129.512 193.967 130.194C200.233 131.61 206.544 133.073 212.809 134.489C213.226 134.587 213.644 134.684 214.062 134.782C215.732 135.172 216.452 133.132 215.206 132.189C210.731 128.652 206.257 125.115 201.781 121.624C199.291 119.644 196.799 117.71 194.308 115.729C193.801 115.305 193.34 114.928 192.739 114.596C190.286 113.36 187.645 112.355 185.145 111.258C180.098 109.018 175.004 106.824 169.957 104.583C155.974 98.4324 141.991 92.2817 128.007 86.1775C115.32 80.5989 102.633 75.0203 89.9455 69.4417C86.5653 67.9634 83.1391 66.4381 79.7589 64.9598C79.2032 64.7212 78.6475 64.4827 78.0918 64.2441C73.9238 62.4783 69.563 65.6881 68.635 69.8185C67.9539 72.6025 68.7613 75.4024 71.4913 76.7807C73.1104 77.6354 74.6253 75.186 72.9597 74.3308C68.9807 72.2878 72.6836 65.3493 76.6234 66.694C77.2727 66.8871 77.9199 67.2662 78.5221 67.5052C81.9023 68.9835 85.236 70.4613 88.6162 71.9396C100.84 77.3271 113.111 82.6687 125.335 88.0563C138.994 94.064 152.7 100.072 166.359 106.08C174.416 109.609 182.519 113.184 190.576 116.713C192.845 117.714 194.732 119.642 196.669 121.198C201.974 125.395 207.279 129.545 212.584 133.742C212.953 134.025 213.322 134.308 213.692 134.592C214.073 133.712 214.455 132.832 214.836 131.999C209.87 130.875 204.905 129.706 199.939 128.583C196.691 127.85 193.489 127.118 190.24 126.386C189.312 126.19 188.384 125.947 187.455 125.751C187.038 125.654 186.667 125.557 187.13 125.748C185.276 125.077 183.519 124.127 181.713 123.317C177.5 121.411 173.333 119.552 169.12 117.646C156.619 112.023 144.073 106.4 131.572 100.777C118.794 95.0109 105.969 89.2448 93.1909 83.5256C86.4775 80.523 79.8111 77.4744 73.0972 74.5183C73.0047 74.4708 72.9122 74.4233 72.8196 74.3758C71.2931 73.5686 69.7782 76.018 71.4913 76.7807Z" fill="#727E99"/>
<path d="M82.2999 69.9698L187.974 115.672C185.381 115.645 183.066 119.942 182.233 122.094C149.433 107.426 83.1891 77.7593 80.6099 76.435C77.386 74.7797 76.5843 73.9607 78.231 71.5471C79.5483 69.6162 81.4924 69.691 82.2999 69.9698Z" fill="#F98585"/>
<path d="M203.825 130.625C203.774 131.043 203.776 130.811 203.872 130.533C203.969 130.208 204.066 129.883 204.209 129.559C204.59 128.679 205.25 127.896 206.047 127.346C207.547 126.292 206.131 123.811 204.631 124.865C202.709 126.194 201.246 128.178 200.988 130.548C200.886 131.338 201.67 131.998 202.415 132.006C203.205 132.014 203.724 131.369 203.825 130.625Z" fill="#727E99"/>
<path d="M192.212 115.94C191.641 117.143 190.557 118.434 189.071 118.186C188.7 118.135 188.371 118.411 188.46 118.784C188.815 120.416 187.87 121.802 186.512 122.578C186.325 122.669 186.23 122.901 186.274 123.134C186.587 124.254 186.992 125.607 186.7 126.721C186.554 127.324 187.482 127.566 187.628 126.963C187.922 125.617 187.566 124.125 187.207 122.865C187.112 123.05 187.063 123.235 186.968 123.42C188.7 122.415 189.836 120.613 189.393 118.561C189.205 118.746 189.017 118.93 188.782 119.16C190.686 119.506 192.189 118.126 192.997 116.506C193.33 115.859 192.498 115.385 192.212 115.94Z" fill="#727E99"/>
<path d="M36.0241 87.2872C36.5629 89.1073 37.0552 90.927 37.594 92.7471C37.8631 93.6805 38.0843 94.7529 39.1032 95.1825C40.2611 95.6601 41.7547 95.2108 42.9191 95.0837C44.7823 94.871 46.6455 94.6583 48.5082 94.4922C49.1139 94.4056 49.1239 93.4752 48.5186 93.5153C45.9572 93.767 43.3942 94.1583 40.8333 94.3636C39.0176 94.4837 38.5708 92.7576 38.1676 91.3111C37.7639 89.9111 37.3606 88.4645 36.9569 87.0645C36.7773 86.4578 35.8445 86.6804 36.0241 87.2872Z" fill="#727E99"/>
<path d="M55.6055 83.2634C52.847 84.5365 50.042 85.8092 47.2836 87.0823C46.7224 87.3555 47.1791 88.1512 47.7398 87.9246C50.4983 86.6515 53.3032 85.3788 56.0617 84.1057C56.6229 83.8325 56.1667 82.9903 55.6055 83.2634Z" fill="#727E99"/>
<path d="M55.7238 85.2184C53.6155 86.5916 51.5078 87.9182 49.3996 89.2913C48.8844 89.6115 49.3407 90.4538 49.8558 90.1336C51.964 88.7605 54.0718 87.4339 56.18 86.0607C56.6957 85.6941 56.2394 84.8518 55.7238 85.2184Z" fill="#727E99"/>
<path d="M58.829 86.3682C56.7243 87.4158 54.7111 88.6038 52.789 89.9789C52.2733 90.3456 52.776 91.1884 53.2452 90.8212C55.1673 89.4461 57.1805 88.258 59.2853 87.2105C59.8464 86.9374 59.3437 86.0946 58.829 86.3682Z" fill="#727E99"/>
<path d="M59.8737 88.7519C57.77 89.7064 55.8493 90.942 54.0658 92.4116C53.5966 92.7788 54.2404 93.4835 54.7561 93.1168C56.4921 91.7397 58.3658 90.5502 60.376 89.6412C60.8912 89.321 60.4349 88.4788 59.8737 88.7519Z" fill="#727E99"/>
<path d="M42.3987 104.522C44.9631 103.991 47.5731 103.553 50.1355 103.209C50.7413 103.122 50.4721 102.189 49.9129 102.276C47.3039 102.62 44.74 103.104 42.176 103.589C41.5698 103.722 41.7925 104.655 42.3987 104.522Z" fill="#727E99"/>
<path d="M20.2313 102.331C20.26 104.006 20.2891 105.634 20.3177 107.31C20.3152 107.542 20.5453 107.777 20.7779 107.78C22.3595 107.797 23.9436 107.581 25.4826 107.225C26.0888 107.092 25.8197 106.159 25.26 106.292C23.814 106.649 22.3234 106.819 20.7878 106.849C20.9259 106.99 21.11 107.179 21.248 107.32C21.2194 105.644 21.1903 104.016 21.1617 102.341C21.2152 101.69 20.2383 101.679 20.2313 102.331Z" fill="#727E99"/>
<path d="M67.1395 83.4796C68.8206 82.8928 70.5308 83.9346 70.6509 85.7502C70.691 86.3555 71.6679 86.3659 71.6278 85.7607C71.4671 83.3863 69.2047 81.7803 66.9168 82.5468C66.3101 82.7264 66.5793 83.6597 67.1395 83.4796Z" fill="#727E99"/>
<path d="M74.0381 73.5986C73.5492 71.4533 74.7371 69.1398 76.7928 68.3244C77.3535 68.0978 77.1309 67.165 76.5702 67.3916C74.0007 68.3876 72.5293 71.1167 73.1052 73.8212C73.2383 74.4274 74.1716 74.1583 74.0381 73.5986Z" fill="#727E99"/>
<path d="M93.493 81.3891C95.9867 78.7641 99.7206 81.9674 102.032 83.3413C104.435 84.8091 106.887 86.1379 109.385 87.4672C114.335 90.0323 119.428 92.2732 124.618 94.1895C125.174 94.3816 125.463 93.5008 124.861 93.2617C118.651 90.9623 112.587 88.1993 106.76 84.9735C103.985 83.4552 101.354 81.5197 98.5301 80.1869C96.6324 79.2827 94.3086 79.0718 92.7557 80.7299C92.3791 81.1446 93.0694 81.8498 93.493 81.3891Z" fill="#727E99"/>
<path d="M125.71 126.998C128.259 123.537 133.025 125.96 136.082 127.202C139.37 128.587 142.752 129.879 146.232 130.707C152.218 132.12 158.733 131.911 163.98 128.478C164.496 128.157 164.039 127.315 163.524 127.635C157.013 131.846 149.022 130.83 142.069 128.476C138.593 127.276 135.264 125.379 131.738 124.504C129.232 123.873 126.483 124.262 124.924 126.478C124.546 127.032 125.332 127.506 125.71 126.998Z" fill="#727E99"/>
<path d="M198.493 14.5111C200.147 14.295 201.351 12.7343 201.14 11.0715C200.799 8.38005 197.296 7.47119 195.671 9.55985C194.449 11.1318 195.065 13.5448 196.935 14.3098L195.658 23.4245L186.88 26.9802L179.085 20.8956C178.976 20.8106 178.847 20.7557 178.711 20.7365C178.574 20.7172 178.436 20.7343 178.309 20.7861L169.142 24.5163L162.786 19.5546C162.987 19.0634 163.056 18.5266 162.986 17.9981C162.768 16.3156 161.224 15.1084 159.545 15.3073C158.727 15.4041 158 15.8155 157.498 16.4657C156.999 17.1115 156.783 17.9158 156.889 18.7304C157.02 19.744 158.576 19.5495 158.444 18.5359C158.338 17.7204 158.933 16.9715 159.739 16.8763C160.565 16.7785 161.324 17.369 161.431 18.1925C161.535 18.9976 160.934 19.7579 160.136 19.8522C159.129 19.9712 159.323 21.5406 160.33 21.4213C160.888 21.3543 161.39 21.1492 161.836 20.8057L168.185 25.7616L167.209 32.7725C165.489 32.9163 164.201 34.5105 164.418 36.2269C164.522 37.0417 164.934 37.7685 165.581 38.2731C166.732 39.1719 168.409 39.1125 169.493 38.1566L175.27 42.6662C175.379 42.7513 175.508 42.8062 175.645 42.8254C175.781 42.8446 175.919 42.8275 176.047 42.7758L185.209 39.0475L187.556 40.8799C188.334 41.4872 189.315 40.2601 188.512 39.6337L186.17 37.8052L187.473 28.4467L196.251 24.8913L201.661 29.1286C201.002 30.6614 201.752 32.5332 203.292 33.1849L202.338 39.9561L193.597 43.6028L191.927 42.2996C191.123 41.6718 190.167 42.918 190.971 43.5458L192.64 44.8485L191.358 54.0039C190.568 54.0945 189.813 54.4896 189.287 55.1661C188.265 56.4805 188.493 58.4547 189.825 59.4949C191.146 60.5258 193.107 60.2778 194.131 58.9604C195.343 57.4033 194.751 55.0157 192.912 54.2292L194.196 45.0674L202.936 41.421L209.406 46.4806C208.806 47.7514 209.183 49.357 210.3 50.2287C211.621 51.2596 213.582 51.0115 214.606 49.6942C215.628 48.3799 215.401 46.4054 214.068 45.3655C212.978 44.5144 211.49 44.5185 210.415 45.2763L203.894 40.176L204.847 33.4048C206.519 33.2069 207.744 31.639 207.531 29.9615C207.238 27.6465 204.448 26.5078 202.628 27.8906L197.213 23.6494L198.493 14.5111ZM196.603 11.653C196.521 10.9996 196.923 10.3155 197.53 10.0677C198.405 9.71031 199.462 10.301 199.584 11.2609C199.748 12.5567 198.205 13.4537 197.166 12.6424C197.012 12.5229 196.882 12.3739 196.786 12.204C196.689 12.0341 196.627 11.8468 196.603 11.653ZM193.2 56.8672C193.25 57.2668 193.142 57.6624 192.894 57.9813C191.709 59.5047 189.328 57.6852 190.525 56.1453C191.032 55.4933 191.99 55.3722 192.637 55.8779C192.792 55.9974 192.921 56.1464 193.017 56.3163C193.114 56.4861 193.176 56.6734 193.2 56.8672ZM166.537 37.0268C165.89 36.5215 165.782 35.565 166.281 34.9233C166.788 34.2713 167.745 34.1503 168.393 34.656C169.06 35.1762 169.093 36.1013 168.649 36.7595C168.138 37.417 167.19 37.5369 166.537 37.0268ZM170.37 36.8483C170.872 35.3893 170.158 33.7001 168.756 33.0473L169.74 25.9808L178.487 22.4214L185.918 28.2218L184.615 37.5811L175.868 41.1403L170.37 36.8483ZM211.62 46.4079C212.995 45.8466 214.3 47.5174 213.368 48.7151C212.857 49.3725 211.909 49.4927 211.256 48.9825C210.369 48.2901 210.588 46.8293 211.62 46.4079ZM203.921 28.9579C204.796 28.6005 205.853 29.1912 205.975 30.1511C206.139 31.447 204.596 32.3439 203.556 31.5326C202.67 30.8402 202.889 29.3794 203.921 28.9579Z" fill="#727E99"/>
</svg>
