<svg width="102" height="28" fill="none" xmlns="http://www.w3.org/2000/svg"><path d="M8.6 27.416c-2.336 0-4.223-.51-5.662-1.528C1.3 24.738.465 23.05.432 20.825.387 17.25 1.644 14.815 4.2 13.52c-1.97-1.195-2.955-2.894-2.955-5.097 0-2.091.758-3.83 2.275-5.213 1.45-1.328 3.21-2.003 5.279-2.025 4.648-.044 6.973 2.252 6.973 6.89 0 1.328-.266 2.352-.797 3.071-.432.598-1.268 1.212-2.507 1.843 1.649.83 2.805 1.726 3.47 2.69.774 1.128 1.162 2.683 1.162 4.664 0 2.258-.836 4.029-2.507 5.313-1.55 1.173-3.547 1.76-5.993 1.76Zm.149-23.26c-1.428 0-2.518.405-3.27 1.213-.676.752-1.008 1.77-.997 3.054.011 1.55 1.284 2.651 3.819 3.304 1.328-.387 2.28-.775 2.855-1.162.919-.62 1.378-1.45 1.378-2.49 0-1.505-.337-2.562-1.013-3.171-.575-.498-1.5-.747-2.772-.747Zm-.299 10.51c-1.76.819-2.933 1.527-3.52 2.125-.918.918-1.35 2.213-1.294 3.884.044 1.384.68 2.419 1.909 3.105.896.487 1.915.73 3.055.73 1.947 0 3.309-.46 4.084-1.378.62-.73.93-1.837.93-3.32 0-1.45-.565-2.617-1.694-3.503-.753-.609-1.91-1.157-3.47-1.644Zm24.505 1.178c0 .41-.138.77-.415 1.08a1.295 1.295 0 0 1-1.012.448c-.133 0-.332-.023-.598-.067a4.019 4.019 0 0 0-.614-.066l-1.66.033a20.54 20.54 0 0 1-1.66 0v3.901c0 .996-.493 1.495-1.478 1.495-.487 0-.858-.122-1.112-.366-.244-.254-.366-.63-.366-1.129l-.016-1.909-.017-1.926c-1.339.078-2.285.117-2.839.117-1.715 0-2.573-.51-2.573-1.528 0-.72.304-1.167.913-1.345.21-.055.764-.083 1.66-.083.554 0 1.5-.038 2.84-.116l-.017-1.942c0-1.007.05-1.705.149-2.092.11-.398.282-.697.515-.896.232-.2.53-.3.896-.3.42 0 .775.14 1.063.416.299.265.448.609.448 1.03 0 .187-.022.486-.067.896-.033.41-.05.719-.05.93l.017 1.892 1.245.05c.222 0 .56-.011 1.013-.034.454-.033.791-.05 1.013-.05 1.815 0 2.722.52 2.722 1.561ZM51.932 4.837l-1.51 1.76c-1.44 1.682-2.762 3.719-3.968 6.11l-3.022 6.624c-.21.486-.675 1.765-1.394 3.835-.576 1.637-1.112 2.86-1.61 3.668-.31.52-.753.78-1.329.78-.442 0-.835-.154-1.178-.464-.332-.31-.498-.68-.498-1.112 0-.421.354-1.5 1.062-3.238l3.735-9.147c1.65-3.62 3.343-6.408 5.08-8.367l.316-.349-8.334-.166-3.735-.1c-1.074-.1-1.61-.63-1.61-1.593 0-.465.154-.847.464-1.146.31-.299.697-.448 1.162-.448 1.395 0 3.486.044 6.276.133 2.8.088 4.897.133 6.292.133h3.038c1.173 0 1.76.348 1.76 1.045 0 .52-.333 1.201-.997 2.042Zm5.613 5.097 7.753.017c.985 0 1.477.492 1.477 1.477 0 .985-.492 1.478-1.477 1.478l-7.77-.017c-.254 0-.636.017-1.145.05a27.64 27.64 0 0 1-1.112.033c-.432 0-.786-.144-1.063-.431a1.508 1.508 0 0 1-.398-1.063c0-.797.465-1.284 1.394-1.46.244-.056 1.024-.084 2.341-.084Zm.946 8.915c.73 0 1.827.017 3.287.05 1.461.033 2.557.05 3.288.05.984 0 1.477.492 1.477 1.477 0 .985-.493 1.478-1.478 1.478-.73 0-1.826-.017-3.287-.05-1.46-.033-2.556-.05-3.287-.05-.332 0-.83.022-1.494.067-.664.044-1.156.066-1.477.066-1.019 0-1.528-.492-1.528-1.478 0-.907.476-1.4 1.428-1.477a44.101 44.101 0 0 1 3.071-.133Zm21.368 7.687h-3.304l-3.287-.017c-.775 0-1.317-.05-1.627-.15-.564-.199-.847-.62-.847-1.261 0-1.118.87-1.677 2.607-1.677l.797.017.68.033c0-.531-.05-1.317-.15-2.358-.088-1.04-.132-1.82-.132-2.34 0-1.406.127-3.542.382-6.409.244-2.822.36-4.963.349-6.424-1.483 1.15-2.43 1.726-2.84 1.726-.442 0-.83-.166-1.161-.498-.321-.332-.482-.714-.482-1.145 0-.52.476-1.151 1.428-1.893.598-.42 1.444-1.096 2.54-2.025C75.786 1.13 76.716.637 77.6.637c.742 0 1.112.426 1.112 1.279 0 .254-.033.636-.1 1.145-.066.498-.099.874-.099 1.129 0 .365.017.919.05 1.66.044.742.066 1.295.066 1.66 0 1.262-.132 3.143-.398 5.645-.266 2.501-.399 4.377-.399 5.628 0 .642.045 1.422.133 2.34.089.92.139 1.672.15 2.258l1.743-.033c.465 0 .847.155 1.145.465.31.299.465.675.465 1.129 0 .465-.155.847-.465 1.145-.299.3-.68.449-1.145.449Zm11.589 1.029c-3.143 0-5.456-1.162-6.94-3.486-.199-.321-.298-.631-.298-.93 0-.432.171-.803.514-1.112.343-.321.73-.482 1.162-.482.454 0 .886.244 1.295.73.587.709 1.03 1.163 1.329 1.362.719.487 1.698.73 2.938.73 1.915 0 3.503-.73 4.765-2.191 1.206-1.395 1.81-3.071 1.81-5.03 0-1.616-.266-2.928-.798-3.935-.686-1.273-1.743-1.909-3.17-1.909-1.185 0-2.153.16-2.906.482-.597.254-1.2.691-1.81 1.311l-1.809 1.976c-.487.498-.985.747-1.494.747-.443 0-.82-.155-1.129-.465a1.593 1.593 0 0 1-.465-1.146c0-.221.089-1.206.266-2.955.376-3.486.564-5.777.564-6.873 0-.387-.1-.808-.299-1.262-.188-.464-.282-.807-.282-1.029 0-.675.581-1.013 1.743-1.013.222 0 .554.023.996.067.454.033.792.05 1.013.05.642 0 1.605-.022 2.889-.067a91.702 91.702 0 0 1 2.889-.066c.298 0 .752.01 1.36.033.61.022 1.063.033 1.362.033.21 0 .515-.038.913-.116.399-.088.698-.133.897-.133.431 0 .813.16 1.145.482.332.32.498.691.498 1.112 0 1.24-1.311 1.86-3.934 1.86-.343 0-.775-.012-1.295-.034a34.46 34.46 0 0 0-.947-.033l-2.805.05-2.806.083c0 .498-.205 2.34-.614 5.528 1.516-1.206 3.536-1.81 6.06-1.81 2.434 0 4.294.952 5.578 2.856 1.084 1.616 1.627 3.675 1.627 6.176 0 2.988-.875 5.45-2.624 7.388-1.815 2.014-4.21 3.02-7.188 3.02Z" fill="#727E99"/></svg>