<svg width="278" height="171" fill="none" xmlns="http://www.w3.org/2000/svg"><path d="M194.944 88.935c-1.874-.918-3.268 2.056-1 2.926 2.268.87 3.553 1.437 4.267 1.437.714 0 1.368-1.852.758-2.463-.611-.61-2.731-1.268-4.025-1.9Z" fill="#FBAE96"/><path d="M106.03 64.686c3.176 0 4.012 4.082 7.976 5.398 4.916 1.632 11.304-.948 12.952-5.156 2.143-5.467-1.912-8.315-.991-17.401.611-6.022-3.488-5.49-6.997-11.35-3.51-5.866-2.571-6.502-7.331-11.892-4.761-5.389-12.715-6.15-18.692-5.203-5.976.948-8.954 2.043-13.632 5.26-4.678 3.216-2.562 6.662-5.57 8.934-3.007 2.268-4.349 4.905-5.258 9.415-1.748 8.658 4.13 12.844 1.49 15.835-2.64 2.991-7.998 16.398 5.863 15.588 4.9-.286 9.287 1.325 11.69-2.394 3.535-5.471 5.3-1.83 10.143-4.23 4.847-2.402 8.353-2.795 8.353-2.795l.004-.01Z" fill="#37231B"/><path d="M70.506 67.647c11.671-9.502 12.78 0 40.779-1.858 3.454-.229 19.172 2.935 22.206 4.801 15.38 9.45 27.402 71.334 27.402 71.334l-89.063-.983-1.324-73.294Z" fill="#FCC583"/><path d="M92.826 63.327c-.203 3.922-3.773.212-3.773 5.181 0 4.316 4.83 11.212 18.5 9.026 8.695-1.39 11.309-8.814 6.141-10.978-2.925-1.225-4.306-6.147-4.306-6.147l-16.562 2.913v.005Z" fill="#FBAE96"/><path d="M111.364 40.843c2.688 10.77 2.584 26.414-9.681 27.354C86.679 69.348 70.161 39.895 82.2 29.082c12.04-10.814 25.356-3.49 29.164 11.761Z" fill="#FBAE96"/><path d="M87.573 37.138c-1.766 3.406-1.891 4.017-3.848 5.973-1.956 1.957-1.774 7.026-.84 9.918 4.454 13.787.641 7.129-.242 8.012-.882.883-4.54-8.12-5.041-8.623-.507-.506-4.475-14.943-4.475-16.458 0-1.515 9.56-10.649 10.715-11.809 1.16-1.16 11.598-3.324 14.563-3.324 2.964 0 8.889-.377 10.152 1.64 1.26 2.018 9.456 18.917 9.456 18.917s4.917 7.874 1.593 7.653c-4.254-.285-5.055-1.142-6.145-3.631-1.169-2.676-2.277-8.684-8.136-6.697-9.906 3.355-17.752-1.563-17.752-1.563v-.008Z" fill="#37231B"/><path d="M46.898 147.911c-3.795-23.64 15.052-78.026 27.286-82.979 8.62-3.493 15.264-.744 16.865 8.8 1.601 9.546-12.974 54.522-12.974 54.522s42.744-11.749 46.531 0c3.782 11.748 1.891 20.072 1.891 20.072l-79.594-.415h-.005Z" fill="#FCC583"/><path d="M86.412 129.453c-3.917 0-7.396-.087-10.028-.156-1.267-.03-2.367-.061-3.263-.073a1.077 1.077 0 0 1-.917-.494c-.978-1.511 1.151-6.666 5.327-16.419 4.272-9.982 9.586-22.406 9.586-29.146a.532.532 0 1 1 1.065 0c0 6.96-5.362 19.493-9.673 29.566-1.718 4.013-3.336 7.8-4.353 10.623-1.454 4.038-1.143 4.701-1.056 4.8h.034c.9.013 2.004.039 3.276.074 5.843.147 14.667.372 23.746-.299a.534.534 0 1 1 .078 1.065c-4.765.351-9.551.455-13.822.455v.004Z" fill="#C99565"/><path d="M92.966 51.561c-.095.615.55 2.472 1.926 2.047.909-.28.757-2.601-.312-3.025-.87-.342-1.519.363-1.614.978ZM104.247 48.115c-.16.602.407 2.507 1.818 2.225.934-.181.904-2.493-.109-3.025-.826-.438-1.549.199-1.709.8Z" fill="#372313"/><path d="M98.984 61.885c.75.865 2.545 1.883 5.306.948s2.445-3.719 2.445-3.719c-2.493 1.576-4.868 2.334-7.75 2.766v.005Z" fill="#E66C40"/><path d="M102.225 45.99c.554 0 2.307-1.23 3.973-.96 1.666.268 1.606.038 1.207-.364-.402-.403-1.532-.819-3.643-.546-2.562.334-2.017 1.87-1.537 1.87ZM94.877 47.756c.03-.532-1.112-.662-1.938-.446-1.134.299-2.865 1.953-3.151 3.139-.151.619.286.922.922.052.753-1.026 1.346-1.65 2.302-1.797.77-.121 1.844-.528 1.865-.944v-.004Z" fill="#37231B"/><path d="M85.332 53.224c1.35 1.904 3.21 5.649 1.826 6.631-1.385.983-5.492-1.164-6.842-3.069-1.35-1.905-1.324-4.247.06-5.23 1.385-.982 3.605-.237 4.956 1.668Z" fill="#FBAE96"/><path d="M101.921 69.512c-2.722 0-4.981-.909-5.107-.96a.349.349 0 0 1 .264-.646c.04.017 3.969 1.593 7.552.546a.35.35 0 0 1 .433.238.35.35 0 0 1-.238.433 10.37 10.37 0 0 1-2.904.393v-.004Z" fill="#C99565"/><path d="M86.787 60.413c.982.983 5.53 5.437 10.157 7.818 1.341.693.662 5.299.545 5.987-.883 5.238-6.491 4.108-9.841 2.432-3.596-1.8-.23-13.28-5.319-13.627-5.768-.393-8.062 2.16-8.902 1.94-1.644-.437 1.303-2.991 5.315-4.2 3.215-.964 7.456-.726 8.045-.35Z" fill="#37231B"/><path d="M89.221 25.012c-2.181-.359-3.246 2.269-4.267 3.71-.203.286.268.65.485.377.952-1.186 1.822-3.693 3.696-3.463.35.043.437-.563.082-.624h.004ZM90.204 27.26c-1.471.133-2.333 1.272-3.185 2.35-.247.311.186.753.441.441.732-.905 1.498-2.008 2.748-2.16.394-.047.411-.67 0-.632h-.004ZM79.662 40.527c-1.255 1.506-2.108 3.428-2.459 5.359-.073.394.528.567.61.169.364-1.81 1.135-3.636 2.29-5.087.247-.307-.182-.748-.441-.441ZM94.199 71.132c.03-.411-.597-.403-.636 0-.078.874.09 1.753.047 2.632-.021.394-.069.853-.316 1.177-.315.416-.835.416-1.31.381-.416-.03-.395.584 0 .636 2.916.364 2.094-3.073 2.215-4.826ZM123.415 51.197c-.359-.745-.826-1.428-1.263-2.125-.286-.46-.801-1.104-.775-1.676.017-.398-.597-.398-.619 0-.03.48.238.961.468 1.364.359.636.774 1.242 1.146 1.87.338.563.719 1.182.827 1.844.113.688-.29.978-.909 1.147-.398.108-.229.697.169.615.632-.134 1.229-.49 1.376-1.16.139-.637-.143-1.312-.415-1.875l-.005-.004ZM123.444 58.83c-.359-.403-.814-.598-1.29-.823-.575-.277-.869-.55-.787-1.234.039-.342-.563-.428-.61-.082-.143 1.017.359 1.528 1.233 1.935.433.2 1.142.502 1.251 1.039.082.424-.619.766-.866 1.039-.273.303.152.736.45.45.329-.316.805-.58.996-1.013.212-.48-.052-.948-.373-1.307l-.004-.005ZM106.921 29.723c-.55-.589-1.251-.8-2.034-.874-.883-.087-1.744-.04-2.354-.793-.264-.324-.714.135-.459.46 1.138 1.432 3.168.44 4.392 1.657.29.29.727-.151.45-.45h.005Z" fill="#55341B"/><path d="M130.605 69.555c4.852.658 20.245 18.674 39.728 22.856 19.483 4.182 26.602-.23 26.602-.23l8.318 13.481c-19.063 13.969-48.842 6.631-67.719-2.775l-6.929-33.332Z" fill="#FCC583"/><path d="M207.86 145.988s11.771-37.154-12.9-55.36c-5.194-3.832-9.712-5.637-20.63-5.598-11.629.044-22.093 10.94-26.204 18.32-7.617 13.674-13.927 42.638-13.927 42.638h73.661Z" fill="#DB7E5D"/><path d="M193.953 145.958a.517.517 0 0 1-.519-.519v-21.168c-.005-.099-.658-12.709-2.424-17.618a.519.519 0 0 1 .316-.667.519.519 0 0 1 .667.316c1.822 5.056 2.458 17.424 2.488 17.947v21.194c0 .29-.234.52-.519.52l-.009-.005ZM155.574 142.586a.52.52 0 0 1-.515-.463c-.125-1.087-3.081-26.735-1.393-35.747a.523.523 0 0 1 .61-.416.523.523 0 0 1 .415.611c-1.661 8.856 1.377 35.171 1.407 35.435a.523.523 0 0 1-.459.58h-.065Z" fill="#9E614B"/><path d="M167.5 89.342c-2.614 2.97-4.28 12.056.489 12.298 11.213.576 15.121-14.657 12.118-15.627-6.864-2.22-12.607 3.33-12.607 3.33Z" fill="#F1F2F2"/><path d="M167.02 81.745c0 1.16-.679 8.563 1.225 9.619 5.574 3.09 11.866-3.377 11.866-5.346v-6.355l-13.087 2.087-.004-.005Z" fill="#FBAE96"/><path d="M158.065 52.67c-.545-5.663-3.856-10.39-6.716-8.018-2.861 2.373-6.132 4.87-5.436 8.017.39 1.762 9.56 4.64 9.56 4.64l2.592-4.64Z" fill="#37231B"/><path d="M152.422 58.192a.521.521 0 0 1-.329-.926c1.822-1.467 2.71-3.034 2.71-4.788 0-.29.233-.519.519-.519.285 0 .519.234.519.52 0 2.06-1.043 3.943-3.098 5.6a.518.518 0 0 1-.325.118l.004-.005Z" fill="#DE501D"/><path d="M154.058 66.123c-1.813.407-3.155.874-3.899.134-.744-.745 0-2.662 0-2.662l2.393-.386 1.506 2.914Z" fill="#82512B"/><path d="M187.56 68.05c-1.722 11.882-9.352 21.292-20.059 21.292-7.911 0-13.134-3.96-13.991-12.06-.199-1.883.182-4.497.039-5.601-.238-1.857-1.606-3.918-1.606-5.866 0-11.882 10.214-17.583 20.92-17.583 10.707 0 16.402 8.06 14.697 19.817Z" fill="#FBAE96"/><path d="M164.58 69.118c-.044-.385.869-1.16 2.12-.865 1.247.294 2.173 1.177 1.766 1.42-.407.242-1.32-.511-2.116-.42-.797.086-1.736.138-1.766-.135h-.004ZM158.384 69.344c.043-.386-.87-1.16-2.121-.866-1.246.294-2.172 1.177-1.766 1.42.407.242 1.32-.511 2.117-.42.796.09 1.735.138 1.765-.134h.005ZM162.969 61.824c9.114-.892 9.629 2.783 12.234 6.225 2.609 3.44 8.997 2.779 11.931 2.315 1-.155 2.51-6.657 2.095-10.54-.307-2.879-.139-8.168-6.068-11.25-5.928-3.083-7.988-3.775-13.749-2.706-5.755 1.07-12.009 16.501-6.448 15.956h.005Z" fill="#37231B"/><path d="M178.48 53.028c.546-5.662 6.089-10.48 8.954-8.108s5.544 9.112 4.06 10.142c-1.485 1.03-10.421 2.606-10.421 2.606l-2.593-4.64Z" fill="#37231B"/><path d="M181.963 57.82c-2.523 0-3.561-1.546-3.907-2.273-.606-1.268-.541-2.818.147-3.454a.52.52 0 1 1 .705.766c-.242.225-.394 1.242.082 2.238.364.761 1.346 1.982 3.843 1.614a.523.523 0 0 1 .152 1.035c-.368.052-.71.078-1.026.078l.004-.005Z" fill="#D9886B"/><path d="M149.473 65.677c3.043 3.952 4.233-6.801 12.689-4.745 3.302.801.71-4.861 3.856-7.056 3.142-2.194 8.153-7.103 2.7-7.813-5.452-.71-12.835 2.441-14.887 5.81-.913 1.497-2.8 3.497-3.072 6.198-.364 3.645-2.16 6.467-1.281 7.606h-.005Z" fill="#37231B"/><path d="M159.652 82.01s.948 2.181 3.475 2.315c2.528.134 2.982-2.294 2.982-2.294-2.224.757-4.15.913-6.457-.022Z" fill="#F1F2F2"/><path d="M166.419 72.14c-.441.164-.887.874-.675 1.921.212 1.044.995 1.502 1.484 1.186.489-.316.84-1.779.533-2.389-.308-.61-1.061-.823-1.346-.714l.004-.005ZM156.526 72.157c-.432.182-.852.91-.597 1.948.256 1.035 1.052 1.459 1.532 1.126.481-.338.766-1.81.437-2.407-.329-.598-1.095-.78-1.372-.663v-.004Z" fill="#372313"/><path d="M172.786 57.591c-1.078-1.247-3.095-1.58-4.592-1-.364.143-.212.727.164.593 1.372-.489 2.939-.164 3.977.857.295.29.719-.142.451-.45ZM174.846 51.839c-1.839-.442-3.535-.226-5.223.61-.364.182-.043.723.32.545 1.558-.757 3.051-.874 4.739-.55.394.078.567-.51.169-.605h-.005ZM182.208 63.656c-1.082.354-2.432-.788-2.389-1.896.018-.399-.588-.395-.614 0-.095 1.471 1.722 3.073 3.172 2.506.368-.147.225-.74-.169-.61ZM156.926 55.08c-1.052-.1-2.107.251-2.722 1.152-.229.333-.342.714-.463 1.095-.177.558-.368.814-.982.87-.399.039-.412.623 0 .632.908.013 1.354-.52 1.614-1.329.151-.476.294-.905.679-1.255.511-.468 1.208-.593 1.878-.554.399.021.386-.576 0-.61h-.004ZM161.989 49.639c-.697-.178-1.164-.688-1.934-.593-.719.09-1.29.593-1.731 1.134-.251.307.164.753.445.446.424-.455.948-1 1.632-.935.506.047.922.45 1.424.55.389.078.558-.502.164-.602Z" fill="#643D20"/><path d="M167.497 89.689a.348.348 0 0 1-.347-.346c0-.191.156-.347.347-.347 3.029 0 5.552-.584 7.491-1.736a.347.347 0 1 1 .355.598c-2.047 1.216-4.687 1.83-7.846 1.83Z" fill="#C48976"/><path d="M169.467 146.105c0-5.562 7.768-16.384 22.028-16.384 14.259 0 21.564.995 21.564.995v15.181l-43.592.208Z" fill="#DB7E5D"/><path d="M169.223 133.643a.517.517 0 0 1-.485-.333.524.524 0 0 1 .299-.676c4.436-1.696 21.153-3.471 24.919-3.424.289 0 .519.238.515.529a.521.521 0 0 1-.52.515h-.008c-3.605-.052-20.293 1.731-24.53 3.354a.552.552 0 0 1-.186.035h-.004Z" fill="#9E614B"/><path d="M99.946 136.907h65.421a6.977 6.977 0 0 1 6.972 6.973v1.083H99.941v-8.061l.005.005Z" fill="#7781A6"/><path d="M156.517 144.967H84.479l-4.734-53.552c-.273-1.545.402-2.97 1.951-2.97h67.481c1.204 0 2.238.875 2.45 2.079l4.89 54.443Z" fill="#7781A6"/><path d="M120.689 108.587c.19 2.97-1.887 5.52-4.639 5.697-2.753.178-5.141-2.082-5.336-5.052-.195-2.969 1.887-5.519 4.639-5.696 2.752-.178 5.141 2.082 5.336 5.051Z" fill="#DBDBDB"/><path d="M278 144.123H0v11.389h278v-11.389Z" fill="#DCBFA3"/><path d="M247.492 38.911c0-5.051-.545-27.033 6.686-37.41 0 .001 1.636 8.736 1.636 15.498 0 6.762-5.05 33.106-5.05 33.106l-3.277-11.194h.005ZM221.458 0s13.783 53.383 13.783 64.031c0 10.65-6.348 6.554-6.348 6.554s-4.709-37.067-6.349-41.3c-1.636-4.234-.615-7.784-.615-10.719 0-2.935-1.501-6.688-1.501-9.489 0-2.8 1.025-9.077 1.025-9.077h.005Z" fill="#A7CBBD"/><path d="M240.669 117.302c1.229-5.251 8.803-12.099 8.803-18.952 0-6.852-.818-33.106 1.432-38.357 2.251-5.25 4.094-13.926 4.094-18.952 0-5.025 6.141-10.272 6.141-13.925v-6.164s2.865 3.883 2.865 10.047c0 6.164-2.25 14.155-4.094 16.211-1.844 2.056-3.073 4.567-3.073 8.904 0 4.338-1.025 25.8-1.025 31.51 0 5.71-.411 6.848-1.844 12.328-1.432 5.48-12.286 18.493-12.286 18.493l-1.026-1.143h.013Z" fill="#A4CABB"/><path d="M228.996 117.302c-2.865-6.394-7.37-20.09-7.37-26.713 0-6.623 1.026-13.013 0-16.666-1.026-3.654-6.781-28.05-4.54-37.024 1.398-5.593 1.878-1.654 1.878-1.654s9.011 14.25 10.032 19.956c1.021 5.705-.316 16.44 1.026 19.618 1.337 3.177 3.687 10.748 3.687 15.774v26.029l-4.709.684-.004-.004Z" fill="#C2E8D8"/><path d="m240.67 32.82-9.417-18.492s-3.276 10.502-3.276 13.926c0 3.424-1.229 6.164-1.229 9.588 0 3.424 2.865 10.502 2.865 16.44 0 5.94-1.026 12.1-1.026 17.126 0 5.025 5.12 45.893 5.12 45.893h3.687l3.276-84.476v-.004Z" fill="#92BCAB"/><path d="M237.39 117.301c0-4.567-1.433-8.22-1.433-15.068 0-6.848 0-11.186-1.229-19.636s2.662-20.778 2.662-26.258-2.047-21.692 0-27.856c2.047-6.164 4.297-18.722 4.297-18.722s10.646 23.744 10.646 27.856v27.397c0 5.25-2.25 13.7-3.276 19.406-1.025 5.71-1.025 10.047-1.025 15.982 0 5.934-4.622 16.895-4.622 16.895h-6.024l.004.004Z" fill="#C2E8D8"/><path d="M253.536 144.244h-29.618l-3.904-33.098a2.817 2.817 0 0 1 2.8-3.147h31.666a2.816 2.816 0 0 1 2.8 3.134l-3.739 33.111h-.005Z" fill="#E3AC69"/><path d="M255.667 134.413h-34.084l-1.151-15.973h36.317l-1.082 15.973Z" fill="#FCC583"/><path d="M35.012 131.569c-18.206 0-33.02-14.818-33.02-33.029 0-10.238 4.63-19.73 12.71-26.042a.959.959 0 0 1 1.33.143L57 121.933a.958.958 0 0 1-.104 1.333 32.971 32.971 0 0 1-21.89 8.298l.005.005Zm-19.85-56.967C8.002 80.537 3.917 89.212 3.917 98.544c0 17.151 13.948 31.103 31.094 31.103a31.05 31.05 0 0 0 19.907-7.208L15.161 74.602Z" fill="#9CA8D3"/><path d="M35.016 124.967c14.592 0 26.42-11.832 26.42-26.427 0-14.595-11.828-26.427-26.42-26.427-14.591 0-26.42 11.832-26.42 26.427 0 14.595 11.828 26.427 26.42 26.427Z" fill="#A3D8F5"/><mask id="a" style="mask-type:luminance" maskUnits="userSpaceOnUse" x="8" y="72" width="54" height="53"><path d="M35.02 124.967c14.591 0 26.42-11.832 26.42-26.427 0-14.595-11.828-26.427-26.42-26.427-14.592 0-26.42 11.832-26.42 26.427 0 14.595 11.828 26.427 26.42 26.427Z" fill="#fff"/></mask><g mask="url(#a)"><path d="M22.078 92.375c-4.09 2.762-9.243 12.766-4.09 12.008 5.15-.757 7.579-4.242 10.002-.606 2.424 3.637 2.683 6.217 7.024 6.217 4.34 0 9.975 3.246 10.858 2.367.878-.878-2.272-6.155-3.938-11.159-1.666-5-6.67-10.004-10.001-11.368-3.333-1.363-9.85 2.541-9.85 2.541h-.005Z" fill="#DEB788"/><path d="M37.59 94.19c-1.882-2.066-3.981-3.672-5.66-4.356-3.332-1.363-9.85 2.541-9.85 2.541-1.882 1.273-3.99 4.078-5.215 6.662 2.471.528 2.64-1.7 7.076-2.134 5.15-.506 4.847-.51 7.474 1.108 2.627 1.62 1.644-.904 3.6-1.917 1.251-.645 2.112-1.334 2.575-1.905Z" fill="#7DD2B1"/><path d="M18.595 92.375c-2.878-1.026-4.696-.723-4.696-4.212s1.104-4.48-.735-4.48c-1.84 0-5.934 7.952-5.934 10.307 0 2.355 4.687 2.394 5.683 1.398.995-.996 5.682-3.013 5.682-3.013Z" fill="#DEB788"/><path d="M43.898 71.168c-7.729 0-12.576 6.84-7.274 8.81 5.301 1.97 6.214 1.645 9.395 3.705 3.18 2.056 6.21 4.632 6.972 2.662.757-1.97 3.938-2.424 3.938-4.09 0-1.667-11.819-11.082-13.03-11.082v-.005Z" fill="#7CC8AA"/><path d="M31.928 126.058c-.908-2.425-.973-3.182 2.467-4.546 3.44-1.363 3.895-1.666 6.777-3.03 2.878-1.363 3.484-1.363 6.366-1.363 2.883 0 4.241 3.181 4.241 3.181s-5.686 3.515-6.115 3.939c-.428.425-13.736 1.819-13.736 1.819ZM17.656 78.164c1.571 0 2.272.753 6.67-.762 4.392-1.515 6.742-5.173 6.742-5.173l-8.258 1.459-5.15 4.476h-.004Z" fill="#F1F2F2"/></g><path d="M50.47 104.752c.757.757.718 2.16 1.593 1.29.87-.87-.152-1.706 1.29-1.29 1.44.416 2.35-.455 2.35-1.745s.077-2.653-1.364-2.121c-1.441.533-2.35.909-3.259 1.364-.909.454-.606 2.502-.606 2.502h-.004ZM55.701 107.025c0-.909.442-1.481 1.212-.71.77.77 2.804 2.601 1.441 2.147-1.363-.455-2.648-1.442-2.648-1.442l-.005.005Z" fill="#DCF8C1"/><path d="M53.803 99.068c0-.757 1.601-1.571 2.458-2.424.852-.853.199-2.273.99-2.273.793 0 .793-.229.793.91 0 1.138.606 2.653-.455 2.653-1.06 0-1.211.455-1.89 1.139-.684.684-1.896 0-1.896 0v-.005Z" fill="#E3AC69"/><path d="m35.323 130.608 4.786 9.701H29.922l5.4-9.701Z" fill="#9CA8D3"/><path d="M27.913 138.638H42.12a4.985 4.985 0 0 1 4.982 4.982v.935h-24.17v-.935a4.985 4.985 0 0 1 4.98-4.982Z" fill="#9CA8D3"/><path d="M197.206 92.411c-.363 3.831-5.509 6.078-1.112 10.476 1.233 1.233 3.081 2.311 4.561 2.069 2.662-.437 4.808-3.645 4.639-5.286-.484-4.657-6.309-9.679-6.945-9.042-.637.636-1.017.489-1.143 1.783Z" fill="#FBAE96"/><path d="M195.335 101.878a.243.243 0 0 1-.204-.113.234.234 0 0 1 .078-.325c1.619-.995 3.597-3.147 3.982-4.878a155.476 155.476 0 0 1 1.082-4.433.238.238 0 0 1 .29-.169c.125.035.203.16.168.29-.008.026-.696 2.702-1.077 4.42-.416 1.883-2.458 4.112-4.198 5.182a.22.22 0 0 1-.126.034l.005-.008ZM196.584 103.315a.237.237 0 0 1-.234-.191.237.237 0 0 1 .186-.277c1.195-.233 3.77-2.575 4.242-3.679.502-1.173 1.544-4.714 1.544-5.13a.24.24 0 0 1 .239-.238.24.24 0 0 1 .238.238c0 .559-1.121 4.243-1.58 5.316-.485 1.134-3.133 3.675-4.587 3.957-.013 0-.031.004-.044.004h-.004ZM199.098 104.493a.236.236 0 0 1-.225-.161.236.236 0 0 1 .147-.303c1.558-.545 3.358-2.502 3.813-3.558.467-1.082 1.272-3.649 1.276-3.675a.239.239 0 0 1 .455.143c-.035.108-.823 2.615-1.294 3.718-.481 1.122-2.359 3.217-4.094 3.823a.266.266 0 0 1-.078.013Z" fill="#C99565"/><path d="m74.938 144.513-23.335.069-.03-9.934 23.335-.069a1.623 1.623 0 0 1 1.628 1.618l.02 6.684a1.624 1.624 0 0 1-1.618 1.628v.004Z" fill="#7096C4"/><path d="m58.825 141.793-.013-4.454c0-.498-.35-.905-.784-.905l-26.628.083c-.026 0-.052-.018-.065-.044-.238-.519-.229-1.095 0-1.714.013-.03.035-.047.065-.047l28.1-.087c.428 0 .779.403.783.905l.026 8.125c0 .498-.346.905-.779.909l-27.948.086c-.13 0-.247-.09-.29-.233-.147-.45-.134-.914.005-1.394.043-.143.16-.238.29-.238l26.459-.078c.428 0 .779-.407.779-.909v-.005Z" fill="#79ADDD"/><path d="m36.485 137.945-4.24.013c.077-.22.18-.22.302-1.766l26.092-.078c.095 0 .125.407.13.515l.017 6.108c0 .109-26.373.096-26.373.096-.208-1.472-.26-1.542-.329-2.178l2.54-.065-2.48.009c-.069 0-.038-1.606.066-2.407l4.275-.251v.004Z" fill="#E6E6E6"/><path d="m58.2 138.318.009 2.904.004.65-1.142-.321-1.139.329v-.649l-.008-2.904 2.276-.009Z" fill="#F6A447"/><path d="M222.814 97.047c-.749 5.77-6.306 9.666-12.049 8.757-5.742-.909-9.663-6.307-8.75-12.052.909-5.744 6.305-9.666 12.048-8.752 5.743.913 9.309 7.744 8.755 12.051l-.004-.004Z" fill="#FCDCB5"/><path d="M238.795 119.327c1.385 12.952 1.688 25.648-15.653 25.648-13.221 0-16.748-9.753-16.021-24.67.714-14.644 4.994-29.842 12.983-26.029 8.855 4.225 17.289 11.982 18.691 25.051Z" fill="#FCDCB5"/><path d="M209.359 105.414a.495.495 0 0 1-.428-.744c3.129-5.437 6.413-7.078 9.784-8.407 3.484-1.372 4.618-.645 4.813-.484l-.636.766s.008.008.026.017c-.009-.004-.901-.532-3.835.623-3.198 1.26-6.318 2.818-9.287 7.978a.497.497 0 0 1-.433.251h-.004Z" fill="#9E614B"/><path d="M249.011 170.996h-.121a2.704 2.704 0 0 1-2.583-2.819c0-.047.212-5.034-.039-10.363-.433-9.155-2.026-10.757-3.25-11.397-1.818-.875-9.244-2.035-16.35-2.65a2.702 2.702 0 0 1 .467-5.385c3.778.329 16.359 1.537 19.73 3.342 1.774.948 2.964 3.035 3.743 6.567.498 2.247.844 5.156 1.03 8.645.312 5.818.078 11.25.07 11.48a2.705 2.705 0 0 1-2.701 2.584l.004-.004ZM203.808 93.545l-3.484-4.489a.692.692 0 0 1 .615-1.112l5.578.562-2.709 5.04ZM216.777 86.433l-1.995-4.217a.41.41 0 0 0-.771 0l-1.761 3.788 4.527.424v.005ZM211.834 120.349a3.377 3.377 0 0 1-2.942-3.485c.103-2.493-1.121-3.809-2.169-4.476-1.32-.84-2.579-.814-2.908-.662a3.377 3.377 0 0 1-4.704-.624 3.367 3.367 0 0 1 .602-4.727c2.419-1.87 6.322-1.952 9.715-.199 4.085 2.108 6.405 6.212 6.206 10.974a3.369 3.369 0 0 1-3.51 3.225c-.099 0-.194-.013-.29-.026ZM217.118 139.876c-.709 0-12.264-.689-12.299 2.459-.039 3.147 1.48 2.584 5.713 2.584 4.232 0 10.892.039 10.892.039l-4.306-5.082Z" fill="#FCDCB5"/></svg>