<svg width="518" height="416" fill="none" xmlns="http://www.w3.org/2000/svg"><path d="M363.241 262.777c-3.492-1.714-6.088 3.839-1.863 5.463 4.226 1.625 6.62 2.684 7.951 2.684 1.331 0 2.548-3.46 1.411-4.599-1.137-1.14-5.088-2.368-7.499-3.548Z" fill="#FBAE96"/><path d="M197.579 217.5c5.919 0 7.475 7.622 14.862 10.079 9.16 3.047 21.062-1.77 24.134-9.626 3.992-10.208-3.564-15.526-1.846-32.491 1.137-11.242-6.5-10.248-13.039-21.191-6.54-10.952-4.79-12.14-13.66-22.202-8.871-10.063-23.692-11.485-34.828-9.715-11.136 1.77-16.684 3.815-25.401 9.82-8.717 6.005-4.773 12.438-10.378 16.682-5.604 4.235-8.104 9.157-9.797 17.579-3.258 16.164 7.693 23.98 2.774 29.564-4.919 5.585-14.902 30.616 10.926 29.104 9.128-.533 17.305 2.474 21.78-4.469 6.589-10.216 9.879-3.419 18.902-7.896 9.031-4.486 15.563-5.221 15.563-5.221l.008-.017Z" fill="#37231B"/><path d="M131.385 223.029c21.748-17.741 23.812 0 75.985-3.468 6.434-.428 35.722 5.48 41.375 8.964 28.658 17.643 51.06 133.187 51.06 133.187l-165.953-1.835-2.467-136.848Z" fill="#FCC583"/><path d="M172.977 214.963c-.379 7.322-7.032.396-7.032 9.674 0 8.058 8.999 20.933 34.473 16.851 16.2-2.594 21.071-16.455 11.442-20.496-5.451-2.287-8.023-11.477-8.023-11.477l-30.86 5.439v.009Z" fill="#FBAE96"/><path d="M207.513 172.984c5.008 20.108 4.814 49.318-18.039 51.071-27.957 2.15-58.736-52.841-36.303-73.031 22.434-20.189 47.246-6.514 54.342 21.96Z" fill="#FBAE96"/><path d="M163.186 166.065c-3.29 6.361-3.523 7.5-7.168 11.153-3.645 3.654-3.306 13.118-1.565 18.517 8.298 25.742 1.194 13.311-.451 14.96-1.645 1.649-8.459-15.162-9.395-16.1-.943-.945-8.337-27.9-8.337-30.728 0-2.829 17.812-19.883 19.965-22.049 2.161-2.166 21.611-6.207 27.135-6.207 5.524 0 16.563-.703 18.918 3.063 2.346 3.767 17.619 35.32 17.619 35.32s9.16 14.701 2.967 14.289c-7.926-.533-9.418-2.134-11.45-6.781-2.177-4.995-4.242-16.213-15.16-12.503-18.458 6.264-33.078-2.918-33.078-2.918v-.016Z" fill="#37231B"/><path d="M87.397 372.889c-7.072-44.137 28.045-145.682 50.842-154.929 16.063-6.522 28.441-1.39 31.424 16.432 2.984 17.821-24.175 101.795-24.175 101.795s79.646-21.935 86.702 0c7.047 21.936 3.524 37.478 3.524 37.478l-148.31-.776h-.007Z" fill="#FCC583"/><path d="M161.027 338.427c-7.298 0-13.781-.162-18.684-.291-2.363-.057-4.411-.113-6.08-.138-.726-.008-1.331-.339-1.71-.921-1.822-2.821 2.145-12.447 9.927-30.656 7.959-18.638 17.861-41.834 17.861-54.418a.993.993 0 1 1 1.984 0c0 12.997-9.991 36.395-18.023 55.202-3.201 7.492-6.217 14.564-8.112 19.834-2.709 7.541-2.129 8.777-1.967 8.963h.064c1.677.024 3.734.073 6.104.138 10.887.274 27.329.695 44.246-.558a.995.995 0 0 1 1.065.921.995.995 0 0 1-.92 1.067c-8.878.655-17.796.849-25.755.849v.008Z" fill="#C99565"/><path d="M173.236 192.995c-.178 1.148 1.024 4.615 3.588 3.823 1.694-.525 1.411-4.857-.58-5.649-1.621-.639-2.831.678-3.008 1.826ZM194.256 186.561c-.298 1.124.758 4.68 3.387 4.155 1.742-.34 1.685-4.656-.202-5.65-1.54-.816-2.887.372-3.185 1.495Z" fill="#372313"/><path d="M184.453 212.271c1.395 1.616 4.742 3.516 9.886 1.77 5.145-1.746 4.556-6.943 4.556-6.943-4.644 2.942-9.071 4.356-14.442 5.165v.008Z" fill="#E66C40"/><path d="M190.483 182.593c1.032 0 4.298-2.295 7.403-1.794 3.104.501 2.991.072 2.249-.679-.75-.752-2.854-1.528-6.789-1.019-4.774.623-3.758 3.492-2.863 3.492ZM176.799 185.891c.056-.994-2.073-1.237-3.613-.833-2.112.558-5.338 3.645-5.87 5.86-.282 1.156.532 1.722 1.717.097 1.404-1.915 2.508-3.079 4.29-3.354 1.436-.226 3.436-.986 3.476-1.762v-.008Z" fill="#37231B"/><path d="M159.012 196.099c2.515 3.556 5.983 10.547 3.403 12.382-2.581 1.835-10.233-2.174-12.749-5.73-2.516-3.557-2.468-7.929.113-9.764 2.58-1.834 6.717-.444 9.233 3.112Z" fill="#FBAE96"/><path d="M189.921 226.512c-5.072 0-9.281-1.697-9.515-1.794a.65.65 0 0 1 .492-1.205c.072.033 7.394 2.975 14.071 1.019a.653.653 0 0 1 .806.444.656.656 0 0 1-.443.809c-1.823.533-3.669.735-5.411.735v-.008Z" fill="#C99565"/><path d="M161.721 209.523c1.831 1.835 10.306 10.151 18.926 14.597 2.5 1.293 1.234 9.892 1.016 11.177-1.645 9.78-12.096 7.67-18.337 4.543-6.701-3.363-.428-24.797-9.911-25.443-10.749-.736-15.022 4.033-16.587 3.62-3.064-.816 2.427-5.584 9.903-7.839 5.991-1.803 13.893-1.358 14.99-.655Z" fill="#37231B"/><path d="M166.26 143.426c-4.064-.671-6.047 4.235-7.95 6.927-.379.533.5 1.212.903.703 1.774-2.215 3.395-6.894 6.886-6.466.653.081.815-1.051.153-1.164h.008ZM168.091 147.621c-2.741.25-4.346 2.376-5.935 4.389-.459.582.347 1.406.823.824 1.363-1.689 2.79-3.75 5.12-4.033.734-.089.766-1.253 0-1.18h-.008ZM148.447 172.394c-2.338 2.812-3.927 6.401-4.58 10.005-.137.736.984 1.059 1.137.316.677-3.379 2.113-6.789 4.266-9.497.459-.574-.339-1.398-.823-.824ZM175.532 229.535c.057-.768-1.113-.752-1.185 0-.145 1.632.169 3.273.088 4.914-.04.735-.129 1.592-.588 2.198-.589.776-1.557.776-2.444.711-.774-.056-.733 1.091 0 1.188 5.435.679 3.903-5.738 4.129-9.011ZM229.973 192.315c-.669-1.39-1.54-2.667-2.355-3.968-.532-.857-1.491-2.061-1.443-3.128.032-.743-1.113-.743-1.153 0-.056.897.443 1.795.871 2.546.669 1.188 1.443 2.32 2.137 3.492.629 1.05 1.338 2.206 1.54 3.443.21 1.285-.54 1.826-1.693 2.142-.742.202-.428 1.301.314 1.147 1.177-.25 2.29-.913 2.564-2.166.258-1.188-.266-2.449-.774-3.499l-.008-.009ZM230.029 206.565c-.669-.752-1.516-1.116-2.403-1.536-1.072-.517-1.621-1.026-1.468-2.303.073-.639-1.048-.801-1.137-.154-.266 1.899.67 2.853 2.299 3.613.806.372 2.128.937 2.33 1.939.153.793-1.153 1.431-1.613 1.94-.508.566.283 1.374.839.841.613-.59 1.5-1.083 1.855-1.891.395-.898-.097-1.771-.694-2.441l-.008-.008ZM199.241 152.22c-1.024-1.099-2.33-1.495-3.79-1.632-1.645-.162-3.25-.073-4.387-1.479-.492-.606-1.33.25-.854.856 2.12 2.676 5.902.825 8.184 3.096.541.541 1.355-.283.839-.841h.008Z" fill="#55341B"/><path d="M243.357 226.592c9.04 1.229 37.723 34.867 74.026 42.674 36.303 7.808 49.568-.428 49.568-.428l15.498 25.168c-35.521 26.082-91.007 12.382-126.181-5.18l-12.911-62.234Z" fill="#FCC583"/><path d="M387.302 369.301s21.934-69.37-24.038-103.364c-9.676-7.153-18.095-10.523-38.44-10.45-21.667.08-41.165 20.423-48.826 34.204-14.192 25.531-25.949 79.61-25.949 79.61h137.253Z" fill="#DB7E5D"/><path d="M361.386 369.243a.966.966 0 0 1-.967-.97v-39.522c-.009-.186-1.226-23.729-4.516-32.894a.965.965 0 0 1 .589-1.245.962.962 0 0 1 1.241.59c3.395 9.44 4.581 32.531 4.637 33.509v39.571a.966.966 0 0 1-.968.969l-.016-.008ZM289.875 362.947a.967.967 0 0 1-.959-.864c-.234-2.029-5.742-49.916-2.597-66.744a.974.974 0 0 1 1.137-.775.975.975 0 0 1 .774 1.139c-3.096 16.536 2.565 65.668 2.621 66.161a.978.978 0 0 1-.855 1.083h-.121Z" fill="#9E614B"/><path d="M312.099 263.536c-4.871 5.544-7.975 22.509.911 22.961 20.893 1.075 28.175-27.366 22.578-29.176-12.789-4.147-23.489 6.215-23.489 6.215Z" fill="#F1F2F2"/><path d="M311.204 249.351c0 2.166-1.266 15.987 2.282 17.959 10.386 5.77 22.111-6.304 22.111-9.982v-11.865l-24.385 3.896-.008-.008Z" fill="#FBAE96"/><path d="M294.529 195.063c-1.016-10.571-7.185-19.397-12.515-14.968-5.33 4.429-11.426 9.092-10.128 14.968.726 3.29 17.813 8.664 17.813 8.664l4.83-8.664Z" fill="#37231B"/><path d="M284.016 205.376a.973.973 0 0 1-.613-1.729c3.395-2.74 5.048-5.666 5.048-8.939 0-.542.435-.97.967-.97s.968.436.968.97c0 3.847-1.943 7.363-5.774 10.458a.955.955 0 0 1-.605.218l.009-.008Z" fill="#DE501D"/><path d="M287.062 220.183c-3.379.759-5.879 1.632-7.266.25-1.387-1.39 0-4.971 0-4.971l4.459-.719 2.807 5.44Z" fill="#82512B"/><path d="M349.484 223.779c-3.209 22.186-17.426 39.757-37.376 39.757-14.74 0-24.473-7.395-26.07-22.517-.371-3.516.339-8.398.073-10.459-.444-3.467-2.992-7.314-2.992-10.951 0-22.186 19.031-32.83 38.98-32.83 19.95 0 30.562 15.049 27.385 37Z" fill="#FBAE96"/><path d="M306.665 225.775c-.081-.719 1.621-2.166 3.951-1.616 2.322.55 4.048 2.198 3.29 2.651-.758.453-2.459-.954-3.943-.784-1.484.162-3.234.259-3.29-.251h-.008ZM295.117 226.196c.081-.72-1.62-2.166-3.951-1.617-2.322.55-4.048 2.199-3.29 2.651.758.453 2.46-.953 3.943-.784 1.484.17 3.234.259 3.29-.25h.008ZM303.666 212.157c16.983-1.665 17.942 5.197 22.797 11.622 4.862 6.425 16.764 5.189 22.231 4.324 1.863-.291 4.677-12.431 3.903-19.68-.572-5.375-.258-15.251-11.305-21.006-11.048-5.755-14.886-7.048-25.619-5.051-10.725 1.996-22.377 30.809-12.015 29.791h.008Z" fill="#37231B"/><path d="M332.557 195.734c1.016-10.572 11.345-19.567 16.684-15.138 5.338 4.429 10.329 17.013 7.563 18.937-2.765 1.923-19.417 4.865-19.417 4.865l-4.83-8.664Z" fill="#37231B"/><path d="M339.049 204.682c-4.701 0-6.637-2.886-7.282-4.244-1.129-2.368-1.008-5.261.274-6.449a.968.968 0 0 1 1.371.056.973.973 0 0 1-.056 1.374c-.452.421-.734 2.32.153 4.179.677 1.422 2.508 3.702 7.161 3.015a.977.977 0 0 1 1.104.824.975.975 0 0 1-.822 1.107c-.686.097-1.323.146-1.911.146l.008-.008Z" fill="#D9886B"/><path d="M278.514 219.35c5.669 7.379 7.886-12.697 23.643-8.858 6.153 1.495 1.322-9.076 7.185-13.174 5.854-4.098 15.192-13.263 5.032-14.589-10.161-1.325-23.918 4.559-27.74 10.847-1.701 2.796-5.217 6.53-5.725 11.574-.677 6.805-4.024 12.074-2.387 14.2h-.008Z" fill="#37231B"/><path d="M297.48 249.844s1.766 4.074 6.476 4.324c4.709.251 5.556-4.283 5.556-4.283-4.145 1.414-7.734 1.705-12.032-.041Z" fill="#F1F2F2"/><path d="M310.092 231.416c-.823.308-1.653 1.633-1.258 3.589.395 1.948 1.855 2.805 2.766 2.215.911-.59 1.564-3.322.992-4.462-.573-1.139-1.976-1.536-2.508-1.333l.008-.009ZM291.658 231.449c-.806.339-1.589 1.697-1.113 3.637.476 1.932 1.96 2.724 2.855 2.101.895-.63 1.427-3.378.814-4.493-.613-1.116-2.04-1.455-2.556-1.237v-.008Z" fill="#372313"/><path d="M321.954 204.252c-2.008-2.327-5.765-2.95-8.555-1.867-.678.267-.396 1.358.306 1.108 2.556-.914 5.475-.307 7.411 1.6.548.542 1.338-.267.838-.841ZM325.793 193.511c-3.427-.824-6.588-.42-9.733 1.14-.677.339-.081 1.35.597 1.018 2.903-1.414 5.685-1.632 8.829-1.026.734.145 1.057-.954.315-1.132h-.008ZM339.509 215.576c-2.016.662-4.532-1.471-4.451-3.54.032-.744-1.097-.736-1.145 0-.177 2.748 3.209 5.738 5.911 4.679.685-.275.419-1.382-.315-1.139ZM292.401 199.565c-1.959-.186-3.927.469-5.072 2.15-.427.622-.637 1.333-.863 2.044-.33 1.043-.685 1.52-1.83 1.625-.742.073-.766 1.164 0 1.18 1.693.024 2.524-.97 3.008-2.481.282-.889.548-1.689 1.266-2.344.951-.873 2.249-1.107 3.499-1.035.742.041.718-1.075 0-1.139h-.008ZM301.836 189.406c-1.299-.332-2.17-1.286-3.605-1.108-1.338.17-2.403 1.108-3.225 2.118-.468.574.306 1.406.83.832.79-.848 1.766-1.867 3.04-1.745.944.088 1.718.84 2.653 1.026.726.145 1.04-.938.307-1.123Z" fill="#643D20"/><path d="M312.1 264.182a.647.647 0 0 1 0-1.293c5.645 0 10.346-1.091 13.959-3.241a.65.65 0 0 1 .661 1.116c-3.814 2.271-8.733 3.418-14.62 3.418Z" fill="#C48976"/><path d="M315.76 369.518c0-10.386 14.474-30.591 41.044-30.591 26.57 0 40.182 1.859 40.182 1.859v28.344l-81.226.388Z" fill="#DB7E5D"/><path d="M315.308 346.25a.964.964 0 0 1-.903-.623.978.978 0 0 1 .557-1.261c8.265-3.168 39.415-6.481 46.431-6.393.54 0 .968.445.959.986a.97.97 0 0 1-.967.962h-.016c-6.717-.097-37.811 3.233-45.706 6.264-.113.04-.234.065-.346.065h-.009Z" fill="#9E614B"/><path d="M186.231 352.344h121.9c7.168 0 12.99 5.835 12.99 13.021v2.02H186.223v-15.049l.008.008Z" fill="#7781A6"/><path d="M291.642 367.393h-134.23l-8.822-99.985c-.508-2.886.75-5.545 3.637-5.545h125.738c2.242 0 4.169 1.633 4.565 3.88l9.112 101.65Z" fill="#7781A6"/><path d="M224.882 299.47c.355 5.544-3.516 10.305-8.644 10.636-5.129.331-9.58-3.888-9.943-9.432-.363-5.544 3.516-10.305 8.644-10.636 5.129-.332 9.58 3.887 9.943 9.432Z" fill="#DBDBDB"/><path d="M518 365.817H0v21.265h518v-21.265Z" fill="#DCBFA3"/><path d="M461.156 169.378c0-9.432-1.016-50.473 12.459-69.846 0 0 3.048 16.31 3.048 28.934 0 12.625-9.411 61.813-9.411 61.813l-6.104-20.901h.008ZM412.644 96.727s25.683 99.67 25.683 119.553c0 19.882-11.83 12.236-11.83 12.236s-8.773-69.208-11.829-77.113c-3.048-7.904-1.145-14.531-1.145-20.011 0-5.48-2.798-12.487-2.798-17.716 0-5.23 1.911-16.949 1.911-16.949h.008Z" fill="#A7CBBD"/><path d="M448.44 315.74c2.29-9.804 16.402-22.59 16.402-35.384 0-12.795-1.524-61.813 2.669-71.617 4.193-9.804 7.628-26.001 7.628-35.384 0-9.384 11.443-19.179 11.443-26.001v-11.509s5.338 7.25 5.338 18.759-4.193 26.429-7.628 30.268c-3.435 3.839-5.726 8.527-5.726 16.625 0 8.099-1.911 48.17-1.911 58.831 0 10.66-.766 12.786-3.435 23.018-2.669 10.232-22.893 34.527-22.893 34.527l-1.911-2.133h.024Z" fill="#A4CABB"/><path d="M426.692 315.74c-5.338-11.938-13.732-37.51-13.732-49.876s1.911-24.295 0-31.117c-1.912-6.821-12.636-52.372-8.459-69.127 2.604-10.442 3.499-3.087 3.499-3.087s16.789 26.606 18.692 37.259c1.903 10.652-.589 30.696 1.911 36.628 2.492 5.933 6.871 20.069 6.871 29.452v48.599l-8.774 1.277-.008-.008Z" fill="#C2E8D8"/><path d="m448.441 158.007-17.547-34.528s-6.104 19.608-6.104 26.001c0 6.393-2.29 11.509-2.29 17.902 0 6.393 5.338 19.608 5.338 30.697 0 11.088-1.911 22.589-1.911 31.973 0 9.383 9.539 85.688 9.539 85.688h6.871l6.104-157.725v-.008Z" fill="#92BCAB"/><path d="M442.336 315.739c0-8.527-2.669-15.348-2.669-28.134s0-20.885-2.29-36.661c-2.29-15.777 4.959-38.795 4.959-49.027s-3.814-40.5 0-52.009 8.008-34.956 8.008-34.956 19.836 44.331 19.836 52.009v51.153c0 9.804-4.193 25.58-6.104 36.233-1.911 10.66-1.911 18.758-1.911 29.839s-8.612 31.545-8.612 31.545h-11.225l.008.008Z" fill="#C2E8D8"/><path d="M472.421 366.044h-55.188l-7.274-61.797a5.256 5.256 0 0 1 5.217-5.876h59.003c3.137 0 5.572 2.732 5.217 5.852l-6.967 61.821h-.008Z" fill="#E3AC69"/><path d="M476.388 347.688h-63.511l-2.145-29.823h67.672l-2.016 29.823Z" fill="#FCC583"/><path d="M65.236 342.378c-33.925 0-61.527-27.665-61.527-61.667 0-19.114 8.628-36.839 23.683-48.623a1.783 1.783 0 0 1 2.476.267l76.339 92.032a1.792 1.792 0 0 1-.193 2.49 61.364 61.364 0 0 1-40.787 15.493l.008.008ZM28.247 236.016c-13.338 11.081-20.95 27.278-20.95 44.703 0 32.022 25.99 58.071 57.939 58.071 13.595 0 26.699-4.769 37.093-13.457l-74.082-89.317Z" fill="#9CA8D3"/><path d="M65.233 330.053c27.189 0 49.229-22.091 49.229-49.342 0-27.251-22.04-49.342-49.229-49.342-27.188 0-49.23 22.091-49.23 49.342 0 27.251 22.042 49.342 49.23 49.342Z" fill="#A3D8F5"/><mask id="a" style="mask-type:luminance" maskUnits="userSpaceOnUse" x="16" y="231" width="99" height="100"><path d="M65.231 330.054c27.189 0 49.229-22.091 49.229-49.342 0-27.251-22.04-49.342-49.229-49.342-27.188 0-49.229 22.091-49.229 49.342 0 27.251 22.04 49.342 49.23 49.342Z" fill="#fff"/></mask><g mask="url(#a)"><path d="M41.132 269.202c-7.62 5.157-17.224 23.835-7.62 22.42 9.596-1.414 14.12-7.92 18.635-1.131 4.516 6.789 5 11.606 13.088 11.606s18.587 6.062 20.232 4.421c1.637-1.641-4.234-11.493-7.338-20.836-3.105-9.335-12.426-18.678-18.636-21.224-6.209-2.546-18.353 4.744-18.353 4.744h-.008Z" fill="#DEB788"/><path d="M70.031 272.589c-3.507-3.855-7.418-6.854-10.547-8.131-6.21-2.546-18.353 4.744-18.353 4.744-3.508 2.376-7.435 7.614-9.717 12.439 4.605.986 4.919-3.176 13.184-3.985 9.596-.945 9.032-.953 13.926 2.069 4.895 3.023 3.065-1.689 6.71-3.58 2.33-1.204 3.935-2.489 4.797-3.556Z" fill="#7DD2B1"/><path d="M34.64 269.202c-5.362-1.915-8.749-1.349-8.749-7.864 0-6.514 2.056-8.365-1.37-8.365-3.428 0-11.056 14.847-11.056 19.244s8.733 4.469 10.588 2.611c1.854-1.859 10.587-5.626 10.587-5.626Z" fill="#DEB788"/><path d="M81.789 229.607c-14.402 0-23.434 12.77-13.555 16.448 9.878 3.677 11.58 3.071 17.506 6.918 5.927 3.839 11.571 8.648 12.99 4.971 1.412-3.678 7.339-4.526 7.339-7.638s-22.023-20.69-24.28-20.69v-.009Z" fill="#7CC8AA"/><path d="M59.484 332.09c-1.694-4.526-1.815-5.941 4.596-8.487 6.41-2.546 7.257-3.111 12.628-5.657 5.362-2.546 6.491-2.546 11.862-2.546 5.37 0 7.902 5.94 7.902 5.94s-10.596 6.563-11.394 7.355c-.798.792-25.594 3.395-25.594 3.395ZM32.89 242.669c2.928 0 4.234 1.406 12.427-1.423 8.185-2.829 12.563-9.658 12.563-9.658l-15.385 2.724-9.596 8.357h-.008Z" fill="#F1F2F2"/></g><path d="M94.04 292.309c1.41 1.415 1.338 4.033 2.967 2.409 1.62-1.625-.282-3.184 2.403-2.409 2.685.776 4.378-.848 4.378-3.257 0-2.408.146-4.954-2.54-3.96-2.685.994-4.378 1.697-6.072 2.546-1.693.848-1.129 4.671-1.129 4.671h-.008ZM103.779 296.552c0-1.697.823-2.764 2.258-1.325 1.436 1.438 5.225 4.857 2.685 4.009-2.54-.849-4.935-2.692-4.935-2.692l-.008.008Z" fill="#DCF8C1"/><path d="M100.248 281.697c0-1.414 2.984-2.934 4.58-4.526 1.589-1.592.371-4.243 1.847-4.243s1.476-.428 1.476 1.697c0 2.126 1.128 4.955-.847 4.955-1.976 0-2.258.848-3.524 2.125-1.274 1.277-3.532 0-3.532 0v-.008Z" fill="#E3AC69"/><path d="m65.806 340.584 8.918 18.113H55.742l10.064-18.113Z" fill="#9CA8D3"/><path d="M52.002 355.577h26.473c5.12 0 9.282 4.17 9.282 9.302v1.746H42.72v-1.746c0-5.132 4.16-9.302 9.281-9.302Z" fill="#9CA8D3"/><path d="M367.458 269.267c-.677 7.152-10.265 11.347-2.072 19.559 2.298 2.303 5.741 4.316 8.499 3.863 4.959-.816 8.959-6.805 8.644-9.868-.903-8.697-11.757-18.072-12.942-16.884-1.186 1.188-1.895.913-2.129 3.33Z" fill="#FBAE96"/><path d="M363.975 286.942a.452.452 0 0 1-.379-.21.435.435 0 0 1 .145-.606c3.016-1.859 6.701-5.876 7.419-9.109.709-3.217 1.999-8.228 2.015-8.276a.444.444 0 0 1 .541-.315.44.44 0 0 1 .314.541c-.016.049-1.298 5.043-2.008 8.252-.774 3.516-4.58 7.678-7.821 9.674a.41.41 0 0 1-.234.065l.008-.016ZM366.298 289.626a.442.442 0 0 1-.089-.873c2.225-.437 7.023-4.809 7.902-6.87.936-2.19 2.879-8.802 2.879-9.578 0-.242.202-.444.444-.444s.443.202.443.444c0 1.043-2.088 7.921-2.943 9.925-.903 2.118-5.838 6.862-8.548 7.388-.024 0-.056.008-.08.008h-.008ZM370.981 291.824a.44.44 0 0 1-.419-.299.442.442 0 0 1 .274-.566c2.903-1.018 6.258-4.671 7.104-6.643.871-2.021 2.371-6.814 2.379-6.862a.444.444 0 1 1 .847.266c-.065.203-1.532 4.882-2.411 6.943-.895 2.093-4.395 6.005-7.628 7.137a.465.465 0 0 1-.146.024Z" fill="#C99565"/><path d="m139.634 366.546-43.48.129-.054-18.548 43.479-.13a3.028 3.028 0 0 1 3.033 3.022l.037 12.479a3.029 3.029 0 0 1-3.015 3.04v.008Z" fill="#7096C4"/><path d="m109.61 361.469-.024-8.317c0-.929-.653-1.689-1.46-1.689l-49.616.153a.141.141 0 0 1-.12-.08c-.444-.97-.428-2.045 0-3.201.023-.057.064-.089.12-.089l52.358-.162c.798 0 1.452.752 1.46 1.69l.048 15.17c0 .929-.645 1.689-1.451 1.697l-52.076.162c-.242 0-.46-.17-.54-.437-.275-.84-.25-1.705.008-2.602.08-.267.298-.445.54-.445l49.302-.145c.798 0 1.451-.76 1.451-1.697v-.008Z" fill="#79ADDD"/><path d="m67.986 354.284-7.903.024c.146-.412.34-.412.565-3.297l48.616-.146c.178 0 .234.76.242.962l.033 11.404c0 .202-49.141.178-49.141.178-.387-2.748-.484-2.877-.613-4.065l4.734-.122-4.621.016c-.129 0-.073-2.998.121-4.493l7.967-.469v.008Z" fill="#E6E6E6"/><path d="m108.449 354.979.016 5.423.008 1.212-2.129-.598-2.121.614v-1.212l-.016-5.423 4.242-.016Z" fill="#F6A447"/><path d="M415.17 277.923c-1.395 10.774-11.749 18.048-22.449 16.35-10.701-1.697-18.007-11.775-16.305-22.501 1.693-10.725 11.749-18.047 22.449-16.342 10.701 1.706 17.346 14.459 16.313 22.501l-.008-.008Z" fill="#FCDCB5"/><path d="M444.948 319.522c2.581 24.182 3.145 47.888-29.166 47.888-24.635 0-31.207-18.21-29.852-46.061 1.33-27.342 9.305-55.719 24.191-48.599 16.498 7.889 32.215 22.372 34.827 46.772Z" fill="#FCDCB5"/><path d="M390.1 293.546a.95.95 0 0 1-.46-.121.928.928 0 0 1-.339-1.269c5.83-10.151 11.951-13.215 18.232-15.696 6.492-2.562 8.604-1.204 8.967-.905l-1.185 1.431s.016.016.048.032c-.016-.008-1.677-.994-7.144 1.164-5.959 2.352-11.773 5.261-17.305 14.895a.927.927 0 0 1-.806.469h-.008Z" fill="#9E614B"/><path d="M463.989 415.992h-.226a5.045 5.045 0 0 1-4.814-5.262c0-.089.395-9.4-.073-19.349-.806-17.094-3.774-20.084-6.056-21.28-3.386-1.633-17.224-3.799-30.465-4.947a5.042 5.042 0 0 1-4.58-5.463c.242-2.781 2.686-4.833 5.451-4.591 7.04.614 30.481 2.869 36.763 6.24 3.306 1.77 5.524 5.665 6.975 12.26.928 4.195 1.573 9.626 1.919 16.14.581 10.863.146 21.006.129 21.435a5.043 5.043 0 0 1-5.031 4.825l.008-.008ZM379.755 271.384l-6.492-8.381c-.693-.897.024-2.19 1.145-2.077l10.394 1.051-5.047 9.407ZM403.921 258.105l-3.717-7.872c-.242-.679-1.202-.671-1.436 0l-3.282 7.072 8.435.792v.008ZM394.712 321.43a6.302 6.302 0 0 1-5.484-6.506c.194-4.656-2.088-7.113-4.039-8.357-2.46-1.568-4.806-1.52-5.419-1.237a6.284 6.284 0 0 1-8.766-1.164 6.296 6.296 0 0 1 1.121-8.826c4.508-3.491 11.781-3.645 18.103-.371 7.613 3.936 11.935 11.598 11.564 20.488a6.282 6.282 0 0 1-6.54 6.021c-.185 0-.363-.024-.54-.048ZM404.557 357.889c-1.322 0-22.852-1.286-22.917 4.59-.073 5.876 2.758 4.825 10.644 4.825 7.887 0 20.297.073 20.297.073l-8.024-9.488Z" fill="#FCDCB5"/><path d="m87.857 48.096 18.918 35.295c7.403-11.226 16.708-13.49 33.561-16.035L117.29 34.235c-17.474 3.346-23.022 5.221-29.425 13.86h-.008ZM140.337 67.348s13.314-22.55 30.102-19.94l-27.787-33.912s-7.58-1.002-15.104 5.374c-7.523 6.377-10.257 15.357-10.257 15.357l23.046 33.12Z" fill="#ABCFE3"/><path d="M122.837 35.059a.29.29 0 0 1-.29-.291c0-2.958 2.967-8.155 7.935-11.744 4.677-3.378 7.305-4.404 11.265-4.404.161 0 .29.129.29.29a.29.29 0 0 1-.29.291c-3.855 0-6.306.962-10.927 4.3-4.749 3.427-7.693 8.519-7.693 11.267a.29.29 0 0 1-.29.29ZM125.829 39.505a.29.29 0 0 1-.29-.291c0-2.958 2.968-8.155 7.935-11.744 4.677-3.378 7.314-4.405 11.265-4.405.161 0 .29.13.29.291a.29.29 0 0 1-.29.291c-3.855 0-6.306.962-10.927 4.3-4.749 3.427-7.692 8.519-7.692 11.267a.29.29 0 0 1-.291.29ZM129.394 44.725a.29.29 0 0 1-.29-.29c0-2.959 2.967-8.156 7.934-11.744 4.677-3.378 7.306-4.405 11.265-4.405a.29.29 0 0 1 .291.291.29.29 0 0 1-.291.291c-3.854 0-6.306.962-10.926 4.3-4.75 3.427-7.693 8.519-7.693 11.266a.29.29 0 0 1-.29.291ZM132.773 50.043a.29.29 0 0 1-.291-.29c0-2.959 2.968-8.156 7.935-11.744 4.677-3.379 7.306-4.405 11.265-4.405a.29.29 0 0 1 .291.291.29.29 0 0 1-.291.29c-3.854 0-6.306.963-10.926 4.3-4.75 3.428-7.693 8.52-7.693 11.267a.29.29 0 0 1-.29.291ZM135.281 52.654l5.056 7.444s2.661-6.765 6.427-8.996l-5.016-7.25s-2.895 1.399-4.628 3.864c-1.452 2.06-1.831 4.93-1.831 4.93l-.008.008Z" fill="#7496B8"/><path d="m330.247 61.114-6.231-5.18-27.226 32.903 6.232 5.18 27.225-32.903Z" fill="#C98446"/><path d="m330.242 61.122-1.943-1.615-27.226 32.904 1.943 1.615 27.226-32.904ZM325.951 57.557l-1.943-1.615-27.226 32.904 1.943 1.615 27.226-32.904Z" fill="#A36B39"/><path d="m330.251 61.108-6.233-5.18 5.846-2.336 2.596-1.035-.677 2.619-1.532 5.932Z" fill="#E5C3A5"/><path d="m331.751 55.216-1.911-1.592 2.596-1.043-.685 2.635Z" fill="#877268"/><path d="M296.772 88.855c-.258.525-6.871 6.078-3.048 9.505 3.894 3.499 9.281-4.316 9.281-4.316l-6.233-5.18v-.009Z" fill="#FA9876"/><path d="m50.076 93.4-4.488 6.754 35.494 23.699 4.489-6.753-35.495-23.7Z" fill="#E4AF9C"/><path d="m50.083 93.409-1.4 2.105 35.495 23.699 1.4-2.105-35.495-23.7Z" fill="#FBE8E2"/><path d="m46.997 98.052-1.4 2.106 35.495 23.699 1.4-2.105-35.495-23.7Z" fill="#E4AF9C"/><path d="m50.06 93.389-4.49 6.756-2.936-5.584-1.29-2.474 2.669.396 6.048.906Z" fill="#E5C3A5"/><path d="m44.052 92.515-1.379 2.07-1.306-2.474 2.685.404Z" fill="#877268"/><path d="M81.09 123.867c.548.202 6.741 6.215 9.749 2.044 3.064-4.251-5.258-8.801-5.258-8.801l-4.491 6.757Z" fill="#FCC583"/><path d="M248.258 8.453c-13.627 12.155-14.95 33.015-3.04 46.796l5.597-4.995 4.298-3.831 29.981-26.744 4.298-3.84 5.596-4.986c-12.273-13.457-33.094-14.564-46.73-2.4Zm3.274 31.973c-2.879-7.581-.992-16.48 5.411-22.186 6.403-5.714 15.442-6.563 22.619-2.812l-28.03 25.006v-.008Z" fill="#DCF8C1"/><path d="M239.107 38.017a.398.398 0 0 1-.395-.33.411.411 0 0 1 .322-.478l3.282-.638a.406.406 0 0 1 .476.323.406.406 0 0 1-.322.477l-3.282.638h-.081v.008ZM277.119 6.408c-.04 0-.08 0-.121-.016a.414.414 0 0 1-.266-.51l1.016-3.192a.412.412 0 0 1 .508-.267c.21.065.331.3.266.51l-1.016 3.192a.406.406 0 0 1-.387.283ZM251.363 13.626a.385.385 0 0 1-.298-.138l-2.75-3.095a.41.41 0 0 1 .032-.574.407.407 0 0 1 .573.032l2.75 3.096a.408.408 0 0 1-.299.679h-.008ZM253.291 48.46a.389.389 0 0 1-.299-.137l-1.919-2.158a.41.41 0 0 1 .032-.574.407.407 0 0 1 .573.032l1.919 2.158a.41.41 0 0 1-.298.679h-.008ZM258.332 43.966a.389.389 0 0 1-.299-.138l-1.919-2.158a.41.41 0 0 1 .032-.573.407.407 0 0 1 .573.032l1.919 2.158a.41.41 0 0 1-.032.574.428.428 0 0 1-.266.105h-.008ZM263.361 39.472a.389.389 0 0 1-.299-.137l-1.919-2.158a.406.406 0 0 1 .605-.542l1.919 2.158a.41.41 0 0 1-.032.574.425.425 0 0 1-.266.105h-.008ZM268.402 34.978a.389.389 0 0 1-.299-.137l-1.919-2.158a.406.406 0 0 1 .605-.541l1.919 2.157a.41.41 0 0 1-.032.574.425.425 0 0 1-.266.105h-.008ZM273.433 30.485a.385.385 0 0 1-.298-.137l-1.919-2.159a.406.406 0 1 1 .604-.541l1.92 2.158a.408.408 0 0 1-.299.679h-.008ZM278.472 26a.385.385 0 0 1-.298-.138l-1.919-2.158a.406.406 0 1 1 .604-.541l1.92 2.158a.408.408 0 0 1-.299.679h-.008ZM283.505 21.505a.386.386 0 0 1-.298-.137l-1.919-2.158a.41.41 0 0 1 .032-.574.407.407 0 0 1 .573.032l1.919 2.158a.41.41 0 0 1-.032.574.428.428 0 0 1-.267.105h-.008ZM288.544 17.012a.388.388 0 0 1-.298-.138l-1.919-2.158a.41.41 0 0 1 .032-.573.407.407 0 0 1 .573.032l1.919 2.158a.41.41 0 0 1-.298.679h-.009Z" fill="#A4C5EE"/><path d="m426.752 62.393 6.25 2.376c0-.323-.162-.38.395-2.417l-38.44-14.645c-.137-.048-.387.453-.436.59l-2.943 7.767c-.048.138 38.843 14.823 38.843 14.823 1.008-1.762 1.121-1.818 1.524-2.586l-3.717-1.495 3.653 1.39c.097.04.822-2.02 1.056-3.104l-6.185-2.7Z" fill="#D9D4A7"/><path d="M432.381 61.65c.201 3.49-3.693 9.334-3.693 9.334l1.717.413s2.927-5.343 3.282-6.83.355-2.433.355-2.433l-1.669-.477.008-.008Z" fill="#C2BD95"/><path d="m391.973 54.844 2.145-5.666a1.227 1.227 0 0 1 1.589-.71l39.23 14.943s.081 0 .113-.024c.605-.534.863-1.269.822-2.182 0-.04-.032-.081-.072-.097L394.401 45.33a1.234 1.234 0 0 0-1.589.711l-3.919 10.338c-.242.638.081 1.35.71 1.592l41.173 15.687a.487.487 0 0 0 .54-.137c.428-.493.638-1.091.662-1.778a.492.492 0 0 0-.315-.469l-38.98-14.855a1.232 1.232 0 0 1-.71-1.592v.016Z" fill="#B1B1E8"/><path d="m396.447 51.838-4.104 10.806-.911 2.408 2.999-.234 2.065 2.166.911-2.408 4.104-10.806-5.064-1.932Z" fill="#F5A98D"/><path d="m389.223 57.738-15.797-27.35 3.459-7.978a3.308 3.308 0 0 1 4.371-1.705l37.714 16.754 16.829 23.649-42.02-14.896-4.556 11.518v.008Z" fill="#B1B1E8"/><path d="M379.457 20.462a3.284 3.284 0 0 0-2.564 1.956l-3.459 7.977 15.797 27.35 4.556-11.516.79.282c-4.403-7.354-11.975-20.1-15.12-26.04v-.009Z" fill="#C8C8F0"/></svg>