<svg width="166" height="99" fill="none" xmlns="http://www.w3.org/2000/svg"><path d="M164.447 7.92c-.274.158-.56.197-.858.117a1.09 1.09 0 0 1-.685-.531 1.087 1.087 0 0 1-.112-.852c.077-.304.252-.536.526-.694.268-.155.553-.19.854-.104.304.077.533.25.688.518.158.274.194.562.109.865-.08.299-.254.526-.522.681ZM160.397 5.894c.535.928.569 1.828.105 2.7-.39.746-1.114 1.425-2.171 2.037-.194.112-.46.259-.797.44-.396.201-.668.344-.815.43-.072.069-.15.128-.234.177-.536.31-1.014.102-1.433-.625a17.03 17.03 0 0 1-.459-.999 21.89 21.89 0 0 0-1.033-2.048 32.145 32.145 0 0 0-1.107-1.74 36.195 36.195 0 0 1-1.105-1.753c-.321-.558-.227-.985.283-1.28.541-.314.951-.228 1.231.257.318.553.793 1.297 1.422 2.232.252-.16.451-.282.598-.367 1.267-.733 2.297-1.1 3.088-1.101.99.003 1.799.55 2.427 1.64Zm-1.521.881c-.34-.59-.751-.883-1.232-.879-.395-.003-.97.214-1.727.652a18.25 18.25 0 0 0-.834.525c.069.107.133.211.19.311.231.4.642 1.224 1.233 2.47.443-.243.79-.437 1.042-.583 1.383-.8 1.825-1.632 1.328-2.496ZM151.914 14.86c-1.078.623-2.165.816-3.262.58-1.151-.247-2.05-.932-2.697-2.054-.616-1.07-.897-2.379-.843-3.927.06-1.721.585-2.868 1.573-3.44.515-.298 1.161-.51 1.936-.635.984-.155 1.604-.008 1.862.44.116.2.153.417.113.651a.72.72 0 0 1-.357.512.738.738 0 0 1-.48.099l-.482-.09c-.453-.068-1.032.102-1.736.51-.536.31-.791 1.096-.764 2.36.028 1.156.227 2.056.598 2.699.4.695.953 1.106 1.656 1.233.657.118 1.333-.023 2.027-.425.315-.182.603-.461.863-.837l.633-1.019c.109-.175.198-.283.266-.322a.758.758 0 0 1 .641-.056c.23.071.403.207.518.407.222.385.031.99-.572 1.817-.528.727-1.025 1.225-1.493 1.496ZM145.104 15.255c.118.206.284.518.496.935.213.418.379.73.497.935.127.222.157.45.09.686a.85.85 0 0 1-.42.549.889.889 0 0 1-1.239-.327 42.103 42.103 0 0 1-.836-1.56 42.103 42.103 0 0 0-.836-1.56 12.604 12.604 0 0 0-1.215-1.763c-.095 1.32-.18 2.25-.253 2.79-.145 1.04-.354 1.948-.628 2.725-.366 1.02-.618 1.812-.756 2.376-.111.45-.32.764-.624.94a1.152 1.152 0 0 1-.704.166.747.747 0 0 1-.591-.386 166.512 166.512 0 0 0-2.783-4.649 813.266 813.266 0 0 0-1.511-2.423c-.31-.537-.202-.958.324-1.262.447-.259.852-.157 1.217.306.056.073.374.582.952 1.525l2.358 3.874c.39-1.16.708-2.525.954-4.093.077-.487.255-1.876.534-4.166.07-.595.281-.995.634-1.2a.862.862 0 0 1 .679-.097c.238.06.422.202.552.429.337.584.856 1.46 1.557 2.629a185.194 185.194 0 0 1 1.552 2.621ZM136.881 22.398c.134.232.168.462.102.69a.877.877 0 0 1-.432.545.885.885 0 0 1-.695.107.856.856 0 0 1-.544-.434c-.246-.426-.781-1.318-1.605-2.675-.377.83-1.036 1.516-1.977 2.06-1.114.646-2.143.728-3.085.248-.938-.483-1.906-1.592-2.904-3.325-.498-.864-.468-1.458.089-1.78a.874.874 0 0 1 .687-.103.856.856 0 0 1 .544.434c.034.058.076.15.127.274.048.12.089.209.122.267.804 1.396 1.47 2.247 1.997 2.553.487.287 1.089.224 1.804-.19.32-.185.643-.52.968-1.002.344-.523.518-.975.522-1.357a72.885 72.885 0 0 1-.544-.98 70.76 70.76 0 0 0-.531-.958 5.89 5.89 0 0 0-.304-.456 8.451 8.451 0 0 1-.293-.453.824.824 0 0 1-.085-.678.948.948 0 0 1 .445-.541c.557-.323 1.113-.002 1.669.962.082.143.183.337.304.583.126.243.21.402.253.475.349.606.911 1.563 1.685 2.871a297.602 297.602 0 0 1 1.681 2.863ZM125.502 20.08l.677 7.491c.155 1.828.334 3.33.535 4.506l.363 1.835c.081.458-.046.785-.382.98a.958.958 0 0 1-.703.111.8.8 0 0 1-.547-.4c-.303-.527-.614-2.381-.932-5.562l-5.96-3.812-.687-.371c-.282-.16-.47-.322-.564-.486a.904.904 0 0 1-.083-.71c.074-.26.214-.45.419-.57a.745.745 0 0 1 .719-.046c1.61.726 3.589 1.941 5.937 3.645l-.403-3.402a31.543 31.543 0 0 1-.188-3.137c-.002-.392.134-.668.407-.826a.93.93 0 0 1 .7-.099.824.824 0 0 1 .567.4c.066.115.108.267.125.454Z" fill="#EF627E"/><path d="M117.403 33.363c.121.21.136.43.044.66a.987.987 0 0 1-.439.517c-.368.213-.73.173-1.088-.119-.352-.295-1.097-.707-2.236-1.235-1.211-.557-1.915-.782-2.112-.674l-.947.547c.101.174.275.484.525.93.232.414.408.726.529.937.498.864.769 1.364.812 1.5.162.476.027.838-.404 1.088a.987.987 0 0 1-.681.13.754.754 0 0 1-.529-.389c-.143-.247-.356-.64-.638-1.18a38.405 38.405 0 0 0-.647-1.196 75.57 75.57 0 0 0-1.353-2.22 79.75 79.75 0 0 1-1.357-2.228c-.391-.68-.316-1.177.225-1.49a.931.931 0 0 1 .678-.118.773.773 0 0 1 .53.389c.221.385.687 1.151 1.398 2.3l.575-.334c.617-.413.915-.968.892-1.664-.028-.244-.064-.56-.106-.95-.081-1.078.179-1.79.778-2.137.189-.109.412-.178.669-.207.329-.037.549.04.658.23.24.416.181.728-.177.934-.294.17-.396.7-.304 1.589.055.607.085.945.089 1.012.01.395-.038.732-.144 1.01.742.07 1.649.368 2.722.892 1.101.536 1.78 1.028 2.038 1.476ZM106.893 40.732c-1.188.687-2.321.946-3.4.777-1.184-.193-2.117-.883-2.8-2.068-.79-1.37-1.12-2.71-.991-4.021.137-1.428.808-2.49 2.012-3.187.872-.505 1.67-.77 2.392-.794.887-.03 1.548.333 1.982 1.087.303.526.283 1.178-.063 1.953-.153.342-.54.96-1.161 1.853l-2.189 3.173a3.33 3.33 0 0 0 1.666.354c.569-.034 1.145-.22 1.728-.558.363-.21.75-.525 1.16-.944.52-.533.789-.99.807-1.374.014-.388.124-.64.329-.76a.776.776 0 0 1 .612-.069c.226.052.392.17.499.354.337.585.156 1.36-.542 2.327-.598.823-1.278 1.456-2.041 1.897Zm-4.36-7.077c-.641.371-1.031.93-1.168 1.677-.141.742-.028 1.674.339 2.797l1.756-2.555c.684-1.014 1.13-1.81 1.338-2.386-.695-.16-1.45-.004-2.265.467ZM100.78 41.033c.555.964.202 2.078-1.06 3.343-.79.794-1.856 1.579-3.196 2.355-.205.118-.45.15-.733.097-.278-.057-.474-.186-.59-.386l-.865-1.501-2.361-4.282-.456-.79c-.18-.325-.294-.603-.343-.834a.54.54 0 0 1 .059-.445c.034-.062.154-.188.36-.378.27-.261.773-.605 1.51-1.031.846-.49 1.732-.728 2.657-.716 1.08.014 1.85.419 2.308 1.215.425.737.342 1.505-.25 2.304.5-.057 1.044.004 1.631.184.671.203 1.113.49 1.329.865Zm-4.184-2.5c-.185-.322-.569-.476-1.15-.462-.513.009-.943.114-1.29.314l-.324.187c-.4.231-.665.396-.798.494.098.182.262.473.493.874.057.1.184.29.38.57.164.235.285.433.362.591.318-.141.598-.282.84-.422.589-.34.996-.626 1.222-.855.422-.434.51-.864.265-1.291Zm2.582 3.332c-.164-.285-.527-.433-1.088-.446a3.566 3.566 0 0 0-1.246.174c-.229.076-.545.227-.947.453-.506.279-.817.444-.933.498.185.37.349.68.492.927l.887 1.541c2.266-1.445 3.211-2.494 2.835-3.147ZM76.3 50.075c.641-.371 1.614-.91 2.918-1.615 1.306-.713 2.28-1.256 2.92-1.627l1.819-1.115 1.58-.999.454-.252c.463-.268.832-.162 1.108.318.337.585.048 1.142-.867 1.671-.142.082-.38.21-.715.382-.33.17-.566.296-.708.378-1.04.602-2.597 1.514-4.67 2.734a1173.953 1173.953 0 0 1-4.675 2.726c-.536.31-.954.205-1.255-.317-.282-.49-.18-.896.306-1.22.207-.14.802-.495 1.785-1.064ZM70.582 58.378c.119.206.284.518.497.935.213.418.378.73.497.935.127.222.157.45.09.686-.06.238-.2.42-.42.549a.888.888 0 0 1-1.24-.326 41.68 41.68 0 0 1-.836-1.561 41.517 41.517 0 0 0-.835-1.56 12.657 12.657 0 0 0-1.216-1.763c-.095 1.32-.179 2.25-.253 2.791-.144 1.039-.353 1.947-.628 2.724-.366 1.02-.617 1.812-.755 2.376-.112.45-.32.764-.625.941a1.153 1.153 0 0 1-.704.165.745.745 0 0 1-.59-.386 167.846 167.846 0 0 0-2.783-4.648 579.357 579.357 0 0 0-1.512-2.424c-.31-.537-.201-.958.324-1.262.447-.259.853-.157 1.218.306.056.073.373.582.952 1.526l2.357 3.873c.39-1.16.709-2.525.954-4.093.077-.487.255-1.876.534-4.166.07-.596.282-.995.634-1.199a.863.863 0 0 1 .68-.098.86.86 0 0 1 .552.429c.337.584.855 1.46 1.556 2.629a187.121 187.121 0 0 1 1.552 2.621ZM61.68 63.66c.556.964.202 2.078-1.06 3.343-.79.794-1.855 1.579-3.196 2.355-.205.118-.449.15-.732.097-.278-.057-.475-.186-.59-.386l-.865-1.501c-.01-.016-.797-1.444-2.362-4.282l-.455-.79c-.18-.325-.295-.603-.344-.834a.54.54 0 0 1 .06-.445c.034-.063.154-.188.36-.378.27-.261.773-.605 1.509-1.031.846-.49 1.732-.728 2.657-.716 1.081.014 1.85.419 2.309 1.215.425.737.342 1.505-.25 2.304.5-.057 1.043.004 1.63.184.671.202 1.114.49 1.33.865Zm-4.184-2.5c-.185-.322-.568-.476-1.15-.463-.513.01-.943.114-1.29.315l-.323.187c-.4.232-.666.396-.799.494.098.182.262.474.493.874.058.1.185.29.381.57.164.235.284.432.362.591.318-.141.597-.282.84-.422.588-.34.995-.626 1.22-.855.424-.434.512-.864.266-1.291Zm2.582 3.332c-.164-.285-.526-.433-1.087-.446a3.57 3.57 0 0 0-1.246.173c-.23.077-.546.228-.948.454-.506.278-.817.444-.933.498.185.37.35.68.492.927l.888 1.541c2.266-1.445 3.21-2.494 2.834-3.147ZM53.457 68.287c.119.205.284.517.497.935.213.418.378.73.496.935.128.22.158.45.09.685-.059.238-.199.421-.42.549a.888.888 0 0 1-1.239-.326 41.68 41.68 0 0 1-.836-1.56 41.517 41.517 0 0 0-.836-1.561 12.657 12.657 0 0 0-1.215-1.763c-.095 1.32-.179 2.25-.253 2.791-.144 1.04-.353 1.947-.628 2.724-.366 1.02-.617 1.812-.755 2.376-.112.451-.32.765-.625.941a1.153 1.153 0 0 1-.704.165.745.745 0 0 1-.59-.385 167.846 167.846 0 0 0-2.783-4.65 579.357 579.357 0 0 0-1.512-2.423c-.31-.537-.201-.958.324-1.262.447-.259.853-.156 1.218.307.056.073.373.581.952 1.525l2.357 3.873c.39-1.16.709-2.525.955-4.093.076-.487.254-1.875.533-4.165.07-.596.282-.996.634-1.2a.863.863 0 0 1 .68-.098.86.86 0 0 1 .552.429c.337.585.855 1.461 1.556 2.63a187.121 187.121 0 0 1 1.552 2.62ZM45.24 75.205c.109.19.125.388.047.594a.896.896 0 0 1-.404.466c-.331.192-.656.151-.974-.121-.367-.308-1.13-.734-2.292-1.277-1.242-.588-1.978-.819-2.207-.693l-.237.137c.13.226.316.554.557.984.25.446.437.777.561.993.504.874.78 1.378.829 1.512.146.435.024.766-.365.99-.478.277-.842.2-1.09-.232a39.186 39.186 0 0 1-.657-1.212 31.656 31.656 0 0 0-.648-1.216c-.212-.369-.41-.704-.59-1.007l-.245.141c-.215.125-.383.875-.502 2.25-.108 1.285-.117 2.162-.03 2.631.072.416-.059.72-.39.911a.89.89 0 0 1-.61.11.664.664 0 0 1-.489-.338c-.258-.448-.343-1.308-.256-2.581.086-1.25.286-2.192.602-2.825-.378-.034-1-.366-1.867-.995-.762-.557-1.306-.74-1.632-.552-.305.176-.564.08-.776-.289-.091-.158-.051-.356.12-.596.137-.199.298-.352.482-.458a1.282 1.282 0 0 1 1.124-.092c.211.074.54.267.985.578.294.23.715.5 1.264.807.308.096.724.003 1.248-.28-.54-.839-.94-1.485-1.201-1.938-.37-.643-.311-1.106.178-1.389a.838.838 0 0 1 .622-.107c.206.042.365.16.478.356.154.269.61 1.023 1.367 2.264.52-.314.82-.64.9-.974.038-.141.023-.648-.046-1.522-.043-.537-.045-.919-.007-1.144.076-.416.292-.728.65-.935.178-.103.388-.165.63-.185.291-.028.483.036.574.194.212.37.166.642-.139.818-.326.189-.439.753-.34 1.693.068.628.102.985.102 1.07.011.421-.045.773-.17 1.056.704.042 1.617.336 2.737.882 1.144.56 1.846 1.068 2.107 1.521ZM31.11 83.295a.72.72 0 0 1 .044.66.99.99 0 0 1-.439.516c-.367.213-.73.174-1.088-.118-.352-.295-1.097-.707-2.236-1.235-1.21-.557-1.915-.782-2.112-.675l-.947.548c.1.174.276.484.525.93.232.413.408.725.53.936.497.864.768 1.365.811 1.501.162.475.027.838-.404 1.087a.989.989 0 0 1-.681.131.755.755 0 0 1-.53-.389 37.631 37.631 0 0 1-.637-1.18 37.988 37.988 0 0 0-.647-1.196c-.288-.5-.739-1.24-1.352-2.22a77.43 77.43 0 0 1-1.358-2.229c-.391-.68-.316-1.176.225-1.49a.931.931 0 0 1 .678-.118.772.772 0 0 1 .53.39c.221.384.687 1.15 1.398 2.3l.575-.334c.617-.413.915-.968.892-1.665-.028-.243-.064-.56-.106-.95-.08-1.077.178-1.79.778-2.136.19-.11.412-.179.669-.208.33-.036.549.04.658.23.24.417.18.728-.177.935-.294.17-.395.7-.304 1.588.055.608.085.945.089 1.013.01.395-.038.731-.143 1.01.74.07 1.648.367 2.72.892 1.102.536 1.781 1.028 2.04 1.476ZM20.602 90.659c-1.188.687-2.321.946-3.4.776-1.184-.193-2.117-.882-2.8-2.067-.79-1.37-1.12-2.71-.991-4.021.137-1.429.808-2.491 2.012-3.188.872-.505 1.67-.77 2.391-.794.888-.028 1.549.334 1.983 1.087.303.527.283 1.178-.063 1.954-.153.342-.54.96-1.161 1.853l-2.189 3.173a3.325 3.325 0 0 0 1.666.354c.569-.034 1.145-.22 1.728-.558.363-.21.75-.525 1.16-.945.52-.532.789-.99.807-1.373.014-.388.124-.641.33-.76a.774.774 0 0 1 .611-.07c.226.053.392.17.499.355.337.585.156 1.36-.542 2.326-.598.824-1.278 1.457-2.04 1.898Zm-4.36-7.077c-.641.371-1.03.93-1.168 1.677-.14.742-.028 1.674.339 2.797l1.756-2.555c.684-1.014 1.13-1.81 1.338-2.386-.695-.16-1.45-.005-2.265.467ZM12.876 94.226c-.915 1.148-2.293 2.255-4.133 3.32-.226.13-.504.147-.833.05-.322-.095-.547-.256-.678-.483l-1.325-2.3c-.434-.753-1.006-1.855-1.715-3.306-.763-1.568-1.334-2.692-1.712-3.373-.284-.481-.671-1.22-1.16-2.215-.115-.285-.129-.51-.04-.672.587-.635 1.335-1.216 2.245-1.742.925-.536 1.996-.734 3.211-.594 1.402.158 2.411.772 3.027 1.841.78 1.355.87 2.726.267 4.114.983-.12 1.787-.086 2.413.1.631.183 1.086.517 1.365 1.001.367.638.378 1.454.033 2.447a5.884 5.884 0 0 1-.965 1.812Zm-8.422-9.11c-.574.332-.965.584-1.175.754l.78 1.392 1.605 3.15c.783-.368 1.2-.57 1.249-.606.757-.523 1.264-1.146 1.52-1.87.27-.783.194-1.542-.23-2.28-.29-.5-.832-.805-1.63-.912-.798-.107-1.504.017-2.12.373Zm4.53 5.82-.914.35c-.068.04-.17.105-.306.198a7.2 7.2 0 0 1-1.259.644c.351.682.677 1.284.977 1.806l.943 1.636c1.35-.845 2.36-1.69 3.03-2.534.286-.355.51-.78.674-1.275.163-.46.205-.758.126-.895-.143-.247-.64-.332-1.492-.254a8.998 8.998 0 0 0-1.78.324Z" fill="#727E99"/></svg>