<svg width="160" height="160" viewBox="0 0 160 160" fill="none" xmlns="http://www.w3.org/2000/svg">
<mask id="mask0_2003_446" style="mask-type:alpha" maskUnits="userSpaceOnUse" x="0" y="0" width="160" height="160">
<rect width="160" height="160" fill="#D9D9D9"/>
</mask>
<g mask="url(#mask0_2003_446)">
<path opacity="0.75" d="M31.4316 122.669C31.6499 124.837 31.8766 125.226 32.4194 127.414C32.9948 129.478 32.662 131.236 31.921 132.293C31.1801 133.35 30.0764 133.784 28.9146 133.938C27.7528 134.093 27.3703 133.794 26.3841 133.533C25.398 133.273 23.4966 133.232 22.7117 132.958C21.9721 132.763 20.687 132.885 19.5776 132.592C18.4682 132.298 16.7879 131.92 16.7113 130.713C16.6347 129.506 16.6871 129.058 17.5315 128.358C18.3305 127.58 19.0714 126.523 19.1309 125.55C19.1903 124.577 20.2187 121.683 20.1677 120.879C20.1166 120.074 20.2879 117.679 20.6265 116.648C20.965 115.617 20.8303 114.13 21.1235 113.021C21.4167 111.911 22.2977 107.331 22.6688 106.176C23.04 105.021 23.8672 102.141 24.0952 101.278C24.4466 100.448 25.0273 97.5021 25.3134 96.9184C25.5996 96.3346 26.1662 94.4403 26.4396 93.6553C26.6804 92.9937 27.026 91.4365 27.5983 90.269C28.1707 89.1015 28.9979 86.2211 29.5178 85.5013C30.0377 84.7815 30.4613 83.179 30.8835 82.8291C31.3057 82.4791 31.9361 81.5907 32.4688 81.0721C33.0468 80.6314 34.6436 80.3281 36.0717 79.9143C37.5778 79.4551 39.9141 79.3473 40.9852 79.037C42.1016 78.8045 43.211 79.0977 43.34 79.8571C43.469 80.6166 42.6048 81.641 42.2733 82.1468C41.9418 82.6526 40.1214 85.7981 39.6794 86.4726C39.2374 87.147 36.5246 93.4195 35.8928 95.5603C35.261 97.7012 35.4609 98.9409 34.8247 99.1025C34.3119 99.2966 34.2595 99.7443 34.3431 100.426C34.4721 101.185 34.2313 101.847 33.9579 102.632C33.7624 103.371 32.5825 108.335 32.4905 109.431C32.4764 110.483 32.0062 113.26 31.8362 114.402C31.6663 115.544 32.1466 115.473 31.672 116.27C31.1974 117.068 31.8648 118.036 31.4682 118.788C31.396 119.56 31.2771 121.507 31.4316 122.669Z" fill="#FFCA42"/>
<path opacity="0.75" d="M74.2622 97.3291C75.7031 97.1165 79.3756 97.6915 81.1735 97.3754C82.9261 96.9814 85.7031 97.4516 87.148 93.4816C88.5929 89.5115 88.7951 82.5095 90.468 77.6766C92.1863 72.9216 94.3664 67.1678 95.5903 63.5349C95.5903 63.5349 96.8388 67.2937 98.134 69.8779C99.4291 72.4621 102.27 73.9383 104.73 73.863C107.189 73.7877 109.883 73.5765 111.869 73.0464C113.777 72.5618 115.817 70.3315 116.786 68.4117C117.677 66.5371 118.278 63.2671 118.993 61.8077C119.663 60.2704 121.542 51.6673 122.671 51.636C123.8 51.6048 127.654 52.4915 129.633 52.4871C131.612 52.4827 136.253 52.3903 137.552 51.2171C138.851 50.0439 139.95 47.6309 140.464 46.1843C140.979 44.7377 141.105 42.2653 141.229 41.0454C141.432 39.7802 141.315 39.222 142.701 36.2253C144.086 33.2286 143.956 33.7217 144.601 31.782C145.245 29.8423 145.089 29.933 144.765 29.9132C144.486 29.9713 144.44 29.8934 144.272 29.7829C144.103 29.6724 144.012 29.5165 144.123 29.3479C144.188 29.1014 144.286 28.7316 144.507 28.3944C144.728 28.0571 145.17 27.3827 144.936 27.5187C144.702 27.6548 144.67 27.778 144.501 27.6675C144.332 27.557 144.242 27.4012 144.43 27.1872C144.619 26.9733 144.84 26.6361 144.548 26.493C144.256 26.3499 143.763 26.2196 143.763 26.2196C143.763 26.2196 143.75 26.0184 143.562 26.2323C143.419 26.5242 143.243 26.9394 143.087 27.03C142.931 27.1207 142.705 26.7311 142.737 26.6079C142.77 26.4846 143.01 25.8229 143.309 25.4403C143.563 24.9799 143.44 24.9473 143.661 24.6101C143.882 24.2728 143.856 23.8705 143.59 24.1298C143.323 24.3891 142.992 24.8949 142.771 25.2321C142.628 25.524 142.407 25.8612 142.374 25.9845C142.264 26.1531 142.231 26.2764 142.108 26.2438C141.985 26.2112 141.68 25.8669 141.68 25.8669C141.68 25.8669 141.622 25.5878 141.687 25.3413C141.752 25.0947 141.908 25.0041 142.019 24.8355C142.084 24.5889 141.837 24.5238 141.636 24.5365C141.513 24.5039 140.877 24.6655 140.844 24.7888C140.734 24.9574 140.369 25.5865 140.214 25.6772C140.058 25.7679 135.377 33.4984 134.805 34.6659C134.265 35.7101 132.262 39.7964 131.82 40.4708C131.378 41.1453 130.78 41.9104 130.397 41.6115C130.015 41.3125 125.369 40.6781 123.838 40.7349C122.351 40.8696 117.945 40.826 116.484 41.363C114.991 42.0234 112.53 43.3511 111.808 45.3361C111.085 47.3211 107.133 59.5302 107.133 59.5302C107.133 59.5302 104.187 53.2128 103.824 52.5894C103.461 51.966 103.034 51.5892 102.093 51.4065C101.152 51.2237 93.2929 51.5204 92.4555 51.6947C91.6182 51.869 88.7874 53.099 88.378 53.6502C87.9686 54.2014 84.2186 59.4085 83.1321 62.0226C82.0455 64.6367 79.8909 70.793 79.4419 71.9931C78.9149 73.2385 76.1766 79.1086 75.5263 80.3214C74.8307 81.4564 73.5931 91.8772 72.6893 93.5505C71.8308 95.3018 71.5376 96.4112 72.1667 96.7753C72.7505 97.0614 74.2622 97.3291 74.2622 97.3291Z" fill="#FFCA42"/>
<ellipse cx="79.9824" cy="79.7255" rx="56" ry="55.5" fill="#DFEBFB"/>
<path d="M106.415 63.7835C106.415 64.646 106.351 65.4964 106.23 66.3264C105.67 70.1381 103.873 73.5613 101.262 76.1708C98.0836 79.3508 93.7 81.3232 88.8763 81.3232H67.101L61.5695 93.7893C60.1229 97.0509 55.2462 96.0185 55.2462 92.4486V79.2231C49.7543 76.2522 46.001 70.4355 46.001 63.7835C46.001 58.9611 47.9734 54.5762 51.1534 51.3975C52.2934 50.2574 53.5835 49.278 54.9882 48.4865C57.5217 47.0601 60.4395 46.2451 63.5393 46.2451H88.8763C98.5223 46.2451 106.415 54.1374 106.415 63.7835Z" fill="#A6D2E3"/>
<path d="M106.415 63.7835C106.415 64.646 106.351 65.4964 106.23 66.3264C100.741 71.0632 93.5913 73.9267 85.7711 73.9267C70.4795 73.9267 57.7472 62.9739 54.9883 48.4865C57.5218 47.0601 60.4396 46.2451 63.5394 46.2451H88.8763C98.5224 46.2451 106.415 54.1374 106.415 63.7835Z" fill="#C0DFEB"/>
<path d="M95.6329 113.287C105.39 113.287 113.299 105.377 113.299 95.6207C113.299 85.864 105.39 77.9546 95.6329 77.9546C85.8762 77.9546 77.9668 85.864 77.9668 95.6207C77.9668 105.377 85.8762 113.287 95.6329 113.287Z" fill="#BF6A6A"/>
<path d="M110.739 104.784C109.547 105.548 108.268 106.165 106.928 106.623C97.6995 109.791 87.6513 104.878 84.4835 95.6503C82.7121 90.4911 83.4674 85.0765 86.0891 80.7499C87.2809 79.9875 88.5596 79.3704 89.8981 78.912C99.1271 75.7442 109.175 80.6576 112.343 89.8865C114.113 95.0444 113.359 100.459 110.739 104.784Z" fill="#F17B7B"/>
<path d="M90.6915 63.4347V55.6306C90.6915 54.2599 90.2338 52.9899 89.4636 51.9683C88.347 50.489 86.5756 49.5286 84.5896 49.5286H72.5664C70.9866 49.5286 69.6934 50.8218 69.6934 52.4016V65.6284C69.6934 67.2082 70.9866 68.5014 72.5664 68.5014H75.1854C75.4381 68.5014 75.6785 68.6142 75.8389 68.8098L82.002 76.2497C83.0602 77.5348 84.9403 77.8445 86.3054 76.8908C87.8309 75.8245 88.1012 73.6863 86.9397 72.2763L84.9633 69.8774C84.5191 69.3232 84.9144 68.5013 85.6249 68.5013C87.024 68.5013 88.2915 67.9334 89.207 67.0179C90.125 66.0998 90.6915 64.8338 90.6915 63.4347Z" fill="#E3A76F"/>
<path d="M90.6909 63.4348V55.6307C90.6909 54.26 90.2331 52.9899 89.4629 51.9684C81.0924 53.1434 74.5436 59.9924 73.8291 68.5016H75.1847C75.4375 68.5016 75.6778 68.6144 75.8382 68.81L82.0013 76.2499C83.0596 77.535 84.9396 77.8447 86.3047 76.891C87.8302 75.8247 88.1005 73.6865 86.9391 72.2765L84.9626 69.8776C84.5184 69.3234 84.9137 68.5015 85.6242 68.5015C87.0233 68.5015 88.2908 67.9336 89.2063 67.0181C90.1244 66.0999 90.6909 64.8339 90.6909 63.4348Z" fill="#F2BB88"/>
<path d="M69.693 52.3171V66.1089C69.693 67.2825 68.7327 68.243 67.5589 68.243H63.5272C62.5315 68.243 61.7246 67.4348 61.7246 66.4391V51.987C61.7246 50.9913 62.5315 50.1844 63.5272 50.1844H67.5589C68.7327 50.1844 69.693 51.1448 69.693 52.3171Z" fill="#3A92BA"/>
<path d="M69.6934 52.3171V64.5861H67.1844C66.1887 64.5861 65.3818 63.7792 65.3818 62.7836V50.1844H67.5594C68.733 50.1844 69.6934 51.1448 69.6934 52.3171Z" fill="#66AECC"/>
<path d="M63.5271 69.3299H67.5588C68.42 69.3299 69.2012 68.9902 69.7798 68.4387C70.5195 69.176 71.5216 69.5893 72.5659 69.588H75.0708L81.1632 76.941C82.019 77.9815 83.2728 78.5304 84.5293 78.5304C88.1095 78.5304 90.0351 74.3292 87.7787 71.5863L86.116 69.569C89.2798 69.3177 91.7779 66.662 91.7779 63.4345V55.6303C91.7779 51.6664 88.5531 48.4415 84.5892 48.4415H72.5659C71.3718 48.4415 70.3 48.9727 69.576 49.8109C69.0055 49.3484 68.2932 49.0966 67.5588 49.0977H63.5271C61.9336 49.0977 60.6377 50.3936 60.6377 51.9871V66.4391C60.6377 68.0326 61.9336 69.3299 63.5271 69.3299ZM70.7796 52.4013C70.7796 51.4165 71.5811 50.615 72.5659 50.615H84.5892C87.3549 50.615 89.6044 52.8645 89.6044 55.6303V63.4342C89.6044 65.6294 87.8181 67.4144 85.6243 67.4144C84.8744 67.4144 84.206 67.8341 83.8814 68.5105C83.5159 69.272 83.7227 70.1667 84.1245 70.5685L86.101 72.9675C86.4664 73.4117 86.6308 73.9972 86.552 74.5745C86.3015 76.3943 84.0238 76.9976 82.8381 75.5566L76.6777 68.1194C76.4966 67.8986 76.2687 67.7209 76.0106 67.5989C75.7524 67.477 75.4704 67.414 75.1848 67.4144H72.5658C71.5809 67.4144 70.7795 66.6129 70.7795 65.628L70.7796 52.4013ZM62.8112 51.9871C62.8115 51.7973 62.887 51.6153 63.0212 51.4811C63.1554 51.3469 63.3373 51.2714 63.5271 51.2712H67.5588C68.1361 51.2712 68.6061 51.7398 68.6061 52.3171V66.109C68.6061 66.6863 68.136 67.1562 67.5588 67.1562H63.5271C63.1331 67.1562 62.8112 66.8343 62.8112 66.439V51.9871Z" fill="#727E99"/>
<path d="M78.3544 81.3232C78.3544 81.1894 78.3281 81.0569 78.277 80.9332C78.2258 80.8096 78.1507 80.6973 78.0561 80.6026C77.9615 80.508 77.8491 80.433 77.7255 80.3818C77.6019 80.3306 77.4693 80.3043 77.3355 80.3044H67.1013C66.9041 80.304 66.711 80.361 66.5456 80.4683C66.3801 80.5756 66.2494 80.7287 66.1694 80.9089L60.6393 93.3764C60.0932 94.6057 59.0241 94.7388 58.5894 94.7388C57.4633 94.7388 56.2652 93.936 56.2652 92.4486V79.2231C56.2651 79.0395 56.2154 78.8592 56.1215 78.7015C56.0275 78.5437 55.8927 78.4142 55.7313 78.3266C50.3575 75.4209 47.0198 69.8473 47.0198 63.7835C47.0198 56.3747 52.0215 49.8218 59.183 47.8508C59.312 47.8154 59.4328 47.7549 59.5384 47.6727C59.644 47.5906 59.7324 47.4884 59.7985 47.3721C59.8646 47.2558 59.9072 47.1276 59.9237 46.9948C59.9402 46.862 59.9304 46.7273 59.8948 46.5983C59.8594 46.4693 59.7989 46.3485 59.7167 46.2429C59.6346 46.1373 59.5325 46.0489 59.4161 45.9828C59.2998 45.9167 59.1716 45.8742 59.0388 45.8576C58.9061 45.8411 58.7713 45.8509 58.6424 45.8865C50.5995 48.1007 44.9824 55.4606 44.9824 63.7835C44.9824 70.3935 48.5089 76.4819 54.2278 79.8194V92.4485C54.2278 97.0671 60.5959 98.4993 62.5018 94.2021L67.763 82.3419H77.3357C77.6058 82.3418 77.8649 82.2344 78.0559 82.0434C78.2469 81.8524 78.3543 81.5934 78.3544 81.3232Z" fill="#727E99"/>
<path d="M101.083 77.7492C104.973 74.3451 107.433 69.3461 107.433 63.7835C107.433 53.5506 99.109 45.2263 88.8761 45.2263C62.0843 45.2305 63.5472 45.2164 62.8952 45.2371C62.3328 45.2561 61.8928 45.7289 61.9117 46.2913C61.932 46.8538 62.4048 47.2924 62.9659 47.2734C63.4571 47.256 62.0783 47.2668 88.8761 47.264C97.9856 47.264 105.396 54.6755 105.396 63.7835C105.396 69.281 102.697 74.159 98.5547 77.1638C93.7025 76.3882 88.8269 77.5936 84.9408 80.3044H81.4103C81.2765 80.3043 81.144 80.3306 81.0203 80.3818C80.8967 80.433 80.7843 80.508 80.6897 80.6026C80.5951 80.6972 80.52 80.8096 80.4689 80.9332C80.4177 81.0569 80.3914 81.1894 80.3915 81.3232C80.3915 81.5934 80.4989 81.8525 80.6899 82.0436C80.881 82.2346 81.1401 82.342 81.4103 82.342H82.4929C81.2681 83.5499 80.2175 84.9224 79.3713 86.42C74.2615 95.442 77.5098 106.837 86.4309 111.883C86.666 112.016 86.9443 112.05 87.2047 111.978C87.465 111.906 87.686 111.734 87.8192 111.499C87.9521 111.263 87.9863 110.985 87.9142 110.724C87.8422 110.464 87.6697 110.243 87.4347 110.109C82.2211 107.16 78.9827 101.601 78.9827 95.6054C78.9827 86.5001 86.3442 79.1196 95.3705 78.9731C104.755 78.835 112.284 86.4259 112.284 95.6366C112.284 106.641 101.623 114.732 90.9637 111.605C90.8353 111.567 90.7007 111.555 90.5675 111.569C90.4344 111.583 90.3054 111.624 90.1879 111.688C90.0704 111.752 89.9668 111.839 89.8829 111.943C89.799 112.048 89.7366 112.167 89.6991 112.296C89.5401 112.835 89.8498 113.402 90.3905 113.559C102.346 117.063 114.322 108.017 114.322 95.6367C114.322 87.5133 109.034 80.1754 101.083 77.7492Z" fill="#727E99"/>
<path d="M91.7642 89.9151C92.6981 89.9151 93.4552 89.1581 93.4552 88.2242C93.4552 87.2903 92.6981 86.5332 91.7642 86.5332C90.8303 86.5332 90.0732 87.2903 90.0732 88.2242C90.0732 89.1581 90.8303 89.9151 91.7642 89.9151Z" fill="#727E99"/>
<path d="M99.5025 89.9151C100.436 89.9151 101.193 89.1581 101.193 88.2242C101.193 87.2903 100.436 86.5332 99.5025 86.5332C98.5686 86.5332 97.8115 87.2903 97.8115 88.2242C97.8115 89.1581 98.5686 89.9151 99.5025 89.9151Z" fill="#727E99"/>
<path d="M85.502 101.047C85.502 101.609 85.9579 102.065 86.5208 102.065C87.0836 102.065 87.5396 101.609 87.5396 101.047C87.5396 96.5836 91.1705 92.9527 95.6337 92.9527C100.097 92.9527 103.728 96.5836 103.728 101.047C103.728 101.18 103.754 101.313 103.805 101.437C103.856 101.56 103.932 101.672 104.026 101.767C104.121 101.862 104.233 101.937 104.357 101.988C104.48 102.039 104.613 102.065 104.747 102.065C104.88 102.065 105.013 102.039 105.137 101.988C105.26 101.937 105.372 101.862 105.467 101.767C105.562 101.672 105.637 101.56 105.688 101.437C105.739 101.313 105.765 101.18 105.765 101.047C105.765 95.46 101.22 90.9152 95.6338 90.9152C90.0474 90.9152 85.502 95.46 85.502 101.047Z" fill="#727E99"/>
</g>
</svg>
