<svg width="160" height="160" viewBox="0 0 160 160" fill="none" xmlns="http://www.w3.org/2000/svg">
<mask id="mask0_2003_444" style="mask-type:alpha" maskUnits="userSpaceOnUse" x="0" y="0" width="160" height="160">
<rect width="160" height="160" fill="#D9D9D9"/>
</mask>
<g mask="url(#mask0_2003_444)">
<path opacity="0.75" d="M33.3258 96.4212C33.0043 95.4852 32.9102 94.2534 33.2289 94.485C33.617 94.6572 33.9219 93.891 34.3266 93.2412C34.7314 92.5914 34.8837 93.4704 35.3688 93.0546C35.8539 92.6388 36.0507 92.1672 36.5081 92.2801C36.9654 92.3929 37.0929 91.9807 37.5087 91.6243C37.9938 91.2085 38.0769 92.1469 38.95 91.9033C39.3768 91.8403 39.5044 91.4281 39.7206 90.8389C39.9867 90.3079 40.433 90.1274 40.8127 90.7106C41.1924 91.2938 42.0183 91.6964 42.7666 92.5694C43.5149 93.4424 48.4259 99.7329 49.9114 101.186C51.3969 102.638 54.465 104.955 55.2023 105.535C56.0587 106.113 64.7226 112.014 70.7536 115.123C76.7846 118.233 87.3778 122.177 92.4472 123.182C97.5166 124.188 109.452 125.771 115.45 125.475C121.517 125.121 126.384 125.19 131.085 123.381C135.855 121.514 143.37 117.799 145.299 115.842C145.299 115.842 145.302 116.546 143.68 118.441C142.059 120.336 136.368 125.618 132.385 128.123C128.729 130.449 119.515 134.005 111.241 134.03C102.968 134.054 95.1515 134.191 86.6314 132.105C78.1113 130.018 73.1805 128.894 65.1789 124.748C57.108 120.661 56.1712 119.849 55.4949 119.621C54.8186 119.393 54.5498 119.219 54.1507 118.754C53.7516 118.288 53.1557 118.294 52.6679 118.005C52.2494 117.657 46.4845 114.017 41.7868 108.957C37.0393 103.839 34.1294 98.7612 33.3258 96.4212Z" fill="#FFCA42"/>
<path opacity="0.75" d="M35.6685 44.0353C35.6685 44.0353 44.1139 44.7723 48.6567 45.7246C53.1496 46.6187 68.6628 48.8697 79.5494 56.8025C90.4361 64.7353 98.2795 71.6421 108.323 85.0426C118.367 98.4432 119.563 107.413 118.538 111.826C117.512 116.238 112.882 123.74 110.102 126.527C110.102 126.527 118.185 120.81 120.522 118.909C122.928 116.947 129.619 111.01 129.706 102.556C129.842 94.1601 124.069 83.3582 118.019 75.3181C111.969 67.278 100.881 55.8838 93.5138 51.4965C86.147 47.1091 73.4197 40.9558 69.7999 39.8182C66.1108 38.7399 64.312 38.4644 64.6307 38.696C64.9495 38.9277 68.2699 39.7161 68.9462 39.9441C69.6225 40.1721 74.168 41.8289 75.7201 42.5177C77.0533 43.0913 78.3282 44.0177 78.597 44.1911C78.2284 43.9013 75.2434 42.5225 74.1292 42.064C72.9457 41.665 71.1857 41.1544 70.8475 41.0404C70.5094 40.9264 70.1823 41.1058 69.8636 40.8742C69.5449 40.6425 69.4451 40.5261 69.1568 40.4703C68.7993 40.4739 68.1119 39.9525 67.6546 39.8397C67.1973 39.7269 66.8896 39.7887 66.6512 39.7911C66.4129 39.7935 66.0248 39.6213 65.7172 39.6831C65.3596 39.6867 65.2404 39.6879 64.9217 39.4562C64.6723 39.1652 64.2344 38.9348 63.9267 38.9966C63.619 39.0584 63.2809 38.9444 63.1811 38.828C63.0813 38.7116 62.6823 38.246 62.3247 38.2496C62.0863 38.252 57.4937 37.2415 55.7946 37.0824C54.0457 36.8652 52.8538 36.8772 52.4963 36.8808C52.1387 36.8844 51.8116 37.0637 51.7119 36.9473C51.4929 36.8321 51.2545 36.8345 51.1852 36.8939C51.0467 37.0127 50.739 37.0745 50.52 36.9593C50.3011 36.8441 49.6359 36.9095 48.2167 37.2173C46.7477 37.4668 46.5093 37.4692 43.6543 38.9068C40.8686 40.2849 36.4087 42.7952 35.6685 44.0353ZM56.2513 44.7678C56.6588 44.8224 56.9969 44.9364 57.4043 44.991C60.0485 45.5515 66.5204 47.0714 70.5004 48.9099C75.6944 51.3232 82.9893 55.0656 85.0209 56.454C87.0524 57.8425 87.252 58.0753 87.4127 58.5433C87.5734 59.0113 87.6122 58.7761 88.3799 59.5315C89.1476 60.2869 90.3117 60.8035 90.6803 61.0933C91.049 61.3831 94.6464 64.4582 98.1967 68.1795C101.797 71.9589 106.669 78.4846 106.669 78.4846C106.669 78.4846 98.3269 68.4717 93.8426 64.6424C89.3084 60.7549 87.4958 59.4817 86.6394 58.9033C85.7829 58.3248 80.2731 53.8601 73.0308 50.8804C66.4649 48.1286 61.3512 45.9493 57.4542 45.0492C56.5895 44.8818 56.1321 44.769 56.2513 44.7678Z" fill="#FFCA42"/>
<path opacity="0.75" d="M20.7665 30.8589C19.7187 32.1609 17.928 33.9986 16.9134 36.1808C15.8987 38.3629 14.3544 44.8357 14.5564 48.2971C14.7585 51.7584 16.2657 58.8462 17.9948 64.2295C19.8431 69.6115 21.6417 72.4111 22.5119 73.9873C23.3821 75.5635 24.4324 77.4901 24.9229 78.4831C25.4828 79.4168 29.0883 84.605 30.3272 86.471C31.5161 88.2788 33.5336 91.1937 34.8002 92.5311C36.0169 93.8103 40.1685 98.9344 40.7976 99.8086C41.4267 100.683 43.1339 102.955 44.201 104.06C45.268 105.164 47.4603 107.021 48.5966 108.066C49.7329 109.111 55.6445 114.746 57.7149 115.899C59.7354 116.994 60.4532 117.691 61.3207 118.563C62.1383 119.377 63.5103 119.715 63.7098 119.948C63.9094 120.181 68.8483 123.419 70.3616 124.343C71.8749 125.267 77.9725 127.612 81.8306 128.747C85.6195 129.942 89.8934 130.721 92.8342 130.926C95.775 131.132 97.8122 131.405 102.505 130.007C107.078 128.611 109.853 126.94 112.824 124.797C115.796 122.653 119.194 120.447 121.658 118.133C124.123 115.819 125.714 113.749 125.999 113.1C125.999 113.1 112.705 122.274 98.7832 120.476C84.9109 118.737 69.0214 109.035 52.3424 92.9419C35.6635 76.849 26.3164 53.4621 25.6767 47.2461C25.6767 47.2461 25.2387 47.0157 25.574 48.9495C25.9591 50.9415 26.7627 53.2815 26.7627 53.2815C26.7627 53.2815 25.7345 51.9417 24.9837 47.8401C24.2329 43.7385 24.3606 40.8021 24.5604 38.5107C24.7407 36.337 25.3258 33.5134 26.8864 31.267C28.3778 29.0801 30.9391 26.178 33.1567 24.2772C35.3742 22.3765 37.1288 21.4783 36.6326 21.6007C36.1365 21.7231 31.6434 23.3532 27.8182 25.6223C24.0429 27.9496 21.8143 29.5569 20.7665 30.8589ZM21.4207 64.0189C22.166 66.7117 23.2552 68.4032 23.6654 69.1622C24.0755 69.9212 24.1863 70.331 24.6658 71.0306C25.1452 71.7302 24.2888 71.1518 24.7489 71.969C25.2089 72.7862 26.0071 73.7174 26.8163 74.942C27.6256 76.1666 27.9387 77.5136 29.086 78.8522C30.1835 80.1327 31.6246 82.9359 32.9022 84.5667C34.1799 86.1975 35.5074 87.8865 36.5356 89.2264C37.5638 90.5662 38.1347 91.7932 39.1823 93.0154C40.18 94.1794 41.3883 95.8696 40.1827 94.8838C39.5453 94.4206 37.5803 92.2684 36.6324 91.1626C35.7345 90.1149 33.897 87.5505 33.2181 86.6181C32.5391 85.6857 24.7376 74.1998 23.8952 72.095C23.0527 69.9901 19.9961 62.9179 19.0207 59.8165C18.0952 56.7733 17.9762 54.2503 17.9762 54.2503C17.9762 54.2503 20.6753 61.3261 21.4207 64.0189Z" fill="#FFCA42"/>
<path opacity="0.75" d="M20.2231 31.6277C19.9071 32.1005 30.0547 28.6525 33.6191 28.3232C37.1836 27.9939 48.542 29.4648 53.6834 31.1155C58.8248 32.7662 72.8853 39.4931 74.1491 40.1261C75.3631 40.7009 75.7039 41.5193 76.5299 41.9219C77.3558 42.3246 76.0642 42.2201 77.0398 42.7974C78.0154 43.3746 85.3435 47.9971 86.7875 48.9806C88.2314 49.964 93.4503 53.6685 95.2934 55.1175C97.1365 56.5666 110.082 67.8834 114.292 72.6547C118.552 77.4842 125.469 86.3961 127.847 90.0117C130.225 93.6273 132.946 98.7658 134.928 102.62C136.909 106.475 137.075 110.876 137.155 113.634C137.305 116.333 136.271 118.632 135.206 120.756C134.161 122.763 130.616 128.023 127.913 130.339C127.913 130.339 131.217 129.426 135.455 126.096C139.694 122.766 146.671 116.18 147.555 111.181C148.44 106.183 147.681 97.4437 142.324 88.8096C137.017 80.2338 130.011 71.4989 128.813 70.102C127.616 68.7052 123.855 64.4577 123.107 63.5847C122.359 62.7117 121.79 62.1891 121.123 61.5501C120.455 60.9111 120.089 61.3257 120.388 61.6749C120.687 62.0241 120.657 61.8483 121.175 62.3127C121.693 62.7771 122.032 62.8911 122.142 63.3009C122.253 63.7107 122.403 63.8853 122.772 64.1751C123.14 64.4649 123.22 64.6989 123.62 65.1645C124.019 65.6301 123.919 65.5137 124.437 65.9781C124.955 66.4426 124.689 66.9735 124.689 66.9735C124.689 66.9735 124.202 66.6849 123.802 66.2193C123.403 65.7537 121.408 63.4257 120.939 63.0195C120.521 62.6715 120.022 62.0895 119.742 61.6227C119.462 61.1559 118.994 60.7496 118.695 60.4004C118.395 60.0512 117.96 60.5252 117.661 60.176C117.361 59.8268 117.65 59.8826 117.251 59.417C116.852 58.9514 116.145 58.5476 115.796 58.1402C115.446 57.7328 114.255 57.7448 113.756 57.1627C113.257 56.5807 112.75 56.4097 112.996 55.9963C113.243 55.5829 113.024 55.4677 112.816 55.6459C112.608 55.8241 112.123 56.2399 111.705 55.8919C111.286 55.5439 110.887 55.0783 110.3 54.6733C109.712 54.2683 108.387 53.2836 108.038 52.8762C107.689 52.4688 107.597 51.9414 107.597 51.9414C107.597 51.9414 108.933 53.2195 109.571 53.6827C110.208 54.1459 111.234 54.7813 110.835 54.3157C110.435 53.8501 109.937 53.2681 109.637 52.9189C109.338 52.5697 109.377 52.3345 108.839 51.9877C108.301 51.6408 107.944 51.6444 107.376 51.1218C106.807 50.5992 106.5 50.661 106.001 50.079C105.502 49.497 105.303 49.2642 105.103 49.0314C104.903 48.7986 104.285 48.2178 103.867 47.8698C103.448 47.5218 103.052 47.7605 102.634 47.4125C102.215 47.0645 101.029 45.9611 100.61 45.6131C100.192 45.2651 99.4352 44.8031 98.9474 44.5145C98.4596 44.2259 97.6531 43.7056 97.1847 43.2994C96.7163 42.8932 97.0738 42.8896 96.5251 42.2494C95.9763 41.6092 96.1039 41.197 94.7707 40.6234C93.4376 40.0498 93.5179 40.2838 92.7917 39.9975C92.0656 39.7113 90.8904 38.9013 90.1532 38.3217C89.416 37.7421 88.9586 37.6293 88.6593 37.2801C88.36 36.9309 88.1605 36.698 87.9332 36.9938C87.7059 37.2896 87.1293 37.178 87.2569 36.7658C87.3844 36.3536 86.9659 36.0056 86.9659 36.0056C86.14 35.603 85.1255 35.261 84.8262 34.9118C84.5269 34.5626 84.1888 34.4486 83.3129 33.9878C82.4371 33.5269 82.4371 33.5269 82.0186 33.1789C81.6001 32.8309 80.8877 33.5425 80.3001 33.1375C79.7126 32.7325 78.6566 31.9213 77.8806 31.5768C77.1045 31.2324 76.8246 30.7656 76.0485 30.4212C75.2725 30.0768 75.6689 29.838 77.451 30.9354C79.2331 32.0329 79.5602 31.8535 79.0419 31.3891C78.5237 30.9247 77.4399 30.642 76.5336 30.0054C75.6273 29.3688 75.2892 29.2548 74.8817 29.2002C74.4743 29.1456 74.3967 29.616 73.7398 29.2704C73.0829 28.9247 71.7997 28.4093 71.1428 28.0637C70.4859 27.7181 69.5491 26.9057 68.8729 26.6777C68.1966 26.4496 67.5092 25.9282 66.8828 25.7584C66.2564 25.5886 65.4111 25.3036 65.6106 25.5364C65.8102 25.7692 66.8745 26.1694 67.7004 26.572C68.5264 26.9746 68.8562 27.4997 68.8562 27.4997C68.8562 27.4997 67.8417 27.1576 67.0851 26.6956C66.3284 26.2336 65.9016 26.2966 65.2447 25.951C64.5879 25.6054 63.942 25.5531 64.0917 25.7277C64.2414 25.9024 65.1283 26.6566 64.452 26.4286C63.7757 26.2005 63.0689 25.7967 62.1238 25.3953C61.1787 24.9939 59.5794 24.9512 59.5794 24.9512C59.5794 24.9512 59.8261 24.5379 60.5911 24.5889C61.3561 24.6399 61.8827 24.6933 61.176 24.2895C60.4692 23.8857 60.9265 23.9985 59.962 23.7147C58.9975 23.4308 57.595 22.9166 56.2923 22.5188C54.9897 22.121 54.84 21.9464 54.1942 21.8941C53.5484 21.8419 53.5872 21.6067 53.5484 21.8419C53.5096 22.0771 53.5705 22.4287 53.5705 22.4287C52.6753 22.0855 52.1098 22.2673 51.5028 21.9799C50.8958 21.6925 49.1885 21.9444 48.4429 21.7758C47.6973 21.6072 46.5138 21.2082 45.9179 21.2141C45.3219 21.2201 44.7953 21.1667 43.9112 21.1169C43.027 21.0671 41.0119 21.3808 40.3467 21.4462C39.6815 21.5116 38.7585 21.697 38.1237 21.9382C37.489 22.1794 35.5238 22.5513 33.0153 23.6918C29.9386 24.3098 21.831 28.7351 20.2231 31.6277ZM61.7575 30.8583C65.3384 32.2311 70.1833 34.237 71.2282 34.7549C72.2232 35.2145 75.6294 37.6458 77.5197 38.4486C79.3406 39.3108 83.7031 42.4369 85.3854 43.418C87.0678 44.399 96.3996 50.9386 99.0409 53.3188C101.682 55.6991 109.207 62.3742 110.454 63.8292C111.651 65.2261 112.48 66.3331 112.998 66.7975C113.516 67.2619 114.423 67.8985 115.071 68.6551C115.72 69.4117 116.177 69.5245 116.676 70.1065C117.225 70.7468 117.624 71.2124 118.173 71.8526C118.721 72.4928 132.933 90.1954 133.992 94.2352C134.183 94.879 126.251 83.1009 125.572 82.1685C124.893 81.2361 119.273 73.8374 116.911 71.9239C114.619 69.9511 109.151 63.4314 107.646 62.0964C106.092 60.7031 95.241 51.8307 94.2238 50.7843C93.2067 49.7379 87.0649 46.2188 85.1331 44.9467C83.2512 43.7329 76.0202 38.5224 73.7198 36.9605C71.4194 35.3987 67.0734 33.9748 64.5956 32.7669C62.1676 31.6173 52.5805 28.4263 50.5821 27.918C50.4824 27.8016 58.0573 29.4866 61.7575 30.8583Z" fill="#FFCA42"/>
<ellipse cx="75.9268" cy="79.6859" rx="56" ry="55.5" fill="#DFEBFB"/>
<path d="M87.7369 96.8693H64.2168C62.4343 96.8693 60.9893 98.3143 60.9893 100.097C60.9893 101.879 62.4343 103.324 64.2168 103.324H87.7369C89.5194 103.324 90.9644 101.879 90.9644 100.097C90.9644 98.3144 89.5194 96.8693 87.7369 96.8693Z" fill="#FFBD86"/>
<path d="M65.4961 87.1501V99.7008C65.4961 105.489 70.1881 110.181 75.9764 110.181C78.8706 110.181 81.4904 109.008 83.387 107.112C85.2835 105.215 86.4566 102.595 86.4566 99.7009V87.1503H65.4961V87.1501Z" fill="#FED2A4"/>
<path d="M76.0828 77.6741C68.2779 77.6163 61.9326 83.9258 61.9326 91.7174V92.4333C61.9326 92.6063 62.0014 92.7723 62.1237 92.8947C62.2461 93.017 62.412 93.0858 62.5851 93.0858H67.6732C70.9701 93.0858 74.0563 91.5017 75.9762 88.8482C76.9268 90.1604 78.175 91.2286 79.6182 91.9652C81.0615 92.7018 82.6588 93.0858 84.2792 93.0858H89.3673C89.5404 93.0858 89.7063 93.017 89.8287 92.8947C89.9511 92.7723 90.0198 92.6063 90.0198 92.4333V91.8938C90.0201 84.1501 83.8263 77.7316 76.0828 77.6741Z" fill="#918291"/>
<path d="M76.0828 77.6741C75.609 77.6706 75.1406 77.6909 74.6787 77.7332C81.8628 78.394 87.4379 84.547 87.4379 91.8935V92.433C87.4379 92.6061 87.3691 92.772 87.2468 92.8944C87.1244 93.0168 86.9584 93.0855 86.7854 93.0855L89.3674 93.0856C89.5405 93.0856 89.7064 93.0169 89.8288 92.8945C89.9511 92.7722 90.0199 92.6062 90.0199 92.4332V91.8936C90.02 84.15 83.8263 77.7315 76.0828 77.6741Z" fill="#7A6D79"/>
<path d="M72.609 52.902V55.0288C72.609 55.5356 72.3269 56.0004 71.8773 56.2345L69.5931 57.4232C69.3725 57.538 69.1876 57.7111 69.0586 57.9237C68.9296 58.1363 68.8613 58.3802 68.8613 58.6289V63.6344C68.8613 64.5924 69.638 65.3691 70.5959 65.3691H72.6089V69.4111C72.6089 70.5081 73.4981 71.3973 74.5951 71.3973C75.6921 71.3973 76.5813 70.5081 76.5813 69.4111V66.6899C76.5813 66.5983 76.6178 66.5104 76.6826 66.4456C76.7474 66.3808 76.8353 66.3444 76.9269 66.3443H80.5194C81.94 66.3443 83.0916 65.1928 83.0916 63.7721V52.902H72.609Z" fill="#FED2A4"/>
<path d="M80.5097 52.902V63.772C80.5097 65.1926 79.3581 66.3443 77.9375 66.3443H80.5195C81.9401 66.3443 83.0917 65.1928 83.0917 63.7721V52.902H80.5097Z" fill="#FFBD86"/>
<path d="M83.0911 52.902H72.6084V49.3847C72.6084 49.2574 72.7116 49.1543 72.8388 49.1543H82.8608C82.9881 49.1543 83.0913 49.2574 83.0913 49.3847V52.902H83.0911Z" fill="#62DBFB"/>
<path d="M82.8613 49.1544H80.2793C80.4066 49.1544 80.5097 49.2574 80.5097 49.3847V52.902H83.0918V49.3847C83.0918 49.2574 82.9886 49.1544 82.8613 49.1544Z" fill="#01D0FB"/>
<path d="M106.269 66.6692L97.1904 61.4278L98.949 58.3819C98.9642 58.3557 98.9843 58.3328 99.0083 58.3143C99.0323 58.2959 99.0597 58.2824 99.0889 58.2746C99.1182 58.2667 99.1487 58.2647 99.1787 58.2687C99.2087 58.2727 99.2376 58.2825 99.2638 58.2976L107.943 63.3086C107.969 63.3237 107.992 63.3438 108.011 63.3678C108.029 63.3918 108.043 63.4192 108.05 63.4485C108.058 63.4777 108.06 63.5082 108.056 63.5382C108.052 63.5682 108.042 63.5971 108.027 63.6233L106.269 66.6692Z" fill="#5DE1C4"/>
<path d="M45.6839 66.6692L54.7622 61.4278L53.0037 58.3818C52.9886 58.3556 52.9684 58.3326 52.9444 58.3142C52.9204 58.2958 52.893 58.2823 52.8638 58.2744C52.8345 58.2666 52.8041 58.2646 52.7741 58.2686C52.7441 58.2725 52.7151 58.2824 52.6889 58.2975L44.0097 63.3084C43.9835 63.3236 43.9606 63.3437 43.9421 63.3677C43.9237 63.3917 43.9102 63.4191 43.9024 63.4483C43.8945 63.4776 43.8926 63.5081 43.8965 63.5381C43.9005 63.5681 43.9103 63.597 43.9254 63.6232L45.6839 66.6692Z" fill="#FD8087"/>
<path d="M97.1902 61.4277L96.1268 63.2696C96.0024 63.485 95.8214 63.6621 95.6034 63.7817C95.3853 63.9013 95.1387 63.9588 94.8902 63.9479L92.3176 63.8353C92.0692 63.8245 91.8225 63.882 91.6045 64.0015C91.3865 64.1211 91.2054 64.2983 91.0811 64.5136L88.5784 68.8486C88.0994 69.6783 88.3837 70.7391 89.2133 71.2181L90.9565 72.2246L88.9355 75.725C88.387 76.6751 88.7125 77.8898 89.6624 78.4382C90.6123 78.9866 91.8272 78.6611 92.3756 77.7112L93.7362 75.3546C93.782 75.2753 93.8575 75.2173 93.9461 75.1936C94.0346 75.1699 94.1289 75.1823 94.2083 75.2281L97.3195 77.0243C98.5497 77.7346 100.123 77.3131 100.833 76.0827L106.268 66.6688L97.1902 61.4277Z" fill="#FED2A4"/>
<path d="M107.943 63.3084L106.054 62.2178C106.05 62.2493 106.04 62.2797 106.024 62.3072L104.196 65.4728L106.268 66.669L108.027 63.623C108.09 63.5129 108.053 63.3721 107.943 63.3084Z" fill="#0ED2B3"/>
<path d="M104.197 65.4728L98.7219 74.9556C98.1366 75.9692 96.9745 76.4418 95.8896 76.1986L97.3201 77.0245C98.5503 77.7348 100.124 77.3133 100.834 76.0831L106.269 66.6692L104.197 65.4728Z" fill="#FFBD86"/>
<path d="M54.7628 61.4277L55.8262 63.2696C55.9506 63.485 56.1316 63.6621 56.3496 63.7817C56.5676 63.9013 56.8143 63.9588 57.0627 63.9479L59.6353 63.8353C59.8838 63.8245 60.1304 63.882 60.3485 64.0015C60.5665 64.1211 60.7475 64.2983 60.8719 64.5136L63.3746 68.8486C63.8536 69.6783 63.5693 70.7391 62.7397 71.2181L60.9964 72.2246L63.0175 75.725C63.5659 76.6751 63.2405 77.8898 62.2906 78.4382C61.3406 78.9866 60.1258 78.6611 59.5774 77.7112L58.2168 75.3546C58.1709 75.2753 58.0954 75.2173 58.0069 75.1936C57.9184 75.1699 57.824 75.1823 57.7447 75.2281L54.6335 77.0243C53.4033 77.7346 51.83 77.3131 51.1197 76.0827L45.6846 66.6688L54.7628 61.4277Z" fill="#FED2A4"/>
<path d="M51.5051 59.2516L53.2619 62.2945L54.7632 61.4277L53.0046 58.3818C52.9895 58.3556 52.9693 58.3326 52.9453 58.3142C52.9213 58.2958 52.8939 58.2823 52.8647 58.2744C52.8354 58.2666 52.805 58.2646 52.775 58.2686C52.745 58.2725 52.716 58.2824 52.6898 58.2975L51.1855 59.166C51.2393 59.135 51.3031 59.1266 51.363 59.1427C51.4229 59.1587 51.474 59.1979 51.5051 59.2516Z" fill="#FE646F"/>
<path d="M53.2901 62.3436L54.3697 64.2133C54.4959 64.432 54.6797 64.6118 54.901 64.7332C55.1223 64.8546 55.3727 64.913 55.6249 64.902L58.2364 64.7877C58.4886 64.7767 58.739 64.8351 58.9603 64.9565C59.1816 65.0779 59.3654 65.2577 59.4916 65.4763L62.0323 69.8769C62.3553 70.4363 62.3347 71.0983 62.0389 71.623L62.7399 71.2182C63.5696 70.7393 63.8538 69.6783 63.3748 68.8487L60.8721 64.5136C60.7477 64.2983 60.5667 64.1211 60.3487 64.0015C60.1307 63.882 59.884 63.8245 59.6356 63.8353L57.063 63.9479C56.8145 63.9588 56.5679 63.9013 56.3498 63.7817C56.1318 63.6621 55.9508 63.485 55.8264 63.2696L54.763 61.4277L53.2617 62.2945L53.2901 62.3436Z" fill="#FFBD86"/>
<path d="M70.596 66.3374H71.6407V69.4113C71.6407 71.0404 72.9661 72.3657 74.5952 72.3657C76.2243 72.3657 77.5497 71.0404 77.5497 69.4113V67.3126H80.5196C82.4719 67.3126 84.0601 65.7244 84.0601 63.7721V60.5258C84.0601 60.269 83.9581 60.0227 83.7765 59.8411C83.5949 59.6595 83.3486 59.5575 83.0918 59.5575C82.835 59.5575 82.5888 59.6595 82.4072 59.8411C82.2256 60.0227 82.1236 60.269 82.1236 60.5258V63.7721C82.1236 64.6566 81.4041 65.3761 80.5196 65.3761H76.9272C76.2026 65.3761 75.6133 65.9654 75.6133 66.6899V69.4111C75.6133 69.9725 75.1567 70.4291 74.5953 70.4291C74.034 70.4291 73.5774 69.9725 73.5774 69.4111V63.1817C73.5774 62.925 73.4754 62.6787 73.2938 62.4971C73.1122 62.3155 72.8659 62.2135 72.6091 62.2135C72.3523 62.2135 72.106 62.3155 71.9245 62.4971C71.7429 62.6787 71.6409 62.925 71.6409 63.1817V64.4007H70.5962C70.393 64.4005 70.1982 64.3197 70.0545 64.176C69.9108 64.0323 69.83 63.8376 69.8297 63.6344V58.6289C69.8296 58.5573 69.8492 58.4871 69.8863 58.426C69.9234 58.3648 69.9766 58.315 70.0401 58.2821L72.3243 57.0932C72.7026 56.8973 73.0196 56.601 73.2406 56.2368C73.4616 55.8726 73.5781 55.4546 73.5772 55.0286V53.8701H82.1236V56.0072C82.1236 56.264 82.2256 56.5103 82.4072 56.6919C82.5888 56.8735 82.835 56.9755 83.0918 56.9755C83.3486 56.9755 83.5949 56.8735 83.7765 56.6919C83.9581 56.5103 84.0601 56.264 84.0601 56.0072V49.3846C84.0601 48.7236 83.5224 48.1859 82.8614 48.1859H72.8393C72.1783 48.1859 71.6406 48.7236 71.6406 49.3846V55.0285C71.6407 55.1001 71.6212 55.1703 71.5841 55.2315C71.5469 55.2927 71.4937 55.3425 71.4302 55.3754L69.146 56.5643C68.7677 56.7602 68.4507 57.0565 68.2296 57.4207C68.0086 57.7849 67.8921 58.2029 67.8929 58.6289V63.6345C67.8931 65.1247 69.1056 66.3374 70.596 66.3374ZM82.1236 50.1226V51.9336H73.5772V50.1226H82.1236ZM108.427 62.4699L99.7478 57.4588C99.1755 57.1287 98.4412 57.3253 98.1104 57.8977L95.2884 62.7855C95.2527 62.8475 95.2006 62.8985 95.1379 62.9329C95.0752 62.9673 95.0043 62.9838 94.9328 62.9806L92.3604 62.868C91.9349 62.849 91.5123 62.9472 91.1389 63.1521C90.7655 63.3569 90.4556 63.6605 90.243 64.0296L87.7402 68.3645C86.9951 69.6553 87.4388 71.3115 88.7295 72.0568L89.6343 72.5791L88.0973 75.2412C87.2827 76.652 87.7679 78.4625 89.1788 79.277C90.5954 80.095 92.4 79.607 93.2146 78.1955L94.264 76.3782L96.8359 77.8631C98.5265 78.8392 100.696 78.2579 101.672 76.5672L108.866 64.1073C109.197 63.5347 109 62.8003 108.427 62.4699ZM99.4187 59.5048L106.82 63.7779L105.915 65.3464L98.5132 61.0733L99.4187 59.5048ZM99.9953 75.5989C99.8904 75.7817 99.7504 75.9419 99.5832 76.0702C99.416 76.1985 99.225 76.2923 99.0213 76.3463C98.8179 76.4013 98.6056 76.4155 98.3967 76.388C98.1878 76.3605 97.9864 76.2919 97.8042 76.1861L94.693 74.3898C94.0654 74.0275 93.2605 74.2434 92.8982 74.8708L91.5375 77.2275C91.4707 77.3434 91.3817 77.4449 91.2757 77.5263C91.1696 77.6077 91.0486 77.6674 90.9194 77.702C90.7903 77.7366 90.6556 77.7454 90.5231 77.7279C90.3905 77.7105 90.2627 77.667 90.1469 77.6001C89.6609 77.3195 89.4937 76.6956 89.7744 76.2096L92.8891 70.8148C93.0154 70.5926 93.0488 70.3293 92.9818 70.0826C92.9148 69.8358 92.7529 69.6256 92.5315 69.4977C92.31 69.3699 92.047 69.3348 91.7998 69.4002C91.5526 69.4655 91.3413 69.626 91.212 69.8466L90.6025 70.9022L89.6978 70.3799C89.522 70.2781 89.3937 70.1107 89.3411 69.9145C89.2885 69.7182 89.3159 69.5091 89.4173 69.333L91.92 64.9981C91.9557 64.936 92.0078 64.885 92.0705 64.8506C92.1333 64.8162 92.2043 64.7997 92.2758 64.803L94.8483 64.9156C95.2738 64.9347 95.6964 64.8365 96.0698 64.6317C96.4433 64.4268 96.7532 64.1232 96.9657 63.7541L97.5449 62.7507L104.946 67.0238L99.9953 75.5989ZM62.7743 79.2769C64.1852 78.4623 64.6703 76.6517 63.8558 75.2411L62.3189 72.579L63.2236 72.0567C64.5144 71.3114 64.9581 69.6551 64.2129 68.3644L61.7102 64.0294C61.4979 63.6601 61.188 63.3563 60.8145 63.1515C60.441 62.9466 60.0183 62.8485 59.5928 62.868L57.0202 62.9806C56.9487 62.9839 56.8777 62.9674 56.815 62.933C56.7523 62.8986 56.7003 62.8476 56.6646 62.7855L53.8425 57.8974C53.512 57.3253 52.7776 57.1285 52.2052 57.459L43.5259 62.4698C42.9535 62.8003 42.7566 63.5347 43.0871 64.1073L50.2809 76.5672C51.257 78.2579 53.4265 78.8391 55.1172 77.8631L57.6892 76.3782L58.7385 78.1955C59.553 79.6065 61.3572 80.0951 62.7743 79.2769ZM52.5345 59.5048L53.44 61.0733L46.0386 65.3464L45.1331 63.7779L52.5345 59.5048ZM57.9149 74.2139C57.6922 74.2139 57.4665 74.2705 57.2602 74.3896L54.149 76.1859C53.9668 76.2918 53.7654 76.3604 53.5564 76.3879C53.3475 76.4154 53.1352 76.4012 52.9318 76.3462C52.7281 76.2922 52.5372 76.1983 52.37 76.0701C52.2028 75.9418 52.0627 75.7816 51.9579 75.5988L47.007 67.0235L54.4084 62.7504L54.9875 63.7537C55.1999 64.1229 55.5098 64.4265 55.8833 64.6314C56.2567 64.8362 56.6794 64.9344 57.1049 64.9152L59.6775 64.8026C59.749 64.7992 59.82 64.8157 59.8828 64.8501C59.9455 64.8845 59.9976 64.9356 60.0331 64.9977L62.5359 69.3326C62.6373 69.5087 62.6647 69.7178 62.6121 69.9141C62.5596 70.1104 62.4312 70.2777 62.2554 70.3795L61.3506 70.9018L60.7411 69.8462C60.6118 69.6256 60.4005 69.4651 60.1533 69.3998C59.9061 69.3344 59.6431 69.3695 59.4217 69.4974C59.2003 69.6252 59.0384 69.8354 58.9714 70.0822C58.9044 70.3289 58.9377 70.5922 59.0641 70.8144L62.1788 76.2092C62.4595 76.6952 62.2923 77.3191 61.8062 77.5997C61.6905 77.6667 61.5627 77.7101 61.4301 77.7276C61.2976 77.7451 61.1629 77.7363 61.0337 77.7017C60.9046 77.6671 60.7835 77.6074 60.6775 77.5259C60.5714 77.4445 60.4825 77.343 60.4157 77.2271L59.0551 74.8704C58.9394 74.6705 58.7731 74.5046 58.573 74.3893C58.3728 74.2741 58.1458 74.2136 57.9149 74.2139Z" fill="#727E99"/>
<path d="M70.596 66.3374H71.6407V69.4112C71.6407 71.0404 72.9661 72.3657 74.5952 72.3657C76.2243 72.3657 77.5497 71.0404 77.5497 69.4112V67.3126H80.5196C82.4719 67.3126 84.0601 65.7244 84.0601 63.7721V60.5258C84.0601 60.269 83.9581 60.0227 83.7765 59.8411C83.5949 59.6595 83.3486 59.5575 83.0918 59.5575C82.835 59.5575 82.5888 59.6595 82.4072 59.8411C82.2256 60.0227 82.1236 60.269 82.1236 60.5258V63.7721C82.1236 64.6566 81.4041 65.3761 80.5196 65.3761H76.9272C76.2026 65.3761 75.6133 65.9654 75.6133 66.6899V69.4111C75.6133 69.9725 75.1567 70.4291 74.5953 70.4291C74.034 70.4291 73.5774 69.9725 73.5774 69.4111V63.1817C73.5774 62.925 73.4754 62.6787 73.2938 62.4971C73.1122 62.3155 72.8659 62.2135 72.6091 62.2135C72.3523 62.2135 72.106 62.3155 71.9245 62.4971C71.7429 62.6787 71.6409 62.925 71.6409 63.1817V64.4007H70.5962C70.393 64.4005 70.1982 64.3197 70.0545 64.176C69.9108 64.0323 69.83 63.8376 69.8297 63.6344V58.6289C69.8296 58.5573 69.8492 58.4871 69.8863 58.426C69.9234 58.3648 69.9766 58.315 70.0401 58.2821L72.3243 57.0932C72.7026 56.8973 73.0196 56.601 73.2406 56.2368C73.4616 55.8726 73.5781 55.4546 73.5772 55.0286V53.8701H82.1236V56.0072C82.1236 56.264 82.2256 56.5103 82.4072 56.6919C82.5888 56.8735 82.835 56.9755 83.0918 56.9755C83.3486 56.9755 83.5949 56.8735 83.7765 56.6919C83.9581 56.5103 84.0601 56.264 84.0601 56.0072V49.3846C84.0601 48.7236 83.5224 48.1859 82.8614 48.1859H72.8393C72.1783 48.1859 71.6406 48.7236 71.6406 49.3846V55.0285C71.6407 55.1001 71.6212 55.1703 71.5841 55.2315C71.5469 55.2927 71.4937 55.3425 71.4302 55.3754L69.146 56.5643C68.7677 56.7602 68.4507 57.0565 68.2296 57.4207C68.0086 57.7849 67.8921 58.2029 67.8929 58.6289V63.6345C67.8931 65.1247 69.1056 66.3374 70.596 66.3374ZM82.1236 50.1226V51.9336H73.5772V50.1226H82.1236ZM108.427 62.4699L99.7478 57.4588C99.1755 57.1287 98.4412 57.3253 98.1104 57.8977L95.2884 62.7855C95.2527 62.8475 95.2006 62.8985 95.1379 62.9329C95.0752 62.9673 95.0043 62.9838 94.9328 62.9806L92.3604 62.868C91.9349 62.849 91.5123 62.9472 91.1389 63.1521C90.7655 63.3569 90.4556 63.6605 90.243 64.0296L87.7402 68.3645C86.9951 69.6553 87.4388 71.3115 88.7295 72.0568L89.6343 72.5791L88.0973 75.2412C87.2827 76.652 87.7679 78.4625 89.1788 79.277C90.5954 80.095 92.4 79.607 93.2146 78.1955L94.264 76.3782L96.8359 77.8631C98.5265 78.8392 100.696 78.2579 101.672 76.5672L108.866 64.1073C109.197 63.5347 109 62.8003 108.427 62.4699ZM99.4187 59.5048L106.82 63.7779L105.915 65.3464L98.5132 61.0733L99.4187 59.5048ZM99.9953 75.5989C99.8904 75.7817 99.7504 75.9419 99.5832 76.0702C99.416 76.1985 99.225 76.2923 99.0213 76.3463C98.8179 76.4013 98.6056 76.4155 98.3967 76.388C98.1878 76.3605 97.9864 76.2919 97.8042 76.1861L94.693 74.3898C94.0654 74.0275 93.2605 74.2434 92.8982 74.8708L91.5375 77.2275C91.4707 77.3433 91.3817 77.4449 91.2757 77.5263C91.1696 77.6077 91.0486 77.6674 90.9194 77.702C90.7903 77.7366 90.6556 77.7454 90.5231 77.7279C90.3905 77.7105 90.2627 77.667 90.1469 77.6001C89.6609 77.3194 89.4937 76.6956 89.7744 76.2096L92.8891 70.8148C93.0154 70.5926 93.0488 70.3293 92.9818 70.0826C92.9148 69.8358 92.7529 69.6256 92.5315 69.4977C92.31 69.3699 92.047 69.3348 91.7998 69.4002C91.5526 69.4655 91.3413 69.626 91.212 69.8466L90.6025 70.9022L89.6978 70.3799C89.522 70.2781 89.3937 70.1107 89.3411 69.9145C89.2885 69.7182 89.3159 69.5091 89.4173 69.333L91.92 64.9981C91.9557 64.936 92.0078 64.885 92.0705 64.8506C92.1333 64.8162 92.2043 64.7997 92.2758 64.803L94.8483 64.9156C95.2738 64.9347 95.6964 64.8365 96.0698 64.6317C96.4433 64.4268 96.7532 64.1232 96.9657 63.7541L97.5449 62.7507L104.946 67.0238L99.9953 75.5989ZM62.7743 79.2769C64.1852 78.4623 64.6703 76.6517 63.8558 75.2411L62.3189 72.579L63.2236 72.0567C64.5144 71.3114 64.9581 69.6551 64.2129 68.3644L61.7102 64.0294C61.4979 63.6601 61.188 63.3563 60.8145 63.1515C60.441 62.9466 60.0183 62.8485 59.5928 62.868L57.0202 62.9806C56.9487 62.9839 56.8777 62.9674 56.815 62.933C56.7523 62.8986 56.7003 62.8476 56.6646 62.7855L53.8425 57.8974C53.512 57.3253 52.7776 57.1285 52.2052 57.459L43.5259 62.4698C42.9535 62.8003 42.7566 63.5347 43.0871 64.1073L50.2809 76.5672C51.257 78.2579 53.4265 78.8391 55.1172 77.8631L57.6892 76.3782L58.7385 78.1955C59.553 79.6065 61.3572 80.0951 62.7743 79.2769ZM52.5345 59.5048L53.44 61.0733L46.0386 65.3464L45.1331 63.7779L52.5345 59.5048ZM57.9149 74.2139C57.6922 74.2139 57.4665 74.2705 57.2602 74.3896L54.149 76.1859C53.9668 76.2918 53.7654 76.3604 53.5564 76.3879C53.3475 76.4154 53.1352 76.4012 52.9318 76.3462C52.7281 76.2922 52.5372 76.1983 52.37 76.07C52.2028 75.9418 52.0627 75.7816 51.9579 75.5988L47.007 67.0235L54.4084 62.7504L54.9875 63.7537C55.1999 64.1229 55.5098 64.4265 55.8833 64.6314C56.2567 64.8362 56.6794 64.9344 57.1049 64.9152L59.6775 64.8026C59.749 64.7992 59.82 64.8156 59.8828 64.8501C59.9455 64.8845 59.9976 64.9356 60.0331 64.9977L62.5359 69.3326C62.6373 69.5087 62.6647 69.7178 62.6121 69.9141C62.5596 70.1104 62.4312 70.2777 62.2554 70.3795L61.3506 70.9018L60.7411 69.8462C60.6118 69.6256 60.4005 69.4651 60.1533 69.3998C59.9061 69.3344 59.6431 69.3695 59.4217 69.4974C59.2003 69.6252 59.0384 69.8354 58.9714 70.0822C58.9044 70.3289 58.9377 70.5922 59.0641 70.8144L62.1788 76.2092C62.4595 76.6952 62.2923 77.3191 61.8062 77.5997C61.6905 77.6667 61.5627 77.7101 61.4301 77.7276C61.2976 77.7451 61.1629 77.7363 61.0337 77.7017C60.9046 77.6671 60.7835 77.6074 60.6775 77.5259C60.5714 77.4445 60.4825 77.343 60.4157 77.2271L59.0551 74.8704C58.9394 74.6705 58.7731 74.5046 58.573 74.3893C58.3728 74.2741 58.1458 74.2136 57.9149 74.2139ZM87.7364 95.9008H87.4251V94.0539H89.3677C90.2613 94.0539 90.9884 93.3269 90.9884 92.4332V91.8936C90.9884 83.5801 84.3051 76.7668 76.0902 76.7058C76.0518 76.7056 76.0139 76.7054 75.9756 76.7054C71.9862 76.7054 68.2345 78.2503 65.401 81.0629C60.3451 86.0815 61.0254 92.1034 60.9645 92.4332C60.9645 93.3268 61.6916 94.0539 62.5852 94.0539H64.5278V95.9008H64.2165C61.903 95.9008 60.0208 97.7831 60.0208 100.097C60.0208 102.41 61.903 104.292 64.2165 104.292H65.4852C65.8393 105.099 66.2852 105.863 66.8142 106.567C67.1367 106.997 67.744 107.08 68.1697 106.761C68.3751 106.607 68.5109 106.377 68.5472 106.123C68.5835 105.869 68.5173 105.611 68.3632 105.405C67.1479 103.785 66.4644 101.808 66.4644 99.7006V94.0539C66.9264 93.9695 72.0181 94.7313 75.9767 90.3807C79.9164 94.7083 85.0631 93.976 85.4885 94.0539V99.7006C85.4885 102.281 84.4639 104.665 82.7023 106.427C80.9059 108.223 78.5173 109.213 75.9763 109.213C74.3938 109.213 72.8257 108.816 71.4417 108.066C71.3299 108.005 71.2072 107.967 71.0808 107.954C70.9543 107.941 70.8265 107.953 70.7046 107.989C70.5827 108.025 70.4691 108.085 70.3704 108.165C70.2716 108.245 70.1896 108.344 70.129 108.455C70.0684 108.567 70.0304 108.69 70.0172 108.816C70.0039 108.943 70.0158 109.071 70.052 109.193C70.0882 109.314 70.148 109.428 70.2281 109.527C70.3082 109.626 70.4069 109.708 70.5187 109.768C72.1854 110.672 74.0726 111.149 75.9765 111.149C79.0346 111.149 81.9097 109.959 84.0717 107.796C85.0818 106.788 85.8943 105.6 86.4671 104.292H87.7362C90.0497 104.292 91.932 102.41 91.932 100.097C91.932 97.7831 90.0499 95.9008 87.7364 95.9008ZM64.2168 102.356C62.9711 102.356 61.9575 101.342 61.9575 100.097C61.9575 98.8509 62.9711 97.8373 64.2168 97.8373H64.5281V99.7006C64.5281 100.606 64.6334 101.495 64.837 102.356H64.2168ZM76.7609 88.2802C76.3747 87.7471 75.5786 87.7465 75.1922 88.2805C73.4538 90.6831 70.6432 92.1174 67.6736 92.1174H62.9013C62.9428 91.8992 62.4329 86.7377 66.7655 82.4373C69.2571 79.9641 72.5588 78.6132 76.076 78.6423C83.231 78.6954 89.052 84.64 89.052 91.8936V92.1174H84.2797C81.3115 92.1174 78.5008 90.6829 76.7609 88.2802ZM87.7364 102.356H87.1148C87.3208 101.486 87.425 100.595 87.4251 99.7006V97.8373H87.7364C88.9821 97.8373 89.9956 98.8509 89.9956 100.097C89.9956 101.342 88.9821 102.356 87.7364 102.356Z" fill="#727E99"/>
<path d="M72.5368 104.408C72.4199 104.637 72.3986 104.902 72.4777 105.147C72.5567 105.391 72.7296 105.594 72.9583 105.711C73.1869 105.828 73.4527 105.849 73.697 105.77C73.9413 105.691 74.1443 105.518 74.2612 105.289C74.5416 104.741 75.1807 104.187 75.9764 104.187C76.7728 104.187 77.4124 104.741 77.6928 105.289C77.8097 105.518 78.0126 105.691 78.2569 105.77C78.5013 105.849 78.767 105.828 78.9957 105.711C79.2243 105.594 79.3972 105.391 79.4763 105.147C79.5553 104.902 79.5341 104.637 79.4172 104.408C78.7473 103.097 77.3968 102.25 75.9764 102.25C74.5568 102.251 73.2067 103.097 72.5368 104.408ZM73.5233 98.3253C73.6789 98.121 73.747 97.8633 73.7125 97.6088C73.6781 97.3543 73.5439 97.1239 73.3396 96.9683C73.1353 96.8127 72.8776 96.7447 72.6231 96.7792C72.3686 96.8136 72.1382 96.9477 71.9827 97.152C71.9255 97.2272 71.6711 97.3918 71.2882 97.3918C70.9058 97.3918 70.6518 97.2272 70.5944 97.152C70.4374 96.9519 70.2079 96.8217 69.9556 96.7894C69.7032 96.7571 69.4483 96.8254 69.246 96.9795C69.0436 97.1336 68.91 97.3612 68.874 97.613C68.838 97.8648 68.9026 98.1207 69.0537 98.3253C69.5248 98.944 70.381 99.3284 71.2881 99.3284C72.1957 99.3283 73.0521 98.944 73.5233 98.3253ZM80.6649 99.3283C81.5724 99.3283 82.4288 98.944 82.8999 98.3252C83.0555 98.1209 83.1236 97.8631 83.0891 97.6086C83.0547 97.3542 82.9205 97.1238 82.7162 96.9682C82.5119 96.8126 82.2542 96.7446 81.9997 96.779C81.7452 96.8135 81.5148 96.9476 81.3592 97.1519C81.3021 97.2271 81.0477 97.3917 80.6648 97.3917C80.2824 97.3917 80.0282 97.2271 79.971 97.1519C79.814 96.9518 79.5845 96.8215 79.3322 96.7892C79.0798 96.7569 78.8249 96.8252 78.6225 96.9794C78.4202 97.1335 78.2866 97.361 78.2506 97.6129C78.2146 97.8647 78.2792 98.1206 78.4303 98.3252C78.9017 98.944 79.7579 99.3283 80.6649 99.3283Z" fill="#727E99"/>
</g>
</svg>
