<svg width="160" height="160" viewBox="0 0 160 160" fill="none" xmlns="http://www.w3.org/2000/svg">
<mask id="mask0_2003_443" style="mask-type:alpha" maskUnits="userSpaceOnUse" x="0" y="0" width="160" height="160">
<rect width="160" height="160" fill="#D9D9D9"/>
</mask>
<g mask="url(#mask0_2003_443)">
<path opacity="0.75" d="M31.4316 123.669C31.6499 125.837 31.8766 126.226 32.4194 128.414C32.9948 130.478 32.662 132.236 31.921 133.293C31.1801 134.35 30.0764 134.784 28.9146 134.938C27.7528 135.093 27.3703 134.794 26.3841 134.533C25.398 134.273 23.4966 134.232 22.7117 133.958C21.9721 133.763 20.687 133.885 19.5776 133.592C18.4682 133.298 16.7879 132.92 16.7113 131.713C16.6347 130.506 16.6871 130.058 17.5315 129.358C18.3305 128.58 19.0714 127.523 19.1309 126.55C19.1903 125.577 20.2187 122.683 20.1677 121.879C20.1166 121.074 20.2879 118.679 20.6265 117.648C20.965 116.617 20.8303 115.13 21.1235 114.021C21.4167 112.911 22.2977 108.331 22.6688 107.176C23.04 106.021 23.8672 103.141 24.0952 102.278C24.4466 101.448 25.0273 98.5021 25.3134 97.9184C25.5996 97.3346 26.1662 95.4403 26.4396 94.6553C26.6804 93.9937 27.026 92.4365 27.5983 91.269C28.1707 90.1015 28.9979 87.2211 29.5178 86.5013C30.0377 85.7815 30.4613 84.179 30.8835 83.8291C31.3057 83.4791 31.9361 82.5907 32.4688 82.0721C33.0468 81.6314 34.6436 81.3281 36.0717 80.9143C37.5778 80.4551 39.9141 80.3473 40.9852 80.037C42.1016 79.8045 43.211 80.0977 43.34 80.8571C43.469 81.6166 42.6048 82.641 42.2733 83.1468C41.9418 83.6526 40.1214 86.7981 39.6794 87.4726C39.2374 88.147 36.5246 94.4195 35.8928 96.5603C35.261 98.7012 35.4609 99.9409 34.8247 100.102C34.3119 100.297 34.2595 100.744 34.3431 101.426C34.4721 102.185 34.2313 102.847 33.9579 103.632C33.7624 104.371 32.5825 109.335 32.4905 110.431C32.4764 111.483 32.0062 114.26 31.8362 115.402C31.6663 116.544 32.1466 116.473 31.672 117.27C31.1974 118.068 31.8648 119.036 31.4682 119.788C31.396 120.56 31.2771 122.507 31.4316 123.669Z" fill="#FFCA42"/>
<path opacity="0.75" d="M74.5076 68.4555C74.0471 68.2019 72.84 68.2785 71.4119 68.6923C70.763 68.6527 70.114 68.6131 69.7117 68.6386C68.7383 68.5792 65.2785 69.4451 64.4865 69.6973C63.8503 69.8589 63.5386 70.0403 63.5188 70.3647C62.9861 70.8833 62.4988 71.4798 61.7777 72.2124C60.6344 73.2949 59.6711 75.9416 58.6753 78.7116C57.6015 81.5269 53.6581 97.6946 53.195 99.9459C52.7318 102.197 51.7232 104.766 51.3349 103.74C50.9013 102.637 49.6612 97.0998 49.0673 94.1075C48.8803 93.0689 47.3214 88.2391 46.9331 87.2133C46.6228 86.1422 44.2068 81.8111 43.4289 81.0121C42.651 80.2131 42.08 80.1281 41.0741 80.1919C40.0682 80.2557 38.8284 80.4556 38.069 80.5846C37.3096 80.7136 34.629 81.126 33.6358 81.391C32.7206 81.6107 32.2517 83.1352 32.3226 83.6155C32.3226 83.6155 33.262 85.0507 33.9422 86.2196C34.577 87.3105 36.4744 91.1089 36.8825 91.8102C37.2906 92.5115 38.5148 94.6154 38.7147 95.8551C38.9146 97.0948 40.1291 102.229 40.2312 103.839C40.3787 105.526 41.3524 111.322 41.3313 112.899C41.3555 114.554 42.1465 121.291 42.3464 122.531C42.5462 123.771 43.2079 124.011 44.1289 124.519C45.0045 124.948 46.5559 124.567 47.8537 124.646C49.1516 124.725 52.0915 124.579 53.1881 124.671C53.1881 124.671 54.4859 124.75 55.5641 123.914C56.6422 123.078 56.4864 123.169 58.416 121.107C60.3455 119.046 59.6399 117.475 60.6868 115.509C61.7337 113.544 62.6415 108.113 63.1046 105.862C63.5678 103.611 66.1966 90.9199 67.0493 88.4418C67.2902 87.7801 67.6613 86.6254 68.0976 85.2241C68.3754 86.4185 68.6857 87.4896 68.8926 88.2036C69.604 90.5017 70.3793 93.8057 70.9942 95.2211C71.7325 96.669 73.2104 98.3124 74.2617 98.3265C75.3909 98.2953 77.8377 98.0188 79.5053 98.1958C81.1729 98.3728 83.9442 98.1162 84.9572 97.5267C85.9702 96.9373 85.0691 96.1056 84.5703 95.2485C84.0715 94.3913 83.5868 92.4829 83.2963 91.0874C82.9278 89.7371 81.814 87.4646 81.5887 85.8225C81.2854 84.2258 79.5126 79.2075 79.3964 78.6493C79.2801 78.0911 76.8017 71.5016 76.1413 70.0083C76.0379 69.6512 75.7786 69.3849 75.5646 69.1965C75.7403 68.7813 75.046 68.6638 74.5076 68.4555Z" fill="#FFCA42"/>
<path opacity="0.75" d="M74.2622 98.3291C75.7031 98.1165 79.3756 98.6915 81.1735 98.3754C82.9261 97.9814 85.7031 98.4516 87.148 94.4816C88.5929 90.5115 88.7951 83.5095 90.468 78.6766C92.1863 73.9216 94.3664 68.1678 95.5903 64.5349C95.5903 64.5349 96.8388 68.2937 98.134 70.8779C99.4291 73.4621 102.27 74.9383 104.73 74.863C107.189 74.7877 109.883 74.5765 111.869 74.0464C113.777 73.5618 115.817 71.3315 116.786 69.4117C117.677 67.5371 118.278 64.2671 118.993 62.8077C119.663 61.2704 121.542 52.6673 122.671 52.636C123.8 52.6048 127.654 53.4915 129.633 53.4871C131.612 53.4827 136.253 53.3903 137.552 52.2171C138.851 51.0439 139.95 48.6309 140.464 47.1843C140.979 45.7377 141.105 43.2653 141.229 42.0454C141.432 40.7802 141.315 40.222 142.701 37.2253C144.086 34.2286 143.956 34.7217 144.601 32.782C145.245 30.8423 145.089 30.933 144.765 30.9132C144.486 30.9713 144.44 30.8934 144.272 30.7829C144.103 30.6724 144.012 30.5165 144.123 30.3479C144.188 30.1014 144.286 29.7316 144.507 29.3944C144.728 29.0571 145.17 28.3827 144.936 28.5187C144.702 28.6548 144.67 28.778 144.501 28.6675C144.332 28.557 144.242 28.4012 144.43 28.1872C144.619 27.9733 144.84 27.6361 144.548 27.493C144.256 27.3499 143.763 27.2196 143.763 27.2196C143.763 27.2196 143.75 27.0184 143.562 27.2323C143.419 27.5242 143.243 27.9394 143.087 28.03C142.931 28.1207 142.705 27.7311 142.737 27.6079C142.77 27.4846 143.01 26.8229 143.309 26.4403C143.563 25.9799 143.44 25.9473 143.661 25.6101C143.882 25.2728 143.856 24.8705 143.59 25.1298C143.323 25.3891 142.992 25.8949 142.771 26.2321C142.628 26.524 142.407 26.8612 142.374 26.9845C142.264 27.1531 142.231 27.2764 142.108 27.2438C141.985 27.2112 141.68 26.8669 141.68 26.8669C141.68 26.8669 141.622 26.5878 141.687 26.3413C141.752 26.0947 141.908 26.0041 142.019 25.8355C142.084 25.5889 141.837 25.5238 141.636 25.5365C141.513 25.5039 140.877 25.6655 140.844 25.7888C140.734 25.9574 140.369 26.5865 140.214 26.6772C140.058 26.7679 135.377 34.4984 134.805 35.6659C134.265 36.7101 132.262 40.7964 131.82 41.4708C131.378 42.1453 130.78 42.9104 130.397 42.6115C130.015 42.3125 125.369 41.6781 123.838 41.7349C122.351 41.8696 117.945 41.826 116.484 42.363C114.991 43.0234 112.53 44.3511 111.808 46.3361C111.085 48.3211 107.133 60.5302 107.133 60.5302C107.133 60.5302 104.187 54.2128 103.824 53.5894C103.461 52.966 103.034 52.5892 102.093 52.4065C101.152 52.2237 93.2929 52.5204 92.4555 52.6947C91.6182 52.869 88.7874 54.099 88.378 54.6502C87.9686 55.2014 84.2186 60.4085 83.1321 63.0226C82.0455 65.6367 79.8909 71.793 79.4419 72.9931C78.9149 74.2385 76.1766 80.1086 75.5263 81.3214C74.8307 82.4564 73.5931 92.8772 72.6893 94.5505C71.8308 96.3018 71.5376 97.4112 72.1667 97.7753C72.7505 98.0614 74.2622 98.3291 74.2622 98.3291Z" fill="#FFCA42"/>
<ellipse cx="79.9824" cy="79.7255" rx="56" ry="55.5" fill="#DFEBFB"/>
<path d="M92.9561 102.694C80.5498 109.856 64.6862 105.606 57.5234 93.1995C50.3607 80.7933 54.6112 64.9294 67.0176 57.7667C79.4239 50.6041 95.2874 54.8548 102.45 67.2609C109.613 79.667 105.362 95.5308 92.9561 102.694Z" fill="#9DD9F3"/>
<path d="M81.8183 72.4681C81.6316 72.5119 81.2698 72.6037 81.1134 72.7292C80.9181 72.8859 81.2233 73.0895 81.1118 73.1788C80.9194 73.3327 80.7798 73.612 80.3678 73.5856C79.5069 73.5307 78.1839 72.4172 77.3973 71.9962C78.6654 70.6912 76.6591 70.4956 75.8771 70.561C74.8645 70.6457 73.1122 70.5544 72.1975 71.0694C71.5627 71.4268 70.7094 72.9103 70.198 73.4996C69.4861 74.3197 68.7698 75.0317 68.3059 76.0136C66.6042 79.6157 69.2234 83.751 73.3398 83.2673C74.4826 83.133 75.6815 82.4145 76.6944 83.3626C77.4408 84.0614 77.0458 84.719 77.2437 85.5338C77.415 86.239 78.1958 86.6728 78.466 87.3203C78.9841 88.5617 78.656 89.338 78.2861 90.483C77.8008 91.9854 79.0559 93.7692 79.5445 95.219C79.7904 95.9491 80.5073 97.9935 81.2111 98.3134C82.3177 98.8165 84.0521 97.3077 84.7128 96.4963C85.2294 95.8619 85.0608 95.2175 85.4078 94.6235C85.7833 93.9806 86.2586 93.7876 86.5217 92.9589C86.8053 92.0656 87.1 91.8433 87.6989 91.1914C88.6632 90.1422 88.5135 89.5287 88.128 88.2846C87.327 85.7 90.2365 84.4918 91.5471 82.5945C92.9156 80.6133 90.2703 81.2737 89.2335 80.5961C88.1675 79.8994 87.7017 78.5752 87.1881 77.4775C86.6742 76.3797 86.2491 74.73 85.3983 73.8282C84.7428 73.1339 82.749 72.8118 81.8183 72.4681ZM95.2076 89.8063L93.9671 93.9873C93.678 94.9616 92.6559 98.1488 91.222 96.1073C90.6769 95.3315 91.1202 94.3149 91.4243 93.601C91.8079 92.7003 91.2895 92.2467 91.557 91.394C91.8637 90.4167 93.1255 90.3832 93.7225 89.6958C94.1389 89.2165 94.3957 88.4545 94.7 87.8934C94.8694 88.5312 95.0386 89.1687 95.2076 89.8063Z" fill="#B4DC89"/>
<path d="M102.451 67.2609C97.9831 59.5229 90.1304 54.9581 81.843 54.3561L78.451 58.6111L71.1809 61.1598L69.2306 65.8877L72.2391 70.1021L72.5589 69.2111C72.8194 68.4851 73.2979 67.8573 73.9287 67.4134C74.5596 66.9696 75.3121 66.7314 76.0835 66.7314H81.0419L86.7414 68.7342L88.7045 70.6082V71.7985L91.4337 77.0262L92.2283 76.7331C93.9445 76.1003 95.5029 75.1028 96.7963 73.8094L96.1374 72.821C95.9279 72.5067 96.1532 72.0858 96.5309 72.0858H98.1214C98.5871 72.0858 99.0295 72.2898 99.3319 72.6439L100.631 74.1651C100.755 74.31 100.852 74.476 100.917 74.6551L102.351 78.5978L103.033 77.9153C103.463 77.4849 103.681 76.8986 103.691 76.2901C103.696 76.0478 103.75 75.809 103.851 75.5888C103.952 75.3685 104.097 75.1716 104.278 75.0103L104.8 74.5441C104.93 74.4284 105.077 74.3325 105.235 74.2597C104.666 71.8619 103.746 69.5048 102.451 67.2609ZM63.6462 68.2742L64.8868 66.9447C65.3298 66.47 65.6271 65.8781 65.7433 65.2393C65.8596 64.6005 65.7899 63.9417 65.5425 63.3414C65.0084 62.0452 63.8374 61.2049 62.5412 61.031C57.9597 65.1863 55.1111 70.7728 54.2916 76.6903C55.2602 77.537 56.2739 78.4434 56.2681 78.5232C56.2569 78.6761 59.8971 78.0657 59.8971 78.0657L58.0232 75.3167L60.7144 73.3924L63.6462 68.2742ZM66.1688 94.1194C67.3382 93.7395 67.9782 92.4835 67.5983 91.3142L67.2643 90.286C67.1183 89.8368 67.119 89.3529 67.2663 88.9041C67.6836 87.632 66.8918 86.282 65.5778 86.0252L62.9566 85.5129L58.1685 81.8725L54.21 83.1585C54.5987 86.5962 55.6837 90.0119 57.5239 93.1994C59.2259 96.1474 61.4199 98.6337 63.9412 100.617L65.1207 94.4599L66.1688 94.1194Z" fill="#B4DC89"/>
<path d="M92.4274 101.782L92.3868 101.805C91.8831 102.097 91.7117 102.743 92.0038 103.246C92.0733 103.366 92.1657 103.471 92.2758 103.555C92.3858 103.639 92.5114 103.701 92.6452 103.737C92.7791 103.772 92.9186 103.781 93.0559 103.762C93.1932 103.744 93.3255 103.699 93.4453 103.629L93.4859 103.606C93.9896 103.314 94.161 102.668 93.8688 102.164C93.5767 101.661 92.9314 101.489 92.4274 101.782Z" fill="#727E99"/>
<path d="M103.364 66.7337C99.7587 60.4895 93.9378 56.023 86.9734 54.1569C80.0091 52.2907 72.7348 53.2485 66.4905 56.8535C60.2463 60.4585 55.7798 66.2795 53.9138 73.2438C52.0477 80.2082 53.0054 87.4827 56.6104 93.7268C59.8441 99.3279 64.9838 103.585 71.0826 105.713C73.9509 106.714 76.967 107.225 80.0049 107.225C83.2812 107.225 86.5517 106.629 89.6431 105.441C90.1868 105.232 90.458 104.622 90.249 104.078C90.04 103.535 89.4297 103.263 88.8862 103.473C80.6576 106.635 71.7496 105.198 65.0942 100.203L66.0391 95.2704L66.4944 95.1225C68.2149 94.5636 69.1599 92.709 68.6011 90.9884L68.267 89.9602C68.1897 89.7239 68.1901 89.4691 68.2681 89.233C68.5612 88.3395 68.4564 87.3619 67.9807 86.5506C67.5049 85.7394 66.7028 85.1707 65.7799 84.9902L63.3995 84.5251L58.8065 81.0331C58.671 80.93 58.5125 80.8613 58.3446 80.8328C58.1766 80.8043 58.0043 80.8169 57.8423 80.8695L55.1533 81.743C55.0965 80.784 55.0952 79.8225 55.1496 78.8634C55.2239 78.9316 55.2965 79.0017 55.3673 79.0735C55.4202 79.1617 55.4856 79.2417 55.5615 79.3111C55.7811 79.5111 55.98 79.6018 56.3976 79.6018C56.7814 79.6017 57.3496 79.5252 58.2877 79.3866C58.883 79.2979 59.4776 79.2042 60.0713 79.1054C60.2458 79.0761 60.4101 79.0034 60.5491 78.894C60.6881 78.7845 60.7974 78.6418 60.8668 78.4791C60.9362 78.3163 60.9636 78.1387 60.9463 77.9627C60.9291 77.7866 60.8679 77.6176 60.7682 77.4714L59.4751 75.5747L61.3273 74.2502C61.4507 74.162 61.5536 74.0481 61.6291 73.9165L64.5002 68.9041L65.6575 67.664C66.8401 66.3965 67.1776 64.5421 66.5172 62.9394C66.1276 61.9941 65.4471 61.2071 64.596 60.6767C65.5303 59.9417 66.5158 59.2745 67.5452 58.68C71.3777 56.4672 75.5601 55.3949 79.6986 55.3539L77.8154 57.7163L70.8318 60.1646C70.6916 60.2138 70.5633 60.292 70.4554 60.3942C70.3475 60.4964 70.2625 60.6203 70.2058 60.7577L68.2555 65.4856C68.1874 65.6508 68.1623 65.8306 68.1827 66.0081C68.2031 66.1856 68.2683 66.3551 68.3721 66.5005L71.2206 70.4906C70.8126 70.8628 70.4155 71.4049 69.9412 72.078C69.7332 72.3732 69.5369 72.6519 69.4011 72.8083C69.2842 72.9425 69.1665 73.076 69.0479 73.2088C68.4352 73.8981 67.8018 74.6109 67.3518 75.5631C66.3623 77.6576 66.5621 80.092 67.8733 81.9164C69.1411 83.6803 71.2313 84.577 73.4622 84.3146C73.8256 84.272 74.1645 84.1881 74.4924 84.1069C75.3966 83.8832 75.683 83.8609 75.973 84.1324C76.1142 84.2645 76.1271 84.2895 76.1243 84.7375C76.1223 85.0227 76.1201 85.3775 76.2184 85.7826C76.3758 86.4307 76.7829 86.8786 77.1098 87.2385C77.2723 87.4173 77.4404 87.6023 77.4922 87.7264C77.8212 88.5147 77.6779 88.9512 77.3641 89.9078C77.3365 89.9914 77.3092 90.075 77.2822 90.1588C76.8054 91.6348 77.4701 93.0989 78.0565 94.3906C78.2469 94.81 78.4268 95.206 78.5446 95.5559C79.4928 98.3697 80.2037 99.0141 80.7742 99.2736C81.073 99.4094 81.3822 99.469 81.6946 99.4689C83.2149 99.4688 84.8014 98.0572 85.5301 97.1623C85.9879 96.6004 86.1006 96.0377 86.1829 95.6267C86.2239 95.4223 86.2562 95.2609 86.3178 95.1555C86.4121 94.9941 86.5231 94.869 86.6637 94.7106C86.9465 94.3922 87.2983 93.996 87.5263 93.2779C87.6995 92.7324 87.8253 92.5987 88.242 92.1549C88.3202 92.0721 88.3978 91.9888 88.4749 91.905C89.8796 90.3765 89.5179 89.2088 89.1347 87.9726C88.8123 86.9323 89.3762 86.267 90.7397 84.9973C91.3308 84.4469 91.9419 83.8778 92.4143 83.194C92.621 82.8947 93.2499 81.9842 92.8607 81.0817C92.4792 80.1968 91.5097 80.0481 90.7307 79.9287C90.423 79.8815 89.9581 79.8102 89.8101 79.7135C89.1576 79.2868 88.7584 78.3965 88.3723 77.5353C88.2954 77.3639 88.2196 77.1948 88.1427 77.0306C88.0056 76.7376 87.8686 76.3831 87.7236 76.0078C87.3399 75.0147 86.905 73.8891 86.1647 73.1044C85.4993 72.3994 84.245 72.0597 83.1383 71.76C82.7661 71.6593 82.4148 71.5642 82.1831 71.4786C81.9892 71.4069 81.7784 71.3939 81.5771 71.4412C81.0385 71.5674 80.7024 71.7065 80.4529 71.9065C80.387 71.9593 80.1918 72.1328 80.0774 72.4117C79.6913 72.2264 79.1604 71.8725 78.8337 71.6547L78.8133 71.6411C78.9234 71.2005 78.8237 70.8469 78.7193 70.626C78.1301 69.3798 76.1745 69.4774 75.7887 69.5102C75.5695 69.5285 75.2923 69.5383 74.9989 69.5487C74.5383 69.565 74.0291 69.5834 73.5252 69.6399L73.5512 69.5675C73.9336 68.502 74.9512 67.786 76.0833 67.786H76.6827C77.2651 67.786 77.7373 67.3137 77.7373 66.7314C77.7373 66.149 77.265 65.6768 76.6827 65.6768H76.0833C74.4025 65.6768 72.8634 66.5614 72.0008 67.9537L70.4277 65.7501L71.9754 61.9987L78.7996 59.6062C78.9868 59.5405 79.1517 59.4235 79.2754 59.2684L82.3088 55.4632C90.0601 56.2005 97.3564 60.5464 101.537 67.7881C102.63 69.681 103.466 71.711 104.022 73.8246L103.575 74.2233C103.286 74.4819 103.054 74.7973 102.892 75.1499C102.731 75.5025 102.644 75.8847 102.637 76.2725C102.637 76.2809 102.637 76.2894 102.636 76.2979L101.908 74.2948C101.8 73.9969 101.639 73.7209 101.433 73.4802L100.134 71.959C99.8854 71.6679 99.5768 71.4343 99.2294 71.2741C98.8819 71.1139 98.5038 71.0311 98.1212 71.0313H96.5309C96.2543 71.031 95.9829 71.106 95.7457 71.2481C95.5085 71.3902 95.3143 71.5941 95.1841 71.8381C95.0534 72.0818 94.9914 72.3564 95.0047 72.6326C95.0181 72.9088 95.1064 73.1762 95.26 73.4061L95.4209 73.6478C94.3933 74.5315 93.2046 75.2387 91.939 75.7156L89.7591 71.5398V70.6082C89.7591 70.4656 89.7302 70.3245 89.6741 70.1933C89.618 70.0622 89.5358 69.9439 89.4327 69.8454L87.4696 67.9714C87.3613 67.868 87.2322 67.7889 87.091 67.7392L85.3237 67.1182C84.7739 66.9248 84.1721 67.2141 83.9791 67.7635C83.786 68.3131 84.0749 68.915 84.6244 69.1081L86.1773 69.6539L87.6498 71.0595V71.7986C87.6498 71.9685 87.691 72.136 87.7697 72.2867L90.4988 77.5144C90.6174 77.7418 90.8148 77.9181 91.0541 78.0104C91.2933 78.1027 91.558 78.1046 91.7985 78.0158L92.5932 77.7229C94.4394 77.0419 96.1507 75.9467 97.542 74.5555C97.7144 74.3832 97.8218 74.1564 97.8458 73.9137C97.8698 73.6711 97.809 73.4277 97.6737 73.2249L97.6176 73.1406H98.1212C98.199 73.1405 98.2758 73.1574 98.3463 73.1899C98.4169 73.2224 98.4796 73.2699 98.53 73.3291L99.8293 74.8502C99.8712 74.8993 99.9035 74.9547 99.9257 75.0156L101.36 78.9583C101.42 79.1249 101.522 79.2735 101.655 79.3905C101.788 79.5074 101.949 79.5888 102.122 79.6272C102.295 79.6656 102.475 79.6597 102.646 79.6101C102.816 79.5605 102.971 79.4688 103.096 79.3435L103.779 78.661C104.211 78.2287 104.508 77.6817 104.651 77.0754C105.706 85.5344 102.389 94.2849 95.3783 99.7876C94.9201 100.147 94.8401 100.81 95.1999 101.268C95.5594 101.727 96.2222 101.806 96.6805 101.447C101.742 97.4741 105.219 91.792 106.472 85.4471C107.736 79.0411 106.632 72.395 103.364 66.7337ZM57.9692 83.0461L62.318 86.3527C62.4465 86.4504 62.5957 86.5173 62.7541 86.5482L65.3752 87.0604C65.7097 87.1257 65.9888 87.3236 66.1612 87.6177C66.3337 87.9116 66.37 88.2517 66.2639 88.5756C66.0455 89.2367 66.0445 89.9502 66.261 90.6119L66.5951 91.64C66.7948 92.2544 66.4571 92.9169 65.8427 93.1165L64.7947 93.4571C64.6152 93.5154 64.4547 93.6208 64.3298 93.7623C64.205 93.9038 64.1204 94.0763 64.0849 94.2616L63.2414 98.6648C61.3869 96.9675 59.7587 94.9615 58.4371 92.6723C56.8246 89.8798 55.8172 86.9013 55.3731 83.8896L57.9692 83.0461ZM64.5671 63.743C64.9141 64.5849 64.7367 65.5592 64.1155 66.2251L62.8749 67.5544C62.8195 67.6138 62.7711 67.6793 62.7307 67.7498L59.9134 72.6684L57.4095 74.4588C57.1853 74.6191 57.0327 74.8608 56.9845 75.1322C56.9363 75.4036 56.9963 75.6831 57.1515 75.9108L58.088 77.2844C57.5482 77.3648 57.0638 77.431 56.7417 77.4661C56.6776 77.405 56.6131 77.3444 56.548 77.2843C56.2973 77.0514 55.949 76.7404 55.4297 76.286C56.2862 70.9848 58.8406 65.9907 62.8581 62.1785C63.6275 62.4206 64.2587 62.9946 64.5671 63.743ZM75.0736 71.6566C75.3931 71.6454 75.6949 71.6346 75.9645 71.612C76.1068 71.6001 76.2648 71.6023 76.4138 71.6139C76.3202 71.8541 76.3179 72.1203 76.4073 72.3621C76.4967 72.6039 76.6716 72.8045 76.899 72.9261C77.0968 73.0319 77.3722 73.2156 77.6637 73.4099C78.4879 73.9594 79.4224 74.5822 80.3 74.6381C81.0982 74.6899 81.5423 74.235 81.7326 74.0412C81.7477 74.0258 81.7621 74.0104 81.7773 73.9963C81.8934 73.901 81.9893 73.7836 82.0595 73.6507C82.2281 73.6989 82.4053 73.7469 82.5869 73.7962C83.2114 73.9652 84.3737 74.28 84.6306 74.5521C85.0868 75.0356 85.4423 75.956 85.7561 76.768C85.9146 77.1784 86.0643 77.5657 86.2323 77.9248C86.3045 78.0789 86.3755 78.2376 86.4476 78.3984C86.9342 79.4839 87.4858 80.7142 88.656 81.4791C89.1866 81.826 89.837 81.9256 90.411 82.0137C90.4804 82.0244 90.5599 82.0366 90.6407 82.0499C90.3 82.5251 89.815 82.9767 89.3025 83.454C87.9969 84.6698 86.3721 86.1831 87.1204 88.5971C87.4736 89.737 87.4901 89.8602 86.9221 90.4781C86.8447 90.5623 86.7726 90.6391 86.705 90.711C86.2185 91.2289 85.8343 91.6379 85.5162 92.6398C85.4238 92.9308 85.3041 93.0656 85.0868 93.3103C84.9129 93.506 84.6964 93.7499 84.4967 94.0916C84.2575 94.501 84.1784 94.8953 84.115 95.212C84.0524 95.5236 84.017 95.6801 83.8946 95.8303C83.6161 96.1723 83.0966 96.6688 82.5632 97.0077C82.0675 97.3224 81.7781 97.3654 81.6795 97.3595C81.567 97.2389 81.1593 96.7107 80.5434 94.8825C80.3915 94.4315 80.1808 93.9675 79.977 93.5187C79.5278 92.5294 79.0635 91.5064 79.2894 90.8072C79.3161 90.7247 79.3424 90.6442 79.3684 90.5654C79.7293 89.4653 80.07 88.4266 79.4388 86.9142C79.2467 86.4536 78.9407 86.1171 78.671 85.8201C78.4965 85.628 78.2987 85.4103 78.2682 85.285C78.2311 85.1322 78.2323 84.9557 78.2336 84.7515C78.2372 84.2004 78.2427 83.3677 77.4149 82.5925C76.2478 81.5001 74.8868 81.8366 73.9861 82.0594C73.7095 82.1277 73.4481 82.1925 73.2165 82.2197C71.7349 82.3933 70.4121 81.8343 69.5863 80.6851C68.7224 79.4831 68.597 77.8656 69.2592 76.4639C69.5797 75.7856 70.0639 75.2407 70.6246 74.61C70.747 74.4721 70.8706 74.3331 70.9942 74.1907C71.1999 73.9536 71.4262 73.6326 71.6655 73.2927C71.9514 72.8868 72.4834 72.1318 72.7144 71.9881C73.1847 71.7236 74.2765 71.6849 75.0736 71.6566Z" fill="#727E99"/>
<path d="M92.433 97.8089C93.5088 97.6331 94.3175 96.5141 94.9784 94.2871L96.2189 90.1061C96.2739 89.9203 96.2769 89.7228 96.2271 89.5355L95.7197 87.623C95.6655 87.4189 95.5513 87.2357 95.3919 87.0973C95.2325 86.9588 95.0352 86.8714 94.8255 86.8463C94.6158 86.8214 94.4035 86.86 94.216 86.9571C94.0284 87.0541 93.8743 87.2051 93.7734 87.3906C93.6578 87.6036 93.5537 87.8294 93.4531 88.0476C93.2838 88.4147 93.1087 88.7944 92.9266 89.0039C92.8243 89.1217 92.5615 89.2485 92.3075 89.3711C91.7003 89.6641 90.8687 90.0654 90.551 91.0781C90.3538 91.7063 90.4274 92.2032 90.4812 92.566C90.5277 92.8806 90.5385 92.9897 90.4542 93.1875L90.4437 93.2121C90.108 93.9999 89.4834 95.4664 90.3592 96.7131C90.9841 97.6029 91.6411 97.8316 92.1517 97.8316C92.2515 97.8319 92.3458 97.8232 92.433 97.8089ZM92.0851 95.501C91.8835 95.2139 92.1847 94.5069 92.3841 94.0389L92.3947 94.0142C92.7162 93.2597 92.6302 92.6802 92.5677 92.2571C92.5275 91.9862 92.5132 91.8697 92.5635 91.7097C92.6048 91.5782 92.8519 91.4506 93.2242 91.2709C93.3893 91.1911 93.571 91.1035 93.7544 90.9974L92.9564 93.687C92.6196 94.8225 92.3215 95.3526 92.1495 95.5876C92.1296 95.5625 92.108 95.5338 92.0851 95.501ZM81.3912 65.7363C80.8421 65.544 80.2398 65.8328 80.047 66.3824C79.8542 66.9321 80.1435 67.5338 80.6931 67.7266L80.7642 67.7515C80.8764 67.791 80.9944 67.8112 81.1133 67.8112C81.5487 67.8112 81.9562 67.5394 82.1085 67.1054C82.3013 66.5557 82.012 65.954 81.4624 65.7612L81.3912 65.7363Z" fill="#727E99"/>
</g>
</svg>
