<svg width="492" height="355" fill="none" xmlns="http://www.w3.org/2000/svg"><path fill-rule="evenodd" clip-rule="evenodd" d="M56.36 23.913c31.106 0 56.36 24.678 56.36 55.075 0 30.397-25.254 55.075-56.36 55.075C25.254 134.063 0 109.385 0 78.988 0 48.59 25.254 23.913 56.36 23.913Z" fill="#F6FAFF"/><path fill-rule="evenodd" clip-rule="evenodd" d="M227.783 327.931c-27.757-9.585-58.307-8.768-85.454 2.288-12.335 5.037-25.918 7.825-40.182 7.825C45.77 338.044 0 294.487 0 240.835c0-38.946 29.88-72.574 67.823-88.082 26.39-10.766 47.663-30.44 59.726-55.235C155.675 39.816 217.025 0 288.392 0 386.416 0 466 75.737 466 169.022c0 93.286-79.584 169.023-177.608 169.023-21.28 0-41.692-3.569-60.609-10.113v-.001Z" fill="#F6FAFF"/><g clip-path="url(#a)"><path d="M392.553 282.236a1.83 1.83 0 0 1-1.835-1.83v-20.181c0-1.013.82-1.83 1.835-1.83a1.83 1.83 0 0 1 1.836 1.83v20.181a1.83 1.83 0 0 1-1.836 1.83ZM410.195 251.806a2.45 2.45 0 0 1-2.361-1.806 2.43 2.43 0 0 1 1.725-2.989c.085-.024 8.564-2.404 13.959-9.224 4.319-5.478 7.01-16.606 8.099-21.84h-15.293a2.451 2.451 0 0 1-2.447-2.44 2.452 2.452 0 0 1 2.447-2.441h18.254a2.46 2.46 0 0 1 1.859.854c.465.55.661 1.269.551 1.977-.123.757-3.096 18.644-9.616 26.904-6.423 8.126-16.113 10.81-16.529 10.92a2.281 2.281 0 0 1-.636.085h-.012ZM375.817 251.806c-.208 0-.428-.024-.636-.085-.404-.11-10.105-2.794-16.528-10.92-6.521-8.26-9.494-26.147-9.616-26.904a2.466 2.466 0 0 1 .55-1.977 2.435 2.435 0 0 1 1.86-.854H369.7a2.451 2.451 0 0 1 2.447 2.441 2.45 2.45 0 0 1-2.447 2.44h-15.305c1.077 5.234 3.768 16.362 8.099 21.84 5.395 6.82 13.874 9.2 13.959 9.224a2.438 2.438 0 0 1 1.713 2.989 2.452 2.452 0 0 1-2.361 1.806h.012Z" fill="#FFCA42"/><path d="M421.01 201.147v33.517c0 15.19-12.467 27.623-27.698 27.623h-.636c-.832 0-1.664-.036-2.471-.122-14.07-1.257-25.215-13.141-25.215-27.501v-33.517c0-.305.245-.549.551-.549h54.906c.294 0 .551.244.551.549h.012Z" fill="#FFCA42"/><path d="M401.044 286.384h-16.088c-2.324 0-4.233-1.903-4.233-4.221s1.909-4.222 4.233-4.222h16.088c2.324 0 4.233 1.904 4.233 4.222 0 2.318-1.909 4.221-4.233 4.221Z" fill="#DB7E5D"/><path d="M404.555 294.291h-23.11c-3.34 0-6.08-2.733-6.08-6.064s2.74-6.064 6.08-6.064h23.11c3.34 0 6.08 2.733 6.08 6.064s-2.74 6.064-6.08 6.064Z" fill="#B5684D"/><path d="M419.872 207.589h-53.744c-2.092 0-3.805-1.708-3.805-3.794 0-2.087 1.713-3.795 3.805-3.795h53.732c2.092 0 3.805 1.708 3.805 3.795 0 2.086-1.713 3.794-3.805 3.794h.012Z" fill="#EAAF18"/><path d="M411.602 287.043h-37.216a1.919 1.919 0 0 0-1.921 1.916v7.125c0 1.058.86 1.916 1.921 1.916h37.216a1.919 1.919 0 0 0 1.921-1.916v-7.125c0-1.058-.86-1.916-1.921-1.916Z" fill="#DB7E5D"/><path d="M372.71 247.182a1.81 1.81 0 0 1-1.432-.695c-.208-.269-2.043-2.77-2.19-8.517-.073-3.16 0-24.768 0-25.683 0-1.013.82-1.83 1.836-1.83 1.015 0 1.835.829 1.835 1.83 0 .219-.074 22.474 0 25.573.11 4.503 1.419 6.369 1.431 6.382a1.847 1.847 0 0 1-.379 2.55 1.874 1.874 0 0 1-1.114.366l.013.024ZM378.851 254.234c-.195 0-.391-.036-.587-.097-1.505-.513-3.083-2.257-3.523-2.782a1.817 1.817 0 0 1 .208-2.575 1.829 1.829 0 0 1 2.581.208c.636.744 1.566 1.574 1.921 1.696a1.832 1.832 0 0 1-.6 3.563v-.013Z" fill="#FCDCB5"/></g><g clip-path="url(#b)"><path d="M404.887 120v11.228h15.209V120h-15.209Z" fill="#DB7E5D"/><path d="M404.887 123.083v5.062h15.209v-5.062h-15.209Z" fill="#DDD"/><path d="m404.89 120.003-12.887 6.81 10.729 20.09 12.887-6.81-10.729-20.09Z" fill="#FA8D8D"/><path d="m401.353 121.872-5.809 3.07 10.73 20.089 5.808-3.069-10.729-20.09Z" fill="#EDEDED"/><path d="m409.382 140.086 12.887 6.81 10.729-20.09-12.886-6.81-10.73 20.09Z" fill="#FA8D8D"/><path d="m412.925 141.955 5.808 3.069 10.729-20.09-5.808-3.069-10.729 20.09Z" fill="#EDEDED"/><path d="M412.608 164c8.041 0 14.559-6.484 14.559-14.482 0-7.999-6.518-14.483-14.559-14.483-8.04 0-14.559 6.484-14.559 14.483 0 7.998 6.519 14.482 14.559 14.482Z" fill="#FFCA42"/><path d="M423.74 149.601c0 6.111-4.983 11.073-11.132 11.073a11.128 11.128 0 0 1-10.182-6.592 10.95 10.95 0 0 1-.949-4.481c0-6.117 4.982-11.074 11.131-11.074 2.961 0 5.655 1.15 7.649 3.028a11.004 11.004 0 0 1 3.483 8.046Z" fill="#F5BD2E" opacity=".47"/><path d="M423.04 149.518c0 5.73-4.666 10.377-10.432 10.377a10.42 10.42 0 0 1-9.537-6.178 10.275 10.275 0 0 1-.889-4.199c0-5.736 4.666-10.377 10.432-10.377 2.777 0 5.299 1.077 7.166 2.84a10.3 10.3 0 0 1 3.266 7.537h-.006Z" fill="#FFC300"/><path d="M420.668 146.18c0 5.73-4.666 10.377-10.432 10.377a10.417 10.417 0 0 1-7.165-2.84 10.275 10.275 0 0 1-.889-4.199c0-5.736 4.666-10.377 10.432-10.377 2.777 0 5.299 1.077 7.166 2.84.572 1.287.888 2.702.888 4.199Z" fill="#FCDCB5"/><path d="m405.931 139.185.828 1.503s.022.027.039.038l1.511.824a.089.089 0 0 1 0 .16l-1.511.823s-.028.022-.039.039l-.828 1.503a.09.09 0 0 1-.161 0l-.827-1.503s-.023-.028-.039-.039l-1.511-.823a.089.089 0 0 1 0-.16l1.511-.824s.028-.022.039-.038l.827-1.503a.09.09 0 0 1 .161 0Z" fill="#fff"/></g><g clip-path="url(#c)"><path d="M376.749 144.908v17.532c0 .848-.697 1.706-1.522 1.544-.874-.167-2.173-.713-3.434-1.171-1.039-.378-2.056-.697-2.79-.697-.735 0-1.747.319-2.79.697-1.262.458-2.561 1.004-3.434 1.171-.826.162-1.528-.696-1.528-1.544v-17.532c0-.848.692-1.544 1.528-1.544h12.442c.836 0 1.523.696 1.523 1.544h.005Z" fill="#81ABDD"/><path d="M371.793 143.364v19.449c-1.039-.378-2.056-.697-2.79-.697-.735 0-1.747.319-2.79.697v-19.449h5.58Z" fill="#4B678A"/><path d="M378.895 145.226c5.466-5.542 5.466-14.528 0-20.07a13.862 13.862 0 0 0-19.795 0c-5.467 5.542-5.467 14.528 0 20.07a13.862 13.862 0 0 0 19.795 0Z" fill="#FFCA42"/><path d="M379.704 135.272c0 5.992-4.786 10.85-10.701 10.85-4.371 0-8.13-2.656-9.792-6.456a10.86 10.86 0 0 1-.915-4.394c0-5.991 4.792-10.85 10.701-10.85 2.849 0 5.436 1.123 7.353 2.969a10.878 10.878 0 0 1 3.349 7.881h.005Z" fill="#EAAF18" opacity=".47"/><path d="M379.028 135.197c0 5.613-4.488 10.169-10.031 10.169-4.094 0-7.619-2.488-9.173-6.051a10.18 10.18 0 0 1-.857-4.113c.005-5.625 4.493-10.175 10.03-10.175a9.896 9.896 0 0 1 6.89 2.78 10.187 10.187 0 0 1 3.141 7.384v.006Z" fill="#FFC300"/><path d="M376.744 131.925c0 5.614-4.488 10.17-10.031 10.17a9.904 9.904 0 0 1-6.889-2.78 10.18 10.18 0 0 1-.857-4.113c.005-5.625 4.493-10.175 10.03-10.175a9.896 9.896 0 0 1 6.89 2.78 10.18 10.18 0 0 1 .857 4.113v.005Z" fill="#FCDCB5"/><path d="m362.582 125.07.793 1.474s.021.027.037.037l1.454.805a.087.087 0 0 1 0 .156l-1.454.805s-.026.021-.037.037l-.793 1.474a.086.086 0 0 1-.155 0l-.793-1.474s-.021-.027-.037-.037l-1.454-.805a.087.087 0 0 1 0-.156l1.454-.805s.026-.021.037-.037l.793-1.474a.086.086 0 0 1 .155 0Z" fill="#fff"/></g><g clip-path="url(#d)"><path d="M95.153 221.866v-8.782h-9.306v8.782c0 17.436-11.016 31.626-24.559 31.626h58.424c-13.543 0-24.56-14.19-24.56-31.626Z" fill="#FFCA42"/><mask id="e" style="mask-type:luminance" maskUnits="userSpaceOnUse" x="61" y="213" width="59" height="41"><path d="M95.153 221.866v-8.782h-9.306v8.782c0 17.436-11.016 31.626-24.559 31.626h58.424c-13.543 0-24.56-14.19-24.56-31.626Z" fill="#fff"/></mask><g mask="url(#e)"><path d="M100.67 208.9H80.334v17.57h20.336V208.9Z" fill="#EAAF18"/></g><path d="M119.712 253.488H61.288v5.937h58.424v-5.937Z" fill="#EAAF18"/><path d="M49.343 131.008c-.007.684-.025 1.365-.025 2.052 0 48.632 18.437 88.055 41.182 88.055s41.182-39.423 41.182-88.055c0-.687-.018-1.368-.025-2.052H49.343Z" fill="#FFCA42"/><path d="M139.927 149.77v9.19c0 19.94-16.303 36.16-36.345 36.16H77.418c-20.042 0-36.345-16.22-36.345-36.16v-9.19h98.854Zm7.073-7.037H34v16.227c0 23.856 19.44 43.196 43.418 43.196h26.164c23.979 0 43.418-19.34 43.418-43.196v-16.227Z" fill="#FFCA42"/><mask id="f" style="mask-type:luminance" maskUnits="userSpaceOnUse" x="52" y="137" width="77" height="81"><path d="M52.925 137.89c1.16 43.682 17.891 79.707 37.575 79.707 19.684 0 36.419-36.025 37.578-79.707H52.925Z" fill="#fff"/></mask><g mask="url(#f)"><path d="M65.487 133.06c0-.687.01-1.368.014-2.052H49.343c-.007.684-.025 1.365-.025 2.052 0 48.632 18.437 88.055 41.182 88.055-13.816 0-25.013-39.423-25.013-88.055Z" fill="#FCDCB5"/></g><path d="M135.137 127H45.892v8.013h89.245V127Z" fill="#FFCA42"/><path d="M63.425 127h-12.87v8.013h12.87V127Z" fill="#FCDCB5"/><path d="M100.741 176.601h-4.635v-24.987a.483.483 0 0 0-.486-.483H85.38a.483.483 0 0 0-.486.483c0 2.542-2.08 4.611-4.635 4.611a.483.483 0 0 0-.485.483v5.094c0 .268.216.483.486.483a10.47 10.47 0 0 0 4.634-1.089v15.405H80.26a.483.483 0 0 0-.485.483v5.094c0 .268.216.483.486.483h20.484a.483.483 0 0 0 .486-.483v-5.094a.483.483 0 0 0-.486-.483h-.003Z" fill="#EAAF18"/><path d="M130.42 267.635H50.58l7.072-8.21h65.696l7.072 8.21Z" fill="#DB7E5D"/><path d="M135.137 267.635h-89.27v33.036h89.27v-33.036Z" fill="#B5684D"/><path d="M139.162 300.667H41.838v7.33h97.324v-7.33Z" fill="#DB7E5D"/><path d="M128.064 274.672H52.94v18.959h75.124v-18.959Z" fill="#FFCA42"/><path d="M55.664 278.691c.725 0 1.312-.584 1.312-1.305 0-.72-.587-1.304-1.312-1.304-.724 0-1.31.584-1.31 1.304 0 .721.587 1.305 1.31 1.305ZM55.664 292.224c.725 0 1.312-.584 1.312-1.304 0-.721-.587-1.305-1.312-1.305-.724 0-1.31.584-1.31 1.305 0 .72.587 1.304 1.31 1.304ZM125.332 278.691c.724 0 1.311-.584 1.311-1.305 0-.72-.587-1.304-1.311-1.304s-1.311.584-1.311 1.304c0 .721.587 1.305 1.311 1.305ZM125.332 292.224c.724 0 1.311-.584 1.311-1.304 0-.721-.587-1.305-1.311-1.305s-1.311.584-1.311 1.305c0 .72.587 1.304 1.311 1.304Z" fill="#EAAF18"/></g><path fill-rule="evenodd" clip-rule="evenodd" d="M151.144 310.484H8.204c-3.424 0-6.204-2.796-6.204-6.242S4.779 298 8.203 298h477.594c3.423 0 6.203 2.796 6.203 6.242s-2.779 6.242-6.203 6.242H349.63c-3.423 0-6.203 2.796-6.203 6.242s2.779 6.242 6.203 6.242h35.907c3.423 0 6.204 2.796 6.204 6.242s-2.779 6.242-6.204 6.242h-270.3c-3.423 0-6.204-2.796-6.204-6.242s2.779-6.242 6.204-6.242h35.907c3.423 0 6.203-2.796 6.203-6.242s-2.779-6.242-6.203-6.242Zm53.174 33.34h85.362c2.697 0 4.887 2.505 4.887 5.588 0 3.084-2.19 5.588-4.887 5.588h-85.362c-2.696 0-4.886-2.504-4.886-5.588 0-3.083 2.19-5.588 4.886-5.588Z" fill="#DBE6F4"/><path fill-rule="evenodd" clip-rule="evenodd" d="M290.8 240.839h-80.979c16.207-26.951 26.061-58.669 26.1-95.464h29.982c.039 36.795 8.69 68.512 24.897 95.464Z" fill="#FFC300"/><path fill-rule="evenodd" clip-rule="evenodd" d="M290.8 240.839h-37.405l10.836-3.318a12.297 12.297 0 0 0 8.399-14.456l-7.624-33.917c-7.442-.043-14.536-.794-22.68-2.744l-3.293-5.577 29.723-.442c3.77 22.337 11.222 42.457 22.043 60.452l.001.002Z" fill="#FCDCB5"/><path fill-rule="evenodd" clip-rule="evenodd" d="M304.005 45.21a4.199 4.199 0 0 1-4.197-4.196 4.199 4.199 0 0 1 4.197-4.195h1.185a19.452 19.452 0 0 1 19.45 19.447v9.403a4.023 4.023 0 0 0 4.024 4.023 4.023 4.023 0 0 0 4.024-4.023V49.232c0-6.856 5.558-12.413 12.415-12.413 6.858 0 12.416 5.557 12.416 12.413v46.943a19.449 19.449 0 0 1-9.65 16.799l-36.27 21.155a4.2 4.2 0 0 1-5.739-1.51 4.197 4.197 0 0 1 1.51-5.738l36.27-21.154a11.058 11.058 0 0 0 5.487-9.552V49.232a4.024 4.024 0 0 0-8.048 0V65.67c0 6.856-5.559 12.413-12.416 12.413s-12.415-5.557-12.415-12.413v-9.403a11.058 11.058 0 0 0-11.059-11.057h-1.185.001Z" fill="#FFCA42"/><path fill-rule="evenodd" clip-rule="evenodd" d="M328.896 78.082c-.077.002-.155.002-.232.002-6.857 0-12.415-5.557-12.415-12.413v-9.403a11.06 11.06 0 0 0-11.059-11.057h-1.185a4.199 4.199 0 0 1-4.197-4.196 4.199 4.199 0 0 1 4.197-4.195h1.185a19.452 19.452 0 0 1 19.45 19.447v9.403a4.023 4.023 0 0 0 4.256 4.017v8.395Zm-10.168 51.889-7.129 4.158a4.2 4.2 0 0 1-5.739-1.51 4.198 4.198 0 0 1 1.51-5.738l17.797-10.38c-2.561 5.956-3.605 8.259-6.44 13.47h.001Z" fill="#EAAF18"/><path fill-rule="evenodd" clip-rule="evenodd" d="M200.602 45.276a4.198 4.198 0 0 0 4.196-4.196 4.198 4.198 0 0 0-4.196-4.195h-1.185a19.453 19.453 0 0 0-19.451 19.447v9.403a4.024 4.024 0 0 1-8.048 0V49.298c0-6.856-5.559-12.414-12.416-12.414s-12.416 5.558-12.416 12.414v46.943a19.449 19.449 0 0 0 9.65 16.799l36.27 21.155a4.2 4.2 0 0 0 5.739-1.51c1.167-2 .49-4.571-1.511-5.738l-36.269-21.154a11.058 11.058 0 0 1-5.487-9.552V49.298a4.023 4.023 0 1 1 8.048 0v16.437c0 6.856 5.558 12.414 12.415 12.414 6.857 0 12.416-5.558 12.416-12.414v-9.403a11.055 11.055 0 0 1 11.059-11.057h1.186Z" fill="#FFCA42"/><path fill-rule="evenodd" clip-rule="evenodd" d="M323.679 49.57v45.516c0 26.859-15.177 51.411-39.204 63.424l-31.498 16.014-32.57-16.014c-24.026-12.012-39.204-36.565-39.204-63.424V49.57h142.476ZM334.3 24.002a4.574 4.574 0 0 1 4.096 6.62l-8.186 16.413a4.578 4.578 0 0 1-4.097 2.534H177.801a4.577 4.577 0 0 1-4.165-2.677l-7.494-16.413A4.58 4.58 0 0 1 170.307 24H334.3v.002Z" fill="#FFCA42"/><path fill-rule="evenodd" clip-rule="evenodd" d="M209.311 24.002h16.702L200.844 49.57h-19.64L209.311 24Z" fill="#FCDCB5"/><path fill-rule="evenodd" clip-rule="evenodd" d="M275.131 157.842v22.987h-43.472v-22.987h43.472Z" fill="#FFCA42"/><path fill-rule="evenodd" clip-rule="evenodd" d="M253.395 163.419c22.181 0 40.187 5.15 40.187 11.493 0 6.344-18.007 11.493-40.187 11.493-22.18 0-40.188-5.149-40.188-11.493 0-6.343 18.008-11.493 40.188-11.493Z" fill="#FFCA42"/><path fill-rule="evenodd" clip-rule="evenodd" d="M253.395 172.764c22.181 0 40.187.962 40.187 2.148 0 1.185-18.007 2.148-40.187 2.148-22.18 0-40.188-.963-40.188-2.148 0-1.186 18.008-2.148 40.188-2.148ZM304.977 240.839a4.338 4.338 0 0 1 4.338 4.338v36.737H191.306v-36.737a4.338 4.338 0 0 1 4.339-4.338h109.332Z" fill="#FCDCB5"/><mask id="g" style="mask-type:luminance" maskUnits="userSpaceOnUse" x="191" y="240" width="119" height="42"><path d="M304.977 240.839a4.338 4.338 0 0 1 4.338 4.338v36.737H191.306v-36.737a4.338 4.338 0 0 1 4.339-4.338h109.332Z" fill="#fff"/></mask><g mask="url(#g)"><path fill-rule="evenodd" clip-rule="evenodd" d="M302.833 226.619c3.047 41.12 6.852 51.252-23.669 50.504-3.424-.084-87.858-.22-87.858-.22s-2.339 4.473-1.158 7.853c6.465 18.513 62.833 12.143 93.969 8.812 46.142-4.935 41.468-18.967 36.885-40.244-.101-.471-.068-.442-.928-5.96" fill="#FCC583"/></g><path fill-rule="evenodd" clip-rule="evenodd" d="M291.207 246.405v29.944h-81.792v-29.944h81.792Z" fill="#EBEBEB"/><path fill-rule="evenodd" clip-rule="evenodd" d="M322.534 281.914a5.617 5.617 0 0 1 5.617 5.617v5.268a5.616 5.616 0 0 1-5.617 5.616H178.087a5.616 5.616 0 0 1-5.617-5.616v-5.268a5.617 5.617 0 0 1 5.617-5.617h144.447Z" fill="#DB7E5D"/><mask id="h" style="mask-type:luminance" maskUnits="userSpaceOnUse" x="172" y="281" width="157" height="18"><path d="M322.534 281.914a5.617 5.617 0 0 1 5.617 5.617v5.268a5.616 5.616 0 0 1-5.617 5.616H178.087a5.616 5.616 0 0 1-5.617-5.616v-5.268a5.617 5.617 0 0 1 5.617-5.617h144.447Z" fill="#fff"/></mask><g mask="url(#h)" fill-rule="evenodd" clip-rule="evenodd"><path d="M335.85 295.096v14.663H164.772v-14.663H335.85Z" fill="#B5684D"/><path d="M335.85 284.965v-7.947H164.772v7.947H335.85Z" fill="#FCC583"/></g><path fill-rule="evenodd" clip-rule="evenodd" d="M324.546 54.354H180.067c.168-1.643.544-3.25 1.114-4.783H323.68v.658c.435 1.334.728 2.716.867 4.125h-.001Z" fill="#EAAF18"/><path fill-rule="evenodd" clip-rule="evenodd" d="M192.609 105.251V75.117h33.404c-8.089 31.791-1.166 58.636 14.321 82.619l-.207.106-21.563-10.603a46.943 46.943 0 0 1-25.955-41.989v.001ZM226.013 59.282v12.774h-33.404V59.283h33.404ZM231.659 24.002 209.31 49.57h43.131L268.756 24h-37.097ZM232.894 235.694h-16.917c7.692-12.792 13.536-26.968 16.917-42.588l14.447.421c-2.509 15.103-7.267 29.184-14.447 42.167Z" fill="#FCDCB5"/><path fill-rule="evenodd" clip-rule="evenodd" d="M175.042 245.983a2.573 2.573 0 0 1 0-5.144H325.58a2.572 2.572 0 1 1 0 5.144H175.042Z" fill="#DB7E5D"/><mask id="i" style="mask-type:luminance" maskUnits="userSpaceOnUse" x="172" y="240" width="157" height="6"><path d="M175.042 245.983a2.573 2.573 0 0 1 0-5.144H325.58a2.572 2.572 0 1 1 0 5.144H175.042Z" fill="#fff"/></mask><g mask="url(#i)" fill-rule="evenodd" clip-rule="evenodd"><path d="M343.785 244.948v4.571H156.837v-4.571h186.948Z" fill="#B5684D"/><path d="M343.785 241.789v-2.477H156.837v2.477h186.948Z" fill="#FCC583"/></g><defs><clipPath id="a"><path fill="#fff" transform="translate(349 200)" d="M0 0h88v98H0z"/></clipPath><clipPath id="b"><path fill="#fff" transform="translate(392 120)" d="M0 0h41v44H0z"/></clipPath><clipPath id="c"><path fill="#fff" transform="translate(355 121)" d="M0 0h28v43H0z"/></clipPath><clipPath id="d"><path fill="#fff" transform="translate(34 127)" d="M0 0h113v181H0z"/></clipPath></defs></svg>