<svg width="859" height="94" fill="none" xmlns="http://www.w3.org/2000/svg"><path opacity=".75" d="M810.937 70.59c5.161 1.007 5.806 1.259 8.387 2.014 2.58.755 5.161 1.51 7.096 2.014 1.936.503 3.549 1.007 6.452 1.258 2.903.252 6.774.252 8.064 0 .968-.251.968-1.007.323-1.258-.646-.252-1.613-.755-3.226-1.007a23.483 23.483 0 0 1-3.548-.755s-.323-1.259.967-1.007c1.291 0 2.581-.504 4.194-.252 1.935 0 2.903-.503 4.193-.251 1.29 0 2.903 0 3.548-.252.646 0 .323-1.007-.967-1.007-1.291 0-1.613-.252-2.258-.504-.645-.251-2.903-1.006-1.936-1.006h3.871c.968 0 1.613-.252 2.903-.252 1.291 0 2.258 0 2.258-1.259 0-1.007.968-1.51 1.613-2.265.645-.504 0-1.007-.968-1.007-.967 0-2.58-.252-2.58-.252s.645-1.007.322-1.762c-.322-.503-1.613-.503-1.613-1.258s0-1.762 1.291-1.51c1.29.251 2.903 1.51 2.903.503 0-1.007-1.935-2.014 0-2.266 1.935-.251 3.548.252 3.871-.755 0-1.007-.645-1.258-1.613-1.762-.645-.252-3.226-1.258-1.936-1.51h3.549c.967 0 1.613-.504 1.29-1.007 0-.503-.323-1.007-1.29-1.259-.645-.503-2.903-1.258-1.291-1.258 1.613 0 2.581.503 2.904-.504.322-1.006-.323-1.258-.968-1.762-.645-.503-2.903-1.51-1.936-1.51.968 0 3.226.252 3.226-.252 0-.503-.968-1.258-1.935-2.013-.968-.504-1.936-1.762-.968-1.762h2.581c.967 0 .645-1.007-.323-1.51-.968-.504-1.29-.252-2.581-1.008-1.29-.503-1.29-1.51-3.87-2.265-2.581-.755-10.323-4.782-13.226-5.79-2.903-1.006-7.096-2.517-9.354-2.768-2.258-.504-10-1.51-11.613-2.014-1.613-.503-44.837-3.524-60.32-3.272-15.483.251-175.477 5.034-189.993 6.796-14.515 1.762-266.119 9.565-326.117 15.858-59.997 6.041-170.638 5.286-193.54 2.014-22.903-3.272-42.257-5.538-42.257-5.538S.967 68.325.645 73.611C0 78.897-1.29 83.93 4.515 86.197c5.807 2.013 106.126 9.817 161.285 7.551 54.837-2.265 199.025-10.572 227.088-12.334 28.064-1.762 211.928-12.586 250.636-14.851 38.386-2.266 89.674-3.524 112.576-2.014 22.903 1.51 39.676 2.769 54.837 6.041Z" fill="#FFCA42"/><path opacity=".75" d="M4.193 46.174c.645-1.762 2.903-5.79 10.322-5.79 7.419 0 99.028-14.096 154.833-18.123 55.804-4.028 199.347-6.293 238.701-8.558 39.353-2.266 157.09-4.531 207.089-7.552 49.675-3.272 124.652-1.259 143.361 0C777.208 7.41 793.55 10.5 798.999 12c0 0 10.081.966 7.5 6-1.935 3.776-10.078 11.309-13.949 13.323-3.871 2.013-17.741 5.79-31.611 6.796-13.548.755-170.962 5.79-196.445 6.545-25.483.755-88.706 1.762-110.641 4.027-21.934 2.014-116.124 6.041-147.736 7.3-31.612 1.51-107.093 6.041-136.447 7.551-29.353 1.51-99.996 9.817-113.866 12.586-13.87 2.517-37.418 6.293-43.547 7.803-6.129 1.259-10 2.266-10.645 0-.322-2.265-3.226-17.62 2.58-37.757Z" fill="#FFCA42"/><path opacity=".75" d="M809.813 15.606c-.968-1.258-9.032-5.79-17.419-6.544-8.387-.755-91.287-2.517-104.512-3.02-13.548-.504-72.255-2.015-104.835-2.77-32.257-1.007-96.448.504-120.641 1.51-24.192 1.26-93.544 1.26-118.06 1.26-24.515 0-108.705-1.26-137.736-.756-29.032.503-107.738-1.007-126.77-2.265-19.031-1.259-41.934 0-45.482-.252C30.81 2.265 23.713.503 21.133.503 18.553.252 15.649 0 14.036 0c-1.29 0-4.193 1.762-4.193 3.524-.323 2.014-2.58 8.81-2.903 12.334-.323 3.524-2.258 13.593-3.871 16.865-1.29 3.524-1.29 8.559-.645 10.069.967 1.51 6.129 3.524 8.064 3.524 1.935.252 49.353.755 56.45 1.258 7.096.504 167.735-1.258 179.025-.503 11.29.755 109.028 3.524 138.382 2.517 29.354-1.007 181.606-1.007 204.186-2.014 22.58-1.006 113.544-3.775 142.575-1.762 29.031 1.762 60.643-.251 61.933 1.762 1.291 1.762 4.516-1.51 6.452-5.537 1.935-4.028 5.806-16.11 9.677-22.655 1.29-.755 1.613-2.517.645-3.776ZM500.47 9.062c-1.613.252-6.774 1.762-12.903 1.258-5.806-.503-9.355 0-11.29-.251-1.935-.252-1.613 1.258-4.516 1.258-2.581 0-3.871-.252-5.806-.252-1.936-.251-3.549.252-5.161.252-1.613 0-3.549 0-5.161-.252-1.613 0-1.936-.251-3.226.252-1.29.252.322 1.51-1.29 1.51-1.613 0-6.774-1.51-10.968-.755-4.193.755-5.806 1.007-8.709.755-2.581-.251-3.871-1.006-4.839-.251-.967.755-.967 1.258-1.935.503-1.29-.755-1.935-1.007-2.903-.503-.968.503-.968 1.007-3.226.503-2.58-.252-5.484-1.258-9.032-1.007-3.225.252-4.193.755-6.774 1.259-2.58.503-3.87 1.007-5.161.503-1.613-.251-3.225-.503-5.806-.755s-3.871-.503-5.484-.252c-1.613.252-2.258.504-3.871.252-1.612 0-2.257-.755-4.193-.252-1.935.504-7.096 1.007-8.709.756-1.613 0-23.87.503-28.709 0-4.838-.252-22.58 0-27.418-.504-4.839-.252-18.064-.252-19.999-.252-2.581.252-10.323-.251-13.226-.251-2.903 0-5.806 0-11.29-.252-4.838-.252-9.677-1.51-11.935-1.762h-.967 5.483c.968 0 4.839.504 4.839.504s3.548.503 5.806.251c1.935 0 10.645.504 12.58.504 1.936.251 13.871-.252 16.129 0 2.58.251 7.741.251 10.322.251 2.58 0 9.677-.251 11.29-.251 1.613 0 7.419-.504 8.709-.504h8.064c1.613 0 4.194.252 5.484.252s2.903-.252 5.806-.252 6.452.252 9.032.252c2.581 0 4.516-.252 8.387-.252h6.129c3.871 0 3.548.504 7.419 0 3.871-.252 5.161-.755 6.451-.755 1.613 0 4.194.252 5.806 0 1.613-.252 1.936-.755 3.226-.755s43.547-.504 52.901-.755c9.355-.252 18.387 0 23.87-.504 5.484-.503 12.581-1.007 18.387-1.007 5.483.756 9.999 1.26 8.387 1.51Z" fill="#FFCA42"/></svg>