<svg width="26" height="26" fill="none" xmlns="http://www.w3.org/2000/svg"><path fill-rule="evenodd" clip-rule="evenodd" d="M19.095 2.987C17.963 2.617 16.421 2.6 13 2.6c-1.835 0-3.146 0-4.18.071-1.021.07-1.677.203-2.207.424a6.5 6.5 0 0 0-3.52 3.518c-.22.532-.354 1.186-.423 2.207C2.6 9.854 2.6 11.164 2.6 13c0 1.835 0 3.146.071 4.18.07 1.021.203 1.676.424 2.207a6.5 6.5 0 0 0 3.518 3.517c.532.221 1.186.355 2.207.424 1.034.072 2.347.072 4.18.072 1.833 0 3.146 0 4.18-.072 1.021-.069 1.676-.203 2.207-.424a6.5 6.5 0 0 0 3.517-3.517c.221-.532.355-1.186.424-2.208.072-1.033.072-2.344.072-4.18 0-.995 0-1.84-.013-2.578a1.3 1.3 0 1 1 2.6-.042c.013.76.013 1.626.013 2.613v.056c0 1.777 0 3.176-.078 4.308-.079 1.154-.242 2.124-.615 3.026a9.1 9.1 0 0 1-4.925 4.925c-.902.373-1.872.537-3.026.616-1.131.077-2.532.077-4.308.077h-.096c-1.777 0-3.176 0-4.308-.078-1.155-.079-2.125-.242-3.027-.615a9.1 9.1 0 0 1-4.924-4.925C.32 19.48.156 18.51.077 17.356 0 16.225 0 14.825 0 13.048v-.096c0-1.776 0-3.176.078-4.308.078-1.155.242-2.125.615-3.027A9.1 9.1 0 0 1 5.616.693C6.518.32 7.488.156 8.642.077 9.775 0 11.175 0 12.952 0h.327c3.055 0 5.046 0 6.625.516a1.3 1.3 0 0 1-.809 2.471Zm6.728.908a1.3 1.3 0 0 1-.468 1.778l-.289.168a27.215 27.215 0 0 0-10.784 11.653 1.3 1.3 0 0 1-2.09.353l-5.216-5.213a1.3 1.3 0 1 1 1.837-1.838l3.964 3.961A29.814 29.814 0 0 1 23.756 3.594l.288-.167a1.3 1.3 0 0 1 1.779.468Z" fill="#FA8D8D"/></svg>