<svg width="127" height="32" viewBox="0 0 127 32" fill="none" xmlns="http://www.w3.org/2000/svg">
<g opacity="0.57">
<path opacity="0.75" d="M13.1191 23.7231C12.4192 25.0494 12.4192 25.3508 11.9293 26.7977C11.5094 28.1843 10.5995 29.0886 9.6897 29.4503C8.77986 29.8121 7.87003 29.6915 7.03018 29.39C6.19033 29.0886 6.05035 28.7872 5.49045 28.3049C4.93055 27.8226 3.67078 27.1594 3.25085 26.7374C2.83093 26.3757 1.92109 26.014 1.29121 25.4714C0.661319 24.9288 -0.318505 24.1451 0.10142 23.4216C0.521344 22.6982 0.731306 22.4571 1.57116 22.3365C2.41101 22.1556 3.32084 21.7939 3.74077 21.2513C4.16069 20.7087 5.98036 19.3824 6.26031 18.9001C6.54026 18.4178 7.59008 17.0915 8.21996 16.6092C8.84985 16.1269 9.33976 15.2226 9.96965 14.6801C10.5995 14.1375 12.9791 11.7863 13.679 11.2437C14.3789 10.7011 16.0586 9.31453 16.5485 8.89252C17.1084 8.5308 18.6481 7.02363 19.068 6.78248C19.4879 6.54133 20.6077 5.63703 21.0977 5.27531C21.5176 4.97387 22.3574 4.19015 23.1973 3.70785C24.0371 3.22556 25.7168 1.83896 26.3467 1.59781C26.9766 1.35666 27.8864 0.572935 28.3064 0.512648C28.7263 0.452362 29.4961 0.150927 30.056 0.0303537C30.6159 -0.0299331 31.8057 0.331788 32.9255 0.572935C34.1153 0.814083 35.725 1.53752 36.5649 1.71839C37.4047 1.95953 38.0346 2.50211 37.8247 2.98441C37.6147 3.4667 36.6349 3.76814 36.2149 3.949C35.795 4.12986 33.3455 5.3356 32.7856 5.57674C32.2257 5.81789 27.9564 8.5308 26.6967 9.55567C25.4369 10.5806 25.0869 11.3643 24.597 11.2437C24.1771 11.1834 23.9671 11.4246 23.7572 11.8466C23.5472 12.3289 23.1273 12.6303 22.6374 12.992C22.2175 13.3537 19.4879 15.8255 18.998 16.4284C18.5781 17.0312 17.1784 18.4781 16.6185 19.081C16.0586 19.6839 16.4085 19.8044 15.7786 20.1059C15.1487 20.4073 15.2187 21.191 14.6588 21.4925C14.3089 21.9145 13.469 22.9996 13.1191 23.7231Z" fill="#F98D8D"/>
<path opacity="0.75" d="M63.5787 6.29846C63.3688 5.99702 62.5289 5.6353 61.4091 5.39416C60.9892 5.15301 60.5693 4.91186 60.2893 4.79129C59.6594 4.42957 56.9999 3.76641 56.37 3.64584C55.8801 3.52526 55.6002 3.52526 55.4602 3.70612C54.9003 3.8267 54.3404 4.00756 53.5705 4.18842C52.3808 4.42957 50.7011 5.6353 48.9514 6.90133C47.1317 8.16735 38.1733 16.1855 36.9835 17.3309C35.7937 18.4764 34.114 19.6218 34.254 18.8984C34.394 18.1147 35.7237 14.4975 36.4936 12.5683C36.7736 11.9051 37.6134 8.58936 37.7534 7.86592C37.9633 7.14247 38.0333 3.8267 37.8234 3.10326C37.6134 2.37981 37.2635 2.13867 36.5636 1.83723C35.8637 1.5358 34.9539 1.23436 34.394 1.0535C33.8341 0.872643 31.8744 0.209488 31.1046 0.0286272C30.4047 -0.152233 29.4949 0.571209 29.3549 0.872643C29.3549 0.872643 29.4249 2.01809 29.4249 2.9224C29.4249 3.76641 29.2149 6.59989 29.2149 7.14247C29.2149 7.68505 29.2149 9.3128 28.865 10.0965C28.515 10.8803 27.3253 14.2563 26.7654 15.2209C26.2055 16.2458 24.5957 19.9233 23.9659 20.8276C23.336 21.7922 21.2363 25.952 20.8864 26.7357C20.5365 27.5194 20.8864 27.8811 21.3063 28.484C21.7263 29.0266 22.916 29.328 23.7559 29.8103C24.5957 30.2926 26.6254 31.1969 27.3252 31.6189C27.3252 31.6189 28.1651 32.1012 29.2149 31.9806C30.2647 31.8601 30.1247 31.8601 32.2244 31.3175C34.324 30.7749 34.464 29.6295 35.9337 28.8457C37.4034 28.062 40.1329 25.2285 41.3227 24.0831C42.5125 22.9376 49.2313 16.4869 50.771 15.3415C51.191 15.04 51.8908 14.4975 52.7307 13.8343C52.4507 14.618 52.2408 15.3415 52.1008 15.8238C51.6809 17.3912 50.911 19.5616 50.771 20.5864C50.7011 21.6716 51.051 23.1185 51.7509 23.4802C52.5207 23.8419 54.2704 24.5051 55.3202 25.1682C56.37 25.8314 58.3297 26.6151 59.2395 26.6151C60.1494 26.6151 59.8694 25.8314 59.8694 25.1682C59.8694 24.5051 60.2893 23.2391 60.6393 22.3348C60.9192 21.4305 61.0592 19.7424 61.5491 18.7175C61.969 17.6927 62.7389 14.196 62.8789 13.8343C63.0188 13.4726 63.9287 8.8305 64.0687 7.74534C64.1386 7.50419 64.0687 7.26305 63.9987 7.08219C64.2786 6.90133 63.8587 6.59989 63.5787 6.29846Z" fill="#F98D8D"/>
<path opacity="0.75" d="M51.7506 23.4808C52.8004 23.8425 55.04 25.4099 56.3697 25.832C57.6995 26.1937 59.3792 27.3994 61.8987 25.5908C64.4183 23.7822 67.2878 19.8033 70.2972 17.5727C73.3067 15.4023 77.016 12.81 79.2556 11.122C79.2556 11.122 78.6257 13.7143 78.4858 15.6435C78.3458 17.5727 79.6756 19.3813 81.3552 20.165C83.0349 20.9487 84.9246 21.7325 86.4643 22.0942C87.9341 22.4559 90.1737 21.853 91.5734 21.0693C92.9032 20.2856 94.5829 18.5975 95.6327 17.9947C96.6825 17.3315 101.302 12.9909 102.072 13.3526C102.841 13.7143 105.081 15.5229 106.411 16.1861C107.741 16.8492 110.89 18.3564 112.22 18.1152C113.549 17.8741 115.229 16.8492 116.139 16.1861C117.049 15.5229 118.099 14.1363 118.659 13.4732C119.288 12.81 119.428 12.4483 121.528 11.1823C123.628 9.91623 123.348 10.1574 124.537 9.25308C125.727 8.34877 125.587 8.34877 125.377 8.2282C125.167 8.16791 125.167 8.10763 125.097 7.98705C125.027 7.86648 125.027 7.7459 125.167 7.68562C125.307 7.56504 125.517 7.38418 125.797 7.26361C126.077 7.14304 126.637 6.90189 126.427 6.90189C126.217 6.90189 126.147 6.96218 126.077 6.8416C126.007 6.72103 126.007 6.60045 126.217 6.54017C126.427 6.47988 126.707 6.35931 126.567 6.17845C126.427 5.99759 126.147 5.75644 126.147 5.75644C126.147 5.75644 126.217 5.63586 126.007 5.69615C125.797 5.81673 125.517 5.99759 125.377 5.99759C125.237 5.99759 125.237 5.69615 125.307 5.63586C125.377 5.57558 125.797 5.27414 126.147 5.15357C126.497 4.97271 126.427 4.91242 126.707 4.79185C126.987 4.67128 127.127 4.43013 126.847 4.49042C126.567 4.5507 126.147 4.73156 125.867 4.85214C125.657 4.97271 125.377 5.09328 125.307 5.15357C125.167 5.21386 125.097 5.27414 125.027 5.21386C124.957 5.15357 124.887 4.85214 124.887 4.85214C124.887 4.85214 124.957 4.67128 125.097 4.5507C125.237 4.43013 125.377 4.43013 125.517 4.36984C125.657 4.24927 125.517 4.12869 125.377 4.06841C125.307 4.00812 124.817 3.88755 124.747 3.94783C124.607 4.00812 124.118 4.24927 123.978 4.24927C123.838 4.24927 117.679 7.14304 116.839 7.62533C116.069 8.04734 113.13 9.73537 112.57 9.97652C112.01 10.2177 111.31 10.4588 111.17 10.1574C111.03 9.85594 108.16 7.92676 107.111 7.44447C106.061 7.02246 103.121 5.51529 101.932 5.33443C100.672 5.21386 98.5022 5.15357 97.2424 6.05787C95.9826 6.96218 88.564 12.6894 88.564 12.6894C88.564 12.6894 89.0539 8.04734 89.0539 7.56504C89.0539 7.08275 88.9139 6.72103 88.354 6.29902C87.7941 5.87701 82.4051 3.40525 81.7752 3.22439C81.1453 3.04353 78.7657 2.80238 78.2758 2.98324C77.7859 3.1641 73.2367 4.91242 71.487 6.05787C69.7373 7.20332 65.888 10.0368 65.1182 10.5794C64.2783 11.122 60.1491 13.5937 59.2392 14.076C58.3294 14.498 53.4303 20.1047 52.1705 20.7679C50.9107 21.4913 50.2808 22.0339 50.5608 22.4559C50.8407 22.8176 51.7506 23.4808 51.7506 23.4808Z" fill="#F98D8D"/>
</g>
</svg>
