<svg width="160" height="115" fill="none" xmlns="http://www.w3.org/2000/svg"><mask id="a" style="mask-type:alpha" maskUnits="userSpaceOnUse" x="0" y="0" width="160" height="115"><path fill="#D9D9D9" d="M0 0h160v115H0z"/></mask><g mask="url(#a)"><path opacity=".75" d="M27.106 101.123c.21 2.078.426 2.451.947 4.548.551 1.979.232 3.665-.478 4.678s-1.768 1.429-2.882 1.577c-1.114.148-1.48-.138-2.426-.388-.945-.25-2.768-.289-3.52-.551-.71-.188-1.941-.071-3.005-.352-1.063-.281-2.674-.644-2.748-1.801-.073-1.157-.023-1.586.787-2.257.766-.746 1.476-1.759 1.533-2.692.057-.933 1.043-3.707.994-4.478-.05-.772.115-3.067.44-4.056.324-.989.195-2.414.476-3.477.281-1.064 1.126-5.455 1.482-6.562a148.71 148.71 0 0 0 1.367-4.695c.337-.796.893-3.62 1.168-4.18.274-.56.817-2.375 1.08-3.128.23-.634.561-2.127 1.11-3.246.549-1.12 1.342-3.88 1.84-4.57.499-.69.905-2.227 1.31-2.562.404-.336 1.008-1.188 1.52-1.685.553-.422 2.084-.713 3.453-1.11 1.444-.44 3.683-.543 4.71-.84 1.07-.223 2.134.058 2.258.786.123.728-.705 1.71-1.023 2.195-.318.485-2.063 3.5-2.486 4.147-.424.646-3.025 6.66-3.63 8.711-.606 2.053-.415 3.241-1.024 3.396-.492.186-.542.615-.462 1.269.124.728-.107 1.362-.37 2.114-.187.71-1.318 5.467-1.406 6.519-.014 1.007-.464 3.67-.627 4.764-.163 1.095.297 1.027-.158 1.792-.455.765.185 1.692-.195 2.413-.07.74-.183 2.607-.035 3.721Z" fill="#FFCA42"/><path opacity=".75" d="M68.402 48.194c-.442-.244-1.599-.17-2.968.227-.622-.038-1.244-.076-1.63-.052-.933-.057-4.25.773-5.01 1.015-.609.155-.908.329-.927.64-.51.497-.977 1.069-1.669 1.771-1.096 1.038-2.02 3.575-2.974 6.23-1.03 2.7-4.81 18.198-5.254 20.357-.444 2.158-1.41 4.62-1.783 3.637-.415-1.058-1.604-6.366-2.173-9.235-.18-.995-1.674-5.625-2.046-6.609-.298-1.026-2.614-5.178-3.36-5.944-.745-.766-1.293-.848-2.257-.787-.964.062-2.153.253-2.88.377-.729.124-3.299.519-4.25.773-.878.21-1.328 1.672-1.26 2.133 0 0 .901 1.375 1.553 2.496.608 1.046 2.427 4.687 2.819 5.36.39.671 1.565 2.688 1.756 3.877.192 1.188 1.356 6.11 1.454 7.653.141 1.618 1.075 7.174 1.054 8.686.024 1.587.782 8.045.974 9.233.191 1.189.826 1.42 1.708 1.906.84.411 2.327.046 3.571.122 1.244.076 4.063-.064 5.114.024 0 0 1.244.076 2.278-.726 1.033-.801.884-.714 2.733-2.69 1.85-1.977 1.174-3.483 2.177-5.367 1.004-1.884 1.874-7.09 2.318-9.248.444-2.158 2.964-14.324 3.782-16.7.23-.634.586-1.741 1.005-3.084.266 1.144.564 2.171.762 2.856.682 2.203 1.425 5.37 2.015 6.727.707 1.388 2.124 2.963 3.132 2.977 1.082-.03 3.428-.295 5.027-.125 1.598.17 4.255-.077 5.226-.642.971-.565.107-1.362-.37-2.184-.48-.821-.944-2.65-1.222-3.989-.353-1.294-1.421-3.473-1.637-5.047-.291-1.53-1.99-6.341-2.102-6.876-.111-.535-2.487-6.852-3.12-8.284-.1-.342-.348-.598-.553-.778.168-.398-.497-.51-1.013-.71Z" fill="#FFCA42"/><path opacity=".75" d="M68.165 76.831c1.382-.204 4.902.348 6.626.045 1.68-.378 4.342.073 5.727-3.733 1.385-3.806 1.58-10.518 3.183-15.151 1.647-4.559 3.737-10.075 4.91-13.557 0 0 1.197 3.603 2.439 6.08 1.241 2.478 3.965 3.893 6.323 3.82 2.357-.071 4.939-.274 6.844-.782 1.829-.465 3.785-2.603 4.714-4.443.854-1.797 1.43-4.932 2.115-6.33.643-1.475 2.443-9.722 3.526-9.752 1.082-.03 4.777.82 6.674.816 1.898-.004 6.346-.093 7.591-1.218 1.246-1.124 2.299-3.437 2.792-4.824.493-1.387.614-3.757.733-4.927.195-1.212.083-1.747 1.411-4.62s1.204-2.4 1.821-4.26c.618-1.86.469-1.772.158-1.791-.268.055-.311-.02-.473-.125-.161-.106-.248-.256-.142-.417.062-.237.156-.591.368-.914.211-.324.635-.97.411-.84-.224.13-.255.249-.417.143-.162-.106-.248-.255-.068-.46.181-.206.393-.529.113-.666s-.753-.262-.753-.262-.012-.193-.193.012c-.137.28-.305.678-.454.765-.15.087-.367-.287-.336-.405.031-.118.262-.752.549-1.12.243-.44.125-.472.336-.795.212-.323.188-.71-.067-.46-.256.248-.574.733-.785 1.056-.138.28-.349.603-.381.722-.106.161-.137.28-.255.248-.118-.031-.41-.361-.41-.361s-.056-.268.007-.504c.062-.236.211-.323.317-.485.063-.236-.174-.299-.366-.287-.119-.03-.728.124-.76.242-.106.162-.455.765-.604.852-.149.087-4.637 7.498-5.185 8.617-.518 1-2.438 4.918-2.862 5.565-.423.646-.996 1.38-1.363 1.093-.367-.286-4.821-.895-6.289-.84-1.425.129-5.649.087-7.049.602-1.432.633-3.791 1.906-4.483 3.809-.693 1.903-4.481 13.607-4.481 13.607s-2.825-6.056-3.172-6.654c-.348-.598-.758-.959-1.66-1.134-.902-.175-8.436.11-9.239.276-.802.167-3.516 1.347-3.909 1.875-.392.528-3.987 5.52-5.029 8.026-1.041 2.506-3.107 8.408-3.537 9.558-.505 1.194-3.13 6.821-3.754 7.984-.667 1.088-1.853 11.078-2.72 12.682-.822 1.679-1.104 2.742-.5 3.091.56.275 2.008.531 2.008.531Z" fill="#FFCA42"/><ellipse cx="89" cy="57.5" rx="56" ry="55.5" fill="#cbf1cc"/><path d="M112.449 68.349h1.2c3.581 0 6.486 2.873 6.486 6.418v2.224h-7.686V68.35Z" fill="#75af7a"/><path d="M104.764 76.991v-2.224c0-3.545 2.903-6.418 6.484-6.418h1.202v8.642h-7.688.002ZM91.323 33.01h-18.44v7.912h18.44v-7.911ZM74.565 75.38v9.68l-3.815-4.54-3.807 4.54v-9.68h7.622ZM63.219 24v47.147H61.51c-2.172.47-3.336 2.113-3.492 3.84V28.03c0-2.226 1.864-4.03 4.163-4.03h1.037Z" fill="#75af7a"/><path d="M58.018 74.993v.777M99.835 71.147V24H62.18c-2.3 0-4.162 1.804-4.162 4.03v46.957" stroke="#75af7a" stroke-width="2" stroke-linecap="round" stroke-linejoin="round"/><path d="M64.277 79.618h-2.768c-2.178-.47-3.34-2.115-3.492-3.846a4.374 4.374 0 0 1 0-.78v-.003c.156-1.727 1.318-3.37 3.492-3.84h38.333c-4.677 1.01-4.677 7.459 0 8.47h-22.61" stroke="#75af7a" stroke-width="2" stroke-linejoin="round"/><path d="M91.32 33.01H72.878v7.912h18.44v-7.911Z" stroke="#75af7a" stroke-width="2" stroke-linecap="round" stroke-linejoin="round"/><path d="M72.879 46.834h18.44M76.566 52.338h11.071" stroke="#75af7a" stroke-width="2" stroke-linecap="square" stroke-linejoin="round"/><path d="M74.565 75.38v9.68L70.75 80.52l-3.807 4.541v-9.68M64.467 75.38H77.29M63.217 24v47.147" stroke="#75af7a" stroke-width="2" stroke-linecap="round" stroke-linejoin="round"/><path d="M120.134 76.991v8.089c0 3.545-2.905 6.418-6.487 6.418h-2.403c-3.582 0-6.484-2.873-6.484-6.418V74.767c0-3.545 2.903-6.418 6.484-6.418h2.403c3.582 0 6.487 2.873 6.487 6.418v2.224ZM104.76 76.992h15.372" stroke="#75af7a" stroke-width="2" stroke-linejoin="round"/><path d="M102.406 36.562h2.144c4.361 0 7.895 3.495 7.895 7.81V74.659M112.447 76.994v-2.335" stroke="#75af7a" stroke-width="2" stroke-linejoin="round"/></g></svg>