<svg width="160" height="115" fill="none" xmlns="http://www.w3.org/2000/svg"><mask id="a" style="mask-type:alpha" maskUnits="userSpaceOnUse" x="0" y="0" width="160" height="115"><path fill="#D9D9D9" d="M0 0h160v115H0z"/></mask><g mask="url(#a)"><path opacity=".75" d="M26.45 101.444c.218 2.167.444 2.557.987 4.744.575 2.065.242 3.823-.498 4.88-.741 1.057-1.845 1.491-3.007 1.645-1.162.155-1.544-.144-2.53-.405-.986-.26-2.888-.301-3.673-.575-.74-.195-2.024-.073-3.134-.367-1.11-.293-2.79-.671-2.866-1.878-.077-1.207-.024-1.655.82-2.355.8-.778 1.54-1.835 1.6-2.808.059-.974 1.087-3.867 1.036-4.672-.05-.804.12-3.199.459-4.23.339-1.032.204-2.518.497-3.627.293-1.11 1.174-5.69 1.545-6.845a155.2 155.2 0 0 0 1.427-4.898c.351-.83.932-3.776 1.218-4.36.286-.584.853-2.478 1.126-3.263.241-.662.587-2.219 1.159-3.386.572-1.168 1.4-4.048 1.92-4.768.52-.72.943-2.322 1.365-2.672.422-.35 1.053-1.239 1.585-1.757.578-.44 2.175-.744 3.603-1.158 1.506-.46 3.843-.567 4.914-.877 1.116-.233 2.226.06 2.355.82s-.736 1.784-1.067 2.29c-.332.505-2.152 3.65-2.594 4.325-.442.675-3.155 6.947-3.787 9.088-.631 2.141-.431 3.38-1.068 3.542-.513.194-.565.642-.481 1.324.129.759-.112 1.42-.386 2.206-.195.74-1.375 5.703-1.467 6.8-.014 1.05-.484 3.827-.654 4.97-.17 1.141.31 1.07-.164 1.868-.475.798.192 1.766-.204 2.518-.073.772-.191 2.719-.037 3.881Z" fill="#FFCA42"/><path opacity=".75" d="M69.525 46.23c-.46-.253-1.667-.177-3.096.237-.648-.04-1.297-.08-1.7-.054-.973-.059-4.433.807-5.225 1.06-.636.16-.948.342-.968.666-.532.52-1.02 1.116-1.74 1.848-1.144 1.083-2.107 3.73-3.103 6.5-1.074 2.815-5.017 18.982-5.48 21.234-.464 2.251-1.472 4.82-1.86 3.794-.434-1.104-1.674-6.64-2.268-9.633-.187-1.038-1.746-5.868-2.134-6.894-.31-1.071-2.727-5.402-3.505-6.201-.777-.8-1.348-.884-2.354-.82-1.006.064-2.246.263-3.005.392-.76.13-3.44.542-4.434.807-.915.22-1.384 1.744-1.313 2.224 0 0 .94 1.435 1.62 2.604.635 1.091 2.532 4.89 2.94 5.591.408.701 1.632 2.805 1.832 4.045.2 1.24 1.415 6.374 1.517 7.984.147 1.687 1.121 7.483 1.1 9.06.024 1.655.815 8.392 1.015 9.632.2 1.239.861 1.48 1.783 1.987.875.43 2.427.048 3.724.128 1.298.079 4.238-.067 5.335.025 0 0 1.297.079 2.376-.757 1.078-.836.922-.745 2.852-2.807 1.93-2.062 1.223-3.633 2.27-5.598 1.047-1.965 1.955-7.396 2.418-9.647.463-2.252 3.092-14.942 3.945-17.42.24-.662.612-1.817 1.048-3.218.278 1.194.588 2.265.795 2.98.712 2.297 1.487 5.602 2.102 7.017.738 1.448 2.216 3.091 3.267 3.105 1.13-.03 3.576-.307 5.244-.13 1.668.177 4.439-.08 5.452-.67 1.013-.589.112-1.42-.387-2.278-.499-.857-.984-2.765-1.274-4.16-.369-1.351-1.482-3.624-1.708-5.266-.303-1.596-2.076-6.615-2.192-7.173-.116-.558-2.595-7.148-3.255-8.641-.104-.357-.363-.623-.577-.812.176-.415-.518-.532-1.057-.74Z" fill="#FFCA42"/><path opacity=".75" d="M69.28 76.104c1.44-.213 5.113.362 6.911.046 1.753-.394 4.53.076 5.975-3.894 1.445-3.97 1.647-10.972 3.32-15.805 1.718-4.755 3.898-10.508 5.122-14.141 0 0 1.248 3.758 2.543 6.343 1.296 2.584 4.136 4.06 6.596 3.985 2.46-.075 5.153-.287 7.139-.817 1.909-.484 3.949-2.715 4.918-4.635.891-1.874 1.492-5.144 2.207-6.603.67-1.538 2.548-10.14 3.677-10.172 1.13-.031 4.983.855 6.963.85 1.979-.003 6.619-.096 7.918-1.27 1.299-1.172 2.399-3.585 2.913-5.032.514-1.447.64-3.919.765-5.139.202-1.265.086-1.823 1.471-4.82 1.386-2.997 1.256-2.504 1.9-4.443.645-1.94.489-1.85.164-1.869-.279.058-.324-.02-.493-.13-.168-.11-.259-.267-.149-.435.066-.247.163-.617.384-.954.221-.337.663-1.012.43-.875-.234.136-.267.259-.435.148-.169-.11-.26-.266-.071-.48.188-.214.409-.551.117-.694-.292-.143-.785-.274-.785-.274s-.012-.2-.201.013c-.143.292-.319.707-.474.798-.156.09-.383-.3-.35-.422.032-.124.273-.785.572-1.168.254-.46.13-.493.351-.83.221-.337.196-.74-.071-.48-.266.259-.597.765-.818 1.102-.144.292-.365.629-.397.752-.111.169-.143.292-.266.26-.124-.033-.428-.377-.428-.377s-.058-.28.007-.526.221-.337.331-.506c.065-.246-.181-.311-.382-.299-.124-.032-.76.13-.792.253-.111.168-.475.797-.631.888-.156.09-4.836 7.821-5.409 8.989-.539 1.044-2.543 5.13-2.985 5.805-.442.674-1.039 1.44-1.422 1.14-.382-.299-5.028-.933-6.56-.876-1.486.134-5.892.09-7.353.628-1.493.66-3.954 1.988-4.677 3.973-.722 1.985-4.674 14.194-4.674 14.194s-2.947-6.317-3.31-6.94c-.362-.624-.79-1.001-1.73-1.184-.941-.183-8.8.114-9.638.288-.837.175-3.668 1.405-4.077 1.956-.41.551-4.16 5.758-5.246 8.372-1.087 2.614-3.242 8.77-3.69 9.97-.527 1.246-3.266 7.116-3.916 8.33-.696 1.134-1.933 11.555-2.837 13.228-.859 1.752-1.152 2.861-.523 3.225.584.286 2.096.554 2.096.554Z" fill="#FFCA42"/><ellipse cx="85" cy="57.5" rx="56" ry="55.5" fill="#DFEBFB"/><path d="m106.275 85.925-4.978 4.248-.548-6.21-.324-3.628-1.096-12.388 8.146 5.489 3.785 2.55 6.757 4.555-6.202 2.19 5.946 9.978-5.543 3.192-5.943-9.976ZM94.454 44.001l-6.385.002c0-2.404-.338-4.648-.93-6.564a56.21 56.21 0 0 0 4.717-1.088h.002A12.53 12.53 0 0 1 94.454 44ZM88.069 44.004h6.385c0 2.874-.966 5.527-2.598 7.654a56.108 56.108 0 0 0-4.716-1.09c.59-1.917.929-4.162.929-6.564Z" fill="#fff"/><path d="M81.632 31.319c4.176 0 7.886 1.974 10.225 5.033a56.7 56.7 0 0 1-4.716 1.088c-1.129-3.668-3.174-6.12-5.511-6.12l.002-.001ZM91.856 51.658a12.849 12.849 0 0 1-10.225 5.031c2.336 0 4.382-2.451 5.51-6.12 1.467.266 3.018.627 4.717 1.09l-.002-.001ZM88.07 44.004h-6.44V37.97c1.788-.003 3.578-.18 5.512-.53.59 1.916.929 4.162.929 6.564l-.002.001Z" fill="#fff"/><path d="M81.632 44.004h6.438c0 2.403-.338 4.648-.93 6.564-1.933-.35-3.722-.526-5.51-.53v-6.036l.002.002ZM81.63 31.319c2.337 0 4.383 2.451 5.512 6.12-1.934.349-3.724.526-5.511.53v-6.65Z" fill="#fff"/><path d="M87.14 50.568c-1.128 3.668-3.173 6.12-5.51 6.12v-6.65c1.788.002 3.577.18 5.51.53Z" fill="#fff"/><path d="M81.631 50.037v6.65c-2.337 0-4.387-2.457-5.514-6.134 1.936-.349 3.723-.52 5.514-.516Z" fill="#fff"/><path d="M81.63 44.004v6.035c-1.79-.004-3.578.167-5.513.516-.587-1.913-.925-4.154-.925-6.551h6.439ZM81.63 37.97v6.034h-6.438c0-2.397.338-4.638.925-6.55 1.935.348 3.723.52 5.514.515Z" fill="#fff"/><path d="M81.631 31.32v6.65c-1.79.002-3.578-.168-5.514-.517 1.11-3.619 3.11-6.054 5.403-6.131.036-.002.074-.002.111-.002Z" fill="#fff"/><path d="M81.52 31.32c-2.291.078-4.293 2.514-5.402 6.132-1.466-.26-3.017-.627-4.717-1.095a12.835 12.835 0 0 1 10.12-5.037ZM76.118 50.555c1.127 3.676 3.175 6.134 5.514 6.134-4.178 0-7.89-1.976-10.23-5.036a52.17 52.17 0 0 1 4.716-1.097v-.001Z" fill="#fff"/><path d="M76.117 37.453c-.587 1.913-.924 4.154-.924 6.55h-6.385c0-2.872.964-5.518 2.594-7.645 1.698.468 3.25.835 4.717 1.095h-.002ZM75.192 44.004c0 2.397.337 4.638.924 6.55a52.825 52.825 0 0 0-4.717 1.097 12.524 12.524 0 0 1-2.594-7.647h6.387Z" fill="#fff"/><path d="M55.787 47.354H52v36.609h24.784c.123 0 1.477.101 1.477 1.564 2.591.757 4.098.762 6.737 0 0-1.463 1.352-1.564 1.478-1.564h14.27M107.474 47.354h3.785v28.632" stroke="#6885A9" stroke-width="2" stroke-linecap="round" stroke-linejoin="round"/><path d="M66.537 44.001h-10.75v36.332h22.249c1.985 0 3.593.933 3.593 2.908 0-1.975 1.61-2.908 3.596-2.908h15.198M107.473 73.435V44.001H96.696M81.63 59.159v22.764" stroke="#6885A9" stroke-width="2" stroke-linejoin="round"/><path d="m106.266 85.913.008.011-4.978 4.249-.548-6.21-.324-3.628-1.096-12.388 8.146 5.488 3.785 2.551 6.757 4.554-6.202 2.19" stroke="#6885A9" stroke-width="2" stroke-linecap="round" stroke-linejoin="round"/><path d="m111.809 82.722.005.008 5.946 9.978-5.542 3.193-5.944-9.977M91.858 36.352a12.53 12.53 0 0 1 2.596 7.65c0 2.877-.966 5.529-2.598 7.656a12.849 12.849 0 0 1-10.225 5.031c-4.177 0-7.89-1.975-10.23-5.036a12.524 12.524 0 0 1-2.595-7.647c0-2.873.964-5.519 2.594-7.646a12.835 12.835 0 0 1 10.12-5.036" stroke="#6885A9" stroke-width="2" stroke-linecap="round" stroke-linejoin="round"/><path d="M81.63 31.319c4.176 0 7.887 1.974 10.226 5.033" stroke="#6885A9" stroke-width="2" stroke-linecap="round" stroke-linejoin="round"/><path d="M88.069 44.004c0 2.403-.338 4.648-.93 6.564-1.128 3.668-3.173 6.12-5.51 6.12-2.338 0-4.387-2.458-5.514-6.135-.587-1.913-.925-4.154-.925-6.55 0-2.397.338-4.638.925-6.551 1.109-3.619 3.11-6.054 5.403-6.131.035-.002.074-.002.11-.002 2.337 0 4.383 2.451 5.511 6.12.59 1.916.93 4.162.93 6.563v.002ZM68.806 44.004H94.454" stroke="#6885A9" stroke-width="2" stroke-linecap="round" stroke-linejoin="round"/><path d="M71.4 36.357c1.698.468 3.25.834 4.717 1.094 1.935.35 3.723.521 5.514.516 1.787-.003 3.577-.18 5.51-.53a56.21 56.21 0 0 0 4.717-1.088h.002M71.4 51.651c1.698-.47 3.25-.834 4.717-1.096 1.935-.35 3.723-.521 5.514-.516 1.787.003 3.577.18 5.51.53 1.467.265 3.018.627 4.717 1.09h.002M81.63 31.32V56.687M81.627 25.495V20M72.274 27.978l-2.78-4.761M65.428 34.75l-4.815-2.748M93.763 23.217l-2.778 4.761M102.645 32.002l-4.813 2.749" stroke="#6885A9" stroke-width="2" stroke-linecap="round" stroke-linejoin="round"/></g></svg>