<svg width="160" height="115" fill="none" xmlns="http://www.w3.org/2000/svg"><mask id="a" style="mask-type:alpha" maskUnits="userSpaceOnUse" x="0" y="0" width="160" height="115"><path fill="#D9D9D9" d="M0 0h160v115H0z"/></mask><g mask="url(#a)"><path opacity=".75" d="M120.16 28.931c.551.822.958 1.989.591 1.847-.419-.067-.517.752-.742 1.484-.224.731-.597-.079-.959.447-.362.527-.431 1.033-.902 1.041-.471.009-.489.44-.799.891-.362.526-.683-.36-1.465.1-.396.17-.414.602-.471 1.227-.121.581-.506.87-1.023.404-.517-.466-1.418-.643-2.365-1.295-.948-.651-7.309-5.47-9.118-6.493-1.808-1.023-5.368-2.475-6.23-2.846-.976-.339-10.864-3.818-17.491-5.275-6.627-1.457-17.878-2.55-23.036-2.22-5.157.33-17.099 1.864-22.82 3.688-5.773 1.9-10.495 3.084-14.574 6.038-4.13 3.03-10.44 8.549-11.802 10.935 0 0-.184-.68.897-2.927 1.081-2.248 5.225-8.813 8.432-12.257 2.936-3.187 10.928-8.989 18.919-11.136 7.99-2.148 15.509-4.287 24.279-4.457 8.77-.171 13.824-.35 22.622 1.603 8.85 1.878 9.964 2.423 10.676 2.47.712.047 1.016.145 1.522.493.505.347 1.08.189 1.625.342.494.23 7 2.268 12.839 5.952 5.902 3.728 10.018 7.889 11.395 9.944Z" fill="#FFCA42"/><path opacity=".75" d="M131.344 80.163s-8.352 1.456-12.987 1.701c-4.571.29-20.143 2.096-32.7-2.776-12.56-4.873-21.913-9.535-35.06-19.908C37.45 48.807 33.992 40.445 33.85 35.916c-.141-4.528 2.408-12.967 4.38-16.374 0 0-6.345 7.6-8.115 10.038-1.822 2.513-6.765 9.97-4.68 18.162 2.024 8.15 10.376 17.108 18.287 23.326 7.911 6.217 21.553 14.383 29.8 16.733 8.246 2.349 22.126 5.029 25.917 5.2 3.842.094 5.651-.101 5.284-.243-.368-.142-3.779-.052-4.491-.099-.713-.046-5.531-.48-7.208-.748-1.436-.212-2.906-.78-3.21-.879.43.186 3.67.752 4.864.909 1.246.082 3.079.124 3.435.147.356.023.626-.234.993-.092.368.142.494.229.787.209.345-.095 1.143.232 1.614.224.471-.009.752-.147.982-.21.23-.064.649.003.93-.136.345-.095.46-.127.827.015.316.217.799.327 1.08.189.282-.139.638-.116.764-.029.126.087.632.435.976.34.23-.064 4.928-.266 6.611-.549 1.746-.239 2.895-.556 3.24-.652.344-.095.614-.352.741-.265.241.055.471-.009.522-.084a.663.663 0 0 1 .627-.234c.241.055.867-.179 2.159-.84 1.356-.619 1.586-.682 3.976-2.804 2.339-2.047 6.005-5.618 6.402-7.007Zm-20.081 4.576c-.408.051-.764.028-1.172.08-2.699.137-9.344.33-13.663-.426-5.64-1-13.65-2.744-15.97-3.564-2.32-.82-2.573-.994-2.849-1.405-.275-.411-.252-.174-1.188-.707-.936-.533-2.194-.734-2.624-.92-.43-.185-4.697-2.233-9.084-4.918-4.45-2.729-10.833-7.785-10.833-7.785S64.512 72.63 69.83 75.18c5.38 2.593 7.458 3.358 8.435 3.697.976.34 7.447 3.24 15.212 4.261 7.052.974 12.554 1.768 16.551 1.637.879-.06 1.35-.068 1.235-.036Z" fill="#FFCA42"/><path opacity=".75" d="M149.129 89.073c.678-1.528 1.937-3.763 2.358-6.133.42-2.37.251-9.022-.833-12.315-1.083-3.294-4.36-9.757-7.413-14.516-3.168-4.727-5.625-6.972-6.87-8.272-1.246-1.3-2.756-2.892-3.485-3.726-.78-.758-5.597-4.847-7.273-6.333-1.613-1.442-4.311-3.741-5.879-4.709-1.504-.924-6.832-4.81-7.664-5.494-.833-.683-3.066-2.441-4.381-3.235-1.315-.793-3.91-2.025-5.277-2.744-1.366-.718-8.526-4.646-10.823-5.23-2.234-.54-3.107-1.029-4.17-1.649-.998-.576-2.411-.551-2.664-.725-.252-.174-5.857-2.035-7.557-2.54-1.7-.504-8.195-1.206-12.215-1.313-3.969-.182-8.3.162-11.194.719-2.895.556-4.934.815-9.11 3.37-4.063 2.524-6.315 4.851-8.637 7.685-2.322 2.835-5.04 5.84-6.828 8.708-1.787 2.87-2.794 5.28-2.903 5.98 0 0 10.494-12.28 24.41-14.116 13.855-1.88 31.702 3.418 51.953 14.69 20.251 11.273 35.289 31.477 37.502 37.32 0 0 .483.11-.338-1.673-.883-1.826-2.26-3.881-2.26-3.881s1.337 1.03 3.116 4.802c1.778 3.771 2.409 6.642 2.804 8.908.383 2.147.543 5.026-.389 7.598-.88 2.497-2.611 5.959-4.266 8.365-1.655 2.407-3.12 3.725-2.672 3.479.448-.245 4.372-2.974 7.486-6.15 3.052-3.218 4.793-5.343 5.472-6.87Zm-9.145-31.881c-1.411-2.412-2.898-3.767-3.489-4.395-.592-.628-.804-.996-1.447-1.549-.643-.553.333-.214-.321-.886-.654-.671-1.665-1.367-2.761-2.342-1.097-.976-1.745-2.198-3.198-3.197-1.389-.956-3.502-3.295-5.155-4.543-1.654-1.248-3.37-2.54-4.708-3.571-1.337-1.031-2.204-2.07-3.53-2.983-1.264-.869-2.865-2.192-1.447-1.549.735.284 3.187 1.86 4.387 2.685 1.136.782 3.571 2.79 4.466 3.516.896.727 11.384 9.825 12.739 11.643 1.354 1.819 6.124 7.87 7.863 10.616 1.675 2.704 2.438 5.112 2.438 5.112s-4.425-6.146-5.837-8.557Z" fill="#FFCA42"/><path opacity=".75" d="M149.457 88.19c.184-.538-8.739 5.4-12.099 6.633-3.36 1.233-14.716 2.727-20.109 2.451-5.393-.275-20.709-3.168-22.093-3.455-1.32-.244-1.86-.947-2.762-1.124-.901-.178.374-.408-.717-.716-1.091-.307-9.36-2.894-11.008-3.474-1.648-.58-7.643-2.82-9.797-3.747-2.153-.928-17.57-8.542-22.864-12.073-5.356-3.574-14.33-10.412-17.556-13.296-3.226-2.884-7.175-7.152-10.08-10.368-2.904-3.217-4.195-7.428-4.98-10.073-.837-2.57-.428-5.058.056-7.384.495-2.208 2.571-8.202 4.588-11.134 0 0-2.958 1.73-6.2 6.037-3.241 4.306-8.294 12.463-7.866 17.52.429 5.059 3.405 13.31 10.799 20.28 7.33 6.926 16.344 13.57 17.86 14.613 1.516 1.042 6.24 4.182 7.188 4.834.948.651 1.63 1.01 2.44 1.457.81.446 1.057-.049.678-.31-.379-.26-.304-.098-.924-.414-.62-.316-.976-.339-1.189-.707-.212-.367-.402-.497-.832-.683-.43-.186-.569-.391-1.074-.739-.505-.347-.379-.26-.999-.576-.62-.316-.499-.897-.499-.897s.546.153 1.05.5c.506.349 3.032 2.086 3.59 2.359a6.215 6.215 0 0 1 1.515 1.042c.39.38.947.652 1.326.913.38.26.678-.31 1.057-.049.379.26.086.28.591.629.505.347 1.292.556 1.734.86.442.304 1.591-.013 2.223.421.631.434 1.165.47 1.033.933-.132.462.109.517.264.292.155-.226.517-.752 1.011-.523.494.229 1 .576 1.671.817.672.24 2.205.852 2.647 1.156.442.304.666.79.666.79s-1.62-.892-2.354-1.176c-.735-.284-1.89-.635-1.384-.287l1.516 1.043c.378.26.401.498 1.01.695.609.197.953.102 1.637.46.683.36.964.221 1.596.656l1.137.782c.252.174.999.576 1.493.805.493.23.815-.103 1.309.126.494.228 1.924.99 2.417 1.22.494.228 1.344.48 1.89.634.545.154 1.458.45 2.015.722.557.272.212.368.907.846.695.478.677.909 2.113 1.12 1.436.213 1.298.007 2.073.098.776.09 2.12.571 2.98.942.862.371 1.333.363 1.712.623.379.261.632.435.775.091.144-.345.73-.385.712.046-.017.432.477.66.477.66.901.178 1.97.248 2.349.508.378.261.734.284 1.7.505.964.221.964.221 1.458.449.494.229 1-.641 1.671-.401.672.241 1.901.754 2.74.888.838.133 1.228.513 2.067.646.838.134.516.467-1.488-.137-2.004-.603-2.274-.346-1.654-.03.62.316 1.74.311 2.78.694 1.039.382 1.395.406 1.803.354.408-.052.362-.526 1.086-.361.723.165 2.096.334 2.819.5.724.165 1.838.71 2.55.756.712.047 1.51.375 2.159.378.649.003 1.539.062 1.287-.112-.253-.174-1.384-.287-2.286-.464-.901-.178-1.355-.6-1.355-.6s1.068.07 1.918.322c.85.252 1.246.082 1.97.247.724.166 1.361.051 1.172-.08-.19-.13-1.24-.631-.528-.585.712.047 1.499.256 2.515.401 1.017.146 2.573-.224 2.573-.224s-.132.463-.885.61c-.752.147-1.275.231-.488.44.787.209.316.217 1.321.244 1.005.026 2.492.163 3.854.214 1.361.05 1.55.18 2.188.065.637-.116.66.122.637-.116-.023-.237-.172-.561-.172-.561.954.102 1.453-.219 2.114-.097.66.122 2.246-.56 3.01-.588.764-.029 2.01.053 2.584-.106.575-.158 1.097-.242 1.965-.421.867-.179 2.734-.999 3.36-1.233.626-.234 1.471-.65 2.022-1.046.552-.396 2.356-1.26 4.487-3.006 2.815-1.387 9.515-7.746 10.327-10.954Zm-39.945 11.405c-3.814-.407-9.011-1.102-10.154-1.335-1.08-.188-4.996-1.664-7.029-1.955-1.98-.365-7-2.267-8.877-2.783-1.878-.517-12.576-4.442-15.74-6.064-3.164-1.623-12.15-6.142-13.729-7.228-1.515-1.043-2.6-1.9-3.22-2.216-.62-.316-1.66-.699-2.48-1.263-.822-.565-1.293-.557-1.924-.991l-1.895-1.304c-.695-.478-18.975-13.939-21.035-17.572-.35-.573 10.34 8.775 11.235 9.501.896.727 8.227 6.435 11 7.679 2.722 1.318 9.68 6.216 11.478 7.12 1.86.947 14.625 6.737 15.876 7.487 1.252.75 8.091 2.575 10.285 3.308 2.13.69 10.457 3.87 13.08 4.79 2.625.918 7.191 1.179 9.896 1.71 2.642.488 12.727 1.111 14.788 1.09.127.086-7.627.402-11.555.026Z" fill="#FFCA42"/><path d="M134.579 16.798A37.004 37.004 0 0 0 108.301 6a37.047 37.047 0 0 0-22.093 7.205 37.094 37.094 0 0 0-22.11-7.193 36.898 36.898 0 0 0-26.302 10.81C23.4 31.307 23.4 54.886 37.808 69.383l35.839 35.845c3.344 3.339 7.802 5.18 12.555 5.18 4.754 0 9.218-1.841 12.562-5.18l35.833-35.844A36.843 36.843 0 0 0 145.388 43.1a36.862 36.862 0 0 0-10.809-26.302Z" fill="#cbf1cc"/><path d="M116.928 68.97v4.732c0 1.72-1.41 3.114-3.144 3.114h-54.64c-1.737 0-3.144-1.395-3.144-3.114V68.97h25.112l.59 2.458h9.523l.59-2.458h25.115-.002ZM95.137 33.285c5.263 0 9.528 3.337 9.528 7.458 0 4.12-4.265 7.457-9.528 7.457-.633 0-1.25-.047-1.848-.137-.6-.091-1.177-.225-1.73-.4-2.133.892-3.882 2.076-6.35 2.027 0-.011 1.995-2.929 2.175-4.615-1.114-1.222-1.775-2.717-1.775-4.332 0-4.12 4.267-7.458 9.528-7.458Z" fill="#F99494"/><path d="M60.256 66.186V28.114c0-1.72 1.41-3.114 3.146-3.114h46.121c1.737 0 3.144 1.395 3.144 3.114v38.072" stroke="#75af7a" stroke-width="2" stroke-linejoin="round"/><path d="M91.815 68.97h25.115v4.732c0 1.72-1.41 3.114-3.145 3.114h-54.64c-1.738 0-3.145-1.395-3.145-3.114V68.97h25.115" stroke="#75af7a" stroke-width="2" stroke-linecap="round" stroke-linejoin="round"/><path d="M91.815 68.968v.002l-.59 2.458h-9.523l-.589-2.458v-.002" stroke="#75af7a" stroke-width="2" stroke-linecap="round" stroke-linejoin="round"/><path d="M68.887 62.946v-3.935c0-2.628 2.147-4.76 4.795-4.76h5.15c2.648 0 4.794 2.132 4.794 4.76v3.935" stroke="#75af7a" stroke-width="2" stroke-linejoin="round"/><path d="M76.255 51.108c2.551 0 4.619-2.057 4.619-4.595 0-2.539-2.068-4.596-4.619-4.596-2.55 0-4.618 2.057-4.618 4.596 0 2.538 2.067 4.596 4.618 4.596ZM95.137 33.285c-5.261 0-9.528 3.337-9.528 7.458 0 1.614.661 3.11 1.775 4.332-.18 1.686-2.175 4.604-2.175 4.615 2.47.049 4.218-1.133 6.35-2.027.553.175 1.13.309 1.73.4.6.09 1.216.137 1.848.137 5.263 0 9.528-3.34 9.528-7.457s-4.265-7.458-9.528-7.458Z" stroke="#75af7a" stroke-width="2" stroke-linecap="round" stroke-linejoin="round"/></g></svg>