<svg width="160" height="115" fill="none" xmlns="http://www.w3.org/2000/svg"><mask id="a" style="mask-type:alpha" maskUnits="userSpaceOnUse" x="0" y="0" width="160" height="115"><path fill="#D9D9D9" d="M0 0h160v115H0z"/></mask><g mask="url(#a)"><path opacity=".75" d="M138.284 78.29c1.729-1.128 1.96-1.488 3.567-2.897 1.49-1.383 3.11-1.869 4.315-1.707 1.205.162 2.04.9 2.666 1.81.625.909.537 1.36.739 2.302.202.943.978 2.558 1.083 3.337.152.706.802 1.733 1.029 2.793.227 1.06.626 2.637-.356 3.227-.982.59-1.381.741-2.33.337-.995-.333-2.199-.495-3.043-.121-.843.374-3.714.77-4.369 1.164-.655.393-2.741 1.293-3.753 1.457-1.011.165-2.203.926-3.261 1.163-1.057.237-5.284 1.492-6.413 1.683-1.129.192-3.904.751-4.726.936-.848.066-3.572.861-4.185.875-.613.014-2.447.363-3.224.475-.659.086-2.115.474-3.341.502-1.225.028-4 .587-4.827.464-.827-.123-2.355.219-2.829.017-.474-.203-1.49-.345-2.153-.567-.617-.294-1.554-1.503-2.511-2.523-1.028-1.066-2.116-2.982-2.834-3.747-.671-.836-.898-1.896-.315-2.336.584-.439 1.814-.159 2.38-.1.567.057 3.988.217 4.743.294.756.078 7.186-.375 9.256-.777 2.069-.402 3.026-1.11 3.433-.645.382.346.781.195 1.318-.172.583-.44 1.242-.525 2.019-.638.705-.158 5.381-1.328 6.342-1.729.89-.446 3.425-1.26 4.457-1.615 1.033-.355.768-.728 1.642-.676.873.05 1.401-.931 2.203-.926.68-.276 2.367-1.024 3.278-1.66Z" fill="#FFCA42"/><path opacity=".75" d="M73.49 66.148c-.016.497.563 1.478 1.52 2.498.244.562.487 1.125.68 1.452.366.844 2.57 3.374 3.12 3.93.407.463.693.646.974.522.663.221 1.372.371 2.296.658 1.398.489 4.034.145 6.787-.225 2.825-.324 18.099-4.054 20.189-4.645 2.09-.592 4.68-.863 3.984-.09-.743.845-4.869 4.299-7.131 6.102-.793.61-4.188 4.023-4.885 4.796-.768.728-3.378 4.644-3.718 5.646-.34 1.002-.168 1.519.315 2.336.483.818 1.18 1.772 1.612 2.354.433.582 1.923 2.655 2.569 3.374.576.674 2.057.403 2.431.135 0 0 .806-1.415 1.498-2.496.646-1.008 3.03-4.258 3.445-4.906.416-.648 1.662-2.594 2.619-3.302.957-.708 4.755-3.965 6.065-4.752 1.355-.86 5.812-4.202 7.147-4.872 1.381-.74 6.707-4.34 7.664-5.048.957-.709.877-1.37.91-2.364-.012-.923-.995-2.06-1.482-3.186-.487-1.125-1.864-3.531-2.254-4.493 0 0-.488-1.125-1.65-1.667-1.163-.541-1.02-.45-3.577-1.173-2.556-.723-3.576.554-5.675.53-2.098-.023-7.051 1.58-9.141 2.172-2.091.591-13.88 3.91-16.328 4.274-.659.086-1.788.277-3.152.52.886-.753 1.654-1.48 2.166-1.965 1.628-1.6 4.075-3.69 5.002-4.823.903-1.251 1.654-3.21 1.217-4.099-.508-.935-1.784-2.87-2.347-4.349-.563-1.478-1.96-3.695-2.889-4.29-.927-.594-1.242.526-1.75 1.318-.508.793-1.905 2.031-2.954 2.883-.978.898-2.413 2.824-3.698 3.729-1.213.95-4.675 4.626-5.095 4.967-.42.34-4.901 5.294-5.875 6.5-.256.242-.37.576-.437.838-.424.033-.226.668-.171 1.21Z" fill="#FFCA42"/><path opacity=".75" d="M98.709 53.34c-.794-1.118-1.877-4.454-2.91-5.827-1.079-1.301-1.868-3.84-5.822-3.324-3.954.515-9.927 3.396-14.703 4.095-4.73.628-10.498 1.303-14.074 1.857 0 0 2.627-2.687 4.247-4.9 1.62-2.215 1.649-5.245.536-7.279-1.112-2.034-2.44-4.205-3.732-5.643-1.222-1.393-3.967-2.135-5.994-2.113-1.956.068-4.962.988-6.494 1.022-1.578.107-9.612 2.277-10.12 1.341-.508-.935-1.407-4.56-2.255-6.22-.848-1.662-2.905-5.52-4.446-6.101-1.54-.58-4.038-.453-5.473-.255-1.436.198-3.568 1.17-4.646 1.596-1.15.381-1.57.722-4.68.863-3.11.142-2.64.036-4.546.34-1.906.303-1.763.395-1.641.676.168.21.121.281.1.471-.02.19-.113.334-.302.314-.235.053-.587.132-.965.093-.378-.038-1.133-.116-.92.021.215.137.332.11.311.3-.02.19-.113.335-.373.27-.26-.066-.638-.104-.634.203.004.308.105.779.105.779s-.164.098.097.163c.306-.006.73-.04.873.052.142.091-.088.451-.206.478-.117.026-.776.112-1.226.027-.495-.012-.47.106-.847.067-.378-.039-.706.158-.374.269.332.11.898.169 1.276.207.306-.006.684.032.802.006.189.02.306-.007.331.11.026.119-.134.525-.134.525s-.21.17-.445.223c-.235.052-.378-.04-.566-.058-.235.052-.185.288-.089.451.026.118.433.582.55.556.19.02.873.051 1.016.142.143.092 8.639.657 9.864.63 1.108-.002 5.398-.099 6.154-.021.755.077 1.654.246 1.566.698-.089.452 1.36 4.632 2.061 5.894.748 1.19 2.591 4.912 3.666 5.905 1.192.967 3.358 2.457 5.335 2.2 1.977-.258 13.927-2.256 13.927-2.256s-4.054 5.227-4.423 5.803c-.37.577-.504 1.1-.256 1.97.248.87 3.85 7.346 4.354 7.973.503.628 2.745 2.47 3.383 2.575.638.103 6.616.986 9.277.76 2.66-.226 8.755-1.097 9.956-1.243 1.272-.1 7.375-.356 8.672-.338 1.25.09 10.54-3.41 12.331-3.379 1.839-.041 2.897-.278 2.934-.966-.008-.615-.428-2.002-.428-2.002Z" fill="#FFCA42"/><ellipse cx="86.999" cy="57.469" rx="56" ry="55.5" fill="#DFEBFB"/><path d="M118.448 76.104v4.926c0 1.789-1.466 3.239-3.277 3.239H58.274c-1.809 0-3.275-1.452-3.275-3.24v-4.925h26.152l.818 2.558h9.507l.82-2.558h26.152ZM70.732 52.148c-.028-.382.183-.778.633-.969l15.767-5.308c.297-.127.643-.127.939 0l15.767 5.308c.847.358.847 1.444 0 1.804l-6.747 2.715-9.02 3.63a1.204 1.204 0 0 1-.939 0l-9.02-3.63-6.747-2.715c-.397-.167-.607-.497-.633-.835Z" fill="#B6ABDE"/><path d="M97.091 64.223v.006c-3.543 0-6.772.881-9.49 3.299-2.716-2.418-5.944-3.305-9.489-3.305V55.7l9.02 3.63c.298.126.643.126.94 0l9.02-3.63v8.523ZM72.463 59.583c.098.198-.104.409-.395.409H69.39c-.29 0-.492-.21-.394-.409l1.574-3.197a.177.177 0 0 1 .16-.093c.065 0 .126.03.158.093l1.574 3.197h.001Z" fill="#B6ABDE"/><path d="M59.433 73.69V34.208c0-1.788 1.466-3.24 3.276-3.24h48.027c1.809 0 3.275 1.452 3.275 3.24V73.69" stroke="#6885A9" stroke-width="2" stroke-linejoin="round"/><path d="M63.492 73.69V35.055h46.462V73.69" stroke="#6885A9" stroke-width="2" stroke-linejoin="round"/><path d="M92.293 76.104h26.153v4.926c0 1.789-1.466 3.239-3.276 3.239H58.274c-1.809 0-3.275-1.452-3.275-3.24v-4.925h26.152" stroke="#6885A9" stroke-width="2" stroke-linecap="round" stroke-linejoin="round"/><path d="M92.296 76.1v.004l-.82 2.558h-9.507l-.819-2.558v-.003M97.091 55.698v8.53c-3.543 0-6.772.88-9.49 3.298-2.716-2.418-5.944-3.305-9.489-3.305v-8.523" stroke="#6885A9" stroke-width="2" stroke-linecap="round" stroke-linejoin="round"/><path d="m97.091 55.698-9.02 3.63a1.204 1.204 0 0 1-.939 0l-9.02-3.63-6.747-2.715c-.397-.167-.607-.497-.633-.835-.028-.382.183-.778.633-.969l15.767-5.308c.297-.127.643-.127.939 0l15.767 5.308c.847.358.847 1.444 0 1.804l-6.747 2.715ZM70.732 56.291v-4.21M68.997 59.583l1.574-3.197a.177.177 0 0 1 .16-.093c.065 0 .126.03.158.093l1.574 3.197c.098.198-.104.409-.395.409H69.39c-.29 0-.492-.21-.394-.409h.001Z" stroke="#6885A9" stroke-width="2" stroke-linecap="round" stroke-linejoin="round"/></g></svg>