<svg width="29" height="30" viewBox="0 0 29 30" fill="none" xmlns="http://www.w3.org/2000/svg">
<circle cx="14.5" cy="15.4888" r="14.5" fill="#E8E4FC"/>
<path d="M20.8079 11.1686C20.5512 10.9292 20.1347 10.9288 19.878 11.1676L11.9881 18.4933L9.1415 15.615C8.89553 15.3664 8.47965 15.3503 8.21221 15.5793C7.94497 15.8083 7.92786 16.1956 8.17383 16.4444L11.4841 19.7912C11.5441 19.8519 11.6166 19.9007 11.6974 19.9346C11.7781 19.9685 11.8654 19.9869 11.9539 19.9886C11.9587 19.9888 11.9634 19.9888 11.968 19.9888C12.142 19.9887 12.3089 19.9245 12.4323 19.8102L20.8067 12.0345C21.064 11.7958 21.0645 11.408 20.8079 11.1686Z" fill="#ACA3D9"/>
</svg>
