<svg width="29" height="29" viewBox="0 0 29 29" fill="none" xmlns="http://www.w3.org/2000/svg">
<circle cx="14.5" cy="14.5" r="14.5" fill="#C7E0FF"/>
<path d="M20.8079 10.1798C20.5512 9.94043 20.1347 9.94002 19.878 10.1788L11.9881 17.5045L9.1415 14.6262C8.89553 14.3777 8.47965 14.3616 8.21221 14.5905C7.94497 14.8195 7.92786 15.2069 8.17383 15.4556L11.4841 18.8025C11.5441 18.8631 11.6166 18.9119 11.6974 18.9458C11.7781 18.9797 11.8654 18.9981 11.9539 18.9998C11.9587 19 11.9634 19 11.968 19C12.142 18.9999 12.3089 18.9357 12.4323 18.8214L20.8067 11.0457C21.064 10.807 21.0645 10.4192 20.8079 10.1798Z" fill="#4B678A"/>
</svg>
