<svg width="38" height="53" viewBox="0 0 38 53" fill="none" xmlns="http://www.w3.org/2000/svg">
<path opacity="0.75" d="M9.44031 30.4975C9.2306 29.8615 8.97736 28.3755 8.76825 27.3733C8.55914 26.371 7.80707 25.7099 7.59616 25.8063C7.40944 25.9097 6.01532 27.0267 5.89778 27.0715C5.78025 27.1162 5.72103 27.4132 5.83464 27.6552C5.95521 27.8731 6.23381 28.6336 6.28548 28.727C6.3302 28.8445 8.56775 33.8058 9.3981 35.196C10.2284 36.5862 11.6683 39.2246 12.4231 40.3314C13.1779 41.4381 15.3876 44.4025 16.2563 45.5682C17.1492 46.7409 18.4941 48.2528 19.3806 49.0834C20.2672 49.914 20.6709 50.2394 20.9643 50.4023C21.2577 50.5651 21.4716 50.7313 21.6199 50.8525C21.7683 50.9736 21.7855 51.0048 22.065 51.216C22.3445 51.4272 22.4687 51.5414 22.6343 51.6936C22.7999 51.8459 23.1866 51.9571 23.5909 51.9163C24.0021 51.8513 24.666 51.5449 24.8424 51.3863C25.043 51.2346 25.1923 50.8065 24.937 50.6022C24.6817 50.398 24.0982 50.1517 23.6114 49.9333C23.1246 49.7148 21.2334 48.4646 20.8023 48.0527C20.3641 47.6651 18.805 46.17 17.5123 44.3853C16.268 42.6144 15.1026 41.2063 13.9172 39.3215C12.756 37.4437 12.0526 36.6134 11.2403 34.705C10.4039 32.7896 9.68779 31.2753 9.44031 30.4975Z" fill="#FBB116"/>
<path opacity="0.75" d="M22.4414 44.8079C22.4441 45.2536 22.2166 47.0463 22.1601 47.789C22.1036 48.5317 22.2112 50.3422 22.3935 50.8918C22.5826 51.4172 22.8929 51.7943 23.2625 51.8744C23.632 51.9544 23.8224 51.7474 24.0608 51.7375C24.2992 51.7275 24.5309 51.5586 24.4934 51.2338C24.456 50.909 24.4399 50.1454 24.3611 49.7825C24.2752 49.4438 24.2782 47.6128 24.1824 47.0356C24.0936 46.4344 24.2492 44.2546 24.2328 43.6742C24.2407 43.1007 24.4515 40.9107 24.4566 39.8915C24.4376 38.8654 24.8137 34.9171 24.9502 33.8049C25.0868 32.6927 25.5122 30.3026 25.624 29.5497C25.753 28.8278 26.0696 27.4533 26.243 27.0321C26.3923 26.604 26.531 26.3036 26.6452 26.1794C26.7594 26.0552 26.9186 25.8655 26.9192 25.4993C26.9198 25.1331 27.128 24.591 27.1594 24.3907C27.1908 24.1903 27.0603 23.7341 26.8047 23.7129C26.5249 23.6848 26.1762 23.5323 25.9308 23.5664C25.6855 23.6006 25.1362 23.5997 24.9978 23.7169C24.8594 23.8341 24.6588 23.9858 24.6307 24.2656C24.6026 24.5454 24.5775 25.0878 24.4144 25.5643C24.2442 26.065 23.9382 27.3117 23.8859 27.5845C23.8578 27.8643 23.8059 27.954 23.7814 28.1302C23.7569 28.3063 23.9403 28.1235 23.9331 28.3308C23.9017 28.5311 24.0053 28.5348 23.8944 28.7384C23.7594 28.9351 23.6796 29.1216 23.7796 29.2288C23.8796 29.3361 23.9416 29.4847 23.8446 29.6401C23.7234 29.7884 23.6439 29.7917 23.6989 29.9646C23.7539 30.1374 23.8678 30.1963 23.7295 30.3136C23.5911 30.4308 23.5802 30.7417 23.5657 31.1563C23.5512 31.5708 23.1198 35.5293 23.0633 36.272C23.0069 37.0147 22.8601 40.1653 22.7377 41.0461C22.5498 41.8818 22.4414 44.8079 22.4414 44.8079Z" fill="#FBB116"/>
<path opacity="0.75" d="M15.4453 4.32603C15.6199 3.17241 15.8773 2.09492 15.971 1.86015C16.0647 1.62537 16.1411 1.35947 15.955 1.0966C15.793 0.84068 15.6033 0.68145 15.1887 0.666954C14.7741 0.652458 13.8586 0.650969 13.4163 0.733166C12.9739 0.815359 12.5793 1.27766 12.492 1.85447C12.4289 2.43824 12.3035 3.05645 12.3089 3.9478C12.3144 4.83916 12.3643 6.03115 12.3223 6.35929C12.2803 6.68743 12.1452 6.88414 12.2972 6.90166C12.425 6.91223 12.525 7.0195 12.5006 7.19565C12.4761 7.37181 12.4625 9.33067 12.51 9.89389C12.5886 10.4399 12.5176 11.5971 12.5094 12.3537C12.5255 13.1173 12.5618 14.1745 12.589 14.444C12.6161 14.7135 12.6295 15.0314 12.6917 14.997C12.7539 14.9625 12.7237 14.4304 12.6899 14.002C12.6491 13.5977 12.6261 12.8583 12.6403 12.6269C12.6786 12.4024 12.6614 12.3712 12.6687 12.164C12.6759 11.9567 12.6312 11.8391 12.7487 11.7944C12.8663 11.7497 12.8548 12.4268 12.8787 12.6169C12.8956 12.8311 12.8563 13.6049 12.8799 13.9781C12.8793 14.3443 12.8715 14.9178 12.8884 15.132C12.9053 15.3462 13.0431 15.5952 13.0359 15.8025C13.0217 16.0339 13.0628 16.2551 13.0833 16.3657C13.1039 16.4763 13.2912 18.1004 13.3357 18.401C13.387 18.6775 13.5789 19.6486 13.5925 19.7834C13.6061 19.9181 13.8168 22.0985 13.8476 22.2643C13.8715 22.4544 14.1767 23.8506 14.1972 23.9612C14.235 24.1029 14.2583 24.6592 14.2891 24.8251C14.3199 24.991 14.5051 25.8031 14.5462 26.0243C14.5873 26.2455 14.594 26.4044 14.6248 26.5703C14.6556 26.7362 14.7937 26.8021 14.7559 26.6604C14.7182 26.5186 14.7807 26.3011 14.8013 26.4117C14.846 26.5292 14.901 26.702 14.8904 26.8299C14.8798 26.9577 14.8348 27.0232 14.8554 27.1338C14.8759 27.2444 14.9898 27.3033 14.9895 27.4864C14.9892 27.6695 14.9475 27.8146 14.9611 27.9493C14.9747 28.0841 15.5307 30.3376 15.7782 31.1153C16.1327 31.9761 17.7378 37.0435 18.2464 38.7337C18.7549 40.424 20.6538 45.4711 21.1424 46.6846C21.6068 47.8911 22.4054 49.6647 22.5052 49.9551C22.629 50.2524 22.6287 50.4355 22.8738 50.5844C23.1188 50.7334 23.6165 50.6409 23.8238 50.6482C24.031 50.6554 24.4628 50.701 24.4356 50.4315C24.4084 50.162 24.1093 49.2909 24.0198 49.0558C23.9304 48.8207 22.0234 44.5302 21.8101 43.9978C21.5968 43.4654 19.9013 38.7123 19.3135 36.8422C18.7258 34.9722 17.5385 29.9988 17.2267 28.4436C16.9148 26.8884 15.8744 20.8581 15.8031 20.1048C15.7076 19.3446 15.4163 17.9 15.3356 16.5421C15.2307 15.1773 15.1328 13.7883 15.0454 12.2715C14.9753 10.7858 15.0955 9.09313 15.107 8.416C15.0873 7.75609 15.2637 5.50384 15.4453 4.32603Z" fill="#FBB116"/>
</svg>
