<svg width="218" height="185" viewBox="0 0 218 185" fill="none" xmlns="http://www.w3.org/2000/svg">
<path d="M32.5 88C32.5 87.6 33.8333 87.1667 34.5 87C34.7289 86.9385 34.5954 87.641 34.5 88C35.1667 94 36.6 106.4 37 108C37.4 109.6 36.8333 109.667 36.5 109.5H35C34.6 109.5 34.5 109.167 34.5 109C33.8333 102.167 32.5 88.4 32.5 88Z" fill="#F98585"/>
<path d="M191.5 139C191.028 144.58 189.5 141 187 142C184.5 143 181.2 144.8 180 144C178.81 143.206 180.309 129.718 180.496 128.038L180.5 128C180.5 125.5 182.7 86.7 183.5 77.5C184.5 66 180.5 37 180 34.5C179.5 32 172 21.5 176.5 24.5C181 27.5 187 39.5 190 53C193 66.5 194.5 103.5 191.5 139Z" fill="#F8ECC1"/>
<path d="M77.4166 154.776C93.4793 162.403 114.316 161.878 131.674 162.524C143.245 162.967 154.857 163.169 166.429 163.452C174.642 163.653 178.405 163.25 185.85 160.102C190.179 158.246 194.468 156.35 198.757 154.373C201.346 153.202 205.635 152.032 207.537 149.853C209.641 147.432 209.56 142.751 209.802 139.765C211.138 123.624 209.964 107.12 208.993 90.9797C207.415 65.1545 207.132 32.5502 181.238 18.5078C145.349 -0.982199 102.3 17.2972 87.9767 54.542C81.0984 72.4582 79.8846 93.8044 77.6189 112.729C76.486 122.333 75.3531 131.977 75.1508 141.662C75.0699 145.414 74.3416 151.346 77.012 154.494C78.509 156.269 81.058 153.727 79.5609 151.951C77.5379 149.571 78.7113 142.186 78.8327 139.321C79.1563 131.533 79.9656 123.745 80.8152 115.998C82.6359 100.059 84.9422 84.1199 88.0171 68.3423C95.745 28.5957 135.356 3.17404 174.278 19.1937C201.629 30.4519 203.248 59.9088 204.988 85.4515C205.918 99.4133 206.647 113.456 206.566 127.458C206.525 132.825 206.687 138.514 205.675 143.841C204.543 149.813 198.109 150.7 192.89 153.041C185.769 156.229 179.215 160.143 171.365 159.941C160.4 159.659 149.395 159.497 138.431 159.134C119.778 158.569 96.5138 159.82 79.1968 151.629C77.1333 150.66 75.3126 153.767 77.4166 154.776Z" fill="#727E99"/>
<path d="M158.135 14.5532C181.925 25.2868 181.197 50.7489 179.983 73.3459C178.405 102.319 175.452 131.291 173.105 160.223C172.903 162.524 176.504 162.524 176.706 160.223C179.376 127.054 184.272 93.1587 183.908 59.8684C183.706 39.2889 180.509 20.7674 159.915 11.4461C157.852 10.518 156.031 13.5848 158.135 14.5532Z" fill="#727E99"/>
<path d="M168 24.5C180.4 34.1 179.167 72.1667 177 90C175 104.167 170.9 134.8 170.5 144C170 155.5 166.5 157 154.5 158C142.5 159 97.5 155 87 153C78.6001 151.4 77.5001 146.333 78 144C77.3334 132.333 78.2 100.9 87 68.5C95.8 36.1 116 23.6667 125 21.5C134.167 18.5 155.6 14.9 168 24.5Z" fill="#F8ECC1"/>
<path d="M177.879 150.257C188.318 147.593 198.109 143.558 207.415 138.151C209.398 136.981 207.618 133.874 205.594 135.044C196.572 140.29 187.064 144.204 176.949 146.786C174.683 147.351 175.654 150.822 177.879 150.257Z" fill="#727E99"/>
<path d="M167.926 18.1446C170.92 20.6867 174.197 22.6236 177.313 24.964C183.422 29.6045 186.214 35.8187 188.196 43.0013C191.231 54.0981 192.849 65.5984 193.618 77.0583C195.075 98.8483 193.416 120.719 191.555 142.469C191.352 144.769 194.953 144.769 195.156 142.469C197.3 117.451 199.202 92.1499 196.329 67.0914C195.115 56.3981 193.456 45.14 189.451 35.0923C185.567 25.3675 178.122 22.0587 170.515 15.6024C168.695 14.1094 166.146 16.6112 167.926 18.1446Z" fill="#727E99"/>
<path d="M145.39 12.213C149.476 2.16536 173.429 7.93568 174.036 18.064C174.157 20.3641 177.798 20.3641 177.637 18.064C177.111 9.46905 169.625 5.71633 161.898 4.58648C154.21 3.45662 145.268 2.9724 141.91 11.2849C141.06 13.3832 144.54 14.3113 145.39 12.213Z" fill="#727E99"/>
<path d="M149.112 8.09701C154.777 4.18288 161.574 2.52846 168.371 4.22323C171.891 5.07062 176.544 7.04787 178.446 10.3567C180.105 13.2217 179.943 17.0148 180.226 20.2026C180.428 22.5026 184.029 22.5026 183.827 20.2026C183.018 11.6076 181.764 5.63555 173.065 2.00388C164.527 -1.58744 154.817 -0.215471 147.332 5.03027C145.43 6.32153 147.21 9.42863 149.112 8.09701Z" fill="#727E99"/>
<path d="M160.563 4.58642C157.528 5.3531 154.777 7.00753 152.713 9.34794C151.176 11.0831 153.725 13.6252 155.262 11.8901C156.962 9.95322 159.025 8.66196 161.534 8.05668C163.759 7.49175 162.788 4.02149 160.563 4.58642Z" fill="#727E99"/>
<path d="M190.543 27.3449C201.67 29.4028 206.97 44.2927 210.571 53.614C214.051 62.6124 216.519 72.0144 218.259 81.4971C220.079 91.4237 221.131 101.512 221.698 111.6C222.224 121.042 225.784 147.715 209.236 142.549C207.011 141.864 206.08 145.334 208.265 146.02C216.236 148.522 223.964 144.244 225.541 135.972C226.836 129.314 225.744 121.486 225.42 114.707C225.015 106.475 224.328 98.2835 223.235 90.1324C221.253 75.8479 217.935 61.765 212.311 48.4489C208.224 38.7645 203.046 26.0536 191.474 23.915C189.249 23.4711 188.278 26.9414 190.543 27.3449Z" fill="#727E99"/>
<path d="M201.306 54.0577C205.271 67.7774 208.629 81.6584 210.976 95.7412C212.635 105.708 218.582 129.637 208.144 137.223C206.282 138.555 208.103 141.702 209.964 140.33C219.553 133.349 217.611 118.015 216.357 107.766C214.051 89.2446 209.964 71.0459 204.785 53.1296C204.138 50.9103 200.699 51.8384 201.306 54.0577Z" fill="#727E99"/>
<path d="M161.453 60.1509C144.338 59.3439 127.223 58.7789 110.109 57.9719C110.675 58.7386 111.282 59.5053 111.848 60.2316C113.993 45.2611 120.709 32.066 137.338 31.1783C146.725 30.694 154.332 33.1151 157.123 42.6785C158.904 48.8524 159.51 55.5104 159.672 61.9264C159.713 64.2264 163.314 64.2264 163.273 61.9264C163.111 53.8157 162.666 42.961 158.499 35.7784C154.696 29.2817 146.523 27.5869 139.483 27.5062C120.102 27.3045 110.918 41.3469 108.409 59.2228C108.247 60.393 108.854 61.4422 110.149 61.4825C127.264 62.2895 144.378 62.8545 161.493 63.6615C163.759 63.8229 163.759 60.2316 161.453 60.1509Z" fill="#727E99"/>
<path d="M95.664 74.0723C120.345 75.6864 145.268 78.7531 169.989 79.0356C172.296 79.0759 172.296 75.4846 169.989 75.4443C145.268 75.1618 120.345 72.1354 95.664 70.481C93.3578 70.3196 93.3578 73.9109 95.664 74.0723Z" fill="#727E99"/>
<path d="M102.34 93.2797C122.489 94.1271 142.639 95.4184 162.747 97.0728C165.054 97.2746 165.054 93.6833 162.747 93.4815C142.639 91.8271 122.489 90.5762 102.34 89.6884C100.034 89.5674 100.034 93.1587 102.34 93.2797Z" fill="#727E99"/>
<path d="M161.857 108.452C161.493 114.465 161.007 120.477 160.279 126.449C159.632 132.098 160.643 140.976 154.291 142.267C148.788 143.357 141.587 142.186 135.963 142.106C129.287 141.985 122.611 141.863 115.975 141.621C110.068 141.42 97.3635 142.549 94.774 135.69C93.9244 133.47 95.7046 128.184 95.9879 125.925C96.5138 122.131 97.0803 118.338 97.7276 114.545C98.1322 112.165 97.5658 108.008 98.4155 107.645C99.5079 107.201 101.855 107.766 103.028 107.847C123.218 108.654 143.448 109.461 163.637 110.268C165.944 110.349 165.944 106.757 163.637 106.677C141.587 105.789 119.495 104.942 97.4444 104.054C96.7161 104.013 95.826 104.619 95.7046 105.385C94.3694 112.689 93.1556 120.033 92.1846 127.377C91.6991 131.009 89.4738 137.384 92.225 140.653C97.9704 147.513 118.241 145.293 125.969 145.495C133.737 145.697 141.546 145.778 149.314 145.858C152.592 145.899 157.649 147.029 160.401 144.446C162.869 142.186 162.666 135.609 163.111 132.583C164.244 124.593 164.932 116.523 165.458 108.492C165.62 106.152 162.019 106.152 161.857 108.452Z" fill="#727E99"/>
<path d="M92.3868 136.739C102.34 140.249 113.022 139.039 123.42 138.797C135.275 138.555 147.13 138.272 158.984 138.03C161.291 137.99 161.291 134.398 158.984 134.439C148.262 134.681 137.54 134.883 126.819 135.125C115.854 135.367 103.878 136.941 93.3579 133.269C91.173 132.502 90.2425 135.972 92.3868 136.739Z" fill="#727E99"/>
<path d="M177.272 132.542C180.024 137.102 183.179 141.379 186.74 145.334C187.792 146.464 189.451 144.769 188.439 143.639C185 139.846 181.966 135.73 179.336 131.332C178.567 130 176.504 131.211 177.272 132.542Z" fill="#727E99"/>
<path d="M179.66 125.319C182.897 130.363 186.619 135.044 190.786 139.362C191.879 140.492 193.578 138.797 192.486 137.667C188.44 133.511 184.879 128.991 181.723 124.109C180.873 122.817 178.81 123.988 179.66 125.319Z" fill="#727E99"/>
<path d="M181.844 115.796C184.596 121.567 188.358 126.732 192.971 131.17C194.104 132.219 195.803 130.565 194.67 129.476C190.179 125.158 186.578 120.195 183.908 114.586C183.26 113.214 181.197 114.424 181.844 115.796Z" fill="#727E99"/>
<path d="M181.197 103.61C185.405 109.461 189.977 114.989 194.913 120.235C195.965 121.365 197.664 119.67 196.612 118.54C191.798 113.456 187.347 108.089 183.301 102.399C182.37 101.148 180.307 102.359 181.197 103.61Z" fill="#727E99"/>
<path d="M53.5091 178.846L51.39 177.786C35.8494 170.899 4.55634 157.018 3.70867 156.594C2.64909 156.065 2.1193 156.065 3.17888 154.475C4.02655 153.204 5.65125 153.945 6.35763 154.475C21.0152 160.656 50.7542 173.23 52.4496 174.078C54.5687 175.137 54.5687 175.667 54.5687 177.256C54.5687 178.528 53.8623 178.846 53.5091 178.846Z" fill="#B499FF"/>
<path d="M42.4636 115.815C48.2122 116.053 53.9609 115.498 59.5777 114.175C59.9205 114.096 59.7623 113.566 59.4458 113.646C53.8818 114.942 48.1859 115.471 42.49 115.26C42.0944 115.26 42.0944 115.789 42.4636 115.815Z" fill="#727E99"/>
<path d="M42.437 162.799C48.1066 162.773 53.697 161.318 58.6809 158.619C58.9973 158.46 58.7073 157.984 58.4172 158.143C53.5124 160.815 48.0275 162.217 42.437 162.244C42.0942 162.27 42.0942 162.799 42.437 162.799Z" fill="#727E99"/>
<path d="M18.1769 114.043C18.4143 119.466 18.467 124.889 18.3088 130.312C18.3088 130.603 18.7834 130.683 18.8362 130.392C18.8626 130.312 18.8626 130.233 18.8889 130.154C18.968 129.81 18.4406 129.677 18.3615 130.021C18.3352 130.101 18.3352 130.18 18.3088 130.259C18.4934 130.286 18.6516 130.312 18.8362 130.339C18.9944 124.916 18.9417 119.492 18.7043 114.069C18.7043 113.699 18.1506 113.699 18.1769 114.043Z" fill="#727E99"/>
<path d="M18.203 114.122C21.0246 115.365 24.0308 116.053 27.1161 116.186C27.4589 116.212 27.4589 115.656 27.1161 115.63C24.1363 115.498 21.2092 114.836 18.4931 113.646C18.1503 113.514 17.8866 113.963 18.203 114.122Z" fill="#727E99"/>
<path d="M19.2316 146.371C19.5217 150.551 19.8118 154.704 20.0755 158.884C20.1018 159.228 20.6292 159.228 20.6292 158.884C20.3392 154.704 20.0491 150.551 19.7854 146.371C19.759 146.027 19.2053 146.027 19.2316 146.371Z" fill="#727E99"/>
<path d="M20.1548 152.402C22.2381 149.81 24.3213 147.244 26.4309 144.651C26.6418 144.387 26.2726 143.99 26.0353 144.254C23.9521 146.847 21.8689 149.413 19.7593 152.006C19.5483 152.297 19.9175 152.693 20.1548 152.402Z" fill="#727E99"/>
<path d="M20.5501 156.688C24.7165 151.82 29.173 147.191 33.8933 142.852C34.157 142.614 33.7614 142.244 33.4977 142.455C28.7775 146.794 24.321 151.423 20.1545 156.291C19.9436 156.556 20.3128 156.952 20.5501 156.688Z" fill="#727E99"/>
<path d="M59.3666 122.667C59.4985 127.296 59.2875 131.926 58.7074 136.529C58.6547 136.873 59.2084 136.873 59.2612 136.529C59.8413 131.926 60.0523 127.296 59.9204 122.667C59.894 122.323 59.3666 122.323 59.3666 122.667Z" fill="#727E99"/>
<path d="M58.5756 142.296C58.5756 142.164 58.5756 142.005 58.602 141.873C58.4174 141.873 58.2328 141.873 58.0482 141.873C58.1273 145.339 57.8372 148.804 57.1516 152.217C57.0725 152.561 57.5999 152.693 57.679 152.349C58.3646 148.884 58.6811 145.392 58.602 141.873C58.602 141.529 58.0746 141.529 58.0482 141.873C58.0482 142.005 58.0482 142.164 58.0218 142.296C58.0218 142.64 58.5492 142.64 58.5756 142.296Z" fill="#727E99"/>
<path d="M4.20076 154.122C2.85589 154.836 2.64493 156.582 3.77884 157.587C4.04254 157.825 4.41172 157.429 4.17439 157.191C3.30418 156.397 3.4624 155.127 4.49083 154.572C4.7809 154.413 4.49083 153.963 4.20076 154.122Z" fill="#727E99"/>
<path d="M5.59855 155.392C5.01841 156.132 4.70197 157.005 4.75471 157.958C4.78108 158.302 5.30848 158.302 5.30848 157.958C5.28211 157.164 5.49307 156.397 5.9941 155.789C6.17869 155.498 5.80951 155.101 5.59855 155.392Z" fill="#727E99"/>
<path d="M22.2117 163.778C23.4247 162.773 24.7959 164.307 25.6661 165.048C26.4572 165.709 27.3011 166.344 28.1713 166.9C29.9908 168.09 31.9158 169.042 33.9726 169.757C34.2891 169.863 34.4473 169.36 34.1045 169.228C31.5466 168.302 29.1206 167.005 26.9583 165.365C25.6134 164.36 23.6357 161.873 21.8425 163.381C21.5524 163.619 21.948 163.99 22.2117 163.778Z" fill="#727E99"/>
<path d="M14.6958 95.0479C16.8054 94.651 18.7831 93.8309 20.5499 92.5875C20.84 92.3759 20.5499 91.9262 20.2862 92.1114C18.5722 93.3283 16.6472 94.1484 14.5639 94.5188C14.2211 94.5981 14.3793 95.1272 14.6958 95.0479Z" fill="#727E99"/>
<path d="M23.8992 101.08C24.7167 102.826 25.666 104.466 26.7999 106.027C27.0108 106.318 27.4591 106.027 27.2745 105.762C26.167 104.201 25.1913 102.561 24.3739 100.815C24.2156 100.498 23.7673 100.789 23.8992 101.08Z" fill="#727E99"/>
<path d="M6.15191 78.9104C6.99574 78.54 7.86595 78.1961 8.70979 77.8257C9.02622 77.6934 9.57999 77.376 9.9228 77.3231C10.793 77.1908 11.1622 77.9051 11.5577 78.4606C12.4543 79.7834 13.1399 81.2119 13.6146 82.7463C13.7201 83.0902 14.2475 82.9315 14.142 82.6141C13.5618 80.7358 12.6653 78.6458 11.294 77.2437C10.7139 76.6617 10.1601 76.6617 9.42177 76.9792C8.23513 77.4553 7.07485 77.9844 5.88821 78.4606C5.57177 78.5664 5.83547 79.0426 6.15191 78.9104Z" fill="#727E99"/>
<path d="M7.15449 78.1961C6.99627 79.175 6.7062 80.1009 6.28429 81.0004C6.12607 81.3178 6.60072 81.5824 6.75894 81.2649C7.18086 80.339 7.4973 79.3602 7.68189 78.3284C7.73463 78.011 7.20723 77.8522 7.15449 78.1961Z" fill="#727E99"/>
<path d="M9.05309 77.6935C8.68391 79.3337 8.31474 80.9739 7.97193 82.5876C7.89282 82.9315 8.42021 83.0638 8.49932 82.7199C8.8685 81.0797 9.23768 79.4395 9.58049 77.8257C9.6596 77.5083 9.1322 77.3495 9.05309 77.6935Z" fill="#727E99"/>
<path d="M32.4695 87.4025C32.6804 90.392 33.0496 93.3814 33.577 96.3443C33.6297 96.6882 34.1571 96.5295 34.1044 96.212C33.6034 93.302 33.2342 90.3655 33.0232 87.429C32.9705 87.0586 32.4431 87.0586 32.4695 87.4025Z" fill="#727E99"/>
<path d="M34.7898 105.921C35.7655 105.947 36.6621 105.762 37.5323 105.339C37.8487 105.18 37.5587 104.73 37.2686 104.863C36.4775 105.233 35.66 105.418 34.7898 105.392C34.4206 105.365 34.4206 105.895 34.7898 105.921Z" fill="#727E99"/>
<path d="M35.0271 107.217C35.8973 107.323 36.7675 107.138 37.5322 106.688C37.8223 106.503 37.5586 106.027 37.2685 106.212C36.5829 106.635 35.8446 106.794 35.0535 106.688C34.6843 106.635 34.6843 107.164 35.0271 107.217Z" fill="#727E99"/>
<path d="M35.6338 108.566C36.5831 108.619 37.5061 108.461 38.4027 108.117C38.7191 107.984 38.5872 107.482 38.2708 107.588C37.427 107.905 36.5568 108.037 35.6338 108.011C35.2646 108.011 35.2646 108.566 35.6338 108.566Z" fill="#727E99"/>
<path d="M27.67 99.8363C28.9621 99.5717 30.2542 99.2807 31.5463 99.0162C31.8891 98.9368 31.7309 98.4077 31.4145 98.4871C30.1224 98.7516 28.8302 99.0426 27.5381 99.3072C27.1953 99.3866 27.3272 99.8892 27.67 99.8363Z" fill="#727E99"/>
<path d="M28.0923 100.524C29.3053 100.312 30.5183 100.127 31.7049 99.9156C32.0477 99.8627 31.8895 99.3336 31.5731 99.3865C30.3601 99.5982 29.1471 99.7833 27.9604 99.995C27.6176 100.048 27.7758 100.577 28.0923 100.524Z" fill="#727E99"/>
<path d="M38.3235 99.0162C39.1146 98.9369 39.8793 99.0427 40.6177 99.3337C40.9341 99.466 41.0924 98.9369 40.7495 98.8046C39.9848 98.4871 39.141 98.3813 38.3235 98.4607C37.9807 98.5136 37.9807 99.0427 38.3235 99.0162Z" fill="#727E99"/>
<path d="M38.1387 100.365C38.9298 100.365 39.7209 100.365 40.512 100.365C40.8548 100.365 40.8548 99.8098 40.512 99.8098C39.7209 99.8098 38.9298 99.8098 38.1387 99.8098C37.7959 99.8098 37.7959 100.365 38.1387 100.365Z" fill="#727E99"/>
<path d="M48.555 99.5718C49.6098 99.7305 50.6909 99.8628 51.7457 100.021C52.0885 100.074 52.2467 99.5453 51.8776 99.4924C50.8228 99.3337 49.7416 99.2014 48.6868 99.0427C48.344 98.9897 48.2122 99.5188 48.555 99.5718Z" fill="#727E99"/>
<path d="M48.4494 100.656C49.2142 100.762 49.9789 100.894 50.7172 101C51.06 101.053 51.2183 100.524 50.8491 100.471C50.0844 100.365 49.3196 100.233 48.5813 100.127C48.2648 100.074 48.1066 100.603 48.4494 100.656Z" fill="#727E99"/>
<path d="M45.206 96.2913C45.1796 96.7145 45.1533 97.1378 45.1269 97.5611C45.1005 97.905 45.6543 97.905 45.6807 97.5611C45.707 97.1378 45.7334 96.7145 45.7598 96.2913C45.7861 95.9473 45.2324 95.9473 45.206 96.2913Z" fill="#727E99"/>
<path d="M44.9689 99.9157C44.9953 102.191 44.8371 104.439 44.547 106.688C44.4943 107.032 45.048 107.032 45.1008 106.688C45.3908 104.439 45.5491 102.191 45.5227 99.9157C45.4963 99.5717 44.9689 99.5717 44.9689 99.9157Z" fill="#727E99"/>
<path d="M43.3335 83.4344C44.7311 83.8576 46.1287 84.0693 47.5791 84.0428C47.9219 84.0428 47.9219 83.4873 47.5791 83.4873C46.1815 83.5137 44.8102 83.3021 43.4654 82.8788C43.1489 82.7994 43.0171 83.3285 43.3335 83.4344Z" fill="#727E99"/>
<path d="M47.1839 68.2756C47.2103 68.1962 47.2367 68.0904 47.2367 68.011C47.3158 67.6671 46.8411 67.5348 46.7093 67.8787C45.7863 70.3919 44.8897 72.9052 43.9668 75.3919C43.8349 75.7094 44.3623 75.8681 44.4942 75.5242C45.4171 73.011 46.3137 70.4978 47.2367 68.011C47.0521 67.9581 46.8938 67.9052 46.7093 67.8787C46.6829 67.9581 46.6565 68.0639 46.6565 68.1433C46.5774 68.4872 47.1048 68.6195 47.1839 68.2756Z" fill="#727E99"/>
<path d="M61.4558 104.145C61.032 105.417 59.5132 105.028 58.8068 104.675C58.6302 104.498 58.0651 104.039 57.2175 103.615C56.3698 103.191 56.5111 102.732 56.6877 102.556C58.1005 97.2578 61.032 86.3441 61.4558 85.0726C61.8796 83.8011 63.0452 84.1896 63.575 84.5428C63.9282 84.7194 64.9524 85.1786 66.2239 85.6024C67.4954 86.0262 67.8133 86.8386 67.8133 87.1918C65.8707 92.3131 61.8796 102.874 61.4558 104.145Z" fill="#DCF8C1"/>
<path d="M47.5002 68.9634C46.2608 71.8205 45.0214 74.6777 43.7556 77.5612C43.6238 77.8787 44.0721 78.1433 44.2303 77.8258C45.4697 74.9687 46.7091 72.1115 47.9748 69.2279C48.1067 68.9369 47.632 68.6459 47.5002 68.9634Z" fill="#727E99"/>
<path d="M57.3629 103.143C58.3386 104.175 59.6834 104.678 61.081 104.492C61.4238 104.44 61.4238 103.91 61.081 103.937C59.8153 104.096 58.6286 103.672 57.7321 102.746C57.4947 102.508 57.1255 102.905 57.3629 103.143Z" fill="#727E99"/>
<path d="M62.8212 88.6194C61.0808 93.0638 59.4986 97.5612 58.0747 102.111C57.9692 102.455 58.4966 102.588 58.6021 102.244C60.026 97.6934 61.6082 93.1961 63.3486 88.7517C63.4805 88.4342 62.9531 88.3019 62.8212 88.6194Z" fill="#727E99"/>
<path d="M64.0872 87.7199C65.142 87.1115 66.2495 86.6088 67.3834 86.2384C67.6999 86.1326 67.568 85.6035 67.2516 85.7093C66.065 86.1062 64.9047 86.6353 63.8235 87.2702C63.5071 87.4289 63.7708 87.9051 64.0872 87.7199Z" fill="#727E99"/>
<path d="M64.2186 89.2014C65.5634 88.5136 66.9347 87.8257 68.2795 87.1379C68.596 86.9792 68.3059 86.503 68.0158 86.6617C66.671 87.3495 65.2997 88.0374 63.9549 88.7252C63.6384 88.8839 63.9021 89.3601 64.2186 89.2014Z" fill="#727E99"/>
<path d="M63.6385 92.1644C64.7196 91.5295 65.7744 90.8681 66.8556 90.2332C67.1457 90.048 66.882 89.5718 66.5919 89.757C65.5107 90.3919 64.4559 91.0533 63.3748 91.6882C63.0583 91.8734 63.322 92.3231 63.6385 92.1644Z" fill="#727E99"/>
<path d="M51.825 107.773C52.326 106.529 52.8007 105.286 53.3017 104.043C53.4336 103.725 52.9062 103.566 52.7743 103.91C52.2733 105.154 51.7986 106.397 51.2976 107.641C51.1657 107.958 51.6931 108.09 51.825 107.773Z" fill="#727E99"/>
<path d="M62.9792 102.191C63.9285 103.17 63.7175 103.91 62.7682 104.704C61.8717 105.445 60.7377 105.947 59.683 106.344C56.0439 107.693 52.1148 108.302 48.2648 108.672C43.3073 109.148 38.297 109.201 33.3131 108.857C29.1994 108.566 25.0329 108.037 21.0774 106.82C19.6535 106.371 18.2031 105.868 16.9637 104.995C15.9617 104.307 15.3552 103.566 16.1199 102.455C16.7264 101.582 15.3024 100.789 14.7223 101.635C12.8237 104.36 15.8562 106.477 18.0976 107.429C22.0268 109.148 26.4305 109.81 30.6761 110.233C36.3192 110.815 42.0151 110.842 47.6583 110.339C52.0093 109.942 56.5186 109.36 60.6059 107.72C63.2956 106.635 67.1984 104.148 64.1658 101.027C63.4011 100.286 62.2408 101.45 62.9792 102.191Z" fill="#727E99"/>
<path d="M47.5002 97.9845C49.3198 98.1432 51.1129 98.3548 52.9061 98.6458C53.9345 98.8046 54.3564 97.2437 53.328 97.085C51.3766 96.7675 49.4252 96.5294 47.4739 96.3443C46.4718 96.2649 46.4718 97.8787 47.5002 97.9845Z" fill="#727E99"/>
<path d="M36.8993 97.6933C38.8243 97.6404 40.7493 97.6404 42.6743 97.6933C43.7291 97.7198 43.7291 96.106 42.6743 96.0531C40.7493 96.0002 38.8243 96.0002 36.8993 96.0531C35.8445 96.0796 35.8445 97.7198 36.8993 97.6933Z" fill="#727E99"/>
<path d="M24.9275 98.9367C27.4063 98.4605 29.9114 98.1431 32.4165 97.9314C33.445 97.8521 33.4713 96.2119 32.4165 96.2912C29.7532 96.5029 27.1162 96.8468 24.4792 97.3494C23.4508 97.5875 23.8991 99.1484 24.9275 98.9367Z" fill="#727E99"/>
<path d="M14.0894 103.355C14.0894 104.36 13.9048 105.551 14.2213 106.529C14.6168 107.72 15.7243 108.54 16.7528 109.122C20.5237 111.265 25.1911 111.926 29.4103 112.429C35.4754 113.143 41.6723 113.196 47.7638 112.64C52.3521 112.217 57.1778 111.582 61.4234 109.678C62.7155 109.096 64.1922 108.275 64.9042 106.979C65.4843 105.921 65.247 104.519 65.247 103.355C65.247 102.297 63.6121 102.297 63.6121 103.355C63.6121 104.175 63.7966 105.418 63.5329 106.106C63.1638 106.953 62.0562 107.561 61.2388 107.984C57.5734 109.836 53.1696 110.445 49.135 110.894C43.5182 111.503 37.7959 111.556 32.1528 111.08C27.7754 110.709 23.187 110.127 19.0997 108.461C17.9922 108.011 16.5418 107.402 15.8826 106.318C15.4606 105.63 15.6716 104.307 15.6716 103.381C15.698 102.297 14.0894 102.297 14.0894 103.355Z" fill="#727E99"/>
<path d="M60.9756 157.217C61.6876 158.699 60.1318 159.81 58.9978 160.471C57.0465 161.609 54.7787 162.244 52.59 162.746C46.2348 164.175 39.5632 164.334 33.1026 163.725C32.0742 163.619 32.0742 165.259 33.1026 165.365C38.8776 165.894 44.7317 165.762 50.454 164.81C52.7218 164.439 54.9896 163.91 57.152 163.117C58.655 162.561 60.1845 161.847 61.3711 160.762C62.6633 159.572 63.1379 158.037 62.3468 156.397C61.9249 155.445 60.5273 156.265 60.9756 157.217Z" fill="#727E99"/>
<path d="M39.1409 168.116C44.3886 168.143 49.768 167.72 54.8574 166.318C57.468 165.577 61.5026 164.386 62.5838 161.529C63.0057 160.445 62.7947 159.122 62.7947 157.984C62.7947 156.926 61.1598 156.926 61.1598 157.984C61.1598 158.989 61.4235 160.365 60.9225 161.265C60.1314 162.667 58.2327 163.434 56.8088 163.963C51.2447 166.079 45.0214 166.529 39.1409 166.503C38.1125 166.476 38.1125 168.09 39.1409 168.116Z" fill="#727E99"/>
<path d="M15.3819 107.773C15.5401 113.434 15.7247 119.095 15.8829 124.757C16.1466 133.804 16.4367 142.826 16.7004 151.873C16.7531 153.963 16.8323 156.027 16.885 158.116C16.9114 159.175 18.5463 159.175 18.5199 158.116C18.3617 152.455 18.1771 146.794 18.0189 141.132C17.7552 132.085 17.4651 123.064 17.2014 114.016C17.1487 111.926 17.0696 109.863 17.0168 107.773C16.9905 106.741 15.3555 106.741 15.3819 107.773Z" fill="#727E99"/>
<path d="M62.3467 107.773C62.1621 113.593 62.0039 119.413 61.8193 125.233C61.5292 134.439 61.2655 143.672 60.9754 152.878C60.9227 155.021 60.8436 157.138 60.7908 159.281C60.7645 160.339 62.373 160.339 62.4258 159.281C62.6104 153.46 62.7686 147.64 62.9532 141.82C63.2432 132.614 63.5069 123.381 63.797 114.175C63.8498 112.032 63.9289 109.916 63.9816 107.773C63.9816 106.741 62.373 106.741 62.3467 107.773Z" fill="#727E99"/>
<path d="M61.9242 84.7834C59.9201 90.3919 57.8896 96.0003 55.8855 101.635C55.5954 102.429 55.3054 103.223 55.0153 104.043C54.9362 104.307 55.0153 104.651 55.2263 104.836C56.9403 106.344 59.3663 106.979 61.5814 107.217C61.9506 107.27 62.2407 106.926 62.3725 106.609C64.7458 100.365 67.1191 94.122 69.4924 87.9051C69.8352 87.0056 70.178 86.1326 70.5208 85.2331C70.679 84.7834 70.3362 84.3866 69.9407 84.2279C67.9893 83.4607 66.0379 82.6935 64.0865 81.9263C63.7701 81.794 63.3218 82.0056 63.1636 82.2966C63.0581 82.5083 62.9526 82.7464 62.8472 82.958C63.1636 82.8257 63.4537 82.7199 63.7701 82.5876C62.8472 82.376 61.9242 82.1379 61.0013 81.9263C60.553 81.8205 60.1574 82.0585 59.9992 82.5083C57.9424 88.0903 55.8855 93.6987 53.855 99.2807C53.565 100.074 53.2749 100.868 52.9848 101.662C52.8793 101.979 53.0639 102.429 53.354 102.588C53.9078 102.852 54.4615 103.117 54.9889 103.381C55.49 103.619 55.991 103.408 56.1756 102.905C58.1797 97.667 60.1574 92.4289 62.1615 87.2173C62.4516 86.4765 62.7153 85.7358 63.0054 84.995C62.6098 85.1538 62.2143 85.3125 61.8187 85.4712C61.977 85.5506 62.1352 85.6564 62.267 85.7358C63.1636 86.2649 64.0074 84.8628 63.0845 84.3337C62.9263 84.2543 62.768 84.1485 62.6362 84.0691C62.1352 83.7781 61.6341 84.0691 61.4496 84.5453C59.4454 89.7834 57.4677 95.0215 55.4636 100.233C55.1735 100.974 54.9098 101.715 54.6198 102.455C55.0153 102.297 55.4109 102.138 55.8064 101.979C55.2526 101.715 54.6989 101.45 54.1715 101.185C54.3033 101.503 54.4088 101.794 54.5406 102.111C56.5975 96.5294 58.6543 90.921 60.6848 85.339C60.9749 84.5453 61.265 83.7517 61.555 82.958C61.2122 83.1432 60.8958 83.3284 60.553 83.54C61.4759 83.7517 62.3989 83.9898 63.3218 84.2014C63.6646 84.2808 64.0865 84.1485 64.2448 83.831C64.3502 83.6194 64.4557 83.3813 64.5612 83.1697C64.2448 83.3019 63.9547 83.4077 63.6383 83.54C65.5896 84.3072 67.541 85.0744 69.4924 85.8416C69.3078 85.4977 69.1232 85.1802 68.9122 84.8363C66.5389 91.0797 64.1657 97.3231 61.7924 103.54C61.4496 104.439 61.1067 105.312 60.7639 106.212C61.0276 106 61.2913 105.815 61.555 105.603C61.4759 105.577 61.4759 105.603 61.555 105.603C61.4232 105.551 61.2386 105.551 61.1331 105.524C60.6321 105.445 60.1574 105.339 59.6828 105.207C58.5225 104.916 57.2831 104.492 56.3602 103.672C56.4393 103.937 56.492 104.201 56.5711 104.466C58.5752 98.8574 60.6057 93.249 62.6098 87.6141C62.8999 86.8204 63.19 86.0268 63.48 85.2067C63.8492 84.2279 62.267 83.8046 61.9242 84.7834Z" fill="#727E99"/>
<path d="M55.3582 104.307C54.7781 105.709 54.1979 107.111 53.6442 108.487C53.2486 109.466 54.8044 109.889 55.2 108.91C55.7801 107.508 56.3603 106.106 56.914 104.73C57.336 103.778 55.7538 103.355 55.3582 104.307Z" fill="#727E99"/>
<path d="M32.2322 81.1592C32.6805 81.1063 33.1288 81.0534 33.5771 81.0005C33.999 80.9475 34.4209 80.6565 34.3945 80.1804C34.3682 79.7835 34.0254 79.3073 33.5771 79.3602C33.1288 79.4132 32.6805 79.4661 32.2322 79.519C31.8103 79.5719 31.3884 79.8629 31.4147 80.3391C31.4411 80.7359 31.7839 81.2121 32.2322 81.1592Z" fill="#727E99"/>
<path d="M34.4999 109.677C34.0516 105.233 33.6034 100.815 33.1551 96.3706C32.865 93.4341 32.5749 90.4977 32.2849 87.5612C32.2058 86.6881 32.1003 85.8151 32.0212 84.9421C31.9948 84.7569 31.9948 84.5717 31.9684 84.3866C31.9421 84.2278 31.9421 84.4659 31.9421 84.5188C31.9421 84.3866 31.9948 84.2278 31.9948 84.0956C32.3903 81.503 32.7595 78.8839 33.1551 76.2913C32.6277 76.2913 32.1003 76.2913 31.5992 76.2913C32.5222 78.6194 33.4451 80.9474 34.3681 83.2754C34.4208 83.4342 34.6845 84.1749 34.579 83.6987C34.6054 83.831 34.6054 83.9633 34.6318 84.0956C34.7109 84.8892 34.79 85.6828 34.8955 86.4765C35.5284 92.5082 36.1876 98.5664 36.8205 104.598C37.0051 106.344 37.1897 108.09 37.3743 109.863C37.4797 110.894 39.1147 110.894 39.0092 109.863C38.5345 105.312 38.0335 100.789 37.5588 96.2384C37.2424 93.2225 36.926 90.2331 36.6095 87.2172C36.4777 85.9739 36.5304 84.5717 36.1612 83.3813C35.7657 82.0056 35.0801 80.6829 34.5527 79.3337C34.1044 78.1696 33.6297 77.0321 33.1814 75.8681C32.9177 75.2331 31.7575 74.9686 31.6256 75.8681C31.2828 78.1696 30.94 80.4712 30.5972 82.7728C30.5181 83.3548 30.3599 83.9633 30.3862 84.5453C30.4126 85.2331 30.5181 85.9209 30.5972 86.6352C31.1773 92.5347 31.7838 98.4606 32.364 104.36C32.5486 106.133 32.7068 107.905 32.8914 109.677C32.9705 110.709 34.6054 110.736 34.4999 109.677Z" fill="#727E99"/>
<path d="M42.7536 109.598C43.0964 103.381 43.4656 97.138 43.8084 90.9211C43.8612 90.0481 43.9139 89.1486 43.9666 88.2756C44.0194 87.2174 42.4108 87.2438 42.3317 88.2756C41.9889 94.4925 41.6197 100.736 41.2769 106.953C41.2242 107.826 41.1714 108.725 41.1187 109.598C41.0659 110.656 42.7009 110.656 42.7536 109.598Z" fill="#727E99"/>
<path d="M42.5426 89.0427C44.4148 89.2014 46.2607 89.3602 48.133 89.4924C48.6076 89.5189 48.8977 89.0956 48.9504 88.6723C49.1878 86.3972 49.557 84.0956 49.5306 81.794C49.4778 78.0903 49.3987 74.3602 49.346 70.6565C49.3196 69.5189 49.3196 68.4078 49.2933 67.2703C49.2933 66.8999 49.0559 66.5824 48.6867 66.4766C47.3419 66.0798 43.7819 65.3126 43.4391 67.3496C43.2018 68.8311 43.1227 70.339 42.9645 71.847C42.5689 75.5507 41.9624 79.3073 41.7515 83.0374C41.646 84.757 41.7515 86.4766 41.7515 88.1961C41.7515 89.2543 43.3864 89.2543 43.3864 88.1961C43.3864 85.9739 43.3073 83.7782 43.5446 81.5824C43.9402 77.8787 44.3357 74.2015 44.7313 70.4978C44.8367 69.4131 44.9686 68.3285 45.0741 67.2438C44.9422 67.4819 44.8104 67.72 44.6785 67.9581C45.5751 67.2703 47.2628 67.7465 48.2648 68.0375C48.0539 67.7729 47.8693 67.5084 47.6583 67.2438C47.7111 70.1274 47.7638 73.011 47.7902 75.8946C47.8165 77.6935 47.8429 79.4925 47.8693 81.2914C47.8693 82.0057 47.922 82.72 47.8429 83.4607C47.6583 85.2067 47.4737 86.9263 47.3155 88.6723C47.5792 88.4078 47.8693 88.1168 48.133 87.8522C46.2607 87.6935 44.4148 87.5348 42.5426 87.4025C41.4878 87.3496 41.5141 88.9633 42.5426 89.0427Z" fill="#727E99"/>
<path d="M31.626 108.778C29.411 104.863 27.1959 100.921 24.9808 97.0057C24.4534 96.0798 23.0558 96.8999 23.5832 97.8258C25.7983 101.741 28.0134 105.683 30.2284 109.598C30.7295 110.524 32.1271 109.704 31.626 108.778Z" fill="#727E99"/>
<path d="M20.1809 106.662C19.0733 104.757 17.9922 102.879 16.8846 100.974C16.3572 100.074 14.9596 100.895 15.487 101.794C16.5946 103.699 17.6757 105.577 18.7833 107.482C19.3107 108.408 20.7083 107.588 20.1809 106.662Z" fill="#727E99"/>
<path d="M10.556 94.2277C11.98 96.8203 13.404 99.4129 14.828 102.005C15.0126 102.323 15.4081 102.482 15.7509 102.376C19.0735 101.45 22.2379 99.4923 25.0067 97.5346C25.3759 97.2701 25.5341 96.8203 25.2968 96.4235C23.8201 93.8045 22.3434 91.1854 20.8667 88.5664C20.603 88.0637 19.9701 88.0637 19.6009 88.4076C17.2013 90.3918 14.0369 92.0055 11.0571 93.0373C10.0814 93.3812 10.5033 94.942 11.479 94.5981C14.7752 93.4605 18.0451 91.7939 20.7612 89.5452C20.3393 89.4923 19.9174 89.4394 19.4954 89.3865C20.9722 92.0055 22.4489 94.6246 23.9256 97.2436C24.0311 96.8732 24.1102 96.5029 24.2156 96.1325C21.5523 98.0373 18.5461 99.942 15.3554 100.815C15.6718 100.947 15.9619 101.053 16.2783 101.185C14.8543 98.5928 13.4304 96.0002 12.0064 93.4076C11.4526 92.4817 10.055 93.3018 10.556 94.2277Z" fill="#727E99"/>
<path d="M20.8664 88.5665C18.1767 84.175 15.566 79.7306 12.7972 75.3919C12.428 74.8364 12.0061 74.3867 11.3732 74.1486C10.1866 73.6988 9.02631 74.3337 7.94515 74.8099C5.83556 75.7359 2.17014 77.3232 3.51501 80.2332C4.51706 82.3761 5.65097 84.466 6.70576 86.5824C7.97152 89.1221 9.26364 91.6882 10.5294 94.2279C11.0041 95.1538 12.4017 94.3337 11.927 93.4078C9.68556 88.9633 7.47049 84.5189 5.22905 80.0745C5.12357 79.8628 4.99172 79.6512 4.91261 79.4396C4.49069 78.2491 5.99378 77.6406 6.81124 77.1644C7.36501 76.847 7.91878 76.5824 8.47254 76.3179C8.99994 76.0798 9.65919 75.683 10.2393 75.6036C10.7931 75.5242 11.1359 75.8681 11.3996 76.2914C12.8763 78.4607 14.1684 80.7358 15.5397 82.9581C16.8582 85.1009 18.1503 87.2438 19.4688 89.3866C19.9962 90.2861 21.4202 89.466 20.8664 88.5665Z" fill="#727E99"/>
<path d="M31.3615 85.1008C32.2053 84.9685 33.0492 84.8098 33.893 84.6775C34.3149 84.5981 34.5786 84.069 34.4731 83.6722C34.3413 83.2225 33.9194 83.0373 33.4711 83.0902C32.6273 83.2225 31.7834 83.3812 30.9396 83.5135C30.5177 83.5928 30.254 84.1219 30.3594 84.5188C30.4913 84.995 30.9132 85.1801 31.3615 85.1008Z" fill="#727E99"/>
<path d="M47.5527 109.598C47.8692 103.514 48.1592 97.4026 48.4757 91.318C48.5284 90.4449 48.5548 89.5719 48.6075 88.6989C48.6603 87.6407 47.0253 87.6407 46.9726 88.6989C46.6562 94.7836 46.3661 100.895 46.0497 106.979C45.9969 107.852 45.9705 108.725 45.9178 109.598C45.8914 110.657 47.5 110.657 47.5527 109.598Z" fill="#727E99"/>
<path d="M61.8457 78.1432C62.2676 78.2755 62.7159 78.4077 63.1378 78.5665C63.5334 78.6987 64.0344 78.4077 64.1399 77.9845C64.2454 77.5347 64.0081 77.1114 63.5598 76.9792C63.1379 76.8469 62.6896 76.7146 62.2676 76.5559C61.8721 76.4236 61.3711 76.7146 61.2656 77.1379C61.1865 77.5876 61.4238 78.0109 61.8457 78.1432Z" fill="#727E99"/>
<path d="M50.1108 109.677C51.7721 104.916 53.4334 100.154 55.0947 95.3918C56.255 92.0849 57.3889 88.7781 58.5492 85.4712C59.1029 83.9103 59.5248 82.2701 60.1841 80.7622C59.9995 81.1855 60.2632 80.6828 60.3423 80.6035C60.5533 80.286 60.7642 79.9686 60.9752 79.6246C61.5289 78.7781 62.0563 77.9315 62.6101 77.085C63.2957 76.0532 63.955 74.995 64.6406 73.9633C64.1396 73.831 63.6385 73.6987 63.1375 73.54C63.0584 75.1273 62.9793 76.7411 62.9002 78.3284C62.8474 79.2543 62.7947 80.1537 62.7683 81.0797C62.7683 81.2649 62.7683 81.4765 62.742 81.6881C62.7947 81.3178 62.6629 81.794 62.6365 81.8998C62.5837 82.085 62.5046 82.2966 62.4519 82.4818C62.1091 83.4871 63.6913 83.9103 64.0077 82.9051C64.4824 81.4765 64.456 80.0215 64.5351 78.5135C64.6142 76.8469 64.7197 75.2067 64.7988 73.54C64.8516 72.6934 63.6913 72.4818 63.2957 73.1167C61.8454 75.3654 60.3159 77.5612 58.9183 79.8627C58.2063 81.0532 57.8899 82.5876 57.4152 83.9103C55.1211 90.4976 52.8269 97.0585 50.5327 103.646C49.8735 105.498 49.2406 107.376 48.5813 109.228C48.1858 110.233 49.768 110.656 50.1108 109.677Z" fill="#727E99"/>
<path d="M59.2082 81.3177C60.0256 81.5294 60.8695 81.7675 61.6869 81.9791C62.689 82.2437 63.1373 80.6828 62.1088 80.4183C61.2914 80.2066 60.4475 79.9685 59.6301 79.7569C58.628 79.4659 58.1797 81.0532 59.2082 81.3177Z" fill="#727E99"/>
<path d="M1.5639 157.931C4.20089 159.096 6.83788 160.233 9.47487 161.397C15.3817 163.99 21.2622 166.582 27.1691 169.148C33.3132 171.847 39.4574 174.545 45.6016 177.217C48.977 178.699 52.3259 180.18 55.7013 181.635C56.967 182.191 58.4437 182.323 59.7886 182.614C62.7684 183.275 65.7746 183.91 68.7544 184.572C68.9653 184.625 69.1763 184.677 69.3872 184.704C70.3366 184.916 70.7321 183.752 70.0201 183.222C67.8842 181.556 65.7482 179.916 63.5859 178.249C62.3992 177.323 61.1862 176.397 59.9996 175.471C59.7622 175.286 59.5513 175.101 59.2612 174.968C58.1009 174.386 56.8352 173.937 55.6485 173.434C53.2225 172.402 50.7965 171.371 48.3704 170.312C41.6989 167.455 35.0273 164.598 28.3557 161.741C22.3434 159.175 16.331 156.582 10.2923 154.016C8.68377 153.328 7.07521 152.64 5.44027 151.953C5.20295 151.847 4.93925 151.741 4.70192 151.635C2.59233 150.789 0.429996 152.429 0.0608176 154.545C-0.176511 155.974 0.271777 157.27 1.5639 157.931C2.48685 158.408 3.30431 157.006 2.38137 156.529C0.640955 155.63 2.22315 152.588 3.98993 153.117C4.30637 153.223 4.62281 153.381 4.93925 153.514C6.57418 154.228 8.23548 154.916 9.87041 155.63C15.6982 158.117 21.5523 160.63 27.38 163.117C33.8406 165.868 40.2749 168.646 46.7355 171.397C50.5591 173.037 54.3564 174.651 58.18 176.291C59.2612 176.741 60.1314 177.64 61.0544 178.355C63.5859 180.312 66.1437 182.27 68.6753 184.228C68.8598 184.36 69.0181 184.492 69.2027 184.625C69.4136 184.122 69.6246 183.619 69.8355 183.143C67.4886 182.64 65.1153 182.111 62.7684 181.609C61.239 181.265 59.7095 180.947 58.18 180.603C57.7318 180.498 57.2835 180.392 56.8352 180.312C56.5979 180.286 56.4924 180.233 56.7297 180.339C55.8595 180.048 55.0157 179.598 54.1718 179.228C52.1677 178.355 50.1636 177.482 48.1595 176.609C42.1999 173.99 36.2667 171.397 30.3071 168.778C24.242 166.133 18.1769 163.461 12.1119 160.815C8.9211 159.413 5.73034 158.011 2.51322 156.609C2.46048 156.582 2.40774 156.556 2.38137 156.556C1.43205 156.106 0.588215 157.508 1.5639 157.931Z" fill="#727E99"/>
<path d="M64.6668 182.72C64.6404 182.852 64.6404 182.931 64.6668 182.72C64.7195 182.561 64.7459 182.402 64.825 182.27C64.7722 182.376 64.8777 182.164 64.9041 182.138C64.9568 182.005 65.0359 181.9 65.1151 181.794C65.2469 181.609 65.4315 181.45 65.6161 181.318C65.9853 181.053 66.1435 180.603 65.9061 180.207C65.6952 179.863 65.1678 179.651 64.7986 179.916C63.8493 180.577 63.1637 181.582 63.0318 182.746C62.9791 183.196 63.4274 183.566 63.8493 183.566C64.3503 183.513 64.6404 183.143 64.6668 182.72Z" fill="#727E99"/>
<path d="M58.602 175.074C57.2044 175.974 56.387 177.667 55.965 179.228C55.675 180.233 57.2572 180.683 57.5209 179.651C57.7582 178.752 58.1274 177.852 58.7603 177.138C58.9185 176.926 59.1031 176.767 59.314 176.582C59.4722 176.45 59.2613 176.609 59.4459 176.476C60.3161 175.921 59.4986 174.519 58.602 175.074Z" fill="#727E99"/>
<path d="M155 58L115.5 56.5C114.7 55.3 115.167 52.6667 115.5 51.5C118.667 44.8334 128.1 31.7 140.5 32.5C156 33.5 157 48.5 158 53.5C158.8 57.5 156.333 58.1667 155 58Z" fill="#FEC997"/>
</svg>
