<svg width="45" height="45" viewBox="0 0 45 45" fill="none" xmlns="http://www.w3.org/2000/svg">
<path d="M11.25 0C9.70312 0 8.4375 1.26562 8.4375 2.8125V42.1875C8.4375 43.7344 9.70312 45 11.25 45H39.375C40.9219 45 42.1875 43.7344 42.1875 42.1875V11.25L30.9375 0H11.25Z" fill="#E2E5E7"/>
<path d="M33.75 11.25H42.1875L30.9375 0V8.4375C30.9375 9.98438 32.2031 11.25 33.75 11.25Z" fill="#B0B7BD"/>
<path d="M42.1875 19.6875L33.75 11.25H42.1875V19.6875Z" fill="#CAD1D8"/>
<path d="M36.5625 36.5625C36.5625 37.3359 35.9297 37.9688 35.1562 37.9688H4.21875C3.44531 37.9688 2.8125 37.3359 2.8125 36.5625V22.5C2.8125 21.7266 3.44531 21.0938 4.21875 21.0938H35.1562C35.9297 21.0938 36.5625 21.7266 36.5625 22.5V36.5625Z" fill="#F15642"/>
<path d="M8.94141 26.6444C8.94141 26.2732 9.23391 25.8682 9.705 25.8682H12.3023C13.7648 25.8682 15.0811 26.8469 15.0811 28.7228C15.0811 30.5003 13.7648 31.4903 12.3023 31.4903H10.425V32.9753C10.425 33.4703 10.11 33.7502 9.705 33.7502C9.33375 33.7502 8.94141 33.4703 8.94141 32.9753V26.6444ZM10.425 27.2843V30.0855H12.3023C13.0561 30.0855 13.6523 29.4203 13.6523 28.7228C13.6523 27.9368 13.0561 27.2843 12.3023 27.2843H10.425Z" fill="white"/>
<path d="M17.2841 33.7495C16.9128 33.7495 16.5078 33.547 16.5078 33.0534V26.6663C16.5078 26.2627 16.9128 25.9688 17.2841 25.9688H19.8589C24.9973 25.9688 24.8848 33.7495 19.9602 33.7495H17.2841ZM17.9928 27.3413V32.3784H19.8589C22.895 32.3784 23.03 27.3413 19.8589 27.3413H17.9928Z" fill="white"/>
<path d="M26.7053 27.4317V29.219H29.5727C29.9777 29.219 30.3827 29.624 30.3827 30.0164C30.3827 30.3876 29.9777 30.6914 29.5727 30.6914H26.7053V33.0525C26.7053 33.4462 26.4255 33.7486 26.0317 33.7486C25.5367 33.7486 25.2344 33.4462 25.2344 33.0525V26.6653C25.2344 26.2617 25.5381 25.9678 26.0317 25.9678H29.9791C30.4741 25.9678 30.7666 26.2617 30.7666 26.6653C30.7666 27.0253 30.4741 27.4303 29.9791 27.4303H26.7053V27.4317Z" fill="white"/>
<path d="M35.1562 37.9688H8.4375V39.375H35.1562C35.9297 39.375 36.5625 38.7422 36.5625 37.9688V36.5625C36.5625 37.3359 35.9297 37.9688 35.1562 37.9688Z" fill="#CAD1D8"/>
</svg>
