<svg width="360" height="29" viewBox="0 0 360 29" fill="none" xmlns="http://www.w3.org/2000/svg">
<path d="M39.3438 2.83173C39.6307 3.27069 39.4931 3.80394 38.931 4.43146C38.5793 4.82565 38.0976 5.22263 37.486 5.62239C37.3924 5.68353 37.2782 5.70514 37.1432 5.68722C37.0107 5.66773 36.9146 5.61241 36.855 5.52126L36.4082 4.83764C36.4035 4.83044 35.9954 4.17975 35.1838 2.88558C35.1054 2.76565 35.027 2.64571 34.9486 2.52578C34.8554 2.37789 34.7942 2.25016 34.7649 2.1426C34.7402 2.0629 34.7456 1.99261 34.7812 1.93173C34.7958 1.90166 34.8492 1.83936 34.9414 1.74483C35.0618 1.61478 35.29 1.44002 35.6258 1.22054C36.012 0.968145 36.4233 0.832809 36.8598 0.814537C37.3695 0.792958 37.7427 0.963269 37.9794 1.32547C38.1989 1.66129 38.1797 2.02473 37.9218 2.4158C38.1558 2.37581 38.4136 2.39048 38.6951 2.45981C39.0163 2.53745 39.2325 2.66143 39.3438 2.83173ZM37.3066 1.76521C37.2109 1.61889 37.0263 1.55641 36.7527 1.57775C36.5109 1.59542 36.3109 1.65598 36.1526 1.75945L36.0051 1.85587C35.8228 1.97501 35.7016 2.05935 35.6415 2.10887C35.6924 2.19199 35.7774 2.3247 35.8966 2.507C35.9264 2.55258 35.9912 2.63861 36.0909 2.7651C36.1742 2.87157 36.2362 2.96115 36.2769 3.03385C36.423 2.95888 36.5512 2.88534 36.6616 2.81322C36.9302 2.63764 37.1147 2.49308 37.2151 2.37955C37.4031 2.16428 37.4335 1.95951 37.3066 1.76521ZM38.6102 3.26496C38.5256 3.13543 38.3509 3.07502 38.0861 3.08373C37.8803 3.08821 37.686 3.12618 37.5033 3.19764C37.3972 3.23959 37.2522 3.31894 37.0684 3.43568C36.8374 3.57982 36.6951 3.66595 36.6416 3.69407C36.7386 3.86345 36.824 4.00451 36.8976 4.11725L37.3562 4.81886C38.3866 4.08036 38.8046 3.5624 38.6102 3.26496Z" fill="white"/>
<path d="M35.1067 3.76368C35.4939 4.35616 35.6796 5.00163 35.6636 5.70011C35.6427 6.51141 35.3216 7.12007 34.7004 7.52611C34.1919 7.85846 33.6621 7.99073 33.1112 7.92291C32.5276 7.85242 32.0713 7.56531 31.742 7.06158C31.3548 6.46911 31.1824 5.80984 31.2248 5.08379C31.2696 4.26715 31.6026 3.65581 32.2239 3.24978C33.4136 2.4722 34.3746 2.6435 35.1067 3.76368ZM34.3583 4.25281C34.12 3.88821 33.8782 3.6885 33.6329 3.65367C33.3901 3.61728 33.0779 3.72372 32.6965 3.97298C32.3271 4.21441 32.1296 4.60881 32.104 5.15619C32.0826 5.6734 32.2114 6.14549 32.4904 6.57246C32.6785 6.8603 32.9405 7.02284 33.2764 7.06008C33.5964 7.094 33.9135 7.00827 34.2277 6.8029C34.5923 6.56461 34.7767 6.17883 34.7807 5.64556C34.7844 5.15362 34.6436 4.68937 34.3583 4.25281Z" fill="white"/>
<path d="M32.0837 8.60884C32.1511 8.71198 32.1732 8.81908 32.1499 8.93014C32.1267 9.0412 32.0622 9.13122 31.9567 9.2002C31.8536 9.26761 31.7465 9.28968 31.6354 9.26641C31.5243 9.24315 31.4351 9.17994 31.3677 9.0768C31.316 8.99764 31.2402 8.89482 31.1404 8.76833C31.0257 8.62422 30.9483 8.52417 30.9083 8.46816C30.7741 8.27857 30.6075 8.03146 30.4084 7.72683C30.457 7.80119 30.1467 7.31592 29.4774 6.27102C29.3332 6.39607 29.1808 6.51112 29.0201 6.61616C28.6195 6.87796 28.2262 7.12474 27.8402 7.35647C27.9045 7.45482 28.0037 7.60395 28.1377 7.80387C28.2703 8.0014 28.3694 8.15053 28.4353 8.25128C28.9307 9.00926 29.2269 9.55679 29.324 9.89388C29.4802 10.4525 29.3269 10.883 28.8639 11.1856C28.684 11.3032 28.5026 11.3687 28.3197 11.3821C28.0994 11.396 27.9344 11.319 27.8247 11.1511C27.7667 11.0623 27.7449 10.9687 27.7593 10.8703C27.7761 10.7703 27.8301 10.6905 27.9212 10.631C27.9692 10.5996 28.0493 10.5729 28.1616 10.5509C28.2738 10.5289 28.3527 10.503 28.3983 10.4732C28.5734 10.3587 28.6063 10.1576 28.4968 9.86964C28.4315 9.70691 28.2805 9.44444 28.0438 9.08224C27.9215 8.89514 27.7249 8.62312 27.454 8.26617C27.1854 7.90765 26.9908 7.63604 26.8701 7.45134C26.7995 7.3434 26.7791 7.23353 26.8087 7.12174C26.8407 7.00838 26.9107 6.91642 27.0187 6.84587C27.081 6.80511 27.1661 6.75463 27.274 6.69441C27.4098 6.61935 27.4969 6.56928 27.5353 6.54419C27.807 6.38374 28.1467 6.17026 28.5545 5.90375C28.6432 5.84574 28.7642 5.74273 28.9173 5.5947C29.0705 5.44668 29.1926 5.34288 29.2838 5.28331C29.55 5.10929 29.7584 5.13742 29.9089 5.3677C30.0453 5.57638 30.2455 5.89056 30.5095 6.31024C30.7759 6.72835 30.9773 7.04174 31.1137 7.25043C31.305 7.54307 31.4685 7.78538 31.6042 7.97737C31.6458 8.03577 31.7263 8.14062 31.8458 8.29193C31.9511 8.42165 32.0304 8.52728 32.0837 8.60884Z" fill="white"/>
<path d="M27.6091 11.5344C27.6765 11.6375 27.6986 11.7446 27.6753 11.8557C27.652 11.9667 27.5876 12.0568 27.4821 12.1257C27.379 12.1931 27.2719 12.2152 27.1608 12.1919C27.0497 12.1687 26.9605 12.1055 26.8931 12.0023C26.8414 11.9232 26.7656 11.8204 26.6658 11.6939C26.5511 11.5498 26.4737 11.4497 26.4337 11.3937C26.2995 11.2041 26.1329 10.957 25.9338 10.6524C25.9824 10.7267 25.6721 10.2415 25.0028 9.19656C24.8586 9.32161 24.7062 9.43666 24.5455 9.54169C24.1449 9.8035 23.7516 10.0503 23.3656 10.282C23.4299 10.3804 23.529 10.5295 23.6631 10.7294C23.7957 10.9269 23.8948 11.0761 23.9607 11.1768C24.4561 11.9348 24.7523 12.4823 24.8494 12.8194C25.0056 13.378 24.8523 13.8086 24.3893 14.1111C24.2094 14.2287 24.028 14.2942 23.8451 14.3076C23.6248 14.3215 23.4598 14.2445 23.35 14.0766C23.292 13.9879 23.2702 13.8943 23.2847 13.7958C23.3015 13.6959 23.3554 13.6161 23.4466 13.5565C23.4946 13.5252 23.5747 13.4985 23.687 13.4764C23.7992 13.4544 23.8781 13.4285 23.9237 13.3987C24.0988 13.2843 24.1317 13.0831 24.0222 12.7952C23.9569 12.6324 23.8059 12.37 23.5692 12.0078C23.4469 11.8207 23.2503 11.5487 22.9794 11.1917C22.7108 10.8332 22.5162 10.5616 22.3955 10.3769C22.3249 10.2689 22.3045 10.1591 22.3341 10.0473C22.3661 9.93391 22.4361 9.84196 22.5441 9.77141C22.6064 9.73065 22.6915 9.68016 22.7994 9.61995C22.9352 9.54489 23.0223 9.49481 23.0606 9.46973C23.3323 9.30928 23.6721 9.0958 24.0799 8.82929C24.1686 8.77128 24.2896 8.66827 24.4427 8.52024C24.5959 8.37222 24.718 8.26842 24.8092 8.20885C25.0754 8.03483 25.2838 8.06296 25.4343 8.29323C25.5707 8.50192 25.7709 8.8161 26.0349 9.23578C26.3013 9.65388 26.5027 9.96728 26.6391 10.176C26.8304 10.4686 26.9939 10.7109 27.1296 10.9029C27.1712 10.9613 27.2517 11.0662 27.3712 11.2175C27.4765 11.3472 27.5558 11.4528 27.6091 11.5344Z" fill="white"/>
<path d="M23.483 14.8778C23.4374 14.9076 23.3202 14.9089 23.1313 14.8817C22.9591 14.8539 22.8215 14.8189 22.7185 14.7766C22.5698 15.0519 22.4282 15.2779 22.2939 15.4547C22.1611 15.6339 22.036 15.7619 21.9184 15.8387C21.3571 16.2056 20.8447 16.3146 20.3811 16.1657C19.9444 16.0266 19.5254 15.65 19.1241 15.0359C18.7447 14.4555 18.6193 13.8288 18.7478 13.156C18.8788 12.4816 19.2213 11.9634 19.7754 11.6012C19.9841 11.4648 20.2532 11.3659 20.5828 11.3046C20.9968 11.2257 21.2658 11.281 21.3896 11.4705C21.4319 11.5353 21.4456 11.6085 21.4305 11.6902C21.4661 11.7971 21.5449 11.9595 21.6669 12.1776C21.7913 12.3941 21.9589 12.6663 22.1697 12.9941C22.3617 13.2931 22.5357 13.5148 22.6918 13.6593C22.7847 13.7492 22.9983 13.9109 23.3323 14.1444C23.3773 14.1766 23.4465 14.2222 23.5397 14.281L23.6013 14.3281C23.664 14.424 23.6821 14.5251 23.6557 14.6314C23.6293 14.7377 23.5718 14.8198 23.483 14.8778ZM21.1003 12.8663C21.0329 12.7631 20.966 12.6477 20.8996 12.5199C20.834 12.3882 20.7698 12.2453 20.7068 12.0914C20.5882 12.1038 20.4895 12.1204 20.4107 12.1411C20.3342 12.1603 20.2768 12.1824 20.2384 12.2075C19.8666 12.4505 19.6447 12.8129 19.5728 13.2947C19.5016 13.7725 19.5954 14.2093 19.8541 14.6051C20.1112 14.9984 20.3736 15.248 20.6412 15.3538C20.9089 15.4595 21.1819 15.4215 21.4601 15.2397C21.6904 15.0892 21.8585 14.9194 21.9643 14.7304C22.0209 14.6284 22.0824 14.4581 22.149 14.2195C21.6568 13.634 21.3072 13.1829 21.1003 12.8663Z" fill="white"/>
<path d="M16.7427 11.5129C16.8995 11.7528 16.8344 12.0435 16.5476 12.385C16.5042 12.4339 16.3314 12.5571 16.0292 12.7546C15.559 13.0619 15.2924 13.4108 15.2292 13.8012C15.1947 14.0155 15.239 14.3819 15.3622 14.9005C15.4957 14.5599 15.7435 14.2713 16.1057 14.0346C16.5735 13.7289 17.0673 13.7039 17.5871 13.9598C18.0143 14.1736 18.3918 14.5311 18.7194 15.0324C19.0722 15.5721 19.2392 16.1236 19.2206 16.687C19.2028 17.325 18.9361 17.8126 18.4204 18.1497C17.8639 18.5134 17.2977 18.5479 16.7217 18.2534C16.2392 18.0074 15.7784 17.5485 15.3394 16.8769C14.9162 16.2293 14.6317 15.5217 14.4861 14.7542C14.3072 13.8099 14.4405 13.0946 14.886 12.6083C14.9695 12.5161 15.1528 12.3775 15.4358 12.1925C15.6933 12.0208 15.8559 11.8871 15.9235 11.7916C15.8366 11.5643 15.8651 11.4036 16.009 11.3095C16.1193 11.2374 16.2502 11.2255 16.4015 11.2738C16.5553 11.3205 16.669 11.4002 16.7427 11.5129ZM18.0938 15.5286C17.5592 14.7107 17.04 14.4663 16.5363 14.7955C16.1933 15.0197 16.0289 15.3548 16.0431 15.8008C16.0524 16.1816 16.1761 16.5543 16.4144 16.9189C16.5978 17.1995 16.8234 17.3927 17.0911 17.4985C17.3943 17.6221 17.6791 17.5969 17.9454 17.4229C18.2716 17.2096 18.4344 16.9115 18.434 16.5284C18.4314 16.2049 18.318 15.8716 18.0938 15.5286Z" fill="white"/>
<path d="M12.6121 21.843C11.8829 22.3196 11.1324 22.3342 10.3608 21.8869C9.77105 21.5397 9.20732 20.9548 8.6696 20.132C8.21496 19.4364 7.98384 18.7214 7.97624 17.9869C7.97059 17.1245 8.30359 16.4738 8.97522 16.0349C9.60607 15.6226 10.2734 15.5698 10.9772 15.8767C11.5859 16.1429 12.109 16.6107 12.5464 17.2799C13.2487 18.3545 13.6059 19.273 13.6181 20.0353C13.6286 20.7952 13.2933 21.3978 12.6121 21.843ZM9.42547 16.7316C8.97932 17.0232 8.77366 17.4811 8.8085 18.1054C8.83791 18.627 9.01174 19.1313 9.32999 19.6183C9.84576 20.4074 10.3397 20.9301 10.8119 21.1864C11.284 21.4426 11.7336 21.4312 12.1606 21.1522C12.6691 20.8198 12.844 20.2913 12.6853 19.5666C12.5754 19.0633 12.3183 18.5022 11.9138 17.8833C11.4889 17.2333 11.0688 16.813 10.6532 16.6224C10.2401 16.4303 9.83085 16.4667 9.42547 16.7316Z" fill="white"/>
<path d="M8.41089 24.5898C7.68169 25.0664 6.93127 25.081 6.15963 24.6337C5.56988 24.2865 5.00615 23.7016 4.46842 22.8789C4.01379 22.1832 3.78267 21.4682 3.77506 20.7337C3.76942 19.8713 4.10242 19.2207 4.77405 18.7817C5.4049 18.3694 6.07221 18.3167 6.77599 18.6235C7.38475 18.8898 7.90783 19.3575 8.34522 20.0267C9.04755 21.1013 9.40478 22.0198 9.4169 22.7821C9.42745 23.542 9.09211 24.1446 8.41089 24.5898ZM5.2243 19.4785C4.77814 19.7701 4.57249 20.228 4.60733 20.8522C4.63674 21.3739 4.81057 21.8781 5.12882 22.3651C5.64459 23.1542 6.13856 23.677 6.61071 23.9332C7.08286 24.1895 7.53242 24.1781 7.95939 23.899C8.46791 23.5667 8.64282 23.0381 8.48411 22.3134C8.37425 21.8101 8.11709 21.249 7.71262 20.6302C7.28777 19.9801 6.86759 19.5598 6.45206 19.3693C6.03893 19.1771 5.62968 19.2135 5.2243 19.4785Z" fill="white"/>
<path d="M5.63295 26.2098L4.91694 26.6778L4.20218 27.1398C4.03427 27.2495 3.90968 27.3156 3.82841 27.3379C3.67786 27.3746 3.55712 27.3235 3.46619 27.1843C3.30786 26.9421 3.41698 26.6979 3.79358 26.4518L3.96863 26.3425L4.12085 26.2533C4.04561 26.1381 3.9235 25.9749 3.75455 25.7635C3.588 25.5506 3.46788 25.3877 3.3942 25.275C3.1951 24.9704 2.92012 24.4894 2.56925 23.8321C2.22226 23.1859 1.94409 22.7053 1.73476 22.3903C1.57638 22.8498 1.45281 23.1086 1.36406 23.1666C1.26811 23.2293 1.16064 23.2482 1.04165 23.2232C0.925057 23.1967 0.83619 23.1367 0.77505 23.0432C0.701368 22.9304 0.715152 22.7263 0.816402 22.4308C0.886359 22.2549 0.974228 21.9887 1.08001 21.632C1.15157 21.2806 1.2833 21.0421 1.47519 20.9167C1.6359 20.8117 1.77661 20.8515 1.89733 21.0362C1.93338 21.0914 1.98027 21.1788 2.038 21.2986C2.09415 21.4159 2.14026 21.5022 2.17631 21.5574C2.22805 21.6365 2.31003 21.7541 2.42226 21.9101C2.5369 22.0646 2.62008 22.1814 2.67181 22.2605C2.85053 22.534 3.08826 22.9605 3.38499 23.5403C3.68172 24.12 3.91866 24.5454 4.09581 24.8164C4.18674 24.9556 4.30686 25.1184 4.45617 25.305C4.60548 25.4915 4.72287 25.6476 4.80836 25.7731L5.18145 25.519C5.28219 25.4532 5.3869 25.4327 5.49556 25.4575C5.60505 25.4784 5.69193 25.538 5.75621 25.6363C5.82205 25.7371 5.84256 25.8418 5.81772 25.9504C5.79528 26.0575 5.73369 26.144 5.63295 26.2098Z" fill="white"/>
<path d="M357.611 28.1451C357.14 28.0211 356.79 27.8029 356.56 27.4906C356.31 27.1462 356.246 26.7395 356.37 26.2706C356.513 25.7287 356.763 25.3089 357.123 25.0113C357.513 24.6863 357.948 24.5866 358.425 24.7123C358.771 24.8033 359.038 24.936 359.226 25.1104C359.457 25.3249 359.533 25.5812 359.455 25.8793C359.4 26.0877 359.232 26.2463 358.952 26.3552C358.828 26.4028 358.576 26.4614 358.197 26.5309L356.854 26.7823C356.925 26.986 357.035 27.1544 357.185 27.2875C357.337 27.4211 357.529 27.5184 357.76 27.5793C357.904 27.6171 358.08 27.6345 358.288 27.6313C358.552 27.6273 358.734 27.5793 358.834 27.4875C358.935 27.3937 359.025 27.3574 359.107 27.3788C359.18 27.398 359.237 27.4432 359.278 27.5142C359.322 27.5838 359.335 27.655 359.316 27.728C359.255 27.9593 359.016 28.1092 358.599 28.1778C358.243 28.2355 357.914 28.2246 357.611 28.1451ZM358.277 25.275C358.022 25.208 357.785 25.2513 357.564 25.4049C357.343 25.5564 357.139 25.8191 356.952 26.1931L358.032 25.9894C358.457 25.9053 358.768 25.8166 358.964 25.7234C358.829 25.5095 358.6 25.36 358.277 25.275Z" fill="white"/>
<path d="M355.737 26.5846C355.715 26.6659 355.679 26.7857 355.629 26.944C355.578 27.1023 355.542 27.222 355.521 27.3033C355.498 27.3909 355.448 27.4558 355.373 27.4983C355.298 27.5434 355.217 27.5544 355.13 27.5313C355.04 27.5077 354.973 27.4578 354.929 27.3814C354.886 27.3077 354.876 27.2271 354.899 27.1396C354.934 27.0041 354.994 26.8036 355.077 26.538C355.16 26.2725 355.22 26.072 355.256 25.9365C355.323 25.6802 355.367 25.4311 355.389 25.1893C355.036 25.4975 354.782 25.7105 354.629 25.8283C354.333 26.0536 354.054 26.2297 353.791 26.3566C353.445 26.5216 353.184 26.658 353.008 26.7655C352.868 26.8511 352.737 26.878 352.616 26.8461C352.524 26.822 352.451 26.7772 352.397 26.7117C352.339 26.6383 352.321 26.5568 352.345 26.4672C352.501 25.8732 352.654 25.2515 352.802 24.602C352.955 23.927 353.03 23.5978 353.025 23.6145C353.081 23.4019 353.214 23.3231 353.422 23.378C353.599 23.4246 353.676 23.5518 353.652 23.7595C353.648 23.7919 353.602 23.9991 353.512 24.3811L353.141 25.9447C353.528 25.7504 353.949 25.4866 354.402 25.1536C354.543 25.0502 354.934 24.7454 355.575 24.239C355.742 24.1067 355.895 24.059 356.034 24.0957C356.122 24.1188 356.187 24.1672 356.23 24.2409C356.275 24.3151 356.286 24.3971 356.262 24.4867C356.201 24.718 356.114 25.0682 355.999 25.5372C355.885 26.0042 355.798 26.3533 355.737 26.5846Z" fill="white"/>
<path d="M351.865 26.2674C351.84 26.3591 351.792 26.4254 351.719 26.4663C351.645 26.5093 351.563 26.519 351.474 26.4954C351.382 26.4713 351.315 26.4223 351.272 26.3486C351.228 26.277 351.218 26.1953 351.242 26.1036C351.285 25.9432 351.381 25.5552 351.532 24.9397C351.38 24.8929 351.305 24.87 351.31 24.8711C350.818 24.7416 350.328 24.6728 349.84 24.6646C349.808 24.7834 349.752 24.9557 349.67 25.1816C349.591 25.3991 349.534 25.5714 349.501 25.6986C349.476 25.7903 349.427 25.8576 349.354 25.9006C349.282 25.9441 349.2 25.9538 349.109 25.9297C349.019 25.9061 348.953 25.8574 348.91 25.7837C348.867 25.71 348.857 25.6273 348.882 25.5356C348.901 25.4606 348.938 25.3609 348.99 25.2367C349.046 25.1108 349.083 25.0104 349.103 24.9354C349.136 24.8104 349.182 24.622 349.242 24.3702C349.302 24.1164 349.348 23.927 349.381 23.8019C349.417 23.6685 349.468 23.4747 349.534 23.2205C349.604 22.9668 349.656 22.7732 349.691 22.6398C349.715 22.5481 349.763 22.4818 349.837 22.4409C349.91 22.3979 349.992 22.3882 350.082 22.4118C350.173 22.436 350.241 22.4849 350.284 22.5586C350.327 22.6302 350.337 22.7119 350.313 22.8036C350.273 22.9537 350.222 23.1574 350.159 23.4148C350.09 23.6999 350.041 23.9042 350.011 24.0277C350.555 24.0439 351.113 24.1397 351.687 24.3152L351.74 24.112C351.773 23.9869 351.82 23.8265 351.88 23.6307C351.945 23.4183 351.992 23.2578 352.02 23.1495C352.044 23.0598 352.092 22.9935 352.166 22.9505C352.24 22.9076 352.323 22.8981 352.414 22.9223C352.504 22.9459 352.57 22.9945 352.613 23.0682C352.656 23.1419 352.666 23.2236 352.642 23.3132C352.613 23.4237 352.566 23.5841 352.502 23.7945C352.438 24.0028 352.392 24.1632 352.362 24.2757C352.302 24.5029 352.219 24.8354 352.113 25.2731C352.007 25.7088 351.924 26.0402 351.865 26.2674Z" fill="white"/>
<path d="M347.213 25.4075C346.742 25.2835 346.391 25.0654 346.162 24.7531C345.911 24.4086 345.848 24.0019 345.971 23.533C346.114 22.9912 346.365 22.5714 346.724 22.2737C347.115 21.9488 347.549 21.8491 348.026 21.9747C348.372 22.0658 348.639 22.1985 348.827 22.3728C349.058 22.5874 349.135 22.8437 349.056 23.1417C349.001 23.3501 348.834 23.5088 348.553 23.6177C348.429 23.6653 348.178 23.7238 347.798 23.7933L346.455 24.0448C346.526 24.2485 346.637 24.4169 346.787 24.5499C346.939 24.6835 347.13 24.7808 347.362 24.8417C347.506 24.8796 347.682 24.8969 347.89 24.8937C348.154 24.8897 348.336 24.8418 348.436 24.75C348.536 24.6561 348.627 24.6199 348.708 24.6413C348.781 24.6605 348.838 24.7056 348.88 24.7767C348.924 24.8462 348.936 24.9175 348.917 24.9904C348.856 25.2218 348.617 25.3717 348.2 25.4402C347.844 25.498 347.515 25.4871 347.213 25.4075ZM347.878 22.5374C347.624 22.4705 347.386 22.5138 347.165 22.6673C346.945 22.8188 346.741 23.0816 346.553 23.4556L347.633 23.2518C348.059 23.1677 348.37 23.0791 348.566 22.9859C348.43 22.7719 348.201 22.6225 347.878 22.5374Z" fill="white"/>
<path d="M345.286 24.5357C345.262 24.6274 345.214 24.6937 345.14 24.7346C345.067 24.7776 344.985 24.7873 344.895 24.7637C344.804 24.7396 344.736 24.6907 344.693 24.6169C344.65 24.5453 344.64 24.4636 344.664 24.3719C344.707 24.2115 344.803 23.8235 344.954 23.208C344.801 23.1612 344.727 23.1383 344.731 23.1394C344.24 23.0099 343.75 22.9411 343.261 22.9329C343.23 23.0517 343.174 23.2241 343.092 23.4499C343.012 23.6674 342.956 23.8397 342.922 23.9669C342.898 24.0586 342.849 24.1259 342.776 24.1689C342.704 24.2124 342.622 24.2221 342.531 24.198C342.441 24.1744 342.375 24.1258 342.332 24.052C342.289 23.9783 342.279 23.8956 342.303 23.8039C342.323 23.7289 342.359 23.6292 342.412 23.505C342.468 23.3792 342.505 23.2787 342.525 23.2037C342.558 23.0787 342.604 22.8903 342.664 22.6385C342.724 22.3847 342.77 22.1953 342.803 22.0702C342.838 21.9369 342.889 21.743 342.956 21.4888C343.025 21.2351 343.077 21.0415 343.113 20.9082C343.137 20.8165 343.185 20.7501 343.259 20.7092C343.332 20.6662 343.414 20.6565 343.504 20.6801C343.595 20.7043 343.663 20.7532 343.706 20.8269C343.749 20.8986 343.759 20.9802 343.735 21.0719C343.695 21.222 343.644 21.4257 343.58 21.6832C343.512 21.9682 343.463 22.1725 343.432 22.296C343.976 22.3122 344.535 22.408 345.108 22.5835L345.162 22.3803C345.195 22.2552 345.241 22.0948 345.302 21.899C345.367 21.6866 345.413 21.5261 345.442 21.4178C345.466 21.3282 345.514 21.2619 345.588 21.2189C345.662 21.1759 345.744 21.1664 345.836 21.1906C345.926 21.2142 345.992 21.2628 346.035 21.3365C346.078 21.4103 346.088 21.4919 346.064 21.5815C346.035 21.692 345.988 21.8524 345.924 22.0628C345.86 22.2711 345.814 22.4315 345.784 22.5441C345.724 22.7712 345.641 23.1037 345.535 23.5414C345.429 23.9771 345.346 24.3086 345.286 24.5357Z" fill="white"/>
<path d="M342.012 22.9719C341.991 23.0531 341.955 23.1729 341.904 23.3312C341.854 23.4895 341.818 23.6092 341.796 23.6905C341.773 23.7781 341.724 23.843 341.648 23.8855C341.574 23.9306 341.493 23.9416 341.405 23.9185C341.316 23.8949 341.249 23.845 341.204 23.7686C341.161 23.6949 341.151 23.6143 341.174 23.5268C341.21 23.3913 341.269 23.1908 341.352 22.9252C341.436 22.6597 341.495 22.4592 341.531 22.3237C341.598 22.0674 341.643 21.8183 341.664 21.5766C341.311 21.8848 341.058 22.0977 340.904 22.2155C340.609 22.4408 340.329 22.6169 340.066 22.7438C339.72 22.9088 339.459 23.0452 339.284 23.1528C339.143 23.2383 339.012 23.2652 338.891 23.2333C338.8 23.2092 338.727 23.1644 338.673 23.0989C338.614 23.0255 338.596 22.944 338.62 22.8544C338.776 22.2604 338.929 21.6387 339.078 20.9893C339.231 20.3142 339.305 19.9851 339.301 20.0017C339.357 19.7891 339.489 19.7103 339.697 19.7652C339.875 19.8118 339.951 19.939 339.928 20.1467C339.924 20.1791 339.877 20.3863 339.788 20.7683L339.416 22.3319C339.804 22.1376 340.224 21.8738 340.677 21.5408C340.818 21.4374 341.209 21.1326 341.851 20.6262C342.017 20.4939 342.17 20.4462 342.31 20.4829C342.397 20.506 342.462 20.5544 342.505 20.6281C342.551 20.7023 342.561 20.7843 342.538 20.8739C342.477 21.1052 342.389 21.4554 342.274 21.9244C342.16 22.3914 342.073 22.7405 342.012 22.9719Z" fill="white"/>
<path d="M338.155 22.712C338.131 22.8037 338.082 22.8701 338.009 22.911C337.935 22.954 337.853 22.9637 337.764 22.9401C337.672 22.9159 337.605 22.867 337.562 22.7933C337.518 22.7216 337.509 22.64 337.533 22.5483C337.577 22.3795 337.665 22.0214 337.795 21.4742C337.493 21.5886 337.156 21.5967 336.783 21.4985C336.341 21.3822 336.061 21.1458 335.943 20.7894C335.827 20.4336 335.86 19.9128 336.04 19.2271C336.13 18.8854 336.286 18.7435 336.507 18.8017C336.596 18.8253 336.663 18.8739 336.706 18.9477C336.749 19.0193 336.759 19.101 336.735 19.1927C336.729 19.2156 336.716 19.2491 336.698 19.2933C336.68 19.3355 336.668 19.368 336.662 19.3909C336.517 19.9432 336.473 20.3237 336.529 20.5324C336.58 20.7265 336.748 20.8608 337.031 20.9354C337.158 20.9689 337.323 20.9655 337.525 20.9251C337.742 20.8797 337.899 20.8095 337.995 20.7146C338.011 20.6562 338.047 20.5286 338.103 20.3317C338.159 20.1348 338.194 20.0103 338.208 19.9582C338.219 19.9165 338.231 19.8529 338.245 19.7674C338.26 19.6823 338.273 19.62 338.284 19.5804C338.307 19.4929 338.356 19.429 338.431 19.3886C338.509 19.3488 338.591 19.3404 338.679 19.3635C338.9 19.4216 338.96 19.6414 338.859 20.0228C338.845 20.079 338.822 20.1532 338.791 20.2454C338.762 20.3381 338.744 20.399 338.736 20.4282C338.673 20.6678 338.576 21.049 338.445 21.5717C338.315 22.0923 338.218 22.4724 338.155 22.712Z" fill="white"/>
<path d="M335.599 20.1273C335.464 20.6421 335.197 21.071 334.799 21.4142C334.336 21.8115 333.834 21.9391 333.294 21.797C332.853 21.6807 332.512 21.4516 332.272 21.1099C332.017 20.7487 331.947 20.3493 332.063 19.9116C332.198 19.3968 332.479 18.9683 332.906 18.626C333.384 18.2394 333.893 18.1171 334.433 18.2592C335.467 18.5313 335.856 19.154 335.599 20.1273ZM334.949 19.9561C335.032 19.6393 335.022 19.4037 334.918 19.2493C334.816 19.0954 334.599 18.9748 334.268 18.8876C333.947 18.8031 333.627 18.8916 333.309 19.1532C333.009 19.402 332.81 19.7118 332.713 20.0828C332.647 20.3329 332.688 20.561 332.837 20.7673C332.979 20.963 333.187 21.0967 333.46 21.1686C333.777 21.252 334.085 21.1604 334.385 20.8939C334.661 20.648 334.849 20.3354 334.949 19.9561Z" fill="white"/>
<path d="M330.276 21.0057C329.849 20.8932 329.527 20.6702 329.309 20.3366C329.08 19.9866 329.024 19.5897 329.141 19.1458C329.253 18.7227 329.508 18.3232 329.908 17.9471C330.352 17.5292 330.77 17.3718 331.162 17.475C331.366 17.5287 331.582 17.6367 331.809 17.799C332.095 18.0059 332.215 18.1979 332.169 18.3751C332.148 18.4543 332.103 18.5183 332.035 18.5671C331.967 18.6138 331.894 18.627 331.817 18.6067C331.757 18.5908 331.708 18.5591 331.672 18.5116C331.638 18.4625 331.605 18.4148 331.572 18.3684C331.475 18.2381 331.287 18.1362 331.008 18.0627C330.795 18.0067 330.535 18.1409 330.226 18.4654C329.945 18.7635 329.771 19.0397 329.704 19.2939C329.632 19.569 329.668 19.8105 329.814 20.0182C329.95 20.2123 330.156 20.3455 330.431 20.4179C330.556 20.4509 330.698 20.4526 330.857 20.4233L331.271 20.3249C331.342 20.308 331.392 20.3031 331.419 20.3103C331.496 20.3306 331.554 20.3794 331.594 20.4567C331.634 20.532 331.644 20.6092 331.623 20.6884C331.583 20.8405 331.384 20.9452 331.026 21.0024C330.712 21.0534 330.462 21.0545 330.276 21.0057Z" fill="white"/>
<path d="M325.43 19.6727C324.959 19.5487 324.608 19.3305 324.379 19.0182C324.128 18.6738 324.065 18.2671 324.188 17.7982C324.331 17.2563 324.582 16.8365 324.941 16.5389C325.332 16.2139 325.766 16.1142 326.243 16.2399C326.589 16.3309 326.856 16.4636 327.044 16.6379C327.275 16.8525 327.351 17.1088 327.273 17.4068C327.218 17.6153 327.05 17.7739 326.77 17.8828C326.646 17.9304 326.394 17.989 326.015 18.0585L324.672 18.3099C324.743 18.5136 324.854 18.682 325.004 18.8151C325.156 18.9487 325.347 19.0459 325.579 19.1068C325.722 19.1447 325.898 19.162 326.106 19.1589C326.37 19.1549 326.552 19.1069 326.652 19.0151C326.753 18.9212 326.844 18.885 326.925 18.9064C326.998 18.9256 327.055 18.9707 327.097 19.0418C327.141 19.1114 327.153 19.1826 327.134 19.2556C327.073 19.4869 326.834 19.6368 326.417 19.7053C326.061 19.7631 325.732 19.7522 325.43 19.6727ZM326.095 16.8026C325.841 16.7356 325.603 16.7789 325.382 16.9325C325.162 17.0839 324.958 17.3467 324.77 17.7207L325.85 17.517C326.276 17.4329 326.586 17.3442 326.783 17.251C326.647 17.0371 326.418 16.8876 326.095 16.8026Z" fill="white"/>
<path d="M324.127 17.1066C323.991 17.6213 323.724 18.0503 323.327 18.3935C322.863 18.7907 322.362 18.9183 321.822 18.7762C321.38 18.6599 321.039 18.4309 320.799 18.0892C320.545 17.7279 320.475 17.3285 320.59 16.8908C320.725 16.3761 321.007 15.9475 321.433 15.6052C321.912 15.2186 322.421 15.0964 322.96 15.2385C323.994 15.5106 324.383 16.1333 324.127 17.1066ZM323.476 16.9354C323.56 16.6186 323.549 16.383 323.445 16.2285C323.343 16.0746 323.126 15.954 322.795 15.8668C322.474 15.7823 322.154 15.8709 321.836 16.1324C321.536 16.3812 321.338 16.6911 321.24 17.062C321.174 17.3121 321.216 17.5403 321.364 17.7465C321.507 17.9422 321.714 18.076 321.987 18.1479C322.304 18.2313 322.612 18.1397 322.912 17.8732C323.188 17.6273 323.377 17.3147 323.476 16.9354Z" fill="white"/>
<path d="M320.279 17.2907C320.179 17.6721 319.812 17.8641 319.178 17.8667C318.781 17.8691 318.317 17.8003 317.785 17.6604C317.704 17.639 317.634 17.5861 317.576 17.5018C317.52 17.418 317.503 17.3365 317.524 17.2573L317.68 16.6633C317.682 16.657 317.839 16.1013 318.153 14.9959C318.18 14.8917 318.207 14.7875 318.235 14.6833C318.27 14.5567 318.311 14.4582 318.356 14.3877C318.388 14.3337 318.43 14.3013 318.482 14.2904C318.506 14.2834 318.568 14.2818 318.667 14.2857C318.8 14.2873 319.013 14.3266 319.305 14.4034C319.64 14.4917 319.923 14.6531 320.153 14.8875C320.422 15.1611 320.515 15.4553 320.432 15.77C320.356 16.0617 320.143 16.2342 319.795 16.2874C319.935 16.3978 320.057 16.5491 320.16 16.7412C320.279 16.9596 320.318 17.1428 320.279 17.2907ZM319.848 15.6161C319.881 15.4889 319.823 15.3544 319.673 15.2124C319.542 15.0864 319.407 15.0053 319.269 14.969L319.141 14.9353C318.983 14.8936 318.875 14.8685 318.817 14.8599C318.796 14.9302 318.765 15.0446 318.723 15.203C318.713 15.2426 318.697 15.3221 318.677 15.4415C318.66 15.5417 318.641 15.6214 318.621 15.6808C318.736 15.7246 318.842 15.7591 318.938 15.7843C319.171 15.8457 319.345 15.8759 319.459 15.8747C319.674 15.8711 319.803 15.7849 319.848 15.6161ZM319.668 17.0997C319.697 16.9871 319.643 16.8592 319.505 16.7158C319.399 16.6031 319.279 16.5138 319.147 16.4479C319.071 16.4098 318.953 16.3689 318.795 16.3251C318.598 16.2688 318.479 16.2328 318.436 16.2171C318.39 16.3567 318.355 16.4754 318.329 16.5734L318.168 17.1829C319.1 17.3859 319.6 17.3581 319.668 17.0997Z" fill="white"/>
<path d="M317.623 15.3946C317.487 15.9094 317.221 16.3384 316.823 16.6816C316.359 17.0788 315.858 17.2064 315.318 17.0643C314.876 16.948 314.535 16.719 314.295 16.3773C314.041 16.016 313.971 15.6166 314.086 15.1789C314.222 14.6642 314.503 14.2356 314.929 13.8933C315.408 13.5067 315.917 13.3844 316.457 13.5265C317.49 13.7987 317.879 14.4214 317.623 15.3946ZM316.972 15.2235C317.056 14.9067 317.045 14.6711 316.941 14.5166C316.839 14.3627 316.622 14.2421 316.291 14.1549C315.97 14.0704 315.65 14.159 315.332 14.4205C315.033 14.6693 314.834 14.9791 314.736 15.3501C314.67 15.6002 314.712 15.8284 314.86 16.0346C315.003 16.2303 315.21 16.3641 315.483 16.436C315.8 16.5193 316.108 16.4278 316.408 16.1613C316.684 15.9154 316.873 15.6028 316.972 15.2235Z" fill="white"/>
<path d="M314.495 13.4479C314.454 13.6042 314.342 13.6817 314.16 13.6805C314.078 13.679 313.925 13.6488 313.702 13.5901C313.594 13.5616 313.413 13.5063 313.161 13.4242C312.931 13.3503 312.751 13.2973 312.621 13.2654L312.536 13.2463C312.518 13.3909 312.483 13.6079 312.431 13.8974C312.225 14.808 312.075 15.4425 311.98 15.801C311.957 15.8906 311.908 15.9569 311.834 15.9999C311.76 16.0429 311.678 16.0523 311.586 16.0282C311.496 16.0046 311.43 15.9559 311.387 15.8822C311.344 15.8085 311.334 15.7268 311.358 15.6372C311.45 15.2892 311.6 14.6601 311.808 13.75C311.827 13.6682 311.849 13.5302 311.874 13.3361C311.898 13.1576 311.923 13.0204 311.949 12.9246C312.03 12.6161 312.311 12.5253 312.792 12.652C312.909 12.6827 313.084 12.7354 313.316 12.8099C313.551 12.8828 313.726 12.9347 313.843 12.9654C313.891 12.978 313.963 12.9925 314.059 13.0089C314.157 13.0258 314.23 13.0405 314.278 13.0531C314.366 13.0762 314.429 13.1253 314.47 13.2006C314.51 13.2758 314.519 13.3583 314.495 13.4479Z" fill="white"/>
<path d="M311.334 13.7389C311.198 14.2536 310.931 14.6826 310.534 15.0258C310.07 15.4231 309.569 15.5506 309.029 15.4085C308.587 15.2922 308.246 15.0632 308.006 14.7215C307.752 14.3603 307.682 13.9608 307.797 13.5232C307.932 13.0084 308.214 12.5799 308.64 12.2376C309.119 11.8509 309.628 11.7287 310.167 11.8708C311.201 12.1429 311.59 12.7656 311.334 13.7389ZM310.683 13.5677C310.767 13.2509 310.756 13.0153 310.652 12.8608C310.55 12.7069 310.333 12.5864 310.002 12.4991C309.681 12.4146 309.361 12.5032 309.043 12.7648C308.743 13.0135 308.545 13.3234 308.447 13.6943C308.381 13.9444 308.423 14.1726 308.571 14.3788C308.714 14.5745 308.921 14.7083 309.194 14.7802C309.511 14.8636 309.819 14.772 310.119 14.5055C310.395 14.2596 310.584 13.947 310.683 13.5677Z" fill="white"/>
<path d="M308.1 11.7711C308.076 11.8628 308.027 11.9312 307.953 11.9763C307.881 12.0198 307.8 12.0298 307.711 12.0062C307.654 11.9914 307.571 11.9671 307.459 11.9333C307.35 11.898 307.268 11.8729 307.211 11.8581C307.149 11.8416 307.07 11.8276 306.975 11.816C306.732 12.9263 306.559 13.6774 306.456 14.0692C306.346 14.486 306.18 14.6654 305.96 14.6072C305.876 14.5853 305.81 14.539 305.762 14.4683C305.716 14.3982 305.704 14.3225 305.725 14.2413C305.746 14.1621 305.78 14.0441 305.828 13.8874C305.876 13.7306 305.911 13.6126 305.931 13.5335C306.004 13.2584 306.146 12.6339 306.358 11.6601C306.29 11.6378 306.158 11.6009 305.962 11.5493C305.781 11.5016 305.658 11.4559 305.594 11.4122C305.475 11.3318 305.434 11.2187 305.473 11.0728C305.496 10.9852 305.543 10.9173 305.613 10.8691C305.686 10.8214 305.767 10.8093 305.857 10.8329L307.701 11.3185C307.855 11.3591 307.963 11.404 308.023 11.4534C308.111 11.5277 308.136 11.6336 308.1 11.7711Z" fill="white"/>
<path d="M305.483 9.41763C305.448 9.55102 305.389 9.7518 305.308 10.02C305.226 10.2882 305.167 10.489 305.132 10.6223C305.092 10.7766 305.029 11.0063 304.944 11.3116C304.859 11.6168 304.797 11.8466 304.756 12.0008C304.704 12.1988 304.617 12.4956 304.495 12.8914C304.375 13.2856 304.289 13.5828 304.237 13.7828C304.213 13.8724 304.165 13.9387 304.091 13.9817C304.017 14.0247 303.935 14.0344 303.846 14.0108C303.756 13.9872 303.689 13.9383 303.644 13.8641C303.601 13.7903 303.591 13.7087 303.615 13.6191C303.668 13.4169 303.755 13.1156 303.876 12.7151C303.999 12.3152 304.087 12.0142 304.141 11.812C304.181 11.6599 304.246 11.4252 304.336 11.108C304.417 10.8152 304.482 10.5792 304.529 10.4L304.553 10.3093C304.391 10.4427 304.142 10.6079 303.807 10.805C303.447 11.0154 303.192 11.1769 303.045 11.2895C302.623 11.611 302.155 11.9901 301.639 12.427C301.494 12.5538 301.276 12.7405 300.986 12.9873C300.879 13.0748 300.776 13.1057 300.678 13.0799C300.588 13.0563 300.516 13.006 300.46 12.929C300.407 12.8526 300.393 12.7722 300.42 12.6878L300.436 12.6417C300.84 11.4022 301.061 10.7094 301.1 10.5636C301.251 9.99043 301.379 9.45702 301.484 8.96331C301.492 8.92525 301.509 8.83607 301.535 8.69578C301.555 8.58521 301.574 8.49658 301.591 8.42989C301.615 8.34028 301.663 8.27397 301.737 8.23098C301.811 8.18799 301.893 8.17829 301.982 8.20188C302.072 8.22547 302.138 8.27413 302.181 8.34784C302.224 8.42156 302.234 8.50323 302.21 8.59284C302.193 8.65745 302.176 8.74218 302.16 8.84704C302.136 8.98108 302.12 9.06609 302.113 9.10207C302.049 9.39713 301.959 9.76141 301.845 10.1949C301.714 10.693 301.571 11.1768 301.416 11.6464C302.129 11.0207 302.948 10.4517 303.871 9.93939C304.008 9.86164 304.179 9.73962 304.386 9.57335C304.628 9.37878 304.795 9.25095 304.884 9.18986C304.959 9.04025 305.08 8.98739 305.247 9.03128C305.457 9.0867 305.536 9.21548 305.483 9.41763Z" fill="white"/>
</svg>
