<svg width="164" height="151" viewBox="0 0 164 151" fill="none" xmlns="http://www.w3.org/2000/svg">
<path d="M52.0037 32.7192C54.6716 34.4139 55.8803 36.1871 55.6296 38.0387C55.3821 39.8677 53.7568 41.47 50.7538 42.8456C47.7621 44.2228 43.5566 44.5446 38.1373 43.811C37.6631 43.7469 37.2703 43.4637 36.9588 42.9617C36.6458 42.471 36.5568 41.9818 36.6918 41.4942L38.1548 36.6737C38.6929 34.907 39.5292 32.5081 40.6638 29.4769C41.8097 26.4473 42.6194 24.1598 43.093 22.6143C43.5667 21.0688 43.9688 19.8815 44.2995 19.0525C44.6316 18.2122 44.9431 17.737 45.234 17.6269C45.5361 17.5183 46.2575 17.455 47.3982 17.4369C48.5516 17.4091 49.6816 17.4701 50.788 17.6198C52.73 17.8827 54.4188 18.7839 55.8545 20.3233C57.3015 21.8644 57.902 23.5437 57.656 25.3615C57.4863 26.6147 56.9522 27.9278 56.0535 29.3008C55.1677 30.664 53.8178 31.8035 52.0037 32.7192ZM47.1544 20.7669L46.2305 23.6426L44.0055 30.0155L46.4991 30.5772C47.233 30.6765 48.2304 30.5701 49.4914 30.2579C50.7636 29.9472 51.8192 29.3255 52.6583 28.3929C53.5087 27.4617 53.9995 26.5107 54.131 25.5397C54.2578 24.6026 53.8682 23.6588 52.9621 22.7084C52.0688 21.7482 51.0068 21.1848 49.7762 21.0183C48.5568 20.8532 47.6829 20.7694 47.1544 20.7669ZM46.0022 33.9936L44.6043 33.8733C44.0285 33.7954 43.3983 33.6526 42.7136 33.445L41.5035 37.1614L40.487 40.5937C44.5308 40.9571 47.4739 40.7461 49.3163 39.9607C51.1699 39.1769 52.1304 38.5366 52.1976 38.0398C52.2603 37.5769 51.8266 37.0008 50.8967 36.3116C49.978 35.6239 48.9078 35.0364 47.6861 34.5491L46.0022 33.9936ZM67.9989 46.1628C65.4013 47.0069 63.5831 47.3587 62.5444 47.2181C58.3218 46.6465 56.4826 44.3511 57.0266 40.3318C57.5324 36.5947 59.1218 33.7286 61.7947 31.7335C64.479 29.7399 67.2324 28.9341 70.0549 29.3161C71.1501 29.4644 72.2409 29.8994 73.3274 30.6214C74.4267 31.3335 74.926 32.0622 74.8251 32.8073C74.7624 33.2702 74.5611 33.6109 74.2211 33.8293C73.9357 34.2391 73.4413 35.4713 72.7378 37.5261C72.0471 39.571 71.6391 41.0564 71.5138 41.9822C71.3594 43.1225 71.4406 44.7316 71.7572 46.8095L71.7882 47.0896C71.3977 48.106 70.7001 48.5462 69.6952 48.4102C69.5259 48.3872 69.2411 48.113 68.8408 47.5874C68.439 47.0732 68.1584 46.5983 67.9989 46.1628ZM71.0186 33.1544C70.3638 32.6404 69.8276 32.3551 69.4098 32.2986C67.5244 32.0434 65.6477 32.6574 63.7798 34.1406C61.9248 35.6141 60.8262 37.6154 60.4838 40.1444C60.1477 42.6282 61.0521 44.0153 63.1973 44.3057C64.8795 44.5334 66.5442 44.1264 68.1913 43.0846C69.0123 38.3785 69.9547 35.0684 71.0186 33.1544ZM95.3886 49.5769C95.2658 49.9742 95.0126 50.2733 94.629 50.4743C94.2567 50.6769 93.8616 50.7499 93.4439 50.6933C92.6987 50.5925 92.3066 50.1772 92.2674 49.4476C92.2172 48.544 91.8027 47.0623 91.0237 45.0024C90.179 42.7495 89.5138 41.5903 89.0283 41.5246L88.5033 41.4535C88.4374 41.686 88.3525 41.9735 88.2487 42.3158C88.1577 42.6484 88.0357 43.04 87.8827 43.4907L87.2428 45.5426C86.9564 46.4696 86.7257 47.1972 86.5507 47.7253C86.3886 48.2437 86.2814 48.5684 86.2292 48.6993C85.7887 49.4905 85.162 49.831 84.3491 49.721C83.3329 49.5835 82.9553 49.061 83.2161 48.1535C83.2881 47.8758 83.3927 47.5278 83.5298 47.1095C83.6782 46.6927 83.8422 46.2033 84.0218 45.6412C84.2352 45.0838 84.4161 44.5966 84.5645 44.1798C84.7129 43.763 84.8223 43.4214 84.8929 43.155C85.0156 42.7577 85.1233 42.3872 85.2158 42.0433C85.3196 41.7009 85.4106 41.3683 85.4888 41.0455L84.9638 40.9744C84.738 40.9439 84.3077 41.1501 83.6729 41.593C83.0381 42.0359 82.1973 42.7269 81.1504 43.666C80.1707 44.5336 79.3681 45.2815 78.7427 45.9097C78.1302 46.5281 77.6876 47.0373 77.415 47.4373C76.9574 48.0997 76.3674 48.382 75.6448 48.2842C75.4416 48.2567 75.2542 48.1968 75.0827 48.1046C74.9225 48.014 74.7824 47.903 74.6621 47.7718C74.5548 47.6308 74.4787 47.471 74.4338 47.2925C74.4003 47.1155 74.415 46.922 74.4779 46.7121C74.6098 46.2471 74.9505 45.6838 75.4999 45.0224C76.0493 44.3609 76.7977 43.5884 77.7451 42.7049C78.6894 41.844 79.5559 41.1335 80.3445 40.5734C81.146 40.0035 81.8704 39.5785 82.5176 39.2982C82.0405 38.8312 81.6717 37.6488 81.4112 35.751C81.1637 34.0964 80.69 33.2218 79.99 33.127C79.3239 33.0368 79.1136 32.5945 79.3591 31.7999C79.4358 31.4884 79.7724 31.2523 80.369 31.0916C80.8451 30.9721 81.275 30.9383 81.6589 30.9902C82.3589 31.085 82.8998 31.4629 83.2817 32.1239C83.362 32.2957 83.4443 32.5368 83.5288 32.8472C83.6245 33.1591 83.7137 33.562 83.7963 34.0561C83.8197 34.3927 83.8829 34.7749 83.986 35.2027C84.089 35.6306 84.2134 36.1131 84.3592 36.6502C84.6142 37.1446 85.2983 37.4843 86.4114 37.6695C86.6301 36.7333 86.832 35.9214 87.0171 35.2336C87.2021 34.5458 87.3663 33.9702 87.5095 33.5067C87.9007 32.1455 88.6382 31.5383 89.7221 31.685C90.1511 31.743 90.4715 31.9244 90.6832 32.2289C90.8964 32.5222 90.9409 32.8732 90.8166 33.2817C90.7204 33.5677 90.5665 34.1102 90.3549 34.9093C90.1432 35.7085 89.8546 36.7789 89.4891 38.1206C90.634 38.241 91.4854 38.1091 92.0433 37.7247C92.1699 37.6384 92.4027 37.4054 92.7415 37.0259C93.0916 36.6479 93.5421 36.1225 94.093 35.4498C94.4477 35.0379 94.7586 34.6948 95.0256 34.4206C95.2927 34.1463 95.5272 33.9423 95.7293 33.8087C96.4087 33.2913 97.1322 33.0846 97.9 33.1885C98.0919 33.2145 98.2751 33.2623 98.4497 33.3319C98.6242 33.4015 98.807 33.4952 98.998 33.6131C99.4175 33.9113 99.5889 34.2162 99.5122 34.5277C99.2667 35.3223 98.8053 35.6737 98.1278 35.582C97.4617 35.4919 96.5242 36.1755 95.3151 37.6329C94.9257 38.1321 94.6207 38.5162 94.4003 38.7853C94.1913 39.0559 94.0419 39.2254 93.9521 39.2937C93.6677 39.6117 93.378 39.8829 93.0832 40.1074C92.8012 40.3222 92.5238 40.5031 92.2509 40.6501C93.1338 41.5169 93.9494 42.9667 94.6975 44.9995C95.071 46.0618 95.3098 46.9736 95.4137 47.735C95.5304 48.4866 95.522 49.1006 95.3886 49.5769ZM112.333 45.5585L111.44 45.4031C108.991 44.9796 106.218 44.909 103.122 45.1912C103.005 45.5434 102.477 46.9837 101.537 49.5123C101.36 49.9712 101.219 50.3718 101.115 50.7142C100.968 51.2116 100.687 51.5874 100.273 51.8419C99.8689 52.1091 99.4241 52.2098 98.9386 52.1441C98.0015 52.0173 97.5956 51.491 97.7209 50.5652C97.7622 50.2603 97.992 49.6246 98.4102 48.658C98.7815 47.8689 99.1176 46.9142 99.4187 45.7937L100.749 41.0588L102.621 34.8794C102.765 34.4047 103.039 34.0393 103.442 33.7834C103.857 33.5177 104.313 33.4184 104.81 33.4857C105.781 33.6171 106.207 34.1175 106.09 34.9868L104.185 41.7997C107.102 41.5623 110.117 41.7117 113.23 42.2479L113.599 41.1769C114.454 38.6828 115.001 36.9748 115.241 36.053C115.397 35.5797 115.677 35.2095 116.081 34.9423C116.498 34.6653 116.955 34.5604 117.451 34.6277C118.4 34.756 118.814 35.2662 118.693 36.1581C118.643 36.5307 118.332 37.5062 117.762 39.0846C117.421 40.1651 116.942 41.7501 116.325 43.8396L114.023 51.8059C113.644 53.1573 112.896 53.7574 111.778 53.6061C110.785 53.4716 110.35 52.9471 110.474 52.0326C110.489 51.9197 111.109 49.7617 112.333 45.5585ZM125.204 55.8372C123.002 55.5392 121.266 54.6948 119.994 53.3039C118.723 51.9018 118.218 50.241 118.478 48.3217C118.868 45.4427 120.419 42.7267 123.133 40.1738C125.859 37.6224 128.791 36.5591 131.929 36.9839C136.818 37.6456 138.991 39.9805 138.449 43.9885C138.021 47.1498 136.488 50.0236 133.85 52.6098C131.225 55.1862 128.343 56.262 125.204 55.8372ZM134.833 43.9475C134.985 42.8185 134.771 41.9846 134.188 41.4459C133.607 40.8959 132.527 40.5139 130.946 40.2999C129.094 40.0493 127.225 40.8196 125.339 42.6107C123.465 44.3921 122.4 46.2312 122.143 48.1279C121.992 49.2457 122.292 50.2119 123.044 51.0265C123.807 51.8426 124.855 52.3408 126.187 52.5212C128.05 52.7733 129.874 51.9969 131.659 50.192C133.455 48.3887 134.513 46.3072 134.833 43.9475ZM143.83 50.3562C143.534 51.3509 142.878 51.7795 141.862 51.642C141.004 51.5259 140.625 51.0952 140.726 50.3501L141.034 49.0982C141.32 47.9183 141.667 46.6718 142.074 45.3588L144.519 37.3601C145.731 33.3391 146.417 31.1959 146.58 30.9304C146.744 30.6537 146.966 30.4538 147.247 30.3309C147.53 30.1967 147.88 30.1579 148.298 30.2144C149.303 30.3504 149.657 30.9158 149.362 31.9105L143.83 50.3562ZM139.909 57.9138C139.514 57.8603 139.176 57.5559 138.895 57.0004C138.612 56.4563 138.501 55.9641 138.56 55.5237C138.621 55.0721 138.862 54.6965 139.282 54.397C139.713 54.0989 140.16 53.9812 140.623 54.0439C141.052 54.102 141.397 54.3959 141.659 54.9257C141.934 55.4457 142.04 55.9372 141.977 56.4001C141.91 56.8969 141.656 57.2879 141.215 57.5731C140.774 57.8583 140.338 57.9719 139.909 57.9138Z" fill="#FA8D8D"/>
<g clip-path="url(#clip0_920_8986)">
<path opacity="0.75" d="M62.3119 113.696C63.3153 113.069 65.338 111.336 66.7543 110.21C68.1705 109.085 69.9391 109.036 70.1168 109.405C70.2538 109.757 70.8861 112.849 70.9953 113.043C71.1044 113.236 70.8494 113.707 70.4216 113.907C70.0117 114.067 68.7741 114.786 68.5984 114.854C68.4049 114.963 59.7603 119.177 57.0618 120.128C54.3632 121.078 49.4265 123.037 47.1508 123.688C44.875 124.339 38.524 125.871 36.0269 126.473C33.4891 127.058 29.9539 127.593 27.8111 127.72C25.6683 127.847 24.7522 127.833 24.1696 127.723C23.587 127.613 23.1086 127.597 22.7702 127.594C22.4317 127.591 22.3732 127.614 21.7548 127.585C21.1365 127.556 20.8388 127.571 20.4418 127.591C20.0448 127.611 19.3937 127.325 18.8905 126.813C18.4051 126.26 17.8493 125.094 17.7888 124.679C17.6875 124.246 17.9684 123.496 18.546 123.507C19.1237 123.518 20.1946 123.842 21.1027 124.095C22.0108 124.348 25.9927 124.786 27.0438 124.714C28.077 124.682 31.8842 124.412 35.6567 123.447C39.3477 122.446 42.5217 121.85 46.2614 120.628C49.9604 119.388 51.8541 119.055 55.1134 117.379C58.4134 115.722 61.0971 114.473 62.3119 113.696Z" fill="#FBB116"/>
<path opacity="0.75" d="M28.4804 118.453C27.9733 119.055 26.2573 121.748 25.4951 122.821C24.7329 123.894 22.5415 126.232 21.6731 126.773C20.8225 127.273 19.9749 127.435 19.3824 127.127C18.7899 126.818 18.7651 126.322 18.4524 126.039C18.1398 125.756 18.0157 125.265 18.4335 124.866C18.8514 124.467 19.7357 123.447 20.2527 123.043C20.752 122.68 22.8163 120.189 23.5984 119.513C24.3983 118.796 26.6492 115.659 27.3271 114.889C27.9642 114.101 30.1516 110.887 31.2959 109.497C32.481 108.124 36.43 102.335 37.5008 100.669C38.5717 99.0038 40.6936 95.2759 41.3923 94.1266C42.0324 93.0001 43.1549 90.7749 43.395 90.0067C43.6759 89.2564 43.8267 88.6916 43.8119 88.3939C43.797 88.0961 43.795 87.6584 44.2078 87.1602C44.6207 86.662 44.9502 85.6903 45.1338 85.3826C45.3174 85.0749 46.0102 84.6025 46.3814 84.8625C46.7932 85.1404 47.4394 85.327 47.7341 85.6505C48.0289 85.9741 48.7763 86.5934 48.8319 86.909C48.8875 87.2246 48.9887 87.6573 48.7108 88.0692C48.4329 88.4811 47.8543 89.2463 47.5377 90.0781C47.2033 90.9505 46.2108 92.9901 45.9736 93.4198C45.6957 93.8317 45.665 94.0124 45.4992 94.2793C45.3335 94.5463 45.2908 94.0908 45.0665 94.3806C44.8829 94.6883 44.738 94.5761 44.6586 94.9781C44.6199 95.3979 44.5177 95.7413 44.2606 95.7741C44.0036 95.8068 43.7515 95.9388 43.7078 96.2594C43.7048 96.5979 43.8091 96.6921 43.5391 96.8648C43.2691 97.0375 43.0478 96.9889 43.1034 97.3045C43.159 97.6201 42.8225 98.0549 42.374 98.6345C41.9254 99.2141 38.0399 105.08 37.2776 106.153C36.5154 107.226 33.1559 111.672 32.3272 113.007C31.6385 114.355 28.4804 118.453 28.4804 118.453Z" fill="#FBB116"/>
<path opacity="0.75" d="M83.7138 71.3535C84.7797 69.5888 85.6471 67.834 85.785 67.4093C85.923 66.9845 86.1195 66.5368 86.6693 66.3899C87.1785 66.2252 87.6162 66.2232 88.1958 66.6718C88.7754 67.1204 90.021 68.1525 90.5292 68.7639C91.0374 69.3753 91.0513 70.4492 90.5183 71.3315C89.9447 72.196 89.4167 73.1776 88.4024 74.3825C87.3881 75.5874 85.9738 77.1506 85.6602 77.6439C85.3466 78.1372 85.3079 78.557 85.0816 78.4091C84.896 78.2791 84.6389 78.3119 84.4732 78.5788C84.3074 78.8458 82.1131 81.5226 81.4124 82.2343C80.6889 82.8874 79.4781 84.5399 78.6345 85.5771C77.7502 86.5964 76.5066 87.9918 76.1652 88.3273C75.8238 88.6628 75.4467 89.0796 75.401 88.9625C75.3553 88.8454 75.9975 88.1566 76.5275 87.6127C77.0396 87.1095 77.906 86.1309 78.1482 85.8004C78.3496 85.452 78.4082 85.4292 78.6325 85.1394C78.8568 84.8496 79.0503 84.7404 78.9411 84.5468C78.832 84.3533 78.0826 85.2863 77.8355 85.5175C77.5705 85.7895 76.7498 86.8852 76.2962 87.3656C75.8833 87.8638 75.2462 88.6519 74.9812 88.9238C74.7162 89.1958 74.2477 89.3784 74.0234 89.6682C73.7813 89.9987 73.4756 90.2528 73.3228 90.3799C73.1699 90.5069 71.0807 92.5019 70.6808 92.8602C70.2987 93.1778 68.941 94.2805 68.7703 94.4482C68.5996 94.6159 65.8504 97.3404 65.6211 97.531C65.374 97.7622 63.3821 99.3145 63.2293 99.4416C63.0179 99.5915 62.3579 100.321 62.1286 100.512C61.8993 100.702 60.7302 101.596 60.4245 101.85C60.1188 102.105 59.9303 102.313 59.701 102.504C59.4717 102.694 59.2097 102.628 59.4211 102.478C59.6325 102.328 59.7933 101.962 59.6405 102.089C59.4469 102.198 59.177 102.371 59.047 102.556C58.9169 102.742 58.904 102.882 58.7512 103.009C58.5984 103.136 58.377 103.087 58.1706 103.336C57.9642 103.585 57.857 103.83 57.6863 103.997C57.5156 104.165 54.2146 106.599 52.9998 107.376C51.5458 108.145 43.6407 113.217 41.0404 114.939C38.4401 116.661 30.1588 121.374 28.1242 122.47C26.1303 123.585 23.0417 125.093 22.5782 125.374C22.074 125.638 21.8676 125.888 21.3663 125.813C20.8651 125.739 20.2934 125.051 20.0036 124.827C19.7138 124.602 19.0756 124.177 19.417 123.841C19.7584 123.506 21.1489 122.66 21.536 122.442C21.923 122.223 29.3607 118.548 30.252 118.066C31.1432 117.583 38.8161 113.04 41.7271 111.163C44.638 109.287 51.8692 103.87 54.0497 102.11C56.2302 100.349 64.4559 93.3308 65.4037 92.3879C66.3922 91.4628 68.4198 89.8291 70.0633 88.0754C71.7476 86.3395 73.4497 84.5628 75.2818 82.6006C77.0553 80.6613 78.804 78.2256 79.5534 77.2927C80.3255 76.4183 82.63 73.1589 83.7138 71.3535Z" fill="#FBB116"/>
</g>
<defs>
<clipPath id="clip0_920_8986">
<rect width="45.3745" height="83.194" fill="white" transform="translate(58.4355 144.416) rotate(-156.299)"/>
</clipPath>
</defs>
</svg>
