<svg width="457" height="337" viewBox="0 0 457 337" fill="none" xmlns="http://www.w3.org/2000/svg">
<path d="M329.208 258.748L220.14 258.748L220.14 162.148L323.305 162.148C334.044 162.148 342.75 171.618 342.75 183.3L329.21 258.75L329.208 258.748Z" fill="#BF9A76"/>
<path opacity="0.75" d="M247.288 41.7686C249.937 42.1395 253.019 43.4199 252.071 43.9043C251.182 44.6284 252.654 46.3005 253.724 48.0706C254.795 49.8406 252.491 49.1322 252.899 50.8095C253.307 52.4868 254.202 53.538 253.371 54.5017C252.539 55.4654 253.376 56.277 253.726 57.7147C254.134 59.392 251.772 58.444 251.291 60.8454C250.92 61.9507 251.757 62.7623 252.912 64.0042C253.865 65.295 253.754 66.591 251.885 66.7921C250.015 66.9931 248.035 68.4902 245.016 69.2247C241.997 69.9592 220.834 74.0931 215.517 75.8944C210.2 77.6958 200.864 82.2516 198.566 83.3185C196.124 84.6739 171.309 98.3259 156.439 109.05C141.569 119.775 119.107 140.469 110.481 151.45C101.856 162.432 83.4403 189.248 76.8122 204.058C70.2424 219.108 64.1221 230.749 62.7263 244.287C61.3889 258.064 61.1441 280.712 63.4969 287.754C63.4969 287.754 61.7967 286.898 59.2163 280.673C56.6359 274.449 50.8753 254.277 49.7131 241.616C48.5829 229.962 51.2897 203.415 61.3541 183.454C71.4186 163.493 80.6517 144.495 96.1027 126.523C111.554 108.55 120.296 98.0477 140.075 83.8446C159.795 69.4018 162.898 68.1392 164.275 66.789C165.652 65.4388 166.399 65.0033 168.008 64.6116C169.618 64.2198 170.333 62.7769 171.625 61.9549C172.976 61.3725 188.799 51.9389 206.736 46.8131C224.875 41.6384 240.668 40.8414 247.288 41.7686Z" fill="#C7E0FF"/>
<path opacity="0.75" d="M370.624 111.505C370.624 111.505 358.516 130.948 350.663 140.727C343.012 150.456 318.608 185.074 286.177 201.594C253.746 218.114 227.511 228.558 182.939 236.357C138.368 244.157 115.296 236.065 105.92 228.194C96.5447 220.323 84.1373 199.992 80.8253 189.884C80.8253 189.884 84.7069 216.35 86.4296 224.307C88.2107 232.503 94.3267 255.887 114.587 266.44C134.645 277.042 167.731 276.352 194.502 271.615C221.273 266.878 262.29 254.106 281.873 241.727C301.456 229.348 331.852 206.217 339.022 198.888C346.133 191.321 348.998 187.324 348.05 187.809C347.102 188.293 341.14 195.327 339.763 196.678C338.386 198.028 328.834 206.951 325.275 209.847C322.262 212.357 318.47 214.295 317.724 214.73C318.873 214.197 325.847 208.693 328.314 206.57C330.724 204.207 334.107 200.592 334.796 199.917C335.484 199.242 335.452 198.234 336.4 197.75C337.348 197.265 337.751 197.167 338.238 196.541C338.667 195.675 340.764 194.658 341.595 193.694C342.426 192.73 342.654 191.913 342.94 191.336C343.226 190.759 344.115 190.035 344.343 189.218C344.772 188.352 344.915 188.064 345.863 187.579C346.869 187.335 347.96 186.562 348.187 185.745C348.415 184.928 349.103 184.253 349.506 184.155C349.908 184.057 351.518 183.665 351.947 182.8C352.233 182.222 360.287 172.395 362.749 168.496C365.412 164.549 366.841 161.663 367.27 160.797C367.699 159.932 367.667 158.924 368.07 158.826C368.615 158.44 368.901 157.863 368.843 157.623C368.726 157.144 368.954 156.327 369.499 155.94C370.045 155.554 370.701 153.871 371.696 150.076C372.892 146.232 373.178 145.655 373.208 137.018C373.297 128.621 372.706 114.805 370.624 111.505ZM343.676 160.193C343.046 161.108 342.357 161.783 341.727 162.698C337.142 168.382 325.561 182.113 316.263 189.452C304.094 199.011 286.152 212.006 280.322 215.201C274.491 218.396 273.686 218.592 272.362 218.407C271.038 218.221 271.557 218.603 268.798 219.528C266.039 220.453 263.37 222.625 262.221 223.159C261.072 223.692 249.262 228.596 235.953 232.595C222.444 236.644 200.762 240.397 200.762 240.397C200.762 240.397 235.09 232.552 249.802 226.434C264.715 220.268 270 217.459 272.441 216.103C274.883 214.748 292.38 206.937 308.419 193.136C323.082 180.686 334.589 171.033 341.526 162.747C342.987 160.868 343.819 159.905 343.676 160.193Z" fill="#C7E0FF"/>
<path opacity="0.75" d="M420.596 91.7322C418.742 87.6149 416.505 81.0525 412.49 75.9382C408.474 70.8239 394.771 59.1837 386.185 55.4352C377.599 51.6868 358.681 46.6454 343.597 44.2242C328.37 42.0916 319.424 42.999 314.563 43.1668C309.701 43.3345 303.774 43.5074 300.782 43.4741C297.848 43.6804 280.938 46.0182 274.926 46.7194C269.117 47.3716 259.626 48.6655 254.854 50.0803C250.284 51.4461 232.86 55.1779 229.985 55.6238C227.109 56.0697 219.546 57.4022 215.579 58.6211C211.613 59.8401 204.458 62.8499 200.55 64.3084C196.642 65.767 175.834 73.1139 170.523 76.6905C165.412 80.2181 162.855 81.0942 159.693 82.1173C156.733 83.0914 154.239 85.9825 153.434 86.1783C152.629 86.3742 138.786 94.3108 134.708 96.8257C130.631 99.3407 117.519 111.16 110.064 119.065C102.55 126.731 95.444 136.074 91.3512 142.907C87.2585 149.741 84.1081 154.314 81.7325 167.329C79.4998 180.055 80.1317 188.784 81.6588 198.565C83.1858 208.345 84.3424 219.231 86.9021 227.999C89.4617 236.767 92.5029 243.134 93.716 244.615C93.716 244.615 87.8823 201.365 109.247 170.025C130.41 138.734 173.225 112.327 232.401 91.8375C291.577 71.348 359.353 77.4457 375.111 83.5102C375.111 83.5102 376.202 82.7371 371.133 81.1786C365.863 79.669 359.243 78.7418 359.243 78.7418C359.243 78.7418 363.728 77.9041 374.528 81.114C385.327 84.3238 392.245 88.2244 397.52 91.5092C402.537 94.6035 408.623 99.4677 412.125 105.976C415.568 112.245 419.426 121.966 421.291 129.634C423.157 137.301 423.174 142.627 423.486 141.282C423.798 139.937 425.369 127.119 424.583 115.127C423.596 103.185 422.45 95.8495 420.596 91.7322ZM339.912 52.7348C332.513 51.2357 327.106 51.7899 324.775 51.8493C322.445 51.9087 321.322 51.6743 319.05 51.9733C316.778 52.2723 319.219 50.9169 316.688 51.0252C314.156 51.1336 310.936 51.917 306.996 52.3681C303.056 52.8192 299.428 51.9253 294.799 53.0516C290.372 54.1288 281.855 54.1705 276.363 55.2529C270.871 56.3354 265.178 57.4668 260.692 58.3044C256.207 59.142 252.552 59.016 248.326 60.0443C244.301 61.0236 238.751 61.8664 242.601 60.1682C244.497 59.1993 252.086 57.099 255.91 56.1687C259.532 55.2873 267.958 53.9986 271.035 53.5037C274.112 53.0088 311.328 48.2686 317.429 48.8145C323.53 49.3604 344.307 50.6502 352.972 52.0952C361.436 53.5891 367.659 56.3895 367.659 56.3895C367.659 56.3895 347.311 54.234 339.912 52.7348Z" fill="#C7E0FF"/>
<path opacity="0.75" d="M419.408 89.483C418.656 88.1433 414.546 116.808 410.978 125.798C407.41 134.788 389.969 160.351 379.701 170.717C369.434 181.083 336.025 206.724 332.953 208.994C330.083 211.215 327.695 211.035 325.714 212.532C323.734 214.029 325.566 211.046 322.981 212.69C320.397 214.334 300.295 226.331 296.159 228.607C292.023 230.882 276.713 238.922 270.967 241.589C265.221 244.256 222.119 261.596 205.474 265.9C188.627 270.252 158.694 276.013 147.074 277.317C135.455 278.621 119.746 278.89 108.036 278.947C96.3266 279.005 85.5214 274.02 78.7788 270.838C72.0944 267.896 67.8194 262.591 64.0052 257.428C60.4506 252.455 52.1169 237.478 49.8431 228.133C49.8431 228.133 48.0017 237.21 50.8378 251.494C53.6739 265.779 61.003 290.645 71.9624 298.892C82.9217 307.139 104.903 316.004 132.257 313.663C159.41 311.371 189.025 305.18 193.855 304.005C198.685 302.83 213.519 298.967 216.538 298.232C219.557 297.498 221.511 296.769 223.867 295.941C226.224 295.114 225.673 293.726 224.466 294.019C223.258 294.313 223.719 294.455 221.966 295.135C220.213 295.815 219.525 296.491 218.402 296.256C217.279 296.022 216.675 296.169 215.526 296.702C214.377 297.235 213.715 297.143 212.105 297.534C210.495 297.926 210.897 297.828 209.144 298.509C207.392 299.189 206.438 297.898 206.438 297.898C206.438 297.898 207.73 297.076 209.34 296.684C210.95 296.293 219 294.334 220.552 293.703C221.902 293.12 223.914 292.631 225.382 292.527C226.849 292.424 228.4 291.793 229.608 291.499C230.815 291.205 230.206 289.577 231.413 289.283C232.621 288.989 232.134 289.616 233.744 289.224C235.354 288.832 237.191 287.624 238.6 287.281C240.009 286.938 241.438 284.052 243.451 283.563C245.463 283.073 246.496 282.06 247.19 283.16C247.884 284.261 248.429 283.874 248.254 283.155C248.079 282.436 247.671 280.759 249.022 280.177C250.372 279.594 251.982 279.203 253.677 278.283C255.371 277.363 259.364 275.376 260.773 275.033C262.182 274.69 263.564 275.115 263.564 275.115C263.564 275.115 258.851 276.77 256.955 277.739C255.059 278.708 252.273 280.401 253.883 280.009C255.493 279.617 257.506 279.128 258.713 278.834C259.921 278.54 260.44 278.921 261.933 278.05C263.427 277.179 263.855 276.314 265.81 275.584C267.764 274.855 267.991 274.038 270.004 273.549C272.016 273.059 272.821 272.863 273.626 272.667C274.431 272.471 276.587 271.693 277.937 271.111C279.288 270.528 279.197 269.281 280.548 268.699C281.898 268.117 286.008 266.609 287.358 266.027C288.709 265.444 290.747 264.187 292.039 263.365C293.332 262.543 295.572 261.236 297.123 260.605C298.675 259.974 298.246 260.839 300.46 260.301C302.674 259.762 303.511 260.574 306.524 258.064C309.537 255.554 308.875 255.462 310.453 254.062C312.031 252.663 315.42 250.823 317.718 249.757C320.017 248.69 320.848 247.726 322.055 247.432C323.263 247.138 324.068 246.943 323.633 246.033C323.199 245.124 324.173 243.871 325.01 244.683C325.847 245.494 327.198 244.912 327.198 244.912C329.178 243.415 331.243 241.39 332.451 241.096C333.658 240.802 334.347 240.127 336.528 238.581C338.71 237.035 338.71 237.035 340.061 236.453C341.411 235.87 340.568 233.283 342.263 232.363C343.958 231.443 347.204 229.892 348.983 228.444C350.762 226.996 352.229 226.893 354.009 225.445C355.788 223.997 355.878 225.244 351.054 228.194C346.23 231.144 346.262 232.152 348.014 231.472C349.767 230.791 351.774 228.526 354.417 227.122C357.059 225.718 357.748 225.043 358.378 224.128C359.008 223.213 357.97 222.45 359.606 221.291C361.242 220.131 364.054 217.671 365.69 216.511C367.327 215.352 370.43 214.089 371.807 212.739C373.184 211.388 375.281 210.371 376.456 209.069C377.632 207.768 379.353 206.08 378.548 206.276C377.743 206.472 375.476 208.546 373.496 210.043C371.515 211.541 369.847 211.693 369.847 211.693C369.847 211.693 371.912 209.667 373.951 208.41C375.99 207.152 376.36 206.047 377.997 204.887C379.633 203.728 380.549 202.236 379.945 202.383C379.342 202.53 376.439 203.744 377.816 202.393C379.193 201.043 381.031 199.835 383.154 198.049C385.277 196.263 387.337 192.463 387.337 192.463C387.337 192.463 388.031 193.563 386.972 195.343C385.913 197.124 385.14 198.327 386.978 197.119C388.815 195.91 387.984 196.874 389.848 194.897C391.712 192.921 394.667 190.172 397.219 187.52C399.771 184.869 400.375 184.722 401.291 183.23C402.207 181.738 402.726 182.12 402.207 181.738C401.688 181.357 400.766 181.074 400.766 181.074C402.688 179.337 402.942 177.752 404.377 176.642C405.812 175.531 407.294 171.11 408.613 169.52C409.931 167.93 412.341 165.567 413.055 164.124C413.77 162.681 414.543 161.478 415.745 159.409C416.947 157.34 418.657 152.102 419.313 150.419C419.97 148.737 420.652 146.286 420.848 144.462C421.044 142.638 422.552 137.448 422.874 130.01C425.15 121.842 424.409 96.8956 419.408 89.483ZM370.442 190.482C362.753 197.429 351.993 206.646 349.467 208.53C347.142 210.364 337.117 215.595 332.87 219.167C328.565 222.498 315.697 229.183 311.275 232.035C306.853 234.888 279.681 249.367 270.715 252.817C261.749 256.268 236.462 266.228 231.431 267.452C226.601 268.627 222.92 269.269 221.167 269.949C219.414 270.629 216.771 272.034 214.155 272.67C211.539 273.307 210.708 274.271 208.695 274.76C206.482 275.299 204.872 275.691 202.658 276.229C200.444 276.768 140.409 289.345 129.382 286.952C127.597 286.625 165.676 281.928 168.753 281.433C171.83 280.938 196.53 276.451 204.029 273.104C211.586 269.996 233.983 264.8 239.04 262.809C244.299 260.768 278.949 245.484 282.715 244.314C286.48 243.144 302.473 232.654 307.901 229.557C313.128 226.508 334.527 215.464 341.105 211.833C347.682 208.203 356.43 199.475 362.371 194.984C368.111 190.542 387.529 171.35 391.199 167.158C391.601 167.06 378.274 183.247 370.442 190.482Z" fill="#C7E0FF"/>
<g clip-path="url(#clip0_739_5748)">
<path d="M220.2 39.1787C226.769 25.9551 240.45 17.9579 254.803 16.1313C261.923 15.2223 270.624 15.0563 277.604 16.9528C288.856 20.0206 299.462 26.8378 304.573 37.6055C307.246 43.2428 308.539 49.3608 310.347 55.2953C313.588 65.9319 317.196 76.8482 317.563 88.0617C317.694 92.0384 317.537 96.8803 314.864 100.105C314.654 100.359 314.278 100.289 314.06 100.105C313.877 99.9481 313.693 99.7908 313.51 99.6422C313.143 100.682 312.627 101.644 311.893 102.448C310.793 103.645 310.12 103.462 308.714 103.47C306.696 103.488 305.263 103.785 303.516 104.799C302.712 105.262 301.926 105.725 301.07 106.075C296.64 107.91 292.246 105.769 287.642 106.031C286.952 106.066 286.262 106.11 285.58 106.127C281.239 108.54 274.765 108.47 270.336 108.636C262.343 108.933 254.34 108.365 246.347 108.959C242.678 109.23 239.638 108.845 236.082 107.989C232.526 107.141 228.648 106.608 225.24 105.271C224.14 104.842 223.301 104.248 222.628 103.558C221.79 105.918 220.497 108.828 218.295 107.386C216.819 106.424 216.146 104.021 215.543 102.456C214.617 100.035 214.006 97.5096 213.648 94.9488C212.975 90.168 215.177 49.2822 220.2 39.1787Z" fill="#3F4B69"/>
<path d="M298.641 23.4991C299.759 21.6462 301.043 19.907 302.484 18.2813C303.576 17.0577 304.826 15.8516 306.424 15.467C308.338 15.0038 309.325 16.6032 310.757 17.4772C313.256 19.0155 318.035 19.9856 318.218 23.7089C318.279 24.9062 317.659 26.1211 316.654 26.7766C316.051 27.1699 315.256 27.4583 315.064 28.1575C314.837 28.9704 315.615 29.687 315.912 30.4824C316.349 31.6448 315.685 32.9995 314.662 33.7074C313.64 34.4154 312.365 34.6164 311.124 34.7038C307.167 35.001 303.148 34.4067 299.444 32.9908C298.475 32.6149 297.47 32.1517 296.876 31.2952C295.775 29.7133 296.474 27.537 297.348 25.8152C297.749 25.0286 298.177 24.2507 298.641 23.4991Z" fill="#3F4B69"/>
<path d="M206.318 25.4656C206.659 24.3643 207.454 23.4379 208.397 22.7649C209.437 22.0133 210.66 21.5501 211.874 21.1305C212.328 20.9732 212.8 20.8072 213.115 20.4488C213.333 20.1954 213.438 19.872 213.586 19.5748C214.224 18.2201 215.604 17.25 217.089 17.0927C219.868 16.813 221.291 19.1029 222.663 21.0956C224.305 23.4903 225.878 25.9376 227.136 28.5508C227.826 29.9929 228.429 31.6797 227.809 33.1568C227.162 34.7038 225.424 35.4554 223.825 35.9536C220.243 37.0549 216.452 37.6404 212.73 37.2034C211.586 37.0723 210.415 36.8189 209.498 36.1197C208.581 35.4205 208.013 34.1619 208.406 33.0869C208.712 32.2566 209.55 31.5224 209.297 30.6746C209.07 29.9143 208.144 29.6783 207.48 29.2413C206.405 28.5333 205.96 27.0912 206.222 25.8414C206.248 25.7191 206.283 25.588 206.318 25.4743V25.4656Z" fill="#3F4B69"/>
<path d="M299.043 29.0929C300.092 29.9669 300.834 31.1118 301.253 32.4053C301.481 33.1045 300.38 33.4017 300.161 32.7112C299.803 31.5925 299.139 30.6486 298.24 29.897C297.68 29.425 298.484 28.6296 299.043 29.0929Z" fill="#283556"/>
<path d="M184.704 147.826L157.099 143.561C157.099 143.561 151.997 131.849 154.006 125.985C156.015 120.12 163.651 119.246 172.771 119.788C181.9 120.33 191.851 120.015 191.851 120.015L184.704 147.826Z" fill="#FDA67D"/>
<path d="M341.561 150.806L360.72 164.729C360.72 164.729 360.964 177.804 356.631 182.227C352.289 186.649 345.021 184.15 337.027 179.718C329.034 175.287 319.913 171.276 319.913 171.276L341.57 150.815L341.561 150.806Z" fill="#FDA67D"/>
<path d="M337.027 179.71C337.027 179.71 351.232 171.87 351.302 168.671C351.381 164.913 350.717 166.984 356.046 154.495C358.911 147.774 369.394 125.434 370.242 120.819C370.286 120.575 384.84 124.656 384.84 124.656C383.905 132.199 382.839 139.724 381.669 147.232C379.948 158.279 378.969 171.11 372.312 180.496C363.847 192.418 346.829 187.147 337.027 179.718V179.71Z" fill="#FDA67D"/>
<path d="M204.151 172.84C204.16 173.225 204.186 173.627 204.221 174.011C204.256 174.649 204.291 175.279 204.335 175.917C204.938 184.858 206.152 194.035 206.152 199.06C206.152 207.005 204.248 219.494 204.248 219.494C204.248 219.494 255.406 227.054 271.812 228.191C288.21 229.327 294.369 231.223 297.339 228.191C299.479 226.014 303.306 217.519 306.162 206.148C306.652 204.208 307.106 202.172 307.525 200.083C307.604 199.698 307.683 199.296 307.752 198.912C308.18 196.63 308.565 194.271 308.888 191.858C309.255 189.097 309.77 185.968 310.399 182.611C310.478 182.201 310.557 181.79 310.635 181.37C311.588 176.327 312.749 170.874 313.911 165.525C313.99 165.149 314.069 164.773 314.147 164.397C315.449 158.384 316.742 152.572 317.72 147.756C317.808 147.337 317.886 146.926 317.974 146.533C319.118 140.72 319.756 136.569 319.31 135.581C319.17 135.284 318.742 134.926 318.07 134.515C316.244 133.388 312.636 131.867 308.39 130.285C307.779 130.049 307.141 129.822 306.503 129.594C304.913 129 303.271 128.423 301.628 127.846C299.401 127.077 297.182 126.317 295.068 125.609C288.35 123.38 282.881 121.702 282.881 121.702C282.881 121.702 272.887 119.963 259.835 119.963C248.819 119.963 235.68 118.975 223.379 119.849C221.126 120.007 218.889 120.234 216.705 120.54C216.557 120.566 216.338 120.819 216.067 121.309C215.901 121.615 215.7 121.999 215.491 122.463C214.119 125.434 211.953 131.509 209.874 138.186C209.716 138.693 209.559 139.217 209.393 139.742C209.279 140.091 209.175 140.458 209.061 140.808C208.161 143.779 207.314 146.812 206.58 149.688C206.082 151.628 205.628 153.516 205.261 155.246C205.174 155.64 205.095 156.016 205.025 156.383C204.641 158.279 204.352 159.966 204.221 161.399C203.881 164.747 203.916 168.706 204.134 172.831L204.151 172.84Z" fill="#4A8F87"/>
<path d="M249.501 125.775C249.501 126.002 249.527 126.221 249.553 126.43C249.833 128.17 251.231 129.586 253.039 129.813L261.172 130.888C267.349 131.692 273.63 131.045 279.509 128.983L279.675 128.921C281.152 128.397 282.209 127.069 282.375 125.513L284 110.838L284.183 108.531L285.065 97.335L278.802 99.3801L250.051 108.767L249.885 114.605L249.746 119.325L249.606 122.2L249.553 123.992L249.51 125.504C249.51 125.591 249.501 125.67 249.501 125.766V125.775Z" fill="#FDA67D"/>
<path d="M249.501 125.775C249.501 126.002 249.527 126.221 249.553 126.431C252.882 126.317 257.416 125.705 261.784 124.377C277.098 119.692 284.069 109.667 284.069 109.667C284.069 109.667 281.492 101.382 281.492 100.245C281.492 99.8522 280.418 99.5638 278.801 99.3977L250.051 108.784L249.885 114.623L249.745 119.342L249.606 122.218L249.553 124.01L249.509 125.522C249.509 125.609 249.501 125.688 249.501 125.784V125.775Z" fill="#D28462"/>
<path d="M226.202 85.6757C226.464 88.5687 226.927 91.4442 227.704 94.2934C230.115 103.156 235.47 111.363 243.918 115.427C251.484 119.071 260.351 119.325 268.405 117.306C274.075 115.881 279.614 113.434 284.095 109.658C292.246 102.797 295.286 92.7115 296.125 89.2854C298.021 81.4893 298.894 73.3436 298.65 65.3202C298.492 60.3472 298.056 54.8846 295.776 50.3661C290.211 39.3274 260.805 34.9399 248.094 38.5932C235.374 42.2553 228.779 45.9873 228.071 51.2313C227.11 58.3457 225.904 66.7099 225.87 73.8592C225.852 77.8272 225.861 81.7602 226.219 85.6757H226.202Z" fill="#FDA67D"/>
<path d="M238.31 77.967C238.056 77.1979 237.943 76.3764 237.978 75.5635C238.021 74.6895 238.275 73.7718 238.939 73.2125C241.411 71.1498 243.123 76.5075 243.307 78.0894C243.377 78.7187 243.377 79.3654 243.158 79.9598C242.94 80.5541 242.459 81.0785 241.848 81.2271C240.939 81.4456 240.048 80.8075 239.463 80.0909C238.956 79.4616 238.563 78.7449 238.31 77.9758V77.967Z" fill="black"/>
<path d="M273.962 78.6139C273.761 77.6613 273.778 76.6649 274.023 75.721C274.206 75.0218 274.529 74.3313 275.124 73.9206C277.823 72.0677 278.915 77.9322 278.88 79.4967C278.863 80.0823 278.784 80.6766 278.522 81.1923C278.26 81.7079 277.779 82.1449 277.211 82.2411C276.329 82.3896 275.508 81.7254 274.992 80.9912C274.486 80.2833 274.145 79.4617 273.962 78.6052V78.6139Z" fill="black"/>
<path d="M287.695 72.1987C287.695 72.1987 296.072 65.3465 303.026 68.8512C309.98 72.3647 306.713 85.8069 301.384 90.5178C296.859 94.5207 290.403 96.1026 290.403 96.1026L287.695 72.1987Z" fill="#FDA67D"/>
<path d="M254.69 80.0121C254.917 79.3217 256.009 79.6188 255.782 80.318C255.074 82.503 251.248 87.7296 255.45 88.3501C256.166 88.455 255.86 89.5475 255.144 89.4426C253.606 89.2154 252.471 88.0529 252.296 86.4972C252.034 84.2248 254.017 82.0835 254.681 80.0209L254.69 80.0121Z" fill="#D28462"/>
<path d="M247.981 93.3233C247.981 93.3233 252.751 94.6955 257.844 94.6081C262.937 94.5207 267.296 92.9038 267.296 92.9038C267.296 92.9038 263.942 98.3576 257.652 98.9956C251.362 99.6424 247.99 93.3233 247.99 93.3233H247.981Z" fill="white"/>
<path d="M271.637 66.3166C272.458 65.2766 274.511 65.1804 275.595 65.2329C277.622 65.3465 279.823 65.6436 281.666 66.6575C282.741 67.2518 285.519 69.4281 282.688 69.5417C279.806 69.6553 276.905 69.5155 274.048 69.1222C273.009 68.9736 271.113 68.5366 271.305 67.1032C271.349 66.7973 271.463 66.5351 271.637 66.3166Z" fill="#3F4B69"/>
<path d="M245.517 67.0944C245.709 68.5278 243.814 68.9648 242.774 69.1133C239.917 69.5154 237.017 69.6552 234.134 69.5329C231.802 69.4367 233.619 67.7586 234.58 67.0682C236.528 65.6698 238.869 65.3551 241.228 65.224C242.311 65.1628 244.364 65.2677 245.185 66.3078C245.36 66.5263 245.474 66.7885 245.517 67.0944Z" fill="#3F4B69"/>
<path d="M293.12 87.249C294.326 86.2701 295.575 85.2125 296.212 83.7617C297.112 81.7165 296.247 79.951 295.278 78.1244C294.937 77.4776 295.915 76.9095 296.256 77.5475C297.2 79.3218 298.126 81.2358 297.593 83.2985C297.069 85.3174 295.479 86.7857 293.915 88.053C293.356 88.5075 292.543 87.7122 293.111 87.249H293.12Z" fill="#D28462"/>
<path d="M241.14 57.3756C241 57.5067 240.86 57.629 240.703 57.7426C238.921 59.0012 236.562 57.5329 234.518 57.9262C232.771 58.267 231.242 57.7951 229.539 57.9786C227.678 58.1796 226.236 59.211 224.253 59.1585C224.21 59.1585 224.166 59.1498 224.122 59.1498C223.476 58.2146 223.004 57.1483 222.759 56.0733C221.196 49.1512 227.389 40.6297 232.631 36.7666C239.148 31.9596 247.395 31.8372 255.223 32.4927C255.45 32.2655 255.904 32.2567 256.131 32.5714C257.363 32.685 258.586 32.8161 259.783 32.9472C260.499 33.0259 260.508 34.1621 259.783 34.0834C258.752 33.9698 257.712 33.8562 256.664 33.76C256.804 34.0834 256.935 34.4155 257.083 34.7302C257.31 34.3806 257.939 34.4243 258.088 34.8787C258.796 34.8438 259.512 34.8438 260.228 34.3543C261.05 33.7775 261.652 32.921 262.465 32.3267C265.287 30.2378 268.947 30.0368 272.284 30.6486C280.365 32.1169 289.258 36.3995 295.277 41.9756C300.624 46.9312 306.294 54.9721 304.145 62.6633C303.402 65.3202 301.803 67.9772 298.789 68.0296C296.064 68.0733 292.622 66.8934 291.215 64.42C290.796 63.6771 290.726 62.8031 290.228 62.1126C289.573 61.2037 288.455 60.9852 287.459 60.4695C286.611 60.0325 285.79 59.5518 284.995 59.0187C285.327 59.8315 285.65 60.6443 285.939 61.4834C286.113 61.999 285.519 62.3137 285.109 62.1214C280.645 60.1112 276.687 57.2532 272.896 54.1767C272.974 54.3166 273.053 54.4564 273.123 54.605C273.56 55.444 274.844 57.1658 274.25 58.2321C272.948 60.5831 269.052 56.9473 267.977 56.1083C262.779 52.0441 258.743 46.7215 256.157 40.7171C254.489 42.9982 253.685 45.7339 252.942 48.4345C252.244 50.9779 251.981 53.5911 251.352 56.1345C251.021 57.4804 250.496 58.4681 249.151 58.8788C248.758 59.0012 248.478 58.6778 248.435 58.3282C248.111 55.8985 248.103 53.5125 248.382 51.1527C247.928 52.2015 247.43 53.2328 246.417 53.8621C245.639 54.3428 244.774 54.2641 243.953 54.5875C242.643 55.0944 242.11 56.4491 241.157 57.3756H241.14Z" fill="#3F4B69"/>
<path d="M261.6 23.9362C262.011 23.3331 262.989 23.9012 262.579 24.513C260.211 27.9828 258.735 31.7847 258.132 35.9362C258.027 36.6529 256.935 36.347 257.04 35.6303C257.66 31.3914 259.189 27.4759 261.6 23.9362Z" fill="#283556"/>
<path d="M262.526 35.9537C263.085 41.8008 266.544 46.5554 270.886 50.2874C271.445 50.7681 270.633 51.5634 270.082 51.0915C265.478 47.141 261.975 42.1155 261.39 35.9537C261.32 35.2283 262.456 35.2283 262.526 35.9537Z" fill="#283556"/>
<path d="M272.94 35.6129C274.154 38.9253 275.403 42.3689 277.832 45.0171C279.046 46.3369 280.514 47.4468 282.226 48.0412C283.388 48.452 284.515 48.5044 285.537 49.2298C287.354 50.5146 288.682 52.8569 290.237 54.4476C292.552 56.8162 295.147 58.7127 298.405 59.4993C299.113 59.6741 298.816 60.7666 298.099 60.5918C295.383 59.9276 293.067 58.5642 290.971 56.72C288.167 54.2466 286.297 50.7244 282.75 49.3697C276.504 46.9924 274.049 41.9319 271.839 35.91C271.585 35.2196 272.686 34.9311 272.931 35.6041L272.94 35.6129Z" fill="#283556"/>
<path d="M246.644 50.2088C248.173 44.8424 250.715 39.9829 254.245 35.6566C254.708 35.0885 255.503 35.9013 255.049 36.4607C251.65 40.6384 249.222 45.3318 247.745 50.5147C247.544 51.2139 246.452 50.9167 246.653 50.2088H246.644Z" fill="#283556"/>
<path d="M222.323 34.9487C223.511 33.0696 225.031 31.4789 226.857 30.1941C227.451 29.7746 228.019 30.7535 227.433 31.173C225.782 32.3442 224.393 33.8038 223.31 35.5168C222.917 36.1286 221.938 35.5605 222.331 34.94L222.323 34.9487Z" fill="#283556"/>
<path d="M301.839 25.9551C304.093 22.8612 306.818 20.2304 310.007 18.1066C310.618 17.6958 311.186 18.6834 310.583 19.0855C307.57 21.0957 304.957 23.5953 302.826 26.532C302.398 27.1175 301.419 26.5494 301.847 25.9551H301.839Z" fill="#283556"/>
<path d="M305.726 23.8837C308.006 22.6077 310.409 21.62 312.916 20.9121C313.623 20.7111 313.92 21.8123 313.222 22.0046C310.802 22.6863 308.495 23.639 306.303 24.8626C305.665 25.2209 305.088 24.242 305.726 23.8837Z" fill="#283556"/>
<path d="M215.072 22.6775C218.296 23.8836 221.065 25.8501 223.214 28.5508C223.668 29.1189 222.865 29.923 222.41 29.3549C220.392 26.8115 217.815 24.9062 214.766 23.77C214.085 23.5166 214.382 22.4241 215.072 22.6775Z" fill="#283556"/>
<path d="M208.406 24.3382C212.18 24.2158 215.779 24.9413 219.221 26.4795C219.885 26.7767 219.308 27.7556 218.644 27.4584C215.386 26.0076 211.961 25.3608 208.406 25.4744C207.672 25.5006 207.681 24.3644 208.406 24.3382Z" fill="#283556"/>
<path d="M224.778 54.8411C227.04 46.0923 230.718 37.8679 235.741 30.3603C236.143 29.7572 237.13 30.3253 236.72 30.9371C231.749 38.3661 228.106 46.4943 225.87 55.147C225.686 55.8549 224.594 55.5577 224.778 54.8411Z" fill="#283556"/>
<path d="M220.419 59.2198C221.572 54.4041 222.559 49.2125 225.32 45.026C225.722 44.423 226.7 44.9911 226.298 45.6029C223.607 49.6757 222.629 54.8411 221.511 59.5257C221.345 60.2337 220.244 59.9365 220.419 59.2198Z" fill="#283556"/>
<path d="M311.78 72.1462C314.401 79.8374 314.279 87.9219 314.043 95.9453C314.026 96.6707 312.89 96.6794 312.907 95.9453C313.143 88.0181 313.274 80.0472 310.688 72.4433C310.452 71.7529 311.544 71.4557 311.78 72.1374V72.1462Z" fill="#283556"/>
<path d="M308.923 99.5987C310.085 95.3598 310.609 91.0684 310.504 86.6722C310.487 85.938 311.623 85.938 311.64 86.6722C311.754 91.1733 311.212 95.5608 310.024 99.8959C309.832 100.604 308.74 100.298 308.932 99.59L308.923 99.5987Z" fill="#283556"/>
<path d="M219.763 74.3924C219.841 73.6757 220.977 73.6669 220.898 74.3924C219.885 83.482 218.933 92.6328 220.497 101.714C220.619 102.43 219.527 102.736 219.405 102.02C217.823 92.8251 218.732 83.5956 219.763 74.3924Z" fill="#283556"/>
<path d="M285.947 184.097C285.947 184.473 285.973 184.858 285.982 185.251C286.122 188.362 286.436 191.797 287.004 195.599C287.048 195.975 287.109 196.351 287.17 196.735C287.659 199.855 288.306 203.203 289.153 206.804C294.141 228.094 300.466 217.545 306.162 206.131C307.115 204.217 308.058 202.259 308.967 200.441C309.15 200.074 309.333 199.724 309.499 199.383C311.78 194.926 313.867 191.43 315.623 191.281C322.359 190.713 321.861 188.826 325.46 189.201C329.042 189.577 332.641 187.873 334.537 182.585C334.581 182.463 334.624 182.332 334.686 182.192C334.799 181.877 334.939 181.519 335.096 181.126C336.275 178.154 338.538 173.006 340.748 168.042C340.906 167.692 341.063 167.334 341.229 166.984C344.12 160.49 346.837 154.591 346.837 154.591C346.837 154.591 341.701 150.605 334.939 145.423C334.45 145.047 333.952 144.662 333.445 144.278C332.825 143.797 332.178 143.316 331.532 142.809C325.906 138.518 321.188 135.957 318.096 134.515C315.615 133.361 314.173 132.933 314.173 132.933L299.313 150.116L298.448 151.095L290.691 160.071C290.691 160.071 289.625 161.408 288.498 164.485C288.358 164.834 288.236 165.21 288.105 165.621C286.864 169.449 285.702 175.427 285.973 184.088L285.947 184.097Z" fill="#4A8F87"/>
<path d="M180.04 119.596C180.04 119.596 180.468 127.505 180.966 136.376C180.992 136.744 181.01 137.111 181.036 137.486C181.263 141.769 181.517 146.192 181.726 149.993C181.761 150.387 181.779 150.789 181.796 151.165C182.032 155.159 182.216 158.34 182.303 159.704C182.679 165.184 188.261 166.04 193.931 168.505C195.791 169.309 197.373 170.594 198.989 171.966H198.997C199.565 172.447 200.124 172.919 200.71 173.399H200.718C201.819 174.308 202.999 175.182 204.318 175.916C206.432 177.096 208.939 177.918 212.189 177.918C214.653 177.918 216.522 177.647 217.937 177.184H217.946C218.47 177.018 218.924 176.817 219.318 176.589H219.326C220.086 176.179 220.663 175.689 221.108 175.156C222.253 173.749 222.445 171.992 222.48 170.305C222.489 169.991 222.489 169.37 222.515 168.514C222.515 168.199 222.524 167.858 222.524 167.482C222.55 166.075 222.576 164.24 222.611 162.116C222.62 161.731 222.637 161.329 222.646 160.936C222.725 156.155 222.829 150.142 222.943 144.19C222.943 143.736 222.952 143.29 222.969 142.853C223.083 136.324 223.188 130.005 223.266 125.644C223.275 125.224 223.275 124.813 223.292 124.429C223.336 121.588 223.371 119.858 223.371 119.858C223.371 119.858 218.636 119.788 212.486 119.709H212.477C211.42 119.683 210.337 119.674 209.21 119.666C208.231 119.657 207.236 119.639 206.24 119.631C203.951 119.596 201.61 119.569 199.364 119.552C193.074 119.5 187.51 119.447 185.5 119.5L180.023 119.613L180.04 119.596Z" fill="#4A8F87"/>
<path d="M209.236 119.657C209.568 119.806 209.882 119.954 210.214 120.103C211.988 120.907 213.744 121.702 215.517 122.471C218.094 123.581 220.689 124.648 223.301 125.635C228.735 127.698 234.273 129.437 240.074 130.687C250.662 132.977 261.574 134.969 272.38 135.852C277.657 136.281 282.977 136.307 288.227 135.52C293.539 134.725 298.545 132.872 303.69 131.43C305.254 130.984 306.835 130.599 308.408 130.276C307.796 130.04 307.158 129.813 306.521 129.586C304.782 129.97 303.061 130.425 301.349 130.94C295.889 132.583 290.56 134.279 284.838 134.786C279.229 135.284 273.595 134.943 268.012 134.279C256.69 132.924 245.124 131.019 234.09 128.1C230.456 127.138 226.874 125.862 223.318 124.42C220.899 123.441 218.496 122.393 216.094 121.309C214.906 120.776 213.709 120.234 212.521 119.701H212.512C211.455 119.674 210.372 119.666 209.245 119.657H209.236Z" fill="white"/>
<path d="M180.975 136.377C181.001 136.744 181.018 137.111 181.045 137.487C188.863 137.836 196.656 138.658 204.387 139.951C205.969 140.214 207.532 140.511 209.096 140.817C213.779 141.761 218.4 142.906 222.986 144.19C228.604 145.737 234.151 147.468 239.76 149.233C245.569 151.051 251.309 152.074 257.407 151.855C263.557 151.628 269.628 150.562 275.778 150.378C283.361 150.16 290.927 151.165 298.449 151.104C302.921 151.095 307.377 150.693 311.806 149.443C313.815 148.875 315.79 148.298 317.755 147.765C321.861 146.655 325.95 145.737 330.335 145.51C331.881 145.431 333.41 145.405 334.957 145.431C334.467 145.056 333.969 144.671 333.463 144.286C331.549 144.295 329.636 144.391 327.732 144.557C324.377 144.863 321.171 145.659 318.009 146.541C315.038 147.372 312.086 148.289 309.037 148.997C305.822 149.731 302.581 150.037 299.322 150.134C290.062 150.387 280.679 148.761 271.472 149.495C265.007 150.02 258.551 151.104 252.051 150.667C245.875 150.238 240.057 148.132 234.23 146.209C230.534 144.986 226.795 143.867 223.039 142.862C218.549 141.673 214.014 140.633 209.454 139.759C200.072 137.941 190.567 136.822 181.01 136.385L180.975 136.377Z" fill="white"/>
<path d="M181.735 149.994C181.77 150.387 181.787 150.789 181.805 151.165C189.632 152.572 197.416 154.206 205.051 156.382C207.261 157.02 209.463 157.685 211.647 158.41C215.307 159.634 218.95 160.962 222.654 162.098C225.441 162.946 228.263 163.689 231.137 164.187C237.698 165.324 244.355 165.367 250.985 165.411C263.356 165.481 275.709 165.551 288.088 165.612C289.94 165.621 291.8 165.638 293.644 165.647C300.318 165.682 307.123 165.481 313.92 165.507C321.748 165.551 329.575 165.892 337.175 167.29C338.381 167.509 339.569 167.753 340.749 168.024C340.906 167.675 341.063 167.316 341.229 166.967C338.827 166.407 336.38 165.953 333.926 165.612C327.417 164.703 320.795 164.432 314.165 164.371C306.748 164.301 299.287 164.528 291.958 164.484C290.804 164.476 289.643 164.476 288.489 164.458C275.28 164.388 262.063 164.345 248.845 164.231C241.411 164.17 233.985 163.899 226.752 162.055C225.389 161.705 224.043 161.321 222.689 160.901C217.535 159.337 212.503 157.37 207.34 155.823C206.659 155.622 205.977 155.412 205.296 155.22C197.547 153.009 189.676 151.374 181.743 149.967L181.735 149.994Z" fill="white"/>
<path d="M199.015 171.975C199.582 172.438 200.142 172.919 200.727 173.391H200.736C201.906 173.583 203.059 173.784 204.221 174.002C207.183 174.544 210.136 175.174 213.071 175.873C214.713 176.266 216.338 176.703 217.963 177.166H217.972C222.497 178.425 226.979 179.832 231.539 180.995C237.462 182.507 243.35 183.057 249.457 183.11C261.678 183.223 273.795 184.971 285.982 185.251C286.943 185.277 287.913 185.286 288.874 185.286C295.164 185.295 301.227 184.491 307.368 183.223C308.381 183.022 309.386 182.804 310.399 182.611C315.868 181.51 321.328 180.645 326.98 181.117C329.575 181.335 332.143 181.729 334.694 182.209C334.808 181.895 334.948 181.536 335.105 181.143C330.781 180.313 326.439 179.727 322.001 179.85C318.166 179.954 314.392 180.619 310.644 181.379C308.399 181.842 306.162 182.34 303.917 182.76C297.959 183.905 291.984 184.246 285.956 184.097C285.108 184.071 284.252 184.036 283.387 184.01C276.748 183.695 270.144 182.935 263.53 182.445C257.074 181.982 250.627 182.183 244.189 181.851C235.715 181.423 227.547 178.949 219.361 176.581H219.352C214.914 175.296 210.476 174.046 205.995 173.172C205.383 173.059 204.772 172.936 204.16 172.831C202.448 172.517 200.736 172.22 199.023 171.966L199.015 171.975Z" fill="white"/>
<path d="M245.717 196.796C259.529 197.906 273.358 196.15 287.178 196.744C287.982 196.779 288.803 196.823 289.607 196.884C295.792 197.268 301.637 198.544 307.533 200.083C308.014 200.205 308.494 200.336 308.975 200.459C309.158 200.091 309.342 199.742 309.508 199.401C309.045 199.279 308.591 199.139 308.136 199.016C308.014 198.981 307.883 198.946 307.761 198.912C301.444 197.164 295.102 196.027 288.533 195.678C288.026 195.652 287.519 195.617 287.012 195.608C273.253 195.04 259.476 196.779 245.726 195.669C244.992 195.608 245.001 196.744 245.726 196.805L245.717 196.796Z" fill="white"/>
<path d="M232.955 251.832C232.929 248.214 233.042 244.569 233.287 240.916C233.313 240.523 233.339 240.129 233.374 239.736C233.409 239.098 233.453 238.451 233.514 237.822C234.038 231.512 234.833 225.21 235.672 218.909C235.785 218.14 235.89 217.379 235.986 216.601C236.589 212.205 236.484 207.153 242.023 205.633C249.44 203.605 258.053 203.395 265.724 203.701C273.438 204.007 281.676 204.951 288.935 207.433C295.042 209.522 297.89 213.656 299.489 219.197C299.794 220.255 300.091 221.26 300.397 222.23C302.537 229.169 304.547 234.055 305.569 240.199C305.621 240.575 305.682 240.96 305.735 241.353C305.892 242.489 306.032 243.669 306.111 244.928C306.137 245.085 306.145 245.26 306.145 245.426C306.224 246.562 306.259 247.742 306.268 249.001C306.294 255.084 307.194 258.536 307.7 264.61C308.146 269.889 306.303 281.854 306.687 287.247C306.94 290.778 307.491 294.099 308.574 297.499C309.526 300.497 303.914 258.809 304.403 261.894C305.46 268.65 302.455 284.539 303.162 291.304C303.529 294.765 304.717 297.737 305.966 300.988C307.172 304.135 307.53 307.229 307.434 310.559C307.399 312.123 307.801 314.937 306.508 316.266C306.028 316.755 305.372 316.939 304.717 317.131C302.673 317.725 300.472 318.031 298.375 318.46C290.565 320.05 282.737 321.562 274.892 322.978C271.057 323.669 267.231 324.342 263.396 324.988C261.011 325.399 256.896 326.937 254.537 325.897C252.895 325.172 252.554 323.127 252.074 321.711C250.833 317.988 249.593 314.256 248.343 310.515C246.221 304.135 243.512 297.684 242.455 291.077C241.975 288.114 242.263 285.23 242.342 282.267C242.455 278.273 240.865 275.756 238.594 273.003C238.026 272.295 237.388 271.569 236.742 270.8C233.221 266.666 236.702 306.763 236.266 301.423C235.986 297.857 236.868 294.353 237.104 290.813C237.366 286.862 236.659 282.982 235.838 279.119C233.907 270.012 233.016 260.957 232.955 251.832Z" fill="#C7E0FF"/>
<path d="M180.04 304.884C183.613 286.801 190.567 268.639 193.939 248.529C193.939 248.529 193.983 248.336 194.079 247.969C194.638 246.02 196.534 241.292 198.552 236.493C198.7 236.144 198.858 235.777 199.006 235.427C201.618 229.239 204.256 223.27 204.256 223.27C204.256 223.27 208.965 228.435 212.713 227.386C217.85 225.953 219.239 224.074 224.21 222.212C227.905 220.84 231.696 219.433 235.68 218.9C236.44 218.786 237.2 218.716 237.969 218.681C251.265 218.122 256.568 228.243 258.927 238.845C259.014 239.255 259.11 239.666 259.189 240.068C260.141 244.77 260.552 249.49 260.866 253.353C260.875 253.51 260.892 253.659 260.901 253.807C261.722 263.797 261.128 273.446 256.769 282.754C254.707 287.159 253.388 291.11 253.117 295.62C254.332 294.781 255.581 293.977 256.883 293.251C257.573 292.867 258.202 293.846 257.52 294.23C255.956 295.104 254.48 296.057 253.065 297.106C253.056 297.709 253.065 298.312 253.091 298.941C253.371 304.368 253.764 309.805 254.104 315.241C254.148 315.966 252.89 315.966 252.846 315.241C252.584 311.02 252.322 306.798 252.06 302.577C251.973 301.091 251.859 299.588 251.798 298.084C251.492 298.338 251.178 298.583 250.881 298.836C250.575 303.687 249.527 308.459 247.64 313.039C246.985 314.638 246.163 316.168 245.298 317.68C243.018 321.7 251.414 274.163 250.112 278.55C248.295 284.703 247.343 290.988 245.298 297.106C243.219 303.328 240.564 309.368 237.445 315.215C237.322 315.451 236.99 315.521 236.737 315.477C219.545 312.217 202.169 309.892 184.679 308.52C184.233 308.485 183.998 308.188 184.067 307.803C187.597 288.383 177.867 315.215 180.049 304.91L180.04 304.884Z" fill="#C7E0FF"/>
<path d="M193.939 248.528L232.955 251.832L257.634 253.921L260.858 253.353L306.154 245.426L306.268 245.4C306.268 245.4 306.224 245.233 306.119 244.919C305.936 244.272 305.551 242.987 305.062 241.257C304.957 240.881 304.861 240.488 304.73 240.068C303.49 235.576 301.725 228.82 300.397 222.221C299.602 218.314 298.964 214.46 298.676 211.156C297.296 195.459 296.632 174.885 293.364 172.892C290.097 170.908 271.708 171.835 257.634 170.052C239.742 167.806 219.728 164.808 215.867 168.269C214.128 169.833 204.711 198.859 203.007 208.508C202.055 213.892 199.347 225.691 197.128 235.104C197.041 235.488 196.944 235.864 196.866 236.24C195.538 241.86 194.428 246.431 194.062 247.969C193.974 248.336 193.922 248.528 193.922 248.528H193.939Z" fill="#C7E0FF"/>
<path d="M196.874 236.24C197.433 236.31 197.984 236.397 198.543 236.494C199.39 236.642 200.255 236.791 201.12 236.957C210.153 238.705 219.186 241.178 228.455 241.187C230.089 241.187 231.696 241.073 233.286 240.907C236.108 240.601 238.904 240.077 241.717 239.587C247.255 238.635 252.348 238.853 257.861 239.841C258.306 239.92 258.734 239.998 259.18 240.068C268.117 241.615 277.002 242.472 286.113 241.939C290.962 241.659 295.784 240.802 300.633 240.898C302.118 240.925 303.594 241.056 305.062 241.266C305.289 241.292 305.516 241.318 305.743 241.353C305.691 240.96 305.63 240.566 305.577 240.199C305.298 240.156 305.018 240.121 304.739 240.077C303.21 239.885 301.663 239.771 300.108 239.762C294.526 239.727 288.979 240.759 283.396 240.942C278.321 241.108 273.228 240.907 268.178 240.339C265.068 239.99 261.993 239.395 258.918 238.853C257.022 238.521 255.126 238.215 253.222 237.988C248.487 237.429 243.988 238.032 239.332 238.888C237.322 239.255 235.348 239.535 233.374 239.736C230.185 240.051 226.996 240.121 223.738 239.85C215.369 239.142 207.244 236.913 198.988 235.436C198.368 235.322 197.748 235.217 197.128 235.121C197.04 235.506 196.944 235.882 196.866 236.258L196.874 236.24Z" fill="#89A0BC"/>
<path d="M280.696 175.672L287.467 176.345C288.367 167.098 289.38 158.104 291.879 149.626C293.844 142.932 296.972 135.975 301.637 127.846C299.409 127.077 297.19 126.317 295.076 125.609C290.49 133.711 287.371 140.808 285.344 147.695C282.688 156.75 281.622 166.093 280.696 175.672Z" fill="#C7E0FF"/>
<path d="M199.391 119.543C199.967 123.843 201.741 135.686 204.431 143.587C205.183 145.781 205.908 147.808 206.607 149.696C209.734 158.078 212.407 163.567 214.233 166.879C217.029 171.957 219.091 174.509 221.144 175.156C221.51 175.27 221.869 175.322 222.236 175.322C222.602 175.322 222.961 175.278 223.336 175.165C223.939 174.999 226.874 173.906 225.835 169.51L222.524 170.297L219.265 171.083C219.335 170.489 219.746 169.475 220.829 168.881C221.441 168.549 222.043 168.47 222.55 168.514C223.109 168.557 223.563 168.767 223.756 168.924C223.537 168.758 223.144 168.286 222.568 167.482C220.471 164.519 216.155 156.846 210.879 141.385C210.538 140.388 210.223 139.322 209.9 138.194C208.118 131.727 206.851 123.642 206.266 119.622C203.977 119.587 201.636 119.569 199.391 119.543Z" fill="#C7E0FF"/>
<path d="M312.855 180.452C314.139 177.402 316.035 174.667 317.258 171.564C319.765 165.192 320.97 158.323 322.49 151.663C322.656 150.955 323.748 151.252 323.582 151.969C322.141 158.297 320.962 164.79 318.717 170.9C317.764 173.495 316.506 175.89 315.187 178.311C313.143 182.078 312.697 185.382 313.152 189.621C313.23 190.346 312.095 190.337 312.016 189.621C311.675 186.413 311.579 183.477 312.846 180.452H312.855Z" fill="#336660"/>
<path d="M199.67 142.643C201.295 146.419 201.348 150.334 201.601 154.372C201.924 159.695 202.973 164.93 204.021 170.148C204.161 170.865 203.069 171.171 202.929 170.454C202.055 166.145 201.19 161.819 200.719 157.44C200.212 152.677 200.623 147.704 198.692 143.22C198.404 142.556 199.382 141.979 199.67 142.643Z" fill="#336660"/>
<path d="M281.239 177.988C281.239 176.598 282.366 175.471 283.755 175.471C285.144 175.471 286.271 176.598 286.271 177.988C286.271 179.377 285.144 180.505 283.755 180.505C282.366 180.505 281.239 179.377 281.239 177.988Z" fill="white"/>
<path d="M218.575 173.041C218.575 171.616 219.728 170.471 221.143 170.471C222.558 170.471 223.711 171.625 223.711 173.041C223.711 174.457 222.558 175.611 221.143 175.611C219.728 175.611 218.575 174.457 218.575 173.041Z" fill="white"/>
<path d="M287.013 183.896C287.144 183.896 287.275 183.852 287.38 183.756C287.493 183.66 287.563 183.52 287.581 183.372L288.35 173.259C288.376 172.945 288.14 172.674 287.825 172.648C287.52 172.621 287.24 172.857 287.214 173.172L286.489 182.716L280.347 182.235L281.256 172.691C281.282 172.377 281.055 172.106 280.749 172.071C280.435 172.053 280.164 172.272 280.129 172.578L279.168 182.699C279.151 182.847 279.203 183.005 279.299 183.118C279.395 183.232 279.535 183.31 279.692 183.319L286.978 183.887C286.978 183.887 287.004 183.887 287.022 183.887L287.013 183.896Z" fill="#89A0BC"/>
<path d="M220.541 179.963C220.637 179.963 220.724 179.937 220.811 179.893L227.25 176.441C227.381 176.371 227.486 176.249 227.529 176.109C227.573 175.96 227.556 175.812 227.486 175.672L222.681 166.748C222.532 166.468 222.192 166.372 221.912 166.521C221.633 166.669 221.536 167.01 221.685 167.29L226.219 175.715L220.794 178.626L216.408 170.096C216.269 169.816 215.928 169.702 215.648 169.851C215.369 169.991 215.264 170.34 215.404 170.611L220.051 179.657C220.121 179.788 220.244 179.893 220.383 179.937C220.436 179.954 220.497 179.963 220.549 179.963H220.541Z" fill="#89A0BC"/>
<path d="M220.192 270.186C223.136 274.635 226.15 279.04 229.251 283.384C232.169 287.474 235.017 292.115 238.992 295.288L235.768 284.127C235.567 283.428 236.659 283.122 236.86 283.821C239.752 293.837 242.643 303.844 245.526 313.852C245.727 314.551 244.635 314.857 244.434 314.157C242.774 308.398 241.115 302.647 239.446 296.887C239.332 296.913 239.201 296.887 239.07 296.8C235.113 293.907 232.387 289.677 229.548 285.752C225.992 280.823 222.55 275.824 219.196 270.754C218.794 270.143 219.772 269.575 220.174 270.178L220.192 270.186Z" fill="#ED934E"/>
<path d="M256.883 211.856C261.88 211.856 265.811 209.609 266.938 205.965C268.222 201.831 268.921 189.464 268.947 188.939C268.956 188.782 268.904 188.633 268.799 188.52C268.694 188.406 268.545 188.345 268.388 188.336C268.275 188.336 256.568 188.188 251.248 187.908C245.954 187.628 234.553 185.662 234.44 185.644C234.283 185.618 234.125 185.662 233.994 185.758C233.872 185.854 233.793 186.003 233.776 186.16C233.549 189 233.383 192.007 233.287 195.101C233.269 195.643 233.226 196.29 233.173 196.997C232.902 200.808 232.5 206.568 235.663 208.552C239.594 211.008 245.124 211.235 250.008 211.436C251.781 211.506 253.458 211.576 254.996 211.742C255.642 211.812 256.271 211.847 256.892 211.847L256.883 211.856ZM267.785 189.472C267.628 192.024 266.947 202.128 265.863 205.633C264.754 209.199 260.438 211.209 255.118 210.632C253.546 210.466 251.851 210.387 250.06 210.317C245.325 210.125 239.952 209.898 236.274 207.599C233.689 205.982 234.064 200.633 234.318 197.094C234.37 196.368 234.414 195.713 234.431 195.162C234.527 192.313 234.676 189.534 234.868 186.894C237.331 187.305 246.557 188.826 251.196 189.07C255.843 189.315 265.322 189.455 267.785 189.49V189.472Z" fill="#89A0BC"/>
<path d="M268.807 192.671C268.807 192.671 256.848 192.496 249.282 192.033C244.635 191.745 233.417 190.259 233.417 190.259L233.776 185.793C233.811 185.356 234.23 185.05 234.649 185.163C236.597 185.67 240.965 186.308 250.435 186.85C259.058 187.348 265.828 187.174 268.117 187.296C268.589 187.322 268.947 187.716 268.93 188.188L268.799 192.662L268.807 192.671Z" fill="white"/>
<path d="M384.149 97.0289C384.507 96.6793 385.023 96.6094 385.748 97.0027C389.417 98.9779 388.054 107.062 387.862 110.261C387.679 113.399 387.102 116.362 386.735 119.491C386.307 123.144 384.49 127.348 384.49 127.348C384.49 127.348 379.414 127.147 376.339 125.845C376.435 126.037 376.374 126.317 376.208 126.457C376.156 126.5 376.103 126.544 376.051 126.588C375.815 126.789 375.518 126.754 375.291 126.553C375.256 126.518 375.212 126.483 375.169 126.448C374.994 126.291 374.985 126.107 375.046 125.95C374.557 125.993 374.077 125.897 373.614 125.644C373.037 125.443 372.46 125.233 371.884 125.023C371.272 124.787 370.661 124.543 370.075 124.263C367.769 123.162 366.214 119.849 364.982 117.708C364.144 116.248 358.186 105.786 362.423 105.891C363.454 105.918 364.118 106.8 364.685 107.534C365.996 109.221 367.158 111.03 368.363 112.796C368.783 111.319 369.289 109.868 369.403 108.304C369.551 106.363 369.813 104.231 369.464 102.317C369.045 100.062 368.162 96.6881 369.027 95.8053C371.587 93.192 373.806 98.1039 374.837 102.063C374.941 100.507 375.02 98.9605 374.985 97.4047C374.959 95.9801 374.094 93.3668 375.483 92.2569C376.566 91.3829 377.519 91.7762 378.322 92.7201C378.48 92.2569 378.707 91.8461 379.091 91.5751C380.157 90.8235 381.301 91.4877 382.026 92.3355C383.092 93.5853 383.747 95.2372 384.132 97.0377L384.149 97.0289Z" fill="#FDA67D"/>
<path d="M370.172 113.259C373.946 114.684 376.759 117.743 377.798 121.658C377.991 122.366 376.89 122.663 376.706 121.964C375.772 118.459 373.264 115.645 369.866 114.36C369.193 114.107 369.482 113.006 370.172 113.268V113.259Z" fill="#D28462"/>
<path d="M375.046 103.138C375.151 104.51 375.195 105.883 375.177 107.255C375.169 107.989 374.033 107.989 374.042 107.255C374.059 105.883 374.016 104.51 373.911 103.138C373.858 102.413 374.994 102.413 375.046 103.138Z" fill="#D28462"/>
<path d="M378.445 94.3282C378.375 93.6028 379.51 93.6028 379.58 94.3282C380 98.8643 380.104 103.4 379.886 107.963C379.851 108.688 378.715 108.697 378.75 107.963C378.969 103.409 378.873 98.8731 378.445 94.3282Z" fill="#D28462"/>
<path d="M382.883 106.897C383.512 104.353 383.757 101.784 383.634 99.1616C383.599 98.4274 384.735 98.4362 384.77 99.1616C384.901 101.88 384.639 104.554 383.984 107.194C383.809 107.902 382.717 107.604 382.892 106.888L382.883 106.897Z" fill="#D28462"/>
<path d="M154.872 143.028C142.536 139.733 133.582 123.957 127.187 114.789C122.845 108.557 118.582 102.256 114.433 95.893C114.433 95.893 125.711 85.8332 125.859 86.0342C128.646 89.8099 147.865 105.28 153.387 110.061C163.66 118.94 168.701 120.487 170.422 123.826C171.89 126.675 175.716 126.431 175.716 126.431C179.647 141.289 168.989 146.804 154.863 143.028H154.872Z" fill="#FDA67D"/>
<path d="M127.153 88.5686C127.135 88.6648 127.1 88.7697 127.022 88.8658C124.051 92.5803 116.783 98.541 116.783 98.541C116.783 98.541 108.492 95.2722 104.876 92.7901C102.412 91.1032 95.397 87.7471 95.694 84.1637C95.7639 83.3508 96.2007 82.7303 96.7685 82.3632C95.1087 80.8949 93.6934 79.1818 93.8245 76.9007C93.8856 75.782 94.3661 75.0653 95.0388 74.6807C94.8291 74.3137 94.6282 73.9378 94.471 73.562C93.9992 72.4258 94.0079 71.211 94.7505 70.1884C95.9561 68.5103 97.7208 69.0522 99.4942 70.1184C99.634 69.2532 100.892 67.9334 102.237 68.0034C104.911 68.1432 112.79 74.0078 117.246 77.6698C117.429 75.1614 115.708 73.0464 115.403 70.6166C115.184 68.8599 115.927 66.0281 118.181 67.6363C120.155 69.0434 121.212 71.1847 122.252 73.2911C123.422 75.6596 124.506 78.0631 125.484 80.5103C126.034 81.8825 126.305 83.2897 126.567 84.7405C126.724 85.632 126.742 87.0479 127.319 87.7995C127.554 88.1054 127.415 88.4113 127.161 88.5686H127.153Z" fill="#FDA67D"/>
<path d="M120.792 92.2744C116.485 89.6523 115.664 84.6705 117.298 80.1694C117.551 79.479 116.45 79.1818 116.206 79.8635C114.397 84.8541 115.507 90.3778 120.224 93.2532C120.853 93.6378 121.421 92.6502 120.801 92.2744H120.792Z" fill="#D28462"/>
<path d="M108.606 77.5476C106.107 75.2315 103.443 73.1251 100.63 71.2023C100.027 70.7915 99.5204 71.8054 100.114 72.2161C102.849 74.0865 105.426 76.1492 107.855 78.3953C108.387 78.8935 109.148 78.0457 108.615 77.5476H108.606Z" fill="#D28462"/>
<path d="M104.683 81.6117C102.028 79.3742 99.2582 77.2941 96.3753 75.3538C95.7725 74.943 95.2658 75.9656 95.8686 76.3677C98.6642 78.2555 101.355 80.2832 103.941 82.4595C104.5 82.9314 105.251 82.0836 104.692 81.6117H104.683Z" fill="#D28462"/>
<path d="M104.613 86.602C102.525 85.3347 100.463 84.0325 98.4278 82.6953C97.8163 82.2932 97.2484 83.2808 97.8512 83.6741C99.8955 85.0114 101.957 86.3136 104.036 87.5809C104.665 87.9655 105.233 86.9779 104.613 86.602Z" fill="#D28462"/>
</g>
<path d="M284.569 254.387L391.979 254.387C391.979 254.387 348.246 363.294 222.899 330.68C97.5511 298.065 38.0326 359.64 8.31319 317.239C-21.4063 274.837 38.1122 253.177 38.1122 253.177L284.569 254.387Z" fill="#F2F2F2"/>
<path d="M245.741 279.889L193.203 298.691L193.203 295.099L193.213 295.103L239.889 278.242L245.326 276.277C245.615 276.172 245.86 275.995 245.911 275.748C246.111 274.762 246.145 276.501 246.148 279.301C246.148 279.565 245.986 279.801 245.743 279.887L245.741 279.889Z" fill="#CCCCCC"/>
<path d="M246.148 274.526L246.148 274.848C246.099 275.197 245.884 275.522 245.481 275.671L240.021 277.685L193.141 294.976C193.141 294.976 193.138 294.976 193.131 294.972C192.837 294.897 185.409 292.963 184.987 292.963C184.719 292.963 184.366 291.212 184.14 289.901C184.005 289.119 183.915 288.492 183.915 288.492L185.631 273.612L245.141 273.612C245.726 273.612 246.084 274.047 246.148 274.526Z" fill="#B3B3B3"/>
<path d="M195.115 291.26L215.67 283.33C216.884 282.862 216.552 281.043 215.254 281.043L193.203 281.043L195.115 291.26Z" fill="#808080"/>
<path d="M193.977 294.976L46.7706 294.976C44.2159 294.976 41.9692 293.287 41.2657 290.837L22.4135 190.748C21.6141 186.505 24.8757 182.583 29.2025 182.583L180.39 182.583C183.26 182.583 185.685 184.701 186.067 187.538L199.653 288.502C200.114 291.928 197.442 294.976 193.977 294.976Z" fill="#E6E6E6"/>
<defs>
<clipPath id="clip0_739_5748">
<rect width="294.449" height="281.445" fill="white" transform="matrix(-1 0 0 1 388.264 15.7908)"/>
</clipPath>
</defs>
</svg>
