<svg width="61" height="198" viewBox="0 0 61 198" fill="none" xmlns="http://www.w3.org/2000/svg">
<g opacity="0.57">
<path opacity="0.75" d="M17.1774 21.2656C14.8095 20.1516 14.2681 20.1445 11.6794 19.3525C9.19749 18.6702 7.59177 17.2413 6.96055 15.8252C6.32933 14.4091 6.56434 13.0043 7.12275 11.7121C7.68116 10.4199 8.22538 10.2104 9.10295 9.35553C9.98052 8.50066 11.1971 6.56727 11.9636 5.92754C12.6217 5.28639 13.2898 3.8873 14.2771 2.92557C15.2644 1.96385 16.6918 0.46641 17.9827 1.1331C19.2735 1.79979 19.7023 2.1303 19.9019 3.43246C20.2097 4.73605 20.8409 6.15216 21.8069 6.8146C22.7729 7.47703 25.1181 10.3235 25.9786 10.7679C26.8392 11.2124 29.2 12.8677 30.0534 13.8536C30.9069 14.8394 32.5211 15.6187 33.4828 16.6059C34.4445 17.5932 38.6191 21.33 39.5794 22.4255C40.5397 23.521 42.9961 26.1523 43.7441 26.9202C44.3824 27.7949 47.0581 30.2125 47.4827 30.8678C47.9073 31.5232 49.5088 33.2769 50.1485 34.0434C50.6814 34.7001 52.0719 36.0179 52.9211 37.3286C53.7703 38.6392 56.2267 41.2705 56.647 42.2507C57.0673 43.2309 58.4565 44.6569 58.5563 45.308C58.656 45.9591 59.1818 47.1572 59.387 48.0263C59.4839 48.8939 58.8101 50.7261 58.3543 52.4529C57.8971 54.2879 56.5651 56.7613 56.2233 58.0564C55.7732 59.35 54.7859 60.3117 53.9239 59.9756C53.062 59.6394 52.5404 58.1164 52.2241 57.4625C51.9078 56.8086 49.7919 52.9905 49.3702 52.1186C48.9484 51.2467 44.1625 44.5779 42.3473 42.6048C40.5321 40.6317 39.1316 40.0719 39.3581 39.3168C39.4749 38.6685 39.046 38.338 38.2923 38.0032C37.4304 37.6671 36.8975 37.0103 36.2578 36.2439C35.6166 35.5857 31.2326 31.3047 30.1597 30.5326C29.0855 29.8687 26.5152 27.6691 25.4438 26.7887C24.3724 25.9083 24.1487 26.4468 23.6201 25.4653C23.0915 24.4837 21.6825 24.5735 21.1524 23.7002C20.4016 23.1489 18.4696 21.824 17.1774 21.2656Z" fill="#C7E0FF"/>
<path opacity="0.75" d="M47.4468 99.7431C47.9924 99.4254 48.6591 98.1346 49.1149 96.4078C49.5566 95.7638 49.9982 95.1199 50.2204 94.6896C50.8828 93.7236 52.1278 89.6247 52.3571 88.653C52.5836 87.8979 52.5893 87.4648 52.2673 87.244C52.0621 86.3749 51.7486 85.5045 51.4394 84.3091C51.0304 82.4628 48.8989 79.8357 46.6606 77.099C44.4236 74.254 30.2044 60.2058 28.1712 58.3381C26.1381 56.4705 24.1148 53.8448 25.4113 54.0784C26.8161 54.3134 33.2858 56.4558 36.735 57.6923C37.9204 58.141 43.8586 59.5183 45.1551 59.7519C46.4502 60.0938 52.404 60.2801 53.7076 59.9723C55.0112 59.6645 55.4514 59.1288 56.007 58.0531C56.5626 56.9774 57.1224 55.5769 57.4586 54.7149C57.7948 53.853 59.0255 50.8368 59.366 49.65C59.705 48.5715 58.4241 47.1469 57.8856 46.9232C57.8856 46.9232 55.8269 47.0046 54.2027 46.9833C52.6868 46.9634 47.6021 46.5719 46.6276 46.5591C45.6531 46.5464 42.7296 46.508 41.3291 45.9482C39.9286 45.3884 33.8891 43.4682 32.1681 42.5793C30.3387 41.689 23.7664 39.112 22.155 38.1162C20.4354 37.1191 13.0068 33.7728 11.6063 33.213C10.2058 32.6532 9.549 33.186 8.45772 33.8215C7.47471 34.4584 6.9092 36.292 6.02596 37.58C5.14271 38.868 3.4774 41.9867 2.70527 43.0596C2.70527 43.0596 1.82203 44.3476 2.01731 45.9746C2.21258 47.6016 2.21541 47.385 3.14735 50.6461C4.07928 53.9072 6.13371 54.1507 7.51151 56.443C8.88932 58.7352 13.923 63.0247 15.9562 64.8924C17.9893 66.7601 29.4388 77.3065 31.4648 79.7156C31.9977 80.3723 32.958 81.4679 34.1321 82.7828C32.7301 82.3313 31.4351 81.9894 30.5717 81.7615C27.765 81.0749 23.8826 79.8328 22.0447 79.5921C20.0971 79.4583 17.4914 79.9657 16.8275 81.0399C16.1623 82.2225 14.9358 84.9138 13.7234 86.5223C12.5111 88.1309 11.0638 91.1442 11.0453 92.5518C11.0269 93.9594 12.4401 93.5447 13.6312 93.5604C14.8222 93.576 17.0876 94.2554 18.7046 94.8181C20.3231 95.2725 23.352 95.5288 25.1828 96.3108C27.015 96.9846 33.2795 98.258 33.9263 98.483C34.5731 98.7081 42.8921 100.225 44.8382 100.467C45.2699 100.581 45.7044 100.478 46.0307 100.374C46.3498 100.812 46.8997 100.169 47.4468 99.7431Z" fill="#C7E0FF"/>
<path opacity="0.75" d="M16.8279 81.0392C16.157 82.6548 13.2964 86.0828 12.5115 88.1302C11.8349 90.1789 9.63526 92.7492 12.8325 96.6898C16.0297 100.63 23.1179 105.163 27.0631 109.872C30.9001 114.579 35.4808 120.378 38.4672 123.883C38.4672 123.883 33.824 122.848 30.362 122.586C26.9 122.324 23.6247 124.338 22.183 126.919C20.7414 129.499 19.2954 132.404 18.6146 134.777C17.9351 137.043 18.9725 140.522 20.3517 142.706C21.7324 144.781 24.7301 147.42 25.7916 149.058C26.9613 150.698 34.6637 157.946 33.9984 159.129C33.3331 160.311 30.0394 163.734 28.8214 165.775C27.6034 167.817 24.8326 172.654 25.2387 174.717C25.6449 176.78 27.4516 179.403 28.6242 180.826C29.7968 182.249 32.2659 183.906 33.4456 184.788C34.6238 185.778 35.2707 186.003 37.5019 189.281C39.7332 192.559 39.3058 192.12 40.9058 193.982C42.5058 195.844 42.5087 195.628 42.7295 195.306C42.842 194.982 42.9503 194.984 43.1683 194.878C43.3862 194.773 43.6028 194.776 43.7082 194.994C43.922 195.213 44.2425 195.542 44.4534 195.978C44.6643 196.414 45.086 197.286 45.0903 196.961C45.0946 196.636 44.9877 196.527 45.2057 196.421C45.4237 196.316 45.6402 196.319 45.7442 196.645C45.8482 196.971 46.0591 197.407 46.3868 197.195C46.7145 196.983 47.1533 196.555 47.1533 196.555C47.1533 196.555 47.3684 196.666 47.2644 196.34C47.0521 196.012 46.7329 195.575 46.7357 195.358C46.7386 195.142 47.28 195.149 47.3868 195.259C47.4937 195.368 48.0266 196.025 48.236 196.569C48.5538 197.115 48.6635 197.008 48.8743 197.444C49.0852 197.88 49.5155 198.102 49.4129 197.668C49.3103 197.233 48.994 196.579 48.7831 196.143C48.5708 195.816 48.3599 195.38 48.253 195.27C48.1476 195.052 48.0408 194.942 48.1504 194.835C48.2601 194.729 48.8029 194.627 48.8029 194.627C48.8029 194.627 49.1264 194.74 49.3401 194.959C49.5538 195.179 49.551 195.395 49.6564 195.613C49.8701 195.833 50.0895 195.619 50.2006 195.404C50.3103 195.297 50.5368 194.542 50.4299 194.432C50.3245 194.214 49.9013 193.451 49.9042 193.234C49.907 193.017 44.8346 183.421 43.9854 182.11C43.243 180.909 40.2708 176.322 39.8491 175.45C39.4273 174.578 39.0084 173.49 39.5526 173.28C40.0969 173.071 43.6199 168.677 44.5074 167.064C45.2866 165.45 48.0532 160.938 48.4021 159.101C48.6442 157.155 48.7965 153.8 47.1978 151.83C45.5992 149.859 35.4633 138.247 35.4633 138.247C35.4633 138.247 43.7907 139.114 44.6569 139.126C45.5231 139.137 46.1756 138.929 46.9449 138.073C47.7142 137.216 52.2628 128.937 52.6004 127.967C52.938 126.997 53.4194 123.321 53.1045 122.559C52.7896 121.797 49.7418 114.717 47.72 111.983C45.6982 109.25 40.6872 103.228 39.7283 102.024C38.7708 100.712 34.4152 94.2652 33.5674 92.8462C32.8279 91.4287 22.8574 83.7173 21.6919 81.7527C20.4181 79.7867 19.4564 78.7994 18.6928 79.2226C18.0374 79.6472 16.8279 81.0392 16.8279 81.0392Z" fill="#C7E0FF"/>
</g>
</svg>
