<svg width="16" height="16" viewBox="0 0 16 16" fill="none" xmlns="http://www.w3.org/2000/svg">
<path d="M13.6647 10.3431C12.7933 9.47181 11.7562 8.82678 10.6247 8.43631C11.8366 7.60159 12.6328 6.20463 12.6328 4.625C12.6328 2.07478 10.558 0 8.00781 0C5.45759 0 3.38281 2.07478 3.38281 4.625C3.38281 6.20463 4.17903 7.60159 5.391 8.43631C4.25944 8.82678 3.22231 9.47181 2.35097 10.3431C0.839969 11.8542 0.0078125 13.8631 0.0078125 16H1.25781C1.25781 12.278 4.28584 9.25 8.00781 9.25C11.7298 9.25 14.7578 12.278 14.7578 16H16.0078C16.0078 13.8631 15.1757 11.8542 13.6647 10.3431ZM8.00781 8C6.14684 8 4.63281 6.486 4.63281 4.625C4.63281 2.764 6.14684 1.25 8.00781 1.25C9.86878 1.25 11.3828 2.764 11.3828 4.625C11.3828 6.486 9.86878 8 8.00781 8Z" fill="black"/>
</svg>
