<svg width="128" height="55" viewBox="0 0 128 55" fill="none" xmlns="http://www.w3.org/2000/svg">
<path d="M32.8637 0.000415318C26.4356 0.0543365 21.2663 5.36557 21.3199 11.8361C21.3734 18.3067 26.6499 23.5101 33.078 23.4561C39.5061 23.4022 44.6754 18.091 44.6218 11.6204C44.5683 5.14989 39.2918 -0.0535059 32.8637 0.000415318ZM33.0244 18.1719C29.4889 18.1988 26.5963 15.341 26.5427 11.7822C26.5159 8.2234 29.355 5.31165 32.8905 5.28469C36.426 5.25773 39.3186 8.11555 39.3454 11.6744C39.4258 15.2331 36.5599 18.1449 33.0244 18.1719Z" fill="#F37E60"/>
<path d="M32.944 8.78955C31.337 8.81651 30.0514 10.1376 30.0514 11.7552C30.0782 13.3729 31.3906 14.667 32.9976 14.667C34.6046 14.64 35.8903 13.3189 35.8903 11.7013C35.8903 10.0837 34.5511 8.78955 32.944 8.78955Z" fill="#F37E60"/>
<path d="M38.2206 31.5445H30.1051V24.8313H24.8019V43.5689H30.1051V36.8288H38.2206V43.5689H43.4434V24.8313H38.2206V31.5445Z" fill="#003C56"/>
<path d="M8.14225 21.461H13.3651V8.03462H20.0611V2.72339H1.44629V8.03462H8.14225V21.461Z" fill="#003C56"/>
<path d="M119.831 16.2576L115.117 22.1978L119.197 25.4788L123.911 19.5387L119.831 16.2576Z" fill="#003C56"/>
<path d="M16.0167 32.8385L21.4539 24.8042H4.71396V30.0346H11.5706L6.74953 37.1791L11.0885 40.1448L12.9902 37.3139C15.7489 37.9879 17.7845 40.4683 17.7845 43.434C17.7845 46.9119 14.9722 49.7427 11.5171 49.7427C8.06194 49.7427 5.24963 46.9119 5.24963 43.434H0C0 49.8236 5.16928 55.0001 11.4903 55.0001C17.838 55.0001 22.9805 49.7967 22.9805 43.434C23.0073 38.7159 20.1147 34.6179 16.0167 32.8385Z" fill="#003C56"/>
<path d="M122.777 24.8313L114.662 35.0494V24.8313H109.385V43.5689H114.635H114.662L122.777 33.2969V43.5689H128V24.8313H122.777Z" fill="#003C56"/>
<path d="M92.7793 21.9194C95.2434 21.9194 97.5468 20.7871 99.3145 18.8998V21.4611H104.537V2.72347H99.3145V4.2063C98.5646 3.53228 97.6807 3.02003 96.7165 2.66955C95.913 2.39994 95.0827 2.26514 94.2256 2.26514C90.342 2.26514 86.7797 5.096 85.3602 9.27489C83.5924 14.4513 85.8155 19.9513 90.3152 21.515C91.0651 21.7846 91.9222 21.9194 92.7793 21.9194ZM90.2348 10.8116C90.9044 8.87048 92.5382 7.57637 94.3328 7.57637C94.7345 7.57637 95.1095 7.63029 95.4845 7.7651C97.5468 8.49303 98.5914 11.0004 97.7611 13.3999C97.0915 15.341 95.4577 16.6351 93.6632 16.6351C93.2614 16.6351 92.8864 16.5812 92.5115 16.4464C90.4491 15.7185 89.4045 13.1842 90.2348 10.8116Z" fill="#003C56"/>
<path d="M52.7642 44.0002C55.2283 44.0002 57.5317 42.8679 59.2994 40.9806V43.5419H64.5223V24.8043H59.2994V26.2871C58.5495 25.6131 57.6656 25.1008 56.7014 24.7504C55.8979 24.4808 55.0676 24.3459 54.2105 24.3459C50.3268 24.3459 46.7646 27.1768 45.345 31.3557C43.5773 36.5321 45.8004 42.0321 50.3 43.5958C51.0768 43.8654 51.9339 44.0002 52.7642 44.0002ZM50.2197 32.8925C50.8893 30.9513 52.5231 29.6572 54.3176 29.6572C54.7194 29.6572 55.0944 29.7111 55.4693 29.8459C57.5317 30.5738 58.5763 33.0812 57.746 35.4807C57.0764 37.4218 55.4425 38.7159 53.648 38.7159C53.2463 38.7159 52.8713 38.662 52.4963 38.5272C50.434 37.7993 49.4162 35.265 50.2197 32.8925Z" fill="#003C56"/>
<path d="M101.618 24.8313L93.5024 35.0494V24.8313H88.226V43.5689H93.4756L101.618 33.2969V43.5689H106.841V24.8313H101.618Z" fill="#003C56"/>
<path d="M59.2994 2.75035V7.81894C59.2994 10.1915 57.5317 12.0248 55.2283 12.0248C52.9517 12.0248 51.1572 10.1645 51.1572 7.81894V2.72339H45.8807V7.81894C45.8807 13.0493 50.059 17.3091 55.2015 17.3091C56.6746 17.3091 58.0674 16.9586 59.2727 16.3654V21.488H64.4955V7.81894V2.75035H59.2994Z" fill="#003C56"/>
<path d="M85.253 2.72339H78.932L74.5662 9.16697H72.2896V2.72339H67.0668V21.461H72.2896V14.4512H75.0751L79.8159 21.461H86.1369L79.3606 11.4317L85.253 2.72339Z" fill="#003C56"/>
<path d="M80.4855 31.5445H72.3432V24.8313H67.0668V43.5689H72.3432V36.8288H80.4855V43.5689H85.6815V24.8313H80.4855V31.5445Z" fill="#003C56"/>
</svg>
