<svg width="135" height="48" viewBox="0 0 135 48" fill="none" xmlns="http://www.w3.org/2000/svg">
<path fill-rule="evenodd" clip-rule="evenodd" d="M61.4094 7.1V6H53.6094V7.1H56.9094V17.5H58.1094V7.1H61.4094ZM68.4094 13.5C68.4094 12.3 68.2094 11.2 67.4094 10.3C66.9094 9.7 66.1094 9.4 65.1094 9.4C64.1094 9.4 63.4094 9.7 62.8094 10.3C62.0094 11.1 61.8094 12.2 61.8094 13.5C61.8094 14.8 62.0094 15.8 62.8094 16.7C63.3094 17.3 64.1094 17.6 65.1094 17.6C66.1094 17.6 66.8094 17.3 67.4094 16.7C68.2094 15.8 68.4094 14.7 68.4094 13.5ZM67.2094 13.5C67.2094 14.4 67.2094 15.3 66.6094 15.9C66.2094 16.3 65.7094 16.5 65.2094 16.5C64.6094 16.5 64.2094 16.3 63.8094 15.9C63.2094 15.3 63.2094 14.3 63.2094 13.5C63.2094 12.6 63.3094 11.6 63.8094 11.1C64.2094 10.7 64.7094 10.5 65.2094 10.5C65.8094 10.5 66.3094 10.7 66.6094 11.1C67.2094 11.6 67.2094 12.6 67.2094 13.5ZM76.3094 17.4V9.5H75.1094V13.3C74.6094 13.4 73.8094 13.6 72.9094 13.6C72.0094 13.6 71.5094 13.2 71.5094 12.2V9.5H70.3094V12.4C70.3094 14 71.2094 14.7 72.6094 14.7C73.5094 14.7 74.4094 14.5 75.0094 14.4V17.5H76.3094V17.4ZM80.4094 17.4V9.5H79.2094V17.4H80.4094ZM85.7094 17.4L81.8094 13.2L85.4094 9.5H84.0094L80.4094 13.3L84.1094 17.4H85.7094ZM92.7094 17.4V12.1C92.7094 10.4 91.7094 9.5 89.5094 9.5C88.2094 9.5 87.4094 9.8 86.7094 10.7L87.5094 11.4C88.0094 10.7 88.5094 10.5 89.5094 10.5C91.0094 10.5 91.5094 11.1 91.5094 12.2V13H89.1094C87.3094 13 86.4094 13.9 86.4094 15.3C86.4094 15.9 86.6094 16.5 87.0094 16.9C87.5094 17.4 88.1094 17.6 89.2094 17.6C90.3094 17.6 90.9094 17.4 91.5094 16.7V17.5H92.7094V17.4ZM91.5094 14.6C91.5094 15.3 91.4094 15.7 91.1094 16C90.6094 16.5 90.0094 16.5 89.3094 16.5C88.0094 16.5 87.5094 16.1 87.5094 15.1C87.5094 14.2 88.1094 13.7 89.3094 13.7H91.5094V14.6Z" fill="black"/>
<path fill-rule="evenodd" clip-rule="evenodd" d="M59.8078 41.0996C63.3078 41.0996 65.9078 39.0996 65.9078 35.9996C65.9078 34.0996 64.9078 32.7996 63.4078 32.0996C64.7078 31.3996 65.6078 30.0996 65.6078 28.3996C65.6078 25.4996 63.2078 23.6996 59.8078 23.6996C56.6078 23.6996 54.1078 25.4996 53.5078 28.9996H56.8078C57.1078 27.5996 58.0078 26.4996 59.7078 26.4996C61.2078 26.4996 62.2078 27.2996 62.2078 28.5996C62.2078 29.9996 61.3078 30.7996 59.9078 30.7996H57.7078V33.4996H59.9078C61.6078 33.4996 62.5078 34.3996 62.5078 35.7996C62.5078 37.1996 61.4078 38.0996 59.8078 38.0996C58.1078 38.0996 57.2078 36.9996 56.9078 35.6996H53.6078C54.2078 39.2996 56.7078 41.0996 59.8078 41.0996ZM79.4078 40.8996V28.3996H76.3078V33.0996H72.3078V28.3996H69.2078V40.8996H72.3078V35.8996H76.3078V40.8996H79.4078ZM92.3078 40.8996V32.6996C92.3078 29.7996 90.5078 28.2996 87.0078 28.2996C84.9078 28.2996 83.7078 28.6996 82.5078 30.0996L84.5078 31.9996C85.2078 31.1996 85.8078 30.8996 86.9078 30.8996C88.6078 30.8996 89.2078 31.4996 89.2078 32.8996V33.4996H86.3078C83.3078 33.4996 82.0078 35.0996 82.0078 37.0996C82.0078 38.1996 82.4078 39.1996 83.0078 39.8996C83.7078 40.5996 84.8078 40.9996 86.2078 40.9996C87.6078 40.9996 88.4078 40.5996 89.3078 39.7996V40.8996H92.3078ZM89.2078 36.2996C89.2078 37.0996 89.1078 37.5996 88.7078 37.8996C88.2078 38.3996 87.6078 38.4996 86.9078 38.4996C85.6078 38.4996 85.0078 37.8996 85.0078 37.0996C85.0078 36.1996 85.6078 35.6996 86.8078 35.6996H89.2078V36.2996ZM105.908 40.8996V28.3996H102.808V33.0996H98.8078V28.3996H95.7078V40.8996H98.8078V35.8996H102.808V40.8996H105.908ZM120.108 40.8996V28.3996H117.008L112.608 35.7996V28.3996H109.408V40.8996H112.508L116.908 33.2996V40.8996H120.108ZM132.708 23.5996H130.408C130.308 24.6996 129.708 25.0996 128.908 25.0996C128.008 25.0996 127.408 24.6996 127.408 23.5996H125.008C125.108 26.1996 127.008 26.9996 128.908 26.9996C130.708 26.9996 132.708 26.1996 132.708 23.5996ZM134.208 40.8996V28.3996H131.108L126.708 35.7996V28.3996H123.608V40.8996H126.708L131.108 33.2996V40.8996H134.208Z" fill="black"/>
<ellipse cx="20.4877" cy="46.0988" rx="6.519" ry="1.39693" fill="#50679D"/>
<path d="M20.4888 11.1755C12.7899 11.1755 6.51953 17.5182 6.51953 25.3058C6.51953 37.0181 18.9365 44.2828 19.4801 44.7541C20.0582 45.2579 20.9194 45.2579 21.4975 44.7541C22.0404 44.2828 34.4581 37.0181 34.4581 25.3058C34.4581 17.5182 28.1877 11.1755 20.4888 11.1755ZM20.4888 33.156C16.2049 33.156 12.728 29.6391 12.728 25.3058C12.728 20.9725 16.2049 17.4556 20.4888 17.4556C24.7728 17.4556 28.2496 20.9725 28.2496 25.3058C28.2496 29.6391 24.7728 33.156 20.4888 33.156Z" fill="url(#paint0_linear_2001_3085)"/>
<path fill-rule="evenodd" clip-rule="evenodd" d="M5.38346 27.1058L3.36228 13.0806L1.65625 27.1058H5.38346Z" fill="#FEA970"/>
<path fill-rule="evenodd" clip-rule="evenodd" d="M3.61637 10.8297C3.85596 10.9084 4.03042 11.152 4.03042 11.4415C4.03042 11.7944 3.77074 12.0798 3.45076 12.0798C3.13078 12.0798 2.87109 11.7944 2.87109 11.4415C2.87109 11.1625 3.0335 10.9245 3.26022 10.8385V9.77002H3.61557V10.8297H3.61637Z" fill="#2B3D67"/>
<path fill-rule="evenodd" clip-rule="evenodd" d="M3.00781 11.8513C3.11394 11.9912 3.27393 12.0796 3.45241 12.0796C3.63089 12.0796 3.78847 11.9912 3.8954 11.8529V13.2583H3.38889L3.36317 13.0814L3.34146 13.2583H3.00862V11.8513H3.00781Z" fill="#FEAA71"/>
<path d="M20.2558 6.07869C20.1513 6.08029 20.046 6.0827 19.9415 6.08592C19.9383 6.08592 19.9351 6.08592 19.931 6.08592C19.8289 6.08914 19.7268 6.09316 19.6247 6.09798C19.6183 6.09798 19.6119 6.09798 19.6054 6.09878C19.5057 6.10361 19.406 6.10924 19.3071 6.11647C19.2983 6.11647 19.2887 6.11728 19.2798 6.11808C19.1825 6.12451 19.0853 6.13255 18.988 6.14059C18.9767 6.14139 18.9647 6.1422 18.9534 6.14381C18.8585 6.15185 18.7629 6.16149 18.668 6.17114C18.6543 6.17275 18.6399 6.17355 18.6262 6.17516C18.5329 6.18481 18.4405 6.19526 18.3472 6.20652C18.3311 6.20812 18.3151 6.21054 18.2982 6.21214C18.2073 6.2234 18.1165 6.23546 18.0248 6.24832C18.0063 6.25073 17.9886 6.25315 17.9701 6.25636C17.8809 6.26923 17.7917 6.28209 17.7024 6.29656C17.6823 6.29978 17.6622 6.30299 17.6421 6.30621C17.5545 6.31988 17.4669 6.33515 17.3792 6.35043C17.3567 6.35445 17.335 6.35847 17.3125 6.36249C17.2265 6.37776 17.1404 6.39384 17.0552 6.40992C17.0311 6.41474 17.0078 6.41957 16.9837 6.42359C16.8993 6.44047 16.8156 6.45736 16.7312 6.47504C16.7055 6.48067 16.679 6.4863 16.6532 6.49193C16.5704 6.50961 16.4884 6.5281 16.4056 6.5466C16.3775 6.55303 16.3501 6.55946 16.322 6.56589C16.2408 6.58438 16.1604 6.60368 16.0792 6.62378C16.0495 6.63101 16.0197 6.63825 15.9908 6.64629C15.9112 6.66639 15.8316 6.68649 15.7528 6.70739C15.7214 6.71543 15.6901 6.72427 15.6595 6.73231C15.5815 6.75322 15.5036 6.77492 15.4256 6.79663C15.3926 6.80628 15.3597 6.81512 15.3267 6.82477C15.2503 6.84648 15.1739 6.86899 15.0976 6.8915C15.063 6.90195 15.0284 6.9124 14.9938 6.92285C14.9191 6.94537 14.8443 6.96868 14.7687 6.9928C14.7326 7.00406 14.6964 7.01611 14.6594 7.02817C14.5862 7.05229 14.5123 7.07561 14.4391 7.10053C14.4013 7.1134 14.3627 7.12626 14.3249 7.13912C14.2534 7.16324 14.181 7.18816 14.1095 7.21389C14.0701 7.22756 14.0299 7.24203 13.9905 7.2565C13.9197 7.28223 13.849 7.30715 13.779 7.33368C13.738 7.34896 13.6962 7.36504 13.6552 7.38031C13.5861 7.40604 13.517 7.43257 13.4478 7.4591C13.4044 7.47599 13.3618 7.49287 13.3184 7.50975C13.2508 7.53628 13.1833 7.56282 13.1158 7.59015C13.0707 7.60864 13.0257 7.62713 12.9815 7.64562C12.9156 7.67296 12.8497 7.70029 12.7837 7.72763C12.7371 7.74773 12.6905 7.76783 12.6438 7.78793C12.5795 7.81526 12.5152 7.8434 12.4509 7.87154C12.4026 7.89325 12.3536 7.91495 12.3054 7.93666C12.2427 7.9648 12.1799 7.99294 12.1172 8.02188C12.0674 8.0452 12.0167 8.06851 11.9669 8.09183C11.9058 8.12077 11.8447 8.14891 11.7828 8.17785C11.7305 8.20278 11.6775 8.2285 11.6244 8.25423C11.5657 8.28237 11.507 8.31051 11.4483 8.34025C11.3929 8.36759 11.3366 8.39653 11.2811 8.42387C11.2248 8.45201 11.1694 8.48015 11.1131 8.50828C11.0544 8.53803 10.9957 8.56939 10.937 8.59994C10.8839 8.62727 10.8301 8.65461 10.777 8.68355C10.7143 8.71651 10.6516 8.75108 10.5889 8.78485C10.539 8.81138 10.49 8.83791 10.4402 8.86444C10.3694 8.90303 10.2979 8.94323 10.2271 8.98263C10.1861 9.00594 10.1443 9.02845 10.1033 9.05096C9.99074 9.11448 9.87818 9.1788 9.76562 9.24392V15.9177C13.3288 13.8475 16.8261 12.7951 20.2566 12.7516V6.07788L20.2558 6.07869Z" fill="#50679D"/>
<path d="M30.4779 9.04792C30.4433 9.02702 30.4096 9.00692 30.375 8.98682C30.3026 8.9434 30.2303 8.89999 30.1579 8.85738C30.1177 8.83406 30.0775 8.81075 30.0373 8.78824C29.9706 8.74965 29.9039 8.71106 29.8371 8.67327C29.7953 8.64996 29.7535 8.62744 29.7125 8.60413C29.6474 8.56795 29.5815 8.53097 29.5163 8.49559C29.4745 8.47308 29.4327 8.45057 29.3901 8.42806C29.325 8.39269 29.2591 8.35811 29.1939 8.32354C29.1529 8.30184 29.1119 8.28093 29.0709 8.26003C29.0042 8.22546 28.9383 8.19089 28.8716 8.15793C28.8314 8.13783 28.7912 8.11773 28.7502 8.09843C28.6826 8.06467 28.6151 8.0317 28.5484 7.99874C28.509 7.97944 28.4696 7.96095 28.4302 7.94246C28.3618 7.9095 28.2927 7.87734 28.2244 7.84518C28.1866 7.82749 28.148 7.81061 28.1102 7.79292C28.0402 7.76076 27.9703 7.72941 27.9004 7.69805C27.8634 7.68117 27.8256 7.6659 27.7886 7.64901C27.7179 7.61846 27.6463 7.58711 27.5756 7.55736C27.5394 7.54208 27.5032 7.52761 27.467 7.51234C27.3947 7.48259 27.3223 7.45204 27.2499 7.4231C27.2154 7.40943 27.18 7.39576 27.1454 7.38209C27.0715 7.35315 26.9975 7.3234 26.9235 7.29526C26.8898 7.2824 26.856 7.27034 26.8222 7.25748C26.7467 7.22934 26.6719 7.2012 26.5963 7.17387C26.5642 7.16181 26.532 7.15055 26.4998 7.13929C26.4227 7.11196 26.3455 7.08462 26.2683 7.05809C26.2377 7.04764 26.2072 7.03719 26.1766 7.02674C26.0979 7.00021 26.0191 6.97448 25.9411 6.94875C25.9113 6.93911 25.8824 6.93026 25.8526 6.92061C25.7722 6.89489 25.6927 6.86996 25.6123 6.84585C25.5841 6.837 25.556 6.82896 25.5286 6.82092C25.4466 6.7968 25.3646 6.77268 25.2826 6.74937C25.2561 6.74213 25.2296 6.7349 25.2038 6.72766C25.1202 6.70435 25.0366 6.68184 24.953 6.66013C24.9281 6.6537 24.9024 6.64726 24.8774 6.64083C24.7922 6.61913 24.707 6.59742 24.6218 6.57652C24.5985 6.57089 24.5743 6.56526 24.551 6.55963C24.4642 6.53873 24.3774 6.51863 24.2905 6.49933C24.2688 6.49451 24.2463 6.48969 24.2246 6.48486C24.1362 6.46557 24.0469 6.44627 23.9585 6.42858C23.9384 6.42456 23.9183 6.42054 23.8982 6.41652C23.8073 6.39884 23.7173 6.38115 23.6265 6.36427C23.608 6.36105 23.5887 6.35703 23.5702 6.35382C23.4777 6.33693 23.3853 6.32166 23.2928 6.30638C23.2759 6.30397 23.2582 6.30075 23.2413 6.29834C23.1473 6.28307 23.0532 6.26859 22.9584 6.25493C22.9431 6.25252 22.9278 6.2501 22.9117 6.2485C22.816 6.23483 22.7196 6.22196 22.6231 6.2099C22.6094 6.2083 22.595 6.20669 22.5813 6.20508C22.4832 6.19302 22.3851 6.18177 22.287 6.17212C22.275 6.17051 22.2629 6.16971 22.2509 6.1681C22.1512 6.15765 22.0507 6.1488 21.951 6.13996C21.9405 6.13916 21.9301 6.13835 21.9204 6.13755C21.8183 6.1287 21.7162 6.12147 21.6141 6.11504C21.6061 6.11504 21.5972 6.11423 21.5892 6.11343C21.4855 6.107 21.381 6.10137 21.2772 6.09654C21.2708 6.09654 21.2636 6.09654 21.2571 6.09574C21.151 6.09092 21.0449 6.0869 20.9388 6.08449C20.934 6.08449 20.9299 6.08449 20.9251 6.08449C20.8166 6.08207 20.708 6.07966 20.5987 6.07886C20.5963 6.07886 20.5939 6.07886 20.5915 6.07886C20.4805 6.07886 20.3688 6.07886 20.2578 6.07966V12.7534C23.8443 12.7084 27.3585 13.7656 30.8003 15.9195V9.2457C30.6942 9.17897 30.5872 9.11385 30.4811 9.04873L30.4779 9.04792Z" fill="#384C7B"/>
<path d="M20.2552 0L0 8.67324L9.76422 12.9841V9.24486C9.87678 9.17974 9.98934 9.11542 10.1019 9.05191C10.1429 9.02859 10.1847 9.00608 10.2257 8.98357C10.2965 8.94417 10.368 8.90398 10.4388 8.86539C10.4886 8.83805 10.5376 8.81232 10.5875 8.78579C10.6502 8.75202 10.7129 8.71826 10.7756 8.68449C10.8287 8.65635 10.8825 8.62902 10.9356 8.60088C10.9943 8.57033 11.053 8.53978 11.1117 8.50923C11.168 8.48028 11.2234 8.45295 11.2797 8.42481C11.3352 8.39667 11.3915 8.36853 11.4469 8.3412C11.5056 8.31225 11.5643 8.28411 11.623 8.25517C11.6761 8.22944 11.7283 8.20372 11.7814 8.17879C11.8425 8.14985 11.9036 8.12091 11.9655 8.09277C12.0153 8.06945 12.066 8.04533 12.1158 8.02282C12.1785 7.99388 12.2413 7.96574 12.304 7.9376C12.3522 7.9159 12.4012 7.89338 12.4495 7.87248C12.5138 7.84434 12.5781 7.8162 12.6424 7.78887C12.6891 7.76877 12.7357 7.74867 12.7823 7.72857C12.8483 7.70043 12.9142 7.6731 12.9801 7.64657C13.0251 7.62807 13.0702 7.60958 13.1144 7.59109C13.1819 7.56376 13.2494 7.53723 13.317 7.51069C13.3604 7.49381 13.403 7.47612 13.4464 7.46004C13.5156 7.43351 13.5847 7.40698 13.6538 7.38125C13.6948 7.36598 13.7366 7.3499 13.7776 7.33462C13.8484 7.30809 13.9191 7.28317 13.9891 7.25744C14.0285 7.24297 14.0687 7.2285 14.1081 7.21483C14.1796 7.18911 14.252 7.16499 14.3235 7.14006C14.3613 7.1272 14.3999 7.11353 14.4377 7.10147C14.5109 7.07655 14.5848 7.05324 14.658 7.02912C14.6942 7.01706 14.7304 7.0058 14.7673 6.99374C14.8421 6.96962 14.9177 6.94711 14.9924 6.9238C15.027 6.91334 15.0616 6.90289 15.0962 6.89244C15.1725 6.86993 15.2489 6.84742 15.3253 6.82571C15.3583 6.81606 15.3912 6.80642 15.4242 6.79757C15.5022 6.77587 15.5801 6.75416 15.6581 6.73325C15.6895 6.72521 15.7208 6.71637 15.7514 6.70833C15.831 6.68743 15.9106 6.66733 15.9894 6.64723C16.0191 6.63999 16.0489 6.63276 16.0778 6.62472C16.159 6.60462 16.2394 6.58532 16.3206 6.56683C16.3487 6.5604 16.3761 6.55397 16.4042 6.54754C16.487 6.52905 16.569 6.51055 16.6518 6.49287C16.6776 6.48724 16.7041 6.48161 16.7298 6.47598C16.8142 6.4583 16.8987 6.44141 16.9823 6.42453C17.0064 6.41971 17.0297 6.41488 17.0538 6.41086C17.1399 6.39398 17.2259 6.3787 17.3111 6.36343C17.3336 6.35941 17.3553 6.35539 17.3778 6.35137C17.4655 6.33609 17.5531 6.32162 17.6407 6.30715C17.6608 6.30393 17.6809 6.30072 17.701 6.2975C17.7903 6.28383 17.8795 6.27017 17.9687 6.2573C17.9872 6.25489 18.0049 6.25248 18.0234 6.24926C18.1143 6.2364 18.2059 6.22434 18.2968 6.21309C18.3128 6.21148 18.3289 6.20907 18.3458 6.20746C18.4391 6.1962 18.5315 6.18575 18.6248 6.1761C18.6385 6.17449 18.6529 6.17289 18.6666 6.17208C18.7615 6.16244 18.8571 6.15359 18.952 6.14475C18.9633 6.14394 18.9753 6.14314 18.9866 6.14153C19.0839 6.13349 19.1811 6.12545 19.2784 6.11902C19.2873 6.11902 19.2969 6.11822 19.3057 6.11741C19.4054 6.11098 19.5051 6.10455 19.604 6.09973C19.6105 6.09973 19.6169 6.09973 19.6233 6.09892C19.7254 6.0941 19.8275 6.09008 19.9296 6.08686C19.9328 6.08686 19.9361 6.08686 19.9401 6.08686C20.0454 6.08365 20.1499 6.08123 20.2544 6.07963C20.3654 6.07802 20.4771 6.07802 20.5881 6.07882C20.5905 6.07882 20.5929 6.07882 20.5953 6.07882C20.7039 6.07882 20.8132 6.08123 20.9217 6.08445C20.9266 6.08445 20.9306 6.08445 20.9354 6.08445C21.0415 6.08686 21.1476 6.09088 21.2538 6.09571C21.2602 6.09571 21.2674 6.09571 21.2739 6.09651C21.3784 6.10133 21.4821 6.10696 21.5858 6.11339C21.5938 6.11339 21.6027 6.1142 21.6107 6.115C21.7128 6.12143 21.8149 6.12947 21.917 6.13751C21.9275 6.13832 21.9379 6.13912 21.9476 6.13992C22.0481 6.14877 22.1478 6.15761 22.2475 6.16806C22.2595 6.16967 22.2716 6.17048 22.2837 6.17208C22.3817 6.18253 22.4798 6.19379 22.5779 6.20505C22.5916 6.20665 22.606 6.20826 22.6197 6.20987C22.7162 6.22193 22.8119 6.23479 22.9083 6.24846C22.9236 6.25087 22.9389 6.25248 22.955 6.25489C23.049 6.26856 23.1439 6.28303 23.238 6.29831C23.2549 6.30072 23.2725 6.30393 23.2894 6.30635C23.3819 6.32162 23.4743 6.3377 23.5668 6.35378C23.5853 6.357 23.6046 6.36021 23.6231 6.36423C23.7139 6.38112 23.8048 6.398 23.8948 6.41649C23.9149 6.42051 23.935 6.42453 23.9551 6.42855C24.0444 6.44624 24.1328 6.46553 24.2212 6.48483C24.2429 6.48965 24.2654 6.49447 24.2872 6.4993C24.374 6.51859 24.4608 6.53869 24.5476 6.5596C24.571 6.56522 24.5951 6.57085 24.6184 6.57648C24.7036 6.59738 24.7888 6.61829 24.8741 6.6408C24.899 6.64723 24.9247 6.65366 24.9496 6.66009C25.0332 6.6818 25.1168 6.70512 25.2005 6.72763C25.227 6.73486 25.2535 6.7421 25.2792 6.74933C25.3613 6.77265 25.4433 6.79677 25.5253 6.82089C25.5534 6.82893 25.5815 6.83777 25.6089 6.84581C25.6893 6.86993 25.7689 6.89485 25.8493 6.92058C25.879 6.93023 25.908 6.93907 25.9377 6.94872C26.0165 6.97445 26.0953 7.00017 26.1733 7.0267C26.2038 7.03716 26.2344 7.0468 26.2649 7.05806C26.3421 7.08459 26.4193 7.11193 26.4965 7.13926C26.5286 7.15052 26.5608 7.16177 26.5929 7.17383C26.6685 7.20117 26.7433 7.2293 26.8189 7.25744C26.8526 7.27031 26.8864 7.28237 26.9202 7.29523C26.9941 7.32337 27.0681 7.35231 27.1421 7.38206C27.1766 7.39573 27.212 7.40939 27.2466 7.42306C27.3189 7.452 27.3913 7.48256 27.4636 7.5123C27.4998 7.52758 27.536 7.54205 27.5722 7.55732C27.6429 7.58707 27.7145 7.61843 27.7852 7.64898C27.8222 7.66506 27.86 7.68114 27.897 7.69802C27.9669 7.72937 28.0369 7.76073 28.1068 7.79289C28.1446 7.81058 28.1832 7.82746 28.221 7.84515C28.2893 7.87731 28.3585 7.90946 28.4268 7.94243C28.4662 7.96092 28.5056 7.97941 28.545 7.9987C28.6125 8.03167 28.68 8.06463 28.7468 8.0984C28.787 8.1185 28.8272 8.13779 28.8682 8.15789C28.9349 8.19166 29.0008 8.22623 29.0676 8.25999C29.1086 8.2809 29.1496 8.3018 29.1906 8.32351C29.2557 8.35808 29.3216 8.39345 29.3867 8.42803C29.4285 8.45054 29.4704 8.47224 29.513 8.49556C29.5781 8.53093 29.644 8.56791 29.7091 8.60409C29.7509 8.62741 29.7927 8.64992 29.8337 8.67324C29.9005 8.71102 29.9672 8.74961 30.0339 8.7882C30.0741 8.81152 30.1143 8.83403 30.1545 8.85734C30.2269 8.89996 30.2992 8.94337 30.3716 8.98678C30.4062 9.00769 30.4399 9.02698 30.4745 9.04789C30.5814 9.1122 30.6876 9.17813 30.7937 9.24486V12.5813L40.5057 8.62098L20.2552 0Z" fill="#2B3D67"/>
<defs>
<linearGradient id="paint0_linear_2001_3085" x1="20.4888" y1="11.1755" x2="20.4888" y2="45.6331" gradientUnits="userSpaceOnUse">
<stop stop-color="#FFCA42"/>
<stop offset="1" stop-color="#FDB77D"/>
</linearGradient>
</defs>
</svg>
