<svg width="31" height="31" viewBox="0 0 31 31" fill="none" xmlns="http://www.w3.org/2000/svg">
<path d="M30.6195 28.7932L21.8044 19.9782C23.5119 17.869 24.54 15.189 24.54 12.27C24.54 5.50473 19.0353 0 12.27 0C5.50467 0 0 5.50467 0 12.27C0 19.0353 5.50474 24.54 12.27 24.54C15.189 24.54 17.869 23.5119 19.9782 21.8044L28.7932 30.6195C29.0451 30.8713 29.3757 30.9979 29.7064 30.9979C30.037 30.9979 30.3677 30.8713 30.6195 30.6195C31.1245 30.1145 31.1245 29.2982 30.6195 28.7932ZM12.27 21.9568C6.92804 21.9568 2.58318 17.612 2.58318 12.27C2.58318 6.92798 6.92804 2.58312 12.27 2.58312C17.612 2.58312 21.9569 6.92798 21.9569 12.27C21.9569 17.612 17.612 21.9568 12.27 21.9568Z" fill="#87A3E3"/>
</svg>
