<svg width="14" height="14" viewBox="0 0 14 14" fill="none" xmlns="http://www.w3.org/2000/svg">
<path d="M7.79081 7.41564L12.9185 12.5435C13.2522 12.877 13.2522 13.4163 12.9185 13.7498C12.585 14.0834 12.0457 14.0834 11.7122 13.7498L6.58432 8.62206L1.45666 13.7498C1.12295 14.0834 0.583831 14.0834 0.250282 13.7498C-0.0834273 13.4163 -0.0834273 12.877 0.250282 12.5435L5.3779 7.41564L0.250322 2.28787C-0.0833873 1.95432 -0.0833873 1.415 0.250322 1.08149C0.329441 1.00214 0.423459 0.939217 0.526974 0.896321C0.630488 0.853424 0.741459 0.831404 0.85351 0.831527C1.07188 0.831527 1.29032 0.915115 1.4567 1.08149L6.58432 6.20927L11.7122 1.08149C11.7913 1.00216 11.8853 0.939237 11.9888 0.896342C12.0923 0.853446 12.2033 0.83142 12.3154 0.831527C12.5337 0.831527 12.7522 0.915115 12.9185 1.08149C13.2522 1.41504 13.2522 1.95432 12.9185 2.28787L7.79081 7.41564Z" fill="black"/>
</svg>
