<svg width="21" height="14" viewBox="0 0 21 14" fill="none" xmlns="http://www.w3.org/2000/svg">
<path d="M5.50781 13C5.50781 13.5523 5.95555 14 6.50781 14H19.5078C20.0601 14 20.5078 13.5523 20.5078 13C20.5078 12.4477 20.0601 12 19.5078 12H6.50781C5.95555 12 5.50781 12.4478 5.50781 13ZM19.5078 8H1.50781C0.955547 8 0.507812 7.55223 0.507812 7C0.507812 6.44774 0.955547 6 1.50781 6H19.5078C20.0601 6 20.5078 6.44774 20.5078 7C20.5078 7.55223 20.0601 8 19.5078 8ZM19.5078 2H10.5078C9.95559 2 9.50781 1.55227 9.50781 1C9.50781 0.447775 9.95559 0 10.5078 0H19.5078C20.0601 0 20.5078 0.447775 20.5078 1C20.5078 1.55227 20.0601 2 19.5078 2Z" fill="black"/>
</svg>
