<svg width="192" height="22" viewBox="0 0 192 22" fill="none" xmlns="http://www.w3.org/2000/svg">
<path opacity="0.75" d="M2.08761 13.1843C0.732018 14.4137 -1.01088 16.1608 0.732018 17.3255C2.47492 18.5549 5.18609 20.3666 6.60623 20.949C8.02637 21.596 9.44651 19.9784 10.1566 19.4607C10.9312 18.9431 11.5767 16.7431 12.1577 16.4196C12.7387 16.0961 13.5133 15.3843 14.0942 15.0608C14.6752 14.7372 16.9991 12.4725 18.4838 11.8255C19.9685 11.1784 21.7114 10.5314 24.2289 10.6608C26.811 10.7902 28.3602 12.2137 29.974 13.7667C31.5232 15.3196 36.3646 18.3607 38.3012 19.5902C40.2377 20.8196 45.1437 22.3725 46.822 21.9196C48.5004 21.4666 51.2115 19.0078 53.4709 18.0372C55.7302 17.0666 58.054 15.5137 59.926 14.8666C61.798 14.2196 64.6383 13.3137 65.7357 13.1843C66.8331 13.0549 69.0924 12.2784 69.9961 13.249C70.8353 14.2196 75.0957 17.2608 77.6132 18.4902C80.1308 19.7196 82.7128 19.5255 84.7785 18.6843C86.8442 17.9078 88.5225 17.0666 89.1035 16.549C89.6844 16.0313 90.6527 14.9961 91.8146 13.9608C92.9766 12.9255 96.0751 10.1431 97.9471 10.0784C99.8191 10.0137 100.658 10.402 101.949 11.049C103.176 11.6961 106.081 13.1196 106.791 13.1843C107.501 13.249 108.985 12.9255 109.76 12.6019C110.535 12.2784 114.15 9.88431 114.15 9.88431C114.15 9.88431 116.215 8.91373 117.184 8.20197C118.152 7.4902 118.539 6.77844 119.507 6.64903C120.411 6.51962 121.186 6.39021 121.186 6.39021C121.186 6.39021 126.802 11.1137 130.223 12.7961C133.644 14.4784 136.162 15.3196 137.453 15.449C138.744 15.5137 141.907 15.3196 143.585 14.8666C145.264 14.4137 148.814 13.7019 150.815 13.8314C152.816 13.9608 157.012 14.5431 157.722 14.9314C158.432 15.3196 163.854 16.9372 165.533 17.196C167.147 17.4549 173.795 17.649 175.087 17.7137C176.378 17.7784 181.864 17.9078 182.445 17.9725C183.026 17.9725 186.77 19.7196 188.771 19.9784C190.773 20.3019 191.676 20.1725 191.935 19.2666C192.193 18.3607 191.676 17.5843 190.579 17.3255C189.482 17.0666 187.158 15.6431 185.35 14.8019C183.543 13.9608 182.316 13.5078 179.734 13.1843C177.152 12.8608 173.214 11.3078 170.051 11.3725C166.888 11.3725 164.306 11.6314 161.595 11.049C158.884 10.5314 157.27 9.6902 153.462 8.71961C149.653 7.74903 146.167 7.55491 143.004 8.13726C139.841 8.71961 136.485 9.62549 134.419 9.88431C132.353 10.1431 130.094 8.52549 127.964 6.90785C125.833 5.29021 123.639 2.24905 120.928 0.954937C118.216 -0.27447 115.699 -0.468587 113.375 1.27846C111.051 3.02552 107.243 5.35492 105.951 6.00198C104.596 6.64903 102.918 7.10197 101.175 6.06668C99.4318 5.03139 96.5915 2.31375 93.9448 3.41375C91.2982 4.57845 86.715 7.81373 84.3912 9.88431C82.0673 11.9549 77.5487 13.7667 75.7412 12.7314C73.9338 11.6961 70.8353 8.5902 67.9305 7.4902C65.0256 6.39021 60.8298 6.51962 58.1831 7.10197C55.6011 7.68432 50.8242 10.402 48.3713 11.6961C45.9183 13.0549 41.1415 15.7078 39.334 15.0608C37.5266 14.4137 34.7508 11.6314 33.137 10.4667C31.5232 9.23726 26.9401 5.67845 23.9061 4.77257C20.8076 3.86669 16.6118 3.41375 11.6413 6.3255C6.73534 9.36667 2.08761 13.1843 2.08761 13.1843Z" fill="#FFCA42"/>
</svg>
