<svg width="296" height="12" viewBox="0 0 296 12" fill="none" xmlns="http://www.w3.org/2000/svg">
<path opacity="0.75" d="M3.21839 4.80856C1.12853 4.13798 -1.55844 3.18504 1.12853 2.54975C3.8155 1.87916 7.99523 0.890933 10.1846 0.573287C12.374 0.220347 14.5634 1.1027 15.6581 1.38505C16.8523 1.6674 17.8475 2.8674 18.7431 3.04387C19.6388 3.22034 20.833 3.60857 21.7286 3.78504C22.6243 3.96151 26.2069 5.1968 28.4958 5.54974C30.7847 5.90268 33.4717 6.25562 37.3529 6.18503C41.3336 6.11444 43.722 5.33797 46.2099 4.49092C48.5983 3.64386 56.0621 1.98505 59.0477 1.31446C62.0332 0.643875 69.5965 -0.20318 72.1839 0.0438776C74.7714 0.290936 78.9511 1.63211 82.4342 2.16152C85.9174 2.69093 89.5 3.53798 92.386 3.89092C95.272 4.24386 99.6507 4.73798 101.343 4.80856C103.034 4.87915 106.517 5.30268 107.911 4.77327C109.204 4.24386 115.773 2.58504 119.654 1.91446C123.535 1.24387 127.516 1.34975 130.7 1.80858C133.885 2.2321 136.472 2.69093 137.368 2.97328C138.264 3.25563 139.756 3.82033 141.548 4.38504C143.339 4.94974 148.116 6.46738 151.002 6.50268C153.888 6.53797 155.181 6.32621 157.172 5.97327C159.063 5.62033 163.541 4.84386 164.636 4.80856C165.73 4.77327 168.019 4.94974 169.213 5.12621C170.408 5.30268 175.981 6.60856 175.981 6.60856C175.981 6.60856 179.165 7.13797 180.658 7.5262C182.151 7.91443 182.748 8.30267 184.241 8.37326C185.634 8.44384 186.828 8.51443 186.828 8.51443C186.828 8.51443 195.486 5.93797 200.76 5.02033C206.035 4.10268 209.916 3.64386 211.906 3.57327C213.897 3.53798 218.773 3.64386 221.361 3.89092C223.948 4.13798 229.421 4.52621 232.506 4.45562C235.592 4.38504 242.06 4.06739 243.155 3.85563C244.25 3.64386 252.609 2.76151 255.196 2.62034C257.684 2.47916 267.935 2.37328 269.925 2.33799C271.915 2.30269 280.374 2.2321 281.27 2.19681C282.166 2.19681 287.938 1.24387 291.023 1.1027C294.108 0.926227 295.501 0.996815 295.899 1.49093C296.297 1.98505 295.501 2.40857 293.809 2.54975C292.117 2.69093 288.535 3.46739 285.748 3.92621C282.962 4.38504 281.071 4.63209 277.09 4.80856C273.11 4.98503 267.039 5.83209 262.163 5.7968C257.286 5.7968 253.306 5.65562 249.126 5.97327C244.946 6.25562 242.458 6.71444 236.587 7.24385C230.715 7.77326 225.341 7.87914 220.465 7.56149C215.589 7.24385 210.414 6.74973 207.229 6.60856C204.044 6.46738 200.561 7.34973 197.277 8.23208C193.993 9.11443 190.61 10.7732 186.43 11.4791C182.25 12.1497 178.369 12.2556 174.786 11.3027C171.204 10.3497 165.332 9.07913 163.342 8.7262C161.252 8.37326 158.665 8.1262 155.978 8.6909C153.291 9.2556 148.912 10.738 144.832 10.138C140.751 9.50266 133.686 7.73796 130.103 6.60856C126.52 5.47915 119.554 4.49092 116.768 5.05562C113.981 5.62033 109.204 7.31444 104.726 7.91443C100.248 8.51443 93.7792 8.44384 89.699 8.1262C85.7183 7.80855 78.354 6.32621 74.5724 5.62033C70.7907 4.87915 63.4264 3.4321 60.6399 3.78504C57.8534 4.13798 53.5742 5.65562 51.0863 6.29091C48.5983 6.9615 41.5326 8.90267 36.8553 9.39678C32.0784 9.8909 25.6098 10.138 17.947 8.54973C10.3836 6.89091 3.21839 4.80856 3.21839 4.80856Z" fill="#FBB116"/>
</svg>
