<svg width="511" height="395" viewBox="0 0 511 395" fill="none" xmlns="http://www.w3.org/2000/svg">
<path opacity="0.75" d="M231.934 106.892C234.439 107.552 237.258 109.135 236.291 109.493C235.352 110.088 236.578 111.865 237.405 113.69C238.232 115.515 236.097 114.57 236.298 116.23C236.499 117.89 237.24 119.004 236.33 119.836C235.421 120.668 236.133 121.544 236.305 122.967C236.506 124.627 234.342 123.445 233.605 125.7C233.122 126.721 233.834 127.598 234.804 128.924C235.573 130.275 235.319 131.509 233.497 131.489C231.676 131.469 229.6 132.682 226.612 133.044C223.624 133.406 202.795 134.966 197.474 136.091C192.154 137.216 182.652 140.533 180.319 141.296C177.816 142.321 152.386 152.62 136.857 161.238C121.328 169.856 97.3565 187.196 87.8049 196.775C78.2533 206.354 57.476 230.046 49.4085 243.535C41.3697 257.262 34.1526 267.762 31.2638 280.625C28.4038 293.725 25.5815 315.483 27.0405 322.525C27.0405 322.525 25.5027 321.508 23.7314 315.226C21.9602 308.943 18.7227 288.881 19.0509 276.569C19.2947 265.229 24.9306 240.002 36.8919 221.95C48.8533 203.898 59.9049 186.678 76.8207 171.154C93.7365 155.63 103.346 146.525 123.994 135.122C144.613 123.481 147.743 122.621 149.222 121.479C150.7 120.338 151.468 120.004 153.062 119.811C154.655 119.618 155.507 118.312 156.844 117.669C158.21 117.263 174.508 109.995 192.349 107.113C210.388 104.207 225.671 105.244 231.934 106.892Z" fill="#79A5DB"/>
<path opacity="0.75" d="M342.615 188.062C342.615 188.062 328.746 205.383 320.075 213.892C311.604 222.378 284.175 252.891 251.091 265.078C218.007 277.265 191.577 284.316 147.811 286.727C104.045 289.139 82.7753 278.72 74.6553 270.077C66.5354 261.435 56.9222 240.461 54.8907 230.359C54.8907 230.359 55.6018 256.262 56.3502 264.112C57.1273 272.2 60.3398 295.393 78.6235 307.858C96.708 320.347 128.613 323.463 154.907 321.964C181.201 320.464 222.115 312.863 242.367 303.192C262.619 293.521 294.5 274.741 302.234 268.511C309.939 262.043 313.151 258.526 312.184 258.884C311.217 259.242 304.678 265.328 303.2 266.469C301.721 267.611 291.513 275.103 287.759 277.483C284.574 279.553 280.705 280.984 279.937 281.318C281.103 280.936 288.441 276.438 291.057 274.677C293.644 272.679 297.312 269.588 298.051 269.018C298.791 268.447 298.875 267.474 299.842 267.116C300.809 266.758 301.208 266.71 301.748 266.164C302.259 265.38 304.393 264.64 305.303 263.808C306.212 262.976 306.525 262.216 306.866 261.694C307.206 261.171 308.145 260.576 308.457 259.817C308.969 259.033 309.139 258.771 310.106 258.414C311.102 258.293 312.24 257.674 312.552 256.914C312.864 256.155 313.604 255.584 314.002 255.536C314.4 255.487 315.994 255.295 316.505 254.511C316.846 253.988 325.716 245.454 328.529 241.986C331.542 238.492 333.247 235.88 333.758 235.096C334.27 234.312 334.354 233.339 334.752 233.291C335.321 232.982 335.662 232.459 335.633 232.222C335.576 231.748 335.888 230.988 336.457 230.678C337.026 230.369 337.849 228.825 339.24 225.288C340.83 221.727 341.171 221.204 342.186 212.899C343.23 204.832 344.241 191.475 342.615 188.062ZM311.13 231.82C310.42 232.628 309.68 233.198 308.97 234.006C303.91 238.951 291.202 250.837 281.419 256.834C268.621 264.64 249.878 275.091 243.905 277.499C237.931 279.906 237.134 280.003 235.882 279.673C234.629 279.344 235.085 279.77 232.325 280.345C229.565 280.919 226.75 282.704 225.583 283.086C224.417 283.468 212.497 286.836 199.238 289.163C185.78 291.515 164.494 292.648 164.494 292.648C164.494 292.648 198.412 289.023 213.263 284.818C228.313 280.59 233.718 278.491 236.221 277.466C238.724 276.441 256.448 270.927 273.453 259.483C288.98 249.18 301.152 241.21 308.771 234.031C310.391 232.391 311.301 231.558 311.13 231.82Z" fill="#79A5DB"/>
<path opacity="0.75" d="M392.947 174.75C391.633 170.577 390.232 164.009 386.953 158.631C383.675 153.253 371.822 140.49 363.991 135.904C356.16 131.317 338.537 124.307 324.303 120.255C309.899 116.464 301.191 116.316 296.495 115.922C291.799 115.528 286.078 115.017 283.204 114.643C280.358 114.507 263.824 114.824 257.961 114.812C252.298 114.776 243.021 114.937 238.269 115.752C233.717 116.544 216.53 118.144 213.712 118.245C210.895 118.345 203.468 118.763 199.513 119.483C195.558 120.202 188.332 122.28 184.406 123.237C180.48 124.193 159.625 128.884 154.107 131.718C148.788 134.528 146.228 135.078 143.07 135.701C140.111 136.3 137.381 138.797 136.585 138.893C135.788 138.99 121.565 145.043 117.356 146.997C113.146 148.95 99.1835 158.822 91.1087 165.575C83.0052 172.091 75.1026 180.267 70.3852 186.373C65.6677 192.479 62.1148 196.518 58.3432 208.766C54.7419 220.753 54.3527 229.222 54.7046 238.805C55.0565 248.388 54.9257 258.992 56.3865 267.718C57.8473 276.445 60.0456 282.917 61.0433 284.48C61.0433 284.48 60.3715 242.21 84.5025 214.502C108.434 186.819 152.636 166.307 211.901 153.356C271.165 140.405 335.666 154.012 350.131 161.645C350.131 161.645 351.269 161.026 346.571 158.948C341.674 156.894 335.412 155.246 335.412 155.246C335.412 155.246 339.822 154.953 349.844 159.274C359.866 163.595 366.075 168.137 370.775 171.9C375.247 175.449 380.546 180.823 383.171 187.484C385.768 193.907 388.368 203.699 389.287 211.288C390.206 218.877 389.614 224.003 390.068 222.744C390.522 221.486 393.497 209.335 394.11 197.71C394.524 186.109 394.26 178.922 392.947 174.75ZM319.787 128.021C312.841 125.734 307.576 125.649 305.327 125.44C303.079 125.231 302.026 124.877 299.806 124.906C297.586 124.934 300.089 123.909 297.642 123.724C295.194 123.539 292.007 123.925 288.165 123.909C284.324 123.893 280.936 122.618 276.354 123.173C271.972 123.704 263.775 122.771 258.369 123.185C252.962 123.599 247.356 124.037 242.946 124.33C238.535 124.624 235.034 124.085 230.851 124.592C226.868 125.074 221.432 125.251 225.33 124.057C227.264 123.342 234.804 122.188 238.589 121.73C242.174 121.296 250.427 121.018 253.443 120.894C256.459 120.769 292.8 120.46 298.607 121.682C304.414 122.904 324.253 126.518 332.423 128.897C340.394 131.301 346.061 134.706 346.061 134.706C346.061 134.706 326.733 130.308 319.787 128.021Z" fill="#79A5DB"/>
<path opacity="0.75" d="M392.059 172.45C391.488 171.076 384.261 198.18 379.802 206.42C375.342 214.661 355.645 237.259 344.585 246.058C333.524 254.857 298.458 275.707 295.244 277.54C292.229 279.348 289.952 278.902 287.876 280.116C285.8 281.33 287.903 278.669 285.229 279.955C282.555 281.242 261.848 290.487 257.609 292.203C253.371 293.919 237.725 299.905 231.894 301.814C226.062 303.723 182.619 315.481 166.115 317.719C149.413 319.982 119.961 322.105 108.634 322.032C97.3079 321.96 82.1664 320.424 70.8956 319.142C59.6247 317.859 49.8001 311.83 43.6775 307.999C37.5835 304.406 34.0771 298.814 30.9977 293.412C28.1463 288.222 21.8404 272.863 20.7205 263.614C20.7205 263.614 17.9124 272.136 19.009 286.2C20.1057 300.265 24.3158 325.022 33.9162 334.207C43.5166 343.392 63.6485 354.43 90.2295 355.303C116.611 356.199 145.807 353.627 150.587 353.048C155.367 352.469 170.078 350.447 173.066 350.086C176.053 349.724 178.017 349.246 180.378 348.719C182.74 348.192 182.368 346.794 181.173 346.938C179.978 347.083 180.405 347.272 178.641 347.726C176.877 348.18 176.138 348.751 175.084 348.397C174.031 348.044 173.434 348.116 172.267 348.498C171.101 348.88 170.475 348.715 168.881 348.908C167.288 349.101 167.686 349.053 165.922 349.507C164.158 349.961 163.388 348.61 163.388 348.61C163.388 348.61 164.725 347.967 166.319 347.774C167.912 347.581 175.879 346.617 177.444 346.187C178.81 345.781 180.801 345.539 182.224 345.608C183.647 345.676 185.212 345.246 186.407 345.101C187.602 344.957 187.202 343.321 188.397 343.176C189.592 343.031 189.052 343.578 190.646 343.385C192.239 343.192 194.145 342.239 195.539 342.071C196.933 341.902 198.638 339.289 200.63 339.048C202.622 338.807 203.731 337.95 204.273 339.088C204.814 340.226 205.383 339.916 205.297 339.205C205.211 338.493 205.01 336.833 206.376 336.427C207.741 336.021 209.335 335.828 211.07 335.137C212.805 334.445 216.873 332.99 218.267 332.821C219.661 332.653 220.943 333.219 220.943 333.219C220.943 333.219 216.22 334.273 214.285 334.988C212.351 335.704 209.478 337.014 211.072 336.821C212.665 336.628 214.657 336.387 215.852 336.242C217.047 336.097 217.503 336.524 219.039 335.856C220.575 335.189 221.086 334.405 223.049 333.927C225.012 333.449 225.325 332.689 227.316 332.448C229.308 332.207 230.105 332.11 230.902 332.014C231.698 331.917 233.861 331.415 235.226 331.009C236.592 330.603 236.647 329.393 238.013 328.987C239.379 328.581 243.504 327.6 244.87 327.194C246.235 326.788 248.34 325.811 249.677 325.168C251.014 324.525 253.318 323.524 254.882 323.094C256.447 322.664 255.936 323.448 258.127 323.183C260.318 322.917 261.03 323.794 264.215 321.723C267.4 319.653 266.774 319.489 268.452 318.323C270.13 317.157 273.6 315.774 275.933 315.011C278.265 314.247 279.175 313.415 280.37 313.27C281.565 313.126 282.362 313.029 282.048 312.105C281.734 311.18 282.814 310.087 283.527 310.963C284.239 311.839 285.605 311.433 285.605 311.433C287.681 310.219 289.899 308.507 291.094 308.362C292.289 308.218 293.028 307.647 295.303 306.409C297.579 305.171 297.579 305.171 298.944 304.765C300.31 304.359 299.795 301.774 301.53 301.083C303.265 300.391 306.565 299.27 308.442 298.08C310.319 296.89 311.742 296.959 313.619 295.769C315.496 294.579 315.44 295.789 310.463 298.076C305.485 300.363 305.401 301.336 307.165 300.882C308.928 300.428 311.118 298.478 313.82 297.429C316.522 296.38 317.262 295.809 317.972 295.001C318.683 294.193 317.771 293.341 319.478 292.412C321.184 291.484 324.17 289.438 325.877 288.509C327.583 287.581 330.713 286.721 332.191 285.579C333.67 284.438 335.803 283.698 337.083 282.581C338.362 281.463 340.21 280.036 339.414 280.133C338.617 280.229 336.2 281.965 334.124 283.179C332.048 284.393 330.425 284.349 330.425 284.349C330.425 284.349 332.643 282.637 334.748 281.66C336.853 280.683 337.336 279.662 339.042 278.734C340.749 277.805 341.8 276.475 341.203 276.547C340.605 276.619 337.675 277.455 339.153 276.314C340.632 275.172 342.538 274.22 344.784 272.744C347.031 271.269 349.446 267.849 349.446 267.849C349.446 267.849 349.988 268.986 348.766 270.578C347.544 272.17 346.663 273.239 348.569 272.286C350.474 271.334 349.565 272.166 351.583 270.477C353.602 268.789 356.758 266.482 359.517 264.223C362.274 261.964 362.872 261.892 363.924 260.561C364.975 259.231 365.431 259.657 364.975 259.231C364.519 258.804 363.665 258.427 363.665 258.427C365.713 256.975 366.138 255.48 367.645 254.576C369.152 253.671 371.083 249.587 372.533 248.209C373.983 246.83 376.57 244.832 377.423 243.526C378.275 242.219 379.156 241.15 380.549 239.297C381.941 237.444 384.184 232.6 385.008 231.057C385.831 229.513 386.768 227.234 387.164 225.502C387.561 223.769 389.605 218.95 390.764 211.831C393.886 204.234 396.023 180.152 392.059 172.45ZM333.42 264.014C325.23 269.818 313.827 277.455 311.182 278.979C308.736 280.478 298.495 284.365 294.002 287.315C289.48 290.029 276.338 294.989 271.759 297.228C267.179 299.467 239.387 310.291 230.368 312.587C221.35 314.882 195.887 321.574 190.907 322.177C186.127 322.756 182.513 322.953 180.749 323.407C178.985 323.861 176.283 324.911 173.693 325.224C171.104 325.538 170.194 326.37 168.202 326.611C166.011 326.876 164.418 327.069 162.227 327.334C160.036 327.6 100.849 332.841 90.5143 329.279C88.8347 328.761 126.001 328.592 129.017 328.468C132.034 328.343 156.307 326.848 163.903 324.484C171.527 322.358 193.665 319.918 198.758 318.58C204.05 317.217 239.127 306.473 242.883 305.777C246.638 305.082 263.221 296.818 268.796 294.458C274.172 292.123 296.019 283.943 302.761 281.202C309.502 278.46 318.914 271.064 325.142 267.422C331.172 263.805 352.042 247.561 356.051 243.948C356.449 243.9 341.78 257.948 333.42 264.014Z" fill="#79A5DB"/>
<path opacity="0.75" d="M287.237 323.995C284.535 324.133 281.228 323.449 282.077 322.787C282.823 321.898 281.04 320.518 279.639 318.964C278.238 317.41 280.662 317.673 279.936 316.085C279.21 314.497 278.12 313.623 278.762 312.507C279.404 311.391 278.417 310.744 277.795 309.383C277.069 307.795 279.597 308.285 279.617 305.807C279.774 304.639 278.788 303.992 277.403 302.979C276.209 301.879 276.072 300.57 277.891 300.013C279.71 299.456 281.391 297.591 284.25 296.284C287.109 294.978 307.344 286.829 312.282 284.024C317.22 281.219 325.625 274.909 327.705 273.41C329.871 271.598 351.917 253.295 364.641 239.8C377.365 226.305 395.729 201.456 402.2 188.899C408.672 176.341 421.845 146.184 425.601 130.204C429.253 113.997 433.11 101.263 431.911 87.5473C430.608 73.6048 426.525 51.0579 422.843 44.5116C422.843 44.5116 424.695 45.0366 428.448 50.728C432.2 56.4193 441.776 75.3589 445.349 87.7154C448.698 99.0772 451.079 125.967 444.893 147.721C438.707 169.474 433.163 190.111 421.246 210.917C409.329 231.723 402.65 243.827 385.713 261.715C368.88 279.831 366.039 281.678 364.929 283.282C363.819 284.886 363.16 285.462 361.636 286.158C360.111 286.855 359.677 288.425 358.55 289.489C357.319 290.325 343.401 302.719 326.56 311.238C309.529 319.843 293.991 323.652 287.237 323.995Z" fill="#79A5DB"/>
<path opacity="0.75" d="M151.389 278.273C151.389 278.273 159.705 256.644 165.638 245.429C171.381 234.302 189.013 195.249 218.077 172.642C247.141 150.035 271.21 134.648 314 118.387C356.791 102.125 381.257 105.757 392.075 111.786C402.893 117.815 419.103 135.643 424.324 145.052C424.324 145.052 415.412 119.5 412.181 111.925C408.846 104.122 398.304 82.0586 376.16 75.4448C354.208 68.7438 321.47 75.7486 295.779 85.5683C270.087 95.3881 231.778 115.911 214.687 131.949C197.596 147.988 171.817 176.774 166.094 185.424C160.475 194.301 158.392 198.818 159.241 198.156C160.091 197.493 164.67 189.366 165.78 187.762C166.89 186.157 174.676 175.468 177.658 171.911C180.172 168.842 183.569 166.193 184.227 165.617C183.188 166.367 177.31 173.167 175.264 175.748C173.322 178.555 170.651 182.793 170.096 183.595C169.541 184.397 169.765 185.392 168.916 186.054C168.067 186.717 167.686 186.891 167.322 187.606C167.061 188.548 165.172 189.96 164.53 191.076C163.888 192.192 163.818 193.047 163.644 193.675C163.471 194.303 162.725 195.192 162.655 196.047C162.394 196.989 162.307 197.303 161.458 197.966C160.505 198.401 159.569 199.377 159.499 200.232C159.429 201.087 158.874 201.889 158.493 202.064C158.112 202.238 156.587 202.934 156.327 203.876C156.153 204.504 150.029 215.806 148.327 220.149C146.436 224.58 145.567 227.72 145.306 228.662C145.045 229.604 145.27 230.599 144.888 230.773C144.42 231.261 144.247 231.889 144.35 232.116C144.558 232.57 144.488 233.425 144.019 233.913C143.551 234.401 143.221 236.198 142.957 240.158C142.503 244.206 142.329 244.834 143.949 253.42C145.465 261.779 148.69 275.392 151.389 278.273ZM168.862 224.755C169.313 223.726 169.868 222.924 170.319 221.895C173.789 215.372 182.671 199.519 190.507 190.452C200.771 178.63 216.113 162.294 221.295 158.006C226.477 153.717 227.239 153.369 228.59 153.3C229.941 153.232 229.352 152.952 231.917 151.506C234.481 150.06 236.718 147.392 237.758 146.643C238.797 145.893 249.593 138.766 262.051 132.25C274.699 125.648 295.523 117.778 295.523 117.778C295.523 117.778 262.917 132.129 249.47 141.016C235.832 149.991 231.118 153.791 228.952 155.604C226.785 157.417 210.894 168.518 197.595 185.293C185.406 200.463 175.818 212.25 170.51 221.808C169.417 223.953 168.775 225.069 168.862 224.755Z" fill="#79A5DB"/>
<path opacity="0.75" d="M105.515 307.462C108.144 311.198 111.619 317.291 116.585 321.605C121.551 325.918 137.388 334.865 146.634 336.949C155.88 339.033 175.638 340.428 191.086 339.952C206.621 339.162 215.334 336.552 220.132 335.457C224.93 334.362 230.785 333.058 233.764 332.519C236.64 331.754 252.993 326.202 258.831 324.357C264.478 322.599 273.66 319.501 278.13 317.184C282.409 314.954 299.007 307.919 301.778 306.926C304.55 305.934 311.809 303.166 315.517 301.197C319.225 299.228 325.758 294.872 329.362 292.676C332.966 290.481 352.234 279.207 356.828 274.64C361.231 270.159 363.605 268.8 366.55 267.18C369.305 265.646 371.231 262.298 371.993 261.95C372.756 261.601 384.992 251.072 388.563 247.795C392.133 244.518 402.901 230.271 408.798 220.993C414.799 211.943 420.074 201.303 422.834 193.733C425.595 186.162 427.851 181.017 427.726 167.634C427.513 154.565 425.218 146.013 421.833 136.588C418.447 127.163 415.219 116.569 411.001 108.347C406.784 100.126 402.546 94.3815 401.058 93.1414C401.058 93.1414 415.115 134.995 399.876 170.211C384.828 205.34 347.337 239.752 292.461 271.411C237.585 303.069 169.087 309.957 152.274 306.942C152.274 306.942 151.338 307.919 156.671 308.499C162.195 308.992 168.949 308.649 168.949 308.649C168.949 308.649 164.653 310.338 153.311 309.212C141.969 308.085 134.351 305.532 128.483 303.276C122.908 301.16 115.933 297.49 111.211 291.693C106.592 286.123 100.903 277.202 97.585 269.941C94.2669 262.68 93.2328 257.392 93.1795 258.788C93.1263 260.184 94.0143 273.218 97.0856 284.981C100.348 296.657 102.887 303.726 105.515 307.462ZM193.121 330.793C200.758 330.869 206.024 329.286 208.328 328.782C210.632 328.278 211.792 328.296 213.992 327.565C216.192 326.834 214.026 328.647 216.52 328.056C219.014 327.465 222.064 326.071 225.892 324.871C229.72 323.67 233.495 323.865 237.879 321.862C242.072 319.946 250.524 318.278 255.774 316.153C261.023 314.029 266.463 311.818 270.759 310.129C275.056 308.44 278.71 307.867 282.712 306.038C286.524 304.296 291.877 302.399 288.377 304.821C286.678 306.146 279.54 309.682 275.919 311.337C272.488 312.904 264.364 315.794 261.401 316.874C258.439 317.953 222.372 329.771 216.206 330.394C210.04 331.017 189.152 333.704 180.268 333.923C171.575 334.056 164.857 332.463 164.857 332.463C164.857 332.463 185.484 330.717 193.121 330.793Z" fill="#79A5DB"/>
<path opacity="0.75" d="M107.125 309.469C108.128 310.656 106.736 281.394 108.563 271.781C110.391 262.169 122.835 233.441 131.056 221.182C139.276 208.922 167.569 177.067 170.187 174.225C172.614 171.47 175.021 171.193 176.703 169.327C178.385 167.462 177.135 170.776 179.388 168.649C181.641 166.522 199.321 150.763 202.995 147.713C206.669 144.662 220.343 133.751 225.542 130.004C230.741 126.257 270.25 100.797 285.964 93.342C301.869 85.7999 330.507 74.3599 341.801 70.8446C353.096 67.3293 368.65 64.0618 380.273 61.7682C391.895 59.4746 403.582 62.3633 410.888 64.2363C418.091 65.8824 423.351 70.3362 428.127 74.7372C432.608 78.9983 443.748 92.2859 447.792 101.136C447.792 101.136 447.887 91.7658 442.341 78.1165C436.795 64.4671 424.765 41.1634 412.302 35.0635C399.839 28.9637 376.308 24.3553 349.58 31.9058C323.042 39.3693 294.802 51.1761 290.228 53.2662C285.654 55.3562 271.655 62.0274 268.797 63.3337C265.938 64.64 264.136 65.7378 261.952 67.0097C259.769 68.2816 260.582 69.5561 261.725 69.0336C262.869 68.5111 262.384 68.4583 263.996 67.4476C265.607 66.4369 266.162 65.6348 267.322 65.6532C268.483 65.6716 269.054 65.4103 270.094 64.6609C271.134 63.9115 271.809 63.8771 273.334 63.1804C274.859 62.4837 274.477 62.6579 276.089 61.6472C277.7 60.6366 278.894 61.7368 278.894 61.7368C278.894 61.7368 277.768 62.8002 276.243 63.4969C274.718 64.1936 267.095 67.677 265.674 68.6006C264.444 69.4371 262.538 70.308 261.1 70.6907C259.663 71.0733 258.242 71.9969 257.098 72.5194C255.955 73.042 256.871 74.5433 255.728 75.0658C254.584 75.5883 254.949 74.8732 253.424 75.5699C251.899 76.2666 250.305 77.8182 248.971 78.4278C247.636 79.0374 246.768 82.1774 244.862 83.0483C242.956 83.9191 242.124 85.1224 241.224 84.162C240.324 83.2016 239.856 83.6897 240.167 84.3705C240.478 85.0512 241.204 86.6396 239.974 87.4762C238.744 88.3127 237.219 89.0093 235.711 90.2469C234.203 91.4845 230.616 94.221 229.282 94.8306C227.948 95.4402 226.493 95.282 226.493 95.282C226.493 95.282 230.86 92.7381 232.558 91.4134C234.257 90.0887 236.701 87.8748 235.176 88.5714C233.651 89.2681 231.745 90.139 230.602 90.6615C229.459 91.184 228.87 90.9043 227.553 92.0549C226.235 93.2054 225.975 94.1474 224.173 95.2452C222.371 96.3429 222.3 97.1978 220.395 98.0687C218.489 98.9395 217.727 99.2879 216.964 99.6362C216.202 99.9846 214.209 101.169 212.979 102.006C211.749 102.842 212.076 104.064 210.846 104.901C209.616 105.737 205.821 108.02 204.591 108.856C203.36 109.693 201.575 111.332 200.448 112.395C199.322 113.458 197.346 115.184 195.925 116.108C194.504 117.031 194.764 116.089 192.668 117.047C190.572 118.005 189.585 117.359 187.071 120.428C184.557 123.497 185.233 123.462 183.932 125.154C182.632 126.845 179.616 129.32 177.536 130.819C175.457 132.318 174.815 133.434 173.672 133.957C172.528 134.479 171.766 134.828 172.371 135.648C172.976 136.469 172.248 137.899 171.261 137.252C170.275 136.606 169.044 137.443 169.044 137.443C167.363 139.308 165.698 141.715 164.554 142.237C163.411 142.76 162.856 143.562 160.984 145.515C159.112 147.467 159.112 147.467 157.881 148.304C156.651 149.14 157.982 151.549 156.474 152.787C154.966 154.025 152.038 156.186 150.547 157.964C149.056 159.743 147.618 160.125 146.127 161.904C144.636 163.682 144.308 162.461 148.537 158.608C152.766 154.756 152.542 153.761 150.931 154.771C149.319 155.782 147.758 158.416 145.401 160.316C143.044 162.215 142.489 163.018 142.038 164.047C141.587 165.076 142.764 165.635 141.359 167.1C139.955 168.564 137.632 171.546 136.228 173.01C134.824 174.475 131.982 176.322 130.872 177.927C129.762 179.531 127.873 180.943 126.954 182.46C126.034 183.977 124.647 185.983 125.409 185.634C126.172 185.286 128.027 182.792 129.709 180.927C131.39 179.061 133.019 178.591 133.019 178.591C133.019 178.591 131.354 180.998 129.569 182.637C127.783 184.275 127.626 185.444 126.222 186.909C124.818 188.373 124.193 190.03 124.765 189.769C125.336 189.508 127.988 187.748 126.878 189.352C125.768 190.956 124.173 192.508 122.405 194.688C120.636 196.867 119.316 201.036 119.316 201.036C119.316 201.036 118.417 200.076 119.128 198.105C119.84 196.134 120.378 194.791 118.784 196.342C117.189 197.894 117.831 196.778 116.357 199.097C114.882 201.417 112.472 204.712 110.443 207.834C108.414 210.956 107.842 211.217 107.217 212.874C106.592 214.531 106.003 214.251 106.592 214.531C107.18 214.811 108.15 214.916 108.15 214.916C106.572 217.009 106.623 218.631 105.409 220.009C104.196 221.386 103.568 226.062 102.561 227.893C101.555 229.725 99.613 232.532 99.1785 234.102C98.7441 235.672 98.206 237.015 97.4072 239.3C96.6083 241.585 95.9103 247.116 95.5796 248.913C95.2488 250.71 95.0386 253.275 95.1927 255.124C95.3467 256.974 94.8393 262.418 95.9405 269.869C95.2396 278.418 100.74 303.06 107.125 309.469ZM136.479 199.777C142.791 191.407 151.72 180.195 153.87 177.841C155.829 175.574 164.789 168.463 168.326 164.103C171.967 159.971 183.475 150.872 187.323 147.194C191.171 143.515 215.4 123.941 223.648 118.8C231.896 113.66 255.116 98.9349 259.881 96.7578C264.454 94.6677 267.989 93.3271 269.6 92.3164C271.212 91.3057 273.569 89.4058 276.046 88.2737C278.524 87.1416 279.166 86.0254 281.071 85.1546C283.168 84.1966 284.692 83.4999 286.789 82.542C288.885 81.5841 346.126 57.6221 357.538 57.8933C359.374 57.8774 322.441 69.8166 319.479 70.8959C316.516 71.9753 292.834 81.1511 286.023 85.9089C279.109 90.4399 257.851 99.8794 253.207 102.824C248.373 105.856 216.868 127.659 213.351 129.54C209.834 131.422 195.949 144.898 191.148 149.012C186.538 153.039 167.387 168.098 161.546 172.962C155.706 177.825 148.682 188.166 143.637 193.763C138.783 199.273 123.158 222.048 120.313 226.913C119.932 227.088 130.081 208.461 136.479 199.777Z" fill="#79A5DB"/>
</svg>
