<svg width="316" height="238" viewBox="0 0 316 238" fill="none" xmlns="http://www.w3.org/2000/svg">
<g clip-path="url(#clip0_3066_8253)">
<path opacity="0.75" d="M73.4692 21.9185C73.445 21.7274 73.4625 21.2008 73.9289 21.0884C74.4041 20.9943 75.248 20.6321 75.5241 20.4538C75.7819 20.2844 81.0044 17.2688 81.4826 16.993C81.9607 16.7172 84.5899 15.2233 84.8205 15.0444C85.0695 14.8567 85.3199 14.5782 85.6563 14.6186C85.9839 14.6407 86.172 14.8429 86.2785 15.0167C86.3667 15.1995 86.7186 15.4127 86.8714 15.5417C87.0154 15.6524 87.346 16.0561 87.3871 16.3291C87.4283 16.6021 87.3887 16.8014 87.2823 17.1907C87.1854 17.5529 87.264 17.7627 87.1502 18.0429C87.0364 18.3231 86.8095 18.2749 86.5979 18.3995C86.3864 18.5241 86.0662 18.6111 85.8091 18.7351C85.5521 18.8591 81.7389 20.9019 80.9384 21.4008C80.1562 21.8908 78.5633 22.9523 77.9831 23.3449C77.4029 23.7375 76.7316 24.129 76.3908 24.361C76.0501 24.5931 75.6344 24.9513 75.1907 24.7824C74.7471 24.6135 74.0836 23.3792 73.8727 22.8953C73.653 22.393 73.4692 21.9185 73.4692 21.9185Z" fill="#FFC327"/>
</g>
<g clip-path="url(#clip1_3066_8253)">
<path opacity="0.75" d="M58.2716 14.6851C58.1348 14.5496 57.8243 14.1239 58.1224 13.7481C58.4388 13.3812 58.8805 12.5761 58.9882 12.2656C59.0869 11.9733 61.3435 6.38073 61.5503 5.86899C61.7571 5.35725 62.9081 2.56079 62.9795 2.27785C63.06 1.97662 63.0857 1.60295 63.3757 1.42757C63.6474 1.24323 63.92 1.28661 64.1111 1.35796C64.2931 1.4476 64.7016 1.3988 64.9014 1.40632C65.0831 1.40487 65.5922 1.51923 65.7928 1.70892C65.9934 1.89861 66.0849 2.08006 66.2409 2.45228C66.3876 2.79724 66.5788 2.91413 66.6618 3.20496C66.7447 3.49578 66.5363 3.59763 66.4464 3.82607C66.3565 4.05451 66.1578 4.32024 66.0317 4.57629C65.9056 4.83235 64.16 8.79036 63.8366 9.67649C63.5223 10.5443 62.9213 12.3618 62.7061 13.0284C62.4909 13.6951 62.2032 14.417 62.0777 14.8096C61.9522 15.2023 61.8454 15.7406 61.3919 15.8808C60.9383 16.0211 59.6554 15.4574 59.1911 15.2061C58.7087 14.9458 58.2716 14.6851 58.2716 14.6851Z" fill="#FFC327"/>
</g>
<g clip-path="url(#clip2_3066_8253)">
<path opacity="0.75" d="M42.1388 15.3299C41.9495 15.2948 41.4533 15.1175 41.4885 14.6391C41.5438 14.1578 41.4562 13.2437 41.3706 12.9263C41.2879 12.6291 40.0086 6.73569 39.8918 6.19626C39.775 5.65682 39.154 2.6972 39.054 2.42303C38.9511 2.12868 38.7623 1.80525 38.9033 1.4972C39.0243 1.19196 39.2742 1.07449 39.4723 1.02605C39.6732 0.997808 39.9835 0.727719 40.153 0.621543C40.3024 0.518193 40.7877 0.326449 41.0602 0.370481C41.3328 0.414515 41.5105 0.513047 41.8488 0.733126C42.1642 0.935841 42.388 0.92496 42.6201 1.11878C42.8523 1.31261 42.7372 1.51408 42.7913 1.75351C42.8455 1.99295 42.8306 2.32444 42.8703 2.60707C42.9101 2.88971 43.6926 7.14421 43.9236 8.05875C44.1518 8.95311 44.6769 10.7939 44.8739 11.4662C45.0709 12.1385 45.239 12.8971 45.356 13.2924C45.4731 13.6877 45.6875 14.1929 45.3913 14.5639C45.0952 14.9349 43.7174 15.1904 43.1921 15.2436C42.6468 15.2997 42.1388 15.3299 42.1388 15.3299Z" fill="#FFC327"/>
</g>
<g clip-path="url(#clip3_3066_8253)">
<path opacity="0.75" d="M27.1419 22.358C26.9659 22.436 26.4564 22.5703 26.2149 22.1558C25.9884 21.7276 25.3993 21.0231 25.1493 20.8097C24.913 20.6114 20.5256 16.4738 20.1243 16.0949C19.7229 15.716 17.5373 13.626 17.2998 13.4564C17.0486 13.2718 16.7099 13.1118 16.6521 12.778C16.5793 12.4578 16.719 12.2196 16.8549 12.0677C17.0047 11.9308 17.108 11.5326 17.1877 11.3492C17.2525 11.1794 17.5443 10.7469 17.794 10.6291C18.0437 10.5113 18.2461 10.4921 18.6495 10.4824C19.0242 10.4713 19.2027 10.3357 19.5038 10.3643C19.8048 10.3929 19.8238 10.6242 20.0038 10.7911C20.1839 10.9579 20.3591 11.2398 20.5516 11.4504C20.7442 11.6611 23.7952 14.7278 24.5028 15.3515C25.1967 15.9601 26.6707 17.1815 27.2132 17.6246C27.7558 18.0678 28.3234 18.5985 28.6435 18.8584C28.9635 19.1182 29.426 19.4136 29.3915 19.8871C29.357 20.3606 28.365 21.3503 27.9619 21.6912C27.5438 22.0458 27.1419 22.358 27.1419 22.358Z" fill="#FFC327"/>
</g>
<g clip-path="url(#clip4_3066_8253)">
<path opacity="0.75" d="M22.2987 36.7843C22.2292 36.964 21.9635 37.419 21.4998 37.2962C21.0369 37.1532 20.1223 37.0707 19.7946 37.0963C19.4873 37.1229 13.459 37.294 12.9073 37.3094C12.3556 37.3248 9.33222 37.3896 9.04432 37.4374C8.73605 37.4842 8.38335 37.6103 8.10657 37.4148C7.82887 37.2396 7.75946 36.9724 7.74836 36.7688C7.75764 36.5661 7.54937 36.2113 7.47626 36.0252C7.40221 35.8593 7.30319 35.347 7.39671 35.0872C7.49022 34.8275 7.61983 34.6709 7.89849 34.379C8.15585 34.1064 8.18641 33.8844 8.41971 33.6919C8.653 33.4995 8.8298 33.6498 9.07511 33.6407C9.32043 33.6316 9.64349 33.7073 9.92861 33.7203C10.2137 33.7334 14.5396 33.7484 15.481 33.6899C16.4021 33.6305 18.3082 33.4537 19.0052 33.384C19.7023 33.3143 20.479 33.2889 20.8891 33.2467C21.2991 33.2046 21.8351 33.0869 22.1452 33.4464C22.4553 33.8058 22.4524 35.2071 22.408 35.7332C22.3626 36.2795 22.2987 36.7843 22.2987 36.7843Z" fill="#FFC327"/>
</g>
<g clip-path="url(#clip5_3066_8253)">
<path opacity="0.75" d="M29.5914 50.2157C29.6455 50.4006 29.7111 50.9234 29.2683 51.1078C28.8138 51.2756 28.0375 51.7662 27.7929 51.9857C27.565 52.1937 22.8826 55.9942 22.4539 56.3418C22.0252 56.6894 19.664 58.5789 19.4645 58.7918C19.2482 59.0164 19.0448 59.3309 18.7062 59.3439C18.3792 59.3737 18.1616 59.2037 18.029 59.0488C17.9132 58.8822 17.5321 58.7271 17.3609 58.6237C17.2013 58.5371 16.8112 58.1905 16.7276 57.9274C16.6439 57.6643 16.6516 57.4612 16.6954 57.06C16.7341 56.6871 16.6234 56.4923 16.6916 56.1976C16.7599 55.903 16.9916 55.9148 17.1808 55.7585C17.3701 55.6021 17.6726 55.4659 17.9069 55.3029C18.1413 55.1399 21.5851 52.5221 22.2971 51.9033C22.9923 51.2962 24.3982 49.9971 24.9093 49.518C25.4204 49.0389 26.0216 48.5466 26.3216 48.2638C26.6216 47.981 26.9756 47.5617 27.4404 47.6587C27.9051 47.7556 28.7547 48.8699 29.0392 49.3147C29.3353 49.776 29.5914 50.2157 29.5914 50.2157Z" fill="#FFC327"/>
</g>
<g clip-path="url(#clip6_3066_8253)">
<path opacity="0.75" d="M40.9315 53.4135C41.083 53.5323 41.4407 53.9193 41.1879 54.327C40.916 54.728 40.5702 55.5787 40.499 55.8996C40.4347 56.2013 38.8389 62.017 38.6925 62.5492C38.5462 63.0814 37.7258 65.992 37.6874 66.2813C37.6422 66.5898 37.6598 66.9639 37.3921 67.1716C37.1435 67.3861 36.8676 67.3745 36.6697 67.3257C36.4785 67.2576 36.0784 67.3533 35.879 67.3689C35.6987 67.3913 35.1798 67.3365 34.9587 67.1712C34.7375 67.0059 34.6256 66.8363 34.4277 66.4845C34.2421 66.1588 34.0387 66.0648 33.9227 65.7855C33.8068 65.5062 34.0021 65.3809 34.065 65.1437C34.1279 64.9064 34.2946 64.6195 34.3903 64.3506C34.486 64.0817 35.7631 59.9486 35.9819 59.0311C36.1939 58.1328 36.5811 56.2581 36.7179 55.571C36.8547 54.884 37.0571 54.1337 37.1365 53.7292C37.2159 53.3246 37.2598 52.7776 37.6941 52.586C38.1284 52.3943 39.4679 52.8061 39.958 53.0021C40.4673 53.205 40.9315 53.4135 40.9315 53.4135Z" fill="#FFC327"/>
</g>
<g clip-path="url(#clip7_3066_8253)">
<path opacity="0.75" d="M56.2747 51.0662C56.4666 51.083 56.9775 51.2117 56.9885 51.6913C56.9798 52.1757 57.1549 53.0771 57.2707 53.3848C57.3817 53.6726 59.2222 59.4156 59.3904 59.9413C59.5586 60.4669 60.4615 63.3531 60.5874 63.6163C60.7181 63.8994 60.9373 64.2032 60.8265 64.5234C60.7354 64.8388 60.498 64.9798 60.3055 65.0471C60.1083 65.0945 59.8254 65.3932 59.6669 65.5152C59.5281 65.6325 59.0636 65.87 58.7881 65.8524C58.5125 65.8348 58.3261 65.7539 57.9682 65.5674C57.6348 65.3959 57.4131 65.4283 57.1634 65.2577C56.9136 65.0872 57.0088 64.8755 56.9319 64.6424C56.8549 64.4093 56.8378 64.0779 56.7711 63.8004C56.7043 63.5229 55.516 59.3635 55.198 58.4754C54.8848 57.6072 54.185 55.8255 53.9242 55.1753C53.6635 54.5251 53.4231 53.7861 53.2686 53.4039C53.114 53.0217 52.852 52.5396 53.111 52.1418C53.3701 51.7439 54.717 51.3571 55.2346 51.2535C55.772 51.1452 56.2747 51.0662 56.2747 51.0662Z" fill="#FFC327"/>
</g>
<g clip-path="url(#clip8_3066_8253)">
<path opacity="0.75" d="M69.9324 47.0761C70.1206 47.0351 70.6467 47.0061 70.7998 47.4607C70.9355 47.9258 71.3707 48.7344 71.5727 48.9937C71.7642 49.2356 75.229 54.1716 75.5459 54.6235C75.8628 55.0754 77.583 57.5625 77.7815 57.7765C77.9904 58.0079 78.29 58.2327 78.2794 58.5714C78.2863 58.8997 78.1015 59.1049 77.9377 59.2263C77.7635 59.3303 77.5822 59.6996 77.4672 59.8632C77.3696 60.0164 76.9966 60.3813 76.7283 60.4464C76.46 60.5115 76.258 60.4897 75.8608 60.418C75.4915 60.3535 75.2894 60.4503 75.0003 60.3617C74.7111 60.2731 74.7391 60.0427 74.5963 59.843C74.4536 59.6433 74.3387 59.332 74.1925 59.0869C74.0462 58.8418 71.6749 55.2238 71.1073 54.4704C70.5501 53.7346 69.3522 52.2415 68.9099 51.6982C68.4676 51.155 68.0184 50.5209 67.7572 50.2019C67.4961 49.8829 67.1025 49.5005 67.2316 49.0437C67.3607 48.5868 68.5316 47.817 68.995 47.5642C69.4759 47.301 69.9324 47.0761 69.9324 47.0761Z" fill="#FFC327"/>
</g>
<g clip-path="url(#clip9_3066_8253)">
<path opacity="0.75" d="M77.2071 35.3388C77.3486 35.2081 77.7876 34.9166 78.1498 35.2311C78.5024 35.5634 79.2871 36.0403 79.5926 36.1617C79.8802 36.2732 85.3675 38.7749 85.8696 39.0041C86.3717 39.2333 89.1145 40.5069 89.394 40.5908C89.6914 40.6846 90.0636 40.7268 90.226 41.0241C90.3981 41.3037 90.3427 41.5742 90.263 41.7619C90.1654 41.9398 90.1961 42.35 90.1797 42.5494C90.1731 42.7309 90.0364 43.2344 89.838 43.4264C89.6396 43.6185 89.4543 43.7019 89.0755 43.8412C88.7244 43.9726 88.5992 44.1585 88.305 44.2285C88.0108 44.2985 87.9182 44.0857 87.694 43.9858C87.4698 43.8859 87.2131 43.6756 86.9629 43.5383C86.7126 43.401 82.8357 41.482 81.9647 41.1199C81.1116 40.7675 79.3226 40.0867 78.6661 39.8422C78.0096 39.5977 77.3011 39.2784 76.9144 39.1356C76.5276 38.9928 75.9946 38.8624 75.8746 38.4031C75.7545 37.9438 76.3744 36.687 76.646 36.2343C76.9274 35.7638 77.2071 35.3388 77.2071 35.3388Z" fill="#FFC327"/>
</g>
<g clip-path="url(#clip10_3066_8253)">
<path opacity="0.75" d="M48.3257 21.8329C48.9965 21.8329 49.2994 21.9166 49.7322 21.9166C50.165 21.9166 50.3164 21.8329 50.3164 21.7073C50.3164 21.5817 49.9702 21.7491 50.3164 21.5817C50.6626 21.4143 50.6626 21.4143 50.6626 21.2469C50.6626 21.0795 51.0954 21.0376 50.9223 20.8702C50.7492 20.7028 50.7059 20.4935 50.7059 20.4935C50.7059 20.4935 50.8357 20.4935 50.8357 20.2005C50.8357 19.9075 50.6626 19.6773 50.3597 19.5936C50.0568 19.5099 48.3257 18.8611 47.0058 19.2169C45.6858 19.5517 42.1804 20.7237 40.5143 21.7073C38.8265 22.6491 34.1743 26.2905 32.6812 28.0066C31.1666 29.7018 29.3273 32.6526 28.8296 34.7663C28.3536 36.8591 28.6565 39.5798 29.2191 41.0029C29.8033 42.405 29.8033 42.405 29.8033 42.405C29.8033 42.405 29.284 38.7008 29.7601 36.9428C30.2361 35.1849 30.5174 34.7245 30.6472 34.4943C30.7771 34.285 31.1233 33.3851 31.4911 32.82C31.8373 32.2759 34.0012 29.5343 35.0614 28.5926C36.1217 27.6508 38.5452 25.558 40.0599 24.6581C41.5529 23.7582 43.6951 22.7328 45.1016 22.3561C46.5081 21.9794 48.3257 21.8329 48.3257 21.8329Z" fill="#FFC327"/>
<path opacity="0.75" d="M45.3794 47.386C45.466 47.365 45.6824 47.3441 45.8338 47.3441C45.9853 47.3441 46.2017 47.3232 46.3099 47.3232C46.4181 47.3232 46.4397 47.365 46.5262 47.3022C46.6128 47.2395 46.6344 47.2813 46.721 47.2813C46.8075 47.2813 47.0672 47.2604 47.1538 47.2604C47.2403 47.2604 47.197 47.1767 47.2619 47.1767C47.3485 47.1767 47.3485 47.1767 47.5432 47.1558C47.738 47.1348 47.7813 47.1558 47.9111 47.1348C48.0193 47.1139 48.1491 47.093 48.1491 47.1139C48.1708 47.1557 48.1275 47.1558 48.0626 47.1558C47.9976 47.1767 47.8462 47.1767 47.7596 47.1976C47.6947 47.2185 47.6298 47.2185 47.5216 47.2185C47.4134 47.1976 47.4134 47.2813 47.3269 47.2813C47.2403 47.2813 47.0672 47.3022 46.9374 47.3232C46.8075 47.3441 46.721 47.3232 46.6344 47.3441C46.5479 47.365 46.483 47.4069 46.3748 47.386C46.2666 47.365 46.0502 47.4069 45.942 47.4069C45.8338 47.4069 45.7905 47.386 45.6391 47.4069C45.4876 47.4278 45.4876 47.4278 45.3578 47.4487C45.2712 47.4487 45.3794 47.386 45.3794 47.386Z" fill="#FFC327"/>
<path opacity="0.75" d="M48.9962 46.9674C49.1477 46.9674 49.5588 46.8837 49.7319 46.8418C49.905 46.8 50.0132 46.779 50.0997 46.779C50.1863 46.7581 50.2512 46.7372 50.2729 46.779C50.2945 46.8209 50.2729 46.8628 50.143 46.8837C50.0132 46.9046 50.0348 46.9046 49.905 46.9046C49.7752 46.9046 49.6886 46.9465 49.5804 46.9465C49.4722 46.9465 49.364 46.9883 49.2991 46.9883C49.2342 47.0093 49.2559 46.9883 49.1693 47.0093C49.0828 47.0093 48.9313 46.9674 48.9962 46.9674Z" fill="#FFC327"/>
<path opacity="0.75" d="M50.6382 46.7162C50.7032 46.7162 51.0061 46.6743 51.1359 46.6325C51.2874 46.5906 51.5254 46.5488 51.6336 46.5278C51.7418 46.5069 51.8716 46.486 52.1096 46.4232C52.326 46.3604 52.5208 46.3604 52.6722 46.3185C52.8237 46.2767 52.8237 46.2558 52.9968 46.2139C53.1916 46.1721 53.4512 46.1511 53.3647 46.193C53.2998 46.2348 53.1916 46.2558 53.0617 46.2976C52.9103 46.3395 52.7155 46.4441 52.6073 46.4441C52.5208 46.4441 52.2828 46.4441 52.2178 46.486C52.1529 46.5278 51.9798 46.5697 51.8716 46.5906C51.7634 46.6115 51.6985 46.6115 51.5254 46.6534C51.3523 46.6953 51.309 46.6953 51.2225 46.7371C51.1359 46.779 51.1143 46.7999 50.9845 46.7999C50.8546 46.8208 50.7897 46.8208 50.6599 46.8208C50.5517 46.7999 50.6382 46.7162 50.6382 46.7162Z" fill="#FFC327"/>
<path opacity="0.75" d="M70.3515 30.6853C70.3515 32.0038 69.2912 34.536 68.3175 35.6871C67.3438 36.8381 64.6823 38.8472 62.3021 39.9145C59.9219 40.9819 52.3917 43.556 47.2202 43.9327C42.0486 44.3094 37.9374 43.8908 33.9127 42.384C29.8879 40.9191 28.806 35.2267 28.6978 35.5615C28.4598 36.2521 28.568 39.0356 28.9142 40.2075C29.2604 41.3586 29.8879 42.9072 31.0997 44.0373C32.3331 45.1674 33.7179 45.879 34.1507 46.0255C34.6051 46.172 35.7952 46.6324 36.0981 46.6743C36.4011 46.7161 36.942 46.8835 37.4181 46.9463C37.9157 47.03 38.9111 47.1975 39.5602 47.2393C40.2094 47.2812 41.3346 47.3858 41.8106 47.3858C42.2867 47.3858 44.5154 47.4277 44.7318 47.4277C44.9482 47.4277 44.84 47.3021 44.6885 47.3021C44.537 47.3021 44.1476 47.3858 43.6499 47.344C43.1522 47.323 42.4165 47.323 42.1568 47.323C41.8972 47.323 40.6422 47.2184 40.4041 47.1975C40.1661 47.1765 38.738 46.9882 38.3701 46.9672C38.0023 46.9463 36.8771 46.6952 36.704 46.6743C36.5309 46.6533 36.3578 46.5068 36.4876 46.444C36.6174 46.4022 36.9637 46.444 37.2233 46.5487C37.483 46.6533 38.2187 46.7789 38.738 46.8417C39.2573 46.9254 40.4258 47.1137 41.1182 47.0928C41.789 47.0719 43.6066 47.1137 43.8013 47.1137C44.0177 47.1137 44.0394 47.1347 44.1908 47.1347C44.3423 47.1347 44.4289 47.1137 44.4072 46.9672C44.3856 46.8208 44.7102 46.8417 44.9915 46.8417C45.2511 46.8417 44.9698 46.9463 45.2295 47.0091C45.4891 47.0928 45.6406 46.9882 45.9868 46.9672C46.333 46.9463 46.2465 46.8626 46.3547 46.8626C46.4629 46.8626 46.4412 46.6952 46.6576 46.6533C46.8956 46.6324 47.1986 46.6743 47.0254 46.6952C46.8523 46.7161 46.7874 46.8417 47.0687 46.8417C47.35 46.8417 47.3284 46.8208 47.653 46.758C47.9559 46.7161 48.1506 46.7161 48.367 46.6324C48.5834 46.5487 48.6267 46.6533 48.908 46.6533C49.1893 46.6533 49.8817 46.4231 50.1846 46.4231C50.4876 46.4231 50.4876 46.3813 50.6823 46.3185C50.8554 46.2766 50.9636 46.2766 51.1584 46.2348C51.3315 46.2138 51.3964 46.2348 51.656 46.1511C51.9157 46.0673 52.0239 45.9836 52.435 45.9208C52.8461 45.879 52.435 45.9208 52.5216 45.9208C52.6081 45.9208 53.2789 45.7534 53.452 45.7116C53.6251 45.6906 53.7982 45.6906 53.69 45.6069C53.5818 45.5232 53.7333 45.4395 53.9064 45.3976C54.0579 45.3767 54.3175 45.1884 54.4907 45.1884C54.6421 45.1884 54.4907 45.3349 54.2094 45.4186C53.9281 45.5023 53.9064 45.6279 54.0579 45.5651C54.2094 45.5232 54.4474 45.4604 54.8369 45.3349C55.2264 45.2093 55.5726 45.2093 55.7024 45.1674C55.8322 45.1256 55.7889 45.0419 55.7889 44.9372C55.7889 44.8326 56.0053 44.8954 56.1568 44.8117C56.3083 44.728 56.5246 44.707 56.7843 44.6442C57.044 44.5605 57.4118 44.4977 57.1954 44.5605C56.9791 44.6442 57.1089 44.728 57.3253 44.6861C57.5416 44.6442 57.5633 44.5605 57.6931 44.5396C57.8229 44.5187 57.8229 44.5187 57.8229 44.3722C57.8229 44.2257 58.0393 44.3303 58.1042 44.414C58.1908 44.5187 58.3639 44.3303 58.6019 44.121C58.8183 43.9118 58.6019 44.121 58.7317 44.0792C58.8616 44.0373 58.9481 43.9955 59.1645 43.9536C59.3809 43.9118 59.3809 43.9955 59.5107 43.9118C59.6406 43.8281 59.7271 43.7025 59.9435 43.6606C60.1599 43.6188 60.333 43.7025 60.5277 43.6188C60.7008 43.5351 61.112 43.4095 61.7178 43.0119C62.3453 42.6352 65.8724 40.8772 66.1753 40.7516C66.4783 40.6261 66.435 40.4168 66.5215 40.2912C66.6081 40.1657 66.911 40.2075 66.911 40.2075C66.911 40.2075 66.911 40.2075 67.214 39.8727C67.5169 39.5378 67.3438 39.5797 67.4736 39.3495C67.6034 39.1402 67.69 39.4332 67.9064 39.2658C68.1228 39.0983 68.2959 38.7426 68.7935 38.1147C69.2696 37.466 69.5942 36.4823 69.5942 36.4823C71.1088 32.5688 70.3515 30.6853 70.3515 30.6853ZM63.4056 40.1447C62.8214 40.4168 61.5447 41.0028 61.2851 41.1074C61.0254 41.2121 60.7657 41.1911 60.6792 41.2748C60.5926 41.3795 60.4412 41.4004 60.333 41.4423C60.2248 41.4841 60.03 41.5469 59.8353 41.6515C59.6622 41.7562 58.4721 42.1747 57.9311 42.3631C57.3902 42.5305 55.2913 43.1374 54.7936 43.3049C54.2959 43.4514 52.9327 43.7653 52.3917 43.8281C51.8508 43.9118 51.8724 43.9955 51.656 44.0583C51.4397 44.1001 51.6344 44.2048 51.418 44.2048C51.2016 44.2048 50.4443 44.3722 50.1846 44.414C49.925 44.435 49.7735 44.414 49.5788 44.414C49.4057 44.414 49.1027 44.414 49.0378 44.435C48.9513 44.4559 48.7781 44.5187 48.6483 44.5396C48.5185 44.5605 48.2372 44.5605 47.588 44.6442C46.9389 44.728 46.0734 44.6861 46.2032 44.6652C46.2032 44.6652 48.8647 44.3094 49.1676 44.2885C49.4706 44.2675 53.1491 43.4514 53.6035 43.4095C54.0362 43.3676 57.8879 42.2794 59.1645 41.798C60.4412 41.3167 62.6916 40.3331 63.4705 39.9564C64.2495 39.5797 64.4659 39.4541 64.4659 39.4541C64.4659 39.4541 63.9682 39.8727 63.4056 40.1447Z" fill="#FFC327"/>
<path opacity="0.75" d="M68.1209 26.9184C66.5197 25.4953 65.9355 25.0976 65.7191 24.9721C65.5027 24.8465 64.4424 24.2605 64.2477 24.1559C64.0746 24.0512 63.1658 23.5908 63.1658 23.5908C63.1658 23.5908 61.2183 22.8165 60.8937 22.6909C60.5908 22.5653 58.1024 21.7492 56.2632 21.4562C54.4239 21.1632 53.2122 20.9539 52.4115 20.9539C51.6109 20.9539 51.308 20.8911 50.8969 20.8911C50.4857 20.8911 45.3142 21.2469 44.1241 21.4562C42.934 21.6654 40.8134 22.0212 40.3374 22.1259C39.8397 22.2305 37.3513 23.1095 36.9185 23.2769C36.5074 23.4443 34.4734 24.7628 34.2787 24.8884C34.0623 25.0139 33.2617 25.8929 33.0669 26.2068C32.8505 26.4998 32.6125 27.1067 32.5476 27.4834C32.4827 27.8601 32.4178 29.7018 32.5476 30.2459C32.7207 30.8947 32.6125 31.3132 32.764 31.5225C32.8938 31.7318 33.1102 31.6481 33.2617 31.8574C33.3915 32.0666 33.543 32.1294 33.6728 31.8574C33.8026 31.5853 34.3003 31.2504 34.3003 30.9156C34.3003 30.5808 34.3652 29.5762 34.3652 29.5762C34.3652 29.5762 34.6465 28.0275 35.4039 27.6299C36.1612 27.2323 41.6573 25.7464 42.5012 25.4743C43.3451 25.2023 48.3435 24.4698 49.5337 24.4698C51.4811 24.4698 55.0947 24.7419 58.4486 25.5371C60.3312 25.9975 64.6155 27.902 65.7191 28.6972C66.8226 29.5134 68.4022 31.0621 68.7484 32.0039C69.0946 32.9456 69.5058 34.5571 69.3759 35.7081C69.2461 36.8591 69.3759 37.1312 69.7222 36.315C70.0684 35.4988 70.5661 33.5525 70.5661 32.4015C70.5661 31.2086 69.7222 28.3205 68.1209 26.9184ZM59.9633 23.235C59.3358 23.0048 57.4965 22.5653 57.2152 22.5026C56.9339 22.4398 55.7438 22.2305 55.2029 22.1259C54.6403 22.0212 53.6016 21.8957 52.801 21.8538C52.0004 21.8119 51.1349 21.7492 50.6372 21.7492C50.1395 21.7492 49.4471 21.6864 49.2524 21.6864C49.036 21.6864 49.5337 21.6445 49.5986 21.6236C49.7933 21.5399 51.2431 21.5608 51.4162 21.5608C51.5893 21.5608 53.6016 21.7701 53.8613 21.7701C54.0993 21.7701 56.6094 22.1677 56.6094 22.1677C57.172 22.2096 60.0931 23.1095 60.3961 23.235C60.6774 23.3815 60.5908 23.4862 59.9633 23.235ZM62.6248 24.3861C62.6248 24.3861 62.4301 24.2396 62.3002 24.1768C62.1704 24.0931 61.9757 24.0303 61.8242 23.9466C61.6727 23.8629 61.4563 23.7164 61.4563 23.7164C61.5645 23.7582 62.2137 23.9884 62.3651 24.0931C62.495 24.1768 62.8412 24.4279 62.6248 24.3861Z" fill="#FFC327"/>
</g>
<circle cx="10" cy="228" r="10" fill="#FA8D8D" fill-opacity="0.51"/>
<circle cx="30" cy="161" r="5" fill="#87A3E3"/>
<circle cx="311" cy="17" r="5" fill="#87A3E3"/>
<defs>
<clipPath id="clip0_3066_8253">
<rect width="15.0455" height="4.88979" fill="white" transform="translate(72.8242 20.7207) rotate(-25.7586)"/>
</clipPath>
<clipPath id="clip1_3066_8253">
<rect width="15.0455" height="4.88979" fill="white" transform="translate(57.0273 14.1392) rotate(-63.7813)"/>
</clipPath>
<clipPath id="clip2_3066_8253">
<rect width="15.0455" height="4.88979" fill="white" transform="translate(40.8008 15.5796) rotate(-98.0024)"/>
</clipPath>
<clipPath id="clip3_3066_8253">
<rect width="15.0455" height="4.88979" fill="white" transform="translate(26.1797 23.3203) rotate(-132.433)"/>
</clipPath>
<clipPath id="clip4_3066_8253">
<rect width="15.0455" height="4.88979" fill="white" transform="translate(21.5664 39.6096) rotate(-165.501)"/>
</clipPath>
<clipPath id="clip5_3066_8253">
<rect width="15.0455" height="4.88979" fill="white" transform="translate(30.418 51.2969) rotate(145.18)"/>
</clipPath>
<clipPath id="clip6_3066_8253">
<rect width="15.0455" height="4.88979" fill="white" transform="translate(42.2305 53.8118) rotate(109.589)"/>
</clipPath>
<clipPath id="clip7_3066_8253">
<rect width="15.0455" height="4.88979" fill="white" transform="translate(57.582 50.689) rotate(76.4748)"/>
</clipPath>
<clipPath id="clip8_3066_8253">
<rect width="15.0455" height="4.88979" fill="white" transform="translate(71.0703 46.3271) rotate(59.178)"/>
</clipPath>
<clipPath id="clip9_3066_8253">
<rect width="15.0455" height="4.88979" fill="white" transform="translate(77.8086 34.1177) rotate(28.7535)"/>
</clipPath>
<clipPath id="clip10_3066_8253">
<rect width="41.9999" height="28.3783" fill="white" transform="translate(28.5664 19.0913)"/>
</clipPath>
</defs>
</svg>
