<svg width="227" height="159" viewBox="0 0 227 159" fill="none" xmlns="http://www.w3.org/2000/svg">
<path opacity="0.75" d="M226.729 151.975C226.237 151.516 226.152 151.151 225.478 150.735C224.762 150.137 224.34 149.564 224.212 149.018C224.014 148.584 223.522 148.125 224.138 147.882C224.866 147.708 225.621 147.24 225.171 146.962C224.722 146.685 223.851 145.835 223.429 145.263C222.937 144.803 222.627 144.3 222.317 143.797C221.895 143.225 221.543 142.539 222.046 142.227C222.549 141.915 222.085 141.16 221.705 140.77C221.326 140.38 216.45 135.966 214.975 134.587C213.5 133.208 211.351 131.414 209.592 129.237C207.722 126.991 206.076 124.883 206.374 121.64C206.671 118.396 207.352 116.791 207.278 115.655C207.204 114.518 207.757 112.367 207.138 111.361C206.588 110.243 206.866 109.791 206.123 109.488C205.38 109.185 204.609 109.176 203.908 109.055C203.095 108.864 201.218 108.639 200.517 108.518C199.746 108.509 199.425 108.778 198.639 108.293C197.853 107.807 194.295 107.79 193.049 107.799C191.802 107.808 187.698 107.922 186.703 107.775C185.821 107.697 184.183 108.087 183.258 107.827C182.263 107.68 181.241 107.828 179.909 107.472C178.507 107.23 173.772 107.109 171.67 106.746C169.568 106.382 165.096 105.333 163.775 104.206C162.455 103.079 162.806 99.2449 163.151 97.432C163.495 95.6192 164.438 88.5675 163.199 86.5555C161.917 84.3614 160.767 83.9626 159.841 83.7026C158.916 83.4426 157.193 83.469 156.787 83.3736C156.38 83.2783 153.802 82.9319 152.694 82.7153C151.587 82.4987 149.736 81.9786 148.447 81.8054C147.158 81.6322 145.826 81.2769 145.489 81.0688C145.264 80.9301 144.56 79.5598 143.789 79.5513C142.906 79.4734 141.393 79.1615 140.804 79.1096C140.146 79.1704 139.221 78.9104 138.969 79.0666C138.83 79.2921 139.097 79.613 139.503 79.7083C139.91 79.8036 140.386 79.7862 141.087 79.9075C141.718 80.1415 142.938 80.4275 142.643 80.4015C142.349 80.3756 140.739 80.4713 140.038 80.35C139.337 80.2287 139.31 80.5236 138.048 80.0555C136.716 79.7002 136.182 79.0585 136.658 79.041C137.134 79.0236 137.792 78.9627 137.525 78.6419C137.258 78.321 136.963 78.295 136.305 78.3559C135.647 78.4167 135.31 78.2086 134.16 77.8099C133.01 77.4112 132.534 77.4286 131.694 77.5329C130.854 77.6371 129.731 76.9435 129.325 76.8481C129.03 76.8222 127.993 76.4928 127.431 76.146C126.87 75.7992 126.812 75.14 125.41 74.8974C123.896 74.5855 120.714 73.7101 119.746 73.268C118.665 72.7564 117.934 71.6811 117.72 70.7704C117.438 69.9725 118.407 58.107 118.135 56.5371C117.752 54.8979 116.879 49.5292 116.233 48.8181C115.698 48.1764 113.522 46.6764 111.602 46.2691C109.681 45.8618 104.985 44.6745 102.198 44.6664C99.4257 45.1354 85.7556 45.4157 79.8437 45.1914C73.9319 44.9671 69.561 44.7599 68.4537 44.5432C67.2341 44.2573 66.7849 43.9798 66.0841 43.8585C65.3834 43.7372 65.1432 43.1215 65.844 43.2428C66.5447 43.364 69.3749 43.5543 70.4821 43.7709C71.6591 43.8747 74.04 43.7875 75.1474 44.0041C76.2546 44.2207 75.8751 43.8305 74.5859 43.6573C73.2967 43.4841 71.7402 42.99 70.3813 42.9296C69.0224 42.8691 66.8775 42.3232 66.0374 42.4274C65.085 42.4623 61.9451 41.7691 58.8166 40.3039C55.7577 38.7259 52.9464 35.7428 52.5939 35.0577C52.3537 34.4419 51.7881 32.8461 51.7881 32.8461C51.7881 32.8461 53.8312 28.0319 53.8811 26.1932C54.0007 24.2416 53.4019 12.654 53.142 10.3122C52.7698 7.90102 51.9172 4.25834 49.4469 2.73231C46.9765 1.20628 40.7705 0.956027 36.7364 0.956855C32.6326 1.07045 14.6154 4.11854 11.046 4.87386C6.20301 5.93302 2.47874 6.43685 1.53466 8.9697C0.478298 11.4332 -0.127906 18.693 0.259888 21.5812C0.647685 24.4694 0.303524 26.2822 4.20974 25.735C8.11596 25.1878 22.149 20.3017 30.7475 19.6928C39.3459 19.0839 47.7084 19.1082 46.966 23.3237C46.3359 27.6085 45.162 41.0613 45.3491 46.7857C45.5362 52.5102 53.1999 61.451 65.3489 62.8796C77.498 64.3082 94.6679 63.3853 100.034 63.7399C105.512 64.1637 109.218 66.4528 109.752 67.0945C110.399 67.8056 107.994 81.7444 107.526 84.2598C107.128 86.6624 110.517 94.9882 119.766 96.3394C125.26 97.2403 137.03 98.2787 145.61 100.463C151.413 101.867 155.595 104.138 155.502 105.795C155.236 109.993 151.912 117.132 153.744 120.445C155.576 123.758 158.031 124.807 160.946 125.361C163.974 125.985 165.445 126.115 167.083 125.724C168.608 125.264 173.215 124.838 174.884 125.402C176.552 125.965 186.161 125.98 188.194 126.457C190.227 126.934 194.555 126.959 194.555 126.959C194.555 126.959 196.139 127.158 196.545 127.253C196.839 127.279 197.583 127.583 197.738 127.834C197.892 128.086 197.614 128.537 197.389 128.398C197.165 128.259 182.468 127.438 180.815 127.352C179.274 127.335 174.427 127.145 173.432 126.998C172.619 126.807 170.602 126.808 169.607 126.66C168.612 126.513 168.376 127.146 169.077 127.268C169.778 127.389 178.059 128.298 180.006 128.41C181.954 128.523 188.005 128.521 189.546 128.538C191.087 128.555 191.9 128.746 193.119 129.032C194.339 129.318 195.88 129.335 195.992 129.404C196.174 129.361 197.239 129.395 197.463 129.534C197.575 129.604 197.425 130.601 197.285 130.827C197.146 131.052 196.668 138.858 197.516 141.252C198.477 143.715 199.786 145.614 200.448 146.802C201.223 148.06 201.377 148.311 202.345 148.754C203.313 149.196 203.608 149.222 203.972 149.135C204.335 149.048 204.293 148.866 204.715 149.438C205.137 150.011 206.249 151.476 208.018 152.881C209.788 154.286 211.023 155.049 211.809 155.534C212.665 155.907 213.451 156.393 213.114 156.185C212.847 155.864 210.868 154.797 209.687 153.444C208.506 152.092 207.468 151.762 206.624 150.618C205.78 149.473 206.213 149.273 207.181 149.715C208.192 150.34 210.469 152.681 211.677 153.739C212.997 154.866 214.864 155.863 215.917 156.67C216.858 157.407 217.756 157.962 217.938 157.918C218.302 157.831 218.372 157.719 218.821 157.996C219.382 158.343 219.789 158.438 220.35 158.785C220.981 159.019 221.682 159.14 220.741 158.403C219.688 157.597 218.437 156.357 217.945 155.897C217.454 155.438 216.807 154.727 216.385 154.154C215.963 153.582 215.653 153.079 215.61 152.897C215.455 152.645 216.408 152.61 217.306 153.165C218.204 153.72 219.3 154.709 220.086 155.194C220.872 155.68 222.797 157.336 222.893 156.929C222.99 156.521 222.316 156.105 221.894 155.532C221.515 155.142 221.317 154.708 220.938 154.318C220.558 153.928 220.275 153.13 220.57 153.156C220.864 153.182 221.495 153.416 221.41 153.052C221.437 152.757 221.363 151.621 222.064 151.742C222.764 151.863 223.38 151.62 223.829 151.898C224.278 152.175 225.049 152.184 225.386 152.392C226.226 152.288 227.151 152.548 226.729 151.975ZM43.2835 2.66419C42.6679 2.90717 41.3943 3.211 40.1477 3.21993C38.901 3.22886 31.5918 4.01097 30.1903 3.7684C28.6068 3.56924 23.8761 4.69776 22.7844 4.95819C21.6501 5.03648 18.9478 5.39265 17.198 5.71393C15.3359 5.96584 13.3188 5.96625 13.3188 5.96625C13.6131 5.99221 21.7852 3.56196 29.1371 2.96199C36.3766 2.29264 38.3937 2.29223 40.0042 2.19649C41.6573 2.28289 41.8393 2.23948 42.722 2.31736C43.4924 2.32588 43.899 2.4212 43.2835 2.66419ZM86.8586 61.2099C86.4947 61.2967 85.7939 61.1754 85.2054 61.1235C84.7293 61.1409 84.2801 60.8635 83.7342 60.9937C83.3007 61.1933 82.8515 60.9158 82.9909 60.6903C83.1302 60.4647 83.4785 59.9009 83.9973 60.0656C84.6284 60.2996 85.3292 60.4209 85.6234 60.4469C85.9177 60.4728 86.4635 60.3426 86.6881 60.4814C87.0946 60.5767 87.4044 61.0797 86.8586 61.2099ZM93.8621 61.1738C93.2736 61.1218 91.8877 61.3563 91.4812 61.261C91.0746 61.1657 90.5984 61.1831 89.9829 61.4261C89.3674 61.6691 89.0306 61.461 88.7363 61.435C88.3298 61.3397 88.5658 60.7065 89.042 60.689C89.4485 60.7844 90.4976 60.3418 90.9738 60.3244C91.45 60.3069 91.7442 60.3329 92.6269 60.4108C93.6916 60.4452 93.9432 60.2891 94.3227 60.6793C94.6325 61.1823 94.5203 61.1129 93.8621 61.1738ZM108.737 48.3947C106.999 47.944 105.416 47.7449 99.8676 47.4337C94.2074 47.0533 85.8606 47.506 84.5713 47.3328C83.464 47.1162 83.9516 46.3268 84.5401 46.3787C85.1286 46.4306 85.1983 46.3179 87.3973 46.2741C89.484 46.1609 94.3311 46.3507 97.6645 46.2286C100.998 46.1065 106.128 47.0942 107.572 47.5189C109.016 47.9436 110.518 49.0275 110.518 49.0275C110.518 49.0275 110.476 48.8453 108.737 48.3947ZM141.389 82.4314C142.679 82.6046 145.188 83.0638 146.225 83.3931C147.263 83.7225 145.203 83.5408 144.615 83.4889C143.914 83.3676 143.368 83.4978 142.822 83.628C142.276 83.7582 140.902 83.2208 140.453 82.9433C139.822 82.7093 140.437 82.4663 141.389 82.4314ZM129.061 94.6028C129.58 94.7675 130.982 95.0101 131.276 95.036C131.683 95.1313 133.94 95.7467 134.641 95.868C135.454 96.0586 136.069 95.8157 136.77 95.9369C137.471 96.0582 137.695 96.197 138.984 96.3702C140.161 96.474 140.862 96.5953 141.381 96.76C141.788 96.8553 144.323 97.0196 144.773 97.297C145.222 97.5745 146.372 97.9732 146.666 97.9992C146.96 98.0252 147.409 98.3026 147.227 98.346C146.976 98.5022 146.178 98.7886 145.772 98.6933C145.365 98.5979 143.627 98.1473 143.038 98.0954C142.407 97.8613 140.963 97.4366 139.856 97.22C138.748 97.0034 136.913 96.9604 135.918 96.8131C134.993 96.5531 133.955 96.2237 132.891 96.1893C131.896 96.042 131.896 96.042 130.606 95.8688C129.317 95.6956 128.547 95.6871 128.547 95.6871C127.958 95.6352 127.509 95.3577 127.718 95.0194C127.703 94.5424 128.612 94.3253 129.061 94.6028ZM135.741 98.1055C130.22 97.4995 127.417 97.0144 125.202 96.5811C122.987 96.1479 122.383 95.619 122.383 95.619C122.383 95.619 125.256 95.9913 126.476 96.2773C127.695 96.5633 136.089 97.5417 139.999 98.2434C143.279 98.7111 142.915 98.7979 144.947 99.2745C146.573 99.6558 146.519 100.246 146.519 100.246C146.519 100.246 141.261 98.7115 135.741 98.1055ZM203.913 110.304C203.452 110.798 203.564 110.868 202.542 111.015C201.478 110.981 200.134 111.397 200.723 111.449C201.311 111.501 200.781 112.109 199.941 112.213C199.101 112.317 198.652 112.04 197.362 111.866C196.073 111.693 195.345 111.867 193.859 111.26C192.484 110.722 190.579 110.792 188.632 110.68C186.615 110.68 183.309 110.507 181.361 110.395C179.414 110.283 178.906 109.346 177.997 109.563C177.087 109.78 177.002 109.416 176.146 109.043C175.29 108.67 175.863 108.245 175.863 108.245C176.521 108.184 177.586 108.219 178.287 108.34C178.945 108.279 181.09 108.825 181.903 109.016C182.786 109.094 184.396 108.998 184.985 109.05C185.573 109.102 187.911 108.833 188.569 108.772C189.228 108.711 192.422 108.814 193.417 108.962C194.412 109.109 195.883 109.239 196.514 109.473C197.145 109.707 198.504 109.767 199.205 109.888C199.906 110.01 201.222 109.888 201.698 109.871C202.174 109.853 202.65 109.836 203.239 109.888C204.009 109.896 204.555 109.766 203.913 110.304Z" fill="#F98D8D"/>
</svg>
