<svg width="599" height="253" viewBox="0 0 599 253" fill="none" xmlns="http://www.w3.org/2000/svg">
<path opacity="0.75" d="M362.189 4.91834C365.93 5.92886 369.984 7.94989 368.425 8.20252C366.866 8.70778 368.425 10.7288 369.36 12.7498C370.295 14.7709 367.177 13.5077 367.177 15.2761C367.177 17.0445 368.113 18.3077 366.554 19.0656C364.995 19.8235 365.93 20.834 365.93 22.3497C365.93 24.1181 362.812 22.6024 361.253 24.876C360.318 25.8865 361.253 26.8971 362.501 28.4128C363.436 29.9286 362.812 31.1918 360.006 30.9391C357.2 30.6865 353.771 31.697 349.094 31.697C344.417 31.697 311.991 30.6865 303.573 31.1918C295.155 31.697 279.877 33.9707 276.136 34.4759C272.082 35.2338 230.927 42.8127 205.36 49.8863C179.794 56.9599 139.573 72.1177 123.048 80.9597C106.524 89.8017 70.0448 112.033 55.079 125.17C40.1133 138.559 27.0182 148.664 20.1589 161.801C13.2996 175.19 4.88136 197.674 5.81672 205.253C5.81672 205.253 3.63422 203.99 2.07528 197.169C0.516351 190.348 -0.730796 168.875 2.07528 155.99C4.56958 144.117 17.9764 118.349 39.8015 100.917C61.6265 83.486 81.8927 66.8124 110.889 52.6652C139.885 38.518 156.41 30.1812 190.394 20.834C224.379 11.2341 229.368 10.7288 231.862 9.71829C234.356 8.70778 235.603 8.45515 238.098 8.45515C240.592 8.45515 242.151 7.192 244.333 6.68674C246.516 6.43412 273.018 0.876278 301.079 0.118391C329.451 -0.639496 352.835 2.39205 362.189 4.91834Z" fill="#FFCA42" fill-opacity="0.3"/>
<path opacity="0.75" d="M517.771 104.202C517.771 104.202 493.14 120.623 478.174 128.455C463.52 136.286 415.505 164.833 362.19 173.422C308.874 182.012 266.783 186.054 198.813 183.022C130.844 179.991 99.9769 166.349 89.0644 156.244C78.1519 146.139 67.2393 122.897 65.9922 112.034C65.9922 112.034 62.2507 139.318 61.939 147.654C61.6272 156.244 62.2507 181.001 88.129 196.412C113.696 211.822 162.334 219.148 203.178 220.917C244.022 222.685 308.562 219.906 341.612 212.327C374.661 204.748 427.353 189.085 440.448 183.528C453.543 177.717 459.155 174.433 457.596 174.686C456.037 174.938 444.813 180.496 442.319 181.507C439.824 182.517 422.676 189.085 416.44 191.107C411.14 192.875 404.904 193.885 403.657 194.138C405.528 193.885 417.688 190.096 422.053 188.58C426.418 186.812 432.653 184.033 433.9 183.528C435.148 183.022 435.459 182.012 437.018 181.759C438.577 181.507 439.201 181.507 440.136 181.001C441.072 180.243 444.501 179.738 446.06 178.98C447.619 178.222 448.243 177.465 448.866 176.959C449.49 176.454 451.049 175.949 451.672 175.191C452.608 174.433 452.919 174.18 454.478 173.928C456.037 173.928 457.908 173.423 458.532 172.665C459.155 171.907 460.402 171.401 461.026 171.401C461.649 171.401 464.144 171.401 465.079 170.644C465.703 170.138 480.98 162.307 485.969 159.023C491.269 155.738 494.387 153.212 495.322 152.454C496.258 151.696 496.57 150.686 497.193 150.686C498.129 150.433 498.752 149.928 498.752 149.675C498.752 149.17 499.376 148.412 500.311 148.16C501.246 147.907 502.805 146.391 505.611 142.854C508.729 139.318 509.353 138.812 512.471 130.223C515.589 121.886 519.642 107.992 517.771 104.202ZM461.026 146.139C459.779 146.896 458.532 147.402 457.284 148.16C448.554 152.707 426.729 163.57 410.516 168.623C389.315 175.191 358.448 183.78 348.783 185.549C339.117 187.317 337.87 187.317 335.999 186.812C334.129 186.307 334.752 186.812 330.387 187.064C326.022 187.317 321.345 188.833 319.475 189.086C317.604 189.338 298.585 191.359 277.695 192.117C256.494 192.875 223.444 191.359 223.444 191.359C223.444 191.359 276.448 191.864 300.144 189.338C324.152 186.812 332.882 185.296 336.935 184.538C340.988 183.78 369.361 180.243 397.733 170.391C423.611 161.549 443.878 154.728 456.973 148.16C459.779 146.644 461.338 145.886 461.026 146.139Z" fill="#FFCA42" fill-opacity="0.3"/>
<path opacity="0.75" d="M597.902 96.6229C596.654 92.0755 595.719 85.0019 591.666 78.9388C587.613 72.8757 571.712 57.9706 560.487 52.1602C549.263 46.3497 523.385 36.7498 502.183 30.6867C480.67 24.8762 467.263 23.6131 460.092 22.6026C452.921 21.5921 444.191 20.3289 439.826 19.571C435.461 19.0658 409.894 17.2974 400.852 16.5395C392.122 15.7816 377.78 14.7711 370.297 15.0237C363.126 15.2763 336.313 14.7711 331.948 14.5184C327.583 14.2658 316.046 13.7606 309.811 14.0132C303.575 14.2658 292.039 15.529 285.803 16.0342C279.567 16.5395 246.518 18.8131 237.476 21.0868C228.746 23.3605 224.693 23.6131 219.704 23.8657C215.028 24.1183 210.351 26.392 209.104 26.392C207.856 26.392 184.784 30.9393 177.925 32.4551C171.066 33.9709 147.682 42.5603 133.963 48.6234C120.244 54.4338 106.526 62.0127 98.1076 67.8232C89.6894 73.6336 83.4536 77.4231 75.3472 89.8019C67.5525 101.928 65.37 110.77 64.1228 120.875C62.8757 130.98 60.6932 142.096 61.3168 151.443C61.9403 160.791 64.1228 167.864 65.37 169.633C65.37 169.633 72.2293 125.17 114.632 99.1491C156.723 73.1284 228.746 57.2127 322.594 51.1496C416.442 45.0865 513.407 67.5705 534.297 77.4231C534.297 77.4231 536.168 76.9178 529.309 74.1389C522.137 71.36 512.784 68.8337 512.784 68.8337C512.784 68.8337 519.643 69.0863 534.297 74.8968C548.951 80.7072 557.681 86.2651 564.229 90.8124C570.464 95.1071 577.635 101.423 580.442 108.749C583.248 115.823 585.43 126.433 585.43 134.517C585.43 142.601 583.559 147.907 584.495 146.643C585.43 145.38 592.289 133.001 595.407 120.875C598.213 108.749 599.149 101.17 597.902 96.6229ZM493.765 38.2656C483.476 34.9814 475.369 34.2235 471.94 33.7182C468.51 33.213 466.951 32.7077 463.522 32.4551C460.092 32.2025 464.145 31.4446 460.404 30.9393C456.662 30.4341 451.674 30.4341 445.75 29.9288C439.826 29.4236 434.837 27.6552 427.666 27.6552C420.807 27.6552 408.335 25.6341 399.917 25.3815C391.499 25.1289 382.769 24.8762 375.909 24.6236C369.05 24.371 363.75 23.3605 357.202 23.3605C350.967 23.3605 342.548 22.8552 348.784 22.0973C351.902 21.5921 363.75 21.3394 369.674 21.3394C375.286 21.3394 388.069 22.0973 392.746 22.3499C397.423 22.6026 453.544 26.8973 462.274 28.9183C471.004 30.9393 500.936 37.2551 513.096 40.7919C524.944 44.3287 533.05 48.6234 533.05 48.6234C533.05 48.6234 504.054 41.5497 493.765 38.2656Z" fill="#FFCA42" fill-opacity="0.3"/>
<path opacity="0.75" d="M596.965 94.0963C596.341 92.5806 580.128 120.117 571.71 128.201C563.292 136.285 528.683 157.506 509.976 165.338C491.269 173.169 433.276 190.601 427.976 192.116C422.988 193.632 419.558 192.874 416.128 193.885C412.699 194.895 416.44 192.369 412.075 193.38C407.71 194.39 374.037 201.464 367.178 202.727C360.318 203.99 335.064 208.285 325.71 209.548C316.356 210.811 247.14 217.632 221.262 217.885C195.071 218.137 149.239 216.621 131.779 215.106C114.319 213.59 91.2465 210.053 74.0982 207.274C56.95 204.495 42.9196 196.916 34.1895 192.116C25.4595 187.569 21.0945 181.253 17.3531 175.19C13.9234 169.38 7.06411 152.454 7.06411 142.601C7.06411 142.601 1.14016 151.19 0.204798 166.096C-0.730562 181.001 1.14016 207.527 14.2352 218.39C27.3302 229.253 56.3264 243.4 97.1704 247.695C137.703 251.989 183.224 253 190.706 253C198.189 253 221.262 252.747 225.938 252.747C230.615 252.747 233.733 252.495 237.474 252.242C241.216 251.989 240.904 250.474 239.033 250.474C237.163 250.474 237.786 250.726 234.98 250.979C232.174 251.232 230.927 251.737 229.368 251.232C227.809 250.726 226.874 250.726 225.003 250.979C223.132 251.232 222.197 250.979 219.703 250.979C217.208 250.979 217.832 250.979 215.026 251.232C212.22 251.484 211.284 249.968 211.284 249.968C211.284 249.968 213.467 249.463 215.961 249.463C218.455 249.463 230.927 249.463 233.421 249.211C235.604 248.958 238.722 248.958 240.904 249.211C243.087 249.463 245.581 249.211 247.452 249.211C249.322 249.211 249.011 247.442 250.881 247.442C252.752 247.442 251.817 247.947 254.311 247.947C256.805 247.947 259.923 247.189 262.106 247.189C264.288 247.189 267.406 244.663 270.524 244.663C273.642 244.663 275.512 243.905 276.136 245.168C276.76 246.432 277.695 246.179 277.695 245.421C277.695 244.663 277.695 242.895 279.877 242.642C282.06 242.39 284.554 242.39 287.36 241.884C290.166 241.379 296.714 240.368 298.896 240.368C301.079 240.368 302.95 241.126 302.95 241.126C302.95 241.126 295.467 241.632 292.349 242.137C289.231 242.642 284.554 243.653 287.049 243.653C289.543 243.653 292.661 243.653 294.531 243.653C296.402 243.653 297.026 244.158 299.52 243.653C302.014 243.147 302.95 242.39 306.068 242.137C309.185 241.884 309.809 241.126 312.927 241.126C316.045 241.126 317.292 241.126 318.539 241.126C319.786 241.126 323.216 240.874 325.398 240.621C327.581 240.369 327.893 239.105 330.075 238.853C332.258 238.6 338.805 238.095 340.988 237.842C343.17 237.59 346.6 236.832 348.782 236.326C350.965 235.821 354.706 235.063 357.201 234.811C359.695 234.558 358.759 235.316 362.189 235.316C365.619 235.316 366.554 236.326 371.855 234.558C377.155 232.79 376.22 232.537 379.026 231.526C381.832 230.516 387.444 229.505 391.185 229C394.927 228.495 396.486 227.737 398.356 227.737C400.227 227.737 401.474 227.737 401.163 226.727C400.851 225.716 402.721 224.706 403.657 225.716C404.592 226.727 406.775 226.474 406.775 226.474C410.204 225.463 413.946 223.948 415.816 223.948C417.687 223.948 418.934 223.442 422.676 222.432C426.417 221.421 426.417 221.421 428.6 221.169C430.782 220.916 430.47 218.137 433.277 217.632C436.083 217.127 441.383 216.369 444.501 215.358C447.619 214.348 449.801 214.6 452.919 213.59C456.037 212.579 455.725 213.842 447.619 215.611C439.512 217.379 439.2 218.39 442.007 218.137C444.813 217.885 448.554 216.116 452.919 215.358C457.284 214.6 458.531 214.095 459.778 213.337C461.026 212.579 459.778 211.569 462.584 210.811C465.391 210.053 470.379 208.285 473.185 207.527C475.991 206.769 480.98 206.264 483.474 205.253C485.968 204.243 489.398 203.737 491.581 202.727C493.763 201.716 496.881 200.453 495.634 200.453C494.387 200.453 490.333 201.969 486.904 202.979C483.474 203.99 480.98 203.737 480.98 203.737C480.98 203.737 484.721 202.222 488.151 201.464C491.581 200.706 492.516 199.695 495.322 198.937C498.128 198.179 499.999 196.916 499.063 196.916C498.128 196.916 493.451 197.422 495.946 196.411C498.44 195.401 501.558 194.643 505.299 193.38C509.041 192.116 513.406 188.832 513.406 188.832C513.406 188.832 514.029 190.095 511.847 191.611C509.664 193.127 508.105 194.137 511.223 193.38C514.341 192.622 512.782 193.38 516.212 191.864C519.641 190.348 524.942 188.327 529.619 186.306C534.295 184.285 535.231 184.285 537.101 183.022C538.972 181.759 539.596 182.264 538.972 181.759C538.349 181.253 537.101 180.748 537.101 180.748C540.531 179.485 541.466 177.969 543.961 177.211C546.455 176.453 550.196 172.411 552.691 171.148C555.185 169.885 559.55 168.117 561.109 166.853C562.668 165.59 564.227 164.58 566.721 162.811C569.215 161.043 573.581 156.243 575.139 154.727C576.698 153.212 578.569 150.938 579.504 149.169C580.44 147.401 584.493 142.601 587.611 135.275C593.847 127.696 601.641 102.686 596.965 94.0963ZM489.398 182.769C475.68 187.822 456.66 194.39 452.296 195.653C448.242 196.916 431.718 199.695 424.235 202.222C416.752 204.495 395.55 208.032 388.067 209.8C380.585 211.569 335.687 219.4 321.345 220.663C307.003 221.927 266.471 225.716 258.676 225.716C251.193 225.716 245.581 225.463 242.775 225.716C239.969 225.969 235.604 226.727 231.551 226.727C227.497 226.727 225.938 227.484 222.82 227.484C219.391 227.484 216.897 227.484 213.467 227.484C210.037 227.484 117.748 225.463 102.471 220.411C99.9765 219.653 157.345 224.2 162.022 224.453C166.699 224.706 204.425 226.221 216.585 224.706C228.744 223.442 263.353 223.695 271.459 222.937C279.877 222.179 335.999 215.358 341.923 215.106C347.847 214.853 374.972 208.285 384.014 206.516C392.744 204.748 427.976 198.937 438.889 196.916C449.801 194.895 465.702 188.327 475.991 185.295C485.968 182.264 521.2 167.864 528.06 164.58C528.683 164.58 503.429 177.464 489.398 182.769Z" fill="#FFCA42" fill-opacity="0.3"/>
</svg>
