<svg width="287" height="198" viewBox="0 0 287 198" fill="none" xmlns="http://www.w3.org/2000/svg">
<path opacity="0.75" d="M52.7627 165.585C52.89 169.301 53.2322 169.99 53.9099 173.777C54.6569 177.358 53.8917 180.315 52.5106 182.031C51.1295 183.748 49.201 184.362 47.2049 184.494C45.2088 184.626 44.591 184.074 42.941 183.519C41.2909 182.964 38.0573 182.679 36.7513 182.125C35.5138 181.709 33.3115 181.772 31.4551 181.147C29.5988 180.523 26.7796 179.689 26.7854 177.624C26.7911 175.56 26.9308 174.803 28.4478 173.707C29.8964 172.472 31.2775 170.755 31.4885 169.104C31.6995 167.453 33.7774 162.642 33.7812 161.265C33.785 159.889 34.3468 155.831 35.0397 154.112C35.7327 152.394 35.6709 149.847 36.2954 147.991C36.9199 146.134 38.937 138.433 39.6993 136.508C40.4616 134.583 42.1954 129.771 42.6811 128.327C43.3731 126.952 44.6943 122.001 45.2475 121.039C45.8007 120.078 46.9794 116.915 47.5335 115.609C48.0183 114.509 48.7825 111.897 49.8889 109.973C50.9953 108.049 52.7291 103.237 53.6958 102.069C54.6624 100.902 55.5645 98.2208 56.323 97.6724C57.0815 97.124 58.2554 95.6821 59.2211 94.8589C60.2553 94.1736 63.0089 93.8372 65.4878 93.2935C68.1045 92.6814 72.0957 92.7613 73.9549 92.3536C75.8825 92.0836 77.7388 92.7081 77.8728 94.016C78.0068 95.3239 76.4195 96.9711 75.7978 97.7952C75.1762 98.6193 71.7211 103.771 70.8922 104.87C70.0634 105.969 64.7357 116.345 63.4183 119.92C62.1008 123.495 62.3014 125.629 61.1997 125.832C60.3044 126.105 60.1646 126.861 60.2302 128.031C60.3642 129.339 59.8794 130.439 59.3253 131.745C58.909 132.983 56.3397 141.302 56.0592 143.16C55.9167 144.948 54.8026 149.625 54.3844 151.551C53.9661 153.476 54.7921 153.41 53.8939 154.715C52.9956 156.02 54.0231 157.743 53.2627 158.98C53.0526 160.287 52.6306 163.589 52.7627 165.585Z" fill="#BBB0E5"/>
<path opacity="0.75" d="M132.35 76.4128C131.594 75.929 129.53 75.9232 127.051 76.4669C125.95 76.3262 124.849 76.1855 124.161 76.1836C122.51 75.9726 116.52 77.0571 115.143 77.3973C114.041 77.6007 113.49 77.8745 113.42 78.4248C112.454 79.2479 111.557 80.2089 110.246 81.3751C108.177 83.0898 106.237 87.4887 104.229 92.0939C102.083 96.7675 93.5432 123.858 92.5004 127.64C91.4577 131.422 89.4502 135.683 88.9046 133.892C88.2906 131.963 86.8032 122.394 86.1293 117.231C85.9278 115.441 83.8178 107.039 83.2722 105.249C82.8645 103.389 79.2384 95.7407 78.0037 94.2921C76.769 92.8435 75.8062 92.6344 74.0858 92.6296C72.3654 92.6249 70.2315 92.8254 68.9236 92.9594C67.6157 93.0934 63.0039 93.4935 61.2825 93.8328C59.699 94.1037 58.7285 96.6472 58.795 97.4732C58.795 97.4732 60.2331 100.023 61.2596 102.091C62.2177 104.02 65.0206 110.703 65.6366 111.944C66.2525 113.184 68.1002 116.905 68.3007 119.039C68.5013 121.173 69.9906 130.055 69.983 132.807C70.0438 135.698 71.0484 145.679 70.8345 148.362C70.689 151.183 71.2763 162.746 71.4769 164.88C71.6774 167.014 72.7771 167.499 74.2884 168.466C75.7313 169.296 78.4164 168.822 80.6178 169.103C82.8191 169.385 87.8425 169.467 89.6998 169.748C89.6998 169.748 91.9012 170.029 93.8317 168.727C95.7621 167.425 95.4865 167.562 99.0053 164.268C102.524 160.975 101.499 158.219 103.504 154.99C105.509 151.762 107.667 142.615 108.71 138.833C109.753 135.051 115.661 113.734 117.393 109.61C117.878 108.51 118.64 106.585 119.541 104.248C119.88 106.314 120.288 108.173 120.559 109.412C121.512 113.406 122.459 119.121 123.347 121.6C124.441 124.15 126.773 127.115 128.562 127.258C130.488 127.332 134.687 127.137 137.507 127.627C140.327 128.116 145.076 127.992 146.867 127.102C148.659 126.213 147.218 124.695 146.465 123.179C145.712 121.662 145.102 118.358 144.765 115.948C144.29 113.607 142.649 109.611 142.45 106.789C142.114 104.035 139.661 95.2889 139.526 94.325C139.391 93.3612 135.913 81.8592 134.957 79.2415C134.821 78.6218 134.409 78.1389 134.066 77.7939C134.412 77.1067 133.243 76.8282 132.35 76.4128Z" fill="#BBB0E5"/>
<path opacity="0.75" d="M128.561 127.259C131.039 127.059 137.228 128.453 140.326 128.117C143.355 127.644 148.032 128.758 150.94 122.16C153.849 115.561 154.983 103.659 158.377 95.6169C161.84 87.7126 166.202 78.1591 168.696 72.1101C168.696 72.1101 170.399 78.6525 172.313 83.1997C174.227 87.7469 178.899 90.5813 183.096 90.7306C187.294 90.8799 191.905 90.8239 195.347 90.1452C198.652 89.5351 202.378 85.9669 204.245 82.8065C205.974 79.7145 207.366 74.2131 208.749 71.8083C210.063 69.2657 214.232 54.8257 216.159 54.8999C218.086 54.9741 224.549 56.9188 227.92 57.1346C231.292 57.3504 239.205 57.7165 241.55 55.8649C243.895 54.0134 246.039 50.0279 247.078 47.6222C248.117 45.2165 248.61 41.0201 248.96 38.9565C249.448 36.8245 249.313 35.8607 252.01 30.9134C254.708 25.9661 254.43 26.7911 255.747 23.5604C257.063 20.3296 256.787 20.4665 256.237 20.3962C255.755 20.4636 255.687 20.3258 255.412 20.1186C255.137 19.9114 255.001 19.6357 255.208 19.3611C255.347 18.9485 255.555 18.3298 255.969 17.7804C256.384 17.231 257.212 16.1322 256.799 16.3375C256.385 16.5428 256.316 16.7491 256.041 16.5419C255.767 16.3347 255.63 16.059 255.975 15.7159C256.32 15.3728 256.734 14.8234 256.253 14.5468C255.772 14.2702 254.947 13.9926 254.947 13.9926C254.947 13.9926 254.948 13.6485 254.603 13.9917C254.327 14.4726 253.981 15.1598 253.705 15.2967C253.429 15.4336 253.087 14.7444 253.157 14.5382C253.226 14.3319 253.711 13.2322 254.263 12.6144C254.747 11.8587 254.541 11.7893 254.955 11.24C255.369 10.6906 255.371 10.0024 254.888 10.414C254.406 10.8255 253.784 11.6496 253.37 12.199C253.093 12.68 252.679 13.2293 252.609 13.4356C252.402 13.7103 252.333 13.9165 252.126 13.8472C251.92 13.7778 251.44 13.1571 251.44 13.1571C251.44 13.1571 251.373 12.6752 251.511 12.2627C251.65 11.8501 251.926 11.7133 252.133 11.4386C252.272 11.0261 251.859 10.8873 251.515 10.8863C251.309 10.817 250.207 11.0203 250.138 11.2266C249.931 11.5013 249.24 12.5316 248.964 12.6685C248.688 12.8054 239.845 25.4431 238.738 27.3669C237.701 29.0845 233.829 35.8178 233 36.9166C232.171 38.0154 231.067 39.251 230.449 38.6987C229.831 38.1465 221.99 36.542 219.376 36.4659C216.829 36.5277 209.33 35.9563 206.781 36.7063C204.164 37.6624 199.823 39.6461 198.368 42.9453C196.914 46.2444 188.806 66.5917 188.806 66.5917C188.806 66.5917 184.501 55.5003 183.954 54.3977C183.407 53.2951 182.72 52.605 181.139 52.1878C179.557 51.7705 166.139 51.3892 164.693 51.5916C163.247 51.7941 158.288 53.5696 157.528 54.4621C156.769 55.3546 149.795 63.7997 147.649 68.1292C145.504 72.4587 141.14 82.7004 140.24 84.6935C139.202 86.7552 133.876 96.4436 132.632 98.4358C131.319 100.29 128.036 117.898 126.308 120.646C124.649 123.532 124.024 125.388 125.054 126.079C126.016 126.632 128.561 127.259 128.561 127.259Z" fill="#BBB0E5"/>
</svg>
