<svg width="495" height="86" viewBox="0 0 495 86" fill="none" xmlns="http://www.w3.org/2000/svg">
<path opacity="0.75" d="M493.627 62.3011C492.406 62.0568 491.917 61.5682 490.452 61.5682C488.743 61.3239 487.522 60.8352 486.789 60.1023C486.057 59.6136 484.836 59.3693 485.568 58.392C486.545 57.4148 487.278 55.9489 486.301 55.9489C485.324 55.9489 483.126 55.4602 481.906 54.9716C480.685 54.7273 479.708 54.2386 478.731 53.75C477.51 53.2614 476.289 52.5284 476.778 51.5511C477.266 50.5739 475.801 49.8409 474.824 49.5966C473.847 49.3523 461.882 47.1534 458.219 46.4205C454.556 45.6875 449.428 44.9545 444.544 43.2443C439.416 41.5341 434.777 39.8239 432.09 34.4489C429.404 29.0739 428.916 25.8977 427.695 24.1875C426.474 22.4773 425.253 18.5682 423.299 17.5909C421.346 16.3693 421.346 15.392 419.881 15.6364C418.416 15.8807 417.195 16.6136 415.974 17.1023C414.509 17.5909 411.334 19.0568 410.113 19.5455C408.892 20.2784 408.648 21.0114 406.939 21.0114C405.229 21.0114 399.613 24.4318 397.659 25.6534C395.706 26.875 389.357 31.0284 387.648 31.7614C386.182 32.4943 383.985 34.6932 382.275 35.1818C380.566 35.9148 379.101 37.1364 376.659 37.8693C374.217 38.8466 366.647 43.2443 362.984 44.7102C359.321 46.1761 351.263 48.8636 348.088 48.375C344.914 47.8864 341.739 41.5341 340.519 38.358C339.298 35.1818 333.925 23.2102 330.018 21.2557C325.867 19.0568 323.669 19.5455 321.96 20.0341C320.251 20.5227 317.564 22.233 316.832 22.4773C316.099 22.7216 311.704 24.6761 309.75 25.4091C307.797 26.142 304.378 27.1193 302.18 28.0966C299.983 29.0739 297.541 29.8068 296.808 29.8068C296.32 29.8068 293.878 28.3409 292.657 29.0739C291.192 29.8068 288.506 30.7841 287.529 31.2727C286.552 32.0057 284.843 32.4943 284.599 32.983C284.599 33.4716 285.331 33.7159 286.064 33.4716C286.796 33.2273 287.529 32.7386 288.75 32.25C289.971 32.0057 292.169 31.2727 291.68 31.517C291.192 31.7614 288.75 33.4716 287.529 33.9602C286.308 34.4489 286.552 34.9375 284.11 35.4261C281.668 36.1591 280.203 35.6705 280.936 35.1818C281.668 34.6932 282.645 33.9602 281.912 33.7159C281.18 33.4716 280.692 33.7159 279.715 34.4489C278.738 35.1818 278.005 35.1818 275.808 35.6705C273.61 36.1591 272.877 36.6477 271.656 37.625C270.435 38.6023 267.994 38.6023 267.261 38.8466C266.773 39.0909 264.819 39.5795 263.598 39.5795C262.377 39.5795 261.645 38.6023 259.203 39.5795C256.517 40.5568 250.656 42.267 248.702 42.5114C246.505 42.7557 244.307 41.7784 243.086 40.5568C241.865 39.5795 231.853 20.0341 229.9 17.8352C227.702 15.6364 221.109 8.0625 219.399 7.57386C217.934 7.08523 213.05 6.84091 209.632 8.0625C206.213 9.28409 197.666 11.9716 193.271 14.6591C189.364 18.0795 168.119 31.7614 158.596 37.1364C149.072 42.5114 141.991 46.4205 140.037 47.1534C137.839 47.8864 136.863 47.8864 135.642 48.375C134.421 48.8636 133.444 48.1307 134.665 47.642C135.886 47.1534 140.525 44.7102 142.479 43.9773C144.433 43 148.095 40.5568 150.049 39.8239C152.002 39.0909 151.026 38.8466 148.828 39.8239C146.63 40.8011 143.7 41.5341 141.502 42.7557C139.304 43.9773 135.397 45.1989 134.176 46.1761C132.711 47.1534 127.095 49.108 120.746 49.8409C114.397 50.3295 107.071 48.375 105.85 47.642C104.873 46.9091 102.432 44.9545 102.432 44.9545C102.432 44.9545 100.966 35.4261 99.257 32.4943C97.5477 29.3182 85.3381 11.7273 82.652 8.30682C79.7217 4.88636 74.8378 0 69.4656 0C64.0934 0 54.0815 5.61932 47.7326 9.52841C41.3836 13.6818 15.9876 35.9148 11.1038 40.5568C4.51061 46.9091 -0.861613 51.3068 0.115154 56.1932C0.847729 61.0795 6.95253 73.0511 10.3712 77.2045C13.7899 81.358 15.0109 84.5341 20.6273 79.892C26.2437 75.25 43.5813 53.9943 56.5235 44.7102C69.4656 35.4261 82.652 27.3636 85.5823 34.6932C88.7568 42.0227 99.9896 64.2557 105.85 73.0511C111.711 81.8466 132.467 88.4432 152.979 78.9148C173.491 69.3864 199.62 51.3068 208.411 46.6648C217.446 42.0227 225.504 42.0227 226.969 42.5114C228.679 43 238.446 67.1875 240.156 71.5852C241.865 75.7386 255.296 85.5114 271.168 78.6705C280.692 74.7614 300.227 64.9886 315.855 60.1023C326.355 56.6818 335.146 56.1932 336.611 58.8807C340.274 65.7216 341.984 80.1364 348.088 83.5568C354.193 86.9773 359.077 86.2443 364.205 84.2898C369.577 82.3352 372.019 81.1136 374.217 78.9148C376.171 76.7159 383.008 71.5852 386.182 70.8523C389.357 70.1193 404.497 60.8352 408.16 59.6136C411.823 58.392 418.66 54.2386 418.66 54.2386C418.66 54.2386 421.346 53.017 422.079 52.7727C422.567 52.5284 424.032 52.2841 424.52 52.5284C425.009 52.7727 425.009 53.75 424.52 53.75C424.032 53.75 400.101 66.6989 397.415 68.1648C394.973 69.6307 387.159 74.0284 385.45 74.7614C383.985 75.25 380.81 77.2045 379.101 77.9375C377.391 78.6704 377.636 79.892 378.857 79.4034C380.078 78.9148 393.997 72.3182 397.171 70.6079C400.345 68.8977 409.869 63.0341 412.311 61.5682C414.753 60.1023 416.218 59.6136 418.416 58.8807C420.613 58.1477 423.055 56.6818 423.299 56.6818C423.544 56.4375 425.253 55.4602 425.741 55.4602C425.986 55.4602 426.718 57.1705 426.718 57.6591C426.718 58.1477 433.556 70.8523 437.218 73.7841C441.126 76.7159 445.033 78.4261 447.23 79.6477C449.672 80.8693 450.161 81.1136 452.114 80.8693C454.068 80.625 454.556 80.3807 455.044 79.892C455.533 79.4034 455.289 79.1591 456.51 79.6477C457.731 80.1364 460.905 81.358 465.056 81.8466C469.208 82.3352 471.894 82.3352 473.603 82.3352C475.312 82.0909 477.022 82.0909 476.289 82.0909C475.557 81.8466 471.405 82.0909 468.231 81.1136C465.056 80.1364 463.103 80.625 460.661 79.6477C458.219 78.6704 458.707 77.9375 460.661 77.6932C462.859 77.6932 468.719 79.1591 471.65 79.6477C474.824 80.1364 478.731 79.892 481.173 80.1364C483.371 80.3807 485.324 80.3807 485.568 80.1364C486.057 79.6477 486.057 79.4034 487.034 79.4034C488.255 79.4034 488.987 79.1591 490.208 79.1591C491.429 78.9148 492.65 78.4261 490.452 78.1818C488.01 77.9375 484.836 77.2045 483.615 76.9602C482.394 76.7159 480.685 76.2273 479.464 75.7386C478.243 75.25 477.266 74.7614 477.022 74.517C476.533 74.2727 477.999 73.2955 479.952 73.2955C481.906 73.2955 484.592 73.7841 486.301 73.7841C488.01 73.7841 492.65 74.517 492.406 73.7841C492.162 73.0511 490.696 73.0511 489.475 72.5625C488.499 72.3182 487.766 71.8295 486.789 71.5852C485.813 71.3409 484.592 70.3636 485.08 70.1193C485.568 69.875 486.789 69.6307 486.301 69.142C486.057 68.6534 484.836 66.9432 486.057 66.4545C487.278 65.9659 488.01 64.9886 488.987 64.9886C489.964 64.9886 491.185 64.2557 491.917 64.2557C493.138 63.2784 494.848 62.7898 493.627 62.3011ZM59.6979 5.86364C58.9654 6.84091 57.256 8.55114 55.3025 9.77273C53.349 10.9943 42.6045 19.3011 40.1626 20.2784C37.4765 21.5 31.1275 27.8523 29.6624 29.3182C27.953 30.5398 24.0459 33.7159 21.604 35.9148C18.9179 38.1136 15.7434 40.0682 15.7434 40.0682C16.2318 39.8239 26.7321 28.0966 37.7207 20.0341C48.4651 11.9716 51.6396 10.017 54.0815 8.30682C56.7677 6.84091 57.0118 6.59659 58.477 5.86364C59.6979 5.13068 60.4305 4.88636 59.6979 5.86364ZM185.213 55.4602C184.724 55.9489 183.503 56.4375 182.526 56.9261C181.794 57.4148 180.817 57.4148 180.085 58.1477C179.596 58.8807 178.619 58.8807 178.619 58.392C178.619 57.9034 178.619 56.6818 179.596 56.4375C180.817 56.1932 182.038 55.7045 182.526 55.4602C183.015 55.2159 183.747 54.483 184.236 54.483C184.968 54.2386 185.945 54.7273 185.213 55.4602ZM196.201 48.6193C195.224 49.108 193.271 50.8182 192.538 51.0625C191.806 51.3068 191.073 51.7955 190.341 52.7727C189.608 53.75 188.875 53.75 188.387 53.9943C187.654 54.2386 187.41 53.017 188.143 52.5284C188.875 52.2841 190.096 50.5739 190.829 50.0852C191.562 49.5966 192.05 49.3523 193.515 48.6193C195.224 47.642 195.469 47.1534 196.445 47.3977C197.422 47.8864 197.178 47.8864 196.201 48.6193ZM207.19 14.1705C204.015 15.1477 201.329 16.3693 192.294 21.2557C183.015 26.142 170.317 34.9375 168.119 35.9148C166.166 36.6477 166.166 34.9375 167.142 34.4489C168.119 33.9602 168.119 33.7159 171.538 31.517C174.712 29.3182 182.526 24.9205 187.654 21.5C192.782 18.0795 201.818 14.6591 204.504 13.9261C207.19 13.1932 210.608 13.4375 210.608 13.4375C210.608 13.4375 210.364 13.1932 207.19 14.1705ZM291.68 35.9148C293.878 34.9375 298.273 33.2273 300.227 32.7386C302.18 32.25 298.762 33.9602 297.785 34.4489C296.564 34.9375 295.831 35.6705 295.099 36.4034C294.366 37.1364 291.68 37.625 290.703 37.625C289.482 37.8693 290.215 36.892 291.68 35.9148ZM284.11 66.9432C285.087 66.6989 287.529 65.7216 288.017 65.4773C288.75 65.2329 292.901 64.0114 294.122 63.5227C295.587 63.0341 296.32 62.0568 297.541 61.5682C298.762 61.0795 299.25 61.0795 301.448 60.1023C303.401 59.125 304.622 58.6364 305.599 58.392C306.332 58.1477 310.483 55.9489 311.46 55.9489C312.436 55.9489 314.634 55.4602 315.123 55.2159C315.611 54.9716 316.588 54.9716 316.344 55.2159C316.099 55.7045 315.123 56.9261 314.39 57.1705C313.657 57.4148 310.483 58.392 309.506 58.8807C308.285 59.125 305.599 59.858 303.646 60.5909C301.692 61.3239 298.762 63.0341 297.052 63.767C295.343 64.2557 293.389 64.7443 291.68 65.7216C289.971 66.4545 289.971 66.4545 287.773 67.4318C285.575 68.4091 284.354 69.142 284.354 69.142C283.378 69.6307 282.401 69.6307 282.401 68.8977C281.912 68.1648 283.133 66.9432 284.11 66.9432ZM298.029 65.9659C288.75 70.3636 283.866 72.3182 279.959 73.7841C276.052 75.25 274.587 75.0057 274.587 75.0057C274.587 75.0057 279.471 72.8068 281.668 72.0739C283.866 71.3409 298.029 64.7443 304.867 62.0568C310.483 59.6136 309.995 60.1023 313.657 58.8807C316.588 57.9034 317.076 58.8807 317.076 58.8807C317.076 58.8807 307.308 61.5682 298.029 65.9659ZM417.195 19.0568C416.951 20.2784 417.195 20.2784 415.73 21.5C414.02 22.4773 412.311 24.4318 413.288 23.9432C414.264 23.4545 414.02 24.9205 412.799 25.8977C411.578 26.875 410.602 26.875 408.404 27.8523C406.206 28.8295 405.229 29.8068 402.299 30.2955C399.613 30.7841 396.683 32.7386 393.508 34.4489C390.334 36.4034 384.961 39.3352 381.787 41.0455C378.612 42.7557 376.903 41.7784 375.682 43C374.461 44.2216 373.973 43.733 372.263 43.9773C370.554 44.2216 371.042 43 371.042 43C372.019 42.267 373.729 41.2898 374.95 40.8011C375.926 40.0682 379.833 38.8466 381.299 38.358C382.764 37.625 385.206 35.9148 386.182 35.4261C387.159 34.9375 390.578 32.25 391.555 31.517C392.531 30.7841 397.659 27.8523 399.369 27.1193C401.078 26.3864 403.52 25.1648 404.741 24.9205C405.962 24.6761 408.16 23.4545 409.381 22.9659C410.602 22.4773 412.555 21.0114 413.288 20.5227C414.02 20.0341 414.753 19.5455 415.73 19.0568C416.951 18.3239 417.683 17.5909 417.195 19.0568Z" fill="#FBB116"/>
</svg>
