<svg width="381" height="286" viewBox="0 0 381 286" fill="none" xmlns="http://www.w3.org/2000/svg">
<path opacity="0.75" d="M201.17 35.7689C203.438 36.0865 206.077 37.183 205.266 37.5978C204.504 38.2179 205.765 39.6498 206.681 41.1656C207.598 42.6814 205.625 42.0747 205.974 43.5111C206.324 44.9475 207.09 45.8477 206.378 46.6729C205.667 47.4982 206.383 48.1932 206.683 49.4244C207.032 50.8608 205.009 50.0489 204.597 52.1053C204.28 53.0519 204.996 53.7469 205.985 54.8104C206.802 55.9158 206.707 57.0256 205.106 57.1978C203.505 57.37 201.809 58.652 199.224 59.281C196.639 59.91 178.516 63.4501 173.963 64.9927C169.409 66.5352 161.414 70.4367 159.446 71.3502C157.355 72.5109 136.104 84.2019 123.371 93.3858C110.637 102.57 91.4009 120.291 84.0144 129.695C76.6279 139.1 60.8579 162.063 55.1819 174.746C49.5558 187.634 44.3147 197.603 43.1194 209.196C41.9741 220.994 41.7645 240.389 43.7793 246.419C43.7793 246.419 42.3233 245.687 40.1136 240.356C37.9039 235.025 32.9707 217.751 31.9755 206.909C31.0076 196.929 33.3256 174.196 41.9443 157.102C50.5631 140.008 58.4699 123.739 71.7014 108.348C84.933 92.9576 92.4193 83.9637 109.357 71.8008C126.245 59.4327 128.902 58.3514 130.081 57.1952C131.26 56.0389 131.899 55.666 133.278 55.3305C134.657 54.9951 135.269 53.7594 136.375 53.0555C137.532 52.5568 151.082 44.4782 166.443 40.0888C181.976 35.6574 195.5 34.9749 201.17 35.7689Z" fill="#FFCA42"/>
<path opacity="0.75" d="M306.786 95.487C306.786 95.487 296.416 112.138 289.692 120.511C283.14 128.843 262.241 158.488 234.469 172.635C206.697 186.782 184.23 195.726 146.061 202.405C107.892 209.084 88.1346 202.154 80.1057 195.414C72.0768 188.674 61.4516 171.263 58.6154 162.607C58.6154 162.607 61.9395 185.272 63.4147 192.085C64.9399 199.104 70.1774 219.13 87.5271 228.166C104.704 237.245 133.037 236.654 155.963 232.598C178.889 228.541 214.013 217.604 230.783 207.003C247.554 196.403 273.583 176.594 279.723 170.318C285.813 163.838 288.266 160.415 287.454 160.83C286.642 161.245 281.537 167.269 280.358 168.425C279.179 169.581 270.998 177.223 267.951 179.703C265.371 181.852 262.124 183.512 261.484 183.885C262.468 183.428 268.44 178.714 270.554 176.896C272.617 174.873 275.514 171.777 276.104 171.199C276.693 170.621 276.666 169.758 277.478 169.343C278.29 168.928 278.634 168.844 279.051 168.308C279.419 167.567 281.215 166.695 281.926 165.87C282.638 165.045 282.833 164.345 283.078 163.851C283.323 163.357 284.085 162.737 284.28 162.037C284.647 161.296 284.769 161.049 285.581 160.634C286.443 160.424 287.377 159.762 287.572 159.063C287.767 158.363 288.356 157.785 288.701 157.701C289.046 157.617 290.424 157.282 290.792 156.541C291.036 156.046 297.933 147.631 300.042 144.292C302.322 140.912 303.546 138.44 303.914 137.699C304.281 136.958 304.253 136.095 304.598 136.011C305.065 135.68 305.31 135.186 305.26 134.981C305.16 134.57 305.355 133.871 305.822 133.54C306.289 133.209 306.851 131.768 307.704 128.518C308.728 125.226 308.973 124.731 308.999 117.335C309.074 110.144 308.569 98.3134 306.786 95.487ZM283.708 137.182C283.169 137.965 282.579 138.543 282.04 139.326C278.113 144.194 268.196 155.953 260.233 162.237C249.812 170.424 234.448 181.552 229.455 184.288C224.462 187.024 223.773 187.192 222.639 187.033C221.505 186.874 221.949 187.201 219.587 187.993C217.224 188.785 214.938 190.645 213.954 191.102C212.97 191.559 202.857 195.758 191.46 199.183C179.891 202.65 161.323 205.864 161.323 205.864C161.323 205.864 190.721 199.146 203.319 193.907C216.09 188.626 220.616 186.221 222.706 185.06C224.797 183.9 239.781 177.211 253.516 165.393C266.073 154.73 275.927 146.464 281.867 139.368C283.119 137.76 283.831 136.934 283.708 137.182Z" fill="#FFCA42"/>
<path opacity="0.75" d="M349.582 78.5553C347.994 75.0295 346.079 69.4097 342.641 65.0301C339.202 60.6505 327.467 50.6823 320.115 47.4723C312.762 44.2623 296.561 39.9451 283.644 37.8717C270.604 36.0455 262.944 36.8225 258.78 36.9662C254.617 37.1098 249.542 37.2579 246.979 37.2294C244.467 37.406 229.985 39.408 224.838 40.0085C219.863 40.567 211.735 41.675 207.649 42.8866C203.735 44.0562 188.814 47.252 186.352 47.6338C183.889 48.0157 177.413 49.1568 174.016 50.2006C170.619 51.2444 164.492 53.8219 161.145 55.0709C157.798 56.32 139.98 62.6115 135.431 65.6743C131.055 68.6952 128.865 69.4455 126.157 70.3216C123.622 71.1558 121.486 73.6316 120.797 73.7993C120.108 73.967 108.253 80.7635 104.761 82.9172C101.269 85.0709 90.0416 95.1925 83.657 101.962C77.2224 108.527 71.1373 116.528 67.6325 122.379C64.1277 128.231 61.4298 132.148 59.3955 143.293C57.4835 154.191 58.0246 161.666 59.3323 170.042C60.64 178.417 61.6305 187.74 63.8224 195.248C66.0144 202.756 68.6187 208.208 69.6576 209.477C69.6576 209.477 64.6619 172.44 82.9574 145.602C101.081 118.805 137.745 96.1917 188.421 78.6455C239.096 61.0993 297.137 66.3211 310.631 71.5144C310.631 71.5144 311.565 70.8524 307.225 69.5177C302.712 68.225 297.042 67.4309 297.042 67.4309C297.042 67.4309 300.884 66.7136 310.132 69.4624C319.38 72.2112 325.304 75.5514 329.822 78.3644C334.117 81.0141 339.329 85.1797 342.328 90.753C345.277 96.1212 348.58 104.446 350.178 111.012C351.776 117.579 351.79 122.139 352.057 120.988C352.325 119.836 353.67 108.859 352.997 98.5898C352.151 88.3629 351.171 82.0812 349.582 78.5553ZM280.488 45.1598C274.152 43.876 269.522 44.3506 267.526 44.4015C265.53 44.4523 264.569 44.2516 262.623 44.5076C260.678 44.7637 262.768 43.603 260.6 43.6958C258.432 43.7886 255.675 44.4595 252.301 44.8458C248.926 45.2321 245.819 44.4666 241.856 45.431C238.064 46.3535 230.771 46.3892 226.068 47.3162C221.365 48.2432 216.49 49.2121 212.648 49.9294C208.807 50.6467 205.678 50.5387 202.058 51.4193C198.612 52.2579 193.859 52.9797 197.156 51.5254C198.779 50.6957 205.278 48.8971 208.553 48.1004C211.655 47.3456 218.87 46.242 221.505 45.8183C224.14 45.3945 256.01 41.3351 261.235 41.8026C266.46 42.2701 284.252 43.3746 291.673 44.612C298.92 45.8914 304.25 48.2895 304.25 48.2895C304.25 48.2895 286.825 46.4436 280.488 45.1598Z" fill="#FFCA42"/>
<path opacity="0.75" d="M348.565 76.6295C347.92 75.4822 344.401 100.029 341.345 107.728C338.29 115.426 323.354 137.317 314.562 146.194C305.769 155.071 277.159 177.029 274.529 178.973C272.071 180.876 270.026 180.721 268.33 182.003C266.634 183.285 268.202 180.73 265.989 182.138C263.776 183.546 246.562 193.82 243.02 195.768C239.478 197.717 226.367 204.602 221.447 206.886C216.526 209.17 179.615 224.019 165.361 227.704C150.935 231.432 125.301 236.365 115.351 237.482C105.4 238.599 91.9483 238.829 81.9205 238.878C71.8927 238.927 62.6397 234.658 56.8656 231.933C51.1415 229.414 47.4806 224.871 44.2143 220.449C41.1702 216.191 34.0337 203.365 32.0865 195.363C32.0865 195.363 30.5096 203.136 32.9383 215.369C35.367 227.601 41.6433 248.895 51.0284 255.958C60.4135 263.02 79.2368 270.611 102.662 268.607C125.915 266.644 151.276 261.343 155.412 260.336C159.548 259.33 172.251 256.022 174.836 255.393C177.421 254.764 179.095 254.139 181.113 253.431C183.131 252.723 182.659 251.533 181.625 251.785C180.591 252.036 180.986 252.158 179.484 252.74C177.983 253.323 177.394 253.901 176.432 253.7C175.471 253.5 174.954 253.625 173.97 254.082C172.986 254.539 172.419 254.46 171.04 254.795C169.661 255.131 170.006 255.047 168.505 255.629C167.004 256.212 166.187 255.106 166.187 255.106C166.187 255.106 167.294 254.403 168.672 254.067C170.051 253.732 176.945 252.054 178.273 251.514C179.43 251.015 181.153 250.596 182.409 250.507C183.666 250.419 184.994 249.878 186.029 249.627C187.063 249.375 186.541 247.981 187.575 247.729C188.609 247.478 188.192 248.014 189.57 247.678C190.949 247.343 192.523 246.308 193.729 246.014C194.935 245.721 196.159 243.25 197.883 242.83C199.606 242.411 200.49 241.544 201.085 242.486C201.679 243.428 202.146 243.097 201.996 242.481C201.847 241.866 201.497 240.429 202.654 239.931C203.81 239.432 205.189 239.097 206.64 238.309C208.091 237.521 211.511 235.82 212.717 235.526C213.923 235.233 215.107 235.597 215.107 235.597C215.107 235.597 211.071 237.013 209.447 237.843C207.824 238.673 205.438 240.123 206.817 239.787C208.196 239.452 209.919 239.032 210.953 238.781C211.987 238.529 212.432 238.856 213.711 238.11C214.989 237.364 215.357 236.623 217.03 235.998C218.704 235.373 218.898 234.674 220.622 234.255C222.345 233.835 223.035 233.668 223.724 233.5C224.413 233.332 226.259 232.666 227.416 232.167C228.572 231.668 228.495 230.6 229.651 230.102C230.808 229.603 234.327 228.312 235.483 227.813C236.64 227.315 238.386 226.238 239.492 225.534C240.599 224.83 242.517 223.711 243.846 223.17C245.175 222.63 244.807 223.371 246.703 222.91C248.599 222.449 249.315 223.144 251.896 220.994C254.476 218.845 253.909 218.766 255.26 217.568C256.612 216.369 259.514 214.794 261.482 213.88C263.45 212.967 264.162 212.141 265.196 211.89C266.23 211.638 266.92 211.471 266.548 210.692C266.176 209.913 267.01 208.84 267.727 209.535C268.444 210.23 269.6 209.732 269.6 209.732C271.296 208.45 273.064 206.715 274.098 206.464C275.133 206.212 275.722 205.634 277.59 204.31C279.459 202.986 279.459 202.986 280.615 202.487C281.772 201.989 281.05 199.773 282.501 198.986C283.952 198.198 286.732 196.869 288.256 195.629C289.78 194.389 291.036 194.301 292.56 193.061C294.083 191.821 294.161 192.889 290.029 195.415C285.898 197.942 285.925 198.805 287.427 198.222C288.928 197.639 290.646 195.7 292.909 194.497C295.172 193.294 295.762 192.716 296.301 191.933C296.841 191.15 295.952 190.497 297.353 189.504C298.754 188.511 301.162 186.403 302.563 185.41C303.965 184.417 306.622 183.336 307.801 182.18C308.98 181.024 310.776 180.152 311.783 179.038C312.789 177.923 314.263 176.478 313.574 176.646C312.885 176.814 310.944 178.59 309.248 179.872C307.552 181.154 306.123 181.284 306.123 181.284C306.123 181.284 307.891 179.55 309.637 178.473C311.383 177.396 311.701 176.45 313.102 175.457C314.503 174.464 315.288 173.186 314.771 173.312C314.254 173.438 311.768 174.477 312.947 173.321C314.126 172.164 315.7 171.13 317.518 169.6C319.337 168.071 321.101 164.817 321.101 164.817C321.101 164.817 321.695 165.759 320.788 167.283C319.881 168.808 319.219 169.839 320.793 168.804C322.366 167.769 321.655 168.594 323.251 166.902C324.847 165.209 327.377 162.855 329.563 160.584C331.748 158.314 332.265 158.188 333.05 156.91C333.834 155.633 334.279 155.959 333.834 155.633C333.39 155.306 332.601 155.063 332.601 155.063C334.247 153.576 334.464 152.219 335.693 151.268C336.922 150.317 338.191 146.531 339.32 145.169C340.449 143.808 342.513 141.784 343.125 140.549C343.737 139.313 344.399 138.283 345.428 136.511C346.457 134.739 347.921 130.253 348.483 128.812C349.045 127.371 349.63 125.273 349.798 123.711C349.965 122.149 351.257 117.705 351.532 111.335C353.481 104.34 352.847 82.9773 348.565 76.6295ZM306.632 163.121C300.048 169.07 290.833 176.963 288.67 178.576C286.679 180.147 278.095 184.626 274.458 187.685C270.771 190.538 259.751 196.262 255.964 198.705C252.178 201.147 228.909 213.547 221.231 216.502C213.553 219.456 191.898 227.985 187.589 229.034C183.453 230.04 180.301 230.59 178.8 231.172C177.299 231.755 175.036 232.958 172.796 233.503C170.555 234.048 169.843 234.873 168.12 235.292C166.224 235.754 164.846 236.089 162.95 236.55C161.054 237.012 109.643 247.782 100.2 245.732C98.671 245.452 131.28 241.43 133.915 241.007C136.55 240.583 157.702 236.74 164.124 233.874C170.596 231.212 189.775 226.763 194.106 225.057C198.609 223.31 228.282 210.222 231.507 209.22C234.731 208.218 248.427 199.235 253.075 196.582C257.551 193.972 275.877 184.514 281.509 181.405C287.142 178.295 294.633 170.822 299.721 166.976C304.637 163.171 321.265 146.737 324.407 143.147C324.752 143.063 313.339 156.924 306.632 163.121Z" fill="#FFCA42"/>
</svg>
