<svg width="38" height="53" viewBox="0 0 38 53" fill="none" xmlns="http://www.w3.org/2000/svg">
<g clip-path="url(#clip0_739_5925)">
<path opacity="0.75" d="M24.4035 34.6774C24.9137 34.2436 25.9035 33.1067 26.6037 32.3599C27.304 31.6131 28.2903 31.4402 28.4202 31.6323C28.5258 31.8177 29.1345 33.4972 29.2116 33.5966C29.2886 33.696 29.1846 33.9804 28.9616 34.1279C28.7452 34.2511 28.1114 34.7554 28.0187 34.8082C27.9194 34.8852 23.4262 37.9562 21.9935 38.7108C20.5609 39.4655 17.9581 40.9685 16.7375 41.5204C15.5169 42.0724 12.0871 43.4529 10.7385 43.9959C9.36574 44.5323 7.43038 45.123 6.24108 45.3706C5.05177 45.6182 4.53771 45.6859 4.20244 45.6722C3.86717 45.6585 3.59801 45.689 3.40827 45.7152C3.21853 45.7414 3.18762 45.759 2.83905 45.7938C2.49048 45.8286 2.32499 45.8615 2.10434 45.9053C1.8837 45.9491 1.49561 45.8427 1.17169 45.5974C0.85442 45.3278 0.447176 44.7206 0.379109 44.4933C0.286787 44.2594 0.382253 43.8161 0.706572 43.7747C1.03089 43.7332 1.65723 43.8267 2.18654 43.8936C2.71585 43.9606 4.98139 43.8777 5.56391 43.7505C6.13978 43.6477 8.24923 43.1829 10.282 42.3321C12.2663 41.4679 13.9943 40.8725 15.9876 39.8804C17.9566 38.8817 18.9894 38.539 20.6763 37.3325C22.3875 36.1327 23.7873 35.2126 24.4035 34.6774Z" fill="#FBB116"/>
<path opacity="0.75" d="M5.85378 40.1267C5.61943 40.5058 4.88039 42.1548 4.54198 42.8183C4.20356 43.4818 3.16916 44.9715 2.72746 45.3459C2.29243 45.696 1.83118 45.8564 1.474 45.7324C1.11682 45.6084 1.06206 45.3326 0.863713 45.1999C0.665369 45.0673 0.555444 44.8025 0.756534 44.5446C0.957624 44.2868 1.36881 43.6433 1.62506 43.3745C1.87466 43.13 2.82534 41.5652 3.20757 41.1223C3.59645 40.6552 4.59839 38.7133 4.91451 38.2262C5.20636 37.7325 6.16645 35.753 6.69265 34.8802C7.24311 34.014 8.97744 30.4473 9.43988 29.4267C9.90232 28.406 10.7834 26.144 11.0799 25.4429C11.3456 24.7595 11.7908 23.4212 11.862 22.9713C11.9575 22.528 11.9955 22.1994 11.9626 22.0339C11.9297 21.8684 11.8926 21.6235 12.0827 21.3105C12.2728 20.9976 12.3773 20.4264 12.4548 20.239C12.5322 20.0516 12.8812 19.73 13.1105 19.8451C13.364 19.9667 13.7411 20.018 13.9328 20.1749C14.1245 20.3318 14.5939 20.617 14.6511 20.7891C14.7082 20.9612 14.8005 21.1952 14.6788 21.4487C14.5571 21.7022 14.2962 22.1783 14.1874 22.6701C14.072 23.1861 13.6843 24.4098 13.5869 24.6699C13.4652 24.9235 13.4628 25.0271 13.392 25.1903C13.3212 25.3534 13.2598 25.1018 13.1581 25.2826C13.0806 25.47 12.9903 25.4191 12.9789 25.6507C12.9918 25.889 12.9629 26.0897 12.8216 26.1292C12.6804 26.1687 12.5501 26.2634 12.5521 26.4464C12.5783 26.6362 12.6444 26.6804 12.5075 26.7993C12.3705 26.9182 12.2426 26.9092 12.2997 27.0814C12.3568 27.2535 12.2043 27.5246 12.0008 27.8861C11.7974 28.2476 10.1049 31.8518 9.76649 32.5153C9.42807 33.1788 7.91323 35.9451 7.55916 36.7608C7.28451 37.5721 5.85378 40.1267 5.85378 40.1267Z" fill="#FBB116"/>
<path opacity="0.75" d="M32.9011 9.20675C33.3526 8.13092 33.6937 7.07699 33.736 6.82779C33.7782 6.57858 33.8514 6.31177 34.1472 6.18424C34.4187 6.05006 34.6636 6.0129 35.0251 6.21634C35.3865 6.41978 36.169 6.89512 36.5038 7.19558C36.8387 7.49604 36.9349 8.09617 36.7092 8.63409C36.4592 9.16535 36.2444 9.75844 35.7757 10.5166C35.307 11.2748 34.6439 12.2665 34.5089 12.5685C34.3739 12.8705 34.3869 13.1088 34.248 13.0446C34.1333 12.9871 33.9921 13.0266 33.9213 13.1897C33.8505 13.3529 32.8423 15.0324 32.5086 15.4885C32.1573 15.9137 31.6154 16.9387 31.2285 17.5889C30.8173 18.2325 30.2359 19.1162 30.0724 19.3321C29.9089 19.5481 29.732 19.8126 29.6968 19.7507C29.6616 19.6889 29.9644 19.2504 30.2164 18.9022C30.4617 18.5783 30.8662 17.959 30.9746 17.754C31.0587 17.5424 31.0896 17.5248 31.1913 17.344C31.293 17.1633 31.3924 17.0862 31.3153 16.9868C31.2383 16.8875 30.8955 17.4715 30.7762 17.6214C30.6502 17.7955 30.2809 18.4766 30.0665 18.7829C29.8764 19.0959 29.5845 19.5896 29.4586 19.7636C29.3326 19.9377 29.0853 20.0786 28.9836 20.2593C28.8752 20.4643 28.725 20.6317 28.6499 20.7155C28.5748 20.7992 27.5693 22.0882 27.3749 22.3218C27.1871 22.5311 26.5177 23.2603 26.436 23.3683C26.3542 23.4762 25.0393 25.2281 24.9266 25.3536C24.8073 25.5035 23.8198 26.5367 23.7447 26.6204C23.6387 26.7217 23.3292 27.1845 23.2166 27.3101C23.1039 27.4357 22.5229 28.0326 22.3727 28.2001C22.2225 28.3675 22.134 28.4997 22.0214 28.6253C21.9087 28.7509 21.7565 28.7353 21.8625 28.6339C21.9686 28.5326 22.0284 28.3143 21.9533 28.398C21.8539 28.4751 21.717 28.594 21.6595 28.7086C21.602 28.8233 21.6063 28.9027 21.5312 28.9864C21.4561 29.0701 21.3281 29.0611 21.2331 29.2176C21.138 29.3741 21.0981 29.5196 21.0163 29.6276C20.9345 29.7356 19.2867 31.37 18.6705 31.9052C17.9198 32.4556 13.9113 35.9464 12.5972 37.1247C11.2831 38.303 7.03439 41.6236 5.98553 42.4052C4.96092 43.1935 3.35573 44.292 3.11944 44.488C2.85888 44.6773 2.76381 44.8338 2.47705 44.8334C2.19029 44.833 1.81356 44.495 1.63282 44.3933C1.45208 44.2916 1.05969 44.1057 1.22322 43.8898C1.38676 43.6738 2.09565 43.0858 2.29439 42.9317C2.49313 42.7776 6.35488 40.1072 6.81418 39.7637C7.27347 39.4202 11.1955 36.2448 12.6708 34.9542C14.1461 33.6636 17.7489 30.0356 18.8247 28.8702C19.9006 27.7048 23.9283 23.0979 24.3813 22.4919C24.8586 21.8926 25.8594 20.8109 26.6352 19.6936C27.4352 18.5829 28.2419 17.448 29.1062 16.1985C29.9395 14.9666 30.718 13.4588 31.0607 12.8748C31.4211 12.3216 32.443 10.3068 32.9011 9.20675Z" fill="#FBB116"/>
</g>
<defs>
<clipPath id="clip0_739_5925">
<rect width="25.6788" height="47.0821" fill="white" transform="translate(24.7646 52.1968) rotate(-164.666)"/>
</clipPath>
</defs>
</svg>
