<svg width="59" height="198" viewBox="0 0 59 198" fill="none" xmlns="http://www.w3.org/2000/svg">
<path opacity="0.75" d="M16.1769 20.4914C13.809 19.3774 13.2676 19.3703 10.6789 18.5783C8.197 17.896 6.59128 16.4672 5.96006 15.051C5.32884 13.6349 5.56385 12.2302 6.12226 10.9379C6.68067 9.64569 7.22489 9.43623 8.10246 8.58136C8.98003 7.72649 10.1966 5.79311 10.9631 5.15337C11.6213 4.51222 12.2894 3.11313 13.2766 2.1514C14.2639 1.18968 15.6914 -0.30776 16.9822 0.35893C18.273 1.02562 18.7018 1.35613 18.9014 2.65829C19.2092 3.96188 19.8404 5.37799 20.8064 6.04043C21.7724 6.70286 24.1176 9.54929 24.9781 9.99375C25.8387 10.4382 28.1995 12.0936 29.0529 13.0794C29.9064 14.0653 31.5206 14.8445 32.4823 15.8318C33.4441 16.819 37.6186 20.5558 38.5789 21.6513C39.5392 22.7469 41.9956 25.3782 42.7436 26.146C43.3819 27.0208 46.0576 29.4383 46.4822 30.0937C46.9068 30.749 48.5083 32.5027 49.148 33.2692C49.6809 33.9259 51.0715 35.2437 51.9206 36.5544C52.7698 37.8651 55.2262 40.4964 55.6465 41.4765C56.0668 42.4567 57.456 43.8828 57.5558 44.5338C57.6555 45.1849 58.1813 46.3831 58.3865 47.2521C58.4834 48.1198 57.8097 49.952 57.3538 51.6787C56.8966 53.5138 55.5647 55.9871 55.2228 57.2822C54.7727 58.5758 53.7854 59.5376 52.9234 59.2014C52.0615 58.8652 51.54 57.3422 51.2236 56.6883C50.9073 56.0344 48.7914 52.2163 48.3697 51.3444C47.9479 50.4725 43.162 43.8038 41.3468 41.8306C39.5316 39.8575 38.1311 39.2977 38.3576 38.5426C38.4744 37.8943 38.0455 37.5638 37.2919 37.2291C36.4299 36.8929 35.897 36.2361 35.2573 35.4697C34.6161 34.8115 30.2321 30.5305 29.1593 29.7584C28.085 29.0945 25.5147 26.8949 24.4433 26.0145C23.3719 25.1341 23.1482 25.6727 22.6196 24.6911C22.091 23.7095 20.682 23.7993 20.1519 22.926C19.4011 22.3747 17.4691 21.0498 16.1769 20.4914Z" fill="#CBF3CC"/>
<path opacity="0.75" d="M46.4463 98.9692C46.992 98.6515 47.6586 97.3607 48.1145 95.6339C48.5561 94.9899 48.9977 94.3459 49.2199 93.9157C49.8824 92.9497 51.1273 88.8507 51.3567 87.8791C51.5831 87.124 51.5888 86.6909 51.2668 86.4701C51.0616 85.601 50.7481 84.7305 50.4389 83.5352C50.0299 81.6888 47.8984 79.0618 45.6601 76.3251C43.4231 73.4801 29.2039 59.4319 27.1707 57.5642C25.1376 55.6965 23.1143 53.0709 24.4108 53.3045C25.8156 53.5395 32.2853 55.6819 35.7346 56.9183C36.9199 57.3671 42.8582 58.7444 44.1546 58.978C45.4497 59.3199 51.4036 59.5062 52.7071 59.1984C54.0107 58.8906 54.4509 58.3548 55.0065 57.2792C55.5621 56.2035 56.1219 54.803 56.4581 53.941C56.7943 53.0791 58.025 50.0629 58.3655 48.8761C58.7045 47.7976 57.4236 46.373 56.8851 46.1493C56.8851 46.1493 54.8264 46.2306 53.2022 46.2093C51.6863 46.1895 46.6016 45.798 45.6271 45.7852C44.6526 45.7724 41.7291 45.7341 40.3286 45.1743C38.9281 44.6145 32.8887 42.6943 31.1676 41.8054C29.3382 40.915 22.7659 38.3381 21.1545 37.3423C19.4349 36.3451 12.0063 32.9989 10.6058 32.4391C9.20527 31.8792 8.54851 32.4121 7.45723 33.0476C6.47422 33.6845 5.90871 35.5181 5.02547 36.8061C4.14222 38.0941 2.47692 41.2128 1.70479 42.2857C1.70479 42.2857 0.821543 43.5736 1.01682 45.2006C1.21209 46.8276 1.21493 46.6111 2.14686 49.8722C3.07879 53.1333 5.13322 53.3768 6.51102 55.669C7.88884 57.9613 12.9225 62.2508 14.9557 64.1185C16.9888 65.9862 28.4383 76.5326 30.4644 78.9416C30.9972 79.5984 31.9575 80.6939 33.1316 82.0089C31.7296 81.5573 30.4346 81.2155 29.5712 80.9876C26.7645 80.301 22.8821 79.0589 21.0442 78.8182C19.0967 78.6844 16.4909 79.1917 15.8271 80.266C15.1618 81.4485 13.9353 84.1399 12.7229 85.7484C11.5106 87.357 10.0633 90.3703 10.0448 91.7779C10.0264 93.1855 11.4397 92.7708 12.6307 92.7864C13.8218 92.802 16.0871 93.4815 17.7041 94.0442C19.3226 94.4986 22.3515 94.7548 24.1823 95.5369C26.0145 96.2107 32.279 97.484 32.9258 97.7091C33.5727 97.9342 41.8916 99.451 43.8377 99.6931C44.2694 99.8071 44.7039 99.7045 45.0302 99.6004C45.3493 100.038 45.8992 99.3952 46.4463 98.9692Z" fill="#CBF3CC"/>
<path opacity="0.75" d="M15.8265 80.265C15.1555 81.8807 12.2949 85.3087 11.51 87.356C10.8334 89.4048 8.63379 91.975 11.831 95.9156C15.0283 99.8561 22.1164 104.389 26.0617 109.098C29.8986 113.805 34.4794 119.604 37.4657 123.109C37.4657 123.109 32.8226 122.073 29.3605 121.811C25.8985 121.549 22.6232 123.564 21.1816 126.144C19.7399 128.725 18.294 131.63 17.6131 134.003C16.9336 136.269 17.971 139.748 19.3502 141.932C20.7309 144.007 23.7286 146.646 24.7901 148.284C25.9599 149.924 33.6622 157.172 32.9969 158.355C32.3316 159.537 29.0379 162.96 27.8199 165.001C26.6019 167.043 23.8311 171.88 24.2373 173.943C24.6434 176.006 26.4501 178.629 27.6227 180.052C28.7953 181.475 31.2644 183.132 32.4441 184.014C33.6224 185.004 34.2692 185.229 36.5005 188.507C38.7317 191.785 38.3043 191.346 39.9043 193.208C41.5044 195.07 41.5072 194.854 41.728 194.532C41.8406 194.208 41.9488 194.21 42.1668 194.104C42.3848 193.999 42.6013 194.002 42.7068 194.22C42.9205 194.439 43.2411 194.768 43.4519 195.204C43.6628 195.64 44.0846 196.512 44.0888 196.187C44.0931 195.862 43.9862 195.753 44.2042 195.647C44.4222 195.542 44.6387 195.545 44.7428 195.871C44.8468 196.197 45.0577 196.633 45.3853 196.421C45.713 196.208 46.1518 195.781 46.1518 195.781C46.1518 195.781 46.3669 195.892 46.2629 195.566C46.0506 195.238 45.7314 194.801 45.7343 194.584C45.7371 194.368 46.2785 194.375 46.3854 194.484C46.4922 194.594 47.0251 195.251 47.2346 195.795C47.5523 196.341 47.662 196.234 47.8729 196.67C48.0838 197.106 48.514 197.328 48.4114 196.894C48.3088 196.459 47.9925 195.805 47.7816 195.369C47.5693 195.041 47.3584 194.606 47.2516 194.496C47.1461 194.278 47.0393 194.168 47.149 194.061C47.2587 193.954 47.8015 193.853 47.8015 193.853C47.8015 193.853 48.1249 193.966 48.3386 194.185C48.5523 194.405 48.5495 194.621 48.6549 194.839C48.8686 195.058 49.088 194.845 49.1992 194.63C49.3089 194.523 49.5353 193.768 49.4285 193.658C49.323 193.44 48.8999 192.676 48.9027 192.46C48.9055 192.243 43.8331 182.647 42.9839 181.336C42.2416 180.135 39.2694 175.548 38.8476 174.676C38.4259 173.804 38.0069 172.715 38.5512 172.506C39.0954 172.297 42.6184 167.903 43.5059 166.29C44.2852 164.676 47.0517 160.163 47.4006 158.327C47.6427 156.381 47.795 153.026 46.1964 151.055C44.5978 149.085 34.4618 137.473 34.4618 137.473C34.4618 137.473 42.7892 138.34 43.6554 138.351C44.5217 138.363 45.1742 138.155 45.9435 137.298C46.7127 136.442 51.2614 128.163 51.599 127.193C51.9366 126.222 52.4179 122.547 52.103 121.785C51.7881 121.022 48.7403 113.943 46.7185 111.209C44.6967 108.475 39.6857 102.453 38.7268 101.25C37.7693 99.9375 33.4137 93.491 32.5659 92.072C31.8264 90.6545 21.8559 82.9431 20.6904 80.9785C19.4166 79.0125 18.4549 78.0253 17.6913 78.4484C17.036 78.873 15.8265 80.265 15.8265 80.265Z" fill="#CBF3CC"/>
</svg>
