<svg width="1162" height="556" viewBox="0 0 1162 556" fill="none" xmlns="http://www.w3.org/2000/svg">
<path d="M34.9561 326.254C31.2869 325.478 25.6836 327.808 23.3406 329.069C11.725 331.884 11.8555 319.933 17.8466 315.769C22.6395 312.438 21.4721 311.212 20.2893 311.015C16.2455 308.989 9.3736 302.511 14.2362 292.806C19.0987 283.101 28.1119 285.091 32.0106 287.299C35.1243 288.437 40.4503 300.264 44.4651 291.849C48.48 283.434 55.4095 283.142 58.8028 286.734C61.5174 289.608 58.6784 294.374 56.9196 296.398C56.1054 297.983 42.3147 303.533 51.6432 302.47C60.9716 301.407 63.0474 302.166 67.435 310.121C71.8226 318.076 59.5047 323.458 53.2899 325.658C47.075 327.858 39.5427 327.224 34.9561 326.254Z" fill="#C1CFEE"/>
<path d="M51.2323 347.286C58.922 358.79 64.3678 371.596 70.1949 384.066C71.1946 386.21 68.0175 388.162 67.0178 386.017C61.1859 373.506 55.7449 360.741 48.0552 349.237C46.7748 347.208 49.9152 345.302 51.2323 347.286Z" fill="#727E99"/>
<path d="M50.248 351.369L67.5871 385.699C74.1748 386.773 90.4689 391.846 102.943 403.555C118.536 418.191 110.022 424.88 104.18 436.239C96.8387 450.511 82.235 453.162 66.847 453.422C51.4591 453.683 34.617 441.179 34.3997 421.807C34.2258 406.31 45.3318 395.529 50.9065 392.076C45.6219 382.068 34.8115 361.681 33.847 360.2C32.6413 358.348 33.1882 358.783 40.4409 356.962C46.2431 355.505 49.3966 352.626 50.248 351.369Z" fill="#DCF8C1"/>
<path d="M28.7266 354.199C36.984 366.266 44.0502 378.929 50.0176 392.261C50.9712 394.37 48.0888 396.329 46.8404 394.213C46.4196 393.466 45.9527 392.683 45.5319 391.936C44.3711 389.851 47.5115 387.946 48.709 389.985C49.1298 390.731 49.5968 391.515 50.0176 392.261C48.9601 392.926 47.8979 393.549 46.8404 394.213C40.8731 380.881 33.8069 368.218 25.508 356.155C24.1909 354.172 27.3728 352.262 28.7266 354.199Z" fill="#727E99"/>
<path d="M68.9145 382.748C88.4532 385.165 108.578 395.671 112.348 416.615C116.166 437.971 97.9506 451.59 79.1983 456.445C60.9385 461.202 41.3879 455.733 32.4588 438.138C23.6361 420.739 31.2585 400.338 47.6695 390.773C49.7157 389.577 51.6664 392.701 49.6249 393.938C34.0048 403.078 27.3749 422.614 36.9633 438.628C46.2928 454.212 64.4285 457.207 80.6846 452.177C98.2797 446.743 113.88 433.38 107.75 413.458C102.413 396.08 84.7957 388.425 68.0667 386.358C65.6854 386.085 66.5333 382.475 68.9145 382.748Z" fill="#727E99"/>
<path d="M49.5832 346.804C50.7218 353.116 42.221 354.753 37.7389 355.933C33.9885 356.904 24.5912 359.146 24.7359 352.312C24.8881 346.648 35.9944 344.671 40.16 344.03C43.2946 343.547 54.7266 342.956 50.6535 349.568C49.4151 351.592 46.114 349.876 47.3524 347.853C47.7423 347.223 38.8527 348.027 38.3188 348.129C37.0118 348.445 35.6682 348.808 34.4167 349.243C33.6898 349.493 30.1926 350.477 29.895 351.18C30.1962 351.982 30.5342 352.739 30.8354 353.541C31.8759 353.464 32.9437 353.259 33.9653 353.017C35.3598 352.733 36.745 352.366 38.0886 352.003C39.6348 351.576 46.4784 350.128 46.054 347.875C45.6202 345.541 49.1494 344.47 49.5832 346.804Z" fill="#727E99"/>
<path d="M55.965 361.929C53.8764 362.753 51.7926 363.618 49.6626 364.446C47.4545 365.325 46.4191 361.762 48.6273 360.883C50.7158 360.06 52.7996 359.195 54.9296 358.367C57.1377 357.488 58.1731 361.05 55.965 361.929Z" fill="#727E99"/>
<path d="M61.0247 369.467C58.7478 370.48 56.5077 371.446 54.2308 372.458C53.3109 372.856 52.1716 372.065 51.9071 371.217C51.5777 370.167 52.2388 369.339 53.154 368.9C55.3895 367.893 57.671 366.922 59.9479 365.909C60.8679 365.512 62.0071 366.302 62.2716 367.15C62.6058 368.242 61.9447 369.07 61.0247 369.467Z" fill="#727E99"/>
<path d="M64.2554 379.054C62.327 379.441 60.3986 379.828 58.4702 380.215C57.4852 380.411 56.4712 379.983 56.1464 378.974C55.8772 378.085 56.4084 376.853 57.3934 376.657C59.3218 376.27 61.2502 375.883 63.1786 375.496C64.1635 375.3 65.1776 375.728 65.5023 376.737C65.7762 377.668 65.2403 378.858 64.2554 379.054Z" fill="#727E99"/>
<path d="M49.8578 418.087C59.4664 411.806 72.8275 403.466 84.8713 404.562C91.5678 405.138 95.7584 409.136 89.7759 414.46C85.7785 418.052 79.8529 420.191 75.0138 422.29C68.9327 424.907 61.3714 428.529 54.6541 428.875C48.2314 429.231 45.1568 423.976 50.174 419.389C51.9199 417.768 54.6427 420.302 52.8968 421.923C54.1611 424.916 56.0508 425.663 58.5292 424.21C59.4218 423.941 60.2778 423.718 61.1704 423.449C63.807 422.646 66.3927 421.766 68.9275 420.808C73.1093 419.203 85.2477 415.603 86.2491 410.763C87.2232 406.051 80.5104 408.279 77.2797 409.024C74.8683 409.591 72.5358 410.484 70.2496 411.414C63.7495 414.037 57.6702 417.406 51.8131 421.252C49.781 422.571 47.8671 419.401 49.8578 418.087Z" fill="#727E99"/>
<path d="M91.2133 407.185C105.299 420.68 94.2927 439.375 78.013 444.2C62.9942 448.671 46.2679 438.154 48.8252 421.55C49.1879 419.209 52.8092 420.051 52.4464 422.393C50.3245 436.186 64.8627 444.443 76.9823 440.678C90.2338 436.534 100.867 421.561 88.7102 409.896C86.9289 408.259 89.4734 405.543 91.2133 407.185Z" fill="#727E99"/>
<path d="M75.8459 393.126C79.8873 392.498 83.9887 393.871 86.9149 396.717C88.6133 398.364 86.0689 401.079 84.3704 399.432C82.0581 397.186 79.1091 396.351 75.9745 396.834C73.6224 397.185 73.5399 393.514 75.8459 393.126Z" fill="#727E99"/>
<path d="M45.1866 337.644C44.6887 335.484 44.1494 333.328 43.6563 331.209C43.3353 329.866 44.4465 328.568 45.8655 328.866C52.8773 330.368 62.3964 325.143 66.2547 319.224C72.7189 309.286 62.8609 296.063 51.8492 302.922C49.8124 304.2 47.8985 301.03 49.8938 299.757C60.2021 293.354 73.0907 301.129 72.1667 313.281C71.2785 325.01 56.2402 334.837 45.0177 332.476C45.7663 331.68 46.4782 330.93 47.2269 330.134C47.7248 332.294 48.2641 334.449 48.7572 336.568C49.2786 338.934 45.708 340.01 45.1866 337.644Z" fill="#727E99"/>
<path d="M51.0029 298.459C53.8222 297.05 57.1339 295.544 58.96 292.784C60.9329 289.841 60.487 286.294 57.0616 284.593C51.3267 281.775 43.8661 285.176 44.3616 292.105C44.5054 294.473 40.8266 294.599 40.6414 292.236C39.9965 282.522 50.6436 277.252 58.7851 281.302C62.7913 283.313 64.6656 287.24 63.4788 291.558C62.0866 296.652 57.2766 299.375 52.8707 301.592C50.8151 302.705 48.8597 299.539 51.0029 298.459Z" fill="#727E99"/>
<path d="M40.034 292.431C34.4354 283.072 22.8133 283.099 14.3535 288.413C10.004 291.125 7.00384 293.893 7.14076 299.147C7.25616 303.108 8.4019 304.692 11.056 307.359C13.4285 309.766 15.69 311.934 19.4517 311.798C21.8367 311.736 21.9606 315.403 19.5803 315.506C13.185 315.733 7.03792 310.034 4.11485 304.637C1.03456 298.965 3.0059 293.428 7.42053 289.077C17.4212 279.238 35.3145 277.158 43.2479 290.433C44.4133 292.559 41.2315 294.469 40.034 292.431Z" fill="#727E99"/>
<path d="M20.5049 315.903C15.9372 315.963 10.6882 321.831 12.0671 326.568C13.7708 332.313 23.8149 330.96 27.7612 329.13C29.9138 328.132 31.8645 331.256 29.7166 332.295C23.498 335.178 11.0539 336.094 8.5379 327.639C6.48126 320.637 13.4235 312.318 20.4224 312.231C22.766 312.174 22.8946 315.881 20.5049 315.903Z" fill="#727E99"/>
<path d="M31.2845 330.945C32.447 333.783 33.6096 336.62 34.7722 339.457C35.6523 341.657 32.1184 342.687 31.1968 340.492C30.0343 337.655 28.8717 334.817 27.7091 331.98C26.829 329.78 30.4043 328.745 31.2845 330.945Z" fill="#727E99"/>
<path d="M56.3089 309.315C58.531 310.4 60.0608 312.777 59.8873 315.307C59.7232 317.918 57.9462 320.003 55.5309 320.906C53.2766 321.748 52.2413 318.185 54.4955 317.343C56.7912 316.496 56.6277 313.587 54.5855 312.606C52.4096 311.557 54.1744 308.261 56.3089 309.315Z" fill="#727E99"/>
<path d="M102.66 154.077L101.964 156.623L101.183 159.839L107.783 162.38C108.117 162.505 108.355 162.683 108.498 162.915C108.677 163.208 108.723 163.535 108.636 163.898C108.549 164.26 108.364 164.529 108.079 164.703C107.794 164.878 107.451 164.898 107.048 164.763C105.867 164.384 103.707 163.585 100.568 162.366L99.7613 165.969C99.5627 166.637 99.2974 167.65 98.9654 169.009C98.891 169.425 98.7153 169.719 98.438 169.889C98.1533 170.063 97.8297 170.107 97.467 170.02C97.1119 169.929 96.8448 169.737 96.6656 169.445C96.5231 169.212 96.4721 168.919 96.5124 168.564C96.5521 168.158 96.6736 167.625 96.8767 166.964C97.1134 166.19 97.2614 165.667 97.3205 165.393L98.1775 161.419L95.4026 160.198C94.2915 159.714 93.3955 159.413 92.7145 159.294C92.2736 159.214 91.9612 159.024 91.7774 158.725C91.5937 158.425 91.5354 158.095 91.6028 157.734C91.6777 157.368 91.8537 157.1 92.1309 156.93C92.573 156.659 93.5936 156.827 95.1928 157.434L98.7842 158.928L99.7465 155.554C100.132 154.132 100.337 153.079 100.36 152.394C100.384 151.895 100.561 151.544 100.891 151.342C101.183 151.163 101.508 151.113 101.866 151.193C102.224 151.272 102.49 151.454 102.665 151.739C102.917 152.151 102.916 152.93 102.66 154.077ZM108.276 147.571L109.234 147.015L110.191 146.458C110.439 146.307 110.779 146.046 111.213 145.677C111.654 145.304 111.99 145.046 112.223 144.903C112.455 144.761 112.699 144.73 112.954 144.81C113.217 144.886 113.42 145.04 113.563 145.272C113.985 145.962 113.193 146.922 111.185 148.153C110.93 148.31 110.547 148.534 110.036 148.827C109.532 149.115 109.153 149.338 108.898 149.494C108.501 149.737 108.111 149.858 107.728 149.856C107.27 149.848 106.926 149.657 106.696 149.282C106.09 148.293 105.967 147.203 106.33 146.012L107.616 143.166C108.088 142.155 108.155 141.372 107.815 140.817C107.682 140.6 107.39 140.444 106.94 140.349C106.49 140.253 106.152 140.275 105.927 140.413C105.41 140.73 105.1 141.131 104.996 141.618L104.994 142.825C104.995 143.247 104.854 143.546 104.569 143.72C104.337 143.863 104.088 143.912 103.824 143.868C103.555 143.816 103.35 143.674 103.207 143.442C102.766 142.722 102.778 141.875 103.241 140.9C103.65 140.02 104.248 139.339 105.035 138.857C105.739 138.425 106.554 138.307 107.478 138.503C108.405 138.687 109.076 139.116 109.489 139.79C110.082 140.757 110.295 141.693 110.129 142.599C110.045 143.084 109.725 143.873 109.169 144.967C108.642 145.991 108.344 146.859 108.276 147.571ZM129.262 141.089C129.432 141.366 129.488 141.667 129.429 141.991C129.374 142.304 129.207 142.545 128.93 142.715C128.84 142.77 128.696 142.838 128.498 142.918C128.299 142.999 128.152 143.069 128.054 143.128L126.944 143.84C126.496 144.135 126.122 144.365 125.82 144.529L127.44 147.17C127.853 147.845 127.727 148.386 127.06 148.795C126.73 148.997 126.429 149.069 126.155 149.01C125.885 148.938 125.646 148.734 125.439 148.397L124.636 147.112L123.825 145.815C122.95 146.423 122.326 146.842 121.951 147.072C120.79 147.784 119.998 147.796 119.575 147.106C119.277 146.619 119.297 146.189 119.635 145.817C119.755 145.692 120.118 145.444 120.725 145.071C121.099 144.842 121.724 144.423 122.598 143.814L121.781 142.506C121.362 141.824 121.107 141.332 121.013 141.028C120.923 140.712 120.915 140.439 120.99 140.208C121.064 139.976 121.225 139.785 121.472 139.633C121.757 139.459 122.054 139.405 122.364 139.473C122.677 139.529 122.92 139.699 123.095 139.984C123.173 140.111 123.282 140.323 123.422 140.618C123.569 140.909 123.687 141.126 123.774 141.268L124.571 142.543L125.435 142.059C125.585 141.967 125.808 141.82 126.106 141.616C126.4 141.406 126.621 141.254 126.771 141.162C128 140.409 128.83 140.384 129.262 141.089ZM140.688 144.738C139.556 145.431 138.396 145.818 137.208 145.897C135.861 145.971 134.708 145.621 133.749 144.848C133.622 144.74 133.519 144.623 133.441 144.496C133.257 144.196 133.218 143.88 133.323 143.547C133.431 143.202 133.635 142.938 133.935 142.754C134.235 142.571 134.578 142.551 134.965 142.695L135.958 143.153C136.453 143.355 136.986 143.409 137.558 143.316C138.125 143.216 138.727 142.97 139.364 142.58C140.181 142.079 140.74 141.385 141.042 140.499C141.363 139.56 141.285 138.701 140.807 137.922C140.113 136.79 139.144 136.142 137.899 135.978C136.806 135.844 135.614 136.085 134.322 136.702C133.44 137.13 132.817 137.048 132.454 136.456C132.183 136.014 132.302 135.477 132.811 134.845L135.091 132.534C135.493 132.03 135.729 131.54 135.798 131.065C135.863 130.582 135.759 130.109 135.486 129.648C135.096 128.979 134.515 128.604 133.743 128.521C132.939 128.436 132.042 128.698 131.053 129.304C130.544 129.616 130.125 130.043 129.797 130.585L129.016 132.161C128.866 132.47 128.715 132.671 128.565 132.763C128.266 132.946 127.938 132.993 127.583 132.901C127.231 132.797 126.965 132.6 126.786 132.307C126.423 131.715 126.647 130.795 127.458 129.545C128.156 128.446 128.827 127.7 129.471 127.305C131.082 126.317 132.578 125.889 133.958 126.022C135.439 126.166 136.613 126.946 137.481 128.362C138.561 130.123 138.561 131.721 137.482 133.156C137.387 133.286 137.273 133.428 137.141 133.582C138.362 133.338 139.445 133.431 140.39 133.862C141.33 134.286 142.136 135.045 142.807 136.139C143.712 137.615 143.961 139.189 143.553 140.862C143.141 142.527 142.186 143.819 140.688 144.738ZM152.676 123.405L151.979 125.951L151.199 129.167L157.799 131.708C158.133 131.833 158.371 132.012 158.514 132.244C158.693 132.536 158.739 132.864 158.652 133.226C158.565 133.589 158.379 133.857 158.095 134.032C157.81 134.207 157.466 134.227 157.064 134.092C155.883 133.713 153.723 132.914 150.583 131.694L149.777 135.297C149.579 135.966 149.313 136.979 148.981 138.337C148.907 138.754 148.731 139.047 148.454 139.217C148.169 139.392 147.845 139.436 147.483 139.349C147.128 139.257 146.861 139.065 146.681 138.773C146.539 138.541 146.488 138.247 146.528 137.893C146.568 137.487 146.689 136.954 146.893 136.293C147.129 135.519 147.277 134.995 147.336 134.722L148.193 130.748L145.418 129.526C144.307 129.043 143.411 128.742 142.73 128.623C142.289 128.543 141.977 128.353 141.793 128.053C141.609 127.754 141.551 127.423 141.619 127.062C141.693 126.697 141.869 126.429 142.147 126.259C142.589 125.988 143.609 126.156 145.209 126.763L148.8 128.257L149.762 124.883C150.148 123.461 150.353 122.407 150.376 121.723C150.4 121.224 150.577 120.873 150.906 120.671C151.199 120.492 151.524 120.442 151.882 120.521C152.24 120.601 152.506 120.783 152.681 121.067C152.933 121.48 152.932 122.259 152.676 123.405ZM163.734 122.547C162.78 123.277 160.999 124.441 158.391 126.04C157.762 126.426 157.268 126.327 156.91 125.743C156.551 125.158 156.687 124.673 157.316 124.287C157.908 123.924 158.78 123.353 159.931 122.575C161.083 121.797 161.955 121.226 162.547 120.863C163.214 120.454 163.726 120.542 164.085 121.126C164.402 121.643 164.285 122.117 163.734 122.547ZM175.876 115.689L178.426 119.847C178.854 120.544 178.726 121.102 178.045 121.52C177.25 122.007 176.52 121.707 175.854 120.621C175.771 120.486 175.662 120.29 175.525 120.034C175.388 119.777 175.293 119.604 175.237 119.514L173.662 116.97L168.63 119.886C167.603 120.515 166.871 120.918 166.432 121.094C165.681 121.4 165.177 121.343 164.92 120.923C164.713 120.586 164.658 120.033 164.753 119.263L165.016 117.524L165.597 106.064C165.672 105.059 166.095 104.32 166.867 103.847C167.713 103.328 168.362 103.435 168.812 104.169L174.539 113.509C174.662 113.423 174.813 113.325 174.993 113.215C176.372 112.369 177.289 112.318 177.744 113.059C178.074 113.599 177.999 114.114 177.517 114.606C177.303 114.83 176.756 115.191 175.876 115.689ZM167.866 107.518C167.822 111.937 167.726 115.285 167.576 117.562L172.332 114.801L167.866 107.518ZM177.938 105.733L183.193 102.526C183.86 102.117 184.398 102.246 184.807 102.913C185.216 103.58 185.087 104.118 184.42 104.527L179.154 107.741C178.981 107.846 178.73 108.016 178.399 108.25C178.071 108.472 177.824 108.633 177.66 108.734C177.367 108.913 177.068 108.963 176.761 108.883C176.462 108.799 176.225 108.614 176.05 108.329C175.72 107.79 175.832 107.267 176.388 106.761C176.53 106.623 177.046 106.28 177.938 105.733ZM182.28 111.376C182.774 111.072 183.523 110.629 184.526 110.045C185.528 109.461 186.277 109.017 186.772 108.714C187.438 108.305 187.976 108.434 188.385 109.101C188.794 109.768 188.665 110.305 187.998 110.714C187.504 111.018 186.755 111.461 185.752 112.045C184.75 112.629 184.001 113.073 183.506 113.376C183.282 113.514 182.954 113.736 182.523 114.041C182.091 114.347 181.767 114.566 181.55 114.7C180.861 115.122 180.311 115 179.903 114.334C179.526 113.719 179.643 113.188 180.256 112.741C181.051 112.171 181.725 111.716 182.28 111.376ZM199.152 108.777C196.875 110.174 194.573 110.152 192.246 108.712C190.469 107.596 188.792 105.753 187.216 103.183C185.884 101.01 185.238 98.7976 185.28 96.5451C185.339 93.9006 186.417 91.9351 188.515 90.6486C190.486 89.4402 192.536 89.3375 194.667 90.3404C196.51 91.2104 198.072 92.6906 199.354 94.781C201.412 98.1376 202.426 100.985 202.396 103.323C202.362 105.654 201.28 107.472 199.152 108.777ZM189.834 92.8246C188.44 93.6792 187.769 95.0649 187.821 96.9818C187.865 98.5837 188.354 100.145 189.286 101.666C190.798 104.131 192.266 105.777 193.691 106.605C195.116 107.432 196.496 107.437 197.829 106.619C199.418 105.645 200 104.04 199.578 101.804C199.286 100.251 198.547 98.5083 197.361 96.5752C196.116 94.5448 194.865 93.2191 193.608 92.5981C192.358 91.9726 191.1 92.0481 189.834 92.8246Z" fill="#727E99"/>
<path d="M1035.93 312.366C1038.43 310.163 1044.48 307.608 1048.66 315.014" stroke="#EF627E" stroke-linecap="round"/>
<path d="M1054.12 318.194C1054.12 318.194 1058.79 310.483 1060.85 310.401C1062.91 310.319 1065.28 321.025 1065.28 321.025" stroke="#EF627E" stroke-linecap="round"/>
<path d="M885.395 295.842C883.689 296.13 881.609 296.02 879.155 295.509C878.854 295.446 878.596 295.243 878.382 294.899C878.174 294.563 878.102 294.244 878.164 293.942L878.801 290.882C879.009 289.879 879.37 288.462 879.883 286.63C880.44 284.654 880.819 283.219 881.02 282.325C881.147 281.678 881.385 280.725 881.735 279.467C881.857 279.127 882.021 278.919 882.226 278.845C883.241 278.749 884.355 278.827 885.568 279.079C886.802 279.336 887.899 280.003 888.86 281.081C889.97 282.321 890.377 283.653 890.081 285.076C889.706 286.878 888.71 288.152 887.092 288.898C888.05 289.566 888.732 290.227 889.137 290.882C889.549 291.538 889.688 292.188 889.554 292.833C889.377 293.682 888.747 294.407 887.664 295.008C886.909 295.436 886.153 295.714 885.395 295.842ZM885.122 281.225C884.358 281.066 883.816 280.979 883.497 280.964L883.093 282.8L882.036 286.826C883.015 287.117 883.539 287.267 883.611 287.274C884.687 287.41 885.622 287.261 886.414 286.826C887.266 286.352 887.794 285.625 887.999 284.643C888.137 283.977 887.897 283.283 887.279 282.562C886.661 281.841 885.942 281.395 885.122 281.225ZM884.547 289.894L883.47 289.483C883.379 289.464 883.237 289.442 883.045 289.417C882.861 289.386 882.72 289.36 882.622 289.34C882.243 289.261 881.847 289.146 881.432 288.994C881.206 289.868 881.021 290.653 880.877 291.347L880.424 293.524C882.274 293.843 883.825 293.895 885.076 293.68C885.607 293.592 886.138 293.396 886.67 293.089C887.173 292.814 887.444 292.585 887.482 292.402C887.55 292.073 887.179 291.608 886.367 291.008C885.76 290.552 885.153 290.181 884.547 289.894ZM894.988 298.781C893.404 298.451 892.203 297.788 891.386 296.792C890.496 295.692 890.215 294.354 890.543 292.776C890.922 290.953 891.682 289.516 892.822 288.466C894.063 287.32 895.486 286.914 897.091 287.248C898.255 287.49 899.164 287.884 899.819 288.429C900.623 289.101 900.92 289.939 900.712 290.941C900.566 291.642 900.037 292.198 899.125 292.608C898.722 292.788 897.897 293.026 896.65 293.322L892.237 294.39C892.509 295.054 892.905 295.593 893.425 296.009C893.953 296.426 894.606 296.715 895.384 296.877C895.868 296.978 896.455 297.005 897.145 296.958C898.02 296.899 898.616 296.708 898.932 296.386C899.249 296.057 899.544 295.921 899.818 295.978C900.063 296.029 900.261 296.169 900.411 296.398C900.569 296.621 900.623 296.855 900.572 297.1C900.41 297.879 899.643 298.418 898.271 298.718C897.099 298.971 896.005 298.992 894.988 298.781ZM896.697 289.141C895.842 288.963 895.061 289.148 894.355 289.696C893.65 290.237 893.018 291.144 892.461 292.418L896.009 291.554C897.406 291.201 898.422 290.853 899.057 290.509C898.571 289.823 897.784 289.367 896.697 289.141ZM910.012 300.567C909.953 300.848 909.794 301.052 909.533 301.181C909.279 301.311 909.015 301.348 908.742 301.291C908.251 301.189 907.963 300.869 907.877 300.332C907.798 299.796 907.465 298.849 906.877 297.49C906.248 296.05 905.804 295.3 905.546 295.239C905.476 295.224 905.055 295.136 904.284 294.976C904.236 295.207 904.147 295.617 904.018 296.204C903.897 296.75 903.807 297.163 903.749 297.443C903.51 298.593 903.356 299.245 903.287 299.399C903.057 299.943 902.654 300.156 902.079 300.036C901.785 299.975 901.551 299.835 901.377 299.616C901.21 299.398 901.156 299.146 901.216 298.858C901.285 298.529 901.406 298.016 901.58 297.321C901.755 296.619 901.878 296.099 901.948 295.763C902.087 295.097 902.27 294.093 902.498 292.75C902.726 291.408 902.91 290.4 903.05 289.727C903.238 288.822 903.693 288.445 904.415 288.596C904.71 288.657 904.94 288.8 905.105 289.024C905.271 289.249 905.324 289.501 905.266 289.782C905.159 290.294 904.969 291.333 904.694 292.9C904.883 292.939 905.139 292.992 905.462 293.059C906.329 293.181 907.025 292.928 907.551 292.298C907.717 292.062 907.935 291.756 908.203 291.38C908.976 290.371 909.763 289.949 910.562 290.116C910.814 290.168 911.065 290.282 911.313 290.458C911.632 290.686 911.765 290.925 911.712 291.178C911.597 291.732 911.301 291.959 910.824 291.86C910.432 291.778 909.927 292.163 909.311 293.015C908.884 293.592 908.646 293.912 908.596 293.975C908.295 294.329 907.989 294.587 907.678 294.749C908.275 295.393 908.841 296.366 909.374 297.67C909.923 299.005 910.136 299.971 910.012 300.567ZM928.79 304.561C928.737 304.814 928.596 305 928.366 305.12C928.145 305.235 927.904 305.266 927.645 305.212C927.203 305.12 926.949 304.829 926.883 304.34C926.801 303.782 926.463 302.808 925.867 301.419C925.233 299.926 924.767 299.145 924.467 299.076C924.397 299.061 924.291 299.039 924.151 299.01C924.088 299.311 923.995 299.745 923.869 300.312C923.74 300.899 923.645 301.337 923.585 301.624C923.343 302.788 923.191 303.448 923.13 303.603C922.917 304.1 922.551 304.295 922.032 304.187C921.394 304.054 921.135 303.7 921.254 303.125C921.326 302.782 921.45 302.255 921.627 301.546C921.812 300.831 921.94 300.305 922.01 299.969C922.112 299.478 922.202 299.029 922.279 298.621L921.953 298.553C921.666 298.493 920.931 299.02 919.748 300.135C918.646 301.178 917.949 301.94 917.659 302.421C917.396 302.842 917.044 303.007 916.602 302.915C916.35 302.862 916.142 302.735 915.979 302.533C915.816 302.331 915.761 302.103 915.814 301.851C915.938 301.255 916.537 300.432 917.611 299.383C918.667 298.352 919.581 297.683 920.355 297.375C920.05 297.049 919.762 296.268 919.492 295.034C919.257 293.947 918.923 293.358 918.488 293.268C918.081 293.183 917.929 292.895 918.031 292.404C918.075 292.194 918.266 292.051 918.603 291.975C918.881 291.908 919.142 291.9 919.387 291.951C919.857 292.049 920.211 292.317 920.449 292.754C920.577 292.985 920.715 293.412 920.863 294.036C920.941 294.469 921.101 295.036 921.343 295.738C921.538 296.064 921.977 296.308 922.66 296.472C922.843 295.311 922.998 294.429 923.123 293.826C923.301 292.97 923.716 292.61 924.368 292.746C924.641 292.803 924.852 292.934 924.999 293.141C925.148 293.34 925.195 293.569 925.141 293.829C925.067 294.186 924.876 295.207 924.57 296.892C925.274 297.023 925.793 296.974 926.126 296.743C926.27 296.649 926.654 296.191 927.278 295.37C927.661 294.865 927.958 294.528 928.169 294.36C928.562 294.054 928.996 293.95 929.473 294.049C929.712 294.099 929.945 294.21 930.172 294.381C930.451 294.586 930.569 294.793 930.526 295.003C930.423 295.494 930.169 295.697 929.762 295.613C929.328 295.522 928.786 295.929 928.137 296.833C927.704 297.438 927.454 297.777 927.388 297.851C927.067 298.23 926.742 298.495 926.41 298.646C926.997 299.236 927.57 300.211 928.128 301.571C928.695 302.961 928.915 303.958 928.79 304.561ZM941.439 304.943C941.382 305.217 941.283 305.62 941.143 306.154C941.003 306.688 940.904 307.092 940.847 307.366C940.786 307.66 940.633 307.884 940.389 308.038C940.15 308.201 939.884 308.251 939.589 308.19C939.288 308.127 939.057 307.973 938.896 307.728C938.74 307.49 938.693 307.225 938.754 306.93C938.849 306.474 939.012 305.799 939.242 304.903C939.472 304.007 939.634 303.332 939.729 302.876C939.909 302.013 940.013 301.179 940.041 300.373C938.923 301.457 938.12 302.208 937.631 302.626C936.689 303.425 935.793 304.058 934.943 304.524C933.821 305.132 932.979 305.63 932.416 306.018C931.964 306.326 931.535 306.438 931.128 306.353C930.819 306.289 930.57 306.153 930.379 305.945C930.171 305.712 930.099 305.444 930.162 305.143C930.577 303.145 930.976 301.055 931.356 298.874C931.747 296.607 931.937 295.502 931.925 295.558C932.074 294.843 932.499 294.558 933.2 294.704C933.796 294.828 934.073 295.237 934.031 295.93C934.023 296.038 933.904 296.734 933.674 298.017L932.713 303.271C933.965 302.558 935.315 301.61 936.761 300.426C937.21 300.059 938.455 298.979 940.496 297.187C941.025 296.719 941.524 296.534 941.994 296.632C942.288 296.693 942.513 296.842 942.669 297.08C942.831 297.318 942.881 297.588 942.818 297.89C942.656 298.668 942.426 299.845 942.127 301.422C941.83 302.991 941.601 304.165 941.439 304.943ZM952.309 307.336C952.042 308.619 950.858 309.32 948.756 309.439C947.438 309.515 945.885 309.368 944.097 308.996C943.823 308.939 943.583 308.776 943.376 308.506C943.176 308.238 943.103 307.97 943.159 307.704L943.574 305.706C943.579 305.684 944.005 303.813 944.852 300.09C944.925 299.74 944.998 299.389 945.071 299.039C945.167 298.612 945.284 298.278 945.422 298.036C945.519 297.852 945.652 297.737 945.823 297.692C945.902 297.664 946.106 297.648 946.436 297.644C946.879 297.626 947.591 297.719 948.572 297.924C949.701 298.158 950.668 298.645 951.473 299.383C952.413 300.244 952.773 301.204 952.552 302.263C952.348 303.244 951.673 303.853 950.526 304.09C951.011 304.433 951.441 304.914 951.817 305.533C952.249 306.237 952.413 306.838 952.309 307.336ZM950.586 301.853C950.675 301.426 950.458 300.989 949.936 300.544C949.477 300.149 949.017 299.903 948.554 299.807L948.123 299.717C947.59 299.606 947.226 299.542 947.033 299.523C946.976 299.76 946.892 300.145 946.782 300.678C946.754 300.811 946.717 301.078 946.67 301.478C946.63 301.813 946.581 302.081 946.525 302.282C946.916 302.407 947.272 302.503 947.595 302.57C948.38 302.733 948.962 302.803 949.34 302.779C950.052 302.73 950.468 302.421 950.586 301.853ZM950.246 306.808C950.325 306.43 950.123 306.014 949.639 305.563C949.266 305.207 948.856 304.932 948.406 304.736C948.144 304.623 947.748 304.507 947.216 304.389C946.553 304.237 946.15 304.138 946.005 304.094C945.878 304.565 945.78 304.965 945.712 305.294L945.285 307.345C948.412 307.857 950.066 307.678 950.246 306.808ZM964.284 309.695C964.227 309.969 964.128 310.372 963.988 310.906C963.847 311.44 963.749 311.844 963.692 312.118C963.631 312.412 963.478 312.636 963.234 312.79C962.995 312.953 962.729 313.003 962.434 312.942C962.133 312.88 961.901 312.725 961.74 312.48C961.585 312.243 961.538 311.977 961.599 311.682C961.694 311.227 961.856 310.551 962.086 309.655C962.317 308.759 962.479 308.084 962.574 307.628C962.753 306.766 962.857 305.931 962.886 305.125C961.768 306.209 960.965 306.96 960.475 307.378C959.534 308.177 958.638 308.81 957.787 309.276C956.666 309.884 955.824 310.382 955.26 310.77C954.809 311.078 954.379 311.19 953.973 311.105C953.664 311.041 953.414 310.905 953.224 310.697C953.016 310.464 952.944 310.196 953.007 309.895C953.422 307.897 953.82 305.807 954.201 303.626C954.592 301.359 954.782 300.254 954.77 300.31C954.919 299.595 955.344 299.31 956.045 299.456C956.641 299.58 956.918 299.989 956.876 300.682C956.868 300.79 956.749 301.486 956.519 302.769L955.558 308.023C956.81 307.31 958.16 306.362 959.605 305.178C960.055 304.811 961.3 303.731 963.34 301.939C963.869 301.471 964.369 301.286 964.838 301.384C965.133 301.445 965.358 301.594 965.513 301.832C965.676 302.07 965.726 302.34 965.663 302.642C965.501 303.42 965.271 304.597 964.972 306.174C964.675 307.743 964.445 308.917 964.284 309.695ZM975.829 306.896C976.684 307.074 977.962 307.365 979.663 307.77C981.372 308.17 982.654 308.458 983.509 308.636L985.983 309.085L988.157 309.449L988.754 309.585C989.371 309.713 989.613 310.096 989.481 310.734C989.319 311.512 988.628 311.775 987.408 311.521C987.219 311.482 986.909 311.406 986.478 311.295C986.055 311.185 985.749 311.11 985.559 311.071C984.171 310.782 982.087 310.359 979.306 309.803C976.526 309.239 974.442 308.813 973.054 308.524C972.339 308.375 972.054 307.954 972.198 307.26C972.334 306.608 972.742 306.331 973.424 306.429C973.716 306.467 974.518 306.623 975.829 306.896ZM1004.46 318.184C1004.19 319.467 1003.01 320.167 1000.9 320.286C999.585 320.363 998.032 320.216 996.244 319.844C995.971 319.787 995.731 319.623 995.524 319.354C995.323 319.085 995.251 318.818 995.306 318.551L995.722 316.553C995.726 316.532 996.152 314.66 997 310.938C997.073 310.587 997.146 310.237 997.219 309.886C997.315 309.46 997.432 309.126 997.57 308.884C997.667 308.699 997.8 308.584 997.971 308.539C998.049 308.512 998.254 308.496 998.584 308.491C999.027 308.474 999.739 308.567 1000.72 308.771C1001.85 309.006 1002.82 309.492 1003.62 310.23C1004.56 311.092 1004.92 312.051 1004.7 313.11C1004.5 314.092 1003.82 314.701 1002.67 314.938C1003.16 315.28 1003.59 315.761 1003.97 316.381C1004.4 317.085 1004.56 317.686 1004.46 318.184ZM1002.73 312.701C1002.82 312.273 1002.61 311.837 1002.08 311.392C1001.63 310.997 1001.16 310.751 1000.7 310.654L1000.27 310.565C999.737 310.454 999.374 310.389 999.181 310.371C999.124 310.608 999.04 310.993 998.929 311.526C998.902 311.659 998.864 311.925 998.818 312.325C998.777 312.661 998.729 312.929 998.673 313.129C999.064 313.254 999.42 313.35 999.743 313.418C1000.53 313.581 1001.11 313.651 1001.49 313.627C1002.2 313.578 1002.62 313.269 1002.73 312.701ZM1002.39 317.656C1002.47 317.277 1002.27 316.862 1001.79 316.41C1001.41 316.055 1001 315.779 1000.55 315.583C1000.29 315.47 999.896 315.355 999.364 315.237C998.701 315.084 998.297 314.986 998.153 314.941C998.026 315.412 997.928 315.812 997.859 316.142L997.433 318.193C1000.56 318.704 1002.21 318.525 1002.39 317.656ZM1010.08 322.721C1008.49 322.391 1007.29 321.728 1006.47 320.732C1005.58 319.632 1005.3 318.293 1005.63 316.716C1006.01 314.893 1006.77 313.456 1007.91 312.406C1009.15 311.26 1010.57 310.854 1012.18 311.188C1013.34 311.43 1014.25 311.824 1014.91 312.369C1015.71 313.041 1016.01 313.879 1015.8 314.881C1015.65 315.582 1015.12 316.138 1014.21 316.548C1013.81 316.728 1012.98 316.966 1011.74 317.262L1007.32 318.33C1007.6 318.994 1007.99 319.533 1008.51 319.949C1009.04 320.366 1009.69 320.655 1010.47 320.817C1010.96 320.918 1011.54 320.945 1012.23 320.898C1013.11 320.839 1013.7 320.648 1014.02 320.326C1014.34 319.997 1014.63 319.861 1014.9 319.918C1015.15 319.969 1015.35 320.109 1015.5 320.338C1015.66 320.561 1015.71 320.795 1015.66 321.04C1015.5 321.819 1014.73 322.358 1013.36 322.657C1012.19 322.911 1011.09 322.932 1010.08 322.721ZM1011.78 313.081C1010.93 312.903 1010.15 313.088 1009.44 313.636C1008.74 314.177 1008.11 315.084 1007.55 316.358L1011.1 315.494C1012.49 315.141 1013.51 314.793 1014.14 314.449C1013.66 313.763 1012.87 313.307 1011.78 313.081ZM1025.1 324.507C1025.04 324.788 1024.88 324.992 1024.62 325.121C1024.37 325.251 1024.1 325.287 1023.83 325.231C1023.34 325.128 1023.05 324.809 1022.96 324.272C1022.89 323.736 1022.55 322.789 1021.96 321.43C1021.33 319.99 1020.89 319.239 1020.63 319.178C1020.56 319.164 1020.14 319.076 1019.37 318.916C1019.32 319.147 1019.23 319.557 1019.1 320.144C1018.98 320.69 1018.89 321.103 1018.84 321.383C1018.6 322.533 1018.44 323.185 1018.37 323.339C1018.14 323.883 1017.74 324.096 1017.17 323.976C1016.87 323.915 1016.64 323.775 1016.46 323.556C1016.3 323.338 1016.24 323.086 1016.3 322.798C1016.37 322.469 1016.49 321.956 1016.67 321.261C1016.84 320.559 1016.96 320.039 1017.03 319.703C1017.17 319.037 1017.36 318.032 1017.58 316.69C1017.81 315.348 1018 314.34 1018.14 313.667C1018.32 312.762 1018.78 312.385 1019.5 312.536C1019.8 312.597 1020.03 312.74 1020.19 312.964C1020.36 313.189 1020.41 313.441 1020.35 313.722C1020.25 314.234 1020.06 315.273 1019.78 316.84C1019.97 316.879 1020.23 316.932 1020.55 316.999C1021.42 317.121 1022.11 316.867 1022.64 316.238C1022.8 316.002 1023.02 315.696 1023.29 315.32C1024.06 314.311 1024.85 313.889 1025.65 314.055C1025.9 314.108 1026.15 314.222 1026.4 314.398C1026.72 314.625 1026.85 314.865 1026.8 315.118C1026.68 315.672 1026.39 315.899 1025.91 315.8C1025.52 315.718 1025.01 316.103 1024.4 316.955C1023.97 317.532 1023.73 317.852 1023.68 317.915C1023.38 318.269 1023.08 318.527 1022.76 318.689C1023.36 319.333 1023.93 320.306 1024.46 321.61C1025.01 322.945 1025.22 323.911 1025.1 324.507Z" fill="#727E99"/>
<path d="M1042.64 319.203L1037.36 326.313C1036.07 328.04 1035.05 329.499 1034.3 330.69L1033.18 332.586C1032.9 333.053 1032.53 333.24 1032.08 333.146C1031.79 333.085 1031.55 332.934 1031.37 332.692C1031.2 332.459 1031.15 332.199 1031.21 331.911C1031.35 331.21 1032.53 329.338 1034.75 326.295L1032.49 318.265L1032.17 317.399C1032.05 317.037 1032.01 316.747 1032.06 316.53C1032.12 316.243 1032.28 316.013 1032.54 315.841C1032.81 315.67 1033.08 315.613 1033.36 315.67C1033.68 315.737 1033.9 315.911 1034.03 316.193C1034.88 318.096 1035.66 320.718 1036.4 324.059L1038.71 320.755C1039.53 319.616 1040.29 318.649 1041 317.852C1041.31 317.506 1041.64 317.371 1042.01 317.447C1042.29 317.507 1042.53 317.661 1042.7 317.91C1042.88 318.16 1042.94 318.425 1042.89 318.705C1042.85 318.86 1042.77 319.025 1042.64 319.203ZM1050.84 330.179C1050.77 330.488 1050.62 330.716 1050.39 330.865C1050.15 331.02 1049.88 331.066 1049.58 331.004C1049.27 330.94 1049.04 330.789 1048.88 330.552C1048.73 330.322 1048.68 330.052 1048.74 329.744C1048.86 329.176 1049.09 327.973 1049.43 326.134C1048.45 326.566 1047.33 326.651 1046.07 326.39C1044.59 326.081 1043.62 325.345 1043.16 324.183C1042.72 323.022 1042.73 321.289 1043.21 318.982C1043.45 317.832 1043.94 317.334 1044.69 317.489C1044.99 317.552 1045.22 317.702 1045.37 317.939C1045.53 318.169 1045.58 318.438 1045.51 318.747C1045.5 318.824 1045.46 318.937 1045.41 319.087C1045.36 319.23 1045.32 319.34 1045.31 319.417C1044.92 321.275 1044.84 322.546 1045.06 323.229C1045.27 323.864 1045.85 324.28 1046.8 324.479C1047.23 324.568 1047.77 324.528 1048.44 324.359C1049.15 324.17 1049.66 323.91 1049.96 323.578C1050 323.382 1050.1 322.952 1050.25 322.289C1050.4 321.626 1050.5 321.207 1050.53 321.031C1050.56 320.891 1050.59 320.678 1050.62 320.392C1050.66 320.107 1050.69 319.898 1050.72 319.764C1050.78 319.47 1050.93 319.249 1051.18 319.102C1051.43 318.957 1051.7 318.915 1051.99 318.976C1052.74 319.13 1052.97 319.849 1052.71 321.132C1052.67 321.322 1052.6 321.572 1052.52 321.883C1052.44 322.196 1052.39 322.401 1052.37 322.499C1052.2 323.305 1051.94 324.587 1051.6 326.344C1051.26 328.095 1051 329.373 1050.84 330.179ZM1063.68 330.371C1063.62 330.644 1063.52 331.048 1063.38 331.582C1063.24 332.116 1063.14 332.52 1063.09 332.793C1063.03 333.088 1062.87 333.312 1062.63 333.466C1062.39 333.629 1062.12 333.679 1061.83 333.618C1061.53 333.555 1061.3 333.401 1061.13 333.155C1060.98 332.918 1060.93 332.652 1060.99 332.358C1061.09 331.902 1061.25 331.226 1061.48 330.331C1061.71 329.435 1061.87 328.759 1061.97 328.304C1062.15 327.441 1062.25 326.607 1062.28 325.801C1061.16 326.885 1060.36 327.636 1059.87 328.054C1058.93 328.853 1058.03 329.485 1057.18 329.952C1056.06 330.56 1055.22 331.058 1054.65 331.445C1054.2 331.754 1053.77 331.866 1053.37 331.781C1053.06 331.717 1052.81 331.581 1052.62 331.373C1052.41 331.139 1052.34 330.872 1052.4 330.571C1052.82 328.572 1053.21 326.483 1053.6 324.302C1053.99 322.035 1054.18 320.93 1054.16 320.986C1054.31 320.27 1054.74 319.986 1055.44 320.132C1056.04 320.256 1056.31 320.664 1056.27 321.358C1056.26 321.466 1056.14 322.162 1055.91 323.445L1054.95 328.698C1056.2 327.986 1057.55 327.038 1059 325.854C1059.45 325.486 1060.69 324.407 1062.74 322.615C1063.26 322.147 1063.76 321.962 1064.23 322.06C1064.53 322.121 1064.75 322.27 1064.91 322.507C1065.07 322.746 1065.12 323.016 1065.06 323.317C1064.9 324.096 1064.67 325.273 1064.37 326.849C1064.07 328.419 1063.84 329.593 1063.68 330.371ZM1069.98 335.368C1068.54 335.069 1067.43 334.385 1066.65 333.316C1065.83 332.195 1065.58 330.887 1065.89 329.394C1066.19 327.97 1066.97 326.6 1068.23 325.282C1069.63 323.818 1070.99 323.223 1072.31 323.498C1072.99 323.641 1073.73 323.962 1074.51 324.461C1075.5 325.097 1075.93 325.714 1075.8 326.31C1075.75 326.576 1075.61 326.796 1075.39 326.97C1075.17 327.137 1074.94 327.194 1074.68 327.14C1074.47 327.097 1074.31 327 1074.18 326.849C1074.06 326.692 1073.94 326.54 1073.82 326.391C1073.48 325.976 1072.83 325.67 1071.9 325.475C1071.18 325.326 1070.34 325.817 1069.37 326.947C1068.49 327.985 1067.96 328.932 1067.78 329.787C1067.59 330.713 1067.75 331.508 1068.27 332.172C1068.76 332.792 1069.47 333.199 1070.39 333.391C1070.81 333.479 1071.28 333.46 1071.81 333.335L1073.16 332.936C1073.4 332.868 1073.56 332.843 1073.65 332.862C1073.91 332.916 1074.11 333.068 1074.26 333.318C1074.4 333.56 1074.45 333.815 1074.4 334.081C1074.29 334.593 1073.65 334.975 1072.47 335.227C1071.43 335.451 1070.6 335.498 1069.98 335.368ZM1084.47 334.159C1084.22 335.393 1083.54 336.211 1082.45 336.613C1081.52 336.961 1080.35 336.988 1078.94 336.695C1078.68 336.641 1078.33 336.561 1077.9 336.455C1077.39 336.321 1077.04 336.233 1076.84 336.192C1076.72 336.197 1076.61 336.188 1076.5 336.164C1075.78 336.016 1075.53 335.458 1075.73 334.49C1075.75 334.357 1075.88 333.944 1076.1 333.252C1076.4 332.333 1076.63 331.463 1076.8 330.643C1076.92 330.082 1077.05 329.282 1077.19 328.244C1077.34 327.2 1077.48 326.398 1077.59 325.837C1077.75 325.094 1078.16 324.793 1078.84 324.934C1079.57 325.085 1079.86 325.482 1079.73 326.127C1079.57 326.864 1079.41 327.89 1079.23 329.206C1079.57 329.263 1079.85 329.312 1080.04 329.353C1081.73 329.705 1082.93 330.191 1083.62 330.811C1084.49 331.592 1084.78 332.708 1084.47 334.159ZM1082.44 333.737C1082.61 332.952 1082.48 332.372 1082.05 331.998C1081.7 331.685 1081.03 331.423 1080.02 331.213C1079.74 331.156 1079.36 331.092 1078.87 331.019C1078.85 331.168 1078.82 331.309 1078.8 331.442C1078.69 331.975 1078.4 333.02 1077.95 334.579C1078.53 334.714 1078.98 334.816 1079.32 334.886C1081.16 335.27 1082.21 334.887 1082.44 333.737ZM1086.45 339.123C1086.08 339.047 1085.8 338.857 1085.6 338.552C1085.4 338.247 1085.34 337.912 1085.42 337.548C1085.49 337.19 1085.68 336.912 1085.98 336.712C1086.29 336.505 1086.63 336.439 1086.99 336.515C1087.35 336.589 1087.63 336.783 1087.83 337.095C1088.03 337.401 1088.1 337.733 1088.02 338.09C1087.95 338.455 1087.75 338.737 1087.44 338.935C1087.14 339.135 1086.81 339.198 1086.45 339.123Z" fill="#EF627E"/>
<path d="M877.168 299.769C880.955 300.387 889.096 301.842 891.364 302.722C894.199 303.823 907.518 306.083 908.008 306.185" stroke="#727E99" stroke-linecap="round"/>
<path d="M993.73 323.732C997.517 324.349 1005.66 325.804 1007.93 326.685C1010.76 327.785 1024.08 330.045 1024.57 330.147" stroke="#727E99" stroke-linecap="round"/>
<path d="M915.35 307.712C919.136 308.33 934.131 311.211 936.399 312.091C939.234 313.191 961.854 317.386 962.344 317.488" stroke="#727E99" stroke-linecap="round"/>
<path d="M1034.85 332.285C1038.64 332.903 1050.69 335.172 1052.96 336.053C1055.8 337.153 1078.42 341.348 1078.91 341.45" stroke="#EF627E" stroke-linecap="round"/>
<path d="M914.796 310.376C918.583 310.994 933.434 314.435 935.846 314.755C938.828 315.15 961.301 320.05 961.79 320.152" stroke="#727E99" stroke-linecap="round"/>
<path d="M1031.36 334.338C1035.15 334.955 1050 338.397 1052.41 338.716C1055.39 339.111 1077.86 344.011 1078.35 344.113" stroke="#EF627E" stroke-linecap="round"/>
<path opacity="0.75" d="M280.345 63.6269C280.505 64.7495 280.631 64.9473 280.96 66.0734C281.303 67.1347 281.167 68.0561 280.804 68.6215C280.441 69.1869 279.876 69.4359 279.276 69.5409C278.675 69.6459 278.469 69.4986 277.951 69.384C277.433 69.2694 276.443 69.2885 276.029 69.163C275.64 69.077 274.975 69.1677 274.391 69.0388C273.808 68.9099 272.926 68.7489 272.861 68.1228C272.795 67.4966 272.813 67.2627 273.237 66.8808C273.636 66.4593 273.999 65.8939 274.01 65.3864C274.02 64.879 274.493 63.3526 274.45 62.9351C274.406 62.5177 274.444 61.2689 274.598 60.7253C274.752 60.1817 274.651 59.4117 274.78 58.8285C274.909 58.2454 275.27 55.8446 275.438 55.2362C275.607 54.6278 275.976 53.1123 276.076 52.6588C276.241 52.2196 276.48 50.6754 276.617 50.3658C276.753 50.0561 277.008 49.059 277.133 48.645C277.244 48.2958 277.391 47.4787 277.664 46.8594C277.937 46.2401 278.306 44.7246 278.561 44.3392C278.816 43.9539 279.002 43.1116 279.214 42.9206C279.426 42.7296 279.735 42.2543 280.001 41.9733C280.293 41.7318 281.116 41.5402 281.85 41.2947C282.624 41.0239 283.836 40.9182 284.387 40.7341C284.963 40.5895 285.546 40.7184 285.629 41.1106C285.712 41.5028 285.284 42.0539 285.123 42.324C284.961 42.594 284.081 44.2684 283.866 44.6286C283.65 44.9887 282.373 48.3082 282.09 49.4349C281.806 50.5616 281.937 51.2021 281.609 51.2996C281.347 51.4115 281.329 51.6454 281.387 51.998C281.47 52.3902 281.359 52.7394 281.233 53.1534C281.148 53.5422 280.639 56.1483 280.615 56.7205C280.63 57.2675 280.444 58.7216 280.38 59.3191C280.316 59.9166 280.564 59.8695 280.334 60.2944C280.104 60.7193 280.472 61.2084 280.282 61.608C280.261 62.0111 280.24 63.026 280.345 63.6269Z" fill="#BBB0E5" fill-opacity="0.32"/>
<path opacity="0.75" d="M301.573 33.9997C301.328 33.8776 300.702 33.943 299.968 34.1885C299.63 34.1817 299.292 34.1749 299.083 34.1967C298.576 34.1865 296.795 34.7102 296.388 34.8582C296.061 34.9557 295.903 35.0567 295.899 35.2258C295.633 35.5068 295.392 35.8274 295.033 36.2236C294.461 36.8109 294.017 38.2077 293.558 39.6693C293.059 41.1562 291.352 49.6476 291.159 50.8282C290.966 52.0088 290.496 53.3661 290.272 52.8409C290.023 52.2762 289.26 49.4231 288.888 47.8797C288.769 47.3436 287.856 44.865 287.632 44.3398C287.448 43.7894 286.099 41.5884 285.678 41.1894C285.256 40.7904 284.958 40.7583 284.436 40.8129C283.914 40.8674 283.274 40.9977 282.882 41.0809C282.489 41.1641 281.104 41.4355 280.593 41.5944C280.122 41.7281 279.91 42.5308 279.958 42.7791C279.958 42.7791 280.477 43.5055 280.855 44.0989C281.208 44.6527 282.276 46.5877 282.503 46.9437C282.73 47.2998 283.411 48.3679 283.542 49.0083C283.672 49.6488 284.412 52.2931 284.5 53.1279C284.612 54.0023 285.242 56.9958 285.264 57.8163C285.312 58.6764 285.866 62.163 285.997 62.8035C286.127 63.4439 286.476 63.5551 286.966 63.7993C287.43 64.0039 288.229 63.7727 288.905 63.7864C289.582 63.8 291.108 63.6616 291.68 63.6862C291.68 63.6862 292.357 63.6998 292.9 63.2422C293.442 62.7846 293.363 62.835 294.323 61.722C295.283 60.6089 294.882 59.8068 295.385 58.7626C295.888 57.7184 296.244 54.8749 296.438 53.6943C296.631 52.5137 297.728 45.8583 298.119 44.5515C298.23 44.2023 298.399 43.5939 298.596 42.856C298.766 43.4712 298.95 44.0216 299.073 44.3885C299.491 45.5685 299.965 47.2702 300.314 47.9932C300.729 48.7305 301.533 49.5537 302.08 49.5387C302.666 49.4985 303.933 49.3028 304.804 49.3594C305.675 49.4161 307.11 49.2238 307.625 48.8957C308.139 48.5677 307.653 48.1543 307.375 47.7192C307.097 47.284 306.805 46.3019 306.624 45.5823C306.404 44.888 305.776 43.7298 305.624 42.8807C305.433 42.0568 304.404 39.4847 304.332 39.1969C304.26 38.9091 302.831 35.535 302.456 34.7724C302.394 34.589 302.254 34.456 302.139 34.3625C302.221 34.1429 301.858 34.0965 301.573 33.9997Z" fill="#BBB0E5" fill-opacity="0.32"/>
<path opacity="0.75" d="M302.08 49.5398C302.825 49.3986 304.747 49.6197 305.675 49.4171C306.578 49.175 308.032 49.3606 308.699 47.2653C309.366 45.1701 309.323 41.5246 310.09 38.9758C310.883 36.4665 311.894 33.4281 312.454 31.5129C312.454 31.5129 313.183 33.441 313.911 34.7574C314.639 36.0738 316.148 36.7811 317.426 36.6897C318.703 36.5984 320.099 36.4313 321.121 36.1135C322.103 35.8209 323.117 34.6178 323.58 33.5989C324.003 32.6051 324.246 30.8918 324.587 30.1177C324.903 29.3041 325.697 24.7903 326.284 24.7501C326.87 24.7098 328.893 25.0891 329.922 25.0448C330.952 25.0005 333.363 24.8539 334.013 24.2162C334.664 23.5785 335.184 22.3004 335.421 21.5372C335.658 20.774 335.671 19.4856 335.71 18.8485C335.788 18.1863 335.716 17.8985 336.373 16.3107C337.03 14.7229 336.972 14.9821 337.266 13.9597C337.56 12.9373 337.481 12.9878 337.312 12.9844C337.168 13.0205 337.143 12.9809 337.053 12.9271C336.963 12.8732 336.912 12.7941 336.966 12.704C336.995 12.5744 337.038 12.3801 337.146 12.2C337.253 12.0199 337.469 11.6598 337.35 11.7355C337.232 11.8112 337.217 11.876 337.127 11.8221C337.037 11.7683 336.987 11.6891 337.08 11.5739C337.174 11.4586 337.281 11.2786 337.127 11.2103C336.972 11.1421 336.713 11.0848 336.713 11.0848C336.713 11.0848 336.702 10.9805 336.608 11.0957C336.54 11.2506 336.457 11.4702 336.378 11.5207C336.299 11.5711 336.173 11.3733 336.187 11.3085C336.202 11.2437 336.313 10.8945 336.46 10.6892C336.582 10.4444 336.517 10.4301 336.625 10.25C336.733 10.0699 336.711 9.86124 336.578 10.0017C336.445 10.1422 336.284 10.4123 336.176 10.5924C336.108 10.7472 336 10.9273 335.985 10.9921C335.932 11.0821 335.917 11.1469 335.852 11.1326C335.788 11.1182 335.622 10.9457 335.622 10.9457C335.622 10.9457 335.586 10.8018 335.614 10.6722C335.643 10.5426 335.722 10.4921 335.776 10.4021C335.805 10.2725 335.675 10.2438 335.571 10.2548C335.506 10.2404 335.179 10.338 335.164 10.4027C335.11 10.4928 334.934 10.8277 334.855 10.8781C334.776 10.9286 332.506 15.0481 332.233 15.6674C331.975 16.2219 331.02 18.3894 330.804 18.7495C330.589 19.1096 330.294 19.5202 330.089 19.3729C329.884 19.2256 327.454 18.9943 326.659 19.0563C325.889 19.1579 323.597 19.2288 322.848 19.5391C322.086 19.9142 320.834 20.657 320.501 21.7046C320.167 22.7522 318.371 29.1852 318.371 29.1852C318.371 29.1852 316.705 25.9625 316.503 25.646C316.301 25.3295 316.071 25.1427 315.578 25.0676C315.084 24.9926 311.004 25.3137 310.572 25.4222C310.14 25.5306 308.694 26.2303 308.493 26.5257C308.292 26.821 306.452 29.6085 305.943 30.9909C305.433 32.3734 304.444 35.6206 304.236 36.2543C303.988 36.9131 302.689 40.0239 302.376 40.6684C302.039 41.2734 301.616 46.7188 301.182 47.6082C300.772 48.5372 300.644 49.1203 300.978 49.2963C301.288 49.4327 302.08 49.5398 302.08 49.5398Z" fill="#BBB0E5" fill-opacity="0.32"/>
<path d="M1015.3 21.6705C1017.8 22.3243 1020.45 20.8028 1021.12 18.3144C1022.21 14.2863 1017.71 10.9571 1014.15 12.9855C1011.47 14.5121 1010.94 18.3037 1013.18 20.4788L1006 32.7067L991.298 32.6655L983.669 19.478C983.562 19.2937 983.409 19.1406 983.224 19.034C983.04 18.9275 982.831 18.8713 982.618 18.8711L967.258 18.8526L961.036 8.09858C961.614 7.51655 962.028 6.79305 962.238 6.0005C962.911 3.4793 961.401 0.864564 958.873 0.172012C957.64 -0.165671 956.354 -0.00274662 955.251 0.630633C954.156 1.2598 953.373 2.27852 953.047 3.49924C952.641 5.01809 954.991 5.64531 955.396 4.12646C955.722 2.90445 957.017 2.1845 958.23 2.51716C959.474 2.85792 960.218 4.13911 959.889 5.37312C959.566 6.57941 958.257 7.31217 957.054 6.98243C955.538 6.56693 954.896 8.91256 956.412 9.32773C957.254 9.55712 958.096 9.55696 958.938 9.32708L965.152 20.0684L959.636 29.4774C957.081 28.6827 954.295 30.2028 953.6 32.7715C953.27 33.991 953.437 35.265 954.07 36.3586C955.197 38.3068 957.641 39.1968 959.759 38.4663L965.414 48.2403C965.521 48.4247 965.674 48.5778 965.859 48.6843C966.043 48.7908 966.252 48.847 966.465 48.8473L981.817 48.8658L984.115 52.8374C984.877 54.1538 987.005 52.9773 986.22 51.6196L983.927 47.6565L991.291 35.0971L1005.99 35.1384L1011.28 44.3118C1009.43 46.11 1009.41 49.2094 1011.24 51.0311L1005.9 60.1123L991.197 60.222L989.563 57.3975C988.775 56.0369 986.67 57.2545 987.458 58.6153L989.091 61.4387L981.877 73.7213C980.688 73.3912 979.372 73.5149 978.22 74.1719C975.98 75.4486 975.149 78.3898 976.453 80.6443C977.746 82.8786 980.709 83.6655 982.954 82.3861C985.608 80.8741 986.159 77.1329 983.978 74.9452L991.198 62.654L1005.9 62.5443L1012.22 73.5032C1010.62 74.9627 1010.22 77.4667 1011.31 79.3562C1012.6 81.5906 1015.57 82.3773 1017.81 81.0979C1020.05 79.8216 1020.88 76.8799 1019.58 74.6257C1018.51 72.7812 1016.37 71.9224 1014.38 72.376L1008 61.3289L1013.34 52.2478C1015.86 52.9377 1018.54 51.4184 1019.22 48.9079C1020.16 45.4432 1016.82 42.2019 1013.39 43.112L1008.1 33.9302L1015.3 21.6705ZM1014.26 16.5055C1014.53 15.5276 1015.51 14.7881 1016.52 14.7881C1017.99 14.7881 1019.16 16.243 1018.78 17.6795C1018.25 19.6187 1015.51 19.9986 1014.49 18.2401C1014.34 17.9806 1014.24 17.6935 1014.2 17.3957C1014.16 17.0979 1014.18 16.7952 1014.26 16.5055ZM982.843 78.8661C982.682 79.464 982.293 79.9638 981.75 80.2736C979.153 81.7527 976.801 77.7804 979.424 76.2846C980.535 75.6516 981.982 76.0356 982.616 77.1317C982.767 77.3912 982.865 77.6782 982.904 77.976C982.943 78.2738 982.923 78.5764 982.843 78.8661ZM956.175 35.1408C955.541 34.0458 955.948 32.6221 957.041 31.9987C958.152 31.3657 959.599 31.7497 960.233 32.8458C960.885 33.9733 960.391 35.3093 959.367 35.9879C958.246 36.6265 956.814 36.2463 956.175 35.1408ZM961.787 37.1139C963.365 35.3299 963.329 32.5109 961.698 30.7677L967.259 21.2841L981.915 21.3018L989.188 33.8734L981.824 46.434L967.169 46.4164L961.787 37.1139ZM1015.45 74.6865C1017.75 74.6865 1018.65 77.8223 1016.61 78.9854C1015.48 79.6237 1014.05 79.244 1013.41 78.1384C1012.55 76.6377 1013.72 74.6865 1015.45 74.6865ZM1014.62 45.3818C1016.09 45.3818 1017.26 46.8367 1016.87 48.2732C1016.35 50.2126 1013.61 50.5923 1012.59 48.8338C1011.72 47.3331 1012.89 45.3818 1014.62 45.3818Z" fill="#727E99"/>
<path opacity="0.1" d="M1000.89 506.789C1000.66 507.214 993.595 519.232 993.361 519.508C993.404 519.189 998.551 501.748 998.551 501.748C998.551 501.748 1007.51 506.789 1007.72 506.895C1007.8 506.746 1014.99 496.792 1015.25 496.515C1015.21 496.834 1010.1 511.936 1010.1 511.936L1000.89 506.789Z" fill="#222222"/>
<path opacity="0.1" d="M1062.7 542.48C1062.47 542.906 1055.41 554.923 1055.17 555.2C1055.21 554.881 1060.36 537.439 1060.36 537.439C1060.36 537.439 1069.32 542.48 1069.53 542.587C1069.61 542.438 1076.8 532.483 1077.06 532.207C1077.02 532.526 1071.91 547.628 1071.91 547.628L1062.7 542.48Z" fill="#222222"/>
<g opacity="0.1">
<path d="M1011.53 487.412L1044.11 468.588C1056.04 461.717 1071.72 458.314 1087.4 458.378C1087.69 458.378 1087.97 458.378 1088.27 458.378C1088.57 458.378 1088.84 458.378 1089.14 458.378C1089.44 458.378 1089.72 458.378 1090.01 458.378C1090.31 458.378 1090.59 458.378 1090.89 458.378C1091.18 458.378 1091.46 458.378 1091.76 458.378C1092.05 458.378 1092.33 458.378 1092.63 458.378C1092.93 458.378 1093.2 458.378 1093.5 458.378C1093.8 458.378 1094.08 458.378 1094.37 458.378C1094.67 458.378 1094.95 458.378 1095.25 458.378C1095.54 458.378 1095.82 458.378 1096.12 458.378C1096.42 458.378 1096.69 458.378 1096.99 458.378C1097.29 458.378 1097.56 458.378 1097.86 458.378C1098.16 458.378 1098.44 458.378 1098.73 458.378C1099.03 458.378 1099.31 458.378 1099.61 458.378C1099.9 458.378 1100.18 458.378 1100.48 458.378C1116.13 458.314 1131.83 461.717 1143.74 468.609C1143.74 468.609 1144.15 468.843 1144.85 469.29C1145.59 469.715 1146.61 470.417 1147.93 471.332C1149.21 472.289 1150.76 473.437 1152.36 474.969C1153.97 476.479 1155.67 478.33 1157.18 480.605C1158.74 482.86 1160.08 485.54 1160.78 488.582C1161.14 490.092 1161.31 491.687 1161.33 493.325C1161.29 494.963 1161.1 496.622 1160.69 498.26C1160.25 499.898 1159.65 501.514 1158.86 503.067C1158.67 503.45 1158.44 503.832 1158.23 504.215L1157.91 504.79L1157.55 505.343C1157.31 505.704 1157.06 506.087 1156.82 506.449L1156.01 507.512C1153.84 510.32 1151.1 512.766 1148.17 514.893C1145.25 517.02 1142 518.7 1138.89 520.508C1135.79 522.295 1132.72 524.039 1129.75 525.72C1123.81 529.101 1118.28 532.271 1113.54 534.972C1112.56 535.525 1111.6 536.078 1110.69 536.61C1107.24 538.588 1104.33 540.247 1102.14 541.502C1099.95 542.757 1098.5 543.586 1097.97 543.884C1097.97 543.884 1084.1 543.82 1083.99 543.884L1081.31 542.31L1078.34 540.587L1075.36 538.886L1072.36 537.205C1070.36 536.078 1068.34 534.972 1066.32 533.909C1065.32 533.356 1064.3 532.845 1063.28 532.313C1062.26 531.782 1061.23 531.25 1060.21 530.739L1073.38 523.146L1105.97 504.343C1107.56 503.428 1108.9 502.407 1110.01 501.344C1110.01 501.344 1110.01 501.344 1110.01 501.365C1110.01 501.365 1110.01 501.365 1110.03 501.344C1110.03 501.344 1110.05 501.344 1110.05 501.323C1110.09 501.28 1110.16 501.216 1110.2 501.174C1110.43 500.94 1110.65 500.706 1110.86 500.472C1110.88 500.451 1110.88 500.451 1110.9 500.429L1110.92 500.408C1111.05 500.28 1111.16 500.153 1111.28 499.983C1111.45 499.791 1111.6 499.578 1111.73 499.387C1111.77 499.323 1111.82 499.259 1111.88 499.196C1112.03 499.004 1112.16 498.77 1112.3 498.536C1112.33 498.494 1112.37 498.451 1112.39 498.387C1112.39 498.366 1112.41 498.366 1112.41 498.345C1112.5 498.196 1112.6 498.047 1112.69 497.877C1112.77 497.707 1112.86 497.537 1112.92 497.345C1113.6 495.941 1114.09 493.984 1113.73 491.794C1113.6 490.985 1113.35 490.156 1112.98 489.326C1112.35 487.965 1111.41 486.625 1110.2 485.413C1109.01 484.264 1107.6 483.222 1106.05 482.307C1105.05 481.711 1103.97 481.201 1102.84 480.733C1100.24 479.67 1097.37 478.946 1094.35 478.5C1091.65 478.861 1088.97 479.457 1086.35 480.329C1085.5 480.627 1084.63 480.903 1083.8 481.286L1082.55 481.818L1081.36 482.435C1080.95 482.647 1080.57 482.818 1080.16 483.073L1079 483.732C1078.23 484.179 1077.44 484.604 1076.68 485.051C1073.59 486.816 1070.57 488.539 1067.64 490.22C1061.77 493.58 1056.3 496.707 1051.6 499.366C1050.66 499.898 1049.79 500.408 1048.92 500.897C1042.03 504.832 1037.26 507.555 1036.2 508.172C1036.2 508.172 1022.33 508.108 1022.22 508.172L1019.54 506.598L1016.57 504.875L1013.59 503.173L1010.59 501.493C1008.59 500.365 1006.57 499.281 1004.55 498.196C1003.55 497.643 1002.53 497.132 1001.51 496.601C1000.49 496.069 999.466 495.537 998.445 495.027L1011.53 487.412Z" fill="#222222"/>
</g>
<path d="M1038.05 483.796C1042.71 481.073 1048.15 477.904 1054 474.501C1056.92 472.799 1059.94 471.034 1063 469.247C1063.76 468.8 1064.53 468.354 1065.3 467.907L1066.44 467.226C1066.81 467.014 1067.23 466.801 1067.61 466.588L1068.81 465.971L1070.02 465.44C1070.83 465.057 1071.68 464.78 1072.51 464.483C1075.89 463.334 1079.44 462.632 1082.95 462.292C1086.46 461.951 1089.97 461.973 1093.31 462.356C1096.65 462.738 1099.84 463.462 1102.71 464.61C1103.84 465.057 1104.92 465.589 1105.92 466.163V481.584C1095.46 475.543 1077.04 476.351 1066.55 482.392L1035.35 500.408V485.37C1036.24 484.859 1037.11 484.328 1038.05 483.796Z" fill="#AF5F6F"/>
<path d="M1100.03 519.381C1104.75 516.637 1110.26 513.425 1116.15 509.98C1119.11 508.257 1122.15 506.47 1125.23 504.683C1128.32 502.854 1131.53 501.152 1134.49 498.94C1137.42 496.771 1140.17 494.282 1142.36 491.411L1143.17 490.326C1143.42 489.964 1143.65 489.581 1143.91 489.199L1144.27 488.646L1144.59 488.05C1144.8 487.667 1145.04 487.284 1145.23 486.88C1146.02 485.285 1146.61 483.647 1147.04 481.967C1147.23 481.137 1147.38 480.308 1147.46 479.457L1147.44 491.326C1147.48 492.155 1147.48 492.985 1147.44 493.814V493.857C1146.89 502.365 1141 510.767 1129.77 517.254L1097.18 536.078V521.04C1098.09 520.508 1099.05 519.955 1100.03 519.381Z" fill="#435168"/>
<path d="M1022.18 491.815L1019.5 490.241L1016.52 488.518L1013.53 486.816L1010.53 485.136C1008.53 484.009 1006.51 482.924 1004.49 481.839C1003.49 481.286 1002.47 480.776 1001.44 480.244C1000.42 479.712 999.402 479.18 998.381 478.67L1011.55 471.076L1025.05 478.861L1034.9 484.54C1028.01 488.475 1023.27 491.198 1022.18 491.815Z" fill="#C9CED3"/>
<path d="M1096.73 520.232C1089.82 524.167 1085.08 526.889 1084.01 527.506L1081.33 525.932L1078.36 524.209L1075.36 522.508L1072.36 520.827C1070.36 519.7 1068.34 518.615 1066.32 517.531C1065.32 516.978 1064.3 516.467 1063.28 515.935C1062.26 515.404 1061.23 514.872 1060.21 514.361L1073.38 506.768L1086.84 514.531L1096.73 520.232Z" fill="#C9CED3"/>
<path d="M1063.09 516.212C1064.04 516.828 1065.02 517.445 1066 518.062C1067.96 519.275 1069.91 520.466 1071.89 521.636L1074.85 523.401L1077.83 525.145L1080.8 526.868L1083.55 528.421L1083.61 532.015L1083.72 535.908C1083.76 537.205 1083.8 538.503 1083.87 539.8C1083.93 541.098 1083.97 542.395 1084.06 543.693L1060.21 529.931V514.34C1061.15 514.978 1062.11 515.595 1063.09 516.212Z" fill="#DFE7EB"/>
<path d="M1084.23 539.779C1084.29 538.482 1084.33 537.184 1084.38 535.887L1084.48 531.994L1084.55 528.442C1085.59 527.825 1090.33 525.06 1097.2 521.061V536.099L1084.04 543.693C1084.12 542.395 1084.16 541.077 1084.23 539.779Z" fill="#A7ACB0"/>
<path d="M1004.19 482.35C1006.14 483.562 1008.1 484.753 1010.08 485.923L1013.04 487.689L1016.01 489.433L1018.99 491.156L1021.74 492.708L1021.8 496.303L1021.91 500.195C1021.95 501.493 1021.99 502.79 1022.05 504.088C1022.12 505.385 1022.16 506.683 1022.25 507.98L998.402 494.218V478.627C999.359 479.266 1000.32 479.882 1001.29 480.499C1002.23 481.137 1003.21 481.754 1004.19 482.35Z" fill="#DFE7EB"/>
<path d="M1022.56 500.195L1022.67 496.303L1022.73 492.751C1023.78 492.134 1028.52 489.369 1035.39 485.349V500.387L1022.22 507.98C1022.31 506.683 1022.35 505.385 1022.42 504.088C1022.48 502.79 1022.52 501.493 1022.56 500.195Z" fill="#A7ACB0"/>
<path d="M1001.45 480.201C1002.47 480.733 1003.49 481.265 1004.49 481.797C1006.51 482.882 1008.53 483.988 1010.53 485.094L1013.53 486.774L1016.53 488.476L1019.5 490.198L1022.18 491.772C1023.25 491.156 1028.01 488.454 1034.9 484.498L1035.37 484.775V485.306C1028.5 489.326 1023.76 492.092 1022.72 492.708L1022.65 496.26L1022.55 500.153C1022.5 501.45 1022.46 502.748 1022.4 504.045C1022.33 505.343 1022.29 506.64 1022.2 507.938C1022.12 506.64 1022.08 505.343 1022.01 504.045C1021.95 502.748 1021.91 501.45 1021.86 500.153L1021.76 496.26L1021.69 492.666L1018.95 491.113L1015.97 489.39L1012.99 487.646L1010.04 485.881C1008.06 484.711 1006.1 483.52 1004.15 482.307C1003.17 481.712 1002.21 481.095 1001.23 480.457C1000.25 479.84 999.297 479.223 998.34 478.585C999.403 479.138 1000.42 479.67 1001.45 480.201Z" fill="#F2FCFF"/>
<path d="M1084.04 543.693C1083.95 542.395 1083.91 541.098 1083.85 539.8C1083.78 538.503 1083.74 537.205 1083.7 535.908L1083.59 532.015L1083.53 528.421L1080.78 526.868L1077.8 525.145L1074.83 523.401L1071.87 521.636C1069.89 520.466 1067.93 519.275 1065.98 518.062C1065 517.467 1064.04 516.85 1063.06 516.212C1062.09 515.595 1061.13 514.978 1060.17 514.34C1061.21 514.85 1062.21 515.382 1063.23 515.914C1064.26 516.446 1065.28 516.977 1066.28 517.509C1068.3 518.594 1070.32 519.7 1072.32 520.806L1075.32 522.486L1078.31 524.188L1081.29 525.911L1083.97 527.485C1085.04 526.868 1089.8 524.167 1096.69 520.21L1097.16 520.487V521.019C1090.27 525.039 1085.55 527.804 1084.5 528.399L1084.44 531.952L1084.33 535.844C1084.29 537.141 1084.25 538.439 1084.19 539.736C1084.16 541.076 1084.12 542.395 1084.04 543.693Z" fill="#F2FCFF"/>
<path d="M1110.82 484.051C1110.6 484.285 1110.39 484.519 1110.16 484.753C1110.31 484.604 1110.52 484.37 1110.82 484.051Z" fill="#397BD0"/>
<path d="M1106.01 465.95C1105.01 465.376 1103.92 464.844 1102.8 464.376C1099.93 463.206 1096.71 462.419 1093.35 462.015C1089.99 461.611 1086.46 461.547 1082.93 461.866C1079.38 462.185 1075.81 462.845 1072.36 463.972C1071.51 464.27 1070.64 464.546 1069.81 464.929L1068.55 465.461L1067.36 466.078C1066.96 466.291 1066.57 466.461 1066.17 466.716L1065 467.375C1064.23 467.822 1063.45 468.269 1062.68 468.694C1059.6 470.46 1056.58 472.182 1053.64 473.863C1047.77 477.202 1042.3 480.329 1037.6 483.009C1036.69 483.541 1035.8 484.051 1034.92 484.54L1025.03 478.84L1011.53 471.055L1044.11 452.231C1067.74 438.597 1106.16 438.597 1129.79 452.231L1114.09 461.292L1106.01 465.95Z" fill="#EF627E"/>
<path d="M1105.94 465.993V466.142C1104.92 465.567 1103.86 465.057 1102.73 464.589C1099.86 463.44 1096.67 462.717 1093.33 462.334C1089.99 461.951 1086.5 461.93 1082.97 462.27C1079.46 462.611 1075.91 463.313 1072.53 464.461C1071.68 464.759 1070.83 465.036 1070.04 465.418L1068.83 465.95L1067.64 466.567C1067.25 466.78 1066.83 466.971 1066.47 467.205L1065.32 467.886C1064.55 468.332 1063.79 468.779 1063.02 469.226C1059.96 471.012 1056.94 472.778 1054.02 474.48C1048.2 477.883 1042.75 481.052 1038.07 483.775C1037.16 484.306 1036.26 484.838 1035.41 485.327V484.796L1034.94 484.519C1035.8 484.03 1036.69 483.519 1037.62 482.988C1042.33 480.308 1047.79 477.181 1053.66 473.841C1056.6 472.161 1059.62 470.438 1062.7 468.673C1063.47 468.226 1064.25 467.801 1065.02 467.354L1066.19 466.695C1066.59 466.461 1067 466.269 1067.38 466.057L1068.57 465.44L1069.83 464.908C1070.66 464.525 1071.53 464.249 1072.38 463.951C1075.83 462.823 1079.4 462.143 1082.95 461.845C1086.5 461.547 1090.01 461.59 1093.37 461.994C1096.73 462.398 1099.95 463.185 1102.82 464.355C1103.94 464.823 1105.01 465.355 1106.03 465.929L1105.94 465.993Z" fill="#FF5778"/>
<path d="M1105.94 466.142C1107.5 467.014 1108.88 468.035 1110.05 469.162C1111.26 470.353 1112.22 471.693 1112.86 473.076C1113.22 473.863 1113.47 474.65 1113.6 475.458C1113.96 477.628 1113.49 479.563 1112.84 480.967C1112.75 481.137 1112.69 481.329 1112.6 481.499C1112.52 481.669 1112.41 481.818 1112.32 481.967C1112.13 482.264 1112.01 482.562 1111.81 482.796C1111.43 483.285 1111.15 483.711 1110.86 484.009C1110.54 484.349 1110.33 484.583 1110.18 484.753C1109.05 483.626 1107.65 482.562 1105.96 481.584L1105.94 466.142Z" fill="#2D4163"/>
<path d="M1133.98 454.954C1135.25 455.911 1136.81 457.059 1138.4 458.591C1140.02 460.101 1141.72 461.951 1143.23 464.227C1144.74 466.482 1146.08 469.162 1146.78 472.204C1147.14 473.714 1147.31 475.309 1147.34 476.947C1147.29 478.585 1147.1 480.244 1146.7 481.882C1146.25 483.519 1145.66 485.136 1144.87 486.689C1144.68 487.072 1144.44 487.454 1144.23 487.837L1143.91 488.412L1143.55 488.965C1143.29 489.326 1143.06 489.709 1142.81 490.071L1142 491.134C1139.83 493.963 1137.08 496.388 1134.15 498.515C1131.23 500.642 1127.98 502.322 1124.87 504.13C1121.77 505.917 1118.71 507.661 1115.73 509.342C1109.79 512.723 1104.26 515.893 1099.52 518.594C1098.54 519.147 1097.58 519.7 1096.67 520.232L1086.78 514.531L1073.27 506.747L1105.86 487.922C1107.45 487.008 1108.82 485.987 1109.92 484.923C1109.99 484.881 1110.03 484.817 1110.07 484.774C1110.3 484.54 1110.52 484.306 1110.73 484.073C1110.75 484.051 1110.75 484.051 1110.77 484.03C1110.77 484.03 1110.77 484.03 1110.79 484.009C1110.92 483.881 1111.03 483.753 1111.16 483.583C1111.3 483.392 1111.47 483.2 1111.6 482.988C1111.64 482.924 1111.69 482.86 1111.75 482.796C1111.9 482.605 1112.03 482.371 1112.18 482.137C1112.2 482.094 1112.24 482.052 1112.26 481.988C1112.26 481.967 1112.28 481.967 1112.28 481.945C1112.37 481.797 1112.47 481.648 1112.56 481.478C1112.64 481.307 1112.71 481.137 1112.79 480.946C1113.47 479.542 1113.96 477.585 1113.6 475.394C1113.47 474.586 1113.22 473.756 1112.86 472.927C1112.22 471.566 1111.28 470.226 1110.07 469.013C1108.88 467.865 1107.5 466.822 1105.92 465.908L1114.01 461.25L1129.7 452.188C1129.7 452.188 1130.11 452.422 1130.81 452.869C1131.64 453.337 1132.68 454.039 1133.98 454.954Z" fill="#5E6C86"/>
<path d="M1129.79 452.231C1130.26 452.507 1130.7 452.763 1131.15 453.039C1131.06 452.997 1131 452.954 1130.91 452.912C1130.19 452.465 1129.81 452.231 1129.79 452.231Z" fill="#4390E7"/>
<path d="M1145.23 486.88C1145.04 487.284 1144.8 487.667 1144.59 488.05L1144.27 488.646L1143.91 489.199C1143.66 489.581 1143.42 489.964 1143.17 490.326L1142.36 491.411C1140.17 494.282 1137.42 496.771 1134.49 498.94C1131.53 501.152 1128.3 502.833 1125.24 504.683C1122.13 506.491 1119.09 508.278 1116.15 509.98C1110.26 513.425 1104.75 516.637 1100.03 519.381C1099.05 519.955 1098.1 520.508 1097.2 521.04V520.508L1096.73 520.232C1097.65 519.7 1098.61 519.168 1099.58 518.594C1104.33 515.893 1109.86 512.723 1115.79 509.341C1118.75 507.64 1121.81 505.896 1124.94 504.13C1128.02 502.322 1131.3 500.642 1134.21 498.515C1137.15 496.388 1139.87 493.963 1142.06 491.134L1142.87 490.071C1143.12 489.709 1143.36 489.326 1143.61 488.965L1143.98 488.412L1144.29 487.837C1144.51 487.454 1144.74 487.072 1144.93 486.689C1145.72 485.136 1146.31 483.519 1146.76 481.882C1147.17 480.244 1147.36 478.563 1147.4 476.947C1147.38 475.309 1147.21 473.714 1146.85 472.204C1146.14 469.162 1144.8 466.482 1143.29 464.227C1141.78 461.951 1140.06 460.122 1138.47 458.591C1136.87 457.059 1135.32 455.889 1134.04 454.954C1132.72 454.039 1131.7 453.358 1130.96 452.912C1130.23 452.465 1129.85 452.231 1129.85 452.231C1129.87 452.252 1130.26 452.465 1130.98 452.912C1131.04 452.954 1131.13 452.997 1131.21 453.039C1131.94 453.465 1132.89 454.103 1134.08 454.911C1135.36 455.847 1136.93 456.995 1138.55 458.527C1140.19 460.037 1141.91 461.866 1143.46 464.142C1145 466.397 1146.38 469.098 1147.12 472.161C1147.51 473.693 1147.68 475.309 1147.72 476.968C1147.72 477.798 1147.65 478.649 1147.57 479.499C1147.46 480.329 1147.34 481.158 1147.14 482.009C1146.61 483.626 1146.02 485.285 1145.23 486.88Z" fill="#58709C"/>
<path d="M1111.79 482.775C1111.99 482.541 1112.13 482.243 1112.31 481.945C1112.39 481.797 1112.5 481.648 1112.58 481.477C1112.67 481.307 1112.73 481.137 1112.82 480.946C1113.47 479.542 1113.94 477.585 1113.58 475.437C1113.45 474.65 1113.2 473.841 1112.84 473.054C1112.2 471.693 1111.24 470.353 1110.03 469.141C1108.86 468.013 1107.46 467.014 1105.92 466.12V465.971L1106.01 465.929C1107.56 466.844 1108.97 467.865 1110.16 469.034C1111.35 470.247 1112.31 471.587 1112.94 472.948C1113.33 473.756 1113.58 474.586 1113.69 475.415C1114.03 477.606 1113.54 479.563 1112.88 480.967C1112.79 481.137 1112.73 481.329 1112.65 481.499C1112.54 481.669 1112.45 481.818 1112.37 481.967C1112.37 481.988 1112.35 481.988 1112.35 482.009C1112.33 482.052 1112.28 482.116 1112.26 482.158C1112.11 482.392 1112.01 482.626 1111.84 482.817C1111.79 482.881 1111.73 482.945 1111.69 483.009C1111.54 483.2 1111.39 483.413 1111.24 483.604C1111.11 483.753 1111.01 483.902 1110.88 484.03C1110.88 484.03 1110.88 484.03 1110.86 484.051C1110.84 484.072 1110.84 484.072 1110.82 484.094C1110.52 484.413 1110.31 484.647 1110.16 484.796C1110.09 484.859 1110.03 484.923 1110.01 484.966C1110.03 484.923 1110.09 484.881 1110.16 484.796C1110.31 484.647 1110.54 484.391 1110.84 484.051C1111.14 483.711 1111.41 483.264 1111.79 482.775Z" fill="#58709C"/>
<path d="M996.529 503.833C996.295 504.258 989.234 516.276 989 516.552C989.042 516.233 994.19 498.792 994.19 498.792C994.19 498.792 1003.14 503.833 1003.36 503.939C1003.44 503.79 1010.63 493.836 1010.89 493.559C1010.84 493.878 1005.74 508.98 1005.74 508.98L996.529 503.833Z" fill="#FFD683"/>
<path d="M989 516.573L996.529 503.833L996.508 507.363L989 516.573Z" fill="#FFA256"/>
<path d="M1005.72 509.001L1005.7 512.532L1010.89 493.602L1005.72 509.001Z" fill="#FFA256"/>
<path d="M1005.7 512.532L996.509 507.363L996.53 503.833L1005.72 509.001L1005.7 512.532Z" fill="#FEDA93"/>
<path d="M1058.34 539.524C1058.11 539.949 1051.05 551.967 1050.81 552.243C1050.85 551.924 1056 534.483 1056 534.483C1056 534.483 1064.96 539.524 1065.17 539.63C1065.25 539.481 1072.44 529.527 1072.7 529.25C1072.66 529.569 1067.55 544.671 1067.55 544.671L1058.34 539.524Z" fill="#FFD683"/>
<path d="M1050.81 552.265L1058.34 539.524L1058.32 543.055L1050.81 552.265Z" fill="#FFA256"/>
<path d="M1067.53 544.692L1067.51 548.223L1072.7 529.293L1067.53 544.692Z" fill="#FFA256"/>
<path d="M1067.51 548.223L1058.32 543.055L1058.34 539.524L1067.53 544.693L1067.51 548.223Z" fill="#FEDA93"/>
</svg>
