<svg width="25" height="25" viewBox="0 0 25 25" fill="none" xmlns="http://www.w3.org/2000/svg">
<path fill-rule="evenodd" clip-rule="evenodd" d="M12.5 25C19.4036 25 25 19.4036 25 12.5C25 5.59644 19.4036 0 12.5 0C5.59644 0 0 5.59644 0 12.5C0 19.4036 5.59644 25 12.5 25Z" fill="#ED3131"/>
<path d="M16.2178 8H8.38315C8.07006 8 7.76003 8.06169 7.47079 8.18156C7.18155 8.30142 6.91877 8.4771 6.69745 8.69856C6.47613 8.92003 6.30063 9.18293 6.18095 9.47225C6.06128 9.76157 5.99979 10.0716 6 10.3847V14.6218C5.99979 14.9349 6.06128 15.2449 6.18095 15.5343C6.30063 15.8236 6.47613 16.0865 6.69745 16.3079C6.91877 16.5294 7.18155 16.7051 7.47079 16.8249C7.76003 16.9448 8.07006 17.0065 8.38315 17.0065H16.2178C16.5309 17.0065 16.8409 16.9448 17.1301 16.8249C17.4194 16.7051 17.6821 16.5294 17.9035 16.3079C18.1248 16.0865 18.3003 15.8236 18.42 15.5343C18.5396 15.2449 18.6011 14.9349 18.6009 14.6218V10.3847C18.6011 10.0716 18.5396 9.76157 18.42 9.47225C18.3003 9.18293 18.1248 8.92003 17.9035 8.69856C17.6821 8.4771 17.4194 8.30142 17.1301 8.18156C16.8409 8.06169 16.5309 8 16.2178 8ZM11.2303 14.4343V10.5722L14.5506 12.5032L11.2303 14.4343Z" fill="white"/>
</svg>
