<svg width="25" height="25" viewBox="0 0 25 25" fill="none" xmlns="http://www.w3.org/2000/svg">
<rect x="5" y="6" width="15" height="14" fill="white"/>
<path fill-rule="evenodd" clip-rule="evenodd" d="M12.5 25C19.4036 25 25 19.4036 25 12.5C25 5.59644 19.4036 0 12.5 0C5.59644 0 0 5.59644 0 12.5C0 19.4036 5.59644 25 12.5 25ZM10.207 18.2297C10.511 18.2297 10.65 18.0945 10.8179 17.931L10.832 17.9172L12.3331 16.4577L15.4564 18.7652C16.0312 19.0824 16.4461 18.9182 16.5893 18.2315L18.6398 8.56872C18.8498 7.72704 18.319 7.34529 17.769 7.59495L5.72842 12.2378C4.90653 12.5674 4.91133 13.026 5.57861 13.2303L8.6685 14.1947L15.8219 9.68165C16.1596 9.47687 16.4696 9.58696 16.2152 9.81273L10.4189 15.0435L10.4197 15.044L10.207 18.2297Z" fill="#039BE5"/>
</svg>
