<svg width="158" height="9" viewBox="0 0 158 9" fill="none" xmlns="http://www.w3.org/2000/svg">
<path opacity="0.75" d="M1.71793 5.39358C0.60239 5.89652 -0.831871 6.61122 0.60239 7.08769C2.03665 7.59063 4.26772 8.3318 5.43638 8.57003C6.60504 8.83474 7.77369 8.17298 8.35802 7.96121C8.99547 7.74945 9.52668 6.84945 10.0048 6.7171C10.4829 6.58475 11.1203 6.29357 11.5984 6.16122C12.0765 6.02887 13.9888 5.1024 15.2106 4.8377C16.4324 4.57299 17.8666 4.30829 19.9384 4.36123C22.0632 4.41417 23.3381 4.99652 24.6661 5.63181C25.941 6.2671 29.9251 7.51122 31.5187 8.01416C33.1123 8.51709 37.1495 9.15239 38.5306 8.96709C39.9118 8.7818 42.1428 7.77592 44.0021 7.37886C45.8613 6.98181 47.7736 6.34651 49.3141 6.08181C50.8546 5.8171 53.192 5.44652 54.095 5.39358C54.9981 5.34064 56.8573 5.02299 57.601 5.42005C58.2915 5.8171 61.7975 7.06122 63.8692 7.56416C65.9409 8.0671 68.0658 7.98768 69.7656 7.64357C71.4655 7.32592 72.8466 6.98181 73.3247 6.77004C73.8028 6.55828 74.5996 6.13475 75.5558 5.71122C76.512 5.28769 79.0618 4.14946 80.6023 4.12299C82.1428 4.09652 82.8333 4.25535 83.8958 4.52005C84.9051 4.78476 87.2955 5.36711 87.8798 5.39358C88.4641 5.42005 89.6859 5.28769 90.3234 5.15534C90.9608 5.02299 93.9356 4.04358 93.9356 4.04358C93.9356 4.04358 95.6355 3.64653 96.4323 3.35535C97.2291 3.06417 97.5478 2.773 98.3446 2.72006C99.0883 2.66712 99.7258 2.61418 99.7258 2.61418C99.7258 2.61418 104.347 4.54652 107.163 5.23475C109.978 5.92299 112.05 6.2671 113.112 6.32004C114.175 6.34651 116.778 6.2671 118.159 6.08181C119.54 5.89652 122.461 5.60534 124.108 5.65828C125.755 5.71122 129.208 5.94946 129.792 6.10828C130.376 6.2671 134.839 6.92886 136.22 7.03475C137.548 7.14063 143.019 7.22004 144.082 7.24651C145.144 7.27298 149.659 7.32592 150.137 7.35239C150.615 7.35239 153.696 8.0671 155.343 8.17298C156.99 8.30533 157.734 8.25239 157.946 7.8818C158.159 7.51122 157.734 7.19357 156.831 7.08769C155.928 6.98181 154.015 6.39946 152.528 6.05534C151.04 5.71122 150.031 5.52593 147.906 5.39358C145.781 5.26122 142.541 4.62593 139.938 4.6524C137.335 4.6524 135.21 4.75829 132.979 4.52005C130.748 4.30829 129.42 3.96417 126.286 3.56711C123.152 3.17006 120.283 3.09065 117.681 3.32888C115.078 3.56711 112.315 3.9377 110.616 4.04358C108.916 4.14946 107.056 3.4877 105.303 2.82594C103.55 2.16418 101.744 0.920066 99.5133 0.390656C97.2822 -0.112283 95.2105 -0.191695 93.2981 0.523008C91.3858 1.23771 88.2517 2.19065 87.1893 2.45535C86.0737 2.72006 84.6926 2.90535 83.2583 2.48182C81.8241 2.0583 79.4867 0.946536 77.3088 1.39653C75.1308 1.873 71.3593 3.19653 69.4469 4.04358C67.5346 4.89064 63.8161 5.63181 62.3287 5.20828C60.8413 4.78476 58.2915 3.51417 55.9011 3.06417C53.5107 2.61418 50.0578 2.66712 47.8799 2.90535C45.755 3.14359 41.8241 4.25535 39.8055 4.78476C37.7869 5.34064 33.856 6.42593 32.3686 6.16122C30.8812 5.89652 28.597 4.75829 27.269 4.28182C25.941 3.77888 22.1694 2.323 19.6727 1.95241C17.1229 1.58183 13.6701 1.39653 9.5798 2.58771C5.54262 3.83182 1.71793 5.39358 1.71793 5.39358Z" fill="#E3EBFE"/>
</svg>
