<svg width="59" height="131" viewBox="0 0 59 131" fill="none" xmlns="http://www.w3.org/2000/svg">
<path opacity="0.75" fill-rule="evenodd" clip-rule="evenodd" d="M44.1753 0.674835C48.2322 1.79949 52.2892 2.92415 54.9938 4.49868C54.7684 4.72361 54.9938 4.94854 54.9938 5.17347C56.5715 5.3984 57.2476 5.84827 58.5999 6.74799C58.5999 8.99731 56.5715 10.7968 55.6699 12.8212C54.9938 14.8455 54.0922 17.0949 53.4161 19.5691C52.7399 22.0434 52.0638 24.7425 51.3876 27.6667C50.7115 30.5908 50.2607 33.2899 49.5845 35.9891C49.1338 38.6883 48.4576 41.3875 48.0068 43.6368C46.4292 43.6368 48.4576 47.4607 46.4292 48.3604C47.1053 49.9349 45.5276 52.4092 45.3022 53.9837C45.3022 54.2086 46.2038 55.5582 45.0768 55.1083C44.8515 55.7831 45.753 55.7831 45.3022 56.6829C43.2738 60.7316 44.1753 63.4308 42.823 66.8048C42.823 67.0297 43.0484 67.0297 43.0484 66.8048C42.5976 68.6042 42.1468 71.5284 42.1468 73.5527C41.4707 75.5771 41.0199 78.9511 40.5691 82.55C40.1184 86.1489 39.6676 89.5229 38.5407 91.9971C38.7661 92.6719 38.9915 93.1218 39.2168 93.7966C37.8645 97.6204 38.0899 104.143 36.2868 109.767C36.963 111.791 35.3853 114.49 35.6107 116.965C35.3853 116.965 35.3853 116.74 35.1599 116.74C35.3853 118.314 34.4837 119.214 35.1599 119.664C34.7091 120.114 34.033 120.114 34.2584 121.013C34.9345 121.238 34.2584 119.889 35.1599 120.339C34.7091 121.688 34.4838 123.488 33.5822 125.287C33.8076 125.512 34.2584 125.287 34.033 126.187C32.9061 125.512 33.3568 127.087 32.6807 126.412C33.3568 127.087 32.6807 128.436 31.5537 128.661C32.2299 127.536 30.4268 128.211 30.8776 127.311C29.7507 127.536 31.3284 128.886 32.2299 128.886C32.0045 129.786 30.6522 129.111 30.8776 128.436C29.9761 128.886 31.103 129.561 30.8776 130.011C31.5537 130.46 30.2014 130.236 30.6522 129.561C29.9761 129.786 29.9761 130.46 29.2999 130.46C28.6237 130.46 28.3984 130.011 27.9476 130.011C27.7222 129.336 28.8491 129.561 28.6237 128.886C27.9476 129.336 27.4968 129.336 26.1445 128.886C26.8207 128.436 26.3699 128.436 27.046 127.761C26.3699 128.211 26.5953 127.311 25.6937 127.311C26.5953 128.211 25.4684 128.436 26.3699 129.111C25.9191 130.011 25.4684 128.211 25.243 129.111C24.5668 129.111 25.243 128.211 25.243 127.761C24.7922 127.761 24.3414 127.536 24.116 127.986C25.4684 128.211 23.6653 128.211 24.116 129.561C23.4399 129.561 22.313 128.211 23.4399 128.211C23.4399 127.986 22.9891 127.986 22.9891 127.761C22.9891 127.986 22.313 128.886 21.6368 129.336C21.186 129.111 21.4114 128.661 21.186 128.211C22.313 128.211 22.313 127.761 22.0876 127.087C21.4114 128.211 20.7353 127.536 19.6083 128.661C18.9322 127.986 18.0307 127.087 19.383 126.862C19.383 126.637 18.9322 126.862 18.4814 126.862C18.9322 126.637 18.256 125.737 19.1576 126.187C19.1576 125.737 18.4814 125.737 18.256 126.187C18.7068 125.287 18.256 124.162 19.1576 123.038C18.256 123.038 19.6083 121.463 19.1576 120.114C17.5799 122.138 18.4814 124.162 16.9037 126.637C16.6783 126.637 16.6783 126.187 16.453 126.187V125.737C18.4814 126.187 17.8053 122.138 18.7068 120.114H18.4814C18.7068 120.114 18.7068 119.889 18.7068 119.664C18.7068 119.214 19.383 117.864 19.1576 117.414C19.1576 117.19 19.383 115.615 19.383 115.615C19.1576 114.94 19.383 114.94 19.383 114.49C19.383 114.04 19.6083 111.341 19.8337 110.891C19.8337 110.666 20.0591 109.767 20.2845 108.867C22.0876 105.268 21.4114 94.9213 22.5384 93.1218C22.9891 92.2221 22.7637 93.7966 22.5384 92.6719C22.313 91.5473 23.4399 89.073 23.4399 88.1733C22.7637 87.0486 24.116 85.2492 24.3414 84.1245C24.5668 82.9999 23.8907 81.8752 24.116 81.2004C24.116 80.9755 25.0176 80.7506 25.0176 80.5256C25.243 80.0758 24.116 78.9511 24.7922 78.5012C25.6937 77.6015 25.0176 79.176 24.7922 78.0514C24.3414 76.027 25.6937 74.2275 25.9191 72.2032C26.3699 69.0541 26.5953 65.0053 27.4968 61.1815C27.9476 60.7316 28.3984 61.6314 28.6237 60.9566C28.3984 60.0568 27.7222 61.1815 27.4968 60.7316C27.4968 60.0568 29.2999 60.0568 28.3984 59.607C28.3984 59.8319 28.173 59.8319 27.9476 60.0568C27.7222 56.0081 29.0745 51.7344 29.9761 48.3604C29.9761 48.5853 29.9761 48.8102 30.2014 48.8102C30.4268 48.1354 29.5253 48.1354 29.5253 47.6856C31.5537 39.813 33.1314 33.2899 34.2584 27.4417C34.4838 28.3414 35.6107 27.6667 35.1599 27.2168C35.1599 27.4417 34.9345 27.6667 34.7091 27.6667C34.9345 25.8672 35.1599 23.3929 36.0614 20.6938C36.7376 17.7697 37.8645 14.6206 38.9914 11.0217H38.7661C39.6676 9.89704 40.3438 7.87265 41.0199 6.29813C41.6961 4.72361 42.5976 3.14909 42.823 2.92415C43.2738 2.47429 43.7245 1.57456 44.1753 0.674835Z" fill="#FFCA42"/>
<path opacity="0.75" fill-rule="evenodd" clip-rule="evenodd" d="M44.4008 0C47.7816 2.47425 51.1624 4.9485 53.4162 7.19782C53.1909 7.19782 53.4162 7.42275 53.4162 7.64768C54.7686 8.32248 55.4447 9.2222 56.3462 10.3469C56.1209 11.6965 54.5432 11.9214 53.6416 12.8211C52.0639 14.3956 50.2609 16.8699 48.6832 19.3441C46.8801 21.8184 45.3024 24.5176 43.7247 26.7669C42.3724 25.8672 43.4993 29.2411 41.6962 28.5663C41.9216 29.9159 40.3439 30.3658 39.6678 31.0406C39.6678 31.0406 40.1185 32.3902 39.217 31.4905C38.9916 31.7154 39.6678 32.1652 39.217 32.3902C36.7378 33.5148 36.9631 35.3143 35.1601 36.4389C35.1601 36.6639 35.3854 36.6639 35.3854 36.6639C34.7093 37.3387 33.5824 38.4633 33.1316 39.8129C32.0047 40.4877 30.8777 42.0622 29.7508 43.4118C28.6239 44.9864 27.2716 46.3359 25.6939 47.0107C25.6939 47.4606 25.6939 47.9105 25.6939 48.3603C23.6654 49.485 22.0877 52.859 19.1577 54.4335C19.1577 56.008 17.1293 56.2329 16.6785 57.3576C16.4531 57.1327 16.6785 57.1327 16.4531 56.9077C16.2277 57.8075 15.1008 57.5825 15.5516 58.2573C15.1008 58.0324 14.65 57.8075 14.4246 58.2573C14.8754 58.7072 14.65 57.8075 15.3262 58.4823C14.65 58.4823 13.9739 59.1571 12.6216 59.382C12.6216 59.6069 13.2977 59.8319 12.6216 60.0568C11.9454 58.9321 11.9454 60.0568 11.4946 59.1571C11.9454 60.0568 11.0439 60.0568 10.1423 59.382C10.8185 59.382 9.24078 58.4823 10.1423 58.2573C9.24078 57.5825 9.91694 59.382 10.5931 60.0568C10.1423 60.2817 9.46617 59.382 9.91694 59.1571C9.0154 58.7072 9.69155 59.8319 9.46617 59.8319C9.91694 60.5067 9.0154 59.382 9.46617 59.382C9.0154 58.9321 8.79001 59.382 8.11386 58.7072C7.66309 58.2573 7.66309 58.0324 7.21232 57.5825C7.4377 57.1327 7.88847 58.0324 8.11386 57.5825C7.4377 57.3576 7.21232 57.1327 6.31078 56.008C6.98693 56.2329 6.53616 56.008 7.21232 56.2329C6.53616 56.008 6.98693 55.5582 6.31078 55.1083C6.76155 56.2329 5.86001 55.5582 6.31078 56.2329C5.86001 56.4579 5.86001 55.3332 5.63462 55.5581C5.18385 55.1083 5.86001 55.1083 5.86001 54.8834C5.63462 54.6584 5.18385 54.2086 4.95847 54.2086C5.86001 55.1083 4.73308 53.9836 4.5077 54.8834C4.05693 54.4335 3.60616 53.0839 4.5077 53.7587C4.5077 53.5338 4.28231 53.3088 4.28231 53.3088C4.05693 53.3088 3.60616 53.3088 2.93 53.0839C2.70462 52.634 2.93 52.634 2.93 52.4091C3.83154 53.3088 3.83154 52.859 3.83154 52.634C3.15539 52.634 2.70462 51.9592 1.57769 51.7343C1.12692 50.8346 0.90154 49.9349 1.80308 50.6097C1.80308 50.3847 1.57769 50.3847 1.12692 50.1598C1.57769 50.3847 1.12692 49.485 1.80308 50.3847C2.02846 50.1598 1.57769 49.7099 1.12692 49.9349C1.80308 49.9349 1.57769 49.0351 2.70462 49.2601C2.02846 48.5853 3.60616 48.8102 3.60616 48.1354C1.80308 47.9105 2.02846 49.485 0.225385 49.7099C0 49.485 0.225385 49.485 0 49.2601L0.225385 49.0351C0.676155 49.7099 1.35231 47.6855 2.70462 47.4606V47.2357C2.93 47.2357 2.93 47.2357 2.93 47.2357C3.15539 47.0107 3.83154 47.0107 3.83154 46.5609C3.83154 46.3359 4.5077 45.8861 4.5077 45.8861C4.5077 45.4362 4.73308 45.6612 4.73308 45.4362C4.73308 45.2113 5.63462 44.3116 6.08539 44.0866C6.08539 44.0866 6.53616 43.6368 6.98693 43.4118C9.24078 42.737 11.4946 38.0135 12.6216 37.7885C13.2977 37.7885 12.6216 38.2384 12.8469 37.5636C12.8469 36.8888 14.4246 36.4389 14.65 35.9891C14.4246 35.0894 15.7769 35.0894 16.2277 34.6395C16.6785 34.1896 16.4531 33.2899 16.6785 33.065C16.9039 33.065 17.3546 33.2899 17.58 33.2899C17.8054 33.065 17.1293 32.1652 17.8054 32.1652C18.707 32.1652 17.8054 32.6151 18.0308 31.9403C18.2562 30.8157 19.3831 30.5907 20.2846 29.691C21.4116 28.3414 22.3131 26.542 23.6654 25.1924C24.1162 25.1924 24.3416 25.8672 24.567 25.6422C24.567 24.9674 23.8908 25.1924 23.8908 24.9674C23.8908 24.5176 25.4685 25.6422 25.0177 24.9674C25.0177 24.9674 24.7923 24.9674 24.567 24.9674C25.0177 22.943 26.8208 21.3685 28.1731 20.0189C28.1731 20.0189 27.9477 20.2439 28.1731 20.4688C28.3985 20.2439 27.7224 19.794 27.9477 19.5691C30.8777 16.42 32.9062 13.7208 34.7093 11.2466C34.9347 11.9214 35.8362 12.1463 35.6108 11.4715C35.6108 11.4715 35.3854 11.6965 35.1601 11.4715C35.8362 9.67207 37.8647 7.19782 40.1185 4.04877L39.8931 3.82384C40.5693 2.92411 42.8231 0.899728 43.2739 0.674796C43.4993 0.674796 43.9501 0.449864 44.4008 0Z" fill="#FFCA42"/>
</svg>
