<svg width="111" height="129" viewBox="0 0 111 129" fill="none" xmlns="http://www.w3.org/2000/svg">
<g id="Group">
<g id="Group_2">
<path id="Vector" opacity="0.75" fill-rule="evenodd" clip-rule="evenodd" d="M17.6349 16.3238C17.6349 12.1761 17.404 7.79784 17.8658 4.57178C18.0967 4.57178 18.0967 4.34135 18.3276 4.34135C18.0967 2.72832 18.3276 1.80659 18.5585 0.193563C19.9438 -0.497734 21.3292 0.884862 22.7146 0.884862C27.7943 1.57616 36.5684 0.654428 42.5717 0.654428C42.8026 2.26746 44.8807 -0.728167 45.5734 1.34573C46.497 0.423996 48.1132 1.34573 49.0368 1.34573C49.0368 1.34573 49.9604 0.193563 49.7295 1.34573C50.1913 1.34573 50.1913 0.423996 50.6531 0.884862C53.193 2.26746 54.8093 0.884861 56.8873 1.57616C57.1182 1.57616 56.8873 1.34573 56.8873 1.34573C58.0418 1.57616 59.6581 1.57616 61.0435 1.11529C62.4289 1.57616 64.276 1.34573 66.3541 1.34573C68.4322 1.11529 70.5102 1.11529 72.1265 1.80659C72.5883 1.57616 72.8192 1.11529 73.0501 0.884862C75.3591 1.80659 79.0534 0.193564 82.5169 1.11529C83.4405 -0.036869 85.2876 1.34573 86.673 0.423996C86.673 0.654428 86.673 0.654429 86.673 0.884862C87.3657 0.423996 88.0584 1.11529 88.2893 0.423996C88.5202 0.654428 88.7511 1.34573 89.2129 1.11529C89.2129 0.423996 88.7511 1.34573 88.7511 0.423996C89.4438 0.654428 90.5983 0.423996 91.7527 1.11529C91.7527 0.884861 91.5219 0.423996 92.2146 0.423996C91.9837 1.57616 92.6763 0.884861 92.6763 1.80659C92.9072 0.884861 93.8308 1.34573 94.0617 2.49789C93.369 2.03702 94.0617 3.88048 93.369 3.41962C93.8308 4.34135 94.0617 2.72832 93.8308 1.57616C94.2926 1.80659 94.2926 3.18919 93.8308 2.95875C94.2926 3.88048 94.2926 2.49789 94.7544 2.49789C94.7544 1.57616 94.9853 3.18919 94.5235 2.72832C94.7544 3.41962 95.2162 3.18919 95.4471 4.11092C95.678 4.80221 95.4471 5.03265 95.4471 5.49351C94.9853 5.72395 94.9853 4.80221 94.7544 5.03265C95.2162 5.49351 95.2162 5.95438 95.4471 7.33697C94.9853 6.64568 94.9853 7.33697 94.5235 6.64568C94.9853 7.10654 94.2926 7.33697 94.5235 8.02827C94.7544 6.87611 95.2162 8.02827 95.4471 7.10654C96.1398 7.33697 95.2162 8.2587 95.678 8.2587C95.9089 8.95 95.2162 8.48914 94.9853 8.71957C94.9853 9.18043 95.2162 9.87173 95.4471 9.87173C95.2162 8.48914 95.678 10.1022 96.3707 9.41087C96.6016 10.1022 96.1398 11.4848 95.678 10.3326C95.4471 10.3326 95.678 10.7935 95.4471 11.0239C95.678 11.0239 96.1398 11.4848 96.6016 11.9456C96.6016 12.4065 96.1398 12.4065 96.1398 12.6369C95.9089 11.4848 95.4471 11.4848 95.2162 11.9456C95.9089 12.1761 95.678 13.0978 96.8325 14.0195C96.6016 14.9412 96.1398 15.863 95.9089 14.7108C95.678 14.9412 96.1398 14.9412 96.1398 15.6325C95.9089 15.1717 95.4471 16.3238 95.678 15.1717C95.4471 15.4021 95.4471 15.863 95.9089 16.0934C95.2162 15.863 94.7544 16.5543 93.8308 15.863C94.0617 16.7847 92.6763 15.6325 91.9836 16.3238C93.5999 17.476 94.5235 16.0934 96.6016 17.0151C96.6016 17.2456 96.3707 17.2456 96.3707 17.7064H96.1398C96.1398 16.7847 93.8308 18.1673 92.4454 17.7064V17.9369C92.4454 17.7064 92.2146 17.7064 92.2146 17.7064C91.7528 17.7064 91.0601 17.476 90.8292 17.7064L89.6747 17.9369C89.2129 18.3977 89.2129 17.9369 88.982 18.1673C88.7511 18.1673 88.2893 18.3977 87.8275 18.3977C87.3657 18.3977 86.9039 18.3977 86.673 18.3977C86.673 18.3977 85.9803 18.3977 85.2876 18.3977C82.7478 17.2456 76.5136 19.7803 75.3591 18.8586C74.6664 18.3977 75.8209 18.3977 75.1282 18.8586C74.4355 19.3195 72.8192 18.6282 72.3574 18.6282C71.6647 19.3195 70.5102 18.3977 69.8176 18.3977C69.1249 18.3977 68.4322 19.3195 67.9704 19.089C67.7395 19.089 67.7395 18.3977 67.5086 18.1673C67.2777 18.1673 66.585 19.3195 66.3541 18.6282C65.6614 17.9369 66.8159 18.1673 66.1232 18.6282C64.9687 19.3195 63.8142 18.3977 62.4289 18.3977C60.5817 18.3977 58.0418 18.8586 55.502 18.6282C55.2711 18.1673 55.7329 17.7064 55.2711 17.476C54.8093 17.9369 55.502 18.1673 55.2711 18.6282C54.8093 18.8586 54.8093 17.0151 54.5784 17.7064C54.8093 17.7064 54.8093 17.9369 54.8093 17.9369C52.5003 18.8586 49.7295 18.3977 47.6515 17.9369C47.6515 17.9369 47.8824 17.9369 47.8824 17.7064C47.4206 17.476 47.4206 18.3977 47.1897 18.6282C42.3408 18.1673 38.1847 17.9369 34.7212 18.1673C35.183 17.7064 34.7212 16.7847 34.4903 17.2456C34.4903 17.2456 34.7212 17.2456 34.7212 17.476C32.6432 18.1673 28.9488 17.9369 24.5618 17.7064V17.9369C22.9455 17.9369 19.7129 17.476 19.2511 17.0151C19.0202 16.7847 18.3276 16.5543 17.6349 16.3238Z" fill="#FFCA42"/>
</g>
<g id="Group_3">
<path id="Vector_2" opacity="0.75" fill-rule="evenodd" clip-rule="evenodd" d="M88.982 0.423786C90.5983 4.34114 91.9837 8.48893 92.6764 11.715C92.4455 11.715 92.4455 11.9454 92.4455 12.1758C93.1382 13.5584 93.3691 14.4802 93.5999 16.0932C92.6764 17.2454 91.0601 16.5541 89.6747 16.7845C88.5202 17.2454 87.1348 17.7062 85.7495 18.3975C84.3641 19.0888 82.7478 20.0106 81.3624 20.9323C78.3608 22.7757 75.3591 24.8496 73.0501 26.4627C71.8956 25.0801 71.8957 28.767 70.2794 27.6148C70.0485 28.9974 68.2013 28.9974 67.2777 29.4583C67.2777 29.4583 67.2777 30.8409 66.8159 29.9192C66.3541 30.1496 67.0468 30.8409 66.3541 30.8409C63.5834 31.3017 62.8907 33.3756 60.8126 34.0669C60.8126 34.2974 60.8126 34.2974 61.0435 34.2974C59.889 34.7582 58.5036 35.9104 57.8109 37.0626C56.4256 37.5234 54.8093 38.906 53.193 40.2886C51.5767 41.6712 49.7295 43.0538 48.1133 43.5147C47.8824 43.9755 47.8824 44.4364 47.8824 44.8973C45.3425 45.819 43.0335 49.2755 39.5701 50.6581C39.3392 52.2711 37.0302 52.2711 36.3375 53.6537C36.1066 53.4233 36.3375 53.4233 36.1066 53.1928C35.6448 54.1146 34.7213 53.8841 34.9522 54.5754C34.4904 54.345 34.0286 54.1146 33.7977 54.5754C34.2595 55.0363 34.2595 54.1146 34.7213 54.8059C33.7977 55.0363 32.8741 55.958 31.7196 55.958C31.7196 56.1885 32.4123 56.4189 31.7196 56.6493C31.2578 55.4972 31.0269 56.6493 30.5651 55.7276C30.796 56.6493 29.8724 56.6493 28.9488 55.958C29.8724 55.958 28.2562 54.8059 28.9488 54.8059C28.0253 54.1146 28.7179 55.958 29.4106 56.6493C28.9488 56.8798 28.2562 55.7276 28.7179 55.4972C27.7944 55.0363 28.487 56.1885 28.2561 56.4189C28.7179 57.1102 27.7944 55.958 28.2561 55.958C27.7944 55.4972 27.3326 55.958 26.8708 55.2667C26.409 54.8059 26.409 54.5754 26.1781 54.1146C26.409 53.6537 26.8708 54.5754 27.1017 54.1146C26.409 53.8841 26.1781 53.6537 25.2545 52.5016C25.9472 52.732 25.7163 52.5015 26.409 52.732C25.7163 52.5015 26.1781 52.0407 25.7163 51.5798C26.1781 52.732 25.0236 52.0407 25.4854 52.9624C24.7927 53.1928 25.0236 51.8103 24.7927 52.2711C24.3309 51.8103 25.2545 51.8102 25.2545 51.5798C25.0236 51.3494 24.5618 50.6581 24.3309 50.8885C25.2545 52.0407 24.1 50.6581 23.8691 51.8103C23.4073 51.3494 22.9455 49.7364 23.8691 50.6581C23.8691 50.4277 23.6382 50.1972 23.6382 49.9668C23.4073 49.9668 22.7146 49.9668 22.0219 49.7364C21.791 49.2755 22.0219 49.0451 22.2528 48.8146C23.1764 49.7364 23.4073 49.2755 23.4073 49.0451C22.4837 49.2755 22.2528 48.3538 21.0983 48.1233C20.8675 47.2016 20.6365 46.0494 21.5601 46.9712C21.5601 46.7407 21.3292 46.7407 21.0983 46.2799C21.5601 46.5103 21.3293 45.3581 21.791 46.5103C22.0219 46.2799 21.5601 45.819 21.3292 45.819C22.0219 45.819 22.0219 44.6668 23.1764 44.8973C22.4837 44.206 24.1 44.4364 24.3309 43.5147C22.4837 43.2842 22.2528 45.1277 20.1748 45.3581C19.9439 45.1277 20.1748 45.1277 19.9439 44.6668L20.1748 44.4364C20.6365 45.3581 21.791 42.8234 23.1764 42.5929V42.3625C23.4073 42.3625 23.4073 42.3625 23.4073 42.3625C23.6382 42.1321 24.5618 41.9017 24.7927 41.6712C24.7927 41.4408 25.7163 40.9799 25.7163 40.9799C25.9472 40.5191 25.9472 40.7495 26.1781 40.5191C26.409 40.2886 27.5635 39.1365 27.7944 39.1365C27.7944 39.1365 28.487 38.6756 28.9488 38.4452C31.7196 37.7539 35.6448 32.2235 37.0302 32.2235C37.7229 32.2235 37.0302 32.9148 37.2611 31.993C37.492 31.3017 39.3392 30.8409 39.801 30.38C39.801 29.4583 41.4173 29.4583 42.11 28.9974C42.5717 28.5366 42.8026 27.6148 43.2644 27.3844C43.4953 27.3844 43.9571 27.8453 44.188 27.8453C44.4189 27.6148 44.188 26.4627 44.8807 26.6931C45.8043 26.9235 44.8807 27.154 45.1116 26.4627C45.5734 25.3105 47.1897 25.3105 48.3442 24.3888C49.9605 23.2366 51.8076 21.3932 54.1166 20.0106C54.5784 20.0106 54.5784 20.9323 54.8093 20.7019C55.0402 20.0106 54.1166 20.241 54.3475 19.7801C54.5784 19.3193 55.7329 20.7019 55.502 20.0106C55.2711 20.0106 55.2711 20.0106 55.0402 20.0106C56.4256 17.7062 59.1963 16.5541 61.2744 15.6323C61.2744 15.6323 61.0435 15.8628 61.2744 16.0932C61.7362 15.8628 61.2744 15.1715 61.5053 14.941C66.1232 12.4063 69.8176 10.102 73.0501 8.02806C72.8192 8.71936 73.7428 9.41066 73.7428 8.48893C73.5119 8.48893 73.5119 8.71936 73.281 8.48893C74.8973 6.8759 78.5917 4.80201 83.2096 2.95854V2.72811C83.9023 2.26725 85.2877 1.80638 86.4422 1.57595C87.5966 1.34552 88.7511 1.11508 88.982 1.11508C87.5966 0.423787 88.2893 0.423786 88.982 0.423786Z" fill="#FFCA42"/>
</g>
<g id="Group_4">
<path id="Vector_3" opacity="0.75" fill-rule="evenodd" clip-rule="evenodd" d="M26.8706 60.1061C23.6381 57.1105 20.1746 54.5757 18.7892 51.3497C19.4819 50.8888 19.251 50.6584 19.7128 50.428C18.0965 49.7367 17.8656 48.8149 17.4038 46.9715C17.8656 46.5106 18.3274 46.0497 18.7892 45.5889C19.251 45.128 19.7128 44.8976 20.4055 44.4367C21.56 43.7454 22.7145 43.0541 23.8689 42.5932C25.0234 42.1324 26.1779 41.6715 27.3324 41.2106C28.4869 40.7498 29.6414 40.5194 30.7959 40.0585C34.952 38.6759 39.8008 37.2933 45.3424 36.3716C50.653 35.4498 56.6563 35.2194 62.6596 35.6803C68.6629 36.1411 74.6662 37.2933 80.4387 39.3672C86.2111 41.2107 91.2908 44.2063 95.6779 47.6628C95.6779 48.1236 95.9087 48.5845 96.6014 49.2758C97.2941 49.7367 98.2177 50.428 99.1413 51.1193C100.065 51.8106 100.988 52.7323 101.912 53.654C102.605 54.5757 103.067 55.4975 103.067 56.4192C103.759 56.8801 104.452 57.8018 105.145 58.7235C105.376 59.1844 105.837 59.6453 106.068 60.3366C106.299 60.7974 106.53 61.4887 106.761 62.18C107.684 64.4843 108.146 67.2495 108.839 68.8626C108.839 69.093 110.686 72.0886 109.301 71.3973C109.532 73.0104 110.455 72.5495 110.224 74.8538C110.224 77.3886 109.763 79.6929 109.532 81.7668C109.301 82.6885 109.301 83.8407 109.07 84.7624C108.839 85.6841 108.839 86.6059 108.608 87.5276C107.915 91.2145 106.761 94.2101 104.914 97.6666C104.683 98.1275 105.145 97.8971 105.145 97.6666C103.528 101.354 100.065 106.654 97.2941 110.34C96.3705 111.262 95.447 112.184 94.2925 113.106C93.8307 113.566 93.138 114.027 92.4453 114.719C91.7526 115.18 91.0599 115.64 90.5981 116.332C87.8274 118.636 84.5948 120.479 81.3623 122.323C74.4353 125.779 66.8158 127.392 61.2742 127.162C59.8889 127.392 58.9653 127.853 57.8108 128.084C53.6546 127.853 48.1131 127.623 42.3407 126.471C36.5683 125.319 30.565 123.245 25.4852 120.019C24.3308 119.788 23.4072 119.327 22.2527 118.636C21.7909 118.406 21.0982 117.945 20.6364 117.714C20.1746 117.253 19.4819 117.023 19.0201 116.562C17.8656 115.871 16.942 114.949 15.7876 114.027C14.864 113.106 13.7095 112.414 12.7859 111.723C13.0168 111.493 13.2477 111.723 13.4786 111.493C12.3241 110.571 11.4005 109.649 10.7078 108.958C10.0151 108.036 9.55335 107.575 8.86066 107.575C8.62976 106.654 8.62976 105.962 7.47528 104.81C7.01349 105.271 8.86067 106.423 7.93709 106.423C7.24439 105.271 6.0899 103.888 5.16631 102.275C4.24273 100.662 3.31914 99.0492 2.62645 97.2058C2.16466 96.9753 2.16466 97.8971 1.24107 95.8232C2.85735 96.284 0.779285 93.9797 2.16467 94.671C0.779285 93.9797 0.317491 91.2145 1.01018 90.0624C1.47198 92.3667 2.39555 90.0624 2.85735 92.1363C3.55004 90.9841 1.01018 89.8319 0.0865909 90.0624C-0.375203 88.2189 1.24107 88.6798 1.70286 90.2928C2.16465 88.9102 0.779278 88.4493 0.317484 87.5276C-0.606103 87.2972 0.779271 86.8363 0.779271 88.2189C1.24106 87.5276 0.779278 86.3754 1.47197 85.9146C2.16466 85.6841 2.39555 86.145 3.08824 86.145C3.78093 87.2972 2.62646 87.2972 3.31915 88.4493C3.55005 87.5276 3.78093 87.0667 5.39721 86.8363C4.93541 87.758 5.6281 87.9885 5.39721 89.1406C5.6281 87.9885 6.3208 89.6015 7.01349 89.1406C5.39722 88.4493 6.3208 87.0667 5.16631 86.6059C4.93542 84.9928 6.5517 87.5276 6.0899 86.145C6.5517 85.9146 6.7826 87.758 7.01349 88.2189C7.47529 87.9885 7.93709 87.9885 7.93709 87.2972C6.5517 87.758 8.16798 86.8363 6.7826 84.7624C7.47529 84.3015 9.32246 85.9146 8.39887 86.6059C8.62977 87.0667 8.86067 86.6059 9.09157 87.0667C8.86067 86.6059 8.86067 85.2233 9.32246 84.0711C9.78426 84.3015 10.0152 84.9928 10.4769 85.4537C9.32246 86.145 9.78426 86.8363 10.4769 87.5276C10.246 86.6059 10.4769 86.3754 10.7078 85.9146C10.9387 85.4537 11.1696 84.9928 11.4005 83.8407C12.555 84.3015 13.7095 85.2233 12.7859 86.145C13.0168 86.6059 13.0168 85.9146 13.4786 85.6841C13.2477 86.3754 14.6331 87.0667 13.4786 86.8363C13.9404 87.5276 14.4022 87.0667 14.1713 86.3754C14.4022 87.9885 15.7876 88.9102 15.7876 90.7537C16.2494 90.5232 16.4803 90.9841 16.7112 91.9058C16.942 92.3667 17.173 92.8276 17.4038 93.2884C17.6347 93.7493 18.0965 93.9797 18.3274 94.4406C18.3274 93.9797 18.0965 93.7493 17.8656 93.2884C17.6347 92.8276 17.6347 92.5971 17.4038 92.1363C17.173 91.445 16.7112 90.7537 16.2494 90.0624C15.7876 89.3711 15.5567 88.6798 15.0949 87.758C14.864 86.8363 14.6331 85.9146 14.4022 84.9928C14.6331 84.9928 14.864 85.4537 15.0949 85.2233L15.3258 85.6841C15.0949 85.6841 15.0949 85.9146 15.3258 86.3754C15.5567 86.8363 15.7876 87.5276 16.2494 88.2189C16.7112 88.9102 17.1729 89.8319 17.6347 90.5232C18.0965 91.2145 18.5583 92.1363 18.7892 92.8276H19.0201C19.0201 93.058 19.0201 93.2884 19.251 93.5188C19.4819 93.7493 19.7128 94.4406 20.1746 94.9014C20.6364 95.3623 20.8673 95.8232 21.0982 96.0536C21.3291 96.0536 21.56 96.5145 22.0218 96.9753C22.4836 97.4362 22.9454 97.8971 22.9454 97.8971C23.869 98.3579 23.6381 98.5884 24.0999 98.8188C24.3308 99.0492 25.2543 99.7405 26.1779 100.432C27.1015 101.123 28.0251 101.814 28.256 102.045C28.256 102.045 28.7178 102.275 29.1796 102.736C29.6414 102.967 30.3341 103.427 30.7959 103.888C31.2576 104.349 32.1812 104.81 32.8739 105.501C33.3357 105.732 33.7975 105.962 34.2593 106.193C34.7211 106.423 35.1829 106.654 35.8756 106.884C37.9537 107.806 40.4935 108.497 43.0334 108.958C47.8822 109.88 52.5002 109.88 53.8855 110.34C55.5018 110.801 52.7311 110.801 54.5782 110.34C55.5018 110.11 56.8872 110.11 58.0417 110.34C59.4271 110.34 60.5815 110.34 61.2742 110.34C61.9669 109.88 63.1214 109.649 64.2759 109.649C65.4304 109.649 66.5849 109.419 67.5084 109.188C68.2011 108.958 69.1247 108.497 69.5865 108.036C70.2792 107.575 70.741 107.345 71.2028 107.114C71.4337 107.114 72.1264 107.575 72.5882 107.345C73.2809 107.114 73.9736 105.501 74.8972 105.501C76.5134 105.501 74.2045 106.193 75.5898 105.271C76.0516 104.81 76.5134 104.349 77.2061 103.888C77.437 103.658 77.8988 103.427 78.1297 103.427C78.3606 103.197 78.5915 102.967 79.0533 102.967C79.746 102.506 80.2078 102.275 80.9005 101.814C81.3623 101.354 82.0549 100.893 82.7476 100.432C85.9802 97.2058 88.7509 92.1363 90.829 86.6059C91.5217 85.9146 91.7526 87.2972 91.9835 86.6059C91.9835 85.2233 91.0599 86.8363 91.0599 86.145C91.0599 85.2233 92.9071 85.4537 92.2144 84.7624C92.2144 84.9928 91.9835 84.9928 91.7526 85.4537C91.7526 84.7624 91.9835 84.0711 91.9835 83.3798C91.9835 82.6885 91.9835 81.9972 92.2144 81.3059L92.4453 80.1538V79.232C92.4453 78.5407 92.4453 77.8494 92.4453 77.1581C92.4453 74.6234 91.9835 72.0886 91.2908 69.7843C91.5217 70.0147 91.5217 70.2452 91.7526 70.2452C91.5217 69.3234 90.829 69.7843 90.3672 69.3234C89.4436 67.0191 88.0583 64.9452 86.2111 63.1017C84.5948 61.2583 82.5167 59.6453 80.4387 58.4931C76.2825 55.9583 71.6646 54.3453 67.2776 53.4236C68.432 53.1931 67.5084 52.041 66.5849 52.5019C66.8158 52.7323 67.2776 52.7323 67.2776 52.9627C64.5068 52.7323 60.8124 52.2714 56.4254 52.2714C52.0384 52.2714 46.7277 52.5018 41.4171 53.8844V54.1149C39.5699 54.8062 36.5683 55.4975 34.2593 56.4192C31.7194 57.3409 29.8723 58.2627 29.1796 58.4931C28.7178 58.7235 28.256 58.7235 27.7942 59.1844C28.0251 59.4148 27.3324 59.6453 26.8706 60.1061Z" fill="#FFCA42"/>
</g>
</g>
</svg>
