<svg width="393" height="342" viewBox="0 0 393 342" fill="none" xmlns="http://www.w3.org/2000/svg">
<path opacity="0.75" d="M236.757 34.7435C239.691 35.1428 243.107 36.5214 242.056 37.043C241.071 37.8226 242.702 39.623 243.888 41.5288C245.074 43.4346 242.521 42.6719 242.973 44.4778C243.425 46.2838 244.417 47.4157 243.496 48.4533C242.575 49.4909 243.502 50.3647 243.89 51.9127C244.342 53.7187 241.725 52.6979 241.191 55.2835C240.781 56.4736 241.708 57.3474 242.987 58.6845C244.044 60.0744 243.921 61.4698 241.85 61.6863C239.778 61.9028 237.584 63.5147 234.239 64.3055C230.895 65.0964 207.447 69.5474 201.556 71.4869C195.665 73.4263 185.321 78.3317 182.774 79.4803C180.069 80.9397 152.575 95.6388 136.1 107.186C119.624 118.733 94.7366 141.014 85.1798 152.838C75.6231 164.662 55.2197 193.534 47.876 209.481C40.5968 225.685 33.8158 238.22 32.2694 252.795C30.7876 267.629 30.5164 292.015 33.1232 299.596C33.1232 299.596 31.2394 298.675 28.3804 291.973C25.5214 285.271 19.1389 263.552 17.8512 249.919C16.599 237.372 19.598 208.789 30.749 187.297C41.9 165.804 52.13 145.349 69.2491 125.998C86.3682 106.648 96.0542 95.3394 117.968 80.0468C139.818 64.4963 143.256 63.1367 144.781 61.683C146.307 60.2292 147.134 59.7603 148.918 59.3385C150.702 58.9168 151.494 57.3632 152.925 56.4781C154.421 55.8511 171.953 45.6938 191.827 40.1749C211.924 34.6033 229.422 33.7451 236.757 34.7435Z" fill="#79A5DB" fill-opacity="0.42"/>
<path opacity="0.75" d="M132.049 115.274C130.636 116.987 129.457 119.483 130.301 119.236C131.24 119.164 131.258 120.986 131.574 122.638C131.891 124.291 132.909 122.572 133.579 123.797C134.248 125.021 134.278 126.149 135.313 126.252C136.348 126.355 136.282 127.308 136.857 128.357C137.526 129.582 138.448 127.688 140.058 128.84C140.889 129.287 140.823 130.24 140.799 131.627C140.924 132.93 141.702 133.636 142.953 132.701C144.204 131.767 146.232 131.538 148.476 130.272C150.72 129.005 165.897 119.526 170.128 117.597C174.358 115.667 182.55 113.105 184.537 112.442C186.769 111.87 209.388 105.975 224.336 103.951C239.283 101.927 264.324 101.533 275.603 103.182C286.881 104.831 312.807 110.348 324.964 115.393C337.217 120.613 347.329 124.065 355.597 131.304C363.96 138.719 376.516 152.009 378.938 157.51C378.938 157.51 379.507 156.044 377.671 150.899C375.836 145.754 368.3 130.546 362.073 122.384C356.378 114.838 340.184 100.624 323.108 94.4628C306.032 88.3014 289.992 82.2427 270.719 80.297C251.447 78.3513 240.359 77.0525 220.511 79.7813C200.568 82.3351 197.983 83.3359 196.403 83.3115C194.823 83.2871 194.129 83.4498 192.932 84.1251C191.735 84.8005 190.509 84.3479 189.27 84.5889C188.127 85.0049 173.305 88.3317 159.554 95.4044C145.652 102.561 135.58 110.992 132.049 115.274Z" fill="#79A5DB" fill-opacity="0.42"/>
<path opacity="0.75" d="M372.886 105.529C371.035 101.476 368.793 95.0208 364.814 89.9741C360.835 84.9274 347.299 73.4088 338.844 69.67C330.389 65.9312 311.782 60.8507 296.958 58.3683C281.996 56.168 273.223 56.9952 268.451 57.1254C263.68 57.2556 257.864 57.3834 254.927 57.3295C252.048 57.5112 235.466 59.6856 229.571 60.3311C223.873 60.9299 214.567 62.1325 209.893 63.487C205.417 64.7948 188.341 68.3334 185.522 68.7506C182.702 69.1678 175.288 70.4218 171.404 71.5898C167.519 72.7578 160.518 75.6606 156.692 77.0641C152.866 78.4676 132.496 85.5295 127.308 89.0014C122.318 92.4267 119.813 93.2683 116.717 94.2498C113.818 95.1847 111.391 98.0039 110.603 98.1904C109.814 98.3769 96.2837 106.067 92.2995 108.506C88.3152 110.944 75.5314 122.449 68.2706 130.154C60.9509 137.622 54.0439 146.74 50.0763 153.416C46.1087 160.092 43.0495 164.557 40.8124 177.311C38.7134 189.782 39.3971 198.352 40.9672 207.96C42.5374 217.568 43.7518 228.257 46.3282 236.879C48.9045 245.5 51.936 251.769 53.1375 253.231C53.1375 253.231 47.0966 210.752 67.8395 180.151C88.3854 149.597 130.22 123.988 188.157 104.302C246.094 84.6151 312.667 91.0777 328.178 97.1397C328.178 97.1397 329.243 96.3889 324.257 94.8237C319.073 93.3052 312.567 92.3486 312.567 92.3486C312.567 92.3486 316.964 91.5584 327.588 94.7843C338.212 98.0103 345.031 101.887 350.233 105.147C355.18 108.219 361.189 113.035 364.674 119.446C368.1 125.621 371.957 135.187 373.844 142.724C375.731 150.261 375.786 155.487 376.083 154.169C376.38 152.852 377.828 140.285 376.969 128.513C375.913 116.788 374.736 109.582 372.886 105.529ZM293.404 66.6931C286.13 65.1697 280.826 65.6753 278.539 65.7171C276.252 65.7589 275.148 65.521 272.92 65.7983C270.692 66.0756 273.079 64.7629 270.595 64.8514C268.11 64.9398 264.956 65.6857 261.091 66.1005C257.227 66.5153 253.659 65.6126 249.124 66.6849C244.786 67.7106 236.426 67.6913 231.043 68.7146C225.661 69.7379 220.08 70.8078 215.683 71.598C211.286 72.3882 207.698 72.2387 203.557 73.2178C199.614 74.1502 194.172 74.938 197.939 73.2989C199.793 72.3616 207.227 70.3544 210.973 69.4686C214.522 68.6293 222.784 67.4244 225.801 66.9605C228.817 66.4967 265.313 62.1085 271.306 62.6873C277.299 63.2661 297.703 64.6786 306.219 66.1578C314.537 67.6835 320.667 70.4754 320.667 70.4754C320.667 70.4754 300.677 68.2164 293.404 66.6931Z" fill="#79A5DB" fill-opacity="0.42"/>
<path opacity="0.75" d="M371.224 99.6479C370.476 98.2955 367.007 126.896 363.724 135.827C360.442 144.759 344.08 170.036 334.368 180.233C324.656 190.43 292.917 215.52 289.997 217.74C287.271 219.914 284.967 219.694 283.085 221.158C281.203 222.623 282.917 219.669 280.456 221.27C277.995 222.871 258.839 234.537 254.894 236.744C250.95 238.951 236.341 246.738 230.853 249.31C225.364 251.882 184.147 268.509 168.189 272.537C152.038 276.611 123.307 281.875 112.138 282.986C100.969 284.098 85.844 284.106 74.5668 283.969C63.2896 283.832 52.7976 278.667 46.2492 275.373C39.7611 272.32 35.5531 266.943 31.7913 261.716C28.2828 256.684 20.0006 241.566 17.6511 232.182C17.6511 232.182 16.0326 241.23 19.008 255.564C21.9835 269.897 29.4671 294.888 40.1632 303.318C50.8594 311.748 72.1812 320.978 98.4872 319.091C124.6 317.249 153.018 311.55 157.65 310.454C162.282 309.359 176.503 305.742 179.398 305.057C182.292 304.373 184.162 303.676 186.418 302.888C188.673 302.1 188.119 300.701 186.961 300.975C185.803 301.249 186.249 301.398 184.573 302.05C182.896 302.701 182.244 303.365 181.159 303.112C180.074 302.859 179.495 302.996 178.397 303.51C177.299 304.024 176.66 303.921 175.116 304.286C173.572 304.651 173.958 304.559 172.281 305.211C170.605 305.862 169.664 304.555 169.664 304.555C169.664 304.555 170.895 303.755 172.439 303.39C173.983 303.025 181.702 301.199 183.186 300.594C184.477 300.034 186.407 299.577 187.818 299.498C189.229 299.42 190.713 298.814 191.871 298.54C193.028 298.266 192.414 296.628 193.572 296.354C194.73 296.08 194.271 296.698 195.815 296.333C197.359 295.968 199.108 294.79 200.459 294.47C201.81 294.151 203.138 291.289 205.067 290.832C206.997 290.376 207.975 289.38 208.662 290.492C209.349 291.604 209.868 291.226 209.687 290.505C209.506 289.783 209.085 288.098 210.375 287.538C211.666 286.978 213.21 286.613 214.826 285.721C216.443 284.829 220.255 282.909 221.606 282.589C222.956 282.27 224.295 282.718 224.295 282.718C224.295 282.718 219.784 284.294 217.974 285.232C216.165 286.169 213.511 287.816 215.055 287.451C216.599 287.086 218.529 286.63 219.687 286.356C220.845 286.082 221.351 286.472 222.775 285.626C224.198 284.78 224.596 283.921 226.466 283.224C228.336 282.527 228.541 281.714 230.471 281.258C232.401 280.801 233.173 280.619 233.945 280.436C234.717 280.254 236.779 279.511 238.07 278.951C239.361 278.391 239.253 277.142 240.543 276.582C241.834 276.022 245.766 274.583 247.057 274.023C248.348 273.463 250.29 272.239 251.52 271.438C252.751 270.638 254.886 269.368 256.37 268.762C257.853 268.157 257.455 269.016 259.578 268.514C261.701 268.012 262.521 268.837 265.38 266.377C268.239 263.917 267.6 263.813 269.096 262.44C270.592 261.067 273.825 259.283 276.02 258.254C278.215 257.226 279 256.276 280.158 256.002C281.316 255.728 282.087 255.545 281.654 254.629C281.22 253.712 282.137 252.475 282.956 253.301C283.776 254.127 285.067 253.567 285.067 253.567C286.949 252.102 288.903 250.111 290.061 249.837C291.219 249.563 291.871 248.9 293.946 247.389C296.021 245.879 296.021 245.879 297.311 245.319C298.602 244.759 297.746 242.158 299.363 241.266C300.979 240.374 304.079 238.877 305.768 237.458C307.457 236.039 308.868 235.96 310.557 234.542C312.246 233.123 312.355 234.372 307.758 237.242C303.162 240.113 303.21 241.121 304.887 240.47C306.564 239.819 308.458 237.587 310.979 236.226C313.5 234.865 314.152 234.201 314.743 233.297C315.334 232.393 314.321 231.613 315.877 230.48C317.434 229.348 320.1 226.933 321.656 225.801C323.212 224.668 326.179 223.457 327.482 222.129C328.785 220.802 330.788 219.819 331.898 218.537C333.008 217.255 334.636 215.595 333.864 215.778C333.093 215.96 330.945 217.997 329.063 219.462C327.181 220.926 325.577 221.051 325.577 221.051C325.577 221.051 327.531 219.059 329.474 217.836C331.416 216.612 331.754 215.512 333.31 214.38C334.866 213.247 335.723 211.77 335.144 211.907C334.565 212.044 331.791 213.21 333.094 211.882C334.396 210.555 336.146 209.377 338.16 207.626C340.175 205.875 342.094 202.109 342.094 202.109C342.094 202.109 342.781 203.22 341.791 204.983C340.802 206.747 340.078 207.937 341.827 206.759C343.576 205.581 342.792 206.531 344.554 204.585C346.315 202.64 349.114 199.939 351.527 197.33C353.94 194.72 354.519 194.583 355.375 193.106C356.232 191.629 356.739 192.019 356.232 191.629C355.726 191.239 354.833 190.941 354.833 190.941C356.655 189.236 356.872 187.655 358.236 186.568C359.599 185.481 360.951 181.084 362.194 179.516C363.436 177.948 365.716 175.624 366.38 174.193C367.044 172.762 367.768 171.571 368.89 169.522C370.012 167.473 371.57 162.262 372.173 160.59C372.777 158.918 373.392 156.479 373.55 154.658C373.707 152.837 375.071 147.672 375.254 140.237C377.306 132.106 376.167 107.144 371.224 99.6479ZM325.788 199.847C318.501 206.668 308.295 215.707 305.894 217.549C303.686 219.345 294.121 224.411 290.091 227.912C286.002 231.173 273.722 237.644 269.511 240.424C265.301 243.203 239.378 257.233 230.802 260.536C222.225 263.838 198.04 273.379 193.215 274.52C188.584 275.615 185.05 276.196 183.373 276.847C181.696 277.499 179.175 278.859 176.666 279.453C174.157 280.046 173.373 280.996 171.443 281.452C169.32 281.954 167.776 282.319 165.653 282.821C163.531 283.323 105.923 294.905 95.2617 292.329C93.537 291.972 130.132 287.907 133.087 287.463C136.042 287.019 159.755 282.941 166.921 279.718C174.146 276.735 195.628 271.911 200.465 270.002C205.495 268.048 238.607 253.338 242.214 252.23C245.82 251.123 261.044 240.897 266.219 237.889C271.201 234.927 291.624 224.236 297.897 220.714C304.169 217.192 312.446 208.609 318.091 204.216C323.544 199.868 341.918 180.997 345.381 176.865C345.767 176.773 333.207 192.741 325.788 199.847Z" fill="#79A5DB" fill-opacity="0.42"/>
<path opacity="0.75" d="M360.289 109.829C360.289 109.829 346.872 130.764 338.172 141.293C329.695 151.768 302.656 189.041 266.724 206.829C230.792 224.616 201.724 235.861 152.341 244.259C102.957 252.656 77.3947 243.943 67.0068 235.469C56.6189 226.994 42.872 205.103 39.2024 194.22C39.2024 194.22 43.5032 222.717 45.4119 231.284C47.3851 240.108 54.1615 265.287 76.6087 276.649C98.8329 288.063 135.49 287.321 165.152 282.22C194.813 277.12 240.258 263.368 261.956 250.04C283.653 236.711 317.331 211.806 325.274 203.915C333.154 195.767 336.327 191.464 335.277 191.986C334.227 192.507 327.621 200.081 326.095 201.535C324.57 202.989 313.986 212.597 310.043 215.715C306.705 218.417 302.504 220.504 301.677 220.972C302.95 220.398 310.677 214.472 313.411 212.186C316.08 209.642 319.829 205.749 320.592 205.023C321.355 204.296 321.319 203.211 322.369 202.689C323.42 202.168 323.866 202.062 324.405 201.388C324.881 200.456 327.204 199.36 328.125 198.323C329.046 197.285 329.298 196.405 329.615 195.784C329.932 195.163 330.918 194.383 331.17 193.504C331.645 192.571 331.803 192.261 332.854 191.739C333.968 191.475 335.177 190.643 335.429 189.764C335.681 188.884 336.444 188.157 336.89 188.052C337.336 187.947 339.12 187.525 339.595 186.593C339.912 185.971 348.835 175.39 351.563 171.192C354.513 166.942 356.097 163.835 356.572 162.903C357.048 161.971 357.012 160.886 357.458 160.78C358.062 160.364 358.379 159.743 358.315 159.485C358.185 158.969 358.437 158.089 359.042 157.673C359.646 157.257 360.373 155.446 361.476 151.359C362.801 147.22 363.118 146.598 363.151 137.299C363.25 128.258 362.595 113.383 360.289 109.829ZM330.43 162.252C329.732 163.237 328.97 163.964 328.271 164.949C323.191 171.069 310.36 185.853 300.058 193.755C286.575 204.048 266.697 218.039 260.237 221.48C253.777 224.92 252.885 225.131 251.418 224.931C249.951 224.731 250.526 225.142 247.469 226.138C244.412 227.134 241.455 229.473 240.182 230.047C238.909 230.622 225.824 235.902 211.078 240.208C196.11 244.567 172.087 248.607 172.087 248.607C172.087 248.607 210.122 240.161 226.422 233.574C242.945 226.935 248.801 223.91 251.506 222.451C254.21 220.992 273.597 212.582 291.368 197.722C307.614 184.317 320.363 173.924 328.048 165.002C329.668 162.979 330.589 161.941 330.43 162.252Z" fill="#79A5DB" fill-opacity="0.42"/>
</svg>
