<svg width="196" height="156" viewBox="0 0 196 156" fill="none" xmlns="http://www.w3.org/2000/svg">
<g opacity="0.57">
<path opacity="0.75" d="M40.35 132.3C40.7518 134.886 41.0489 135.338 41.8411 137.927C42.6645 140.366 42.3788 142.496 41.5584 143.811C40.738 145.127 39.4423 145.718 38.0588 145.979C36.6754 146.239 36.1972 145.905 34.9977 145.656C33.7981 145.407 31.515 145.481 30.5559 145.204C29.6562 145.017 28.1228 145.246 26.7733 144.966C25.4238 144.686 23.384 144.341 23.2142 142.898C23.0444 141.455 23.0783 140.915 24.0459 140.021C24.954 139.036 25.7744 137.721 25.7828 136.55C25.7913 135.378 26.838 131.842 26.7248 130.88C26.6116 129.918 26.6624 127.035 27.0019 125.776C27.3413 124.517 27.0838 122.743 27.3639 121.394C27.6439 120.044 28.4048 114.493 28.7754 113.084C29.146 111.676 29.9522 108.167 30.17 107.118C30.5377 106.099 31.044 102.529 31.3496 101.81C31.6551 101.092 32.2124 98.783 32.4896 97.8239C32.7357 97.0148 33.0497 95.1249 33.6607 93.6877C34.2718 92.2504 35.078 88.7423 35.6551 87.8454C36.2322 86.9486 36.6367 84.9993 37.1205 84.5522C37.6043 84.1052 38.3031 82.999 38.9085 82.3426C39.5733 81.7768 41.4688 81.3099 43.155 80.7214C44.9317 80.0735 47.7269 79.7933 48.9915 79.3519C50.3155 79.0011 51.665 79.2811 51.8687 80.1836C52.0725 81.0861 51.1021 82.3705 50.7372 82.9986C50.3722 83.6267 48.3919 87.5169 47.9054 88.3543C47.4188 89.1917 44.57 96.8899 43.9505 99.4984C43.331 102.107 43.6508 103.581 42.8982 103.816C42.2956 104.082 42.2617 104.622 42.406 105.434C42.6097 106.337 42.3636 107.146 42.0864 108.105C41.8997 109.004 40.805 115.033 40.7654 116.355C40.8164 117.616 40.4317 120.977 40.3016 122.358C40.1715 123.739 40.743 123.623 40.2253 124.61C39.7076 125.597 40.5705 126.715 40.1433 127.643C40.1066 128.574 40.0897 130.916 40.35 132.3Z" fill="#FFCA42"/>
<path opacity="0.75" d="M88.4486 63.298C87.8799 63.0236 86.4371 63.1934 84.7509 63.7819C83.9701 63.7763 83.1892 63.7706 82.7083 63.8272C81.537 63.8188 77.4432 65.0807 76.5096 65.4344C75.7571 65.6692 75.395 65.9069 75.3922 66.2973C74.7867 66.9537 74.2407 67.7006 73.4231 68.6257C72.1218 69.9979 71.1373 73.2345 70.1218 76.621C69.0157 80.067 65.3299 99.7127 64.9197 102.443C64.5096 105.173 63.4657 108.319 62.9338 107.114C62.3425 105.818 60.4977 99.2573 59.5922 95.7068C59.3008 94.4733 57.1194 88.7811 56.5874 87.5759C56.1461 86.3113 52.9688 81.2727 51.9842 80.3645C50.9996 79.4564 50.3093 79.3914 49.1069 79.5329C47.9045 79.6743 46.4306 79.9941 45.5281 80.1978C44.6256 80.4015 41.4371 81.0693 40.2631 81.4513C39.1795 81.7738 38.7156 83.6326 38.8316 84.2041C38.8316 84.2041 40.051 85.8648 40.9422 87.2227C41.774 88.4902 44.2949 92.9234 44.8297 93.7381C45.3644 94.5529 46.9686 96.9973 47.2884 98.4712C47.6081 99.9452 49.3963 106.025 49.6227 107.949C49.9085 109.963 51.4506 116.852 51.527 118.745C51.6629 120.728 53.0466 128.757 53.3663 130.231C53.6861 131.705 54.4952 131.951 55.6325 132.5C56.7105 132.958 58.5466 132.401 60.1083 132.412C61.6699 132.423 65.1866 132.058 66.5078 132.098C66.5078 132.098 68.0695 132.109 69.3086 131.037C70.5477 129.965 70.3667 130.083 72.5479 127.486C74.7291 124.889 73.7813 123.05 74.91 120.625C76.0388 118.201 76.777 111.629 77.1871 108.899C77.5973 106.168 79.9308 90.7778 80.7936 87.7506C81.0398 86.9414 81.4103 85.5325 81.8431 83.8237C82.2534 85.2382 82.6948 86.5029 82.9891 87.3459C83.9907 90.0562 85.1338 93.9689 85.9627 95.6268C86.9417 97.3158 88.8203 99.1914 90.0821 99.1405C91.4344 99.0301 94.3513 98.5405 96.3628 98.6452C98.3743 98.7498 101.682 98.2631 102.858 97.4907C104.035 96.7183 102.901 95.779 102.247 94.7832C101.594 93.7874 100.889 91.5297 100.451 89.8747C99.9215 88.2791 98.439 85.6254 98.0627 83.6704C97.5958 81.7749 95.1456 75.8705 94.9701 75.2085C94.7947 74.5465 91.3967 66.8032 90.5083 65.0548C90.3611 64.6333 90.0329 64.3306 89.7642 64.1184C89.948 63.6092 89.1078 63.513 88.4486 63.298Z" fill="#FFCA42"/>
<path opacity="0.75" d="M90.0835 99.1414C91.7979 98.7933 96.2397 99.2459 98.3757 98.7507C100.452 98.165 103.813 98.5497 105.29 93.6948C106.767 88.8399 106.557 80.4289 108.252 74.5244C110.005 68.7104 112.249 61.6686 113.482 57.2325C113.482 57.2325 115.222 61.66 116.942 64.6759C118.663 67.6917 122.165 69.2787 125.11 69.0297C128.055 68.7806 131.272 68.3533 133.62 67.5894C135.878 66.8849 138.181 64.0783 139.219 61.7131C140.167 59.4073 140.676 55.4465 141.44 53.6499C142.144 51.7629 143.841 41.3233 145.194 41.2129C146.546 41.1025 151.225 41.9172 153.599 41.7841C155.973 41.6511 161.532 41.2407 163.014 39.7497C164.497 38.2587 165.659 35.2937 166.183 33.5254C166.706 31.7572 166.698 28.7838 166.768 27.3126C166.929 25.782 166.754 25.12 168.222 21.4364C169.69 17.7528 169.566 18.3526 170.214 15.9846C170.862 13.6166 170.681 13.7354 170.29 13.7326C169.959 13.8203 169.9 13.7298 169.69 13.6081C169.481 13.4865 169.362 13.3054 169.484 13.0961C169.546 12.7962 169.639 12.3463 169.883 11.9276C170.126 11.5089 170.613 10.6714 170.341 10.8497C170.069 11.0279 170.038 11.1779 169.829 11.0562C169.62 10.9346 169.501 10.7535 169.713 10.4847C169.925 10.216 170.168 9.79724 169.809 9.64448C169.45 9.49172 168.85 9.36725 168.85 9.36725C168.85 9.36725 168.822 9.12677 168.609 9.39555C168.457 9.75485 168.273 10.2641 168.092 10.3829C167.911 10.5018 167.614 10.0491 167.645 9.89916C167.676 9.74922 167.922 8.94007 168.256 8.46194C168.53 7.89327 168.38 7.86215 168.624 7.44343C168.867 7.02471 168.81 6.54376 168.508 6.87195C168.205 7.20014 167.84 7.82823 167.597 8.24695C167.444 8.60625 167.201 9.02497 167.169 9.17492C167.048 9.38428 167.017 9.53423 166.867 9.50311C166.717 9.47199 166.329 9.07875 166.329 9.07875C166.329 9.07875 166.241 8.74775 166.304 8.44785C166.366 8.14796 166.547 8.02914 166.669 7.81978C166.731 7.51988 166.431 7.45765 166.19 7.48595C166.041 7.45483 165.288 7.68967 165.257 7.83962C165.135 8.04898 164.739 8.82701 164.558 8.94584C164.377 9.06467 159.262 18.6387 158.651 20.0759C158.071 21.3632 155.933 26.3935 155.446 27.2309C154.959 28.0684 154.292 29.0246 153.814 28.6908C153.335 28.357 147.722 27.896 145.889 28.063C144.115 28.3205 138.828 28.5526 137.11 29.2911C135.362 30.1795 132.496 31.9308 131.758 34.3583C131.019 36.7857 127.068 51.6841 127.068 51.6841C127.068 51.6841 123.126 44.2973 122.651 43.5731C122.176 42.8488 121.638 42.4245 120.498 42.2661C119.358 42.1077 109.951 42.9708 108.958 43.234C107.965 43.4971 104.649 45.1551 104.194 45.8426C103.738 46.5301 99.5767 53.0175 98.4423 56.2229C97.3079 59.4284 95.1212 66.9512 94.6601 68.4195C94.1085 69.9473 91.2031 77.1645 90.5016 78.6612C89.7406 80.0673 88.929 92.6457 87.953 94.711C87.0364 96.8668 86.7564 98.2163 87.5344 98.6124C88.253 98.9179 90.0835 99.1414 90.0835 99.1414Z" fill="#FFCA42"/>
</g>
</svg>
