<svg width="779" height="585" viewBox="0 0 779 585" fill="none" xmlns="http://www.w3.org/2000/svg">
<path opacity="0.75" d="M411.655 73.1454C416.289 73.7943 421.682 76.0345 420.023 76.882C418.467 78.1489 421.043 81.0744 422.916 84.1713C424.788 87.2682 420.757 86.0287 421.471 88.9633C422.185 91.898 423.751 93.7372 422.297 95.4232C420.842 97.1093 422.307 98.5292 422.919 101.045C423.633 103.979 419.5 102.321 418.657 106.522C418.009 108.456 419.473 109.876 421.494 112.049C423.162 114.307 422.968 116.575 419.697 116.926C416.426 117.278 412.961 119.898 407.68 121.183C402.398 122.468 365.371 129.7 356.069 132.852C346.766 136.004 330.431 143.975 326.41 145.841C322.139 148.212 278.721 172.098 252.705 190.862C226.689 209.625 187.388 245.831 172.297 265.045C157.206 284.258 124.986 331.175 113.39 357.087C101.895 383.419 91.1871 403.787 88.7451 427.472C86.4052 451.576 85.9769 491.201 90.0934 503.521C90.0934 503.521 87.1186 502.025 82.604 491.134C78.0893 480.243 68.0105 444.95 65.9772 422.798C63.9997 402.409 68.7356 355.963 86.3443 321.038C103.953 286.114 120.107 252.876 147.141 221.431C174.174 189.987 189.469 171.611 224.074 146.762C258.577 121.493 264.006 119.283 266.415 116.921C268.824 114.559 270.13 113.797 272.947 113.111C275.764 112.426 277.014 109.902 279.275 108.463C281.638 107.444 309.322 90.9393 340.705 81.9712C372.441 72.9175 400.072 71.5231 411.655 73.1454Z" fill="#79A5DB" fill-opacity="0.42"/>
<path opacity="0.75" d="M714.874 160.562C711.63 153.358 707.717 141.877 700.692 132.929C693.667 123.981 669.691 103.615 654.669 97.0565C639.648 90.4982 606.547 81.6779 580.156 77.4417C553.515 73.7105 537.864 75.2982 529.358 75.5917C520.852 75.8851 510.483 76.1877 505.247 76.1294C500.114 76.4903 470.528 80.5806 460.011 81.8073C449.846 82.9484 433.241 85.2123 424.893 87.6876C416.896 90.0772 386.412 96.6064 381.38 97.3865C376.349 98.1667 363.117 100.498 356.177 102.631C349.237 104.763 336.719 110.029 329.881 112.581C323.043 115.133 286.638 127.987 277.346 134.245C268.405 140.417 263.929 141.95 258.398 143.74C253.218 145.444 248.855 150.502 247.446 150.845C246.038 151.187 221.819 165.073 214.684 169.473C207.55 173.874 184.611 194.553 171.566 208.384C158.42 221.796 145.988 238.143 138.827 250.098C131.667 262.054 126.155 270.056 121.998 292.826C118.092 315.091 119.197 330.364 121.869 347.476C124.541 364.588 126.564 383.634 131.043 398.975C135.521 414.315 140.842 425.454 142.965 428.046C142.965 428.046 132.758 352.376 170.137 297.543C207.164 242.796 282.073 196.594 385.608 160.746C489.142 124.898 607.724 135.566 635.293 146.177C635.293 146.177 637.202 144.824 628.334 142.097C619.113 139.456 607.53 137.834 607.53 137.834C607.53 137.834 615.378 136.368 634.273 141.984C653.168 147.6 665.271 154.425 674.501 160.172C683.278 165.585 693.926 174.096 700.053 185.483C706.078 196.45 712.827 213.459 716.091 226.874C719.355 240.29 719.385 249.608 719.931 247.254C720.477 244.901 723.225 222.474 721.85 201.494C720.123 180.599 718.119 167.765 714.874 160.562ZM573.709 92.332C560.764 89.709 551.303 90.6787 547.226 90.7826C543.149 90.8865 541.185 90.4764 537.209 90.9995C533.234 91.5226 537.506 89.1512 533.076 89.3408C528.647 89.5304 523.014 90.9011 516.12 91.6903C509.226 92.4796 502.878 90.9157 494.78 92.8861C487.033 94.7708 472.133 94.8438 462.525 96.7376C452.916 98.6315 442.955 100.611 435.107 102.077C427.259 103.542 420.865 103.321 413.471 105.121C406.429 106.834 396.718 108.309 403.454 105.337C406.771 103.642 420.049 99.9676 426.739 98.3398C433.076 96.7978 447.819 94.543 453.202 93.6772C458.586 92.8114 523.698 84.5178 534.373 85.4729C545.048 86.428 581.4 88.6846 596.56 91.2128C611.368 93.8266 622.256 98.7262 622.256 98.7262C622.256 98.7262 586.655 94.9549 573.709 92.332Z" fill="#79A5DB" fill-opacity="0.42"/>
<path opacity="0.75" d="M712.797 156.627C711.481 154.283 704.29 204.435 698.047 220.163C691.805 235.892 661.29 280.617 643.326 298.754C625.362 316.89 566.91 361.752 561.536 365.724C556.514 369.61 552.335 369.295 548.87 371.914C545.405 374.534 548.61 369.313 544.089 372.19C539.567 375.066 504.397 396.057 497.16 400.038C489.924 404.019 463.138 418.085 453.085 422.752C443.032 427.418 367.62 457.756 338.497 465.286C309.023 472.901 256.652 482.979 236.322 485.262C215.992 487.544 188.509 488.014 168.021 488.114C147.533 488.215 128.629 479.493 116.832 473.926C105.137 468.778 97.6573 459.497 90.9839 450.463C84.7647 441.763 70.1841 415.559 66.2059 399.209C66.2059 399.209 62.9842 415.091 67.9462 440.083C72.9082 465.075 85.7313 508.58 104.906 523.009C124.08 537.438 162.538 552.948 210.397 548.853C257.905 544.842 309.719 534.012 318.17 531.955C326.62 529.899 352.574 523.141 357.855 521.855C363.137 520.57 366.556 519.294 370.679 517.847C374.802 516.4 373.838 513.97 371.726 514.484C369.613 514.998 370.419 515.246 367.352 516.436C364.285 517.627 363.081 518.808 361.116 518.398C359.152 517.988 358.096 518.245 356.085 519.178C354.074 520.111 352.916 519.949 350.099 520.634C347.282 521.32 347.987 521.148 344.92 522.339C341.853 523.529 340.185 521.27 340.185 521.27C340.185 521.27 342.445 519.832 345.262 519.147C348.079 518.461 362.163 515.035 364.878 513.93C367.24 512.911 370.761 512.054 373.328 511.874C375.895 511.694 378.61 510.589 380.722 510.075C382.835 509.561 381.769 506.712 383.881 506.198C385.994 505.684 385.142 506.779 387.958 506.094C390.775 505.409 393.99 503.294 396.455 502.695C398.92 502.095 401.421 497.046 404.942 496.189C408.463 495.332 410.269 493.561 411.484 495.485C412.698 497.41 413.652 496.734 413.346 495.476C413.04 494.219 412.326 491.284 414.689 490.265C417.051 489.246 419.868 488.561 422.833 486.951C425.798 485.342 432.784 481.866 435.249 481.266C437.714 480.666 440.132 481.41 440.132 481.41C440.132 481.41 431.886 484.305 428.569 486C425.252 487.695 420.378 490.657 423.195 489.972C426.012 489.286 429.533 488.43 431.645 487.915C433.758 487.401 434.666 488.069 437.279 486.545C439.892 485.021 440.642 483.506 444.061 482.23C447.48 480.954 447.878 479.525 451.399 478.669C454.92 477.812 456.329 477.469 457.737 477.127C459.146 476.784 462.917 475.422 465.279 474.403C467.642 473.384 467.484 471.203 469.847 470.184C472.21 469.165 479.4 466.527 481.762 465.508C484.125 464.489 487.692 462.289 489.953 460.851C492.214 459.413 496.133 457.127 498.848 456.022C501.563 454.918 500.812 456.433 504.685 455.49C508.558 454.548 510.023 455.968 515.294 451.577C520.566 447.186 519.408 447.023 522.169 444.575C524.93 442.128 530.859 438.908 534.881 437.042C538.902 435.175 540.356 433.489 542.469 432.975C544.582 432.461 545.99 432.119 545.23 430.527C544.47 428.936 546.174 426.745 547.639 428.165C549.103 429.585 551.466 428.566 551.466 428.566C554.931 425.947 558.544 422.403 560.657 421.889C562.769 421.375 563.974 420.194 567.791 417.489C571.608 414.784 571.608 414.784 573.971 413.765C576.333 412.746 574.859 408.22 577.824 406.611C580.789 405.001 586.469 402.287 589.582 399.754C592.695 397.22 595.261 397.039 598.374 394.506C601.487 391.972 601.645 394.154 593.205 399.316C584.764 404.478 584.82 406.241 587.887 405.051C590.954 403.86 594.465 399.898 599.089 397.441C603.712 394.983 604.916 393.802 606.019 392.202C607.121 390.601 605.305 389.267 608.168 387.238C611.03 385.21 615.95 380.904 618.813 378.876C621.676 376.847 627.105 374.638 629.514 372.275C631.923 369.913 635.592 368.132 637.649 365.856C639.706 363.579 642.717 360.626 641.308 360.969C639.9 361.311 635.934 364.941 632.469 367.56C629.004 370.179 626.085 370.445 626.085 370.445C626.085 370.445 629.699 366.902 633.266 364.702C636.833 362.502 637.481 360.568 640.344 358.539C643.207 356.51 644.809 353.9 643.753 354.157C642.697 354.414 637.619 356.538 640.028 354.175C642.437 351.813 645.652 349.699 649.367 346.574C653.082 343.45 656.686 336.801 656.686 336.801C656.686 336.801 657.9 338.725 656.047 341.841C654.195 344.956 652.842 347.061 656.057 344.947C659.272 342.832 657.818 344.518 661.079 341.06C664.34 337.603 669.509 332.792 673.975 328.153C678.44 323.514 679.497 323.257 681.099 320.647C682.702 318.037 683.61 318.704 682.702 318.037C681.794 317.37 680.181 316.874 680.181 316.874C683.544 313.836 683.989 311.063 686.499 309.12C689.01 307.177 691.603 299.441 693.91 296.66C696.217 293.878 700.432 289.744 701.683 287.219C702.933 284.695 704.286 282.59 706.388 278.97C708.491 275.35 711.483 266.185 712.631 263.241C713.78 260.297 714.974 256.01 715.316 252.818C715.659 249.627 718.298 240.547 718.861 227.533C722.843 213.242 721.547 169.596 712.797 156.627ZM627.126 333.336C613.673 345.49 594.847 361.616 590.428 364.911C586.361 368.121 568.821 377.273 561.391 383.522C553.859 389.351 531.344 401.046 523.607 406.037C515.871 411.027 468.33 436.36 452.644 442.397C436.957 448.434 392.714 465.86 383.911 468.002C375.461 470.058 369.021 471.181 365.954 472.371C362.887 473.561 358.264 476.018 353.687 477.132C349.109 478.246 347.655 479.932 344.134 480.788C340.261 481.731 337.444 482.416 333.571 483.359C329.698 484.301 224.66 506.305 205.367 502.119C202.244 501.546 268.866 493.329 274.25 492.463C279.634 491.598 322.85 483.747 335.97 477.89C349.192 472.453 388.377 463.363 397.226 459.878C406.426 456.307 467.05 429.567 473.638 427.52C480.226 425.473 508.207 407.119 517.704 401.7C526.849 396.367 564.29 377.044 575.798 370.691C587.305 364.339 602.61 349.07 613.005 341.212C623.049 333.439 657.022 299.862 663.442 292.527C664.146 292.356 640.828 320.676 627.126 333.336Z" fill="#79A5DB" fill-opacity="0.42"/>
<path opacity="0.75" d="M627.446 195.156C627.446 195.156 606.26 229.174 592.521 246.283C579.135 263.306 536.438 323.873 479.696 352.776C422.955 381.68 377.054 399.953 299.071 413.598C221.089 427.244 180.723 413.086 164.319 399.315C147.915 385.544 126.207 349.973 120.413 332.288C120.413 332.288 127.204 378.594 130.218 392.515C133.334 406.854 144.035 447.768 179.482 466.231C214.576 484.779 272.462 483.573 319.302 475.285C366.141 466.996 437.904 444.651 472.166 422.993C506.429 401.335 559.61 360.864 572.154 348.042C584.596 334.802 589.608 327.81 587.949 328.657C586.291 329.505 575.859 341.812 573.451 344.175C571.042 346.537 554.328 362.149 548.102 367.216C542.831 371.607 536.197 374.998 534.89 375.76C536.901 374.826 549.103 365.197 553.42 361.482C557.635 357.348 563.555 351.023 564.76 349.842C565.964 348.66 565.908 346.898 567.567 346.05C569.225 345.203 569.93 345.031 570.782 343.936C571.532 342.421 575.201 340.64 576.656 338.954C578.11 337.268 578.508 335.839 579.009 334.829C579.509 333.819 581.065 332.553 581.463 331.124C582.214 329.609 582.464 329.104 584.122 328.256C585.883 327.828 587.791 326.475 588.19 325.046C588.588 323.617 589.792 322.436 590.496 322.265C591.201 322.094 594.017 321.408 594.768 319.893C595.268 318.884 609.359 301.689 613.666 294.869C618.326 287.962 620.827 282.913 621.577 281.398C622.328 279.884 622.272 278.121 622.976 277.95C623.93 277.273 624.43 276.264 624.328 275.844C624.124 275.006 624.523 273.577 625.477 272.901C626.431 272.224 627.58 269.281 629.32 262.64C631.413 255.914 631.914 254.904 631.966 239.794C632.121 225.102 631.088 200.93 627.446 195.156ZM580.296 280.341C579.194 281.942 577.989 283.123 576.887 284.723C568.864 294.668 548.603 318.692 532.334 331.532C511.043 348.258 479.653 370.993 469.452 376.583C459.251 382.174 457.843 382.517 455.526 382.192C453.209 381.868 454.118 382.535 449.29 384.153C444.463 385.772 439.793 389.572 437.783 390.506C435.772 391.439 415.11 400.019 391.825 407.016C368.188 414.1 330.254 420.665 330.254 420.665C330.254 420.665 390.315 406.94 416.054 396.237C442.146 385.448 451.393 380.533 455.664 378.162C459.936 375.791 490.549 362.125 518.612 337.979C544.266 316.195 564.399 299.307 576.535 284.809C579.092 281.522 580.546 279.836 580.296 280.341Z" fill="#79A5DB" fill-opacity="0.42"/>
</svg>
