<svg width="215" height="56" viewBox="0 0 215 56" fill="none" xmlns="http://www.w3.org/2000/svg">
<path d="M212.674 51.6231C211.781 49.9766 207.727 48.6089 205.217 47.3915C190.457 40.3874 175.089 35.1197 159.614 30.0478C137.924 22.9657 115.768 17.63 93.4855 12.7767C80.7497 10.0141 23.7828 1.77074 10.828 0.356604C7.30493 -0.00833716 3.79645 -0.092721 0.258533 0.252846C0.314432 1.16314 0.17729 2.17852 0.447235 2.30752C1.56119 2.81742 2.77775 3.3091 3.99568 3.41121C20.8854 4.72776 81.688 13.7052 98.1957 17.638C102.95 18.7752 107.774 19.5106 112.534 20.6821C122.645 23.168 132.777 25.5791 142.812 28.4324C151.878 30.9977 160.868 33.9304 169.814 37.0126C183.923 41.938 198.027 47.0411 211.329 53.9856C213.817 55.2778 214.483 56.0443 214.604 55.138C214.725 54.2316 213.532 53.2756 212.674 51.6231Z" fill="#81ABDD"/>
</svg>
