<svg width="17" height="18" viewBox="0 0 17 18" fill="none" xmlns="http://www.w3.org/2000/svg">
<path fill-rule="evenodd" clip-rule="evenodd" d="M8.5 17.5C13.1944 17.5 17 13.6944 17 9C17 4.30558 13.1944 0.5 8.5 0.5C3.80558 0.5 0 4.30558 0 9C0 13.6944 3.80558 17.5 8.5 17.5ZM6.9412 12.8962C7.14793 12.8962 7.2424 12.8043 7.35659 12.6931L7.3662 12.6837L8.38667 11.6915L10.5102 13.2604C10.9011 13.476 11.1832 13.3644 11.2806 12.8974L12.6749 6.32673C12.8177 5.75438 12.4568 5.49479 12.0828 5.66457L3.89519 8.82168C3.3363 9.04585 3.33956 9.35765 3.79331 9.49658L5.89444 10.1524L10.7588 7.08352C10.9884 6.94427 11.1992 7.01914 11.0262 7.17266L7.0847 10.7296L7.08577 10.7303L6.9412 12.8962Z" fill="#222222"/>
</svg>
