<svg width="171" height="108" viewBox="0 0 171 108" fill="none" xmlns="http://www.w3.org/2000/svg">
<g clip-path="url(#clip0_920_8706)">
<circle cx="95" cy="56" r="46" fill="#FA9595"/>
<path opacity="0.75" d="M17.7625 30.5484C15.8527 31.7706 15.5976 32.1643 13.8219 33.697C12.176 35.2019 10.3871 35.7198 9.0573 35.529C7.72753 35.3382 6.80592 34.5175 6.1161 33.5115C5.42629 32.5056 5.5239 32.0098 5.30212 30.9717C5.08033 29.9336 4.22418 28.1491 4.10886 27.2918C3.94252 26.5132 3.22499 25.3775 2.97548 24.2097C2.72597 23.0418 2.28683 21.3039 3.37152 20.6651C4.45621 20.0263 4.89651 19.8644 5.94346 20.3191C7.04143 20.6951 8.3712 20.8859 9.30283 20.4834C10.2345 20.0808 13.4042 19.675 14.1273 19.2491C14.8504 18.8233 17.154 17.8562 18.2708 17.6854C19.3877 17.5147 20.7042 16.6907 21.872 16.4412C23.0399 16.1917 27.7069 14.8554 28.9535 14.6569C30.2001 14.4584 33.2634 13.8718 34.1717 13.6777C35.1077 13.6134 38.1156 12.7673 38.7921 12.7584C39.4686 12.7496 41.4938 12.3848 42.3511 12.2694C43.0787 12.1818 44.6868 11.7704 46.0399 11.7527C47.393 11.735 50.4562 11.1484 51.369 11.2926C52.2817 11.4368 53.9686 11.0764 54.4921 11.3038C55.0156 11.5312 56.1369 11.6987 56.8688 11.9493C57.5498 12.2787 58.5823 13.6185 59.6381 14.7498C60.7727 15.9321 61.9715 18.0505 62.7633 18.8989C63.5042 19.8261 63.7537 20.994 63.1093 21.4709C62.4649 21.9477 61.1074 21.6272 60.4819 21.5573C59.8564 21.4874 56.08 21.2766 55.246 21.1834C54.412 21.0902 47.3128 21.5214 45.0281 21.9417C42.7434 22.362 41.6865 23.1305 41.2373 22.6159C40.8159 22.2311 40.3756 22.393 39.7822 22.7911C39.1378 23.268 38.4103 23.3556 37.553 23.4709C36.7744 23.6372 31.6116 24.8759 30.5502 25.3062C29.5676 25.7875 26.7683 26.657 25.6281 27.0362C24.488 27.4155 24.7797 27.8281 23.8159 27.7626C22.8521 27.6971 22.2676 28.7718 21.3826 28.7574C20.6317 29.0535 18.7685 29.8586 17.7625 30.5484Z" fill="#FA9595" fill-opacity="0.43"/>
<path opacity="0.75" d="M89.2779 44.573C89.2968 44.0262 88.658 42.9415 87.6022 41.8103C87.3338 41.1892 87.0654 40.5681 86.8525 40.2065C86.4499 39.2749 84.0189 36.47 83.4123 35.8533C82.9631 35.3387 82.6481 35.1346 82.3376 35.2688C81.6056 35.0181 80.8226 34.8462 79.8034 34.5212C78.2607 33.9689 75.3505 34.3193 72.3105 34.6974C69.1918 35.0244 52.3272 38.9667 50.0192 39.5955C47.7112 40.2243 44.852 40.4959 45.6217 39.653C46.4425 38.7314 50.9997 34.9762 53.4985 33.0177C54.3747 32.3556 58.1257 28.637 58.8954 27.7941C59.7439 27.0023 62.6287 22.7225 63.0047 21.6245C63.3807 20.5265 63.1911 19.9565 62.6587 19.0526C62.1264 18.1486 61.3578 17.0917 60.881 16.4473C60.4041 15.8029 58.7605 13.5082 58.0474 12.7108C57.413 11.9643 55.7771 12.246 55.3646 12.5377C55.3646 12.5377 54.4739 14.0848 53.7086 15.2659C52.9944 16.3683 50.3602 19.9162 49.9011 20.6249C49.4419 21.3335 48.0644 23.4596 47.0074 24.2281C45.9504 24.9967 41.7547 28.5389 40.3085 29.3907C38.8112 30.3211 33.8879 33.951 32.414 34.6729C30.889 35.4736 25.0064 39.3763 23.9494 40.1449C22.8924 40.9134 22.98 41.641 22.9423 42.7345C22.9556 43.7493 24.0391 45.0103 24.5758 46.2525C25.1126 47.4947 26.6308 50.1554 27.0611 51.2168C27.0611 51.2168 27.5979 52.4589 28.8811 53.0668C30.1642 53.6746 30.0067 53.5725 32.8282 54.3944C35.6496 55.2163 36.7765 53.8223 39.0933 53.87C41.4102 53.9178 46.8791 52.2066 49.187 51.5779C51.495 50.9491 64.5134 47.4215 67.2151 47.0478C67.9427 46.9602 69.1893 46.7617 70.6954 46.5078C69.7172 47.3274 68.8687 48.1192 68.3031 48.6471C66.5041 50.3883 63.8012 52.6618 62.7764 53.8984C61.7793 55.2648 60.9486 57.4097 61.4299 58.3923C61.9899 59.426 63.3973 61.5676 64.0172 63.1991C64.6371 64.8306 66.1787 67.2828 67.2023 67.946C68.226 68.6093 68.5742 67.3815 69.1355 66.5154C69.6967 65.6492 71.2405 64.3017 72.3995 63.3757C73.4798 62.3986 75.0658 60.2959 76.4844 59.3144C77.8241 58.2819 81.6494 54.276 82.113 53.9056C82.5766 53.5352 87.5288 48.1353 88.6046 46.8199C88.8874 46.556 89.0128 46.19 89.0871 45.9028C89.5551 45.8706 89.3378 45.1708 89.2779 44.573Z" fill="#FA9595" fill-opacity="0.43"/>
<path opacity="0.75" d="M61.4296 58.3943C62.3047 59.632 63.4979 63.312 64.6369 64.8325C65.8269 66.2744 66.6963 69.0737 71.0616 68.5481C75.4269 68.0225 82.0227 64.9173 87.2963 64.1977C92.5189 63.5568 98.8861 62.8749 102.834 62.3027C102.834 62.3027 99.9319 65.2295 98.1418 67.6472C96.3517 70.0649 96.3172 73.3966 97.5438 75.6447C98.7704 77.8928 100.233 80.294 101.659 81.8888C103.007 83.4327 106.037 84.2779 108.275 84.2746C110.434 84.2204 113.753 83.24 115.444 83.2179C117.186 83.117 126.057 80.8149 126.617 81.8485C127.177 82.8822 128.166 86.8771 129.101 88.7126C130.036 90.5482 132.304 94.8126 134.004 95.467C135.704 96.1214 138.461 96.0072 140.046 95.8043C141.631 95.6014 143.986 94.5556 145.177 94.0976C146.447 93.6906 146.91 93.3202 150.344 93.1972C153.778 93.0742 153.259 93.1851 155.362 92.8713C157.466 92.5575 157.309 92.4554 157.175 92.1449C156.989 91.9131 157.04 91.8343 157.064 91.6258C157.087 91.4173 157.189 91.2598 157.398 91.2831C157.657 91.2277 158.046 91.1445 158.463 91.1911C158.88 91.2377 159.714 91.3309 159.478 91.1778C159.242 91.0248 159.112 91.0525 159.136 90.844C159.159 90.6355 159.261 90.478 159.548 90.5523C159.835 90.6266 160.252 90.6732 160.248 90.335C160.244 89.9967 160.133 89.4777 160.133 89.4777C160.133 89.4777 160.313 89.3712 160.026 89.2969C159.688 89.3013 159.22 89.3334 159.062 89.2314C158.905 89.1294 159.16 88.7357 159.29 88.7079C159.42 88.6802 160.147 88.5926 160.643 88.6902C161.19 88.7091 161.162 88.5793 161.579 88.6259C161.996 88.6725 162.357 88.4596 161.991 88.3343C161.625 88.2089 161 88.139 160.583 88.0924C160.245 88.0969 159.828 88.0503 159.698 88.078C159.489 88.0547 159.36 88.0824 159.332 87.9527C159.304 87.8229 159.481 87.3782 159.481 87.3782C159.481 87.3782 159.712 87.193 159.972 87.1375C160.231 87.0821 160.389 87.1841 160.597 87.2074C160.857 87.1519 160.801 86.8924 160.695 86.7116C160.667 86.5819 160.218 86.0673 160.088 86.095C159.88 86.0717 159.125 86.0295 158.967 85.9275C158.81 85.8254 149.431 85.1154 148.078 85.1331C146.855 85.1231 142.119 85.185 141.285 85.0919C140.451 84.9987 139.46 84.8034 139.557 84.3077C139.655 83.8119 138.059 79.2004 137.286 77.8052C136.462 76.4887 134.43 72.3773 133.245 71.2737C131.93 70.1979 129.54 68.5376 127.357 68.8003C125.174 69.0631 111.981 71.1356 111.981 71.1356C111.981 71.1356 116.46 65.4296 116.869 64.7996C117.277 64.1697 117.425 63.5952 117.153 62.6358C116.88 61.6765 112.908 54.5196 112.353 53.8241C111.797 53.1287 109.324 51.0791 108.62 50.9582C107.915 50.8373 101.318 49.8046 98.3796 50.0252C95.4417 50.2458 88.713 51.1406 87.3876 51.2881C85.9835 51.3846 79.2459 51.6029 77.8141 51.5695C76.4333 51.4575 66.1766 55.2092 64.198 55.157C62.1684 55.1836 61.0005 55.4331 60.9584 56.1883C60.9672 56.8649 61.4296 58.3943 61.4296 58.3943Z" fill="#FA9595" fill-opacity="0.43"/>
<path d="M81.957 51.6096C84.1913 51.4011 86.4555 51.6096 88.6898 51.4309C89.1367 51.4011 88.9878 50.7457 88.8984 50.5074C87.6173 47.3197 87.9153 42.5828 90.8944 40.408C93.6948 38.3524 98.3721 38.7993 98.9977 42.7616C99.6233 46.9324 96.674 50.3286 94.0821 53.1886C92.6521 54.7378 91.1029 56.3167 90.1496 58.2234C89.3155 59.8917 88.8686 61.7388 88.9282 63.6156C88.958 64.7179 89.1963 65.7904 89.5836 66.8331C89.8815 67.6375 90.4177 69.1866 91.4009 69.3058C92.5031 69.4548 93.665 69.3356 94.7673 69.3952C95.9888 69.4548 97.2102 69.4846 98.4019 69.5143C98.7296 69.5143 98.7594 69.2164 98.67 68.8887C98.6402 68.6802 98.521 68.4716 98.4317 68.3227C97.0017 65.9692 97.8358 62.5729 98.8487 60.2194C100.1 57.3594 102.275 55.2442 104.42 53.0396C106.505 50.8649 108.501 48.5709 109.425 45.6513C110.199 43.1191 110.11 40.3783 109.425 37.846C107.965 32.5729 103.884 28.2233 98.521 26.9721C93.1288 25.7208 87.1407 27.5381 83.3274 31.5898C78.382 36.8331 77.7861 44.4895 80.9738 50.8351C81.1526 51.1628 81.5101 51.6394 81.957 51.6096ZM83.6551 34.0625C87.0215 29.7725 92.8011 27.5679 98.1635 28.4914C103.377 29.3852 107.28 33.3475 108.322 38.5014C108.799 40.9443 108.591 43.5659 107.548 45.8301C106.267 48.6305 103.973 50.8053 101.858 52.9801C99.6829 55.2442 97.8954 57.5382 96.9421 60.5769C96.2271 62.9006 96.0185 65.4329 96.9123 67.6971C94.9758 67.6971 93.0394 67.5779 91.1029 67.5779C89.3453 64.1817 90.6263 60.1896 92.9202 57.3296C95.3631 54.2313 98.67 51.6096 99.9212 47.7368C100.934 44.5789 100.428 40.6464 97.5677 38.5908C94.9163 36.6841 91.0434 37.2799 88.8686 39.6037C86.4555 42.1955 86.3065 46.4557 87.379 49.7328C85.5021 49.8519 83.6253 49.7328 81.7484 49.8519C79.4545 44.6086 80.0503 38.6503 83.6551 34.0625Z" fill="white"/>
<path d="M101.232 86.1678C101.947 82.8609 100.249 79.4051 97.5083 77.6176C95.9889 76.6345 94.1716 76.1578 92.2352 76.5153C90.7158 76.7835 89.3156 77.5282 88.2431 78.6603C86.0385 80.9841 85.8896 84.4399 87.2898 87.2403C88.7198 90.1003 91.5797 92.0665 94.827 91.7388C97.9253 91.3813 100.577 89.2065 101.232 86.1678ZM94.8866 89.713C92.4735 90.2194 89.9114 89.415 88.6602 87.1807C87.4685 85.0357 87.7664 82.3247 89.3752 80.4776C91.4308 78.1241 96.257 77.1409 98.6701 79.6732C99.981 81.0734 100.309 83.129 99.9214 84.9463C99.3851 87.419 97.3295 89.2065 94.8866 89.713Z" fill="white"/>
</g>
<defs>
<clipPath id="clip0_920_8706">
<rect width="1920" height="9211" fill="white" transform="translate(-1058 -3971)"/>
</clipPath>
</defs>
</svg>
