<svg width="146" height="108" viewBox="0 0 146 108" fill="none" xmlns="http://www.w3.org/2000/svg">
<g clip-path="url(#clip0_920_8706)">
<circle cx="82" cy="52" r="46" fill="#FA9595"/>
<path opacity="0.75" d="M114.161 29.9314C114.712 30.7536 115.119 31.9199 114.752 31.7779C114.333 31.7111 114.235 32.5299 114.01 33.2618C113.786 33.9937 113.413 33.1832 113.051 33.7096C112.689 34.236 112.62 34.7423 112.149 34.7507C111.678 34.759 111.66 35.1902 111.35 35.6413C110.988 36.1677 110.667 35.2821 109.885 35.7416C109.489 35.9121 109.471 36.3432 109.414 36.9681C109.293 37.5497 108.908 37.8388 108.391 37.3725C107.874 36.9063 106.973 36.7292 106.026 36.0776C105.078 35.4259 98.717 30.6068 96.9084 29.5842C95.0998 28.5616 91.5396 27.1095 90.6783 26.7386C89.7021 26.3994 79.8139 22.9205 73.1868 21.4635C66.5597 20.0065 55.309 18.9139 50.1513 19.2432C44.9936 19.5725 33.0524 21.1067 27.3311 22.9315C21.5581 24.8316 16.8364 26.0147 12.7571 28.9691C8.6261 31.9988 2.31706 37.5182 0.954663 39.9044C0.954663 39.9044 0.771228 39.2243 1.85213 36.9768C2.93303 34.7293 7.07736 28.1638 10.2839 24.7198C13.2204 21.5332 21.2124 15.7313 29.2025 13.5839C37.1926 11.4365 44.7117 9.29745 53.4819 9.12684C62.2521 8.95624 67.3064 8.77735 76.1042 10.7306C84.9537 12.6086 86.0676 13.1534 86.7798 13.2001C87.4919 13.2469 87.7963 13.3455 88.3015 13.6931C88.8068 14.0406 89.3812 13.8819 89.9267 14.0356C90.4205 14.2645 96.9267 16.303 102.766 19.9875C108.668 23.7154 112.784 27.8761 114.161 29.9314Z" fill="#FA9595" fill-opacity="0.43"/>
<path opacity="0.75" d="M125.345 81.1632C125.345 81.1632 116.993 82.6188 112.358 82.8646C107.787 83.1537 92.2154 84.9604 79.6571 80.0879C67.0989 75.2155 57.7454 70.5536 44.5984 60.1802C31.4515 49.8068 27.9925 41.4451 27.8512 36.9167C27.71 32.3883 30.2586 23.9496 32.2303 20.5424C32.2303 20.5424 25.8858 28.1423 24.1156 30.5803C22.2936 33.0935 17.3505 40.5497 19.4369 48.7426C21.4601 56.8921 29.8121 65.8502 37.7233 72.0679C45.6344 78.2855 59.2765 86.4515 67.5227 88.8008C75.769 91.1501 89.6493 93.8301 93.4398 94.0005C97.2821 94.0957 99.0913 93.9001 98.7238 93.7581C98.3563 93.6161 94.9447 93.7064 94.2326 93.6596C93.5204 93.6128 88.702 93.1784 87.025 92.9111C85.5893 92.6989 84.1193 92.1308 83.8149 92.0322C84.2456 92.2177 87.4846 92.7841 88.6791 92.9412C89.9254 93.023 91.7575 93.0648 92.1136 93.0882C92.4696 93.1115 92.7397 92.8542 93.1072 92.9962C93.4747 93.1383 93.601 93.2251 93.8939 93.2051C94.2386 93.1098 95.0367 93.4373 95.5077 93.429C95.9787 93.4206 96.2602 93.2819 96.4899 93.2184C96.7197 93.1549 97.1389 93.2217 97.4204 93.083C97.7651 92.9878 97.8799 92.956 98.2474 93.0981C98.5632 93.3153 99.0456 93.4256 99.3271 93.2869C99.6086 93.1482 99.9647 93.1716 100.091 93.2585C100.217 93.3453 100.723 93.6929 101.067 93.5976C101.297 93.5341 105.995 93.3319 107.678 93.0494C109.424 92.8105 110.573 92.4929 110.918 92.3977C111.262 92.3024 111.532 92.0451 111.659 92.132C111.9 92.1871 112.13 92.1236 112.181 92.0484C112.285 91.898 112.566 91.7593 112.808 91.8145C113.049 91.8696 113.675 91.6357 114.967 90.9739C116.323 90.3556 116.553 90.2921 118.943 88.1699C121.282 86.1229 124.948 82.5518 125.345 81.1632ZM105.264 85.7388C104.856 85.7906 104.5 85.7672 104.092 85.819C101.393 85.9561 94.7476 86.1484 90.429 85.3932C84.7895 84.394 76.7784 82.6496 74.4585 81.8292C72.1386 81.0088 71.886 80.835 71.6105 80.424C71.3351 80.0129 71.3579 80.2502 70.422 79.7171C69.4861 79.1841 68.2284 78.9836 67.7978 78.7981C67.3671 78.6127 63.1009 76.5641 58.7143 73.8788C54.2646 71.1502 47.8806 66.0938 47.8806 66.0938C47.8806 66.0938 58.5134 73.6299 63.8305 76.1797C69.2107 78.773 71.2893 79.5383 72.2655 79.8775C73.2417 80.2167 79.713 83.1175 87.4775 84.1383C94.5298 85.1124 100.032 85.906 104.029 85.7756C104.908 85.7154 105.379 85.7071 105.264 85.7388Z" fill="#FA9595" fill-opacity="0.43"/>
<path opacity="0.75" d="M143.13 90.0729C143.808 88.5455 145.067 86.3097 145.488 83.9402C145.908 81.5707 145.739 74.9184 144.655 71.6249C143.571 68.3314 140.295 61.868 137.242 57.109C134.074 52.3818 131.617 50.1376 130.372 48.8376C129.126 47.5376 127.616 45.9452 126.887 45.1113C126.107 44.3527 121.29 40.2638 119.614 38.7783C118.001 37.3363 115.303 35.037 113.735 34.0696C112.231 33.1455 106.903 29.2588 106.071 28.5754C105.238 27.892 103.005 26.1341 101.69 25.3404C100.375 24.5467 97.7798 23.3152 96.4133 22.5967C95.0467 21.8782 87.8868 17.9498 85.5897 17.3667C83.3559 16.827 82.4831 16.3374 81.4209 15.7175C80.4219 15.141 79.009 15.1661 78.7564 14.9923C78.5037 14.8185 72.8992 12.9571 71.1994 12.4525C69.4996 11.9479 63.0043 11.2462 58.984 11.1393C55.0154 10.9572 50.6847 11.3015 47.7898 11.858C44.8949 12.4145 42.8558 12.6736 38.6791 15.2286C34.6173 17.7519 32.3647 20.0797 30.0429 22.9138C27.7211 25.7478 25.003 28.7524 23.2153 31.6215C21.4277 34.4907 20.4214 36.9003 20.3119 37.6004C20.3119 37.6004 30.8056 25.3217 44.7226 23.485C58.5766 21.6048 76.4242 26.9033 96.6752 38.1755C116.926 49.4478 131.963 69.6517 134.177 75.4952C134.177 75.4952 134.66 75.6054 133.839 73.8225C132.956 71.9961 131.579 69.9408 131.579 69.9408C131.579 69.9408 132.916 70.9718 134.695 74.7432C136.473 78.5146 137.104 81.3854 137.499 83.6513C137.882 85.7985 138.042 88.6777 137.11 91.2494C136.23 93.7459 134.499 97.2082 132.844 99.6145C131.189 102.021 129.724 103.339 130.172 103.094C130.62 102.848 134.544 100.119 137.658 96.9442C140.71 93.7257 142.451 91.6002 143.13 90.0729ZM133.985 58.1919C132.574 55.7806 131.087 54.4255 130.496 53.7972C129.904 53.1689 129.692 52.8013 129.049 52.2482C128.406 51.6951 129.382 52.0343 128.728 51.3625C128.073 50.6908 127.063 49.9957 125.967 49.0198C124.87 48.044 124.222 46.8225 122.769 45.8233C121.38 44.8675 119.267 42.5281 117.614 41.2799C115.96 40.0317 114.244 38.74 112.906 37.709C111.569 36.678 110.702 35.6387 109.376 34.7263C108.112 33.8574 106.511 32.534 107.929 33.1773C108.664 33.4614 111.116 35.0371 112.316 35.8626C113.452 36.6446 115.887 38.6514 116.782 39.3783C117.678 40.1052 128.166 49.2036 129.521 51.0216C130.875 52.8397 135.645 58.8903 137.384 61.6374C139.059 64.3411 139.822 66.749 139.822 66.749C139.822 66.749 135.397 60.6031 133.985 58.1919Z" fill="#FA9595" fill-opacity="0.43"/>
<path opacity="0.75" d="M143.458 89.1903C143.642 88.6522 134.719 94.5895 131.359 95.8227C127.998 97.056 116.643 98.5501 111.25 98.2745C105.857 97.9988 90.5413 95.1066 89.1573 94.8192C87.8365 94.5753 87.297 93.8718 86.3954 93.6947C85.4937 93.5176 86.7689 93.287 85.6778 92.9795C84.5867 92.6721 76.3176 90.0855 74.6696 89.5057C73.0215 88.9259 67.0266 86.6852 64.8733 85.7578C62.72 84.8304 47.303 77.2159 42.0095 73.6852C36.6528 70.111 27.6794 63.2734 24.4531 60.3893C21.2268 57.5052 17.2776 53.2375 14.3731 50.0209C11.4686 46.8042 10.1785 42.5933 9.39304 39.9481C8.55583 37.3781 8.96488 34.89 9.44851 32.5639C9.94357 30.3565 12.02 24.3626 14.0374 21.4299C14.0374 21.4299 11.0787 23.1611 7.83724 27.4674C4.59578 31.7736 -0.456807 39.9299 -0.0286502 44.988C0.399509 50.0462 3.37608 58.2976 10.7699 65.2672C18.1007 72.1934 27.1143 78.8372 28.63 79.8798C30.1457 80.9225 34.8709 84.0623 35.8182 84.7139C36.7655 85.3656 37.4488 85.7249 38.2584 86.171C39.068 86.6172 39.3152 86.1225 38.9363 85.8619C38.5574 85.6012 38.6319 85.7633 38.0118 85.4475C37.3917 85.1317 37.0356 85.1083 36.8233 84.7407C36.611 84.373 36.4215 84.2427 35.9909 84.0572C35.5602 83.8718 35.4225 83.6662 34.9172 83.3187C34.412 82.9711 34.5383 83.058 33.9182 82.7422C33.2981 82.4264 33.419 81.8449 33.419 81.8449C33.419 81.8449 33.9645 81.9986 34.4698 82.3461C34.975 82.6937 37.5012 84.4315 38.0581 84.7039C38.552 84.9328 39.1835 85.3672 39.5739 85.7466C39.9642 86.1259 40.5212 86.3982 40.9001 86.6589C41.279 86.9196 41.578 86.3498 41.9569 86.6104C42.3358 86.8711 42.0429 86.8911 42.5481 87.2387C43.0534 87.5863 43.8401 87.7951 44.2822 88.0992C44.7243 88.4034 45.8731 88.0859 46.5047 88.5203C47.1362 88.9548 47.6703 88.9898 47.538 89.4527C47.4056 89.9156 47.6468 89.9707 47.802 89.7451C47.9572 89.5195 48.3193 88.9932 48.8131 89.2221C49.3069 89.451 49.8122 89.7986 50.484 90.0392C51.1559 90.2798 52.689 90.8913 53.1311 91.1955C53.5732 91.4996 53.7969 91.9858 53.7969 91.9858C53.7969 91.9858 52.1778 91.0936 51.4428 90.8095C50.7078 90.5254 49.5535 90.1745 50.0588 90.5221C50.564 90.8697 51.1955 91.3041 51.5745 91.5648C51.9534 91.8255 51.9763 92.0627 52.585 92.2599C53.1936 92.4571 53.5383 92.3618 54.2216 92.7211C54.9048 93.0803 55.1863 92.9416 55.8179 93.3761C56.4494 93.8105 56.7021 93.9843 56.9547 94.1581C57.2073 94.3319 57.9537 94.7346 58.4475 94.9635C58.9413 95.1924 59.2631 94.8599 59.757 95.0888C60.2508 95.3177 61.6805 96.0797 62.1743 96.3086C62.6681 96.5375 63.518 96.7898 64.0635 96.9435C64.6091 97.0973 65.5221 97.393 66.0791 97.6654C66.636 97.9377 66.2914 98.033 66.9861 98.5109C67.6808 98.9888 67.6633 99.4199 69.0991 99.6321C70.5348 99.8443 70.3971 99.6388 71.1724 99.729C71.9477 99.8192 73.2914 100.3 74.1527 100.671C75.014 101.042 75.485 101.034 75.8639 101.295C76.2428 101.555 76.4954 101.729 76.6392 101.385C76.7829 101.041 77.3688 101.001 77.3513 101.432C77.3339 101.863 77.8277 102.092 77.8277 102.092C78.7293 102.269 79.7975 102.339 80.1765 102.6C80.5554 102.86 80.9115 102.884 81.8762 103.104C82.841 103.325 82.841 103.325 83.3348 103.554C83.8286 103.783 84.3345 102.912 85.0064 103.153C85.6782 103.393 86.907 103.906 87.7455 104.04C88.5839 104.174 88.9743 104.553 89.8127 104.687C90.6512 104.82 90.3294 105.153 88.3253 104.55C86.3212 103.946 86.0511 104.204 86.6712 104.519C87.2913 104.835 88.4113 104.83 89.4506 105.213C90.49 105.596 90.8461 105.619 91.2539 105.567C91.6617 105.515 91.616 105.041 92.3396 105.206C93.0631 105.372 94.4357 105.54 95.1593 105.706C95.8829 105.871 96.9968 106.416 97.7089 106.463C98.4211 106.509 99.2193 106.837 99.8683 106.84C100.517 106.844 101.407 106.902 101.155 106.728C100.902 106.555 99.7708 106.441 98.8692 106.264C97.9676 106.087 97.5141 105.664 97.5141 105.664C97.5141 105.664 98.5823 105.734 99.4322 105.986C100.282 106.239 100.678 106.068 101.402 106.234C102.126 106.399 102.763 106.284 102.574 106.153C102.384 106.023 101.333 105.522 102.046 105.569C102.758 105.615 103.545 105.824 104.561 105.97C105.578 106.115 107.134 105.746 107.134 105.746C107.134 105.746 107.002 106.208 106.249 106.356C105.497 106.503 104.974 106.586 105.761 106.795C106.548 107.004 106.077 107.012 107.082 107.039C108.087 107.066 109.574 107.203 110.935 107.253C112.297 107.303 112.486 107.433 113.124 107.318C113.761 107.203 113.784 107.44 113.761 107.203C113.738 106.965 113.589 106.641 113.589 106.641C114.543 106.743 115.042 106.422 115.703 106.544C116.363 106.666 117.949 105.984 118.713 105.956C119.477 105.928 120.723 106.009 121.297 105.851C121.872 105.692 122.394 105.608 123.262 105.43C124.129 105.251 125.996 104.43 126.622 104.196C127.248 103.962 128.093 103.546 128.644 103.15C129.196 102.754 131 101.89 133.131 100.144C135.946 98.7569 142.646 92.3986 143.458 89.1903ZM103.513 100.596C99.6994 100.188 94.502 99.4929 93.3592 99.2607C92.2795 99.0719 88.3633 97.5965 86.3303 97.3057C84.3491 96.9398 79.3303 95.0383 77.4525 94.522C75.5747 94.0057 64.8768 90.0807 61.7131 88.4582C58.5493 86.8357 49.5633 82.3158 47.9844 81.2297C46.4687 80.187 45.3837 79.3298 44.7636 79.014C44.1434 78.6982 43.1041 78.3155 42.2831 77.7507C41.4621 77.1859 40.9911 77.1943 40.3596 76.7599C39.6649 76.282 39.1596 75.9344 38.4649 75.4565C37.7702 74.9786 19.4903 61.5173 17.4303 57.8846C17.0802 57.3114 27.7696 66.6588 28.6651 67.3857C29.5607 68.1126 36.8921 73.8206 39.6655 75.0638C42.3872 76.3822 49.3456 81.2798 51.1428 82.1838C53.0032 83.1312 65.7677 88.921 67.0193 89.6713C68.271 90.4215 75.1104 92.2461 77.304 92.9797C79.4344 93.6697 87.7606 96.8495 90.3849 97.7685C93.0091 98.6875 97.575 98.9481 100.28 99.4795C102.922 99.9674 113.007 100.59 115.068 100.569C115.195 100.656 107.441 100.972 103.513 100.596Z" fill="#FA9595" fill-opacity="0.43"/>
<path d="M97.7532 38.6486C97.2454 39.0548 98.134 40.4259 98.6419 40.0451C100.241 38.8517 101.841 37.6584 103.415 36.465C104.989 35.297 106.741 34.2053 108.189 32.885C108.747 32.3771 107.782 30.8537 107.148 31.26C105.497 32.3264 103.999 33.7228 102.45 34.9416C100.876 36.1857 99.3274 37.4045 97.7532 38.6486Z" fill="white"/>
<path d="M112.634 47.1037C113.599 46.9514 115.046 47.0022 115.833 46.3928C116.544 45.8342 115.528 44.5139 114.919 44.3616C113.853 44.0823 112.583 44.4631 111.517 44.6155C110.425 44.7678 109.333 44.9456 108.241 45.1233C105.982 45.4534 103.747 45.8088 101.513 46.1643C100.396 46.342 101.589 48.678 102.579 48.551C104.839 48.2463 107.099 47.9162 109.359 47.6116C110.425 47.4084 111.542 47.2561 112.634 47.1037Z" fill="white"/>
<path d="M68.9094 53.3752C69.5188 55.838 70.7629 57.9708 72.1086 60.0528C72.6672 60.9161 73.2511 61.7794 73.8351 62.6427C74.8507 64.1661 75.6378 65.8165 76.5519 67.3907C74.6222 67.3653 73.175 69.1426 73.759 71.3008C73.8859 71.707 74.0636 72.1133 74.2922 72.4941C73.3019 73.0273 72.9211 74.0937 73.0734 75.1601C73.2765 76.709 74.1652 77.8261 75.3585 78.5117C75.1808 79.4257 75.6378 80.3906 76.2472 81.0507C76.6789 81.5585 77.2374 81.9394 77.8722 82.2441C77.923 84.6816 78.6593 88.2616 81.7315 88.4393C83.1534 88.5155 84.296 87.703 85.0577 86.5604C85.4386 85.9765 85.7178 85.3417 85.921 84.7069C86.0987 84.1484 86.251 83.5644 86.2764 82.9804C86.3018 82.498 86.4796 82.4218 86.8096 82.1425C87.0635 81.9394 87.2921 81.7363 87.4698 81.4824C88.5616 80.1113 88.4092 78.1562 87.3428 76.8359C88.6885 75.6426 89.1202 73.6367 87.9268 72.3164C88.1045 72.1641 88.2569 72.0117 88.3838 71.834C89.1202 70.8946 89.0694 69.5996 88.3838 68.6602C88.1299 68.3047 87.7745 68 87.3682 67.7969C87.419 65.004 88.6885 62.4903 90.1358 60.0528C90.2627 59.8497 90.3897 59.6466 90.4912 59.4435C91.4561 57.8185 92.4717 56.2189 93.208 54.5939C94.3252 52.1056 94.8838 49.4904 94.4014 46.7736C93.919 44.0823 92.4717 41.5686 90.5166 39.6389C90.2881 39.4104 90.0342 39.1819 89.7803 38.9534C85.1593 35.0687 78.1515 35.1956 73.5558 39.0803C69.5441 42.5334 67.6399 48.2209 68.9094 53.3752ZM82.214 86.5858C81.4015 86.9413 80.4112 86.8651 79.8273 86.1288C79.1417 85.2401 79.1671 83.9198 79.1163 82.8534C79.1163 82.8281 79.1163 82.8027 79.0909 82.7519C80.132 83.082 81.2491 83.2343 82.214 83.2597C82.9757 83.2851 83.8136 83.2597 84.6007 83.1073C84.2198 84.5546 83.712 85.9257 82.214 86.5858ZM85.9971 80.3398C85.1085 81.0507 83.9405 81.3046 82.8233 81.33C81.5284 81.3808 80.2335 81.1523 79.0148 80.746C78.6847 80.6445 76.4503 80.0097 77.5675 79.4511C77.9992 79.2226 78.507 79.375 78.9894 79.3496C80.5382 79.2734 82.087 78.9941 83.5597 78.5879C84.1182 78.4355 84.6768 78.2832 85.21 78.08C85.4639 77.9785 85.7178 77.8769 85.9717 77.75C86.2764 77.5976 86.5811 77.2675 86.9112 77.5722C87.6475 78.3086 86.5811 79.8574 85.9971 80.3398ZM86.8858 74.8301C86.3018 75.2871 85.5909 75.4648 84.9053 75.6933C83.1534 76.2773 81.2999 76.6582 79.4464 76.8359C78.3038 76.9375 76.9328 77.1914 75.8664 76.6836C74.9523 76.2519 74.6476 75.541 75.5363 74.9824C76.8566 74.1445 78.9386 74.8047 80.4112 74.6269C81.9347 74.4492 83.4835 74.1699 84.9561 73.6875C85.7178 73.4336 86.5303 73.2051 87.2413 72.7988C87.2667 72.8242 87.2667 72.8242 87.2921 72.8242C88.0284 73.3828 87.3936 74.4238 86.8858 74.8301ZM88.2315 40.4768C89.1202 41.01 89.9073 41.7209 90.542 42.5334C91.3545 43.5745 91.9131 44.8186 92.1416 46.1389C92.5225 48.424 91.8115 50.7092 90.8467 52.7404C90.7451 52.9435 90.6436 53.1466 90.542 53.3498C89.3741 55.6095 87.9014 57.7677 86.7842 60.0782C86.0479 61.5763 85.4385 63.1505 85.1593 64.8262C84.9815 65.8672 84.9561 67.0098 85.2862 68.0508C85.4385 68.5332 85.6417 69.0411 85.9717 69.4219C86.1241 69.5996 86.3018 69.8028 86.5557 69.8535C86.6827 69.8789 87.4952 69.7266 87.0889 70.0567C86.251 70.6914 85.2608 71.0215 84.2452 71.2754C83.6866 71.4024 83.1026 71.5547 82.544 71.6563C82.6202 70.0313 82.7726 68.4317 82.7979 66.8067C82.8487 64.877 82.8995 62.9473 82.9503 61.0177C83.4835 60.8653 83.9913 60.6114 84.4229 60.256C84.4991 60.1798 84.5753 60.129 84.6514 60.0528C85.9717 58.7833 86.1241 56.7013 84.6514 55.4064C84.0167 54.8478 83.128 54.6447 82.4171 55.1271C81.4523 55.7872 81.4269 57.0822 81.4523 58.1486C81.4523 58.3009 81.4523 58.4786 81.4523 58.631C81.3761 58.3771 81.2999 58.1232 81.1983 57.8947C80.8429 56.9806 80.2081 56.0665 79.2433 55.7365C78.4308 55.4572 77.5421 55.7111 77.2374 56.5744C76.8058 57.8439 77.5675 59.1896 78.5831 60.0782C78.9132 60.3575 79.2433 60.586 79.5734 60.7384C79.9034 60.8907 80.2843 61.0177 80.6651 61.0938C80.9444 62.5665 81.1476 64.0391 81.2999 65.5372C81.2491 67.6192 81.2237 69.7266 81.4269 71.8086C81.4269 71.834 81.4269 71.8594 81.4523 71.8848C80.8683 71.9863 80.2589 72.0879 79.6749 72.1641C78.8878 72.2656 78.0499 72.3672 77.2628 72.2656C76.8312 72.2149 76.2218 72.1895 75.8917 71.8594C75.4601 71.4024 75.9171 70.6406 76.298 70.3106C76.7804 69.8789 77.5167 69.7266 78.1007 70.0059C78.6339 70.2344 79.0402 69.9805 79.0402 69.3965C79.0402 68.6602 78.4562 68.2539 77.9992 67.7461C76.6281 66.1719 76.0695 64.0899 75.0285 62.338C74.5714 61.5763 74.089 60.8399 73.6066 60.1036C72.8703 58.9864 72.134 57.8439 71.5754 56.6251C69.3918 51.9787 70.3059 46.7229 73.759 42.9143C77.2882 38.9788 83.6104 37.6839 88.2315 40.4768ZM79.2941 57.4376C80.005 57.463 80.1573 58.5802 80.2843 59.2911C79.7257 59.215 79.2179 59.0118 78.8624 58.631C78.4562 58.1993 78.5831 57.4122 79.2941 57.4376ZM82.8741 58.7833C82.8741 58.1739 82.9503 57.5646 83.2804 57.1583C83.4835 56.9044 83.9659 56.549 84.1944 56.879C84.3468 57.1075 83.8643 57.8185 83.7374 58.0216C83.5089 58.3263 83.2042 58.5802 82.8741 58.7833Z" fill="white"/>
<path d="M60.4832 37.557C61.6004 39.0043 62.7176 40.4769 63.8348 41.9496C64.4441 42.7367 65.0789 41.8988 64.5457 41.1879C63.4539 39.7152 62.3367 38.2426 61.2449 36.7445C60.6863 36.0082 60.1531 35.2719 59.5946 34.5356C59.1629 33.977 58.8074 33.393 58.1219 33.1391C57.9188 33.0629 57.7664 33.2914 57.7918 33.4692C57.8934 34.2055 58.3504 34.7641 58.7821 35.3481C59.366 36.1098 59.9246 36.8207 60.4832 37.557Z" fill="white"/>
<path d="M71.5012 33.9767C71.5266 34.383 71.8313 34.9162 72.2122 35.0939C72.5676 35.2463 72.8723 35.0939 72.8469 34.6877C72.7454 32.3264 72.6692 29.9904 72.5676 27.6291C72.4661 25.2932 72.5676 22.8557 72.2122 20.5452C72.136 20.0628 71.8821 19.5296 71.3997 19.3011C70.968 19.0979 70.7141 19.3265 70.6887 19.7581C70.6126 20.9007 70.7649 22.0686 70.8411 23.2112C70.9172 24.4299 70.968 25.6487 71.0442 26.8674C71.1965 29.2287 71.3489 31.59 71.5012 33.9767Z" fill="white"/>
<path d="M87.7252 19.2251C87.2428 20.0376 87.1666 21.1294 86.9635 22.0434C86.735 23.1352 86.5065 24.227 86.278 25.3188C85.8209 27.4516 85.3893 29.5844 84.9576 31.7172C84.8307 32.4027 86.1764 33.9008 86.4303 32.8851C86.9381 30.8031 87.4459 28.7211 87.9283 26.6137C88.1568 25.5981 88.4107 24.5825 88.6393 23.5415C88.8678 22.5005 89.2232 21.4341 89.1978 20.3423C89.1725 19.936 88.1822 18.438 87.7252 19.2251Z" fill="white"/>
<path d="M49.081 57.4376C48.4462 57.5392 47.8369 57.6662 47.2021 57.7677C46.5674 57.8693 46.1611 57.9201 46.0088 58.5802C45.958 58.8341 46.1357 59.1388 46.3388 59.2911C46.8974 59.672 47.1513 59.7228 47.8369 59.6212C48.5224 59.5197 49.208 59.3673 49.8681 59.215C51.2138 58.9357 52.5849 58.6818 53.9306 58.4025C56.6474 57.8439 59.3641 57.3615 62.0809 56.8537C62.8172 56.7267 62.0301 55.2033 61.3954 55.3048C58.6532 55.7873 55.9364 56.2951 53.1943 56.7521C51.8486 56.9806 50.4521 57.2091 49.081 57.4376Z" fill="white"/>
</g>
<defs>
<clipPath id="clip0_920_8706">
<rect width="1920" height="9211" fill="white" transform="translate(-698 -3976)"/>
</clipPath>
</defs>
</svg>
