<svg width="137" height="108" viewBox="0 0 137 108" fill="none" xmlns="http://www.w3.org/2000/svg">
<g clip-path="url(#clip0_920_8706)">
<circle cx="83" cy="53" r="50" fill="#FA9595"/>
<path opacity="0.75" d="M17.2515 93.3738C17.4551 95.3947 17.6665 95.758 18.1725 97.7974C18.7089 99.7219 18.3986 101.361 17.7079 102.347C17.0171 103.332 15.9881 103.736 14.905 103.88C13.8219 104.024 13.4652 103.746 12.5458 103.503C11.6265 103.26 9.8538 103.222 9.122 102.967C8.43248 102.784 7.23442 102.898 6.20013 102.625C5.16584 102.351 3.59923 101.999 3.52782 100.873C3.45642 99.7481 3.50526 99.3306 4.29248 98.6781C5.03742 97.9528 5.72819 96.9674 5.78361 96.0599C5.83903 95.1525 6.79783 92.4551 6.75023 91.7048C6.70263 90.9546 6.86231 88.7222 7.17794 87.7606C7.49357 86.7989 7.368 85.4133 7.64135 84.379C7.91471 83.3447 8.73604 79.0742 9.08204 77.9976C9.42805 76.9211 10.1993 74.2356 10.4119 73.4312C10.7394 72.6571 11.2808 69.9109 11.5476 69.3667C11.8144 68.8224 12.3426 67.0563 12.5975 66.3245C12.822 65.7077 13.1442 64.256 13.6778 63.1675C14.2114 62.079 14.9826 59.3936 15.4673 58.7225C15.9521 58.0515 16.3469 56.5575 16.7405 56.2312C17.1341 55.9049 17.7219 55.0767 18.2185 54.5932C18.7574 54.1824 20.2461 53.8996 21.5775 53.5138C22.9816 53.0857 25.1598 52.9852 26.1584 52.6959C27.1992 52.4792 28.2335 52.7525 28.3538 53.4605C28.474 54.1685 27.6683 55.1236 27.3593 55.5952C27.0502 56.0667 25.353 58.9993 24.941 59.6281C24.5289 60.2568 21.9997 66.1047 21.4107 68.1006C20.8217 70.0965 21.0081 71.2523 20.415 71.4029C19.9368 71.5839 19.888 72.0013 19.966 72.6367C20.0862 73.3447 19.8617 73.9615 19.6068 74.6933C19.4246 75.3829 18.3246 80.0101 18.2388 81.0325C18.2256 82.0126 17.7873 84.6016 17.6288 85.6662C17.4704 86.7309 17.9182 86.6648 17.4757 87.4085C17.0333 88.1522 17.6555 89.0544 17.2857 89.7558C17.2183 90.4757 17.1075 92.2906 17.2515 93.3738Z" fill="#FA9595" fill-opacity="0.43"/>
<path opacity="0.75" d="M57.4112 41.8987C56.9819 41.6623 55.8565 41.7337 54.525 42.1195C53.9201 42.0826 53.3151 42.0456 52.9399 42.0694C52.0325 42.014 48.8069 42.8213 48.0685 43.0565C47.4754 43.2071 47.1848 43.3762 47.1664 43.6787C46.6697 44.1622 46.2154 44.7183 45.5431 45.4012C44.4772 46.4105 43.5791 48.878 42.6507 51.4604C41.6496 54.0851 37.9732 69.1582 37.5414 71.2572C37.1096 73.3561 36.1693 75.751 35.8073 74.7947C35.403 73.7657 34.2469 68.6037 33.6933 65.814C33.5188 64.8458 32.0655 60.3429 31.7036 59.3866C31.4142 58.388 29.1618 54.3501 28.4366 53.6052C27.7113 52.8603 27.179 52.781 26.2412 52.8405C25.3033 52.9 24.1475 53.0864 23.4395 53.2066C22.7316 53.3269 20.2324 53.7114 19.3065 53.9585C18.4532 54.1633 18.0161 55.5846 18.0821 56.0324C18.0821 56.0324 18.958 57.3704 19.5921 58.4601C20.1839 59.4772 21.9529 63.0184 22.3333 63.6722C22.7138 64.3261 23.8552 66.2875 24.0415 67.4433C24.2278 68.5991 25.3602 73.386 25.4554 74.8865C25.5928 76.4597 26.5007 81.8635 26.481 83.3337C26.5035 84.8765 27.241 91.1573 27.4273 92.3131C27.6136 93.4689 28.2305 93.6934 29.0891 94.1662C29.9055 94.5664 31.3519 94.211 32.5618 94.2849C33.7718 94.3588 36.5126 94.2225 37.535 94.3083C37.535 94.3083 38.745 94.3822 39.7501 93.6028C40.7553 92.8234 40.61 92.908 42.409 90.9859C44.2079 89.0639 43.55 87.5991 44.526 85.7669C45.5021 83.9347 46.3484 78.8716 46.7802 76.7727C47.212 74.6737 49.6628 62.8422 50.4579 60.5319C50.6824 59.915 51.0284 58.8385 51.4351 57.5321C51.6941 58.6456 51.9834 59.6441 52.1763 60.3099C52.8396 62.4523 53.5623 65.5326 54.1357 66.8522C54.824 68.2021 56.2018 69.7343 57.1819 69.7474C58.2346 69.7183 60.5158 69.4606 62.0706 69.6256C63.6253 69.7906 66.2089 69.5513 67.1534 69.0018C68.0978 68.4522 67.2576 67.6769 66.7926 66.8778C66.3276 66.0787 65.8757 64.2994 65.6049 62.9983C65.2613 61.7395 64.223 59.6209 64.0128 58.09C63.7301 56.6013 62.0773 51.9228 61.969 51.4023C61.8606 50.8819 59.5499 44.7385 58.9343 43.3463C58.8378 43.0135 58.5961 42.7652 58.3966 42.5895C58.5604 42.2025 57.9132 42.0929 57.4112 41.8987Z" fill="#FA9595" fill-opacity="0.43"/>
<path opacity="0.75" d="M57.1821 69.7492C58.5255 69.551 61.9493 70.0871 63.6255 69.7924C65.2594 69.4251 67.8484 69.8634 69.1955 66.1622C70.5426 62.4609 70.7311 55.933 72.2907 51.4272C73.8927 46.9942 75.9252 41.6298 77.0663 38.243C77.0663 38.243 78.2302 41.7472 79.4377 44.1565C80.6452 46.5658 83.2937 47.942 85.5868 47.8718C87.8799 47.8016 90.3909 47.6047 92.2428 47.1105C94.022 46.6587 95.924 44.5794 96.8273 42.7895C97.6581 41.0419 98.2179 37.9932 98.8849 36.6326C99.5096 35.1994 101.261 27.1788 102.313 27.1496C103.366 27.1205 106.959 27.9471 108.804 27.9431C110.65 27.939 114.976 27.8528 116.187 26.759C117.398 25.6653 118.423 23.4157 118.902 22.067C119.382 20.7183 119.499 18.4133 119.615 17.276C119.804 16.0964 119.696 15.576 120.987 12.7822C122.279 9.98841 122.158 10.4481 122.758 8.63973C123.359 6.83137 123.214 6.91592 122.912 6.89744C122.651 6.95162 122.609 6.87897 122.452 6.77595C122.295 6.67293 122.21 6.52764 122.313 6.37044C122.374 6.1406 122.465 5.79583 122.671 5.48145C122.877 5.16705 123.289 4.53828 123.071 4.6651C122.853 4.79192 122.823 4.90684 122.666 4.80382C122.509 4.7008 122.424 4.55551 122.6 4.35604C122.775 4.15657 122.981 3.84218 122.709 3.70879C122.437 3.57539 121.977 3.4539 121.977 3.4539C121.977 3.4539 121.966 3.26633 121.79 3.4658C121.656 3.73791 121.493 4.12496 121.347 4.2095C121.202 4.29405 120.991 3.93081 121.021 3.81589C121.052 3.70097 121.276 3.08409 121.555 2.72743C121.791 2.29812 121.676 2.26774 121.882 1.95335C122.088 1.63897 122.064 1.26383 121.816 1.50557C121.568 1.74732 121.259 2.2189 121.053 2.53329C120.919 2.80541 120.713 3.11979 120.683 3.23471C120.58 3.39191 120.55 3.50683 120.435 3.47646C120.32 3.44609 120.036 3.12512 120.036 3.12512C120.036 3.12512 119.982 2.8649 120.042 2.63507C120.103 2.40522 120.248 2.32068 120.351 2.16348C120.412 1.93364 120.182 1.8729 119.995 1.88479C119.88 1.85442 119.287 2.00504 119.256 2.11996C119.153 2.27716 118.814 2.86367 118.669 2.94822C118.523 3.03276 114.159 10.2399 113.626 11.3284C113.123 12.3019 111.255 16.1115 110.843 16.7403C110.431 17.3691 109.874 18.0824 109.517 17.8037C109.16 17.525 104.829 16.9336 103.401 16.9865C102.015 17.1121 97.9075 17.0714 96.5456 17.5721C95.1534 18.1878 92.8591 19.4256 92.1856 21.2762C91.512 23.1269 87.8274 34.5094 87.8274 34.5094C87.8274 34.5094 85.0809 28.6196 84.7427 28.0384C84.4045 27.4573 84.0056 27.1059 83.1285 26.9356C82.2514 26.7653 74.9243 27.0418 74.1437 27.2043C73.363 27.3669 70.724 28.5136 70.3422 29.0274C69.9605 29.5413 66.4644 34.3959 65.4514 36.833C64.4385 39.2701 62.4298 45.0096 62.0111 46.1284C61.5198 47.2896 58.9668 52.7622 58.3606 53.893C57.7121 54.9511 56.5583 64.6664 55.7157 66.2265C54.9153 67.8592 54.642 68.8934 55.2285 69.2329C55.7727 69.4997 57.1821 69.7492 57.1821 69.7492Z" fill="#FA9595" fill-opacity="0.43"/>
<path d="M72.7361 19.3094C69.7722 19.7008 66.8083 20.1812 63.8821 20.7683C63.5045 20.8395 63.429 21.2843 63.4101 21.5867C62.5984 30.5714 61.7866 39.5917 62.0509 48.6298C62.2963 56.9384 63.429 65.2648 66.1664 73.1821C67.6578 77.4876 69.6023 81.6508 72.0943 85.5116C72.2264 85.7073 72.4152 86.0097 72.7361 85.9564C81.9677 84.3551 91.1427 82.2735 100.525 81.5974C103.168 81.4017 105.83 81.3484 108.492 81.4195C109.209 81.4373 109.134 79.8361 108.473 79.4091C106.038 72.0434 104.395 64.482 103.508 56.8139C102.602 48.8789 102.545 40.8727 103.3 32.9199C103.716 28.472 104.433 24.0419 105.396 19.6652C105.49 19.2026 105.32 18.3842 104.697 18.3487C94.0311 17.6904 83.3081 17.9395 72.7361 19.3094ZM95.9756 19.9143C98.6563 19.9321 101.337 20.0211 104.018 20.1634C102.489 27.7248 101.715 35.4285 101.715 43.1322C101.715 51.2629 102.583 59.3936 104.282 67.3464C105.151 71.3851 106.227 75.3882 107.51 79.3201C98.3165 79.1244 89.2548 80.7434 80.2875 82.4158C77.7767 82.8784 75.247 83.3588 72.7361 83.7858C68.6017 77.2029 66.0531 69.8551 64.6939 62.3292C63.1836 53.9672 63.0703 45.4451 63.5234 36.9764C63.7688 32.1904 64.1842 27.4223 64.6184 22.672C74.8883 20.6438 85.4414 19.8254 95.9756 19.9143Z" fill="white"/>
<path d="M76.1358 58.6464C76.3246 58.1304 76.0414 57.2053 75.5506 57.3298C73.1719 57.8814 70.8121 58.4685 68.4334 59.02C67.9803 59.1268 68.0558 59.7495 68.1313 60.0519C68.9808 63.3434 69.0563 66.7771 69.9059 70.0863C69.9436 70.2465 70.1702 70.6379 70.4156 70.5667C72.681 69.855 75.022 69.4992 77.1741 68.5029C77.4007 68.3961 77.4195 67.9691 77.3818 67.7912C76.8721 64.7311 76.6266 61.671 76.1358 58.6464ZM70.5666 68.9833C69.9436 66.1722 69.7926 63.2722 69.1885 60.4433C71.2651 59.9808 73.3606 59.5182 75.4373 59.0556C75.8337 61.7955 76.0225 64.5532 76.4378 67.2931C74.5689 68.0937 72.53 68.4139 70.5666 68.9833Z" fill="white"/>
<path d="M67.6399 53.8606C67.6587 54.0919 67.8664 54.5723 68.1873 54.5189C70.8303 54.0563 73.53 54.0741 76.173 53.6115C76.5317 53.5404 76.5505 53.0422 76.5128 52.7931C76.3429 51.0674 76.1918 49.3238 76.0219 47.598C76.796 46.4772 77.57 45.3563 78.344 44.2532C79.892 42.0115 81.4212 39.7342 83.007 37.5102C83.2335 37.19 83.1958 36.674 83.007 36.336C82.8748 36.1047 82.4973 35.7845 82.2707 36.1225C80.7604 38.382 79.1746 40.606 77.6266 42.8655C77.0225 43.7373 76.4184 44.609 75.8331 45.4808C75.7576 44.698 75.6821 43.8974 75.6066 43.1146C75.5877 42.8655 75.3612 42.3495 75.0214 42.3851C73.7943 42.563 72.5672 42.7231 71.3401 42.9011C71.2645 42.6698 71.1702 42.4385 71.0946 42.1894C70.8115 41.4244 70.2451 42.0293 70.4528 42.5986C70.4905 42.7409 70.5472 42.8655 70.5849 43.0078C69.5088 43.1679 68.4328 43.3281 67.3756 43.506C67.3189 43.4704 67.2434 43.4526 67.1679 43.4704C67.0546 43.4882 66.9791 43.5416 66.9414 43.6305C66.6393 43.8618 66.6771 44.5379 66.9225 44.8937C67.149 47.8649 67.3945 50.8717 67.6399 53.8606ZM74.7193 44.0219C74.8137 44.9115 74.8892 45.8011 74.9836 46.6907C74.7193 47.0821 74.4361 47.4735 74.1718 47.8827C73.9453 48.2029 73.6999 48.5232 73.4922 48.8612C72.9636 47.4023 72.4161 45.9434 71.8875 44.4667C72.8315 44.3244 73.7754 44.1643 74.7193 44.0219ZM71.1135 44.5913C71.7743 46.5127 72.435 48.4164 73.0769 50.3379C73.1335 50.5158 73.3978 50.9784 73.681 50.7649C74.1718 50.3913 74.4739 49.822 74.8137 49.3416C74.9459 49.1637 75.0591 48.9858 75.1913 48.8078C75.3045 49.9287 75.4178 51.0496 75.5311 52.1882C73.1902 52.5796 70.8115 52.6508 68.4705 53.0244C68.244 50.3735 67.9986 47.7404 67.772 45.0894C68.867 44.9115 69.9997 44.7514 71.1135 44.5913Z" fill="white"/>
<path d="M67.7508 40.3388C67.9774 40.3922 68.1095 40.2498 68.2039 40.0897C69.9218 39.7695 71.6587 39.8762 73.3766 39.5738C74.094 39.4492 74.7925 39.3958 75.5099 39.2891C76.0951 39.2001 76.4538 38.9511 76.6426 38.4173C77.0957 37.1363 76.9069 35.5529 76.9069 34.2363C76.9069 32.3148 76.9447 30.4111 76.9635 28.4897C76.9635 28.2228 76.8125 27.5645 76.3972 27.6001C73.4333 27.9025 70.4693 28.116 67.5054 28.3651C67.2033 28.3829 67.1278 28.8099 67.1278 29.0234C67.0712 32.475 67.26 35.9087 67.2411 39.3603C67.2411 39.6627 67.3732 40.2676 67.7508 40.3388ZM76.0385 29.1479C76.0196 30.5535 76.0196 31.959 76.0007 33.3645C75.9819 34.6633 76.1329 36.0866 75.8686 37.3676C75.7553 37.8836 75.189 37.8658 74.717 37.9014C74.0185 37.9547 73.3766 38.1326 72.697 38.2394C71.2433 38.4707 69.7519 38.4707 68.2983 38.7554C68.2794 35.8198 68.1661 32.8842 68.1284 29.9486C70.7714 29.6105 73.3955 29.4148 76.0385 29.1479Z" fill="white"/>
<path d="M80.5317 29.9666C83.7222 29.8776 86.8938 29.8065 90.0843 29.7175C91.6512 29.6819 93.2181 29.6285 94.8039 29.593C95.5968 29.5752 96.3708 29.5574 97.1637 29.5218C97.8245 29.504 98.8817 29.6819 99.4291 29.3083C99.6557 29.1482 99.6179 28.6144 99.3725 28.4899C98.7873 28.1696 98.051 28.3476 97.3714 28.3831C96.5407 28.4009 95.7101 28.4365 94.8794 28.4543C93.2747 28.5077 91.6512 28.5433 90.0465 28.5966C86.8183 28.6856 83.5901 28.7923 80.3618 28.8813C79.9276 28.8991 80.0598 29.9844 80.5317 29.9666Z" fill="white"/>
<path d="M78.8909 35.4992C82.0625 35.2679 85.2341 35.001 88.3868 34.7342C89.9537 34.6096 91.5018 34.4673 93.0687 34.3427C94.6356 34.2182 96.3158 33.9157 97.9016 34.0403C98.4491 34.0759 98.2792 32.4924 97.6939 32.6526C96.2214 33.044 94.5601 33.044 93.0309 33.2041C91.4263 33.3642 89.8216 33.5065 88.2169 33.6667C85.0642 33.9691 81.8926 34.2716 78.7399 34.6096C78.3623 34.6096 78.4945 35.5348 78.8909 35.4992Z" fill="white"/>
<path d="M88.515 45.5872C89.7987 45.4627 91.0824 45.3203 92.3662 45.1958C93.0081 45.1246 93.6499 45.0712 94.2918 45.0001C94.9525 44.9289 95.7266 44.9645 96.3496 44.751C96.7271 44.6265 96.7082 43.7191 96.274 43.6479C95.651 43.5768 95.0092 43.7369 94.3862 43.7903C93.7066 43.8614 93.0081 43.9326 92.3284 44.0038C91.0447 44.1461 89.761 44.2884 88.4772 44.413C85.8153 44.6976 83.1724 44.9823 80.5105 45.267C80.0574 45.3203 80.2084 46.4234 80.6804 46.37C83.2856 46.1209 85.8909 45.8541 88.515 45.5872Z" fill="white"/>
<path d="M91.8413 50.2848C92.351 50.267 92.1622 48.9149 91.6525 49.0394C89.6325 49.4842 87.4992 49.6087 85.4415 49.8756C83.3648 50.1247 81.3071 50.3916 79.2304 50.6406C78.8151 50.694 78.9661 51.6903 79.3815 51.637C81.4581 51.4057 83.5347 51.1744 85.6114 50.9253C87.6691 50.694 89.7835 50.3204 91.8413 50.2848Z" fill="white"/>
<path d="M98.7459 57.508C92.7615 58.2019 86.7581 58.8246 80.7547 59.4473C80.2828 59.5007 80.4338 60.6571 80.9246 60.6038C86.928 60.0166 92.9314 59.4117 98.9347 58.878C99.52 58.8424 99.3312 57.4369 98.7459 57.508Z" fill="white"/>
<path d="M93.3491 63.041C91.5746 63.379 89.6867 63.4324 87.8932 63.6103C86.0809 63.7882 84.2497 63.9839 82.4374 64.1618C81.9088 64.2152 82.0787 65.4962 82.6261 65.4606C84.4574 65.3005 86.2697 65.1404 88.1009 64.9625C89.9132 64.8023 91.7633 64.4999 93.5757 64.4821C94.142 64.4821 93.9721 62.9342 93.3491 63.041Z" fill="white"/>
</g>
<defs>
<clipPath id="clip0_920_8706">
<rect width="1920" height="9211" fill="white" transform="translate(-317 -3975)"/>
</clipPath>
</defs>
</svg>
