<svg width="18" height="18" viewBox="0 0 18 18" fill="none" xmlns="http://www.w3.org/2000/svg">
<mask id="mask0_2081_253" style="mask-type:alpha" maskUnits="userSpaceOnUse" x="0" y="0" width="18" height="18">
<rect width="18" height="18" fill="#D9D9D9"/>
</mask>
<g mask="url(#mask0_2081_253)">
<path d="M1.5 8C1.22386 8 1 8.22386 1 8.5C1 8.77614 1.22386 9 1.5 9L1.5 8ZM15.8536 8.85355C16.0488 8.65829 16.0488 8.34171 15.8536 8.14645L12.6716 4.96447C12.4763 4.7692 12.1597 4.7692 11.9645 4.96447C11.7692 5.15973 11.7692 5.47631 11.9645 5.67157L14.7929 8.5L11.9645 11.3284C11.7692 11.5237 11.7692 11.8403 11.9645 12.0355C12.1597 12.2308 12.4763 12.2308 12.6716 12.0355L15.8536 8.85355ZM1.5 9L15.5 9L15.5 8L1.5 8L1.5 9Z" fill="black"/>
</g>
</svg>
