<svg width="393" height="79" viewBox="0 0 393 79" fill="none" xmlns="http://www.w3.org/2000/svg">
<mask id="mask0_2002_1172" style="mask-type:alpha" maskUnits="userSpaceOnUse" x="0" y="0" width="393" height="79">
<rect width="393" height="79" fill="#D9D9D9"/>
</mask>
<g mask="url(#mask0_2002_1172)">
<path d="M193.262 0.16289C169.184 -0.5701 145.183 1.23183 122.006 5.24292C105.284 8.06289 87.866 6.04717 70.8475 5.62977C51.1106 5.14111 30.7296 2.28042 11.2504 5.13093C-6.07733 7.60477 -6.74725 19.3326 -5.67795 28.0878C-5.51047 38.9197 -2.50872 49.6397 -0.563375 60.3291C-4.1191 67.2518 1.91017 85.7802 17.3312 76.404C20.7066 66.4781 22.0335 53.4064 43.9605 53.5592C54.7179 47.8785 57.565 36.2626 73.6173 34.5014C85.2765 39.2048 101.084 41.5463 111.906 34.0229C122.882 26.805 141.163 29.6148 147.991 37.9322C160.475 48.7438 172.959 35.4278 185.378 33.0354C200.258 29.9813 214.829 37.0974 229.966 35.0104C243.635 34.593 258.902 29.5639 270.767 34.9595C279.952 46.046 297.499 37.7388 309.983 34.5116C328.522 28.4746 330.57 48.357 348.065 41.9433C361.811 44.468 364.195 54.2412 369.039 61.2861C370.636 67.0177 381.368 82.4613 388.428 70.1634C395.475 59.3823 401.62 47.4102 395.488 35.8961C389.819 29.0651 391.636 19.638 380.286 14.4256C367.029 7.3808 348.014 9.58995 331.794 8.85696C313.152 8.70426 294.562 9.58995 276.049 7.8491C252.975 5.61959 230.855 0.17307 207.24 0.223972C202.577 0.152709 197.926 0.152709 193.262 0.152709V0.16289Z" fill="white"/>
<path d="M130.341 23.0383C115.371 22.7125 100.066 28.098 86.2299 30.1951C76.1038 31.7324 62.8085 25.0438 51.5229 26.184C38.3306 27.5177 26.4782 41.5565 14.3424 39.7138C3.585 38.0951 -2.21238 31.824 -5.96135 24.8402C-5.90982 25.9499 -5.81964 27.0392 -5.69081 28.0776C-5.52333 38.9096 -2.50869 49.6295 -0.576229 60.319C-4.13195 67.2416 1.89732 85.77 17.3183 76.3938C20.6937 66.4679 22.0207 53.3963 43.9476 53.549C54.705 47.8683 57.5522 36.2525 73.6045 34.4811C85.2636 39.1844 101.071 41.5259 111.893 34.0026C122.869 26.7847 141.15 29.5945 147.978 37.9119C160.462 48.7235 172.946 35.4075 185.365 33.0151C200.245 29.961 214.816 37.0771 229.966 34.9901C243.635 34.5727 258.902 29.5436 270.767 34.9392C279.953 46.0257 297.499 37.7184 309.983 34.4913C328.522 28.4543 330.583 48.3366 348.065 41.923C361.811 44.4477 364.208 54.2209 369.039 61.2556C370.636 66.9871 381.368 82.4308 388.428 70.1329C395.475 59.3518 401.62 47.3797 395.488 35.8656C392.666 32.4755 391.7 28.4441 390.051 24.5959C382.527 27.253 375.223 38.6652 365.548 37.1891C361.193 36.5273 356.401 30.6736 354.803 30.6736C350.59 30.6736 347.782 34.6032 343.234 33.6768C334.77 31.9665 323.806 25.6547 315.136 25.6547C307.896 25.6547 301.197 31.8545 292.823 30.1646C288.468 29.2891 284.771 26.5302 280.429 25.6547C265.691 22.6718 249.458 29.513 234.153 27.6602C230.069 27.1614 189.758 23.8425 186.215 24.148C178.331 24.83 170.962 27.5584 163.077 28.159C152.23 28.9837 144.139 23.9647 133.33 23.1503C132.338 23.079 131.346 23.0281 130.341 23.0078V23.0383Z" fill="#E5EFFB"/>
<path d="M124.853 26.0822C113.374 25.9499 100.749 31.824 89.9402 33.463C80.8834 34.8374 70.7831 29.4417 61.4299 31.712C51.6131 34.0942 51.3554 41.4648 43.2519 44.7429C37.4288 47.0946 35.6252 38.8383 25.4862 45.4962C19.6759 49.3139 18.2202 60.4818 7.3082 59.2805C3.1985 58.8224 0.209627 55.7785 -2.25104 51.9404C-1.6713 54.7401 -1.07868 57.5397 -0.576239 60.3393C-4.13196 67.262 1.89731 85.7903 17.3183 76.4142C20.6937 66.4883 22.0207 53.4166 43.9476 53.5693C54.705 47.8886 57.5521 36.2728 73.6044 34.5014C85.2636 39.2048 101.071 41.5462 111.893 34.0229C122.869 26.805 141.15 29.6148 147.978 37.9322C160.462 48.7438 172.946 35.4278 185.365 33.0354C200.245 29.9813 214.816 37.0974 229.966 35.0104C243.635 34.593 258.902 29.5639 270.767 34.9595C279.952 46.046 297.499 37.7388 309.983 34.5116C328.522 28.4746 330.583 48.3569 348.065 41.9433C361.811 44.468 364.208 54.2412 369.039 61.2759C370.636 67.0075 381.368 82.4511 388.428 70.1532C395.475 59.3722 401.62 47.4 395.488 35.8859C394.444 34.6236 393.684 33.2492 393.027 31.8545C389.136 32.1395 388.376 37.7999 387.036 38.7263C381.587 42.4421 368.652 44.9567 360.588 43.735C353.27 42.6254 355.009 38.3903 350.255 36.4662C345.708 34.6337 330.995 36.3339 324.232 34.9595C319.439 33.9924 318.537 30.1951 312.663 30.1951C302.987 30.1951 295.966 36.2932 285.389 34.4607C280.622 33.6361 282.246 30.7448 278.78 29.6962C271.527 27.4973 249.175 30.358 240.35 30.9484C222.468 32.1497 204.728 28.9429 187.053 28.9429C176.257 28.9429 167.213 34.3589 156.069 33.4528C148.313 32.8216 138.599 27.1817 127.146 26.184C126.386 26.1229 125.626 26.0822 124.866 26.072L124.853 26.0822Z" fill="#C6E0FA"/>
</g>
</svg>
