<svg width="1920" height="74" viewBox="0 0 1920 74" fill="none" xmlns="http://www.w3.org/2000/svg">
<mask id="mask0_2002_1144" style="mask-type:alpha" maskUnits="userSpaceOnUse" x="0" y="0" width="1920" height="74">
<rect width="1920" height="74" fill="#D9D9D9"/>
</mask>
<g mask="url(#mask0_2002_1144)">
<g clip-path="url(#clip0_2002_1144)">
<path d="M176.452 0.153925C154.043 -0.532673 131.705 1.15521 110.135 4.91243C94.5713 7.55393 78.3605 5.66578 62.5215 5.2748C44.1526 4.81707 25.1841 2.13743 7.05493 4.80753C-9.07186 7.1248 -9.69535 18.1104 -8.70017 26.3114C-8.54429 36.4578 -5.75058 46.4993 -3.94006 56.5122C-7.24935 62.9967 -1.63795 80.3524 12.7143 71.5696C15.8557 62.272 17.0907 50.0276 37.498 50.1707C47.5098 44.8495 50.1596 33.9689 65.0994 32.3191C75.9505 36.7248 90.6625 38.9181 100.734 31.8709C110.95 25.1098 127.964 27.7418 134.319 35.5328C145.937 45.6601 157.556 33.1869 169.114 30.9459C182.963 28.0851 196.524 34.7508 210.612 32.7959C223.334 32.405 237.542 27.6941 248.585 32.7483C257.134 43.133 273.465 35.3516 285.083 32.3287C302.337 26.6738 304.244 45.2977 320.526 39.29C333.32 41.655 337.492 39.401 342 45.9999C343.487 51.3688 355.929 47.0195 362.5 35.4999C369.059 25.4012 363.737 26.9999 362.5 25.4999C357.224 19.1012 361.077 18.3965 350.514 13.514C338.176 6.91501 320.478 8.98434 305.383 8.29774C288.033 8.1547 270.731 8.98434 253.501 7.35367C232.027 5.26527 211.44 0.163461 189.462 0.211142C185.121 0.144389 180.793 0.144389 176.452 0.144389V0.153925Z" fill="white"/>
<path d="M117.893 21.5802C103.961 21.275 89.7164 26.3196 76.839 28.284C67.4147 29.724 55.0408 23.4588 44.5374 24.5268C32.2595 25.7761 21.2285 38.9263 9.93375 37.2003C-0.0780458 35.684 -5.47363 29.8098 -8.96277 23.2681C-8.91481 24.3075 -8.83088 25.3279 -8.71097 26.3005C-8.5551 36.4469 -5.7494 46.4884 -3.95087 56.5013C-7.26016 62.9859 -1.64876 80.3415 12.7035 71.5588C15.8449 62.2611 17.0799 50.0168 37.4872 50.1598C47.499 44.8387 50.1488 33.958 65.0886 32.2987C75.9397 36.7044 90.6516 38.8977 100.723 31.8505C110.939 25.0895 127.953 27.7214 134.308 35.5124C145.926 45.6397 157.545 33.1665 169.103 30.9255C182.952 28.0647 196.513 34.7304 210.613 32.7755C223.335 32.3846 237.543 27.6737 248.586 32.7279C257.135 43.1127 273.466 35.3312 285.084 32.3083C302.338 26.6534 304.257 45.2773 320.527 39.2696C333.321 41.6346 335.504 38.4106 340 45.0001C341.487 50.3689 354.429 48.0196 361 36.5001C366 30.8353 364.837 28.9045 363.5 25.5001C360.874 22.3245 365.5 22.5001 359.603 23.0392C352.601 25.5281 345.803 36.2181 336.798 34.8353C332.745 34.2155 328.285 28.7322 326.798 28.7322C322.877 28.7322 320.264 32.4132 316.031 31.5454C308.153 29.9433 297.95 24.031 289.88 24.031C283.142 24.031 276.907 29.8384 269.113 28.2554C265.061 27.4353 261.62 24.8511 257.579 24.031C243.862 21.2369 228.755 27.6451 214.51 25.9096C210.709 25.4423 173.192 22.3335 169.895 22.6196C162.557 23.2585 155.698 25.8142 148.36 26.3768C138.265 27.1493 130.735 22.448 120.675 21.6851C119.752 21.6183 118.829 21.5706 117.893 21.5516V21.5802Z" fill="#E5EFFB"/>
<path d="M112.784 24.4315C102.101 24.3075 90.3506 29.8098 80.2909 31.3451C71.8618 32.6325 62.4615 27.5784 53.7566 29.7049C44.6201 31.9364 44.3803 38.8405 36.8385 41.9111C31.4189 44.1139 29.7403 36.3802 20.304 42.6168C14.8964 46.1928 13.5415 56.6539 3.38585 55.5286C-0.439018 55.0995 -3.22074 52.2482 -5.51086 48.6531C-4.97131 51.2755 -4.41976 53.898 -3.95214 56.5204C-7.26143 63.0049 -1.65003 80.3606 12.7022 71.5779C15.8436 62.2802 17.0786 50.0359 37.4859 50.1789C47.4977 44.8578 50.1476 33.9771 65.0873 32.3178C75.9384 36.7235 90.6504 38.9168 100.722 31.8696C110.938 25.1085 127.952 27.7405 134.307 35.5315C145.925 45.6588 157.544 33.1856 169.102 30.9446C182.951 28.0838 196.512 34.7495 210.612 32.7946C223.334 32.4036 237.542 27.6928 248.585 32.7469C257.134 43.1317 273.465 35.3503 285.083 32.3273C302.337 26.6725 304.255 45.2964 320.526 39.2887C333.32 41.6536 335.504 39.4106 340 46.0001C341.487 51.3689 352.929 52.4866 359.5 40.967C366.059 30.8683 367.5 33.5001 367 30.5001C367 23.9965 361.128 28.6617 359.5 29.0001C356.128 30.1617 358.043 35.4075 356.796 36.2753C351.725 39.756 339.686 42.1114 332.181 40.967C325.37 39.9276 326.989 35.9606 322.564 34.1583C318.332 32.4418 304.639 34.0343 298.344 32.7469C293.884 31.841 293.045 28.284 287.577 28.284C278.572 28.284 272.038 33.9962 262.194 32.2797C257.758 31.5072 259.268 28.799 256.043 27.8168C249.292 25.757 228.489 28.4366 220.276 28.9897C203.634 30.115 187.123 27.1111 170.673 27.1111C160.625 27.1111 152.208 32.1843 141.836 31.3356C134.618 30.7444 125.578 25.4614 114.919 24.5268C114.211 24.4696 113.504 24.4315 112.796 24.4219L112.784 24.4315Z" fill="#C6E0FA"/>
</g>
<g clip-path="url(#clip1_2002_1144)">
<path d="M1743.55 0.153925C1765.96 -0.532673 1788.3 1.15521 1809.87 4.91243C1825.43 7.55393 1841.64 5.66578 1857.48 5.2748C1875.85 4.81707 1894.82 2.13743 1912.95 4.80753C1929.07 7.1248 1929.7 18.1104 1928.7 26.3114C1928.54 36.4578 1925.75 46.4993 1923.94 56.5122C1927.25 62.9967 1921.64 80.3524 1907.29 71.5696C1904.14 62.272 1902.91 50.0276 1882.5 50.1707C1872.49 44.8495 1869.84 33.9689 1854.9 32.3191C1844.05 36.7248 1829.34 38.9181 1819.27 31.8709C1809.05 25.1098 1792.04 27.7418 1785.68 35.5328C1774.06 45.6601 1762.44 33.1869 1750.89 30.9459C1737.04 28.0851 1723.48 34.7508 1709.39 32.7959C1696.67 32.405 1682.46 27.6941 1671.41 32.7483C1662.87 43.133 1646.54 35.3516 1634.92 32.3287C1617.66 26.6738 1615.76 45.2977 1599.47 39.29C1586.68 41.655 1582.51 39.401 1578 45.9999C1576.51 51.3688 1564.07 47.0195 1557.5 35.4999C1550.94 25.4012 1556.26 26.9999 1557.5 25.4999C1562.78 19.1012 1558.92 18.3965 1569.49 13.514C1581.82 6.91501 1599.52 8.98434 1614.62 8.29774C1631.97 8.1547 1649.27 8.98434 1666.5 7.35367C1687.97 5.26527 1708.56 0.163461 1730.54 0.211142C1734.88 0.144389 1739.21 0.144389 1743.55 0.144389V0.153925Z" fill="white"/>
<path d="M1802.11 21.5802C1816.04 21.275 1830.28 26.3196 1843.16 28.284C1852.59 29.724 1864.96 23.4588 1875.46 24.5268C1887.74 25.7761 1898.77 38.9263 1910.07 37.2003C1920.08 35.684 1925.47 29.8098 1928.96 23.2681C1928.91 24.3075 1928.83 25.3279 1928.71 26.3005C1928.56 36.4469 1925.75 46.4884 1923.95 56.5013C1927.26 62.9859 1921.65 80.3415 1907.3 71.5588C1904.16 62.2611 1902.92 50.0168 1882.51 50.1598C1872.5 44.8387 1869.85 33.958 1854.91 32.2987C1844.06 36.7044 1829.35 38.8977 1819.28 31.8505C1809.06 25.0895 1792.05 27.7214 1785.69 35.5124C1774.07 45.6397 1762.46 33.1665 1750.9 30.9255C1737.05 28.0647 1723.49 34.7304 1709.39 32.7755C1696.67 32.3846 1682.46 27.6737 1671.41 32.7279C1662.86 43.1127 1646.53 35.3312 1634.92 32.3083C1617.66 26.6534 1615.74 45.2773 1599.47 39.2696C1586.68 41.6346 1584.5 38.4106 1580 45.0001C1578.51 50.3689 1565.57 48.0196 1559 36.5001C1554 30.8353 1555.16 28.9045 1556.5 25.5001C1559.13 22.3245 1554.5 22.5001 1560.4 23.0392C1567.4 25.5281 1574.2 36.2181 1583.2 34.8353C1587.25 34.2155 1591.72 28.7322 1593.2 28.7322C1597.12 28.7322 1599.74 32.4132 1603.97 31.5454C1611.85 29.9433 1622.05 24.031 1630.12 24.031C1636.86 24.031 1643.09 29.8384 1650.89 28.2554C1654.94 27.4353 1658.38 24.8511 1662.42 24.031C1676.14 21.2369 1691.25 27.6451 1705.49 25.9096C1709.29 25.4423 1746.81 22.3335 1750.11 22.6196C1757.44 23.2585 1764.3 25.8142 1771.64 26.3768C1781.74 27.1493 1789.27 22.448 1799.32 21.6851C1800.25 21.6183 1801.17 21.5706 1802.11 21.5516V21.5802Z" fill="#E5EFFB"/>
<path d="M1807.22 24.4315C1817.9 24.3075 1829.65 29.8098 1839.71 31.3451C1848.14 32.6325 1857.54 27.5784 1866.24 29.7049C1875.38 31.9364 1875.62 38.8405 1883.16 41.9111C1888.58 44.1139 1890.26 36.3802 1899.7 42.6168C1905.1 46.1928 1906.46 56.6539 1916.61 55.5286C1920.44 55.0995 1923.22 52.2482 1925.51 48.6531C1924.97 51.2755 1924.42 53.898 1923.95 56.5204C1927.26 63.0049 1921.65 80.3606 1907.3 71.5779C1904.16 62.2802 1902.92 50.0359 1882.51 50.1789C1872.5 44.8578 1869.85 33.9771 1854.91 32.3178C1844.06 36.7235 1829.35 38.9168 1819.28 31.8696C1809.06 25.1085 1792.05 27.7405 1785.69 35.5315C1774.07 45.6588 1762.46 33.1856 1750.9 30.9446C1737.05 28.0838 1723.49 34.7495 1709.39 32.7946C1696.67 32.4036 1682.46 27.6928 1671.41 32.7469C1662.87 43.1317 1646.54 35.3503 1634.92 32.3273C1617.66 26.6725 1615.74 45.2964 1599.47 39.2887C1586.68 41.6536 1584.5 39.4106 1580 46.0001C1578.51 51.3689 1567.07 52.4866 1560.5 40.967C1553.94 30.8683 1552.5 33.5001 1553 30.5001C1553 23.9965 1558.87 28.6617 1560.5 29.0001C1563.87 30.1617 1561.96 35.4075 1563.2 36.2753C1568.28 39.756 1580.31 42.1114 1587.82 40.967C1594.63 39.9276 1593.01 35.9606 1597.44 34.1583C1601.67 32.4418 1615.36 34.0343 1621.66 32.7469C1626.12 31.841 1626.96 28.284 1632.42 28.284C1641.43 28.284 1647.96 33.9962 1657.81 32.2797C1662.24 31.5072 1660.73 28.799 1663.96 27.8168C1670.71 25.757 1691.51 28.4366 1699.72 28.9897C1716.37 30.115 1732.88 27.1111 1749.33 27.1111C1759.37 27.1111 1767.79 32.1843 1778.16 31.3356C1785.38 30.7444 1794.42 25.4614 1805.08 24.5268C1805.79 24.4696 1806.5 24.4315 1807.2 24.4219L1807.22 24.4315Z" fill="#C6E0FA"/>
</g>
<g clip-path="url(#clip2_2002_1144)">
<path d="M382.452 5.68937C410.592 8.8572 439.829 8.82593 467.126 6.96067C477.317 6.2625 494.678 1.63581 505.329 2.72996C518.62 4.09504 554.551 7.15866 567.285 6.11661C585.457 4.62648 609.002 -2.01136 628.207 0.6146C637.238 1.85464 646.681 2.45902 656.093 4.00125C670.958 6.43965 681.658 11.0455 697.397 12.8899C718.049 15.3075 743.375 13.6715 763.486 11.1914C790.625 7.85683 840.768 4.77237 862.612 13.734C864.854 14.651 867.906 16.9643 866.746 18.3919C857.27 30.0524 838.701 25.7279 829.575 33.2098C825.203 36.7945 831.674 44.2139 821.308 46.3396C808.399 48.9864 804.392 36.659 795.489 37.8678C787.572 38.9515 786.523 42.036 780.004 43.3698C772.294 44.9537 770.434 37.5031 752.119 41.2545C742.246 43.276 735.187 47.3296 724.233 48.455C717.747 49.1219 693.041 41.4212 686.03 39.9832C679.098 38.5555 669.813 40.1811 662.278 39.5559C647.699 38.3576 633.581 38.9724 618.907 39.9832C602.866 41.0773 585.409 39.41 570.369 37.8678C541.228 34.8771 534.408 55.2179 509.447 56.9268C494.391 57.9585 487.205 47.7047 474.344 45.0683C467.746 43.7137 458.652 47.3504 451.625 45.9124C444.852 44.5265 439.415 41.5879 432.007 40.8272C426.061 40.2228 419.526 40.7647 413.421 40.4C401.609 39.7122 389.049 37.8365 378.318 35.3148C369.86 33.3349 351.943 28.4685 349.399 24.3003C342.706 13.338 360.734 3.21972 382.436 5.66853L382.452 5.68937Z" fill="white"/>
<path d="M862.66 13.7655C864.901 14.7033 867.89 16.9854 866.746 18.3922C857.27 30.0527 838.701 25.7282 829.575 33.2101C825.203 36.7947 831.674 44.2141 821.308 46.3399C808.399 48.9867 804.392 36.6489 795.489 37.868C787.572 38.9518 786.523 42.0362 780.004 43.3701C772.294 44.954 770.434 37.5033 752.119 41.2547C742.246 43.2763 735.187 47.3298 724.233 48.4553C717.747 49.1222 693.041 41.4214 686.03 39.9834C679.098 38.5558 669.813 40.1814 662.278 39.5562C647.699 38.3578 633.581 38.9726 618.907 39.9834C602.866 41.0776 585.393 39.4103 570.37 37.868C541.228 34.8774 534.408 55.2181 509.447 56.9271C494.392 57.9587 487.206 47.705 474.344 45.0686C467.746 43.7139 458.652 47.3507 451.625 45.9127C444.852 44.5267 439.415 41.5882 432.007 40.8275C426.061 40.2231 419.526 40.7649 413.422 40.4002C401.609 39.7125 389.049 37.8368 378.318 35.315C369.86 33.3351 351.943 28.4688 349.399 24.3006C347.396 21.0181 347.65 17.8191 349.51 15.0055C355.218 17.9128 361.196 20.8723 367.046 22.3415C380.703 25.7803 401.148 22.1957 409.876 24.3944C414.9 25.6552 425.488 30.2611 431.291 29.5212C438.954 28.5626 456.14 24.7382 462.897 26.4472C479.717 30.6779 490.322 41.6507 509.813 44.9227C521.689 46.913 541.482 32.5849 548.573 29.0211C550.831 27.8852 562.246 27.9373 565.902 27.4788C587.397 24.7799 608.573 32.6265 629.13 30.0423C641.689 28.4584 658.923 25.6552 671.96 26.9682C686.872 28.4688 702.278 33.2518 716.825 35.6902C724.424 36.9615 768.176 24.7799 784.138 23.8942C806.555 22.6437 845.505 23.0814 862.66 13.7551V13.7655Z" fill="#E5EFFB"/>
<path d="M864.758 14.9534C866.316 16.0267 867.541 17.4126 866.746 18.3922C857.27 30.0527 838.701 25.7282 829.575 33.2101C825.203 36.7947 831.674 44.2141 821.308 46.3399C808.399 48.9867 804.393 36.6488 795.489 37.868C787.572 38.9518 786.523 42.0362 780.005 43.37C772.294 44.9539 770.434 37.5033 752.119 41.2547C742.246 43.2763 735.187 47.3298 724.233 48.4552C717.747 49.1221 693.041 41.4214 686.03 39.9834C679.098 38.5558 669.813 40.1814 662.278 39.5561C647.699 38.3578 633.581 38.9726 618.907 39.9834C602.866 41.0775 585.393 39.4103 570.37 37.868C541.228 34.8773 534.408 55.2181 509.447 56.9271C494.392 57.9587 487.206 47.705 474.344 45.0686C467.746 43.7139 458.652 47.3507 451.625 45.9126C444.853 44.5267 439.415 41.5881 432.007 40.8274C426.061 40.2231 419.527 40.7649 413.422 40.4002C401.609 39.7124 389.049 37.8368 378.318 35.315C369.86 33.3351 351.943 28.4688 349.399 24.3006C348.811 23.3315 348.477 22.3728 348.254 21.4349C349.24 21.7788 350.226 22.1123 351.291 22.5812C374.359 32.7412 403.215 31.2927 424.837 33.4602C446.474 35.638 445.027 38.5349 459.447 37.0865C473.867 35.638 469.543 35.638 491.18 43.6201C512.818 51.6022 515.695 51.6022 528.668 45.798C541.641 39.9938 557.508 31.2823 586.363 33.4602C615.203 35.638 629.623 34.1896 657.031 32.0117C684.44 29.8338 691.642 34.1896 713.279 39.2644C734.917 44.3391 743.566 38.5349 755.108 33.4602C766.65 28.3854 768.081 35.638 776.745 34.1896C785.394 32.7412 781.07 29.8338 796.936 29.1044C812.803 28.375 811.356 36.3571 818.574 32.0117C825.792 27.656 817.127 26.9369 831.547 25.4781C839.862 24.6444 853.916 19.3717 864.742 14.9326L864.758 14.9534Z" fill="#C6E0FA"/>
</g>
<g clip-path="url(#clip3_2002_1144)">
<path d="M869.452 5.68937C897.592 8.8572 926.828 8.82593 954.126 6.96067C964.317 6.2625 981.678 1.63581 992.329 2.72996C1005.62 4.09504 1041.55 7.15866 1054.29 6.11661C1072.46 4.62648 1096 -2.01136 1115.21 0.6146C1124.24 1.85464 1133.68 2.45902 1143.09 4.00125C1157.96 6.43965 1168.66 11.0455 1184.4 12.8899C1205.05 15.3075 1230.37 13.6715 1250.49 11.1914C1277.62 7.85683 1327.77 4.77237 1349.61 13.734C1351.85 14.651 1354.91 16.9643 1353.75 18.3919C1344.27 30.0524 1325.7 25.7279 1316.58 33.2098C1312.2 36.7945 1318.67 44.2139 1308.31 46.3396C1295.4 48.9864 1291.39 36.659 1282.49 37.8678C1274.57 38.9515 1273.52 42.036 1267 43.3698C1259.29 44.9537 1257.43 37.5031 1239.12 41.2545C1229.25 43.276 1222.19 47.3296 1211.23 48.455C1204.75 49.1219 1180.04 41.4212 1173.03 39.9832C1166.1 38.5555 1156.81 40.1811 1149.28 39.5559C1134.7 38.3576 1120.58 38.9724 1105.91 39.9832C1089.87 41.0773 1072.41 39.41 1057.37 37.8678C1028.23 34.8771 1021.41 55.2179 996.447 56.9268C981.391 57.9585 974.205 47.7047 961.344 45.0683C954.746 43.7137 945.652 47.3504 938.625 45.9124C931.852 44.5265 926.415 41.5879 919.007 40.8272C913.061 40.2228 906.526 40.7647 900.421 40.4C888.609 39.7122 876.049 37.8365 865.318 35.3148C856.86 33.3349 838.943 28.4685 836.399 24.3003C829.706 13.338 847.734 3.21972 869.436 5.66853L869.452 5.68937Z" fill="white"/>
<path d="M1349.66 13.7655C1351.9 14.7033 1354.89 16.9854 1353.75 18.3922C1344.27 30.0527 1325.7 25.7282 1316.58 33.2101C1312.2 36.7947 1318.67 44.2141 1308.31 46.3399C1295.4 48.9867 1291.39 36.6489 1282.49 37.868C1274.57 38.9518 1273.52 42.0362 1267 43.3701C1259.29 44.954 1257.43 37.5033 1239.12 41.2547C1229.25 43.2763 1222.19 47.3298 1211.23 48.4553C1204.75 49.1222 1180.04 41.4214 1173.03 39.9834C1166.1 38.5558 1156.81 40.1814 1149.28 39.5562C1134.7 38.3578 1120.58 38.9726 1105.91 39.9834C1089.87 41.0776 1072.39 39.4103 1057.37 37.868C1028.23 34.8774 1021.41 55.2181 996.447 56.9271C981.392 57.9587 974.206 47.705 961.344 45.0686C954.746 43.7139 945.652 47.3507 938.625 45.9127C931.852 44.5267 926.415 41.5882 919.007 40.8275C913.061 40.2231 906.526 40.7649 900.422 40.4002C888.609 39.7125 876.049 37.8368 865.318 35.315C856.86 33.3351 838.943 28.4688 836.399 24.3006C834.396 21.0181 834.65 17.8191 836.51 15.0055C842.218 17.9128 848.196 20.8723 854.046 22.3415C867.703 25.7803 888.148 22.1957 896.876 24.3944C901.9 25.6552 912.488 30.2611 918.291 29.5212C925.954 28.5626 943.14 24.7382 949.897 26.4472C966.717 30.6779 977.322 41.6507 996.813 44.9227C1008.69 46.913 1028.48 32.5849 1035.57 29.0211C1037.83 27.8852 1049.25 27.9373 1052.9 27.4788C1074.4 24.7799 1095.57 32.6265 1116.13 30.0423C1128.69 28.4584 1145.92 25.6552 1158.96 26.9682C1173.87 28.4688 1189.28 33.2518 1203.82 35.6902C1211.42 36.9615 1255.18 24.7799 1271.14 23.8942C1293.55 22.6437 1332.51 23.0814 1349.66 13.7551V13.7655Z" fill="#E5EFFB"/>
<path d="M1351.76 14.9534C1353.32 16.0267 1354.54 17.4126 1353.75 18.3922C1344.27 30.0527 1325.7 25.7282 1316.58 33.2101C1312.2 36.7947 1318.67 44.2141 1308.31 46.3399C1295.4 48.9867 1291.39 36.6488 1282.49 37.868C1274.57 38.9518 1273.52 42.0362 1267 43.37C1259.29 44.9539 1257.43 37.5033 1239.12 41.2547C1229.25 43.2763 1222.19 47.3298 1211.23 48.4552C1204.75 49.1221 1180.04 41.4214 1173.03 39.9834C1166.1 38.5558 1156.81 40.1814 1149.28 39.5561C1134.7 38.3578 1120.58 38.9726 1105.91 39.9834C1089.87 41.0775 1072.39 39.4103 1057.37 37.868C1028.23 34.8773 1021.41 55.2181 996.447 56.9271C981.392 57.9587 974.206 47.705 961.344 45.0686C954.746 43.7139 945.652 47.3507 938.625 45.9126C931.853 44.5267 926.415 41.5881 919.007 40.8274C913.061 40.2231 906.527 40.7649 900.422 40.4002C888.609 39.7124 876.049 37.8368 865.318 35.315C856.86 33.3351 838.943 28.4688 836.399 24.3006C835.811 23.3315 835.477 22.3728 835.254 21.4349C836.24 21.7788 837.226 22.1123 838.291 22.5812C861.359 32.7412 890.215 31.2927 911.837 33.4602C933.474 35.638 932.027 38.5349 946.447 37.0865C960.867 35.638 956.543 35.638 978.18 43.6201C999.818 51.6022 1002.7 51.6022 1015.67 45.798C1028.64 39.9938 1044.51 31.2823 1073.36 33.4602C1102.2 35.638 1116.62 34.1896 1144.03 32.0117C1171.44 29.8338 1178.64 34.1896 1200.28 39.2644C1221.92 44.3391 1230.57 38.5349 1242.11 33.4602C1253.65 28.3854 1255.08 35.638 1263.75 34.1896C1272.39 32.7412 1268.07 29.8338 1283.94 29.1044C1299.8 28.375 1298.36 36.3571 1305.57 32.0117C1312.79 27.656 1304.13 26.9369 1318.55 25.4781C1326.86 24.6444 1340.92 19.3717 1351.74 14.9326L1351.76 14.9534Z" fill="#C6E0FA"/>
</g>
<g clip-path="url(#clip4_2002_1144)">
<path d="M1208.45 5.68937C1236.59 8.8572 1265.83 8.82593 1293.13 6.96067C1303.32 6.2625 1320.68 1.63581 1331.33 2.72996C1344.62 4.09504 1380.55 7.15866 1393.29 6.11661C1411.46 4.62648 1435 -2.01136 1454.21 0.6146C1463.24 1.85464 1472.68 2.45902 1482.09 4.00125C1496.96 6.43965 1507.66 11.0455 1523.4 12.8899C1544.05 15.3075 1569.37 13.6715 1589.49 11.1914C1616.62 7.85683 1666.77 4.77237 1688.61 13.734C1690.85 14.651 1693.91 16.9643 1692.75 18.3919C1683.27 30.0524 1664.7 25.7279 1655.58 33.2098C1651.2 36.7945 1657.67 44.2139 1647.31 46.3396C1634.4 48.9864 1630.39 36.659 1621.49 37.8678C1613.57 38.9515 1612.52 42.036 1606 43.3698C1598.29 44.9537 1596.43 37.5031 1578.12 41.2545C1568.25 43.276 1561.19 47.3296 1550.23 48.455C1543.75 49.1219 1519.04 41.4212 1512.03 39.9832C1505.1 38.5555 1495.81 40.1811 1488.28 39.5559C1473.7 38.3576 1459.58 38.9724 1444.91 39.9832C1428.87 41.0773 1411.41 39.41 1396.37 37.8678C1367.23 34.8771 1360.41 55.2179 1335.45 56.9268C1320.39 57.9585 1313.21 47.7047 1300.34 45.0683C1293.75 43.7137 1284.65 47.3504 1277.63 45.9124C1270.85 44.5265 1265.42 41.5879 1258.01 40.8272C1252.06 40.2228 1245.53 40.7647 1239.42 40.4C1227.61 39.7122 1215.05 37.8365 1204.32 35.3148C1195.86 33.3349 1177.94 28.4685 1175.4 24.3003C1168.71 13.338 1186.73 3.21972 1208.44 5.66853L1208.45 5.68937Z" fill="white"/>
<path d="M1688.66 13.7655C1690.9 14.7033 1693.89 16.9854 1692.75 18.3922C1683.27 30.0527 1664.7 25.7282 1655.58 33.2101C1651.2 36.7947 1657.67 44.2141 1647.31 46.3399C1634.4 48.9867 1630.39 36.6489 1621.49 37.868C1613.57 38.9518 1612.52 42.0362 1606 43.3701C1598.29 44.954 1596.43 37.5033 1578.12 41.2547C1568.25 43.2763 1561.19 47.3298 1550.23 48.4553C1543.75 49.1222 1519.04 41.4214 1512.03 39.9834C1505.1 38.5558 1495.81 40.1814 1488.28 39.5562C1473.7 38.3578 1459.58 38.9726 1444.91 39.9834C1428.87 41.0776 1411.39 39.4103 1396.37 37.868C1367.23 34.8774 1360.41 55.2181 1335.45 56.9271C1320.39 57.9587 1313.21 47.705 1300.34 45.0686C1293.75 43.7139 1284.65 47.3507 1277.63 45.9127C1270.85 44.5267 1265.42 41.5882 1258.01 40.8275C1252.06 40.2231 1245.53 40.7649 1239.42 40.4002C1227.61 39.7125 1215.05 37.8368 1204.32 35.315C1195.86 33.3351 1177.94 28.4688 1175.4 24.3006C1173.4 21.0181 1173.65 17.8191 1175.51 15.0055C1181.22 17.9128 1187.2 20.8723 1193.05 22.3415C1206.7 25.7803 1227.15 22.1957 1235.88 24.3944C1240.9 25.6552 1251.49 30.2611 1257.29 29.5212C1264.95 28.5626 1282.14 24.7382 1288.9 26.4472C1305.72 30.6779 1316.32 41.6507 1335.81 44.9227C1347.69 46.913 1367.48 32.5849 1374.57 29.0211C1376.83 27.8852 1388.25 27.9373 1391.9 27.4788C1413.4 24.7799 1434.57 32.6265 1455.13 30.0423C1467.69 28.4584 1484.92 25.6552 1497.96 26.9682C1512.87 28.4688 1528.28 33.2518 1542.82 35.6902C1550.42 36.9615 1594.18 24.7799 1610.14 23.8942C1632.55 22.6437 1671.51 23.0814 1688.66 13.7551V13.7655Z" fill="#E5EFFB"/>
<path d="M1690.76 14.9534C1692.32 16.0267 1693.54 17.4126 1692.75 18.3922C1683.27 30.0527 1664.7 25.7282 1655.58 33.2101C1651.2 36.7947 1657.67 44.2141 1647.31 46.3399C1634.4 48.9867 1630.39 36.6488 1621.49 37.868C1613.57 38.9518 1612.52 42.0362 1606 43.37C1598.29 44.9539 1596.43 37.5033 1578.12 41.2547C1568.25 43.2763 1561.19 47.3298 1550.23 48.4552C1543.75 49.1221 1519.04 41.4214 1512.03 39.9834C1505.1 38.5558 1495.81 40.1814 1488.28 39.5561C1473.7 38.3578 1459.58 38.9726 1444.91 39.9834C1428.87 41.0775 1411.39 39.4103 1396.37 37.868C1367.23 34.8773 1360.41 55.2181 1335.45 56.9271C1320.39 57.9587 1313.21 47.705 1300.34 45.0686C1293.75 43.7139 1284.65 47.3507 1277.63 45.9126C1270.85 44.5267 1265.42 41.5881 1258.01 40.8274C1252.06 40.2231 1245.53 40.7649 1239.42 40.4002C1227.61 39.7124 1215.05 37.8368 1204.32 35.315C1195.86 33.3351 1177.94 28.4688 1175.4 24.3006C1174.81 23.3315 1174.48 22.3728 1174.25 21.4349C1175.24 21.7788 1176.23 22.1123 1177.29 22.5812C1200.36 32.7412 1229.21 31.2927 1250.84 33.4602C1272.47 35.638 1271.03 38.5349 1285.45 37.0865C1299.87 35.638 1295.54 35.638 1317.18 43.6201C1338.82 51.6022 1341.7 51.6022 1354.67 45.798C1367.64 39.9938 1383.51 31.2823 1412.36 33.4602C1441.2 35.638 1455.62 34.1896 1483.03 32.0117C1510.44 29.8338 1517.64 34.1896 1539.28 39.2644C1560.92 44.3391 1569.57 38.5349 1581.11 33.4602C1592.65 28.3854 1594.08 35.638 1602.75 34.1896C1611.39 32.7412 1607.07 29.8338 1622.94 29.1044C1638.8 28.375 1637.36 36.3571 1644.57 32.0117C1651.79 27.656 1643.13 26.9369 1657.55 25.4781C1665.86 24.6444 1679.92 19.3717 1690.74 14.9326L1690.76 14.9534Z" fill="#C6E0FA"/>
<path d="M1178.85 10.2933C1195.19 8.54262 1222 11.5001 1231 12.5C1239.5 12.5 1274.29 20.4597 1272 23C1267.5 28 1249.85 28.4709 1242.5 27C1222.5 23 1187.5 29.2059 1165 27C1143.1 24.8534 1123.51 19.3379 1125 18C1130 13.5 1164.85 11.7932 1178.85 10.2933Z" fill="white"/>
</g>
</g>
<defs>
<clipPath id="clip0_2002_1144">
<rect width="376" height="74" fill="white" transform="translate(-9)"/>
</clipPath>
<clipPath id="clip1_2002_1144">
<rect width="376" height="74" fill="white" transform="matrix(-1 0 0 1 1929 0)"/>
</clipPath>
<clipPath id="clip2_2002_1144">
<rect width="519" height="57" fill="white" transform="matrix(-1 0 0 1 867 0)"/>
</clipPath>
<clipPath id="clip3_2002_1144">
<rect width="519" height="57" fill="white" transform="matrix(-1 0 0 1 1354 0)"/>
</clipPath>
<clipPath id="clip4_2002_1144">
<rect width="519" height="57" fill="white" transform="matrix(-1 0 0 1 1693 0)"/>
</clipPath>
</defs>
</svg>
