<svg width="748" height="62" viewBox="0 0 748 62" fill="none" xmlns="http://www.w3.org/2000/svg">
<g clip-path="url(#clip0_2002_1145)">
<path d="M130.374 0.129078C114.62 -0.446179 98.9166 0.967996 83.7525 4.11593C72.8114 6.32908 61.4151 4.74712 50.2802 4.41954C37.3667 4.03604 24.0317 1.79093 11.2868 4.02805C-0.0504961 5.96954 -0.488814 15.1737 0.210808 22.0448C0.320388 30.5458 2.28439 38.959 3.5572 47.3481C1.23074 52.7811 5.1756 67.3224 15.2653 59.9639C17.4738 52.1739 18.342 41.9152 32.6885 42.035C39.7268 37.5768 41.5897 28.4605 52.0925 27.0783C59.7209 30.7695 70.0635 32.6072 77.144 26.7028C84.3257 21.0381 96.2867 23.2432 100.754 29.7708C108.922 38.2559 117.09 27.8054 125.216 25.9278C134.951 23.5309 144.485 29.1157 154.389 27.4778C163.332 27.1502 173.321 23.2033 181.084 27.4378C187.094 36.1386 198.575 29.619 206.743 27.0863C218.872 22.3484 220.213 37.9523 231.659 32.9188C240.653 34.9002 243.586 33.0117 246.756 38.5406C247.801 43.0388 256.548 39.3949 261.167 29.7433C265.778 21.2822 262.037 22.6217 261.167 21.3649C257.459 16.0038 260.167 15.4134 252.741 11.3226C244.067 5.79377 231.626 7.52753 221.013 6.95227C208.816 6.83243 196.653 7.52753 184.54 6.16129C169.444 4.41155 154.971 0.137068 139.52 0.177016C136.469 0.121089 133.426 0.121089 130.374 0.121089V0.129078Z" fill="white"/>
<path d="M89.207 18.0807C79.4123 17.825 69.3985 22.0515 60.3455 23.6974C53.7202 24.9039 45.0212 19.6546 37.6373 20.5495C29.0058 21.5961 21.2509 32.6139 13.3106 31.1678C6.27227 29.8974 2.47914 24.9758 0.0262451 19.4948C0.0599619 20.3657 0.118966 21.2206 0.203258 22.0356C0.312837 30.5366 2.28527 38.9497 3.54965 47.3389C1.22319 52.7719 5.16805 67.3132 15.2578 59.9546C17.4662 52.1647 18.3344 41.9059 32.6809 42.0258C39.7193 37.5675 41.5821 28.4513 52.0849 27.0611C59.7133 30.7523 70.0559 32.59 77.1364 26.6856C84.3181 21.0209 96.2791 23.226 100.747 29.7536C108.914 38.2387 117.082 27.7881 125.208 25.9106C134.944 23.5137 144.477 29.0985 154.39 27.4606C163.333 27.133 173.322 23.1861 181.085 27.4206C187.095 36.1214 198.576 29.6018 206.744 27.0691C218.873 22.3312 220.222 37.9351 231.66 32.9015C240.654 34.883 242.189 32.1819 245.35 37.7027C246.395 42.2009 255.494 40.2327 260.113 30.5811C263.628 25.835 262.81 24.2172 261.87 21.3649C260.024 18.7043 263.276 18.8514 259.131 19.3031C254.208 21.3884 249.429 30.3448 243.099 29.1863C240.25 28.667 237.114 24.0729 236.069 24.0729C233.312 24.0729 231.475 27.157 228.499 26.4299C222.961 25.0876 215.788 20.134 210.115 20.134C205.378 20.134 200.995 24.9997 195.516 23.6735C192.667 22.9863 190.248 20.8211 187.407 20.134C177.764 17.793 167.143 23.1621 157.129 21.708C154.457 21.3165 128.082 18.7119 125.764 18.9515C120.606 19.4869 115.784 21.6281 110.626 22.0995C103.528 22.7467 98.2347 18.8077 91.1626 18.1686C90.5136 18.1126 89.8645 18.0727 89.207 18.0567V18.0807Z" fill="#E5EFFB"/>
<path d="M85.6152 20.4696C78.1048 20.3657 69.8442 24.9758 62.7721 26.2621C56.8464 27.3407 50.2379 23.1062 44.1184 24.8879C37.6953 26.7575 37.5267 32.542 32.2248 35.1147C28.4148 36.9603 27.2347 30.4807 20.6009 35.7059C16.7994 38.7021 15.8469 47.4668 8.70734 46.524C6.01843 46.1644 4.06286 43.7755 2.45288 40.7634C2.83219 42.9606 3.21994 45.1577 3.54868 47.3549C1.22222 52.7879 5.16708 67.3291 15.2568 59.9706C17.4653 52.1807 18.3335 41.9219 32.6799 42.0418C39.7183 37.5835 41.5812 28.4673 52.0839 27.0771C59.7123 30.7683 70.055 32.6059 77.1355 26.7016C84.3171 21.0369 96.2782 23.242 100.746 29.7696C108.914 38.2546 117.081 27.8041 125.207 25.9266C134.943 23.5297 144.476 29.1144 154.389 27.4766C163.332 27.149 173.321 23.2021 181.084 27.4366C187.094 36.1374 198.575 29.6178 206.743 27.0851C218.872 22.3472 220.221 37.951 231.659 32.9175C240.653 34.899 242.189 33.0197 245.35 38.5406C246.395 43.0388 254.439 43.9753 259.058 34.3237C263.669 25.8626 264.682 28.0676 264.331 25.5541C264.331 20.1051 260.203 24.0138 259.058 24.2973C256.688 25.2706 258.034 29.6657 257.158 30.3928C253.592 33.309 245.129 35.2825 239.852 34.3237C235.065 33.4528 236.203 30.1291 233.092 28.6191C230.117 27.1809 220.491 28.5152 216.065 27.4366C212.93 26.6776 212.34 23.6974 208.496 23.6974C202.166 23.6974 197.572 28.4833 190.651 27.0451C187.533 26.3979 188.595 24.1289 186.327 23.3059C181.582 21.5802 166.957 23.8253 161.183 24.2887C149.483 25.2315 137.876 22.7147 126.311 22.7147C119.248 22.7147 113.33 26.9652 106.039 26.2541C100.965 25.7588 94.6092 21.3325 87.1156 20.5495C86.6183 20.5016 86.121 20.4696 85.6237 20.4616L85.6152 20.4696Z" fill="#C6E0FA"/>
</g>
<g clip-path="url(#clip1_2002_1145)">
<path d="M617.626 0.129078C633.38 -0.446179 649.083 0.967996 664.248 4.11593C675.189 6.32908 686.585 4.74712 697.72 4.41954C710.633 4.03604 723.968 1.79093 736.713 4.02805C748.051 5.96954 748.489 15.1737 747.789 22.0448C747.68 30.5458 745.716 38.959 744.443 47.3481C746.769 52.7811 742.824 67.3224 732.735 59.9639C730.526 52.1739 729.658 41.9152 715.312 42.035C708.273 37.5768 706.41 28.4605 695.908 27.0783C688.279 30.7695 677.937 32.6072 670.856 26.7028C663.674 21.0381 651.713 23.2432 647.246 29.7708C639.078 38.2559 630.91 27.8054 622.784 25.9278C613.049 23.5309 603.515 29.1157 593.611 27.4778C584.668 27.1502 574.679 23.2033 566.916 27.4378C560.906 36.1386 549.425 29.619 541.257 27.0863C529.128 22.3484 527.787 37.9523 516.341 32.9188C507.347 34.9002 504.414 33.0117 501.244 38.5406C500.199 43.0388 491.452 39.3949 486.833 29.7433C482.222 21.2822 485.963 22.6217 486.833 21.3649C490.542 16.0038 487.833 15.4134 495.259 11.3226C503.933 5.79377 516.374 7.52753 526.987 6.95227C539.184 6.83243 551.347 7.52753 563.46 6.16129C578.556 4.41155 593.029 0.137068 608.48 0.177016C611.531 0.121089 614.574 0.121089 617.626 0.121089V0.129078Z" fill="white"/>
<path d="M658.793 18.0807C668.588 17.825 678.602 22.0515 687.655 23.6974C694.28 24.9039 702.979 19.6546 710.363 20.5495C718.994 21.5961 726.749 32.6139 734.689 31.1678C741.728 29.8974 745.521 24.9758 747.974 19.4948C747.94 20.3657 747.881 21.2206 747.797 22.0356C747.687 30.5366 745.715 38.9497 744.45 47.3389C746.777 52.7719 742.832 67.3132 732.742 59.9546C730.534 52.1647 729.666 41.9059 715.319 42.0258C708.281 37.5675 706.418 28.4513 695.915 27.0611C688.287 30.7523 677.944 32.59 670.864 26.6856C663.682 21.0209 651.721 23.226 647.253 29.7536C639.086 38.2387 630.918 27.7881 622.792 25.9106C613.056 23.5137 603.523 29.0985 593.61 27.4606C584.667 27.133 574.678 23.1861 566.915 27.4206C560.905 36.1214 549.424 29.6018 541.256 27.0691C529.127 22.3312 527.778 37.9351 516.34 32.9015C507.346 34.883 505.811 32.1819 502.65 37.7027C501.605 42.2009 492.506 40.2327 487.887 30.5811C484.372 25.835 485.19 24.2172 486.13 21.3649C487.976 18.7043 484.724 18.8514 488.869 19.3031C493.792 21.3884 498.571 30.3448 504.901 29.1863C507.75 28.667 510.886 24.0729 511.931 24.0729C514.688 24.0729 516.525 27.157 519.501 26.4299C525.039 25.0876 532.212 20.134 537.885 20.134C542.622 20.134 547.005 24.9997 552.484 23.6735C555.333 22.9863 557.752 20.8211 560.593 20.134C570.236 17.793 580.857 23.1621 590.871 21.708C593.543 21.3165 619.918 18.7119 622.236 18.9515C627.394 19.4869 632.216 21.6281 637.374 22.0995C644.472 22.7467 649.765 18.8077 656.837 18.1686C657.486 18.1126 658.136 18.0727 658.793 18.0567V18.0807Z" fill="#E5EFFB"/>
<path d="M662.385 20.4696C669.895 20.3657 678.156 24.9758 685.228 26.2621C691.154 27.3407 697.762 23.1062 703.882 24.8879C710.305 26.7575 710.473 32.542 715.775 35.1147C719.585 36.9603 720.765 30.4807 727.399 35.7059C731.201 38.7021 732.153 47.4668 739.293 46.524C741.982 46.1644 743.937 43.7755 745.547 40.7634C745.168 42.9606 744.78 45.1577 744.451 47.3549C746.778 52.7879 742.833 67.3291 732.743 59.9706C730.535 52.1807 729.667 41.9219 715.32 42.0418C708.282 37.5835 706.419 28.4673 695.916 27.0771C688.288 30.7683 677.945 32.6059 670.865 26.7016C663.683 21.0369 651.722 23.242 647.254 29.7696C639.086 38.2546 630.919 27.8041 622.793 25.9266C613.057 23.5297 603.524 29.1144 593.611 27.4766C584.668 27.149 574.679 23.2021 566.916 27.4366C560.906 36.1374 549.425 29.6178 541.257 27.0851C529.128 22.3472 527.779 37.951 516.341 32.9175C507.347 34.899 505.811 33.0197 502.65 38.5406C501.605 43.0388 493.561 43.9753 488.942 34.3237C484.331 25.8626 483.318 28.0676 483.669 25.5541C483.669 20.1051 487.797 24.0138 488.942 24.2973C491.312 25.2706 489.966 29.6657 490.842 30.3928C494.408 33.309 502.871 35.2825 508.148 34.3237C512.935 33.4528 511.797 30.1291 514.908 28.6191C517.883 27.1809 527.509 28.5152 531.935 27.4366C535.07 26.6776 535.66 23.6974 539.504 23.6974C545.834 23.6974 550.428 28.4833 557.349 27.0451C560.467 26.3979 559.405 24.1289 561.673 23.3059C566.418 21.5802 581.043 23.8253 586.817 24.2887C598.517 25.2315 610.124 22.7147 621.689 22.7147C628.752 22.7147 634.67 26.9652 641.961 26.2541C647.035 25.7588 653.391 21.3325 660.884 20.5495C661.382 20.5016 661.879 20.4696 662.376 20.4616L662.385 20.4696Z" fill="#C6E0FA"/>
</g>
<g clip-path="url(#clip2_2002_1145)">
<path d="M275.193 4.7669C294.976 7.42103 315.53 7.39484 334.72 5.83205C341.884 5.24709 354.089 1.37067 361.578 2.28739C370.921 3.43111 396.18 5.99793 405.133 5.12486C417.908 3.87638 434.46 -1.68506 447.962 0.515069C454.31 1.55402 460.949 2.0604 467.566 3.35254C478.016 5.39551 485.538 9.25447 496.602 10.7998C511.121 12.8253 528.925 11.4546 543.064 9.3767C562.142 6.58288 597.393 3.99861 612.75 11.507C614.326 12.2753 616.472 14.2135 615.656 15.4096C608.995 25.1792 595.94 21.556 589.525 27.8246C586.451 30.8279 591 37.0442 583.713 38.8252C574.638 41.0428 571.821 30.7145 565.562 31.7272C559.996 32.6352 559.259 35.2195 554.676 36.337C549.255 37.6641 547.948 31.4216 535.072 34.5647C528.132 36.2584 523.169 39.6547 515.469 40.5976C510.908 41.1563 493.54 34.7044 488.611 33.4995C483.738 32.3034 477.211 33.6654 471.913 33.1416C461.664 32.1375 451.739 32.6527 441.423 33.4995C430.146 34.4163 417.874 33.0193 407.301 31.7272C386.814 29.2215 382.02 46.2638 364.472 47.6956C353.888 48.5599 348.836 39.969 339.794 37.7601C335.156 36.6251 328.763 39.6721 323.823 38.4673C319.062 37.3061 315.239 34.8441 310.031 34.2067C305.851 33.7003 301.257 34.1543 296.966 33.8488C288.661 33.2725 279.832 31.701 272.288 29.5882C266.342 27.9294 253.746 23.8521 251.957 20.3599C247.252 11.1752 259.926 2.69774 275.182 4.74944L275.193 4.7669Z" fill="white"/>
<path d="M612.783 11.5332C614.359 12.319 616.461 14.231 615.656 15.4096C608.995 25.1792 595.94 21.556 589.525 27.8246C586.451 30.828 591 37.0442 583.713 38.8253C574.638 41.0429 571.821 30.7058 565.562 31.7272C559.996 32.6352 559.259 35.2195 554.676 36.337C549.255 37.6641 547.948 31.4217 535.072 34.5647C528.132 36.2585 523.169 39.6547 515.469 40.5976C510.908 41.1564 493.54 34.7044 488.611 33.4996C483.738 32.3035 477.211 33.6654 471.913 33.1416C461.664 32.1376 451.739 32.6527 441.423 33.4996C430.146 34.4163 417.863 33.0194 407.301 31.7272C386.814 29.2215 382.02 46.2638 364.472 47.6956C353.888 48.56 348.836 39.969 339.794 37.7601C335.156 36.6251 328.763 39.6722 323.823 38.4673C319.062 37.3061 315.239 34.8441 310.031 34.2068C305.851 33.7004 301.257 34.1544 296.966 33.8488C288.661 33.2726 279.832 31.701 272.288 29.5882C266.342 27.9294 253.745 23.8522 251.957 20.3599C250.549 17.6098 250.728 14.9294 252.035 12.5722C256.048 15.008 260.25 17.4875 264.363 18.7185C273.964 21.5997 288.337 18.5963 294.473 20.4385C298.005 21.4949 305.449 25.3539 309.528 24.734C314.915 23.9308 326.997 20.7266 331.747 22.1584C343.572 25.7031 351.027 34.8965 364.729 37.6379C373.078 39.3055 386.993 27.3008 391.978 24.3149C393.565 23.3633 401.59 23.4069 404.161 23.0228C419.271 20.7615 434.159 27.3357 448.61 25.1705C457.44 23.8434 469.555 21.4949 478.72 22.595C489.203 23.8522 500.034 27.8596 510.26 29.9025C515.603 30.9677 546.361 20.7615 557.582 20.0194C573.341 18.9717 600.724 19.3384 612.783 11.5245V11.5332Z" fill="#E5EFFB"/>
<path d="M614.259 12.5285C615.354 13.4278 616.215 14.5889 615.656 15.4096C608.995 25.1792 595.94 21.556 589.525 27.8246C586.451 30.828 591 37.0442 583.713 38.8253C574.638 41.0429 571.821 30.7058 565.562 31.7272C559.996 32.6352 559.259 35.2195 554.676 36.337C549.255 37.6641 547.948 31.4217 535.072 34.5647C528.132 36.2585 523.169 39.6547 515.469 40.5976C510.908 41.1564 493.54 34.7044 488.611 33.4996C483.738 32.3035 477.211 33.6655 471.913 33.1416C461.664 32.1376 451.739 32.6527 441.423 33.4996C430.146 34.4163 417.863 33.0194 407.301 31.7272C386.814 29.2215 382.02 46.2638 364.472 47.6956C353.888 48.56 348.836 39.969 339.794 37.7601C335.156 36.6252 328.763 39.6722 323.823 38.4673C319.062 37.3061 315.239 34.8441 310.031 34.2068C305.851 33.7004 301.257 34.1544 296.966 33.8488C288.661 33.2726 279.832 31.7011 272.288 29.5882C266.342 27.9294 253.746 23.8522 251.957 20.3599C251.544 19.548 251.309 18.7447 251.153 17.959C251.846 18.2471 252.538 18.5265 253.287 18.9194C269.505 27.4318 289.79 26.2182 304.99 28.0342C320.202 29.8589 319.185 32.286 329.322 31.0724C339.459 29.8589 336.419 29.8589 351.63 36.5466C366.842 43.2343 368.865 43.2343 377.985 38.3713C387.105 33.5083 398.259 26.2095 418.545 28.0342C438.819 29.8589 448.956 28.6453 468.225 26.8206C487.493 24.9959 492.556 28.6453 507.768 32.8972C522.979 37.149 529.059 32.286 537.174 28.0342C545.288 23.7823 546.294 29.8589 552.385 28.6453C558.465 27.4318 555.425 24.9959 566.579 24.3848C577.734 23.7736 576.716 30.4613 581.791 26.8206C586.865 23.1712 580.774 22.5688 590.911 21.3465C596.756 20.648 606.636 16.2303 614.248 12.511L614.259 12.5285Z" fill="#C6E0FA"/>
</g>
<path d="M266.242 7.73146C256.4 6.4747 239.528 11.7465 234.958 14.0157C232.146 15.4121 232.006 18.8748 234.255 19.8802C237.067 21.1369 243.043 26.5829 248.315 26.5829C253.588 26.5829 254.141 19.0423 264.485 19.0423C279.951 19.0423 291.902 14.0157 290.496 14.0157C289.09 14.0157 276.084 8.98822 266.242 7.73146Z" fill="white"/>
<path d="M597.503 3.80621C608.991 2.33945 627.842 4.81732 634.169 5.65509C640.144 5.65507 664.599 12.324 662.992 14.4524C659.829 18.6416 647.423 19.0361 642.253 17.8037C628.193 14.4524 603.588 19.6519 587.77 17.8037C572.378 16.0053 558.605 11.3842 559.65 10.2632C563.165 6.49292 587.661 5.06292 597.503 3.80621Z" fill="white"/>
<defs>
<clipPath id="clip0_2002_1145">
<rect width="264.331" height="62" fill="white"/>
</clipPath>
<clipPath id="clip1_2002_1145">
<rect width="264.331" height="62" fill="white" transform="matrix(-1 0 0 1 748 0)"/>
</clipPath>
<clipPath id="clip2_2002_1145">
<rect width="364.861" height="47.7568" fill="white" transform="matrix(-1 0 0 1 615.835 0)"/>
</clipPath>
</defs>
</svg>
