<svg width="20" height="20" viewBox="0 0 20 20" fill="none" xmlns="http://www.w3.org/2000/svg">
<mask id="mask0_2022_3494" style="mask-type:alpha" maskUnits="userSpaceOnUse" x="0" y="0" width="20" height="20">
<rect width="20" height="20" fill="#D9D9D9"/>
</mask>
<g mask="url(#mask0_2022_3494)">
<path fill-rule="evenodd" clip-rule="evenodd" d="M1.37446 9.04445C6.74136 6.73514 10.3202 5.2127 12.1108 4.47719C17.2235 2.37704 18.2859 2.0122 18.9782 2.00013C19.1306 1.9975 19.4711 2.03479 19.6916 2.21156C20.0189 2.47378 20.0207 3.04295 19.9844 3.41966C19.7073 6.29466 18.5085 13.2714 17.8986 16.4915C17.6405 17.854 17.1323 18.3109 16.6405 18.3555C15.5714 18.4527 14.7595 17.6577 13.724 16.9874C12.1037 15.9384 11.1883 15.2854 9.61549 14.2618C7.79786 13.0789 8.97617 12.4288 10.012 11.3662C10.2831 11.0881 14.9936 6.85666 15.0848 6.47278C15.0962 6.42477 15.1068 6.2458 14.9992 6.15133C14.8915 6.05687 14.7326 6.08912 14.618 6.11483C14.4555 6.15126 11.867 7.84096 6.85254 11.1839C6.11779 11.6822 5.45229 11.9249 4.85605 11.9122C4.19868 11.8982 2.93428 11.5452 1.99429 11.2434C0.841356 10.8733 -0.0749776 10.6775 0.00484746 10.049C0.046414 9.7215 0.502927 9.3867 1.37446 9.04445Z" fill="white"/>
</g>
</svg>
