<svg width="128" height="55" viewBox="0 0 128 55" fill="none" xmlns="http://www.w3.org/2000/svg">
<mask id="mask0_2002_1020" style="mask-type:alpha" maskUnits="userSpaceOnUse" x="0" y="0" width="128" height="55">
<rect width="128" height="55" fill="#D9D9D9"/>
</mask>
<g mask="url(#mask0_2002_1020)">
<g clip-path="url(#clip0_2002_1020)">
<path d="M112.341 29.5304C112.724 29.1251 113.171 29.0192 113.694 28.966C114.087 28.926 114.675 28.3819 115.046 28.5076C115.644 28.7102 116.222 29.0699 116.78 29.3541C117.115 29.5248 117.772 29.2695 118.063 29.5658C118.159 29.6631 117.989 30.0795 117.889 30.1302C117.711 30.2209 112.714 30.1261 112.307 29.9184C112.143 29.8353 112.265 29.6849 112.341 29.5304Z" fill="white"/>
<path d="M112.768 29.2046C112.618 29.2836 112.476 29.3885 112.341 29.5303C112.265 29.6848 112.143 29.8353 112.307 29.9184C112.714 30.1256 117.711 30.2208 117.889 30.1301C117.989 30.0795 118.158 29.6631 118.063 29.5658C117.993 29.4949 117.902 29.4559 117.8 29.4351C117.65 29.5293 117.525 29.6134 117.474 29.6367C116.653 30.0081 115.415 29.6798 114.665 29.425C114.234 29.2786 113.706 29.6134 113.243 29.4954C113.07 29.4513 112.903 29.3419 112.768 29.2051V29.2046Z" fill="#E5EFFB"/>
<path d="M112.347 29.5249C112.347 29.5249 112.343 29.5284 112.341 29.5305C112.265 29.685 112.143 29.8354 112.307 29.9185C112.714 30.1257 117.711 30.221 117.889 30.1303C117.971 30.0892 118.098 29.8045 118.091 29.648C118.006 29.6779 117.935 29.7073 117.894 29.7199C117.723 29.7741 117.545 29.8066 117.367 29.8324C116.948 29.8932 116.51 30.0928 116.08 30.0442C115.89 30.0229 115.695 29.8932 115.503 29.8446C115.303 29.7934 115.104 29.8709 114.903 29.8197C114.72 29.7731 114.596 29.6014 114.412 29.5705C114.196 29.534 113.966 29.6434 113.762 29.6951C113.32 29.8076 112.727 29.837 112.346 29.5249H112.347Z" fill="#C6E0FA"/>
</g>
<path d="M37.5373 9.21739C32.1511 9.26227 27.8197 13.6834 27.8646 19.0696C27.9095 24.4558 32.3306 28.7872 37.7168 28.7423C43.103 28.6974 47.4344 24.2763 47.3895 18.8901C47.3446 13.5039 42.9235 9.1725 37.5373 9.21739ZM37.6719 24.3436C34.7095 24.366 32.2858 21.9871 32.2409 19.0247C32.2184 16.0623 34.5973 13.6385 37.5597 13.6161C40.5221 13.5937 42.9459 15.9726 42.9684 18.935C43.0357 21.8974 40.6344 24.3211 37.6719 24.3436Z" fill="#F37E60"/>
<path d="M31.6909 6.35542C31.6897 6.35448 31.6886 6.35354 31.6875 6.35278L31.6942 6.35391C31.6931 6.35448 31.692 6.35504 31.6909 6.35542Z" fill="#AA0C0F"/>
<path d="M49.7228 8.80505L49.3255 8.98109L49.2597 9.0103C49.2597 9.0103 46.2753 6.80353 45.9152 6.70099C45.9152 6.70099 46.0511 6.95916 46.2409 7.36451V7.36501C46.4781 7.87157 46.8007 8.60793 47.0497 9.35873C47.1783 9.74467 47.2875 10.1341 47.3558 10.4986L40.9754 7.57341L33.4629 8.18931L28.5232 11.1658L27.5713 10.7296C28.1862 9.25619 28.9436 7.82644 29.7699 6.46239C30.6935 4.93773 31.715 3.4124 33.1166 2.28131C34.2872 1.33704 35.7331 0.812559 37.1892 0.495315C37.3117 0.468601 37.4341 0.442386 37.5572 0.416834C38.697 0.17973 39.8588 -0.00295051 41.0233 3.61e-05C42.1508 0.0036864 43.3707 0.0201127 44.357 0.638506C45.2236 1.1814 45.8503 2.06461 46.3437 2.94068C46.901 3.93058 47.433 4.93706 48.0041 5.91932C48.5634 6.88101 49.0873 7.88999 49.7228 8.80505Z" fill="#D31C1F"/>
<path d="M47.3558 10.4985L40.9754 7.57332L33.4629 8.18922L28.5232 11.1657L27.5713 10.7295C28.1862 9.25611 28.9436 7.82635 29.7699 6.4623C30.6935 4.93764 31.715 3.41231 33.1166 2.28122C34.2872 1.33695 35.7331 0.812473 37.1892 0.495229C37.3117 0.468516 37.4341 0.4423 37.5572 0.416748C37.2 0.612205 36.8529 0.829895 36.5102 1.05356C35.798 1.51897 35.0874 2.00612 34.5301 2.64807C33.9728 3.28953 33.5782 4.11018 33.608 4.95855C33.6265 5.47589 33.856 6.04136 34.3401 6.22769C34.512 6.29389 34.6998 6.30567 34.8845 6.30667C35.6183 6.31032 36.3438 6.15319 37.0769 6.11519C37.663 6.08499 38.2501 6.13062 38.8335 6.19119C41.7191 6.49084 44.707 7.21908 46.8503 9.16983C46.9176 9.23139 46.984 9.2941 47.0494 9.35865C47.178 9.74458 47.2871 10.134 47.3555 10.4985H47.3558Z" fill="#AA0C0F"/>
<path d="M49.2593 9.00991C49.2593 9.00991 46.2749 6.80314 45.9148 6.7006C45.9148 6.7006 46.0507 6.95878 46.2405 7.36413C46.1721 7.30556 46.1041 7.24566 46.0372 7.18559C45.3363 6.55326 44.722 5.83183 44.0095 5.21178C43.6075 4.86185 43.1743 4.5446 42.6942 4.31015C42.4447 4.18804 42.1848 4.08898 41.9255 3.99042C41.271 3.74154 40.6164 3.49265 39.9619 3.24377C40.387 3.05545 40.8794 3.06723 41.3291 3.1852C41.7787 3.30267 42.1956 3.51937 42.6077 3.73374C43.2663 4.07753 43.9326 4.42547 44.4884 4.91876C44.8481 5.23799 45.1655 5.62028 45.5952 5.83797C45.6584 5.86983 45.7336 5.89803 45.7968 5.86667C45.9065 5.81275 45.8765 5.64965 45.8236 5.53981C45.5601 4.9979 45.1387 4.55141 44.777 4.06957C44.4154 3.58723 44.1 3.02824 44.1066 2.42627C44.6423 2.72758 45.0374 3.2232 45.3971 3.72063C45.7423 4.19782 46.0685 4.68846 46.3566 5.20166C46.5435 5.53417 46.7148 5.87696 46.9427 6.18243C47.0944 6.38618 47.2699 6.57151 47.4428 6.75768C48.1029 7.47048 48.7313 8.21265 49.325 8.98087L49.2591 9.01008L49.2593 9.00991Z" fill="#AA0C0F"/>
<path d="M48.0303 16.5094C47.9541 16.6428 47.8682 16.7485 47.7714 16.8203C47.6989 16.8748 47.5934 16.8404 47.5615 16.7556C47.2635 15.9668 45.5177 12.2754 38.8136 11.7715C38.8136 11.7715 28.6661 11.6729 28.0097 17.4556C27.9947 17.59 27.8285 17.645 27.7375 17.5444C27.014 16.749 25.0233 14.2573 26.3873 12.259C26.3873 12.259 28.6137 7.86084 34.6674 6.7626C35.2879 6.64977 35.9492 6.57162 36.6526 6.53678C44.3965 6.15184 47.8439 10.3601 48.2557 11.1813C48.6077 11.8838 48.7152 15.3089 48.0303 16.5092V16.5094Z" fill="white"/>
<path d="M48.0303 16.5092C47.9541 16.6426 47.8682 16.7483 47.7714 16.8202C47.6989 16.8746 47.5934 16.8403 47.5615 16.7555C47.2635 15.9667 45.5177 12.2752 38.8136 11.7713C38.8136 11.7713 28.6661 11.6728 28.0097 17.4555C27.9947 17.5899 27.8285 17.6448 27.7375 17.5443C27.014 16.7488 25.0233 14.2572 26.3873 12.2588C26.3873 12.2588 28.6137 7.86069 34.6674 6.76245C34.6293 6.97035 34.5192 7.21774 34.4965 7.40192C34.4594 7.69908 34.4564 8.0009 34.4857 8.29906C34.5496 8.94715 34.7692 9.58197 35.135 10.1229C35.4232 10.5488 35.806 10.9245 36.2799 11.1262C36.8387 11.3638 37.4681 11.3413 38.0756 11.3505C40.2083 11.3829 42.3329 11.8606 44.2734 12.7445C45.2767 13.2017 46.2462 13.7785 46.9835 14.5967C47.474 15.1407 47.8536 15.8037 48.0301 16.5094L48.0303 16.5092Z" fill="#E0E1DE"/>
<path d="M37.6044 16.5337C36.2579 16.5561 35.1807 17.6558 35.1807 19.0024C35.2031 20.3489 36.3028 21.4261 37.6493 21.4261C38.9959 21.4037 40.0731 20.304 40.0731 18.9575C40.0731 17.6109 38.951 16.5337 37.6044 16.5337Z" fill="#F37E60"/>
<path d="M42.0249 35.4751H35.2249V29.887H30.7812V45.4845H35.2249V39.8738H42.0249V45.4845H46.4012V29.887H42.0249V35.4751Z" fill="#003C56"/>
<path d="M16.8235 27.0814H21.1998V15.905H26.8104V11.4839H11.2129V15.905H16.8235V27.0814Z" fill="#003C56"/>
<g clip-path="url(#clip1_2002_1020)">
<path d="M22.1883 9.70312C22.8979 9.77049 23.9255 9.94206 24.6534 9.91609C26.0298 9.91703 26.2841 10.7056 28.2297 10.6361C29.6738 10.5846 32.2056 8.79855 33.8811 9.21721C34.7195 9.63625 32.4219 11.2657 32.205 11.3118C31.7792 11.4024 31.7406 11.3909 31.4308 11.5675C30.8768 11.8845 30.8894 12.3348 30.1103 12.5689C29.5026 12.7519 29.2438 12.5078 28.0155 12.9879C26.7747 13.4727 26.415 14.9644 24.2449 14.6637C22.9361 14.4824 22.9251 13.7469 21.8325 13.5017C21.3919 13.4025 20.637 13.6592 20.1963 13.56C19.6218 13.431 19.5452 13.0302 18.8614 12.8761C18.6238 12.8228 17.9349 12.9802 17.798 12.914C17.594 12.8156 17.2538 12.7734 16.9707 12.6853C16.0346 12.3943 15.2609 12.2013 14.1644 12.097C13.4376 12.0278 12.7269 12.0297 12.0258 11.8724C11.8893 11.8415 10.6156 11.5823 10.944 11.3945C11.4927 11.0808 12.6691 11.0431 13.4651 10.8745C13.6856 10.8277 13.9032 10.6994 14.1123 10.6363C14.4491 10.5347 14.8551 10.5215 15.1696 10.4262L16.6287 9.98674C18.4046 9.91968 20.4206 9.62037 22.1901 9.70244L22.1883 9.70312Z" fill="white"/>
<path d="M33.0429 10.0552C33.8811 9.63652 34.1795 8.96722 34.3001 9.21711C34.5311 9.69572 33.1222 11.5117 32.9053 11.5578C32.4795 11.6483 31.7406 11.3905 31.4308 11.5671C30.8767 11.8841 31.2721 12.6139 30.493 12.8481C29.8853 13.0311 29.2669 12.4556 28.0386 12.9357C26.7978 13.4205 26.6702 15.0835 24.5001 14.7828C23.1912 14.6015 22.925 13.7465 21.8325 13.5013C21.3918 13.4021 20.6369 13.6589 20.1963 13.5596C19.6218 13.4306 19.5452 13.0299 18.8605 12.8757C18.6229 12.8224 17.9349 12.9798 17.797 12.9137C17.593 12.8153 17.2528 12.773 16.9697 12.6849C16.0336 12.3939 15.26 12.2009 14.1634 12.0967C13.4366 12.0275 12.7259 12.0293 12.0249 11.8721C11.8883 11.8411 10.6147 11.5819 10.943 11.3941C11.1555 11.2728 11.4624 11.1933 11.8043 11.131C12.9981 11.6093 14.7902 11.6418 16.2885 11.5883C17.4629 11.5464 17.9547 11.7384 19.0221 11.8863C20.0023 12.0218 20.6156 11.5174 21.7395 11.7288C22.7742 11.9229 23.4135 12.5539 24.5525 12.6325C25.8707 12.7238 26.2692 12.0695 27.307 11.8953C28.0234 11.7752 28.7515 12.1836 29.4507 11.9103C29.9228 11.726 29.953 11.1305 30.4621 11.0227C31.4697 10.8088 31.3754 10.9778 32.1442 11.0844C32.9692 11.1983 32.2048 10.4739 33.0429 10.0552Z" fill="#E5EFFB"/>
<path d="M11.1615 11.2956C11.5191 11.4719 11.994 11.5415 12.4655 11.6198C13.0905 11.7229 13.787 11.8044 14.443 11.8384C14.824 11.8582 15.2315 11.8128 15.6025 11.8576C16.3045 11.9426 16.6805 12.2035 17.2436 12.3922C17.601 12.5117 17.7902 12.2967 18.1364 12.2541C18.5059 12.2082 18.9587 12.3162 19.2713 12.3959C19.552 12.4681 20.4193 13.0315 20.7692 12.9659C21.0437 12.9147 21.3281 12.4059 21.6495 12.4779C21.8553 12.5243 21.9542 12.6641 22.0648 12.7522C22.6671 13.2306 23.3982 14.103 24.746 14.0104C25.7523 13.9411 26.7028 13.445 27.0835 12.9538C27.2355 12.7581 27.3605 12.4638 27.6987 12.3232C27.9648 12.2124 29.1002 12.4191 29.5826 12.3475C30.4271 12.2216 30.0908 11.4538 30.7896 11.2701C31.4481 11.097 32.1604 11.4164 32.7661 11.4584C32.8856 11.4665 33.0147 11.4415 33.1468 11.396C33.0379 11.4833 32.9464 11.5502 32.906 11.5585C32.4803 11.6491 31.7413 11.3912 31.4315 11.5678C30.8775 11.8848 31.2729 12.6147 30.4937 12.8488C29.8861 13.0318 29.2677 12.4563 28.0394 12.9364C26.7986 13.4212 26.6709 15.0842 24.5008 14.7835C23.192 14.6022 22.9258 13.7472 21.8332 13.502C21.3926 13.4028 20.6377 13.6596 20.197 13.5604C19.6225 13.4313 19.5459 13.0306 18.8612 12.8764C18.6236 12.8231 17.9356 12.9805 17.7978 12.9144C17.5938 12.816 17.2536 12.7737 16.9705 12.6856C16.0344 12.3946 15.2607 12.2016 14.1642 12.0974C13.4374 12.0282 12.7267 12.03 12.0256 11.8728C11.8891 11.8418 10.6154 11.5826 10.9438 11.3948C11.0084 11.3579 11.0822 11.325 11.1633 11.2949L11.1615 11.2956Z" fill="#C6E0FA"/>
</g>
<path d="M110.407 22.7502L106.457 27.6948L109.876 30.4261L113.826 25.4814L110.407 22.7502Z" fill="#003C56"/>
<path d="M23.4206 36.5523L27.9764 29.8645H13.9499V34.2183H19.6951L15.6555 40.1656L19.2912 42.6342L20.8846 40.2778C23.1962 40.8388 24.9018 42.9036 24.9018 45.3722C24.9018 48.2673 22.5453 50.6238 19.6502 50.6238C16.7552 50.6238 14.3987 48.2673 14.3987 45.3722H10C10 50.6911 14.3314 55 19.6278 55C24.9467 55 29.2556 50.6686 29.2556 45.3722C29.2781 41.4448 26.8543 38.0335 23.4206 36.5523Z" fill="#003C56"/>
<path d="M112.876 29.887L106.075 38.3926V29.887H101.654V45.4845H106.053H106.075L112.876 36.9339V45.4845H117.252V29.887H112.876Z" fill="#003C56"/>
<path d="M87.7401 27.4631C89.8048 27.4631 91.7349 26.5205 93.2161 24.9495V27.0816H97.5923V11.4841H93.2161V12.7184C92.5877 12.1573 91.8471 11.7309 91.0392 11.4392C90.3659 11.2148 89.6702 11.1025 88.952 11.1025C85.6978 11.1025 82.713 13.459 81.5236 16.9376C80.0424 21.2465 81.9051 25.8248 85.6754 27.1264C86.3038 27.3509 87.022 27.4631 87.7401 27.4631ZM85.6081 18.2168C86.1691 16.6009 87.5381 15.5237 89.0418 15.5237C89.3784 15.5237 89.6926 15.5686 90.0068 15.6808C91.7349 16.2867 92.6101 18.3739 91.9144 20.3713C91.3533 21.9871 89.9844 23.0644 88.4807 23.0644C88.1441 23.0644 87.8299 23.0195 87.5157 22.9073C85.7876 22.3013 84.9124 20.1917 85.6081 18.2168Z" fill="#003C56"/>
<path d="M54.2118 45.8434C56.2765 45.8434 58.2065 44.9009 59.6877 43.3299V45.4619H64.064V29.8644H59.6877V31.0988C59.0594 30.5377 58.3188 30.1113 57.5108 29.8195C56.8376 29.5951 56.1418 29.4829 55.4237 29.4829C52.1695 29.4829 49.1847 31.8394 47.9952 35.3179C46.514 39.6269 48.3768 44.2051 52.1471 45.5068C52.7979 45.7312 53.5161 45.8434 54.2118 45.8434ZM52.0798 36.5972C52.6408 34.9813 54.0098 33.9041 55.5135 33.9041C55.8501 33.9041 56.1643 33.949 56.4785 34.0612C58.2065 34.6671 59.0818 36.7543 58.3861 38.7516C57.825 40.3675 56.456 41.4447 54.9524 41.4447C54.6158 41.4447 54.3016 41.3998 53.9874 41.2876C52.2593 40.6817 51.4065 38.5721 52.0798 36.5972Z" fill="#003C56"/>
<path d="M95.146 29.887L88.346 38.3926V29.887H83.9248V45.4845H88.3235L95.146 36.9339V45.4845H99.5223V29.887H95.146Z" fill="#003C56"/>
<path d="M59.688 11.5063V15.7255C59.688 17.7004 58.2068 19.2265 56.2767 19.2265C54.3691 19.2265 52.8655 17.678 52.8655 15.7255V11.4839H48.4443V15.7255C48.4443 20.0793 51.9454 23.6252 56.2543 23.6252C57.4886 23.6252 58.6556 23.3335 59.6656 22.8398V27.1038H64.0418V15.7255V11.5063H59.688Z" fill="#003C56"/>
<path d="M81.4347 11.4839H76.1383L72.4802 16.8476H70.5726V11.4839H66.1963V27.0814H70.5726V21.2463H72.9066L76.8789 27.0814H82.1753L76.4974 18.7328L81.4347 11.4839Z" fill="#003C56"/>
<path d="M77.4399 35.4751H70.6175V29.887H66.1963V45.4845H70.6175V39.8738H77.4399V45.4845H81.7938V29.887H77.4399V35.4751Z" fill="#003C56"/>
<g clip-path="url(#clip2_2002_1020)">
<path d="M107.663 24.8694C108.494 24.5375 108.873 23.566 109.601 23.0554C111.546 21.6922 110.793 24.6914 110.756 24.7232C110.368 25.0519 109.758 24.7312 109.322 25.0993C108.869 25.4828 108.535 26.0213 108.122 26.4239C107.858 26.6813 107.49 26.7215 107.226 26.9793C106.958 27.241 106.76 27.7668 106.386 27.8646C105.915 27.9882 106.371 27.0687 106.353 26.9618C106.122 25.6114 107.039 25.5338 107.663 24.8693L107.663 24.8694Z" fill="white"/>
<path d="M106.272 27.2465C106.431 27.2406 106.579 27.2751 106.732 27.1774C107.016 26.9951 107.025 26.5222 107.338 26.3219C107.724 26.075 108.122 25.8497 108.502 25.5289C108.775 25.2975 108.857 24.704 109.074 24.4734C109.568 23.9462 110.524 23.4114 110.153 22.7531C111.387 22.3218 110.789 24.6954 110.756 24.7234C110.367 25.0521 109.757 24.7314 109.322 25.0995C108.868 25.483 108.534 26.0215 108.122 26.4241C107.857 26.6815 107.489 26.7217 107.226 26.9795C106.958 27.2412 106.759 27.767 106.386 27.8648C106.062 27.95 106.176 27.5445 106.273 27.2464L106.272 27.2465Z" fill="#E5EFFB"/>
<path d="M106.19 27.5423C106.4 27.5325 106.63 27.4821 106.794 27.3359C107.179 26.991 107.384 26.5885 107.977 26.2592C108.57 25.9291 109.08 25.3083 109.208 24.8569C109.335 24.4054 109.724 24.4774 110.399 24.0224C110.78 23.7647 110.773 23.2184 110.695 22.7924C111.169 23.1832 110.782 24.7015 110.756 24.7244C110.367 25.053 109.757 24.7323 109.322 25.1005C108.868 25.484 108.534 26.0224 108.122 26.4251C107.857 26.6825 107.489 26.7227 107.226 26.9805C106.958 27.2422 106.759 27.7679 106.386 27.8658C106.165 27.9236 106.149 27.7523 106.191 27.5431L106.19 27.5423Z" fill="#C6E0FA"/>
</g>
<g clip-path="url(#clip3_2002_1020)">
<path d="M57.1597 28.9907C54.6156 29.2701 51.9723 29.2674 49.5043 29.1029C48.583 29.0413 47.0134 28.6332 46.0503 28.7297C44.8487 28.8501 41.6002 29.1203 40.4489 29.0284C38.806 28.897 36.6772 28.3115 34.9409 28.5431C34.1245 28.6525 33.2707 28.7058 32.4197 28.8418C31.0758 29.0569 30.1085 29.4632 28.6855 29.6258C26.8183 29.8391 24.5286 29.6948 22.7103 29.476C20.2567 29.1819 15.7233 28.9099 13.7483 29.7003C13.5457 29.7812 13.2697 29.9852 13.3746 30.1111C14.2313 31.1396 15.9101 30.7582 16.7352 31.4181C17.1304 31.7342 16.5454 32.3886 17.4826 32.5761C18.6497 32.8096 19.012 31.7223 19.8169 31.8289C20.5327 31.9245 20.6276 32.1965 21.2169 32.3142C21.914 32.4539 22.0822 31.7967 23.738 32.1276C24.6306 32.3059 25.2688 32.6634 26.2592 32.7627C26.8456 32.8215 29.0793 32.1423 29.7132 32.0155C30.3399 31.8896 31.1793 32.0329 31.8606 31.9778C33.1787 31.8721 34.4551 31.9263 35.7817 32.0155C37.2321 32.112 38.8103 31.9649 40.17 31.8289C42.8047 31.5651 43.4214 33.3592 45.678 33.5099C47.0392 33.6009 47.6889 32.6965 48.8517 32.464C49.4483 32.3445 50.2704 32.6653 50.9057 32.5385C51.5181 32.4162 52.0096 32.157 52.6795 32.0899C53.217 32.0366 53.8078 32.0844 54.3597 32.0522C55.4277 31.9916 56.5632 31.8262 57.5335 31.6037C58.2981 31.4291 59.9181 30.9999 60.148 30.6322C60.7532 29.6654 59.1232 28.7729 57.1612 28.9889L57.1597 28.9907Z" fill="white"/>
<path d="M13.7438 29.7028C13.5411 29.7855 13.2709 29.9868 13.3744 30.1109C14.2311 31.1394 15.9099 30.7579 16.735 31.4179C17.1302 31.734 16.5452 32.3884 17.4824 32.5759C18.6495 32.8094 19.0118 31.7212 19.8167 31.8287C20.5325 31.9243 20.6274 32.1963 21.2167 32.314C21.9138 32.4537 22.082 31.7965 23.7378 32.1274C24.6304 32.3057 25.2686 32.6632 26.259 32.7625C26.8454 32.8213 29.0791 32.1421 29.713 32.0153C30.3397 31.8894 31.1791 32.0327 31.8604 31.9776C33.1785 31.8719 34.4549 31.9261 35.7815 32.0153C37.2319 32.1118 38.8115 31.9647 40.1698 31.8287C42.8045 31.5649 43.4212 33.359 45.6778 33.5097C47.039 33.6007 47.6887 32.6963 48.8515 32.4638C49.4481 32.3443 50.2702 32.6651 50.9055 32.5382C51.5179 32.416 52.0094 32.1568 52.6793 32.0897C53.2168 32.0364 53.8076 32.0842 54.3595 32.052C55.4275 31.9914 56.563 31.8259 57.5333 31.6035C58.2979 31.4289 59.9179 30.9997 60.1478 30.632C60.3289 30.3425 60.3059 30.0604 60.1378 29.8122C59.6218 30.0686 59.0813 30.3296 58.5524 30.4592C57.3177 30.7625 55.4692 30.4464 54.6801 30.6403C54.2259 30.7515 53.2686 31.1578 52.7439 31.0925C52.0511 31.0079 50.4973 30.6706 49.8865 30.8214C48.3657 31.1945 47.407 32.1623 45.6448 32.4509C44.5711 32.6265 42.7815 31.3627 42.1405 31.0484C41.9364 30.9482 40.9043 30.9528 40.5737 30.9124C38.6304 30.6743 36.7158 31.3664 34.8573 31.1385C33.7218 30.9987 32.1637 30.7515 30.985 30.8673C29.6368 30.9997 28.244 31.4215 26.9288 31.6366C26.2417 31.7487 22.2861 30.6743 20.843 30.5962C18.8163 30.4859 15.2947 30.5245 13.7438 29.7019V29.7028Z" fill="#E5EFFB"/>
<path d="M13.5548 29.8075C13.4139 29.9022 13.3032 30.0244 13.3751 30.1108C14.2318 31.1393 15.9106 30.7578 16.7357 31.4178C17.1309 31.7339 16.5459 32.3883 17.4831 32.5758C18.6502 32.8093 19.0125 31.7211 19.8174 31.8286C20.5332 31.9242 20.6281 32.1962 21.2174 32.3139C21.9145 32.4536 22.0827 31.7964 23.7385 32.1273C24.6311 32.3056 25.2693 32.6631 26.2597 32.7624C26.8461 32.8212 29.0798 32.142 29.7137 32.0152C30.3404 31.8893 31.1798 32.0326 31.8611 31.9775C33.1792 31.8718 34.4556 31.926 35.7822 32.0152C37.2325 32.1117 38.8122 31.9646 40.1705 31.8286C42.8052 31.5648 43.4219 33.3589 45.6785 33.5096C47.0397 33.6006 47.6894 32.6962 48.8522 32.4637C49.4487 32.3442 50.2709 32.665 50.9062 32.5381C51.5186 32.4159 52.0101 32.1567 52.68 32.0896C53.2175 32.0363 53.8083 32.0841 54.3602 32.0519C55.4282 31.9913 56.5637 31.8258 57.5339 31.6034C58.2986 31.4288 59.9185 30.9996 60.1485 30.6319C60.2017 30.5465 60.2319 30.4619 60.252 30.3792C60.1629 30.4095 60.0738 30.4389 59.9775 30.4803C57.8919 31.3764 55.283 31.2486 53.3282 31.4398C51.3719 31.6319 51.5027 31.8874 50.1991 31.7597C48.8954 31.6319 49.2863 31.6319 47.3301 32.3359C45.3738 33.04 45.1136 33.04 43.9407 32.528C42.7679 32.0161 41.3334 31.2477 38.7245 31.4398C36.1171 31.6319 34.8135 31.5042 32.3354 31.3121C29.8574 31.12 29.2063 31.5042 27.25 31.9518C25.2938 32.3994 24.5118 31.8874 23.4683 31.4398C22.4248 30.9922 22.2954 31.6319 21.512 31.5042C20.7301 31.3764 21.1211 31.12 19.6866 31.0556C18.2521 30.9913 18.3829 31.6953 17.7303 31.3121C17.0778 30.9279 17.8611 30.8645 16.5574 30.7358C15.8057 30.6623 14.5351 30.1972 13.5562 29.8057L13.5548 29.8075Z" fill="#C6E0FA"/>
</g>
<g clip-path="url(#clip4_2002_1020)">
<path d="M62.5512 28.9907C65.0953 29.2701 67.7387 29.2674 70.2066 29.1029C71.128 29.0413 72.6976 28.6332 73.6606 28.7297C74.8623 28.8501 78.1107 29.1203 79.2621 29.0284C80.905 28.897 83.0337 28.3115 84.77 28.5431C85.5865 28.6525 86.4403 28.7058 87.2912 28.8418C88.6351 29.0569 89.6025 29.4632 91.0255 29.6258C92.8926 29.8391 95.1823 29.6948 97.0006 29.476C99.4542 29.1819 103.988 28.9099 105.963 29.7003C106.165 29.7812 106.441 29.9852 106.336 30.1111C105.48 31.1396 103.801 30.7582 102.976 31.4181C102.58 31.7342 103.165 32.3886 102.228 32.5761C101.061 32.8096 100.699 31.7223 99.894 31.8289C99.1782 31.9245 99.0834 32.1965 98.494 32.3142C97.7969 32.4539 97.6288 31.7967 95.9729 32.1276C95.0803 32.3059 94.4421 32.6634 93.4518 32.7627C92.8653 32.8215 90.6316 32.1423 89.9978 32.0155C89.3711 31.8896 88.5316 32.0329 87.8503 31.9778C86.5323 31.8721 85.2559 31.9263 83.9292 32.0155C82.4789 32.112 80.9007 31.9649 79.5409 31.8289C76.9062 31.5651 76.2896 33.3592 74.0329 33.5099C72.6717 33.6009 72.022 32.6965 70.8592 32.464C70.2627 32.3445 69.4405 32.6653 68.8052 32.5385C68.1929 32.4162 67.7013 32.157 67.0315 32.0899C66.4939 32.0366 65.9031 32.0844 65.3512 32.0522C64.2832 31.9916 63.1477 31.8262 62.1775 31.6037C61.4128 31.4291 59.7929 30.9999 59.5629 30.6322C58.9578 29.6654 60.5878 28.7729 62.5498 28.9889L62.5512 28.9907Z" fill="white"/>
<path d="M105.967 29.7028C106.17 29.7855 106.44 29.9868 106.337 30.1109C105.48 31.1394 103.801 30.7579 102.976 31.4179C102.581 31.734 103.166 32.3884 102.229 32.5759C101.061 32.8094 100.699 31.7212 99.8942 31.8287C99.1784 31.9243 99.0836 32.1963 98.4943 32.314C97.7971 32.4537 97.629 31.7965 95.9731 32.1274C95.0805 32.3057 94.4423 32.6632 93.452 32.7625C92.8655 32.8213 90.6318 32.1421 89.998 32.0153C89.3713 31.8894 88.5318 32.0327 87.8505 31.9776C86.5325 31.8719 85.2561 31.9261 83.9294 32.0153C82.4791 32.1118 80.8994 31.9647 79.5411 31.8287C76.9064 31.5649 76.2898 33.359 74.0331 33.5097C72.6719 33.6007 72.0222 32.6963 70.8594 32.4638C70.2629 32.3443 69.4407 32.6651 68.8054 32.5382C68.1931 32.416 67.7015 32.1568 67.0317 32.0897C66.4941 32.0364 65.9033 32.0842 65.3514 32.052C64.2834 31.9914 63.1479 31.8259 62.1777 31.6035C61.413 31.4289 59.7931 30.9997 59.5631 30.632C59.382 30.3425 59.405 30.0604 59.5732 29.8122C60.0892 30.0686 60.6296 30.3296 61.1586 30.4592C62.3933 30.7625 64.2417 30.4464 65.0309 30.6403C65.4851 30.7515 66.4424 31.1578 66.967 31.0925C67.6598 31.0079 69.2136 30.6706 69.8245 30.8214C71.3452 31.1945 72.3039 32.1623 74.0662 32.4509C75.1399 32.6265 76.9294 31.3627 77.5705 31.0484C77.7746 30.9482 78.8066 30.9528 79.1372 30.9124C81.0805 30.6743 82.9951 31.3664 84.8536 31.1385C85.9891 30.9987 87.5472 30.7515 88.7259 30.8673C90.0741 30.9997 91.467 31.4215 92.7821 31.6366C93.4692 31.7487 97.4248 30.6743 98.868 30.5962C100.895 30.4859 104.416 30.5245 105.967 29.7019V29.7028Z" fill="#E5EFFB"/>
<path d="M106.156 29.8075C106.297 29.9022 106.408 30.0244 106.336 30.1108C105.479 31.1393 103.8 30.7578 102.975 31.4178C102.58 31.7339 103.165 32.3883 102.228 32.5758C101.061 32.8093 100.698 31.7211 99.8936 31.8286C99.1777 31.9242 99.0829 32.1962 98.4936 32.3139C97.7964 32.4536 97.6283 31.7964 95.9724 32.1273C95.0798 32.3056 94.4416 32.6631 93.4513 32.7624C92.8648 32.8212 90.6311 32.142 89.9973 32.0152C89.3706 31.8893 88.5312 32.0326 87.8498 31.9775C86.5318 31.8718 85.2554 31.926 83.9287 32.0152C82.4784 32.1117 80.8987 31.9646 79.5404 31.8286C76.9057 31.5648 76.2891 33.3589 74.0324 33.5096C72.6712 33.6006 72.0215 32.6962 70.8587 32.4637C70.2622 32.3442 69.44 32.665 68.8047 32.5381C68.1924 32.4159 67.7008 32.1567 67.031 32.0896C66.4934 32.0363 65.9027 32.0841 65.3507 32.0519C64.2827 31.9913 63.1472 31.8258 62.177 31.6034C61.4123 31.4288 59.7924 30.9996 59.5624 30.6319C59.5092 30.5465 59.479 30.4619 59.4589 30.3792C59.548 30.4095 59.6372 30.4389 59.7335 30.4803C61.8191 31.3764 64.4279 31.2486 66.3827 31.4398C68.339 31.6319 68.2082 31.8874 69.5119 31.7597C70.8156 31.6319 70.4246 31.6319 72.3809 32.3359C74.3371 33.04 74.5973 33.04 75.7702 32.528C76.9431 32.0161 78.3776 31.2477 80.9864 31.4398C83.5938 31.6319 84.8975 31.5042 87.3755 31.3121C89.8535 31.12 90.5047 31.5042 92.4609 31.9518C94.4172 32.3994 95.1991 31.8874 96.2426 31.4398C97.2862 30.9922 97.4155 31.6319 98.1989 31.5042C98.9808 31.3764 98.5899 31.12 100.024 31.0556C101.459 30.9913 101.328 31.6953 101.981 31.3121C102.633 30.9279 101.85 30.8645 103.154 30.7358C103.905 30.6623 105.176 30.1972 106.155 29.8057L106.156 29.8075Z" fill="#C6E0FA"/>
</g>
<g clip-path="url(#clip5_2002_1020)">
<path d="M72.8933 7.5638C69.6472 7.46274 66.4116 7.71119 63.2871 8.26426C61.0327 8.65309 58.6846 8.37515 56.3903 8.3176C53.7295 8.25022 50.9819 7.85578 48.3559 8.24882C46.0199 8.58992 45.8861 9.68558 46.0302 10.8928C46.0528 12.3863 46.187 11.9326 46.4493 13.4065C46.5984 14.2444 46.8841 17.213 48.963 15.9202C49.8009 15.0823 49.3586 14.2234 52.3146 14.2444C53.7649 13.4611 54.5997 12.5414 56.7637 12.2985C58.3355 12.947 60.4665 13.2699 61.9254 12.2326C63.4052 11.2373 65.8697 11.6247 66.7902 12.7716C68.4732 14.2623 70.1561 12.4263 71.8304 12.0964C73.8364 11.6753 75.8007 12.6565 77.8414 12.3687C79.6842 12.3112 81.7423 11.6177 83.3418 12.3617C84.5802 13.8903 86.9457 12.7449 88.6286 12.2999C91.1279 11.4675 91.404 14.209 93.7626 13.3246C95.6158 13.6728 95.9371 15.0203 96.5901 15.9917C96.8055 16.782 98.2522 18.9114 99.204 17.2157C100.154 15.7292 100.982 14.0784 100.156 12.4908C99.3916 11.5489 99.6364 10.2491 98.1063 9.53041C96.3192 8.55904 93.7557 8.86364 91.569 8.76258C89.0559 8.74152 86.5497 8.86364 84.0539 8.62361C80.9433 8.31619 77.9613 7.56521 74.7777 7.57223C74.149 7.5624 73.522 7.5624 72.8933 7.5624V7.5638Z" fill="white"/>
<path d="M64.4114 10.7176C62.3933 10.6727 60.3299 11.4152 58.4646 11.7044C57.0995 11.9164 55.3071 10.9941 53.7857 11.1513C52.0072 11.3352 50.4094 13.2709 48.7733 13.0169C47.3231 12.7937 46.5415 11.929 46.0361 10.966C46.0431 11.1191 46.0552 11.2692 46.0726 11.4124C46.0952 12.906 46.5016 14.3841 46.7621 15.858C46.2828 16.8125 47.0956 19.3673 49.1745 18.0745C49.6296 16.7058 49.8084 14.9035 52.7645 14.9245C54.2147 14.1412 54.5985 12.5396 56.7626 12.2954C58.3344 12.9439 60.4654 13.2667 61.9243 12.2294C63.4041 11.2342 65.8686 11.6216 66.7891 12.7684C68.472 14.2592 70.155 12.4231 71.8293 12.0932C73.8352 11.6721 75.7996 12.6533 77.842 12.3656C79.6848 12.308 81.7429 11.6146 83.3425 12.3585C84.5808 13.8872 86.9463 12.7417 88.6293 12.2968C91.1285 11.4644 91.4064 14.2058 93.7632 13.3215C95.6164 13.6696 95.9394 15.0172 96.5907 15.9871C96.8061 16.7774 98.2528 18.9069 99.2046 17.2112C100.155 15.7246 100.983 14.0739 100.156 12.4863C99.776 12.0188 99.6457 11.463 99.4234 10.9324C98.4091 11.2987 97.4244 12.8723 96.12 12.6688C95.533 12.5775 94.8869 11.7704 94.6716 11.7704C94.1036 11.7704 93.725 12.3122 93.1119 12.1845C91.9708 11.9486 90.4928 11.0783 89.324 11.0783C88.3479 11.0783 87.4448 11.9332 86.3158 11.7002C85.7288 11.5795 85.2303 11.1991 84.645 11.0783C82.6582 10.6671 80.4698 11.6104 78.4065 11.3549C77.8559 11.2861 72.4215 10.8285 71.9439 10.8706C70.881 10.9646 69.8875 11.3408 68.8246 11.4237C67.3622 11.5374 66.2715 10.8453 64.8143 10.733C64.6806 10.7232 64.5469 10.7162 64.4114 10.7134V10.7176Z" fill="#E5EFFB"/>
<path d="M63.6713 11.1374C62.1239 11.1191 60.4218 11.9291 58.9646 12.1551C57.7437 12.3446 56.382 11.6006 55.1211 11.9136C53.7977 12.2421 53.7629 13.2584 52.6705 13.7104C51.8855 14.0347 51.6423 12.8962 50.2754 13.8143C49.4922 14.3407 49.2959 15.8805 47.8248 15.7149C47.2708 15.6517 46.8679 15.232 46.5361 14.7028C46.6143 15.0888 46.6942 15.4749 46.7619 15.8609C46.2826 16.8154 47.0954 19.3702 49.1743 18.0774C49.6294 16.7087 49.8083 14.9064 52.7643 14.9274C54.2145 14.1441 54.5983 12.5425 56.7624 12.2983C58.3342 12.9468 60.4652 13.2696 61.9241 12.2323C63.4039 11.2371 65.8684 11.6245 66.7889 12.7713C68.4718 14.2621 70.1548 12.426 71.8291 12.0961C73.835 11.675 75.7994 12.6562 77.8418 12.3684C79.6846 12.3109 81.7427 11.6175 83.3423 12.3614C84.5806 13.8901 86.9461 12.7446 88.6291 12.2997C91.1283 11.4673 91.4062 14.2087 93.763 13.3244C95.6162 13.6725 95.9392 15.0201 96.5905 15.99C96.8059 16.7803 98.2526 18.9098 99.2044 17.2141C100.154 15.7275 100.983 14.0768 100.156 12.4892C100.015 12.3151 99.913 12.1256 99.8244 11.9333C99.2999 11.9726 99.1974 12.7531 99.0168 12.8808C98.2822 13.3932 96.5384 13.7399 95.4512 13.5714C94.4647 13.4184 94.6991 12.8345 94.0583 12.5692C93.4452 12.3165 91.4618 12.5509 90.5499 12.3614C89.9039 12.2281 89.7823 11.7045 88.9903 11.7045C87.686 11.7045 86.7394 12.5453 85.3135 12.2926C84.6709 12.1789 84.8897 11.7803 84.4225 11.6357C83.4447 11.3325 80.4314 11.7269 79.2417 11.8084C76.831 11.974 74.4395 11.5318 72.0566 11.5318C70.6011 11.5318 69.3819 12.2786 67.8796 12.1537C66.834 12.0666 65.5245 11.289 63.9805 11.1514C63.878 11.143 63.7755 11.1374 63.6731 11.136L63.6713 11.1374Z" fill="#C6E0FA"/>
</g>
</g>
<defs>
<clipPath id="clip0_2002_1020">
<rect width="5.86536" height="1.67582" fill="white" transform="translate(112.226 28.4888)"/>
</clipPath>
<clipPath id="clip1_2002_1020">
<rect width="23.6429" height="5.26359" fill="white" transform="matrix(-0.999364 0.035655 0.035655 0.999364 34.4658 9.21704)"/>
</clipPath>
<clipPath id="clip2_2002_1020">
<rect width="6.6787" height="2.9491" fill="white" transform="matrix(-0.541819 0.840495 0.840495 0.541819 109.141 21.7859)"/>
</clipPath>
<clipPath id="clip3_2002_1020">
<rect width="46.9229" height="5.02746" fill="white" transform="translate(13.3516 28.4888)"/>
</clipPath>
<clipPath id="clip4_2002_1020">
<rect width="46.9229" height="5.02746" fill="white" transform="matrix(-1 0 0 1 106.359 28.4888)"/>
</clipPath>
<clipPath id="clip5_2002_1020">
<rect width="54.4641" height="10.8928" fill="white" transform="translate(46.0303 7.54102)"/>
</clipPath>
</defs>
</svg>
