<svg width="128" height="40" viewBox="0 0 128 40" fill="none" xmlns="http://www.w3.org/2000/svg">
<g clip-path="url(#clip0_2008_30)">
<path d="M17.105 40.0001C20.1483 40.0001 22.6154 39.484 22.6154 38.8473C22.6154 38.2107 20.1483 37.6946 17.105 37.6946C14.0618 37.6946 11.5947 38.2107 11.5947 38.8473C11.5947 39.484 14.0618 40.0001 17.105 40.0001Z" fill="white" fill-opacity="0.5"/>
<path d="M17.1045 9.22241C10.561 9.22241 5.28027 14.6403 5.28027 21.2109C5.28027 31.1244 15.7269 37.2339 16.1861 37.695C16.6453 38.1561 17.4489 38.1561 17.9081 37.695C18.3673 37.3492 28.8139 31.1244 28.8139 21.2109C28.8139 14.6403 23.5332 9.22241 17.1045 9.22241ZM17.1045 27.8968C13.5457 27.8968 10.561 24.8996 10.561 21.2109C10.561 17.5221 13.5457 14.525 17.1045 14.525C20.6632 14.525 23.648 17.5221 23.648 21.2109C23.648 24.8996 20.6632 27.8968 17.1045 27.8968Z" fill="white"/>
<path fill-rule="evenodd" clip-rule="evenodd" d="M2.86989 8.99128C3.09949 8.99128 3.21428 9.22183 3.21428 9.45238C3.21428 9.7982 2.98469 10.0287 2.75509 10.0287C2.52549 10.0287 2.2959 9.7982 2.2959 9.45238C2.2959 9.22183 2.4107 8.99128 2.64029 8.99128V8.06909H2.98469L2.86989 8.99128Z" fill="white"/>
<path fill-rule="evenodd" clip-rule="evenodd" d="M4.36225 22.5937L2.75507 10.7205L1.2627 22.5937H4.36225Z" fill="white"/>
<path fill-rule="evenodd" clip-rule="evenodd" d="M2.29546 9.79785C2.41026 9.91313 2.52506 10.0284 2.63986 10.0284C2.75466 10.0284 2.86945 9.91313 2.98425 9.79785V10.9506C2.75466 10.9506 2.52506 10.9506 2.18066 10.9506V9.79785H2.29546Z" fill="white"/>
<path d="M49.3637 39.0772C47.4121 39.0772 45.805 38.6161 44.7718 37.6939C43.7386 36.7717 43.1646 35.5037 43.0498 33.7746H46.2642C46.2642 34.2357 46.379 34.6968 46.4938 35.0426C46.7233 35.3884 46.8381 35.7342 47.1825 35.9648C47.4121 36.1953 47.7565 36.3106 48.2157 36.4259C48.5601 36.5412 49.0193 36.5412 49.4785 36.5412C50.2821 36.5412 50.8561 36.3106 51.3153 35.8495C51.7745 35.3884 52.0041 34.812 52.0041 34.1204C52.0041 33.6593 51.8893 33.4288 51.7745 33.0829C51.6597 32.8524 51.4301 32.6218 51.2005 32.3913C50.8561 32.3913 50.5117 32.276 50.1673 32.276C49.8229 32.276 49.4785 32.1607 49.1341 32.1607H47.9861V29.9705C48.1009 29.9705 48.2157 29.9705 48.4453 29.9705C48.6749 29.9705 48.7897 29.9705 48.9045 29.9705C50.6265 29.9705 51.5449 29.2789 51.5449 28.0109C51.5449 27.4345 51.3153 26.9734 50.9709 26.6276C50.6265 26.2818 50.0525 26.1665 49.3637 26.1665C48.5601 26.1665 47.9861 26.3971 47.4121 26.7429C46.9529 27.0887 46.7233 27.6651 46.6085 28.3567H43.6238C43.6238 27.5498 43.8534 26.8582 44.083 26.2818C44.4274 25.7054 44.7718 25.2443 45.3458 24.7832C45.9198 24.4374 46.4937 24.0916 47.1825 23.9763C47.8713 23.7458 48.5601 23.7458 49.3637 23.7458C50.0525 23.7458 50.7413 23.861 51.4301 24.0916C52.1189 24.3221 52.5781 24.5527 53.0373 24.8985C53.4964 25.2443 53.8408 25.7054 54.0704 26.1665C54.3 26.6276 54.5296 27.204 54.5296 27.7803C54.5296 28.472 54.3 29.1636 53.9556 29.74C53.4964 30.3164 53.0372 30.6622 52.3485 30.7775C52.6929 30.8927 53.0372 31.008 53.3816 31.1233C53.726 31.3538 54.0704 31.5844 54.3 31.8149C54.5296 32.0455 54.7592 32.3913 54.874 32.8524C54.9888 33.1982 55.1036 33.6593 55.1036 34.1204C55.1036 34.812 54.9888 35.5037 54.6444 36.0801C54.4148 36.6564 53.9556 37.2328 53.4964 37.5786C53.0372 38.0397 52.3485 38.3855 51.6597 38.6161C50.9709 38.9619 50.2821 39.0772 49.3637 39.0772ZM57.0552 24.0916H60.2695V29.74H66.1242V24.0916H69.3386V38.7314H66.1242V32.3913H60.2695V38.7314H57.0552V24.0916ZM75.9969 24.0916H79.2112L84.6068 38.7314H81.2776L80.1296 35.5037H74.7341L73.5861 38.7314H70.3718C70.4866 38.7314 75.9969 24.0916 75.9969 24.0916ZM79.4408 33.0829L77.6041 27.6651L75.6525 33.0829H79.4408ZM85.7547 24.0916H88.9691V29.74H94.8238V24.0916H98.0382V38.7314H94.8238V32.3913H88.9691V38.7314H85.7547V24.0916ZM100.679 24.0916H103.893V34.2357H104.008L109.518 24.0916H113.077V38.7314H109.862V28.5873H109.748L104.237 38.7314H100.679V24.0916ZM115.717 24.0916H118.931V34.2357H119.046L124.557 24.0916H128.115V38.7314H124.901V28.5873H124.786L119.276 38.7314H115.717V24.0916ZM122.031 22.8236C119.391 22.8236 118.128 21.7861 118.128 19.7112H120.539C120.539 20.1723 120.653 20.5181 120.883 20.7486C121.113 20.9792 121.572 21.2097 122.031 21.2097C122.605 21.2097 123.064 21.0945 123.294 20.8639C123.523 20.6334 123.638 20.2876 123.638 19.8265H126.049C125.934 21.7861 124.671 22.8236 122.031 22.8236Z" fill="white"/>
<path d="M46.0346 8.64537H43.0498V7.72318H50.1673V8.76065H47.1825V16.7145H46.0346C46.0346 16.5993 46.0346 8.64537 46.0346 8.64537ZM54.874 16.8298C54.1852 16.8298 53.4964 16.7145 53.0372 16.484C52.4633 16.2534 52.0041 15.9076 51.6597 15.4465C51.3153 14.9854 51.0857 14.5243 50.8561 13.948C50.6265 13.3716 50.6265 12.7952 50.6265 12.2189C50.6265 11.6425 50.7413 11.0661 50.8561 10.4898C51.0857 9.91339 51.3153 9.45229 51.6597 8.9912C52.0041 8.5301 52.4633 8.18428 53.0372 7.95373C53.6112 7.72318 54.1852 7.60791 54.874 7.60791C55.5628 7.60791 56.2516 7.72318 56.7108 7.95373C57.2848 8.18428 57.744 8.5301 58.0884 8.9912C58.4328 9.45229 58.6624 9.91339 58.892 10.4898C59.1216 11.0661 59.1216 11.6425 59.1216 12.2189C59.1216 12.7952 59.0068 13.3716 58.892 13.948C58.6624 14.5243 58.4328 14.9854 58.0884 15.4465C57.744 15.9076 57.2848 16.2534 56.7108 16.484C56.1368 16.7145 55.5628 16.8298 54.874 16.8298ZM54.874 15.7923C55.448 15.7923 55.9072 15.6771 56.2516 15.4465C56.596 15.216 56.9404 14.9854 57.17 14.6396C57.3996 14.2938 57.6292 13.948 57.744 13.4869C57.8588 13.0258 57.9736 12.5647 57.9736 12.1036C57.9736 11.6425 57.8588 11.1814 57.744 10.7203C57.6292 10.2592 57.3996 9.91339 57.17 9.56756C56.9404 9.22174 56.596 8.9912 56.2516 8.76065C55.9072 8.5301 55.448 8.41483 54.874 8.41483C54.3 8.41483 53.8408 8.5301 53.4964 8.76065C53.152 8.9912 52.8077 9.22174 52.5781 9.56756C52.3485 9.91339 52.1189 10.2592 52.0041 10.7203C51.8893 11.1814 51.7745 11.6425 51.7745 12.1036C51.7745 12.5647 51.8893 13.0258 52.0041 13.4869C52.1189 13.948 52.3485 14.2938 52.5781 14.6396C52.8077 14.9854 53.152 15.216 53.4964 15.4465C53.8408 15.7923 54.3 15.7923 54.874 15.7923ZM65.5503 12.7952C65.4355 12.7952 65.3207 12.9105 65.0911 12.9105C64.8615 12.9105 64.7467 13.0258 64.5171 13.0258C64.2875 13.0258 64.0579 13.1411 63.8283 13.1411C63.5987 13.1411 63.3691 13.1411 63.1395 13.1411C62.4507 13.1411 61.8767 13.0258 61.5323 12.9105C61.0731 12.7952 60.8435 12.5647 60.6139 12.2189C60.3843 11.9883 60.2695 11.6425 60.1547 11.2967C60.0399 10.9508 60.0399 10.605 60.0399 10.2592V7.72318H61.1879V10.3745C61.1879 10.605 61.1879 10.8356 61.1879 11.0661C61.1879 11.2967 61.3027 11.5272 61.4175 11.6425C61.5323 11.873 61.7619 11.9883 61.9915 12.1036C62.2211 12.2189 62.5655 12.3341 63.0247 12.3341C63.5987 12.3341 64.0579 12.3341 64.4023 12.2189C64.7467 12.1036 65.0911 11.9883 65.3207 11.873V7.72318H66.4686V16.7145H65.3207L65.5503 12.7952ZM68.535 7.72318H69.683V12.1036L74.1601 7.72318H75.7673L71.5198 11.7578L75.8821 16.7145H74.3897L70.6014 12.4494L69.683 13.2563V16.5993H68.535V7.72318ZM79.0964 7.72318H80.3592L83.8032 16.7145H82.5404L81.622 14.0632H77.8337L76.9153 16.5993H75.6525L79.0964 7.72318ZM81.2776 12.9105L79.7852 8.76065L78.2928 12.9105H81.2776Z" fill="white"/>
<path fill-rule="evenodd" clip-rule="evenodd" d="M16.876 5.18726H16.9908H17.1056H17.2204H17.3352V10.4898H17.2204H17.1056H16.9908H16.876V5.18726Z" fill="white"/>
<path d="M17.1049 0L0 7.37752L8.38027 11.0663V7.83862C8.49507 7.83862 8.60987 7.95389 8.60987 7.95389C14.1202 4.72622 19.9749 4.8415 25.2556 8.06916C25.3704 8.06916 25.7148 7.72334 25.8296 7.83862V10.7205L34.2099 7.37752C34.2099 7.26225 17.1049 0 17.1049 0Z" fill="white"/>
<path fill-rule="evenodd" clip-rule="evenodd" d="M17.1041 5.18726C17.1041 7.03164 17.1041 8.76074 17.1041 10.6051C13.8898 10.6051 10.7902 11.6426 8.26465 13.487C8.26465 9.68293 8.26465 7.83855 8.26465 7.83855C10.905 6.22472 14.0046 5.30253 17.1041 5.18726Z" fill="white"/>
<path fill-rule="evenodd" clip-rule="evenodd" d="M17.1045 5.18726C17.1045 7.03164 17.1045 8.76074 17.1045 10.6051C20.3188 10.6051 23.4184 11.6426 25.944 13.487C25.944 9.68293 25.944 7.83855 25.944 7.83855C23.3036 6.22472 20.204 5.30253 17.1045 5.18726Z" fill="white"/>
</g>
<defs>
<clipPath id="clip0_2008_30">
<rect width="128" height="40" fill="white"/>
</clipPath>
</defs>
</svg>
