<svg width="128" height="55" viewBox="0 0 128 55" fill="none" xmlns="http://www.w3.org/2000/svg">
<path d="M32.8638 0.000415318C26.4357 0.0543365 21.2664 5.36557 21.32 11.8361C21.3736 18.3067 26.65 23.5101 33.0781 23.4561C39.5062 23.4022 44.6755 18.091 44.6219 11.6204C44.5684 5.14989 39.292 -0.0535059 32.8638 0.000415318ZM33.0245 18.1719C29.4891 18.1988 26.5964 15.341 26.5428 11.7822C26.5161 8.2234 29.3551 5.31165 32.8906 5.28469C36.4261 5.25773 39.3187 8.11555 39.3455 11.6744C39.4259 15.2331 36.56 18.1449 33.0245 18.1719Z" fill="#F37E60"/>
<path d="M32.9442 8.78955C31.3371 8.81651 30.0515 10.1376 30.0515 11.7552C30.0783 13.3729 31.3907 14.667 32.9977 14.667C34.6048 14.64 35.8904 13.3189 35.8904 11.7013C35.8904 10.0837 34.5512 8.78955 32.9442 8.78955Z" fill="#F37E60"/>
<path d="M38.2205 31.5445H30.105V24.8313H24.8018V43.5689H30.105V36.8288H38.2205V43.5689H43.4433V24.8313H38.2205V31.5445Z" fill="#003C56"/>
<path d="M8.14225 21.461H13.3651V8.03462H20.0611V2.72339H1.44629V8.03462H8.14225V21.461Z" fill="#003C56"/>
<path d="M119.831 16.2576L115.117 22.1978L119.197 25.4788L123.911 19.5387L119.831 16.2576Z" fill="#003C56"/>
<path d="M16.0167 32.8385L21.4539 24.8042H4.71396V30.0346H11.5706L6.74953 37.1791L11.0885 40.1448L12.9902 37.3139C15.7489 37.9879 17.7845 40.4683 17.7845 43.434C17.7845 46.9119 14.9722 49.7427 11.5171 49.7427C8.06194 49.7427 5.24963 46.9119 5.24963 43.434H0C0 49.8236 5.16928 55.0001 11.4903 55.0001C17.838 55.0001 22.9805 49.7967 22.9805 43.434C23.0073 38.7159 20.1147 34.6179 16.0167 32.8385Z" fill="#003C56"/>
<path d="M122.777 24.8313L114.662 35.0494V24.8313H109.385V43.5689H114.635H114.662L122.777 33.2969V43.5689H128V24.8313H122.777Z" fill="#003C56"/>
<path d="M92.7792 21.9194C95.2433 21.9194 97.5467 20.7871 99.3144 18.8998V21.4611H104.537V2.72347H99.3144V4.2063C98.5645 3.53228 97.6806 3.02003 96.7164 2.66955C95.9129 2.39994 95.0826 2.26514 94.2255 2.26514C90.3418 2.26514 86.7796 5.096 85.36 9.27489C83.5923 14.4513 85.8154 19.9513 90.3151 21.515C91.065 21.7846 91.9221 21.9194 92.7792 21.9194ZM90.2347 10.8116C90.9043 8.87048 92.5381 7.57637 94.3326 7.57637C94.7344 7.57637 95.1094 7.63029 95.4843 7.7651C97.5467 8.49303 98.5913 11.0004 97.761 13.3999C97.0914 15.341 95.4576 16.6351 93.663 16.6351C93.2613 16.6351 92.8863 16.5812 92.5113 16.4464C90.449 15.7185 89.4044 13.1842 90.2347 10.8116Z" fill="#003C56"/>
<path d="M52.7643 44.0002C55.2284 44.0002 57.5318 42.8679 59.2995 40.9806V43.5419H64.5224V24.8043H59.2995V26.2871C58.5496 25.6131 57.6657 25.1008 56.7015 24.7504C55.898 24.4808 55.0677 24.3459 54.2106 24.3459C50.3269 24.3459 46.7647 27.1768 45.3452 31.3557C43.5774 36.5321 45.8005 42.0321 50.3002 43.5958C51.0769 43.8654 51.934 44.0002 52.7643 44.0002ZM50.2198 32.8925C50.8894 30.9513 52.5232 29.6572 54.3177 29.6572C54.7195 29.6572 55.0945 29.7111 55.4694 29.8459C57.5318 30.5738 58.5764 33.0812 57.7461 35.4807C57.0765 37.4218 55.4427 38.7159 53.6481 38.7159C53.2464 38.7159 52.8714 38.662 52.4964 38.5272C50.4341 37.7993 49.4163 35.265 50.2198 32.8925Z" fill="#003C56"/>
<path d="M101.618 24.8313L93.5025 35.0494V24.8313H88.2261V43.5689H93.4757L101.618 33.2969V43.5689H106.841V24.8313H101.618Z" fill="#003C56"/>
<path d="M59.2996 2.75035V7.81894C59.2996 10.1915 57.5318 12.0248 55.2284 12.0248C52.9518 12.0248 51.1573 10.1645 51.1573 7.81894V2.72339H45.8809V7.81894C45.8809 13.0493 50.0591 17.3091 55.2016 17.3091C56.6747 17.3091 58.0675 16.9586 59.2728 16.3654V21.488H64.4956V7.81894V2.75035H59.2996Z" fill="#003C56"/>
<path d="M85.2529 2.72339H78.9319L74.5661 9.16697H72.2895V2.72339H67.0667V21.461H72.2895V14.4512H75.075L79.8158 21.461H86.1368L79.3604 11.4317L85.2529 2.72339Z" fill="#003C56"/>
<path d="M80.4854 31.5445H72.3431V24.8313H67.0667V43.5689H72.3431V36.8288H80.4854V43.5689H85.6814V24.8313H80.4854V31.5445Z" fill="#003C56"/>
</svg>
