<svg width="187" height="80" viewBox="0 0 187 80" fill="none" xmlns="http://www.w3.org/2000/svg">
<path d="M48.0119 0.000604099C38.6208 0.0790349 31.0688 7.80447 31.1471 17.2162C31.2253 26.6279 38.9339 34.1965 48.325 34.118C57.716 34.0396 65.268 26.3142 65.1898 16.9025C65.1115 7.49075 57.403 -0.0778268 48.0119 0.000604099ZM48.2467 26.4318C43.0816 26.471 38.8556 22.3142 38.7773 17.1377C38.7382 11.9613 42.8859 7.72604 48.051 7.68683C53.2161 7.64761 57.4421 11.8044 57.4813 16.9809C57.5986 22.1573 53.4118 26.3926 48.2467 26.4318Z" fill="white"/>
<path d="M48.1293 12.7849C45.7815 12.8241 43.9033 14.7457 43.9033 17.0986C43.9424 19.4515 45.8598 21.3339 48.2076 21.3339C50.5553 21.2947 52.4336 19.3731 52.4336 17.0202C52.4336 14.6673 50.4771 12.7849 48.1293 12.7849Z" fill="white"/>
<path d="M55.8378 45.8827H43.9815V36.118H36.2339V63.3728H43.9815V53.5689H55.8378V63.3728H63.468V36.118H55.8378V45.8827Z" fill="white"/>
<path d="M11.8954 31.2161H19.5257V11.6869H29.3081V3.96143H2.11304V11.6869H11.8954V31.2161Z" fill="white"/>
<path d="M175.065 23.6476L168.178 32.2878L174.14 37.0603L181.026 28.4201L175.065 23.6476Z" fill="white"/>
<path d="M23.3995 47.7648L31.3428 36.0786H6.8868V43.6864H16.904L9.86064 54.0785L16.1996 58.3922L18.9778 54.2746C23.0082 55.255 25.982 58.8628 25.982 63.1765C25.982 68.2353 21.8734 72.3529 16.8257 72.3529C11.778 72.3529 7.66939 68.2353 7.66939 63.1765H0C0 72.4705 7.552 79.9999 16.7866 79.9999C26.0603 79.9999 33.5731 72.4313 33.5731 63.1765C33.6123 56.3138 29.3863 50.353 23.3995 47.7648Z" fill="white"/>
<path d="M179.37 36.118L167.513 50.9807V36.118H159.805V63.3728H167.474H167.513L179.37 48.4317V63.3728H187V36.118H179.37Z" fill="white"/>
<path d="M135.545 31.8827C139.144 31.8827 142.51 30.2357 145.092 27.4906V31.2161H152.722V3.96134H145.092V6.11819C143.997 5.1378 142.705 4.39271 141.297 3.88291C140.123 3.49075 138.91 3.29468 137.658 3.29468C131.984 3.29468 126.78 7.4123 124.706 13.4907C122.123 21.0201 125.371 29.02 131.945 31.2945C133.04 31.6866 134.292 31.8827 135.545 31.8827ZM131.827 15.726C132.805 12.9025 135.192 11.0201 137.814 11.0201C138.401 11.0201 138.949 11.0985 139.497 11.2946C142.51 12.3534 144.036 16.0005 142.823 19.4906C141.844 22.3142 139.458 24.1965 136.836 24.1965C136.249 24.1965 135.701 24.1181 135.153 23.922C132.14 22.8632 130.614 19.1769 131.827 15.726Z" fill="white"/>
<path d="M77.0852 64.0003C80.6851 64.0003 84.0503 62.3532 86.6328 59.6081V63.3336H94.2631V36.0789H86.6328V38.2357C85.5372 37.2554 84.2459 36.5103 82.8372 36.0005C81.6634 35.6083 80.4503 35.4122 79.1982 35.4122C73.5244 35.4122 68.3202 39.5299 66.2463 45.6082C63.6638 53.1376 66.9115 61.1375 73.4853 63.412C74.62 63.8042 75.8722 64.0003 77.0852 64.0003ZM73.3679 47.8435C74.3461 45.02 76.733 43.1377 79.3547 43.1377C79.9417 43.1377 80.4895 43.2161 81.0373 43.4122C84.0503 44.471 85.5763 48.118 84.3633 51.6082C83.3851 54.4317 80.9982 56.3141 78.3765 56.3141C77.7895 56.3141 77.2417 56.2356 76.6939 56.0395C73.6809 54.9807 72.194 51.2945 73.3679 47.8435Z" fill="white"/>
<path d="M148.457 36.118L136.601 50.9807V36.118H128.893V63.3728H136.562L148.457 48.4317V63.3728H156.088V36.118H148.457Z" fill="white"/>
<path d="M86.6329 4.00064V11.3731C86.6329 14.8241 84.0504 17.4907 80.6853 17.4907C77.3592 17.4907 74.7376 14.7849 74.7376 11.3731V3.96143H67.0291V11.3731C67.0291 18.9809 73.1333 25.177 80.6461 25.177C82.7983 25.177 84.833 24.6672 86.5938 23.8044V31.2554H94.2241V11.3731V4.00064H86.6329Z" fill="white"/>
<path d="M124.549 3.96143H115.315L108.937 13.3339H105.611V3.96143H97.9803V31.2161H105.611V21.0201H109.68L116.606 31.2161H125.841L115.941 16.628L124.549 3.96143Z" fill="white"/>
<path d="M117.584 45.8827H105.689V36.118H97.9803V63.3728H105.689V53.5689H117.584V63.3728H125.175V36.118H117.584V45.8827Z" fill="white"/>
</svg>
