<svg width="518" height="416" viewBox="0 0 518 416" fill="none" xmlns="http://www.w3.org/2000/svg">
<path d="M363.241 262.777C359.749 261.063 357.153 266.616 361.378 268.24C365.604 269.865 367.998 270.924 369.329 270.924C370.66 270.924 371.877 267.464 370.74 266.325C369.603 265.185 365.652 263.957 363.241 262.777Z" fill="#FBAE96"/>
<path d="M197.579 217.5C203.498 217.5 205.054 225.122 212.441 227.579C221.601 230.626 233.503 225.809 236.575 217.953C240.567 207.745 233.011 202.427 234.729 185.462C235.866 174.22 228.229 175.214 221.69 164.271C215.15 153.319 216.9 152.131 208.03 142.069C199.159 132.006 184.338 130.584 173.202 132.354C162.066 134.124 156.518 136.169 147.801 142.174C139.084 148.179 143.028 154.612 137.423 158.856C131.819 163.091 129.319 168.013 127.626 176.435C124.368 192.599 135.319 200.415 130.4 205.999C125.481 211.584 115.498 236.615 141.326 235.103C150.454 234.57 158.631 237.577 163.106 230.634C169.695 220.418 172.985 227.215 182.008 222.738C191.039 218.252 197.571 217.517 197.571 217.517L197.579 217.5Z" fill="#37231B"/>
<path d="M131.385 223.029C153.133 205.288 155.197 223.029 207.37 219.561C213.804 219.133 243.092 225.041 248.745 228.525C277.403 246.168 299.805 361.712 299.805 361.712L133.852 359.877L131.385 223.029Z" fill="#FCC583"/>
<path d="M172.977 214.963C172.598 222.285 165.945 215.359 165.945 224.637C165.945 232.695 174.944 245.57 200.418 241.488C216.618 238.894 221.489 225.033 211.86 220.992C206.409 218.705 203.837 209.515 203.837 209.515L172.977 214.954V214.963Z" fill="#FBAE96"/>
<path d="M207.513 172.984C212.521 193.092 212.327 222.302 189.474 224.055C161.517 226.205 130.738 171.214 153.171 151.024C175.605 130.835 200.417 144.51 207.513 172.984Z" fill="#FBAE96"/>
<path d="M163.186 166.065C159.896 172.426 159.663 173.565 156.018 177.218C152.373 180.872 152.712 190.336 154.453 195.735C162.751 221.477 155.647 209.046 154.002 210.695C152.357 212.344 145.543 195.533 144.607 194.595C143.664 193.65 136.27 166.695 136.27 163.867C136.27 161.038 154.082 143.984 156.235 141.818C158.396 139.652 177.846 135.611 183.37 135.611C188.894 135.611 199.933 134.908 202.288 138.674C204.634 142.441 219.907 173.994 219.907 173.994C219.907 173.994 229.067 188.695 222.874 188.283C214.948 187.75 213.456 186.149 211.424 181.502C209.247 176.507 207.182 165.289 196.264 168.999C177.806 175.263 163.186 166.081 163.186 166.081V166.065Z" fill="#37231B"/>
<path d="M87.3967 372.889C80.3248 328.752 115.442 227.207 138.239 217.96C154.302 211.438 166.68 216.57 169.663 234.392C172.647 252.213 145.488 336.187 145.488 336.187C145.488 336.187 225.134 314.252 232.19 336.187C239.237 358.123 235.714 373.665 235.714 373.665L87.4048 372.889H87.3967Z" fill="#FCC583"/>
<path d="M161.027 338.427C153.729 338.427 147.246 338.265 142.343 338.136C139.98 338.079 137.932 338.023 136.263 337.998C135.537 337.99 134.932 337.659 134.553 337.077C132.731 334.256 136.698 324.63 144.48 306.421C152.439 287.783 162.341 264.587 162.341 252.003C162.341 251.454 162.785 251.009 163.333 251.009C163.881 251.009 164.325 251.454 164.325 252.003C164.325 265 154.334 288.398 146.302 307.205C143.101 314.697 140.085 321.769 138.19 327.039C135.481 334.58 136.061 335.816 136.223 336.002C136.223 336.002 136.247 336.002 136.287 336.002C137.964 336.026 140.021 336.075 142.391 336.14C153.278 336.414 169.72 336.835 186.637 335.582C187.186 335.541 187.661 335.954 187.702 336.503C187.742 337.053 187.331 337.53 186.782 337.57C177.904 338.225 168.986 338.419 161.027 338.419V338.427Z" fill="#C99565"/>
<path d="M173.236 192.995C173.058 194.143 174.26 197.61 176.824 196.818C178.518 196.293 178.235 191.961 176.244 191.169C174.623 190.53 173.413 191.847 173.236 192.995Z" fill="#372313"/>
<path d="M194.256 186.561C193.958 187.685 195.014 191.241 197.643 190.716C199.385 190.376 199.328 186.06 197.441 185.066C195.901 184.25 194.554 185.438 194.256 186.561Z" fill="#372313"/>
<path d="M184.453 212.271C185.848 213.887 189.195 215.787 194.339 214.041C199.484 212.295 198.895 207.098 198.895 207.098C194.251 210.04 189.824 211.454 184.453 212.263V212.271Z" fill="#E66C40"/>
<path d="M190.483 182.593C191.515 182.593 194.781 180.298 197.886 180.799C200.99 181.3 200.877 180.871 200.135 180.12C199.385 179.368 197.281 178.592 193.346 179.101C188.572 179.724 189.588 182.593 190.483 182.593Z" fill="#37231B"/>
<path d="M176.799 185.891C176.855 184.897 174.726 184.654 173.186 185.058C171.074 185.616 167.848 188.703 167.316 190.918C167.034 192.074 167.848 192.64 169.033 191.015C170.437 189.1 171.541 187.936 173.323 187.661C174.759 187.435 176.759 186.675 176.799 185.899V185.891Z" fill="#37231B"/>
<path d="M159.012 196.099C161.527 199.655 164.995 206.646 162.415 208.481C159.834 210.316 152.182 206.307 149.666 202.751C147.15 199.194 147.198 194.822 149.779 192.987C152.359 191.153 156.496 192.543 159.012 196.099Z" fill="#FBAE96"/>
<path d="M189.921 226.512C184.849 226.512 180.64 224.815 180.406 224.718C180.075 224.58 179.914 224.2 180.051 223.869C180.188 223.538 180.567 223.376 180.898 223.513C180.97 223.546 188.292 226.488 194.969 224.532C195.316 224.435 195.67 224.629 195.775 224.976C195.872 225.324 195.678 225.679 195.332 225.785C193.509 226.318 191.663 226.52 189.921 226.52V226.512Z" fill="#C99565"/>
<path d="M161.721 209.523C163.552 211.358 172.027 219.674 180.647 224.12C183.147 225.413 181.881 234.012 181.663 235.297C180.018 245.077 169.567 242.967 163.326 239.84C156.625 236.477 162.898 215.043 153.415 214.397C142.666 213.661 138.393 218.43 136.828 218.017C133.764 217.201 139.255 212.433 146.731 210.178C152.722 208.375 160.624 208.82 161.721 209.523Z" fill="#37231B"/>
<path d="M166.26 143.426C162.196 142.755 160.213 147.661 158.31 150.353C157.931 150.886 158.81 151.565 159.213 151.056C160.987 148.841 162.608 144.162 166.099 144.59C166.752 144.671 166.914 143.539 166.252 143.426H166.26Z" fill="#55341B"/>
<path d="M168.091 147.621C165.35 147.871 163.745 149.997 162.156 152.01C161.697 152.592 162.503 153.416 162.979 152.834C164.342 151.145 165.769 149.084 168.099 148.801C168.833 148.712 168.865 147.548 168.099 147.621H168.091Z" fill="#55341B"/>
<path d="M148.447 172.394C146.109 175.206 144.52 178.795 143.867 182.399C143.73 183.135 144.851 183.458 145.004 182.715C145.681 179.336 147.117 175.926 149.27 173.218C149.729 172.644 148.931 171.82 148.447 172.394Z" fill="#55341B"/>
<path d="M175.532 229.535C175.589 228.767 174.419 228.783 174.347 229.535C174.202 231.167 174.516 232.808 174.435 234.449C174.395 235.184 174.306 236.041 173.847 236.647C173.258 237.423 172.29 237.423 171.403 237.358C170.629 237.302 170.67 238.449 171.403 238.546C176.838 239.225 175.306 232.808 175.532 229.535Z" fill="#55341B"/>
<path d="M229.973 192.315C229.304 190.925 228.433 189.648 227.618 188.347C227.086 187.49 226.127 186.286 226.175 185.219C226.207 184.476 225.062 184.476 225.022 185.219C224.966 186.116 225.465 187.014 225.893 187.765C226.562 188.953 227.336 190.085 228.03 191.257C228.659 192.307 229.368 193.463 229.57 194.7C229.78 195.985 229.03 196.526 227.877 196.842C227.135 197.044 227.449 198.143 228.191 197.989C229.368 197.739 230.481 197.076 230.755 195.823C231.013 194.635 230.489 193.374 229.981 192.324L229.973 192.315Z" fill="#55341B"/>
<path d="M230.029 206.565C229.36 205.813 228.513 205.449 227.626 205.029C226.554 204.512 226.005 204.003 226.158 202.726C226.231 202.087 225.11 201.925 225.021 202.572C224.755 204.471 225.691 205.425 227.32 206.185C228.126 206.557 229.448 207.122 229.65 208.124C229.803 208.917 228.497 209.555 228.037 210.064C227.529 210.63 228.32 211.438 228.876 210.905C229.489 210.315 230.376 209.822 230.731 209.014C231.126 208.116 230.634 207.243 230.037 206.573L230.029 206.565Z" fill="#55341B"/>
<path d="M199.241 152.22C198.217 151.121 196.911 150.725 195.451 150.588C193.806 150.426 192.201 150.515 191.064 149.109C190.572 148.503 189.734 149.359 190.21 149.965C192.33 152.641 196.112 150.79 198.394 153.061C198.935 153.602 199.749 152.778 199.233 152.22H199.241Z" fill="#55341B"/>
<path d="M243.357 226.592C252.397 227.821 281.08 261.459 317.383 269.266C353.686 277.074 366.951 268.838 366.951 268.838L382.449 294.006C346.928 320.088 291.442 306.388 256.268 288.826L243.357 226.592Z" fill="#FCC583"/>
<path d="M387.302 369.301C387.302 369.301 409.236 299.931 363.264 265.937C353.588 258.784 345.169 255.414 324.824 255.487C303.157 255.567 283.659 275.91 275.998 289.691C261.806 315.222 250.049 369.301 250.049 369.301H387.302Z" fill="#DB7E5D"/>
<path d="M361.386 369.243C360.846 369.243 360.419 368.807 360.419 368.273V328.751C360.41 328.565 359.193 305.022 355.903 295.857C355.717 295.347 355.983 294.79 356.492 294.612C357 294.426 357.556 294.693 357.733 295.202C361.128 304.642 362.314 327.733 362.37 328.711V368.282C362.37 368.823 361.935 369.251 361.402 369.251L361.386 369.243Z" fill="#9E614B"/>
<path d="M289.875 362.947C289.391 362.947 288.972 362.584 288.916 362.083C288.682 360.054 283.174 312.167 286.319 295.339C286.416 294.814 286.924 294.467 287.456 294.564C287.98 294.661 288.327 295.17 288.23 295.703C285.134 312.239 290.795 361.371 290.851 361.864C290.915 362.398 290.528 362.883 289.996 362.947C289.956 362.947 289.916 362.947 289.883 362.947H289.875Z" fill="#9E614B"/>
<path d="M312.099 263.536C307.228 269.08 304.124 286.045 313.01 286.497C333.903 287.572 341.185 259.131 335.588 257.321C322.799 253.174 312.099 263.536 312.099 263.536Z" fill="#F1F2F2"/>
<path d="M311.204 249.351C311.204 251.517 309.938 265.338 313.486 267.31C323.872 273.08 335.597 261.006 335.597 257.328V245.463L311.212 249.359L311.204 249.351Z" fill="#FBAE96"/>
<path d="M294.529 195.063C293.513 184.492 287.344 175.666 282.014 180.095C276.684 184.524 270.588 189.187 271.886 195.063C272.612 198.353 289.699 203.727 289.699 203.727L294.529 195.063Z" fill="#37231B"/>
<path d="M284.016 205.376C283.733 205.376 283.451 205.255 283.258 205.013C282.919 204.592 282.991 203.978 283.403 203.647C286.798 200.907 288.451 197.981 288.451 194.708C288.451 194.166 288.886 193.738 289.418 193.738C289.95 193.738 290.386 194.174 290.386 194.708C290.386 198.555 288.443 202.071 284.612 205.166C284.435 205.312 284.217 205.384 284.007 205.384L284.016 205.376Z" fill="#DE501D"/>
<path d="M287.062 220.183C283.683 220.942 281.183 221.815 279.796 220.433C278.409 219.043 279.796 215.462 279.796 215.462L284.255 214.743L287.062 220.183Z" fill="#82512B"/>
<path d="M349.484 223.779C346.275 245.965 332.058 263.536 312.108 263.536C297.368 263.536 287.635 256.141 286.038 241.019C285.667 237.503 286.377 232.621 286.111 230.56C285.667 227.093 283.119 223.246 283.119 219.609C283.119 197.423 302.15 186.779 322.099 186.779C342.049 186.779 352.661 201.828 349.484 223.779Z" fill="#FBAE96"/>
<path d="M306.665 225.775C306.584 225.056 308.286 223.609 310.616 224.159C312.938 224.709 314.664 226.357 313.906 226.81C313.148 227.263 311.447 225.856 309.963 226.026C308.479 226.188 306.729 226.285 306.673 225.775H306.665Z" fill="#37231B"/>
<path d="M295.117 226.196C295.198 225.476 293.497 224.03 291.166 224.579C288.844 225.129 287.118 226.778 287.876 227.23C288.634 227.683 290.336 226.277 291.819 226.446C293.303 226.616 295.053 226.705 295.109 226.196H295.117Z" fill="#37231B"/>
<path d="M303.666 212.157C320.649 210.492 321.608 217.354 326.463 223.779C331.325 230.204 343.227 228.968 348.694 228.103C350.557 227.812 353.371 215.672 352.597 208.423C352.025 203.048 352.339 193.172 341.292 187.417C330.244 181.662 326.406 180.369 315.673 182.366C304.948 184.362 293.296 213.175 303.658 212.157H303.666Z" fill="#37231B"/>
<path d="M332.557 195.734C333.573 185.162 343.902 176.167 349.241 180.596C354.579 185.025 359.57 197.609 356.804 199.533C354.039 201.456 337.387 204.398 337.387 204.398L332.557 195.734Z" fill="#37231B"/>
<path d="M339.049 204.682C334.348 204.682 332.412 201.796 331.767 200.438C330.638 198.07 330.759 195.177 332.041 193.989C332.437 193.625 333.049 193.649 333.412 194.045C333.775 194.441 333.751 195.056 333.356 195.419C332.904 195.84 332.622 197.739 333.509 199.598C334.186 201.02 336.017 203.3 340.67 202.613C341.194 202.532 341.694 202.904 341.774 203.437C341.855 203.97 341.484 204.463 340.952 204.544C340.266 204.641 339.629 204.69 339.041 204.69L339.049 204.682Z" fill="#D9886B"/>
<path d="M278.514 219.35C284.183 226.729 286.4 206.653 302.157 210.492C308.31 211.987 303.479 201.416 309.342 197.318C315.196 193.22 324.534 184.055 314.374 182.729C304.213 181.404 290.456 187.288 286.634 193.576C284.933 196.372 281.417 200.106 280.909 205.15C280.232 211.955 276.885 217.224 278.522 219.35H278.514Z" fill="#37231B"/>
<path d="M297.48 249.844C297.48 249.844 299.246 253.918 303.956 254.168C308.665 254.419 309.512 249.885 309.512 249.885C305.367 251.299 301.778 251.59 297.48 249.844Z" fill="#F1F2F2"/>
<path d="M310.092 231.416C309.269 231.724 308.439 233.049 308.834 235.005C309.229 236.953 310.689 237.81 311.6 237.22C312.511 236.63 313.164 233.898 312.592 232.758C312.019 231.619 310.616 231.222 310.084 231.425L310.092 231.416Z" fill="#372313"/>
<path d="M291.658 231.449C290.852 231.788 290.069 233.146 290.545 235.086C291.021 237.018 292.505 237.81 293.4 237.187C294.295 236.557 294.827 233.809 294.214 232.694C293.601 231.578 292.174 231.239 291.658 231.457V231.449Z" fill="#372313"/>
<path d="M321.954 204.252C319.946 201.925 316.189 201.302 313.399 202.385C312.721 202.652 313.003 203.743 313.705 203.493C316.261 202.579 319.18 203.186 321.116 205.093C321.664 205.635 322.454 204.826 321.954 204.252Z" fill="#643D20"/>
<path d="M325.793 193.511C322.366 192.687 319.205 193.091 316.06 194.651C315.383 194.99 315.979 196.001 316.657 195.669C319.56 194.255 322.342 194.037 325.486 194.643C326.22 194.788 326.543 193.689 325.801 193.511H325.793Z" fill="#643D20"/>
<path d="M339.509 215.576C337.493 216.238 334.977 214.105 335.058 212.036C335.09 211.292 333.961 211.3 333.913 212.036C333.736 214.784 337.122 217.774 339.824 216.715C340.509 216.44 340.243 215.333 339.509 215.576Z" fill="#643D20"/>
<path d="M292.401 199.565C290.442 199.379 288.474 200.034 287.329 201.715C286.902 202.337 286.692 203.048 286.466 203.759C286.136 204.802 285.781 205.279 284.636 205.384C283.894 205.457 283.87 206.548 284.636 206.564C286.329 206.588 287.16 205.594 287.644 204.083C287.926 203.194 288.192 202.394 288.91 201.739C289.861 200.866 291.159 200.632 292.409 200.704C293.151 200.745 293.127 199.629 292.409 199.565H292.401Z" fill="#643D20"/>
<path d="M301.836 189.406C300.537 189.074 299.666 188.12 298.231 188.298C296.893 188.468 295.828 189.406 295.006 190.416C294.538 190.99 295.312 191.822 295.836 191.248C296.626 190.4 297.602 189.381 298.876 189.503C299.82 189.591 300.594 190.343 301.529 190.529C302.255 190.674 302.569 189.591 301.836 189.406Z" fill="#643D20"/>
<path d="M312.1 264.182C311.745 264.182 311.455 263.892 311.455 263.536C311.455 263.18 311.745 262.889 312.1 262.889C317.745 262.889 322.446 261.798 326.059 259.648C326.365 259.462 326.76 259.568 326.946 259.875C327.131 260.182 327.026 260.578 326.72 260.764C322.906 263.035 317.987 264.182 312.1 264.182Z" fill="#C48976"/>
<path d="M315.76 369.518C315.76 359.132 330.234 338.927 356.804 338.927C383.374 338.927 396.986 340.786 396.986 340.786V369.13L315.76 369.518Z" fill="#DB7E5D"/>
<path d="M315.308 346.25C314.921 346.25 314.55 346.015 314.405 345.627C314.212 345.126 314.462 344.56 314.962 344.366C323.227 341.198 354.377 337.885 361.393 337.973C361.933 337.973 362.361 338.418 362.352 338.959C362.352 339.493 361.909 339.921 361.385 339.921C361.385 339.921 361.377 339.921 361.369 339.921C354.652 339.824 323.558 343.154 315.663 346.185C315.55 346.225 315.429 346.25 315.317 346.25H315.308Z" fill="#9E614B"/>
<path d="M186.231 352.344H308.131C315.299 352.344 321.121 358.179 321.121 365.365V367.385H186.223V352.336L186.231 352.344Z" fill="#7781A6"/>
<path d="M291.642 367.393H157.412L148.59 267.408C148.082 264.522 149.34 261.863 152.227 261.863H277.965C280.207 261.863 282.134 263.496 282.53 265.743L291.642 367.393Z" fill="#7781A6"/>
<path d="M224.882 299.47C225.237 305.014 221.366 309.775 216.238 310.106C211.109 310.437 206.658 306.218 206.295 300.674C205.932 295.13 209.811 290.369 214.939 290.038C220.068 289.706 224.519 293.925 224.882 299.47Z" fill="#DBDBDB"/>
<path d="M518 365.817H0V387.082H518V365.817Z" fill="#DCBFA3"/>
<path d="M461.156 169.378C461.156 159.946 460.14 118.905 473.615 99.5317C473.615 99.5317 476.663 115.842 476.663 128.466C476.663 141.091 467.252 190.279 467.252 190.279L461.148 169.378H461.156Z" fill="#A7CBBD"/>
<path d="M412.644 96.7271C412.644 96.7271 438.327 196.397 438.327 216.28C438.327 236.162 426.497 228.516 426.497 228.516C426.497 228.516 417.724 159.308 414.668 151.403C411.62 143.499 413.523 136.872 413.523 131.392C413.523 125.912 410.725 118.905 410.725 113.676C410.725 108.446 412.636 96.7271 412.636 96.7271H412.644Z" fill="#A7CBBD"/>
<path d="M448.44 315.74C450.73 305.936 464.842 293.15 464.842 280.356C464.842 267.561 463.318 218.543 467.511 208.739C471.704 198.935 475.139 182.738 475.139 173.355C475.139 163.971 486.582 154.176 486.582 147.354V135.845C486.582 135.845 491.92 143.095 491.92 154.604C491.92 166.113 487.727 181.033 484.292 184.872C480.857 188.711 478.566 193.399 478.566 201.497C478.566 209.596 476.655 249.667 476.655 260.328C476.655 270.988 475.889 273.114 473.22 283.346C470.551 293.578 450.327 317.873 450.327 317.873L448.416 315.74H448.44Z" fill="#A4CABB"/>
<path d="M426.692 315.74C421.354 303.802 412.96 278.23 412.96 265.864C412.96 253.498 414.871 241.569 412.96 234.747C411.048 227.926 400.324 182.375 404.501 165.62C407.105 155.178 408 162.533 408 162.533C408 162.533 424.789 189.139 426.692 199.792C428.595 210.444 426.103 230.488 428.603 236.42C431.095 242.353 435.474 256.489 435.474 265.872V314.471L426.7 315.748L426.692 315.74Z" fill="#C2E8D8"/>
<path d="M448.441 158.007L430.894 123.479C430.894 123.479 424.79 143.087 424.79 149.48C424.79 155.873 422.5 160.989 422.5 167.382C422.5 173.775 427.838 186.99 427.838 198.079C427.838 209.167 425.927 220.668 425.927 230.052C425.927 239.435 435.466 315.74 435.466 315.74H442.337L448.441 158.015V158.007Z" fill="#92BCAB"/>
<path d="M442.336 315.739C442.336 307.212 439.667 300.391 439.667 287.605C439.667 274.819 439.667 266.72 437.377 250.944C435.087 235.167 442.336 212.149 442.336 201.917C442.336 191.685 438.522 161.417 442.336 149.908C446.15 138.399 450.344 114.952 450.344 114.952C450.344 114.952 470.18 159.283 470.18 166.961V218.114C470.18 227.918 465.987 243.694 464.076 254.347C462.165 265.007 462.165 273.105 462.165 284.186C462.165 295.267 453.553 315.731 453.553 315.731H442.328L442.336 315.739Z" fill="#C2E8D8"/>
<path d="M472.421 366.044H417.233L409.959 304.247C409.588 301.119 412.032 298.371 415.176 298.371H474.179C477.316 298.371 479.751 301.103 479.396 304.223L472.429 366.044H472.421Z" fill="#E3AC69"/>
<path d="M476.388 347.688H412.877L410.732 317.865H478.404L476.388 347.688Z" fill="#FCC583"/>
<path d="M65.2355 342.378C31.3112 342.378 3.70898 314.713 3.70898 280.711C3.70898 261.597 12.3372 243.872 27.3923 232.088C28.1583 231.49 29.255 231.611 29.8678 232.355L106.207 324.387C106.828 325.131 106.74 326.238 106.014 326.877C94.765 336.866 80.2825 342.37 65.2274 342.37L65.2355 342.378ZM28.247 236.016C14.9095 247.097 7.29736 263.294 7.29736 280.719C7.29736 312.741 33.2869 338.79 65.2355 338.79C78.831 338.79 91.9346 334.021 102.329 325.333L28.247 236.016Z" fill="#9CA8D3"/>
<path d="M65.2332 330.053C92.4218 330.053 114.462 307.962 114.462 280.711C114.462 253.46 92.4218 231.369 65.2332 231.369C38.0446 231.369 16.0039 253.46 16.0039 280.711C16.0039 307.962 38.0446 330.053 65.2332 330.053Z" fill="#A3D8F5"/>
<mask id="mask0_2023_3495" style="mask-type:luminance" maskUnits="userSpaceOnUse" x="16" y="231" width="99" height="100">
<path d="M65.2312 330.054C92.4198 330.054 114.46 307.963 114.46 280.712C114.46 253.461 92.4198 231.37 65.2312 231.37C38.0427 231.37 16.002 253.461 16.002 280.712C16.002 307.963 38.0427 330.054 65.2312 330.054Z" fill="white"/>
</mask>
<g mask="url(#mask0_2023_3495)">
<path d="M41.1323 269.202C33.512 274.359 23.9081 293.037 33.512 291.622C43.1079 290.208 47.6317 283.702 52.1474 290.491C56.6631 297.28 57.1469 302.097 65.2349 302.097C73.3228 302.097 83.8218 308.159 85.4668 306.518C87.1038 304.877 81.2334 295.025 78.1288 285.682C75.0243 276.347 65.7026 267.004 59.4935 264.458C53.2844 261.912 41.1403 269.202 41.1403 269.202H41.1323Z" fill="#DEB788"/>
<path d="M70.0314 272.589C66.5237 268.734 62.6128 265.735 59.484 264.458C53.2749 261.912 41.1309 269.202 41.1309 269.202C37.6232 271.578 33.6961 276.816 31.4141 281.641C36.0185 282.627 36.333 278.465 44.5983 277.656C54.1942 276.711 53.6297 276.703 58.5244 279.725C63.4191 282.748 61.5887 278.036 65.2335 276.145C67.5639 274.941 69.1686 273.656 70.0314 272.589Z" fill="#7DD2B1"/>
<path d="M34.6403 269.202C29.2779 267.287 25.8911 267.853 25.8911 261.338C25.8911 254.824 27.9474 252.973 24.5203 252.973C21.0932 252.973 13.4648 267.82 13.4648 272.217C13.4648 276.614 22.1979 276.686 24.0526 274.828C25.9072 272.969 34.6403 269.202 34.6403 269.202Z" fill="#DEB788"/>
<path d="M81.7887 229.607C67.3868 229.607 58.3554 242.377 68.2335 246.055C78.1116 249.732 79.8131 249.126 85.7399 252.973C91.6668 256.812 97.3114 261.621 98.7306 257.944C100.142 254.266 106.069 253.418 106.069 250.306C106.069 247.194 84.0465 229.616 81.7887 229.616V229.607Z" fill="#7CC8AA"/>
<path d="M59.4837 332.09C57.7903 327.564 57.6694 326.149 64.0801 323.603C70.4907 321.057 71.3374 320.492 76.7079 317.946C82.0703 315.4 83.1992 315.4 88.5697 315.4C93.9402 315.4 96.4722 321.34 96.4722 321.34C96.4722 321.34 85.8764 327.903 85.0781 328.695C84.2798 329.487 59.4837 332.09 59.4837 332.09Z" fill="#F1F2F2"/>
<path d="M32.8906 242.669C35.8178 242.669 37.1241 244.075 45.3169 241.246C53.5016 238.417 57.8802 231.588 57.8802 231.588L42.4946 234.312L32.8987 242.669H32.8906Z" fill="#F1F2F2"/>
</g>
<path d="M94.0393 292.309C95.4504 293.724 95.3779 296.342 97.0067 294.718C98.6276 293.093 96.7245 291.534 99.4097 292.309C102.095 293.085 103.788 291.461 103.788 289.052C103.788 286.644 103.934 284.098 101.248 285.092C98.563 286.086 96.8697 286.789 95.1763 287.638C93.4829 288.486 94.0473 292.309 94.0473 292.309H94.0393Z" fill="#DCF8C1"/>
<path d="M103.779 296.552C103.779 294.855 104.602 293.788 106.037 295.227C107.473 296.665 111.262 300.084 108.722 299.236C106.182 298.387 103.787 296.544 103.787 296.544L103.779 296.552Z" fill="#DCF8C1"/>
<path d="M100.248 281.697C100.248 280.283 103.232 278.763 104.828 277.171C106.417 275.579 105.199 272.928 106.675 272.928C108.151 272.928 108.151 272.5 108.151 274.625C108.151 276.751 109.279 279.58 107.304 279.58C105.328 279.58 105.046 280.428 103.78 281.705C102.506 282.982 100.248 281.705 100.248 281.705V281.697Z" fill="#E3AC69"/>
<path d="M65.8058 340.584L74.7243 358.697H55.7422L65.8058 340.584Z" fill="#9CA8D3"/>
<path d="M52.0021 355.577H78.4754C83.5959 355.577 87.7568 359.747 87.7568 364.879V366.625H42.7207V364.879C42.7207 359.747 46.8816 355.577 52.0021 355.577Z" fill="#9CA8D3"/>
<path d="M367.458 269.267C366.781 276.419 357.193 280.614 365.386 288.826C367.684 291.129 371.127 293.142 373.885 292.689C378.844 291.873 382.844 285.884 382.529 282.821C381.626 274.124 370.772 264.749 369.587 265.937C368.401 267.125 367.692 266.85 367.458 269.267Z" fill="#FBAE96"/>
<path d="M363.975 286.942C363.83 286.942 363.684 286.869 363.596 286.732C363.467 286.522 363.531 286.247 363.741 286.126C366.757 284.267 370.442 280.25 371.16 277.017C371.869 273.8 373.159 268.789 373.175 268.741C373.24 268.506 373.482 268.361 373.716 268.426C373.95 268.49 374.095 268.725 374.03 268.967C374.014 269.016 372.732 274.01 372.022 277.219C371.248 280.735 367.442 284.897 364.201 286.893C364.128 286.942 364.047 286.958 363.967 286.958L363.975 286.942Z" fill="#C99565"/>
<path d="M366.298 289.626C366.088 289.626 365.902 289.48 365.862 289.27C365.814 289.028 365.975 288.801 366.209 288.753C368.434 288.316 373.232 283.944 374.111 281.883C375.047 279.693 376.99 273.081 376.99 272.305C376.99 272.063 377.192 271.861 377.434 271.861C377.676 271.861 377.877 272.063 377.877 272.305C377.877 273.348 375.789 280.226 374.934 282.23C374.031 284.348 369.096 289.092 366.386 289.618C366.362 289.618 366.33 289.626 366.306 289.626H366.298Z" fill="#C99565"/>
<path d="M370.981 291.824C370.796 291.824 370.627 291.711 370.562 291.525C370.481 291.291 370.602 291.04 370.836 290.959C373.739 289.941 377.094 286.288 377.94 284.316C378.811 282.295 380.311 277.502 380.319 277.454C380.392 277.219 380.642 277.09 380.876 277.163C381.109 277.236 381.238 277.486 381.166 277.72C381.101 277.923 379.634 282.602 378.755 284.663C377.86 286.756 374.36 290.668 371.127 291.8C371.078 291.816 371.03 291.824 370.981 291.824Z" fill="#C99565"/>
<path d="M139.634 366.546L96.1547 366.675L96.0998 348.127L139.579 347.997C141.249 347.992 142.607 349.346 142.612 351.019L142.649 363.498C142.654 365.171 141.303 366.533 139.634 366.538L139.634 366.546Z" fill="#7096C4"/>
<path d="M109.61 361.469L109.586 353.152C109.586 352.223 108.933 351.463 108.126 351.463L58.5101 351.616C58.4617 351.616 58.4133 351.584 58.3891 351.536C57.9456 350.566 57.9617 349.491 58.3891 348.335C58.4133 348.278 58.4536 348.246 58.5101 348.246L110.868 348.084C111.666 348.084 112.32 348.836 112.328 349.774L112.376 364.944C112.376 365.873 111.731 366.633 110.925 366.641L58.8487 366.803C58.6068 366.803 58.3891 366.633 58.3085 366.366C58.0343 365.526 58.0585 364.661 58.3165 363.764C58.3972 363.497 58.6149 363.319 58.8568 363.319L108.159 363.174C108.957 363.174 109.61 362.414 109.61 361.477V361.469Z" fill="#79ADDD"/>
<path d="M67.986 354.284L60.0835 354.308C60.2287 353.896 60.4222 353.896 60.648 351.011L109.264 350.865C109.442 350.865 109.498 351.625 109.506 351.827L109.539 363.231C109.539 363.433 60.398 363.409 60.398 363.409C60.0109 360.661 59.9142 360.532 59.7852 359.344L64.5186 359.222L59.898 359.238C59.769 359.238 59.8255 356.24 60.019 354.745L67.986 354.276V354.284Z" fill="#E6E6E6"/>
<path d="M108.449 354.979L108.465 360.402L108.473 361.614L106.344 361.016L104.223 361.63V360.418L104.207 354.995L108.449 354.979Z" fill="#F6A447"/>
<path d="M415.17 277.923C413.775 288.697 403.421 295.971 392.721 294.273C382.02 292.576 374.714 282.498 376.416 271.772C378.109 261.047 388.165 253.725 398.865 255.43C409.566 257.136 416.211 269.889 415.178 277.931L415.17 277.923Z" fill="#FCDCB5"/>
<path d="M444.948 319.522C447.529 343.704 448.093 367.41 415.782 367.41C391.147 367.41 384.575 349.2 385.93 321.349C387.26 294.007 395.235 265.63 410.121 272.75C426.619 280.639 442.336 295.122 444.948 319.522Z" fill="#FCDCB5"/>
<path d="M390.1 293.546C389.946 293.546 389.785 293.506 389.64 293.425C389.196 293.166 389.043 292.6 389.301 292.156C395.131 282.005 401.252 278.941 407.533 276.46C414.025 273.898 416.137 275.256 416.5 275.555L415.315 276.986C415.315 276.986 415.331 277.002 415.363 277.018C415.347 277.01 413.686 276.024 408.219 278.182C402.26 280.534 396.446 283.443 390.914 293.077C390.745 293.376 390.43 293.546 390.108 293.546H390.1Z" fill="#9E614B"/>
<path d="M463.989 415.992C463.916 415.992 463.844 415.992 463.763 415.992C460.981 415.87 458.828 413.51 458.949 410.73C458.949 410.641 459.344 401.33 458.876 391.381C458.07 374.287 455.102 371.297 452.82 370.101C449.434 368.468 435.596 366.302 422.355 365.154C419.582 364.912 417.533 362.463 417.775 359.691C418.017 356.91 420.461 354.858 423.226 355.1C430.266 355.714 453.707 357.969 459.989 361.34C463.295 363.11 465.513 367.005 466.964 373.6C467.892 377.795 468.537 383.226 468.883 389.74C469.464 400.603 469.029 410.746 469.012 411.175C468.891 413.882 466.666 416 463.981 416L463.989 415.992Z" fill="#FCDCB5"/>
<path d="M379.755 271.384L373.263 263.003C372.57 262.106 373.287 260.813 374.408 260.926L384.802 261.977L379.755 271.384Z" fill="#FCDCB5"/>
<path d="M403.921 258.105L400.204 250.233C399.962 249.554 399.002 249.562 398.768 250.233L395.486 257.305L403.921 258.097V258.105Z" fill="#FCDCB5"/>
<path d="M394.712 321.43C391.51 321.018 389.091 318.213 389.228 314.924C389.422 310.268 387.14 307.811 385.189 306.567C382.729 304.999 380.383 305.047 379.77 305.33C377.028 307.407 373.117 306.898 371.004 304.166C368.876 301.418 369.384 297.466 372.125 295.34C376.633 291.849 383.906 291.695 390.228 294.969C397.841 298.905 402.163 306.567 401.792 315.457C401.647 318.932 398.719 321.624 395.252 321.478C395.067 321.478 394.889 321.454 394.712 321.43Z" fill="#FCDCB5"/>
<path d="M404.557 357.889C403.235 357.889 381.705 356.603 381.64 362.479C381.567 368.355 384.398 367.304 392.284 367.304C400.171 367.304 412.581 367.377 412.581 367.377L404.557 357.889Z" fill="#FCDCB5"/>
<path d="M87.8574 48.0959L106.775 83.391C114.178 72.1648 123.483 69.9018 140.336 67.3559L117.29 34.2349C99.816 37.5809 94.2681 39.456 87.8655 48.0959H87.8574Z" fill="#ABCFE3"/>
<path d="M140.337 67.3478C140.337 67.3478 153.651 44.7983 170.439 47.4089L142.652 13.4958C142.652 13.4958 135.072 12.4936 127.548 18.8705C120.025 25.2474 117.291 34.2267 117.291 34.2267L140.337 67.3478Z" fill="#ABCFE3"/>
<path d="M122.837 35.0589C122.676 35.0589 122.547 34.9296 122.547 34.7679C122.547 31.8098 125.514 26.613 130.482 23.0244C135.159 19.6461 137.787 18.6196 141.747 18.6196C141.908 18.6196 142.037 18.7489 142.037 18.9106C142.037 19.0722 141.908 19.2015 141.747 19.2015C137.892 19.2015 135.441 20.1633 130.82 23.5013C126.071 26.9282 123.127 32.02 123.127 34.7679C123.127 34.9296 122.998 35.0589 122.837 35.0589Z" fill="#7496B8"/>
<path d="M125.829 39.5047C125.668 39.5047 125.539 39.3754 125.539 39.2137C125.539 36.2556 128.507 31.0588 133.474 27.4702C138.151 24.0919 140.788 23.0654 144.739 23.0654C144.9 23.0654 145.029 23.1947 145.029 23.3564C145.029 23.518 144.9 23.6474 144.739 23.6474C140.884 23.6474 138.433 24.6091 133.812 27.9471C129.063 31.374 126.12 36.4658 126.12 39.2137C126.12 39.3754 125.991 39.5047 125.829 39.5047Z" fill="#7496B8"/>
<path d="M129.394 44.7254C129.233 44.7254 129.104 44.5961 129.104 44.4344C129.104 41.4763 132.071 36.2795 137.038 32.691C141.715 29.3126 144.344 28.2861 148.303 28.2861C148.465 28.2861 148.594 28.4154 148.594 28.5771C148.594 28.7387 148.465 28.8681 148.303 28.8681C144.449 28.8681 141.997 29.8298 137.377 33.1678C132.627 36.5947 129.684 41.6865 129.684 44.4344C129.684 44.5961 129.555 44.7254 129.394 44.7254Z" fill="#7496B8"/>
<path d="M132.773 50.0433C132.611 50.0433 132.482 49.914 132.482 49.7523C132.482 46.7942 135.45 41.5973 140.417 38.0088C145.094 34.6304 147.723 33.604 151.682 33.604C151.844 33.604 151.973 33.7333 151.973 33.895C151.973 34.0566 151.844 34.1859 151.682 34.1859C147.828 34.1859 145.376 35.1477 140.756 38.4857C136.006 41.9125 133.063 47.0044 133.063 49.7523C133.063 49.914 132.934 50.0433 132.773 50.0433Z" fill="#7496B8"/>
<path d="M135.281 52.6541L140.337 60.0978C140.337 60.0978 142.998 53.333 146.764 51.1023L141.748 43.8525C141.748 43.8525 138.853 45.2508 137.12 47.7158C135.668 49.7768 135.289 52.646 135.289 52.646L135.281 52.6541Z" fill="#7496B8"/>
<path d="M330.247 61.1137L324.016 55.9336L296.79 88.8374L303.022 94.0174L330.247 61.1137Z" fill="#C98446"/>
<path d="M330.242 61.1222L328.299 59.5073L301.073 92.4111L303.016 94.026L330.242 61.1222Z" fill="#A36B39"/>
<path d="M325.951 57.5573L324.008 55.9424L296.782 88.8462L298.725 90.4611L325.951 57.5573Z" fill="#A36B39"/>
<path d="M330.251 61.1081L324.018 55.9274L329.864 53.5917L332.46 52.5571L331.783 55.1758L330.251 61.1081Z" fill="#E5C3A5"/>
<path d="M331.751 55.2163L329.84 53.6241L332.436 52.5815L331.751 55.2163Z" fill="#877268"/>
<path d="M296.772 88.855C296.514 89.3803 289.901 94.9328 293.724 98.3597C297.618 101.859 303.005 94.0438 303.005 94.0438L296.772 88.8631V88.855Z" fill="#FA9876"/>
<path d="M50.0764 93.4005L45.5879 100.154L81.0825 123.853L85.571 117.1L50.0764 93.4005Z" fill="#E4AF9C"/>
<path d="M50.0829 93.4088L48.6836 95.5142L84.1782 119.213L85.5775 117.108L50.0829 93.4088Z" fill="#FBE8E2"/>
<path d="M46.997 98.0524L45.5977 100.158L81.0923 123.857L82.4916 121.752L46.997 98.0524Z" fill="#E4AF9C"/>
<path d="M50.0607 93.3886L45.5692 100.145L42.634 94.5606L41.3438 92.0874L44.0129 92.4834L50.0607 93.3886Z" fill="#E5C3A5"/>
<path d="M44.0524 92.5154L42.6735 94.5845L41.3672 92.1113L44.0524 92.5154Z" fill="#877268"/>
<path d="M81.0898 123.867C81.6382 124.069 87.8312 130.082 90.8389 125.911C93.9032 121.66 85.5814 117.11 85.5814 117.11L81.0898 123.867Z" fill="#FCC583"/>
<path d="M248.258 8.45253C234.631 20.6082 233.308 41.4685 245.218 55.2487L250.815 50.2539L255.113 46.4229L285.094 19.6788L289.392 15.8397L294.988 10.853C282.715 -2.60397 261.894 -3.71124 248.258 8.45253ZM251.532 40.4259C248.653 32.8447 250.54 23.9462 256.943 18.2401C263.346 12.526 272.385 11.6773 279.562 15.4275L251.532 40.434V40.4259Z" fill="#DCF8C1"/>
<path d="M239.107 38.0174C238.913 38.0174 238.744 37.88 238.712 37.6861C238.671 37.4678 238.817 37.2496 239.034 37.2092L242.316 36.5707C242.542 36.5303 242.752 36.6758 242.792 36.894C242.832 37.1122 242.695 37.3304 242.47 37.3708L239.188 38.0093C239.188 38.0093 239.131 38.0093 239.107 38.0093V38.0174Z" fill="#A4C5EE"/>
<path d="M277.119 6.40772C277.079 6.40772 277.039 6.40772 276.998 6.39156C276.789 6.3269 276.668 6.09251 276.732 5.88238L277.748 2.68989C277.813 2.47975 278.047 2.35852 278.256 2.42318C278.466 2.48784 278.587 2.72222 278.522 2.93236L277.506 6.12484C277.45 6.29457 277.297 6.40772 277.119 6.40772Z" fill="#A4C5EE"/>
<path d="M251.363 13.6256C251.25 13.6256 251.137 13.5771 251.065 13.4882L248.315 10.3927C248.17 10.2229 248.178 9.9724 248.347 9.81883C248.517 9.67335 248.767 9.68143 248.92 9.85116L251.67 12.9467C251.815 13.1164 251.807 13.3669 251.637 13.5205C251.557 13.5852 251.468 13.6256 251.371 13.6256H251.363Z" fill="#A4C5EE"/>
<path d="M253.291 48.46C253.178 48.46 253.065 48.4115 252.992 48.3226L251.073 46.1646C250.928 45.9949 250.936 45.7444 251.105 45.5908C251.275 45.4453 251.525 45.4534 251.678 45.6231L253.597 47.7811C253.742 47.9508 253.734 48.2014 253.565 48.3549C253.484 48.4277 253.395 48.46 253.299 48.46H253.291Z" fill="#A4C5EE"/>
<path d="M258.332 43.9659C258.219 43.9659 258.106 43.9174 258.033 43.8285L256.114 41.6705C255.969 41.5008 255.977 41.2502 256.146 41.0967C256.316 40.9512 256.566 40.9593 256.719 41.129L258.638 43.287C258.783 43.4567 258.775 43.7072 258.606 43.8608C258.525 43.9254 258.436 43.9659 258.34 43.9659H258.332Z" fill="#A4C5EE"/>
<path d="M263.361 39.4722C263.248 39.4722 263.135 39.4237 263.062 39.3348L261.143 37.1769C260.998 37.0071 261.006 36.7566 261.176 36.603C261.345 36.4575 261.595 36.4656 261.748 36.6353L263.667 38.7933C263.812 38.963 263.804 39.2136 263.635 39.3671C263.554 39.4318 263.466 39.4722 263.369 39.4722H263.361Z" fill="#A4C5EE"/>
<path d="M268.402 34.9781C268.289 34.9781 268.176 34.9296 268.103 34.8407L266.184 32.6827C266.039 32.513 266.047 32.2624 266.217 32.1089C266.386 31.9634 266.636 31.9715 266.789 32.1412L268.708 34.2992C268.853 34.4689 268.845 34.7194 268.676 34.873C268.595 34.9377 268.507 34.9781 268.41 34.9781H268.402Z" fill="#A4C5EE"/>
<path d="M273.433 30.4849C273.32 30.4849 273.207 30.4364 273.135 30.3475L271.216 28.1895C271.07 28.0198 271.078 27.7693 271.248 27.6157C271.417 27.4702 271.667 27.4783 271.82 27.648L273.74 29.806C273.885 29.9757 273.877 30.2263 273.707 30.3798C273.635 30.4445 273.538 30.4849 273.441 30.4849H273.433Z" fill="#A4C5EE"/>
<path d="M278.472 25.9996C278.359 25.9996 278.246 25.9511 278.174 25.8622L276.255 23.7042C276.109 23.5345 276.118 23.2839 276.287 23.1304C276.456 22.9849 276.706 22.993 276.859 23.1627L278.779 25.3206C278.924 25.4904 278.916 25.7409 278.746 25.8945C278.674 25.9591 278.577 25.9996 278.48 25.9996H278.472Z" fill="#A4C5EE"/>
<path d="M283.505 21.5049C283.392 21.5049 283.28 21.4564 283.207 21.3675L281.288 19.2096C281.143 19.0398 281.151 18.7893 281.32 18.6357C281.489 18.4902 281.739 18.4983 281.893 18.6681L283.812 20.826C283.957 20.9957 283.949 21.2463 283.78 21.3999C283.699 21.4645 283.61 21.5049 283.513 21.5049H283.505Z" fill="#A4C5EE"/>
<path d="M288.544 17.0118C288.432 17.0118 288.319 16.9633 288.246 16.8744L286.327 14.7164C286.182 14.5467 286.19 14.2961 286.359 14.1426C286.528 13.9971 286.778 14.0052 286.932 14.1749L288.851 16.3329C288.996 16.5026 288.988 16.7531 288.819 16.9067C288.746 16.9713 288.649 17.0118 288.553 17.0118H288.544Z" fill="#A4C5EE"/>
<path d="M426.752 62.3928L433.002 64.769C433.002 64.4457 432.84 64.3891 433.397 62.3524L394.957 47.7074C394.82 47.6589 394.57 48.16 394.521 48.2974L391.578 56.0644C391.53 56.2018 430.421 70.8873 430.421 70.8873C431.429 69.1253 431.542 69.0688 431.945 68.3009L428.228 66.8057L431.881 68.1959C431.978 68.2363 432.703 66.1753 432.937 65.0923L426.752 62.3928Z" fill="#D9D4A7"/>
<path d="M432.381 61.6494C432.582 65.1409 428.688 70.9844 428.688 70.9844L430.405 71.3966C430.405 71.3966 433.332 66.0542 433.687 64.5671C434.042 63.08 434.042 62.1344 434.042 62.1344L432.373 61.6575L432.381 61.6494Z" fill="#C2BD95"/>
<path d="M391.973 54.844L394.118 49.1783C394.36 48.5398 395.07 48.2246 395.707 48.4671L434.937 63.4111C434.937 63.4111 435.018 63.4111 435.05 63.3869C435.655 62.8535 435.913 62.118 435.872 61.2047C435.872 61.1643 435.84 61.1239 435.8 61.1077L394.401 45.3312C393.764 45.0887 393.054 45.412 392.812 46.0424L388.893 56.3796C388.651 57.0181 388.974 57.7293 389.603 57.9718L430.776 73.6594C430.97 73.7322 431.179 73.6756 431.316 73.522C431.744 73.029 431.954 72.4309 431.978 71.7439C431.978 71.5338 431.857 71.3479 431.663 71.2752L392.683 56.42C392.046 56.1775 391.731 55.4663 391.973 54.8278V54.844Z" fill="#B1B1E8"/>
<path d="M396.447 51.8379L392.343 62.6438L391.432 65.0524L394.431 64.818L396.496 66.984L397.407 64.5755L401.511 53.7695L396.447 51.8379Z" fill="#F5A98D"/>
<path d="M389.223 57.7377L373.426 30.3874L376.885 22.4102C377.619 20.7291 379.578 19.9613 381.256 20.7049L418.97 37.4594L435.799 61.108L393.779 46.2124L389.223 57.7296V57.7377Z" fill="#B1B1E8"/>
<path d="M379.457 20.4624C378.361 20.616 377.369 21.3191 376.893 22.4183L373.434 30.3955L389.231 57.7458L393.787 46.2286L394.577 46.5115C390.174 39.1566 382.602 26.4109 379.457 20.4705V20.4624Z" fill="#C8C8F0"/>
</svg>
