<svg width="278" height="171" viewBox="0 0 278 171" fill="none" xmlns="http://www.w3.org/2000/svg">
<path d="M194.944 88.935C193.07 88.0173 191.676 90.9912 193.944 91.8613C196.212 92.7314 197.497 93.2984 198.211 93.2984C198.925 93.2984 199.579 91.4457 198.969 90.8354C198.358 90.225 196.238 89.567 194.944 88.935Z" fill="#FBAE96"/>
<path d="M106.03 64.6859C109.206 64.6859 110.042 68.7679 114.006 70.0839C118.922 71.7158 125.31 69.1359 126.958 64.9283C129.101 59.461 125.046 56.6127 125.967 47.5266C126.578 41.5052 122.479 42.0377 118.97 36.1765C115.46 30.311 116.399 29.6747 111.639 24.2853C106.878 18.896 98.9239 18.1341 92.9474 19.0821C86.9709 20.0302 83.9935 21.1253 79.3153 24.3416C74.6371 27.5579 76.7533 31.0036 73.7456 33.2762C70.7379 35.5445 69.3963 38.1807 68.4875 42.6913C66.7392 51.3489 72.6161 55.5348 69.9762 58.526C67.3364 61.5172 61.9787 74.9235 75.8402 74.114C80.7391 73.8283 85.1274 75.4386 87.5292 71.7202C91.0649 66.2486 92.8306 69.8891 97.6732 67.4909C102.52 65.0884 106.026 64.6945 106.026 64.6945L106.03 64.6859Z" fill="#37231B"/>
<path d="M70.5059 67.6465C82.1775 58.1448 83.2854 67.6465 111.285 65.7894C114.739 65.56 130.457 68.7243 133.491 70.59C148.871 80.0398 160.893 141.924 160.893 141.924L71.8301 140.941L70.5059 67.6465Z" fill="#FCC583"/>
<path d="M92.8265 63.3268C92.6231 67.2487 89.0527 63.5389 89.0527 68.5083C89.0527 72.8241 93.8824 79.7199 107.553 77.5338C116.248 76.1443 118.862 68.7204 113.694 66.5561C110.769 65.331 109.388 60.4092 109.388 60.4092L92.8265 63.3225V63.3268Z" fill="#FBAE96"/>
<path d="M111.364 40.8431C114.052 51.6131 113.948 67.2573 101.683 68.1966C86.6794 69.3481 70.1607 39.895 82.2003 29.0818C94.2398 18.2685 107.556 25.5928 111.364 40.8431Z" fill="#FBAE96"/>
<path d="M87.5727 37.1375C85.807 40.5443 85.6815 41.1546 83.7254 43.1112C81.7693 45.0678 81.951 50.1369 82.8858 53.0285C87.339 66.8157 83.5263 60.158 82.6435 61.0411C81.7606 61.9241 78.1038 52.9203 77.6017 52.4181C77.0954 51.9117 73.127 37.4752 73.127 35.9601C73.127 34.445 82.6867 25.3113 83.8422 24.1512C85.002 22.9911 95.4403 20.8267 98.4048 20.8267C101.369 20.8267 107.294 20.4501 108.557 22.4673C109.817 24.4845 118.013 41.3841 118.013 41.3841C118.013 41.3841 122.93 49.2581 119.606 49.0373C115.352 48.7516 114.551 47.8945 113.461 45.4055C112.292 42.7303 111.184 36.722 105.325 38.7089C95.4187 42.0637 87.5727 37.1462 87.5727 37.1462V37.1375Z" fill="#37231B"/>
<path d="M46.8983 147.911C43.1029 124.271 61.9499 69.8845 74.1841 64.9324C82.8048 61.439 89.4478 64.1878 91.049 73.7328C92.6503 83.2777 78.0747 128.254 78.0747 128.254C78.0747 128.254 120.819 116.505 124.606 128.254C128.388 140.002 126.497 148.326 126.497 148.326L46.9026 147.911H46.8983Z" fill="#FCC583"/>
<path d="M86.4116 129.453C82.4951 129.453 79.0157 129.366 76.3845 129.297C75.1165 129.267 74.0172 129.236 73.1214 129.224C72.7319 129.219 72.4073 129.042 72.2039 128.73C71.2259 127.219 73.3551 122.064 77.5313 112.311C81.8027 102.329 87.117 89.9052 87.117 83.1653C87.117 82.8709 87.3551 82.6328 87.6494 82.6328C87.9436 82.6328 88.1817 82.8709 88.1817 83.1653C88.1817 90.1259 82.8197 102.658 78.5093 112.731C76.7913 116.744 75.1727 120.531 74.1557 123.354C72.7016 127.392 73.0132 128.055 73.0998 128.154C73.0998 128.154 73.1128 128.154 73.1344 128.154C74.0345 128.167 75.1381 128.193 76.4104 128.228C82.2528 128.375 91.0769 128.6 100.156 127.929C100.451 127.908 100.706 128.128 100.728 128.423C100.749 128.717 100.528 128.972 100.234 128.994C95.4694 129.345 90.683 129.449 86.4116 129.449V129.453Z" fill="#C99565"/>
<path d="M92.9662 51.561C92.871 52.1756 93.5158 54.0327 94.892 53.6085C95.8008 53.3271 95.6494 51.0069 94.5804 50.5826C93.7106 50.2407 93.0614 50.9463 92.9662 51.561Z" fill="#372313"/>
<path d="M104.247 48.1155C104.087 48.7172 104.654 50.6219 106.065 50.3405C106.999 50.1587 106.969 47.8472 105.956 47.3147C105.13 46.8775 104.407 47.5138 104.247 48.1155Z" fill="#372313"/>
<path d="M98.9844 61.8847C99.7331 62.7504 101.529 63.7677 104.29 62.8327C107.051 61.8977 106.735 59.1143 106.735 59.1143C104.242 60.6899 101.867 61.4475 98.9844 61.8803V61.8847Z" fill="#E66C40"/>
<path d="M102.225 45.9903C102.779 45.9903 104.532 44.7609 106.198 45.0293C107.864 45.2977 107.804 45.0683 107.405 44.6657C107.003 44.2631 105.873 43.8475 103.762 44.1203C101.2 44.4536 101.745 45.9903 102.225 45.9903Z" fill="#37231B"/>
<path d="M94.8773 47.7561C94.9076 47.2237 93.7651 47.0938 92.9385 47.3103C91.8046 47.6089 90.0736 49.2625 89.7879 50.4486C89.6365 51.0676 90.0736 51.3706 90.7097 50.5006C91.4627 49.4746 92.0556 48.8513 93.012 48.7041C93.7824 48.5829 94.8556 48.176 94.8773 47.7604V47.7561Z" fill="#37231B"/>
<path d="M85.3317 53.2235C86.6819 55.1281 88.5428 58.8725 87.158 59.8552C85.7731 60.8378 81.6662 58.6907 80.3159 56.7861C78.9657 54.8814 78.9917 52.5395 80.3765 51.5569C81.7614 50.5742 83.9815 51.3188 85.3317 53.2235Z" fill="#FBAE96"/>
<path d="M101.921 69.5121C99.1989 69.5121 96.9398 68.6031 96.8143 68.5511C96.6369 68.4775 96.5503 68.2741 96.6239 68.0966C96.6975 67.9191 96.9009 67.8326 97.0783 67.9062C97.1173 67.9235 101.047 69.4991 104.63 68.4516C104.816 68.3996 105.007 68.5035 105.063 68.6897C105.115 68.8758 105.011 69.0663 104.825 69.1225C103.847 69.4082 102.856 69.5165 101.921 69.5165V69.5121Z" fill="#C99565"/>
<path d="M86.7868 60.4133C87.7692 61.3959 92.3175 65.8502 96.9438 68.2311C98.2854 68.9237 97.6059 73.5295 97.4891 74.2178C96.6063 79.4556 90.9976 78.3258 87.648 76.6505C84.0517 74.8498 87.4186 63.3698 82.3293 63.0235C76.5605 62.6296 74.2669 65.1836 73.4273 64.9628C71.7828 64.5256 74.7299 61.9716 78.7417 60.7639C81.9571 59.7986 86.1982 60.0367 86.7868 60.4133Z" fill="#37231B"/>
<path d="M89.2211 25.0124C87.04 24.6531 85.9754 27.2807 84.9541 28.7222C84.7507 29.0079 85.2224 29.3715 85.4388 29.0988C86.3909 27.9127 87.2607 25.4063 89.1346 25.6357C89.4851 25.679 89.5717 25.073 89.2168 25.0124H89.2211Z" fill="#55341B"/>
<path d="M90.2039 27.2591C88.7325 27.3933 87.8713 28.5317 87.0188 29.6096C86.7721 29.9213 87.2049 30.3628 87.4602 30.0511C88.1916 29.1464 88.9576 28.0426 90.2082 27.8911C90.6021 27.8435 90.6194 27.2201 90.2082 27.2591H90.2039Z" fill="#55341B"/>
<path d="M79.6616 40.5269C78.4066 42.0334 77.554 43.9553 77.2035 45.886C77.1299 46.2799 77.7315 46.453 77.8137 46.0548C78.1772 44.2454 78.9475 42.4186 80.103 40.9685C80.3497 40.6611 79.9213 40.2196 79.6616 40.5269Z" fill="#55341B"/>
<path d="M94.199 71.1318C94.2293 70.7206 93.6018 70.7293 93.5628 71.1318C93.4849 72.0063 93.6537 72.885 93.6104 73.7638C93.5888 74.1577 93.5412 74.6165 93.2945 74.9412C92.9786 75.3567 92.4593 75.3567 91.9832 75.3221C91.5678 75.2918 91.5894 75.9065 91.9832 75.9585C94.9001 76.3221 94.0778 72.885 94.199 71.1318Z" fill="#55341B"/>
<path d="M123.415 51.197C123.056 50.4525 122.589 49.7685 122.152 49.0716C121.866 48.6127 121.351 47.9677 121.377 47.3963C121.394 46.9981 120.78 46.9981 120.758 47.3963C120.728 47.8768 120.996 48.3573 121.226 48.7599C121.585 49.3962 122 50.0023 122.372 50.6299C122.71 51.1927 123.091 51.8117 123.199 52.474C123.312 53.1623 122.909 53.4523 122.29 53.6211C121.892 53.7293 122.061 54.3181 122.459 54.2358C123.091 54.1016 123.688 53.7467 123.835 53.0757C123.974 52.4394 123.692 51.7641 123.42 51.2013L123.415 51.197Z" fill="#55341B"/>
<path d="M123.444 58.8295C123.085 58.4269 122.63 58.2321 122.154 58.007C121.579 57.7299 121.285 57.4572 121.367 56.7733C121.406 56.4313 120.804 56.3447 120.757 56.691C120.614 57.7083 121.116 58.2191 121.99 58.626C122.423 58.8251 123.132 59.1281 123.241 59.6649C123.323 60.0891 122.622 60.4311 122.375 60.7038C122.102 61.0068 122.527 61.4397 122.825 61.154C123.154 60.838 123.63 60.574 123.821 60.1411C124.033 59.6606 123.769 59.1931 123.448 58.8338L123.444 58.8295Z" fill="#55341B"/>
<path d="M106.921 29.7229C106.371 29.1342 105.67 28.9221 104.887 28.8485C104.004 28.762 103.143 28.8096 102.533 28.0564C102.269 27.7317 101.819 28.1906 102.074 28.5152C103.212 29.948 105.242 28.9568 106.466 30.1731C106.756 30.4632 107.193 30.0216 106.916 29.7229H106.921Z" fill="#55341B"/>
<path d="M130.605 69.5552C135.457 70.2132 150.85 88.2295 170.333 92.4111C189.816 96.5928 196.935 92.1817 196.935 92.1817L205.253 105.662C186.19 119.631 156.411 112.293 137.534 102.887L130.605 69.5552Z" fill="#FCC583"/>
<path d="M207.86 145.988C207.86 145.988 219.631 108.834 194.96 90.6275C189.766 86.7965 185.248 84.9914 174.33 85.0304C162.701 85.0737 152.237 95.9692 148.126 103.35C140.509 117.024 134.199 145.988 134.199 145.988H207.86Z" fill="#DB7E5D"/>
<path d="M193.953 145.958C193.663 145.958 193.434 145.725 193.434 145.439V124.271C193.429 124.172 192.776 111.562 191.01 106.653C190.911 106.38 191.054 106.082 191.326 105.986C191.599 105.887 191.897 106.03 191.993 106.302C193.815 111.358 194.451 123.726 194.481 124.249V145.443C194.481 145.733 194.247 145.963 193.962 145.963L193.953 145.958Z" fill="#9E614B"/>
<path d="M155.574 142.586C155.315 142.586 155.09 142.391 155.059 142.123C154.934 141.036 151.978 115.388 153.666 106.376C153.718 106.095 153.99 105.908 154.276 105.96C154.557 106.012 154.743 106.285 154.691 106.571C153.03 115.427 156.068 141.742 156.098 142.006C156.133 142.292 155.925 142.552 155.639 142.586C155.618 142.586 155.596 142.586 155.579 142.586H155.574Z" fill="#9E614B"/>
<path d="M167.5 89.3421C164.886 92.3116 163.22 101.398 167.989 101.64C179.202 102.216 183.11 86.9829 180.107 86.0133C173.243 83.7926 167.5 89.3421 167.5 89.3421Z" fill="#F1F2F2"/>
<path d="M167.02 81.7452C167.02 82.9053 166.341 90.3076 168.245 91.3638C173.819 94.4545 180.111 87.9873 180.111 86.0177V79.6631L167.024 81.7495L167.02 81.7452Z" fill="#FBAE96"/>
<path d="M158.065 52.6692C157.52 47.0072 154.209 42.2801 151.349 44.6523C148.488 47.0245 145.217 49.5222 145.913 52.6692C146.303 54.431 155.473 57.3097 155.473 57.3097L158.065 52.6692Z" fill="#37231B"/>
<path d="M152.422 58.1924C152.271 58.1924 152.119 58.1275 152.016 57.9976C151.834 57.7725 151.873 57.4436 152.093 57.2661C153.915 55.7986 154.803 54.2316 154.803 52.4784C154.803 52.1884 155.036 51.959 155.322 51.959C155.607 51.959 155.841 52.1927 155.841 52.4784C155.841 54.5389 154.798 56.422 152.743 58.0799C152.647 58.1578 152.531 58.1968 152.418 58.1968L152.422 58.1924Z" fill="#DE501D"/>
<path d="M154.058 66.1227C152.245 66.5297 150.903 66.9972 150.159 66.2569C149.415 65.5124 150.159 63.5947 150.159 63.5947L152.552 63.2095L154.058 66.1227Z" fill="#82512B"/>
<path d="M187.56 68.0491C185.838 79.9316 178.208 89.3424 167.501 89.3424C159.59 89.3424 154.367 85.3816 153.51 77.2824C153.311 75.3994 153.692 72.7848 153.549 71.681C153.311 69.8239 151.943 67.7634 151.943 65.8154C151.943 53.9329 162.157 48.2319 172.863 48.2319C183.57 48.2319 189.265 56.2921 187.56 68.0491Z" fill="#FBAE96"/>
<path d="M164.58 69.1185C164.536 68.7332 165.449 67.9584 166.7 68.2527C167.947 68.5471 168.873 69.4302 168.466 69.6726C168.059 69.915 167.146 69.1618 166.35 69.2527C165.553 69.3393 164.614 69.3912 164.584 69.1185H164.58Z" fill="#37231B"/>
<path d="M158.384 69.3436C158.427 68.9583 157.514 68.1835 156.263 68.4778C155.017 68.7722 154.091 69.6553 154.497 69.8977C154.904 70.1401 155.817 69.3869 156.614 69.4778C157.41 69.5687 158.349 69.6163 158.379 69.3436H158.384Z" fill="#37231B"/>
<path d="M162.969 61.8238C172.083 60.932 172.598 64.6072 175.203 68.0485C177.812 71.4899 184.2 70.8276 187.134 70.3644C188.134 70.2086 189.644 63.7068 189.229 59.8239C188.922 56.9452 189.09 51.6555 183.161 48.5734C177.233 45.4913 175.173 44.7987 169.412 45.8679C163.657 46.9371 157.403 62.3692 162.964 61.8238H162.969Z" fill="#37231B"/>
<path d="M178.48 53.0277C179.026 47.3657 184.569 42.5477 187.434 44.9199C190.299 47.2921 192.978 54.032 191.494 55.0622C190.009 56.0925 181.073 57.6682 181.073 57.6682L178.48 53.0277Z" fill="#37231B"/>
<path d="M181.963 57.8194C179.44 57.8194 178.402 56.2741 178.056 55.5468C177.45 54.2785 177.515 52.7288 178.203 52.0925C178.415 51.8977 178.744 51.9107 178.938 52.1228C179.133 52.3349 179.12 52.6639 178.908 52.8587C178.666 53.0838 178.514 54.101 178.99 55.0966C179.354 55.8585 180.336 57.0792 182.833 56.7113C183.115 56.668 183.383 56.8671 183.426 57.1528C183.469 57.4385 183.27 57.7026 182.985 57.7459C182.617 57.7978 182.275 57.8238 181.959 57.8238L181.963 57.8194Z" fill="#D9886B"/>
<path d="M149.473 65.6766C152.516 69.6287 153.706 58.876 162.162 60.9322C165.464 61.733 162.872 56.071 166.018 53.8763C169.16 51.6816 174.171 46.7728 168.718 46.0628C163.266 45.3529 155.883 48.5043 153.831 51.8721C152.918 53.3698 151.031 55.3697 150.759 58.0709C150.395 61.7157 148.599 64.5381 149.478 65.6766H149.473Z" fill="#37231B"/>
<path d="M159.652 82.0093C159.652 82.0093 160.6 84.191 163.127 84.3252C165.655 84.4594 166.109 82.0309 166.109 82.0309C163.885 82.7885 161.959 82.9443 159.652 82.0093Z" fill="#F1F2F2"/>
<path d="M166.419 72.1394C165.978 72.3039 165.532 73.0138 165.744 74.0614C165.956 75.1047 166.739 75.5635 167.228 75.2475C167.717 74.9315 168.068 73.4684 167.761 72.858C167.453 72.2477 166.7 72.0355 166.415 72.1438L166.419 72.1394Z" fill="#372313"/>
<path d="M156.526 72.1571C156.094 72.3389 155.674 73.0661 155.929 74.105C156.185 75.1396 156.981 75.5638 157.461 75.2305C157.942 74.8929 158.227 73.4211 157.898 72.8237C157.569 72.2263 156.803 72.0445 156.526 72.1614V72.1571Z" fill="#372313"/>
<path d="M172.786 57.5912C171.708 56.3445 169.691 56.0112 168.194 56.5912C167.83 56.7341 167.982 57.3185 168.358 57.1843C169.73 56.6951 171.297 57.0198 172.335 58.0414C172.63 58.3314 173.054 57.8985 172.786 57.5912Z" fill="#643D20"/>
<path d="M174.846 51.8385C173.007 51.3969 171.311 51.6134 169.623 52.4488C169.259 52.6306 169.58 53.1717 169.943 52.9942C171.501 52.2367 172.994 52.1198 174.682 52.4445C175.076 52.5224 175.249 51.9337 174.851 51.8385H174.846Z" fill="#643D20"/>
<path d="M182.208 63.6555C181.126 64.0104 179.776 62.8676 179.819 61.7595C179.837 61.3612 179.231 61.3655 179.205 61.7595C179.11 63.2313 180.927 64.8329 182.377 64.2658C182.745 64.1187 182.602 63.5256 182.208 63.6555Z" fill="#643D20"/>
<path d="M156.926 55.0803C155.874 54.9808 154.819 55.3314 154.204 56.2318C153.975 56.5651 153.862 56.9461 153.741 57.327C153.564 57.8854 153.373 58.1408 152.759 58.1971C152.36 58.236 152.347 58.8204 152.759 58.8291C153.667 58.8421 154.113 58.3096 154.373 57.5001C154.524 57.024 154.667 56.5954 155.052 56.2448C155.563 55.7773 156.26 55.6517 156.93 55.6907C157.329 55.7124 157.316 55.115 156.93 55.0803H156.926Z" fill="#643D20"/>
<path d="M161.989 49.6389C161.292 49.4615 160.825 48.9507 160.055 49.0459C159.336 49.1368 158.765 49.6389 158.324 50.18C158.073 50.4874 158.488 50.9333 158.769 50.6259C159.193 50.1714 159.717 49.626 160.401 49.6909C160.907 49.7385 161.323 50.1411 161.825 50.2406C162.214 50.3186 162.383 49.7385 161.989 49.6389Z" fill="#643D20"/>
<path d="M167.497 89.6888C167.306 89.6888 167.15 89.5329 167.15 89.3425C167.15 89.152 167.306 88.9962 167.497 88.9962C170.526 88.9962 173.049 88.4118 174.988 87.2603C175.152 87.1608 175.364 87.217 175.464 87.3815C175.563 87.546 175.507 87.7581 175.343 87.8577C173.296 89.0741 170.656 89.6888 167.497 89.6888Z" fill="#C48976"/>
<path d="M169.467 146.105C169.467 140.543 177.235 129.721 191.495 129.721C205.754 129.721 213.059 130.716 213.059 130.716V145.897L169.467 146.105Z" fill="#DB7E5D"/>
<path d="M169.223 133.643C169.015 133.643 168.816 133.518 168.738 133.31C168.634 133.041 168.769 132.738 169.037 132.634C173.473 130.938 190.19 129.163 193.956 129.21C194.245 129.21 194.475 129.448 194.471 129.739C194.471 130.024 194.232 130.254 193.951 130.254C193.951 130.254 193.947 130.254 193.943 130.254C190.338 130.202 173.65 131.985 169.413 133.608C169.353 133.63 169.288 133.643 169.227 133.643H169.223Z" fill="#9E614B"/>
<path d="M99.9457 136.907H165.367C169.214 136.907 172.339 140.032 172.339 143.88V144.963H99.9414V136.902L99.9457 136.907Z" fill="#7781A6"/>
<path d="M156.517 144.967H84.479L79.7446 91.4154C79.4719 89.87 80.1471 88.4458 81.6964 88.4458H149.177C150.381 88.4458 151.415 89.3202 151.627 90.5236L156.517 144.967Z" fill="#7781A6"/>
<path d="M120.689 108.587C120.879 111.557 118.802 114.107 116.05 114.284C113.297 114.462 110.909 112.202 110.714 109.232C110.519 106.263 112.601 103.713 115.353 103.536C118.105 103.358 120.494 105.618 120.689 108.587Z" fill="#DBDBDB"/>
<path d="M278 144.123H0V155.512H278V144.123Z" fill="#DCBFA3"/>
<path d="M247.492 38.9113C247.492 33.8596 246.947 11.878 254.178 1.50195C254.178 1.50195 255.814 10.2374 255.814 16.999C255.814 23.7606 250.764 50.1055 250.764 50.1055L247.487 38.9113H247.492Z" fill="#A7CBBD"/>
<path d="M221.458 0C221.458 0 235.241 53.3826 235.241 64.0314C235.241 74.6802 228.893 70.5852 228.893 70.5852C228.893 70.5852 224.184 33.5178 222.544 29.2842C220.908 25.0507 221.929 21.5011 221.929 18.5662C221.929 15.6312 220.428 11.8782 220.428 9.07746C220.428 6.27674 221.453 0 221.453 0H221.458Z" fill="#A7CBBD"/>
<path d="M240.669 117.302C241.898 112.051 249.472 105.203 249.472 98.3503C249.472 91.4978 248.654 65.2438 250.904 59.993C253.155 54.7421 254.998 46.0673 254.998 41.0415C254.998 36.0158 261.139 30.7693 261.139 27.1158V20.9517C261.139 20.9517 264.004 24.8346 264.004 30.9988C264.004 37.163 261.754 45.1539 259.91 47.2101C258.066 49.2662 256.837 51.7769 256.837 56.1144C256.837 60.4518 255.812 81.9139 255.812 87.6236C255.812 93.3332 255.401 94.4717 253.968 99.952C252.536 105.432 241.682 118.445 241.682 118.445L240.656 117.302H240.669Z" fill="#A4CABB"/>
<path d="M228.996 117.302C226.131 110.908 221.626 97.2118 221.626 90.5888C221.626 83.9657 222.652 77.5764 221.626 73.9229C220.6 70.2695 214.845 45.8724 217.086 36.8989C218.484 31.3061 218.964 35.2453 218.964 35.2453C218.964 35.2453 227.975 49.4956 228.996 55.201C230.017 60.9063 228.68 71.6417 230.022 74.819C231.359 77.9963 233.709 85.5674 233.709 90.5931V116.622L229 117.306L228.996 117.302Z" fill="#C2E8D8"/>
<path d="M240.67 32.8207L231.253 14.3281C231.253 14.3281 227.977 24.8298 227.977 28.2538C227.977 31.6779 226.748 34.418 226.748 37.8421C226.748 41.2661 229.613 48.3437 229.613 54.2828C229.613 60.2219 228.587 66.3817 228.587 71.4075C228.587 76.4332 233.707 117.301 233.707 117.301H237.394L240.67 32.825V32.8207Z" fill="#92BCAB"/>
<path d="M237.39 117.301C237.39 112.734 235.957 109.081 235.957 102.233C235.957 95.3846 235.957 91.0471 234.728 82.5973C233.499 74.1476 237.39 61.8192 237.39 56.3389C237.39 50.8587 235.343 34.6474 237.39 28.4832C239.437 22.319 241.687 9.76123 241.687 9.76123C241.687 9.76123 252.333 33.5046 252.333 37.617V65.0138C252.333 70.2646 250.083 78.7144 249.057 84.4198C248.032 90.1294 248.032 94.4669 248.032 100.402C248.032 106.336 243.41 117.297 243.41 117.297H237.386L237.39 117.301Z" fill="#C2E8D8"/>
<path d="M253.536 144.244H223.918L220.014 111.146C219.815 109.471 221.126 107.999 222.814 107.999H254.48C256.163 107.999 257.47 109.462 257.28 111.133L253.541 144.244H253.536Z" fill="#E3AC69"/>
<path d="M255.667 134.413H221.583L220.432 118.44H256.749L255.667 134.413Z" fill="#FCC583"/>
<path d="M35.0122 131.569C16.8058 131.569 1.99219 116.751 1.99219 98.54C1.99219 88.3025 6.62278 78.8095 14.7025 72.4981C15.1136 72.1778 15.7022 72.2427 16.0311 72.6409L57.001 121.933C57.3342 122.331 57.2866 122.924 56.8972 123.266C50.8601 128.616 43.0876 131.564 35.0079 131.564L35.0122 131.569ZM15.1612 74.6019C8.0033 80.5366 3.91799 89.2115 3.91799 98.5444C3.91799 115.695 17.866 129.647 35.0122 129.647C42.3086 129.647 49.3411 127.093 54.9194 122.439L15.1612 74.6019Z" fill="#9CA8D3"/>
<path d="M35.016 124.967C49.6076 124.967 61.4364 113.135 61.4364 98.54C61.4364 83.9447 49.6076 72.1128 35.016 72.1128C20.4245 72.1128 8.5957 83.9447 8.5957 98.54C8.5957 113.135 20.4245 124.967 35.016 124.967Z" fill="#A3D8F5"/>
<mask id="mask0_2023_3814" style="mask-type:luminance" maskUnits="userSpaceOnUse" x="8" y="72" width="54" height="53">
<path d="M35.02 124.967C49.6115 124.967 61.4403 113.135 61.4403 98.54C61.4403 83.9447 49.6115 72.1128 35.02 72.1128C20.4284 72.1128 8.59961 83.9447 8.59961 98.54C8.59961 113.135 20.4284 124.967 35.02 124.967Z" fill="white"/>
</mask>
<g mask="url(#mask0_2023_3814)">
<path d="M22.0784 92.3754C17.9888 95.1372 12.8345 105.141 17.9888 104.383C23.1387 103.626 25.5665 100.141 27.99 103.777C30.4135 107.414 30.6731 109.994 35.0138 109.994C39.3544 109.994 44.989 113.24 45.8719 112.361C46.7504 111.483 43.5998 106.206 41.9337 101.202C40.2676 96.202 35.2648 91.198 31.9325 89.8344C28.6002 88.4708 22.0827 92.3754 22.0827 92.3754H22.0784Z" fill="#DEB788"/>
<path d="M37.5904 94.1892C35.7078 92.1243 33.6089 90.5183 31.9298 89.8344C28.5975 88.4708 22.0801 92.3754 22.0801 92.3754C20.1975 93.6481 18.09 96.4531 16.8652 99.0374C19.3363 99.5655 19.5051 97.3362 23.941 96.9033C29.0909 96.3968 28.7879 96.3925 31.4148 98.0115C34.0417 99.6304 33.0593 97.1067 35.0154 96.0938C36.2661 95.4488 37.1273 94.7605 37.5904 94.1892Z" fill="#7DD2B1"/>
<path d="M18.5949 92.3753C15.717 91.3494 13.8994 91.6524 13.8994 88.1634C13.8994 84.6744 15.0029 83.6831 13.1637 83.6831C11.3244 83.6831 7.23047 91.6351 7.23047 93.9899C7.23047 96.3448 11.9173 96.3838 12.9127 95.3881C13.908 94.3925 18.5949 92.3753 18.5949 92.3753Z" fill="#DEB788"/>
<path d="M43.8984 71.1685C36.1692 71.1685 31.3222 78.0079 36.6236 79.9775C41.925 81.9471 42.8381 81.6225 46.0189 83.683C49.1997 85.7391 52.2291 88.3148 52.9908 86.3452C53.7481 84.3756 56.9289 83.9211 56.9289 82.2545C56.9289 80.5879 45.1101 71.1728 43.8984 71.1728V71.1685Z" fill="#7CC8AA"/>
<path d="M31.9285 126.058C31.0197 123.633 30.9547 122.876 34.3952 121.512C37.8357 120.149 38.2901 119.846 41.1723 118.482C44.0502 117.119 44.6561 117.119 47.5383 117.119C50.4205 117.119 51.7794 120.3 51.7794 120.3C51.7794 120.3 46.0929 123.815 45.6644 124.239C45.236 124.664 31.9285 126.058 31.9285 126.058Z" fill="#F1F2F2"/>
<path d="M17.6562 78.1638C19.2272 78.1638 19.9283 78.917 24.3252 77.4019C28.7177 75.8868 31.0677 72.229 31.0677 72.229L22.8105 73.6878L17.6606 78.1638H17.6562Z" fill="#F1F2F2"/>
</g>
<path d="M50.4699 104.752C51.2273 105.509 51.1883 106.912 52.0625 106.042C52.9324 105.172 51.911 104.336 53.3521 104.752C54.7932 105.168 55.7021 104.297 55.7021 103.007C55.7021 101.717 55.78 100.354 54.3388 100.886C52.8977 101.419 51.9889 101.795 51.0801 102.25C50.1713 102.704 50.4743 104.752 50.4743 104.752H50.4699Z" fill="#DCF8C1"/>
<path d="M55.7012 107.025C55.7012 106.116 56.1426 105.544 56.9129 106.315C57.6832 107.085 59.7172 108.916 58.354 108.462C56.9908 108.007 55.7055 107.02 55.7055 107.02L55.7012 107.025Z" fill="#DCF8C1"/>
<path d="M53.8027 99.0682C53.8027 98.3107 55.404 97.4969 56.2608 96.6441C57.1134 95.7913 56.4599 94.3715 57.2519 94.3715C58.0438 94.3715 58.0438 94.142 58.0438 95.2805C58.0438 96.419 58.6497 97.9341 57.5894 97.9341C56.5292 97.9341 56.3777 98.3886 55.6982 99.0725C55.0145 99.7565 53.8027 99.0725 53.8027 99.0725V99.0682Z" fill="#E3AC69"/>
<path d="M35.3228 130.608L40.1092 140.309H29.9219L35.3228 130.608Z" fill="#9CA8D3"/>
<path d="M27.9128 138.638H42.1205C44.8685 138.638 47.1016 140.871 47.1016 143.62V144.555H22.9316V143.62C22.9316 140.871 25.1647 138.638 27.9128 138.638Z" fill="#9CA8D3"/>
<path d="M197.206 92.411C196.843 96.242 191.697 98.4886 196.094 102.887C197.327 104.12 199.175 105.198 200.655 104.956C203.317 104.519 205.463 101.311 205.294 99.6704C204.81 95.0126 198.985 89.9912 198.349 90.6276C197.712 91.2639 197.332 91.1167 197.206 92.411Z" fill="#FBAE96"/>
<path d="M195.335 101.878C195.257 101.878 195.179 101.839 195.131 101.765C195.062 101.653 195.097 101.505 195.209 101.44C196.828 100.445 198.806 98.2934 199.191 96.5619C199.572 94.839 200.264 92.1552 200.273 92.1292C200.307 92.0037 200.437 91.9258 200.563 91.9604C200.688 91.995 200.766 92.1206 200.731 92.2504C200.723 92.2764 200.035 94.9516 199.654 96.6701C199.238 98.5531 197.196 100.782 195.456 101.852C195.417 101.878 195.374 101.886 195.33 101.886L195.335 101.878Z" fill="#C99565"/>
<path d="M196.584 103.315C196.471 103.315 196.372 103.237 196.35 103.124C196.324 102.995 196.411 102.873 196.536 102.847C197.731 102.614 200.306 100.272 200.778 99.168C201.28 97.9949 202.322 94.4539 202.322 94.0384C202.322 93.9085 202.431 93.8003 202.561 93.8003C202.69 93.8003 202.799 93.9085 202.799 94.0384C202.799 94.5968 201.678 98.2806 201.219 99.3541C200.734 100.488 198.086 103.029 196.632 103.311C196.619 103.311 196.601 103.315 196.588 103.315H196.584Z" fill="#C99565"/>
<path d="M199.098 104.493C198.998 104.493 198.907 104.432 198.873 104.332C198.829 104.207 198.894 104.073 199.02 104.029C200.578 103.484 202.378 101.527 202.833 100.471C203.3 99.389 204.105 96.822 204.109 96.7961C204.148 96.6705 204.282 96.6013 204.408 96.6402C204.533 96.6792 204.603 96.8134 204.564 96.9389C204.529 97.0471 203.741 99.5535 203.27 100.657C202.789 101.779 200.911 103.874 199.176 104.48C199.15 104.488 199.124 104.493 199.098 104.493Z" fill="#C99565"/>
<path d="M74.9377 144.513L51.6031 144.582L51.5736 134.648L74.9082 134.579C75.804 134.576 76.5332 135.301 76.5359 136.197L76.5557 142.881C76.5584 143.777 75.8335 144.506 74.9377 144.509L74.9377 144.513Z" fill="#7096C4"/>
<path d="M58.8247 141.793L58.8117 137.339C58.8117 136.841 58.4612 136.434 58.0284 136.434L31.4004 136.517C31.3744 136.517 31.3484 136.499 31.3354 136.473C31.0974 135.954 31.1061 135.378 31.3354 134.759C31.3484 134.729 31.3701 134.712 31.4004 134.712L59.4998 134.625C59.9283 134.625 60.2788 135.028 60.2831 135.53L60.3091 143.655C60.3091 144.153 59.9629 144.56 59.5301 144.564L31.5821 144.65C31.4523 144.65 31.3354 144.56 31.2922 144.417C31.145 143.967 31.158 143.503 31.2965 143.023C31.3398 142.88 31.4566 142.785 31.5864 142.785L58.0457 142.707C58.4742 142.707 58.8247 142.3 58.8247 141.798V141.793Z" fill="#79ADDD"/>
<path d="M36.4852 137.945L32.2441 137.958C32.322 137.738 32.4259 137.738 32.547 136.192L58.6385 136.114C58.7337 136.114 58.764 136.521 58.7683 136.629L58.7856 142.737C58.7856 142.846 32.4129 142.833 32.4129 142.833C32.2052 141.361 32.1532 141.291 32.084 140.655L34.6243 140.59L32.1446 140.599C32.0753 140.599 32.1056 138.993 32.2095 138.192L36.4852 137.941V137.945Z" fill="#E6E6E6"/>
<path d="M58.2002 138.318L58.2088 141.222L58.2132 141.872L57.0707 141.551L55.9325 141.88V141.231L55.9238 138.327L58.2002 138.318Z" fill="#F6A447"/>
<path d="M222.814 97.0467C222.065 102.817 216.508 106.713 210.765 105.804C205.023 104.895 201.102 99.4968 202.015 93.7525C202.924 88.0082 208.32 84.0864 214.063 84.9997C219.806 85.9131 223.372 92.7439 222.818 97.0511L222.814 97.0467Z" fill="#FCDCB5"/>
<path d="M238.795 119.327C240.18 132.279 240.483 144.975 223.142 144.975C209.921 144.975 206.394 135.222 207.121 120.305C207.835 105.661 212.115 90.4627 220.104 94.2763C228.959 98.5012 237.393 106.258 238.795 119.327Z" fill="#FCDCB5"/>
<path d="M209.359 105.414C209.277 105.414 209.19 105.393 209.112 105.349C208.874 105.211 208.792 104.908 208.931 104.67C212.06 99.2329 215.344 97.5923 218.715 96.2634C222.199 94.8911 223.333 95.6184 223.528 95.7786L222.892 96.5448C222.892 96.5448 222.9 96.5534 222.918 96.5621C222.909 96.5577 222.017 96.0296 219.083 97.1854C215.885 98.4451 212.765 100.003 209.796 105.163C209.705 105.324 209.536 105.414 209.363 105.414H209.359Z" fill="#9E614B"/>
<path d="M249.011 170.996C248.972 170.996 248.934 170.996 248.89 170.996C247.397 170.931 246.242 169.667 246.307 168.177C246.307 168.13 246.519 163.143 246.268 157.814C245.835 148.659 244.242 147.057 243.018 146.417C241.2 145.542 233.774 144.382 226.668 143.767C225.179 143.638 224.08 142.326 224.21 140.841C224.339 139.352 225.651 138.253 227.135 138.382C230.913 138.711 243.494 139.919 246.865 141.724C248.639 142.672 249.829 144.759 250.608 148.291C251.106 150.538 251.452 153.447 251.638 156.936C251.95 162.754 251.716 168.186 251.708 168.416C251.643 169.866 250.448 171 249.007 171L249.011 170.996Z" fill="#FCDCB5"/>
<path d="M203.808 93.5451L200.324 89.0562C199.952 88.5757 200.337 87.8831 200.939 87.9437L206.517 88.5064L203.808 93.5451Z" fill="#FCDCB5"/>
<path d="M216.777 86.4326L214.782 82.2164C214.652 81.8528 214.137 81.8571 214.011 82.2164L212.25 86.0041L216.777 86.4283V86.4326Z" fill="#FCDCB5"/>
<path d="M211.834 120.349C210.116 120.128 208.818 118.626 208.892 116.864C208.995 114.371 207.771 113.055 206.723 112.388C205.403 111.548 204.144 111.574 203.815 111.726C202.344 112.838 200.245 112.565 199.111 111.102C197.969 109.631 198.241 107.514 199.713 106.375C202.132 104.505 206.035 104.423 209.428 106.176C213.513 108.284 215.833 112.388 215.634 117.15C215.556 119.011 213.985 120.453 212.124 120.375C212.025 120.375 211.93 120.362 211.834 120.349Z" fill="#FCDCB5"/>
<path d="M217.118 139.876C216.409 139.876 204.854 139.187 204.819 142.335C204.78 145.482 206.299 144.919 210.532 144.919C214.764 144.919 221.424 144.958 221.424 144.958L217.118 139.876Z" fill="#FCDCB5"/>
</svg>
