<svg width="102" height="28" viewBox="0 0 102 28" fill="none" xmlns="http://www.w3.org/2000/svg">
<path d="M8.59961 27.4155C6.26432 27.4155 4.37728 26.9064 2.93848 25.8882C1.30046 24.7371 0.464844 23.0493 0.431641 20.8247C0.38737 17.2498 1.64355 14.8149 4.20019 13.52C2.23014 12.3247 1.24512 10.6258 1.24512 8.42334C1.24512 6.33154 2.00325 4.59391 3.51953 3.21045C4.9694 1.88232 6.72917 1.20719 8.79883 1.18506C13.4473 1.14079 15.7715 3.43734 15.7715 8.07471C15.7715 9.40283 15.5059 10.4266 14.9746 11.146C14.543 11.7437 13.7074 12.3579 12.4678 12.9888C14.1169 13.8188 15.2734 14.7153 15.9375 15.6782C16.7122 16.8071 17.0996 18.3621 17.0996 20.3433C17.0996 22.6011 16.264 24.3719 14.5928 25.6558C13.0433 26.8289 11.0456 27.4155 8.59961 27.4155ZM8.74902 4.15674C7.32129 4.15674 6.23112 4.56071 5.47852 5.36865C4.80339 6.12126 4.47135 7.13948 4.48242 8.42334C4.49349 9.97282 5.76628 11.0741 8.30078 11.727C9.62891 11.3397 10.5807 10.9523 11.1562 10.5649C12.0749 9.94515 12.5342 9.11507 12.5342 8.07471C12.5342 6.5695 12.1966 5.51253 11.5215 4.90381C10.946 4.40576 10.0218 4.15674 8.74902 4.15674ZM8.45019 14.6655C6.69043 15.4845 5.51725 16.1929 4.93066 16.7905C4.01204 17.7091 3.5804 19.0041 3.63574 20.6753C3.68001 22.0588 4.31641 23.0936 5.54492 23.7798C6.44141 24.2668 7.45963 24.5103 8.59961 24.5103C10.5475 24.5103 11.9089 24.0509 12.6836 23.1323C13.3034 22.4019 13.6133 21.2951 13.6133 19.812C13.6133 18.3621 13.0488 17.1945 11.9199 16.3091C11.1673 15.7004 10.0107 15.1525 8.45019 14.6655ZM32.9554 15.8442C32.9554 16.2537 32.8171 16.6134 32.5404 16.9233C32.2748 17.2222 31.9372 17.3716 31.5277 17.3716C31.3949 17.3716 31.1957 17.3494 30.93 17.3052C30.6644 17.2609 30.4597 17.2388 30.3158 17.2388L28.6556 17.272C27.9805 17.2941 27.4271 17.2941 26.9955 17.272V21.1733C26.9955 22.1694 26.503 22.6675 25.5179 22.6675C25.0309 22.6675 24.6602 22.5457 24.4056 22.3022C24.1621 22.0477 24.0404 21.6714 24.0404 21.1733L24.0238 19.2642L24.0072 17.3384C22.668 17.4159 21.7217 17.4546 21.1683 17.4546C19.4528 17.4546 18.5951 16.9455 18.5951 15.9272C18.5951 15.2078 18.8994 14.7596 19.5082 14.5825C19.7184 14.5272 20.2718 14.4995 21.1683 14.4995C21.7217 14.4995 22.668 14.4608 24.0072 14.3833L23.9906 12.4409C23.9906 11.4338 24.0404 10.7365 24.14 10.3491C24.2507 9.95068 24.4222 9.65185 24.6546 9.45264C24.8871 9.25342 25.1859 9.15381 25.5511 9.15381C25.9717 9.15381 26.3259 9.29215 26.6136 9.56885C26.9125 9.83447 27.0619 10.1776 27.0619 10.5981C27.0619 10.7863 27.0397 11.0851 26.9955 11.4946C26.9623 11.9041 26.9457 12.214 26.9457 12.4243L26.9623 14.3169L28.2074 14.3667C28.4287 14.3667 28.7663 14.3556 29.2201 14.3335C29.6739 14.3003 30.0114 14.2837 30.2328 14.2837C32.0479 14.2837 32.9554 14.8039 32.9554 15.8442ZM51.9323 4.8374L50.4216 6.59717C48.9828 8.27946 47.6602 10.3159 46.4538 12.7065L43.4323 19.3306C43.2221 19.8175 42.7572 21.0959 42.0378 23.1655C41.4623 24.8035 40.9255 26.0265 40.4275 26.8345C40.1176 27.3547 39.6749 27.6147 39.0993 27.6147C38.6566 27.6147 38.2637 27.4598 37.9206 27.1499C37.5886 26.84 37.4226 26.4692 37.4226 26.0376C37.4226 25.617 37.7767 24.5379 38.4851 22.8003L42.2204 13.6528C43.8695 10.0337 45.5629 7.24463 47.3005 5.28564L47.6159 4.93701L39.2819 4.771L35.5466 4.67139C34.473 4.57178 33.9362 4.04053 33.9362 3.07764C33.9362 2.61279 34.0912 2.23096 34.4011 1.93213C34.711 1.6333 35.0984 1.48389 35.5632 1.48389C36.9577 1.48389 39.0495 1.52816 41.8386 1.6167C44.6387 1.70524 46.7361 1.74951 48.1306 1.74951H51.1687C52.3418 1.74951 52.9284 2.09814 52.9284 2.79541C52.9284 3.31559 52.5964 3.99626 51.9323 4.8374ZM57.545 9.93408L65.2979 9.95068C66.2829 9.95068 66.7755 10.4432 66.7755 11.4282C66.7755 12.4132 66.2829 12.9058 65.2979 12.9058L57.5284 12.8892C57.2738 12.8892 56.892 12.9058 56.3829 12.939C55.8848 12.9611 55.5141 12.9722 55.2706 12.9722C54.8389 12.9722 54.4848 12.8283 54.2081 12.5405C53.9425 12.2528 53.8096 11.8986 53.8096 11.478C53.8096 10.6812 54.2745 10.1942 55.2042 10.0171C55.4477 9.96175 56.2279 9.93408 57.545 9.93408ZM58.4913 18.8491C59.2218 18.8491 60.3175 18.8657 61.7784 18.8989C63.2393 18.9321 64.335 18.9487 65.0655 18.9487C66.0505 18.9487 66.543 19.4412 66.543 20.4263C66.543 21.4113 66.0505 21.9038 65.0655 21.9038C64.335 21.9038 63.2393 21.8872 61.7784 21.854C60.3175 21.8208 59.2218 21.8042 58.4913 21.8042C58.1593 21.8042 57.6612 21.8263 56.9971 21.8706C56.3331 21.9149 55.8406 21.937 55.5196 21.937C54.5014 21.937 53.9923 21.4445 53.9923 20.4595C53.9923 19.5519 54.4682 19.0594 55.42 18.9819C56.6485 18.8934 57.6723 18.8491 58.4913 18.8491ZM79.8588 26.5356H76.5551L73.268 26.519C72.4933 26.519 71.9509 26.4692 71.641 26.3696C71.0766 26.1704 70.7944 25.7498 70.7944 25.1079C70.7944 23.9901 71.6632 23.4312 73.4008 23.4312L74.1977 23.4478L74.8784 23.481C74.8784 22.9497 74.8285 22.1639 74.7289 21.1235C74.6404 20.0832 74.5961 19.3029 74.5961 18.7827C74.5961 17.3771 74.7234 15.241 74.978 12.3745C75.2215 9.55224 75.3377 7.41064 75.3266 5.94971C73.8435 7.10075 72.8972 7.67627 72.4877 7.67627C72.045 7.67627 71.6576 7.51025 71.3256 7.17822C71.0047 6.84619 70.8442 6.46435 70.8442 6.03271C70.8442 5.51253 71.3201 4.88167 72.2719 4.14014C72.8696 3.71956 73.7162 3.04443 74.8119 2.11475C75.7859 1.12972 76.7156 0.637206 77.601 0.637206C78.3425 0.637206 78.7133 1.06331 78.7133 1.91553C78.7133 2.17008 78.6801 2.55192 78.6137 3.06103C78.5473 3.55908 78.5141 3.93538 78.5141 4.18994C78.5141 4.55517 78.5307 5.10856 78.5639 5.8501C78.6082 6.59163 78.6303 7.14502 78.6303 7.51025C78.6303 8.77197 78.4975 10.6535 78.2319 13.1548C77.9662 15.6561 77.8334 17.5321 77.8334 18.7827C77.8334 19.4246 77.8777 20.2049 77.9662 21.1235C78.0548 22.0422 78.1046 22.7948 78.1157 23.3813L79.8588 23.3481C80.3237 23.3481 80.7055 23.5031 81.0043 23.813C81.3142 24.1118 81.4692 24.4881 81.4692 24.9419C81.4692 25.4067 81.3142 25.7886 81.0043 26.0874C80.7055 26.3862 80.3237 26.5356 79.8588 26.5356ZM91.448 27.5649C88.3048 27.5649 85.9917 26.4028 84.5086 24.0786C84.3094 23.7576 84.2098 23.4478 84.2098 23.1489C84.2098 22.7173 84.3813 22.3465 84.7244 22.0366C85.0675 21.7157 85.4549 21.5552 85.8865 21.5552C86.3403 21.5552 86.7719 21.7987 87.1814 22.2856C87.768 22.994 88.2107 23.4478 88.5096 23.647C89.229 24.1339 90.2085 24.3774 91.448 24.3774C93.3628 24.3774 94.951 23.647 96.2127 22.186C97.4191 20.7915 98.0223 19.1147 98.0223 17.1558C98.0223 15.5399 97.7566 14.2284 97.2254 13.2212C96.5392 11.9484 95.4822 11.312 94.0545 11.312C92.8702 11.312 91.9018 11.4725 91.1492 11.7935C90.5516 12.048 89.9484 12.4852 89.3396 13.105L87.5301 15.0806C87.0431 15.5786 86.545 15.8276 86.0359 15.8276C85.5932 15.8276 85.2169 15.6727 84.907 15.3628C84.5971 15.0418 84.4422 14.66 84.4422 14.2173C84.4422 13.9959 84.5307 13.0109 84.7078 11.2622C85.0841 7.77588 85.2723 5.48486 85.2723 4.38916C85.2723 4.00179 85.1726 3.58122 84.9734 3.12744C84.7853 2.6626 84.6912 2.3195 84.6912 2.09814C84.6912 1.42301 85.2723 1.08545 86.4344 1.08545C86.6557 1.08545 86.9878 1.10758 87.4305 1.15185C87.8842 1.18506 88.2218 1.20166 88.4432 1.20166C89.0851 1.20166 90.048 1.17952 91.3318 1.13525C92.6157 1.09098 93.5786 1.06885 94.2205 1.06885C94.5193 1.06885 94.9731 1.07991 95.5818 1.10205C96.1906 1.12419 96.6443 1.13525 96.9432 1.13525C97.1534 1.13525 97.4578 1.09652 97.8562 1.01904C98.2547 0.930501 98.5535 0.88623 98.7527 0.88623C99.1844 0.88623 99.5662 1.04671 99.8982 1.36768C100.23 1.68864 100.396 2.05941 100.396 2.47998C100.396 3.71956 99.0848 4.33935 96.4617 4.33935C96.1186 4.33935 95.687 4.32829 95.1668 4.30615C94.6466 4.28402 94.3312 4.27295 94.2205 4.27295L91.4148 4.32275L88.6092 4.40576C88.6092 4.90381 88.4044 6.74658 87.9949 9.93408C89.5112 8.7277 91.531 8.12451 94.0545 8.12451C96.4894 8.12451 98.3488 9.07633 99.6326 10.98C100.717 12.5959 101.26 14.6545 101.26 17.1558C101.26 20.144 100.385 22.6066 98.6365 24.5435C96.8214 26.5578 94.4253 27.5649 91.448 27.5649Z" fill="#727E99"/>
</svg>
