<svg width="492" height="355" viewBox="0 0 492 355" fill="none" xmlns="http://www.w3.org/2000/svg">
<path fill-rule="evenodd" clip-rule="evenodd" d="M56.3601 23.9126C87.4661 23.9126 112.72 48.5907 112.72 78.9877C112.72 109.385 87.4661 134.063 56.3601 134.063C25.2542 134.063 0 109.385 0 78.9877C0 48.5907 25.2542 23.9126 56.3601 23.9126Z" fill="#F6FAFF"/>
<path fill-rule="evenodd" clip-rule="evenodd" d="M227.783 327.931C200.026 318.346 169.476 319.163 142.329 330.219C129.994 335.256 116.411 338.044 102.147 338.044C45.77 338.044 0 294.487 0 240.835C0 201.889 29.8791 168.261 67.8233 152.753C94.213 141.987 115.486 122.313 127.549 97.5178C155.675 39.8156 217.025 0 288.392 0C386.416 0 466 75.7368 466 169.022C466 262.308 386.416 338.045 288.392 338.045C267.112 338.045 246.7 334.476 227.783 327.932V327.931Z" fill="#F6FAFF"/>
<g clip-path="url(#clip0_13_521)">
<path d="M392.553 282.236C391.538 282.236 390.718 281.419 390.718 280.406V260.225C390.718 259.212 391.538 258.395 392.553 258.395C393.569 258.395 394.389 259.212 394.389 260.225V280.406C394.389 281.419 393.569 282.236 392.553 282.236Z" fill="#FFCA42"/>
<path d="M410.195 251.806C409.118 251.806 408.127 251.086 407.834 250C407.479 248.695 408.25 247.365 409.559 247.011C409.644 246.987 418.123 244.607 423.518 237.787C427.837 232.309 430.528 221.181 431.617 215.947H416.324C414.979 215.947 413.877 214.849 413.877 213.507C413.877 212.165 414.979 211.066 416.324 211.066H434.578C435.299 211.066 435.972 211.384 436.437 211.92C436.902 212.47 437.098 213.189 436.988 213.897C436.865 214.654 433.892 232.541 427.372 240.801C420.949 248.927 411.259 251.611 410.843 251.721C410.635 251.782 410.415 251.806 410.207 251.806H410.195Z" fill="#FFCA42"/>
<path d="M375.817 251.806C375.609 251.806 375.389 251.782 375.181 251.721C374.777 251.611 365.076 248.927 358.653 240.801C352.132 232.541 349.159 214.654 349.037 213.897C348.927 213.189 349.122 212.47 349.587 211.92C350.052 211.371 350.737 211.066 351.447 211.066H369.7C371.046 211.066 372.147 212.165 372.147 213.507C372.147 214.849 371.046 215.947 369.7 215.947H354.395C355.472 221.181 358.163 232.309 362.494 237.787C367.889 244.607 376.368 246.987 376.453 247.011C377.75 247.365 378.521 248.707 378.166 250C377.872 251.086 376.882 251.806 375.805 251.806H375.817Z" fill="#FFCA42"/>
<path d="M421.01 201.147V234.664C421.01 249.854 408.543 262.287 393.312 262.287H392.676C391.844 262.287 391.012 262.251 390.205 262.165C376.135 260.908 364.99 249.024 364.99 234.664V201.147C364.99 200.842 365.235 200.598 365.541 200.598H420.447C420.741 200.598 420.998 200.842 420.998 201.147H421.01Z" fill="#FFCA42"/>
<path d="M401.044 286.384H384.956C382.632 286.384 380.723 284.481 380.723 282.163C380.723 279.845 382.632 277.941 384.956 277.941H401.044C403.368 277.941 405.277 279.845 405.277 282.163C405.277 284.481 403.368 286.384 401.044 286.384Z" fill="#DB7E5D"/>
<path d="M404.555 294.291H381.445C378.105 294.291 375.365 291.558 375.365 288.227C375.365 284.896 378.105 282.163 381.445 282.163H404.555C407.895 282.163 410.635 284.896 410.635 288.227C410.635 291.558 407.895 294.291 404.555 294.291Z" fill="#B5684D"/>
<path d="M419.872 207.589H366.128C364.036 207.589 362.323 205.881 362.323 203.795C362.323 201.708 364.036 200 366.128 200H419.86C421.952 200 423.665 201.708 423.665 203.795C423.665 205.881 421.952 207.589 419.86 207.589H419.872Z" fill="#EAAF18"/>
<path d="M411.602 287.043H374.386C373.325 287.043 372.465 287.901 372.465 288.959V296.084C372.465 297.142 373.325 298 374.386 298H411.602C412.663 298 413.523 297.142 413.523 296.084V288.959C413.523 287.901 412.663 287.043 411.602 287.043Z" fill="#DB7E5D"/>
<path d="M372.71 247.182C372.171 247.182 371.645 246.95 371.278 246.487C371.07 246.218 369.235 243.717 369.088 237.97C369.015 234.81 369.088 213.202 369.088 212.287C369.088 211.274 369.908 210.457 370.924 210.457C371.939 210.457 372.759 211.286 372.759 212.287C372.759 212.506 372.685 234.761 372.759 237.86C372.869 242.363 374.178 244.229 374.19 244.242C374.777 245.047 374.606 246.194 373.811 246.792C373.48 247.036 373.089 247.158 372.697 247.158L372.71 247.182Z" fill="#FCDCB5"/>
<path d="M378.851 254.234C378.656 254.234 378.46 254.198 378.264 254.137C376.759 253.624 375.181 251.88 374.741 251.355C374.08 250.586 374.178 249.427 374.949 248.78C375.719 248.122 376.882 248.219 377.53 248.988C378.166 249.732 379.096 250.562 379.451 250.684C380.405 251.026 380.907 252.063 380.576 253.014C380.307 253.771 379.61 254.247 378.851 254.247V254.234Z" fill="#FCDCB5"/>
</g>
<g clip-path="url(#clip1_13_521)">
<path d="M404.887 120V131.228H420.096V120H404.887Z" fill="#DB7E5D"/>
<path d="M404.887 123.083V128.145H420.096V123.083H404.887Z" fill="#DDDDDD"/>
<path d="M404.89 120.003L392.003 126.813L402.732 146.903L415.619 140.093L404.89 120.003Z" fill="#FA8D8D"/>
<path d="M401.353 121.872L395.544 124.942L406.274 145.031L412.082 141.962L401.353 121.872Z" fill="#EDEDED"/>
<path d="M409.382 140.086L422.269 146.896L432.998 126.806L420.112 119.996L409.382 140.086Z" fill="#FA8D8D"/>
<path d="M412.925 141.955L418.733 145.024L429.462 124.934L423.654 121.865L412.925 141.955Z" fill="#EDEDED"/>
<path d="M412.608 164C420.649 164 427.167 157.516 427.167 149.518C427.167 141.519 420.649 135.035 412.608 135.035C404.568 135.035 398.049 141.519 398.049 149.518C398.049 157.516 404.568 164 412.608 164Z" fill="#FFCA42"/>
<g opacity="0.47">
<path d="M423.74 149.601C423.74 155.712 418.757 160.674 412.608 160.674C408.059 160.674 404.154 157.966 402.426 154.082C401.815 152.717 401.477 151.197 401.477 149.601C401.477 143.484 406.459 138.527 412.608 138.527C415.569 138.527 418.263 139.677 420.257 141.555C422.401 143.567 423.74 146.429 423.74 149.601Z" fill="#F5BD2E"/>
</g>
<path d="M423.04 149.518C423.04 155.248 418.374 159.895 412.608 159.895C408.348 159.895 404.687 157.358 403.071 153.717C402.499 152.435 402.182 151.015 402.182 149.518C402.182 143.782 406.848 139.141 412.614 139.141C415.391 139.141 417.913 140.218 419.78 141.981C421.79 143.865 423.046 146.545 423.046 149.518H423.04Z" fill="#FFC300"/>
<path d="M420.668 146.18C420.668 151.91 416.002 156.557 410.236 156.557C407.465 156.557 404.943 155.48 403.071 153.717C402.499 152.435 402.182 151.015 402.182 149.518C402.182 143.782 406.848 139.141 412.614 139.141C415.391 139.141 417.913 140.218 419.78 141.981C420.352 143.268 420.668 144.683 420.668 146.18Z" fill="#FCDCB5"/>
<path d="M405.931 139.185L406.759 140.688C406.759 140.688 406.781 140.715 406.798 140.726L408.309 141.55C408.376 141.583 408.376 141.677 408.309 141.71L406.798 142.533C406.798 142.533 406.77 142.555 406.759 142.572L405.931 144.075C405.898 144.141 405.804 144.141 405.77 144.075L404.943 142.572C404.943 142.572 404.92 142.544 404.904 142.533L403.393 141.71C403.326 141.677 403.326 141.583 403.393 141.55L404.904 140.726C404.904 140.726 404.932 140.704 404.943 140.688L405.77 139.185C405.804 139.118 405.898 139.118 405.931 139.185Z" fill="white"/>
</g>
<g clip-path="url(#clip2_13_521)">
<path d="M376.749 144.908V162.44C376.749 163.288 376.052 164.146 375.227 163.984C374.353 163.817 373.054 163.271 371.793 162.813C370.754 162.435 369.737 162.116 369.003 162.116C368.268 162.116 367.256 162.435 366.213 162.813C364.951 163.271 363.652 163.817 362.779 163.984C361.953 164.146 361.251 163.288 361.251 162.44V144.908C361.251 144.06 361.943 143.364 362.779 143.364H375.221C376.057 143.364 376.744 144.06 376.744 144.908H376.749Z" fill="#81ABDD"/>
<path d="M371.793 143.364V162.813C370.754 162.435 369.737 162.116 369.003 162.116C368.268 162.116 367.256 162.435 366.213 162.813V143.364H371.793Z" fill="#4B678A"/>
<path d="M378.895 145.226C384.361 139.684 384.361 130.698 378.895 125.156C373.429 119.614 364.566 119.614 359.1 125.156C353.633 130.698 353.633 139.684 359.1 145.226C364.566 150.768 373.429 150.768 378.895 145.226Z" fill="#FFCA42"/>
<g opacity="0.47">
<path d="M379.704 135.272C379.704 141.264 374.918 146.122 369.003 146.122C364.632 146.122 360.873 143.466 359.211 139.666C358.62 138.327 358.296 136.838 358.296 135.272C358.296 129.281 363.088 124.422 368.997 124.422C371.846 124.422 374.433 125.545 376.35 127.391C378.411 129.361 379.699 132.168 379.699 135.272H379.704Z" fill="#EAAF18"/>
</g>
<path d="M379.028 135.197C379.028 140.81 374.54 145.366 368.997 145.366C364.903 145.366 361.378 142.878 359.824 139.315C359.27 138.057 358.967 136.665 358.967 135.202C358.972 129.577 363.46 125.027 368.997 125.027C371.665 125.027 374.093 126.079 375.887 127.807C377.82 129.653 379.028 132.282 379.028 135.191V135.197Z" fill="#FFC300"/>
<path d="M376.744 131.925C376.744 137.539 372.256 142.095 366.713 142.095C364.046 142.095 361.623 141.043 359.824 139.315C359.27 138.057 358.967 136.665 358.967 135.202C358.972 129.577 363.46 125.027 368.997 125.027C371.665 125.027 374.093 126.079 375.887 127.807C376.441 129.065 376.744 130.457 376.744 131.92V131.925Z" fill="#FCDCB5"/>
<path d="M362.582 125.07L363.375 126.544C363.375 126.544 363.396 126.571 363.412 126.581L364.866 127.386C364.93 127.418 364.93 127.51 364.866 127.542L363.412 128.347C363.412 128.347 363.386 128.368 363.375 128.384L362.582 129.858C362.55 129.923 362.459 129.923 362.427 129.858L361.634 128.384C361.634 128.384 361.613 128.357 361.597 128.347L360.143 127.542C360.079 127.51 360.079 127.418 360.143 127.386L361.597 126.581C361.597 126.581 361.623 126.56 361.634 126.544L362.427 125.07C362.459 125.005 362.55 125.005 362.582 125.07Z" fill="white"/>
</g>
<g clip-path="url(#clip3_13_521)">
<path d="M95.1525 221.866V213.084H85.8475V221.866C85.8475 239.302 74.831 253.492 61.288 253.492H119.712C106.169 253.492 95.1525 239.302 95.1525 221.866Z" fill="#FFCA42"/>
<mask id="mask0_13_521" style="mask-type:luminance" maskUnits="userSpaceOnUse" x="61" y="213" width="59" height="41">
<path d="M95.1525 221.866V213.084H85.8475V221.866C85.8475 239.302 74.831 253.492 61.288 253.492H119.712C106.169 253.492 95.1525 239.302 95.1525 221.866Z" fill="white"/>
</mask>
<g mask="url(#mask0_13_521)">
<path d="M100.67 208.9H80.3339V226.47H100.67V208.9Z" fill="#EAAF18"/>
</g>
<path d="M119.712 253.488H61.288V259.425H119.712V253.488Z" fill="#EAAF18"/>
<path d="M49.3431 131.008C49.336 131.692 49.3183 132.373 49.3183 133.06C49.3183 181.692 67.7547 221.115 90.5 221.115C113.245 221.115 131.682 181.692 131.682 133.06C131.682 132.373 131.664 131.692 131.657 131.008H49.3431Z" fill="#FFCA42"/>
<path d="M139.927 149.77V158.96C139.927 178.9 123.624 195.12 103.582 195.12H77.4177C57.376 195.12 41.0727 178.9 41.0727 158.96V149.77H139.927ZM147 142.733H34V158.96C34 182.816 53.4393 202.156 77.4177 202.156H103.582C127.561 202.156 147 182.816 147 158.96V142.733Z" fill="#FFCA42"/>
<mask id="mask1_13_521" style="mask-type:luminance" maskUnits="userSpaceOnUse" x="52" y="137" width="77" height="81">
<path d="M52.9255 137.89C54.0842 181.572 70.8162 217.597 90.5 217.597C110.184 217.597 126.919 181.572 128.078 137.89H52.9255Z" fill="white"/>
</mask>
<g mask="url(#mask1_13_521)">
<path d="M65.4869 133.06C65.4869 132.373 65.4976 131.692 65.5011 131.008H49.3431C49.336 131.692 49.3183 132.373 49.3183 133.06C49.3183 181.692 67.7547 221.115 90.5 221.115C76.6842 221.115 65.4869 181.692 65.4869 133.06Z" fill="#FCDCB5"/>
</g>
<path d="M135.137 127H45.8918V135.013H135.137V127Z" fill="#FFCA42"/>
<path d="M63.4246 127H50.5549V135.013H63.4246V127Z" fill="#FCDCB5"/>
<path d="M100.741 176.601H96.1057V151.614C96.1057 151.346 95.8896 151.131 95.6203 151.131H85.3797C85.1104 151.131 84.8943 151.346 84.8943 151.614C84.8943 154.156 82.8143 156.225 80.2595 156.225C79.9902 156.225 79.774 156.44 79.774 156.708V161.802C79.774 162.07 79.9902 162.285 80.2595 162.285C81.8611 162.285 83.4167 161.918 84.8943 161.196V176.601H80.2595C79.9902 176.601 79.774 176.816 79.774 177.084V182.178C79.774 182.446 79.9902 182.661 80.2595 182.661H100.744C101.013 182.661 101.23 182.446 101.23 182.178V177.084C101.23 176.816 101.013 176.601 100.744 176.601H100.741Z" fill="#EAAF18"/>
<path d="M130.42 267.635H50.5797L57.6524 259.425H123.348L130.42 267.635Z" fill="#DB7E5D"/>
<path d="M135.137 267.635H45.867V300.671H135.137V267.635Z" fill="#B5684D"/>
<path d="M139.162 300.667H41.8381V307.997H139.162V300.667Z" fill="#DB7E5D"/>
<path d="M128.064 274.672H52.9396V293.631H128.064V274.672Z" fill="#FFCA42"/>
<path d="M55.6645 278.691C56.3886 278.691 56.9756 278.107 56.9756 277.386C56.9756 276.666 56.3886 276.082 55.6645 276.082C54.9405 276.082 54.3535 276.666 54.3535 277.386C54.3535 278.107 54.9405 278.691 55.6645 278.691Z" fill="#EAAF18"/>
<path d="M55.6645 292.224C56.3886 292.224 56.9756 291.64 56.9756 290.92C56.9756 290.199 56.3886 289.615 55.6645 289.615C54.9405 289.615 54.3535 290.199 54.3535 290.92C54.3535 291.64 54.9405 292.224 55.6645 292.224Z" fill="#EAAF18"/>
<path d="M125.332 278.691C126.056 278.691 126.643 278.107 126.643 277.386C126.643 276.666 126.056 276.082 125.332 276.082C124.608 276.082 124.021 276.666 124.021 277.386C124.021 278.107 124.608 278.691 125.332 278.691Z" fill="#EAAF18"/>
<path d="M125.332 292.224C126.056 292.224 126.643 291.64 126.643 290.92C126.643 290.199 126.056 289.615 125.332 289.615C124.608 289.615 124.021 290.199 124.021 290.92C124.021 291.64 124.608 292.224 125.332 292.224Z" fill="#EAAF18"/>
</g>
<path fill-rule="evenodd" clip-rule="evenodd" d="M151.144 310.484H8.20327C4.78041 310.484 2 307.688 2 304.242C2 300.796 4.77888 298 8.20327 298H485.797C489.22 298 492 300.796 492 304.242C492 307.688 489.221 310.484 485.797 310.484H349.63C346.207 310.484 343.427 313.28 343.427 316.726C343.427 320.172 346.206 322.968 349.63 322.968H385.537C388.96 322.968 391.741 325.764 391.741 329.21C391.741 332.656 388.962 335.452 385.537 335.452H115.237C111.814 335.452 109.033 332.656 109.033 329.21C109.033 325.764 111.812 322.968 115.237 322.968H151.144C154.567 322.968 157.347 320.172 157.347 316.726C157.347 313.28 154.568 310.484 151.144 310.484ZM204.318 343.824H289.68C292.377 343.824 294.567 346.329 294.567 349.412C294.567 352.496 292.377 355 289.68 355H204.318C201.622 355 199.432 352.496 199.432 349.412C199.432 346.329 201.622 343.824 204.318 343.824Z" fill="#DBE6F4"/>
<path fill-rule="evenodd" clip-rule="evenodd" d="M290.8 240.839H209.821C226.028 213.888 235.882 182.17 235.921 145.375H265.903C265.942 182.17 274.593 213.887 290.8 240.839H290.8Z" fill="#FFC300"/>
<path fill-rule="evenodd" clip-rule="evenodd" d="M290.8 240.839H253.395C253.395 240.839 258.807 239.182 264.231 237.521C270.38 235.639 274.04 229.338 272.63 223.065C269.632 209.728 265.006 189.148 265.006 189.148C257.564 189.105 250.47 188.354 242.326 186.404L239.033 180.827L268.756 180.385C272.526 202.722 279.978 222.842 290.799 240.837L290.8 240.839Z" fill="#FCDCB5"/>
<path fill-rule="evenodd" clip-rule="evenodd" d="M304.005 45.2098C301.689 45.2098 299.808 43.3296 299.808 41.0143C299.808 38.6991 301.689 36.8188 304.005 36.8188H305.19C310.348 36.8188 315.296 38.868 318.943 42.5147C322.591 46.1615 324.64 51.1084 324.64 56.2663V65.6691C324.64 67.8912 326.441 69.6924 328.664 69.6924C330.887 69.6924 332.688 67.8912 332.688 65.6691V49.2323C332.688 42.3763 338.246 36.8188 345.103 36.8188C351.961 36.8188 357.519 42.3763 357.519 49.2323V96.1754C357.519 103.092 353.844 109.489 347.869 112.974L311.599 134.129C309.599 135.295 307.027 134.619 305.86 132.619C304.693 130.619 305.37 128.048 307.37 126.881L343.64 105.727C347.038 103.745 349.127 100.108 349.127 96.1754V49.2323C349.127 47.0102 347.325 45.209 345.103 45.209C342.88 45.209 341.079 47.0102 341.079 49.2323V65.6691C341.079 72.5251 335.52 78.0825 328.663 78.0825C321.806 78.0825 316.248 72.5251 316.248 65.6691V56.2663C316.248 53.3339 315.082 50.521 313.008 48.4479C310.934 46.3741 308.122 45.209 305.189 45.209H304.004L304.005 45.2098Z" fill="#FFCA42"/>
<path fill-rule="evenodd" clip-rule="evenodd" d="M328.896 78.0819C328.819 78.0835 328.741 78.0843 328.664 78.0843C321.807 78.0843 316.249 72.5269 316.249 65.6709V56.2681C316.249 53.3357 315.083 50.5228 313.009 48.4497C310.935 46.3759 308.122 45.2108 305.19 45.2108H304.005C301.689 45.2108 299.808 43.3306 299.808 41.0153C299.808 38.7001 301.689 36.8198 304.005 36.8198H305.19C310.348 36.8198 315.296 38.869 318.943 42.5157C322.591 46.1625 324.64 51.1094 324.64 56.2673V65.6701C324.64 67.8922 326.441 69.6933 328.664 69.6933C328.741 69.6933 328.819 69.6909 328.896 69.6868V78.0819ZM318.728 129.971L311.599 134.129C309.599 135.295 307.027 134.619 305.86 132.619C304.693 130.62 305.37 128.048 307.37 126.881L325.167 116.501C322.606 122.457 321.562 124.76 318.727 129.971H318.728Z" fill="#EAAF18"/>
<path fill-rule="evenodd" clip-rule="evenodd" d="M200.602 45.2759C202.917 45.2759 204.798 43.3964 204.798 41.0804C204.798 38.7643 202.917 36.8849 200.602 36.8849H199.417C194.258 36.8849 189.31 38.934 185.663 42.5807C182.015 46.2283 179.966 51.1744 179.966 56.3323V65.7351C179.966 67.9573 178.165 69.7584 175.942 69.7584C173.72 69.7584 171.918 67.9573 171.918 65.7351V49.2983C171.918 42.4423 166.359 36.884 159.502 36.884C152.645 36.884 147.086 42.4423 147.086 49.2983V96.2414C147.086 103.158 150.761 109.555 156.736 113.04L193.006 134.195C195.006 135.361 197.578 134.685 198.745 132.685C199.912 130.685 199.235 128.114 197.234 126.947L160.965 105.793C157.567 103.811 155.478 100.174 155.478 96.2414V49.2983C155.478 47.0762 157.279 45.275 159.502 45.275C161.724 45.275 163.526 47.0762 163.526 49.2983V65.7351C163.526 72.5911 169.084 78.1494 175.941 78.1494C182.798 78.1494 188.357 72.5911 188.357 65.7351V56.3323C188.357 53.3999 189.522 50.587 191.596 48.5139C193.67 46.4401 196.483 45.275 199.416 45.275H200.601L200.602 45.2759Z" fill="#FFCA42"/>
<path fill-rule="evenodd" clip-rule="evenodd" d="M323.679 49.5701V95.0861C323.679 121.945 308.502 146.497 284.475 158.51L252.977 174.524L220.407 158.51C196.381 146.498 181.203 121.945 181.203 95.0861V49.5701H323.678H323.679Z" fill="#FFCA42"/>
<path fill-rule="evenodd" clip-rule="evenodd" d="M334.3 24.0016C335.885 24.0016 337.359 24.8223 338.193 26.1703C339.028 27.5182 339.104 29.2024 338.396 30.6212C335.722 35.9834 332.099 43.2472 330.21 47.0349C329.435 48.588 327.849 49.5693 326.113 49.5693H177.801C176.007 49.5693 174.38 48.5229 173.636 46.8923C171.874 43.033 168.567 35.7881 166.142 30.4786C165.495 29.0615 165.613 27.4128 166.456 26.1027C167.299 24.7926 168.75 24 170.307 24H334.3V24.0016Z" fill="#FFCA42"/>
<path fill-rule="evenodd" clip-rule="evenodd" d="M209.311 24.0015H226.013L200.844 49.5699H181.204L209.311 24.0015Z" fill="#FCDCB5"/>
<path fill-rule="evenodd" clip-rule="evenodd" d="M275.131 157.842V180.829H231.659V157.842H275.131Z" fill="#FFCA42"/>
<path fill-rule="evenodd" clip-rule="evenodd" d="M253.395 163.419C275.576 163.419 293.582 168.569 293.582 174.912C293.582 181.256 275.575 186.405 253.395 186.405C231.215 186.405 213.207 181.256 213.207 174.912C213.207 168.569 231.215 163.419 253.395 163.419Z" fill="#FFCA42"/>
<path fill-rule="evenodd" clip-rule="evenodd" d="M253.395 172.764C275.576 172.764 293.582 173.726 293.582 174.912C293.582 176.097 275.575 177.06 253.395 177.06C231.215 177.06 213.207 176.097 213.207 174.912C213.207 173.726 231.215 172.764 253.395 172.764Z" fill="#FCDCB5"/>
<path fill-rule="evenodd" clip-rule="evenodd" d="M304.977 240.839C307.373 240.839 309.315 242.781 309.315 245.177V281.914H191.306V245.177C191.306 242.781 193.248 240.839 195.645 240.839H304.977Z" fill="#FCDCB5"/>
<mask id="mask2_13_521" style="mask-type:luminance" maskUnits="userSpaceOnUse" x="191" y="240" width="119" height="42">
<path d="M304.977 240.839C307.373 240.839 309.315 242.781 309.315 245.177V281.914H191.306V245.177C191.306 242.781 193.248 240.839 195.645 240.839H304.977Z" fill="white"/>
</mask>
<g mask="url(#mask2_13_521)">
<path fill-rule="evenodd" clip-rule="evenodd" d="M302.833 226.619C305.88 267.739 309.685 277.871 279.164 277.123C275.74 277.039 191.306 276.903 191.306 276.903C191.306 276.903 188.967 281.376 190.148 284.756C196.613 303.269 252.981 296.899 284.117 293.568C330.259 288.633 325.585 274.601 321.002 253.324C320.901 252.853 320.934 252.882 320.074 247.364" fill="#FCC583"/>
</g>
<path fill-rule="evenodd" clip-rule="evenodd" d="M291.207 246.405V276.349H209.415V246.405H291.207Z" fill="#EBEBEB"/>
<path fill-rule="evenodd" clip-rule="evenodd" d="M322.534 281.914C325.636 281.914 328.151 284.429 328.151 287.531V292.799C328.151 295.901 325.636 298.415 322.534 298.415H178.087C174.985 298.415 172.47 295.901 172.47 292.799V287.531C172.47 284.429 174.985 281.914 178.087 281.914H322.534Z" fill="#DB7E5D"/>
<mask id="mask3_13_521" style="mask-type:luminance" maskUnits="userSpaceOnUse" x="172" y="281" width="157" height="18">
<path d="M322.534 281.914C325.636 281.914 328.151 284.429 328.151 287.531V292.799C328.151 295.901 325.636 298.415 322.534 298.415H178.087C174.985 298.415 172.47 295.901 172.47 292.799V287.531C172.47 284.429 174.985 281.914 178.087 281.914H322.534Z" fill="white"/>
</mask>
<g mask="url(#mask3_13_521)">
<path fill-rule="evenodd" clip-rule="evenodd" d="M335.85 295.096V309.759H164.772V295.096H335.85Z" fill="#B5684D"/>
<path fill-rule="evenodd" clip-rule="evenodd" d="M335.85 284.965V277.018H164.772V284.965H335.85Z" fill="#FCC583"/>
</g>
<path fill-rule="evenodd" clip-rule="evenodd" d="M324.546 54.354H180.067C180.235 52.7111 180.611 51.1044 181.181 49.571H323.68V50.2294C324.115 51.5625 324.408 52.9451 324.547 54.354H324.546Z" fill="#EAAF18"/>
<path fill-rule="evenodd" clip-rule="evenodd" d="M192.609 105.251V75.1172H226.013C217.924 106.908 224.847 133.753 240.334 157.736L240.127 157.842L218.564 147.239C202.657 139.287 192.609 123.032 192.609 105.25V105.251Z" fill="#FCDCB5"/>
<path fill-rule="evenodd" clip-rule="evenodd" d="M226.013 59.2825V72.056H192.609V59.2825H226.013Z" fill="#FCDCB5"/>
<path fill-rule="evenodd" clip-rule="evenodd" d="M231.659 24.0015L209.31 49.5699H252.441L268.756 24.0015H231.659Z" fill="#FCDCB5"/>
<path fill-rule="evenodd" clip-rule="evenodd" d="M232.894 235.694H215.977C223.669 222.902 229.513 208.726 232.894 193.106L247.341 193.527C244.832 208.63 240.074 222.711 232.894 235.694Z" fill="#FCDCB5"/>
<path fill-rule="evenodd" clip-rule="evenodd" d="M175.042 245.983C173.622 245.983 172.47 244.831 172.47 243.411C172.47 241.99 173.622 240.839 175.042 240.839H325.58C327 240.839 328.152 241.99 328.152 243.411C328.152 244.831 327 245.983 325.58 245.983H175.042Z" fill="#DB7E5D"/>
<mask id="mask4_13_521" style="mask-type:luminance" maskUnits="userSpaceOnUse" x="172" y="240" width="157" height="6">
<path d="M175.042 245.983C173.622 245.983 172.47 244.831 172.47 243.411C172.47 241.99 173.622 240.839 175.042 240.839H325.58C327 240.839 328.152 241.99 328.152 243.411C328.152 244.831 327 245.983 325.58 245.983H175.042Z" fill="white"/>
</mask>
<g mask="url(#mask4_13_521)">
<path fill-rule="evenodd" clip-rule="evenodd" d="M343.785 244.948V249.519H156.837V244.948H343.785Z" fill="#B5684D"/>
<path fill-rule="evenodd" clip-rule="evenodd" d="M343.785 241.789V239.312H156.837V241.789H343.785Z" fill="#FCC583"/>
</g>
<defs>
<clipPath id="clip0_13_521">
<rect width="88" height="98" fill="white" transform="translate(349 200)"/>
</clipPath>
<clipPath id="clip1_13_521">
<rect width="41" height="44" fill="white" transform="translate(392 120)"/>
</clipPath>
<clipPath id="clip2_13_521">
<rect width="28" height="43" fill="white" transform="translate(355 121)"/>
</clipPath>
<clipPath id="clip3_13_521">
<rect width="113" height="181" fill="white" transform="translate(34 127)"/>
</clipPath>
</defs>
</svg>
