<svg width="315" height="194" fill="none" xmlns="http://www.w3.org/2000/svg"><g clip-path="url(#a)"><path d="m315 119.424-.803-.886-1.767.886L127.692 12.165c-2.329-1.342-6.398-1.181-9.075.376L2.222 80.028c-.16.08-.268.188-.402.268L0 80.081v2.847h.027c-.027.886.455 1.719 1.526 2.336l185.755 107.823c2.329 1.343 6.398 1.182 9.075-.376l116.395-67.46c1.472-.859 2.195-1.96 2.195-3.007l.027-.027v-2.793Z" fill="#6C99D0"/><path d="m90.803 139.672 8.085 4.673c1.392.806 2.516-.054 2.516-1.907s-1.124-4.028-2.516-4.833l-8.085-4.673c-1.392-.806-2.516.054-2.516 1.907 0 1.852 1.124 4.028 2.516 4.833Z" fill="#6C99D0"/><path d="M187.308 190.24 1.553 82.418c-2.33-1.343-2.035-3.706.642-5.264l116.422-67.46c2.677-1.557 6.773-1.718 9.075-.375l185.756 107.795c2.329 1.343 2.034 3.706-.643 5.264l-116.422 67.459c-2.677 1.558-6.746 1.746-9.075.403Z" fill="#62B3E6"/><path d="m91.446 136.906 7.255 4.19c1.258.725 2.275-.054 2.275-1.719s-1.017-3.625-2.275-4.35l-7.255-4.19c-1.258-.725-2.275.054-2.275 1.719.027 1.665 1.044 3.625 2.275 4.35Z" fill="#62B3E6"/><path d="M92.089 130.998 2.678 79.222 122.205 9.99l89.411 51.776-119.527 69.232Z" fill="#9DA7CB"/><path d="M92.089 131.025 2.678 79.249l4.444-10.017 204.467-7.439-113.691 65.714c-3.801-1.584-6.157 1.101-5.81 3.518Z" fill="#B0B9DF"/><path d="m191.03 188.333-89.384-51.776 205.324-33.031 3.587 15.575-119.527 69.232Z" fill="#DBDEEA"/><path d="M199.943 177.726c6.372-4.216 12.984-8.003 19.623-11.816l19.863-11.387c13.224-7.6 26.475-15.2 39.78-22.665h.026v.027c-13.117 7.814-26.287 15.522-39.458 23.202l-19.756 11.548c-6.586 3.867-13.171 7.707-19.997 11.145-.027 0-.027 0-.054-.027-.027 0-.027 0-.027-.027ZM222.698 158.417c6.371-4.216 12.984-8.002 19.622-11.789l19.864-11.387c13.224-7.599 26.475-15.199 39.78-22.665h.026v.027c-13.117 7.815-26.288 15.522-39.458 23.202l-19.756 11.548c-6.586 3.867-13.171 7.707-19.997 11.145-.027 0-.027 0-.054-.027-.054-.027-.054-.027-.027-.054Z" fill="#D0D3E0"/><path d="m187.443 172.758 3.587 15.576-89.384-51.777s1.82-4.484-3.748-9.05c-3.614-2.954 7.495-7.251 7.495-7.251l76.321 44.875 5.729 7.627Z" fill="#B0B9DF"/><path d="M211.267 52.448v3.357l-2.891-1.988.776-2.39 2.115 1.02Z" fill="#FFCA42"/><path d="M97.897 127.507 7.147 69.232 126.675 0l90.749 58.302-119.527 69.205Z" fill="#EAECF7"/><path d="M73.992 43.048 46.686 58.84l67.969 43.666 27.305-15.817-67.968-43.64ZM119.42 21.887l-20.773 12.03 51.719 33.22 20.773-12.03-51.719-33.22Z" fill="#E1E3F1"/><path opacity=".19" d="m120.036 106.856 90.669-52.528c.723-.403.75-1.45.054-1.88l-2.865-1.853a3.495 3.495 0 0 0-3.614-.08l-90.401 52.366 6.157 3.975Z" fill="#90ACD5"/><path d="M97.897 118.887c-.053 0-.107-.027-.16-.054L19.489 69.42c-.134-.08-.188-.296-.108-.43a.335.335 0 0 1 .429-.107l78.248 49.413c.134.08.187.295.107.43a.295.295 0 0 1-.268.161ZM103.519 115.745c-.054 0-.107-.027-.161-.054L25.003 66.197a.338.338 0 0 1-.107-.43.335.335 0 0 1 .428-.107l78.329 49.521c.134.08.187.295.107.429a.281.281 0 0 1-.241.135ZM109.114 112.603a.375.375 0 0 1-.161-.054L30.544 62.948a.338.338 0 0 1-.107-.43.335.335 0 0 1 .428-.107l78.409 49.601a.337.337 0 0 1 .107.43.293.293 0 0 1-.267.161ZM114.736 109.461c-.054 0-.107-.027-.161-.054L36.086 59.725c-.134-.08-.187-.268-.107-.43.08-.134.268-.187.428-.107l78.489 49.682c.134.08.188.268.108.43a.296.296 0 0 1-.268.161ZM113.825 62.491c-.16 0-.348-.053-.508-.134l-38.79-24.706a.95.95 0 0 1-.294-1.29.943.943 0 0 1 1.285-.295l38.789 24.707a.95.95 0 0 1 .295 1.289c-.161.295-.482.43-.777.43ZM159.655 84.378c-.054 0-.107-.027-.161-.054L80.416 33.891c-.134-.08-.187-.295-.107-.43.08-.134.268-.188.428-.107l79.078 50.433c.134.08.188.296.108.43-.081.107-.161.161-.268.161ZM165.25 81.236a.377.377 0 0 1-.16-.054L85.958 30.668c-.134-.08-.187-.295-.107-.43.08-.134.268-.188.428-.107l79.159 50.541c.134.08.187.296.107.43a.43.43 0 0 1-.295.134ZM193.331 65.553a.377.377 0 0 1-.16-.054l-79.507-50.97c-.134-.081-.187-.296-.107-.43.107-.134.295-.188.429-.107l79.506 50.97c.134.08.187.295.107.43-.08.107-.161.16-.268.16ZM198.954 62.41a.376.376 0 0 1-.161-.053l-79.587-51.051c-.134-.08-.187-.295-.107-.43.107-.134.295-.188.429-.107l79.586 51.078c.134.08.188.295.107.43-.08.08-.187.134-.267.134ZM168.194 36.523c-.16 0-.348-.054-.508-.135L124.399 8.594a.92.92 0 0 1-.268-1.29.913.913 0 0 1 1.285-.268l43.287 27.795a.92.92 0 0 1 .268 1.289c-.188.242-.482.403-.777.403Z" fill="#D2D8E7"/><path d="m120.036 105.97 90.696-52.529c.722-.403.749-1.45.053-1.88l-2.864-1.853a3.495 3.495 0 0 0-3.614-.08l-90.402 52.367 6.131 3.975Z" fill="#FFCA42"/><path d="m187.442 172.758-89.545-45.251 119.528-69.205 89.544 45.224-119.527 69.232Z" fill="#EAECF7"/><path d="m174.191 89.32-26.208 15.173 78.034 39.423 26.208-15.173-78.034-39.423ZM189.798 165.856c-.053 0-.08 0-.134-.027l-81.139-39.262c-.16-.08-.214-.268-.134-.403.081-.161.268-.214.402-.134l81.139 39.262c.161.081.214.269.134.403-.027.08-.134.161-.268.161ZM195.287 162.633c-.054 0-.081 0-.134-.026l-81.139-39.262c-.161-.081-.215-.269-.134-.403.08-.161.267-.215.401-.134l81.139 39.235c.161.08.215.268.134.402-.026.108-.134.188-.267.188ZM200.774 159.411c-.054 0-.08 0-.134-.027l-81.139-39.262c-.161-.081-.214-.269-.134-.403.08-.161.268-.215.402-.134l81.139 39.262c.16.08.214.268.134.403-.054.08-.161.161-.268.161ZM206.262 156.188c-.053 0-.08 0-.134-.027L124.989 116.9c-.161-.081-.214-.269-.134-.403.081-.161.268-.215.402-.135l81.139 39.236c.161.08.214.268.134.402-.054.108-.161.188-.268.188ZM211.75 152.939c-.054 0-.08 0-.134-.027l-81.166-39.235c-.161-.081-.214-.269-.134-.403.081-.161.268-.215.402-.134l81.139 39.262c.161.08.214.268.134.403-.027.08-.134.134-.241.134ZM217.237 149.716c-.053 0-.08 0-.134-.027l-81.166-39.262c-.16-.08-.214-.268-.134-.402.081-.162.268-.215.402-.135l81.166 39.235c.161.081.214.269.134.403a.28.28 0 0 1-.268.188ZM222.699 146.494c-.054 0-.081 0-.134-.027l-81.139-39.262c-.161-.081-.215-.269-.134-.403.08-.161.267-.215.401-.134l81.14 39.262c.16.08.214.268.133.403-.026.107-.133.161-.267.161ZM255.598 127.158c-.053 0-.08 0-.134-.027l-81.139-39.262c-.161-.08-.214-.268-.134-.403.081-.16.268-.214.402-.134l81.139 39.262c.161.081.214.269.134.403-.027.107-.134.161-.268.161ZM261.086 123.935c-.053 0-.08 0-.133-.026l-81.14-39.262c-.16-.08-.214-.269-.134-.403.081-.161.268-.215.402-.135l81.139 39.262c.161.081.214.269.134.403-.027.108-.134.161-.268.161ZM266.574 120.713c-.054 0-.081 0-.134-.027l-81.139-39.262c-.161-.08-.215-.268-.134-.403.08-.16.267-.215.401-.134l81.14 39.262c.16.081.214.269.133.403a.293.293 0 0 1-.267.161ZM272.062 117.49c-.054 0-.08 0-.134-.027l-81.139-39.261c-.161-.081-.214-.269-.134-.403.08-.161.268-.215.402-.135l81.139 39.262c.16.081.214.269.134.403-.054.081-.161.161-.268.161ZM277.55 114.268c-.054 0-.081 0-.134-.027L196.25 74.979c-.161-.08-.214-.269-.134-.403.08-.161.268-.215.402-.134l81.139 39.262c.16.08.214.268.134.403-.027.08-.134.161-.241.161ZM283.037 111.045c-.054 0-.08 0-.134-.027l-81.166-39.262c-.16-.08-.214-.268-.134-.403.081-.16.268-.214.402-.134l81.139 39.262c.161.081.214.269.134.403-.027.08-.134.161-.241.161ZM288.498 107.823c-.053 0-.08 0-.133-.027l-81.14-39.262c-.16-.08-.214-.269-.133-.403.08-.161.267-.215.401-.134l81.139 39.262c.161.08.214.268.134.402-.027.081-.134.162-.268.162ZM293.987 104.6c-.054 0-.081 0-.134-.027l-81.139-39.262c-.161-.08-.214-.268-.134-.403.08-.16.268-.215.401-.134l81.14 39.262c.16.081.214.269.133.403-.026.08-.133.161-.267.161Z" fill="#D2D8E7"/><path opacity=".27" d="m177.35 167.655 119.527-69.232-79.452-40.121-119.528 69.205 79.453 40.148Z" fill="#90ACD5"/><path d="M217.425 58.302 97.897 127.507a133.253 133.253 0 0 1 76.482 18.262l12.903 7.626 119.527-69.232-12.903-7.626a133.441 133.441 0 0 0-76.481-18.235Z" fill="#E1E3F1"/><path d="M281.912 79.813c-.16 0-.321-.054-.481-.134-20.238-11.95-43.314-17.456-66.711-15.925-.562.026-.963-.35-.99-.86-.027-.51.348-.967.856-.993 23.799-1.558 47.222 4.055 67.782 16.193.428.269.589.833.321 1.262-.134.296-.455.457-.777.457Z" fill="#D2D8E7"/><path d="M287.748 89.078c-.053 0-.107 0-.16-.054l-11.351-6.714c-20.345-12.004-43.527-17.536-67.085-16.005-.16.027-.321-.108-.321-.296 0-.16.107-.322.295-.322 23.664-1.557 46.98 4.029 67.433 16.086l11.35 6.714c.134.08.187.269.107.43a.294.294 0 0 1-.268.16Z" fill="#D2D8E7"/><path d="M282.234 92.273c-.054 0-.107 0-.161-.053l-11.35-6.714c-20.345-12.004-43.528-17.536-67.085-16.005-.134.053-.322-.108-.322-.296 0-.161.107-.322.295-.322 23.638-1.558 46.981 4.028 67.433 16.086l11.35 6.714c.134.08.188.268.107.43-.053.08-.16.16-.267.16Z" fill="#D2D8E7"/><path d="M276.745 95.442c-.053 0-.107 0-.16-.053l-11.351-6.714c-20.345-12.004-43.527-17.536-67.085-16.006-.133.027-.321-.107-.321-.295 0-.161.107-.322.295-.322 23.664-1.558 46.981 4.028 67.433 16.086l11.35 6.714c.134.08.187.268.107.43-.08.107-.16.16-.268.16Z" fill="#D2D8E7"/><path d="M271.231 98.611c-.054 0-.107 0-.161-.053l-11.35-6.714c-20.318-12.004-43.528-17.536-67.085-16.006-.134.054-.322-.107-.322-.295 0-.161.108-.322.295-.322 23.691-1.558 46.981 4.028 67.433 16.086l11.35 6.713c.134.081.188.27.107.43-.08.108-.16.161-.267.161Z" fill="#D2D8E7"/><path d="M265.717 101.78c-.053 0-.107 0-.16-.053l-11.351-6.714c-20.345-12.004-43.528-17.536-67.085-16.006-.134.027-.321-.107-.321-.295 0-.161.107-.322.294-.322 23.665-1.558 46.981 4.028 67.433 16.086l11.351 6.713c.134.081.187.269.107.43-.08.108-.161.161-.268.161ZM232.308 108.413c-.161 0-.321-.053-.482-.134-20.238-11.95-43.313-17.456-66.71-15.925-.562.027-.964-.35-.991-.86-.026-.51.348-.966.857-.993 23.798-1.53 47.249 4.055 67.781 16.194.428.268.589.832.321 1.262-.134.268-.455.456-.776.456Z" fill="#D2D8E7"/><path d="M238.144 117.651a.378.378 0 0 1-.161-.053l-11.35-6.714c-20.318-12.004-43.528-17.536-67.085-16.006-.134.027-.321-.107-.321-.295 0-.161.107-.322.294-.322 23.691-1.558 46.981 4.028 67.433 16.086l11.351 6.714c.133.08.187.268.107.429a.294.294 0 0 1-.268.161Z" fill="#D2D8E7"/><path d="M232.63 120.847c-.054 0-.107 0-.161-.053l-11.35-6.714c-20.319-12.004-43.528-17.536-67.085-16.006h-.027c-.161 0-.295-.134-.321-.295 0-.161.107-.322.294-.322 23.691-1.531 46.981 4.028 67.433 16.086l11.35 6.713c.134.081.188.269.108.43-.027.108-.134.161-.241.161Z" fill="#D2D8E7"/><path d="M227.115 124.016c-.054 0-.108 0-.161-.054l-11.35-6.713c-20.345-12.004-43.528-17.537-67.085-16.006-.134.027-.322-.107-.322-.295 0-.161.107-.323.295-.323 23.664-1.557 46.981 4.029 67.433 16.087l11.35 6.713c.134.081.188.269.107.43a.293.293 0 0 1-.267.161Z" fill="#D2D8E7"/><path d="M221.627 127.185c-.053 0-.107 0-.16-.054l-11.351-6.714c-20.318-12.004-43.527-17.536-67.085-16.005-.16.054-.321-.108-.321-.296 0-.161.107-.322.294-.322 23.692-1.557 46.981 4.028 67.434 16.086l11.35 6.714c.134.081.187.269.107.43-.08.107-.161.161-.268.161Z" fill="#D2D8E7"/><path d="M216.113 130.354c-.054 0-.107 0-.161-.054l-11.35-6.714c-20.319-12.004-43.528-17.536-67.085-16.005-.161.027-.322-.108-.322-.296 0-.161.107-.322.295-.322 23.664-1.557 46.981 4.028 67.433 16.086l11.35 6.714c.134.081.188.268.107.43-.08.107-.16.161-.267.161Z" fill="#D2D8E7"/><path d="M210.598 133.55c-.054 0-.107 0-.161-.054l-11.35-6.714c-20.318-12.004-43.528-17.536-67.085-16.005-.161.053-.321-.108-.321-.296 0-.161.107-.322.294-.322 23.665-1.558 46.981 4.028 67.433 16.086l11.351 6.714c.133.08.187.268.107.429-.054.081-.161.162-.268.162Z" fill="#D2D8E7"/><path d="M205.083 136.719c-.053 0-.107-.001-.16-.054l-11.351-6.714c-20.318-12.004-43.527-17.536-67.085-16.005-.16.026-.321-.108-.321-.296 0-.161.107-.322.294-.322 23.692-1.558 46.981 4.028 67.434 16.086l11.35 6.714c.134.08.187.268.107.429a.295.295 0 0 1-.268.162Z" fill="#D2D8E7"/><path d="M199.569 139.887c-.054 0-.107 0-.161-.054l-11.35-6.713c-20.345-12.004-43.528-17.537-67.085-16.006-.161.054-.322-.107-.322-.295 0-.161.107-.322.295-.322 23.664-1.558 46.981 4.028 67.433 16.086l11.35 6.713c.134.081.188.269.107.43a.293.293 0 0 1-.267.161Z" fill="#D2D8E7"/><path d="M194.054 143.056c-.054 0-.107 0-.161-.054l-11.35-6.713c-20.319-11.978-43.501-17.51-67.059-15.979-.16.027-.321-.107-.321-.295 0-.162.107-.323.295-.323 23.664-1.557 46.981 4.029 67.433 16.086l11.35 6.714c.134.081.187.269.107.43a.43.43 0 0 1-.294.134Z" fill="#D2D8E7"/><path d="M188.539 146.225c-.053 0-.107 0-.16-.054l-11.351-6.713c-20.318-12.005-43.527-17.537-67.085-16.006-.16.054-.321-.107-.321-.295 0-.161.107-.323.295-.323 23.664-1.557 46.981 4.029 67.433 16.087l11.35 6.713c.134.081.187.269.107.43a.295.295 0 0 1-.268.161Z" fill="#D2D8E7"/></g><defs><clipPath id="a"><path fill="#fff" d="M0 0h315v194H0z"/></clipPath></defs></svg>