<svg width="181" height="33" fill="none" xmlns="http://www.w3.org/2000/svg"><path opacity=".75" d="M180.846 23.923c-.447-.094-.626-.281-1.163-.281-.626-.094-1.073-.282-1.342-.563-.268-.188-.716-.282-.447-.657.358-.375.626-.938.268-.938s-1.163-.188-1.61-.375c-.447-.094-.805-.282-1.163-.47-.447-.187-.895-.468-.716-.844.179-.375-.358-.656-.715-.75-.358-.094-4.742-.938-6.084-1.22-1.342-.281-3.221-.563-5.01-1.22-1.879-.656-3.578-1.313-4.562-3.377-.985-2.064-1.163-3.283-1.611-3.94-.447-.657-.894-2.158-1.61-2.533-.716-.47-.716-.845-1.253-.75-.536.093-.984.375-1.431.562-.537.188-1.7.75-2.147.938-.447.282-.537.563-1.163.563s-2.684 1.314-3.4 1.783c-.715.469-3.041 2.064-3.668 2.345-.536.282-1.342 1.126-1.968 1.314-.626.281-1.163.75-2.057 1.032-.895.375-3.668 2.063-5.01 2.626-1.342.563-4.295 1.595-5.458 1.408-1.163-.188-2.326-2.627-2.773-3.847-.447-1.22-2.415-5.816-3.847-6.567-1.521-.844-2.326-.657-2.952-.469-.626.188-1.61.844-1.879.938-.268.094-1.879.844-2.594 1.126-.716.281-1.968.657-2.774 1.032-.805.375-1.699.657-1.968.657-.179 0-1.073-.563-1.521-.282-.536.282-1.52.657-1.878.845-.358.281-.984.469-1.074.656 0 .188.269.282.537.188.268-.094.537-.282.984-.47.447-.093 1.252-.374 1.074-.28-.179.093-1.074.75-1.521.938-.448.187-.358.375-1.253.562-.894.282-1.431.094-1.163-.093.269-.188.626-.47.358-.563-.268-.094-.447 0-.805.281-.358.282-.626.282-1.432.47-.805.187-1.073.374-1.52.75-.448.375-1.342.375-1.61.469-.18.094-.895.281-1.343.281-.447 0-.715-.375-1.61 0-.984.376-3.131 1.032-3.847 1.126-.805.094-1.61-.281-2.057-.75-.448-.376-4.116-7.881-4.832-8.725-.805-.845-3.22-3.753-3.846-3.94-.537-.188-2.326-.282-3.579.187-1.252.469-4.384 1.501-5.994 2.533-1.431 1.313-9.215 6.567-12.704 8.631-3.489 2.064-6.083 3.565-6.799 3.847-.805.281-1.163.281-1.61.469-.447.187-.805-.094-.358-.282.447-.187 2.147-1.126 2.863-1.407.716-.375 2.058-1.313 2.773-1.595.716-.281.358-.375-.447 0-.805.375-1.879.657-2.684 1.126-.805.469-2.236.938-2.684 1.313-.537.376-2.594 1.126-4.92 1.408-2.326.187-5.01-.563-5.458-.845-.357-.281-1.252-1.032-1.252-1.032s-.537-3.659-1.163-4.784c-.626-1.22-5.1-7.975-6.083-9.288C29.207 1.876 27.418 0 25.45 0c-1.969 0-5.637 2.158-7.963 3.659C15.161 5.254 5.857 13.79 4.068 15.574 1.653 18.013-.316 19.7.042 21.578c.269 1.876 2.505 6.473 3.758 8.068 1.252 1.595 1.7 2.815 3.757 1.032 2.058-1.783 8.41-9.945 13.151-13.51 4.742-3.565 9.573-6.66 10.646-3.846 1.163 2.815 5.278 11.352 7.425 14.73 2.148 3.377 9.752 5.91 17.267 2.25 7.515-3.658 17.087-10.6 20.308-12.383 3.31-1.782 6.262-1.782 6.799-1.595.626.188 4.205 9.476 4.83 11.164.627 1.595 5.548 5.348 11.363 2.721 3.489-1.501 10.646-5.254 16.371-7.13 3.847-1.314 7.068-1.501 7.605-.47 1.342 2.628 1.968 8.163 4.204 9.476 2.237 1.314 4.026 1.032 5.905.282 1.968-.75 2.863-1.22 3.668-2.064.716-.845 3.221-2.815 4.384-3.096 1.163-.282 6.709-3.847 8.051-4.316 1.342-.469 3.847-2.064 3.847-2.064s.984-.469 1.253-.563c.178-.093.715-.187.894-.093.179.093.179.469 0 .469s-8.946 4.972-9.93 5.535c-.895.563-3.758 2.251-4.384 2.533-.537.188-1.7.938-2.326 1.22-.626.281-.537.75-.089.562.447-.187 5.546-2.72 6.709-3.377 1.163-.657 4.652-2.908 5.547-3.471.895-.563 1.431-.75 2.237-1.032.805-.282 1.699-.845 1.789-.845.089-.093.716-.469.895-.469.089 0 .357.657.357.845 0 .187 2.505 5.066 3.847 6.192 1.432 1.125 2.863 1.782 3.668 2.251.895.47 1.074.563 1.789.47.716-.095.895-.188 1.074-.376.179-.188.089-.281.537-.094.447.188 1.61.657 3.131.845 1.521.187 2.505.187 3.131.187.626-.094 1.253-.094.984-.094-.268-.093-1.789 0-2.952-.375s-1.879-.188-2.773-.563c-.895-.375-.716-.657 0-.75.805 0 2.952.563 4.025.75 1.164.188 2.595.094 3.49.188.805.094 1.52.094 1.61 0 .179-.188.179-.282.537-.282.447 0 .715-.093 1.163-.093.447-.094.894-.282.089-.376-.895-.094-2.058-.375-2.505-.469a9.467 9.467 0 0 1-1.521-.469c-.447-.188-.805-.375-.894-.469-.179-.094.358-.469 1.073-.469.716 0 1.7.188 2.326.188.626 0 2.326.281 2.237 0-.09-.282-.626-.282-1.074-.47-.358-.093-.626-.28-.984-.375-.358-.093-.805-.469-.626-.563.179-.093.626-.187.447-.375-.089-.188-.537-.844-.089-1.032.447-.188.715-.563 1.073-.563s.805-.281 1.074-.281c.447-.375 1.073-.563.626-.75ZM21.871 2.252c-.268.375-.895 1.032-1.61 1.5-.716.47-4.652 3.66-5.547 4.035-.984.469-3.31 2.908-3.847 3.471-.626.47-2.057 1.689-2.952 2.533a22.77 22.77 0 0 1-2.147 1.595c.179-.094 4.026-4.597 8.051-7.693 3.937-3.096 5.1-3.847 5.994-4.503.985-.563 1.074-.657 1.61-.938.448-.282.717-.376.448 0Zm45.984 19.044c-.18.188-.626.376-.984.563-.269.188-.626.188-.895.47-.179.28-.537.28-.537.093 0-.188 0-.657.358-.75a4.752 4.752 0 0 0 1.074-.376c.179-.093.447-.375.626-.375.268-.094.626.094.358.375Zm4.026-2.627c-.358.188-1.074.845-1.342.939-.269.093-.537.281-.805.656-.269.376-.537.376-.716.47-.269.093-.358-.376-.09-.563.269-.094.716-.751.984-.939.269-.187.448-.281.985-.563.626-.375.715-.562 1.073-.469.358.188.269.188-.09.47Zm4.025-13.228c-1.163.376-2.147.845-5.457 2.721-3.4 1.876-8.051 5.254-8.856 5.629-.716.281-.716-.375-.358-.563.358-.188.358-.281 1.61-1.126 1.163-.844 4.026-2.533 5.904-3.846 1.88-1.314 5.19-2.627 6.173-2.908.984-.282 2.237-.188 2.237-.188s-.09-.094-1.253.281Zm30.955 8.35c.805-.375 2.415-1.032 3.131-1.22.715-.187-.537.47-.895.657-.447.188-.716.47-.984.75-.268.282-1.252.47-1.61.47-.448.094-.179-.282.358-.657Zm-2.774 11.915c.358-.094 1.253-.47 1.432-.563.268-.094 1.789-.563 2.236-.75.537-.188.805-.564 1.253-.751.447-.188.626-.188 1.431-.563.716-.375 1.163-.563 1.521-.657.268-.094 1.789-.938 2.147-.938.358 0 1.163-.188 1.342-.281.179-.094.537-.094.447 0-.089.187-.447.656-.715.75-.269.094-1.432.47-1.79.657-.447.094-1.431.375-2.147.657-.715.281-1.789.938-2.415 1.22-.627.187-1.342.374-1.968.75-.627.281-.627.281-1.432.656a12.49 12.49 0 0 0-1.252.657c-.358.188-.716.188-.716-.094-.179-.281.268-.75.626-.75Zm5.1-.375c-3.4 1.688-5.189 2.439-6.621 3.002-1.431.563-1.968.469-1.968.469s1.789-.845 2.595-1.126c.805-.281 5.994-2.815 8.499-3.847 2.057-.938 1.878-.75 3.22-1.22 1.074-.375 1.253 0 1.253 0s-3.579 1.033-6.978 2.721Zm43.657-18.013c-.089.469 0 .469-.536.938-.627.375-1.253 1.126-.895.938.358-.188.268.375-.179.75-.447.376-.805.376-1.61.751s-1.163.75-2.237.938c-.984.188-2.058.938-3.221 1.595-1.163.75-3.131 1.877-4.294 2.533-1.163.657-1.789.282-2.236.75-.448.47-.627.282-1.253.376-.626.094-.447-.375-.447-.375a7.325 7.325 0 0 1 1.431-.845c.358-.281 1.79-.75 2.326-.938.537-.281 1.432-.938 1.79-1.126.357-.187 1.61-1.22 1.968-1.5.358-.282 2.236-1.408 2.863-1.69.626-.28 1.52-.75 1.968-.844.447-.094 1.252-.563 1.7-.75.447-.188 1.163-.75 1.431-.938.268-.188.537-.376.895-.563.447-.282.715-.563.536 0Z" fill="#FDD771"/></svg>