<svg width="29" height="30" viewBox="0 0 29 30" fill="none" xmlns="http://www.w3.org/2000/svg">
<circle cx="14.5" cy="15.4883" r="14.5" fill="#E7F9E8"/>
<path d="M20.8079 11.1681C20.5512 10.9287 20.1347 10.9283 19.878 11.1671L11.9881 18.4928L9.1415 15.6145C8.89553 15.366 8.47965 15.3498 8.21221 15.5788C7.94497 15.8078 7.92786 16.1951 8.17383 16.4439L11.4841 19.7907C11.5441 19.8514 11.6166 19.9002 11.6974 19.9341C11.7781 19.968 11.8654 19.9864 11.9539 19.9881C11.9587 19.9883 11.9634 19.9883 11.968 19.9883C12.142 19.9882 12.3089 19.924 12.4323 19.8097L20.8067 12.034C21.064 11.7953 21.0645 11.4075 20.8079 11.1681Z" fill="#78BA7A"/>
</svg>
