<svg width="441" height="77" viewBox="0 0 441 77" fill="none" xmlns="http://www.w3.org/2000/svg">
<path opacity="0.75" d="M440.625 55.8209C439.535 55.602 439.099 55.1642 437.791 55.1642C436.266 54.9453 435.176 54.5075 434.522 53.8507C433.868 53.4129 432.778 53.194 433.432 52.3184C434.304 51.4428 434.958 50.1294 434.086 50.1294C433.214 50.1294 431.252 49.6915 430.162 49.2537C429.073 49.0348 428.201 48.597 427.329 48.1592C426.239 47.7214 425.149 47.0647 425.585 46.1891C426.021 45.3134 424.713 44.6567 423.841 44.4378C422.969 44.2189 412.289 42.2488 409.019 41.592C405.749 40.9353 401.172 40.2786 396.813 38.7463C392.235 37.2139 388.094 35.6816 385.696 30.8657C383.298 26.0498 382.862 23.204 381.772 21.6716C380.683 20.1393 379.593 16.6368 377.849 15.7612C376.105 14.6667 376.105 13.791 374.797 14.01C373.49 14.2289 372.4 14.8856 371.31 15.3234C370.002 15.7612 367.168 17.0746 366.078 17.5124C364.989 18.1692 364.771 18.8259 363.245 18.8259C361.719 18.8259 356.706 21.8905 354.962 22.9851C353.218 24.0796 347.551 27.801 346.025 28.4577C344.717 29.1144 342.755 31.0846 341.23 31.5224C339.704 32.1791 338.396 33.2736 336.216 33.9303C334.037 34.806 327.279 38.7463 324.01 40.0597C320.74 41.3731 313.547 43.7811 310.714 43.3433C307.88 42.9055 305.046 37.2139 303.956 34.3682C302.866 31.5224 298.071 20.796 294.584 19.0448C290.878 17.0746 288.916 17.5124 287.39 17.9502C285.865 18.3881 283.467 19.9204 282.813 20.1393C282.159 20.3582 278.236 22.1095 276.492 22.7662C274.748 23.4229 271.696 24.2985 269.735 25.1741C267.773 26.0498 265.593 26.7065 264.939 26.7065C264.503 26.7065 262.324 25.393 261.234 26.0498C259.926 26.7065 257.528 27.5821 256.656 28.0199C255.784 28.6766 254.259 29.1144 254.041 29.5522C254.041 29.99 254.695 30.209 255.348 29.99C256.002 29.7711 256.656 29.3333 257.746 28.8955C258.836 28.6766 260.798 28.0199 260.362 28.2388C259.926 28.4577 257.746 29.99 256.656 30.4279C255.566 30.8657 255.784 31.3035 253.605 31.7413C251.425 32.398 250.117 31.9602 250.771 31.5224C251.425 31.0846 252.297 30.4279 251.643 30.209C250.989 29.99 250.553 30.209 249.681 30.8657C248.809 31.5224 248.155 31.5224 246.194 31.9602C244.232 32.398 243.578 32.8358 242.488 33.7114C241.398 34.5871 239.219 34.5871 238.565 34.806C238.129 35.0249 236.385 35.4627 235.295 35.4627C234.205 35.4627 233.551 34.5871 231.372 35.4627C228.974 36.3383 223.743 37.8706 221.999 38.0896C220.037 38.3085 218.075 37.4328 216.985 36.3383C215.895 35.4627 206.959 17.9502 205.215 15.9801C203.253 14.01 197.368 7.22388 195.842 6.78607C194.534 6.34826 190.175 6.12935 187.123 7.22388C184.072 8.31841 176.442 10.7264 172.519 13.1343C169.031 16.199 150.068 28.4577 141.567 33.2736C133.066 38.0896 126.745 41.592 125.001 42.2488C123.039 42.9055 122.167 42.9055 121.077 43.3433C119.988 43.7811 119.116 43.1244 120.206 42.6866C121.295 42.2488 125.437 40.0597 127.181 39.403C128.924 38.5274 132.194 36.3383 133.938 35.6816C135.682 35.0249 134.81 34.806 132.848 35.6816C130.886 36.5572 128.271 37.2139 126.309 38.3085C124.347 39.403 120.86 40.4975 119.77 41.3731C118.462 42.2488 113.448 44 107.781 44.6567C102.114 45.0945 95.5747 43.3433 94.4849 42.6866C93.613 42.0299 91.4332 40.2786 91.4332 40.2786C91.4332 40.2786 90.1254 31.7413 88.5996 29.1144C87.0738 26.2687 76.1752 10.5075 73.7775 7.44279C71.1618 4.37811 66.8024 0 62.007 0C57.2116 0 48.2747 5.03483 42.6074 8.53731C36.9401 12.2587 14.271 32.1791 9.91155 36.3383C4.02629 42.0299 -0.7691 45.9701 0.10279 50.3483C0.756707 54.7264 6.20602 65.4527 9.25763 69.1741C12.3092 72.8955 13.3991 75.7413 18.4125 71.5821C23.4258 67.4229 38.9019 48.3781 50.4544 40.0597C62.007 31.7413 73.7775 24.5174 76.3931 31.0846C79.2268 37.6517 89.2535 57.5721 94.4849 65.4527C99.7162 73.3333 118.244 79.2438 136.554 70.7065C154.863 62.1692 178.186 45.9701 186.033 41.8109C194.098 37.6517 201.291 37.6517 202.599 38.0896C204.125 38.5274 212.844 60.199 214.37 64.1393C215.895 67.8607 227.884 76.6169 242.052 70.4876C250.553 66.9851 267.991 58.2289 281.941 53.8507C291.314 50.7861 299.161 50.3483 300.469 52.7562C303.738 58.8856 305.264 71.801 310.714 74.8657C316.163 77.9304 320.522 77.2736 325.1 75.5224C329.895 73.7711 332.075 72.6766 334.037 70.7065C335.78 68.7363 341.884 64.1393 344.717 63.4826C347.551 62.8259 361.065 54.5075 364.335 53.4129C367.604 52.3184 373.708 48.597 373.708 48.597C373.708 48.597 376.105 47.5025 376.759 47.2836C377.195 47.0647 378.503 46.8458 378.939 47.0647C379.375 47.2836 379.375 48.1592 378.939 48.1592C378.503 48.1592 357.142 59.7612 354.744 61.0746C352.564 62.3881 345.589 66.3284 344.063 66.9851C342.755 67.4229 339.922 69.1741 338.396 69.8308C336.87 70.4876 337.088 71.5821 338.178 71.1443C339.268 70.7065 351.692 64.796 354.526 63.2637C357.36 61.7313 365.861 56.4776 368.04 55.1642C370.22 53.8507 371.528 53.4129 373.49 52.7562C375.451 52.0995 377.631 50.7861 377.849 50.7861C378.067 50.5672 379.593 49.6915 380.029 49.6915C380.247 49.6915 380.901 51.2239 380.901 51.6617C380.901 52.0995 387.004 63.4826 390.273 66.1095C393.761 68.7363 397.249 70.2687 399.21 71.3632C401.39 72.4577 401.826 72.6766 403.57 72.4577C405.314 72.2388 405.749 72.0199 406.185 71.5821C406.621 71.1443 406.403 70.9254 407.493 71.3632C408.583 71.801 411.417 72.8955 415.122 73.3333C418.828 73.7711 421.226 73.7711 422.751 73.7711C424.277 73.5522 425.803 73.5522 425.149 73.5522C424.495 73.3333 420.79 73.5522 417.956 72.6766C415.122 71.801 413.379 72.2388 411.199 71.3632C409.019 70.4876 409.455 69.8308 411.199 69.6119C413.161 69.6119 418.392 70.9254 421.008 71.3632C423.841 71.801 427.329 71.5821 429.508 71.801C431.47 72.0199 433.214 72.0199 433.432 71.801C433.868 71.3632 433.868 71.1443 434.74 71.1443C435.83 71.1443 436.484 70.9254 437.573 70.9254C438.663 70.7065 439.753 70.2687 437.791 70.0498C435.612 69.8308 432.778 69.1741 431.688 68.9552C430.598 68.7363 429.073 68.2985 427.983 67.8607C426.893 67.4229 426.021 66.9851 425.803 66.7662C425.367 66.5473 426.675 65.6716 428.419 65.6716C430.162 65.6716 432.56 66.1095 434.086 66.1095C435.612 66.1095 439.753 66.7662 439.535 66.1095C439.317 65.4527 438.009 65.4527 436.92 65.0149C436.048 64.796 435.394 64.3582 434.522 64.1393C433.65 63.9204 432.56 63.0448 432.996 62.8259C433.432 62.607 434.522 62.3881 434.086 61.9502C433.868 61.5124 432.778 59.9801 433.868 59.5423C434.958 59.1045 435.612 58.2289 436.484 58.2289C437.355 58.2289 438.445 57.5721 439.099 57.5721C440.189 56.6965 441.715 56.2587 440.625 55.8209ZM53.2881 5.25373C52.6341 6.12935 51.1083 7.66169 49.3646 8.75622C47.6208 9.85075 38.03 17.2935 35.8503 18.1692C33.4526 19.2637 27.7853 24.9552 26.4775 26.2687C24.9516 27.3632 21.4641 30.209 19.2844 32.1791C16.8867 34.1493 14.053 35.9005 14.053 35.9005C14.489 35.6816 23.8618 25.1741 33.6705 17.9502C43.2613 10.7264 46.095 8.97512 48.2747 7.44279C50.6724 6.12935 50.8904 5.91045 52.1982 5.25373C53.2881 4.59701 53.942 4.37811 53.2881 5.25373ZM165.326 49.6915C164.89 50.1294 163.8 50.5672 162.928 51.005C162.274 51.4428 161.402 51.4428 160.748 52.0995C160.313 52.7562 159.441 52.7562 159.441 52.3184C159.441 51.8806 159.441 50.7861 160.313 50.5672C161.402 50.3483 162.492 49.9104 162.928 49.6915C163.364 49.4726 164.018 48.8159 164.454 48.8159C165.108 48.597 165.98 49.0348 165.326 49.6915ZM175.135 43.5622C174.263 44 172.519 45.5323 171.865 45.7512C171.211 45.9701 170.557 46.408 169.903 47.2836C169.249 48.1592 168.595 48.1592 168.16 48.3781C167.506 48.597 167.288 47.5025 167.942 47.0647C168.595 46.8458 169.685 45.3134 170.339 44.8756C170.993 44.4378 171.429 44.2189 172.737 43.5622C174.263 42.6866 174.481 42.2488 175.353 42.4677C176.225 42.9055 176.007 42.9055 175.135 43.5622ZM184.943 12.6965C182.11 13.5721 179.712 14.6667 171.647 19.0448C163.364 23.4229 152.03 31.3035 150.068 32.1791C148.324 32.8358 148.324 31.3035 149.196 30.8657C150.068 30.4279 150.068 30.209 153.119 28.2388C155.953 26.2687 162.928 22.3284 167.506 19.2637C172.083 16.199 180.148 13.1343 182.546 12.4776C184.943 11.8209 187.995 12.0398 187.995 12.0398C187.995 12.0398 187.777 11.8209 184.943 12.6965ZM260.362 32.1791C262.324 31.3035 266.247 29.7711 267.991 29.3333C269.735 28.8955 266.683 30.4279 265.811 30.8657C264.721 31.3035 264.067 31.9602 263.413 32.6169C262.76 33.2736 260.362 33.7114 259.49 33.7114C258.4 33.9303 259.054 33.0547 260.362 32.1791ZM253.605 59.9801C254.477 59.7612 256.656 58.8856 257.092 58.6667C257.746 58.4478 261.452 57.3532 262.542 56.9154C263.849 56.4776 264.503 55.602 265.593 55.1642C266.683 54.7264 267.119 54.7264 269.081 53.8507C270.825 52.9751 271.914 52.5373 272.786 52.3184C273.44 52.0995 277.146 50.1294 278.018 50.1294C278.89 50.1294 280.851 49.6915 281.287 49.4726C281.723 49.2537 282.595 49.2537 282.377 49.4726C282.159 49.9104 281.287 51.005 280.633 51.2239C279.979 51.4428 277.146 52.3184 276.274 52.7562C275.184 52.9751 272.786 53.6318 271.043 54.2886C269.299 54.9453 266.683 56.4776 265.157 57.1343C263.631 57.5721 261.888 58.0099 260.362 58.8856C258.836 59.5423 258.836 59.5423 256.874 60.4179C254.913 61.2935 253.823 61.9502 253.823 61.9502C252.951 62.3881 252.079 62.3881 252.079 61.7313C251.643 61.0746 252.733 59.9801 253.605 59.9801ZM266.029 59.1045C257.746 63.0448 253.387 64.796 249.899 66.1095C246.412 67.4229 245.104 67.204 245.104 67.204C245.104 67.204 249.463 65.2338 251.425 64.5771C253.387 63.9204 266.029 58.0099 272.132 55.602C277.146 53.4129 276.71 53.8507 279.979 52.7562C282.595 51.8806 283.031 52.7562 283.031 52.7562C283.031 52.7562 274.312 55.1642 266.029 59.1045ZM372.4 17.0746C372.182 18.1692 372.4 18.1692 371.092 19.2637C369.566 20.1393 368.04 21.8905 368.912 21.4527C369.784 21.0149 369.566 22.3284 368.476 23.204C367.386 24.0796 366.514 24.0796 364.553 24.9552C362.591 25.8308 361.719 26.7065 359.103 27.1443C356.706 27.5821 354.09 29.3333 351.256 30.8657C348.423 32.6169 343.627 35.2438 340.794 36.7761C337.96 38.3085 336.434 37.4328 335.344 38.5274C334.255 39.6219 333.819 39.1841 332.293 39.403C330.767 39.6219 331.203 38.5274 331.203 38.5274C332.075 37.8706 333.601 36.995 334.69 36.5572C335.562 35.9005 339.05 34.806 340.358 34.3682C341.666 33.7114 343.845 32.1791 344.717 31.7413C345.589 31.3035 348.641 28.8955 349.513 28.2388C350.384 27.5821 354.962 24.9552 356.488 24.2985C358.014 23.6418 360.193 22.5473 361.283 22.3284C362.373 22.1095 364.335 21.0149 365.425 20.5771C366.514 20.1393 368.258 18.8259 368.912 18.3881C369.566 17.9502 370.22 17.5124 371.092 17.0746C372.182 16.4179 372.836 15.7612 372.4 17.0746Z" fill="#F98D8D"/>
</svg>
