<svg width="504" height="430" viewBox="0 0 504 430" fill="none" xmlns="http://www.w3.org/2000/svg">
<path d="M413.782 78.3947C413.431 78.1871 413.067 77.9921 412.709 77.7907C412.533 77.5265 412.307 77.2811 412.031 77.0987C407.913 74.4185 403.412 72.7449 398.735 71.7823C390.599 69.2908 382.024 68.259 373.493 68.8127C366.675 69.2594 359.896 70.6498 353.505 73.0909C351.069 74.0221 347.278 75.0161 346.468 77.8977C346.286 78.5457 346.292 79.2 346.449 79.8103C346.091 80.5401 346.198 81.3958 346.606 82.1004C346.06 82.7296 345.671 83.472 345.52 84.3843C345.225 86.2151 346.612 88.0334 348.609 87.4797C349.487 87.2344 350.373 87.0016 351.251 86.7625C354.353 90.1725 357.843 93.2176 361.66 95.8035C362.193 97.3386 363.763 98.4711 365.414 98.2005C367.51 99.5029 370.103 101 372.601 101.667C373.047 103.624 375.633 105.046 377.661 104.133C378.659 105.411 380.348 106.052 381.911 104.863C382.15 104.687 382.369 104.498 382.608 104.316C382.627 104.297 382.639 104.284 382.658 104.266C386.092 101.604 389.3 98.7479 392.288 95.6776C395.408 93.2868 398.44 90.7828 401.359 88.1341C403.079 86.5737 402.344 84.0508 400.806 82.8114C400.737 82.6919 400.656 82.5723 400.562 82.4591C404.548 82.673 408.534 82.8932 412.508 83.0693C415.05 83.1826 415.86 79.609 413.776 78.3821L413.782 78.3947ZM365.583 89.1218C365.376 89.3043 365.169 89.493 364.962 89.6881C364.692 89.4993 364.422 89.3043 364.152 89.1092C364.372 89.0967 364.598 89.0778 364.817 89.0589C365.068 89.0841 365.326 89.1029 365.577 89.1218H365.583Z" fill="#F7A392"/>
<path d="M408.253 59.2243C407.739 55.7639 408.14 52.2658 406.904 48.9313C406.226 47.113 405.359 45.4646 405.202 43.4828C405.058 41.6394 405.34 39.7834 405.378 37.9399C405.441 34.8445 405.127 31.7239 404.399 28.7102C401.618 17.2092 392.063 7.52653 379.772 8.05502C379.552 8.05502 379.433 8.04244 379.276 8.02986C366.89 7.39441 357.129 16.989 354.335 28.5529C353.607 31.5666 353.293 34.6872 353.356 37.7826C353.394 39.6261 353.67 41.4821 353.532 43.3255C353.381 45.3073 352.509 46.9557 351.831 48.774C350.588 52.1085 350.996 55.6066 350.481 59.067C350.035 62.0743 348.183 64.8049 349.018 67.8877C349.087 68.1394 349.351 68.3659 349.621 68.347C356.099 67.894 362.471 69.7249 368.579 67.095C371.944 65.6479 379.207 65.1069 379.245 60.3693C379.32 60.3693 379.402 60.3693 379.477 60.3568C379.345 65.2453 386.74 65.7864 390.143 67.2523C396.251 69.8759 402.622 68.0513 409.101 68.5043C409.371 68.5232 409.641 68.2967 409.703 68.045C410.538 64.9622 408.686 62.2379 408.241 59.2243H408.253Z" fill="#1F2144"/>
<path d="M482.318 79.7035C482.135 79.7349 481.979 79.7916 481.834 79.8608C482.022 78.2375 479.668 77.1176 478.959 78.8289C473.692 91.4813 467.829 105.549 455.073 112.275C449.461 115.232 429.913 118.51 423.924 91.4939C423.779 90.8521 418.6 100.378 418.073 100.742C415.681 102.416 413.296 104.096 410.904 105.769C409.291 106.902 406.623 108.154 405.819 110.123C404.206 107.607 404.539 113.263 405.819 110.123C425.104 140.209 450.691 134.346 458.883 129.765C467.277 125.072 473.648 114.93 477.722 106.493C480.277 101.202 482.274 95.6148 483.636 89.9021C484.063 88.1216 487.013 78.9674 482.324 79.7035H482.318Z" fill="#F79884"/>
<path d="M336.506 285.488C336.638 308.106 346.513 385.435 346.638 408.053C346.638 408.796 347.128 409.312 347.787 409.57C351.453 411.01 354.222 407.909 355.094 404.625C356.613 398.937 357.04 392.683 357.894 386.863C360.964 365.875 362.659 344.817 363.964 323.658C365.308 301.877 367.58 280.184 370.926 258.616C371.234 256.634 368.208 255.779 367.9 257.773C367.756 258.717 367.612 259.661 367.474 260.604C363.437 260.875 359.118 261.315 355.615 263.48C351.83 265.82 346.758 246.776 345.91 250.972C341.516 272.829 336.375 263.322 336.506 285.481V285.488Z" fill="#F7A392"/>
<path d="M338.848 427.658C340.154 427.973 342.087 427.136 343.299 426.777C345.088 426.255 347.009 425.689 348.704 424.909C351.422 423.65 352.747 418.183 354.435 415.824C356.695 412.659 356.745 412.376 356.268 408.607C355.634 403.605 356.136 398.799 356.858 393.828C356.971 393.036 355.76 392.702 355.647 393.495C355.289 395.98 354.931 398.472 354.762 400.976C354.711 400.976 354.655 400.963 354.598 400.976C351.642 401.454 346.544 402.089 346.557 406.015C346.576 412.546 338.07 419.901 337.724 423.078C337.561 424.607 336.783 427.155 338.848 427.652V427.658Z" fill="#F7A392"/>
<path d="M336.269 429.722C336.903 430.294 338.109 429.847 338.799 429.734C341.021 429.376 343.262 429.023 345.472 428.595C348.328 428.042 350.387 427.016 351.605 424.267C352.459 422.342 353.143 420.442 353.915 418.586L354.167 423.638C354.173 423.801 354.305 423.965 354.48 423.952C354.951 423.921 355.403 423.864 355.874 423.782C356 423.757 356.113 423.606 356.106 423.48C355.887 419.806 356.219 416.176 357.111 412.609C357.425 411.935 356.395 411.3 355.924 411.967C355.014 413.244 354.185 414.565 353.451 415.937C352.735 417.277 352.107 418.661 351.586 420.108C351.429 420.555 351.291 421.014 351.153 421.48C351.128 421.48 351.116 421.461 351.091 421.461C346.633 421.071 342.898 420.712 338.448 421.152C338.234 421.171 338.002 421.385 337.945 421.593C337.544 423.065 334.863 428.451 336.282 429.734L336.269 429.722Z" fill="#1F2144"/>
<path d="M376.952 283.55C377.009 306.168 386.626 383.529 386.682 406.147C386.682 406.89 387.172 407.412 387.825 407.67C391.485 409.117 394.266 406.028 395.151 402.75C396.689 397.068 397.141 390.815 398.007 384.995C401.146 364.019 402.91 342.967 404.285 321.815C405.697 300.04 408.039 278.353 411.46 256.798C411.774 254.816 408.754 253.954 408.434 255.949C408.283 256.892 408.139 257.836 407.995 258.78C403.958 259.038 399.639 259.459 396.124 261.617C392.332 263.945 387.316 244.888 386.463 249.078C381.999 270.916 376.889 261.397 376.946 283.556L376.952 283.55Z" fill="#F7A392"/>
<path d="M416.451 198.96C412.239 179.11 409.088 175.316 408.786 167.156C408.692 164.658 410.136 155.189 409.1 152.843C407.952 150.244 343.82 150.087 343.707 150.169C343.406 148.552 344.008 162.551 343.914 164.432C343.399 174.869 339.62 179.154 337.216 189.176C334.78 199.337 322.15 290.785 327.241 328.22C327.36 329.076 327.957 329.768 328.81 329.793C347.455 330.233 370.864 330.573 392.672 330.818C394.825 320.242 395.666 311.689 398.541 301.258C398.805 300.314 399.985 300.276 400.5 301C403.388 305.077 401.492 321.375 401.354 330.736C406.979 330.793 418.109 331.064 423.162 331.101C424.066 331.108 424.713 330.372 424.731 329.529C425.322 295.504 423.608 232.689 416.451 198.966V198.96Z" fill="#F5E4D5"/>
<path d="M378.83 425.727C380.136 426.048 382.07 425.211 383.281 424.865C385.07 424.349 386.997 423.789 388.692 423.009C391.411 421.763 392.76 416.296 394.449 413.943C396.721 410.784 396.772 410.507 396.307 406.733C395.686 401.731 396.207 396.924 396.941 391.954C397.06 391.161 395.849 390.821 395.73 391.62C395.359 394.105 394.995 396.597 394.819 399.101C394.769 399.101 394.713 399.088 394.656 399.095C391.699 399.566 386.602 400.183 386.602 404.109C386.602 410.64 378.071 417.963 377.713 421.146C377.543 422.675 376.759 425.223 378.824 425.727H378.83Z" fill="#F7A392"/>
<path d="M376.244 427.778C376.878 428.35 378.084 427.91 378.774 427.797C381.003 427.444 383.238 427.105 385.454 426.677C388.316 426.129 390.375 425.11 391.599 422.367C392.459 420.442 393.15 418.548 393.928 416.692L394.161 421.744C394.167 421.908 394.299 422.071 394.474 422.059C394.945 422.034 395.404 421.977 395.868 421.895C396 421.87 396.107 421.719 396.1 421.593C395.893 417.919 396.238 414.289 397.142 410.721C397.456 410.048 396.433 409.413 395.956 410.08C395.039 411.357 394.205 412.672 393.47 414.037C392.748 415.371 392.114 416.761 391.593 418.202C391.43 418.649 391.292 419.108 391.16 419.567C391.135 419.567 391.122 419.548 391.097 419.548C386.64 419.146 382.911 418.768 378.454 419.196C378.241 419.215 378.008 419.429 377.952 419.636C377.544 421.109 374.845 426.488 376.257 427.771L376.244 427.778Z" fill="#1F2144"/>
<path d="M398.437 25.9108C398.468 21.9722 396.635 20.3239 393.478 18.6125C376.465 9.39542 361.192 17.8261 361.085 20.2484C360.658 30.0946 359.817 42.6526 364.381 51.5489C367.796 58.2116 374.482 64.1068 382.115 60.8289C390.081 57.4063 398.28 47.7739 398.437 25.9108Z" fill="#F7A392"/>
<path d="M502.41 69.1526C503.107 68.3913 503.936 67.4224 503.986 66.6737C504.118 64.7296 501.858 66.1641 501.186 66.7681C499.774 68.0264 498.38 69.291 496.924 70.5053C496.189 71.1155 495.473 71.7573 494.708 72.3235C494.331 72.6004 492.215 73.8964 491.719 73.3805C493.735 71.4364 495.743 69.4923 497.74 67.5294C498.568 66.7115 501.412 64.2326 500.684 62.7729C500.596 62.5905 500.439 62.5087 500.238 62.515C497.922 62.6156 495.568 65.2644 494.08 66.8247C493.088 67.8691 491.575 70.2284 490.181 70.7129C489.792 70.845 489.46 70.8073 489.164 70.6563C488.863 70.2599 488.581 69.8446 488.33 69.4042C488.191 69.0708 488.035 68.7436 487.859 68.4353C487.821 68.3536 487.783 68.2781 487.752 68.19C487.714 68.1019 487.658 68.0453 487.595 68.0012C487.024 67.1267 486.258 66.3906 485.191 65.9124C483.377 65.1008 480.024 64.6478 478.505 66.2018C478.279 66.4346 478.43 66.7177 478.668 66.8184C478.813 67.089 478.932 67.1393 479.328 67.284C480.401 67.6804 481.531 67.7433 482.573 68.2781C483.954 68.989 485.071 70.0145 485.775 71.2917C486.114 72.7451 485.862 74.2425 484.864 75.5133C483.942 76.6836 482.648 77.2372 481.28 77.5896C481.267 77.5455 481.255 77.4952 481.223 77.4511C479.83 75.3372 479.252 72.9338 478.982 70.4361C478.863 69.3602 479.221 67.3909 478.16 66.724C477.965 66.6045 477.764 66.6548 477.626 66.7744C477.52 66.7995 477.419 66.8687 477.356 66.9946C476.365 68.9135 475.938 71.3169 476.145 73.4749C476.308 75.1862 477.112 76.6836 477.965 78.1432C478.103 79.3072 477.733 80.3578 477.444 81.591C477.25 82.4215 477.017 83.6924 477.407 84.5669C477.394 84.6172 477.388 84.6739 477.388 84.7305C477.388 84.7745 477.388 84.8186 477.388 84.8626C477.388 85.0262 477.576 85.2212 477.746 85.2212C477.777 85.2212 477.808 85.2212 477.846 85.2212C477.877 85.2212 477.903 85.2086 477.928 85.2086C478.022 85.2716 478.116 85.3282 478.229 85.3722C478.317 85.41 478.398 85.4037 478.474 85.3848C479.058 85.7875 479.823 86.4795 480.112 86.6431C480.451 86.8382 480.822 87.159 481.23 87.2094C481.926 87.3037 482.63 86.813 483.201 86.4669C485.624 85.0073 487.834 82.994 489.836 81.0122C490.263 80.5906 490.753 80.1502 491.217 79.6846C492.642 78.7661 494.011 77.7594 495.316 76.7905C496.993 75.5448 498.612 74.2173 500.163 72.8143C501.098 71.9649 502.573 70.9457 502.598 69.5615C502.598 69.3665 502.536 69.2407 502.385 69.14L502.41 69.1526Z" fill="#F7A392"/>
<path d="M388.221 71.0024L390.895 38.1793C390.895 36.9273 387.926 40.9979 386.878 41.7592C381.542 45.6159 377.273 46.8051 370.895 47.472C370.701 47.4908 370.531 47.5475 370.374 47.6104C369.483 47.6104 369.552 48.0382 369.558 49.1896C369.583 56.5507 367.926 70.7948 369.577 78.0301C370.004 79.9112 370.437 77.08 372.395 77.9294C373.72 78.5019 376.168 78.2503 377.625 78.3761C379.483 78.5334 379.269 78.3321 381.128 78.4893C383.155 78.6592 385.748 80.1503 387.468 78.5082C389.144 76.9102 388.234 72.9339 388.227 71.0024H388.221Z" fill="#F7A392"/>
<path d="M371.512 37.5624C371.531 38.7327 370.985 39.689 370.294 39.7016C369.604 39.7142 369.033 38.7704 369.02 37.6002C369.001 36.43 369.547 35.4736 370.238 35.4611C370.928 35.4485 371.5 36.3922 371.512 37.5624Z" fill="#1F2144"/>
<path d="M388.317 37.9401C388.304 39.1103 387.733 40.0541 387.049 40.0415C386.358 40.0352 385.812 39.0789 385.824 37.9086C385.837 36.7384 386.408 35.7947 387.092 35.8073C387.777 35.8198 388.329 36.7699 388.317 37.9401Z" fill="#1F2144"/>
<path d="M391.495 31.7137C391.463 31.6823 390.832 31.5097 390.806 31.5097C388.834 31.0703 386.146 30.729 384.252 31.3018C383.269 31.5999 382.306 32.3296 383.692 32.6827C384.877 32.9848 386.575 32.9416 387.825 32.9652C388.84 32.9808 390.077 33.0907 391.04 32.8161C392.205 32.4865 392.25 32.0785 391.495 31.7098V31.7137Z" fill="#1F2144"/>
<path d="M365.844 32.5331C366.754 32.8634 368.01 32.84 369.031 32.8906C370.287 32.9527 371.976 33.1042 373.212 32.8867C374.665 32.6303 373.834 31.8494 372.911 31.488C371.125 30.7965 368.376 30.9558 366.328 31.2588C366.302 31.2588 365.641 31.3831 365.602 31.4142C364.777 31.725 364.745 32.1291 365.851 32.5331H365.844Z" fill="#1F2144"/>
<path d="M384.305 49.9884C378.272 52.1464 372.892 49.5731 372.572 49.6738C372.44 49.7178 372.302 49.8185 372.327 49.9632C372.842 52.5805 375.805 54.0527 378.109 54.1848C380.513 54.3233 383.878 52.9014 384.669 50.3847C384.738 50.1708 384.543 49.894 384.298 49.9821L384.305 49.9884Z" fill="white"/>
<path d="M380.047 46.8678C378.383 47.2767 376.845 46.7356 376.67 44.8796C376.588 44.0177 376.871 42.9041 376.971 42.0421C377.178 40.1861 377.417 38.3364 377.668 36.493C377.724 36.0903 377.097 36.0589 377.04 36.4615C376.827 38.0155 376.626 39.5759 376.444 41.1362C376.287 42.5077 375.866 44.1184 376.036 45.4962C376.268 47.4592 378.591 47.8807 380.179 47.4843C380.568 47.39 380.436 46.7734 380.047 46.8678Z" fill="#DB745E"/>
<path d="M276.757 131.54C276.324 130.841 274.805 130.413 274.146 130.055C273.123 129.501 272.124 128.903 271.139 128.287C270.85 125.563 268.854 123.335 267.165 121.115C265.677 119.158 263.574 114.773 260.486 115.251C260.241 115.289 260.003 115.578 260.141 115.836C260.976 117.371 262.319 118.566 263.267 120.039C263.826 120.901 264.303 121.8 264.717 122.725C263.92 122.065 263.079 121.467 262.206 121.096C259.4 119.416 256.475 117.969 253.411 116.811C251.478 116.081 248.471 114.584 246.361 115.219C246.23 115.257 246.117 115.414 246.104 115.546C245.909 117.371 249.82 118.34 251.044 118.818C253.512 119.774 255.91 120.838 258.251 122.039C258.176 122.115 258.094 122.19 258.019 122.272C257.937 122.354 257.849 122.442 257.761 122.53C254.893 121.467 251.999 120.454 249.073 119.548C247.115 118.944 244.403 117.868 242.363 118.478C242.174 118.535 242.099 118.749 242.099 118.925C242.118 119.768 242.915 119.995 243.599 120.341C245.087 121.089 246.631 121.693 248.201 122.253C250.636 123.122 253.11 123.877 255.514 124.814C255.489 124.845 255.464 124.877 255.432 124.908C252.827 124.109 250.178 123.373 247.485 122.92C246.198 122.706 243.066 121.976 242.093 123.216C241.998 123.335 241.973 123.499 242.03 123.637C242.532 124.883 244.899 125.317 246.343 125.651C245.382 125.613 244.415 125.619 243.442 125.688C243.11 125.714 242.978 126.116 243.154 126.368C244.127 127.758 246.933 128.13 248.508 128.532C250.95 129.155 253.417 129.64 255.822 130.388C255.953 130.495 256.079 130.608 256.205 130.715C257.918 132.207 259.902 133.823 261.923 134.874C262.639 135.245 263.305 135.415 263.92 135.428C264.579 135.585 265.282 135.598 266.098 135.566C269.18 135.466 271.672 136.051 274.19 137.913C274.504 138.146 274.893 137.882 275.012 137.58C275.502 136.29 277.624 132.93 276.764 131.546L276.757 131.54Z" fill="#F7A392"/>
<path d="M398.33 35.3165C396.785 33.8317 394.117 35.285 393.596 37.0592C393.483 37.443 393.735 37.6884 394.042 37.7387C393.766 38.3805 393.603 39.1417 393.559 39.903C393.314 40.8027 393.22 41.6898 393.364 42.3253C393.364 42.6461 393.383 42.967 393.408 43.2879C393.27 43.6528 393.22 44.024 393.364 44.37C394.3 46.5972 397.219 43.5018 397.758 42.5203C398.725 40.7524 400.069 36.9963 398.323 35.3228L398.33 35.3165Z" fill="#F7A392"/>
<path d="M358.785 35.0899C360.159 33.4478 362.972 34.5991 363.675 36.3104C363.832 36.6816 363.606 36.9459 363.304 37.0339C363.65 37.6442 363.895 38.3803 364.02 39.129C364.365 40.0036 364.547 40.8718 364.472 41.5135C364.503 41.8281 364.522 42.149 364.535 42.4699C364.711 42.8159 364.805 43.1808 364.698 43.5394C364.007 45.8547 360.768 43.099 360.128 42.1804C358.973 40.5258 357.228 36.9459 358.785 35.0899Z" fill="#F79884"/>
<path d="M398.926 30.9124C398.964 30.8495 398.995 30.7866 399.014 30.7173C399.918 30.6985 400.904 29.868 400.696 28.6034C400.401 26.804 399.818 25.1619 399.033 23.6519C399.573 23.1864 399.855 22.3873 399.41 21.5505C397.633 18.2412 394.281 16.0391 390.615 14.7116C390.615 13.8686 390.112 12.9689 389.114 12.8619C386.239 12.5536 383.358 12.3963 380.476 12.4215C380.389 11.8867 380.05 11.4337 379.372 11.289C377.011 10.8046 374.883 11.2261 372.749 11.849C372.416 11.2513 371.776 10.836 371.01 11.0185C369.648 11.3393 368.285 12.0251 366.992 12.8493C366.434 12.2453 365.486 11.9811 364.695 12.6606C362.491 14.5543 360.143 16.6557 359.761 19.7952C359.679 20.4495 359.999 20.934 360.464 21.1982C359.459 23.4946 358.744 25.9295 358.335 28.4964C358.097 29.9812 359.497 30.8683 360.482 30.5475C360.3 31.5164 360.175 32.5041 360.093 33.4982C360.03 34.335 361.179 34.379 361.324 33.6052C361.324 33.5926 361.336 33.5863 361.342 33.5737C363.125 28.2699 367.72 26.0364 372.265 24.1804C375.479 22.8655 377.727 20.4873 379.164 17.2975C379.529 19.1975 380.106 21.0661 381.355 22.5824C383.138 24.753 385.781 25.2437 388.148 26.502C391.123 28.0812 392.341 30.7111 394.538 33.0704C395.21 33.7939 397.533 34.9893 397.771 34.6181C398.242 34.5678 398.732 34.4105 399.246 34.1022C400.113 33.5863 399.598 32.3657 398.794 32.3406C398.863 32.2084 398.914 32.0512 398.926 31.8624C398.945 31.5478 398.951 31.2333 398.951 30.9187L398.926 30.9124Z" fill="#1F2144"/>
<path d="M396.243 37.3928C396.224 38.6448 395.935 39.8339 395.377 40.9538C395.194 41.3125 395.741 41.6333 395.916 41.2684C396.525 40.0479 396.845 38.7518 396.871 37.3928C396.877 36.9902 396.249 36.9902 396.243 37.3928Z" fill="#DB745E"/>
<path d="M362.238 40.5387C361.761 39.4691 361.497 38.3492 361.441 37.1853C361.422 36.7826 360.794 36.7826 360.813 37.1853C360.876 38.4688 361.171 39.6893 361.698 40.8596C361.861 41.2308 362.407 40.9099 362.238 40.545V40.5387Z" fill="#DB745E"/>
<path d="M368.34 21.3176C365.754 24.3313 363.168 27.4771 361.473 31.0192C361.322 29.4023 358.867 28.8172 358.434 30.648C356.457 38.978 355.377 47.4528 355.201 56.0093C355.132 56.5189 355.113 57.0537 355.17 57.6136C355.352 59.5955 358.296 59.671 358.309 57.6136C358.309 57.2299 358.328 56.8524 358.334 56.4686C358.654 53.996 360.644 51.9953 361.63 49.724C362.791 47.0501 362.734 44.1749 362.684 41.3185C362.565 33.9008 365.886 28.987 370.563 23.5323C371.875 22.0034 369.659 19.7699 368.34 21.3051V21.3176Z" fill="#1F2144"/>
<path d="M409.14 170.755C409.108 170.547 409.077 170.346 409.052 170.132C406.874 170.057 404.695 169.987 402.517 169.925C401.833 164.464 401.061 159.015 400.188 153.579C400.125 153.183 399.516 153.353 399.585 153.749C400.445 159.122 401.217 164.514 401.889 169.912C386.61 169.484 371.317 169.428 356.038 169.755C351.775 169.849 347.513 169.981 343.251 170.126C343.207 170.34 343.169 170.547 343.125 170.755C362.73 170.063 382.36 169.988 401.965 170.529C404.802 193.461 405.963 216.595 405.398 239.704C405.204 247.72 404.796 255.735 404.199 263.732C404.168 264.134 404.796 264.134 404.827 263.732C406.987 235.023 406.528 206.126 403.415 177.506C403.164 175.184 402.887 172.869 402.599 170.554C404.752 170.617 406.911 170.68 409.064 170.755C409.09 170.755 409.121 170.755 409.146 170.755H409.14Z" fill="#DBC6B6"/>
<path d="M413.632 82.8871C413.55 80.6096 412.753 78.59 411.522 76.8283C407.549 74.3369 403.236 72.7514 398.76 71.8265C398.415 72.2292 398.038 72.6696 397.592 73.1289C394.02 76.822 389.676 79.842 384.748 81.3834C374.711 84.5103 364.202 80.597 359.199 71.2666C357.272 71.8014 355.37 72.418 353.505 73.1289C351.069 74.0601 347.278 75.0541 346.468 77.9357C346.286 78.5837 346.292 79.238 346.449 79.8483C346.091 80.5781 346.198 81.4338 346.606 82.1384C346.06 82.7676 345.671 83.51 345.52 84.4222C345.225 86.2531 346.612 88.0714 348.609 87.5177C349.487 87.2723 350.373 87.0395 351.251 86.8005C354.353 90.2105 357.843 93.2556 361.66 95.8414C362.193 97.3766 363.763 98.509 365.414 98.2385C367.51 99.5409 370.103 101.038 372.601 101.705C373.047 103.662 375.633 105.084 377.661 104.171C378.659 105.449 380.348 106.09 381.911 104.901C382.15 104.725 382.369 104.536 382.608 104.354C382.627 104.335 382.639 104.322 382.658 104.304C386.092 101.642 389.3 98.7859 392.288 95.7156C395.408 93.3248 398.44 90.8208 401.359 88.172C403.079 86.6117 402.344 84.0888 400.806 82.8494C400.737 82.7298 400.656 82.6103 400.562 82.497C404.548 82.7109 408.534 82.9312 412.508 83.1073C412.935 83.1262 413.305 83.0318 413.632 82.8745V82.8871ZM364.962 89.726C364.692 89.5373 364.422 89.3422 364.152 89.1472C364.372 89.1346 364.598 89.1158 364.817 89.0969C365.068 89.122 365.326 89.1409 365.577 89.1598C365.37 89.3423 365.163 89.531 364.955 89.726H364.962Z" fill="#A0A2CA"/>
<path d="M482.211 103.624C482.757 102.536 483.027 101.114 483.328 100.277C483.818 98.9116 485.387 96.4013 484.791 94.9039C484.151 93.3058 480.886 92.6263 479.493 92.0035C477.779 91.2422 474.873 89.1471 472.945 89.3107C471.558 89.4239 471.169 90.3991 470.604 91.5756C469.568 93.7399 468.721 95.9923 467.942 98.2636C464.753 97.301 461.878 99.0123 459.48 101.334C457.484 103.272 455.701 105.436 452.97 106.367C449.706 107.487 446.479 106.31 443.504 104.958C441.727 104.152 439.863 103.869 437.986 103.706C434.345 101.353 431.03 98.6159 428.312 94.9857C425.594 91.3617 416.881 80.729 415.487 79.2505C412.423 76.0103 408.544 73.6007 403.823 72.1851C396.736 82.1949 388.267 91.3051 378.587 98.8109C377.903 99.3457 376.83 99.761 376.02 99.1444C370.615 95.0234 352.661 74.4752 351.563 72.6129C335.304 78.4892 327.896 91.2296 320.489 106.292C317.971 110.173 315.561 114.301 312.522 117.767C309.553 121.146 305.586 123.379 302.51 126.651C300.526 128.765 298.888 130.407 295.749 130.502C293.727 130.564 291.731 130.118 289.71 130.401C288.153 130.621 286.772 131.15 285.692 132.043C284.757 131.603 283.828 131.162 282.892 130.722C281.863 130.237 280.789 129.57 279.653 129.4C279.408 129.363 279.189 129.4 278.994 129.47C278.385 129.3 277.663 129.52 277.425 130.294C276.816 132.276 276.213 134.264 275.604 136.246C275.133 137.793 273.915 140.178 274.022 141.795C274.185 144.205 278.768 145.199 280.852 145.853C285.046 150.534 289.848 155.473 296.483 155.963C300.03 156.228 303.288 154.579 306.785 154.416C310.771 154.221 314.581 155.322 318.612 154.875C321.568 154.548 324.939 154.321 327.601 152.881C330.401 151.371 332.46 148.533 334.375 146.073C336.396 143.468 338.198 140.725 339.805 137.875C340.941 141.373 341.82 145.029 341.782 147.162C341.682 152.95 341.449 153.969 342.975 159.613C343.377 161.091 343.841 162.551 344.35 163.985C354.475 165.338 373.402 163.658 383.07 163.595C388.368 163.557 401.306 164.331 406.56 164.929C406.887 164.967 407.213 164.998 407.546 165.036C408.268 164.061 408.996 163.098 409.68 162.091C411.394 159.575 411.331 156.177 412.254 153.29C413.553 149.206 415.631 136.17 417.119 130.325C419.216 131.533 423.227 133.584 425.336 134.773C428.902 136.78 432.656 138.687 436.818 138.894C440.942 139.096 445.136 137.573 448.921 136.101C451.043 135.277 453.096 134.138 455.356 133.792C457.929 133.402 460.51 134.094 463.09 133.748C469.323 132.911 476.881 126.789 478.601 120.655C479.273 118.264 479.644 116.339 481.15 114.244C482.299 112.652 483.561 111.073 484.025 109.117C484.54 106.927 483.843 104.845 482.217 103.599L482.211 103.624Z" fill="#4F5170"/>
<path d="M412.188 117.289C410.273 112.873 408.509 108.33 407.687 103.561C406.839 98.6412 407.159 93.5702 408.54 88.776C409.683 84.806 411.547 81.0877 414.014 77.8098C413.857 77.6714 413.7 77.5393 413.544 77.4009C408.873 83.6169 406.337 91.387 406.613 99.2074C406.965 109.18 412.081 118.032 415.778 127.041C416.243 128.174 416.689 129.319 417.097 130.47C417.109 130.426 417.122 130.382 417.128 130.338C417.341 130.464 417.586 130.596 417.837 130.741C416.243 126.16 414.115 121.719 412.194 117.289H412.188ZM336.104 82.3209C335.884 82.5348 335.67 82.7487 335.457 82.9626C335.89 96.2818 340.843 109.872 340.548 123.147C340.416 128.885 339.462 134.56 338.439 140.197C338.753 139.694 339.048 139.178 339.349 138.668C340.046 134.742 340.674 130.804 340.988 126.827C341.383 121.775 341.107 116.755 340.404 111.746C339.029 101.932 336.292 92.2804 336.104 82.3209Z" fill="#20223F"/>
<path d="M448.636 108.79C445.925 110.52 443.112 112.061 440.193 113.42C439.829 113.59 440.143 114.131 440.507 113.961C443.42 112.602 446.238 111.061 448.95 109.331C449.289 109.117 448.975 108.569 448.636 108.79Z" fill="#20223F"/>
<path d="M284.359 135.422C283.292 138.247 282.218 141.065 281.151 143.89C281.007 144.268 281.615 144.431 281.754 144.06C282.821 141.235 283.894 138.417 284.961 135.592C285.106 135.214 284.497 135.051 284.359 135.422Z" fill="#20223F"/>
<path d="M302.861 148.898C300.745 147.356 298.787 145.639 296.979 143.745C296.696 143.449 296.257 143.896 296.533 144.192C298.379 146.123 300.387 147.872 302.541 149.445C302.867 149.684 303.181 149.137 302.855 148.904L302.861 148.898Z" fill="#20223F"/>
<path d="M302.288 151.748C300.405 151.043 298.678 150.062 297.115 148.791C296.801 148.539 296.356 148.98 296.67 149.238C298.314 150.578 300.128 151.616 302.118 152.358C302.495 152.497 302.658 151.893 302.288 151.754V151.748Z" fill="#20223F"/>
<path d="M481.693 102.454C477.518 101.064 473.344 99.6605 469.163 98.289C468.78 98.1631 468.61 98.7734 468.993 98.893C473.181 100.258 477.349 101.668 481.523 103.058C481.906 103.184 482.07 102.58 481.693 102.454Z" fill="#20223F"/>
<path d="M230.81 412.606L226.726 5.80429C226.726 2.65134 224.218 0.143316 221.136 0.214974L5.446 0C2.36471 0 0 2.57968 0 5.73263L4.0845 412.535C4.0845 415.688 6.59253 418.196 9.67382 418.124L225.364 418.267C228.374 418.267 230.81 415.759 230.81 412.606Z" fill="#4F5170"/>
<path d="M217.984 399.851L214.401 19.8495C214.401 17.0548 212.18 14.8334 209.528 14.9051L18.9183 14.1885C16.2669 14.1885 14.1172 16.4815 14.1172 19.2762L17.7001 399.278C17.7001 402.073 19.9215 404.294 22.5728 404.223L213.183 404.939C215.834 404.939 217.984 402.646 217.984 399.851Z" fill="white"/>
<path d="M73.377 71.5147C73.3054 70.8697 72.9471 70.3681 72.5171 70.3681C62.5567 69.8665 33.3919 69.8665 31.0989 69.7232C29.2358 69.6516 29.5941 71.9446 29.5941 72.3746C29.6657 81.6901 31.0989 103.044 31.3855 107.559C31.5288 109.565 31.7438 110.568 33.2486 111.07C36.1149 112.001 65.2797 111.858 72.4455 112.001C74.7385 112.001 74.9535 111.213 74.7385 106.054C73.8787 86.1329 75.0968 88.7126 73.377 71.5147Z" fill="#A7C6DF"/>
<path d="M61.0506 83.41C60.4773 83.0517 59.6891 83.2667 59.3308 83.84L51.95 96.5951L48.8688 92.5822C48.4388 92.009 47.6506 91.9373 47.0773 92.3673C46.504 92.7972 46.4324 93.5854 46.8623 94.1587L51.0902 99.6764C51.5201 100.25 52.3083 100.321 52.8816 99.8913C53.0966 99.748 53.2399 99.4614 53.3115 99.2464L61.4806 85.1298C61.9105 84.4849 61.6955 83.6967 61.0506 83.41Z" fill="#4F5170"/>
<path d="M88.2103 107.845C88.4253 109.852 89.5001 111.428 93.083 111.5C111.929 111.715 188.818 111.571 196.557 111.428C201.645 111.285 201.931 110.425 201.788 108.06C201.072 98.3864 201.716 84.843 200.785 73.0195C200.642 70.8697 201.86 69.7949 196.915 69.8665C190.896 69.9382 116.229 69.6515 90.1451 69.2932C85.2723 69.2216 86.0606 73.8794 86.1322 74.5959C87.1354 88.4976 87.5654 101.038 88.2103 107.845Z" fill="#F5E4D5"/>
<path d="M187.384 79.2537C158.004 79.182 128.624 79.182 99.2444 79.1104C98.8144 79.1104 98.7428 79.8269 99.2444 79.8269C128.624 79.8986 158.004 79.8986 187.384 79.9702C187.885 79.9702 187.885 79.2537 187.384 79.2537ZM187.527 90.8623C158.147 90.7906 128.767 90.7906 99.3877 90.7189C98.9577 90.7189 98.8861 91.4355 99.3877 91.4355C128.767 91.5072 158.147 91.5072 187.527 91.5788C188.029 91.5788 188.029 90.8623 187.527 90.8623ZM187.169 101.683C178.713 101.539 170.329 101.611 161.873 101.826C161.443 101.826 161.372 102.542 161.873 102.542C170.329 102.328 178.713 102.328 187.169 102.399C187.599 102.399 187.599 101.683 187.169 101.683Z" fill="#4F5170"/>
<path d="M74.4513 281.615C74.3796 280.97 74.0213 280.469 73.5914 280.469C63.6309 279.967 34.4661 279.967 32.1731 279.824C30.31 279.752 30.6683 282.045 30.6683 282.475C30.7399 291.791 32.1731 313.145 32.4597 317.659C32.603 319.665 32.818 320.669 34.3228 321.17C37.1891 322.102 66.3539 321.959 73.5197 322.102C75.8128 322.102 76.0277 321.314 75.8128 316.154C74.9529 296.162 76.1711 298.813 74.4513 281.615Z" fill="#A7C6DF"/>
<path d="M62.4139 292.292C61.8406 291.934 61.0524 292.149 60.6941 292.722L53.3133 305.477L50.232 301.464C49.8021 300.891 49.0138 300.819 48.4406 301.249C47.8673 301.679 47.7957 302.467 48.2256 303.041L52.4534 308.558C52.8834 309.131 53.6716 309.203 54.2449 308.773C54.4599 308.63 54.6032 308.343 54.6748 308.128L62.8438 294.012C63.2021 293.367 62.9871 292.578 62.4139 292.292Z" fill="#4F5170"/>
<path d="M92.6529 317.802C92.8679 319.809 93.9428 321.385 97.5257 321.457C116.372 321.743 193.261 321.958 201 321.815C206.087 321.743 206.374 320.884 206.231 318.519C205.586 308.845 206.231 295.302 205.371 283.406C205.228 281.257 206.446 280.182 201.501 280.254C195.482 280.325 120.814 279.68 94.731 279.25C89.8583 279.179 90.6465 283.836 90.7182 284.553C91.6497 298.455 92.0797 310.995 92.6529 317.802Z" fill="#F5E4D5"/>
<path d="M193.044 288.853C163.664 288.494 134.284 288.064 104.904 287.706C104.475 287.706 104.475 288.423 104.904 288.423C134.284 288.781 163.664 289.211 193.044 289.569C193.545 289.569 193.545 288.853 193.044 288.853Z" fill="#4F5170"/>
<path d="M192.759 300.461C163.379 300.103 133.999 299.673 104.619 299.315C104.189 299.315 104.189 300.031 104.619 300.031C133.999 300.39 163.379 300.82 192.759 301.178C193.189 301.178 193.189 300.461 192.759 300.461Z" fill="#4F5170"/>
<path d="M130.059 310.637C121.675 310.279 113.22 310.135 104.764 310.135C104.334 310.135 104.334 310.852 104.764 310.852C113.22 310.852 121.603 311.067 130.059 311.353C130.561 311.353 130.561 310.637 130.059 310.637Z" fill="#4F5170"/>
<path d="M72.6622 141.74C72.5905 141.095 72.2323 140.593 71.8023 140.593C61.8419 140.091 32.6771 140.091 30.384 139.948C28.5209 139.877 28.8792 142.17 28.8792 142.6C28.9509 151.915 30.384 173.269 30.6707 177.784C30.814 179.79 31.0289 180.793 32.5338 181.295C35.4001 182.226 64.5649 182.083 71.7306 182.226C74.0237 182.226 74.2387 181.438 74.0237 176.279C73.0921 156.358 74.3103 158.938 72.6622 141.74Z" fill="#A7C6DF"/>
<path d="M59.117 151.557C58.5437 151.199 57.7555 151.414 57.3972 151.987L50.0165 164.814L46.9352 160.801C46.5052 160.228 45.717 160.156 45.1437 160.586C44.5704 161.016 44.4988 161.804 44.9287 162.377L49.1566 167.895C49.5865 168.468 50.3747 168.54 50.948 168.11C51.163 167.967 51.3063 167.68 51.3779 167.465L59.547 153.348C59.9052 152.704 59.6903 151.915 59.117 151.557Z" fill="#4F5170"/>
<path d="M88.3543 177.999C88.4976 180.005 89.5725 181.581 93.1554 181.725C112.001 182.226 188.89 183.23 196.629 183.158C201.717 183.086 202.075 182.226 201.932 179.862C201.359 170.188 202.147 156.644 201.431 144.749C201.287 142.6 202.577 141.596 197.561 141.525C191.542 141.525 116.874 140.092 90.7907 139.447C85.9179 139.303 86.6345 143.961 86.7062 144.749C87.5661 158.579 87.7811 171.119 88.3543 177.999Z" fill="#F5E4D5"/>
<path d="M186.887 149.765C157.507 149.192 128.127 148.547 98.7477 147.974C98.3178 147.974 98.2461 148.69 98.7477 148.69C128.127 149.263 157.507 149.908 186.887 150.482C187.389 150.553 187.389 149.837 186.887 149.765ZM98.3894 160.299C127.769 160.872 133.502 161.302 162.882 161.947C163.312 161.947 163.383 161.23 162.882 161.23C133.502 160.657 127.769 160.227 98.3894 159.582C97.8878 159.582 97.8878 160.299 98.3894 160.299ZM185.669 173.197C156.289 172.624 126.909 171.979 97.5295 171.406C97.0996 171.406 97.0279 172.122 97.5295 172.122C126.909 172.696 156.289 173.341 185.669 173.914C186.17 173.985 186.17 173.269 185.669 173.197Z" fill="#4F5170"/>
<path d="M74.2364 209.456C74.1648 208.811 73.8065 208.31 73.3765 208.31C63.4161 207.808 34.2513 207.808 31.9582 207.665C30.0951 207.593 30.4534 209.886 30.4534 210.316C30.5251 219.632 31.9582 240.986 32.2449 245.5C32.3882 247.507 32.6032 248.51 34.108 249.011C36.9743 249.943 66.1391 249.8 73.3049 249.943C75.5979 249.943 75.8129 249.155 75.5979 243.995C74.738 224.074 75.8846 226.654 74.2364 209.456Z" fill="#A7C6DF"/>
<path d="M61.5506 222.068C60.9773 221.71 60.1891 221.925 59.8308 222.498L52.45 235.253L49.3688 231.24C48.9388 230.667 48.1506 230.596 47.5773 231.025C47.004 231.455 46.9324 232.244 47.3623 232.817L51.5902 238.335C52.0201 238.908 52.8083 238.979 53.3816 238.55C53.5966 238.406 53.7399 238.12 53.8115 237.905L61.9806 223.788C62.3388 223.143 62.1239 222.355 61.5506 222.068Z" fill="#4F5170"/>
<path d="M186.454 217.482C157.074 217.124 127.694 216.694 98.3146 216.335C97.8847 216.335 97.8847 217.052 98.3146 217.052C127.694 217.41 157.074 217.84 186.454 218.199C186.884 218.199 186.884 217.482 186.454 217.482Z" fill="#4F5170"/>
<path d="M89.0717 247.005C89.215 249.012 90.2899 250.588 93.8728 250.732C112.719 251.233 189.608 252.308 197.347 252.236C202.435 252.165 202.793 251.305 202.65 248.94C202.076 239.266 202.936 225.723 202.22 213.828C202.076 211.678 203.366 210.675 198.35 210.603C192.331 210.603 117.663 209.17 91.5797 208.453C86.707 208.31 87.4236 212.968 87.4952 213.756C88.2835 227.658 88.4985 240.198 89.0717 247.005Z" fill="#F5E4D5"/>
<path d="M96.5234 219.345C125.903 219.703 131.636 220.133 161.016 220.492C161.445 220.492 161.445 219.775 161.016 219.775C131.636 219.417 125.903 218.987 96.5234 218.628C96.0218 218.628 96.0218 219.345 96.5234 219.345ZM183.946 231.599C154.566 231.24 125.187 230.81 95.8068 230.452C95.3769 230.452 95.3769 231.169 95.8068 231.169C125.187 231.527 154.566 231.957 183.946 232.315C184.376 232.315 184.376 231.599 183.946 231.599Z" fill="#4F5170"/>
<path d="M214.663 25.4996C214.663 19.7987 212.44 15.2672 209.787 15.4134L19.058 13.9517C16.405 13.9517 14.2539 18.6293 14.2539 24.3302L14.3256 44.3563H214.735L214.663 25.4996Z" fill="#A7C6DF"/>
<path fill-rule="evenodd" clip-rule="evenodd" d="M112.117 37.7053C112.635 37.7053 112.864 37.4496 113.154 37.1462L115.918 34.2471L112.47 32.0044" fill="white"/>
<path fill-rule="evenodd" clip-rule="evenodd" d="M112.5 32.1931L120.951 38.3964C121.915 38.9251 122.611 38.6514 122.851 37.5069L126.291 21.4011C126.643 19.9982 125.753 19.3619 124.83 19.7781L104.631 27.5166C103.252 28.066 103.26 28.8303 104.38 29.1709L109.563 30.7783L121.564 23.2561C122.13 22.9148 122.65 23.0983 122.224 23.4746" fill="white"/>
<path d="M17.6304 399.278C17.6304 402.073 19.8518 404.294 22.5031 404.223L213.113 404.939C215.765 404.939 217.914 402.646 217.914 399.851L217.699 375.273L17.3438 374.556L17.6304 399.278Z" fill="#A7C6DF"/>
<path d="M120.028 394.405H111.501C110.641 394.405 109.925 393.76 109.925 392.901L109.566 386.236C109.566 385.806 109.71 385.377 109.996 385.018C110.283 384.66 110.713 384.517 111.143 384.517H119.67C120.53 384.517 121.247 385.162 121.247 386.021L121.605 392.686C121.605 393.116 121.462 393.546 121.175 393.904C120.888 394.19 120.458 394.405 120.028 394.405ZM111.143 385.233C110.928 385.233 110.641 385.305 110.498 385.52C110.355 385.663 110.211 385.95 110.283 386.165L110.641 392.829C110.641 393.331 111.071 393.689 111.501 393.689H120.028C120.243 393.689 120.53 393.617 120.673 393.402C120.817 393.187 120.96 392.972 120.888 392.757L120.53 386.093C120.53 385.591 120.1 385.233 119.67 385.233H111.143Z" fill="#F5E4D5"/>
<path d="M185.092 394.047C185.021 394.047 184.949 394.047 184.877 393.976L178.715 389.175L184.376 384.015C184.519 383.872 184.734 383.872 184.877 384.015C185.021 384.159 185.021 384.373 184.877 384.517L179.861 389.103L185.379 393.402C185.522 393.546 185.594 393.761 185.451 393.904C185.307 394.047 185.236 394.047 185.092 394.047Z" fill="#F5E4D5"/>
<path d="M52.452 384.803H62.8424C63.0574 384.803 63.2007 384.66 63.2007 384.445C63.2007 384.23 63.0574 384.086 62.8424 384.086H52.452C52.2371 384.086 52.0938 384.23 52.0938 384.445C52.0938 384.66 52.3087 384.803 52.452 384.803ZM62.9141 388.744C63.1291 388.744 63.2724 388.601 63.2724 388.386C63.2724 388.171 63.1291 388.028 62.9141 388.028H52.5237C52.3087 388.028 52.1654 388.171 52.1654 388.386C52.1654 388.601 52.3087 388.744 52.5237 388.744H62.9141ZM63.2007 391.969H52.8103C52.5954 391.969 52.452 392.112 52.452 392.327C52.452 392.542 52.5954 392.685 52.8103 392.685H63.2007C63.4157 392.685 63.559 392.542 63.559 392.327C63.559 392.112 63.4157 391.969 63.2007 391.969Z" fill="#F5E4D5"/>
</svg>
