<svg width="146" height="9" viewBox="0 0 146 9" fill="none" xmlns="http://www.w3.org/2000/svg">
<path opacity="0.75" d="M1.58745 5.39358C0.556638 5.89652 -0.768691 6.61122 0.556638 7.08769C1.88197 7.59063 3.94359 8.3318 5.02349 8.57003C6.10339 8.83474 7.18329 8.17298 7.72324 7.96121C8.31227 7.74945 8.80313 6.84945 9.24491 6.7171C9.68669 6.58475 10.2757 6.29357 10.7175 6.16122C11.1593 6.02887 12.9264 5.1024 14.0554 4.8377C15.1844 4.57299 16.5097 4.30829 18.424 4.36123C20.3875 4.41417 21.5656 4.99652 22.7927 5.63181C23.9708 6.2671 27.6523 7.51122 29.1249 8.01416C30.5974 8.51709 34.328 9.15239 35.6042 8.96709C36.8805 8.7818 38.9421 7.77592 40.6601 7.37886C42.3782 6.98181 44.1453 6.34651 45.5688 6.08181C46.9923 5.8171 49.1521 5.44652 49.9865 5.39358C50.821 5.34064 52.539 5.02299 53.2262 5.42005C53.8643 5.8171 57.104 7.06122 59.0184 7.56416C60.9328 8.0671 62.8962 7.98768 64.467 7.64357C66.0377 7.32592 67.314 6.98181 67.7558 6.77004C68.1975 6.55828 68.9338 6.13475 69.8174 5.71122C70.7009 5.28769 73.0571 4.14946 74.4806 4.12299C75.9041 4.09652 76.5422 4.25535 77.5239 4.52005C78.4566 4.78476 80.6655 5.36711 81.2054 5.39358C81.7453 5.42005 82.8743 5.28769 83.4634 5.15534C84.0524 5.02299 86.8012 4.04358 86.8012 4.04358C86.8012 4.04358 88.372 3.64653 89.1083 3.35535C89.8446 3.06417 90.1391 2.773 90.8754 2.72006C91.5626 2.66712 92.1516 2.61418 92.1516 2.61418C92.1516 2.61418 96.4221 4.54652 99.0237 5.23475C101.625 5.92299 103.54 6.2671 104.521 6.32004C105.503 6.34651 107.908 6.2671 109.185 6.08181C110.461 5.89652 113.161 5.60534 114.682 5.65828C116.204 5.71122 119.395 5.94946 119.934 6.10828C120.474 6.2671 124.598 6.92886 125.874 7.03475C127.101 7.14063 132.157 7.22004 133.139 7.24651C134.12 7.27298 138.293 7.32592 138.735 7.35239C139.176 7.35239 142.023 8.0671 143.545 8.17298C145.067 8.30533 145.754 8.25239 145.95 7.8818C146.147 7.51122 145.754 7.19357 144.919 7.08769C144.085 6.98181 142.318 6.39946 140.943 6.05534C139.569 5.71122 138.636 5.52593 136.673 5.39358C134.709 5.26122 131.715 4.62593 129.31 4.6524C126.905 4.6524 124.941 4.75829 122.88 4.52005C120.818 4.30829 119.591 3.96417 116.695 3.56711C113.799 3.17006 111.148 3.09065 108.743 3.32888C106.338 3.56711 103.785 3.9377 102.214 4.04358C100.644 4.14946 98.9256 3.4877 97.3057 2.82594C95.6859 2.16418 94.0169 0.920066 91.9553 0.390656C89.8937 -0.112283 87.9793 -0.191695 86.2122 0.523008C84.4451 1.23771 81.549 2.19065 80.5673 2.45535C79.5365 2.72006 78.2602 2.90535 76.9349 2.48182C75.6096 2.0583 73.4498 0.946536 71.4372 1.39653C69.4247 1.873 65.9396 3.19653 64.1725 4.04358C62.4054 4.89064 58.9693 5.63181 57.5949 5.20828C56.2205 4.78476 53.8643 3.51417 51.6555 3.06417C49.4466 2.61418 46.256 2.66712 44.2434 2.90535C42.28 3.14359 38.6476 4.25535 36.7823 4.78476C34.917 5.34064 31.2847 6.42593 29.9102 6.16122C28.5358 5.89652 26.4251 4.75829 25.198 4.28182C23.9708 3.77888 20.4857 2.323 18.1786 1.95241C15.8225 1.58183 12.6319 1.39653 8.85222 2.58771C5.12166 3.83182 1.58745 5.39358 1.58745 5.39358Z" fill="#FBB116"/>
</svg>
