<svg width="795" height="143" viewBox="0 0 795 143" fill="none" xmlns="http://www.w3.org/2000/svg">
<path d="M280.487 101.151C281.123 100.882 281.42 100.149 281.151 99.5129C280.882 98.8772 280.149 98.5798 279.513 98.8488L280.487 101.151ZM27.3617 86.8042C28.0517 86.8267 28.6293 86.2855 28.6517 85.5956C28.6742 84.9056 28.1331 84.328 27.4431 84.3055L27.3617 86.8042ZM34.2219 84.7616C33.5352 84.6905 32.9209 85.1896 32.8498 85.8763C32.7787 86.5629 33.2777 87.1773 33.9644 87.2483L34.2219 84.7616ZM40.5058 88.1821C41.1848 88.3068 41.8363 87.8574 41.961 87.1784C42.0857 86.4994 41.6363 85.8479 40.9573 85.7232L40.5058 88.1821ZM47.6288 87.2406C46.9628 87.0588 46.2755 87.4514 46.0938 88.1174C45.9121 88.7834 46.3047 89.4707 46.9707 89.6524L47.6288 87.2406ZM53.2558 91.6634C53.9036 91.902 54.6222 91.5702 54.8608 90.9224C55.0994 90.2746 54.7677 89.556 54.1199 89.3174L53.2558 91.6634ZM60.4225 91.9464C59.7968 91.6545 59.0531 91.9251 58.7612 92.5508C58.4694 93.1764 58.74 93.9202 59.3657 94.212L60.4225 91.9464ZM65.2552 97.2384C65.8574 97.5759 66.6192 97.3614 66.9568 96.7592C67.2943 96.157 67.0798 95.3952 66.4776 95.0576L65.2552 97.2384ZM72.2997 98.5677C71.7191 98.1943 70.9456 98.3622 70.5722 98.9429C70.1987 99.5235 70.3667 100.297 70.9473 100.67L72.2997 98.5677ZM76.4687 104.406C77.0325 104.804 77.8125 104.67 78.2109 104.106C78.6092 103.543 78.4751 102.763 77.9112 102.364L76.4687 104.406ZM83.3705 106.337C82.8168 105.925 82.0337 106.04 81.6213 106.593C81.209 107.147 81.3236 107.93 81.8773 108.342L83.3705 106.337ZM87.2435 112.378C87.7945 112.794 88.5784 112.685 88.9943 112.134C89.4102 111.583 89.3007 110.799 88.7497 110.383L87.2435 112.378ZM94.1196 114.402C93.5641 113.993 92.7815 114.111 92.3716 114.666C91.9617 115.222 92.0798 116.004 92.6353 116.414L94.1196 114.402ZM98.1189 120.359C98.6851 120.754 99.4643 120.615 99.8592 120.048C100.254 119.482 100.115 118.703 99.5491 118.308L98.1189 120.359ZM105.092 122.019C104.51 121.647 103.737 121.817 103.365 122.399C102.993 122.981 103.163 123.754 103.745 124.125L105.092 122.019ZM109.551 127.64C110.151 127.982 110.914 127.773 111.256 127.173C111.598 126.574 111.389 125.81 110.789 125.468L109.551 127.64ZM116.649 128.591C116.031 128.284 115.281 128.537 114.974 129.156C114.668 129.775 114.921 130.525 115.539 130.831L116.649 128.591ZM121.731 133.664C122.368 133.931 123.101 133.632 123.368 132.995C123.635 132.358 123.336 131.626 122.699 131.359L121.731 133.664ZM128.898 133.733C128.245 133.506 127.533 133.851 127.307 134.504C127.081 135.156 127.426 135.868 128.078 136.094L128.898 133.733ZM134.555 138.117C135.22 138.303 135.909 137.914 136.094 137.249C136.28 136.584 135.891 135.894 135.226 135.709L134.555 138.117ZM141.675 137.3C141 137.155 140.335 137.584 140.189 138.258C140.043 138.933 140.472 139.598 141.147 139.744L141.675 137.3ZM147.821 140.991C148.503 141.099 149.143 140.634 149.251 139.952C149.36 139.27 148.895 138.63 148.213 138.522L147.821 140.991ZM154.812 139.396C154.126 139.322 153.509 139.819 153.436 140.506C153.362 141.192 153.859 141.808 154.545 141.882L154.812 139.396ZM161.296 142.447C161.985 142.489 162.578 141.965 162.62 141.276C162.662 140.586 162.138 139.994 161.449 139.952L161.296 142.447ZM168.107 140.217C167.417 140.204 166.846 140.752 166.833 141.443C166.82 142.133 167.368 142.703 168.058 142.717L168.107 140.217ZM174.881 142.73C175.572 142.722 176.124 142.155 176.116 141.465C176.108 140.775 175.542 140.222 174.851 140.23L174.881 142.73ZM181.446 140.067C180.756 140.093 180.218 140.674 180.244 141.363C180.27 142.053 180.851 142.591 181.541 142.565L181.446 140.067ZM188.198 142.217C188.887 142.171 189.408 141.575 189.361 140.886C189.315 140.197 188.719 139.676 188.03 139.723L188.198 142.217ZM194.594 139.175C193.907 139.244 193.406 139.857 193.475 140.543C193.544 141.23 194.157 141.731 194.844 141.662L194.594 139.175ZM201.464 140.873C202.147 140.778 202.625 140.147 202.53 139.463C202.435 138.779 201.804 138.302 201.12 138.397L201.464 140.873ZM207.591 137.361C206.912 137.485 206.462 138.136 206.586 138.815C206.71 139.494 207.361 139.944 208.04 139.82L207.591 137.361ZM214.62 138.453C215.293 138.295 215.71 137.623 215.553 136.951C215.395 136.279 214.723 135.861 214.05 136.019L214.62 138.453ZM220.381 134.353C219.718 134.547 219.339 135.242 219.534 135.904C219.728 136.567 220.423 136.946 221.086 136.751L220.381 134.353ZM227.471 134.658C228.12 134.422 228.455 133.704 228.219 133.056C227.983 132.407 227.265 132.072 226.617 132.308L227.471 134.658ZM232.676 129.867C232.045 130.148 231.76 130.886 232.041 131.517C232.321 132.148 233.06 132.432 233.69 132.152L232.676 129.867ZM239.723 129.206C240.332 128.88 240.561 128.123 240.236 127.514C239.91 126.905 239.153 126.676 238.544 127.001L239.723 129.206ZM244.195 123.708C243.611 124.077 243.437 124.849 243.806 125.432C244.175 126.016 244.947 126.19 245.531 125.821L244.195 123.708ZM251.086 122.048C251.645 121.643 251.769 120.861 251.364 120.302C250.958 119.743 250.177 119.619 249.618 120.024L251.086 122.048ZM254.843 116.033C254.303 116.463 254.214 117.25 254.645 117.79C255.075 118.329 255.861 118.418 256.401 117.988L254.843 116.033ZM261.552 113.792C262.086 113.354 262.162 112.566 261.724 112.033C261.285 111.499 260.498 111.423 259.965 111.861L261.552 113.792ZM265.153 107.674C264.609 108.099 264.511 108.884 264.936 109.428C265.36 109.973 266.146 110.07 266.69 109.646L265.153 107.674ZM271.974 105.801C272.548 105.418 272.704 104.642 272.321 104.067C271.938 103.493 271.162 103.338 270.587 103.721L271.974 105.801ZM276.424 100.286C275.809 100.598 275.563 101.351 275.876 101.966C276.188 102.582 276.941 102.827 277.556 102.515L276.424 100.286ZM24 86.75C25.1408 86.75 26.2611 86.7683 27.3617 86.8042L27.4431 84.3055C26.315 84.2687 25.1675 84.25 24 84.25V86.75ZM33.9644 87.2483C36.2289 87.4828 38.4062 87.7965 40.5058 88.1821L40.9573 85.7232C38.7926 85.3256 36.5504 85.0027 34.2219 84.7616L33.9644 87.2483ZM46.9707 89.6524C49.1447 90.2456 51.2355 90.9192 53.2558 91.6634L54.1199 89.3174C52.0335 88.549 49.8741 87.8532 47.6288 87.2406L46.9707 89.6524ZM59.3657 94.212C61.3874 95.155 63.3453 96.1677 65.2552 97.2384L66.4776 95.0576C64.5185 93.9594 62.5053 92.9179 60.4225 91.9464L59.3657 94.212ZM70.9473 100.67C72.8154 101.872 74.65 103.121 76.4687 104.406L77.9112 102.364C76.0694 101.063 74.2043 99.7927 72.2997 98.5677L70.9473 100.67ZM81.8773 108.342C83.6615 109.671 85.4428 111.019 87.2435 112.378L88.7497 110.383C86.9527 109.027 85.163 107.672 83.3705 106.337L81.8773 108.342ZM92.6353 116.414C94.4277 117.737 96.2509 119.056 98.1189 120.359L99.5491 118.308C97.7041 117.021 95.8996 115.716 94.1196 114.402L92.6353 116.414ZM103.745 124.125C105.622 125.326 107.553 126.501 109.551 127.64L110.789 125.468C108.832 124.352 106.937 123.199 105.092 122.019L103.745 124.125ZM115.539 130.831C117.532 131.818 119.592 132.765 121.731 133.664L122.699 131.359C120.61 130.481 118.597 129.556 116.649 128.591L115.539 130.831ZM128.078 136.094C130.162 136.818 132.318 137.494 134.555 138.117L135.226 135.709C133.04 135.1 130.933 134.439 128.898 133.733L128.078 136.094ZM141.147 139.744C143.3 140.209 145.523 140.626 147.821 140.991L148.213 138.522C145.959 138.164 143.782 137.755 141.675 137.3L141.147 139.744ZM154.545 141.882C156.73 142.116 158.979 142.306 161.296 142.447L161.449 139.952C159.169 139.813 156.958 139.626 154.812 139.396L154.545 141.882ZM168.058 142.717C169.19 142.739 170.337 142.75 171.5 142.75V140.25C170.353 140.25 169.222 140.239 168.107 140.217L168.058 142.717ZM171.5 142.75C172.643 142.75 173.77 142.743 174.881 142.73L174.851 140.23C173.75 140.243 172.633 140.25 171.5 140.25V142.75ZM181.541 142.565C183.828 142.478 186.046 142.362 188.198 142.217L188.03 139.723C185.903 139.866 183.71 139.981 181.446 140.067L181.541 142.565ZM194.844 141.662C197.13 141.432 199.335 141.168 201.464 140.873L201.12 138.397C199.024 138.688 196.85 138.948 194.594 139.175L194.844 141.662ZM208.04 139.82C210.328 139.402 212.519 138.945 214.62 138.453L214.05 136.019C211.99 136.501 209.84 136.95 207.591 137.361L208.04 139.82ZM221.086 136.751C223.323 136.094 225.448 135.394 227.471 134.658L226.617 132.308C224.643 133.026 222.568 133.71 220.381 134.353L221.086 136.751ZM233.69 132.152C235.819 131.207 237.824 130.221 239.723 129.206L238.544 127.001C236.698 127.988 234.748 128.947 232.676 129.867L233.69 132.152ZM245.531 125.821C247.492 124.582 249.334 123.319 251.086 122.048L249.618 120.024C247.903 121.268 246.105 122.501 244.195 123.708L245.531 125.821ZM256.401 117.988C258.181 116.569 259.888 115.16 261.552 113.792L259.965 111.861C258.295 113.234 256.604 114.629 254.843 116.033L256.401 117.988ZM266.69 109.646C268.433 108.287 270.177 106.998 271.974 105.801L270.587 103.721C268.724 104.962 266.928 106.291 265.153 107.674L266.69 109.646ZM277.556 102.515C278.507 102.032 279.482 101.576 280.487 101.151L279.513 98.8488C278.452 99.2976 277.425 99.7777 276.424 100.286L277.556 102.515Z" fill="#FFCA42"/>
<path d="M517.736 92.4898C517.178 92.0832 516.396 92.2059 515.99 92.7638C515.583 93.3217 515.706 94.1036 516.264 94.5102L517.736 92.4898ZM783.884 85.8839C784.372 85.3957 784.372 84.6043 783.884 84.1161L775.929 76.1612C775.441 75.673 774.649 75.673 774.161 76.1612C773.673 76.6493 773.673 77.4408 774.161 77.9289L781.232 85L774.161 92.0711C773.673 92.5592 773.673 93.3507 774.161 93.8388C774.649 94.327 775.441 94.327 775.929 93.8388L783.884 85.8839ZM519.166 96.7396C519.702 97.1741 520.489 97.0915 520.924 96.555C521.358 96.0185 521.275 95.2314 520.739 94.7969L519.166 96.7396ZM526.362 99.8545C525.873 99.3672 525.081 99.3685 524.594 99.8574C524.106 100.346 524.108 101.138 524.597 101.625L526.362 99.8545ZM529.53 107.02C529.974 107.549 530.762 107.617 531.291 107.173C531.819 106.729 531.888 105.941 531.444 105.412L529.53 107.02ZM536.095 111.277C535.676 110.728 534.892 110.622 534.343 111.04C533.794 111.459 533.688 112.243 534.106 112.792L536.095 111.277ZM538.643 118.706C539.072 119.247 539.858 119.338 540.399 118.91C540.94 118.481 541.031 117.695 540.602 117.154L538.643 118.706ZM545.378 122.681C544.898 122.184 544.107 122.17 543.61 122.65C543.114 123.129 543.1 123.92 543.579 124.417L545.378 122.681ZM549.268 129.483C549.82 129.898 550.603 129.788 551.019 129.237C551.434 128.686 551.324 127.902 550.773 127.486L549.268 129.483ZM556.876 131.32C556.263 131.003 555.509 131.242 555.191 131.855C554.874 132.468 555.113 133.222 555.726 133.54L556.876 131.32ZM562.705 136.53C563.357 136.759 564.07 136.416 564.298 135.764C564.527 135.113 564.184 134.399 563.532 134.171L562.705 136.53ZM570.531 136.193C569.859 136.035 569.186 136.452 569.028 137.124C568.871 137.796 569.287 138.469 569.959 138.627L570.531 136.193ZM577.366 140.048C578.048 140.152 578.686 139.684 578.791 139.002C578.896 138.319 578.427 137.681 577.745 137.577L577.366 140.048ZM585.024 138.468C584.336 138.403 583.727 138.907 583.662 139.595C583.597 140.282 584.101 140.892 584.789 140.957L585.024 138.468ZM592.275 141.488C592.965 141.522 593.551 140.991 593.586 140.301C593.62 139.612 593.089 139.025 592.399 138.991L592.275 141.488ZM599.75 139.223C599.06 139.212 598.492 139.764 598.482 140.454C598.472 141.144 599.023 141.712 599.713 141.722L599.75 139.223ZM606.928 141.71C607.618 141.694 608.165 141.122 608.148 140.432C608.132 139.741 607.56 139.195 606.87 139.211L606.928 141.71ZM613.574 138.902C612.886 138.949 612.366 139.546 612.413 140.235C612.461 140.923 613.057 141.443 613.746 141.396L613.574 138.902ZM620.542 140.775C621.228 140.697 621.721 140.078 621.643 139.392C621.565 138.706 620.946 138.213 620.26 138.291L620.542 140.775ZM626.915 137.39C626.233 137.497 625.767 138.137 625.874 138.819C625.981 139.501 626.621 139.967 627.303 139.859L626.915 137.39ZM634.017 138.663C634.694 138.528 635.134 137.87 634.999 137.193C634.864 136.516 634.206 136.076 633.529 136.211L634.017 138.663ZM640.095 134.772C639.423 134.933 639.009 135.607 639.17 136.278C639.33 136.95 640.005 137.364 640.676 137.204L640.095 134.772ZM647.274 135.5C647.939 135.315 648.329 134.627 648.145 133.961C647.96 133.296 647.272 132.906 646.606 133.091L647.274 135.5ZM653.06 131.187C652.401 131.393 652.034 132.094 652.24 132.753C652.446 133.411 653.147 133.779 653.806 133.573L653.06 131.187ZM660.272 131.444C660.924 131.218 661.27 130.507 661.045 129.854C660.819 129.202 660.108 128.856 659.455 129.081L660.272 131.444ZM665.792 126.795C665.146 127.038 664.819 127.759 665.061 128.405C665.304 129.051 666.025 129.378 666.671 129.136L665.792 126.795ZM673.007 126.671C673.648 126.413 673.958 125.685 673.7 125.045C673.443 124.404 672.715 124.094 672.074 124.351L673.007 126.671ZM678.306 121.771C677.671 122.041 677.375 122.775 677.645 123.41C677.915 124.046 678.649 124.342 679.285 124.071L678.306 121.771ZM685.512 121.359C686.143 121.078 686.427 120.339 686.146 119.709C685.866 119.078 685.127 118.794 684.496 119.075L685.512 121.359ZM690.65 116.286C690.023 116.575 689.749 117.318 690.038 117.945C690.326 118.572 691.069 118.846 691.696 118.557L690.65 116.286ZM697.844 115.689C698.468 115.395 698.736 114.65 698.441 114.026C698.147 113.401 697.402 113.134 696.777 113.428L697.844 115.689ZM702.887 110.523C702.265 110.821 702.001 111.568 702.299 112.19C702.597 112.813 703.343 113.077 703.966 112.779L702.887 110.523ZM710.073 109.85C710.696 109.551 710.958 108.805 710.659 108.182C710.361 107.56 709.614 107.297 708.992 107.596L710.073 109.85ZM715.102 104.672C714.479 104.969 714.214 105.715 714.511 106.338C714.808 106.961 715.553 107.226 716.177 106.929L715.102 104.672ZM722.288 104.045C722.914 103.753 723.184 103.009 722.892 102.383C722.6 101.758 721.857 101.487 721.231 101.779L722.288 104.045ZM727.395 98.9469C726.766 99.2308 726.486 99.9711 726.769 100.6C727.053 101.23 727.794 101.51 728.423 101.226L727.395 98.9469ZM734.603 98.5026C735.238 98.2304 735.532 97.4955 735.259 96.8611C734.987 96.2266 734.252 95.9329 733.618 96.205L734.603 98.5026ZM739.904 93.5978C739.263 93.8538 738.951 94.5812 739.207 95.2223C739.463 95.8634 740.19 96.1755 740.831 95.9194L739.904 93.5978ZM747.118 93.5211C747.767 93.286 748.102 92.5692 747.867 91.9201C747.632 91.271 746.915 90.9355 746.266 91.1706L747.118 93.5211ZM752.716 88.9759C752.058 89.1845 751.693 89.8871 751.902 90.5452C752.111 91.2033 752.813 91.5677 753.471 91.3591L752.716 88.9759ZM759.919 89.486C760.587 89.3106 760.986 88.6271 760.811 87.9594C760.635 87.2917 759.952 86.8926 759.284 87.068L759.919 89.486ZM765.953 85.5229C765.276 85.6578 764.837 86.316 764.972 86.9931C765.106 87.6701 765.765 88.1096 766.442 87.9747L765.953 85.5229ZM773.029 86.8969C773.714 86.8103 774.199 86.1848 774.112 85.4999C774.025 84.815 773.4 84.33 772.715 84.4167L773.029 86.8969ZM779.562 83.8269C778.872 83.8575 778.338 84.4414 778.369 85.131C778.399 85.8207 778.983 86.355 779.673 86.3244L779.562 83.8269ZM516.264 94.5102C517.278 95.2492 518.243 95.9927 519.166 96.7396L520.739 94.7969C519.784 94.0235 518.785 93.2541 517.736 92.4898L516.264 94.5102ZM524.597 101.625C526.398 103.42 528.02 105.223 529.53 107.02L531.444 105.412C529.896 103.57 528.224 101.711 526.362 99.8545L524.597 101.625ZM534.106 112.792C535.63 114.791 537.119 116.784 538.643 118.706L540.602 117.154C539.098 115.255 537.638 113.301 536.095 111.277L534.106 112.792ZM543.579 124.417C545.297 126.196 547.161 127.894 549.268 129.483L550.773 127.486C548.786 125.988 547.019 124.38 545.378 122.681L543.579 124.417ZM555.726 133.54C557.831 134.631 560.141 135.632 562.705 136.53L563.532 134.171C561.073 133.309 558.872 132.354 556.876 131.32L555.726 133.54ZM569.959 138.627C572.253 139.166 574.715 139.641 577.366 140.048L577.745 137.577C575.154 137.179 572.756 136.716 570.531 136.193L569.959 138.627ZM584.789 140.957C587.152 141.18 589.644 141.358 592.275 141.488L592.399 138.991C589.802 138.862 587.347 138.687 585.024 138.468L584.789 140.957ZM599.713 141.722C600.948 141.741 602.21 141.75 603.5 141.75V139.25C602.222 139.25 600.972 139.241 599.75 139.223L599.713 141.722ZM603.5 141.75C604.647 141.75 605.79 141.737 606.928 141.71L606.87 139.211C605.751 139.237 604.628 139.25 603.5 139.25V141.75ZM613.746 141.396C616.031 141.238 618.296 141.03 620.542 140.775L620.26 138.291C618.05 138.542 615.821 138.747 613.574 138.902L613.746 141.396ZM627.303 139.859C629.56 139.505 631.798 139.105 634.017 138.663L633.529 136.211C631.342 136.646 629.137 137.041 626.915 137.39L627.303 139.859ZM640.676 137.204C642.894 136.673 645.093 136.104 647.274 135.5L646.606 133.091C644.453 133.687 642.282 134.249 640.095 134.772L640.676 137.204ZM653.806 133.573C655.979 132.893 658.134 132.183 660.272 131.444L659.455 129.081C657.339 129.812 655.208 130.515 653.06 131.187L653.806 133.573ZM666.671 129.136C668.799 128.337 670.911 127.514 673.007 126.671L672.074 124.351C669.995 125.187 667.901 126.003 665.792 126.795L666.671 129.136ZM679.285 124.071C681.376 123.182 683.452 122.276 685.512 121.359L684.496 119.075C682.446 119.987 680.383 120.887 678.306 121.771L679.285 124.071ZM691.696 118.557C693.76 117.607 695.809 116.649 697.844 115.689L696.777 113.428C694.747 114.386 692.705 115.34 690.65 116.286L691.696 118.557ZM703.966 112.779C706.015 111.799 708.051 110.821 710.073 109.85L708.992 107.596C706.968 108.567 704.934 109.544 702.887 110.523L703.966 112.779ZM716.177 106.929C718.226 105.953 720.263 104.99 722.288 104.045L721.231 101.779C719.198 102.728 717.155 103.694 715.102 104.672L716.177 106.929ZM728.423 101.226C730.494 100.291 732.554 99.3814 734.603 98.5026L733.618 96.205C731.552 97.0909 729.478 98.0069 727.395 98.9469L728.423 101.226ZM740.831 95.9194C742.937 95.0783 745.032 94.2767 747.118 93.5211L746.266 91.1706C744.152 91.9364 742.032 92.7477 739.904 93.5978L740.831 95.9194ZM753.471 91.3591C755.63 90.675 757.778 90.0483 759.919 89.486L759.284 87.068C757.099 87.6418 754.911 88.2804 752.716 88.9759L753.471 91.3591ZM766.442 87.9747C768.644 87.5357 770.84 87.1739 773.029 86.8969L772.715 84.4167C770.463 84.7015 768.21 85.0732 765.953 85.5229L766.442 87.9747ZM779.673 86.3244C780.783 86.2751 781.892 86.25 783 86.25V83.75C781.854 83.75 780.708 83.776 779.562 83.8269L779.673 86.3244Z" fill="#FFCA42"/>
<path d="M272.605 78.6038L271.302 72M271.954 91.8491L268.698 87.8868M282.372 91.8491L284.326 85.9057M295.5 102.415L301.36 103.736M285.628 106.377L289.535 111M290.837 92.5L298 90.5189" stroke="#FFCA42" stroke-width="2" stroke-linecap="round"/>
<path d="M500.486 109.343L495.499 113.864M512.17 103.071L510.454 107.904M506.798 94.1442L500.698 95.535M509.082 77.448L507.192 71.7457M517.567 83.8633L519.513 78.1321M502.991 86.5556L497.6 81.44" stroke="#FFCA42" stroke-width="2" stroke-linecap="round"/>
<path d="M405.5 0C394.202 0 385 9.30234 385 20.7239C385 37.9016 403.222 54.0197 404.02 54.7108C404.868 55.4498 406.132 55.4498 406.98 54.7108C407.777 54.0197 426 37.9016 426 20.7239C426 9.30234 416.798 0 405.5 0ZM405.5 32.2373C399.213 32.2373 394.111 27.0793 394.111 20.7239C394.111 14.3685 399.213 9.2105 405.5 9.2105C411.787 9.2105 416.889 14.3685 416.889 20.7239C416.889 27.0793 411.787 32.2373 405.5 32.2373Z" fill="#87A3E3"/>
<path d="M12 42C5.38644 42 0 47.4817 0 54.2123C0 64.3349 10.6665 73.833 11.1335 74.2403C11.6294 74.675 12.3706 74.675 12.8665 74.2403C13.3328 73.833 24 64.3349 24 54.2123C24 47.4817 18.6136 42 12 42ZM12 60.997C8.31997 60.997 5.33326 57.9574 5.33326 54.2123C5.33326 50.4672 8.31997 47.4276 12 47.4276C15.68 47.4276 18.6667 50.4672 18.6667 54.2123C18.6667 57.9574 15.68 60.997 12 60.997Z" fill="#87A3E3"/>
<path d="M783 37C776.386 37 771 42.4817 771 49.2123C771 59.3349 781.667 68.833 782.134 69.2403C782.629 69.675 783.371 69.675 783.867 69.2403C784.333 68.833 795 59.3349 795 49.2123C795 42.4817 789.614 37 783 37ZM783 55.997C779.32 55.997 776.333 52.9574 776.333 49.2123C776.333 45.4672 779.32 42.4276 783 42.4276C786.68 42.4276 789.667 45.4672 789.667 49.2123C789.667 52.9574 786.68 55.997 783 55.997Z" fill="#87A3E3"/>
<path d="M607 95C600.386 95 595 100.482 595 107.212C595 117.335 605.667 126.833 606.134 127.24C606.629 127.675 607.371 127.675 607.867 127.24C608.333 126.833 619 117.335 619 107.212C619 100.482 613.614 95 607 95ZM607 113.997C603.32 113.997 600.333 110.957 600.333 107.212C600.333 103.467 603.32 100.428 607 100.428C610.68 100.428 613.667 103.467 613.667 107.212C613.667 110.957 610.68 113.997 607 113.997Z" fill="#87A3E3"/>
<path d="M172 95C165.386 95 160 100.482 160 107.212C160 117.335 170.667 126.833 171.134 127.24C171.629 127.675 172.371 127.675 172.867 127.24C173.333 126.833 184 117.335 184 107.212C184 100.482 178.614 95 172 95ZM172 113.997C168.32 113.997 165.333 110.957 165.333 107.212C165.333 103.467 168.32 100.428 172 100.428C175.68 100.428 178.667 103.467 178.667 107.212C178.667 110.957 175.68 113.997 172 113.997Z" fill="#87A3E3"/>
</svg>
