<svg width="195" height="63" viewBox="0 0 195 63" fill="none" xmlns="http://www.w3.org/2000/svg">
<g clip-path="url(#clip0_2001_5277)">
<path fill-rule="evenodd" clip-rule="evenodd" d="M31.4856 0V7.35431C44.7866 7.35431 55.617 18.1847 55.617 31.4856C55.617 44.7866 44.7866 55.617 31.4856 55.617C18.1847 55.617 7.35431 44.7866 7.35431 31.4856C7.35431 28.814 7.78523 26.2285 8.5896 23.8153H18.156V32.29C18.156 39.9603 24.3899 46.1943 32.0602 46.1943C39.7305 46.1943 45.9644 39.9603 45.9644 32.29H37.8345C37.8345 35.4788 35.249 38.0643 32.0602 38.0643C28.8714 38.0643 26.2859 35.4788 26.2859 32.29V23.844H35.1053L38.9549 15.7141H26.3146V0.430917C23.4419 0.919289 20.7127 1.78112 18.1847 2.95896V15.7141H4.25171C2.95896 17.9549 1.92476 20.368 1.20657 22.896C1.20657 22.9248 1.17784 22.9535 1.17784 22.9822C1.12038 23.212 1.06293 23.4419 1.00547 23.7004C1.00547 23.7579 0.976744 23.8153 0.976744 23.844C0.316005 26.2859 0 28.8427 0 31.4856C0 48.8372 14.1341 62.9713 31.4856 62.9713C48.8372 62.9713 62.9713 48.8372 62.9713 31.4856C63 14.1341 48.8659 0 31.4856 0Z" fill="white"/>
</g>
<path fill-rule="evenodd" clip-rule="evenodd" d="M94.3642 8.35418V6.84766H83.6816V8.35418H88.2012V22.5977H89.8447V8.35418H94.3642ZM103.951 17.1194C103.951 15.4759 103.677 13.9694 102.582 12.7368C101.897 11.915 100.801 11.5042 99.4316 11.5042C98.0621 11.5042 97.1034 11.915 96.2816 12.7368C95.186 13.8324 94.9121 15.339 94.9121 17.1194C94.9121 18.8998 95.186 20.2694 96.2816 21.502C96.9664 22.3237 98.0621 22.7346 99.4316 22.7346C100.801 22.7346 101.76 22.3237 102.582 21.502C103.677 20.2694 103.951 18.7629 103.951 17.1194ZM102.308 17.1194C102.308 18.352 102.308 19.5846 101.486 20.4064C100.938 20.9542 100.253 21.2281 99.5686 21.2281C98.7469 21.2281 98.199 20.9542 97.6512 20.4064C96.8295 19.5846 96.8295 18.215 96.8295 17.1194C96.8295 15.8868 96.9664 14.5172 97.6512 13.8324C98.199 13.2846 98.8838 13.0107 99.5686 13.0107C100.39 13.0107 101.075 13.2846 101.486 13.8324C102.308 14.5172 102.308 15.8868 102.308 17.1194ZM114.771 22.4607V11.6411H113.127V16.8455C112.443 16.9824 111.347 17.2564 110.114 17.2564C108.882 17.2564 108.197 16.7085 108.197 15.339V11.6411H106.553V15.6129C106.553 17.8042 107.786 18.7629 109.703 18.7629C110.936 18.7629 112.169 18.489 112.99 18.352V22.5977H114.771V22.4607ZM120.386 22.4607V11.6411H118.743V22.4607H120.386ZM127.645 22.4607L122.303 16.7085L127.234 11.6411H125.316L120.386 16.8455L125.453 22.4607H127.645ZM137.232 22.4607V15.202C137.232 12.8737 135.862 11.6411 132.849 11.6411C131.069 11.6411 129.973 12.052 129.014 13.2846L130.11 14.2433C130.795 13.2846 131.479 13.0107 132.849 13.0107C134.903 13.0107 135.588 13.8324 135.588 15.339V16.4346H132.301C129.836 16.4346 128.603 17.6672 128.603 19.5846C128.603 20.4064 128.877 21.2281 129.425 21.7759C130.11 22.4607 130.932 22.7346 132.438 22.7346C133.945 22.7346 134.766 22.4607 135.588 21.502V22.5977H137.232V22.4607ZM135.588 18.6259C135.588 19.5846 135.451 20.1324 135.04 20.5433C134.356 21.2281 133.534 21.2281 132.575 21.2281C130.795 21.2281 130.11 20.6803 130.11 19.3107C130.11 18.0781 130.932 17.3933 132.575 17.3933H135.588V18.6259Z" fill="white"/>
<path fill-rule="evenodd" clip-rule="evenodd" d="M92.1712 54.9186C96.9647 54.9186 100.526 52.1794 100.526 47.9338C100.526 45.3316 99.156 43.5512 97.1017 42.5925C98.8821 41.6338 100.115 39.8533 100.115 37.5251C100.115 33.5533 96.8278 31.0881 92.1712 31.0881C87.7886 31.0881 84.3647 33.5533 83.543 38.3468H88.0625C88.4734 36.4294 89.706 34.9229 92.0343 34.9229C94.0886 34.9229 95.4582 36.0186 95.4582 37.799C95.4582 39.7164 94.2256 40.812 92.3082 40.812H89.2951V44.5099H92.3082C94.6364 44.5099 95.8691 45.7425 95.8691 47.6599C95.8691 49.5773 94.3625 50.8099 92.1712 50.8099C89.843 50.8099 88.6104 49.3033 88.1995 47.5229H83.6799C84.5017 52.4533 87.9256 54.9186 92.1712 54.9186ZM119.015 54.6447V37.5251H114.769V43.962H109.291V37.5251H105.045V54.6447H109.291V47.7968H114.769V54.6447H119.015ZM136.682 54.6447V43.4142C136.682 39.4425 134.217 37.3881 129.423 37.3881C126.547 37.3881 124.904 37.936 123.26 39.8533L125.999 42.4555C126.958 41.3599 127.78 40.949 129.286 40.949C131.615 40.949 132.436 41.7707 132.436 43.6881V44.5099H128.465C124.356 44.5099 122.576 46.7012 122.576 49.4403C122.576 50.9468 123.123 52.3164 123.945 53.2751C124.904 54.2338 126.41 54.7816 128.328 54.7816C130.245 54.7816 131.341 54.2338 132.573 53.1381V54.6447H136.682ZM132.436 48.3446C132.436 49.4403 132.299 50.1251 131.752 50.536C131.067 51.2207 130.245 51.3577 129.286 51.3577C127.506 51.3577 126.684 50.536 126.684 49.4403C126.684 48.2077 127.506 47.5229 129.149 47.5229H132.436V48.3446ZM155.308 54.6447V37.5251H151.063V43.962H145.584V37.5251H141.339V54.6447H145.584V47.7968H151.063V54.6447H155.308ZM174.756 54.6447V37.5251H170.51L164.484 47.6599V37.5251H160.102V54.6447H164.347L170.373 44.236V54.6447H174.756ZM192.013 30.9512H188.863C188.726 32.4577 187.904 33.0055 186.808 33.0055C185.576 33.0055 184.754 32.4577 184.754 30.9512H181.467C181.604 34.512 184.206 35.6077 186.808 35.6077C189.273 35.6077 192.013 34.512 192.013 30.9512ZM194.067 54.6447V37.5251H189.821L183.795 47.6599V37.5251H179.549V54.6447H183.795L189.821 44.236V54.6447H194.067Z" fill="white"/>
<defs>
<clipPath id="clip0_2001_5277">
<rect width="63" height="63" fill="white"/>
</clipPath>
</defs>
</svg>
