<svg width="86" height="48" viewBox="0 0 86 48" fill="none" xmlns="http://www.w3.org/2000/svg">
<g filter="url(#filter0_d_1_1375)">
<rect x="13" y="7" width="20" height="22" rx="3" fill="white"/>
</g>
<path d="M26.1923 22.9322H24.3021V14.3425H23.458C21.9126 14.3425 21.1042 15.0519 21.1042 16.1106C21.1042 17.3112 21.6629 17.8679 22.8161 18.5773L23.7671 19.1667L21.0329 22.9322H19L21.4608 19.5705C20.0461 18.6428 19.2496 17.7369 19.2496 16.2089C19.2496 14.2988 20.7 13 23.4461 13H26.1804L26.1923 22.9322Z" fill="#FC3F1D"/>
<g filter="url(#filter1_d_1_1375)">
<rect x="37" y="7" width="36" height="22" rx="3" fill="white"/>
</g>
<path d="M42.2333 15.2094H47.7665C47.8954 15.2094 47.9998 15.3123 47.9998 15.4391V16.5099C47.9998 16.6526 47.9369 16.7876 47.8275 16.8811L44.7333 19.4286H47.7665C47.8954 19.4286 47.9998 19.5295 47.9998 19.6563V20.8857C47.9998 21.0125 47.8954 21.1153 47.7665 21.1153H42.2333C42.1045 21.1153 42 21.0125 42 20.8857V19.8166C42 19.674 42.0629 19.5389 42.1724 19.4454L45.2666 16.898H42.2333C42.1045 16.898 42 16.7928 42 16.666V15.4391C42 15.3123 42.1045 15.2094 42.2333 15.2094ZM51.8569 15C52.4967 15 53.067 15.1416 53.5432 15.4003C54.0194 15.6591 54.4014 16.035 54.6643 16.5036C54.9272 16.9723 55.0711 17.5336 55.0711 18.1633C55.0711 18.7929 54.9272 19.3543 54.6643 19.8229C54.4014 20.2915 54.0194 20.6674 53.5432 20.9262C53.067 21.1849 52.4967 21.3265 51.8569 21.3265C51.2171 21.3265 50.6467 21.1849 50.1705 20.9262C49.6943 20.6674 49.3124 20.2915 49.0495 19.8229C48.7865 19.3543 48.6427 18.7929 48.6427 18.1633C48.6427 17.5336 48.7865 16.9723 49.0495 16.5036C49.3124 16.035 49.6943 15.6591 50.1705 15.4003C50.6467 15.1416 51.2171 15 51.8569 15ZM51.8569 16.6871C51.5508 16.6871 51.2822 16.7507 51.0599 16.869C50.8377 16.9873 50.662 17.1603 50.5418 17.379C50.4216 17.5977 50.3569 17.8621 50.3569 18.1633C50.3569 18.4645 50.4216 18.7289 50.5418 18.9476C50.662 19.1663 50.8377 19.3392 51.0599 19.4575C51.2822 19.5758 51.5508 19.6395 51.8569 19.6395C52.1629 19.6395 52.4316 19.5758 52.6538 19.4575C52.876 19.3392 53.0518 19.1663 53.172 18.9476C53.2922 18.7289 53.3568 18.4645 53.3568 18.1633C53.3568 17.8621 53.2922 17.5977 53.172 17.379C53.0518 17.1603 52.876 16.9873 52.6538 16.869C52.4316 16.7507 52.1629 16.6871 51.8569 16.6871ZM58.7138 15C59.3536 15 59.924 15.1416 60.4002 15.4003C60.8764 15.6591 61.2583 16.035 61.5212 16.5036C61.7842 16.9723 61.928 17.5336 61.928 18.1633C61.928 18.7929 61.7842 19.3543 61.5212 19.8229C61.2583 20.2915 60.8764 20.6674 60.4002 20.9262C59.924 21.1849 59.3536 21.3265 58.7138 21.3265C58.074 21.3265 57.5036 21.1849 57.0275 20.9262C56.5513 20.6674 56.1693 20.2915 55.9064 19.8229C55.6435 19.3543 55.4996 18.7929 55.4996 18.1633C55.4996 17.5336 55.6435 16.9723 55.9064 16.5036C56.1693 16.035 56.5513 15.6591 57.0275 15.4003C57.5036 15.1416 58.074 15 58.7138 15ZM58.7138 16.6871C58.4078 16.6871 58.1391 16.7507 57.9169 16.869C57.6947 16.9873 57.5189 17.1603 57.3987 17.379C57.2785 17.5977 57.2139 17.8621 57.2139 18.1633C57.2139 18.4645 57.2785 18.7289 57.3987 18.9476C57.5189 19.1663 57.6947 19.3392 57.9169 19.4575C58.1391 19.5758 58.4078 19.6395 58.7138 19.6395C59.0199 19.6395 59.2885 19.5758 59.5108 19.4575C59.733 19.3392 59.9087 19.1663 60.0289 18.9476C60.1491 18.7289 60.2138 18.4645 60.2138 18.1633C60.2138 17.8621 60.1491 17.5977 60.0289 17.379C59.9087 17.1603 59.733 16.9873 59.5108 16.869C59.2885 16.7507 59.0199 16.6871 58.7138 16.6871ZM68.5714 15.4398V20.8856C68.5714 21.0124 68.467 21.1152 68.3381 21.1152H67.2507C67.1058 21.1152 66.9686 21.0534 66.8736 20.9456L64.2851 17.9008V20.8856C64.2851 21.0124 64.1783 21.1152 64.0494 21.1152H62.8035C62.6746 21.1152 62.5701 21.0124 62.5701 20.8856V15.4398C62.5701 15.313 62.6746 15.2102 62.8035 15.2102H63.8908C64.0358 15.2102 64.173 15.2721 64.268 15.3799L66.8565 18.4257V15.4398C66.8565 15.313 66.959 15.2102 67.0879 15.2102H68.3381C68.467 15.2102 68.5714 15.313 68.5714 15.4398Z" fill="url(#paint0_linear_1_1375)"/>
<defs>
<filter id="filter0_d_1_1375" x="0.8" y="0.8" width="44.4" height="46.4" filterUnits="userSpaceOnUse" color-interpolation-filters="sRGB">
<feFlood flood-opacity="0" result="BackgroundImageFix"/>
<feColorMatrix in="SourceAlpha" type="matrix" values="0 0 0 0 0 0 0 0 0 0 0 0 0 0 0 0 0 0 127 0" result="hardAlpha"/>
<feOffset dy="6"/>
<feGaussianBlur stdDeviation="6.1"/>
<feComposite in2="hardAlpha" operator="out"/>
<feColorMatrix type="matrix" values="0 0 0 0 0 0 0 0 0 0 0 0 0 0 0 0 0 0 0.06 0"/>
<feBlend mode="normal" in2="BackgroundImageFix" result="effect1_dropShadow_1_1375"/>
<feBlend mode="normal" in="SourceGraphic" in2="effect1_dropShadow_1_1375" result="shape"/>
</filter>
<filter id="filter1_d_1_1375" x="24.8" y="0.8" width="60.4" height="46.4" filterUnits="userSpaceOnUse" color-interpolation-filters="sRGB">
<feFlood flood-opacity="0" result="BackgroundImageFix"/>
<feColorMatrix in="SourceAlpha" type="matrix" values="0 0 0 0 0 0 0 0 0 0 0 0 0 0 0 0 0 0 127 0" result="hardAlpha"/>
<feOffset dy="6"/>
<feGaussianBlur stdDeviation="6.1"/>
<feComposite in2="hardAlpha" operator="out"/>
<feColorMatrix type="matrix" values="0 0 0 0 0 0 0 0 0 0 0 0 0 0 0 0 0 0 0.06 0"/>
<feBlend mode="normal" in2="BackgroundImageFix" result="effect1_dropShadow_1_1375"/>
<feBlend mode="normal" in="SourceGraphic" in2="effect1_dropShadow_1_1375" result="shape"/>
</filter>
<linearGradient id="paint0_linear_1_1375" x1="68.9816" y1="16.9486" x2="56.792" y2="16.8096" gradientUnits="userSpaceOnUse">
<stop stop-color="#6339F5"/>
<stop offset="1" stop-color="#3D3F55"/>
</linearGradient>
</defs>
</svg>
