<svg width="61" height="198" viewBox="0 0 61 198" fill="none" xmlns="http://www.w3.org/2000/svg">
<g opacity="0.57">
<path opacity="0.75" d="M17.1769 20.4914C14.809 19.3774 14.2676 19.3703 11.6789 18.5783C9.197 17.896 7.59128 16.4672 6.96006 15.051C6.32884 13.6349 6.56385 12.2302 7.12226 10.9379C7.68067 9.64569 8.22489 9.43623 9.10246 8.58136C9.98003 7.72649 11.1966 5.79311 11.9631 5.15337C12.6213 4.51222 13.2894 3.11313 14.2766 2.1514C15.2639 1.18968 16.6914 -0.30776 17.9822 0.35893C19.273 1.02562 19.7018 1.35613 19.9014 2.65829C20.2092 3.96188 20.8404 5.37799 21.8064 6.04043C22.7724 6.70286 25.1176 9.54929 25.9781 9.99375C26.8387 10.4382 29.1995 12.0936 30.0529 13.0794C30.9064 14.0653 32.5206 14.8445 33.4823 15.8318C34.4441 16.819 38.6186 20.5558 39.5789 21.6513C40.5392 22.7469 42.9956 25.3782 43.7436 26.146C44.3819 27.0208 47.0576 29.4383 47.4822 30.0937C47.9068 30.749 49.5083 32.5027 50.148 33.2692C50.6809 33.9259 52.0715 35.2437 52.9206 36.5544C53.7698 37.8651 56.2262 40.4964 56.6465 41.4765C57.0668 42.4567 58.456 43.8828 58.5558 44.5338C58.6555 45.1849 59.1813 46.3831 59.3865 47.2521C59.4834 48.1198 58.8097 49.952 58.3538 51.6787C57.8966 53.5138 56.5647 55.9871 56.2228 57.2822C55.7727 58.5758 54.7854 59.5376 53.9234 59.2014C53.0615 58.8652 52.54 57.3422 52.2236 56.6883C51.9073 56.0344 49.7914 52.2163 49.3697 51.3444C48.9479 50.4725 44.162 43.8038 42.3468 41.8306C40.5316 39.8575 39.1311 39.2977 39.3576 38.5426C39.4744 37.8943 39.0455 37.5638 38.2919 37.2291C37.4299 36.8929 36.897 36.2361 36.2573 35.4697C35.6161 34.8115 31.2321 30.5305 30.1593 29.7584C29.085 29.0945 26.5147 26.8949 25.4433 26.0145C24.3719 25.1341 24.1482 25.6727 23.6196 24.6911C23.091 23.7095 21.682 23.7993 21.1519 22.926C20.4011 22.3747 18.4691 21.0498 17.1769 20.4914Z" fill="#9C8FCD" fill-opacity="0.46"/>
<path opacity="0.75" d="M47.4463 98.969C47.992 98.6512 48.6586 97.3604 49.1145 95.6337C49.5561 94.9897 49.9977 94.3457 50.2199 93.9154C50.8824 92.9494 52.1273 88.8505 52.3567 87.8788C52.5831 87.1237 52.5888 86.6906 52.2668 86.4698C52.0616 85.6008 51.7481 84.7303 51.4389 83.535C51.0299 81.6886 48.8984 79.0616 46.6601 76.3248C44.4231 73.4798 30.2039 59.4316 28.1707 57.564C26.1376 55.6963 24.1143 53.0707 25.4108 53.3042C26.8156 53.5392 33.2853 55.6816 36.7346 56.9181C37.9199 57.3668 43.8582 58.7442 45.1546 58.9778C46.4497 59.3196 52.4036 59.5059 53.7071 59.1981C55.0107 58.8903 55.4509 58.3546 56.0065 57.2789C56.5621 56.2032 57.1219 54.8027 57.4581 53.9408C57.7943 53.0788 59.025 50.0627 59.3655 48.8759C59.7045 47.7973 58.4236 46.3727 57.8851 46.1491C57.8851 46.1491 55.8264 46.2304 54.2022 46.2091C52.6863 46.1892 47.6016 45.7977 46.6271 45.7849C45.6526 45.7722 42.7291 45.7339 41.3286 45.174C39.9281 44.6142 33.8887 42.694 32.1676 41.8051C30.3382 40.9148 23.7659 38.3379 22.1545 37.3421C20.4349 36.3449 13.0063 32.9987 11.6058 32.4388C10.2053 31.879 9.54851 32.4119 8.45723 33.0474C7.47422 33.6842 6.90871 35.5179 6.02547 36.8058C5.14222 38.0938 3.47692 41.2126 2.70479 42.2854C2.70479 42.2854 1.82154 43.5734 2.01682 45.2004C2.21209 46.8274 2.21493 46.6108 3.14686 49.8719C4.07879 53.133 6.13322 53.3765 7.51102 55.6688C8.88884 57.9611 13.9225 62.2506 15.9557 64.1182C17.9888 65.9859 29.4383 76.5323 31.4644 78.9414C31.9972 79.5982 32.9575 80.6937 34.1316 82.0086C32.7296 81.5571 31.4346 81.2152 30.5712 80.9873C27.7645 80.3008 23.8821 79.0586 22.0442 78.818C20.0967 78.6841 17.4909 79.1915 16.8271 80.2657C16.1618 81.4483 14.9353 84.1396 13.7229 85.7482C12.5106 87.3567 11.0633 90.37 11.0448 91.7776C11.0264 93.1852 12.4397 92.7706 13.6307 92.7862C14.8218 92.8018 17.0871 93.4812 18.7041 94.0439C20.3226 94.4983 23.3515 94.7546 25.1823 95.5367C27.0145 96.2104 33.279 97.4838 33.9258 97.7089C34.5727 97.9339 42.8916 99.4508 44.8377 99.6929C45.2694 99.8068 45.7039 99.7042 46.0302 99.6002C46.3493 100.038 46.8992 99.395 47.4463 98.969Z" fill="#9C8FCD" fill-opacity="0.46"/>
<path opacity="0.75" d="M16.8265 80.265C16.1555 81.8807 13.2949 85.3087 12.51 87.356C11.8334 89.4048 9.63379 91.975 12.831 95.9156C16.0283 99.8561 23.1164 104.389 27.0617 109.098C30.8986 113.805 35.4794 119.604 38.4657 123.109C38.4657 123.109 33.8226 122.073 30.3605 121.811C26.8985 121.549 23.6232 123.564 22.1816 126.144C20.7399 128.725 19.294 131.63 18.6131 134.003C17.9336 136.269 18.971 139.748 20.3502 141.932C21.7309 144.007 24.7286 146.646 25.7901 148.284C26.9599 149.924 34.6622 157.172 33.9969 158.355C33.3316 159.537 30.0379 162.96 28.8199 165.001C27.6019 167.043 24.8311 171.88 25.2373 173.943C25.6434 176.006 27.4501 178.629 28.6227 180.052C29.7953 181.475 32.2644 183.132 33.4441 184.014C34.6224 185.004 35.2692 185.229 37.5005 188.507C39.7317 191.785 39.3043 191.346 40.9043 193.208C42.5044 195.07 42.5072 194.854 42.728 194.532C42.8406 194.208 42.9488 194.21 43.1668 194.104C43.3848 193.999 43.6013 194.002 43.7068 194.22C43.9205 194.439 44.2411 194.768 44.4519 195.204C44.6628 195.64 45.0846 196.512 45.0888 196.187C45.0931 195.862 44.9862 195.753 45.2042 195.647C45.4222 195.542 45.6387 195.545 45.7428 195.871C45.8468 196.197 46.0577 196.633 46.3853 196.421C46.713 196.208 47.1518 195.781 47.1518 195.781C47.1518 195.781 47.3669 195.892 47.2629 195.566C47.0506 195.238 46.7314 194.801 46.7343 194.584C46.7371 194.368 47.2785 194.375 47.3854 194.484C47.4922 194.594 48.0251 195.251 48.2346 195.795C48.5523 196.341 48.662 196.234 48.8729 196.67C49.0838 197.106 49.514 197.328 49.4114 196.894C49.3088 196.459 48.9925 195.805 48.7816 195.369C48.5693 195.041 48.3584 194.606 48.2516 194.496C48.1461 194.278 48.0393 194.168 48.149 194.061C48.2587 193.954 48.8015 193.853 48.8015 193.853C48.8015 193.853 49.1249 193.966 49.3386 194.185C49.5523 194.405 49.5495 194.621 49.6549 194.839C49.8686 195.058 50.088 194.845 50.1992 194.63C50.3089 194.523 50.5353 193.768 50.4285 193.658C50.323 193.44 49.8999 192.676 49.9027 192.46C49.9055 192.243 44.8331 182.647 43.9839 181.336C43.2416 180.135 40.2694 175.548 39.8476 174.676C39.4259 173.804 39.0069 172.715 39.5512 172.506C40.0954 172.297 43.6184 167.903 44.5059 166.29C45.2852 164.676 48.0517 160.163 48.4006 158.327C48.6427 156.381 48.795 153.026 47.1964 151.055C45.5978 149.085 35.4618 137.473 35.4618 137.473C35.4618 137.473 43.7892 138.34 44.6554 138.351C45.5217 138.363 46.1742 138.155 46.9435 137.298C47.7127 136.442 52.2614 128.163 52.599 127.193C52.9366 126.222 53.4179 122.547 53.103 121.785C52.7881 121.022 49.7403 113.943 47.7185 111.209C45.6967 108.475 40.6857 102.453 39.7268 101.25C38.7693 99.9375 34.4137 93.491 33.5659 92.072C32.8264 90.6545 22.8559 82.9431 21.6904 80.9785C20.4166 79.0125 19.4549 78.0253 18.6913 78.4484C18.036 78.873 16.8265 80.265 16.8265 80.265Z" fill="#9C8FCD" fill-opacity="0.46"/>
</g>
</svg>
