<svg width="359" height="412" viewBox="0 0 359 412" fill="none" xmlns="http://www.w3.org/2000/svg">
<path opacity="0.75" d="M189.714 104.851C191.85 105.151 194.336 106.183 193.572 106.574C192.854 107.158 194.042 108.507 194.905 109.934C195.768 111.362 193.91 110.791 194.239 112.144C194.568 113.497 195.29 114.344 194.62 115.122C193.949 115.899 194.625 116.554 194.907 117.713C195.236 119.066 193.33 118.301 192.942 120.238C192.643 121.13 193.318 121.784 194.25 122.786C195.019 123.827 194.929 124.873 193.421 125.035C191.913 125.197 190.316 126.404 187.881 126.997C185.446 127.589 168.377 130.924 164.088 132.377C159.8 133.829 152.269 137.504 150.415 138.365C148.446 139.458 128.431 150.469 116.437 159.119C104.444 167.769 86.3257 184.46 79.3686 193.318C72.4115 202.176 57.5581 223.804 52.212 235.75C46.9129 247.889 41.9765 257.279 40.8507 268.198C39.772 279.31 39.5745 297.578 41.4722 303.257C41.4722 303.257 40.1009 302.567 38.0196 297.546C35.9383 292.526 31.2919 276.256 30.3545 266.043C29.4429 256.644 31.6262 235.232 39.7439 219.132C47.8617 203.031 55.3089 187.708 67.7713 173.212C80.2337 158.716 87.2849 150.245 103.238 138.789C119.144 127.14 121.647 126.121 122.757 125.032C123.868 123.943 124.47 123.592 125.769 123.276C127.067 122.96 127.644 121.796 128.686 121.133C129.775 120.664 142.538 113.055 157.006 108.92C171.636 104.746 184.374 104.104 189.714 104.851Z" fill="#9C8FCD"/>
<path opacity="0.75" d="M289.194 161.099C289.194 161.099 279.427 176.782 273.093 184.669C266.922 192.516 247.238 220.438 221.08 233.763C194.922 247.088 173.761 255.512 137.811 261.802C101.861 268.093 83.2518 261.566 75.6896 255.218C68.1274 248.869 58.1198 232.47 55.4485 224.318C55.4485 224.318 58.5793 245.665 59.9688 252.082C61.4054 258.693 66.3384 277.555 82.6796 286.066C98.8584 294.617 125.544 294.061 147.137 290.24C168.731 286.419 201.814 276.118 217.609 266.133C233.404 256.149 257.921 237.491 263.704 231.58C269.44 225.476 271.75 222.253 270.986 222.644C270.221 223.035 265.412 228.708 264.302 229.797C263.191 230.886 255.486 238.084 252.616 240.42C250.186 242.444 247.127 244.007 246.525 244.358C247.452 243.928 253.077 239.489 255.067 237.776C257.011 235.87 259.74 232.954 260.295 232.41C260.85 231.865 260.825 231.053 261.589 230.662C262.354 230.271 262.678 230.192 263.071 229.687C263.417 228.989 265.109 228.168 265.779 227.391C266.45 226.613 266.633 225.955 266.864 225.489C267.094 225.024 267.812 224.44 267.996 223.781C268.341 223.082 268.457 222.85 269.221 222.459C270.033 222.261 270.913 221.638 271.096 220.979C271.28 220.32 271.835 219.776 272.16 219.697C272.484 219.618 273.783 219.302 274.129 218.604C274.359 218.138 280.855 210.211 282.841 207.067C284.989 203.883 286.142 201.555 286.488 200.857C286.834 200.159 286.808 199.346 287.133 199.267C287.573 198.956 287.803 198.49 287.756 198.297C287.662 197.91 287.846 197.251 288.286 196.94C288.726 196.628 289.255 195.271 290.058 192.21C291.023 189.109 291.253 188.643 291.278 181.677C291.349 174.904 290.873 163.761 289.194 161.099ZM267.457 200.37C266.949 201.108 266.394 201.652 265.886 202.39C262.187 206.975 252.847 218.05 245.347 223.969C235.531 231.68 221.06 242.161 216.358 244.738C211.655 247.315 211.006 247.473 209.938 247.324C208.87 247.174 209.288 247.482 207.063 248.228C204.837 248.974 202.685 250.726 201.758 251.156C200.831 251.587 191.306 255.542 180.571 258.768C169.674 262.033 152.186 265.06 152.186 265.06C152.186 265.06 179.875 258.733 191.741 253.798C203.769 248.824 208.032 246.559 210.001 245.466C211.97 244.372 226.083 238.073 239.021 226.941C250.847 216.899 260.128 209.113 265.723 202.429C266.902 200.914 267.573 200.137 267.457 200.37Z" fill="#9C8FCD"/>
<path opacity="0.75" d="M329.5 145.151C328.005 141.83 326.201 136.537 322.962 132.412C319.723 128.287 308.671 118.898 301.745 115.875C294.82 112.851 279.561 108.785 267.394 106.832C255.113 105.112 247.898 105.844 243.976 105.979C240.055 106.114 235.275 106.254 232.861 106.227C230.495 106.393 216.855 108.279 212.007 108.845C207.321 109.371 199.666 110.414 195.817 111.555C192.131 112.657 178.077 115.667 175.758 116.027C173.438 116.386 167.338 117.461 164.139 118.444C160.939 119.427 155.169 121.855 152.016 123.031C148.864 124.208 132.081 130.134 127.797 133.019C123.675 135.864 121.612 136.571 119.062 137.396C116.674 138.181 114.663 140.513 114.013 140.671C113.364 140.829 102.199 147.231 98.91 149.259C95.621 151.288 85.0458 160.821 79.0323 167.197C72.9718 173.38 67.2404 180.916 63.9393 186.428C60.6382 191.939 58.0972 195.628 56.1811 206.125C54.3802 216.39 54.8899 223.431 56.1216 231.319C57.3533 239.208 58.2861 247.988 60.3507 255.061C62.4153 262.133 64.8682 267.268 65.8467 268.463C65.8467 268.463 61.1413 233.578 78.3734 208.3C95.4431 183.061 129.977 161.762 177.707 145.236C225.437 128.709 280.104 133.628 292.813 138.519C292.813 138.519 293.693 137.896 289.605 136.639C285.354 135.421 280.014 134.673 280.014 134.673C280.014 134.673 283.632 133.997 292.343 136.586C301.053 139.175 306.633 142.322 310.888 144.971C314.934 147.467 319.843 151.39 322.668 156.639C325.445 161.696 328.556 169.537 330.061 175.721C331.566 181.906 331.58 186.201 331.831 185.117C332.083 184.032 333.35 173.693 332.716 164.021C331.92 154.388 330.996 148.472 329.5 145.151ZM264.422 113.696C258.455 112.487 254.093 112.934 252.214 112.982C250.334 113.03 249.428 112.841 247.596 113.082C245.763 113.323 247.732 112.23 245.69 112.318C243.649 112.405 241.051 113.037 237.873 113.401C234.695 113.765 231.769 113.044 228.035 113.952C224.464 114.821 217.595 114.854 213.166 115.728C208.736 116.601 204.144 117.513 200.526 118.189C196.908 118.864 193.96 118.763 190.551 119.592C187.305 120.382 182.828 121.062 185.934 119.692C187.463 118.911 193.584 117.217 196.668 116.466C199.59 115.755 206.386 114.716 208.868 114.317C211.35 113.918 241.367 110.094 246.288 110.534C251.209 110.975 267.968 112.015 274.957 113.181C281.783 114.386 286.803 116.644 286.803 116.644C286.803 116.644 270.39 114.906 264.422 113.696Z" fill="#9C8FCD"/>
<path opacity="0.75" d="M328.542 143.337C327.935 142.256 324.62 165.376 321.742 172.627C318.865 179.878 304.797 200.497 296.516 208.858C288.234 217.219 261.287 237.901 258.81 239.732C256.495 241.523 254.568 241.378 252.971 242.586C251.373 243.793 252.851 241.386 250.767 242.712C248.682 244.038 232.468 253.715 229.132 255.551C225.796 257.386 213.448 263.871 208.813 266.022C204.179 268.173 169.413 282.159 155.988 285.63C142.4 289.141 118.256 293.787 108.884 294.839C99.5122 295.891 86.8421 296.108 77.3972 296.154C67.9523 296.201 59.2371 292.18 53.7986 289.613C48.4072 287.24 44.9591 282.961 41.8826 278.797C39.0155 274.786 32.2938 262.706 30.4599 255.168C30.4599 255.168 28.9746 262.49 31.2621 274.011C33.5496 285.533 39.4612 305.589 48.3007 312.241C57.1402 318.893 74.8695 326.043 96.9329 324.155C118.834 322.306 142.721 317.313 146.617 316.365C150.512 315.417 162.477 312.302 164.912 311.709C167.347 311.117 168.923 310.529 170.824 309.861C172.725 309.194 172.28 308.074 171.306 308.311C170.332 308.548 170.704 308.662 169.29 309.211C167.876 309.76 167.321 310.304 166.415 310.115C165.51 309.926 165.023 310.045 164.096 310.475C163.169 310.905 162.635 310.83 161.336 311.146C160.038 311.462 160.362 311.383 158.949 311.932C157.535 312.481 156.766 311.439 156.766 311.439C156.766 311.439 157.808 310.776 159.106 310.46C160.405 310.145 166.898 308.565 168.149 308.056C169.238 307.586 170.862 307.191 172.045 307.108C173.228 307.024 174.48 306.515 175.454 306.278C176.428 306.041 175.936 304.728 176.91 304.491C177.884 304.254 177.491 304.759 178.79 304.443C180.088 304.127 181.57 303.152 182.707 302.876C183.843 302.599 184.996 300.272 186.619 299.877C188.242 299.482 189.075 298.665 189.635 299.552C190.195 300.44 190.634 300.128 190.493 299.548C190.352 298.968 190.023 297.616 191.112 297.146C192.202 296.676 193.5 296.36 194.867 295.618C196.234 294.876 199.454 293.274 200.591 292.997C201.727 292.721 202.842 293.064 202.842 293.064C202.842 293.064 199.04 294.398 197.511 295.18C195.982 295.961 193.735 297.326 195.034 297.011C196.332 296.695 197.956 296.3 198.93 296.063C199.904 295.826 200.322 296.133 201.527 295.431C202.731 294.728 203.077 294.03 204.653 293.442C206.229 292.854 206.413 292.195 208.036 291.8C209.659 291.405 210.309 291.247 210.958 291.089C211.607 290.931 213.346 290.303 214.435 289.833C215.524 289.364 215.451 288.358 216.541 287.888C217.63 287.418 220.945 286.202 222.034 285.733C223.123 285.263 224.767 284.249 225.81 283.586C226.852 282.923 228.659 281.869 229.91 281.36C231.162 280.851 230.816 281.549 232.601 281.114C234.387 280.68 235.062 281.335 237.492 279.31C239.923 277.286 239.389 277.211 240.661 276.083C241.934 274.954 244.668 273.47 246.522 272.61C248.375 271.749 249.046 270.972 250.02 270.735C250.994 270.498 251.643 270.34 251.293 269.606C250.942 268.873 251.728 267.863 252.403 268.517C253.078 269.172 254.167 268.702 254.167 268.702C255.765 267.495 257.431 265.861 258.404 265.624C259.378 265.387 259.934 264.843 261.693 263.596C263.453 262.349 263.453 262.349 264.542 261.879C265.632 261.409 264.952 259.323 266.319 258.581C267.686 257.839 270.304 256.588 271.739 255.42C273.174 254.252 274.357 254.168 275.793 253C277.228 251.832 277.3 252.838 273.409 255.218C269.518 257.598 269.544 258.41 270.958 257.861C272.372 257.313 273.99 255.486 276.122 254.353C278.253 253.22 278.808 252.676 279.317 251.938C279.825 251.2 278.987 250.585 280.307 249.65C281.627 248.715 283.895 246.73 285.215 245.795C286.535 244.859 289.038 243.841 290.148 242.752C291.259 241.663 292.95 240.842 293.898 239.792C294.846 238.743 296.235 237.381 295.585 237.539C294.936 237.697 293.108 239.37 291.511 240.578C289.913 241.786 288.567 241.908 288.567 241.908C288.567 241.908 290.233 240.275 291.878 239.26C293.522 238.246 293.821 237.355 295.141 236.419C296.461 235.484 297.199 234.281 296.712 234.399C296.225 234.518 293.885 235.497 294.995 234.408C296.106 233.319 297.588 232.344 299.3 230.904C301.013 229.463 302.674 226.398 302.674 226.398C302.674 226.398 303.234 227.285 302.38 228.721C301.526 230.157 300.902 231.128 302.385 230.153C303.867 229.178 303.196 229.956 304.7 228.362C306.203 226.768 308.586 224.55 310.645 222.411C312.703 220.273 313.19 220.154 313.929 218.951C314.668 217.748 315.087 218.055 314.668 217.748C314.249 217.44 313.506 217.212 313.506 217.212C315.056 215.811 315.261 214.533 316.419 213.637C317.576 212.741 318.772 209.175 319.835 207.893C320.898 206.61 322.842 204.704 323.418 203.541C323.995 202.377 324.618 201.406 325.588 199.737C326.557 198.069 327.936 193.844 328.466 192.486C328.995 191.129 329.546 189.153 329.703 187.682C329.861 186.21 331.078 182.025 331.337 176.025C333.173 169.437 332.576 149.316 328.542 143.337ZM289.047 224.8C282.845 230.404 274.167 237.838 272.129 239.357C270.254 240.837 262.168 245.056 258.743 247.937C255.27 250.624 244.891 256.015 241.324 258.316C237.758 260.617 215.842 272.295 208.61 275.079C201.378 277.862 180.982 285.895 176.924 286.882C173.028 287.83 170.059 288.348 168.646 288.897C167.232 289.445 165.1 290.578 162.99 291.091C160.88 291.605 160.209 292.382 158.586 292.777C156.801 293.212 155.502 293.527 153.717 293.962C151.931 294.396 103.508 304.541 94.6137 302.61C93.174 302.347 123.888 298.558 126.369 298.159C128.851 297.76 148.774 294.141 154.823 291.441C160.918 288.934 178.983 284.744 183.062 283.137C187.303 281.491 215.251 269.164 218.289 268.22C221.326 267.276 234.225 258.815 238.603 256.317C242.819 253.858 260.079 244.95 265.384 242.022C270.69 239.093 277.745 232.054 282.538 228.431C287.168 224.848 302.829 209.369 305.789 205.988C306.114 205.909 295.364 218.964 289.047 224.8Z" fill="#9C8FCD"/>
<path d="M152.507 336.764C149.003 352.239 145.525 367.688 142.021 383.163C137.445 382.693 132.869 382.224 128.318 381.754L132.162 333.24L152.507 336.764Z" fill="#FDA67D"/>
<path d="M251.722 278.907L248.087 326.351L234.803 327.108L228.684 280.186L251.722 278.907Z" fill="#FDA67D"/>
<path d="M130.724 351.375C130.671 352.033 131.259 352.56 131.903 352.415C137.331 351.192 144.231 348.588 148.505 346.857C149.693 346.375 150.56 345.341 150.838 344.09C150.965 343.516 151.092 342.943 151.226 342.374C146.519 339.687 136.268 336.294 136.268 336.294C136.268 336.294 134.071 338.277 131.561 340.913L130.724 351.375Z" fill="#9C8FCD"/>
<path d="M231.664 303.099C240.293 299.733 248.008 294.2 250.701 292.138L250.91 289.424C247.746 284.91 236.92 282.091 236.92 282.091L230.068 290.781L231.664 303.099Z" fill="#9C8FCD"/>
<path d="M159.646 71.9615C162.941 71.0221 167.465 70.1348 172.852 70.2131C181.037 70.3175 187.497 72.5618 191.341 74.258C191.001 81.278 190.661 88.3241 190.347 95.3441C180.122 87.5412 169.871 79.7383 159.646 71.9615Z" fill="#FDA67D"/>
<path d="M185.116 58.9655C185.116 58.9655 183.103 71.5701 184.253 74.7539C184.28 74.8322 184.358 75.0671 184.253 75.2758C183.547 76.6329 175.598 73.971 167.465 70.8133C169.505 62.4885 171.544 54.1898 173.558 45.865C173.558 45.8911 186.842 54.5291 185.116 58.9655Z" fill="#FDA67D"/>
<path d="M164.433 54.1636C166.525 58.052 170.839 59.0698 170.63 59.4351C170.343 59.8788 163.517 56.982 157.32 51.6061C153.449 48.2397 151.305 45.2125 149.919 42.2114C149.004 40.228 147.566 36.9399 148.925 34.3041C149.422 33.3385 150.024 33.0254 150.939 32.1903C152.456 30.8072 154.286 28.5107 155.541 24.5179C163.256 22.117 170.996 20.0554 171.519 21.2819C171.624 21.5168 171.415 21.8299 171.336 21.9343C169.453 24.8572 159.516 45.0298 164.433 54.1636Z" fill="#363537"/>
<path d="M186.346 66.2464C187.497 66.0898 188.386 65.6201 188.386 65.6201C188.647 65.4896 188.909 65.3069 189.144 65.1242C189.144 65.1242 189.536 64.8111 189.902 64.4457C194.296 59.7223 192.465 49.4663 192.465 49.4663C191.916 46.3608 191.262 45.2648 189.745 40.9327C188.516 37.4358 186.869 32.2426 185.431 25.5879C185.065 25.5096 181.456 24.8311 177.795 24.2048C176.252 24.1265 166.629 23.709 161.503 30.207C154.992 38.4275 160.771 51.1887 166.079 57.3475C166.655 58.026 167.256 58.6523 167.884 59.2264C169.217 60.7922 171.859 63.428 175.964 65.0721C175.964 65.0721 180.724 66.9771 186.346 66.2464Z" fill="#FDA67D"/>
<path d="M172.094 61.9404C173.872 63.0104 176.147 64.1325 178.919 65.072C180.802 65.6983 182.528 66.1159 184.071 66.3768C183.521 68.1514 182.685 68.7255 182.188 68.9604C179.86 70.0304 175.65 67.3946 172.094 61.9404Z" fill="#6F61A5"/>
<path d="M185.223 42.3159C185.458 43.4642 185.066 44.5081 184.36 44.6646C183.627 44.8212 182.843 44.0122 182.607 42.8901C182.372 41.7418 182.764 40.698 183.47 40.5414C184.203 40.3848 184.987 41.1938 185.223 42.3159Z" fill="#353333"/>
<path d="M171.101 46.7525C171.571 47.8746 172.565 48.5532 173.35 48.2139C174.134 47.9007 174.37 46.7264 173.899 45.5781C173.428 44.456 172.434 43.7775 171.65 44.1167C170.892 44.456 170.656 45.6303 171.101 46.7525Z" fill="#353333"/>
<path d="M181.261 43.2535C181.121 42.7451 181.697 42.5723 181.964 43.0273C182.155 43.3533 182.351 43.6729 182.554 43.9859C183.156 44.8471 183.809 45.6561 184.542 46.3868C184.725 46.5695 184.908 46.7521 185.117 46.9087C185.3 47.0914 185.509 47.248 185.744 47.4568C185.954 47.6655 186.215 47.9004 186.372 48.2397C186.451 48.3962 186.529 48.5789 186.555 48.7877C186.581 48.9704 186.581 49.1791 186.555 49.3618C186.451 50.0925 185.98 50.6405 185.457 50.9276C184.934 51.2408 184.385 51.3712 183.809 51.4495C184.254 51.1103 184.725 50.8232 185.065 50.4579C185.221 50.2752 185.352 50.0925 185.457 49.8837C185.535 49.675 185.588 49.4662 185.588 49.2835C185.588 49.1008 185.535 48.9443 185.431 48.8138C185.326 48.6833 185.169 48.5267 184.986 48.3701C184.803 48.2136 184.568 48.057 184.332 47.8743C184.228 47.796 184.123 47.6916 183.992 47.5872C183.888 47.4829 183.783 47.4046 183.679 47.3002C182.868 46.4912 182.188 45.5256 181.691 44.5078C181.523 44.093 181.377 43.6744 181.261 43.2535Z" fill="#6F61A5"/>
<path d="M185.509 55.6772C185.614 55.4685 185.562 55.3902 185.536 55.3641C185.405 55.1553 184.986 55.2858 184.15 55.2336C183.679 55.2075 183.313 55.1292 182.921 55.0509C182.842 55.0509 182.371 54.9465 181.927 54.816C180.541 54.4246 179.939 53.8505 179.835 53.9549C179.652 54.1636 181.221 56.9038 183.287 56.8777C184.333 56.9038 185.248 56.2253 185.509 55.6772Z" fill="white"/>
<path d="M169.906 38.0954C169.571 38.4543 169.923 38.9985 170.393 38.8595L175.389 37.3838C175.365 37.3838 174.388 33.2892 169.906 38.0954Z" fill="#6F61A5"/>
<path d="M185.909 35.0705C186.375 35.2251 186.327 35.8709 185.847 35.9746L180.776 37.0705C180.776 37.0705 179.665 32.9977 185.909 35.0705Z" fill="#6F61A5"/>
<path d="M161.792 40.9067C160.877 38.9494 161.086 36.6529 162.42 34.9305C162.446 34.9044 162.446 34.9044 162.472 34.8783C162.76 34.513 165.793 30.5202 169.036 28.6674C173.9 25.875 179.47 29.7373 185.877 27.3886C188.466 26.4492 191.917 24.1527 194.899 17.8895C190.479 20.9689 188.309 20.8645 187.158 20.2382C184.935 18.9855 185.432 15.0971 183.392 14.4447C181.928 13.975 180.124 15.5147 178.921 16.7673C178.842 14.2881 177.43 12.1221 175.39 11.3392C172.671 10.2954 169.114 11.809 167.781 15.1493C166.996 13.6618 166.159 13.1921 165.558 13.0616C162.812 12.4353 158.889 17.0544 155.568 24.5702C155.751 25.5358 155.961 26.7362 156.144 28.1715C156.144 28.1715 156.457 30.5724 156.562 33.0255C156.902 40.9328 154.705 47.0394 157.373 49.4663C158.262 50.2753 159.935 50.9277 163.544 50.0405C164.407 50.0666 165.296 50.0666 166.159 50.0927L161.792 40.9067Z" fill="#363537"/>
<path d="M150.181 27.7539C150.547 27.8322 150.861 27.9105 151.174 28.0149C151.488 28.0932 151.828 28.1975 152.142 28.3019C152.77 28.5107 153.423 28.7195 154.025 28.9804C154.652 29.2414 155.254 29.5024 155.829 29.8155C156.404 30.1287 156.98 30.494 157.45 30.9377C156.875 30.6245 156.248 30.468 155.62 30.3114C154.992 30.1548 154.365 30.0765 153.737 30.0243C153.11 29.946 152.456 29.9199 151.828 29.9199C151.514 29.9199 151.201 29.9199 150.887 29.9199C150.573 29.9199 150.259 29.9199 149.945 29.946L150.181 27.7539Z" fill="#363537"/>
<path d="M152.142 22.4043C152.378 23.0828 152.665 23.7874 152.927 24.4398C153.214 25.1183 153.502 25.7969 153.816 26.4493C154.13 27.1017 154.47 27.7802 154.862 28.3804C155.045 28.6936 155.254 28.9806 155.489 29.2677C155.62 29.3982 155.725 29.5287 155.882 29.633C156.012 29.7374 156.195 29.8418 156.379 29.8418C156.195 29.8679 155.986 29.8157 155.829 29.7374C155.646 29.6591 155.489 29.5548 155.332 29.4504C155.019 29.2155 154.731 28.9806 154.443 28.6936C153.894 28.1716 153.397 27.5714 152.901 26.9973C152.43 26.3971 151.959 25.7969 151.515 25.1966C151.07 24.5703 150.625 23.9701 150.207 23.3177L152.142 22.4043Z" fill="#363537"/>
<path d="M160.406 38.01C161.243 36.4442 162.289 34.9828 163.518 33.6779C164.146 33.0255 164.8 32.4253 165.506 31.8512C166.212 31.277 166.97 30.7812 167.781 30.3376C167.99 30.2332 168.173 30.1027 168.382 30.0244L169.01 29.7373C169.428 29.5286 169.873 29.372 170.317 29.2415C171.206 28.9805 172.069 28.7718 172.958 28.5891C173.821 28.4064 174.71 28.2498 175.573 28.0933C176.436 27.9367 177.326 27.7801 178.215 27.6235C179.967 27.3365 181.745 27.1016 183.497 26.9189C184.386 26.8145 185.249 26.7362 186.112 26.6058C186.975 26.4753 187.786 26.2926 188.596 26.0055C188.806 25.9272 188.989 25.849 189.198 25.7707C189.407 25.6924 189.59 25.6141 189.799 25.5097C190.192 25.327 190.584 25.1182 190.95 24.9095C191.708 24.4919 192.414 23.97 193.094 23.4481C194.454 22.352 195.657 21.0472 196.755 19.6641C195.866 21.2038 194.794 22.6391 193.486 23.8917C192.833 24.518 192.127 25.0922 191.368 25.588C190.61 26.0838 189.799 26.5275 188.962 26.8667C188.858 26.9189 188.753 26.945 188.649 26.9972L188.335 27.1016C188.126 27.1799 187.89 27.2321 187.681 27.3104C187.472 27.3886 187.237 27.4147 187.001 27.4669L186.321 27.5974C185.432 27.754 184.543 27.8845 183.68 27.9889C181.928 28.2237 180.176 28.4847 178.424 28.7457C176.672 29.0327 174.92 29.3198 173.194 29.633C172.331 29.7895 171.468 29.9461 170.631 30.181C170.213 30.2854 169.82 30.4159 169.428 30.5724L168.827 30.8334C168.617 30.9117 168.434 31.0161 168.251 31.1205C166.682 31.8512 165.27 32.8689 163.963 34.0433C162.629 35.2437 161.478 36.5746 160.406 38.01Z" fill="#363537"/>
<path d="M175.625 51.2409C172.304 51.2409 169.584 48.5269 169.584 45.2126C169.584 41.8984 172.304 39.1843 175.625 39.1843C178.946 39.1843 181.665 41.8984 181.665 45.2126C181.665 48.553 178.946 51.2409 175.625 51.2409ZM175.625 39.7063C172.565 39.7063 170.081 42.1854 170.081 45.2387C170.081 48.292 172.565 50.7451 175.625 50.7451C178.684 50.7451 181.142 48.2659 181.142 45.2387C181.169 42.1854 178.684 39.7063 175.625 39.7063Z" fill="white"/>
<path d="M187.419 47.7702C184.464 47.7702 182.059 45.3693 182.059 42.4204C182.059 39.4714 184.464 37.0706 187.419 37.0706C190.374 37.0706 192.78 39.4714 192.78 42.4204C192.806 45.3432 190.401 47.7702 187.419 47.7702ZM187.419 37.5403C184.726 37.5403 182.555 39.7324 182.555 42.3943C182.555 45.0822 184.752 47.2482 187.419 47.2482C190.087 47.2482 192.283 45.0561 192.283 42.3943C192.31 39.7324 190.113 37.5403 187.419 37.5403Z" fill="white"/>
<path d="M163.389 57.8525C165.818 57.3329 167.365 54.9467 166.844 52.5227C166.324 50.0988 163.932 48.555 161.503 49.0746C159.075 49.5942 157.528 51.9804 158.048 54.4043C158.569 56.8283 160.96 58.3721 163.389 57.8525Z" fill="#FDA67D"/>
<path d="M164.591 55.2599C164.67 55.2599 164.748 55.2077 164.774 55.1294C165.454 53.6158 165.062 51.8673 163.781 50.9278C162.813 50.2232 161.427 50.1449 160.276 50.7191C160.172 50.7713 160.146 50.9017 160.198 51.0061C160.25 51.1105 160.381 51.1366 160.486 51.0844C161.506 50.5625 162.708 50.6408 163.545 51.2671C164.644 52.0761 165.01 53.6158 164.408 54.9467C164.356 55.0511 164.408 55.1816 164.513 55.2077C164.539 55.2599 164.565 55.2599 164.591 55.2599Z" fill="#6F61A5"/>
<path d="M160.302 52.3632C160.354 52.3632 160.406 52.3371 160.432 52.311C161.138 51.6064 162.158 51.1888 163.178 51.1888C163.309 51.1888 163.387 51.1106 163.387 50.9801C163.387 50.8757 163.309 50.7713 163.178 50.7713C162.054 50.7452 160.929 51.2149 160.145 51.9978C160.066 52.0761 160.066 52.2066 160.145 52.2849C160.197 52.3371 160.249 52.3632 160.302 52.3632Z" fill="#6F61A5"/>
<path d="M257.003 40.1236C257.971 40.4628 260.559 41.3762 262.704 43.8554C263.331 44.56 263.907 45.2646 264.325 46.3607C264.848 47.796 264.534 48.5006 264.325 51.3712C264.22 52.6499 264.037 56.2513 263.253 59.3568C263.201 59.6177 263.044 60.1657 262.704 60.244C262.024 60.4267 261.422 58.7043 259.853 57.6866C258.781 56.982 257.604 56.8776 256.768 56.8776C254.571 56.3296 252.793 55.7815 251.433 55.3379C250.544 55.0508 249.785 54.7638 249.262 54.007C248.609 53.0414 248.766 51.8931 248.87 51.3712C248.347 50.771 247.772 49.9098 247.981 49.1269C248.216 48.2135 249.289 47.9526 249.21 47.274C249.132 46.6738 248.243 46.6738 247.824 45.7604C247.615 45.2907 247.537 44.6122 247.824 44.0642C248.243 43.3074 249.027 43.5161 249.289 42.8376C249.55 42.2374 248.975 41.846 249.21 41.1152C249.393 40.5933 249.838 40.3063 250.178 40.0714C251.015 39.5234 251.904 39.4451 252.714 39.4451C255.068 39.4451 256.898 40.0714 257.003 40.1236Z" fill="#FDA67D"/>
<path d="M255.093 47.6134C254.256 47.4046 253.42 47.248 252.583 47.1436C251.746 47.0393 250.883 46.9871 250.046 46.9871C249.732 46.9871 249.419 47.0132 249.131 47.0132C249.183 47.0914 249.209 47.1697 249.235 47.2741C249.235 47.3263 249.235 47.3785 249.235 47.4568C249.523 47.4829 256.714 48.3702 257.577 48.4485C256.741 48.0831 255.93 47.8222 255.093 47.6134Z" fill="#6F61A5"/>
<path d="M253.76 51.8933C253.028 51.6845 252.295 51.5019 251.563 51.3714C250.831 51.2409 250.073 51.1887 249.34 51.1626C249.131 51.1626 248.922 51.1626 248.713 51.1626C248.765 51.2409 248.817 51.2931 248.87 51.3714C248.87 51.4236 248.844 51.4758 248.844 51.528C249.001 51.554 249.184 51.5801 249.34 51.6062C250.073 51.7106 250.805 51.815 251.511 51.9455C252.243 52.076 255.12 52.624 255.878 52.7545C255.198 52.3891 254.466 52.1282 253.76 51.8933Z" fill="#6F61A5"/>
<path d="M254.65 43.3075C255.382 43.3857 256.114 43.4379 256.847 43.4901C256.167 43.2031 255.461 42.9943 254.728 42.8377C253.996 42.6811 253.264 42.5507 252.532 42.4985C251.8 42.4202 251.041 42.4202 250.309 42.4463C249.995 42.4724 249.655 42.4724 249.341 42.5246C249.341 42.6289 249.341 42.7333 249.289 42.8638C249.655 42.8377 254.65 43.3075 254.65 43.3075Z" fill="#6F61A5"/>
<path d="M259.906 54.6595C255.591 54.1898 248.635 74.8061 248.635 74.8061C243.353 88.7155 240.502 96.4923 242.15 106.461C242.568 108.914 244.556 120.136 250.23 121.415C253.734 122.197 258.311 118.909 259.932 114.603C260.481 113.09 260.586 111.863 260.586 111.524C260.847 105.209 265.057 60.6356 263.227 56.8777C262.835 56.0948 262.259 55.599 262.259 55.599C262.259 55.599 261.318 54.8161 259.906 54.6595Z" fill="#FDA67D"/>
<path d="M257.525 57.3474C257.865 57.3213 258.205 57.3213 258.545 57.3213H260.559C260.899 57.3213 261.239 57.3213 261.579 57.3474C261.265 57.4779 260.925 57.5823 260.585 57.6344C260.245 57.6866 259.905 57.7127 259.565 57.7127C259.225 57.7127 258.885 57.6866 258.545 57.6344C258.179 57.5823 257.839 57.4779 257.525 57.3474Z" fill="#6F61A5"/>
<path d="M265.32 35.9743C265.32 35.9743 260.456 41.0371 261.162 46.0737C261.554 48.8921 262.26 49.6229 262.862 49.6229C263.175 49.6229 263.463 49.2836 263.803 48.9182C264.483 48.1614 264.718 47.3264 264.797 47.0654C265.424 44.8994 264.849 43.9338 265.346 41.8983C265.686 40.463 266.104 40.4108 266.967 37.6184C267.386 36.2614 267.49 35.6612 267.229 35.4002C266.758 34.9566 265.451 35.8961 265.32 35.9743Z" fill="#FDA67D"/>
<path d="M291.653 200.252L289.064 195.946L284.775 195.555L288.567 193.258L289.456 188.691L291.679 192.658L296.36 193.389L292.228 195.424L291.653 200.252Z" fill="white"/>
<path d="M304.44 216.302L301.276 211.004L296.02 210.56L300.674 207.742L301.773 202.131L304.492 206.985L310.193 207.872L305.146 210.378L304.44 216.302Z" fill="white"/>
<path d="M306.113 198.739L304.309 195.711L301.275 195.45L303.943 193.832L304.57 190.623L306.139 193.415L309.408 193.911L306.505 195.346L306.113 198.739Z" fill="white"/>
<path d="M81.2475 308.709L85.3008 313.537L90.6878 313.12L86.4776 316.721L86.2684 322.567L82.7381 318.13H76.8281L81.509 314.79L81.2475 308.709Z" fill="white"/>
<path d="M62.2354 291.512L67.204 297.384L73.7939 296.888L68.6422 301.298L68.3807 308.423L64.0659 303.021H56.8223L62.5753 298.923L62.2354 291.512Z" fill="white"/>
<path d="M63.7252 313.485L66.5494 316.852L70.3412 316.565L67.3862 319.096L67.2555 323.193L64.7712 320.088H60.6133L63.9082 317.739L63.7252 313.485Z" fill="white"/>
<path d="M226.455 81.0506C227.594 80.4468 228.998 81.0605 229.278 82.3188C230.418 87.4557 231.359 94.6401 230.488 103.043C230.227 105.522 228.814 118.935 225.52 119.249C223.375 119.457 219.793 114.108 213.621 87.8545L226.455 81.0506Z" fill="#6F61A5"/>
<path d="M121.258 90.9861C121.258 90.9861 123.036 128.017 130.018 129.505C137 130.992 137.314 96.7273 137.314 96.7273L121.258 90.9861Z" fill="#6F61A5"/>
<path d="M246.675 123.32C244.949 123.32 243.197 123.007 241.523 122.302L187.706 100.563C180.645 97.7189 177.246 89.7073 180.122 82.6612C182.973 75.6151 191.001 72.2226 198.062 75.0932L251.879 96.8316C258.94 99.6762 262.339 107.688 259.463 114.734C257.266 120.084 252.114 123.32 246.675 123.32Z" fill="#FDA67D"/>
<path d="M103.058 135.977C98.1153 135.977 93.3559 133.315 90.8716 128.67C87.3152 121.963 89.8779 113.638 96.5986 110.089L138.544 87.9589C145.264 84.4098 153.606 86.9672 157.163 93.6741C160.719 100.381 158.157 108.706 151.436 112.255L109.491 134.385C107.425 135.455 105.228 135.977 103.058 135.977Z" fill="#FDA67D"/>
<path d="M228.423 87.3847L210.929 80.3125L197.854 103.904C197.854 103.904 199.004 104.687 200.887 105.913L228.972 117.265C224.344 107.453 227.482 91.5601 228.423 87.3847Z" fill="#9C8FCD"/>
<path d="M119.062 98.2148C122.174 103.46 128.477 114.838 130.124 123.476L138.989 118.805C143.513 111.08 148.063 102.73 148.063 102.73L135.616 89.4985L119.062 98.2148Z" fill="#9C8FCD"/>
<path d="M240.4 92.2124C238.387 100.198 243.721 110.819 242.152 106.487C242.021 106.148 241.943 105.809 241.838 105.417C241.054 101.764 241.969 96.153 242.597 93.0997L240.4 92.2124Z" fill="#6F61A5"/>
<path d="M151.975 343.77C154.073 343.047 155.603 341.263 156.153 339.113L195.027 187.256C195.393 185.795 195.681 184.125 195.811 182.559C196.962 167.449 185.639 154.27 170.524 153.122C155.383 151.974 142.177 163.273 141.026 178.357L128.396 343.053C128.265 344.723 128.474 346.367 128.945 347.907C138.134 347.51 145.737 345.921 151.975 343.77Z" fill="#9C8FCD"/>
<path d="M170.499 153.148C155.358 152 142.152 163.3 141.001 178.383L139.955 191.954C146.362 195.163 154.573 197.695 162.444 195.477C173.611 192.319 184.254 181.202 194.975 173.503C192.099 162.543 182.502 154.061 170.499 153.148Z" fill="#6F61A5"/>
<path d="M128.918 347.959C137.665 347.561 144.965 346.106 151.02 344.118C153.731 343.228 155.695 340.926 156.403 338.162L167.228 295.87C166.025 303.125 162.207 319.957 148.034 334.336C141.287 341.148 134.253 345.375 128.918 347.959Z" fill="#6F61A5"/>
<path d="M161.033 70.2131C161.033 70.2131 176.88 86.654 189.118 72.8228L228.657 79.8428C228.657 79.8428 218.433 111.133 225.493 119.196C221.571 118.414 217.648 117.631 213.699 116.848C218.223 134.15 222.721 151.452 227.245 168.754C209.986 168.493 196.832 171.259 187.784 173.973C177.795 176.974 170.368 180.628 156.822 182.794C147.774 184.229 140.138 184.36 134.987 184.203C136.216 164.552 137.445 144.928 138.674 125.277C135.85 126.817 133.052 128.356 130.227 129.896C130.62 124.807 130.62 117.37 128.475 108.758C126.592 101.138 123.664 95.1876 121.258 91.0643L161.033 70.2131Z" fill="white"/>
<path d="M213.177 108.654C213.046 108.654 212.942 108.575 212.915 108.445C210.431 92.6041 200.023 77.9378 199.919 77.7813C199.84 77.6769 199.866 77.5203 199.971 77.442C200.076 77.3637 200.232 77.3898 200.311 77.4942C200.416 77.6508 210.902 92.4214 213.386 108.366C213.412 108.497 213.308 108.627 213.177 108.654C213.203 108.654 213.203 108.654 213.177 108.654Z" fill="#E3E3E3"/>
<path d="M142.048 117.787C141.918 117.787 141.813 117.683 141.787 117.552C141.316 105.522 149.658 80.0516 149.763 79.7906C149.815 79.6601 149.946 79.5818 150.076 79.634C150.207 79.6862 150.286 79.8167 150.233 79.9472C150.155 80.2082 141.839 105.574 142.284 117.526C142.284 117.657 142.179 117.761 142.048 117.787Z" fill="#E3E3E3"/>
<path d="M257.501 201.14C257.371 197.33 257.083 193.389 256.429 189.631C255.697 185.456 254.259 179.271 250.31 174.104C241.419 162.412 223.741 163.195 219.034 163.404C210.3 163.769 204.599 166.536 203.344 167.188C200.598 168.571 198.271 170.215 193.328 174.756C181.822 185.325 176.069 190.623 174.579 196.86C174.291 198.034 171.911 208.655 177.717 214.475C178.867 215.623 181.901 218.102 202.141 218.233C208.626 218.285 213.935 217.998 217.517 217.763C221.152 242.477 224.186 274.236 227.141 299.315C234.025 297.436 244.617 292.826 249.481 290.639C251.1 289.912 252.188 288.385 252.347 286.617C253.444 274.468 257.638 226.26 257.501 201.14Z" fill="#9C8FCD"/>
<path d="M225.808 202.888C225.494 202.862 224.84 203.071 222.905 205.002C222.539 205.367 222.199 205.759 221.859 206.15C222.199 204.454 222.434 202.888 222.565 201.609C222.826 198.947 222.539 198.425 222.225 198.269C222.147 198.217 221.99 198.191 221.78 198.243C220.865 198.582 219.296 201.531 218.538 203.514C217.649 205.837 217.413 207.82 217.335 208.577V208.603C217.047 210.978 216.629 214.005 216.027 217.841C216.21 217.841 216.367 217.815 216.55 217.815C216.577 217.606 216.603 217.424 216.629 217.241C216.655 217.45 216.707 217.633 216.812 217.737C216.838 217.763 216.864 217.789 216.864 217.815C217.073 217.789 217.283 217.789 217.466 217.763C217.466 217.815 217.492 217.867 217.492 217.92C219.192 217.372 220.944 210.143 221.44 207.872C221.493 207.664 221.519 207.455 221.571 207.272C222.094 206.594 222.617 205.967 223.219 205.393C225.102 203.488 225.625 203.41 225.703 203.41C225.729 203.488 225.86 204.115 224.291 207.324C223.349 209.203 221.99 211.63 220.734 213.64C219.715 215.258 218.642 216.824 217.544 218.311C217.57 218.546 217.623 218.781 217.649 219.016C218.878 217.398 220.054 215.701 221.179 213.927C222.46 211.891 223.82 209.438 224.762 207.533C226.618 203.775 226.278 203.306 226.121 203.097C226.069 202.966 225.964 202.888 225.808 202.888ZM219.767 212.492C218.329 217.137 217.492 217.424 217.335 217.424C217.283 217.424 217.256 217.424 217.23 217.398C216.707 216.745 218.172 212.231 220.865 208.29C220.551 209.777 220.159 211.239 219.767 212.492ZM221.153 207.037C219.192 209.621 217.675 212.7 217.021 214.919C217.387 212.465 217.675 210.404 217.858 208.655V208.629C217.936 207.899 218.172 205.941 219.035 203.697C220.081 200.983 221.597 198.713 221.99 198.713C222.173 198.843 222.356 200.07 221.78 203.697C221.624 204.767 221.414 205.889 221.153 207.037Z" fill="#6F61A5"/>
<path d="M195.787 182.585L187.131 217.763C190.923 218.128 195.813 218.155 202.115 218.207C207.763 218.233 212.523 218.05 216.027 217.841C210.823 217.894 193.59 215.623 195.787 182.585Z" fill="#6F61A5"/>
<path d="M226.189 267.125C225.672 266.032 223.444 266.565 223.567 267.768C224.951 281.293 226.417 296.804 227.115 299.315C227.907 302.167 241.369 294.932 248.945 291.027C249.768 290.603 249.636 289.344 248.761 289.044C237.624 285.236 230.671 276.594 226.189 267.125Z" fill="#6F61A5"/>
<path d="M130.76 363.848C129.341 364.047 128.261 365.223 128.182 366.654C127.783 373.901 127.384 381.166 126.984 388.409C131.927 388.774 136.843 389.14 141.785 389.479C143.871 380.584 145.957 371.689 148.042 362.795C148.202 362.11 147.625 361.478 146.929 361.576L130.76 363.848Z" fill="#DFDFDF"/>
<path d="M146.402 398.639H119.492C118.388 398.639 117.492 399.534 117.492 400.639V409.296C117.492 410.4 118.388 411.296 119.492 411.296H146.402C147.506 411.296 148.402 410.4 148.402 409.296V400.639C148.402 399.534 147.506 398.639 146.402 398.639Z" fill="#6F61A5"/>
<path d="M146.493 398.639C146.493 398.404 146.519 398.169 146.519 397.934C146.519 390.549 140.452 384.573 132.947 384.573C125.468 384.573 119.375 390.549 119.375 397.934C119.375 398.169 119.375 398.404 119.401 398.639H146.493Z" fill="#DFDFDF"/>
<path d="M140.426 389.635C140.374 389.635 140.295 389.609 140.269 389.583C134.83 384.677 128.528 387.809 128.449 387.835C128.318 387.887 128.162 387.861 128.109 387.73C128.057 387.6 128.083 387.443 128.214 387.391C128.292 387.365 134.908 384.077 140.583 389.192C140.688 389.296 140.688 389.453 140.609 389.557C140.557 389.609 140.478 389.635 140.426 389.635Z" fill="#133951"/>
<path d="M139.459 383.189C139.433 383.189 139.433 383.189 139.407 383.189C139.276 383.163 139.172 383.033 139.198 382.902L142.859 363.226C143.042 362.234 142.78 361.242 142.1 360.485C141.447 359.755 140.531 359.337 139.564 359.389C137.864 359.468 136.19 360.042 135.118 360.538C133.942 361.06 133.183 362.234 133.183 363.513V382.276C133.183 382.407 133.079 382.537 132.922 382.537C132.791 382.537 132.66 382.433 132.66 382.276V363.513C132.66 362.025 133.549 360.694 134.883 360.068C136.504 359.337 138.073 358.946 139.512 358.894C140.636 358.841 141.708 359.311 142.467 360.172C143.225 361.034 143.539 362.208 143.33 363.33L139.668 383.007C139.668 383.085 139.564 383.189 139.459 383.189Z" fill="#133951"/>
<path d="M142.047 379.901C141.995 379.901 141.943 379.875 141.917 379.849C136.033 376.013 130.75 379.797 130.698 379.849C130.593 379.927 130.437 379.901 130.358 379.797C130.28 379.692 130.306 379.536 130.41 379.458C130.463 379.405 136.033 375.413 142.204 379.458C142.309 379.536 142.361 379.692 142.283 379.797C142.204 379.849 142.126 379.901 142.047 379.901Z" fill="#133951"/>
<path d="M142.047 375.7C141.995 375.7 141.943 375.674 141.917 375.648C136.033 371.811 130.75 375.595 130.698 375.648C130.593 375.726 130.437 375.7 130.358 375.595C130.28 375.491 130.306 375.334 130.41 375.256C130.463 375.204 136.033 371.211 142.204 375.256C142.309 375.334 142.361 375.491 142.283 375.595C142.204 375.648 142.126 375.7 142.047 375.7Z" fill="#133951"/>
<path d="M142.047 371.472C141.995 371.472 141.943 371.446 141.917 371.42C136.033 367.584 130.75 371.368 130.698 371.42C130.593 371.498 130.437 371.472 130.358 371.368C130.28 371.263 130.306 371.107 130.41 371.028C130.463 370.976 136.033 366.983 142.204 371.028C142.309 371.107 142.361 371.263 142.283 371.368C142.204 371.446 142.126 371.472 142.047 371.472Z" fill="#133951"/>
<path d="M234.556 312.414C233.18 312.824 232.288 314.151 232.428 315.58C233.132 322.802 233.837 330.041 234.541 337.259C239.483 336.868 244.4 336.503 249.342 336.111C250.062 326.992 250.782 317.897 251.502 308.78C251.558 308.08 250.893 307.543 250.22 307.743L234.556 312.414Z" fill="#DFDFDF"/>
<path d="M255.556 345.982L228.681 347.376C227.578 347.433 226.73 348.374 226.788 349.477L227.238 358.122C227.295 359.226 228.236 360.073 229.339 360.016L256.214 358.622C257.317 358.565 258.165 357.624 258.108 356.521L257.657 347.876C257.6 346.772 256.659 345.925 255.556 345.982Z" fill="#6F61A5"/>
<path d="M255.645 345.976C255.645 345.741 255.645 345.506 255.619 345.271C255.226 337.912 248.846 332.249 241.367 332.64C233.888 333.032 228.134 339.321 228.527 346.68C228.527 346.915 228.553 347.15 228.579 347.385L255.645 345.976Z" fill="#DFDFDF"/>
<path d="M235.718 336.555C235.639 336.555 235.561 336.529 235.509 336.45C235.43 336.346 235.456 336.189 235.561 336.111C235.613 336.059 241.68 331.805 248.061 336.033C248.165 336.111 248.218 336.268 248.139 336.372C248.061 336.477 247.904 336.529 247.799 336.45C241.706 332.432 235.927 336.477 235.848 336.503C235.822 336.529 235.77 336.555 235.718 336.555Z" fill="#133951"/>
<path d="M239.483 330.527C239.353 330.527 239.248 330.448 239.222 330.318L236.398 311.763C236.162 310.302 236.842 308.84 238.097 308.031C239.588 307.066 241.079 306.439 242.491 306.178C243.589 305.97 244.74 306.257 245.603 307.014C246.492 307.77 246.962 308.866 246.936 310.015L246.283 330.031C246.283 330.161 246.152 330.292 246.021 330.266C245.89 330.266 245.786 330.135 245.786 330.005L246.439 309.989C246.466 308.997 246.047 308.031 245.289 307.379C244.53 306.753 243.563 306.492 242.595 306.674C240.922 306.987 239.379 307.823 238.385 308.475C237.313 309.18 236.738 310.432 236.921 311.711L239.745 330.266C239.771 330.396 239.666 330.527 239.536 330.553C239.51 330.527 239.483 330.527 239.483 330.527Z" fill="#133951"/>
<path d="M236.711 328.334C236.658 328.334 236.58 328.308 236.528 328.256C236.423 328.152 236.423 327.995 236.528 327.891C236.58 327.839 241.47 323.063 248.191 326.116C248.321 326.168 248.374 326.325 248.321 326.456C248.269 326.586 248.112 326.638 247.982 326.586C241.601 323.663 236.946 328.23 236.894 328.256C236.841 328.308 236.763 328.334 236.711 328.334Z" fill="#133951"/>
<path d="M236.056 324.185C236.004 324.185 235.926 324.159 235.873 324.107C235.769 324.002 235.769 323.846 235.873 323.741C235.926 323.689 240.816 318.914 247.536 321.967C247.667 322.019 247.719 322.176 247.667 322.306C247.615 322.437 247.458 322.489 247.327 322.437C240.947 319.54 236.292 324.081 236.239 324.107C236.187 324.159 236.135 324.185 236.056 324.185Z" fill="#133951"/>
<path d="M235.429 320.01C235.377 320.01 235.299 319.983 235.246 319.931C235.142 319.827 235.142 319.67 235.246 319.566C235.299 319.514 240.189 314.738 246.909 317.791C247.04 317.844 247.093 318 247.04 318.131C246.988 318.261 246.831 318.313 246.7 318.261C240.32 315.338 235.665 319.879 235.613 319.931C235.56 319.983 235.508 320.01 235.429 320.01Z" fill="#133951"/>
<path d="M279.553 357.171H194.262C192.605 357.171 191.262 358.514 191.262 360.171V406.129C191.262 407.786 192.605 409.129 194.262 409.129H279.553C281.209 409.129 282.553 407.786 282.553 406.129V360.171C282.553 358.514 281.209 357.171 279.553 357.171Z" fill="#DFDFDF"/>
<path d="M201.59 408.868C201.433 408.868 201.328 408.738 201.328 408.607V361.399C201.328 361.242 201.459 361.138 201.59 361.138C201.747 361.138 201.851 361.268 201.851 361.399V408.607C201.877 408.738 201.747 408.868 201.59 408.868Z" fill="#9C8FCD"/>
<path d="M272.746 361.66H206.664C206.507 361.66 206.402 361.529 206.402 361.399C206.402 361.242 206.533 361.138 206.664 361.138H272.746C272.903 361.138 273.007 361.268 273.007 361.399C273.007 361.529 272.877 361.66 272.746 361.66Z" fill="#9C8FCD"/>
<path d="M102.663 257.587L102.114 257.534C102.114 257.404 103.213 243.468 101.434 225.148C99.8131 208.264 95.3675 184.072 83.3906 164.813L83.8613 164.526C90.5035 175.2 99.0285 194.407 101.984 225.122C103.762 243.494 102.663 257.456 102.663 257.587Z" fill="#9C8FCD"/>
<path d="M268.954 141.17C264.247 141.17 258.651 140.361 252.192 138.717C241.418 135.976 232.16 131.853 232.082 131.801L232.317 131.305C232.683 131.462 269.137 147.642 282.134 136.916C286.71 133.158 287.861 126.451 285.638 116.978L286.161 116.848C288.462 126.529 287.233 133.419 282.474 137.307C279.362 139.891 274.864 141.17 268.954 141.17Z" fill="#9C8FCD"/>
<path d="M74.186 375.021L73.7676 374.656C87.8365 358.163 98.8458 339.895 106.508 320.349C119.217 287.911 122.59 252.576 116.55 215.31C113.098 194.12 106.534 172.459 97.5121 152.704L98.009 152.469C107.031 172.277 113.621 193.989 117.073 215.232C123.139 252.602 119.74 288.015 107.005 320.558C99.3165 340.156 88.281 358.476 74.186 375.021Z" fill="#9C8FCD"/>
<path d="M49.788 125.016C53.4229 125.955 56.9794 122.641 59.699 120.188C60.1174 119.797 64.8506 115.438 64.0923 114.342C63.7785 113.899 62.9678 114.577 61.3988 114.447C57.5547 114.16 55.515 109.593 51.6186 109.201C51.4878 109.201 51.4094 109.175 51.3309 109.175C48.9251 108.967 47.6176 108.836 46.65 109.723C43.2504 112.803 48.0098 124.207 48.0098 124.207C48.3759 124.468 49.0035 124.807 49.788 125.016Z" fill="#EA927A"/>
<path d="M43.0458 74.1941L63.1796 172.166C63.2907 172.706 63.8195 173.055 64.3605 172.945L135.076 158.472C135.617 158.361 135.966 157.833 135.855 157.292L115.721 59.3202C115.61 58.7792 115.081 58.4305 114.54 58.5412L43.8242 73.014C43.2831 73.1248 42.9346 73.6531 43.0458 74.1941Z" fill="#FAF0EB"/>
<path d="M92.9106 84.8271C92.806 84.8271 92.7014 84.7489 92.6752 84.6184L91.1847 77.3896C91.1585 77.3113 91.1847 77.2591 91.2108 77.2069C91.237 77.1548 91.3154 77.1026 91.3677 77.1026L98.6114 75.6151C98.6637 75.589 98.7421 75.6151 98.7944 75.6412C98.8467 75.6672 98.899 75.7455 98.899 75.7977L100.39 83.0265C100.416 83.157 100.337 83.2875 100.18 83.3135L92.9367 84.801C92.9367 84.8271 92.9367 84.8271 92.9106 84.8271ZM91.7338 77.5462L93.1198 84.2791L99.8666 82.896L98.4806 76.1631L91.7338 77.5462Z" fill="#6F61A5"/>
<path d="M104.809 82.374C104.704 82.374 104.6 82.2957 104.574 82.1653L103.083 74.9365C103.057 74.806 103.135 74.6755 103.292 74.6494L110.536 73.1619C110.667 73.1358 110.797 73.2141 110.824 73.3707L112.314 80.5995C112.34 80.7299 112.262 80.8604 112.105 80.8865L104.861 82.374C104.835 82.374 104.835 82.374 104.809 82.374ZM103.632 75.0931L105.018 81.826L111.765 80.4429L110.379 73.71L103.632 75.0931Z" fill="#6F61A5"/>
<path d="M95.4477 97.197C95.3431 97.197 95.2385 97.1187 95.2123 96.9882L93.7218 89.7595C93.6956 89.6812 93.7218 89.629 93.7479 89.5768C93.7741 89.5246 93.8525 89.4724 93.9048 89.4724L101.148 87.9849C101.201 87.9588 101.279 87.9849 101.332 88.011C101.384 88.0371 101.436 88.1154 101.436 88.1676L102.927 95.3964C102.953 95.5268 102.874 95.6573 102.717 95.6834L95.4738 97.1709C95.5 97.197 95.4738 97.197 95.4477 97.197ZM94.2709 89.9161L95.6569 96.649L102.404 95.2659L101.018 88.533L94.2709 89.9161Z" fill="#6F61A5"/>
<path d="M107.346 94.7439C107.242 94.7439 107.137 94.6656 107.111 94.5351L105.62 87.3064C105.594 87.1759 105.672 87.0454 105.829 87.0193L113.073 85.5318C113.125 85.5057 113.204 85.5318 113.256 85.5579C113.308 85.584 113.361 85.6623 113.361 85.7145L114.851 92.9432C114.877 93.0215 114.851 93.0737 114.825 93.1259C114.799 93.1781 114.721 93.2303 114.668 93.2303L107.425 94.7178C107.372 94.7439 107.372 94.7439 107.346 94.7439ZM106.169 87.489L107.555 94.222L114.302 92.8388L112.916 86.1059L106.169 87.489Z" fill="#6F61A5"/>
<path d="M97.9829 109.567C97.9306 109.567 97.8782 109.541 97.8521 109.514C97.7998 109.488 97.7475 109.41 97.7475 109.358L96.2569 102.129C96.2308 102.051 96.2569 101.999 96.2831 101.946C96.3092 101.894 96.3877 101.842 96.44 101.842L103.684 100.355C103.814 100.328 103.945 100.407 103.971 100.563L105.462 107.792C105.488 107.923 105.41 108.053 105.253 108.079L98.009 109.567C98.0352 109.567 98.009 109.567 97.9829 109.567ZM96.8061 102.286L98.1921 109.019L104.939 107.635L103.553 100.903L96.8061 102.286Z" fill="#6F61A5"/>
<path d="M109.881 107.14C109.829 107.14 109.777 107.114 109.751 107.087C109.698 107.061 109.646 106.983 109.646 106.931L108.155 99.7021C108.129 99.5716 108.208 99.4411 108.365 99.4151L115.608 97.9276C115.739 97.9015 115.87 97.9797 115.896 98.1363L117.386 105.365C117.413 105.443 117.386 105.496 117.36 105.548C117.334 105.6 117.256 105.652 117.203 105.652L109.96 107.14C109.934 107.114 109.907 107.14 109.881 107.14ZM108.705 99.8587L110.09 106.592L116.837 105.208L115.451 98.4756L108.705 99.8587Z" fill="#6F61A5"/>
<path d="M100.547 121.936C100.443 121.936 100.338 121.858 100.312 121.728L98.8214 114.499C98.7952 114.368 98.8737 114.238 99.0306 114.212L106.274 112.724C106.405 112.698 106.536 112.776 106.562 112.933L108.052 120.162C108.079 120.292 108 120.423 107.843 120.449L100.6 121.936C100.573 121.936 100.547 121.936 100.547 121.936ZM99.3444 114.655L100.73 121.388L107.477 120.005L106.091 113.272L99.3444 114.655Z" fill="#6F61A5"/>
<path d="M112.446 119.51C112.393 119.51 112.341 119.483 112.315 119.457C112.263 119.431 112.21 119.353 112.21 119.301L110.72 112.072C110.694 111.942 110.772 111.811 110.929 111.785L118.173 110.297C118.225 110.271 118.303 110.297 118.356 110.324C118.408 110.35 118.46 110.428 118.46 110.48L119.951 117.709C119.977 117.839 119.899 117.97 119.742 117.996L112.498 119.483C112.472 119.51 112.446 119.51 112.446 119.51ZM111.243 112.229L112.629 118.961L119.376 117.578L117.99 110.845L111.243 112.229Z" fill="#6F61A5"/>
<path d="M103.135 134.541C103.031 134.541 102.926 134.463 102.9 134.332L101.409 127.103C101.383 127.025 101.409 126.973 101.435 126.921C101.462 126.869 101.54 126.816 101.592 126.816L108.836 125.329C108.888 125.303 108.967 125.329 109.019 125.355C109.071 125.381 109.124 125.459 109.124 125.512L110.614 132.74C110.64 132.871 110.562 133.001 110.405 133.027L103.161 134.515C103.161 134.541 103.135 134.541 103.135 134.541ZM101.932 127.26L103.318 133.993L110.065 132.61L108.679 125.877L101.932 127.26Z" fill="#6F61A5"/>
<path d="M115.034 132.114C114.981 132.114 114.929 132.088 114.903 132.062C114.851 132.036 114.798 131.957 114.798 131.905L113.308 124.676C113.282 124.598 113.308 124.546 113.334 124.494C113.36 124.442 113.438 124.389 113.491 124.389L120.734 122.902C120.865 122.876 120.996 122.954 121.022 123.111L122.513 130.339C122.539 130.47 122.46 130.6 122.303 130.627L115.06 132.114H115.034ZM113.831 124.833L115.217 131.566L121.963 130.183L120.578 123.45L113.831 124.833Z" fill="#6F61A5"/>
<path d="M105.672 146.911C105.568 146.911 105.463 146.833 105.437 146.702L103.946 139.473C103.92 139.395 103.946 139.343 103.973 139.291C103.999 139.238 104.077 139.186 104.129 139.186L111.373 137.699C111.425 137.673 111.504 137.699 111.556 137.725C111.608 137.751 111.661 137.829 111.661 137.881L113.151 145.11C113.177 145.189 113.151 145.241 113.125 145.293C113.099 145.345 113.021 145.397 112.968 145.397L105.725 146.885C105.698 146.911 105.698 146.911 105.672 146.911ZM104.496 139.63L105.882 146.363L112.628 144.98L111.242 138.247L104.496 139.63Z" fill="#6F61A5"/>
<path d="M117.571 144.484C117.518 144.484 117.466 144.458 117.44 144.432C117.388 144.406 117.335 144.327 117.335 144.275L115.845 137.046C115.819 136.916 115.897 136.785 116.054 136.759L123.298 135.272C123.35 135.246 123.428 135.272 123.481 135.298C123.533 135.324 123.585 135.402 123.585 135.454L125.076 142.683C125.102 142.814 125.024 142.944 124.867 142.97L117.623 144.458C117.597 144.484 117.597 144.484 117.571 144.484ZM116.394 137.203L117.78 143.936L124.527 142.553L123.141 135.82L116.394 137.203Z" fill="#6F61A5"/>
<path d="M52.8223 89.2634C52.7177 89.2634 52.6131 89.1851 52.587 89.0547C52.5608 88.9242 52.6393 88.7937 52.7962 88.7676L85.9025 81.9825C86.0333 81.9564 86.1641 82.0347 86.1902 82.1913C86.2164 82.3217 86.1379 82.4522 85.981 82.4783L52.8746 89.2634C52.8746 89.2634 52.8485 89.2634 52.8223 89.2634Z" fill="#F1C48B"/>
<path d="M53.5802 92.865C53.4755 92.865 53.3709 92.7867 53.3448 92.6562C53.3186 92.5257 53.3971 92.3953 53.554 92.3692L86.6604 85.584C86.7911 85.558 86.9219 85.6362 86.948 85.7928C86.9742 85.9233 86.8957 86.0538 86.7388 86.0799L53.6325 92.865C53.6063 92.865 53.5802 92.865 53.5802 92.865Z" fill="#F1C48B"/>
<path d="M55.0196 99.937C54.915 99.937 54.8104 99.8587 54.7843 99.7282C54.7581 99.5978 54.8366 99.4673 54.9935 99.4412L88.0998 92.6561C88.2306 92.63 88.3613 92.7083 88.3875 92.8648C88.4136 92.9953 88.3352 93.1258 88.1783 93.1519L55.0719 99.937C55.0458 99.9109 55.0458 99.937 55.0196 99.937Z" fill="#F1C48B"/>
<path d="M55.7774 103.538C55.6728 103.538 55.5682 103.46 55.5421 103.33C55.5159 103.199 55.5944 103.069 55.7513 103.042L88.8576 96.2574C88.9884 96.2313 89.1191 96.3096 89.1453 96.4662C89.1714 96.5966 89.093 96.7271 88.9361 96.7532L55.8297 103.538C55.8036 103.538 55.7774 103.538 55.7774 103.538Z" fill="#F1C48B"/>
<path d="M57.7657 113.22C57.6611 113.22 57.5565 113.142 57.5303 113.011C57.5042 112.881 57.5826 112.75 57.7395 112.724L90.8459 105.939C90.9767 105.913 91.1074 105.991 91.1336 106.148C91.1597 106.279 91.0813 106.409 90.9244 106.435L57.818 113.22C57.7918 113.194 57.7657 113.22 57.7657 113.22Z" fill="#F1C48B"/>
<path d="M58.4962 116.822C58.3916 116.822 58.287 116.743 58.2608 116.613C58.2347 116.482 58.3131 116.352 58.47 116.326L91.5764 109.541C91.7071 109.514 91.8379 109.593 91.864 109.749C91.8902 109.88 91.8117 110.01 91.6548 110.036L58.5485 116.822C58.5223 116.822 58.5223 116.822 58.4962 116.822Z" fill="#F1C48B"/>
<path d="M59.9356 123.867C59.831 123.867 59.7264 123.789 59.7003 123.659C59.6741 123.528 59.7526 123.398 59.9095 123.372L93.0158 116.586C93.1466 116.56 93.2773 116.639 93.3035 116.795C93.3296 116.926 93.2512 117.056 93.0943 117.082L59.9879 123.867C59.9879 123.867 59.9618 123.867 59.9356 123.867Z" fill="#F1C48B"/>
<path d="M60.6934 127.495C60.5888 127.495 60.4842 127.417 60.4581 127.286C60.4319 127.156 60.5104 127.025 60.6673 126.999L93.7736 120.214C93.9044 120.188 94.0351 120.266 94.0613 120.423C94.0874 120.553 94.009 120.684 93.8521 120.71L60.7457 127.495C60.7196 127.495 60.6934 127.495 60.6934 127.495Z" fill="#F1C48B"/>
<path d="M62.8634 138.038C62.7588 138.038 62.6542 137.96 62.628 137.829C62.6019 137.699 62.6803 137.568 62.8372 137.542L95.9436 130.757C96.0743 130.731 96.2051 130.809 96.2312 130.966C96.2574 131.096 96.1789 131.227 96.022 131.253L62.9157 138.038C62.8895 138.038 62.8634 138.038 62.8634 138.038Z" fill="#F1C48B"/>
<path d="M63.5958 141.639C63.4912 141.639 63.3866 141.561 63.3604 141.431C63.3343 141.3 63.4127 141.17 63.5696 141.144L96.676 134.358C96.8067 134.332 96.9375 134.411 96.9636 134.567C96.9898 134.698 96.9113 134.828 96.7544 134.854L63.6481 141.639C63.6219 141.639 63.6219 141.639 63.5958 141.639Z" fill="#F1C48B"/>
<path d="M65.0352 148.712C64.9306 148.712 64.826 148.633 64.7999 148.503C64.7737 148.372 64.8522 148.242 65.0091 148.216L98.1154 141.431C98.2462 141.405 98.3769 141.483 98.4031 141.64C98.4292 141.77 98.3508 141.9 98.1939 141.927L65.0875 148.712C65.0875 148.686 65.0614 148.712 65.0352 148.712Z" fill="#F1C48B"/>
<path d="M65.793 152.313C65.6884 152.313 65.5838 152.234 65.5577 152.104C65.5315 151.973 65.61 151.843 65.7669 151.817L98.8733 145.032C99.004 145.006 99.1348 145.084 99.1609 145.241C99.1871 145.371 99.1086 145.502 98.9517 145.528L65.8453 152.313C65.8192 152.313 65.793 152.313 65.793 152.313Z" fill="#F1C48B"/>
<path d="M96.5982 82.1653C96.4675 82.1653 96.3367 82.1392 96.2321 82.0609L93.7217 80.4168C93.4079 80.208 93.3294 79.7905 93.5386 79.4773C93.7478 79.1642 94.1662 79.0859 94.48 79.2947L96.1275 80.3907L97.4873 73.162C97.5658 72.7966 97.9057 72.5617 98.2719 72.6139C98.638 72.6922 98.8733 73.0315 98.821 73.3968L97.2781 81.6172C97.2258 81.826 97.0951 82.0348 96.8859 82.1131C96.7551 82.1392 96.6767 82.1653 96.5982 82.1653Z" fill="#367091"/>
<path d="M110.143 93.0215C110.012 93.0215 109.882 92.9954 109.777 92.9171L107.267 91.273C106.953 91.0642 106.874 90.6467 107.084 90.3335C107.293 90.0204 107.711 89.9421 108.025 90.1508L109.672 91.2469L111.032 84.0182C111.111 83.6528 111.451 83.4179 111.817 83.4701C112.183 83.5484 112.418 83.8877 112.366 84.253L110.823 92.4734C110.771 92.6822 110.64 92.891 110.431 92.9693C110.326 92.9954 110.248 93.0215 110.143 93.0215Z" fill="#367091"/>
<path d="M112.628 105C112.497 105 112.366 104.974 112.261 104.895L109.751 103.251C109.437 103.043 109.359 102.625 109.568 102.312C109.777 101.999 110.196 101.92 110.509 102.129L112.157 103.225L113.517 95.9964C113.595 95.6311 113.935 95.3962 114.301 95.4484C114.667 95.5267 114.903 95.8659 114.85 96.2313L113.307 104.452C113.255 104.66 113.124 104.869 112.915 104.948C112.784 104.974 112.706 105 112.628 105Z" fill="#367091"/>
<path d="M103.424 120.58C103.294 120.58 103.163 120.553 103.058 120.475L100.548 118.831C100.234 118.622 100.156 118.205 100.365 117.892C100.574 117.578 100.992 117.5 101.306 117.709L102.954 118.805L104.314 111.576C104.392 111.211 104.732 110.976 105.098 111.028C105.464 111.107 105.699 111.446 105.647 111.811L104.104 120.032C104.052 120.24 103.921 120.449 103.712 120.527C103.581 120.553 103.503 120.58 103.424 120.58Z" fill="#367091"/>
<path d="M117.805 130.287C117.675 130.287 117.544 130.261 117.439 130.183L114.929 128.539C114.615 128.33 114.536 127.913 114.746 127.599C114.955 127.286 115.373 127.208 115.687 127.417L117.335 128.513L118.694 121.284C118.773 120.919 119.113 120.684 119.479 120.736C119.845 120.814 120.08 121.154 120.028 121.519L118.485 129.739C118.433 129.948 118.302 130.157 118.093 130.235C117.988 130.261 117.91 130.287 117.805 130.287Z" fill="#367091"/>
<path d="M109.622 145.554C109.491 145.554 109.36 145.528 109.256 145.449L106.745 143.805C106.431 143.596 106.353 143.179 106.562 142.866C106.771 142.553 107.19 142.474 107.503 142.683L109.151 143.779L110.511 136.55C110.589 136.185 110.929 135.95 111.295 136.002C111.661 136.081 111.897 136.42 111.844 136.785L110.302 145.006C110.249 145.214 110.119 145.423 109.909 145.502C109.805 145.528 109.7 145.554 109.622 145.554Z" fill="#367091"/>
<path d="M58.5759 76.3196C58.2621 76.3196 57.9745 76.0847 57.9222 75.7715C57.8437 75.4062 58.1052 75.0669 58.4713 74.9886L100.756 67.1336C101.123 67.0553 101.463 67.3162 101.541 67.6816C101.619 68.0469 101.358 68.3862 100.992 68.4645L58.7067 76.3196C58.6544 76.3196 58.6282 76.3196 58.5759 76.3196Z" fill="#9C8FCD"/>
<path d="M53.9205 105.47H53.5544C53.4498 105.47 53.3452 105.47 53.2144 105.496C53.0052 105.496 52.796 105.522 52.5868 105.548C52.1684 105.6 51.75 105.652 51.3316 105.757C50.4948 105.939 49.6841 106.226 48.8996 106.592C48.5074 106.774 48.1151 107.009 47.749 107.27C47.3829 107.531 47.0168 107.792 46.6768 108.105C45.9969 108.732 45.4216 109.462 44.9509 110.271V110.297C44.3495 111.315 44.7156 112.698 45.7877 113.377C46.8599 114.055 48.2197 113.768 48.8212 112.724C48.8996 112.62 48.9519 112.49 48.9781 112.359C49.1611 111.863 49.3965 111.367 49.7364 110.924C49.8933 110.689 50.0764 110.48 50.2856 110.297C50.4948 110.089 50.704 109.906 50.9393 109.723C51.4101 109.358 51.9331 109.071 52.5084 108.81C52.796 108.679 53.0837 108.575 53.3975 108.497C53.5544 108.445 53.7113 108.418 53.842 108.366C53.9205 108.34 53.9989 108.34 54.0512 108.314L54.2343 108.288C54.9927 108.262 55.568 107.609 55.4895 106.827C55.4111 106.044 54.6788 105.443 53.9205 105.47Z" fill="#FDA67D"/>
<path d="M56.2992 108.445L55.5408 108.601C55.3055 108.653 55.044 108.706 54.8086 108.758C54.3379 108.862 53.8411 108.993 53.3704 109.123C52.4289 109.384 51.4614 109.697 50.5461 110.089C50.0754 110.271 49.6047 110.48 49.134 110.715C48.6633 110.95 48.1926 111.211 47.748 111.498C47.2773 111.785 46.8328 112.124 46.3882 112.542C45.9436 112.959 45.5252 113.429 45.1591 114.029L45.1068 114.108C44.4792 115.125 44.8192 116.508 45.8913 117.187C46.9374 117.865 48.2972 117.604 48.9248 116.587C48.9509 116.535 48.9771 116.482 49.0294 116.43C49.134 116.221 49.2909 115.986 49.5262 115.752C49.7355 115.517 49.997 115.282 50.3108 115.047C50.5984 114.812 50.9384 114.603 51.2783 114.395C51.6183 114.186 51.9844 114.003 52.3766 113.82C53.135 113.455 53.9195 113.142 54.7563 112.829C55.1747 112.672 55.5931 112.542 56.0115 112.411C56.2207 112.359 56.4299 112.281 56.6391 112.229L57.3191 112.046C58.2866 111.785 58.8358 110.793 58.522 109.802C58.2082 108.862 57.2406 108.262 56.2992 108.445Z" fill="#FDA67D"/>
<path d="M55.306 112.959L54.1292 113.246C53.737 113.351 53.3709 113.455 53.0047 113.559C52.2464 113.794 51.488 114.029 50.7558 114.342C49.9975 114.629 49.2391 114.969 48.4807 115.412C48.0885 115.621 47.6962 115.882 47.304 116.221C47.0948 116.378 46.8856 116.56 46.6764 116.795L46.5979 116.874L46.5195 116.978C46.4672 117.056 46.4149 117.108 46.3626 117.187C46.3103 117.239 46.258 117.343 46.2057 117.422C46.1534 117.5 46.1011 117.578 46.0488 117.656C45.5257 118.726 45.9703 120.083 47.0686 120.658C48.1669 121.258 49.5006 120.866 50.0236 119.796V119.77V119.744L50.0498 119.718C50.0759 119.666 50.1544 119.588 50.2328 119.509C50.3897 119.353 50.5989 119.17 50.8604 118.987C51.3573 118.648 51.9326 118.309 52.534 117.996C53.1355 117.683 53.7893 117.396 54.443 117.108C54.783 116.978 55.0968 116.847 55.4367 116.717L56.4827 116.326C57.398 116.012 57.8164 114.995 57.4503 114.081C57.1104 113.246 56.1689 112.776 55.306 112.959Z" fill="#FDA67D"/>
<path d="M54.104 118.074L53.2933 118.179C53.0318 118.205 52.7703 118.257 52.5088 118.309C51.9858 118.414 51.4628 118.518 50.9137 118.648C50.3645 118.805 49.8154 118.962 49.2139 119.249C48.9001 119.405 48.5863 119.562 48.2463 119.849L48.1156 119.953C48.0633 120.005 48.011 120.032 47.9848 120.084C47.9325 120.136 47.9064 120.162 47.8541 120.214C47.8018 120.266 47.7495 120.319 47.7233 120.397C47.671 120.449 47.6449 120.501 47.5926 120.58C47.5403 120.658 47.5141 120.736 47.4618 120.814C47.4357 120.867 47.4095 120.893 47.4095 120.945C47.3834 120.997 47.3834 121.049 47.3572 121.075C47.3311 121.18 47.2788 121.258 47.2526 121.363C46.9388 122.459 47.6449 123.633 48.7432 123.972C49.8677 124.311 50.9921 123.711 51.2798 122.615C51.2798 122.641 51.2536 122.693 51.2536 122.72C51.2536 122.746 51.2275 122.746 51.2275 122.772C51.2275 122.798 51.2275 122.798 51.2013 122.798C51.1752 122.85 51.149 122.902 51.1229 122.902L51.0967 122.928C51.1229 122.902 51.2013 122.798 51.3321 122.72C51.5936 122.537 51.9597 122.354 52.3519 122.198C52.7442 122.041 53.1626 121.884 53.6072 121.754C53.8164 121.676 54.0517 121.623 54.2609 121.571L54.9931 121.389C55.9084 121.154 56.4052 120.24 56.1437 119.327C55.8038 118.544 54.967 117.996 54.104 118.074Z" fill="#FDA67D"/>
<path d="M55.018 105.783C54.8349 105.731 52.9783 105.078 52.2199 105.861C52.1676 105.913 51.7492 106.357 51.9061 106.722C51.9845 106.905 52.1414 107.009 52.2984 107.088C52.6122 107.244 52.9521 107.27 53.6059 107.27C54.155 107.27 54.4427 107.244 54.7303 107.088C54.7826 107.062 54.8349 107.035 54.8611 106.983C55.2533 106.67 55.0703 105.966 55.018 105.783Z" fill="#EFC4BD"/>
<path d="M57.6322 108.471C57.0308 108.471 56.5601 108.549 56.2463 108.627C55.6448 108.758 55.1741 108.888 54.8341 109.306C54.7557 109.384 54.3896 109.854 54.5465 110.297C54.6249 110.558 54.8341 110.689 54.9126 110.741C55.0433 110.845 55.331 111.002 56.2463 110.898C57.0308 110.793 57.3969 110.767 57.6322 110.506C58.0245 110.089 57.9983 109.254 57.6322 108.471Z" fill="#EFC4BD"/>
<path d="M56.5092 112.959C55.9077 112.959 55.437 113.038 55.1232 113.116C54.5218 113.247 54.051 113.377 53.7111 113.795C53.6326 113.873 53.2665 114.343 53.4234 114.786C53.5019 115.047 53.7111 115.178 53.7895 115.23C53.9203 115.334 54.2079 115.491 55.1232 115.386C55.9077 115.282 56.2738 115.23 56.5092 114.995C56.9014 114.577 56.9014 113.742 56.5092 112.959Z" fill="#EFC4BD"/>
<path d="M54.9139 118.205C54.417 118.205 54.0248 118.257 53.7633 118.335C53.2664 118.44 52.8742 118.544 52.6127 118.883C52.5604 118.962 52.2466 119.327 52.3773 119.692C52.4558 119.901 52.6127 120.032 52.665 120.058C52.7696 120.136 53.0049 120.266 53.7633 120.188C54.3909 120.11 54.7047 120.058 54.9139 119.875C55.2539 119.51 55.2277 118.831 54.9139 118.205Z" fill="#EFC4BD"/>
<path d="M46.3883 112.776C46.3099 112.776 46.2576 112.75 46.2053 112.698C46.1007 112.594 46.1268 112.437 46.2314 112.333C46.3099 112.281 47.905 110.871 49.0557 110.454C49.1864 110.402 49.3433 110.48 49.3695 110.61C49.4218 110.741 49.3433 110.897 49.2126 110.924C48.1665 111.289 46.5714 112.698 46.5452 112.698C46.5191 112.75 46.4406 112.776 46.3883 112.776Z" fill="#6F61A5"/>
<path d="M47.2768 116.482C47.1983 116.482 47.1199 116.43 47.0676 116.378C46.9891 116.273 47.0153 116.117 47.146 116.039C47.3029 115.934 50.9378 113.585 52.3499 113.559C52.4807 113.559 52.6114 113.664 52.6114 113.82C52.6114 113.951 52.5068 114.081 52.3499 114.081C51.3039 114.107 48.4274 115.804 47.4337 116.456C47.3814 116.456 47.3291 116.482 47.2768 116.482Z" fill="#6F61A5"/>
<path d="M48.2442 120.136C48.1396 120.136 48.0611 120.084 48.0088 120.005C47.9565 119.875 48.0088 119.718 48.1134 119.666L51.5652 117.97C51.696 117.918 51.8529 117.97 51.9052 118.074C51.9575 118.205 51.9052 118.361 51.8006 118.413L48.3488 120.11C48.3226 120.136 48.2703 120.136 48.2442 120.136Z" fill="#6F61A5"/>
<path d="M68.068 164.998L67.3358 165.476L66.6048 165.948C66.433 166.06 66.3056 166.128 66.2225 166.15C66.0685 166.188 65.945 166.136 65.852 165.993C65.69 165.746 65.8015 165.496 66.1867 165.245L66.3657 165.133L66.5214 165.042C66.4444 164.924 66.3195 164.758 66.1466 164.542C65.9762 164.324 65.8533 164.158 65.7779 164.042C65.5742 163.731 65.2928 163.239 64.9338 162.568C64.5788 161.907 64.2942 161.416 64.08 161.094C63.9181 161.564 63.7917 161.828 63.701 161.887C63.6028 161.951 63.4929 161.971 63.3712 161.945C63.2519 161.918 63.161 161.857 63.0985 161.761C63.0231 161.646 63.0371 161.437 63.1406 161.135C63.2122 160.956 63.302 160.683 63.4101 160.319C63.4832 159.96 63.6179 159.716 63.8142 159.588C63.9785 159.481 64.1225 159.522 64.246 159.71C64.2829 159.767 64.3308 159.856 64.3899 159.978C64.4474 160.098 64.4946 160.187 64.5314 160.243C64.5844 160.324 64.6683 160.444 64.7831 160.603C64.9004 160.761 64.9855 160.881 65.0384 160.962C65.2213 161.241 65.4645 161.677 65.7681 162.27C66.0718 162.862 66.3142 163.297 66.4955 163.574C66.5885 163.716 66.7114 163.882 66.8642 164.073C67.0169 164.264 67.137 164.423 67.2245 164.552L67.6061 164.292C67.7091 164.225 67.8162 164.204 67.9273 164.229C68.0393 164.251 68.1282 164.312 68.194 164.412C68.2614 164.515 68.2823 164.622 68.257 164.733C68.234 164.842 68.1711 164.931 68.068 164.998ZM70.9085 163.343C70.1628 163.83 69.3952 163.845 68.6058 163.387C68.0025 163.033 67.4258 162.435 66.8756 161.594C66.4105 160.883 66.1739 160.152 66.166 159.402C66.16 158.52 66.5005 157.855 67.1874 157.407C67.8326 156.986 68.5151 156.932 69.235 157.246C69.8578 157.518 70.3929 157.996 70.8404 158.68C71.559 159.778 71.9246 160.717 71.9372 161.496C71.9481 162.273 71.6052 162.888 70.9085 163.343ZM67.6481 158.119C67.1918 158.417 66.9815 158.885 67.0173 159.523C67.0475 160.056 67.2254 160.571 67.551 161.069C68.0787 161.875 68.5841 162.41 69.0671 162.672C69.5501 162.934 70.0099 162.922 70.4466 162.637C70.9667 162.297 71.1454 161.757 70.983 161.017C70.8705 160.502 70.6073 159.929 70.1935 159.296C69.7588 158.632 69.3289 158.203 68.9039 158.008C68.4813 157.811 68.0627 157.848 67.6481 158.119ZM75.2068 160.537C74.461 161.024 73.6935 161.039 72.9041 160.581C72.3008 160.226 71.7241 159.629 71.1739 158.788C70.7087 158.077 70.4722 157.346 70.4642 156.595C70.4583 155.714 70.7988 155.049 71.4856 154.601C72.1308 154.18 72.8134 154.126 73.5333 154.44C74.156 154.712 74.6912 155.19 75.1387 155.874C75.8573 156.972 76.2229 157.911 76.2354 158.69C76.2464 159.466 75.9035 160.082 75.2068 160.537ZM71.9463 155.313C71.49 155.611 71.2798 156.079 71.3155 156.717C71.3457 157.25 71.5236 157.765 71.8493 158.263C72.377 159.069 72.8823 159.604 73.3653 159.866C73.8483 160.128 74.3082 160.116 74.7448 159.831C75.2649 159.491 75.4437 158.951 75.2812 158.211C75.1687 157.696 74.9056 157.123 74.4918 156.49C74.0571 155.826 73.6272 155.396 73.2021 155.202C72.7795 155.005 72.3609 155.042 71.9463 155.313ZM79.4294 149.981C79.5898 150.227 79.5234 150.524 79.23 150.873C79.1857 150.923 79.009 151.048 78.6999 151.25C78.219 151.564 77.9464 151.921 77.8818 152.32C77.8465 152.539 77.892 152.913 78.0181 153.443C78.1546 153.095 78.408 152.8 78.7784 152.558C79.2568 152.246 79.7619 152.221 80.2936 152.482C80.7307 152.701 81.1168 153.066 81.4521 153.578C81.813 154.13 81.9839 154.694 81.965 155.269C81.947 155.921 81.6742 156.42 81.1468 156.764C80.5777 157.136 79.9985 157.171 79.4094 156.87C78.9157 156.618 78.4443 156.149 77.9952 155.463C77.5621 154.801 77.271 154.078 77.1219 153.293C76.9387 152.328 77.0749 151.597 77.5305 151.1C77.6159 151.006 77.8034 150.865 78.0928 150.676C78.3562 150.5 78.5224 150.364 78.5916 150.266C78.5026 150.034 78.5317 149.87 78.6789 149.773C78.7917 149.7 78.9256 149.688 79.0804 149.737C79.2377 149.785 79.354 149.866 79.4294 149.981ZM80.8122 154.085C80.2652 153.249 79.7342 153 79.219 153.336C78.8682 153.565 78.7001 153.907 78.7147 154.363C78.7243 154.752 78.8509 155.133 79.0948 155.506C79.2824 155.793 79.5132 155.99 79.787 156.098C80.0972 156.225 80.3885 156.199 80.6608 156.021C80.9944 155.803 81.1609 155.499 81.1604 155.107C81.1576 154.777 81.0416 154.436 80.8122 154.085ZM86.323 153.421C86.2764 153.452 86.1564 153.453 85.9632 153.425C85.787 153.397 85.6463 153.361 85.541 153.318C85.3889 153.599 85.2442 153.83 85.1068 154.011C84.971 154.194 84.843 154.325 84.7228 154.403C84.1488 154.778 83.6247 154.889 83.1504 154.737C82.7038 154.595 82.2751 154.21 81.8645 153.582C81.4763 152.989 81.3479 152.348 81.4792 151.661C81.613 150.972 81.9633 150.442 82.5299 150.072C82.7434 149.933 83.0186 149.832 83.3558 149.769C83.7792 149.689 84.0543 149.745 84.181 149.939C84.2243 150.005 84.2383 150.08 84.2229 150.164C84.2593 150.273 84.34 150.439 84.4648 150.662C84.5921 150.883 84.7636 151.161 84.9793 151.496C85.1757 151.802 85.3538 152.028 85.5134 152.176C85.6085 152.268 85.8269 152.433 86.1687 152.672C86.2147 152.705 86.2855 152.751 86.3809 152.812L86.4438 152.86C86.508 152.958 86.5266 153.061 86.4996 153.17C86.4726 153.278 86.4137 153.362 86.323 153.421ZM83.8854 151.365C83.8164 151.26 83.748 151.142 83.68 151.011C83.6129 150.877 83.5472 150.731 83.4827 150.573C83.3615 150.586 83.2605 150.603 83.1799 150.624C83.1016 150.644 83.0429 150.666 83.0036 150.692C82.6234 150.94 82.3965 151.31 82.323 151.803C82.2504 152.291 82.3464 152.737 82.6111 153.142C82.8741 153.544 83.1426 153.799 83.4164 153.907C83.6902 154.015 83.9694 153.977 84.2539 153.791C84.4895 153.637 84.6613 153.464 84.7695 153.27C84.8274 153.166 84.8903 152.992 84.9583 152.748C84.4548 152.15 84.0971 151.689 83.8854 151.365ZM90.5425 150.005C90.6115 150.111 90.6341 150.22 90.6103 150.334C90.5866 150.447 90.5207 150.539 90.4128 150.61C90.3073 150.679 90.1977 150.701 90.0841 150.677C89.9705 150.653 89.8792 150.589 89.8103 150.483C89.7573 150.403 89.6798 150.297 89.5777 150.168C89.4603 150.021 89.3812 149.919 89.3402 149.861C89.203 149.668 89.0325 149.415 88.8287 149.104C88.8785 149.18 88.561 148.684 87.8762 147.616C87.7288 147.744 87.5728 147.861 87.4085 147.968C86.9988 148.236 86.5966 148.488 86.2018 148.725C86.2676 148.825 86.369 148.978 86.5062 149.182C86.6418 149.384 86.7433 149.536 86.8107 149.639C87.3175 150.414 87.6207 150.974 87.72 151.318C87.8799 151.889 87.7232 152.329 87.2497 152.638C87.0657 152.758 86.8802 152.825 86.6931 152.839C86.4678 152.853 86.299 152.774 86.1867 152.602C86.1273 152.512 86.105 152.416 86.1197 152.316C86.1369 152.213 86.1921 152.132 86.2853 152.071C86.3344 152.039 86.4163 152.012 86.5312 151.989C86.646 151.967 86.7267 151.94 86.7733 151.91C86.9524 151.793 86.9859 151.587 86.8739 151.293C86.8071 151.127 86.6526 150.859 86.4104 150.488C86.2853 150.297 86.0842 150.019 85.8069 149.654C85.5322 149.288 85.333 149.01 85.2095 148.821C85.1374 148.711 85.1164 148.599 85.1467 148.485C85.1794 148.369 85.251 148.275 85.3614 148.203C85.4252 148.161 85.5122 148.11 85.6225 148.048C85.7614 147.971 85.8505 147.92 85.8897 147.895C86.1676 147.731 86.515 147.513 86.9321 147.24C87.0229 147.181 87.1465 147.076 87.3032 146.925C87.4598 146.773 87.5847 146.667 87.6779 146.606C87.9502 146.429 88.1634 146.457 88.3174 146.693C88.4569 146.906 88.6618 147.227 88.9319 147.656C89.2045 148.083 89.4106 148.404 89.5501 148.617C89.7458 148.916 89.9131 149.164 90.052 149.36C90.0945 149.42 90.1769 149.527 90.2991 149.682C90.4069 149.814 90.488 149.922 90.5425 150.005ZM95.1205 147.017C95.1894 147.122 95.212 147.232 95.1882 147.345C95.1645 147.459 95.0986 147.551 94.9907 147.621C94.8852 147.69 94.7756 147.712 94.662 147.689C94.5484 147.665 94.4572 147.6 94.3882 147.495C94.3352 147.414 94.2577 147.309 94.1556 147.179C94.0383 147.032 93.9591 146.93 93.9182 146.873C93.7809 146.679 93.6104 146.426 93.4067 146.115C93.4564 146.191 93.1389 145.695 92.4542 144.627C92.3067 144.755 92.1508 144.872 91.9864 144.98C91.5767 145.247 91.1745 145.499 90.7797 145.736C90.8455 145.837 90.947 145.989 91.0842 146.193C91.2197 146.395 91.3212 146.548 91.3886 146.651C91.8955 147.425 92.1986 147.985 92.2979 148.329C92.4579 148.9 92.3011 149.34 91.8276 149.649C91.6436 149.769 91.4581 149.836 91.271 149.85C91.0457 149.864 90.8769 149.785 90.7646 149.614C90.7053 149.523 90.6829 149.427 90.6977 149.327C90.7148 149.225 90.77 149.143 90.8632 149.082C90.9123 149.05 90.9943 149.023 91.1091 149.001C91.2239 148.978 91.3046 148.952 91.3512 148.921C91.5303 148.804 91.5639 148.599 91.4519 148.304C91.3851 148.138 91.2306 147.87 90.9883 147.5C90.8632 147.308 90.6621 147.03 90.3849 146.666C90.1101 146.299 89.911 146.022 89.7875 145.833C89.7153 145.722 89.6943 145.61 89.7246 145.496C89.7574 145.38 89.8289 145.286 89.9393 145.214C90.0031 145.172 90.0901 145.121 90.2004 145.059C90.3393 144.983 90.4284 144.932 90.4676 144.906C90.7455 144.742 91.093 144.524 91.51 144.252C91.6008 144.192 91.7245 144.087 91.8811 143.936C92.0377 143.785 92.1626 143.679 92.2559 143.618C92.5282 143.44 92.7413 143.469 92.8953 143.704C93.0348 143.917 93.2397 144.238 93.5098 144.667C93.7824 145.095 93.9885 145.415 94.128 145.628C94.3237 145.927 94.491 146.175 94.6299 146.371C94.6725 146.431 94.7548 146.538 94.877 146.693C94.9848 146.825 95.0659 146.933 95.1205 147.017ZM98.2099 142.066C98.6061 142.672 98.7961 143.331 98.78 144.045C98.7588 144.874 98.4305 145.496 97.7951 145.911C97.275 146.25 96.7332 146.385 96.1696 146.316C95.5727 146.244 95.1059 145.95 94.769 145.436C94.3728 144.83 94.1963 144.156 94.2396 143.414C94.2852 142.58 94.6257 141.955 95.2611 141.54C96.4779 140.746 97.4608 140.921 98.2099 142.066ZM97.4445 142.566C97.2007 142.193 96.9533 141.989 96.7025 141.953C96.454 141.916 96.1348 142.025 95.7447 142.279C95.3669 142.526 95.165 142.929 95.1388 143.488C95.117 144.017 95.2489 144.499 95.5344 144.936C95.7269 145.23 95.9949 145.396 96.3385 145.434C96.6658 145.469 96.9901 145.381 97.3115 145.172C97.6844 144.928 97.8728 144.534 97.8769 143.989C97.8806 143.486 97.7364 143.012 97.4445 142.566ZM102.545 141.115C102.839 141.563 102.698 142.108 102.123 142.749C101.764 143.152 101.271 143.558 100.646 143.966C100.55 144.028 100.433 144.05 100.295 144.032C100.159 144.012 100.061 143.956 100 143.862L99.543 143.164C99.5382 143.156 99.1206 142.491 98.2901 141.169C98.2099 141.046 98.1297 140.924 98.0495 140.801C97.9541 140.65 97.8915 140.519 97.8616 140.409C97.8363 140.328 97.8418 140.256 97.8781 140.194C97.893 140.163 97.9477 140.099 98.042 140.003C98.1652 139.87 98.3984 139.691 98.7419 139.467C99.1369 139.209 99.5576 139.071 100.004 139.053C100.525 139.031 100.907 139.205 101.149 139.575C101.374 139.918 101.354 140.29 101.091 140.689C101.33 140.648 101.594 140.663 101.882 140.734C102.21 140.814 102.431 140.94 102.545 141.115ZM100.461 140.024C100.363 139.875 100.175 139.811 99.8947 139.833C99.6474 139.851 99.4428 139.912 99.2808 140.018L99.13 140.117C98.9435 140.238 98.8196 140.324 98.7582 140.375C98.8103 140.46 98.8973 140.596 99.0192 140.782C99.0496 140.829 99.1159 140.916 99.218 141.046C99.3032 141.155 99.3666 141.246 99.4082 141.32C99.5577 141.244 99.6888 141.169 99.8017 141.095C100.076 140.916 100.265 140.768 100.368 140.652C100.56 140.432 100.591 140.223 100.461 140.024ZM101.795 141.557C101.708 141.425 101.53 141.363 101.259 141.372C101.048 141.376 100.85 141.415 100.663 141.488C100.554 141.531 100.406 141.612 100.218 141.731C99.9817 141.878 99.8362 141.966 99.7814 141.995C99.8807 142.168 99.968 142.312 100.043 142.428L100.513 143.145C101.566 142.39 101.994 141.861 101.795 141.557Z" fill="#9C8FCD"/>
<path fill-rule="evenodd" clip-rule="evenodd" d="M147.704 43.8276L144.436 21.1499L141.678 43.8276H147.704Z" fill="#FEA970"/>
<path fill-rule="evenodd" clip-rule="evenodd" d="M144.848 17.5105C145.235 17.6379 145.517 18.0317 145.517 18.4997C145.517 19.0704 145.097 19.5319 144.58 19.5319C144.062 19.5319 143.643 19.0704 143.643 18.4997C143.643 18.0486 143.905 17.6638 144.272 17.5248V15.7971H144.846V17.5105H144.848Z" fill="#6F61A5"/>
<path fill-rule="evenodd" clip-rule="evenodd" d="M143.863 19.1624C144.035 19.3885 144.294 19.5315 144.582 19.5315C144.871 19.5315 145.126 19.3885 145.298 19.165V21.4373H144.479L144.438 21.1513L144.403 21.4373H143.865V19.1624H143.863Z" fill="#FEAA71"/>
<path d="M171.749 9.82869C171.58 9.83129 171.41 9.83519 171.241 9.84039C171.235 9.84039 171.23 9.84039 171.224 9.84039C171.059 9.84559 170.894 9.85209 170.728 9.85989C170.718 9.85989 170.708 9.85989 170.697 9.86119C170.536 9.86899 170.375 9.87809 170.215 9.88979C170.201 9.88979 170.185 9.89109 170.171 9.89239C170.013 9.90279 169.856 9.91579 169.699 9.92879C169.681 9.93009 169.661 9.93139 169.643 9.93399C169.49 9.94699 169.335 9.96259 169.181 9.97819C169.159 9.98079 169.136 9.98209 169.114 9.98469C168.963 10.0003 168.814 10.0172 168.663 10.0354C168.637 10.038 168.611 10.0419 168.583 10.0445C168.437 10.0627 168.29 10.0822 168.142 10.103C168.112 10.1069 168.083 10.1108 168.053 10.116C167.909 10.1368 167.765 10.1576 167.62 10.181C167.588 10.1862 167.555 10.1914 167.523 10.1966C167.381 10.2187 167.239 10.2434 167.098 10.2681C167.061 10.2746 167.026 10.2811 166.99 10.2876C166.851 10.3123 166.712 10.3383 166.574 10.3643C166.535 10.3721 166.497 10.3799 166.458 10.3864C166.322 10.4137 166.186 10.441 166.05 10.4696C166.008 10.4787 165.965 10.4878 165.924 10.4969C165.79 10.5255 165.657 10.5554 165.523 10.5853C165.478 10.5957 165.434 10.6061 165.388 10.6165C165.257 10.6464 165.127 10.6776 164.996 10.7101C164.948 10.7218 164.899 10.7335 164.853 10.7465C164.724 10.779 164.595 10.8115 164.468 10.8453C164.417 10.8583 164.366 10.8726 164.317 10.8856C164.191 10.9194 164.065 10.9545 163.939 10.9895C163.885 11.0051 163.832 11.0194 163.779 11.035C163.655 11.0701 163.532 11.1065 163.408 11.1429C163.352 11.1598 163.297 11.1767 163.241 11.1936C163.12 11.23 162.999 11.2677 162.877 11.3067C162.818 11.3249 162.76 11.3444 162.7 11.3639C162.582 11.4029 162.462 11.4406 162.344 11.4809C162.283 11.5017 162.22 11.5225 162.159 11.5433C162.043 11.5823 161.926 11.6226 161.811 11.6642C161.747 11.6863 161.682 11.7097 161.618 11.7331C161.504 11.7747 161.39 11.815 161.276 11.8579C161.21 11.8826 161.143 11.9086 161.076 11.9333C160.964 11.9749 160.853 12.0178 160.741 12.0607C160.671 12.088 160.602 12.1153 160.532 12.1426C160.422 12.1855 160.313 12.2284 160.204 12.2726C160.131 12.3025 160.058 12.3324 159.987 12.3623C159.88 12.4065 159.774 12.4507 159.667 12.4949C159.592 12.5274 159.516 12.5599 159.441 12.5924C159.337 12.6366 159.233 12.6821 159.129 12.7276C159.051 12.7627 158.972 12.7978 158.894 12.8329C158.792 12.8784 158.691 12.9239 158.589 12.9707C158.509 13.0084 158.427 13.0461 158.346 13.0838C158.248 13.1306 158.149 13.1761 158.049 13.2229C157.964 13.2632 157.878 13.3048 157.793 13.3464C157.698 13.3919 157.603 13.4374 157.508 13.4855C157.418 13.5297 157.327 13.5765 157.238 13.6206C157.147 13.6661 157.057 13.7116 156.966 13.7571C156.871 13.8052 156.776 13.8559 156.681 13.9053C156.595 13.9495 156.508 13.9937 156.422 14.0405C156.321 14.0938 156.22 14.1497 156.118 14.2043C156.038 14.2472 155.958 14.2901 155.878 14.333C155.763 14.3954 155.648 14.4604 155.533 14.5241C155.467 14.5618 155.399 14.5982 155.333 14.6346C155.151 14.7373 154.969 14.8413 154.787 14.9466V25.7375C160.548 22.3901 166.203 20.6885 171.75 20.6183V9.82739L171.749 9.82869Z" fill="#796CAA"/>
<path d="M188.283 14.6296C188.227 14.5958 188.172 14.5633 188.116 14.5308C187.999 14.4606 187.882 14.3904 187.765 14.3215C187.7 14.2838 187.635 14.2461 187.57 14.2097C187.463 14.1473 187.355 14.0849 187.247 14.0238C187.179 13.9861 187.112 13.9497 187.045 13.912C186.94 13.8535 186.833 13.7937 186.728 13.7365C186.66 13.7001 186.593 13.6637 186.524 13.6273C186.419 13.5701 186.312 13.5142 186.207 13.4583C186.14 13.4232 186.074 13.3894 186.008 13.3556C185.9 13.2997 185.793 13.2438 185.685 13.1905C185.62 13.158 185.555 13.1255 185.489 13.0943C185.38 13.0397 185.271 12.9864 185.163 12.9331C185.099 12.9019 185.036 12.872 184.972 12.8421C184.861 12.7888 184.75 12.7368 184.639 12.6848C184.578 12.6563 184.516 12.629 184.454 12.6004C184.341 12.5484 184.228 12.4977 184.115 12.447C184.055 12.4197 183.994 12.395 183.934 12.3677C183.82 12.3183 183.704 12.2676 183.59 12.2195C183.531 12.1948 183.473 12.1714 183.414 12.1467C183.297 12.0986 183.18 12.0492 183.063 12.0024C183.008 11.9803 182.95 11.9582 182.894 11.9361C182.775 11.8893 182.655 11.8412 182.536 11.7957C182.481 11.7749 182.427 11.7554 182.372 11.7346C182.25 11.6891 182.129 11.6436 182.007 11.5994C181.955 11.5799 181.903 11.5617 181.851 11.5435C181.726 11.4993 181.601 11.4551 181.476 11.4122C181.427 11.3953 181.377 11.3784 181.328 11.3615C181.201 11.3186 181.073 11.277 180.947 11.2354C180.899 11.2198 180.852 11.2055 180.804 11.1899C180.674 11.1483 180.545 11.108 180.415 11.069C180.37 11.0547 180.324 11.0417 180.28 11.0287C180.148 10.9897 180.015 10.9507 179.883 10.913C179.84 10.9013 179.797 10.8896 179.755 10.8779C179.62 10.8402 179.485 10.8038 179.35 10.7687C179.309 10.7583 179.268 10.7479 179.227 10.7375C179.09 10.7024 178.952 10.6673 178.814 10.6335C178.776 10.6244 178.737 10.6153 178.7 10.6062C178.559 10.5724 178.419 10.5399 178.278 10.5087C178.243 10.5009 178.207 10.4931 178.172 10.4853C178.029 10.4541 177.884 10.4229 177.741 10.3943C177.709 10.3878 177.676 10.3813 177.644 10.3748C177.497 10.3462 177.352 10.3176 177.205 10.2903C177.175 10.2851 177.144 10.2786 177.114 10.2734C176.964 10.2461 176.815 10.2214 176.665 10.1967C176.638 10.1928 176.609 10.1876 176.582 10.1837C176.43 10.159 176.278 10.1356 176.124 10.1135C176.1 10.1096 176.075 10.1057 176.049 10.1031C175.894 10.081 175.738 10.0602 175.582 10.0407C175.56 10.0381 175.537 10.0355 175.515 10.0329C175.356 10.0135 175.197 9.99525 175.039 9.97965C175.019 9.97705 175 9.97575 174.98 9.97315C174.819 9.95625 174.657 9.94195 174.496 9.92765C174.479 9.92635 174.462 9.92505 174.446 9.92375C174.281 9.90945 174.116 9.89775 173.951 9.88735C173.938 9.88735 173.924 9.88606 173.911 9.88476C173.743 9.87436 173.574 9.86526 173.406 9.85746C173.396 9.85746 173.384 9.85746 173.374 9.85616C173.202 9.84836 173.03 9.84186 172.859 9.83796C172.851 9.83796 172.845 9.83796 172.837 9.83796C172.661 9.83406 172.486 9.83016 172.309 9.82886C172.305 9.82886 172.301 9.82886 172.297 9.82886C172.118 9.82886 171.937 9.82886 171.758 9.83016V20.6211C177.557 20.5483 183.239 22.2577 188.804 25.7403V14.9494C188.632 14.8415 188.46 14.7362 188.288 14.6309L188.283 14.6296Z" fill="#5A4C92"/>
<path d="M172.929 0.501719C172.177 0.181234 171.326 0.182126 170.574 0.504188L141.114 13.1186C140.31 13.4627 140.304 14.5996 141.104 14.9527L154.788 20.9942V14.9481C154.97 14.8428 155.152 14.7388 155.334 14.6361C155.4 14.5984 155.468 14.5621 155.534 14.5257C155.648 14.462 155.764 14.397 155.879 14.3346C155.959 14.2904 156.038 14.2488 156.119 14.2059C156.22 14.1513 156.322 14.0967 156.423 14.0421C156.509 13.9966 156.596 13.9524 156.682 13.9069C156.777 13.8575 156.872 13.8081 156.967 13.7587C157.058 13.7119 157.147 13.6677 157.238 13.6222C157.328 13.5767 157.419 13.5312 157.509 13.487C157.604 13.4402 157.698 13.3947 157.793 13.3479C157.879 13.3063 157.964 13.2647 158.049 13.2244C158.148 13.1776 158.247 13.1308 158.347 13.0853C158.428 13.0476 158.51 13.0086 158.59 12.9722C158.692 12.9254 158.793 12.8799 158.894 12.8344C158.972 12.7993 159.052 12.7629 159.13 12.7291C159.234 12.6836 159.338 12.6381 159.442 12.5939C159.517 12.5614 159.593 12.5289 159.668 12.4964C159.775 12.4509 159.881 12.4067 159.988 12.3638C160.061 12.3339 160.133 12.304 160.205 12.2741C160.314 12.2299 160.423 12.187 160.532 12.1441C160.603 12.1168 160.671 12.0882 160.742 12.0622C160.853 12.0193 160.965 11.9764 161.077 11.9349C161.143 11.9102 161.211 11.8842 161.277 11.8595C161.392 11.8166 161.506 11.7763 161.619 11.7347C161.683 11.7113 161.748 11.6879 161.812 11.6658C161.927 11.6242 162.044 11.5852 162.16 11.5449C162.221 11.5241 162.283 11.502 162.345 11.4825C162.463 11.4422 162.582 11.4045 162.701 11.3655C162.759 11.346 162.818 11.3278 162.878 11.3083C162.998 11.2693 163.121 11.2329 163.241 11.1952C163.297 11.1783 163.353 11.1614 163.409 11.1445C163.533 11.1081 163.656 11.0717 163.78 11.0366C163.833 11.021 163.886 11.0054 163.94 10.9911C164.066 10.956 164.192 10.9209 164.318 10.8871C164.369 10.8741 164.419 10.8598 164.469 10.8468C164.597 10.813 164.726 10.7805 164.853 10.748C164.902 10.7363 164.95 10.7246 164.996 10.7116C165.128 10.6791 165.258 10.6479 165.389 10.618C165.435 10.6076 165.479 10.5972 165.524 10.5868C165.658 10.5569 165.791 10.527 165.925 10.4984C165.966 10.4893 166.009 10.4802 166.051 10.4711C166.187 10.4425 166.324 10.4152 166.459 10.3879C166.498 10.3801 166.536 10.3723 166.575 10.3658C166.714 10.3385 166.853 10.3138 166.991 10.2891C167.027 10.2826 167.062 10.2761 167.098 10.2696C167.24 10.2449 167.382 10.2215 167.524 10.1981C167.556 10.1929 167.589 10.1877 167.621 10.1825C167.765 10.1604 167.91 10.1383 168.054 10.1175C168.084 10.1136 168.112 10.1097 168.142 10.1045C168.289 10.0837 168.437 10.0642 168.584 10.046C168.61 10.0434 168.636 10.0395 168.664 10.0369C168.814 10.0187 168.964 10.0018 169.115 9.98622C169.137 9.98362 169.16 9.98102 169.182 9.97972C169.336 9.96412 169.49 9.94983 169.644 9.93553C169.662 9.93423 169.681 9.93293 169.7 9.93033C169.857 9.91733 170.014 9.90433 170.172 9.89393C170.186 9.89393 170.201 9.89263 170.216 9.89133C170.377 9.88093 170.538 9.87053 170.698 9.86273C170.708 9.86273 170.719 9.86273 170.729 9.86143C170.894 9.85363 171.059 9.84713 171.224 9.84193C171.23 9.84193 171.235 9.84193 171.241 9.84193C171.412 9.83673 171.581 9.83283 171.75 9.83023C171.929 9.82763 172.11 9.82763 172.289 9.82893C172.293 9.82893 172.297 9.82893 172.301 9.82893C172.476 9.82893 172.653 9.83283 172.829 9.83803C172.836 9.83803 172.843 9.83803 172.851 9.83803C173.022 9.84193 173.194 9.84843 173.366 9.85623C173.376 9.85623 173.388 9.85623 173.398 9.85753C173.567 9.86533 173.735 9.87443 173.902 9.88483C173.915 9.88483 173.93 9.88613 173.943 9.88743C174.108 9.89783 174.273 9.91083 174.438 9.92383C174.455 9.92513 174.472 9.92643 174.487 9.92773C174.65 9.94203 174.811 9.95632 174.972 9.97322C174.992 9.97582 175.011 9.97712 175.031 9.97972C175.189 9.99662 175.348 10.0148 175.507 10.033C175.529 10.0356 175.552 10.0382 175.574 10.0408C175.73 10.0603 175.885 10.0811 176.041 10.1032C176.066 10.1071 176.09 10.1097 176.116 10.1136C176.268 10.1357 176.422 10.1591 176.574 10.1838C176.601 10.1877 176.63 10.1929 176.657 10.1968C176.806 10.2215 176.956 10.2475 177.105 10.2735C177.135 10.2787 177.167 10.2839 177.196 10.2904C177.343 10.3177 177.49 10.345 177.636 10.3749C177.668 10.3814 177.701 10.3879 177.733 10.3944C177.878 10.423 178.021 10.4542 178.164 10.4854C178.199 10.4932 178.235 10.501 178.27 10.5088C178.411 10.54 178.551 10.5725 178.691 10.6063C178.729 10.6154 178.768 10.6245 178.806 10.6336C178.944 10.6674 179.081 10.7012 179.219 10.7376C179.259 10.748 179.301 10.7584 179.341 10.7688C179.477 10.8039 179.612 10.8416 179.747 10.878C179.79 10.8897 179.833 10.9014 179.874 10.9131C180.007 10.9508 180.14 10.9898 180.272 11.0288C180.318 11.0418 180.363 11.0561 180.407 11.0691C180.537 11.1081 180.666 11.1484 180.796 11.19C180.844 11.2056 180.891 11.2199 180.939 11.2355C181.066 11.2771 181.194 11.3187 181.32 11.3616C181.369 11.3785 181.419 11.3941 181.468 11.4123C181.593 11.4552 181.718 11.4994 181.842 11.5436C181.894 11.5618 181.946 11.58 181.998 11.5995C182.121 11.6437 182.242 11.6892 182.364 11.7347C182.418 11.7555 182.473 11.775 182.528 11.7958C182.647 11.8413 182.767 11.8881 182.886 11.9362C182.942 11.9583 182.999 11.9803 183.055 12.0024C183.172 12.0492 183.289 12.0986 183.406 12.1467C183.465 12.1714 183.523 12.1948 183.582 12.2195C183.696 12.2676 183.812 12.3183 183.926 12.3677C183.986 12.3937 184.047 12.4197 184.107 12.447C184.22 12.4977 184.333 12.5484 184.446 12.6004C184.507 12.629 184.57 12.6563 184.631 12.6849C184.741 12.7369 184.853 12.7889 184.964 12.8422C185.027 12.8721 185.091 12.902 185.155 12.9332C185.264 12.9865 185.373 13.0398 185.481 13.0944C185.546 13.1269 185.611 13.1581 185.677 13.1906C185.785 13.2452 185.892 13.3011 186 13.3557C186.066 13.3895 186.132 13.4233 186.199 13.4584C186.304 13.5143 186.411 13.5715 186.516 13.6274C186.583 13.6638 186.651 13.6989 186.72 13.7366C186.825 13.7938 186.932 13.8536 187.037 13.9121C187.105 13.9498 187.172 13.9862 187.239 14.0239C187.346 14.085 187.454 14.1474 187.562 14.2098C187.627 14.2475 187.692 14.2839 187.757 14.3216C187.874 14.3905 187.991 14.4607 188.108 14.5309C188.164 14.5647 188.219 14.5959 188.275 14.6296C188.448 14.7336 188.619 14.8402 188.791 14.9481V20.3429L202.272 14.8455C203.095 14.5099 203.104 13.3476 202.286 12.9994L172.929 0.501719Z" fill="#6F61A5"/>
</svg>
