<svg width="113" height="172" viewBox="0 0 113 172" fill="none" xmlns="http://www.w3.org/2000/svg">
<path opacity="0.75" d="M34.2669 112.735C32.6905 111.117 29.7251 106.985 27.6089 104.256C25.4928 101.526 22.2347 100.634 21.7378 101.238C21.3244 101.827 18.7492 107.276 18.459 107.585C18.1687 107.895 18.4284 108.883 19.1308 109.449C19.8185 109.931 21.7879 111.825 22.0827 112.032C22.3921 112.322 36.5135 124.057 41.0871 127.044C45.6607 130.031 53.9281 135.902 57.8534 138.142C61.7788 140.381 72.8627 146.102 77.2207 148.352C81.6621 150.587 87.976 153.183 91.8924 154.39C95.8088 155.598 97.5141 155.987 98.6445 156.047C99.775 156.107 100.669 156.295 101.298 156.443C101.927 156.591 102.026 156.66 103.185 156.887C104.345 157.114 104.891 157.276 105.618 157.493C106.345 157.71 107.682 157.475 108.848 156.754C109.999 155.949 111.558 154.038 111.859 153.296C112.243 152.539 112.062 151.02 110.986 150.779C109.91 150.537 107.777 150.653 105.978 150.711C104.179 150.768 96.5952 149.774 94.6788 149.163C92.777 148.635 85.8386 146.408 79.2797 142.908C72.888 139.378 67.2721 136.832 60.8905 132.87C54.5925 128.893 51.2318 127.416 45.9468 122.831C40.5783 118.26 36.1674 114.727 34.2669 112.735Z" fill="#FBB116"/>
<path opacity="0.75" d="M94.854 136.901C95.5214 138.248 97.4827 144.02 98.4097 146.355C99.3367 148.691 102.34 154.022 103.706 155.419C105.056 156.732 106.555 157.417 107.794 157.113C109.033 156.809 109.304 155.9 110.012 155.517C110.72 155.134 111.173 154.28 110.579 153.35C109.985 152.421 108.807 150.129 108.031 149.146C107.27 148.245 104.571 142.689 103.428 141.081C102.269 139.389 99.5173 132.55 98.6094 130.814C97.7851 129.063 95.1859 122.111 93.6942 119.013C92.119 115.93 87.4207 103.402 86.19 99.8278C84.9592 96.2535 82.7146 88.3774 81.9401 85.929C81.2637 83.5495 80.1912 78.9135 80.0942 77.3799C79.9136 75.861 79.8899 74.7452 80.0526 74.1998C80.2152 73.6543 80.4174 72.8435 79.8777 71.7322C79.3379 70.6209 79.1675 68.6694 78.9666 68.0155C78.7656 67.3616 77.695 66.1713 76.8887 66.4852C75.9988 66.8137 74.7159 66.8667 74.0224 67.3331C73.329 67.7995 71.6621 68.6091 71.4158 69.1692C71.1696 69.7293 70.7856 70.486 71.1142 71.3759C71.4427 72.2658 72.1688 73.9474 72.3787 75.6335C72.6034 77.4032 73.519 81.6359 73.764 82.5405C74.0926 83.4305 74.0677 83.7794 74.254 84.3497C74.4403 84.9201 74.7261 84.0945 75.0106 84.7337C75.2116 85.3876 75.5312 85.2454 75.4961 86.0268C75.3775 86.823 75.4114 87.5063 75.8732 87.6836C76.3351 87.8609 76.7428 88.2201 76.6784 88.8344C76.5304 89.4634 76.2944 89.591 76.7167 90.0338C77.139 90.4765 77.5716 90.4867 77.3253 91.0468C77.0791 91.6069 77.5059 92.5657 78.075 93.8442C78.6441 95.1226 83.19 107.763 84.117 110.099C85.044 112.434 89.258 122.204 90.1896 125.056C90.8557 127.868 94.854 136.901 94.854 136.901Z" fill="#FBB116"/>
<path opacity="0.75" d="M13.7768 24.5004C12.6003 20.7442 11.7874 17.0964 11.7242 16.246C11.6611 15.3957 11.4996 14.4764 10.5465 13.9546C9.67696 13.4181 8.86612 13.2159 7.5877 13.785C6.30927 14.3541 3.53106 15.7035 2.31133 16.6068C1.09161 17.5102 0.578771 19.4955 1.16703 21.3736C1.83886 23.237 2.3729 25.297 3.70759 27.9916C5.04228 30.6863 6.95626 34.2268 7.31419 35.2839C7.67211 36.3409 7.55348 37.1371 8.04023 36.9655C8.44341 36.8085 8.90529 36.9858 9.09159 37.5562C9.2779 38.1265 12.1336 44.0861 13.1103 45.7237C14.156 47.263 15.6521 50.8769 16.7463 53.1831C17.924 55.4745 19.5975 58.6266 20.0785 59.4036C20.5596 60.1806 21.07 61.1247 21.2077 60.9282C21.3455 60.7317 20.467 59.1631 19.7308 57.914C19.0092 56.7485 17.8462 54.5406 17.5469 53.8178C17.3313 53.0803 17.233 53.0114 16.9485 52.3722C16.6639 51.733 16.3545 51.4428 16.6448 51.1333C16.935 50.8239 17.9016 52.894 18.255 53.435C18.6232 54.0595 19.6484 56.4639 20.2718 57.5605C20.8115 58.6718 21.6358 60.4223 22.0039 61.0468C22.372 61.6714 23.158 62.2225 23.4426 62.8618C23.7418 63.5845 24.1935 64.1944 24.4193 64.4993C24.6452 64.8043 27.615 69.4516 28.1943 70.2975C28.7589 71.0598 30.7768 73.7206 31.0173 74.1091C31.2579 74.4976 35.1209 80.7972 35.4596 81.2546C35.8131 81.7956 38.8033 85.5779 39.0291 85.8828C39.3532 86.2566 40.2464 87.9089 40.5852 88.3663C40.924 88.8237 42.6867 91.0124 43.1384 91.6223C43.5901 92.2321 43.8453 92.7042 44.184 93.1616C44.5228 93.619 45.0389 93.6145 44.7148 93.2407C44.3907 92.8669 44.2586 92.1147 44.4845 92.4197C44.7939 92.7099 45.2162 93.1526 45.3732 93.5558C45.5301 93.959 45.4906 94.2244 45.7164 94.5293C45.9423 94.8343 46.3748 94.8444 46.6447 95.4001C46.9146 95.9557 47.0026 96.4572 47.2431 96.8457C47.4837 97.2342 52.502 103.245 54.4025 105.237C56.7502 107.323 69.111 120.314 73.1525 124.687C77.1941 129.06 90.4154 141.556 93.6914 144.513C96.8838 147.484 101.928 151.681 102.66 152.414C103.475 153.132 103.745 153.688 104.708 153.777C105.672 153.866 107.044 152.85 107.683 152.566C108.322 152.281 109.699 151.781 109.218 151.004C108.737 150.227 106.542 148.028 105.923 147.447C105.304 146.867 93.1769 136.677 91.7428 135.379C90.3086 134.08 78.1386 122.175 73.5912 117.374C69.0437 112.573 58.089 99.2484 54.8436 94.994C51.5982 90.7397 39.5257 73.9934 38.1954 71.8148C36.7817 69.6509 33.7621 65.7015 31.5094 61.7036C29.1731 57.7203 26.8221 53.6535 24.3141 49.1835C21.9044 44.7824 19.7658 39.4722 18.7992 37.4021C17.7638 35.4302 14.968 28.3401 13.7768 24.5004Z" fill="#FBB116"/>
</svg>
