<svg width="24" height="33" viewBox="0 0 24 33" fill="none" xmlns="http://www.w3.org/2000/svg">
<path d="M12 0C5.38644 0 0 5.48174 0 12.2123C0 22.3349 10.6665 31.833 11.1335 32.2403C11.6294 32.675 12.3706 32.675 12.8665 32.2403C13.3328 31.833 24 22.3349 24 12.2123C24 5.48174 18.6136 0 12 0ZM12 18.997C8.31997 18.997 5.33326 15.9574 5.33326 12.2123C5.33326 8.46716 8.31997 5.42761 12 5.42761C15.68 5.42761 18.6667 8.46716 18.6667 12.2123C18.6667 15.9574 15.68 18.997 12 18.997Z" fill="#87A3E3"/>
</svg>
