<svg width="599" height="341" viewBox="0 0 599 341" fill="none" xmlns="http://www.w3.org/2000/svg">
<path opacity="0.75" d="M362.189 6.61945C365.93 7.97948 369.984 10.6995 368.425 11.0395C366.866 11.7195 368.425 14.4396 369.36 17.1596C370.295 19.8797 367.177 18.1797 367.177 20.5597C367.177 22.9397 368.113 24.6398 366.554 25.6598C364.995 26.6798 365.93 28.0398 365.93 30.0799C365.93 32.4599 362.812 30.4199 361.253 33.4799C360.318 34.8399 361.253 36.2 362.501 38.24C363.436 40.28 362.812 41.9801 360.006 41.6401C357.2 41.3001 353.771 42.6601 349.094 42.6601C344.417 42.6601 311.991 41.3001 303.573 41.9801C295.155 42.6601 279.877 45.7201 276.136 46.4002C272.082 47.4202 230.927 57.6203 205.36 67.1405C179.794 76.6607 139.573 97.0611 123.048 108.961C106.524 120.861 70.0448 150.782 55.079 168.462C40.1133 186.483 27.0182 200.083 20.1589 217.763C13.2996 235.783 4.88136 266.044 5.81672 276.244C5.81672 276.244 3.63422 274.544 2.07528 265.364C0.516351 256.184 -0.730796 227.283 2.07528 209.943C4.56958 193.963 17.9764 159.282 39.8015 135.822C61.6265 112.361 81.8927 89.9209 110.889 70.8806C139.885 51.8402 156.41 40.6201 190.394 28.0398C224.379 15.1196 229.368 14.4396 231.862 13.0796C234.356 11.7195 235.603 11.3795 238.098 11.3795C240.592 11.3795 242.151 9.67951 244.333 8.99949C246.516 8.65949 273.018 1.17936 301.079 0.159338C329.451 -0.86068 352.835 3.21939 362.189 6.61945Z" fill="#CBF1CC"/>
<path opacity="0.75" d="M517.771 140.242C517.771 140.242 493.14 162.342 478.174 172.882C463.52 183.422 415.505 221.843 362.19 233.403C308.874 244.964 266.783 250.404 198.813 246.324C130.844 242.243 99.9769 223.883 89.0644 210.283C78.1519 196.683 67.2393 165.402 65.9922 150.782C65.9922 150.782 62.2507 187.503 61.939 198.723C61.6272 210.283 62.2507 243.604 88.129 264.344C113.696 285.084 162.334 294.944 203.178 297.324C244.022 299.705 308.562 295.964 341.612 285.764C374.661 275.564 427.353 254.484 440.448 247.004C453.543 239.183 459.155 234.763 457.596 235.103C456.037 235.443 444.813 242.924 442.319 244.284C439.824 245.644 422.676 254.484 416.44 257.204C411.14 259.584 404.904 260.944 403.657 261.284C405.528 260.944 417.688 255.844 422.053 253.804C426.418 251.424 432.653 247.684 433.9 247.004C435.148 246.324 435.459 244.964 437.018 244.624C438.577 244.284 439.201 244.284 440.136 243.604C441.072 242.583 444.501 241.903 446.06 240.883C447.619 239.863 448.243 238.843 448.866 238.163C449.49 237.483 451.049 236.803 451.672 235.783C452.608 234.763 452.919 234.423 454.478 234.083C456.037 234.083 457.908 233.403 458.532 232.383C459.155 231.363 460.402 230.683 461.026 230.683C461.649 230.683 464.144 230.683 465.079 229.663C465.703 228.983 480.98 218.443 485.969 214.023C491.269 209.603 494.387 206.203 495.322 205.183C496.258 204.163 496.57 202.803 497.193 202.803C498.129 202.463 498.752 201.783 498.752 201.443C498.752 200.763 499.376 199.743 500.311 199.403C501.246 199.063 502.805 197.023 505.611 192.263C508.729 187.503 509.353 186.823 512.471 175.262C515.589 164.042 519.642 145.342 517.771 140.242ZM461.026 196.683C459.779 197.703 458.532 198.383 457.284 199.403C448.554 205.523 426.729 220.143 410.516 226.943C389.315 235.783 358.448 247.344 348.783 249.724C339.117 252.104 337.87 252.104 335.999 251.424C334.129 250.744 334.752 251.424 330.387 251.764C326.022 252.104 321.345 254.144 319.475 254.484C317.604 254.824 298.585 257.544 277.695 258.564C256.494 259.584 223.444 257.544 223.444 257.544C223.444 257.544 276.448 258.224 300.144 254.824C324.152 251.424 332.882 249.384 336.935 248.364C340.988 247.344 369.361 242.584 397.733 229.323C423.611 217.423 443.878 208.243 456.973 199.403C459.779 197.363 461.338 196.343 461.026 196.683Z" fill="#CBF1CC"/>
<path opacity="0.75" d="M597.898 130.042C596.651 123.922 595.715 114.401 591.662 106.241C587.609 98.0811 571.708 78.0208 560.483 70.2007C549.259 62.3805 523.381 49.4603 502.179 41.3001C480.666 33.48 467.259 31.78 460.088 30.42C452.917 29.0599 444.187 27.3599 439.822 26.3399C435.457 25.6599 409.89 23.2798 400.849 22.2598C392.118 21.2398 377.776 19.8798 370.293 20.2198C363.122 20.5598 336.309 19.8798 331.944 19.5398C327.579 19.1998 316.043 18.5197 309.807 18.8598C303.571 19.1998 292.035 20.8998 285.799 21.5798C279.564 22.2598 246.514 25.3199 237.472 28.3799C228.742 31.44 224.689 31.78 219.7 32.12C215.024 32.46 210.347 35.5201 209.1 35.5201C207.853 35.5201 184.78 41.6402 177.921 43.6802C171.062 45.7202 147.678 57.2804 133.959 65.4406C120.241 73.2607 106.522 83.4609 98.1037 91.281C89.6854 99.1012 83.4497 104.201 75.3433 120.862C67.5486 137.182 65.3661 149.082 64.1189 162.682C62.8718 176.283 60.6893 191.243 61.3129 203.823C61.9364 216.403 64.1189 225.923 65.3661 228.303C65.3661 228.303 72.2254 168.462 114.628 133.442C156.72 98.4212 228.742 77.0008 322.59 68.8406C416.438 60.6805 513.404 90.941 534.293 104.201C534.293 104.201 536.164 103.521 529.305 99.7812C522.134 96.0411 512.78 92.6411 512.78 92.6411C512.78 92.6411 519.639 92.9811 534.293 100.801C548.947 108.621 557.677 116.101 564.225 122.222C570.46 128.002 577.632 136.502 580.438 146.362C583.244 155.882 585.426 170.162 585.426 181.043C585.426 191.923 583.556 199.063 584.491 197.363C585.426 195.663 592.286 179.003 595.403 162.682C598.21 146.362 599.145 136.162 597.898 130.042ZM493.761 51.5003C483.472 47.0803 475.366 46.0602 471.936 45.3802C468.506 44.7002 466.947 44.0202 463.518 43.6802C460.088 43.3402 464.141 42.3202 460.4 41.6402C456.658 40.9601 451.67 40.9601 445.746 40.2801C439.822 39.6001 434.833 37.2201 427.662 37.2201C420.803 37.2201 408.331 34.5 399.913 34.16C391.495 33.82 382.765 33.48 375.906 33.14C369.046 32.8 363.746 31.44 357.198 31.44C350.963 31.44 342.544 30.76 348.78 29.7399C351.898 29.0599 363.746 28.7199 369.67 28.7199C375.282 28.7199 388.065 29.7399 392.742 30.08C397.419 30.42 453.54 36.2001 462.27 38.9201C471.001 41.6402 500.932 50.1403 513.092 54.9004C524.94 59.6605 533.046 65.4406 533.046 65.4406C533.046 65.4406 504.05 55.9204 493.761 51.5003Z" fill="#CBF1CC"/>
<path opacity="0.75" d="M596.965 126.642C596.341 124.602 580.128 161.662 571.71 172.542C563.292 183.423 528.683 211.983 509.976 222.523C491.269 233.063 433.276 256.524 427.976 258.564C422.988 260.604 419.558 259.584 416.128 260.944C412.699 262.304 416.44 258.904 412.075 260.264C407.71 261.624 374.037 271.144 367.178 272.844C360.318 274.544 335.064 280.324 325.71 282.024C316.356 283.724 247.14 292.905 221.262 293.245C195.071 293.585 149.239 291.544 131.779 289.504C114.319 287.464 91.2465 282.704 74.0982 278.964C56.95 275.224 42.9196 265.024 34.1895 258.564C25.4595 252.444 21.0945 243.944 17.3531 235.783C13.9234 227.963 7.06411 205.183 7.06411 191.923C7.06411 191.923 1.14016 203.483 0.204798 223.543C-0.730562 243.604 1.14016 279.304 14.2352 293.925C27.3302 308.545 56.3264 327.585 97.1704 333.365C137.703 339.145 183.224 340.505 190.706 340.505C198.189 340.505 221.262 340.165 225.938 340.165C230.615 340.165 233.733 339.825 237.474 339.485C241.216 339.145 240.904 337.105 239.033 337.105C237.163 337.105 237.786 337.445 234.98 337.785C232.174 338.125 230.927 338.805 229.368 338.125C227.809 337.445 226.874 337.445 225.003 337.785C223.132 338.125 222.197 337.785 219.703 337.785C217.208 337.785 217.832 337.785 215.026 338.125C212.22 338.465 211.284 336.425 211.284 336.425C211.284 336.425 213.467 335.745 215.961 335.745C218.455 335.745 230.927 335.745 233.421 335.405C235.604 335.065 238.722 335.065 240.904 335.405C243.087 335.745 245.581 335.405 247.452 335.405C249.322 335.405 249.011 333.025 250.881 333.025C252.752 333.025 251.817 333.705 254.311 333.705C256.805 333.705 259.923 332.685 262.106 332.685C264.288 332.685 267.406 329.285 270.524 329.285C273.642 329.285 275.512 328.265 276.136 329.965C276.76 331.665 277.695 331.325 277.695 330.305C277.695 329.285 277.695 326.905 279.877 326.565C282.06 326.225 284.554 326.225 287.36 325.545C290.166 324.865 296.714 323.505 298.896 323.505C301.079 323.505 302.95 324.525 302.95 324.525C302.95 324.525 295.467 325.205 292.349 325.885C289.231 326.565 284.554 327.925 287.049 327.925C289.543 327.925 292.661 327.925 294.531 327.925C296.402 327.925 297.026 328.605 299.52 327.925C302.014 327.245 302.95 326.225 306.068 325.885C309.185 325.545 309.809 324.525 312.927 324.525C316.045 324.525 317.292 324.525 318.539 324.525C319.786 324.525 323.216 324.185 325.398 323.845C327.581 323.505 327.893 321.805 330.075 321.465C332.258 321.125 338.805 320.445 340.988 320.105C343.17 319.765 346.6 318.745 348.782 318.065C350.965 317.385 354.706 316.365 357.201 316.025C359.695 315.685 358.759 316.705 362.189 316.705C365.619 316.705 366.554 318.065 371.855 315.685C377.155 313.305 376.22 312.965 379.026 311.605C381.832 310.245 387.444 308.885 391.185 308.205C394.927 307.525 396.486 306.505 398.356 306.505C400.227 306.505 401.474 306.505 401.163 305.145C400.851 303.785 402.721 302.425 403.657 303.785C404.592 305.145 406.775 304.805 406.775 304.805C410.204 303.445 413.946 301.405 415.816 301.405C417.687 301.405 418.934 300.725 422.676 299.365C426.417 298.005 426.417 298.005 428.6 297.665C430.782 297.325 430.47 293.584 433.277 292.904C436.083 292.224 441.383 291.204 444.501 289.844C447.619 288.484 449.801 288.824 452.919 287.464C456.037 286.104 455.725 287.804 447.619 290.184C439.512 292.564 439.2 293.925 442.007 293.585C444.813 293.245 448.554 290.864 452.919 289.844C457.284 288.824 458.531 288.144 459.778 287.124C461.026 286.104 459.778 284.744 462.584 283.724C465.391 282.704 470.379 280.324 473.185 279.304C475.991 278.284 480.98 277.604 483.474 276.244C485.968 274.884 489.398 274.204 491.581 272.844C493.763 271.484 496.881 269.784 495.634 269.784C494.387 269.784 490.333 271.824 486.904 273.184C483.474 274.544 480.98 274.204 480.98 274.204C480.98 274.204 484.721 272.164 488.151 271.144C491.581 270.124 492.516 268.764 495.322 267.744C498.128 266.724 499.999 265.024 499.063 265.024C498.128 265.024 493.451 265.704 495.946 264.344C498.44 262.984 501.558 261.964 505.299 260.264C509.041 258.564 513.406 254.144 513.406 254.144C513.406 254.144 514.029 255.844 511.847 257.884C509.664 259.924 508.105 261.284 511.223 260.264C514.341 259.244 512.782 260.264 516.212 258.224C519.641 256.184 524.942 253.464 529.619 250.744C534.295 248.024 535.231 248.024 537.101 246.324C538.972 244.624 539.596 245.304 538.972 244.624C538.349 243.944 537.101 243.264 537.101 243.264C540.531 241.564 541.466 239.524 543.961 238.504C546.455 237.484 550.196 232.043 552.691 230.343C555.185 228.643 559.55 226.263 561.109 224.563C562.668 222.863 564.227 221.503 566.721 219.123C569.215 216.743 573.581 210.283 575.139 208.243C576.698 206.203 578.569 203.143 579.504 200.763C580.44 198.383 584.493 191.923 587.611 182.063C593.847 171.862 601.641 138.202 596.965 126.642ZM489.398 245.984C475.68 252.784 456.66 261.624 452.296 263.324C448.242 265.024 431.718 268.764 424.235 272.164C416.752 275.224 395.55 279.984 388.067 282.364C380.585 284.744 335.687 295.285 321.345 296.985C307.003 298.685 266.471 303.785 258.676 303.785C251.193 303.785 245.581 303.445 242.775 303.785C239.969 304.125 235.604 305.145 231.551 305.145C227.497 305.145 225.938 306.165 222.82 306.165C219.391 306.165 216.897 306.165 213.467 306.165C210.037 306.165 117.748 303.445 102.471 296.645C99.9765 295.625 157.345 301.745 162.022 302.085C166.699 302.425 204.425 304.465 216.585 302.425C228.744 300.725 263.353 301.065 271.459 300.045C279.877 299.025 335.999 289.844 341.923 289.504C347.847 289.164 374.972 280.324 384.014 277.944C392.744 275.564 427.976 267.744 438.889 265.024C449.801 262.304 465.702 253.464 475.991 249.384C485.968 245.304 521.2 225.923 528.06 221.503C528.683 221.503 503.429 238.844 489.398 245.984Z" fill="#CBF1CC"/>
</svg>
