<svg width="274" height="23" viewBox="0 0 274 23" fill="none" xmlns="http://www.w3.org/2000/svg">
<path d="M67.8248 21V22.25V21ZM134.694 3V1.75V3ZM199.347 21V19.75V21ZM273.325 10.9392C273.844 10.4836 273.895 9.69382 273.439 9.17512L266.015 0.722406C265.56 0.203705 264.77 0.152524 264.251 0.608091C263.733 1.06366 263.681 1.85346 264.137 2.37216L270.736 9.88568L263.222 16.4847C262.704 16.9403 262.653 17.7301 263.108 18.2488C263.564 18.7675 264.353 18.8186 264.872 18.3631L273.325 10.9392ZM3.43304 9.17968C4.12284 9.20742 4.70451 8.67071 4.73225 7.98091C4.75999 7.29111 4.22328 6.70944 3.53349 6.6817L3.43304 9.17968ZM10.5586 7.26745C9.87381 7.17977 9.24762 7.6638 9.15994 8.34857C9.07225 9.03333 9.55628 9.65952 10.241 9.74721L10.5586 7.26745ZM16.9727 10.9166C17.6471 11.0643 18.3135 10.6373 18.4612 9.96295C18.6089 9.28857 18.1819 8.62216 17.5075 8.47448L16.9727 10.9166ZM24.3121 10.2398C23.6501 10.0439 22.9546 10.4217 22.7587 11.0836C22.5628 11.7456 22.9405 12.4411 23.6025 12.637L24.3121 10.2398ZM30.1733 14.7413C30.8276 14.9616 31.5366 14.6099 31.7569 13.9556C31.9773 13.3014 31.6255 12.5924 30.9713 12.3721L30.1733 14.7413ZM37.5435 14.5829C36.8875 14.3681 36.1814 14.7257 35.9666 15.3818C35.7517 16.0379 36.1094 16.7439 36.7655 16.9588L37.5435 14.5829ZM43.4681 18.9932C44.134 19.1756 44.8215 18.7836 45.0039 18.1178C45.1862 17.4519 44.7943 16.7643 44.1284 16.582L43.4681 18.9932ZM50.8011 18.1551C50.1236 18.0226 49.4669 18.4644 49.3344 19.142C49.2019 19.8195 49.6437 20.4761 50.3213 20.6086L50.8011 18.1551ZM57.2862 21.6786C57.9723 21.7555 58.5908 21.2618 58.6678 20.5757C58.7448 19.8897 58.251 19.2711 57.5649 19.1942L57.2862 21.6786ZM64.3855 19.6906C63.6956 19.6664 63.1167 20.2062 63.0926 20.8961C63.0684 21.586 63.6081 22.1649 64.2981 22.1891L64.3855 19.6906ZM71.4201 22.1137C72.1084 22.0611 72.6238 21.4604 72.5712 20.7721C72.5185 20.0837 71.9179 19.5684 71.2295 19.621L71.4201 22.1137ZM77.9388 18.5838C77.2664 18.7403 76.8481 19.4122 77.0046 20.0846C77.161 20.7569 77.8329 21.1752 78.5053 21.0188L77.9388 18.5838ZM85.3411 18.947C85.989 18.7086 86.3208 17.99 86.0823 17.3422C85.8438 16.6943 85.1253 16.3625 84.4774 16.601L85.3411 18.947ZM90.8519 13.9577C90.2225 14.2414 89.9422 14.9815 90.2258 15.6109C90.5094 16.2403 91.2495 16.5206 91.879 16.237L90.8519 13.9577ZM98.2358 13.2917C98.8618 13.0007 99.1335 12.2573 98.8425 11.6313C98.5516 11.0052 97.8082 10.7336 97.1821 11.0245L98.2358 13.2917ZM103.611 8.1588C102.974 8.42534 102.674 9.15766 102.94 9.79449C103.207 10.4313 103.939 10.7315 104.576 10.465L103.611 8.1588ZM111.025 8.0258C111.68 7.80718 112.033 7.09911 111.815 6.44429C111.596 5.78946 110.888 5.43585 110.233 5.65447L111.025 8.0258ZM117.066 3.71427C116.394 3.87122 115.976 4.54344 116.133 5.21572C116.29 5.888 116.962 6.30576 117.635 6.14881L117.066 3.71427ZM124.391 4.91408C125.075 4.82286 125.556 4.19417 125.465 3.50986C125.373 2.82556 124.745 2.34478 124.06 2.43601L124.391 4.91408ZM131.138 1.82328C130.448 1.85204 129.913 2.43452 129.941 3.12427C129.97 3.81403 130.553 4.34987 131.242 4.32111L131.138 1.82328ZM137.998 4.36133C138.687 4.40784 139.283 3.88718 139.329 3.19839C139.376 2.5096 138.855 1.91353 138.166 1.86701L137.998 4.36133ZM145.03 2.78881C144.353 2.65323 143.695 3.09207 143.559 3.76898C143.423 4.44589 143.862 5.10454 144.539 5.24012L145.03 2.78881ZM150.951 6.91249C151.609 7.12168 152.312 6.75793 152.521 6.10003C152.73 5.44213 152.367 4.73922 151.709 4.53003L150.951 6.91249ZM158.158 6.88024C157.518 6.62101 156.789 6.92955 156.53 7.56938C156.271 8.20922 156.579 8.93806 157.219 9.19729L158.158 6.88024ZM163.391 11.8595C164.021 12.1427 164.761 11.8618 165.044 11.2322C165.327 10.6026 165.046 9.86266 164.417 9.57949L163.391 11.8595ZM170.582 12.3658C169.951 12.0846 169.212 12.3678 168.931 12.9983C168.65 13.6288 168.933 14.3678 169.563 14.649L170.582 12.3658ZM175.845 17.3131C176.487 17.5669 177.213 17.2521 177.467 16.61C177.72 15.968 177.406 15.2418 176.764 14.9881L175.845 17.3131ZM183.05 17.2074C182.39 17.0056 181.691 17.3772 181.489 18.0374C181.288 18.6976 181.659 19.3964 182.319 19.5982L183.05 17.2074ZM189.015 21.267C189.693 21.3961 190.347 20.9509 190.477 20.2727C190.606 19.5945 190.16 18.9401 189.482 18.8111L189.015 21.267ZM196.037 19.6449C195.348 19.6011 194.754 20.124 194.71 20.813C194.666 21.502 195.189 22.096 195.878 22.1399L196.037 19.6449ZM203.145 22.1208C203.834 22.0746 204.355 21.4788 204.309 20.79C204.262 20.1012 203.667 19.5802 202.978 19.6264L203.145 22.1208ZM210.215 18.7232C209.535 18.8432 209.082 19.4916 209.202 20.1714C209.322 20.8513 209.97 21.3051 210.65 21.1851L210.215 18.7232ZM217.996 19.611C218.667 19.4467 219.077 18.7699 218.913 18.0994C218.749 17.4289 218.072 17.0186 217.401 17.1829L217.996 19.611ZM224.562 15.3094C223.896 15.4903 223.502 16.177 223.683 16.8432C223.864 17.5095 224.551 17.9029 225.217 17.7221L224.562 15.3094ZM232.383 15.7928C233.051 15.6181 233.451 14.9351 233.276 14.2672C233.101 13.5993 232.418 13.1995 231.75 13.3742L232.383 15.7928ZM239.01 11.5965C238.337 11.7477 237.913 12.4163 238.064 13.0899C238.216 13.7635 238.884 14.187 239.558 14.0358L239.01 11.5965ZM246.783 12.6047C247.463 12.4893 247.922 11.844 247.806 11.1634C247.691 10.4827 247.046 10.0245 246.365 10.1399L246.783 12.6047ZM253.805 9.11612C253.118 9.18803 252.62 9.80293 252.692 10.4895C252.764 11.1761 253.379 11.6744 254.065 11.6025L253.805 9.11612ZM261.395 11.0851C262.085 11.0601 262.624 10.4805 262.599 9.79061C262.574 9.10071 261.995 8.56172 261.305 8.58674L261.395 11.0851ZM268.82 8.57087C268.13 8.54898 267.553 9.09059 267.531 9.7806C267.509 10.4706 268.051 11.0477 268.741 11.0696L268.82 8.57087ZM0 9.11154C1.17683 9.11154 2.32018 9.13493 3.43304 9.17968L3.53349 6.6817C2.38684 6.63559 1.21 6.61154 0 6.61154L0 9.11154ZM10.241 9.74721C12.6029 10.0496 14.8334 10.4481 16.9727 10.9166L17.5075 8.47448C15.3021 7.99151 12.999 7.57994 10.5586 7.26745L10.241 9.74721ZM23.6025 12.637C25.8313 13.2967 28.0007 14.0095 30.1733 14.7413L30.9713 12.3721C28.7892 11.6371 26.5854 10.9127 24.3121 10.2398L23.6025 12.637ZM36.7655 16.9588C38.9306 17.6678 41.1491 18.3582 43.4681 18.9932L44.1284 16.582C41.8622 15.9614 39.6855 15.2844 37.5435 14.5829L36.7655 16.9588ZM50.3213 20.6086C52.5238 21.0394 54.8346 21.4036 57.2862 21.6786L57.5649 19.1942C55.1839 18.9271 52.9402 18.5735 50.8011 18.1551L50.3213 20.6086ZM64.2981 22.1891C65.4433 22.2291 66.6181 22.25 67.8248 22.25V19.75C66.6469 19.75 65.5013 19.7296 64.3855 19.6906L64.2981 22.1891ZM67.8248 22.25C69.0549 22.25 70.2519 22.203 71.4201 22.1137L71.2295 19.621C70.1245 19.7055 68.9911 19.75 67.8248 19.75V22.25ZM78.5053 21.0188C80.8731 20.4679 83.136 19.7588 85.3411 18.947L84.4774 16.601C82.3499 17.3842 80.1873 18.0607 77.9388 18.5838L78.5053 21.0188ZM91.879 16.237C93.9834 15.2888 96.0993 14.2846 98.2358 13.2917L97.1821 11.0245C95.0206 12.0291 92.9389 13.0173 90.8519 13.9577L91.879 16.237ZM104.576 10.465C106.641 9.60065 108.778 8.77589 111.025 8.0258L110.233 5.65447C107.916 6.42809 105.72 7.27601 103.611 8.1588L104.576 10.465ZM117.635 6.14881C119.771 5.65011 122.015 5.23077 124.391 4.91408L124.06 2.43601C121.602 2.76371 119.279 3.19785 117.066 3.71427L117.635 6.14881ZM131.242 4.32111C132.364 4.27432 133.514 4.25 134.694 4.25V1.75C133.48 1.75 132.295 1.77503 131.138 1.82328L131.242 4.32111ZM134.694 4.25C135.816 4.25 136.917 4.28831 137.998 4.36133L138.166 1.86701C137.03 1.79026 135.873 1.75 134.694 1.75V4.25ZM144.539 5.24012C146.734 5.67983 148.864 6.24895 150.951 6.91249L151.709 4.53003C149.547 3.8427 147.328 3.249 145.03 2.78881L144.539 5.24012ZM157.219 9.19729C159.291 10.037 161.339 10.9366 163.391 11.8595L164.417 9.57949C162.353 8.65158 160.273 7.73723 158.158 6.88024L157.219 9.19729ZM169.563 14.649C171.625 15.5682 173.712 16.4705 175.845 17.3131L176.764 14.9881C174.678 14.164 172.627 13.2778 170.582 12.3658L169.563 14.649ZM182.319 19.5982C184.481 20.259 186.707 20.8277 189.015 21.267L189.482 18.8111C187.274 18.3907 185.137 17.8452 183.05 17.2074L182.319 19.5982ZM195.878 22.1399C197.013 22.2122 198.169 22.25 199.347 22.25V19.75C198.223 19.75 197.12 19.7139 196.037 19.6449L195.878 22.1399ZM199.347 22.25C200.623 22.25 201.888 22.205 203.145 22.1208L202.978 19.6264C201.774 19.7071 200.564 19.75 199.347 19.75V22.25ZM210.65 21.1851C213.097 20.7532 215.538 20.2134 217.996 19.611L217.401 17.1829C214.978 17.7767 212.593 18.3035 210.215 18.7232L210.65 21.1851ZM225.217 17.7221C227.562 17.0854 229.939 16.4323 232.383 15.7928L231.75 13.3742C229.291 14.0175 226.897 14.6754 224.562 15.3094L225.217 17.7221ZM239.558 14.0358C241.894 13.5114 244.297 13.0261 246.783 12.6047L246.365 10.1399C243.829 10.5698 241.382 11.0641 239.01 11.5965L239.558 14.0358ZM254.065 11.6025C256.427 11.3552 258.866 11.1768 261.395 11.0851L261.305 8.58674C258.716 8.68064 256.22 8.86316 253.805 9.11612L254.065 11.6025ZM268.741 11.0696C269.947 11.1079 271.172 11.1666 272.419 11.2474L272.581 8.75262C271.307 8.67005 270.053 8.60999 268.82 8.57087L268.741 11.0696Z" fill="#FFCA42"/>
</svg>
