<svg width="719" height="67" viewBox="0 0 719 67" fill="none" xmlns="http://www.w3.org/2000/svg">
<path d="M718.384 10.8839C718.872 10.3957 718.872 9.60427 718.384 9.11612L710.429 1.16117C709.941 0.67301 709.149 0.67301 708.661 1.16117C708.173 1.64932 708.173 2.44078 708.661 2.92893L715.732 10L708.661 17.0711C708.173 17.5592 708.173 18.3507 708.661 18.8388C709.149 19.327 709.941 19.327 710.429 18.8388L718.384 10.8839ZM3.36169 10.8042C4.05167 10.8267 4.62926 10.2855 4.65175 9.59556C4.67424 8.90557 4.13313 8.32799 3.44314 8.30549L3.36169 10.8042ZM10.2219 8.76164C9.5352 8.69054 8.92089 9.18958 8.8498 9.87626C8.77871 10.5629 9.27774 11.1773 9.96443 11.2483L10.2219 8.76164ZM16.5058 12.1821C17.1848 12.3068 17.8363 11.8574 17.961 11.1784C18.0857 10.4994 17.6363 9.84789 16.9573 9.72319L16.5058 12.1821ZM23.6288 11.2406C22.9628 11.0588 22.2755 11.4514 22.0938 12.1174C21.9121 12.7834 22.3047 13.4707 22.9707 13.6524L23.6288 11.2406ZM29.2558 15.6634C29.9036 15.902 30.6222 15.5702 30.8608 14.9224C31.0994 14.2746 30.7677 13.556 30.1199 13.3174L29.2558 15.6634ZM36.4225 15.9464C35.7968 15.6545 35.0531 15.9251 34.7612 16.5508C34.4694 17.1764 34.74 17.9202 35.3657 18.212L36.4225 15.9464ZM41.2552 21.2384C41.8574 21.5759 42.6192 21.3614 42.9568 20.7592C43.2943 20.157 43.0798 19.3952 42.4776 19.0576L41.2552 21.2384ZM48.2997 22.5677C47.7191 22.1943 46.9456 22.3622 46.5722 22.9429C46.1987 23.5235 46.3667 24.2969 46.9473 24.6704L48.2997 22.5677ZM52.4687 28.406C53.0325 28.8044 53.8125 28.6702 54.2109 28.1064C54.6092 27.5425 54.4751 26.7625 53.9112 26.3642L52.4687 28.406ZM59.3705 30.3373C58.8168 29.925 58.0337 30.0396 57.6213 30.5933C57.209 31.147 57.3236 31.9301 57.8773 32.3424L59.3705 30.3373ZM63.2435 36.3784C63.7945 36.7943 64.5784 36.6848 64.9943 36.1338C65.4102 35.5828 65.3007 34.799 64.7497 34.383L63.2435 36.3784ZM70.1196 38.4024C69.5641 37.9925 68.7815 38.1106 68.3716 38.6661C67.9617 39.2216 68.0798 40.0042 68.6353 40.4141L70.1196 38.4024ZM74.1189 44.3586C74.6851 44.7536 75.4643 44.6147 75.8592 44.0485C76.2542 43.4822 76.1153 42.7031 75.5491 42.3081L74.1189 44.3586ZM81.0917 46.0193C80.5101 45.6473 79.7371 45.8173 79.3652 46.3989C78.9932 46.9805 79.1632 47.7535 79.7448 48.1254L81.0917 46.0193ZM85.5512 51.6401C86.1509 51.9821 86.9143 51.7731 87.2562 51.1734C87.5982 50.5737 87.3892 49.8103 86.7895 49.4683L85.5512 51.6401ZM92.6493 52.591C92.0307 52.2845 91.2808 52.5374 90.9743 53.156C90.6678 53.7746 90.9207 54.5245 91.5393 54.8311L92.6493 52.591ZM97.7313 57.6636C98.3679 57.9308 99.1005 57.6315 99.3678 56.995C99.6351 56.3585 99.3358 55.6258 98.6993 55.3585L97.7313 57.6636ZM104.898 57.7326C104.245 57.5062 103.533 57.8515 103.307 58.5037C103.081 59.1559 103.426 59.8681 104.078 60.0944L104.898 57.7326ZM110.555 62.1173C111.22 62.3026 111.909 61.9138 112.094 61.2488C112.28 60.5838 111.891 59.8944 111.226 59.7091L110.555 62.1173ZM117.675 61.3002C117 61.1546 116.335 61.5835 116.189 62.2583C116.043 62.9331 116.472 63.5983 117.147 63.744L117.675 61.3002ZM123.821 64.9906C124.503 65.0988 125.143 64.6339 125.251 63.952C125.36 63.2702 124.895 62.6298 124.213 62.5215L123.821 64.9906ZM130.812 63.3961C130.126 63.3225 129.509 63.8192 129.436 64.5056C129.362 65.1921 129.859 65.8082 130.545 65.8818L130.812 63.3961ZM137.296 66.4471C137.985 66.4891 138.578 65.9646 138.62 65.2755C138.662 64.5864 138.138 63.9937 137.449 63.9517L137.296 66.4471ZM144.107 64.2172C143.417 64.2038 142.846 64.7524 142.833 65.4426C142.82 66.1329 143.368 66.7033 144.058 66.7168L144.107 64.2172ZM151.028 66.7227C151.718 66.7121 152.269 66.1439 152.258 65.4537C152.248 64.7634 151.679 64.2124 150.989 64.223L151.028 66.7227ZM157.959 64.0119C157.27 64.0429 156.736 64.6271 156.767 65.3168C156.798 66.0064 157.382 66.5404 158.071 66.5094L157.959 64.0119ZM165.104 66.0949C165.793 66.0449 166.31 65.4461 166.26 64.7576C166.21 64.069 165.612 63.5514 164.923 63.6015L165.104 66.0949ZM171.876 63.0048C171.189 63.0726 170.687 63.6844 170.755 64.3715C170.822 65.0585 171.434 65.5605 172.121 65.4927L171.876 63.0048ZM179.119 64.717C179.804 64.6329 180.291 64.0093 180.207 63.3241C180.123 62.6389 179.5 62.1516 178.814 62.2356L179.119 64.717ZM185.736 61.3085C185.053 61.4074 184.579 62.0415 184.678 62.7248C184.777 63.408 185.411 63.8816 186.095 63.7826L185.736 61.3085ZM193.047 62.7045C193.728 62.5921 194.189 61.9488 194.077 61.2677C193.965 60.5865 193.321 60.1255 192.64 60.2378L193.047 62.7045ZM199.526 59.0384C198.847 59.1628 198.397 59.814 198.521 60.4931C198.645 61.1722 199.297 61.6219 199.976 61.4976L199.526 59.0384ZM206.881 60.1768C207.558 60.042 207.998 59.3838 207.863 58.7067C207.728 58.0297 207.07 57.5901 206.393 57.7249L206.881 60.1768ZM213.243 56.3118C212.568 56.4557 212.137 57.1197 212.281 57.7949C212.425 58.47 213.089 58.9007 213.764 58.7568L213.243 56.3118ZM220.627 57.2521C221.301 57.1005 221.724 56.4317 221.572 55.7582C221.421 55.0846 220.752 54.6615 220.078 54.8131L220.627 57.2521ZM226.9 53.243C226.228 53.4009 225.811 54.0737 225.969 54.7457C226.127 55.4178 226.799 55.8346 227.472 55.6767L226.9 53.243ZM234.3 54.0442C234.971 53.8813 235.383 53.2054 235.22 52.5346C235.057 51.8637 234.381 51.4519 233.71 51.6148L234.3 54.0442ZM240.512 49.942C239.842 50.1086 239.434 50.7868 239.601 51.4568C239.768 52.1267 240.446 52.5347 241.116 52.3681L240.512 49.942ZM247.921 50.6614C248.591 50.4924 248.996 49.8127 248.827 49.1434C248.658 48.474 247.979 48.0685 247.309 48.2375L247.921 50.6614ZM254.104 46.5139C253.435 46.6841 253.03 47.3645 253.201 48.0336C253.371 48.7026 254.051 49.1069 254.72 48.9367L254.104 46.5139ZM261.516 47.2063C262.185 47.0361 262.589 46.3557 262.419 45.6867C262.248 45.0176 261.568 44.6133 260.899 44.7836L261.516 47.2063ZM267.697 43.059C267.027 43.2281 266.622 43.9077 266.791 44.5771C266.96 45.2464 267.64 45.6519 268.309 45.4828L267.697 43.059ZM275.105 43.7777C275.775 43.6109 276.183 42.9327 276.016 42.2628C275.849 41.5929 275.171 41.185 274.501 41.3517L275.105 43.7777ZM281.314 39.6734C280.644 39.8367 280.232 40.5128 280.396 41.1836C280.559 41.8544 281.235 42.2658 281.906 42.1025L281.314 39.6734ZM288.715 40.4686C289.387 40.3099 289.803 39.6366 289.644 38.9647C289.485 38.2929 288.812 37.8769 288.14 38.0356L288.715 40.4686ZM294.98 36.4495C294.307 36.6025 293.885 37.2723 294.038 37.9455C294.191 38.6186 294.861 39.0403 295.534 38.8873L294.98 36.4495ZM302.366 37.3696C303.041 37.2234 303.469 36.5579 303.323 35.8832C303.177 35.2085 302.511 34.7801 301.837 34.9263L302.366 37.3696ZM308.711 33.4771C308.035 33.6155 307.599 34.2759 307.737 34.9523C307.875 35.6286 308.536 36.0647 309.212 35.9263L308.711 33.4771ZM316.074 34.568C316.752 34.4385 317.197 33.7838 317.067 33.1057C316.938 32.4276 316.283 31.9829 315.605 32.1124L316.074 34.568ZM322.519 30.843C321.839 30.9626 321.385 31.6108 321.504 32.2907C321.624 32.9706 322.272 33.4248 322.952 33.3052L322.519 30.843ZM329.847 32.1479C330.529 32.0391 330.993 31.3983 330.885 30.7166C330.776 30.0349 330.135 29.5704 329.453 29.6791L329.847 32.1479ZM336.408 28.6307C335.725 28.7276 335.249 29.3603 335.346 30.0438C335.443 30.7273 336.076 31.2028 336.759 31.1059L336.408 28.6307ZM343.688 30.1888C344.373 30.1046 344.86 29.481 344.776 28.7958C344.692 28.1105 344.069 27.6233 343.383 27.7074L343.688 30.1888ZM350.377 26.9185C349.69 26.989 349.191 27.6028 349.261 28.2896C349.332 28.9763 349.946 29.4759 350.633 29.4054L350.377 26.9185ZM357.586 28.7647C358.275 28.7087 358.787 28.1054 358.731 27.4173C358.675 26.7293 358.072 26.2169 357.384 26.273L357.586 28.7647ZM364.402 25.7786C363.713 25.8194 363.188 26.4112 363.229 27.1003C363.27 27.7895 363.861 28.315 364.55 28.2742L364.402 25.7786ZM371.523 27.941C372.212 27.916 372.751 27.3365 372.727 26.6466C372.702 25.9567 372.122 25.4177 371.432 25.4426L371.523 27.941ZM378.469 25.2717C377.779 25.2802 377.226 25.8467 377.235 26.537C377.243 27.2273 377.81 27.78 378.5 27.7715L378.469 25.2717ZM385.622 27.7759C386.312 27.7858 386.88 27.2343 386.89 26.544C386.9 25.8537 386.348 25.2861 385.658 25.2762L385.622 27.7759ZM392.91 25.4852C392.22 25.4552 391.637 25.9901 391.607 26.6798C391.577 27.3695 392.111 27.9529 392.801 27.9828L392.91 25.4852ZM399.971 28.4002C400.659 28.4506 401.258 27.9332 401.309 27.2447C401.359 26.5562 400.842 25.9572 400.153 25.9069L399.971 28.4002ZM407.381 26.5439C406.695 26.4731 406.081 26.9723 406.01 27.659C405.939 28.3457 406.438 28.9599 407.125 29.0307L407.381 26.5439ZM414.256 29.8743C414.941 29.9655 415.569 29.4847 415.661 28.8004C415.752 28.1161 415.271 27.4874 414.587 27.3962L414.256 29.8743ZM421.762 28.4602C421.081 28.349 420.439 28.8113 420.327 29.4926C420.216 30.174 420.679 30.8164 421.36 30.9276L421.762 28.4602ZM428.43 32.1841C429.108 32.3143 429.763 31.8703 429.894 31.1924C430.024 30.5144 429.58 29.8592 428.902 29.729L428.43 32.1841ZM436.001 31.1917C435.326 31.0435 434.66 31.47 434.511 32.1443C434.363 32.8186 434.79 33.4853 435.464 33.6334L436.001 31.1917ZM442.467 35.2634C443.138 35.428 443.815 35.0178 443.979 34.3474C444.144 33.6769 443.733 33 443.063 32.8355L442.467 35.2634ZM450.086 34.6418C449.42 34.4628 448.734 34.8581 448.555 35.5249C448.376 36.1916 448.771 36.8773 449.438 37.0563L450.086 34.6418ZM456.372 38.9891C457.035 39.1804 457.728 38.7977 457.92 38.1344C458.111 37.4711 457.728 36.7782 457.065 36.587L456.372 38.9891ZM464.003 38.6459C463.343 38.4449 462.645 38.8172 462.444 39.4777C462.242 40.1381 462.615 40.8365 463.275 41.0375L464.003 38.6459ZM470.156 43.1749C470.814 43.383 471.516 43.0181 471.724 42.3598C471.932 41.7016 471.567 40.9993 470.909 40.7912L470.156 43.1749ZM477.794 42.9944C477.137 42.7821 476.432 43.1426 476.22 43.7995C476.008 44.4565 476.368 45.1611 477.025 45.3733L477.794 42.9944ZM483.892 47.6011C484.548 47.8144 485.254 47.4551 485.467 46.7986C485.68 46.142 485.321 45.4368 484.664 45.2235L483.892 47.6011ZM491.53 47.4461C490.873 47.2347 490.169 47.5961 489.957 48.2533C489.746 48.9105 490.107 49.6146 490.764 49.826L491.53 47.4461ZM497.655 52.0164C498.314 52.2227 499.015 51.856 499.222 51.1972C499.428 50.5384 499.061 49.8371 498.402 49.6307L497.655 52.0164ZM505.291 51.7454C504.63 51.5471 503.933 51.9223 503.735 52.5836C503.536 53.2449 503.911 53.9417 504.573 54.14L505.291 51.7454ZM511.522 56.1649C512.186 56.3523 512.877 55.9657 513.065 55.3012C513.252 54.6368 512.865 53.9462 512.201 53.7588L511.522 56.1649ZM519.143 55.6435C518.475 55.4696 517.792 55.8703 517.618 56.5384C517.444 57.2065 517.845 57.889 518.513 58.0629L519.143 55.6435ZM525.551 59.8075C526.223 59.9654 526.896 59.5487 527.054 58.8766C527.212 58.2046 526.795 57.5317 526.123 57.3738L525.551 59.8075ZM533.144 58.9268C532.468 58.7869 531.807 59.2215 531.667 59.8975C531.527 60.5735 531.962 61.235 532.638 61.3749L533.144 58.9268ZM539.766 62.7439C540.445 62.8641 541.094 62.4105 541.214 61.7307C541.334 61.0509 540.881 60.4023 540.201 60.2821L539.766 62.7439ZM547.285 61.424C546.602 61.3247 545.968 61.798 545.868 62.4812C545.769 63.1644 546.242 63.7987 546.926 63.898L547.285 61.424ZM554.121 64.8279C554.807 64.9054 555.426 64.4121 555.504 63.7261C555.581 63.0402 555.088 62.4212 554.402 62.3437L554.121 64.8279ZM561.545 63.0344C560.857 62.979 560.254 63.4921 560.199 64.1802C560.144 64.8683 560.657 65.471 561.345 65.5263L561.545 63.0344ZM568.589 65.9905C569.278 66.0235 569.864 65.4912 569.897 64.8016C569.93 64.1121 569.398 63.5263 568.708 63.4933L568.589 65.9905ZM575.883 63.7214C575.193 63.7105 574.624 64.2612 574.613 64.9515C574.602 65.6417 575.153 66.2102 575.843 66.2211L575.883 63.7214ZM583.022 66.2076C583.712 66.1908 584.258 65.6178 584.241 64.9276C584.224 64.2375 583.651 63.6916 582.961 63.7083L583.022 66.2076ZM589.78 63.3702C589.092 63.4224 588.576 64.0227 588.628 64.711C588.68 65.3994 589.281 65.9152 589.969 65.8631L589.78 63.3702ZM596.891 65.1473C597.575 65.0569 598.057 64.4288 597.966 63.7444C597.876 63.06 597.248 62.5784 596.563 62.6688L596.891 65.1473ZM603.283 61.5789C602.606 61.7099 602.162 62.3656 602.293 63.0434C602.424 63.7212 603.08 64.1644 603.758 64.0334L603.283 61.5789ZM610.553 62.498C611.221 62.3245 611.622 61.6422 611.449 60.974C611.275 60.3058 610.593 59.9047 609.925 60.0782L610.553 62.498ZM616.474 58.1493C615.819 58.3658 615.463 59.0728 615.679 59.7283C615.896 60.3838 616.603 60.7397 617.258 60.5232L616.474 58.1493ZM623.805 58.1218C624.445 57.8632 624.754 57.1347 624.495 56.4946C624.237 55.8545 623.508 55.5452 622.868 55.8038L623.805 58.1218ZM629.097 53.0555C628.475 53.3536 628.211 54.1 628.51 54.7227C628.808 55.3454 629.554 55.6085 630.177 55.3104L629.097 53.0555ZM636.377 52.1153C636.981 51.7818 637.201 51.0214 636.867 50.417C636.534 49.8125 635.773 49.5929 635.169 49.9264L636.377 52.1153ZM641.057 46.4771C640.469 46.8404 640.288 47.6108 640.651 48.1979C641.015 48.7849 641.785 48.9662 642.372 48.6028L641.057 46.4771ZM648.207 44.8193C648.779 44.4326 648.929 43.6555 648.542 43.0836C648.155 42.5117 647.378 42.3616 646.806 42.7483L648.207 44.8193ZM652.427 38.8223C651.866 39.2249 651.738 40.0059 652.141 40.5667C652.543 41.1275 653.324 41.2557 653.885 40.8531L652.427 38.8223ZM659.471 36.7715C660.026 36.3609 660.143 35.5781 659.732 35.0232C659.321 34.4682 658.539 34.3511 657.984 34.7617L659.471 36.7715ZM663.526 30.6555C662.97 31.0653 662.852 31.8479 663.262 32.4035C663.672 32.959 664.454 33.0772 665.01 32.6673L663.526 30.6555ZM670.571 28.6321C671.134 28.2327 671.267 27.4525 670.867 26.8894C670.468 26.3262 669.688 26.1935 669.125 26.5928L670.571 28.6321ZM674.858 22.6728C674.28 23.0508 674.118 23.8255 674.496 24.4032C674.874 24.9809 675.649 25.1428 676.227 24.7648L674.858 22.6728ZM682.034 21.184C682.632 20.8395 682.838 20.0753 682.493 19.477C682.149 18.8787 681.385 18.673 680.786 19.0175L682.034 21.184ZM686.967 15.7531C686.344 16.0512 686.081 16.7976 686.379 17.4203C686.677 18.043 687.424 18.3061 688.047 18.0079L686.967 15.7531ZM694.282 15.3585C694.929 15.1187 695.26 14.3994 695.02 13.7521C694.78 13.1047 694.061 12.7744 693.413 13.0142L694.282 15.3585ZM700.11 10.9106C699.442 11.0833 699.04 11.7651 699.213 12.4335C699.385 13.1019 700.067 13.5038 700.736 13.3311L700.11 10.9106ZM707.362 11.9858C708.044 11.884 708.516 11.2479 708.414 10.5651C708.312 9.88231 707.676 9.41131 706.993 9.51311L707.362 11.9858ZM713.971 8.83303C713.282 8.86578 712.749 9.45134 712.782 10.1409C712.815 10.8305 713.4 11.363 714.09 11.3302L713.971 8.83303ZM0 10.75C1.14081 10.75 2.26109 10.7683 3.36169 10.8042L3.44314 8.30549C2.31497 8.26871 1.16753 8.25 0 8.25V10.75ZM9.96443 11.2483C12.2289 11.4828 14.4062 11.7965 16.5058 12.1821L16.9573 9.72319C14.7926 9.32564 12.5504 9.00272 10.2219 8.76164L9.96443 11.2483ZM22.9707 13.6524C25.1447 14.2456 27.2355 14.9192 29.2558 15.6634L30.1199 13.3174C28.0335 12.549 25.8741 11.8532 23.6288 11.2406L22.9707 13.6524ZM35.3657 18.212C37.3874 19.155 39.3453 20.1677 41.2552 21.2384L42.4776 19.0576C40.5185 17.9594 38.5053 16.9179 36.4225 15.9464L35.3657 18.212ZM46.9473 24.6704C48.8154 25.8719 50.65 27.1212 52.4687 28.406L53.9112 26.3642C52.0694 25.063 50.2043 23.7927 48.2997 22.5677L46.9473 24.6704ZM57.8773 32.3424C59.6615 33.671 61.4428 35.019 63.2435 36.3784L64.7497 34.383C62.9527 33.0265 61.163 31.6721 59.3705 30.3373L57.8773 32.3424ZM68.6353 40.4141C70.4277 41.7366 72.2509 43.0557 74.1189 44.3586L75.5491 42.3081C73.7041 41.0213 71.8996 39.7158 70.1196 38.4024L68.6353 40.4141ZM79.7448 48.1254C81.622 49.3259 83.5532 50.501 85.5512 51.6401L86.7895 49.4683C84.832 48.3523 82.937 47.1994 81.0917 46.0193L79.7448 48.1254ZM91.5393 54.8311C93.5317 55.8183 95.5922 56.7653 97.7313 57.6636L98.6993 55.3585C96.6102 54.4813 94.597 53.5561 92.6493 52.591L91.5393 54.8311ZM104.078 60.0944C106.162 60.8176 108.318 61.494 110.555 62.1173L111.226 59.7091C109.04 59.0998 106.933 58.4389 104.898 57.7326L104.078 60.0944ZM117.147 63.744C119.3 64.2087 121.523 64.6257 123.821 64.9906L124.213 62.5215C121.959 62.1637 119.782 61.7551 117.675 61.3002L117.147 63.744ZM130.545 65.8818C132.73 66.1162 134.979 66.3056 137.296 66.4471L137.449 63.9517C135.169 63.8126 132.958 63.6263 130.812 63.3961L130.545 65.8818ZM144.058 66.7168C145.19 66.7388 146.337 66.75 147.5 66.75V64.25C146.353 64.25 145.222 64.239 144.107 64.2172L144.058 66.7168ZM147.5 66.75C148.677 66.75 149.853 66.7408 151.028 66.7227L150.989 64.223C149.827 64.2409 148.664 64.25 147.5 64.25V66.75ZM158.071 66.5094C160.419 66.404 162.764 66.2651 165.104 66.0949L164.923 63.6015C162.604 63.77 160.283 63.9076 157.959 64.0119L158.071 66.5094ZM172.121 65.4927C174.456 65.2623 176.789 65.003 179.119 64.717L178.814 62.2356C176.503 62.5193 174.19 62.7764 171.876 63.0048L172.121 65.4927ZM186.095 63.7826C188.414 63.4467 190.731 63.0866 193.047 62.7045L192.64 60.2378C190.339 60.6174 188.038 60.975 185.736 61.3085L186.095 63.7826ZM199.976 61.4976C202.278 61.0761 204.58 60.6351 206.881 60.1768L206.393 57.7249C204.103 58.1809 201.814 58.6194 199.526 59.0384L199.976 61.4976ZM213.764 58.7568C216.051 58.2694 218.339 57.7671 220.627 57.2521L220.078 54.8131C217.798 55.3262 215.52 55.8265 213.243 56.3118L213.764 58.7568ZM227.472 55.6767C229.746 55.1422 232.022 54.5974 234.3 54.0442L233.71 51.6148C231.437 52.1667 229.168 52.7101 226.9 53.243L227.472 55.6767ZM241.116 52.3681C243.382 51.8046 245.65 51.235 247.921 50.6614L247.309 48.2375C245.04 48.8106 242.775 49.3794 240.512 49.942L241.116 52.3681ZM254.72 48.9367C256.969 48.3644 259.26 47.7805 261.516 47.2063L260.899 44.7836C258.617 45.3643 256.377 45.9353 254.104 46.5139L254.72 48.9367ZM268.309 45.4828C270.57 44.9117 272.835 44.3427 275.105 43.7777L274.501 41.3517C272.228 41.9176 269.96 42.4873 267.697 43.059L268.309 45.4828ZM281.906 42.1025C284.17 41.5513 286.44 41.006 288.715 40.4686L288.14 38.0356C285.859 38.5744 283.584 39.121 281.314 39.6734L281.906 42.1025ZM295.534 38.8873C297.805 38.3711 300.083 37.8646 302.366 37.3696L301.837 34.9263C299.544 35.4232 297.259 35.9316 294.98 36.4495L295.534 38.8873ZM309.212 35.9263C311.493 35.4597 313.78 35.0063 316.074 34.568L315.605 32.1124C313.299 32.5528 311.001 33.0083 308.711 33.4771L309.212 35.9263ZM322.952 33.3052C325.243 32.9021 327.541 32.5158 329.847 32.1479L329.453 29.6791C327.133 30.0492 324.822 30.4377 322.519 30.843L322.952 33.3052ZM336.759 31.1059C339.06 30.7797 341.37 30.4734 343.688 30.1888L343.383 27.7074C341.049 27.994 338.724 28.3024 336.408 28.6307L336.759 31.1059ZM350.633 29.4054C352.941 29.1684 355.259 28.9543 357.586 28.7647L357.384 26.273C355.038 26.464 352.703 26.6797 350.377 26.9185L350.633 29.4054ZM364.55 28.2742C366.865 28.137 369.189 28.0254 371.523 27.941L371.432 25.4426C369.079 25.5278 366.736 25.6403 364.402 25.7786L364.55 28.2742ZM378.5 27.7715C379.664 27.7572 380.831 27.75 382 27.75V25.25C380.82 25.25 379.644 25.2573 378.469 25.2717L378.5 27.7715ZM382 27.75C383.217 27.75 384.424 27.7587 385.622 27.7759L385.658 25.2762C384.448 25.2588 383.229 25.25 382 25.25V27.75ZM392.801 27.9828C395.228 28.0882 397.617 28.2281 399.971 28.4002L400.153 25.9069C397.775 25.733 395.361 25.5916 392.91 25.4852L392.801 27.9828ZM407.125 29.0307C409.537 29.2797 411.913 29.5618 414.256 29.8743L414.587 27.3962C412.22 27.0805 409.819 26.7955 407.381 26.5439L407.125 29.0307ZM421.36 30.9276C423.749 31.3173 426.104 31.7372 428.43 32.1841L428.902 29.729C426.554 29.2779 424.175 28.8538 421.762 28.4602L421.36 30.9276ZM435.464 33.6334C437.826 34.1523 440.159 34.6969 442.467 35.2634L443.063 32.8355C440.736 32.2644 438.383 31.7152 436.001 31.1917L435.464 33.6334ZM449.438 37.0563C451.77 37.6824 454.08 38.328 456.372 38.9891L457.065 36.587C454.759 35.9221 452.434 35.2723 450.086 34.6418L449.438 37.0563ZM463.275 41.0375C465.581 41.7395 467.873 42.4534 470.156 43.1749L470.909 40.7912C468.62 40.0676 466.32 39.351 464.003 38.6459L463.275 41.0375ZM477.025 45.3733C479.318 46.114 481.605 46.8579 483.892 47.6011L484.664 45.2235C482.379 44.4807 480.089 43.7359 477.794 42.9944L477.025 45.3733ZM490.764 49.826C493.056 50.5631 495.351 51.2947 497.655 52.0164L498.402 49.6307C496.106 48.9115 493.817 48.1819 491.53 47.4461L490.764 49.826ZM504.573 54.14C506.875 54.8306 509.19 55.507 511.522 56.1649L512.201 53.7588C509.884 53.1051 507.582 52.4325 505.291 51.7454L504.573 54.14ZM518.513 58.0629C520.837 58.6678 523.182 59.2507 525.551 59.8075L526.123 57.3738C523.774 56.8218 521.449 56.2438 519.143 55.6435L518.513 58.0629ZM532.638 61.3749C534.985 61.8608 537.36 62.3184 539.766 62.7439L540.201 60.2821C537.82 59.861 535.469 59.408 533.144 58.9268L532.638 61.3749ZM546.926 63.898C549.291 64.2419 551.689 64.553 554.121 64.8279L554.402 62.3437C551.997 62.0718 549.625 61.7642 547.285 61.424L546.926 63.898ZM561.345 65.5263C563.724 65.7175 566.138 65.8732 568.589 65.9905L568.708 63.4933C566.285 63.3773 563.898 63.2234 561.545 63.0344L561.345 65.5263ZM575.843 66.2211C577.053 66.2403 578.272 66.25 579.5 66.25V63.75C578.285 63.75 577.079 63.7404 575.883 63.7214L575.843 66.2211ZM579.5 66.25C580.689 66.25 581.863 66.2357 583.022 66.2076L582.961 63.7083C581.823 63.736 580.669 63.75 579.5 63.75V66.25ZM589.969 65.8631C592.343 65.6834 594.649 65.4433 596.891 65.1473L596.563 62.6688C594.368 62.9586 592.108 63.194 589.78 63.3702L589.969 65.8631ZM603.758 64.0334C606.094 63.5819 608.357 63.068 610.553 62.498L609.925 60.0782C607.779 60.635 605.568 61.1373 603.283 61.5789L603.758 64.0334ZM617.258 60.5232C619.511 59.7789 621.691 58.9757 623.805 58.1218L622.868 55.8038C620.803 56.638 618.674 57.4225 616.474 58.1493L617.258 60.5232ZM630.177 55.3104C632.308 54.2901 634.372 53.2216 636.377 52.1153L635.169 49.9264C633.203 51.0111 631.182 52.0574 629.097 53.0555L630.177 55.3104ZM642.372 48.6028C644.368 47.3676 646.309 46.1023 648.207 44.8193L646.806 42.7483C644.932 44.0154 643.02 45.262 641.057 46.4771L642.372 48.6028ZM653.885 40.8531C655.778 39.4942 657.636 38.1287 659.471 36.7715L657.984 34.7617C656.153 36.1161 654.306 37.4735 652.427 38.8223L653.885 40.8531ZM665.01 32.6673C666.871 31.2946 668.719 29.9452 670.571 28.6321L669.125 26.5928C667.255 27.9187 665.393 29.2784 663.526 30.6555L665.01 32.6673ZM676.227 24.7648C678.142 23.5119 680.072 22.3135 682.034 21.184L680.786 19.0175C678.777 20.1744 676.806 21.3985 674.858 22.6728L676.227 24.7648ZM688.047 18.0079C690.075 17.0367 692.149 16.1487 694.282 15.3585L693.413 13.0142C691.203 13.8331 689.059 14.7516 686.967 15.7531L688.047 18.0079ZM700.736 13.3311C702.873 12.779 705.078 12.3263 707.362 11.9858L706.993 9.51311C704.621 9.86677 702.331 10.337 700.11 10.9106L700.736 13.3311ZM714.09 11.3302C715.207 11.2772 716.343 11.25 717.5 11.25V8.75C716.304 8.75 715.128 8.77808 713.971 8.83303L714.09 11.3302Z" fill="#FFCA42"/>
</svg>
