<svg width="96" height="33" viewBox="0 0 96 33" fill="none" xmlns="http://www.w3.org/2000/svg">
<g clip-path="url(#clip0_920_9297)">
<path opacity="0.75" d="M1.08491 8.26106C1.50697 7.16564 3.14303 4.3844 6.08191 5.09638C9.01677 5.93147 14.798 6.36636 16.8644 6.18721C18.8021 6.00388 56.842 4.53222 60.3235 4.39919C63.8051 4.26617 82.8853 3.65555 84.6984 3.34491C86.6402 3.03846 88.8553 2.24796 90.6203 3.41465C92.3893 4.45823 92.8517 6.07545 92.9403 7.31075C92.9001 8.54186 94.2471 10.6809 94.7256 11.8056C95.2081 12.8073 95.8797 15.9102 95.3129 17.4939C94.7462 19.0776 93.9422 20.0373 92.2096 21.8295C90.6096 23.5027 90.4368 24.8527 88.9815 26.0377C87.5263 27.2227 86.3965 26.3232 84.8487 26.396C83.3009 26.4688 81.2546 26.0324 79.4535 25.9737C77.6524 25.915 50.3426 26.1342 44.4047 26.5569C38.5954 26.9838 26.5789 28.1943 22.1847 28.6674C17.7906 29.1404 12.8899 29.3504 10.3049 29.6359C7.71984 29.9213 4.34687 30.6741 2.35668 28.5142C0.366497 26.3542 0.257377 17.8469 0.490338 14.6503C0.727311 11.3305 1.08491 8.26106 1.08491 8.26106Z" fill="#FFCA42"/>
<path opacity="0.75" d="M92.8422 6.32167C91.9778 5.18432 92.9104 4.22878 90.6188 3.41465C88.3312 2.47741 87.3384 5.27961 87.4028 7.25358C87.4673 9.22755 86.6593 10.3104 85.4573 11.6269C84.2553 12.9434 84.4685 14.306 84.5169 16.7724C84.5653 19.2388 84.1031 21.5653 85.1042 22.4607C86.1054 23.356 87.5087 27.7152 89.1127 25.9188C90.7127 24.2456 91.1267 23.3964 92.3407 21.7105C93.4261 20.0205 95.6532 18.8607 95.4441 17.375C95.2309 16.0124 95.673 14.3014 95.0739 12.9262C94.4788 11.4279 94.3461 11.5468 93.751 10.0485C93.0233 8.66916 92.8422 6.32167 92.8422 6.32167Z" fill="#FFCA42"/>
</g>
<defs>
<clipPath id="clip0_920_9297">
<rect width="94.9936" height="29.6855" fill="white" transform="translate(0.966797) rotate(1.86652)"/>
</clipPath>
</defs>
</svg>
