<svg width="52" height="79" viewBox="0 0 52 79" fill="none" xmlns="http://www.w3.org/2000/svg">
<path opacity="0.75" d="M35.9674 51.6885C36.6861 50.9359 38.0329 49.0197 38.9951 47.7528C39.9573 46.486 41.4537 46.0601 41.6854 46.3361C41.8784 46.6057 43.0893 49.1035 43.2244 49.2447C43.3595 49.3858 43.2444 49.8421 42.9235 50.106C42.609 50.3312 41.7106 51.2125 41.5758 51.309C41.4346 51.4441 34.9843 56.913 32.8916 58.3097C30.7988 59.7064 27.0179 62.448 25.2203 63.4974C23.4226 64.5468 18.3439 67.2321 16.3471 68.2882C14.3117 69.3379 11.4156 70.5621 9.61738 71.1361C7.81915 71.7101 7.03555 71.8974 6.51519 71.9301C5.99482 71.9629 5.58375 72.0533 5.29472 72.1243C5.00569 72.1954 4.96076 72.2275 4.42763 72.3374C3.89451 72.4473 3.64404 72.5247 3.31008 72.6279C2.97611 72.7311 2.35922 72.629 1.81914 72.302C1.28544 71.9365 0.558382 71.0636 0.416625 70.7232C0.23631 70.3765 0.312555 69.6761 0.807121 69.5599C1.30169 69.4436 2.28473 69.4874 3.11354 69.5057C3.94236 69.5239 7.43041 69.0314 8.31025 68.7412C9.18371 68.4896 12.3691 67.4321 15.3739 65.7901C18.3016 64.1354 20.8765 62.9373 23.7975 61.0834C26.6799 59.2231 28.221 58.5274 30.6341 56.3914C33.0858 54.2619 35.1012 52.6147 35.9674 51.6885Z" fill="#FBB116"/>
<path opacity="0.75" d="M8.17082 63.0945C7.86962 63.7181 6.99266 66.3854 6.57636 67.4653C6.16007 68.5452 4.80102 71.0139 4.1786 71.6636C3.56257 72.2747 2.87551 72.5968 2.30354 72.4625C1.73158 72.3283 1.60257 71.9109 1.2747 71.7378C0.946828 71.5647 0.734336 71.1731 1.00365 70.7423C1.27297 70.3115 1.80494 69.2508 2.15774 68.7942C2.50417 68.3761 3.72175 65.8048 4.24125 65.0589C4.76713 64.2744 6.00327 61.1119 6.41348 60.3083C6.78513 59.4984 7.95053 56.2846 8.62339 54.851C9.33481 53.4239 11.4415 47.6326 11.992 45.9808C12.5426 44.3289 13.5404 40.6913 13.886 39.5601C14.1866 38.4611 14.6594 36.3211 14.6971 35.6143C14.7734 34.9139 14.7792 34.3999 14.7018 34.1495C14.6244 33.899 14.5275 33.5265 14.7711 33.0122C15.0146 32.4979 15.0842 31.5984 15.1737 31.2963C15.2633 30.9942 15.7509 30.4411 16.1237 30.582C16.5351 30.7293 17.1262 30.7478 17.4477 30.9595C17.7692 31.1711 18.5406 31.5364 18.6566 31.7932C18.7725 32.0501 18.9528 32.3968 18.8056 32.8081C18.6583 33.2195 18.3316 33.9973 18.2426 34.7748C18.1472 35.5909 17.7448 37.5445 17.6361 37.9622C17.4888 38.3736 17.5019 38.5342 17.4187 38.7977C17.3355 39.0612 17.2001 38.6823 17.0719 38.978C16.9824 39.2801 16.8345 39.216 16.8542 39.5758C16.9125 39.9419 16.9 40.2568 16.6881 40.3405C16.4762 40.4243 16.2901 40.5916 16.3226 40.8742C16.3936 41.1633 16.5029 41.2209 16.3104 41.4268C16.1179 41.6326 15.9187 41.6393 16.0347 41.8961C16.1506 42.153 15.9584 42.5965 15.7022 43.1879C15.4459 43.7793 13.4099 49.6219 12.9936 50.7017C12.5773 51.7816 10.6811 56.3005 10.2651 57.6181C9.97111 58.9163 8.17082 63.0945 8.17082 63.0945Z" fill="#FBB116"/>
<path opacity="0.75" d="M44.9989 10.9569C45.5236 9.22162 45.8813 7.53789 45.9066 7.14596C45.9318 6.75401 46.0019 6.32989 46.4385 6.08522C46.8366 5.83417 47.2091 5.73735 47.8005 5.99362C48.3919 6.24989 49.6775 6.85868 50.2434 7.26918C50.8093 7.67967 51.0546 8.59169 50.7922 9.45936C50.4913 10.3206 50.2547 11.2718 49.6523 12.5189C49.0499 13.7661 48.1845 15.4054 48.0245 15.8939C47.8645 16.3824 47.9228 16.7485 47.6978 16.6717C47.5114 16.6012 47.2995 16.685 47.2163 16.9485C47.1331 17.2121 45.845 19.9699 45.4027 20.7285C44.9281 21.4422 44.2555 23.1135 43.7621 24.1806C43.2301 25.2413 42.4738 26.7007 42.2558 27.0607C42.0378 27.4208 41.807 27.8579 41.7427 27.7681C41.6783 27.6782 42.0758 26.9517 42.4091 26.3731C42.7362 25.833 43.2617 24.8108 43.3963 24.4766C43.4922 24.136 43.5371 24.1038 43.6653 23.8081C43.7934 23.5124 43.9346 23.3773 43.7995 23.2361C43.6644 23.0949 43.2287 24.0528 43.0684 24.3035C42.9017 24.5928 42.4405 25.7049 42.1584 26.2128C41.9149 26.727 41.5432 27.537 41.3765 27.8263C41.2098 28.1157 40.8504 28.3731 40.7222 28.6688C40.5877 29.003 40.3825 29.286 40.2798 29.4274C40.1772 29.5689 38.8306 31.7228 38.5677 32.1151C38.3111 32.4687 37.3939 33.7034 37.2849 33.8834C37.1759 34.0635 35.4255 36.9824 35.2715 37.1946C35.1112 37.4454 33.7513 39.201 33.6487 39.3425C33.5011 39.5161 33.0973 40.2812 32.9434 40.4934C32.7894 40.7056 31.9876 41.7216 31.7823 42.0046C31.5771 42.2875 31.4617 42.5061 31.3077 42.7183C31.1538 42.9305 30.9161 42.9308 31.0636 42.7572C31.2112 42.5835 31.2686 42.2365 31.166 42.378C31.0248 42.5131 30.8323 42.7189 30.7619 42.9053C30.6914 43.0917 30.7108 43.2137 30.6082 43.3552C30.5056 43.4967 30.3064 43.5033 30.1847 43.7605C30.0629 44.0176 30.0246 44.249 29.9156 44.429C29.8066 44.609 27.5228 47.4001 26.6566 48.3264C25.5848 49.2978 19.9512 55.3375 18.1098 57.37C16.2684 59.4024 10.2361 65.2177 8.74085 66.5944C7.28411 67.9775 4.98 69.9335 4.64633 70.2744C4.2741 70.6089 4.15234 70.8661 3.70908 70.9116C3.26583 70.9571 2.62922 70.4953 2.33352 70.3671C2.03783 70.239 1.4015 70.0149 1.61951 69.6549C1.83751 69.2948 2.83853 68.272 3.1209 68.0019C3.40326 67.7317 8.94206 62.9835 9.59665 62.3788C10.2512 61.774 15.8019 56.2356 17.8744 54.0037C19.9469 51.7718 24.9314 45.5851 26.4067 43.6109C27.882 41.6367 33.3658 33.8689 33.9685 32.8595C34.6097 31.8565 35.9824 30.0237 37.0017 28.1722C38.0595 26.327 39.1238 24.4432 40.2584 22.3731C41.3482 20.3351 42.3089 17.8797 42.7446 16.9219C43.2125 16.009 44.4678 12.7308 44.9989 10.9569Z" fill="#FBB116"/>
</svg>
