<svg width="583" height="50" viewBox="0 0 583 50" fill="none" xmlns="http://www.w3.org/2000/svg">
<path d="M1.5 8.25C0.809644 8.25 0.25 8.80964 0.25 9.5C0.25 10.1904 0.809644 10.75 1.5 10.75V8.25ZM582.378 10.2466C582.87 9.76161 582.875 8.97017 582.39 8.47891L574.485 0.473385C574 -0.0178738 573.209 -0.0229216 572.718 0.462111C572.226 0.947144 572.221 1.73858 572.706 2.22984L579.732 9.34586L572.616 16.3717C572.125 16.8567 572.12 17.6482 572.605 18.1394C573.09 18.6307 573.881 18.6357 574.373 18.1507L582.378 10.2466ZM4.98741 10.8217C5.67717 10.8504 6.25959 10.3145 6.28829 9.62472C6.31699 8.93496 5.78109 8.35253 5.09133 8.32384L4.98741 10.8217ZM12.2259 8.9397C11.5416 8.84871 10.9131 9.3297 10.8221 10.014C10.7311 10.6984 11.2121 11.3269 11.8964 11.4179L12.2259 8.9397ZM18.6981 12.6601C19.3703 12.8174 20.0427 12.4 20.2 11.7278C20.3573 11.0556 19.9398 10.3831 19.2676 10.2259L18.6981 12.6601ZM26.1512 12.1986C25.4975 11.9764 24.7875 12.3261 24.5653 12.9797C24.3432 13.6334 24.6929 14.3434 25.3465 14.5655L26.1512 12.1986ZM31.7997 17.0928C32.4311 17.372 33.1693 17.0866 33.4485 16.4553C33.7278 15.824 33.4424 15.0857 32.8111 14.8065L31.7997 17.0928ZM39.2211 17.9316C38.611 17.6084 37.8545 17.8409 37.5313 18.451C37.2081 19.061 37.4406 19.8175 38.0506 20.1407L39.2211 17.9316ZM44.1377 23.5674C44.732 23.9187 45.4986 23.7217 45.8499 23.1274C46.2012 22.5332 46.0042 21.7666 45.41 21.4153L44.1377 23.5674ZM51.4508 25.0879C50.8638 24.7246 50.0934 24.9059 49.7301 25.493C49.3668 26.08 49.5481 26.8504 50.1351 27.2137L51.4508 25.0879ZM56.1329 30.921C56.7218 31.2812 57.4912 31.0958 57.8515 30.5068C58.2117 29.9179 58.0263 29.1485 57.4373 28.7883L56.1329 30.921ZM63.4611 32.3714C62.8623 32.0279 62.0984 32.235 61.7549 32.8338C61.4114 33.4326 61.6184 34.1965 62.2173 34.54L63.4611 32.3714ZM68.4548 37.9369C69.0691 38.252 69.8225 38.0094 70.1375 37.3951C70.4526 36.7809 70.21 36.0275 69.5957 35.7124L68.4548 37.9369ZM75.8887 38.7105C75.2565 38.4331 74.5191 38.7207 74.2417 39.3529C73.9644 39.985 74.252 40.7224 74.8842 40.9998L75.8887 38.7105ZM81.5118 43.6446C82.1615 43.8782 82.8775 43.5408 83.111 42.8911C83.3445 42.2415 83.0071 41.5255 82.3575 41.292L81.5118 43.6446ZM88.9682 43.4067C88.3036 43.2198 87.6133 43.6071 87.4265 44.2717C87.2396 44.9363 87.6269 45.6265 88.2915 45.8134L88.9682 43.4067ZM95.223 47.5019C95.899 47.642 96.5606 47.2075 96.7006 46.5315C96.8407 45.8555 96.4062 45.194 95.7302 45.0539L95.223 47.5019ZM102.585 46.2384C101.901 46.1429 101.27 46.6198 101.174 47.3035C101.079 47.9872 101.555 48.6189 102.239 48.7144L102.585 46.2384ZM109.332 49.485C110.02 49.5393 110.622 49.0253 110.676 48.3371C110.73 47.6489 110.216 47.047 109.528 46.9927L109.332 49.485ZM116.473 47.3493C115.783 47.3321 115.21 47.8776 115.192 48.5677C115.175 49.2579 115.721 49.8313 116.411 49.8485L116.473 47.3493ZM123.435 49.8469C124.125 49.8284 124.67 49.254 124.651 48.5639C124.633 47.8737 124.058 47.3293 123.368 47.3478L123.435 49.8469ZM130.054 46.9896C129.365 47.0449 128.852 47.6476 128.908 48.3358C128.963 49.0239 129.566 49.5369 130.254 49.4815L130.054 46.9896ZM137.057 48.7524C137.742 48.6608 138.222 48.0319 138.13 47.3476C138.039 46.6634 137.41 46.1829 136.726 46.2745L137.057 48.7524ZM143.351 45.2147C142.673 45.3408 142.225 45.9933 142.351 46.672C142.477 47.3507 143.129 47.7987 143.808 47.6726L143.351 45.2147ZM150.486 46.2658C151.158 46.1078 151.575 45.435 151.417 44.7629C151.259 44.0909 150.586 43.6742 149.914 43.8321L150.486 46.2658ZM156.424 42.1521C155.759 42.3385 155.371 43.0285 155.558 43.6932C155.744 44.3579 156.434 44.7457 157.099 44.5592L156.424 42.1521ZM163.627 42.5944C164.284 42.3836 164.646 41.6798 164.436 41.0224C164.225 40.365 163.521 40.003 162.864 40.2137L163.627 42.5944ZM169.243 38.0566C168.592 38.2873 168.251 39.0018 168.482 39.6525C168.713 40.3032 169.427 40.6436 170.078 40.4129L169.243 38.0566ZM176.46 38.0604C177.105 37.8144 177.429 37.0921 177.183 36.4471C176.937 35.802 176.215 35.4785 175.57 35.7245L176.46 38.0604ZM181.858 33.2629C181.217 33.5195 180.905 34.247 181.162 34.8879C181.418 35.5288 182.146 35.8404 182.787 35.5839L181.858 33.2629ZM189.071 33.0307C189.709 32.7683 190.014 32.0379 189.752 31.3994C189.49 30.7608 188.759 30.4559 188.121 30.7183L189.071 33.0307ZM194.38 28.1347C193.742 28.3983 193.438 29.1293 193.702 29.7673C193.966 30.4053 194.696 30.7088 195.335 30.4452L194.38 28.1347ZM201.592 27.8732C202.232 27.6127 202.539 26.8833 202.278 26.2439C202.018 25.6046 201.289 25.2975 200.649 25.5579L201.592 27.8732ZM206.948 23.0308C206.306 23.2837 205.99 24.0095 206.243 24.6519C206.496 25.2942 207.222 25.6099 207.864 25.3569L206.948 23.0308ZM214.169 22.9356C214.816 22.6943 215.144 21.9743 214.903 21.3275C214.662 20.6807 213.942 20.352 213.295 20.5934L214.169 22.9356ZM219.691 18.29C219.038 18.5159 218.693 19.2279 218.918 19.8802C219.144 20.5326 219.856 20.8783 220.509 20.6525L219.691 18.29ZM226.905 18.5385C227.564 18.3317 227.93 17.6301 227.723 16.9715C227.516 16.3128 226.815 15.9465 226.156 16.1533L226.905 18.5385ZM232.695 14.218C232.029 14.4026 231.64 15.0915 231.824 15.7567C232.009 16.4219 232.698 16.8116 233.363 16.627L232.695 14.218ZM239.869 14.9501C240.541 14.7904 240.956 14.1165 240.796 13.4449C240.637 12.7733 239.963 12.3582 239.291 12.5178L239.869 14.9501ZM245.958 11.0727C245.28 11.2052 244.839 11.8619 244.971 12.5394C245.104 13.2169 245.76 13.6587 246.438 13.5262L245.958 11.0727ZM253.064 12.3737C253.747 12.2698 254.216 11.6324 254.112 10.9499C254.008 10.2674 253.371 9.79826 252.688 9.9021L253.064 12.3737ZM259.457 9.02103C258.771 9.09528 258.275 9.71187 258.349 10.3982C258.423 11.0846 259.04 11.5808 259.726 11.5065L259.457 9.02103ZM266.411 10.93C267.1 10.8856 267.622 10.2912 267.578 9.60223C267.534 8.9133 266.939 8.39079 266.25 8.43517L266.411 10.93ZM273.065 8.14364C272.375 8.15834 271.828 8.72978 271.842 9.41998C271.857 10.1102 272.429 10.6578 273.119 10.6431L273.065 8.14364ZM279.928 10.6486C280.618 10.6653 281.191 10.1194 281.208 9.42922C281.225 8.73907 280.679 8.16605 279.989 8.14935L279.928 10.6486ZM286.923 8.48364C286.234 8.43395 285.636 8.95187 285.586 9.64043C285.537 10.329 286.055 10.9275 286.743 10.9772L286.923 8.48364ZM293.54 11.6285C294.225 11.7103 294.847 11.2209 294.929 10.5354C295.011 9.84992 294.521 9.2279 293.836 9.14608L293.54 11.6285ZM300.716 10.1256C300.035 10.0131 299.392 10.4741 299.279 11.1552C299.167 11.8364 299.628 12.4797 300.309 12.5922L300.716 10.1256ZM307.028 13.8489C307.704 13.9899 308.366 13.5563 308.507 12.8805C308.648 12.2047 308.214 11.5426 307.538 11.4016L307.028 13.8489ZM314.295 12.9497C313.626 12.7828 312.947 13.1906 312.78 13.8605C312.614 14.5303 313.021 15.2087 313.691 15.3755L314.295 12.9497ZM320.308 17.1476C320.972 17.3374 321.663 16.9532 321.853 16.2894C322.043 15.6257 321.659 14.9337 320.995 14.744L320.308 17.1476ZM327.625 16.7492C326.967 16.5398 326.264 16.9034 326.054 17.5612C325.845 18.219 326.209 18.9221 326.866 19.1314L327.625 16.7492ZM333.373 21.2937C334.025 21.5192 334.737 21.173 334.963 20.5205C335.188 19.868 334.842 19.1563 334.189 18.9308L333.373 21.2937ZM340.702 21.2546C340.054 21.0167 339.336 21.3492 339.098 21.9973C338.86 22.6454 339.193 23.3636 339.841 23.6015L340.702 21.2546ZM346.275 26.0165C346.92 26.2632 347.642 25.9404 347.889 25.2956C348.136 24.6508 347.813 23.9282 347.168 23.6815L346.275 26.0165ZM353.601 26.1743C352.958 25.9227 352.233 26.2399 351.981 26.8827C351.729 27.5256 352.047 28.2507 352.689 28.5023L353.601 26.1743ZM359.1 31.0221C359.742 31.2749 360.468 30.959 360.721 30.3166C360.974 29.6742 360.658 28.9485 360.016 28.6957L359.1 31.0221ZM366.425 31.2065C365.782 30.9564 365.057 31.2752 364.807 31.9187C364.557 32.5621 364.876 33.2865 365.52 33.5367L366.425 31.2065ZM371.964 36.0078C372.61 36.2514 373.331 35.9251 373.575 35.2792C373.818 34.6332 373.492 33.9121 372.846 33.6686L371.964 36.0078ZM379.292 36.0427C378.642 35.8097 377.927 36.1476 377.694 36.7975C377.461 37.4473 377.799 38.163 378.448 38.396L379.292 36.0427ZM384.985 40.6611C385.639 40.8795 386.347 40.5257 386.566 39.8708C386.784 39.2159 386.431 38.5079 385.776 38.2895L384.985 40.6611ZM392.306 40.3692C391.645 40.1694 390.947 40.543 390.747 41.2038C390.547 41.8645 390.921 42.5623 391.582 42.7622L392.306 40.3692ZM398.248 44.6596C398.915 44.8371 399.6 44.4401 399.778 43.7729C399.955 43.1057 399.558 42.421 398.891 42.2436L398.248 44.6596ZM405.535 43.8753C404.861 43.724 404.193 44.1475 404.042 44.8211C403.89 45.4947 404.314 46.1633 404.987 46.3146L405.535 43.8753ZM411.79 47.6891C412.469 47.8107 413.119 47.3585 413.24 46.679C413.362 45.9994 412.91 45.3499 412.23 45.2282L411.79 47.6891ZM418.98 46.2737C418.295 46.1845 417.668 46.6671 417.579 47.3517C417.49 48.0363 417.972 48.6636 418.657 48.7528L418.98 46.2737ZM425.574 49.4784C426.262 49.533 426.864 49.0192 426.919 48.331C426.973 47.6428 426.46 47.0408 425.771 46.9862L425.574 49.4784ZM432.577 47.3471C431.887 47.3287 431.313 47.8732 431.295 48.5634C431.276 49.2535 431.821 49.8278 432.511 49.8463L432.577 47.3471ZM439.504 49.8407C440.194 49.8201 440.736 49.2441 440.716 48.554C440.695 47.864 440.119 47.3212 439.429 47.3418L439.504 49.8407ZM446.239 46.9366C445.551 46.998 445.043 47.6051 445.105 48.2928C445.166 48.9804 445.773 49.4881 446.461 49.4268L446.239 46.9366ZM453.399 48.6036C454.082 48.5025 454.553 47.867 454.452 47.1841C454.351 46.5011 453.716 46.0294 453.033 46.1305L453.399 48.6036ZM459.762 44.9431C459.085 45.0815 458.649 45.742 458.788 46.4183C458.926 47.0947 459.586 47.5308 460.263 47.3924L459.762 44.9431ZM467.054 45.8199C467.723 45.6475 468.125 44.9658 467.952 44.2973C467.78 43.6288 467.098 43.2267 466.43 43.3991L467.054 45.8199ZM473.021 41.5364C472.361 41.7387 471.99 42.4378 472.192 43.0979C472.394 43.7579 473.093 44.129 473.753 43.9266L473.021 41.5364ZM480.361 41.7572C481.013 41.5297 481.357 40.8169 481.129 40.1651C480.902 39.5133 480.189 39.1694 479.537 39.3969L480.361 41.7572ZM485.983 37.0285C485.339 37.2762 485.017 37.9994 485.265 38.6438C485.513 39.2882 486.236 39.6097 486.881 39.3619L485.983 37.0285ZM493.323 36.7924C493.962 36.5295 494.266 35.7989 494.003 35.1606C493.74 34.5222 493.01 34.2178 492.371 34.4806L493.323 36.7924ZM498.718 31.8045C498.084 32.0773 497.791 32.8125 498.063 33.4467C498.336 34.0809 499.071 34.3739 499.706 34.1011L498.718 31.8045ZM506.047 31.3406C506.68 31.0631 506.967 30.3257 506.69 29.6936C506.412 29.0615 505.675 28.774 505.043 29.0514L506.047 31.3406ZM511.367 26.2727C510.735 26.5498 510.447 27.287 510.724 27.9193C511.001 28.5516 511.738 28.8396 512.37 28.5626L511.367 26.2727ZM518.697 25.8186C519.332 25.5472 519.626 24.8125 519.355 24.1778C519.083 23.5431 518.349 23.2486 517.714 23.52L518.697 25.8186ZM524.105 20.845C523.466 21.1058 523.159 21.8354 523.42 22.4746C523.68 23.1138 524.41 23.4206 525.049 23.1599L524.105 20.845ZM531.446 20.6375C532.091 20.3926 532.416 19.6708 532.171 19.0254C531.926 18.3799 531.204 18.0552 530.559 18.3001L531.446 20.6375ZM537.092 15.9368C536.439 16.1607 536.091 16.8716 536.315 17.5247C536.539 18.1777 537.25 18.5255 537.903 18.3016L537.092 15.9368ZM544.43 16.2015C545.091 16.0034 545.467 15.3067 545.269 14.6454C545.071 13.9841 544.374 13.6085 543.713 13.8066L544.43 16.2015ZM550.426 11.958C549.756 12.1257 549.349 12.8046 549.517 13.4742C549.685 14.1439 550.363 14.5508 551.033 14.3831L550.426 11.958ZM557.711 12.8874C558.388 12.754 558.829 12.0968 558.696 11.4195C558.562 10.7421 557.905 10.3012 557.228 10.4346L557.711 12.8874ZM564.101 9.27417C563.418 9.37015 562.941 10.0022 563.037 10.6858C563.133 11.3695 563.765 11.8459 564.449 11.7499L564.101 9.27417ZM571.25 10.9934C571.938 10.937 572.45 10.3336 572.394 9.6455C572.337 8.95745 571.734 8.44539 571.046 8.50177L571.25 10.9934ZM578.004 8.1364C577.314 8.15235 576.767 8.72477 576.783 9.41494C576.799 10.1051 577.372 10.6517 578.062 10.6357L578.004 8.1364ZM1.5 10.75C2.68703 10.75 3.84901 10.7743 4.98741 10.8217L5.09133 8.32384C3.91782 8.27502 2.72119 8.25 1.5 8.25V10.75ZM11.8964 11.4179C14.2607 11.7323 16.5223 12.1511 18.6981 12.6601L19.2676 10.2259C17.0134 9.69848 14.6717 9.26494 12.2259 8.9397L11.8964 11.4179ZM25.3465 14.5655C27.5696 15.3213 29.713 16.1697 31.7997 17.0928L32.8111 14.8065C30.6632 13.8564 28.4508 12.9803 26.1512 12.1986L25.3465 14.5655ZM38.0506 20.1407C40.1065 21.2299 42.1267 22.3785 44.1377 23.5674L45.41 21.4153C43.3754 20.2125 41.3201 19.0437 39.2211 17.9316L38.0506 20.1407ZM50.1351 27.2137C52.1102 28.4361 54.1067 29.6817 56.1329 30.921L57.4373 28.7883C55.4186 27.5535 53.436 26.3166 51.4508 25.0879L50.1351 27.2137ZM62.2173 34.54C64.2357 35.6977 66.3084 36.836 68.4548 37.9369L69.5957 35.7124C67.4903 34.6326 65.4524 33.5136 63.4611 32.3714L62.2173 34.54ZM74.8842 40.9998C77.0097 41.9324 79.2137 42.8186 81.5118 43.6446L82.3575 41.292C80.1163 40.4865 77.9653 39.6217 75.8887 38.7105L74.8842 40.9998ZM88.2915 45.8134C90.5125 46.4378 92.8193 47.0038 95.223 47.5019L95.7302 45.0539C93.384 44.5677 91.1337 44.0156 88.9682 43.4067L88.2915 45.8134ZM102.239 48.7144C104.519 49.0328 106.88 49.2918 109.332 49.485L109.528 46.9927C107.126 46.8034 104.814 46.5498 102.585 46.2384L102.239 48.7144ZM116.411 49.8485C117.588 49.8779 118.784 49.8928 120 49.8928V47.3928C118.804 47.3928 117.629 47.3781 116.473 47.3493L116.411 49.8485ZM120 49.8928C121.154 49.8928 122.299 49.8773 123.435 49.8469L123.368 47.3478C122.254 47.3776 121.132 47.3928 120 47.3928V49.8928ZM130.254 49.4815C132.557 49.2964 134.823 49.0514 137.057 48.7524L136.726 46.2745C134.534 46.5678 132.311 46.808 130.054 46.9896L130.254 49.4815ZM143.808 47.6726C146.064 47.2536 148.288 46.7825 150.486 46.2658L149.914 43.8321C147.752 44.3403 145.566 44.8032 143.351 45.2147L143.808 47.6726ZM157.099 44.5592C159.296 43.9429 161.471 43.2857 163.627 42.5944L162.864 40.2137C160.734 40.8965 158.589 41.5448 156.424 42.1521L157.099 44.5592ZM170.078 40.4129C172.218 39.6541 174.344 38.8676 176.46 38.0604L175.57 35.7245C173.469 36.5258 171.361 37.3053 169.243 38.0566L170.078 40.4129ZM182.787 35.5839C184.884 34.7443 186.978 33.8909 189.071 33.0307L188.121 30.7183C186.031 31.5769 183.946 32.4272 181.858 33.2629L182.787 35.5839ZM195.335 30.4452C197.414 29.5857 199.498 28.7264 201.592 27.8732L200.649 25.5579C198.549 26.4136 196.46 27.2749 194.38 28.1347L195.335 30.4452ZM207.864 25.3569C209.95 24.5353 212.05 23.7261 214.169 22.9356L213.295 20.5934C211.16 21.39 209.046 22.2046 206.948 23.0308L207.864 25.3569ZM220.509 20.6525C222.618 19.9222 224.748 19.2157 226.905 18.5385L226.156 16.1533C223.974 16.8384 221.821 17.5526 219.691 18.29L220.509 20.6525ZM233.363 16.627C235.502 16.0335 237.67 15.4728 239.869 14.9501L239.291 12.5178C237.06 13.0481 234.862 13.6167 232.695 14.218L233.363 16.627ZM246.438 13.5262C248.613 13.1008 250.82 12.7151 253.064 12.3737L252.688 9.9021C250.409 10.249 248.166 10.6408 245.958 11.0727L246.438 13.5262ZM259.726 11.5065C261.918 11.2694 264.145 11.0759 266.411 10.93L266.25 8.43517C263.948 8.58346 261.685 8.78008 259.457 9.02103L259.726 11.5065ZM273.119 10.6431C274.236 10.6193 275.363 10.6071 276.5 10.6071V8.10714C275.346 8.10714 274.201 8.11945 273.065 8.14364L273.119 10.6431ZM276.5 10.6071C277.65 10.6071 278.793 10.6211 279.928 10.6486L279.989 8.14935C278.833 8.12139 277.67 8.10714 276.5 8.10714V10.6071ZM286.743 10.9772C289.036 11.1426 291.301 11.3613 293.54 11.6285L293.836 9.14608C291.56 8.87441 289.256 8.65199 286.923 8.48364L286.743 10.9772ZM300.309 12.5922C302.573 12.9659 304.812 13.3866 307.028 13.8489L307.538 11.4016C305.289 10.9324 303.016 10.5053 300.716 10.1256L300.309 12.5922ZM313.691 15.3755C315.916 15.9298 318.121 16.5224 320.308 17.1476L320.995 14.744C318.783 14.1114 316.55 13.5114 314.295 12.9497L313.691 15.3755ZM326.866 19.1314C329.05 19.8263 331.217 20.549 333.373 21.2937L334.189 18.9308C332.017 18.1801 329.829 17.4509 327.625 16.7492L326.866 19.1314ZM339.841 23.6015C341.994 24.392 344.138 25.199 346.275 26.0165L347.168 23.6815C345.023 22.8609 342.868 22.0498 340.702 21.2546L339.841 23.6015ZM352.689 28.5023C354.829 29.34 356.964 30.1816 359.1 31.0221L360.016 28.6957C357.882 27.8559 355.743 27.0131 353.601 26.1743L352.689 28.5023ZM365.52 33.5367C367.664 34.3703 369.812 35.1962 371.964 36.0078L372.846 33.6686C370.704 32.8608 368.564 32.0381 366.425 31.2065L365.52 33.5367ZM378.448 38.396C380.617 39.1736 382.795 39.9307 384.985 40.6611L385.776 38.2895C383.606 37.5658 381.446 36.8148 379.292 36.0427L378.448 38.396ZM391.582 42.7622C393.788 43.4296 396.009 44.0642 398.248 44.6596L398.891 42.2436C396.681 41.656 394.487 41.0292 392.306 40.3692L391.582 42.7622ZM404.987 46.3146C407.233 46.8189 409.5 47.2791 411.79 47.6891L412.23 45.2282C409.978 44.825 407.748 44.3721 405.535 43.8753L404.987 46.3146ZM418.657 48.7528C420.937 49.0499 423.242 49.2937 425.574 49.4784L425.771 46.9862C423.483 46.8049 421.22 46.5656 418.98 46.2737L418.657 48.7528ZM432.511 49.8463C433.667 49.8771 434.83 49.8928 436 49.8928V47.3928C434.852 47.3928 433.711 47.3774 432.577 47.3471L432.511 49.8463ZM436 49.8928C437.177 49.8928 438.345 49.8752 439.504 49.8407L439.429 47.3418C438.295 47.3756 437.152 47.3928 436 47.3928V49.8928ZM446.461 49.4268C448.809 49.2173 451.121 48.9406 453.399 48.6036L453.033 46.1305C450.801 46.4607 448.538 46.7316 446.239 46.9366L446.461 49.4268ZM460.263 47.3924C462.557 46.9229 464.82 46.3962 467.054 45.8199L466.43 43.3991C464.234 43.9655 462.013 44.4826 459.762 44.9431L460.263 47.3924ZM473.753 43.9266C475.98 43.2443 478.181 42.5184 480.361 41.7572L479.537 39.3969C477.384 40.1486 475.213 40.8643 473.021 41.5364L473.753 43.9266ZM486.881 39.3619C489.043 38.5303 491.189 37.671 493.323 36.7924L492.371 34.4806C490.253 35.3531 488.125 36.205 485.983 37.0285L486.881 39.3619ZM499.706 34.1011C501.826 33.1895 503.938 32.2663 506.047 31.3406L505.043 29.0514C502.936 29.9762 500.829 30.8964 498.718 31.8045L499.706 34.1011ZM512.37 28.5626C514.477 27.6397 516.584 26.7225 518.697 25.8186L517.714 23.52C515.591 24.428 513.477 25.3485 511.367 26.2727L512.37 28.5626ZM525.049 23.1599C527.17 22.2949 529.3 21.4514 531.446 20.6375L530.559 18.3001C528.391 19.1224 526.241 19.9736 524.105 20.845L525.049 23.1599ZM537.903 18.3016C540.058 17.5623 542.233 16.8598 544.43 16.2015L543.713 13.8066C541.481 14.4751 539.276 15.1879 537.092 15.9368L537.903 18.3016ZM551.033 14.3831C553.231 13.8325 555.456 13.3315 557.711 12.8874L557.228 10.4346C554.929 10.8873 552.663 11.3976 550.426 11.958L551.033 14.3831ZM564.449 11.7499C566.683 11.4363 568.948 11.182 571.25 10.9934L571.046 8.50177C568.695 8.69441 566.381 8.95412 564.101 9.27417L564.449 11.7499ZM578.062 10.6357C579.196 10.6095 580.339 10.5998 581.492 10.6071L581.508 8.10716C580.331 8.09965 579.163 8.10964 578.004 8.1364L578.062 10.6357Z" fill="#FFCA42"/>
</svg>
