<svg width="32" height="32" viewBox="0 0 32 32" fill="none" xmlns="http://www.w3.org/2000/svg">
<g opacity="0.5" clip-path="url(#clip0_2001_5287)">
<path d="M12.5188 11.5449L10.9297 20.8702H13.4712L15.0615 11.5449H12.5188Z" fill="white"/>
<path d="M8.80061 11.5547L6.31144 17.9142L6.04605 16.954C5.55515 15.797 4.16152 14.1354 2.52539 13.0882L4.80147 20.8649L7.49066 20.8603L11.4931 11.5527L8.80061 11.5547Z" fill="white"/>
<path d="M5.08032 12.2222C4.93259 11.6542 4.50443 11.4849 3.973 11.4646H0.0326835L0 11.6502C3.06636 12.3941 5.09535 14.1865 5.93728 16.3416L5.08032 12.2222Z" fill="white"/>
<path d="M20.2134 13.3327C21.0449 13.3196 21.6476 13.5013 22.1156 13.6896L22.345 13.7975L22.6889 11.7763C22.1855 11.5874 21.3966 11.3848 20.4121 11.3848C17.9007 11.3848 16.1306 12.6496 16.1169 14.4622C16.1005 15.8016 17.3778 16.5494 18.3426 16.9959C19.3329 17.4534 19.665 17.7443 19.6604 18.1529C19.6526 18.7771 18.8708 19.0634 18.1406 19.0634C17.1229 19.0634 16.5823 18.9229 15.7475 18.5751L15.4201 18.4261L15.0625 20.5133C15.6573 20.7741 16.7548 20.9983 17.8942 21.01C20.5657 21.01 22.3019 19.7602 22.3202 17.8234C22.3313 16.7638 21.6534 15.9552 20.1847 15.2917C19.2957 14.859 18.7518 14.5714 18.757 14.1348C18.757 13.7471 19.2185 13.3327 20.2134 13.3327Z" fill="white"/>
<path d="M29.2112 11.5549H27.2475C26.6377 11.5549 26.184 11.721 25.916 12.3289L22.1424 20.8749H24.8113C24.8113 20.8749 25.2467 19.7258 25.3454 19.4741C25.6376 19.4741 28.2307 19.4781 28.6 19.4781C28.6758 19.8036 28.9098 20.8749 28.9098 20.8749H31.2676L29.2112 11.5549ZM26.0768 17.5654C26.286 17.0301 27.0894 14.9592 27.0894 14.9592C27.0756 14.9847 27.2966 14.42 27.428 14.0689L27.5992 14.873C27.5992 14.873 28.0862 17.0994 28.1882 17.5654H26.0768Z" fill="white"/>
</g>
<defs>
<clipPath id="clip0_2001_5287">
<rect width="31.2676" height="31.2676" fill="white" transform="translate(0 0.563477)"/>
</clipPath>
</defs>
</svg>
