<svg width="32" height="32" viewBox="0 0 32 32" fill="none" xmlns="http://www.w3.org/2000/svg">
<g opacity="0.5" clip-path="url(#clip0_2001_5303)">
<path d="M19.8022 16.197C19.8022 21.594 15.43 25.9671 10.0349 25.9671C4.63971 25.9671 0.267578 21.5931 0.267578 16.197C0.267578 10.8008 4.64078 6.42676 10.0349 6.42676C15.429 6.42676 19.8022 10.8008 19.8022 16.197Z" fill="#E2574C"/>
<path d="M21.7654 6.42676C19.5749 6.42676 17.5583 7.15661 15.9286 8.37499L15.9365 8.37595C16.257 8.68564 16.6106 8.9036 16.8832 9.26011L14.851 9.29236C14.5325 9.61384 14.2423 9.9636 13.9687 10.3271H17.5524C17.825 10.6543 18.077 10.9387 18.3057 11.3002H13.319C13.1363 11.6148 12.9673 11.9382 12.8198 12.2742H18.8734C19.0317 12.6093 19.1734 12.8624 19.2936 13.2171H12.4612C12.3528 13.5542 12.26 13.8991 12.1896 14.2508H19.5798C19.6522 14.5888 19.7078 14.9014 19.7459 15.22H12.043C12.0108 15.5415 11.9941 15.8678 11.9941 16.1971H19.8015C19.8015 16.543 19.7771 16.8634 19.742 17.1741H12.043C12.0762 17.5053 12.1251 17.8307 12.1896 18.1512H19.568C19.4918 18.4677 19.4039 18.7862 19.2935 19.1165H12.4387C12.5423 19.4506 12.6684 19.7749 12.8061 20.0915H18.8734C18.7054 20.4471 18.5149 20.7314 18.3049 21.0646H13.3016C13.499 21.4065 13.7168 21.7328 13.9532 22.0455L17.5525 22.0992C17.2457 22.4675 16.852 22.6893 16.4934 23.0117C16.5129 23.0274 15.9199 23.0098 14.7523 22.9913C16.5285 24.8242 19.0111 25.9673 21.7653 25.9673C27.1614 25.9673 31.5355 21.5931 31.5355 16.1971C31.5355 10.801 27.1624 6.42676 21.7654 6.42676Z" fill="#F4B459"/>
</g>
<defs>
<clipPath id="clip0_2001_5303">
<rect width="31.2676" height="31.2676" fill="white" transform="translate(0.267578 0.563477)"/>
</clipPath>
</defs>
</svg>
