<svg width="289" height="190" viewBox="0 0 289 190" fill="none" xmlns="http://www.w3.org/2000/svg">
<path opacity="0.75" d="M51.1491 157.956C51.1349 161.675 51.4506 162.377 51.9837 166.186C52.594 169.793 51.7168 172.718 50.2714 174.381C48.826 176.044 46.8754 176.584 44.8758 176.64C42.8762 176.696 42.2798 176.121 40.6521 175.504C39.0243 174.886 35.8039 174.479 34.5199 173.876C33.2991 173.412 31.096 173.391 29.2648 172.697C27.4336 172.002 24.6482 171.062 24.7324 168.999C24.8167 166.936 24.9851 166.185 26.5428 165.147C28.0373 163.968 29.4827 162.305 29.7564 160.664C30.0301 159.022 32.2895 154.293 32.3457 152.918C32.4019 151.543 33.1177 147.508 33.8755 145.817C34.6333 144.127 34.6685 141.58 35.3632 139.748C36.0579 137.917 38.3665 130.298 39.2015 128.403C40.0365 126.509 41.9522 121.766 42.4925 120.342C43.2362 118.995 44.7449 114.097 45.3343 113.157C45.9237 112.217 47.2219 109.102 47.8253 107.818C48.3516 106.737 49.2147 104.156 50.3935 102.275C51.5723 100.395 53.4879 95.652 54.4983 94.5224C55.5087 93.3928 56.5121 90.7477 57.2909 90.2286C58.0697 89.7094 59.2976 88.3132 60.294 87.5274C61.3535 86.882 64.1179 86.6505 66.6157 86.2016C69.2538 85.6895 73.239 85.9212 75.1124 85.5845C77.0489 85.3881 78.8801 86.0828 78.9642 87.3948C79.0484 88.7069 77.3995 90.2925 76.747 91.0923C76.0944 91.8922 72.4458 96.9086 71.5757 97.9751C70.7057 99.0415 64.987 109.208 63.5345 112.73C62.082 116.252 62.2012 118.392 61.0926 118.553C60.1875 118.792 60.0191 119.543 60.0401 120.714C60.1243 122.026 59.598 123.107 58.9945 124.391C58.5314 125.612 55.6474 133.828 55.2965 135.673C55.086 137.455 53.7948 142.086 53.3036 143.994C52.8124 145.902 53.6403 145.867 52.6931 147.137C51.7458 148.407 52.707 150.168 51.9001 151.375C51.6404 152.673 51.093 155.957 51.1491 157.956Z" fill="#FBB624"/>
<path opacity="0.75" d="M134.074 71.8766C133.337 71.3644 131.274 71.2801 128.776 71.7291C127.682 71.5466 126.587 71.3642 125.9 71.3361C124.258 71.0624 118.231 71.9181 116.842 72.2057C115.733 72.3671 115.172 72.6196 115.08 73.1669C114.084 73.9527 113.151 74.8788 111.797 75.9943C109.664 77.629 107.559 81.9509 105.376 86.4763C103.054 91.0649 93.4897 117.81 92.3038 121.55C91.1179 125.29 88.9497 129.471 88.4727 127.661C87.9325 125.711 86.8103 116.091 86.3334 110.906C86.2001 109.11 84.4113 100.634 83.9343 98.8241C83.5976 96.9508 80.2652 89.1696 79.0865 87.6751C77.9078 86.1806 76.9536 85.935 75.2346 85.8648C73.5157 85.7945 71.3757 85.9137 70.0637 85.9979C68.7516 86.082 64.1279 86.3064 62.3949 86.5799C60.8022 86.7903 59.7356 89.2951 59.7706 90.123C59.7706 90.123 61.1106 92.7261 62.0578 94.831C62.9417 96.7956 65.4884 103.58 66.0566 104.843C66.6249 106.106 68.3297 109.895 68.4489 112.035C68.5681 114.175 69.7184 123.107 69.606 125.857C69.5568 128.748 70.1809 138.76 69.865 141.433C69.6124 144.247 69.7592 155.824 69.8784 157.964C69.9976 160.104 71.0781 160.63 72.5515 161.654C73.9617 162.538 76.663 162.167 78.8521 162.532C81.0411 162.896 86.0577 163.17 87.903 163.521C87.903 163.521 90.092 163.886 92.0707 162.658C94.0493 161.431 93.7687 161.557 97.4102 158.4C101.052 155.243 100.133 152.45 102.259 149.3C104.385 146.15 106.89 137.092 108.076 133.352C109.262 129.612 115.977 108.536 117.865 104.481C118.391 103.4 119.226 101.506 120.215 99.2044C120.475 101.281 120.812 103.155 121.036 104.403C121.836 108.431 122.565 114.177 123.358 116.689C124.354 119.278 126.571 122.33 128.353 122.541C130.276 122.688 134.478 122.653 137.278 123.25C140.077 123.846 144.827 123.903 146.652 123.082C148.476 122.261 147.094 120.689 146.399 119.146C145.705 117.602 145.221 114.276 144.975 111.856C144.589 109.498 143.102 105.443 143.011 102.615C142.78 99.8508 140.661 91.0172 140.563 90.049C140.465 89.0807 137.427 77.4547 136.571 74.8025C136.459 74.1781 136.066 73.6799 135.736 73.322C136.108 72.6485 134.951 72.3257 134.074 71.8766Z" fill="#FBB624"/>
<path opacity="0.75" d="M128.353 122.543C130.837 122.437 136.969 124.065 140.077 123.848C143.122 123.49 147.753 124.781 150.91 118.299C154.068 111.816 155.654 99.9653 159.352 92.0581C163.113 84.2913 167.835 74.9107 170.558 68.961C170.558 68.961 172.01 75.5634 173.75 80.1802C175.49 84.7969 180.05 87.8071 184.239 88.1159C188.428 88.4248 193.037 88.5443 196.503 87.9971C199.829 87.5132 203.688 84.0894 205.674 81.0023C207.519 77.9784 209.119 72.5338 210.593 70.1834C212.003 67.6927 216.718 53.4218 218.641 53.5692C220.563 53.7166 226.948 55.906 230.309 56.2499C233.67 56.5938 241.563 57.2607 243.976 55.4997C246.39 53.7387 248.685 49.8377 249.814 47.4733C250.944 45.1089 251.597 40.9342 252.025 38.8855C252.593 36.7736 252.495 35.8054 255.379 30.9643C258.263 26.1232 257.954 26.937 259.392 23.7587C260.831 20.5804 260.55 20.7067 260.003 20.6155C259.519 20.6646 259.456 20.5242 259.189 20.3067C258.922 20.0892 258.796 19.8086 259.014 19.5419C259.168 19.135 259.4 18.5246 259.835 17.9914C260.27 17.4582 261.14 16.3917 260.719 16.5812C260.298 16.7706 260.221 16.974 259.954 16.7565C259.687 16.539 259.561 16.2584 259.919 15.9286C260.277 15.5989 260.712 15.0656 260.242 14.7709C259.772 14.4762 258.958 14.1675 258.958 14.1675C258.958 14.1675 258.972 13.8237 258.614 14.1534C258.319 14.6235 257.947 15.2971 257.667 15.4234C257.386 15.5496 257.07 14.848 257.148 14.6445C257.225 14.4411 257.751 13.3606 258.326 12.7642C258.839 12.0275 258.635 11.9503 259.07 11.4171C259.505 10.8839 259.533 10.1963 259.035 10.5892C258.537 10.9821 257.884 11.7819 257.449 12.3151C257.155 12.7852 256.72 13.3184 256.642 13.5219C256.425 13.7885 256.348 13.992 256.144 13.9148C255.941 13.8376 255.485 13.1991 255.485 13.1991C255.485 13.1991 255.436 12.715 255.59 12.308C255.744 11.9011 256.025 11.7748 256.243 11.5082C256.397 11.1013 255.99 10.9469 255.646 10.9329C255.443 10.8557 254.334 11.017 254.257 11.2205C254.04 11.4871 253.31 12.4904 253.029 12.6167C252.748 12.7429 243.43 25.0351 242.252 26.9154C241.15 28.5922 237.024 35.1733 236.154 36.2398C235.284 37.3062 234.133 38.4989 233.537 37.9235C232.941 37.3482 225.167 35.4465 222.557 35.271C220.01 35.2358 212.537 34.3795 209.962 35.0319C207.31 35.8878 202.897 37.7049 201.318 40.9463C199.739 44.1878 190.863 64.2118 190.863 64.2118C190.863 64.2118 186.984 52.9646 186.478 51.842C185.973 50.7194 185.314 50.0037 183.749 49.5265C182.185 49.0493 168.791 48.1578 167.338 48.305C165.886 48.4523 160.862 50.0378 160.069 50.9008C159.276 51.7637 151.986 59.9374 149.678 64.1821C147.369 68.4269 142.619 78.495 141.643 80.4525C140.528 82.4732 134.837 91.9519 133.518 93.8954C132.136 95.6985 128.185 113.169 126.354 115.849C124.585 118.669 123.891 120.501 124.894 121.23C125.834 121.82 128.353 122.543 128.353 122.543Z" fill="#FBB624"/>
</svg>
