<svg width="712" height="371" viewBox="0 0 712 371" fill="none" xmlns="http://www.w3.org/2000/svg">
<circle cx="119" cy="220" r="10" fill="#FA8D8D" fill-opacity="0.51"/>
<circle cx="647" cy="5" r="5" fill="#87A3E3"/>
<circle cx="68" cy="183" r="5" fill="#87A3E3"/>
<g clip-path="url(#clip0_739_4898)">
<path opacity="0.75" d="M149.557 42.3093C149.535 42.141 149.551 41.6771 149.962 41.5781C150.38 41.4951 151.124 41.1761 151.367 41.019C151.594 40.8698 156.195 38.2131 156.616 37.9702C157.037 37.7273 159.353 36.4111 159.557 36.2536C159.776 36.0882 159.996 35.8428 160.293 35.8784C160.581 35.898 160.747 36.076 160.841 36.2292C160.919 36.3902 161.229 36.578 161.363 36.6916C161.49 36.7892 161.781 37.1448 161.818 37.3853C161.854 37.6258 161.819 37.8014 161.725 38.1444C161.64 38.4634 161.709 38.6483 161.609 38.8951C161.509 39.142 161.309 39.0995 161.122 39.2093C160.936 39.319 160.654 39.3956 160.427 39.5049C160.201 39.6142 156.842 41.4137 156.137 41.8532C155.447 42.285 154.044 43.2201 153.533 43.566C153.022 43.9118 152.431 44.2567 152.13 44.4611C151.83 44.6655 151.464 44.9811 151.073 44.8323C150.682 44.6835 150.098 43.5962 149.912 43.1698C149.718 42.7274 149.557 42.3093 149.557 42.3093Z" fill="#FFC327"/>
</g>
<g clip-path="url(#clip1_739_4898)">
<path opacity="0.75" d="M136.168 35.9369C136.047 35.8175 135.774 35.4426 136.037 35.1115C136.315 34.7883 136.704 34.079 136.799 33.8054C136.886 33.548 138.874 28.6212 139.056 28.1704C139.239 27.7195 140.252 25.256 140.315 25.0067C140.386 24.7413 140.409 24.4122 140.664 24.2577C140.904 24.0953 141.144 24.1335 141.312 24.1963C141.473 24.2753 141.833 24.2323 142.009 24.2389C142.169 24.2377 142.617 24.3384 142.794 24.5055C142.971 24.6726 143.051 24.8325 143.189 25.1604C143.318 25.4643 143.486 25.5673 143.559 25.8235C143.632 26.0797 143.449 26.1694 143.37 26.3706C143.29 26.5719 143.115 26.806 143.004 27.0315C142.893 27.2571 141.355 30.7439 141.071 31.5246C140.794 32.2891 140.264 33.8902 140.075 34.4775C139.885 35.0648 139.632 35.7007 139.521 36.0467C139.41 36.3926 139.316 36.8668 138.917 36.9903C138.517 37.1139 137.387 36.6173 136.978 36.3959C136.553 36.1666 136.168 35.9369 136.168 35.9369Z" fill="#FFC327"/>
</g>
<g clip-path="url(#clip2_739_4898)">
<path opacity="0.75" d="M121.954 36.505C121.787 36.4741 121.35 36.3179 121.381 35.8964C121.43 35.4724 121.353 34.6671 121.277 34.3875C121.205 34.1257 120.078 28.9339 119.975 28.4587C119.872 27.9834 119.325 25.3761 119.237 25.1346C119.146 24.8753 118.98 24.5904 119.104 24.319C119.21 24.0501 119.431 23.9466 119.605 23.9039C119.782 23.8791 120.055 23.6411 120.205 23.5476C120.336 23.4565 120.764 23.2876 121.004 23.3264C121.244 23.3652 121.401 23.452 121.699 23.6459C121.977 23.8245 122.174 23.8149 122.378 23.9856C122.583 24.1564 122.481 24.3339 122.529 24.5448C122.577 24.7557 122.564 25.0478 122.599 25.2967C122.634 25.5457 123.323 29.2938 123.527 30.0994C123.728 30.8873 124.19 32.509 124.364 33.1012C124.537 33.6935 124.685 34.3618 124.788 34.7101C124.891 35.0583 125.08 35.5033 124.82 35.8302C124.559 36.157 123.345 36.3821 122.882 36.429C122.402 36.4784 121.954 36.505 121.954 36.505Z" fill="#FFC327"/>
</g>
<g clip-path="url(#clip3_739_4898)">
<path opacity="0.75" d="M108.743 42.6964C108.588 42.7652 108.139 42.8835 107.926 42.5184C107.727 42.1411 107.208 41.5205 106.987 41.3325C106.779 41.1578 102.914 37.5128 102.56 37.179C102.207 36.8452 100.282 35.004 100.072 34.8546C99.8509 34.6919 99.5526 34.551 99.5016 34.2569C99.4375 33.9748 99.5606 33.765 99.6804 33.6312C99.8123 33.5106 99.9033 33.1597 99.9735 32.9982C100.031 32.8487 100.288 32.4676 100.508 32.3639C100.728 32.2601 100.906 32.2432 101.261 32.2346C101.591 32.2248 101.749 32.1054 102.014 32.1306C102.279 32.1558 102.296 32.3595 102.454 32.5065C102.613 32.6535 102.767 32.9018 102.937 33.0874C103.107 33.273 105.794 35.9746 106.418 36.524C107.029 37.0602 108.328 38.1362 108.806 38.5266C109.284 38.917 109.784 39.3845 110.066 39.6135C110.347 39.8424 110.755 40.1026 110.725 40.5197C110.694 40.9368 109.82 41.8088 109.465 42.1091C109.097 42.4214 108.743 42.6964 108.743 42.6964Z" fill="#FFC327"/>
</g>
<g clip-path="url(#clip4_739_4898)">
<path opacity="0.75" d="M104.479 55.4052C104.417 55.5634 104.183 55.9642 103.775 55.8561C103.367 55.7301 102.561 55.6574 102.273 55.68C102.002 55.7034 96.6913 55.8542 96.2052 55.8677C95.7192 55.8813 93.0557 55.9384 92.8021 55.9805C92.5306 56.0217 92.2198 56.1328 91.976 55.9606C91.7314 55.8062 91.6702 55.5708 91.6604 55.3915C91.6686 55.2129 91.4851 54.9003 91.4207 54.7364C91.3555 54.5902 91.2683 54.1389 91.3507 53.9101C91.433 53.6812 91.5472 53.5433 91.7927 53.2861C92.0194 53.046 92.0463 52.8504 92.2519 52.6809C92.4574 52.5114 92.6131 52.6437 92.8293 52.6357C93.0454 52.6277 93.33 52.6944 93.5811 52.7059C93.8323 52.7174 97.6432 52.7307 98.4726 52.6791C99.284 52.6268 100.963 52.471 101.577 52.4096C102.191 52.3482 102.876 52.3258 103.237 52.2887C103.598 52.2515 104.07 52.1479 104.343 52.4645C104.617 52.7812 104.614 54.0157 104.575 54.4791C104.535 54.9604 104.479 55.4052 104.479 55.4052Z" fill="#FFC327"/>
</g>
<g clip-path="url(#clip5_739_4898)">
<path opacity="0.75" d="M110.903 67.2379C110.95 67.4007 111.008 67.8613 110.618 68.0238C110.218 68.1716 109.534 68.6037 109.318 68.7972C109.117 68.9803 104.992 72.3284 104.615 72.6347C104.237 72.9409 102.157 74.6054 101.981 74.793C101.791 74.9909 101.612 75.2679 101.313 75.2794C101.025 75.3056 100.834 75.1559 100.717 75.0194C100.615 74.8726 100.279 74.736 100.128 74.6449C99.9875 74.5686 99.6439 74.2633 99.5702 74.0315C99.4965 73.7997 99.5033 73.6208 99.5419 73.2674C99.5759 72.9389 99.4784 72.7672 99.5385 72.5077C99.5986 72.2481 99.8028 72.2585 99.9695 72.1208C100.136 71.9831 100.403 71.863 100.609 71.7194C100.816 71.5759 103.849 69.2697 104.477 68.7246C105.089 68.1897 106.328 67.0452 106.778 66.6232C107.228 66.2011 107.758 65.7674 108.022 65.5183C108.286 65.2692 108.598 64.8998 109.008 64.9852C109.417 65.0706 110.166 66.0523 110.416 66.4441C110.677 66.8505 110.903 67.2379 110.903 67.2379Z" fill="#FFC327"/>
</g>
<g clip-path="url(#clip6_739_4898)">
<path opacity="0.75" d="M120.889 70.0548C121.023 70.1595 121.338 70.5004 121.115 70.8596C120.876 71.2128 120.571 71.9623 120.508 72.245C120.452 72.5108 119.046 77.6341 118.917 78.103C118.788 78.5718 118.065 81.1359 118.031 81.3908C117.992 81.6626 118.007 81.9922 117.771 82.1751C117.552 82.3641 117.309 82.3538 117.135 82.3108C116.966 82.2509 116.614 82.3352 116.438 82.3489C116.279 82.3686 115.822 82.3203 115.627 82.1748C115.433 82.0292 115.334 81.8797 115.16 81.5698C114.996 81.2829 114.817 81.2001 114.715 80.954C114.613 80.708 114.785 80.5976 114.84 80.3886C114.896 80.1795 115.043 79.9268 115.127 79.6899C115.211 79.453 116.336 75.812 116.529 75.0037C116.716 74.2123 117.057 72.5608 117.177 71.9555C117.298 71.3503 117.476 70.6893 117.546 70.3329C117.616 69.9766 117.655 69.4947 118.037 69.3258C118.42 69.157 119.6 69.5197 120.032 69.6925C120.48 69.8712 120.889 70.0548 120.889 70.0548Z" fill="#FFC327"/>
</g>
<g clip-path="url(#clip7_739_4898)">
<path opacity="0.75" d="M134.407 67.9872C134.576 68.002 135.026 68.1154 135.036 68.5379C135.028 68.9646 135.182 69.7587 135.284 70.0298C135.382 70.2833 137.003 75.3426 137.152 75.8057C137.3 76.2688 138.095 78.8114 138.206 79.0433C138.321 79.2927 138.514 79.5603 138.417 79.8423C138.337 80.1202 138.127 80.2444 137.958 80.3037C137.784 80.3455 137.535 80.6087 137.395 80.7161C137.273 80.8194 136.864 81.0287 136.621 81.0132C136.378 80.9977 136.214 80.9264 135.899 80.7621C135.605 80.611 135.41 80.6396 135.19 80.4893C134.97 80.339 135.054 80.1526 134.986 79.9472C134.918 79.7419 134.903 79.4499 134.844 79.2055C134.785 78.961 133.738 75.2967 133.458 74.5144C133.182 73.7495 132.566 72.1799 132.336 71.6071C132.106 71.0343 131.895 70.3833 131.759 70.0466C131.622 69.7099 131.392 69.2851 131.62 68.9347C131.848 68.5842 133.035 68.2434 133.491 68.1522C133.964 68.0568 134.407 67.9872 134.407 67.9872Z" fill="#FFC327"/>
</g>
<g clip-path="url(#clip8_739_4898)">
<path opacity="0.75" d="M146.44 64.4722C146.606 64.436 147.07 64.4105 147.205 64.811C147.324 65.2207 147.707 65.933 147.885 66.1615C148.054 66.3745 151.106 70.7229 151.386 71.121C151.665 71.5191 153.18 73.7102 153.355 73.8987C153.539 74.1025 153.803 74.3006 153.794 74.599C153.8 74.8882 153.637 75.0689 153.493 75.1759C153.339 75.2675 153.18 75.5928 153.078 75.737C152.992 75.8719 152.664 76.1934 152.427 76.2508C152.191 76.3081 152.013 76.2889 151.663 76.2257C151.338 76.1689 151.16 76.2542 150.905 76.1761C150.65 76.098 150.675 75.8951 150.549 75.7192C150.423 75.5433 150.322 75.269 150.193 75.0531C150.064 74.8372 147.975 71.6499 147.475 70.9862C146.985 70.3379 145.929 69.0226 145.54 68.544C145.15 68.0654 144.754 67.5068 144.524 67.2258C144.294 66.9448 143.947 66.6079 144.061 66.2055C144.175 65.803 145.206 65.1248 145.615 64.9021C146.038 64.6703 146.44 64.4722 146.44 64.4722Z" fill="#FFC327"/>
</g>
<g clip-path="url(#clip9_739_4898)">
<path opacity="0.75" d="M152.851 54.132C152.976 54.0168 153.362 53.7601 153.681 54.0372C153.992 54.3299 154.683 54.75 154.953 54.8569C155.206 54.9551 160.04 57.159 160.482 57.361C160.925 57.5629 163.341 58.6848 163.587 58.7588C163.849 58.8414 164.177 58.8785 164.32 59.1405C164.472 59.3868 164.423 59.6251 164.353 59.7905C164.267 59.9472 164.294 60.3086 164.279 60.4842C164.273 60.6441 164.153 61.0877 163.978 61.2568C163.803 61.426 163.64 61.4995 163.307 61.6223C162.997 61.738 162.887 61.9017 162.628 61.9634C162.369 62.025 162.287 61.8376 162.089 61.7496C161.892 61.6616 161.666 61.4764 161.445 61.3554C161.225 61.2344 157.81 59.5439 157.042 59.2248C156.291 58.9144 154.715 58.3147 154.136 58.0993C153.558 57.8839 152.934 57.6026 152.593 57.4768C152.252 57.351 151.783 57.2361 151.677 56.8315C151.571 56.4268 152.117 55.3197 152.357 54.9209C152.605 54.5064 152.851 54.132 152.851 54.132Z" fill="#FFC327"/>
</g>
<g clip-path="url(#clip10_739_4898)">
<path opacity="0.75" d="M127.404 42.2337C127.995 42.2337 128.262 42.3074 128.643 42.3074C129.025 42.3074 129.158 42.2337 129.158 42.1231C129.158 42.0125 128.853 42.16 129.158 42.0125C129.463 41.865 129.463 41.865 129.463 41.7175C129.463 41.57 129.844 41.5331 129.692 41.3856C129.539 41.2381 129.501 41.0538 129.501 41.0538C129.501 41.0538 129.616 41.0538 129.616 40.7956C129.616 40.5375 129.463 40.3347 129.196 40.261C128.929 40.1872 127.404 39.6157 126.242 39.9291C125.079 40.2241 121.991 41.2566 120.523 42.1231C119.036 42.9527 114.938 46.1607 113.622 47.6725C112.288 49.1659 110.668 51.7654 110.229 53.6275C109.81 55.4712 110.077 57.8679 110.572 59.1216C111.087 60.3569 111.087 60.3569 111.087 60.3569C111.087 60.3569 110.63 57.0936 111.049 55.5449C111.468 53.9962 111.716 53.5906 111.831 53.3878C111.945 53.2035 112.25 52.4107 112.574 51.9129C112.879 51.4336 114.785 49.0184 115.719 48.1887C116.653 47.3591 118.788 45.5154 120.123 44.7226C121.438 43.9299 123.325 43.0265 124.564 42.6946C125.803 42.3628 127.404 42.2337 127.404 42.2337Z" fill="#FFC327"/>
<path opacity="0.75" d="M124.811 64.7449C124.888 64.7264 125.078 64.708 125.212 64.708C125.345 64.708 125.536 64.6896 125.631 64.6896C125.726 64.6896 125.745 64.7264 125.822 64.6711C125.898 64.6158 125.917 64.6527 125.993 64.6527C126.069 64.6527 126.298 64.6343 126.374 64.6343C126.451 64.6343 126.413 64.5605 126.47 64.5605C126.546 64.5605 126.546 64.5605 126.718 64.5421C126.889 64.5236 126.927 64.5421 127.042 64.5236C127.137 64.5052 127.251 64.4868 127.251 64.5052C127.27 64.5421 127.232 64.5421 127.175 64.5421C127.118 64.5605 126.984 64.5605 126.908 64.5789C126.851 64.5974 126.794 64.5974 126.698 64.5974C126.603 64.5789 126.603 64.6527 126.527 64.6527C126.451 64.6527 126.298 64.6711 126.184 64.6896C126.069 64.708 125.993 64.6896 125.917 64.708C125.841 64.7264 125.784 64.7633 125.688 64.7449C125.593 64.7264 125.402 64.7633 125.307 64.7633C125.212 64.7633 125.174 64.7449 125.04 64.7633C124.907 64.7817 124.907 64.7817 124.792 64.8002C124.716 64.8002 124.811 64.7449 124.811 64.7449Z" fill="#FFC327"/>
<path opacity="0.75" d="M127.994 64.3759C128.128 64.3759 128.49 64.3022 128.642 64.2653C128.795 64.2284 128.89 64.21 128.967 64.21C129.043 64.1916 129.1 64.1731 129.119 64.21C129.138 64.2469 129.119 64.2838 129.005 64.3022C128.89 64.3206 128.909 64.3206 128.795 64.3206C128.681 64.3206 128.604 64.3575 128.509 64.3575C128.414 64.3575 128.318 64.3944 128.261 64.3944C128.204 64.4128 128.223 64.3944 128.147 64.4128C128.071 64.4128 127.937 64.3759 127.994 64.3759Z" fill="#FFC327"/>
<path opacity="0.75" d="M129.444 64.1548C129.501 64.1548 129.768 64.118 129.882 64.0811C130.016 64.0442 130.225 64.0073 130.321 63.9889C130.416 63.9705 130.53 63.952 130.74 63.8967C130.931 63.8414 131.102 63.8414 131.236 63.8045C131.369 63.7677 131.369 63.7492 131.522 63.7124C131.693 63.6755 131.922 63.6571 131.846 63.6939C131.789 63.7308 131.693 63.7492 131.579 63.7861C131.445 63.823 131.274 63.9152 131.179 63.9152C131.102 63.9152 130.893 63.9152 130.835 63.952C130.778 63.9889 130.626 64.0258 130.53 64.0442C130.435 64.0627 130.378 64.0627 130.225 64.0995C130.073 64.1364 130.035 64.1364 129.959 64.1733C129.882 64.2102 129.863 64.2286 129.749 64.2286C129.635 64.247 129.577 64.247 129.463 64.247C129.368 64.2286 129.444 64.1548 129.444 64.1548Z" fill="#FFC327"/>
<path opacity="0.75" d="M146.809 50.0325C146.809 51.194 145.875 53.4248 145.017 54.4388C144.16 55.4528 141.815 57.2227 139.718 58.163C137.621 59.1033 130.988 61.371 126.432 61.7028C121.876 62.0347 118.254 61.666 114.708 60.3385C111.163 59.048 110.21 54.0332 110.114 54.3282C109.905 54.9366 110 57.3887 110.305 58.4211C110.61 59.4351 111.163 60.7994 112.23 61.795C113.317 62.7906 114.537 63.4174 114.918 63.5465C115.318 63.6755 116.367 64.0811 116.634 64.118C116.9 64.1549 117.377 64.3024 117.796 64.3577C118.235 64.4314 119.112 64.5789 119.684 64.6158C120.255 64.6527 121.247 64.7449 121.666 64.7449C122.085 64.7449 124.049 64.7817 124.239 64.7817C124.43 64.7817 124.335 64.6711 124.201 64.6711C124.068 64.6711 123.725 64.7449 123.286 64.708C122.848 64.6895 122.2 64.6895 121.971 64.6895C121.742 64.6895 120.637 64.5974 120.427 64.5789C120.217 64.5605 118.959 64.3946 118.635 64.3761C118.311 64.3577 117.32 64.1365 117.167 64.118C117.015 64.0996 116.862 63.9705 116.977 63.9152C117.091 63.8783 117.396 63.9152 117.625 64.0074C117.854 64.0996 118.502 64.2102 118.959 64.2655C119.417 64.3393 120.446 64.5052 121.056 64.4867C121.647 64.4683 123.248 64.5052 123.42 64.5052C123.61 64.5052 123.629 64.5236 123.763 64.5236C123.896 64.5236 123.973 64.5052 123.954 64.3761C123.934 64.2471 124.22 64.2655 124.468 64.2655C124.697 64.2655 124.449 64.3577 124.678 64.413C124.907 64.4867 125.04 64.3946 125.345 64.3761C125.65 64.3577 125.574 64.2839 125.669 64.2839C125.764 64.2839 125.745 64.1365 125.936 64.0996C126.146 64.0811 126.413 64.118 126.26 64.1365C126.108 64.1549 126.05 64.2655 126.298 64.2655C126.546 64.2655 126.527 64.2471 126.813 64.1918C127.08 64.1549 127.251 64.1549 127.442 64.0811C127.633 64.0074 127.671 64.0996 127.919 64.0996C128.166 64.0996 128.776 63.8968 129.043 63.8968C129.31 63.8968 129.31 63.8599 129.482 63.8046C129.634 63.7677 129.729 63.7677 129.901 63.7308C130.053 63.7124 130.111 63.7308 130.339 63.6571C130.568 63.5834 130.663 63.5096 131.026 63.4543C131.388 63.4174 131.026 63.4543 131.102 63.4543C131.178 63.4543 131.769 63.3068 131.922 63.2699C132.074 63.2515 132.227 63.2515 132.131 63.1777C132.036 63.104 132.169 63.0303 132.322 62.9934C132.455 62.9749 132.684 62.809 132.837 62.809C132.97 62.809 132.837 62.9381 132.589 63.0118C132.341 63.0856 132.322 63.1962 132.455 63.1409C132.589 63.104 132.798 63.0487 133.142 62.9381C133.485 62.8275 133.79 62.8275 133.904 62.7906C134.018 62.7537 133.98 62.68 133.98 62.5878C133.98 62.4956 134.171 62.5509 134.304 62.4772C134.438 62.4034 134.628 62.385 134.857 62.3297C135.086 62.2559 135.41 62.2006 135.219 62.2559C135.029 62.3297 135.143 62.4034 135.334 62.3665C135.524 62.3297 135.543 62.2559 135.658 62.2375C135.772 62.219 135.772 62.219 135.772 62.09C135.772 61.9609 135.963 62.0531 136.02 62.1269C136.096 62.219 136.249 62.0531 136.458 61.8688C136.649 61.6844 136.458 61.8688 136.573 61.8319C136.687 61.795 136.763 61.7581 136.954 61.7213C137.145 61.6844 137.145 61.7581 137.259 61.6844C137.373 61.6106 137.45 61.5 137.64 61.4631C137.831 61.4263 137.983 61.5 138.155 61.4263C138.307 61.3525 138.67 61.2419 139.203 60.8916C139.756 60.5598 142.863 59.0111 143.13 58.9005C143.397 58.7898 143.359 58.6055 143.435 58.4949C143.512 58.3842 143.778 58.4211 143.778 58.4211C143.778 58.4211 143.778 58.4211 144.045 58.1261C144.312 57.8311 144.16 57.868 144.274 57.6652C144.388 57.4808 144.465 57.739 144.655 57.5915C144.846 57.444 144.998 57.1306 145.437 56.5775C145.856 56.0059 146.142 55.1394 146.142 55.1394C147.476 51.6918 146.809 50.0325 146.809 50.0325ZM140.69 58.3658C140.176 58.6055 139.051 59.1217 138.822 59.2139C138.593 59.3061 138.365 59.2876 138.288 59.3614C138.212 59.4536 138.079 59.472 137.983 59.5089C137.888 59.5457 137.717 59.6011 137.545 59.6932C137.392 59.7854 136.344 60.1542 135.868 60.3201C135.391 60.4676 133.542 61.0022 133.103 61.1497C132.665 61.2788 131.464 61.5553 130.988 61.6106C130.511 61.6844 130.53 61.7581 130.339 61.8134C130.149 61.8503 130.32 61.9425 130.13 61.9425C129.939 61.9425 129.272 62.09 129.043 62.1269C128.814 62.1453 128.681 62.1269 128.509 62.1269C128.357 62.1269 128.09 62.1269 128.033 62.1453C127.957 62.1637 127.804 62.219 127.69 62.2375C127.575 62.2559 127.328 62.2559 126.756 62.3297C126.184 62.4034 125.421 62.3665 125.536 62.3481C125.536 62.3481 127.88 62.0347 128.147 62.0162C128.414 61.9978 131.655 61.2788 132.055 61.2419C132.436 61.205 135.829 60.2463 136.954 59.8223C138.079 59.3983 140.061 58.5317 140.747 58.1999C141.434 57.868 141.624 57.7574 141.624 57.7574C141.624 57.7574 141.186 58.1261 140.69 58.3658Z" fill="#FFC327"/>
<path opacity="0.75" d="M144.846 46.7138C143.435 45.4601 142.921 45.1098 142.73 44.9992C142.539 44.8886 141.605 44.3723 141.434 44.2802C141.281 44.188 140.481 43.7824 140.481 43.7824C140.481 43.7824 138.765 43.1002 138.479 42.9896C138.212 42.879 136.02 42.16 134.4 41.9018C132.779 41.6437 131.712 41.4594 131.007 41.4594C130.301 41.4594 130.034 41.4041 129.672 41.4041C129.31 41.4041 124.754 41.7175 123.706 41.9018C122.657 42.0862 120.789 42.3996 120.37 42.4918C119.931 42.584 117.739 43.3583 117.358 43.5058C116.996 43.6533 115.204 44.8148 115.032 44.9254C114.842 45.0361 114.136 45.8104 113.965 46.0869C113.774 46.3451 113.565 46.8797 113.507 47.2116C113.45 47.5434 113.393 49.1659 113.507 49.6452C113.66 50.2167 113.565 50.5855 113.698 50.7698C113.812 50.9542 114.003 50.8805 114.136 51.0648C114.251 51.2492 114.384 51.3045 114.499 51.0648C114.613 50.8251 115.051 50.5302 115.051 50.2352C115.051 49.9402 115.109 49.0552 115.109 49.0552C115.109 49.0552 115.356 47.6909 116.024 47.3406C116.691 46.9903 121.533 45.6813 122.276 45.4417C123.02 45.202 127.423 44.5567 128.471 44.5567C130.187 44.5567 133.37 44.7964 136.325 45.497C137.983 45.9026 141.758 47.5803 142.73 48.2809C143.702 48.9999 145.094 50.3642 145.399 51.1939C145.704 52.0235 146.066 53.4431 145.952 54.4572C145.837 55.4712 145.952 55.7108 146.257 54.9918C146.562 54.2728 147 52.5582 147 51.5442C147 50.4933 146.257 47.949 144.846 46.7138ZM137.659 43.4689C137.107 43.2661 135.486 42.879 135.239 42.8237C134.991 42.7684 133.942 42.584 133.466 42.4918C132.97 42.3996 132.055 42.289 131.35 42.2521C130.644 42.2153 129.882 42.16 129.444 42.16C129.005 42.16 128.395 42.1046 128.224 42.1046C128.033 42.1046 128.471 42.0678 128.529 42.0493C128.7 41.9756 129.977 41.994 130.13 41.994C130.282 41.994 132.055 42.1784 132.284 42.1784C132.494 42.1784 134.705 42.5287 134.705 42.5287C135.2 42.5656 137.774 43.3583 138.041 43.4689C138.288 43.598 138.212 43.6902 137.659 43.4689ZM140.004 44.483C140.004 44.483 139.833 44.3539 139.718 44.2986C139.604 44.2248 139.432 44.1695 139.299 44.0958C139.165 44.022 138.975 43.893 138.975 43.893C139.07 43.9299 139.642 44.1327 139.775 44.2248C139.89 44.2986 140.195 44.5198 140.004 44.483Z" fill="#FFC327"/>
</g>
<g clip-path="url(#clip11_739_4898)">
<path d="M14.1524 351.708C14.67 351.838 15.0582 351.968 15.4464 352.099C15.9641 352.36 16.4817 352.62 16.8699 352.881C17.3875 353.272 17.9051 353.793 18.1639 354.315C18.1639 353.924 18.2933 353.663 18.4227 353.272C18.5521 352.49 18.9403 351.968 19.458 351.317L20.6226 350.274C21.1402 350.013 21.6578 349.752 22.0461 349.622L23.5989 349.231C24.2459 349.231 24.8929 349.231 25.54 349.231C25.9282 348.97 26.4458 348.71 26.9634 348.579C27.7398 348.319 28.5163 348.188 29.1633 347.928C29.6809 347.797 30.0691 347.667 30.5867 347.667C30.3279 345.842 31.1043 344.017 33.0454 342.713C34.0806 342.062 35.1159 341.54 36.4099 341.279C38.7392 338.933 42.7507 338.412 45.8564 340.106C47.1505 338.151 49.4798 336.456 52.1972 336.456C53.2325 336.326 54.3971 336.456 55.3029 336.847C56.3382 337.239 57.244 337.89 57.891 338.672C58.0204 338.672 58.1498 338.542 58.2792 338.542C57.891 333.328 61.7732 328.374 67.9846 327.723C72.9019 327.201 78.2075 328.505 81.4426 331.633C81.4426 331.503 81.4426 331.503 81.4426 331.373C81.1838 330.721 81.0544 330.069 81.1838 329.287C81.1838 325.898 83.7719 322.509 86.6188 320.553C89.9833 318.337 94.5124 317.555 98.6534 318.337C97.8769 315.86 98.9122 313.253 100.983 311.559C103.312 309.603 107.712 308.3 111.335 308.691C113.535 305.302 119.358 304.389 123.499 305.954C126.605 307.127 129.193 310.386 129.452 313.644C131.651 312.471 134.757 312.732 136.957 314.427C140.451 316.903 141.227 321.726 139.545 325.376H139.675C140.322 325.376 140.969 325.376 141.616 325.376C143.298 322.509 148.862 321.987 151.709 323.682C155.591 325.898 155.979 330.33 154.297 333.849C157.403 334.892 159.991 337.239 160.509 340.237C160.767 341.41 160.509 342.713 159.862 343.887C160.897 344.278 161.803 344.929 162.45 345.712C162.708 345.972 162.838 346.233 162.967 346.624C163.226 346.624 163.614 346.494 164.003 346.494C165.297 346.494 166.461 346.754 167.367 347.406C168.402 346.363 170.085 345.712 171.637 345.972C173.449 346.233 175.131 347.276 176.037 348.71C176.684 349.752 177.202 351.056 176.943 352.099C177.072 352.229 177.331 352.229 177.461 352.36L177.59 352.229C178.496 351.708 179.531 351.577 180.437 351.838C180.696 351.968 181.084 352.099 181.343 352.229C181.472 352.36 181.731 352.49 181.86 352.751C181.99 352.751 181.99 352.881 181.99 352.881C182.119 352.881 182.249 353.011 182.378 353.142C182.249 352.36 189.754 355.097 190.142 354.445C190.013 353.402 186.907 352.099 185.225 353.011C184.448 351.317 180.696 350.144 178.366 351.056C178.366 350.926 178.366 350.535 178.496 350.404C178.496 349.492 178.366 348.71 177.849 347.928C177.59 347.145 177.072 346.494 176.425 345.842C175.131 344.669 173.19 344.017 171.379 344.017C169.955 344.017 168.661 344.408 167.496 345.06C166.202 342.713 163.873 341.149 161.285 340.367C162.061 339.455 162.579 338.412 162.967 337.239C164.65 331.894 160.638 326.941 155.074 325.376C154.685 325.246 154.297 325.246 153.909 325.116C154.427 324.333 154.556 323.421 154.685 322.378C154.685 321.596 154.556 320.814 154.168 320.162C153.909 319.51 153.521 318.859 152.874 318.337C151.709 317.294 150.027 316.643 148.474 316.643C146.792 316.643 145.239 317.294 144.074 318.337C143.815 318.598 143.557 318.728 143.427 318.989C142.78 317.816 142.133 316.773 141.227 315.86C141.874 314.948 142.392 313.905 142.521 312.732C143.039 308.43 139.157 304.259 134.24 304.52C133.075 304.52 132.04 304.911 131.134 305.302C130.616 302.043 125.052 299.957 118.193 301.522C110.429 298.784 96.4535 304.78 95.9359 316.382C95.1595 316.252 88.948 315.469 86.4894 318.337C82.4778 315.339 77.1723 318.076 77.0429 322.248C74.843 320.944 72.1255 320.162 69.408 320.553C64.7495 321.205 61.9026 324.203 60.0909 327.983C59.8321 328.505 59.7027 328.896 59.4439 329.417C58.6675 329.678 57.891 329.939 57.244 330.46C53.4913 328.505 48.3151 327.853 45.2094 329.287C41.8449 330.851 39.645 333.849 38.8686 337.108C38.351 337.369 37.704 337.63 37.1863 338.021C35.1159 337.499 32.7866 337.369 30.4573 337.89C26.3164 338.803 23.8577 341.671 23.0813 345.06C21.9166 344.799 20.6226 345.19 19.5874 345.712C18.5521 346.233 17.9051 347.015 17.5169 347.928C17.1287 348.449 16.9993 349.101 17.1287 349.752C17.1287 349.883 17.1287 350.013 17.1287 350.144C15.9641 349.231 14.5406 349.231 13.5054 349.883C14.023 350.404 14.2818 351.056 14.1524 351.708Z" fill="white"/>
<path d="M-0.988768 357.183C-0.600555 357.313 -0.341747 357.443 -0.082938 357.704C0.17587 357.313 0.434679 357.052 0.822892 356.791C0.693487 356.661 0.693488 356.531 0.693488 356.4C0.693488 356.27 0.693488 356.009 0.693488 355.879C0.822892 354.836 1.72872 354.315 2.76396 354.315C3.54038 354.315 4.1874 354.836 4.3168 355.488C4.44621 355.488 4.57561 355.488 4.57561 355.488C4.1874 355.097 4.058 354.184 4.57561 353.793L4.70502 353.663C5.22264 353.142 5.86966 352.881 6.64608 353.142C6.64608 353.142 6.77549 353.142 6.90489 353.142C7.68132 351.317 9.49298 349.883 12.2105 349.883C12.5987 349.883 13.5045 350.404 14.0221 350.404C14.2809 349.231 12.4693 348.97 11.8223 349.101C9.49297 349.231 7.94012 350.013 6.51668 352.099C5.22263 351.968 3.79919 352.229 2.89336 353.402C2.76395 353.533 2.63455 353.663 2.63455 353.793C2.24634 353.793 1.72872 353.793 1.2111 353.793C0.564084 353.793 0.0464661 354.184 -0.341747 354.445C-0.600555 354.315 -0.859364 354.315 -0.988768 354.315C-1.37698 354.315 -1.63579 354.315 -1.8946 354.445C-2.54162 354.706 -2.92983 355.097 -3.18864 355.618C-3.70626 356.009 -3.83566 356.661 -3.70626 357.183C-3.70626 357.183 -3.57685 357.313 -3.44745 357.313C-3.31804 357.183 -3.18864 357.183 -3.05924 357.183C-2.41221 356.922 -1.63579 356.922 -0.988768 357.183Z" fill="white"/>
<path d="M195.447 356.531C195.317 355.879 194.929 355.488 194.411 355.227C194.282 355.097 194.153 354.967 193.894 354.836C193.635 354.706 193.376 354.706 192.988 354.706C192.47 355.358 192.082 356.01 191.823 356.792C190.659 355.879 188.588 355.227 187.682 355.227C186.259 355.097 185.094 355.488 183.8 356.01C183.671 356.14 183.412 356.14 183.283 356.27H183.153C182.377 355.749 181.471 356.01 181.6 357.183L181.471 357.052C180.565 356.531 179.659 356.27 178.624 356.27C177.718 356.14 176.554 356.531 175.777 357.183C175.518 356.661 175.26 356.14 174.742 355.749C173.966 354.967 172.672 354.445 171.507 354.445C170.342 354.445 169.048 354.836 168.272 355.619C168.013 355.879 167.754 356.27 167.495 356.531C166.331 354.576 164.39 353.142 161.802 353.272C158.955 353.272 156.367 354.967 155.073 357.183C154.943 357.313 154.943 357.443 154.943 357.574C153.649 355.749 151.449 354.576 148.991 354.185C146.403 353.794 143.685 354.445 141.744 356.01C140.45 357.052 139.674 358.617 139.544 360.181C139.156 359.79 138.897 359.529 138.638 359.138C139.674 356.661 139.803 353.924 138.25 351.447C137.862 350.795 137.474 350.274 136.956 349.883C139.156 350.535 141.744 350.665 143.944 350.013C148.732 348.579 151.19 344.408 150.026 339.846C149.896 339.194 149.508 338.542 149.12 338.151C149.12 338.021 149.249 337.89 149.249 337.76C149.379 337.63 149.379 337.499 149.508 337.369C150.026 336.587 150.414 335.674 150.414 334.762C150.543 332.546 148.732 330.851 146.791 329.678C145.497 328.896 143.426 328.766 142.132 329.548C141.615 329.939 141.097 330.33 140.579 330.721C139.544 329.808 138.25 329.157 136.827 328.896C134.756 328.375 132.944 328.766 131.392 329.678C131.65 328.505 131.78 327.332 131.521 326.159C131.133 324.073 129.451 322.248 127.38 321.075C123.498 318.989 117.675 318.989 114.828 322.639C114.181 323.551 113.793 324.594 113.793 325.637C112.11 325.898 110.428 326.419 108.875 327.201C107.581 327.723 106.417 328.505 105.381 329.157C102.923 328.244 100.205 327.983 97.8759 329.548C95.2879 331.373 95.0291 334.371 95.8055 336.978C92.8292 337.369 89.9823 339.324 88.3 341.54C85.8414 344.669 85.7119 348.84 88.3 351.969C88.8176 352.62 89.3353 353.142 89.9823 353.533C87.7824 353.142 85.4531 353.272 83.1239 354.054C80.5358 354.967 78.3359 356.531 76.9125 358.617C70.4423 349.622 53.4903 347.928 46.5025 357.704C45.3378 357.052 44.0438 356.661 42.6203 356.661C40.8087 356.661 38.997 357.313 37.703 358.486C37.5736 358.617 37.5736 358.617 37.4442 358.747C34.9855 357.183 31.7504 356.661 28.9035 357.965C28.1271 358.356 27.48 359.008 27.0918 359.659C26.3154 358.226 25.0214 356.922 23.2097 356.531C19.9746 355.619 17.1277 357.443 15.8337 360.051C15.0572 359.268 14.022 358.617 12.8574 358.356C11.0457 357.835 9.10465 358.095 7.42239 358.877C7.03418 359.138 6.51656 359.399 6.12835 359.79C6.12835 359.659 5.99895 359.529 5.99895 359.399C5.99895 358.356 4.31669 357.965 4.05788 359.399C4.18729 358.356 4.05788 357.704 3.15205 357.183C2.37563 356.792 1.5992 356.531 0.693374 356.401C0.693374 356.531 0.822778 356.661 0.822778 356.792C0.434565 357.052 0.175757 357.313 -0.0830517 357.704C-0.34186 357.443 -0.600669 357.313 -0.988881 357.183C-1.6359 356.922 -2.54173 356.922 -3.18875 357.183C-3.31816 357.183 -3.44756 357.313 -3.57697 357.313C-4.22399 357.704 -4.4828 358.356 -4.35339 359.008C-4.22399 359.79 -3.44756 360.442 -2.54173 360.572C-2.28292 360.572 -2.02412 360.572 -1.76531 360.572C-1.6359 360.572 -1.37709 360.572 -1.24769 360.572C-1.11829 360.572 -0.988881 360.572 -0.988881 360.442C-0.600669 360.442 -0.0830517 360.181 0.175757 359.92C0.175757 359.92 0.305161 359.92 0.305161 360.051C1.08159 360.442 1.98742 360.702 2.89325 360.702C2.76384 361.224 2.89325 361.875 3.15205 362.267C3.28146 362.397 3.41086 362.527 3.54027 362.658C3.79908 362.918 4.18729 363.179 4.5755 363.179C5.22252 363.57 5.74014 363.57 6.25775 363.309C6.64597 363.049 6.77537 362.658 6.77537 362.267C6.77537 362.136 7.16358 362.136 7.29299 362.006C7.29299 361.875 7.16358 361.615 6.90478 361.615C7.03418 361.615 7.03418 361.615 7.16358 361.615C7.16358 361.615 7.16358 361.615 7.29299 361.615C7.5518 361.875 7.81061 362.136 8.06941 362.397C9.36346 363.57 11.1751 364.222 12.9868 364.222C14.9278 364.222 16.6101 363.44 17.9041 362.397C18.6806 361.745 19.1982 360.833 19.5864 359.92C20.104 361.484 21.3981 362.788 23.7273 362.788C25.0214 362.788 25.9272 362.397 26.7036 361.875C28.2565 363.179 30.3269 363.831 32.6562 363.44C33.1738 363.57 33.6914 363.7 34.3385 363.7C35.2443 364.613 36.9266 365.004 38.6088 364.874C39.1264 364.743 40.2911 364.352 40.6793 363.961C40.8087 364.352 41.8439 364.613 42.2321 364.613C42.7497 364.743 43.2674 364.613 43.785 364.743C44.0438 365.395 44.5614 366.047 45.079 366.438C46.1143 367.35 47.6671 368.002 49.0906 368.002C50.6434 368.002 52.0669 367.35 53.1021 366.438C53.3609 366.177 53.6197 365.916 53.8785 365.656C55.302 365.656 56.7254 365.656 58.1488 365.525C61.1251 367.481 64.1014 367.872 67.466 368.002C67.7248 368.393 68.113 368.915 68.5012 369.306C69.407 370.088 70.5717 370.74 71.8657 371C73.1597 371.261 74.5832 371.261 75.8772 371C77.1713 370.74 77.9477 370.218 78.8535 369.566C79.2417 369.306 79.5005 369.175 79.7594 368.915C79.8888 368.784 80.0182 368.524 80.277 368.393C80.924 368.393 81.7004 368.393 82.3474 368.393C85.4531 368.393 87.653 367.22 88.8176 365.395C88.9471 365.525 88.9471 365.786 89.0765 365.916C89.9823 367.35 91.5351 368.393 93.3468 368.915C93.4762 368.915 93.6056 368.915 93.6056 369.045C94.2526 369.175 94.8997 369.175 95.4173 369.306H95.5467C95.9349 369.306 96.3231 369.175 96.7113 369.175C96.9701 369.175 97.4877 369.175 97.8759 369.045C98.3936 368.915 99.9464 368.263 99.6876 368.393C100.076 368.132 100.852 367.741 101.24 367.35C101.37 367.22 101.499 367.09 101.629 366.959C101.887 367.09 102.146 367.09 102.276 367.22C102.923 367.35 103.57 367.35 104.217 367.481C105.252 367.481 106.158 367.35 107.064 366.959C107.711 366.829 108.228 366.568 108.746 366.047C109.522 365.525 110.169 364.874 110.687 364.092C110.816 363.7 111.075 363.309 111.205 362.918C112.11 362.788 112.887 362.788 113.793 362.918C116.64 363.179 119.357 364.483 122.204 364.483C126.086 364.613 130.098 363.179 132.039 360.311C132.297 360.311 132.686 360.311 132.944 360.311C133.074 360.572 133.333 360.833 133.462 361.093C134.627 362.527 136.18 363.57 137.991 364.352C139.285 364.874 140.579 365.134 142.003 365.265C142.003 365.395 142.132 365.395 142.132 365.525C142.391 366.177 142.779 366.829 143.426 367.35C144.591 368.393 146.273 369.045 147.955 369.045C149.638 369.045 151.19 368.393 152.485 367.35C153.39 366.568 153.908 365.525 154.167 364.483C156.367 364.222 158.437 363.7 159.99 362.527C160.896 363.049 162.06 363.44 163.225 363.44C164.778 363.44 166.201 362.788 167.237 361.875C167.884 361.354 168.401 360.572 168.66 359.79C173.189 360.051 177.848 359.92 182.377 359.399C183.671 359.268 184.577 358.747 185.224 358.095C185.483 358.226 185.741 358.356 186 358.486C187.165 358.877 188.2 358.617 189.106 358.095C189.365 358.095 189.624 358.095 189.882 358.095C190.141 358.095 190.271 357.965 190.529 357.835C190.529 358.226 190.788 358.486 191.047 358.747C192.082 359.268 193.117 359.659 194.282 359.268C195.059 358.486 195.576 357.443 195.447 356.531Z" fill="#D9E9F1"/>
<path d="M193.118 354.576C192.988 354.576 192.988 354.576 192.859 354.576C192.341 354.576 191.953 354.836 191.565 355.097C191.306 355.227 191.047 355.488 190.788 355.749C190.659 355.618 190.659 355.358 190.53 355.227C190.53 355.097 190.53 355.097 190.53 354.967C190.659 354.054 189.753 353.272 188.847 353.533C188.718 353.533 188.459 353.533 188.33 353.663C187.553 353.142 186.518 353.272 185.612 353.402C185.095 352.49 182.636 352.36 182.765 353.142C182.636 353.011 182.506 353.011 182.377 352.881L182.248 352.751C182.118 352.62 181.859 352.36 181.73 352.229C181.471 352.099 181.212 351.968 180.824 351.838C179.789 351.577 178.754 351.708 177.977 352.229L177.848 352.36C177.718 352.229 177.589 352.229 177.33 352.099C177.46 350.926 177.071 349.752 176.424 348.71C175.519 347.276 173.966 346.233 172.025 345.972C170.472 345.842 168.79 346.363 167.754 347.406C166.849 346.885 165.684 346.494 164.39 346.494C164.002 346.494 163.743 346.494 163.355 346.624C163.225 346.363 162.966 345.972 162.837 345.711C162.19 344.799 161.284 344.278 160.249 343.887C160.767 342.713 161.025 341.41 160.896 340.237C160.378 337.238 157.79 334.892 154.685 333.849C156.496 330.33 155.979 325.898 152.096 323.682C149.25 321.987 143.685 322.508 142.003 325.376C141.356 325.376 140.709 325.246 140.062 325.376H139.932C141.615 321.726 140.838 316.903 137.344 314.427C135.015 312.862 132.039 312.602 129.839 313.644C129.58 310.516 126.992 307.257 123.886 305.954C119.745 304.259 114.052 305.302 111.722 308.691C108.099 308.17 103.699 309.473 101.37 311.559C99.2995 313.253 98.2643 315.86 99.0407 318.337C95.0292 317.555 90.3706 318.337 87.0061 320.553C84.0298 322.508 81.5711 325.898 81.5711 329.287C81.5711 330.069 81.7005 330.721 81.8299 331.373C81.7005 331.373 81.8299 331.373 81.7005 331.503C78.4654 328.505 73.2893 327.201 68.3719 327.723C62.0311 328.374 58.2784 333.198 58.6666 338.542C58.4078 338.672 58.4078 338.542 58.2784 338.672C57.6313 337.89 56.7255 337.238 55.6903 336.847C54.6551 336.456 53.6198 336.326 52.5846 336.456C50.5141 336.456 48.5731 337.499 47.279 338.933C46.3732 337.76 44.8203 337.238 43.1381 337.499C41.5852 337.63 39.6442 338.151 38.9971 339.585C35.2444 338.803 30.5859 341.931 31.1035 345.581C30.0682 345.581 29.1624 345.711 28.2566 346.233C27.3508 346.754 26.3155 347.797 26.1861 348.84C24.7627 348.188 22.951 348.319 21.5276 348.84C19.1983 349.752 18.0337 351.968 18.2925 354.184C17.9042 353.793 17.516 353.272 17.1278 353.011C16.6102 352.751 16.222 352.36 15.7044 352.229C15.3162 352.099 14.7985 351.968 14.4103 351.838C14.4103 351.317 14.2809 350.926 14.0221 350.535C13.8927 350.274 13.1163 350.013 12.8575 350.013C12.5987 350.013 12.5987 350.013 12.3399 349.883C9.62238 349.883 7.94012 351.447 7.1637 353.272C6.77548 353.142 6.64608 353.142 6.64608 353.142C5.86965 353.011 5.22263 353.272 4.70502 353.793L4.57561 353.924C4.1874 354.315 4.1874 355.227 4.57561 355.618C4.44621 355.618 4.3168 355.618 4.3168 355.618C4.05799 354.967 3.41097 354.445 2.76395 354.445C1.72872 354.445 0.822888 354.967 0.693484 356.009C0.693484 356.14 0.56408 356.531 0.822888 356.922C1.72872 356.661 2.37574 356.792 3.15216 357.183C4.05799 357.704 4.1874 358.486 4.70502 359.268C4.96382 358.356 6.51667 358.617 6.64608 359.138C6.64608 359.268 6.77548 359.399 6.77548 359.529C7.1637 359.138 7.55191 358.877 8.06953 358.617C9.62238 357.704 11.6928 357.574 13.5045 358.095C14.6691 358.356 15.7044 359.008 16.4808 359.79C17.7748 357.313 20.6217 355.488 23.8568 356.27C25.6685 356.792 26.9625 357.965 27.739 359.399C28.1272 358.747 28.7742 358.095 29.5506 357.704C32.3975 356.27 35.762 356.792 38.0913 358.486C38.2207 358.356 38.2207 358.356 38.3501 358.225C39.6442 357.052 41.4558 356.4 43.2675 356.4C44.6909 356.4 45.985 356.792 47.1496 357.443C54.1374 347.667 71.0894 349.361 77.5596 358.356C78.8536 356.27 81.1829 354.706 83.771 353.793C86.1003 353.011 88.4296 352.881 90.6294 353.272C89.9824 352.881 89.4648 352.229 88.9472 351.708C86.3591 348.579 86.4885 344.408 88.9472 341.279C90.6294 339.063 93.4763 337.238 96.4526 336.717C95.6762 334.11 95.935 330.981 98.5231 329.287C100.852 327.723 103.57 327.983 106.029 328.896C107.064 328.114 108.228 327.462 109.522 326.941C111.075 326.158 112.758 325.767 114.44 325.376C114.44 324.333 114.828 323.291 115.475 322.378C118.193 318.728 124.145 318.728 128.027 320.814C129.968 321.857 131.651 323.682 132.168 325.898C132.427 327.071 132.298 328.244 132.039 329.417C133.592 328.505 135.403 328.114 137.474 328.635C138.897 328.896 140.191 329.678 141.226 330.46C141.744 330.069 142.262 329.678 142.779 329.287C144.073 328.505 146.144 328.635 147.438 329.417C149.379 330.46 151.191 332.285 151.061 334.501C151.061 335.414 150.673 336.326 150.155 337.108C150.026 337.238 150.026 337.369 149.897 337.499C149.897 337.63 149.767 337.76 149.767 337.89C150.155 338.281 150.544 338.933 150.673 339.585C151.838 344.017 149.508 348.188 144.591 349.752C142.391 350.404 139.803 350.404 137.603 349.622C138.121 350.144 138.509 350.665 138.897 351.186C140.45 353.663 140.321 356.4 139.285 358.877C139.544 359.268 139.803 359.659 140.191 359.92C140.45 358.356 141.097 356.922 142.391 355.749C144.332 354.054 147.05 353.533 149.638 353.924C152.096 354.315 154.167 355.358 155.59 357.313C155.59 357.183 155.72 357.052 155.72 356.922C157.014 354.706 159.602 353.011 162.449 353.011C165.037 353.011 166.978 354.445 168.143 356.27C168.401 355.879 168.66 355.618 168.919 355.358C169.825 354.576 170.989 354.184 172.154 354.184C173.319 354.184 174.613 354.706 175.389 355.488C175.907 355.879 176.166 356.4 176.424 356.922C177.201 356.4 178.365 356.009 179.271 356.009C180.307 356.14 181.212 356.27 182.118 356.792L182.248 356.922C182.248 356.4 182.895 355.618 183.93 356.009C184.059 355.879 184.318 355.749 184.447 355.879C186.259 357.443 188.459 355.879 188.2 354.967C189.882 355.097 190.659 357.183 192.341 356.531C194.153 357.183 194.8 354.836 193.118 354.576Z" fill="#ECF4F8"/>
<path d="M196.871 356.009C196.612 355.618 196.094 355.358 195.577 355.358C195.318 354.967 194.93 354.706 194.541 354.706C194.283 354.706 194.024 354.706 193.894 354.836C193.894 354.836 193.765 354.706 193.636 354.576C193.377 354.445 193.247 354.315 192.988 354.184C192.212 353.924 191.824 354.445 191.177 354.445C190.4 354.445 190.659 354.315 190.271 353.663C190.142 353.533 190.012 353.272 189.883 353.142C188.718 351.968 186.777 351.968 185.612 352.881C185.224 353.142 185.612 353.533 186.001 353.402C186.259 353.272 186.518 353.142 186.777 353.142C186.648 353.142 186.518 353.272 186.389 353.272C186.13 353.402 186.389 353.663 186.648 353.663C187.165 353.533 187.683 353.533 188.201 353.793C188.589 354.054 188.718 354.315 188.977 354.706C189.106 354.967 189.624 354.967 189.624 354.576C189.624 354.445 189.624 354.315 189.495 354.184C189.624 354.576 189.753 354.967 190.012 355.227C190.271 355.618 190.4 355.618 190.789 355.618C190.918 355.618 191.177 355.618 191.306 355.488C191.824 355.227 192.471 355.227 193.118 355.488C193.118 355.488 193.247 355.488 193.247 355.618C193.118 355.618 192.988 355.749 192.859 355.879C192.471 356.27 193.118 356.792 193.506 356.4C193.636 356.27 194.024 356.14 194.283 356.27C194.283 356.4 194.412 356.531 194.412 356.531C194.541 356.661 194.671 356.661 194.671 356.792C194.671 357.052 194.541 357.313 194.153 357.704C193.765 358.095 194.412 358.616 194.93 358.356C195.318 358.095 195.577 357.704 195.706 357.313C195.965 357.052 196.482 357.183 196.741 356.792C197 356.531 197 356.27 196.871 356.009Z" fill="white"/>
<path d="M18.4227 349.752C17.9051 349.101 16.6111 348.97 15.8347 349.101C15.0582 349.231 14.4112 349.622 13.8936 350.274C11.1761 348.579 7.29398 349.622 6.77637 353.011C6.77637 353.272 7.29398 353.533 7.42339 353.142C8.45862 350.534 11.9525 349.622 14.023 351.838C14.5406 352.359 15.5759 351.708 15.0582 351.186C14.9288 351.056 14.7994 350.926 14.67 350.795C15.1876 350.404 15.7053 350.274 16.3523 350.143C16.9993 350.143 17.5169 350.404 18.1639 350.534C18.2933 350.665 18.6816 350.013 18.4227 349.752Z" fill="white"/>
<path d="M156.238 328.374C156.109 327.853 155.979 327.201 155.72 326.68C155.591 326.158 155.591 325.637 155.203 325.246C155.073 325.116 154.944 324.855 154.685 324.725C154.168 323.942 153.521 322.769 152.485 323.03C152.227 323.03 152.227 323.291 152.356 323.421C152.227 323.421 152.227 323.551 152.227 323.682C152.227 323.682 152.227 323.812 152.356 323.812C152.227 323.942 152.227 324.203 152.485 324.203C152.615 324.203 152.744 324.334 152.744 324.334C153.909 325.898 154.944 327.201 155.073 329.157C155.203 331.373 154.426 333.328 153.262 335.153C153.003 335.544 153.779 335.805 154.038 335.414C155.332 333.328 155.979 330.851 155.72 328.635C156.109 328.766 156.238 328.635 156.238 328.374Z" fill="white"/>
<path d="M127.639 306.736C123.757 305.041 119.098 303.738 115.087 305.563C114.31 305.954 113.663 306.345 113.146 306.736C113.146 306.736 113.146 306.605 113.275 306.605C113.405 306.475 113.146 306.214 113.016 306.345C112.369 306.866 111.852 307.518 111.463 308.17C111.722 307.648 111.852 307.127 112.24 306.736C112.628 306.214 111.852 305.693 111.463 306.214C111.205 306.605 110.946 306.997 110.816 307.388C110.687 307.388 110.558 307.388 110.558 307.518C110.558 307.518 110.558 307.518 110.558 307.648C110.299 307.648 110.169 307.779 110.169 308.039C110.169 308.561 110.169 309.082 110.299 309.473C110.169 310.255 110.299 311.037 110.428 311.82C110.428 311.95 110.558 311.95 110.558 312.08C110.558 312.732 110.558 313.384 110.687 313.905C110.687 314.166 110.816 314.427 110.816 314.687C110.816 314.818 110.946 314.818 110.946 314.818C111.205 315.078 111.593 314.948 111.593 314.557C111.593 313.905 111.463 313.123 111.463 312.341C111.852 309.604 113.405 307.257 116.64 306.345C120.263 305.302 123.757 306.605 127.121 307.909C127.898 308.17 128.415 307.127 127.639 306.736Z" fill="white"/>
<path d="M189.236 354.967C189.366 353.533 186.001 352.229 185.613 353.924C185.613 354.054 185.742 354.185 185.872 354.185C186.001 354.315 186.13 354.315 186.13 354.185C186.389 353.924 187.036 353.924 187.424 354.054C187.554 354.054 187.683 354.185 187.813 354.315C187.813 354.445 187.813 354.576 187.942 354.706L188.071 354.836C188.071 354.836 188.071 354.836 188.071 354.967C188.071 355.097 188.201 355.097 188.201 355.097C188.201 355.358 187.683 355.227 187.813 354.967C187.813 354.706 187.424 354.576 187.295 354.836C187.036 355.618 187.942 356.27 188.718 355.749C188.848 355.618 188.977 355.488 189.107 355.227V355.097C189.107 355.227 189.236 355.227 189.366 355.227H189.495C189.366 355.358 189.495 355.618 189.624 355.618C189.754 355.749 189.883 355.749 190.013 355.618C190.142 356.009 190.66 355.879 190.66 355.488C190.789 354.836 189.754 354.315 189.236 354.967Z" fill="#ECF4F8"/>
<path d="M195.318 356.531C195.318 356.27 195.188 356.009 194.93 355.879C194.671 355.618 194.024 355.488 193.636 355.618C193.377 354.967 192.471 355.358 192.212 355.618C192.083 355.749 192.212 355.749 192.212 355.879C192.083 356.14 192.083 356.531 192.471 356.661H192.6C192.73 356.922 193.118 356.922 193.377 356.661C193.377 356.792 193.506 356.922 193.636 357.052C193.765 357.183 193.894 357.183 194.024 357.183C194.024 357.574 194.153 357.834 194.671 357.834C194.93 357.834 195.188 357.704 195.188 357.443C195.447 357.183 195.577 356.792 195.318 356.531Z" fill="#ECF4F8"/>
<path d="M155.332 334.11C155.073 333.849 154.555 333.849 154.426 334.11C154.167 334.371 154.038 334.762 153.779 335.023C153.52 335.414 153.261 335.674 152.873 335.935C152.614 336.196 153.002 336.587 153.261 336.456C153.649 336.326 154.038 335.935 154.426 335.674C154.555 335.544 154.685 335.283 154.814 335.153C154.814 335.023 154.943 335.023 154.943 334.892C155.461 334.892 155.59 334.501 155.332 334.11Z" fill="#ECF4F8"/>
<path d="M16.4821 351.447C15.5763 351.186 13.8941 351.317 13.7646 352.36C13.7646 352.62 14.0235 352.751 14.2823 352.49C14.5411 352.229 15.0587 352.099 15.4469 352.099C15.4469 352.099 15.4469 352.099 15.3175 352.229C15.3175 352.36 15.3175 352.49 15.3175 352.62C15.4469 352.751 15.4469 352.751 15.5763 352.751C16.3527 352.881 17.388 353.793 17.7762 354.445C18.035 354.836 18.8114 354.576 18.682 354.054C18.8114 352.881 17.9056 351.708 16.4821 351.447Z" fill="#ECF4F8"/>
<path d="M1.21221 355.749C0.694591 355.879 0.306378 356.14 -0.0818348 356.531C-1.76409 355.488 -6.68145 357.704 -3.70515 360.311C-3.18754 360.702 -2.54052 360.05 -3.05813 359.529C-4.9992 357.704 -0.85826 356.661 -0.470047 357.443C-0.340643 357.834 0.306378 357.834 0.435782 357.443C0.694591 356.922 1.0828 356.661 1.47102 356.27C1.60042 356.01 1.47102 355.618 1.21221 355.749Z" fill="#ECF4F8"/>
</g>
<g clip-path="url(#clip12_739_4898)">
<path d="M676.398 343.868C673.922 342.659 671.095 342.894 668.434 343.127C661.443 343.75 654.42 343.602 647.452 342.653C647.057 342.606 646.806 342.838 646.711 343.145C644.846 344.486 643.247 346.535 642.336 348.597C641.161 351.261 644.075 352.419 646.16 352.972C648.818 353.68 651.616 353.671 654.338 353.486C657.375 353.301 660.4 353.007 663.406 352.715C666.54 352.409 669.67 352.065 672.788 351.613C674.155 351.418 675.564 351.255 676.915 350.915C677.906 350.671 678.909 350.205 679.412 349.261C680.584 347.058 678.223 344.747 676.398 343.868Z" fill="#CD9975"/>
<path d="M647.421 342.546C645.857 342.967 644.545 344.447 643.553 345.651C643.015 346.285 642.556 346.965 642.119 347.68C641.762 348.275 641.193 348.969 641.442 349.678C641.501 349.874 641.701 349.999 641.89 350.032C641.929 350.046 642.55 350.122 642.584 350.1C643.51 348.812 645.009 346.701 645.45 346.188C646.347 345.125 647.519 344.196 648.295 343.054C648.455 342.833 647.654 342.482 647.421 342.546Z" fill="#815950"/>
<path d="M678.249 344.651C677.478 343.91 676.362 342.913 675.205 343.01C674.874 343.029 674.06 343.529 674.266 343.709C675.388 344.594 676.703 345.864 677.411 346.539C678.078 347.181 678.537 347.461 679.413 347.821C679.608 347.909 679.89 347.784 679.918 347.541C680.032 346.439 679.001 345.377 678.249 344.651Z" fill="#815950"/>
<path d="M635.234 309.271C635.195 307.965 634.882 306.063 634.013 304.798C633.194 302.364 629.8 300.744 627.518 300.085C625.2 299.43 622.79 299.431 620.634 300.345C620.277 300.46 619.94 300.591 619.658 300.716C617.104 301.878 615.179 304.149 614.162 306.74C613.961 307.243 613.815 307.74 613.672 308.274C611.5 314.339 616.139 321.924 623.189 322.457C627.548 322.803 631.867 320.237 633.751 316.327C634.804 314.212 635.323 311.642 635.234 309.271Z" fill="#F4C882"/>
<path d="M634.109 303.532C629.107 298.425 623.958 299.26 623.848 299.272C621.968 299.36 620.057 299.987 618.646 301.257C617.52 302.255 616.424 303.84 617.224 305.316C617.435 305.698 618.056 305.94 618.431 305.657C622.629 302.68 628.836 302.332 632.517 306.281C633.173 306.981 634.887 304.014 634.109 303.532Z" fill="#FDE5C7"/>
<path d="M631.254 310.267C630.486 308.104 627.627 307.271 625.478 307.279C623.089 307.297 620.375 308.995 619.469 311.259C618.794 312.961 619.327 315.004 620.954 315.776C625.634 318.576 628.131 312.916 629.106 316.384C629.333 317.226 630 317.223 630.268 316.49C630.893 314.683 631.295 312.865 631.501 310.958C631.541 310.658 631.438 310.412 631.254 310.267Z" fill="#D39C53"/>
<path d="M636.101 306.661C634.923 301.758 630.329 298.413 625.306 298.255C619.986 298.094 615.077 301.337 613.083 306.219C611.075 311.139 612.237 317.188 616.383 320.66C618.496 322.427 621.148 323.081 623.871 323.062C626.353 323.052 631.025 321.294 632.933 323.528C632.978 323.597 633.08 323.511 633.053 323.441C630.888 319.944 625.477 322.045 622.112 321.474C616.834 320.552 613.456 315.386 613.932 310.2C614.399 305.089 618.295 300.947 623.416 300.19C628.466 299.459 633.003 302.626 635.283 306.959C635.52 307.411 636.211 307.128 636.101 306.661Z" fill="#815950"/>
<path d="M626.704 306.51C624.745 306.238 622.762 306.725 621.222 307.992C619.953 309.043 618.728 310.957 619.221 312.653C619.281 312.849 619.545 312.893 619.654 312.714C620.408 311.538 620.831 310.382 621.925 309.425C623.325 308.229 625.15 307.815 626.937 308.2C630.474 308.972 632.579 312.273 632.976 315.716C632.993 315.861 633.211 315.818 633.232 315.686C633.814 311.411 631.227 307.15 626.704 306.51Z" fill="#815950"/>
<path d="M685.179 317.511C686.88 321.486 691.073 324.251 695.432 324.116C702.487 323.892 707.493 316.521 705.615 310.37C705.517 309.846 705.383 309.327 705.215 308.829C704.318 306.201 702.507 303.845 700.005 302.565C699.73 302.43 699.398 302.284 699.048 302.14C696.947 301.128 694.541 300.999 692.197 301.566C689.887 302.109 686.424 303.58 685.478 305.978C684.561 307.191 684.152 309.103 684.041 310.389C683.849 312.737 684.241 315.331 685.179 317.511Z" fill="#F4C882"/>
<path d="M685.443 304.708C690.68 299.821 695.79 300.892 695.902 300.897C697.776 301.069 699.639 301.795 700.996 303.115C702.064 304.173 703.085 305.79 702.232 307.235C701.998 307.613 701.372 307.815 701.005 307.525C696.951 304.357 690.761 303.725 686.898 307.512C686.197 308.183 684.66 305.149 685.443 304.708Z" fill="#FDE5C7"/>
<path d="M687.976 311.559C688.86 309.426 691.726 308.726 693.89 308.845C696.278 308.975 698.916 310.793 699.702 313.102C700.292 314.843 699.651 316.836 697.991 317.545C693.192 320.13 690.949 314.353 689.826 317.787C689.55 318.612 688.879 318.579 688.663 317.829C688.117 315.991 687.811 314.143 687.702 312.236C687.666 311.927 687.787 311.691 687.976 311.559Z" fill="#D39C53"/>
<path d="M683.309 307.742C684.715 302.91 689.467 299.758 694.482 299.843C699.81 299.911 704.549 303.387 706.309 308.352C708.075 313.372 706.634 319.352 702.324 322.637C700.126 324.312 697.444 324.843 694.721 324.697C692.24 324.559 687.657 322.596 685.644 324.748C685.595 324.809 685.493 324.729 685.542 324.668C687.875 321.279 693.169 323.621 696.567 323.191C701.882 322.504 705.492 317.491 705.265 312.312C705.044 307.188 701.357 302.87 696.275 301.888C691.272 300.934 686.572 303.895 684.093 308.113C683.842 308.511 683.176 308.2 683.309 307.742Z" fill="#815950"/>
<path d="M692.7 308.004C694.68 307.813 696.638 308.399 698.107 309.724C699.327 310.82 700.466 312.811 699.878 314.466C699.808 314.659 699.534 314.69 699.439 314.517C698.745 313.323 698.385 312.128 697.324 311.125C695.993 309.876 694.175 309.384 692.375 309.685C688.792 310.283 686.55 313.495 686 316.918C685.98 317.068 685.768 317 685.754 316.873C685.369 312.58 688.135 308.439 692.7 308.004Z" fill="#815950"/>
<path d="M691.997 321.966C691.397 318.215 690.217 314.586 688.685 311.108C687.15 307.612 685.25 303.679 682.458 301.011C682.438 300.995 682.417 300.979 682.399 300.981C681.316 299.464 680.08 298.074 678.713 296.995C677.417 295.724 675.921 294.642 674.415 293.801C671.421 292.116 667.009 290.669 663.323 291.335C663.788 291.023 664.266 290.672 664.726 290.324C666.192 289.213 668.761 287.698 668.681 285.566C668.62 283.912 666.972 283.124 665.526 283.771C664.416 284.269 663.536 285.312 662.646 286.116C661.826 286.875 660.907 287.59 660.154 288.452C661.179 286.894 661.42 284.485 661.507 282.833C661.629 280.678 660.282 279.615 658.101 280.144C655.811 280.703 656.443 283.288 656.824 284.979C657.19 286.543 657.235 288.051 656.824 289.631C656.774 289.84 656.687 290.053 656.601 290.266C655.443 291.156 654.197 291.761 652.673 292.048C650.808 292.43 648.911 292.538 647.094 293.173C643.851 294.304 641.059 296.454 638.775 298.988C635.046 303.129 631.224 308.554 629.9 314.262C629.137 316.325 628.67 318.539 628.356 320.476C627.774 323.94 627.152 328.183 628.663 331.478C628.737 331.636 628.859 331.733 629.014 331.789C629.175 331.899 629.378 331.894 629.555 331.818C629.715 331.763 629.872 331.671 629.965 331.513C630.072 331.316 630.176 331.101 630.265 330.906C630.046 332.703 631.396 335.242 632.094 336.472C632.42 337.043 633.225 336.95 633.499 336.439C634.508 337.946 635.645 339.292 637.208 340.459C638.244 341.243 639.389 341.849 640.578 342.358C641.24 342.632 641.851 342.783 642.437 342.882C643.303 343.317 644.204 343.582 645.058 343.594C645.504 343.598 645.807 343.009 645.456 342.699C644.5 341.813 643.187 341.355 642.084 340.634C640.78 339.769 639.609 338.778 638.567 337.625C636.339 335.188 634.843 332.186 634.227 328.935C633.506 325.105 634.032 321.15 635.046 317.415C635.501 315.738 636.05 314.069 636.815 312.504C637.041 312.053 637.287 311.619 637.554 311.2C638.828 309.558 639.967 307.858 641.59 306.507C643.299 305.092 645.294 304.068 647.478 303.557C649.989 302.99 652.783 303.11 655.079 304.377C657.14 305.523 657.8 307.385 659.201 309.087C659.438 309.374 660.017 309.251 660.085 308.874C660.093 308.781 660.102 308.706 660.11 308.613C660.214 308.546 660.317 308.479 660.402 308.413C661 307.975 661.486 307.365 662.062 306.893C663.024 306.08 664.114 305.401 665.277 304.879C667.495 303.866 670.023 303.444 672.426 303.868C674.64 304.258 676.751 305.362 678.378 306.928C679.421 307.933 680.025 309.155 680.735 310.328C680.947 310.876 681.211 311.399 681.4 311.913C682.129 313.73 682.858 315.547 683.461 317.396C683.978 318.98 684.407 320.61 684.708 322.254C685.042 324.025 685.031 325.853 685.347 327.626C685.11 330.865 684.339 333.981 682.414 336.732C680.25 339.824 676.868 342.319 673.206 343.351C672.56 343.537 672.813 344.449 673.45 344.338C676.687 343.798 679.837 342.991 682.516 340.984C683.692 340.091 684.893 338.937 685.723 337.623C685.945 338.096 686.736 338.207 687.011 337.696C687.388 336.951 688.465 335.036 689.051 333.215C689.238 333.544 689.472 333.812 689.798 333.904C690.686 334.207 691.213 333.316 691.524 332.634C692.93 329.408 692.528 325.283 691.997 321.966Z" fill="#CD9975"/>
<path d="M680.702 310.831C680.657 310.762 680.579 310.734 680.508 310.761C680.465 310.71 680.438 310.639 680.396 310.589C679.516 309.232 678.319 307.377 676.829 306.35C675.878 305.5 674.779 304.814 673.484 304.355C670.683 303.368 667.607 303.705 664.932 304.937C662.961 305.847 660.623 307.428 659.716 309.526C658.907 306.371 655.657 304.236 652.501 303.715C647.986 302.981 643.287 305.148 639.936 308.064C636.314 311.214 634.493 316.63 633.593 321.2C632.704 325.696 633.046 330.585 635.593 334.499C636.698 336.198 638.032 337.484 639.559 338.507C641.899 341.43 646.327 342.857 649.726 343.553C654.738 344.58 660.136 345.101 665.236 344.641C669.952 344.225 674.583 342.749 678.409 339.926C681.142 337.912 684.262 334.433 684.472 330.791C684.59 330.371 684.672 329.955 684.749 329.503C686.364 323.263 684.231 315.868 680.702 310.831Z" fill="#F4C882"/>
<path d="M677.446 331.288C677.394 333.565 675.49 335.372 673.204 335.322C670.918 335.272 669.105 333.378 669.158 331.101C669.21 328.825 671.114 327.018 673.4 327.067C675.688 327.135 677.499 329.012 677.446 331.288Z" fill="#FFA48F"/>
<path d="M665.383 332.442C665.356 332.371 665.279 332.343 665.21 332.388C664.312 333.119 664.014 334.39 663.243 335.255C662.194 336.446 660.77 337.275 659.19 337.402C657.446 337.548 656.056 336.749 654.994 335.414C654.689 335.024 652.853 332.763 653.077 332.294C653.091 332.256 653.068 332.222 653.032 332.226C651.742 332.615 652.789 334.616 653.168 335.329C654.118 337.139 655.679 338.62 657.743 338.991C659.674 339.34 661.699 338.737 663.16 337.424C664.335 336.365 665.981 334.089 665.383 332.442Z" fill="#815950"/>
<path d="M658.343 344.016C653.262 343.68 647.591 341.603 643.897 338.025C640.162 334.414 638.9 329.429 638.946 324.366C638.969 321.041 639.51 317.859 640.886 315.005C641.991 313.825 642.587 312.243 643.689 311.027C644.822 309.77 646.187 308.745 647.715 308.015C649.313 307.24 651.094 306.775 652.873 306.773C653.801 306.776 654.74 306.889 655.612 307.213C656.329 307.481 656.904 307.968 657.645 308.123C657.72 308.133 657.789 308.088 657.799 308.013C657.842 307.103 657.175 306.461 656.348 306.039C655.984 305.62 655.562 305.336 655.096 305.15C653.816 304.504 652.16 304.29 650.891 304.215C648.46 304.034 645.996 304.522 643.847 305.656C641.558 306.862 639.546 308.7 637.923 310.696C637.338 311.41 636.743 312.198 636.266 313.047C635.189 314.796 634.49 316.925 634.086 318.559C633.164 322.136 632.846 326.123 633.617 329.744C634.327 333.168 636.327 336.038 639.028 338.237C640.541 339.464 642.231 340.451 643.995 341.28C644.818 341.665 645.659 342.048 646.529 342.354C647.07 342.549 647.545 342.642 648.035 342.715C651.208 344.028 654.697 344.382 658.38 344.178C658.454 344.169 658.455 344.022 658.343 344.016Z" fill="#E5B46C"/>
<path d="M684.914 322.913C684.859 322.274 684.765 321.62 684.63 320.934C683.727 316.166 681.25 310.453 677.269 307.277C675.148 305.289 672.466 304.048 669.133 304.082C669.096 304.086 669.068 304.164 669.123 304.157C679.041 305.928 682.582 317.812 681.66 326.519C680.679 335.677 673.423 342.182 664.862 343.816C663.218 344.025 660.906 344.07 659.494 344.197C659.457 344.201 659.466 344.274 659.504 344.288C661.726 345.065 664.524 344.575 666.802 344.238C667.66 344.121 668.458 343.973 669.234 343.791C670.85 343.494 672.415 342.926 673.94 342.325C676.707 341.248 679.112 339.919 681.014 337.613C684.07 333.901 686.025 327.879 684.914 322.913Z" fill="#FDE5C7"/>
<path d="M665.516 323.475C665.194 322.94 664.642 322.487 664.082 322.293C662.732 321.84 661.41 322.435 660.141 322.84C658.73 323.299 657.811 322.888 656.54 322.315C655.953 322.051 655.369 321.804 654.718 321.787C653.138 321.748 650.855 324.135 652.719 325.987C652.866 326.136 653.538 325.209 653.529 324.97C653.53 324.822 657.525 326.354 659.803 326.331C660.636 326.327 661.443 326.086 662.198 325.722C662.251 325.698 662.303 325.673 662.354 325.63C663.09 325.582 663.812 325.573 664.546 325.506C664.601 325.666 664.64 325.846 664.68 326.026C664.796 326.548 665.159 326.801 665.489 326.45C666.323 325.486 666.246 324.184 665.516 323.475Z" fill="#E5B46C"/>
<path d="M664.523 325.472C663.843 324.72 662.577 324.516 661.68 324.933C661.54 325.005 661.076 325.317 660.746 325.669C660.331 325.772 659.903 325.914 659.476 325.908C659.087 325.916 658.701 325.776 658.33 325.615C658.134 325.361 657.822 325.231 657.349 324.824C656.631 324.224 655.612 323.751 654.69 324.116C653.643 324.514 653.235 325.798 653.408 326.812C653.516 327.427 653.896 327.992 654.367 328.38C654.571 328.541 654.995 328.677 655.144 328.365C655.331 327.9 654.697 326.423 656.024 326.03C656.365 325.935 656.726 326.17 657.05 326.409C657.197 326.558 657.358 326.669 657.537 326.778C657.558 326.794 657.576 326.792 657.596 326.808C658.134 327.133 658.768 327.318 659.423 327.372C660.189 327.431 661.319 327.098 661.775 326.399C661.847 326.372 661.918 326.345 661.989 326.319C662.186 326.259 662.937 326.505 662.947 326.909C662.94 327.335 662.924 327.355 662.724 327.71C662.413 328.226 662.341 328.567 662.427 329.148C662.441 329.275 662.578 329.333 662.688 329.32C663.09 329.274 663.346 329.244 663.664 328.949C664.015 328.613 664.304 328.229 664.534 327.815C664.881 327.129 665.117 326.123 664.523 325.472Z" fill="#FDE5C7"/>
<path d="M656.67 324.072C655.731 323.645 654.543 323.469 653.659 324.162C652.128 325.354 652.524 328.298 654.562 328.616C654.619 328.628 654.664 328.531 654.623 328.499C653.757 327.583 653.171 325.233 654.777 324.697C655.508 324.446 656.347 324.811 656.981 325.162C657.099 325.222 657.819 325.675 657.94 325.439C658.202 324.818 657.043 324.251 656.67 324.072Z" fill="#815950"/>
<path d="M664.647 324.609C663.958 324.098 663.095 324.013 662.297 324.327C661.658 324.567 660.675 325.049 660.481 325.773C660.445 325.944 660.578 326.131 660.757 326.074C661.709 325.816 662.467 324.99 663.553 325.252C665.039 325.597 664.155 327.73 663.594 328.496C663.562 328.537 663.625 328.603 663.678 328.579C664.484 328.172 665.09 327.806 665.433 326.918C665.73 326.127 665.295 325.088 664.647 324.609Z" fill="#815950"/>
<path d="M657.643 328.334C657.603 327.508 656.971 326.529 656.816 326.307C656.572 325.966 656.027 325.9 655.678 326.088C655.187 326.329 655.047 326.881 655.25 327.356C655.453 327.831 655.765 328.127 656.185 328.392C656.387 328.535 656.571 328.68 656.787 328.784C656.864 328.812 656.943 328.858 657.002 328.888C657.161 328.981 657.799 329.202 657.643 328.334Z" fill="#815950"/>
<path d="M663.106 326.836C662.889 326.399 662.35 326.222 661.911 326.439C661.473 326.655 661.219 327.183 661.005 327.577C660.805 327.932 660.542 328.387 660.591 328.806C660.618 329.043 660.854 329.163 661.064 329.213C661.481 329.294 662.124 328.924 662.449 328.684C662.996 328.288 663.444 327.517 663.106 326.836Z" fill="#815950"/>
<path d="M662.563 285.719C661.954 286.546 659.186 290.022 658.889 290.02C658.592 290.017 658.635 289.421 658.746 288.781C658.967 287.648 658.928 286.508 658.759 285.365C658.471 283.515 657.274 281.014 659.796 280.059C659.833 280.054 659.826 280 659.788 279.986C657.56 279.8 656.216 280.361 656.519 282.504C656.778 284.265 657.32 287.026 656.914 288.808C656.626 290.004 655.834 290.852 655.285 291.876C652.264 291.56 648.659 293.084 646.081 294.36C642.994 295.879 640.198 297.993 637.835 300.481C634.182 304.317 631.524 308.907 630.136 313.903C627.581 319.551 626.935 325.827 628.164 331.979C628.299 332.665 629.439 332.902 629.749 332.22C629.882 331.928 630.016 331.636 630.149 331.344C630.254 331.775 630.396 332.201 630.513 332.575C630.923 333.875 631.328 335.619 632.418 336.545C632.891 336.952 633.602 336.685 633.644 336.09C634.46 337.693 636.221 339.299 637.206 340.126C638.314 341.051 640.114 342.19 641.881 342.724C642.649 343.115 643.408 343.268 644.08 342.987C644.244 342.968 644.407 342.931 644.569 342.894C644.714 342.858 644.768 342.686 644.662 342.569C644.192 342.033 643.526 341.722 642.846 341.45C642.564 341.261 642.265 341.074 641.981 340.867C640.743 339.939 639.658 338.883 638.634 337.728C637.566 336.504 636.618 335.192 635.685 333.86C635.264 333.263 634.873 332.607 634.415 332.014C633.765 330.077 633.42 328.05 633.351 326.009C633.262 323.472 633.543 320.929 634.072 318.45C634.424 316.841 635.013 315.204 635.36 313.558C635.615 313.03 635.848 312.486 636.062 311.926C636.793 310.07 637.66 308.272 638.705 306.564C640.582 303.56 643.059 300.929 645.934 298.862C648.759 296.838 651.897 295.442 655.24 294.539C656.337 294.246 658.395 293.768 659.504 292.773C659.556 292.748 659.627 292.721 659.68 292.697C660.683 292.23 661.705 291.448 662.152 290.51C665.681 284.473 667.163 284.302 668.133 284.19C666.932 282.464 664.309 283.34 662.563 285.719Z" fill="#9F6944"/>
<path d="M648.988 298.177C648.383 298.229 647.831 298.588 647.354 298.957C646.929 299.283 646.43 299.783 646.516 300.364C646.531 300.492 646.671 300.586 646.781 300.573C647.263 300.573 647.642 300.16 647.996 299.861C648.402 299.519 648.887 299.223 649.229 298.814C649.407 298.591 649.356 298.153 648.988 298.177Z" fill="#9F6944"/>
<path d="M645.439 300.507C645.045 300.626 644.697 300.667 644.334 300.893C643.987 301.099 643.669 301.394 643.388 301.685C643.042 302.058 642.13 302.993 642.62 303.546C643.11 304.098 643.686 303.146 643.923 302.786C644.164 302.463 644.423 302.138 644.704 301.847C645.018 301.516 645.248 301.101 645.564 300.788C645.68 300.664 645.583 300.472 645.439 300.507Z" fill="#9F6944"/>
<path d="M649.055 300.218C648.519 300.391 648.054 300.537 647.635 300.918C647.3 301.233 646.78 301.865 647.114 302.344C647.467 302.838 648.032 302.109 648.22 301.81C648.503 301.371 648.816 300.874 649.225 300.568C649.414 300.435 649.25 300.14 649.055 300.218Z" fill="#9F6944"/>
<path d="M688.179 316.187C687.975 315.86 687.506 316.136 687.656 316.469C688.639 318.718 689.125 321.32 689.423 323.74C689.442 323.904 689.7 323.893 689.738 323.741C690.29 320.982 689.661 318.582 688.179 316.187Z" fill="#9F6944"/>
<path d="M687.675 320.805C687.564 320.485 687.113 320.593 687.153 320.939C687.448 323.175 686.853 325.403 686.758 327.629C686.761 327.813 687.017 327.95 687.147 327.787C688.819 325.73 688.524 323.18 687.675 320.805Z" fill="#9F6944"/>
<path d="M689.596 325.252C689.518 324.892 688.989 324.972 688.974 325.324C688.937 326.288 688.772 327.267 688.603 328.209C688.484 328.943 688.29 329.667 688.451 330.423C688.499 330.676 688.863 330.782 689.046 330.595C690.299 329.25 689.916 326.895 689.596 325.252Z" fill="#9F6944"/>
<path d="M667.961 284.468C667.411 284.199 666.856 284.374 666.926 284.975C666.945 285.139 666.033 288.161 663.431 290.344C667.978 289.431 670.1 285.495 667.961 284.468Z" fill="#CD9975"/>
<path d="M692.514 322.755C691.955 318.076 690.63 313.504 688.617 309.233C686.605 304.98 683.867 301.014 680.552 297.669C674.778 291.174 665.334 290.936 664.848 290.9C667.905 289.44 670.455 287.281 669.239 284.302C668.365 282.188 666.114 282.116 664.433 283.288C663.352 284.041 662.495 284.97 661.743 285.999C662.91 282.781 662.936 278.994 659.272 279.049C657.513 279.067 655.415 279.679 655.602 281.78C655.746 283.35 656.358 284.793 656.504 286.382C656.135 284.468 655.728 282.873 653.382 283.107C652.338 283.209 652.242 284.789 653.334 284.773C655.223 284.758 655.872 287.489 655.79 289.03C655.764 289.605 655.632 290.23 655.446 290.86C654.929 291.197 654.236 291.296 653.593 291.351L653.575 291.353C648.57 291.673 644.991 292.788 640.433 296.655C636.838 299.71 634.033 303.67 631.827 307.838C629.602 312.008 628.064 316.505 627.287 321.172C626.651 324.974 625.836 330.273 628.892 333.298C629.267 333.66 629.783 333.472 629.974 333.044C629.974 333.044 629.972 333.025 629.991 333.023C630.263 335.059 631.226 336.978 633.109 338.034C633.288 338.143 633.487 338.101 633.621 337.975C634.86 339.715 637.237 341.193 638.573 341.851C641.796 343.435 645.946 344.857 649.613 344.508C652.493 345.208 656.051 345.683 660.406 345.679C663.426 345.662 673.404 345.709 680.256 342.924C681.614 342.324 684.071 340.97 685.378 339.287C685.502 339.402 685.694 339.454 685.887 339.358C687.815 338.397 688.877 336.52 689.237 334.504L689.239 334.522C689.402 334.965 689.927 335.181 690.312 334.823C693.515 331.905 692.956 326.58 692.514 322.755ZM660.013 343.878C646.521 343.739 640.676 338.231 638.212 335.839C635.624 333.332 634.322 330.086 634.12 326.566C633.776 320.219 635.823 312.747 640.649 308.314C643.314 305.865 646.954 304.319 650.604 304.469C652.449 304.551 654.289 305.077 655.816 306.101C657.345 307.142 658.256 308.606 659.209 310.12C659.222 310.229 659.291 310.35 659.389 310.394C659.524 310.6 659.736 310.834 659.858 310.285C660.529 308.712 662.921 306.627 665.253 305.638C668.063 304.446 671.571 304.004 674.366 305.416C679.268 307.895 681.851 313.411 683.38 318.458C684.992 323.753 684.881 330.171 682.104 335.014C679.032 339.873 673.503 344 660.013 343.878ZM689.889 333.247C689.713 333.009 689.517 332.755 689.357 332.497C689.135 332.172 688.57 332.255 688.565 332.699C688.553 334.841 687.535 336.454 686.141 337.87C686.306 337.371 686.338 336.851 686.184 336.315C686.178 336.26 686.123 336.266 686.088 336.289C684.977 337.1 684.385 338.553 683.307 339.489C681.923 340.665 680.323 341.421 678.618 342.061C676.628 342.808 674.542 343.529 672.436 344.068C676.557 342.835 679.762 340.896 681.767 338.357C684.952 334.316 686.581 330.122 686.327 325.039C686.084 320.047 684.305 314.752 681.491 310.61C678.924 306.846 675.357 302.92 670.509 303C666.791 303.061 661.456 304.858 659.695 308.55C659.032 306.338 656.68 304.598 654.619 303.765C651.528 302.517 647.997 302.758 644.927 303.944C637.922 306.691 634.228 313.707 633.174 320.787C632.633 324.449 632.35 328.579 633.629 332.105C634.926 335.628 637.819 338.69 640.873 340.737C641.817 341.366 642.991 342.061 644.437 342.706C643.005 342.188 641.606 341.63 640.242 341.049C638.584 340.337 637.007 339.522 635.676 338.273C634.637 337.304 634.113 335.814 633.05 334.958C633.009 334.926 632.973 334.931 632.961 334.987C632.78 335.507 632.784 336.023 632.918 336.543C631.597 335.053 630.647 333.409 630.734 331.276C630.757 330.831 630.189 330.73 629.967 331.051C629.791 331.293 629.596 331.537 629.4 331.762C627.29 328.259 628.174 323.395 628.977 319.592C629.853 315.467 631.357 311.473 633.417 307.802C635.43 304.21 637.957 300.891 640.945 298.036C646.322 293.391 650.85 292.794 653.279 292.643C653.869 292.611 655.301 292.335 655.37 292.29C658.493 290.767 657.771 285.793 657.105 283.083C656.903 282.294 656.77 282.106 657.155 281.268C657.557 280.41 657.815 280.398 658.699 280.351C659.73 280.288 660.6 280.279 660.975 281.602C661.134 282.174 661.054 282.922 661.009 283.499C660.819 285.865 659.755 287.723 658.909 289.87C658.836 290.044 659.068 290.128 659.188 290.04C660.204 289.849 663.065 286.049 663.818 285.353C664.27 284.931 664.762 284.376 665.333 284.181C666.314 283.846 667.804 283.914 668.059 285.158C668.55 287.482 665.668 288.849 664.076 289.827C662.223 290.963 660.449 292.294 658.38 292.995C658.344 292.999 658.352 293.072 658.389 293.068C659.364 292.844 660.841 292.471 662.406 291.902C665.367 291.856 671.62 293.514 673.84 294.605C675.943 295.636 678.347 297.352 679.949 299.031C682.798 302.024 685.157 305.443 686.991 309.126C688.873 312.895 690.176 316.953 690.859 321.101C691.506 324.939 692.165 329.847 689.889 333.247Z" fill="#815950"/>
<path d="M631.85 315.901C631.842 315.828 631.778 315.762 631.709 315.806C631.125 316.206 630.874 316.918 630.614 317.557C630.298 318.351 629.942 319.278 630.022 320.136C630.05 320.373 630.343 320.505 630.501 320.265C630.927 319.625 631.074 318.815 631.305 318.087C631.541 317.395 631.918 316.65 631.85 315.901Z" fill="#805335"/>
<path d="M632.434 317.587C631.517 319.76 631.186 321.866 631.711 324.168C631.746 324.311 631.99 324.339 632.026 324.168C632.406 322.002 632.563 319.824 632.772 317.622C632.787 317.436 632.508 317.431 632.434 317.587Z" fill="#805335"/>
<path d="M630.602 322.432C630.664 322.166 630.28 322.044 630.199 322.312C629.844 323.405 629.506 324.496 629.436 325.649C629.381 326.781 629.638 327.563 630.055 328.604C630.108 328.746 630.322 328.666 630.325 328.536C630.325 327.576 630.421 326.642 630.401 325.666C630.369 324.581 630.393 323.508 630.602 322.432Z" fill="#805335"/>
<path d="M648.576 330.563C648.524 332.839 646.62 334.646 644.334 334.596C642.048 334.547 640.235 332.652 640.288 330.376C640.34 328.099 642.244 326.292 644.53 326.342C646.818 326.41 648.629 328.286 648.576 330.563Z" fill="#FFA48F"/>
<path d="M650.64 322.277C650.481 321.538 650.25 320.826 649.843 320.191C648.963 318.834 647.704 318.038 646.16 317.995C644.525 317.962 642.847 318.839 641.994 320.285C641.544 321.038 640.316 323.727 641.676 324.106C641.828 324.143 642.033 323.991 642.035 323.843C642.04 323.731 642.214 323.471 642.244 323.412C643.041 322.121 643.555 320.64 645.184 320.138C645.972 319.899 646.336 319.839 647.525 320.348C648.733 320.854 649.302 323.852 650.088 324.241C650.207 324.302 650.353 324.285 650.454 324.199C650.993 323.731 650.769 322.908 650.64 322.277Z" fill="#D89E50"/>
<path d="M676.427 320.534C675.464 319.261 674.018 318.616 672.428 318.652C670.986 318.69 669.553 319.28 668.497 320.251C667.624 321.034 666.493 322.476 667.045 323.722C667.121 323.898 667.346 323.927 667.478 323.783C667.79 323.433 668.02 323.019 668.252 322.623C668.763 322.066 669.309 321.504 669.932 321.118C670.849 320.551 671.943 320.554 672.973 320.804C673.832 321.019 674.661 321.458 675.255 322.109C675.978 322.912 676.057 323.752 676.303 324.757C676.346 324.974 676.55 325.135 676.756 325.148C676.939 325.293 677.23 325.241 677.333 325.007C677.884 323.522 677.367 321.773 676.427 320.534Z" fill="#D89E50"/>
<path d="M650.21 322.252C649.956 321.654 649.649 321.08 649.222 320.594C648.346 319.588 647.067 319.108 645.715 319.283C644.473 319.445 643.317 320.187 642.579 321.177C642.211 321.681 641.906 322.252 641.715 322.846C641.55 323.345 641.295 324.02 641.697 324.454C641.93 324.704 642.405 324.649 642.453 324.256C642.45 324.238 642.448 324.219 642.465 324.199C642.461 323.849 642.843 323.306 643.013 323.01C643.262 322.593 643.549 322.191 643.881 321.857C644.495 321.233 645.284 320.846 646.152 320.82C647.075 320.787 647.76 321.262 648.255 322.017C648.705 322.703 649.073 324.119 650.031 324.229C650.163 324.251 650.324 324.196 650.386 324.096C650.764 323.517 650.463 322.832 650.21 322.252Z" fill="#815950"/>
<path d="M676.536 323.715C676.389 323.086 676.203 322.443 675.859 321.874C675.149 320.701 673.914 319.957 672.474 319.847C671.128 319.744 669.755 320.216 668.774 321.031C668.283 321.438 667.822 321.935 667.494 322.471C667.213 322.928 666.801 323.529 667.12 324.046C667.302 324.339 667.827 324.389 667.97 324.022C667.986 324.001 667.984 323.983 667.982 323.965C668.054 323.624 668.577 323.176 668.826 322.926C669.174 322.572 669.563 322.25 669.996 321.979C670.775 321.501 671.676 321.286 672.604 321.456C673.589 321.637 674.195 322.232 674.553 323.077C674.883 323.851 674.958 325.3 675.921 325.613C676.055 325.653 676.222 325.652 676.321 325.549C676.84 325.064 676.68 324.326 676.536 323.715Z" fill="#815950"/>
<path d="M649.207 349.667C647.24 347.716 643.583 347.511 641.124 348.367C638.183 349.39 635.622 353.691 635.519 356.656C635.484 357.952 637.061 363.104 638.929 360.341C639.293 359.801 640.988 354.899 641.723 355.478C643.085 356.521 642.939 358.789 644.239 359.931C644.671 360.306 646.172 359.819 646.227 359.166C646.358 357.896 646.322 356.627 646.175 355.352C646.032 354.113 645.433 352.299 646.96 353.803C648.111 354.943 649.275 357.153 651.212 357.077C655.529 356.892 651.98 351.045 649.207 349.667Z" fill="#F4C882"/>
<path d="M641.029 354.119C639.877 353.292 639.01 355.257 638.655 356.036C638.165 357.089 637.855 358.897 636.667 359.366C636.175 359.276 635.918 359.785 636.052 360.139C636.071 360.303 636.126 360.462 636.267 360.557C637.768 361.676 639.077 360.011 639.558 358.719C640.041 357.445 640.081 355.705 641.057 354.688C641.191 354.562 641.21 354.246 641.029 354.119Z" fill="#E5B46C"/>
<path d="M646.543 356.933C646.589 355.562 646.422 353.957 645.992 352.641C645.93 352.427 645.702 352.379 645.527 352.473C644.669 352.904 644.784 354.386 644.763 355.164C644.744 355.96 645.061 357.584 644.37 358.181C644.034 358.478 644.225 359.01 644.563 359.211C646.033 360.056 646.524 357.895 646.543 356.933Z" fill="#E5B46C"/>
<path d="M651.747 351.921C651.725 351.887 651.7 351.834 651.678 351.8C650.017 349.297 646.742 347.423 643.67 347.944C643.578 347.955 643.501 348.093 643.583 348.157C645.355 349.54 647.758 349.798 649.247 351.619C649.703 352.194 651.469 354.482 650.576 354.936C650.277 355.081 650.104 355.507 650.122 355.819C650.124 355.837 650.126 355.855 650.128 355.873C650.145 356.185 650.338 356.569 650.647 356.681C654.83 358.228 653.853 351.696 651.747 351.921Z" fill="#E5B46C"/>
<path d="M654.415 354.474C653.329 351.332 648.373 346.293 644.503 347.294C640.375 347.18 636.763 349.775 635.49 353.836C634.789 356.113 634.14 362.685 638.142 361.872C639.737 361.559 640.251 358.786 640.629 357.561C641.247 355.533 641.447 356.304 641.961 357.703C642.306 358.604 643.156 359.706 643.913 360.319C645.121 361.306 646.651 360.594 647.211 359.348C647.859 357.889 647.459 356.034 647.101 354.377C648.792 355.861 650.093 357.815 652.65 357.649C654.126 357.589 654.857 355.733 654.415 354.474ZM650.769 355.965C650.127 355.541 649.549 355.036 649.039 354.467C648.22 353.639 647.451 352.915 646.454 352.311C646.036 352.064 645.45 352.445 645.505 352.919C645.68 354.43 645.998 355.907 646.079 357.411C646.313 358.473 644.625 360.385 643.495 357.821C643.216 357.17 642.629 355.78 642.278 355.156C641.193 353.14 640.105 355.277 639.555 356.615C639.368 357.079 637.812 362.224 636.727 359.894C636.083 358.492 636.376 356.373 636.651 354.901C637.077 352.489 638.271 350.635 640.367 349.359C641.493 348.675 644.124 347.707 647.572 348.988C649.014 349.597 650.335 350.921 651.406 352.016C651.872 352.515 652.289 353.076 652.635 353.664C653.471 355.284 652.661 356.78 650.769 355.965Z" fill="#815950"/>
<path d="M690.077 351.406C689.312 346.548 684.642 343.027 679.714 344.98C679.609 345.03 679.524 345.095 679.459 345.176C676.549 346.14 675.092 348.929 674.705 352.647C674.58 353.806 674.985 356.029 676.736 355.458C677.968 355.057 678.894 353.603 679.625 352.226C680.042 354.393 680.795 357.222 682.738 357.035C685.084 356.801 685.237 353.959 685.184 351.732C685.933 352.919 686.445 354.299 688.054 354.593C690.003 354.94 690.286 352.73 690.077 351.406Z" fill="#F4C882"/>
<path d="M686.913 346.807C684.484 344.392 679.694 344.17 677.038 346.212C676.85 346.345 676.941 346.648 677.18 346.639C680.061 346.546 682.753 345.774 685.324 347.655C687.045 348.914 688.262 351.265 687.721 353.321C687.477 354.254 688.904 354.735 689.344 353.89C690.631 351.398 688.672 348.56 686.913 346.807Z" fill="#E5B46C"/>
<path d="M684.628 350.135C684.463 349.988 684.204 349.999 684.057 350.164C682.803 351.508 684.129 354.641 682.092 355.467C681.331 355.776 681.39 356.766 682.194 356.987C683.939 357.487 684.851 355.757 685.157 354.393C685.41 353.219 685.603 351.037 684.628 350.135Z" fill="#E5B46C"/>
<path d="M679.562 350.24C679.5 350.026 679.261 349.887 679.04 349.894C678.023 349.919 677.417 351.577 677.056 352.301C676.8 352.811 676.546 353.339 676.171 353.788C675.91 354.095 675.487 354.125 675.165 354.384C674.914 354.616 674.956 354.98 675.099 355.259C675.411 355.869 676.283 355.879 676.829 355.632C677.497 355.314 677.909 354.713 678.267 354.118C678.655 353.464 678.937 352.693 679.186 351.963C679.365 351.426 679.7 350.796 679.562 350.24Z" fill="#E5B46C"/>
<path d="M690.922 351.659C690.76 349.463 689.072 346.557 687.105 345.419C685.554 344.509 682.438 343.688 680.301 344.285C680.116 344.288 679.949 344.289 679.764 344.292C678.368 344.398 677.028 345.475 676.116 346.411C674.407 348.141 673.901 350.82 673.741 353.127C673.629 354.727 674.011 356.585 675.947 356.656C677.677 356.715 678.589 354.819 679.335 353.09C679.518 355.155 680.248 357.304 682.214 357.797C684.868 358.468 685.438 355.061 685.504 352.581C686.23 354.047 686.77 355.517 689.037 355.403C690.751 355.315 691.01 352.904 690.922 351.659ZM686.406 351.886C686.123 351.199 685.785 350.684 685.245 350.174C684.787 349.747 684.179 350.26 684.295 350.782C684.484 351.609 684.483 352.403 684.356 353.23C684.263 353.868 683.185 358.017 681.496 355.757C680.513 354.468 680.397 352.174 680.551 350.624C680.602 350.101 679.89 349.556 679.49 350.101C678.59 351.294 678.046 352.685 677.284 353.955C676.43 355.382 675.261 355.056 675.199 353.549C675.169 352.815 675.286 352.063 675.405 351.329C675.755 349.221 676.827 347.27 678.653 346.063C679.772 345.324 681.023 345.401 682.266 345.406C683.559 345.533 684.874 345.842 685.552 346.096C687.452 346.818 688.515 348.8 689.195 350.512C689.445 351.073 689.569 351.668 689.566 352.278C689.767 354.986 686.993 353.276 686.406 351.886Z" fill="#815950"/>
</g>
<defs>
<clipPath id="clip0_739_4898">
<rect width="13.2544" height="4.30768" fill="white" transform="translate(148.988 41.2542) rotate(-25.7586)"/>
</clipPath>
<clipPath id="clip1_739_4898">
<rect width="13.2544" height="4.30768" fill="white" transform="translate(135.07 35.4561) rotate(-63.7813)"/>
</clipPath>
<clipPath id="clip2_739_4898">
<rect width="13.2544" height="4.30768" fill="white" transform="translate(120.776 36.7251) rotate(-98.0024)"/>
</clipPath>
<clipPath id="clip3_739_4898">
<rect width="13.2544" height="4.30768" fill="white" transform="translate(107.896 43.5442) rotate(-132.433)"/>
</clipPath>
<clipPath id="clip4_739_4898">
<rect width="13.2544" height="4.30768" fill="white" transform="translate(103.832 57.8943) rotate(-165.501)"/>
</clipPath>
<clipPath id="clip5_739_4898">
<rect width="13.2544" height="4.30768" fill="white" transform="translate(111.631 68.1902) rotate(145.18)"/>
</clipPath>
<clipPath id="clip6_739_4898">
<rect width="13.2544" height="4.30768" fill="white" transform="translate(122.035 70.4058) rotate(109.589)"/>
</clipPath>
<clipPath id="clip7_739_4898">
<rect width="13.2544" height="4.30768" fill="white" transform="translate(135.559 67.6548) rotate(76.4748)"/>
</clipPath>
<clipPath id="clip8_739_4898">
<rect width="13.2544" height="4.30768" fill="white" transform="translate(147.441 63.8123) rotate(59.178)"/>
</clipPath>
<clipPath id="clip9_739_4898">
<rect width="13.2544" height="4.30768" fill="white" transform="translate(153.38 53.0562) rotate(28.7535)"/>
</clipPath>
<clipPath id="clip10_739_4898">
<rect width="37" height="25" fill="white" transform="translate(110 39.8186)"/>
</clipPath>
<clipPath id="clip11_739_4898">
<rect width="202" height="70" fill="white" transform="translate(-5 301)"/>
</clipPath>
<clipPath id="clip12_739_4898">
<rect width="94.2795" height="81.0804" fill="white" transform="translate(609 284.819) rotate(-6.58917)"/>
</clipPath>
</defs>
</svg>
