<svg width="383" height="322" viewBox="0 0 383 322" fill="none" xmlns="http://www.w3.org/2000/svg">
<circle cx="23.5" cy="230.5" r="7.5" fill="#FA8D8D" fill-opacity="0.51"/>
<circle cx="358" cy="5" r="5" fill="#87A3E3"/>
<g clip-path="url(#clip0_739_5434)">
<path opacity="0.75" d="M34.5566 156.309C34.5352 156.141 34.5506 155.677 34.9615 155.578C35.3801 155.495 36.1236 155.176 36.3668 155.019C36.5939 154.87 41.1947 152.213 41.6159 151.97C42.0371 151.727 44.3534 150.411 44.5565 150.254C44.7759 150.088 44.9965 149.843 45.2928 149.878C45.5814 149.898 45.7471 150.076 45.841 150.229C45.9187 150.39 46.2286 150.578 46.3632 150.692C46.4901 150.789 46.7813 151.145 46.8176 151.385C46.8539 151.626 46.819 151.801 46.7252 152.144C46.6399 152.463 46.7091 152.648 46.6089 152.895C46.5086 153.142 46.3087 153.1 46.1223 153.209C45.936 153.319 45.6539 153.396 45.4275 153.505C45.201 153.614 41.8417 155.414 41.1365 155.853C40.4475 156.285 39.0442 157.22 38.533 157.566C38.0219 157.912 37.4306 158.257 37.1304 158.461C36.8302 158.665 36.464 158.981 36.0731 158.832C35.6823 158.684 35.0978 157.596 34.912 157.17C34.7184 156.727 34.5566 156.309 34.5566 156.309Z" fill="#FFC327"/>
</g>
<g clip-path="url(#clip1_739_5434)">
<path opacity="0.75" d="M21.168 149.937C21.0475 149.818 20.7739 149.443 21.0366 149.111C21.3153 148.788 21.7044 148.079 21.7993 147.805C21.8862 147.548 23.8742 142.621 24.0563 142.17C24.2385 141.72 25.2525 139.256 25.3155 139.007C25.3864 138.741 25.409 138.412 25.6644 138.258C25.9038 138.095 26.144 138.133 26.3123 138.196C26.4726 138.275 26.8325 138.232 27.0086 138.239C27.1686 138.238 27.6171 138.338 27.7938 138.506C27.9705 138.673 28.0512 138.832 28.1886 139.16C28.3178 139.464 28.4863 139.567 28.5594 139.823C28.6324 140.08 28.4488 140.169 28.3696 140.371C28.2904 140.572 28.1154 140.806 28.0043 141.032C27.8932 141.257 26.3554 144.744 26.0705 145.525C25.7937 146.289 25.2642 147.89 25.0746 148.477C24.885 149.065 24.6316 149.701 24.521 150.047C24.4104 150.393 24.3163 150.867 23.9168 150.99C23.5172 151.114 22.387 150.617 21.978 150.396C21.553 150.167 21.168 149.937 21.168 149.937Z" fill="#FFC327"/>
</g>
<g clip-path="url(#clip2_739_5434)">
<path opacity="0.75" d="M6.95419 150.505C6.78739 150.474 6.35028 150.318 6.38128 149.896C6.42997 149.472 6.35286 148.667 6.27745 148.388C6.20455 148.126 5.07756 142.934 4.97465 142.459C4.87175 141.983 4.3247 139.376 4.2366 139.135C4.14599 138.875 3.97959 138.59 4.10388 138.319C4.21048 138.05 4.43058 137.947 4.60508 137.904C4.78208 137.879 5.05548 137.641 5.20478 137.548C5.33638 137.457 5.76389 137.288 6.00399 137.326C6.24409 137.365 6.40069 137.452 6.6987 137.646C6.97651 137.824 7.17371 137.815 7.37821 137.986C7.58272 138.156 7.48132 138.334 7.52902 138.545C7.57673 138.756 7.56363 139.048 7.59863 139.297C7.63364 139.546 8.323 143.294 8.52651 144.099C8.72753 144.887 9.19016 146.509 9.36367 147.101C9.53718 147.693 9.68529 148.362 9.78839 148.71C9.8915 149.058 10.0804 149.503 9.81951 149.83C9.55861 150.157 8.3448 150.382 7.8821 150.429C7.4017 150.478 6.95419 150.505 6.95419 150.505Z" fill="#FFC327"/>
</g>
<g clip-path="url(#clip3_739_5434)">
<path opacity="0.75" d="M5.8893 184.055C6.02279 184.16 6.33784 184.5 6.11515 184.86C5.87561 185.213 5.57097 185.962 5.5083 186.245C5.45166 186.511 4.04577 191.634 3.91687 192.103C3.78796 192.572 3.06517 195.136 3.03139 195.391C2.99158 195.663 3.00709 195.992 2.77124 196.175C2.55222 196.364 2.30922 196.354 2.1348 196.311C1.9664 196.251 1.61389 196.335 1.43825 196.349C1.27944 196.369 0.822325 196.32 0.627496 196.175C0.432666 196.029 0.334079 195.88 0.159765 195.57C-0.00373165 195.283 -0.182946 195.2 -0.285105 194.954C-0.387264 194.708 -0.215193 194.598 -0.159774 194.389C-0.104355 194.18 0.0425085 193.927 0.12681 193.69C0.211112 193.453 1.33612 189.812 1.52892 189.004C1.71569 188.212 2.05678 186.561 2.17731 185.956C2.29785 185.35 2.47615 184.689 2.54606 184.333C2.61597 183.977 2.65466 183.495 3.03727 183.326C3.41989 183.157 4.59989 183.52 5.0317 183.692C5.48035 183.871 5.8893 184.055 5.8893 184.055Z" fill="#FFC327"/>
</g>
<g clip-path="url(#clip4_739_5434)">
<path opacity="0.75" d="M19.4069 181.987C19.5759 182.002 20.026 182.115 20.0357 182.538C20.028 182.965 20.1823 183.759 20.2843 184.03C20.382 184.283 22.0035 189.343 22.1516 189.806C22.2998 190.269 23.0952 192.811 23.2062 193.043C23.3213 193.293 23.5144 193.56 23.4168 193.842C23.3365 194.12 23.1274 194.244 22.9578 194.304C22.784 194.346 22.5348 194.609 22.3952 194.716C22.273 194.819 21.8637 195.029 21.621 195.013C21.3783 194.998 21.214 194.926 20.8988 194.762C20.6051 194.611 20.4097 194.64 20.1897 194.489C19.9697 194.339 20.0536 194.153 19.9858 193.947C19.918 193.742 19.9029 193.45 19.8441 193.205C19.7853 192.961 18.7384 189.297 18.4583 188.514C18.1824 187.749 17.5659 186.18 17.3362 185.607C17.1065 185.034 16.8947 184.383 16.7586 184.047C16.6224 183.71 16.3916 183.285 16.6198 182.935C16.848 182.584 18.0346 182.243 18.4906 182.152C18.964 182.057 19.4069 181.987 19.4069 181.987Z" fill="#FFC327"/>
</g>
<g clip-path="url(#clip5_739_5434)">
<path opacity="0.75" d="M31.4404 178.472C31.6062 178.436 32.0696 178.41 32.2045 178.811C32.3241 179.221 32.7075 179.933 32.8854 180.161C33.0542 180.375 36.1065 184.723 36.3856 185.121C36.6648 185.519 38.1802 187.71 38.3551 187.899C38.5392 188.103 38.8031 188.301 38.7937 188.599C38.7998 188.888 38.637 189.069 38.4927 189.176C38.3392 189.268 38.1795 189.593 38.0782 189.737C37.9922 189.872 37.6637 190.193 37.4273 190.251C37.191 190.308 37.0129 190.289 36.6631 190.226C36.3377 190.169 36.1597 190.254 35.905 190.176C35.6503 190.098 35.6749 189.895 35.5491 189.719C35.4233 189.543 35.3221 189.269 35.1933 189.053C35.0645 188.837 32.9755 185.65 32.4754 184.986C31.9846 184.338 30.9292 183.023 30.5396 182.544C30.15 182.065 29.7543 181.507 29.5242 181.226C29.2941 180.945 28.9474 180.608 29.0611 180.205C29.1748 179.803 30.2063 179.125 30.6146 178.902C31.0383 178.67 31.4404 178.472 31.4404 178.472Z" fill="#FFC327"/>
</g>
<g clip-path="url(#clip6_739_5434)">
<path opacity="0.75" d="M37.851 168.132C37.9756 168.017 38.3623 167.76 38.6815 168.037C38.992 168.33 39.6834 168.75 39.9525 168.857C40.2059 168.955 45.0399 171.159 45.4823 171.361C45.9246 171.563 48.3409 172.685 48.5871 172.759C48.8491 172.841 49.177 172.879 49.32 173.141C49.4717 173.387 49.4229 173.625 49.3526 173.79C49.2666 173.947 49.2937 174.309 49.2793 174.484C49.2735 174.644 49.153 175.088 48.9782 175.257C48.8035 175.426 48.6402 175.5 48.3065 175.622C47.9972 175.738 47.8869 175.902 47.6277 175.963C47.3685 176.025 47.287 175.838 47.0895 175.75C46.8919 175.662 46.6658 175.476 46.4454 175.355C46.2249 175.234 42.8095 173.544 42.0422 173.225C41.2907 172.914 39.7146 172.315 39.1363 172.099C38.5579 171.884 37.9338 171.603 37.5931 171.477C37.2524 171.351 36.7828 171.236 36.6771 170.831C36.5713 170.427 37.1174 169.32 37.3567 168.921C37.6046 168.506 37.851 168.132 37.851 168.132Z" fill="#FFC327"/>
</g>
<g clip-path="url(#clip7_739_5434)">
<path opacity="0.75" d="M12.4044 156.234C12.9954 156.234 13.2623 156.307 13.6435 156.307C14.0247 156.307 14.1582 156.234 14.1582 156.123C14.1582 156.012 13.8532 156.16 14.1582 156.012C14.4632 155.865 14.4632 155.865 14.4632 155.717C14.4632 155.57 14.8444 155.533 14.6919 155.386C14.5394 155.238 14.5013 155.054 14.5013 155.054C14.5013 155.054 14.6157 155.054 14.6157 154.796C14.6157 154.538 14.4632 154.335 14.1963 154.261C13.9294 154.187 12.4044 153.616 11.2416 153.929C10.0788 154.224 6.99074 155.257 5.52294 156.123C4.03608 156.953 -0.0623231 160.161 -1.37762 161.672C-2.71199 163.166 -4.33229 165.765 -4.77072 167.628C-5.19009 169.471 -4.92322 171.868 -4.4276 173.122C-3.91292 174.357 -3.91292 174.357 -3.91292 174.357C-3.91292 174.357 -4.37041 171.094 -3.95104 169.545C-3.53167 167.996 -3.28386 167.591 -3.16948 167.388C-3.05511 167.203 -2.75011 166.411 -2.42605 165.913C-2.12106 165.434 -0.214822 163.018 0.719233 162.189C1.65329 161.359 3.78827 159.515 5.12263 158.723C6.43793 157.93 8.32511 157.026 9.56416 156.695C10.8032 156.363 12.4044 156.234 12.4044 156.234Z" fill="#FFC327"/>
<path opacity="0.75" d="M9.81132 178.745C9.88757 178.726 10.0782 178.708 10.2116 178.708C10.3451 178.708 10.5357 178.69 10.631 178.69C10.7263 178.69 10.7454 178.726 10.8216 178.671C10.8979 178.616 10.9169 178.653 10.9932 178.653C11.0694 178.653 11.2982 178.634 11.3744 178.634C11.4507 178.634 11.4126 178.561 11.4697 178.561C11.546 178.561 11.546 178.561 11.7176 178.542C11.8891 178.524 11.9272 178.542 12.0416 178.524C12.1369 178.505 12.2513 178.487 12.2513 178.505C12.2704 178.542 12.2322 178.542 12.1751 178.542C12.1179 178.561 11.9844 178.561 11.9082 178.579C11.851 178.597 11.7938 178.597 11.6985 178.597C11.6032 178.579 11.6032 178.653 11.5269 178.653C11.4507 178.653 11.2982 178.671 11.1838 178.69C11.0694 178.708 10.9932 178.69 10.9169 178.708C10.8407 178.726 10.7835 178.763 10.6882 178.745C10.5929 178.726 10.4023 178.763 10.3069 178.763C10.2116 178.763 10.1735 178.745 10.0401 178.763C9.90664 178.782 9.90664 178.782 9.79226 178.8C9.71601 178.8 9.81132 178.745 9.81132 178.745Z" fill="#FFC327"/>
<path opacity="0.75" d="M12.9943 178.376C13.1278 178.376 13.4899 178.302 13.6424 178.265C13.7949 178.228 13.8903 178.21 13.9665 178.21C14.0428 178.192 14.0999 178.173 14.119 178.21C14.1381 178.247 14.119 178.284 14.0046 178.302C13.8903 178.321 13.9093 178.321 13.7949 178.321C13.6806 178.321 13.6043 178.358 13.509 178.358C13.4137 178.358 13.3184 178.394 13.2612 178.394C13.204 178.413 13.2231 178.394 13.1468 178.413C13.0706 178.413 12.9371 178.376 12.9943 178.376Z" fill="#FFC327"/>
<path opacity="0.75" d="M14.4439 178.155C14.5011 178.155 14.768 178.118 14.8823 178.081C15.0158 178.044 15.2255 178.007 15.3208 177.989C15.4161 177.97 15.5305 177.952 15.7402 177.897C15.9308 177.841 16.1023 177.841 16.2358 177.805C16.3692 177.768 16.3692 177.749 16.5217 177.712C16.6933 177.675 16.922 177.657 16.8458 177.694C16.7886 177.731 16.6933 177.749 16.5789 177.786C16.4455 177.823 16.2739 177.915 16.1786 177.915C16.1023 177.915 15.8927 177.915 15.8355 177.952C15.7783 177.989 15.6258 178.026 15.5305 178.044C15.4352 178.063 15.378 178.063 15.2255 178.1C15.073 178.136 15.0348 178.136 14.9586 178.173C14.8823 178.21 14.8633 178.229 14.7489 178.229C14.6345 178.247 14.5774 178.247 14.463 178.247C14.3677 178.229 14.4439 178.155 14.4439 178.155Z" fill="#FFC327"/>
<path opacity="0.75" d="M31.8093 164.032C31.8093 165.194 30.8752 167.425 30.0174 168.439C29.1596 169.453 26.815 171.223 24.7181 172.163C22.6212 173.103 15.9876 175.371 11.4317 175.703C6.87576 176.035 3.25391 175.666 -0.291683 174.339C-3.83728 173.048 -4.79039 168.033 -4.88571 168.328C-5.09539 168.937 -5.00008 171.389 -4.69508 172.421C-4.39009 173.435 -3.83728 174.799 -2.76979 175.795C-1.68323 176.791 -0.463244 177.417 -0.0819974 177.546C0.318312 177.676 1.36674 178.081 1.63361 178.118C1.90049 178.155 2.37704 178.302 2.79642 178.358C3.23485 178.431 4.11172 178.579 4.68359 178.616C5.25546 178.653 6.2467 178.745 6.66607 178.745C7.08544 178.745 9.04886 178.782 9.23949 178.782C9.43011 178.782 9.3348 178.671 9.20136 178.671C9.06792 178.671 8.7248 178.745 8.28637 178.708C7.84793 178.69 7.19982 178.69 6.97107 178.69C6.74232 178.69 5.6367 178.597 5.42702 178.579C5.21733 178.56 3.95922 178.395 3.63516 178.376C3.3111 178.358 2.31986 178.136 2.16736 178.118C2.01486 178.1 1.86236 177.971 1.97674 177.915C2.09111 177.878 2.39611 177.915 2.62486 178.007C2.8536 178.1 3.50172 178.21 3.95922 178.266C4.41671 178.339 5.44608 178.505 6.05608 178.487C6.64701 178.468 8.24824 178.505 8.41981 178.505C8.61043 178.505 8.62949 178.524 8.76293 178.524C8.89636 178.524 8.97261 178.505 8.95355 178.376C8.93449 178.247 9.22042 178.266 9.46823 178.266C9.69698 178.266 9.44917 178.358 9.67792 178.413C9.90667 178.487 10.0401 178.395 10.3451 178.376C10.6501 178.358 10.5738 178.284 10.6692 178.284C10.7645 178.284 10.7454 178.136 10.936 178.1C11.1457 178.081 11.4126 178.118 11.2601 178.136C11.1076 178.155 11.0504 178.266 11.2982 178.266C11.546 178.266 11.527 178.247 11.8129 178.192C12.0798 178.155 12.2513 178.155 12.442 178.081C12.6326 178.007 12.6707 178.1 12.9185 178.1C13.1663 178.1 13.7763 177.897 14.0432 177.897C14.3101 177.897 14.3101 177.86 14.4816 177.805C14.6341 177.768 14.7294 177.768 14.901 177.731C15.0535 177.712 15.1107 177.731 15.3394 177.657C15.5682 177.583 15.6635 177.51 16.0257 177.454C16.3879 177.417 16.0257 177.454 16.1019 177.454C16.1782 177.454 16.7691 177.307 16.9216 177.27C17.0741 177.251 17.2266 177.251 17.1313 177.178C17.036 177.104 17.1694 177.03 17.3219 176.993C17.4554 176.975 17.6841 176.809 17.8366 176.809C17.97 176.809 17.8366 176.938 17.5888 177.012C17.341 177.086 17.3219 177.196 17.4554 177.141C17.5888 177.104 17.7985 177.049 18.1416 176.938C18.4847 176.827 18.7897 176.827 18.9041 176.791C19.0185 176.754 18.9803 176.68 18.9803 176.588C18.9803 176.496 19.171 176.551 19.3044 176.477C19.4378 176.403 19.6285 176.385 19.8572 176.33C20.086 176.256 20.41 176.201 20.2194 176.256C20.0288 176.33 20.1431 176.403 20.3338 176.367C20.5244 176.33 20.5435 176.256 20.6578 176.237C20.7722 176.219 20.7722 176.219 20.7722 176.09C20.7722 175.961 20.9628 176.053 21.02 176.127C21.0963 176.219 21.2488 176.053 21.4584 175.869C21.6491 175.684 21.4584 175.869 21.5728 175.832C21.6872 175.795 21.7634 175.758 21.9541 175.721C22.1447 175.684 22.1447 175.758 22.2591 175.684C22.3734 175.611 22.4497 175.5 22.6403 175.463C22.8309 175.426 22.9834 175.5 23.155 175.426C23.3075 175.353 23.6697 175.242 24.2034 174.892C24.7562 174.56 27.8634 173.011 28.1303 172.9C28.3971 172.79 28.359 172.605 28.4353 172.495C28.5115 172.384 28.7784 172.421 28.7784 172.421C28.7784 172.421 28.7784 172.421 29.0453 172.126C29.3121 171.831 29.1596 171.868 29.274 171.665C29.3884 171.481 29.4646 171.739 29.6553 171.591C29.8459 171.444 29.9984 171.131 30.4368 170.577C30.8562 170.006 31.1421 169.139 31.1421 169.139C32.4765 165.692 31.8093 164.032 31.8093 164.032ZM25.6903 172.366C25.1756 172.605 24.0509 173.122 23.8222 173.214C23.5934 173.306 23.3647 173.288 23.2884 173.361C23.2122 173.454 23.0787 173.472 22.9834 173.509C22.8881 173.546 22.7166 173.601 22.545 173.693C22.3925 173.785 21.3441 174.154 20.8675 174.32C20.391 174.468 18.5419 175.002 18.1035 175.15C17.665 175.279 16.4641 175.555 15.9876 175.611C15.511 175.684 15.5301 175.758 15.3394 175.813C15.1488 175.85 15.3204 175.943 15.1297 175.943C14.9391 175.943 14.2719 176.09 14.0432 176.127C13.8144 176.145 13.681 176.127 13.5094 176.127C13.357 176.127 13.0901 176.127 13.0329 176.145C12.9566 176.164 12.8041 176.219 12.6898 176.237C12.5754 176.256 12.3276 176.256 11.7557 176.33C11.1838 176.403 10.4214 176.367 10.5357 176.348C10.5357 176.348 12.8804 176.035 13.1473 176.016C13.4141 175.998 16.6547 175.279 17.055 175.242C17.4363 175.205 20.8294 174.246 21.9541 173.822C23.0787 173.398 25.0612 172.532 25.7475 172.2C26.4337 171.868 26.6243 171.757 26.6243 171.757C26.6243 171.757 26.1859 172.126 25.6903 172.366Z" fill="#FFC327"/>
<path opacity="0.75" d="M29.8459 160.714C28.4353 159.46 27.9206 159.11 27.73 158.999C27.5394 158.889 26.6053 158.372 26.4338 158.28C26.2813 158.188 25.4806 157.782 25.4806 157.782C25.4806 157.782 23.765 157.1 23.4791 156.99C23.2122 156.879 21.0201 156.16 19.3998 155.902C17.7795 155.644 16.712 155.459 16.0067 155.459C15.3014 155.459 15.0345 155.404 14.6723 155.404C14.3101 155.404 9.75422 155.717 8.70579 155.902C7.65736 156.086 5.78925 156.4 5.36988 156.492C4.93145 156.584 2.73928 157.358 2.35803 157.506C1.99585 157.653 0.203988 158.815 0.0324272 158.925C-0.158196 159.036 -0.863503 159.81 -1.03506 160.087C-1.22569 160.345 -1.43537 160.88 -1.49256 161.212C-1.54975 161.543 -1.60693 163.166 -1.49256 163.645C-1.34006 164.217 -1.43537 164.585 -1.30194 164.77C-1.18756 164.954 -0.996939 164.88 -0.863502 165.065C-0.749128 165.249 -0.615692 165.304 -0.501318 165.065C-0.386944 164.825 0.0514896 164.53 0.0514896 164.235C0.0514896 163.94 0.108676 163.055 0.108676 163.055C0.108676 163.055 0.356487 161.691 1.02367 161.341C1.69085 160.99 6.53269 159.681 7.27612 159.442C8.01955 159.202 12.4229 158.557 13.4714 158.557C15.187 158.557 18.3704 158.796 21.3251 159.497C22.9835 159.903 26.7578 161.58 27.73 162.281C28.7022 163 30.0937 164.364 30.3987 165.194C30.7037 166.024 31.0659 167.443 30.9515 168.457C30.8372 169.471 30.9515 169.711 31.2565 168.992C31.5615 168.273 32 166.558 32 165.544C32 164.493 31.2565 161.949 29.8459 160.714ZM22.6594 157.469C22.1066 157.266 20.4863 156.879 20.2385 156.824C19.9907 156.768 18.9423 156.584 18.4657 156.492C17.9701 156.4 17.0551 156.289 16.3498 156.252C15.6445 156.215 14.882 156.16 14.4436 156.16C14.0051 156.16 13.3951 156.105 13.2236 156.105C13.0329 156.105 13.4714 156.068 13.5286 156.049C13.7001 155.976 14.9773 155.994 15.1298 155.994C15.2823 155.994 17.0551 156.178 17.2838 156.178C17.4935 156.178 19.7048 156.529 19.7048 156.529C20.2004 156.566 22.7738 157.358 23.0407 157.469C23.2885 157.598 23.2122 157.69 22.6594 157.469ZM25.0041 158.483C25.0041 158.483 24.8325 158.354 24.7182 158.299C24.6038 158.225 24.4322 158.17 24.2988 158.096C24.1653 158.022 23.9747 157.893 23.9747 157.893C24.07 157.93 24.6419 158.133 24.7753 158.225C24.8897 158.299 25.1947 158.52 25.0041 158.483Z" fill="#FFC327"/>
</g>
<g clip-path="url(#clip8_739_5434)">
<path d="M-6.67442 297.598C-6.3413 297.682 -6.09146 297.766 -5.84162 297.849C-5.5085 298.017 -5.17538 298.185 -4.92554 298.352C-4.59242 298.603 -4.2593 298.939 -4.09274 299.274C-4.09274 299.022 -4.00946 298.855 -3.92618 298.603C-3.8429 298.101 -3.59306 297.766 -3.25994 297.347L-2.51042 296.676C-2.1773 296.509 -1.84418 296.341 -1.59434 296.257L-0.594984 296.006C-0.178584 296.006 0.237816 296.006 0.654216 296.006C0.904056 295.838 1.23718 295.671 1.5703 295.587C2.06997 295.419 2.56965 295.335 2.98605 295.168C3.31917 295.084 3.56901 295 3.90213 295C3.73557 293.827 4.23525 292.654 5.48445 291.816C6.15069 291.397 6.81693 291.062 7.64973 290.894C9.14877 289.386 11.7304 289.05 13.7292 290.14C14.562 288.883 16.061 287.793 17.8099 287.793C18.4761 287.71 19.2256 287.793 19.8086 288.045C20.4748 288.296 21.0578 288.715 21.4742 289.218C21.5575 289.218 21.6408 289.134 21.724 289.134C21.4742 285.782 23.9726 282.598 27.97 282.179C31.1347 281.844 34.5492 282.682 36.6312 284.693C36.6312 284.609 36.6312 284.609 36.6312 284.525C36.4646 284.106 36.3813 283.687 36.4646 283.185C36.4646 281.006 38.1302 278.827 39.9624 277.57C42.1276 276.145 45.0424 275.643 47.7074 276.145C47.2077 274.553 47.8739 272.877 49.2064 271.788C50.7055 270.531 53.537 269.693 55.8688 269.944C57.2846 267.766 61.0322 267.179 63.6971 268.185C65.6959 268.939 67.3615 271.034 67.528 273.129C68.9438 272.374 70.9425 272.542 72.3583 273.631C74.6068 275.224 75.1065 278.324 74.0238 280.671H74.1071C74.5235 280.671 74.9399 280.671 75.3563 280.671C76.439 278.827 80.02 278.492 81.8522 279.581C84.3506 281.006 84.6004 283.855 83.5178 286.117C85.5165 286.788 87.1821 288.296 87.5152 290.224C87.6818 290.978 87.5152 291.816 87.0988 292.57C87.765 292.821 88.348 293.24 88.7644 293.743C88.931 293.911 89.0143 294.078 89.0975 294.33C89.2641 294.33 89.5139 294.246 89.7638 294.246C90.5966 294.246 91.3461 294.414 91.929 294.833C92.5953 294.162 93.6779 293.743 94.6773 293.911C95.8432 294.078 96.9258 294.749 97.5088 295.671C97.9252 296.341 98.2583 297.179 98.0918 297.849C98.175 297.933 98.3416 297.933 98.4249 298.017L98.5082 297.933C99.0911 297.598 99.7574 297.514 100.34 297.682C100.507 297.766 100.757 297.849 100.923 297.933C101.007 298.017 101.173 298.101 101.256 298.268C101.34 298.268 101.34 298.352 101.34 298.352C101.423 298.352 101.506 298.436 101.59 298.52C101.506 298.017 106.336 299.777 106.586 299.358C106.503 298.687 104.504 297.849 103.422 298.436C102.922 297.347 100.507 296.592 99.0078 297.179C99.0078 297.095 99.0078 296.844 99.0911 296.76C99.0911 296.173 99.0078 295.671 98.6747 295.168C98.5082 294.665 98.175 294.246 97.7586 293.827C96.9258 293.073 95.6766 292.654 94.5107 292.654C93.5946 292.654 92.7618 292.905 92.0123 293.324C91.1795 291.816 89.6805 290.81 88.0149 290.307C88.5146 289.721 88.8477 289.05 89.0975 288.296C90.1802 284.86 87.5985 281.676 84.0174 280.671C83.7676 280.587 83.5178 280.587 83.2679 280.503C83.6011 280 83.6843 279.414 83.7676 278.743C83.7676 278.24 83.6843 277.738 83.4345 277.319C83.2679 276.9 83.0181 276.481 82.6017 276.145C81.8522 275.475 80.7695 275.056 79.7702 275.056C78.6875 275.056 77.6882 275.475 76.9387 276.145C76.7721 276.313 76.6055 276.397 76.5222 276.564C76.1059 275.81 75.6895 275.14 75.1065 274.553C75.5229 273.967 75.856 273.296 75.9393 272.542C76.2724 269.777 73.774 267.095 70.6094 267.263C69.8599 267.263 69.1936 267.514 68.6107 267.766C68.2775 265.671 64.6965 264.33 60.2827 265.335C55.2859 263.576 46.2916 267.43 45.9585 274.888C45.4588 274.805 41.4614 274.302 39.8791 276.145C37.2974 274.218 33.8829 275.978 33.7996 278.659C32.3839 277.821 30.635 277.319 28.8861 277.57C25.888 277.989 24.0559 279.916 22.89 282.347C22.7234 282.682 22.6401 282.933 22.4736 283.268C21.9739 283.436 21.4742 283.603 21.0578 283.939C18.6427 282.682 15.3115 282.263 13.3128 283.185C11.1475 284.19 9.73173 286.117 9.23205 288.212C8.89893 288.38 8.48253 288.548 8.14941 288.799C6.81693 288.464 5.31789 288.38 3.81885 288.715C1.15389 289.302 -0.428423 291.145 -0.928103 293.324C-1.67762 293.157 -2.51042 293.408 -3.17666 293.743C-3.8429 294.078 -4.2593 294.581 -4.50914 295.168C-4.75898 295.503 -4.84226 295.922 -4.75898 296.341C-4.75898 296.425 -4.75898 296.509 -4.75898 296.592C-5.5085 296.006 -6.42458 296.006 -7.09082 296.425C-6.7577 296.76 -6.59114 297.179 -6.67442 297.598Z" fill="white"/>
<path d="M110.001 300.698C109.917 300.279 109.667 300.028 109.334 299.861C109.251 299.777 109.168 299.693 109.001 299.609C108.835 299.525 108.668 299.525 108.418 299.525C108.085 299.944 107.835 300.363 107.669 300.866C106.919 300.279 105.587 299.861 105.004 299.861C104.088 299.777 103.338 300.028 102.505 300.363C102.422 300.447 102.256 300.447 102.172 300.531H102.089C101.589 300.196 101.006 300.363 101.09 301.117L101.006 301.034C100.423 300.698 99.8404 300.531 99.1742 300.531C98.5912 300.447 97.8417 300.698 97.342 301.117C97.1754 300.782 97.0089 300.447 96.6758 300.196C96.1761 299.693 95.3433 299.358 94.5938 299.358C93.8442 299.358 93.0114 299.609 92.5118 300.112C92.3452 300.279 92.1786 300.531 92.0121 300.698C91.2626 299.442 90.0134 298.52 88.3478 298.604C86.5156 298.604 84.85 299.693 84.0172 301.117C83.9339 301.201 83.9339 301.285 83.9339 301.369C83.1011 300.196 81.6854 299.442 80.1031 299.19C78.4375 298.939 76.6886 299.358 75.4394 300.363C74.6066 301.034 74.1069 302.039 74.0236 303.045C73.7738 302.793 73.6072 302.626 73.4407 302.374C74.1069 300.782 74.1902 299.023 73.1908 297.43C72.941 297.011 72.6911 296.676 72.358 296.425C73.7738 296.844 75.4394 296.928 76.8551 296.509C79.9365 295.587 81.5188 292.905 80.7693 289.972C80.686 289.553 80.4362 289.134 80.1863 288.883C80.1863 288.799 80.2696 288.715 80.2696 288.631C80.3529 288.548 80.3529 288.464 80.4362 288.38C80.7693 287.877 81.0191 287.291 81.0191 286.704C81.1024 285.279 79.9365 284.19 78.6873 283.436C77.8545 282.933 76.522 282.849 75.6892 283.352C75.3561 283.604 75.023 283.855 74.6899 284.106C74.0236 283.52 73.1908 283.101 72.2747 282.933C70.9423 282.598 69.7764 282.849 68.777 283.436C68.9436 282.682 69.0268 281.928 68.8603 281.173C68.6104 279.833 67.5278 278.659 66.1953 277.905C63.6969 276.564 59.9493 276.564 58.1172 278.911C57.7008 279.497 57.4509 280.168 57.4509 280.838C56.3683 281.006 55.2856 281.341 54.2863 281.844C53.4535 282.179 52.704 282.682 52.0377 283.101C50.4554 282.514 48.7065 282.347 47.2075 283.352C45.5419 284.525 45.3753 286.453 45.875 288.129C43.9596 288.38 42.1274 289.637 41.0448 291.062C39.4624 293.073 39.3792 295.754 41.0448 297.766C41.3779 298.185 41.711 298.52 42.1274 298.771C40.7117 298.52 39.2126 298.604 37.7136 299.106C36.048 299.693 34.6322 300.698 33.7161 302.039C29.5521 296.257 18.6425 295.168 14.1453 301.453C13.3958 301.034 12.563 300.782 11.6469 300.782C10.481 300.782 9.31511 301.201 8.48231 301.955C8.39903 302.039 8.39903 302.039 8.31575 302.123C6.73343 301.117 4.65143 300.782 2.81927 301.62C2.31959 301.872 1.90319 302.291 1.65335 302.71C1.15367 301.788 0.320873 300.95 -0.845045 300.698C-2.92704 300.112 -4.7592 301.285 -5.592 302.961C-6.09168 302.458 -6.75792 302.039 -7.50744 301.872C-8.67336 301.536 -9.92256 301.704 -11.0052 302.207C-11.255 302.374 -11.5882 302.542 -11.838 302.793C-11.838 302.71 -11.9213 302.626 -11.9213 302.542C-11.9213 301.872 -13.0039 301.62 -13.1705 302.542C-13.0872 301.872 -13.1705 301.453 -13.7534 301.117C-14.2531 300.866 -14.7528 300.698 -15.3358 300.615C-15.3358 300.698 -15.2525 300.782 -15.2525 300.866C-15.5023 301.034 -15.6689 301.201 -15.8354 301.453C-16.002 301.285 -16.1686 301.201 -16.4184 301.117C-16.8348 300.95 -17.4178 300.95 -17.8342 301.117C-17.9174 301.117 -18.0007 301.201 -18.084 301.201C-18.5004 301.453 -18.667 301.872 -18.5837 302.291C-18.5004 302.793 -18.0007 303.212 -17.4178 303.296C-17.2512 303.296 -17.0846 303.296 -16.9181 303.296C-16.8348 303.296 -16.6682 303.296 -16.585 303.296C-16.5017 303.296 -16.4184 303.296 -16.4184 303.212C-16.1686 303.212 -15.8354 303.045 -15.6689 302.877C-15.6689 302.877 -15.5856 302.877 -15.5856 302.961C-15.0859 303.212 -14.503 303.38 -13.92 303.38C-14.0033 303.715 -13.92 304.134 -13.7534 304.386C-13.6702 304.469 -13.5869 304.553 -13.5036 304.637C-13.337 304.805 -13.0872 304.972 -12.8374 304.972C-12.421 305.224 -12.0878 305.224 -11.7547 305.056C-11.5049 304.888 -11.4216 304.637 -11.4216 304.386C-11.4216 304.302 -11.1718 304.302 -11.0885 304.218C-11.0885 304.134 -11.1718 303.967 -11.3383 303.967C-11.255 303.967 -11.255 303.967 -11.1718 303.967C-11.1718 303.967 -11.1718 303.967 -11.0885 303.967C-10.9219 304.134 -10.7554 304.302 -10.5888 304.469C-9.756 305.224 -8.59008 305.643 -7.42416 305.643C-6.17496 305.643 -5.09232 305.14 -4.25952 304.469C-3.75984 304.05 -3.42672 303.464 -3.17688 302.877C-2.84376 303.883 -2.01096 304.721 -0.511925 304.721C0.320875 304.721 0.903833 304.469 1.40351 304.134C2.40287 304.972 3.73535 305.391 5.23439 305.14C5.56751 305.224 5.90063 305.307 6.31703 305.307C6.89999 305.894 7.98263 306.145 9.06527 306.062C9.39839 305.978 10.1479 305.726 10.3977 305.475C10.481 305.726 11.1473 305.894 11.3971 305.894C11.7302 305.978 12.0633 305.894 12.3965 305.978C12.563 306.397 12.8961 306.816 13.2293 307.067C13.8955 307.654 14.8949 308.073 15.8109 308.073C16.8103 308.073 17.7264 307.654 18.3926 307.067C18.5592 306.9 18.7257 306.732 18.8923 306.564C19.8084 306.564 20.7245 306.564 21.6405 306.481C23.556 307.738 25.4714 307.989 27.6367 308.073C27.8033 308.324 28.0531 308.659 28.3029 308.911C28.8859 309.414 29.6354 309.833 30.4682 310C31.301 310.168 32.2171 310.168 33.0499 310C33.8827 309.833 34.3824 309.497 34.9653 309.078C35.2152 308.911 35.3817 308.827 35.5483 308.659C35.6316 308.576 35.7149 308.408 35.8814 308.324C36.2978 308.324 36.7975 308.324 37.2139 308.324C39.2126 308.324 40.6284 307.57 41.3779 306.397C41.4612 306.481 41.4612 306.648 41.5444 306.732C42.1274 307.654 43.1268 308.324 44.2927 308.659C44.376 308.659 44.4592 308.659 44.4592 308.743C44.8756 308.827 45.292 308.827 45.6252 308.911H45.7084C45.9583 308.911 46.2081 308.827 46.458 308.827C46.6245 308.827 46.9576 308.827 47.2075 308.743C47.5406 308.659 48.54 308.24 48.3734 308.324C48.6232 308.157 49.1229 307.905 49.3728 307.654C49.456 307.57 49.5393 307.486 49.6226 307.402C49.7892 307.486 49.9557 307.486 50.039 307.57C50.4554 307.654 50.8718 307.654 51.2882 307.738C51.9544 307.738 52.5374 307.654 53.1204 307.402C53.5368 307.319 53.8699 307.151 54.203 306.816C54.7027 306.481 55.1191 306.062 55.4522 305.559C55.5355 305.307 55.702 305.056 55.7853 304.805C56.3683 304.721 56.868 304.721 57.4509 304.805C59.2831 304.972 61.032 305.81 62.8641 305.81C65.3625 305.894 67.9442 304.972 69.1934 303.129C69.3599 303.129 69.6098 303.129 69.7763 303.129C69.8596 303.296 70.0262 303.464 70.1095 303.631C70.859 304.553 71.8583 305.224 73.0243 305.726C73.8571 306.062 74.6899 306.229 75.6059 306.313C75.6059 306.397 75.6892 306.397 75.6892 306.481C75.8558 306.9 76.1056 307.319 76.522 307.654C77.2715 308.324 78.3542 308.743 79.4368 308.743C80.5195 308.743 81.5188 308.324 82.3516 307.654C82.9346 307.151 83.2677 306.481 83.4343 305.81C84.85 305.643 86.1825 305.307 87.1819 304.553C87.7648 304.888 88.5143 305.14 89.2638 305.14C90.2632 305.14 91.1793 304.721 91.8455 304.134C92.2619 303.799 92.595 303.296 92.7616 302.793C95.6764 302.961 98.6745 302.877 101.589 302.542C102.422 302.458 103.005 302.123 103.421 301.704C103.588 301.788 103.755 301.872 103.921 301.955C104.671 302.207 105.337 302.039 105.92 301.704C106.086 301.704 106.253 301.704 106.42 301.704C106.586 301.704 106.669 301.62 106.836 301.536C106.836 301.788 107.002 301.955 107.169 302.123C107.835 302.458 108.502 302.71 109.251 302.458C109.751 301.955 110.084 301.285 110.001 300.698Z" fill="#D9E9F1"/>
<path d="M108.502 299.441C108.418 299.441 108.418 299.441 108.335 299.441C108.002 299.441 107.752 299.609 107.502 299.777C107.336 299.86 107.169 300.028 107.003 300.196C106.919 300.112 106.919 299.944 106.836 299.86C106.836 299.777 106.836 299.777 106.836 299.693C106.919 299.106 106.336 298.603 105.753 298.771C105.67 298.771 105.504 298.771 105.42 298.855C104.921 298.52 104.254 298.603 103.671 298.687C103.338 298.101 101.756 298.017 101.839 298.52C101.756 298.436 101.673 298.436 101.589 298.352L101.506 298.268C101.423 298.184 101.256 298.017 101.173 297.933C101.006 297.849 100.84 297.765 100.59 297.682C99.9238 297.514 99.2576 297.598 98.7579 297.933L98.6746 298.017C98.5913 297.933 98.508 297.933 98.3415 297.849C98.4248 297.095 98.1749 296.341 97.7585 295.67C97.1756 294.749 96.1762 294.078 94.927 293.911C93.9277 293.827 92.845 294.162 92.1788 294.832C91.5958 294.497 90.8463 294.246 90.0135 294.246C89.7637 294.246 89.5971 294.246 89.3473 294.33C89.264 294.162 89.0974 293.911 89.0141 293.743C88.5977 293.156 88.0148 292.821 87.3485 292.57C87.6817 291.816 87.8482 290.978 87.7649 290.224C87.4318 288.296 85.7662 286.788 83.7675 286.117C84.9334 283.855 84.6003 281.006 82.1019 279.581C80.2698 278.492 76.6887 278.827 75.6061 280.67C75.1897 280.67 74.7733 280.587 74.3569 280.67H74.2736C75.3562 278.324 74.8566 275.224 72.608 273.631C71.109 272.626 69.1935 272.458 67.7778 273.129C67.6112 271.117 65.9456 269.022 63.9469 268.184C61.2819 267.095 57.6176 267.765 56.1186 269.944C53.7867 269.609 50.9552 270.447 49.4562 271.788C48.1237 272.877 47.4575 274.553 47.9571 276.145C45.3755 275.642 42.3774 276.145 40.2121 277.57C38.2967 278.827 36.7143 281.006 36.7143 283.184C36.7143 283.687 36.7976 284.106 36.8809 284.525C36.7976 284.525 36.8809 284.525 36.7976 284.609C34.7156 282.682 31.3844 281.844 28.2198 282.179C24.1391 282.598 21.7239 285.698 21.9738 289.134C21.8072 289.218 21.8072 289.134 21.7239 289.218C21.3076 288.715 20.7246 288.296 20.0584 288.045C19.3921 287.793 18.7259 287.71 18.0596 287.793C16.7272 287.793 15.478 288.464 14.6452 289.386C14.0622 288.631 13.0628 288.296 11.9802 288.464C10.9808 288.548 9.73164 288.883 9.31524 289.805C6.90012 289.302 3.90204 291.313 4.23516 293.659C3.56892 293.659 2.98596 293.743 2.403 294.078C1.82004 294.413 1.1538 295.084 1.07052 295.754C0.154445 295.335 -1.01147 295.419 -1.92755 295.754C-3.42659 296.341 -4.17611 297.765 -4.00955 299.19C-4.25939 298.939 -4.50923 298.603 -4.75907 298.436C-5.09219 298.268 -5.34203 298.017 -5.67515 297.933C-5.92499 297.849 -6.25811 297.765 -6.50795 297.682C-6.50795 297.346 -6.59123 297.095 -6.75779 296.844C-6.84107 296.676 -7.34075 296.508 -7.50731 296.508C-7.67387 296.508 -7.67387 296.508 -7.84043 296.425C-9.58931 296.425 -10.6719 297.43 -11.1716 298.603C-11.4215 298.52 -11.5047 298.52 -11.5047 298.52C-12.0044 298.436 -12.4208 298.603 -12.7539 298.939L-12.8372 299.022C-13.0871 299.274 -13.0871 299.86 -12.8372 300.112C-12.9205 300.112 -13.0038 300.112 -13.0038 300.112C-13.1703 299.693 -13.5867 299.358 -14.0031 299.358C-14.6694 299.358 -15.2523 299.693 -15.3356 300.363C-15.3356 300.447 -15.4189 300.698 -15.2523 300.95C-14.6694 300.782 -14.253 300.866 -13.7533 301.117C-13.1703 301.453 -13.0871 301.955 -12.7539 302.458C-12.5874 301.872 -11.588 302.039 -11.5047 302.374C-11.5047 302.458 -11.4215 302.542 -11.4215 302.626C-11.1716 302.374 -10.9218 302.207 -10.5887 302.039C-9.58931 301.453 -8.25683 301.369 -7.09091 301.704C-6.34139 301.872 -5.67515 302.291 -5.17547 302.793C-4.34267 301.201 -2.51051 300.028 -0.428516 300.531C0.737404 300.866 1.5702 301.62 2.06988 302.542C2.31972 302.123 2.73612 301.704 3.2358 301.453C5.06796 300.531 7.23324 300.866 8.73228 301.955C8.81556 301.872 8.81556 301.872 8.89884 301.788C9.73164 301.034 10.8976 300.615 12.0635 300.615C12.9796 300.615 13.8124 300.866 14.5619 301.285C19.059 295 29.9687 296.089 34.1327 301.872C34.9655 300.531 36.4645 299.525 38.1301 298.939C39.6291 298.436 41.1282 298.352 42.5439 298.603C42.1275 298.352 41.7944 297.933 41.4613 297.598C39.7957 295.587 39.879 292.905 41.4613 290.894C42.5439 289.469 44.3761 288.296 46.2915 287.961C45.7919 286.285 45.9584 284.274 47.624 283.184C49.1231 282.179 50.8719 282.346 52.4543 282.933C53.1205 282.43 53.87 282.011 54.7028 281.676C55.7022 281.173 56.7848 280.922 57.8674 280.67C57.8674 280 58.1173 279.33 58.5337 278.743C60.2826 276.397 64.1134 276.397 66.6118 277.737C67.861 278.408 68.9437 279.581 69.2768 281.006C69.4434 281.76 69.3601 282.514 69.1935 283.268C70.1929 282.682 71.3588 282.43 72.6913 282.765C73.6074 282.933 74.4402 283.436 75.1064 283.939C75.4395 283.687 75.7726 283.436 76.1058 283.184C76.9386 282.682 78.271 282.765 79.1038 283.268C80.353 283.939 81.519 285.112 81.4357 286.536C81.4357 287.123 81.1858 287.71 80.8527 288.212C80.7694 288.296 80.7694 288.38 80.6861 288.464C80.6861 288.548 80.6029 288.631 80.6029 288.715C80.8527 288.967 81.1026 289.386 81.1858 289.805C81.9353 292.654 80.4363 295.335 77.2717 296.341C75.8559 296.76 74.1903 296.76 72.7746 296.257C73.1077 296.592 73.3575 296.927 73.6074 297.263C74.6067 298.855 74.5234 300.615 73.8572 302.207C74.0238 302.458 74.1903 302.71 74.4401 302.877C74.6067 301.872 75.0231 300.95 75.8559 300.196C77.1051 299.106 78.854 298.771 80.5196 299.022C82.1019 299.274 83.4344 299.944 84.3505 301.201C84.3505 301.117 84.4337 301.034 84.4337 300.95C85.2665 299.525 86.9321 298.436 88.7643 298.436C90.4299 298.436 91.6791 299.358 92.4286 300.531C92.5952 300.279 92.7617 300.112 92.9283 299.944C93.5113 299.441 94.2608 299.19 95.0103 299.19C95.7598 299.19 96.5926 299.525 97.0923 300.028C97.4254 300.279 97.592 300.615 97.7585 300.95C98.2582 300.615 99.0077 300.363 99.5907 300.363C100.257 300.447 100.84 300.531 101.423 300.866L101.506 300.95C101.506 300.615 101.923 300.112 102.589 300.363C102.672 300.279 102.839 300.196 102.922 300.279C104.088 301.285 105.504 300.279 105.337 299.693C106.42 299.777 106.919 301.117 108.002 300.698C109.168 301.117 109.584 299.609 108.502 299.441Z" fill="#ECF4F8"/>
<path d="M110.917 300.363C110.751 300.112 110.418 299.944 110.084 299.944C109.918 299.693 109.668 299.525 109.418 299.525C109.252 299.525 109.085 299.525 109.002 299.609C109.002 299.609 108.918 299.525 108.835 299.442C108.669 299.358 108.585 299.274 108.419 299.19C107.919 299.023 107.669 299.358 107.253 299.358C106.753 299.358 106.92 299.274 106.67 298.855C106.587 298.771 106.503 298.604 106.42 298.52C105.671 297.766 104.421 297.766 103.672 298.352C103.422 298.52 103.672 298.771 103.922 298.687C104.088 298.604 104.255 298.52 104.421 298.52C104.338 298.52 104.255 298.604 104.172 298.604C104.005 298.687 104.172 298.855 104.338 298.855C104.671 298.771 105.004 298.771 105.337 298.939C105.587 299.106 105.671 299.274 105.837 299.525C105.92 299.693 106.254 299.693 106.254 299.442C106.254 299.358 106.254 299.274 106.17 299.19C106.254 299.442 106.337 299.693 106.503 299.86C106.67 300.112 106.753 300.112 107.003 300.112C107.086 300.112 107.253 300.112 107.336 300.028C107.669 299.86 108.086 299.86 108.502 300.028C108.502 300.028 108.585 300.028 108.585 300.112C108.502 300.112 108.419 300.196 108.336 300.279C108.086 300.531 108.502 300.866 108.752 300.615C108.835 300.531 109.085 300.447 109.252 300.531C109.252 300.615 109.335 300.698 109.335 300.698C109.418 300.782 109.501 300.782 109.501 300.866C109.501 301.034 109.418 301.201 109.168 301.453C108.918 301.704 109.335 302.039 109.668 301.872C109.918 301.704 110.084 301.453 110.168 301.201C110.334 301.034 110.667 301.117 110.834 300.866C111 300.698 111 300.531 110.917 300.363Z" fill="white"/>
<path d="M84.7672 282.598C84.6839 282.263 84.6007 281.844 84.4341 281.508C84.3508 281.173 84.3508 280.838 84.101 280.587C84.0177 280.503 83.9344 280.335 83.7679 280.251C83.4347 279.749 83.0183 278.994 82.3521 279.162C82.1855 279.162 82.1855 279.33 82.2688 279.413C82.1855 279.413 82.1855 279.497 82.1855 279.581C82.1855 279.581 82.1855 279.665 82.2688 279.665C82.1855 279.749 82.1855 279.916 82.3521 279.916C82.4354 279.916 82.5187 280 82.5187 280C83.2682 281.006 83.9344 281.844 84.0177 283.101C84.101 284.525 83.6013 285.782 82.8518 286.955C82.6852 287.207 83.1849 287.374 83.3515 287.123C84.1843 285.782 84.6007 284.19 84.4341 282.765C84.6839 282.849 84.7672 282.765 84.7672 282.598Z" fill="white"/>
<path d="M66.3619 268.687C63.8635 267.598 60.8655 266.76 58.2838 267.933C57.7841 268.185 57.3677 268.436 57.0346 268.687C57.0346 268.687 57.0346 268.604 57.1179 268.604C57.2011 268.52 57.0346 268.352 56.9513 268.436C56.5349 268.771 56.2018 269.19 55.9519 269.609C56.1185 269.274 56.2018 268.939 56.4516 268.687C56.7015 268.352 56.2018 268.017 55.9519 268.352C55.7854 268.604 55.6188 268.855 55.5355 269.106C55.4523 269.106 55.369 269.106 55.369 269.19C55.369 269.19 55.369 269.19 55.369 269.274C55.2024 269.274 55.1191 269.358 55.1191 269.525C55.1191 269.861 55.1191 270.196 55.2024 270.447C55.1191 270.95 55.2024 271.453 55.2857 271.955C55.2857 272.039 55.369 272.039 55.369 272.123C55.369 272.542 55.369 272.961 55.4523 273.296C55.4523 273.464 55.5355 273.631 55.5355 273.799C55.5355 273.883 55.6188 273.883 55.6188 273.883C55.7854 274.05 56.0352 273.967 56.0352 273.715C56.0352 273.296 55.9519 272.793 55.9519 272.291C56.2018 270.531 57.2011 269.023 59.2831 268.436C61.615 267.766 63.8635 268.604 66.0288 269.442C66.5285 269.609 66.8616 268.939 66.3619 268.687Z" fill="white"/>
<path d="M106.004 299.693C106.087 298.771 103.922 297.933 103.672 299.023C103.672 299.106 103.755 299.19 103.838 299.19C103.922 299.274 104.005 299.274 104.005 299.19C104.172 299.023 104.588 299.023 104.838 299.106C104.921 299.106 105.004 299.19 105.088 299.274C105.088 299.358 105.088 299.442 105.171 299.525L105.254 299.609C105.254 299.609 105.254 299.609 105.254 299.693C105.254 299.777 105.337 299.777 105.337 299.777C105.337 299.944 105.004 299.861 105.088 299.693C105.088 299.525 104.838 299.442 104.755 299.609C104.588 300.112 105.171 300.531 105.671 300.196C105.754 300.112 105.837 300.028 105.92 299.861V299.777C105.92 299.861 106.004 299.861 106.087 299.861H106.17C106.087 299.944 106.17 300.112 106.254 300.112C106.337 300.196 106.42 300.196 106.503 300.112C106.587 300.363 106.92 300.28 106.92 300.028C107.003 299.609 106.337 299.274 106.004 299.693Z" fill="#ECF4F8"/>
<path d="M109.918 300.698C109.918 300.531 109.834 300.363 109.668 300.279C109.501 300.112 109.085 300.028 108.835 300.112C108.668 299.693 108.086 299.944 107.919 300.112C107.836 300.196 107.919 300.196 107.919 300.279C107.836 300.447 107.836 300.698 108.086 300.782H108.169C108.252 300.95 108.502 300.95 108.668 300.782C108.668 300.866 108.752 300.95 108.835 301.034C108.918 301.117 109.002 301.117 109.085 301.117C109.085 301.369 109.168 301.536 109.501 301.536C109.668 301.536 109.834 301.453 109.834 301.285C110.001 301.117 110.084 300.866 109.918 300.698Z" fill="#ECF4F8"/>
<path d="M84.1841 286.285C84.0176 286.118 83.6844 286.118 83.6012 286.285C83.4346 286.453 83.3513 286.704 83.1848 286.872C83.0182 287.123 82.8516 287.291 82.6018 287.458C82.4352 287.626 82.6851 287.877 82.8516 287.794C83.1015 287.71 83.3513 287.458 83.6012 287.291C83.6844 287.207 83.7677 287.039 83.851 286.956C83.851 286.872 83.9343 286.872 83.9343 286.788C84.2674 286.788 84.3507 286.537 84.1841 286.285Z" fill="#ECF4F8"/>
</g>
<g clip-path="url(#clip9_739_5434)">
<path d="M358.305 302.111C356.577 301.53 354.741 301.927 353.015 302.309C348.48 303.318 343.858 303.823 339.203 303.799C338.94 303.802 338.795 303.976 338.759 304.185C337.65 305.226 336.777 306.708 336.356 308.139C335.813 309.989 337.826 310.499 339.241 310.683C341.047 310.92 342.882 310.673 344.653 310.318C346.63 309.936 348.59 309.483 350.538 309.033C352.569 308.563 354.594 308.069 356.601 307.504C357.482 307.259 358.393 307.031 359.25 306.692C359.88 306.447 360.498 306.054 360.747 305.392C361.327 303.845 359.579 302.531 358.305 302.111Z" fill="#CD9975"/>
<path d="M339.173 303.732C338.183 304.142 337.449 305.226 336.902 306.101C336.603 306.564 336.36 307.05 336.135 307.557C335.951 307.978 335.637 308.482 335.862 308.926C335.918 309.05 336.059 309.114 336.187 309.12C336.213 309.126 336.627 309.122 336.648 309.105C337.145 308.18 337.947 306.665 338.193 306.291C338.69 305.516 339.379 304.806 339.791 303.99C339.877 303.831 339.321 303.67 339.173 303.732Z" fill="#815950"/>
<path d="M359.588 302.466C359.018 302.046 358.2 301.487 357.449 301.65C357.233 301.692 356.742 302.09 356.893 302.189C357.705 302.674 358.677 303.395 359.2 303.777C359.693 304.141 360.018 304.285 360.624 304.447C360.759 304.488 360.934 304.381 360.931 304.22C360.911 303.486 360.143 302.878 359.588 302.466Z" fill="#815950"/>
<path d="M328.318 282.939C328.18 282.085 327.812 280.864 327.133 280.108C326.386 278.58 324.02 277.809 322.465 277.572C320.888 277.341 319.306 277.549 317.97 278.334C317.745 278.44 317.535 278.555 317.361 278.661C315.784 279.643 314.716 281.299 314.271 283.087C314.182 283.434 314.129 283.773 314.081 284.135C313.176 288.303 316.872 292.883 321.545 292.627C324.435 292.48 327.05 290.425 327.951 287.697C328.46 286.219 328.58 284.487 328.318 282.939Z" fill="#F4C882"/>
<path d="M327.086 279.269C323.365 276.346 320.057 277.336 319.986 277.354C318.76 277.573 317.559 278.149 316.743 279.104C316.089 279.855 315.506 280.989 316.158 281.89C316.329 282.122 316.758 282.227 316.979 282.009C319.479 279.695 323.523 278.934 326.278 281.21C326.768 281.613 327.639 279.518 327.086 279.269Z" fill="#FDE5C7"/>
<path d="M325.791 283.934C325.101 282.58 323.154 282.279 321.744 282.469C320.177 282.686 318.542 284.033 318.141 285.597C317.845 286.772 318.37 288.067 319.504 288.434C322.816 289.87 323.969 285.941 324.907 288.133C325.128 288.666 325.566 288.607 325.678 288.103C325.934 286.863 326.041 285.635 326.013 284.366C326.013 284.166 325.924 284.013 325.791 283.934Z" fill="#D39C53"/>
<path d="M328.663 281.151C327.469 278.035 324.166 276.233 320.856 276.561C317.351 276.912 314.408 279.462 313.518 282.838C312.622 286.239 313.905 290.11 316.923 292.032C318.462 293.011 320.259 293.212 322.044 292.965C323.673 292.746 326.588 291.191 328.032 292.494C328.068 292.535 328.127 292.47 328.103 292.426C326.382 290.317 323.011 292.161 320.753 292.075C317.21 291.923 314.55 288.822 314.417 285.378C314.284 281.983 316.486 278.93 319.782 277.993C323.034 277.08 326.283 278.769 328.152 281.417C328.346 281.693 328.775 281.448 328.663 281.151Z" fill="#815950"/>
<path d="M322.483 281.859C321.173 281.848 319.914 282.339 319.012 283.302C318.269 284.101 317.629 285.462 318.098 286.533C318.154 286.657 318.332 286.663 318.388 286.536C318.782 285.699 318.96 284.904 319.596 284.182C320.412 283.277 321.574 282.849 322.78 282.948C325.168 283.151 326.833 285.137 327.39 287.362C327.413 287.456 327.552 287.409 327.555 287.321C327.569 284.465 325.506 281.891 322.483 281.859Z" fill="#815950"/>
<path d="M361.806 284.058C363.264 286.521 366.253 287.975 369.103 287.513C373.714 286.76 376.366 281.492 374.606 277.617C374.497 277.281 374.364 276.952 374.21 276.64C373.396 274.992 372.005 273.601 370.253 272.975C370.061 272.911 369.831 272.843 369.589 272.779C368.123 272.295 366.533 272.417 365.043 272.99C363.574 273.545 361.427 274.808 361.012 276.463C360.514 277.338 360.41 278.628 360.447 279.482C360.523 281.039 361.003 282.708 361.806 284.058Z" fill="#F4C882"/>
<path d="M360.88 275.633C363.897 271.975 367.343 272.24 367.417 272.234C368.661 272.185 369.947 272.502 370.951 273.251C371.742 273.854 372.551 274.828 372.116 275.85C371.994 276.118 371.601 276.304 371.335 276.145C368.402 274.414 364.285 274.531 362.075 277.348C361.673 277.849 360.403 275.99 360.88 275.633Z" fill="#FDE5C7"/>
<path d="M363.131 279.911C363.528 278.436 365.349 277.73 366.78 277.623C368.358 277.503 370.246 278.47 370.959 279.917C371.496 281.009 371.247 282.373 370.218 282.98C367.29 285.089 365.322 281.49 364.88 283.84C364.77 284.406 364.326 284.441 364.12 283.968C363.604 282.808 363.244 281.622 363.009 280.38C362.959 280.18 363.018 280.015 363.131 279.911Z" fill="#D39C53"/>
<path d="M359.74 277.807C360.248 274.515 363.096 272.038 366.395 271.664C369.897 271.25 373.306 273.125 374.887 276.233C376.478 279.375 376.045 283.424 373.499 285.95C372.2 287.239 370.485 287.818 368.685 287.955C367.045 288.078 363.869 287.183 362.732 288.768C362.706 288.813 362.632 288.768 362.659 288.724C363.899 286.3 367.575 287.382 369.768 286.808C373.197 285.901 375.136 282.301 374.542 278.921C373.957 275.577 371.166 273.06 367.747 272.852C364.381 272.655 361.551 275.002 360.286 277.983C360.156 278.266 359.692 278.119 359.74 277.807Z" fill="#815950"/>
<path d="M365.926 277.173C367.208 276.877 368.544 277.093 369.622 277.837C370.517 278.452 371.435 279.661 371.192 280.797C371.162 280.93 370.985 280.974 370.908 280.868C370.35 280.145 370.011 279.391 369.228 278.824C368.248 278.118 367.012 277.952 365.857 278.304C363.557 279.004 362.361 281.305 362.294 283.599C362.293 283.699 362.149 283.672 362.128 283.59C361.507 280.805 362.967 277.85 365.926 277.173Z" fill="#815950"/>
<path d="M366.663 286.397C365.947 283.986 364.861 281.706 363.557 279.555C362.25 277.392 360.665 274.974 358.603 273.463C358.588 273.454 358.574 273.445 358.562 273.448C357.72 272.545 356.79 271.739 355.801 271.149C354.841 270.425 353.765 269.843 352.705 269.421C350.595 268.572 347.575 268.001 345.213 268.755C345.491 268.51 345.775 268.239 346.048 267.971C346.914 267.116 348.47 265.901 348.235 264.509C348.052 263.428 346.903 263.053 346.01 263.601C345.324 264.023 344.836 264.783 344.321 265.387C343.848 265.956 343.306 266.505 342.886 267.135C343.425 266.024 343.376 264.423 343.291 263.331C343.186 261.906 342.211 261.324 340.825 261.858C339.37 262.422 340.007 264.064 340.402 265.142C340.777 266.136 340.935 267.123 340.801 268.194C340.787 268.336 340.748 268.483 340.709 268.63C340.026 269.314 339.26 269.818 338.285 270.138C337.093 270.548 335.858 270.782 334.719 271.355C332.688 272.376 331.04 274.026 329.759 275.886C327.667 278.923 325.624 282.812 325.245 286.673C324.922 288.092 324.805 289.585 324.766 290.884C324.681 293.207 324.637 296.045 325.912 298.078C325.974 298.175 326.063 298.228 326.169 298.252C326.284 298.31 326.417 298.29 326.527 298.225C326.627 298.175 326.722 298.101 326.769 297.989C326.823 297.851 326.873 297.7 326.914 297.565C326.925 298.763 328.029 300.314 328.593 301.061C328.856 301.408 329.376 301.278 329.512 300.919C330.303 301.822 331.166 302.607 332.291 303.239C333.039 303.665 333.842 303.964 334.666 304.196C335.124 304.319 335.538 304.366 335.931 304.38C336.537 304.591 337.152 304.688 337.713 304.622C338.006 304.587 338.154 304.174 337.897 304.001C337.194 303.501 336.293 303.314 335.507 302.935C334.576 302.479 333.723 301.93 332.94 301.262C331.269 299.854 330.029 298.012 329.345 295.931C328.544 293.479 328.549 290.838 328.894 288.3C329.049 287.16 329.265 286.018 329.633 284.925C329.742 284.61 329.867 284.303 330.006 284.006C330.702 282.818 331.303 281.605 332.252 280.579C333.252 279.503 334.473 278.66 335.863 278.137C337.462 277.549 339.307 277.388 340.923 278.022C342.373 278.598 342.966 279.763 344.032 280.76C344.213 280.928 344.582 280.798 344.594 280.545C344.591 280.483 344.591 280.433 344.588 280.371C344.65 280.318 344.713 280.265 344.763 280.215C345.118 279.876 345.384 279.434 345.721 279.074C346.284 278.458 346.94 277.919 347.659 277.476C349.028 276.621 350.651 276.127 352.264 276.199C353.751 276.265 355.231 276.808 356.433 277.696C357.204 278.266 357.706 279.017 358.273 279.726C358.458 280.067 358.677 280.388 358.845 280.708C359.479 281.838 360.114 282.968 360.668 284.131C361.143 285.125 361.565 286.158 361.904 287.212C362.275 288.345 362.425 289.546 362.785 290.682C362.907 292.829 362.668 294.94 361.641 296.911C360.487 299.126 358.481 301.054 356.166 302.046C355.758 302.223 356.003 302.8 356.411 302.673C358.489 302.04 360.488 301.24 362.073 299.693C362.768 299.006 363.458 298.145 363.89 297.212C364.076 297.503 364.605 297.508 364.741 297.149C364.925 296.627 365.467 295.278 365.696 294.033C365.846 294.233 366.023 294.389 366.245 294.421C366.854 294.544 367.123 293.913 367.268 293.439C367.915 291.201 367.296 288.528 366.663 286.397Z" fill="#CD9975"/>
<path d="M358.293 280.058C358.258 280.017 358.205 280.005 358.16 280.029C358.128 280 358.104 279.955 358.072 279.926C357.378 279.111 356.433 277.996 355.367 277.45C354.67 276.974 353.89 276.618 353 276.428C351.077 276.021 349.087 276.506 347.437 277.544C346.222 278.311 344.823 279.549 344.408 281.004C343.606 279.003 341.29 277.881 339.174 277.81C336.147 277.716 333.249 279.541 331.3 281.743C329.193 284.122 328.463 287.832 328.265 290.909C328.067 293.936 328.712 297.115 330.719 299.466C331.59 300.486 332.577 301.215 333.667 301.756C335.453 303.474 338.482 304.03 340.773 304.195C344.15 304.438 347.738 304.317 351.046 303.577C354.106 302.899 357.018 301.533 359.287 299.351C360.908 297.795 362.657 295.243 362.481 292.835C362.523 292.549 362.541 292.27 362.553 291.966C363.077 287.732 361.042 283.061 358.293 280.058Z" fill="#F4C882"/>
<path d="M357.914 293.764C358.075 295.263 356.98 296.613 355.476 296.776C353.971 296.94 352.619 295.852 352.457 294.353C352.296 292.855 353.391 291.505 354.895 291.342C356.403 291.19 357.752 292.266 357.914 293.764Z" fill="#FFA48F"/>
<path d="M350.095 295.558C350.072 295.513 350.019 295.502 349.977 295.537C349.451 296.094 349.364 296.954 348.932 297.588C348.346 298.46 347.483 299.126 346.457 299.345C345.325 299.591 344.344 299.186 343.532 298.4C343.298 298.171 341.899 296.845 342.005 296.518C342.011 296.491 341.994 296.471 341.97 296.476C341.157 296.842 342.016 298.066 342.326 298.502C343.105 299.608 344.257 300.446 345.643 300.512C346.94 300.575 348.218 300.006 349.064 299.018C349.744 298.223 350.629 296.587 350.095 295.558Z" fill="#815950"/>
<path d="M346.468 303.758C343.105 303.974 339.204 303.098 336.472 301.067C333.711 299.018 332.455 295.854 332.05 292.527C331.78 290.343 331.862 288.208 332.519 286.217C333.144 285.348 333.399 284.258 334.017 283.365C334.654 282.443 335.461 281.653 336.402 281.042C337.383 280.396 338.513 279.939 339.68 279.784C340.289 279.707 340.916 279.701 341.515 279.838C342.009 279.953 342.428 280.223 342.928 280.261C342.978 280.261 343.019 280.225 343.019 280.175C342.97 279.575 342.477 279.21 341.897 279.005C341.623 278.761 341.322 278.611 340.999 278.529C340.104 278.215 338.999 278.216 338.16 278.276C336.549 278.366 334.973 278.898 333.66 279.827C332.261 280.814 331.098 282.194 330.205 283.643C329.882 284.162 329.559 284.73 329.319 285.328C328.763 286.569 328.487 288.026 328.361 289.134C328.064 291.56 328.197 294.204 329.014 296.514C329.775 298.701 331.333 300.413 333.295 301.624C334.394 302.3 335.587 302.802 336.816 303.195C337.389 303.377 337.974 303.556 338.571 303.682C338.944 303.764 339.263 303.784 339.591 303.79C341.786 304.379 344.106 304.312 346.506 303.861C346.554 303.85 346.542 303.753 346.468 303.758Z" fill="#E5B46C"/>
<path d="M362.096 287.627C362.005 287.212 361.887 286.791 361.739 286.352C360.737 283.3 358.621 279.764 355.736 278.021C354.173 276.898 352.306 276.314 350.121 276.623C350.098 276.628 350.086 276.681 350.121 276.673C356.783 276.983 360.127 284.479 360.27 290.273C360.412 296.368 356.208 301.26 350.73 303.068C349.669 303.346 348.156 303.574 347.239 303.778C347.216 303.784 347.228 303.831 347.254 303.837C348.779 304.157 350.573 303.595 352.04 303.178C352.592 303.028 353.104 302.862 353.598 302.676C354.632 302.342 355.611 301.835 356.56 301.31C358.284 300.365 359.748 299.286 360.798 297.61C362.485 294.911 363.252 290.791 362.096 287.627Z" fill="#FDE5C7"/>
<path d="M349.412 289.661C349.155 289.337 348.754 289.087 348.369 289.008C347.445 288.827 346.628 289.331 345.83 289.706C344.943 290.128 344.305 289.937 343.422 289.67C343.014 289.547 342.609 289.436 342.18 289.48C341.14 289.59 339.847 291.353 341.229 292.408C341.338 292.493 341.7 291.828 341.673 291.672C341.661 291.574 344.415 292.237 345.908 292.026C346.455 291.952 346.963 291.725 347.428 291.421C347.46 291.4 347.493 291.379 347.522 291.347C348.001 291.252 348.474 291.184 348.95 291.077C349 291.178 349.041 291.292 349.083 291.407C349.203 291.74 349.463 291.875 349.65 291.616C350.114 290.911 349.953 290.064 349.412 289.661Z" fill="#E5B46C"/>
<path d="M348.932 291.057C348.421 290.622 347.573 290.596 347.02 290.947C346.934 291.006 346.656 291.251 346.47 291.51C346.207 291.614 345.938 291.743 345.657 291.776C345.403 291.815 345.137 291.756 344.88 291.683C344.729 291.533 344.513 291.474 344.168 291.248C343.645 290.916 342.936 290.693 342.362 291.011C341.709 291.362 341.551 292.24 341.752 292.891C341.875 293.285 342.174 293.623 342.516 293.838C342.664 293.926 342.954 293.979 343.025 293.761C343.108 293.44 342.565 292.525 343.402 292.153C343.617 292.061 343.874 292.184 344.108 292.314C344.217 292.399 344.332 292.458 344.459 292.514C344.474 292.522 344.486 292.519 344.501 292.528C344.882 292.696 345.313 292.763 345.748 292.742C346.256 292.715 346.968 292.399 347.208 291.901C347.253 291.877 347.297 291.854 347.341 291.83C347.466 291.774 347.98 291.871 348.021 292.136C348.053 292.415 348.044 292.43 347.944 292.68C347.784 293.046 347.766 293.275 347.872 293.649C347.892 293.732 347.987 293.758 348.058 293.74C348.318 293.675 348.484 293.634 348.667 293.413C348.868 293.162 349.025 292.885 349.141 292.594C349.309 292.114 349.378 291.433 348.932 291.057Z" fill="#FDE5C7"/>
<path d="M343.657 290.813C343.004 290.613 342.209 290.599 341.689 291.13C340.787 292.044 341.299 293.942 342.664 293.976C342.703 293.979 342.724 293.911 342.694 293.893C342.047 293.367 341.461 291.875 342.469 291.385C342.927 291.158 343.509 291.325 343.955 291.501C344.038 291.531 344.549 291.766 344.608 291.601C344.727 291.171 343.917 290.898 343.657 290.813Z" fill="#815950"/>
<path d="M348.939 290.48C348.443 290.204 347.87 290.222 347.373 290.496C346.974 290.709 346.37 291.11 346.305 291.602C346.296 291.717 346.399 291.828 346.512 291.775C347.115 291.524 347.541 290.917 348.277 290.996C349.281 291.095 348.884 292.57 348.582 293.121C348.564 293.151 348.612 293.189 348.644 293.168C349.138 292.832 349.505 292.54 349.653 291.928C349.781 291.383 349.406 290.738 348.939 290.48Z" fill="#815950"/>
<path d="M344.662 293.526C344.565 292.988 344.066 292.399 343.945 292.267C343.756 292.064 343.393 292.067 343.18 292.221C342.878 292.421 342.833 292.795 343.007 293.089C343.182 293.384 343.412 293.551 343.71 293.689C343.855 293.766 343.988 293.845 344.139 293.895C344.192 293.907 344.248 293.93 344.289 293.945C344.402 293.992 344.839 294.083 344.662 293.526Z" fill="#815950"/>
<path d="M348.119 292.074C347.939 291.806 347.57 291.736 347.301 291.916C347.032 292.096 346.91 292.464 346.803 292.741C346.703 292.991 346.569 293.312 346.637 293.583C346.675 293.736 346.841 293.795 346.983 293.809C347.264 293.827 347.654 293.529 347.846 293.343C348.172 293.037 348.4 292.492 348.119 292.074Z" fill="#815950"/>
<path d="M344.232 265.134C343.904 265.729 342.385 268.249 342.19 268.272C341.995 268.296 341.972 267.902 341.99 267.472C342.038 266.709 341.915 265.964 341.705 265.228C341.358 264.039 340.357 262.501 341.93 261.657C341.954 261.651 341.945 261.615 341.918 261.61C340.441 261.679 339.607 262.163 339.99 263.543C340.311 264.676 340.903 266.442 340.79 267.647C340.704 268.457 340.257 269.081 339.984 269.8C337.974 269.852 335.739 271.162 334.157 272.221C332.261 273.483 330.608 275.11 329.27 276.946C327.202 279.778 325.851 283.018 325.37 286.416C324.178 290.343 324.293 294.517 325.628 298.45C325.775 298.888 326.544 298.946 326.689 298.472C326.751 298.269 326.813 298.066 326.876 297.862C326.982 298.136 327.111 298.404 327.221 298.639C327.601 299.457 328.017 300.567 328.811 301.081C329.157 301.308 329.601 301.072 329.577 300.677C330.25 301.66 331.544 302.562 332.262 303.021C333.068 303.532 334.347 304.125 335.553 304.324C336.091 304.515 336.602 304.55 337.019 304.308C337.125 304.281 337.229 304.243 337.332 304.204C337.424 304.169 337.445 304.051 337.365 303.984C337.01 303.672 336.547 303.525 336.077 303.405C335.876 303.305 335.663 303.208 335.459 303.097C334.567 302.594 333.764 301.994 332.993 301.324C332.187 300.612 331.452 299.833 330.725 299.039C330.398 298.683 330.085 298.286 329.733 297.936C329.14 296.72 328.74 295.419 328.519 294.086C328.243 292.428 328.209 290.736 328.343 289.063C328.436 287.976 328.682 286.851 328.769 285.741C328.89 285.373 328.997 284.996 329.089 284.61C329.409 283.329 329.824 282.074 330.363 280.864C331.338 278.731 332.737 276.792 334.447 275.188C336.127 273.617 338.067 272.431 340.184 271.552C340.878 271.265 342.188 270.775 342.83 270.026C342.863 270.006 342.907 269.982 342.939 269.962C343.557 269.569 344.161 268.968 344.374 268.314C346.172 264.049 347.13 263.809 347.756 263.652C346.821 262.623 345.174 263.423 344.232 265.134Z" fill="#9F6944"/>
<path d="M336.393 274.477C336 274.562 335.668 274.845 335.387 275.128C335.136 275.379 334.852 275.75 334.958 276.124C334.979 276.206 335.079 276.256 335.15 276.239C335.466 276.197 335.679 275.894 335.886 275.667C336.123 275.407 336.416 275.171 336.605 274.874C336.703 274.712 336.632 274.429 336.393 274.477Z" fill="#9F6944"/>
<path d="M334.263 276.31C334.015 276.423 333.79 276.479 333.571 276.659C333.361 276.824 333.178 277.045 333.018 277.26C332.823 277.534 332.305 278.226 332.674 278.547C333.043 278.868 333.339 278.193 333.464 277.937C333.594 277.704 333.736 277.468 333.896 277.253C334.073 277.008 334.189 276.717 334.369 276.484C334.435 276.393 334.355 276.275 334.263 276.31Z" fill="#9F6944"/>
<path d="M336.612 275.81C336.275 275.97 335.982 276.106 335.74 276.391C335.547 276.627 335.26 277.087 335.52 277.372C335.795 277.666 336.103 277.139 336.2 276.927C336.348 276.615 336.511 276.261 336.754 276.025C336.866 275.922 336.733 275.743 336.612 275.81Z" fill="#9F6944"/>
<path d="M363.661 282.932C363.498 282.735 363.214 282.956 363.341 283.162C364.179 284.554 364.722 286.219 365.125 287.782C365.152 287.888 365.32 287.859 365.332 287.756C365.458 285.898 364.839 284.376 363.661 282.932Z" fill="#9F6944"/>
<path d="M363.726 286.005C363.626 285.805 363.339 285.915 363.395 286.138C363.781 287.581 363.582 289.094 363.71 290.563C363.728 290.684 363.908 290.752 363.979 290.634C364.9 289.14 364.488 287.492 363.726 286.005Z" fill="#9F6944"/>
<path d="M365.369 288.76C365.287 288.53 364.947 288.628 364.967 288.86C365.026 289.496 365.002 290.153 364.972 290.786C364.956 291.278 364.891 291.769 365.062 292.252C365.115 292.414 365.363 292.452 365.467 292.313C366.174 291.323 365.72 289.81 365.369 288.76Z" fill="#9F6944"/>
<path d="M347.667 263.85C347.283 263.721 346.934 263.883 347.032 264.272C347.058 264.378 346.719 266.439 345.199 268.095C348.105 267.106 349.159 264.34 347.667 263.85Z" fill="#CD9975"/>
<path d="M367.07 286.87C366.302 283.848 365.039 280.961 363.351 278.33C361.666 275.712 359.528 273.344 357.065 271.433C352.718 267.666 346.499 268.321 346.177 268.339C348.058 267.118 349.546 265.482 348.492 263.631C347.737 262.319 346.253 262.465 345.251 263.378C344.606 263.965 344.123 264.649 343.718 265.388C344.208 263.176 343.899 260.689 341.499 261.039C340.347 261.202 339.022 261.784 339.325 263.147C339.555 264.165 340.08 265.06 340.313 266.09C339.906 264.865 339.502 263.853 337.982 264.208C337.306 264.365 337.379 265.41 338.094 265.306C339.332 265.134 339.993 266.87 340.072 267.889C340.104 268.269 340.071 268.69 340.003 269.12C339.692 269.385 339.246 269.509 338.829 269.601L338.817 269.604C335.56 270.244 333.307 271.283 330.647 274.212C328.55 276.526 327.049 279.366 325.959 282.291C324.856 285.219 324.233 288.302 324.124 291.432C324.033 293.982 323.953 297.53 326.218 299.253C326.496 299.459 326.818 299.29 326.907 298.993C326.907 298.993 326.904 298.981 326.916 298.978C327.269 300.291 328.066 301.468 329.393 301.999C329.52 302.055 329.647 302.011 329.724 301.916C330.687 302.952 332.373 303.718 333.307 304.035C335.558 304.798 338.404 305.375 340.781 304.831C342.731 305.044 345.107 305.05 347.965 304.673C349.946 304.402 356.499 303.577 360.757 301.16C361.596 300.65 363.093 299.55 363.806 298.333C363.898 298.398 364.028 298.416 364.146 298.336C365.329 297.54 365.865 296.217 365.928 294.863L365.931 294.874C366.076 295.151 366.439 295.248 366.661 294.98C368.513 292.79 367.689 289.343 367.07 286.87ZM347.553 303.525C338.685 304.592 334.376 301.478 332.554 300.12C330.64 298.697 329.507 296.679 329.072 294.386C328.301 290.25 329.003 285.17 331.79 281.846C333.328 280.01 335.585 278.682 337.993 278.467C339.211 278.363 340.464 278.55 341.554 279.091C342.647 279.643 343.37 280.525 344.126 281.437C344.144 281.508 344.2 281.581 344.268 281.602C344.374 281.726 344.534 281.861 344.567 281.49C344.872 280.4 346.262 278.826 347.708 277.977C349.45 276.953 351.714 276.362 353.67 277.048C357.1 278.255 359.27 281.653 360.706 284.834C362.219 288.171 362.697 292.393 361.29 295.81C359.691 299.263 356.417 302.446 347.553 303.525ZM366.248 293.982C366.112 293.841 365.962 293.691 365.835 293.535C365.661 293.341 365.297 293.444 365.332 293.736C365.508 295.143 364.978 296.289 364.185 297.338C364.251 296.996 364.227 296.652 364.08 296.313C364.071 296.278 364.036 296.287 364.015 296.305C363.355 296.932 363.091 297.937 362.464 298.644C361.656 299.534 360.672 300.168 359.607 300.735C358.365 301.396 357.059 302.048 355.722 302.582C358.321 301.419 360.258 299.871 361.356 298.033C363.1 295.107 363.809 292.215 363.206 288.9C362.618 285.645 360.995 282.322 358.792 279.846C356.785 277.596 354.106 275.325 350.932 275.794C348.496 276.153 345.149 277.791 344.31 280.365C343.685 278.97 341.993 278.03 340.568 277.661C338.432 277.107 336.135 277.568 334.222 278.61C329.861 281.014 328.039 285.936 327.955 290.674C327.914 293.124 328.083 295.859 329.225 298.063C330.379 300.264 332.54 302.025 334.721 303.106C335.394 303.438 336.224 303.794 337.229 304.093C336.245 303.876 335.279 303.63 334.333 303.366C333.184 303.04 332.079 302.641 331.098 301.936C330.333 301.389 329.861 300.456 329.09 299.986C329.061 299.968 329.037 299.974 329.034 300.012C328.96 300.369 329.007 300.707 329.14 301.037C328.144 300.172 327.38 299.175 327.254 297.768C327.231 297.473 326.849 297.456 326.731 297.686C326.636 297.86 326.53 298.036 326.42 298.201C324.735 296.083 324.897 292.815 325.097 290.25C325.318 287.468 325.962 284.717 326.999 282.131C328.012 279.6 329.385 277.205 331.101 275.074C334.231 271.564 337.152 270.784 338.733 270.476C339.118 270.405 340.034 270.1 340.076 270.065C341.995 268.797 341.093 265.594 340.424 263.873C340.223 263.372 340.12 263.26 340.301 262.677C340.491 262.079 340.659 262.05 341.235 261.943C341.906 261.813 342.477 261.733 342.837 262.568C342.99 262.93 343.001 263.428 343.022 263.811C343.1 265.38 342.561 266.691 342.19 268.172C342.158 268.293 342.317 268.328 342.388 268.26C343.039 268.048 344.59 265.308 345.025 264.786C345.285 264.471 345.56 264.064 345.918 263.887C346.533 263.583 347.517 263.5 347.791 264.294C348.313 265.778 346.539 266.922 345.578 267.7C344.46 268.605 343.41 269.631 342.112 270.269C342.088 270.275 342.1 270.322 342.123 270.316C342.744 270.085 343.682 269.713 344.66 269.206C346.599 268.921 350.846 269.473 352.397 269.998C353.865 270.494 355.59 271.414 356.786 272.378C358.913 274.098 360.755 276.14 362.275 278.399C363.834 280.712 365.037 283.263 365.842 285.927C366.596 288.39 367.45 291.554 366.248 293.982Z" fill="#815950"/>
<path d="M326.666 287.581C326.654 287.534 326.607 287.496 326.566 287.531C326.217 287.844 326.113 288.332 325.997 288.774C325.858 289.322 325.704 289.961 325.83 290.517C325.868 290.67 326.072 290.732 326.155 290.561C326.38 290.105 326.407 289.56 326.496 289.062C326.591 288.588 326.775 288.067 326.666 287.581Z" fill="#805335"/>
<path d="M327.194 288.637C326.779 290.142 326.742 291.553 327.285 293.018C327.32 293.11 327.483 293.107 327.492 292.992C327.555 291.537 327.471 290.095 327.419 288.631C327.413 288.508 327.23 288.528 327.194 288.637Z" fill="#805335"/>
<path d="M326.408 291.974C326.426 291.795 326.163 291.748 326.134 291.93C325.994 292.678 325.866 293.423 325.919 294.186C325.98 294.934 326.216 295.425 326.579 296.073C326.626 296.161 326.759 296.09 326.751 296.005C326.668 295.375 326.651 294.753 326.554 294.115C326.44 293.405 326.363 292.699 326.408 291.974Z" fill="#805335"/>
<path d="M338.903 295.767C339.064 297.266 337.969 298.616 336.465 298.779C334.961 298.943 333.608 297.855 333.447 296.356C333.285 294.858 334.38 293.508 335.885 293.345C337.392 293.193 338.742 294.269 338.903 295.767Z" fill="#FFA48F"/>
<path d="M339.546 290.152C339.378 289.681 339.166 289.234 338.844 288.851C338.15 288.036 337.255 287.622 336.238 287.726C335.162 287.845 334.136 288.565 333.701 289.587C333.47 290.12 332.895 291.991 333.82 292.122C333.923 292.134 334.044 292.016 334.033 291.919C334.027 291.845 334.119 291.659 334.133 291.618C334.545 290.702 334.756 289.686 335.782 289.217C336.278 288.992 336.512 288.922 337.336 289.153C338.173 289.382 338.803 291.301 339.353 291.489C339.436 291.518 339.53 291.494 339.589 291.43C339.903 291.076 339.685 290.555 339.546 290.152Z" fill="#D89E50"/>
<path d="M356.321 286.794C355.58 286.041 354.575 285.742 353.535 285.902C352.592 286.051 351.702 286.561 351.093 287.289C350.587 287.878 349.968 288.921 350.437 289.692C350.502 289.801 350.653 289.801 350.727 289.695C350.902 289.438 351.017 289.147 351.136 288.867C351.423 288.457 351.733 288.042 352.109 287.735C352.662 287.284 353.38 287.192 354.078 287.268C354.66 287.335 355.242 287.552 355.688 287.928C356.231 288.393 356.355 288.938 356.602 289.576C356.65 289.715 356.797 289.803 356.933 289.794C357.066 289.873 357.252 289.814 357.3 289.652C357.534 288.63 357.045 287.527 356.321 286.794Z" fill="#D89E50"/>
<path d="M339.262 290.173C339.044 289.802 338.793 289.452 338.471 289.17C337.81 288.584 336.929 288.379 336.057 288.61C335.256 288.823 334.561 289.41 334.161 290.122C333.963 290.485 333.812 290.885 333.737 291.292C333.672 291.633 333.562 292.099 333.864 292.349C334.038 292.493 334.345 292.416 334.343 292.154C334.34 292.142 334.337 292.13 334.346 292.116C334.313 291.886 334.518 291.497 334.603 291.288C334.731 290.993 334.885 290.705 335.074 290.457C335.423 289.994 335.908 289.673 336.476 289.581C337.079 289.48 337.569 289.733 337.959 290.186C338.313 290.598 338.676 291.495 339.314 291.486C339.403 291.489 339.503 291.439 339.536 291.368C339.734 290.955 339.478 290.532 339.262 290.173Z" fill="#815950"/>
<path d="M356.666 288.872C356.515 288.472 356.338 288.066 356.064 287.722C355.497 287.013 354.623 286.631 353.668 286.682C352.775 286.73 351.915 287.158 351.341 287.777C351.054 288.087 350.794 288.452 350.625 288.832C350.48 289.156 350.261 289.586 350.515 289.898C350.659 290.075 351.008 290.062 351.07 289.809C351.079 289.794 351.076 289.783 351.073 289.771C351.091 289.541 351.396 289.202 351.538 289.017C351.736 288.754 351.964 288.51 352.224 288.294C352.694 287.914 353.268 287.696 353.892 287.727C354.554 287.762 355.003 288.1 355.309 288.624C355.593 289.103 355.766 290.048 356.425 290.171C356.517 290.186 356.626 290.171 356.682 290.094C356.981 289.732 356.813 289.261 356.666 288.872Z" fill="#815950"/>
<path d="M340.958 308.252C339.499 307.141 337.081 307.32 335.54 308.093C333.698 309.017 332.386 312.06 332.574 314.014C332.662 314.868 334.139 318.114 335.128 316.14C335.321 315.754 336.012 312.391 336.544 312.709C337.528 313.276 337.627 314.777 338.578 315.415C338.894 315.624 339.837 315.175 339.817 314.742C339.794 313.897 339.662 313.067 339.456 312.243C339.255 311.443 338.707 310.304 339.838 311.159C340.691 311.809 341.645 313.159 342.91 312.943C345.727 312.451 342.896 308.918 340.958 308.252Z" fill="#F4C882"/>
<path d="M335.972 311.876C335.145 311.432 334.745 312.796 334.579 313.338C334.348 314.071 334.299 315.284 333.56 315.694C333.229 315.677 333.105 316.034 333.223 316.254C333.249 316.36 333.299 316.46 333.4 316.51C334.481 317.115 335.197 315.91 335.402 315.021C335.61 314.143 335.487 312.998 336.04 312.247C336.117 312.152 336.102 311.943 335.972 311.876Z" fill="#E5B46C"/>
<path d="M339.833 313.25C339.745 312.346 339.498 311.307 339.103 310.48C339.044 310.345 338.89 310.333 338.784 310.41C338.257 310.766 338.46 311.729 338.513 312.241C338.569 312.765 338.917 313.804 338.514 314.255C338.319 314.479 338.49 314.812 338.729 314.914C339.766 315.343 339.904 313.883 339.833 313.25Z" fill="#E5B46C"/>
<path d="M342.819 309.513C342.801 309.492 342.78 309.46 342.763 309.439C341.458 307.939 339.147 306.991 337.175 307.597C337.116 307.611 337.078 307.708 337.137 307.744C338.419 308.499 340.018 308.462 341.152 309.529C341.5 309.868 342.856 311.218 342.308 311.592C342.125 311.713 342.048 312.008 342.086 312.211C342.089 312.222 342.092 312.234 342.095 312.246C342.133 312.449 342.293 312.684 342.505 312.731C345.383 313.388 344.181 309.185 342.819 309.513Z" fill="#E5B46C"/>
<path d="M344.788 310.959C343.806 308.991 340.12 306.109 337.666 307.098C334.947 307.378 332.8 309.392 332.313 312.166C332.048 313.721 332.186 318.09 334.743 317.213C335.763 316.87 335.862 315.006 336.005 314.17C336.237 312.786 336.434 313.274 336.892 314.148C337.196 314.71 337.848 315.36 338.398 315.698C339.275 316.242 340.218 315.643 340.479 314.777C340.778 313.764 340.357 312.581 339.979 311.524C341.217 312.353 342.239 313.524 343.903 313.195C344.866 313.029 345.187 311.748 344.788 310.959ZM342.523 312.251C342.066 312.028 341.643 311.746 341.259 311.417C340.651 310.943 340.084 310.535 339.378 310.223C339.082 310.097 338.73 310.398 338.807 310.704C339.051 311.681 339.387 312.623 339.57 313.603C339.814 314.28 338.87 315.68 337.908 314.094C337.669 313.691 337.165 312.829 336.881 312.449C335.996 311.219 335.466 312.716 335.219 313.641C335.136 313.962 334.557 317.472 333.645 316.036C333.102 315.171 333.112 313.755 333.166 312.765C333.239 311.146 333.863 309.826 335.129 308.809C335.809 308.264 337.453 307.402 339.826 307.947C340.825 308.223 341.805 308.978 342.603 309.604C342.951 309.893 343.273 310.225 343.55 310.581C344.238 311.572 343.835 312.624 342.523 312.251Z" fill="#815950"/>
<path d="M367.931 305.884C367.012 302.761 363.644 300.851 360.578 302.556C360.513 302.598 360.463 302.648 360.427 302.707C358.6 303.589 357.883 305.545 357.949 308.018C357.966 308.79 358.423 310.214 359.522 309.689C360.297 309.32 360.78 308.286 361.141 307.32C361.601 308.706 362.338 310.498 363.598 310.208C365.117 309.853 364.974 307.975 364.748 306.518C365.341 307.233 365.795 308.095 366.877 308.15C368.186 308.21 368.182 306.735 367.931 305.884Z" fill="#F4C882"/>
<path d="M365.46 303.137C363.658 301.761 360.495 302.026 358.928 303.595C358.815 303.698 358.901 303.889 359.057 303.862C360.94 303.554 362.64 302.816 364.49 303.83C365.727 304.509 366.728 305.947 366.549 307.343C366.469 307.976 367.447 308.169 367.663 307.577C368.294 305.831 366.765 304.136 365.46 303.137Z" fill="#E5B46C"/>
<path d="M364.246 305.517C364.125 305.435 363.956 305.465 363.873 305.585C363.166 306.575 364.305 308.517 363.04 309.234C362.566 309.503 362.69 310.147 363.237 310.223C364.425 310.402 364.875 309.188 364.958 308.266C365.024 307.474 364.963 306.026 364.246 305.517Z" fill="#E5B46C"/>
<path d="M360.929 306.022C360.87 305.886 360.702 305.816 360.557 305.84C359.892 305.943 359.637 307.083 359.462 307.59C359.338 307.946 359.216 308.314 359.009 308.641C358.864 308.865 358.589 308.921 358.4 309.119C358.255 309.293 358.314 309.528 358.432 309.699C358.689 310.073 359.262 310.004 359.599 309.795C360.01 309.529 360.229 309.099 360.413 308.678C360.611 308.216 360.73 307.685 360.831 307.185C360.902 306.817 361.068 306.375 360.929 306.022Z" fill="#E5B46C"/>
<path d="M368.507 305.978C368.213 304.55 366.855 302.788 365.466 302.209C364.37 301.745 362.254 301.474 360.903 302.05C360.782 302.067 360.673 302.082 360.552 302.1C359.644 302.29 358.857 303.112 358.339 303.804C357.366 305.086 357.264 306.888 357.357 308.416C357.421 309.476 357.831 310.662 359.108 310.543C360.249 310.433 360.684 309.11 361.025 307.912C361.322 309.251 361.986 310.599 363.319 310.753C365.119 310.966 365.2 308.681 365.031 307.047C365.633 307.948 366.114 308.866 367.591 308.596C368.709 308.392 368.672 306.787 368.507 305.978ZM365.563 306.514C365.318 306.087 365.052 305.778 364.654 305.49C364.317 305.249 363.962 305.638 364.083 305.971C364.277 306.498 364.345 307.019 364.333 307.572C364.326 307.999 363.975 310.814 362.673 309.476C361.917 308.714 361.643 307.219 361.612 306.189C361.6 305.841 361.086 305.544 360.87 305.936C360.382 306.796 360.145 307.757 359.754 308.655C359.315 309.665 358.52 309.551 358.35 308.568C358.268 308.088 358.28 307.585 358.295 307.093C358.344 305.68 358.88 304.307 359.974 303.358C360.646 302.777 361.473 302.72 362.289 302.616C363.149 302.589 364.038 302.679 364.505 302.788C365.814 303.098 366.682 304.307 367.275 305.373C367.488 305.72 367.62 306.099 367.67 306.5C368.035 308.26 366.068 307.376 365.563 306.514Z" fill="#815950"/>
</g>
<defs>
<clipPath id="clip0_739_5434">
<rect width="13.2544" height="4.30768" fill="white" transform="translate(33.9883 155.254) rotate(-25.7586)"/>
</clipPath>
<clipPath id="clip1_739_5434">
<rect width="13.2544" height="4.30768" fill="white" transform="translate(20.0703 149.456) rotate(-63.7813)"/>
</clipPath>
<clipPath id="clip2_739_5434">
<rect width="13.2544" height="4.30768" fill="white" transform="translate(5.77637 150.725) rotate(-98.0024)"/>
</clipPath>
<clipPath id="clip3_739_5434">
<rect width="13.2544" height="4.30768" fill="white" transform="translate(7.03516 184.406) rotate(109.589)"/>
</clipPath>
<clipPath id="clip4_739_5434">
<rect width="13.2544" height="4.30768" fill="white" transform="translate(20.5586 181.655) rotate(76.4748)"/>
</clipPath>
<clipPath id="clip5_739_5434">
<rect width="13.2544" height="4.30768" fill="white" transform="translate(32.4414 177.812) rotate(59.178)"/>
</clipPath>
<clipPath id="clip6_739_5434">
<rect width="13.2544" height="4.30768" fill="white" transform="translate(38.3799 167.056) rotate(28.7535)"/>
</clipPath>
<clipPath id="clip7_739_5434">
<rect width="37" height="25" fill="white" transform="translate(-5 153.819)"/>
</clipPath>
<clipPath id="clip8_739_5434">
<rect width="130" height="45" fill="white" transform="translate(-19 265)"/>
</clipPath>
<clipPath id="clip9_739_5434">
<rect width="62.4055" height="53.6688" fill="white" transform="translate(309 269.143) rotate(-14.0428)"/>
</clipPath>
</defs>
</svg>
