<svg width="181" height="202" viewBox="0 0 181 202" fill="none" xmlns="http://www.w3.org/2000/svg">
<path d="M69.2586 104.485L105.816 108.212L99.2831 172.308L62.7253 168.581L69.2586 104.485Z" fill="#7B868D"/>
<path d="M27.262 64.0013C23.6635 99.307 49.3778 130.822 84.6508 134.421C101.894 136.178 118.218 130.963 130.874 120.978C144.096 110.655 153.261 95.0993 155.103 77.0318C160.21 26.9244 108.482 -8.47503 64.053 12.2914C44.2237 21.5126 29.6376 40.6718 27.262 64.0013Z" fill="#FFCA66"/>
<path d="M39.8201 56.2373C34.7175 106.312 86.3946 141.768 130.87 120.978C144.093 110.655 153.258 95.0993 155.099 77.0318C160.206 26.9244 108.478 -8.47503 64.0491 12.2914C50.8311 22.6184 41.6615 38.1744 39.8201 56.2373Z" fill="#FFDC9D"/>
<path d="M66.2416 72.0043C67.1038 85.8923 79.0051 96.3458 92.715 95.5118C101.974 94.9214 109.724 89.3597 113.538 81.6004C122.028 65.2197 109.283 44.2424 89.571 45.559C76.2406 46.4071 65.3373 57.9711 66.2416 72.0043Z" fill="#FFB262"/>
<path d="M92.4837 91.7212C100.341 91.2198 106.915 86.5014 110.153 79.9182C117.359 66.0208 106.54 48.2204 89.8176 49.3356C85.1039 49.6354 80.8307 51.4675 77.4477 54.3913C62.0744 67.2438 72.0406 92.9722 92.4837 91.7212Z" fill="#FFCA66"/>
<path d="M92.0424 84.4864C99.8111 83.9944 105.607 77.2566 105.12 69.5816C104.389 58.1207 90.768 52.4137 82.1231 59.9013C71.9086 68.4711 78.7214 85.3345 92.0424 84.4864Z" fill="#A470EE"/>
<path d="M95.5807 79.9603C98.6826 79.7635 101.489 78.5921 103.687 76.7039C104.783 74.6047 105.289 72.1635 105.121 69.5771C104.39 58.1162 90.7687 52.4092 82.1238 59.8967C77.5741 69.4225 84.7712 80.6491 95.5807 79.9603Z" fill="#BC8EFE"/>
<g opacity="0.7">
<path d="M85.5586 61.818C85.5773 63.2096 90.5581 62.9144 94.2409 65.3743C98.0362 67.6093 99.5497 70.8377 100.983 70.8471C102.342 71.1188 103.101 65.6789 97.6754 61.6774C92.1746 57.6525 85.2681 60.2999 85.5586 61.818Z" fill="white"/>
</g>
<path d="M8.14781 46.1352C11.751 29.0329 20.7567 14.0906 34.1948 2.9249C34.8977 2.33921 34.9961 1.29901 34.4104 0.596179C33.8247 -0.106656 32.7892 -0.200367 32.0817 0.380643C18.0671 12.029 8.67259 27.6131 4.91008 45.4558C4.72266 46.3507 5.2943 47.2269 6.18924 47.4143C7.07481 47.6017 7.96039 47.0348 8.14781 46.1352Z" fill="#3D4449" fill-opacity="0.28"/>
<path d="M21.1704 48.8761C23.8693 36.0704 30.326 24.5908 39.8471 15.6789C40.5124 15.0557 40.5499 14.0061 39.9267 13.3408C39.3035 12.6707 38.2587 12.6379 37.5886 13.2611C27.5709 22.6416 20.7721 34.721 17.9374 48.1967C17.4829 50.3239 20.7112 51.0502 21.1704 48.8761Z" fill="#3D4449" fill-opacity="0.28"/>
<path d="M180.957 63.4014C180.877 45.1746 174.819 28.0161 163.442 13.7766C162.875 13.0644 161.826 12.9473 161.118 13.5189C160.406 14.0906 160.289 15.1308 160.861 15.843C171.764 29.4873 177.574 45.943 177.649 63.4155C177.663 65.6177 180.966 65.599 180.957 63.4014Z" fill="#3D4449" fill-opacity="0.28"/>
<path d="M167.652 63.4577C167.591 49.6868 163.37 36.4829 155.451 25.2797C154.926 24.5347 153.896 24.3567 153.146 24.8862C152.401 25.4109 152.223 26.4464 152.752 27.1915C160.277 37.837 164.283 50.385 164.344 63.4764C164.354 65.6787 167.662 65.6552 167.652 63.4577Z" fill="#3D4449" fill-opacity="0.28"/>
<path d="M65.1698 144.439L62.7099 168.593L99.2666 172.318L101.727 148.164C89.9471 145.666 77.2164 144.368 65.1698 144.439Z" fill="#4B5458"/>
<path d="M13.7683 185.245C13.7074 187.133 15.1084 188.74 17.0154 188.932L139.918 201.462C141.792 201.654 143.488 200.36 143.844 198.505C144.144 196.874 144.411 195.206 144.613 193.594C145.859 184.945 145.925 176.806 142.879 173.104C125.149 151.349 57.9766 142.672 27.8062 155.852C24.7091 157.197 22.0243 158.753 19.8127 160.557C15.4223 164.132 14.0073 174.763 13.7683 185.245Z" fill="#EF8585"/>
<path d="M23.861 177.926C23.8001 179.814 25.2339 181.426 27.1081 181.613L144.613 193.594C145.859 184.945 145.925 176.806 142.879 173.104C125.149 151.349 57.9766 142.672 27.8062 155.852C25.0558 160.66 24.0718 169.337 23.861 177.926Z" fill="#FA8B8B"/>
<path d="M24.8799 165.467C23.7226 170.363 23.507 174.332 23.3009 175.996C23.2587 177.097 22.8792 178.469 23.4461 179.838C23.985 181.182 25.2501 182.213 26.712 182.49C27.0493 182.537 37.9714 184.017 37.2826 183.923C68.4463 188.112 107.21 190.942 121.777 191.266C111.849 189.448 96.6346 187.536 93.7858 187.133C61.5679 182.808 24.8565 180.512 27.0212 180.662C25.7046 180.517 24.5847 179.327 24.5753 177.804C24.5753 177.471 24.5378 172.181 24.5425 172.519C24.5988 170.171 24.6878 167.824 24.8799 165.467Z" fill="white"/>
<path d="M96.2854 141.979C96.4072 140.798 95.5451 139.744 94.3643 139.622L40.6397 134.149C26.4143 132.696 16.0217 119.942 17.4695 105.717L18.1255 99.2743C18.2473 98.0936 17.3852 97.0393 16.2044 96.9175C15.0237 96.7676 13.9647 97.6578 13.8476 98.8386L13.1916 105.281C11.5001 121.868 23.617 136.731 40.2039 138.422L93.9286 143.9C95.0812 144.026 96.1589 143.183 96.2854 141.979Z" fill="#7B868D"/>
<path d="M0.0372658 90.2685C0.63702 99.7005 8.7243 106.823 18.0439 106.232C27.49 105.632 34.5324 97.4421 33.942 88.1131C33.3469 78.7935 25.2597 71.6715 15.8838 72.2712C6.94847 72.8335 -0.576542 80.6537 0.0372658 90.2685Z" fill="#45BD83"/>
<path d="M4.34033 84.8235C5.25871 99.2457 22.0939 105.459 32.196 96.7717C33.5267 94.2181 34.1405 91.2521 33.939 88.1081C33.344 78.7885 25.2567 71.6665 15.8809 72.2662C12.109 72.5052 8.69791 73.9858 5.98028 76.3427C4.76672 78.8869 4.14823 81.7967 4.34033 84.8235Z" fill="#5BDDA2"/>
<path d="M10.1653 78.6763C10.184 80.3678 16.2425 80.007 20.7219 83.0011C25.3371 85.7187 27.1739 89.6405 28.9216 89.6499C30.5756 89.9826 31.4987 83.3712 24.9014 78.5029C18.2104 73.6112 9.81388 76.8302 10.1653 78.6763Z" fill="#79EDBC"/>
<g opacity="0.5">
<path d="M123.058 166.76C123.911 167.444 124.496 168.297 123.47 168.681C122.407 169.084 120.331 168.728 118.672 168.33C113.94 167.201 109.306 165.683 106.143 163.757C103.074 161.883 107.099 160.524 116.348 163.48C119.094 164.357 121.488 165.509 123.058 166.76Z" fill="white"/>
<path d="M99.8347 161.976C89.1563 161.058 88.4112 158.162 96.461 159.427C101.456 160.214 104.53 162.379 99.8347 161.976Z" fill="white"/>
</g>
<path d="M137.992 49.2698C136.647 48.2343 135.213 45.4604 133.831 43.1879C130.064 36.6516 124.324 30.6494 120.416 25.9451C115.782 20.5754 129.74 23.7054 136.998 36.1362C141.421 43.5581 140.653 51.3267 137.992 49.2698Z" fill="white"/>
<path d="M114.514 20.6972C113.633 20.9549 111.398 20.3645 109.467 19.8913C103.999 18.495 97.9223 17.5813 92.7822 16.7379C90.2473 16.335 89.5866 15.4916 92.4027 14.8777C103.967 12.4694 117.227 19.9007 114.514 20.6972Z" fill="white"/>
</svg>
