<svg width="395" height="366" viewBox="0 0 395 366" fill="none" xmlns="http://www.w3.org/2000/svg">
<path opacity="0.75" d="M205.511 90.5437C207.83 90.8685 210.53 91.9899 209.7 92.4141C208.921 93.0482 210.21 94.5126 211.148 96.0627C212.085 97.6128 210.067 96.9924 210.424 98.4614C210.782 99.9303 211.566 100.851 210.838 101.695C210.11 102.539 210.843 103.25 211.149 104.509C211.507 105.978 209.438 105.147 209.016 107.25C208.692 108.218 209.425 108.929 210.436 110.017C211.271 111.147 211.174 112.282 209.536 112.458C207.899 112.634 206.165 113.945 203.521 114.589C200.878 115.232 182.344 118.852 177.688 120.43C173.031 122.007 164.855 125.997 162.842 126.931C160.704 128.118 138.972 140.074 125.95 149.466C112.927 158.858 93.2555 176.981 85.7017 186.598C78.1479 196.215 62.0206 219.699 56.216 232.669C50.4624 245.85 45.1026 256.044 43.8803 267.9C42.709 279.965 42.4946 299.799 44.5551 305.966C44.5551 305.966 43.0661 305.217 40.8063 299.766C38.5466 294.314 33.5017 276.649 32.4839 265.561C31.4941 255.355 33.8646 232.106 42.6786 214.625C51.4925 197.144 59.5784 180.507 73.1097 164.767C86.641 149.028 94.297 139.83 111.618 127.392C128.888 114.744 131.606 113.638 132.812 112.455C134.018 111.273 134.672 110.892 136.082 110.549C137.491 110.205 138.117 108.942 139.249 108.222C140.432 107.712 154.289 99.4504 169.998 94.9615C185.882 90.4297 199.713 89.7317 205.511 90.5437Z" fill="#CFF5D0"/>
<path opacity="0.75" d="M313.524 151.615C313.524 151.615 302.919 168.643 296.042 177.206C289.342 185.727 267.97 216.044 239.569 230.511C211.167 244.979 188.191 254.125 149.158 260.955C110.124 267.785 89.919 260.699 81.7082 253.806C73.4974 246.913 62.6316 229.108 59.7311 220.256C59.7311 220.256 63.1305 243.434 64.6391 250.402C66.1989 257.58 71.555 278.059 89.2977 287.3C106.864 296.585 135.839 295.981 159.284 291.832C182.729 287.683 218.65 276.499 235.8 265.658C252.949 254.817 279.569 234.559 285.848 228.142C292.076 221.514 294.584 218.014 293.754 218.439C292.924 218.863 287.702 225.023 286.497 226.206C285.291 227.388 276.925 235.203 273.809 237.739C271.17 239.937 267.85 241.634 267.196 242.015C268.202 241.548 274.31 236.728 276.471 234.869C278.581 232.799 281.544 229.633 282.147 229.042C282.75 228.451 282.722 227.569 283.552 227.144C284.382 226.72 284.734 226.634 285.161 226.086C285.537 225.328 287.373 224.437 288.101 223.593C288.829 222.749 289.028 222.033 289.279 221.528C289.529 221.022 290.308 220.388 290.508 219.673C290.883 218.915 291.008 218.662 291.838 218.238C292.72 218.023 293.675 217.346 293.874 216.631C294.074 215.916 294.677 215.325 295.029 215.239C295.382 215.153 296.791 214.81 297.167 214.052C297.417 213.546 304.47 204.94 306.627 201.526C308.959 198.069 310.211 195.542 310.586 194.783C310.962 194.025 310.934 193.143 311.286 193.057C311.764 192.719 312.014 192.213 311.963 192.003C311.861 191.584 312.061 190.868 312.538 190.53C313.016 190.191 313.591 188.718 314.462 185.394C315.51 182.027 315.76 181.522 315.787 173.958C315.864 166.605 315.347 154.506 313.524 151.615ZM289.923 194.254C289.371 195.055 288.769 195.647 288.217 196.448C284.201 201.426 274.06 213.451 265.916 219.877C255.259 228.249 239.547 239.629 234.441 242.428C229.335 245.226 228.63 245.398 227.47 245.235C226.311 245.073 226.765 245.407 224.349 246.217C221.933 247.027 219.595 248.929 218.589 249.396C217.583 249.864 207.24 254.158 195.585 257.661C183.754 261.206 164.766 264.493 164.766 264.493C164.766 264.493 194.829 257.622 207.713 252.265C220.773 246.865 225.402 244.405 227.54 243.218C229.677 242.031 245.001 235.191 259.048 223.105C271.889 212.201 281.966 203.748 288.041 196.49C289.32 194.845 290.048 194.001 289.923 194.254Z" fill="#CFF5D0"/>
<path opacity="0.75" d="M357.286 134.299C355.662 130.694 353.704 124.947 350.188 120.468C346.671 115.989 334.67 105.795 327.151 102.512C319.632 99.2295 303.064 94.8145 289.854 92.6942C276.519 90.8265 268.685 91.6212 264.427 91.7681C260.169 91.915 254.979 92.0665 252.359 92.0373C249.789 92.2179 234.98 94.2653 229.716 94.8793C224.628 95.4505 216.316 96.5836 212.138 97.8227C208.135 99.0188 192.876 102.287 190.358 102.677C187.839 103.068 181.216 104.235 177.742 105.302C174.269 106.37 168.003 109.006 164.58 110.283C161.157 111.56 142.935 117.994 138.284 121.127C133.808 124.216 131.568 124.983 128.8 125.879C126.207 126.732 124.023 129.264 123.318 129.436C122.613 129.607 110.49 136.558 106.919 138.76C103.348 140.963 91.8658 151.314 85.3366 158.237C78.7562 164.95 72.5333 173.132 68.9491 179.116C65.3649 185.101 62.6059 189.106 60.5254 200.503C58.5702 211.648 59.1235 219.293 60.4609 227.858C61.7982 236.424 62.8111 245.957 65.0527 253.636C67.2943 261.314 69.9577 266.89 71.02 268.187C71.02 268.187 65.9112 230.311 84.6212 202.865C103.155 175.461 140.65 152.335 192.474 134.392C244.297 116.448 303.653 121.788 317.453 127.099C317.453 127.099 318.408 126.422 313.969 125.057C309.354 123.735 303.556 122.923 303.556 122.923C303.556 122.923 307.484 122.189 316.942 125.001C326.4 127.812 332.458 131.227 337.078 134.104C341.471 136.814 346.801 141.074 349.868 146.773C352.883 152.263 356.262 160.777 357.895 167.492C359.529 174.207 359.544 178.871 359.818 177.693C360.091 176.515 361.466 165.289 360.778 154.788C359.913 144.329 358.91 137.905 357.286 134.299ZM286.627 100.147C280.147 98.8345 275.412 99.3198 273.371 99.3719C271.33 99.4239 270.347 99.2186 268.357 99.4804C266.367 99.7423 268.505 98.5553 266.288 98.6502C264.071 98.7451 261.252 99.4312 257.801 99.8262C254.35 100.221 251.173 99.4385 247.119 100.425C243.242 101.368 235.784 101.405 230.974 102.353C226.164 103.301 221.179 104.291 217.25 105.025C213.322 105.759 210.121 105.648 206.42 106.549C202.896 107.406 198.035 108.144 201.407 106.657C203.067 105.809 209.713 103.969 213.062 103.155C216.234 102.383 223.613 101.254 226.308 100.821C229.002 100.387 261.594 96.236 266.937 96.7141C272.281 97.1922 290.476 98.3217 298.065 99.5872C305.477 100.896 310.927 103.348 310.927 103.348C310.927 103.348 293.107 101.46 286.627 100.147Z" fill="#CFF5D0"/>
<path opacity="0.75" d="M356.245 132.33C355.586 131.157 351.987 156.26 348.862 164.133C345.738 172.006 330.464 194.393 321.472 203.471C312.48 212.549 283.222 235.004 280.532 236.992C278.019 238.938 275.927 238.78 274.192 240.091C272.458 241.402 274.062 238.789 271.799 240.229C269.536 241.668 251.931 252.175 248.309 254.168C244.687 256.16 231.28 263.201 226.248 265.537C221.216 267.873 183.468 283.058 168.891 286.827C154.138 290.639 127.924 295.684 117.748 296.826C107.572 297.968 93.8155 298.204 83.5605 298.254C73.3055 298.304 63.8429 293.938 57.938 291.152C52.0841 288.575 48.3403 283.93 45 279.408C41.887 275.053 34.5887 261.937 32.5975 253.753C32.5975 253.753 30.9848 261.702 33.4685 274.212C35.9522 286.722 42.3708 308.498 51.9685 315.721C61.5662 322.943 80.816 330.706 104.772 328.656C128.551 326.649 154.487 321.228 158.717 320.198C162.947 319.169 175.937 315.786 178.581 315.143C181.225 314.5 182.936 313.861 185 313.137C187.064 312.412 186.581 311.196 185.524 311.453C184.466 311.711 184.87 311.835 183.335 312.43C181.8 313.026 181.197 313.617 180.213 313.412C179.23 313.207 178.701 313.336 177.695 313.803C176.689 314.27 176.109 314.189 174.699 314.532C173.289 314.875 173.641 314.789 172.106 315.385C170.571 315.981 169.736 314.85 169.736 314.85C169.736 314.85 170.868 314.13 172.278 313.787C173.687 313.444 180.737 311.729 182.096 311.176C183.279 310.666 185.041 310.237 186.326 310.147C187.611 310.056 188.97 309.504 190.027 309.246C191.084 308.989 190.551 307.563 191.608 307.306C192.666 307.048 192.239 307.597 193.649 307.254C195.059 306.911 196.668 305.852 197.902 305.552C199.136 305.252 200.387 302.725 202.15 302.296C203.912 301.867 204.817 300.98 205.424 301.944C206.032 302.907 206.51 302.569 206.357 301.939C206.203 301.309 205.846 299.841 207.029 299.331C208.211 298.821 209.621 298.477 211.105 297.672C212.589 296.866 216.086 295.126 217.32 294.826C218.554 294.526 219.764 294.898 219.764 294.898C219.764 294.898 215.637 296.347 213.976 297.196C212.316 298.044 209.877 299.527 211.286 299.184C212.696 298.841 214.459 298.412 215.516 298.154C216.574 297.897 217.028 298.231 218.336 297.468C219.644 296.706 220.02 295.947 221.731 295.309C223.442 294.67 223.642 293.955 225.404 293.526C227.166 293.097 227.871 292.926 228.576 292.754C229.281 292.583 231.169 291.901 232.352 291.391C233.534 290.881 233.455 289.789 234.638 289.279C235.82 288.769 239.419 287.449 240.602 286.939C241.785 286.429 243.57 285.327 244.702 284.607C245.833 283.888 247.795 282.744 249.154 282.191C250.513 281.638 250.137 282.396 252.076 281.924C254.015 281.452 254.748 282.163 257.386 279.965C260.025 277.767 259.445 277.686 260.827 276.461C262.209 275.236 265.177 273.624 267.19 272.69C269.203 271.756 269.931 270.912 270.988 270.654C272.046 270.397 272.751 270.226 272.37 269.429C271.99 268.633 272.843 267.536 273.576 268.247C274.309 268.957 275.492 268.447 275.492 268.447C277.226 267.136 279.035 265.363 280.092 265.105C281.15 264.848 281.752 264.257 283.663 262.903C285.574 261.549 285.574 261.549 286.756 261.039C287.939 260.529 287.201 258.263 288.685 257.458C290.169 256.652 293.012 255.294 294.57 254.026C296.129 252.757 297.413 252.667 298.972 251.399C300.53 250.131 300.609 251.223 296.384 253.807C292.159 256.39 292.187 257.273 293.722 256.677C295.257 256.081 297.015 254.098 299.329 252.868C301.643 251.638 302.246 251.047 302.798 250.246C303.35 249.444 302.44 248.777 303.873 247.761C305.306 246.746 307.769 244.591 309.202 243.575C310.635 242.56 313.353 241.454 314.558 240.271C315.764 239.089 317.601 238.198 318.63 237.058C319.66 235.918 321.167 234.44 320.462 234.612C319.757 234.783 317.772 236.6 316.038 237.911C314.303 239.222 312.842 239.355 312.842 239.355C312.842 239.355 314.651 237.582 316.436 236.48C318.222 235.379 318.546 234.411 319.979 233.396C321.412 232.38 322.214 231.074 321.686 231.202C321.157 231.331 318.615 232.394 319.821 231.212C321.027 230.029 322.636 228.971 324.496 227.407C326.355 225.843 328.159 222.515 328.159 222.515C328.159 222.515 328.767 223.478 327.839 225.037C326.912 226.597 326.235 227.65 327.844 226.592C329.454 225.534 328.726 226.378 330.358 224.647C331.99 222.916 334.578 220.508 336.813 218.186C339.048 215.864 339.577 215.736 340.379 214.429C341.181 213.123 341.636 213.457 341.181 213.123C340.727 212.789 339.92 212.541 339.92 212.541C341.603 211.02 341.825 209.632 343.082 208.659C344.339 207.687 345.637 203.815 346.791 202.422C347.946 201.03 350.056 198.961 350.682 197.697C351.308 196.434 351.985 195.38 353.037 193.568C354.09 191.756 355.587 187.168 356.162 185.695C356.737 184.221 357.335 182.075 357.506 180.478C357.678 178.88 358.999 174.336 359.28 167.821C361.273 160.668 360.625 138.821 356.245 132.33ZM313.363 220.78C306.629 226.864 297.206 234.936 294.994 236.585C292.958 238.192 284.179 242.773 280.46 245.901C276.689 248.819 265.42 254.672 261.547 257.17C257.675 259.669 233.879 272.349 226.027 275.371C218.175 278.392 196.029 287.115 191.623 288.187C187.393 289.216 184.17 289.778 182.635 290.374C181.1 290.97 178.786 292.199 176.494 292.757C174.203 293.314 173.475 294.158 171.713 294.587C169.774 295.059 168.364 295.402 166.426 295.874C164.487 296.345 111.911 307.359 102.254 305.264C100.69 304.977 134.038 300.864 136.733 300.431C139.428 299.998 161.059 296.068 167.626 293.136C174.244 290.415 193.858 285.865 198.288 284.12C202.893 282.333 233.238 268.948 236.536 267.924C239.833 266.899 253.839 257.712 258.592 255C263.17 252.33 281.911 242.658 287.671 239.479C293.431 236.299 301.092 228.656 306.295 224.723C311.322 220.832 328.327 204.025 331.541 200.354C331.893 200.268 320.222 214.444 313.363 220.78Z" fill="#CFF5D0"/>
<g clip-path="url(#clip0_782_14295)">
<path d="M284.938 289.309L384.879 289.309C384.879 289.309 344.187 389.899 227.556 359.775C110.924 329.651 55.5443 386.524 27.8914 347.361C0.238461 308.198 55.6183 288.191 55.6183 288.191L284.938 289.309Z" fill="#F2F2F2"/>
<path d="M332.545 289.309L228.945 289.309L228.945 198.011L326.938 198.011C337.139 198.011 345.408 206.961 345.408 218.002L332.547 289.311L332.545 289.309Z" fill="#BF9A76"/>
<path d="M248.527 159.028C244.785 168.975 236.814 187.736 234.367 189.313C231.346 191.261 202.635 189.313 202.635 189.313C202.715 186.746 205.409 180.106 206.152 176.464L207.241 175.037C207.241 175.037 207.197 172.747 206.783 169.755C206.607 168.48 206.364 167.078 206.029 165.671C205.404 163.044 204.569 160.334 203.488 158.261C204.947 158.261 206.355 158.152 207.68 157.971C211.817 157.402 215.148 156.113 216.718 155.145C219.696 153.307 227.01 147.411 232.367 139.284C235.736 142.871 238.935 144.933 241.913 145.902C242.982 149.76 245.101 155.8 248.527 159.028Z" fill="#FDA67D"/>
<path d="M248.527 159.028C244.785 168.975 236.814 187.736 234.367 189.313C231.346 191.261 202.635 189.313 202.635 189.313C202.715 186.746 205.409 180.106 206.152 176.464L207.241 175.037C207.241 175.037 239.546 175.527 247.305 158.261C247.36 158.138 247.414 158.016 247.467 157.895C247.806 158.302 248.158 158.681 248.527 159.028Z" fill="#FDA67D"/>
<path d="M238.457 111.835C237.944 109.514 236.982 107.336 235.897 105.425C234.207 102.45 232.212 100.132 231.126 98.9687C231.131 98.9687 231.137 98.9687 231.142 98.9687C231.379 98.9782 231.494 98.6909 231.326 98.5236C230.402 97.6095 231.042 96.8076 231.042 96.8076C232.121 96.8076 233.201 96.7365 234.249 96.6213C234.397 96.6039 234.544 96.5866 234.69 96.5676C235.354 98.05 237.646 103.626 238.457 111.835Z" fill="#333E5B"/>
<path d="M230.152 136.731C230.898 137.657 231.637 138.506 232.367 139.284C227.01 147.411 219.696 153.307 216.718 155.145C215.148 156.113 211.817 157.402 207.68 157.971C206.354 158.152 204.947 158.261 203.488 158.261L203.486 158.261C202.291 158.261 201.062 158.188 199.815 158.024C194.26 157.293 188.369 154.745 183.679 148.713C182.648 147.391 181.677 145.9 180.78 144.225C180.444 143.599 180.122 142.958 179.813 142.303C178.302 139.118 177.085 135.62 176.11 131.991C175.696 130.453 175.325 128.895 174.994 127.326C173.192 118.808 172.524 110.005 172.321 103.125C172.098 95.5794 172.431 90.3494 172.431 90.3494L172.562 85.8992L173.28 83.1649L173.335 82.0757C179.81 88.9728 198.296 92.9999 204.793 94.2328C205.141 94.2991 205.314 93.835 205.015 93.6471C201.514 91.4655 201.041 88.1503 201.041 88.1503C218.449 97.7879 228.392 98.8709 231.127 98.9688C232.213 100.132 234.207 102.45 235.898 105.425C237.518 118.711 234.591 127.972 232.351 132.813C231.155 135.405 230.154 136.731 230.154 136.731L230.152 136.731Z" fill="#FDA67D"/>
<path d="M231.5 136.5C232.246 137.425 231.637 138.506 232.368 139.284C227.011 147.411 219.697 153.307 216.718 155.145C215.149 156.113 211.818 157.402 207.681 157.971C206.355 158.152 204.948 158.261 203.489 158.261L203.487 158.261C202.292 158.261 201.063 158.189 199.816 158.024C194.26 157.294 188.37 154.746 183.68 148.714C182.649 147.391 181.678 145.9 180.78 144.226C180.445 143.599 180.122 142.958 179.814 142.303C178.302 139.119 177.086 135.62 176.111 131.991C175.697 130.453 175.326 128.895 174.995 127.326C173.962 122.445 173.303 117.472 172.889 112.82C182.394 113.361 221.931 114.968 235.809 105.272C235.839 105.323 235.869 105.375 235.897 105.426C237.517 118.711 234.591 127.972 232.35 132.813C231.154 135.406 231.5 136.5 231.5 136.5Z" fill="#FDA67D"/>
<path d="M243.571 94.255C243.563 94.3592 243.497 94.4507 243.398 94.487C242.847 94.686 240.925 95.3521 238.376 95.9205C237.247 96.1715 235.997 96.4035 234.687 96.5677C234.541 96.5866 234.395 96.604 234.247 96.6214C233.245 96.7319 232.214 96.8013 231.185 96.8077C231.089 96.8077 230.999 96.8597 230.955 96.945C230.818 97.2118 230.628 97.8369 231.323 98.5236C231.492 98.691 231.377 98.9783 231.139 98.9688C231.134 98.9688 231.128 98.9688 231.123 98.9688C228.416 98.8725 218.644 97.8101 201.558 88.4361C201.352 88.324 201.112 88.5135 201.178 88.7392C201.496 89.8253 202.479 92.1775 205.27 93.8019C205.523 93.9503 205.375 94.3418 205.086 94.2881C199 93.1468 180.672 89.2428 173.747 82.4972C173.585 82.3394 173.313 82.4452 173.302 82.6725L173.277 83.165L172.43 90.3384C172.43 90.3384 172.428 90.3526 172.427 90.3605C172.411 90.6257 172.099 95.7784 172.316 103.125L172.239 103.091L168.009 106.827C167.866 106.954 167.641 106.89 167.584 106.709C166.58 103.496 159.965 80.9439 167.707 67.7795C169.905 64.0445 173.71 60.5604 178.535 57.7078C192.048 49.7167 213.56 46.6668 230.144 56.8601C230.144 56.8601 241.361 64.2229 243.407 83.5265C243.75 86.7596 243.834 90.3289 243.568 94.255L243.571 94.255Z" fill="#551700"/>
<path d="M243.572 94.255C243.564 94.3592 243.496 94.4507 243.398 94.487C242.846 94.686 240.925 95.3521 238.377 95.9205C237.248 96.1715 235.998 96.4035 234.688 96.5677C234.542 96.5866 234.395 96.604 234.247 96.6214C233.246 96.7319 232.215 96.8013 231.186 96.8077C231.09 96.8077 231 96.8597 230.956 96.945C230.819 97.2118 230.628 97.8369 231.324 98.5236C231.494 98.691 231.378 98.9783 231.14 98.9688L231.124 98.9688C228.417 98.8725 218.645 97.8101 201.559 88.4361C201.352 88.324 201.113 88.515 201.179 88.7408C201.497 89.8253 202.479 92.1775 205.271 93.8035C205.524 93.9503 205.374 94.3434 205.086 94.2881C199.002 93.1484 180.675 89.2428 173.75 82.4988C173.671 82.423 173.569 82.4073 173.484 82.4373L173.334 82.0757C168.268 89.7795 168.013 106.827 168.013 106.827C167.87 106.954 167.645 106.892 167.588 106.709C166.584 103.496 159.969 80.9454 167.711 67.7795C169.909 64.0445 173.714 60.5604 178.539 57.7078C192.052 49.7167 213.564 46.6668 230.148 56.8601C230.148 56.8601 241.365 64.2229 243.411 83.5265C243.754 86.7596 243.838 90.3289 243.572 94.255Z" fill="#3F4B69"/>
<path d="M235.808 105.272C221.93 114.968 182.393 113.361 172.888 112.82C172.579 109.351 172.408 106.063 172.321 103.125C172.098 95.5794 172.431 90.3494 172.431 90.3494L173.335 82.0757C179.81 88.9728 198.296 92.9999 204.793 94.2328C205.139 94.2991 205.314 93.835 205.013 93.6471C201.512 91.467 201.04 88.1503 201.04 88.1503C218.448 97.7879 228.391 98.8709 231.125 98.9688C232.192 100.112 234.138 102.371 235.808 105.272Z" fill="#FC9F73"/>
<path d="M263.134 130.635C263.885 131.63 264.089 132.956 263.442 134.021C260.73 138.477 252.777 149.443 241.913 145.902C238.935 144.933 235.736 142.871 232.367 139.284C231.964 138.855 231.559 138.404 231.152 137.931C230.553 137.236 230.532 136.211 230.997 135.42C231.372 134.782 231.843 133.912 232.35 132.815C233.454 130.428 234.724 126.968 235.536 122.483C240.075 125.855 248.681 129.607 258.311 121.93C259.748 125.26 261.355 128.278 263.134 130.635Z" fill="#3F4B69"/>
<path d="M183.679 148.713C180.695 150.339 177.58 150.197 175.298 149.697C173.455 149.294 172.902 147.073 173.559 145.305C174.033 144.031 174.429 142.586 174.758 141.106C175.995 141.889 177.461 142.34 179.032 142.34C179.295 142.34 179.556 142.328 179.813 142.303C180.121 142.958 180.444 143.599 180.779 144.225C181.677 145.9 182.648 147.391 183.679 148.713Z" fill="#232C42"/>
<path d="M176.11 131.991C177.085 135.62 178.301 139.119 179.813 142.303C179.556 142.328 179.295 142.341 179.032 142.341C177.461 142.341 175.995 141.889 174.758 141.106C175.515 137.698 175.918 134.105 176.11 131.991Z" fill="#3F4B69"/>
<path d="M176.269 101.997C178.372 99.9949 183.177 96.7792 188.216 102.732C188.567 103.147 188.151 103.751 187.619 103.605C185.478 103.018 181.478 102.252 176.747 102.931C176.206 103.009 175.878 102.369 176.269 101.997Z" fill="#D4794E"/>
<path d="M199.827 103.23C201.861 100.937 206.6 97.1582 212.235 103.196C212.627 103.616 212.242 104.294 211.68 104.174C209.424 103.692 205.232 103.144 200.388 104.199C199.832 104.32 199.449 103.656 199.827 103.23Z" fill="#D4794E"/>
<path d="M192.089 111.851C192.089 111.851 194.781 122.855 191.831 132.682C191.42 134.049 192.598 135.41 194.019 135.458C195.491 135.507 197.492 135.107 199.845 133.456" stroke="#D5794E" stroke-width="2" stroke-miterlimit="10" stroke-linecap="round"/>
<path d="M191.434 144.173C191.434 144.173 198.061 149.541 208.257 143.534" stroke="#D5794E" stroke-width="2" stroke-miterlimit="10" stroke-linecap="round"/>
<path d="M319.805 222.147C319.805 222.147 314.517 223.352 307.345 225.5C297.824 228.354 284.983 232.873 276.789 238.444C276.212 233.736 275.735 228.465 275.5 222.817C275.215 216.066 275.277 208.773 275.919 201.252C278.617 169.692 283.5 166.206 283.576 166.154C283.576 166.154 311.77 200.201 319.804 222.147L319.805 222.147Z" fill="#9DE9A0"/>
<path d="M283.579 166.153C283.503 166.206 278.62 169.692 275.922 201.252C275.28 208.773 275.218 216.066 275.503 222.817C275.738 228.465 276.215 233.736 276.792 238.444C277.849 247.069 279.239 253.81 280.103 257.54C280.588 259.635 280.906 260.781 280.906 260.781L279.84 262.022L228.947 282.706C228.947 282.706 212.602 279.927 210.11 280.205C207.616 280.483 196.165 293.046 196.165 293.046L183.87 226.612L166.713 226.612C166.713 226.612 164.447 181.259 168.978 172.625C169.469 171.691 170.313 170.761 171.428 169.845C172.934 168.715 174.102 167.974 174.738 167.594C174.763 167.58 174.789 167.564 174.811 167.551C174.94 167.477 175.072 167.401 175.206 167.324C175.253 167.297 175.277 167.285 175.277 167.285C182.065 163.461 192.519 160.103 199.817 158.024C201.064 158.188 202.294 158.261 203.488 158.261L203.49 158.261C204.571 160.334 205.406 163.044 206.031 165.671C206.366 167.078 206.609 168.48 206.785 169.755C206.963 171.446 206.851 170.69 207.243 175.037C207.263 175.263 206.206 176.207 206.154 176.464C205.411 180.106 202.717 186.746 202.637 189.313C202.637 189.313 231.348 191.261 234.368 189.313C236.816 187.736 244.787 168.975 248.529 159.028C248.672 158.648 248.801 158.316 248.916 158.023C249.547 156.422 251.312 155.592 252.944 156.125L283.58 166.153L283.579 166.153Z" fill="#FFC93C"/>
<path d="M283.579 166.153C283.503 166.206 278.62 169.692 275.922 201.252C275.28 208.773 275.218 216.066 275.503 222.817C275.738 228.465 276.215 233.736 276.792 238.444C277.849 247.069 279.239 253.81 280.103 257.54C280.588 259.635 280.906 260.781 280.906 260.781L279.84 262.022L228.947 282.706C228.947 282.706 212.602 279.927 210.11 280.205C207.616 280.483 196.165 293.046 196.165 293.046L183.87 226.612L166.713 226.612C166.713 226.612 164.447 181.259 168.978 172.625C169.469 171.691 170.313 170.761 171.428 169.845C172.934 168.715 174.102 167.975 174.738 167.594C174.763 167.58 174.789 167.564 174.811 167.551C174.94 167.477 175.072 167.401 175.206 167.324C175.253 167.297 175.277 167.285 175.277 167.285C182.065 163.461 192.519 160.103 199.817 158.024C201.064 158.189 202.294 158.261 203.488 158.261L203.49 158.261C204.571 160.334 205.406 163.044 206.031 165.671C206.366 167.078 206.609 168.48 206.785 169.755C206.963 171.446 206.851 170.69 207.243 175.037C207.263 175.263 206.206 176.207 206.154 176.464C205.677 178.806 204.392 182.386 203.515 185.325L203.515 185.329C203.027 186.961 202.667 188.397 202.637 189.313C202.637 189.313 202.745 189.321 202.95 189.334L202.637 191.559C202.637 191.559 232.742 195.759 237.174 191.559C241.607 187.362 252.944 156.125 252.944 156.125L283.58 166.153L283.579 166.153Z" fill="#9DE9A0"/>
<path d="M171.426 169.845C170.312 170.761 169.468 171.691 168.977 172.625C164.446 181.259 166.712 226.612 166.712 226.612L167.929 226.612L167.351 227.328L142.654 227.328L143.561 220.966C143.561 220.966 144.014 218.013 151.717 196.883C157.035 182.294 166.238 173.743 171.426 169.845Z" fill="#FFC93C"/>
<path d="M171.426 169.845C170.311 170.761 169.467 171.691 168.976 172.625C166.295 177.735 165.993 195.708 166.195 209.528C158.023 211.998 151.255 211.018 147.105 209.813C148.24 206.528 149.739 202.304 151.716 196.883C157.034 182.294 166.237 173.743 171.426 169.845Z" fill="#9DE9A0"/>
<path d="M252.942 156.125C252.942 156.125 241.605 187.362 237.172 191.559C232.74 195.759 202.635 191.559 202.635 191.559L202.948 189.334C206.07 189.537 231.531 191.141 234.367 189.313C236.814 187.736 244.785 168.975 248.527 159.028C248.67 158.648 248.799 158.316 248.914 158.023C249.545 156.422 251.31 155.592 252.942 156.125Z" fill="#6DC270"/>
<path d="M247.744 308.834L247.744 308.539C247.758 308.637 247.758 308.736 247.744 308.834Z" stroke="#0000FF" stroke-width="2.46" stroke-miterlimit="10"/>
<path d="M273.65 215.886C273.833 214.653 275.738 214.815 275.742 216.061C275.764 223.792 275.99 232.791 276.791 238.444C278.431 250.02 283.579 267.574 283.579 267.574L228.945 282.706C228.945 282.706 266.047 275.065 269.472 246.828C270.919 234.894 272.446 224.018 273.65 215.886Z" fill="#70BE72"/>
<path d="M253.744 309.063L203.172 326.846L203.172 323.449L203.181 323.452L248.111 307.504L253.344 305.646C253.623 305.547 253.859 305.38 253.908 305.146C254.1 304.213 254.133 305.858 254.136 308.507C254.136 308.756 253.98 308.979 253.746 309.061L253.744 309.063Z" fill="#CCCCCC"/>
<path d="M253.982 304.59L253.982 304.887C253.935 305.209 253.729 305.509 253.343 305.646L248.11 307.504L203.18 323.452C203.18 323.452 203.177 323.452 203.171 323.449C202.889 323.379 195.77 321.595 195.366 321.595C195.109 321.595 194.771 319.98 194.554 318.771C194.424 318.05 194.338 317.472 194.338 317.472L195.983 303.747L253.017 303.747C253.578 303.747 253.921 304.148 253.982 304.59Z" fill="#B3B3B3"/>
<path d="M313.158 275.206C310.941 282.984 302.077 286.04 294.597 287.985C287.117 289.928 230.328 298.817 230.328 298.817C230.328 298.817 222.554 304.212 218.677 302.545C214.798 300.877 212.303 299.245 205.517 305.225C205.517 305.225 200.805 310.389 199.142 309.555C197.482 308.722 196.164 293.046 196.164 293.046C196.164 293.046 207.615 280.483 210.109 280.205C212.601 279.927 228.946 282.706 228.946 282.706L279.839 262.022L280.905 260.781C280.905 260.781 280.587 259.635 280.102 257.542C279.238 253.81 277.848 247.069 276.791 238.444C284.985 232.873 297.826 228.355 307.347 225.502C307.347 225.502 315.374 267.428 313.159 275.206L313.158 275.206Z" fill="#FDA67D"/>
<path d="M230.328 298.817C230.328 298.817 222.554 304.212 218.677 302.545C214.798 300.877 212.301 299.245 205.516 305.225C205.516 305.225 200.803 310.389 199.141 309.555C197.48 308.722 196.162 293.046 196.162 293.046C196.162 293.046 207.613 280.483 210.107 280.205C212.599 279.927 228.944 282.706 228.944 282.706L279.837 262.022L280.903 260.782C280.903 260.782 280.585 259.635 280.1 257.542C279.236 253.81 277.846 247.069 276.789 238.444C279.993 236.265 283.91 234.248 288.059 232.427C289.497 241.168 292.086 256.838 293.327 263.847C295.095 273.843 230.328 298.817 230.328 298.817Z" fill="#FDA67D"/>
<path d="M167.929 226.612L167.351 227.328L142.654 227.328L143.561 220.966C143.561 220.966 143.811 219.334 147.106 209.813C151.256 211.018 158.023 211.998 166.195 209.528C166.334 219.056 166.712 226.612 166.712 226.612L167.929 226.612Z" fill="#9DE9A0"/>
<path d="M204.992 320.137L224.559 312.649C225.715 312.207 225.398 310.49 224.163 310.49L203.172 310.49L204.992 320.137Z" fill="#808080"/>
<path d="M248.526 159.028C248.526 159.028 233.793 223.289 226.984 231.359C220.174 239.429 208.604 239.091 203.865 223.431" stroke="#6DC270" stroke-width="2" stroke-linecap="round" stroke-linejoin="round"/>
<path d="M166.616 224.504C166.616 224.504 162.819 201.975 168.014 182.646" stroke="#6DC270" stroke-width="2" stroke-linecap="round" stroke-linejoin="round"/>
<path opacity="0.21" d="M222.691 130.283C222.691 134.73 219.096 138.335 214.661 138.335C210.226 138.335 206.631 134.73 206.631 130.283C206.631 125.836 210.226 122.232 214.661 122.232C219.096 122.232 222.691 125.836 222.691 130.283Z" fill="#D89497"/>
<path opacity="0.21" d="M187.062 134.288C187.062 135.797 186.648 137.211 185.926 138.419C184.649 140.557 182.412 142.052 179.813 142.303C178.302 139.118 177.085 135.62 176.11 131.991C175.696 130.453 175.325 128.895 174.994 127.326C176.18 126.633 177.56 126.235 179.032 126.235C183.467 126.235 187.062 129.841 187.062 134.288Z" fill="#D89497"/>
<path d="M201.388 327.233L63.69 327.233C61.3003 327.233 59.1987 325.645 58.5407 323.342L40.9062 229.231C40.1584 225.241 43.2093 221.554 47.2566 221.554L188.679 221.554C191.363 221.554 193.632 223.544 193.989 226.212L206.698 321.146C207.129 324.368 204.629 327.233 201.388 327.233Z" fill="#E6E6E6"/>
<path d="M210.661 116.392C210.957 114.562 209.718 112.838 207.894 112.541C206.069 112.244 204.35 113.487 204.054 115.316C203.758 117.146 204.997 118.87 206.821 119.167C208.646 119.464 210.365 118.221 210.661 116.392Z" fill="#221F1F"/>
<path d="M186.018 115.429C186.315 113.599 185.076 111.875 183.251 111.578C181.427 111.281 179.707 112.524 179.411 114.353C179.115 116.183 180.354 117.907 182.179 118.204C184.003 118.501 185.722 117.259 186.018 115.429Z" fill="#221F1F"/>
<path d="M173.484 82.4372C173.388 82.4688 173.311 82.554 173.305 82.6724L173.28 83.1649L172.433 90.3383C172.433 90.3462 172.433 90.3525 172.433 90.3604C172.416 90.6256 172.105 95.7767 172.323 103.125L172.246 103.091L168.016 106.827C168.016 106.827 168.271 89.7795 173.337 82.0757L173.486 82.4372L173.484 82.4372Z" fill="#232C42"/>
<path d="M204.402 189.427C202.22 201.612 202.5 213.482 205.372 222.973C205.624 223.806 205.154 224.689 204.322 224.941C204.169 224.987 204.016 225.009 203.864 225.009C203.19 225.009 202.565 224.571 202.359 223.889C200.068 216.317 199.302 207.651 200.079 198.135C200.761 189.801 202.642 181.068 205.518 172.876C205.75 172.22 206.368 171.812 207.026 171.822C207.215 173.74 207.24 175.037 207.24 175.037L206.151 176.464L204.402 189.427Z" fill="#6DC270"/>
<path d="M276.309 232.825C276.309 232.825 295.484 218.995 312.551 217.353" stroke="#6DC270" stroke-width="2" stroke-linecap="round" stroke-linejoin="round"/>
<path d="M276 237.5C276 237.5 272.344 216.903 274.293 194.42" stroke="#6DC270" stroke-width="2" stroke-linecap="round" stroke-linejoin="round"/>
<path d="M247.468 157.895C247.414 158.016 247.361 158.138 247.305 158.261C239.546 175.527 207.241 175.037 207.241 175.037C207.241 175.037 207.197 172.747 206.783 169.755C206.607 168.48 206.364 167.078 206.029 165.671C205.404 163.044 204.57 160.334 203.488 158.261C204.948 158.261 206.355 158.152 207.68 157.971C211.818 157.402 215.149 156.113 216.718 155.145C219.697 153.307 227.01 147.411 232.368 139.284C235.736 142.871 238.935 144.933 241.914 145.902C242.868 149.345 244.658 154.526 247.468 157.895Z" fill="#EA966F"/>
<path d="M313.158 275.206C310.941 282.984 302.077 286.04 294.598 287.985C287.117 289.928 230.328 298.817 230.328 298.817C230.328 298.817 295.095 273.843 293.327 263.847C292.087 256.838 289.497 241.168 288.06 232.427C294.521 229.594 301.548 227.238 307.346 225.502C307.346 225.502 315.373 267.428 313.158 275.206Z" fill="#FDA67D"/>
<path d="M313.158 275.206C310.941 282.984 302.077 286.04 294.598 287.985C287.117 289.928 230.328 298.817 230.328 298.817C230.328 298.817 295.095 273.843 293.327 263.847C292.087 256.838 289.497 241.168 288.06 232.427C294.521 229.594 301.548 227.238 307.346 225.502C307.346 225.502 315.373 267.428 313.158 275.206Z" fill="#F29F78"/>
</g>
<path d="M258.311 121.93C248.681 129.607 240.075 125.855 235.536 122.483C236.371 117.867 236.719 112.165 235.897 105.425C236.982 107.335 237.943 109.514 238.457 111.835C237.646 103.626 235.354 98.0499 234.689 96.5675C235.999 96.4033 237.249 96.1713 238.378 95.9203C241.415 95.243 243.5 94 243.5 94L243.672 95.1767C244 96.5 244.064 98.0727 245 100C245.615 101.267 245.5 102 246 104C246.5 106 247.883 107.265 248.5 108.5C249.117 109.735 251 112 251 112C251 112 254 115 255 117C256 119 256.5 120 258.311 121.93Z" fill="#3F4B69"/>
<path d="M309.5 2C319.5 2 327 9 329.5 12.5C330.834 11 335.9 8.2 345.5 9C357.5 10 366.5 23.5 366 31.5C365.6 37.9 361.5 45.1667 359.5 48C361.5 51.8333 364.9 61 362.5 67C359.5 74.5 352 80.5 345.5 81.5C340.3 82.3 332.667 79.8333 329.5 78.5C325.167 79.6667 316.1 82 314.5 82C312.5 82 301.5 77 300 77.5C298.81 77.8968 290.634 80.2941 286.598 81.4715C286.57 81.4831 286.537 81.4926 286.5 81.5C286.532 81.4906 286.565 81.481 286.598 81.4715C287.204 81.2194 285.586 79.9405 274.5 76.5C262.9 72.9 264 55.6667 266 47.5C261.834 42.6667 255.3 30.7 262.5 21.5C269.7 12.3 283.5 11.6667 289.5 12.5C292 9 299.5 2 309.5 2Z" fill="white"/>
<mask id="path-52-inside-1_782_14295" fill="white">
<path d="M284.554 96.8667C285.811 96.8771 287.053 96.583 288.172 96.0095C288.953 95.6137 289.612 95.0142 290.08 94.2743C290.548 93.5344 290.807 92.6817 290.83 91.8066C290.853 90.9314 290.638 90.0664 290.21 89.3032C289.781 88.5399 289.154 87.9068 288.395 87.4708C287.237 86.8093 285.934 86.4448 284.601 86.4099C283.269 86.3749 281.948 86.6706 280.758 87.2704C279.973 87.6625 279.31 88.2602 278.839 88.9998C278.367 89.7394 278.106 90.5931 278.082 91.4697C278.058 92.3464 278.272 93.2131 278.702 93.9774C279.132 94.7416 279.762 95.3747 280.524 95.8091C281.748 96.5178 283.14 96.8831 284.554 96.8667ZM281.426 91.5565C281.431 91.2648 281.521 90.9812 281.686 90.74C281.85 90.4988 282.08 90.3106 282.35 90.1983C282.98 89.8886 283.674 89.7322 284.376 89.7419C285.155 89.7331 285.922 89.9289 286.602 90.3096C286.861 90.44 287.077 90.6414 287.226 90.8903C287.374 91.1391 287.449 91.4251 287.441 91.7148C287.433 92.0045 287.342 92.2859 287.18 92.526C287.017 92.7661 286.79 92.955 286.524 93.0705C285.85 93.3908 285.109 93.5477 284.362 93.5283C283.616 93.509 282.884 93.314 282.227 92.9592C281.965 92.8334 281.745 92.6336 281.594 92.3844C281.444 92.1351 281.37 91.8473 281.381 91.5565H281.426ZM277.819 96.889C276.933 96.3825 275.936 96.1032 274.916 96.076C273.896 96.0488 272.885 96.2746 271.974 96.7331C271.353 97.049 270.829 97.5255 270.455 98.1128C270.081 98.7002 269.871 99.377 269.848 100.073C269.822 100.777 269.987 101.475 270.326 102.092C270.665 102.71 271.166 103.224 271.774 103.58C272.71 104.122 273.775 104.402 274.857 104.392C275.819 104.404 276.768 104.174 277.618 103.724C278.241 103.406 278.767 102.926 279.14 102.334C279.513 101.743 279.72 101.062 279.74 100.363C279.759 99.6637 279.59 98.9722 279.25 98.361C278.91 97.7497 278.412 97.2413 277.807 96.889H277.819ZM276.037 100.797C275.642 100.975 275.211 101.062 274.777 101.051C274.343 101.039 273.918 100.929 273.533 100.73C273.176 100.507 273.176 100.307 273.187 100.195C273.187 100.084 273.187 99.8837 273.566 99.6833C273.928 99.5026 274.33 99.4146 274.735 99.4272C275.201 99.4122 275.663 99.5238 276.071 99.7501C276.427 99.9727 276.427 100.162 276.416 100.284C276.405 100.407 276.416 100.596 276.037 100.797ZM263.491 51.5015C262.507 54.4154 262.142 57.5023 262.418 60.5653C262.694 63.6283 263.605 66.6002 265.094 69.2913C268.188 74.9383 273.314 79.1969 279.433 81.2032C282.966 82.429 286.727 82.8552 290.444 82.4509C294.162 82.0466 297.743 80.822 300.93 78.8654C305.479 81.9289 310.82 83.6072 316.304 83.6969C320.862 83.6803 325.327 82.4051 329.207 80.012C330.59 80.792 332.044 81.4405 333.548 81.9491C346.362 86.3242 360.144 80.0565 364.174 68.0222C365.325 64.5753 365.623 60.9004 365.041 57.3131C364.46 53.7258 363.016 50.3333 360.834 47.427C361.183 47.1153 361.517 46.7924 361.836 46.4584C362.126 46.1579 362.393 45.8684 362.66 45.5567C364.514 43.4327 365.936 40.9671 366.846 38.2983C367.827 35.3788 368.189 32.2867 367.907 29.2195C367.625 26.1524 366.706 23.1778 365.209 20.4862C363.546 17.481 361.299 14.8387 358.6 12.7147C355.901 10.5907 352.804 9.02795 349.492 8.11828C346.18 7.2086 342.72 6.97041 339.315 7.41771C335.909 7.86501 332.628 8.98877 329.663 10.7229C326.524 6.35054 322.087 3.07847 316.983 1.37153C305.917 -2.38015 293.827 1.79457 288.25 11.0903C275.904 7.72823 263.023 13.9625 259.127 25.4735C257.818 29.4664 257.646 33.7446 258.629 37.8299C259.612 41.9152 261.711 45.6466 264.693 48.607C264.23 49.5446 263.828 50.5115 263.491 51.5015ZM262.3 26.5423C265.74 16.356 277.529 11.0235 288.584 14.6638C288.961 14.7872 289.37 14.772 289.737 14.621C290.105 14.47 290.406 14.1931 290.588 13.84C295.041 5.1566 305.962 1.14888 315.959 4.53318C320.887 6.19616 325.078 9.53225 327.804 13.9625C327.927 14.159 328.089 14.3278 328.281 14.4581C328.472 14.5885 328.689 14.6775 328.917 14.7195C329.142 14.7663 329.373 14.7657 329.598 14.7178C329.822 14.6699 330.034 14.5757 330.22 14.4412C333.037 12.4826 336.277 11.2168 339.676 10.7467C343.075 10.2766 346.536 10.6156 349.78 11.736C355.086 13.4878 359.53 17.188 362.215 22.0892C363.489 24.3741 364.273 26.8997 364.517 29.5047C364.76 32.1098 364.458 34.7369 363.628 37.2184C362.616 40.2165 360.844 42.9013 358.485 45.0112C358.151 45.3229 357.795 45.6124 357.439 45.9018C357.264 46.036 357.119 46.2036 357.01 46.3947C356.901 46.5858 356.831 46.7967 356.804 47.0151C356.78 47.2385 356.802 47.4645 356.869 47.6791C356.936 47.8936 357.047 48.092 357.194 48.2619C359.399 50.7777 360.913 53.8222 361.591 57.0982C362.268 60.3742 362.084 63.7698 361.057 66.9535C357.572 77.24 345.705 82.5391 334.584 78.7874C332.974 78.2163 331.432 77.4696 329.986 76.5609C329.714 76.3837 329.397 76.2893 329.073 76.2893C328.749 76.2893 328.432 76.3837 328.16 76.5609C324.542 79.2105 314.723 84.1756 301.832 75.4811C301.558 75.2881 301.231 75.1867 300.896 75.1916C300.554 75.192 300.22 75.2969 299.939 75.4922C297.122 77.4072 293.895 78.6354 290.518 79.0781C287.14 79.5208 283.706 79.1658 280.49 78.0415C275.188 76.2939 270.747 72.5972 268.066 67.6994C266.798 65.4122 266.018 62.8869 265.774 60.2829C265.531 57.679 265.83 55.0528 266.653 52.5702C267.06 51.3792 267.589 50.2338 268.233 49.1525C268.424 48.8259 268.498 48.4443 268.443 48.0702C268.389 47.6961 268.209 47.3516 267.933 47.093C262.033 41.5712 259.873 33.7005 262.3 26.5423Z"/>
</mask>
<path d="M284.554 96.8667C285.811 96.8771 287.053 96.583 288.172 96.0095C288.953 95.6137 289.612 95.0142 290.08 94.2743C290.548 93.5344 290.807 92.6817 290.83 91.8066C290.853 90.9314 290.638 90.0664 290.21 89.3032C289.781 88.5399 289.154 87.9068 288.395 87.4708C287.237 86.8093 285.934 86.4448 284.601 86.4099C283.269 86.3749 281.948 86.6706 280.758 87.2704C279.973 87.6625 279.31 88.2602 278.839 88.9998C278.367 89.7394 278.106 90.5931 278.082 91.4697C278.058 92.3464 278.272 93.2131 278.702 93.9774C279.132 94.7416 279.762 95.3747 280.524 95.8091C281.748 96.5178 283.14 96.8831 284.554 96.8667ZM281.426 91.5565C281.431 91.2648 281.521 90.9812 281.686 90.74C281.85 90.4988 282.08 90.3106 282.35 90.1983C282.98 89.8886 283.674 89.7322 284.376 89.7419C285.155 89.7331 285.922 89.9289 286.602 90.3096C286.861 90.44 287.077 90.6414 287.226 90.8903C287.374 91.1391 287.449 91.4251 287.441 91.7148C287.433 92.0045 287.342 92.2859 287.18 92.526C287.017 92.7661 286.79 92.955 286.524 93.0705C285.85 93.3908 285.109 93.5477 284.362 93.5283C283.616 93.509 282.884 93.314 282.227 92.9592C281.965 92.8334 281.745 92.6336 281.594 92.3844C281.444 92.1351 281.37 91.8473 281.381 91.5565H281.426ZM277.819 96.889C276.933 96.3825 275.936 96.1032 274.916 96.076C273.896 96.0488 272.885 96.2746 271.974 96.7331C271.353 97.049 270.829 97.5255 270.455 98.1128C270.081 98.7002 269.871 99.377 269.848 100.073C269.822 100.777 269.987 101.475 270.326 102.092C270.665 102.71 271.166 103.224 271.774 103.58C272.71 104.122 273.775 104.402 274.857 104.392C275.819 104.404 276.768 104.174 277.618 103.724C278.241 103.406 278.767 102.926 279.14 102.334C279.513 101.743 279.72 101.062 279.74 100.363C279.759 99.6637 279.59 98.9722 279.25 98.361C278.91 97.7497 278.412 97.2413 277.807 96.889H277.819ZM276.037 100.797C275.642 100.975 275.211 101.062 274.777 101.051C274.343 101.039 273.918 100.929 273.533 100.73C273.176 100.507 273.176 100.307 273.187 100.195C273.187 100.084 273.187 99.8837 273.566 99.6833C273.928 99.5026 274.33 99.4146 274.735 99.4272C275.201 99.4122 275.663 99.5238 276.071 99.7501C276.427 99.9727 276.427 100.162 276.416 100.284C276.405 100.407 276.416 100.596 276.037 100.797ZM263.491 51.5015C262.507 54.4154 262.142 57.5023 262.418 60.5653C262.694 63.6283 263.605 66.6002 265.094 69.2913C268.188 74.9383 273.314 79.1969 279.433 81.2032C282.966 82.429 286.727 82.8552 290.444 82.4509C294.162 82.0466 297.743 80.822 300.93 78.8654C305.479 81.9289 310.82 83.6072 316.304 83.6969C320.862 83.6803 325.327 82.4051 329.207 80.012C330.59 80.792 332.044 81.4405 333.548 81.9491C346.362 86.3242 360.144 80.0565 364.174 68.0222C365.325 64.5753 365.623 60.9004 365.041 57.3131C364.46 53.7258 363.016 50.3333 360.834 47.427C361.183 47.1153 361.517 46.7924 361.836 46.4584C362.126 46.1579 362.393 45.8684 362.66 45.5567C364.514 43.4327 365.936 40.9671 366.846 38.2983C367.827 35.3788 368.189 32.2867 367.907 29.2195C367.625 26.1524 366.706 23.1778 365.209 20.4862C363.546 17.481 361.299 14.8387 358.6 12.7147C355.901 10.5907 352.804 9.02795 349.492 8.11828C346.18 7.2086 342.72 6.97041 339.315 7.41771C335.909 7.86501 332.628 8.98877 329.663 10.7229C326.524 6.35054 322.087 3.07847 316.983 1.37153C305.917 -2.38015 293.827 1.79457 288.25 11.0903C275.904 7.72823 263.023 13.9625 259.127 25.4735C257.818 29.4664 257.646 33.7446 258.629 37.8299C259.612 41.9152 261.711 45.6466 264.693 48.607C264.23 49.5446 263.828 50.5115 263.491 51.5015ZM262.3 26.5423C265.74 16.356 277.529 11.0235 288.584 14.6638C288.961 14.7872 289.37 14.772 289.737 14.621C290.105 14.47 290.406 14.1931 290.588 13.84C295.041 5.1566 305.962 1.14888 315.959 4.53318C320.887 6.19616 325.078 9.53225 327.804 13.9625C327.927 14.159 328.089 14.3278 328.281 14.4581C328.472 14.5885 328.689 14.6775 328.917 14.7195C329.142 14.7663 329.373 14.7657 329.598 14.7178C329.822 14.6699 330.034 14.5757 330.22 14.4412C333.037 12.4826 336.277 11.2168 339.676 10.7467C343.075 10.2766 346.536 10.6156 349.78 11.736C355.086 13.4878 359.53 17.188 362.215 22.0892C363.489 24.3741 364.273 26.8997 364.517 29.5047C364.76 32.1098 364.458 34.7369 363.628 37.2184C362.616 40.2165 360.844 42.9013 358.485 45.0112C358.151 45.3229 357.795 45.6124 357.439 45.9018C357.264 46.036 357.119 46.2036 357.01 46.3947C356.901 46.5858 356.831 46.7967 356.804 47.0151C356.78 47.2385 356.802 47.4645 356.869 47.6791C356.936 47.8936 357.047 48.092 357.194 48.2619C359.399 50.7777 360.913 53.8222 361.591 57.0982C362.268 60.3742 362.084 63.7698 361.057 66.9535C357.572 77.24 345.705 82.5391 334.584 78.7874C332.974 78.2163 331.432 77.4696 329.986 76.5609C329.714 76.3837 329.397 76.2893 329.073 76.2893C328.749 76.2893 328.432 76.3837 328.16 76.5609C324.542 79.2105 314.723 84.1756 301.832 75.4811C301.558 75.2881 301.231 75.1867 300.896 75.1916C300.554 75.192 300.22 75.2969 299.939 75.4922C297.122 77.4072 293.895 78.6354 290.518 79.0781C287.14 79.5208 283.706 79.1658 280.49 78.0415C275.188 76.2939 270.747 72.5972 268.066 67.6994C266.798 65.4122 266.018 62.8869 265.774 60.2829C265.531 57.679 265.83 55.0528 266.653 52.5702C267.06 51.3792 267.589 50.2338 268.233 49.1525C268.424 48.8259 268.498 48.4443 268.443 48.0702C268.389 47.6961 268.209 47.3516 267.933 47.093C262.033 41.5712 259.873 33.7005 262.3 26.5423Z" fill="#3F4B69" fill-opacity="0.38" stroke="white" stroke-width="2" mask="url(#path-52-inside-1_782_14295)"/>
<path d="M318.322 53.9763H306.844C305.978 53.9763 305.273 54.6813 305.273 55.5471C305.273 56.4129 305.978 57.1178 306.844 57.1178H318.317C319.183 57.1178 319.888 56.4129 319.888 55.5471C319.888 54.6813 319.188 53.9763 318.322 53.9763Z" fill="#3F4B69" fill-opacity="0.6"/>
<path d="M326.166 34.5832C326.166 27.0843 320.087 21 312.583 21C305.08 21 299 27.0843 299 34.5832C299 38.2215 300.774 41.24 302.761 43.9652C304.909 46.9127 304.668 49.3634 304.668 49.3634C304.668 49.6716 304.729 49.9768 304.847 50.2615C304.965 50.5462 305.137 50.8049 305.355 51.0228C305.573 51.2407 305.832 51.4135 306.117 51.5315C306.401 51.6494 306.706 51.7101 307.015 51.7101H318.157C318.779 51.7101 319.376 51.4629 319.816 51.0228C320.256 50.5827 320.503 49.9858 320.503 49.3634C320.503 49.3634 320.267 46.9127 322.41 43.9652C324.392 41.24 326.166 38.2215 326.166 34.5832Z" fill="#FFCA42"/>
<path d="M318.238 59.3794H306.93C306.23 59.3794 305.714 60.056 305.918 60.7278C306.656 63.1833 309.362 65 312.584 65C315.806 65 318.512 63.1833 319.25 60.7278C319.454 60.0607 318.938 59.3794 318.238 59.3794Z" fill="#3F4B69" fill-opacity="0.6"/>
<path d="M330 27L341 21" stroke="#FFCA42" stroke-linecap="round"/>
<path d="M278 24.4169L294.39 28.8775" stroke="#FFCA42" stroke-linecap="round"/>
<path d="M326.32 50.6413L341 56.0001" stroke="#FFCA42" stroke-linecap="round"/>
<path d="M331.001 38.4538L342 37.9999" stroke="#FFCA42" stroke-linecap="round"/>
<path d="M282.001 40L293.489 38.0739" stroke="#FFCA42" stroke-linecap="round"/>
<path d="M283 55L295.822 47.8473" stroke="#FFCA42" stroke-linecap="round"/>
<defs>
<clipPath id="clip0_782_14295">
<rect width="374.59" height="322.473" fill="white" transform="translate(20.1562 42.9316)"/>
</clipPath>
</defs>
</svg>
