<svg width="750" height="381" viewBox="0 0 750 381" fill="none" xmlns="http://www.w3.org/2000/svg">
<path opacity="0.75" d="M167.193 33.2766C167.287 33.9363 167.361 34.0526 167.554 34.7143C167.756 35.338 167.676 35.8794 167.463 36.2117C167.249 36.544 166.917 36.6902 166.564 36.752C166.211 36.8137 166.091 36.7271 165.786 36.6597C165.481 36.5924 164.9 36.6036 164.657 36.5299C164.428 36.4794 164.037 36.5326 163.694 36.4569C163.352 36.3811 162.833 36.2865 162.795 35.9186C162.756 35.5507 162.767 35.4132 163.016 35.1887C163.251 34.941 163.464 34.6088 163.47 34.3106C163.476 34.0124 163.754 33.1154 163.728 32.8701C163.703 32.6248 163.725 31.891 163.816 31.5715C163.906 31.2521 163.847 30.7996 163.922 30.4569C163.998 30.1142 164.21 28.7034 164.309 28.3459C164.408 27.9884 164.625 27.0978 164.684 26.8313C164.781 26.5732 164.922 25.6657 165.002 25.4838C165.082 25.3018 165.232 24.7159 165.305 24.4726C165.371 24.2674 165.457 23.7872 165.617 23.4233C165.778 23.0594 165.994 22.1688 166.144 21.9423C166.294 21.7159 166.404 21.2209 166.528 21.1087C166.653 20.9965 166.835 20.7171 166.991 20.552C167.162 20.4101 167.646 20.2975 168.077 20.1532C168.532 19.9941 169.245 19.932 169.568 19.8238C169.906 19.7388 170.249 19.8146 170.298 20.045C170.347 20.2755 170.095 20.5993 170 20.7581C169.905 20.9168 169.388 21.9007 169.262 22.1124C169.135 22.324 168.384 24.2747 168.218 24.9368C168.052 25.5989 168.128 25.9752 167.936 26.0326C167.781 26.0983 167.771 26.2358 167.805 26.443C167.854 26.6734 167.789 26.8786 167.715 27.1219C167.664 27.3504 167.366 28.8818 167.351 29.2181C167.36 29.5396 167.251 30.3941 167.213 30.7452C167.176 31.0963 167.322 31.0686 167.187 31.3183C167.051 31.568 167.268 31.8554 167.156 32.0902C167.143 32.3271 167.131 32.9235 167.193 33.2766Z" fill="#BBB0E5" fill-opacity="0.32"/>
<path opacity="0.75" d="M179.667 15.8663C179.523 15.7946 179.155 15.833 178.724 15.9773C178.525 15.9733 178.326 15.9693 178.204 15.9821C177.906 15.9761 176.859 16.2839 176.62 16.3708C176.428 16.4282 176.335 16.4875 176.333 16.5869C176.176 16.752 176.035 16.9404 175.824 17.1732C175.488 17.5183 175.227 18.3391 174.957 19.1981C174.664 20.0718 173.66 25.0617 173.547 25.7555C173.434 26.4493 173.157 27.2469 173.026 26.9383C172.88 26.6064 172.432 24.9298 172.213 24.0228C172.143 23.7078 171.606 22.2513 171.475 21.9427C171.366 21.6192 170.574 20.3258 170.326 20.0913C170.079 19.8568 169.903 19.838 169.596 19.8701C169.29 19.9021 168.913 19.9787 168.683 20.0275C168.453 20.0764 167.639 20.2359 167.338 20.3293C167.061 20.4079 166.937 20.8796 166.965 21.0255C166.965 21.0255 167.27 21.4524 167.492 21.8011C167.7 22.1265 168.327 23.2636 168.46 23.4728C168.594 23.6821 168.994 24.3097 169.071 24.6861C169.147 25.0624 169.583 26.6163 169.634 27.1069C169.7 27.6208 170.07 29.3799 170.083 29.862C170.111 30.3675 170.437 32.4164 170.514 32.7927C170.59 33.1691 170.795 33.2344 171.083 33.3779C171.356 33.4982 171.825 33.3623 172.223 33.3703C172.621 33.3783 173.517 33.297 173.853 33.3114C173.853 33.3114 174.251 33.3195 174.57 33.0505C174.889 32.7816 174.843 32.8113 175.407 32.1572C175.97 31.5031 175.735 31.0317 176.031 30.4181C176.326 29.8045 176.536 28.1336 176.649 27.4398C176.763 26.746 177.408 22.835 177.637 22.0671C177.703 21.8618 177.802 21.5043 177.917 21.0707C178.017 21.4322 178.125 21.7556 178.198 21.9713C178.444 22.6647 178.722 23.6647 178.927 24.0895C179.171 24.5228 179.643 25.0066 179.965 24.9978C180.309 24.9741 181.054 24.8591 181.565 24.8924C182.077 24.9257 182.921 24.8127 183.223 24.6199C183.525 24.4271 183.24 24.1842 183.076 23.9285C182.913 23.6728 182.741 23.0956 182.635 22.6728C182.506 22.2648 182.137 21.5842 182.048 21.0852C181.935 20.601 181.331 19.0896 181.288 18.9205C181.246 18.7513 180.406 16.7685 180.186 16.3204C180.15 16.2126 180.067 16.1345 179.999 16.0795C180.048 15.9505 179.834 15.9232 179.667 15.8663Z" fill="#BBB0E5" fill-opacity="0.32"/>
<path opacity="0.75" d="M179.965 24.9983C180.403 24.9154 181.532 25.0453 182.077 24.9262C182.608 24.784 183.463 24.893 183.855 23.6617C184.247 22.4305 184.221 20.2882 184.672 18.7904C185.138 17.3159 185.732 15.5303 186.061 14.4049C186.061 14.4049 186.489 15.538 186.917 16.3115C187.345 17.0851 188.232 17.5007 188.983 17.4471C189.733 17.3934 190.554 17.2952 191.154 17.1084C191.731 16.9365 192.327 16.2295 192.599 15.6307C192.848 15.0468 192.991 14.0399 193.191 13.585C193.377 13.1069 193.843 10.4544 194.188 10.4308C194.533 10.4071 195.722 10.63 196.326 10.604C196.931 10.5779 198.348 10.4918 198.73 10.117C199.113 9.74231 199.419 8.99121 199.558 8.54272C199.697 8.09423 199.704 7.33711 199.727 6.96277C199.773 6.57359 199.731 6.40445 200.117 5.47139C200.503 4.53834 200.469 4.69064 200.642 4.08985C200.815 3.48905 200.768 3.51871 200.669 3.5167C200.584 3.53794 200.569 3.51469 200.517 3.48303C200.464 3.45136 200.434 3.40487 200.466 3.35197C200.482 3.27581 200.508 3.16159 200.571 3.05578C200.634 2.94997 200.761 2.73835 200.691 2.78283C200.622 2.82732 200.613 2.8654 200.56 2.83373C200.507 2.80207 200.478 2.75557 200.533 2.68784C200.587 2.62011 200.651 2.5143 200.56 2.47421C200.469 2.43413 200.317 2.40046 200.317 2.40046C200.317 2.40046 200.31 2.33914 200.255 2.40687C200.215 2.49785 200.167 2.62691 200.12 2.65657C200.074 2.68623 200 2.56999 200.008 2.53191C200.016 2.49384 200.082 2.28863 200.168 2.16799C200.24 2.02411 200.202 2.01569 200.265 1.90988C200.329 1.80407 200.316 1.68142 200.238 1.76398C200.159 1.84655 200.064 2.00526 200.001 2.11107C199.961 2.20206 199.898 2.30786 199.889 2.34594C199.858 2.39884 199.849 2.43692 199.811 2.4285C199.773 2.42009 199.676 2.31868 199.676 2.31868C199.676 2.31868 199.654 2.23411 199.671 2.15796C199.688 2.08181 199.735 2.05215 199.766 1.99924C199.783 1.92309 199.707 1.90626 199.646 1.91267C199.608 1.90425 199.415 1.96156 199.407 1.99963C199.375 2.05254 199.272 2.24933 199.225 2.27899C199.179 2.30865 197.845 4.72945 197.684 5.09338C197.532 5.41922 196.971 6.69296 196.845 6.90458C196.718 7.1162 196.545 7.35747 196.424 7.2709C196.304 7.18432 194.876 7.04841 194.409 7.08487C193.956 7.14458 192.609 7.18623 192.169 7.36858C191.721 7.58901 190.986 8.02547 190.79 8.64109C190.594 9.25672 189.538 13.037 189.538 13.037C189.538 13.037 188.559 11.1432 188.441 10.9573C188.322 10.7713 188.186 10.6615 187.897 10.6174C187.607 10.5733 185.209 10.762 184.955 10.8257C184.702 10.8894 183.852 11.3006 183.734 11.4742C183.615 11.6477 182.534 13.2858 182.235 14.0982C181.935 14.9106 181.354 16.8188 181.232 17.1911C181.086 17.5783 180.323 19.4063 180.139 19.7851C179.941 20.1406 179.692 23.3406 179.437 23.8632C179.197 24.4091 179.121 24.7518 179.318 24.8552C179.5 24.9354 179.965 24.9983 179.965 24.9983Z" fill="#BBB0E5" fill-opacity="0.32"/>
<path d="M732.729 239.719C732.485 239.668 732.296 239.541 732.163 239.337C732.029 239.133 731.988 238.91 732.038 238.666C732.088 238.427 732.215 238.241 732.419 238.107C732.623 237.969 732.848 237.925 733.091 237.976C733.33 238.025 733.516 238.154 733.649 238.363C733.787 238.568 733.831 238.789 733.782 239.028C733.731 239.272 733.601 239.46 733.393 239.593C733.189 239.727 732.968 239.768 732.729 239.719Z" fill="#EF627E"/>
<path d="M731.41 236.401C731.238 237.226 730.787 237.772 730.057 238.041C729.436 238.273 728.655 238.292 727.713 238.096C727.54 238.06 727.306 238.006 727.013 237.936C726.675 237.846 726.44 237.787 726.309 237.76C726.23 237.763 726.153 237.757 726.078 237.741C725.6 237.642 725.428 237.269 725.563 236.622C725.582 236.533 725.666 236.257 725.816 235.795C726.012 235.18 726.167 234.599 726.281 234.051C726.359 233.676 726.446 233.141 726.541 232.447C726.642 231.75 726.732 231.213 726.81 230.839C726.913 230.342 727.192 230.141 727.647 230.235C728.13 230.336 728.326 230.601 728.236 231.033C728.134 231.525 728.023 232.211 727.904 233.09C728.135 233.129 728.317 233.161 728.448 233.189C729.577 233.424 730.375 233.748 730.841 234.163C731.422 234.685 731.612 235.431 731.41 236.401ZM730.053 236.119C730.162 235.594 730.074 235.206 729.789 234.956C729.559 234.747 729.106 234.572 728.431 234.432C728.249 234.394 727.994 234.351 727.666 234.302C727.65 234.402 727.633 234.496 727.615 234.585C727.541 234.941 727.351 235.64 727.047 236.681C727.434 236.772 727.74 236.84 727.965 236.887C729.197 237.143 729.893 236.887 730.053 236.119Z" fill="#EF627E"/>
<path d="M721.722 237.209C720.761 237.009 720.02 236.552 719.499 235.837C718.951 235.088 718.781 234.214 718.989 233.216C719.186 232.264 719.707 231.348 720.55 230.468C721.487 229.489 722.396 229.092 723.277 229.275C723.736 229.37 724.227 229.585 724.749 229.918C725.409 230.344 725.697 230.756 725.614 231.154C725.577 231.332 725.485 231.48 725.339 231.596C725.194 231.707 725.034 231.745 724.861 231.709C724.725 231.681 724.614 231.616 724.527 231.515C724.446 231.41 724.367 231.308 724.29 231.209C724.059 230.931 723.63 230.727 723.002 230.596C722.524 230.497 721.962 230.825 721.316 231.58C720.727 232.274 720.373 232.907 720.254 233.479C720.125 234.097 720.235 234.629 720.582 235.072C720.907 235.487 721.378 235.759 721.997 235.887C722.278 235.946 722.594 235.933 722.943 235.85L723.849 235.583C724.006 235.538 724.114 235.521 724.175 235.534C724.348 235.57 724.484 235.671 724.581 235.838C724.679 236.001 724.71 236.171 724.673 236.349C724.602 236.691 724.172 236.946 723.384 237.115C722.693 237.264 722.139 237.296 721.722 237.209Z" fill="#EF627E"/>
<path d="M717.51 233.869C717.472 234.052 717.406 234.322 717.313 234.679C717.219 235.035 717.153 235.305 717.115 235.488C717.074 235.685 716.972 235.835 716.809 235.938C716.649 236.046 716.471 236.08 716.274 236.039C716.073 235.997 715.918 235.894 715.81 235.73C715.707 235.572 715.675 235.394 715.716 235.197C715.779 234.892 715.888 234.441 716.042 233.842C716.196 233.243 716.304 232.792 716.368 232.487C716.488 231.911 716.557 231.353 716.576 230.815C715.829 231.539 715.292 232.041 714.965 232.32C714.336 232.854 713.737 233.277 713.168 233.589C712.419 233.995 711.856 234.328 711.479 234.587C711.177 234.793 710.891 234.868 710.619 234.811C710.413 234.769 710.246 234.678 710.118 234.539C709.979 234.383 709.931 234.204 709.973 234.002C710.251 232.667 710.517 231.27 710.771 229.812C711.033 228.297 711.159 227.559 711.152 227.596C711.251 227.118 711.535 226.928 712.004 227.025C712.402 227.108 712.587 227.381 712.559 227.845C712.554 227.917 712.474 228.382 712.32 229.24L711.678 232.751C712.515 232.275 713.417 231.641 714.384 230.85C714.684 230.604 715.516 229.883 716.88 228.685C717.233 228.372 717.567 228.249 717.881 228.314C718.078 228.355 718.228 228.455 718.332 228.613C718.441 228.773 718.474 228.953 718.432 229.155C718.324 229.675 718.17 230.462 717.971 231.515C717.772 232.564 717.618 233.349 717.51 233.869Z" fill="#EF627E"/>
<path d="M708.927 233.741C708.884 233.947 708.784 234.099 708.626 234.199C708.468 234.303 708.288 234.334 708.086 234.292C707.88 234.249 707.725 234.148 707.621 233.99C707.516 233.836 707.485 233.656 707.528 233.45C707.607 233.07 707.759 232.266 707.986 231.037C707.329 231.326 706.582 231.383 705.743 231.208C704.749 231.002 704.101 230.51 703.798 229.733C703.5 228.957 703.511 227.798 703.832 226.257C703.992 225.488 704.32 225.156 704.817 225.259C705.018 225.301 705.171 225.401 705.275 225.559C705.38 225.713 705.411 225.893 705.368 226.1C705.357 226.151 705.334 226.227 705.299 226.327C705.264 226.423 705.242 226.496 705.231 226.548C704.972 227.789 704.918 228.639 705.068 229.095C705.204 229.52 705.591 229.798 706.228 229.931C706.514 229.99 706.879 229.963 707.323 229.85C707.799 229.724 708.138 229.551 708.341 229.329C708.368 229.197 708.433 228.91 708.535 228.467C708.637 228.024 708.7 227.744 708.725 227.626C708.744 227.533 708.764 227.39 708.784 227.199C708.809 227.008 708.831 226.869 708.849 226.78C708.89 226.583 708.992 226.435 709.154 226.337C709.321 226.24 709.503 226.212 709.7 226.253C710.196 226.356 710.356 226.836 710.177 227.694C710.151 227.82 710.109 227.988 710.051 228.196C709.998 228.405 709.964 228.542 709.95 228.607C709.838 229.146 709.667 230.003 709.438 231.178C709.209 232.347 709.039 233.202 708.927 233.741Z" fill="#EF627E"/>
<path d="M703.449 226.404L699.923 231.156C699.057 232.311 698.375 233.286 697.877 234.082L697.129 235.349C696.937 235.661 696.691 235.786 696.391 235.724C696.194 235.683 696.037 235.582 695.919 235.42C695.805 235.265 695.768 235.091 695.808 234.898C695.905 234.43 696.693 233.178 698.173 231.144L696.664 225.778L696.454 225.199C696.372 224.957 696.347 224.763 696.377 224.618C696.417 224.426 696.524 224.272 696.7 224.157C696.88 224.043 697.062 224.005 697.244 224.043C697.46 224.088 697.609 224.205 697.692 224.393C698.259 225.665 698.787 227.417 699.275 229.65L700.82 227.442C701.37 226.681 701.88 226.034 702.353 225.502C702.558 225.271 702.782 225.18 703.025 225.231C703.218 225.271 703.372 225.374 703.489 225.54C703.611 225.707 703.652 225.884 703.613 226.072C703.592 226.175 703.537 226.286 703.449 226.404Z" fill="#EF627E"/>
<path d="M691.724 229.95C691.685 230.137 691.578 230.274 691.404 230.36C691.234 230.447 691.058 230.471 690.876 230.433C690.547 230.365 690.355 230.151 690.298 229.792C690.245 229.434 690.022 228.801 689.629 227.893C689.209 226.93 688.912 226.429 688.74 226.388C688.693 226.378 688.412 226.32 687.896 226.212C687.864 226.367 687.805 226.641 687.718 227.033C687.637 227.398 687.577 227.674 687.538 227.861C687.379 228.63 687.276 229.066 687.23 229.169C687.076 229.533 686.807 229.675 686.422 229.595C686.226 229.554 686.069 229.46 685.953 229.314C685.841 229.168 685.806 228.999 685.846 228.807C685.891 228.587 685.972 228.245 686.089 227.78C686.206 227.31 686.288 226.963 686.335 226.738C686.427 226.293 686.55 225.622 686.702 224.725C686.855 223.828 686.978 223.154 687.071 222.704C687.197 222.1 687.501 221.848 687.984 221.948C688.181 221.989 688.334 222.084 688.445 222.235C688.555 222.385 688.591 222.553 688.552 222.741C688.481 223.083 688.354 223.778 688.17 224.825C688.297 224.851 688.468 224.887 688.683 224.932C689.263 225.013 689.728 224.843 690.08 224.423C690.191 224.265 690.336 224.06 690.515 223.809C691.032 223.135 691.558 222.853 692.092 222.964C692.261 222.999 692.428 223.075 692.594 223.193C692.807 223.345 692.896 223.505 692.861 223.674C692.784 224.044 692.586 224.196 692.267 224.13C692.005 224.075 691.668 224.333 691.256 224.902C690.971 225.288 690.811 225.501 690.778 225.543C690.577 225.78 690.373 225.953 690.164 226.061C690.564 226.491 690.942 227.142 691.298 228.013C691.665 228.906 691.807 229.551 691.724 229.95Z" fill="#727E99"/>
<path d="M681.683 228.756C680.624 228.535 679.821 228.092 679.275 227.426C678.68 226.691 678.492 225.797 678.712 224.742C678.965 223.524 679.473 222.564 680.235 221.862C681.064 221.096 682.015 220.824 683.088 221.047C683.866 221.209 684.474 221.472 684.911 221.837C685.449 222.286 685.648 222.846 685.508 223.516C685.411 223.985 685.057 224.356 684.448 224.63C684.178 224.75 683.627 224.909 682.794 225.107L679.844 225.821C680.025 226.265 680.29 226.625 680.638 226.903C680.991 227.182 681.427 227.375 681.947 227.483C682.271 227.551 682.663 227.569 683.124 227.538C683.709 227.498 684.107 227.371 684.318 227.155C684.53 226.935 684.728 226.844 684.911 226.882C685.075 226.917 685.207 227.01 685.307 227.163C685.413 227.312 685.449 227.469 685.415 227.633C685.306 228.153 684.794 228.513 683.877 228.714C683.094 228.883 682.362 228.897 681.683 228.756ZM682.825 222.313C682.253 222.194 681.731 222.317 681.259 222.684C680.788 223.045 680.366 223.652 679.993 224.503L682.365 223.926C683.299 223.69 683.978 223.457 684.402 223.227C684.077 222.769 683.551 222.464 682.825 222.313Z" fill="#727E99"/>
<path d="M677.928 225.723C677.75 226.58 676.958 227.049 675.553 227.128C674.672 227.18 673.634 227.081 672.439 226.832C672.256 226.794 672.096 226.685 671.957 226.505C671.824 226.325 671.775 226.147 671.812 225.969L672.09 224.633C672.093 224.619 672.378 223.368 672.944 220.88C672.993 220.646 673.042 220.411 673.09 220.177C673.154 219.892 673.233 219.669 673.325 219.507C673.39 219.384 673.479 219.307 673.593 219.277C673.646 219.258 673.782 219.248 674.003 219.245C674.299 219.233 674.775 219.295 675.431 219.432C676.185 219.589 676.831 219.914 677.369 220.407C677.997 220.983 678.238 221.624 678.091 222.332C677.954 222.988 677.503 223.395 676.737 223.554C677.061 223.782 677.348 224.104 677.599 224.518C677.888 224.988 677.997 225.39 677.928 225.723ZM676.776 222.058C676.836 221.773 676.691 221.481 676.342 221.183C676.035 220.919 675.727 220.755 675.418 220.691L675.13 220.631C674.774 220.557 674.531 220.513 674.402 220.501C674.364 220.659 674.308 220.917 674.234 221.273C674.215 221.362 674.19 221.54 674.159 221.807C674.132 222.032 674.1 222.211 674.062 222.345C674.323 222.428 674.562 222.492 674.777 222.537C675.302 222.646 675.691 222.693 675.944 222.677C676.42 222.644 676.697 222.438 676.776 222.058ZM676.549 225.37C676.602 225.117 676.467 224.839 676.143 224.537C675.894 224.3 675.62 224.116 675.32 223.985C675.145 223.909 674.88 223.832 674.524 223.753C674.081 223.651 673.811 223.585 673.715 223.556C673.63 223.87 673.564 224.138 673.519 224.358L673.233 225.729C675.323 226.071 676.429 225.951 676.549 225.37Z" fill="#727E99"/>
<path d="M658.794 218.179C659.365 218.298 660.22 218.493 661.356 218.763C662.498 219.03 663.355 219.223 663.927 219.342L665.581 219.642L667.033 219.885L667.433 219.976C667.845 220.062 668.007 220.318 667.918 220.744C667.81 221.264 667.348 221.44 666.533 221.27C666.406 221.244 666.199 221.193 665.912 221.119C665.629 221.045 665.424 220.995 665.297 220.969C664.369 220.776 662.976 220.494 661.118 220.122C659.26 219.745 657.867 219.46 656.939 219.267C656.461 219.168 656.27 218.886 656.367 218.422C656.458 217.986 656.731 217.801 657.187 217.866C657.382 217.892 657.917 217.996 658.794 218.179Z" fill="#727E99"/>
<path d="M651.078 220.049C651.04 220.232 650.974 220.502 650.88 220.859C650.786 221.216 650.72 221.486 650.682 221.668C650.641 221.865 650.539 222.015 650.376 222.118C650.217 222.227 650.038 222.261 649.842 222.22C649.64 222.178 649.485 222.075 649.378 221.91C649.274 221.752 649.242 221.574 649.283 221.377C649.347 221.073 649.455 220.621 649.609 220.023C649.763 219.424 649.872 218.972 649.935 218.668C650.055 218.091 650.124 217.534 650.144 216.995C649.396 217.72 648.859 218.221 648.532 218.501C647.903 219.035 647.304 219.458 646.736 219.77C645.986 220.176 645.423 220.509 645.047 220.768C644.745 220.974 644.458 221.048 644.186 220.992C643.98 220.949 643.813 220.858 643.686 220.719C643.547 220.563 643.498 220.384 643.54 220.183C643.818 218.847 644.084 217.451 644.339 215.993C644.6 214.478 644.727 213.739 644.719 213.777C644.818 213.299 645.102 213.108 645.571 213.206C645.969 213.289 646.155 213.562 646.127 214.025C646.121 214.098 646.042 214.563 645.888 215.42L645.245 218.932C646.083 218.455 646.985 217.822 647.951 217.03C648.251 216.785 649.083 216.063 650.447 214.865C650.801 214.553 651.135 214.429 651.449 214.494C651.645 214.535 651.796 214.635 651.9 214.794C652.008 214.953 652.042 215.134 652 215.335C651.891 215.855 651.738 216.642 651.538 217.696C651.339 218.745 651.186 219.529 651.078 220.049Z" fill="#727E99"/>
<path d="M643.074 218.473C642.895 219.33 642.104 219.799 640.699 219.878C639.818 219.929 638.78 219.831 637.585 219.582C637.402 219.544 637.241 219.435 637.103 219.255C636.969 219.075 636.921 218.896 636.958 218.718L637.236 217.383C637.238 217.369 637.523 216.118 638.09 213.63C638.138 213.395 638.187 213.161 638.236 212.927C638.3 212.642 638.378 212.419 638.47 212.257C638.535 212.133 638.625 212.057 638.738 212.027C638.791 212.008 638.928 211.998 639.148 211.995C639.444 211.983 639.92 212.045 640.576 212.182C641.331 212.339 641.977 212.664 642.515 213.157C643.143 213.732 643.384 214.374 643.236 215.082C643.1 215.738 642.648 216.145 641.882 216.303C642.206 216.532 642.494 216.853 642.745 217.267C643.033 217.738 643.143 218.14 643.074 218.473ZM641.922 214.808C641.981 214.522 641.837 214.231 641.488 213.933C641.181 213.669 640.873 213.505 640.564 213.44L640.275 213.38C639.919 213.306 639.677 213.263 639.547 213.251C639.509 213.409 639.453 213.666 639.379 214.023C639.361 214.112 639.336 214.29 639.305 214.557C639.278 214.781 639.245 214.96 639.208 215.094C639.469 215.178 639.707 215.242 639.923 215.287C640.448 215.396 640.836 215.443 641.089 215.427C641.565 215.394 641.843 215.188 641.922 214.808ZM641.695 218.12C641.748 217.867 641.612 217.589 641.289 217.287C641.04 217.05 640.765 216.865 640.465 216.735C640.29 216.659 640.025 216.582 639.67 216.503C639.227 216.401 638.957 216.335 638.86 216.305C638.775 216.62 638.71 216.888 638.664 217.108L638.379 218.479C640.469 218.82 641.574 218.701 641.695 218.12Z" fill="#727E99"/>
<path d="M635.808 216.873C635.77 217.056 635.704 217.326 635.61 217.683C635.517 218.04 635.451 218.31 635.413 218.492C635.372 218.689 635.27 218.839 635.106 218.942C634.947 219.051 634.769 219.085 634.572 219.044C634.371 219.002 634.216 218.899 634.108 218.734C634.004 218.576 633.973 218.398 634.014 218.201C634.077 217.897 634.186 217.445 634.34 216.847C634.494 216.248 634.602 215.796 634.666 215.492C634.785 214.915 634.855 214.358 634.874 213.819C634.127 214.544 633.59 215.045 633.263 215.325C632.634 215.859 632.035 216.282 631.466 216.594C630.717 217 630.154 217.333 629.777 217.592C629.475 217.798 629.188 217.872 628.917 217.816C628.71 217.773 628.544 217.682 628.416 217.543C628.277 217.387 628.229 217.208 628.271 217.007C628.549 215.671 628.815 214.275 629.069 212.817C629.331 211.302 629.457 210.563 629.449 210.601C629.549 210.123 629.833 209.932 630.302 210.03C630.7 210.113 630.885 210.386 630.857 210.849C630.852 210.922 630.772 211.387 630.618 212.244L629.976 215.755C630.813 215.279 631.715 214.646 632.681 213.854C632.982 213.609 633.814 212.887 635.178 211.689C635.531 211.377 635.865 211.253 636.179 211.318C636.376 211.359 636.526 211.459 636.63 211.618C636.739 211.777 636.772 211.958 636.73 212.159C636.622 212.679 636.468 213.466 636.268 214.52C636.07 215.569 635.916 216.353 635.808 216.873Z" fill="#727E99"/>
<path d="M627.354 216.618C627.319 216.787 627.225 216.912 627.071 216.992C626.923 217.069 626.762 217.089 626.589 217.053C626.294 216.992 626.124 216.797 626.079 216.47C626.025 216.097 625.799 215.446 625.4 214.518C624.977 213.52 624.665 212.998 624.465 212.952C624.418 212.942 624.347 212.927 624.254 212.908C624.212 213.109 624.149 213.399 624.065 213.778C623.979 214.171 623.916 214.463 623.876 214.655C623.714 215.433 623.612 215.874 623.571 215.978C623.429 216.31 623.184 216.44 622.837 216.368C622.411 216.279 622.238 216.043 622.318 215.659C622.365 215.429 622.448 215.077 622.566 214.603C622.69 214.125 622.776 213.774 622.822 213.549C622.891 213.221 622.951 212.92 623.003 212.648L622.785 212.602C622.593 212.562 622.101 212.915 621.311 213.66C620.574 214.357 620.109 214.867 619.915 215.188C619.739 215.469 619.503 215.579 619.208 215.518C619.039 215.483 618.901 215.398 618.792 215.263C618.683 215.127 618.646 214.976 618.681 214.807C618.764 214.409 619.165 213.859 619.882 213.157C620.588 212.468 621.199 212.021 621.716 211.815C621.512 211.597 621.32 211.075 621.14 210.251C620.983 209.524 620.759 209.13 620.469 209.07C620.197 209.013 620.095 208.821 620.163 208.493C620.193 208.352 620.32 208.257 620.546 208.206C620.731 208.161 620.906 208.156 621.07 208.19C621.384 208.255 621.62 208.434 621.78 208.726C621.865 208.881 621.957 209.167 622.056 209.583C622.108 209.873 622.215 210.252 622.377 210.721C622.507 210.939 622.801 211.102 623.257 211.212C623.38 210.436 623.483 209.846 623.567 209.443C623.685 208.871 623.963 208.631 624.399 208.721C624.581 208.759 624.722 208.847 624.82 208.985C624.92 209.118 624.952 209.271 624.915 209.445C624.866 209.684 624.738 210.366 624.534 211.492C625.004 211.58 625.351 211.547 625.574 211.393C625.67 211.33 625.927 211.024 626.344 210.475C626.6 210.137 626.798 209.912 626.939 209.8C627.202 209.595 627.492 209.526 627.811 209.592C627.97 209.626 628.126 209.7 628.278 209.814C628.465 209.951 628.543 210.09 628.514 210.23C628.446 210.558 628.276 210.694 628.004 210.637C627.714 210.577 627.352 210.849 626.918 211.453C626.628 211.857 626.461 212.084 626.417 212.133C626.203 212.387 625.985 212.564 625.764 212.665C626.156 213.059 626.539 213.711 626.912 214.62C627.29 215.549 627.438 216.215 627.354 216.618Z" fill="#727E99"/>
<path d="M614.802 213.949C614.763 214.136 614.657 214.273 614.482 214.359C614.313 214.446 614.136 214.471 613.954 214.433C613.626 214.364 613.433 214.151 613.376 213.792C613.323 213.434 613.1 212.801 612.707 211.893C612.287 210.93 611.99 210.428 611.818 210.387C611.771 210.378 611.49 210.319 610.974 210.212C610.942 210.367 610.883 210.64 610.796 211.033C610.715 211.398 610.655 211.674 610.616 211.861C610.457 212.63 610.354 213.065 610.308 213.168C610.154 213.532 609.885 213.674 609.501 213.594C609.304 213.553 609.147 213.46 609.031 213.313C608.92 213.168 608.884 212.999 608.924 212.807C608.97 212.587 609.051 212.244 609.167 211.779C609.284 211.31 609.366 210.963 609.413 210.738C609.505 210.293 609.628 209.621 609.78 208.724C609.933 207.827 610.056 207.154 610.149 206.704C610.275 206.099 610.579 205.847 611.062 205.947C611.259 205.988 611.412 206.084 611.523 206.234C611.634 206.384 611.669 206.553 611.63 206.74C611.559 207.082 611.432 207.777 611.248 208.824C611.375 208.851 611.546 208.886 611.761 208.931C612.341 209.012 612.806 208.843 613.158 208.422C613.269 208.264 613.414 208.06 613.593 207.809C614.11 207.134 614.636 206.852 615.17 206.963C615.339 206.998 615.506 207.075 615.672 207.193C615.885 207.344 615.974 207.505 615.939 207.673C615.862 208.044 615.664 208.196 615.346 208.129C615.083 208.075 614.746 208.332 614.334 208.902C614.049 209.287 613.889 209.501 613.856 209.543C613.655 209.78 613.451 209.952 613.242 210.06C613.642 210.491 614.02 211.141 614.376 212.012C614.743 212.905 614.885 213.551 614.802 213.949Z" fill="#727E99"/>
<path d="M604.762 212.755C603.703 212.534 602.9 212.091 602.354 211.425C601.759 210.69 601.571 209.796 601.791 208.741C602.044 207.523 602.552 206.563 603.314 205.861C604.143 205.095 605.094 204.823 606.167 205.046C606.945 205.208 607.553 205.471 607.99 205.836C608.528 206.285 608.727 206.845 608.587 207.515C608.49 207.984 608.136 208.355 607.527 208.629C607.257 208.749 606.706 208.908 605.873 209.106L602.923 209.82C603.105 210.264 603.369 210.624 603.717 210.902C604.07 211.181 604.506 211.374 605.027 211.482C605.35 211.55 605.742 211.568 606.203 211.537C606.789 211.497 607.187 211.37 607.398 211.154C607.61 210.934 607.807 210.843 607.99 210.881C608.154 210.916 608.286 211.009 608.386 211.162C608.492 211.311 608.528 211.468 608.494 211.632C608.385 212.152 607.873 212.512 606.956 212.713C606.173 212.882 605.441 212.896 604.762 212.755ZM605.904 206.312C605.332 206.193 604.811 206.316 604.338 206.683C603.867 207.044 603.445 207.651 603.073 208.502L605.444 207.925C606.378 207.689 607.057 207.456 607.481 207.226C607.156 206.768 606.631 206.463 605.904 206.312Z" fill="#727E99"/>
<path d="M598.35 210.79C597.21 210.983 595.819 210.909 594.179 210.568C593.978 210.526 593.806 210.39 593.663 210.16C593.524 209.935 593.475 209.722 593.517 209.521L593.943 207.475C594.082 206.805 594.323 205.858 594.666 204.633C595.038 203.313 595.292 202.353 595.426 201.755C595.511 201.323 595.67 200.687 595.904 199.845C595.985 199.618 596.095 199.479 596.232 199.43C596.91 199.366 597.655 199.418 598.466 199.586C599.29 199.758 600.024 200.204 600.666 200.924C601.408 201.753 601.68 202.643 601.482 203.595C601.231 204.799 600.565 205.65 599.484 206.149C600.124 206.595 600.58 207.037 600.851 207.475C601.126 207.913 601.219 208.348 601.129 208.779C601.012 209.346 600.591 209.831 599.866 210.233C599.362 210.519 598.857 210.705 598.35 210.79ZM598.167 201.02C597.657 200.914 597.295 200.856 597.082 200.846L596.812 202.073L596.105 204.764C596.759 204.959 597.11 205.059 597.158 205.064C597.877 205.155 598.501 205.055 599.031 204.764C599.601 204.447 599.954 203.961 600.09 203.305C600.183 202.86 600.023 202.396 599.609 201.914C599.196 201.432 598.716 201.134 598.167 201.02ZM597.783 206.815L597.063 206.54C597.002 206.527 596.908 206.513 596.779 206.496C596.656 206.475 596.562 206.458 596.496 206.444C596.243 206.392 595.978 206.314 595.701 206.213C595.55 206.797 595.427 207.322 595.33 207.786L595.027 209.241C596.264 209.454 597.301 209.489 598.137 209.345C598.491 209.287 598.846 209.155 599.202 208.95C599.538 208.766 599.719 208.613 599.745 208.491C599.791 208.271 599.542 207.96 599 207.559C598.594 207.255 598.188 207.006 597.783 206.815Z" fill="#727E99"/>
<path d="M111.657 42.695C110.02 43.6993 108.365 43.6839 106.692 42.6488C105.414 41.8461 104.209 40.5209 103.075 38.6732C102.117 37.1109 101.653 35.5201 101.683 33.9006C101.726 31.9992 102.501 30.586 104.009 29.661C105.426 28.7922 106.9 28.7183 108.432 29.4394C109.757 30.065 110.881 31.1292 111.802 32.6322C113.282 35.0456 114.011 37.0929 113.99 38.774C113.965 40.4498 113.187 41.7568 111.657 42.695ZM104.958 31.2255C103.956 31.84 103.473 32.8363 103.51 34.2146C103.542 35.3663 103.893 36.489 104.564 37.5826C105.651 39.3549 106.706 40.5385 107.731 41.1333C108.755 41.7282 109.747 41.7316 110.706 41.1436C111.848 40.4432 112.267 39.2892 111.963 37.6817C111.753 36.5652 111.222 35.3121 110.37 33.9222C109.474 32.4623 108.575 31.5092 107.671 31.0627C106.772 30.613 105.868 30.6672 104.958 31.2255Z" fill="#727E99"/>
<path d="M96.4041 40.5069L100.183 38.2009C100.662 37.9069 101.049 37.9996 101.343 38.479C101.637 38.9585 101.544 39.3452 101.065 39.6392L97.278 41.9502C97.1541 42.0262 96.9732 42.1482 96.7353 42.3163C96.4995 42.4758 96.3223 42.5918 96.2038 42.6645C95.9937 42.7933 95.7784 42.829 95.5578 42.7715C95.3427 42.7108 95.1723 42.578 95.0468 42.3733C94.8089 41.9855 94.8898 41.6097 95.2895 41.246C95.3915 41.1464 95.763 40.9 96.4041 40.5069ZM99.5256 44.5637C99.8812 44.3457 100.419 44.0267 101.14 43.6068C101.861 43.1869 102.4 42.8679 102.755 42.6499C103.235 42.3559 103.621 42.4486 103.915 42.928C104.209 43.4075 104.117 43.7942 103.637 44.0882C103.282 44.3063 102.743 44.6252 102.022 45.0451C101.301 45.465 100.763 45.784 100.408 46.002C100.246 46.1011 100.01 46.2606 99.7002 46.4803C99.3902 46.7001 99.1571 46.8579 99.0009 46.9537C98.5053 47.2576 98.1105 47.1698 97.8165 46.6904C97.5456 46.2486 97.6302 45.8669 98.0704 45.5451C98.6419 45.1353 99.127 44.8081 99.5256 44.5637Z" fill="#727E99"/>
<path d="M94.9226 47.6648L96.756 50.6546C97.0632 51.1556 96.9717 51.5564 96.4815 51.857C95.9105 52.2072 95.3855 51.9917 94.9065 51.2106C94.847 51.1136 94.7682 50.973 94.6699 50.7886C94.5717 50.6042 94.5027 50.4797 94.4631 50.4151L93.3302 48.5857L89.7121 50.6821C88.9741 51.1347 88.4475 51.4243 88.1322 51.5509C87.5925 51.7707 87.2301 51.7298 87.0451 51.4281C86.8964 51.1857 86.8563 50.7878 86.9246 50.2344L87.1141 48.984L87.5319 40.7442C87.5856 40.0219 87.8899 39.4906 88.4447 39.1503C89.0535 38.777 89.5197 38.8543 89.8434 39.3823L93.9612 46.0972C94.0495 46.0356 94.1583 45.9652 94.2876 45.886C95.2788 45.2781 95.9379 45.2408 96.265 45.7742C96.5028 46.162 96.4484 46.5327 96.1018 46.8861C95.9484 47.0469 95.5553 47.3065 94.9226 47.6648ZM89.1628 41.79C89.1318 44.9669 89.0624 47.3742 88.9547 49.0117L92.3738 47.0262L89.1628 41.79Z" fill="#727E99"/>
<path d="M86.1919 52.5959C85.5055 53.1206 84.2249 53.9577 82.3503 55.1074C81.8977 55.3848 81.5427 55.3135 81.285 54.8933C81.0273 54.4731 81.1247 54.1243 81.5772 53.8468C82.0028 53.5858 82.6296 53.1755 83.4576 52.6158C84.2857 52.0562 84.9125 51.6458 85.338 51.3849C85.8175 51.0909 86.186 51.1539 86.4437 51.5741C86.6717 51.9458 86.5877 52.2864 86.1919 52.5959Z" fill="#727E99"/>
<path d="M78.2412 53.213L77.7403 55.0435L77.179 57.3558L81.9242 59.1827C82.1646 59.2725 82.336 59.4009 82.4384 59.5678C82.5673 59.7779 82.6004 60.0133 82.5379 60.2741C82.4754 60.5348 82.3418 60.7279 82.1371 60.8534C81.9324 60.979 81.6854 60.9933 81.3962 60.8964C80.5471 60.6239 78.9939 60.0493 76.7365 59.1727L76.1568 61.7632C76.0141 62.2436 75.8233 62.9721 75.5846 63.9487C75.5311 64.2484 75.4048 64.4593 75.2054 64.5816C75.0007 64.7071 74.768 64.7386 74.5073 64.6761C74.252 64.6103 74.0599 64.4723 73.9311 64.2622C73.8286 64.0952 73.7919 63.8843 73.8209 63.6293C73.8495 63.3375 73.9368 62.954 74.0829 62.479C74.2531 61.9225 74.3594 61.5459 74.402 61.3493L75.0181 58.4919L73.023 57.6138C72.2241 57.2661 71.5799 57.0496 71.0903 56.9643C70.7732 56.9067 70.5487 56.7702 70.4165 56.5547C70.2844 56.3392 70.2425 56.1017 70.291 55.8422C70.3448 55.5794 70.4713 55.3869 70.6707 55.2647C70.9885 55.0698 71.7223 55.1906 72.8721 55.627L75.4543 56.701L76.1462 54.2753C76.4235 53.2528 76.5706 52.4954 76.5875 52.0032C76.6046 51.6443 76.7317 51.3922 76.9687 51.2468C77.1788 51.118 77.4126 51.0821 77.67 51.1392C77.9274 51.1964 78.1189 51.3273 78.2444 51.532C78.4261 51.8283 78.425 52.3886 78.2412 53.213Z" fill="#727E99"/>
<path d="M69.6217 68.5507C68.8082 69.0495 67.9742 69.3275 67.1197 69.3845C66.1513 69.4372 65.3224 69.1857 64.6332 68.6298C64.5414 68.5527 64.4674 68.4683 64.4113 68.3768C64.2791 68.1613 64.2509 67.9339 64.3266 67.6948C64.4044 67.4469 64.5511 67.2569 64.7666 67.1248C64.982 66.9926 65.229 66.9783 65.5075 67.0818L66.2211 67.4115C66.5769 67.5565 66.9604 67.5956 67.3716 67.5288C67.7795 67.4565 68.2124 67.28 68.6703 66.9992C69.2574 66.6391 69.6596 66.1405 69.8767 65.5033C70.1075 64.828 70.0511 64.2103 69.7076 63.65C69.2087 62.8366 68.5117 62.3708 67.6164 62.2526C66.8308 62.1562 65.9736 62.3298 65.0447 62.7734C64.4104 63.0808 63.9628 63.0217 63.7018 62.5961C63.5069 62.2783 63.5926 61.8922 63.9588 61.4378L65.5977 59.7767C65.8868 59.4141 66.0563 59.0619 66.1061 58.72C66.1526 58.3727 66.0778 58.0331 65.8817 57.7012C65.6017 57.2206 65.184 56.9504 64.6285 56.8908C64.0503 56.8302 63.4056 57.018 62.6945 57.4541C62.3282 57.6787 62.0272 57.9856 61.7914 58.3748L61.2301 59.5085C61.1218 59.7306 61.0137 59.8747 60.9059 59.9408C60.6905 60.0729 60.4551 60.1061 60.1997 60.0403C59.9465 59.9658 59.7554 59.8235 59.6266 59.6134C59.3656 59.1878 59.5267 58.5257 60.1097 57.627C60.6115 56.8375 61.094 56.3007 61.5573 56.0166C62.7155 55.3063 63.7909 54.999 64.7835 55.0945C65.8477 55.198 66.692 55.7588 67.3163 56.777C68.0927 58.0429 68.0929 59.1917 67.3172 60.2234C67.2487 60.3173 67.1668 60.4194 67.0714 60.5298C67.9497 60.3544 68.7286 60.4217 69.4078 60.7315C70.0838 61.0361 70.663 61.5816 71.1453 62.3681C71.7961 63.4293 71.975 64.5612 71.6821 65.7638C71.3859 66.961 70.6991 67.89 69.6217 68.5507Z" fill="#727E99"/>
<path d="M61.4065 65.9269C61.5288 66.1263 61.5688 66.3426 61.5266 66.5761C61.4865 66.8008 61.3668 66.9743 61.1675 67.0965C61.1029 67.1362 60.9993 67.1848 60.8568 67.2426C60.7143 67.3003 60.608 67.3507 60.538 67.3936L59.7398 67.9053C59.4178 68.1176 59.1485 68.2827 58.9318 68.4008L60.0963 70.2997C60.3936 70.7846 60.3025 71.174 59.8231 71.468C59.586 71.6134 59.3692 71.6648 59.1727 71.6222C58.9782 71.571 58.8066 71.4242 58.6579 71.1818L58.08 70.2575L57.4971 69.3251C56.8684 69.7625 56.4194 70.0638 56.15 70.229C55.315 70.741 54.7456 70.7492 54.4417 70.2536C54.2269 69.9035 54.2413 69.5945 54.4847 69.3266C54.5706 69.2369 54.8316 69.0582 55.268 68.7907C55.5373 68.6255 55.9864 68.3242 56.6151 67.8867L56.0272 66.9463C55.7266 66.4561 55.5427 66.1018 55.4756 65.8835C55.4105 65.6566 55.4048 65.4599 55.4585 65.2936C55.5122 65.1272 55.6279 64.9896 55.8057 64.8805C56.0104 64.755 56.224 64.7166 56.4467 64.7654C56.6714 64.8055 56.8466 64.9279 56.9721 65.1326C57.0283 65.2242 57.1067 65.3763 57.2074 65.5888C57.3134 65.798 57.3978 65.9538 57.4606 66.0562L58.0336 66.9724L58.6545 66.625C58.7622 66.5589 58.9232 66.4528 59.1375 66.3066C59.3485 66.1549 59.5078 66.0461 59.6155 65.98C60.499 65.4383 61.096 65.4206 61.4065 65.9269Z" fill="#727E99"/>
<path d="M46.3174 70.5877L47.006 70.1876L47.6947 69.7876C47.8725 69.6785 48.1172 69.4914 48.429 69.2261C48.7461 68.9575 48.9882 68.772 49.1552 68.6696C49.3222 68.5672 49.4975 68.5449 49.6812 68.6027C49.8703 68.6572 50.0161 68.768 50.1185 68.935C50.4224 69.4306 49.8525 70.1211 48.4088 71.0064C48.2257 71.1187 47.9503 71.2802 47.5828 71.4907C47.2206 71.698 46.948 71.8578 46.7648 71.9701C46.4793 72.1452 46.1989 72.2319 45.9236 72.2302C45.5941 72.2247 45.3467 72.0873 45.1815 71.818C44.7455 71.1069 44.6577 70.3231 44.9182 69.4665L45.8429 67.4206C46.1827 66.6933 46.2304 66.1304 45.9859 65.7317C45.8901 65.5755 45.6804 65.4632 45.3567 65.3948C45.0331 65.3264 44.7905 65.3417 44.6289 65.4408C44.2572 65.6688 44.034 65.9576 43.9594 66.3073L43.958 67.1754C43.9588 67.4789 43.8568 67.6934 43.6521 67.8189C43.4851 67.9213 43.3066 67.9567 43.1166 67.9249C42.9234 67.8878 42.7755 67.7857 42.6731 67.6187C42.356 67.1015 42.3642 66.4924 42.6977 65.7912C42.9918 65.1586 43.4217 64.6689 43.9873 64.3221C44.4937 64.0115 45.0792 63.9268 45.7438 64.0677C46.4106 64.2 46.8926 64.5086 47.1899 64.9934C47.616 65.6883 47.7694 66.3615 47.65 67.0129C47.5894 67.3614 47.3592 67.9288 46.9593 68.7152C46.5806 69.4515 46.3666 70.0757 46.3174 70.5877Z" fill="#727E99"/>
<path d="M42.2802 75.2652L41.7793 77.0957L41.2181 79.408L45.9633 81.2349C46.2037 81.3247 46.3751 81.4531 46.4775 81.6201C46.6063 81.8302 46.6395 82.0656 46.577 82.3263C46.5145 82.587 46.3809 82.7801 46.1762 82.9057C45.9714 83.0312 45.7245 83.0455 45.4353 82.9486C44.5862 82.6761 43.033 82.1016 40.7756 81.2249L40.1959 83.8154C40.0532 84.2958 39.8624 85.0243 39.6237 86.001C39.5702 86.3006 39.4438 86.5116 39.2445 86.6338C39.0398 86.7593 38.8071 86.7908 38.5464 86.7283C38.291 86.6625 38.099 86.5246 37.9701 86.3145C37.8677 86.1475 37.831 85.9365 37.8599 85.6815C37.8886 85.3897 37.9759 85.0063 38.1219 84.5313C38.2921 83.9747 38.3985 83.5981 38.441 83.4016L39.0572 80.5441L37.0621 79.6661C36.2632 79.3183 35.619 79.1018 35.1293 79.0166C34.8123 78.959 34.5877 78.8224 34.4556 78.6069C34.3234 78.3915 34.2816 78.154 34.33 77.8945C34.3838 77.6317 34.5104 77.4392 34.7097 77.3169C35.0276 77.122 35.7614 77.2428 36.9112 77.6793L39.4934 78.7533L40.1852 76.3276C40.4626 75.305 40.6097 74.5477 40.6266 74.0554C40.6437 73.6965 40.7708 73.4444 41.0078 73.2991C41.2179 73.1702 41.4517 73.1344 41.7091 73.1915C41.9665 73.2486 42.1579 73.3795 42.2835 73.5842C42.4652 73.8805 42.4641 74.4408 42.2802 75.2652Z" fill="#727E99"/>
<path opacity="0.1" d="M664.302 355.341C664.178 355.566 660.435 361.936 660.311 362.082C660.334 361.913 663.062 352.669 663.062 352.669C663.062 352.669 667.808 355.341 667.921 355.397C667.966 355.318 671.777 350.042 671.912 349.895C671.89 350.064 669.184 358.069 669.184 358.069L664.302 355.341Z" fill="#222222"/>
<path opacity="0.1" d="M697.064 374.258C696.94 374.484 693.197 380.854 693.073 381C693.095 380.831 695.824 371.586 695.824 371.586C695.824 371.586 700.57 374.258 700.683 374.315C700.728 374.236 704.539 368.96 704.674 368.813C704.651 368.982 701.946 376.987 701.946 376.987L697.064 374.258Z" fill="#222222"/>
<g opacity="0.1">
<path d="M669.939 345.07L687.211 335.092C693.536 331.451 701.845 329.647 710.153 329.681C710.311 329.681 710.458 329.681 710.616 329.681C710.774 329.681 710.92 329.681 711.078 329.681C711.236 329.681 711.382 329.681 711.54 329.681C711.698 329.681 711.845 329.681 712.002 329.681C712.16 329.681 712.307 329.681 712.465 329.681C712.622 329.681 712.769 329.681 712.927 329.681C713.085 329.681 713.231 329.681 713.389 329.681C713.547 329.681 713.694 329.681 713.851 329.681C714.009 329.681 714.156 329.681 714.314 329.681C714.471 329.681 714.618 329.681 714.776 329.681C714.934 329.681 715.08 329.681 715.238 329.681C715.396 329.681 715.542 329.681 715.7 329.681C715.858 329.681 716.005 329.681 716.163 329.681C716.32 329.681 716.467 329.681 716.625 329.681C716.783 329.681 716.929 329.681 717.087 329.681C725.385 329.647 733.705 331.451 740.018 335.104C740.018 335.104 740.232 335.228 740.604 335.464C740.999 335.69 741.54 336.062 742.239 336.547C742.916 337.054 743.739 337.663 744.584 338.475C745.441 339.275 746.343 340.256 747.143 341.462C747.966 342.657 748.677 344.078 749.049 345.69C749.24 346.49 749.331 347.336 749.342 348.204C749.319 349.072 749.218 349.951 749.004 350.82C748.767 351.688 748.451 352.544 748.034 353.367C747.933 353.57 747.809 353.773 747.696 353.976L747.527 354.281L747.335 354.574C747.211 354.765 747.076 354.968 746.952 355.16L746.523 355.724C745.373 357.212 743.919 358.508 742.363 359.636C740.819 360.763 739.094 361.654 737.448 362.612C735.802 363.559 734.178 364.484 732.6 365.374C729.455 367.167 726.523 368.847 724.009 370.278C723.491 370.572 722.983 370.865 722.498 371.147C720.672 372.195 719.128 373.074 717.966 373.74C716.805 374.405 716.039 374.844 715.757 375.002C715.757 375.002 708.406 374.968 708.35 375.002L706.929 374.168L705.351 373.255L703.772 372.353L702.183 371.462C701.123 370.865 700.052 370.278 698.981 369.715C698.451 369.422 697.91 369.151 697.369 368.869C696.828 368.587 696.287 368.305 695.745 368.035L702.724 364.01L719.996 354.044C720.841 353.559 721.551 353.018 722.138 352.454C722.138 352.454 722.138 352.454 722.138 352.466C722.138 352.466 722.138 352.466 722.149 352.454C722.149 352.454 722.16 352.454 722.16 352.443C722.183 352.42 722.217 352.387 722.239 352.364C722.363 352.24 722.476 352.116 722.589 351.992C722.6 351.981 722.6 351.981 722.611 351.97L722.622 351.958C722.69 351.891 722.747 351.823 722.814 351.733C722.904 351.631 722.983 351.519 723.051 351.417C723.073 351.383 723.096 351.349 723.13 351.316C723.209 351.214 723.276 351.09 723.355 350.966C723.367 350.944 723.389 350.921 723.4 350.887C723.4 350.876 723.412 350.876 723.412 350.865C723.457 350.786 723.513 350.707 723.558 350.617C723.603 350.526 723.648 350.436 723.682 350.335C724.043 349.591 724.302 348.554 724.111 347.392C724.043 346.964 723.908 346.524 723.716 346.085C723.378 345.363 722.882 344.653 722.239 344.01C721.608 343.401 720.864 342.849 720.041 342.364C719.511 342.048 718.936 341.778 718.338 341.53C716.963 340.966 715.441 340.583 713.84 340.346C712.408 340.538 710.988 340.853 709.601 341.316C709.15 341.473 708.688 341.62 708.248 341.823L707.583 342.105L706.952 342.432C706.737 342.544 706.535 342.635 706.32 342.77L705.7 343.119C705.294 343.356 704.877 343.582 704.471 343.818C702.837 344.754 701.236 345.667 699.68 346.558C696.568 348.339 693.671 349.997 691.179 351.406C690.683 351.688 690.221 351.958 689.759 352.218C686.106 354.303 683.581 355.746 683.017 356.073C683.017 356.073 675.666 356.039 675.61 356.073L674.19 355.239L672.611 354.326L671.033 353.424L669.443 352.533C668.383 351.936 667.312 351.361 666.241 350.786C665.712 350.493 665.17 350.222 664.629 349.94C664.088 349.658 663.547 349.377 663.006 349.106L669.939 345.07Z" fill="#222222"/>
</g>
<path d="M683.997 343.153C686.466 341.71 689.353 340.031 692.453 338.227C693.997 337.325 695.598 336.389 697.222 335.442C697.628 335.205 698.034 334.969 698.439 334.732L699.048 334.371C699.24 334.258 699.465 334.146 699.668 334.033L700.3 333.706L700.942 333.424C701.371 333.221 701.822 333.075 702.261 332.917C704.054 332.308 705.937 331.936 707.797 331.756C709.657 331.575 711.517 331.586 713.287 331.789C715.057 331.992 716.748 332.376 718.27 332.984C718.868 333.221 719.443 333.503 719.973 333.807V341.981C714.426 338.779 704.663 339.208 699.105 342.409L682.566 351.958V343.988C683.039 343.717 683.501 343.435 683.997 343.153Z" fill="#AF5F6F"/>
<path d="M716.85 362.015C719.352 360.56 722.272 358.858 725.395 357.032C726.962 356.118 728.574 355.171 730.209 354.224C731.844 353.255 733.546 352.353 735.113 351.18C736.669 350.031 738.123 348.711 739.285 347.189L739.713 346.615C739.848 346.423 739.972 346.22 740.108 346.017L740.299 345.724L740.468 345.408C740.581 345.205 740.705 345.002 740.807 344.788C741.224 343.943 741.539 343.074 741.765 342.184C741.866 341.744 741.945 341.304 741.99 340.854L741.979 347.144C742.002 347.584 742.002 348.024 741.979 348.463V348.486C741.686 352.996 738.563 357.449 732.611 360.887L715.339 370.865V362.894C715.824 362.612 716.331 362.319 716.85 362.015Z" fill="#435168"/>
<path d="M675.588 347.404L674.168 346.569L672.589 345.656L671 344.754L669.41 343.864C668.35 343.266 667.279 342.691 666.208 342.116C665.678 341.823 665.137 341.553 664.596 341.271C664.055 340.989 663.514 340.707 662.973 340.436L669.951 336.412L677.11 340.538L682.33 343.548C678.677 345.634 676.163 347.077 675.588 347.404Z" fill="#C9CED3"/>
<path d="M715.103 362.466C711.438 364.551 708.924 365.994 708.361 366.321L706.94 365.487L705.362 364.574L703.772 363.672L702.183 362.781C701.123 362.184 700.052 361.609 698.981 361.034C698.451 360.741 697.91 360.47 697.369 360.188C696.827 359.906 696.286 359.624 695.745 359.354L702.724 355.329L709.86 359.444L715.103 362.466Z" fill="#C9CED3"/>
<path d="M697.268 360.335C697.775 360.662 698.294 360.989 698.812 361.316C699.849 361.958 700.887 362.59 701.935 363.21L703.502 364.145L705.081 365.07L706.659 365.983L708.113 366.806L708.147 368.711L708.203 370.775C708.226 371.462 708.248 372.15 708.282 372.838C708.316 373.525 708.339 374.213 708.384 374.901L695.746 367.607V359.343C696.242 359.681 696.749 360.008 697.268 360.335Z" fill="#DFE7EB"/>
<path d="M708.474 372.827C708.508 372.139 708.531 371.451 708.553 370.763L708.61 368.7L708.644 366.818C709.196 366.491 711.71 365.025 715.352 362.906V370.876L708.373 374.901C708.418 374.213 708.441 373.514 708.474 372.827Z" fill="#A7ACB0"/>
<path d="M666.05 342.387C667.087 343.029 668.124 343.661 669.172 344.281L670.739 345.217L672.318 346.141L673.896 347.054L675.351 347.877L675.384 349.782L675.441 351.846C675.463 352.533 675.486 353.221 675.52 353.909C675.553 354.596 675.576 355.284 675.621 355.972L662.983 348.678V340.414C663.49 340.752 663.998 341.079 664.516 341.406C665.012 341.744 665.531 342.071 666.05 342.387Z" fill="#DFE7EB"/>
<path d="M675.791 351.846L675.847 349.782L675.881 347.9C676.433 347.573 678.947 346.107 682.589 343.976V351.947L675.61 355.972C675.655 355.284 675.678 354.596 675.712 353.909C675.746 353.221 675.768 352.533 675.791 351.846Z" fill="#A7ACB0"/>
<path d="M664.596 341.248C665.137 341.53 665.678 341.812 666.208 342.094C667.279 342.669 668.35 343.255 669.41 343.841L671 344.732L672.589 345.634L674.168 346.547L675.588 347.381C676.152 347.054 678.677 345.622 682.33 343.526L682.578 343.672V343.954C678.937 346.085 676.423 347.55 675.87 347.877L675.836 349.76L675.78 351.823C675.757 352.511 675.735 353.199 675.701 353.886C675.667 354.574 675.645 355.262 675.6 355.949C675.554 355.262 675.532 354.574 675.498 353.886C675.464 353.199 675.442 352.511 675.419 351.823L675.363 349.76L675.329 347.855L673.875 347.032L672.296 346.119L670.718 345.194L669.151 344.258C668.102 343.638 667.065 343.007 666.028 342.364C665.509 342.049 665.002 341.722 664.483 341.383C663.965 341.057 663.457 340.73 662.95 340.391C663.514 340.684 664.055 340.966 664.596 341.248Z" fill="#F2FCFF"/>
<path d="M708.372 374.901C708.327 374.213 708.304 373.525 708.271 372.838C708.237 372.15 708.214 371.462 708.192 370.775L708.135 368.711L708.102 366.806L706.647 365.983L705.069 365.07L703.49 364.145L701.923 363.21C700.875 362.59 699.838 361.958 698.8 361.316C698.282 361 697.775 360.673 697.256 360.335C696.737 360.008 696.23 359.681 695.723 359.343C696.275 359.613 696.805 359.895 697.346 360.177C697.887 360.459 698.428 360.741 698.958 361.023C700.029 361.598 701.1 362.184 702.16 362.77L703.75 363.661L705.339 364.563L706.918 365.476L708.338 366.31C708.902 365.983 711.427 364.551 715.08 362.454L715.328 362.601V362.883C711.675 365.014 709.173 366.479 708.62 366.795L708.586 368.678L708.53 370.741C708.507 371.428 708.485 372.116 708.451 372.804C708.44 373.514 708.417 374.213 708.372 374.901Z" fill="#F2FCFF"/>
<path d="M722.566 343.289C722.454 343.413 722.341 343.537 722.217 343.661C722.296 343.582 722.409 343.458 722.566 343.289Z" fill="#397BD0"/>
<path d="M720.019 333.695C719.489 333.39 718.914 333.108 718.316 332.86C716.794 332.24 715.092 331.823 713.311 331.609C711.529 331.395 709.658 331.361 707.786 331.53C705.904 331.699 704.01 332.049 702.183 332.646C701.732 332.804 701.27 332.951 700.83 333.153L700.165 333.435L699.534 333.762C699.32 333.875 699.117 333.965 698.903 334.1L698.283 334.45C697.877 334.687 697.46 334.923 697.054 335.149C695.419 336.085 693.818 336.998 692.262 337.889C689.151 339.659 686.253 341.316 683.762 342.736C683.277 343.018 682.803 343.289 682.341 343.548L677.099 340.527L669.94 336.4L687.212 326.423C699.737 319.196 720.098 319.196 732.623 326.423L724.303 331.226L720.019 333.695Z" fill="#EF627E"/>
<path d="M719.984 333.717V333.796C719.443 333.492 718.879 333.221 718.282 332.973C716.76 332.364 715.069 331.981 713.299 331.778C711.529 331.575 709.68 331.564 707.808 331.744C705.948 331.925 704.065 332.297 702.273 332.905C701.822 333.063 701.371 333.21 700.954 333.413L700.311 333.695L699.68 334.021C699.477 334.134 699.251 334.236 699.06 334.36L698.451 334.72C698.045 334.957 697.639 335.194 697.233 335.431C695.61 336.378 694.009 337.313 692.464 338.215C689.375 340.019 686.489 341.699 684.009 343.142C683.524 343.424 683.051 343.706 682.6 343.965V343.683L682.352 343.537C682.803 343.277 683.276 343.007 683.772 342.725C686.264 341.304 689.161 339.647 692.273 337.877C693.829 336.987 695.43 336.073 697.064 335.138C697.47 334.901 697.887 334.675 698.293 334.439L698.913 334.089C699.127 333.965 699.342 333.864 699.544 333.751L700.176 333.424L700.841 333.142C701.281 332.939 701.743 332.793 702.194 332.635C704.02 332.037 705.914 331.677 707.797 331.519C709.68 331.361 711.54 331.383 713.321 331.598C715.103 331.812 716.805 332.229 718.327 332.849C718.924 333.097 719.488 333.379 720.029 333.683L719.984 333.717Z" fill="#FF5778"/>
<path d="M719.984 333.796C720.807 334.258 721.54 334.799 722.16 335.397C722.803 336.028 723.31 336.738 723.648 337.471C723.84 337.888 723.975 338.305 724.043 338.734C724.234 339.884 723.986 340.91 723.637 341.654C723.592 341.744 723.558 341.846 723.513 341.936C723.468 342.026 723.411 342.105 723.366 342.184C723.265 342.342 723.197 342.499 723.096 342.623C722.893 342.883 722.746 343.108 722.588 343.266C722.419 343.446 722.306 343.57 722.228 343.661C721.63 343.063 720.886 342.499 719.995 341.981L719.984 333.796Z" fill="#2D4163"/>
<path d="M734.844 327.866C735.52 328.373 736.343 328.982 737.189 329.794C738.046 330.594 738.948 331.575 739.748 332.781C740.548 333.976 741.259 335.397 741.631 337.009C741.822 337.809 741.913 338.655 741.924 339.523C741.901 340.391 741.8 341.271 741.586 342.139C741.349 343.007 741.033 343.864 740.616 344.687C740.515 344.889 740.391 345.092 740.278 345.295L740.109 345.6L739.917 345.893C739.782 346.084 739.658 346.287 739.522 346.479L739.094 347.043C737.944 348.542 736.49 349.827 734.934 350.955C733.389 352.082 731.665 352.973 730.019 353.931C728.373 354.878 726.749 355.803 725.171 356.693C722.025 358.486 719.094 360.166 716.58 361.597C716.061 361.891 715.554 362.184 715.069 362.466L709.827 359.444L702.668 355.318L719.94 345.34C720.785 344.856 721.507 344.314 722.093 343.751C722.127 343.728 722.149 343.694 722.172 343.672C722.296 343.548 722.409 343.424 722.521 343.3C722.533 343.289 722.533 343.289 722.544 343.277C722.544 343.277 722.544 343.277 722.555 343.266C722.623 343.198 722.679 343.131 722.747 343.041C722.826 342.939 722.916 342.838 722.984 342.725C723.006 342.691 723.029 342.657 723.062 342.623C723.141 342.522 723.209 342.398 723.288 342.274C723.299 342.251 723.322 342.229 723.333 342.195C723.333 342.184 723.344 342.184 723.344 342.172C723.389 342.094 723.446 342.015 723.491 341.924C723.536 341.834 723.57 341.744 723.615 341.643C723.976 340.898 724.235 339.861 724.043 338.7C723.976 338.272 723.84 337.832 723.649 337.392C723.311 336.671 722.814 335.96 722.172 335.318C721.54 334.709 720.808 334.157 719.973 333.672L724.258 331.203L732.578 326.4C732.578 326.4 732.792 326.524 733.164 326.761C733.604 327.009 734.156 327.381 734.844 327.866Z" fill="#5E6C86"/>
<path d="M732.622 326.423C732.87 326.569 733.107 326.705 733.344 326.851C733.299 326.829 733.265 326.806 733.22 326.784C732.836 326.547 732.633 326.423 732.622 326.423Z" fill="#4390E7"/>
<path d="M740.807 344.788C740.705 345.002 740.581 345.205 740.469 345.408L740.3 345.724L740.108 346.017C739.973 346.22 739.849 346.423 739.713 346.615L739.285 347.189C738.124 348.711 736.669 350.031 735.114 351.18C733.546 352.353 731.833 353.244 730.209 354.224C728.563 355.183 726.951 356.13 725.395 357.032C722.273 358.858 719.353 360.56 716.85 362.015C716.331 362.319 715.824 362.612 715.35 362.894V362.612L715.102 362.466C715.587 362.184 716.094 361.902 716.613 361.598C719.127 360.166 722.058 358.486 725.204 356.693C726.771 355.792 728.394 354.867 730.052 353.931C731.686 352.973 733.422 352.082 734.967 350.955C736.523 349.828 737.966 348.542 739.127 347.043L739.556 346.479C739.691 346.288 739.815 346.085 739.95 345.893L740.142 345.6L740.311 345.295C740.424 345.093 740.548 344.89 740.649 344.687C741.066 343.864 741.382 343.007 741.619 342.139C741.833 341.271 741.934 340.38 741.957 339.523C741.946 338.655 741.855 337.81 741.664 337.009C741.292 335.397 740.581 333.976 739.781 332.781C738.981 331.575 738.067 330.605 737.222 329.794C736.376 328.982 735.553 328.362 734.877 327.866C734.178 327.381 733.637 327.02 733.242 326.784C732.859 326.547 732.656 326.423 732.656 326.423C732.667 326.434 732.87 326.547 733.253 326.784C733.287 326.806 733.332 326.829 733.377 326.851C733.761 327.077 734.268 327.415 734.899 327.843C735.576 328.339 736.41 328.948 737.267 329.76C738.135 330.56 739.048 331.53 739.871 332.736C740.683 333.931 741.416 335.363 741.81 336.987C742.013 337.798 742.103 338.655 742.126 339.534C742.126 339.974 742.092 340.425 742.047 340.876C741.991 341.316 741.923 341.755 741.822 342.206C741.54 343.063 741.224 343.943 740.807 344.788Z" fill="#58709C"/>
<path d="M723.085 342.612C723.187 342.488 723.265 342.33 723.356 342.173C723.401 342.094 723.457 342.015 723.502 341.925C723.547 341.834 723.581 341.744 723.626 341.643C723.976 340.899 724.224 339.861 724.032 338.723C723.964 338.306 723.829 337.877 723.638 337.46C723.299 336.739 722.792 336.028 722.149 335.386C721.529 334.788 720.785 334.258 719.974 333.785V333.706L720.019 333.683C720.842 334.168 721.586 334.709 722.217 335.329C722.848 335.972 723.356 336.682 723.694 337.404C723.897 337.832 724.032 338.272 724.088 338.712C724.269 339.873 724.01 340.91 723.66 341.654C723.615 341.744 723.581 341.846 723.536 341.936C723.48 342.026 723.435 342.105 723.39 342.184C723.39 342.195 723.378 342.195 723.378 342.206C723.367 342.229 723.344 342.263 723.333 342.285C723.254 342.409 723.198 342.533 723.108 342.635C723.085 342.669 723.051 342.703 723.029 342.736C722.95 342.838 722.871 342.951 722.792 343.052C722.724 343.131 722.668 343.21 722.6 343.277C722.6 343.277 722.6 343.277 722.589 343.289C722.578 343.3 722.578 343.3 722.567 343.311C722.409 343.48 722.296 343.604 722.217 343.683C722.183 343.717 722.149 343.751 722.138 343.774C722.149 343.751 722.183 343.728 722.217 343.683C722.296 343.604 722.42 343.469 722.578 343.289C722.736 343.108 722.882 342.872 723.085 342.612Z" fill="#58709C"/>
<path d="M661.991 353.774C661.867 353.999 658.124 360.369 658 360.516C658.022 360.346 660.751 351.102 660.751 351.102C660.751 351.102 665.497 353.774 665.61 353.83C665.655 353.751 669.465 348.475 669.601 348.328C669.578 348.497 666.872 356.502 666.872 356.502L661.991 353.774Z" fill="#FFD683"/>
<path d="M657.999 360.527L661.99 353.773L661.979 355.645L657.999 360.527Z" fill="#FFA256"/>
<path d="M666.861 356.513L666.85 358.384L669.601 348.351L666.861 356.513Z" fill="#FFA256"/>
<path d="M666.85 358.384L661.98 355.645L661.991 353.773L666.861 356.513L666.85 358.384Z" fill="#FEDA93"/>
<path d="M694.753 372.691C694.629 372.917 690.886 379.286 690.762 379.433C690.785 379.264 693.513 370.019 693.513 370.019C693.513 370.019 698.26 372.691 698.372 372.748C698.417 372.669 702.228 367.392 702.363 367.246C702.341 367.415 699.635 375.419 699.635 375.419L694.753 372.691Z" fill="#FFD683"/>
<path d="M690.762 379.444L694.753 372.691L694.742 374.563L690.762 379.444Z" fill="#FFA256"/>
<path d="M699.624 375.431L699.612 377.302L702.363 367.269L699.624 375.431Z" fill="#FFA256"/>
<path d="M699.613 377.302L694.742 374.563L694.754 372.691L699.624 375.431L699.613 377.302Z" fill="#FEDA93"/>
<path d="M22.6058 238.269C20.1758 237.756 16.4649 239.298 14.9132 240.134C7.22063 241.998 7.30703 234.083 11.2748 231.326C14.449 229.12 13.6758 228.308 12.8924 228.177C10.2144 226.835 5.66334 222.545 8.88367 216.118C12.104 209.69 18.0731 211.009 20.6551 212.471C22.7172 213.224 26.2444 221.057 28.9034 215.484C31.5623 209.911 36.1515 209.718 38.3987 212.097C40.1965 214 38.3164 217.156 37.1516 218.497C36.6124 219.546 27.4792 223.222 33.6571 222.518C39.8351 221.814 41.2098 222.316 44.1156 227.585C47.0213 232.853 38.8636 236.417 34.7477 237.874C30.6318 239.331 25.6434 238.912 22.6058 238.269Z" fill="#C1CFEE"/>
<path d="M33.3847 252.198C38.4773 259.817 42.0839 268.298 45.943 276.556C46.6051 277.977 44.501 279.269 43.8389 277.849C39.9766 269.563 36.3732 261.11 31.2806 253.49C30.4326 252.147 32.5124 250.885 33.3847 252.198Z" fill="#727E99"/>
<path d="M32.7338 254.902L44.2169 277.638C48.5798 278.349 59.3708 281.709 67.6321 289.463C77.9588 299.156 72.3202 303.586 68.451 311.109C63.5893 320.561 53.9177 322.316 43.7268 322.489C33.5359 322.662 22.3819 314.381 22.2379 301.551C22.1228 291.288 29.4779 284.148 33.1699 281.861C29.6701 275.233 22.5107 261.732 21.8719 260.751C21.0734 259.524 21.4356 259.812 26.2389 258.606C30.0815 257.642 32.1699 255.735 32.7338 254.902Z" fill="#DCF8C1"/>
<path d="M18.4805 256.777C23.9491 264.769 28.6289 273.155 32.5808 281.984C33.2124 283.381 31.3035 284.678 30.4767 283.277C30.198 282.782 29.8888 282.263 29.6101 281.769C28.8414 280.388 30.9212 279.127 31.7142 280.477C31.9929 280.971 32.3022 281.49 32.5808 281.984C31.8805 282.424 31.1771 282.837 30.4767 283.277C26.5248 274.447 21.845 266.061 16.3489 258.072C15.4767 256.759 17.5839 255.494 18.4805 256.777Z" fill="#727E99"/>
<path d="M45.0959 275.684C58.0358 277.284 71.3635 284.242 73.8608 298.113C76.3892 312.256 64.3256 321.276 51.9066 324.491C39.8137 327.642 26.8659 324.02 20.9524 312.367C15.1094 300.844 20.1575 287.333 31.026 280.998C32.3811 280.207 33.673 282.276 32.321 283.094C21.9763 289.148 17.5855 302.086 23.9356 312.692C30.1143 323.013 42.1249 324.996 52.8909 321.664C64.5436 318.066 74.8754 309.216 70.8154 296.022C67.2809 284.514 55.6135 279.444 44.5344 278.074C42.9574 277.894 43.5189 275.503 45.0959 275.684Z" fill="#727E99"/>
<path d="M32.2933 251.879C33.0474 256.059 27.4176 257.144 24.4492 257.925C21.9654 258.568 15.7419 260.053 15.8378 255.527C15.9386 251.776 23.2939 250.467 26.0527 250.042C28.1286 249.722 35.6996 249.331 33.0022 253.71C32.182 255.05 29.9958 253.914 30.816 252.574C31.0742 252.157 25.1869 252.689 24.8333 252.757C23.9677 252.966 23.0779 253.206 22.2491 253.494C21.7677 253.66 19.4516 254.312 19.2545 254.777C19.454 255.309 19.6778 255.809 19.8773 256.341C20.5664 256.29 21.2735 256.154 21.9501 255.994C22.8737 255.806 23.791 255.563 24.6809 255.323C25.7048 255.04 30.2371 254.08 29.9561 252.589C29.6688 251.043 32.006 250.333 32.2933 251.879Z" fill="#727E99"/>
<path d="M36.5192 261.896C35.136 262.442 33.7559 263.014 32.3453 263.563C30.883 264.145 30.1973 261.785 31.6596 261.203C33.0428 260.658 34.4229 260.085 35.8335 259.537C37.2958 258.955 37.9815 261.314 36.5192 261.896Z" fill="#727E99"/>
<path d="M39.87 266.889C38.3621 267.559 36.8785 268.199 35.3706 268.869C34.7613 269.133 34.0068 268.609 33.8317 268.047C33.6135 267.352 34.0513 266.804 34.6575 266.513C36.1379 265.846 37.6489 265.203 39.1568 264.532C39.7661 264.269 40.5206 264.792 40.6958 265.354C40.9171 266.077 40.4792 266.625 39.87 266.889Z" fill="#727E99"/>
<path d="M42.0094 273.238C40.7323 273.494 39.4552 273.75 38.178 274.006C37.5258 274.136 36.8542 273.852 36.6391 273.184C36.4608 272.595 36.8126 271.78 37.4649 271.65C38.742 271.394 40.0192 271.137 41.2963 270.881C41.9486 270.751 42.6202 271.035 42.8352 271.703C43.0166 272.319 42.6617 273.108 42.0094 273.238Z" fill="#727E99"/>
<path d="M32.4751 299.088C38.8386 294.928 47.6872 289.405 55.6634 290.131C60.0983 290.512 62.8736 293.16 58.9116 296.686C56.2642 299.065 52.3399 300.481 49.1351 301.871C45.1078 303.604 40.1002 306.003 35.6515 306.233C31.398 306.468 29.3617 302.988 32.6845 299.95C33.8407 298.877 35.644 300.555 34.4877 301.629C35.325 303.611 36.5765 304.105 38.2179 303.143C38.809 302.964 39.3759 302.817 39.9671 302.639C41.7132 302.107 43.4256 301.524 45.1044 300.89C47.8738 299.827 55.9127 297.443 56.5759 294.237C57.221 291.117 52.7753 292.593 50.6358 293.086C49.0387 293.461 47.494 294.053 45.9799 294.669C41.6751 296.405 37.649 298.637 33.77 301.184C32.4242 302.057 31.1567 299.958 32.4751 299.088Z" fill="#727E99"/>
<path d="M59.8634 291.868C69.1919 300.805 61.9027 313.186 51.1212 316.381C41.1747 319.342 30.0975 312.377 31.7911 301.381C32.0313 299.83 34.4295 300.388 34.1893 301.939C32.784 311.074 42.4122 316.542 50.4387 314.049C59.2147 311.304 66.2566 301.389 58.2057 293.663C57.026 292.579 58.7111 290.78 59.8634 291.868Z" fill="#727E99"/>
<path d="M49.686 282.557C52.3625 282.141 55.0787 283.05 57.0166 284.935C58.1414 286.026 56.4563 287.824 55.3315 286.734C53.8001 285.246 51.8471 284.693 49.7712 285.012C48.2134 285.245 48.1588 282.814 49.686 282.557Z" fill="#727E99"/>
<path d="M29.3811 245.813C29.0514 244.382 28.6943 242.955 28.3676 241.551C28.1551 240.661 28.891 239.802 29.8307 240C34.4745 240.994 40.7787 237.534 43.3339 233.614C47.6149 227.032 41.0862 218.275 33.7936 222.817C32.4447 223.663 31.1771 221.564 32.4986 220.721C39.3254 216.481 47.8611 221.63 47.2492 229.678C46.661 237.445 36.7016 243.954 29.2693 242.39C29.7651 241.863 30.2365 241.366 30.7324 240.839C31.0621 242.269 31.4192 243.697 31.7459 245.1C32.0912 246.667 29.7264 247.38 29.3811 245.813Z" fill="#727E99"/>
<path d="M33.2331 219.861C35.1003 218.928 37.2935 217.931 38.5028 216.103C39.8094 214.154 39.5141 211.805 37.2456 210.679C33.4476 208.812 28.5067 211.065 28.8348 215.653C28.9301 217.221 26.4937 217.305 26.371 215.74C25.9439 209.307 32.9952 205.817 38.387 208.499C41.0402 209.831 42.2815 212.432 41.4955 215.291C40.5735 218.665 37.388 220.468 34.4701 221.936C33.1087 222.673 31.8138 220.577 33.2331 219.861Z" fill="#727E99"/>
<path d="M25.9697 215.869C22.2619 209.671 14.5649 209.689 8.96229 213.208C6.08176 215.004 4.09482 216.837 4.1855 220.317C4.26193 222.94 5.02072 223.989 6.77842 225.756C8.34969 227.35 9.84739 228.786 12.3386 228.696C13.9182 228.654 14.0002 231.083 12.4238 231.151C8.18839 231.301 4.11739 227.527 2.18153 223.953C0.141558 220.196 1.44711 216.53 4.37078 213.648C10.9939 207.132 22.8441 205.754 28.0981 214.546C28.87 215.954 26.7627 217.219 25.9697 215.869Z" fill="#727E99"/>
<path d="M13.0354 231.415C10.0104 231.454 6.53415 235.341 7.44738 238.478C8.57567 242.282 15.2275 241.386 17.8411 240.174C19.2667 239.513 20.5586 241.582 19.1361 242.271C15.0177 244.18 6.77636 244.787 5.11011 239.187C3.74806 234.55 8.34571 229.04 12.9808 228.983C14.5329 228.945 14.6181 231.4 13.0354 231.415Z" fill="#727E99"/>
<path d="M20.1735 241.377C20.9434 243.256 21.7134 245.135 22.4833 247.014C23.0662 248.471 20.7258 249.153 20.1155 247.699C19.3455 245.82 18.5756 243.941 17.8057 242.062C17.2228 240.605 19.5906 239.92 20.1735 241.377Z" fill="#727E99"/>
<path d="M36.7474 227.052C38.219 227.771 39.2322 229.345 39.1173 231.02C39.0086 232.75 37.8317 234.13 36.2322 234.728C34.7392 235.286 34.0535 232.926 35.5465 232.369C37.0668 231.808 36.9585 229.881 35.606 229.232C34.165 228.537 35.3338 226.354 36.7474 227.052Z" fill="#727E99"/>
</svg>
