<svg width="364" height="77" viewBox="0 0 364 77" fill="none" xmlns="http://www.w3.org/2000/svg">
<path d="M42.7527 29.5307C41.8626 30.0766 40.963 30.0682 40.0539 29.5056C39.3593 29.0693 38.704 28.3491 38.0882 27.3448C37.5675 26.4956 37.3152 25.631 37.3314 24.7507C37.3544 23.7173 37.7759 22.9492 38.5957 22.4464C39.3658 21.9742 40.1671 21.934 40.9997 22.326C41.7199 22.666 42.3305 23.2444 42.8314 24.0613C43.6358 25.3731 44.0321 26.4858 44.0204 27.3996C44.0068 28.3104 43.5842 29.0208 42.7527 29.5307ZM39.1111 23.2968C38.5665 23.6307 38.3043 24.1723 38.3245 24.9214C38.3418 25.5474 38.5326 26.1576 38.8971 26.752C39.4879 27.7153 40.0617 28.3586 40.6185 28.6819C41.1754 29.0052 41.7144 29.0071 42.2356 28.6875C42.8563 28.3068 43.0841 27.6796 42.919 26.8058C42.8047 26.199 42.5159 25.5179 42.0527 24.7625C41.5661 23.969 41.0772 23.4509 40.5859 23.2083C40.0975 22.9638 39.6059 22.9933 39.1111 23.2968Z" fill="#727E99"/>
<path d="M34.4618 28.3413L36.5156 27.0879C36.7762 26.9281 36.9864 26.9785 37.1462 27.2391C37.306 27.4997 37.2556 27.7099 36.995 27.8697L34.9368 29.1257C34.8695 29.167 34.7712 29.2334 34.6419 29.3248C34.5137 29.4114 34.4174 29.4745 34.353 29.514C34.2388 29.584 34.1218 29.6034 34.0019 29.5722C33.8849 29.5391 33.7923 29.467 33.7241 29.3557C33.5948 29.1449 33.6388 28.9407 33.856 28.743C33.9115 28.6888 34.1134 28.5549 34.4618 28.3413ZM36.1585 30.5462C36.3517 30.4277 36.6443 30.2544 37.0362 30.0261C37.4281 29.7979 37.7206 29.6246 37.9139 29.506C38.1745 29.3462 38.3847 29.3966 38.5445 29.6572C38.7043 29.9178 38.6539 30.128 38.3933 30.2878C38.2 30.4063 37.9075 30.5797 37.5156 30.8079C37.1237 31.0362 36.8311 31.2095 36.6379 31.328C36.5501 31.3819 36.4219 31.4685 36.2534 31.588C36.0849 31.7074 35.9582 31.7932 35.8733 31.8453C35.6039 32.0105 35.3893 31.9628 35.2295 31.7022C35.0823 31.4621 35.1283 31.2546 35.3675 31.0796C35.6782 30.8569 35.9418 30.6791 36.1585 30.5462Z" fill="#727E99"/>
<path d="M33.6561 32.232L34.6526 33.857C34.8196 34.1293 34.7698 34.3472 34.5034 34.5106C34.193 34.7009 33.9077 34.5838 33.6473 34.1592C33.615 34.1065 33.5721 34.03 33.5187 33.9298C33.4653 33.8296 33.4279 33.7619 33.4063 33.7268L32.7905 32.7325L30.824 33.872C30.4229 34.1179 30.1367 34.2753 29.9653 34.3442C29.6719 34.4636 29.475 34.4414 29.3744 34.2774C29.2936 34.1457 29.2718 33.9294 29.309 33.6286L29.4119 32.949L29.639 28.4704C29.6682 28.0778 29.8336 27.7891 30.1352 27.6041C30.466 27.4012 30.7194 27.4432 30.8954 27.7302L33.1336 31.3799C33.1815 31.3465 33.2407 31.3082 33.3109 31.2651C33.8497 30.9347 34.2079 30.9145 34.3857 31.2043C34.515 31.4152 34.4854 31.6166 34.297 31.8087C34.2136 31.8961 34 32.0372 33.6561 32.232ZM30.5255 29.0389C30.5086 30.7656 30.4709 32.074 30.4123 32.9641L32.2707 31.8849L30.5255 29.0389Z" fill="#727E99"/>
<path d="M28.9109 34.9122C28.5378 35.1974 27.8418 35.6524 26.8229 36.2772C26.5769 36.4281 26.3839 36.3893 26.2439 36.1609C26.1038 35.9325 26.1568 35.7429 26.4027 35.5921C26.634 35.4502 26.9747 35.2272 27.4248 34.923C27.8748 34.6188 28.2155 34.3958 28.4468 34.254C28.7074 34.0942 28.9077 34.1285 29.0478 34.3568C29.1717 34.5589 29.1261 34.744 28.9109 34.9122Z" fill="#727E99"/>
<path d="M24.59 35.2475L24.3177 36.2424L24.0127 37.4992L26.5918 38.4922C26.7225 38.541 26.8156 38.6108 26.8713 38.7015C26.9413 38.8157 26.9593 38.9437 26.9254 39.0854C26.8914 39.2271 26.8188 39.3321 26.7075 39.4003C26.5962 39.4685 26.462 39.4763 26.3048 39.4236C25.8433 39.2755 24.9991 38.9632 23.7722 38.4868L23.4571 39.8947C23.3795 40.1559 23.2758 40.5518 23.146 41.0827C23.117 41.2455 23.0483 41.3602 22.94 41.4266C22.8287 41.4949 22.7022 41.512 22.5605 41.478C22.4217 41.4422 22.3173 41.3673 22.2473 41.2531C22.1916 41.1623 22.1717 41.0476 22.1874 40.909C22.203 40.7504 22.2504 40.542 22.3298 40.2838C22.4223 39.9813 22.4801 39.7767 22.5032 39.6698L22.8381 38.1167L21.7537 37.6395C21.3195 37.4504 20.9694 37.3328 20.7033 37.2865C20.5309 37.2551 20.4089 37.1809 20.337 37.0638C20.2652 36.9467 20.2425 36.8176 20.2688 36.6766C20.2981 36.5337 20.3668 36.4291 20.4752 36.3626C20.6479 36.2567 21.0468 36.3224 21.6717 36.5596L23.0752 37.1433L23.4513 35.8249C23.602 35.2691 23.682 34.8575 23.6912 34.5899C23.7005 34.3949 23.7695 34.2578 23.8984 34.1788C24.0126 34.1088 24.1396 34.0893 24.2795 34.1204C24.4194 34.1514 24.5235 34.2226 24.5917 34.3338C24.6905 34.4949 24.6899 34.7994 24.59 35.2475Z" fill="#727E99"/>
<path d="M19.9051 43.584C19.463 43.8551 19.0097 44.0062 18.5452 44.0372C18.0188 44.0658 17.5683 43.9291 17.1937 43.627C17.1438 43.5851 17.1036 43.5392 17.0731 43.4895C17.0013 43.3723 16.9859 43.2488 17.0271 43.1188C17.0694 42.9841 17.1491 42.8808 17.2662 42.809C17.3833 42.7371 17.5176 42.7294 17.6689 42.7856L18.0568 42.9648C18.2502 43.0436 18.4586 43.0649 18.6821 43.0285C18.9038 42.9893 19.1391 42.8934 19.388 42.7407C19.7071 42.545 19.9257 42.274 20.0437 41.9277C20.1692 41.5606 20.1385 41.2249 19.9518 40.9203C19.6806 40.4782 19.3018 40.225 18.8152 40.1608C18.3882 40.1084 17.9223 40.2028 17.4174 40.4439C17.0726 40.611 16.8293 40.5788 16.6875 40.3475C16.5815 40.1748 16.6281 39.9649 16.8272 39.7179L17.718 38.8151C17.8751 38.618 17.9672 38.4266 17.9943 38.2407C18.0196 38.052 17.9789 37.8674 17.8723 37.687C17.7201 37.4258 17.4931 37.2789 17.1912 37.2465C16.8769 37.2136 16.5265 37.3157 16.14 37.5527C15.9409 37.6748 15.7773 37.8416 15.6491 38.0531L15.3441 38.6693C15.2852 38.79 15.2264 38.8684 15.1679 38.9043C15.0507 38.9761 14.9228 38.9941 14.784 38.9584C14.6464 38.9179 14.5425 38.8405 14.4725 38.7263C14.3307 38.495 14.4182 38.1351 14.7351 37.6467C15.0078 37.2175 15.2701 36.9258 15.5219 36.7714C16.1514 36.3853 16.7359 36.2183 17.2754 36.2702C17.8538 36.3264 18.3127 36.6313 18.6521 37.1846C19.074 37.8727 19.0742 38.4971 18.6525 39.0579C18.6153 39.1089 18.5708 39.1644 18.5189 39.2244C18.9963 39.1291 19.4197 39.1656 19.7889 39.3341C20.1563 39.4996 20.4711 39.7961 20.7332 40.2236C21.0869 40.8004 21.1842 41.4156 21.025 42.0693C20.864 42.72 20.4907 43.2249 19.9051 43.584Z" fill="#727E99"/>
<path d="M15.4401 42.1578C15.5066 42.2661 15.5283 42.3837 15.5054 42.5106C15.4836 42.6327 15.4186 42.727 15.3102 42.7935C15.2751 42.815 15.2188 42.8415 15.1413 42.8729C15.0639 42.9042 15.0061 42.9316 14.9681 42.9549L14.5342 43.2331C14.3592 43.3484 14.2128 43.4382 14.095 43.5024L14.728 44.5345C14.8896 44.798 14.8401 45.0097 14.5795 45.1695C14.4507 45.2485 14.3328 45.2764 14.226 45.2533C14.1203 45.2255 14.027 45.1457 13.9462 45.0139L13.6321 44.5115L13.3153 44.0048C12.9735 44.2425 12.7295 44.4063 12.5831 44.4961C12.1292 44.7744 11.8197 44.7788 11.6545 44.5095C11.5378 44.3191 11.5456 44.1512 11.6779 44.0056C11.7246 43.9568 11.8665 43.8597 12.1037 43.7143C12.2501 43.6245 12.4941 43.4607 12.8358 43.223L12.5163 42.7118C12.3529 42.4454 12.253 42.2528 12.2165 42.1342C12.1811 42.0108 12.1781 41.9039 12.2072 41.8135C12.2364 41.7231 12.2993 41.6483 12.3959 41.589C12.5072 41.5208 12.6233 41.4999 12.7443 41.5265C12.8665 41.5482 12.9617 41.6148 13.0299 41.726C13.0604 41.7758 13.103 41.8585 13.1578 41.974C13.2154 42.0877 13.2613 42.1724 13.2954 42.228L13.6068 42.726L13.9443 42.5372C14.0029 42.5013 14.0904 42.4436 14.2069 42.3641C14.3215 42.2817 14.4081 42.2226 14.4667 42.1866C14.9469 41.8922 15.2714 41.8826 15.4401 42.1578Z" fill="#727E99"/>
<path d="M7.23834 44.6913L7.61266 44.4738L7.98697 44.2563C8.08359 44.1971 8.21662 44.0954 8.38606 43.9512C8.55842 43.8052 8.68999 43.7044 8.78076 43.6487C8.87153 43.593 8.96684 43.5809 9.0667 43.6124C9.16948 43.642 9.2487 43.7022 9.30437 43.793C9.46956 44.0623 9.1598 44.4376 8.3751 44.9188C8.27555 44.9799 8.12589 45.0676 7.92612 45.1821C7.72928 45.2947 7.58109 45.3816 7.48153 45.4426C7.32635 45.5378 7.17394 45.5849 7.02431 45.584C6.8452 45.581 6.71076 45.5063 6.62098 45.3599C6.38397 44.9734 6.33626 44.5474 6.47784 44.0819L6.98046 42.9698C7.16514 42.5745 7.19105 42.2686 7.05818 42.0519C7.00611 41.967 6.89212 41.9059 6.71622 41.8688C6.54031 41.8316 6.40844 41.8399 6.3206 41.8938C6.11857 42.0177 5.99727 42.1747 5.95669 42.3647L5.95596 42.8366C5.95637 43.0015 5.90095 43.1181 5.78969 43.1863C5.69892 43.242 5.60191 43.2612 5.49865 43.2439C5.3936 43.2238 5.31325 43.1683 5.25758 43.0775C5.08521 42.7964 5.08967 42.4653 5.27095 42.0842C5.4308 41.7404 5.66444 41.4742 5.97188 41.2857C6.24711 41.1169 6.56535 41.0708 6.92661 41.1475C7.28899 41.2194 7.55099 41.3871 7.71258 41.6506C7.94421 42.0283 8.02757 42.3942 7.96266 42.7483C7.92974 42.9377 7.8046 43.2461 7.58724 43.6735C7.3814 44.0737 7.2651 44.413 7.23834 44.6913Z" fill="#727E99"/>
<path d="M5.04406 47.2336L4.77182 48.2285L4.46676 49.4853L7.0459 50.4783C7.17656 50.5271 7.26972 50.5969 7.32538 50.6876C7.39541 50.8018 7.41343 50.9298 7.37946 51.0715C7.34549 51.2132 7.27287 51.3181 7.1616 51.3864C7.05034 51.4546 6.91611 51.4624 6.7589 51.4097C6.2974 51.2616 5.45319 50.9493 4.22625 50.4728L3.91117 51.8808C3.83358 52.1419 3.72991 52.5379 3.60014 53.0688C3.57109 53.2316 3.50239 53.3463 3.39406 53.4127C3.28279 53.4809 3.15631 53.4981 3.0146 53.4641C2.87582 53.4283 2.77142 53.3533 2.7014 53.2392C2.64573 53.1484 2.62577 53.0337 2.64152 52.8951C2.65707 52.7365 2.70453 52.5281 2.78391 52.2699C2.87642 51.9674 2.93423 51.7627 2.95735 51.6559L3.29223 50.1028L2.20784 49.6255C1.77364 49.4365 1.42347 49.3189 1.15735 49.2725C0.98504 49.2412 0.862973 49.167 0.791152 49.0499C0.71933 48.9328 0.69658 48.8037 0.722902 48.6626C0.752152 48.5198 0.820945 48.4152 0.92928 48.3487C1.10203 48.2428 1.50088 48.3084 2.12583 48.5457L3.52934 49.1294L3.90538 47.811C4.0561 47.2552 4.13606 46.8436 4.14526 46.576C4.15456 46.381 4.22363 46.2439 4.35246 46.1649C4.46665 46.0949 4.59371 46.0754 4.73362 46.1064C4.87353 46.1375 4.9776 46.2086 5.04583 46.3199C5.14458 46.4809 5.14399 46.7855 5.04406 47.2336Z" fill="#727E99"/>
<path fill-rule="evenodd" clip-rule="evenodd" d="M345.833 37.6047C345.066 37.6009 344.356 37.9926 343.938 38.3607C343.865 38.4247 343.754 38.4177 343.69 38.345C343.626 38.2723 343.633 38.1615 343.706 38.0975C344.166 37.6926 344.955 37.2495 345.835 37.2539C346.731 37.2583 347.681 37.7276 348.44 39.0717C348.487 39.156 348.458 39.263 348.373 39.3106C348.289 39.3582 348.182 39.3284 348.134 39.2441C347.427 37.9899 346.583 37.6084 345.833 37.6047Z" fill="#EF627E"/>
<path fill-rule="evenodd" clip-rule="evenodd" d="M352.71 37.8101C352.629 37.7221 352.584 37.7143 352.572 37.7148C352.53 37.7165 352.458 37.7405 352.354 37.8108C352.253 37.8786 352.139 37.9778 352.016 38.1023C351.77 38.351 351.503 38.6839 351.255 39.0212C351.008 39.3575 350.783 39.6935 350.619 39.9458C350.537 40.0718 350.471 40.1767 350.425 40.25C350.402 40.2866 350.385 40.3154 350.373 40.3348L350.359 40.357L350.356 40.3625L350.355 40.3642L350.205 40.2734C350.055 40.1826 350.055 40.1826 350.055 40.1825L350.056 40.1804L350.06 40.1744L350.074 40.1513C350.086 40.1311 350.104 40.1017 350.128 40.0643C350.174 39.9895 350.242 39.8829 350.325 39.7549C350.491 39.4991 350.72 39.157 350.972 38.8134C351.224 38.4708 351.503 38.1221 351.767 37.8554C351.898 37.7223 352.031 37.6055 352.158 37.5198C352.282 37.4366 352.419 37.3698 352.558 37.3643C352.727 37.3575 352.865 37.4608 352.968 37.5727C353.076 37.6893 353.176 37.8495 353.268 38.0293C353.455 38.3907 353.63 38.8686 353.78 39.3391C353.93 39.8113 354.058 40.2836 354.148 40.6372C354.192 40.8142 354.228 40.9618 354.252 41.0653C354.264 41.117 354.274 41.1578 354.28 41.1857L354.287 41.2176L354.289 41.2259L354.29 41.2287C354.29 41.2287 354.29 41.2289 354.119 41.2668L353.947 41.3047L353.947 41.3022L353.945 41.2944L353.938 41.2636C353.932 41.2364 353.923 41.1965 353.911 41.1456C353.887 41.0438 353.852 40.8982 353.807 40.7235C353.719 40.3738 353.593 39.9088 353.446 39.4456C353.297 38.9806 353.129 38.525 352.957 38.1902C352.87 38.0219 352.787 37.8934 352.71 37.8101ZM350.114 40.4235C350.031 40.3733 350.004 40.2654 350.055 40.1825L350.205 40.2734L350.355 40.3642C350.305 40.4471 350.197 40.4737 350.114 40.4235ZM354.157 41.438C354.062 41.459 353.968 41.3993 353.947 41.3047L354.119 41.2668L354.29 41.2287C354.311 41.3232 354.251 41.4171 354.157 41.438Z" fill="#EF627E"/>
<path d="M361.545 47.6156C361.418 47.589 361.319 47.5222 361.248 47.4153C361.178 47.3083 361.157 47.1909 361.183 47.063C361.209 46.9375 361.276 46.8397 361.383 46.7696C361.49 46.697 361.608 46.674 361.736 46.7006C361.861 46.7267 361.959 46.7945 362.028 46.9039C362.101 47.0114 362.124 47.1279 362.098 47.2533C362.072 47.3812 362.004 47.48 361.894 47.5496C361.787 47.6197 361.671 47.6417 361.545 47.6156Z" fill="#EF627E"/>
<path d="M360.852 45.8742C360.762 46.3071 360.525 46.5941 360.142 46.735C359.816 46.8571 359.406 46.8668 358.912 46.7639C358.821 46.745 358.698 46.717 358.544 46.6798C358.367 46.6326 358.244 46.6019 358.175 46.5875C358.133 46.5892 358.093 46.5859 358.054 46.5777C357.803 46.5256 357.713 46.3297 357.783 45.9903C357.793 45.9436 357.837 45.7988 357.916 45.556C358.019 45.2336 358.1 44.9285 358.16 44.6407C358.201 44.4439 358.247 44.1634 358.297 43.7992C358.35 43.433 358.397 43.1515 358.438 42.9548C358.492 42.694 358.639 42.5885 358.877 42.6381C359.13 42.6908 359.234 42.8303 359.186 43.0566C359.133 43.3149 359.075 43.6749 359.012 44.1365C359.133 44.1567 359.229 44.1739 359.298 44.1883C359.89 44.3116 360.309 44.4821 360.554 44.6998C360.859 44.9736 360.958 45.3651 360.852 45.8742ZM360.14 45.7261C360.197 45.4506 360.151 45.2473 360.001 45.1161C359.881 45.0062 359.643 44.9145 359.289 44.8408C359.193 44.8208 359.059 44.7981 358.887 44.7727C358.879 44.8248 358.87 44.8743 358.86 44.921C358.821 45.108 358.722 45.4748 358.562 46.0214C358.765 46.0688 358.926 46.1048 359.044 46.1294C359.691 46.2639 360.056 46.1295 360.14 45.7261Z" fill="#EF627E"/>
<path d="M355.768 46.2984C355.264 46.1935 354.875 45.9535 354.601 45.5784C354.313 45.185 354.224 44.7263 354.333 44.2024C354.437 43.7031 354.71 43.2223 355.153 42.7601C355.645 42.2465 356.122 42.0378 356.584 42.134C356.825 42.1842 357.083 42.2968 357.357 42.4718C357.703 42.6952 357.854 42.9114 357.811 43.1205C357.791 43.214 357.743 43.2912 357.666 43.3522C357.59 43.4108 357.506 43.4306 357.415 43.4116C357.344 43.3968 357.286 43.3628 357.24 43.3098C357.198 43.2547 357.156 43.2012 357.116 43.1492C356.995 43.0034 356.769 42.8962 356.44 42.8276C356.189 42.7754 355.894 42.9476 355.555 43.3441C355.245 43.7083 355.06 44.0404 354.997 44.3405C354.93 44.6652 354.987 44.944 355.17 45.177C355.34 45.3946 355.587 45.5372 355.912 45.6047C356.06 45.6354 356.225 45.6288 356.409 45.5849L356.884 45.4452C356.966 45.4212 357.023 45.4125 357.055 45.4192C357.146 45.4381 357.217 45.4914 357.268 45.579C357.32 45.6641 357.336 45.7534 357.317 45.8469C357.279 46.0264 357.054 46.1604 356.64 46.2489C356.278 46.3274 355.987 46.3439 355.768 46.2984Z" fill="#EF627E"/>
<path d="M353.557 44.5452C353.537 44.6411 353.502 44.7828 353.453 44.9701C353.404 45.1575 353.369 45.2991 353.349 45.395C353.328 45.4983 353.274 45.577 353.189 45.631C353.105 45.688 353.012 45.7058 352.908 45.6843C352.802 45.6623 352.721 45.6082 352.665 45.5221C352.61 45.4389 352.594 45.3456 352.615 45.2423C352.649 45.0824 352.706 44.8454 352.786 44.5312C352.867 44.2169 352.924 43.9799 352.957 43.82C353.02 43.5175 353.057 43.2248 353.067 42.9421C352.675 43.3224 352.393 43.5858 352.221 43.7323C351.891 44.0126 351.576 44.2346 351.278 44.3983C350.885 44.6116 350.589 44.7862 350.392 44.9222C350.233 45.0303 350.083 45.0696 349.94 45.0399C349.832 45.0174 349.744 44.9697 349.677 44.8967C349.604 44.8149 349.579 44.721 349.601 44.6153C349.747 43.9143 349.886 43.1812 350.02 42.416C350.157 41.6209 350.224 41.2331 350.22 41.2528C350.272 41.0019 350.421 40.902 350.667 40.9532C350.876 40.9967 350.973 41.1401 350.958 41.3834C350.956 41.4213 350.914 41.6654 350.833 42.1156L350.496 43.9585C350.935 43.7086 351.409 43.376 351.916 42.9606C352.074 42.8317 352.51 42.453 353.226 41.8243C353.412 41.6602 353.587 41.5953 353.752 41.6296C353.855 41.6511 353.934 41.7034 353.988 41.7866C354.045 41.8703 354.063 41.965 354.041 42.0708C353.984 42.3438 353.903 42.7568 353.799 43.3099C353.694 43.8604 353.614 44.2722 353.557 44.5452Z" fill="#EF627E"/>
<path d="M349.052 44.4778C349.029 44.5861 348.977 44.6662 348.894 44.7183C348.811 44.7728 348.716 44.7891 348.611 44.7671C348.502 44.7446 348.421 44.6917 348.366 44.6086C348.311 44.5278 348.295 44.4333 348.318 44.3251C348.359 44.1259 348.439 43.7037 348.558 43.0587C348.213 43.2103 347.821 43.2403 347.381 43.1487C346.859 43.0402 346.519 42.7821 346.36 42.3744C346.203 41.9672 346.209 41.359 346.378 40.5497C346.462 40.1464 346.634 39.9718 346.895 40.026C347 40.048 347.081 40.1006 347.135 40.1838C347.19 40.2645 347.206 40.359 347.184 40.4673C347.178 40.4943 347.166 40.5341 347.148 40.5867C347.129 40.6368 347.118 40.6754 347.112 40.7025C346.976 41.3543 346.948 41.8 347.026 42.0395C347.098 42.2623 347.301 42.4085 347.636 42.4781C347.786 42.5093 347.977 42.4952 348.21 42.4359C348.46 42.3699 348.638 42.2786 348.744 42.1621C348.759 42.0933 348.793 41.9425 348.846 41.7099C348.9 41.4772 348.933 41.3302 348.946 41.2687C348.956 41.2195 348.966 41.1447 348.977 41.0442C348.99 40.9443 349.001 40.871 349.011 40.8242C349.033 40.7209 349.086 40.6435 349.171 40.5919C349.259 40.5409 349.354 40.5261 349.457 40.5476C349.718 40.6018 349.802 40.854 349.708 41.3041C349.694 41.3705 349.672 41.4583 349.642 41.5674C349.614 41.6771 349.596 41.7492 349.589 41.7836C349.53 42.0665 349.441 42.5161 349.32 43.1326C349.2 43.7465 349.111 44.195 349.052 44.4778Z" fill="#EF627E"/>
<path d="M346.176 40.6273L344.326 43.1215C343.871 43.7275 343.513 44.2394 343.252 44.6571L342.859 45.3223C342.758 45.4861 342.629 45.5516 342.472 45.5188C342.369 45.4973 342.286 45.4442 342.224 45.3595C342.164 45.2777 342.145 45.1864 342.166 45.0856C342.217 44.8396 342.631 44.1828 343.407 43.1151L342.615 40.2983L342.505 39.9945C342.462 39.8675 342.448 39.7659 342.464 39.6896C342.485 39.5888 342.542 39.5082 342.634 39.4478C342.729 39.3879 342.824 39.368 342.92 39.3879C343.033 39.4114 343.111 39.4727 343.155 39.5715C343.452 40.239 343.729 41.1588 343.986 42.331L344.797 41.1717C345.085 40.7724 345.353 40.433 345.601 40.1535C345.708 40.0322 345.826 39.9848 345.954 40.0114C346.055 40.0324 346.136 40.0865 346.197 40.1736C346.261 40.2613 346.283 40.3544 346.263 40.4528C346.251 40.5069 346.222 40.5651 346.176 40.6273Z" fill="#EF627E"/>
<path d="M340.023 42.4881C340.002 42.5864 339.946 42.6582 339.855 42.7033C339.766 42.7489 339.673 42.7618 339.578 42.7418C339.405 42.706 339.304 42.5939 339.274 42.4054C339.246 42.2175 339.13 41.8852 338.923 41.4087C338.703 40.9034 338.547 40.6401 338.456 40.6187C338.432 40.6136 338.284 40.5829 338.014 40.5266C337.997 40.6078 337.966 40.7514 337.92 40.9575C337.878 41.1488 337.846 41.2937 337.826 41.3921C337.742 41.7955 337.688 42.0242 337.664 42.0782C337.583 42.2692 337.442 42.3438 337.24 42.3018C337.137 42.2803 337.055 42.2312 336.994 42.1543C336.935 42.078 336.916 41.9894 336.937 41.8886C336.961 41.773 337.004 41.5932 337.065 41.3493C337.127 41.1029 337.17 40.9207 337.194 40.8026C337.243 40.569 337.307 40.2167 337.387 39.7457C337.467 39.2748 337.532 38.9213 337.581 38.6852C337.647 38.3679 337.806 38.2356 338.06 38.2883C338.163 38.3098 338.244 38.3599 338.302 38.4387C338.36 38.5175 338.379 38.6061 338.358 38.7045C338.321 38.884 338.254 39.2486 338.157 39.7982C338.224 39.812 338.314 39.8307 338.427 39.8543C338.731 39.897 338.975 39.808 339.16 39.5872C339.218 39.5044 339.294 39.397 339.388 39.2652C339.66 38.9111 339.936 38.7632 340.216 38.8215C340.304 38.8399 340.392 38.88 340.48 38.9418C340.591 39.0215 340.638 39.1056 340.62 39.1941C340.579 39.3884 340.475 39.4682 340.308 39.4334C340.17 39.4048 339.993 39.5399 339.777 39.8388C339.627 40.0411 339.544 40.1533 339.526 40.1754C339.421 40.2997 339.314 40.3903 339.204 40.4471C339.414 40.6729 339.612 41.0144 339.799 41.4716C339.992 41.9402 340.066 42.279 340.023 42.4881Z" fill="#727E99"/>
<path d="M334.752 41.8615C334.196 41.7459 333.775 41.5133 333.489 41.1637C333.176 40.778 333.078 40.3084 333.193 39.755C333.326 39.1155 333.592 38.6115 333.992 38.2431C334.428 37.8409 334.927 37.6984 335.49 37.8156C335.898 37.9005 336.217 38.0387 336.447 38.2302C336.729 38.4659 336.833 38.7596 336.76 39.1114C336.709 39.3573 336.523 39.5522 336.204 39.6961C336.062 39.7591 335.773 39.8426 335.335 39.9466L333.787 40.3213C333.882 40.5541 334.021 40.7434 334.204 40.8891C334.389 41.0354 334.618 41.137 334.891 41.1937C335.061 41.2291 335.267 41.2385 335.509 41.2222C335.816 41.2014 336.025 41.1345 336.136 41.0215C336.247 40.9061 336.351 40.8584 336.446 40.8783C336.533 40.8962 336.602 40.9453 336.655 41.0255C336.71 41.1038 336.729 41.186 336.711 41.2721C336.654 41.5451 336.385 41.7342 335.904 41.8394C335.493 41.9283 335.109 41.9357 334.752 41.8615ZM335.352 38.4797C335.052 38.4173 334.778 38.4822 334.53 38.6744C334.283 38.8642 334.061 39.1825 333.866 39.6294L335.11 39.3263C335.601 39.2025 335.957 39.0803 336.18 38.9598C336.009 38.719 335.733 38.559 335.352 38.4797Z" fill="#727E99"/>
<path d="M332.781 40.2695C332.688 40.7197 332.272 40.9655 331.535 41.0072C331.072 41.0341 330.527 40.9824 329.9 40.8519C329.804 40.832 329.72 40.7747 329.647 40.68C329.577 40.5858 329.552 40.492 329.571 40.3986L329.717 39.6976C329.718 39.6902 329.868 39.0335 330.165 37.7277C330.191 37.6047 330.216 37.4817 330.242 37.3587C330.276 37.2092 330.317 37.092 330.365 37.0071C330.399 36.9423 330.446 36.9021 330.506 36.8863C330.533 36.8766 330.605 36.871 330.721 36.8694C330.876 36.8632 331.126 36.896 331.47 36.9676C331.866 37.05 332.206 37.2206 332.488 37.4795C332.818 37.7816 332.944 38.1183 332.867 38.4897C332.795 38.8341 332.558 39.0478 332.156 39.131C332.326 39.251 332.477 39.4197 332.609 39.637C332.76 39.8841 332.818 40.0949 332.781 40.2695ZM332.177 38.3462C332.208 38.1962 332.132 38.0431 331.949 37.887C331.788 37.7483 331.626 37.662 331.464 37.6283L331.313 37.5968C331.126 37.5579 330.998 37.5353 330.93 37.5288C330.91 37.6119 330.881 37.747 330.842 37.9339C330.832 37.9806 330.819 38.0742 330.803 38.2144C330.789 38.3321 330.772 38.4261 330.752 38.4964C330.889 38.5403 331.014 38.574 331.127 38.5976C331.403 38.6549 331.607 38.6794 331.74 38.671C331.99 38.6537 332.135 38.5455 332.177 38.3462ZM332.058 40.0844C332.085 39.9515 332.014 39.8059 331.844 39.6474C331.714 39.5227 331.57 39.426 331.412 39.3573C331.32 39.3177 331.181 39.2772 330.995 39.2359C330.762 39.1823 330.62 39.1477 330.57 39.1321C330.525 39.2973 330.491 39.4377 330.467 39.5533L330.317 40.2727C331.414 40.4522 331.994 40.3894 332.058 40.0844Z" fill="#727E99"/>
<path d="M322.739 36.31C323.039 36.3724 323.487 36.4746 324.084 36.6167C324.683 36.7568 325.133 36.8581 325.433 36.9205L326.301 37.0779L327.063 37.2058L327.273 37.2532C327.489 37.2982 327.574 37.4326 327.528 37.6565C327.471 37.9295 327.229 38.0215 326.801 37.9325C326.734 37.9187 326.626 37.8922 326.475 37.8531C326.326 37.8145 326.219 37.7883 326.152 37.7745C325.665 37.6732 324.934 37.5249 323.958 37.3297C322.983 37.132 322.252 36.9825 321.765 36.8812C321.514 36.829 321.414 36.6811 321.465 36.4376C321.512 36.2089 321.656 36.1117 321.895 36.1461C321.997 36.1597 322.279 36.2143 322.739 36.31Z" fill="#727E99"/>
<path d="M318.688 37.2918C318.668 37.3877 318.633 37.5294 318.584 37.7167C318.535 37.9041 318.5 38.0457 318.48 38.1416C318.459 38.2449 318.405 38.3236 318.32 38.3776C318.236 38.4346 318.142 38.4524 318.039 38.4309C317.933 38.4089 317.852 38.3548 317.796 38.2686C317.741 38.1854 317.725 38.0922 317.746 37.9889C317.779 37.829 317.836 37.592 317.917 37.2777C317.998 36.9635 318.055 36.7265 318.088 36.5666C318.151 36.264 318.188 35.9714 318.198 35.6887C317.805 36.069 317.524 36.3324 317.352 36.4789C317.022 36.7592 316.707 36.9812 316.409 37.1449C316.016 37.3582 315.72 37.5328 315.522 37.6688C315.364 37.7769 315.213 37.8162 315.071 37.7865C314.963 37.764 314.875 37.7162 314.808 37.6433C314.735 37.5614 314.71 37.4676 314.732 37.3619C314.878 36.6609 315.017 35.9278 315.151 35.1626C315.288 34.3674 315.355 33.9797 315.35 33.9994C315.403 33.7485 315.552 33.6486 315.798 33.6998C316.007 33.7433 316.104 33.8867 316.089 34.13C316.086 34.1679 316.045 34.412 315.964 34.8622L315.627 36.7051C316.066 36.4552 316.54 36.1225 317.047 35.7071C317.204 35.5783 317.641 35.1995 318.357 34.5709C318.543 34.4068 318.718 34.3419 318.883 34.3761C318.986 34.3976 319.065 34.45 319.119 34.5332C319.176 34.6169 319.194 34.7116 319.172 34.8174C319.115 35.0904 319.034 35.5034 318.929 36.0564C318.825 36.607 318.745 37.0188 318.688 37.2918Z" fill="#727E99"/>
<path d="M314.487 36.4641C314.394 36.9142 313.978 37.1601 313.241 37.2017C312.778 37.2287 312.233 37.177 311.606 37.0465C311.51 37.0266 311.426 36.9692 311.353 36.8746C311.283 36.7804 311.258 36.6866 311.277 36.5931L311.423 35.8921C311.425 35.8848 311.574 35.2281 311.871 33.9222C311.897 33.7993 311.922 33.6763 311.948 33.5533C311.982 33.4038 312.023 33.2866 312.071 33.2017C312.105 33.1369 312.152 33.0966 312.212 33.0808C312.239 33.0712 312.311 33.0656 312.427 33.064C312.582 33.0578 312.832 33.0905 313.176 33.1622C313.572 33.2445 313.912 33.4152 314.194 33.674C314.524 33.9762 314.65 34.3129 314.573 34.6843C314.501 35.0287 314.264 35.2424 313.862 35.3256C314.032 35.4456 314.183 35.6143 314.315 35.8316C314.466 36.0786 314.524 36.2895 314.487 36.4641ZM313.883 34.5408C313.914 34.3908 313.838 34.2377 313.655 34.0816C313.494 33.9429 313.332 33.8566 313.17 33.8229L313.019 33.7914C312.832 33.7525 312.704 33.7298 312.636 33.7234C312.616 33.8065 312.587 33.9415 312.548 34.1285C312.538 34.1752 312.525 34.2687 312.509 34.409C312.495 34.5267 312.478 34.6207 312.458 34.691C312.595 34.7349 312.72 34.7686 312.833 34.7922C313.109 34.8495 313.313 34.8739 313.446 34.8656C313.696 34.8483 313.841 34.74 313.883 34.5408ZM313.764 36.279C313.791 36.1461 313.72 36.0005 313.55 35.842C313.42 35.7173 313.276 35.6206 313.118 35.5519C313.026 35.5123 312.887 35.4718 312.701 35.4304C312.468 35.3769 312.326 35.3423 312.276 35.3267C312.231 35.4919 312.197 35.6323 312.173 35.7479L312.023 36.4673C313.12 36.6467 313.7 36.5839 313.764 36.279Z" fill="#727E99"/>
<path d="M310.674 35.6248C310.654 35.7207 310.62 35.8624 310.57 36.0497C310.521 36.2371 310.487 36.3787 310.467 36.4746C310.445 36.5779 310.392 36.6566 310.306 36.7106C310.222 36.7676 310.129 36.7854 310.025 36.7639C309.92 36.7419 309.839 36.6878 309.782 36.6017C309.727 36.5185 309.711 36.4252 309.732 36.3219C309.766 36.162 309.823 35.925 309.903 35.6107C309.984 35.2965 310.041 35.0595 310.075 34.8996C310.137 34.597 310.174 34.3044 310.184 34.0217C309.792 34.402 309.51 34.6654 309.338 34.8119C309.008 35.0922 308.694 35.3142 308.395 35.4779C308.002 35.6912 307.706 35.8658 307.509 36.0018C307.35 36.1099 307.2 36.1492 307.057 36.1195C306.949 36.097 306.861 36.0493 306.794 35.9763C306.722 35.8945 306.696 35.8006 306.718 35.6949C306.864 34.9939 307.004 34.2608 307.137 33.4956C307.274 32.7005 307.341 32.3127 307.337 32.3324C307.389 32.0815 307.538 31.9816 307.784 32.0328C307.993 32.0763 308.09 32.2197 308.076 32.463C308.073 32.5009 308.031 32.745 307.95 33.1952L307.613 35.0381C308.053 34.7882 308.526 34.4556 309.033 34.0401C309.191 33.9113 309.628 33.5325 310.343 32.9039C310.529 32.7398 310.704 32.6749 310.869 32.7092C310.972 32.7306 311.051 32.783 311.106 32.8662C311.163 32.9499 311.18 33.0446 311.158 33.1504C311.101 33.4234 311.021 33.8364 310.916 34.3894C310.812 34.94 310.731 35.3518 310.674 35.6248Z" fill="#727E99"/>
<path d="M306.237 35.4909C306.219 35.5794 306.169 35.6448 306.088 35.6871C306.011 35.7273 305.926 35.738 305.835 35.7191C305.68 35.6869 305.591 35.5849 305.568 35.4133C305.539 35.2175 305.421 34.8758 305.212 34.3884C304.989 33.8649 304.826 33.5909 304.72 33.5664C304.696 33.5613 304.659 33.5537 304.61 33.5434C304.588 33.6492 304.555 33.8014 304.511 34.0002C304.465 34.2063 304.432 34.3597 304.411 34.4606C304.326 34.8689 304.273 35.1003 304.251 35.1548C304.177 35.3292 304.048 35.3974 303.866 35.3595C303.642 35.313 303.552 35.1888 303.594 34.9872C303.619 34.8666 303.662 34.682 303.724 34.4331C303.789 34.1823 303.834 33.9979 303.858 33.8798C303.894 33.7077 303.926 33.55 303.953 33.4068L303.839 33.383C303.738 33.362 303.48 33.547 303.065 33.938C302.678 34.3041 302.434 34.5715 302.332 34.7402C302.24 34.8878 302.116 34.9455 301.961 34.9133C301.873 34.8948 301.8 34.8502 301.743 34.7793C301.686 34.7084 301.667 34.6287 301.685 34.5401C301.728 34.331 301.939 34.0424 302.315 33.6743C302.686 33.3126 303.007 33.0778 303.278 32.97C303.171 32.8554 303.07 32.5816 302.975 32.1488C302.893 31.7673 302.776 31.5606 302.623 31.5289C302.48 31.4992 302.427 31.3983 302.463 31.2261C302.478 31.1524 302.545 31.1021 302.664 31.0754C302.761 31.052 302.852 31.0493 302.939 31.0672C303.103 31.1015 303.228 31.1953 303.311 31.3487C303.356 31.4299 303.404 31.5798 303.456 31.7984C303.484 31.9504 303.54 32.1494 303.625 32.3954C303.693 32.5098 303.847 32.5957 304.087 32.6532C304.151 32.2458 304.205 31.9363 304.249 31.7247C304.311 31.4246 304.457 31.2984 304.686 31.346C304.782 31.3659 304.856 31.4121 304.907 31.4844C304.959 31.5543 304.976 31.6347 304.957 31.7257C304.931 31.8512 304.864 32.2094 304.757 32.8003C305.004 32.8465 305.186 32.8292 305.302 32.7483C305.353 32.7152 305.488 32.5546 305.707 32.2666C305.841 32.0893 305.945 31.9711 306.019 31.912C306.157 31.8047 306.31 31.7684 306.477 31.8032C306.56 31.8206 306.642 31.8594 306.722 31.9197C306.82 31.9914 306.861 32.0641 306.846 32.1379C306.81 32.3101 306.721 32.3813 306.578 32.3517C306.426 32.3199 306.236 32.4626 306.008 32.7796C305.856 32.9918 305.769 33.1109 305.745 33.1368C305.633 33.27 305.519 33.3629 305.402 33.4157C305.608 33.6228 305.809 33.9648 306.005 34.4418C306.204 34.9296 306.281 35.2793 306.237 35.4909Z" fill="#727E99"/>
<path d="M299.649 34.0899C299.628 34.1883 299.572 34.26 299.481 34.3051C299.392 34.3508 299.299 34.3636 299.203 34.3436C299.031 34.3078 298.93 34.1957 298.9 34.0072C298.872 33.8193 298.756 33.487 298.549 33.0105C298.329 32.5052 298.173 32.2419 298.082 32.2205C298.058 32.2154 297.91 32.1847 297.64 32.1284C297.623 32.2096 297.592 32.3532 297.546 32.5593C297.504 32.7507 297.472 32.8955 297.452 32.9939C297.368 33.3973 297.314 33.626 297.29 33.68C297.209 33.871 297.068 33.9456 296.866 33.9036C296.763 33.8821 296.681 33.833 296.62 33.7561C296.561 33.6798 296.542 33.5912 296.563 33.4904C296.587 33.3748 296.63 33.195 296.691 32.9511C296.752 32.7047 296.796 32.5225 296.82 32.4044C296.869 32.1708 296.933 31.8185 297.013 31.3475C297.093 30.8766 297.158 30.5231 297.207 30.287C297.273 29.9697 297.432 29.8374 297.686 29.8901C297.789 29.9116 297.87 29.9617 297.928 30.0405C297.986 30.1193 298.004 30.2079 297.984 30.3063C297.947 30.4858 297.88 30.8504 297.783 31.4C297.85 31.4139 297.94 31.4325 298.053 31.4561C298.357 31.4988 298.601 31.4098 298.786 31.189C298.844 31.1062 298.92 30.9988 299.014 30.867C299.286 30.5129 299.562 30.365 299.842 30.4233C299.93 30.4417 300.018 30.4818 300.106 30.5436C300.217 30.6233 300.264 30.7074 300.246 30.7959C300.205 30.9903 300.101 31.07 299.934 31.0352C299.796 31.0066 299.619 31.1417 299.403 31.4406C299.253 31.6429 299.17 31.7551 299.152 31.7772C299.047 31.9015 298.939 31.9921 298.83 32.0489C299.04 32.2747 299.238 32.6162 299.425 33.0734C299.618 33.542 299.692 33.8808 299.649 34.0899Z" fill="#727E99"/>
<path d="M294.378 33.4631C293.822 33.3475 293.401 33.1149 293.115 32.7653C292.802 32.3796 292.704 31.91 292.819 31.3566C292.952 30.717 293.218 30.2131 293.618 29.8446C294.054 29.4425 294.553 29.3 295.116 29.4171C295.524 29.5021 295.843 29.6403 296.073 29.8317C296.355 30.0675 296.459 30.3612 296.386 30.7129C296.335 30.9589 296.149 31.1538 295.83 31.2977C295.688 31.3607 295.399 31.4442 294.961 31.5482L293.413 31.9228C293.508 32.1556 293.647 32.3449 293.83 32.4907C294.015 32.637 294.244 32.7385 294.517 32.7953C294.687 32.8306 294.893 32.8401 295.135 32.8237C295.442 32.8029 295.651 32.736 295.762 32.6231C295.873 32.5076 295.977 32.4599 296.072 32.4799C296.159 32.4978 296.228 32.5468 296.28 32.6271C296.336 32.7053 296.355 32.7875 296.337 32.8736C296.28 33.1466 296.011 33.3357 295.53 33.4409C295.119 33.5299 294.735 33.5373 294.378 33.4631ZM294.978 30.0813C294.678 30.0188 294.404 30.0837 294.156 30.276C293.909 30.4657 293.687 30.784 293.492 31.2309L294.736 30.9279C295.227 30.804 295.583 30.6819 295.806 30.5614C295.635 30.3206 295.359 30.1606 294.978 30.0813Z" fill="#727E99"/>
<path d="M291.013 32.4318C290.415 32.5331 289.685 32.4942 288.824 32.3151C288.718 32.2931 288.628 32.2217 288.553 32.1009C288.48 31.9831 288.455 31.8713 288.477 31.7656L288.7 30.6919C288.773 30.3402 288.9 29.843 289.08 29.2004C289.275 28.5072 289.408 28.0037 289.478 27.6898C289.523 27.463 289.607 27.1289 289.729 26.6874C289.772 26.568 289.83 26.4952 289.902 26.4692C290.258 26.4355 290.648 26.4629 291.074 26.5514C291.507 26.6414 291.892 26.8755 292.229 27.2535C292.618 27.6886 292.761 28.1558 292.657 28.6552C292.526 29.2873 292.176 29.7342 291.608 29.9959C291.945 30.2301 292.184 30.462 292.326 30.6917C292.47 30.922 292.519 31.1502 292.472 31.3765C292.41 31.6741 292.189 31.9284 291.809 32.1393C291.544 32.2895 291.279 32.387 291.013 32.4318ZM290.917 27.304C290.649 27.2483 290.459 27.2177 290.348 27.2124L290.206 27.8566L289.835 29.269C290.178 29.3712 290.362 29.4236 290.387 29.4263C290.765 29.474 291.093 29.4216 291.371 29.269C291.67 29.1028 291.855 28.8475 291.927 28.5032C291.975 28.2695 291.891 28.0262 291.674 27.7733C291.458 27.5203 291.205 27.3639 290.917 27.304ZM290.716 30.3453L290.338 30.2012C290.306 30.1945 290.256 30.1868 290.189 30.1779C290.124 30.167 290.075 30.158 290.04 30.1509C289.908 30.1232 289.768 30.0828 289.623 30.0294C289.544 30.3363 289.479 30.6114 289.428 30.8549L289.269 31.6187C289.918 31.7306 290.462 31.7488 290.902 31.6734C291.088 31.6428 291.274 31.5737 291.46 31.4663C291.637 31.3696 291.732 31.2893 291.745 31.2253C291.769 31.1097 291.639 30.9466 291.354 30.736C291.141 30.5762 290.928 30.4459 290.716 30.3453Z" fill="#727E99"/>
<path fill-rule="evenodd" clip-rule="evenodd" d="M290.783 34.4654C289.806 34.2726 288.762 34.0911 288.099 33.9831C288.003 33.9675 287.938 33.8773 287.954 33.7817C287.97 33.6861 288.06 33.6212 288.155 33.6368C288.821 33.7454 289.869 33.9275 290.851 34.1212C291.826 34.3136 292.755 34.5212 293.171 34.6824C293.405 34.7733 293.87 34.8927 294.453 35.0223C295.031 35.1509 295.712 35.2869 296.368 35.4123C297.312 35.5926 298.214 35.7521 298.672 35.8333C298.848 35.8642 298.958 35.8838 298.982 35.8887C299.077 35.9084 299.137 36.0013 299.118 36.0962C299.098 36.191 299.005 36.2519 298.91 36.2322C298.887 36.2273 298.779 36.2083 298.609 36.1782C298.157 36.0984 297.263 35.9402 296.302 35.7568C295.645 35.6312 294.96 35.4945 294.377 35.3647C293.798 35.236 293.307 35.1115 293.044 35.0094C292.663 34.8617 291.767 34.6597 290.783 34.4654Z" fill="#727E99"/>
<path fill-rule="evenodd" clip-rule="evenodd" d="M331.675 42.8714C330.697 42.6786 329.653 42.4971 328.99 42.3891C328.895 42.3735 328.83 42.2833 328.846 42.1877C328.861 42.0921 328.951 42.0272 329.047 42.0428C329.713 42.1514 330.761 42.3335 331.742 42.5272C332.717 42.7196 333.647 42.9272 334.062 43.0884C334.297 43.1793 334.762 43.2987 335.345 43.4283C335.923 43.5569 336.603 43.6929 337.26 43.8183C338.204 43.9986 339.105 44.1581 339.564 44.2393C339.739 44.2702 339.85 44.2898 339.873 44.2947C339.968 44.3145 340.029 44.4073 340.009 44.5022C339.99 44.597 339.897 44.6579 339.802 44.6382C339.778 44.6333 339.671 44.6143 339.5 44.5842C339.049 44.5044 338.154 44.3462 337.194 44.1628C336.536 44.0372 335.852 43.9005 335.269 43.7707C334.69 43.642 334.198 43.5175 333.935 43.4154C333.555 43.2678 332.659 43.0657 331.675 42.8714Z" fill="#727E99"/>
<path fill-rule="evenodd" clip-rule="evenodd" d="M305.379 37.5017C303.799 37.1835 302.154 36.8772 301.493 36.7694C301.398 36.7538 301.333 36.6637 301.348 36.5681C301.364 36.4725 301.454 36.4076 301.55 36.4232C302.217 36.532 303.867 36.8393 305.448 37.1578C306.239 37.3171 307.014 37.4794 307.642 37.6214C308.263 37.762 308.756 37.8859 308.969 37.9688C309.202 38.0592 309.868 38.2205 310.761 38.4146C311.646 38.6071 312.735 38.8281 313.799 39.0383C315.436 39.3615 317.019 39.6602 317.699 39.7885C317.901 39.8267 318.024 39.8498 318.043 39.8539C318.138 39.8737 318.199 39.9665 318.179 40.0614C318.16 40.1562 318.067 40.2171 317.972 40.1974C317.952 40.1933 317.831 40.1705 317.631 40.1327C316.956 40.0054 315.378 39.7077 313.731 39.3825C312.666 39.1721 311.574 38.9506 310.686 38.7574C309.806 38.566 309.107 38.3986 308.842 38.2959C308.658 38.2244 308.195 38.1061 307.565 37.9636C306.941 37.8225 306.169 37.6607 305.379 37.5017Z" fill="#727E99"/>
<path fill-rule="evenodd" clip-rule="evenodd" d="M346.786 46.0152C345.464 45.7507 344.077 45.4979 343.415 45.39C343.32 45.3744 343.255 45.2843 343.27 45.1887C343.286 45.0931 343.376 45.0282 343.472 45.0438C344.139 45.1525 345.53 45.4062 346.855 45.6712C347.517 45.8037 348.164 45.9393 348.695 46.0613C349.222 46.1822 349.648 46.2925 349.861 46.3751C350.094 46.4654 350.76 46.6268 351.652 46.8209C352.537 47.0134 353.626 47.2344 354.691 47.4446C356.327 47.7678 357.91 48.0665 358.59 48.1948C358.793 48.233 358.915 48.2561 358.935 48.2602C359.03 48.2799 359.091 48.3728 359.071 48.4676C359.051 48.5625 358.958 48.6234 358.863 48.6037C358.844 48.5996 358.723 48.5768 358.523 48.539C357.848 48.4116 356.27 48.114 354.623 47.7887C353.558 47.5784 352.466 47.3569 351.578 47.1637C350.697 46.9722 349.999 46.8049 349.734 46.7022C349.549 46.6304 349.148 46.5253 348.617 46.4032C348.09 46.2823 347.447 46.1474 346.786 46.0152Z" fill="#EF627E"/>
<path fill-rule="evenodd" clip-rule="evenodd" d="M313.554 40.2238C311.425 39.7711 309.203 39.309 308.689 39.2409C308.259 39.184 306.751 38.8556 305.194 38.5165L305.163 38.5096C303.585 38.166 301.957 37.8114 301.299 37.7041C301.203 37.6885 301.139 37.5984 301.154 37.5027C301.17 37.4071 301.26 37.3423 301.355 37.3579C302.025 37.4671 303.665 37.8243 305.235 38.1664L305.238 38.1668C306.818 38.5112 308.321 38.8384 308.735 38.8931C309.267 38.9636 311.509 39.4302 313.627 39.8806C315.266 40.2292 316.836 40.5694 317.509 40.7151C317.709 40.7584 317.829 40.7845 317.849 40.7886C317.944 40.8083 318.005 40.9012 317.985 40.996C317.965 41.0909 317.872 41.1518 317.778 41.1321C317.758 41.128 317.637 41.1017 317.436 41.0582C316.761 40.9121 315.188 40.5714 313.554 40.2238Z" fill="#727E99"/>
<path fill-rule="evenodd" clip-rule="evenodd" d="M354.445 48.6295C352.317 48.1769 350.094 47.7148 349.58 47.6467C349.15 47.5898 347.643 47.2613 346.086 46.9222L346.055 46.9154C344.477 46.5717 342.849 46.2172 342.191 46.1099C342.095 46.0943 342.03 46.0041 342.046 45.9085C342.061 45.8129 342.151 45.748 342.247 45.7636C342.917 45.8728 344.557 46.2301 346.127 46.5721L346.129 46.5726C347.71 46.917 349.213 47.2442 349.626 47.2989C350.158 47.3693 352.4 47.836 354.518 48.2864C356.157 48.635 357.728 48.9752 358.401 49.1209C358.6 49.1642 358.721 49.1903 358.741 49.1944C358.835 49.2141 358.896 49.307 358.877 49.4018C358.857 49.4967 358.764 49.5575 358.669 49.5378C358.649 49.5337 358.528 49.5075 358.327 49.464C357.653 49.3178 356.08 48.9771 354.445 48.6295Z" fill="#EF627E"/>
</svg>
