<svg width="25" height="25" viewBox="0 0 25 25" fill="none" xmlns="http://www.w3.org/2000/svg">
<path fill-rule="evenodd" clip-rule="evenodd" d="M12.5 25C19.4036 25 25 19.4036 25 12.5C25 5.59644 19.4036 0 12.5 0C5.59644 0 0 5.59644 0 12.5C0 19.4036 5.59644 25 12.5 25Z" fill="black"/>
<path d="M18.1405 9.17664C17.4153 9.17664 16.7463 8.9364 16.209 8.53113C15.5927 8.06655 15.15 7.38506 14.9936 6.59959C14.9544 6.40209 14.9338 6.20135 14.9321 6H12.8606V11.6604L12.8581 14.7608C12.8581 15.5897 12.3183 16.2926 11.5701 16.5397C11.3459 16.6138 11.1099 16.6452 10.8742 16.6321C10.5625 16.6149 10.2704 16.5209 10.0165 16.369C9.47622 16.0459 9.10991 15.4597 9.09999 14.7891C9.08435 13.7411 9.93162 12.8866 10.9789 12.8866C11.1856 12.8866 11.3842 12.9204 11.5701 12.9817V10.8784C11.374 10.8493 11.1745 10.8342 10.9727 10.8342C9.8264 10.8342 8.75428 11.3107 7.98792 12.1691C7.40868 12.8179 7.06123 13.6455 7.00763 14.5134C6.93739 15.6535 7.35457 16.7373 8.16362 17.5369C8.2825 17.6543 8.40733 17.7632 8.53787 17.8637C9.23152 18.3976 10.0795 18.6869 10.9727 18.6869C11.1745 18.6869 11.374 18.6721 11.5701 18.643C12.4044 18.5194 13.1743 18.1375 13.7818 17.5369C14.5283 16.7991 14.9408 15.8195 14.9452 14.7769L14.9346 10.147C15.2915 10.4223 15.6826 10.6504 16.098 10.8255C16.748 11.0997 17.4372 11.2387 18.1465 11.2385V9.17614C18.147 9.17664 18.141 9.17664 18.1405 9.17664Z" fill="white"/>
</svg>
