<svg width="25" height="25" viewBox="0 0 25 25" fill="none" xmlns="http://www.w3.org/2000/svg">
<rect x="5" y="6" width="15" height="14" fill="white"/>
<path fill-rule="evenodd" clip-rule="evenodd" d="M12.5 0C5.59644 0 0 5.59644 0 12.5C0 19.4036 5.59644 25 12.5 25C19.4036 25 25 19.4036 25 12.5C25 5.59644 19.4036 0 12.5 0ZM13.5165 16.4453C13.3932 16.5752 13.1526 16.6015 13.1526 16.6015H12.3557C12.3557 16.6015 10.5975 16.7052 9.04871 15.1228C7.35968 13.3963 5.86825 9.97098 5.86825 9.97098C5.86825 9.97098 5.78217 9.7463 5.87542 9.63811C5.98042 9.51585 6.2667 9.50817 6.2667 9.50817L8.17159 9.49601C8.17159 9.49601 8.35092 9.52481 8.47939 9.61763C8.58569 9.69445 8.64504 9.8372 8.64504 9.8372C8.64504 9.8372 8.95284 10.6015 9.36043 11.2929C10.1567 12.6429 10.5271 12.938 10.7971 12.7933C11.191 12.5827 11.0729 10.8851 11.0729 10.8851C11.0729 10.8851 11.0801 10.2693 10.8747 9.99467C10.7156 9.78214 10.4156 9.72005 10.2832 9.70277C10.1756 9.68868 10.3517 9.44415 10.5799 9.33469C10.9229 9.17018 11.5281 9.16058 12.2435 9.16762C12.8011 9.17338 12.9615 9.20731 13.1793 9.25916C13.6848 9.3789 13.6691 9.76265 13.635 10.5909C13.6248 10.8385 13.613 11.126 13.613 11.458C13.613 11.5326 13.6108 11.6122 13.6085 11.694C13.5967 12.1183 13.5831 12.6042 13.868 12.785C14.0141 12.8772 14.3708 12.7984 15.2635 11.3108C15.6868 10.6054 16.0037 9.77638 16.0037 9.77638C16.0037 9.77638 16.0735 9.62851 16.1811 9.56514C16.2913 9.50049 16.44 9.52033 16.44 9.52033L18.4447 9.50817C18.4447 9.50817 19.0472 9.43711 19.1444 9.70469C19.2468 9.98443 18.9194 10.6386 18.1003 11.7102C17.3234 12.727 16.9452 13.1013 16.98 13.4324C17.0053 13.6743 17.2511 13.8932 17.7227 14.3226C18.7073 15.2199 18.9712 15.692 19.0346 15.8054C19.0399 15.8148 19.0438 15.8218 19.0466 15.8263C19.4881 16.5451 18.5568 16.6015 18.5568 16.6015L16.7758 16.6258C16.7758 16.6258 16.3937 16.7001 15.8902 16.3608C15.6265 16.1832 15.3688 15.8932 15.1234 15.617C14.7485 15.1951 14.4022 14.8054 14.1067 14.8974C13.6104 15.0524 13.6254 16.1015 13.6254 16.1015C13.6254 16.1015 13.6293 16.3262 13.5165 16.4453Z" fill="#0161A2"/>
</svg>
