<svg width="101" height="142" viewBox="0 0 101 142" fill="none" xmlns="http://www.w3.org/2000/svg">
<g id="Frame" clip-path="url(#clip0_1_1319)">
<g id="Group">
<g id="Group_2">
<path id="Vector" opacity="0.75" fill-rule="evenodd" clip-rule="evenodd" d="M80.7056 0C82.5935 4.01664 84.0094 8.26955 84.0094 11.5774C83.5374 11.5774 83.5374 12.0499 83.0654 12.0499C84.0094 13.4676 84.0094 14.4126 83.7734 16.3028C80.9416 17.7205 77.4019 17.7205 74.3341 18.9018C68.6706 21.2646 61.5911 25.99 55.2196 32.1331C48.8481 38.2762 42.9486 45.6007 38.465 51.5075C36.8131 51.0349 36.3411 56.9418 33.5094 57.4143C33.0374 59.777 29.9696 62.8486 28.7897 64.975C28.5537 65.2113 28.7897 67.574 27.8458 66.3927C27.3738 67.3378 28.0818 67.574 27.1379 68.7554C22.8902 73.9534 22.4182 78.4426 19.5865 83.1681C19.5865 83.6406 19.8224 83.4043 19.8224 83.1681C19.5865 83.8769 19.1145 84.5857 18.8785 85.2945C18.6425 86.0033 18.4066 86.7121 18.1706 87.421C17.9346 88.1298 17.9346 89.0749 17.6986 89.7837C17.6986 90.2562 17.6986 90.4925 17.4626 90.9651C17.4626 91.4376 17.4626 91.6739 17.4626 92.1464C16.5187 94.7454 16.5187 99.2346 17.6986 103.488C18.8785 107.74 20.7664 111.521 22.4182 114.592C23.1262 115.065 23.8341 115.301 24.5421 115.774C25.958 117.9 28.3178 120.027 31.3855 121.444C34.4533 123.098 37.993 124.043 41.2967 124.752C42.0047 124.516 42.4766 124.516 43.1846 124.516C43.8925 124.516 44.6005 124.516 45.3084 124.516C46.0164 124.516 46.9603 124.516 47.6682 124.28C48.3762 124.28 49.0841 123.807 49.7921 123.571C49.7921 123.807 49.5561 123.807 49.7921 124.28C50.736 123.807 51.4439 123.571 51.9159 123.571C52.6238 123.334 53.0958 123.334 53.0958 122.862C53.8038 123.098 54.2757 123.571 54.9837 122.862C54.7477 122.153 53.8037 123.571 53.8037 122.389C54.2757 122.389 54.7477 122.153 55.2196 122.153C55.6916 121.917 56.1636 121.681 56.6355 121.444C57.8154 120.972 58.7594 120.499 60.1752 120.263C60.4112 119.79 59.4673 119.79 60.8832 119.082C60.8832 120.499 62.0631 118.845 62.0631 120.027C62.2991 118.845 63.9509 118.136 65.1309 118.609C63.715 119.318 65.8388 119.79 64.1869 120.499C64.8949 120.735 65.1309 120.263 65.1309 119.554C65.1309 118.845 65.1309 118.136 64.6589 117.664C65.8388 116.955 66.3108 118.373 65.1309 119.082C66.3108 119.318 66.0748 117.9 66.5467 117.428C66.3108 116.483 67.2547 117.664 66.3108 118.136C67.0187 118.373 67.7266 117.664 68.4346 118.136C68.9066 118.609 68.6706 119.082 68.9066 119.554C68.1986 120.499 67.7266 119.554 67.2547 120.263C68.1986 120.263 68.6706 120.263 69.3785 121.681C68.4346 121.681 68.6706 122.153 67.4907 122.389C68.6706 122.153 67.4907 123.334 67.9626 123.807C68.1986 122.153 69.3785 122.389 69.6145 121.208C70.7944 120.499 69.6145 122.626 70.5584 121.917C71.0304 122.389 69.3785 123.098 69.1425 123.571C69.3785 123.807 69.8505 124.516 70.3224 124.043C69.3785 122.862 70.7944 124.043 71.9743 122.153C72.6823 122.626 71.9743 124.988 71.0304 124.28C70.7944 124.516 71.2664 124.752 70.7944 125.225C71.2664 124.988 72.6823 124.28 73.6262 124.043C73.6262 124.516 72.9182 125.225 72.6823 125.697C71.5023 124.988 71.0304 125.697 70.5584 126.406C72.4463 125.461 72.2103 126.642 74.5701 125.697C74.3341 126.879 73.8622 128.769 72.4463 128.296C71.9743 128.769 72.9182 128.532 73.1542 128.769C72.4463 128.769 71.7383 130.423 71.7383 129.241C71.0304 129.95 71.5024 130.423 72.4463 129.95C71.5024 130.423 70.7944 130.895 70.0865 131.604C69.3785 132.313 68.4346 132.785 67.2547 133.022C67.4907 133.258 66.7827 133.73 65.8388 134.203C64.8949 134.676 63.479 135.148 62.5351 135.857C64.6589 135.621 66.5467 134.676 68.1986 133.494C70.0865 132.313 71.7383 131.131 74.3341 129.95C74.5701 130.186 73.8622 130.659 74.0981 130.895L73.3902 131.368C73.3902 130.895 71.9743 131.84 70.0865 133.258C69.1425 133.967 67.9626 134.676 67.0187 135.384C65.8388 136.093 64.6589 136.566 63.715 136.802V137.038C63.479 137.038 63.243 137.038 63.007 137.275C62.0631 137.747 59.4673 138.22 58.9953 138.692C58.7594 138.928 55.6916 139.874 55.6916 139.874C54.5117 140.582 54.5117 140.346 53.8037 140.582C53.3318 140.819 51.9159 141.291 50.264 141.527C48.6122 141.764 47.1963 142 46.7243 141.764C46.4883 141.764 46.0164 141.764 45.3084 141.764C44.6005 141.764 43.6566 141.764 42.7126 141.764C40.8248 141.291 37.993 141.055 35.1612 140.346C32.0935 139.874 29.0257 138.692 25.958 137.511C22.8902 136.329 20.0584 134.676 18.1706 133.258C17.6986 132.785 17.2266 132.549 16.7547 132.313C16.2827 132.077 16.0467 131.604 15.5748 131.368C14.8668 130.659 14.3949 130.186 14.1589 129.95C12.979 128.296 15.3388 130.659 13.4509 129.241C11.5631 128.06 8.9673 123.571 7.78739 122.153C6.84347 121.444 6.13553 120.263 5.66356 118.845C4.95562 117.428 4.71964 116.01 4.24767 114.829C3.53973 112.938 1.88786 111.048 1.65188 109.631C1.65188 109.158 2.12384 108.449 2.12384 107.977C1.88786 107.032 0.471973 105.614 0.707954 104.196C1.17992 102.07 1.4159 105.378 0.471973 103.251C-0.707934 99.7072 1.02627e-05 95.9268 0.471973 91.6739C0.707954 90.2562 0.943936 88.6023 1.17992 86.9484C1.4159 86.2396 1.4159 85.2945 1.65188 84.3494C1.65188 83.8769 1.88786 83.4043 1.88786 83.1681C1.88786 82.6955 2.12384 82.223 2.35982 81.7504C2.5958 80.8053 2.83179 80.0965 3.06777 79.1514C3.30375 78.2063 3.77571 77.4975 4.01169 76.7887C4.71964 75.1348 5.1916 73.7171 5.89954 72.0632C6.60749 71.3544 6.84347 72.772 7.07945 72.0632C7.31543 70.6456 6.13552 72.2995 6.13552 71.3544C6.37151 70.173 8.25936 70.6456 7.78739 69.9368C7.78739 70.8819 7.55141 70.8819 7.31543 71.1181C9.20328 64.7388 13.215 58.3594 16.5187 53.3977C16.5187 53.6339 16.0467 54.1065 16.2827 54.1065C16.9907 53.1614 16.0467 52.9251 16.5187 52.2163C24.0701 40.8752 31.3855 32.1331 37.993 25.0449C37.521 26.2263 39.1729 25.99 39.1729 25.0449C38.9369 25.2812 38.7009 25.5175 38.465 25.5175C42.0047 20.792 50.028 13.4676 60.8832 6.85191V6.61564C62.771 5.43428 66.0748 3.78037 69.1425 2.599C72.2103 1.41764 75.0421 0.708819 75.75 0.708819C76.222 0.708819 76.9299 0.472546 77.6379 0.472546C78.8178 0.236273 79.7617 0.236273 80.7056 0Z" fill="#FFCA42"/>
</g>
<g id="Group_3">
<path id="Vector_2" opacity="0.75" fill-rule="evenodd" clip-rule="evenodd" d="M31.1495 69.228C27.3738 66.8652 23.3621 65.2113 21.0023 62.8486C21.4743 62.376 21.0023 62.1398 21.2383 61.9035C19.5864 61.6672 18.8785 60.7221 17.9346 59.0682C18.8785 57.178 20.5304 55.7604 21.9463 54.579C22.6542 54.1065 23.5981 53.6339 24.3061 53.1614C25.014 52.6889 25.9579 52.2163 26.6659 51.7438C32.0934 48.4359 39.6449 45.3644 47.6682 43.9468C55.6916 42.2928 64.1869 42.0566 71.2663 43.7105C71.2663 44.6556 72.6822 44.4193 74.3341 44.6556C75.986 44.6556 77.6378 45.1281 78.3458 46.3095C79.5257 46.3095 81.1776 46.782 82.5934 47.7271C83.3014 48.1997 84.0093 48.6722 84.7173 49.1448C85.4252 49.6173 85.8972 50.0898 86.6051 50.5624C86.8411 50.7987 89.2009 51.0349 88.021 51.7438C88.9649 52.4526 89.4369 51.7438 90.3808 52.9251C92.7406 55.9967 94.3925 58.3594 95.8084 60.9584C96.5163 62.1398 96.9883 63.0849 97.4603 64.2662C97.9322 65.4476 98.4042 66.629 98.6402 68.0466C98.8762 68.2829 98.8762 68.0466 98.8762 68.0466C99.5841 70.8819 100.528 75.1348 101.236 78.6789C101 82.223 100.764 87.421 99.3481 92.619C97.9322 97.817 95.5724 102.306 93.2126 105.141C92.9766 106.087 92.9766 106.795 92.7406 107.504C90.8528 109.631 88.9649 112.466 86.8411 115.537C84.7173 118.373 82.1215 121.444 79.2897 123.807C78.5818 126.406 75.042 128.06 73.6262 130.659C73.3902 130.423 73.6262 130.186 73.3902 130.186C72.6822 131.84 71.0304 132.077 71.2663 133.022C70.5584 133.022 70.0864 133.022 69.6145 133.73C70.0864 134.203 70.3224 132.785 70.7944 133.73C69.3785 134.676 67.9626 136.329 66.0748 137.511C66.0748 137.983 66.7827 137.747 65.8388 138.692C65.3668 137.275 64.8948 139.165 64.4229 137.983C64.6589 139.165 63.243 139.874 62.0631 139.401C63.243 138.692 61.1191 138.456 62.2991 137.747C61.1191 137.511 61.8271 139.401 62.535 140.11C61.8271 140.819 60.8832 139.401 61.5911 138.928C60.4112 138.928 61.1191 140.11 60.6472 140.582C61.1191 141.291 59.9392 140.346 60.6472 140.11C59.9392 139.874 59.4673 140.582 58.7593 140.11C58.0514 139.874 58.2874 139.401 57.8154 138.928C58.0514 138.22 58.7593 138.928 58.9953 138.22C58.2874 138.22 57.8154 138.22 56.6355 137.038C57.5794 137.038 57.1075 136.566 58.2874 136.566C57.3434 136.802 58.0514 135.857 57.5794 135.384C57.8154 136.802 56.6355 136.566 56.8715 137.511C55.9276 138.22 56.6355 136.329 55.9276 136.802C55.4556 136.329 56.6355 135.857 56.6355 135.384C56.1635 135.148 55.9276 134.676 55.4556 134.912C56.6355 135.857 54.9836 134.912 54.5117 136.566C53.8037 136.329 53.5677 134.203 54.7477 134.676C54.9836 134.439 54.2757 134.203 54.5117 133.967C54.2757 134.203 53.3318 134.676 52.3878 134.912C52.1519 134.439 52.6238 133.967 52.8598 133.494C54.0397 134.203 54.2757 133.494 54.5117 132.785C53.3318 133.494 53.0958 132.549 51.2079 133.258C50.972 132.077 50.972 130.659 52.1519 131.131C52.3878 130.659 51.6799 131.131 51.4439 130.659C52.1519 130.659 51.9159 129.241 52.3878 130.423C52.8598 129.95 52.1519 129.478 51.6799 129.95C52.8598 129.241 53.0958 127.824 54.7477 127.351C54.0397 126.879 56.3995 125.933 56.8715 124.516C54.0397 125.461 53.3318 128.06 50.264 130.186C50.028 129.95 50.5 129.714 50.264 129.478L50.736 129.005C51.2079 129.95 53.5677 125.225 55.9276 124.043V123.807C56.1635 123.807 56.3995 123.807 56.3995 123.571C56.8715 123.098 58.2874 122.153 58.5234 121.681C58.5234 121.444 59.9392 120.027 59.9392 120.027C60.1752 119.318 60.4112 119.318 60.6472 119.082C60.8832 118.609 63.007 116.246 63.479 116.01C63.479 116.01 64.4229 115.065 65.1308 114.356C67.0187 113.175 69.6145 109.867 71.7383 107.032C73.8621 103.96 75.514 101.125 76.2219 100.652C77.1659 99.9434 76.222 101.597 76.4579 100.18C76.6939 98.9983 78.8177 97.1082 79.0537 96.1631C79.0537 95.4542 79.2897 94.9817 79.7617 94.2729C80.2336 93.5641 80.7056 93.0915 80.9416 92.619C81.4135 91.6739 80.9416 90.2562 81.4135 89.7837C81.6495 89.5474 82.3575 89.5474 82.3575 89.3111C82.5934 88.8386 81.6495 87.8935 82.3575 87.421C83.3014 86.7121 82.5934 88.1298 82.3575 86.9484C82.3575 86.4759 82.3575 86.0033 82.3575 85.7671C82.3575 85.2945 82.5934 84.822 82.5934 84.5857C82.8294 84.1131 82.8294 83.6406 83.0654 83.1681C83.0654 82.6955 83.3014 82.223 83.3014 81.7504C83.3014 78.9151 82.3575 75.6073 80.9416 72.2995C80.9416 71.5907 81.8855 72.0632 81.8855 71.5907C81.1776 70.8819 81.1776 72.0632 80.7056 71.827C80.2336 71.3544 81.8855 70.4093 80.9416 70.4093C80.9416 70.6456 80.9416 70.6456 80.9416 70.8819C80.2336 69.9368 79.7617 69.7005 79.2897 68.9917C79.0537 68.7554 78.8177 68.5191 78.5818 68.2829C78.3458 68.0466 78.1098 67.8103 77.8738 67.574C76.9299 66.3927 75.75 65.4476 74.3341 64.5025C74.5701 64.5025 74.5701 64.7388 74.8061 64.5025C74.3341 64.0299 74.0981 64.975 73.6262 64.7388C72.2103 63.7937 70.5584 63.0849 68.9065 62.6123C67.2547 62.1398 65.6028 61.6672 63.9509 61.4309C60.6472 60.9584 57.3434 60.9584 54.5117 61.4309C55.2196 60.9584 54.2757 60.0133 54.0397 60.7221C54.2757 60.7221 54.5117 60.7221 54.5117 60.9584C52.8598 61.4309 50.264 61.9035 47.4322 62.6123C44.6005 63.3211 41.2967 64.2662 38.4649 65.6839V65.9201C37.521 66.629 35.8692 67.3378 34.4533 68.0466C34.2173 68.2829 33.7453 68.5191 33.5093 68.5191C33.2734 68.7554 33.0374 68.7554 32.8014 68.9917C32.3294 69.228 32.0934 69.4642 31.8575 69.4642C31.6215 69.4642 31.3855 69.7005 31.1495 69.9368C31.6215 68.7554 31.3855 68.9917 31.1495 69.228Z" fill="#FFCA42"/>
</g>
</g>
</g>
<defs>
<clipPath id="clip0_1_1319">
<rect width="101" height="142" fill="white"/>
</clipPath>
</defs>
</svg>
