<svg width="96" height="131" viewBox="0 0 96 131" fill="none" xmlns="http://www.w3.org/2000/svg">
<g id="Group">
<g id="Group_2">
<path id="Vector" opacity="0.75" fill-rule="evenodd" clip-rule="evenodd" d="M33.862 48.226C32.0317 49.1393 30.2013 50.281 28.3709 51.4227C26.5405 52.3361 24.9389 53.2494 23.3374 53.4778C23.1086 52.7927 22.8798 52.7927 22.651 52.3361C21.7358 53.7061 20.5918 53.7061 18.7614 53.2494C17.3886 50.5094 16.931 47.3126 17.1598 44.3443C17.3886 41.3759 18.3038 38.4075 18.9902 35.8958C20.5918 31.1007 23.3374 26.3056 26.7693 21.9672C30.4301 17.6288 34.7772 13.5188 39.582 10.0937C44.3867 6.66864 49.8778 3.9286 55.8265 2.1019C61.5465 0.275203 67.9528 -0.638145 73.9015 0.50354C74.1303 1.41689 76.4183 1.41689 79.1639 2.33024C80.5366 2.78691 81.9094 3.24359 83.0534 3.9286C84.1974 4.61361 85.1126 5.52696 85.5702 6.4403C87.4005 7.35365 89.6885 9.63702 91.0613 12.1487C92.4341 14.6604 93.3493 17.4005 93.8069 18.9988C93.8069 19.2272 94.4933 19.9122 94.7221 20.5972C94.9509 21.2822 95.1797 21.7389 94.4933 21.5106C94.7221 23.1089 95.6372 22.6522 95.6372 24.9356C95.6372 26.0773 95.6372 27.219 95.6372 28.3607C95.6372 29.5024 95.6372 30.4157 95.6372 31.5574C95.6372 32.0141 95.6372 32.4707 95.6372 33.1557C95.6372 33.6124 95.6372 34.0691 95.4085 34.7541C95.4085 35.6675 95.1797 36.8091 95.1797 37.7225C94.9509 39.5492 94.7221 41.1475 94.0357 42.9742C93.8069 43.8876 93.5781 44.5726 93.1205 45.486C92.8917 46.3993 92.4341 47.0843 91.9765 47.9977C91.7477 48.4543 92.2053 48.226 92.2053 47.9977C90.6037 51.6511 87.8581 56.6745 86.0278 60.3279C83.511 63.7529 79.8502 69.0047 75.5031 74.2564C71.3848 79.2798 66.8088 84.0749 62.9193 87.0433C62.2329 87.9566 61.7753 88.87 61.3177 89.7833C55.5978 94.3501 47.8187 103.027 39.3532 108.964C37.5228 112.16 32.718 114.444 29.9725 117.64C29.9725 117.412 29.9725 117.184 29.7437 116.955C28.1421 119.01 26.0829 119.467 26.0829 120.609C25.3965 120.837 24.7101 120.609 23.795 121.522C24.2526 121.979 24.9389 120.152 25.3965 121.294C23.3374 122.664 21.0494 124.719 18.3038 126.317C18.075 126.774 18.9902 126.546 17.6174 127.687C17.6174 126.089 16.2447 128.372 16.2447 127.002C16.0159 128.372 14.1855 129.514 12.8127 129.057C14.4143 128.144 12.1263 127.916 13.7279 127.002C12.3551 126.774 12.3551 129.286 13.0415 129.971C11.8975 130.884 11.4399 129.514 12.5839 128.601C11.2111 128.601 11.6687 129.971 10.9823 130.656C11.2111 131.569 10.2959 130.427 11.2111 129.971C10.5247 129.742 9.60954 130.656 9.15195 130.199C8.46556 129.742 8.92315 129.286 8.69435 128.829C9.38074 127.916 9.83834 128.829 10.5247 127.687C9.60954 127.916 9.15195 127.687 8.23676 126.546C9.38074 126.546 9.15195 125.861 10.2959 125.632C9.15195 125.861 10.2959 124.719 9.83834 124.262C9.60954 125.861 8.23676 125.861 8.23676 127.002C6.86397 127.916 8.23676 125.404 7.32157 126.317C6.86398 125.861 8.46556 124.947 8.69435 124.491C8.23676 124.262 8.00796 123.806 7.55037 124.034C8.46556 124.947 7.09277 124.034 5.71999 126.317C5.0336 126.089 5.71999 123.577 6.63518 124.034C6.86398 123.577 6.40638 123.577 6.86398 123.121C6.40638 123.577 5.0336 124.262 3.88961 124.491C3.88961 124.034 4.576 123.349 4.8048 122.664C5.94879 123.349 6.40638 122.664 6.86398 121.751C5.0336 122.892 5.2624 121.522 2.74563 122.664C2.74563 121.294 3.43202 119.467 4.57601 119.924C4.8048 119.467 4.11841 119.924 3.88961 119.467C4.576 119.467 5.0336 117.64 5.2624 119.01C5.94879 118.325 5.2624 117.869 4.57601 118.554C6.17759 117.64 7.09277 115.814 9.15195 114.9C8.46556 114.215 11.6687 113.074 12.8127 111.247C9.15194 112.845 7.32157 116.042 2.74563 118.782C2.51683 118.554 3.20322 118.097 2.97443 117.869L3.66081 117.184C3.88961 118.097 8.23676 112.389 11.4399 110.562V110.334C11.6687 110.334 11.8975 110.105 12.1263 110.105C12.8127 109.42 14.8719 108.279 15.3295 107.822C15.3295 107.594 16.0159 107.137 16.4735 106.68C16.931 106.224 17.6174 105.767 17.6174 105.767C18.3038 104.854 18.5326 104.854 18.7614 104.397C19.219 103.712 22.651 100.744 23.3374 100.287C23.5662 100.287 24.9389 99.1452 26.0829 98.0035C29.0573 96.1768 33.4044 92.0667 37.5228 88.185C41.4123 84.3033 45.0731 80.4215 46.4459 79.7365C48.0474 78.8232 45.9883 80.8782 46.9035 79.2798C48.0475 77.6815 51.7082 75.1698 52.6234 74.0281C53.3098 72.2014 56.2841 70.603 57.6569 69.233C58.8009 67.863 59.7161 66.0363 60.4025 65.1229C60.6313 64.8946 61.5465 64.8946 61.7753 64.6663C62.4617 63.9813 62.4617 62.3829 63.3769 61.6979C64.9784 60.7845 62.9193 62.8396 63.8344 61.0129C65.2072 58.2728 67.9528 56.2178 69.7832 53.4778C72.5287 49.1393 75.5031 43.6593 77.1047 38.1792C77.7911 37.4942 78.0199 38.6358 78.2487 37.9508C78.2487 36.5808 77.3335 38.1792 77.3335 37.4942C77.3335 36.5808 79.1639 36.8091 78.4775 36.1241C78.4775 36.3525 78.2487 36.5808 78.0199 36.8091C78.0199 36.1241 78.0199 35.4391 78.2487 34.7541C78.2487 34.0691 78.2487 33.6124 78.2487 32.9274C78.2487 32.2424 78.2487 31.5574 78.2487 30.8724C78.2487 30.1874 78.2487 29.5024 78.0199 28.8173C78.0199 27.4473 77.7911 26.0773 77.5623 24.9356C77.3335 23.7939 76.8759 22.8806 76.6471 21.9672C76.8759 22.1956 76.8759 22.4239 77.1047 22.1956C76.8759 21.5106 76.1895 21.9672 75.9607 21.7389C75.0455 20.1405 73.9015 19.2272 72.2999 18.3138C70.6984 17.6288 68.6392 17.4005 66.58 17.4005C62.2329 17.6288 57.8857 18.9988 53.9962 21.0539C54.9114 20.1405 53.3098 19.6839 52.8522 20.5972C53.081 20.5972 53.5386 20.3689 53.5386 20.5972C51.4794 21.9672 48.2762 23.7939 44.8443 26.534C41.6411 29.274 37.9804 32.6991 35.6924 36.8091H35.9212C35.2348 38.1792 34.0908 40.4625 33.6332 42.2892C33.862 43.6593 33.862 45.2576 33.862 45.486C33.6332 46.171 33.6332 47.0843 33.862 48.226Z" fill="#FFCA42"/>
</g>
<g id="Group_3">
<path id="Vector_2" opacity="0.75" fill-rule="evenodd" clip-rule="evenodd" d="M15.1006 125.86C11.2111 124.49 6.86391 124.034 3.88955 122.664C4.11835 122.435 3.66075 122.207 3.88955 121.979C2.28797 121.979 1.37278 121.522 0 120.38C0 119.695 0.457592 118.782 0.68639 118.097C1.14398 117.412 1.60158 116.727 2.28797 116.042C2.74557 115.357 3.43195 114.9 4.11835 114.444C4.80474 113.987 5.26233 113.53 5.71993 113.302C7.5503 111.703 9.83827 110.562 12.1262 109.42C14.4142 108.278 16.7022 107.593 18.9902 106.908C23.5661 105.538 28.3708 104.625 32.0316 104.397C32.4892 105.995 34.7772 102.798 35.6923 104.853C36.8363 103.712 38.8955 104.853 40.0395 104.853C40.0395 104.853 41.1835 103.712 40.9547 104.853C41.4123 104.853 41.4123 103.94 42.0987 104.397C45.3018 105.767 47.361 104.397 49.8778 105.31C50.1066 105.31 49.8778 105.082 49.8778 105.082C51.2505 105.31 53.3097 105.538 54.9113 105.082C57.8857 106.223 64.9784 105.538 68.4103 107.365C68.8679 107.137 69.3255 106.908 69.7831 106.68C72.5287 108.05 77.3334 107.593 81.223 109.648C82.8246 108.963 84.6549 110.79 86.4853 110.562C86.4853 110.79 86.2565 110.79 86.2565 111.018C87.4005 110.79 87.8581 111.932 88.5445 111.247C88.7733 111.703 88.7733 112.389 89.4597 112.389C89.6885 111.703 88.7733 112.388 89.2309 111.475C90.1461 112.16 91.5188 112.388 92.6628 113.759C92.8916 113.53 92.6628 113.074 93.578 113.53C92.6628 114.444 94.0356 114.215 93.3492 114.9C94.0356 114.215 94.9508 115.129 94.722 116.27C94.0356 115.585 94.0356 117.412 93.3492 116.727C93.3492 117.869 94.722 116.499 94.9508 115.585C95.6372 116.042 94.722 117.184 94.2644 116.727C94.2644 117.64 95.1796 116.727 95.6372 116.955C96.0948 116.27 95.6372 117.64 95.1796 116.955C95.1796 117.64 95.6372 117.869 95.4084 118.554C95.1796 119.239 94.9508 119.239 94.4932 119.695C94.0356 119.695 94.4932 118.782 93.8068 118.782C93.8068 119.467 93.8068 119.924 93.1204 121.065C93.1204 120.38 92.8916 120.837 92.6628 119.924C92.8916 120.609 92.2052 120.38 91.9764 121.065C92.8916 120.152 92.6628 121.294 93.3492 120.837C93.8068 121.294 92.434 121.522 92.8916 121.75C92.6628 122.207 92.2052 121.522 91.9764 121.75C91.7476 122.207 91.5188 122.664 91.7476 122.892C92.2052 121.75 91.7476 123.349 92.8916 123.12C92.6628 123.805 91.5188 124.719 91.7476 123.577C91.5188 123.577 91.5188 124.034 91.29 124.034C91.5188 124.262 91.7476 124.719 91.7476 125.404C91.5188 125.632 91.29 125.632 91.0612 125.632C91.5188 124.49 91.0612 124.49 90.6036 124.719C91.0612 125.404 90.6037 126.089 90.8325 127.23C90.1461 127.915 89.4597 128.6 89.6885 127.459C89.4597 127.459 89.6885 127.915 89.4597 128.144C89.4597 127.687 88.7733 128.372 89.2309 127.459C89.0021 127.459 88.7733 128.144 89.0021 128.144C88.5445 127.459 87.8581 127.915 87.4005 127.002C87.1717 127.915 86.4853 126.317 85.5701 126.774C86.4853 128.372 88.0869 127.687 89.0021 129.285C88.7733 129.514 88.7733 129.285 88.5445 129.742H88.3157C88.7733 128.829 86.2565 129.285 85.3413 128.144V128.372C85.3413 128.144 85.3413 128.144 85.1125 128.144C84.8837 128.144 84.1973 127.459 83.9685 127.459C83.7397 127.459 82.8246 127.23 82.8246 127.23C82.367 127.459 82.367 127.23 82.1382 127.23C81.9094 127.23 80.079 127.002 79.8502 126.774C79.8502 126.774 79.1638 126.545 78.4774 126.317C76.1894 124.49 69.3255 125.175 68.1815 124.034C67.4951 123.577 68.6391 123.577 67.9527 124.034C67.0376 124.262 65.6648 123.349 64.9784 123.349C64.292 124.034 63.148 122.892 62.2328 122.664C61.5464 122.435 60.6312 123.12 60.1736 122.892C59.9448 122.892 59.9448 121.979 59.716 121.979C59.4872 121.979 58.8009 122.892 58.3433 122.435C57.6569 121.522 58.8008 122.207 58.1145 122.435C57.1993 122.664 56.0553 121.522 54.4537 121.522C52.3945 121.294 49.649 121.522 47.1322 121.294C46.6746 120.837 47.361 120.38 46.9034 120.152C46.217 120.609 47.1322 120.837 46.6746 121.294C46.217 121.522 46.217 119.695 45.9882 120.38C46.217 120.38 46.217 120.609 46.217 120.609C43.7002 121.522 40.7259 120.837 38.4379 120.837C38.4379 120.837 38.6667 120.837 38.6667 120.609C38.2091 120.38 38.2091 121.294 37.9803 121.522C32.718 121.294 28.5996 121.522 25.1677 122.435C25.6253 121.979 24.9389 121.065 24.7101 121.75C24.7101 121.75 24.9389 121.75 24.9389 121.979C24.0237 122.435 22.6509 122.892 21.0493 123.349C19.6766 123.805 17.8462 124.49 16.931 125.175V125.404C16.4734 125.632 16.0158 126.089 15.787 126.089C15.5582 126.089 15.3294 126.089 15.3294 126.089C15.5582 125.86 15.3294 125.86 15.1006 125.86Z" fill="#FFCA42"/>
</g>
</g>
</svg>
