<svg width="96" height="358" viewBox="0 0 96 358" fill="none" xmlns="http://www.w3.org/2000/svg">
<path d="M4.22392 286.092C20.7241 270.093 45.1212 278.092 49.7239 264.092C58.4362 237.592 75.2239 257.334 92.2239 241.334" stroke="#FFCA42" stroke-width="2.5" stroke-dasharray="8 8"/>
<path d="M87 344.716C78.5 349.283 68.0081 362.246 50.5 351.783C37 343.716 41 327.283 8 344.716" stroke="#FFCA42" stroke-width="2.5" stroke-dasharray="8 8"/>
<path d="M5.5 6.49987C18.5 6.49984 20.5 19.4998 40.5 15.5C65.9999 10.4002 60 -2.50017 85.5 3.93211" stroke="#FFCA42" stroke-width="2.5" stroke-dasharray="8 8"/>
<path d="M1 116.5C12.6768 112.516 36.8763 124.168 44 102.5C56 66 77 84.5 94 68.5" stroke="#FFCA42" stroke-width="2.5" stroke-dasharray="8 8"/>
<path d="M85.5 184.932C77 189.5 66.5081 202.463 49 192C35.5 183.933 39.5 167.5 6.5 184.932" stroke="#FFCA42" stroke-width="2.5" stroke-dasharray="8 8"/>
</svg>
