<svg width="89" height="134" viewBox="0 0 89 134" fill="none" xmlns="http://www.w3.org/2000/svg">
<g id="Group 238852">
<g id="Group">
<path id="Vector" opacity="0.75" fill-rule="evenodd" clip-rule="evenodd" d="M65.8383 0C68.8407 2.35429 72.0576 5.13664 73.7732 7.49093C73.5588 7.70495 73.7732 7.91898 73.5588 8.13301C74.8455 8.77509 75.2745 9.63119 76.1323 10.9154C75.4889 12.6276 73.3443 13.2696 72.0576 14.5538C70.9853 15.838 69.6986 17.1221 68.4118 18.8343C67.1251 20.5465 65.8383 22.4728 64.5516 24.185C63.2648 26.1112 61.9781 28.2515 60.9058 29.9637C59.8335 31.8899 58.5468 33.8162 57.6889 35.5284C56.1877 34.8863 57.26 38.7388 55.1154 38.5248C55.3299 40.023 53.1853 41.3071 52.542 42.5913C52.542 42.8053 52.7564 44.0895 52.113 43.4474C51.8986 43.8754 52.5419 44.3035 51.8986 44.7315C49.1106 47.0858 49.1106 49.6541 46.966 51.7944C46.966 52.0084 47.1805 52.0084 47.1805 52.0084C46.3227 53.2926 45.0359 55.2188 44.3926 57.1451C43.1058 58.4292 41.819 60.9975 40.3178 63.5659C38.8166 66.1342 37.101 68.7025 35.3853 70.2007C35.1709 70.8428 35.1709 71.2708 35.1709 71.9129C33.8841 73.1971 32.8118 74.9093 31.3106 77.0495C30.0239 78.9758 28.5227 81.116 26.3781 82.8282C26.1636 84.7545 23.5901 86.0386 22.7323 87.7509C22.5179 87.5368 22.7323 87.5368 22.5179 87.3228C22.089 88.607 20.8022 88.607 21.0167 89.4631C20.5877 89.4631 19.9444 89.249 19.7299 89.8911C20.1588 90.3192 20.1588 89.035 20.8022 89.8911C20.3733 90.3192 19.7299 90.7472 19.301 91.1753C18.6576 91.6033 18.0143 92.0314 17.1564 92.4594C17.1564 92.6735 17.7998 92.8875 16.942 93.3155C16.5131 92.2454 16.0841 93.5296 15.8697 92.6735C16.0841 93.5296 15.0119 94.1717 13.9396 93.5296C14.7974 93.1015 13.2962 92.6735 14.154 92.2454C13.0817 91.8174 13.7251 93.5296 14.3685 94.1716C13.7251 94.5997 13.0817 93.5296 13.7251 93.1015C12.8673 92.8875 13.2962 93.9576 13.0817 94.1716C13.5106 94.8137 12.4384 93.9576 13.0817 93.7436C12.6528 93.5296 12.2239 93.9576 11.5805 93.5296C11.1516 93.1015 11.1516 92.8875 10.9371 92.4594C11.1516 91.8174 11.795 92.6735 12.0094 92.0314C11.3661 92.0314 10.9372 91.8174 10.0793 90.7472C10.7227 90.9613 10.5082 90.5332 11.3661 90.5332C10.7227 90.5332 11.1516 89.8911 10.7227 89.4631C10.9372 90.5332 10.0793 90.1051 10.2938 90.9613C9.65041 91.3893 10.0793 89.8911 9.43595 90.3192C9.00704 89.8911 9.86487 89.6771 10.0793 89.249C9.86487 89.035 9.43595 88.607 9.2215 88.607C10.0793 89.4631 9.00703 88.3929 8.57812 89.6771C7.93474 89.249 7.72028 87.7509 8.79257 88.3929C8.79257 88.1789 8.57812 87.9649 8.57812 87.7509C8.36366 87.9649 7.7203 88.1789 6.86247 87.9649C6.64801 87.5368 7.07692 87.3228 7.07692 86.8947C7.93475 87.5368 8.1492 87.3228 8.36366 86.6807C7.50583 87.1088 7.29138 86.2527 5.79018 86.4667C5.57572 85.6106 5.36125 84.5405 6.43354 85.1825C6.43354 84.9685 6.21909 84.9685 5.79018 84.7545C6.21909 84.9685 6.00462 83.8984 6.43354 84.7545C6.648 84.3264 6.21909 84.1124 5.79018 84.3264C6.64801 84.1124 6.64801 83.0423 7.93475 82.8282C7.29138 82.1862 9.00704 82.1862 9.2215 80.902C7.29138 81.3301 7.07692 83.0423 4.71789 83.8984C4.50343 83.6844 4.71788 83.4703 4.50342 83.2563L4.71789 83.0423C5.1468 83.8984 6.43355 80.902 7.93475 80.2599V80.0459C8.14921 80.0459 8.1492 80.0459 8.36366 80.0459C8.57812 79.6179 9.6504 79.1898 9.6504 78.9758C9.6504 78.7617 10.5082 77.9056 10.5082 77.9056C10.7227 77.2636 10.7227 77.4776 10.9371 77.2636C10.9371 77.0495 11.3661 76.6215 11.795 76.1934C12.2239 75.7654 12.6528 75.3373 12.6528 75.1233C12.6528 75.1233 13.2962 74.4812 13.7251 73.8391C14.3685 73.4111 15.2263 72.769 15.8697 71.6989C16.5131 70.8428 17.3709 69.5586 18.0143 68.4885C18.6576 67.4183 19.301 66.3482 19.9444 65.4921C20.3733 64.636 21.0167 63.9939 21.2311 63.7799C22.089 63.3518 21.2311 64.422 21.4456 63.5659C21.6601 62.7098 23.3757 61.4256 23.5902 60.7835C23.3757 59.7134 25.0914 58.8573 25.5203 58.2152C25.9492 57.5731 25.9492 56.289 26.3781 56.0749C26.5925 55.8609 27.2359 56.0749 27.4504 56.0749C27.6648 55.8609 27.2359 54.5768 27.8793 54.3627C28.9516 54.1487 27.8793 55.0048 28.0938 54.1487C28.3082 52.6505 29.8094 51.7944 30.8817 50.2962C32.1685 48.156 33.4552 45.1596 35.3853 42.3772C36.0287 42.1632 36.0287 43.0193 36.4576 42.5913C36.4576 41.7352 35.8142 42.3772 35.5998 41.9492C35.5998 41.3071 37.3154 42.1632 36.6721 41.5211C36.6721 41.7352 36.4576 41.5211 36.2432 41.7352C37.101 38.5248 39.2456 35.7424 40.9612 33.3881C40.9612 33.6022 40.7468 33.6022 40.9612 33.8162C41.3901 33.3881 40.5323 33.1741 40.7468 32.7461C42.6769 29.9637 44.3925 27.6094 45.8938 25.2551C46.7516 23.971 47.395 22.9008 48.0383 21.8307C48.6817 20.7606 49.5395 19.6904 50.1829 18.6203C50.1829 19.4764 51.2552 19.2624 51.0407 18.6203C50.8263 18.6203 50.8263 18.8343 50.6118 18.8343C51.2552 17.5502 52.113 15.6239 53.6142 13.6977C54.2576 12.6276 55.1154 11.5574 55.9733 10.4873C56.8311 9.41717 57.6889 8.34703 58.7612 7.06287L58.3323 6.42079C58.9757 5.56469 60.048 4.28053 61.3347 3.2104C62.407 2.14026 63.4793 1.28416 63.9082 1.07013C64.3371 1.07013 64.9805 0.428053 65.8383 0Z" fill="#FFCA42"/>
</g>
<g id="Group_2">
<path id="Vector_2" opacity="0.75" fill-rule="evenodd" clip-rule="evenodd" d="M0 96.526C0.643373 92.6735 1.50121 88.821 2.5735 85.8247C2.78796 86.0387 2.78795 85.6106 3.00241 85.6106C3.21687 84.3265 3.43133 83.4704 4.0747 81.9722C4.71807 81.7582 5.14699 81.9722 5.79037 82.4002C6.00482 82.6143 6.21927 82.8283 6.64818 82.8283C6.86264 83.0423 7.29156 83.0423 7.50602 83.2563C9.65059 83.6844 12.8675 83.8984 16.2988 83.4704C17.1566 83.4704 18.0144 83.2563 18.8723 83.2563C19.7301 83.2563 20.588 83.0423 21.4458 83.0423C22.3036 83.0423 23.1614 82.8283 23.8048 82.8283C24.6626 82.6143 25.306 82.6143 26.1638 82.6143C26.5928 84.1124 28.3084 81.1161 29.1662 82.8283C30.0241 81.7582 31.7397 82.6143 32.5976 82.4002C32.5976 82.4002 33.241 81.3301 33.241 82.4002C33.6699 82.4002 33.4554 81.5441 34.0988 81.7582C36.8867 82.6143 38.3879 81.1161 40.5325 81.5441C40.747 81.5441 40.5325 81.3301 40.5325 81.3301C41.8192 81.3301 43.5349 81.1161 44.6072 80.474C47.3951 80.902 52.971 78.7618 56.4024 79.6179C56.8313 79.4039 57.0457 78.9758 57.4746 78.7618C60.0481 79.1898 63.9084 77.6916 67.7686 78.3337C68.8409 77.2636 70.9855 78.3337 72.2722 77.6917C72.2722 77.9057 72.0578 77.9057 72.2722 78.1197C73.1301 77.6917 73.9879 78.3337 74.2023 77.6917C74.4168 78.1197 74.6313 78.5478 75.0602 78.3337C75.0602 77.6916 74.4168 78.5478 74.6313 77.6917C75.4891 77.9057 76.7758 77.9057 78.0626 78.5478C78.277 78.3337 77.8481 77.9057 78.706 78.1197C78.2771 79.1898 79.3493 78.5478 78.9204 79.4039C79.3493 78.5478 80.2072 79.1898 80.4216 80.0459C79.7783 79.6179 80.2072 81.3301 79.5638 80.902C79.7782 81.9722 80.4216 80.26 80.4216 79.4039C81.065 79.6179 80.6361 80.9021 80.2072 80.688C80.6361 81.5441 80.8505 80.26 81.2795 80.474C81.4939 79.6179 81.4939 81.1161 81.065 80.688C81.2794 81.3301 81.7084 81.3301 81.7084 81.9722C81.7084 82.6143 81.4939 82.8283 81.4939 83.2563C81.065 83.4704 81.2795 82.6143 80.8505 82.8283C81.065 83.4704 81.2794 83.6844 81.065 85.1826C80.8505 84.5405 80.6361 84.9686 80.4216 84.3265C80.8506 84.9686 80.2072 84.9686 80.2072 85.6106C80.6361 84.5405 81.065 85.6106 81.2795 84.7545C81.9228 84.9685 80.8505 85.6106 81.2795 85.8247C81.2795 86.4667 80.6361 86.0387 80.4216 86.0387C80.4216 86.4667 80.4216 87.1088 80.6361 87.1088C80.6361 85.8247 80.6361 87.5369 81.4939 86.8948C81.4939 87.5369 80.8505 88.821 80.6361 87.7509C80.4216 87.7509 80.6361 88.179 80.4216 88.179C80.6361 88.179 81.065 88.607 81.4939 89.2491C81.4939 89.6771 81.065 89.6771 80.8505 89.6771C80.6361 88.607 80.4216 88.607 80.2072 88.821C80.8505 89.2491 80.6361 89.8912 81.2795 90.7473C81.065 91.6034 80.4216 92.4595 80.2072 91.3893C79.9927 91.6034 80.2072 91.8174 80.2072 92.2455C79.9927 91.8174 79.5638 92.6735 79.7783 91.8174C79.5638 91.8174 79.5638 92.4595 79.7783 92.6735C79.1349 92.2455 78.7059 92.8875 77.8481 92.2455C77.8481 93.1016 76.7759 92.0314 76.1325 92.6735C77.4192 93.7436 78.4915 92.6735 79.9927 93.7436C79.9927 93.9577 79.7783 93.9577 79.7783 94.1717H79.5638C79.7782 93.3156 77.6337 94.3857 76.3469 93.7436V93.9577C76.3469 93.7436 76.1325 93.7436 76.1325 93.7436C75.7036 93.7436 75.0602 93.3156 74.8457 93.5296L73.7734 93.7436C73.3445 93.9577 73.3445 93.7436 73.1301 93.9577C72.9156 94.1717 71.4144 94.1717 70.9855 94.1717C70.9855 94.1717 70.3421 94.1717 69.6988 94.1717C67.3397 93.1016 61.3349 95.6699 60.2626 95.0278C59.6192 94.5997 60.6915 94.5997 60.0482 95.0278C59.4048 95.4559 57.9036 94.8138 57.2602 95.0278C56.8313 95.8839 55.5445 95.0278 54.6867 95.0278C54.0433 95.0278 53.4 95.8839 52.9711 95.6699C52.7566 95.6699 52.5421 95.0278 52.3277 95.0278C51.8988 95.0278 51.6843 96.0979 51.2554 95.6699C50.612 95.0278 51.6843 95.2418 51.0409 95.6699C49.9686 96.312 48.6819 95.6699 47.3951 95.8839C45.465 96.0979 43.106 96.74 40.5325 96.954C40.1036 96.74 40.5325 96.0979 40.318 95.8839C39.8891 96.312 40.5325 96.526 40.318 96.954C39.8891 97.1681 39.6747 95.4559 39.4602 96.312C39.6747 96.312 39.6747 96.526 39.8891 96.526C37.7445 97.5961 34.9566 97.5961 32.5976 97.5961C32.5976 97.5961 32.812 97.5961 32.812 97.3821C32.3831 97.3821 32.5976 98.0242 32.1687 98.2382C29.5952 98.4522 27.2361 98.4522 25.0916 98.6662C22.947 98.8803 21.0169 98.8803 19.0867 99.0943C19.5156 98.6662 19.0867 97.8101 18.6578 98.2382C18.8723 98.2382 18.8723 98.2382 18.8723 98.4522C17.8 98.8803 16.0843 98.8803 14.3687 99.0943C13.5108 99.0943 12.4386 99.0943 11.3663 99.0943C10.294 99.0943 9.22169 99.0943 7.93494 98.8803V99.0943C7.07711 99.0943 5.5759 98.8803 4.50361 98.4522C3.21686 98.0242 2.14458 97.5961 1.93012 97.5961C1.28675 97.1681 0.643373 96.74 0 96.526Z" fill="#FFCA42"/>
</g>
<g id="Group_3">
<path id="Vector_3" opacity="0.75" fill-rule="evenodd" clip-rule="evenodd" d="M75.4891 2.14014C79.1349 3.4243 82.9951 4.70845 85.5686 6.42067C85.3542 6.63469 85.5686 6.84872 85.5686 7.06275C87.0698 7.27677 87.7132 7.91885 89 8.77496C88.7855 11.1292 86.8554 12.8415 85.7831 14.7677C84.9253 16.6939 84.0674 18.8342 83.4241 21.4025C82.5662 23.9708 81.9229 26.5392 81.2795 29.3215C80.6361 32.1038 79.9927 34.8862 79.5638 37.6685C79.1349 40.4509 78.4915 43.0192 78.0626 45.3735C76.5614 45.3735 78.706 49.226 76.5614 50.0821C76.9903 50.9382 76.7759 52.0083 76.347 52.8644C76.1325 53.9345 75.7036 55.0047 75.4891 55.6468C75.4891 55.8608 76.347 57.1449 75.2747 56.7169C75.0602 57.359 75.918 57.359 75.4891 58.2151C73.559 62.2816 74.6313 65.0639 73.3446 68.4883C73.3446 68.7024 73.559 68.7024 73.559 68.4883C73.1301 70.4146 72.7012 73.1969 72.9156 75.3372C71.6289 79.6177 71.6289 89.2489 69.4843 94.1715C69.4843 94.8136 69.9132 95.4557 69.9132 96.0978C68.6265 99.9502 68.6265 106.799 66.4819 112.578C67.1253 114.718 65.1952 117.5 65.4096 119.855C65.1952 119.855 65.1951 119.641 64.9807 119.641C64.9807 121.139 64.1229 121.995 64.5518 122.637C64.1229 123.065 63.4795 123.065 63.4795 123.921C64.1229 124.135 63.4795 122.851 64.3373 123.279C64.1229 123.921 63.694 124.777 63.4795 125.633C63.265 126.49 62.8361 127.346 62.1928 128.202C62.4072 128.416 62.8361 128.202 62.4072 129.272C61.5494 128.416 61.7639 130.128 61.1205 129.272C61.7639 130.128 60.906 131.198 59.8337 131.412C60.4771 130.342 58.7614 130.984 59.4048 129.914C58.3325 130.128 59.6193 131.626 60.4771 131.84C60.0482 132.696 58.9759 131.84 59.4048 131.198C58.3325 131.626 59.4048 132.268 59.1903 132.91C59.8337 133.338 58.547 132.91 58.9759 132.482C58.3325 132.482 58.118 133.338 57.4747 133.124C56.8313 133.124 56.8313 132.696 56.4024 132.482C56.4024 131.84 57.2602 132.268 57.2602 131.412C56.6169 131.626 56.1879 131.84 54.9012 131.198C55.5446 130.984 55.1156 130.77 55.9735 130.128C55.3301 130.556 55.5446 129.486 54.9012 129.486C55.759 130.342 54.6867 130.77 55.1157 131.412C54.6867 132.268 54.4723 130.556 54.0434 131.198C53.4 130.984 54.2578 130.342 54.0434 129.914C53.6145 129.914 53.1855 129.7 52.9711 129.914C54.2578 130.342 52.5422 129.914 52.7566 131.412C52.1132 131.412 51.041 129.914 52.3277 129.914C52.3277 129.7 51.8988 129.7 51.8988 129.486C51.6843 129.7 51.2554 130.556 50.612 130.77C50.1831 130.556 50.3976 129.914 50.3976 129.7C51.4699 129.914 51.4699 129.272 51.4699 128.844C50.8265 129.914 50.1831 129.058 49.1108 130.128C48.4675 129.486 47.8241 128.416 49.1108 128.416C49.1108 127.988 48.6819 128.416 48.253 128.202C48.8964 127.988 48.0385 126.918 48.8964 127.56C48.8964 127.132 48.253 126.918 48.0386 127.346C48.6819 126.49 48.253 125.419 49.3253 124.349C48.4675 124.135 49.9687 122.851 49.7542 121.567C48.0386 123.279 48.6819 125.419 46.9663 127.774C46.7518 127.774 46.9663 127.346 46.5374 127.346V126.918C47.3952 127.346 47.1807 123.493 48.253 121.781H48.0386C48.253 121.781 48.253 121.567 48.253 121.353C48.253 120.711 49.1108 119.641 48.8964 119.213C48.8964 118.999 49.1108 117.5 49.1108 117.5C48.8964 116.858 49.1108 116.858 49.1108 116.43C49.1108 116.002 49.5398 113.434 49.7542 113.006C49.7542 112.792 49.9687 111.936 50.1831 111.08C50.612 110.224 51.041 108.939 51.2554 107.441C51.4699 105.943 51.6843 104.231 51.8988 102.733C52.3277 99.5222 52.3277 96.5258 52.9711 95.6697C53.6145 94.8136 53.1855 96.3118 52.9711 95.2417C52.7566 94.1715 53.8289 91.8172 53.8289 90.7471C53.1855 89.677 54.4723 87.9648 54.6868 86.6806C54.9012 85.6105 54.2578 84.3263 54.4723 83.6842C54.4723 83.4702 55.3301 83.2562 55.3301 83.0421C55.5446 82.6141 54.4723 81.544 55.1157 80.9019C55.9735 80.0458 55.3301 81.544 55.1157 80.4738C54.6867 78.5476 55.9735 76.8354 56.1879 74.6951C56.6169 71.4847 56.8313 67.4182 57.4747 63.5657C57.9036 63.1377 58.3325 63.7798 58.547 63.3517C58.3325 62.4956 57.6891 63.5657 57.4747 63.1377C57.2602 62.4956 59.1904 62.4956 58.3325 62.0675C58.3325 62.2816 58.1181 62.2816 57.9036 62.4956C57.4747 58.6431 58.7614 54.1486 59.6192 50.5101C59.6192 50.7241 59.6193 50.9382 59.8337 50.9382C60.0482 50.2961 59.1903 50.2961 59.1903 49.654C60.2626 45.5875 60.906 41.9491 61.7638 38.5246C62.4072 35.1002 63.265 31.8898 63.9084 29.1075C64.1229 29.9636 65.1952 29.3215 64.7663 28.8934C64.7663 29.1075 64.5518 29.3215 64.3373 29.3215C64.5518 27.6093 64.9807 25.041 65.8385 22.0446C66.2675 20.5464 66.6964 19.0482 67.1253 17.336C67.5542 15.6238 68.1976 13.9116 68.8409 12.1994H68.6265C68.841 11.5573 69.0554 10.7012 69.4843 9.84509C69.6988 9.41704 69.9132 8.98898 70.1277 8.56093C70.3422 8.13288 70.5566 7.70483 70.7711 7.27677C71.6289 5.56456 72.4867 4.06637 72.7012 3.85235C74.4168 4.06637 75.0602 3.21027 75.4891 2.14014Z" fill="#FFCA42"/>
</g>
</g>
</svg>
