<svg width="93" height="128" viewBox="0 0 93 128" fill="none" xmlns="http://www.w3.org/2000/svg">
<g id="Frame" clip-path="url(#clip0_1_1344)">
<g id="Group">
<g id="Group_2">
<path id="Vector" opacity="0.75" fill-rule="evenodd" clip-rule="evenodd" d="M32.3386 7.80418C35.2977 10.1403 38.4682 12.6888 40.5818 14.8125C40.3705 14.8125 40.5818 15.0249 40.5818 15.2373C41.6386 16.0868 42.2727 16.7239 43.3295 17.7858C43.5409 18.8477 42.2727 18.6353 41.6386 19.2724C41.2159 19.9095 40.7932 20.5467 40.3705 21.3962C39.9477 22.2457 39.525 23.3075 39.3136 24.3694C39.1023 25.4313 38.6795 26.4931 38.4682 27.555C38.2568 28.6169 38.0454 29.6788 37.8341 30.5283C36.3545 30.3159 38.6795 32.2273 36.7773 32.2273C37.6227 33.0768 36.3545 33.9263 36.1432 34.5634C36.1432 34.5634 36.9886 35.4129 35.9318 34.9881C35.9318 35.2005 36.5659 35.4129 36.3545 35.6253C34.875 37.1119 35.7204 38.3861 34.875 39.8727C34.875 40.0851 35.0864 39.8727 35.0864 39.8727C34.875 40.7222 34.4523 41.7841 34.6636 42.846C33.6068 44.545 34.0295 48.5801 32.55 50.7038C32.7614 50.9162 32.9727 51.341 33.1841 51.5533C32.1273 53.04 32.7614 56.0132 31.2818 58.3493C32.1273 59.4112 30.6477 60.4731 31.0705 61.5349C30.8591 61.5349 30.8591 61.3226 30.6477 61.3226C30.8591 61.9597 30.0136 62.3844 30.6477 62.5968C30.225 62.8092 29.8023 62.8092 29.8023 63.0216C30.4364 63.2339 29.8023 62.5968 30.6477 62.8092C30.225 63.2339 30.225 64.0834 29.1682 64.9329C29.3795 65.1453 29.8023 64.9329 29.5909 65.3577C28.5341 64.9329 29.1682 65.5701 28.3227 65.3577C28.9568 65.7824 28.3227 66.2072 27.4773 66.2072C27.9 65.7824 26.4205 65.9948 26.8432 65.5701C25.7864 65.5701 27.2659 66.4196 28.1114 66.4196C27.9 66.8443 26.6318 66.4196 26.8432 65.9948C25.9977 65.9948 27.0545 66.4196 27.0545 66.6319C27.6886 66.8443 26.4205 66.6319 26.8432 66.4196C26.2091 66.4196 26.2091 66.6319 25.575 66.6319C24.9409 66.6319 24.7295 66.4196 24.3068 66.2072C24.0955 65.7824 24.9409 66.2072 24.9409 65.7824C24.3068 65.7824 23.8841 65.7824 22.6159 65.5701C23.25 65.5701 22.8273 65.3577 23.4614 65.1453C22.8273 65.3577 23.0386 64.9329 22.1932 64.7206C23.0386 65.1453 22.1932 65.1453 22.8273 65.5701C22.6159 65.9948 21.9818 65.1453 21.7705 65.3577C21.1364 65.3577 21.7705 64.9329 21.5591 64.7206C21.1364 64.7206 20.7136 64.5082 20.5023 64.7206C21.7705 64.9329 20.0795 64.7206 20.7136 65.3577C20.0795 65.3577 18.8114 64.5082 20.0795 64.7206C20.0795 64.5082 19.6568 64.5082 19.6568 64.5082C19.6568 64.7206 19.0227 64.9329 18.6 64.9329C18.1773 64.7206 18.3886 64.5082 18.1773 64.2958C19.2341 64.5082 19.2341 64.2958 19.0227 63.8711C18.6 64.2958 17.9659 63.8711 16.9091 64.2958C16.275 63.8711 15.4295 63.4463 16.4864 63.4463C16.4864 63.2339 16.0636 63.4463 15.6409 63.2339C16.0636 63.2339 15.2182 62.5968 16.275 63.0216C16.275 62.8092 15.6409 62.5968 15.4295 62.8092C15.8523 62.3844 15.4295 61.9597 16.0636 61.5349C15.2182 61.3226 16.4864 60.8978 16.0636 60.2607C14.7955 60.8978 15.6409 61.9597 14.3727 62.8092C14.1614 62.8092 14.1614 62.5968 13.95 62.5968V62.3844C14.7955 62.5968 13.95 60.8978 14.7955 60.2607H14.5841C14.7955 60.2607 14.7955 60.2607 14.7955 60.0483C14.7955 59.836 15.4295 59.4112 15.2182 59.1988V58.3493C15.0068 58.137 15.2182 58.137 15.2182 57.9246C15.2182 57.7122 15.2182 56.6503 15.4295 56.438C15.4295 56.438 15.6409 56.0132 15.6409 55.5885C17.1205 54.1018 16.0636 49.4296 16.9091 48.7925C17.3318 48.3677 17.3318 49.2172 16.9091 48.5801C16.6977 47.943 17.5432 47.0935 17.5432 46.6687C16.9091 46.0316 17.9659 45.3945 18.1773 44.9697C18.3886 44.545 17.7545 43.9079 17.9659 43.6955C17.9659 43.6955 18.8114 43.6955 18.8114 43.4831C18.8114 43.2707 17.9659 42.6336 18.3886 42.4212C19.2341 42.2089 18.6 42.846 18.3886 42.2089C17.9659 41.3594 19.0227 40.5099 19.0227 39.6604C19.2341 38.1737 19.2341 36.4747 19.8682 34.7758C20.2909 34.5634 20.7136 34.9881 20.925 34.7758C20.7136 34.351 20.2909 34.7758 19.8682 34.5634C19.6568 34.1386 21.3477 34.5634 20.7136 34.1386C20.7136 34.1386 20.5023 34.1386 20.5023 34.351C20.2909 33.5015 20.2909 32.4396 20.5023 31.5901C20.7136 30.7406 21.1364 29.8911 21.3477 29.0416C21.3477 29.0416 21.3477 29.254 21.5591 29.254C21.7705 29.0416 20.925 28.8293 20.925 28.6169C21.5591 26.9179 22.1932 25.2189 22.6159 23.7323C23.25 22.2457 23.4614 20.759 23.8841 19.4848C24.0955 19.9095 25.1523 19.9095 24.7295 19.4848C24.7295 19.4848 24.7295 19.6972 24.3068 19.6972C24.3068 18.8477 24.7295 17.5734 25.1523 16.2992C25.3636 15.662 25.7864 14.8125 26.2091 14.1754C26.6318 13.3259 26.8432 12.6888 27.4773 11.8393H27.2659C27.4773 11.2022 28.1114 10.3527 28.7455 9.50318C30.225 9.29081 30.8591 8.65368 31.0705 8.65368C31.4932 8.44131 31.9159 8.22893 32.3386 7.80418Z" fill="#FFCA42"/>
</g>
<g id="Group_3">
<path id="Vector_2" opacity="0.75" fill-rule="evenodd" clip-rule="evenodd" d="M25.9977 67.0567C23.8841 63.6587 21.5591 60.4731 20.925 57.4998C21.5591 57.2875 21.3477 57.0751 21.7705 56.8627C20.5023 55.8008 20.5023 54.9513 20.5023 53.2523C23.6727 51.1286 27.9 50.9162 31.2818 50.2791C37.6227 48.7925 46.2886 47.5182 55.5886 47.7306C60.2386 47.943 65.1 48.3677 69.75 49.642C74.4 50.9162 79.05 52.8276 82.8545 55.8008C82.8545 56.2256 83.0659 56.6503 83.7 57.0751C83.9114 57.2875 84.3341 57.4998 84.7568 57.9246C85.1795 58.137 85.6023 58.5617 86.025 58.9865C86.4477 59.4112 86.8705 59.6236 87.2932 60.0483C87.7159 60.4731 87.9273 60.8978 88.35 61.3226C88.9841 62.1721 89.4068 63.0216 89.1955 63.8711C89.8295 64.5082 90.2523 65.1453 90.8864 65.9948C91.3091 66.8443 91.7318 67.9062 91.9432 69.1804C92.1545 70.2423 92.3659 71.3042 92.3659 72.3661C92.5773 73.4279 92.3659 74.2774 92.5773 75.1269C92.5773 75.3393 93 75.9764 93 76.6136C93.2114 77.2507 93.2114 77.6754 92.5773 77.2507C92.5773 78.5249 93.4227 78.3126 93 80.2239C91.9432 84.0467 91.3091 87.0199 90.675 89.7808C90.4636 90.4179 90.2523 91.055 90.0409 91.9045C89.8295 92.3293 89.8296 92.5417 89.6182 92.9664L89.1955 94.0283C88.5614 95.5149 87.7159 96.7891 86.6591 98.0634C86.4477 97.851 86.6591 97.851 86.8705 97.6386C85.8136 99.1253 84.5455 100.612 83.2773 102.311C82.6432 103.16 82.0091 103.798 81.375 104.647C80.7409 105.497 80.1068 106.134 79.4727 106.771C76.725 108.894 72.4977 112.505 67.8477 115.478C63.1977 118.451 57.9136 121 54.1091 121.849C53.2636 122.486 52.6295 122.911 51.7841 123.548C48.6136 124.185 44.8091 125.46 40.1591 126.309C35.7205 127.159 30.6477 127.583 25.7864 126.522C24.9409 126.734 23.8841 126.734 22.8273 126.522C21.7705 126.309 20.7136 126.097 19.6568 125.672C18.6 125.247 17.5432 125.035 16.4864 124.398C15.4295 123.973 14.3727 123.548 13.3159 123.124C13.5273 122.911 13.7386 123.124 13.95 122.911C12.6818 122.486 11.625 121.849 10.9909 121.212C10.1455 120.575 9.72273 120.15 9.08864 120.15C8.87727 119.726 8.87727 119.513 8.66591 119.088C8.45455 118.664 8.24318 118.239 7.60909 117.814C7.18637 118.239 9.08864 118.876 8.24318 119.301C7.82046 118.876 7.39773 118.239 6.76364 117.814C6.34091 117.177 5.70682 116.752 5.28409 116.115C4.86137 115.478 4.22727 114.841 3.80455 113.991C3.38182 113.354 2.95909 112.505 2.74773 111.655C2.325 111.443 2.325 112.292 1.47955 110.593C2.325 110.806 2.11364 110.381 1.90228 109.956C1.69091 109.532 1.69091 109.107 2.325 109.319C1.26818 108.682 0.42273 106.346 1.26818 105.496C1.26818 106.346 1.69091 106.346 2.11364 106.346C2.325 106.346 2.74773 106.346 2.95909 107.195C3.17046 106.558 2.95909 106.134 2.325 105.921C1.90228 105.496 1.05682 105.496 0.634093 105.496C0.42273 104.01 1.69091 104.222 2.11364 105.496C2.53637 104.435 1.26818 104.01 1.05682 103.16C0.211366 102.948 1.47955 102.736 1.47955 103.798C1.90228 103.373 1.47955 102.311 2.11364 101.886C2.11364 102.099 2.325 102.736 2.95909 102.523C3.38182 103.373 2.53637 103.373 3.17046 104.435C3.38182 103.585 3.80455 103.16 5.07273 103.16C4.65 104.01 5.28409 104.01 4.86137 105.072C5.07273 104.647 5.07273 104.647 5.28409 104.859C5.49546 105.072 5.91818 105.284 6.12955 105.072C4.86137 104.435 5.49546 103.373 4.65 102.948C4.43864 101.674 5.91818 103.585 5.49546 102.523C5.91818 102.311 6.12955 103.585 6.34091 104.222C6.76364 104.01 7.18637 103.797 7.18637 103.373C5.91818 103.797 7.39773 103.16 6.34091 101.461C6.975 101.037 8.66591 102.099 7.60909 102.736C7.82046 102.948 8.03182 102.736 8.24318 102.948C8.24318 102.523 8.24318 101.461 8.45455 100.612C8.87727 100.612 9.08864 101.249 9.3 101.674C8.24318 102.311 8.66591 102.736 9.08864 103.373C8.87727 101.886 9.93409 102.311 10.1455 100.4C11.2023 100.824 12.2591 101.249 11.2023 102.099C11.625 102.736 11.625 102.099 12.0477 102.099C11.8364 102.523 12.8932 102.948 11.8364 102.948C12.2591 103.373 12.6818 103.16 12.6818 102.523C12.6818 103.16 13.1045 103.585 13.3159 104.01C13.5273 104.435 13.95 104.859 13.95 105.496C14.3727 105.284 14.3727 105.709 14.7955 106.134C15.0068 106.558 15.4295 107.408 16.0636 107.408C15.8523 106.983 15.6409 106.346 15.4295 105.921C15.2182 105.496 14.7955 105.072 14.5841 104.647C14.3727 104.222 13.95 103.798 13.7386 103.16C13.5273 102.523 13.3159 101.886 13.3159 101.249C13.5273 101.249 13.7386 101.461 13.95 101.461V102.099C13.7386 102.099 13.7386 102.311 13.7386 102.736C13.95 102.948 14.1614 103.585 14.3727 104.01C14.7955 104.01 15.0068 104.222 15.0068 104.435C15.2182 104.647 15.4295 104.859 15.4295 105.072C15.8523 105.497 16.0636 105.921 16.275 106.346H16.4864C16.4864 106.558 16.4864 106.558 16.6977 106.771C16.9091 106.983 17.1205 107.195 17.3318 107.62C17.5432 108.045 17.9659 108.257 17.9659 108.257C17.9659 108.257 18.3886 108.47 18.6 108.682C19.0227 108.894 19.2341 109.107 19.2341 109.107C19.8682 109.107 19.8682 109.319 20.0795 109.319C20.2909 109.319 20.925 109.532 21.7705 109.744C22.4045 109.956 23.25 110.169 23.4614 110.381C23.4614 110.381 23.6727 110.593 24.0955 110.593C24.5182 110.593 24.9409 110.806 25.575 110.806C25.9977 111.018 26.6318 111.231 27.4773 111.231C27.9 111.231 28.1114 111.443 28.5341 111.443C28.9568 111.443 29.3795 111.443 29.8023 111.443C31.4932 111.443 33.6068 111.231 35.5091 110.806C39.3136 110.169 42.9068 108.682 43.9636 108.682C45.2318 108.682 43.3295 109.319 44.5977 108.47C45.2318 108.045 46.2886 107.833 47.3455 107.408C48.4023 107.195 49.4591 106.771 50.0932 106.558C50.9386 105.496 53.475 105.284 54.9545 104.647C56.2227 104.01 57.0682 102.736 57.9136 102.523C58.125 102.523 58.7591 102.736 59.1818 102.736C59.8159 102.523 60.0273 101.037 61.0841 101.037C62.5636 100.824 60.6614 101.886 61.5068 100.612C62.3523 99.7624 63.4091 99.1253 64.2545 98.4881C65.3114 97.851 66.3682 97.2139 67.425 96.3644C68.0591 95.7273 68.9046 95.0901 69.5386 94.2406C70.1727 93.3911 71.0182 92.754 71.6523 91.6921C72.2864 90.8426 72.9205 89.9932 73.5545 89.1437C73.9773 88.2942 74.6114 87.4447 75.0341 86.5952C75.6682 86.1704 75.8795 87.0199 76.0909 86.8075C76.0909 85.958 75.2455 86.8075 75.2455 86.3828C75.2455 85.7457 76.9364 85.958 76.3023 85.3209C76.3023 85.5333 76.0909 85.5333 75.8796 85.7457C76.0909 84.6838 76.3023 83.4095 76.5136 82.3477C76.5136 81.7105 76.725 81.2858 76.9364 80.6487C76.9364 80.0115 77.1477 79.5868 77.1477 78.9497C77.3591 76.8259 77.5705 74.9146 77.1477 73.4279C77.1477 73.6403 77.1477 73.8527 77.5705 73.8527C77.5705 73.2156 76.725 73.4279 76.725 73.2156C76.3023 71.7289 75.6682 70.2423 74.6114 69.1804C73.5545 67.9062 72.2864 67.0567 70.5955 66.2072C69.9614 65.7824 68.9045 65.3577 68.2705 65.1453C67.425 64.933 66.5795 64.5082 65.7341 64.2958C64.8886 64.0835 64.0432 63.8711 63.1977 63.6587C62.775 63.6587 62.3523 63.4463 61.9295 63.4463C61.5068 63.4463 61.0841 63.4463 60.6614 63.234C61.7182 63.0216 60.8727 61.9597 60.2386 62.3845C60.45 62.3845 60.8727 62.3845 60.8727 62.8092C58.7591 62.8092 55.8 62.5968 52.2068 62.8092C48.6136 62.8092 44.3864 63.234 39.9477 64.0835V64.2958C38.4682 64.5082 35.9318 65.1453 33.8182 65.5701C31.7045 65.9948 29.8023 66.4196 29.3795 66.6319C28.3227 66.4196 27.0545 66.6319 25.9977 67.0567Z" fill="#FFCA42"/>
</g>
<g id="Group_4">
<path id="Vector_3" opacity="0.75" fill-rule="evenodd" clip-rule="evenodd" d="M32.7614 20.1219C33.1841 16.2992 33.6068 12.264 34.4523 9.2908C34.6636 9.2908 34.6636 9.07843 34.6636 9.07843C34.6636 7.80418 34.875 6.74231 35.2977 5.25568C36.1432 4.61856 36.7773 5.89281 37.6227 6.10518C38.4682 6.52993 39.3136 6.52993 40.3705 6.52993C41.4273 6.52993 42.4841 6.31756 43.5409 6.10518C44.5977 5.89281 45.6546 5.68043 46.9227 5.46806C47.9796 5.25568 49.0364 5.04331 49.8818 4.83093C50.3045 6.31756 51.15 3.34431 51.9955 5.04331C52.4182 3.98144 53.6864 4.83093 54.3205 4.61856C54.3205 4.61856 54.7432 3.55669 54.7432 4.61856C54.9545 4.61856 54.7432 3.76906 55.1659 3.98144C57.0682 4.83093 57.9136 3.34431 59.6045 3.55669V3.34431C60.45 3.34431 61.7182 3.13194 62.3523 2.49481C63.4091 2.70719 64.8886 2.28244 66.3682 1.85769C67.8477 1.43294 69.5386 1.22057 70.8068 1.64532C71.0182 1.43294 71.2295 1.00819 71.4409 0.795818C72.4977 1.00819 73.5546 0.795818 74.8227 0.583443C76.0909 0.371068 77.5705 0.158694 78.8386 0.583443C79.6841 -0.47843 81.1636 0.795818 82.2205 0.158694C82.2205 0.371068 82.2205 0.371068 82.2205 0.583443C82.8546 0.158694 83.4886 1.00819 83.7 0.371068C83.9114 0.795818 83.9114 1.22057 84.3341 1.00819C84.3341 0.371068 83.9114 1.22057 83.9114 0.158694C84.3341 0.371068 84.5455 0.371068 84.9682 0.583443C85.3909 0.795818 85.8136 0.795818 86.2364 1.22057C86.4477 1.00819 86.2364 0.583443 86.6591 0.795818C86.4477 1.85769 87.0818 1.22057 86.8705 2.07007C87.0818 1.22057 87.7159 1.85769 87.9273 2.91956C87.5045 2.49481 87.7159 4.19381 87.2932 3.76906C87.5045 4.83093 87.9273 3.13194 87.9273 2.28244C88.35 2.49481 88.1386 3.76906 87.7159 3.55669C87.9273 4.40619 88.1386 3.13194 88.35 3.34431C88.5614 2.49481 88.35 3.98144 88.1386 3.55669C88.1386 4.19381 88.5614 4.19381 88.5614 4.83093C88.5614 5.46806 88.35 5.68043 88.35 6.10518C88.1386 6.31756 88.1386 5.46806 87.9273 5.68043C88.1386 6.31756 88.1386 6.52993 87.9273 8.01655C87.7159 7.37943 87.7159 7.80418 87.5046 7.16706C87.7159 7.80418 87.2932 7.80418 87.2932 8.4413C87.7159 7.37943 87.7159 8.4413 88.1386 7.80418C88.5614 8.01655 87.7159 8.65368 88.1386 8.86605C88.1386 9.50318 87.7159 8.86605 87.5046 9.07843C87.5046 9.50318 87.5046 10.1403 87.5046 10.1403C87.5046 8.86605 87.5045 10.565 88.1386 9.92792C88.1386 10.565 87.5046 11.8393 87.5046 10.7774C87.5046 10.7774 87.5045 11.2022 87.2932 11.2022C87.5045 11.2022 87.7159 11.6269 87.9273 12.264C87.9273 12.6888 87.7159 12.6888 87.5046 12.6888C87.5046 11.6269 87.2932 11.6269 87.0818 11.8393C87.5045 12.264 87.2932 12.9012 87.7159 13.963C87.5045 14.8125 87.0818 15.662 87.0818 14.3878C86.8705 14.6002 87.0818 14.8125 87.0818 15.2373C87.0818 14.8125 86.6591 15.662 86.8705 14.8125C86.6591 14.3878 86.6591 15.0249 86.8705 15.0249C86.4477 14.6002 86.025 15.2373 85.6023 14.3878C85.6023 15.2373 84.9682 14.1754 84.5455 14.6002C85.3909 15.8744 86.025 14.8125 87.0818 15.8744C87.0818 16.0868 86.8705 16.0868 86.8705 16.2992H86.6591C86.8705 15.4497 85.3909 16.5115 84.5455 15.662V15.8744C84.5455 15.662 84.5455 15.662 84.3341 15.662C84.1227 15.662 83.7 15.2373 83.4886 15.4497H82.8545C82.6432 15.662 82.6432 15.4497 82.4318 15.662C82.2205 15.8744 81.375 15.8744 81.1636 15.662C81.1636 15.662 80.7409 15.662 80.3182 15.662C79.4727 15.0249 78.2046 15.4497 76.9364 15.662C75.6682 16.0868 74.6114 16.5115 74.1886 16.0868C73.7659 15.662 74.4 15.662 73.9773 16.0868C73.5545 16.5115 72.4977 15.8744 72.075 16.0868C71.8636 16.9363 70.8068 16.0868 70.3841 16.0868C69.9614 16.0868 69.5386 16.9363 69.3273 16.7239L68.9045 16.0868C68.6932 16.0868 68.4818 17.1487 68.2705 16.7239C67.6364 16.0868 68.4818 16.2992 68.0591 16.7239C67.425 17.361 66.3682 16.7239 65.5227 16.9363C64.2545 17.1487 62.5636 17.9982 60.8727 17.9982C60.6614 17.7858 60.6614 17.1487 60.45 16.9363C60.2386 17.361 60.6614 17.5734 60.6614 17.9982C60.45 18.2105 60.0273 16.5115 60.0273 17.361L60.2386 17.5734C58.7591 18.8477 56.8568 18.6353 55.1659 18.8477C55.1659 18.8477 55.3773 18.8477 55.3773 18.6353C54.9546 18.6353 55.1659 19.2724 54.9545 19.4848C51.3614 19.6972 48.4023 20.1219 45.6545 20.5467C45.8659 20.1219 45.4432 19.2724 45.4432 19.6972C45.4432 19.6972 45.6545 19.6972 45.6545 19.9095C44.175 20.759 41.2159 20.9714 37.6227 20.759V20.9714C36.9886 20.9714 35.9318 20.9714 35.0864 20.759C34.2409 20.5467 33.3955 20.3343 33.3955 20.1219C33.6068 20.759 33.1841 20.3343 32.7614 20.1219Z" fill="#FFCA42"/>
</g>
</g>
</g>
<defs>
<clipPath id="clip0_1_1344">
<rect width="93" height="127" fill="white" transform="translate(0 0.158691)"/>
</clipPath>
</defs>
</svg>
