<svg width="212" height="171" viewBox="0 0 212 171" fill="none" xmlns="http://www.w3.org/2000/svg">
<g clip-path="url(#clip0_920_9062)">
<path opacity="0.75" d="M167.187 55.1302C167.126 54.6497 167.17 53.3252 168.343 53.0425C169.538 52.8057 171.661 51.8949 172.355 51.4464C173.004 51.0202 186.139 43.4353 187.342 42.7417C188.545 42.0481 195.158 38.2905 195.738 37.8406C196.364 37.3684 196.994 36.6679 197.84 36.7696C198.664 36.8253 199.137 37.3336 199.405 37.771C199.627 38.2306 200.512 38.7668 200.896 39.0913C201.258 39.3699 202.09 40.3852 202.193 41.0719C202.297 41.7585 202.197 42.2599 201.929 43.239C201.686 44.1499 201.884 44.6777 201.597 45.3825C201.311 46.0872 200.74 45.966 200.208 46.2794C199.676 46.5928 198.871 46.8114 198.224 47.1234C197.578 47.4354 187.987 52.5732 185.973 53.8281C184.006 55.0607 179.999 57.7306 178.54 58.7181C177.081 59.7055 175.392 60.6902 174.535 61.2738C173.678 61.8573 172.633 62.7585 171.517 62.3337C170.401 61.9089 168.732 58.8044 168.202 57.5871C167.649 56.3238 167.187 55.1302 167.187 55.1302Z" fill="#FFC327"/>
</g>
<g clip-path="url(#clip1_920_9062)">
<path opacity="0.75" d="M128.962 36.9358C128.618 36.5948 127.837 35.5243 128.587 34.579C129.382 33.6562 130.493 31.6312 130.764 30.8501C131.012 30.115 136.688 16.0486 137.208 14.7615C137.728 13.4743 140.623 6.44066 140.803 5.729C141.006 4.97134 141.07 4.0315 141.8 3.59039C142.483 3.12674 143.169 3.23583 143.649 3.41529C144.107 3.64075 145.134 3.51802 145.637 3.53693C146.094 3.53329 147.374 3.82093 147.879 4.29804C148.384 4.77514 148.614 5.23152 149.006 6.16773C149.375 7.03539 149.856 7.32939 150.065 8.06087C150.273 8.79234 149.749 9.04854 149.523 9.6231C149.297 10.1977 148.797 10.866 148.48 11.5101C148.163 12.1541 143.772 22.1093 142.959 24.3381C142.168 26.5209 140.657 31.0921 140.115 32.7689C139.574 34.4457 138.851 36.2614 138.535 37.249C138.219 38.2367 137.951 39.5905 136.81 39.9433C135.669 40.296 132.442 38.8784 131.275 38.2462C130.061 37.5914 128.962 36.9358 128.962 36.9358Z" fill="#FFC327"/>
</g>
<g clip-path="url(#clip2_920_9062)">
<path opacity="0.75" d="M88.3753 38.558C87.8991 38.4696 86.6511 38.0237 86.7396 36.8203C86.8786 35.6098 86.6585 33.3106 86.4432 32.5123C86.235 31.7649 83.0174 16.9417 82.7236 15.585C82.4298 14.2282 80.8679 6.78411 80.6164 6.09454C80.3577 5.35419 79.8826 4.5407 80.2375 3.76587C80.5418 2.99814 81.1702 2.70267 81.6684 2.58085C82.1738 2.50981 82.9544 1.83048 83.3806 1.56343C83.7563 1.30348 84.9769 0.8212 85.6624 0.931953C86.3479 1.04271 86.795 1.29053 87.6459 1.84408C88.439 2.35395 89.0021 2.32658 89.5859 2.81409C90.1698 3.3016 89.8803 3.80833 90.0165 4.41055C90.1527 5.01278 90.1153 5.84654 90.2153 6.55743C90.3152 7.26832 92.2834 17.9693 92.8644 20.2695C93.4384 22.519 94.7592 27.149 95.2546 28.8399C95.75 30.5308 96.1728 32.439 96.4672 33.4333C96.7616 34.4275 97.3009 35.698 96.5561 36.6312C95.8112 37.5644 92.3456 38.207 91.0246 38.3409C89.653 38.482 88.3753 38.558 88.3753 38.558Z" fill="#FFC327"/>
</g>
<g clip-path="url(#clip3_920_9062)">
<path opacity="0.75" d="M50.6566 56.2353C50.2139 56.4316 48.9324 56.7694 48.325 55.7268C47.7552 54.6498 46.2736 52.8778 45.6447 52.3412C45.0504 51.8424 34.0153 41.4354 33.0058 40.4825C31.9963 39.5295 26.4991 34.2727 25.9017 33.8461C25.2697 33.3817 24.4179 32.9794 24.2725 32.1397C24.0895 31.3344 24.4407 30.7353 24.7828 30.3532C25.1594 30.0088 25.4192 29.0072 25.6197 28.5459C25.7827 28.119 26.5167 27.0311 27.1447 26.7349C27.7728 26.4386 28.2817 26.3902 29.2964 26.3657C30.2389 26.3378 30.6879 25.9969 31.4451 26.0689C32.2023 26.1408 32.25 26.7225 32.7029 27.1422C33.1557 27.5619 33.5963 28.2707 34.0807 28.8006C34.5651 29.3304 42.2389 37.0438 44.0187 38.6125C45.764 40.1434 49.4713 43.2154 50.8359 44.33C52.2006 45.4446 53.6283 46.7794 54.4333 47.4331C55.2383 48.0867 56.4015 48.8296 56.3147 50.0205C56.228 51.2114 53.7329 53.7008 52.719 54.5583C51.6675 55.4501 50.6566 56.2353 50.6566 56.2353Z" fill="#FFC327"/>
</g>
<g clip-path="url(#clip4_920_9062)">
<path opacity="0.75" d="M38.4849 92.5204C38.3103 92.9722 37.642 94.1166 36.4755 93.8078C35.3113 93.448 33.0109 93.2406 32.1867 93.3051C31.4137 93.3719 16.2515 93.8023 14.8638 93.841C13.4761 93.8797 5.87167 94.0428 5.14755 94.1629C4.3722 94.2807 3.48508 94.5977 2.78894 94.1061C2.09046 93.6655 1.91588 92.9934 1.88797 92.4813C1.91129 91.9715 1.38747 91.0791 1.20356 90.6109C1.01732 90.1937 0.76827 88.9051 1.00348 88.2518C1.23868 87.5984 1.56467 87.2046 2.26556 86.4704C2.91288 85.7848 2.98975 85.2264 3.57653 84.7424C4.1633 84.2584 4.60799 84.6363 5.22501 84.6134C5.84202 84.5906 6.6546 84.781 7.37173 84.8138C8.08886 84.8466 18.9692 84.8845 21.3372 84.7373C23.6539 84.5879 28.448 84.143 30.2012 83.9678C31.9545 83.7926 33.908 83.7286 34.9395 83.6226C35.9709 83.5165 37.319 83.2205 38.099 84.1247C38.8789 85.0288 38.8717 88.5534 38.7599 89.8765C38.6457 91.2506 38.4849 92.5204 38.4849 92.5204Z" fill="#FFC327"/>
</g>
<g clip-path="url(#clip5_920_9062)">
<path opacity="0.75" d="M56.8233 126.303C56.9593 126.768 57.1244 128.083 56.0105 128.547C54.8674 128.969 52.9148 130.203 52.2996 130.755C51.7264 131.278 39.9493 140.837 38.871 141.711C37.7927 142.586 31.8539 147.338 31.352 147.874C30.8079 148.438 30.2963 149.229 29.4447 149.262C28.6222 149.337 28.075 148.91 27.7416 148.52C27.4502 148.101 26.4917 147.711 26.0611 147.451C25.6596 147.233 24.6785 146.361 24.4681 145.699C24.2577 145.038 24.2771 144.527 24.3873 143.518C24.4844 142.58 24.206 142.09 24.3777 141.349C24.5493 140.608 25.1322 140.637 25.6082 140.244C26.0842 139.851 26.8451 139.508 27.4345 139.098C28.0238 138.688 36.6858 132.104 38.4766 130.548C40.2252 129.021 43.7612 125.753 45.0468 124.548C46.3324 123.343 47.8446 122.105 48.5991 121.393C49.3536 120.682 50.2441 119.628 51.413 119.871C52.5819 120.115 54.7188 122.918 55.4344 124.037C56.179 125.197 56.8233 126.303 56.8233 126.303Z" fill="#FFC327"/>
</g>
<g clip-path="url(#clip6_920_9062)">
<path opacity="0.75" d="M85.3342 134.346C85.7154 134.645 86.6149 135.618 85.9791 136.644C85.2952 137.652 84.4254 139.792 84.2465 140.599C84.0847 141.358 80.0708 155.986 79.7028 157.324C79.3348 158.663 77.2711 165.984 77.1747 166.711C77.061 167.487 77.1053 168.428 76.4319 168.951C75.8066 169.49 75.1128 169.461 74.6148 169.338C74.134 169.167 73.1276 169.408 72.6261 169.447C72.1727 169.503 70.8676 169.365 70.3113 168.95C69.7551 168.534 69.4736 168.107 68.9759 167.223C68.5091 166.403 67.9975 166.167 67.7058 165.464C67.4141 164.762 67.9054 164.447 68.0636 163.85C68.2218 163.253 68.6412 162.532 68.8818 161.855C69.1225 161.179 72.3345 150.783 72.885 148.476C73.4182 146.216 74.3921 141.501 74.7362 139.773C75.0803 138.045 75.5894 136.158 75.789 135.14C75.9886 134.123 76.0991 132.747 77.1915 132.265C78.2839 131.783 81.6529 132.818 82.8857 133.312C84.1667 133.822 85.3342 134.346 85.3342 134.346Z" fill="#FFC327"/>
</g>
<g clip-path="url(#clip7_920_9062)">
<path opacity="0.75" d="M123.929 128.442C124.411 128.485 125.696 128.808 125.724 130.015C125.702 131.233 126.142 133.5 126.434 134.274C126.713 134.998 131.342 149.443 131.765 150.765C132.188 152.087 134.459 159.346 134.776 160.008C135.105 160.72 135.656 161.484 135.377 162.29C135.148 163.083 134.551 163.438 134.067 163.607C133.571 163.726 132.859 164.478 132.461 164.785C132.112 165.079 130.943 165.677 130.25 165.633C129.557 165.588 129.088 165.385 128.188 164.916C127.349 164.485 126.792 164.566 126.164 164.137C125.536 163.708 125.775 163.176 125.581 162.589C125.388 162.003 125.345 161.169 125.177 160.472C125.009 159.774 122.02 149.312 121.22 147.078C120.433 144.894 118.672 140.413 118.017 138.777C117.361 137.142 116.756 135.283 116.367 134.322C115.979 133.361 115.32 132.148 115.971 131.148C116.623 130.147 120.01 129.174 121.312 128.913C122.664 128.641 123.929 128.442 123.929 128.442Z" fill="#FFC327"/>
</g>
<g clip-path="url(#clip8_920_9062)">
<path opacity="0.75" d="M158.286 118.406C158.76 118.303 160.083 118.23 160.468 119.374C160.809 120.543 161.904 122.577 162.412 123.229C162.894 123.838 171.608 136.253 172.405 137.389C173.202 138.526 177.529 144.782 178.028 145.32C178.554 145.902 179.307 146.467 179.281 147.319C179.298 148.145 178.833 148.661 178.421 148.966C177.983 149.228 177.527 150.157 177.238 150.568C176.992 150.954 176.054 151.871 175.379 152.035C174.705 152.199 174.196 152.144 173.197 151.964C172.269 151.801 171.76 152.045 171.033 151.822C170.306 151.599 170.376 151.02 170.017 150.517C169.658 150.015 169.369 149.232 169.001 148.616C168.633 147.999 162.669 138.899 161.241 137.004C159.84 135.153 156.827 131.398 155.715 130.032C154.602 128.665 153.472 127.07 152.815 126.268C152.158 125.466 151.169 124.504 151.493 123.355C151.818 122.206 154.763 120.27 155.929 119.634C157.138 118.972 158.286 118.406 158.286 118.406Z" fill="#FFC327"/>
</g>
<g clip-path="url(#clip9_920_9062)">
<path opacity="0.75" d="M176.589 88.8848C176.945 88.5562 178.049 87.8231 178.96 88.6142C179.847 89.4499 181.82 90.6494 182.589 90.9546C183.312 91.2351 197.114 97.5274 198.377 98.104C199.64 98.6805 206.538 101.884 207.241 102.095C207.989 102.331 208.925 102.437 209.334 103.185C209.767 103.888 209.627 104.568 209.427 105.04C209.181 105.488 209.259 106.52 209.217 107.021C209.201 107.478 208.857 108.744 208.358 109.227C207.859 109.71 207.393 109.92 206.44 110.27C205.557 110.601 205.242 111.068 204.502 111.244C203.762 111.42 203.529 110.885 202.965 110.634C202.401 110.383 201.756 109.854 201.126 109.508C200.497 109.163 190.746 104.336 188.555 103.425C186.409 102.539 181.909 100.827 180.258 100.212C178.607 99.5969 176.825 98.7938 175.852 98.4347C174.88 98.0756 173.539 97.7474 173.237 96.5922C172.935 95.4369 174.494 92.2759 175.177 91.1373C175.885 89.954 176.589 88.8848 176.589 88.8848Z" fill="#FFC327"/>
</g>
<g clip-path="url(#clip10_920_9062)">
<path opacity="0.75" d="M104.061 54.1638C105.748 54.1638 106.51 54.3792 107.599 54.3792C108.687 54.3792 109.068 54.1638 109.068 53.8407C109.068 53.5177 108.197 53.9484 109.068 53.5177C109.939 53.0869 109.939 53.0869 109.939 52.6561C109.939 52.2254 111.028 52.1177 110.592 51.6869C110.157 51.2562 110.048 50.7177 110.048 50.7177C110.048 50.7177 110.374 50.7177 110.374 49.9639C110.374 49.21 109.939 48.6177 109.177 48.4024C108.415 48.187 104.061 46.5178 100.741 47.4332C97.4215 48.2947 88.6047 51.31 84.4141 53.8407C80.169 56.2638 68.4677 65.6329 64.7124 70.0482C60.9027 74.4097 56.2767 82.0018 55.0249 87.4402C53.8276 92.8248 54.5895 99.8246 56.0045 103.486C57.474 107.094 57.474 107.094 57.474 107.094C57.474 107.094 56.1678 97.5631 57.3652 93.0401C58.5625 88.5171 59.27 87.3325 59.5966 86.7402C59.9231 86.2018 60.7939 83.8864 61.7191 82.4326C62.5899 81.0326 68.0323 73.9789 70.6991 71.5559C73.3659 69.1328 79.4614 63.7483 83.2711 61.4329C87.0264 59.1176 92.4144 56.4792 95.952 55.5099C99.4896 54.5407 104.061 54.1638 104.061 54.1638Z" fill="#FFC327"/>
<path opacity="0.75" d="M96.6584 119.909C96.8761 119.855 97.4203 119.801 97.8013 119.801C98.1823 119.801 98.7265 119.747 98.9986 119.747C99.2707 119.747 99.3252 119.855 99.5429 119.694C99.7606 119.532 99.815 119.64 100.033 119.64C100.25 119.64 100.903 119.586 101.121 119.586C101.339 119.586 101.23 119.37 101.393 119.37C101.611 119.37 101.611 119.37 102.101 119.317C102.591 119.263 102.699 119.317 103.026 119.263C103.298 119.209 103.625 119.155 103.625 119.209C103.679 119.317 103.57 119.317 103.407 119.317C103.244 119.37 102.863 119.37 102.645 119.424C102.482 119.478 102.319 119.478 102.046 119.478C101.774 119.424 101.774 119.64 101.557 119.64C101.339 119.64 100.903 119.694 100.577 119.747C100.25 119.801 100.033 119.747 99.815 119.801C99.5973 119.855 99.434 119.963 99.1619 119.909C98.8898 119.855 98.3455 119.963 98.0734 119.963C97.8013 119.963 97.6924 119.909 97.3115 119.963C96.9305 120.017 96.9305 120.017 96.6039 120.07C96.3862 120.07 96.6584 119.909 96.6584 119.909Z" fill="#FFC327"/>
<path opacity="0.75" d="M105.749 118.832C106.13 118.832 107.164 118.617 107.599 118.509C108.034 118.401 108.306 118.347 108.524 118.347C108.742 118.294 108.905 118.24 108.96 118.347C109.014 118.455 108.96 118.563 108.633 118.617C108.306 118.67 108.361 118.67 108.034 118.67C107.708 118.67 107.49 118.778 107.218 118.778C106.946 118.778 106.674 118.886 106.51 118.886C106.347 118.94 106.402 118.886 106.184 118.94C105.966 118.94 105.585 118.832 105.749 118.832Z" fill="#FFC327"/>
<path opacity="0.75" d="M109.883 118.186C110.046 118.186 110.808 118.078 111.135 117.971C111.516 117.863 112.115 117.755 112.387 117.701C112.659 117.647 112.985 117.594 113.584 117.432C114.128 117.271 114.618 117.271 114.999 117.163C115.38 117.055 115.38 117.001 115.815 116.894C116.305 116.786 116.958 116.732 116.741 116.84C116.577 116.947 116.305 117.001 115.979 117.109C115.598 117.217 115.108 117.486 114.836 117.486C114.618 117.486 114.019 117.486 113.856 117.594C113.693 117.701 113.258 117.809 112.985 117.863C112.713 117.917 112.55 117.917 112.115 118.024C111.679 118.132 111.57 118.132 111.353 118.24C111.135 118.347 111.081 118.401 110.754 118.401C110.427 118.455 110.264 118.455 109.938 118.455C109.666 118.401 109.883 118.186 109.883 118.186Z" fill="#FFC327"/>
<path opacity="0.75" d="M159.465 76.9404C159.465 80.3326 156.798 86.8479 154.349 89.8094C151.9 92.7709 145.205 97.9401 139.219 100.686C133.232 103.432 114.292 110.055 101.285 111.024C88.2775 111.994 77.9369 110.917 67.814 107.04C57.691 103.271 54.9698 88.6248 54.6977 89.4863C54.099 91.2632 54.3711 98.4247 55.2419 101.44C56.1127 104.401 57.691 108.386 60.7388 111.294C63.841 114.201 67.3241 116.032 68.4126 116.409C69.5555 116.786 72.5489 117.971 73.3108 118.078C74.0728 118.186 75.4334 118.617 76.6307 118.778C77.8825 118.994 80.386 119.424 82.0187 119.532C83.6514 119.64 86.4815 119.909 87.6788 119.909C88.8762 119.909 94.4819 120.017 95.0261 120.017C95.5704 120.017 95.2982 119.694 94.9173 119.694C94.5363 119.694 93.5567 119.909 92.3049 119.801C91.0531 119.747 89.2027 119.747 88.5496 119.747C87.8965 119.747 84.7399 119.478 84.1413 119.424C83.5426 119.37 79.9506 118.886 79.0254 118.832C78.1002 118.778 75.2701 118.132 74.8347 118.078C74.3993 118.024 73.9639 117.647 74.2905 117.486C74.617 117.378 75.4878 117.486 76.1409 117.755C76.794 118.024 78.6444 118.347 79.9506 118.509C81.2568 118.724 84.1957 119.209 85.9373 119.155C87.6244 119.101 92.1961 119.209 92.6859 119.209C93.2301 119.209 93.2845 119.263 93.6655 119.263C94.0465 119.263 94.2642 119.209 94.2098 118.832C94.1553 118.455 94.9717 118.509 95.6792 118.509C96.3323 118.509 95.6248 118.778 96.2779 118.94C96.931 119.155 97.3119 118.886 98.1827 118.832C99.0535 118.778 98.8358 118.563 99.1079 118.563C99.3801 118.563 99.3256 118.132 99.8699 118.024C100.469 117.971 101.23 118.078 100.795 118.132C100.36 118.186 100.196 118.509 100.904 118.509C101.611 118.509 101.557 118.455 102.373 118.294C103.135 118.186 103.625 118.186 104.169 117.971C104.714 117.755 104.823 118.024 105.53 118.024C106.238 118.024 107.979 117.432 108.741 117.432C109.503 117.432 109.503 117.324 109.993 117.163C110.428 117.055 110.7 117.055 111.19 116.947C111.626 116.894 111.789 116.947 112.442 116.732C113.095 116.517 113.367 116.301 114.401 116.14C115.435 116.032 114.401 116.14 114.619 116.14C114.837 116.14 116.524 115.709 116.959 115.601C117.395 115.547 117.83 115.547 117.558 115.332C117.286 115.117 117.667 114.901 118.102 114.794C118.483 114.74 119.136 114.255 119.572 114.255C119.952 114.255 119.572 114.632 118.864 114.847C118.156 115.063 118.102 115.386 118.483 115.224C118.864 115.117 119.463 114.955 120.442 114.632C121.422 114.309 122.293 114.309 122.619 114.201C122.946 114.094 122.837 113.878 122.837 113.609C122.837 113.34 123.381 113.501 123.762 113.286C124.143 113.071 124.687 113.017 125.34 112.855C125.994 112.64 126.919 112.478 126.375 112.64C125.83 112.855 126.157 113.071 126.701 112.963C127.245 112.855 127.3 112.64 127.626 112.586C127.953 112.532 127.953 112.532 127.953 112.155C127.953 111.778 128.497 112.048 128.66 112.263C128.878 112.532 129.313 112.048 129.912 111.509C130.456 110.971 129.912 111.509 130.239 111.401C130.565 111.294 130.783 111.186 131.327 111.078C131.871 110.971 131.871 111.186 132.198 110.971C132.524 110.755 132.742 110.432 133.286 110.324C133.831 110.217 134.266 110.432 134.756 110.217C135.191 110.001 136.225 109.678 137.749 108.655C139.328 107.686 148.199 103.163 148.961 102.84C149.723 102.517 149.614 101.978 149.831 101.655C150.049 101.332 150.811 101.44 150.811 101.44C150.811 101.44 150.811 101.44 151.573 100.578C152.335 99.717 151.9 99.8246 152.226 99.2323C152.553 98.6939 152.77 99.4477 153.315 99.017C153.859 98.5862 154.294 97.6708 155.546 96.0555C156.743 94.3863 157.56 91.8555 157.56 91.8555C161.369 81.7865 159.465 76.9404 159.465 76.9404ZM141.994 101.278C140.525 101.978 137.314 103.486 136.661 103.755C136.008 104.025 135.355 103.971 135.137 104.186C134.919 104.455 134.538 104.509 134.266 104.617C133.994 104.725 133.504 104.886 133.014 105.155C132.579 105.425 129.586 106.501 128.225 106.986C126.864 107.417 121.585 108.978 120.333 109.409C119.082 109.786 115.653 110.594 114.292 110.755C112.932 110.971 112.986 111.186 112.442 111.348C111.898 111.455 112.387 111.724 111.843 111.724C111.299 111.724 109.394 112.155 108.741 112.263C108.088 112.317 107.707 112.263 107.217 112.263C106.782 112.263 106.02 112.263 105.857 112.317C105.639 112.371 105.203 112.532 104.877 112.586C104.55 112.64 103.843 112.64 102.21 112.855C100.577 113.071 98.4004 112.963 98.727 112.909C98.727 112.909 105.421 111.994 106.183 111.94C106.945 111.886 116.197 109.786 117.34 109.678C118.429 109.571 128.116 106.771 131.327 105.532C134.538 104.294 140.198 101.763 142.158 100.794C144.117 99.8246 144.661 99.5016 144.661 99.5016C144.661 99.5016 143.409 100.578 141.994 101.278Z" fill="#FFC327"/>
<path opacity="0.75" d="M153.859 67.2482C149.832 63.5868 148.363 62.5637 147.818 62.2406C147.274 61.9175 144.607 60.4099 144.117 60.1407C143.682 59.8714 141.396 58.6868 141.396 58.6868C141.396 58.6868 136.498 56.6946 135.682 56.3715C134.92 56.0484 128.661 53.9484 124.035 53.1946C119.409 52.4408 116.361 51.9023 114.347 51.9023C112.334 51.9023 111.572 51.7408 110.538 51.7408C109.504 51.7408 96.4962 52.6562 93.5028 53.1946C90.5095 53.7331 85.1759 54.6484 83.9786 54.9177C82.7268 55.1869 76.468 57.4484 75.3795 57.8791C74.3454 58.3099 69.2296 61.7022 68.7397 62.0252C68.1955 62.3483 66.1818 64.6098 65.692 65.4175C65.1477 66.1713 64.5491 67.7328 64.3858 68.7021C64.2225 69.6713 64.0593 74.4097 64.3858 75.8096C64.8212 77.4788 64.5491 78.5558 64.93 79.0942C65.2566 79.6327 65.8008 79.4173 66.1818 79.9557C66.5083 80.4942 66.8893 80.6557 67.2159 79.9557C67.5424 79.2557 68.7942 78.3942 68.7942 77.5327C68.7942 76.6712 68.9574 74.0866 68.9574 74.0866C68.9574 74.0866 69.665 70.102 71.5698 69.079C73.4747 68.0559 87.2984 64.2329 89.421 63.5329C91.5435 62.8329 104.116 60.9483 107.109 60.9483C112.007 60.9483 121.096 61.6483 129.532 63.6944C134.267 64.879 145.043 69.779 147.818 71.8251C150.594 73.9251 154.567 77.9096 155.438 80.3326C156.308 82.7557 157.343 86.9018 157.016 89.8633C156.689 92.8248 157.016 93.5247 157.887 91.4248C158.758 89.3248 160.009 84.3172 160.009 81.3557C160.009 78.2865 157.887 70.8559 153.859 67.2482ZM133.341 57.7715C131.763 57.1792 127.137 56.0484 126.43 55.8869C125.722 55.7253 122.729 55.1869 121.368 54.9177C119.953 54.6484 117.341 54.3254 115.327 54.2177C113.313 54.11 111.136 53.9484 109.885 53.9484C108.633 53.9484 106.891 53.7869 106.401 53.7869C105.857 53.7869 107.109 53.6792 107.272 53.6254C107.762 53.41 111.408 53.4638 111.844 53.4638C112.279 53.4638 117.341 54.0023 117.994 54.0023C118.592 54.0023 124.906 55.0253 124.906 55.0253C126.321 55.133 133.668 57.4484 134.43 57.7715C135.137 58.1484 134.92 58.4176 133.341 57.7715ZM140.036 60.733C140.036 60.733 139.546 60.356 139.219 60.1945C138.893 59.9791 138.403 59.8176 138.022 59.6022C137.641 59.3868 137.097 59.0099 137.097 59.0099C137.369 59.1176 139.002 59.7099 139.383 59.9791C139.709 60.1945 140.58 60.8406 140.036 60.733Z" fill="#FFC327"/>
</g>
<defs>
<clipPath id="clip0_920_9062">
<rect width="37.8425" height="12.2988" fill="white" transform="translate(165.562 52.1176) rotate(-25.7586)"/>
</clipPath>
<clipPath id="clip1_920_9062">
<rect width="37.8425" height="12.2988" fill="white" transform="translate(125.826 35.563) rotate(-63.7813)"/>
</clipPath>
<clipPath id="clip2_920_9062">
<rect width="37.8425" height="12.2988" fill="white" transform="translate(85.0117 39.1861) rotate(-98.0024)"/>
</clipPath>
<clipPath id="clip3_920_9062">
<rect width="37.8425" height="12.2988" fill="white" transform="translate(48.2363 58.6557) rotate(-132.433)"/>
</clipPath>
<clipPath id="clip4_920_9062">
<rect width="37.8425" height="12.2988" fill="white" transform="translate(36.6367 99.6266) rotate(-165.501)"/>
</clipPath>
<clipPath id="clip5_920_9062">
<rect width="37.8425" height="12.2988" fill="white" transform="translate(58.9023 129.022) rotate(145.18)"/>
</clipPath>
<clipPath id="clip6_920_9062">
<rect width="37.8425" height="12.2988" fill="white" transform="translate(88.6074 135.348) rotate(109.589)"/>
</clipPath>
<clipPath id="clip7_920_9062">
<rect width="37.8425" height="12.2988" fill="white" transform="translate(127.217 127.493) rotate(76.4748)"/>
</clipPath>
<clipPath id="clip8_920_9062">
<rect width="37.8425" height="12.2988" fill="white" transform="translate(161.145 116.522) rotate(59.178)"/>
</clipPath>
<clipPath id="clip9_920_9062">
<rect width="37.8425" height="12.2988" fill="white" transform="translate(178.1 85.8134) rotate(28.7535)"/>
</clipPath>
<clipPath id="clip10_920_9062">
<rect width="105.638" height="73.0143" fill="white" transform="translate(54.3711 47.1101)"/>
</clipPath>
</defs>
</svg>
