<svg width="215" height="56" viewBox="0 0 215 56" fill="none" xmlns="http://www.w3.org/2000/svg">
<path d="M212.76 51.6231C211.867 49.9766 207.813 48.6089 205.303 47.3915C190.543 40.3874 175.175 35.1197 159.7 30.0478C138.009 22.9657 115.853 17.63 93.5714 12.7767C80.8357 10.0141 23.8688 1.77074 10.9139 0.356604C7.39087 -0.00833716 3.88239 -0.092721 0.34447 0.252846C0.40037 1.16314 0.263228 2.17852 0.533172 2.30752C1.64712 2.81742 2.86369 3.3091 4.08161 3.41121C20.9713 4.72776 81.7739 13.7052 98.2816 17.638C103.036 18.7752 107.86 19.5106 112.62 20.6821C122.731 23.168 132.863 25.5791 142.898 28.4324C151.964 30.9977 160.954 33.9304 169.9 37.0126C184.008 41.938 198.113 47.0411 211.415 53.9856C213.903 55.2778 214.569 56.0443 214.69 55.138C214.811 54.2316 213.618 53.2756 212.76 51.6231Z" fill="#B9ACEB"/>
</svg>
