<svg width="307" height="231" viewBox="0 0 307 231" fill="none" xmlns="http://www.w3.org/2000/svg">
<path opacity="0.75" d="M161.799 28.768C163.623 29.0235 165.746 29.9053 165.093 30.239C164.48 30.7377 165.494 31.8894 166.232 33.1085C166.969 34.3276 165.382 33.8397 165.663 34.995C165.944 36.1502 166.56 36.8742 165.988 37.538C165.415 38.2017 165.992 38.7607 166.233 39.7509C166.514 40.9062 164.887 40.2532 164.555 41.9072C164.3 42.6685 164.876 43.2275 165.672 44.0828C166.329 44.9718 166.252 45.8645 164.964 46.003C163.677 46.1414 162.313 47.1726 160.234 47.6784C158.154 48.1843 143.579 51.0316 139.916 52.2722C136.254 53.5129 129.824 56.6508 128.241 57.3855C126.559 58.3191 109.468 67.7219 99.2261 75.1084C88.9845 82.4949 73.5133 96.7477 67.5725 104.311C61.6316 111.875 48.9481 130.344 44.3829 140.545C39.8579 150.911 35.6426 158.929 34.6813 168.253C33.7601 177.742 33.5915 193.341 35.212 198.191C35.212 198.191 34.041 197.601 32.2637 193.314C30.4865 189.027 26.5188 175.133 25.7184 166.413C24.9399 158.386 26.8043 140.102 33.7362 126.354C40.6681 112.606 47.0274 99.5211 57.6693 87.1425C68.3112 74.764 74.3324 67.5303 87.955 57.7479C101.537 47.8004 103.675 46.9308 104.623 46.0008C105.571 45.0709 106.086 44.7709 107.195 44.5011C108.303 44.2313 108.796 43.2375 109.686 42.6714C110.616 42.2703 121.514 35.7728 133.868 32.2424C146.361 28.6783 157.239 28.1294 161.799 28.768Z" fill="#FBB624" fill-opacity="0.59"/>
<path opacity="0.75" d="M246.748 76.7986C246.748 76.7986 238.408 90.1903 233 96.9253C227.73 103.627 210.922 127.469 188.585 138.848C166.248 150.226 148.178 157.419 117.48 162.791C86.781 168.163 70.8903 162.589 64.4328 157.168C57.9753 151.747 49.4296 137.744 47.1485 130.782C47.1485 130.782 49.822 149.011 51.0085 154.491C52.2352 160.136 56.4477 176.242 70.4017 183.51C84.2171 190.812 107.005 190.337 125.443 187.075C143.882 183.812 172.133 175.015 185.621 166.489C199.108 157.963 220.044 142.031 224.982 136.984C229.88 131.772 231.853 129.019 231.2 129.353C230.547 129.687 226.441 134.532 225.492 135.462C224.544 136.391 217.965 142.537 215.514 144.532C213.438 146.261 210.827 147.595 210.313 147.895C211.104 147.528 215.907 143.737 217.607 142.275C219.266 140.647 221.597 138.157 222.071 137.692C222.545 137.227 222.523 136.534 223.176 136.2C223.829 135.866 224.106 135.799 224.442 135.368C224.737 134.771 226.181 134.07 226.754 133.406C227.327 132.743 227.483 132.18 227.68 131.783C227.877 131.385 228.49 130.886 228.647 130.324C228.942 129.728 229.04 129.529 229.693 129.195C230.386 129.027 231.138 128.494 231.295 127.932C231.451 127.369 231.925 126.904 232.203 126.837C232.48 126.769 233.589 126.499 233.884 125.903C234.081 125.505 239.628 118.737 241.324 116.052C243.158 113.333 244.143 111.345 244.438 110.749C244.733 110.153 244.711 109.459 244.989 109.391C245.364 109.125 245.561 108.728 245.521 108.563C245.441 108.232 245.597 107.67 245.973 107.404C246.349 107.137 246.801 105.979 247.486 103.365C248.31 100.717 248.507 100.319 248.528 94.3708C248.589 88.5873 248.182 79.0718 246.748 76.7986ZM228.187 110.333C227.753 110.963 227.279 111.428 226.845 112.058C223.687 115.973 215.711 125.43 209.306 130.485C200.925 137.069 188.568 146.019 184.552 148.22C180.536 150.42 179.982 150.555 179.07 150.428C178.158 150.3 178.515 150.562 176.615 151.2C174.715 151.837 172.877 153.333 172.085 153.7C171.294 154.068 163.16 157.445 153.993 160.2C144.688 162.988 129.755 165.573 129.755 165.573C129.755 165.573 153.399 160.17 163.531 155.956C173.803 151.709 177.443 149.775 179.124 148.841C180.806 147.908 192.857 142.528 203.904 133.023C214.003 124.447 221.929 117.799 226.706 112.092C227.713 110.798 228.286 110.134 228.187 110.333Z" fill="#FBB624" fill-opacity="0.59"/>
<path opacity="0.75" d="M281.164 63.1807C279.887 60.3449 278.347 55.825 275.581 52.3025C272.816 48.7801 263.377 40.7628 257.464 38.1811C251.55 35.5993 238.52 32.1271 228.131 30.4595C217.643 28.9906 211.482 29.6156 208.134 29.7312C204.785 29.8467 200.703 29.9658 198.642 29.9428C196.621 30.0849 184.974 31.6951 180.834 32.178C176.833 32.6272 170.296 33.5184 167.01 34.4929C163.862 35.4336 151.861 38.0039 149.88 38.311C147.9 38.6181 142.691 39.5358 139.959 40.3754C137.227 41.2149 132.299 43.2879 129.607 44.2925C126.915 45.2971 112.584 50.3573 108.926 52.8207C105.406 55.2503 103.644 55.8538 101.467 56.5584C99.4279 57.2293 97.7102 59.2205 97.1557 59.3554C96.6013 59.4903 87.067 64.9567 84.2586 66.6888C81.4501 68.421 72.4197 76.5617 67.2846 82.0065C62.1094 87.2863 57.2153 93.7213 54.3964 98.4277C51.5776 103.134 49.4077 106.284 47.7715 115.248C46.2338 124.013 46.6689 130.025 47.7207 136.762C48.7725 143.498 49.5691 150.996 51.3321 157.035C53.095 163.074 55.1896 167.459 56.0252 168.479C56.0252 168.479 52.0072 138.69 66.722 117.105C81.2982 95.5532 110.787 77.3653 151.545 63.2532C192.302 49.141 238.983 53.3408 249.836 57.5177C249.836 57.5177 250.588 56.9853 247.097 55.9118C243.467 54.8721 238.907 54.2335 238.907 54.2335C238.907 54.2335 241.997 53.6566 249.435 55.8674C256.873 58.0781 261.637 60.7647 265.271 63.0271C268.726 65.1582 272.918 68.5085 275.33 72.9911C277.702 77.3086 280.358 84.0041 281.643 89.2853C282.928 94.5665 282.94 98.2346 283.155 97.3083C283.37 96.3819 284.452 87.5531 283.91 79.2941C283.23 71.0687 282.442 66.0164 281.164 63.1807ZM225.593 36.3212C220.497 35.2886 216.773 35.6703 215.168 35.7113C213.563 35.7522 212.789 35.5907 211.224 35.7966C209.66 36.0026 211.341 35.069 209.597 35.1437C207.854 35.2183 205.636 35.7579 202.922 36.0686C200.208 36.3793 197.709 35.7636 194.521 36.5393C191.472 37.2813 185.606 37.31 181.824 38.0555C178.041 38.8011 174.12 39.5803 171.03 40.1572C167.941 40.7342 165.424 40.6473 162.513 41.3556C159.741 42.0301 155.918 42.6106 158.57 41.4409C159.876 40.7736 165.103 39.327 167.736 38.6863C170.231 38.0792 176.035 37.1916 178.154 36.8507C180.273 36.5099 205.905 33.245 210.108 33.621C214.31 33.997 228.62 34.8853 234.588 35.8806C240.418 36.9096 244.704 38.8383 244.704 38.8383C244.704 38.8383 230.689 37.3537 225.593 36.3212Z" fill="#FBB624" fill-opacity="0.59"/>
<path opacity="0.75" d="M280.345 61.6314C279.827 60.7086 276.997 80.4514 274.539 86.6432C272.082 92.8349 260.069 110.442 252.997 117.581C245.926 124.721 222.915 142.381 220.8 143.945C218.823 145.475 217.178 145.351 215.814 146.382C214.45 147.413 215.711 145.358 213.931 146.49C212.152 147.622 198.306 155.886 195.457 157.453C192.609 159.02 182.064 164.557 178.107 166.394C174.149 168.231 144.462 180.174 132.998 183.139C121.395 186.136 100.778 190.104 92.7753 191.002C84.7723 191.901 73.9531 192.086 65.8879 192.125C57.8227 192.165 50.3806 188.731 45.7366 186.54C41.1327 184.513 38.1883 180.86 35.5613 177.303C33.113 173.879 27.3732 163.563 25.8071 157.126C25.8071 157.126 24.5388 163.379 26.4922 173.217C28.4455 183.055 33.4935 200.182 41.0418 205.862C48.59 211.542 63.7294 217.648 82.5698 216.036C101.272 214.457 121.669 210.193 124.996 209.384C128.322 208.574 138.539 205.914 140.618 205.408C142.698 204.902 144.043 204.4 145.667 203.83C147.29 203.26 146.91 202.304 146.079 202.506C145.247 202.708 145.564 202.806 144.357 203.275C143.15 203.743 142.676 204.208 141.902 204.047C141.129 203.885 140.713 203.986 139.921 204.354C139.13 204.721 138.674 204.657 137.565 204.927C136.456 205.197 136.733 205.129 135.526 205.598C134.319 206.067 133.662 205.178 133.662 205.178C133.662 205.178 134.552 204.611 135.661 204.342C136.77 204.072 142.314 202.723 143.383 202.288C144.313 201.887 145.699 201.55 146.709 201.478C147.72 201.407 148.789 200.973 149.62 200.77C150.452 200.568 150.032 199.446 150.864 199.244C151.695 199.042 151.36 199.473 152.469 199.203C153.578 198.933 154.843 198.101 155.814 197.865C156.784 197.629 157.768 195.641 159.155 195.304C160.541 194.967 161.252 194.269 161.73 195.027C162.208 195.785 162.583 195.518 162.463 195.023C162.343 194.528 162.061 193.373 162.992 192.972C163.922 192.571 165.031 192.301 166.198 191.667C167.365 191.034 170.115 189.665 171.085 189.429C172.056 189.193 173.008 189.486 173.008 189.486C173.008 189.486 169.761 190.625 168.456 191.293C167.15 191.96 165.231 193.126 166.34 192.856C167.449 192.587 168.835 192.249 169.667 192.047C170.498 191.845 170.856 192.107 171.885 191.507C172.913 190.907 173.208 190.311 174.554 189.809C175.9 189.307 176.057 188.744 177.443 188.407C178.829 188.07 179.384 187.935 179.938 187.8C180.493 187.665 181.977 187.129 182.907 186.728C183.837 186.327 183.775 185.468 184.705 185.067C185.635 184.665 188.466 183.627 189.396 183.226C190.326 182.825 191.73 181.959 192.62 181.393C193.51 180.827 195.053 179.927 196.122 179.492C197.19 179.057 196.895 179.653 198.42 179.282C199.944 178.911 200.521 179.47 202.596 177.742C204.671 176.013 204.215 175.949 205.302 174.986C206.389 174.022 208.724 172.755 210.307 172.02C211.89 171.285 212.462 170.621 213.294 170.419C214.125 170.217 214.68 170.082 214.381 169.455C214.081 168.829 214.752 167.967 215.329 168.525C215.905 169.084 216.835 168.683 216.835 168.683C218.2 167.652 219.622 166.257 220.454 166.055C221.285 165.853 221.759 165.388 223.262 164.323C224.765 163.258 224.765 163.258 225.695 162.857C226.625 162.456 226.045 160.674 227.212 160.04C228.379 159.407 230.615 158.338 231.84 157.341C233.066 156.344 234.076 156.273 235.302 155.275C236.527 154.278 236.589 155.137 233.267 157.169C229.944 159.201 229.966 159.895 231.173 159.426C232.38 158.958 233.763 157.398 235.583 156.43C237.403 155.463 237.877 154.998 238.311 154.368C238.745 153.738 238.03 153.213 239.157 152.414C240.284 151.616 242.22 149.921 243.347 149.122C244.474 148.323 246.612 147.454 247.56 146.524C248.508 145.594 249.953 144.893 250.762 143.997C251.572 143.1 252.757 141.938 252.203 142.073C251.649 142.208 250.088 143.636 248.723 144.668C247.359 145.699 246.21 145.803 246.21 145.803C246.21 145.803 247.633 144.408 249.037 143.542C250.441 142.676 250.696 141.915 251.823 141.116C252.95 140.318 253.581 139.29 253.165 139.391C252.75 139.493 250.751 140.328 251.699 139.399C252.647 138.469 253.913 137.636 255.375 136.406C256.838 135.176 258.257 132.559 258.257 132.559C258.257 132.559 258.735 133.317 258.005 134.543C257.276 135.769 256.743 136.598 258.009 135.766C259.275 134.933 258.702 135.597 259.986 134.236C261.27 132.875 263.305 130.981 265.063 129.155C266.821 127.329 267.236 127.227 267.867 126.2C268.498 125.172 268.856 125.435 268.498 125.172C268.141 124.91 267.506 124.714 267.506 124.714C268.83 123.518 269.005 122.427 269.993 121.662C270.981 120.897 272.002 117.852 272.91 116.757C273.818 115.662 275.478 114.034 275.97 113.041C276.462 112.047 276.995 111.218 277.823 109.793C278.65 108.368 279.828 104.76 280.28 103.601C280.732 102.442 281.202 100.755 281.337 99.4982C281.472 98.2417 282.511 94.6676 282.733 89.5442C284.3 83.9186 283.79 66.7368 280.345 61.6314ZM246.62 131.195C241.324 135.979 233.913 142.328 232.173 143.625C230.572 144.889 223.668 148.491 220.743 150.951C217.777 153.246 208.914 157.85 205.869 159.814C202.823 161.779 184.108 171.752 177.933 174.128C171.758 176.505 154.341 183.365 150.876 184.208C147.549 185.017 145.014 185.459 143.807 185.928C142.599 186.396 140.779 187.363 138.977 187.802C137.175 188.24 136.603 188.904 135.217 189.241C133.692 189.612 132.583 189.882 131.058 190.253C129.534 190.624 88.1843 199.286 80.5894 197.638C79.36 197.413 105.587 194.178 107.706 193.837C109.825 193.496 126.838 190.406 132.003 188.1C137.208 185.96 152.634 182.382 156.117 181.01C159.739 179.604 183.604 169.077 186.198 168.271C188.791 167.466 199.806 160.241 203.545 158.107C207.145 156.008 221.884 148.401 226.414 145.9C230.944 143.4 236.969 137.389 241.061 134.295C245.015 131.236 258.389 118.018 260.916 115.13C261.193 115.063 252.014 126.211 246.62 131.195Z" fill="#FBB624" fill-opacity="0.59"/>
</svg>
