<svg width="140" height="112" viewBox="0 0 140 112" fill="none" xmlns="http://www.w3.org/2000/svg">
<g clip-path="url(#clip0_920_8706)">
<path d="M123.579 11.1632C120.126 7.72107 116.027 4.99515 111.517 3.14212C107.008 1.2891 102.176 0.345496 97.3009 0.365547C89.3546 0.335427 81.6092 2.86119 75.2083 7.56994C68.7994 2.86481 61.0484 0.34338 53.0979 0.377388C48.2167 0.349894 43.3787 1.29116 38.8639 3.14666C34.3491 5.00216 30.2474 7.73501 26.7962 11.1869C12.3993 25.6727 12.3993 49.2512 26.8081 63.7488L62.6465 99.5931C65.9912 102.932 70.4488 104.773 75.2024 104.773C79.9559 104.773 84.4195 102.932 87.7642 99.5931L123.597 63.7488C127.045 60.2998 129.775 56.2006 131.628 51.6887C133.48 47.1769 134.419 42.3422 134.388 37.4649C134.418 32.5835 133.477 27.745 131.621 23.23C129.766 18.715 127.032 14.6134 123.579 11.1632Z" fill="#FA9595"/>
<path opacity="0.75" d="M72.4735 9.91223C73.4565 10.0268 74.6081 10.4742 74.2615 10.6615C73.9385 10.937 74.4977 11.5431 74.9088 12.1889C75.3199 12.8347 74.4614 12.5923 74.6268 13.2094C74.7921 13.8265 75.1323 14.2078 74.833 14.5715C74.5337 14.9352 74.8503 15.2283 74.992 15.7573C75.1574 16.3744 74.2752 16.0438 74.1176 16.9365C73.99 17.3486 74.3066 17.6417 74.7445 18.0913C75.1083 18.5608 75.0784 19.0413 74.3884 19.1317C73.6983 19.2221 72.9784 19.793 71.8677 20.0905C70.7571 20.3881 62.9621 22.0988 61.0102 22.8108C59.0583 23.5228 55.6428 25.2884 54.8015 25.7028C53.9098 26.2252 44.8448 31.4889 39.4348 35.5842C34.0247 39.6796 25.8905 47.5286 22.793 51.6657C19.6955 55.8029 13.1113 65.8823 10.7856 71.4189C8.48352 77.0438 6.31862 81.4034 5.91805 86.4243C5.5411 91.5333 5.64436 99.9153 6.57516 102.501C6.57516 102.501 5.93875 102.199 4.93072 99.9175C3.9227 97.6364 1.61861 90.2221 1.08024 85.5473C0.56232 81.245 1.33666 71.3995 4.88971 63.9276C8.44275 56.4558 11.6965 49.3476 17.2596 42.5655C22.8227 35.7834 25.9674 31.8225 33.1641 26.3981C40.3371 20.8854 41.4746 20.3917 41.9724 19.8803C42.4703 19.3689 42.7428 19.2014 43.3352 19.0427C43.9275 18.884 44.1796 18.344 44.6507 18.0288C45.1453 17.8017 50.9193 14.1758 57.5123 12.1258C64.1793 10.0559 70.016 9.62582 72.4735 9.91223Z" fill="#FA9595" fill-opacity="0.43"/>
<path opacity="0.75" d="M118.703 34.6591C118.703 34.6591 114.389 41.9569 111.567 45.6422C108.819 49.3076 100.086 62.3251 88.228 68.7152C76.3698 75.1053 66.7519 79.1942 50.3271 82.4613C33.9022 85.7285 25.2964 82.9319 21.76 80.0999C18.2235 77.2679 13.4588 69.8515 12.1468 66.1399C12.1468 66.1399 13.8095 75.8993 14.515 78.8285C15.2442 81.8458 17.7073 90.4459 25.2938 94.177C32.8063 97.9279 45.0421 97.3896 54.9071 95.4077C64.7721 93.4258 79.8391 88.3492 86.979 83.6014C94.1189 78.8535 105.168 70.0347 107.758 67.2619C110.324 64.4009 111.35 62.8977 111.003 63.085C110.657 63.2724 108.511 65.9262 108.013 66.4375C107.515 66.9489 104.057 70.3323 102.765 71.4343C101.672 72.3887 100.285 73.1382 100.013 73.3057C100.433 73.0985 102.967 71.0023 103.862 70.1956C104.733 69.3007 105.954 67.9342 106.203 67.6785C106.452 67.4228 106.431 67.0503 106.778 66.863C107.124 66.6756 107.272 66.6359 107.447 66.4001C107.599 66.0761 108.366 65.6815 108.665 65.3178C108.965 64.9542 109.042 64.65 109.143 64.434C109.243 64.218 109.566 63.9425 109.644 63.6383C109.795 63.3143 109.845 63.2063 110.192 63.019C110.562 62.9198 110.959 62.6244 111.036 62.3202C111.114 62.0161 111.363 61.7604 111.511 61.7207C111.659 61.681 112.251 61.5223 112.402 61.1983C112.503 60.9823 115.399 57.2772 116.277 55.8137C117.228 54.3303 117.732 53.2503 117.884 52.9263C118.035 52.6023 118.014 52.2298 118.163 52.1901C118.361 52.0424 118.462 51.8264 118.438 51.7383C118.391 51.5619 118.468 51.2578 118.667 51.1101C118.865 50.9624 119.094 50.3343 119.429 48.9215C119.839 47.4888 119.94 47.2728 119.877 44.0769C119.838 40.9692 119.501 35.8625 118.703 34.6591ZM109.148 52.9046C108.923 53.2485 108.674 53.5042 108.449 53.848C106.801 55.9904 102.634 61.1701 99.2558 63.965C94.8351 67.6063 88.308 72.5679 86.178 73.8C84.048 75.0322 83.7518 75.1115 83.2603 75.0543C82.7688 74.997 82.9642 75.1336 81.9512 75.4995C80.9382 75.8655 79.9693 76.692 79.5487 76.8992C79.128 77.1064 74.8004 79.0219 69.9104 80.6157C64.9463 82.2293 56.956 83.8033 56.956 83.8033C56.956 83.8033 69.5906 80.6069 74.9816 78.2174C80.4467 75.8082 82.3782 74.7237 83.2699 74.2013C84.1616 73.6789 90.5687 70.6392 96.3854 65.3955C101.704 60.6632 105.879 56.9933 108.375 53.8678C108.899 53.1603 109.199 52.7966 109.148 52.9046Z" fill="#FA9595" fill-opacity="0.43"/>
<path opacity="0.75" d="M137.025 26.9157C136.304 25.4082 135.42 22.9992 133.89 21.1412C132.361 19.2833 127.191 15.0936 123.982 13.7802C120.773 12.4667 113.73 10.7633 108.128 9.99653C102.476 9.33778 99.174 9.75008 97.3765 9.85375C95.579 9.95743 93.3877 10.0721 92.2802 10.0854C91.1964 10.1868 84.9595 11.1966 82.7414 11.5074C80.5973 11.7985 77.0968 12.3585 75.3434 12.9228C73.6641 13.4673 67.2491 14.9972 66.1889 15.1868C65.1287 15.3763 62.3418 15.9341 60.8846 16.4191C59.4274 16.904 56.8059 18.0789 55.3723 18.652C53.9387 19.2251 46.3027 22.1216 44.3681 23.4904C42.5075 24.8393 41.5685 25.1854 40.4075 25.591C39.3204 25.9768 38.4224 27.0678 38.1262 27.1472C37.8301 27.2265 32.7761 30.2816 31.2889 31.247C29.8017 32.2124 25.0516 36.6979 22.3607 39.6867C19.6461 42.5873 17.0969 46.1051 15.641 48.6685C14.1852 51.2319 13.0587 52.9511 12.2911 57.7868C11.5739 62.5145 11.8824 65.739 12.5311 69.3448C13.1798 72.9506 13.7009 76.9685 14.723 80.1908C15.7452 83.4131 16.9249 85.7427 17.3864 86.2805C17.3864 86.2805 14.8578 70.3277 22.4945 58.5489C30.0572 46.79 45.6729 36.6529 67.3929 28.5653C89.1129 20.4776 114.243 22.1538 120.125 24.2628C120.125 24.2628 120.522 23.9674 118.633 23.4341C116.67 22.9207 114.213 22.6343 114.213 22.6343C114.213 22.6343 115.865 22.2859 119.889 23.3812C123.912 24.4764 126.505 25.8604 128.485 27.0307C130.367 28.1326 132.661 29.8803 134.012 32.2584C135.34 34.5484 136.851 38.1123 137.607 40.9334C138.363 43.7545 138.414 45.725 138.518 45.2246C138.622 44.7243 139.094 39.968 138.7 35.5378C138.233 31.1276 137.746 28.4232 137.025 26.9157ZM106.838 13.177C104.087 12.6857 102.091 12.937 101.23 12.9789C100.368 13.0208 99.9503 12.9437 99.1122 13.0738C98.2742 13.2039 99.1658 12.6815 98.2301 12.7432C97.2943 12.805 96.1096 13.1224 94.6556 13.323C93.2015 13.5237 91.8515 13.224 90.1485 13.6803C88.5195 14.1168 85.3688 14.2051 83.346 14.6526C81.3233 15.1001 79.2264 15.5675 77.5739 15.9158C75.9213 16.2641 74.5681 16.2487 73.0132 16.6654C71.5323 17.0622 69.4859 17.4215 70.8959 16.7602C71.5891 16.3855 74.3791 15.5434 75.7859 15.1665C77.1187 14.8094 80.2253 14.2604 81.3596 14.051C82.4938 13.8415 96.2232 11.7691 98.4854 11.9189C100.748 12.0687 108.446 12.3681 111.665 12.8286C114.809 13.3089 117.136 14.2918 117.136 14.2918C117.136 14.2918 109.588 13.6684 106.838 13.177Z" fill="#FA9595" fill-opacity="0.43"/>
<path opacity="0.75" d="M136.566 26.0937C136.276 25.6044 135 36.2456 133.757 39.6024C132.514 42.9592 126.279 52.567 122.569 56.4903C118.859 60.4137 106.717 70.187 105.6 71.0532C104.557 71.8996 103.671 71.8534 102.952 72.4243C102.232 72.9952 102.884 71.8755 101.942 72.5059C101 73.1363 93.6644 77.7475 92.1536 78.6247C90.6427 79.502 85.0468 82.6078 82.9436 83.6438C80.8405 84.6798 65.0407 91.4645 58.9188 93.1994C52.7228 94.9541 41.6967 97.3416 37.4086 97.9236C33.1205 98.5057 27.3106 98.7396 22.9784 98.861C18.6461 98.9824 14.6055 97.2304 12.0835 96.1109C9.58508 95.0795 7.95792 93.1532 6.50246 91.2754C5.14466 89.466 1.933 83.9957 1.01172 80.5574C1.01172 80.5574 0.408074 83.9318 1.57968 89.1928C2.75128 94.4538 5.67592 103.592 9.80149 106.549C13.9271 109.507 22.1359 112.599 32.2371 111.499C42.2643 110.418 53.1691 107.874 54.9461 107.398C56.7232 106.922 62.1787 105.366 63.2894 105.068C64.4 104.77 65.1168 104.484 65.9817 104.158C66.8466 103.831 66.6308 103.322 66.1866 103.441C65.7423 103.56 65.914 103.609 65.2712 103.876C64.6285 104.142 64.3796 104.398 63.9621 104.321C63.5446 104.244 63.3225 104.303 62.9019 104.51C62.4812 104.718 62.2355 104.689 61.6431 104.848C61.0508 105.006 61.1989 104.967 60.5561 105.233C59.9133 105.5 59.5495 105.031 59.5495 105.031C59.5495 105.031 60.0205 104.715 60.6129 104.557C61.2052 104.398 64.1669 103.604 64.7357 103.358C65.2303 103.131 65.9708 102.932 66.5127 102.881C67.0546 102.831 67.6233 102.584 68.0676 102.465C68.5119 102.346 68.2725 101.748 68.7167 101.629C69.161 101.51 68.9861 101.746 69.5784 101.588C70.1708 101.429 70.8403 100.966 71.3586 100.827C71.8769 100.688 72.3812 99.6082 73.1216 99.4098C73.862 99.2114 74.2354 98.8278 74.5016 99.229C74.7678 99.6301 74.9663 99.4824 74.8954 99.2179C74.8246 98.9534 74.6592 98.3363 75.1539 98.1093C75.6486 97.8822 76.2409 97.7235 76.8601 97.3686C77.4792 97.0138 78.9396 96.2445 79.4579 96.1056C79.9762 95.9667 80.4913 96.1122 80.4913 96.1122C80.4913 96.1122 78.7615 96.7646 78.0684 97.1394C77.3752 97.5141 76.359 98.1643 76.9514 98.0056C77.5437 97.8469 78.2841 97.6485 78.7284 97.5295C79.1727 97.4104 79.368 97.5471 79.9131 97.212C80.4582 96.877 80.6094 96.553 81.3263 96.2664C82.0431 95.9799 82.1203 95.6757 82.8607 95.4773C83.6011 95.2789 83.8973 95.1995 84.1935 95.1202C84.4897 95.0408 85.2805 94.7344 85.7752 94.5074C86.2699 94.2804 86.2258 93.8197 86.7205 93.5927C87.2152 93.3656 88.7228 92.7727 89.2175 92.5456C89.7122 92.3186 90.4558 91.8359 90.9268 91.5207C91.3979 91.2055 92.2155 90.7029 92.7842 90.456C93.353 90.2092 93.2017 90.5332 94.0162 90.3149C94.8307 90.0967 95.1473 90.3898 96.2406 89.4354C97.334 88.481 97.0883 88.4524 97.6602 87.9212C98.2321 87.39 99.4703 86.6802 100.312 86.2658C101.153 85.8514 101.452 85.4877 101.896 85.3687C102.341 85.2496 102.637 85.1703 102.468 84.8375C102.3 84.5047 102.65 84.033 102.966 84.3261C103.283 84.6192 103.778 84.3922 103.778 84.3922C104.498 83.8213 105.244 83.0543 105.689 82.9352C106.133 82.8162 106.382 82.5605 107.176 81.9698C107.97 81.3791 107.97 81.3791 108.464 81.152C108.959 80.925 108.625 79.9751 109.244 79.6202C109.864 79.2653 111.051 78.6636 111.697 78.1125C112.343 77.5615 112.885 77.5108 113.531 76.9597C114.177 76.4087 114.221 76.8693 112.461 78.0023C110.702 79.1352 110.722 79.5077 111.365 79.241C112.008 78.9743 112.731 78.1191 113.697 77.5768C114.662 77.0346 114.911 76.7789 115.136 76.4351C115.362 76.0912 114.971 75.818 115.567 75.3749C116.162 74.9319 117.181 73.9973 117.777 73.5543C118.373 73.1112 119.51 72.6175 120.008 72.1061C120.506 71.5948 121.273 71.2002 121.697 70.7087C122.121 70.2172 122.743 69.578 122.447 69.6573C122.15 69.7367 121.33 70.5236 120.61 71.0944C119.89 71.6653 119.274 71.7359 119.274 71.7359C119.274 71.7359 120.021 70.9688 120.764 70.4861C121.508 70.0034 121.635 69.5912 122.231 69.1482C122.826 68.7051 123.153 68.1453 122.93 68.2048C122.708 68.2643 121.645 68.7383 122.143 68.2269C122.641 67.7155 123.31 67.2527 124.081 66.5738C124.851 65.8949 125.58 64.4711 125.58 64.4711C125.58 64.4711 125.847 64.8722 125.47 65.54C125.094 66.2079 124.818 66.6597 125.487 66.1968C126.157 65.7339 125.858 66.0976 126.53 65.3504C127.203 64.6032 128.273 63.5607 129.194 62.5578C130.116 61.5549 130.338 61.4954 130.664 60.9355C130.991 60.3757 131.186 60.5123 130.991 60.3757C130.795 60.239 130.452 60.1421 130.452 60.1421C131.148 59.483 131.229 58.8946 131.75 58.4714C132.272 58.0482 132.782 56.3995 133.256 55.8C133.731 55.2005 134.602 54.3056 134.854 53.7656C135.106 53.2256 135.382 52.7737 135.809 51.9979C136.236 51.222 136.823 49.2692 137.052 48.6411C137.28 48.0129 137.512 47.1004 137.569 46.4238C137.626 45.7471 138.139 43.8142 138.195 41.0591C138.967 38.0175 138.479 28.7936 136.566 26.0937ZM119.312 63.8829C116.527 66.519 112.624 70.0214 111.706 70.74C110.861 71.4387 107.197 73.46 105.656 74.8177C104.092 76.0873 99.3875 78.6707 97.7759 79.764C96.1642 80.8573 86.2343 86.4472 82.9464 87.8006C79.6586 89.154 70.3873 93.0556 68.5362 93.5516C66.7592 94.0278 65.4028 94.2967 64.7601 94.5634C64.1173 94.8302 63.1516 95.3724 62.189 95.6303C61.2264 95.8882 60.9271 96.2519 60.1867 96.4503C59.3722 96.6685 58.7798 96.8273 57.9654 97.0455C57.1509 97.2637 35.0452 102.431 30.9446 101.64C30.2814 101.534 44.3305 99.4706 45.4648 99.2611C46.5991 99.0517 55.7 97.18 58.446 95.8773C61.2155 94.6628 69.4579 92.5487 71.3122 91.7684C73.2405 90.9683 85.9304 85.0168 87.3136 84.5516C88.6968 84.0865 94.5243 80.0683 96.5062 78.8758C98.4141 77.7032 106.238 73.4336 108.64 72.0339C111.043 70.6342 114.205 67.3302 116.365 65.6176C118.451 63.9248 125.471 56.6577 126.793 55.0751C126.941 55.0355 122.148 61.1387 119.312 63.8829Z" fill="#FA9595" fill-opacity="0.43"/>
<path d="M44.5643 60.5094C43.5553 62.5561 42.2004 64.3722 41.0473 66.3325C40.8167 66.7072 41.4797 67.8603 41.941 67.5144C43.3247 66.419 44.3625 64.9488 45.2273 63.3921C48.11 60.5382 51.627 58.405 55.7204 57.569C62.5237 56.1853 69.5576 57.5113 76.3896 57.5978C80.0507 57.6555 83.683 57.2519 86.9981 55.6664C87.1422 55.6087 87.1422 55.3781 87.1711 55.2628C87.2864 49.8144 87.4017 44.3661 87.517 38.8889C87.517 38.3988 86.9981 37.6493 86.4504 37.7069C73.1321 38.8889 59.7851 39.6384 46.438 39.9555C46.0921 39.9555 46.0633 40.4744 46.1498 40.705C47.5046 45.0291 47.7064 49.6703 46.784 54.1097C46.2939 56.3006 45.5444 58.4626 44.5643 60.5094ZM47.7641 41.7428C60.5634 41.3968 73.3628 40.6185 86.1045 39.4654C86.018 44.3949 85.9315 49.2955 85.8738 54.225C79.7624 57.1366 72.5268 55.9546 66.0118 55.6375C62.466 55.4646 58.8914 55.4358 55.4322 56.1853C52.7512 56.7618 50.2144 57.8572 47.9371 59.3851C47.5046 59.6734 47.1011 59.9616 46.6975 60.2787C47.3893 58.6068 47.9082 56.9059 48.2542 55.1475C49.1766 50.7081 49.0325 46.0669 47.7641 41.7428Z" fill="white"/>
<path d="M58.0833 46.9604C66.0108 46.701 73.9671 46.4703 81.8946 46.2109C82.6153 46.1821 81.8658 44.5966 81.2028 44.6254C73.3041 44.9137 65.3766 45.2308 57.4779 45.5479C56.8149 45.5767 57.5067 46.9892 58.0833 46.9604Z" fill="white"/>
<path d="M80.6863 49.065C73.4506 49.6992 66.1861 50.4198 58.9504 51.0829C58.3739 51.1405 58.9793 52.4089 59.527 52.3513C66.8203 51.7747 74.1136 51.2847 81.4069 50.6793C82.1565 50.6505 81.3781 49.0073 80.6863 49.065Z" fill="white"/>
<path d="M52.0593 17.5278C51.9151 17.5278 51.771 17.7008 51.7422 17.8449C51.3674 21.6502 51.1368 25.6283 53.2988 29.0011C54.2213 30.4137 55.5185 31.5956 57.1329 32.1721C58.9202 32.8352 60.8516 32.7775 62.6966 32.6622C67.1071 32.3739 71.5177 32.1721 75.9571 32.201C80.1659 32.2586 84.6342 32.2586 88.6123 33.7865C92.4752 35.2855 94.4066 39.033 96.2227 42.4923C96.3381 42.8094 96.6263 43.213 96.9434 43.2995C96.9723 43.2995 97.0299 43.2995 97.0587 43.2995C97.3758 43.2707 97.4335 42.9824 97.3758 42.6653C95.2714 34.1036 93.167 25.5418 91.0915 16.9801C90.9762 16.5477 90.5726 16 90.0825 16C80.1371 16.3459 70.1917 16.7495 60.2751 17.1531C57.5365 17.2972 54.7979 17.4125 52.0593 17.5278ZM90.0825 17.7296C91.7545 24.5041 93.4553 31.2785 95.1273 38.0529C94.0895 36.4386 92.8211 34.9684 91.3797 33.8153C88.4682 31.4803 84.49 30.8461 80.8578 30.6155C76.7355 30.3272 72.5843 30.356 68.462 30.5001C66.2711 30.5866 64.0803 30.7308 61.8894 30.8749C60.0444 30.9902 58.0554 31.1055 56.3545 30.2695C52.3764 28.3381 52.7799 23.005 53.1259 19.2863C62.956 18.9116 72.7861 18.4503 82.6162 18.0467C85.1242 17.9314 87.6034 17.8161 90.0825 17.7296Z" fill="white"/>
<path d="M62.0326 22.4571C70.1331 22.0823 78.2624 22.1688 86.3629 22.63C87.0259 22.6589 86.334 21.131 85.671 21.1022C77.5994 20.641 69.4989 20.6986 61.4272 21.1599C60.8507 21.1599 61.4849 22.4571 62.0326 22.4571Z" fill="white"/>
<path d="M86.5654 26.8391C85.7582 26.2913 85.0664 26.3202 84.1151 26.2913C83.1061 26.2625 82.126 26.2337 81.117 26.2337C79.0703 26.2049 77.0235 26.2625 74.9768 26.349C70.941 26.522 66.9052 26.9256 62.927 27.4733C62.2928 27.5598 62.9846 28.9146 63.5324 28.8282C67.5105 28.3093 71.4887 27.9922 75.4957 27.848C77.456 27.7904 79.3874 27.7615 81.3477 27.7904C82.3566 27.7904 83.3367 27.8192 84.3457 27.848C85.1529 27.8769 86.2195 28.194 86.8248 27.5021C86.9402 27.3003 86.7095 26.9256 86.5654 26.8391Z" fill="white"/>
<path d="M64.5129 78.1519C66.0408 78.9014 67.7704 78.8438 69.4424 78.6131C71.345 78.3537 73.2188 77.9789 75.1502 77.806C78.9842 77.46 82.9336 77.5754 86.5658 78.8726C89.9675 80.0833 93.0232 82.303 94.7816 85.5029C94.9834 85.8488 95.3005 86.0218 95.56 85.9929C95.7329 86.0218 95.8771 85.9641 95.9347 85.7911C95.9924 85.6758 95.9924 85.474 95.9059 85.2434C94.2627 77.6042 92.9367 69.9361 91.2935 62.2969C91.1782 61.8068 90.717 61.2591 90.1981 61.2303C80.6274 60.9708 71.0567 61.2303 61.4861 60.9996C61.3131 60.9996 61.1689 61.2014 61.1689 61.3167C60.9672 63.0175 60.8518 64.7472 60.823 66.4768C60.7942 67.9182 60.6789 69.3596 60.7077 70.8009C60.7365 73.626 61.832 76.8258 64.5129 78.1519ZM62.2644 68.12C62.2932 66.3327 62.3509 64.5742 62.5527 62.8158C71.7198 63.0464 80.9157 62.8446 90.1116 63.0175C91.4953 69.4749 92.6772 75.9898 94.0321 82.476C90.5728 78.3537 85.2398 76.2493 79.8202 75.9034C76.0727 75.6727 72.4693 76.2493 68.7794 76.797C67.1939 77.0276 65.3489 77.2006 63.9652 76.2493C62.8986 75.4998 62.4374 74.1449 62.2644 72.9053C62.0049 71.3198 62.2356 69.7055 62.2644 68.12Z" fill="white"/>
<path d="M70.9421 68.8983C76.7076 67.8317 82.5019 67.8894 88.3538 68.1488C89.1033 68.1776 88.325 66.5345 87.7484 66.4768C81.9541 65.7273 75.9869 66.3327 70.2791 67.4281C69.616 67.5723 70.3655 69.0136 70.9421 68.8983Z" fill="white"/>
<path d="M86.6827 71.8961C84.463 71.8385 82.2145 72.1556 79.9948 72.3285C77.7751 72.5015 75.5554 72.6168 73.3068 72.761C72.7014 72.7898 73.3356 74.087 73.8834 74.0582C76.1319 73.9429 78.3516 73.7987 80.6001 73.7123C82.8198 73.6258 85.126 73.6834 87.3169 73.3663C88.0664 73.251 87.2304 71.8961 86.6827 71.8961Z" fill="white"/>
</g>
<defs>
<clipPath id="clip0_920_8706">
<rect width="1920" height="9211" fill="white" transform="translate(-1459 -3977)"/>
</clipPath>
</defs>
</svg>
