<svg width="92" height="64" viewBox="0 0 92 64" fill="none" xmlns="http://www.w3.org/2000/svg">
<path opacity="0.75" d="M60.6233 42.4995C59.8297 43.3773 57.7689 45.0646 56.4124 46.2615C55.0558 47.4584 54.6977 49.1911 55.03 49.4307C55.3519 49.6272 58.2856 50.7922 58.457 50.9336C58.6284 51.0751 59.1363 50.9065 59.4087 50.5205C59.6379 50.145 60.5625 49.0526 60.6607 48.8917C60.8021 48.7203 66.4665 40.9489 67.876 38.4589C69.2855 35.969 72.0794 31.4524 73.1197 29.3262C74.1599 27.1999 76.7818 21.2161 77.813 18.8634C78.8337 16.4675 79.9806 13.0809 80.4816 10.9936C80.9826 8.90631 81.1296 8.00201 81.1234 7.40912C81.1171 6.81624 81.1854 6.34249 81.2418 6.00877C81.2983 5.67506 81.331 5.62141 81.4112 5.00762C81.4913 4.39384 81.5582 4.10332 81.6474 3.71596C81.7366 3.32861 81.5694 2.63748 81.1535 2.05224C80.6944 1.47745 79.6438 0.725684 79.246 0.593295C78.8377 0.417714 78.0498 0.562599 77.9592 1.13319C77.8686 1.70378 78.0002 2.81501 78.0901 3.75346C78.1799 4.69191 77.9123 8.68884 77.6565 9.71088C77.444 10.7225 76.5103 14.4233 74.8987 17.968C73.2662 21.4263 72.1222 24.4465 70.2633 27.9139C68.3939 31.338 67.7334 33.1439 65.5122 36.0587C63.3015 39.0168 61.6015 41.4399 60.6233 42.4995Z" fill="#FBB116"/>
<path opacity="0.75" d="M71.2393 10.0271C71.9214 9.63352 74.8733 8.41649 76.0633 7.8543C77.2533 7.29211 79.9398 5.5449 80.6246 4.78483C81.2663 4.03521 81.5743 3.22914 81.3744 2.59166C81.1744 1.95418 80.6902 1.84269 80.4666 1.48528C80.243 1.12786 79.7811 0.919537 79.315 1.2609C78.8489 1.60227 77.6903 2.29404 77.2019 2.73225C76.7567 3.16 73.9419 4.75533 73.1393 5.40671C72.2935 6.06854 68.81 7.73422 67.9328 8.26646C67.0452 8.75551 63.4976 10.3452 61.9279 11.2279C60.3687 12.1538 53.9764 15.026 52.149 15.7881C50.3215 16.5502 46.2792 17.9853 45.0252 18.4715C43.8039 18.9042 41.4163 19.6189 40.6178 19.7206C39.8299 19.8655 39.2474 19.9149 38.9569 19.848C38.6664 19.7811 38.2358 19.7024 37.6729 20.0214C37.11 20.3405 36.0956 20.4944 35.7605 20.6212C35.4253 20.748 34.8387 21.3472 35.0296 21.7582C35.2309 22.2125 35.3013 22.8813 35.5681 23.2283C35.8349 23.5752 36.3135 24.4196 36.6145 24.5297C36.9154 24.6398 37.3237 24.8154 37.7779 24.6141C38.2322 24.4127 39.0871 23.9773 39.9614 23.8115C40.879 23.6353 43.061 23.016 43.5257 22.8579C43.98 22.6566 44.1632 22.658 44.4551 22.5416C44.7471 22.4253 44.3061 22.3033 44.6307 22.1334C44.9658 22.0066 44.8808 21.8442 45.2905 21.8366C45.7106 21.8721 46.0666 21.8317 46.144 21.5844C46.2213 21.3371 46.3955 21.1121 46.7187 21.1253C47.0525 21.1818 47.127 21.3009 47.3444 21.0654C47.5618 20.8299 47.5527 20.6035 47.8537 20.7136C48.1546 20.8237 48.6416 20.5687 49.291 20.2288C49.9403 19.8888 56.3967 17.0925 57.5866 16.5303C58.7766 15.9681 63.7434 13.4407 65.203 12.859C66.6508 12.4173 71.2393 10.0271 71.2393 10.0271Z" fill="#FBB116"/>
<path opacity="0.75" d="M15.1819 56.1418C13.2575 56.8816 11.3778 57.4278 10.9354 57.4891C10.493 57.5504 10.0179 57.6653 9.77682 58.1809C9.5253 58.6532 9.44655 59.0838 9.78651 59.7331C10.1265 60.3824 10.9241 61.7898 11.4369 62.3973C11.9496 63.0048 13.0044 63.2069 13.9666 62.837C14.9183 62.4239 15.9773 62.0763 17.3414 61.2891C18.7056 60.5019 20.4926 59.3837 21.0333 59.1615C21.5739 58.9393 21.994 58.9748 21.8881 58.7261C21.7927 58.5206 21.87 58.2732 22.162 58.1569C22.4539 58.0406 25.4741 56.3498 26.2976 55.7848C27.0675 55.1871 28.9068 54.2849 30.0759 53.6363C31.2345 52.9446 32.8265 51.9651 33.2166 51.6878C33.6068 51.4105 34.0833 51.1123 33.976 51.0469C33.8688 50.9814 33.078 51.4927 32.4496 51.9191C31.8643 52.335 30.7489 53.0163 30.381 53.1967C30.0027 53.334 29.97 53.3876 29.6453 53.5576C29.3206 53.7276 29.1792 53.899 29.0078 53.7575C28.8364 53.6161 29.8864 53.042 30.1574 52.8393C30.4716 52.6261 31.6943 52.0103 32.2468 51.648C32.8098 51.329 33.6974 50.8399 34.0116 50.6267C34.3258 50.4136 34.5878 49.9844 34.9124 49.8144C35.2803 49.634 35.5841 49.3776 35.736 49.2494C35.8878 49.1213 38.2183 47.4144 38.6412 47.0835C39.021 46.7631 40.3447 45.6198 40.5398 45.4812C40.7349 45.3426 43.8993 43.1139 44.1272 42.9217C44.3982 42.7189 46.2758 41.0302 46.4277 40.902C46.6124 40.7202 47.4463 40.1984 47.6741 40.0061C47.902 39.8138 48.9874 38.8197 49.2912 38.5633C49.595 38.3069 49.8333 38.1579 50.0611 37.9656C50.2889 37.7733 50.2694 37.5037 50.0848 37.6855C49.9001 37.8673 49.5114 37.9614 49.6633 37.8332C49.8047 37.6618 50.0221 37.4263 50.2276 37.3309C50.4331 37.2355 50.5732 37.2473 50.7251 37.1191C50.8769 36.9909 50.8679 36.7645 51.1494 36.605C51.4308 36.4454 51.69 36.3827 51.8851 36.2441C52.0802 36.1055 55.0552 33.2826 56.0333 32.2229C57.0457 30.9264 63.4256 24.0335 65.577 21.7756C67.7285 19.5177 73.8207 12.1915 75.2573 10.3808C76.7044 8.61337 78.7305 5.83711 79.0893 5.43026C79.4377 4.98021 79.7191 4.82067 79.7338 4.31418C79.7484 3.80768 79.1716 3.1242 79.0016 2.79953C78.8316 2.47487 78.5244 1.77189 78.1342 2.04916C77.7441 2.32644 76.6676 3.54701 76.3848 3.88977C76.1019 4.23253 71.1788 10.9102 70.5476 11.703C69.9164 12.4958 64.098 19.2529 61.7396 21.7894C59.3812 24.326 52.7805 30.495 50.6646 32.3328C48.5487 34.1706 40.1965 41.0377 39.1019 41.8054C38.0179 42.6163 36.0538 44.3259 34.0389 45.6363C32.0345 46.9899 29.9869 48.354 27.7337 49.8135C25.5133 51.2193 22.8087 52.5137 21.7587 53.0877C20.7625 53.6945 17.1493 55.3916 15.1819 56.1418Z" fill="#FBB116"/>
</svg>
