<svg width="204" height="61" viewBox="0 0 204 61" fill="none" xmlns="http://www.w3.org/2000/svg">
<path opacity="0.75" d="M21.5322 44.8722C20.4159 47.3279 20.4159 47.886 19.6346 50.565C18.9648 53.1323 17.5137 54.8067 16.0626 55.4764C14.6115 56.1462 13.1604 55.9229 11.8209 55.3648C10.4814 54.8067 10.2582 54.2486 9.36518 53.3556C8.47219 52.4626 6.46296 51.2347 5.79322 50.4534C5.12348 49.7836 3.67237 49.1139 2.66776 48.1093C1.66314 47.1046 0.100411 45.6535 0.770154 44.314C1.4399 42.9746 1.77477 42.5281 3.11425 42.3048C4.45374 41.9699 5.90484 41.3002 6.57459 40.2956C7.24433 39.291 10.1465 36.8353 10.593 35.9423C11.0395 35.0493 12.7139 32.5936 13.7185 31.7006C14.7231 30.8076 15.5045 29.1332 16.5091 28.1286C17.5137 27.124 21.3089 22.7707 22.4252 21.7661C23.5414 20.7614 26.2204 18.1941 27.0017 17.4127C27.8947 16.743 30.3504 13.9524 31.0202 13.5059C31.6899 13.0594 33.4759 11.3851 34.2573 10.7153C34.927 10.1572 36.2665 8.70609 37.606 7.8131C38.9455 6.92011 41.6244 4.35276 42.629 3.90627C43.6337 3.45977 45.0848 2.00867 45.7545 1.89704C46.4242 1.78542 47.6521 1.2273 48.5451 1.00405C49.4381 0.892429 51.3357 1.56217 53.1217 2.00867C55.0193 2.45516 57.5866 3.79465 58.9261 4.12952C60.2656 4.57601 61.2702 5.58062 60.9353 6.47361C60.6005 7.3666 59.0377 7.92472 58.368 8.25959C57.6982 8.59446 53.7914 10.8269 52.8984 11.2734C52.0054 11.7199 45.1964 16.743 43.1872 18.6406C41.1779 20.5382 40.6198 21.9893 39.8384 21.7661C39.1687 21.6544 38.8338 22.1009 38.499 22.8823C38.1641 23.7753 37.4944 24.3334 36.713 25.0031C36.0432 25.6729 31.6899 30.2495 30.9086 31.3657C30.2388 32.4819 28.0063 35.1609 27.1133 36.2771C26.2204 37.3934 26.7785 37.6166 25.7739 38.1747C24.7692 38.7329 24.8809 40.184 23.9879 40.7421C23.4298 41.5235 22.0903 43.5327 21.5322 44.8722Z" fill="#BBB0E5" fill-opacity="0.5"/>
<path opacity="0.75" d="M102.009 12.6111C101.674 12.053 100.335 11.3832 98.549 10.9367C97.8793 10.4902 97.2095 10.0437 96.763 9.82049C95.7584 9.15075 91.5167 7.92289 90.5121 7.69964C89.7307 7.4764 89.2842 7.4764 89.061 7.81127C88.168 8.03451 87.275 8.36939 86.0472 8.70426C84.1495 9.15075 81.4706 11.3832 78.68 13.7273C75.7778 16.0714 61.4899 30.9174 59.5923 33.0382C57.6947 35.1591 55.0158 37.2799 55.239 35.9404C55.4623 34.4893 57.5831 27.7919 58.811 24.2199C59.2575 22.9921 60.597 16.8528 60.8202 15.5133C61.1551 14.1738 61.2667 8.03451 60.9318 6.69503C60.5969 5.35555 60.0388 4.90905 58.9226 4.35093C57.8064 3.79282 56.3553 3.2347 55.4623 2.89983C54.5693 2.56495 51.4438 1.33709 50.2159 1.00222C49.0997 0.667352 47.6486 2.00684 47.4254 2.56495C47.4254 2.56495 47.537 4.6858 47.537 6.36016C47.537 7.92289 47.2021 13.1692 47.2021 14.1738C47.2021 15.1784 47.2021 18.1923 46.644 19.6434C46.0859 21.0945 44.1883 27.3454 43.2953 29.1314C42.4023 31.029 39.8349 37.838 38.8303 39.5124C37.8257 41.2984 34.477 49.0004 33.9189 50.4515C33.3608 51.9026 33.9189 52.5724 34.5886 53.6886C35.2584 54.6932 37.156 55.2513 38.4955 56.1443C39.8349 57.0373 43.072 58.7117 44.1883 59.493C44.1883 59.493 45.5278 60.386 47.2021 60.1628C48.8765 59.9395 48.6532 59.9395 52.0019 58.9349C55.3506 57.9303 55.5739 55.8095 57.918 54.3583C60.2621 52.9072 64.6154 47.6609 66.513 45.5401C68.4106 43.4192 79.1265 31.4755 81.5822 29.3546C82.2519 28.7965 83.3682 27.7919 84.7077 26.564C84.2612 28.0152 83.9263 29.3546 83.7031 30.2476C83.0333 33.1498 81.8055 37.1683 81.5822 39.0659C81.4706 41.0751 82.0287 43.7541 83.1449 44.4238C84.3728 45.0936 87.1634 46.3214 88.8377 47.5493C90.5121 48.7772 93.6376 50.2283 95.0887 50.2283C96.5398 50.2283 96.0933 48.7772 96.0933 47.5493C96.0933 46.3214 96.763 43.9773 97.3211 42.303C97.7676 40.6286 97.9909 37.5032 98.7723 35.6056C99.442 33.708 100.67 27.2338 100.893 26.564C101.116 25.8943 102.567 17.2993 102.791 15.2901C102.902 14.8436 102.791 14.3971 102.679 14.0622C103.126 13.7273 102.456 13.1692 102.009 12.6111Z" fill="#BBB0E5" fill-opacity="0.5"/>
<path opacity="0.75" d="M83.1429 44.4234C84.8173 45.0932 88.3893 47.9954 90.5101 48.7768C92.631 49.4465 95.3099 51.679 99.3284 48.3303C103.347 44.9816 107.923 37.6144 112.723 33.4843C117.523 29.4659 123.439 24.666 127.011 21.5406C127.011 21.5406 126.006 26.3404 125.783 29.9124C125.56 33.4843 127.681 36.833 130.36 38.2841C133.039 39.7352 136.053 41.1864 138.508 41.8561C140.852 42.5258 144.424 41.4096 146.657 39.9585C148.778 38.5074 151.457 35.3819 153.131 34.2657C154.805 33.0378 162.173 25.0009 163.4 25.6707C164.628 26.3404 168.2 29.6891 170.321 30.917C172.442 32.1448 177.465 34.9354 179.586 34.4889C181.707 34.0424 184.386 32.1448 185.837 30.917C187.288 29.6891 188.962 27.1218 189.855 25.8939C190.86 24.666 191.083 23.9963 194.432 21.6522C197.78 19.3081 197.334 19.7546 199.232 18.0802C201.129 16.4059 200.906 16.4059 200.571 16.1826C200.236 16.071 200.236 15.9594 200.125 15.7361C200.013 15.5129 200.013 15.2897 200.236 15.178C200.459 14.9548 200.794 14.6199 201.241 14.3967C201.687 14.1734 202.58 13.7269 202.245 13.7269C201.911 13.7269 201.799 13.8385 201.687 13.6153C201.576 13.3921 201.576 13.1688 201.911 13.0572C202.245 12.9456 202.692 12.7223 202.469 12.3874C202.245 12.0526 201.799 11.6061 201.799 11.6061C201.799 11.6061 201.911 11.3828 201.576 11.4944C201.241 11.7177 200.794 12.0526 200.571 12.0526C200.348 12.0526 200.348 11.4944 200.459 11.3828C200.571 11.2712 201.241 10.7131 201.799 10.4898C202.357 10.155 202.245 10.0433 202.692 9.82009C203.138 9.59685 203.362 9.15035 202.915 9.26198C202.469 9.3736 201.799 9.70847 201.352 9.93172C201.018 10.155 200.571 10.3782 200.459 10.4898C200.236 10.6015 200.125 10.7131 200.013 10.6015C199.901 10.4898 199.79 9.93172 199.79 9.93172C199.79 9.93172 199.901 9.59685 200.125 9.3736C200.348 9.15035 200.571 9.15035 200.794 9.03873C201.018 8.81548 200.794 8.59223 200.571 8.48061C200.459 8.36899 199.678 8.14574 199.566 8.25736C199.343 8.36899 198.562 8.81548 198.339 8.81548C198.115 8.81548 188.292 14.1734 186.953 15.0664C185.725 15.8478 181.037 18.9732 180.144 19.4197C179.251 19.8662 178.135 20.3127 177.911 19.7546C177.688 19.1965 173.112 15.6245 171.437 14.7315C169.763 13.9502 165.075 11.1596 163.177 10.8247C161.168 10.6015 157.708 10.4898 155.698 12.1642C153.689 13.8385 141.857 24.4428 141.857 24.4428C141.857 24.4428 142.638 15.8478 142.638 14.9548C142.638 14.0618 142.415 13.3921 141.522 12.6107C140.629 11.8293 132.034 7.25275 131.03 6.91788C130.025 6.58301 126.23 6.13651 125.448 6.47138C124.667 6.80625 117.411 10.0433 114.621 12.1642C111.83 14.285 105.691 19.5314 104.463 20.536C103.124 21.5406 96.5378 26.1172 95.0867 27.0101C93.6356 27.7915 85.8219 38.1725 83.8127 39.4004C81.8035 40.7399 80.7989 41.7445 81.2453 42.5258C81.6918 43.1956 83.1429 44.4234 83.1429 44.4234Z" fill="#BBB0E5" fill-opacity="0.5"/>
</svg>
