<svg width="198" height="145" viewBox="0 0 198 145" fill="none" xmlns="http://www.w3.org/2000/svg">
<g clip-path="url(#clip0_2002_187)">
<path opacity="0.75" d="M182.364 97.7324C182.364 97.7324 181.737 81.9394 181.109 77.937C180.482 73.9347 178.496 50.137 177.869 47.4327C177.241 44.7284 174.941 34.993 176.3 33.3704C177.555 31.7478 177.555 33.1541 177.764 32.6132C177.973 32.0723 178.078 30.9906 178.914 30.8825C179.75 30.7743 180.796 30.8824 181.109 30.2334C181.528 29.5844 182.678 29.5844 182.991 29.0435C183.305 28.5027 183.828 28.6109 184.141 28.719C184.455 28.8272 185.187 28.3945 185.5 28.1782C185.814 27.9618 186.232 27.2046 186.65 27.2046C187.069 27.2046 188.009 27.5291 188.009 27.5291C188.009 27.5291 188.846 28.3945 189.055 28.8272C189.264 29.2599 191.459 44.9447 192.087 48.1899C192.714 51.435 194.282 66.0382 194.7 70.9059C195.118 75.7736 196.268 83.4538 196.791 85.8336C197.314 88.1052 197.837 89.5114 197.418 90.0522C197 90.5931 194.387 92.2157 193.759 92.5402C193.132 92.9729 193.341 92.7565 192.609 93.081C191.878 93.4056 191.773 93.6219 191.355 93.9464C190.937 94.2709 190.937 94.5954 189.891 95.0281C188.846 95.4608 187.696 95.7853 186.755 96.4344C185.709 97.0834 185.709 97.4079 184.559 97.6243C183.096 97.7324 182.364 97.7324 182.364 97.7324Z" fill="#FFCA42"/>
<path opacity="0.75" d="M112.527 78.9119C113.677 79.6691 117.336 81.1835 119.113 81.3998C120.89 81.7244 146.086 89.5127 151.94 91.3516C157.795 93.1905 165.008 94.4886 168.04 95.1376C171.072 95.7866 173.581 96.652 173.163 96.7602C172.745 96.8684 170.34 96.5438 168.563 96.003C166.786 95.4621 164.59 95.2458 162.813 94.7049C161.036 94.1641 159.258 94.0559 158.108 93.6232C156.958 93.1905 158.631 94.3804 161.768 95.0294C164.904 95.6785 168.772 96.652 170.34 96.9765C171.908 97.301 173.686 97.5174 175.567 97.9501C177.449 98.3828 179.227 98.7073 180.377 98.7073C181.527 98.7073 182.572 98.5991 183.408 98.0582C184.349 97.5174 184.349 97.301 185.29 97.0847C186.231 96.8684 187.067 96.1112 187.799 95.7866C188.636 95.4621 190.204 94.5968 190.517 94.2722C190.831 93.9477 192.086 93.1905 192.399 92.9742C192.713 92.7578 193.758 92.3252 194.281 92.0006C194.804 91.6761 196.058 90.7026 196.581 90.2699C197.208 89.8372 197.626 88.8637 197.208 88.7555C196.79 88.6473 193.34 88.3228 191.667 87.9983C189.995 87.6738 174.836 84.8613 173.999 84.5368C173.163 84.2123 171.072 83.6714 170.236 83.3469C169.399 83.0224 168.667 83.1306 167.727 83.0224C166.681 82.9142 165.949 82.5897 165.113 82.157C164.172 81.7244 158.945 79.8854 157.586 79.5609C156.122 79.1282 142.531 74.6932 139.604 73.7197C136.677 72.7461 127.372 70.0418 125.909 69.501C124.445 68.9601 123.609 68.5274 122.877 68.6356C122.145 68.7438 121.831 68.9601 121.413 69.3928C120.995 69.8255 120.89 70.5827 120.054 70.6909C119.218 70.799 118.381 70.5827 117.859 71.1236C117.336 71.6644 115.872 71.5562 116.395 71.9889C116.918 72.4216 119.009 72.3134 118.59 72.8543C118.172 73.3952 116.918 73.5033 116.604 73.3952C116.291 73.287 115.141 73.5033 115.141 73.5033C115.141 73.5033 114.618 74.0442 114.618 74.3687C114.618 74.6932 114.618 75.2341 114.095 75.2341C113.572 75.2341 112.945 75.1259 112.422 75.5586C111.9 75.9913 111.481 76.7485 111.481 76.7485C111.481 76.7485 111.691 77.2893 112.004 77.5057C112.527 77.8302 112.527 78.9119 112.527 78.9119Z" fill="#FFCA42"/>
<path opacity="0.75" d="M175.255 87.4576C175.986 88.3229 180.482 94.1642 181.004 95.4623C181.527 96.7603 182.991 98.4911 183.409 98.1665C183.827 97.842 185.918 96.7603 186.545 96.4358C187.173 96.2195 192.086 93.2988 193.445 92.6498C194.909 92.0008 198.463 89.5128 197.104 89.0801C195.745 88.6475 164.173 52.1937 152.046 41.4847C139.918 30.6676 114.305 12.3866 96.8459 6.76166C79.3869 1.24491 58.1643 -1.24302 43.2143 2.54298C40.3916 3.30018 37.4644 4.49005 34.5371 5.89628C29.519 8.38423 24.1872 11.5212 19.9008 14.8745C13.6282 19.8504 9.02818 25.259 7.6691 27.6388C4.84639 32.6146 14.0463 19.3095 25.1281 13.901C36.2098 8.4924 42.1689 8.4924 48.128 7.95154C54.087 7.41069 66.1097 8.38423 72.3824 9.57412C78.5505 10.764 84.3005 12.4947 87.1232 13.6846C89.9459 14.8745 91.0959 16.1726 90.6777 15.8481C90.2595 15.5235 85.6596 13.901 83.0459 12.9274C80.5369 11.9539 75.3096 10.5477 73.6369 10.4395C71.9642 10.3313 74.4733 10.8722 77.7142 11.8457C80.955 12.8193 84.9277 14.0092 85.9732 14.6582C87.1232 15.199 87.9595 15.199 88.3777 15.5235C88.7959 15.8481 89.1095 15.8481 89.7368 16.2808C90.4686 16.7134 91.4095 17.687 92.2459 17.687C93.0822 17.687 93.0822 17.7952 94.1277 18.4442C95.0686 18.985 95.8004 19.4177 96.2186 19.6341C96.6368 19.7422 98.3095 20.9321 99.3549 21.0403C100.296 21.1485 100.609 21.473 101.028 21.9057C101.446 22.3383 101.864 22.6629 102.282 22.8792C102.7 23.2037 113.259 29.1532 115.35 30.4512C117.441 31.7493 129.568 41.701 133.227 44.6217C136.887 47.5423 150.164 60.5229 153.091 63.2272C156.018 66.0396 164.486 74.9097 168.041 78.8039C171.7 82.9144 175.255 87.4576 175.255 87.4576Z" fill="#FFCA42"/>
</g>
<defs>
<clipPath id="clip0_2002_187">
<rect width="196.963" height="143.976" fill="white" transform="matrix(1 0 0 -1 0.560547 144.679)"/>
</clipPath>
</defs>
</svg>
