<svg width="212" height="38" viewBox="0 0 212 38" fill="none" xmlns="http://www.w3.org/2000/svg">
<path opacity="0.75" d="M211.6 27.0852C211.078 26.9803 210.869 26.7706 210.243 26.7706C209.512 26.6657 208.99 26.4559 208.676 26.1413C208.363 25.9316 207.841 25.8267 208.154 25.4072C208.572 24.9877 208.885 24.3585 208.468 24.3585C208.05 24.3585 207.11 24.1487 206.588 23.939C206.066 23.8341 205.648 23.6243 205.23 23.4146C204.708 23.2048 204.186 22.8902 204.395 22.4707C204.604 22.0512 203.977 21.7366 203.559 21.6317C203.142 21.5269 198.025 20.583 196.458 20.2684C194.892 19.9537 192.699 19.6391 190.611 18.905C188.418 18.1709 186.433 17.4368 185.285 15.1295C184.136 12.8223 183.927 11.4589 183.405 10.7248C182.883 9.99071 182.361 8.31272 181.525 7.89322C180.69 7.36885 180.69 6.94936 180.063 7.05423C179.437 7.1591 178.915 7.47373 178.393 7.68347C177.766 7.89322 176.408 8.52247 175.886 8.73222C175.364 9.04684 175.26 9.36146 174.529 9.36146C173.798 9.36146 171.396 10.8297 170.561 11.3541C169.725 11.8784 167.01 13.6613 166.279 13.9759C165.652 14.2905 164.713 15.2344 163.982 15.4442C163.251 15.7588 162.624 16.2832 161.58 16.5978C160.536 17.0173 157.298 18.905 155.732 19.5343C154.165 20.1635 150.719 21.3171 149.362 21.1074C148.004 20.8976 146.647 18.1709 146.125 16.8075C145.602 15.4442 143.305 10.3053 141.634 9.46633C139.859 8.52247 138.919 8.73222 138.188 8.94196C137.457 9.15171 136.308 9.88583 135.995 9.99071C135.682 10.0956 133.802 10.9346 132.967 11.2492C132.131 11.5638 130.669 11.9833 129.73 12.4028C128.79 12.8223 127.745 13.1369 127.432 13.1369C127.223 13.1369 126.179 12.5077 125.657 12.8223C125.03 13.1369 123.882 13.5564 123.464 13.7662C123.046 14.0808 122.315 14.2905 122.211 14.5003C122.211 14.71 122.524 14.8149 122.837 14.71C123.151 14.6052 123.464 14.3954 123.986 14.1857C124.508 14.0808 125.448 13.7662 125.239 13.871C125.03 13.9759 123.986 14.71 123.464 14.9198C122.942 15.1295 123.046 15.3393 122.002 15.549C120.958 15.8637 120.331 15.6539 120.644 15.4442C120.958 15.2344 121.375 14.9198 121.062 14.8149C120.749 14.71 120.54 14.8149 120.122 15.1295C119.704 15.4442 119.391 15.4442 118.451 15.6539C117.512 15.8637 117.198 16.0734 116.676 16.4929C116.154 16.9124 115.11 16.9124 114.796 17.0173C114.588 17.1221 113.752 17.3319 113.23 17.3319C112.708 17.3319 112.395 16.9124 111.35 17.3319C110.202 17.7514 107.695 18.4855 106.86 18.5904C105.92 18.6953 104.98 18.2758 104.458 17.7514C103.936 17.3319 99.6545 8.94196 98.8191 7.9981C97.8792 7.05423 95.0597 3.80313 94.3287 3.59338C93.7021 3.38363 91.6136 3.27876 90.1516 3.80313C88.6896 4.3275 85.0347 5.48112 83.155 6.63473C81.4842 8.10297 72.399 13.9759 68.3264 16.2832C64.2537 18.5904 61.2253 20.2684 60.3899 20.583C59.4501 20.8976 59.0323 20.8976 58.5102 21.1074C57.9881 21.3171 57.5704 21.0025 58.0925 20.7927C58.6146 20.583 60.5988 19.5343 61.4342 19.2196C62.2696 18.8001 63.836 17.7514 64.6714 17.4368C65.5068 17.1221 65.0891 17.0173 64.1493 17.4368C63.2094 17.8563 61.9563 18.1709 61.0165 18.6953C60.0766 19.2196 58.4058 19.744 57.8836 20.1635C57.2571 20.583 54.8553 21.422 52.1402 21.7366C49.425 21.9464 46.2922 21.1074 45.7701 20.7927C45.3524 20.4781 44.3081 19.6391 44.3081 19.6391C44.3081 19.6391 43.6816 15.549 42.9506 14.2905C42.2196 12.9272 36.9982 5.37624 35.8495 3.90801C34.5964 2.43977 32.5079 0.342285 30.2105 0.342285C27.9131 0.342285 23.6315 2.75439 20.9164 4.43238C18.2013 6.21524 7.34091 15.7588 5.25237 17.7514C2.43284 20.4781 0.135443 22.3659 0.553151 24.4633C0.866433 26.5608 3.47711 31.6997 4.93909 33.4825C6.40107 35.2654 6.92321 36.6287 9.32503 34.6361C11.7269 32.6435 19.1412 23.5195 24.6758 19.5343C30.2105 15.549 35.8495 12.0882 37.1026 15.2344C38.4602 18.3806 43.2638 27.9242 45.7701 31.6997C48.2763 35.4751 57.1527 38.3067 65.9245 34.2166C74.6964 30.1265 85.8701 22.3659 89.6295 20.3732C93.4933 18.3806 96.9394 18.3806 97.566 18.5904C98.2969 18.8001 102.474 29.1827 103.205 31.0704C103.936 32.8533 109.679 37.0482 116.467 34.1118C120.54 32.4338 128.894 28.2388 135.577 26.1413C140.068 24.6731 143.827 24.4633 144.454 25.617C146.02 28.5534 146.751 34.741 149.362 36.2092C151.972 37.6775 154.061 37.3629 156.254 36.5239C158.551 35.6849 159.596 35.1605 160.536 34.2166C161.371 33.2728 164.295 31.0704 165.652 30.7558C167.01 30.4412 173.484 26.4559 175.051 25.9316C176.617 25.4072 179.541 23.6243 179.541 23.6243C179.541 23.6243 180.69 23.1 181.003 22.9951C181.212 22.8902 181.839 22.7853 182.047 22.8902C182.256 22.9951 182.256 23.4146 182.047 23.4146C181.839 23.4146 171.605 28.9729 170.456 29.6022C169.412 30.2314 166.07 32.1191 165.339 32.4338C164.713 32.6435 163.355 33.4825 162.624 33.7971C161.893 34.1118 161.997 34.6361 162.52 34.4264C163.042 34.2166 168.994 31.385 170.352 30.6509C171.709 29.9168 175.782 27.3998 176.826 26.7706C177.87 26.1413 178.497 25.9316 179.437 25.617C180.377 25.3023 181.421 24.6731 181.525 24.6731C181.63 24.5682 182.361 24.1487 182.57 24.1487C182.674 24.1487 182.987 24.8828 182.987 25.0926C182.987 25.3023 185.911 30.7558 187.478 32.0143C189.149 33.2728 190.819 34.0069 191.759 34.5313C192.803 35.0556 193.012 35.1605 193.848 35.0556C194.683 34.9507 194.892 34.8459 195.101 34.6361C195.31 34.4264 195.205 34.3215 195.727 34.5313C196.25 34.741 197.607 35.2654 199.382 35.4751C201.158 35.6849 202.306 35.6849 203.037 35.6849C203.768 35.58 204.499 35.58 204.186 35.58C203.873 35.4751 202.098 35.58 200.74 35.1605C199.382 34.741 198.547 34.9507 197.503 34.5313C196.458 34.1118 196.667 33.7971 197.503 33.6923C198.443 33.6923 200.949 34.3215 202.202 34.5313C203.559 34.741 205.23 34.6361 206.275 34.741C207.214 34.8459 208.05 34.8459 208.154 34.741C208.363 34.5313 208.363 34.4264 208.781 34.4264C209.303 34.4264 209.616 34.3215 210.138 34.3215C210.661 34.2166 211.183 34.0069 210.243 33.902C209.199 33.7971 207.841 33.4825 207.319 33.3776C206.797 33.2728 206.066 33.063 205.544 32.8533C205.021 32.6435 204.604 32.4338 204.499 32.3289C204.29 32.224 204.917 31.8045 205.752 31.8045C206.588 31.8045 207.737 32.0143 208.468 32.0143C209.199 32.0143 211.183 32.3289 211.078 32.0143C210.974 31.6997 210.347 31.6997 209.825 31.4899C209.407 31.385 209.094 31.1753 208.676 31.0704C208.259 30.9655 207.737 30.546 207.945 30.4412C208.154 30.3363 208.676 30.2314 208.468 30.0217C208.363 29.8119 207.841 29.0778 208.363 28.8681C208.885 28.6583 209.199 28.2388 209.616 28.2388C210.034 28.2388 210.556 27.9242 210.869 27.9242C211.392 27.5047 212.123 27.2949 211.6 27.0852ZM26.0334 2.85926C25.7201 3.27876 24.9891 4.01288 24.1537 4.53725C23.3183 5.06162 18.7235 8.62734 17.6792 9.04684C16.5305 9.57121 13.8154 12.2979 13.1888 12.9272C12.4578 13.4516 10.787 14.8149 9.74274 15.7588C8.59404 16.7026 7.23649 17.5416 7.23649 17.5416C7.44534 17.4368 11.9357 12.4028 16.6349 8.94196C21.2297 5.48112 22.5873 4.64212 23.6315 3.90801C24.7802 3.27876 24.8847 3.17389 25.5112 2.85926C26.0334 2.54464 26.3467 2.43977 26.0334 2.85926ZM79.7089 24.1487C79.5001 24.3585 78.9779 24.5682 78.5602 24.778C78.2469 24.9877 77.8292 24.9877 77.5159 25.3023C77.3071 25.617 76.8894 25.617 76.8894 25.4072C76.8894 25.1975 76.8894 24.6731 77.3071 24.5682C77.8292 24.4633 78.3514 24.2536 78.5602 24.1487C78.7691 24.0438 79.0823 23.7292 79.2912 23.7292C79.6045 23.6243 80.0222 23.8341 79.7089 24.1487ZM84.4081 21.2122C83.9904 21.422 83.155 22.1561 82.8417 22.261C82.5284 22.3659 82.2152 22.5756 81.9019 22.9951C81.5886 23.4146 81.2753 23.4146 81.0665 23.5195C80.7532 23.6243 80.6488 23.1 80.962 22.8902C81.2753 22.7853 81.7975 22.0512 82.1107 21.8415C82.424 21.6317 82.6329 21.5269 83.2594 21.2122C83.9904 20.7927 84.0949 20.583 84.5126 20.6879C84.9303 20.8976 84.8258 20.8976 84.4081 21.2122ZM89.1074 6.42499C87.7498 6.84448 86.6011 7.36885 82.7373 9.46633C78.7691 11.5638 73.3389 15.3393 72.399 15.7588C71.5636 16.0734 71.5636 15.3393 71.9813 15.1295C72.399 14.9198 72.399 14.8149 73.861 13.871C75.2185 12.9272 78.5602 11.0394 80.7532 9.57121C82.9462 8.10297 86.81 6.63473 87.9587 6.32011C89.1074 6.00549 90.5693 6.11036 90.5693 6.11036C90.5693 6.11036 90.4649 6.00549 89.1074 6.42499ZM125.239 15.7588C126.179 15.3393 128.059 14.6052 128.894 14.3954C129.73 14.1857 128.268 14.9198 127.85 15.1295C127.328 15.3393 127.014 15.6539 126.701 15.9685C126.388 16.2832 125.239 16.4929 124.821 16.4929C124.299 16.5978 124.613 16.1783 125.239 15.7588ZM122.002 29.0778C122.42 28.9729 123.464 28.5534 123.673 28.4486C123.986 28.3437 125.761 27.8193 126.283 27.6096C126.91 27.3998 127.223 26.9803 127.745 26.7706C128.268 26.5608 128.476 26.5608 129.416 26.1413C130.252 25.7218 130.774 25.5121 131.191 25.4072C131.505 25.3023 133.28 24.3585 133.698 24.3585C134.115 24.3585 135.055 24.1487 135.264 24.0438C135.473 23.939 135.891 23.939 135.786 24.0438C135.682 24.2536 135.264 24.778 134.951 24.8828C134.638 24.9877 133.28 25.4072 132.862 25.617C132.34 25.7218 131.191 26.0364 130.356 26.3511C129.521 26.6657 128.268 27.3998 127.537 27.7144C126.806 27.9242 125.97 28.1339 125.239 28.5534C124.508 28.868 124.508 28.8681 123.568 29.2875C122.628 29.707 122.106 30.0217 122.106 30.0217C121.689 30.2314 121.271 30.2314 121.271 29.9168C121.062 29.6022 121.584 29.0778 122.002 29.0778ZM127.954 28.6583C123.986 30.546 121.897 31.385 120.227 32.0143C118.556 32.6435 117.929 32.5386 117.929 32.5386C117.929 32.5386 120.018 31.5948 120.958 31.2802C121.897 30.9655 127.954 28.1339 130.878 26.9803C133.28 25.9316 133.071 26.1413 134.638 25.617C135.891 25.1975 136.1 25.617 136.1 25.617C136.1 25.617 131.922 26.7706 127.954 28.6583ZM178.915 8.52247C178.81 9.04684 178.915 9.04684 178.288 9.57121C177.557 9.99071 176.826 10.8297 177.244 10.62C177.662 10.4102 177.557 11.0394 177.035 11.4589C176.513 11.8784 176.095 11.8784 175.155 12.2979C174.215 12.7174 173.798 13.1369 172.545 13.3467C171.396 13.5564 170.143 14.3954 168.785 15.1295C167.428 15.9685 165.13 17.227 163.773 17.9611C162.415 18.6953 161.684 18.2758 161.162 18.8001C160.64 19.3245 160.431 19.1148 159.7 19.2196C158.969 19.3245 159.178 18.8001 159.178 18.8001C159.596 18.4855 160.327 18.066 160.849 17.8563C161.267 17.5416 162.937 17.0173 163.564 16.8075C164.19 16.4929 165.235 15.7588 165.652 15.549C166.07 15.3393 167.532 14.1857 167.95 13.871C168.368 13.5564 170.561 12.2979 171.292 11.9833C172.022 11.6687 173.067 11.1443 173.589 11.0394C174.111 10.9346 175.051 10.4102 175.573 10.2005C176.095 9.99071 176.931 9.36146 177.244 9.15171C177.557 8.94196 177.87 8.73222 178.288 8.52247C178.81 8.20785 179.124 7.89322 178.915 8.52247Z" fill="#FFCA42"/>
</svg>
