<svg width="137" height="24" viewBox="0 0 137 24" fill="none" xmlns="http://www.w3.org/2000/svg">
<path opacity="0.75" d="M136.174 17.2565C135.837 17.1889 135.702 17.0536 135.298 17.0536C134.827 16.986 134.491 16.8508 134.289 16.648C134.087 16.5128 133.75 16.4452 133.952 16.1747C134.221 15.9043 134.423 15.4986 134.154 15.4986C133.885 15.4986 133.279 15.3634 132.942 15.2282C132.606 15.1606 132.336 15.0254 132.067 14.8901C131.73 14.7549 131.394 14.5521 131.528 14.2817C131.663 14.0112 131.259 13.8084 130.99 13.7408C130.721 13.6732 127.422 13.0647 126.412 12.8619C125.402 12.659 123.988 12.4562 122.642 11.9829C121.228 11.5097 119.949 11.0364 119.209 9.54902C118.468 8.06161 118.333 7.18269 117.997 6.70943C117.66 6.23616 117.324 5.15442 116.785 4.88398C116.247 4.54593 116.247 4.2755 115.843 4.3431C115.439 4.41071 115.102 4.61354 114.765 4.74876C114.362 4.88398 113.486 5.28963 113.15 5.42485C112.813 5.62768 112.746 5.83051 112.275 5.83051C111.803 5.83051 110.255 6.77704 109.716 7.11508C109.178 7.45313 107.427 8.60249 106.956 8.80531C106.552 9.00814 105.946 9.61662 105.475 9.75184C105.004 9.95467 104.6 10.2927 103.927 10.4955C103.254 10.766 101.167 11.9829 100.157 12.3886C99.147 12.7943 96.9254 13.538 96.0502 13.4027C95.175 13.2675 94.2999 11.5097 93.9632 10.6308C93.6266 9.75184 92.1456 6.43899 91.0684 5.89812C89.924 5.28963 89.3181 5.42485 88.8468 5.56007C88.3756 5.69529 87.6351 6.16855 87.4331 6.23616C87.2311 6.30377 86.0194 6.84465 85.4808 7.04747C84.9422 7.2503 83.9997 7.52074 83.3938 7.79118C82.788 8.06161 82.1147 8.26444 81.9128 8.26444C81.7781 8.26444 81.1049 7.85878 80.7683 8.06161C80.3644 8.26444 79.6239 8.53488 79.3546 8.6701C79.0853 8.87292 78.614 9.00814 78.5467 9.14336C78.5467 9.27858 78.7487 9.34619 78.9506 9.27858C79.1526 9.21097 79.3546 9.07575 79.6912 8.94053C80.0278 8.87292 80.6337 8.6701 80.499 8.7377C80.3644 8.80531 79.6912 9.27858 79.3546 9.4138C79.018 9.54902 79.0853 9.68423 78.4121 9.81945C77.7389 10.0223 77.3349 9.88706 77.5369 9.75184C77.7389 9.61662 78.0082 9.4138 77.8062 9.34619C77.6042 9.27858 77.4696 9.34619 77.2003 9.54902C76.931 9.75184 76.7291 9.75184 76.1232 9.88706C75.5173 10.0223 75.3153 10.1575 74.9787 10.4279C74.6421 10.6984 73.9689 10.6984 73.7669 10.766C73.6323 10.8336 73.0937 10.9688 72.7571 10.9688C72.4205 10.9688 72.2185 10.6984 71.5453 10.9688C70.8048 11.2392 69.1891 11.7125 68.6505 11.7801C68.0446 11.8477 67.4387 11.5773 67.1021 11.2392C66.7655 10.9688 64.0054 5.56007 63.4668 4.95159C62.8609 4.3431 61.0432 2.24722 60.572 2.112C60.1681 1.97678 58.8217 1.90917 57.8792 2.24722C56.9367 2.58526 54.5804 3.32897 53.3686 4.07267C52.2915 5.0192 46.4346 8.80531 43.8091 10.2927C41.1835 11.7801 39.2312 12.8619 38.6927 13.0647C38.0868 13.2675 37.8175 13.2675 37.4809 13.4027C37.1443 13.538 36.875 13.3351 37.2116 13.1999C37.5482 13.0647 38.8273 12.3886 39.3659 12.1858C39.9044 11.9153 40.9142 11.2392 41.4528 11.0364C41.9914 10.8336 41.7221 10.766 41.1162 11.0364C40.5103 11.3069 39.7025 11.5097 39.0966 11.8477C38.4907 12.1858 37.4136 12.5238 37.0769 12.7943C36.673 13.0647 35.1246 13.6056 33.3743 13.8084C31.6239 13.9436 29.6043 13.4027 29.2677 13.1999C28.9984 12.9971 28.3252 12.4562 28.3252 12.4562C28.3252 12.4562 27.9213 9.81945 27.45 9.00814C26.9788 8.12922 23.6127 3.26136 22.8722 2.31483C22.0644 1.3683 20.7179 0.0161133 19.2369 0.0161133C17.7558 0.0161133 14.9956 1.57113 13.2453 2.65287C11.4949 3.80223 4.49355 9.95467 3.14713 11.2392C1.32946 12.9971 -0.1516 14.2141 0.117684 15.5662C0.319647 16.9184 2.00267 20.2313 2.94517 21.3806C3.88766 22.53 4.22427 23.4089 5.77265 22.1243C7.32104 20.8398 12.1008 14.9578 15.6688 12.3886C19.2369 9.81945 22.8722 7.58835 23.6801 9.61663C24.5552 11.6449 27.652 17.7973 29.2677 20.2313C30.8834 22.6652 36.6057 24.4907 42.2607 21.8539C47.9156 19.2171 55.119 14.2141 57.5426 12.9295C60.0334 11.6449 62.255 11.6449 62.659 11.7801C63.1302 11.9153 65.823 18.6087 66.2943 19.8256C66.7655 20.975 70.4682 23.6793 74.8441 21.7863C77.4696 20.7045 82.8553 18.0002 87.1638 16.648C90.0586 15.7015 92.4822 15.5662 92.8861 16.3099C93.8959 18.203 94.3672 22.1919 96.0502 23.1385C97.7332 24.085 99.0796 23.8822 100.493 23.3413C101.974 22.8004 102.648 22.4624 103.254 21.8539C103.792 21.2454 105.677 19.8256 106.552 19.6228C107.427 19.42 111.601 16.8508 112.611 16.5128C113.621 16.1747 115.506 15.0254 115.506 15.0254C115.506 15.0254 116.247 14.6873 116.448 14.6197C116.583 14.5521 116.987 14.4845 117.122 14.5521C117.256 14.6197 117.256 14.8901 117.122 14.8901C116.987 14.8901 110.39 18.4734 109.649 18.8791C108.976 19.2847 106.822 20.5017 106.35 20.7045C105.946 20.8398 105.071 21.3806 104.6 21.5835C104.129 21.7863 104.196 22.1243 104.533 21.9891C104.869 21.8539 108.707 20.0284 109.582 19.5552C110.457 19.0819 113.082 17.4593 113.756 17.0536C114.429 16.648 114.833 16.5128 115.439 16.3099C116.045 16.1071 116.718 15.7015 116.785 15.7015C116.852 15.6338 117.324 15.3634 117.458 15.3634C117.526 15.3634 117.728 15.8367 117.728 15.9719C117.728 16.1071 119.613 19.6228 120.622 20.4341C121.7 21.2454 122.777 21.7187 123.383 22.0567C124.056 22.3948 124.19 22.4624 124.729 22.3948C125.268 22.3272 125.402 22.2596 125.537 22.1243C125.671 21.9891 125.604 21.9215 125.941 22.0567C126.277 22.1919 127.153 22.53 128.297 22.6652C129.441 22.8004 130.182 22.8004 130.653 22.8004C131.124 22.7328 131.596 22.7328 131.394 22.7328C131.192 22.6652 130.047 22.7328 129.172 22.4624C128.297 22.1919 127.758 22.3272 127.085 22.0567C126.412 21.7863 126.547 21.5835 127.085 21.5159C127.691 21.5159 129.307 21.9215 130.115 22.0567C130.99 22.1919 132.067 22.1243 132.74 22.1919C133.346 22.2596 133.885 22.2596 133.952 22.1919C134.087 22.0567 134.087 21.9891 134.356 21.9891C134.692 21.9891 134.894 21.9215 135.231 21.9215C135.568 21.8539 135.904 21.7187 135.298 21.6511C134.625 21.5835 133.75 21.3806 133.413 21.313C133.077 21.2454 132.606 21.1102 132.269 20.975C131.932 20.8398 131.663 20.7045 131.596 20.6369C131.461 20.5693 131.865 20.2989 132.404 20.2989C132.942 20.2989 133.683 20.4341 134.154 20.4341C134.625 20.4341 135.904 20.6369 135.837 20.4341C135.77 20.2313 135.366 20.2313 135.029 20.0961C134.76 20.0284 134.558 19.8932 134.289 19.8256C134.019 19.758 133.683 19.4876 133.817 19.42C133.952 19.3524 134.289 19.2847 134.154 19.1495C134.087 19.0143 133.75 18.541 134.087 18.4058C134.423 18.2706 134.625 18.0002 134.894 18.0002C135.164 18.0002 135.5 17.7973 135.702 17.7973C136.039 17.5269 136.51 17.3917 136.174 17.2565ZM16.544 1.63874C16.3421 1.90917 15.8708 2.38244 15.3322 2.72048C14.7937 3.05853 11.8315 5.35724 11.1583 5.62768C10.4178 5.96573 8.66746 7.72357 8.26353 8.12922C7.79228 8.46727 6.71515 9.34619 6.04194 9.95467C5.30141 10.5632 4.42623 11.104 4.42623 11.104C4.56087 11.0364 7.45568 7.79118 10.4851 5.56007C13.4473 3.32897 14.3224 2.78809 14.9956 2.31483C15.7362 1.90917 15.8035 1.84156 16.2074 1.63874C16.544 1.43591 16.746 1.3683 16.544 1.63874ZM51.1471 15.3634C51.0124 15.4986 50.6758 15.6338 50.4065 15.7691C50.2046 15.9043 49.9353 15.9043 49.7333 16.1071C49.5987 16.3099 49.3294 16.3099 49.3294 16.1747C49.3294 16.0395 49.3294 15.7015 49.5987 15.6338C49.9353 15.5662 50.2719 15.431 50.4065 15.3634C50.5412 15.2958 50.7431 15.093 50.8778 15.093C51.0797 15.0254 51.349 15.1606 51.1471 15.3634ZM54.1765 13.4704C53.9072 13.6056 53.3686 14.0788 53.1667 14.1464C52.9647 14.2141 52.7628 14.3493 52.5608 14.6197C52.3588 14.8901 52.1569 14.8901 52.0222 14.9578C51.8203 15.0254 51.7529 14.6873 51.9549 14.5521C52.1569 14.4845 52.4935 14.0112 52.6954 13.876C52.8974 13.7408 53.032 13.6732 53.436 13.4704C53.9072 13.1999 53.9745 13.0647 54.2438 13.1323C54.5131 13.2675 54.4458 13.2675 54.1765 13.4704ZM57.2059 3.93745C56.3308 4.20789 55.5902 4.54593 53.0994 5.89812C50.5412 7.2503 47.0405 9.68423 46.4346 9.95467C45.896 10.1575 45.896 9.68423 46.1653 9.54902C46.4346 9.4138 46.4346 9.34619 47.3771 8.7377C48.2522 8.12922 50.4065 6.91226 51.8203 5.96573C53.234 5.0192 55.7249 4.07267 56.4654 3.86984C57.2059 3.66701 58.1484 3.73462 58.1484 3.73462C58.1484 3.73462 58.0811 3.66701 57.2059 3.93745ZM80.499 9.95467C81.1049 9.68423 82.3167 9.21097 82.8553 9.07575C83.3938 8.94053 82.4513 9.4138 82.1821 9.54902C81.8455 9.68423 81.6435 9.88706 81.4415 10.0899C81.2396 10.2927 80.499 10.4279 80.2297 10.4279C79.8931 10.4955 80.0951 10.2251 80.499 9.95467ZM78.4121 18.541C78.6814 18.4734 79.3546 18.203 79.4892 18.1354C79.6912 18.0678 80.8356 17.7297 81.1722 17.5945C81.5762 17.4593 81.7781 17.1889 82.1147 17.0536C82.4513 16.9184 82.586 16.9184 83.1919 16.648C83.7304 16.3775 84.067 16.2423 84.3363 16.1747C84.5383 16.1071 85.6828 15.4986 85.952 15.4986C86.2213 15.4986 86.8272 15.3634 86.9619 15.2958C87.0965 15.2282 87.3658 15.2282 87.2985 15.2958C87.2311 15.431 86.9619 15.7691 86.7599 15.8367C86.5579 15.9043 85.6828 16.1747 85.4135 16.3099C85.0769 16.3775 84.3363 16.5804 83.7978 16.7832C83.2592 16.986 82.4513 17.4593 81.9801 17.6621C81.5088 17.7973 80.9703 17.9326 80.499 18.203C80.0278 18.4058 80.0278 18.4058 79.4219 18.6763C78.816 18.9467 78.4794 19.1495 78.4794 19.1495C78.2101 19.2847 77.9408 19.2847 77.9408 19.0819C77.8062 18.8791 78.1428 18.541 78.4121 18.541ZM82.2494 18.2706C79.6912 19.4876 78.3448 20.0284 77.2676 20.4341C76.1905 20.8398 75.7866 20.7722 75.7866 20.7722C75.7866 20.7722 77.133 20.1637 77.7389 19.9608C78.3448 19.758 82.2494 17.9326 84.1344 17.1889C85.6828 16.5128 85.5481 16.648 86.5579 16.3099C87.3658 16.0395 87.5004 16.3099 87.5004 16.3099C87.5004 16.3099 84.8076 17.0536 82.2494 18.2706ZM115.102 5.28963C115.035 5.62768 115.102 5.62768 114.698 5.96573C114.227 6.23616 113.756 6.77704 114.025 6.64182C114.294 6.5066 114.227 6.91226 113.89 7.18269C113.554 7.45313 113.284 7.45313 112.679 7.72357C112.073 7.994 111.803 8.26444 110.995 8.39966C110.255 8.53488 109.447 9.07575 108.572 9.54902C107.697 10.0899 106.216 10.9012 105.341 11.3745C104.465 11.8477 103.994 11.5773 103.657 11.9153C103.321 12.2534 103.186 12.1182 102.715 12.1858C102.244 12.2534 102.378 11.9153 102.378 11.9153C102.648 11.7125 103.119 11.4421 103.456 11.3069C103.725 11.104 104.802 10.766 105.206 10.6308C105.61 10.4279 106.283 9.95467 106.552 9.81945C106.822 9.68423 107.764 8.94053 108.033 8.7377C108.303 8.53488 109.716 7.72357 110.188 7.52074C110.659 7.31791 111.332 6.97986 111.669 6.91226C112.005 6.84465 112.611 6.5066 112.948 6.37138C113.284 6.23616 113.823 5.83051 114.025 5.69529C114.227 5.56007 114.429 5.42485 114.698 5.28963C115.035 5.08681 115.237 4.88398 115.102 5.28963Z" fill="#F98D8D" fill-opacity="0.5"/>
</svg>
