<svg width="203" height="60" fill="none" xmlns="http://www.w3.org/2000/svg"><path opacity=".75" d="M21.476 44.688c-1.113 2.446-1.113 3.002-1.892 5.67-.668 2.556-2.115 4.223-3.562 4.89-1.447.667-2.895.445-4.23-.111-1.336-.556-1.559-1.112-2.45-2-.89-.89-2.894-2.113-3.562-2.89-.668-.668-2.115-1.335-3.117-2.335-1.002-1-2.56-2.445-1.892-3.78.668-1.333 1.002-1.778 2.337-2 1.336-.334 2.783-1 3.451-2 .668-1.001 3.563-3.447 4.008-4.336.445-.89 2.115-3.334 3.117-4.224 1.002-.889 1.781-2.556 2.783-3.557 1.002-1 4.787-5.335 5.9-6.335 1.113-1 3.785-3.557 4.564-4.335.89-.667 3.34-3.446 4.008-3.89.668-.445 2.449-2.113 3.228-2.78.668-.555 2.004-2 3.34-2.89 1.335-.889 4.007-3.445 5.009-3.89 1.002-.445 2.449-1.89 3.117-2 .668-.112 1.892-.668 2.783-.89.89-.111 2.783.556 4.564 1 1.893.445 4.453 1.779 5.789 2.112 1.336.445 2.338 1.445 2.004 2.335-.334.889-1.893 1.445-2.56 1.778-.669.333-4.565 2.556-5.456 3.001-.89.445-7.68 5.447-9.684 7.336-2.004 1.89-2.56 3.335-3.34 3.113-.668-.112-1.002.333-1.336 1.111-.334.89-1.002 1.445-1.781 2.112-.668.667-5.01 5.224-5.789 6.336-.668 1.111-2.894 3.78-3.785 4.89-.89 1.112-.334 1.334-1.336 1.89-1.001.556-.89 2.001-1.78 2.557-.557.778-1.893 2.779-2.45 4.112Z" fill="#BBB0E5" fill-opacity=".5"/><path opacity=".75" d="M101.735 12.563c-.334-.556-1.67-1.223-3.45-1.667-.669-.445-1.337-.89-1.782-1.112-1.002-.667-5.232-1.89-6.234-2.112-.78-.222-1.225-.222-1.447.111-.89.223-1.781.556-3.006.89-1.892.444-4.564 2.667-7.347 5.002-2.894 2.334-17.143 17.117-19.036 19.23-1.892 2.111-4.564 4.223-4.341 2.89.222-1.446 2.337-8.115 3.562-11.672.445-1.223 1.781-7.336 2.004-8.67.334-1.334.445-7.447.111-8.781-.334-1.334-.89-1.779-2.004-2.334-1.113-.556-2.56-1.112-3.45-1.445-.891-.334-4.008-1.557-5.233-1.89-1.113-.333-2.56 1-2.783 1.556 0 0 .111 2.112.111 3.78 0 1.556-.333 6.78-.333 7.78s0 4.002-.557 5.447c-.557 1.445-2.45 7.67-3.34 9.448-.89 1.89-3.45 8.67-4.453 10.337-1.001 1.779-4.341 9.448-4.898 10.893-.556 1.445 0 2.112.668 3.224.668 1 2.56 1.556 3.897 2.445 1.335.89 4.564 2.556 5.677 3.335 0 0 1.336.889 3.006.666 1.67-.222 1.447-.222 4.786-1.222 3.34-1 3.563-3.112 5.9-4.557 2.338-1.445 6.68-6.67 8.572-8.782 1.893-2.112 12.58-14.005 15.028-16.117.668-.556 1.781-1.556 3.117-2.779a69.52 69.52 0 0 0-1.002 3.668c-.667 2.89-1.892 6.892-2.115 8.781-.11 2.001.446 4.669 1.559 5.336 1.224.667 4.007 1.89 5.677 3.112 1.67 1.223 4.787 2.668 6.234 2.668s1.002-1.445 1.002-2.668.668-3.557 1.225-5.224c.445-1.667.668-4.78 1.447-6.67.668-1.889 1.892-8.336 2.115-9.003.223-.667 1.67-9.226 1.892-11.226.112-.445 0-.89-.111-1.223.445-.333-.223-.89-.668-1.445Z" fill="#BBB0E5" fill-opacity=".5"/><path opacity=".75" d="M82.919 44.242c1.67.666 5.232 3.556 7.347 4.335 2.115.666 4.787 2.89 8.794-.445 4.008-3.335 8.572-10.67 13.359-14.784 4.787-4.001 10.687-8.78 14.249-11.893 0 0-1.002 4.78-1.225 8.337-.222 3.556 1.893 6.891 4.564 8.336 2.672 1.445 5.678 2.89 8.127 3.557 2.338.667 5.9-.445 8.126-1.89 2.115-1.445 4.787-4.557 6.457-5.669 1.67-1.222 9.017-9.225 10.241-8.558 1.225.666 4.787 4.001 6.902 5.224 2.115 1.222 7.125 4.001 9.24 3.557 2.115-.445 4.787-2.334 6.234-3.557 1.447-1.223 3.117-3.78 4.007-5.002 1.002-1.223 1.225-1.89 4.565-4.224 3.339-2.334 2.894-1.89 4.786-3.557 1.893-1.667 1.67-1.667 1.336-1.89-.334-.11-.334-.222-.445-.444-.111-.222-.111-.445.111-.556.223-.222.557-.556 1.002-.778.445-.222 1.336-.667 1.002-.667-.334 0-.445.111-.557-.111-.111-.222-.111-.445.223-.556.334-.11.779-.333.557-.667-.223-.333-.668-.778-.668-.778s.111-.222-.223-.11c-.334.221-.779.555-1.002.555-.222 0-.222-.556-.111-.667.111-.111.779-.667 1.336-.89.556-.333.445-.444.89-.666.446-.223.668-.667.223-.556-.445.111-1.113.445-1.559.667-.333.222-.779.444-.89.556-.223.11-.334.222-.445.11-.112-.11-.223-.666-.223-.666s.111-.334.334-.556c.223-.222.445-.222.668-.333.223-.223 0-.445-.223-.556-.111-.111-.89-.334-1.002-.222-.222.11-1.002.555-1.224.555-.223 0-10.019 5.336-11.355 6.225-1.224.778-5.9 3.89-6.79 4.335-.891.445-2.004.89-2.227.334-.223-.556-4.787-4.113-6.456-5.002-1.67-.779-6.346-3.557-8.238-3.89-2.004-.223-5.455-.334-7.459 1.333-2.004 1.667-13.804 12.227-13.804 12.227s.78-8.559.78-9.448c0-.89-.223-1.556-1.113-2.334-.891-.779-9.463-5.336-10.465-5.67-1.002-.333-4.786-.777-5.566-.444-.779.334-8.015 3.557-10.798 5.669-2.783 2.112-8.905 7.336-10.13 8.336-1.336 1-7.904 5.558-9.35 6.447-1.448.779-9.24 11.116-11.244 12.338-2.004 1.334-3.006 2.335-2.56 3.113.445.667 1.892 1.89 1.892 1.89Z" fill="#BBB0E5" fill-opacity=".5"/></svg>