<svg width="213" height="38" fill="none" xmlns="http://www.w3.org/2000/svg"><path opacity=".75" d="M212.749 27.588c-.523-.105-.733-.315-1.362-.315-.733-.106-1.257-.316-1.572-.631-.314-.21-.838-.316-.523-.737.419-.42.733-1.052.314-1.052s-1.362-.21-1.886-.42c-.524-.106-.943-.316-1.362-.526-.524-.21-1.048-.526-.839-.947.21-.42-.419-.736-.838-.842-.419-.105-5.554-1.051-7.125-1.367-1.572-.316-3.773-.631-5.868-1.367-2.201-.737-4.192-1.473-5.344-3.787-1.153-2.314-1.363-3.682-1.886-4.418-.524-.736-1.048-2.42-1.887-2.84-.838-.526-.838-.947-1.467-.842-.628.105-1.152.42-1.676.631-.629.21-1.991.842-2.515 1.052-.524.316-.629.631-1.362.631-.734 0-3.144 1.473-3.982 1.999-.838.526-3.563 2.314-4.296 2.63-.629.315-1.572 1.262-2.305 1.472-.734.316-1.363.842-2.411 1.157-1.047.421-4.296 2.315-5.867 2.946-1.572.63-5.03 1.788-6.392 1.577-1.363-.21-2.725-2.945-3.249-4.312-.524-1.368-2.829-6.522-4.505-7.363-1.782-.947-2.725-.737-3.458-.526-.734.21-1.886.946-2.201 1.052-.314.105-2.2.946-3.039 1.262-.838.315-2.305.736-3.248 1.157-.943.42-1.991.736-2.305.736-.21 0-1.258-.631-1.782-.316-.628.316-1.781.737-2.2.947-.419.316-1.153.526-1.257.737 0 .21.314.315.628.21.315-.105.629-.316 1.153-.526.524-.105 1.467-.42 1.257-.316-.209.106-1.257.842-1.781 1.052-.524.21-.419.421-1.467.631-1.048.316-1.677.106-1.362-.105.314-.21.733-.526.419-.63-.314-.106-.524 0-.943.315-.419.315-.734.315-1.677.526-.943.21-1.257.42-1.781.841-.524.42-1.572.42-1.886.526-.21.105-1.048.316-1.572.316s-.838-.421-1.886 0c-1.153.42-3.668 1.157-4.506 1.262-.943.105-1.886-.316-2.41-.842-.524-.42-4.82-8.835-5.658-9.782-.943-.947-3.772-4.208-4.506-4.418-.629-.21-2.724-.316-4.191.21-1.467.526-5.135 1.683-7.021 2.84-1.677 1.473-10.793 7.364-14.88 9.678-4.086 2.314-7.125 3.997-7.963 4.313-.943.315-1.362.315-1.886.525-.524.21-.943-.105-.42-.315.524-.21 2.515-1.262 3.354-1.578.838-.42 2.41-1.473 3.248-1.788.838-.316.42-.42-.524 0-.943.42-2.2.736-3.143 1.262-.944.526-2.62 1.052-3.144 1.473-.629.42-3.039 1.262-5.763 1.578-2.724.21-5.868-.632-6.392-.947-.42-.316-1.467-1.157-1.467-1.157s-.629-4.103-1.362-5.365c-.734-1.367-5.973-8.94-7.126-10.413C35.14 2.869 33.043.765 30.738.765s-6.601 2.42-9.326 4.102C18.688 6.656 7.79 16.227 5.694 18.227 2.865 20.96.56 22.854.98 24.958c.314 2.103 2.934 7.258 4.401 9.046 1.467 1.788 1.991 3.155 4.401 1.157 2.41-1.999 9.85-11.15 15.403-15.147 5.554-3.998 11.212-7.469 12.47-4.313 1.362 3.156 6.182 12.728 8.697 16.515 2.515 3.786 11.422 6.626 20.224 2.524 8.801-4.102 20.013-11.886 23.786-13.885 3.877-1.998 7.335-1.998 7.963-1.788.734.21 4.925 10.624 5.659 12.517.733 1.788 6.496 5.996 13.307 3.05 4.087-1.682 12.47-5.89 19.176-7.993 4.506-1.473 8.278-1.683 8.907-.526 1.572 2.945 2.305 9.15 4.925 10.624 2.619 1.472 4.715 1.157 6.915.315 2.306-.841 3.354-1.367 4.297-2.314.838-.947 3.772-3.156 5.134-3.471 1.362-.316 7.859-4.313 9.431-4.839 1.571-.526 4.505-2.314 4.505-2.314s1.153-.526 1.467-.631c.21-.105.839-.21 1.048-.105.21.105.21.526 0 .526-.209 0-10.478 5.575-11.631 6.206-1.048.63-4.401 2.524-5.134 2.84-.629.21-1.991 1.052-2.725 1.367-.733.316-.628.842-.104.631.523-.21 6.496-3.05 7.858-3.786 1.363-.737 5.449-3.261 6.497-3.892 1.048-.631 1.677-.842 2.62-1.157.943-.316 1.991-.947 2.095-.947.105-.105.839-.526 1.048-.526.105 0 .419.736.419.947 0 .21 2.934 5.68 4.506 6.942 1.677 1.262 3.353 1.999 4.296 2.525 1.048.526 1.258.63 2.096.526.838-.106 1.048-.21 1.257-.421.21-.21.105-.316.629-.105.524.21 1.886.736 3.668.946 1.781.21 2.934.21 3.667.21.734-.105 1.467-.105 1.153-.105-.315-.105-2.096 0-3.458-.42-1.362-.421-2.201-.21-3.249-.632-1.047-.42-.838-.736 0-.841.944 0 3.458.631 4.716.841 1.362.21 3.039.106 4.086.21.943.106 1.782.106 1.887 0 .209-.21.209-.315.628-.315.524 0 .839-.105 1.362-.105.524-.105 1.048-.315.105-.42-1.048-.106-2.41-.421-2.934-.526a11.411 11.411 0 0 1-1.781-.526c-.524-.21-.943-.421-1.048-.526-.21-.106.419-.526 1.257-.526.839 0 1.991.21 2.725.21.733 0 2.724.316 2.62 0-.105-.315-.734-.315-1.258-.526-.419-.105-.733-.316-1.153-.42-.419-.106-.943-.527-.733-.632.21-.105.733-.21.524-.42-.105-.21-.629-.947-.105-1.158.524-.21.838-.63 1.258-.63.419 0 .943-.316 1.257-.316.524-.421 1.257-.631.733-.842ZM26.547 3.29c-.315.42-1.048 1.157-1.887 1.683-.838.526-5.448 4.102-6.496 4.523-1.153.526-3.877 3.26-4.506 3.892-.733.526-2.41 1.893-3.458 2.84-1.152.946-2.515 1.788-2.515 1.788.21-.105 4.716-5.154 9.431-8.625 4.61-3.472 5.973-4.313 7.02-5.05 1.153-.63 1.258-.736 1.887-1.051.524-.316.838-.421.524 0Zm53.86 21.353c-.21.21-.734.42-1.154.631-.314.21-.733.21-1.047.526-.21.316-.63.316-.63.105 0-.21 0-.736.42-.841a5.722 5.722 0 0 0 1.257-.421c.21-.105.524-.42.734-.42.314-.106.733.104.42.42Zm4.714-2.945c-.419.21-1.257.946-1.571 1.052-.315.105-.63.315-.943.736-.315.42-.63.42-.839.526-.314.105-.419-.421-.105-.631.315-.106.839-.842 1.153-1.052.314-.21.524-.316 1.153-.631.733-.421.838-.631 1.257-.526.42.21.314.21-.105.526Zm4.716-14.832c-1.362.42-2.515.947-6.392 3.05-3.982 2.104-9.43 5.891-10.374 6.312-.838.315-.838-.42-.419-.631.42-.21.42-.316 1.886-1.263 1.362-.946 4.715-2.84 6.916-4.312 2.2-1.473 6.078-2.946 7.23-3.261 1.153-.316 2.62-.21 2.62-.21s-.105-.106-1.467.315Zm36.255 9.362c.943-.42 2.83-1.157 3.668-1.368.838-.21-.629.526-1.048.737-.524.21-.838.526-1.153.841-.314.316-1.467.526-1.886.526-.524.105-.209-.315.419-.736Zm-3.248 13.359c.419-.105 1.467-.526 1.677-.631.314-.106 2.095-.631 2.619-.842.629-.21.943-.631 1.467-.841.524-.21.734-.21 1.677-.631.838-.421 1.362-.632 1.781-.737.314-.105 2.096-1.052 2.515-1.052.419 0 1.362-.21 1.572-.315.209-.105.628-.105.524 0-.105.21-.524.736-.839.841-.314.105-1.676.526-2.095.736-.524.106-1.677.421-2.515.737-.839.315-2.096 1.052-2.829 1.367-.734.21-1.572.421-2.306.842-.733.315-.733.315-1.676.736-.943.42-1.467.736-1.467.736-.419.21-.839.21-.839-.105-.209-.315.315-.841.734-.841Zm5.973-.421c-3.982 1.893-6.078 2.735-7.754 3.366-1.677.631-2.306.526-2.306.526s2.096-.947 3.039-1.262c.943-.316 7.021-3.156 9.955-4.313 2.41-1.052 2.2-.841 3.772-1.367 1.257-.421 1.467 0 1.467 0s-4.191 1.157-8.173 3.05ZM179.952 8.97c-.105.526 0 .526-.629 1.052-.733.42-1.467 1.262-1.048 1.052.419-.21.315.42-.209.841-.524.42-.943.42-1.886.842-.944.42-1.363.841-2.62 1.052-1.153.21-2.41 1.051-3.772 1.788-1.363.841-3.668 2.104-5.03 2.84-1.362.736-2.096.315-2.62.841s-.733.316-1.467.421c-.733.105-.524-.42-.524-.42a8.685 8.685 0 0 1 1.677-.947c.419-.316 2.096-.842 2.724-1.052.629-.316 1.677-1.052 2.096-1.263.419-.21 1.886-1.367 2.305-1.683.419-.315 2.62-1.577 3.353-1.893.734-.316 1.782-.841 2.306-.947.524-.105 1.467-.63 1.991-.841.524-.21 1.362-.842 1.676-1.052.315-.21.629-.42 1.048-.631.524-.316.838-.631.629 0Z" fill="#F98D8D" fill-opacity=".5"/></svg>