<svg width="145" height="198" fill="none" xmlns="http://www.w3.org/2000/svg"><g clip-path="url(#a)" fill="#FFCA42"><path opacity=".75" d="M47.488 181.886s15.796-.627 19.799-1.255c4.003-.627 27.805-2.614 30.51-3.241 2.704-.627 12.441-2.928 14.064-1.569 1.623 1.255.216 1.255.757 1.464.541.209 1.623.314 1.731 1.151.108.836 0 1.882.649 2.195.65.419.65 1.569 1.19 1.882.541.314.433.837.325 1.151-.108.313.325 1.045.541 1.359.216.314.974.732.974 1.15 0 .418-.325 1.359-.325 1.359s-.865.837-1.298 1.046c-.433.209-16.12 2.405-19.366 3.032-3.246.628-17.851 2.196-22.72 2.614-4.868.419-12.55 1.569-14.93 2.092-2.272.522-3.678 1.045-4.22.627-.54-.418-2.163-3.032-2.488-3.66-.432-.627-.216-.418-.54-1.15-.325-.732-.541-.836-.866-1.255-.325-.418-.65-.418-1.082-1.463-.433-1.046-.757-2.196-1.407-3.137-.649-1.046-.973-1.046-1.19-2.196-.108-1.464-.108-2.196-.108-2.196Z"/><path opacity=".75" d="M66.31 112.038c-.757 1.15-2.272 4.81-2.488 6.588-.325 1.777-8.114 26.977-9.953 32.832-1.84 5.856-3.138 13.07-3.787 16.103-.65 3.032-1.515 5.542-1.623 5.123-.108-.418.216-2.823.758-4.6.54-1.778.757-3.974 1.298-5.751.54-1.778.649-3.555 1.082-4.706.432-1.15-.758.523-1.407 3.66s-1.623 7.006-1.947 8.574c-.325 1.569-.541 3.346-.974 5.228-.433 1.882-.757 3.66-.757 4.81 0 1.15.108 2.196.649 3.032.54.941.757.941.974 1.883.216.941.973 1.777 1.298 2.509.324.837 1.19 2.405 1.514 2.719.325.313 1.082 1.568 1.299 1.882.216.313.649 1.359.973 1.882.325.523 1.299 1.777 1.731 2.3.433.628 1.407 1.046 1.515.628.108-.419.433-3.869.757-5.542.325-1.673 3.138-16.835 3.462-17.671.325-.837.866-2.928 1.19-3.764.325-.837.217-1.569.325-2.51.108-1.046.433-1.777.866-2.614.432-.941 2.272-6.169 2.596-7.528.433-1.464 4.869-15.057 5.843-17.985.973-2.928 3.678-12.234 4.219-13.698.54-1.464.974-2.3.865-3.032-.108-.732-.324-1.046-.757-1.464-.433-.418-1.19-.523-1.298-1.359-.108-.837.108-1.673-.433-2.196-.541-.523-.433-1.987-.865-1.464-.433.523-.325 2.614-.866 2.196-.541-.418-.65-1.673-.541-1.987.108-.313-.108-1.464-.108-1.464s-.541-.522-.866-.522c-.324 0-.865 0-.865-.523s.108-1.15-.325-1.673c-.433-.523-1.19-.941-1.19-.941s-.54.209-.757.522c-.325.523-1.407.523-1.407.523Z"/><path opacity=".75" d="M57.762 174.776c-.865.732-6.708 5.228-8.006 5.751-1.298.523-3.03 1.986-2.705 2.405.325.418 1.407 2.509 1.731 3.137.217.627 3.138 5.541 3.787 6.901.65 1.464 3.138 5.019 3.57 3.659.433-1.359 36.893-32.937 47.604-45.066 10.819-12.129 29.103-37.747 34.728-55.209 5.518-17.462 8.006-38.688 4.22-53.64-.757-2.823-1.948-5.751-3.354-8.679-2.488-5.019-5.626-10.351-8.98-14.638-4.976-6.274-10.386-10.875-12.766-12.234-4.977-2.823 8.33 6.378 13.74 17.462 5.409 11.083 5.409 17.043 5.95 23.003.541 5.96-.432 17.985-1.622 24.259-1.191 6.169-2.922 11.92-4.112 14.743-1.19 2.823-2.488 3.973-2.163 3.555.324-.418 1.947-5.019 2.921-7.633.973-2.51 2.38-7.738 2.488-9.41.108-1.673-.433.836-1.406 4.077-.974 3.242-2.164 7.215-2.813 8.26-.541 1.151-.541 1.987-.866 2.406-.324.418-.324.732-.757 1.36-.433.731-1.407 1.672-1.407 2.509 0 .836-.108.836-.757 1.882-.541.94-.974 1.673-1.19 2.09-.108.42-1.298 2.092-1.407 3.138-.108.94-.432 1.255-.865 1.673-.433.418-.757.836-.974 1.255-.324.418-6.275 10.979-7.573 13.07-1.298 2.091-11.252 14.22-14.173 17.88-2.92 3.66-15.904 16.939-18.608 19.867-2.813 2.927-11.685 11.397-15.58 14.952-4.11 3.66-8.655 7.215-8.655 7.215Z"/></g><defs><clipPath id="a"><path fill="#fff" transform="matrix(0 1 1 0 .531 .053)" d="M0 0h196.995v144H0z"/></clipPath></defs></svg>