<svg width="441" height="77" fill="none" xmlns="http://www.w3.org/2000/svg"><path opacity=".75" d="M440.625 55.82c-1.09-.218-1.526-.656-2.834-.656-1.525-.219-2.615-.657-3.269-1.313-.654-.438-1.744-.657-1.09-1.533.872-.875 1.526-2.189.654-2.189s-2.834-.438-3.924-.875c-1.089-.22-1.961-.657-2.833-1.095-1.09-.438-2.18-1.094-1.744-1.97.436-.876-.872-1.532-1.744-1.751-.872-.22-11.552-2.19-14.822-2.846-3.27-.657-7.847-1.313-12.206-2.846-4.578-1.532-8.719-3.064-11.117-7.88-2.398-4.816-2.834-7.662-3.924-9.194-1.089-1.533-2.179-5.035-3.923-5.91-1.744-1.095-1.744-1.971-3.052-1.752-1.307.219-2.397.876-3.487 1.313-1.308.438-4.142 1.752-5.232 2.19-1.089.656-1.307 1.313-2.833 1.313-1.526 0-6.539 3.064-8.283 4.16-1.744 1.094-7.411 4.815-8.937 5.472-1.308.656-3.27 2.627-4.795 3.064-1.526.657-2.834 1.752-5.014 2.408-2.179.876-8.937 4.816-12.206 6.13-3.27 1.313-10.463 3.721-13.296 3.283-2.834-.438-5.668-6.13-6.758-8.975-1.09-2.846-5.885-13.572-9.372-15.323-3.706-1.97-5.668-1.533-7.194-1.095-1.525.438-3.923 1.97-4.577 2.19-.654.218-4.577 1.97-6.321 2.626-1.744.657-4.796 1.533-6.757 2.408-1.962.876-4.142 1.532-4.796 1.532-.436 0-2.615-1.313-3.705-.656-1.308.656-3.706 1.532-4.578 1.97-.872.657-2.397 1.094-2.615 1.532 0 .438.654.657 1.307.438.654-.219 1.308-.657 2.398-1.095 1.09-.218 3.052-.875 2.616-.656-.436.219-2.616 1.751-3.706 2.189-1.09.438-.872.875-3.051 1.313-2.18.657-3.488.22-2.834-.219.654-.437 1.526-1.094.872-1.313-.654-.219-1.09 0-1.962.657-.872.656-1.526.656-3.487 1.094-1.962.438-2.616.876-3.706 1.751-1.09.876-3.269.876-3.923 1.095-.436.219-2.18.657-3.27.657-1.09 0-1.744-.876-3.923 0-2.398.875-7.629 2.408-9.373 2.627-1.962.218-3.924-.657-5.014-1.752-1.09-.875-10.026-18.388-11.77-20.358-1.962-1.97-7.847-8.756-9.373-9.194-1.308-.438-5.667-.657-8.719.438-3.051 1.094-10.681 3.502-14.604 5.91-3.488 3.065-22.451 15.324-30.952 20.14-8.501 4.816-14.822 8.318-16.566 8.975-1.962.657-2.834.657-3.924 1.094-1.089.438-1.961-.219-.871-.656 1.089-.438 5.231-2.627 6.975-3.284 1.743-.876 5.013-3.065 6.757-3.721 1.744-.657.872-.876-1.09 0-1.962.875-4.577 1.532-6.539 2.627-1.962 1.094-5.449 2.189-6.539 3.064-1.308.876-6.322 2.627-11.989 3.284-5.667.438-12.206-1.314-13.296-1.97-.872-.657-3.052-2.408-3.052-2.408S90.125 31.74 88.6 29.114C87.074 26.27 76.175 10.507 73.778 7.443 71.162 4.378 66.802 0 62.007 0c-4.795 0-13.732 5.035-19.4 8.537C36.94 12.26 14.271 32.18 9.912 36.338 4.026 42.03-.77 45.97.102 50.348c.655 4.378 6.104 15.105 9.156 18.826 3.051 3.721 4.141 6.567 9.155 2.408 5.013-4.16 20.489-23.204 32.041-31.522 11.553-8.319 23.324-15.543 25.94-8.975 2.833 6.567 12.86 26.487 18.09 34.368 5.232 7.88 23.76 13.79 42.07 5.254 18.309-8.538 41.632-24.737 49.479-28.896 8.065-4.16 15.258-4.16 16.566-3.721 1.526.437 10.245 22.109 11.771 26.05 1.525 3.72 13.514 12.477 27.682 6.348 8.501-3.503 25.939-12.26 39.889-16.637 9.373-3.065 17.22-3.503 18.528-1.095 3.269 6.13 4.795 19.045 10.245 22.11 5.449 3.064 9.808 2.408 14.386.656 4.795-1.75 6.975-2.845 8.937-4.816 1.743-1.97 7.847-6.567 10.68-7.223 2.834-.657 16.348-8.975 19.618-10.07 3.269-1.095 9.373-4.816 9.373-4.816s2.397-1.095 3.051-1.313c.436-.22 1.744-.438 2.18-.22.436.22.436 1.095 0 1.095s-21.797 11.602-24.195 12.916c-2.18 1.313-9.155 5.253-10.681 5.91-1.308.438-4.141 2.19-5.667 2.846-1.526.657-1.308 1.751-.218 1.313 1.09-.438 13.514-6.348 16.348-7.88 2.834-1.533 11.335-6.786 13.514-8.1 2.18-1.313 3.488-1.751 5.45-2.408 1.961-.657 4.141-1.97 4.359-1.97.218-.219 1.744-1.095 2.18-1.095.218 0 .872 1.533.872 1.97 0 .438 6.103 11.822 9.372 14.448 3.488 2.627 6.976 4.16 8.937 5.254 2.18 1.095 2.616 1.314 4.36 1.095 1.744-.22 2.179-.438 2.615-.876.436-.438.218-.657 1.308-.219a29.95 29.95 0 0 0 7.629 1.97c3.706.438 6.104.438 7.629.438 1.526-.219 3.052-.219 2.398-.219-.654-.219-4.359 0-7.193-.875-2.834-.876-4.577-.438-6.757-1.314-2.18-.875-1.744-1.532 0-1.751 1.962 0 7.193 1.313 9.809 1.751 2.833.438 6.321.22 8.5.438 1.962.219 3.706.219 3.924 0 .436-.438.436-.657 1.308-.657 1.09 0 1.744-.219 2.833-.219 1.09-.218 2.18-.656.218-.875-2.179-.22-5.013-.876-6.103-1.095-1.09-.219-2.615-.656-3.705-1.094-1.09-.438-1.962-.876-2.18-1.095-.436-.219.872-1.094 2.616-1.094 1.743 0 4.141.438 5.667.438 1.526 0 5.667.656 5.449 0-.218-.657-1.526-.657-2.615-1.095-.872-.219-1.526-.657-2.398-.876-.872-.219-1.962-1.094-1.526-1.313.436-.219 1.526-.438 1.09-.876-.218-.438-1.308-1.97-.218-2.408 1.09-.438 1.744-1.313 2.616-1.313.871 0 1.961-.657 2.615-.657 1.09-.876 2.616-1.313 1.526-1.751ZM53.288 5.255c-.654.875-2.18 2.408-3.923 3.502C47.62 9.851 38.03 17.294 35.85 18.17c-2.397 1.095-8.065 6.786-9.373 8.1-1.525 1.094-5.013 3.94-7.193 5.91-2.397 1.97-5.231 3.721-5.231 3.721.436-.218 9.809-10.726 19.617-17.95 9.591-7.224 12.425-8.975 14.605-10.507 2.397-1.314 2.615-1.533 3.923-2.19 1.09-.656 1.744-.875 1.09 0Zm112.038 44.438c-.436.437-1.526.875-2.398 1.313-.654.438-1.526.438-2.18 1.094-.435.657-1.307.657-1.307.22 0-.438 0-1.533.872-1.752 1.089-.219 2.179-.657 2.615-.876.436-.218 1.09-.875 1.526-.875.654-.219 1.526.219.872.875Zm9.809-6.13c-.872.438-2.616 1.97-3.27 2.19-.654.218-1.308.656-1.962 1.532-.654.875-1.308.875-1.743 1.094-.654.219-.872-.876-.218-1.313.653-.22 1.743-1.752 2.397-2.19.654-.437 1.09-.656 2.398-1.313 1.526-.875 1.744-1.313 2.616-1.094.872.438.654.438-.218 1.094Zm9.808-30.865c-2.833.875-5.231 1.97-13.296 6.348-8.283 4.378-19.617 12.258-21.579 13.134-1.744.657-1.744-.876-.872-1.313.872-.438.872-.657 3.923-2.627 2.834-1.97 9.809-5.91 14.387-8.975 4.577-3.065 12.642-6.13 15.04-6.786 2.397-.657 5.449-.438 5.449-.438s-.218-.22-3.052.657Zm75.419 19.482c1.962-.876 5.885-2.408 7.629-2.846 1.744-.438-1.308 1.095-2.18 1.533-1.09.438-1.744 1.094-2.398 1.75-.653.658-3.051 1.095-3.923 1.095-1.09.22-.436-.656.872-1.532Zm-6.757 27.801c.872-.219 3.051-1.094 3.487-1.313.654-.22 4.36-1.314 5.45-1.752 1.307-.437 1.961-1.313 3.051-1.75 1.09-.439 1.526-.439 3.488-1.314 1.744-.876 2.833-1.314 3.705-1.533.654-.218 4.36-2.189 5.232-2.189.872 0 2.833-.438 3.269-.656.436-.22 1.308-.22 1.09 0-.218.437-1.09 1.532-1.744 1.75-.654.22-3.487 1.095-4.359 1.533-1.09.22-3.488.876-5.231 1.533-1.744.656-4.36 2.189-5.886 2.845-1.526.438-3.269.876-4.795 1.752-1.526.656-1.526.656-3.488 1.532-1.961.876-3.051 1.532-3.051 1.532-.872.438-1.744.438-1.744-.219-.436-.656.654-1.75 1.526-1.75Zm12.424-.875c-8.283 3.94-12.642 5.691-16.13 7.005-3.487 1.313-4.795 1.094-4.795 1.094s4.359-1.97 6.321-2.627c1.962-.657 14.604-6.567 20.707-8.975 5.014-2.19 4.578-1.751 7.847-2.846 2.616-.875 3.052 0 3.052 0s-8.719 2.408-17.002 6.349ZM372.4 17.075c-.218 1.094 0 1.094-1.308 2.189-1.526.875-3.052 2.627-2.18 2.189.872-.438.654.875-.436 1.751-1.09.876-1.962.876-3.923 1.751-1.962.876-2.834 1.752-5.45 2.19-2.397.437-5.013 2.188-7.847 3.72-2.833 1.752-7.629 4.379-10.462 5.911-2.834 1.532-4.36.657-5.45 1.751-1.089 1.095-1.525.657-3.051.876-1.526.219-1.09-.876-1.09-.876.872-.656 2.398-1.532 3.487-1.97.872-.657 4.36-1.751 5.668-2.189 1.308-.657 3.487-2.189 4.359-2.627.872-.438 3.924-2.846 4.796-3.502.871-.657 5.449-3.284 6.975-3.94 1.526-.657 3.705-1.752 4.795-1.97 1.09-.22 3.052-1.314 4.142-1.752 1.089-.438 2.833-1.751 3.487-2.189.654-.438 1.308-.876 2.18-1.313 1.09-.657 1.744-1.314 1.308 0Z" fill="#F98D8D"/></svg>