<svg width="504" height="430" fill="none" xmlns="http://www.w3.org/2000/svg"><path d="M413.782 78.395c-.351-.208-.715-.403-1.073-.604a2.455 2.455 0 0 0-.678-.692c-4.118-2.68-8.619-4.354-13.296-5.317-8.136-2.491-16.711-3.523-25.242-2.97-6.818.447-13.597 1.838-19.988 4.279-2.436.931-6.227 1.925-7.037 4.807a3.664 3.664 0 0 0-.019 1.912c-.358.73-.251 1.586.157 2.29a4.544 4.544 0 0 0-1.086 2.284c-.295 1.831 1.092 3.65 3.089 3.096.878-.246 1.764-.478 2.642-.718a58.28 58.28 0 0 0 10.409 9.041c.533 1.536 2.103 2.668 3.754 2.398 2.096 1.302 4.689 2.799 7.187 3.466.446 1.957 3.032 3.379 5.06 2.466.998 1.278 2.687 1.919 4.25.73.239-.176.458-.365.697-.547l.05-.05a92.368 92.368 0 0 0 9.63-8.588c3.12-2.391 6.152-4.895 9.071-7.544 1.72-1.56.985-4.083-.553-5.323a2.54 2.54 0 0 0-.244-.352c3.986.214 7.972.434 11.946.61 2.542.114 3.352-3.46 1.268-4.687l.006.013Zm-48.199 10.727a25.29 25.29 0 0 0-.621.566c-.27-.189-.54-.384-.81-.579.22-.012.446-.031.665-.05.251.025.509.044.76.063h.006Z" fill="#F7A392"/><path d="M408.253 59.224c-.514-3.46-.113-6.958-1.349-10.293-.678-1.818-1.545-3.466-1.702-5.448-.144-1.844.138-3.7.176-5.543a36.26 36.26 0 0 0-.979-9.23c-2.781-11.5-12.336-21.183-24.627-20.655-.22 0-.339-.013-.496-.025-12.386-.636-22.147 8.959-24.941 20.523a36.26 36.26 0 0 0-.979 9.23c.038 1.843.314 3.7.176 5.542-.151 1.982-1.023 3.63-1.701 5.449-1.243 3.334-.835 6.833-1.35 10.293-.446 3.007-2.298 5.738-1.463 8.82.069.252.333.479.603.46 6.478-.453 12.85 1.378 18.958-1.252 3.365-1.447 10.628-1.988 10.666-6.726.075 0 .157 0 .232-.012-.132 4.888 7.263 5.43 10.666 6.895 6.108 2.624 12.479.8 18.958 1.252.27.02.54-.207.602-.459.835-3.083-1.017-5.807-1.462-8.82h.012Z" fill="#1F2144"/><path d="M482.318 79.704a1.817 1.817 0 0 0-.484.157c.188-1.624-2.166-2.743-2.875-1.032-5.267 12.652-11.13 26.72-23.886 33.446-5.612 2.957-25.16 6.235-31.149-20.781-.145-.642-5.324 8.884-5.851 9.248-2.392 1.674-4.777 3.354-7.169 5.027-1.613 1.133-4.281 2.385-5.085 4.354-1.613-2.516-1.28 3.14 0 0 19.285 30.086 44.872 24.223 53.064 19.642 8.394-4.693 14.765-14.835 18.839-23.272a81.964 81.964 0 0 0 5.914-16.59c.427-1.781 3.377-10.936-1.312-10.2h-.006Z" fill="#F79884"/><path d="M336.506 285.488c.132 22.618 10.007 99.947 10.132 122.565 0 .743.49 1.259 1.149 1.517 3.666 1.44 6.435-1.661 7.307-4.945 1.519-5.688 1.946-11.942 2.8-17.762 3.07-20.988 4.765-42.046 6.07-63.205 1.344-21.781 3.616-43.474 6.962-65.042.308-1.982-2.718-2.837-3.026-.843-.144.944-.288 1.888-.426 2.831-4.037.271-8.356.711-11.859 2.876-3.785 2.34-8.857-16.704-9.705-12.508-4.394 21.857-9.535 12.35-9.404 34.509v.007Z" fill="#F7A392"/><path d="M338.848 427.658c1.306.315 3.239-.522 4.451-.881 1.789-.522 3.71-1.088 5.405-1.868 2.718-1.259 4.043-6.726 5.731-9.085 2.26-3.165 2.31-3.448 1.833-7.217-.634-5.002-.132-9.808.59-14.779.113-.792-1.098-1.126-1.211-.333-.358 2.485-.716 4.977-.885 7.481-.051 0-.107-.013-.164 0-2.956.478-8.054 1.113-8.041 5.039.019 6.531-8.487 13.886-8.833 17.063-.163 1.529-.941 4.077 1.124 4.574v.006Z" fill="#F7A392"/><path d="M336.269 429.722c.634.572 1.84.125 2.53.012 2.222-.358 4.463-.711 6.673-1.139 2.856-.553 4.915-1.579 6.133-4.328.854-1.925 1.538-3.825 2.31-5.681l.252 5.052c.006.163.138.327.313.314.471-.031.923-.088 1.394-.17.126-.025.239-.176.232-.302a35.805 35.805 0 0 1 1.005-10.871c.314-.674-.716-1.309-1.187-.642a36.568 36.568 0 0 0-2.473 3.97 31.43 31.43 0 0 0-1.865 4.171c-.157.447-.295.906-.433 1.372-.025 0-.037-.019-.062-.019-4.458-.39-8.193-.749-12.643-.309-.214.019-.446.233-.503.441-.401 1.472-3.082 6.858-1.663 8.141l-.013-.012Z" fill="#1F2144"/><path d="M376.952 283.55c.057 22.618 9.674 99.979 9.73 122.597 0 .743.49 1.265 1.143 1.523 3.66 1.447 6.441-1.642 7.326-4.92 1.538-5.682 1.99-11.935 2.856-17.755 3.139-20.976 4.903-42.028 6.278-63.18 1.412-21.775 3.754-43.462 7.175-65.017.314-1.982-2.706-2.844-3.026-.849-.151.943-.295 1.887-.439 2.831-4.037.258-8.356.679-11.871 2.837-3.792 2.328-8.808-16.729-9.661-12.539-4.464 21.838-9.574 12.319-9.517 34.478l.006-.006Z" fill="#F7A392"/><path d="M416.451 198.96c-4.212-19.85-7.363-23.644-7.665-31.804-.094-2.498 1.35-11.967.314-14.313-1.148-2.599-65.28-2.756-65.393-2.674-.301-1.617.301 12.382.207 14.263-.515 10.437-4.294 14.722-6.698 24.744-2.436 10.161-15.066 101.609-9.975 139.044.119.856.716 1.548 1.569 1.573 18.645.44 42.054.78 63.862 1.025 2.153-10.576 2.994-19.129 5.869-29.56.264-.944 1.444-.982 1.959-.258 2.888 4.077.992 20.375.854 29.736 5.625.057 16.755.328 21.808.365.904.007 1.551-.729 1.569-1.572.591-34.025-1.123-96.84-8.28-130.563v-.006Z" fill="#F5E4D5"/><path d="M378.83 425.727c1.306.321 3.24-.516 4.451-.862 1.789-.516 3.716-1.076 5.411-1.856 2.719-1.246 4.068-6.713 5.757-9.066 2.272-3.159 2.323-3.436 1.858-7.21-.621-5.002-.1-9.809.634-14.779.119-.793-1.092-1.133-1.211-.334-.371 2.485-.735 4.977-.911 7.481-.05 0-.106-.013-.163-.006-2.957.471-8.054 1.088-8.054 5.014 0 6.531-8.531 13.854-8.889 17.037-.17 1.529-.954 4.077 1.111 4.581h.006Z" fill="#F7A392"/><path d="M376.244 427.778c.634.572 1.84.132 2.53.019 2.229-.353 4.464-.692 6.68-1.12 2.862-.548 4.921-1.567 6.145-4.31.86-1.925 1.551-3.819 2.329-5.675l.233 5.052c.006.164.138.327.313.315.471-.025.93-.082 1.394-.164.132-.025.239-.176.232-.302a35.837 35.837 0 0 1 1.042-10.872c.314-.673-.709-1.308-1.186-.641a36.267 36.267 0 0 0-2.486 3.957 30.66 30.66 0 0 0-1.877 4.165 20.61 20.61 0 0 0-.433 1.365c-.025 0-.038-.019-.063-.019-4.457-.402-8.186-.78-12.643-.352-.213.019-.446.233-.502.44-.408 1.473-3.107 6.852-1.695 8.135l-.013.007Z" fill="#1F2144"/><path d="M398.437 25.91c.031-3.938-1.802-5.586-4.959-7.297-17.013-9.218-32.286-.787-32.393 1.635-.427 9.847-1.268 22.405 3.296 31.3 3.415 6.664 10.101 12.559 17.734 9.28 7.966-3.422 16.165-13.054 16.322-34.917ZM502.41 69.153c.697-.762 1.526-1.73 1.576-2.48.132-1.943-2.128-.509-2.8.095-1.412 1.258-2.806 2.523-4.262 3.737-.735.61-1.451 1.252-2.216 1.819-.377.276-2.493 1.572-2.989 1.056a879.216 879.216 0 0 0 6.021-5.85c.828-.819 3.672-3.297 2.944-4.757-.088-.183-.245-.264-.446-.258-2.316.1-4.67 2.75-6.158 4.31-.992 1.044-2.505 3.403-3.899 3.888-.389.132-.721.094-1.017-.057a11.442 11.442 0 0 1-.834-1.252 8.75 8.75 0 0 0-.471-.969c-.038-.081-.076-.157-.107-.245a.432.432 0 0 0-.157-.189c-.571-.874-1.337-1.61-2.404-2.089-1.814-.811-5.167-1.264-6.686.29-.226.233-.075.516.163.616.145.271.264.321.66.466 1.073.396 2.203.46 3.245.994 1.381.711 2.498 1.736 3.202 3.014.339 1.453.087 2.95-.911 4.221-.922 1.17-2.216 1.724-3.584 2.077-.013-.044-.025-.095-.057-.139-1.393-2.114-1.971-4.517-2.241-7.015-.119-1.076.239-3.045-.822-3.712a.439.439 0 0 0-.534.05.403.403 0 0 0-.27.22c-.991 1.92-1.418 4.323-1.211 6.48.163 1.712.967 3.21 1.82 4.67.138 1.163-.232 2.214-.521 3.447-.194.83-.427 2.101-.037 2.976a.665.665 0 0 0-.019.164v.132c0 .163.188.358.358.358h.1c.031 0 .057-.012.082-.012.094.063.188.12.301.163a.368.368 0 0 0 .245.013c.584.402 1.349 1.094 1.638 1.258.339.195.71.516 1.118.566.696.095 1.4-.396 1.971-.742 2.423-1.46 4.633-3.473 6.635-5.455.427-.421.917-.862 1.381-1.327 1.425-.919 2.794-1.926 4.099-2.895a65.047 65.047 0 0 0 4.847-3.976c.935-.85 2.41-1.868 2.435-3.252 0-.195-.062-.321-.213-.422l.025.013Z" fill="#F7A392"/><path d="m388.221 71.002 2.674-32.823c0-1.252-2.969 2.819-4.017 3.58-5.336 3.857-9.605 5.046-15.983 5.713a1.866 1.866 0 0 0-.521.138c-.891 0-.822.428-.816 1.58.025 7.36-1.632 21.605.019 28.84.427 1.881.86-.95 2.818-.1 1.325.572 3.773.32 5.23.446 1.858.157 1.644-.044 3.503.113 2.027.17 4.62 1.661 6.34.02 1.676-1.599.766-5.575.759-7.507h-.006Z" fill="#F7A392"/><path d="M371.512 37.562c.019 1.17-.527 2.127-1.218 2.14-.69.012-1.261-.932-1.274-2.102-.019-1.17.527-2.126 1.218-2.139.69-.012 1.262.931 1.274 2.101ZM388.317 37.94c-.013 1.17-.584 2.114-1.268 2.102-.691-.007-1.237-.963-1.225-2.133.013-1.17.584-2.114 1.268-2.102.685.013 1.237.963 1.225 2.133ZM391.495 31.714c-.032-.032-.663-.204-.689-.204-1.972-.44-4.66-.781-6.554-.208-.983.298-1.946 1.028-.56 1.38 1.185.303 2.883.26 4.133.283 1.015.016 2.252.126 3.215-.149 1.165-.33 1.21-.738.455-1.106v.004ZM365.844 32.533c.91.33 2.166.307 3.187.358 1.256.062 2.945.213 4.181-.004 1.453-.257.622-1.038-.301-1.399-1.786-.691-4.535-.532-6.583-.23-.026 0-.687.125-.726.156-.825.311-.857.715.249 1.12h-.007Z" fill="#1F2144"/><path d="M384.305 49.988c-6.033 2.158-11.413-.415-11.733-.314-.132.044-.27.145-.245.29.515 2.617 3.478 4.089 5.782 4.22 2.404.14 5.769-1.283 6.56-3.8.069-.213-.126-.49-.371-.402l.007.006Z" fill="#fff"/><path d="M380.047 46.868c-1.664.409-3.202-.132-3.377-1.988-.082-.862.201-1.976.301-2.838.207-1.856.446-3.706.697-5.549.056-.403-.571-.434-.628-.032a234.655 234.655 0 0 0-.596 4.675c-.157 1.372-.578 2.982-.408 4.36.232 1.963 2.555 2.385 4.143 1.988.389-.094.257-.71-.132-.616Z" fill="#DB745E"/><path d="M276.757 131.54c-.433-.699-1.952-1.127-2.611-1.485a55.799 55.799 0 0 1-3.007-1.768c-.289-2.724-2.285-4.952-3.974-7.172-1.488-1.957-3.591-6.342-6.679-5.864-.245.038-.483.327-.345.585.835 1.535 2.178 2.73 3.126 4.203a19.745 19.745 0 0 1 1.45 2.686c-.797-.66-1.638-1.258-2.511-1.629-2.806-1.68-5.731-3.127-8.795-4.285-1.933-.73-4.94-2.227-7.05-1.592-.131.038-.244.195-.257.327-.195 1.825 3.716 2.794 4.94 3.272a75.45 75.45 0 0 1 7.207 3.221c-.075.076-.157.151-.232.233l-.258.258c-2.868-1.063-5.762-2.076-8.688-2.982-1.958-.604-4.67-1.68-6.71-1.07-.189.057-.264.271-.264.447.019.843.816 1.07 1.5 1.416 1.488.748 3.032 1.352 4.602 1.912 2.435.869 4.909 1.624 7.313 2.561-.025.031-.05.063-.082.094-2.605-.799-5.254-1.535-7.947-1.988-1.287-.214-4.419-.944-5.392.296a.423.423 0 0 0-.063.421c.502 1.246 2.869 1.68 4.313 2.014a26.281 26.281 0 0 0-2.901.037c-.332.026-.464.428-.288.68.973 1.39 3.779 1.762 5.354 2.164 2.442.623 4.909 1.108 7.314 1.856.131.107.257.22.383.327 1.713 1.492 3.697 3.108 5.718 4.159.716.371 1.382.541 1.997.554.659.157 1.362.17 2.178.138 3.082-.1 5.574.485 8.092 2.347.314.233.703-.031.822-.333.49-1.29 2.612-4.65 1.752-6.034l-.007-.006ZM398.33 35.316c-1.545-1.484-4.213-.031-4.734 1.743-.113.384.139.63.446.68-.276.642-.439 1.403-.483 2.164-.245.9-.339 1.787-.195 2.422 0 .321.019.642.044.963-.138.365-.188.736-.044 1.082.936 2.227 3.855-.868 4.394-1.85.967-1.768 2.311-5.524.565-7.197l.007-.007Z" fill="#F7A392"/><path d="M358.785 35.09c1.374-1.642 4.187-.49 4.89 1.22.157.372-.069.636-.371.724.346.61.591 1.346.716 2.095.345.875.527 1.743.452 2.385.031.314.05.635.063.956.176.346.27.71.163 1.07-.691 2.315-3.93-.441-4.57-1.36-1.155-1.654-2.9-5.234-1.343-7.09Z" fill="#F79884"/><path d="M398.926 30.912a.769.769 0 0 0 .088-.195 1.78 1.78 0 0 0 1.682-2.114 16.438 16.438 0 0 0-1.663-4.951c.54-.466.822-1.265.377-2.102-1.777-3.309-5.129-5.51-8.795-6.838 0-.843-.503-1.743-1.501-1.85a74.851 74.851 0 0 0-8.638-.44c-.087-.535-.426-.988-1.104-1.133-2.361-.484-4.489-.063-6.623.56-.333-.598-.973-1.013-1.739-.83-1.362.32-2.725 1.006-4.018 1.83-.558-.604-1.506-.868-2.297-.188-2.204 1.893-4.552 3.995-4.934 7.134-.082.654.238 1.139.703 1.403a29.854 29.854 0 0 0-2.129 7.298c-.238 1.485 1.162 2.372 2.147 2.052a28.843 28.843 0 0 0-.389 2.95c-.063.837 1.086.881 1.231.107 0-.012.012-.019.018-.031 1.783-5.304 6.378-7.538 10.923-9.394 3.214-1.314 5.462-3.693 6.899-6.883.365 1.9.942 3.77 2.191 5.285 1.783 2.171 4.426 2.662 6.793 3.92 2.975 1.58 4.193 4.21 6.39 6.568.672.724 2.995 1.92 3.233 1.548a3.58 3.58 0 0 0 1.475-.516c.867-.516.352-1.736-.452-1.761.069-.133.12-.29.132-.479.019-.314.025-.629.025-.943l-.025-.007Z" fill="#1F2144"/><path d="M396.243 37.393a8.171 8.171 0 0 1-.866 3.56c-.183.36.364.68.539.315a8.975 8.975 0 0 0 .955-3.875c.006-.403-.622-.403-.628 0ZM362.238 40.539a9.26 9.26 0 0 1-.797-3.354c-.019-.402-.647-.402-.628 0 .063 1.284.358 2.504.885 3.675.163.37.709.05.54-.315v-.006Z" fill="#DB745E"/><path d="M368.34 21.318c-2.586 3.013-5.172 6.16-6.867 9.701-.151-1.617-2.606-2.202-3.039-.371a120.374 120.374 0 0 0-3.233 25.361 6.781 6.781 0 0 0-.031 1.605c.182 1.982 3.126 2.057 3.139 0 0-.384.019-.762.025-1.145.32-2.473 2.31-4.474 3.296-6.745 1.161-2.674 1.104-5.55 1.054-8.405-.119-7.418 3.202-12.332 7.879-17.787 1.312-1.529-.904-3.762-2.223-2.227v.013Z" fill="#1F2144"/><path d="M409.14 170.755c-.032-.208-.063-.409-.088-.623-2.178-.075-4.357-.145-6.535-.207a476.712 476.712 0 0 0-2.329-16.346c-.063-.396-.672-.226-.603.17a468.54 468.54 0 0 1 2.304 16.163 928.332 928.332 0 0 0-45.851-.157c-4.263.094-8.525.226-12.787.371-.044.214-.082.421-.126.629a936.22 936.22 0 0 1 58.84-.226 470.02 470.02 0 0 1 3.433 69.175 478.274 478.274 0 0 1-1.199 24.028c-.031.402.597.402.628 0a471.048 471.048 0 0 0-1.412-86.226 434.79 434.79 0 0 0-.816-6.952c2.153.063 4.312.126 6.465.201h.082-.006Z" fill="#DBC6B6"/><path d="M413.632 82.887c-.082-2.277-.879-4.297-2.11-6.059-3.973-2.491-8.286-4.077-12.762-5.002-.345.403-.722.844-1.168 1.303-3.572 3.693-7.916 6.713-12.844 8.254-10.037 3.127-20.546-.786-25.549-10.116a64.13 64.13 0 0 0-5.694 1.862c-2.436.931-6.227 1.925-7.037 4.807a3.664 3.664 0 0 0-.019 1.912c-.358.73-.251 1.586.157 2.29a4.544 4.544 0 0 0-1.086 2.284c-.295 1.831 1.092 3.65 3.089 3.096.878-.246 1.764-.478 2.642-.718a58.275 58.275 0 0 0 10.409 9.041c.533 1.536 2.103 2.668 3.754 2.398 2.096 1.302 4.689 2.799 7.187 3.466.446 1.957 3.032 3.379 5.06 2.466.998 1.278 2.687 1.919 4.25.73.239-.176.458-.365.697-.547l.05-.05a92.368 92.368 0 0 0 9.63-8.588c3.12-2.391 6.152-4.895 9.071-7.544 1.72-1.56.985-4.083-.553-5.323a2.54 2.54 0 0 0-.244-.352c3.986.214 7.972.434 11.946.61a2.31 2.31 0 0 0 1.124-.233v.013Zm-48.67 6.839c-.27-.189-.54-.384-.81-.579.22-.012.446-.031.665-.05.251.025.509.044.76.063-.207.182-.414.371-.622.566h.007Z" fill="#A0A2CA"/><path d="M482.211 103.624c.546-1.088.816-2.51 1.117-3.347.49-1.365 2.059-3.876 1.463-5.373-.64-1.598-3.905-2.278-5.298-2.9-1.714-.762-4.62-2.857-6.548-2.693-1.387.113-1.776 1.088-2.341 2.265-1.036 2.164-1.883 4.416-2.662 6.688-3.189-.963-6.064.748-8.462 3.07-1.996 1.938-3.779 4.102-6.51 5.033-3.264 1.12-6.491-.057-9.466-1.409-1.777-.806-3.641-1.089-5.518-1.252-3.641-2.353-6.956-5.09-9.674-8.72-2.718-3.624-11.431-14.257-12.825-15.736-3.064-3.24-6.943-5.65-11.664-7.065-7.087 10.01-15.556 19.12-25.236 26.626-.684.535-1.757.95-2.567.333-5.405-4.12-23.359-24.669-24.457-26.531-16.259 5.876-23.667 18.617-31.074 33.679-2.518 3.881-4.928 8.009-7.967 11.475-2.969 3.379-6.936 5.612-10.012 8.884-1.984 2.114-3.622 3.756-6.761 3.851-2.022.062-4.018-.384-6.039-.101-1.557.22-2.938.749-4.018 1.642-.935-.44-1.864-.881-2.8-1.321-1.029-.485-2.103-1.152-3.239-1.322a1.33 1.33 0 0 0-.659.07c-.609-.17-1.331.05-1.569.824-.609 1.982-1.212 3.97-1.821 5.952-.471 1.547-1.689 3.932-1.582 5.549.163 2.41 4.746 3.404 6.83 4.058 4.194 4.681 8.996 9.62 15.631 10.11 3.547.265 6.805-1.384 10.302-1.547 3.986-.195 7.796.906 11.827.459 2.956-.327 6.327-.554 8.989-1.994 2.8-1.51 4.859-4.348 6.774-6.808a67.175 67.175 0 0 0 5.43-8.198c1.136 3.498 2.015 7.154 1.977 9.287-.1 5.788-.333 6.807 1.193 12.451a60.762 60.762 0 0 0 1.375 4.372c10.125 1.353 29.052-.327 38.72-.39 5.298-.038 18.236.736 23.49 1.334.327.038.653.069.986.107.722-.975 1.45-1.938 2.134-2.945 1.714-2.516 1.651-5.914 2.574-8.801 1.299-4.084 3.377-17.12 4.865-22.965 2.097 1.208 6.108 3.259 8.217 4.448 3.566 2.007 7.32 3.914 11.482 4.121 4.124.202 8.318-1.321 12.103-2.793 2.122-.824 4.175-1.963 6.435-2.309 2.573-.39 5.154.302 7.734-.044 6.233-.837 13.791-6.959 15.511-13.093.672-2.391 1.043-4.316 2.549-6.411 1.149-1.592 2.411-3.171 2.875-5.127.515-2.19-.182-4.272-1.808-5.518l-.006.025Z" fill="#4F5170"/><path d="M412.188 117.289c-1.915-4.416-3.679-8.959-4.501-13.728-.848-4.92-.528-9.99.853-14.785a33.803 33.803 0 0 1 5.474-10.966c-.157-.139-.314-.27-.47-.41-4.671 6.217-7.207 13.987-6.931 21.807.352 9.973 5.468 18.825 9.165 27.834a75.424 75.424 0 0 1 1.319 3.429c.012-.044.025-.088.031-.132.213.126.458.258.709.403-1.594-4.581-3.722-9.022-5.643-13.452h-.006Zm-76.084-34.968c-.22.214-.434.428-.647.642.433 13.319 5.386 26.909 5.091 40.184-.132 5.738-1.086 11.413-2.109 17.05.314-.503.609-1.019.91-1.529.697-3.926 1.325-7.864 1.639-11.841.395-5.052.119-10.072-.584-15.081-1.375-9.814-4.112-19.466-4.3-29.425ZM448.636 108.79a72.75 72.75 0 0 1-8.443 4.63c-.364.17-.05.711.314.541a73.328 73.328 0 0 0 8.443-4.63c.339-.214.025-.762-.314-.541ZM284.359 135.422c-1.067 2.825-2.141 5.643-3.208 8.468-.144.378.464.541.603.17 1.067-2.825 2.14-5.643 3.207-8.468.145-.378-.464-.541-.602-.17ZM302.861 148.898a43.668 43.668 0 0 1-5.882-5.153c-.283-.296-.722.151-.446.447a45.044 45.044 0 0 0 6.008 5.253c.326.239.64-.308.314-.541l.006-.006ZM302.288 151.748a18.324 18.324 0 0 1-5.173-2.957c-.314-.252-.759.189-.445.447a19.146 19.146 0 0 0 5.448 3.12c.377.139.54-.465.17-.604v-.006ZM481.693 102.454c-4.175-1.39-8.349-2.793-12.53-4.165-.383-.126-.553.484-.17.604 4.188 1.365 8.356 2.775 12.53 4.165.383.126.547-.478.17-.604Z" fill="#20223F"/><path d="M230.81 412.606 226.726 5.804c0-3.153-2.508-5.66-5.59-5.589L5.446 0C2.365 0 0 2.58 0 5.733l4.085 406.802c0 3.153 2.508 5.661 5.589 5.589l215.69.143c3.01 0 5.446-2.508 5.446-5.661Z" fill="#4F5170"/><path d="m217.984 399.851-3.583-380.002c0-2.794-2.221-5.016-4.873-4.944l-190.61-.716c-2.651 0-4.8 2.293-4.8 5.087L17.7 399.278c0 2.795 2.222 5.016 4.873 4.945l190.61.716c2.651 0 4.801-2.293 4.801-5.088Z" fill="#fff"/><path d="M73.377 71.515c-.072-.645-.43-1.147-.86-1.147-9.96-.501-39.125-.501-41.418-.645-1.863-.071-1.505 2.222-1.505 2.652.072 9.315 1.505 30.669 1.791 35.184.144 2.006.359 3.009 1.864 3.511 2.866.931 32.03.788 39.196.931 2.294 0 2.509-.788 2.294-5.947-.86-19.921.358-17.341-1.362-34.54Z" fill="#A7C6DF"/><path d="M61.05 83.41c-.573-.358-1.36-.143-1.72.43l-7.38 12.755-3.081-4.013c-.43-.573-1.218-.645-1.792-.215-.573.43-.645 1.218-.215 1.792l4.228 5.517c.43.574 1.218.645 1.792.215.215-.143.358-.43.43-.645L61.48 85.13c.43-.645.215-1.433-.43-1.72Z" fill="#4F5170"/><path d="M88.21 107.845c.215 2.007 1.29 3.583 4.873 3.655 18.846.215 95.735.071 103.474-.072 5.088-.143 5.374-1.003 5.231-3.368-.716-9.674-.072-23.217-1.003-35.04-.143-2.15 1.075-3.225-3.87-3.153-6.019.071-80.686-.216-106.77-.574-4.873-.071-4.084 4.586-4.013 5.303 1.003 13.902 1.433 26.442 2.078 33.249Z" fill="#F5E4D5"/><path d="M187.384 79.254c-29.38-.072-58.76-.072-88.14-.144-.43 0-.501.717 0 .717 29.38.072 58.76.072 88.14.143.501 0 .501-.716 0-.716Zm.143 11.608c-29.38-.071-58.76-.071-88.14-.143-.43 0-.5.717 0 .717 29.38.071 58.76.071 88.14.143.502 0 .502-.717 0-.717Zm-.358 10.821c-8.456-.144-16.84-.072-25.296.143-.43 0-.501.716 0 .716 8.456-.214 16.84-.214 25.296-.143.43 0 .43-.716 0-.716Z" fill="#4F5170"/><path d="M74.451 281.615c-.071-.645-.43-1.146-.86-1.146-9.96-.502-39.125-.502-41.418-.645-1.863-.072-1.505 2.221-1.505 2.651.072 9.316 1.505 30.67 1.792 35.184.143 2.006.358 3.01 1.863 3.511 2.866.932 32.03.789 39.197.932 2.293 0 2.508-.788 2.293-5.948-.86-19.992.358-17.341-1.362-34.539Z" fill="#A7C6DF"/><path d="M62.414 292.292c-.573-.358-1.362-.143-1.72.43l-7.38 12.755-3.082-4.013c-.43-.573-1.218-.645-1.791-.215-.574.43-.645 1.218-.215 1.792l4.227 5.517c.43.573 1.219.645 1.792.215.215-.143.358-.43.43-.645l8.169-14.116c.358-.645.143-1.434-.43-1.72Z" fill="#4F5170"/><path d="M92.653 317.802c.215 2.007 1.29 3.583 4.873 3.655 18.846.286 95.735.501 103.474.358 5.087-.072 5.374-.931 5.231-3.296-.645-9.674 0-23.217-.86-35.113-.143-2.149 1.075-3.224-3.87-3.152-6.019.071-80.687-.574-106.77-1.004-4.873-.071-4.084 4.586-4.013 5.303.932 13.902 1.362 26.442 1.935 33.249Z" fill="#F5E4D5"/><path d="M193.044 288.853c-29.38-.359-58.76-.789-88.14-1.147-.429 0-.429.717 0 .717 29.38.358 58.76.788 88.14 1.146.501 0 .501-.716 0-.716ZM192.759 300.461c-29.38-.358-58.76-.788-88.14-1.146-.43 0-.43.716 0 .716 29.38.359 58.76.789 88.14 1.147.43 0 .43-.717 0-.717ZM130.059 310.637c-8.384-.358-16.839-.502-25.295-.502-.43 0-.43.717 0 .717 8.456 0 16.839.215 25.295.501.502 0 .502-.716 0-.716Z" fill="#4F5170"/><path d="M72.662 141.74c-.072-.645-.43-1.147-.86-1.147-9.96-.502-39.125-.502-41.418-.645-1.863-.071-1.505 2.222-1.505 2.652.072 9.315 1.505 30.669 1.792 35.184.143 2.006.358 3.009 1.863 3.511 2.866.931 32.03.788 39.197.931 2.293 0 2.508-.788 2.293-5.947-.932-19.921.286-17.341-1.362-34.539Z" fill="#A7C6DF"/><path d="M59.117 151.557c-.573-.358-1.361-.143-1.72.43l-7.38 12.827-3.082-4.013c-.43-.573-1.218-.645-1.791-.215-.574.43-.645 1.218-.215 1.791l4.228 5.518c.43.573 1.218.645 1.791.215.215-.143.358-.43.43-.645l8.169-14.117c.358-.644.143-1.433-.43-1.791Z" fill="#4F5170"/><path d="M88.354 177.999c.144 2.006 1.219 3.582 4.801 3.726 18.846.501 95.735 1.505 103.474 1.433 5.088-.072 5.446-.932 5.303-3.296-.573-9.674.215-23.218-.501-35.113-.144-2.149 1.146-3.153-3.87-3.224-6.019 0-80.687-1.433-106.77-2.078-4.873-.144-4.156 4.514-4.085 5.302.86 13.83 1.075 26.37 1.648 33.25Z" fill="#F5E4D5"/><path d="M186.887 149.765c-29.38-.573-58.76-1.218-88.14-1.791-.43 0-.5.716 0 .716 29.38.573 58.76 1.218 88.14 1.792.502.071.502-.645 0-.717Zm-88.498 10.534c29.38.573 35.113 1.003 64.493 1.648.43 0 .501-.717 0-.717-29.38-.573-35.113-1.003-64.493-1.648-.501 0-.501.717 0 .717Zm87.28 12.898c-29.38-.573-58.76-1.218-88.14-1.791-.43 0-.501.716 0 .716 29.38.574 58.76 1.219 88.14 1.792.501.071.501-.645 0-.717Z" fill="#4F5170"/><path d="M74.236 209.456c-.071-.645-.43-1.146-.86-1.146-9.96-.502-39.125-.502-41.418-.645-1.863-.072-1.505 2.221-1.505 2.651.072 9.316 1.505 30.67 1.792 35.184.143 2.007.358 3.01 1.863 3.511 2.866.932 32.031.789 39.197.932 2.293 0 2.508-.788 2.293-5.948-.86-19.921.287-17.341-1.362-34.539Z" fill="#A7C6DF"/><path d="M61.55 222.068c-.573-.358-1.36-.143-1.72.43l-7.38 12.755-3.081-4.013c-.43-.573-1.218-.644-1.792-.215-.573.43-.645 1.219-.215 1.792l4.228 5.518c.43.573 1.218.644 1.792.215.215-.144.358-.43.43-.645l8.169-14.117c.358-.645.143-1.433-.43-1.72ZM186.454 217.482c-29.38-.358-58.76-.788-88.14-1.147-.43 0-.43.717 0 .717 29.38.358 58.76.788 88.14 1.147.43 0 .43-.717 0-.717Z" fill="#4F5170"/><path d="M89.072 247.005c.143 2.007 1.218 3.583 4.8 3.727 18.847.501 95.736 1.576 103.475 1.504 5.088-.071 5.446-.931 5.303-3.296-.574-9.674.286-23.217-.43-35.112-.144-2.15 1.146-3.153-3.87-3.225-6.019 0-80.687-1.433-106.77-2.15-4.873-.143-4.156 4.515-4.085 5.303.788 13.902 1.004 26.442 1.577 33.249Z" fill="#F5E4D5"/><path d="M96.523 219.345c29.38.358 35.113.788 64.493 1.147.429 0 .429-.717 0-.717-29.38-.358-35.113-.788-64.493-1.147-.501 0-.501.717 0 .717Zm87.423 12.254c-29.38-.359-58.759-.789-88.14-1.147-.43 0-.43.717 0 .717 29.381.358 58.76.788 88.14 1.146.43 0 .43-.716 0-.716Z" fill="#4F5170"/><path d="M214.663 25.5c0-5.701-2.223-10.233-4.876-10.087L19.058 13.952c-2.653 0-4.804 4.677-4.804 10.378l.072 20.026h200.409l-.072-18.856Z" fill="#A7C6DF"/><path fill-rule="evenodd" clip-rule="evenodd" d="M112.117 37.705c.518 0 .747-.255 1.037-.559l2.764-2.899-3.448-2.243" fill="#fff"/><path fill-rule="evenodd" clip-rule="evenodd" d="m112.5 32.193 8.451 6.203c.964.53 1.66.255 1.9-.89l3.44-16.105c.352-1.403-.538-2.04-1.461-1.623l-20.199 7.739c-1.379.549-1.371 1.313-.251 1.654l5.183 1.607 12.001-7.522c.566-.341 1.086-.158.66.219" fill="#fff"/><path d="M17.63 399.278c0 2.795 2.222 5.016 4.873 4.945l190.61.716c2.652 0 4.801-2.293 4.801-5.088l-.215-24.578-200.355-.717.286 24.722Z" fill="#A7C6DF"/><path d="M120.028 394.405h-8.527c-.86 0-1.576-.645-1.576-1.504l-.359-6.665c0-.43.144-.859.43-1.218.287-.358.717-.501 1.147-.501h8.527c.86 0 1.577.645 1.577 1.504l.358 6.665c0 .43-.143.86-.43 1.218-.287.286-.717.501-1.147.501Zm-8.885-9.172c-.215 0-.502.072-.645.287-.143.143-.287.43-.215.645l.358 6.664c0 .502.43.86.86.86h8.527c.215 0 .502-.072.645-.287.144-.215.287-.43.215-.645l-.358-6.664c0-.502-.43-.86-.86-.86h-8.527ZM185.092 394.047c-.071 0-.143 0-.215-.071l-6.162-4.801 5.661-5.16a.346.346 0 0 1 .501 0 .346.346 0 0 1 0 .502l-5.016 4.586 5.518 4.299c.143.144.215.359.072.502-.144.143-.215.143-.359.143ZM52.452 384.803h10.39c.215 0 .359-.143.359-.358s-.144-.359-.359-.359h-10.39c-.215 0-.358.144-.358.359s.215.358.358.358Zm10.462 3.941c.215 0 .358-.143.358-.358s-.143-.358-.358-.358h-10.39c-.215 0-.359.143-.359.358s.144.358.359.358h10.39Zm.287 3.225H52.81c-.216 0-.359.143-.359.358s.143.358.358.358H63.2c.216 0 .359-.143.359-.358s-.143-.358-.358-.358Z" fill="#F5E4D5"/></svg>