<svg width="146" height="9" fill="none" xmlns="http://www.w3.org/2000/svg"><path opacity=".75" d="M1.587 5.394C.557 5.897-.769 6.61.557 7.088c1.325.503 3.387 1.244 4.466 1.482 1.08.265 2.16-.397 2.7-.609.59-.212 1.08-1.112 1.522-1.244.442-.132 1.03-.423 1.473-.556.441-.132 2.208-1.059 3.337-1.323 1.13-.265 2.455-.53 4.369-.477 1.963.053 3.142.636 4.369 1.27 1.178.636 4.86 1.88 6.332 2.383 1.472.503 5.203 1.138 6.48.953 1.276-.185 3.337-1.191 5.055-1.588 1.718-.397 3.485-1.032 4.909-1.297 1.423-.265 3.583-.635 4.417-.688.835-.053 2.553-.371 3.24.026.638.397 3.878 1.641 5.792 2.144 1.915.503 3.878.424 5.449.08 1.57-.318 2.847-.662 3.289-.874.442-.212 1.178-.635 2.061-1.059.884-.423 3.24-1.562 4.664-1.588 1.423-.026 2.061.132 3.043.397.933.265 3.141.847 3.681.874.54.026 1.67-.106 2.258-.239.59-.132 3.338-1.111 3.338-1.111s1.571-.397 2.307-.689c.737-.29 1.031-.582 1.767-.635.688-.053 1.277-.106 1.277-.106s4.27 1.933 6.872 2.62c2.601.689 4.516 1.033 5.497 1.086.982.027 3.387-.053 4.664-.238 1.276-.185 3.976-.477 5.497-.424 1.522.053 4.713.291 5.252.45.54.16 4.664.82 5.94.927 1.227.106 6.283.185 7.265.212.981.026 5.154.079 5.596.105.441 0 3.288.715 4.81.821 1.522.132 2.209.08 2.405-.291.197-.37-.196-.688-1.031-.794-.834-.106-2.601-.689-3.976-1.033-1.374-.344-2.307-.53-4.27-.661-1.964-.133-4.958-.768-7.363-.742-2.405 0-4.369.106-6.43-.132-2.062-.212-3.289-.556-6.185-.953-2.896-.397-5.547-.476-7.952-.238-2.405.238-4.958.609-6.529.715-1.57.105-3.288-.556-4.908-1.218-1.62-.662-3.29-1.906-5.35-2.435-2.062-.503-3.977-.583-5.744.132s-4.663 1.668-5.645 1.932c-1.03.265-2.307.45-3.632.027-1.325-.424-3.485-1.535-5.498-1.085-2.012.476-5.497 1.8-7.264 2.647-1.768.847-5.204 1.588-6.578 1.164-1.374-.423-3.73-1.694-5.94-2.144-2.208-.45-5.399-.397-7.412-.159-1.963.239-5.595 1.35-7.46 1.88-1.866.556-5.498 1.64-6.873 1.376-1.374-.264-3.485-1.403-4.712-1.88-1.227-.502-4.712-1.958-7.02-2.329-2.356-.37-5.546-.555-9.326.636-3.73 1.244-7.265 2.806-7.265 2.806Z" fill="#FBB116"/></svg>