<svg width="218" height="185" fill="none" xmlns="http://www.w3.org/2000/svg"><path d="M32.5 88c0-.4 1.333-.833 2-1 .229-.061.095.641 0 1 .667 6 2.1 18.4 2.5 20 .4 1.6-.167 1.667-.5 1.5H35c-.4 0-.5-.333-.5-.5-.667-6.833-2-20.6-2-21Z" fill="#F98585"/><path d="M191.5 139c-.472 5.58-2 2-4.5 3s-5.8 2.8-7 2c-1.19-.794.309-14.282.496-15.962l.004-.038c0-2.5 2.2-41.3 3-50.5 1-11.5-3-40.5-3.5-43s-8-13-3.5-10S187 39.5 190 53s4.5 50.5 1.5 86Z" fill="#F8ECC1"/><path d="M77.417 154.776c16.062 7.627 36.899 7.102 54.257 7.748 11.571.443 23.183.645 34.755.928 8.213.201 11.976-.202 19.421-3.35a524.146 524.146 0 0 0 12.907-5.729c2.589-1.171 6.878-2.341 8.78-4.52 2.104-2.421 2.023-7.102 2.265-10.088 1.336-16.141.162-32.645-.809-48.785-1.578-25.826-1.861-58.43-27.755-72.472-35.889-19.49-78.938-1.21-93.261 36.034-6.879 17.916-8.092 39.262-10.358 58.187-1.133 9.604-2.266 19.248-2.468 28.933-.081 3.752-.81 9.684 1.861 12.832 1.497 1.775 4.046-.767 2.549-2.543-2.023-2.38-.85-9.765-.728-12.63.323-7.788 1.133-15.576 1.982-23.323 1.82-15.939 4.127-31.878 7.202-47.656 7.728-39.746 47.339-65.168 86.261-49.148 27.351 11.258 28.97 40.715 30.71 66.258.93 13.961 1.659 28.004 1.578 42.006-.041 5.367.121 11.056-.891 16.383-1.132 5.972-7.566 6.859-12.785 9.2-7.121 3.188-13.675 7.102-21.525 6.9-10.965-.282-21.97-.444-32.934-.807-18.653-.565-41.917.686-59.234-7.505-2.064-.969-3.884 2.138-1.78 3.147Z" fill="#727E99"/><path d="M158.135 14.553c23.79 10.734 23.062 36.196 21.848 58.793-1.578 28.973-4.531 57.945-6.878 86.877-.202 2.301 3.399 2.301 3.601 0 2.67-33.169 7.566-67.064 7.202-100.355-.202-20.58-3.399-39.1-23.993-48.422-2.063-.928-3.884 2.139-1.78 3.107Z" fill="#727E99"/><path d="M168 24.5c12.4 9.6 11.167 47.667 9 65.5-2 14.167-6.1 44.8-6.5 54-.5 11.5-4 13-16 14s-57-3-67.5-5c-8.4-1.6-9.5-6.667-9-9-.667-11.667.2-43.1 9-75.5s29-44.833 38-47c9.167-3 30.6-6.6 43 3Z" fill="#F8ECC1"/><path d="M177.879 150.257c10.439-2.664 20.23-6.699 29.536-12.106 1.983-1.17.203-4.277-1.821-3.107-9.022 5.246-18.53 9.16-28.645 11.742-2.266.565-1.295 4.036.93 3.471Z" fill="#727E99"/><path d="M167.926 18.145c2.994 2.542 6.271 4.479 9.387 6.819 6.109 4.64 8.901 10.855 10.883 18.037 3.035 11.097 4.653 22.597 5.422 34.057 1.457 21.79-.202 43.661-2.063 65.411-.203 2.3 3.398 2.3 3.601 0 2.144-25.018 4.046-50.32 1.173-75.378-1.214-10.693-2.873-21.951-6.878-31.999-3.884-9.724-11.329-13.033-18.936-19.49-1.82-1.493-4.369 1.01-2.589 2.543Z" fill="#727E99"/><path d="M145.39 12.213c4.086-10.048 28.039-4.277 28.646 5.851.121 2.3 3.762 2.3 3.601 0-.526-8.595-8.012-12.348-15.739-13.478-7.688-1.13-16.63-1.614-19.988 6.699-.85 2.098 2.63 3.026 3.48.928Z" fill="#727E99"/><path d="M149.112 8.097c5.665-3.914 12.462-5.569 19.259-3.874 3.52.848 8.173 2.825 10.075 6.134 1.659 2.865 1.497 6.658 1.78 9.846.202 2.3 3.803 2.3 3.601 0-.809-8.595-2.063-14.567-10.762-18.2-8.538-3.59-18.248-2.218-25.733 3.027-1.902 1.292-.122 4.399 1.78 3.067Z" fill="#727E99"/><path d="M160.563 4.586c-3.035.767-5.786 2.422-7.85 4.762-1.537 1.735 1.012 4.277 2.549 2.542 1.7-1.937 3.763-3.228 6.272-3.833 2.225-.565 1.254-4.036-.971-3.47ZM190.543 27.345c11.127 2.058 16.427 16.948 20.028 26.269 3.48 8.998 5.948 18.4 7.688 27.883 1.82 9.927 2.872 20.015 3.439 30.103.526 9.442 4.086 36.115-12.462 30.949-2.225-.685-3.156 2.785-.971 3.471 7.971 2.502 15.699-1.776 17.276-10.048 1.295-6.658.203-14.486-.121-21.265-.405-8.232-1.092-16.423-2.185-24.575-1.982-14.284-5.3-28.367-10.924-41.683-4.087-9.684-9.265-22.395-20.837-24.534-2.225-.444-3.196 3.026-.931 3.43Z" fill="#727E99"/><path d="M201.306 54.058c3.965 13.72 7.323 27.6 9.67 41.683 1.659 9.967 7.606 33.896-2.832 41.482-1.862 1.332-.041 4.479 1.82 3.107 9.589-6.981 7.647-22.315 6.393-32.564-2.306-18.521-6.393-36.72-11.572-54.636-.647-2.22-4.086-1.292-3.479.928ZM161.453 60.15c-17.115-.806-34.23-1.371-51.344-2.178.566.767 1.173 1.533 1.739 2.26 2.145-14.97 8.861-28.166 25.49-29.054 9.387-.484 16.994 1.937 19.785 11.5 1.781 6.174 2.387 12.832 2.549 19.248.041 2.3 3.642 2.3 3.601 0-.162-8.11-.607-18.965-4.774-26.148-3.803-6.496-11.976-8.191-19.016-8.272-19.381-.201-28.565 13.84-31.074 31.717-.162 1.17.445 2.22 1.74 2.26 17.115.806 34.229 1.372 51.344 2.178 2.266.162 2.266-3.43-.04-3.51ZM95.664 74.072c24.681 1.614 49.604 4.681 74.325 4.964 2.307.04 2.307-3.551 0-3.592-24.721-.282-49.644-3.309-74.325-4.963-2.306-.161-2.306 3.43 0 3.591ZM102.34 93.28c20.149.847 40.299 2.138 60.407 3.793 2.307.202 2.307-3.39 0-3.591a1590.857 1590.857 0 0 0-60.407-3.794c-2.306-.12-2.306 3.47 0 3.592ZM161.857 108.452c-.364 6.013-.85 12.025-1.578 17.997-.647 5.649.364 14.527-5.988 15.818-5.503 1.09-12.704-.081-18.328-.161-6.676-.121-13.352-.243-19.988-.485-5.907-.201-18.611.928-21.201-5.931-.85-2.22.93-7.506 1.214-9.765a367.683 367.683 0 0 1 1.74-11.38c.404-2.38-.162-6.537.688-6.9 1.092-.444 3.439.121 4.612.202l60.609 2.421c2.307.081 2.307-3.511 0-3.591-22.05-.888-44.142-1.735-66.193-2.623-.728-.041-1.618.565-1.74 1.331-1.335 7.304-2.548 14.648-3.52 21.992-.485 3.632-2.71 10.007.041 13.276 5.745 6.86 26.016 4.64 33.744 4.842 7.768.202 15.577.283 23.345.363 3.278.041 8.335 1.171 11.087-1.412 2.468-2.26 2.265-8.837 2.71-11.863 1.133-7.99 1.821-16.06 2.347-24.091.162-2.34-3.439-2.34-3.601-.04Z" fill="#727E99"/><path d="M92.387 136.739c9.953 3.51 20.635 2.3 31.033 2.058 11.855-.242 23.71-.525 35.564-.767 2.307-.04 2.307-3.632 0-3.591-10.722.242-21.444.444-32.165.686-10.965.242-22.941 1.816-33.461-1.856-2.185-.767-3.115 2.703-.971 3.47ZM177.272 132.542a83.764 83.764 0 0 0 9.468 12.792c1.052 1.13 2.711-.565 1.699-1.695a77.51 77.51 0 0 1-9.103-12.307c-.769-1.332-2.832-.121-2.064 1.21ZM179.66 125.319a90.914 90.914 0 0 0 11.126 14.043c1.093 1.13 2.792-.565 1.7-1.695-4.046-4.156-7.607-8.676-10.763-13.558-.85-1.292-2.913-.121-2.063 1.21ZM181.844 115.796c2.752 5.771 6.514 10.936 11.127 15.374 1.133 1.049 2.832-.605 1.699-1.694-4.491-4.318-8.092-9.281-10.762-14.89-.648-1.372-2.711-.162-2.064 1.21ZM181.197 103.61a163.757 163.757 0 0 0 13.716 16.625c1.052 1.13 2.751-.565 1.699-1.695-4.814-5.084-9.265-10.451-13.311-16.141-.931-1.251-2.994-.04-2.104 1.211Z" fill="#727E99"/><path d="m53.51 178.846-2.12-1.06c-15.54-6.887-46.834-20.768-47.681-21.192-1.06-.529-1.59-.529-.53-2.119.848-1.271 2.472-.53 3.179 0 14.657 6.181 44.396 18.755 46.092 19.603 2.119 1.059 2.119 1.589 2.119 3.178 0 1.272-.707 1.59-1.06 1.59Z" fill="#B499FF"/><path d="M42.464 115.815a63.192 63.192 0 0 0 17.114-1.64c.342-.079.184-.609-.132-.529a64.21 64.21 0 0 1-16.956 1.614.278.278 0 0 0-.026.555ZM42.437 162.799c5.67-.026 11.26-1.481 16.244-4.18.316-.159.026-.635-.264-.476a33.717 33.717 0 0 1-15.98 4.101c-.343.026-.343.555 0 .555ZM18.177 114.043c.237 5.423.29 10.846.132 16.269 0 .291.474.371.527.08.027-.08.027-.159.053-.238.079-.344-.448-.477-.527-.133-.027.08-.027.159-.053.238l.527.08c.158-5.423.106-10.847-.132-16.27 0-.37-.553-.37-.527-.026Z" fill="#727E99"/><path d="M18.203 114.122a24.67 24.67 0 0 0 8.913 2.064c.343.026.343-.53 0-.556a24.143 24.143 0 0 1-8.623-1.984c-.343-.132-.606.317-.29.476ZM19.232 146.371c.29 4.18.58 8.333.844 12.513.026.344.553.344.553 0-.29-4.18-.58-8.333-.844-12.513-.026-.344-.58-.344-.553 0Z" fill="#727E99"/><path d="M20.155 152.402c2.083-2.592 4.166-5.158 6.276-7.751.21-.264-.158-.661-.396-.397a1616.13 1616.13 0 0 1-6.276 7.752c-.21.291.159.687.396.396ZM20.55 156.688a160.942 160.942 0 0 1 13.343-13.836c.264-.238-.132-.608-.395-.397a160.972 160.972 0 0 0-13.343 13.836c-.211.265.158.661.395.397ZM59.367 122.667a90.243 90.243 0 0 1-.66 13.862c-.052.344.501.344.554 0 .58-4.603.791-9.233.66-13.862-.027-.344-.554-.344-.554 0ZM58.576 142.296c0-.132 0-.291.026-.423h-.554a47.03 47.03 0 0 1-.896 10.344c-.08.344.448.476.527.132a48.241 48.241 0 0 0 .923-10.476c0-.344-.527-.344-.554 0 0 .132 0 .291-.026.423 0 .344.527.344.554 0ZM4.2 154.122c-1.344.714-1.555 2.46-.421 3.465.264.238.633-.158.395-.396-.87-.794-.712-2.064.317-2.619.29-.159 0-.609-.29-.45ZM5.599 155.392c-.58.74-.897 1.613-.844 2.566.026.344.553.344.553 0-.026-.794.185-1.561.686-2.169.185-.291-.184-.688-.395-.397ZM22.212 163.778c1.213-1.005 2.584.529 3.454 1.27a24.636 24.636 0 0 0 2.505 1.852 26.352 26.352 0 0 0 5.802 2.857c.316.106.474-.397.132-.529a27.103 27.103 0 0 1-7.147-3.863c-1.345-1.005-3.322-3.492-5.115-1.984-.29.238.105.609.369.397ZM14.696 95.048a14.89 14.89 0 0 0 5.854-2.46c.29-.212 0-.662-.264-.477a14.085 14.085 0 0 1-5.722 2.408c-.343.08-.185.608.132.529ZM23.9 101.08a29.978 29.978 0 0 0 2.9 4.947c.21.291.66 0 .474-.265a31.947 31.947 0 0 1-2.9-4.947c-.158-.317-.607-.026-.475.265ZM6.152 78.91c.844-.37 1.714-.714 2.558-1.084.316-.133.87-.45 1.213-.503.87-.132 1.24.582 1.635 1.138a16.05 16.05 0 0 1 2.057 4.285c.105.344.633.186.527-.132-.58-1.878-1.477-3.968-2.848-5.37-.58-.582-1.134-.582-1.872-.265-1.187.476-2.347 1.005-3.534 1.482-.316.105-.053.582.264.45Z" fill="#727E99"/><path d="M7.154 78.196A10.488 10.488 0 0 1 6.284 81c-.158.318.317.582.475.265.422-.926.738-1.905.923-2.937.053-.317-.475-.476-.528-.132ZM9.053 77.694c-.37 1.64-.738 3.28-1.081 4.894-.08.344.448.476.527.132.37-1.64.739-3.28 1.081-4.894.08-.318-.448-.476-.527-.132ZM32.47 87.403c.21 2.989.58 5.978 1.107 8.941.053.344.58.186.527-.132a89.737 89.737 0 0 1-1.08-8.783c-.053-.37-.58-.37-.555-.026ZM34.79 105.921a5.768 5.768 0 0 0 2.742-.582c.317-.159.027-.609-.263-.476a5.379 5.379 0 0 1-2.48.529c-.368-.027-.368.503 0 .529ZM35.027 107.217c.87.106 1.74-.079 2.505-.529.29-.185.027-.661-.263-.476a3.273 3.273 0 0 1-2.215.476c-.37-.053-.37.476-.027.529ZM35.634 108.566a6.627 6.627 0 0 0 2.769-.449c.316-.133.184-.635-.132-.529a6.835 6.835 0 0 1-2.637.423c-.37 0-.37.555 0 .555ZM27.67 99.836c1.292-.264 2.584-.555 3.876-.82.343-.08.185-.608-.131-.529-1.293.265-2.585.556-3.877.82-.343.08-.21.582.132.53ZM28.092 100.524c1.213-.212 2.426-.397 3.613-.608.343-.053.185-.582-.132-.53-1.213.212-2.426.397-3.613.609-.342.053-.184.582.132.529ZM38.324 99.016a4.85 4.85 0 0 1 2.294.318c.316.132.474-.397.131-.53a5.073 5.073 0 0 0-2.425-.343c-.343.053-.343.582 0 .555ZM38.139 100.365h2.373c.343 0 .343-.555 0-.555h-2.373c-.343 0-.343.555 0 .555ZM48.555 99.572c1.055.159 2.136.29 3.19.449.344.053.502-.476.133-.529-1.055-.158-2.136-.29-3.191-.45-.343-.052-.475.477-.132.53ZM48.45 100.656c.764.106 1.529.238 2.267.344.343.053.501-.476.132-.529-.765-.106-1.53-.238-2.268-.344-.316-.053-.474.476-.132.529ZM45.206 96.291l-.08 1.27c-.026.344.528.344.555 0l.079-1.27c.026-.344-.528-.344-.554 0ZM44.969 99.916c.026 2.275-.132 4.523-.422 6.772-.053.344.501.344.554 0 .29-2.249.448-4.497.422-6.772-.027-.344-.554-.344-.554 0ZM43.334 83.434c1.397.424 2.795.635 4.245.609.343 0 .343-.556 0-.556a12.821 12.821 0 0 1-4.114-.608c-.316-.08-.448.45-.132.555ZM47.184 68.276a.942.942 0 0 0 .053-.265c.079-.344-.396-.476-.528-.132-.923 2.513-1.82 5.026-2.742 7.513-.132.317.395.476.527.132.923-2.513 1.82-5.026 2.743-7.513-.185-.053-.343-.106-.528-.132a.942.942 0 0 0-.053.264c-.079.344.449.477.528.133Z" fill="#727E99"/><path d="M61.456 104.145c-.424 1.272-1.943.883-2.65.53-.176-.177-.74-.636-1.588-1.06-.848-.424-.707-.883-.53-1.059 1.412-5.298 4.344-16.212 4.768-17.483.424-1.272 1.59-.883 2.119-.53.353.176 1.377.636 2.649 1.06 1.271.423 1.59 1.236 1.59 1.589-1.943 5.121-5.934 15.682-6.358 16.953Z" fill="#DCF8C1"/><path d="M47.5 68.963c-1.24 2.858-2.479 5.715-3.744 8.598-.132.318.316.582.474.265 1.24-2.857 2.48-5.714 3.745-8.598.132-.291-.343-.582-.475-.265ZM57.363 103.143c.976 1.032 2.32 1.535 3.718 1.349.343-.052.343-.582 0-.555-1.266.159-2.452-.265-3.349-1.191-.237-.238-.606.159-.37.397ZM62.821 88.62a204.487 204.487 0 0 0-4.746 13.491c-.106.344.422.477.527.133a204.344 204.344 0 0 1 4.747-13.492c.132-.318-.396-.45-.528-.133ZM64.087 87.72a17.494 17.494 0 0 1 3.296-1.482c.317-.105.185-.635-.131-.529a18.22 18.22 0 0 0-3.428 1.561c-.317.159-.053.635.263.45ZM64.219 89.201c1.344-.687 2.716-1.375 4.06-2.063.317-.159.027-.635-.263-.476-1.345.688-2.716 1.375-4.061 2.063-.317.159-.053.635.264.476ZM63.639 92.164c1.08-.635 2.135-1.296 3.217-1.93.29-.186.026-.662-.264-.477-1.081.635-2.136 1.296-3.217 1.931-.317.185-.053.635.264.476ZM51.825 107.773c.501-1.244.976-2.487 1.477-3.73.132-.318-.396-.477-.528-.133-.5 1.244-.975 2.487-1.476 3.731-.132.317.395.449.527.132Z" fill="#727E99"/><path d="M62.98 102.191c.949.979.738 1.719-.212 2.513-.896.741-2.03 1.243-3.085 1.64-3.64 1.349-7.568 1.958-11.418 2.328a91.014 91.014 0 0 1-14.952.185c-4.114-.291-8.28-.82-12.236-2.037-1.424-.449-2.874-.952-4.113-1.825-1.002-.688-1.609-1.429-.844-2.54.606-.873-.818-1.666-1.398-.82-1.898 2.725 1.134 4.842 3.376 5.794 3.929 1.719 8.332 2.381 12.578 2.804a88.81 88.81 0 0 0 16.982.106c4.351-.397 8.86-.979 12.948-2.619 2.69-1.085 6.592-3.572 3.56-6.693-.765-.741-1.925.423-1.187 1.164ZM47.5 97.984c1.82.16 3.613.37 5.406.662 1.029.159 1.45-1.402.422-1.561a88.393 88.393 0 0 0-5.854-.74c-1.002-.08-1.002 1.534.026 1.64ZM36.9 97.693c1.924-.053 3.85-.053 5.774 0 1.055.027 1.055-1.587 0-1.64-1.925-.053-3.85-.053-5.775 0-1.055.027-1.055 1.667 0 1.64ZM24.927 98.937c2.48-.477 4.984-.794 7.49-1.006 1.028-.079 1.054-1.72 0-1.64-2.664.212-5.3.556-7.938 1.058-1.028.239-.58 1.8.448 1.588Z" fill="#727E99"/><path d="M14.09 103.355c0 1.005-.185 2.196.131 3.174.396 1.191 1.503 2.011 2.532 2.593 3.77 2.143 8.438 2.804 12.657 3.307 6.065.714 12.262.767 18.354.211 4.588-.423 9.414-1.058 13.66-2.962 1.291-.582 2.768-1.403 3.48-2.699.58-1.058.343-2.46.343-3.624 0-1.058-1.635-1.058-1.635 0 0 .82.185 2.063-.08 2.751-.368.847-1.476 1.455-2.293 1.878-3.666 1.852-8.07 2.461-12.104 2.91a88.797 88.797 0 0 1-16.982.186c-4.378-.371-8.966-.953-13.053-2.619-1.108-.45-2.558-1.059-3.217-2.143-.422-.688-.211-2.011-.211-2.937.026-1.084-1.583-1.084-1.583-.026ZM60.976 157.217c.712 1.482-.844 2.593-1.978 3.254-1.951 1.138-4.22 1.773-6.408 2.275-6.355 1.429-13.027 1.588-19.487.979-1.029-.106-1.029 1.534 0 1.64 5.775.529 11.629.397 17.351-.555 2.268-.371 4.536-.9 6.698-1.693 1.503-.556 3.032-1.27 4.22-2.355 1.291-1.19 1.766-2.725.975-4.365-.422-.952-1.82-.132-1.371.82Z" fill="#727E99"/><path d="M39.14 168.116c5.249.027 10.628-.396 15.717-1.798 2.611-.741 6.646-1.932 7.727-4.789.422-1.084.21-2.407.21-3.545 0-1.058-1.634-1.058-1.634 0 0 1.005.264 2.381-.237 3.281-.792 1.402-2.69 2.169-4.114 2.698-5.564 2.116-11.788 2.566-17.668 2.54-1.029-.027-1.029 1.587 0 1.613ZM15.382 107.773c.158 5.661.343 11.322.5 16.984.265 9.047.555 18.069.818 27.116.053 2.09.132 4.154.185 6.243.026 1.059 1.661 1.059 1.635 0-.158-5.661-.343-11.322-.501-16.984-.264-9.047-.554-18.068-.818-27.116-.052-2.09-.131-4.153-.184-6.243-.026-1.032-1.662-1.032-1.635 0Z" fill="#727E99"/><path d="M62.347 107.773c-.185 5.82-.343 11.64-.528 17.46-.29 9.206-.553 18.439-.844 27.645-.052 2.143-.131 4.26-.184 6.403-.026 1.058 1.582 1.058 1.635 0 .184-5.821.343-11.641.527-17.461.29-9.206.554-18.439.844-27.645.053-2.143.132-4.259.185-6.402 0-1.032-1.609-1.032-1.635 0ZM61.924 84.783C59.92 90.392 57.89 96 55.886 101.635c-.29.794-.58 1.588-.87 2.408-.08.264 0 .608.21.793 1.714 1.508 4.14 2.143 6.355 2.381.37.053.66-.291.791-.608 2.374-6.244 4.747-12.487 7.12-18.704.343-.9.686-1.772 1.029-2.672.158-.45-.185-.846-.58-1.005l-5.855-2.302c-.316-.132-.764.08-.922.37-.106.212-.211.45-.317.662.317-.132.607-.238.923-.37-.923-.212-1.846-.45-2.769-.662-.448-.106-.844.132-1.002.582a4306.715 4306.715 0 0 0-6.144 16.773l-.87 2.381c-.106.317.079.767.369.926.554.264 1.108.529 1.635.793.501.238 1.002.027 1.187-.476 2.004-5.238 3.981-10.476 5.985-15.688.29-.74.554-1.481.844-2.222l-1.186.476c.158.08.316.185.448.265.897.529 1.74-.873.817-1.402-.158-.08-.316-.186-.448-.265-.5-.29-1.002 0-1.186.476-2.005 5.238-3.982 10.477-5.986 15.688-.29.741-.554 1.482-.844 2.222l1.186-.476a88.56 88.56 0 0 1-1.634-.794c.131.318.237.609.369.926 2.056-5.582 4.113-11.19 6.144-16.772l.87-2.381c-.343.185-.66.37-1.002.582.923.212 1.846.45 2.769.661.343.08.764-.052.923-.37.105-.212.21-.45.316-.661-.316.132-.606.238-.923.37l5.854 2.302c-.184-.344-.369-.662-.58-1.006-2.373 6.244-4.746 12.487-7.12 18.704-.342.899-.685 1.772-1.028 2.672.264-.212.527-.397.791-.609-.08-.026-.08 0 0 0-.132-.052-.316-.052-.422-.079a12.805 12.805 0 0 1-1.45-.317c-1.16-.291-2.4-.715-3.323-1.535.08.265.132.529.211.794 2.004-5.609 4.035-11.217 6.039-16.852.29-.794.58-1.587.87-2.407.37-.98-1.213-1.402-1.556-.424Z" fill="#727E99"/><path d="M55.358 104.307c-.58 1.402-1.16 2.804-1.714 4.18-.395.979 1.16 1.402 1.556.423.58-1.402 1.16-2.804 1.714-4.18.422-.952-1.16-1.375-1.556-.423ZM32.232 81.16l1.345-.16c.422-.052.844-.344.818-.82-.027-.397-.37-.873-.818-.82l-1.345.159c-.422.053-.844.344-.817.82.026.397.369.873.817.82Z" fill="#727E99"/><path d="M34.5 109.677c-.448-4.444-.897-8.862-1.345-13.306l-.87-8.81c-.08-.873-.185-1.746-.264-2.619-.026-.185-.026-.37-.053-.555-.026-.16-.026.079-.026.132 0-.132.053-.291.053-.423.395-2.593.765-5.212 1.16-7.805H31.6l2.77 6.984c.052.16.316.9.21.424.026.132.026.264.053.397.079.793.158 1.587.264 2.38.632 6.032 1.292 12.09 1.925 18.122.184 1.746.369 3.492.553 5.265.106 1.031 1.74 1.031 1.635 0-.474-4.551-.976-9.074-1.45-13.625l-.95-9.02c-.131-1.244-.079-2.646-.448-3.837-.395-1.375-1.08-2.698-1.608-4.047-.449-1.164-.923-2.302-1.372-3.466-.263-.635-1.423-.9-1.555 0l-1.029 6.905c-.079.582-.237 1.19-.21 1.772.026.688.131 1.376.21 2.09.58 5.9 1.187 11.826 1.767 17.725.185 1.773.343 3.545.527 5.317.08 1.032 1.714 1.059 1.609 0ZM42.754 109.598c.342-6.217.712-12.46 1.054-18.677l.159-2.645c.052-1.059-1.556-1.032-1.635 0-.343 6.217-.712 12.46-1.055 18.677l-.158 2.645c-.053 1.058 1.582 1.058 1.635 0Z" fill="#727E99"/><path d="M42.543 89.043c1.872.158 3.718.317 5.59.45.475.026.765-.397.817-.82.238-2.276.607-4.577.58-6.879-.052-3.704-.131-7.434-.184-11.138-.026-1.137-.026-2.248-.053-3.386a.818.818 0 0 0-.606-.793c-1.345-.397-4.905-1.164-5.248.873-.237 1.481-.316 2.989-.474 4.497-.396 3.704-1.003 7.46-1.214 11.19-.105 1.72 0 3.44 0 5.16 0 1.057 1.635 1.057 1.635 0 0-2.223-.079-4.419.159-6.615.395-3.703.79-7.38 1.186-11.084.106-1.085.238-2.17.343-3.254l-.395.714c.896-.688 2.584-.212 3.586.08-.211-.265-.396-.53-.607-.794.053 2.883.106 5.767.132 8.65l.08 5.397c0 .715.052 1.429-.027 2.17-.185 1.746-.37 3.465-.528 5.211l.818-.82c-1.872-.159-3.718-.317-5.59-.45-1.055-.052-1.029 1.561 0 1.64ZM31.626 108.778c-2.215-3.915-4.43-7.857-6.645-11.772-.528-.926-1.925-.106-1.398.82 2.215 3.915 4.43 7.857 6.645 11.772.502.926 1.9.106 1.398-.82ZM20.18 106.662c-1.107-1.905-2.188-3.783-3.295-5.688-.528-.9-1.925-.079-1.398.82 1.108 1.905 2.189 3.783 3.296 5.688.528.926 1.925.106 1.398-.82Z" fill="#727E99"/><path d="m10.556 94.228 4.272 7.777c.185.318.58.477.923.371 3.322-.926 6.487-2.884 9.256-4.841.369-.265.527-.715.29-1.111l-4.43-7.858c-.264-.502-.897-.502-1.266-.158-2.4 1.984-5.564 3.597-8.544 4.63-.976.343-.554 1.904.422 1.56 3.296-1.138 6.566-2.804 9.282-5.053l-1.266-.159 4.43 7.858c.106-.37.185-.741.29-1.112-2.663 1.905-5.669 3.81-8.86 4.683.317.132.607.238.923.37l-4.272-7.777c-.553-.926-1.951-.106-1.45.82Z" fill="#727E99"/><path d="M20.866 88.567c-2.69-4.392-5.3-8.836-8.069-13.175-.369-.556-.79-1.005-1.424-1.243-1.186-.45-2.347.185-3.428.66-2.11.927-5.775 2.514-4.43 5.424 1.002 2.143 2.136 4.233 3.19 6.35 1.267 2.54 2.559 5.105 3.824 7.645.475.926 1.873.106 1.398-.82-2.241-4.445-4.457-8.89-6.698-13.334-.105-.211-.237-.423-.316-.634-.422-1.19 1.08-1.8 1.898-2.276a24.595 24.595 0 0 1 1.662-.846c.527-.238 1.186-.635 1.766-.714.554-.08.897.264 1.16.687 1.477 2.17 2.77 4.445 4.14 6.667 1.32 2.143 2.611 4.286 3.93 6.429.527.9 1.951.079 1.397-.82ZM31.361 85.1c.844-.131 1.688-.29 2.532-.422.422-.08.686-.609.58-1.006-.132-.45-.554-.635-1.002-.582-.844.132-1.688.291-2.531.423-.422.08-.686.609-.58 1.006.131.476.553.661 1.002.582ZM47.553 109.598c.316-6.084.606-12.195.923-18.28.052-.873.079-1.746.132-2.62.052-1.057-1.583-1.057-1.635 0-.317 6.086-.607 12.197-.923 18.281-.053.873-.08 1.746-.132 2.619-.027 1.059 1.582 1.059 1.635 0ZM61.846 78.143c.422.132.87.265 1.292.424.395.132.896-.16 1.002-.582a.823.823 0 0 0-.58-1.006c-.422-.132-.87-.264-1.292-.423-.396-.132-.897.159-1.002.582-.08.45.158.873.58 1.005Z" fill="#727E99"/><path d="m50.11 109.677 4.985-14.285c1.16-3.307 2.294-6.614 3.454-9.92.554-1.562.976-3.202 1.635-4.71-.184.424.08-.08.158-.159.211-.317.422-.634.633-.978.554-.847 1.081-1.694 1.635-2.54.686-1.032 1.345-2.09 2.03-3.122-.5-.132-1.002-.264-1.502-.423-.08 1.587-.159 3.201-.238 4.788-.053.926-.105 1.826-.132 2.752 0 .185 0 .397-.026.608.053-.37-.08.106-.105.212-.053.185-.132.397-.185.582-.343 1.005 1.24 1.428 1.556.423.474-1.428.448-2.883.527-4.392.08-1.666.185-3.306.264-4.973.053-.847-1.108-1.058-1.503-.423-1.45 2.248-2.98 4.444-4.378 6.746-.712 1.19-1.028 2.725-1.503 4.047-2.294 6.588-4.588 13.148-6.882 19.736-.66 1.852-1.292 3.73-1.952 5.582-.395 1.005 1.187 1.428 1.53.449Z" fill="#727E99"/><path d="M59.208 81.318c.818.211 1.662.45 2.479.661 1.002.265 1.45-1.296.422-1.56-.818-.212-1.662-.45-2.479-.662-1.002-.291-1.45 1.296-.422 1.56ZM1.564 157.931c2.637 1.165 5.274 2.302 7.91 3.466 5.908 2.593 11.788 5.185 17.695 7.751a5447.461 5447.461 0 0 0 18.433 8.069c3.375 1.482 6.724 2.963 10.1 4.418 1.265.556 2.742.688 4.087.979 2.98.661 5.986 1.296 8.965 1.958.211.053.422.105.633.132.95.212 1.345-.952.633-1.482-2.136-1.666-4.272-3.306-6.434-4.973-1.187-.926-2.4-1.852-3.586-2.778-.238-.185-.449-.37-.739-.503-1.16-.582-2.426-1.031-3.613-1.534-2.426-1.032-4.852-2.063-7.278-3.122l-20.014-8.571c-6.013-2.566-12.025-5.159-18.064-7.725a823.345 823.345 0 0 0-4.852-2.063c-.237-.106-.5-.212-.738-.318-2.11-.846-4.272.794-4.641 2.91-.238 1.429.21 2.725 1.503 3.386.923.477 1.74-.925.817-1.402-1.74-.899-.158-3.941 1.609-3.412.316.106.633.264.95.397 1.634.714 3.295 1.402 4.93 2.116 5.828 2.487 11.682 5 17.51 7.487 6.46 2.751 12.895 5.529 19.356 8.28 3.823 1.64 7.62 3.254 11.444 4.894 1.081.45 1.951 1.349 2.874 2.064 2.532 1.957 5.09 3.915 7.621 5.873.185.132.343.264.528.397.21-.503.422-1.006.632-1.482-2.346-.503-4.72-1.032-7.067-1.534-1.529-.344-3.059-.662-4.588-1.006-.448-.105-.897-.211-1.345-.291-.237-.026-.343-.079-.105.027-.87-.291-1.714-.741-2.558-1.111l-6.012-2.619c-5.96-2.619-11.893-5.212-17.853-7.831-6.065-2.645-12.13-5.317-18.195-7.963-3.19-1.402-6.382-2.804-9.599-4.206a.43.43 0 0 0-.132-.053c-.949-.45-1.793.952-.817 1.375Z" fill="#727E99"/><path d="M64.667 182.72c-.027.132-.027.211 0 0 .052-.159.079-.318.158-.45-.053.106.053-.106.08-.132.052-.133.13-.238.21-.344.132-.185.317-.344.501-.476.37-.265.528-.715.29-1.111-.21-.344-.738-.556-1.107-.291-.95.661-1.635 1.666-1.767 2.83-.053.45.395.82.817.82a.882.882 0 0 0 .818-.846ZM58.602 175.074c-1.398.9-2.215 2.593-2.637 4.154-.29 1.005 1.292 1.455 1.556.423.237-.899.606-1.799 1.24-2.513.157-.212.342-.371.553-.556.158-.132-.053.027.132-.106.87-.555.053-1.957-.844-1.402Z" fill="#727E99"/><path d="m155 58-39.5-1.5c-.8-1.2-.333-3.833 0-5 3.167-6.667 12.6-19.8 25-19 15.5 1 16.5 16 17.5 21 .8 4-1.667 4.667-3 4.5Z" fill="#FEC997"/></svg>