<svg width="208" height="168" fill="none" xmlns="http://www.w3.org/2000/svg"><path d="m210.138 179.121-93.503-47.193c-4.551-3.831-24.177-12.577-49.962-26.467-32.23-17.364-41.04-27.183-30.48-29.501 8.448-1.855 78.138-6.458 111.928-8.528l62.017 111.689Z" fill="#FFE5CA"/><path d="m124.306 82.575 18.256 35.853c-14.522-6.098-45.502-19.126-53.247-22.45-7.744-3.325-11.8-7.96-12.86-9.863l47.851-3.54Z" fill="#EBF1FF"/><path d="M164.43 155.929c13.796 6.335 27.637 12.717 41.433 19.052.416.19.932-.223.658-.644a1051.939 1051.939 0 0 0-23.489-35.235c-.366-.516-1.162-.013-.842.456a1051.912 1051.912 0 0 1 23.488 35.235l.659-.644c-13.796-6.335-27.637-12.717-41.433-19.052-.509-.238-1.029.547-.474.832ZM129.024 69.395c3.588-.52 7.22-.9 10.852-1.187 1.722-.121 3.445-.242 5.213-.27.791-.038 1.677-.168 2.466-.066 1.022.15 1.293.897 1.796 1.74 3.661 5.668 6.855 11.564 9.673 17.688.273.562 1.069.105.843-.456-1.547-3.32-3.186-6.593-4.967-9.776a165.865 165.865 0 0 0-2.832-4.868c-.96-1.546-1.871-3.37-3.02-4.731-.781-.892-2.228-.443-3.345-.408-1.954.072-3.863.145-5.818.31-3.725.286-7.404.665-11.085 1.23-.604-.053-.382.88.224.794Z" fill="#727E99"/><path d="M138.16 67.724c-2.029 2.584-4.057 5.214-6.085 7.798-.378.507.454.982.832.474 2.028-2.584 4.057-5.214 6.085-7.797.377-.462-.455-.936-.832-.475ZM141.928 67.672c-2.473 4.998-4.992 9.995-7.464 14.947-.285.555.547 1.03.833.474 2.472-4.998 4.991-9.996 7.463-14.947.239-.51-.547-1.03-.832-.474ZM145.834 67.853c-2.386 5.557-4.818 11.114-7.204 16.718-.239.556.689.798.928.242 2.385-5.557 4.817-11.114 7.203-16.717.238-.51-.689-.799-.927-.243ZM149.865 69.385a71233.8 71233.8 0 0 1-4.052 13.494c-.192.603.735.846.928.243l4.052-13.495c.146-.556-.782-.846-.928-.242ZM153.363 77.284c-.723 2.365-1.493 4.73-2.216 7.095-.193.602.735.845.928.242.723-2.365 1.493-4.73 2.216-7.094.146-.603-.782-.846-.928-.243ZM155.388 109.731c7.454 3.383 14.908 6.719 22.408 10.102.556.239 1.029-.547.474-.832-7.454-3.383-14.908-6.719-22.408-10.102-.556-.239-1.03.594-.474.832ZM67.127 141.212c2.022-1.932 4.09-3.864 6.11-5.796.47-.414-.22-1.119-.69-.706-2.021 1.933-4.089 3.864-6.11 5.797-.424.461.267 1.119.69.705ZM68.416 142.528c2.818-2.482 5.865-4.636 9.096-6.555.515-.32.058-1.163-.457-.842a69.08 69.08 0 0 0-9.283 6.693c-.47.413.175 1.072.644.704ZM71.01 143.487c3.325-2.058 6.696-4.069 10.021-6.127.516-.32.06-1.163-.456-.843-3.325 2.058-6.696 4.069-10.021 6.127-.562.366-.06 1.209.456.843ZM76.636 143.872c2.999-1.968 5.998-3.983 8.95-5.952.515-.32.058-1.162-.457-.842-2.998 1.968-5.997 3.983-8.95 5.952-.515.367-.058 1.163.457.842ZM80.21 144.608c2.902-1.69 5.757-3.334 8.66-5.025.515-.32.059-1.162-.456-.842-2.903 1.69-5.758 3.335-8.66 5.025-.563.32-.06 1.162.455.842ZM85.599 145.271a866.152 866.152 0 0 1 9.124-4.881c.561-.273.059-1.116-.456-.842-3.042 1.642-6.083 3.285-9.124 4.88-.562.32-.105 1.116.456.843ZM91.21 147.052c2.575-1.554 5.151-3.155 7.727-4.709.515-.32.059-1.163-.457-.843-2.575 1.555-5.15 3.155-7.726 4.71-.516.32-.06 1.162.456.842ZM97.485 147.491c2.483-1.601 5.012-3.156 7.494-4.758.516-.32.059-1.162-.456-.842-2.483 1.602-5.011 3.156-7.494 4.758-.563.366-.06 1.162.456.842ZM55.162 107.356c5.83 2.901 11.661 5.801 17.446 8.654 1.666.809 3.135-1.641 1.469-2.45-5.831-2.9-11.662-5.8-17.447-8.654-1.62-.854-3.134 1.595-1.468 2.45ZM69.877 71.134c-7.591.803-15.136 1.606-22.728 2.409a82753.382 82753.382 0 0 1-36.233 3.8c-2.748.296-5.496.592-8.29.888-1.258.126-2.162 1.977-.773 2.643 4.118 2.044 8.19 4.042 12.263 6.086 1.666.809 3.134-1.641 1.468-2.45-4.072-2.044-8.144-4.041-12.216-6.085-.242.88-.484 1.762-.773 2.643 7.591-.803 15.136-1.606 22.728-2.409 12.062-1.266 24.125-2.533 36.234-3.799 2.748-.296 5.542-.592 8.29-.888 1.816-.167 1.846-3.004.03-2.838Z" fill="#727E99"/><path d="M177.279 107.22c-7.306-12.778-14.659-25.603-21.966-38.382-1.05-1.825-2.1-3.697-3.151-5.523-.228-.42-.736-.752-1.248-.711-6.846.718-13.739 1.435-20.585 2.152-10.945 1.14-21.936 2.325-32.88 3.463-2.516.253-5.078.551-7.592.803-1.817.213-1.847 3.05-.031 2.884 6.846-.718 13.739-1.435 20.585-2.152 10.945-1.14 21.936-2.324 32.881-3.463 2.514-.252 5.076-.55 7.591-.803l-1.248-.711c7.306 12.778 14.659 25.603 21.966 38.382 1.05 1.825 2.1 3.697 3.151 5.523.96 1.545 3.441.13 2.527-1.462ZM115.041 137.072c3.517 1.759 7.08 3.518 10.597 5.277a6559.581 6559.581 0 0 1 25.359 12.599 9581.731 9581.731 0 0 1 30.819 15.31c8.838 4.374 17.677 8.795 26.515 13.17 4.304 2.139 8.558 4.557 12.957 6.418.046.047.139.048.185.095 1.25.619 2.752-.621 1.975-1.932-3.927-6.881-7.9-13.808-11.828-20.689-6.302-11-12.557-21.999-18.86-32.999-1.415-2.527-2.877-5.008-4.292-7.536-.913-1.591-3.394-.175-2.481 1.416 3.927 6.881 7.901 13.808 11.828 20.689 6.302 10.999 12.558 21.999 18.86 32.999 1.415 2.527 2.877 5.008 4.292 7.535l1.975-1.933c-3.517-1.758-7.08-3.518-10.597-5.277a6283.37 6283.37 0 0 1-25.359-12.599 9377.501 9377.501 0 0 1-30.819-15.309c-8.838-4.375-17.676-8.795-26.515-13.17-4.304-2.139-8.558-4.511-12.957-6.419-.046-.047-.139-.048-.185-.095-1.666-.855-3.135 1.641-1.469 2.45ZM136.817 106.275l7.922 16.135 1.975-1.933-21.947-9.725c-11.668-5.195-23.336-10.344-35.05-15.54l-8.056-3.576c-1.667-.762-3.136 1.735-1.469 2.45l21.947 9.725c11.668 5.196 23.336 10.345 35.05 15.541l8.057 3.575c1.296.572 2.657-.576 1.974-1.933l-7.922-16.134c-.82-1.637-3.301-.222-2.481 1.415Z" fill="#727E99"/><path d="M113.672 82.442c3.912-.376 7.87-.706 11.782-1.083l-1.249-.711c1.366 2.806 2.778 5.659 4.143 8.465.82 1.637 3.301.221 2.481-1.416-1.366-2.806-2.777-5.66-4.143-8.465-.182-.42-.783-.753-1.248-.711-3.912.377-7.87.707-11.782 1.083-1.77.121-1.8 3.005.016 2.838ZM76 85.854c4.19-.374 8.428-.748 12.62-1.168 1.816-.167 1.847-3.05.03-2.884-4.19.374-8.428.747-12.62 1.168-1.816.213-1.847 3.05-.03 2.884Z" fill="#727E99"/><path d="m36.53 96.504-18.302 1.758c.461.377.923.708 1.384 1.085-1.158-4.804-2.316-9.655-3.474-14.459l-1.415 1.8c9.08-.787 18.113-1.575 27.193-2.361 6.333-.537 12.713-1.12 19.045-1.658 3.12-.292 6.242-.724 9.36-.83 2.699-.11 3.917 3.438 5.106 5.405l4.25 7.163c.425-.694.852-1.433 1.278-2.127-4.657.462-9.313.878-13.97 1.34-1.816.166-1.847 3.05-.031 2.884 4.657-.462 9.313-.878 13.97-1.34 1.025-.082 1.873-1.143 1.28-2.126a720.499 720.499 0 0 1-3.702-6.227c-1.188-2.013-2.276-4.676-3.98-6.323-2.579-2.493-7.337-1.241-10.55-.95-12.759 1.12-25.517 2.193-38.276 3.313-3.632.333-7.264.62-10.942.953-.931.082-1.637.82-1.415 1.799 1.158 4.804 2.316 9.654 3.474 14.458.134.56.779 1.125 1.384 1.085l18.301-1.758c1.817-.213 1.894-3.097.031-2.884Z" fill="#727E99"/><path d="M79.452 93.66c-.155 1.487-.264 2.974-.42 4.415-.103 1.022.193 3.77-1.022 4.269-.981.408-2.468.252-3.493.381-6.893.717-13.832 1.434-20.725 2.197-8.01.845-15.975 1.69-23.986 2.535-2.514.252-5.03.551-7.544.803-.56.041-1.118.128-1.677.169-1.07.081-1.39-.527-1.613-1.413-.536-2.053-1.12-4.06-1.656-6.112-.492-1.866-1.17-3.78-1.241-5.736-.104-3.304.07-6.605.106-9.907.02-1.861-2.864-1.892-2.884-.031-.034 3.116-.113 6.232-.1 9.35.005 3.907 1.544 7.878 2.574 11.611.402 1.539.663 3.217 1.954 4.3.922.755 1.99.906 3.155.778 2.049-.164 4.052-.421 6.101-.632 15.695-1.647 31.344-3.294 47.039-4.94 1.63-.169 4.048-.05 5.545-.825 2.152-1.14 2.083-3.42 2.291-5.465.16-1.859.366-3.764.526-5.623.113-1.906-2.771-1.937-2.93-.124Z" fill="#727E99"/><path d="M16.772 99.642c.109 2.839.264 5.725.373 8.564.074 1.815 2.957 1.893 2.884.031-.109-2.839-.264-5.725-.373-8.564-.074-1.815-2.957-1.893-2.884-.03ZM30.102 84.107c1.723 4.252 3.444 8.55 5.167 12.802.136.327.225.7.407 1.028.183.28.09.373.047-.046.084.931-.02 1.86-.03 2.791l-.073 6.837c-.02 1.861 2.864 1.892 2.884.031l.075-6.977c.017-1.582.123-2.79-.467-4.192-1.721-4.345-3.49-8.644-5.21-12.989-.68-1.681-3.48-.967-2.8.715ZM58.41 82.037c2.143 4.024 4.24 8.047 6.383 12.071.092.14.727 1.636.867 1.638-.326-.004-.127-1.211-.185-.142-.052.558-.012 1.116-.018 1.674l-.072 6.745c-.02 1.861 2.864 1.892 2.884.031l.075-7.024c.01-.884.16-1.859-.157-2.7-.181-.467-.502-.935-.73-1.357-2.189-4.117-4.378-8.234-6.52-12.304-.913-1.685-3.394-.27-2.528 1.368ZM41.355 97.719 60.77 96.39c.605-.04.615-1.017.01-.977l-19.414 1.328c-.606.086-.662 1.016-.01.977ZM67.791 127.03c1.422-2.497 2.66-5.135 4.13-7.678.663-1.156 1.374-2.404 2.315-3.325.188-.184.937-.688.563-.506.094-.045.653-.132.466-.088 2.004-.304 4.095-.095 6.095-.027 2.883.123 5.719.293 8.6.51 5.347.383 10.691.859 15.988 1.474 1.766.205 3.531.41 5.248.8.79.148 2.043.441 2.457.864-.092-.094.001-.093.044.233-.001.046.043.326.086.606.126 1.304.252 2.608.331 3.911.204 2.607.455 5.308.333 7.959-.004.372-.15.975-.343 1.671-.339 1.252-.771 2.503-1.157 3.755-.913 2.735-1.92 5.516-3.342 8.059-.191.37-.428.787-.664 1.11-.094.138-.659.737-.378.554-.14.091.232.049-.186.044-.466.042-.094.046-.606.087-4.142.188-8.415-.509-12.503-1.064-5.249-.708-10.543-1.555-15.744-2.448a289.892 289.892 0 0 1-6.175-1.136c-.557-.099-1.161-.199-1.718-.344-1.345-.34-3.992-.834-4.863-2.006-.229-.328-.263-1.538-.35-2.144-.122-1.536-.198-3.119-.275-4.701-.039-.698-.031-1.396-.024-2.094l.008-.698c0-.093.1-.743.004-.418.196-.882 1.093-2.129 1.66-2.96.994-1.571-1.456-3.039-2.45-1.468-.662 1.016-1.465 2.124-1.896 3.283-.335.88-.252 1.858-.262 2.788.017 2.745.126 5.584.516 8.286.432 3.122 4.235 4.232 6.88 4.865 1.299.34 2.599.54 3.899.786a368.939 368.939 0 0 0 15.975 2.637c5.156.753 10.357 1.599 15.519 1.748 1.209.012 2.836.169 3.913-.517 1.967-1.235 2.979-4.481 3.791-6.472a79.558 79.558 0 0 0 2.975-8.482c.581-2.087.556-4.088.44-6.275a135.526 135.526 0 0 0-.606-8.66c-.211-1.956-1.084-3.035-2.984-3.707-2.92-1.008-6.268-1.183-9.335-1.495-2.927-.311-5.855-.574-8.783-.838-6.042-.53-12.176-1.154-18.272-1.033-1.768.027-3.443.056-4.806 1.344-2.256 2.162-3.686 5.357-5.157 8.086-.617 1.203-1.236 2.452-1.946 3.654-.761 1.574 1.689 3.042 2.59 1.47Z" fill="#727E99"/><path d="M65.082 132.258c9.753 1.593 19.6 3.047 29.501 3.711 2.79.17 5.58.293 8.371.276 1.675-.029 3.443-.01 5.075-.411 2.752-.668 3.726-4.752 4.541-7.022a131.952 131.952 0 0 0 3.079-9.458c.53-1.762-2.252-2.582-2.737-.773-.677 2.412-1.446 4.776-2.262 7.14-.577 1.715-1.153 3.383-1.915 5.05-.286.648-.572 1.296-.95 1.851-.048.092-.332.508-.237.369-.237.37.186.002-.047.046-3.87.843-8.192.378-12.097.15-6.09-.344-12.177-1.107-18.215-1.963-3.763-.505-7.571-1.104-11.333-1.702-1.765-.298-2.585 2.437-.774 2.736Z" fill="#727E99"/><path d="m106.08 135.395 1.135 11.317c.167 1.816 3.051 1.847 2.885.031l-1.136-11.317c-.213-1.817-3.05-1.848-2.884-.031ZM114.917 131.396c.012-1.163-.089-4.747-2.24-3.699-1.543.727-1.852 3.469-2.1 4.908-.347 1.997-.788 4.133-.67 6.134.12 1.77 1.407 3.319 2.961 1.567.8-.922-.534-2.285-1.335-1.363.415.33.509.238.283-.369l.01-.931c.005-.465.102-.883.154-1.347.103-.976.254-1.998.404-2.973.149-.929.346-1.904.635-2.831 0 .046.671-1.808-.174-1.165-.046-.001.167 1.816.165 2.048-.014 1.256 1.893 1.277 1.907.021ZM76.058 119.582c10.04.712 20.13 1.285 30.118 2.602.418.051 1.442.015 1.764.298.646.518-.733 3.295-1.019 3.943-.285.602-.571 1.203-.949 1.758-.284.462.044.233-.422.274-.839.131-1.814-.019-2.651-.075-5.998-.25-12.04-.733-18.037-1.169-.558-.053-1.347-.247-1.906-.114-.606.087-.89.595-1.221 1.057-.425.554-.517.46-1.308.451-2.929-.124-5.81-.388-8.692-.651l.411.702c1.429-3.101 2.904-6.202 4.333-9.304.239-.556-.547-1.029-.832-.474-1.429 3.101-2.904 6.203-4.333 9.304-.143.324.039.698.411.702 2.742.262 5.485.478 8.227.647 1.023.057 1.719.251 2.426-.579.377-.461.426-.74.893-.875.326-.089.79.055 1.116.059 6.275.439 12.597.925 18.874 1.225.79.055 1.766.205 2.558.028.793-.132 1.032-.78 1.412-1.474.664-1.249 3.082-5.503.952-6.41-1.528-.667-3.809-.552-5.435-.709-3.346-.362-6.739-.63-10.086-.899a963.203 963.203 0 0 0-16.64-1.294c-.558-.053-.568.924.036.977Z" fill="#727E99"/><path d="M94.029 122.612c4.837.098 9.674.196 14.511.341.605.007.615-.924.011-.977-4.838-.098-9.675-.196-14.512-.341-.651.04-.662.97-.01.977ZM74.331 128.822c.714-1.481 1.474-3.008 2.188-4.49.238-.509 1.087-1.57 1.046-2.128.002-.14-.465-.005-.187.091.185.095.558.006.745.008 3.488.083 6.93.167 10.418.251.605.006.615-.924.01-.977l-11.348-.261a.552.552 0 0 0-.422.228 452.098 452.098 0 0 1-3.329 6.803c-.191.51.594 1.03.879.475Z" fill="#727E99"/><path d="m76.91 127.034 25.536.273 3.628.039c.605.007.615-.97.011-.977l-25.537-.273-3.628-.039c-.605-.006-.616.971-.01.977Z" fill="#727E99"/><path d="M93.702 122.748c.067 2.467-4.59 2.975-4.797.507-.206-2.468 4.403-2.791 4.796-.367.086.605 1.02.336.933-.223-.614-3.542-7.04-2.913-6.707.719.333 3.633 6.806 3.004 6.705-.579.007-.652-.923-.662-.93-.057Z" fill="#727E99"/><path d="M94.181 121.497c-1.01-1.173-2.728-1.518-4.13-.974-1.027.361-2.53 1.694-2.032 2.956.498 1.354 2.775 1.564 3.895 1.251 1.353-.358 2.434-1.416 2.403-2.859.007-.605-.97-.615-.977-.01-.01 1.023-.762 1.713-1.696 1.982-.7.179-2.375.207-2.737-.681-.317-.794 1.133-1.616 1.693-1.749 1.073-.268 2.187-.024 2.876.821.414.423 1.073-.267.706-.737Z" fill="#727E99"/><path d="M90.46 121.457c.132.607.219 1.259.352 1.865.133.606 1.02.337.932-.223-.133-.606-.219-1.258-.352-1.864-.133-.607-1.066-.384-.933.222Z" fill="#727E99"/><path d="M92.133 121.661c-.793.131-1.539.31-2.331.441-.606.133-.337 1.02.222.933.793-.132 1.539-.31 2.331-.441.653-.132.384-1.066-.222-.933ZM71.491 76.78c5.51 2.479 11.066 4.957 16.621 7.482 12.408 5.576 24.816 11.151 37.177 16.727 12.964 5.814 25.928 11.628 38.844 17.488 7.037 3.192 14.121 6.338 21.158 9.53 2.686 1.192 5.846 1.505 8.676 2.187 6.266 1.416 12.577 2.879 18.842 4.295l1.253.293c1.67.39 2.39-1.65 1.144-2.593-4.475-3.537-8.949-7.074-13.425-10.565-2.49-1.98-4.982-3.914-7.473-5.895-.507-.424-.968-.801-1.569-1.133-2.453-1.236-5.094-2.241-7.594-3.338-5.047-2.24-10.141-4.434-15.188-6.675-13.983-6.15-27.966-12.301-41.95-18.406L89.945 69.442c-3.38-1.479-6.806-3.004-10.186-4.482l-1.667-.716c-4.168-1.766-8.529 1.444-9.457 5.575-.681 2.784.126 5.583 2.856 6.962 1.62.854 3.134-1.595 1.469-2.45-3.98-2.043-.276-8.982 3.663-7.637.65.193 1.297.572 1.9.811 3.38 1.479 6.713 2.956 10.093 4.435 12.224 5.387 24.495 10.729 36.719 16.116 13.659 6.008 27.365 12.016 41.024 18.024 8.057 3.529 16.16 7.104 24.217 10.633 2.269 1.001 4.156 2.929 6.093 4.485 5.305 4.197 10.61 8.347 15.915 12.544l1.108.85c.381-.88.763-1.76 1.144-2.593-4.966-1.124-9.931-2.293-14.897-3.416-3.248-.733-6.45-1.465-9.699-2.197-.928-.196-1.856-.439-2.785-.635-.417-.097-.788-.194-.325-.003-1.854-.671-3.611-1.621-5.417-2.431-4.213-1.906-8.38-3.765-12.593-5.671-12.501-5.623-25.047-11.246-37.548-16.869a13784.702 13784.702 0 0 0-38.381-17.251c-6.713-3.003-13.38-6.052-20.094-9.008l-.277-.142c-1.527-.807-3.042 1.642-1.329 2.405Z" fill="#727E99"/><path d="m82.3 69.97 105.674 45.702c-2.593-.027-4.908 4.27-5.741 6.422-32.8-14.668-99.044-44.335-101.623-45.659-3.224-1.655-4.026-2.474-2.379-4.888 1.317-1.93 3.261-1.856 4.069-1.577Z" fill="#F98585"/><path d="M203.825 130.625c-.051.418-.049.186.047-.092.097-.325.194-.65.337-.974a5.296 5.296 0 0 1 1.838-2.213c1.5-1.054.084-3.535-1.416-2.481-1.922 1.329-3.385 3.313-3.643 5.683-.102.79.682 1.45 1.427 1.458.79.008 1.309-.637 1.41-1.381ZM192.212 115.94c-.571 1.203-1.655 2.494-3.141 2.246-.371-.051-.7.225-.611.598.355 1.632-.59 3.018-1.948 3.794-.187.091-.282.323-.238.556.313 1.12.718 2.473.426 3.587-.146.603.782.845.928.242.294-1.346-.062-2.838-.421-4.098-.095.185-.144.37-.239.555 1.732-1.005 2.868-2.807 2.425-4.859l-.611.599c1.904.346 3.407-1.034 4.215-2.654.333-.647-.499-1.121-.785-.566ZM36.024 87.287c.539 1.82 1.031 3.64 1.57 5.46.27.933.49 2.006 1.51 2.436 1.157.477 2.65.028 3.815-.1 1.863-.212 3.727-.425 5.59-.59.605-.087.615-1.018.01-.978-2.562.252-5.125.643-7.686.849-1.815.12-2.262-1.606-2.665-3.053-.404-1.4-.807-2.847-1.211-4.247-.18-.606-1.113-.384-.933.223ZM55.605 83.263c-2.758 1.273-5.563 2.546-8.321 3.82-.562.273-.105 1.068.456.842 2.758-1.273 5.563-2.546 8.322-3.82.56-.273.105-1.115-.456-.842ZM55.724 85.218c-2.108 1.374-4.216 2.7-6.324 4.073-.516.32-.06 1.163.456.843 2.108-1.374 4.216-2.7 6.324-4.073.516-.367.06-1.21-.456-.843ZM58.829 86.368a44.111 44.111 0 0 0-6.04 3.61c-.516.368-.013 1.21.456.843a44.096 44.096 0 0 1 6.04-3.61c.561-.274.059-1.116-.456-.843ZM59.874 88.752c-2.104.954-4.025 2.19-5.808 3.66-.47.367.174 1.072.69.705 1.736-1.377 3.61-2.567 5.62-3.476.515-.32.059-1.162-.502-.89ZM42.399 104.522c2.564-.531 5.174-.969 7.736-1.313.606-.087.337-1.02-.222-.933-2.61.344-5.173.828-7.737 1.313-.606.133-.384 1.066.223.933ZM20.231 102.331l.087 4.979c-.003.232.227.467.46.47 1.582.017 3.166-.199 4.705-.555.606-.133.337-1.066-.223-.933-1.446.357-2.937.527-4.472.557l.46.471-.086-4.979c.053-.651-.924-.662-.93-.01ZM67.14 83.48c1.68-.587 3.39.455 3.51 2.27.041.606 1.018.616.978.01-.16-2.374-2.423-3.98-4.711-3.213-.607.18-.338 1.113.222.933ZM74.038 73.599c-.489-2.146.7-4.46 2.755-5.275.56-.226.338-1.159-.223-.932a5.639 5.639 0 0 0-3.465 6.43c.133.605 1.067.336.933-.223ZM93.493 81.39c2.494-2.626 6.228.577 8.539 1.951 2.403 1.468 4.855 2.797 7.353 4.126a133.967 133.967 0 0 0 15.233 6.722c.556.193.845-.688.243-.927a132.07 132.07 0 0 1-18.101-8.288c-2.775-1.519-5.406-3.454-8.23-4.787-1.898-.904-4.221-1.115-5.774.543-.377.415.313 1.12.737.66ZM125.71 126.998c2.549-3.461 7.315-1.038 10.372.204 3.288 1.385 6.67 2.677 10.15 3.505 5.986 1.413 12.501 1.204 17.748-2.229.516-.321.059-1.163-.456-.843-6.511 4.211-14.502 3.195-21.455.841-3.476-1.2-6.805-3.097-10.331-3.972-2.506-.631-5.255-.242-6.814 1.974-.378.554.408 1.028.786.52ZM198.493 14.511c1.654-.216 2.858-1.777 2.647-3.44-.341-2.69-3.844-3.6-5.469-1.511-1.222 1.572-.606 3.985 1.264 4.75l-1.277 9.114-8.778 3.556-7.795-6.084a.788.788 0 0 0-.776-.11l-9.167 3.73-6.356-4.961c.201-.492.27-1.028.2-1.557a3.117 3.117 0 0 0-3.441-2.69 3.013 3.013 0 0 0-2.047 1.158 3.037 3.037 0 0 0-.609 2.264c.131 1.014 1.687.82 1.555-.194a1.489 1.489 0 0 1 1.295-1.66 1.53 1.53 0 0 1 1.692 1.316 1.502 1.502 0 0 1-1.295 1.66c-1.007.12-.813 1.689.194 1.57a3.014 3.014 0 0 0 1.506-.616l6.349 4.956-.976 7.01c-1.72.144-3.008 1.739-2.791 3.455a3.07 3.07 0 0 0 1.163 2.046c1.151.899 2.828.84 3.912-.116l5.777 4.51a.786.786 0 0 0 .777.109l9.162-3.729 2.347 1.833c.778.607 1.759-.62.956-1.246l-2.342-1.829 1.303-9.358 8.778-3.556 5.41 4.238c-.659 1.532.091 3.404 1.631 4.056l-.954 6.771-8.741 3.647-1.67-1.303c-.804-.628-1.76.618-.956 1.246l1.669 1.303-1.282 9.155c-.79.09-1.545.486-2.071 1.162-1.022 1.315-.794 3.289.538 4.329 1.321 1.03 3.282.783 4.306-.535 1.212-1.557.62-3.944-1.219-4.73l1.284-9.163 8.74-3.646 6.47 5.06c-.6 1.27-.223 2.876.894 3.748 1.321 1.03 3.282.782 4.306-.535 1.022-1.314.795-3.289-.538-4.329a3.069 3.069 0 0 0-3.653-.089l-6.521-5.1.953-6.771c1.672-.198 2.897-1.766 2.684-3.444-.293-2.314-3.083-3.453-4.903-2.07l-5.415-4.242 1.28-9.138Zm-1.89-2.858a1.556 1.556 0 0 1 .927-1.585c.875-.358 1.932.233 2.054 1.193.164 1.296-1.379 2.193-2.418 1.381a1.475 1.475 0 0 1-.563-.989ZM193.2 56.867a1.5 1.5 0 0 1-.306 1.114c-1.185 1.524-3.566-.296-2.369-1.836a1.514 1.514 0 0 1 2.112-.267 1.476 1.476 0 0 1 .563.99Zm-26.663-19.84a1.513 1.513 0 0 1-.256-2.104 1.514 1.514 0 0 1 2.112-.267c.667.52.7 1.445.256 2.104a1.505 1.505 0 0 1-2.112.267Zm3.833-.179c.502-1.459-.212-3.148-1.614-3.8l.984-7.067 8.747-3.56 7.431 5.8-1.303 9.36-8.747 3.56-5.498-4.293Zm41.25 9.56c1.375-.561 2.68 1.11 1.748 2.307a1.505 1.505 0 0 1-2.112.267c-.887-.692-.668-2.153.364-2.574Zm-7.699-17.45c.875-.357 1.932.233 2.054 1.193.164 1.296-1.379 2.193-2.419 1.382-.886-.693-.667-2.154.365-2.575Z" fill="#727E99"/></svg>