<svg width="45" height="45" fill="none" xmlns="http://www.w3.org/2000/svg"><path d="M11.25 0a2.82 2.82 0 0 0-2.813 2.813v39.374A2.82 2.82 0 0 0 11.25 45h28.125a2.82 2.82 0 0 0 2.813-2.813V11.25L30.938 0H11.25Z" fill="#E2E5E7"/><path d="M33.75 11.25h8.438L30.938 0v8.438a2.82 2.82 0 0 0 2.812 2.812Z" fill="#B0B7BD"/><path d="M42.188 19.688 33.75 11.25h8.438v8.438Z" fill="#CAD1D8"/><path d="M36.563 36.563a1.41 1.41 0 0 1-1.407 1.406H4.22a1.41 1.41 0 0 1-1.407-1.407V22.5a1.41 1.41 0 0 1 1.407-1.406h30.937a1.41 1.41 0 0 1 1.407 1.406v14.063Z" fill="#F15642"/><path d="M8.941 26.644c0-.37.293-.776.764-.776h2.597c1.463 0 2.78.979 2.78 2.855 0 1.777-1.317 2.767-2.78 2.767h-1.877v1.485c0 .495-.315.775-.72.775a.758.758 0 0 1-.764-.775v-6.33Zm1.484.64v2.802h1.877c.754 0 1.35-.666 1.35-1.363 0-.786-.596-1.439-1.35-1.439h-1.877ZM17.284 33.75c-.371 0-.776-.203-.776-.697v-6.387c0-.403.405-.697.776-.697h2.575c5.138 0 5.026 7.78.101 7.78h-2.676Zm.709-6.409v5.037h1.866c3.036 0 3.171-5.037 0-5.037h-1.866ZM26.705 27.432v1.787h2.868c.405 0 .81.405.81.797 0 .372-.405.675-.81.675h-2.868v2.362c0 .393-.28.696-.673.696-.495 0-.798-.303-.798-.697v-6.387c0-.403.304-.697.798-.697h3.947c.495 0 .788.294.788.697 0 .36-.293.765-.788.765h-3.274v.002Z" fill="#fff"/><path d="M35.156 37.969H8.438v1.406h26.718a1.41 1.41 0 0 0 1.407-1.406v-1.407a1.41 1.41 0 0 1-1.407 1.407Z" fill="#CAD1D8"/></svg>