<svg width="795" height="143" fill="none" xmlns="http://www.w3.org/2000/svg"><path d="M280.487 101.151a1.25 1.25 0 1 0-.974-2.302l.974 2.302ZM27.362 86.804a1.25 1.25 0 1 0 .081-2.499l-.081 2.5Zm6.86-2.042a1.25 1.25 0 0 0-.258 2.486l.258-2.486Zm6.284 3.42a1.25 1.25 0 0 0 .451-2.459l-.451 2.46Zm7.123-.941a1.25 1.25 0 1 0-.658 2.411l.658-2.411Zm5.627 4.422a1.25 1.25 0 0 0 .864-2.346l-.864 2.346Zm7.166.283a1.25 1.25 0 1 0-1.056 2.266l1.056-2.266Zm4.833 5.292a1.25 1.25 0 0 0 1.223-2.18l-1.223 2.18Zm7.045 1.33a1.25 1.25 0 0 0-1.353 2.102l1.353-2.102Zm4.169 5.838a1.25 1.25 0 0 0 1.442-2.042l-1.442 2.042Zm6.902 1.931a1.251 1.251 0 0 0-1.494 2.005l1.494-2.005Zm3.873 6.041a1.25 1.25 0 1 0 1.506-1.995l-1.507 1.995Zm6.876 2.024a1.251 1.251 0 0 0-1.485 2.012l1.485-2.012Zm3.999 5.957a1.25 1.25 0 1 0 1.43-2.051l-1.43 2.051Zm6.973 1.66a1.25 1.25 0 0 0-1.347 2.106l1.347-2.106Zm4.459 5.621a1.25 1.25 0 1 0 1.238-2.172l-1.238 2.172Zm7.098.951a1.25 1.25 0 1 0-1.11 2.24l1.11-2.24Zm5.082 5.073a1.25 1.25 0 0 0 .968-2.305l-.968 2.305Zm7.167.069a1.249 1.249 0 1 0-.82 2.361l.82-2.361Zm5.657 4.384a1.25 1.25 0 1 0 .671-2.408l-.671 2.408Zm7.12-.817a1.25 1.25 0 1 0-.528 2.444l.528-2.444Zm6.146 3.691a1.25 1.25 0 0 0 .392-2.469l-.392 2.469Zm6.991-1.595a1.25 1.25 0 1 0-.267 2.486l.267-2.486Zm6.484 3.051a1.25 1.25 0 1 0 .153-2.495l-.153 2.495Zm6.811-2.23a1.25 1.25 0 0 0-.049 2.5l.049-2.5Zm6.774 2.513a1.25 1.25 0 1 0-.03-2.5l.03 2.5Zm6.565-2.663a1.25 1.25 0 1 0 .095 2.498l-.095-2.498Zm6.752 2.15a1.249 1.249 0 1 0-.168-2.494l.168 2.494Zm6.396-3.042a1.25 1.25 0 1 0 .25 2.487l-.25-2.487Zm6.87 1.698a1.25 1.25 0 0 0-.344-2.476l.344 2.476Zm6.127-3.512a1.25 1.25 0 0 0 .449 2.459l-.449-2.459Zm7.029 1.092a1.25 1.25 0 1 0-.57-2.434l.57 2.434Zm5.761-4.1a1.249 1.249 0 1 0 .705 2.398l-.705-2.398Zm7.09.305a1.25 1.25 0 0 0-.854-2.35l.854 2.35Zm5.205-4.791a1.25 1.25 0 0 0 1.014 2.285l-1.014-2.285Zm7.047-.661a1.25 1.25 0 0 0-1.179-2.205l1.179 2.205Zm4.472-5.498a1.25 1.25 0 1 0 1.336 2.113l-1.336-2.113Zm6.891-1.66a1.25 1.25 0 0 0-1.468-2.024l1.468 2.024Zm3.757-6.015a1.25 1.25 0 1 0 1.558 1.955l-1.558-1.955Zm6.709-2.241a1.25 1.25 0 1 0-1.587-1.931l1.587 1.931Zm3.601-6.118a1.25 1.25 0 0 0 1.537 1.972l-1.537-1.972Zm6.821-1.873a1.251 1.251 0 0 0-1.387-2.08l1.387 2.08Zm4.45-5.515a1.25 1.25 0 1 0 1.132 2.229l-1.132-2.229ZM24 86.75c1.14 0 2.261.018 3.362.054l.081-2.499A105.6 105.6 0 0 0 24 84.25v2.5Zm9.964.498c2.265.235 4.442.548 6.542.934l.451-2.459a86.66 86.66 0 0 0-6.735-.961l-.258 2.486Zm13.007 2.404a76.16 76.16 0 0 1 6.285 2.011l.864-2.346a78.693 78.693 0 0 0-6.491-2.076l-.658 2.411Zm12.395 4.56a88.778 88.778 0 0 1 5.89 3.026l1.222-2.18a91.314 91.314 0 0 0-6.055-3.112l-1.057 2.266Zm11.581 6.458a153.654 153.654 0 0 1 5.522 3.736l1.442-2.042a155.925 155.925 0 0 0-5.611-3.796l-1.353 2.102Zm10.93 7.672c1.785 1.329 3.566 2.677 5.367 4.036l1.506-1.995c-1.797-1.356-3.587-2.711-5.38-4.046l-1.493 2.005Zm10.758 8.072a251.903 251.903 0 0 0 5.484 3.945l1.43-2.051a249.054 249.054 0 0 1-5.43-3.906l-1.484 2.012Zm11.11 7.711a132.724 132.724 0 0 0 5.806 3.515l1.238-2.172a131.132 131.132 0 0 1-5.697-3.449l-1.347 2.106Zm11.794 6.706c1.993.987 4.053 1.934 6.192 2.833l.968-2.305a107.107 107.107 0 0 1-6.05-2.768l-1.11 2.24Zm12.539 5.263c2.084.724 4.24 1.4 6.477 2.023l.671-2.408a106.472 106.472 0 0 1-6.328-1.976l-.82 2.361Zm13.069 3.65c2.153.465 4.376.882 6.674 1.247l.392-2.469a120.517 120.517 0 0 1-6.538-1.222l-.528 2.444Zm13.398 2.138c2.185.234 4.434.424 6.751.565l.153-2.495a145.14 145.14 0 0 1-6.637-.556l-.267 2.486Zm13.513.835c1.132.022 2.279.033 3.442.033v-2.5c-1.147 0-2.278-.011-3.393-.033l-.049 2.5Zm3.442.033c1.143 0 2.27-.007 3.381-.02l-.03-2.5c-1.101.013-2.218.02-3.351.02v2.5Zm10.041-.185c2.287-.087 4.505-.203 6.657-.348l-.168-2.494c-2.127.143-4.32.258-6.584.344l.095 2.498Zm13.303-.903c2.286-.23 4.491-.494 6.62-.789l-.344-2.476c-2.096.291-4.27.551-6.526.778l.25 2.487Zm13.196-1.842a136.23 136.23 0 0 0 6.58-1.367l-.57-2.434c-2.06.482-4.21.931-6.459 1.342l.449 2.459Zm13.046-3.069a106.17 106.17 0 0 0 6.385-2.093l-.854-2.35a104.289 104.289 0 0 1-6.236 2.045l.705 2.398Zm12.604-4.599a91.712 91.712 0 0 0 6.033-2.946l-1.179-2.205a89.185 89.185 0 0 1-5.868 2.866l1.014 2.285Zm11.841-6.331a104.451 104.451 0 0 0 5.555-3.773l-1.468-2.024a102.202 102.202 0 0 1-5.423 3.684l1.336 2.113Zm10.87-7.833c1.78-1.419 3.487-2.828 5.151-4.196l-1.587-1.931c-1.67 1.373-3.361 2.768-5.122 4.172l1.558 1.955Zm10.289-8.342c1.743-1.359 3.487-2.648 5.284-3.845l-1.387-2.08c-1.863 1.241-3.659 2.57-5.434 3.953l1.537 1.972Zm10.866-7.131a46.236 46.236 0 0 1 2.931-1.364l-.974-2.302a48.83 48.83 0 0 0-3.089 1.437l1.132 2.229ZM517.736 92.49a1.25 1.25 0 1 0-1.472 2.02l1.472-2.02Zm266.148-6.606a1.25 1.25 0 0 0 0-1.768l-7.955-7.955a1.25 1.25 0 0 0-1.768 1.768L781.232 85l-7.071 7.071a1.25 1.25 0 0 0 1.768 1.768l7.955-7.955ZM519.166 96.74a1.25 1.25 0 1 0 1.573-1.943l-1.573 1.943Zm7.196 3.115a1.25 1.25 0 0 0-1.765 1.77l1.765-1.77Zm3.168 7.165a1.25 1.25 0 1 0 1.914-1.608l-1.914 1.608Zm6.565 4.257a1.25 1.25 0 0 0-1.989 1.515l1.989-1.515Zm2.548 7.429a1.25 1.25 0 0 0 1.959-1.552l-1.959 1.552Zm6.735 3.975a1.25 1.25 0 1 0-1.799 1.736l1.799-1.736Zm3.89 6.802a1.251 1.251 0 0 0 1.505-1.997l-1.505 1.997Zm7.608 1.837a1.25 1.25 0 0 0-1.15 2.22l1.15-2.22Zm5.829 5.21a1.249 1.249 0 1 0 .827-2.359l-.827 2.359Zm7.826-.337a1.25 1.25 0 0 0-.572 2.434l.572-2.434Zm6.835 3.855a1.251 1.251 0 0 0 .379-2.471l-.379 2.471Zm7.658-1.58a1.25 1.25 0 1 0-.235 2.489l.235-2.489Zm7.251 3.02a1.25 1.25 0 0 0 .124-2.497l-.124 2.497Zm7.475-2.265a1.25 1.25 0 1 0-.037 2.499l.037-2.499Zm7.178 2.487a1.25 1.25 0 1 0-.058-2.499l.058 2.499Zm6.646-2.808a1.25 1.25 0 0 0 .172 2.494l-.172-2.494Zm6.968 1.873a1.25 1.25 0 1 0-.282-2.484l.282 2.484Zm6.373-3.385a1.25 1.25 0 0 0 .388 2.469l-.388-2.469Zm7.102 1.273a1.25 1.25 0 0 0-.488-2.452l.488 2.452Zm6.078-3.891a1.25 1.25 0 1 0 .581 2.432l-.581-2.432Zm7.179.728a1.25 1.25 0 1 0-.668-2.409l.668 2.409Zm5.786-4.313a1.25 1.25 0 1 0 .746 2.386l-.746-2.386Zm7.212.257a1.251 1.251 0 0 0-.817-2.363l.817 2.363Zm5.52-4.649a1.252 1.252 0 0 0 .879 2.341l-.879-2.341Zm7.215-.124a1.25 1.25 0 1 0-.933-2.32l.933 2.32Zm5.299-4.9a1.25 1.25 0 1 0 .979 2.3l-.979-2.3Zm7.206-.412a1.25 1.25 0 1 0-1.016-2.284l1.016 2.284Zm5.138-5.073a1.25 1.25 0 0 0 1.046 2.271l-1.046-2.271Zm7.194-.597a1.249 1.249 0 1 0-1.067-2.261l1.067 2.261Zm5.043-5.166a1.25 1.25 0 0 0 1.079 2.256l-1.079-2.256Zm7.186-.673a1.25 1.25 0 1 0-1.081-2.254l1.081 2.254Zm5.029-5.178a1.25 1.25 0 0 0 1.075 2.257l-1.075-2.257Zm7.186-.627a1.25 1.25 0 0 0-1.057-2.266l1.057 2.266Zm5.107-5.098a1.251 1.251 0 0 0 1.028 2.279l-1.028-2.28Zm7.208-.444a1.249 1.249 0 1 0-.985-2.298l.985 2.298Zm5.301-4.905a1.25 1.25 0 0 0 .927 2.321l-.927-2.321Zm7.214-.077a1.25 1.25 0 0 0-.852-2.35l.852 2.35Zm5.598-4.545a1.25 1.25 0 1 0 .755 2.383l-.755-2.383Zm7.203.51a1.25 1.25 0 1 0-.635-2.418l.635 2.418Zm6.034-3.963a1.25 1.25 0 1 0 .489 2.452l-.489-2.452Zm7.076 1.374a1.25 1.25 0 1 0-.314-2.48l.314 2.48Zm6.533-3.07a1.25 1.25 0 1 0 .111 2.497l-.111-2.497ZM516.264 94.51a72.343 72.343 0 0 1 2.902 2.23l1.573-1.943a74.13 74.13 0 0 0-3.003-2.307l-1.472 2.02Zm8.333 7.115a82.437 82.437 0 0 1 4.933 5.395l1.914-1.608a85.177 85.177 0 0 0-5.082-5.558l-1.765 1.771Zm9.509 11.167c1.524 1.999 3.013 3.992 4.537 5.914l1.959-1.552c-1.504-1.899-2.964-3.853-4.507-5.877l-1.989 1.515Zm9.473 11.625a48.349 48.349 0 0 0 5.689 5.066l1.505-1.997a45.821 45.821 0 0 1-5.395-4.805l-1.799 1.736Zm12.147 9.123a53.655 53.655 0 0 0 6.979 2.99l.827-2.359a51.335 51.335 0 0 1-6.656-2.851l-1.15 2.22Zm14.233 5.087a96.234 96.234 0 0 0 7.407 1.421l.379-2.471a93.738 93.738 0 0 1-7.214-1.384l-.572 2.434Zm14.83 2.33c2.363.223 4.855.401 7.486.531l.124-2.497a166.827 166.827 0 0 1-7.375-.523l-.235 2.489Zm14.924.765c1.235.019 2.497.028 3.787.028v-2.5c-1.278 0-2.528-.009-3.75-.027l-.037 2.499Zm3.787.028c1.147 0 2.29-.013 3.428-.04l-.058-2.499c-1.119.026-2.242.039-3.37.039v2.5Zm10.246-.354c2.285-.158 4.55-.366 6.796-.621l-.282-2.484c-2.21.251-4.439.456-6.686.611l.172 2.494Zm13.557-1.537c2.257-.354 4.495-.754 6.714-1.196l-.488-2.452c-2.187.435-4.392.83-6.614 1.179l.388 2.469Zm13.373-2.655c2.218-.531 4.417-1.1 6.598-1.704l-.668-2.409a190.374 190.374 0 0 1-6.511 1.681l.581 2.432Zm13.13-3.631c2.173-.68 4.328-1.39 6.466-2.129l-.817-2.363a228.788 228.788 0 0 1-6.395 2.106l.746 2.386Zm12.865-4.437c2.128-.799 4.24-1.622 6.336-2.465l-.933-2.32a291.925 291.925 0 0 1-6.282 2.444l.879 2.341Zm12.614-5.065a404.136 404.136 0 0 0 6.227-2.712l-1.016-2.284c-2.05.912-4.113 1.812-6.19 2.696l.979 2.3Zm12.411-5.514c2.064-.95 4.113-1.908 6.148-2.868l-1.067-2.261a710.53 710.53 0 0 1-6.127 2.858l1.046 2.271Zm12.27-5.778c2.049-.98 4.085-1.958 6.107-2.929l-1.081-2.254c-2.024.971-4.058 1.948-6.105 2.927l1.079 2.256Zm12.211-5.85a855.477 855.477 0 0 1 6.111-2.884l-1.057-2.266a865.621 865.621 0 0 0-6.129 2.893l1.075 2.257Zm12.246-5.703a357.248 357.248 0 0 1 6.18-2.723l-.985-2.298c-2.066.886-4.14 1.802-6.223 2.742l1.028 2.279Zm12.408-5.307a207.449 207.449 0 0 1 6.287-2.398l-.852-2.35a209.511 209.511 0 0 0-6.362 2.427l.927 2.321Zm12.64-4.56c2.159-.684 4.307-1.31 6.448-1.873l-.635-2.418a136.703 136.703 0 0 0-6.568 1.908l.755 2.383Zm12.971-3.384a94.15 94.15 0 0 1 6.587-1.078l-.314-2.48a96.673 96.673 0 0 0-6.762 1.106l.489 2.452Zm13.231-1.65c1.11-.05 2.219-.075 3.327-.075v-2.5c-1.146 0-2.292.026-3.438.077l.111 2.497Z" fill="#FFCA42"/><path d="M272.605 78.604 271.302 72m.652 19.85-3.256-3.963m13.674 3.962 1.954-5.943m11.174 16.509 5.86 1.321m-15.732 2.641 3.907 4.623m1.302-18.5L298 90.519M500.486 109.343l-4.987 4.521m16.671-10.793-1.716 4.833m-3.656-13.76-6.1 1.391m8.384-18.087-1.89-5.702m10.375 12.117 1.946-5.73m-16.522 8.423L497.6 81.44" stroke="#FFCA42" stroke-width="2" stroke-linecap="round"/><path d="M405.5 0C394.202 0 385 9.302 385 20.724c0 17.178 18.222 33.296 19.02 33.987a2.253 2.253 0 0 0 2.96 0C407.777 54.02 426 37.9 426 20.724 426 9.302 416.798 0 405.5 0Zm0 32.237c-6.287 0-11.389-5.158-11.389-11.513 0-6.356 5.102-11.514 11.389-11.514 6.287 0 11.389 5.158 11.389 11.514 0 6.355-5.102 11.513-11.389 11.513ZM12 42C5.386 42 0 47.482 0 54.212 0 64.335 10.666 73.833 11.133 74.24a1.314 1.314 0 0 0 1.734 0C13.332 73.833 24 64.335 24 54.212 24 47.482 18.614 42 12 42Zm0 18.997c-3.68 0-6.667-3.04-6.667-6.785S8.32 47.428 12 47.428c3.68 0 6.667 3.04 6.667 6.784 0 3.745-2.987 6.785-6.667 6.785ZM783 37c-6.614 0-12 5.482-12 12.212 0 10.123 10.667 19.621 11.134 20.028a1.314 1.314 0 0 0 1.733 0c.466-.407 11.133-9.905 11.133-20.028C795 42.482 789.614 37 783 37Zm0 18.997c-3.68 0-6.667-3.04-6.667-6.785s2.987-6.784 6.667-6.784c3.68 0 6.667 3.04 6.667 6.784 0 3.745-2.987 6.785-6.667 6.785ZM607 95c-6.614 0-12 5.482-12 12.212 0 10.123 10.667 19.621 11.134 20.028a1.314 1.314 0 0 0 1.733 0c.466-.407 11.133-9.905 11.133-20.028 0-6.73-5.386-12.212-12-12.212Zm0 18.997c-3.68 0-6.667-3.04-6.667-6.785s2.987-6.784 6.667-6.784c3.68 0 6.667 3.039 6.667 6.784 0 3.745-2.987 6.785-6.667 6.785ZM172 95c-6.614 0-12 5.482-12 12.212 0 10.123 10.667 19.621 11.134 20.028a1.314 1.314 0 0 0 1.733 0c.466-.407 11.133-9.905 11.133-20.028 0-6.73-5.386-12.212-12-12.212Zm0 18.997c-3.68 0-6.667-3.04-6.667-6.785s2.987-6.784 6.667-6.784c3.68 0 6.667 3.039 6.667 6.784 0 3.745-2.987 6.785-6.667 6.785Z" fill="#87A3E3"/></svg>