<svg width="195" height="63" fill="none" xmlns="http://www.w3.org/2000/svg"><g clip-path="url(#a)"><path fill-rule="evenodd" clip-rule="evenodd" d="M31.486 0v7.354c13.3 0 24.131 10.83 24.131 24.132 0 13.3-10.83 24.131-24.131 24.131S7.354 44.787 7.354 31.486c0-2.672.431-5.258 1.236-7.67h9.566v8.474c0 7.67 6.234 13.904 13.904 13.904S45.964 39.96 45.964 32.29h-8.13a5.775 5.775 0 0 1-11.548 0v-8.446h8.82l3.849-8.13h-12.64V.431a31.9 31.9 0 0 0-8.13 2.528v12.755H4.252a31.76 31.76 0 0 0-3.045 7.182c0 .029-.03.057-.03.086-.057.23-.114.46-.172.718 0 .058-.028.115-.028.144C.316 26.286 0 28.843 0 31.486 0 48.837 14.134 62.97 31.486 62.97c17.351 0 31.485-14.134 31.485-31.485C63 14.134 48.866 0 31.486 0Z" fill="#fff"/></g><path fill-rule="evenodd" clip-rule="evenodd" d="M94.364 8.354V6.848H83.682v1.506h4.52v14.244h1.643V8.354h4.52Zm9.587 8.765c0-1.643-.274-3.15-1.369-4.382-.685-.822-1.781-1.233-3.15-1.233-1.37 0-2.329.411-3.15 1.233-1.096 1.095-1.37 2.602-1.37 4.382 0 1.78.274 3.15 1.37 4.383.684.822 1.78 1.233 3.15 1.233 1.369 0 2.328-.411 3.15-1.233 1.095-1.233 1.369-2.74 1.369-4.383Zm-1.643 0c0 1.233 0 2.466-.822 3.287-.548.548-1.233.822-1.917.822-.822 0-1.37-.274-1.918-.822-.822-.821-.822-2.191-.822-3.287 0-1.232.137-2.602.822-3.287.548-.547 1.233-.821 1.918-.821.821 0 1.506.274 1.917.821.822.685.822 2.055.822 3.287Zm12.463 5.342V11.64h-1.644v5.205c-.684.136-1.78.41-3.013.41-1.232 0-1.917-.547-1.917-1.917v-3.698h-1.644v3.972c0 2.191 1.233 3.15 3.15 3.15 1.233 0 2.466-.274 3.287-.411v4.246h1.781v-.137Zm5.615 0V11.64h-1.643v10.82h1.643Zm7.259 0-5.342-5.752 4.931-5.068h-1.918l-4.93 5.205 5.067 5.615h2.192Zm9.587 0v-7.259c0-2.328-1.37-3.56-4.383-3.56-1.78 0-2.876.41-3.835 1.643l1.096.958c.685-.958 1.369-1.232 2.739-1.232 2.054 0 2.739.821 2.739 2.328v1.096h-3.287c-2.465 0-3.698 1.232-3.698 3.15 0 .821.274 1.643.822 2.19.685.686 1.507.96 3.013.96 1.507 0 2.328-.274 3.15-1.233v1.096h1.644v-.137Zm-1.644-3.835c0 .959-.137 1.506-.548 1.917-.684.685-1.506.685-2.465.685-1.78 0-2.465-.548-2.465-1.917 0-1.233.822-1.918 2.465-1.918h3.013v1.233ZM92.171 54.919c4.794 0 8.355-2.74 8.355-6.985 0-2.602-1.37-4.383-3.424-5.341 1.78-.96 3.013-2.74 3.013-5.068 0-3.972-3.287-6.437-7.944-6.437-4.382 0-7.806 2.465-8.628 7.259h4.52c.41-1.918 1.643-3.424 3.971-3.424 2.055 0 3.424 1.096 3.424 2.876 0 1.917-1.232 3.013-3.15 3.013h-3.013v3.698h3.013c2.328 0 3.561 1.233 3.561 3.15 0 1.917-1.507 3.15-3.698 3.15-2.328 0-3.56-1.507-3.972-3.287h-4.52c.823 4.93 4.247 7.396 8.492 7.396Zm26.844-.274v-17.12h-4.246v6.437h-5.478v-6.437h-4.246v17.12h4.246v-6.848h5.478v6.848h4.246Zm17.667 0v-11.23c0-3.972-2.465-6.027-7.259-6.027-2.876 0-4.519.548-6.163 2.465l2.739 2.602c.959-1.095 1.781-1.506 3.287-1.506 2.329 0 3.15.822 3.15 2.74v.82h-3.971c-4.109 0-5.889 2.192-5.889 4.931 0 1.507.547 2.876 1.369 3.835.959.959 2.465 1.507 4.383 1.507 1.917 0 3.013-.548 4.245-1.644v1.507h4.109Zm-4.246-6.3c0 1.095-.137 1.78-.684 2.191-.685.685-1.507.822-2.466.822-1.78 0-2.602-.822-2.602-1.918 0-1.232.822-1.917 2.465-1.917h3.287v.822Zm22.872 6.3v-17.12h-4.245v6.437h-5.479v-6.437h-4.245v17.12h4.245v-6.848h5.479v6.848h4.245Zm19.448 0v-17.12h-4.246l-6.026 10.135V37.525h-4.382v17.12h4.245l6.026-10.409v10.409h4.383Zm17.257-23.694h-3.15c-.137 1.507-.959 2.054-2.055 2.054-1.232 0-2.054-.547-2.054-2.054h-3.287c.137 3.561 2.739 4.657 5.341 4.657 2.465 0 5.205-1.096 5.205-4.657Zm2.054 23.694v-17.12h-4.246l-6.026 10.135V37.525h-4.246v17.12h4.246l6.026-10.409v10.409h4.246Z" fill="#fff"/><defs><clipPath id="a"><path fill="#fff" d="M0 0h63v63H0z"/></clipPath></defs></svg>