<svg width="86" height="48" fill="none" xmlns="http://www.w3.org/2000/svg"><g filter="url(#a)"><rect x="13" y="7" width="20" height="22" rx="3" fill="#fff"/></g><path d="M26.192 22.932h-1.89v-8.59h-.844c-1.545 0-2.354.71-2.354 1.769 0 1.2.559 1.757 1.712 2.466l.951.59-2.734 3.765H19l2.46-3.361c-1.414-.928-2.21-1.834-2.21-3.362 0-1.91 1.45-3.209 4.196-3.209h2.734l.012 9.932Z" fill="#FC3F1D"/><g filter="url(#b)"><rect x="37" y="7" width="36" height="22" rx="3" fill="#fff"/></g><path d="M42.233 15.21h5.534c.128 0 .233.102.233.23v1.07a.488.488 0 0 1-.172.371l-3.095 2.548h3.034c.128 0 .233.1.233.227v1.23c0 .127-.105.23-.233.23h-5.534a.232.232 0 0 1-.233-.23v-1.07c0-.142.063-.277.172-.37l3.095-2.548h-3.034a.234.234 0 0 1-.233-.232v-1.227c0-.127.105-.23.233-.23Zm9.624-.21c.64 0 1.21.142 1.686.4.476.26.858.635 1.121 1.104.263.468.407 1.03.407 1.66 0 .629-.144 1.19-.407 1.659a2.813 2.813 0 0 1-1.12 1.103c-.477.259-1.047.4-1.687.4-.64 0-1.21-.141-1.687-.4a2.813 2.813 0 0 1-1.12-1.103c-.264-.469-.407-1.03-.407-1.66 0-.63.143-1.19.407-1.66a2.813 2.813 0 0 1 1.12-1.103c.477-.258 1.047-.4 1.687-.4Zm0 1.687c-.306 0-.575.064-.797.182a1.258 1.258 0 0 0-.518.51c-.12.219-.185.483-.185.784 0 .302.065.566.185.785.12.218.296.391.518.51.222.118.49.182.797.182.306 0 .575-.064.797-.183.222-.118.398-.29.518-.51.12-.218.185-.482.185-.784 0-.3-.065-.565-.185-.784a1.258 1.258 0 0 0-.518-.51 1.683 1.683 0 0 0-.797-.182ZM58.714 15c.64 0 1.21.142 1.686.4.476.26.858.635 1.121 1.104.263.468.407 1.03.407 1.66 0 .629-.144 1.19-.407 1.659a2.813 2.813 0 0 1-1.12 1.103c-.477.259-1.047.4-1.687.4-.64 0-1.21-.141-1.686-.4a2.813 2.813 0 0 1-1.122-1.103c-.262-.469-.406-1.03-.406-1.66 0-.63.144-1.19.406-1.66a2.813 2.813 0 0 1 1.122-1.103c.476-.258 1.046-.4 1.686-.4Zm0 1.687c-.306 0-.575.064-.797.182a1.258 1.258 0 0 0-.518.51c-.12.219-.185.483-.185.784 0 .302.065.566.185.785.12.218.296.391.518.51.222.118.49.182.797.182.306 0 .575-.064.797-.183.222-.118.398-.29.518-.51.12-.218.185-.482.185-.784 0-.3-.065-.565-.185-.784a1.258 1.258 0 0 0-.518-.51 1.684 1.684 0 0 0-.797-.182Zm9.857-1.247v5.446c0 .126-.104.23-.233.23h-1.087a.502.502 0 0 1-.377-.17L64.285 17.9v2.985c0 .126-.107.23-.236.23h-1.246a.232.232 0 0 1-.233-.23V15.44c0-.127.105-.23.233-.23h1.088c.145 0 .282.062.377.17l2.588 3.046V15.44a.23.23 0 0 1 .232-.23h1.25c.129 0 .233.103.233.23Z" fill="url(#c)"/><defs><filter id="a" x=".8" y=".8" width="44.4" height="46.4" filterUnits="userSpaceOnUse" color-interpolation-filters="sRGB"><feFlood flood-opacity="0" result="BackgroundImageFix"/><feColorMatrix in="SourceAlpha" values="0 0 0 0 0 0 0 0 0 0 0 0 0 0 0 0 0 0 127 0" result="hardAlpha"/><feOffset dy="6"/><feGaussianBlur stdDeviation="6.1"/><feComposite in2="hardAlpha" operator="out"/><feColorMatrix values="0 0 0 0 0 0 0 0 0 0 0 0 0 0 0 0 0 0 0.06 0"/><feBlend in2="BackgroundImageFix" result="effect1_dropShadow_1_1375"/><feBlend in="SourceGraphic" in2="effect1_dropShadow_1_1375" result="shape"/></filter><filter id="b" x="24.8" y=".8" width="60.4" height="46.4" filterUnits="userSpaceOnUse" color-interpolation-filters="sRGB"><feFlood flood-opacity="0" result="BackgroundImageFix"/><feColorMatrix in="SourceAlpha" values="0 0 0 0 0 0 0 0 0 0 0 0 0 0 0 0 0 0 127 0" result="hardAlpha"/><feOffset dy="6"/><feGaussianBlur stdDeviation="6.1"/><feComposite in2="hardAlpha" operator="out"/><feColorMatrix values="0 0 0 0 0 0 0 0 0 0 0 0 0 0 0 0 0 0 0.06 0"/><feBlend in2="BackgroundImageFix" result="effect1_dropShadow_1_1375"/><feBlend in="SourceGraphic" in2="effect1_dropShadow_1_1375" result="shape"/></filter><linearGradient id="c" x1="68.982" y1="16.949" x2="56.792" y2="16.81" gradientUnits="userSpaceOnUse"><stop stop-color="#6339F5"/><stop offset="1" stop-color="#3D3F55"/></linearGradient></defs></svg>