<svg width="360" height="29" fill="none" xmlns="http://www.w3.org/2000/svg"><path d="M39.344 2.832c.287.439.15.972-.413 1.6-.352.394-.833.79-1.445 1.19a.49.49 0 0 1-.343.065c-.132-.02-.228-.075-.288-.166l-.447-.683-1.224-1.952-.235-.36a1.486 1.486 0 0 1-.184-.383.253.253 0 0 1 .016-.211c.015-.03.068-.093.16-.187.12-.13.349-.305.685-.524A2.407 2.407 0 0 1 36.86.815c.51-.022.883.148 1.12.51.219.336.2.7-.058 1.09.234-.04.492-.025.773.045.321.077.538.201.649.372Zm-2.037-1.067c-.096-.146-.28-.209-.554-.187a1.247 1.247 0 0 0-.6.181l-.148.097c-.182.119-.303.203-.364.253.051.083.136.216.256.398.03.046.094.132.194.258.083.107.145.196.186.269.146-.075.274-.149.385-.22.268-.176.453-.32.553-.434.188-.216.218-.42.092-.615Zm1.303 1.5c-.084-.13-.26-.19-.524-.181-.206.004-.4.042-.583.114a2.829 2.829 0 0 0-.435.238c-.23.144-.373.23-.426.258.097.17.182.31.256.423l.458.702c1.03-.739 1.449-1.257 1.254-1.554ZM35.107 3.764c.387.592.573 1.238.557 1.936-.021.811-.342 1.42-.964 1.826-.508.332-1.038.465-1.589.397-.583-.07-1.04-.358-1.369-.861a3.184 3.184 0 0 1-.517-1.978c.045-.817.378-1.428.999-1.834 1.19-.778 2.15-.607 2.883.514Zm-.749.489c-.238-.365-.48-.565-.725-.6-.243-.036-.555.07-.937.32-.369.241-.566.636-.592 1.183-.021.517.107.99.386 1.416.188.288.45.45.786.488.32.034.637-.052.952-.257.364-.238.549-.624.553-1.157a2.467 2.467 0 0 0-.423-1.393ZM32.084 8.609c.067.103.09.21.066.321a.419.419 0 0 1-.193.27.413.413 0 0 1-.59-.123 4.52 4.52 0 0 0-.227-.309 8.743 8.743 0 0 1-.232-.3c-.134-.19-.3-.437-.5-.741.049.074-.261-.411-.93-1.456-.145.125-.297.24-.458.345-.4.262-.794.509-1.18.74.064.099.164.248.298.448l.297.447c.496.758.792 1.306.889 1.643.156.559.003.989-.46 1.292-.18.117-.361.183-.544.196-.22.014-.386-.063-.495-.23a.395.395 0 0 1-.066-.282c.017-.1.071-.18.162-.239a.716.716 0 0 1 .24-.08.715.715 0 0 0 .237-.078c.175-.114.208-.315.099-.603-.066-.163-.216-.426-.453-.788-.122-.187-.32-.459-.59-.816-.269-.358-.463-.63-.584-.815a.396.396 0 0 1-.061-.33.48.48 0 0 1 .21-.275 4.43 4.43 0 0 1 .255-.152 5.37 5.37 0 0 0 .261-.15c.272-.16.612-.374 1.02-.64.088-.058.21-.161.362-.31.153-.147.276-.251.367-.31.266-.175.474-.147.625.084.136.208.337.523.6.942.267.418.468.732.605.94.191.293.354.535.49.727.042.059.122.164.242.315.105.13.184.235.238.317ZM27.61 11.534c.067.103.089.21.065.322a.419.419 0 0 1-.193.27.413.413 0 0 1-.589-.124 4.54 4.54 0 0 0-.227-.308 8.735 8.735 0 0 1-.232-.3c-.135-.19-.301-.437-.5-.742l-.931-1.455c-.144.125-.297.24-.457.345-.401.261-.794.508-1.18.74.064.098.163.248.297.447.133.198.232.347.298.448.495.758.791 1.305.888 1.642.157.559.003.99-.46 1.292-.18.118-.361.183-.544.197-.22.014-.385-.063-.495-.231a.394.394 0 0 1-.065-.281c.017-.1.07-.18.162-.24a.72.72 0 0 1 .24-.08.715.715 0 0 0 .237-.077c.175-.115.208-.316.098-.604-.065-.163-.216-.425-.453-.787-.122-.187-.319-.46-.59-.816-.268-.359-.463-.63-.584-.815a.396.396 0 0 1-.06-.33.48.48 0 0 1 .21-.276c.061-.04.146-.09.254-.151.136-.075.223-.125.262-.15.271-.16.611-.374 1.019-.64.089-.059.21-.162.363-.31s.275-.252.366-.311c.266-.174.475-.146.625.084.137.209.337.523.6.943.267.418.469.731.605.94.191.293.355.535.49.727.042.058.123.163.242.314.106.13.185.236.238.317Z" fill="#fff"/><path d="M23.483 14.878c-.046.03-.163.03-.352.004a1.925 1.925 0 0 1-.413-.105c-.148.275-.29.5-.424.678-.133.179-.258.307-.376.384-.56.367-1.073.476-1.537.327-.437-.14-.856-.516-1.257-1.13a2.47 2.47 0 0 1-.376-1.88c.13-.674.473-1.193 1.027-1.555.21-.136.478-.235.808-.296.414-.08.683-.024.807.165a.29.29 0 0 1 .04.22c.036.107.115.27.237.488.124.216.292.488.503.816.192.3.366.52.522.665.093.09.306.252.64.485.045.033.114.078.208.137l.061.047a.37.37 0 0 1 .055.303.398.398 0 0 1-.173.247ZM21.1 12.866a4.044 4.044 0 0 1-.393-.775 2.019 2.019 0 0 0-.296.05.585.585 0 0 0-.173.066c-.371.243-.593.606-.665 1.088-.071.478.022.914.281 1.31.257.393.52.643.787.749.268.106.54.068.82-.114.23-.15.398-.32.503-.51.057-.102.118-.272.185-.51-.492-.586-.842-1.037-1.049-1.354ZM16.743 11.513c.157.24.091.53-.195.872-.044.049-.217.172-.519.37-.47.307-.737.656-.8 1.046-.034.214.01.58.133 1.1.134-.341.381-.63.744-.866.467-.306.961-.331 1.481-.075.427.214.805.571 1.132 1.072.353.54.52 1.092.502 1.655-.018.638-.285 1.126-.8 1.463-.557.363-1.123.398-1.7.103-.482-.246-.943-.704-1.382-1.376a5.828 5.828 0 0 1-.853-2.123c-.179-.944-.046-1.66.4-2.146.084-.092.267-.23.55-.415.257-.172.42-.306.488-.401-.087-.228-.059-.388.085-.482.11-.073.241-.085.392-.036a.596.596 0 0 1 .342.239Zm1.35 4.016c-.534-.818-1.053-1.063-1.557-.733-.343.224-.507.559-.493 1.005.01.38.133.753.371 1.118.184.28.41.474.677.58a.874.874 0 0 0 .854-.076 1.01 1.01 0 0 0 .489-.895c-.003-.323-.116-.656-.34-1ZM12.612 21.843c-.73.477-1.48.491-2.251.044-.59-.347-1.154-.932-1.691-1.755-.455-.696-.686-1.41-.694-2.145-.005-.862.328-1.513 1-1.952.63-.412 1.297-.465 2.001-.158.609.266 1.132.734 1.57 1.403.702 1.075 1.059 1.993 1.071 2.755.01.76-.325 1.363-1.006 1.808Zm-3.187-5.111c-.446.291-.651.75-.617 1.373.03.522.204 1.026.522 1.513.516.79 1.01 1.312 1.482 1.568.472.257.922.245 1.349-.034.508-.332.683-.86.524-1.585-.11-.504-.367-1.065-.771-1.684-.425-.65-.845-1.07-1.26-1.26-.414-.193-.823-.156-1.229.109ZM8.41 24.59c-.728.476-1.479.491-2.25.044-.59-.348-1.154-.932-1.692-1.755-.454-.696-.685-1.41-.693-2.145-.006-.863.327-1.513.999-1.952.63-.413 1.298-.465 2.002-.159.609.267 1.132.735 1.57 1.404.702 1.074 1.059 1.993 1.07 2.755.011.76-.324 1.363-1.005 1.808Zm-3.186-5.111c-.446.291-.652.749-.617 1.373.03.522.204 1.026.522 1.513.516.79 1.01 1.312 1.482 1.568s.921.245 1.348-.034c.509-.332.684-.86.525-1.586-.11-.503-.367-1.064-.771-1.683-.425-.65-.845-1.07-1.26-1.26-.414-.193-.823-.157-1.229.108ZM5.633 26.21l-.716.468-.715.462c-.168.11-.292.176-.374.198-.15.037-.27-.015-.362-.154-.158-.242-.049-.486.328-.732l.175-.11.152-.089a6.966 6.966 0 0 0-.366-.49 7.828 7.828 0 0 1-.36-.488c-.2-.305-.475-.786-.826-1.443a19.283 19.283 0 0 0-.834-1.442c-.159.46-.282.719-.37.777a.412.412 0 0 1-.323.056.415.415 0 0 1-.267-.18c-.074-.113-.06-.317.041-.612.07-.176.158-.442.264-.799.072-.351.203-.59.395-.715.16-.105.302-.066.422.12.036.054.083.142.141.262.056.117.102.203.138.258.052.08.134.197.246.353.115.155.198.271.25.35.179.274.416.7.713 1.28.297.58.534 1.005.71 1.276.092.14.212.302.361.489.15.186.267.343.352.468l.373-.254a.394.394 0 0 1 .315-.061c.109.02.196.08.26.178a.402.402 0 0 1-.123.574ZM357.611 28.145c-.471-.124-.821-.342-1.051-.654-.25-.345-.314-.752-.19-1.22.143-.542.393-.962.753-1.26.39-.325.825-.424 1.302-.299.346.091.613.224.801.398a.73.73 0 0 1 .229.77c-.055.208-.223.366-.503.475-.124.048-.376.106-.755.176l-1.343.251c.071.204.181.372.331.506.152.133.344.23.575.291.144.038.32.055.528.052.264-.004.446-.052.546-.143.101-.094.191-.13.273-.11.073.02.13.065.171.136.044.07.057.141.038.214-.061.231-.3.381-.717.45a2.368 2.368 0 0 1-.988-.033Zm.666-2.87a.826.826 0 0 0-.713.13c-.221.151-.425.414-.612.788l1.08-.204c.425-.084.736-.172.932-.266-.135-.213-.364-.363-.687-.448ZM355.737 26.585a9.814 9.814 0 0 1-.108.359 6.955 6.955 0 0 0-.108.36.304.304 0 0 1-.148.194.303.303 0 0 1-.243.033.313.313 0 0 1-.231-.391c.035-.136.095-.336.178-.602.083-.265.143-.466.179-.602.067-.256.111-.505.133-.747-.353.308-.607.521-.76.64a4.977 4.977 0 0 1-.838.528 9.174 9.174 0 0 0-.783.409c-.14.085-.271.112-.392.08a.409.409 0 0 1-.219-.134.265.265 0 0 1-.052-.245c.156-.594.309-1.215.457-1.865.153-.675.228-1.004.223-.988.056-.212.189-.29.397-.236.177.047.254.174.23.381-.004.033-.05.24-.14.622l-.371 1.564a8.94 8.94 0 0 0 1.261-.791c.141-.104.532-.409 1.173-.915.167-.132.32-.18.459-.143a.307.307 0 0 1 .196.145.304.304 0 0 1 .032.246c-.061.231-.148.581-.263 1.05-.114.467-.201.816-.262 1.048ZM351.865 26.267a.308.308 0 0 1-.391.228.314.314 0 0 1-.202-.146.303.303 0 0 1-.03-.245c.043-.16.139-.549.29-1.164l-.222-.069a6.165 6.165 0 0 0-1.47-.206 6.85 6.85 0 0 1-.17.517c-.079.217-.136.39-.169.517a.32.32 0 0 1-.147.202.305.305 0 0 1-.245.029.31.31 0 0 1-.227-.394c.019-.075.056-.175.108-.3a2.14 2.14 0 0 0 .113-.3c.033-.126.079-.314.139-.566.06-.254.106-.443.139-.568l.153-.581c.07-.254.122-.448.157-.581a.31.31 0 0 1 .391-.228.317.317 0 0 1 .202.147.307.307 0 0 1 .029.245c-.04.15-.091.353-.154.61l-.148.614a6.369 6.369 0 0 1 1.676.287l.053-.203c.033-.125.08-.285.14-.481.065-.213.112-.373.14-.482a.311.311 0 0 1 .146-.198.315.315 0 0 1 .248-.029.31.31 0 0 1 .228.391c-.029.11-.076.271-.14.482a13.9 13.9 0 0 0-.14.48c-.06.228-.143.56-.249.998-.106.436-.189.767-.248.994ZM347.213 25.407c-.471-.123-.822-.342-1.051-.654-.251-.344-.314-.751-.191-1.22.143-.542.394-.962.753-1.26.391-.324.825-.424 1.302-.298.346.09.613.223.801.398.231.214.308.47.229.769-.055.208-.222.367-.503.476-.124.047-.375.106-.755.175l-1.343.252c.071.203.182.372.332.505.152.133.343.23.575.292.144.038.32.055.528.052.264-.004.446-.052.546-.144.1-.094.191-.13.272-.109.073.02.13.065.172.136.044.07.056.14.037.213-.061.232-.3.382-.717.45a2.36 2.36 0 0 1-.987-.033Zm.665-2.87a.828.828 0 0 0-.713.13c-.22.152-.424.415-.612.789l1.08-.204c.426-.084.737-.173.933-.266-.136-.214-.365-.364-.688-.449ZM345.286 24.536a.31.31 0 0 1-.391.228.316.316 0 0 1-.202-.147.307.307 0 0 1-.029-.245c.043-.16.139-.549.29-1.164l-.223-.069a6.15 6.15 0 0 0-1.47-.206 6.308 6.308 0 0 1-.169.517c-.08.217-.136.39-.17.517a.316.316 0 0 1-.146.202.305.305 0 0 1-.245.029.31.31 0 0 1-.228-.394c.02-.075.056-.175.109-.299.056-.126.093-.226.113-.301.033-.125.079-.314.139-.566.06-.253.106-.443.139-.568l.153-.581.157-.58a.31.31 0 0 1 .391-.228.317.317 0 0 1 .202.146.307.307 0 0 1 .029.245 41.591 41.591 0 0 0-.303 1.224 6.362 6.362 0 0 1 1.676.288l.054-.204c.033-.125.079-.285.14-.481.065-.212.111-.373.14-.481a.312.312 0 0 1 .146-.2.314.314 0 0 1 .248-.027.31.31 0 0 1 .228.39c-.029.111-.076.271-.14.482-.064.208-.11.369-.14.481-.06.227-.143.56-.249.997-.106.436-.189.768-.249.995ZM342.012 22.972a6.985 6.985 0 0 1-.108.36c-.05.157-.086.277-.108.358a.3.3 0 0 1-.148.195.302.302 0 0 1-.243.034.318.318 0 0 1-.201-.15.307.307 0 0 1-.03-.242c.036-.136.095-.336.178-.602.084-.265.143-.466.179-.601.067-.257.112-.506.133-.747a17.78 17.78 0 0 1-.76.638 4.938 4.938 0 0 1-.838.529 8.94 8.94 0 0 0-.782.409c-.141.085-.272.112-.393.08a.41.41 0 0 1-.218-.134.263.263 0 0 1-.053-.245c.156-.594.309-1.215.458-1.865l.223-.987c.056-.213.188-.292.396-.237.178.047.254.174.231.382-.004.032-.051.24-.14.621l-.372 1.564a8.883 8.883 0 0 0 1.261-.791c.141-.104.532-.408 1.174-.915.166-.132.319-.18.459-.143a.307.307 0 0 1 .195.145.304.304 0 0 1 .033.246c-.061.231-.149.581-.264 1.05-.114.467-.201.817-.262 1.048ZM338.155 22.712a.311.311 0 0 1-.391.228.315.315 0 0 1-.202-.147.303.303 0 0 1-.029-.245c.044-.168.132-.527.262-1.074-.302.115-.639.123-1.012.024-.442-.116-.722-.352-.84-.709-.116-.355-.083-.876.097-1.562.09-.342.246-.483.467-.425a.313.313 0 0 1 .199.146.307.307 0 0 1 .029.245.952.952 0 0 1-.037.1.768.768 0 0 0-.036.098c-.145.552-.189.933-.133 1.141.051.195.219.329.502.403.127.034.292.03.494-.01.217-.045.374-.116.47-.21a54.3 54.3 0 0 1 .108-.383l.105-.374a2.27 2.27 0 0 0 .037-.19c.015-.086.028-.148.039-.188a.291.291 0 0 1 .147-.191.338.338 0 0 1 .248-.026c.221.059.281.278.18.66-.014.056-.037.13-.068.222a6.234 6.234 0 0 0-.055.183c-.063.24-.16.621-.291 1.144-.13.52-.227.9-.29 1.14ZM335.599 20.127a2.497 2.497 0 0 1-.8 1.287c-.463.397-.965.525-1.505.383-.441-.116-.782-.345-1.022-.687a1.374 1.374 0 0 1-.209-1.198c.135-.515.416-.944.843-1.286.478-.387.987-.509 1.527-.367 1.034.272 1.423.895 1.166 1.868Zm-.65-.17c.083-.318.073-.553-.031-.708-.102-.154-.319-.274-.65-.361-.321-.085-.641.004-.959.265a1.76 1.76 0 0 0-.596.93.776.776 0 0 0 .124.684c.142.196.35.33.623.402.317.083.625-.009.925-.275.276-.246.464-.559.564-.938ZM330.276 21.006c-.427-.113-.749-.336-.967-.67-.229-.35-.285-.746-.168-1.19.112-.423.367-.823.767-1.199.444-.418.862-.575 1.254-.472.204.054.42.162.647.324.286.207.406.399.36.576a.337.337 0 0 1-.134.192.255.255 0 0 1-.218.04.26.26 0 0 1-.145-.095l-.1-.144c-.097-.13-.285-.232-.564-.305-.213-.056-.473.078-.782.402-.281.299-.455.575-.522.829-.072.275-.036.517.11.724.136.194.342.328.617.4a.973.973 0 0 0 .426.005l.414-.098a.359.359 0 0 1 .148-.015.27.27 0 0 1 .175.147.31.31 0 0 1 .029.231c-.04.152-.239.257-.597.314-.314.051-.564.053-.75.004ZM325.43 19.673c-.471-.124-.822-.342-1.051-.655-.251-.344-.314-.75-.191-1.22.143-.542.394-.961.753-1.26.391-.324.825-.424 1.302-.298.346.09.613.224.801.398a.73.73 0 0 1 .229.769c-.055.208-.223.367-.503.476-.124.047-.376.106-.755.175l-1.343.252c.071.204.182.372.332.505.152.134.343.23.575.292.143.038.319.055.527.052.264-.004.446-.052.546-.144.101-.094.192-.13.273-.109.073.02.13.065.172.136.044.07.056.14.037.214-.061.23-.3.38-.717.45a2.361 2.361 0 0 1-.987-.033Zm.665-2.87a.827.827 0 0 0-.713.13c-.22.15-.424.414-.612.788l1.08-.204c.426-.084.736-.173.933-.266-.136-.214-.365-.363-.688-.448ZM324.127 17.107a2.51 2.51 0 0 1-.8 1.287c-.464.397-.965.524-1.505.382-.442-.116-.783-.345-1.023-.687a1.38 1.38 0 0 1-.209-1.198c.135-.515.417-.943.843-1.286.479-.386.988-.509 1.527-.367 1.034.273 1.423.895 1.167 1.869Zm-.651-.172c.084-.316.073-.552-.031-.706-.102-.154-.319-.275-.65-.362-.321-.085-.641.004-.959.265-.3.25-.498.56-.596.93a.78.78 0 0 0 .124.684c.143.196.35.33.623.402.317.083.625-.008.925-.275.276-.246.465-.558.564-.938ZM320.279 17.29c-.1.382-.467.574-1.101.577-.397.002-.861-.067-1.393-.207a.37.37 0 0 1-.209-.158.293.293 0 0 1-.052-.245l.156-.594.473-1.667.082-.313c.035-.126.076-.225.121-.295a.19.19 0 0 1 .126-.098.813.813 0 0 1 .185-.004c.133.001.346.04.638.117.335.089.618.25.848.484.269.274.362.568.279.883-.076.292-.289.464-.637.517.14.11.262.262.365.454.119.219.158.402.119.55Zm-.431-1.674c.033-.127-.025-.262-.175-.404a.933.933 0 0 0-.404-.243l-.128-.034a3.64 3.64 0 0 0-.324-.075c-.021.07-.052.185-.094.343-.01.04-.026.12-.046.239-.017.1-.036.18-.056.239.115.044.221.078.317.103.233.062.407.092.521.09.215-.003.344-.09.389-.258Zm-.18 1.484c.029-.113-.025-.24-.163-.384a1.266 1.266 0 0 0-.358-.268 2.092 2.092 0 0 0-.352-.123 7.675 7.675 0 0 1-.359-.108c-.046.14-.081.258-.107.356l-.161.61c.932.203 1.432.175 1.5-.083ZM317.623 15.395a2.503 2.503 0 0 1-.8 1.287c-.464.397-.965.524-1.505.382-.442-.116-.783-.345-1.023-.687a1.38 1.38 0 0 1-.209-1.198 2.4 2.4 0 0 1 .843-1.286c.479-.386.988-.509 1.528-.367 1.033.273 1.422.895 1.166 1.869Zm-.651-.171c.084-.317.073-.553-.031-.707-.102-.154-.319-.275-.65-.362-.321-.085-.641.004-.959.266a1.772 1.772 0 0 0-.596.93.78.78 0 0 0 .124.684c.143.195.35.33.623.401.317.083.625-.008.925-.275.276-.246.465-.558.564-.938ZM314.495 13.448c-.041.156-.153.234-.335.232a2.382 2.382 0 0 1-.458-.09 11.337 11.337 0 0 1-.541-.166 8.563 8.563 0 0 0-.54-.159l-.085-.019a13.42 13.42 0 0 1-.105.651c-.206.911-.356 1.546-.451 1.904a.308.308 0 0 1-.394.227.31.31 0 0 1-.228-.39c.092-.349.242-.978.45-1.888.019-.082.041-.22.066-.414.024-.178.049-.316.075-.411.081-.309.362-.4.843-.273.117.03.292.083.524.158.235.073.41.125.527.155.048.013.12.027.216.044.098.017.171.031.219.044a.292.292 0 0 1 .192.148c.04.075.049.157.025.247ZM311.334 13.739a2.51 2.51 0 0 1-.8 1.287c-.464.397-.965.525-1.505.383-.442-.117-.783-.346-1.023-.688a1.38 1.38 0 0 1-.209-1.198c.135-.515.417-.943.843-1.285.479-.387.988-.51 1.527-.367 1.034.272 1.423.895 1.167 1.868Zm-.651-.171c.084-.317.073-.553-.031-.707-.102-.154-.319-.275-.65-.362-.321-.084-.641.004-.959.266-.3.248-.498.558-.596.93a.78.78 0 0 0 .124.684c.143.196.35.33.623.401.317.084.625-.008.925-.274.276-.246.465-.559.564-.938ZM308.1 11.771a.326.326 0 0 1-.147.205.301.301 0 0 1-.242.03 7.517 7.517 0 0 1-.252-.073 4.816 4.816 0 0 0-.248-.075 1.788 1.788 0 0 0-.236-.042 67.686 67.686 0 0 1-.519 2.253c-.11.417-.276.596-.496.538a.333.333 0 0 1-.198-.139.272.272 0 0 1-.037-.227c.021-.079.055-.197.103-.354.048-.156.083-.274.103-.354.073-.275.215-.9.427-1.873-.068-.022-.2-.06-.396-.11a1.331 1.331 0 0 1-.368-.138c-.119-.08-.16-.193-.121-.34a.345.345 0 0 1 .14-.203.291.291 0 0 1 .244-.036l1.844.486c.154.04.262.085.322.134.088.075.113.18.077.318ZM305.483 9.418c-.035.133-.094.334-.175.602-.082.268-.141.469-.176.602-.04.155-.103.384-.188.69-.085.305-.147.535-.188.689-.052.198-.139.495-.261.89-.12.395-.206.692-.258.892a.312.312 0 0 1-.391.228.31.31 0 0 1-.231-.392c.053-.202.14-.503.261-.904.123-.4.211-.7.265-.903.04-.152.105-.387.195-.704.081-.293.146-.529.193-.708l.024-.09a6.131 6.131 0 0 1-.746.495c-.36.21-.615.372-.762.485-.422.321-.89.7-1.406 1.137-.145.127-.363.314-.653.56-.107.088-.21.119-.308.093a.382.382 0 0 1-.218-.151.263.263 0 0 1-.04-.241l.016-.046c.404-1.24.625-1.933.664-2.078.151-.574.279-1.107.384-1.6l.051-.268c.02-.11.039-.2.056-.266a.311.311 0 0 1 .391-.228.31.31 0 0 1 .228.39c-.017.065-.034.15-.05.255l-.047.255c-.064.295-.154.66-.268 1.093-.131.498-.274.982-.429 1.451a14.023 14.023 0 0 1 2.455-1.707c.137-.077.308-.2.515-.366.242-.194.409-.322.498-.383.075-.15.196-.203.363-.159.21.056.289.184.236.387Z" fill="#fff"/></svg>