<svg width="359" height="412" fill="none" xmlns="http://www.w3.org/2000/svg"><path opacity=".75" d="M189.714 104.851c2.136.3 4.622 1.332 3.858 1.723-.718.584.47 1.933 1.333 3.36.863 1.428-.995.857-.666 2.21.329 1.353 1.051 2.2.381 2.978-.671.777.005 1.432.287 2.591.329 1.353-1.577.588-1.965 2.525-.299.892.376 1.546 1.308 2.548.769 1.041.679 2.087-.829 2.249-1.508.162-3.105 1.369-5.54 1.962-2.435.592-19.504 3.927-23.793 5.38-4.288 1.452-11.819 5.127-13.673 5.988-1.969 1.093-21.984 12.104-33.978 20.754-11.993 8.65-30.111 25.341-37.068 34.199-6.957 8.858-21.81 30.486-27.157 42.432-5.3 12.139-10.236 21.529-11.361 32.448-1.079 11.112-1.276 29.38.621 35.059 0 0-1.371-.69-3.452-5.711-2.082-5.02-6.728-21.29-7.666-31.503-.911-9.399 1.272-30.811 9.39-46.911 8.118-16.101 15.565-31.424 28.027-45.92 12.463-14.496 19.514-22.967 35.467-34.423 15.906-11.649 18.409-12.668 19.519-13.757 1.111-1.089 1.713-1.44 3.012-1.756 1.298-.316 1.875-1.48 2.917-2.143 1.089-.469 13.852-8.078 28.32-12.213 14.63-4.174 27.368-4.816 32.708-4.069Z" fill="#9C8FCD"/><path opacity=".75" d="M289.194 161.099s-9.767 15.683-16.101 23.57c-6.171 7.847-25.855 35.769-52.013 49.094-26.158 13.325-47.319 21.749-83.269 28.039-35.95 6.291-54.56-.236-62.121-6.584-7.563-6.349-17.57-22.748-20.241-30.9 0 0 3.13 21.347 4.52 27.764 1.436 6.611 6.37 25.473 22.71 33.984 16.18 8.551 42.865 7.995 64.458 4.174 21.594-3.821 54.677-14.122 70.472-24.107 15.795-9.984 40.312-28.642 46.095-34.553 5.736-6.104 8.046-9.327 7.282-8.936-.765.391-5.574 6.064-6.684 7.153-1.111 1.089-8.816 8.287-11.686 10.623-2.43 2.024-5.489 3.587-6.091 3.938.927-.43 6.552-4.869 8.542-6.582 1.944-1.906 4.673-4.822 5.228-5.366.555-.545.53-1.357 1.294-1.748.765-.391 1.089-.47 1.482-.975.346-.698 2.038-1.519 2.708-2.296.671-.778.854-1.436 1.085-1.902.23-.465.948-1.049 1.132-1.708.345-.699.461-.931 1.225-1.322.812-.198 1.692-.821 1.875-1.48.184-.659.739-1.203 1.064-1.282.324-.079 1.623-.395 1.969-1.093.23-.466 6.726-8.393 8.712-11.537 2.148-3.184 3.301-5.512 3.647-6.21.346-.698.32-1.511.645-1.59.44-.311.67-.777.623-.97-.094-.387.09-1.046.53-1.357.44-.312.969-1.669 1.772-4.73.965-3.101 1.195-3.567 1.22-10.533.071-6.773-.405-17.916-2.084-20.578Zm-21.737 39.271c-.508.738-1.063 1.282-1.571 2.02-3.699 4.585-13.039 15.66-20.539 21.579-9.816 7.711-24.287 18.192-28.989 20.769-4.703 2.577-5.352 2.735-6.42 2.586-1.068-.15-.65.158-2.875.904-2.226.746-4.378 2.498-5.305 2.928-.927.431-10.452 4.386-21.187 7.612-10.897 3.265-28.385 6.292-28.385 6.292s27.689-6.327 39.555-11.262c12.028-4.974 16.291-7.239 18.26-8.332 1.969-1.094 16.082-7.393 29.02-18.525 11.826-10.042 21.107-17.828 26.702-24.512 1.179-1.515 1.85-2.292 1.734-2.059Z" fill="#9C8FCD"/><path opacity=".75" d="M329.5 145.151c-1.495-3.321-3.299-8.614-6.538-12.739-3.239-4.125-14.291-13.514-21.217-16.537-6.925-3.024-22.184-7.09-34.351-9.043-12.281-1.72-19.496-.988-23.418-.853-3.921.135-8.701.275-11.115.248-2.366.166-16.006 2.052-20.854 2.618-4.686.526-12.341 1.569-16.19 2.71-3.686 1.102-17.74 4.112-20.059 4.472-2.32.359-8.42 1.434-11.619 2.417-3.2.983-8.97 3.411-12.123 4.587-3.152 1.177-19.935 7.103-24.219 9.988-4.122 2.845-6.185 3.552-8.735 4.377-2.388.785-4.399 3.117-5.049 3.275-.649.158-11.814 6.56-15.103 8.588-3.289 2.029-13.864 11.562-19.878 17.938-6.06 6.183-11.792 13.719-15.093 19.231-3.3 5.511-5.842 9.2-7.758 19.697-1.8 10.265-1.291 17.306-.06 25.194 1.232 7.889 2.165 16.669 4.23 23.742 2.064 7.072 4.517 12.207 5.496 13.402 0 0-4.706-34.885 12.526-60.163 17.07-25.239 51.604-46.538 99.334-63.064 47.73-16.527 102.397-11.608 115.106-6.717 0 0 .88-.623-3.208-1.88-4.251-1.218-9.591-1.966-9.591-1.966s3.618-.676 12.329 1.913c8.71 2.589 14.29 5.736 18.545 8.385 4.046 2.496 8.955 6.419 11.78 11.668 2.777 5.057 5.888 12.898 7.393 19.082 1.505 6.185 1.519 10.48 1.77 9.396.252-1.085 1.519-11.424.885-21.096-.796-9.633-1.72-15.549-3.216-18.87Zm-65.078-31.455c-5.967-1.209-10.329-.762-12.208-.714-1.88.048-2.786-.141-4.618.1-1.833.241.136-.852-1.906-.764-2.041.087-4.639.719-7.817 1.083s-6.104-.357-9.838.551c-3.571.869-10.44.902-14.869 1.776-4.43.873-9.022 1.785-12.64 2.461-3.618.675-6.566.574-9.975 1.403-3.246.79-7.723 1.47-4.617.1 1.529-.781 7.65-2.475 10.734-3.226 2.922-.711 9.718-1.75 12.2-2.149 2.482-.399 32.499-4.223 37.42-3.783 4.921.441 21.68 1.481 28.669 2.647 6.826 1.205 11.846 3.463 11.846 3.463s-16.413-1.738-22.381-2.948Z" fill="#9C8FCD"/><path opacity=".75" d="M328.542 143.337c-.607-1.081-3.922 22.039-6.8 29.29-2.877 7.251-16.945 27.87-25.226 36.231-8.282 8.361-35.229 29.043-37.706 30.874-2.315 1.791-4.242 1.646-5.839 2.854-1.598 1.207-.12-1.2-2.204.126-2.085 1.326-18.299 11.003-21.635 12.839-3.336 1.835-15.684 8.32-20.319 10.471-4.634 2.151-39.4 16.137-52.825 19.608-13.588 3.511-37.732 8.157-47.104 9.209-9.372 1.052-22.042 1.269-31.487 1.315-9.445.047-18.16-3.974-23.598-6.541-5.392-2.373-8.84-6.652-11.916-10.816-2.867-4.011-9.59-16.091-11.423-23.629 0 0-1.485 7.322.802 18.843 2.288 11.522 8.2 31.578 17.039 38.23 8.84 6.652 26.569 13.802 48.632 11.914 21.901-1.849 45.788-6.842 49.684-7.79 3.895-.948 15.86-4.063 18.295-4.656 2.435-.592 4.011-1.18 5.912-1.848 1.901-.667 1.456-1.787.482-1.55-.974.237-.602.351-2.016.9-1.414.549-1.969 1.093-2.875.904-.905-.189-1.392-.07-2.319.36s-1.461.355-2.76.671c-1.298.316-.974.237-2.387.786-1.414.549-2.183-.493-2.183-.493s1.042-.663 2.34-.979c1.299-.315 7.792-1.895 9.043-2.404 1.089-.47 2.713-.865 3.896-.948 1.183-.084 2.435-.593 3.409-.83.974-.237.482-1.55 1.456-1.787.974-.237.581.268 1.88-.048 1.298-.316 2.78-1.291 3.917-1.567 1.136-.277 2.289-2.604 3.912-2.999 1.623-.395 2.456-1.212 3.016-.325.56.888.999.576.858-.004-.141-.58-.47-1.932.619-2.402 1.09-.47 2.388-.786 3.755-1.528s4.587-2.344 5.724-2.621c1.136-.276 2.251.067 2.251.067s-3.802 1.334-5.331 2.116c-1.529.781-3.776 2.146-2.477 1.831l3.896-.948c.974-.237 1.392.07 2.597-.632 1.204-.703 1.55-1.401 3.126-1.989 1.576-.588 1.76-1.247 3.383-1.642l2.922-.711c.649-.158 2.388-.786 3.477-1.256 1.089-.469 1.016-1.475 2.106-1.945 1.089-.47 4.404-1.686 5.493-2.155 1.089-.47 2.733-1.484 3.776-2.147 1.042-.663 2.849-1.717 4.1-2.226 1.252-.509.906.189 2.691-.246 1.786-.434 2.461.221 4.891-1.804 2.431-2.024 1.897-2.099 3.169-3.227 1.273-1.129 4.007-2.613 5.861-3.473 1.853-.861 2.524-1.638 3.498-1.875.974-.237 1.623-.395 1.273-1.129-.351-.733.435-1.743 1.11-1.089.675.655 1.764.185 1.764.185 1.598-1.207 3.264-2.841 4.237-3.078.974-.237 1.53-.781 3.289-2.028 1.76-1.247 1.76-1.247 2.849-1.717 1.09-.47.41-2.556 1.777-3.298s3.985-1.993 5.42-3.161 2.618-1.252 4.054-2.42c1.435-1.168 1.507-.162-2.384 2.218s-3.865 3.192-2.451 2.643c1.414-.548 3.032-2.375 5.164-3.508 2.131-1.133 2.686-1.677 3.195-2.415.508-.738-.33-1.353.99-2.288 1.32-.935 3.588-2.92 4.908-3.855 1.32-.936 3.823-1.954 4.933-3.043 1.111-1.089 2.802-1.91 3.75-2.96.948-1.049 2.337-2.411 1.687-2.253-.649.158-2.477 1.831-4.074 3.039-1.598 1.208-2.944 1.33-2.944 1.33s1.666-1.633 3.311-2.648c1.644-1.014 1.943-1.905 3.263-2.841 1.32-.935 2.058-2.138 1.571-2.02-.487.119-2.827 1.098-1.717.009 1.111-1.089 2.593-2.064 4.305-3.504 1.713-1.441 3.374-4.506 3.374-4.506s.56.887-.294 2.323c-.854 1.436-1.478 2.407.005 1.432 1.482-.975.811-.197 2.315-1.791 1.503-1.594 3.886-3.812 5.945-5.951 2.058-2.138 2.545-2.257 3.284-3.46.739-1.203 1.158-.896.739-1.203-.419-.308-1.162-.536-1.162-.536 1.55-1.401 1.755-2.679 2.913-3.575 1.157-.896 2.353-4.462 3.416-5.744 1.063-1.283 3.007-3.189 3.583-4.352.577-1.164 1.2-2.135 2.17-3.804.969-1.668 2.348-5.893 2.878-7.251.529-1.357 1.08-3.333 1.237-4.804.158-1.472 1.375-5.657 1.634-11.657 1.836-6.588 1.239-26.709-2.795-32.688ZM289.047 224.8c-6.202 5.604-14.88 13.038-16.918 14.557-1.875 1.48-9.961 5.699-13.386 8.58-3.473 2.687-13.852 8.078-17.419 10.379-3.566 2.301-25.482 13.979-32.714 16.763-7.232 2.783-27.628 10.816-31.686 11.803-3.896.948-6.865 1.466-8.278 2.015-1.414.548-3.546 1.681-5.656 2.194-2.11.514-2.781 1.291-4.404 1.686l-4.869 1.185c-1.786.434-50.209 10.579-59.103 8.648-1.44-.263 29.274-4.052 31.755-4.451 2.482-.399 22.405-4.018 28.454-6.718 6.095-2.507 24.16-6.697 28.239-8.304 4.241-1.646 32.189-13.973 35.227-14.917 3.037-.944 15.936-9.405 20.314-11.903 4.216-2.459 21.476-11.367 26.781-14.295 5.306-2.929 12.361-9.968 17.154-13.591 4.63-3.583 20.291-19.062 23.251-22.443.325-.079-10.425 12.976-16.742 18.812Z" fill="#9C8FCD"/><path d="M152.507 336.764c-3.504 15.475-6.982 30.924-10.486 46.399-4.576-.47-9.152-.939-13.703-1.409l3.844-48.514 20.345 3.524ZM251.722 278.907l-3.635 47.444-13.284.757-6.119-46.922 23.038-1.279Z" fill="#FDA67D"/><path d="M130.724 351.375a.974.974 0 0 0 1.179 1.04c5.428-1.223 12.328-3.827 16.602-5.558a3.888 3.888 0 0 0 2.333-2.767 130.1 130.1 0 0 1 .388-1.716c-4.707-2.687-14.958-6.08-14.958-6.08s-2.197 1.983-4.707 4.619l-.837 10.462ZM231.664 303.099c8.629-3.366 16.344-8.899 19.037-10.961l.209-2.714c-3.164-4.514-13.99-7.333-13.99-7.333l-6.852 8.69 1.596 12.318Z" fill="#9C8FCD"/><path d="M159.646 71.962a45.784 45.784 0 0 1 13.206-1.749c8.185.105 14.645 2.349 18.489 4.045-.34 7.02-.68 14.066-.994 21.086a23908.806 23908.806 0 0 0-30.701-23.382Z" fill="#FDA67D"/><path d="M185.116 58.965s-2.013 12.605-.863 15.789c.027.078.105.313 0 .522-.706 1.357-8.655-1.305-16.788-4.463 2.04-8.325 4.079-16.623 6.093-24.948 0 .026 13.284 8.664 11.558 13.1Z" fill="#FDA67D"/><path d="M164.433 54.164c2.092 3.888 6.406 4.906 6.197 5.271-.287.444-7.113-2.453-13.31-7.829-3.871-3.366-6.015-6.394-7.401-9.395-.915-1.983-2.353-5.271-.994-7.907.497-.965 1.099-1.279 2.014-2.114 1.517-1.383 3.347-3.68 4.602-7.672 7.715-2.401 15.455-4.463 15.978-3.236.105.235-.104.548-.183.652-1.883 2.923-11.82 23.096-6.903 32.23Z" fill="#363537"/><path d="M186.346 66.246a6.809 6.809 0 0 0 2.04-.626c.261-.13.523-.313.758-.496 0 0 .392-.313.758-.678 4.394-4.724 2.563-14.98 2.563-14.98-.549-3.105-1.203-4.201-2.72-8.533-1.229-3.497-2.876-8.69-4.314-15.345-.366-.078-3.975-.757-7.636-1.383-1.543-.078-11.166-.496-16.292 6.002-6.511 8.22-.732 20.982 4.576 27.14a20.621 20.621 0 0 0 1.805 1.88c1.333 1.565 3.975 4.201 8.08 5.845 0 0 4.76 1.905 10.382 1.174Z" fill="#FDA67D"/><path d="M172.094 61.94c1.778 1.07 4.053 2.192 6.825 3.132a34.705 34.705 0 0 0 5.152 1.305c-.55 1.774-1.386 2.349-1.883 2.583-2.328 1.07-6.538-1.565-10.094-7.02Z" fill="#6F61A5"/><path d="M185.223 42.316c.235 1.148-.157 2.192-.863 2.349-.733.156-1.517-.653-1.753-1.775-.235-1.148.157-2.192.863-2.349.733-.156 1.517.653 1.753 1.775ZM171.101 46.752c.47 1.123 1.464 1.801 2.249 1.462.784-.313 1.02-1.488.549-2.636-.471-1.122-1.465-1.8-2.249-1.461-.758.339-.994 1.513-.549 2.636Z" fill="#353333"/><path d="M181.261 43.254c-.14-.509.436-.682.703-.227.191.326.387.646.59.959.602.861 1.255 1.67 1.988 2.4.183.183.366.366.575.523.183.182.392.339.627.548.21.209.471.443.628.783.079.156.157.339.183.548.026.182.026.391 0 .574a2.147 2.147 0 0 1-1.098 1.566c-.523.313-1.072.443-1.648.522.445-.34.916-.627 1.256-.992.156-.183.287-.365.392-.574.078-.209.131-.418.131-.6a.731.731 0 0 0-.157-.47 3.577 3.577 0 0 0-.445-.444c-.183-.156-.418-.313-.654-.496-.104-.078-.209-.182-.34-.287-.104-.104-.209-.182-.313-.287a10.462 10.462 0 0 1-1.988-2.792 11.463 11.463 0 0 1-.43-1.255Z" fill="#6F61A5"/><path d="M185.509 55.677c.105-.209.053-.287.027-.313-.131-.209-.55-.078-1.386-.13-.471-.026-.837-.105-1.229-.183-.079 0-.55-.105-.994-.235-1.386-.391-1.988-.966-2.092-.861-.183.209 1.386 2.949 3.452 2.923 1.046.026 1.961-.653 2.222-1.2Z" fill="#fff"/><path d="M169.906 38.095c-.335.36.017.904.487.764l4.996-1.475c-.024 0-1.001-4.095-5.483.711ZM185.909 35.07c.466.155.418.8-.062.905l-5.071 1.096s-1.111-4.073 5.133-2Z" fill="#6F61A5"/><path d="M161.792 40.907c-.915-1.958-.706-4.254.628-5.976l.052-.053c.288-.365 3.321-4.358 6.564-6.21 4.864-2.793 10.434 1.07 16.841-1.28 2.589-.939 6.04-3.235 9.022-9.498-4.42 3.079-6.59 2.974-7.741 2.348-2.223-1.253-1.726-5.14-3.766-5.793-1.464-.47-3.268 1.07-4.471 2.322-.079-2.479-1.491-4.645-3.531-5.428-2.719-1.044-6.276.47-7.609 3.81-.785-1.487-1.622-1.957-2.223-2.087-2.746-.627-6.669 3.992-9.99 11.508.183.966.393 2.166.576 3.602 0 0 .313 2.4.418 4.854.34 7.907-1.857 14.013.811 16.44.889.81 2.562 1.462 6.171.575.863.026 1.752.026 2.615.052l-4.367-9.186Z" fill="#363537"/><path d="M150.181 27.754c.366.078.68.156.993.26.314.08.654.184.968.288.628.209 1.281.418 1.883.678.627.261 1.229.522 1.804.835.575.314 1.151.679 1.621 1.123-.575-.313-1.202-.47-1.83-.627a11.737 11.737 0 0 0-1.883-.287 15.588 15.588 0 0 0-1.909-.104h-.941c-.314 0-.628 0-.942.026l.236-2.192ZM152.142 22.404c.236.679.523 1.383.785 2.036.287.678.575 1.357.889 2.01.314.652.654 1.33 1.046 1.93.183.314.392.6.627.888.131.13.236.26.393.365.13.104.313.209.497.209a.99.99 0 0 1-.55-.105 3.09 3.09 0 0 1-.497-.287 8.141 8.141 0 0 1-.889-.756c-.549-.522-1.046-1.123-1.542-1.697-.471-.6-.942-1.2-1.386-1.8-.445-.627-.89-1.227-1.308-1.88l1.935-.913ZM160.406 38.01a20.242 20.242 0 0 1 3.112-4.332 22.022 22.022 0 0 1 1.988-1.827 14.944 14.944 0 0 1 2.275-1.513c.209-.105.392-.235.601-.314l.628-.287a7.926 7.926 0 0 1 1.307-.495c.889-.262 1.752-.47 2.641-.653.863-.183 1.752-.34 2.615-.496.863-.156 1.753-.313 2.642-.47a91.574 91.574 0 0 1 5.282-.704c.889-.105 1.752-.183 2.615-.313a13.25 13.25 0 0 0 2.484-.6c.21-.079.393-.157.602-.235.209-.079.392-.157.601-.261.393-.183.785-.392 1.151-.6.758-.418 1.464-.94 2.144-1.462 1.36-1.096 2.563-2.4 3.661-3.784-.889 1.54-1.961 2.975-3.269 4.228a14.63 14.63 0 0 1-4.524 2.975c-.104.052-.209.078-.313.13l-.314.105c-.209.078-.445.13-.654.208-.209.079-.444.105-.68.157l-.68.13c-.889.157-1.778.287-2.641.392-1.752.235-3.504.496-5.256.757-1.752.287-3.504.574-5.23.887-.863.157-1.726.313-2.563.548a9.274 9.274 0 0 0-1.203.391l-.601.261c-.21.079-.393.183-.576.288-1.569.73-2.981 1.748-4.288 2.922-1.334 1.2-2.485 2.532-3.557 3.967Z" fill="#363537"/><path d="M175.625 51.24c-3.321 0-6.041-2.713-6.041-6.027 0-3.315 2.72-6.029 6.041-6.029s6.04 2.714 6.04 6.029c0 3.34-2.719 6.028-6.04 6.028Zm0-11.534c-3.06 0-5.544 2.48-5.544 5.533 0 3.053 2.484 5.506 5.544 5.506a5.513 5.513 0 0 0 5.517-5.506c.027-3.054-2.458-5.533-5.517-5.533ZM187.419 47.77c-2.955 0-5.36-2.4-5.36-5.35 0-2.949 2.405-5.35 5.36-5.35 2.955 0 5.361 2.401 5.361 5.35.026 2.923-2.379 5.35-5.361 5.35Zm0-10.23a4.867 4.867 0 0 0-4.864 4.854c0 2.688 2.197 4.854 4.864 4.854 2.668 0 4.864-2.192 4.864-4.854.027-2.662-2.17-4.854-4.864-4.854Z" fill="#fff"/><path d="M163.389 57.852a4.488 4.488 0 0 0 3.455-5.33 4.498 4.498 0 0 0-5.341-3.447 4.49 4.49 0 0 0-3.455 5.33 4.498 4.498 0 0 0 5.341 3.447Z" fill="#FDA67D"/><path d="M164.591 55.26a.196.196 0 0 0 .183-.13c.68-1.514.288-3.263-.993-4.202-.968-.705-2.354-.783-3.505-.209-.104.052-.13.183-.078.287.052.105.183.13.288.078 1.02-.522 2.222-.443 3.059.183 1.099.81 1.465 2.349.863 3.68-.052.104 0 .235.105.26.026.053.052.053.078.053Z" fill="#6F61A5"/><path d="M160.302 52.363a.198.198 0 0 0 .13-.052 3.949 3.949 0 0 1 2.746-1.122c.131 0 .209-.078.209-.209a.206.206 0 0 0-.209-.209 4.23 4.23 0 0 0-3.033 1.227.204.204 0 0 0 0 .287c.052.052.104.078.157.078Z" fill="#6F61A5"/><path d="M257.003 40.124c.968.339 3.556 1.252 5.701 3.731.627.705 1.203 1.41 1.621 2.506.523 1.435.209 2.14 0 5.01-.105 1.279-.288 4.88-1.072 7.986-.052.26-.209.809-.549.887-.68.183-1.282-1.54-2.851-2.557-1.072-.705-2.249-.81-3.085-.81a77.027 77.027 0 0 1-5.335-1.54c-.889-.286-1.648-.573-2.171-1.33-.653-.966-.496-2.114-.392-2.636-.523-.6-1.098-1.461-.889-2.244.235-.913 1.308-1.174 1.229-1.853-.078-.6-.967-.6-1.386-1.514-.209-.47-.287-1.148 0-1.696.419-.757 1.203-.548 1.465-1.226.261-.6-.314-.992-.079-1.723.183-.522.628-.809.968-1.044.837-.548 1.726-.626 2.536-.626 2.354 0 4.184.626 4.289.679Z" fill="#FDA67D"/><path d="M255.093 47.613a20.707 20.707 0 0 0-5.047-.626c-.314 0-.627.026-.915.026a.782.782 0 0 1 .104.261v.183c.288.026 7.479.913 8.342.992a15.414 15.414 0 0 0-2.484-.836ZM253.76 51.893a22.325 22.325 0 0 0-2.197-.522c-.732-.13-1.49-.182-2.223-.208h-.627c.052.078.104.13.157.208 0 .053-.026.105-.026.157.157.026.34.052.496.078a53.73 53.73 0 0 1 2.171.34c.732.13 3.609.678 4.367.809-.68-.366-1.412-.627-2.118-.862ZM254.65 43.307c.732.079 1.464.13 2.197.183a11.712 11.712 0 0 0-2.119-.652c-.732-.157-1.464-.287-2.196-.34-.732-.078-1.491-.078-2.223-.052-.314.026-.654.026-.968.079 0 .104 0 .208-.052.339.366-.026 5.361.444 5.361.444Z" fill="#6F61A5"/><path d="M259.906 54.66c-4.315-.47-11.271 20.146-11.271 20.146-5.282 13.91-8.133 21.686-6.485 31.655.418 2.453 2.406 13.675 8.08 14.954 3.504.782 8.081-2.506 9.702-6.812.549-1.513.654-2.74.654-3.079.261-6.315 4.471-50.888 2.641-54.646-.392-.783-.968-1.279-.968-1.279s-.941-.783-2.353-.94Z" fill="#FDA67D"/><path d="M257.525 57.347c.34-.026.68-.026 1.02-.026h2.014c.34 0 .68 0 1.02.026-.314.13-.654.235-.994.287a6.712 6.712 0 0 1-2.04 0 4.194 4.194 0 0 1-1.02-.287Z" fill="#6F61A5"/><path d="M265.32 35.974s-4.864 5.063-4.158 10.1c.392 2.818 1.098 3.549 1.7 3.549.313 0 .601-.34.941-.705.68-.757.915-1.592.994-1.853.627-2.166.052-3.131.549-5.167.34-1.435.758-1.487 1.621-4.28.419-1.357.523-1.957.262-2.218-.471-.443-1.778.496-1.909.574Z" fill="#FDA67D"/><path d="m291.653 200.252-2.589-4.306-4.289-.391 3.792-2.297.889-4.567 2.223 3.967 4.681.731-4.132 2.035-.575 4.828ZM304.44 216.302l-3.164-5.298-5.256-.444 4.654-2.818 1.099-5.611 2.719 4.854 5.701.887-5.047 2.506-.706 5.924ZM306.113 198.739l-1.804-3.028-3.034-.261 2.668-1.618.627-3.209 1.569 2.792 3.269.496-2.903 1.435-.392 3.393ZM81.248 308.709l4.053 4.828 5.387-.417-4.21 3.601-.21 5.846-3.53-4.437h-5.91l4.681-3.34-.261-6.081ZM62.235 291.512l4.969 5.872 6.59-.496-5.152 4.41-.261 7.125-4.315-5.402h-7.244l5.753-4.098-.34-7.411ZM63.725 313.485l2.824 3.367 3.792-.287-2.955 2.531-.13 4.097-2.485-3.105h-4.158l3.295-2.349-.183-4.254Z" fill="#fff"/><path d="M226.455 81.05c1.139-.603 2.543.01 2.823 1.269a64.937 64.937 0 0 1 1.21 20.724c-.261 2.479-1.674 15.892-4.968 16.206-2.145.208-5.727-5.141-11.899-31.394l12.834-6.804ZM121.258 90.986s1.778 37.031 8.76 38.519c6.982 1.487 7.296-32.778 7.296-32.778l-16.056-5.74Z" fill="#6F61A5"/><path d="M246.675 123.32a13.23 13.23 0 0 1-5.152-1.018l-53.817-21.739c-7.061-2.844-10.46-10.856-7.584-17.902 2.851-7.046 10.879-10.438 17.94-7.568l53.817 21.739c7.061 2.844 10.46 10.856 7.584 17.902a13.825 13.825 0 0 1-12.788 8.586ZM103.058 135.977a13.806 13.806 0 0 1-12.186-7.307c-3.557-6.707-.994-15.032 5.727-18.581l41.945-22.13c6.72-3.55 15.062-.992 18.619 5.715 3.556 6.707.994 15.032-5.727 18.581l-41.945 22.13c-2.066 1.07-4.263 1.592-6.433 1.592Z" fill="#FDA67D"/><path d="m228.423 87.385-17.494-7.073-13.075 23.592s1.15.783 3.033 2.009l28.085 11.352c-4.628-9.812-1.49-25.705-.549-29.88ZM119.062 98.215c3.112 5.245 9.415 16.623 11.062 25.261l8.865-4.671c4.524-7.725 9.074-16.075 9.074-16.075l-12.447-13.231-16.554 8.716Z" fill="#9C8FCD"/><path d="M240.4 92.212c-2.013 7.986 3.321 18.607 1.752 14.275-.131-.339-.209-.678-.314-1.07-.784-3.653.131-9.264.759-12.317l-2.197-.888Z" fill="#6F61A5"/><path d="M151.975 343.77c2.098-.723 3.628-2.507 4.178-4.657l38.874-151.857c.366-1.461.654-3.131.784-4.697 1.151-15.11-10.172-28.289-25.287-29.437-15.141-1.148-28.347 10.151-29.498 25.235l-12.63 164.696c-.131 1.67.078 3.314.549 4.854 9.189-.397 16.792-1.986 23.03-4.137Z" fill="#9C8FCD"/><path d="M170.499 153.148c-15.141-1.148-28.347 10.152-29.498 25.235l-1.046 13.571c6.407 3.209 14.618 5.741 22.489 3.523 11.167-3.158 21.81-14.275 32.531-21.974-2.876-10.96-12.473-19.442-24.476-20.355ZM128.918 347.959c8.747-.398 16.047-1.853 22.102-3.841 2.711-.89 4.675-3.192 5.383-5.956l10.825-42.292c-1.203 7.255-5.021 24.087-19.194 38.466-6.747 6.812-13.781 11.039-19.116 13.623Z" fill="#6F61A5"/><path d="M161.033 70.213s15.847 16.441 28.085 2.61l39.539 7.02s-10.224 31.29-3.164 39.353c-3.922-.782-7.845-1.565-11.794-2.348 4.524 17.302 9.022 34.604 13.546 51.906-17.259-.261-30.413 2.505-39.461 5.219-9.989 3.001-17.416 6.655-30.962 8.821a117.32 117.32 0 0 1-21.835 1.409l3.687-58.926c-2.824 1.54-5.622 3.079-8.447 4.619a66.272 66.272 0 0 0-1.752-21.138c-1.883-7.62-4.811-13.57-7.217-17.694l39.775-20.85Z" fill="#fff"/><path d="M213.177 108.654a.256.256 0 0 1-.262-.209c-2.484-15.84-12.892-30.507-12.996-30.664a.246.246 0 0 1 .052-.339.248.248 0 0 1 .34.052c.105.157 10.591 14.927 13.075 30.872.026.131-.078.261-.209.288.026 0 .026 0 0 0ZM142.048 117.787c-.13 0-.235-.104-.261-.235-.471-12.03 7.871-37.5 7.976-37.761.052-.13.183-.21.313-.157.131.052.21.183.157.313-.078.261-8.394 25.627-7.949 37.579 0 .131-.105.235-.236.261Z" fill="#E3E3E3"/><path d="M257.501 201.14c-.13-3.81-.418-7.751-1.072-11.509-.732-4.175-2.17-10.36-6.119-15.527-8.891-11.692-26.569-10.909-31.276-10.7-8.734.365-14.435 3.132-15.69 3.784-2.746 1.383-5.073 3.027-10.016 7.568-11.506 10.569-17.259 15.867-18.749 22.104-.288 1.174-2.668 11.795 3.138 17.615 1.15 1.148 4.184 3.627 24.424 3.758a205.93 205.93 0 0 0 15.376-.47c3.635 24.714 6.669 56.473 9.624 81.552 6.884-1.879 17.476-6.489 22.34-8.676a4.87 4.87 0 0 0 2.866-4.022c1.097-12.149 5.291-60.357 5.154-85.477Z" fill="#9C8FCD"/><path d="M225.808 202.888c-.314-.026-.968.183-2.903 2.114-.366.365-.706.757-1.046 1.148.34-1.696.575-3.262.706-4.541.261-2.662-.026-3.184-.34-3.34-.078-.052-.235-.078-.445-.026-.915.339-2.484 3.288-3.242 5.271a19.945 19.945 0 0 0-1.203 5.063v.026a269.633 269.633 0 0 1-1.308 9.238c.183 0 .34-.026.523-.026.027-.209.053-.391.079-.574.026.209.078.392.183.496.026.026.052.052.052.078.209-.026.419-.026.602-.052 0 .052.026.104.026.157 1.7-.548 3.452-7.777 3.948-10.048.053-.208.079-.417.131-.6.523-.678 1.046-1.305 1.648-1.879 1.883-1.905 2.406-1.983 2.484-1.983.026.078.157.705-1.412 3.914a83.652 83.652 0 0 1-3.557 6.316 76.68 76.68 0 0 1-3.19 4.671c.026.235.079.47.105.705a73.357 73.357 0 0 0 3.53-5.089 77.268 77.268 0 0 0 3.583-6.394c1.856-3.758 1.516-4.227 1.359-4.436a.314.314 0 0 0-.313-.209Zm-6.041 9.604c-1.438 4.645-2.275 4.932-2.432 4.932-.052 0-.079 0-.105-.026-.523-.653.942-5.167 3.635-9.108a46.67 46.67 0 0 1-1.098 4.202Zm1.386-5.455c-1.961 2.584-3.478 5.663-4.132 7.882.366-2.454.654-4.515.837-6.264v-.026c.078-.73.314-2.688 1.177-4.932 1.046-2.714 2.562-4.984 2.955-4.984.183.13.366 1.357-.21 4.984a43.345 43.345 0 0 1-.627 3.34ZM195.787 182.585l-8.656 35.178c3.792.365 8.682.392 14.984.444 5.648.026 10.408-.157 13.912-.366-5.204.053-22.437-2.218-20.24-35.256ZM226.189 267.125c-.517-1.093-2.745-.56-2.622.643 1.384 13.525 2.85 29.036 3.548 31.547.792 2.852 14.254-4.383 21.83-8.288.823-.424.691-1.683-.184-1.983-11.137-3.808-18.09-12.45-22.572-21.919Z" fill="#6F61A5"/><path d="M130.76 363.848a3 3 0 0 0-2.578 2.806c-.399 7.247-.798 14.512-1.198 21.755 4.943.365 9.859.731 14.801 1.07l6.257-26.684a1 1 0 0 0-1.113-1.219l-16.169 2.272Z" fill="#DFDFDF"/><path d="M146.402 398.639h-26.91a2 2 0 0 0-2 2v8.657a2 2 0 0 0 2 2h26.91a2 2 0 0 0 2-2v-8.657a2 2 0 0 0-2-2Z" fill="#6F61A5"/><path d="M146.493 398.639c0-.235.026-.47.026-.705 0-7.385-6.067-13.361-13.572-13.361-7.479 0-13.572 5.976-13.572 13.361 0 .235 0 .47.026.705h27.092Z" fill="#DFDFDF"/><path d="M140.426 389.635a.282.282 0 0 1-.157-.052c-5.439-4.906-11.741-1.774-11.82-1.748-.131.052-.287.026-.34-.105-.052-.13-.026-.287.105-.339.078-.026 6.694-3.314 12.369 1.801a.277.277 0 0 1 .026.365.283.283 0 0 1-.183.078ZM139.459 383.189h-.052c-.131-.026-.235-.156-.209-.287l3.661-19.676a3.182 3.182 0 0 0-.759-2.741c-.653-.73-1.569-1.148-2.536-1.096-1.7.079-3.374.653-4.446 1.149a3.264 3.264 0 0 0-1.935 2.975v18.763a.262.262 0 0 1-.523 0v-18.763c0-1.488.889-2.819 2.223-3.445 1.621-.731 3.19-1.122 4.629-1.174 1.124-.053 2.196.417 2.955 1.278a3.756 3.756 0 0 1 .863 3.158l-3.662 19.677c0 .078-.104.182-.209.182Z" fill="#133951"/><path d="M142.047 379.901a.199.199 0 0 1-.13-.052c-5.884-3.836-11.167-.052-11.219 0a.249.249 0 0 1-.34-.052.248.248 0 0 1 .052-.339c.053-.053 5.623-4.045 11.794 0 .105.078.157.234.079.339-.079.052-.157.104-.236.104ZM142.047 375.7a.199.199 0 0 1-.13-.052c-5.884-3.837-11.167-.053-11.219 0a.248.248 0 0 1-.34-.053.248.248 0 0 1 .052-.339c.053-.052 5.623-4.045 11.794 0 .105.078.157.235.079.339-.079.053-.157.105-.236.105ZM142.047 371.472a.199.199 0 0 1-.13-.052c-5.884-3.836-11.167-.052-11.219 0a.249.249 0 0 1-.34-.052.249.249 0 0 1 .052-.34c.053-.052 5.623-4.045 11.794 0 .105.079.157.235.079.34a.322.322 0 0 1-.236.104Z" fill="#133951"/><path d="M234.556 312.414a2.998 2.998 0 0 0-2.128 3.166l2.113 21.679c4.942-.391 9.859-.756 14.801-1.148l2.16-27.331a1 1 0 0 0-1.282-1.037l-15.664 4.671Z" fill="#DFDFDF"/><path d="m255.556 345.982-26.875 1.394a1.999 1.999 0 0 0-1.893 2.101l.45 8.645a2 2 0 0 0 2.101 1.894l26.875-1.394a2 2 0 0 0 1.894-2.101l-.451-8.645a2 2 0 0 0-2.101-1.894Z" fill="#6F61A5"/><path d="M255.645 345.976c0-.235 0-.47-.026-.705-.393-7.359-6.773-13.022-14.252-12.631-7.479.392-13.233 6.681-12.84 14.04 0 .235.026.47.052.705l27.066-1.409Z" fill="#DFDFDF"/><path d="M235.718 336.555a.236.236 0 0 1-.209-.105.246.246 0 0 1 .052-.339c.052-.052 6.119-4.306 12.5-.078.104.078.157.235.078.339-.078.105-.235.157-.34.078-6.093-4.018-11.872.027-11.951.053a.199.199 0 0 1-.13.052ZM239.483 330.527a.255.255 0 0 1-.261-.209l-2.824-18.555c-.236-1.461.444-2.923 1.699-3.732 1.491-.965 2.982-1.592 4.394-1.853a3.672 3.672 0 0 1 3.112.836 3.796 3.796 0 0 1 1.333 3.001l-.653 20.016c0 .13-.131.261-.262.235-.131 0-.235-.131-.235-.261l.653-20.016a3.33 3.33 0 0 0-1.15-2.61 3.254 3.254 0 0 0-2.694-.705c-1.673.313-3.216 1.149-4.21 1.801a3.306 3.306 0 0 0-1.464 3.236l2.824 18.555c.026.13-.079.261-.209.287-.026-.026-.053-.026-.053-.026Z" fill="#133951"/><path d="M236.711 328.334a.281.281 0 0 1-.183-.078.25.25 0 0 1 0-.365c.052-.052 4.942-4.828 11.663-1.775.13.052.183.209.13.34-.052.13-.209.182-.339.13-6.381-2.923-11.036 1.644-11.088 1.67a.285.285 0 0 1-.183.078ZM236.056 324.185a.285.285 0 0 1-.183-.078.254.254 0 0 1 0-.366c.053-.052 4.943-4.827 11.663-1.774.131.052.183.209.131.339-.052.131-.209.183-.34.131-6.38-2.897-11.035 1.644-11.088 1.67a.237.237 0 0 1-.183.078ZM235.429 320.01a.287.287 0 0 1-.183-.079.253.253 0 0 1 0-.365c.053-.052 4.943-4.828 11.663-1.775.131.053.184.209.131.34-.052.13-.209.182-.34.13-6.38-2.923-11.035 1.618-11.087 1.67a.241.241 0 0 1-.184.079Z" fill="#133951"/><path d="M279.553 357.171h-85.291a3 3 0 0 0-3 3v45.958a3 3 0 0 0 3 3h85.291a3 3 0 0 0 3-3v-45.958a3 3 0 0 0-3-3Z" fill="#DFDFDF"/><path d="M201.59 408.868a.262.262 0 0 1-.262-.261v-47.208a.262.262 0 0 1 .523 0v47.208c.026.131-.104.261-.261.261ZM272.746 361.66h-66.082a.262.262 0 0 1-.262-.261c0-.157.131-.261.262-.261h66.082c.157 0 .261.13.261.261a.28.28 0 0 1-.261.261ZM102.663 257.587l-.549-.053c0-.13 1.099-14.066-.68-32.386-1.62-16.884-6.066-41.076-18.043-60.335l.47-.287c6.642 10.674 15.167 29.881 18.123 60.596 1.778 18.372.679 32.334.679 32.465ZM268.954 141.17c-4.707 0-10.303-.809-16.762-2.453-10.774-2.741-20.032-6.864-20.11-6.916l.235-.496c.366.157 36.82 16.337 49.817 5.611 4.576-3.758 5.727-10.465 3.504-19.938l.523-.13c2.301 9.681 1.072 16.571-3.687 20.459-3.112 2.584-7.61 3.863-13.52 3.863Z" fill="#9C8FCD"/><path d="m74.186 375.021-.418-.365c14.069-16.493 25.078-34.761 32.74-54.307 12.709-32.438 16.082-67.773 10.042-105.039-3.452-21.19-10.016-42.851-19.038-62.606l.497-.235c9.022 19.808 15.612 41.52 19.064 62.763 6.066 37.37 2.667 72.783-10.068 105.326-7.688 19.598-18.724 37.918-32.819 54.463Z" fill="#9C8FCD"/><path d="M49.788 125.016c3.635.939 7.191-2.375 9.911-4.828.418-.391 5.152-4.75 4.393-5.846-.313-.443-1.124.235-2.693.105-3.844-.287-5.884-4.854-9.78-5.246-.131 0-.21-.026-.288-.026-2.406-.208-3.713-.339-4.681.548-3.4 3.08 1.36 14.484 1.36 14.484a5.7 5.7 0 0 0 1.778.809Z" fill="#EA927A"/><path d="m43.046 74.194 20.134 97.972c.11.54.64.889 1.18.779l70.716-14.473a1 1 0 0 0 .779-1.18L115.721 59.32a1 1 0 0 0-1.181-.779L43.824 73.014a1 1 0 0 0-.778 1.18Z" fill="#FAF0EB"/><path d="M92.91 84.827c-.104 0-.209-.078-.235-.209l-1.49-7.228c-.026-.079 0-.13.026-.183.026-.052.104-.104.157-.104l7.243-1.488c.053-.026.131 0 .183.026.053.026.105.105.105.157l1.491 7.228c.026.131-.053.261-.21.288L92.937 84.8c0 .026 0 .026-.026.026Zm-1.176-7.28 1.386 6.732 6.747-1.383-1.386-6.733-6.747 1.383ZM104.809 82.374c-.105 0-.209-.078-.235-.209l-1.491-7.229c-.026-.13.052-.26.209-.287l7.244-1.487c.131-.026.261.052.288.209l1.49 7.229c.026.13-.052.26-.209.287l-7.244 1.487h-.052Zm-1.177-7.28 1.386 6.732 6.747-1.383-1.386-6.733-6.747 1.383ZM95.448 97.197c-.105 0-.21-.078-.236-.209l-1.49-7.228c-.026-.079 0-.131.026-.183.026-.052.105-.105.157-.105l7.243-1.487c.053-.026.131 0 .184.026.052.026.104.104.104.157l1.491 7.228c.026.13-.053.261-.21.287l-7.243 1.488c.026.026 0 .026-.026.026Zm-1.177-7.28 1.386 6.732 6.747-1.383-1.386-6.733-6.747 1.383ZM107.346 94.744a.248.248 0 0 1-.235-.209l-1.491-7.229c-.026-.13.052-.26.209-.287l7.244-1.487c.052-.026.131 0 .183.026.052.026.105.104.105.156l1.49 7.23c.026.078 0 .13-.026.182-.026.052-.104.104-.157.104l-7.243 1.488c-.053.026-.053.026-.079.026Zm-1.177-7.255 1.386 6.733 6.747-1.383-1.386-6.733-6.747 1.383ZM97.983 109.567a.196.196 0 0 1-.13-.053c-.053-.026-.105-.104-.105-.156l-1.491-7.229c-.026-.078 0-.13.026-.183.026-.052.105-.104.157-.104l7.244-1.487c.13-.027.261.052.287.208l1.491 7.229c.026.131-.052.261-.209.287l-7.244 1.488h-.026Zm-1.177-7.281 1.386 6.733 6.747-1.384-1.386-6.732-6.747 1.383ZM109.881 107.14a.194.194 0 0 1-.13-.053c-.053-.026-.105-.104-.105-.156l-1.491-7.229c-.026-.13.053-.26.21-.287l7.243-1.487c.131-.026.262.052.288.208l1.49 7.229c.027.078 0 .131-.026.183-.026.052-.104.104-.157.104l-7.243 1.488c-.026-.026-.053 0-.079 0Zm-1.176-7.281 1.385 6.733 6.747-1.384-1.386-6.732-6.746 1.383ZM100.547 121.936a.247.247 0 0 1-.235-.208l-1.49-7.229c-.027-.131.052-.261.209-.287l7.243-1.488c.131-.026.262.052.288.209l1.49 7.229c.027.13-.052.261-.209.287l-7.243 1.487h-.053Zm-1.203-7.281 1.386 6.733 6.747-1.383-1.386-6.733-6.747 1.383ZM112.446 119.51a.2.2 0 0 1-.131-.053c-.052-.026-.105-.104-.105-.156l-1.49-7.229c-.026-.13.052-.261.209-.287l7.244-1.488c.052-.026.13 0 .183.027.052.026.104.104.104.156l1.491 7.229c.026.13-.052.261-.209.287l-7.244 1.487c-.026.027-.052.027-.052.027Zm-1.203-7.281 1.386 6.732 6.747-1.383-1.386-6.733-6.747 1.384ZM103.135 134.541c-.104 0-.209-.078-.235-.209l-1.491-7.229c-.026-.078 0-.13.026-.182.027-.052.105-.105.157-.105l7.244-1.487c.052-.026.131 0 .183.026.052.026.105.104.105.157l1.49 7.228c.026.131-.052.261-.209.287l-7.244 1.488c0 .026-.026.026-.026.026Zm-1.203-7.281 1.386 6.733 6.747-1.383-1.386-6.733-6.747 1.383ZM115.034 132.114a.2.2 0 0 1-.131-.052c-.052-.026-.105-.105-.105-.157l-1.49-7.229c-.026-.078 0-.13.026-.182.026-.052.104-.105.157-.105l7.243-1.487c.131-.026.262.052.288.209l1.491 7.228c.026.131-.053.261-.21.288l-7.243 1.487h-.026Zm-1.203-7.281 1.386 6.733 6.746-1.383-1.385-6.733-6.747 1.383ZM105.672 146.911c-.104 0-.209-.078-.235-.209l-1.491-7.229c-.026-.078 0-.13.027-.182.026-.053.104-.105.156-.105l7.244-1.487c.052-.026.131 0 .183.026.052.026.105.104.105.156l1.49 7.229c.026.079 0 .131-.026.183-.026.052-.104.104-.157.104l-7.243 1.488c-.027.026-.027.026-.053.026Zm-1.176-7.281 1.386 6.733 6.746-1.383-1.386-6.733-6.746 1.383ZM117.571 144.484a.2.2 0 0 1-.131-.052c-.052-.026-.105-.105-.105-.157l-1.49-7.229c-.026-.13.052-.261.209-.287l7.244-1.487c.052-.026.13 0 .183.026.052.026.104.104.104.156l1.491 7.229c.026.131-.052.261-.209.287l-7.244 1.488c-.026.026-.026.026-.052.026Zm-1.177-7.281 1.386 6.733 6.747-1.383-1.386-6.733-6.747 1.383Z" fill="#6F61A5"/><path d="M52.822 89.263a.248.248 0 0 1-.235-.208c-.026-.13.052-.261.21-.287l33.106-6.785c.13-.027.261.052.287.208.026.13-.052.261-.209.287l-33.106 6.785h-.053ZM53.58 92.865a.248.248 0 0 1-.235-.209c-.026-.13.052-.26.209-.287l33.106-6.785c.131-.026.262.052.288.209.026.13-.052.26-.21.287l-33.105 6.785h-.053ZM55.02 99.937c-.105 0-.21-.078-.236-.209-.026-.13.053-.26.21-.287L88.1 92.656c.13-.026.261.052.288.209.026.13-.053.26-.21.287l-33.106 6.785c-.026-.026-.026 0-.052 0ZM55.777 103.538a.247.247 0 0 1-.235-.208c-.026-.131.052-.261.21-.288l33.106-6.785c.13-.026.261.053.287.21.026.13-.052.26-.209.286l-33.106 6.785h-.053ZM57.766 113.22c-.105 0-.21-.078-.236-.209-.026-.13.053-.261.21-.287l33.106-6.785c.13-.026.261.052.288.209.026.131-.053.261-.21.287l-33.106 6.785c-.026-.026-.052 0-.052 0ZM58.496 116.822c-.104 0-.209-.079-.235-.209-.026-.131.052-.261.209-.287l33.106-6.785c.131-.027.262.052.288.208.026.131-.052.261-.21.287l-33.105 6.786h-.053ZM59.936 123.867a.247.247 0 0 1-.236-.208c-.026-.131.053-.261.21-.287l33.106-6.786c.13-.026.261.053.287.209.027.131-.052.261-.209.287l-33.106 6.785h-.052ZM60.693 127.495c-.104 0-.209-.078-.235-.209-.026-.13.052-.261.21-.287l33.106-6.785c.13-.026.261.052.287.209.026.13-.052.261-.209.287l-33.106 6.785h-.053ZM62.863 138.038c-.104 0-.209-.078-.235-.209-.026-.13.052-.261.21-.287l33.106-6.785c.13-.026.261.052.287.209.026.13-.052.261-.209.287l-33.106 6.785h-.053ZM63.596 141.639a.248.248 0 0 1-.236-.208c-.026-.131.053-.261.21-.287l33.106-6.786c.13-.026.261.053.288.209.026.131-.053.261-.21.287l-33.106 6.785h-.052ZM65.035 148.712c-.104 0-.209-.079-.235-.209-.026-.131.052-.261.21-.287l33.105-6.785c.131-.026.262.052.288.209.026.13-.052.26-.21.287l-33.105 6.785c0-.026-.027 0-.053 0ZM65.793 152.313c-.105 0-.21-.079-.235-.209-.027-.131.052-.261.209-.287l33.106-6.785c.131-.026.262.052.288.209.026.13-.052.261-.21.287l-33.106 6.785h-.052Z" fill="#F1C48B"/><path d="M96.598 82.165a.601.601 0 0 1-.366-.104l-2.51-1.644a.673.673 0 0 1-.183-.94.676.676 0 0 1 .941-.182l1.647 1.096 1.36-7.229a.697.697 0 0 1 .785-.548.696.696 0 0 1 .549.783l-1.543 8.22c-.052.209-.183.418-.392.496-.13.026-.21.052-.288.052ZM110.143 93.022a.601.601 0 0 1-.366-.105l-2.51-1.644a.672.672 0 0 1-.183-.94.675.675 0 0 1 .941-.182l1.647 1.096 1.36-7.229a.698.698 0 0 1 .785-.548.696.696 0 0 1 .549.783l-1.543 8.22c-.052.21-.183.418-.392.496-.105.026-.183.053-.288.053ZM112.628 105a.6.6 0 0 1-.367-.105l-2.51-1.644a.672.672 0 0 1-.183-.939.675.675 0 0 1 .941-.183l1.648 1.096 1.36-7.229a.696.696 0 0 1 .784-.548.695.695 0 0 1 .549.783l-1.543 8.221c-.052.208-.183.417-.392.496-.131.026-.209.052-.287.052ZM103.424 120.58a.606.606 0 0 1-.366-.105l-2.51-1.644a.672.672 0 0 1-.183-.939.674.674 0 0 1 .941-.183l1.648 1.096 1.36-7.229a.697.697 0 0 1 .784-.548.697.697 0 0 1 .549.783l-1.543 8.221c-.052.208-.183.417-.392.495-.131.026-.209.053-.288.053ZM117.805 130.287a.605.605 0 0 1-.366-.104l-2.51-1.644a.672.672 0 0 1-.183-.94.675.675 0 0 1 .941-.182l1.648 1.096 1.359-7.229a.698.698 0 0 1 .785-.548.696.696 0 0 1 .549.783l-1.543 8.22c-.052.209-.183.418-.392.496-.105.026-.183.052-.288.052ZM109.622 145.554a.595.595 0 0 1-.366-.105l-2.511-1.644a.672.672 0 0 1-.183-.939.675.675 0 0 1 .941-.183l1.648 1.096 1.36-7.229a.697.697 0 0 1 .784-.548.696.696 0 0 1 .549.783l-1.542 8.221c-.053.208-.183.417-.393.496a1.35 1.35 0 0 1-.287.052Z" fill="#367091"/><path d="M58.576 76.32a.671.671 0 0 1-.654-.548c-.078-.366.183-.705.55-.783l42.284-7.855c.367-.079.707.182.785.548.078.365-.183.704-.549.782L58.707 76.32h-.131Z" fill="#9C8FCD"/><path d="M53.92 105.47h-.366c-.104 0-.209 0-.34.026-.209 0-.418.026-.627.052-.419.052-.837.104-1.255.209-.837.182-1.648.469-2.432.835a7.326 7.326 0 0 0-1.151.678c-.366.261-.732.522-1.072.835a9.281 9.281 0 0 0-1.726 2.166v.026c-.602 1.018-.235 2.401.837 3.08 1.072.678 2.432.391 3.033-.653a.908.908 0 0 0 .157-.365c.183-.496.419-.992.758-1.435a3.16 3.16 0 0 1 .55-.627c.209-.208.418-.391.653-.574.471-.365.994-.652 1.57-.913.287-.131.575-.235.889-.313.156-.052.313-.079.444-.131.078-.026.157-.026.21-.052l.182-.026a1.308 1.308 0 0 0 1.255-1.461c-.078-.783-.81-1.384-1.569-1.357Z" fill="#FDA67D"/><path d="m56.3 108.445-.76.156c-.234.052-.496.105-.731.157-.471.104-.968.235-1.439.365-.941.261-1.909.574-2.824.966a16.421 16.421 0 0 0-2.798 1.409c-.47.287-.915.626-1.36 1.044a7.03 7.03 0 0 0-1.229 1.487l-.052.079c-.628 1.017-.288 2.4.784 3.079 1.046.678 2.406.417 3.034-.6.026-.052.052-.105.104-.157.105-.209.262-.444.497-.678.21-.235.471-.47.785-.705.287-.235.627-.444.967-.652.34-.209.706-.392 1.099-.575a28.354 28.354 0 0 1 2.38-.991c.418-.157.836-.287 1.255-.418.209-.052.418-.13.627-.182l.68-.183c.968-.261 1.517-1.253 1.203-2.244-.314-.94-1.281-1.54-2.223-1.357Z" fill="#FDA67D"/><path d="m55.306 112.959-1.177.287c-.392.105-.758.209-1.124.313-.759.235-1.517.47-2.25.783a14.95 14.95 0 0 0-2.274 1.07c-.392.209-.785.47-1.177.809-.21.157-.418.339-.628.574l-.078.079-.078.104c-.053.078-.105.13-.157.209-.053.052-.105.156-.157.235l-.157.234c-.523 1.07-.079 2.427 1.02 3.002 1.098.6 2.432.208 2.955-.862v-.052l.026-.026c.026-.052.104-.13.183-.209.157-.156.366-.339.627-.522a16.676 16.676 0 0 1 1.674-.991c.602-.313 1.255-.6 1.909-.888.34-.13.654-.261.994-.391l1.046-.391c.915-.314 1.333-1.331.967-2.245-.34-.835-1.281-1.305-2.144-1.122Z" fill="#FDA67D"/><path d="m54.104 118.074-.81.105c-.262.026-.524.078-.785.13-.523.105-1.046.209-1.595.339-.55.157-1.099.314-1.7.601-.314.156-.628.313-.968.6l-.13.104c-.053.052-.105.079-.131.131l-.13.13a.47.47 0 0 0-.132.183c-.052.052-.078.104-.13.183-.053.078-.079.156-.131.234-.026.053-.053.079-.053.131-.026.052-.026.104-.052.13-.026.105-.078.183-.104.288-.314 1.096.392 2.27 1.49 2.609 1.125.339 2.25-.261 2.537-1.357 0 .026-.026.078-.026.105 0 .026-.026.026-.026.052s0 .026-.027.026c-.026.052-.052.104-.078.104l-.026.026c.026-.026.104-.13.235-.208a5.226 5.226 0 0 1 1.02-.522c.392-.157.81-.314 1.255-.444.21-.078.445-.131.654-.183l.732-.182c.915-.235 1.412-1.149 1.15-2.062-.34-.783-1.176-1.331-2.039-1.253Z" fill="#FDA67D"/><path d="M55.018 105.783c-.183-.052-2.04-.705-2.798.078-.052.052-.47.496-.314.861.078.183.235.287.392.366.314.156.654.182 1.308.182.549 0 .837-.026 1.124-.182.053-.026.105-.053.131-.105.392-.313.21-1.017.157-1.2ZM57.632 108.471c-.601 0-1.072.078-1.386.156-.601.131-1.072.261-1.412.679-.078.078-.444.548-.288.991.079.261.288.392.367.444.13.104.418.261 1.333.157.785-.105 1.15-.131 1.386-.392.393-.417.366-1.252 0-2.035ZM56.51 112.959c-.602 0-1.073.079-1.387.157-.601.131-1.072.261-1.412.679-.078.078-.444.548-.288.991.079.261.288.392.366.444.131.104.419.261 1.334.156.785-.104 1.15-.156 1.386-.391.392-.418.392-1.253 0-2.036ZM54.914 118.205c-.497 0-.89.052-1.15.13-.498.105-.89.209-1.151.548-.053.079-.366.444-.236.809.079.209.236.34.288.366.105.078.34.208 1.098.13.628-.078.942-.13 1.15-.313.34-.365.315-1.044 0-1.67Z" fill="#EFC4BD"/><path d="M46.388 112.776a.238.238 0 0 1-.183-.078c-.104-.104-.078-.261.026-.365.079-.052 1.674-1.462 2.825-1.879.13-.052.287.026.314.156.052.131-.027.287-.157.314-1.047.365-2.642 1.774-2.668 1.774-.026.052-.104.078-.157.078ZM47.277 116.482c-.079 0-.157-.052-.21-.104-.078-.105-.052-.261.079-.339.157-.105 3.792-2.454 5.204-2.48.13 0 .261.105.261.261a.261.261 0 0 1-.261.261c-1.046.026-3.923 1.723-4.916 2.375-.053 0-.105.026-.157.026ZM48.244 120.136a.274.274 0 0 1-.235-.131c-.053-.13 0-.287.104-.339l3.452-1.696c.131-.052.288 0 .34.104.053.131 0 .287-.104.339l-3.452 1.697c-.026.026-.079.026-.105.026Z" fill="#6F61A5"/><path d="m68.068 164.998-.732.478-.731.472c-.172.112-.3.18-.383.202-.153.038-.277-.014-.37-.157-.162-.247-.05-.497.335-.748l.179-.112.155-.091a7.06 7.06 0 0 0-.374-.5 7.856 7.856 0 0 1-.37-.5 21.155 21.155 0 0 1-.843-1.474 19.61 19.61 0 0 0-.854-1.474c-.162.47-.288.734-.379.793a.42.42 0 0 1-.33.058.422.422 0 0 1-.273-.184c-.075-.115-.06-.324.043-.626.071-.179.161-.452.27-.816.072-.359.207-.603.403-.731.164-.107.309-.066.432.122.037.057.085.146.144.268.057.12.105.209.141.265.053.081.137.201.252.36.117.158.203.278.255.359.183.279.427.715.73 1.308.304.592.546 1.027.728 1.304.093.142.215.308.368.499s.273.35.36.479l.382-.26a.406.406 0 0 1 .321-.063c.112.022.201.083.267.183a.41.41 0 0 1-.126.586Zm2.84-1.655c-.745.487-1.513.502-2.302.044-.603-.354-1.18-.952-1.73-1.793-.466-.711-.702-1.442-.71-2.192-.006-.882.335-1.547 1.021-1.995.646-.421 1.328-.475 2.048-.161.623.272 1.158.75 1.605 1.434.719 1.098 1.085 2.037 1.097 2.816.011.777-.332 1.392-1.028 1.847Zm-3.26-5.224c-.456.298-.666.766-.63 1.404.03.533.207 1.048.533 1.546.528.806 1.033 1.341 1.516 1.603.483.262.943.25 1.38-.035.52-.34.698-.88.536-1.62-.112-.515-.376-1.088-.79-1.721-.434-.664-.864-1.093-1.29-1.288-.422-.197-.84-.16-1.255.111Zm7.559 2.418c-.746.487-1.513.502-2.303.044-.603-.355-1.18-.952-1.73-1.793-.465-.711-.702-1.442-.71-2.193-.006-.881.335-1.546 1.022-1.994.645-.421 1.327-.475 2.047-.161.623.272 1.158.75 1.606 1.434.718 1.098 1.084 2.037 1.096 2.816.011.776-.332 1.392-1.028 1.847Zm-3.26-5.224c-.457.298-.667.766-.632 1.404.03.533.209 1.048.534 1.546.528.806 1.033 1.341 1.516 1.603.483.262.943.25 1.38-.035.52-.34.699-.88.536-1.62-.112-.515-.375-1.088-.79-1.721-.434-.664-.864-1.094-1.289-1.288-.422-.197-.841-.16-1.256.111Zm7.482-5.332c.16.246.094.543-.199.892-.044.05-.221.175-.53.377-.481.314-.754.671-.818 1.07-.035.219.01.593.136 1.123.137-.348.39-.643.76-.885.479-.312.984-.337 1.516-.076.437.219.823.584 1.158 1.096.361.552.532 1.116.513 1.691-.018.652-.29 1.151-.818 1.495-.57.372-1.148.407-1.738.106-.493-.252-.965-.721-1.414-1.407a5.953 5.953 0 0 1-.873-2.17c-.183-.965-.047-1.696.409-2.193.085-.094.272-.235.562-.424.263-.176.43-.312.499-.41-.09-.232-.06-.396.087-.493.113-.073.247-.085.401-.036a.611.611 0 0 1 .35.244Zm1.383 4.104c-.547-.836-1.078-1.085-1.593-.749-.35.229-.519.571-.504 1.027.01.389.136.77.38 1.143.187.287.418.484.692.592.31.127.601.101.874-.077.333-.218.5-.522.5-.914-.003-.33-.12-.671-.349-1.022Zm5.511-.664c-.047.031-.167.032-.36.004a1.96 1.96 0 0 1-.422-.107 5.454 5.454 0 0 1-.434.693 1.6 1.6 0 0 1-.384.392c-.574.375-1.098.486-1.573.334-.446-.142-.875-.527-1.285-1.155a2.523 2.523 0 0 1-.386-1.921c.134-.689.484-1.219 1.05-1.589.214-.139.49-.24.827-.303.423-.08.698-.024.825.17a.298.298 0 0 1 .042.225c.036.109.117.275.242.498.127.221.299.499.514.834.197.306.375.532.534.68.096.092.314.257.656.496.046.033.117.079.212.14l.063.048a.406.406 0 0 1-.12.561Zm-2.438-2.056a4.01 4.01 0 0 1-.205-.354 6.287 6.287 0 0 1-.197-.438c-.121.013-.223.03-.303.051a.599.599 0 0 0-.176.068c-.38.248-.608.618-.681 1.111-.073.488.023.934.288 1.339.263.402.532.657.805.765.274.108.553.07.838-.116.236-.154.407-.327.515-.521.058-.104.121-.278.19-.522-.504-.598-.862-1.059-1.074-1.383Zm6.657-1.36a.424.424 0 0 1 .068.329.43.43 0 0 1-.197.276.422.422 0 0 1-.603-.127 4.835 4.835 0 0 0-.232-.315 7.982 7.982 0 0 1-.238-.307 25.258 25.258 0 0 1-.511-.757c.05.076-.268-.42-.953-1.488a4.244 4.244 0 0 1-.468.352c-.41.268-.811.52-1.206.757.066.1.167.253.304.457l.305.457c.506.775.81 1.335.909 1.679.16.571.003 1.011-.47 1.32-.184.12-.37.187-.557.201-.225.014-.394-.065-.506-.237a.4.4 0 0 1-.067-.286.353.353 0 0 1 .165-.245.746.746 0 0 1 .246-.082.732.732 0 0 0 .242-.079c.18-.117.213-.323.1-.617-.066-.166-.22-.434-.463-.805a16.124 16.124 0 0 0-.603-.834 17.258 17.258 0 0 1-.597-.833.403.403 0 0 1-.063-.336.49.49 0 0 1 .214-.282c.064-.042.151-.093.261-.155.14-.077.228-.128.268-.153.278-.164.625-.382 1.042-.655.09-.059.215-.164.371-.315.157-.152.282-.258.375-.319.272-.177.485-.149.64.087.139.213.344.534.614.963.272.427.479.748.618.961.196.299.363.547.502.743.042.06.125.167.247.322.108.132.189.24.243.323Zm4.579-2.988a.422.422 0 0 1-.13.604.426.426 0 0 1-.329.068.426.426 0 0 1-.274-.194 4.808 4.808 0 0 0-.232-.316 9.121 9.121 0 0 1-.238-.306 26.467 26.467 0 0 1-.511-.758c.05.076-.268-.42-.953-1.488a4.384 4.384 0 0 1-.468.353c-.41.267-.812.519-1.206.756.066.101.167.253.304.457.136.202.237.355.305.458.507.774.81 1.334.909 1.678.16.571.003 1.011-.47 1.32-.184.12-.37.187-.557.201-.225.014-.394-.065-.506-.236a.404.404 0 0 1-.067-.287.355.355 0 0 1 .165-.245.727.727 0 0 1 .246-.081.728.728 0 0 0 .242-.08c.18-.117.213-.322.1-.617-.066-.166-.22-.434-.463-.804a15.33 15.33 0 0 0-.603-.834 17.704 17.704 0 0 1-.598-.833.405.405 0 0 1-.062-.337.49.49 0 0 1 .214-.282c.064-.042.151-.093.261-.155a4.76 4.76 0 0 0 .268-.153c.278-.164.625-.382 1.042-.654.09-.06.215-.165.371-.316.157-.151.282-.257.375-.318.272-.178.485-.149.64.086.139.213.344.534.614.963.272.428.478.748.618.961.196.299.363.547.502.743.043.06.125.167.247.322.108.132.189.24.244.324Zm3.089-4.951c.396.606.586 1.265.57 1.979-.021.829-.35 1.451-.985 1.866-.52.339-1.062.474-1.625.405-.597-.072-1.064-.366-1.401-.88a3.254 3.254 0 0 1-.53-2.022c.046-.834.387-1.459 1.022-1.874 1.217-.794 2.2-.619 2.949.526Zm-.765.5c-.244-.373-.492-.577-.742-.613-.249-.037-.568.072-.958.326-.378.247-.58.65-.606 1.209-.022.529.11 1.011.395 1.448.193.294.46.46.804.498.328.035.652-.053.974-.262.372-.244.56-.638.565-1.183a2.518 2.518 0 0 0-.432-1.423Zm5.1-1.451c.294.448.153.993-.422 1.634-.359.403-.852.809-1.477 1.217a.507.507 0 0 1-.351.066c-.136-.02-.234-.076-.295-.17l-.457-.698-1.253-1.995-.24-.368a1.512 1.512 0 0 1-.188-.392.258.258 0 0 1 .016-.215c.015-.031.07-.095.164-.191.123-.133.356-.312.7-.536a2.455 2.455 0 0 1 1.262-.414c.521-.022.903.152 1.145.522.225.343.205.715-.058 1.114.239-.041.503-.026.791.045.328.08.549.206.663.381Zm-2.084-1.091c-.098-.149-.286-.213-.566-.191a1.274 1.274 0 0 0-.614.185l-.151.099a4.67 4.67 0 0 0-.372.258c.052.085.14.221.261.407.03.047.097.134.199.264.085.109.149.2.19.274.15-.076.28-.151.394-.225.274-.179.463-.327.566-.443.192-.22.223-.429.093-.628Zm1.334 1.533c-.087-.132-.265-.194-.536-.185a1.713 1.713 0 0 0-.596.116 2.904 2.904 0 0 0-.445.243c-.236.147-.382.235-.437.264.1.173.187.317.262.433l.47.717c1.053-.755 1.481-1.284 1.282-1.588Z" fill="#9C8FCD"/><path fill-rule="evenodd" clip-rule="evenodd" d="m147.704 43.828-3.268-22.678-2.758 22.678h6.026Z" fill="#FEA970"/><path fill-rule="evenodd" clip-rule="evenodd" d="M144.848 17.51c.387.128.669.522.669.99 0 .57-.42 1.032-.937 1.032-.518 0-.937-.462-.937-1.032 0-.451.262-.836.629-.975v-1.728h.574v1.713h.002Z" fill="#6F61A5"/><path fill-rule="evenodd" clip-rule="evenodd" d="M143.863 19.162c.172.227.431.37.719.37a.902.902 0 0 0 .716-.367v2.272h-.819l-.041-.286-.035.286h-.538v-2.275h-.002Z" fill="#FEAA71"/><path d="M171.749 9.829c-.169.002-.339.006-.508.011h-.017a32.1 32.1 0 0 0-.496.02l-.031.001a19.663 19.663 0 0 0-.526.031c-.158.01-.315.024-.472.037-.018.001-.038.002-.056.005-.153.013-.308.029-.462.044l-.067.007c-.151.015-.3.032-.451.05l-.08.01a28.503 28.503 0 0 0-.963.136l-.097.016a22.68 22.68 0 0 0-.425.071l-.108.02c-.139.024-.278.05-.416.076-.039.008-.077.016-.116.022l-.408.084-.126.027c-.134.028-.267.058-.401.088l-.135.031c-.131.03-.261.062-.392.094-.048.012-.097.023-.143.036l-.385.1c-.051.012-.102.027-.151.04-.126.033-.252.069-.378.104l-.16.045c-.124.035-.247.072-.371.108l-.167.05-.364.114-.177.057c-.118.039-.238.077-.356.117l-.185.062a16.25 16.25 0 0 0-.541.19c-.114.042-.228.082-.342.125l-.2.075-.335.128-.209.082c-.11.042-.219.085-.328.13l-.217.09c-.107.043-.213.088-.32.132l-.226.097-.312.136-.235.105c-.102.045-.203.09-.305.138l-.243.113c-.098.047-.197.092-.297.139a23 23 0 0 0-.256.123c-.095.046-.19.091-.285.14l-.27.135-.272.136c-.095.048-.19.099-.285.148-.086.045-.173.089-.259.136-.101.053-.202.109-.304.163l-.24.129c-.115.062-.23.127-.345.191-.066.038-.134.074-.2.11-.182.103-.364.207-.546.313v10.79c5.761-3.347 11.416-5.048 16.963-5.119V9.828h-.001Z" fill="#796CAA"/><path d="M188.283 14.63a11.217 11.217 0 0 0-.167-.1c-.117-.07-.234-.14-.351-.208-.065-.038-.13-.076-.195-.112a28.48 28.48 0 0 0-.323-.186l-.202-.112-.317-.176-.204-.109-.317-.169a23.996 23.996 0 0 0-.199-.102c-.108-.056-.215-.112-.323-.165a9.885 9.885 0 0 0-.196-.097l-.326-.16a12.714 12.714 0 0 0-.191-.092l-.333-.157-.185-.085-.339-.153c-.06-.027-.121-.052-.181-.08l-.344-.148-.176-.072c-.117-.048-.234-.098-.351-.145l-.169-.066c-.119-.047-.239-.095-.358-.14l-.164-.061-.365-.136c-.052-.02-.104-.037-.156-.056-.125-.044-.25-.088-.375-.13l-.148-.052-.381-.126-.143-.045c-.13-.042-.259-.082-.389-.121l-.135-.04a45.67 45.67 0 0 0-.525-.151c-.135-.038-.27-.074-.405-.11l-.123-.03c-.137-.036-.275-.07-.413-.104l-.114-.028a24.684 24.684 0 0 0-.422-.097l-.106-.024a25.426 25.426 0 0 0-.431-.09l-.097-.02-.439-.085-.091-.017c-.15-.027-.299-.052-.449-.076-.027-.004-.056-.01-.083-.013a24.91 24.91 0 0 0-1-.143l-.067-.008c-.159-.02-.318-.038-.476-.053l-.059-.007c-.161-.017-.323-.031-.484-.045l-.05-.004a21.113 21.113 0 0 0-.535-.04 32.84 32.84 0 0 0-.505-.027h-.032a22.92 22.92 0 0 0-.515-.019h-.022c-.176-.004-.351-.008-.528-.01h-.012c-.179 0-.36 0-.539.002v10.791c5.799-.073 11.481 1.637 17.046 5.12V14.948a55.398 55.398 0 0 0-.516-.318l-.005-.001Z" fill="#5A4C92"/><path d="M172.929.502a2.998 2.998 0 0 0-2.355.002l-29.46 12.615c-.804.344-.81 1.48-.01 1.834l13.684 6.041v-6.046c.182-.105.364-.21.546-.312.066-.038.134-.074.2-.11.114-.064.23-.129.345-.191.08-.045.159-.086.24-.13l.304-.163.259-.135.285-.148.271-.137.271-.135c.095-.047.189-.092.284-.14.086-.04.171-.082.256-.123l.298-.139.243-.113.304-.138.236-.105.312-.135.226-.098c.107-.045.213-.09.32-.132l.217-.09.327-.13c.071-.027.139-.056.21-.082.111-.043.223-.086.335-.127l.2-.075.342-.125.193-.07.348-.12c.061-.02.123-.043.185-.063.118-.04.237-.077.356-.116l.177-.058c.12-.039.243-.075.363-.113l.168-.05c.124-.037.247-.073.371-.108.053-.016.106-.032.16-.046l.378-.104.151-.04.384-.099c.049-.012.097-.023.143-.036.132-.033.262-.064.393-.094l.135-.031.401-.089.126-.027.408-.083c.039-.008.077-.016.116-.022.139-.027.278-.052.416-.077l.107-.02.426-.07.097-.017a49.708 49.708 0 0 1 .521-.078c.147-.02.295-.04.442-.058l.08-.01a25.286 25.286 0 0 1 .518-.056c.154-.016.308-.03.462-.044l.056-.006c.157-.013.314-.026.472-.036l.044-.003c.161-.01.322-.02.482-.028.01 0 .021 0 .031-.002l.495-.02h.017c.171-.004.34-.008.509-.01.179-.003.36-.003.539-.002h.012c.175 0 .352.004.528.009h.022a22.92 22.92 0 0 1 .547.02 31.401 31.401 0 0 1 1.089.07c.163.014.324.028.485.045l.059.007.476.053.067.008c.156.02.311.04.467.062l.075.01.458.07.083.014c.149.025.299.05.448.077l.091.016c.147.028.294.055.44.085l.097.02c.145.028.288.06.431.09l.106.024c.141.031.281.063.421.097l.115.028c.138.033.275.067.413.104l.122.03.406.11.127.035.398.116.135.04.389.121.143.046c.127.041.255.083.381.126.049.017.099.032.148.05a33.618 33.618 0 0 1 .53.188c.123.044.244.09.366.135l.164.06c.119.046.239.093.358.141l.169.066c.117.047.234.097.351.145l.176.072.344.149.181.079.339.153.185.085.333.157.191.091.326.161.196.097c.108.054.215.11.323.165l.199.102.317.17c.067.036.135.07.204.109l.317.175.202.112.323.186.195.112.351.209.167.099c.173.104.344.21.516.318v5.395l13.481-5.498c.823-.335.832-1.497.014-1.846L172.929.502Z" fill="#6F61A5"/></svg>