<svg width="164" height="151" fill="none" xmlns="http://www.w3.org/2000/svg"><path d="M52.004 32.72c2.668 1.694 3.876 3.467 3.626 5.319-.248 1.829-1.873 3.431-4.876 4.807-2.992 1.377-7.197 1.699-12.617.965-.474-.064-.867-.347-1.178-.85-.313-.49-.402-.98-.267-1.467l1.463-4.82c.538-1.767 1.374-4.166 2.509-7.197 1.146-3.03 1.955-5.317 2.429-6.863.474-1.545.876-2.733 1.206-3.562.333-.84.644-1.315.935-1.425.302-.109 1.023-.172 2.164-.19a21.4 21.4 0 0 1 3.39.183c1.942.263 3.63 1.164 5.067 2.703 1.447 1.541 2.047 3.22 1.801 5.038-.17 1.254-.704 2.567-1.602 3.94-.886 1.363-2.236 2.503-4.05 3.418Zm-4.85-11.953-.924 2.876-2.224 6.372 2.493.562c.734.1 1.731-.007 2.992-.32 1.273-.31 2.328-.931 3.167-1.864.85-.931 1.341-1.882 1.473-2.853.127-.937-.263-1.881-1.169-2.832-.893-.96-1.955-1.523-3.186-1.69-1.22-.165-2.093-.249-2.622-.251Zm-1.152 13.227-1.398-.12a12.215 12.215 0 0 1-1.89-.429l-1.21 3.716-1.017 3.433c4.044.363 6.987.152 8.83-.633 1.853-.784 2.813-1.424 2.88-1.921.063-.463-.37-1.04-1.3-1.728-.919-.688-1.99-1.276-3.21-1.763l-1.685-.555ZM68 46.163c-2.598.844-4.416 1.196-5.455 1.055-4.222-.572-6.061-2.867-5.517-6.886.505-3.737 2.095-6.603 4.768-8.599 2.684-1.993 5.437-2.799 8.26-2.417 1.095.148 2.186.583 3.272 1.305 1.1.713 1.599 1.441 1.498 2.186-.063.463-.264.804-.604 1.022-.285.41-.78 1.642-1.483 3.697-.69 2.045-1.099 3.53-1.224 4.456-.155 1.14-.073 2.75.243 4.828l.031.28c-.39 1.016-1.088 1.456-2.093 1.32-.17-.023-.454-.297-.854-.823-.402-.514-.683-.989-.842-1.424Zm3.02-13.009c-.655-.514-1.191-.799-1.61-.855-1.885-.256-3.761.358-5.63 1.842-1.854 1.473-2.953 3.474-3.295 6.003-.336 2.484.568 3.871 2.713 4.162 1.682.227 3.347-.18 4.994-1.221.821-4.706 1.764-8.017 2.828-9.93Zm24.37 16.423a1.475 1.475 0 0 1-.76.897 1.89 1.89 0 0 1-1.185.22c-.745-.102-1.137-.517-1.177-1.246-.05-.904-.464-2.386-1.243-4.446-.845-2.253-1.51-3.412-1.996-3.477l-.525-.072c-.066.233-.15.52-.254.863-.091.332-.213.724-.366 1.175l-.64 2.052c-.287.927-.517 1.654-.692 2.182-.162.519-.27.843-.322.974-.44.791-1.067 1.132-1.88 1.022-1.016-.137-1.394-.66-1.133-1.567.072-.278.177-.626.314-1.045.148-.416.312-.906.492-1.468.213-.557.394-1.044.542-1.461.149-.417.258-.759.329-1.025.123-.397.23-.768.323-1.112.104-.342.195-.675.273-.998l-.525-.07c-.226-.031-.656.175-1.291.618-.635.443-1.476 1.134-2.523 2.073a53.88 53.88 0 0 0-2.407 2.244c-.613.618-1.055 1.127-1.328 1.527-.458.663-1.048.945-1.77.847a1.641 1.641 0 0 1-.562-.18c-.16-.09-.3-.201-.42-.332a1.31 1.31 0 0 1-.23-.48 1.22 1.22 0 0 1 .045-.58c.132-.465.473-1.028 1.022-1.69.55-.661 1.298-1.434 2.245-2.317.944-.861 1.81-1.572 2.6-2.132.801-.57 1.525-.995 2.173-1.275-.478-.467-.846-1.65-1.107-3.547-.247-1.655-.721-2.53-1.421-2.624-.666-.09-.876-.533-.63-1.327.076-.312.412-.548 1.009-.708.476-.12.906-.154 1.29-.102.7.095 1.24.473 1.623 1.134.08.172.162.413.247.723.096.312.185.715.267 1.21.024.336.087.718.19 1.146.103.428.227.91.373 1.447.255.495.94.834 2.052 1.02.22-.937.421-1.749.606-2.436.185-.688.35-1.264.493-1.727.39-1.361 1.128-1.969 2.212-1.822.43.058.75.24.961.544.213.293.258.644.134 1.053-.097.286-.25.828-.462 1.627-.212.8-.5 1.87-.866 3.212 1.145.12 1.996-.012 2.554-.396.127-.087.36-.32.698-.7.35-.377.801-.902 1.352-1.575.355-.412.666-.755.933-1.03.267-.274.501-.478.703-.611.68-.518 1.403-.724 2.171-.62.192.026.375.073.55.143.174.07.357.163.548.281.42.298.59.603.514.915-.245.794-.707 1.146-1.384 1.054-.666-.09-1.604.593-2.813 2.05-.39.5-.694.884-.915 1.153-.209.27-.358.44-.448.509a6.275 6.275 0 0 1-1.701 1.356c.883.867 1.698 2.317 2.447 4.35.373 1.062.612 1.974.716 2.735.116.752.108 1.366-.025 1.842Zm16.944-4.018-.893-.156c-2.449-.423-5.222-.494-8.318-.212-.117.352-.645 1.793-1.585 4.321-.177.46-.318.86-.422 1.202-.147.498-.428.873-.842 1.128a1.885 1.885 0 0 1-1.334.302c-.938-.127-1.343-.653-1.218-1.579.041-.305.271-.94.69-1.907.37-.79.707-1.744 1.008-2.864l1.33-4.735 1.872-6.18a1.91 1.91 0 0 1 .821-1.096 1.97 1.97 0 0 1 1.368-.297c.971.131 1.397.632 1.28 1.5l-1.905 6.814c2.917-.238 5.932-.088 9.045.448l.369-1.071c.855-2.494 1.402-4.202 1.642-5.124.156-.473.436-.843.84-1.11a1.93 1.93 0 0 1 1.37-.315c.949.128 1.363.638 1.242 1.53-.05.373-.361 1.348-.931 2.927-.341 1.08-.82 2.665-1.437 4.755l-2.302 7.966c-.379 1.351-1.127 1.951-2.245 1.8-.993-.134-1.428-.659-1.304-1.573.015-.113.635-2.271 1.859-6.474Zm12.871 10.278c-2.202-.298-3.938-1.142-5.21-2.533-1.271-1.402-1.776-3.063-1.516-4.982.39-2.88 1.941-5.595 4.655-8.148 2.726-2.552 5.658-3.615 8.796-3.19 4.889.662 7.062 2.996 6.52 7.005-.428 3.16-1.961 6.035-4.599 8.62-2.625 2.577-5.507 3.653-8.646 3.228Zm9.629-11.89c.152-1.129-.062-1.962-.645-2.501-.581-.55-1.661-.932-3.242-1.146-1.852-.25-3.721.52-5.607 2.31-1.874 1.782-2.939 3.621-3.196 5.518-.151 1.118.149 2.084.901 2.898.763.817 1.811 1.315 3.143 1.495 1.863.252 3.687-.524 5.472-2.329 1.796-1.803 2.854-3.885 3.174-6.245Zm8.997 6.41c-.296.994-.952 1.422-1.968 1.285-.858-.116-1.237-.547-1.136-1.292l.308-1.252c.286-1.18.633-2.426 1.04-3.74l2.445-7.998c1.212-4.02 1.898-6.164 2.061-6.43.164-.276.386-.476.667-.6.283-.133.633-.172 1.051-.116 1.005.136 1.359.702 1.064 1.697l-5.532 18.445Zm-3.921 7.557c-.395-.054-.733-.358-1.014-.914-.283-.544-.394-1.036-.335-1.476.061-.452.302-.828.722-1.127.431-.298.878-.416 1.341-.353.429.058.774.352 1.036.882.275.52.381 1.011.318 1.474-.067.497-.321.888-.762 1.173-.441.285-.877.399-1.306.34Z" fill="#FA8D8D"/><g clip-path="url(#a)" fill="#FBB116"><path opacity=".75" d="M62.312 113.696c1.003-.627 3.026-2.36 4.442-3.486 1.416-1.125 3.185-1.174 3.363-.805.137.352.77 3.444.878 3.638.11.193-.146.664-.573.864-.41.16-1.648.879-1.824.947-.193.109-8.838 4.323-11.536 5.274-2.699.95-7.636 2.909-9.911 3.56-2.276.651-8.627 2.183-11.124 2.785-2.538.585-6.073 1.12-8.216 1.247-2.143.127-3.059.113-3.641.003a7.699 7.699 0 0 0-1.4-.129c-.338-.003-.397.02-1.015-.009-.618-.029-.916-.014-1.313.006-.397.02-1.048-.266-1.552-.778-.485-.553-1.04-1.719-1.101-2.134-.102-.433.18-1.183.757-1.172.578.011 1.649.335 2.557.588.908.253 4.89.691 5.94.619 1.034-.032 4.841-.302 8.614-1.267 3.69-1.001 6.865-1.597 10.604-2.819 3.7-1.24 5.593-1.573 8.852-3.249 3.3-1.657 5.984-2.906 7.199-3.683Z"/><path opacity=".75" d="M28.48 118.453c-.507.602-2.223 3.295-2.985 4.368-.762 1.073-2.954 3.411-3.822 3.952-.85.5-1.698.662-2.29.354-.593-.309-.618-.805-.93-1.088-.313-.283-.437-.774-.02-1.173.418-.399 1.303-1.419 1.82-1.823.499-.363 2.563-2.854 3.345-3.53.8-.717 3.051-3.854 3.73-4.624.636-.788 2.824-4.002 3.968-5.392 1.185-1.373 5.134-7.162 6.205-8.828 1.07-1.665 3.193-5.393 3.891-6.542.64-1.127 1.763-3.352 2.003-4.12.28-.75.432-1.315.417-1.613-.015-.298-.017-.736.396-1.234.413-.498.742-1.47.926-1.777.183-.308.876-.78 1.247-.52.412.277 1.058.464 1.353.787.295.324 1.042.943 1.098 1.259.056.316.157.748-.121 1.16-.278.412-.857 1.177-1.173 2.01-.335.872-1.327 2.911-1.564 3.34-.278.413-.309.593-.475.86-.166.267-.208-.188-.433.102-.183.307-.328.195-.407.597-.04.42-.141.763-.398.796-.257.033-.51.165-.553.485-.003.339.101.433-.169.606-.27.172-.491.124-.436.44.056.315-.28.75-.729 1.33-.449.58-4.334 6.445-5.096 7.518-.763 1.073-4.122 5.519-4.95 6.854-.69 1.348-3.848 5.446-3.848 5.446Z"/><path opacity=".75" d="M83.714 71.353c1.066-1.764 1.933-3.519 2.071-3.944.138-.425.335-.872.884-1.02.51-.164.947-.166 1.527.283.58.448 1.825 1.48 2.333 2.092.508.611.522 1.685-.01 2.568-.574.864-1.102 1.846-2.117 3.05-1.014 1.205-2.428 2.769-2.742 3.262-.313.493-.352.913-.578.765-.186-.13-.443-.097-.609.17-.166.267-2.36 2.944-3.06 3.655-.724.653-1.935 2.306-2.778 3.343-.885 1.02-2.128 2.415-2.47 2.75-.341.336-.718.753-.764.636-.046-.118.597-.806 1.127-1.35.512-.504 1.378-1.482 1.62-1.813.202-.348.26-.37.484-.66.225-.29.418-.4.31-.593-.11-.194-.86.74-1.106.97-.266.273-1.086 1.368-1.54 1.849-.413.498-1.05 1.286-1.315 1.558-.265.272-.733.454-.958.744-.242.33-.547.585-.7.712-.153.127-2.242 2.122-2.642 2.48-.382.318-1.74 1.42-1.91 1.588-.171.168-2.92 2.892-3.15 3.083-.247.231-2.239 1.783-2.392 1.91-.211.15-.871.88-1.1 1.071-.23.19-1.399 1.084-1.704 1.338-.306.255-.495.463-.724.654-.23.19-.491.124-.28-.026.212-.15.372-.516.22-.389-.194.109-.464.282-.594.467-.13.186-.143.326-.296.453s-.374.078-.58.327c-.207.249-.314.494-.485.661-.17.168-3.471 2.602-4.686 3.379-1.454.769-9.36 5.841-11.96 7.563-2.6 1.722-10.881 6.435-12.916 7.531-1.994 1.115-5.082 2.623-5.546 2.904-.504.264-.71.514-1.212.439-.5-.074-1.073-.762-1.362-.986-.29-.225-.928-.65-.587-.986.341-.335 1.732-1.181 2.119-1.399.387-.219 7.825-3.894 8.716-4.376.891-.483 8.564-5.026 11.475-6.903 2.911-1.876 10.142-7.293 12.323-9.053 2.18-1.761 10.406-8.78 11.354-9.722.988-.925 3.016-2.559 4.66-4.313a387.682 387.682 0 0 0 5.218-5.474c1.773-1.94 3.522-4.375 4.271-5.308.773-.875 3.077-4.134 4.16-5.94Z"/></g><defs><clipPath id="a"><path fill="#fff" transform="rotate(-156.299 44.37 66.077)" d="M0 0h45.374v83.194H0z"/></clipPath></defs></svg>