<svg width="113" height="172" fill="none" xmlns="http://www.w3.org/2000/svg"><path opacity=".75" d="M34.267 112.735c-1.577-1.618-4.542-5.75-6.658-8.479-2.116-2.73-5.374-3.622-5.871-3.018-.414.589-2.989 6.038-3.279 6.347-.29.31-.03 1.298.672 1.864.688.482 2.657 2.376 2.952 2.583.31.29 14.43 12.025 19.004 15.012 4.574 2.987 12.841 8.858 16.766 11.098 3.926 2.239 15.01 7.96 19.368 10.21 4.441 2.235 10.755 4.831 14.671 6.038 3.917 1.208 5.622 1.597 6.752 1.657 1.131.06 2.025.248 2.654.396.629.148.728.217 1.887.444 1.16.227 1.706.389 2.433.606.727.217 2.064-.018 3.23-.739 1.151-.805 2.71-2.716 3.011-3.458.384-.757.203-2.276-.873-2.517-1.076-.242-3.209-.126-5.008-.068-1.799.057-9.383-.937-11.3-1.548-1.901-.528-8.84-2.755-15.398-6.255-6.392-3.53-12.008-6.076-18.39-10.038-6.297-3.977-9.658-5.454-14.943-10.039-5.369-4.571-9.78-8.104-11.68-10.096Z" fill="#FBB116"/><path opacity=".75" d="M94.854 136.901c.667 1.347 2.629 7.119 3.556 9.454.927 2.336 3.93 7.667 5.296 9.064 1.35 1.313 2.849 1.998 4.088 1.694 1.239-.304 1.51-1.213 2.218-1.596s1.161-1.237.567-2.167c-.594-.929-1.772-3.221-2.548-4.204-.761-.901-3.46-6.457-4.603-8.065-1.159-1.692-3.91-8.531-4.819-10.267-.824-1.751-3.423-8.703-4.915-11.801-1.575-3.083-6.273-15.611-7.504-19.185-1.23-3.575-3.475-11.45-4.25-13.899-.676-2.38-1.749-7.016-1.846-8.55-.18-1.518-.204-2.634-.041-3.18.162-.545.364-1.355-.175-2.467-.54-1.111-.71-3.063-.911-3.716-.201-.654-1.272-1.845-2.078-1.53-.89.328-2.173.38-2.867.847-.693.466-2.36 1.276-2.606 1.836s-.63 1.317-.302 2.207c.329.89 1.055 2.571 1.265 4.257.224 1.77 1.14 6.003 1.385 6.907.329.89.304 1.24.49 1.81.186.57.472-.255.757.384.2.654.52.511.485 1.293-.118.796-.085 1.48.377 1.657.462.177.87.536.805 1.15-.148.63-.384.757.039 1.2.422.442.855.453.608 1.013-.246.56.18 1.519.75 2.797.57 1.279 5.115 13.919 6.042 16.255.927 2.335 5.141 12.105 6.073 14.957.666 2.812 4.664 11.845 4.664 11.845Z" fill="#FBB116"/><path opacity=".75" d="M13.777 24.5c-1.177-3.756-1.99-7.404-2.053-8.254-.063-.85-.224-1.77-1.178-2.291-.869-.537-1.68-.74-2.958-.17-1.279.57-4.057 1.918-5.277 2.822-1.22.903-1.732 2.889-1.144 4.767.672 1.863 1.206 3.923 2.54 6.618 1.335 2.694 3.25 6.235 3.607 7.292.358 1.057.24 1.853.726 1.681.403-.157.865.02 1.052.591.186.57 3.042 6.53 4.018 8.168 1.046 1.539 2.542 5.153 3.636 7.46 1.178 2.29 2.852 5.443 3.332 6.22.482.777.992 1.72 1.13 1.524.138-.196-.741-1.765-1.477-3.014-.722-1.166-1.885-3.373-2.184-4.096-.216-.738-.314-.807-.599-1.446-.284-.639-.593-.93-.303-1.239.29-.31 1.257 1.761 1.61 2.302.368.624 1.393 3.029 2.017 4.125.54 1.112 1.364 2.862 1.732 3.487.368.624 1.154 1.175 1.439 1.815.299.722.75 1.332.976 1.637.226.305 3.196 4.953 3.775 5.799.565.762 2.583 3.423 2.823 3.811.24.389 4.104 6.688 4.443 7.146.353.54 3.343 4.323 3.57 4.628.323.374 1.216 2.026 1.555 2.483.339.458 2.102 2.646 2.553 3.256.452.61.707 1.082 1.046 1.54.339.457.855.453.53.079-.323-.374-.455-1.126-.23-.821.31.29.732.733.89 1.136.156.403.117.668.342.973.226.305.659.315.929.871s.358 1.057.598 1.446c.24.388 5.259 6.399 7.16 8.391 2.347 2.086 14.708 15.077 18.75 19.45 4.041 4.373 17.262 16.869 20.538 19.826 3.193 2.971 8.237 7.168 8.969 7.901.815.718 1.085 1.274 2.048 1.363.964.089 2.336-.927 2.975-1.211.639-.285 2.016-.785 1.535-1.562-.481-.777-2.676-2.976-3.295-3.557-.619-.58-12.746-10.77-14.18-12.068-1.434-1.299-13.604-13.204-18.152-18.005-4.547-4.801-15.502-18.126-18.747-22.38-3.246-4.254-15.318-21-16.649-23.18-1.413-2.163-4.433-6.112-6.686-10.11a741.767 741.767 0 0 1-7.195-12.52c-2.41-4.402-4.548-9.712-5.515-11.782-1.035-1.972-3.831-9.062-5.022-12.902Z" fill="#FBB116"/></svg>