<svg width="61" height="198" fill="none" xmlns="http://www.w3.org/2000/svg"><g opacity=".57" fill="#C7E0FF"><path opacity=".75" d="M17.177 21.266c-2.367-1.114-2.909-1.121-5.498-1.913-2.482-.683-4.087-2.112-4.718-3.528-.632-1.416-.397-2.82.162-4.113.558-1.292 1.102-1.502 1.98-2.356.878-.855 2.094-2.789 2.86-3.428.659-.642 1.327-2.04 2.314-3.002.987-.962 2.415-2.46 3.706-1.793 1.29.667 1.72.997 1.919 2.3.308 1.303.939 2.72 1.905 3.382.966.662 3.311 3.508 4.172 3.953.86.444 3.221 2.1 4.074 3.086.854.985 2.468 1.765 3.43 2.752.962.987 5.136 4.724 6.096 5.82.96 1.095 3.417 3.726 4.165 4.494.638.875 3.314 3.292 3.739 3.948.424.655 2.026 2.409 2.666 3.175.532.657 1.923 1.975 2.772 3.286.85 1.31 3.306 3.941 3.726 4.922.42.98 1.81 2.406 1.91 3.057.099.651.625 1.85.83 2.718.097.868-.577 2.7-1.033 4.427-.457 1.835-1.789 4.308-2.13 5.603-.45 1.294-1.438 2.256-2.3 1.92-.862-.337-1.384-1.86-1.7-2.514-.316-.653-2.432-4.472-2.854-5.343-.422-.872-5.207-7.541-7.023-9.514-1.815-1.973-3.215-2.533-2.989-3.288.117-.648-.312-.979-1.066-1.314-.862-.336-1.395-.993-2.034-1.76-.641-.657-5.025-4.938-6.098-5.71-1.075-.664-3.645-2.864-4.716-3.744-1.072-.88-1.295-.342-1.824-1.324-.529-.981-1.938-.892-2.468-1.765-.75-.551-2.682-1.876-3.975-2.434Z"/><path opacity=".75" d="M47.447 99.743c.545-.318 1.212-1.608 1.668-3.335.442-.644.883-1.288 1.105-1.718.663-.966 1.908-5.065 2.137-6.037.227-.755.232-1.188-.09-1.409-.205-.87-.518-1.74-.828-2.935-.409-1.846-2.54-4.473-4.778-7.21-2.237-2.845-16.457-16.893-18.49-18.76-2.033-1.868-4.056-4.494-2.76-4.26 1.405.234 7.875 2.377 11.324 3.613 1.185.449 7.124 1.826 8.42 2.06 1.295.342 7.249.528 8.553.22 1.303-.308 1.743-.843 2.299-1.919.556-1.076 1.115-2.476 1.452-3.338.336-.862 1.566-3.878 1.907-5.065.339-1.078-.942-2.503-1.48-2.727 0 0-2.06.082-3.683.06-1.516-.02-6.6-.411-7.575-.424-.975-.013-3.898-.051-5.299-.61-1.4-.56-7.44-2.48-9.16-3.37-1.83-.89-8.403-3.467-10.014-4.463-1.72-.997-9.148-4.343-10.549-4.903-1.4-.56-2.057-.027-3.148.608-.983.637-1.549 2.471-2.432 3.759-.883 1.288-2.549 4.407-3.32 5.48 0 0-.884 1.288-.689 2.915.196 1.627.198 1.41 1.13 4.671.932 3.261 2.987 3.505 4.365 5.797 1.377 2.292 6.411 6.582 8.444 8.45C17.99 66.76 29.44 77.305 31.465 79.715c.533.656 1.493 1.752 2.667 3.067a67.913 67.913 0 0 0-3.56-1.022c-2.807-.686-6.69-1.928-8.527-2.169-1.948-.134-4.554.374-5.218 1.448-.665 1.182-1.891 3.874-3.104 5.482-1.212 1.609-2.66 4.622-2.678 6.03-.018 1.407 1.395.993 2.586 1.008 1.191.016 3.457.695 5.074 1.258 1.618.454 4.647.71 6.478 1.493 1.832.674 8.096 1.947 8.743 2.172.647.225 8.966 1.742 10.912 1.984.432.114.866.011 1.193-.093.319.438.869-.205 1.416-.63Z"/><path opacity=".75" d="M16.828 81.04c-.671 1.615-3.532 5.043-4.316 7.09-.677 2.049-2.877 4.62.32 8.56 3.198 3.94 10.286 8.473 14.231 13.182 3.837 4.707 8.418 10.506 11.404 14.011 0 0-4.643-1.035-8.105-1.297-3.462-.262-6.737 1.752-8.179 4.333-1.442 2.58-2.888 5.485-3.568 7.858-.68 2.266.358 5.745 1.737 7.929 1.38 2.075 4.378 4.714 5.44 6.352 1.17 1.64 8.872 8.888 8.206 10.071-.665 1.182-3.959 4.605-5.177 6.646-1.218 2.042-3.988 6.879-3.582 8.942.406 2.063 2.213 4.686 3.385 6.109 1.173 1.423 3.642 3.08 4.822 3.962 1.178.99 1.825 1.215 4.056 4.493 2.231 3.278 1.804 2.839 3.404 4.701 1.6 1.862 1.603 1.646 1.824 1.324.112-.324.22-.322.438-.428.218-.105.435-.102.54.116.214.219.535.548.745.984.211.436.633 1.308.637.983.005-.325-.102-.434.116-.54.218-.105.434-.102.538.224.104.326.315.762.643.55.328-.212.766-.64.766-.64s.215.111.111-.215c-.212-.328-.531-.765-.528-.982.003-.216.544-.209.65-.099.108.109.64.766.85 1.31.318.546.428.439.638.875.211.436.642.658.539.224-.103-.435-.419-1.089-.63-1.525-.212-.327-.423-.763-.53-.873-.105-.218-.212-.328-.103-.435.11-.106.653-.208.653-.208s.323.113.537.332c.214.22.211.436.316.654.214.22.434.006.545-.209.11-.107.336-.862.229-.972-.105-.218-.529-.981-.526-1.198.003-.217-5.07-9.813-5.919-11.124-.742-1.201-3.714-5.788-4.136-6.66-.422-.872-.84-1.96-.296-2.17.544-.209 4.067-4.603 4.954-6.216.78-1.614 3.546-6.126 3.895-7.963.242-1.946.395-5.301-1.204-7.271-1.599-1.971-11.735-13.583-11.735-13.583s8.328.867 9.194.879c.866.011 1.519-.197 2.288-1.053.77-.857 5.318-9.136 5.655-10.106.338-.97.82-4.646.505-5.408-.315-.762-3.363-7.842-5.385-10.576-2.022-2.733-7.033-8.755-7.992-9.959-.957-1.312-5.313-7.759-6.16-9.178-.74-1.417-10.71-9.129-11.876-11.093-1.274-1.966-2.236-2.954-3-2.53-.655.424-1.864 1.816-1.864 1.816Z"/></g></svg>