<svg width="457" height="337" fill="none" xmlns="http://www.w3.org/2000/svg"><path d="M329.208 258.748H220.14v-96.6h103.165c10.739 0 19.445 9.47 19.445 21.152l-13.54 75.45-.002-.002Z" fill="#BF9A76"/><path opacity=".75" d="M247.288 41.769c2.649.37 5.731 1.65 4.783 2.135-.889.724.583 2.396 1.653 4.167 1.071 1.77-1.233 1.061-.825 2.739.408 1.677 1.303 2.728.472 3.692-.832.963.005 1.775.355 3.213.408 1.677-1.954.729-2.435 3.13-.371 1.106.466 1.917 1.621 3.16.953 1.29.842 2.586-1.027 2.787-1.87.201-3.85 1.698-6.869 2.433-3.019.734-24.182 4.868-29.499 6.67-5.317 1.8-14.653 6.357-16.951 7.424-2.442 1.355-27.257 15.007-42.127 25.731-14.87 10.725-37.332 31.419-45.958 42.4-8.625 10.982-27.04 37.798-33.669 52.608-6.57 15.05-12.69 26.691-14.086 40.229-1.337 13.777-1.582 36.425.77 43.467 0 0-1.7-.856-4.28-7.081-2.58-6.224-8.34-26.396-9.503-39.057-1.13-11.654 1.577-38.201 11.641-58.162 10.065-19.961 19.298-38.959 34.749-56.931 15.451-17.973 24.193-28.475 43.972-42.678 19.72-14.443 22.823-15.706 24.2-17.056 1.377-1.35 2.124-1.786 3.733-2.177 1.61-.392 2.325-1.835 3.617-2.657 1.351-.582 17.174-10.016 35.111-15.142 18.139-5.175 33.932-5.972 40.552-5.044Z" fill="#C7E0FF"/><path opacity=".75" d="M370.624 111.505s-12.108 19.443-19.961 29.222c-7.651 9.729-32.055 44.347-64.486 60.867-32.431 16.52-58.666 26.964-103.238 34.763-44.571 7.8-67.643-.292-77.019-8.163-9.375-7.871-21.783-28.202-25.095-38.31 0 0 3.882 26.466 5.605 34.423 1.78 8.196 7.897 31.58 28.157 42.133 20.058 10.602 53.144 9.912 79.915 5.175 26.771-4.737 67.788-17.509 87.371-29.888 19.583-12.379 49.979-35.51 57.149-42.839 7.111-7.567 9.976-11.564 9.028-11.079-.948.484-6.91 7.518-8.287 8.869-1.377 1.35-10.929 10.273-14.488 13.169-3.013 2.51-6.805 4.448-7.551 4.883 1.149-.533 8.123-6.037 10.59-8.16 2.41-2.363 5.793-5.978 6.482-6.653.688-.675.656-1.683 1.604-2.167.948-.485 1.351-.583 1.838-1.209.429-.866 2.526-1.883 3.357-2.847.831-.964 1.059-1.781 1.345-2.358.286-.577 1.175-1.301 1.403-2.118.429-.866.572-1.154 1.52-1.639 1.006-.244 2.097-1.017 2.324-1.834.228-.817.916-1.492 1.319-1.59.402-.098 2.012-.49 2.441-1.355.286-.578 8.34-10.405 10.802-14.304 2.663-3.947 4.092-6.833 4.521-7.699.429-.865.397-1.873.8-1.971.545-.386.831-.963.773-1.203-.117-.479.111-1.296.656-1.683.546-.386 1.202-2.069 2.197-5.864 1.196-3.844 1.482-4.421 1.512-13.058.089-8.397-.502-22.213-2.584-25.513Zm-26.948 48.688c-.63.915-1.319 1.59-1.949 2.505-4.585 5.684-16.166 19.415-25.464 26.754-12.169 9.559-30.111 22.554-35.941 25.749-5.831 3.195-6.636 3.391-7.96 3.206-1.324-.186-.805.196-3.564 1.121s-5.428 3.097-6.577 3.631c-1.149.533-12.959 5.437-26.268 9.436-13.509 4.049-35.191 7.802-35.191 7.802s34.328-7.845 49.04-13.963c14.913-6.166 20.198-8.975 22.639-10.331 2.442-1.355 19.939-9.166 35.978-22.967 14.663-12.45 26.17-22.103 33.107-30.389 1.461-1.879 2.293-2.842 2.15-2.554Z" fill="#C7E0FF"/><path opacity=".75" d="M420.596 91.732c-1.854-4.117-4.091-10.68-8.106-15.794-4.016-5.114-17.719-16.754-26.305-20.503-8.586-3.748-27.504-8.79-42.588-11.21-15.227-2.133-24.173-1.226-29.034-1.058-4.862.167-10.789.34-13.781.307-2.934.206-19.844 2.544-25.856 3.245-5.809.653-15.3 1.947-20.072 3.361-4.57 1.366-21.994 5.098-24.869 5.544-2.876.446-10.439 1.778-14.406 2.997-3.966 1.22-11.121 4.229-15.029 5.687-3.908 1.459-24.716 8.806-30.027 12.382-5.111 3.528-7.668 4.404-10.83 5.427-2.96.974-5.454 3.865-6.259 4.061-.805.196-14.648 8.133-18.726 10.648-4.077 2.515-17.189 14.334-24.644 22.239-7.514 7.666-14.62 17.009-18.713 23.842-4.093 6.834-7.243 11.407-9.618 24.422-2.233 12.726-1.601 21.455-.074 31.236 1.527 9.78 2.683 20.666 5.243 29.434 2.56 8.768 5.6 15.135 6.814 16.616 0 0-5.834-43.25 15.531-74.59 21.163-31.291 63.978-57.698 123.154-78.188 59.176-20.489 126.952-14.391 142.71-8.327 0 0 1.091-.773-3.978-2.331-5.27-1.51-11.89-2.437-11.89-2.437s4.485-.838 15.285 2.372c10.799 3.21 17.717 7.11 22.992 10.395 5.017 3.094 11.103 7.959 14.605 14.467 3.443 6.269 7.301 15.99 9.166 23.658 1.866 7.667 1.883 12.993 2.195 11.648.312-1.345 1.883-14.163 1.097-26.155-.987-11.942-2.133-19.277-3.987-23.395Zm-80.684-38.997c-7.399-1.5-12.806-.945-15.137-.886-2.33.06-3.453-.175-5.725.124-2.272.3.169-1.056-2.362-.948-2.532.109-5.752.892-9.692 1.343-3.94.451-7.568-.443-12.197.684-4.427 1.077-12.944 1.118-18.436 2.2-5.492 1.083-11.185 2.215-15.671 3.052-4.485.838-8.14.712-12.366 1.74-4.025.98-9.575 1.822-5.725.124 1.896-.969 9.485-3.069 13.309-4 3.622-.88 12.048-2.17 15.125-2.664 3.077-.495 40.293-5.235 46.394-4.69 6.101.546 26.878 1.836 35.543 3.281 8.464 1.494 14.687 4.294 14.687 4.294s-20.348-2.155-27.747-3.654Z" fill="#C7E0FF"/><path opacity=".75" d="M419.408 89.483c-.752-1.34-4.862 27.325-8.43 36.315-3.568 8.99-21.009 34.553-31.277 44.919-10.267 10.366-43.676 36.007-46.748 38.277-2.87 2.221-5.258 2.041-7.239 3.538-1.98 1.497-.148-1.486-2.733.158-2.584 1.644-22.686 13.641-26.822 15.917-4.136 2.275-19.446 10.315-25.192 12.982-5.746 2.667-48.848 20.007-65.493 24.311-16.847 4.352-46.78 10.113-58.4 11.417-11.619 1.304-27.328 1.573-39.038 1.63-11.71.058-22.515-4.927-29.257-8.109-6.685-2.942-10.96-8.247-14.774-13.41-3.554-4.973-11.888-19.95-14.162-29.295 0 0-1.841 9.077.995 23.361 2.836 14.285 10.165 39.151 21.124 47.398 10.96 8.247 32.941 17.112 60.295 14.771 27.153-2.292 56.768-8.483 61.598-9.658 4.83-1.175 19.664-5.038 22.683-5.773 3.019-.734 4.973-1.463 7.329-2.291 2.357-.827 1.806-2.215.599-1.922-1.208.294-.747.436-2.5 1.116-1.753.68-2.441 1.356-3.564 1.121-1.123-.234-1.727-.087-2.876.446-1.149.533-1.811.441-3.421.832-1.61.392-1.208.294-2.961.975-1.752.68-2.706-.611-2.706-.611s1.292-.822 2.902-1.214c1.61-.391 9.66-2.35 11.212-2.981 1.35-.583 3.362-1.072 4.83-1.176 1.467-.103 3.018-.734 4.226-1.028 1.207-.294.598-1.922 1.805-2.216 1.208-.294.721.333 2.331-.059 1.61-.392 3.447-1.6 4.856-1.943 1.409-.343 2.838-3.229 4.851-3.718 2.012-.49 3.045-1.503 3.739-.403.694 1.101 1.239.714 1.064-.005-.175-.719-.583-2.396.768-2.978 1.35-.583 2.96-.974 4.655-1.894 1.694-.92 5.687-2.907 7.096-3.25 1.409-.343 2.791.082 2.791.082s-4.713 1.655-6.609 2.624c-1.896.969-4.682 2.662-3.072 2.27l4.83-1.175c1.208-.294 1.727.087 3.22-.784 1.494-.871 1.922-1.736 3.877-2.466 1.954-.729 2.181-1.546 4.194-2.035l3.622-.882c.805-.196 2.961-.974 4.311-1.556 1.351-.583 1.26-1.83 2.611-2.412 1.35-.582 5.46-2.09 6.81-2.672 1.351-.583 3.389-1.84 4.681-2.662 1.293-.822 3.533-2.129 5.084-2.76 1.552-.631 1.123.234 3.337-.304 2.214-.539 3.051.273 6.064-2.237 3.013-2.51 2.351-2.602 3.929-4.002 1.578-1.399 4.967-3.239 7.265-4.305 2.299-1.067 3.13-2.031 4.337-2.325 1.208-.294 2.013-.489 1.578-1.399-.434-.909.54-2.162 1.377-1.35.837.811 2.188.229 2.188.229 1.98-1.497 4.045-3.522 5.253-3.816 1.207-.294 1.896-.969 4.077-2.515 2.182-1.546 2.182-1.546 3.533-2.128 1.35-.583.507-3.17 2.202-4.09 1.695-.92 4.941-2.471 6.72-3.919s3.246-1.551 5.026-2.999c1.779-1.448 1.869-.201-2.955 2.749s-4.792 3.958-3.04 3.278c1.753-.681 3.76-2.946 6.403-4.35 2.642-1.404 3.331-2.079 3.961-2.994.63-.915-.408-1.678 1.228-2.837 1.636-1.16 4.448-3.62 6.084-4.78 1.637-1.159 4.74-2.422 6.117-3.772 1.377-1.351 3.474-2.368 4.649-3.67 1.176-1.301 2.897-2.989 2.092-2.793-.805.196-3.072 2.27-5.052 3.767-1.981 1.498-3.649 1.65-3.649 1.65s2.065-2.026 4.104-3.283c2.039-1.258 2.409-2.363 4.046-3.523 1.636-1.159 2.552-2.651 1.948-2.504-.603.147-3.506 1.361-2.129.01 1.377-1.35 3.215-2.558 5.338-4.344 2.123-1.786 4.183-5.586 4.183-5.586s.694 1.1-.365 2.88c-1.059 1.781-1.832 2.984.006 1.776 1.837-1.209 1.006-.245 2.87-2.222 1.864-1.976 4.819-4.725 7.371-7.377 2.552-2.651 3.156-2.798 4.072-4.29.916-1.492 1.435-1.11.916-1.492-.519-.381-1.441-.664-1.441-.664 1.922-1.737 2.176-3.322 3.611-4.432 1.435-1.111 2.917-5.532 4.236-7.122 1.318-1.59 3.728-3.953 4.442-5.396.715-1.443 1.488-2.646 2.69-4.715s2.912-7.307 3.568-8.99c.657-1.682 1.339-4.133 1.535-5.957.196-1.824 1.704-7.014 2.026-14.452 2.276-8.168 1.535-33.114-3.466-40.527Zm-48.966 100.999c-7.689 6.947-18.449 16.164-20.975 18.048-2.325 1.834-12.35 7.065-16.597 10.637-4.305 3.331-17.173 10.016-21.595 12.868-4.422 2.853-31.594 17.332-40.56 20.782-8.966 3.451-34.253 13.411-39.284 14.635-4.83 1.175-8.511 1.817-10.264 2.497-1.753.68-4.396 2.085-7.012 2.721-2.616.637-3.447 1.601-5.46 2.09l-6.037 1.469c-2.214.539-62.249 13.116-73.276 10.723-1.785-.327 36.294-5.024 39.371-5.519 3.077-.495 27.777-4.982 35.276-8.329 7.557-3.108 29.954-8.304 35.011-10.295 5.259-2.041 39.909-17.325 43.675-18.495 3.765-1.17 19.758-11.66 25.186-14.757 5.227-3.049 26.626-14.093 33.204-17.724 6.577-3.63 15.325-12.358 21.266-16.849 5.74-4.442 25.158-23.634 28.828-27.826.402-.098-12.925 16.089-20.757 23.324Z" fill="#C7E0FF"/><g clip-path="url(#a)"><path d="M220.2 39.179c6.569-13.224 20.25-21.221 34.603-23.048 7.12-.909 15.821-1.075 22.801.822 11.252 3.068 21.858 9.885 26.969 20.652 2.673 5.638 3.966 11.756 5.774 17.69 3.241 10.637 6.849 21.553 7.216 32.767.131 3.976-.026 8.818-2.699 12.043-.21.254-.586.184-.804 0a27.12 27.12 0 0 0-.55-.463c-.367 1.04-.883 2.002-1.617 2.806-1.1 1.197-1.773 1.014-3.179 1.022-2.018.018-3.451.315-5.198 1.329-.804.463-1.59.926-2.446 1.276-4.43 1.835-8.824-.306-13.428-.044-.69.035-1.38.079-2.062.096-4.341 2.413-10.815 2.343-15.244 2.509-7.993.297-15.996-.271-23.989.323-3.669.271-6.709-.114-10.265-.97-3.556-.848-7.434-1.381-10.842-2.718a7.255 7.255 0 0 1-2.612-1.713c-.838 2.36-2.131 5.27-4.333 3.828-1.476-.962-2.149-3.365-2.752-4.93-.926-2.421-1.537-4.946-1.895-7.507-.673-4.781 1.529-45.667 6.552-55.77Z" fill="#3F4B69"/><path d="M298.641 23.5a35.53 35.53 0 0 1 3.843-5.219c1.092-1.223 2.342-2.43 3.94-2.814 1.914-.463 2.901 1.136 4.333 2.01 2.499 1.538 7.278 2.509 7.461 6.232a3.53 3.53 0 0 1-1.564 3.068c-.603.393-1.398.681-1.59 1.38-.227.813.551 1.53.848 2.325.437 1.163-.227 2.517-1.25 3.225-1.022.708-2.297.91-3.538.997a27.15 27.15 0 0 1-11.68-1.713c-.969-.376-1.974-.84-2.568-1.696-1.101-1.582-.402-3.758.472-5.48.401-.786.829-1.564 1.293-2.316ZM206.318 25.466c.341-1.102 1.136-2.028 2.079-2.701 1.04-.752 2.263-1.215 3.477-1.634.454-.158.926-.324 1.241-.682.218-.254.323-.577.471-.874.638-1.355 2.018-2.325 3.503-2.482 2.779-.28 4.202 2.01 5.574 4.003 1.642 2.394 3.215 4.842 4.473 7.455.69 1.442 1.293 3.129.673 4.606-.647 1.547-2.385 2.298-3.984 2.797-3.582 1.1-7.373 1.686-11.095 1.25-1.144-.132-2.315-.385-3.232-1.084-.917-.7-1.485-1.958-1.092-3.033.306-.83 1.144-1.565.891-2.412-.227-.76-1.153-.997-1.817-1.434-1.075-.708-1.52-2.15-1.258-3.4.026-.122.061-.253.096-.367v-.008Z" fill="#3F4B69"/><path d="M299.043 29.093c1.049.874 1.791 2.019 2.21 3.312.228.7-.873.997-1.092.306-.358-1.118-1.022-2.062-1.921-2.814-.56-.472.244-1.267.803-.804Z" fill="#283556"/><path d="m184.704 147.826-27.605-4.265s-5.102-11.712-3.093-17.576c2.009-5.865 9.645-6.739 18.765-6.197 9.129.542 19.08.227 19.08.227l-7.147 27.811ZM341.561 150.806l19.159 13.923s.244 13.075-4.089 17.498c-4.342 4.422-11.61 1.923-19.604-2.509-7.993-4.431-17.114-8.442-17.114-8.442l21.657-20.461-.009-.009Z" fill="#FDA67D"/><path d="M337.027 179.71s14.205-7.84 14.275-11.039c.079-3.758-.585-1.687 4.744-14.176 2.865-6.721 13.348-29.061 14.196-33.676.044-.244 14.598 3.837 14.598 3.837a729.234 729.234 0 0 1-3.171 22.576c-1.721 11.047-2.7 23.878-9.357 33.264-8.465 11.922-25.483 6.651-35.285-.778v-.008Z" fill="#FDA67D"/><path d="M204.151 172.84c.009.385.035.787.07 1.171.035.638.07 1.268.114 1.906.603 8.941 1.817 18.118 1.817 23.143 0 7.945-1.904 20.434-1.904 20.434s51.158 7.56 67.564 8.697c16.398 1.136 22.557 3.032 25.527 0 2.14-2.177 5.967-10.672 8.823-22.043a126.34 126.34 0 0 0 1.59-7.236 136.69 136.69 0 0 0 1.136-7.054c.367-2.761.882-5.89 1.511-9.247.079-.41.158-.821.236-1.241.953-5.043 2.114-10.496 3.276-15.845l.236-1.128c1.302-6.013 2.595-11.825 3.573-16.641.088-.419.166-.83.254-1.223 1.144-5.813 1.782-9.964 1.336-10.952-.14-.297-.568-.655-1.24-1.066-1.826-1.127-5.434-2.648-9.68-4.23-.611-.236-1.249-.463-1.887-.691a263.793 263.793 0 0 0-4.875-1.748 752.901 752.901 0 0 0-6.56-2.237 630.478 630.478 0 0 0-12.187-3.907s-9.994-1.739-23.046-1.739c-11.016 0-24.155-.988-36.456-.114a97.27 97.27 0 0 0-6.674.691c-.148.026-.367.279-.638.769-.166.306-.367.69-.576 1.154-1.372 2.971-3.538 9.046-5.617 15.723-.158.507-.315 1.031-.481 1.556-.114.349-.218.716-.332 1.066-.9 2.971-1.747 6.004-2.481 8.88a137.62 137.62 0 0 0-1.319 5.558c-.087.394-.166.77-.236 1.137-.384 1.896-.673 3.583-.804 5.016-.34 3.348-.305 7.307-.087 11.432l.017.009Z" fill="#4A8F87"/><path d="M249.501 125.775c0 .227.026.446.052.655.28 1.74 1.678 3.156 3.486 3.383l8.133 1.075a39.858 39.858 0 0 0 18.337-1.905l.166-.062a4.09 4.09 0 0 0 2.7-3.408L284 110.838l.183-2.307.882-11.196-6.263 2.045-28.751 9.387-.166 5.838-.139 4.72-.14 2.875-.053 1.792-.043 1.512c0 .087-.009.166-.009.262v.009Z" fill="#FDA67D"/><path d="M249.501 125.775c0 .227.026.446.052.656 3.329-.114 7.863-.726 12.231-2.054 15.314-4.685 22.285-14.71 22.285-14.71s-2.577-8.285-2.577-9.422c0-.393-1.074-.681-2.691-.847l-28.75 9.386-.166 5.839-.14 4.719-.139 2.876-.053 1.792-.044 1.512c0 .087-.008.166-.008.262v-.009Z" fill="#D28462"/><path d="M226.202 85.676c.262 2.893.725 5.768 1.502 8.617 2.411 8.863 7.766 17.07 16.214 21.134 7.566 3.644 16.433 3.898 24.487 1.879 5.67-1.425 11.209-3.872 15.69-7.648 8.151-6.861 11.191-16.947 12.03-20.373 1.896-7.796 2.769-15.941 2.525-23.965-.158-4.973-.594-10.435-2.874-14.954-5.565-11.039-34.971-15.426-47.682-11.773-12.72 3.662-19.315 7.394-20.023 12.638-.961 7.115-2.167 15.479-2.201 22.628-.018 3.968-.009 7.901.349 11.817h-.017Z" fill="#FDA67D"/><path d="M238.31 77.967a6.769 6.769 0 0 1-.332-2.403c.043-.874.297-1.792.961-2.351 2.472-2.063 4.184 3.294 4.368 4.876.07.63.07 1.276-.149 1.87-.218.595-.699 1.12-1.31 1.268-.909.219-1.8-.42-2.385-1.136a6.726 6.726 0 0 1-1.153-2.115v-.009ZM273.962 78.614a6.34 6.34 0 0 1 .061-2.893c.183-.7.506-1.39 1.101-1.8 2.699-1.853 3.791 4.011 3.756 5.576-.017.585-.096 1.18-.358 1.695-.262.516-.743.953-1.311 1.05-.882.148-1.703-.517-2.219-1.25a6.4 6.4 0 0 1-1.03-2.387v.009Z" fill="#000"/><path d="M287.695 72.199s8.377-6.852 15.331-3.348c6.954 3.514 3.687 16.956-1.642 21.667-4.525 4.003-10.981 5.585-10.981 5.585l-2.708-23.904Z" fill="#FDA67D"/><path d="M254.69 80.012c.227-.69 1.319-.393 1.092.306-.708 2.185-4.534 7.412-.332 8.032.716.105.41 1.198-.306 1.093-1.538-.228-2.673-1.39-2.848-2.946-.262-2.272 1.721-4.413 2.385-6.476l.009-.009Z" fill="#D28462"/><path d="M247.981 93.323s4.77 1.373 9.863 1.285c5.093-.087 9.452-1.704 9.452-1.704s-3.354 5.454-9.644 6.092c-6.29.646-9.662-5.673-9.662-5.673h-.009Z" fill="#fff"/><path d="M271.637 66.317c.821-1.04 2.874-1.137 3.958-1.084 2.027.114 4.228.41 6.071 1.424 1.075.595 3.853 2.771 1.022 2.885a49.24 49.24 0 0 1-8.64-.42c-1.039-.148-2.935-.585-2.743-2.019.044-.306.158-.568.332-.786ZM245.517 67.094c.192 1.434-1.703 1.87-2.743 2.02a47.603 47.603 0 0 1-8.64.419c-2.332-.096-.515-1.774.446-2.465 1.948-1.398 4.289-1.713 6.648-1.844 1.083-.061 3.136.044 3.957 1.084.175.218.289.48.332.786Z" fill="#3F4B69"/><path d="M293.12 87.249c1.206-.979 2.455-2.036 3.092-3.487.9-2.046.035-3.811-.934-5.638-.341-.646.637-1.215.978-.576.944 1.774 1.87 3.688 1.337 5.75-.524 2.02-2.114 3.488-3.678 4.755-.559.454-1.372-.34-.804-.804h.009Z" fill="#D28462"/><path d="M241.14 57.376c-.14.13-.28.253-.437.367-1.782 1.258-4.141-.21-6.185.183-1.747.341-3.276-.13-4.979.053-1.861.2-3.303 1.232-5.286 1.18-.043 0-.087-.01-.131-.01a8.996 8.996 0 0 1-1.363-3.076c-1.563-6.922 4.63-15.443 9.872-19.306 6.517-4.807 14.764-4.93 22.592-4.274.227-.227.681-.236.908.078 1.232.114 2.455.245 3.652.376.716.079.725 1.215 0 1.136a171.958 171.958 0 0 0-3.119-.323c.14.323.271.656.419.97.227-.35.856-.306 1.005.149.708-.035 1.424-.035 2.14-.525.822-.576 1.424-1.433 2.237-2.027 2.822-2.09 6.482-2.29 9.819-1.678 8.081 1.468 16.974 5.75 22.993 11.327 5.347 4.955 11.017 12.996 8.868 20.687-.743 2.657-2.342 5.314-5.356 5.367-2.725.043-6.167-1.137-7.574-3.61-.419-.743-.489-1.617-.987-2.307-.655-.91-1.773-1.128-2.769-1.644a24.864 24.864 0 0 1-2.464-1.45c.332.813.655 1.625.944 2.464.174.516-.42.83-.83.638-4.464-2.01-8.422-4.868-12.213-7.944.078.14.157.28.227.428.437.839 1.721 2.56 1.127 3.627-1.302 2.351-5.198-1.285-6.273-2.124-5.198-4.064-9.234-9.386-11.82-15.39-1.668 2.28-2.472 5.016-3.215 7.716-.698 2.544-.961 5.157-1.59 7.7-.331 1.346-.856 2.334-2.201 2.745-.393.122-.673-.201-.716-.55a28.6 28.6 0 0 1-.053-7.176c-.454 1.049-.952 2.08-1.965 2.71-.778.48-1.643.401-2.464.724-1.31.507-1.843 1.862-2.796 2.789h-.017Z" fill="#3F4B69"/><path d="M261.6 23.936c.411-.603 1.389-.035.979.577a26.828 26.828 0 0 0-4.447 11.423c-.105.717-1.197.411-1.092-.306a27.675 27.675 0 0 1 4.56-11.694ZM262.526 35.954c.559 5.847 4.018 10.601 8.36 14.333.559.481-.253 1.276-.804.805-4.604-3.951-8.107-8.977-8.692-15.138-.07-.726 1.066-.726 1.136 0ZM272.94 35.613c1.214 3.312 2.463 6.756 4.892 9.404 1.214 1.32 2.682 2.43 4.394 3.024 1.162.411 2.289.463 3.311 1.189 1.817 1.285 3.145 3.627 4.7 5.218 2.315 2.368 4.91 4.265 8.168 5.051.708.175.411 1.268-.306 1.093-2.716-.664-5.032-2.028-7.128-3.872-2.804-2.473-4.674-5.996-8.221-7.35-6.246-2.378-8.701-7.438-10.911-13.46-.254-.69.847-.979 1.092-.306l.009.009ZM246.644 50.209a40.263 40.263 0 0 1 7.601-14.552c.463-.568 1.258.244.804.804-3.399 4.177-5.827 8.87-7.304 14.054-.201.699-1.293.402-1.092-.306h-.009ZM222.323 34.949a16.666 16.666 0 0 1 4.534-4.755c.594-.42 1.162.56.576.979a15.378 15.378 0 0 0-4.123 4.344c-.393.612-1.372.043-.979-.577l-.008.009ZM301.839 25.955a31.998 31.998 0 0 1 8.168-7.848c.611-.411 1.179.576.576.979a30.369 30.369 0 0 0-7.757 7.446c-.428.585-1.407.017-.979-.577h-.008Z" fill="#283556"/><path d="M305.726 23.884a33.096 33.096 0 0 1 7.19-2.972c.707-.2 1.004.9.306 1.093a31.885 31.885 0 0 0-6.919 2.858c-.638.358-1.215-.621-.577-.98ZM215.072 22.677c3.224 1.207 5.993 3.173 8.142 5.874.454.568-.349 1.372-.804.804-2.018-2.544-4.595-4.449-7.644-5.585-.681-.253-.384-1.346.306-1.093Z" fill="#283556"/><path d="M208.406 24.338c3.774-.122 7.373.603 10.815 2.142.664.297.087 1.276-.577.978-3.258-1.45-6.683-2.097-10.238-1.984-.734.027-.725-1.11 0-1.136ZM224.778 54.841a79.795 79.795 0 0 1 10.963-24.48c.402-.604 1.389-.036.979.576a78.864 78.864 0 0 0-10.85 24.21c-.184.708-1.276.41-1.092-.306ZM220.419 59.22c1.153-4.816 2.14-10.008 4.901-14.194.402-.603 1.38-.035.978.577-2.691 4.073-3.669 9.238-4.787 13.923-.166.708-1.267.41-1.092-.306ZM311.78 72.146c2.621 7.691 2.499 15.776 2.263 23.8-.017.725-1.153.733-1.136 0 .236-7.928.367-15.899-2.219-23.503-.236-.69.856-.987 1.092-.306v.01ZM308.923 99.599a44.518 44.518 0 0 0 1.581-12.927c-.017-.734 1.119-.734 1.136 0a45.319 45.319 0 0 1-1.616 13.224c-.192.708-1.284.402-1.092-.306l-.009.009ZM219.763 74.392c.078-.716 1.214-.725 1.135 0-1.013 9.09-1.965 18.24-.401 27.322.122.716-.97 1.022-1.092.306-1.582-9.195-.673-18.424.358-27.628Z" fill="#283556"/><path d="M285.947 184.097c0 .376.026.761.035 1.154.14 3.111.454 6.546 1.022 10.348.044.376.105.752.166 1.136.489 3.12 1.136 6.468 1.983 10.069 4.988 21.29 11.313 10.741 17.009-.673.953-1.914 1.896-3.872 2.805-5.69.183-.367.366-.717.532-1.058 2.281-4.457 4.368-7.953 6.124-8.102 6.736-.568 6.238-2.455 9.837-2.08 3.582.376 7.181-1.328 9.077-6.616.044-.122.087-.253.149-.393.113-.315.253-.673.41-1.066 1.179-2.972 3.442-8.12 5.652-13.084.158-.35.315-.708.481-1.058 2.891-6.494 5.608-12.393 5.608-12.393s-5.136-3.986-11.898-9.168c-.489-.376-.987-.761-1.494-1.145-.62-.481-1.267-.962-1.913-1.469-5.626-4.291-10.344-6.852-13.436-8.294-2.481-1.154-3.923-1.582-3.923-1.582l-14.86 17.183-.865.979-7.757 8.976s-1.066 1.337-2.193 4.414c-.14.349-.262.725-.393 1.136-1.241 3.828-2.403 9.806-2.132 18.467l-.026.009ZM180.04 119.596s.428 7.909.926 16.78c.026.368.044.735.07 1.11.227 4.283.481 8.706.69 12.507.035.394.053.796.07 1.172.236 3.994.42 7.175.507 8.539.376 5.48 5.958 6.336 11.628 8.801 1.86.804 3.442 2.089 5.058 3.461h.008c.568.481 1.127.953 1.713 1.433h.008c1.101.909 2.281 1.783 3.6 2.517 2.114 1.18 4.621 2.002 7.871 2.002 2.464 0 4.333-.271 5.748-.734h.009a6.87 6.87 0 0 0 1.372-.595h.008a5.98 5.98 0 0 0 1.782-1.433c1.145-1.407 1.337-3.164 1.372-4.851.009-.314.009-.935.035-1.791 0-.315.009-.656.009-1.032.026-1.407.052-3.242.087-5.366.009-.385.026-.787.035-1.18.079-4.781.183-10.794.297-16.746 0-.454.009-.9.026-1.337.114-6.529.219-12.848.297-17.209.009-.42.009-.831.026-1.215.044-2.841.079-4.571.079-4.571s-4.735-.07-10.885-.149h-.009c-1.057-.026-2.14-.035-3.267-.043-.979-.009-1.974-.027-2.97-.035-2.289-.035-4.63-.062-6.876-.079-6.29-.052-11.854-.105-13.864-.052l-5.477.113.017-.017Z" fill="#4A8F87"/><path d="M209.236 119.657c.332.149.646.297.978.446 1.774.804 3.53 1.599 5.303 2.368a185.146 185.146 0 0 0 7.784 3.164c5.434 2.063 10.972 3.802 16.773 5.052 10.588 2.29 21.5 4.282 32.306 5.165 5.277.429 10.597.455 15.847-.332 5.312-.795 10.318-2.648 15.463-4.09a64.682 64.682 0 0 1 4.718-1.154c-.612-.236-1.25-.463-1.887-.69-1.739.384-3.46.839-5.172 1.354-5.46 1.643-10.789 3.339-16.511 3.846-5.609.498-11.243.157-16.826-.507-11.322-1.355-22.888-3.26-33.922-6.179-3.634-.962-7.216-2.238-10.772-3.68a199.913 199.913 0 0 1-7.224-3.111c-1.188-.533-2.385-1.075-3.573-1.608h-.009c-1.057-.027-2.14-.035-3.267-.044h-.009ZM180.975 136.377c.026.367.043.734.07 1.11a193.908 193.908 0 0 1 23.342 2.464c1.582.263 3.145.56 4.709.866 4.683.944 9.304 2.089 13.89 3.373 5.618 1.547 11.165 3.278 16.774 5.043 5.809 1.818 11.549 2.841 17.647 2.622 6.15-.227 12.221-1.293 18.371-1.477 7.583-.218 15.149.787 22.671.726 4.472-.009 8.928-.411 13.357-1.661 2.009-.568 3.984-1.145 5.949-1.678 4.106-1.11 8.195-2.028 12.58-2.255 1.546-.079 3.075-.105 4.622-.079-.49-.375-.988-.76-1.494-1.145a69.787 69.787 0 0 0-5.731.271c-3.355.306-6.561 1.102-9.723 1.984-2.971.831-5.923 1.748-8.972 2.456-3.215.734-6.456 1.04-9.715 1.137-9.26.253-18.643-1.373-27.85-.639-6.465.525-12.921 1.609-19.421 1.172-6.176-.429-11.994-2.535-17.821-4.458a201.237 201.237 0 0 0-11.191-3.347 200.653 200.653 0 0 0-13.585-3.103 196.728 196.728 0 0 0-28.444-3.374l-.035-.008ZM181.735 149.994c.035.393.052.795.07 1.171 7.827 1.407 15.611 3.041 23.246 5.217 2.21.638 4.412 1.303 6.596 2.028 3.66 1.224 7.303 2.552 11.007 3.688 2.787.848 5.609 1.591 8.483 2.089 6.561 1.137 13.218 1.18 19.848 1.224 12.371.07 24.724.14 37.103.201 1.852.009 3.712.026 5.556.035 6.674.035 13.479-.166 20.276-.14 7.828.044 15.655.385 23.255 1.783 1.206.219 2.394.463 3.574.734.157-.349.314-.708.48-1.057a81.844 81.844 0 0 0-7.303-1.355c-6.509-.909-13.131-1.18-19.761-1.241-7.417-.07-14.878.157-22.207.113-1.154-.008-2.315-.008-3.469-.026-13.209-.07-26.426-.113-39.644-.227-7.434-.061-14.86-.332-22.093-2.176a85.212 85.212 0 0 1-4.063-1.154c-5.154-1.564-10.186-3.531-15.349-5.078-.681-.201-1.363-.411-2.044-.603-7.749-2.211-15.62-3.846-23.553-5.253l-.008.027ZM199.015 171.975c.567.463 1.127.944 1.712 1.416h.009c1.17.192 2.323.393 3.485.611 2.962.542 5.915 1.172 8.85 1.871 1.642.393 3.267.83 4.892 1.293h.009c4.525 1.259 9.007 2.666 13.567 3.829 5.923 1.512 11.811 2.062 17.918 2.115 12.221.113 24.338 1.861 36.525 2.141.961.026 1.931.035 2.892.035 6.29.009 12.353-.795 18.494-2.063 1.013-.201 2.018-.419 3.031-.612 5.469-1.101 10.929-1.966 16.581-1.494 2.595.218 5.163.612 7.714 1.092.114-.314.254-.673.411-1.066-4.324-.83-8.666-1.416-13.104-1.293-3.835.104-7.609.769-11.357 1.529-2.245.463-4.482.961-6.727 1.381-5.958 1.145-11.933 1.486-17.961 1.337-.848-.026-1.704-.061-2.569-.087-6.639-.315-13.243-1.075-19.857-1.565-6.456-.463-12.903-.262-19.341-.594-8.474-.428-16.642-2.902-24.828-5.27h-.009c-4.438-1.285-8.876-2.535-13.357-3.409-.612-.113-1.223-.236-1.835-.341a152.466 152.466 0 0 0-5.137-.865l-.008.009ZM245.717 196.796c13.812 1.11 27.641-.646 41.461-.052.804.035 1.625.079 2.429.14 6.185.384 12.03 1.66 17.926 3.199.481.122.961.253 1.442.376.183-.368.367-.717.533-1.058-.463-.122-.917-.262-1.372-.385-.122-.035-.253-.07-.375-.104-6.317-1.748-12.659-2.885-19.228-3.234-.507-.026-1.014-.061-1.521-.07-13.759-.568-27.536 1.171-41.286.061-.734-.061-.725 1.075 0 1.136l-.009-.009Z" fill="#fff"/><path d="M232.955 251.832c-.026-3.618.087-7.263.332-10.916.026-.393.052-.787.087-1.18a46.18 46.18 0 0 1 .14-1.914c.524-6.31 1.319-12.612 2.158-18.913.113-.769.218-1.53.314-2.308.603-4.396.498-9.448 6.037-10.968 7.417-2.028 16.03-2.238 23.701-1.932 7.714.306 15.952 1.25 23.211 3.732 6.107 2.089 8.955 6.223 10.554 11.764a127.5 127.5 0 0 0 .908 3.033c2.14 6.939 4.15 11.825 5.172 17.969.052.376.113.761.166 1.154.157 1.136.297 2.316.376 3.575.026.157.034.332.034.498a57.47 57.47 0 0 1 .123 3.575c.026 6.083.926 9.535 1.432 15.609.446 5.279-1.397 17.244-1.013 22.637.253 3.531.804 6.852 1.887 10.252.952 2.998-4.66-38.69-4.171-35.605 1.057 6.756-1.948 22.645-1.241 29.41.367 3.461 1.555 6.433 2.804 9.684 1.206 3.147 1.564 6.241 1.468 9.571-.035 1.564.367 4.378-.926 5.707-.48.489-1.136.673-1.791.865-2.044.594-4.245.9-6.342 1.329-7.81 1.59-15.638 3.102-23.483 4.518-3.835.691-7.661 1.364-11.496 2.01-2.385.411-6.5 1.949-8.859.909-1.642-.725-1.983-2.77-2.463-4.186-1.241-3.723-2.481-7.455-3.731-11.196-2.122-6.38-4.831-12.831-5.888-19.438-.48-2.963-.192-5.847-.113-8.81.113-3.994-1.477-6.511-3.748-9.264-.568-.708-1.206-1.434-1.852-2.203-3.521-4.134-.04 35.963-.476 30.623-.28-3.566.602-7.07.838-10.61.262-3.951-.445-7.831-1.266-11.694-1.931-9.107-2.822-18.162-2.883-27.287Z" fill="#C7E0FF"/><path d="M180.04 304.884c3.573-18.083 10.527-36.245 13.899-56.355 0 0 .044-.193.14-.56.559-1.949 2.455-6.677 4.473-11.476l.454-1.066c2.612-6.188 5.25-12.157 5.25-12.157s4.709 5.165 8.457 4.116c5.137-1.433 6.526-3.312 11.497-5.174 3.695-1.372 7.486-2.779 11.47-3.312.76-.114 1.52-.184 2.289-.219 13.296-.559 18.599 9.562 20.958 20.164.087.41.183.821.262 1.223.952 4.702 1.363 9.422 1.677 13.285.009.157.026.306.035.454.821 9.99.227 19.639-4.132 28.947-2.062 4.405-3.381 8.356-3.652 12.866a46.502 46.502 0 0 1 3.766-2.369c.69-.384 1.319.595.637.979a41.18 41.18 0 0 0-4.455 2.876c-.009.603 0 1.206.026 1.835.28 5.427.673 10.864 1.013 16.3.044.725-1.214.725-1.258 0l-.786-12.664c-.087-1.486-.201-2.989-.262-4.493-.306.254-.62.499-.917.752-.306 4.851-1.354 9.623-3.241 14.203-.655 1.599-1.477 3.129-2.342 4.641-2.28 4.02 6.116-43.517 4.814-39.13-1.817 6.153-2.769 12.438-4.814 18.556-2.079 6.222-4.734 12.262-7.853 18.109-.123.236-.455.306-.708.262a481.55 481.55 0 0 0-52.058-6.957c-.446-.035-.681-.332-.612-.717 3.53-19.42-6.2 7.412-4.018-2.893l-.009-.026Z" fill="#C7E0FF"/><path d="m193.939 248.528 39.016 3.304 24.679 2.089 3.224-.568 45.296-7.927.114-.026s-.044-.167-.149-.481c-.183-.647-.568-1.932-1.057-3.662-.105-.376-.201-.769-.332-1.189-1.24-4.492-3.005-11.248-4.333-17.847-.795-3.907-1.433-7.761-1.721-11.065-1.38-15.697-2.044-36.271-5.312-38.264-3.267-1.984-21.656-1.057-35.73-2.84-17.892-2.246-37.906-5.244-41.767-1.783-1.739 1.564-11.156 30.59-12.86 40.239-.952 5.384-3.66 17.183-5.879 26.596-.087.384-.184.76-.262 1.136-1.328 5.62-2.438 10.191-2.804 11.729-.088.367-.14.559-.14.559h.017Z" fill="#C7E0FF"/><path d="M196.874 236.24c.559.07 1.11.157 1.669.254.847.148 1.712.297 2.577.463 9.033 1.748 18.066 4.221 27.335 4.23 1.634 0 3.241-.114 4.831-.28 2.822-.306 5.618-.83 8.431-1.32 5.538-.952 10.631-.734 16.144.254.445.079.873.157 1.319.227 8.937 1.547 17.822 2.404 26.933 1.871 4.849-.28 9.671-1.137 14.52-1.041a35.86 35.86 0 0 1 4.429.368c.227.026.454.052.681.087-.052-.393-.113-.787-.166-1.154-.279-.043-.559-.078-.838-.122a38.993 38.993 0 0 0-4.631-.315c-5.582-.035-11.129.997-16.712 1.18a105.415 105.415 0 0 1-15.218-.603c-3.11-.349-6.185-.944-9.26-1.486-1.896-.332-3.792-.638-5.696-.865-4.735-.559-9.234.044-13.89.9-2.01.367-3.984.647-5.958.848-3.189.315-6.378.385-9.636.114-8.369-.708-16.494-2.937-24.75-4.414-.62-.114-1.24-.219-1.86-.315-.088.385-.184.761-.262 1.137l.008-.018Z" fill="#89A0BC"/><path d="m280.696 175.672 6.771.673c.9-9.247 1.913-18.241 4.412-26.719 1.965-6.694 5.093-13.651 9.758-21.78a764.495 764.495 0 0 0-6.561-2.237c-4.586 8.102-7.705 15.199-9.732 22.086-2.656 9.055-3.722 18.398-4.648 27.977ZM199.391 119.543c.576 4.3 2.35 16.143 5.04 24.044a265.429 265.429 0 0 0 2.176 6.109c3.127 8.382 5.8 13.871 7.626 17.183 2.796 5.078 4.858 7.63 6.911 8.277.366.114.725.166 1.092.166a3.74 3.74 0 0 0 1.1-.157c.603-.166 3.538-1.259 2.499-5.655l-3.311.787-3.259.786c.07-.594.481-1.608 1.564-2.202a3.032 3.032 0 0 1 1.721-.367c.559.043 1.013.253 1.206.41-.219-.166-.612-.638-1.188-1.442-2.097-2.963-6.413-10.636-11.689-26.097a66.716 66.716 0 0 1-.979-3.191c-1.782-6.467-3.049-14.552-3.634-18.572-2.289-.035-4.63-.053-6.875-.079Z" fill="#C7E0FF"/><path d="M312.855 180.452c1.284-3.05 3.18-5.785 4.403-8.888 2.507-6.372 3.712-13.241 5.232-19.901.166-.708 1.258-.411 1.092.306-1.441 6.328-2.62 12.821-4.865 18.931-.953 2.595-2.211 4.99-3.53 7.411-2.044 3.767-2.49 7.071-2.035 11.31.078.725-1.057.716-1.136 0-.341-3.208-.437-6.144.83-9.169h.009ZM199.67 142.643c1.625 3.776 1.678 7.691 1.931 11.729.323 5.323 1.372 10.558 2.42 15.776.14.717-.952 1.023-1.092.306-.874-4.309-1.739-8.635-2.21-13.014-.507-4.763-.096-9.736-2.027-14.22-.288-.664.69-1.241.978-.577Z" fill="#336660"/><path d="M281.239 177.988a2.517 2.517 0 1 1 5.034 0 2.517 2.517 0 0 1-5.034 0ZM218.575 173.041a2.567 2.567 0 1 1 5.136 0 2.573 2.573 0 0 1-2.568 2.57 2.573 2.573 0 0 1-2.568-2.57Z" fill="#fff"/><path d="M287.013 183.896a.538.538 0 0 0 .367-.14.599.599 0 0 0 .201-.384l.769-10.113a.568.568 0 0 0-.525-.611.572.572 0 0 0-.611.524l-.725 9.544-6.142-.481.909-9.544a.574.574 0 0 0-.507-.62.58.58 0 0 0-.62.507l-.961 10.121a.565.565 0 0 0 .524.62l7.286.568h.044l-.009.009ZM220.541 179.963a.587.587 0 0 0 .27-.07l6.439-3.452a.579.579 0 0 0 .279-.332.584.584 0 0 0-.043-.437l-4.805-8.924a.562.562 0 0 0-.769-.227.562.562 0 0 0-.227.769l4.534 8.425-5.425 2.911-4.386-8.53a.555.555 0 0 0-.76-.245.566.566 0 0 0-.244.76l4.647 9.046c.07.131.193.236.332.28a.569.569 0 0 0 .166.026h-.008Z" fill="#89A0BC"/><path d="M220.192 270.186a452.31 452.31 0 0 0 9.059 13.198c2.918 4.09 5.766 8.731 9.741 11.904l-3.224-11.161c-.201-.699.891-1.005 1.092-.306 2.892 10.016 5.783 20.023 8.666 30.031.201.699-.891 1.005-1.092.305-1.66-5.759-3.319-11.51-4.988-17.27a.484.484 0 0 1-.376-.087c-3.957-2.893-6.683-7.123-9.522-11.048a449.43 449.43 0 0 1-10.352-14.998c-.402-.611.576-1.179.978-.576l.018.008Z" fill="#ED934E"/><path d="M256.883 211.856c4.997 0 8.928-2.247 10.055-5.891 1.284-4.134 1.983-16.501 2.009-17.026a.562.562 0 0 0-.148-.419.6.6 0 0 0-.411-.184c-.113 0-11.82-.148-17.14-.428-5.294-.28-16.695-2.246-16.808-2.264a.59.59 0 0 0-.446.114.597.597 0 0 0-.218.402c-.227 2.84-.393 5.847-.489 8.941a47.835 47.835 0 0 1-.114 1.896c-.271 3.811-.673 9.571 2.49 11.555 3.931 2.456 9.461 2.683 14.345 2.884 1.773.07 3.45.14 4.988.306.646.07 1.275.105 1.896.105l-.009.009Zm10.902-22.384c-.157 2.552-.838 12.656-1.922 16.161-1.109 3.566-5.425 5.576-10.745 4.999-1.572-.166-3.267-.245-5.058-.315-4.735-.192-10.108-.419-13.786-2.718-2.585-1.617-2.21-6.966-1.956-10.505.052-.726.096-1.381.113-1.932.096-2.849.245-5.628.437-8.268 2.463.411 11.689 1.932 16.328 2.176 4.647.245 14.126.385 16.589.42v-.018Z" fill="#89A0BC"/><path d="M268.807 192.671s-11.959-.175-19.525-.638c-4.647-.288-15.865-1.774-15.865-1.774l.359-4.466a.702.702 0 0 1 .873-.63c1.948.507 6.316 1.145 15.786 1.687 8.623.498 15.393.324 17.682.446.472.026.83.42.813.892l-.131 4.474.008.009Z" fill="#fff"/><path d="M384.149 97.029c.358-.35.874-.42 1.599-.026 3.669 1.975 2.306 10.059 2.114 13.258-.183 3.138-.76 6.101-1.127 9.23-.428 3.653-2.245 7.857-2.245 7.857s-5.076-.201-8.151-1.503a.539.539 0 0 1-.131.612l-.157.131c-.236.201-.533.166-.76-.035-.035-.035-.079-.07-.122-.105a.424.424 0 0 1-.123-.498 2.478 2.478 0 0 1-1.432-.306c-.577-.201-1.154-.411-1.73-.621a25.354 25.354 0 0 1-1.809-.76c-2.306-1.101-3.861-4.414-5.093-6.555-.838-1.46-6.796-11.922-2.559-11.817 1.031.027 1.695.909 2.262 1.643 1.311 1.687 2.473 3.496 3.678 5.262.42-1.477.926-2.928 1.04-4.492.148-1.941.41-4.073.061-5.987-.419-2.255-1.302-5.629-.437-6.512 2.56-2.613 4.779 2.299 5.81 6.258.104-1.556.183-3.103.148-4.658-.026-1.425-.891-4.038.498-5.148 1.083-.874 2.036-.48 2.839.463.158-.463.385-.874.769-1.145 1.066-.752 2.21-.087 2.935.76 1.066 1.25 1.721 2.902 2.106 4.703l.017-.01Z" fill="#FDA67D"/><path d="M370.172 113.259c3.774 1.425 6.587 4.484 7.626 8.399.193.708-.908 1.005-1.092.306-.934-3.505-3.442-6.319-6.84-7.604-.673-.253-.384-1.354.306-1.092v-.009ZM375.046 103.138c.105 1.372.149 2.745.131 4.117-.008.734-1.144.734-1.135 0a46.404 46.404 0 0 0-.131-4.117c-.053-.725 1.083-.725 1.135 0ZM378.445 94.328c-.07-.725 1.065-.725 1.135 0 .42 4.536.524 9.072.306 13.635-.035.725-1.171.734-1.136 0 .219-4.554.123-9.09-.305-13.635ZM382.883 106.897c.629-2.544.874-5.113.751-7.735-.035-.735 1.101-.726 1.136 0a27.636 27.636 0 0 1-.786 8.032c-.175.708-1.267.41-1.092-.306l-.009.009Z" fill="#D28462"/><path d="M154.872 143.028c-12.336-3.295-21.29-19.071-27.685-28.239a742.743 742.743 0 0 1-12.754-18.896s11.278-10.06 11.426-9.859c2.787 3.776 22.006 19.246 27.528 24.027 10.273 8.879 15.314 10.426 17.035 13.765 1.468 2.849 5.294 2.605 5.294 2.605 3.931 14.858-6.727 20.373-20.853 16.597h.009Z" fill="#FDA67D"/><path d="M127.153 88.569a.648.648 0 0 1-.131.297c-2.971 3.714-10.239 9.675-10.239 9.675s-8.291-3.269-11.907-5.75c-2.464-1.688-9.479-5.044-9.182-8.627a2.353 2.353 0 0 1 1.075-1.8c-1.66-1.47-3.076-3.182-2.945-5.463.062-1.119.542-1.836 1.215-2.22-.21-.367-.41-.743-.568-1.119-.472-1.136-.463-2.351.28-3.374 1.205-1.678 2.97-1.136 4.743-.07.14-.865 1.398-2.185 2.743-2.115 2.674.14 10.553 6.005 15.009 9.667.183-2.509-1.538-4.624-1.843-7.053-.219-1.757.524-4.589 2.778-2.98 1.974 1.406 3.031 3.548 4.071 5.654a100.59 100.59 0 0 1 3.232 7.22c.55 1.371.821 2.779 1.083 4.23.157.891.175 2.307.752 3.058.235.306.096.612-.158.77h-.008Z" fill="#FDA67D"/><path d="M120.792 92.274c-4.307-2.622-5.128-7.603-3.494-12.105.253-.69-.848-.987-1.092-.305-1.809 4.99-.699 10.514 4.018 13.39.629.384 1.197-.604.577-.98h-.009ZM108.606 77.548a68.897 68.897 0 0 0-7.976-6.346c-.603-.41-1.11.603-.516 1.014a67.584 67.584 0 0 1 7.741 6.18c.532.498 1.293-.35.76-.848h-.009ZM104.683 81.612a96.356 96.356 0 0 0-8.308-6.258c-.603-.411-1.11.612-.506 1.014a95.683 95.683 0 0 1 8.072 6.092c.559.471 1.31-.376.751-.848h-.009ZM104.613 86.602a204.378 204.378 0 0 1-6.185-3.907c-.612-.402-1.18.586-.577.98a229.554 229.554 0 0 0 6.185 3.906c.629.385 1.197-.603.577-.979Z" fill="#D28462"/></g><path d="M284.569 254.387h107.41s-43.733 108.907-169.08 76.293C97.551 298.065 38.033 359.64 8.313 317.239c-29.72-42.402 29.8-64.062 29.8-64.062l246.456 1.21Z" fill="#F2F2F2"/><path d="m245.741 279.889-52.538 18.802v-3.592l.01.004 46.676-16.861 5.437-1.965c.289-.105.534-.282.585-.529.2-.986.234.753.237 3.553 0 .264-.162.5-.405.586l-.002.002Z" fill="#CCC"/><path d="M246.148 274.526v.322a1.006 1.006 0 0 1-.667.823l-5.46 2.014-46.88 17.291s-.003 0-.01-.004c-.294-.075-7.722-2.009-8.144-2.009-.268 0-.621-1.751-.847-3.062-.135-.782-.225-1.409-.225-1.409l1.716-14.88h59.51c.585 0 .943.435 1.007.914Z" fill="#B3B3B3"/><path d="m195.115 291.26 20.555-7.93c1.214-.468.882-2.287-.416-2.287h-22.051l1.912 10.217Z" fill="gray"/><path d="M193.977 294.976H46.771a5.725 5.725 0 0 1-5.505-4.139L22.414 190.748c-.8-4.243 2.462-8.165 6.788-8.165H180.39a5.723 5.723 0 0 1 5.677 4.955l13.586 100.964c.461 3.426-2.211 6.474-5.676 6.474Z" fill="#E6E6E6"/><defs><clipPath id="a"><path fill="#fff" transform="matrix(-1 0 0 1 388.264 15.79)" d="M0 0h294.449v281.445H0z"/></clipPath></defs></svg>