<svg width="135" height="48" fill="none" xmlns="http://www.w3.org/2000/svg"><path fill-rule="evenodd" clip-rule="evenodd" d="M61.41 7.1V6h-7.8v1.1h3.3v10.4h1.2V7.1h3.3Zm7 6.4c0-1.2-.2-2.3-1-3.2-.5-.6-1.3-.9-2.3-.9-1 0-1.7.3-2.3.9-.8.8-1 1.9-1 3.2 0 1.3.2 2.3 1 3.2.5.6 1.3.9 2.3.9 1 0 1.7-.3 2.3-.9.8-.9 1-2 1-3.2Zm-1.2 0c0 .9 0 1.8-.6 2.4-.4.4-.9.6-1.4.6-.6 0-1-.2-1.4-.6-.6-.6-.6-1.6-.6-2.4 0-.9.1-1.9.6-2.4.4-.4.9-.6 1.4-.6.6 0 1.1.2 1.4.6.6.5.6 1.5.6 2.4Zm9.1 3.9V9.5h-1.2v3.8c-.5.1-1.3.3-2.2.3-.9 0-1.4-.4-1.4-1.4V9.5h-1.2v2.9c0 1.6.9 2.3 2.3 2.3.9 0 1.8-.2 2.4-.3v3.1h1.3v-.1Zm4.1 0V9.5h-1.2v7.9h1.2Zm5.3 0-3.9-4.2 3.6-3.7h-1.4l-3.6 3.8 3.7 4.1h1.6Zm7 0v-5.3c0-1.7-1-2.6-3.2-2.6-1.3 0-2.1.3-2.8 1.2l.8.7c.5-.7 1-.9 2-.9 1.5 0 2 .6 2 1.7v.8h-2.4c-1.8 0-2.7.9-2.7 2.3 0 .6.2 1.2.6 1.6.5.5 1.1.7 2.2.7s1.7-.2 2.3-.9v.8h1.2v-.1Zm-1.2-2.8c0 .7-.1 1.1-.4 1.4-.5.5-1.1.5-1.8.5-1.3 0-1.8-.4-1.8-1.4 0-.9.6-1.4 1.8-1.4h2.2v.9ZM59.808 41.1c3.5 0 6.1-2 6.1-5.1 0-1.9-1-3.2-2.5-3.9 1.3-.7 2.2-2 2.2-3.7 0-2.9-2.4-4.7-5.8-4.7-3.2 0-5.7 1.8-6.3 5.3h3.3c.3-1.4 1.2-2.5 2.9-2.5 1.5 0 2.5.8 2.5 2.1 0 1.4-.9 2.2-2.3 2.2h-2.2v2.7h2.2c1.7 0 2.6.9 2.6 2.3s-1.1 2.3-2.7 2.3c-1.7 0-2.6-1.1-2.9-2.4h-3.3c.6 3.6 3.1 5.4 6.2 5.4Zm19.6-.2V28.4h-3.1v4.7h-4v-4.7h-3.1v12.5h3.1v-5h4v5h3.1Zm12.9 0v-8.2c0-2.9-1.8-4.4-5.3-4.4-2.1 0-3.3.4-4.5 1.8l2 1.9c.7-.8 1.3-1.1 2.4-1.1 1.7 0 2.3.6 2.3 2v.6h-2.9c-3 0-4.3 1.6-4.3 3.6 0 1.1.4 2.1 1 2.8.7.7 1.8 1.1 3.2 1.1 1.4 0 2.2-.4 3.1-1.2v1.1h3Zm-3.1-4.6c0 .8-.1 1.3-.5 1.6-.5.5-1.1.6-1.8.6-1.3 0-1.9-.6-1.9-1.4 0-.9.6-1.4 1.8-1.4h2.4v.6Zm16.7 4.6V28.4h-3.1v4.7h-4v-4.7h-3.1v12.5h3.1v-5h4v5h3.1Zm14.2 0V28.4h-3.1l-4.4 7.4v-7.4h-3.2v12.5h3.1l4.4-7.6v7.6h3.2Zm12.6-17.3h-2.3c-.1 1.1-.7 1.5-1.5 1.5-.9 0-1.5-.4-1.5-1.5h-2.4c.1 2.6 2 3.4 3.9 3.4 1.8 0 3.8-.8 3.8-3.4Zm1.5 17.3V28.4h-3.1l-4.4 7.4v-7.4h-3.1v12.5h3.1l4.4-7.6v7.6h3.1Z" fill="#000"/><ellipse cx="20.488" cy="46.099" rx="6.519" ry="1.397" fill="#50679D"/><path d="M20.489 11.175c-7.7 0-13.97 6.343-13.97 14.13 0 11.713 12.417 18.978 12.961 19.45.578.503 1.44.503 2.017 0 .543-.472 12.961-7.737 12.961-19.45 0-7.787-6.27-14.13-13.97-14.13Zm0 21.981c-4.284 0-7.761-3.517-7.761-7.85 0-4.334 3.477-7.85 7.76-7.85 4.285 0 7.762 3.517 7.762 7.85s-3.477 7.85-7.761 7.85Z" fill="url(#a)"/><path fill-rule="evenodd" clip-rule="evenodd" d="M5.383 27.106 3.363 13.08 1.655 27.106h3.727Z" fill="#FEA970"/><path fill-rule="evenodd" clip-rule="evenodd" d="M3.616 10.83c.24.078.414.322.414.611 0 .353-.26.639-.58.639-.32 0-.579-.286-.579-.639 0-.279.163-.517.39-.603V9.77h.355v1.06Z" fill="#2B3D67"/><path fill-rule="evenodd" clip-rule="evenodd" d="M3.008 11.851c.106.14.266.229.444.229a.56.56 0 0 0 .443-.227v1.405H3.39l-.026-.177-.022.177H3.01v-1.407h-.001Z" fill="#FEAA71"/><path d="M20.256 6.079c-.105.001-.21.004-.314.007h-.011l-.306.012h-.02a12.184 12.184 0 0 0-.325.02l-.292.023-.035.003-.285.027-.042.004c-.093.01-.186.02-.279.032l-.049.005a17.116 17.116 0 0 0-.328.044l-.268.04-.06.01-.263.044-.067.012-.257.048-.071.014c-.085.016-.168.033-.253.051l-.078.017-.247.055-.084.019c-.081.018-.162.038-.243.058l-.088.022-.238.061-.094.025-.233.065-.1.028-.228.066-.104.032c-.075.022-.15.046-.225.07l-.11.035-.22.073-.114.038a11.394 11.394 0 0 0-.334.117c-.071.026-.142.051-.212.078l-.124.046-.207.08-.13.05a20.292 20.292 0 0 0-.534.218l-.14.06c-.065.027-.129.055-.193.084l-.146.065-.188.085-.15.07-.184.086-.159.076a8.906 8.906 0 0 0-.176.086c-.055.028-.111.057-.167.084l-.168.084-.176.092c-.053.027-.107.055-.16.084l-.188.1-.149.08-.213.119-.124.068-.337.193v6.674c3.563-2.07 7.06-3.123 10.49-3.166V6.078Z" fill="#50679D"/><path d="M30.478 9.048a6.94 6.94 0 0 0-.103-.061l-.217-.13a23.894 23.894 0 0 0-.32-.184l-.126-.069c-.065-.036-.13-.073-.196-.108l-.126-.068-.196-.104a8.986 8.986 0 0 0-.123-.064c-.067-.035-.133-.07-.2-.102l-.12-.06-.203-.1-.118-.056-.206-.097c-.037-.018-.076-.034-.114-.052l-.21-.095-.111-.049-.213-.092-.109-.045-.217-.089-.105-.04-.221-.088-.102-.038-.226-.083-.096-.035a25.46 25.46 0 0 0-.232-.08l-.091-.032-.236-.078-.088-.028-.24-.075-.084-.025-.246-.072-.08-.021a14.555 14.555 0 0 0-.25-.068l-.076-.02-.255-.063-.071-.017-.26-.06-.066-.015c-.089-.02-.178-.039-.267-.056l-.06-.012-.271-.053-.057-.01a16.636 16.636 0 0 0-.277-.048l-.052-.008c-.094-.015-.188-.03-.283-.043-.015-.002-.03-.005-.046-.006a16.606 16.606 0 0 0-.289-.04c-.014 0-.028-.002-.042-.004a12.206 12.206 0 0 0-.294-.033l-.036-.004c-.1-.01-.2-.02-.3-.028l-.03-.002a13.028 13.028 0 0 0-.644-.041l-.02-.001a14.04 14.04 0 0 0-.318-.012h-.014a21.746 21.746 0 0 0-.326-.005h-.341v6.674c3.586-.045 7.1 1.013 10.542 3.166V9.246c-.106-.067-.213-.132-.319-.197l-.003-.001Z" fill="#384C7B"/><path d="M20.255 0 0 8.673l9.764 4.311v-3.74c.113-.064.225-.129.338-.192l.124-.068.213-.119.149-.08.188-.1c.053-.029.107-.056.16-.084l.176-.092.168-.084.167-.084.176-.086.158-.076c.061-.03.123-.058.184-.086l.15-.07c.063-.03.126-.057.189-.085.048-.022.097-.045.146-.066l.192-.083.14-.06c.066-.029.132-.056.198-.082l.134-.056.203-.08c.043-.017.086-.035.13-.051l.207-.079.124-.046c.07-.027.141-.052.211-.078l.12-.042c.07-.026.143-.05.214-.075l.115-.039.22-.072.11-.035.224-.07.104-.032c.076-.022.153-.045.23-.066.032-.01.065-.02.098-.028l.234-.065.093-.025.238-.06.089-.023c.081-.02.161-.04.243-.058l.083-.02.248-.054.078-.017.252-.051.072-.014.257-.048.067-.012.263-.044.06-.01.268-.04.054-.008c.091-.013.183-.025.274-.036l.049-.006a16.423 16.423 0 0 1 .32-.035l.286-.027.035-.003c.097-.009.194-.017.291-.023.01 0 .019 0 .028-.002l.298-.017.02-.001c.101-.005.204-.009.306-.012h.01a20.705 20.705 0 0 1 .648-.008h.007c.109 0 .218.002.327.005h.013a14.011 14.011 0 0 1 .676.031c.102.006.204.014.306.023l.03.002.3.028.037.004.294.033.042.005.288.038.047.007.283.043.051.008.278.048.056.01.272.052.06.013a14 14 0 0 1 .266.056l.066.014.26.06.071.017c.086.021.17.042.256.065l.076.02c.083.02.167.044.25.067l.08.021.245.072.084.025.24.075.089.028c.079.025.157.051.235.078l.092.031.232.081.096.035.226.083.101.038.222.087.105.041.217.09.108.044.213.092.112.049.21.095.114.052.206.097c.04.019.079.037.118.057l.202.1.121.059.2.102.123.064.196.104.126.068.196.108.125.07c.067.037.133.076.2.114l.12.07c.073.042.145.085.218.129l.102.06c.107.065.214.131.32.198v3.336l9.712-3.96L20.256 0Z" fill="#2B3D67"/><defs><linearGradient id="a" x1="20.489" y1="11.175" x2="20.489" y2="45.633" gradientUnits="userSpaceOnUse"><stop stop-color="#FFCA42"/><stop offset="1" stop-color="#FDB77D"/></linearGradient></defs></svg>