<svg width="128" height="55" fill="none" xmlns="http://www.w3.org/2000/svg"><path d="M32.864 0C26.436.054 21.266 5.366 21.32 11.836c.053 6.47 5.33 11.674 11.758 11.62 6.428-.054 11.597-5.365 11.544-11.836C44.568 5.15 39.292-.054 32.864 0Zm.16 18.172c-3.535.027-6.428-2.831-6.481-6.39-.027-3.559 2.812-6.47 6.348-6.497 3.535-.027 6.428 2.83 6.454 6.39.08 3.558-2.785 6.47-6.32 6.497Z" fill="#F37E60"/><path d="M32.944 8.79c-1.607.027-2.893 1.348-2.893 2.965a2.953 2.953 0 0 0 2.947 2.912c1.607-.027 2.892-1.348 2.892-2.966 0-1.617-1.339-2.911-2.946-2.911Z" fill="#F37E60"/><path d="M38.22 31.544h-8.115v-6.713h-5.303V43.57h5.303v-6.74h8.116v6.74h5.222V24.83h-5.222v6.713ZM8.142 21.461h5.223V8.035h6.696V2.723H1.446v5.312h6.696V21.46ZM119.831 16.258l-4.714 5.94 4.08 3.28 4.714-5.94-4.08-3.28ZM16.017 32.839l5.437-8.035H4.714v5.23h6.857L6.75 37.18l4.338 2.966 1.902-2.831a6.292 6.292 0 0 1 4.795 6.12c0 3.478-2.813 6.309-6.268 6.309-3.455 0-6.267-2.831-6.267-6.309H0C0 49.824 5.17 55 11.49 55c6.348 0 11.49-5.203 11.49-11.566.027-4.718-2.865-8.816-6.963-10.595Z" fill="#003C56"/><path d="m122.777 24.831-8.115 10.218V24.831h-5.277V43.57h5.277l8.115-10.272v10.272H128V24.83h-5.223ZM92.78 21.92c2.463 0 4.767-1.133 6.534-3.02v2.561h5.223V2.723h-5.223v1.483a7.909 7.909 0 0 0-2.597-1.536 7.778 7.778 0 0 0-2.491-.405c-3.884 0-7.446 2.831-8.866 7.01-1.768 5.176.456 10.676 4.955 12.24.75.27 1.607.404 2.464.404Zm-2.545-11.108c.67-1.942 2.303-3.236 4.098-3.236.401 0 .776.054 1.151.19 2.063.727 3.107 3.234 2.277 5.634-.67 1.941-2.303 3.235-4.098 3.235a3.33 3.33 0 0 1-1.151-.189c-2.063-.728-3.108-3.262-2.277-5.634ZM52.764 44c2.464 0 4.768-1.132 6.535-3.02v2.562h5.223V24.804H59.3v1.483a7.907 7.907 0 0 0-2.598-1.537 7.779 7.779 0 0 0-2.49-.404c-3.884 0-7.446 2.83-8.866 7.01-1.768 5.176.455 10.676 4.955 12.24.777.27 1.634.404 2.464.404ZM50.22 32.892c.67-1.94 2.303-3.235 4.098-3.235.401 0 .776.054 1.151.189 2.063.728 3.107 3.235 2.277 5.635-.67 1.94-2.303 3.235-4.098 3.235-.402 0-.777-.054-1.152-.189-2.062-.728-3.08-3.262-2.276-5.635ZM101.618 24.831 93.502 35.05V24.831h-5.276V43.57h5.25l8.142-10.272v10.272h5.223V24.83h-5.223ZM59.3 2.75V7.82c0 2.372-1.768 4.206-4.072 4.206-2.276 0-4.07-1.86-4.07-4.206V2.723H45.88V7.82c0 5.23 4.178 9.49 9.32 9.49 1.474 0 2.866-.35 4.072-.944v5.123h5.223V2.75h-5.197Z" fill="#003C56"/><path d="M85.253 2.723h-6.321l-4.366 6.444H72.29V2.723h-5.223v18.738h5.223v-7.01h2.785l4.74 7.01h6.322l-6.776-10.03 5.892-8.708ZM80.486 31.544h-8.143v-6.713h-5.276V43.57h5.276v-6.74h8.142v6.74h5.197V24.83h-5.197v6.713Z" fill="#003C56"/></svg>