<svg width="192" height="22" fill="none" xmlns="http://www.w3.org/2000/svg"><path opacity=".75" d="M2.088 13.184c-1.356 1.23-3.099 2.977-1.356 4.142 1.743 1.229 4.454 3.04 5.874 3.623 1.42.647 2.84-.97 3.55-1.488.775-.518 1.42-2.718 2.002-3.041.58-.324 1.355-1.036 1.936-1.36.581-.323 2.905-2.588 4.39-3.235 1.484-.647 3.227-1.294 5.745-1.164 2.582.13 4.131 1.553 5.745 3.106 1.55 1.553 6.39 4.594 8.327 5.823 1.937 1.23 6.843 2.782 8.521 2.33 1.678-.453 4.39-2.912 6.649-3.883 2.26-.97 4.583-2.523 6.455-3.17 1.872-.647 4.712-1.553 5.81-1.683 1.097-.13 3.356-.906 4.26.065.84.97 5.1 4.012 7.617 5.241 2.518 1.23 5.1 1.036 7.165.194 2.066-.776 3.744-1.617 4.325-2.135.581-.518 1.55-1.553 2.712-2.588 1.162-1.036 4.26-3.818 6.132-3.883 1.872-.064 2.711.324 4.002.971 1.227.647 4.132 2.07 4.842 2.135.71.065 2.194-.258 2.969-.582.775-.324 4.39-2.718 4.39-2.718s2.065-.97 3.034-1.682c.968-.712 1.355-1.424 2.323-1.553.904-.13 1.679-.259 1.679-.259s5.616 4.724 9.037 6.406c3.421 1.682 5.939 2.524 7.23 2.653 1.291.065 4.454-.13 6.132-.582 1.679-.453 5.229-1.165 7.23-1.036 2.001.13 6.197.712 6.907 1.1.71.389 6.132 2.006 7.811 2.265 1.614.259 8.262.453 9.554.518 1.291.064 6.777.194 7.358.259.581 0 4.325 1.747 6.326 2.005 2.002.324 2.905.194 3.164-.711.258-.906-.259-1.683-1.356-1.941-1.097-.26-3.421-1.683-5.229-2.524-1.807-.841-3.034-1.294-5.616-1.618-2.582-.323-6.52-1.876-9.683-1.811-3.163 0-5.745.258-8.456-.324-2.711-.518-4.325-1.359-8.133-2.33-3.809-.97-7.295-1.164-10.458-.582-3.163.583-6.519 1.488-8.585 1.747-2.066.26-4.325-1.359-6.455-2.976-2.131-1.618-4.325-4.659-7.036-5.953-2.712-1.23-5.229-1.424-7.553.323-2.324 1.748-6.132 4.077-7.424 4.724-1.355.647-3.033 1.1-4.776.065-1.743-1.036-4.584-3.753-7.23-2.653-2.647 1.164-7.23 4.4-9.554 6.47-2.324 2.07-6.842 3.883-8.65 2.847-1.807-1.035-4.906-4.14-7.81-5.24-2.905-1.1-7.101-.971-9.748-.389-2.582.582-7.359 3.3-9.812 4.594-2.453 1.359-7.23 4.012-9.037 3.365-1.807-.647-4.583-3.43-6.197-4.594-1.614-1.23-6.197-4.789-9.23-5.694-3.1-.906-7.295-1.36-12.266 1.553-4.906 3.04-9.553 6.858-9.553 6.858Z" fill="#FFCA42"/></svg>