<svg width="511" height="395" fill="none" xmlns="http://www.w3.org/2000/svg"><path opacity=".75" d="M231.934 106.892c2.505.66 5.324 2.243 4.357 2.601-.939.595.287 2.372 1.114 4.197.827 1.825-1.308.88-1.107 2.54.201 1.66.942 2.774.032 3.606-.909.832-.197 1.708-.025 3.131.201 1.66-1.963.478-2.7 2.733-.483 1.021.229 1.898 1.199 3.224.769 1.351.515 2.585-1.307 2.565-1.821-.02-3.897 1.193-6.885 1.555-2.988.362-23.817 1.922-29.138 3.047-5.32 1.125-14.822 4.442-17.155 5.205-2.503 1.025-27.933 11.324-43.462 19.942-15.529 8.618-39.5 25.958-49.052 35.537s-30.329 33.271-38.397 46.76c-8.038 13.727-15.255 24.227-18.144 37.09-2.86 13.1-5.683 34.858-4.223 41.9 0 0-1.538-1.017-3.31-7.299-1.77-6.283-5.008-26.345-4.68-38.657.244-11.34 5.88-36.567 17.84-54.619 11.962-18.052 23.014-35.272 39.93-50.796 16.916-15.524 26.525-24.629 47.173-36.032 20.619-11.641 23.749-12.501 25.228-13.643 1.478-1.141 2.246-1.475 3.84-1.668 1.593-.193 2.445-1.499 3.782-2.142 1.366-.406 17.664-7.674 35.505-10.556 18.039-2.906 33.322-1.869 39.585-.221Z" fill="#79A5DB"/><path opacity=".75" d="M342.615 188.062s-13.869 17.321-22.54 25.83c-8.471 8.486-35.9 38.999-68.984 51.186-33.084 12.187-59.514 19.238-103.28 21.649-43.766 2.412-65.036-8.007-73.156-16.65-8.12-8.642-17.733-29.616-19.764-39.718 0 0 .71 25.903 1.46 33.753.776 8.088 3.989 31.281 22.273 43.746 18.084 12.489 49.989 15.605 76.283 14.106 26.294-1.5 67.208-9.101 87.46-18.772 20.252-9.671 52.133-28.451 59.867-34.681 7.705-6.468 10.917-9.985 9.95-9.627-.967.358-7.506 6.444-8.984 7.585-1.479 1.142-11.687 8.634-15.441 11.014-3.185 2.07-7.054 3.501-7.822 3.835 1.166-.382 8.504-4.88 11.12-6.641 2.587-1.998 6.255-5.089 6.994-5.659.74-.571.824-1.544 1.791-1.902.967-.358 1.366-.406 1.906-.952.511-.784 2.645-1.524 3.555-2.356.909-.832 1.222-1.592 1.563-2.114.34-.523 1.279-1.118 1.591-1.877.512-.784.682-1.046 1.649-1.403.996-.121 2.134-.74 2.446-1.5.312-.759 1.052-1.33 1.45-1.378.398-.049 1.992-.241 2.503-1.025.341-.523 9.211-9.057 12.024-12.525 3.013-3.494 4.718-6.106 5.229-6.89.512-.784.596-1.757.994-1.805.569-.309.91-.832.881-1.069-.057-.474.255-1.234.824-1.544.569-.309 1.392-1.853 2.783-5.39 1.59-3.561 1.931-4.084 2.946-12.389 1.044-8.067 2.055-21.424.429-24.837ZM311.13 231.82c-.71.808-1.45 1.378-2.16 2.186-5.06 4.945-17.768 16.831-27.551 22.828-12.798 7.806-31.541 18.257-37.514 20.665-5.974 2.407-6.771 2.504-8.023 2.174-1.253-.329-.797.097-3.557.672-2.76.574-5.575 2.359-6.742 2.741-1.166.382-13.086 3.75-26.345 6.077-13.458 2.352-34.744 3.485-34.744 3.485s33.918-3.625 48.769-7.83c15.05-4.228 20.455-6.327 22.958-7.352 2.503-1.025 20.227-6.539 37.232-17.983 15.527-10.303 27.699-18.273 35.318-25.452 1.62-1.64 2.53-2.473 2.359-2.211Z" fill="#79A5DB"/><path opacity=".75" d="M392.947 174.75c-1.314-4.173-2.715-10.741-5.994-16.119-3.278-5.378-15.131-18.141-22.962-22.727-7.831-4.587-25.454-11.597-39.688-15.649-14.404-3.791-23.112-3.939-27.808-4.333-4.696-.394-10.417-.905-13.291-1.279-2.846-.136-19.38.181-25.243.169-5.663-.036-14.94.125-19.692.94-4.552.792-21.739 2.392-24.557 2.493-2.817.1-10.244.518-14.199 1.238-3.955.719-11.181 2.797-15.107 3.754-3.926.956-24.781 5.647-30.299 8.481-5.319 2.81-7.879 3.36-11.037 3.983-2.959.599-5.689 3.096-6.485 3.192-.797.097-15.02 6.15-19.229 8.104-4.21 1.953-18.172 11.825-26.247 18.578-8.104 6.516-16.006 14.692-20.724 20.798-4.717 6.106-8.27 10.145-12.042 22.393-3.601 11.987-3.99 20.456-3.638 30.039.352 9.583.22 20.187 1.681 28.913 1.461 8.727 3.66 15.199 4.657 16.762 0 0-.672-42.27 23.46-69.978 23.931-27.683 68.133-48.195 127.398-61.146 59.264-12.951 123.765.656 138.23 8.289 0 0 1.138-.619-3.56-2.697-4.897-2.054-11.159-3.702-11.159-3.702s4.41-.293 14.432 4.028 16.231 8.863 20.931 12.626c4.472 3.549 9.771 8.923 12.396 15.584 2.597 6.423 5.197 16.215 6.116 23.804.919 7.589.327 12.715.781 11.456.454-1.258 3.429-13.409 4.042-25.034.414-11.601.15-18.788-1.163-22.96Zm-73.16-46.729c-6.946-2.287-12.211-2.372-14.46-2.581-2.248-.209-3.301-.563-5.521-.534-2.22.028.283-.997-2.164-1.182-2.448-.185-5.635.201-9.477.185-3.841-.016-7.229-1.291-11.811-.736-4.382.531-12.579-.402-17.985.012-5.407.414-11.013.852-15.423 1.145-4.411.294-7.912-.245-12.095.262-3.983.482-9.419.659-5.521-.535 1.934-.715 9.474-1.869 13.259-2.327 3.585-.434 11.838-.712 14.854-.836 3.016-.125 39.357-.434 45.164.788 5.807 1.222 25.646 4.836 33.816 7.215 7.971 2.404 13.638 5.809 13.638 5.809s-19.328-4.398-26.274-6.685Z" fill="#79A5DB"/><path opacity=".75" d="M392.059 172.45c-.571-1.374-7.798 25.73-12.257 33.97-4.46 8.241-24.157 30.839-35.217 39.638-11.061 8.799-46.127 29.649-49.341 31.482-3.015 1.808-5.292 1.362-7.368 2.576-2.076 1.214.027-1.447-2.647-.161-2.674 1.287-23.381 10.532-27.62 12.248-4.238 1.716-19.884 7.702-25.715 9.611-5.832 1.909-49.275 13.667-65.779 15.905-16.702 2.263-46.154 4.386-57.481 4.313-11.326-.072-26.468-1.608-37.738-2.89-11.271-1.283-21.096-7.312-27.218-11.143-6.094-3.593-9.6-9.185-12.68-14.587-2.852-5.19-9.158-20.549-10.277-29.798 0 0-2.809 8.522-1.712 22.586 1.097 14.065 5.307 38.822 14.907 48.007 9.6 9.185 29.733 20.223 56.314 21.096 26.381.896 55.577-1.676 60.357-2.255 4.78-.579 19.491-2.601 22.479-2.962 2.987-.362 4.951-.84 7.312-1.367 2.362-.527 1.99-1.925.795-1.781-1.195.145-.768.334-2.532.788s-2.503 1.025-3.557.671c-1.053-.353-1.65-.281-2.817.101-1.166.382-1.792.217-3.386.41-1.593.193-1.195.145-2.959.599-1.764.454-2.534-.897-2.534-.897s1.337-.643 2.931-.836c1.593-.193 9.56-1.157 11.125-1.587 1.366-.406 3.357-.648 4.78-.579 1.423.068 2.988-.362 4.183-.507 1.195-.144.795-1.78 1.99-1.925 1.195-.145.655.402 2.249.209 1.593-.193 3.499-1.146 4.893-1.314 1.394-.169 3.099-2.782 5.091-3.023 1.992-.241 3.101-1.098 3.643.04.541 1.138 1.11.828 1.024.117-.086-.712-.287-2.372 1.079-2.778 1.365-.406 2.959-.599 4.694-1.29 1.735-.692 5.803-2.147 7.197-2.316 1.394-.168 2.676.398 2.676.398s-4.723 1.054-6.658 1.769c-1.934.716-4.807 2.026-3.213 1.833l4.78-.579c1.195-.145 1.651.282 3.187-.386 1.536-.667 2.047-1.451 4.01-1.929 1.963-.478 2.276-1.238 4.267-1.479l3.586-.434c.796-.097 2.959-.599 4.324-1.005 1.366-.406 1.421-1.616 2.787-2.022 1.366-.406 5.491-1.387 6.857-1.793 1.365-.406 3.47-1.383 4.807-2.026 1.337-.643 3.641-1.644 5.205-2.074 1.565-.43 1.054.354 3.245.089 2.191-.266 2.903.611 6.088-1.46 3.185-2.07 2.559-2.234 4.237-3.4s5.148-2.549 7.481-3.312c2.332-.764 3.242-1.596 4.437-1.741 1.195-.144 1.992-.241 1.678-1.165-.314-.925.766-2.018 1.479-1.142.712.876 2.078.47 2.078.47 2.076-1.214 4.294-2.926 5.489-3.071 1.195-.144 1.934-.715 4.209-1.953 2.276-1.238 2.276-1.238 3.641-1.644 1.366-.406.851-2.991 2.586-3.682 1.735-.692 5.035-1.813 6.912-3.003 1.877-1.19 3.3-1.121 5.177-2.311 1.877-1.19 1.821.02-3.156 2.307-4.978 2.287-5.062 3.26-3.298 2.806 1.763-.454 3.953-2.404 6.655-3.453 2.702-1.049 3.442-1.62 4.152-2.428.711-.808-.201-1.66 1.506-2.589 1.706-.928 4.692-2.974 6.399-3.903 1.706-.928 4.836-1.788 6.314-2.93 1.479-1.141 3.612-1.881 4.892-2.998 1.279-1.118 3.127-2.545 2.331-2.448-.797.096-3.214 1.832-5.29 3.046-2.076 1.214-3.699 1.17-3.699 1.17s2.218-1.712 4.323-2.689c2.105-.977 2.588-1.998 4.294-2.926 1.707-.929 2.758-2.259 2.161-2.187-.598.072-3.528.908-2.05-.233 1.479-1.142 3.385-2.094 5.631-3.57 2.247-1.475 4.662-4.895 4.662-4.895s.542 1.137-.68 2.729-2.103 2.661-.197 1.708c1.905-.952.996-.12 3.014-1.809 2.019-1.688 5.175-3.995 7.934-6.254 2.757-2.259 3.355-2.331 4.407-3.662 1.051-1.33 1.507-.904 1.051-1.33-.456-.427-1.31-.804-1.31-.804 2.048-1.452 2.473-2.947 3.98-3.851 1.507-.905 3.438-4.989 4.888-6.367 1.45-1.379 4.037-3.377 4.89-4.683.852-1.307 1.733-2.376 3.126-4.229 1.392-1.853 3.635-6.697 4.459-8.24.823-1.544 1.76-3.823 2.156-5.555.397-1.733 2.441-6.552 3.6-13.671 3.122-7.597 5.259-31.679 1.295-39.381Zm-58.639 91.564c-8.19 5.804-19.593 13.441-22.238 14.965-2.446 1.499-12.687 5.386-17.18 8.336-4.522 2.714-17.664 7.674-22.243 9.913-4.58 2.239-32.372 13.063-41.391 15.359-9.018 2.295-34.481 8.987-39.461 9.59-4.78.579-8.394.776-10.158 1.23-1.764.454-4.466 1.504-7.056 1.817-2.589.314-3.499 1.146-5.491 1.387l-5.975.723c-2.191.266-61.378 5.507-71.713 1.945-1.68-.518 35.487-.687 38.503-.811 3.017-.125 27.29-1.62 34.886-3.984 7.624-2.126 29.762-4.566 34.855-5.904 5.292-1.363 40.369-12.107 44.125-12.803 3.755-.695 20.338-8.959 25.913-11.319 5.376-2.335 27.223-10.515 33.965-13.256 6.741-2.742 16.153-10.138 22.381-13.78 6.03-3.617 26.9-19.861 30.909-23.474.398-.048-14.271 14-22.631 20.066Z" fill="#79A5DB"/><path opacity=".75" d="M287.237 323.995c-2.702.138-6.009-.546-5.16-1.208.746-.889-1.037-2.269-2.438-3.823-1.401-1.554 1.023-1.291.297-2.879s-1.816-2.462-1.174-3.578c.642-1.116-.345-1.763-.967-3.124-.726-1.588 1.802-1.098 1.822-3.576.157-1.168-.829-1.815-2.214-2.828-1.194-1.1-1.331-2.409.488-2.966 1.819-.557 3.5-2.422 6.359-3.729 2.859-1.306 23.094-9.455 28.032-12.26 4.938-2.805 13.343-9.115 15.423-10.614 2.166-1.812 24.212-20.115 36.936-33.61 12.724-13.495 31.088-38.344 37.559-50.901 6.472-12.558 19.645-42.715 23.401-58.695 3.652-16.207 7.509-28.941 6.31-42.657-1.303-13.942-5.386-36.49-9.068-43.035 0 0 1.852.525 5.605 6.216 3.752 5.691 13.328 24.63 16.901 36.987 3.349 11.362 5.73 38.252-.456 60.006-6.186 21.753-11.73 42.39-23.647 63.196-11.917 20.806-18.596 32.91-35.533 50.798-16.833 18.116-19.674 19.963-20.784 21.567-1.11 1.604-1.769 2.18-3.293 2.876-1.525.697-1.959 2.267-3.086 3.331-1.231.836-15.149 13.23-31.99 21.749-17.031 8.605-32.569 12.414-39.323 12.757Z" fill="#79A5DB"/><path opacity=".75" d="M151.389 278.273s8.316-21.629 14.249-32.844c5.743-11.127 23.375-50.18 52.439-72.787 29.064-22.607 53.133-37.994 95.923-54.255 42.791-16.262 67.257-12.63 78.075-6.601 10.818 6.029 27.028 23.857 32.249 33.266 0 0-8.912-25.552-12.143-33.127-3.335-7.803-13.877-29.866-36.021-36.48-21.952-6.701-54.69.304-80.381 10.123-25.692 9.82-64.001 30.343-81.092 46.381-17.091 16.039-42.87 44.825-48.593 53.475-5.619 8.877-7.702 13.394-6.853 12.732.85-.663 5.429-8.79 6.539-10.394 1.11-1.605 8.896-12.294 11.878-15.851 2.514-3.069 5.911-5.718 6.569-6.294-1.039.75-6.917 7.55-8.963 10.131-1.942 2.807-4.613 7.045-5.168 7.847-.555.802-.331 1.797-1.18 2.459-.849.663-1.23.837-1.594 1.552-.261.942-2.15 2.354-2.792 3.47-.642 1.116-.712 1.971-.886 2.599-.173.628-.919 1.517-.989 2.372-.261.942-.348 1.256-1.197 1.919-.953.435-1.889 1.411-1.959 2.266-.07.855-.625 1.657-1.006 1.832-.381.174-1.906.87-2.166 1.812-.174.628-6.298 11.93-8 16.273-1.891 4.431-2.76 7.571-3.021 8.513-.261.942-.036 1.937-.418 2.111-.468.488-.641 1.116-.538 1.343.208.454.138 1.309-.331 1.797-.468.488-.798 2.285-1.062 6.245-.454 4.048-.628 4.676.992 13.262 1.516 8.359 4.741 21.972 7.44 24.853Zm17.473-53.518c.451-1.029 1.006-1.831 1.457-2.86 3.47-6.523 12.352-22.376 20.188-31.443 10.264-11.822 25.606-28.158 30.788-32.446 5.182-4.289 5.944-4.637 7.295-4.706 1.351-.068.762-.348 3.327-1.794 2.564-1.446 4.801-4.114 5.841-4.863 1.039-.75 11.835-7.877 24.293-14.393 12.648-6.602 33.472-14.472 33.472-14.472s-32.606 14.351-46.053 23.238c-13.638 8.975-18.352 12.775-20.518 14.588-2.167 1.813-18.058 12.914-31.357 29.689-12.189 15.17-21.777 26.957-27.085 36.515-1.093 2.145-1.735 3.261-1.648 2.947Z" fill="#79A5DB"/><path opacity=".75" d="M105.515 307.462c2.629 3.736 6.104 9.829 11.07 14.143 4.966 4.313 20.803 13.26 30.049 15.344 9.246 2.084 29.004 3.479 44.452 3.003 15.535-.79 24.248-3.4 29.046-4.495 4.798-1.095 10.653-2.399 13.632-2.938 2.876-.765 19.229-6.317 25.067-8.162 5.647-1.758 14.829-4.856 19.299-7.173 4.279-2.23 20.877-9.265 23.648-10.258 2.772-.992 10.031-3.76 13.739-5.729 3.708-1.969 10.241-6.325 13.845-8.521 3.604-2.195 22.872-13.469 27.466-18.036 4.403-4.481 6.777-5.84 9.722-7.46 2.755-1.534 4.681-4.882 5.443-5.23.763-.349 12.999-10.878 16.57-14.155 3.57-3.277 14.338-17.524 20.235-26.802 6.001-9.05 11.276-19.69 14.036-27.26 2.761-7.571 5.017-12.716 4.892-26.099-.213-13.069-2.508-21.621-5.893-31.046-3.386-9.425-6.614-20.019-10.832-28.241-4.217-8.221-8.455-13.965-9.943-15.206 0 0 14.057 41.854-1.182 77.07-15.048 35.129-52.539 69.541-107.415 101.2-54.876 31.658-123.374 38.546-140.187 35.531 0 0-.936.977 4.397 1.557 5.524.493 12.278.15 12.278.15s-4.296 1.689-15.638.563c-11.342-1.127-18.96-3.68-24.828-5.936-5.575-2.116-12.55-5.786-17.272-11.583-4.619-5.57-10.308-14.491-13.626-21.752-3.318-7.261-4.352-12.549-4.405-11.153-.054 1.396.834 14.43 3.906 26.193 3.262 11.676 5.801 18.745 8.429 22.481Zm87.606 23.331c7.637.076 12.903-1.507 15.207-2.011 2.304-.504 3.464-.486 5.664-1.217 2.2-.731.034 1.082 2.528.491 2.494-.591 5.544-1.985 9.372-3.185 3.828-1.201 7.603-1.006 11.987-3.009 4.193-1.916 12.645-3.584 17.895-5.709 5.249-2.124 10.689-4.335 14.985-6.024 4.297-1.689 7.951-2.262 11.953-4.091 3.812-1.742 9.165-3.639 5.665-1.217-1.699 1.325-8.837 4.861-12.458 6.516-3.431 1.567-11.555 4.457-14.518 5.537-2.962 1.079-39.029 12.897-45.195 13.52-6.166.623-27.054 3.31-35.938 3.529-8.693.133-15.411-1.46-15.411-1.46s20.627-1.746 28.264-1.67Z" fill="#79A5DB"/><path opacity=".75" d="M107.125 309.469c1.003 1.187-.389-28.075 1.438-37.688 1.828-9.612 14.272-38.34 22.493-50.599 8.22-12.26 36.513-44.115 39.131-46.957 2.427-2.755 4.834-3.032 6.516-4.898 1.682-1.865.432 1.449 2.685-.678 2.253-2.127 19.933-17.886 23.607-20.936 3.674-3.051 17.348-13.962 22.547-17.709 5.199-3.747 44.708-29.207 60.422-36.662 15.905-7.542 44.543-18.982 55.837-22.497 11.295-3.516 26.849-6.783 38.472-9.077 11.622-2.293 23.309.595 30.615 2.468 7.203 1.646 12.463 6.1 17.239 10.501 4.481 4.261 15.621 17.549 19.665 26.399 0 0 .095-9.37-5.451-23.02-5.546-13.649-17.576-36.953-30.039-43.053-12.463-6.1-35.994-10.708-62.722-3.157-26.538 7.463-54.778 19.27-59.352 21.36-4.574 2.09-18.573 8.761-21.431 10.068-2.859 1.306-4.661 2.404-6.845 3.676-2.183 1.272-1.37 2.546-.227 2.024 1.144-.523.659-.576 2.271-1.586 1.611-1.011 2.166-1.813 3.326-1.795 1.161.019 1.732-.243 2.772-.992 1.04-.75 1.715-.784 3.24-1.48 1.525-.697 1.143-.523 2.755-1.534 1.611-1.01 2.805.09 2.805.09s-1.126 1.063-2.651 1.76c-1.525.697-9.148 4.18-10.569 5.104-1.23.836-3.136 1.707-4.574 2.09-1.437.382-2.858 1.306-4.002 1.828-1.143.523-.227 2.024-1.37 2.547-1.144.522-.779-.193-2.304.504-1.525.697-3.119 2.248-4.453 2.858-1.335.61-2.203 3.75-4.109 4.62-1.906.871-2.738 2.074-3.638 1.114-.9-.96-1.368-.472-1.057.209.311.68 1.037 2.269-.193 3.105-1.23.837-2.755 1.533-4.263 2.77-1.508 1.239-5.095 3.975-6.429 4.585-1.334.61-2.789.451-2.789.451s4.367-2.544 6.065-3.869c1.699-1.324 4.143-3.538 2.618-2.842l-4.574 2.09c-1.143.523-1.732.243-3.049 1.394-1.318 1.15-1.578 2.092-3.38 3.19-1.802 1.098-1.873 1.953-3.778 2.824l-3.431 1.567c-.762.349-2.755 1.533-3.985 2.37-1.23.836-.903 2.058-2.133 2.895-1.23.836-5.025 3.119-6.255 3.955-1.231.837-3.016 2.476-4.143 3.539-1.126 1.063-3.102 2.789-4.523 3.713-1.421.923-1.161-.019-3.257.939s-3.083.312-5.597 3.381c-2.514 3.069-1.838 3.034-3.139 4.726-1.3 1.691-4.316 4.166-6.396 5.665-2.079 1.499-2.721 2.615-3.864 3.138-1.144.522-1.906.871-1.301 1.691.605.821-.123 2.251-1.11 1.604-.986-.646-2.217.191-2.217.191-1.681 1.865-3.346 4.272-4.49 4.794-1.143.523-1.698 1.325-3.57 3.278-1.872 1.952-1.872 1.952-3.103 2.789-1.23.836.101 3.245-1.407 4.483-1.508 1.238-4.436 3.399-5.927 5.177-1.491 1.779-2.929 2.161-4.42 3.94-1.491 1.778-1.819.557 2.41-3.296 4.229-3.852 4.005-4.847 2.394-3.837-1.612 1.011-3.173 3.645-5.53 5.545-2.357 1.899-2.912 2.702-3.363 3.731-.451 1.029.726 1.588-.679 3.053-1.404 1.464-3.727 4.446-5.131 5.91-1.404 1.465-4.246 3.312-5.356 4.917-1.11 1.604-2.999 3.016-3.918 4.533-.92 1.517-2.307 3.523-1.545 3.174.763-.348 2.618-2.842 4.3-4.707 1.681-1.866 3.31-2.336 3.31-2.336s-1.665 2.407-3.45 4.046c-1.786 1.638-1.943 2.807-3.347 4.272-1.404 1.464-2.029 3.121-1.457 2.86.571-.261 3.223-2.021 2.113-.417-1.11 1.604-2.705 3.156-4.473 5.336-1.769 2.179-3.089 6.348-3.089 6.348s-.899-.96-.188-2.931c.712-1.971 1.25-3.314-.344-1.763-1.595 1.552-.953.436-2.427 2.755-1.475 2.32-3.885 5.615-5.914 8.737s-2.601 3.383-3.226 5.04-1.214 1.377-.625 1.657c.588.28 1.558.385 1.558.385-1.578 2.093-1.527 3.715-2.741 5.093-1.213 1.377-1.841 6.053-2.848 7.884-1.006 1.832-2.948 4.639-3.383 6.209-.434 1.57-.972 2.913-1.77 5.198-.8 2.285-1.498 7.816-1.828 9.613-.331 1.797-.541 4.362-.387 6.211.154 1.85-.354 7.294.748 14.745-.701 8.549 4.799 33.191 11.184 39.6Zm29.354-109.692c6.312-8.37 15.241-19.582 17.391-21.936 1.959-2.267 10.919-9.378 14.456-13.738 3.641-4.132 15.149-13.231 18.997-16.909 3.848-3.679 28.077-23.253 36.325-28.394 8.248-5.14 31.468-19.865 36.233-22.042 4.573-2.09 8.108-3.43 9.719-4.442 1.612-1.01 3.969-2.91 6.446-4.042 2.478-1.132 3.12-2.249 5.025-3.12l5.718-2.612c2.096-.958 59.337-24.92 70.749-24.649 1.836-.016-35.097 11.924-38.059 13.003-2.963 1.08-26.645 10.255-33.456 15.013-6.914 4.53-28.172 13.97-32.816 16.915-4.834 3.032-36.339 24.835-39.856 26.716-3.517 1.882-17.402 15.358-22.203 19.472-4.61 4.027-23.761 19.086-29.602 23.95-5.84 4.863-12.864 15.204-17.909 20.801-4.854 5.51-20.479 28.285-23.324 33.15-.381.175 9.768-18.452 16.166-27.136Z" fill="#79A5DB"/></svg>