<svg width="583" height="50" fill="none" xmlns="http://www.w3.org/2000/svg"><path d="M1.5 8.25a1.25 1.25 0 1 0 0 2.5v-2.5Zm580.878 1.997a1.25 1.25 0 0 0 .012-1.768L574.485.473a1.25 1.25 0 1 0-1.779 1.757l7.026 7.116-7.116 7.026a1.25 1.25 0 0 0 1.757 1.779l8.005-7.904Zm-577.39.575a1.25 1.25 0 0 0 .103-2.498l-.104 2.498Zm7.238-1.882a1.25 1.25 0 0 0-.33 2.478l.33-2.478Zm6.472 3.72a1.25 1.25 0 1 0 .57-2.434l-.57 2.434Zm7.453-.461a1.25 1.25 0 1 0-.805 2.367l.805-2.367Zm5.649 4.894a1.25 1.25 0 0 0 1.011-2.287L31.8 17.093Zm7.421.839a1.25 1.25 0 0 0-1.17 2.209l1.17-2.21Zm4.917 5.635a1.25 1.25 0 0 0 1.272-2.152l-1.272 2.152Zm7.313 1.52a1.25 1.25 0 1 0-1.316 2.127l1.316-2.126Zm4.682 5.834a1.25 1.25 0 0 0 1.304-2.133l-1.304 2.133Zm7.328 1.45a1.25 1.25 0 0 0-1.244 2.169l1.244-2.169Zm4.994 5.566a1.25 1.25 0 1 0 1.14-2.225l-1.14 2.225Zm7.434.774A1.25 1.25 0 1 0 74.884 41l1.005-2.29Zm5.623 4.934a1.25 1.25 0 1 0 .846-2.353l-.846 2.353Zm7.456-.238a1.25 1.25 0 1 0-.677 2.406l.677-2.406Zm6.255 4.095a1.25 1.25 0 1 0 .507-2.448l-.507 2.448Zm7.362-1.264a1.25 1.25 0 0 0-.346 2.476l.346-2.476Zm6.747 3.247a1.25 1.25 0 1 0 .196-2.492l-.196 2.492Zm7.141-2.136a1.25 1.25 0 0 0-.062 2.5l.062-2.5Zm6.962 2.498a1.25 1.25 0 1 0-.067-2.5l.067 2.5Zm6.619-2.857a1.25 1.25 0 1 0 .2 2.491l-.2-2.491Zm7.003 1.762a1.25 1.25 0 1 0-.331-2.477l.331 2.477Zm6.294-3.537a1.25 1.25 0 0 0 .457 2.458l-.457-2.458Zm7.135 1.05a1.25 1.25 0 1 0-.572-2.433l.572 2.434Zm5.938-4.113a1.25 1.25 0 1 0 .675 2.407l-.675-2.407Zm7.203.442a1.251 1.251 0 0 0-.763-2.38l.763 2.38Zm5.616-4.537a1.25 1.25 0 1 0 .835 2.356l-.835-2.356Zm7.217.003a1.25 1.25 0 0 0-.89-2.336l.89 2.336Zm5.398-4.797a1.25 1.25 0 1 0 .929 2.32l-.929-2.32Zm7.213-.232a1.25 1.25 0 0 0-.95-2.313l.95 2.313Zm5.309-4.896a1.25 1.25 0 1 0 .955 2.31l-.955-2.31Zm7.212-.262a1.25 1.25 0 1 0-.943-2.315l.943 2.315Zm5.356-4.842a1.25 1.25 0 0 0 .916 2.326l-.916-2.326Zm7.221-.095a1.25 1.25 0 0 0-.874-2.343l.874 2.343Zm5.522-4.646a1.25 1.25 0 1 0 .818 2.363l-.818-2.363Zm7.214.248a1.25 1.25 0 1 0-.749-2.385l.749 2.386Zm5.79-4.32a1.25 1.25 0 1 0 .668 2.409l-.668-2.409Zm7.174.732a1.25 1.25 0 1 0-.578-2.432l.578 2.432Zm6.089-3.877a1.25 1.25 0 1 0 .48 2.453l-.48-2.453Zm7.106 1.3a1.25 1.25 0 1 0-.376-2.47l.376 2.47Zm6.393-3.352a1.25 1.25 0 0 0 .269 2.486l-.269-2.486Zm6.954 1.909a1.25 1.25 0 0 0-.161-2.495l.161 2.495Zm6.654-2.786a1.25 1.25 0 0 0 .054 2.5l-.054-2.5Zm6.863 2.505a1.25 1.25 0 0 0 .061-2.5l-.061 2.5Zm6.995-2.165a1.25 1.25 0 1 0-.18 2.493l.18-2.493Zm6.617 3.145a1.25 1.25 0 0 0 .296-2.483l-.296 2.482Zm7.176-1.503a1.25 1.25 0 0 0-.407 2.466l.407-2.466Zm6.312 3.723a1.25 1.25 0 1 0 .51-2.447l-.51 2.447Zm7.267-.9a1.25 1.25 0 0 0-.604 2.427l.604-2.426Zm6.013 4.199a1.25 1.25 0 1 0 .687-2.404l-.687 2.404Zm7.317-.399a1.251 1.251 0 0 0-.759 2.382l.759-2.382Zm5.748 4.545a1.25 1.25 0 0 0 .816-2.363l-.816 2.363Zm7.329-.04a1.25 1.25 0 1 0-.861 2.348l.861-2.347Zm5.573 4.762a1.25 1.25 0 1 0 .893-2.334l-.893 2.335Zm7.326.158a1.25 1.25 0 0 0-.912 2.328l.912-2.328Zm5.499 4.848a1.25 1.25 0 0 0 .916-2.326l-.916 2.326Zm7.325.184a1.25 1.25 0 1 0-.905 2.33l.905-2.33Zm5.539 4.802a1.25 1.25 0 0 0 .882-2.34l-.882 2.34Zm7.328.035a1.25 1.25 0 1 0-.844 2.353l.844-2.353Zm5.693 4.618a1.25 1.25 0 0 0 .791-2.372l-.791 2.372Zm7.321-.292a1.25 1.25 0 0 0-.724 2.393l.724-2.393Zm5.942 4.29a1.251 1.251 0 0 0 .643-2.415l-.643 2.416Zm7.287-.784a1.25 1.25 0 1 0-.548 2.44l.548-2.44Zm6.255 3.814a1.25 1.25 0 1 0 .44-2.46l-.44 2.46Zm7.19-1.415a1.25 1.25 0 1 0-.323 2.479l.323-2.48Zm6.594 3.204a1.25 1.25 0 0 0 .197-2.492l-.197 2.492Zm7.003-2.13a1.249 1.249 0 1 0-.066 2.498l.066-2.499Zm6.927 2.493a1.25 1.25 0 0 0-.075-2.5l.075 2.5Zm6.735-2.904a1.25 1.25 0 1 0 .222 2.49l-.222-2.49Zm7.16 1.667a1.25 1.25 0 0 0-.366-2.474l.366 2.474Zm6.363-3.66a1.249 1.249 0 1 0 .501 2.448l-.501-2.449Zm7.292.876a1.249 1.249 0 1 0-.624-2.42l.624 2.42Zm5.967-4.284a1.25 1.25 0 0 0 .732 2.39l-.732-2.39Zm7.34.221a1.25 1.25 0 1 0-.824-2.36l.824 2.36Zm5.622-4.728a1.25 1.25 0 1 0 .898 2.333l-.898-2.334Zm7.34-.237a1.25 1.25 0 1 0-.952-2.311l.952 2.311Zm5.395-4.988a1.251 1.251 0 0 0 .988 2.297l-.988-2.296Zm7.329-.463a1.25 1.25 0 1 0-1.004-2.29l1.004 2.29Zm5.32-5.068a1.25 1.25 0 0 0 1.003 2.29l-1.003-2.29Zm7.33-.454a1.25 1.25 0 0 0-.983-2.299l.983 2.299Zm5.408-4.974a1.25 1.25 0 0 0 .944 2.315l-.944-2.315Zm7.341-.207a1.25 1.25 0 0 0-.887-2.338l.887 2.337Zm5.646-4.701a1.25 1.25 0 1 0 .811 2.365l-.811-2.365Zm7.338.264a1.25 1.25 0 0 0-.717-2.394l.717 2.394Zm5.996-4.243a1.25 1.25 0 1 0 .607 2.425l-.607-2.425Zm7.285.93a1.25 1.25 0 0 0-.483-2.453l.483 2.452Zm6.39-3.614a1.25 1.25 0 0 0 .348 2.476l-.348-2.476Zm7.149 1.72a1.25 1.25 0 0 0-.204-2.492l.204 2.491Zm6.754-2.858a1.25 1.25 0 1 0 .058 2.5l-.058-2.5ZM1.5 10.75c1.187 0 2.349.024 3.487.072l.104-2.498A86.385 86.385 0 0 0 1.5 8.25v2.5Zm10.396.668c2.365.314 4.626.733 6.802 1.242l.57-2.434a73.23 73.23 0 0 0-7.042-1.286l-.33 2.478Zm13.45 3.148a77.936 77.936 0 0 1 6.454 2.527l1.011-2.287a80.422 80.422 0 0 0-6.66-2.607l-.805 2.367Zm12.705 5.575a149.37 149.37 0 0 1 6.087 3.426l1.272-2.152a151.997 151.997 0 0 0-6.189-3.483l-1.17 2.209Zm12.084 7.073c1.975 1.222 3.972 2.468 5.998 3.707l1.304-2.133c-2.018-1.235-4.001-2.471-5.986-3.7l-1.316 2.126Zm12.082 7.326a151.358 151.358 0 0 0 6.238 3.397l1.14-2.225a148.726 148.726 0 0 1-6.134-3.34l-1.244 2.168ZM74.884 41c2.126.932 4.33 1.819 6.628 2.645l.846-2.353a101.597 101.597 0 0 1-6.47-2.581L74.885 41Zm13.407 4.813c2.222.625 4.528 1.19 6.932 1.689l.507-2.448a99.684 99.684 0 0 1-6.762-1.647l-.677 2.406Zm13.948 2.901c2.28.319 4.641.578 7.093.771l.196-2.492c-2.402-.19-4.714-.443-6.943-.755l-.346 2.476Zm14.172 1.135c1.177.029 2.373.044 3.589.044v-2.5c-1.196 0-2.371-.015-3.527-.044l-.062 2.5Zm3.589.044a128.4 128.4 0 0 0 3.435-.046l-.067-2.5c-1.114.03-2.236.046-3.368.046v2.5Zm10.254-.412a129.4 129.4 0 0 0 6.803-.729l-.331-2.477c-2.192.293-4.415.533-6.672.715l.2 2.491Zm13.554-1.808c2.256-.42 4.48-.89 6.678-1.407l-.572-2.434c-2.162.508-4.348.971-6.563 1.383l.457 2.458Zm13.291-3.114a185.247 185.247 0 0 0 6.528-1.965l-.763-2.38c-2.13.683-4.275 1.33-6.44 1.938l.675 2.407Zm12.979-4.146c2.14-.759 4.266-1.545 6.382-2.353l-.89-2.336c-2.101.802-4.209 1.581-6.327 2.333l.835 2.356Zm12.709-4.83c2.097-.839 4.191-1.692 6.284-2.552l-.95-2.313a744.44 744.44 0 0 1-6.263 2.545l.929 2.32Zm12.548-5.138a1323.1 1323.1 0 0 1 6.257-2.572l-.943-2.315c-2.1.856-4.189 1.717-6.269 2.577l.955 2.31Zm12.529-5.088c2.086-.822 4.186-1.63 6.305-2.421l-.874-2.343a376.768 376.768 0 0 0-6.347 2.438l.916 2.326Zm12.645-4.704c2.109-.73 4.239-1.437 6.396-2.114l-.749-2.386c-2.182.685-4.335 1.4-6.465 2.137l.818 2.363Zm12.854-4.026a180.137 180.137 0 0 1 6.506-1.677l-.578-2.432a182.55 182.55 0 0 0-6.596 1.7l.668 2.409Zm13.075-3.1c2.175-.426 4.382-.812 6.626-1.153l-.376-2.472a162.19 162.19 0 0 0-6.73 1.17l.48 2.454Zm13.288-2.02c2.192-.238 4.419-.431 6.685-.577l-.161-2.495a157.05 157.05 0 0 0-6.793.586l.269 2.486Zm13.393-.864c1.117-.024 2.244-.036 3.381-.036v-2.5c-1.154 0-2.299.012-3.435.037l.054 2.5Zm3.381-.036c1.15 0 2.293.014 3.428.042l.061-2.5a144.287 144.287 0 0 0-3.489-.042v2.5Zm10.243.37c2.293.166 4.558.384 6.797.652l.296-2.483c-2.276-.272-4.58-.494-6.913-.662l-.18 2.493Zm13.566 1.615c2.264.374 4.503.795 6.719 1.257l.51-2.447c-2.249-.47-4.522-.897-6.822-1.276l-.407 2.466Zm13.382 2.784c2.225.554 4.43 1.146 6.617 1.772l.687-2.404a201.451 201.451 0 0 0-6.7-1.794l-.604 2.426Zm13.175 3.755c2.184.695 4.351 1.418 6.507 2.163l.816-2.363c-2.172-.75-4.36-1.48-6.564-2.182l-.759 2.382Zm12.975 4.47c2.153.791 4.297 1.598 6.434 2.416l.893-2.335c-2.145-.821-4.3-1.632-6.466-2.427l-.861 2.347Zm12.848 4.901c2.14.838 4.275 1.68 6.411 2.52l.916-2.326c-2.134-.84-4.273-1.683-6.415-2.522l-.912 2.328Zm12.831 5.035c2.144.833 4.292 1.66 6.444 2.47l.882-2.338a676.663 676.663 0 0 1-6.421-2.462l-.905 2.33Zm12.928 4.859c2.169.778 4.347 1.535 6.537 2.265l.791-2.372c-2.17-.723-4.33-1.474-6.484-2.246l-.844 2.353Zm13.134 4.366c2.206.668 4.427 1.302 6.666 1.898l.643-2.416a201.44 201.44 0 0 1-6.585-1.875l-.724 2.393Zm13.405 3.553c2.246.504 4.513.964 6.803 1.374l.44-2.46a156.357 156.357 0 0 1-6.695-1.354l-.548 2.44Zm13.67 2.438c2.28.297 4.585.54 6.917.725l.197-2.492a135.16 135.16 0 0 1-6.791-.712l-.323 2.479Zm13.854 1.093c1.156.031 2.319.047 3.489.047v-2.5c-1.148 0-2.289-.016-3.423-.046l-.066 2.5Zm3.489.047c1.177 0 2.345-.018 3.504-.052l-.075-2.5c-1.134.035-2.277.052-3.429.052v2.5Zm10.461-.466c2.348-.21 4.66-.486 6.938-.823l-.366-2.474c-2.232.33-4.495.602-6.794.807l.222 2.49Zm13.802-2.035c2.294-.47 4.557-.996 6.791-1.572l-.624-2.42a135.128 135.128 0 0 1-6.668 1.543l.501 2.45Zm13.49-3.465a179.923 179.923 0 0 0 6.608-2.17l-.824-2.36a178.6 178.6 0 0 1-6.516 2.14l.732 2.39Zm13.128-4.565c2.162-.832 4.308-1.691 6.442-2.57l-.952-2.311a289.803 289.803 0 0 1-6.388 2.547l.898 2.334Zm12.825-5.26c2.12-.912 4.232-1.836 6.341-2.761l-1.004-2.29a938.082 938.082 0 0 1-6.325 2.754l.988 2.296Zm12.664-5.54c2.107-.922 4.214-1.84 6.327-2.743l-.983-2.299a796.306 796.306 0 0 0-6.347 2.753l1.003 2.29Zm12.679-5.402a277.948 277.948 0 0 1 6.397-2.523l-.887-2.337a279.438 279.438 0 0 0-6.454 2.545l.944 2.315Zm12.854-4.858c2.155-.74 4.33-1.442 6.527-2.1l-.717-2.395a176.754 176.754 0 0 0-6.621 2.13l.811 2.365Zm13.13-3.919c2.198-.55 4.423-1.051 6.678-1.496l-.483-2.452c-2.299.452-4.565.963-6.802 1.523l.607 2.425Zm13.416-2.633c2.234-.314 4.499-.568 6.801-.757l-.204-2.491c-2.351.192-4.665.452-6.945.772l.348 2.476Zm13.613-1.114a116.53 116.53 0 0 1 3.43-.029l.016-2.5a118.92 118.92 0 0 0-3.504.03l.058 2.499Z" fill="#FFCA42"/></svg>