<svg width="96" height="33" fill="none" xmlns="http://www.w3.org/2000/svg"><g clip-path="url(#a)" fill="#FFCA42"><path opacity=".75" d="M1.085 8.261c.422-1.095 2.058-3.877 4.997-3.165 2.935.835 8.716 1.27 10.782 1.091 1.938-.183 39.978-1.655 43.46-1.788 3.481-.133 22.561-.743 24.374-1.054 1.942-.307 4.157-1.097 5.922.07 1.77 1.043 2.232 2.66 2.32 3.896-.04 1.23 1.307 3.37 1.786 4.495.482 1.001 1.154 4.104.587 5.688-.567 1.584-1.37 2.543-3.103 4.335-1.6 1.674-1.773 3.024-3.228 4.209-1.456 1.185-2.585.285-4.133.358-1.548.073-3.594-.364-5.395-.422-1.802-.059-29.111.16-35.05.583-5.809.427-17.825 1.637-22.22 2.11-4.393.473-9.294.683-11.88.969-2.584.285-5.957 1.038-7.947-1.122C.367 26.354.257 17.847.49 14.65c.237-3.32.595-6.389.595-6.389Z"/><path opacity=".75" d="M92.842 6.322c-.864-1.138.068-2.093-2.223-2.907-2.288-.938-3.28 1.865-3.216 3.839.064 1.974-.744 3.056-1.946 4.373-1.202 1.316-.988 2.679-.94 5.145.048 2.467-.414 4.793.587 5.689 1.001.895 2.405 5.254 4.009 3.458 1.6-1.673 2.014-2.523 3.228-4.209 1.085-1.69 3.312-2.85 3.103-4.335-.213-1.363.229-3.074-.37-4.449-.595-1.498-.728-1.38-1.323-2.877-.728-1.38-.909-3.727-.909-3.727Z"/></g><defs><clipPath id="a"><path fill="#fff" transform="rotate(1.867 .483 29.675)" d="M0 0h94.994v29.686H0z"/></clipPath></defs></svg>