<svg width="316" height="238" fill="none" xmlns="http://www.w3.org/2000/svg"><g clip-path="url(#a)"><path opacity=".75" d="M73.47 21.919c-.025-.192-.007-.718.459-.83.475-.095 1.319-.457 1.595-.635.258-.17 5.48-3.185 5.959-3.461.478-.276 3.107-1.77 3.337-1.949.25-.187.5-.466.836-.425.328.022.516.224.622.398.089.183.44.396.593.525.144.11.475.514.516.787.041.273.002.472-.105.862-.097.362-.018.572-.132.852s-.34.232-.552.357c-.212.124-.532.211-.789.335-.257.124-4.07 2.167-4.87 2.666-.783.49-2.376 1.551-2.956 1.944-.58.393-1.251.784-1.592 1.016-.34.232-.757.59-1.2.421-.444-.169-1.107-1.403-1.318-1.887-.22-.502-.404-.976-.404-.976Z" fill="#FFC327"/></g><g clip-path="url(#b)"><path opacity=".75" d="M58.272 14.685c-.137-.135-.448-.561-.15-.937.317-.367.758-1.172.866-1.482.099-.293 2.355-5.885 2.562-6.397.207-.512 1.358-3.308 1.43-3.591.08-.301.106-.675.396-.85.271-.185.544-.141.735-.07.182.09.59.04.79.048.182-.001.691.113.892.303.2.19.292.371.448.743.147.345.338.462.42.753.084.29-.125.393-.215.621-.09.229-.288.494-.414.75s-1.872 4.214-2.195 5.1a140.61 140.61 0 0 0-1.13 3.352c-.216.667-.504 1.389-.63 1.782-.125.392-.232.93-.685 1.07-.454.141-1.737-.423-2.2-.674-.483-.26-.92-.52-.92-.52Z" fill="#FFC327"/></g><g clip-path="url(#c)"><path opacity=".75" d="M42.139 15.33c-.19-.035-.686-.213-.65-.69.055-.482-.033-1.396-.118-1.714-.083-.297-1.362-6.19-1.48-6.73-.116-.54-.737-3.499-.837-3.773-.103-.294-.292-.618-.15-.926.12-.305.37-.423.568-.471.201-.028.511-.298.681-.404.15-.104.635-.296.907-.252.273.045.45.143.789.363.315.203.539.192.771.386.232.194.117.395.171.635.055.239.04.57.08.853.04.283.822 4.537 1.053 5.452.228.894.753 2.735.95 3.407.197.673.365 1.431.482 1.826.117.396.331.9.035 1.272-.296.37-1.674.626-2.199.68-.545.056-1.053.086-1.053.086Z" fill="#FFC327"/></g><g clip-path="url(#d)"><path opacity=".75" d="M27.142 22.358c-.176.078-.686.212-.927-.202-.227-.428-.816-1.133-1.066-1.346-.236-.199-4.623-4.336-5.025-4.715-.401-.379-2.587-2.469-2.824-2.639-.251-.184-.59-.344-.648-.678-.073-.32.067-.558.203-.71.15-.137.253-.535.333-.719.065-.17.356-.602.606-.72s.452-.137.855-.147c.375-.01.554-.146.855-.118.3.029.32.26.5.427.18.167.355.449.548.66.192.21 3.243 3.277 3.95 3.9.695.61 2.169 1.83 2.711 2.274.543.443 1.11.974 1.43 1.233.32.26.783.556.748 1.03-.034.473-1.026 1.462-1.43 1.803-.417.355-.82.667-.82.667Z" fill="#FFC327"/></g><g clip-path="url(#e)"><path opacity=".75" d="M22.299 36.784c-.07.18-.335.635-.8.512-.462-.143-1.377-.225-1.704-.2-.308.027-6.336.198-6.888.213-.551.016-3.575.08-3.863.128-.308.047-.66.173-.937-.022-.278-.175-.348-.443-.359-.646.01-.203-.199-.558-.272-.744-.074-.166-.173-.678-.08-.938.094-.26.224-.416.502-.708.258-.273.288-.495.522-.687.233-.193.41-.042.655-.051.245-.01.568.066.854.08.285.012 4.61.027 5.552-.031.921-.06 2.827-.236 3.524-.306.697-.07 1.474-.095 1.884-.137.41-.042.946-.16 1.256.2.31.359.307 1.76.263 2.286-.045.547-.11 1.051-.11 1.051Z" fill="#FFC327"/></g><g clip-path="url(#f)"><path opacity=".75" d="M29.591 50.216c.054.185.12.707-.323.892-.454.168-1.23.658-1.475.878-.228.208-4.91 4.008-5.34 4.356-.428.347-2.789 2.237-2.988 2.45-.217.224-.42.539-.759.552-.327.03-.544-.14-.677-.295-.116-.167-.497-.322-.668-.425-.16-.087-.55-.434-.633-.697-.084-.263-.076-.466-.033-.867.04-.373-.072-.568-.003-.862.068-.295.3-.283.489-.44.19-.156.492-.292.726-.455.234-.163 3.678-2.78 4.39-3.4a140.52 140.52 0 0 0 2.612-2.385c.511-.48 1.113-.971 1.413-1.254.3-.283.654-.702 1.118-.605.465.097 1.315 1.21 1.6 1.656.295.461.551.9.551.9Z" fill="#FFC327"/></g><g clip-path="url(#g)"><path opacity=".75" d="M40.931 53.413c.152.12.51.506.257.914-.272.401-.618 1.252-.689 1.573-.064.301-1.66 6.117-1.806 6.65-.147.531-.967 3.442-1.006 3.731-.045.309-.027.683-.295.89-.248.215-.524.203-.722.155-.192-.068-.592.027-.791.043-.18.022-.7-.032-.92-.198-.222-.165-.333-.335-.531-.687-.186-.325-.39-.42-.505-.698-.116-.28.08-.405.142-.642.063-.238.23-.525.325-.793.096-.27 1.373-4.402 1.592-5.32.212-.898.6-2.773.736-3.46.137-.687.34-1.437.418-1.842.08-.404.124-.951.558-1.143.434-.192 1.774.22 2.264.416.51.203.974.411.974.411Z" fill="#FFC327"/></g><g clip-path="url(#h)"><path opacity=".75" d="M56.275 51.066c.192.017.703.146.714.625-.01.485.166 1.386.282 1.694.11.288 1.951 6.03 2.12 6.556.168.526 1.07 3.412 1.196 3.675.131.283.35.587.24.907-.092.316-.329.457-.521.524-.198.047-.48.346-.64.468-.138.117-.602.355-.878.337-.275-.017-.462-.098-.82-.285-.333-.171-.555-.139-.805-.31-.25-.17-.154-.382-.231-.615-.077-.233-.094-.564-.16-.842-.068-.277-1.256-4.436-1.574-5.325-.313-.868-1.013-2.65-1.274-3.3-.26-.65-.5-1.389-.655-1.771-.155-.382-.417-.864-.158-1.262.26-.398 1.606-.785 2.124-.889.537-.108 1.04-.187 1.04-.187Z" fill="#FFC327"/></g><g clip-path="url(#i)"><path opacity=".75" d="M69.932 47.076c.189-.04.715-.07.868.385.136.465.57 1.273.773 1.533.191.242 3.656 5.178 3.973 5.63.317.451 2.037 2.938 2.235 3.152.21.232.509.457.498.795.007.329-.177.534-.341.655-.175.104-.356.474-.47.637-.098.153-.471.518-.74.583-.268.066-.47.044-.867-.028-.37-.065-.572.032-.86-.056-.29-.089-.262-.32-.405-.519-.142-.2-.257-.511-.404-.756-.146-.245-2.517-3.863-3.085-4.617a140.929 140.929 0 0 0-2.197-2.772c-.442-.543-.892-1.177-1.153-1.496-.26-.32-.654-.701-.525-1.158.129-.457 1.3-1.227 1.763-1.48.48-.263.937-.488.937-.488Z" fill="#FFC327"/></g><g clip-path="url(#j)"><path opacity=".75" d="M77.207 35.339c.142-.13.58-.422.943-.108.352.332 1.137.81 1.443.93.287.112 5.775 2.614 6.277 2.843.502.23 3.245 1.503 3.524 1.587.297.094.67.136.832.433.172.28.117.55.037.738-.098.178-.067.588-.083.787-.007.182-.144.685-.342.877-.198.192-.384.276-.762.415-.352.132-.477.317-.771.387-.294.07-.387-.142-.611-.242-.224-.1-.48-.31-.731-.448-.25-.137-4.127-2.056-4.998-2.418a140.587 140.587 0 0 0-3.299-1.278c-.656-.244-1.365-.564-1.752-.706-.386-.143-.92-.274-1.04-.733-.12-.46.5-1.716.772-2.169.281-.47.561-.895.561-.895Z" fill="#FFC327"/></g><g clip-path="url(#k)" fill="#FFC327"><path opacity=".75" d="M48.326 21.833c.67 0 .973.084 1.406.084.433 0 .584-.084.584-.21 0-.125-.346.042 0-.125.347-.168.347-.168.347-.335 0-.168.432-.21.26-.377-.174-.167-.217-.377-.217-.377s.13 0 .13-.292c0-.294-.173-.524-.476-.607-.303-.084-2.034-.733-3.354-.377-1.32.335-4.826 1.507-6.492 2.49-1.688.942-6.34 4.584-7.833 6.3-1.514 1.695-3.354 4.646-3.851 6.76-.476 2.092-.173 4.813.39 6.236l.583 1.402s-.519-3.704-.043-5.462c.476-1.758.757-2.218.887-2.449.13-.209.476-1.109.844-1.674.346-.544 2.51-3.286 3.57-4.227 1.06-.942 3.484-3.035 4.999-3.935 1.493-.9 3.635-1.925 5.042-2.302 1.406-.377 3.224-.523 3.224-.523ZM45.38 47.386c.086-.021.302-.042.454-.042.151 0 .368-.02.476-.02.108 0 .13.041.216-.022.087-.063.108-.02.195-.02.087 0 .346-.022.433-.022.086 0 .043-.083.108-.083.087 0 .087 0 .281-.021.195-.021.238 0 .368-.021.108-.021.238-.042.238-.021.022.042-.022.042-.086.042-.065.02-.217.02-.303.042-.065.02-.13.02-.238.02-.109-.02-.109.063-.195.063-.087 0-.26.021-.39.042s-.216 0-.303.021c-.086.021-.151.063-.26.042-.107-.021-.324.02-.432.02-.108 0-.151-.02-.303 0-.151.022-.151.022-.281.043-.087 0 .021-.063.021-.063ZM48.996 46.967c.152 0 .563-.083.736-.125.173-.042.281-.063.368-.063.086-.02.151-.042.173 0 .021.042 0 .084-.13.105-.13.02-.108.02-.238.02s-.216.042-.325.042c-.108 0-.216.042-.28.042-.066.021-.044 0-.13.021-.087 0-.239-.042-.174-.042ZM50.638 46.716c.065 0 .368-.042.498-.084.151-.041.39-.083.498-.104.108-.021.238-.042.476-.105.216-.063.41-.063.562-.105.152-.041.152-.062.325-.104.195-.042.454-.063.368-.021-.065.042-.173.063-.303.105-.152.041-.346.146-.455.146-.086 0-.324 0-.39.042-.064.042-.237.084-.345.105-.109.02-.173.02-.347.062-.173.042-.216.042-.303.084-.086.042-.108.063-.238.063-.13.02-.194.02-.324.02-.108-.02-.022-.104-.022-.104Z"/><path opacity=".75" d="M70.352 30.685c0 1.319-1.06 3.851-2.035 5.002-.973 1.151-3.635 3.16-6.015 4.227-2.38 1.068-9.91 3.642-15.082 4.019-5.171.376-9.283-.042-13.307-1.549-4.025-1.465-5.107-7.157-5.215-6.822-.238.69-.13 3.474.216 4.646.346 1.15.974 2.7 2.186 3.83 1.233 1.13 2.618 1.841 3.05 1.988.455.146 1.645.606 1.948.648.303.042.844.21 1.32.272.498.084 1.493.252 2.142.293.65.042 1.775.147 2.25.147.477 0 2.705.042 2.922.042.216 0 .108-.126-.044-.126-.151 0-.54.084-1.038.042-.498-.021-1.233-.021-1.493-.021s-1.515-.105-1.753-.126c-.238-.02-1.666-.209-2.034-.23-.368-.02-1.493-.272-1.666-.293-.173-.02-.346-.167-.216-.23.13-.042.476 0 .735.105.26.104.996.23 1.515.293.52.083 1.688.272 2.38.25.671-.02 2.489.022 2.683.022.217 0 .238.02.39.02.151 0 .238-.02.216-.167-.021-.146.303-.125.585-.125.26 0-.022.104.238.167.26.084.41-.02.757-.042.346-.02.26-.104.368-.104.108 0 .086-.168.303-.21.238-.02.54.021.367.042-.173.021-.238.147.044.147.281 0 .26-.021.584-.084.303-.042.498-.042.714-.126.216-.083.26.021.541.021s.974-.23 1.277-.23c.303 0 .303-.042.497-.105.173-.041.282-.041.476-.083.173-.021.238 0 .498-.084s.368-.167.779-.23c.411-.042 0 0 .087 0 .086 0 .757-.168.93-.21.173-.02.346-.02.238-.104-.108-.084.043-.167.216-.21.152-.02.412-.209.585-.209.151 0 0 .147-.282.23-.28.084-.303.21-.151.147.151-.042.39-.105.779-.23.39-.126.736-.126.865-.168.13-.041.087-.125.087-.23 0-.104.216-.042.368-.125.151-.084.368-.105.627-.168.26-.084.628-.146.411-.084-.216.084-.086.168.13.126.217-.042.238-.126.368-.146.13-.021.13-.021.13-.168 0-.146.216-.042.281.042.087.105.26-.084.498-.293.216-.21 0 0 .13-.042s.216-.084.432-.125c.217-.042.217.041.347-.042.13-.084.216-.21.432-.251.217-.042.39.041.585-.042.173-.084.584-.21 1.19-.607.627-.377 4.154-2.135 4.457-2.26.303-.126.26-.335.347-.46.086-.126.389-.084.389-.084l.303-.335c.303-.335.13-.293.26-.523.13-.21.216.083.432-.084.217-.168.39-.523.887-1.151.477-.649.801-1.633.801-1.633 1.515-3.913.758-5.797.758-5.797Zm-6.946 9.46c-.585.272-1.861.858-2.12.962-.26.105-.52.084-.607.168-.086.105-.238.125-.346.167-.108.042-.303.105-.498.21-.173.104-1.363.523-1.904.711-.54.168-2.64.774-3.137.942-.498.146-1.861.46-2.402.523-.541.084-.52.167-.736.23-.216.042-.022.147-.238.147s-.974.167-1.233.209c-.26.021-.412 0-.606 0-.173 0-.476 0-.541.021-.087.02-.26.084-.39.105-.13.02-.41.02-1.06.104-.65.084-1.515.042-1.385.021 0 0 2.662-.356 2.965-.377.303-.02 3.981-.837 4.435-.878.433-.042 4.285-1.13 5.561-1.612a72.972 72.972 0 0 0 4.306-1.842c.78-.376.996-.502.996-.502s-.498.419-1.06.69Z"/><path opacity=".75" d="M68.12 26.918c-1.6-1.423-2.184-1.82-2.4-1.946a120.39 120.39 0 0 0-1.472-.816 38.617 38.617 0 0 0-1.082-.565s-1.948-.774-2.272-.9c-.303-.126-2.792-.942-4.63-1.235-1.84-.293-3.052-.502-3.853-.502-.8 0-1.103-.063-1.514-.063-.411 0-5.583.356-6.773.565-1.19.21-3.31.565-3.787.67-.497.104-2.986.983-3.419 1.15-.41.168-2.445 1.487-2.64 1.612-.216.126-1.016 1.005-1.211 1.319-.217.293-.455.9-.52 1.276-.064.377-.13 2.219 0 2.763.174.649.066 1.067.217 1.277.13.209.346.125.498.334.13.21.281.272.41 0 .13-.272.628-.607.628-.941 0-.335.065-1.34.065-1.34s.282-1.549 1.039-1.946c.757-.398 6.253-1.884 7.097-2.156.844-.272 5.843-1.004 7.033-1.004 1.947 0 5.56.272 8.915 1.067 1.882.46 6.166 2.365 7.27 3.16 1.104.816 2.683 2.365 3.03 3.307.346.942.757 2.553.627 3.704-.13 1.151 0 1.423.346.607.346-.816.844-2.762.844-3.913 0-1.193-.844-4.082-2.445-5.484Zm-8.157-3.683c-.627-.23-2.467-.67-2.748-.732-.281-.063-1.471-.273-2.012-.377a21.744 21.744 0 0 0-2.402-.272c-.8-.042-1.666-.105-2.164-.105-.498 0-1.19-.063-1.385-.063-.216 0 .282-.041.347-.062.194-.084 1.644-.063 1.817-.063.173 0 2.186.21 2.445.21.238 0 2.748.397 2.748.397.563.042 3.484.942 3.787 1.067.281.146.195.251-.433 0Zm2.662 1.151s-.195-.146-.325-.21c-.13-.083-.324-.146-.476-.23-.151-.083-.368-.23-.368-.23.108.042.758.272.91.377.129.084.475.335.259.293Z"/></g><circle cx="10" cy="228" r="10" fill="#FA8D8D" fill-opacity=".51"/><circle cx="30" cy="161" r="5" fill="#87A3E3"/><circle cx="311" cy="17" r="5" fill="#87A3E3"/><defs><clipPath id="a"><path fill="#fff" transform="rotate(-25.759 81.723 -148.888)" d="M0 0h15.046v4.89H0z"/></clipPath><clipPath id="b"><path fill="#fff" transform="rotate(-63.781 39.876 -38.756)" d="M0 0h15.046v4.89H0z"/></clipPath><clipPath id="c"><path fill="#fff" transform="rotate(-98.002 27.172 -9.943)" d="M0 0h15.046v4.89H0z"/></clipPath><clipPath id="d"><path fill="#fff" transform="rotate(-132.433 18.229 5.891)" d="M0 0h15.046v4.89H0z"/></clipPath><clipPath id="e"><path fill="#fff" transform="rotate(-165.501 13.303 18.433)" d="M0 0h15.046v4.89H0z"/></clipPath><clipPath id="f"><path fill="#fff" transform="rotate(145.18 7.166 30.418)" d="M0 0h15.046v4.89H0z"/></clipPath><clipPath id="g"><path fill="#fff" transform="rotate(109.589 2.131 41.804)" d="M0 0h15.046v4.89H0z"/></clipPath><clipPath id="h"><path fill="#fff" transform="rotate(76.475 -3.373 61.882)" d="M0 0h15.046v4.89H0z"/></clipPath><clipPath id="i"><path fill="#fff" transform="rotate(59.178 -5.258 85.745)" d="M0 0h15.046v4.89H0z"/></clipPath><clipPath id="j"><path fill="#fff" transform="rotate(28.753 -27.648 168.837)" d="M0 0h15.046v4.89H0z"/></clipPath><clipPath id="k"><path fill="#fff" transform="translate(28.566 19.091)" d="M0 0h42v28.378H0z"/></clipPath></defs></svg>