<svg width="52" height="79" fill="none" xmlns="http://www.w3.org/2000/svg"><path opacity=".75" d="M35.967 51.688c.72-.752 2.066-2.668 3.028-3.935.962-1.267 2.459-1.693 2.69-1.417.193.27 1.404 2.767 1.54 2.909.134.14.02.597-.302.861-.314.225-1.212 1.106-1.347 1.203-.141.135-6.592 5.604-8.684 7-2.093 1.397-5.874 4.139-7.672 5.188-1.797 1.05-6.876 3.735-8.873 4.791-2.035 1.05-4.931 2.274-6.73 2.848-1.798.574-2.581.761-3.102.794-.52.033-.931.123-1.22.194-.29.071-.334.104-.867.213-.533.11-.784.188-1.118.29-.334.104-.95.002-1.49-.325-.535-.366-1.262-1.238-1.403-1.579-.18-.347-.104-1.047.39-1.163.495-.116 1.478-.073 2.307-.054.828.018 4.316-.475 5.196-.765.874-.251 4.06-1.309 7.064-2.95 2.928-1.656 5.502-2.854 8.423-4.708 2.883-1.86 4.424-2.556 6.837-4.692 2.452-2.13 4.467-3.776 5.333-4.703Z" fill="#FBB116"/><path opacity=".75" d="M8.17 63.094c-.3.624-1.177 3.291-1.594 4.371-.416 1.08-1.775 3.549-2.397 4.199-.616.61-1.303.933-1.875.799-.572-.135-.701-.552-1.03-.725-.327-.173-.54-.565-.27-.996.269-.43.8-1.491 1.154-1.948.346-.418 1.564-2.99 2.083-3.735.526-.785 1.762-3.947 2.172-4.75.372-.81 1.538-4.024 2.21-5.458.712-1.427 2.819-7.218 3.369-8.87.55-1.652 1.548-5.29 1.894-6.42.3-1.1.773-3.24.811-3.947.076-.7.082-1.214.005-1.464-.078-.251-.175-.623.07-1.138.243-.514.312-1.414.402-1.716.09-.302.577-.855.95-.714.411.147 1.002.166 1.324.377.321.212 1.093.577 1.209.834.116.257.296.604.149 1.015-.148.411-.474 1.19-.563 1.967-.096.816-.498 2.77-.607 3.187-.147.412-.134.572-.217.836-.084.263-.219-.116-.347.18-.09.302-.238.238-.218.598.059.366.046.68-.166.764-.212.084-.398.252-.365.534.07.29.18.347-.013.553-.192.206-.391.212-.275.47.116.256-.077.7-.333 1.29-.256.592-2.292 6.435-2.708 7.515-.417 1.08-2.313 5.599-2.729 6.916-.294 1.298-2.094 5.476-2.094 5.476Z" fill="#FBB116"/><path opacity=".75" d="M44.999 10.957c.525-1.735.882-3.42.908-3.811.025-.392.095-.816.532-1.06.398-.252.77-.349 1.361-.092.592.256 1.878.865 2.443 1.275.566.41.812 1.323.55 2.19-.302.862-.538 1.813-1.14 3.06-.603 1.247-1.468 2.886-1.628 3.375-.16.488-.102.854-.327.778-.187-.07-.398.013-.482.276-.083.264-1.371 3.022-1.813 3.78-.475.714-1.148 2.385-1.64 3.453-.533 1.06-1.29 2.52-1.507 2.88-.218.36-.449.797-.513.707-.065-.09.333-.816.666-1.395.327-.54.853-1.562.987-1.896.096-.341.141-.373.27-.669.127-.296.269-.43.134-.572-.136-.141-.571.817-.732 1.067-.166.29-.627 1.402-.91 1.91-.243.514-.615 1.324-.782 1.613-.166.29-.526.547-.654.843-.134.334-.34.617-.442.758-.103.142-1.45 2.296-1.712 2.688-.257.354-1.174 1.588-1.283 1.768-.11.18-1.86 3.1-2.013 3.312-.16.25-1.52 2.006-1.623 2.148-.148.173-.552.938-.706 1.15-.154.213-.955 1.229-1.16 1.512-.206.282-.321.501-.475.713-.154.212-.392.213-.244.04.147-.175.205-.522.102-.38-.141.135-.334.34-.404.527s-.051.309-.154.45c-.102.142-.302.148-.423.406-.122.257-.16.488-.27.668-.108.18-2.392 2.971-3.258 3.897-1.072.972-6.706 7.011-8.547 9.044-1.842 2.032-7.874 7.848-9.37 9.224-1.456 1.384-3.76 3.34-4.094 3.68-.372.335-.494.592-.937.638-.443.045-1.08-.417-1.375-.545-.296-.128-.933-.352-.714-.712.218-.36 1.219-1.383 1.5-1.653.283-.27 5.822-5.018 6.477-5.623.654-.605 6.205-6.143 8.277-8.375 2.073-2.232 7.057-8.419 8.533-10.393 1.475-1.974 6.959-9.742 7.561-10.752.642-1.003 2.014-2.835 3.034-4.687a341.407 341.407 0 0 0 3.256-5.799c1.09-2.038 2.05-4.493 2.487-5.451.468-.913 1.723-4.191 2.254-5.965Z" fill="#FBB116"/></svg>