<svg width="719" height="67" fill="none" xmlns="http://www.w3.org/2000/svg"><path d="M718.384 10.884a1.25 1.25 0 0 0 0-1.768l-7.955-7.955a1.25 1.25 0 0 0-1.768 1.768L715.732 10l-7.071 7.071a1.25 1.25 0 0 0 1.768 1.768l7.955-7.955Zm-715.022-.08a1.25 1.25 0 0 0 .081-2.499l-.081 2.5Zm6.86-2.042a1.25 1.25 0 1 0-.258 2.486l.258-2.486Zm6.284 3.42a1.25 1.25 0 0 0 .451-2.459l-.451 2.46Zm7.123-.941a1.25 1.25 0 1 0-.658 2.411l.658-2.411Zm5.627 4.422a1.25 1.25 0 0 0 .864-2.346l-.864 2.346Zm7.166.283a1.25 1.25 0 1 0-1.056 2.266l1.056-2.266Zm4.833 5.292a1.25 1.25 0 0 0 1.223-2.18l-1.223 2.18Zm7.045 1.33a1.25 1.25 0 0 0-1.353 2.102l1.353-2.102Zm4.169 5.838a1.25 1.25 0 1 0 1.442-2.042l-1.442 2.042Zm6.901 1.931a1.25 1.25 0 0 0-1.493 2.005l1.493-2.005Zm3.873 6.041a1.25 1.25 0 0 0 1.507-1.995l-1.507 1.995Zm6.877 2.024a1.25 1.25 0 1 0-1.485 2.012l1.485-2.012Zm3.999 5.957a1.25 1.25 0 1 0 1.43-2.05l-1.43 2.05Zm6.973 1.66a1.25 1.25 0 1 0-1.347 2.106l1.347-2.106Zm4.46 5.621a1.25 1.25 0 1 0 1.237-2.172l-1.238 2.172Zm7.097.951a1.25 1.25 0 1 0-1.11 2.24l1.11-2.24Zm5.082 5.073a1.25 1.25 0 0 0 .968-2.306l-.968 2.306Zm7.167.069a1.25 1.25 0 1 0-.82 2.361l.82-2.361Zm5.657 4.384a1.25 1.25 0 1 0 .671-2.408l-.671 2.408Zm7.12-.817a1.25 1.25 0 0 0-.528 2.444l.528-2.444Zm6.146 3.69a1.25 1.25 0 1 0 .392-2.468l-.392 2.469Zm6.991-1.594a1.25 1.25 0 0 0-.267 2.486l.267-2.486Zm6.484 3.051a1.25 1.25 0 0 0 .153-2.495l-.153 2.495Zm6.811-2.23a1.25 1.25 0 0 0-.049 2.5l.049-2.5Zm6.921 2.506a1.25 1.25 0 1 0-.039-2.5l.039 2.5Zm6.931-2.711a1.25 1.25 0 0 0 .112 2.497l-.112-2.497Zm7.145 2.083a1.25 1.25 0 1 0-.181-2.493l.181 2.493Zm6.772-3.09a1.25 1.25 0 0 0 .245 2.488l-.245-2.488Zm7.243 1.712a1.25 1.25 0 0 0-.305-2.481l.305 2.481Zm6.617-3.408a1.25 1.25 0 1 0 .359 2.474l-.359-2.474Zm7.311 1.396a1.25 1.25 0 0 0-.407-2.467l.407 2.467Zm6.479-3.667a1.25 1.25 0 0 0 .45 2.46l-.45-2.46Zm7.355 1.139a1.25 1.25 0 1 0-.488-2.452l.488 2.452Zm6.362-3.865a1.25 1.25 0 0 0 .521 2.445l-.521-2.445Zm7.384.94a1.25 1.25 0 1 0-.549-2.439l.549 2.44Zm6.273-4.009a1.25 1.25 0 1 0 .572 2.434l-.572-2.434Zm7.4.801a1.25 1.25 0 1 0-.59-2.43l.59 2.43Zm6.212-4.102a1.25 1.25 0 1 0 .604 2.426l-.604-2.426Zm7.409.72a1.25 1.25 0 1 0-.612-2.425l.612 2.424Zm6.183-4.148a1.25 1.25 0 1 0 .616 2.423l-.616-2.423Zm7.412.692a1.25 1.25 0 1 0-.617-2.422l.617 2.422Zm6.181-4.147a1.25 1.25 0 1 0 .612 2.424l-.612-2.424Zm7.408.719a1.25 1.25 0 1 0-.604-2.426l.604 2.426Zm6.209-4.105a1.25 1.25 0 0 0 .592 2.43l-.592-2.43Zm7.401.796a1.25 1.25 0 1 0-.575-2.433l.575 2.433Zm6.265-4.02a1.25 1.25 0 0 0 .554 2.438l-.554-2.438Zm7.386.92a1.25 1.25 0 0 0-.529-2.443l.529 2.444Zm6.345-3.892a1.25 1.25 0 0 0 .501 2.45l-.501-2.45Zm7.363 1.091a1.25 1.25 0 1 0-.469-2.456l.469 2.456Zm6.445-3.725a1.25 1.25 0 0 0 .433 2.462l-.433-2.462Zm7.328 1.305a1.25 1.25 0 0 0-.394-2.469l.394 2.469Zm6.561-3.517a1.25 1.25 0 0 0 .351 2.475l-.351-2.475Zm7.28 1.558a1.25 1.25 0 0 0-.305-2.482l.305 2.482Zm6.689-3.27a1.25 1.25 0 1 0 .256 2.486l-.256-2.486Zm7.209 1.846a1.25 1.25 0 1 0-.202-2.492l.202 2.492Zm6.816-2.986a1.25 1.25 0 0 0 .148 2.495l-.148-2.495Zm7.121 2.162a1.25 1.25 0 0 0-.091-2.498l.091 2.498Zm6.946-2.67a1.25 1.25 0 1 0 .031 2.5l-.031-2.5Zm7.153 2.505a1.25 1.25 0 0 0 .036-2.5l-.036 2.5Zm7.288-2.29a1.25 1.25 0 0 0-.109 2.497l.109-2.498Zm7.061 2.914a1.25 1.25 0 0 0 .182-2.493l-.182 2.493Zm7.41-1.856a1.25 1.25 0 0 0-.256 2.487l.256-2.487Zm6.875 3.33a1.25 1.25 0 0 0 .331-2.478l-.331 2.478Zm7.506-1.414a1.25 1.25 0 0 0-.402 2.468l.402-2.468Zm6.668 3.724a1.251 1.251 0 0 0 .472-2.455l-.472 2.455Zm7.571-.992a1.25 1.25 0 0 0-.537 2.441l.537-2.441Zm6.466 4.071a1.25 1.25 0 1 0 .596-2.427l-.596 2.427Zm7.619-.621a1.25 1.25 0 0 0-.648 2.414l.648-2.414Zm6.286 4.347a1.251 1.251 0 0 0 .693-2.402l-.693 2.402Zm7.631-.343a1.25 1.25 0 0 0-.728 2.392l.728-2.392Zm6.153 4.529a1.25 1.25 0 1 0 .753-2.384l-.753 2.384Zm7.638-.18a1.25 1.25 0 0 0-.769 2.378l.769-2.379Zm6.098 4.606a1.25 1.25 0 1 0 .772-2.377l-.772 2.377Zm7.638-.155a1.25 1.25 0 0 0-.766 2.38l.766-2.38Zm6.125 4.57a1.25 1.25 0 0 0 .747-2.385l-.747 2.385Zm7.636-.27a1.25 1.25 0 1 0-.718 2.394l.718-2.395Zm6.231 4.419a1.251 1.251 0 0 0 .679-2.406l-.679 2.406Zm7.621-.521a1.25 1.25 0 0 0-.63 2.419l.63-2.42Zm6.408 4.163a1.25 1.25 0 0 0 .572-2.433l-.572 2.433Zm7.593-.88a1.25 1.25 0 1 0-.506 2.448l.506-2.448Zm6.622 3.817a1.25 1.25 0 0 0 .435-2.462l-.435 2.462Zm7.519-1.32a1.25 1.25 0 0 0-.359 2.474l.359-2.474Zm6.836 3.404a1.25 1.25 0 0 0 .281-2.484l-.281 2.484Zm7.424-1.794a1.25 1.25 0 1 0-.2 2.492l.2-2.492Zm7.044 2.956a1.25 1.25 0 0 0 .119-2.497l-.119 2.497Zm7.294-2.269a1.25 1.25 0 0 0-.04 2.5l.04-2.5Zm7.139 2.487a1.25 1.25 0 1 0-.061-2.5l.061 2.5Zm6.758-2.838a1.25 1.25 0 0 0 .189 2.493l-.189-2.493Zm7.111 1.777a1.25 1.25 0 1 0-.328-2.478l.328 2.478Zm6.392-3.568a1.25 1.25 0 0 0 .475 2.454l-.475-2.454Zm7.27.919a1.25 1.25 0 0 0-.628-2.42l.628 2.42Zm5.921-4.349a1.25 1.25 0 0 0 .784 2.374l-.784-2.374Zm7.331-.027a1.25 1.25 0 1 0-.937-2.318l.937 2.318Zm5.292-5.066a1.25 1.25 0 1 0 1.08 2.254l-1.08-2.255Zm7.28-.94a1.25 1.25 0 0 0-1.208-2.19l1.208 2.19Zm4.68-5.639a1.25 1.25 0 1 0 1.315 2.126l-1.315-2.126Zm7.15-1.658a1.25 1.25 0 1 0-1.401-2.07l1.401 2.07Zm4.22-5.997a1.25 1.25 0 1 0 1.458 2.031l-1.458-2.03Zm7.044-2.05a1.25 1.25 0 1 0-1.487-2.01l1.487 2.01Zm4.055-6.116a1.25 1.25 0 1 0 1.484 2.011l-1.484-2.012Zm7.045-2.024a1.25 1.25 0 1 0-1.446-2.04l1.446 2.04Zm4.287-5.96a1.25 1.25 0 1 0 1.369 2.093l-1.369-2.092Zm7.176-1.488a1.25 1.25 0 1 0-1.248-2.167l1.248 2.167Zm4.933-5.43a1.25 1.25 0 1 0 1.08 2.254l-1.08-2.255Zm7.315-.396a1.25 1.25 0 1 0-.869-2.344l.869 2.345Zm5.828-4.447a1.25 1.25 0 1 0 .626 2.42l-.626-2.42Zm7.252 1.075a1.25 1.25 0 0 0-.369-2.473l.369 2.473Zm6.609-3.153a1.25 1.25 0 0 0 .119 2.497l-.119-2.497ZM0 10.75c1.14 0 2.261.018 3.362.054l.081-2.499A105.662 105.662 0 0 0 0 8.25v2.5Zm9.964.498c2.265.235 4.442.549 6.542.934l.451-2.459a86.675 86.675 0 0 0-6.735-.961l-.258 2.486Zm13.007 2.404a76.16 76.16 0 0 1 6.285 2.011l.864-2.346a78.693 78.693 0 0 0-6.491-2.076l-.658 2.411Zm12.395 4.56a88.778 88.778 0 0 1 5.89 3.026l1.222-2.18a91.314 91.314 0 0 0-6.056-3.112l-1.056 2.266Zm11.581 6.458a153.248 153.248 0 0 1 5.522 3.736l1.442-2.042a155.667 155.667 0 0 0-5.611-3.796l-1.353 2.102Zm10.93 7.672c1.784 1.329 3.566 2.677 5.366 4.036l1.507-1.995c-1.797-1.357-3.587-2.71-5.38-4.046l-1.493 2.005Zm10.758 8.072a253.255 253.255 0 0 0 5.484 3.945l1.43-2.05a250.404 250.404 0 0 1-5.43-3.907l-1.484 2.012Zm11.11 7.711c1.877 1.2 3.808 2.376 5.806 3.515l1.239-2.172a130.944 130.944 0 0 1-5.698-3.449l-1.347 2.106Zm11.794 6.706a108.95 108.95 0 0 0 6.192 2.833l.968-2.306a106.346 106.346 0 0 1-6.05-2.767l-1.11 2.24Zm12.539 5.263c2.084.724 4.24 1.4 6.477 2.023l.671-2.408a106.47 106.47 0 0 1-6.328-1.976l-.82 2.361Zm13.069 3.65c2.153.465 4.376.882 6.674 1.247l.392-2.47a120.429 120.429 0 0 1-6.538-1.22l-.528 2.443Zm13.398 2.138c2.185.234 4.434.424 6.751.565l.153-2.495c-2.28-.14-4.491-.326-6.637-.556l-.267 2.486Zm13.513.835c1.132.022 2.279.033 3.442.033v-2.5c-1.147 0-2.278-.011-3.393-.033l-.049 2.5Zm3.442.033c1.177 0 2.353-.01 3.528-.027l-.039-2.5c-1.162.018-2.325.027-3.489.027v2.5Zm10.571-.24c2.348-.106 4.693-.245 7.033-.415l-.181-2.493c-2.319.168-4.64.306-6.964.41l.112 2.497Zm14.05-1.017c2.335-.23 4.668-.49 6.998-.776l-.305-2.481c-2.311.283-4.624.54-6.938.769l.245 2.488Zm13.974-1.71c2.319-.336 4.636-.696 6.952-1.078l-.407-2.467c-2.301.38-4.602.737-6.904 1.07l.359 2.475Zm13.881-2.285c2.302-.422 4.604-.863 6.905-1.321l-.488-2.452c-2.29.456-4.579.894-6.867 1.313l.45 2.46Zm13.788-2.741c2.287-.488 4.575-.99 6.863-1.505l-.549-2.439c-2.28.513-4.558 1.014-6.835 1.499l.521 2.445Zm13.708-3.08c2.274-.535 4.55-1.08 6.828-1.633l-.59-2.43a943.749 943.749 0 0 1-6.81 1.629l.572 2.434Zm13.644-3.309c2.266-.563 4.534-1.133 6.805-1.707l-.612-2.424c-2.269.574-4.534 1.142-6.797 1.705l.604 2.426Zm13.604-3.431 6.796-1.73-.617-2.423-6.795 1.73.616 2.423Zm13.589-3.454c2.261-.571 4.526-1.14 6.796-1.705l-.604-2.426c-2.273.566-4.541 1.135-6.804 1.707l.612 2.424Zm13.597-3.38c2.264-.552 4.534-1.097 6.809-1.634l-.575-2.433a1040.18 1040.18 0 0 0-6.826 1.637l.592 2.43Zm13.628-3.216a700.78 700.78 0 0 1 6.832-1.517l-.529-2.444a698.765 698.765 0 0 0-6.857 1.523l.554 2.438Zm13.678-2.96c2.281-.467 4.568-.92 6.862-1.359l-.469-2.456c-2.306.44-4.604.896-6.894 1.365l.501 2.45Zm13.74-2.622c2.291-.403 4.589-.79 6.895-1.157l-.394-2.469c-2.32.37-4.631.759-6.934 1.164l.433 2.462Zm13.807-2.2c2.301-.325 4.611-.632 6.929-.916l-.305-2.482c-2.334.287-4.659.595-6.975.924l.351 2.475Zm13.874-1.7c2.308-.237 4.626-.45 6.953-.64l-.202-2.492c-2.346.191-4.681.407-7.007.646l.256 2.486Zm13.917-1.13c2.315-.138 4.639-.25 6.973-.334l-.091-2.498c-2.353.085-4.696.197-7.03.336l.148 2.495Zm13.95-.503c1.164-.015 2.331-.022 3.5-.022v-2.5c-1.18 0-2.356.007-3.531.022l.031 2.5Zm3.5-.022c1.217 0 2.424.009 3.622.026l.036-2.5A254.37 254.37 0 0 0 382 25.25v2.5Zm10.801.233c2.427.105 4.816.245 7.17.417l.182-2.493a244.962 244.962 0 0 0-7.243-.422l-.109 2.498Zm14.324 1.048c2.412.249 4.788.53 7.131.843l.331-2.478a243.78 243.78 0 0 0-7.206-.852l-.256 2.487Zm14.235 1.897c2.389.39 4.744.81 7.07 1.256l.472-2.455a257.85 257.85 0 0 0-7.14-1.269l-.402 2.468Zm14.104 2.705c2.362.52 4.695 1.064 7.003 1.63l.596-2.427c-2.327-.572-4.68-1.12-7.062-1.644l-.537 2.441Zm13.974 3.423c2.332.626 4.642 1.272 6.934 1.933l.693-2.402a393.956 393.956 0 0 0-6.979-1.945l-.648 2.414Zm13.837 3.982c2.306.702 4.598 1.415 6.881 2.137l.753-2.384a671.133 671.133 0 0 0-6.906-2.145l-.728 2.392Zm13.75 4.335c2.293.741 4.58 1.485 6.867 2.228l.772-2.377c-2.285-.743-4.575-1.488-6.87-2.23l-.769 2.38Zm13.739 4.453c2.292.737 4.587 1.469 6.891 2.19l.747-2.385a934.535 934.535 0 0 1-6.872-2.185l-.766 2.38Zm13.809 4.314c2.302.69 4.617 1.367 6.949 2.025l.679-2.406a438.933 438.933 0 0 1-6.91-2.014l-.718 2.395Zm13.94 3.923c2.324.605 4.669 1.188 7.038 1.744l.572-2.433a301.23 301.23 0 0 1-6.98-1.73l-.63 2.419Zm14.125 3.312c2.347.486 4.722.943 7.128 1.369l.435-2.462a247.376 247.376 0 0 1-7.057-1.355l-.506 2.448Zm14.288 2.523c2.365.344 4.763.655 7.195.93l.281-2.484c-2.405-.272-4.777-.58-7.117-.92l-.359 2.474Zm14.419 1.628c2.379.192 4.793.347 7.244.465l.119-2.498a222.09 222.09 0 0 1-7.163-.459l-.2 2.492Zm14.498.695c1.21.02 2.429.029 3.657.029v-2.5c-1.215 0-2.421-.01-3.617-.029l-.04 2.5Zm3.657.029c1.189 0 2.363-.014 3.522-.042l-.061-2.5c-1.138.028-2.292.042-3.461.042v2.5Zm10.469-.387c2.374-.18 4.68-.42 6.922-.716l-.328-2.478c-2.195.29-4.455.525-6.783.701l.189 2.493Zm13.789-1.83c2.336-.451 4.599-.965 6.795-1.535l-.628-2.42c-2.146.557-4.357 1.06-6.642 1.5l.475 2.455Zm13.5-3.51a107.537 107.537 0 0 0 6.547-2.401l-.937-2.318a104.968 104.968 0 0 1-6.394 2.345l.784 2.374Zm12.919-5.213a120.885 120.885 0 0 0 6.2-3.195l-1.208-2.189a118.304 118.304 0 0 1-6.072 3.13l1.08 2.254Zm12.195-6.707c1.996-1.235 3.937-2.5 5.835-3.784l-1.401-2.07a170.033 170.033 0 0 1-5.749 3.728l1.315 2.126Zm11.513-7.75a485.727 485.727 0 0 0 5.586-4.081l-1.487-2.01a480.787 480.787 0 0 1-5.557 4.06l1.458 2.031Zm11.125-8.186a366.353 366.353 0 0 1 5.561-4.035l-1.446-2.04a369.235 369.235 0 0 0-5.599 4.064l1.484 2.011Zm11.217-7.902a119.637 119.637 0 0 1 5.807-3.581l-1.248-2.167a122.556 122.556 0 0 0-5.928 3.656l1.369 2.092Zm11.82-6.757a73.712 73.712 0 0 1 6.235-2.65l-.869-2.344a76.372 76.372 0 0 0-6.446 2.74l1.08 2.254Zm12.689-4.677a64.435 64.435 0 0 1 6.626-1.345l-.369-2.473a66.991 66.991 0 0 0-6.883 1.398l.626 2.42Zm13.354-2a71.922 71.922 0 0 1 3.41-.081v-2.5c-1.196 0-2.372.028-3.529.083l.119 2.497Z" fill="#FFCA42"/></svg>