<svg width="274" height="23" fill="none" xmlns="http://www.w3.org/2000/svg"><path d="M67.825 21v1.25V21Zm66.869-18V1.75 3Zm64.653 18v-1.25V21Zm73.978-10.06a1.25 1.25 0 0 0 .114-1.765L266.015.722a1.25 1.25 0 1 0-1.878 1.65l6.599 7.514-7.514 6.599a1.251 1.251 0 0 0 1.65 1.878l8.453-7.424ZM3.433 9.18a1.25 1.25 0 0 0 .1-2.498l-.1 2.498Zm7.126-1.913a1.25 1.25 0 0 0-.318 2.48l.318-2.48Zm6.414 3.65a1.25 1.25 0 1 0 .535-2.443l-.535 2.443Zm7.34-.677a1.25 1.25 0 0 0-.71 2.397l.71-2.397Zm5.86 4.501a1.25 1.25 0 0 0 .798-2.369l-.798 2.37Zm7.37-.158a1.25 1.25 0 1 0-.777 2.376l.778-2.376Zm5.925 4.41a1.25 1.25 0 1 0 .66-2.411l-.66 2.411Zm7.333-.838a1.25 1.25 0 1 0-.48 2.454l.48-2.454Zm6.485 3.524a1.25 1.25 0 0 0 .279-2.485l-.279 2.485Zm7.1-1.988a1.25 1.25 0 1 0-.088 2.498l.087-2.498Zm7.034 2.423a1.25 1.25 0 0 0-.19-2.493l.19 2.493Zm6.519-3.53a1.25 1.25 0 0 0 .566 2.435l-.566-2.435Zm7.402.363a1.25 1.25 0 1 0-.864-2.346l.864 2.346Zm5.51-4.99a1.25 1.25 0 0 0 1.028 2.28l-1.027-2.28Zm7.385-.665a1.25 1.25 0 0 0-1.054-2.268l1.054 2.268Zm5.375-5.133a1.25 1.25 0 0 0 .965 2.306l-.965-2.306Zm7.414-.133a1.25 1.25 0 0 0-.792-2.372l.792 2.372Zm6.041-4.312a1.25 1.25 0 1 0 .569 2.435l-.569-2.435Zm7.325 1.2a1.25 1.25 0 0 0-.331-2.478l.331 2.478Zm6.747-3.09a1.25 1.25 0 0 0 .104 2.497l-.104-2.498Zm6.86 2.537a1.25 1.25 0 1 0 .168-2.494l-.168 2.494Zm7.032-1.572a1.25 1.25 0 0 0-.491 2.451l.491-2.451Zm5.921 4.123a1.25 1.25 0 0 0 .758-2.382l-.758 2.382Zm7.207-.032a1.25 1.25 0 1 0-.939 2.317l.939-2.317Zm5.233 4.98a1.25 1.25 0 0 0 1.026-2.28l-1.026 2.28Zm7.191.506a1.25 1.25 0 0 0-1.019 2.283l1.019-2.283Zm5.263 4.947a1.25 1.25 0 0 0 .919-2.325l-.919 2.325Zm7.205-.106a1.25 1.25 0 0 0-.731 2.391l.731-2.39Zm5.965 4.06a1.25 1.25 0 0 0 .467-2.456l-.467 2.456Zm7.022-1.622a1.25 1.25 0 0 0-.159 2.495l.159-2.495Zm7.108 2.476a1.25 1.25 0 0 0-.167-2.495l.167 2.495Zm7.07-3.398a1.25 1.25 0 1 0 .435 2.462l-.435-2.462Zm7.781.888a1.25 1.25 0 1 0-.595-2.428l.595 2.428Zm6.566-4.302a1.25 1.25 0 0 0 .655 2.413l-.655-2.413Zm7.821.484a1.25 1.25 0 1 0-.633-2.419l.633 2.419Zm6.627-4.196a1.25 1.25 0 0 0 .548 2.439l-.548-2.44Zm7.773 1.008a1.25 1.25 0 0 0-.418-2.465l.418 2.465Zm7.022-3.489a1.25 1.25 0 1 0 .26 2.486l-.26-2.486Zm7.59 1.97a1.25 1.25 0 0 0-.09-2.5l.09 2.5Zm7.425-2.515a1.25 1.25 0 1 0-.079 2.499l.079-2.5ZM0 9.11c1.177 0 2.32.024 3.433.069l.1-2.498A87.908 87.908 0 0 0 0 6.612v2.5Zm10.241.636c2.362.303 4.592.701 6.732 1.17l.535-2.443a79.65 79.65 0 0 0-6.95-1.207l-.317 2.48Zm13.361 2.89c2.23.66 4.399 1.372 6.571 2.104l.798-2.369a187.43 187.43 0 0 0-6.659-2.132l-.71 2.397Zm13.164 4.322c2.165.709 4.383 1.4 6.702 2.034l.66-2.411a139.099 139.099 0 0 1-6.584-2l-.778 2.377Zm13.555 3.65c2.203.43 4.514.795 6.965 1.07l.279-2.485a83.786 83.786 0 0 1-6.764-1.039l-.48 2.454Zm13.977 1.58c1.145.04 2.32.061 3.527.061v-2.5c-1.178 0-2.324-.02-3.44-.06l-.087 2.5Zm3.527.061c1.23 0 2.427-.047 3.595-.136l-.19-2.493a44.61 44.61 0 0 1-3.405.129v2.5Zm10.68-1.231c2.368-.551 4.631-1.26 6.836-2.072l-.864-2.346c-2.127.783-4.29 1.46-6.538 1.983l.566 2.435Zm13.374-4.782c2.104-.948 4.22-1.952 6.357-2.945l-1.054-2.268c-2.161 1.005-4.243 1.993-6.33 2.934l1.027 2.279Zm12.697-5.772a92.544 92.544 0 0 1 6.449-2.44l-.792-2.37a95.105 95.105 0 0 0-6.622 2.504l.965 2.306Zm13.059-4.316a70.768 70.768 0 0 1 6.756-1.235l-.331-2.478a73.367 73.367 0 0 0-6.994 1.278l.569 2.435Zm13.607-1.828a82.827 82.827 0 0 1 3.452-.071v-2.5c-1.214 0-2.399.025-3.556.073l.104 2.498Zm3.452-.071c1.122 0 2.223.038 3.304.111l.168-2.494a51.483 51.483 0 0 0-3.472-.117v2.5Zm9.845.99a60.07 60.07 0 0 1 6.412 1.672l.758-2.382a62.54 62.54 0 0 0-6.679-1.741l-.491 2.451Zm12.68 3.957c2.072.84 4.12 1.74 6.172 2.663l1.026-2.28a181.535 181.535 0 0 0-6.259-2.7l-.939 2.317Zm12.344 5.452c2.062.92 4.149 1.822 6.282 2.664l.919-2.325a155.088 155.088 0 0 1-6.182-2.622l-1.019 2.283Zm12.756 4.95c2.162.66 4.388 1.229 6.696 1.668l.467-2.456a61.018 61.018 0 0 1-6.432-1.604l-.731 2.391Zm13.559 2.54c1.135.073 2.291.111 3.469.111v-2.5c-1.124 0-2.227-.036-3.31-.105l-.159 2.495Zm3.469.111c1.276 0 2.541-.045 3.798-.13l-.167-2.494a54.27 54.27 0 0 1-3.631.124v2.5Zm11.303-1.065c2.447-.432 4.888-.972 7.346-1.574l-.595-2.428c-2.423.594-4.808 1.12-7.186 1.54l.435 2.462Zm14.567-3.463c2.345-.637 4.722-1.29 7.166-1.93l-.633-2.418c-2.459.643-4.853 1.301-7.188 1.935l.655 2.413Zm14.341-3.686c2.336-.525 4.739-1.01 7.225-1.431l-.418-2.465c-2.536.43-4.983.924-7.355 1.457l.548 2.439Zm14.507-2.434a107.8 107.8 0 0 1 7.33-.517l-.09-2.498c-2.589.094-5.085.276-7.5.53l.26 2.485Zm14.676-.532c1.206.038 2.431.097 3.678.177l.162-2.494a114.1 114.1 0 0 0-3.761-.182l-.079 2.499Z" fill="#FFCA42"/></svg>