<svg width="296" height="12" fill="none" xmlns="http://www.w3.org/2000/svg"><path opacity=".75" d="M3.218 4.809c-2.09-.671-4.776-1.624-2.09-2.26C3.817 1.88 7.996.892 10.186.574c2.189-.353 4.378.53 5.473.812 1.194.282 2.19 1.482 3.085 1.659.896.176 2.09.565 2.986.741.895.177 4.478 1.412 6.767 1.765 2.289.353 4.976.706 8.857.635 3.98-.07 6.369-.847 8.857-1.694 2.388-.847 9.852-2.506 12.838-3.177C62.033.644 69.597-.203 72.184.044c2.587.247 6.767 1.588 10.25 2.118 3.483.529 7.066 1.376 9.952 1.729 2.886.353 7.265.847 8.957.918 1.691.07 5.174.494 6.568-.036 1.293-.53 7.862-2.188 11.743-2.859 3.881-.67 7.862-.564 11.046-.105 3.185.423 5.772.882 6.668 1.164.896.283 2.388.847 4.18 1.412 1.791.565 6.568 2.082 9.454 2.118 2.886.035 4.179-.177 6.17-.53 1.891-.353 6.369-1.13 7.464-1.164 1.094-.036 3.383.14 4.577.317 1.195.177 6.768 1.483 6.768 1.483s3.184.529 4.677.917c1.493.388 2.09.777 3.583.847 1.393.07 2.587.141 2.587.141s8.658-2.576 13.932-3.494c5.275-.917 9.156-1.376 11.146-1.447 1.991-.035 6.867.07 9.455.318 2.587.247 8.06.635 11.145.565 3.086-.071 9.554-.389 10.649-.6 1.095-.212 9.454-1.094 12.041-1.236 2.488-.14 12.739-.247 14.729-.282 1.99-.035 10.449-.106 11.345-.141.896 0 6.668-.953 9.753-1.094 3.085-.177 4.478-.106 4.876.388.398.494-.398.918-2.09 1.059-1.692.14-5.274.917-8.061 1.376-2.786.459-4.677.706-8.658.883-3.98.176-10.051 1.023-14.927.988-4.877 0-8.857-.141-13.037.176-4.18.283-6.668.741-12.539 1.27-5.872.53-11.246.636-16.122.318-4.876-.317-10.051-.811-13.236-.952-3.185-.142-6.668.74-9.952 1.623-3.284.882-6.667 2.541-10.847 3.247-4.18.67-8.061.777-11.644-.176-3.582-.953-9.454-2.224-11.444-2.577-2.09-.353-4.677-.6-7.364-.035-2.687.565-7.066 2.047-11.146 1.447-4.081-.635-11.146-2.4-14.729-3.53-3.583-1.129-10.549-2.117-13.335-1.552-2.787.564-7.564 2.258-12.042 2.858-4.478.6-10.947.53-15.027.212-3.98-.317-11.345-1.8-15.127-2.506-3.781-.74-11.146-2.188-13.932-1.835-2.787.353-7.066 1.87-9.554 2.506-2.488.67-9.553 2.612-14.23 3.106-4.778.494-11.246.741-18.909-.847C10.384 6.89 3.218 4.809 3.218 4.809Z" fill="#FBB116"/></svg>