<svg width="227" height="159" fill="none" xmlns="http://www.w3.org/2000/svg"><path opacity=".75" d="M226.729 151.975c-.492-.459-.577-.824-1.251-1.24-.716-.598-1.138-1.171-1.266-1.717-.198-.434-.69-.893-.074-1.136.728-.174 1.483-.642 1.033-.92-.449-.277-1.32-1.127-1.742-1.699-.492-.46-.802-.963-1.112-1.466-.422-.572-.774-1.258-.271-1.57.503-.312.039-1.067-.341-1.457-.379-.39-5.255-4.804-6.73-6.183-1.475-1.379-3.624-3.173-5.383-5.35-1.87-2.246-3.516-4.354-3.218-7.597.297-3.244.978-4.849.904-5.985-.074-1.137.479-3.288-.14-4.294-.55-1.118-.272-1.57-1.015-1.873-.743-.303-1.514-.312-2.215-.433-.813-.191-2.69-.416-3.391-.537-.771-.009-1.092.26-1.878-.225-.786-.486-4.344-.503-5.59-.494-1.247.009-5.351.123-6.346-.024-.882-.078-2.52.312-3.445.052-.995-.147-2.017.001-3.349-.355-1.402-.242-6.137-.363-8.239-.726-2.102-.364-6.574-1.413-7.895-2.54-1.32-1.127-.969-4.961-.624-6.774.344-1.813 1.287-8.865.048-10.877-1.282-2.194-2.432-2.592-3.358-2.852-.925-.26-2.648-.234-3.054-.33-.407-.095-2.985-.441-4.093-.658-1.107-.216-2.958-.736-4.247-.91-1.289-.173-2.621-.528-2.958-.736-.225-.139-.929-1.51-1.7-1.518-.883-.078-2.396-.39-2.985-.441-.658.06-1.583-.2-1.835-.043-.139.225.128.546.534.641.407.096.883.078 1.584.2.631.233 1.851.52 1.556.493-.294-.025-1.904.07-2.605-.051-.701-.121-.728.174-1.99-.294-1.332-.356-1.866-.998-1.39-1.015.476-.017 1.134-.078.867-.4-.267-.32-.562-.346-1.22-.285-.658.06-.995-.147-2.145-.546s-1.626-.381-2.466-.277c-.84.104-1.963-.59-2.369-.685-.295-.026-1.332-.355-1.894-.702-.561-.347-.619-1.006-2.021-1.249-1.514-.312-4.696-1.187-5.664-1.629-1.081-.512-1.812-1.587-2.026-2.498-.282-.797.687-12.663.415-14.233-.383-1.64-1.256-7.008-1.902-7.719-.535-.642-2.711-2.142-4.631-2.549-1.921-.407-6.617-1.594-9.404-1.603-2.772.47-16.442.75-22.354.525-5.912-.224-10.283-.431-11.39-.648-1.22-.286-1.67-.563-2.37-.684-.7-.122-.94-.738-.24-.616.7.121 3.53.311 4.638.528 1.177.104 3.558.017 4.665.233 1.108.217.728-.173-.561-.347-1.29-.173-2.846-.667-4.205-.727-1.359-.06-3.504-.607-4.344-.503-.952.035-4.092-.658-7.22-2.123-3.06-1.578-5.87-4.561-6.223-5.246a118.65 118.65 0 0 1-.806-2.212s2.043-4.814 2.093-6.653c.12-1.951-.48-13.539-.739-15.88-.372-2.412-1.225-6.055-3.695-7.58C46.977 1.205 40.77.955 36.737.956c-4.104.113-22.122 3.162-25.691 3.917C6.203 5.933 2.479 6.437 1.535 8.97.478 11.433-.128 18.693.26 21.58c.388 2.888.044 4.701 3.95 4.154 3.906-.547 17.939-5.433 26.537-6.042 8.599-.61 16.961-.585 16.219 3.63-.63 4.285-1.804 17.738-1.617 23.463.187 5.724 7.85 14.665 20 16.094 12.149 1.428 29.319.505 34.685.86 5.478.424 9.184 2.713 9.718 3.354.647.712-1.758 14.65-2.226 17.166-.398 2.402 2.991 10.728 12.24 12.08 5.494.9 17.264 1.939 25.844 4.123 5.803 1.404 9.985 3.675 9.892 5.332-.266 4.198-3.59 11.337-1.758 14.65 1.832 3.313 4.287 4.362 7.202 4.916 3.028.624 4.499.754 6.137.363 1.525-.46 6.132-.886 7.801-.322 1.668.563 11.277.578 13.31 1.055 2.033.477 6.361.502 6.361.502s1.584.199 1.99.294c.294.026 1.038.33 1.193.581.154.252-.124.703-.349.564-.224-.139-14.921-.96-16.574-1.046-1.541-.017-6.388-.207-7.383-.354-.813-.191-2.83-.19-3.825-.338-.995-.147-1.231.486-.53.608.701.121 8.982 1.03 10.929 1.142 1.948.113 7.999.111 9.54.128 1.541.017 2.354.208 3.573.494 1.22.286 2.761.303 2.873.372.182-.043 1.247-.009 1.471.13.112.07-.038 1.067-.178 1.293-.139.225-.617 8.031.231 10.425.961 2.463 2.27 4.362 2.932 5.55.775 1.258.929 1.509 1.897 1.952.968.442 1.263.468 1.627.381.363-.087.321-.269.743.303a18.13 18.13 0 0 0 3.303 3.443 35.926 35.926 0 0 0 3.791 2.653c.856.373 1.642.859 1.305.651-.267-.321-2.246-1.388-3.427-2.741-1.181-1.352-2.219-1.682-3.063-2.826-.844-1.145-.411-1.345.557-.903 1.011.625 3.288 2.966 4.496 4.024 1.32 1.127 3.187 2.124 4.24 2.931.941.737 1.839 1.292 2.021 1.248.364-.087.434-.199.883.078.561.347.968.442 1.529.789.631.234 1.332.355.391-.382-1.053-.806-2.304-2.046-2.796-2.506a14.333 14.333 0 0 1-1.56-1.743c-.422-.572-.732-1.075-.775-1.257-.155-.252.798-.287 1.696.268.898.555 1.994 1.544 2.78 2.029.786.486 2.711 2.142 2.807 1.735.097-.408-.577-.824-.999-1.397-.379-.39-.577-.824-.956-1.214-.38-.39-.663-1.188-.368-1.162.294.026.925.26.84-.104.027-.295-.047-1.431.654-1.31.7.121 1.316-.122 1.765.156.449.277 1.22.286 1.557.494.84-.104 1.765.156 1.343-.417ZM43.283 2.665c-.615.242-1.889.546-3.135.555-1.247.009-8.556.791-9.958.548-1.583-.199-6.314.93-7.406 1.19-1.134.078-3.836.435-5.586.756-1.862.252-3.88.252-3.88.252.295.026 8.467-2.404 15.82-3.004 7.239-.67 9.256-.67 10.866-.766 1.653.087 1.835.043 2.718.121.77.009 1.177.104.561.347ZM86.86 61.21c-.364.087-1.065-.035-1.654-.087-.476.018-.925-.26-1.47-.13-.434.2-.883-.077-.744-.303.14-.225.487-.79 1.006-.624a7.218 7.218 0 0 0 1.626.38c.295.027.84-.103 1.065.035.407.096.716.599.17.729Zm7.003-.036c-.588-.052-1.974.182-2.38.087-.407-.095-.884-.078-1.5.165-.615.243-.951.035-1.246.009-.406-.095-.17-.729.306-.746.406.095 1.456-.347 1.932-.365.476-.017.77.009 1.653.087 1.065.034 1.316-.122 1.696.268.31.503.197.434-.46.495Zm14.875-12.78c-1.738-.45-3.321-.65-8.87-.96-5.66-.38-14.006.072-15.296-.101-1.107-.217-.62-1.006-.03-.954.588.052.657-.061 2.856-.105 2.087-.113 6.934.077 10.267-.045 3.334-.123 8.464.865 9.908 1.29 1.444.425 2.946 1.509 2.946 1.509s-.042-.183-1.781-.633Zm32.652 34.037c1.29.174 3.799.633 4.836.962 1.038.33-1.022.148-1.61.096-.701-.121-1.247.009-1.793.139-.546.13-1.92-.407-2.369-.685-.631-.234-.016-.477.936-.512Zm-12.328 12.172c.519.165 1.921.407 2.215.433.407.095 2.664.71 3.365.832.813.19 1.428-.052 2.129.069.701.121.925.26 2.214.433 1.177.104 1.878.225 2.397.39.407.095 2.942.26 3.392.537.449.278 1.599.676 1.893.702.294.026.743.304.561.347-.251.156-1.049.443-1.455.347-.407-.095-2.145-.546-2.734-.598-.631-.234-2.075-.658-3.182-.875-1.108-.217-2.943-.26-3.938-.407-.925-.26-1.963-.59-3.027-.624-.995-.147-.995-.147-2.285-.32-1.289-.173-2.059-.182-2.059-.182-.589-.052-1.038-.33-.829-.668-.015-.477.894-.694 1.343-.416Zm6.68 3.503c-5.521-.606-8.324-1.092-10.539-1.525-2.215-.433-2.819-.962-2.819-.962s2.873.372 4.093.658c1.219.286 9.613 1.265 13.523 1.966 3.28.468 2.916.555 4.948 1.032 1.626.38 1.572.971 1.572.971s-5.258-1.534-10.778-2.14Zm68.172 12.198c-.461.494-.349.564-1.371.711-1.064-.034-2.408.382-1.819.434.588.052.058.66-.782.764-.84.104-1.289-.173-2.579-.347-1.289-.173-2.017.001-3.503-.606-1.375-.538-3.28-.468-5.227-.58-2.017 0-5.323-.173-7.271-.285-1.947-.112-2.455-1.049-3.364-.832-.91.217-.995-.147-1.851-.52s-.283-.798-.283-.798a10.918 10.918 0 0 1 2.424.095c.658-.061 2.803.485 3.616.676.883.078 2.493-.018 3.082.034.588.052 2.926-.217 3.584-.278.659-.061 3.853.042 4.848.19.995.147 2.466.277 3.097.511.631.234 1.99.294 2.691.415.701.122 2.017 0 2.493-.017.476-.018.952-.035 1.541.017.77.008 1.316-.122.674.416Z" fill="#F98D8D"/></svg>