<svg width="599" height="253" fill="none" xmlns="http://www.w3.org/2000/svg"><path opacity=".75" d="M362.189 4.918c3.741 1.01 7.795 3.032 6.236 3.285-1.559.505 0 2.526.935 4.547.935 2.02-2.183.758-2.183 2.526 0 1.768.936 3.032-.623 3.79-1.559.758-.624 1.768-.624 3.284 0 1.768-3.118.252-4.677 2.526-.935 1.01 0 2.021 1.248 3.537.935 1.516.311 2.779-2.495 2.526-2.806-.253-6.235.758-10.912.758-4.677 0-37.103-1.01-45.521-.505s-23.696 2.779-27.437 3.284c-4.054.758-45.209 8.337-70.776 15.41-25.566 7.074-65.787 22.232-82.312 31.074-16.524 8.842-53.003 31.073-67.969 44.21-14.966 13.389-28.06 23.494-34.92 36.631-6.86 13.389-15.278 35.873-14.342 43.452 0 0-2.183-1.263-3.742-8.084-1.559-6.821-2.806-28.294 0-41.179 2.495-11.873 15.901-37.641 37.726-55.073 21.825-17.431 42.092-34.105 71.088-48.252 28.996-14.147 45.521-22.484 79.505-31.831 33.985-9.6 38.974-10.105 41.468-11.116 2.494-1.01 3.741-1.263 6.236-1.263 2.494 0 4.053-1.263 6.235-1.768 2.183-.253 28.685-5.81 56.746-6.569 28.372-.757 51.756 2.274 61.11 4.8Z" fill="#FFCA42" fill-opacity=".3"/><path opacity=".75" d="M517.771 104.202s-24.631 16.421-39.597 24.253c-14.654 7.831-62.669 36.378-115.984 44.967-53.316 8.59-95.407 12.632-163.377 9.6-67.969-3.031-98.836-16.673-109.749-26.778-10.912-10.105-21.825-33.347-23.072-44.21 0 0-3.741 27.284-4.053 35.62-.312 8.59.312 33.347 26.19 48.758 25.567 15.41 74.205 22.736 115.049 24.505 40.844 1.768 105.384-1.011 138.434-8.59 33.049-7.579 85.741-23.242 98.836-28.799 13.095-5.811 18.707-9.095 17.148-8.842-1.559.252-12.783 5.81-15.277 6.821-2.495 1.01-19.643 7.578-25.879 9.6-5.3 1.768-11.536 2.778-12.783 3.031 1.871-.253 14.031-4.042 18.396-5.558 4.365-1.768 10.6-4.547 11.847-5.052 1.248-.506 1.559-1.516 3.118-1.769 1.559-.252 2.183-.252 3.118-.758.936-.758 4.365-1.263 5.924-2.021 1.559-.758 2.183-1.515 2.806-2.021.624-.505 2.183-1.01 2.806-1.768.936-.758 1.247-1.011 2.806-1.263 1.559 0 3.43-.505 4.054-1.263.623-.758 1.87-1.264 2.494-1.264.623 0 3.118 0 4.053-.757.624-.506 15.901-8.337 20.89-11.621 5.3-3.285 8.418-5.811 9.353-6.569.936-.758 1.248-1.768 1.871-1.768.936-.253 1.559-.758 1.559-1.011 0-.505.624-1.263 1.559-1.515.935-.253 2.494-1.769 5.3-5.306 3.118-3.536 3.742-4.042 6.86-12.631 3.118-8.337 7.171-22.231 5.3-26.021Zm-56.745 41.937c-1.247.757-2.494 1.263-3.742 2.021-8.73 4.547-30.555 15.41-46.768 20.463-21.201 6.568-52.068 15.157-61.733 16.926-9.666 1.768-10.913 1.768-12.784 1.263-1.87-.505-1.247 0-5.612.252-4.365.253-9.042 1.769-10.912 2.022-1.871.252-20.89 2.273-41.78 3.031-21.201.758-54.251-.758-54.251-.758s53.004.505 76.7-2.021c24.008-2.526 32.738-4.042 36.791-4.8 4.053-.758 32.426-4.295 60.798-14.147 25.878-8.842 46.145-15.663 59.24-22.231 2.806-1.516 4.365-2.274 4.053-2.021Z" fill="#FFCA42" fill-opacity=".3"/><path opacity=".75" d="M597.902 96.623c-1.248-4.547-2.183-11.621-6.236-17.684-4.053-6.063-19.954-20.968-31.179-26.779-11.224-5.81-37.102-15.41-58.304-21.473-21.513-5.81-34.92-7.074-42.091-8.084-7.171-1.01-15.901-2.274-20.266-3.032-4.365-.505-29.932-2.274-38.974-3.032-8.73-.757-23.072-1.768-30.555-1.515-7.171.252-33.984-.253-38.349-.506-4.365-.252-15.902-.757-22.137-.505-6.236.253-17.772 1.516-24.008 2.021-6.236.506-39.285 2.78-48.327 5.053-8.73 2.273-12.783 2.526-17.772 2.779-4.676.252-9.353 2.526-10.6 2.526-1.248 0-24.32 4.547-31.179 6.063-6.859 1.516-30.243 10.105-43.962 16.168-13.719 5.81-27.437 13.39-35.855 19.2-8.419 5.81-14.654 9.6-22.76 21.979-7.796 12.126-9.978 20.968-11.225 31.073-1.247 10.105-3.43 21.221-2.806 30.568.623 9.348 2.806 16.421 4.053 18.19 0 0 6.86-44.463 49.262-70.484 42.091-26.02 114.114-41.936 207.962-48 93.848-6.063 190.813 16.421 211.703 26.274 0 0 1.871-.505-4.988-3.284-7.172-2.779-16.525-5.305-16.525-5.305s6.859.252 21.513 6.063c14.654 5.81 23.384 11.368 29.932 15.915 6.235 4.295 13.406 10.611 16.213 17.937 2.806 7.074 4.988 17.684 4.988 25.768s-1.871 13.39-.935 12.126c.935-1.263 7.794-13.642 10.912-25.768 2.806-12.126 3.742-19.705 2.495-24.252ZM493.765 38.266c-10.289-3.285-18.396-4.042-21.825-4.548-3.43-.505-4.989-1.01-8.418-1.263-3.43-.252.623-1.01-3.118-1.516-3.742-.505-8.73-.505-14.654-1.01-5.924-.505-10.913-2.274-18.084-2.274-6.859 0-19.331-2.02-27.749-2.274-8.418-.252-17.148-.505-24.008-.757-6.859-.253-12.159-1.264-18.707-1.264-6.235 0-14.654-.505-8.418-1.263 3.118-.505 14.966-.758 20.89-.758 5.612 0 18.395.758 23.072 1.01 4.677.254 60.798 4.548 69.528 6.57 8.73 2.02 38.662 8.336 50.822 11.873 11.848 3.537 19.954 7.831 19.954 7.831s-28.996-7.073-39.285-10.357Z" fill="#FFCA42" fill-opacity=".3"/><path opacity=".75" d="M596.965 94.096c-.624-1.515-16.837 26.021-25.255 34.105-8.418 8.084-43.027 29.305-61.734 37.137-18.707 7.831-76.7 25.263-82 26.778-4.988 1.516-8.418.758-11.848 1.769-3.429 1.01.312-1.516-4.053-.505-4.365 1.01-38.038 8.084-44.897 9.347-6.86 1.263-32.114 5.558-41.468 6.821-9.354 1.263-78.57 8.084-104.448 8.337-26.191.252-72.023-1.264-89.483-2.779-17.46-1.516-40.532-5.053-57.68-7.832-17.149-2.779-31.18-10.358-39.91-15.158-8.73-4.547-13.095-10.863-16.836-16.926-3.43-5.81-10.289-22.736-10.289-32.589 0 0-5.924 8.589-6.86 23.495-.935 14.905.936 41.431 14.031 52.294s42.091 25.01 82.935 29.305c40.533 4.294 86.054 5.305 93.536 5.305 7.483 0 30.556-.253 35.232-.253 4.677 0 7.795-.252 11.536-.505 3.742-.253 3.43-1.768 1.559-1.768-1.87 0-1.247.252-4.053.505s-4.053.758-5.612.253c-1.559-.506-2.494-.506-4.365-.253s-2.806 0-5.3 0c-2.495 0-1.871 0-4.677.253-2.806.252-3.742-1.264-3.742-1.264s2.183-.505 4.677-.505c2.494 0 14.966 0 17.46-.252 2.183-.253 5.301-.253 7.483 0 2.183.252 4.677 0 6.548 0 1.87 0 1.559-1.769 3.429-1.769 1.871 0 .936.505 3.43.505s5.612-.758 7.795-.758c2.182 0 5.3-2.526 8.418-2.526 3.118 0 4.988-.758 5.612.505.624 1.264 1.559 1.011 1.559.253 0-.758 0-2.526 2.182-2.779 2.183-.252 4.677-.252 7.483-.758 2.806-.505 9.354-1.516 11.536-1.516 2.183 0 4.054.758 4.054.758s-7.483.506-10.601 1.011c-3.118.505-7.795 1.516-5.3 1.516h7.482c1.871 0 2.495.505 4.989 0 2.494-.506 3.43-1.263 6.548-1.516 3.117-.253 3.741-1.011 6.859-1.011h5.612c1.247 0 4.677-.252 6.859-.505 2.183-.252 2.495-1.516 4.677-1.768 2.183-.253 8.73-.758 10.913-1.011 2.182-.252 5.612-1.01 7.794-1.516 2.183-.505 5.924-1.263 8.419-1.515 2.494-.253 1.558.505 4.988.505 3.43 0 4.365 1.01 9.666-.758 5.3-1.768 4.365-2.021 7.171-3.032 2.806-1.01 8.418-2.021 12.159-2.526 3.742-.505 5.301-1.263 7.171-1.263 1.871 0 3.118 0 2.807-1.01-.312-1.011 1.558-2.021 2.494-1.011.935 1.011 3.118.758 3.118.758 3.429-1.011 7.171-2.526 9.041-2.526 1.871 0 3.118-.506 6.86-1.516 3.741-1.011 3.741-1.011 5.924-1.263 2.182-.253 1.87-3.032 4.677-3.537 2.806-.505 8.106-1.263 11.224-2.274 3.118-1.01 5.3-.758 8.418-1.768 3.118-1.011 2.806.252-5.3 2.021-8.107 1.768-8.419 2.779-5.612 2.526 2.806-.252 6.547-2.021 10.912-2.779 4.365-.758 5.612-1.263 6.859-2.021 1.248-.758 0-1.768 2.806-2.526 2.807-.758 7.795-2.526 10.601-3.284 2.806-.758 7.795-1.263 10.289-2.274 2.494-1.01 5.924-1.516 8.107-2.526 2.182-1.011 5.3-2.274 4.053-2.274-1.247 0-5.301 1.516-8.73 2.526-3.43 1.011-5.924.758-5.924.758s3.741-1.515 7.171-2.273c3.43-.758 4.365-1.769 7.171-2.527 2.806-.758 4.677-2.021 3.741-2.021-.935 0-5.612.506-3.117-.505 2.494-1.01 5.612-1.768 9.353-3.031 3.742-1.264 8.107-4.548 8.107-4.548s.623 1.263-1.559 2.779c-2.183 1.516-3.742 2.526-.624 1.769 3.118-.758 1.559 0 4.989-1.516 3.429-1.516 8.73-3.537 13.407-5.558 4.676-2.021 5.612-2.021 7.482-3.284 1.871-1.263 2.495-.758 1.871-1.263-.623-.506-1.871-1.011-1.871-1.011 3.43-1.263 4.365-2.779 6.86-3.537 2.494-.758 6.235-4.8 8.73-6.063 2.494-1.263 6.859-3.031 8.418-4.295 1.559-1.263 3.118-2.273 5.612-4.042 2.494-1.768 6.86-6.568 8.418-8.084 1.559-1.515 3.43-3.789 4.365-5.558.936-1.768 4.989-6.568 8.107-13.894 6.236-7.579 14.03-32.589 9.354-41.179ZM489.398 182.77c-13.718 5.053-32.738 11.621-37.102 12.884-4.054 1.263-20.578 4.042-28.061 6.569-7.483 2.273-28.685 5.81-36.168 7.578-7.482 1.769-52.38 9.6-66.722 10.863-14.342 1.264-54.874 5.053-62.669 5.053-7.483 0-13.095-.253-15.901 0-2.806.253-7.171 1.011-11.224 1.011-4.054 0-5.613.757-8.731.757h-9.353c-3.43 0-95.719-2.021-110.996-7.073-2.495-.758 54.874 3.789 59.551 4.042 4.677.253 42.403 1.768 54.563.253 12.159-1.264 46.768-1.011 54.874-1.769 8.418-.758 64.54-7.579 70.464-7.831 5.924-.253 33.049-6.821 42.091-8.59 8.73-1.768 43.962-7.579 54.875-9.6 10.912-2.021 26.813-8.589 37.102-11.621 9.977-3.031 45.209-17.431 52.069-20.715.623 0-24.631 12.884-38.662 18.189Z" fill="#FFCA42" fill-opacity=".3"/></svg>