<svg width="287" height="198" fill="none" xmlns="http://www.w3.org/2000/svg"><path opacity=".75" d="M52.763 165.585c.127 3.716.47 4.405 1.147 8.192.747 3.581-.018 6.538-1.4 8.254-1.38 1.717-3.309 2.331-5.305 2.463-1.996.132-2.614-.42-4.264-.975-1.65-.555-4.884-.84-6.19-1.394-1.237-.416-3.44-.353-5.296-.978-1.856-.624-4.675-1.458-4.67-3.523.006-2.064.146-2.821 1.663-3.917 1.448-1.235 2.83-2.952 3.04-4.603.212-1.651 2.29-6.462 2.293-7.839.004-1.376.566-5.434 1.259-7.153.693-1.718.63-4.265 1.255-6.121.625-1.857 2.642-9.558 3.404-11.483.763-1.925 2.496-6.737 2.982-8.181.692-1.375 2.013-6.326 2.567-7.288.553-.961 1.731-4.124 2.285-5.43.485-1.1 1.25-3.712 2.356-5.636 1.106-1.924 2.84-6.736 3.807-7.904.966-1.167 1.869-3.848 2.627-4.397.758-.548 1.932-1.99 2.898-2.813 1.034-.685 3.788-1.022 6.267-1.566 2.617-.612 6.608-.532 8.467-.94 1.927-.27 3.784.355 3.918 1.663.134 1.308-1.454 2.955-2.075 3.78-.622.823-4.077 5.975-4.906 7.074-.829 1.099-6.156 11.475-7.474 15.05-1.317 3.575-1.117 5.709-2.218 5.912-.896.273-1.035 1.029-.97 2.199.134 1.308-.35 2.408-.905 3.714-.416 1.238-2.985 9.557-3.266 11.415-.142 1.788-1.256 6.465-1.675 8.391-.418 1.925.408 1.859-.49 3.164-.898 1.305.13 3.028-.631 4.265-.21 1.307-.632 4.609-.5 6.605Z" fill="#BBB0E5"/><path opacity=".75" d="M132.35 76.413c-.756-.484-2.82-.49-5.299.054-1.101-.14-2.202-.281-2.89-.283-1.651-.211-7.641.873-9.018 1.213-1.102.204-1.653.477-1.723 1.028-.966.823-1.863 1.784-3.174 2.95-2.069 1.715-4.009 6.114-6.017 10.719-2.146 4.674-10.686 31.764-11.729 35.546-1.042 3.782-3.05 8.043-3.595 6.252-.614-1.929-2.102-11.498-2.776-16.661-.201-1.79-2.311-10.192-2.857-11.982-.407-1.86-4.034-9.508-5.268-10.957-1.235-1.448-2.198-1.658-3.918-1.662-1.72-.005-3.855.195-5.162.33-1.308.133-5.92.534-7.642.873-1.583.27-2.553 2.814-2.487 3.64 0 0 1.438 2.55 2.465 4.618.958 1.929 3.76 8.612 4.377 9.853.615 1.24 2.463 4.961 2.664 7.095.2 2.134 1.69 11.016 1.682 13.768.06 2.891 1.065 12.872.852 15.555-.146 2.821.441 14.384.642 16.518.2 2.134 1.3 2.619 2.811 3.586 1.443.83 4.128.356 6.33.637 2.201.282 7.225.364 9.082.645 0 0 2.201.281 4.132-1.021 1.93-1.302 1.655-1.165 5.173-4.459 3.519-3.293 2.494-6.049 4.499-9.278 2.005-3.228 4.163-12.375 5.206-16.157 1.043-3.782 6.951-25.099 8.683-29.223.485-1.1 1.247-3.025 2.148-5.362.339 2.066.747 3.925 1.018 5.164.953 3.994 1.9 9.709 2.788 12.188 1.094 2.55 3.426 5.515 5.215 5.658 1.926.074 6.125-.121 8.945.369 2.82.489 7.569.365 9.36-.525 1.792-.889.351-2.407-.402-3.923-.753-1.517-1.363-4.821-1.7-7.231-.475-2.341-2.116-6.337-2.315-9.159-.336-2.754-2.789-11.5-2.924-12.464-.135-.964-3.613-12.466-4.569-15.084-.136-.62-.548-1.102-.891-1.447.346-.687-.823-.966-1.716-1.381Z" fill="#BBB0E5"/><path opacity=".75" d="M128.561 127.259c2.478-.2 8.667 1.194 11.765.858 3.029-.473 7.706.641 10.614-5.957 2.909-6.599 4.043-18.501 7.437-26.543 3.463-7.904 7.825-17.458 10.319-23.507 0 0 1.703 6.543 3.617 11.09s6.586 7.381 10.783 7.53c4.198.15 8.809.094 12.251-.585 3.305-.61 7.031-4.178 8.898-7.338 1.729-3.093 3.121-8.594 4.504-10.999 1.314-2.542 5.483-16.982 7.41-16.908 1.927.074 8.39 2.019 11.761 2.235 3.372.215 11.285.582 13.63-1.27 2.345-1.852 4.489-5.837 5.528-8.243 1.039-2.405 1.532-6.602 1.882-8.666.488-2.132.353-3.095 3.05-8.043 2.698-4.947 2.42-4.122 3.737-7.353 1.316-3.23 1.04-3.093.49-3.164-.482.068-.55-.07-.825-.277-.275-.208-.411-.483-.204-.758.139-.413.347-1.031.761-1.58.415-.55 1.243-1.649.83-1.444-.414.206-.483.412-.758.205-.274-.207-.411-.483-.066-.826.345-.343.759-.893.278-1.17-.481-.276-1.306-.553-1.306-.553s.001-.345-.344-.001c-.276.48-.622 1.168-.898 1.305s-.618-.553-.548-.759c.069-.206.554-1.306 1.106-1.924.484-.755.278-.825.692-1.374.414-.55.416-1.238-.067-.826-.482.412-1.104 1.236-1.518 1.785-.277.481-.691 1.03-.761 1.237-.207.274-.276.48-.483.411-.206-.07-.686-.69-.686-.69s-.067-.482.071-.894c.139-.413.415-.55.622-.824.139-.413-.274-.552-.618-.553-.206-.069-1.308.134-1.377.34-.207.275-.898 1.306-1.174 1.442-.276.137-9.119 12.775-10.226 14.699-1.037 1.717-4.909 8.45-5.738 9.55-.829 1.098-1.933 2.334-2.551 1.782-.618-.552-8.459-2.157-11.073-2.233-2.547.062-10.046-.51-12.595.24-2.617.956-6.958 2.94-8.413 6.24-1.454 3.298-9.562 23.646-9.562 23.646s-4.305-11.092-4.852-12.194c-.547-1.103-1.234-1.793-2.815-2.21-1.582-.418-15-.799-16.446-.596-1.446.202-6.405 1.978-7.165 2.87-.759.893-7.733 9.338-9.879 13.667-2.145 4.33-6.509 14.571-7.409 16.564-1.038 2.062-6.364 11.75-7.608 13.743-1.313 1.854-4.596 19.462-6.324 22.21-1.659 2.886-2.284 4.742-1.254 5.433.962.553 3.507 1.18 3.507 1.18Z" fill="#BBB0E5"/></svg>