<svg width="32" height="32" fill="none" xmlns="http://www.w3.org/2000/svg"><g opacity=".5" clip-path="url(#a)" fill="#fff"><path d="m12.519 11.545-1.59 9.325h2.542l1.59-9.325H12.52ZM8.8 11.555l-2.489 6.36-.265-.961c-.49-1.157-1.884-2.819-3.52-3.866L4.8 20.865l2.69-.005 4.002-9.307-2.692.002Z"/><path d="M5.08 12.222c-.147-.568-.576-.737-1.107-.757H.033L0 11.65c3.066.744 5.095 2.537 5.937 4.692l-.857-4.12ZM20.213 13.333a4.69 4.69 0 0 1 1.903.357l.229.107.344-2.02a6.561 6.561 0 0 0-2.277-.392c-2.511 0-4.281 1.265-4.295 3.077-.017 1.34 1.26 2.087 2.226 2.534.99.457 1.322.748 1.317 1.157-.007.624-.79.91-1.52.91-1.017 0-1.558-.14-2.393-.488l-.327-.149-.357 2.087c.594.261 1.692.485 2.831.497 2.672 0 4.408-1.25 4.426-3.187.011-1.06-.667-1.868-2.135-2.531-.89-.433-1.433-.72-1.428-1.157 0-.388.461-.802 1.456-.802ZM29.211 11.555h-1.963c-.61 0-1.064.166-1.332.774l-3.774 8.546h2.67s.435-1.15.533-1.4l3.255.003c.076.326.31 1.397.31 1.397h2.358l-2.057-9.32Zm-3.134 6.01c.209-.535 1.012-2.606 1.012-2.606-.013.026.208-.539.339-.89l.171.804.59 2.692h-2.112Z"/></g><defs><clipPath id="a"><path fill="#fff" transform="translate(0 .563)" d="M0 0h31.268v31.268H0z"/></clipPath></defs></svg>