<svg width="32" height="32" fill="none" xmlns="http://www.w3.org/2000/svg"><g opacity=".5" clip-path="url(#a)"><path d="M19.802 16.197c0 5.397-4.372 9.77-9.767 9.77S.268 21.593.268 16.197s4.373-9.77 9.767-9.77c5.394 0 9.767 4.374 9.767 9.77Z" fill="#E2574C"/><path d="M21.765 6.427c-2.19 0-4.207.73-5.836 1.948h.008c.32.31.674.529.946.885l-2.032.032c-.319.322-.609.672-.882 1.035h3.583c.273.327.525.612.754.973h-4.987a9.726 9.726 0 0 0-.5.974h6.054c.159.335.3.588.42.943h-6.832a9.418 9.418 0 0 0-.271 1.034h7.39c.072.338.128.65.166.969h-7.703a9.807 9.807 0 0 0-.049.977h7.808c0 .346-.025.666-.06.977h-7.699c.033.331.082.657.147.977h7.378a11.53 11.53 0 0 1-.274.965h-6.855c.103.335.23.659.367.976h6.067c-.168.355-.358.64-.568.973h-5.003c.197.341.415.668.651.98l3.6.054c-.307.369-.701.59-1.06.913.02.015-.573-.002-1.74-.02a9.734 9.734 0 0 0 7.012 2.975c5.396 0 9.77-4.374 9.77-9.77s-4.373-9.77-9.77-9.77Z" fill="#F4B459"/></g><defs><clipPath id="a"><path fill="#fff" transform="translate(.268 .563)" d="M0 0h31.268v31.268H0z"/></clipPath></defs></svg>