<svg width="495" height="86" fill="none" xmlns="http://www.w3.org/2000/svg"><path opacity=".75" d="M493.627 62.301c-1.221-.244-1.71-.733-3.175-.733-1.709-.244-2.93-.733-3.663-1.466-.732-.488-1.953-.733-1.221-1.71.977-.977 1.71-2.443.733-2.443s-3.175-.489-4.395-.977c-1.221-.245-2.198-.733-3.175-1.222-1.221-.489-2.442-1.222-1.953-2.199.488-.977-.977-1.71-1.954-1.954-.977-.245-12.942-2.444-16.605-3.177-3.663-.733-8.791-1.465-13.675-3.176-5.128-1.71-9.767-3.42-12.454-8.795-2.686-5.375-3.174-8.551-4.395-10.261-1.221-1.71-2.442-5.62-4.396-6.597-1.953-1.222-1.953-2.199-3.418-1.955-1.465.245-2.686.978-3.907 1.466-1.465.489-4.64 1.955-5.861 2.444-1.221.732-1.465 1.465-3.174 1.465-1.71 0-7.326 3.42-9.28 4.642-1.953 1.222-8.302 5.375-10.011 6.108-1.466.733-3.663 2.932-5.373 3.42-1.709.734-3.174 1.955-5.616 2.688-2.442.978-10.012 5.375-13.675 6.841-3.663 1.466-11.721 4.154-14.896 3.665-3.174-.489-6.349-6.84-7.569-10.017-1.221-3.176-6.594-15.148-10.501-17.102-4.151-2.2-6.349-1.71-8.058-1.222-1.709.489-4.396 2.199-5.128 2.443-.733.245-5.128 2.2-7.082 2.932-1.953.733-5.372 1.71-7.57 2.688-2.197.977-4.639 1.71-5.372 1.71-.488 0-2.93-1.466-4.151-.733-1.465.733-4.151 1.71-5.128 2.199-.977.733-2.686 1.221-2.93 1.71 0 .489.732.733 1.465.489.732-.245 1.465-.733 2.686-1.222 1.221-.244 3.419-.977 2.93-.733-.488.244-2.93 1.955-4.151 2.443-1.221.489-.977.977-3.419 1.466-2.442.733-3.907.244-3.174-.244.732-.489 1.709-1.222.976-1.466-.732-.244-1.22 0-2.197.733-.977.733-1.71.733-3.907 1.221-2.198.49-2.931.978-4.152 1.955-1.221.977-3.662.977-4.395 1.222-.488.244-2.442.733-3.663.733-1.221 0-1.953-.978-4.395 0-2.686.977-8.547 2.687-10.501 2.931-2.197.245-4.395-.733-5.616-1.954-1.221-.977-11.233-20.523-13.186-22.722-2.198-2.199-8.791-9.773-10.501-10.261-1.465-.489-6.349-.733-9.767.489-3.419 1.221-11.966 3.909-16.361 6.596-3.907 3.42-25.152 17.102-34.675 22.477-9.524 5.375-16.605 9.284-18.559 10.017-2.198.733-3.174.733-4.395 1.222-1.221.489-2.198-.244-.977-.733s5.86-2.932 7.814-3.665c1.954-.977 5.616-3.42 7.57-4.153 1.953-.733.977-.977-1.221 0s-5.128 1.71-7.326 2.932c-2.198 1.221-6.105 2.443-7.326 3.42-1.465.977-7.081 2.932-13.43 3.665-6.349.489-13.675-1.466-14.896-2.199-.977-.733-3.418-2.688-3.418-2.688s-1.466-9.528-3.175-12.46c-1.71-3.176-13.919-20.767-16.605-24.187C79.722 4.887 74.838 0 69.466 0c-5.373 0-15.384 5.62-21.733 9.528-6.35 4.154-31.745 26.387-36.63 31.029C4.512 46.909-.861 51.307.116 56.193c.733 4.887 6.838 16.858 10.256 21.011 3.419 4.154 4.64 7.33 10.256 2.688 5.617-4.642 22.954-25.898 35.896-35.182 12.943-9.284 26.129-17.346 29.06-10.017 3.174 7.33 14.407 29.563 20.267 38.358 5.861 8.796 26.617 15.392 47.129 5.864 20.512-9.529 46.641-27.608 55.432-32.25 9.035-4.642 17.093-4.642 18.558-4.154 1.71.489 11.477 24.676 13.187 29.074 1.709 4.154 15.14 13.926 31.012 7.086 9.524-3.91 29.059-13.682 44.687-18.569 10.5-3.42 19.291-3.909 20.756-1.221 3.663 6.84 5.373 21.255 11.477 24.676 6.105 3.42 10.989 2.687 16.117.733 5.372-1.955 7.814-3.176 10.012-5.375 1.954-2.2 8.791-7.33 11.965-8.063 3.175-.733 18.315-10.017 21.978-11.238 3.663-1.222 10.5-5.375 10.5-5.375s2.686-1.222 3.419-1.466c.488-.245 1.953-.489 2.441-.245.489.245.489 1.222 0 1.222-.488 0-24.419 12.949-27.105 14.415-2.442 1.466-10.256 5.863-11.965 6.596-1.465.489-4.64 2.444-6.349 3.177-1.71.732-1.465 1.954-.244 1.465 1.221-.488 15.14-7.085 18.314-8.795 3.174-1.71 12.698-7.574 15.14-9.04 2.442-1.466 3.907-1.954 6.105-2.687 2.197-.733 4.639-2.2 4.883-2.2.245-.243 1.954-1.22 2.442-1.22.245 0 .977 1.71.977 2.198 0 .489 6.838 13.193 10.5 16.125 3.908 2.932 7.815 4.642 10.012 5.864 2.442 1.221 2.931 1.466 4.884 1.221 1.954-.244 2.442-.488 2.93-.977.489-.489.245-.733 1.466-.244a33.633 33.633 0 0 0 8.546 2.199c4.152.488 6.838.488 8.547.488 1.709-.244 3.419-.244 2.686-.244-.732-.244-4.884 0-8.058-.977-3.175-.978-5.128-.489-7.57-1.466-2.442-.978-1.954-1.71 0-1.955 2.198 0 8.058 1.466 10.989 1.955 3.174.488 7.081.244 9.523.488 2.198.245 4.151.245 4.395 0 .489-.488.489-.733 1.466-.733 1.221 0 1.953-.244 3.174-.244 1.221-.244 2.442-.733.244-.977-2.442-.245-5.616-.978-6.837-1.222s-2.93-.733-4.151-1.221c-1.221-.489-2.198-.978-2.442-1.222-.489-.244.977-1.221 2.93-1.221 1.954 0 4.64.488 6.349.488 1.709 0 6.349.733 6.105 0-.244-.733-1.71-.733-2.931-1.222-.976-.244-1.709-.733-2.686-.977-.976-.244-2.197-1.221-1.709-1.466.488-.244 1.709-.488 1.221-.977-.244-.489-1.465-2.199-.244-2.688 1.221-.488 1.953-1.465 2.93-1.465.977 0 2.198-.733 2.93-.733 1.221-.978 2.931-1.466 1.71-1.955ZM59.697 5.864c-.732.977-2.441 2.687-4.395 3.909-1.953 1.221-12.697 9.528-15.14 10.505-2.685 1.222-9.034 7.574-10.5 9.04-1.709 1.222-5.616 4.398-8.058 6.597-2.686 2.199-5.86 4.153-5.86 4.153.488-.244 10.988-11.971 21.977-20.034C48.465 11.972 51.64 10.017 54.08 8.307c2.687-1.466 2.93-1.71 4.396-2.443 1.22-.733 1.954-.978 1.22 0ZM185.214 55.46c-.489.489-1.71.977-2.687 1.466-.732.489-1.709.489-2.441 1.222-.489.733-1.466.733-1.466.244s0-1.71.977-1.955c1.221-.244 2.442-.732 2.93-.977.489-.244 1.221-.977 1.71-.977.732-.244 1.709.244.977.977Zm10.988-6.84c-.977.488-2.93 2.198-3.663 2.443-.732.244-1.465.732-2.197 1.71-.733.977-1.466.977-1.954 1.221-.733.245-.977-.977-.244-1.466.732-.244 1.953-1.954 2.686-2.443.733-.488 1.221-.733 2.686-1.466 1.709-.977 1.954-1.466 2.93-1.221.977.488.733.488-.244 1.221Zm10.989-34.45c-3.175.978-5.861 2.2-14.896 7.086-9.279 4.886-21.977 13.681-24.175 14.659-1.953.733-1.953-.977-.977-1.466.977-.489.977-.733 4.396-2.932 3.174-2.199 10.988-6.596 16.116-10.017 5.128-3.42 14.164-6.84 16.85-7.574 2.686-.733 6.104-.489 6.104-.489s-.244-.244-3.418.734Zm84.49 21.745c2.198-.977 6.593-2.688 8.547-3.176 1.953-.489-1.465 1.221-2.442 1.71-1.221.489-1.954 1.221-2.686 1.954-.733.733-3.419 1.222-4.396 1.222-1.221.244-.488-.733.977-1.71Zm-7.57 31.028c.977-.244 3.419-1.221 3.907-1.466.733-.244 4.884-1.466 6.105-1.954 1.465-.489 2.198-1.466 3.419-1.955 1.221-.488 1.709-.488 3.907-1.466 1.953-.977 3.174-1.466 4.151-1.71.733-.244 4.884-2.443 5.861-2.443.976 0 3.174-.489 3.663-.733.488-.244 1.465-.244 1.221 0-.245.489-1.221 1.71-1.954 1.954-.733.245-3.907 1.222-4.884 1.71-1.221.245-3.907.978-5.86 1.71-1.954.734-4.884 2.444-6.594 3.177-1.709.489-3.663.977-5.372 1.955-1.709.733-1.709.733-3.907 1.71s-3.419 1.71-3.419 1.71c-.976.489-1.953.489-1.953-.244-.489-.733.732-1.955 1.709-1.955Zm13.919-.977c-9.279 4.398-14.163 6.352-18.07 7.818-3.907 1.466-5.372 1.222-5.372 1.222s4.884-2.2 7.081-2.932c2.198-.733 16.361-7.33 23.199-10.017 5.616-2.443 5.128-1.955 8.79-3.176 2.931-.978 3.419 0 3.419 0s-9.768 2.687-19.047 7.085Zm119.166-46.91c-.244 1.222 0 1.222-1.465 2.444-1.71.977-3.419 2.932-2.442 2.443.976-.489.732.977-.489 1.955-1.221.977-2.197.977-4.395 1.954-2.198.977-3.175 1.955-6.105 2.444-2.686.488-5.616 2.443-8.791 4.153-3.174 1.954-8.547 4.886-11.721 6.596-3.175 1.71-4.884.733-6.105 1.955s-1.709.733-3.419.977c-1.709.245-1.221-.977-1.221-.977.977-.733 2.687-1.71 3.908-2.199.976-.733 4.883-1.954 6.349-2.443 1.465-.733 3.907-2.443 4.883-2.932.977-.489 4.396-3.176 5.373-3.909.976-.733 6.104-3.665 7.814-4.398 1.709-.733 4.151-1.954 5.372-2.198 1.221-.245 3.419-1.466 4.64-1.955 1.221-.489 3.174-1.955 3.907-2.443.732-.489 1.465-.977 2.442-1.466 1.221-.733 1.953-1.466 1.465 0Z" fill="#FBB116"/></svg>