<svg width="381" height="286" fill="none" xmlns="http://www.w3.org/2000/svg"><path opacity=".75" d="M201.17 35.769c2.268.318 4.907 1.414 4.096 1.829-.762.62.499 2.052 1.415 3.568.917 1.515-1.056.909-.707 2.345.35 1.436 1.116 2.337.404 3.162-.711.825.005 1.52.305 2.751.349 1.437-1.674.625-2.086 2.681-.317.947.399 1.642 1.388 2.705.817 1.106.722 2.216-.879 2.388-1.601.172-3.297 1.454-5.882 2.083-2.585.629-20.708 4.17-25.261 5.712-4.554 1.542-12.549 5.444-14.517 6.357-2.091 1.16-23.342 12.852-36.075 22.036-12.734 9.184-31.97 26.905-39.357 36.309-7.386 9.405-23.156 32.368-28.832 45.051-5.626 12.888-10.867 22.857-12.063 34.45-1.145 11.798-1.355 31.193.66 37.223 0 0-1.456-.732-3.665-6.063-2.21-5.331-7.143-22.605-8.138-33.447-.968-9.98 1.35-32.713 9.968-49.807 8.62-17.094 16.526-33.363 29.757-48.754 13.232-15.39 20.718-24.384 37.656-36.547 16.888-12.368 19.545-13.45 20.724-14.606 1.179-1.156 1.818-1.529 3.197-1.864 1.379-.336 1.991-1.572 3.097-2.276 1.157-.498 14.707-8.577 30.068-12.966 15.533-4.432 29.057-5.114 34.727-4.32Z" fill="#FFCA42"/><path opacity=".75" d="M306.786 95.487s-10.37 16.651-17.094 25.024c-6.552 8.332-27.451 37.977-55.223 52.124-27.772 14.147-50.239 23.091-88.408 29.77-38.169 6.679-57.926-.251-65.955-6.991-8.03-6.74-18.654-24.151-21.49-32.807 0 0 3.324 22.665 4.799 29.478 1.525 7.019 6.762 27.045 24.112 36.081 17.177 9.079 45.51 8.488 68.436 4.432 22.926-4.057 58.05-14.994 74.82-25.595 16.771-10.6 42.8-30.409 48.94-36.685 6.09-6.48 8.543-9.903 7.731-9.488-.812.415-5.917 6.439-7.096 7.595-1.179 1.156-9.36 8.798-12.407 11.278-2.58 2.149-5.827 3.809-6.467 4.182.984-.457 6.956-5.171 9.07-6.989 2.063-2.023 4.96-5.119 5.55-5.697.589-.578.562-1.441 1.374-1.856.812-.415 1.156-.499 1.573-1.035.368-.741 2.164-1.613 2.875-2.438.712-.825.907-1.525 1.152-2.019.245-.494 1.007-1.114 1.202-1.814.367-.741.489-.988 1.301-1.403.862-.21 1.796-.872 1.991-1.571.195-.7.784-1.278 1.129-1.362.345-.084 1.723-.419 2.091-1.16.244-.495 7.141-8.91 9.25-12.249 2.28-3.38 3.504-5.852 3.872-6.593.367-.741.339-1.604.684-1.688.467-.331.712-.825.662-1.03-.1-.411.095-1.11.562-1.441.467-.331 1.029-1.772 1.882-5.022 1.024-3.292 1.269-3.787 1.295-11.183.075-7.191-.43-19.022-2.213-21.848Zm-23.078 41.695c-.539.783-1.129 1.361-1.668 2.144-3.927 4.868-13.844 16.627-21.807 22.911-10.421 8.187-25.785 19.315-30.778 22.051-4.993 2.736-5.682 2.904-6.816 2.745-1.134-.159-.69.168-3.052.96-2.363.792-4.649 2.652-5.633 3.109-.984.457-11.097 4.656-22.494 8.081-11.569 3.467-30.137 6.681-30.137 6.681s29.398-6.718 41.996-11.957c12.771-5.281 17.297-7.686 19.387-8.847 2.091-1.16 17.075-7.849 30.81-19.667 12.557-10.663 22.411-18.929 28.351-26.025 1.252-1.608 1.964-2.434 1.841-2.186Z" fill="#FFCA42"/><path opacity=".75" d="M349.582 78.555c-1.588-3.526-3.503-9.145-6.941-13.525-3.439-4.38-15.174-14.348-22.526-17.558-7.353-3.21-23.554-7.527-36.471-9.6-13.04-1.827-20.7-1.05-24.864-.906-4.163.144-9.238.292-11.801.263-2.512.177-16.994 2.179-22.141 2.78-4.975.558-13.103 1.666-17.189 2.878-3.914 1.17-18.835 4.365-21.297 4.747-2.463.382-8.939 1.523-12.336 2.567-3.397 1.043-9.524 3.62-12.871 4.87-3.347 1.249-21.165 7.54-25.714 10.603-4.376 3.021-6.566 3.771-9.274 4.648-2.535.834-4.671 3.31-5.36 3.477-.689.168-12.544 6.964-16.036 9.118-3.492 2.154-14.72 12.275-21.104 19.045-6.435 6.565-12.52 14.566-16.025 20.417-3.504 5.852-6.202 9.769-8.237 20.914-1.912 10.898-1.37 18.373-.063 26.749 1.308 8.375 2.298 17.698 4.49 25.206 2.192 7.508 4.797 12.96 5.836 14.229 0 0-4.996-37.037 13.3-63.875 18.123-26.797 54.787-49.41 105.463-66.957 50.675-17.546 108.716-12.324 122.21-7.13 0 0 .934-.663-3.406-1.997-4.513-1.293-10.183-2.087-10.183-2.087s3.842-.717 13.09 2.031c9.248 2.75 15.172 6.09 19.69 8.902 4.295 2.65 9.507 6.816 12.506 12.389 2.949 5.368 6.252 13.693 7.85 20.259 1.598 6.567 1.612 11.127 1.879 9.976.268-1.152 1.613-12.129.94-22.398-.846-10.227-1.826-16.509-3.415-20.035ZM280.488 45.16c-6.336-1.284-10.966-.81-12.962-.758-1.996.05-2.957-.15-4.903.106-1.945.256.145-.905-2.023-.812-2.168.093-4.925.764-8.299 1.15-3.375.386-6.482-.38-10.445.585-3.792.922-11.085.958-15.788 1.885-4.703.927-9.578 1.896-13.42 2.613-3.841.718-6.97.61-10.59 1.49-3.446.839-8.199 1.56-4.902.106 1.623-.83 8.122-2.628 11.397-3.425 3.102-.754 10.317-1.858 12.952-2.282 2.635-.423 34.505-4.483 39.73-4.015 5.225.467 23.017 1.572 30.438 2.809 7.247 1.28 12.577 3.677 12.577 3.677s-17.425-1.845-23.762-3.13Z" fill="#FFCA42"/><path opacity=".75" d="M348.565 76.63c-.645-1.148-4.164 23.399-7.22 31.098-3.055 7.698-17.991 29.589-26.783 38.466-8.793 8.877-37.403 30.835-40.033 32.779-2.458 1.903-4.503 1.748-6.199 3.03-1.696 1.282-.128-1.273-2.341.135s-19.427 11.682-22.969 13.63c-3.542 1.949-16.653 8.834-21.573 11.118-4.921 2.284-41.832 17.133-56.086 20.818-14.426 3.728-40.06 8.661-50.01 9.778-9.951 1.117-23.403 1.347-33.43 1.396-10.028.049-19.281-4.22-25.055-6.945-5.724-2.519-9.385-7.062-12.652-11.484-3.044-4.258-10.18-17.084-12.127-25.086 0 0-1.577 7.773.851 20.006 2.429 12.232 8.705 33.526 18.09 40.589 9.386 7.062 28.209 14.653 51.634 12.649 23.253-1.963 48.614-7.264 52.75-8.271 4.136-1.006 16.839-4.314 19.424-4.943 2.585-.629 4.259-1.254 6.277-1.962s1.546-1.898.512-1.646c-1.034.251-.639.373-2.141.955-1.501.583-2.09 1.161-3.052.96-.961-.2-1.478-.075-2.462.382-.984.457-1.551.378-2.93.713-1.379.336-1.034.252-2.535.834-1.501.583-2.318-.523-2.318-.523s1.107-.703 2.485-1.039c1.379-.335 8.273-2.013 9.601-2.553 1.157-.499 2.88-.918 4.136-1.007 1.257-.088 2.585-.629 3.62-.88 1.034-.252.512-1.646 1.546-1.898 1.034-.251.617.285 1.995-.051 1.379-.335 2.953-1.37 4.159-1.664 1.206-.293 2.43-2.764 4.154-3.184 1.723-.419 2.607-1.286 3.202-.344.594.942 1.061.611.911-.005-.149-.615-.499-2.052.658-2.55 1.156-.499 2.535-.834 3.986-1.622 1.451-.788 4.871-2.489 6.077-2.783 1.206-.293 2.39.071 2.39.071s-4.036 1.416-5.66 2.246c-1.623.83-4.009 2.28-2.63 1.944l4.136-1.006c1.034-.252 1.479.075 2.758-.671 1.278-.746 1.646-1.487 3.319-2.112 1.674-.625 1.868-1.324 3.592-1.743l3.102-.755c.689-.168 2.535-.834 3.692-1.333 1.156-.499 1.079-1.567 2.235-2.065 1.157-.499 4.676-1.79 5.832-2.289 1.157-.498 2.903-1.575 4.009-2.279 1.107-.704 3.025-1.823 4.354-2.364 1.329-.54.961.201 2.857-.26 1.896-.461 2.612.234 5.193-1.916 2.58-2.149 2.013-2.228 3.364-3.426 1.352-1.199 4.254-2.774 6.222-3.688 1.968-.913 2.68-1.739 3.714-1.99 1.034-.252 1.724-.419 1.352-1.198-.372-.779.462-1.852 1.179-1.157.717.695 1.873.197 1.873.197 1.696-1.282 3.464-3.017 4.498-3.268 1.035-.252 1.624-.83 3.492-2.154 1.869-1.324 1.869-1.324 3.025-1.823 1.157-.498.435-2.714 1.886-3.501 1.451-.788 4.231-2.117 5.755-3.357 1.524-1.24 2.78-1.328 4.304-2.568 1.523-1.24 1.601-.172-2.531 2.354-4.131 2.527-4.104 3.39-2.602 2.807 1.501-.583 3.219-2.522 5.482-3.725 2.263-1.203 2.853-1.781 3.392-2.564.54-.783-.349-1.436 1.052-2.429 1.401-.993 3.809-3.101 5.21-4.094 1.402-.993 4.059-2.074 5.238-3.23 1.179-1.156 2.975-2.028 3.982-3.142 1.006-1.115 2.48-2.56 1.791-2.392-.689.168-2.63 1.944-4.326 3.226-1.696 1.282-3.125 1.412-3.125 1.412s1.768-1.734 3.514-2.811c1.746-1.077 2.064-2.023 3.465-3.016 1.401-.993 2.186-2.271 1.669-2.145-.517.126-3.003 1.165-1.824.009 1.179-1.157 2.753-2.191 4.571-3.721 1.819-1.529 3.583-4.783 3.583-4.783s.594.942-.313 2.466c-.907 1.525-1.569 2.556.005 1.521 1.573-1.035.862-.21 2.458-1.902 1.596-1.693 4.126-4.047 6.312-6.318 2.185-2.27 2.702-2.396 3.487-3.674.784-1.277 1.229-.951.784-1.277-.444-.327-1.233-.57-1.233-.57 1.646-1.487 1.863-2.844 3.092-3.795 1.229-.951 2.498-4.737 3.627-6.099 1.129-1.361 3.193-3.385 3.805-4.62.612-1.236 1.274-2.266 2.303-4.038 1.029-1.772 2.493-6.258 3.055-7.699.562-1.441 1.147-3.539 1.315-5.101.167-1.562 1.459-6.006 1.734-12.376 1.949-6.995 1.315-28.358-2.967-34.706Zm-41.933 86.491c-6.584 5.949-15.799 13.842-17.962 15.455-1.991 1.571-10.575 6.05-14.212 9.109-3.687 2.853-14.707 8.577-18.494 11.02-3.786 2.442-27.055 14.842-34.733 17.797-7.678 2.954-29.333 11.483-33.642 12.532-4.136 1.006-7.288 1.556-8.789 2.138-1.501.583-3.764 1.786-6.004 2.331-2.241.545-2.953 1.37-4.676 1.789l-5.17 1.258c-1.896.462-53.307 11.232-62.75 9.182-1.529-.28 31.08-4.302 33.715-4.725 2.635-.424 23.787-4.267 30.209-7.133 6.472-2.662 25.651-7.111 29.982-8.817 4.503-1.747 34.176-14.835 37.401-15.837 3.224-1.002 16.92-9.985 21.568-12.638 4.476-2.61 22.802-12.068 28.434-15.177 5.633-3.11 13.124-10.583 18.212-14.429 4.916-3.805 21.544-20.239 24.686-23.829.345-.084-11.068 13.777-17.775 19.974Z" fill="#FFCA42"/></svg>