<svg width="289" height="190" fill="none" xmlns="http://www.w3.org/2000/svg"><path opacity=".75" d="M51.15 157.956c-.015 3.719.3 4.421.834 8.23.61 3.607-.267 6.532-1.713 8.195-1.445 1.663-3.396 2.203-5.395 2.259-2 .056-2.596-.519-4.224-1.136-1.628-.618-4.848-1.025-6.132-1.628-1.22-.464-3.424-.485-5.255-1.179-1.831-.695-4.617-1.635-4.533-3.698.085-2.063.253-2.814 1.81-3.852 1.495-1.179 2.94-2.842 3.214-4.483.274-1.642 2.533-6.371 2.59-7.746.056-1.375.772-5.41 1.53-7.101.757-1.69.793-4.237 1.487-6.069.695-1.831 3.004-9.45 3.839-11.345.834-1.894 2.75-6.637 3.29-8.061.744-1.347 2.253-6.245 2.842-7.185.59-.94 1.888-4.055 2.491-5.339.527-1.081 1.39-3.662 2.569-5.543 1.178-1.88 3.094-6.623 4.104-7.753 1.01-1.13 2.014-3.774 2.793-4.293.779-.52 2.007-1.916 3.003-2.702 1.06-.645 3.824-.877 6.322-1.325 2.638-.513 6.623-.28 8.496-.617 1.937-.197 3.768.498 3.852 1.81.084 1.312-1.564 2.898-2.217 3.697-.653.8-4.301 5.817-5.171 6.883-.87 1.067-6.589 11.233-8.041 14.755-1.453 3.522-1.334 5.662-2.442 5.823-.906.239-1.074.99-1.053 2.161.084 1.312-.442 2.393-1.045 3.677-.464 1.221-3.348 9.437-3.698 11.282-.211 1.782-1.502 6.413-1.993 8.321-.492 1.908.336 1.873-.61 3.143-.948 1.27.013 3.031-.794 4.238-.26 1.298-.807 4.582-.75 6.581Z" fill="#FBB624"/><path opacity=".75" d="M134.074 71.877c-.737-.513-2.8-.597-5.298-.148-1.094-.182-2.189-.365-2.876-.393-1.642-.274-7.669.582-9.058.87-1.109.161-1.67.414-1.762.96-.996.787-1.929 1.713-3.283 2.828-2.133 1.635-4.238 5.957-6.421 10.482-2.322 4.589-11.886 31.334-13.072 35.074-1.186 3.74-3.354 7.921-3.831 6.111-.54-1.95-1.663-11.57-2.14-16.755-.133-1.796-1.922-10.272-2.399-12.082-.336-1.873-3.669-9.654-4.847-11.149-1.18-1.494-2.133-1.74-3.852-1.81-1.72-.07-3.86.049-5.171.133-1.312.084-5.936.308-7.67.582-1.592.21-2.658 2.715-2.623 3.543 0 0 1.34 2.603 2.287 4.708.884 1.965 3.43 8.749 3.999 10.012.568 1.263 2.273 5.052 2.392 7.192.12 2.14 1.27 11.072 1.157 13.822-.05 2.891.575 12.903.259 15.576-.253 2.814-.106 14.391.013 16.531.12 2.14 1.2 2.666 2.674 3.69 1.41.884 4.111.513 6.3.878 2.19.364 7.206.638 9.051.989 0 0 2.189.365 4.168-.863 1.978-1.227 1.698-1.101 5.34-4.258 3.641-3.157 2.722-5.95 4.848-9.1 2.126-3.15 4.631-12.208 5.817-15.948s7.901-24.816 9.789-28.871c.526-1.081 1.361-2.975 2.35-5.277.26 2.077.597 3.951.821 5.199.8 4.028 1.529 9.774 2.322 12.286.996 2.589 3.213 5.641 4.995 5.852 1.923.147 6.125.112 8.925.709 2.799.596 7.549.653 9.374-.168 1.824-.821.442-2.393-.253-3.936-.694-1.544-1.178-4.87-1.424-7.29-.386-2.358-1.873-6.413-1.964-9.241-.231-2.764-2.35-11.598-2.448-12.566-.098-.968-3.136-12.594-3.992-15.247-.112-.624-.505-1.122-.835-1.48.372-.674-.785-.996-1.662-1.445Z" fill="#FBB624"/><path opacity=".75" d="M128.353 122.543c2.484-.106 8.616 1.522 11.724 1.305 3.045-.358 7.676.933 10.833-5.549 3.158-6.483 4.744-18.334 8.442-26.24 3.761-7.768 8.483-17.148 11.206-23.098 0 0 1.452 6.602 3.192 11.22 1.74 4.616 6.3 7.626 10.489 7.935 4.189.309 8.798.428 12.264-.119 3.326-.484 7.185-3.908 9.171-6.995 1.845-3.024 3.445-8.468 4.919-10.819 1.41-2.49 6.125-16.761 8.048-16.614 1.922.148 8.307 2.337 11.668 2.68 3.361.345 11.254 1.012 13.667-.75 2.414-1.76 4.709-5.661 5.838-8.026 1.13-2.364 1.783-6.539 2.211-8.587.568-2.112.47-3.08 3.354-7.922 2.884-4.84 2.575-4.027 4.013-7.205 1.439-3.179 1.158-3.052.611-3.143-.484.049-.547-.092-.814-.31-.267-.217-.393-.497-.175-.764.154-.407.386-1.017.821-1.55.435-.534 1.305-1.6.884-1.41-.421.189-.498.392-.765.174-.267-.217-.393-.498-.035-.827.358-.33.793-.863.323-1.158-.47-.295-1.284-.604-1.284-.604s.014-.343-.344-.014c-.295.47-.667 1.144-.947 1.27-.281.127-.597-.575-.519-.778.077-.204.603-1.284 1.178-1.88.513-.738.309-.815.744-1.348.435-.533.463-1.22-.035-.828-.498.393-1.151 1.193-1.586 1.726-.294.47-.729 1.003-.807 1.207-.217.267-.294.47-.498.393-.203-.077-.659-.716-.659-.716s-.049-.484.105-.891c.154-.407.435-.533.653-.8.154-.407-.253-.561-.597-.575-.203-.077-1.312.084-1.389.287-.217.267-.947 1.27-1.228 1.397-.281.126-9.599 12.418-10.777 14.298-1.102 1.677-5.228 8.258-6.098 9.325-.87 1.066-2.021 2.259-2.617 1.683-.596-.575-8.37-2.477-10.98-2.652-2.547-.035-10.02-.892-12.595-.24-2.652.857-7.065 2.674-8.644 5.915-1.579 3.242-10.455 23.266-10.455 23.266s-3.879-11.247-4.385-12.37c-.505-1.123-1.164-1.838-2.729-2.316-1.564-.477-14.958-1.368-16.411-1.221-1.452.147-6.476 1.733-7.269 2.596-.793.863-8.083 9.036-10.391 13.281-2.309 4.245-7.059 14.313-8.035 16.27-1.115 2.021-6.806 11.5-8.125 13.443-1.382 1.803-5.333 19.274-7.164 21.954-1.769 2.82-2.463 4.652-1.46 5.381.94.59 3.459 1.313 3.459 1.313Z" fill="#FBB624"/></svg>