<svg width="383" height="322" fill="none" xmlns="http://www.w3.org/2000/svg"><circle cx="23.5" cy="230.5" r="7.5" fill="#FA8D8D" fill-opacity=".51"/><circle cx="358" cy="5" r="5" fill="#87A3E3"/><g clip-path="url(#a)"><path opacity=".75" d="M34.557 156.309c-.022-.168-.006-.632.404-.731.42-.083 1.163-.402 1.406-.559.227-.149 4.828-2.806 5.249-3.049.421-.243 2.737-1.559 2.94-1.716.22-.166.44-.411.737-.376.288.02.454.198.548.351.078.161.388.349.522.463.127.097.418.453.455.693.036.241.001.416-.093.759-.085.319-.016.504-.116.751s-.3.205-.487.314c-.186.11-.468.187-.694.296-.227.109-3.586 1.909-4.291 2.348-.69.432-2.093 1.367-2.604 1.713-.511.346-1.102.691-1.403.895-.3.204-.666.52-1.057.371-.39-.148-.975-1.236-1.161-1.662-.194-.443-.355-.861-.355-.861Z" fill="#FFC327"/></g><g clip-path="url(#b)"><path opacity=".75" d="M21.168 149.937c-.12-.119-.394-.494-.131-.826.278-.323.667-1.032.762-1.306.087-.257 2.075-5.184 2.257-5.635.182-.45 1.197-2.914 1.26-3.163.07-.266.093-.595.348-.749a.682.682 0 0 1 .648-.062c.16.079.52.036.697.043.16-.001.608.099.785.267.177.167.257.326.395.654.129.304.297.407.37.663.073.257-.11.346-.19.548-.079.201-.254.435-.365.661-.11.225-1.649 3.712-1.934 4.493-.276.764-.806 2.365-.995 2.952-.19.588-.443 1.224-.554 1.57-.11.346-.205.82-.604.943-.4.124-1.53-.373-1.939-.594-.425-.229-.81-.459-.81-.459Z" fill="#FFC327"/></g><g clip-path="url(#c)"><path opacity=".75" d="M6.954 150.505c-.167-.031-.604-.187-.573-.609.049-.424-.028-1.229-.104-1.508-.072-.262-1.2-5.454-1.302-5.929-.103-.476-.65-3.083-.738-3.324-.091-.26-.257-.545-.133-.816a.684.684 0 0 1 .501-.415c.177-.025.45-.263.6-.356.131-.091.559-.26.799-.222.24.039.397.126.695.32.278.178.475.169.68.34.204.17.102.348.15.559.048.211.035.503.07.752s.724 3.997.928 4.802c.2.788.663 2.41.837 3.002.173.592.321 1.261.424 1.609.104.348.292.793.032 1.12-.261.327-1.475.552-1.938.599-.48.049-.928.076-.928.076Z" fill="#FFC327"/></g><g clip-path="url(#d)"><path opacity=".75" d="M5.89 184.055c.133.105.448.445.225.805-.24.353-.544 1.102-.607 1.385-.056.266-1.462 5.389-1.591 5.858-.129.469-.852 3.033-.886 3.288-.04.272-.024.601-.26.784a.683.683 0 0 1-.636.136c-.169-.06-.521.024-.697.038-.159.02-.616-.029-.81-.174-.195-.146-.294-.295-.468-.605-.164-.287-.343-.37-.445-.616-.102-.246.07-.356.125-.565.056-.209.203-.462.287-.699.084-.237 1.21-3.878 1.402-4.686.187-.792.528-2.443.648-3.048.12-.606.3-1.267.37-1.623.069-.356.108-.838.49-1.007.383-.169 1.563.194 1.995.366.448.179.857.363.857.363Z" fill="#FFC327"/></g><g clip-path="url(#e)"><path opacity=".75" d="M19.407 181.987c.169.015.619.128.629.551-.008.427.146 1.221.248 1.492.098.253 1.72 5.313 1.868 5.776.148.463.943 3.005 1.054 3.237.115.25.308.517.21.799a.686.686 0 0 1-.458.462c-.174.042-.423.305-.563.412-.122.103-.531.313-.774.297-.243-.015-.407-.087-.722-.251-.294-.151-.49-.122-.71-.273-.22-.15-.135-.336-.203-.542-.068-.205-.083-.497-.142-.742-.059-.244-1.106-3.908-1.386-4.691-.276-.765-.892-2.334-1.122-2.907-.23-.573-.441-1.224-.577-1.56-.137-.337-.367-.762-.14-1.112.229-.351 1.416-.692 1.872-.783.473-.095.916-.165.916-.165Z" fill="#FFC327"/></g><g clip-path="url(#f)"><path opacity=".75" d="M31.44 178.472c.166-.036.63-.062.765.339.12.41.503 1.122.68 1.35.17.214 3.221 4.562 3.5 4.96.28.398 1.795 2.589 1.97 2.778.184.204.448.402.439.7a.683.683 0 0 1-.301.577c-.154.092-.314.417-.415.561-.086.135-.414.456-.65.514-.237.057-.415.038-.765-.025-.325-.057-.503.028-.758-.05s-.23-.281-.356-.457c-.126-.176-.227-.45-.356-.666-.128-.216-2.218-3.403-2.718-4.067a125.78 125.78 0 0 0-1.935-2.442c-.39-.479-.786-1.037-1.016-1.318-.23-.281-.577-.618-.463-1.021.114-.402 1.145-1.08 1.554-1.303.423-.232.825-.43.825-.43Z" fill="#FFC327"/></g><g clip-path="url(#g)"><path opacity=".75" d="M37.851 168.132c.125-.115.511-.372.83-.095.311.293 1.002.713 1.272.82.253.098 5.087 2.302 5.53 2.504.442.202 2.858 1.324 3.104 1.398.262.082.59.12.733.382a.681.681 0 0 1 .033.649c-.086.157-.06.519-.074.694-.006.16-.126.604-.3.773-.175.169-.339.243-.672.365-.31.116-.42.28-.68.341-.259.062-.34-.125-.538-.213-.197-.088-.423-.274-.644-.395-.22-.121-3.636-1.811-4.403-2.13-.751-.311-2.327-.91-2.906-1.126-.578-.215-1.202-.496-1.543-.622-.34-.126-.81-.241-.916-.646-.106-.404.44-1.511.68-1.91.248-.415.494-.789.494-.789Z" fill="#FFC327"/></g><g clip-path="url(#h)" fill="#FFC327"><path opacity=".75" d="M12.404 156.234c.591 0 .858.073 1.24.073.38 0 .514-.073.514-.184s-.305.037 0-.111c.305-.147.305-.147.305-.295 0-.147.381-.184.229-.331a.716.716 0 0 1-.19-.332s.114 0 .114-.258a.537.537 0 0 0-.42-.535c-.267-.074-1.792-.645-2.954-.332-1.163.295-4.251 1.328-5.72 2.194-1.486.83-5.584 4.038-6.9 5.549-1.334 1.494-2.954 4.093-3.393 5.956-.42 1.843-.152 4.24.343 5.494l.515 1.235s-.457-3.263-.038-4.812c.42-1.549.667-1.954.782-2.157.114-.185.419-.977.743-1.475.305-.479 2.211-2.895 3.145-3.724.934-.83 3.07-2.674 4.404-3.466 1.315-.793 3.202-1.697 4.441-2.028 1.24-.332 2.84-.461 2.84-.461ZM9.811 178.745c.077-.019.267-.037.4-.037.134 0 .325-.018.42-.018.095 0 .114.036.19-.019.077-.055.096-.018.172-.018.076 0 .305-.019.381-.019.077 0 .039-.073.096-.073.076 0 .076 0 .248-.019.171-.018.21 0 .324-.018.095-.019.21-.037.21-.019.018.037-.02.037-.077.037-.057.019-.19.019-.267.037-.057.018-.114.018-.21.018-.095-.018-.095.056-.171.056-.076 0-.229.018-.343.037-.115.018-.19 0-.267.018-.076.018-.133.055-.229.037-.095-.019-.286.018-.381.018-.095 0-.133-.018-.267 0l-.248.037c-.076 0 .02-.055.02-.055ZM12.994 178.376c.134 0 .496-.074.648-.111.153-.037.248-.055.325-.055.076-.018.133-.037.152 0 .02.037 0 .074-.114.092-.115.019-.096.019-.21.019-.114 0-.19.037-.286.037-.095 0-.19.036-.248.036-.057.019-.038 0-.114.019-.076 0-.21-.037-.153-.037ZM14.444 178.155c.057 0 .324-.037.438-.074.134-.037.344-.074.439-.092.095-.019.21-.037.42-.092.19-.056.361-.056.495-.092.133-.037.133-.056.286-.093.171-.037.4-.055.324-.018-.057.037-.153.055-.267.092-.134.037-.305.129-.4.129-.077 0-.286 0-.343.037-.058.037-.21.074-.306.092-.095.019-.152.019-.304.056-.153.036-.191.036-.267.073-.077.037-.096.056-.21.056-.115.018-.172.018-.286.018-.095-.018-.02-.092-.02-.092Z"/><path opacity=".75" d="M31.81 164.032c0 1.162-.935 3.393-1.793 4.407-.857 1.014-3.202 2.784-5.299 3.724-2.097.94-8.73 3.208-13.286 3.54-4.556.332-8.178-.037-11.724-1.364-3.545-1.291-4.498-6.306-4.594-6.011-.21.609-.114 3.061.19 4.093.306 1.014.859 2.378 1.926 3.374 1.087.996 2.307 1.622 2.688 1.751.4.13 1.449.535 1.716.572.266.037.743.184 1.162.24.439.073 1.316.221 1.888.258.571.037 1.563.129 1.982.129.42 0 2.383.037 2.573.037.191 0 .096-.111-.038-.111-.133 0-.476.074-.915.037-.438-.018-1.086-.018-1.315-.018-.229 0-1.334-.093-1.544-.111-.21-.019-1.468-.184-1.792-.203-.324-.018-1.315-.24-1.468-.258-.152-.018-.305-.147-.19-.203.114-.037.42 0 .648.092.229.093.877.203 1.334.259.458.073 1.487.239 2.097.221.591-.019 2.192.018 2.364.018.19 0 .21.019.343.019.133 0 .21-.019.19-.148-.019-.129.267-.11.515-.11.229 0-.019.092.21.147.229.074.362-.018.667-.037.305-.018.229-.092.324-.092s.076-.148.267-.184c.21-.019.477.018.324.036-.152.019-.21.13.038.13s.229-.019.515-.074c.267-.037.438-.037.629-.111.19-.074.229.019.476.019.248 0 .858-.203 1.125-.203s.267-.037.439-.092c.152-.037.247-.037.419-.074.152-.019.21 0 .438-.074.23-.074.325-.147.687-.203.362-.037 0 0 .076 0s.667-.147.82-.184c.152-.019.305-.019.21-.092-.096-.074.037-.148.19-.185.133-.018.362-.184.515-.184.133 0 0 .129-.248.203-.248.074-.267.184-.134.129.134-.037.344-.092.687-.203.343-.111.648-.111.762-.147.114-.037.076-.111.076-.203 0-.092.191-.037.324-.111.134-.074.325-.092.553-.147.229-.074.553-.129.362-.074-.19.074-.076.147.115.111.19-.037.21-.111.324-.13.114-.018.114-.018.114-.147s.19-.037.248.037c.076.092.229-.074.438-.258.191-.185 0 0 .115-.037.114-.037.19-.074.381-.111.19-.037.19.037.305-.037.114-.073.19-.184.381-.221.19-.037.343.037.515-.037.152-.073.515-.184 1.048-.534.553-.332 3.66-1.881 3.927-1.992.267-.11.229-.295.305-.405.077-.111.343-.074.343-.074l.267-.295c.267-.295.115-.258.229-.461.114-.184.19.074.381-.074.19-.147.343-.46.782-1.014.42-.571.705-1.438.705-1.438 1.335-3.447.667-5.107.667-5.107Zm-6.12 8.334a88.48 88.48 0 0 1-1.868.848c-.229.092-.457.074-.534.147-.076.093-.21.111-.305.148-.095.037-.266.092-.438.184-.153.092-1.2.461-1.678.627-.476.148-2.325.682-2.764.83-.438.129-1.639.405-2.115.461-.477.073-.458.147-.649.202-.19.037-.019.13-.21.13-.19 0-.857.147-1.086.184-.229.018-.362 0-.534 0-.152 0-.419 0-.476.018-.076.019-.229.074-.343.092-.115.019-.362.019-.934.093-.572.073-1.335.037-1.22.018 0 0 2.344-.313 2.611-.332.267-.018 3.508-.737 3.908-.774.381-.037 3.774-.996 4.9-1.42a64.277 64.277 0 0 0 3.793-1.622c.686-.332.876-.443.876-.443s-.438.369-.934.609Z"/><path opacity=".75" d="M29.846 160.714c-1.41-1.254-1.925-1.604-2.116-1.715-.19-.11-1.125-.627-1.296-.719a34.748 34.748 0 0 0-.953-.498s-1.716-.682-2.002-.792c-.267-.111-2.459-.83-4.08-1.088-1.62-.258-2.687-.443-3.392-.443-.706 0-.973-.055-1.335-.055s-4.918.313-5.966.498c-1.049.184-2.917.498-3.336.59-.439.092-2.63.866-3.012 1.014-.362.147-2.154 1.309-2.326 1.419-.19.111-.896.885-1.067 1.162-.19.258-.4.793-.458 1.125-.057.331-.114 1.954 0 2.433.153.572.058.94.191 1.125.114.184.305.11.438.295.115.184.248.239.363 0 .114-.24.552-.535.552-.83 0-.295.058-1.18.058-1.18s.247-1.364.915-1.714c.667-.351 5.509-1.66 6.252-1.899.744-.24 5.147-.885 6.195-.885 1.716 0 4.9.239 7.854.94 1.659.406 5.433 2.083 6.405 2.784.972.719 2.364 2.083 2.669 2.913.305.83.667 2.249.552 3.263-.114 1.014 0 1.254.305.535s.744-2.434.744-3.448c0-1.051-.744-3.595-2.154-4.83Zm-7.187-3.245c-.552-.203-2.173-.59-2.42-.645-.248-.056-1.297-.24-1.773-.332a19.225 19.225 0 0 0-2.116-.24c-.706-.037-1.468-.092-1.906-.092-.439 0-1.049-.055-1.22-.055-.191 0 .247-.037.305-.056.171-.073 1.448-.055 1.6-.055.153 0 1.926.184 2.155.184.21 0 2.42.351 2.42.351.496.037 3.07.829 3.337.94.247.129.171.221-.382 0Zm2.345 1.014s-.172-.129-.286-.184c-.114-.074-.286-.129-.42-.203-.133-.074-.323-.203-.323-.203.095.037.667.24.8.332.115.074.42.295.23.258Z"/></g><g clip-path="url(#i)"><path d="M-6.674 297.598c.333.084.583.168.832.251.333.168.667.336.916.503.334.251.667.587.833.922 0-.252.084-.419.167-.671.083-.502.333-.837.666-1.256l.75-.671c.333-.167.666-.335.916-.419l.999-.251h1.25c.25-.168.582-.335.915-.419.5-.168 1-.252 1.416-.419.333-.084.583-.168.916-.168-.166-1.173.333-2.346 1.582-3.184.667-.419 1.333-.754 2.166-.922 1.499-1.508 4.08-1.844 6.08-.754.832-1.257 2.331-2.347 4.08-2.347.666-.083 1.416 0 1.999.252.666.251 1.249.67 1.665 1.173.084 0 .167-.084.25-.084-.25-3.352 2.249-6.536 6.246-6.955 3.165-.335 6.58.503 8.661 2.514v-.168c-.166-.419-.25-.838-.166-1.34 0-2.179 1.665-4.358 3.497-5.615 2.166-1.425 5.08-1.927 7.745-1.425-.5-1.592.167-3.268 1.5-4.357 1.498-1.257 4.33-2.095 6.662-1.844 1.416-2.178 5.163-2.765 7.828-1.759 1.999.754 3.665 2.849 3.831 4.944 1.416-.755 3.414-.587 4.83.502 2.249 1.593 2.748 4.693 1.666 7.04h1.333c1.082-1.844 4.663-2.179 6.495-1.09 2.499 1.425 2.748 4.274 1.666 6.536 1.998.671 3.664 2.179 3.997 4.107.167.754 0 1.592-.416 2.346.666.251 1.249.67 1.665 1.173.167.168.25.335.334.587.166 0 .416-.084.666-.084.833 0 1.582.168 2.165.587.666-.671 1.749-1.09 2.748-.922 1.166.167 2.249.838 2.832 1.76.416.67.75 1.508.583 2.178.083.084.25.084.333.168l.083-.084c.583-.335 1.25-.419 1.832-.251.167.084.417.167.583.251.084.084.25.168.333.335.084 0 .084.084.084.084.083 0 .166.084.25.168-.084-.503 4.746 1.257 4.996.838-.083-.671-2.082-1.509-3.164-.922-.5-1.089-2.915-1.844-4.414-1.257 0-.084 0-.335.083-.419 0-.587-.083-1.089-.416-1.592-.167-.503-.5-.922-.916-1.341-.833-.754-2.082-1.173-3.248-1.173-.916 0-1.75.251-2.499.67-.832-1.508-2.332-2.514-3.997-3.017.5-.586.833-1.257 1.082-2.011 1.083-3.436-1.498-6.62-5.08-7.625-.25-.084-.5-.084-.75-.168.334-.503.417-1.089.5-1.76 0-.503-.083-1.005-.332-1.424-.167-.419-.417-.838-.833-1.174-.75-.67-1.833-1.089-2.832-1.089a4.257 4.257 0 0 0-2.831 1.089c-.167.168-.333.252-.417.419-.416-.754-.833-1.424-1.416-2.011.417-.586.75-1.257.833-2.011.333-2.765-2.165-5.447-5.33-5.279-.75 0-1.415.251-1.998.503-.334-2.095-3.915-3.436-8.328-2.431-4.997-1.759-13.991 2.095-14.325 9.553-.5-.083-4.497-.586-6.079 1.257-2.582-1.927-5.996-.167-6.08 2.514-1.415-.838-3.164-1.34-4.913-1.089-2.998.419-4.83 2.346-5.996 4.777-.167.335-.25.586-.416.921-.5.168-1 .335-1.416.671-2.415-1.257-5.746-1.676-7.745-.754-2.165 1.005-3.581 2.932-4.081 5.027-.333.168-.75.336-1.083.587-1.332-.335-2.831-.419-4.33-.084-2.665.587-4.247 2.43-4.747 4.609-.75-.167-1.582.084-2.249.419a2.75 2.75 0 0 0-1.332 1.425c-.25.335-.333.754-.25 1.173v.251c-.75-.586-1.666-.586-2.332-.167.333.335.5.754.417 1.173Z" fill="#fff"/><path d="M110.001 300.698c-.084-.419-.334-.67-.667-.837-.083-.084-.166-.168-.333-.252-.166-.084-.333-.084-.583-.084-.333.419-.583.838-.749 1.341-.75-.587-2.082-1.005-2.665-1.005-.916-.084-1.666.167-2.499.502-.083.084-.249.084-.333.168h-.083c-.5-.335-1.083-.168-.999.586l-.084-.083a3.54 3.54 0 0 0-1.832-.503c-.583-.084-1.332.167-1.832.586-.167-.335-.333-.67-.666-.921-.5-.503-1.333-.838-2.082-.838-.75 0-1.583.251-2.082.754-.167.167-.333.419-.5.586-.75-1.256-1.999-2.178-3.664-2.094-1.832 0-3.498 1.089-4.33 2.513-.084.084-.084.168-.084.252-.833-1.173-2.249-1.927-3.83-2.179-1.666-.251-3.415.168-4.665 1.173a3.895 3.895 0 0 0-1.415 2.682c-.25-.252-.417-.419-.583-.671.666-1.592.75-3.351-.25-4.944-.25-.419-.5-.754-.833-1.005 1.416.419 3.081.503 4.497.084 3.081-.922 4.664-3.604 3.914-6.537a2.287 2.287 0 0 0-.583-1.089c0-.084.084-.168.084-.252.083-.083.083-.167.166-.251.333-.503.583-1.089.583-1.676.083-1.425-1.083-2.514-2.332-3.268-.832-.503-2.165-.587-2.998-.084l-1 .754a5.044 5.044 0 0 0-2.414-1.173c-1.333-.335-2.499-.084-3.498.503.167-.754.25-1.508.083-2.263-.25-1.34-1.332-2.514-2.665-3.268-2.498-1.341-6.246-1.341-8.078 1.006-.416.586-.666 1.257-.666 1.927a10.734 10.734 0 0 0-3.165 1.006c-.833.335-1.582.838-2.248 1.257-1.583-.587-3.331-.754-4.83.251-1.666 1.173-1.833 3.101-1.333 4.777-1.915.251-3.748 1.508-4.83 2.933-1.583 2.011-1.666 4.692 0 6.704.333.419.666.754 1.082 1.005a8.907 8.907 0 0 0-4.413.335c-1.666.587-3.082 1.592-3.998 2.933-4.164-5.782-15.074-6.871-19.57-.586a5.064 5.064 0 0 0-2.5-.671c-1.165 0-2.33.419-3.164 1.173l-.166.168c-1.583-1.006-3.665-1.341-5.497-.503-.5.252-.916.671-1.166 1.09-.5-.922-1.332-1.76-2.498-2.012-2.082-.586-3.914.587-4.747 2.263-.5-.503-1.166-.922-1.915-1.089-1.166-.336-2.416-.168-3.498.335-.25.167-.583.335-.833.586 0-.083-.083-.167-.083-.251 0-.67-1.083-.922-1.25 0 .084-.67 0-1.089-.582-1.425-.5-.251-1-.419-1.583-.502 0 .083.084.167.084.251a1.95 1.95 0 0 0-.583.587c-.167-.168-.334-.252-.583-.336-.417-.167-1-.167-1.416 0-.083 0-.167.084-.25.084-.416.252-.583.671-.5 1.09.084.502.583.921 1.166 1.005h.833c.083 0 .167 0 .167-.084.25 0 .583-.167.75-.335 0 0 .082 0 .082.084.5.251 1.083.419 1.666.419-.083.335 0 .754.167 1.006l.25.251c.166.168.416.335.666.335.416.252.75.252 1.082.084.25-.168.333-.419.333-.67 0-.084.25-.084.334-.168 0-.084-.084-.251-.25-.251h.25l.5.502c.832.755 1.998 1.174 3.164 1.174 1.249 0 2.332-.503 3.164-1.174.5-.419.833-1.005 1.083-1.592.333 1.006 1.166 1.844 2.665 1.844.833 0 1.416-.252 1.916-.587.999.838 2.331 1.257 3.83 1.006.334.084.667.167 1.083.167.583.587 1.666.838 2.748.755.333-.084 1.083-.336 1.333-.587.083.251.75.419 1 .419.332.084.665 0 .998.084.167.419.5.838.833 1.089.667.587 1.666 1.006 2.582 1.006 1 0 1.915-.419 2.582-1.006l.5-.503c.915 0 1.831 0 2.747-.083 1.916 1.257 3.831 1.508 5.997 1.592.166.251.416.586.666.838.583.503 1.332.922 2.165 1.089a6.675 6.675 0 0 0 2.582 0c.833-.167 1.332-.503 1.915-.922.25-.167.417-.251.583-.419.084-.083.167-.251.333-.335h1.333c1.999 0 3.414-.754 4.164-1.927.083.084.083.251.166.335.583.922 1.583 1.592 2.749 1.927.083 0 .166 0 .166.084.417.084.833.084 1.166.168h.083c.25 0 .5-.084.75-.084.166 0 .5 0 .75-.084.333-.084 1.332-.503 1.165-.419.25-.167.75-.419 1-.67l.25-.252c.166.084.333.084.416.168.416.084.833.084 1.25.168.665 0 1.248-.084 1.831-.336a1.98 1.98 0 0 0 1.083-.586c.5-.335.916-.754 1.25-1.257.082-.252.249-.503.332-.754a5.536 5.536 0 0 1 1.666 0c1.832.167 3.581 1.005 5.413 1.005 2.498.084 5.08-.838 6.33-2.681h.582c.084.167.25.335.334.502.749.922 1.748 1.593 2.914 2.095.833.336 1.666.503 2.582.587 0 .084.083.084.083.168.167.419.417.838.833 1.173.75.67 1.832 1.089 2.915 1.089 1.082 0 2.082-.419 2.915-1.089.583-.503.916-1.173 1.082-1.844 1.416-.167 2.749-.503 3.748-1.257.583.335 1.332.587 2.082.587 1 0 1.915-.419 2.582-1.006.416-.335.749-.838.916-1.341 2.914.168 5.912.084 8.827-.251.833-.084 1.416-.419 1.832-.838l.5.251c.75.252 1.416.084 1.999-.251h.5c.166 0 .249-.084.416-.168 0 .252.166.419.333.587.666.335 1.333.587 2.082.335.5-.503.833-1.173.75-1.76Z" fill="#D9E9F1"/><path d="M108.502 299.441h-.167c-.333 0-.583.168-.833.336-.166.083-.333.251-.499.419-.084-.084-.084-.252-.167-.336v-.167c.083-.587-.5-1.09-1.083-.922-.083 0-.249 0-.333.084-.499-.335-1.166-.252-1.749-.168-.333-.586-1.915-.67-1.832-.167-.083-.084-.166-.084-.25-.168l-.083-.084-.333-.335c-.167-.084-.333-.168-.583-.251-.666-.168-1.332-.084-1.832.251l-.083.084c-.084-.084-.167-.084-.334-.168.084-.754-.166-1.508-.582-2.179-.583-.921-1.583-1.592-2.832-1.759-1-.084-2.082.251-2.748.921a4.378 4.378 0 0 0-2.166-.586c-.25 0-.416 0-.666.084-.083-.168-.25-.419-.333-.587-.416-.587-1-.922-1.665-1.173.333-.754.5-1.592.416-2.346-.333-1.928-1.999-3.436-3.998-4.107 1.166-2.262.833-5.111-1.665-6.536-1.832-1.089-5.413-.754-6.496 1.089-.416 0-.833-.083-1.25 0h-.082c1.082-2.346.583-5.446-1.666-7.039-1.499-1.005-3.415-1.173-4.83-.502-.167-2.012-1.832-4.107-3.831-4.945-2.665-1.089-6.33-.419-7.828 1.76-2.332-.335-5.164.503-6.663 1.844-1.332 1.089-1.998 2.765-1.499 4.357-2.581-.503-5.58 0-7.745 1.425-1.915 1.257-3.498 3.436-3.498 5.614 0 .503.084.922.167 1.341-.083 0 0 0-.083.084-2.082-1.927-5.414-2.765-8.578-2.43-4.08.419-6.496 3.519-6.246 6.955-.167.084-.167 0-.25.084-.416-.503-1-.922-1.666-1.173-.666-.252-1.332-.335-1.998-.252-1.333 0-2.582.671-3.415 1.593-.583-.755-1.582-1.09-2.665-.922-1 .084-2.248.419-2.665 1.341-2.415-.503-5.413 1.508-5.08 3.854-.666 0-1.249.084-1.832.419-.583.335-1.25 1.006-1.332 1.676-.917-.419-2.082-.335-2.999 0-1.499.587-2.248 2.011-2.082 3.436-.25-.251-.5-.587-.75-.754-.332-.168-.582-.419-.915-.503-.25-.084-.583-.168-.833-.251a1.42 1.42 0 0 0-.25-.838c-.083-.168-.583-.336-.75-.336-.166 0-.166 0-.332-.083-1.75 0-2.832 1.005-3.332 2.178-.25-.083-.333-.083-.333-.083-.5-.084-.916.083-1.249.419l-.083.083c-.25.252-.25.838 0 1.09h-.167c-.166-.419-.583-.754-1-.754-.665 0-1.248.335-1.332 1.005 0 .084-.083.335.084.587.583-.168.999-.084 1.499.167.583.336.666.838 1 1.341.166-.586 1.165-.419 1.248-.084 0 .084.084.168.084.252.25-.252.5-.419.832-.587 1-.586 2.332-.67 3.498-.335.75.168 1.416.587 1.916 1.089.832-1.592 2.664-2.765 4.746-2.262a4.078 4.078 0 0 1 2.499 2.011c.25-.419.666-.838 1.166-1.089 1.832-.922 3.997-.587 5.496.502l.167-.167c.833-.754 1.999-1.173 3.165-1.173.916 0 1.748.251 2.498.67 4.497-6.285 15.407-5.196 19.57.587.834-1.341 2.333-2.347 3.998-2.933a8.896 8.896 0 0 1 4.414-.336c-.416-.251-.75-.67-1.083-1.005-1.665-2.011-1.582-4.693 0-6.704 1.083-1.425 2.915-2.598 4.83-2.933-.5-1.676-.333-3.687 1.333-4.777 1.5-1.005 3.248-.838 4.83-.251a9.744 9.744 0 0 1 2.249-1.257c1-.503 2.082-.754 3.164-1.006 0-.67.25-1.34.667-1.927 1.749-2.346 5.58-2.346 8.078-1.006 1.249.671 2.332 1.844 2.665 3.269.166.754.083 1.508-.084 2.262 1-.586 2.166-.838 3.498-.503.916.168 1.75.671 2.415 1.174l1-.755c.833-.502 2.165-.419 2.998.084 1.249.671 2.415 1.844 2.332 3.268 0 .587-.25 1.174-.583 1.676-.084.084-.084.168-.167.252 0 .084-.083.167-.083.251.25.252.5.671.583 1.09.75 2.849-.75 5.53-3.914 6.536-1.416.419-3.082.419-4.497-.084.333.335.582.67.832 1.006 1 1.592.916 3.352.25 4.944.167.251.333.503.583.67.167-1.005.583-1.927 1.416-2.681 1.25-1.09 2.998-1.425 4.664-1.174 1.582.252 2.914.922 3.83 2.179 0-.084.084-.167.084-.251.832-1.425 2.498-2.514 4.33-2.514 1.666 0 2.915.922 3.665 2.095.166-.252.333-.419.5-.587a3.185 3.185 0 0 1 2.081-.754c.75 0 1.583.335 2.082.838.333.251.5.587.666.922.5-.335 1.25-.587 1.833-.587.666.084 1.249.168 1.832.503l.083.084c0-.335.417-.838 1.083-.587.083-.084.25-.167.333-.084 1.166 1.006 2.582 0 2.415-.586 1.083.084 1.582 1.424 2.665 1.005 1.166.419 1.582-1.089.5-1.257Z" fill="#ECF4F8"/><path d="M110.917 300.363c-.166-.251-.499-.419-.833-.419-.166-.251-.416-.419-.666-.419-.166 0-.333 0-.416.084l-.167-.167c-.166-.084-.25-.168-.416-.252-.5-.167-.75.168-1.166.168-.5 0-.333-.084-.583-.503-.083-.084-.167-.251-.25-.335-.749-.754-1.999-.754-2.748-.168-.25.168 0 .419.25.335.166-.083.333-.167.499-.167-.083 0-.166.084-.249.084-.167.083 0 .251.166.251.333-.084.666-.084.999.084.25.167.334.335.5.586.083.168.417.168.417-.083 0-.084 0-.168-.084-.252.084.252.167.503.333.67.167.252.25.252.5.252.083 0 .25 0 .333-.084.333-.168.75-.168 1.166 0 0 0 .083 0 .083.084-.083 0-.166.084-.249.167-.25.252.166.587.416.336.083-.084.333-.168.5-.084 0 .084.083.167.083.167.083.084.166.084.166.168 0 .168-.083.335-.333.587-.25.251.167.586.5.419.25-.168.416-.419.5-.671.166-.167.499-.084.666-.335.166-.168.166-.335.083-.503ZM84.767 282.598c-.083-.335-.166-.754-.333-1.09-.083-.335-.083-.67-.333-.921-.083-.084-.167-.252-.333-.336-.333-.502-.75-1.257-1.416-1.089-.166 0-.166.168-.083.251-.084 0-.084.084-.084.168 0 0 0 .084.084.084-.084.084-.084.251.083.251.083 0 .167.084.167.084.75 1.006 1.415 1.844 1.499 3.101.083 1.424-.417 2.681-1.166 3.854-.167.252.333.419.5.168.832-1.341 1.249-2.933 1.082-4.358.25.084.333 0 .333-.167ZM66.362 268.687c-2.498-1.089-5.496-1.927-8.078-.754-.5.252-.916.503-1.25.754 0 0 0-.083.084-.083.083-.084-.083-.252-.167-.168a4.4 4.4 0 0 0-1 1.173c.167-.335.25-.67.5-.922.25-.335-.25-.67-.5-.335-.166.252-.332.503-.416.754-.083 0-.166 0-.166.084v.084c-.167 0-.25.084-.25.251 0 .336 0 .671.083.922-.083.503 0 1.006.084 1.508 0 .084.083.084.083.168 0 .419 0 .838.083 1.173 0 .168.084.335.084.503 0 .084.083.084.083.084.166.167.416.084.416-.168 0-.419-.083-.922-.083-1.424.25-1.76 1.25-3.268 3.331-3.855 2.332-.67 4.58.168 6.746 1.006.5.167.833-.503.333-.755Z" fill="#fff"/><path d="M106.004 299.693c.083-.922-2.082-1.76-2.332-.67 0 .083.083.167.166.167.084.084.167.084.167 0 .167-.167.583-.167.833-.084.083 0 .166.084.25.168 0 .084 0 .168.083.251l.083.084v.084c0 .084.083.084.083.084 0 .167-.333.084-.249-.084 0-.168-.25-.251-.333-.084-.167.503.416.922.916.587.083-.084.166-.168.249-.335v-.084c0 .084.084.084.167.084h.083c-.083.083 0 .251.084.251.083.084.166.084.249 0 .084.251.417.168.417-.084.083-.419-.583-.754-.916-.335ZM109.918 300.698a.463.463 0 0 0-.25-.419c-.167-.167-.583-.251-.833-.167-.167-.419-.749-.168-.916 0-.083.084 0 .084 0 .167-.083.168-.083.419.167.503h.083c.083.168.333.168.499 0 0 .084.084.168.167.252.083.083.167.083.25.083 0 .252.083.419.416.419.167 0 .333-.083.333-.251.167-.168.25-.419.084-.587ZM84.184 286.285c-.166-.167-.5-.167-.583 0-.166.168-.25.419-.416.587a1.949 1.949 0 0 1-.583.586c-.167.168.083.419.25.336.25-.084.5-.336.75-.503.082-.084.166-.252.249-.335 0-.084.083-.084.083-.168.333 0 .417-.251.25-.503Z" fill="#ECF4F8"/></g><g clip-path="url(#j)"><path d="M358.305 302.111c-1.728-.581-3.564-.184-5.29.198a62.056 62.056 0 0 1-13.812 1.49c-.263.003-.408.177-.444.386-1.109 1.041-1.982 2.523-2.403 3.954-.543 1.85 1.47 2.36 2.885 2.544 1.806.237 3.641-.01 5.412-.365 1.977-.382 3.937-.835 5.885-1.285 2.031-.47 4.056-.964 6.063-1.529.881-.245 1.792-.473 2.649-.812.63-.245 1.248-.638 1.497-1.3.58-1.547-1.168-2.861-2.442-3.281Z" fill="#CD9975"/><path d="M339.173 303.732c-.99.41-1.724 1.494-2.271 2.369-.299.463-.542.949-.767 1.456-.184.421-.498.925-.273 1.369.056.124.197.188.325.194.026.006.44.002.461-.015.497-.925 1.299-2.44 1.545-2.814.497-.775 1.186-1.485 1.598-2.301.086-.159-.47-.32-.618-.258ZM359.588 302.466c-.57-.42-1.388-.979-2.139-.816-.216.042-.707.44-.556.539.812.485 1.784 1.206 2.307 1.588.493.364.818.508 1.424.67.135.041.31-.066.307-.227-.02-.734-.788-1.342-1.343-1.754Z" fill="#815950"/><path d="M328.318 282.939c-.138-.854-.506-2.075-1.185-2.831-.747-1.528-3.113-2.299-4.668-2.536-1.577-.231-3.159-.023-4.495.762a6.59 6.59 0 0 0-.609.327c-1.577.982-2.645 2.638-3.09 4.426a8.798 8.798 0 0 0-.19 1.048c-.905 4.168 2.791 8.748 7.464 8.492 2.89-.147 5.505-2.202 6.406-4.93.509-1.478.629-3.21.367-4.758Z" fill="#F4C882"/><path d="M327.086 279.269c-3.721-2.923-7.029-1.933-7.1-1.915-1.226.219-2.427.795-3.243 1.75-.654.751-1.237 1.885-.585 2.786.171.232.6.337.821.119 2.5-2.314 6.544-3.075 9.299-.799.49.403 1.361-1.692.808-1.941Z" fill="#FDE5C7"/><path d="M325.791 283.934c-.69-1.354-2.637-1.655-4.047-1.465-1.567.217-3.202 1.564-3.603 3.128-.296 1.175.229 2.47 1.363 2.837 3.312 1.436 4.465-2.493 5.403-.301.221.533.659.474.771-.03.256-1.24.363-2.468.335-3.737 0-.2-.089-.353-.222-.432Z" fill="#D39C53"/><path d="M328.663 281.151c-1.194-3.116-4.497-4.918-7.807-4.59-3.505.351-6.448 2.901-7.338 6.277-.896 3.401.387 7.272 3.405 9.194 1.539.979 3.336 1.18 5.121.933 1.629-.219 4.544-1.774 5.988-.471.036.041.095-.024.071-.068-1.721-2.109-5.092-.265-7.35-.351-3.543-.152-6.203-3.253-6.336-6.697a7.374 7.374 0 0 1 5.365-7.385c3.252-.913 6.501.776 8.37 3.424.194.276.623.031.511-.266Z" fill="#815950"/><path d="M322.483 281.859c-1.31-.011-2.569.48-3.471 1.443-.743.799-1.383 2.16-.914 3.231.056.124.234.13.29.003.394-.837.572-1.632 1.208-2.354.816-.905 1.978-1.333 3.184-1.234 2.388.203 4.053 2.189 4.61 4.414.023.094.162.047.165-.041.014-2.856-2.049-5.43-5.072-5.462Z" fill="#815950"/><path d="M361.806 284.058c1.458 2.463 4.447 3.917 7.297 3.455 4.611-.753 7.263-6.021 5.503-9.896a7.313 7.313 0 0 0-.396-.977c-.814-1.648-2.205-3.039-3.957-3.665a11.26 11.26 0 0 0-.664-.196c-1.466-.484-3.056-.362-4.546.211-1.469.555-3.616 1.818-4.031 3.473-.498.875-.602 2.165-.565 3.019.076 1.557.556 3.226 1.359 4.576Z" fill="#F4C882"/><path d="M360.88 275.633c3.017-3.658 6.463-3.393 6.537-3.399 1.244-.049 2.53.268 3.534 1.017.791.603 1.6 1.577 1.165 2.599-.122.268-.515.454-.781.295-2.933-1.731-7.05-1.614-9.26 1.203-.402.501-1.672-1.358-1.195-1.715Z" fill="#FDE5C7"/><path d="M363.131 279.911c.397-1.475 2.218-2.181 3.649-2.288 1.578-.12 3.466.847 4.179 2.294.537 1.092.288 2.456-.741 3.063-2.928 2.109-4.896-1.49-5.338.86-.11.566-.554.601-.76.128a16.122 16.122 0 0 1-1.111-3.588c-.05-.2.009-.365.122-.469Z" fill="#D39C53"/><path d="M359.74 277.807c.508-3.292 3.356-5.769 6.655-6.143 3.502-.414 6.911 1.461 8.492 4.569 1.591 3.142 1.158 7.191-1.388 9.717-1.299 1.289-3.014 1.868-4.814 2.005-1.64.123-4.816-.772-5.953.813-.026.045-.1 0-.073-.044 1.24-2.424 4.916-1.342 7.109-1.916 3.429-.907 5.368-4.507 4.774-7.887a7.338 7.338 0 0 0-6.795-6.069c-3.366-.197-6.196 2.15-7.461 5.131-.13.283-.594.136-.546-.176Z" fill="#815950"/><path d="M365.926 277.173c1.282-.296 2.618-.08 3.696.664.895.615 1.813 1.824 1.57 2.96-.03.133-.207.177-.284.071-.558-.723-.897-1.477-1.68-2.044-.98-.706-2.216-.872-3.371-.52-2.3.7-3.496 3.001-3.563 5.295-.001.1-.145.073-.166-.009-.621-2.785.839-5.74 3.798-6.417Z" fill="#815950"/><path d="M366.663 286.397c-.716-2.411-1.802-4.691-3.106-6.842-1.307-2.163-2.892-4.581-4.954-6.092-.015-.009-.029-.018-.041-.015-.842-.903-1.772-1.709-2.761-2.299a13.468 13.468 0 0 0-3.096-1.728c-2.11-.849-5.13-1.42-7.492-.666.278-.245.562-.516.835-.784.866-.855 2.422-2.07 2.187-3.462-.183-1.081-1.332-1.456-2.225-.908-.686.422-1.174 1.182-1.689 1.786-.473.569-1.015 1.118-1.435 1.748.539-1.111.49-2.712.405-3.804-.105-1.425-1.08-2.007-2.466-1.473-1.455.564-.818 2.206-.423 3.284.375.994.533 1.981.399 3.052a2.829 2.829 0 0 1-.092.436 5.95 5.95 0 0 1-2.424 1.508c-1.192.41-2.427.644-3.566 1.217-2.031 1.021-3.679 2.671-4.96 4.531-2.092 3.037-4.135 6.926-4.514 10.787-.323 1.419-.44 2.912-.479 4.211-.085 2.323-.129 5.161 1.146 7.194.062.097.151.15.257.174a.372.372 0 0 0 .358-.027c.1-.05.195-.124.242-.236.054-.138.104-.289.145-.424.011 1.198 1.115 2.749 1.679 3.496.263.347.783.217.919-.142.791.903 1.654 1.688 2.779 2.32.748.426 1.551.725 2.375.957.458.123.872.17 1.265.184.606.211 1.221.308 1.782.242.293-.035.441-.448.184-.621-.703-.5-1.604-.687-2.39-1.066a12.158 12.158 0 0 1-2.567-1.673 11.76 11.76 0 0 1-3.595-5.331c-.801-2.452-.796-5.093-.451-7.631.155-1.14.371-2.282.739-3.375.109-.315.234-.622.373-.919.696-1.188 1.297-2.401 2.246-3.427a9.49 9.49 0 0 1 3.611-2.442c1.599-.588 3.444-.749 5.06-.115 1.45.576 2.043 1.741 3.109 2.738.181.168.55.038.562-.215l-.006-.174c.062-.053.125-.106.175-.156.355-.339.621-.781.958-1.141a9.08 9.08 0 0 1 1.938-1.598c1.369-.855 2.992-1.349 4.605-1.277 1.487.066 2.967.609 4.169 1.497.771.57 1.273 1.321 1.84 2.03.185.341.404.662.572.982.634 1.13 1.269 2.26 1.823 3.423.475.994.897 2.027 1.236 3.081.371 1.133.521 2.334.881 3.47.122 2.147-.117 4.258-1.144 6.229-1.154 2.215-3.16 4.143-5.475 5.135-.408.177-.163.754.245.627 2.078-.633 4.077-1.433 5.662-2.98.695-.687 1.385-1.548 1.817-2.481.186.291.715.296.851-.063.184-.522.726-1.871.955-3.116.15.2.327.356.549.388.609.123.878-.508 1.023-.982.647-2.238.028-4.911-.605-7.042Z" fill="#CD9975"/><path d="M358.293 280.058c-.035-.041-.088-.053-.133-.029-.032-.029-.056-.074-.088-.103-.694-.815-1.639-1.93-2.705-2.476a6.596 6.596 0 0 0-2.367-1.022c-1.923-.407-3.913.078-5.563 1.116-1.215.767-2.614 2.005-3.029 3.46-.802-2.001-3.118-3.123-5.234-3.194-3.027-.094-5.925 1.731-7.874 3.933-2.107 2.379-2.837 6.089-3.035 9.166-.198 3.027.447 6.206 2.454 8.557a9.152 9.152 0 0 0 2.948 2.29c1.786 1.718 4.815 2.274 7.106 2.439 3.377.243 6.965.122 10.273-.618 3.06-.678 5.972-2.044 8.241-4.226 1.621-1.556 3.37-4.108 3.194-6.516a8.08 8.08 0 0 0 .072-.869c.524-4.234-1.511-8.905-4.26-11.908Z" fill="#F4C882"/><path d="M357.914 293.764a2.745 2.745 0 0 1-5.457.589 2.745 2.745 0 0 1 2.438-3.011c1.508-.152 2.857.924 3.019 2.422Z" fill="#FFA48F"/><path d="M350.095 295.558c-.023-.045-.076-.056-.118-.021-.526.557-.613 1.417-1.045 2.051-.586.872-1.449 1.538-2.475 1.757-1.132.246-2.113-.159-2.925-.945-.234-.229-1.633-1.555-1.527-1.882.006-.027-.011-.047-.035-.042-.813.366.046 1.59.356 2.026.779 1.106 1.931 1.944 3.317 2.01 1.297.063 2.575-.506 3.421-1.494.68-.795 1.565-2.431 1.031-3.46Z" fill="#815950"/><path d="M346.468 303.758c-3.363.216-7.264-.66-9.996-2.691-2.761-2.049-4.017-5.213-4.422-8.54-.27-2.184-.188-4.319.469-6.31.625-.869.88-1.959 1.498-2.852a8.577 8.577 0 0 1 2.385-2.323c.981-.646 2.111-1.103 3.278-1.258.609-.077 1.236-.083 1.835.054.494.115.913.385 1.413.423.05 0 .091-.036.091-.086-.049-.6-.542-.965-1.122-1.17a2.103 2.103 0 0 0-.898-.476c-.895-.314-2-.313-2.839-.253a8.65 8.65 0 0 0-4.5 1.551c-1.399.987-2.562 2.367-3.455 3.816-.323.519-.646 1.087-.886 1.685-.556 1.241-.832 2.698-.958 3.806-.297 2.426-.164 5.07.653 7.38.761 2.187 2.319 3.899 4.281 5.11 1.099.676 2.292 1.178 3.521 1.571.573.182 1.158.361 1.755.487.373.082.692.102 1.02.108 2.195.589 4.515.522 6.915.071.048-.011.036-.108-.038-.103Z" fill="#E5B46C"/><path d="M362.096 287.627a12.072 12.072 0 0 0-.357-1.275c-1.002-3.052-3.118-6.588-6.003-8.331-1.563-1.123-3.43-1.707-5.615-1.398-.023.005-.035.058 0 .05 6.662.31 10.006 7.806 10.149 13.6.142 6.095-4.062 10.987-9.54 12.795-1.061.278-2.574.506-3.491.71-.023.006-.011.053.015.059 1.525.32 3.319-.242 4.786-.659a17.16 17.16 0 0 0 1.558-.502c1.034-.334 2.013-.841 2.962-1.366 1.724-.945 3.188-2.024 4.238-3.7 1.687-2.699 2.454-6.819 1.298-9.983Z" fill="#FDE5C7"/><path d="M349.412 289.661a1.883 1.883 0 0 0-1.043-.653c-.924-.181-1.741.323-2.539.698-.887.422-1.525.231-2.408-.036-.408-.123-.813-.234-1.242-.19-1.04.11-2.333 1.873-.951 2.928.109.085.471-.58.444-.736-.012-.098 2.742.565 4.235.354.547-.074 1.055-.301 1.52-.605.032-.021.065-.042.094-.074.479-.095.952-.163 1.428-.27.05.101.091.215.133.33.12.333.38.468.567.209.464-.705.303-1.552-.238-1.955Z" fill="#E5B46C"/><path d="M348.932 291.057c-.511-.435-1.359-.461-1.912-.11a2.916 2.916 0 0 0-.55.563c-.263.104-.532.233-.813.266-.254.039-.52-.02-.777-.093-.151-.15-.367-.209-.712-.435-.523-.332-1.232-.555-1.806-.237-.653.351-.811 1.229-.61 1.88.123.394.422.732.764.947.148.088.438.141.509-.077.083-.321-.46-1.236.377-1.608.215-.092.472.031.706.161.109.085.224.144.351.2.015.008.027.005.042.014.381.168.812.235 1.247.214.508-.027 1.22-.343 1.46-.841l.133-.071c.125-.056.639.041.68.306.032.279.023.294-.077.544-.16.366-.178.595-.072.969.02.083.115.109.186.091.26-.065.426-.106.609-.327.201-.251.358-.528.474-.819.168-.48.237-1.161-.209-1.537Z" fill="#FDE5C7"/><path d="M343.657 290.813c-.653-.2-1.448-.214-1.968.317-.902.914-.39 2.812.975 2.846.039.003.06-.065.03-.083-.647-.526-1.233-2.018-.225-2.508.458-.227 1.04-.06 1.486.116.083.03.594.265.653.1.119-.43-.691-.703-.951-.788ZM348.939 290.48c-.496-.276-1.069-.258-1.566.016-.399.213-1.003.614-1.068 1.106-.009.115.094.226.207.173.603-.251 1.029-.858 1.765-.779 1.004.099.607 1.574.305 2.125-.018.03.03.068.062.047.494-.336.861-.628 1.009-1.24.128-.545-.247-1.19-.714-1.448Z" fill="#815950"/><path d="M344.662 293.526c-.097-.538-.596-1.127-.717-1.259-.189-.203-.552-.2-.765-.046-.302.2-.347.574-.173.868.175.295.405.462.703.6.145.077.278.156.429.206.053.012.109.035.15.05.113.047.55.138.373-.419ZM348.119 292.074a.592.592 0 0 0-.818-.158c-.269.18-.391.548-.498.825-.1.25-.234.571-.166.842.038.153.204.212.346.226.281.018.671-.28.863-.466.326-.306.554-.851.273-1.269Z" fill="#815950"/><path d="M344.232 265.134c-.328.595-1.847 3.115-2.042 3.138-.195.024-.218-.37-.2-.8.048-.763-.075-1.508-.285-2.244-.347-1.189-1.348-2.727.225-3.571.024-.006.015-.042-.012-.047-1.477.069-2.311.553-1.928 1.933.321 1.133.913 2.899.8 4.104-.086.81-.533 1.434-.806 2.153-2.01.052-4.245 1.362-5.827 2.421-1.896 1.262-3.549 2.889-4.887 4.725-2.068 2.832-3.419 6.072-3.9 9.47-1.192 3.927-1.077 8.101.258 12.034.147.438.916.496 1.061.022l.187-.61c.106.274.235.542.345.777.38.818.796 1.928 1.59 2.442.346.227.79-.009.766-.404.673.983 1.967 1.885 2.685 2.344.806.511 2.085 1.104 3.291 1.303.538.191 1.049.226 1.466-.016.106-.027.21-.065.313-.104.092-.035.113-.153.033-.22-.355-.312-.818-.459-1.288-.579-.201-.1-.414-.197-.618-.308-.892-.503-1.695-1.103-2.466-1.773-.806-.712-1.541-1.491-2.268-2.285-.327-.356-.64-.753-.992-1.103a14.003 14.003 0 0 1-1.214-3.85c-.276-1.658-.31-3.35-.176-5.023.093-1.087.339-2.212.426-3.322.121-.368.228-.745.32-1.131.32-1.281.735-2.536 1.274-3.746a18.168 18.168 0 0 1 4.084-5.676c1.68-1.571 3.62-2.757 5.737-3.636.694-.287 2.004-.777 2.646-1.526.033-.02.077-.044.109-.064.618-.393 1.222-.994 1.435-1.648 1.798-4.265 2.756-4.505 3.382-4.662-.935-1.029-2.582-.229-3.524 1.482Z" fill="#9F6944"/><path d="M336.393 274.477c-.393.085-.725.368-1.006.651-.251.251-.535.622-.429.996.021.082.121.132.192.115.316-.042.529-.345.736-.572.237-.26.53-.496.719-.793.098-.162.027-.445-.212-.397ZM334.263 276.31c-.248.113-.473.169-.692.349a3.16 3.16 0 0 0-.553.601c-.195.274-.713.966-.344 1.287.369.321.665-.354.79-.61.13-.233.272-.469.432-.684.177-.245.293-.536.473-.769.066-.091-.014-.209-.106-.174ZM336.612 275.81c-.337.16-.63.296-.872.581-.193.236-.48.696-.22.981.275.294.583-.233.68-.445.148-.312.311-.666.554-.902.112-.103-.021-.282-.142-.215ZM363.661 282.932c-.163-.197-.447.024-.32.23.838 1.392 1.381 3.057 1.784 4.62.027.106.195.077.207-.026.126-1.858-.493-3.38-1.671-4.824ZM363.726 286.005c-.1-.2-.387-.09-.331.133.386 1.443.187 2.956.315 4.425.018.121.198.189.269.071.921-1.494.509-3.142-.253-4.629ZM365.369 288.76c-.082-.23-.422-.132-.402.1.059.636.035 1.293.005 1.926-.016.492-.081.983.09 1.466.053.162.301.2.405.061.707-.99.253-2.503-.098-3.553Z" fill="#9F6944"/><path d="M347.667 263.85c-.384-.129-.733.033-.635.422.026.106-.313 2.167-1.833 3.823 2.906-.989 3.96-3.755 2.468-4.245Z" fill="#CD9975"/><path d="M367.07 286.87a29.12 29.12 0 0 0-3.719-8.54 27.81 27.81 0 0 0-6.286-6.897c-4.347-3.767-10.566-3.112-10.888-3.094 1.881-1.221 3.369-2.857 2.315-4.708-.755-1.312-2.239-1.166-3.241-.253-.645.587-1.128 1.271-1.533 2.01.49-2.212.181-4.699-2.219-4.349-1.152.163-2.477.745-2.174 2.108.23 1.018.755 1.913.988 2.943-.407-1.225-.811-2.237-2.331-1.882-.676.157-.603 1.202.112 1.098 1.238-.172 1.899 1.564 1.978 2.583.032.38-.001.801-.069 1.231-.311.265-.757.389-1.174.481l-.012.003c-3.257.64-5.51 1.679-8.17 4.608-2.097 2.314-3.598 5.154-4.688 8.079a28.756 28.756 0 0 0-1.835 9.141c-.091 2.55-.171 6.098 2.094 7.821.278.206.6.037.689-.26 0 0-.003-.012.009-.015.353 1.313 1.15 2.49 2.477 3.021a.274.274 0 0 0 .331-.083c.963 1.036 2.649 1.802 3.583 2.119 2.251.763 5.097 1.34 7.474.796 1.95.213 4.326.219 7.184-.158 1.981-.271 8.534-1.096 12.792-3.513.839-.51 2.336-1.61 3.049-2.827a.292.292 0 0 0 .34.003c1.183-.796 1.719-2.119 1.782-3.473l.003.011c.145.277.508.374.73.106 1.852-2.19 1.028-5.637.409-8.11Zm-19.517 16.655c-8.868 1.067-13.177-2.047-14.999-3.405-1.914-1.423-3.047-3.441-3.482-5.734-.771-4.136-.069-9.216 2.718-12.54 1.538-1.836 3.795-3.164 6.203-3.379 1.218-.104 2.471.083 3.561.624 1.093.552 1.816 1.434 2.572 2.346.018.071.074.144.142.165.106.124.266.259.299-.112.305-1.09 1.695-2.664 3.141-3.513 1.742-1.024 4.006-1.615 5.962-.929 3.43 1.207 5.6 4.605 7.036 7.786 1.513 3.337 1.991 7.559.584 10.976-1.599 3.453-4.873 6.636-13.737 7.715Zm18.695-9.543c-.136-.141-.286-.291-.413-.447-.174-.194-.538-.091-.503.201.176 1.407-.354 2.553-1.147 3.602a1.707 1.707 0 0 0-.105-1.025c-.009-.035-.044-.026-.065-.008-.66.627-.924 1.632-1.551 2.339-.808.89-1.792 1.524-2.857 2.091-1.242.661-2.548 1.313-3.885 1.847 2.599-1.163 4.536-2.711 5.634-4.549 1.744-2.926 2.453-5.818 1.85-9.133-.588-3.255-2.211-6.578-4.414-9.054-2.007-2.25-4.686-4.521-7.86-4.052-2.436.359-5.783 1.997-6.622 4.571-.625-1.395-2.317-2.335-3.742-2.704-2.136-.554-4.433-.093-6.346.949-4.361 2.404-6.183 7.326-6.267 12.064-.041 2.45.128 5.185 1.27 7.389 1.154 2.201 3.315 3.962 5.496 5.043a15.82 15.82 0 0 0 2.508.987 54.2 54.2 0 0 1-2.896-.727c-1.149-.326-2.254-.725-3.235-1.43-.765-.547-1.237-1.48-2.008-1.95-.029-.018-.053-.012-.056.026-.074.357-.027.695.106 1.025-.996-.865-1.76-1.862-1.886-3.269-.023-.295-.405-.312-.523-.082a6.9 6.9 0 0 1-.311.515c-1.685-2.118-1.523-5.386-1.323-7.951a27.777 27.777 0 0 1 1.902-8.119 27.611 27.611 0 0 1 4.102-7.057c3.13-3.51 6.051-4.29 7.632-4.598.385-.071 1.301-.376 1.343-.411 1.919-1.268 1.017-4.471.348-6.192-.201-.501-.304-.613-.123-1.196.19-.598.358-.627.934-.734.671-.13 1.242-.21 1.602.625.153.362.164.86.185 1.243.078 1.569-.461 2.88-.832 4.361-.032.121.127.156.198.088.651-.212 2.202-2.952 2.637-3.474.26-.315.535-.722.893-.899.615-.304 1.599-.387 1.873.407.522 1.484-1.252 2.628-2.213 3.406-1.118.905-2.168 1.931-3.466 2.569-.024.006-.012.053.011.047a22.983 22.983 0 0 0 2.537-1.11c1.939-.285 6.186.267 7.737.792 1.468.496 3.193 1.416 4.389 2.38a27.412 27.412 0 0 1 5.489 6.021 27.969 27.969 0 0 1 3.567 7.528c.754 2.463 1.608 5.627.406 8.055Z" fill="#815950"/><path d="M326.666 287.581c-.012-.047-.059-.085-.1-.05-.349.313-.453.801-.569 1.243-.139.548-.293 1.187-.167 1.743.038.153.242.215.325.044.225-.456.252-1.001.341-1.499.095-.474.279-.995.17-1.481ZM327.194 288.637c-.415 1.505-.452 2.916.091 4.381.035.092.198.089.207-.026.063-1.455-.021-2.897-.073-4.361-.006-.123-.189-.103-.225.006ZM326.408 291.974c.018-.179-.245-.226-.274-.044-.14.748-.268 1.493-.215 2.256.061.748.297 1.239.66 1.887.047.088.18.017.172-.068-.083-.63-.1-1.252-.197-1.89-.114-.71-.191-1.416-.146-2.141Z" fill="#805335"/><path d="M338.903 295.767a2.745 2.745 0 0 1-5.456.589 2.743 2.743 0 0 1 2.438-3.011c1.507-.152 2.857.924 3.018 2.422Z" fill="#FFA48F"/><path d="M339.546 290.152c-.168-.471-.38-.918-.702-1.301-.694-.815-1.589-1.229-2.606-1.125-1.076.119-2.102.839-2.537 1.861-.231.533-.806 2.404.119 2.535.103.012.224-.106.213-.203-.006-.074.086-.26.1-.301.412-.916.623-1.932 1.649-2.401.496-.225.73-.295 1.554-.064.837.229 1.467 2.148 2.017 2.336a.223.223 0 0 0 .236-.059c.314-.354.096-.875-.043-1.278ZM356.321 286.794c-.741-.753-1.746-1.052-2.786-.892a4.059 4.059 0 0 0-2.442 1.387c-.506.589-1.125 1.632-.656 2.403.065.109.216.109.29.003.175-.257.29-.548.409-.828.287-.41.597-.825.973-1.132.553-.451 1.271-.543 1.969-.467.582.067 1.164.284 1.61.66.543.465.667 1.01.914 1.648a.337.337 0 0 0 .331.218.25.25 0 0 0 .367-.142c.234-1.022-.255-2.125-.979-2.858Z" fill="#D89E50"/><path d="M339.262 290.173c-.218-.371-.469-.721-.791-1.003a2.585 2.585 0 0 0-2.414-.56c-.801.213-1.496.8-1.896 1.512a3.976 3.976 0 0 0-.424 1.17c-.065.341-.175.807.127 1.057.174.144.481.067.479-.195-.003-.012-.006-.024.003-.038-.033-.23.172-.619.257-.828.128-.295.282-.583.471-.831.349-.463.834-.784 1.402-.876.603-.101 1.093.152 1.483.605.354.412.717 1.309 1.355 1.3.089.003.189-.047.222-.118.198-.413-.058-.836-.274-1.195ZM356.666 288.872c-.151-.4-.328-.806-.602-1.15-.567-.709-1.441-1.091-2.396-1.04a3.5 3.5 0 0 0-2.327 1.095c-.287.31-.547.675-.716 1.055-.145.324-.364.754-.11 1.066.144.177.493.164.555-.089.009-.015.006-.026.003-.038.018-.23.323-.569.465-.754.198-.263.426-.507.686-.723.47-.38 1.044-.598 1.668-.567.662.035 1.111.373 1.417.897.284.479.457 1.424 1.116 1.547.092.015.201 0 .257-.077.299-.362.131-.833-.016-1.222Z" fill="#815950"/><path d="M340.958 308.252c-1.459-1.111-3.877-.932-5.418-.159-1.842.924-3.154 3.967-2.966 5.921.088.854 1.565 4.1 2.554 2.126.193-.386.884-3.749 1.416-3.431.984.567 1.083 2.068 2.034 2.706.316.209 1.259-.24 1.239-.673a11.576 11.576 0 0 0-.361-2.499c-.201-.8-.749-1.939.382-1.084.853.65 1.807 2 3.072 1.784 2.817-.492-.014-4.025-1.952-4.691Z" fill="#F4C882"/><path d="M335.972 311.876c-.827-.444-1.227.92-1.393 1.462-.231.733-.28 1.946-1.019 2.356-.331-.017-.455.34-.337.56.026.106.076.206.177.256 1.081.605 1.797-.6 2.002-1.489.208-.878.085-2.023.638-2.774.077-.095.062-.304-.068-.371ZM339.833 313.25c-.088-.904-.335-1.943-.73-2.77-.059-.135-.213-.147-.319-.07-.527.356-.324 1.319-.271 1.831.056.524.404 1.563.001 2.014-.195.224-.024.557.215.659 1.037.429 1.175-1.031 1.104-1.664ZM342.819 309.513c-.018-.021-.039-.053-.056-.074-1.305-1.5-3.616-2.448-5.588-1.842-.059.014-.097.111-.038.147 1.282.755 2.881.718 4.015 1.785.348.339 1.704 1.689 1.156 2.063-.183.121-.26.416-.222.619l.009.035c.038.203.198.438.41.485 2.878.657 1.676-3.546.314-3.218Z" fill="#E5B46C"/><path d="M344.788 310.959c-.982-1.968-4.668-4.85-7.122-3.861-2.719.28-4.866 2.294-5.353 5.068-.265 1.555-.127 5.924 2.43 5.047 1.02-.343 1.119-2.207 1.262-3.043.232-1.384.429-.896.887-.022.304.562.956 1.212 1.506 1.55.877.544 1.82-.055 2.081-.921.299-1.013-.122-2.196-.5-3.253 1.238.829 2.26 2 3.924 1.671.963-.166 1.284-1.447.885-2.236Zm-2.265 1.292a5.965 5.965 0 0 1-1.264-.834c-.608-.474-1.175-.882-1.881-1.194-.296-.126-.648.175-.571.481.244.977.58 1.919.763 2.899.244.677-.7 2.077-1.662.491-.239-.403-.743-1.265-1.027-1.645-.885-1.23-1.415.267-1.662 1.192-.083.321-.662 3.831-1.574 2.395-.543-.865-.533-2.281-.479-3.271.073-1.619.697-2.939 1.963-3.956.68-.545 2.324-1.407 4.697-.862.999.276 1.979 1.031 2.777 1.657.348.289.67.621.947.977.688.991.285 2.043-1.027 1.67Z" fill="#815950"/><path d="M367.931 305.884c-.919-3.123-4.287-5.033-7.353-3.328a.473.473 0 0 0-.151.151c-1.827.882-2.544 2.838-2.478 5.311.017.772.474 2.196 1.573 1.671.775-.369 1.258-1.403 1.619-2.369.46 1.386 1.197 3.178 2.457 2.888 1.519-.355 1.376-2.233 1.15-3.69.593.715 1.047 1.577 2.129 1.632 1.309.06 1.305-1.415 1.054-2.266Z" fill="#F4C882"/><path d="M365.46 303.137c-1.802-1.376-4.965-1.111-6.532.458-.113.103-.027.294.129.267 1.883-.308 3.583-1.046 5.433-.032 1.237.679 2.238 2.117 2.059 3.513-.08.633.898.826 1.114.234.631-1.746-.898-3.441-2.203-4.44Z" fill="#E5B46C"/><path d="M364.246 305.517a.272.272 0 0 0-.373.068c-.707.99.432 2.932-.833 3.649-.474.269-.35.913.197.989 1.188.179 1.638-1.035 1.721-1.957.066-.792.005-2.24-.712-2.749ZM360.929 306.022c-.059-.136-.227-.206-.372-.182-.665.103-.92 1.243-1.095 1.75-.124.356-.246.724-.453 1.051-.145.224-.42.28-.609.478-.145.174-.086.409.032.58.257.374.83.305 1.167.096.411-.266.63-.696.814-1.117.198-.462.317-.993.418-1.493.071-.368.237-.81.098-1.163Z" fill="#E5B46C"/><path d="M368.507 305.978c-.294-1.428-1.652-3.19-3.041-3.769-1.096-.464-3.212-.735-4.563-.159l-.351.05c-.908.19-1.695 1.012-2.213 1.704-.973 1.282-1.075 3.084-.982 4.612.064 1.06.474 2.246 1.751 2.127 1.141-.11 1.576-1.433 1.917-2.631.297 1.339.961 2.687 2.294 2.841 1.8.213 1.881-2.072 1.712-3.706.602.901 1.083 1.819 2.56 1.549 1.118-.204 1.081-1.809.916-2.618Zm-2.944.536a3.062 3.062 0 0 0-.909-1.024c-.337-.241-.692.148-.571.481.194.527.262 1.048.25 1.601-.007.427-.358 3.242-1.66 1.904-.756-.762-1.03-2.257-1.061-3.287-.012-.348-.526-.645-.742-.253-.488.86-.725 1.821-1.116 2.719-.439 1.01-1.234.896-1.404-.087-.082-.48-.07-.983-.055-1.475.049-1.413.585-2.786 1.679-3.735.672-.581 1.499-.638 2.315-.742.86-.027 1.749.063 2.216.172 1.309.31 2.177 1.519 2.77 2.585.213.347.345.726.395 1.127.365 1.76-1.602.876-2.107.014Z" fill="#815950"/></g><defs><clipPath id="a"><path fill="#fff" transform="rotate(-25.759 356.495 3.303)" d="M0 0h13.254v4.308H0z"/></clipPath><clipPath id="b"><path fill="#fff" transform="rotate(-63.781 130.134 58.6)" d="M0 0h13.254v4.308H0z"/></clipPath><clipPath id="c"><path fill="#fff" transform="rotate(-98.002 68.397 72.852)" d="M0 0h13.254v4.308H0z"/></clipPath><clipPath id="d"><path fill="#fff" transform="rotate(109.589 -61.538 94.685)" d="M0 0h13.254v4.308H0z"/></clipPath><clipPath id="e"><path fill="#fff" transform="rotate(76.475 -104.987 103.873)" d="M0 0h13.254v4.308H0z"/></clipPath><clipPath id="f"><path fill="#fff" transform="rotate(59.178 -140.352 117.472)" d="M0 0h13.254v4.308H0z"/></clipPath><clipPath id="g"><path fill="#fff" transform="rotate(28.753 -306.679 158.394)" d="M0 0h13.254v4.308H0z"/></clipPath><clipPath id="h"><path fill="#fff" transform="translate(-5 153.819)" d="M0 0h37v25H0z"/></clipPath><clipPath id="i"><path fill="#fff" transform="translate(-19 265)" d="M0 0h130v45H0z"/></clipPath><clipPath id="j"><path fill="#fff" transform="rotate(-14.043 1247.123 -1119.856)" d="M0 0h62.406v53.669H0z"/></clipPath></defs></svg>