<svg width="599" height="341" fill="none" xmlns="http://www.w3.org/2000/svg"><path opacity=".75" d="M362.189 6.62c3.741 1.36 7.795 4.08 6.236 4.42-1.559.68 0 3.4.935 6.12s-2.183 1.02-2.183 3.4.936 4.08-.623 5.1c-1.559 1.02-.624 2.38-.624 4.42 0 2.38-3.118.34-4.677 3.4-.935 1.36 0 2.72 1.248 4.76.935 2.04.311 3.74-2.495 3.4-2.806-.34-6.235 1.02-10.912 1.02-4.677 0-37.103-1.36-45.521-.68s-23.696 3.74-27.437 4.42c-4.054 1.02-45.209 11.22-70.776 20.74-25.566 9.52-65.787 29.921-82.312 41.821-16.524 11.9-53.003 41.821-67.969 59.501-14.966 18.021-28.06 31.621-34.92 49.301-6.86 18.02-15.278 48.281-14.342 58.481 0 0-2.183-1.7-3.742-10.88-1.559-9.18-2.806-38.081 0-55.421 2.495-15.98 15.901-50.661 37.726-74.121 21.825-23.461 42.092-45.901 71.088-64.941 28.996-19.04 45.521-30.26 79.505-42.841 33.985-12.92 38.974-13.6 41.468-14.96 2.494-1.36 3.741-1.7 6.236-1.7 2.494 0 4.053-1.7 6.235-2.38 2.183-.34 28.685-7.82 56.746-8.84 28.372-1.02 51.756 3.06 61.11 6.46Z" fill="#fff" fill-opacity=".37"/><path opacity=".75" d="M517.771 140.242s-24.631 22.1-39.597 32.64c-14.654 10.54-62.669 48.961-115.984 60.521-53.316 11.561-95.407 17.001-163.377 12.921-67.969-4.081-98.836-22.441-109.749-36.041-10.912-13.6-21.825-44.881-23.072-59.501 0 0-3.741 36.721-4.053 47.941-.312 11.56.312 44.881 26.19 65.621 25.567 20.74 74.205 30.6 115.049 32.98 40.844 2.381 105.384-1.36 138.434-11.56 33.049-10.2 85.741-31.28 98.836-38.76 13.095-7.821 18.707-12.241 17.148-11.901-1.559.34-12.783 7.821-15.277 9.181-2.495 1.36-19.643 10.2-25.879 12.92-5.3 2.38-11.536 3.74-12.783 4.08 1.871-.34 14.031-5.44 18.396-7.48 4.365-2.38 10.6-6.12 11.847-6.8 1.248-.68 1.559-2.04 3.118-2.38 1.559-.34 2.183-.34 3.118-1.02.936-1.021 4.365-1.701 5.924-2.721 1.559-1.02 2.183-2.04 2.806-2.72.624-.68 2.183-1.36 2.806-2.38.936-1.02 1.247-1.36 2.806-1.7 1.559 0 3.43-.68 4.054-1.7.623-1.02 1.87-1.7 2.494-1.7.623 0 3.118 0 4.053-1.02.624-.68 15.901-11.22 20.89-15.64 5.3-4.42 8.418-7.82 9.353-8.84.936-1.02 1.248-2.38 1.871-2.38.936-.34 1.559-1.02 1.559-1.36 0-.68.624-1.7 1.559-2.04.935-.34 2.494-2.38 5.3-7.14 3.118-4.76 3.742-5.44 6.86-17.001 3.118-11.22 7.171-29.92 5.3-35.02Zm-56.745 56.441c-1.247 1.02-2.494 1.7-3.742 2.72-8.73 6.12-30.555 20.74-46.768 27.54-21.201 8.84-52.068 20.401-61.733 22.781-9.666 2.38-10.913 2.38-12.784 1.7-1.87-.68-1.247 0-5.612.34s-9.042 2.38-10.912 2.72c-1.871.34-20.89 3.06-41.78 4.08-21.201 1.02-54.251-1.02-54.251-1.02s53.004.68 76.7-2.72c24.008-3.4 32.738-5.44 36.791-6.46 4.053-1.02 32.426-5.78 60.798-19.041 25.878-11.9 46.145-21.08 59.24-29.92 2.806-2.04 4.365-3.06 4.053-2.72Z" fill="#fff" fill-opacity=".37"/><path opacity=".75" d="M597.9 130.042c-1.248-6.12-2.183-15.641-6.236-23.801-4.053-8.16-19.954-28.22-31.179-36.04-11.224-7.82-37.102-20.74-58.304-28.9-21.513-7.821-34.92-9.521-42.091-10.881-7.171-1.36-15.901-3.06-20.266-4.08-4.365-.68-29.932-3.06-38.974-4.08-8.73-1.02-23.072-2.38-30.555-2.04-7.171.34-33.984-.34-38.349-.68-4.365-.34-15.901-1.02-22.137-.68-6.236.34-17.772 2.04-24.008 2.72-6.236.68-39.285 3.74-48.327 6.8-8.73 3.06-12.783 3.4-17.772 3.74-4.676.34-9.353 3.4-10.6 3.4-1.247 0-24.32 6.12-31.179 8.16-6.859 2.04-30.243 13.6-43.962 21.76-13.719 7.82-27.437 18.02-35.855 25.841-8.419 7.82-14.654 12.92-22.76 29.581-7.796 16.32-9.978 28.22-11.225 41.82-1.247 13.601-3.43 28.561-2.806 41.141.623 12.58 2.806 22.1 4.053 24.48 0 0 6.86-59.841 49.262-94.861 42.092-35.02 114.114-56.441 207.962-64.601 93.848-8.16 190.813 22.1 211.703 35.36 0 0 1.871-.68-4.988-4.42-7.172-3.74-16.525-7.14-16.525-7.14s6.859.34 21.513 8.16c14.654 7.82 23.384 15.3 29.932 21.421 6.235 5.78 13.407 14.28 16.213 24.14 2.806 9.52 4.988 23.8 4.988 34.681 0 10.88-1.871 18.02-.935 16.32.935-1.7 7.795-18.36 10.912-34.681 2.806-16.32 3.742-26.52 2.495-32.64ZM493.763 51.5c-10.289-4.42-18.396-5.44-21.825-6.12-3.43-.68-4.989-1.36-8.418-1.7-3.43-.34.623-1.36-3.118-2.04-3.742-.68-8.73-.68-14.654-1.36-5.924-.68-10.913-3.06-18.084-3.06-6.859 0-19.331-2.72-27.749-3.06-8.418-.34-17.148-.68-24.007-1.02-6.86-.34-12.16-1.7-18.708-1.7-6.235 0-14.654-.68-8.418-1.7 3.118-.68 14.966-1.02 20.89-1.02 5.612 0 18.395 1.02 23.072 1.36 4.677.34 60.798 6.12 69.528 8.84 8.73 2.72 38.662 11.22 50.822 15.98 11.848 4.76 19.954 10.54 19.954 10.54s-28.996-9.52-39.285-13.94Z" fill="#fff" fill-opacity=".37"/><path opacity=".75" d="M596.965 126.642c-.624-2.04-16.837 35.02-25.255 45.901-8.418 10.88-43.027 39.44-61.734 49.98-18.707 10.541-76.7 34.001-82 36.041-4.988 2.04-8.418 1.02-11.848 2.38-3.429 1.36.312-2.04-4.053-.68-4.365 1.36-38.038 10.88-44.897 12.58-6.86 1.7-32.114 7.481-41.468 9.181-9.354 1.7-78.57 10.88-104.448 11.22-26.191.34-72.023-1.7-89.483-3.74-17.46-2.04-40.532-6.8-57.68-10.541-17.149-3.74-31.18-13.94-39.91-20.4-8.73-6.12-13.095-14.62-16.836-22.78-3.43-7.82-10.289-30.601-10.289-43.861 0 0-5.924 11.56-6.86 31.621-.935 20.06.936 55.761 14.031 70.381 13.095 14.62 42.091 33.66 82.935 39.44 40.533 5.781 86.054 7.141 93.536 7.141 7.483 0 30.556-.34 35.232-.34 4.677 0 7.795-.34 11.536-.68 3.742-.34 3.43-2.381 1.559-2.381-1.87 0-1.247.341-4.053.681s-4.053 1.02-5.612.34c-1.559-.68-2.494-.68-4.365-.34s-2.806 0-5.3 0c-2.495 0-1.871 0-4.677.34-2.806.34-3.742-1.7-3.742-1.7s2.183-.681 4.677-.681c2.494 0 14.966 0 17.46-.34 2.183-.34 5.301-.34 7.483 0 2.183.34 4.677 0 6.548 0 1.87 0 1.559-2.38 3.429-2.38 1.871 0 .936.68 3.43.68s5.612-1.02 7.795-1.02c2.182 0 5.3-3.4 8.418-3.4 3.118 0 4.988-1.02 5.612.68.624 1.7 1.559 1.36 1.559.34s0-3.4 2.182-3.74c2.183-.34 4.677-.34 7.483-1.02 2.806-.68 9.354-2.04 11.536-2.04 2.183 0 4.054 1.02 4.054 1.02s-7.483.68-10.601 1.36c-3.118.68-7.795 2.04-5.3 2.04h7.482c1.871 0 2.495.68 4.989 0 2.494-.68 3.43-1.7 6.548-2.04 3.117-.34 3.741-1.36 6.859-1.36h5.612c1.247 0 4.677-.34 6.859-.68 2.183-.34 2.495-2.04 4.677-2.38 2.183-.34 8.73-1.02 10.913-1.36 2.182-.34 5.612-1.36 7.794-2.04 2.183-.68 5.924-1.7 8.419-2.04 2.494-.34 1.558.68 4.988.68 3.43 0 4.365 1.36 9.666-1.02 5.3-2.38 4.365-2.72 7.171-4.08 2.806-1.36 8.418-2.72 12.159-3.4 3.742-.68 5.301-1.7 7.171-1.7 1.871 0 3.118 0 2.807-1.36-.312-1.36 1.558-2.72 2.494-1.36.935 1.36 3.118 1.02 3.118 1.02 3.429-1.36 7.171-3.4 9.041-3.4 1.871 0 3.118-.68 6.86-2.04 3.741-1.36 3.741-1.36 5.924-1.7 2.182-.34 1.87-4.08 4.677-4.76 2.806-.68 8.106-1.7 11.224-3.06 3.118-1.36 5.3-1.02 8.418-2.38 3.118-1.36 2.806.34-5.3 2.72-8.107 2.38-8.419 3.74-5.612 3.4 2.806-.34 6.547-2.72 10.912-3.74 4.365-1.02 5.612-1.7 6.859-2.72 1.248-1.02 0-2.38 2.806-3.4 2.807-1.02 7.795-3.4 10.601-4.421 2.806-1.02 7.795-1.7 10.289-3.06 2.494-1.36 5.924-2.04 8.107-3.4 2.182-1.36 5.3-3.06 4.053-3.06-1.247 0-5.301 2.04-8.73 3.4-3.43 1.36-5.924 1.02-5.924 1.02s3.741-2.04 7.171-3.06 4.365-2.38 7.171-3.4 4.677-2.72 3.741-2.72c-.935 0-5.612.68-3.117-.68 2.494-1.36 5.612-2.38 9.353-4.08 3.742-1.7 8.107-6.12 8.107-6.12s.623 1.7-1.559 3.74c-2.183 2.04-3.742 3.4-.624 2.38s1.559 0 4.989-2.04c3.429-2.04 8.73-4.76 13.407-7.48 4.676-2.72 5.612-2.72 7.482-4.42 1.871-1.7 2.495-1.02 1.871-1.7-.623-.68-1.871-1.36-1.871-1.36 3.43-1.7 4.365-3.74 6.86-4.76 2.494-1.02 6.235-6.46 8.73-8.16 2.494-1.7 6.859-4.08 8.418-5.78 1.559-1.7 3.118-3.061 5.612-5.441s6.86-8.84 8.418-10.88c1.559-2.04 3.43-5.1 4.365-7.48.936-2.38 4.989-8.84 8.107-18.7 6.236-10.2 14.03-43.861 9.354-55.421ZM489.398 245.984c-13.718 6.8-32.738 15.64-37.102 17.34-4.054 1.7-20.578 5.44-28.061 8.84-7.483 3.06-28.685 7.821-36.168 10.201-7.482 2.38-52.38 12.92-66.722 14.62-14.342 1.7-54.874 6.8-62.669 6.8-7.483 0-13.095-.34-15.901 0-2.806.34-7.171 1.36-11.224 1.36-4.054 0-5.613 1.02-8.731 1.02h-9.353c-3.43 0-95.719-2.72-110.996-9.52-2.495-1.02 54.874 5.1 59.551 5.44 4.677.34 42.403 2.38 54.563.34 12.159-1.7 46.768-1.36 54.874-2.38 8.418-1.02 64.54-10.2 70.464-10.54 5.924-.34 33.049-9.18 42.091-11.561 8.73-2.38 43.962-10.2 54.875-12.92 10.912-2.72 26.813-11.56 37.102-15.64 9.977-4.08 45.209-23.46 52.069-27.881.623 0-24.631 17.341-38.662 24.481Z" fill="#fff" fill-opacity=".37"/></svg>