<svg width="1348" height="489" fill="none" xmlns="http://www.w3.org/2000/svg"><g clip-path="url(#a)"><path d="M31.95 446.03c.864.216 1.512.432 2.16.648.863.432 1.727.864 2.374 1.296.864.648 1.727 1.512 2.159 2.376 0-.648.216-1.08.432-1.728.216-1.296.863-2.16 1.727-3.24l1.943-1.728c.863-.432 1.727-.864 2.375-1.08l2.59-.648h3.239c.647-.433 1.51-.865 2.374-1.081 1.296-.432 2.591-.648 3.67-1.08.864-.216 1.512-.432 2.375-.432-.432-3.024.864-6.048 4.102-8.208 1.727-1.08 3.454-1.944 5.613-2.376 3.886-3.889 10.579-4.753 15.76-1.945 2.159-3.24 6.045-6.048 10.578-6.048 1.727-.216 3.67 0 5.182.648 1.727.648 3.238 1.728 4.317 3.024.216 0 .432-.216.648-.216-.648-8.64 5.829-16.849 16.192-17.929 8.203-.864 17.055 1.296 22.452 6.481v-.433c-.432-1.08-.648-2.16-.432-3.456 0-5.616 4.318-11.233 9.067-14.473 5.613-3.672 13.17-4.968 20.078-3.672-1.295-4.104.432-8.425 3.886-11.233 3.886-3.24 11.226-5.4 17.271-4.752 3.67-5.616 13.385-7.129 20.293-4.536 5.182 1.944 9.499 7.344 9.931 12.744 3.67-1.944 8.851-1.512 12.522 1.297 5.828 4.104 7.124 12.096 4.317 18.145h3.454c2.807-4.753 12.09-5.617 16.84-2.808 6.476 3.672 7.124 11.016 4.317 16.849 5.182 1.728 9.499 5.616 10.363 10.584.432 1.945 0 4.105-1.079 6.049 1.727.648 3.238 1.728 4.317 3.024.432.432.648.864.864 1.512.432 0 1.079-.216 1.727-.216 2.159 0 4.102.432 5.613 1.512 1.727-1.728 4.534-2.808 7.124-2.376 3.023.432 5.829 2.16 7.34 4.536 1.08 1.729 1.943 3.889 1.512 5.617.216.216.647.216.863.432l.216-.216c1.511-.864 3.238-1.08 4.75-.648.431.216 1.079.432 1.511.648.216.216.648.432.863.864.216 0 .216.216.216.216.216 0 .432.216.648.432-.216-1.296 12.306 3.24 12.953 2.16-.216-1.728-5.397-3.888-8.204-2.376-1.295-2.808-7.556-4.752-11.442-3.24 0-.216 0-.864.216-1.08 0-1.512-.216-2.809-1.079-4.105-.432-1.296-1.295-2.376-2.375-3.456-2.159-1.944-5.397-3.024-8.419-3.024-2.375 0-4.534.648-6.477 1.728-2.159-3.888-6.045-6.48-10.363-7.776 1.296-1.513 2.159-3.241 2.807-5.185 2.806-8.856-3.886-17.065-13.169-19.657-.648-.216-1.296-.216-1.943-.432.863-1.296 1.079-2.808 1.295-4.537 0-1.296-.216-2.592-.863-3.672-.432-1.08-1.08-2.16-2.159-3.024-1.943-1.728-4.75-2.808-7.34-2.808-2.807 0-5.398 1.08-7.341 2.808-.431.432-.863.648-1.079 1.08-1.08-1.944-2.159-3.672-3.67-5.184 1.079-1.512 1.943-3.241 2.159-5.185.863-7.128-5.613-14.041-13.817-13.609-1.943 0-3.67.648-5.181 1.297-.864-5.401-10.147-8.857-21.589-6.265-12.953-4.536-36.269 5.4-37.133 24.626-1.295-.216-11.658-1.512-15.759 3.24-6.693-4.968-15.544-.432-15.76 6.48-3.67-2.16-8.204-3.456-12.738-2.808-7.772 1.08-12.521 6.049-15.543 12.313-.432.864-.648 1.512-1.08 2.376-1.295.432-2.591.864-3.67 1.728-6.26-3.24-14.896-4.32-20.078-1.944-5.613 2.592-9.283 7.561-10.578 12.961-.864.432-1.943.864-2.806 1.512-3.455-.864-7.34-1.08-11.227-.216-6.908 1.512-11.01 6.265-12.305 11.881-1.943-.432-4.102.216-5.83 1.08-1.726.864-2.806 2.16-3.453 3.672-.648.864-.864 1.945-.648 3.025v.648c-1.943-1.512-4.318-1.512-6.045-.432.864.864 1.295 1.944 1.08 3.024Z" fill="#fff"/><path d="M6.693 455.102c.647.216 1.079.432 1.51.864a5.045 5.045 0 0 1 1.512-1.512c-.216-.216-.216-.432-.216-.648v-.864c.216-1.728 1.727-2.592 3.454-2.592 1.296 0 2.375.864 2.59 1.944h.433c-.648-.648-.864-2.16 0-2.808l.216-.216c.863-.864 1.943-1.296 3.238-.864h.432c1.295-3.024 4.317-5.4 8.851-5.4.648 0 2.159.864 3.022.864.432-1.944-2.59-2.377-3.67-2.161-3.886.217-6.476 1.513-8.851 4.969-2.159-.216-4.534.216-6.045 2.16-.216.216-.432.432-.432.648h-2.374c-1.08 0-1.943.648-2.591 1.08-.432-.216-.864-.216-1.08-.216-.647 0-1.079 0-1.51.216-1.08.432-1.728 1.08-2.16 1.944-.863.648-1.079 1.728-.863 2.592 0 0 .216.216.432.216.216-.216.431-.216.647-.216a4.765 4.765 0 0 1 3.455 0Z" fill="#fff"/><path d="M334.409 454.022c-.216-1.08-.863-1.728-1.727-2.16-.216-.216-.432-.432-.863-.648-.432-.216-.864-.216-1.512-.216-.863 1.08-1.511 2.16-1.943 3.457-1.943-1.513-5.397-2.593-6.908-2.593-2.375-.216-4.318.432-6.477 1.296-.215.216-.647.216-.863.432h-.216c-1.295-.864-2.807-.432-2.591 1.513l-.216-.216c-1.511-.865-3.022-1.297-4.749-1.297-1.511-.216-3.454.432-4.75 1.513-.431-.865-.863-1.729-1.727-2.377-1.295-1.296-3.454-2.16-5.397-2.16s-4.102.648-5.397 1.944c-.432.432-.864 1.08-1.295 1.512-1.943-3.24-5.182-5.616-9.499-5.4-4.75 0-9.068 2.808-11.227 6.481-.215.216-.215.432-.215.648-2.159-3.025-5.829-4.969-9.931-5.617-4.318-.648-8.852.432-12.09 3.024-2.159 1.729-3.454 4.321-3.67 6.913-.648-.648-1.079-1.08-1.511-1.728 1.727-4.105 1.943-8.641-.648-12.745-.648-1.08-1.295-1.944-2.159-2.592 3.67 1.08 7.988 1.296 11.658.216 7.988-2.376 12.09-9.289 10.147-16.849-.216-1.081-.864-2.161-1.511-2.809 0-.216.216-.432.216-.648.215-.216.215-.432.431-.648.864-1.296 1.512-2.808 1.512-4.32.215-3.672-2.807-6.48-6.045-8.425-2.159-1.296-5.613-1.512-7.772-.216l-2.591 1.945a13.073 13.073 0 0 0-6.261-3.025c-3.454-.864-6.476-.216-9.067 1.296.432-1.944.648-3.888.216-5.832-.648-3.456-3.454-6.48-6.908-8.425-6.477-3.456-16.192-3.456-20.941 2.593-1.08 1.512-1.728 3.24-1.728 4.968a27.918 27.918 0 0 0-8.203 2.592c-2.159.864-4.102 2.16-5.829 3.24-4.102-1.512-8.636-1.944-12.522.648-4.317 3.025-4.749 7.993-3.454 12.313-4.965.648-9.715 3.889-12.521 7.561-4.102 5.184-4.318 12.097 0 17.281.863 1.08 1.727 1.944 2.806 2.592-3.67-.648-7.556-.432-11.442.864-4.318 1.512-7.988 4.104-10.362 7.561-10.795-14.905-39.076-17.714-50.734-1.512-1.943-1.08-4.102-1.729-6.477-1.729-3.022 0-6.044 1.081-8.203 3.025l-.432.432c-4.102-2.592-9.5-3.457-14.249-1.296-1.295.648-2.374 1.728-3.022 2.808-1.295-2.376-3.454-4.536-6.477-5.185-5.397-1.512-10.146 1.513-12.305 5.833-1.296-1.296-3.023-2.376-4.966-2.808-3.022-.864-6.26-.432-9.067.864-.648.432-1.511.864-2.159 1.512 0-.216-.216-.432-.216-.648 0-1.728-2.806-2.376-3.238 0 .216-1.728 0-2.808-1.511-3.672a13.02 13.02 0 0 0-4.102-1.297c0 .216.216.432.216.649a5.045 5.045 0 0 0-1.511 1.512c-.432-.432-.864-.648-1.512-.864-1.079-.432-2.59-.432-3.67 0-.216 0-.431.216-.647.216-1.08.648-1.512 1.728-1.296 2.808.216 1.296 1.512 2.376 3.023 2.592H6.26c.216 0 .431 0 .431-.216.648 0 1.512-.432 1.943-.864 0 0 .216 0 .216.216 1.296.648 2.807 1.08 4.318 1.08-.216.864 0 1.944.432 2.592l.647.648c.432.432 1.08.864 1.728.864 1.079.648 1.943.648 2.806.216.648-.432.864-1.08.864-1.728 0-.216.647-.216.863-.432 0-.216-.216-.648-.647-.648h.647l1.296 1.296c2.158 1.944 5.18 3.024 8.203 3.024 3.239 0 6.045-1.296 8.204-3.024 1.295-1.08 2.159-2.592 2.806-4.104.864 2.592 3.023 4.752 6.909 4.752 2.159 0 3.67-.648 4.965-1.512 2.591 2.16 6.045 3.24 9.931 2.592.864.216 1.727.432 2.807.432 1.51 1.512 4.317 2.16 7.124 1.944.864-.216 2.806-.864 3.454-1.512.216.648 1.943 1.08 2.59 1.08.864.216 1.728 0 2.591.216.432 1.08 1.296 2.161 2.16 2.809 1.726 1.512 4.317 2.592 6.692 2.592 2.59 0 4.965-1.08 6.692-2.592l1.296-1.296c2.374 0 4.749 0 7.124-.216 4.965 3.24 9.931 3.888 15.544 4.104.432.648 1.079 1.512 1.727 2.16 1.511 1.296 3.454 2.376 5.613 2.808a17.44 17.44 0 0 0 6.692 0c2.159-.432 3.455-1.296 4.966-2.376.648-.432 1.079-.648 1.511-1.08.216-.216.432-.648.864-.864h3.454c5.181 0 8.851-1.944 10.794-4.969.216.217.216.649.432.865 1.511 2.376 4.102 4.104 7.124 4.968.216 0 .432 0 .432.216 1.079.216 2.159.216 3.022.432h.216c.648 0 1.296-.216 1.943-.216.432 0 1.296 0 1.943-.216.864-.216 3.455-1.296 3.023-1.08.647-.432 1.943-1.08 2.59-1.728l.648-.648c.432.216.864.216 1.079.432 1.08.216 2.159.216 3.239.432 1.727 0 3.238-.216 4.749-.864 1.08-.216 1.943-.648 2.807-1.512a11.566 11.566 0 0 0 3.238-3.241c.216-.648.648-1.296.864-1.944a14.461 14.461 0 0 1 4.317 0c4.75.432 9.284 2.592 14.033 2.592 6.477.216 13.169-2.16 16.408-6.912h1.511c.216.432.647.864.863 1.296 1.943 2.376 4.534 4.104 7.556 5.4 2.159.864 4.318 1.296 6.693 1.512 0 .216.216.216.216.433.432 1.08 1.079 2.16 2.159 3.024 1.943 1.728 4.749 2.808 7.556 2.808 2.806 0 5.397-1.08 7.556-2.808 1.511-1.296 2.374-3.024 2.806-4.753 3.67-.432 7.125-1.296 9.715-3.24 1.511.864 3.454 1.512 5.397 1.512 2.591 0 4.966-1.08 6.693-2.592 1.079-.864 1.943-2.16 2.375-3.456 7.556.432 15.328.216 22.884-.648 2.159-.216 3.67-1.08 4.749-2.16l1.296.648c1.942.648 3.67.216 5.181-.648h1.295c.432 0 .648-.216 1.08-.432 0 .648.431 1.08.863 1.512 1.727.864 3.454 1.512 5.397.864 1.296-1.296 2.159-3.024 1.943-4.537Z" fill="#D9E9F1"/><path d="M330.523 450.782h-.432c-.864 0-1.511.432-2.159.864-.432.216-.864.648-1.295 1.08-.216-.216-.216-.648-.432-.864v-.432c.216-1.512-1.295-2.808-2.807-2.376-.216 0-.647 0-.863.216-1.296-.864-3.023-.648-4.534-.432-.863-1.512-4.965-1.728-4.749-.432-.216-.216-.432-.216-.648-.432l-.216-.216-.863-.864a10.53 10.53 0 0 0-1.512-.648c-1.727-.432-3.454-.216-4.749.648l-.216.216c-.216-.216-.432-.216-.864-.432.216-1.944-.431-3.889-1.511-5.617-1.511-2.376-4.102-4.104-7.34-4.536-2.591-.216-5.397.648-7.124 2.376-1.511-.864-3.454-1.512-5.613-1.512-.648 0-1.08 0-1.727.216-.216-.432-.648-1.08-.864-1.512-1.079-1.512-2.591-2.376-4.318-3.024.864-1.944 1.296-4.104 1.08-6.049-.864-4.968-5.182-8.856-10.363-10.584 3.023-5.833 2.159-13.177-4.318-16.85-4.749-2.808-14.032-1.944-16.839 2.809-1.079 0-2.159-.216-3.238 0h-.216c2.807-6.049 1.511-14.041-4.318-18.146-3.886-2.592-8.851-3.024-12.521-1.296-.432-5.184-4.75-10.584-9.931-12.745-6.908-2.808-16.407-1.08-20.293 4.537-6.045-.864-13.385 1.296-17.271 4.752-3.455 2.808-5.182 7.129-3.886 11.233-6.693-1.296-14.465 0-20.078 3.672-4.965 3.24-9.067 8.857-9.067 14.473 0 1.296.216 2.376.432 3.456-.216 0 0 0-.216.216-5.397-4.968-14.033-7.128-22.237-6.264-10.578 1.08-16.839 9.073-16.191 17.929-.432.216-.432 0-.648.216-1.079-1.296-2.591-2.376-4.318-3.024-1.727-.648-3.454-.864-5.18-.648-3.455 0-6.693 1.728-8.852 4.104-1.511-1.944-4.102-2.808-6.909-2.376-2.59.216-5.829 1.08-6.908 3.456-6.26-1.296-14.033 3.889-13.17 9.937-1.726 0-3.238.216-4.749 1.08-1.51.864-3.238 2.592-3.454 4.32-2.375-1.08-5.397-.864-7.772 0-3.886 1.512-5.829 5.185-5.397 8.857-.648-.648-1.295-1.512-1.943-1.944-.864-.432-1.511-1.08-2.375-1.296-.647-.216-1.511-.432-2.159-.648 0-.864-.215-1.512-.647-2.16-.216-.432-1.511-.865-1.943-.865-.432 0-.432 0-.864-.216-4.534 0-7.34 2.593-8.635 5.617-.648-.216-.864-.216-.864-.216-1.295-.216-2.375.216-3.238 1.08l-.216.216c-.648.648-.648 2.16 0 2.808h-.432c-.432-1.08-1.511-1.944-2.59-1.944-1.728 0-3.239.864-3.455 2.592 0 .216-.216.864.216 1.512 1.511-.432 2.59-.216 3.886.432 1.511.864 1.727 2.16 2.59 3.457.433-1.513 3.023-1.081 3.24-.216 0 .216.215.432.215.648.648-.648 1.295-1.081 2.159-1.513 2.59-1.512 6.045-1.728 9.067-.864 1.943.432 3.67 1.513 4.966 2.809 2.158-4.105 6.908-7.129 12.305-5.833 3.022.864 5.181 2.808 6.477 5.185.647-1.081 1.727-2.161 3.022-2.809 4.75-2.376 10.363-1.512 14.249 1.296l.431-.432c2.16-1.944 5.182-3.024 8.204-3.024 2.375 0 4.534.648 6.477 1.728 11.658-16.201 39.939-13.393 50.733 1.512 2.159-3.456 6.045-6.048 10.363-7.56 3.886-1.296 7.772-1.512 11.442-.864-1.079-.648-1.943-1.728-2.807-2.592-4.317-5.185-4.101-12.097 0-17.282 2.807-3.672 7.556-6.696 12.522-7.56-1.295-4.32-.864-9.505 3.454-12.313 3.886-2.592 8.42-2.16 12.522-.648 1.727-1.296 3.67-2.376 5.828-3.24 2.591-1.296 5.398-1.944 8.204-2.592 0-1.728.648-3.457 1.727-4.969 4.534-6.048 14.465-6.048 20.941-2.592 3.239 1.728 6.045 4.752 6.909 8.425.432 1.944.216 3.888-.216 5.832 2.591-1.512 5.613-2.16 9.067-1.296 2.375.432 4.534 1.728 6.261 3.024l2.59-1.944c2.159-1.296 5.614-1.08 7.772.216 3.239 1.728 6.261 4.752 6.045 8.425 0 1.512-.647 3.024-1.511 4.32-.216.216-.216.432-.432.648 0 .216-.216.432-.216.648.648.648 1.296 1.728 1.512 2.808 1.943 7.345-1.943 14.257-10.147 16.849-3.67 1.081-7.988 1.081-11.658-.216.864.864 1.511 1.729 2.159 2.593 2.591 4.104 2.375 8.64.648 12.744.431.649.863 1.297 1.511 1.729.432-2.593 1.511-4.969 3.67-6.913 3.238-2.808 7.772-3.672 12.09-3.024 4.101.648 7.556 2.376 9.93 5.616 0-.216.216-.432.216-.648 2.159-3.672 6.477-6.48 11.226-6.48 4.318 0 7.556 2.376 9.499 5.4.432-.648.864-1.08 1.296-1.512 1.511-1.296 3.454-1.944 5.397-1.944s4.102.864 5.397 2.16c.864.648 1.295 1.512 1.727 2.376 1.296-.864 3.238-1.512 4.75-1.512 1.727.216 3.238.432 4.749 1.296l.216.216c0-.864 1.08-2.16 2.807-1.512.216-.216.647-.432.863-.216 3.023 2.592 6.693 0 6.261-1.512 2.806.216 4.102 3.672 6.908 2.592 3.023 1.08 4.102-2.808 1.296-3.24Z" fill="#ECF4F8"/><path d="M336.784 453.158c-.432-.648-1.295-1.08-2.159-1.08-.432-.648-1.079-1.08-1.727-1.08-.432 0-.864 0-1.08.216l-.431-.432c-.432-.216-.648-.432-1.08-.648-1.295-.432-1.943.432-3.022.432-1.295 0-.864-.216-1.511-1.296-.216-.216-.432-.648-.648-.864-1.943-1.944-5.181-1.944-7.124-.432-.648.432 0 1.08.647.864.432-.216.864-.432 1.296-.432-.216 0-.432.216-.648.216-.432.216 0 .648.432.648.863-.216 1.727-.216 2.59.216.648.432.864.864 1.296 1.512.216.432 1.079.432 1.079-.216 0-.216 0-.432-.216-.648.216.648.432 1.296.864 1.728.432.648.647.648 1.295.648.216 0 .648 0 .864-.216.863-.432 1.943-.432 3.022 0 0 0 .216 0 .216.216-.216 0-.432.216-.648.432-.647.648.432 1.512 1.08.864.216-.216.863-.432 1.295-.216 0 .216.216.432.216.432.216.216.432.216.432.432 0 .432-.216.864-.864 1.512-.647.648.432 1.512 1.296 1.08a3.362 3.362 0 0 0 1.295-1.728c.432-.432 1.295-.216 1.727-.864.432-.432.432-.864.216-1.296ZM39.075 442.79c-.863-1.08-3.022-1.296-4.317-1.08-1.296.216-2.375.864-3.239 1.944-4.533-2.809-11.01-1.08-11.873 4.536 0 .432.863.864 1.079.216 1.727-4.32 7.556-5.832 11.01-2.16.864.864 2.59-.216 1.727-1.08l-.647-.648c.863-.648 1.727-.864 2.806-1.08 1.08 0 1.943.432 3.023.648.215.216.863-.864.431-1.296ZM3.886 453.374c-2.375.216-4.102 2.16-3.886 4.321 0 .216.216.216.216.432.431 1.296 1.295 2.376 2.59 2.376.216 0 .648-.432.216-.432-.648-.432-1.511-.648-1.943-1.512 0-.216-.216-.216-.216-.432.432-.216.432-.432.432-.864s0-.865.432-1.297c.432-.864 1.295-1.512 2.375-1.728.647-.216.431-.864-.216-.864ZM268.995 407.363c-.216-.864-.432-1.944-.863-2.808-.216-.864-.216-1.728-.864-2.376-.216-.216-.432-.648-.863-.864-.864-1.296-1.943-3.241-3.67-2.809-.432 0-.432.433-.216.649-.216 0-.216.216-.216.432 0 0 0 .216.216.216-.216.216-.216.648.216.648.215 0 .431.216.431.216 1.943 2.592 3.67 4.752 3.886 7.992.216 3.672-1.079 6.913-3.022 9.937-.432.648.863 1.08 1.295.432 2.159-3.456 3.238-7.561 2.807-11.233.647.216.863 0 .863-.432ZM221.284 371.505c-6.476-2.808-14.248-4.969-20.941-1.944-1.295.648-2.374 1.296-3.238 1.944 0 0 0-.216.216-.216.216-.216-.216-.648-.432-.432-1.079.864-1.943 1.944-2.59 3.024.431-.864.647-1.728 1.295-2.376.648-.864-.648-1.728-1.295-.864-.432.648-.864 1.296-1.08 1.944-.216 0-.432 0-.432.216v.216c-.431 0-.647.216-.647.648 0 .864 0 1.728.216 2.376-.216 1.296 0 2.592.215 3.888 0 .216.216.216.216.432 0 1.08 0 2.161.216 3.025 0 .432.216.864.216 1.296 0 .216.216.216.216.216.432.432 1.079.216 1.079-.432 0-1.08-.215-2.377-.215-3.673.647-4.536 3.238-8.424 8.635-9.936 6.045-1.728 11.874.432 17.487 2.592 1.295.432 2.159-1.296.863-1.944Z" fill="#fff"/><path d="M324.047 451.43c.216-2.376-5.397-4.536-6.045-1.728 0 .216.216.432.432.432.216.216.431.216.431 0 .432-.432 1.512-.432 2.159-.216.216 0 .432.216.648.432 0 .216 0 .432.216.648l.216.216v.216c0 .216.216.216.216.216 0 .432-.864.216-.648-.216 0-.432-.648-.648-.864-.216-.431 1.296 1.08 2.376 2.375 1.512.216-.216.432-.432.648-.864v-.216c0 .216.216.216.432.216h.216c-.216.216 0 .648.215.648.216.216.432.216.648 0 .216.648 1.08.432 1.08-.216.215-1.08-1.512-1.944-2.375-.864ZM334.193 454.022c0-.432-.216-.864-.647-1.08-.432-.432-1.512-.648-2.159-.432-.432-1.08-1.943-.432-2.375 0-.216.216 0 .216 0 .432-.216.432-.216 1.08.432 1.296h.216c.215.432.863.432 1.295 0 0 .216.216.432.432.648.216.216.431.216.647.216 0 .648.216 1.081 1.08 1.081.432 0 .863-.217.863-.649.432-.432.648-1.08.216-1.512ZM267.484 416.868c-.432-.432-1.296-.432-1.512 0-.431.432-.647 1.08-1.079 1.512a5.055 5.055 0 0 1-1.511 1.512c-.432.432.216 1.08.647.864.648-.216 1.296-.864 1.943-1.296.216-.216.432-.648.648-.864 0-.216.216-.216.216-.432.863 0 1.079-.648.648-1.296ZM35.837 445.598c-1.51-.432-4.317-.216-4.533 1.512 0 .432.431.648.863.216.432-.432 1.296-.648 1.943-.648l-.216.216v.648c.216.216.216.216.432.216 1.295.216 3.023 1.728 3.67 2.808.432.648 1.727.216 1.511-.648.216-1.944-1.295-3.888-3.67-4.32ZM10.363 452.726c-.864.216-1.512.648-2.16 1.296-2.806-1.728-11.01 1.944-6.044 6.265.863.648 1.943-.432 1.08-1.296-3.24-3.025 3.67-4.753 4.317-3.457.216.648 1.295.648 1.511 0 .432-.864 1.08-1.296 1.727-1.944.216-.432 0-1.08-.431-.864Z" fill="#ECF4F8"/></g><g clip-path="url(#b)"><path d="M1228.93 158.875c.84 0 1.78-.094 2.62-.187.28-.844.83-1.782 1.67-1.969 1.87-.375 4.02.844 4.39 2.719l.09-.094c.1-.188.28-.375.47-.469-.28-.281-.56-.656-.56-1.125 0-.375.09-.562.19-.844-1.5-2.343-4.95-2.25-6.44-.187-1.21 0-1.21.844-.84 1.219-.37-.282-1.12-.188-1.49.093-.38.282-.38.469-.56.844.09-.094.28 0 .46 0Z" fill="#fff"/><path d="M1274.38 149.406c-.19.094-.38.281-.56.375.09.188.09.281.18.375.19-.281.28-.562.38-.75ZM1223.24 159.906c-.47-.094-2.15.094-2.24.563-.09.656 1.4 1.593 2.05 1.687.28 0 .47.188.66 0 .18.375.46.75.93.75h.75c.09 0 .18 0 .28-.094-.1 0-.1 0 0 0 .09 0 .18 0 .28-.093.09 0 .18-.094.28-.094.09 0 .18-.094.18-.094.19.094.38.188.56.188l.66.093h1.02c.47 0 .94-.093 1.22-.468.18.093.28.187.46.281.28.187.65.187.93.187.19 0 .28 0 .47-.093.28-.188.37-.188.19-.094-.1.094-.1.094 0 0 .18-.094.28-.188.37-.281 2.33 2.062 5.79 2.437 8.68.75 1.03.843 2.24 1.312 3.64 1.406 1.21.094 2.24-.281 3.45-.563.65-.187 1.12-.281 1.59-.187-.1.844.09 1.687.65 2.344 1.87 2.156 4.39 3.281 7.28 3.093 1.31-.093 2.61-.468 3.73-1.125.84.844 1.87 1.5 2.89 2.157 2.15 1.218 4.48 1.781 6.91 1.781 2.89 0 4.39-1.219 6.53-2.906.37-.282.84-.563 1.21-.844.19.375.38.656.47.656 2.71 3.75 8.03 3.281 11.95 1.875 2.24-.75 3.91-2.531 4.75-4.406.38.187.75.375 1.12.375.1 0 .19.094.38.094.65.375 1.4.656 2.14.656 1.22.094 2.34-.375 3.18-1.125l.09-.094c.09.094.19.188.28.375.47.563 1.03 1.031 1.77 1.219.66.375 1.4.562 2.15.562 1.49.094 2.89-.468 4.01-1.406.75-.656 1.21-1.5 1.59-2.437.09-.375.18-.75.18-1.125.47-.188.84-.375 1.31-.563h.09c.1.281.28.469.47.656.47.563 1.31.938 1.96.938 1.31.094 2.43-.75 2.8-1.969.28.656.75 1.219 1.31 1.5 1.86 1.125 4.57.75 5.97-1.031.09-.188.18-.281.28-.469.84 0 1.68.094 2.61.094.84 0 1.49-.188 2.05-.563.1.094.19.188.38.188.37.187.84.187 1.21.187 1.12 0 2.24-.093 3.17-.468 0 0 .1 0 .1.093-.1.469.28.938.84.75.18-.093.37-.093.46-.187.94.281 1.87.281 2.43-.563.28.188.65.375 1.12.375.74.094 1.3-.187 1.58-.562.94.375 2.24-.281 2.15-1.5v-.188c.28.094.65.188.93.188.28.094-.18 0 .1 0 1.4.187 2.42-1.969-.1-2.25-.56-.094-.09 0-.74-.188-.84.188-1.59.375-2.24.75-1.78-.187-3.55.188-4.76 1.5-.47-.375-1.03-.562-1.68-.562h-.28c-.84 0-1.77.281-2.33.75-.1-.094-.28-.094-.38-.188-.37-.468-.74 0-.46.657-.28-.282-.56-.469-.94-.563-.46-.375-1.02-.562-1.68-.562-.46 0-1.12.093-1.58.281-.47-.281-.94-.375-1.4-.469h-.28c-.75 0-1.4.188-2.05.563-.1-.094-.1-.188-.19-.282-.56-.656-1.4-1.125-2.24-1.125-.93 0-1.96.188-2.71.844-.28.281-.56.656-.74 1.031-.28-.375-.56-.75-.94-1.031-.37-.187-.74-.469-1.21-.562-1.12-.375-2.15-.282-3.08.375-.28.187-.47.375-.65.562-.1-.094-.28-.281-.47-.375 0 .281-.09.563-.19.844-.74-.844-1.58-1.594-2.7-1.969-.93-.375-2.05-.469-3.08-.281-.47-.094-.93-.188-1.4-.188.09-.375.19-.656.28-1.031.47-2.719-.84-5.25-2.89-6.937-3.74-3.188-10.17-4.032-14.37-1.219-2.15 1.5-3.27 3.656-3.55 6-.37-.188-.75-.281-1.03-.281-.84 0-1.77.187-2.42.843-.47.469-.84.938-1.03 1.594-2.05-.469-4.29-.562-6.16.375-1.49.75-2.42 1.688-2.61 3.188-.56-.844-1.03-1.407-1.96-1.969-.65-.375-1.21-.656-1.96-.656-.93-.094-1.96.281-2.71.937-1.3 1.219-1.86 2.813-1.49 4.5-.47 0-.75.094-1.12-.094a5.678 5.678 0 0 0-4.1-2.531c-1.5-.187-3.18.375-4.3 1.406-.65.657-1.12 1.313-1.4 2.063-.18-.281-.46-.469-.65-.75-.65-1.031-1.12-2.25-1.21-3.375-.1.375-.28.75-.56 1.031-1.22-1.312-3.08-1.875-5.04-1.594-1.4.282-2.71.844-3.73 1.782h-.1c-1.21-.469-1.58.187-2.42.75-1.78-1.594-4.67-1.782-6.72-.469a5.653 5.653 0 0 0-1.78 0c-.74-.75-1.67-1.313-2.61-1.688-.09 0 0-.375-.09-.375-.19 0-.75-.375-.75.375-.56-.093-1.3.375-1.58 1.125-.1 0-.19-.093-.19-.093-.09 0-.19-.094-.28-.094a1.569 1.569 0 0 0-.93 0c-.19-.375-.47-.75-.94-.75 0-.094-.09-.094-.09-.094 0 .094-.19.094 0 0Z" fill="#D9E9F1"/><path d="M1341.93 157.75c-.09-.188 0-.281.19-.469-.19-.187-.37-.281-.56-.281h-.18c.27.188.46.469.55.75Z" fill="#D9E9F1"/><path d="M1327 153.906c-.46-1.312-1.67-2.062-2.98-2.156-.19-1.875-2.33-3.469-4.2-3.094-1.03-1.312-3.08-2.343-4.48-2.531h-.37c-2.24-1.312-5.51-1.031-6.91 1.219-.56-2.625-2.33-4.5-4.48-5.625-1.12-2.438-3.92-4.313-6.53-4.688-3.26-.656-7.09-.281-9.7 1.782-.28 0-.56 0-.84.093-.47-.281-.94-.562-1.4-.843-1.12-3.188-4.48-5.532-8.31-4.875-4.85.75-7.46 4.687-7.74 8.906-.66.469-1.22.937-1.68 1.594-.28.375-.47.75-.66 1.031-.84.281-1.58.656-2.33 1.125-1.77 1.125-3.26 2.625-3.92 4.5-1.21-1.219-2.7-2.25-4.29-2.531-4.01-.938-8.96 2.343-9.14 6.656 0 .375 0 .656.09.937-.28.563-.47 1.125-.47 1.688h-.09c-.37-.094-.84-.188-1.21-.094-.47-.469-1.03-.656-1.68-.75.28.188.56.469.74.844.28.469.28.937.1 1.5.65-.375 1.49-.75 2.42-.938 0-.468 0-.937.28-1.406.47-1.125 1.49-2.062 2.61-2.625.75-.656 1.59-1.031 2.62-.937.18 0 .28-.094.46-.094 2.24-.281 4.95.562 6.54 2.156.28-.094.56-.187.84-.187a7.242 7.242 0 0 1 1.77-3 5.405 5.405 0 0 1 3.26-1.407c.28-.187.66-.468.94-.562a5.903 5.903 0 0 1 3.73-.656c.28-5.719 5.04-8.344 10.82-7.969 1.87.094 3.18.937 4.2 2.156 1.96-1.125 4.48-1.406 6.26-.656 1.58-2.156 4.85-1.969 6.99-.188.84.75 1.59 1.875 1.87 3.094 2.89 0 5.79 2.063 7.47 4.219.28.375.56.75.74 1.125.38-.375.84-.563 1.31-.563.28 0 .65 0 .93.188.1-.188.19-.469.37-.563 1.31-1.125 2.52-.843 4.11-.562 1.21.187 2.43.562 3.45 1.312.94.75 1.68 1.782 2.06 3 .28.188.56.375.74.563.47-.281 1.03-.469 1.78-.469 1.58.094 2.42 1.125 2.7 2.344.47-.375 1.03-.656 1.59-.656-.19-.657-.28-1.032-.38-1.407Z" fill="#fff"/><path d="M1328.5 155.031a2.957 2.957 0 0 1 1.96 1.969c.09.094.28.187.37.281.28-.469.75-.844 1.31-.937.56-.094 1.12 0 1.58.468.38.375.56.75.66 1.219.18 0 .37-.094.56 0l.18-.187.19-.188c.19-.187.47-.281.65-.281-.18-.375-.56-.656-.93-.656-.28 0-.56 0-.75.093 0-.093-.09-.187-.09-.281a2.552 2.552 0 0 0-1.4-1.219c-.65-.281-1.49-.281-2.15.188-.09.094-.18.187-.28.281-.09-.469-.37-.937-.84-1.312-.56-.375-1.3-.469-1.96 0-.09.093-.28.187-.37.281.56.187.93.187 1.31.281Z" fill="#fff"/><path d="M1238.17 157.469c.65-.188 1.21-.188 1.87-.094.84-.938 2.24-1.5 3.54-1.219-1.12-.844-2.7-.844-4.1-.375-.66.188-1.31.469-1.59 1.031 0 .094.09.094.09.188.1.187.1.281.19.469ZM1337.36 159.156c.1 0 .19 0 .28-.093.28-.469.66-.657 1.22-.657 0-.187.09-.281.18-.375.75-.75 1.4-1.125 2.43-1.031-.84-.75-2.33-.844-2.8.469 0 .281-.09.469-.19.562-.09-.093-.28-.093-.46-.187-.1 0-.38-.094-.66-.094-.37-.281-.74-.375-1.21-.375.09.188.19.375.19.469.56.375.93.75 1.02 1.312ZM1327.38 154.938h-.19v.281c0-.094.09-.188.19-.281Z" fill="#ECF4F8"/><path d="M1343.8 158.594c-.19-.282-.74-.188-1.21.094.09-.188 0-.376-.19-.563.1-.281.28-.937-.18-.844-.19-.281-.47-.75-.84-.281-1.03-.094-1.68.281-2.43 1.031-.09.094-.19.282-.19.375-.56 0-.93.188-1.21.656-.09 0-.19 0-.28.094 0-.562-.47-.937-1.03-1.125a.73.73 0 0 0-.18-.468c-.28 0-.47.093-.66.281l-.18.187c-.1.094-.1.094-.19.188h-.56c0-.469-.19-.938-.65-1.219-.47-.375-1.03-.562-1.59-.469-.56.094-1.03.375-1.31.938-.09-.094-.18-.188-.37-.281a2.957 2.957 0 0 0-1.96-1.969c-.37-.094-.75-.188-1.21-.094-.09.094-.09.188-.19.281v-.281c-.56.094-1.21.281-1.58.656-.28-1.219-1.12-2.25-2.71-2.343-.75-.094-1.31.093-1.77.468-.28-.187-.47-.375-.75-.562-.37-1.125-1.12-2.25-2.05-3-1.03-.75-2.24-1.125-3.46-1.313-1.58-.281-2.8-.562-4.1.563-.19.187-.28.375-.37.562-.28-.094-.56-.187-.94-.187-.46 0-.93.187-1.3.562-.19-.375-.47-.75-.75-1.125-1.68-2.156-4.57-4.125-7.47-4.218-.28-1.219-1.02-2.438-1.86-3.094-2.15-1.781-5.41-1.969-7 .187-1.77-.656-4.39-.375-6.25.657-1.03-1.219-2.34-1.969-4.2-2.157-5.69-.375-10.55 2.25-10.83 7.969-1.21-.187-2.61 0-3.73.656-.28.188-.65.375-.93.563a5.457 5.457 0 0 0-3.27 1.406c-.84.75-1.4 1.781-1.77 3-.28.094-.56.094-.84.188-1.59-1.594-4.2-2.438-6.53-2.157-.19 0-.28 0-.47.094-1.03-.094-1.87.281-2.61.938-1.12.656-2.15 1.5-2.61 2.625-.19.468-.28.937-.28 1.406-.66.187-1.31.469-1.87.656-.09-.094-.19-.187-.28-.187h-.09c.09-.375 0-.75-.19-1.032a2.238 2.238 0 0 0-.75-.843c-1.3-.188-2.61.281-3.54 1.218a4.292 4.292 0 0 0-1.87.094c-.09-.187-.19-.375-.28-.469 0-.094-.09-.094-.09-.187-.19.187-.19.469-.19.844 0 .468.28.843.56 1.125-.19.187-.28.374-.47.468-.09 0-.09.094-.09.094-.37-1.875-2.43-3.187-4.39-2.719-.84.188-1.77.844-2.05 1.688-.93-.375-2.05-.281-2.8.375-.46.094-.74.656-.74.937.18-.187 1.12.657.93 1.219 1.12-.375 1.49.188 2.24.938.65-.094 1.12 0 1.77 0 2.05-1.219 4.85-1.032 6.72.468.84-.562 1.21-1.218 2.43-.75h.09a8.655 8.655 0 0 1 3.73-1.781c1.68-.281 3.36.188 4.57 1.125v.094c0 .375.1.656.1 1.031 0 .187.28.375.46.188.19-.188.47-.094.75.093 0 .094.09.282.09.375.28 1.032.75 2.063 1.59 2.813.28.281.56-.094.47-.375-.19-.375-.28-.75-.19-1.125.28-.563.65-1.032 1.12-1.5 1.12-1.032 2.8-1.5 4.29-1.406 1.68.187 3.27 1.125 4.11 2.531.47.094.93.187 1.4.187-.37-1.687-.1-3.375 1.3-4.594.75-.656 1.68-.937 2.71-.937.75 0 1.4.281 1.96.656.93.563 1.49 1.407 2.05 2.344.19-1.5 1.03-2.812 2.52-3.562 1.87-.938 4.11-.844 6.16-.375.19-.563.56-1.125 1.03-1.594.65-.563 1.58-.844 2.42-.844.38 0 .75.094 1.03.281.28-2.343 1.31-4.5 3.55-6 4.2-2.812 10.63-1.968 14.37 1.219 2.05 1.688 3.36 4.219 2.89 6.938-.09.374-.19.656-.28 1.031h.37c0 .093.1.093.19.093h.84c2.24.188 4.29 1.032 5.97 2.719.19.188.56 0 .47-.281 0-.562.74-1.125 1.21-1.594.84-.375 1.68-.375 2.52-.094.37.094.84.376 1.21.563.38.187.75.563.94 1.031.18-.375.46-.75.74-1.031.75-.656 1.68-.844 2.71-.844.93 0 1.68.469 2.24 1.125.09.094.09.188.19.282.56-.376 1.3-.563 2.05-.563h.28c.46 0 1.02.187 1.4.469.46-.188 1.12-.281 1.58-.281.56 0 1.12.281 1.68.562.38.188.66.375.94.563-.1-.376.28-.844.46-.657 0 .094.19.375.47.188.75-.469 1.4-.844 2.33-.844h.28c.66 0 1.22.281 1.68.563 1.22-1.313 2.99-1.688 4.76-1.5.75-.376 2.05-.469 2.89-.563-1.12.094-2.14.281-2.61.469Zm-69.7-8.438c-.1-.094-.19-.187-.19-.375.19-.093.37-.281.56-.375-.19.188-.28.469-.37.75Z" fill="#ECF4F8"/><path d="M1343.05 158.125v-.094c-1.21-2.062-3.82-2.062-5.03-.281-.94-.75-2.24-1.031-3.18-.281-.37-.75-.93-1.313-1.68-1.594-.84-.281-1.86.281-2.52-.094-.37-.187-.65-.843-1.02-1.031-.38-.281-.84-.375-1.22-.469-.93-.187-1.95 0-2.61.75-.18.188 0 .469.28.375 1.12-.281 1.96-.562 3.08.188.56.375.84.937 1.31 1.406.09.094.28.188.46.094 1.31-.469 2.62-.656 3.36.937.19.469.84.375.94 0 1.12-.187 2.05-.281 2.8.656.18.188.56.094.65-.093.84-1.594 2.89-1.688 3.83-.094.09.188.28.187.37.187.09.094.09.094.18.094.19 0 .28 0 .47-.094l.09.094c.56.281 1.12.188 1.68.281.75.094 1.31.469 1.78 1.126.28.374.74.281.84-.188.37-2.25-3.27-2.813-4.86-1.875ZM1230.8 157.469c-1.5-.094-3.27.187-3.55 1.781-.84 0-1.68.281-2.14.937-.38-.187-.66-.187-1.12 0-.94-.656-2.99-1.031-2.99.563 0 .187.28.281.37.094.47-.75 1.87-.188 2.34.281.18.094.37.187.56 0l.74.094c.28.187.66.093.75-.282.19-.843 1.21-.843 1.96-.75.28 0 .47-.281.47-.468 0-1.313 1.67-1.313 2.51-1.219.75.094.84-1.031.1-1.031ZM1245.26 156.813c-1.4-2.719-6.81-2.719-8.3 0-.19.281.18.468.37.375 1.21-.563 2.15-1.313 3.55-1.407 1.58 0 2.52.844 3.82 1.594.38.188.75-.281.56-.562ZM1258.14 152.5c-2.52-1.125-5.69-1.313-8.21-.188-1.87.844-4.11 2.532-4.11 4.688 0 .281.47.469.65.094.84-2.063 2.34-3.469 4.39-4.125 2.33-.844 4.67-.282 7 .375.56.281.84-.563.28-.844Z" fill="#fff"/><path d="M1229.96 160c-.19.094-.28.281-.37.375 0-.094-.1-.094-.19-.094V160c0-.187-.19-.281-.28-.187-.19.187-.37.375-.37.656v-.094c0-.094.09-.187.09-.281 0-.469-.56-.656-.93-.469-.84-.187-1.87.094-2.06.75-.37-.094-.74.094-.84.563-.28.093-.37.187-.46.281-.75-.469-1.5-1.031-2.24-.75-.19-.094-.38 0-.56.094-.1.093-.19.281-.1.375-.09.187.1.375.28.375.19 0 .28 0 .47-.094.09 0 .19-.094.28-.094l.09-.094c.66.094 1.31.844 1.68 1.125.1.282.38.375.66.188.09 0 .18-.094.18-.188.1 0 .19 0 .28-.093a1 1 0 0 0 .28-.657v-.093h.1c.18.187.37.281.56.375.56.187 1.12 0 1.49-.375l.09-.094c.19.187.47.375.75.281h.19a.7.7 0 0 0 .46.188c.66.187 1.4-.188 1.4-.844.38-.563-.37-1.219-.93-.844Zm.47 1.031c-.1.094-.19.188-.28.188v-.188c0-.093 0-.281.09-.375.19-.187.37.282.19.375ZM1346.97 159.531c-.09-.093-.09-.093-.18-.093-.1 0-.1-.094-.19-.094-.19-.281-.56-.375-.93-.375-.75-.563-2.06-.469-2.8 0l-.09.094c-.19-.094-.38-.094-.47 0h-.09c-.28 0-.38.281-.38.468-.37-.093-.74-.187-1.02-.187-.56 0-1.03.281-1.5.562-.18.094 0 .469.19.375 1.12-.468 1.87 0 2.89.188.38.094.56 0 .84-.094.19 0 .28-.094.37-.187.28-.282.56-.375.84-.469h.38c0 .094 0 .281.09.375.09.094.09.094.19.187.09.094.28.188.37.094.09 0 .19-.094.19-.094v.094c.09.188.18.188.37.188.09.093.28.187.47.093.18.094.46 0 .56-.281.28-.469.18-.562-.1-.844Z" fill="#ECF4F8"/></g><g clip-path="url(#c)"><path d="M1028.44 240.628c.29 1.161 1.16 1.741 2.02 2.031 2.03 0 4.33.29 6.36 0 .57 0 1.15-.29 1.44-.87.58 1.45 2.02 2.901 4.04 2.901 4.62.58 9.53.871 14.15 1.161.57.29 1.44.29 2.02 0 12.41.58 24.83.29 37.24-.581h3.75l.29.291c4.33 4.062 16.17 9.284 23.97 8.123 3.75 2.322 8.08 3.772 11.83 2.322 2.6-.871 4.91-2.902 7.22-4.933 6.35.871 12.99 1.741 19.05 1.741 1.16 1.741 2.6 3.192 3.76 4.642 4.62 4.643 10.68 7.544 17.32 7.544 7.51.29 17.61-4.642 20.21-11.896 12.7 3.482 26.27 3.192 36.95-4.062h1.16c2.88 2.612 6.93 4.352 10.68 4.352 3.18.29 7.22-.87 8.66-4.062.29-.29.29-.58.29-1.16.87-.29 1.44-.871 2.02-1.451 1.44 0 2.89.29 4.33.58 3.18.581 6.64 1.741 9.82 1.161 2.02-.29 4.04-1.451 5.48-2.901.58.29 1.45.58 2.02.29.58-.29 1.16-.581 1.74-1.161 2.3 1.161 5.19 1.451 7.21 0H1285.1c-.87-.58-2.31-1.741-2.31-2.031-1.15-.87-2.6-1.451-3.75-2.031-1.16-2.611-3.18-4.352-5.78-5.222-.29.29-.57.58-.57.58-.29 0-.58 0-.87-.29v-.581c-1.44-.29-2.89-.29-4.33 0-1.44.291-3.18 0-4.91-.29a16.52 16.52 0 0 0-3.17-3.191h.28c-.28-.29-.57-.29-.86-.58-.58-.291-1.45-.581-2.02-.871-3.47-1.16-7.22-1.741-10.68.29-.29.29-.87.581-1.16.871.58-3.772-1.15-8.124-4.62-10.155-4.62-2.612-10.39-4.643-15.59-1.451-1.15.58-2.02 1.741-2.89 2.611.29-2.321-.28-4.642-2.02-6.963-1.15-1.451-2.31-2.611-4.04-3.192-2.02-.87-4.62-1.45-6.64-.58-.58.29-1.15.58-1.73.58-1.73 0-3.47.581-4.91 1.451-1.15-.87-2.31-1.741-4.04-2.321-.58-.29-1.16-.29-1.73-.29-.29-3.192-1.74-6.093-4.04-8.704-4.05-4.643-10.11-7.254-16.17-6.964-3.18-1.451-6.06-.87-9.24.29-3.18 1.161-5.49 4.352-6.06 7.544-1.74 2.031-2.89 4.642-3.47 7.254-.58-1.451-1.15-2.612-2.31-3.482-3.75-3.482-8.95-4.062-12.99-1.451-1.15.871-2.6 1.451-3.75 2.321-2.6 2.321-3.76 5.513-3.76 8.704v1.161c-1.15.58-2.3.87-3.46 1.161-1.44-2.322-3.46-4.062-5.77-4.643-1.45-.29-2.89-.58-4.33-.87-2.6-.871-5.49-.58-8.09.58-3.75.871-6.93 3.772-8.08 7.544-.58 0-1.16-.29-2.02-.29-4.91 0-9.24 2.321-11.84 6.673-.87 1.741-1.44 3.772-1.44 5.803-1.16 1.16-2.89 2.031-4.91 2.611-2.02.58-4.33 0-5.77-1.451-1.45 1.451-3.76 2.031-5.78 1.161-1.15 1.451-2.89 2.611-4.91 2.611-1.15 0-2.02-.29-3.17-.58-1.16 2.611-4.62 4.352-6.93 1.741-.58-.581-1.16-1.161-1.45-2.031-.28.58-.57 1.45-.86 2.031-2.02 2.321-5.49 2.321-7.22-.29-1.15-1.741-14.72-.291-13.86-1.161-2.59 2.031-5.19.58-6.35-1.741 0 2.321-.29 3.192-.29 4.062Zm85.46 5.223.87.87c-.87-.29-1.74-.58-2.6-.87h1.73Z" fill="#D9E9F1"/><path d="M1283.08 242.949s.29 0 .29.29l-.29-.29Z" fill="#D9E9F1"/><path d="m1267.49 230.473.58.58c.86.581 1.73 1.161 2.31 1.741.57 0 1.15 0 1.73-.29 0-1.451-.58-3.192-1.73-4.642-.87-1.161-2.02-2.031-3.18-2.612.58 2.031.58 3.482.29 5.223ZM1058.18 229.313c.29-.291.58-.581.87-.581.28-2.611 1.44-4.932 3.75-6.963 5.2-4.352 10.97-2.902 14.72.87.29 0 .58-.29.87-.29-.29-1.451 0-2.611.58-4.062 3.46-7.834 9.23-5.512 14.43-.58.87-.29 1.73-.29 2.6 0 0-5.513 3.18-10.735 7.79-13.347 3.18-1.74 6.07-2.321 8.67-1.74 1.44-.871 2.88-1.741 4.9-2.031-.86-3.772-1.44-7.544.58-10.736 2.6-4.352 8.08-5.802 12.99-4.642 2.89.58 5.2 2.321 6.64 4.352 1.16.29 2.31.581 3.47.871 1.73-4.933 5.77-8.995 12.12-9.865 1.45-2.321 3.76-4.352 6.35-5.513 4.91-2.031 10.11-.58 14.44 2.031 8.37-9.284 22.23-3.481 25.12 8.124v.29c3.46-1.741 7.21-1.741 11.54.29 4.91-4.062 9.82-3.771 13.57-.87 11.84-.87 20.5 11.025 16.75 23.211-.29.871-.58 1.741-1.16 2.612.87.29 1.74.58 2.89.87 3.47 0 7.22.87 10.11 3.192 1.15.87 2.02 1.74 2.88 2.611 2.02 0 4.04.58 6.35 1.741 2.03 1.16 3.47 2.321 4.33 4.062.58-2.322.29-4.933-.86-7.254-1.45-2.901-4.04-4.062-6.64-4.352-.29-1.451-.87-2.611-2.02-3.772-2.89-3.482-7.51-4.352-11.26-2.611 0-.29.29-.871.29-1.161 2.31-16.248-10.97-29.884-25.99-31.335-5.19-.58-10.97.58-16.16 2.611-.58-.29-1.16-.29-1.74-.58a25.846 25.846 0 0 0-4.33-8.414c-6.06-7.544-17.61-4.932-21.07 3.772v.29c-4.33-4.932-10.97-6.963-17.32-5.513-7.8 2.031-15.31 8.995-19.92 17.119-1.16-.871-2.31-1.741-3.47-2.031-2.31-.871-4.91-1.451-7.22-1.451-4.62 0-9.24 1.741-12.41 4.932-4.33 4.352-5.77 10.736-4.04 16.248-2.6.58-4.91 1.161-7.51 2.611-3.46 1.741-6.06 4.643-6.93 8.124-.29-.29-.58-.58-.86-1.16-4.05-4.062-10.4-5.803-15.88-3.772-5.49 2.031-9.53 7.544-8.38 13.346h-5.48c-8.37 0-12.99 6.384-12.41 12.477 1.15-.581 2.3-.871 3.17-1.161 0-.29.29-.58.29-.87Z" fill="#fff"/><path d="M1154.03 193.625c-.58-.58-1.16-1.45-1.44-2.031-.29 1.161-.29 2.031-.29 3.192.57.29 1.15.58 1.73.87-.29-.58 0-1.16 0-2.031Z" fill="#D9E9F1"/><path d="M1267.2 225.541c-.29-.871-.58-1.741-1.15-2.612-.29.581-.29 1.451-.87 2.031.87 0 1.44.291 2.02.581Z" fill="#ECF4F8"/><path d="m1054.43 231.343-1.74.871c-1.73-.871-3.75-1.161-6.06-.871-5.48-2.901-11.26-2.611-16.45 1.741-.87.871-1.45 1.741-1.45 2.612-.58.58-1.15 1.16-1.44 2.031-.29 1.16-.29 4.062 1.44 3.771.29 0 .58-.29.58-.58 0-.58 0-.58-.29-1.16-.29-.581-.58-1.161-.29-1.741 0-.29 0-.29.29-.581 0 .291 0 .291.29.581.29-.29.87-.581 1.44-.581 2.02 0 4.33-.58 6.35-.29.58 0 1.16.29 1.45.871.58-1.451 1.73-2.902 3.75-3.192 4.04-.58 8.37-1.16 12.42-1.741-.29-.58-.29-1.16-.29-1.741Z" fill="#fff"/><path d="M1270.38 232.794c-.58-.58-1.45-1.45-2.31-1.741l-.58-.58c.29-1.741.29-3.191-.29-4.932-.58-.29-1.15-.58-2.02-.58.29-.581.58-1.451.87-2.031-.87-1.451-2.31-2.902-4.33-4.062-2.31-1.161-4.34-1.741-6.36-1.741-.86-.871-1.73-1.741-2.88-2.612-2.89-2.321-6.64-3.191-10.11-3.191-.86-.29-1.73-.58-2.89-.87.58-.871.87-1.741 1.16-2.612 3.75-12.186-5.2-24.081-16.75-23.211-3.75-2.901-8.66-3.192-13.56.87-4.33-2.031-8.09-1.74-11.55-.29v-.29c-2.6-11.315-16.46-17.408-25.12-8.124-4.33-2.611-9.53-3.772-14.43-2.031-2.6 1.161-4.91 2.902-6.36 5.513-6.35.87-10.39 4.932-12.12 9.865-1.16-.29-2.31-.581-3.47-.871-1.15-1.741-3.46-3.481-6.35-4.062-4.91-1.16-10.39.29-12.99 4.643-2.02 3.481-1.73 7.253-.58 10.735-1.73.29-3.46.87-4.9 2.031-2.6-.581-5.49 0-8.67 1.741-4.61 2.611-7.79 8.123-7.79 13.346-.87-.29-1.73-.29-2.6 0-5.2-4.932-10.97-7.544-14.43.58-.58 1.451-.58 2.612-.58 4.062-.29 0-.58.29-.87.29-3.75-3.771-9.52-5.222-14.72-.87-2.31 2.031-3.47 4.352-3.75 6.963-.29.291-.58.581-.87.581-.29.29-.58.58-.58.87-1.15.29-2.31.58-3.17 1.161 0 .58 0 1.16.29 2.031-2.89.29-5.78.87-8.38 1.16-2.02-2.901-7.21-2.031-8.66 1.161-1.44-.871-3.17-1.161-4.91-.581-1.15.291-3.17 1.741-3.46 3.192h-.29s0 .29.29.29c0 .29 0 .58.29.871l.29.29c1.15 1.45 3.46 2.031 5.48.58-.29.29 2.6.29 5.78 0 0 .29.28.87.57 1.161.29.58.87 1.16 1.45 1.45 2.02.871 4.33-.29 5.77-1.741h.29c1.73 2.612 5.49 2.612 7.22.291.29-.581.57-1.451.86-2.031.29.58.87 1.16 1.45 2.031 2.31 2.321 5.48.87 6.93-1.741.86.87 2.02 1.741 2.88 2.031.29 0 .58.29.87.29.87.58 2.02.87 3.17.29 1.45-.58 2.89-2.611 2.89-4.352 1.73 0 3.18-.29 4.33-1.451 1.45 1.451 3.76 2.031 5.78 1.451 1.44-.58 2.88-1.161 3.75-1.741.58 1.451 1.15 2.901 2.02 4.062.58.58 1.16-.29 1.16-.87-.87-1.741-1.45-3.482-1.74-5.513 0-.871 0-2.031.29-2.902.29-.58.58-1.45.87-2.03 2.31-4.353 6.93-6.674 11.83-6.674h1.16v4.352c0 .291 0 .581.29.871 0 .58.29 1.16.29 1.741.29 1.16 2.31.58 1.73-.581-2.02-7.543 4.62-12.766 11.26-13.056 4.62-.29 8.08 1.451 11.84 3.772.28.29.57 0 1.15 0 0 .29.29.29.29.58 1.15-.29 2.31-.58 3.46-1.16v-1.161c.29-3.192 1.16-6.383 3.76-8.704 1.15-1.161 2.31-1.741 3.75-2.321 4.04-2.612 9.24-2.031 12.99 1.45l.58.581v2.031c.29 3.191.86 6.093 2.6 8.704.57.87 2.02 0 1.44-1.161l-.87-1.741c-.57-1.45-.86-2.901-1.15-4.642v-2.611c.58-1.741 1.73-3.772 2.89-5.223.86-3.191 2.88-6.383 6.06-7.543 2.89-1.161 5.77-1.741 8.66-.581 0 .291 0 .581.29.581 5.2.29 9.81 1.16 14.15 4.932 5.48 4.933 6.35 11.606 5.77 18.569 0 1.161 1.73 1.741 2.02.58.87-2.321 1.16-5.222.87-7.833 1.15.58 2.31 1.16 3.17 2.031 1.45-.871 3.18-1.451 4.91-1.451.58-.29 1.16-.29 1.73-.58 2.02-.871 4.91-.291 6.64.58 1.73.87 2.89 1.741 4.04 3.191.58.871 1.16 1.741 1.45 2.902.29 2.611-.29 5.513-1.73 8.124-.58 1.16 1.15 1.741 1.73.87 1.15-1.741 1.44-3.772 1.44-5.803.58-.58 1.16-1.16 1.73-1.45 5.2-3.192 10.69-1.161 15.59 1.45 3.47 2.031 5.2 6.093 4.62 10.155.29-.29.87-.58 1.16-.87 3.46-2.031 7.22-1.741 10.68-.29.87.29 1.44.58 2.02.87.29.29.58.29.87.58h-.29c1.15.871 2.31 1.741 3.17 3.192 1.74.29 3.47.58 4.91.29 1.45-.29 3.18-.29 4.33 0 .29-.87.29-2.031.29-2.901.29-1.161-.58-1.161-1.15-.871Zm-116.64-37.138c-.58-.29-1.15-.58-1.73-.87 0-1.161.29-2.031.29-3.192.29.871.86 1.451 1.44 2.031.29.871 0 1.451 0 2.031ZM1302.71 238.887s0-.29-.29-.29c-.58-.87-1.44-1.741-2.31-1.741h-.29c-.86 0-2.02.29-2.59 1.161h-1.16c-.58-1.161-1.44-2.031-2.89-2.612-1.44-.58-3.17.291-3.75 1.741-.58-.87-1.44-1.16-2.6-1.16-1.15 0-2.02.58-2.6 1.16-2.02-3.481-6.92-5.222-10.1-2.321l-1.16 1.161c2.6.87 4.62 2.611 5.78 5.222 1.44.581 2.6 1.161 3.75 2.031l.29.29s-.29 0-.29-.29l.29.29c-.58.581-.58 1.161 0 1.741.29.29.87.29 1.44.29.29 0 .58-.29.58-.58h3.47c.86.58 2.31.871 3.17.58.29 0 .58-.29 1.16-.58h.86c.58-.29.87-.87 1.45-1.451.86.291 2.02.291 3.17 0 1.73.871 3.75-.58 4.04-2.321.87-.87 1.16-1.45.58-2.321Z" fill="#ECF4F8"/><path d="M1059.34 225.251c0-.871-1.16-1.451-1.74-.581-.29.581-.57 1.451-.86 2.031l-.29.29c-1.16 1.451-2.02 3.482-2.31 5.223-.58 0-1.45.29-2.02.58 0 0-.29.29 0 .581.57.87 1.73.58 2.88.58.29 0 .87-.29.87-.871 0-.29.29-.87.29-1.16.29 1.451.58 2.901 1.44 4.062v.29c.58.87 2.02 0 1.45-.87-1.45-3.192-1.45-6.674.57-9.575 0-.29 0-.58-.28-.58ZM1120.54 201.459c-6.64-2.031-14.44-1.451-19.92 3.192-4.62 3.771-7.22 10.735-4.91 16.538.29.58 1.16.29 1.16-.291-.29-13.346 10.97-20.019 22.8-16.538 1.45.291 2.31-2.321.87-2.901ZM1187.52 170.704c-9.82-2.611-18.19 4.352-19.06 13.637-3.75-1.161-8.08-.581-11.26 1.45-3.17 2.031-6.64 6.383-4.61 10.445.28.581 1.15.581 1.15-.29 0-3.772 2.6-6.963 6.06-8.414 3.76-1.451 6.93-.29 10.4.29 1.15 0 2.02-1.45.86-2.031-.29-.29-.57-.58-1.15-.58 1.15-2.901 2.02-5.803 4.33-8.124 3.17-3.772 8.66-4.642 13.28-2.901 3.46 1.16 6.64 3.772 8.95 6.963 2.6 3.772 2.02 7.544 1.15 11.606-.29 1.16 1.16 1.45 2.02.87 7.8-8.414-4.33-20.89-12.12-22.921ZM1238.33 214.515c6.06-4.062 7.22-12.476 4.91-18.859-2.31-6.963-11.55-13.927-19.06-11.896-.57.291-.28 1.161.29 1.161 6.64.29 13.57 4.642 16.17 11.025 2.31 5.513 1.44 13.637-4.33 16.829-4.62-3.772-11.84-4.643-17.61-4.353-1.73 0-1.44 2.612.29 2.612 7.79 0 15.01 2.031 20.21 8.124.57.58 1.44 0 1.15-.581-.58-1.74-1.15-3.191-2.02-4.062ZM1301.84 238.887c-.86-3.482-5.19-3.191-7.79-4.062-1.73-.58-3.18-.58-4.62.29-1.44-.87-2.89-1.16-4.33-.58-2.02-2.321-4.33-4.352-7.79-4.352-1.74 0-3.18.58-4.05 1.451a12.744 12.744 0 0 0-3.17-2.321h-.58c.58-1.741-.29-4.353-1.15-5.803-1.16-2.321-3.18-4.352-5.78-4.643-.58 0-.86.581-.58 1.161 1.74 1.451 3.47 2.611 4.33 4.642.29.871.58 2.031.58 2.902 0 1.16-.29 1.741.29 2.611.29.29.58.29.87.29 0 0 0 .29.29.29.86 1.161 1.73 2.321 3.17 3.482-1.73-.29-4.04-.58-5.77.29-.58.29-.29 1.161.29 1.451 1.73.29 3.46 0 5.19.29h.29c.29.29.87.29 1.16.29 1.44.29 3.17.87 4.62 1.741.28.29.86-.29.57-.58-1.15-1.161-2.31-1.741-3.46-2.612 1.73-1.16 3.75-.58 5.77.581.58.29.87 0 1.16-.291.57.581 1.15 1.161 1.73 2.031.58.581 1.44.871 2.02.291h2.6c.58.87 1.73.87 2.31 0 .29-.291 8.66 1.16 8.66 2.031 1.15 2.031 3.75.87 3.17-.871Z" fill="#fff"/><path d="m1279.04 239.467-.29-.29c-1.16-1.741-2.89-2.901-4.62-3.481-2.89-.871-6.93-1.161-9.53.58-.29.29-.29 1.16.29 1.16 4.04 0 10.97-.87 12.42 4.353.28 1.45 2.31.87 2.31-.581-.29-.58-.29-1.16-.58-1.741Z" fill="#ECF4F8"/></g><g clip-path="url(#d)"><path opacity=".75" d="M249.618 35.488c-.039-.31-.011-1.162.744-1.344.77-.152 2.136-.739 2.583-1.027.417-.275 8.873-5.157 9.647-5.604.774-.446 5.031-2.865 5.404-3.155.404-.304.809-.755 1.354-.69.53.037.835.364 1.007.646.143.295.712.64.96.85.233.179.768.832.835 1.274.067.442.002.765-.17 1.395-.157.587-.029.927-.214 1.38-.184.454-.551.376-.894.578-.342.201-.861.342-1.277.543-.416.2-6.59 3.508-7.886 4.316-1.266.793-3.845 2.512-4.785 3.147-.939.636-2.026 1.27-2.578 1.646-.551.375-1.224.955-1.943.682-.718-.274-1.792-2.272-2.134-3.056-.356-.813-.653-1.581-.653-1.581Z" fill="#FFC327"/></g><g clip-path="url(#e)"><path opacity=".75" d="M225.013 23.776c-.222-.22-.725-.909-.242-1.517.512-.594 1.227-1.898 1.402-2.4.16-.474 3.813-9.528 4.148-10.357.335-.828 2.198-5.356 2.314-5.814.13-.488.172-1.093.641-1.377.44-.298.882-.228 1.191-.112.295.145.956.066 1.28.078.294-.002 1.118.183 1.443.49.325.307.473.6.725 1.203.238.559.547.748.682 1.219.134.47-.204.636-.349 1.006-.146.37-.467.8-.671 1.214-.205.415-3.031 6.823-3.554 8.258-.509 1.405-1.482 4.347-1.831 5.427-.348 1.08-.814 2.248-1.017 2.884-.203.635-.376 1.507-1.111 1.734-.734.227-2.811-.686-3.563-1.092a44.827 44.827 0 0 1-1.488-.844Z" fill="#FFC327"/></g><g clip-path="url(#f)"><path opacity=".75" d="M198.888 24.82c-.306-.057-1.109-.344-1.052-1.118.089-.78-.053-2.26-.191-2.773-.134-.481-2.205-10.023-2.395-10.897-.189-.873-1.194-5.665-1.356-6.109-.167-.476-.472-1-.244-1.499.196-.494.6-.684.921-.763.325-.045.828-.483 1.102-.654.242-.168 1.028-.478 1.469-.407.441.071.729.23 1.277.587.511.328.873.31 1.249.625.376.313.189.64.277 1.027.088.388.064.925.128 1.382.064.458 1.331 7.346 1.705 8.827.37 1.448 1.22 4.428 1.539 5.517.319 1.088.591 2.316.78 2.956.19.64.537 1.458.058 2.059-.48.6-2.711 1.014-3.561 1.1-.883.091-1.706.14-1.706.14Z" fill="#FFC327"/></g><g clip-path="url(#g)"><path opacity=".75" d="M174.609 36.2c-.285.126-1.11.343-1.501-.328-.367-.693-1.32-1.834-1.725-2.18-.383-.32-7.486-7.02-8.136-7.633-.65-.613-4.188-3.997-4.573-4.272-.407-.299-.955-.558-1.049-1.098-.117-.519.109-.904.329-1.15.242-.222.41-.867.539-1.164.105-.274.577-.975.981-1.165.405-.191.732-.222 1.385-.238.607-.018.896-.237 1.384-.191.487.046.518.42.809.69.292.271.575.727.887 1.068.312.341 5.252 5.307 6.397 6.316 1.124.986 3.51 2.963 4.389 3.68.878.718 1.797 1.578 2.315 1.998.518.421 1.267.9 1.211 1.666-.055.766-1.662 2.369-2.314 2.92-.677.575-1.328 1.08-1.328 1.08Z" fill="#FFC327"/></g><g clip-path="url(#h)"><path opacity=".75" d="M166.772 59.556c-.112.291-.542 1.028-1.293.829-.749-.232-2.23-.365-2.761-.324-.497.043-10.257.32-11.151.345-.893.025-5.788.13-6.254.208-.499.075-1.07.28-1.518-.037-.45-.284-.562-.716-.58-1.046.015-.328-.323-.902-.441-1.204-.12-.268-.28-1.098-.129-1.518.152-.421.362-.674.813-1.147.416-.441.466-.8.844-1.112.377-.312.664-.069 1.061-.083.397-.015.92.107 1.382.129.461.02 7.465.045 8.989-.05 1.492-.096 4.578-.382 5.706-.495 1.129-.113 2.386-.154 3.05-.222.664-.069 1.532-.26 2.034.323.502.582.497 2.85.425 3.702a43.86 43.86 0 0 1-.177 1.702Z" fill="#FFC327"/></g><g clip-path="url(#i)"><path opacity=".75" d="M178.577 81.302c.088.3.194 1.146-.523 1.445-.736.272-1.993 1.066-2.389 1.421-.369.337-7.95 6.49-8.644 7.053-.694.563-4.517 3.622-4.84 3.967-.35.363-.679.873-1.228.894-.529.048-.881-.227-1.096-.478-.187-.27-.804-.521-1.082-.688-.258-.14-.89-.702-1.025-1.128-.135-.426-.123-.755-.052-1.404.063-.604-.117-.92-.006-1.396.11-.477.485-.458.792-.711.306-.254.796-.474 1.175-.738.38-.264 5.956-4.502 7.108-5.504 1.126-.983 3.402-3.087 4.23-3.862.827-.776 1.801-1.573 2.286-2.03.486-.459 1.059-1.137 1.812-.98.752.156 2.128 1.96 2.588 2.68.48.748.894 1.46.894 1.46Z" fill="#FFC327"/></g><g clip-path="url(#j)"><path opacity=".75" d="M196.93 86.48c.246.192.825.819.415 1.48-.44.648-1 2.026-1.115 2.545-.104.489-2.688 9.905-2.925 10.766-.237.862-1.565 5.574-1.627 6.043-.073.499-.045 1.105-.478 1.441-.403.347-.849.329-1.17.25-.31-.111-.957.044-1.28.07-.292.036-1.132-.053-1.49-.32-.358-.268-.539-.543-.86-1.112-.3-.528-.63-.68-.817-1.132-.188-.452.128-.655.23-1.039.102-.384.372-.849.527-1.284.155-.436 2.222-7.127 2.576-8.613.344-1.454.971-4.49 1.192-5.602.222-1.112.549-2.327.678-2.982.128-.655.199-1.54.903-1.85.703-.311 2.871.355 3.665.673.825.329 1.576.666 1.576.666Z" fill="#FFC327"/></g><g clip-path="url(#k)"><path opacity=".75" d="M221.775 82.68c.31.027 1.137.235 1.155 1.012-.014.784.27 2.244.457 2.742.18.466 3.16 9.764 3.432 10.615.272.851 1.734 5.524 1.938 5.95.212.458.566.95.387 1.469-.147.51-.532.739-.843.848-.32.076-.778.56-1.034.758-.225.189-.977.574-1.423.545-.446-.028-.748-.159-1.328-.461-.539-.278-.898-.225-1.303-.501-.404-.277-.25-.619-.374-.997-.125-.377-.153-.914-.261-1.363-.108-.449-2.032-7.183-2.547-8.621-.507-1.406-1.64-4.29-2.062-5.344-.422-1.052-.811-2.249-1.062-2.867-.25-.62-.674-1.4-.255-2.044.42-.644 2.6-1.27 3.439-1.438.87-.175 1.684-.303 1.684-.303Z" fill="#FFC327"/></g><g clip-path="url(#l)"><path opacity=".75" d="M243.89 76.22c.305-.067 1.157-.114 1.404.622.22.753.925 2.062 1.252 2.482.31.391 5.92 8.383 6.433 9.115.513.731 3.298 4.758 3.619 5.105.339.374.824.738.806 1.287.012.531-.288.863-.553 1.06-.282.168-.575.766-.762 1.031-.158.248-.761.839-1.196.944-.434.106-.761.07-1.404-.046-.598-.104-.926.053-1.394-.09-.468-.144-.423-.517-.654-.84-.231-.324-.417-.828-.654-1.225-.236-.397-4.076-6.254-4.995-7.474-.902-1.192-2.841-3.609-3.557-4.489-.716-.88-1.444-1.906-1.867-2.422-.422-.517-1.06-1.136-.851-1.875.209-.74 2.105-1.987 2.855-2.396.779-.426 1.518-.79 1.518-.79Z" fill="#FFC327"/></g><g clip-path="url(#m)"><path opacity=".75" d="M255.672 57.216c.229-.212.94-.683 1.527-.174.57.538 1.841 1.31 2.335 1.506.466.18 9.35 4.231 10.163 4.602.813.372 5.254 2.434 5.707 2.57.481.151 1.084.22 1.346.701.279.453.19.89.06 1.194-.158.288-.108.953-.134 1.276-.011.293-.233 1.109-.554 1.42-.321.31-.621.445-1.234.671-.569.213-.771.514-1.248.627-.476.113-.626-.231-.989-.393s-.779-.502-1.184-.724c-.405-.223-6.682-3.33-8.092-3.916-1.381-.57-4.278-1.673-5.341-2.069-1.063-.395-2.21-.913-2.836-1.144-.626-.23-1.489-.442-1.683-1.186-.195-.743.809-2.778 1.249-3.511.455-.762.908-1.45.908-1.45Z" fill="#FFC327"/></g><g clip-path="url(#n)" fill="#FFC327"><path opacity=".75" d="M208.986 34.866c1.086 0 1.576.138 2.277.138.7 0 .946-.138.946-.346 0-.208-.561.07 0-.208.56-.278.56-.278.56-.555s.701-.346.421-.624c-.281-.277-.351-.624-.351-.624s.211 0 .211-.485-.281-.866-.771-1.005c-.491-.139-3.293-1.213-5.43-.624-2.137.555-7.813 2.496-10.51 4.125-2.733 1.56-10.265 7.59-12.683 10.433-2.452 2.807-5.43 7.694-6.236 11.195-.77 3.466-.28 7.972.631 10.329l.946 2.322s-.841-6.135-.07-9.046c.771-2.912 1.226-3.674 1.436-4.055.21-.347.771-1.838 1.367-2.773.56-.902 4.063-5.442 5.78-7.002 1.717-1.56 5.641-5.026 8.093-6.516 2.417-1.49 5.885-3.189 8.163-3.813 2.277-.624 5.22-.866 5.22-.866ZM204.221 77.186c.14-.034.49-.069.735-.069.246 0 .596-.035.771-.035.175 0 .21.07.35-.034.141-.104.176-.035.316-.035s.56-.035.7-.035c.141 0 .071-.138.176-.138.14 0 .14 0 .455-.035s.385 0 .596-.035c.175-.034.385-.069.385-.034.035.07-.035.07-.14.07-.105.034-.35.034-.491.068-.105.035-.21.035-.385.035-.175-.035-.175.104-.315.104s-.421.035-.631.07c-.21.034-.35 0-.49.034-.14.035-.246.104-.421.07-.175-.035-.525.034-.7.034-.176 0-.246-.035-.491 0s-.245.035-.455.07c-.14 0 .035-.105.035-.105ZM210.071 76.493c.245 0 .911-.138 1.191-.208.28-.069.455-.104.596-.104.14-.034.245-.069.28 0 .035.07 0 .139-.21.174-.211.034-.176.034-.386.034-.21 0-.35.07-.525.07-.175 0-.351.069-.456.069-.105.035-.07 0-.21.035-.14 0-.385-.07-.28-.07ZM212.734 76.077c.105 0 .596-.069.806-.138.245-.07.631-.139.806-.173.175-.035.385-.07.77-.174.351-.104.666-.104.911-.173.246-.07.246-.104.526-.173.315-.07.736-.104.595-.035-.105.07-.28.104-.49.173-.245.07-.561.243-.736.243-.14 0-.525 0-.63.07-.105.069-.386.138-.561.172-.175.035-.28.035-.56.104-.281.07-.351.07-.491.14-.14.068-.175.103-.385.103-.21.035-.316.035-.526.035-.175-.035-.035-.174-.035-.174Z"/><path opacity=".75" d="M244.649 49.527c0 2.184-1.716 6.378-3.293 8.284-1.576 1.906-5.885 5.234-9.739 7.002-3.854 1.767-16.045 6.03-24.418 6.654-8.373.624-15.03-.069-21.546-2.564-6.516-2.427-8.268-11.855-8.443-11.3-.385 1.144-.21 5.754.35 7.695.561 1.906 1.577 4.471 3.539 6.343 1.997 1.871 4.239 3.05 4.939 3.292.736.243 2.663 1.006 3.153 1.075.491.07 1.367.347 2.137.45.806.14 2.418.416 3.469.486 1.051.07 2.872.242 3.643.242.771 0 4.379.07 4.73.07.35 0 .175-.208-.07-.208-.246 0-.876.138-1.682.07-.806-.036-1.997-.036-2.417-.036-.421 0-2.453-.173-2.838-.208-.385-.034-2.698-.346-3.293-.38-.596-.035-2.417-.451-2.698-.486-.28-.035-.56-.277-.35-.381.21-.07.771 0 1.191.173.42.173 1.612.381 2.452.485.841.139 2.733.45 3.854.416 1.086-.034 4.029.035 4.344.035.351 0 .386.034.631.034s.385-.034.35-.277c-.035-.242.491-.208.946-.208.42 0-.035.174.385.278.421.138.666-.035 1.227-.07.56-.034.42-.173.595-.173s.14-.277.491-.347c.385-.034.876.035.595.07-.28.034-.385.242.07.242.456 0 .421-.034.946-.138.491-.07.806-.07 1.156-.208.351-.139.421.034.876.034.456 0 1.577-.381 2.067-.381.491 0 .491-.07.806-.173.28-.07.455-.07.771-.139.28-.035.385 0 .805-.139.421-.138.596-.277 1.262-.38.665-.07 0 0 .14 0s1.226-.278 1.506-.347c.28-.035.561-.035.386-.174-.176-.138.07-.277.35-.346.245-.035.666-.347.946-.347.245 0 0 .243-.456.381-.455.139-.49.347-.245.243.245-.07.631-.173 1.261-.381.631-.208 1.191-.208 1.402-.278.21-.069.14-.208.14-.38 0-.174.35-.07.595-.209.246-.139.596-.173 1.016-.277.421-.139 1.016-.243.666-.139-.35.139-.14.277.21.208.351-.07.386-.208.596-.243.21-.034.21-.034.21-.277 0-.242.35-.07.455.07.141.173.421-.14.806-.486.35-.346 0 0 .21-.069.211-.07.351-.139.701-.208.35-.07.35.07.561-.07.21-.138.35-.346.7-.415.351-.07.631.07.946-.07.28-.138.946-.346 1.927-1.005 1.016-.624 6.726-3.535 7.217-3.743.49-.208.42-.555.56-.763.141-.208.631-.138.631-.138l.49-.555c.491-.554.211-.485.421-.866.21-.347.35.138.701-.139.35-.277.63-.867 1.436-1.906.771-1.075 1.296-2.704 1.296-2.704 2.453-6.481 1.226-9.6 1.226-9.6Zm-11.245 15.667c-.946.45-3.013 1.42-3.434 1.594-.42.174-.84.139-.981.277-.14.174-.385.208-.56.278-.175.07-.491.173-.806.346-.28.174-2.207.867-3.083 1.179-.876.277-4.274 1.282-5.08 1.56-.806.242-3.013.762-3.888.866-.876.139-.841.277-1.192.381-.35.07-.035.243-.385.243s-1.576.277-1.997.347c-.42.034-.666 0-.981 0-.28 0-.771 0-.876.034-.14.035-.42.139-.63.173-.21.035-.666.035-1.717.174-1.051.138-2.452.07-2.242.034 0 0 4.309-.589 4.8-.623.49-.035 6.446-1.387 7.181-1.456.701-.07 6.937-1.872 9.004-2.669 2.067-.797 5.71-2.426 6.972-3.05 1.261-.624 1.611-.832 1.611-.832s-.806.693-1.716 1.144Z"/><path opacity=".75" d="M241.041 43.288c-2.592-2.357-3.538-3.015-3.889-3.223a193.74 193.74 0 0 0-2.382-1.352c-.28-.173-1.752-.936-1.752-.936s-3.153-1.282-3.678-1.49c-.491-.208-4.519-1.56-7.497-2.045-2.978-.485-4.94-.832-6.236-.832-1.296 0-1.787-.104-2.453-.104-.665 0-9.038.59-10.965.936-1.927.346-5.36.936-6.131 1.109-.806.173-4.834 1.629-5.535 1.906-.666.278-3.959 2.461-4.274 2.67-.351.207-1.647 1.663-1.962 2.183-.35.485-.736 1.49-.841 2.114-.105.624-.21 3.674 0 4.575.28 1.075.105 1.768.35 2.115.211.346.561.207.806.554.21.347.456.45.666 0 .21-.45 1.016-1.005 1.016-1.56 0-.554.105-2.218.105-2.218s.455-2.565 1.681-3.223c1.227-.659 10.125-3.12 11.491-3.57 1.367-.451 9.46-1.664 11.386-1.664 3.153 0 9.004.45 14.434 1.768 3.048.762 9.985 3.916 11.771 5.233 1.787 1.352 4.345 3.917 4.905 5.477.561 1.56 1.226 4.228 1.016 6.135-.21 1.906 0 2.357.561 1.005.56-1.352 1.366-4.575 1.366-6.482 0-1.975-1.366-6.758-3.959-9.08Zm-13.208-6.1c-1.015-.381-3.993-1.11-4.449-1.213-.455-.104-2.382-.45-3.258-.624-.911-.173-2.592-.381-3.889-.45-1.296-.07-2.697-.174-3.503-.174s-1.927-.104-2.242-.104c-.35 0 .455-.07.56-.104.316-.139 2.663-.104 2.943-.104.281 0 3.539.347 3.959.347.385 0 4.449.658 4.449.658.911.07 5.641 1.56 6.131 1.768.456.242.315.416-.701 0Zm4.31 1.906s-.316-.242-.526-.346c-.21-.139-.525-.243-.771-.382-.245-.138-.595-.38-.595-.38.175.068 1.226.45 1.471.623.21.139.771.555.421.485Z"/></g><circle cx="307" cy="344" r="24" fill="#FA8D8D" fill-opacity=".51"/><circle cx="199" cy="219" r="5" fill="#87A3E3"/><circle cx="1210" cy="63" r="5" fill="#87A3E3"/><g clip-path="url(#o)"><path d="M1153.43 460.059c-3.4-1.717-7.32-1.443-11-1.167-9.68.737-19.4.407-29.02-1.028-.54-.072-.89.244-1.03.666-2.6 1.823-4.85 4.628-6.15 7.464-1.67 3.664 2.34 5.318 5.21 6.12 3.67 1.026 7.54 1.063 11.31.855 4.2-.202 8.39-.554 12.55-.905 4.34-.368 8.68-.787 13-1.358 1.89-.245 3.84-.445 5.72-.892 1.37-.32 2.77-.947 3.48-2.244 1.66-3.026-1.56-6.264-4.07-7.511Z" fill="#CD9975"/><path d="M1113.37 457.715c-2.17.554-4.01 2.578-5.4 4.225-.76.868-1.41 1.801-2.02 2.782-.51.817-1.31 1.766-.97 2.752.08.272.35.448.61.498.05.02.91.136.96.105 1.3-1.765 3.41-4.659 4.03-5.359 1.26-1.455 2.9-2.719 3.99-4.285.23-.303-.87-.802-1.2-.718ZM1155.97 461.174c-1.05-1.039-2.58-2.438-4.18-2.325-.46.022-1.59.699-1.31.95 1.54 1.245 3.33 3.024 4.3 3.971.91.9 1.54 1.295 2.75 1.809.27.125.66-.043.7-.378.18-1.523-1.23-3.01-2.26-4.027Z" fill="#815950"/><path d="M1097.11 411.475c-.03-1.806-.43-4.443-1.61-6.208-1.09-3.382-5.75-5.682-8.9-6.635-3.19-.947-6.53-.988-9.52.238-.5.152-.97.328-1.36.496-3.55 1.562-6.26 4.669-7.71 8.235-.29.692-.5 1.377-.7 2.112-3.12 8.35 3.16 18.924 12.91 19.786 6.02.556 12.04-2.917 14.71-8.29 1.5-2.907 2.26-6.453 2.18-9.734Z" fill="#F4C882"/><path d="M1095.65 403.517c-6.82-7.153-13.96-6.089-14.11-6.074-2.6.088-5.26.922-7.23 2.654-1.58 1.359-3.12 3.532-2.04 5.588.28.532 1.14.878 1.66.492 5.86-4.042 14.45-4.413 19.47 1.115.9.979 3.32-3.094 2.25-3.775Z" fill="#FDE5C7"/><path d="M1091.59 412.781c-1.03-3.005-4.97-4.207-7.94-4.234-3.3-.018-7.09 2.282-8.38 5.398-.97 2.342-.27 5.177 1.97 6.273 6.42 3.956 9.98-3.827 11.27.987.3 1.167 1.22 1.175 1.6.167.9-2.489 1.49-4.997 1.81-7.63.06-.414-.08-.757-.33-.961Z" fill="#D39C53"/><path d="M1098.35 407.881c-1.54-6.803-7.83-11.511-14.78-11.819-7.35-.317-14.2 4.082-17.04 10.798-2.87 6.77-1.37 15.157 4.3 20.032 2.89 2.483 6.55 3.433 10.32 3.455 3.43.031 9.92-2.318 12.52.807.07.095.21-.021.17-.12-2.93-4.875-10.45-2.064-15.1-2.913-7.28-1.37-11.86-8.574-11.11-15.739a15.416 15.416 0 0 1 13.29-13.678c7-.921 13.22 3.541 16.3 9.574.32.63 1.28.251 1.13-.397Z" fill="#815950"/><path d="M1085.36 407.504c-2.7-.411-5.46.228-7.61 1.953-1.77 1.431-3.5 4.056-2.85 6.412.08.272.45.336.6.091 1.06-1.613 1.67-3.205 3.2-4.509 1.96-1.629 4.49-2.169 6.95-1.605 4.88 1.131 7.73 5.734 8.22 10.502.02.202.32.146.36-.036.88-5.903-2.63-11.842-8.87-12.808Z" fill="#815950"/><path d="M1166.04 423.76c2.29 5.528 8.04 9.425 14.07 9.317 9.76-.185 16.82-10.291 14.33-18.832-.13-.726-.31-1.448-.53-2.138-1.19-3.651-3.66-6.943-7.09-8.758-.38-.19-.84-.398-1.32-.604-2.89-1.438-6.21-1.658-9.47-.916-3.2.711-8.02 2.683-9.37 5.983-1.29 1.662-1.89 4.299-2.06 6.076-.31 3.244.19 6.839 1.44 9.872Z" fill="#F4C882"/><path d="M1166.64 406.056c7.33-6.667 14.38-5.095 14.53-5.085 2.59.27 5.15 1.307 7.01 3.157 1.45 1.482 2.84 3.737 1.63 5.721-.33.519-1.2.786-1.7.379-5.55-4.453-14.1-5.438-19.51-.269-.98.917-3.06-3.307-1.96-3.903Z" fill="#FDE5C7"/><path d="M1170.02 415.576c1.26-2.934 5.24-3.852 8.23-3.648 3.3.222 6.91 2.783 7.96 5.991.79 2.418-.14 5.164-2.45 6.114-6.68 3.49-9.68-4.539-11.29.19-.4 1.137-1.33 1.079-1.61.037a32.915 32.915 0 0 1-1.23-7.752c-.05-.429.12-.752.39-.932Z" fill="#D39C53"/><path d="M1163.63 410.214c2.03-6.659 8.66-10.933 15.59-10.726 7.37.187 13.87 5.08 16.21 11.978 2.36 6.974.26 15.22-5.76 19.687-3.07 2.278-6.79 2.966-10.56 2.714-3.43-.235-9.73-3.03-12.55-.089-.07.083-.21-.03-.14-.114 3.29-4.645 10.57-1.313 15.27-1.846 7.37-.857 12.45-7.727 12.23-14.894a15.345 15.345 0 0 0-12.25-14.577c-6.91-1.408-13.46 2.604-16.96 8.394-.36.546-1.27.104-1.08-.527Z" fill="#815950"/><path d="M1176.61 410.744c2.75-.23 5.44.615 7.45 2.474 1.67 1.537 3.21 4.312 2.37 6.59-.1.266-.48.305-.61.063-.94-1.663-1.42-3.322-2.87-4.729-1.81-1.751-4.32-2.463-6.81-2.08-4.97.764-8.13 5.167-8.95 9.892-.03.207-.32.109-.34-.067-.46-5.945 3.44-11.622 9.76-12.143Z" fill="#815950"/><path d="M1175.39 430.042c-.76-5.199-2.33-10.24-4.39-15.077-2.06-4.863-4.62-10.337-8.43-14.076-.03-.023-.06-.045-.08-.043-1.47-2.118-3.16-4.061-5.03-5.578-1.77-1.781-3.82-3.305-5.89-4.495-4.11-2.383-10.18-4.463-15.29-3.607.64-.424 1.31-.9 1.95-1.374 2.05-1.51 5.63-3.56 5.56-6.51-.06-2.289-2.32-3.408-4.33-2.539-1.55.668-2.78 2.095-4.03 3.192-1.15 1.035-2.43 2.008-3.49 3.188 1.45-2.137 1.82-5.465 1.97-7.749.21-2.979-1.63-4.473-4.66-3.78-3.18.734-2.35 4.32-1.85 6.666.48 2.169.51 4.256-.08 6.433-.08.288-.2.581-.32.874-1.62 1.211-3.35 2.027-5.47 2.396-2.58.495-5.21.611-7.73 1.456-4.51 1.508-8.41 4.432-11.61 7.896-5.23 5.661-10.62 13.097-12.55 20.969-1.09 2.84-1.78 5.893-2.25 8.567-.86 4.78-1.8 10.638.23 15.223.1.22.27.355.48.435.22.156.51.153.75.051.22-.074.44-.198.57-.415.15-.271.3-.567.43-.834-.33 2.481 1.49 6.017 2.43 7.73.44.797 1.56.682 1.94-.02 1.37 2.103 2.92 3.984 5.06 5.626 1.42 1.103 2.99 1.962 4.63 2.687.91.391 1.75.61 2.56.757 1.19.617 2.43 1 3.62 1.032.61.013 1.04-.796.56-1.231-1.3-1.243-3.11-1.899-4.63-2.917-1.78-1.219-3.39-2.61-4.81-4.223a24.603 24.603 0 0 1-5.85-12.097c-.92-5.31-.13-10.772 1.34-15.919.66-2.312 1.45-4.611 2.54-6.762.32-.619.66-1.215 1.04-1.789 1.79-2.249 3.4-4.581 5.67-6.42 2.39-1.927 5.16-3.309 8.19-3.976 3.49-.74 7.35-.524 10.5 1.269 2.83 1.622 3.71 4.209 5.62 6.588.32.401 1.13.242 1.23-.278.01-.129.02-.233.04-.361.14-.092.28-.183.4-.272.84-.595 1.52-1.43 2.32-2.073a18.98 18.98 0 0 1 4.49-2.729c3.08-1.362 6.59-1.899 9.9-1.271 3.06.579 5.96 2.143 8.18 4.338 1.43 1.409 2.24 3.11 3.2 4.745.29.761.64 1.49.89 2.203.98 2.526 1.96 5.052 2.76 7.622.68 2.198 1.25 4.461 1.64 6.741.43 2.454.38 4.983.78 7.44-.38 4.476-1.5 8.773-4.22 12.543-3.04 4.239-7.77 7.63-12.85 8.992-.9.245-.56 1.511.32 1.37 4.49-.69 8.86-1.75 12.6-4.479 1.64-1.213 3.32-2.788 4.5-4.591.29.658 1.39.826 1.78.123.53-1.023 2.05-3.652 2.9-6.161.25.459.57.834 1.02.966 1.22.436 1.97-.788 2.41-1.726 2-4.437 1.52-10.15.84-14.746Z" fill="#CD9975"/><path d="M1159.97 414.439a.226.226 0 0 0-.27-.1c-.06-.07-.09-.169-.15-.239-1.19-1.892-2.82-4.479-4.86-5.927a13.804 13.804 0 0 0-4.59-2.818c-3.86-1.415-8.12-1.004-11.84.652-2.74 1.225-6 3.37-7.3 6.256-1.06-4.379-5.52-7.389-9.87-8.166-6.23-1.095-12.77 1.819-17.46 5.792-5.06 4.293-7.68 11.751-9 18.057-1.31 6.202-.93 12.97 2.53 18.429 1.49 2.37 3.32 4.172 5.41 5.614 3.18 4.085 9.28 6.136 13.97 7.16 6.92 1.509 14.37 2.325 21.44 1.78 6.53-.491 12.96-2.451 18.3-6.287 3.82-2.737 8.19-7.495 8.55-12.528.17-.579.29-1.152.4-1.776 2.35-8.603-.47-18.869-5.26-25.899Z" fill="#F4C882"/><path d="M1155.1 442.677c-.11 3.148-2.78 5.614-5.94 5.504a5.72 5.72 0 0 1-5.52-5.909c.11-3.148 2.78-5.614 5.94-5.504 3.16.134 5.64 2.762 5.52 5.909Z" fill="#FFA48F"/><path d="M1138.4 444.059c-.04-.099-.14-.139-.24-.078-1.26.996-1.69 2.748-2.77 3.93-1.47 1.63-3.46 2.751-5.65 2.899-2.41.171-4.32-.959-5.77-2.825-.41-.544-2.91-3.704-2.59-4.349.02-.053-.01-.101-.06-.095-1.79.515-.38 3.302.13 4.295 1.28 2.52 3.42 4.596 6.26 5.145 2.67.517 5.48-.281 7.52-2.071 1.65-1.444 3.97-4.562 3.17-6.851Z" fill="#815950"/><path d="M1128.45 459.942c-7.02-.555-14.83-3.528-19.87-8.543-5.1-5.06-6.76-11.978-6.61-18.98.09-4.598.9-8.99 2.85-12.912 1.55-1.613 2.4-3.791 3.95-5.453a17.843 17.843 0 0 1 5.62-4.095c2.22-1.044 4.7-1.654 7.16-1.626 1.28.021 2.58.194 3.78.658.98.383 1.77 1.067 2.79 1.294.11.015.2-.046.22-.15.07-1.257-.84-2.158-1.97-2.755a4.473 4.473 0 0 0-1.72-1.252c-1.76-.916-4.04-1.242-5.8-1.368-3.36-.294-6.77.337-9.77 1.868-3.18 1.627-6 4.134-8.28 6.866-.82.977-1.66 2.057-2.33 3.222-1.52 2.4-2.53 5.333-3.12 7.586-1.34 4.93-1.85 10.439-.84 15.461.92 4.749 3.63 8.754 7.33 11.843 2.07 1.725 4.39 3.119 6.82 4.298 1.13.547 2.28 1.091 3.48 1.529.75.281 1.4.418 2.08.527 4.36 1.872 9.18 2.423 14.28 2.207.1-.011.11-.215-.05-.225Z" fill="#E5B46C"/><path d="M1165.58 431.226c-.07-.885-.18-1.791-.36-2.742-1.16-6.612-4.49-14.557-9.94-19.021-2.89-2.788-6.58-4.551-11.19-4.563-.05.005-.09.111-.02.104 13.69 2.625 18.37 19.124 16.95 31.152-1.52 12.649-11.68 21.517-23.55 23.626-2.27.259-5.47.281-7.43.43-.05.006-.04.107.01.127 3.06 1.114 6.94.487 10.1.061a36.01 36.01 0 0 0 3.37-.575c2.24-.383 4.42-1.141 6.54-1.945 3.84-1.44 7.19-3.236 9.86-6.391 4.3-5.081 7.11-13.375 5.66-20.263Z" fill="#FDE5C7"/><path d="M1138.74 431.658c-.44-.746-1.19-1.382-1.96-1.66-1.86-.651-3.7.15-5.46.687-1.96.609-3.23.025-4.98-.79-.8-.376-1.61-.727-2.51-.763-2.18-.082-5.38 3.178-2.84 5.773.21.209 1.15-1.061 1.14-1.391.01-.205 5.51 1.985 8.66 1.993 1.15.01 2.27-.309 3.32-.799.07-.033.15-.066.22-.125 1.02-.053 2.01-.053 3.03-.132.07.222.13.471.18.721.15.724.65 1.081 1.11.6 1.17-1.318 1.09-3.12.09-4.114Z" fill="#E5B46C"/><path d="M1137.33 434.403c-.93-1.052-2.67-1.358-3.92-.796-.2.096-.85.52-1.31 1.001-.57.135-1.17.324-1.76.308-.54.004-1.07-.197-1.58-.425-.27-.355-.69-.54-1.34-1.111-.98-.843-2.38-1.515-3.67-1.027-1.45.532-2.04 2.3-1.82 3.705.14.853.66 1.641 1.3 2.187.28.226.86.422 1.08-.008.26-.639-.59-2.694 1.25-3.214.48-.125.97.207 1.42.543.2.209.42.365.66.518.03.023.06.02.09.043.73.46 1.61.727 2.51.813 1.06.095 2.63-.346 3.27-1.304l.3-.107c.27-.079 1.31.274 1.31.834-.01.588-.04.616-.32 1.104-.44.708-.54 1.177-.44 1.982.02.177.21.26.36.244.56-.057.91-.094 1.36-.496.49-.458.9-.985 1.22-1.553.5-.943.84-2.33.03-3.241Z" fill="#FDE5C7"/><path d="M1126.49 432.327c-1.29-.607-2.93-.872-4.16.07-2.14 1.622-1.65 5.701 1.17 6.178.07.017.14-.117.08-.162-1.18-1.281-1.95-4.542.28-5.255 1.02-.334 2.17.185 3.04.682.17.086 1.15.724 1.32.4.38-.854-1.22-1.659-1.73-1.913ZM1137.51 433.211c-.94-.719-2.13-.852-3.24-.432-.89.321-2.26.971-2.54 1.968-.05.235.13.497.38.421 1.32-.34 2.38-1.469 3.88-1.087 2.05.504.79 3.438 0 4.488-.05.055.04.148.11.115 1.13-.548 1.97-1.043 2.46-2.266.43-1.089-.16-2.533-1.05-3.207Z" fill="#815950"/><path d="M1127.76 438.239c-.04-1.143-.9-2.508-1.11-2.818-.33-.476-1.08-.577-1.57-.323-.68.325-.88 1.085-.61 1.745.27.661.7 1.076 1.27 1.45.28.201.53.405.83.553.11.04.22.106.3.148.21.131 1.09.449.89-.755ZM1135.34 436.264a1.231 1.231 0 0 0-1.64-.571c-.61.292-.97 1.017-1.28 1.558-.28.488-.65 1.113-.59 1.693.03.328.36.499.65.571.57.12 1.47-.38 1.92-.707.77-.537 1.4-1.597.94-2.544Z" fill="#815950"/><path d="M1135.33 379.385c-.86 1.133-4.75 5.892-5.16 5.883-.41-.009-.34-.832-.18-1.716.33-1.563.29-3.14.08-4.725-.36-2.563-1.98-6.043 1.53-7.32.05-.006.04-.081-.01-.101-3.08-.297-4.95.456-4.57 3.425.33 2.44 1.03 6.269.44 8.726-.42 1.649-1.53 2.809-2.31 4.214-4.17-.49-9.19 1.554-12.77 3.273-4.3 2.047-8.21 4.92-11.52 8.319-5.12 5.242-8.88 11.542-10.89 18.428-3.63 7.766-4.64 16.436-3.04 24.967.17.951 1.74 1.299 2.18.362l.57-1.206c.14.598.33 1.191.48 1.71.55 1.806 1.08 4.224 2.57 5.525.65.571 1.63.215 1.7-.608 1.1 2.232 3.51 4.484 4.86 5.646 1.51 1.298 3.98 2.906 6.42 3.676 1.05.555 2.1.779 3.03.403.23-.023.46-.072.68-.121a.27.27 0 0 0 .14-.447c-.64-.75-1.56-1.192-2.5-1.58-.38-.266-.79-.53-1.18-.822-1.7-1.305-3.18-2.784-4.57-4.401-1.46-1.712-2.75-3.543-4.02-5.401-.57-.834-1.1-1.749-1.72-2.577a29.049 29.049 0 0 1-1.36-8.325c-.08-3.51.35-7.022 1.13-10.442.51-2.22 1.36-4.473 1.87-6.744.36-.725.69-1.473 1-2.244 1.04-2.554 2.27-5.026 3.75-7.37a37.978 37.978 0 0 1 10.13-10.524c3.94-2.749 8.31-4.625 12.95-5.814 1.52-.386 4.38-1.01 5.93-2.367.07-.033.17-.069.24-.102 1.4-.627 2.83-1.692 3.46-2.981 4.99-8.287 7.04-8.498 8.39-8.635-1.63-2.408-5.28-1.244-7.73 2.016Z" fill="#9F6944"/><path d="M1116.33 396.375c-.84.061-1.61.547-2.28 1.049-.59.443-1.29 1.127-1.18 1.932.02.176.21.309.36.294.67.008 1.2-.556 1.7-.964.56-.466 1.24-.867 1.72-1.426.25-.306.19-.912-.32-.885ZM1111.38 399.534c-.55.158-1.03.208-1.54.515-.48.279-.93.681-1.32 1.079-.49.508-1.76 1.787-1.1 2.559.67.773 1.49-.534 1.82-1.027.34-.443.7-.888 1.1-1.285.44-.453.76-1.022 1.21-1.45.16-.17.03-.437-.17-.391ZM1116.39 399.199c-.75.23-1.39.423-1.98.942-.47.431-1.2 1.296-.75 1.964.48.69 1.28-.309 1.54-.719.4-.602.84-1.285 1.41-1.7.27-.18.05-.591-.22-.487ZM1170.21 421.981c-.27-.456-.93-.083-.73.381 1.32 3.128 1.95 6.735 2.32 10.088.02.227.38.216.43.006.82-3.805-.01-7.137-2.02-10.475ZM1169.43 428.358c-.14-.443-.77-.303-.72.177.37 3.098-.5 6.169-.67 9.246 0 .255.36.448.54.226 2.35-2.816 1.99-6.348.85-9.649ZM1172.01 434.544c-.1-.499-.83-.399-.86.088-.07 1.333-.31 2.684-.56 3.985-.18 1.012-.46 2.01-.25 3.059.06.351.56.503.82.248 1.75-1.838 1.27-5.102.85-7.38Z" fill="#9F6944"/><path d="M1142.81 377.75c-.75-.381-1.52-.149-1.44.683.03.228-1.29 4.391-4.93 7.364 6.31-1.182 9.31-6.589 6.37-8.047Z" fill="#CD9975"/><path d="M1176.09 431.143a60.806 60.806 0 0 0-5.15-18.772c-2.7-5.918-6.42-11.452-10.95-16.139-7.87-9.085-20.92-9.582-21.6-9.64 4.26-1.966 7.82-4.907 6.19-9.049-1.17-2.939-4.28-3.079-6.63-1.487-1.5 1.021-2.71 2.292-3.76 3.701 1.67-4.429 1.77-9.667-3.3-9.657-2.43-.005-5.34.803-5.12 3.713.17 2.175.99 4.181 1.16 6.381-.47-2.653-1.01-4.868-4.26-4.586-1.44.123-1.6 2.307-.09 2.305 2.61.013 3.46 3.801 3.32 5.931-.05.795-.24 1.657-.51 2.526-.72.456-1.68.58-2.57.646l-.03.002c-6.92.354-11.89 1.832-18.27 7.1-5.02 4.161-8.97 9.589-12.1 15.314a60.276 60.276 0 0 0-6.52 18.362c-.94 5.248-2.16 12.563 2.01 16.801.51.508 1.23.256 1.5-.333 0 0 0-.025.02-.028.34 2.821 1.64 5.492 4.23 6.986.24.154.52.1.71-.072 1.68 2.428 4.94 4.516 6.78 5.449 4.43 2.248 10.14 4.289 15.22 3.87 3.97 1.021 8.88 1.741 14.91 1.811 4.17.031 17.97.274 27.5-3.457 1.89-.805 5.31-2.635 7.15-4.939.17.161.43.236.7.106 2.69-1.295 4.19-3.871 4.72-6.654l.01.025c.21.615.94.924 1.47.435 4.49-3.978 3.81-11.353 3.26-16.651Zm-45.32 28.638c-18.66-.432-26.65-8.154-30.01-11.506-3.54-3.513-5.28-8.026-5.5-12.899-.36-8.784 2.6-19.082 9.35-25.129 3.73-3.339 8.8-5.414 13.84-5.141 2.55.147 5.09.907 7.18 2.349 2.1 1.468 3.33 3.509 4.62 5.62.02.151.11.32.25.383.18.287.47.614.65-.143.95-2.164 4.3-5.005 7.54-6.332 3.91-1.599 8.77-2.148 12.61-.145 6.74 3.516 10.21 11.191 12.24 18.198 2.13 7.354 1.86 16.228-2.06 22.877-4.34 6.666-12.06 12.276-30.71 11.868Zm41.51-14.173c-.24-.333-.51-.688-.73-1.048-.3-.454-1.08-.348-1.09.266-.06 2.963-1.5 5.175-3.45 7.109.24-.687.29-1.407.09-2.15-.01-.076-.09-.068-.13-.038-1.56 1.102-2.4 3.101-3.91 4.378-1.93 1.6-4.16 2.619-6.53 3.474-2.77.997-5.66 1.957-8.59 2.665 5.73-1.632 10.19-4.257 13.01-7.733 4.48-5.533 6.81-11.304 6.55-18.34-.25-6.909-2.62-14.264-6.44-20.043-3.48-5.252-8.34-10.744-15.05-10.72-5.15.018-12.56 2.409-15.06 7.484-.88-3.071-4.1-5.52-6.93-6.708-4.26-1.782-9.14-1.51-13.41.075-9.74 3.675-14.97 13.314-16.56 23.088-.81 5.055-1.27 10.763.43 15.661 1.73 4.897 5.68 9.183 9.87 12.068 1.29.887 2.9 1.869 4.89 2.787-1.97-.741-3.89-1.538-5.77-2.365-2.28-1.016-4.45-2.17-6.27-3.922-1.42-1.358-2.11-3.428-3.57-4.631-.05-.045-.11-.04-.12.039-.26.715-.27 1.429-.09 2.15-1.8-2.084-3.09-4.375-2.93-7.323.04-.616-.74-.765-1.05-.325-.25.331-.53.665-.8.974-2.86-4.883-1.55-11.595-.37-16.84a58.338 58.338 0 0 1 6.35-16.229c2.85-4.932 6.4-9.478 10.59-13.374 7.51-6.329 13.79-7.074 17.15-7.241.82-.032 2.8-.389 2.9-.45 4.35-2.052 3.44-8.944 2.56-12.705-.26-1.094-.44-1.356.1-2.509.57-1.18.93-1.191 2.16-1.24 1.42-.07 2.63-.066 3.12 1.77.21.795.09 1.827.02 2.625-.31 3.269-1.81 5.82-3.02 8.774-.11.24.21.36.38.241 1.41-.246 5.43-5.452 6.49-6.402.63-.574 1.32-1.334 2.11-1.593 1.37-.446 3.43-.326 3.76 1.4.63 3.223-3.38 5.062-5.6 6.386-2.58 1.539-5.05 3.349-7.93 4.281-.05.005-.04.106.01.101 1.35-.292 3.4-.783 5.58-1.541 4.09-.012 12.71 2.393 15.77 3.942 2.88 1.463 6.18 3.878 8.37 6.229 3.88 4.191 7.09 8.962 9.56 14.088a58.553 58.553 0 0 1 5.13 16.632c.83 5.32 1.66 12.119-1.55 16.783Z" fill="#815950"/><path d="M1092.31 420.585c-.01-.1-.1-.194-.19-.133-.82.543-1.18 1.523-1.55 2.402-.45 1.092-.96 2.368-.86 3.556.03.328.43.517.66.188.6-.878.82-1.996 1.15-2.999.34-.953.87-1.977.79-3.014ZM1093.09 422.928c-1.31 2.989-1.81 5.896-1.12 9.089.05.199.38.241.44.006.56-2.99.82-5.999 1.14-9.041.03-.257-.36-.269-.46-.054ZM1090.47 429.596c.09-.366-.44-.541-.56-.173-.51 1.506-.99 3.009-1.11 4.602-.1 1.565.24 2.652.8 4.099.07.196.37.09.38-.09.01-1.327.16-2.617.15-3.967-.02-1.502.03-2.986.34-4.471Z" fill="#805335"/><path d="M1115.18 441.161c-.11 3.147-2.78 5.613-5.94 5.504a5.72 5.72 0 0 1-5.52-5.91c.11-3.147 2.78-5.613 5.94-5.504 3.16.135 5.64 2.762 5.52 5.91Z" fill="#FFA48F"/><path d="M1118.19 429.737c-.21-1.024-.52-2.012-1.07-2.899-1.19-1.892-2.92-3.015-5.05-3.102-2.27-.075-4.6 1.108-5.81 3.093-.63 1.034-2.38 4.732-.51 5.279.21.055.5-.153.51-.357.01-.154.25-.511.29-.592 1.13-1.772 1.87-3.811 4.13-4.477 1.09-.316 1.6-.393 3.23.332 1.66.722 2.4 4.879 3.48 5.431.16.085.36.064.5-.052.76-.638.46-1.781.3-2.656ZM1153.88 427.785c-1.31-1.778-3.29-2.696-5.49-2.674-2 .026-3.99.817-5.47 2.141-1.22 1.069-2.81 3.042-2.07 4.776.1.244.41.289.6.092.44-.479.76-1.048 1.09-1.591.72-.762 1.48-1.529 2.35-2.051 1.28-.769 2.79-.745 4.21-.381 1.19.312 2.32.935 3.14 1.846.98 1.123 1.07 2.286 1.4 3.681.05.3.33.526.62.548a.52.52 0 0 0 .8-.184c.79-2.044.1-4.473-1.18-6.203Z" fill="#D89E50"/><path d="M1117.59 429.696c-.34-.832-.75-1.631-1.34-2.311-1.19-1.407-2.95-2.093-4.82-1.876-1.72.202-3.34 1.209-4.37 2.565-.52.69-.95 1.474-1.23 2.292-.24.687-.6 1.617-.05 2.224.32.35.97.282 1.05-.261a.075.075 0 0 1 .01-.078c.01-.485.54-1.228.78-1.635a8.43 8.43 0 0 1 1.22-1.579c.86-.853 1.96-1.373 3.16-1.394 1.28-.029 2.22.639 2.89 1.692.61.957 1.1 2.922 2.42 3.092.18.033.4-.041.49-.178.54-.794.13-1.747-.21-2.553ZM1153.98 432.187c-.2-.873-.44-1.766-.91-2.559-.96-1.636-2.65-2.686-4.64-2.864-1.86-.166-3.77.463-5.14 1.572-.69.555-1.33 1.233-1.8 1.969-.39.627-.97 1.452-.54 2.172.24.408.97.487 1.17-.019.03-.027.02-.053.02-.078.11-.47.84-1.08 1.19-1.422a8.774 8.774 0 0 1 1.63-1.289c1.09-.647 2.34-.928 3.62-.677 1.36.269 2.19 1.102 2.66 2.276.45 1.077.53 3.083 1.85 3.533.19.058.42.06.56-.082.72-.661.52-1.685.33-2.532Z" fill="#815950"/><path d="M1115.72 467.596c-2.69-2.733-7.74-3.082-11.16-1.941-4.08 1.362-7.7 7.266-7.9 11.365-.07 1.792 2.02 8.946 4.65 5.158.52-.741 2.95-7.492 3.95-6.677 1.87 1.466 1.63 4.601 3.4 6.204.6.525 2.68-.122 2.77-1.023.2-1.755.17-3.511-.01-5.277-.17-1.716-.97-4.235 1.12-2.129 1.57 1.598 3.14 4.675 5.82 4.604 5.97-.179 1.17-8.329-2.64-10.284Z" fill="#F4C882"/><path d="M1104.33 473.608c-1.58-1.164-2.82 1.538-3.32 2.609-.7 1.448-1.16 3.943-2.81 4.572-.68-.135-1.04.565-.86 1.057.02.227.09.449.29.582 2.05 1.574 3.89-.705 4.58-2.484.69-1.754.78-4.159 2.15-5.549.18-.172.21-.608-.03-.787ZM1111.9 477.599c.09-1.896-.11-4.119-.68-5.947-.08-.297-.4-.367-.64-.24-1.2.581-1.06 2.633-1.11 3.708-.04 1.1.37 3.353-.59 4.166-.47.405-.22 1.144.25 1.428 2.01 1.195 2.73-1.785 2.77-3.115ZM1119.19 470.758c-.03-.047-.06-.121-.09-.168-2.26-3.492-6.75-6.141-11.01-5.475-.13.013-.24.202-.12.293 2.42 1.944 5.74 2.343 7.77 4.889.62.803 3.02 3.998 1.78 4.61-.42.196-.67.782-.65 1.214.01.025.01.05.01.075.02.432.28.966.71 1.126 5.75 2.215 4.52-6.837 1.6-6.564Z" fill="#E5B46C"/><path d="M1122.84 474.337c-1.45-4.365-8.22-11.422-13.59-10.106-5.7-.231-10.75 3.294-12.58 8.887-1.01 3.138-2.02 12.216 3.53 11.163 2.21-.405 2.97-4.231 3.51-5.919.89-2.794 1.16-1.724 1.84.22.46 1.253 1.62 2.791 2.66 3.654 1.65 1.386 3.78.428 4.58-1.286.92-2.006.4-4.579-.07-6.877 2.31 2.083 4.08 4.809 7.62 4.624 2.04-.056 3.08-2.611 2.5-4.36Zm-5.07 1.998a12.557 12.557 0 0 1-2.37-2.103c-1.12-1.16-2.17-2.174-3.54-3.028-.57-.349-1.39.168-1.32.824.21 2.094.63 4.142.71 6.224.31 1.473-2.06 4.087-3.58.52-.37-.905-1.16-2.838-1.63-3.708-1.47-2.807-3.01.13-3.8 1.97-.26.639-2.51 7.728-3.97 4.486-.86-1.951-.42-4.877-.01-6.907.63-3.328 2.31-5.872 5.24-7.6 1.57-.925 5.22-2.218 9.97-.385 1.98.868 3.78 2.723 5.25 4.255.63.7 1.2 1.483 1.67 2.302 1.12 2.256-.02 4.311-2.62 3.15Z" fill="#815950"/><path d="M1172.21 470.727c-.97-6.733-7.36-11.686-14.21-9.072a.942.942 0 0 0-.36.266c-4.04 1.282-6.11 5.114-6.71 10.249-.19 1.601.33 4.683 2.76 3.924 1.71-.532 3.02-2.528 4.05-4.418.54 3.004 1.53 6.931 4.22 6.706 3.25-.282 3.52-4.21 3.48-7.292 1.02 1.656 1.7 3.574 3.92 4.009 2.69.515 3.12-2.538 2.85-4.372Z" fill="#F4C882"/><path d="M1167.92 464.309c-3.32-3.382-9.94-3.774-13.65-.997-.26.18-.14.601.19.592 3.99-.077 7.72-1.097 11.25 1.55 2.36 1.772 4 5.046 3.21 7.88-.35 1.286 1.61 1.977 2.24.816 1.82-3.425-.84-7.384-3.24-9.841Z" fill="#E5B46C"/><path d="M1164.7 468.872a.563.563 0 0 0-.79.03c-1.76 1.837.02 6.193-2.81 7.299-1.06.415-1 1.785.11 2.105 2.41.722 3.7-1.654 4.15-3.536.37-1.618.67-4.633-.66-5.898ZM1157.69 468.928c-.08-.298-.41-.494-.71-.488-1.41.017-2.28 2.298-2.79 3.294-.36.7-.73 1.426-1.25 2.04-.37.42-.95.455-1.4.807-.36.317-.3.821-.11 1.209.42.85 1.63.879 2.39.546.93-.427 1.51-1.251 2.01-2.068.55-.897.95-1.958 1.31-2.964.26-.74.73-1.605.55-2.376Z" fill="#E5B46C"/><path d="M1173.38 471.092c-.19-3.04-2.47-7.089-5.17-8.699-2.13-1.286-6.42-2.477-9.39-1.689h-.74c-1.94.121-3.81 1.588-5.09 2.866-2.39 2.362-3.14 6.059-3.4 9.248-.18 2.211.31 4.786 2.99 4.92 2.39.111 3.68-2.494 4.75-4.872.21 2.858 1.18 5.844 3.9 6.56 3.65.976 4.5-3.725 4.64-7.156.98 2.042 1.7 4.084 4.84 3.966 2.37-.09 2.77-3.42 2.67-5.144Zm-6.25.233c-.38-.955-.84-1.673-1.58-2.388-.62-.599-1.47.1-1.32.824.24 1.148.23 2.246.04 3.387-.14.881-1.71 6.6-4 3.444-1.34-1.8-1.46-4.975-1.22-7.116.08-.722-.89-1.489-1.46-.743-1.26 1.634-2.04 3.55-3.11 5.292-1.21 1.959-2.82 1.487-2.88-.598-.03-1.017.15-2.054.32-3.067.52-2.909 2.04-5.589 4.59-7.226 1.56-1.002 3.29-.873 5.01-.845 1.78.199 3.6.65 4.53 1.014 2.62 1.032 4.05 3.791 4.96 6.171.34.781.5 1.606.48 2.449.23 3.75-3.57 1.336-4.36-.598Z" fill="#815950"/></g><defs><clipPath id="a"><path fill="#fff" transform="translate(0 362)" d="M0 0h337v116H0z"/></clipPath><clipPath id="b"><path fill="#fff" transform="translate(1221 133)" d="M0 0h127v39H0z"/></clipPath><clipPath id="c"><path fill="#fff" transform="translate(1027 162)" d="M0 0h276v103H0z"/></clipPath><clipPath id="d"><path fill="#fff" transform="rotate(-25.759 197.649 -526.791)" d="M0 0h24.36v7.917H0z"/></clipPath><clipPath id="e"><path fill="#fff" transform="rotate(-63.781 129.893 -167.747)" d="M0 0h24.36v7.917H0z"/></clipPath><clipPath id="f"><path fill="#fff" transform="rotate(-98.002 109.325 -72.888)" d="M0 0h24.36v7.917H0z"/></clipPath><clipPath id="g"><path fill="#fff" transform="rotate(-132.433 94.845 -19.254)" d="M0 0h24.36v7.917H0z"/></clipPath><clipPath id="h"><path fill="#fff" transform="rotate(-165.501 86.87 21.534)" d="M0 0h24.36v7.917H0z"/></clipPath><clipPath id="i"><path fill="#fff" transform="rotate(145.18 76.936 69.735)" d="M0 0h24.36v7.917H0z"/></clipPath><clipPath id="j"><path fill="#fff" transform="rotate(109.589 68.782 113.78)" d="M0 0h24.36v7.917H0z"/></clipPath><clipPath id="k"><path fill="#fff" transform="rotate(76.475 59.87 183.1)" d="M0 0h24.36v7.917H0z"/></clipPath><clipPath id="l"><path fill="#fff" transform="rotate(59.178 56.818 253.882)" d="M0 0h24.36v7.917H0z"/></clipPath><clipPath id="m"><path fill="#fff" transform="rotate(28.753 20.57 528.244)" d="M0 0h24.36v7.917H0z"/></clipPath><clipPath id="n"><path fill="#fff" transform="translate(177 30.325)" d="M0 0h68v47H0z"/></clipPath><clipPath id="o"><path fill="#fff" transform="rotate(-5.854 4219.262 -10189.78)" d="M0 0h130.412v112.154H0z"/></clipPath></defs></svg>