<svg width="712" height="371" fill="none" xmlns="http://www.w3.org/2000/svg"><circle cx="119" cy="220" r="10" fill="#FA8D8D" fill-opacity=".51"/><circle cx="647" cy="5" r="5" fill="#87A3E3"/><circle cx="68" cy="183" r="5" fill="#87A3E3"/><g clip-path="url(#a)"><path opacity=".75" d="M149.557 42.31c-.022-.169-.006-.633.405-.732.418-.083 1.162-.402 1.405-.559.227-.15 4.828-2.806 5.249-3.049.421-.243 2.737-1.559 2.941-1.716.219-.166.439-.411.736-.376.288.02.454.198.548.351.078.161.388.349.522.463.127.097.418.453.455.693.036.24.001.416-.093.76-.085.318-.016.503-.116.75s-.3.204-.487.314c-.186.11-.468.187-.695.296-.226.11-3.585 1.909-4.29 2.348-.69.432-2.093 1.367-2.604 1.713-.511.346-1.102.69-1.403.895-.3.205-.666.52-1.057.371-.391-.148-.975-1.236-1.161-1.662-.194-.443-.355-.86-.355-.86Z" fill="#FFC327"/></g><g clip-path="url(#b)"><path opacity=".75" d="M136.168 35.937c-.121-.12-.394-.494-.131-.825.278-.324.667-1.033.762-1.307.087-.257 2.075-5.184 2.257-5.635.183-.45 1.196-2.914 1.259-3.163.071-.266.094-.595.349-.75a.684.684 0 0 1 .648-.06c.161.078.521.035.697.042.16-.001.608.1.785.267.177.167.257.326.395.654.129.304.297.407.37.663.073.257-.11.346-.189.548-.08.2-.255.435-.366.66-.111.226-1.649 3.713-1.933 4.494a120.75 120.75 0 0 0-.996 2.953c-.19.587-.443 1.223-.554 1.569-.111.346-.205.82-.604.943-.4.124-1.53-.373-1.939-.594-.425-.23-.81-.46-.81-.46Z" fill="#FFC327"/></g><g clip-path="url(#c)"><path opacity=".75" d="M121.954 36.505c-.167-.03-.604-.187-.573-.609.049-.424-.028-1.229-.104-1.508-.072-.262-1.199-5.454-1.302-5.93-.103-.475-.65-3.082-.738-3.323-.091-.26-.257-.545-.133-.816a.683.683 0 0 1 .501-.415c.177-.025.45-.263.6-.356.131-.091.559-.26.799-.222.24.04.397.126.695.32.278.178.475.169.679.34.205.17.103.348.151.559.048.21.035.503.07.752s.724 3.997.928 4.802c.201.788.663 2.41.837 3.002.173.593.321 1.26.424 1.61.103.347.292.792.032 1.12-.261.326-1.475.551-1.938.598-.48.05-.928.076-.928.076Z" fill="#FFC327"/></g><g clip-path="url(#d)"><path opacity=".75" d="M108.743 42.696c-.155.07-.604.188-.817-.178-.199-.377-.718-.998-.939-1.185-.208-.175-4.073-3.82-4.427-4.154-.353-.334-2.278-2.175-2.488-2.324-.221-.163-.52-.304-.57-.598a.683.683 0 0 1 .178-.626c.132-.12.223-.471.293-.633.058-.15.315-.53.535-.634.22-.104.398-.12.753-.13.33-.01.488-.129.753-.103.265.025.282.228.44.376.159.147.313.395.483.58.17.186 2.857 2.888 3.481 3.437.611.536 1.91 1.612 2.388 2.003.478.39.978.858 1.26 1.087.281.228.689.489.659.906-.031.417-.905 1.289-1.26 1.59-.368.311-.722.586-.722.586Z" fill="#FFC327"/></g><g clip-path="url(#e)"><path opacity=".75" d="M104.479 55.405c-.062.158-.296.56-.704.451-.408-.126-1.214-.199-1.502-.176-.271.023-5.582.174-6.068.188-.486.013-3.15.07-3.403.112-.271.042-.582.153-.826-.02a.684.684 0 0 1-.316-.569c.009-.178-.175-.49-.24-.655-.064-.146-.152-.597-.07-.826.083-.229.197-.367.443-.624.226-.24.253-.436.459-.605.205-.17.361-.037.577-.045.216-.008.501.058.752.07.251.011 4.062.025 4.892-.027.811-.052 2.49-.208 3.104-.27.614-.06 1.299-.083 1.66-.12.361-.038.833-.141 1.106.175.274.317.271 1.552.232 2.015-.04.481-.096.926-.096.926Z" fill="#FFC327"/></g><g clip-path="url(#f)"><path opacity=".75" d="M110.903 67.238c.047.163.105.623-.285.786-.4.148-1.084.58-1.3.773-.201.183-4.326 3.531-4.703 3.838-.378.306-2.458 1.97-2.634 2.158-.19.198-.369.475-.668.486a.682.682 0 0 1-.596-.26c-.102-.146-.438-.283-.589-.374-.14-.076-.484-.382-.558-.614-.073-.231-.067-.41-.028-.764.034-.328-.064-.5-.004-.76.06-.259.265-.249.431-.386.167-.138.434-.258.64-.402.207-.143 3.24-2.45 3.868-2.994.612-.535 1.851-1.68 2.301-2.102.45-.422.98-.856 1.244-1.105s.576-.618.986-.533c.409.086 1.158 1.067 1.408 1.46.261.406.487.793.487.793Z" fill="#FFC327"/></g><g clip-path="url(#g)"><path opacity=".75" d="M120.889 70.055c.134.104.449.445.226.805-.239.353-.544 1.102-.607 1.385-.056.266-1.462 5.39-1.591 5.858-.129.469-.852 3.033-.886 3.288-.039.272-.024.601-.26.784a.682.682 0 0 1-.636.136c-.169-.06-.521.024-.697.038-.159.02-.616-.029-.811-.174-.194-.146-.293-.295-.467-.605-.164-.287-.343-.37-.445-.616-.102-.246.07-.356.125-.565.056-.21.203-.462.287-.7.084-.236 1.209-3.877 1.402-4.685.187-.792.528-2.443.648-3.049.121-.605.299-1.266.369-1.622.07-.356.109-.838.491-1.007.383-.169 1.563.194 1.995.367.448.178.857.362.857.362Z" fill="#FFC327"/></g><g clip-path="url(#h)"><path opacity=".75" d="M134.407 67.987c.169.015.619.128.629.55-.008.428.146 1.222.248 1.493.098.253 1.719 5.313 1.868 5.776.148.463.943 3.005 1.054 3.237.115.25.308.517.211.8a.684.684 0 0 1-.459.46c-.174.043-.423.306-.563.413-.122.103-.531.313-.774.297-.243-.015-.407-.087-.722-.25-.294-.152-.489-.123-.709-.274-.22-.15-.136-.336-.204-.542-.068-.205-.083-.497-.142-.742-.059-.244-1.106-3.908-1.386-4.69-.276-.766-.892-2.335-1.122-2.908-.23-.573-.441-1.224-.577-1.56-.137-.337-.367-.762-.139-1.112.228-.35 1.415-.692 1.871-.783.473-.095.916-.165.916-.165Z" fill="#FFC327"/></g><g clip-path="url(#i)"><path opacity=".75" d="M146.44 64.472c.166-.036.63-.061.765.339.119.41.502 1.122.68 1.35.169.213 3.221 4.562 3.501 4.96.279.398 1.794 2.59 1.969 2.778.184.204.448.402.439.7a.684.684 0 0 1-.301.577c-.154.091-.313.417-.415.561-.086.135-.414.456-.651.514-.236.057-.414.038-.764-.025-.325-.057-.503.028-.758-.05s-.23-.28-.356-.457c-.126-.176-.227-.45-.356-.666-.129-.216-2.218-3.403-2.718-4.067-.49-.648-1.546-1.963-1.935-2.442-.39-.479-.786-1.037-1.016-1.318-.23-.281-.577-.618-.463-1.02.114-.403 1.145-1.081 1.554-1.304.423-.232.825-.43.825-.43Z" fill="#FFC327"/></g><g clip-path="url(#j)"><path opacity=".75" d="M152.851 54.132c.125-.115.511-.372.83-.095.311.293 1.002.713 1.272.82.253.098 5.087 2.302 5.529 2.504.443.202 2.859 1.324 3.105 1.398.262.082.59.12.733.382a.683.683 0 0 1 .033.65c-.086.156-.059.518-.074.693-.006.16-.126.604-.301.773-.175.169-.338.242-.671.365-.31.116-.42.28-.679.341-.259.062-.341-.125-.539-.213-.197-.088-.423-.274-.644-.395-.22-.12-3.635-1.811-4.403-2.13-.751-.31-2.327-.91-2.906-1.126-.578-.215-1.202-.496-1.543-.622-.341-.126-.81-.24-.916-.645-.106-.405.44-1.512.68-1.911.248-.415.494-.789.494-.789Z" fill="#FFC327"/></g><g clip-path="url(#k)" fill="#FFC327"><path opacity=".75" d="M127.404 42.234c.591 0 .858.073 1.239.073.382 0 .515-.073.515-.184 0-.11-.305.037 0-.11.305-.148.305-.148.305-.295 0-.148.381-.185.229-.332-.153-.148-.191-.332-.191-.332s.115 0 .115-.258-.153-.461-.42-.535c-.267-.074-1.792-.645-2.954-.332-1.163.295-4.251 1.328-5.719 2.194-1.487.83-5.585 4.038-6.901 5.55-1.334 1.493-2.954 4.092-3.393 5.954-.419 1.844-.152 4.24.343 5.495l.515 1.235s-.457-3.263-.038-4.812c.419-1.549.667-1.954.782-2.157.114-.184.419-.977.743-1.475.305-.48 2.211-2.895 3.145-3.724.934-.83 3.069-2.674 4.404-3.466 1.315-.793 3.202-1.697 4.441-2.028 1.239-.332 2.84-.461 2.84-.461ZM124.811 64.745c.077-.019.267-.037.401-.037.133 0 .324-.018.419-.018.095 0 .114.036.191-.019.076-.055.095-.018.171-.018.076 0 .305-.019.381-.019.077 0 .039-.073.096-.073.076 0 .076 0 .248-.019.171-.018.209 0 .324-.018.095-.019.209-.037.209-.019.019.037-.019.037-.076.037-.057.019-.191.019-.267.037-.057.018-.114.018-.21.018-.095-.018-.095.056-.171.056a2.75 2.75 0 0 0-.343.037c-.115.018-.191 0-.267.018-.076.018-.133.055-.229.037-.095-.019-.286.018-.381.018-.095 0-.133-.018-.267 0l-.248.037c-.076 0 .019-.055.019-.055ZM127.994 64.376c.134 0 .496-.074.648-.11.153-.038.248-.056.325-.056.076-.018.133-.037.152 0 .019.037 0 .074-.114.092-.115.019-.096.019-.21.019-.114 0-.191.037-.286.037-.095 0-.191.036-.248.036-.057.019-.038 0-.114.019-.076 0-.21-.037-.153-.037ZM129.444 64.155c.057 0 .324-.037.438-.074.134-.037.343-.074.439-.092.095-.018.209-.037.419-.092.191-.056.362-.056.496-.093.133-.036.133-.055.286-.092.171-.037.4-.055.324-.018-.057.037-.153.055-.267.092-.134.037-.305.13-.4.13-.077 0-.286 0-.344.036a1.166 1.166 0 0 1-.305.092c-.095.019-.152.019-.305.056-.152.036-.19.036-.266.073-.077.037-.096.056-.21.056-.114.018-.172.018-.286.018-.095-.018-.019-.092-.019-.092Z"/><path opacity=".75" d="M146.809 50.032c0 1.162-.934 3.393-1.792 4.407-.857 1.014-3.202 2.784-5.299 3.724-2.097.94-8.73 3.208-13.286 3.54-4.556.332-8.178-.037-11.724-1.364-3.545-1.291-4.498-6.306-4.594-6.01-.209.608-.114 3.06.191 4.092.305 1.014.858 2.378 1.925 3.374 1.087.996 2.307 1.622 2.688 1.752.4.129 1.449.534 1.716.571.266.037.743.184 1.162.24.439.073 1.316.22 1.888.258.571.037 1.563.129 1.982.129.419 0 2.383.037 2.573.037.191 0 .096-.11-.038-.11-.133 0-.476.073-.915.036-.438-.019-1.086-.019-1.315-.019-.229 0-1.334-.092-1.544-.11-.21-.018-1.468-.184-1.792-.203-.324-.018-1.315-.24-1.468-.258-.152-.018-.305-.147-.19-.203.114-.037.419 0 .648.092.229.093.877.203 1.334.258.458.074 1.487.24 2.097.222.591-.019 2.192.018 2.364.018.19 0 .209.019.343.019.133 0 .21-.019.191-.148-.02-.129.266-.11.514-.11.229 0-.019.092.21.147.229.074.362-.018.667-.037.305-.018.229-.092.324-.092s.076-.148.267-.184c.21-.019.477.018.324.037-.152.018-.21.129.038.129s.229-.019.515-.074c.267-.037.438-.037.629-.11.191-.075.229.018.477.018.247 0 .857-.203 1.124-.203.267 0 .267-.037.439-.092.152-.037.247-.037.419-.074.152-.019.21 0 .438-.074.229-.074.324-.147.687-.203.362-.037 0 0 .076 0s.667-.147.82-.184c.152-.019.305-.019.209-.092-.095-.074.038-.148.191-.185.133-.018.362-.184.515-.184.133 0 0 .13-.248.203-.248.074-.267.184-.134.129.134-.037.343-.092.687-.203.343-.11.648-.11.762-.147.114-.037.076-.111.076-.203 0-.092.191-.037.324-.11.134-.075.324-.093.553-.148.229-.074.553-.13.362-.074-.19.074-.076.147.115.11.19-.036.209-.11.324-.129.114-.018.114-.018.114-.147 0-.13.191-.037.248.037.076.092.229-.074.438-.258.191-.185 0 0 .115-.037.114-.037.19-.074.381-.11.191-.038.191.036.305-.038.114-.073.191-.184.381-.22.191-.038.343.036.515-.038.152-.074.515-.184 1.048-.534.553-.332 3.66-1.88 3.927-1.992.267-.11.229-.294.305-.405.077-.11.343-.074.343-.074l.267-.295c.267-.295.115-.258.229-.46.114-.185.191.073.381-.074.191-.148.343-.461.782-1.014.419-.572.705-1.439.705-1.439 1.334-3.447.667-5.107.667-5.107Zm-6.119 8.334a83.93 83.93 0 0 1-1.868.848c-.229.092-.457.074-.534.147-.076.093-.209.111-.305.148-.095.037-.266.092-.438.184-.153.092-1.201.461-1.677.627-.477.148-2.326.682-2.765.83-.438.129-1.639.405-2.115.46-.477.074-.458.148-.649.203-.19.037-.019.13-.209.13-.191 0-.858.147-1.087.184-.229.018-.362 0-.534 0-.152 0-.419 0-.476.018-.076.019-.229.074-.343.092-.115.019-.362.019-.934.093-.572.073-1.335.037-1.22.018 0 0 2.344-.313 2.611-.332.267-.018 3.508-.737 3.908-.774.381-.037 3.774-.996 4.899-1.42a64.162 64.162 0 0 0 3.793-1.622c.687-.332.877-.443.877-.443s-.438.37-.934.609Z"/><path opacity=".75" d="M144.846 46.714c-1.411-1.254-1.925-1.604-2.116-1.715-.191-.11-1.125-.627-1.296-.719-.153-.092-.953-.498-.953-.498s-1.716-.682-2.002-.792c-.267-.111-2.459-.83-4.079-1.088-1.621-.258-2.688-.443-3.393-.443-.706 0-.973-.055-1.335-.055s-4.918.313-5.966.498c-1.049.184-2.917.498-3.336.59-.439.092-2.631.866-3.012 1.014-.362.147-2.154 1.309-2.326 1.42-.19.11-.896.884-1.067 1.16-.191.26-.4.794-.458 1.126-.057.331-.114 1.954 0 2.433.153.572.058.94.191 1.125.114.184.305.11.438.295.115.184.248.24.363 0 .114-.24.552-.535.552-.83 0-.295.058-1.18.058-1.18s.247-1.364.915-1.714c.667-.35 5.509-1.66 6.252-1.9.744-.239 5.147-.884 6.195-.884 1.716 0 4.899.24 7.854.94 1.658.406 5.433 2.083 6.405 2.784.972.719 2.364 2.083 2.669 2.913.305.83.667 2.25.553 3.263-.115 1.014 0 1.254.305.535.305-.72.743-2.434.743-3.448 0-1.05-.743-3.595-2.154-4.83Zm-7.187-3.245c-.552-.203-2.173-.59-2.42-.645-.248-.056-1.297-.24-1.773-.332a19.18 19.18 0 0 0-2.116-.24c-.706-.037-1.468-.092-1.906-.092-.439 0-1.049-.055-1.22-.055-.191 0 .247-.037.305-.056.171-.073 1.448-.055 1.601-.055.152 0 1.925.184 2.154.184.21 0 2.421.35 2.421.35.495.038 3.069.83 3.336.94.247.13.171.222-.382 0Zm2.345 1.014s-.171-.13-.286-.184c-.114-.074-.286-.13-.419-.203a5.193 5.193 0 0 1-.324-.203c.095.037.667.24.8.332.115.074.42.295.229.258Z"/></g><g clip-path="url(#l)"><path d="M14.152 351.708c.518.13.906.26 1.294.391.518.261 1.036.521 1.424.782.517.391 1.035.912 1.294 1.434 0-.391.13-.652.259-1.043.13-.782.517-1.304 1.035-1.955l1.165-1.043c.517-.261 1.035-.522 1.423-.652l1.553-.391h1.941a4.776 4.776 0 0 1 1.423-.652c.777-.26 1.553-.391 2.2-.651.518-.131.906-.261 1.424-.261-.26-1.825.517-3.65 2.458-4.954 1.036-.651 2.07-1.173 3.365-1.434 2.33-2.346 6.34-2.867 9.446-1.173 1.294-1.955 3.624-3.65 6.341-3.65 1.035-.13 2.2 0 3.106.391a6.261 6.261 0 0 1 2.588 1.825c.13 0 .259-.13.388-.13-.388-5.214 3.494-10.168 9.706-10.819 4.917-.522 10.222.782 13.458 3.91v-.26c-.26-.652-.389-1.304-.26-2.086 0-3.389 2.589-6.778 5.436-8.734 3.364-2.216 7.893-2.998 12.034-2.216-.776-2.477.26-5.084 2.33-6.778 2.329-1.956 6.729-3.259 10.352-2.868 2.2-3.389 8.023-4.302 12.164-2.737 3.106 1.173 5.694 4.432 5.953 7.69 2.199-1.173 5.305-.912 7.505.783 3.494 2.476 4.27 7.299 2.588 10.949h2.071c1.682-2.867 7.246-3.389 10.093-1.694 3.882 2.216 4.27 6.648 2.588 10.167 3.106 1.043 5.694 3.39 6.212 6.388.258 1.173 0 2.476-.647 3.65a6.244 6.244 0 0 1 2.588 1.825c.258.26.388.521.517.912.259 0 .647-.13 1.036-.13 1.294 0 2.458.26 3.364.912 1.035-1.043 2.718-1.694 4.27-1.434 1.812.261 3.494 1.304 4.4 2.738.647 1.042 1.165 2.346.906 3.389.129.13.388.13.518.261l.129-.131c.906-.521 1.941-.652 2.847-.391.259.13.647.261.906.391.129.131.388.261.517.522.13 0 .13.13.13.13.129 0 .259.13.388.261-.129-.782 7.376 1.955 7.764 1.303-.129-1.043-3.235-2.346-4.917-1.434-.777-1.694-4.529-2.867-6.859-1.955 0-.13 0-.521.13-.652 0-.912-.13-1.694-.647-2.476-.259-.783-.777-1.434-1.424-2.086-1.294-1.173-3.235-1.825-5.046-1.825-1.424 0-2.718.391-3.883 1.043-1.294-2.347-3.623-3.911-6.211-4.693.776-.912 1.294-1.955 1.682-3.128 1.683-5.345-2.329-10.298-7.893-11.863-.389-.13-.777-.13-1.165-.26.518-.783.647-1.695.776-2.738 0-.782-.129-1.564-.517-2.216-.259-.652-.647-1.303-1.294-1.825-1.165-1.043-2.847-1.694-4.4-1.694a6.608 6.608 0 0 0-4.4 1.694c-.259.261-.517.391-.647.652-.647-1.173-1.294-2.216-2.2-3.129.647-.912 1.165-1.955 1.294-3.128.518-4.302-3.364-8.473-8.281-8.212-1.165 0-2.2.391-3.106.782-.518-3.259-6.082-5.345-12.941-3.78-7.764-2.738-21.74 3.258-22.257 14.86-.777-.13-6.988-.913-9.447 1.955-4.011-2.998-9.317-.261-9.446 3.911-2.2-1.304-4.918-2.086-7.635-1.695-4.659.652-7.505 3.65-9.317 7.43-.259.522-.388.913-.647 1.434-.777.261-1.553.522-2.2 1.043-3.753-1.955-8.929-2.607-12.035-1.173-3.364 1.564-5.564 4.562-6.34 7.821-.518.261-1.165.522-1.683.913-2.07-.522-4.4-.652-6.729-.131-4.14.913-6.6 3.781-7.376 7.17-1.164-.261-2.458.13-3.494.652a4.274 4.274 0 0 0-2.07 2.216c-.388.521-.518 1.173-.388 1.824v.392c-1.165-.913-2.588-.913-3.624-.261.518.521.777 1.173.647 1.825Z" fill="#fff"/><path d="M-.989 357.183c.388.13.647.26.906.521a3.04 3.04 0 0 1 .906-.913c-.13-.13-.13-.26-.13-.391v-.521c.13-1.043 1.036-1.564 2.071-1.564.776 0 1.423.521 1.553 1.173h.259c-.389-.391-.518-1.304 0-1.695l.129-.13c.518-.521 1.165-.782 1.941-.521h.259c.776-1.825 2.588-3.259 5.305-3.259.389 0 1.294.521 1.812.521.259-1.173-1.553-1.434-2.2-1.303-2.329.13-3.882.912-5.305 2.998-1.294-.131-2.718.13-3.624 1.303-.129.131-.258.261-.258.391H1.21c-.647 0-1.165.391-1.553.652-.259-.13-.517-.13-.647-.13-.388 0-.647 0-.906.13-.647.261-1.035.652-1.294 1.173-.517.391-.647 1.043-.517 1.565 0 0 .13.13.259.13.129-.13.258-.13.388-.13a2.835 2.835 0 0 1 2.07 0Z" fill="#fff"/><path d="M195.447 356.531c-.13-.652-.518-1.043-1.036-1.304a1.793 1.793 0 0 0-.517-.391c-.259-.13-.518-.13-.906-.13-.518.652-.906 1.304-1.165 2.086-1.164-.913-3.235-1.565-4.141-1.565-1.423-.13-2.588.261-3.882.783-.129.13-.388.13-.517.26h-.13c-.776-.521-1.682-.26-1.553.913l-.129-.131c-.906-.521-1.812-.782-2.847-.782-.906-.13-2.07.261-2.847.913-.259-.522-.517-1.043-1.035-1.434-.776-.782-2.07-1.304-3.235-1.304s-2.459.391-3.235 1.174c-.259.26-.518.651-.777.912-1.164-1.955-3.105-3.389-5.693-3.259-2.847 0-5.435 1.695-6.729 3.911-.13.13-.13.26-.13.391-1.294-1.825-3.494-2.998-5.952-3.389-2.588-.391-5.306.26-7.247 1.825-1.294 1.042-2.07 2.607-2.2 4.171-.388-.391-.647-.652-.906-1.043 1.036-2.477 1.165-5.214-.388-7.691-.388-.652-.776-1.173-1.294-1.564 2.2.652 4.788.782 6.988.13 4.788-1.434 7.246-5.605 6.082-10.167a3.572 3.572 0 0 0-.906-1.695c0-.13.129-.261.129-.391.13-.13.13-.261.259-.391.518-.782.906-1.695.906-2.607.129-2.216-1.682-3.911-3.623-5.084-1.294-.782-3.365-.912-4.659-.13l-1.553 1.173a7.816 7.816 0 0 0-3.752-1.825c-2.071-.521-3.883-.13-5.435.782.258-1.173.388-2.346.129-3.519-.388-2.086-2.07-3.911-4.141-5.084-3.882-2.086-9.705-2.086-12.552 1.564-.647.912-1.035 1.955-1.035 2.998a16.666 16.666 0 0 0-4.918 1.564c-1.294.522-2.458 1.304-3.494 1.956-2.458-.913-5.176-1.174-7.505.391-2.588 1.825-2.847 4.823-2.07 7.43-2.977.391-5.824 2.346-7.506 4.562-2.459 3.129-2.588 7.3 0 10.429.518.651 1.035 1.173 1.682 1.564-2.2-.391-4.529-.261-6.858.521-2.588.913-4.788 2.477-6.212 4.563-6.47-8.995-23.422-10.689-30.41-.913-1.164-.652-2.458-1.043-3.882-1.043-1.811 0-3.623.652-4.917 1.825l-.259.261c-2.459-1.564-5.694-2.086-8.54-.782a4.587 4.587 0 0 0-1.812 1.694c-.777-1.433-2.07-2.737-3.882-3.128-3.235-.912-6.082.912-7.376 3.52-.777-.783-1.812-1.434-2.977-1.695-1.811-.521-3.752-.261-5.435.521-.388.261-.905.522-1.294.913 0-.131-.13-.261-.13-.391 0-1.043-1.681-1.434-1.94 0 .13-1.043 0-1.695-.906-2.216a7.759 7.759 0 0 0-2.459-.782c0 .13.13.26.13.391-.388.26-.647.521-.906.912-.259-.261-.518-.391-.906-.521-.647-.261-1.553-.261-2.2 0-.13 0-.259.13-.388.13-.647.391-.906 1.043-.776 1.695.129.782.905 1.434 1.811 1.564h1.294c.13 0 .26 0 .26-.13.387 0 .905-.261 1.164-.522 0 0 .13 0 .13.131.776.391 1.681.651 2.587.651-.13.522 0 1.173.26 1.565l.387.391c.26.26.647.521 1.035.521.648.391 1.165.391 1.683.13.388-.26.517-.651.517-1.042 0-.131.389-.131.518-.261 0-.131-.13-.391-.388-.391h.388l.776.782c1.294 1.173 3.106 1.825 4.918 1.825 1.94 0 3.623-.782 4.917-1.825.777-.652 1.294-1.564 1.682-2.477.518 1.564 1.812 2.868 4.141 2.868 1.294 0 2.2-.391 2.977-.913 1.552 1.304 3.623 1.956 5.952 1.565.518.13 1.035.26 1.683.26.905.913 2.588 1.304 4.27 1.174.517-.131 1.682-.522 2.07-.913.13.391 1.165.652 1.553.652.518.13 1.035 0 1.553.13a4.23 4.23 0 0 0 1.294 1.695c1.035.912 2.588 1.564 4.012 1.564 1.552 0 2.976-.652 4.011-1.564l.777-.782c1.423 0 2.846 0 4.27-.131 2.976 1.956 5.952 2.347 9.317 2.477.259.391.647.913 1.035 1.304.906.782 2.07 1.434 3.365 1.694 1.294.261 2.717.261 4.011 0 1.294-.26 2.07-.782 2.977-1.434.388-.26.647-.391.905-.651.13-.131.26-.391.518-.522h2.07c3.106 0 5.306-1.173 6.47-2.998.13.13.13.391.26.521.905 1.434 2.458 2.477 4.27 2.999.13 0 .259 0 .259.13.647.13 1.294.13 1.811.261h.13c.388 0 .776-.131 1.164-.131.26 0 .777 0 1.165-.13.518-.13 2.07-.782 1.812-.652.388-.261 1.164-.652 1.552-1.043l.389-.391c.258.131.517.131.647.261.647.13 1.294.13 1.941.261 1.035 0 1.941-.131 2.847-.522.647-.13 1.164-.391 1.682-.912a6.976 6.976 0 0 0 1.941-1.955c.129-.392.388-.783.518-1.174a8.636 8.636 0 0 1 2.588 0c2.847.261 5.564 1.565 8.411 1.565 3.882.13 7.894-1.304 9.835-4.172h.905c.13.261.389.522.518.782 1.165 1.434 2.718 2.477 4.529 3.259 1.294.522 2.588.782 4.012.913 0 .13.129.13.129.26.259.652.647 1.304 1.294 1.825 1.165 1.043 2.847 1.695 4.529 1.695 1.683 0 3.235-.652 4.53-1.695.905-.782 1.423-1.825 1.682-2.867 2.2-.261 4.27-.783 5.823-1.956.906.522 2.07.913 3.235.913 1.553 0 2.976-.652 4.012-1.565.647-.521 1.164-1.303 1.423-2.085 4.529.261 9.188.13 13.717-.391 1.294-.131 2.2-.652 2.847-1.304l.776.391c1.165.391 2.2.131 3.106-.391h.776c.259 0 .389-.13.647-.26 0 .391.259.651.518.912 1.035.521 2.07.912 3.235.521.777-.782 1.294-1.825 1.165-2.737Z" fill="#D9E9F1"/><path d="M193.118 354.576h-.259c-.518 0-.906.26-1.294.521-.259.13-.518.391-.777.652-.129-.131-.129-.391-.258-.522v-.26c.129-.913-.777-1.695-1.683-1.434-.129 0-.388 0-.517.13-.777-.521-1.812-.391-2.718-.261-.517-.912-2.976-1.042-2.847-.26-.129-.131-.259-.131-.388-.261l-.129-.13-.518-.522c-.259-.13-.518-.261-.906-.391-1.035-.261-2.07-.13-2.847.391l-.129.131c-.13-.131-.259-.131-.518-.261.13-1.173-.259-2.347-.906-3.389-.905-1.434-2.458-2.477-4.399-2.738-1.553-.13-3.235.391-4.271 1.434a6.794 6.794 0 0 0-3.364-.912c-.388 0-.647 0-1.035.13-.13-.261-.389-.652-.518-.913-.647-.912-1.553-1.433-2.588-1.824.518-1.174.776-2.477.647-3.65-.518-2.999-3.106-5.345-6.211-6.388 1.811-3.519 1.294-7.951-2.589-10.167-2.846-1.695-8.411-1.174-10.093 1.694-.647 0-1.294-.13-1.941 0h-.13c1.683-3.65.906-8.473-2.588-10.949-2.329-1.565-5.305-1.825-7.505-.783-.259-3.128-2.847-6.387-5.953-7.69-4.141-1.695-9.834-.652-12.164 2.737-3.623-.521-8.023.782-10.352 2.868-2.07 1.694-3.106 4.301-2.33 6.778-4.01-.782-8.67 0-12.034 2.216-2.976 1.955-5.435 5.345-5.435 8.734 0 .782.13 1.434.259 2.086-.13 0 0 0-.13.13-3.235-2.998-8.41-4.302-13.328-3.78-6.34.651-10.094 5.475-9.705 10.819-.26.13-.26 0-.389.13a6.253 6.253 0 0 0-2.588-1.825c-1.035-.391-2.07-.521-3.105-.391-2.07 0-4.012 1.043-5.306 2.477-.906-1.173-2.459-1.695-4.14-1.434-1.554.131-3.495.652-4.142 2.086-3.753-.782-8.411 2.346-7.893 5.996-1.036 0-1.942.13-2.847.652-.906.521-1.942 1.564-2.07 2.607-1.424-.652-3.236-.521-4.66 0-2.329.912-3.493 3.128-3.235 5.344-.388-.391-.776-.912-1.164-1.173-.518-.26-.906-.651-1.424-.782-.388-.13-.905-.261-1.294-.391 0-.521-.13-.912-.388-1.303-.13-.261-.906-.522-1.165-.522-.258 0-.258 0-.517-.13-2.718 0-4.4 1.564-5.176 3.389-.389-.13-.518-.13-.518-.13-.776-.131-1.423.13-1.941.651l-.13.131c-.388.391-.388 1.303 0 1.694h-.258c-.259-.651-.906-1.173-1.553-1.173-1.035 0-1.941.522-2.07 1.564 0 .131-.13.522.129.913.906-.261 1.553-.13 2.33.261.905.521 1.034 1.303 1.552 2.085.259-.912 1.812-.651 1.941-.13 0 .13.13.261.13.391.388-.391.776-.652 1.294-.912 1.552-.913 3.623-1.043 5.434-.522 1.165.261 2.2.913 2.977 1.695 1.294-2.477 4.14-4.302 7.376-3.52 1.812.522 3.105 1.695 3.882 3.129a4.582 4.582 0 0 1 1.812-1.695c2.847-1.434 6.211-.912 8.54.782l.26-.261c1.293-1.173 3.105-1.825 4.916-1.825 1.424 0 2.718.392 3.883 1.043 6.987-9.776 23.94-8.082 30.41.913 1.294-2.086 3.623-3.65 6.211-4.563a13.807 13.807 0 0 1 6.858-.521c-.647-.391-1.164-1.043-1.682-1.564-2.588-3.129-2.459-7.3 0-10.429 1.682-2.216 4.53-4.041 7.506-4.562-.777-2.607-.518-5.736 2.07-7.43 2.329-1.564 5.047-1.304 7.506-.391a15.138 15.138 0 0 1 3.493-1.955c1.553-.783 3.236-1.174 4.918-1.565 0-1.043.388-2.085 1.035-2.998 2.718-3.65 8.67-3.65 12.552-1.564 1.941 1.043 3.624 2.868 4.141 5.084.259 1.173.13 2.346-.129 3.519 1.553-.912 3.364-1.303 5.435-.782 1.423.261 2.717 1.043 3.752 1.825l1.553-1.173c1.294-.782 3.365-.652 4.659.13 1.941 1.043 3.753 2.868 3.623 5.084 0 .913-.388 1.825-.906 2.607-.129.13-.129.261-.258.391 0 .131-.13.261-.13.391.388.391.777 1.043.906 1.695 1.165 4.432-1.165 8.603-6.082 10.167-2.2.652-4.788.652-6.988-.13.518.522.906 1.043 1.294 1.564 1.553 2.477 1.424 5.214.388 7.691.259.391.518.782.906 1.043.259-1.564.906-2.998 2.2-4.171 1.941-1.695 4.659-2.216 7.247-1.825 2.458.391 4.529 1.434 5.952 3.389 0-.13.13-.261.13-.391 1.294-2.216 3.882-3.911 6.729-3.911 2.588 0 4.529 1.434 5.694 3.259.258-.391.517-.652.776-.912.906-.782 2.07-1.174 3.235-1.174s2.459.522 3.235 1.304c.518.391.777.912 1.035 1.434.777-.522 1.941-.913 2.847-.913 1.036.131 1.941.261 2.847.783l.13.13c0-.522.647-1.304 1.682-.913.129-.13.388-.26.517-.13 1.812 1.564 4.012 0 3.753-.912 1.682.13 2.459 2.216 4.141 1.564 1.812.652 2.459-1.695.777-1.955Z" fill="#ECF4F8"/><path d="M196.871 356.009c-.259-.391-.777-.651-1.294-.651-.259-.391-.647-.652-1.036-.652-.258 0-.517 0-.647.13l-.258-.26c-.259-.131-.389-.261-.648-.392-.776-.26-1.164.261-1.811.261-.777 0-.518-.13-.906-.782-.129-.13-.259-.391-.388-.521-1.165-1.174-3.106-1.174-4.271-.261-.388.261 0 .652.389.521.258-.13.517-.26.776-.26-.129 0-.259.13-.388.13-.259.13 0 .391.259.391.517-.13 1.035-.13 1.553.13.388.261.517.522.776.913.129.261.647.261.647-.13 0-.131 0-.261-.129-.392.129.392.258.783.517 1.043.259.391.388.391.777.391.129 0 .388 0 .517-.13.518-.261 1.165-.261 1.812 0 0 0 .129 0 .129.13-.129 0-.259.131-.388.261-.388.391.259.913.647.521.13-.13.518-.26.777-.13 0 .13.129.261.129.261.129.13.259.13.259.261 0 .26-.13.521-.518.912s.259.912.777.652c.388-.261.647-.652.776-1.043.259-.261.776-.13 1.035-.521.259-.261.259-.522.13-.783ZM18.423 349.752c-.518-.651-1.812-.782-2.588-.651-.777.13-1.424.521-1.941 1.173-2.718-1.695-6.6-.652-7.118 2.737 0 .261.518.522.647.131 1.036-2.608 4.53-3.52 6.6-1.304.518.521 1.553-.13 1.035-.652l-.388-.391c.518-.391 1.035-.521 1.682-.652.647 0 1.165.261 1.812.391.13.131.518-.521.259-.782ZM156.238 328.374c-.129-.521-.259-1.173-.518-1.694-.129-.522-.129-1.043-.517-1.434-.13-.13-.259-.391-.518-.521-.517-.783-1.164-1.956-2.2-1.695-.258 0-.258.261-.129.391-.129 0-.129.13-.129.261 0 0 0 .13.129.13-.129.13-.129.391.129.391.13 0 .259.131.259.131 1.165 1.564 2.2 2.867 2.329 4.823.13 2.216-.647 4.171-1.811 5.996-.259.391.517.652.776.261 1.294-2.086 1.941-4.563 1.682-6.779.389.131.518 0 .518-.261ZM127.639 306.736c-3.882-1.695-8.541-2.998-12.552-1.173-.777.391-1.424.782-1.941 1.173 0 0 0-.131.129-.131.13-.13-.129-.391-.259-.26-.647.521-1.164 1.173-1.553 1.825.259-.522.389-1.043.777-1.434.388-.522-.388-1.043-.777-.522-.258.391-.517.783-.647 1.174-.129 0-.258 0-.258.13v.13c-.259 0-.389.131-.389.391 0 .522 0 1.043.13 1.434-.13.782 0 1.564.129 2.347 0 .13.13.13.13.26 0 .652 0 1.304.129 1.825 0 .261.129.522.129.782 0 .131.13.131.13.131.259.26.647.13.647-.261 0-.652-.13-1.434-.13-2.216.389-2.737 1.942-5.084 5.177-5.996 3.623-1.043 7.117.26 10.481 1.564.777.261 1.294-.782.518-1.173Z" fill="#fff"/><path d="M189.236 354.967c.13-1.434-3.235-2.738-3.623-1.043 0 .13.129.261.259.261.129.13.258.13.258 0 .259-.261.906-.261 1.294-.131.13 0 .259.131.389.261 0 .13 0 .261.129.391l.129.13v.131c0 .13.13.13.13.13 0 .261-.518.13-.388-.13 0-.261-.389-.391-.518-.131-.259.782.647 1.434 1.423.913.13-.131.259-.261.389-.522v-.13c0 .13.129.13.259.13h.129c-.129.131 0 .391.129.391.13.131.259.131.389 0 .129.391.647.261.647-.13.129-.652-.906-1.173-1.424-.521ZM195.318 356.531a.719.719 0 0 0-.388-.652c-.259-.261-.906-.391-1.294-.261-.259-.651-1.165-.26-1.424 0-.129.131 0 .131 0 .261-.129.261-.129.652.259.782h.129c.13.261.518.261.777 0 0 .131.129.261.259.391.129.131.258.131.388.131 0 .391.129.651.647.651.259 0 .517-.13.517-.391.259-.26.389-.651.13-.912ZM155.332 334.11c-.259-.261-.777-.261-.906 0-.259.261-.388.652-.647.913a3.042 3.042 0 0 1-.906.912c-.259.261.129.652.388.521.388-.13.777-.521 1.165-.782.129-.13.259-.391.388-.521 0-.13.129-.13.129-.261.518 0 .647-.391.389-.782ZM16.482 351.447c-.906-.261-2.588-.13-2.717.913 0 .26.258.391.517.13.26-.261.777-.391 1.165-.391l-.13.13v.391c.13.131.13.131.26.131.776.13 1.811 1.042 2.2 1.694.258.391 1.034.131.905-.391.13-1.173-.776-2.346-2.2-2.607ZM1.212 355.749c-.517.13-.906.391-1.294.782-1.682-1.043-6.6 1.173-3.623 3.78.517.391 1.164-.261.647-.782-1.941-1.825 2.2-2.868 2.588-2.086.13.391.776.391.906 0 .259-.521.647-.782 1.035-1.173.13-.26 0-.652-.259-.521Z" fill="#ECF4F8"/></g><g clip-path="url(#m)"><path d="M676.398 343.868c-2.476-1.209-5.303-.974-7.964-.741a93.687 93.687 0 0 1-20.982-.474c-.395-.047-.646.185-.741.492-1.865 1.341-3.464 3.39-4.375 5.452-1.175 2.664 1.739 3.822 3.824 4.375 2.658.708 5.456.699 8.178.514 3.037-.185 6.062-.479 9.068-.771 3.134-.306 6.264-.65 9.382-1.102 1.367-.195 2.776-.358 4.127-.698.991-.244 1.994-.71 2.497-1.654 1.172-2.203-1.189-4.514-3.014-5.393Z" fill="#CD9975"/><path d="M647.421 342.546c-1.564.421-2.876 1.901-3.868 3.105-.538.634-.997 1.314-1.434 2.029-.357.595-.926 1.289-.677 1.998.059.196.259.321.448.354.039.014.66.09.694.068.926-1.288 2.425-3.399 2.866-3.912.897-1.063 2.069-1.992 2.845-3.134.16-.221-.641-.572-.874-.508ZM678.249 344.651c-.771-.741-1.887-1.738-3.044-1.641-.331.019-1.145.519-.939.699 1.122.885 2.437 2.155 3.145 2.83.667.642 1.126.922 2.002 1.282.195.088.477-.037.505-.28.114-1.102-.917-2.164-1.669-2.89Z" fill="#815950"/><path d="M635.234 309.271c-.039-1.306-.352-3.208-1.221-4.473-.819-2.434-4.213-4.054-6.495-4.713-2.318-.655-4.728-.654-6.884.26a10.08 10.08 0 0 0-.976.371c-2.554 1.162-4.479 3.433-5.496 6.024-.201.503-.347 1-.49 1.534-2.172 6.065 2.467 13.65 9.517 14.183 4.359.346 8.678-2.22 10.562-6.13 1.053-2.115 1.572-4.685 1.483-7.056Z" fill="#F4C882"/><path d="M634.109 303.532c-5.002-5.107-10.151-4.272-10.261-4.26-1.88.088-3.791.715-5.202 1.985-1.126.998-2.222 2.583-1.422 4.059.211.382.832.624 1.207.341 4.198-2.977 10.405-3.325 14.086.624.656.7 2.37-2.267 1.592-2.749Z" fill="#FDE5C7"/><path d="M631.254 310.267c-.768-2.163-3.627-2.996-5.776-2.988-2.389.018-5.103 1.716-6.009 3.98-.675 1.702-.142 3.745 1.485 4.517 4.68 2.8 7.177-2.86 8.152.608.227.842.894.839 1.162.106a24.94 24.94 0 0 0 1.233-5.532c.04-.3-.063-.546-.247-.691Z" fill="#D39C53"/><path d="M636.101 306.661c-1.178-4.903-5.772-8.248-10.795-8.406-5.32-.161-10.229 3.082-12.223 7.964-2.008 4.92-.846 10.969 3.3 14.441 2.113 1.767 4.765 2.421 7.488 2.402 2.482-.01 7.154-1.768 9.062.466.045.069.147-.017.12-.087-2.165-3.497-7.576-1.396-10.941-1.967-5.278-.922-8.656-6.088-8.18-11.274a11.14 11.14 0 0 1 9.484-10.01c5.05-.731 9.587 2.436 11.867 6.769.237.452.928.169.818-.298Z" fill="#815950"/><path d="M626.704 306.51c-1.959-.272-3.942.215-5.482 1.482-1.269 1.051-2.494 2.965-2.001 4.661.06.196.324.24.433.061.754-1.176 1.177-2.332 2.271-3.289 1.4-1.196 3.225-1.61 5.012-1.225 3.537.772 5.642 4.073 6.039 7.516.017.145.235.102.256-.03.582-4.275-2.005-8.536-6.528-9.176Z" fill="#815950"/><path d="M685.179 317.511c1.701 3.975 5.894 6.74 10.253 6.605 7.055-.224 12.061-7.595 10.183-13.746a11.387 11.387 0 0 0-.4-1.541c-.897-2.628-2.708-4.984-5.21-6.264a16.413 16.413 0 0 0-.957-.425c-2.101-1.012-4.507-1.141-6.851-.574-2.31.543-5.773 2.014-6.719 4.412-.917 1.213-1.326 3.125-1.437 4.411-.192 2.348.2 4.942 1.138 7.122Z" fill="#F4C882"/><path d="M685.443 304.708c5.237-4.887 10.347-3.816 10.459-3.811 1.874.172 3.737.898 5.094 2.218 1.068 1.058 2.089 2.675 1.236 4.12-.234.378-.86.58-1.227.29-4.054-3.168-10.244-3.8-14.107-.013-.701.671-2.238-2.363-1.455-2.804Z" fill="#FDE5C7"/><path d="M687.976 311.559c.884-2.133 3.75-2.833 5.914-2.714 2.388.13 5.026 1.948 5.812 4.257.59 1.741-.051 3.734-1.711 4.443-4.799 2.585-7.042-3.192-8.165.242-.276.825-.947.792-1.163.042a24.35 24.35 0 0 1-.961-5.593c-.036-.309.085-.545.274-.677Z" fill="#D39C53"/><path d="M683.309 307.742c1.406-4.832 6.158-7.984 11.173-7.899 5.328.068 10.067 3.544 11.827 8.509 1.766 5.02.325 11-3.985 14.285-2.198 1.675-4.88 2.206-7.603 2.06-2.481-.138-7.064-2.101-9.077.051-.049.061-.151-.019-.102-.08 2.333-3.389 7.627-1.047 11.025-1.477 5.315-.687 8.925-5.7 8.698-10.879a11.087 11.087 0 0 0-8.99-10.424c-5.003-.954-9.703 2.007-12.182 6.225-.251.398-.917.087-.784-.371Z" fill="#815950"/><path d="M692.7 308.004c1.98-.191 3.938.395 5.407 1.72 1.22 1.096 2.359 3.087 1.771 4.742-.07.193-.344.224-.439.051-.694-1.194-1.054-2.389-2.115-3.392-1.331-1.249-3.149-1.741-4.949-1.44-3.583.598-5.825 3.81-6.375 7.233-.02.15-.232.082-.246-.045-.385-4.293 2.381-8.434 6.946-8.869Z" fill="#815950"/><path d="M691.997 321.966c-.6-3.751-1.78-7.38-3.312-10.858-1.535-3.496-3.435-7.429-6.227-10.097-.02-.016-.041-.032-.059-.03-1.083-1.517-2.319-2.907-3.686-3.986a20.405 20.405 0 0 0-4.298-3.194c-2.994-1.685-7.406-3.132-11.092-2.466a31.03 31.03 0 0 0 1.403-1.011c1.466-1.111 4.035-2.626 3.955-4.758-.061-1.654-1.709-2.442-3.155-1.795-1.11.498-1.99 1.541-2.88 2.345-.82.759-1.739 1.474-2.492 2.336 1.025-1.558 1.266-3.967 1.353-5.619.122-2.155-1.225-3.218-3.406-2.689-2.29.559-1.658 3.144-1.277 4.835.366 1.564.411 3.072 0 4.652-.05.209-.137.422-.223.635-1.158.89-2.404 1.495-3.928 1.782-1.865.382-3.762.49-5.579 1.125-3.243 1.131-6.035 3.281-8.319 5.815-3.729 4.141-7.551 9.566-8.875 15.274-.763 2.063-1.23 4.277-1.544 6.214-.582 3.464-1.204 7.707.307 11.002a.588.588 0 0 0 .351.311c.161.11.364.105.541.029a.733.733 0 0 0 .41-.305c.107-.197.211-.412.3-.607-.219 1.797 1.131 4.336 1.829 5.566.326.571 1.131.478 1.405-.033 1.009 1.507 2.146 2.853 3.709 4.02 1.036.784 2.181 1.39 3.37 1.899a8.422 8.422 0 0 0 1.859.524c.866.435 1.767.7 2.621.712.446.004.749-.585.398-.895-.956-.886-2.269-1.344-3.372-2.065a18.423 18.423 0 0 1-3.517-3.009 17.755 17.755 0 0 1-4.34-8.69c-.721-3.83-.195-7.785.819-11.52.455-1.677 1.004-3.346 1.769-4.911.226-.451.472-.885.739-1.304 1.274-1.642 2.413-3.342 4.036-4.693 1.709-1.415 3.704-2.439 5.888-2.95 2.511-.567 5.305-.447 7.601.82 2.061 1.146 2.721 3.008 4.122 4.71.237.287.816.164.884-.213l.025-.261a4.21 4.21 0 0 0 .292-.2c.598-.438 1.084-1.048 1.66-1.52a13.645 13.645 0 0 1 3.215-2.014c2.218-1.013 4.746-1.435 7.149-1.011 2.214.39 4.325 1.494 5.952 3.06 1.043 1.005 1.647 2.227 2.357 3.4.212.548.476 1.071.665 1.585.729 1.817 1.458 3.634 2.061 5.483a37.453 37.453 0 0 1 1.247 4.858c.334 1.771.323 3.599.639 5.372-.237 3.239-1.008 6.355-2.933 9.106-2.164 3.092-5.546 5.587-9.208 6.619-.646.186-.393 1.098.244.987 3.237-.54 6.387-1.347 9.066-3.354 1.176-.893 2.377-2.047 3.207-3.361.222.473 1.013.584 1.288.073.377-.745 1.454-2.66 2.04-4.481.187.329.421.597.747.689.888.303 1.415-.588 1.726-1.27 1.406-3.226 1.004-7.351.473-10.668Z" fill="#CD9975"/><path d="M680.702 310.831c-.045-.069-.123-.097-.194-.07-.043-.051-.07-.122-.112-.172-.88-1.357-2.077-3.212-3.567-4.239a9.968 9.968 0 0 0-3.345-1.995c-2.801-.987-5.877-.65-8.552.582-1.971.91-4.309 2.491-5.216 4.589-.809-3.155-4.059-5.29-7.215-5.811-4.515-.734-9.214 1.433-12.565 4.349-3.622 3.15-5.443 8.566-6.343 13.136-.889 4.496-.547 9.385 2 13.299a13.804 13.804 0 0 0 3.966 4.008c2.34 2.923 6.768 4.35 10.167 5.046 5.012 1.027 10.41 1.548 15.51 1.088 4.716-.416 9.347-1.892 13.173-4.715 2.733-2.014 5.853-5.493 6.063-9.135.118-.42.2-.836.277-1.288 1.615-6.24-.518-13.635-4.047-18.672Z" fill="#F4C882"/><path d="M677.446 331.288c-.052 2.277-1.956 4.084-4.242 4.034a4.134 4.134 0 0 1-4.046-4.221c.052-2.276 1.956-4.083 4.242-4.034 2.288.068 4.099 1.945 4.046 4.221Z" fill="#FFA48F"/><path d="M665.383 332.442c-.027-.071-.104-.099-.173-.054-.898.731-1.196 2.002-1.967 2.867-1.049 1.191-2.473 2.02-4.053 2.147-1.744.146-3.134-.653-4.196-1.988-.305-.39-2.141-2.651-1.917-3.12.014-.038-.009-.072-.045-.068-1.29.389-.243 2.39.136 3.103.95 1.81 2.511 3.291 4.575 3.662 1.931.349 3.956-.254 5.417-1.567 1.175-1.059 2.821-3.335 2.223-4.982Z" fill="#815950"/><path d="M658.343 344.016c-5.081-.336-10.752-2.413-14.446-5.991-3.735-3.611-4.997-8.596-4.951-13.659.023-3.325.564-6.507 1.94-9.361 1.105-1.18 1.701-2.762 2.803-3.978a12.919 12.919 0 0 1 4.026-3.012c1.598-.775 3.379-1.24 5.158-1.242.928.003 1.867.116 2.739.44.717.268 1.292.755 2.033.91.075.01.144-.035.154-.11.043-.91-.624-1.552-1.451-1.974a3.2 3.2 0 0 0-1.252-.889c-1.28-.646-2.936-.86-4.205-.935-2.431-.181-4.895.307-7.044 1.441-2.289 1.206-4.301 3.044-5.924 5.04-.585.714-1.18 1.502-1.657 2.351-1.077 1.749-1.776 3.878-2.18 5.512-.922 3.577-1.24 7.564-.469 11.185.71 3.424 2.71 6.294 5.411 8.493 1.513 1.227 3.203 2.214 4.967 3.043.823.385 1.664.768 2.534 1.074a7.498 7.498 0 0 0 1.506.361c3.173 1.313 6.662 1.667 10.345 1.463.074-.009.075-.156-.037-.162Z" fill="#E5B46C"/><path d="M684.914 322.913a18.38 18.38 0 0 0-.284-1.979c-.903-4.768-3.38-10.481-7.361-13.657-2.121-1.988-4.803-3.229-8.136-3.195-.037.004-.065.082-.01.075 9.918 1.771 13.459 13.655 12.537 22.362-.981 9.158-8.237 15.663-16.798 17.297-1.644.209-3.956.254-5.368.381-.037.004-.028.077.01.091 2.222.777 5.02.287 7.298-.05a25.884 25.884 0 0 0 2.432-.447c1.616-.297 3.181-.865 4.706-1.466 2.767-1.077 5.172-2.406 7.074-4.712 3.056-3.712 5.011-9.734 3.9-14.7Z" fill="#FDE5C7"/><path d="M665.516 323.475c-.322-.535-.874-.988-1.434-1.182-1.35-.453-2.672.142-3.941.547-1.411.459-2.33.048-3.601-.525-.587-.264-1.171-.511-1.822-.528-1.58-.039-3.863 2.348-1.999 4.2.147.149.819-.778.81-1.017.001-.148 3.996 1.384 6.274 1.361.833-.004 1.64-.245 2.395-.609a.632.632 0 0 0 .156-.092c.736-.048 1.458-.057 2.192-.124.055.16.094.34.134.52.116.522.479.775.809.424.834-.964.757-2.266.027-2.975Z" fill="#E5B46C"/><path d="M664.523 325.472c-.68-.752-1.946-.956-2.843-.539-.14.072-.604.384-.934.736-.415.103-.843.245-1.27.239-.389.008-.775-.132-1.146-.293-.196-.254-.508-.384-.981-.791-.718-.6-1.737-1.073-2.659-.708-1.047.398-1.455 1.682-1.282 2.696.108.615.488 1.18.959 1.568.204.161.628.297.777-.015.187-.465-.447-1.942.88-2.335.341-.095.702.14 1.026.379.147.149.308.26.487.369.021.016.039.014.059.03.538.325 1.172.51 1.827.564.766.059 1.896-.274 2.352-.973l.214-.08c.197-.06.948.186.958.59-.007.426-.023.446-.223.801-.311.516-.383.857-.297 1.438.014.127.151.185.261.172.402-.046.658-.076.976-.371.351-.336.64-.72.87-1.134.347-.686.583-1.692-.011-2.343Z" fill="#FDE5C7"/><path d="M656.67 324.072c-.939-.427-2.127-.603-3.011.09-1.531 1.192-1.135 4.136.903 4.454.057.012.102-.085.061-.117-.866-.916-1.452-3.266.154-3.802.731-.251 1.57.114 2.204.465.118.06.838.513.959.277.262-.621-.897-1.188-1.27-1.367ZM664.647 324.609c-.689-.511-1.552-.596-2.35-.282-.639.24-1.622.722-1.816 1.446-.036.171.097.358.276.301.952-.258 1.71-1.084 2.796-.822 1.486.345.602 2.478.041 3.244-.032.041.031.107.084.083.806-.407 1.412-.773 1.755-1.661.297-.791-.138-1.83-.786-2.309Z" fill="#815950"/><path d="M657.643 328.334c-.04-.826-.672-1.805-.827-2.027-.244-.341-.789-.407-1.138-.219-.491.241-.631.793-.428 1.268s.515.771.935 1.036c.202.143.386.288.602.392.077.028.156.074.215.104.159.093.797.314.641-.554ZM663.106 326.836a.895.895 0 0 0-1.195-.397c-.438.216-.692.744-.906 1.138-.2.355-.463.81-.414 1.229.027.237.263.357.473.407.417.081 1.06-.289 1.385-.529.547-.396.995-1.167.657-1.848Z" fill="#815950"/><path d="M662.563 285.719c-.609.827-3.377 4.303-3.674 4.301-.297-.003-.254-.599-.143-1.239.221-1.133.182-2.273.013-3.416-.288-1.85-1.485-4.351 1.037-5.306.037-.005.03-.059-.008-.073-2.228-.186-3.572.375-3.269 2.518.259 1.761.801 4.522.395 6.304-.288 1.196-1.08 2.044-1.629 3.068-3.021-.316-6.626 1.208-9.204 2.484-3.087 1.519-5.883 3.633-8.246 6.121-3.653 3.836-6.311 8.426-7.699 13.422-2.555 5.648-3.201 11.924-1.972 18.076.135.686 1.275.923 1.585.241l.4-.876c.105.431.247.857.364 1.231.41 1.3.815 3.044 1.905 3.97.473.407 1.184.14 1.226-.455.816 1.603 2.577 3.209 3.562 4.036 1.108.925 2.908 2.064 4.675 2.598.768.391 1.527.544 2.199.263.164-.019.327-.056.489-.093.145-.036.199-.208.093-.325-.47-.536-1.136-.847-1.816-1.119-.282-.189-.581-.376-.865-.583-1.238-.928-2.323-1.984-3.347-3.139-1.068-1.224-2.016-2.536-2.949-3.868-.421-.597-.812-1.253-1.27-1.846a21.115 21.115 0 0 1-1.064-6.005c-.089-2.537.192-5.08.721-7.559.352-1.609.941-3.246 1.288-4.892.255-.528.488-1.072.702-1.632a34.386 34.386 0 0 1 2.643-5.362 27.426 27.426 0 0 1 7.229-7.702c2.825-2.024 5.963-3.42 9.306-4.323 1.097-.293 3.155-.771 4.264-1.766.052-.025.123-.052.176-.076 1.003-.467 2.025-1.249 2.472-2.187 3.529-6.037 5.011-6.208 5.981-6.32-1.201-1.726-3.824-.85-5.57 1.529Z" fill="#9F6944"/><path d="M648.988 298.177c-.605.052-1.157.411-1.634.78-.425.326-.924.826-.838 1.407.015.128.155.222.265.209.482 0 .861-.413 1.215-.712.406-.342.891-.638 1.233-1.047.178-.223.127-.661-.241-.637ZM645.439 300.507c-.394.119-.742.16-1.105.386-.347.206-.665.501-.946.792-.346.373-1.258 1.308-.768 1.861.49.552 1.066-.4 1.303-.76.241-.323.5-.648.781-.939.314-.331.544-.746.86-1.059.116-.124.019-.316-.125-.281ZM649.055 300.218c-.536.173-1.001.319-1.42.7-.335.315-.855.947-.521 1.426.353.494.918-.235 1.106-.534.283-.439.596-.936 1.005-1.242.189-.133.025-.428-.17-.35ZM688.179 316.187c-.204-.327-.673-.051-.523.282.983 2.249 1.469 4.851 1.767 7.271.019.164.277.153.315.001.552-2.759-.077-5.159-1.559-7.554ZM687.675 320.805c-.111-.32-.562-.212-.522.134.295 2.236-.3 4.464-.395 6.69.003.184.259.321.389.158 1.672-2.057 1.377-4.607.528-6.982ZM689.596 325.252c-.078-.36-.607-.28-.622.072-.037.964-.202 1.943-.371 2.885-.119.734-.313 1.458-.152 2.214.048.253.412.359.595.172 1.253-1.345.87-3.7.55-5.343Z" fill="#9F6944"/><path d="M667.961 284.468c-.55-.269-1.105-.094-1.035.507.019.164-.893 3.186-3.495 5.369 4.547-.913 6.669-4.849 4.53-5.876Z" fill="#CD9975"/><path d="M692.514 322.755a43.995 43.995 0 0 0-3.897-13.522c-2.012-4.253-4.75-8.219-8.065-11.564-5.774-6.495-15.218-6.733-15.704-6.769 3.057-1.46 5.607-3.619 4.391-6.598-.874-2.114-3.125-2.186-4.806-1.014-1.081.753-1.938 1.682-2.69 2.711 1.167-3.218 1.193-7.005-2.471-6.95-1.759.018-3.857.63-3.67 2.731.144 1.57.756 3.013.902 4.602-.369-1.914-.776-3.509-3.122-3.275-1.044.102-1.14 1.682-.048 1.666 1.889-.015 2.538 2.716 2.456 4.257-.026.575-.158 1.2-.344 1.83-.517.337-1.21.436-1.853.491l-.018.002c-5.005.32-8.584 1.435-13.142 5.302-3.595 3.055-6.4 7.015-8.606 11.183a43.487 43.487 0 0 0-4.54 13.334c-.636 3.802-1.451 9.101 1.605 12.126.375.362.891.174 1.082-.254 0 0-.002-.019.017-.021.272 2.036 1.235 3.955 3.118 5.011a.416.416 0 0 0 .512-.059c1.239 1.74 3.616 3.218 4.952 3.876 3.223 1.584 7.373 3.006 11.04 2.657 2.88.7 6.438 1.175 10.793 1.171 3.02-.017 12.998.03 19.85-2.755 1.358-.6 3.815-1.954 5.122-3.637a.443.443 0 0 0 .509.071c1.928-.961 2.99-2.838 3.35-4.854l.002.018c.163.443.688.659 1.073.301 3.203-2.918 2.644-8.243 2.202-12.068Zm-32.501 21.123c-13.492-.139-19.337-5.647-21.801-8.039-2.588-2.507-3.89-5.753-4.092-9.273-.344-6.347 1.703-13.819 6.529-18.252 2.665-2.449 6.305-3.995 9.955-3.845 1.845.082 3.685.608 5.212 1.632 1.529 1.041 2.44 2.505 3.393 4.019.013.109.082.23.18.274.135.206.347.44.469-.109.671-1.573 3.063-3.658 5.395-4.647 2.81-1.192 6.318-1.634 9.113-.222 4.902 2.479 7.485 7.995 9.014 13.042 1.612 5.295 1.501 11.713-1.276 16.556-3.072 4.859-8.601 8.986-22.091 8.864Zm29.876-10.631c-.176-.238-.372-.492-.532-.75-.222-.325-.787-.242-.792.202-.012 2.142-1.03 3.755-2.424 5.171a2.581 2.581 0 0 0 .043-1.555c-.006-.055-.061-.049-.096-.026-1.111.811-1.703 2.264-2.781 3.2-1.384 1.176-2.984 1.932-4.689 2.572-1.99.747-4.076 1.468-6.182 2.007 4.121-1.233 7.326-3.172 9.331-5.711 3.185-4.041 4.814-8.235 4.56-13.318-.243-4.992-2.022-10.287-4.836-14.429-2.567-3.764-6.134-7.69-10.982-7.61-3.718.061-9.053 1.858-10.814 5.55-.663-2.212-3.015-3.952-5.076-4.785-3.091-1.248-6.622-1.007-9.692.179-7.005 2.747-10.699 9.763-11.753 16.843-.541 3.662-.824 7.792.455 11.318 1.297 3.523 4.19 6.585 7.244 8.632a24.038 24.038 0 0 0 3.564 1.969 81.15 81.15 0 0 1-4.195-1.657c-1.658-.712-3.235-1.527-4.566-2.776-1.039-.969-1.563-2.459-2.626-3.315-.041-.032-.077-.027-.089.029-.181.52-.177 1.036-.043 1.556-1.321-1.49-2.271-3.134-2.184-5.267.023-.445-.545-.546-.767-.225-.176.242-.371.486-.567.711-2.11-3.503-1.226-8.367-.423-12.17a41.96 41.96 0 0 1 4.44-11.79c2.013-3.592 4.54-6.911 7.528-9.766 5.377-4.645 9.905-5.242 12.334-5.393.59-.032 2.022-.308 2.091-.353 3.123-1.523 2.401-6.497 1.735-9.207-.202-.789-.335-.977.05-1.815.402-.858.66-.87 1.544-.917 1.031-.063 1.901-.072 2.276 1.251.159.572.079 1.32.034 1.897-.19 2.366-1.254 4.224-2.1 6.371-.073.174.159.258.279.17 1.016-.191 3.877-3.991 4.63-4.687.452-.422.944-.977 1.515-1.172.981-.335 2.471-.267 2.726.977.491 2.324-2.391 3.691-3.983 4.669-1.853 1.136-3.627 2.467-5.696 3.168-.036.004-.028.077.009.073a34.49 34.49 0 0 0 4.017-1.166c2.961-.046 9.214 1.612 11.434 2.703 2.103 1.031 4.507 2.747 6.109 4.426 2.849 2.993 5.208 6.412 7.042 10.095a42.215 42.215 0 0 1 3.868 11.975c.647 3.838 1.306 8.746-.97 12.146Z" fill="#815950"/><path d="M631.85 315.901c-.008-.073-.072-.139-.141-.095-.584.4-.835 1.112-1.095 1.751-.316.794-.672 1.721-.592 2.579.028.237.321.369.479.129.426-.64.573-1.45.804-2.178.236-.692.613-1.437.545-2.186ZM632.434 317.587c-.917 2.173-1.248 4.279-.723 6.581.035.143.279.171.315 0 .38-2.166.537-4.344.746-6.546.015-.186-.264-.191-.338-.035ZM630.602 322.432c.062-.266-.322-.388-.403-.12-.355 1.093-.693 2.184-.763 3.337-.055 1.132.202 1.914.619 2.955.053.142.267.062.27-.068 0-.96.096-1.894.076-2.87-.032-1.085-.008-2.158.201-3.234Z" fill="#805335"/><path d="M648.576 330.563c-.052 2.276-1.956 4.083-4.242 4.033a4.133 4.133 0 0 1-4.046-4.22c.052-2.277 1.956-4.084 4.242-4.034 2.288.068 4.099 1.944 4.046 4.221Z" fill="#FFA48F"/><path d="M650.64 322.277c-.159-.739-.39-1.451-.797-2.086-.88-1.357-2.139-2.153-3.683-2.196-1.635-.033-3.313.844-4.166 2.29-.45.753-1.678 3.442-.318 3.821.152.037.357-.115.359-.263.005-.112.179-.372.209-.431.797-1.291 1.311-2.772 2.94-3.274.788-.239 1.152-.299 2.341.21 1.208.506 1.777 3.504 2.563 3.893a.333.333 0 0 0 .366-.042c.539-.468.315-1.291.186-1.922ZM676.427 320.534c-.963-1.273-2.409-1.918-3.999-1.882a6.135 6.135 0 0 0-3.931 1.599c-.873.783-2.004 2.225-1.452 3.471.076.176.301.205.433.061.312-.35.542-.764.774-1.16.511-.557 1.057-1.119 1.68-1.505.917-.567 2.011-.564 3.041-.314.859.215 1.688.654 2.282 1.305.723.803.802 1.643 1.048 2.648a.506.506 0 0 0 .453.391.376.376 0 0 0 .577-.141c.551-1.485.034-3.234-.906-4.473Z" fill="#D89E50"/><path d="M650.21 322.252c-.254-.598-.561-1.172-.988-1.658-.876-1.006-2.155-1.486-3.507-1.311-1.242.162-2.398.904-3.136 1.894a5.967 5.967 0 0 0-.864 1.669c-.165.499-.42 1.174-.018 1.608.233.25.708.195.756-.198-.003-.018-.005-.037.012-.057-.004-.35.378-.893.548-1.189.249-.417.536-.819.868-1.153.614-.624 1.403-1.011 2.271-1.037.923-.033 1.608.442 2.103 1.197.45.686.818 2.102 1.776 2.212.132.022.293-.033.355-.133.378-.579.077-1.264-.176-1.844ZM676.536 323.715c-.147-.629-.333-1.272-.677-1.841-.71-1.173-1.945-1.917-3.385-2.027a5.288 5.288 0 0 0-3.7 1.184c-.491.407-.952.904-1.28 1.44-.281.457-.693 1.058-.374 1.575.182.293.707.343.85-.024.016-.021.014-.039.012-.057.072-.341.595-.789.844-1.039a6.423 6.423 0 0 1 1.17-.947c.779-.478 1.68-.693 2.608-.523.985.181 1.591.776 1.949 1.621.33.774.405 2.223 1.368 2.536.134.04.301.039.4-.064.519-.485.359-1.223.215-1.834Z" fill="#815950"/><path d="M649.207 349.667c-1.967-1.951-5.624-2.156-8.083-1.3-2.941 1.023-5.502 5.324-5.605 8.289-.035 1.296 1.542 6.448 3.41 3.685.364-.54 2.059-5.442 2.794-4.863 1.362 1.043 1.216 3.311 2.516 4.453.432.375 1.933-.112 1.988-.765.131-1.27.095-2.539-.052-3.814-.143-1.239-.742-3.053.785-1.549 1.151 1.14 2.315 3.35 4.252 3.274 4.317-.185.768-6.032-2.005-7.41Z" fill="#F4C882"/><path d="M641.029 354.119c-1.152-.827-2.019 1.138-2.374 1.917-.49 1.053-.8 2.861-1.988 3.33-.492-.09-.749.419-.615.773.019.164.074.323.215.418 1.501 1.119 2.81-.546 3.291-1.838.483-1.274.523-3.014 1.499-4.031.134-.126.153-.442-.028-.569ZM646.543 356.933c.046-1.371-.121-2.976-.551-4.292-.062-.214-.29-.262-.465-.168-.858.431-.743 1.913-.764 2.691-.019.796.298 2.42-.393 3.017-.336.297-.145.829.193 1.03 1.47.845 1.961-1.316 1.98-2.278ZM651.747 351.921c-.022-.034-.047-.087-.069-.121-1.661-2.503-4.936-4.377-8.008-3.856-.092.011-.169.149-.087.213 1.772 1.383 4.175 1.641 5.664 3.462.456.575 2.222 2.863 1.329 3.317-.299.145-.472.571-.454.883l.006.054c.017.312.21.696.519.808 4.183 1.547 3.206-4.985 1.1-4.76Z" fill="#E5B46C"/><path d="M654.415 354.474c-1.086-3.142-6.042-8.181-9.912-7.18-4.128-.114-7.74 2.481-9.013 6.542-.701 2.277-1.35 8.849 2.652 8.036 1.595-.313 2.109-3.086 2.487-4.311.618-2.028.818-1.257 1.332.142.345.901 1.195 2.003 1.952 2.616 1.208.987 2.738.275 3.298-.971.648-1.459.248-3.314-.11-4.971 1.691 1.484 2.992 3.438 5.549 3.272 1.476-.06 2.207-1.916 1.765-3.175Zm-3.646 1.491a8.942 8.942 0 0 1-1.73-1.498c-.819-.828-1.588-1.552-2.585-2.156-.418-.247-1.004.134-.949.608.175 1.511.493 2.988.574 4.492.234 1.062-1.454 2.974-2.584.41-.279-.651-.866-2.041-1.217-2.665-1.085-2.016-2.173.121-2.723 1.459-.187.464-1.743 5.609-2.828 3.279-.644-1.402-.351-3.521-.076-4.993.426-2.412 1.62-4.266 3.716-5.542 1.126-.684 3.757-1.652 7.205-.371 1.442.609 2.763 1.933 3.834 3.028.466.499.883 1.06 1.229 1.648.836 1.62.026 3.116-1.866 2.301Z" fill="#815950"/><path d="M690.077 351.406c-.765-4.858-5.435-8.379-10.363-6.426a.713.713 0 0 0-.255.196c-2.91.964-4.367 3.753-4.754 7.471-.125 1.159.28 3.382 2.031 2.811 1.232-.401 2.158-1.855 2.889-3.232.417 2.167 1.17 4.996 3.113 4.809 2.346-.234 2.499-3.076 2.446-5.303.749 1.187 1.261 2.567 2.87 2.861 1.949.347 2.232-1.863 2.023-3.187Z" fill="#F4C882"/><path d="M686.913 346.807c-2.429-2.415-7.219-2.637-9.875-.595-.188.133-.097.436.142.427 2.881-.093 5.573-.865 8.144 1.016 1.721 1.259 2.938 3.61 2.397 5.666-.244.933 1.183 1.414 1.623.569 1.287-2.492-.672-5.33-2.431-7.083Z" fill="#E5B46C"/><path d="M684.628 350.135a.407.407 0 0 0-.571.029c-1.254 1.344.072 4.477-1.965 5.303-.761.309-.702 1.299.102 1.52 1.745.5 2.657-1.23 2.963-2.594.253-1.174.446-3.356-.529-4.258ZM679.562 350.24c-.062-.214-.301-.353-.522-.346-1.017.025-1.623 1.683-1.984 2.407-.256.51-.51 1.038-.885 1.487-.261.307-.684.337-1.006.596-.251.232-.209.596-.066.875.312.61 1.184.62 1.73.373.668-.318 1.08-.919 1.438-1.514.388-.654.67-1.425.919-2.155.179-.537.514-1.167.376-1.723Z" fill="#E5B46C"/><path d="M690.922 351.659c-.162-2.196-1.85-5.102-3.817-6.24-1.551-.91-4.667-1.731-6.804-1.134l-.537.007c-1.396.106-2.736 1.183-3.648 2.119-1.709 1.73-2.215 4.409-2.375 6.716-.112 1.6.27 3.458 2.206 3.529 1.73.059 2.642-1.837 3.388-3.566.183 2.065.913 4.214 2.879 4.707 2.654.671 3.224-2.736 3.29-5.216.726 1.466 1.266 2.936 3.533 2.822 1.714-.088 1.973-2.499 1.885-3.744Zm-4.516.227c-.283-.687-.621-1.202-1.161-1.712-.458-.427-1.066.086-.95.608.189.827.188 1.621.061 2.448-.093.638-1.171 4.787-2.86 2.527-.983-1.289-1.099-3.583-.945-5.133.051-.523-.661-1.068-1.061-.523-.9 1.193-1.444 2.584-2.206 3.854-.854 1.427-2.023 1.101-2.085-.406-.03-.734.087-1.486.206-2.22.35-2.108 1.422-4.059 3.248-5.266 1.119-.739 2.37-.662 3.613-.657 1.293.127 2.608.436 3.286.69 1.9.722 2.963 2.704 3.643 4.416a4.26 4.26 0 0 1 .371 1.766c.201 2.708-2.573.998-3.16-.392Z" fill="#815950"/></g><defs><clipPath id="a"><path fill="#fff" transform="rotate(-25.759 164.706 -305.172)" d="M0 0h13.254v4.308H0z"/></clipPath><clipPath id="b"><path fill="#fff" transform="rotate(-63.781 96.027 -90.81)" d="M0 0h13.254v4.308H0z"/></clipPath><clipPath id="c"><path fill="#fff" transform="rotate(-98.002 76.35 -34.13)" d="M0 0h13.254v4.308H0z"/></clipPath><clipPath id="d"><path fill="#fff" transform="rotate(-132.433 63.543 -2.003)" d="M0 0h13.254v4.308H0z"/></clipPath><clipPath id="e"><path fill="#fff" transform="rotate(-165.501 55.598 22.343)" d="M0 0h13.254v4.308H0z"/></clipPath><clipPath id="f"><path fill="#fff" transform="rotate(145.18 45.124 51.597)" d="M0 0h13.254v4.308H0z"/></clipPath><clipPath id="g"><path fill="#fff" transform="rotate(109.589 36.18 78.255)" d="M0 0h13.254v4.308H0z"/></clipPath><clipPath id="h"><path fill="#fff" transform="rotate(76.475 24.85 119.844)" d="M0 0h13.254v4.308H0z"/></clipPath><clipPath id="i"><path fill="#fff" transform="rotate(59.178 17.53 161.736)" d="M0 0h13.254v4.308H0z"/></clipPath><clipPath id="j"><path fill="#fff" transform="rotate(28.753 -26.804 325.72)" d="M0 0h13.254v4.308H0z"/></clipPath><clipPath id="k"><path fill="#fff" transform="translate(110 39.819)" d="M0 0h37v25H0z"/></clipPath><clipPath id="l"><path fill="#fff" transform="translate(-5 301)" d="M0 0h202v70H0z"/></clipPath><clipPath id="m"><path fill="#fff" transform="rotate(-6.589 2778.398 -5147.28)" d="M0 0h94.279v81.08H0z"/></clipPath></defs></svg>