<svg width="181" height="202" fill="none" xmlns="http://www.w3.org/2000/svg"><path d="m69.259 104.485 36.557 3.727-6.533 64.096-36.558-3.727 6.534-64.096Z" fill="#7B868D"/><path d="M27.262 64.001c-3.599 35.306 22.116 66.821 57.389 70.42 17.243 1.757 33.567-3.458 46.223-13.443 13.222-10.323 22.387-25.879 24.229-43.946 5.107-50.108-46.621-85.507-91.05-64.74-19.83 9.22-34.415 28.38-36.791 51.71Z" fill="#FFCA66"/><path d="M39.82 56.237c-5.102 50.075 46.575 85.531 91.05 64.741 13.223-10.323 22.388-25.879 24.229-43.946 5.107-50.108-46.621-85.507-91.05-64.74C50.831 22.617 41.661 38.173 39.82 56.236Z" fill="#FFDC9D"/><path d="M66.242 72.004c.862 13.888 12.763 24.342 26.473 23.508 9.259-.59 17.009-6.152 20.823-13.912 8.49-16.38-4.255-37.358-23.967-36.041-13.33.848-24.234 12.412-23.33 26.445Z" fill="#FFB262"/><path d="M92.484 91.721c7.857-.501 14.431-5.22 17.669-11.803 7.206-13.897-3.613-31.698-20.335-30.582a20.845 20.845 0 0 0-12.37 5.055c-15.374 12.853-5.407 38.581 15.036 37.33Z" fill="#FFCA66"/><path d="M92.042 84.486c7.77-.492 13.565-7.23 13.078-14.904-.731-11.461-14.352-17.168-22.997-9.68-10.214 8.57-3.402 25.433 9.92 24.584Z" fill="#A470EE"/><path d="M95.58 79.96c3.103-.197 5.909-1.368 8.107-3.256 1.096-2.1 1.602-4.54 1.434-7.127-.731-11.46-14.352-17.168-22.997-9.68-4.55 9.526 2.647 20.752 13.457 20.063Z" fill="#BC8EFE"/><path d="M85.559 61.818c.018 1.392 5 1.096 8.682 3.556 3.795 2.235 5.309 5.464 6.742 5.473 1.359.272 2.118-5.168-3.308-9.17-5.5-4.024-12.407-1.377-12.116.141Z" fill="#fff" opacity=".7"/><path d="M8.148 46.135c3.603-17.102 12.609-32.044 26.047-43.21A1.652 1.652 0 0 0 34.41.596a1.655 1.655 0 0 0-2.328-.215C18.067 12.029 8.672 27.613 4.91 45.456a1.654 1.654 0 0 0 3.238.68ZM21.17 48.876c2.7-12.806 9.156-24.285 18.677-33.197a1.657 1.657 0 0 0 .08-2.338 1.652 1.652 0 0 0-2.338-.08c-10.018 9.38-16.817 21.46-19.652 34.936-.454 2.127 2.774 2.853 3.233.68ZM180.957 63.401c-.08-18.226-6.138-35.385-17.515-49.624a1.653 1.653 0 1 0-2.581 2.066c10.903 13.644 16.713 30.1 16.788 47.573.014 2.202 3.317 2.183 3.308-.015ZM167.652 63.458c-.061-13.771-4.282-26.975-12.201-38.178a1.651 1.651 0 0 0-2.305-.394 1.653 1.653 0 0 0-.394 2.306c7.525 10.645 11.531 23.193 11.592 36.284.01 2.203 3.318 2.18 3.308-.018Z" fill="#3D4449" fill-opacity=".28"/><path d="m65.17 144.439-2.46 24.154 36.557 3.725 2.46-24.154c-11.78-2.498-24.51-3.796-36.557-3.725Z" fill="#4B5458"/><path d="M13.768 185.245a3.584 3.584 0 0 0 3.247 3.687l122.903 12.53c1.874.192 3.57-1.102 3.926-2.957.3-1.631.567-3.299.769-4.911 1.246-8.649 1.312-16.788-1.734-20.49-17.73-21.755-84.902-30.432-115.073-17.252-3.097 1.345-5.782 2.901-7.993 4.705-4.39 3.575-5.806 14.206-6.045 24.688Z" fill="#EF8585"/><path d="M23.861 177.926c-.06 1.888 1.373 3.5 3.247 3.687l117.505 11.981c1.246-8.649 1.312-16.788-1.734-20.49-17.73-21.755-84.902-30.432-115.073-17.252-2.75 4.808-3.734 13.485-3.945 22.074Z" fill="#FA8B8B"/><path d="M24.88 165.467c-1.157 4.896-1.373 8.865-1.58 10.529-.041 1.101-.42 2.473.146 3.842.539 1.344 1.804 2.375 3.266 2.652.337.047 11.26 1.527 10.57 1.433 31.164 4.189 69.928 7.019 84.495 7.343-9.928-1.818-25.142-3.73-27.991-4.133-32.218-4.325-68.93-6.621-66.765-6.471-1.316-.145-2.436-1.335-2.446-2.858 0-.333-.037-5.623-.032-5.285.056-2.348.145-4.695.337-7.052Z" fill="#fff"/><path d="M96.285 141.979a2.15 2.15 0 0 0-1.92-2.357l-53.725-5.473c-14.226-1.453-24.618-14.207-23.17-28.432l.655-6.443a2.15 2.15 0 0 0-1.92-2.356c-1.181-.15-2.24.74-2.357 1.92l-.656 6.443c-1.692 16.587 10.425 31.45 27.012 33.141l53.725 5.478a2.15 2.15 0 0 0 2.356-1.921Z" fill="#7B868D"/><path d="M.037 90.269c.6 9.431 8.687 16.554 18.007 15.963 9.446-.6 16.488-8.79 15.898-18.119-.595-9.32-8.682-16.442-18.058-15.842C6.948 72.834-.576 80.654.037 90.27Z" fill="#45BD83"/><path d="M4.34 84.823c.919 14.423 17.754 20.636 27.856 11.949 1.33-2.554 1.945-5.52 1.743-8.664-.595-9.32-8.682-16.442-18.058-15.842-3.772.24-7.183 1.72-9.9 4.077a17.17 17.17 0 0 0-1.64 8.48Z" fill="#5BDDA2"/><path d="M10.165 78.676c.019 1.692 6.078 1.331 10.557 4.325 4.615 2.718 6.452 6.64 8.2 6.649 1.654.333 2.577-6.279-4.02-11.147-6.692-4.892-15.088-1.673-14.737.173Z" fill="#79EDBC"/><g opacity=".5" fill="#fff"><path d="M123.058 166.76c.853.684 1.438 1.537.412 1.921-1.063.403-3.139.047-4.798-.351-4.732-1.129-9.366-2.647-12.529-4.573-3.069-1.874.956-3.233 10.205-.277 2.746.877 5.14 2.029 6.71 3.28ZM99.835 161.976c-10.679-.918-11.424-3.814-3.374-2.549 4.995.787 8.069 2.952 3.374 2.549Z"/></g><path d="M137.992 49.27c-1.345-1.036-2.779-3.81-4.161-6.082-3.767-6.536-9.507-12.539-13.415-17.243-4.634-5.37 9.324-2.24 16.582 10.191 4.423 7.422 3.655 15.19.994 13.134ZM114.514 20.697c-.881.258-3.116-.332-5.047-.806-5.468-1.396-11.545-2.31-16.685-3.153-2.535-.403-3.195-1.246-.38-1.86 11.565-2.409 24.825 5.023 22.112 5.82Z" fill="#fff"/></svg>