<svg width="1162" height="556" fill="none" xmlns="http://www.w3.org/2000/svg"><path d="M34.956 326.254c-3.67-.776-9.272 1.554-11.615 2.815-11.616 2.815-11.486-9.136-5.494-13.3 4.793-3.331 3.625-4.557 2.442-4.754-4.044-2.026-10.915-8.504-6.053-18.209 4.863-9.705 13.876-7.715 17.775-5.507 3.113 1.138 8.44 12.965 12.454 4.55 4.015-8.415 10.944-8.707 14.338-5.115 2.714 2.874-.125 7.64-1.883 9.664-.815 1.585-14.605 7.135-5.277 6.072 9.329-1.063 11.404-.304 15.792 7.651s-7.93 13.337-14.145 15.537c-6.215 2.2-13.747 1.566-18.334.596Z" fill="#C1CFEE"/><path d="M51.232 347.286c7.69 11.504 13.136 24.31 18.963 36.78 1 2.144-2.177 4.096-3.177 1.951-5.832-12.511-11.273-25.276-18.963-36.78-1.28-2.029 1.86-3.935 3.177-1.951Z" fill="#727E99"/><path d="m50.248 351.369 17.34 34.33c6.587 1.074 22.88 6.147 35.355 17.856 15.593 14.636 7.079 21.325 1.237 32.684-7.341 14.272-21.945 16.923-37.333 17.183-15.388.261-32.23-12.243-32.447-31.615-.174-15.497 10.932-26.278 16.507-29.731-5.285-10.008-16.095-30.395-17.06-31.876-1.206-1.852-.659-1.417 6.594-3.238 5.802-1.457 8.956-4.336 9.807-5.593Z" fill="#DCF8C1"/><path d="M28.727 354.199c8.257 12.067 15.323 24.73 21.29 38.062.954 2.109-1.928 4.068-3.177 1.952-.42-.747-.887-1.53-1.308-2.277-1.16-2.085 1.98-3.99 3.177-1.951.42.746.888 1.53 1.309 2.276-1.058.665-2.12 1.288-3.178 1.952-5.967-13.332-13.033-25.995-21.332-38.058-1.317-1.983 1.865-3.893 3.219-1.956Z" fill="#727E99"/><path d="M68.915 382.748c19.538 2.417 39.663 12.923 43.433 33.867 3.818 21.356-14.397 34.975-33.15 39.83-18.26 4.757-37.81-.712-46.74-18.307-8.822-17.399-1.2-37.8 15.212-47.365 2.046-1.196 3.996 1.928 1.955 3.165-15.62 9.14-22.25 28.676-12.662 44.69 9.33 15.584 27.465 18.579 43.722 13.549 17.595-5.434 33.195-18.797 27.065-38.719-5.337-17.378-22.954-25.033-39.683-27.1-2.382-.273-1.534-3.883.848-3.61ZM49.583 346.804c1.139 6.312-7.362 7.949-11.844 9.129-3.75.971-13.148 3.213-13.003-3.621.152-5.664 11.258-7.641 15.424-8.282 3.135-.483 14.567-1.074 10.494 5.538-1.239 2.024-4.54.308-3.302-1.715.39-.63-8.5.174-9.033.276-1.307.316-2.65.679-3.902 1.114-.727.25-4.224 1.234-4.522 1.937.301.802.64 1.559.94 2.361 1.04-.077 2.109-.282 3.13-.524 1.395-.284 2.78-.651 4.124-1.014 1.546-.427 8.39-1.875 7.965-4.128-.434-2.334 3.095-3.405 3.53-1.071ZM55.965 361.929c-2.089.824-4.172 1.689-6.302 2.517-2.208.879-3.244-2.684-1.036-3.563 2.089-.823 4.173-1.688 6.303-2.516 2.208-.879 3.243 2.683 1.035 3.562ZM61.025 369.467c-2.277 1.013-4.517 1.979-6.794 2.991-.92.398-2.06-.393-2.324-1.241-.33-1.05.332-1.878 1.247-2.317 2.235-1.007 4.517-1.978 6.794-2.991.92-.397 2.06.393 2.324 1.241.334 1.092-.327 1.92-1.247 2.317ZM64.255 379.054l-5.785 1.161c-.985.196-1.999-.232-2.324-1.241-.269-.889.262-2.121 1.247-2.317l5.786-1.161c.984-.196 1.999.232 2.323 1.241.274.931-.262 2.121-1.247 2.317Z" fill="#727E99"/><path d="M49.858 418.087c9.608-6.281 22.97-14.621 35.013-13.525 6.697.576 10.887 4.574 4.905 9.898-3.998 3.592-9.923 5.731-14.762 7.83-6.081 2.617-13.643 6.239-20.36 6.585-6.423.356-9.497-4.899-4.48-9.486 1.746-1.621 4.469.913 2.723 2.534 1.264 2.993 3.154 3.74 5.632 2.287.893-.269 1.749-.492 2.641-.761a124.698 124.698 0 0 0 7.757-2.641c4.182-1.605 16.32-5.205 17.322-10.045.974-4.712-5.739-2.484-8.97-1.739-2.41.567-4.743 1.46-7.03 2.39-6.5 2.623-12.579 5.992-18.436 9.838-2.032 1.319-3.946-1.851-1.955-3.165Z" fill="#727E99"/><path d="M91.213 407.185c14.086 13.495 3.08 32.19-13.2 37.015-15.019 4.471-31.745-6.046-29.188-22.65.363-2.341 3.984-1.499 3.621.843-2.121 13.793 12.417 22.05 24.536 18.285 13.252-4.144 23.885-19.117 11.728-30.782-1.781-1.637.763-4.353 2.503-2.711ZM75.846 393.126c4.041-.628 8.143.745 11.069 3.591 1.698 1.647-.846 4.362-2.545 2.715-2.312-2.246-5.26-3.081-8.395-2.598-2.353.351-2.435-3.32-.13-3.708ZM45.187 337.644c-.498-2.16-1.038-4.316-1.53-6.435-.322-1.343.79-2.641 2.209-2.343 7.011 1.502 16.53-3.723 20.389-9.642 6.464-9.938-3.394-23.161-14.406-16.302-2.037 1.278-3.95-1.892-1.955-3.165 10.308-6.403 23.197 1.372 22.273 13.524-.889 11.729-15.927 21.556-27.15 19.195.75-.796 1.461-1.546 2.21-2.342.498 2.16 1.037 4.315 1.53 6.434.522 2.366-3.049 3.442-3.57 1.076Z" fill="#727E99"/><path d="M51.003 298.459c2.82-1.409 6.13-2.915 7.957-5.675 1.973-2.943 1.527-6.49-1.898-8.191-5.735-2.818-13.196.583-12.7 7.512.143 2.368-3.535 2.494-3.72.131-.646-9.714 10.002-14.984 18.143-10.934 4.006 2.011 5.88 5.938 4.694 10.256-1.392 5.094-6.202 7.817-10.608 10.034-2.056 1.113-4.011-2.053-1.868-3.133Z" fill="#727E99"/><path d="M40.034 292.431c-5.599-9.359-17.22-9.332-25.68-4.018-4.35 2.712-7.35 5.48-7.213 10.734.115 3.961 1.26 5.545 3.915 8.212 2.373 2.407 4.634 4.575 8.396 4.439 2.385-.062 2.509 3.605.128 3.708-6.395.227-12.542-5.472-15.465-10.869-3.08-5.672-1.11-11.209 3.306-15.56 10-9.839 27.894-11.919 35.827 1.356 1.165 2.126-2.017 4.036-3.214 1.998Z" fill="#727E99"/><path d="M20.505 315.903c-4.568.06-9.817 5.928-8.438 10.665 1.704 5.745 11.748 4.392 15.694 2.562 2.153-.998 4.104 2.126 1.956 3.165-6.219 2.883-18.663 3.799-21.18-4.656-2.056-7.002 4.886-15.321 11.885-15.408 2.344-.057 2.473 3.65.083 3.672Z" fill="#727E99"/><path d="m31.285 330.945 3.487 8.512c.88 2.2-2.654 3.23-3.575 1.035l-3.488-8.512c-.88-2.2 2.695-3.235 3.576-1.035ZM56.309 309.315c2.222 1.085 3.752 3.462 3.578 5.992-.164 2.611-1.94 4.696-4.356 5.599-2.254.842-3.29-2.721-1.035-3.563 2.295-.847 2.132-3.756.09-4.737-2.176-1.049-.412-4.345 1.723-3.291ZM102.66 154.077l-.696 2.546-.781 3.216 6.6 2.541c.334.125.572.303.715.535.179.293.225.62.138.983-.087.362-.272.631-.557.805-.285.175-.628.195-1.031.06-1.181-.379-3.341-1.178-6.48-2.397l-.807 3.603a69.616 69.616 0 0 0-.796 3.04c-.074.416-.25.71-.527.88-.285.174-.608.218-.971.131a1.27 1.27 0 0 1-.801-.575c-.143-.233-.194-.526-.154-.881.04-.406.162-.939.365-1.6.236-.774.384-1.297.444-1.571l.856-3.974-2.774-1.221c-1.112-.484-2.008-.785-2.689-.904-.44-.08-.753-.27-.937-.569-.183-.3-.242-.63-.174-.991.075-.366.25-.634.528-.804.442-.271 1.463-.103 3.062.504l3.591 1.494.962-3.374c.386-1.422.591-2.475.614-3.16.024-.499.201-.85.531-1.052.292-.179.617-.229.975-.149.358.079.624.261.799.546.252.412.251 1.191-.005 2.338Zm5.616-6.506.958-.556.957-.557c.248-.151.588-.412 1.022-.781.441-.373.777-.631 1.01-.774a.853.853 0 0 1 .731-.093c.263.076.466.23.609.462.422.69-.37 1.65-2.378 2.881-.255.157-.638.381-1.149.674-.504.288-.883.511-1.138.667-.397.243-.787.364-1.17.362-.458-.008-.802-.199-1.032-.574-.606-.989-.729-2.079-.366-3.27l1.286-2.846c.472-1.011.539-1.794.199-2.349-.133-.217-.425-.373-.875-.468-.45-.096-.788-.074-1.013.064-.517.317-.827.718-.931 1.205l-.002 1.207c.001.422-.14.721-.425.895a1.05 1.05 0 0 1-.745.148.894.894 0 0 1-.617-.426c-.441-.72-.429-1.567.034-2.542.409-.88 1.007-1.561 1.794-2.043.704-.432 1.519-.55 2.443-.354.927.184 1.598.613 2.011 1.287.593.967.806 1.903.64 2.809-.084.485-.404 1.274-.96 2.368-.527 1.024-.825 1.892-.893 2.604Zm20.986-6.482c.17.277.226.578.167.902a1.026 1.026 0 0 1-.499.724c-.09.055-.234.123-.432.203a3.375 3.375 0 0 0-.444.21l-1.11.712c-.448.295-.822.525-1.124.689l1.62 2.641c.413.675.287 1.216-.38 1.625-.33.202-.631.274-.905.215-.27-.072-.509-.276-.716-.613l-.803-1.285-.811-1.297a45.885 45.885 0 0 1-1.874 1.257c-1.161.712-1.953.724-2.376.034-.298-.487-.278-.917.06-1.289.12-.125.483-.373 1.09-.746.374-.229.999-.648 1.873-1.257l-.817-1.308c-.419-.682-.674-1.174-.768-1.478-.09-.316-.098-.589-.023-.82.074-.232.235-.423.482-.575.285-.174.582-.228.892-.16.313.056.556.226.731.511.078.127.187.339.327.634.147.291.265.508.352.65l.797 1.275.864-.484c.15-.092.373-.239.671-.443.294-.21.515-.362.665-.454 1.229-.753 2.059-.778 2.491-.073Zm11.426 3.649c-1.132.693-2.292 1.08-3.48 1.159-1.347.074-2.5-.276-3.459-1.049a1.485 1.485 0 0 1-.308-.352 1.103 1.103 0 0 1-.118-.949c.108-.345.312-.609.612-.793.3-.183.643-.203 1.03-.059l.993.458a2.917 2.917 0 0 0 1.6.163c.567-.1 1.169-.346 1.806-.736.817-.501 1.376-1.195 1.678-2.081.321-.939.243-1.798-.235-2.577-.694-1.132-1.663-1.78-2.908-1.944-1.093-.134-2.285.107-3.577.724-.882.428-1.505.346-1.868-.246-.271-.442-.152-.979.357-1.611l2.28-2.311c.402-.504.638-.994.707-1.469.065-.483-.039-.956-.312-1.417-.39-.669-.971-1.044-1.743-1.127-.804-.085-1.701.177-2.69.783a3.75 3.75 0 0 0-1.256 1.281l-.781 1.576c-.15.309-.301.51-.451.602-.299.183-.627.23-.982.138a1.34 1.34 0 0 1-.797-.594c-.363-.592-.139-1.512.672-2.762.698-1.099 1.369-1.845 2.013-2.24 1.611-.988 3.107-1.416 4.487-1.283 1.481.144 2.655.924 3.523 2.34 1.08 1.761 1.08 3.359.001 4.794-.095.13-.209.272-.341.426 1.221-.244 2.304-.151 3.249.28.94.424 1.746 1.183 2.417 2.277.905 1.476 1.154 3.05.746 4.723-.412 1.665-1.367 2.957-2.865 3.876Zm11.988-21.333-.697 2.546-.78 3.216 6.6 2.541c.334.125.572.304.715.536.179.292.225.62.138.982-.087.363-.273.631-.557.806-.285.175-.629.195-1.031.06-1.181-.379-3.341-1.178-6.481-2.398l-.806 3.603a71.28 71.28 0 0 0-.796 3.04c-.074.417-.25.71-.527.88-.285.175-.609.219-.971.132a1.278 1.278 0 0 1-.802-.576c-.142-.232-.193-.526-.153-.88.04-.406.161-.939.365-1.6.236-.774.384-1.298.443-1.571l.857-3.974-2.775-1.222c-1.111-.483-2.007-.784-2.688-.903-.441-.08-.753-.27-.937-.57a1.352 1.352 0 0 1-.174-.991c.074-.365.25-.633.528-.803.442-.271 1.462-.103 3.062.504l3.591 1.494.962-3.374c.386-1.422.591-2.476.614-3.16.024-.499.201-.85.53-1.052.293-.179.618-.229.976-.15.358.08.624.262.799.546.252.413.251 1.192-.005 2.338Zm11.058-.858c-.954.73-2.735 1.894-5.343 3.493-.629.386-1.123.287-1.481-.297-.359-.585-.223-1.07.406-1.456a77.182 77.182 0 0 0 2.615-1.712 78.029 78.029 0 0 1 2.616-1.712c.667-.409 1.179-.321 1.538.263.317.517.2.991-.351 1.421Zm12.142-6.858 2.55 4.158c.428.697.3 1.255-.381 1.673-.795.487-1.525.187-2.191-.899a12.254 12.254 0 0 1-.329-.587c-.137-.257-.232-.43-.288-.52l-1.575-2.544-5.032 2.916c-1.027.629-1.759 1.032-2.198 1.208-.751.306-1.255.249-1.512-.171-.207-.337-.262-.89-.167-1.66l.263-1.739.581-11.46c.075-1.005.498-1.744 1.27-2.217.846-.519 1.495-.412 1.945.322l5.727 9.34c.123-.086.274-.184.454-.294 1.379-.846 2.296-.897 2.751-.156.33.54.255 1.055-.227 1.547-.214.224-.761.585-1.641 1.083Zm-8.01-8.171c-.044 4.419-.14 7.767-.29 10.044l4.756-2.761-4.466-7.283Zm10.072-1.785 5.255-3.207c.667-.409 1.205-.28 1.614.387.409.667.28 1.205-.387 1.614l-5.266 3.214c-.173.105-.424.275-.755.509a22.2 22.2 0 0 1-.739.484c-.293.179-.592.229-.899.149a1.197 1.197 0 0 1-.711-.554c-.33-.539-.218-1.062.338-1.568.142-.138.658-.481 1.55-1.028Zm4.342 5.643c.494-.304 1.243-.747 2.246-1.331a132.007 132.007 0 0 0 2.246-1.331c.666-.409 1.204-.28 1.613.387.409.667.28 1.204-.387 1.613-.494.304-1.243.747-2.246 1.331a132.007 132.007 0 0 0-2.246 1.331c-.224.138-.552.36-.983.665-.432.306-.756.525-.973.659-.689.422-1.239.3-1.647-.366-.377-.615-.26-1.146.353-1.593a34.819 34.819 0 0 1 2.024-1.365Zm16.872-2.599c-2.277 1.397-4.579 1.375-6.906-.065-1.777-1.116-3.454-2.959-5.03-5.529-1.332-2.173-1.978-4.385-1.936-6.638.059-2.644 1.137-4.61 3.235-5.896 1.971-1.209 4.021-1.311 6.152-.309 1.843.87 3.405 2.35 4.687 4.441 2.058 3.357 3.072 6.204 3.042 8.542-.034 2.331-1.116 4.149-3.244 5.454Zm-9.318-15.952c-1.394.854-2.065 2.24-2.013 4.157.044 1.602.533 3.163 1.465 4.684 1.512 2.465 2.98 4.111 4.405 4.939 1.425.827 2.805.832 4.138.014 1.589-.974 2.171-2.579 1.749-4.815-.292-1.553-1.031-3.296-2.217-5.229-1.245-2.03-2.496-3.356-3.753-3.977-1.25-.625-2.508-.55-3.774.227Z" fill="#727E99"/><path d="M1035.93 312.366c2.5-2.203 8.55-4.758 12.73 2.648M1054.12 318.194s4.67-7.711 6.73-7.793c2.06-.082 4.43 10.624 4.43 10.624" stroke="#EF627E" stroke-linecap="round"/><path d="M885.395 295.842c-1.706.288-3.786.178-6.24-.333-.301-.063-.559-.266-.773-.61-.208-.336-.28-.655-.218-.957l.637-3.06c.208-1.003.569-2.42 1.082-4.252.557-1.976.936-3.411 1.137-4.305.127-.647.365-1.6.715-2.858.122-.34.286-.548.491-.622 1.015-.096 2.129-.018 3.342.234 1.234.257 2.331.924 3.292 2.002 1.11 1.24 1.517 2.572 1.221 3.995-.375 1.802-1.371 3.076-2.989 3.822.958.668 1.64 1.329 2.045 1.984.412.656.551 1.306.417 1.951-.177.849-.807 1.574-1.89 2.175-.755.428-1.511.706-2.269.834Zm-.273-14.617c-.764-.159-1.306-.246-1.625-.261l-.404 1.836-1.057 4.026c.979.291 1.503.441 1.575.448 1.076.136 2.011-.013 2.803-.448.852-.474 1.38-1.201 1.585-2.183.138-.666-.102-1.36-.72-2.081-.618-.721-1.337-1.167-2.157-1.337Zm-.575 8.669-1.077-.411a6.246 6.246 0 0 0-.425-.066 8.528 8.528 0 0 1-1.613-.423 50.443 50.443 0 0 0-.555 2.353l-.453 2.177c1.85.319 3.401.371 4.652.156a4.733 4.733 0 0 0 1.594-.591c.503-.275.774-.504.812-.687.068-.329-.303-.794-1.115-1.394a10.585 10.585 0 0 0-1.82-1.114Zm10.441 8.887c-1.584-.33-2.785-.993-3.602-1.989-.89-1.1-1.171-2.438-.843-4.016.379-1.823 1.139-3.26 2.279-4.31 1.241-1.146 2.664-1.552 4.269-1.218 1.164.242 2.073.636 2.728 1.181.804.672 1.101 1.51.893 2.512-.146.701-.675 1.257-1.587 1.667-.403.18-1.228.418-2.475.714l-4.413 1.068a3.941 3.941 0 0 0 1.188 1.619c.528.417 1.181.706 1.959.868.484.101 1.071.128 1.761.081.875-.059 1.471-.25 1.787-.572.317-.329.612-.465.886-.408a.916.916 0 0 1 .593.42.867.867 0 0 1 .161.702c-.162.779-.929 1.318-2.301 1.618-1.172.253-2.266.274-3.283.063Zm1.709-9.64c-.855-.178-1.636.007-2.342.555-.705.541-1.337 1.448-1.894 2.722l3.548-.864c1.397-.353 2.413-.701 3.048-1.045-.486-.686-1.273-1.142-2.36-1.368Zm13.315 11.426a.847.847 0 0 1-.479.614c-.254.13-.518.167-.791.11-.491-.102-.779-.422-.865-.959-.079-.536-.412-1.483-1-2.842-.629-1.44-1.073-2.19-1.331-2.251l-1.262-.263c-.048.231-.137.641-.266 1.228-.121.546-.211.959-.269 1.239-.239 1.15-.393 1.802-.462 1.956-.23.544-.633.757-1.208.637a1.168 1.168 0 0 1-.702-.42.89.89 0 0 1-.161-.758c.069-.329.19-.842.364-1.537.175-.702.298-1.222.368-1.558.139-.666.322-1.67.55-3.013.228-1.342.412-2.35.552-3.023.188-.905.643-1.282 1.365-1.131a1.1 1.1 0 0 1 .69.428.91.91 0 0 1 .161.758c-.107.512-.297 1.551-.572 3.118l.768.159c.867.122 1.563-.131 2.089-.761.166-.236.384-.542.652-.918.773-1.009 1.56-1.431 2.359-1.264a2 2 0 0 1 .751.342c.319.228.452.467.399.72-.115.554-.411.781-.888.682-.392-.082-.897.303-1.513 1.155a85.96 85.96 0 0 1-.715.96c-.301.354-.607.612-.918.774.597.644 1.163 1.617 1.696 2.921.549 1.335.762 2.301.638 2.897Zm18.778 3.994a.783.783 0 0 1-.424.559 1.053 1.053 0 0 1-.721.092c-.442-.092-.696-.383-.762-.872-.082-.558-.42-1.532-1.016-2.921-.634-1.493-1.1-2.274-1.4-2.343a55.64 55.64 0 0 0-.316-.066 109.7 109.7 0 0 1-.282 1.302c-.129.587-.224 1.025-.284 1.312-.242 1.164-.394 1.824-.455 1.979-.213.497-.579.692-1.098.584-.638-.133-.897-.487-.778-1.062.072-.343.196-.87.373-1.579.185-.715.313-1.241.383-1.577.102-.491.192-.94.269-1.348l-.326-.068c-.287-.06-1.022.467-2.205 1.582-1.102 1.043-1.799 1.805-2.089 2.286-.263.421-.615.586-1.057.494a1.058 1.058 0 0 1-.623-.382.782.782 0 0 1-.165-.682c.124-.596.723-1.419 1.797-2.468 1.056-1.031 1.97-1.7 2.744-2.008-.305-.326-.593-1.107-.863-2.341-.235-1.087-.569-1.676-1.004-1.766-.407-.085-.559-.373-.457-.864.044-.21.235-.353.572-.429.278-.067.539-.075.784-.024.47.098.824.366 1.062.803.128.231.266.658.414 1.282.078.433.238 1 .48 1.702.195.326.634.57 1.317.734.183-1.161.338-2.043.463-2.646.178-.856.593-1.216 1.245-1.08a.988.988 0 0 1 .631.395.818.818 0 0 1 .142.688c-.074.357-.265 1.378-.571 3.063.704.131 1.223.082 1.556-.149.144-.094.528-.552 1.152-1.373.383-.505.68-.842.891-1.01.393-.306.827-.41 1.304-.311.239.05.472.161.699.332.279.205.397.412.354.622-.103.491-.357.694-.764.61-.434-.091-.976.316-1.625 1.22-.433.605-.683.944-.749 1.018-.321.379-.646.644-.978.795.587.59 1.16 1.565 1.718 2.925.567 1.39.787 2.387.662 2.99Zm12.649.382c-.057.274-.156.677-.296 1.211-.14.534-.239.938-.296 1.212a1.001 1.001 0 0 1-.458.672 1.002 1.002 0 0 1-.8.152 1.052 1.052 0 0 1-.693-.462 1.02 1.02 0 0 1-.142-.798c.095-.456.258-1.131.488-2.027.23-.896.392-1.571.487-2.027.18-.863.284-1.697.312-2.503-1.118 1.084-1.921 1.835-2.41 2.253-.942.799-1.838 1.432-2.688 1.898-1.122.608-1.964 1.106-2.527 1.494-.452.308-.881.42-1.288.335a1.359 1.359 0 0 1-.749-.408.876.876 0 0 1-.217-.802c.415-1.998.814-4.088 1.194-6.269.391-2.267.581-3.372.569-3.316.149-.715.574-1 1.275-.854.596.124.873.533.831 1.226-.008.108-.127.804-.357 2.087l-.961 5.254c1.252-.713 2.602-1.661 4.048-2.845.449-.367 1.694-1.447 3.735-3.239.529-.468 1.028-.653 1.498-.555.294.061.519.21.675.448.162.238.212.508.149.81-.162.778-.392 1.955-.691 3.532a217.198 217.198 0 0 1-.688 3.521Zm10.87 2.393c-.267 1.283-1.451 1.984-3.553 2.103-1.318.076-2.871-.071-4.659-.443-.274-.057-.514-.22-.721-.49-.2-.268-.273-.536-.217-.802l.415-1.998 1.278-5.616.219-1.051c.096-.427.213-.761.351-1.003.097-.184.23-.299.401-.344.079-.028.283-.044.613-.048.443-.018 1.155.075 2.136.28 1.129.234 2.096.721 2.901 1.459.94.861 1.3 1.821 1.079 2.88-.204.981-.879 1.59-2.026 1.827.485.343.915.824 1.291 1.443.432.704.596 1.305.492 1.803Zm-1.723-5.483c.089-.427-.128-.864-.65-1.309-.459-.395-.919-.641-1.382-.737l-.431-.09a12.442 12.442 0 0 0-1.09-.194 40.55 40.55 0 0 0-.251 1.155c-.028.133-.065.4-.112.8-.04.335-.089.603-.145.804.391.125.747.221 1.07.288.785.163 1.367.233 1.745.209.712-.049 1.128-.358 1.246-.926Zm-.34 4.955c.079-.378-.123-.794-.607-1.245a4.212 4.212 0 0 0-1.233-.827c-.262-.113-.658-.229-1.19-.347a26.346 26.346 0 0 1-1.211-.295c-.127.471-.225.871-.293 1.2l-.427 2.051c3.127.512 4.781.333 4.961-.537Zm14.038 2.887c-.057.274-.156.677-.296 1.211-.141.534-.239.938-.296 1.212a1.001 1.001 0 0 1-.458.672 1.002 1.002 0 0 1-.8.152 1.05 1.05 0 0 1-.694-.462 1.024 1.024 0 0 1-.141-.798 49.89 49.89 0 0 1 .487-2.027c.231-.896.393-1.571.488-2.027.179-.862.283-1.697.312-2.503-1.118 1.084-1.921 1.835-2.411 2.253-.941.799-1.837 1.432-2.688 1.898-1.121.608-1.963 1.106-2.527 1.494-.451.308-.881.42-1.287.335a1.355 1.355 0 0 1-.749-.408.876.876 0 0 1-.217-.802c.415-1.998.813-4.088 1.194-6.269.391-2.267.581-3.372.569-3.316.149-.715.574-1 1.275-.854.596.124.873.533.831 1.226-.008.108-.127.804-.357 2.087l-.961 5.254c1.252-.713 2.602-1.661 4.047-2.845.45-.367 1.695-1.447 3.735-3.239.529-.468 1.029-.653 1.498-.555.295.061.52.21.675.448.163.238.213.508.15.81-.162.778-.392 1.955-.691 3.532a228.896 228.896 0 0 1-.688 3.521Zm11.545-2.799c.855.178 2.133.469 3.834.874 1.709.4 2.991.688 3.846.866l2.474.449 2.174.364.597.136c.617.128.859.511.727 1.149-.162.778-.853 1.041-2.073.787a22.892 22.892 0 0 1-.93-.226c-.423-.11-.729-.185-.919-.224a869.763 869.763 0 0 0-6.253-1.268c-2.78-.564-4.864-.99-6.252-1.279-.715-.149-1-.57-.856-1.264.136-.652.544-.929 1.226-.831.292.038 1.094.194 2.405.467Zm28.631 11.288c-.27 1.283-1.45 1.983-3.56 2.102-1.315.077-2.868-.07-4.656-.442-.273-.057-.513-.221-.72-.49-.201-.269-.273-.536-.218-.803l.416-1.998 1.278-5.615.219-1.052c.096-.426.213-.76.351-1.002.097-.185.23-.3.401-.345.078-.027.283-.043.613-.048.443-.017 1.155.076 2.136.28 1.13.235 2.1.721 2.9 1.459.94.862 1.3 1.821 1.08 2.88-.2.982-.88 1.591-2.03 1.828.49.342.92.823 1.3 1.443.43.704.59 1.305.49 1.803Zm-1.73-5.483c.09-.428-.12-.864-.65-1.309-.45-.395-.92-.641-1.38-.738l-.43-.089a12.057 12.057 0 0 0-1.089-.194 43.42 43.42 0 0 0-.252 1.155c-.027.133-.065.399-.111.799a5.644 5.644 0 0 1-.145.804c.391.125.747.221 1.07.289.787.163 1.367.233 1.747.209.71-.049 1.13-.358 1.24-.926Zm-.34 4.955c.08-.379-.12-.794-.6-1.246a4.359 4.359 0 0 0-1.24-.827c-.26-.113-.654-.228-1.186-.346a25.412 25.412 0 0 1-1.211-.296c-.127.471-.225.871-.294 1.201l-.426 2.051c3.127.511 4.777.332 4.957-.537Zm7.69 5.065c-1.59-.33-2.79-.993-3.61-1.989-.89-1.1-1.17-2.439-.84-4.016.38-1.823 1.14-3.26 2.28-4.31 1.24-1.146 2.66-1.552 4.27-1.218 1.16.242 2.07.636 2.73 1.181.8.672 1.1 1.51.89 2.512-.15.701-.68 1.257-1.59 1.667-.4.18-1.23.418-2.47.714l-4.42 1.068c.28.664.67 1.203 1.19 1.619.53.417 1.18.706 1.96.868.49.101 1.07.128 1.76.081.88-.059 1.47-.25 1.79-.572.32-.329.61-.465.88-.408.25.051.45.191.6.42.16.223.21.457.16.702-.16.779-.93 1.318-2.3 1.617-1.17.254-2.27.275-3.28.064Zm1.7-9.64c-.85-.178-1.63.007-2.34.555-.7.541-1.33 1.448-1.89 2.722l3.55-.864c1.39-.353 2.41-.701 3.04-1.045-.48-.686-1.27-1.142-2.36-1.368Zm13.32 11.426a.853.853 0 0 1-.48.614c-.25.13-.52.166-.79.11-.49-.103-.78-.422-.87-.959-.07-.536-.41-1.483-1-2.842-.63-1.44-1.07-2.191-1.33-2.252l-1.26-.262-.27 1.228c-.12.546-.21.959-.26 1.239-.24 1.15-.4 1.802-.47 1.956-.23.544-.63.757-1.2.637-.3-.061-.53-.201-.71-.42-.16-.218-.22-.47-.16-.758.07-.329.19-.842.37-1.537.17-.702.29-1.222.36-1.558.14-.666.33-1.671.55-3.013.23-1.342.42-2.35.56-3.023.18-.905.64-1.282 1.36-1.131.3.061.53.204.69.428a.89.89 0 0 1 .16.758c-.1.512-.29 1.551-.57 3.118l.77.159c.87.122 1.56-.132 2.09-.761.16-.236.38-.542.65-.918.77-1.009 1.56-1.431 2.36-1.265.25.053.5.167.75.343.32.227.45.467.4.72-.12.554-.41.781-.89.682-.39-.082-.9.303-1.51 1.155-.43.577-.67.897-.72.96-.3.354-.6.612-.92.774.6.644 1.17 1.617 1.7 2.921.55 1.335.76 2.301.64 2.897Z" fill="#727E99"/><path d="m1042.64 319.203-5.28 7.11c-1.29 1.727-2.31 3.186-3.06 4.377l-1.12 1.896c-.28.467-.65.654-1.1.56a1.158 1.158 0 0 1-.71-.454.94.94 0 0 1-.16-.781c.14-.701 1.32-2.573 3.54-5.616l-2.26-8.03-.32-.866c-.12-.362-.16-.652-.11-.869.06-.287.22-.517.48-.689.27-.171.54-.228.82-.171.32.067.54.241.67.523.85 1.903 1.63 4.525 2.37 7.866l2.31-3.304c.82-1.139 1.58-2.106 2.29-2.903.31-.346.64-.481 1.01-.405.28.06.52.214.69.463.18.25.24.515.19.795-.04.155-.12.32-.25.498Zm8.2 10.976c-.07.309-.22.537-.45.686-.24.155-.51.201-.81.139a1.063 1.063 0 0 1-.7-.452c-.15-.23-.2-.5-.14-.808.12-.568.35-1.771.69-3.61-.98.432-2.1.517-3.36.256-1.48-.309-2.45-1.045-2.91-2.207-.44-1.161-.43-2.894.05-5.201.24-1.15.73-1.648 1.48-1.493.3.063.53.213.68.45.16.23.21.499.14.808-.01.077-.05.19-.1.34-.05.143-.09.253-.1.33-.39 1.858-.47 3.129-.25 3.812.21.635.79 1.051 1.74 1.25.43.089.97.049 1.64-.12.71-.189 1.22-.449 1.52-.781.04-.196.14-.626.29-1.289.15-.663.25-1.082.28-1.258.03-.14.06-.353.09-.639.04-.285.07-.494.1-.628a.948.948 0 0 1 .46-.662c.25-.145.52-.187.81-.126.75.154.98.873.72 2.156-.04.19-.11.44-.19.751-.08.313-.13.518-.15.616-.17.806-.43 2.088-.77 3.845-.34 1.751-.6 3.029-.76 3.835Zm12.84.192c-.06.273-.16.677-.3 1.211-.14.534-.24.938-.29 1.211-.06.295-.22.519-.46.673-.24.163-.51.213-.8.152-.3-.063-.53-.217-.7-.463-.15-.237-.2-.503-.14-.797.1-.456.26-1.132.49-2.027.23-.896.39-1.572.49-2.027.18-.863.28-1.697.31-2.503-1.12 1.084-1.92 1.835-2.41 2.253-.94.799-1.84 1.431-2.69 1.898-1.12.608-1.96 1.106-2.53 1.493-.45.309-.88.421-1.28.336-.31-.064-.56-.2-.75-.408a.881.881 0 0 1-.22-.802c.42-1.999.81-4.088 1.2-6.269.39-2.267.58-3.372.56-3.316.15-.716.58-1 1.28-.854.6.124.87.532.83 1.226-.01.108-.13.804-.36 2.087l-.96 5.253c1.25-.712 2.6-1.66 4.05-2.844.45-.368 1.69-1.447 3.74-3.239.52-.468 1.02-.653 1.49-.555.3.061.52.21.68.447.16.239.21.509.15.81-.16.779-.39 1.956-.69 3.532-.3 1.57-.53 2.744-.69 3.522Zm6.3 4.997c-1.44-.299-2.55-.983-3.33-2.052-.82-1.121-1.07-2.429-.76-3.922.3-1.424 1.08-2.794 2.34-4.112 1.4-1.464 2.76-2.059 4.08-1.784.68.143 1.42.464 2.2.963.99.636 1.42 1.253 1.29 1.849-.05.266-.19.486-.41.66a.834.834 0 0 1-.71.17.86.86 0 0 1-.5-.291 22.88 22.88 0 0 0-.36-.458c-.34-.415-.99-.721-1.92-.916-.72-.149-1.56.342-2.53 1.472-.88 1.038-1.41 1.985-1.59 2.84-.19.926-.03 1.721.49 2.385.49.62 1.2 1.027 2.12 1.219.42.088.89.069 1.42-.056l1.35-.399c.24-.068.4-.093.49-.074.26.054.46.206.61.456.14.242.19.497.14.763-.11.512-.75.894-1.93 1.146-1.04.224-1.87.271-2.49.141Zm14.49-1.209c-.25 1.234-.93 2.052-2.02 2.454-.93.348-2.1.375-3.51.082-.26-.054-.61-.134-1.04-.24-.51-.134-.86-.222-1.06-.263a1.31 1.31 0 0 1-.34-.028c-.72-.148-.97-.706-.77-1.674.02-.133.15-.546.37-1.238.3-.919.53-1.789.7-2.609.12-.561.25-1.361.39-2.399.15-1.044.29-1.846.4-2.407.16-.743.57-1.044 1.25-.903.73.151 1.02.548.89 1.193-.16.737-.32 1.763-.5 3.079.34.057.62.106.81.147 1.69.352 2.89.838 3.58 1.458.87.781 1.16 1.897.85 3.348Zm-2.03-.422c.17-.785.04-1.365-.39-1.739-.35-.313-1.02-.575-2.03-.785-.28-.057-.66-.121-1.15-.194-.02.149-.05.29-.07.423-.11.533-.4 1.578-.85 3.137.58.135 1.03.237 1.37.307 1.84.384 2.89.001 3.12-1.149Zm4.01 5.386a1.28 1.28 0 0 1-.85-.571c-.2-.305-.26-.64-.18-1.004.07-.358.26-.636.56-.836.31-.207.65-.273 1.01-.197.36.074.64.268.84.58.2.306.27.638.19.995-.07.365-.27.647-.58.845-.3.2-.63.263-.99.188Z" fill="#EF627E"/><path d="M877.168 299.769c3.787.618 11.928 2.073 14.196 2.953 2.835 1.101 16.154 3.361 16.644 3.463M993.73 323.732c3.787.617 11.93 2.072 14.2 2.953 2.83 1.1 16.15 3.36 16.64 3.462M915.35 307.712c3.786.618 18.781 3.499 21.049 4.379 2.835 1.1 25.455 5.295 25.945 5.397" stroke="#727E99" stroke-linecap="round"/><path d="M1034.85 332.285c3.79.618 15.84 2.887 18.11 3.768 2.84 1.1 25.46 5.295 25.95 5.397" stroke="#EF627E" stroke-linecap="round"/><path d="M914.796 310.376c3.787.618 18.638 4.059 21.05 4.379 2.982.395 25.455 5.295 25.944 5.397" stroke="#727E99" stroke-linecap="round"/><path d="M1031.36 334.338c3.79.617 18.64 4.059 21.05 4.378 2.98.395 25.45 5.295 25.94 5.397" stroke="#EF627E" stroke-linecap="round"/><path opacity=".75" d="M280.345 63.627c.16 1.122.286 1.32.615 2.446.343 1.062.207 1.983-.156 2.549-.363.565-.928.814-1.528.919-.601.105-.807-.042-1.325-.157-.518-.115-1.508-.096-1.922-.221-.389-.086-1.054.005-1.638-.124-.583-.13-1.465-.29-1.53-.916-.066-.626-.048-.86.376-1.242.399-.422.762-.987.773-1.495.01-.507.483-2.033.44-2.45-.044-.418-.006-1.667.148-2.21.154-.544.053-1.314.182-1.898.129-.583.49-2.983.658-3.592a78.8 78.8 0 0 0 .638-2.577c.165-.44.404-1.984.541-2.293.136-.31.391-1.307.516-1.721.111-.35.258-1.166.531-1.786.273-.619.642-2.134.897-2.52.255-.385.441-1.227.653-1.418.212-.191.521-.667.787-.948.292-.241 1.115-.433 1.849-.678.774-.271 1.986-.377 2.537-.56.576-.145 1.159-.017 1.242.376.083.392-.345.943-.506 1.213-.162.27-1.042 1.944-1.257 2.305-.216.36-1.493 3.68-1.776 4.806-.284 1.127-.153 1.767-.481 1.865-.262.111-.28.345-.222.698.083.392-.028.741-.154 1.155-.085.39-.594 2.995-.618 3.568.015.547-.171 2-.235 2.598-.064.598.184.55-.046.975-.23.425.138.914-.052 1.314-.021.403-.042 1.418.063 2.019Z" fill="#BBB0E5" fill-opacity=".32"/><path opacity=".75" d="M301.573 34c-.245-.122-.871-.057-1.605.188-.338-.006-.676-.013-.885.009-.507-.01-2.288.513-2.695.661-.327.098-.485.199-.489.368-.266.28-.507.601-.866.998-.572.587-1.016 1.984-1.475 3.445-.499 1.487-2.206 9.979-2.399 11.16-.193 1.18-.663 2.537-.887 2.012-.249-.565-1.012-3.418-1.384-4.961-.119-.536-1.032-3.015-1.256-3.54-.184-.55-1.533-2.752-1.954-3.15-.422-.4-.72-.432-1.242-.377-.522.054-1.162.185-1.554.268-.393.083-1.778.354-2.289.513-.471.134-.683.937-.635 1.185 0 0 .519.726.897 1.32.353.554 1.421 2.489 1.648 2.845.227.356.908 1.424 1.039 2.064.13.64.87 3.285.958 4.12.112.874.742 3.868.764 4.688.048.86.602 4.347.733 4.987.13.64.479.752.969.996.464.205 1.263-.026 1.939-.013.677.014 2.203-.124 2.775-.1 0 0 .677.014 1.22-.444.542-.457.463-.407 1.423-1.52s.559-1.915 1.062-2.96c.503-1.044.859-3.887 1.053-5.068.193-1.18 1.29-7.836 1.681-9.143.111-.349.28-.957.477-1.695.17.615.354 1.166.477 1.532.418 1.18.892 2.882 1.241 3.605.415.737 1.219 1.56 1.766 1.546.586-.04 1.853-.236 2.724-.18.871.057 2.306-.135 2.821-.463.514-.328.028-.742-.25-1.177-.278-.435-.57-1.417-.751-2.137-.22-.694-.848-1.852-1-2.701-.191-.824-1.22-3.396-1.292-3.684-.072-.288-1.501-3.662-1.876-4.425-.062-.183-.202-.316-.317-.41.082-.22-.281-.266-.566-.362Z" fill="#BBB0E5" fill-opacity=".32"/><path opacity=".75" d="M302.08 49.54c.745-.141 2.667.08 3.595-.123.903-.242 2.357-.056 3.024-2.152.667-2.095.624-5.74 1.391-8.29.793-2.508 1.804-5.547 2.364-7.462 0 0 .729 1.928 1.457 3.244.728 1.317 2.237 2.024 3.515 1.933 1.277-.092 2.673-.259 3.695-.576.982-.293 1.996-1.496 2.459-2.515.423-.994.666-2.707 1.007-3.481.316-.814 1.11-5.328 1.697-5.368.586-.04 2.609.34 3.638.295 1.03-.045 3.441-.191 4.091-.829.651-.638 1.171-1.916 1.408-2.679.237-.763.25-2.051.289-2.688.078-.663.006-.95.663-2.538.657-1.588.599-1.329.893-2.351.294-1.023.215-.972.046-.976-.144.037-.169-.003-.259-.057s-.141-.133-.087-.223c.029-.13.072-.324.18-.504.107-.18.323-.54.204-.464-.118.075-.133.14-.223.086-.09-.054-.14-.133-.047-.248.094-.115.201-.295.047-.364-.155-.068-.414-.125-.414-.125s-.011-.105-.105.01c-.068.156-.151.375-.23.426-.079.05-.205-.148-.191-.213.015-.064.126-.413.273-.619.122-.245.057-.259.165-.439.108-.18.086-.389-.047-.248-.133.14-.294.41-.402.59-.068.155-.176.335-.191.4-.053.09-.068.155-.133.14-.064-.014-.23-.186-.23-.186s-.036-.144-.008-.274c.029-.13.108-.18.162-.27.029-.13-.101-.158-.205-.147-.065-.015-.392.083-.407.148-.054.09-.23.425-.309.475-.079.05-2.349 4.17-2.622 4.79-.258.554-1.213 2.721-1.429 3.082-.215.36-.51.77-.715.623-.205-.147-2.635-.379-3.43-.317-.77.102-3.062.173-3.811.483-.762.375-2.014 1.118-2.347 2.166-.334 1.047-2.13 7.48-2.13 7.48s-1.666-3.223-1.868-3.539c-.202-.317-.432-.503-.925-.578-.494-.075-4.574.246-5.006.354-.432.109-1.878.808-2.079 1.104-.201.295-2.041 3.082-2.55 4.465-.51 1.382-1.499 4.63-1.707 5.263-.248.66-1.547 3.77-1.86 4.414-.337.605-.76 6.05-1.194 6.94-.41.93-.538 1.512-.204 1.688.31.137 1.102.244 1.102.244Z" fill="#BBB0E5" fill-opacity=".32"/><path d="M1015.3 21.67c2.5.654 5.15-.867 5.82-3.356 1.09-4.028-3.41-7.357-6.97-5.329-2.68 1.527-3.21 5.319-.97 7.494L1006 32.707l-14.702-.041-7.629-13.188a1.217 1.217 0 0 0-1.051-.607l-15.36-.018-6.222-10.754A4.676 4.676 0 0 0 962.238 6c.673-2.52-.837-5.135-3.365-5.828a4.719 4.719 0 0 0-3.622.459 4.678 4.678 0 0 0-2.204 2.868c-.406 1.52 1.944 2.146 2.349.627.326-1.222 1.621-1.942 2.834-1.609 1.244.34 1.988 1.622 1.659 2.856-.323 1.206-1.632 1.94-2.835 1.61-1.516-.416-2.158 1.93-.642 2.345.842.23 1.684.229 2.526 0l6.214 10.74-5.516 9.41c-2.555-.795-5.341.725-6.036 3.294a4.674 4.674 0 0 0 .47 3.587c1.127 1.948 3.571 2.838 5.689 2.107l5.655 9.774a1.216 1.216 0 0 0 1.051.607l15.352.019 2.298 3.971c.762 1.317 2.89.14 2.105-1.217l-2.293-3.963 7.364-12.56 14.699.041 5.29 9.174c-1.85 1.798-1.87 4.897-.04 6.72l-5.34 9.08-14.703.11-1.634-2.825c-.788-1.36-2.893-.142-2.105 1.218l1.633 2.824-7.214 12.282a4.781 4.781 0 0 0-3.657.45c-2.24 1.278-3.071 4.219-1.767 6.473 1.293 2.235 4.256 3.021 6.501 1.742 2.654-1.512 3.205-5.253 1.024-7.44l7.22-12.292 14.702-.11 6.32 10.96c-1.6 1.459-2 3.963-.91 5.852 1.29 2.235 4.26 3.021 6.5 1.742 2.24-1.276 3.07-4.218 1.77-6.472-1.07-1.845-3.21-2.704-5.2-2.25L1008 61.329l5.34-9.081c2.52.69 5.2-.83 5.88-3.34.94-3.465-2.4-6.706-5.83-5.796l-5.29-9.182 7.2-12.26Zm-1.04-5.165c.27-.977 1.25-1.717 2.26-1.717 1.47 0 2.64 1.455 2.26 2.892-.53 1.939-3.27 2.319-4.29.56-.15-.26-.25-.546-.29-.844-.04-.298-.02-.6.06-.89Zm-31.417 62.361a2.302 2.302 0 0 1-1.093 1.408c-2.597 1.479-4.949-2.494-2.326-3.99 1.111-.632 2.558-.248 3.192.848a2.263 2.263 0 0 1 .227 1.734Zm-26.668-43.725c-.634-1.095-.227-2.519.866-3.142 1.111-.633 2.558-.25 3.192.847.652 1.127.158 2.463-.866 3.142-1.121.639-2.553.258-3.192-.847Zm5.612 1.973c1.578-1.784 1.542-4.603-.089-6.346l5.561-9.484 14.656.018 7.273 12.571-7.364 12.561-14.655-.018-5.382-9.302Zm53.663 37.572c2.3 0 3.2 3.136 1.16 4.3-1.13.638-2.56.258-3.2-.848-.86-1.5.31-3.452 2.04-3.452Zm-.83-29.304c1.47 0 2.64 1.455 2.25 2.891-.52 1.94-3.26 2.32-4.28.56-.87-1.5.3-3.451 2.03-3.451Z" fill="#727E99"/><path opacity=".1" d="M1000.89 506.789c-.23.425-7.295 12.443-7.529 12.719.043-.319 5.19-17.76 5.19-17.76s8.959 5.041 9.169 5.147c.08-.149 7.27-10.103 7.53-10.38-.04.319-5.15 15.421-5.15 15.421l-9.21-5.147ZM1062.7 542.48c-.23.426-7.29 12.443-7.53 12.72.04-.319 5.19-17.761 5.19-17.761s8.96 5.041 9.17 5.148c.08-.149 7.27-10.104 7.53-10.38-.04.319-5.15 15.421-5.15 15.421l-9.21-5.148Z" fill="#222"/><path d="m1011.53 487.412 32.58-18.824c11.93-6.871 27.61-10.274 43.29-10.21H1100.48c15.65-.064 31.35 3.339 43.26 10.231 0 0 .41.234 1.11.681.74.425 1.76 1.127 3.08 2.042 1.28.957 2.83 2.105 4.43 3.637 1.61 1.51 3.31 3.361 4.82 5.636 1.56 2.255 2.9 4.935 3.6 7.977.36 1.51.53 3.105.55 4.743-.04 1.638-.23 3.297-.64 4.935a24.745 24.745 0 0 1-1.83 4.807c-.19.383-.42.765-.63 1.148l-.32.575-.36.553c-.24.361-.49.744-.73 1.106l-.81 1.063c-2.17 2.808-4.91 5.254-7.84 7.381-2.92 2.127-6.17 3.807-9.28 5.615-3.1 1.787-6.17 3.531-9.14 5.212-5.94 3.381-11.47 6.551-16.21 9.252-.98.553-1.94 1.106-2.85 1.638-3.45 1.978-6.36 3.637-8.55 4.892a919.14 919.14 0 0 1-4.17 2.382s-13.87-.064-13.98 0l-2.68-1.574-2.97-1.723-2.98-1.701-3-1.681c-2-1.127-4.02-2.233-6.04-3.296-1-.553-2.02-1.064-3.04-1.596-1.02-.531-2.05-1.063-3.07-1.574l13.17-7.593 32.59-18.803a20.874 20.874 0 0 0 4.04-2.999v.021l.02-.021s.02 0 .02-.021c.04-.043.11-.107.15-.149.23-.234.45-.468.66-.702l.04-.043.02-.021c.13-.128.24-.255.36-.425.17-.192.32-.405.45-.596.04-.064.09-.128.15-.191.15-.192.28-.426.42-.66.03-.042.07-.085.09-.149 0-.021.02-.021.02-.042.09-.149.19-.298.28-.468.08-.17.17-.34.23-.532a9.333 9.333 0 0 0 .81-5.551 9.957 9.957 0 0 0-.75-2.468c-.63-1.361-1.57-2.701-2.78-3.913-1.19-1.149-2.6-2.191-4.15-3.106-1-.596-2.08-1.106-3.21-1.574-2.6-1.063-5.47-1.787-8.49-2.233-2.7.361-5.38.957-8 1.829-.85.298-1.72.574-2.55.957l-1.25.532-1.19.617c-.41.212-.79.383-1.2.638l-1.16.659c-.77.447-1.56.872-2.32 1.319-3.09 1.765-6.11 3.488-9.04 5.169-5.87 3.36-11.34 6.487-16.04 9.146-.94.532-1.81 1.042-2.68 1.531-6.89 3.935-11.66 6.658-12.72 7.275 0 0-13.87-.064-13.98 0l-2.68-1.574-2.97-1.723-2.98-1.702-3-1.68c-2-1.128-4.02-2.212-6.04-3.297-1-.553-2.02-1.064-3.04-1.595a197.597 197.597 0 0 0-3.065-1.574l13.085-7.615Z" fill="#222" opacity=".1"/><path d="M1038.05 483.796c4.66-2.723 10.1-5.892 15.95-9.295 2.92-1.702 5.94-3.467 9-5.254.76-.447 1.53-.893 2.3-1.34l1.14-.681c.37-.212.79-.425 1.17-.638l1.2-.617 1.21-.531c.81-.383 1.66-.66 2.49-.957 3.38-1.149 6.93-1.851 10.44-2.191 3.51-.341 7.02-.319 10.36.064 3.34.382 6.53 1.106 9.4 2.254 1.13.447 2.21.979 3.21 1.553v15.421c-10.46-6.041-28.88-5.233-39.37.808l-31.2 18.016V485.37c.89-.511 1.76-1.042 2.7-1.574Z" fill="#AF5F6F"/><path d="M1100.03 519.381a7176.01 7176.01 0 0 0 16.12-9.401c2.96-1.723 6-3.51 9.08-5.297 3.09-1.829 6.3-3.531 9.26-5.743 2.93-2.169 5.68-4.658 7.87-7.529l.81-1.085c.25-.362.48-.745.74-1.127l.36-.553.32-.596c.21-.383.45-.766.64-1.17a24.954 24.954 0 0 0 1.81-4.913c.19-.83.34-1.659.42-2.51l-.02 11.869c.04.829.04 1.659 0 2.488v.043c-.55 8.508-6.44 16.91-17.67 23.397l-32.59 18.824V521.04c.91-.532 1.87-1.085 2.85-1.659Z" fill="#435168"/><path d="m1022.18 491.815-2.68-1.574-2.98-1.723-2.99-1.702-3-1.68c-2-1.127-4.02-2.212-6.04-3.297-1-.553-2.02-1.063-3.05-1.595-1.02-.532-2.038-1.064-3.059-1.574l13.169-7.594 13.5 7.785 9.85 5.679c-6.89 3.935-11.63 6.658-12.72 7.275ZM1096.73 520.232a3360.33 3360.33 0 0 0-12.72 7.274l-2.68-1.574-2.97-1.723-3-1.701-3-1.681c-2-1.127-4.02-2.212-6.04-3.296-1-.553-2.02-1.064-3.04-1.596-1.02-.531-2.05-1.063-3.07-1.574l13.17-7.593 13.46 7.763 9.89 5.701Z" fill="#C9CED3"/><path d="M1063.09 516.212c.95.616 1.93 1.233 2.91 1.85 1.96 1.213 3.91 2.404 5.89 3.574l2.96 1.765 2.98 1.744 2.97 1.723 2.75 1.553.06 3.594.11 3.893c.04 1.297.08 2.595.15 3.892.06 1.298.1 2.595.19 3.893l-23.85-13.762V514.34c.94.638 1.9 1.255 2.88 1.872Z" fill="#DFE7EB"/><path d="M1084.23 539.779c.06-1.297.1-2.595.15-3.892l.1-3.893.07-3.552c1.04-.617 5.78-3.382 12.65-7.381v15.038l-13.16 7.594c.08-1.298.12-2.616.19-3.914Z" fill="#A7ACB0"/><path d="M1004.19 482.35a307.37 307.37 0 0 0 5.89 3.573l2.96 1.766 2.97 1.744 2.98 1.723 2.75 1.552.06 3.595.11 3.892c.04 1.298.08 2.595.14 3.893.07 1.297.11 2.595.2 3.892l-23.848-13.762v-15.591c.957.639 1.918 1.255 2.888 1.872a69.32 69.32 0 0 0 2.9 1.851Z" fill="#DFE7EB"/><path d="m1022.56 500.195.11-3.892.06-3.552c1.05-.617 5.79-3.382 12.66-7.402v15.038l-13.17 7.593c.09-1.297.13-2.595.2-3.892.06-1.298.1-2.595.14-3.893Z" fill="#A7ACB0"/><path d="M1001.45 480.201c1.02.532 2.04 1.064 3.04 1.596 2.02 1.085 4.04 2.191 6.04 3.297l3 1.68 3 1.702 2.97 1.722 2.68 1.574c1.07-.616 5.83-3.318 12.72-7.274l.47.277v.531c-6.87 4.02-11.61 6.786-12.65 7.402l-.07 3.552-.1 3.893c-.05 1.297-.09 2.595-.15 3.892-.07 1.298-.11 2.595-.2 3.893-.08-1.298-.12-2.595-.19-3.893-.06-1.297-.1-2.595-.15-3.892l-.1-3.893-.07-3.594-2.74-1.553-2.98-1.723-2.98-1.744-2.95-1.765a302.39 302.39 0 0 1-5.89-3.574c-.98-.595-1.94-1.212-2.92-1.85-.98-.617-1.933-1.234-2.89-1.872 1.063.553 2.08 1.085 3.11 1.616ZM1084.04 543.693c-.09-1.298-.13-2.595-.19-3.893-.07-1.297-.11-2.595-.15-3.892l-.11-3.893-.06-3.594-2.75-1.553-2.98-1.723-2.97-1.744-2.96-1.765a302.39 302.39 0 0 1-5.89-3.574c-.98-.595-1.94-1.212-2.92-1.85-.97-.617-1.93-1.234-2.89-1.872 1.04.51 2.04 1.042 3.06 1.574 1.03.532 2.05 1.063 3.05 1.595 2.02 1.085 4.04 2.191 6.04 3.297l3 1.68 2.99 1.702 2.98 1.723 2.68 1.574c1.07-.617 5.83-3.318 12.72-7.275l.47.277v.532c-6.89 4.02-11.61 6.785-12.66 7.38l-.06 3.553-.11 3.892c-.04 1.297-.08 2.595-.14 3.892-.03 1.34-.07 2.659-.15 3.957Z" fill="#F2FCFF"/><path d="M1110.82 484.051c-.22.234-.43.468-.66.702.15-.149.36-.383.66-.702Z" fill="#397BD0"/><path d="M1106.01 465.95a28.81 28.81 0 0 0-3.21-1.574c-2.87-1.17-6.09-1.957-9.45-2.361a50.035 50.035 0 0 0-10.42-.149c-3.55.319-7.12.979-10.57 2.106-.85.298-1.72.574-2.55.957l-1.26.532-1.19.617c-.4.213-.79.383-1.19.638l-1.17.659c-.77.447-1.55.894-2.32 1.319-3.08 1.766-6.1 3.488-9.04 5.169-5.87 3.339-11.34 6.466-16.04 9.146-.91.532-1.8 1.042-2.68 1.531l-9.89-5.7-13.5-7.785 32.58-18.824c23.63-13.634 62.05-13.634 85.68 0l-15.7 9.061-8.08 4.658Z" fill="#EF627E"/><path d="M1105.94 465.993v.149a29.412 29.412 0 0 0-3.21-1.553c-2.87-1.149-6.06-1.872-9.4-2.255-3.34-.383-6.83-.404-10.36-.064-3.51.341-7.06 1.043-10.44 2.191-.85.298-1.7.575-2.49.957l-1.21.532-1.19.617c-.39.213-.81.404-1.17.638l-1.15.681c-.77.446-1.53.893-2.3 1.34-3.06 1.786-6.08 3.552-9 5.254-5.82 3.403-11.27 6.572-15.95 9.295-.91.531-1.81 1.063-2.66 1.552v-.531l-.47-.277c.86-.489 1.75-1 2.68-1.531 4.71-2.68 10.17-5.807 16.04-9.147 2.94-1.68 5.96-3.403 9.04-5.168.77-.447 1.55-.872 2.32-1.319l1.17-.659c.4-.234.81-.426 1.19-.638l1.19-.617 1.26-.532c.83-.383 1.7-.659 2.55-.957 3.45-1.128 7.02-1.808 10.57-2.106 3.55-.298 7.06-.255 10.42.149 3.36.404 6.58 1.191 9.45 2.361 1.12.468 2.19 1 3.21 1.574l-.09.064Z" fill="#FF5778"/><path d="M1105.94 466.142c1.56.872 2.94 1.893 4.11 3.02 1.21 1.191 2.17 2.531 2.81 3.914.36.787.61 1.574.74 2.382a9.472 9.472 0 0 1-.76 5.509c-.09.17-.15.362-.24.532-.08.17-.19.319-.28.468-.19.297-.31.595-.51.829-.38.489-.66.915-.95 1.213-.32.34-.53.574-.68.744-1.13-1.127-2.53-2.191-4.22-3.169l-.02-15.442Z" fill="#2D4163"/><path d="M1133.98 454.954c1.27.957 2.83 2.105 4.42 3.637 1.62 1.51 3.32 3.36 4.83 5.636 1.51 2.255 2.85 4.935 3.55 7.977.36 1.51.53 3.105.56 4.743-.05 1.638-.24 3.297-.64 4.935-.45 1.637-1.04 3.254-1.83 4.807-.19.383-.43.765-.64 1.148l-.32.575-.36.553c-.26.361-.49.744-.74 1.106l-.81 1.063c-2.17 2.829-4.92 5.254-7.85 7.381-2.92 2.127-6.17 3.807-9.28 5.615-3.1 1.787-6.16 3.531-9.14 5.212-5.94 3.381-11.47 6.551-16.21 9.252-.98.553-1.94 1.106-2.85 1.638l-9.89-5.701-13.51-7.784 32.59-18.825c1.59-.914 2.96-1.935 4.06-2.999.07-.042.11-.106.15-.149.23-.234.45-.468.66-.701l.04-.043.02-.021c.13-.128.24-.256.37-.426.14-.191.31-.383.44-.595.04-.064.09-.128.15-.192.15-.191.28-.425.43-.659.02-.043.06-.085.08-.149 0-.021.02-.021.02-.043.09-.148.19-.297.28-.467.08-.171.15-.341.23-.532a9.335 9.335 0 0 0 .81-5.552c-.13-.808-.38-1.638-.74-2.467-.64-1.361-1.58-2.701-2.79-3.914a21.335 21.335 0 0 0-4.15-3.105l8.09-4.658 15.69-9.062s.41.234 1.11.681c.83.468 1.87 1.17 3.17 2.085Z" fill="#5E6C86"/><path d="M1129.79 452.231c.47.276.91.532 1.36.808-.09-.042-.15-.085-.24-.127-.72-.447-1.1-.681-1.12-.681Z" fill="#4390E7"/><path d="M1145.23 486.88c-.19.404-.43.787-.64 1.17l-.32.596-.36.553c-.25.382-.49.765-.74 1.127l-.81 1.085c-2.19 2.871-4.94 5.36-7.87 7.529-2.96 2.212-6.19 3.893-9.25 5.743-3.11 1.808-6.15 3.595-9.09 5.297a7176.01 7176.01 0 0 1-16.12 9.401c-.98.574-1.93 1.127-2.83 1.659v-.532l-.47-.276c.92-.532 1.88-1.064 2.85-1.638 4.75-2.701 10.28-5.871 16.21-9.253 2.96-1.701 6.02-3.445 9.15-5.211 3.08-1.808 6.36-3.488 9.27-5.615 2.94-2.127 5.66-4.552 7.85-7.381l.81-1.063c.25-.362.49-.745.74-1.106l.37-.553.31-.575c.22-.383.45-.765.64-1.148.79-1.553 1.38-3.17 1.83-4.807.41-1.638.6-3.319.64-4.935-.02-1.638-.19-3.233-.55-4.743-.71-3.042-2.05-5.722-3.56-7.977-1.51-2.276-3.23-4.105-4.82-5.636-1.6-1.532-3.15-2.702-4.43-3.637-1.32-.915-2.34-1.596-3.08-2.042l-1.11-.681c.02.021.41.234 1.13.681.06.042.15.085.23.127.73.426 1.68 1.064 2.87 1.872 1.28.936 2.85 2.084 4.47 3.616 1.64 1.51 3.36 3.339 4.91 5.615 1.54 2.255 2.92 4.956 3.66 8.019.39 1.532.56 3.148.6 4.807 0 .83-.07 1.681-.15 2.531-.11.83-.23 1.659-.43 2.51-.53 1.617-1.12 3.276-1.91 4.871ZM1111.79 482.775c.2-.234.34-.532.52-.83.08-.148.19-.297.27-.468.09-.17.15-.34.24-.531.65-1.404 1.12-3.361.76-5.509a9.486 9.486 0 0 0-.74-2.383c-.64-1.361-1.6-2.701-2.81-3.913-1.17-1.128-2.57-2.127-4.11-3.021v-.149l.09-.042c1.55.915 2.96 1.936 4.15 3.105 1.19 1.213 2.15 2.553 2.78 3.914.39.808.64 1.638.75 2.467.34 2.191-.15 4.148-.81 5.552-.09.17-.15.362-.23.532-.11.17-.2.319-.28.468 0 .021-.02.021-.02.042-.02.043-.07.107-.09.149-.15.234-.25.468-.42.659-.05.064-.11.128-.15.192-.15.191-.3.404-.45.595-.13.149-.23.298-.36.426l-.02.021-.04.043c-.3.319-.51.553-.66.702a.693.693 0 0 0-.15.17c.02-.043.08-.085.15-.17.15-.149.38-.405.68-.745.3-.34.57-.787.95-1.276Z" fill="#58709C"/><path d="M996.529 503.833c-.234.425-7.295 12.443-7.529 12.719.042-.319 5.19-17.76 5.19-17.76s8.95 5.041 9.17 5.147c.08-.149 7.27-10.103 7.53-10.38-.05.319-5.15 15.421-5.15 15.421l-9.211-5.147Z" fill="#FFD683"/><path d="m989 516.573 7.529-12.74-.021 3.53-7.508 9.21ZM1005.72 509.001l-.02 3.531 5.19-18.93-5.17 15.399Z" fill="#FFA256"/><path d="m1005.7 512.532-9.191-5.169.021-3.53 9.19 5.168-.02 3.531Z" fill="#FEDA93"/><path d="M1058.34 539.524c-.23.425-7.29 12.443-7.53 12.719.04-.319 5.19-17.76 5.19-17.76s8.96 5.041 9.17 5.147c.08-.149 7.27-10.103 7.53-10.38-.04.319-5.15 15.421-5.15 15.421l-9.21-5.147Z" fill="#FFD683"/><path d="m1050.81 552.265 7.53-12.741-.02 3.531-7.51 9.21ZM1067.53 544.692l-.02 3.531 5.19-18.93-5.17 15.399Z" fill="#FFA256"/><path d="m1067.51 548.223-9.19-5.168.02-3.531 9.19 5.169-.02 3.53Z" fill="#FEDA93"/></svg>