<svg width="750" height="381" fill="none" xmlns="http://www.w3.org/2000/svg"><path opacity=".75" d="M167.193 33.277c.094.66.168.776.361 1.437.202.624.122 1.165-.091 1.498-.214.332-.546.478-.899.54-.353.062-.473-.025-.778-.092-.305-.068-.886-.056-1.129-.13-.229-.05-.62.003-.963-.073-.342-.076-.861-.17-.899-.538-.039-.368-.028-.506.221-.73.235-.248.448-.58.454-.878.006-.299.284-1.196.258-1.44-.025-.246-.003-.98.088-1.3.09-.319.031-.771.106-1.114.076-.343.288-1.754.387-2.111.099-.358.316-1.248.375-1.515.097-.258.238-1.165.318-1.347.08-.182.23-.768.303-1.011.066-.206.152-.686.312-1.05.161-.364.377-1.254.527-1.48.15-.227.26-.722.384-.834.125-.113.307-.392.463-.557.171-.142.655-.255 1.086-.399.455-.159 1.168-.221 1.491-.33.338-.084.681-.008.73.222.049.23-.203.554-.298.713-.095.159-.612 1.143-.738 1.354-.127.212-.878 2.163-1.044 2.825-.166.662-.09 1.038-.282 1.096-.155.065-.165.203-.131.41.049.23-.016.436-.09.679-.051.228-.349 1.76-.364 2.096.009.322-.1 1.176-.138 1.527-.037.351.109.324-.026.573-.136.25.081.537-.031.772-.013.237-.025.833.037 1.187Z" fill="#BBB0E5" fill-opacity=".32"/><path opacity=".75" d="M179.667 15.866c-.144-.071-.512-.033-.943.111a5.088 5.088 0 0 0-.52.005c-.298-.006-1.345.302-1.584.389-.192.057-.285.117-.287.216-.157.165-.298.353-.509.586-.336.345-.597 1.166-.867 2.025-.293.874-1.297 5.864-1.41 6.558-.113.693-.39 1.49-.521 1.182-.146-.332-.594-2.008-.813-2.915-.07-.315-.607-1.772-.738-2.08-.109-.324-.901-1.617-1.149-1.852-.247-.234-.423-.253-.73-.22a9.682 9.682 0 0 0-.913.157c-.23.048-1.044.208-1.345.301-.277.079-.401.55-.373.697 0 0 .305.426.527.775.208.326.835 1.463.968 1.672.134.21.534.837.611 1.213.076.376.512 1.93.563 2.42.066.515.436 2.274.449 2.756.028.506.354 2.554.431 2.93.076.377.281.442.569.586.273.12.742-.016 1.14-.008.398.008 1.294-.073 1.63-.059 0 0 .398.008.717-.26.319-.27.273-.24.837-.894.563-.654.328-1.125.624-1.739.295-.613.505-2.284.618-2.978.114-.694.759-4.605.988-5.373.066-.205.165-.563.28-.996.1.361.208.685.281.9.246.694.524 1.694.729 2.119.244.433.716.917 1.038.908.344-.024 1.089-.139 1.6-.106.512.034 1.356-.08 1.658-.272.302-.193.017-.436-.147-.692-.163-.255-.335-.832-.441-1.255-.129-.408-.498-1.089-.587-1.588-.113-.484-.717-1.995-.76-2.165-.042-.169-.882-2.152-1.102-2.6a.547.547 0 0 0-.187-.24c.049-.13-.165-.157-.332-.214Z" fill="#BBB0E5" fill-opacity=".32"/><path opacity=".75" d="M179.965 24.998c.438-.083 1.567.047 2.112-.072.531-.142 1.386-.033 1.778-1.264.392-1.232.366-3.374.817-4.872.466-1.474 1.06-3.26 1.389-4.385 0 0 .428 1.133.856 1.906.428.774 1.315 1.19 2.066 1.136.75-.054 1.571-.152 2.171-.339.577-.172 1.173-.878 1.445-1.477.249-.584.392-1.591.592-2.046.186-.478.652-3.13.997-3.154.345-.024 1.534.199 2.138.173.605-.026 2.022-.112 2.404-.487.383-.375.689-1.126.828-1.574.139-.449.146-1.206.169-1.58.046-.39.004-.559.39-1.492.386-.933.352-.78.525-1.381.173-.6.126-.571.027-.573-.085.02-.1-.002-.152-.034-.053-.032-.083-.078-.051-.131a.953.953 0 0 1 .105-.296c.063-.106.19-.318.12-.273-.069.044-.078.082-.131.05-.053-.03-.082-.077-.027-.145.054-.068.118-.174.027-.214-.091-.04-.243-.074-.243-.074s-.007-.06-.062.007c-.04.09-.088.22-.135.25-.046.03-.12-.087-.112-.125.008-.038.074-.243.16-.364.072-.144.034-.152.097-.258.064-.106.051-.229-.027-.146a2.241 2.241 0 0 0-.237.347c-.04.091-.103.197-.112.235-.031.053-.04.09-.078.083a.569.569 0 0 1-.135-.11s-.022-.085-.005-.161c.017-.076.064-.106.095-.159.017-.076-.059-.093-.12-.086-.038-.009-.231.049-.239.087-.032.053-.135.25-.182.279-.046.03-1.38 2.45-1.541 2.814-.152.326-.713 1.6-.839 1.812-.127.211-.3.452-.421.366-.12-.087-1.548-.223-2.015-.186-.453.06-1.8.101-2.24.284-.448.22-1.183.656-1.379 1.272-.196.616-1.252 4.396-1.252 4.396s-.979-1.894-1.097-2.08c-.119-.186-.255-.296-.544-.34-.29-.044-2.688.145-2.942.209-.253.063-1.103.475-1.221.648-.119.174-1.2 1.812-1.499 2.624-.3.813-.881 2.72-1.003 3.093-.146.387-.909 2.215-1.093 2.594-.198.356-.447 3.556-.702 4.078-.24.546-.316.889-.119.992.182.08.647.143.647.143Z" fill="#BBB0E5" fill-opacity=".32"/><path d="M732.729 239.719a.858.858 0 0 1-.566-.382.86.86 0 0 1-.125-.671.853.853 0 0 1 .381-.559.846.846 0 0 1 .672-.131.837.837 0 0 1 .558.387.842.842 0 0 1 .133.665.852.852 0 0 1-.389.565.852.852 0 0 1-.664.126ZM731.41 236.401c-.172.825-.623 1.371-1.353 1.64-.621.232-1.402.251-2.344.055-.173-.036-.407-.09-.7-.16-.338-.09-.573-.149-.704-.176a.933.933 0 0 1-.231-.019c-.478-.099-.65-.472-.515-1.119.019-.089.103-.365.253-.827.196-.615.351-1.196.465-1.744.078-.375.165-.91.26-1.604.101-.697.191-1.234.269-1.608.103-.497.382-.698.837-.604.483.101.679.366.589.798a31.635 31.635 0 0 0-.332 2.057c.231.039.413.071.544.099 1.129.235 1.927.559 2.393.974.581.522.771 1.268.569 2.238Zm-1.357-.282c.109-.525.021-.913-.264-1.163-.23-.209-.683-.384-1.358-.524a14.451 14.451 0 0 0-.765-.13c-.016.1-.033.194-.051.283-.074.356-.264 1.055-.568 2.096.387.091.693.159.918.206 1.232.256 1.928 0 2.088-.768ZM721.722 237.209c-.961-.2-1.702-.657-2.223-1.372-.548-.749-.718-1.623-.51-2.621.197-.952.718-1.868 1.561-2.748.937-.979 1.846-1.376 2.727-1.193.459.095.95.31 1.472.643.66.426.948.838.865 1.236a.744.744 0 0 1-.275.442.566.566 0 0 1-.478.113.583.583 0 0 1-.334-.194l-.237-.306c-.231-.278-.66-.482-1.288-.613-.478-.099-1.04.229-1.686.984-.589.694-.943 1.327-1.062 1.899-.129.618-.019 1.15.328 1.593.325.415.796.687 1.415.815.281.059.597.046.946-.037l.906-.267c.157-.045.265-.062.326-.049a.598.598 0 0 1 .406.304.688.688 0 0 1 .092.511c-.071.342-.501.597-1.289.766-.691.149-1.245.181-1.662.094ZM717.51 233.869c-.038.183-.104.453-.197.81-.094.356-.16.626-.198.809a.67.67 0 0 1-.306.45.673.673 0 0 1-.535.101.705.705 0 0 1-.464-.309.685.685 0 0 1-.094-.533c.063-.305.172-.756.326-1.355.154-.599.262-1.05.326-1.355.12-.576.189-1.134.208-1.672-.747.724-1.284 1.226-1.611 1.505-.629.534-1.228.957-1.797 1.269-.749.406-1.312.739-1.689.998-.302.206-.588.281-.86.224a.907.907 0 0 1-.501-.272.587.587 0 0 1-.145-.537c.278-1.335.544-2.732.798-4.19.262-1.515.388-2.253.381-2.216.099-.478.383-.668.852-.571.398.083.583.356.555.82-.005.072-.085.537-.239 1.395l-.642 3.511c.837-.476 1.739-1.11 2.706-1.901.3-.246 1.132-.967 2.496-2.165.353-.313.687-.436 1.001-.371a.683.683 0 0 1 .451.299c.109.16.142.34.1.542-.108.52-.262 1.307-.461 2.36a150.773 150.773 0 0 1-.461 2.354ZM708.927 233.741a.69.69 0 0 1-.841.551.702.702 0 0 1-.465-.302.675.675 0 0 1-.093-.54c.079-.38.231-1.184.458-2.413-.657.289-1.404.346-2.243.171-.994-.206-1.642-.698-1.945-1.475-.298-.776-.287-1.935.034-3.476.16-.769.488-1.101.985-.998a.693.693 0 0 1 .458.3.677.677 0 0 1 .093.541 2.093 2.093 0 0 1-.069.227 1.74 1.74 0 0 0-.068.221c-.259 1.241-.313 2.091-.163 2.547.136.425.523.703 1.16.836.286.059.651.032 1.095-.081.476-.126.815-.299 1.018-.521.027-.132.092-.419.194-.862.102-.443.165-.723.19-.841.019-.093.039-.236.059-.427.025-.191.047-.33.065-.419a.648.648 0 0 1 .305-.443.748.748 0 0 1 .546-.084c.496.103.656.583.477 1.441a7.936 7.936 0 0 1-.126.502c-.053.209-.087.346-.101.411-.112.539-.283 1.396-.512 2.571a260.614 260.614 0 0 1-.511 2.563ZM703.449 226.404l-3.526 4.752c-.866 1.155-1.548 2.13-2.046 2.926l-.748 1.267c-.192.312-.438.437-.738.375a.754.754 0 0 1-.472-.304.629.629 0 0 1-.111-.522c.097-.468.885-1.72 2.365-3.754l-1.509-5.366-.21-.579c-.082-.242-.107-.436-.077-.581a.708.708 0 0 1 .323-.461c.18-.114.362-.152.544-.114a.59.59 0 0 1 .448.35c.567 1.272 1.095 3.024 1.583 5.257l1.545-2.208c.55-.761 1.06-1.408 1.533-1.94.205-.231.429-.322.672-.271.193.04.347.143.464.309a.646.646 0 0 1 .124.532.86.86 0 0 1-.164.332Z" fill="#EF627E"/><path d="M691.724 229.95a.567.567 0 0 1-.32.41.778.778 0 0 1-.528.073c-.329-.068-.521-.282-.578-.641-.053-.358-.276-.991-.669-1.899-.42-.963-.717-1.464-.889-1.505l-.844-.176c-.032.155-.091.429-.178.821-.081.365-.141.641-.18.828-.159.769-.262 1.205-.308 1.308-.154.364-.423.506-.808.426a.784.784 0 0 1-.469-.281.595.595 0 0 1-.107-.507c.045-.22.126-.562.243-1.027.117-.47.199-.817.246-1.042.092-.445.215-1.116.367-2.013a64.38 64.38 0 0 1 .369-2.021c.126-.604.43-.856.913-.756.197.041.35.136.461.287a.61.61 0 0 1 .107.506 87.764 87.764 0 0 0-.382 2.084l.513.107c.58.081 1.045-.089 1.397-.509l.435-.614c.517-.674 1.043-.956 1.577-.845.169.035.336.111.502.229.213.152.302.312.267.481-.077.37-.275.522-.594.456-.262-.055-.599.203-1.011.772-.285.386-.445.599-.478.641-.201.237-.405.41-.614.518.4.43.778 1.081 1.134 1.952.367.893.509 1.538.426 1.937ZM681.683 228.756c-1.059-.221-1.862-.664-2.408-1.33-.595-.735-.783-1.629-.563-2.684.253-1.218.761-2.178 1.523-2.88.829-.766 1.78-1.038 2.853-.815.778.162 1.386.425 1.823.79.538.449.737 1.009.597 1.679-.097.469-.451.84-1.06 1.114-.27.12-.821.279-1.654.477l-2.95.714c.181.444.446.804.794 1.082.353.279.789.472 1.309.58.324.068.716.086 1.177.055.585-.04.983-.167 1.194-.383.212-.22.41-.311.593-.273a.614.614 0 0 1 .396.281.58.58 0 0 1 .108.47c-.109.52-.621.88-1.538 1.081-.783.169-1.515.183-2.194.042Zm1.142-6.443c-.572-.119-1.094.004-1.566.371-.471.361-.893.968-1.266 1.819l2.372-.577c.934-.236 1.613-.469 2.037-.699-.325-.458-.851-.763-1.577-.914ZM677.928 225.723c-.178.857-.97 1.326-2.375 1.405-.881.052-1.919-.047-3.114-.296-.183-.038-.343-.147-.482-.327-.133-.18-.182-.358-.145-.536l.278-1.336.854-3.753.146-.703c.064-.285.143-.508.235-.67a.424.424 0 0 1 .268-.23c.053-.019.189-.029.41-.032.296-.012.772.05 1.428.187.754.157 1.4.482 1.938.975.628.576.869 1.217.722 1.925-.137.656-.588 1.063-1.354 1.222.324.228.611.55.862.964.289.47.398.872.329 1.205Zm-1.152-3.665c.06-.285-.085-.577-.434-.875-.307-.264-.615-.428-.924-.492l-.288-.06a8.144 8.144 0 0 0-.728-.13c-.038.158-.094.416-.168.772a7.07 7.07 0 0 0-.075.534 3.645 3.645 0 0 1-.097.538c.261.083.5.147.715.192.525.109.914.156 1.167.14.476-.033.753-.239.832-.619Zm-.227 3.312c.053-.253-.082-.531-.406-.833a2.833 2.833 0 0 0-.823-.552 4.687 4.687 0 0 0-.796-.232 18.58 18.58 0 0 1-.809-.197c-.085.314-.151.582-.196.802l-.286 1.371c2.09.342 3.196.222 3.316-.359ZM658.794 218.179c.571.119 1.426.314 2.562.584 1.142.267 1.999.46 2.571.579l1.654.3 1.452.243.4.091c.412.086.574.342.485.768-.108.52-.57.696-1.385.526a14.817 14.817 0 0 1-.621-.151 13.304 13.304 0 0 0-.615-.15 633.36 633.36 0 0 0-4.179-.847 959.487 959.487 0 0 1-4.179-.855c-.478-.099-.669-.381-.572-.845.091-.436.364-.621.82-.556.195.026.73.13 1.607.313ZM651.078 220.049c-.038.183-.104.453-.198.81-.094.357-.16.627-.198.809a.67.67 0 0 1-.306.45.667.667 0 0 1-.534.102.698.698 0 0 1-.559-.843c.064-.304.172-.756.326-1.354.154-.599.263-1.051.326-1.355.12-.577.189-1.134.209-1.673a41.105 41.105 0 0 1-1.612 1.506c-.629.534-1.228.957-1.796 1.269-.75.406-1.313.739-1.689.998-.302.206-.589.28-.861.224a.908.908 0 0 1-.5-.273.587.587 0 0 1-.146-.536c.278-1.336.544-2.732.799-4.19.261-1.515.388-2.254.38-2.216.099-.478.383-.669.852-.571.398.083.584.356.556.819-.006.073-.085.538-.239 1.395l-.643 3.512c.838-.477 1.74-1.11 2.706-1.902.3-.245 1.132-.967 2.496-2.165.354-.312.688-.436 1.002-.371a.683.683 0 0 1 .451.3.68.68 0 0 1 .1.541c-.109.52-.262 1.307-.462 2.361a152.804 152.804 0 0 1-.46 2.353ZM643.074 218.473c-.179.857-.97 1.326-2.375 1.405-.881.051-1.919-.047-3.114-.296a.817.817 0 0 1-.482-.327c-.134-.18-.182-.359-.145-.537l.278-1.335c.002-.014.287-1.265.854-3.753l.146-.703c.064-.285.142-.508.234-.67a.423.423 0 0 1 .268-.23c.053-.019.19-.029.41-.032.296-.012.772.05 1.428.187a4.022 4.022 0 0 1 1.939.975c.628.575.869 1.217.721 1.925-.136.656-.588 1.063-1.354 1.221.324.229.612.55.863.964.288.471.398.873.329 1.206Zm-1.152-3.665c.059-.286-.085-.577-.434-.875-.307-.264-.615-.428-.924-.493l-.289-.06a7.961 7.961 0 0 0-.728-.129c-.038.158-.094.415-.168.772a7.87 7.87 0 0 0-.074.534c-.027.224-.06.403-.097.537.261.084.499.148.715.193.525.109.913.156 1.166.14.476-.033.754-.239.833-.619Zm-.227 3.312c.053-.253-.083-.531-.406-.833a2.817 2.817 0 0 0-.824-.552 4.699 4.699 0 0 0-.795-.232 17.058 17.058 0 0 1-.81-.198c-.085.315-.15.583-.196.803l-.285 1.371c2.09.341 3.195.222 3.316-.359ZM635.808 216.873c-.038.183-.104.453-.198.81-.093.357-.159.627-.197.809a.669.669 0 0 1-.307.45.667.667 0 0 1-.534.102.703.703 0 0 1-.558-.843c.063-.304.172-.756.326-1.354.154-.599.262-1.051.326-1.355.119-.577.189-1.134.208-1.673a40.551 40.551 0 0 1-1.611 1.506c-.629.534-1.228.957-1.797 1.269-.749.406-1.312.739-1.689.998-.302.206-.589.28-.86.224a.91.91 0 0 1-.501-.273.586.586 0 0 1-.145-.536c.278-1.336.544-2.732.798-4.19.262-1.515.388-2.254.38-2.216.1-.478.384-.669.853-.571.398.083.583.356.555.819a37.9 37.9 0 0 1-.239 1.395l-.642 3.511c.837-.476 1.739-1.109 2.705-1.901.301-.245 1.133-.967 2.497-2.165.353-.312.687-.436 1.001-.371a.681.681 0 0 1 .451.3c.109.159.142.34.1.541-.108.52-.262 1.307-.462 2.361a141.418 141.418 0 0 1-.46 2.353ZM627.354 216.618a.521.521 0 0 1-.283.374.704.704 0 0 1-.482.061c-.295-.061-.465-.256-.51-.583-.054-.373-.28-1.024-.679-1.952-.423-.998-.735-1.52-.935-1.566l-.211-.044c-.042.201-.105.491-.189.87a99.25 99.25 0 0 0-.189.877c-.162.778-.264 1.219-.305 1.323-.142.332-.387.462-.734.39-.426-.089-.599-.325-.519-.709.047-.23.13-.582.248-1.056a23.572 23.572 0 0 0 .437-1.955l-.218-.046c-.192-.04-.684.313-1.474 1.058-.737.697-1.202 1.207-1.396 1.528-.176.281-.412.391-.707.33a.702.702 0 0 1-.416-.255.525.525 0 0 1-.111-.456c.083-.398.484-.948 1.201-1.65.706-.689 1.317-1.136 1.834-1.342-.204-.218-.396-.74-.576-1.564-.157-.727-.381-1.121-.671-1.181-.272-.057-.374-.249-.306-.577.03-.141.157-.236.383-.287.185-.045.36-.05.524-.016.314.065.55.244.71.536.085.155.177.441.276.857.052.29.159.669.321 1.138.13.218.424.381.88.491.123-.776.226-1.366.31-1.769.118-.572.396-.812.832-.722a.66.66 0 0 1 .421.264c.1.133.132.286.095.46-.049.239-.177.921-.381 2.047.47.088.817.055 1.04-.099.096-.063.353-.369.77-.918.256-.338.454-.563.595-.675a1.02 1.02 0 0 1 .872-.208c.159.034.315.108.467.222.187.137.265.276.236.416-.068.328-.238.464-.51.407-.29-.06-.652.212-1.086.816-.29.404-.457.631-.501.68-.214.254-.432.431-.653.532.392.394.775 1.046 1.148 1.955.378.929.526 1.595.442 1.998ZM614.802 213.949a.564.564 0 0 1-.32.41.778.778 0 0 1-.528.074c-.328-.069-.521-.282-.578-.641-.053-.358-.276-.991-.669-1.899-.42-.963-.717-1.465-.889-1.506l-.844-.175a67.44 67.44 0 0 1-.178.821c-.081.365-.141.641-.18.828-.159.769-.262 1.204-.308 1.307-.154.364-.423.506-.807.426a.779.779 0 0 1-.47-.281.596.596 0 0 1-.107-.506c.046-.22.127-.563.243-1.028.117-.469.199-.816.246-1.041.092-.445.215-1.117.367-2.014.153-.897.276-1.57.369-2.02.126-.605.43-.857.913-.757.197.041.35.137.461.287.111.15.146.319.107.506a87.764 87.764 0 0 0-.382 2.084l.513.107c.58.081 1.045-.088 1.397-.509l.435-.613c.517-.675 1.043-.957 1.577-.846.169.035.336.112.502.23.213.151.302.312.267.48-.077.371-.275.523-.593.456-.263-.054-.6.203-1.012.773-.285.385-.445.599-.478.641a2.077 2.077 0 0 1-.614.517c.4.431.778 1.081 1.134 1.952.367.893.509 1.539.426 1.937ZM604.762 212.755c-1.059-.221-1.862-.664-2.408-1.33-.595-.735-.783-1.629-.563-2.684.253-1.218.761-2.178 1.523-2.88.829-.766 1.78-1.038 2.853-.815.778.162 1.386.425 1.823.79.538.449.737 1.009.597 1.679-.097.469-.451.84-1.06 1.114-.27.12-.821.279-1.654.477l-2.95.714c.182.444.446.804.794 1.082.353.279.789.472 1.31.58.323.068.715.086 1.176.055.586-.04.984-.167 1.195-.383.212-.22.409-.311.592-.273a.614.614 0 0 1 .396.281.58.58 0 0 1 .108.47c-.109.52-.621.88-1.538 1.081-.783.169-1.515.183-2.194.042Zm1.142-6.443c-.572-.119-1.093.004-1.566.371-.471.361-.893.968-1.265 1.819l2.371-.577c.934-.236 1.613-.469 2.037-.699-.325-.458-.85-.763-1.577-.914ZM598.35 210.79c-1.14.193-2.531.119-4.171-.222-.201-.042-.373-.178-.516-.408-.139-.225-.188-.438-.146-.639l.426-2.046c.139-.67.38-1.617.723-2.842.372-1.32.626-2.28.76-2.878.085-.432.244-1.068.478-1.91.081-.227.191-.366.328-.415.678-.064 1.423-.012 2.234.156.824.172 1.558.618 2.2 1.338.742.829 1.014 1.719.816 2.671-.251 1.204-.917 2.055-1.998 2.554.64.446 1.096.888 1.367 1.326.275.438.368.873.278 1.304-.117.567-.538 1.052-1.263 1.454a4.615 4.615 0 0 1-1.516.557Zm-.183-9.77c-.51-.106-.872-.164-1.085-.174l-.27 1.227-.707 2.691c.654.195 1.005.295 1.053.3.719.091 1.343-.009 1.873-.3.57-.317.923-.803 1.059-1.459.093-.445-.067-.909-.481-1.391-.413-.482-.893-.78-1.442-.894Zm-.384 5.795-.72-.275a7.899 7.899 0 0 1-.567-.096 5.662 5.662 0 0 1-.795-.231 34.69 34.69 0 0 0-.371 1.573l-.303 1.455c1.237.213 2.274.248 3.11.104.354-.058.709-.19 1.065-.395.336-.184.517-.337.543-.459.046-.22-.203-.531-.745-.932a7.084 7.084 0 0 0-1.217-.744ZM111.657 42.695c-1.637 1.004-3.292.989-4.965-.046-1.278-.803-2.483-2.128-3.617-3.976-.958-1.562-1.422-3.153-1.392-4.772.043-1.902.818-3.315 2.326-4.24 1.417-.869 2.891-.943 4.423-.222 1.325.626 2.449 1.69 3.37 3.193 1.48 2.414 2.209 4.46 2.188 6.142-.025 1.676-.803 2.983-2.333 3.921Zm-6.699-11.47c-1.002.615-1.485 1.611-1.448 2.99.032 1.151.383 2.274 1.054 3.368 1.087 1.772 2.142 2.956 3.167 3.55 1.024.595 2.016.599 2.975.01 1.142-.7 1.561-1.854 1.257-3.461-.21-1.117-.741-2.37-1.593-3.76-.896-1.46-1.795-2.413-2.699-2.86-.899-.449-1.803-.395-2.713.163ZM96.404 40.507l3.779-2.306c.479-.294.866-.201 1.16.278.294.48.201.866-.278 1.16l-3.787 2.311c-.124.076-.305.198-.543.366-.236.16-.413.276-.531.348a.805.805 0 0 1-.646.108.86.86 0 0 1-.511-.399c-.238-.387-.157-.763.243-1.127.101-.1.473-.346 1.114-.74Zm3.122 4.057c.355-.218.893-.537 1.614-.957.721-.42 1.26-.74 1.615-.957.48-.294.866-.201 1.16.278.294.48.202.866-.278 1.16a88.15 88.15 0 0 1-1.615.957 87.88 87.88 0 0 0-1.614.957c-.162.1-.398.259-.708.478a14 14 0 0 1-.7.474c-.495.304-.89.216-1.183-.264-.271-.441-.187-.823.253-1.145.572-.41 1.057-.737 1.456-.981ZM94.923 47.665l1.833 2.99c.307.5.216.901-.275 1.202-.57.35-1.096.135-1.575-.646a8.578 8.578 0 0 1-.236-.422 8.493 8.493 0 0 0-.207-.374l-1.133-1.83-3.618 2.097c-.738.453-1.264.742-1.58.869-.54.22-.902.179-1.087-.123-.149-.242-.189-.64-.12-1.194l.19-1.25.417-8.24c.054-.722.358-1.253.913-1.594.609-.373 1.075-.296 1.398.232l4.118 6.715c.088-.061.197-.132.327-.211.99-.608 1.65-.645 1.977-.112.238.388.183.759-.163 1.112-.154.16-.547.42-1.18.779Zm-5.76-5.875c-.031 3.177-.1 5.584-.208 7.222l3.419-1.986-3.211-5.236ZM86.192 52.596c-.686.525-1.967 1.362-3.842 2.511-.452.278-.807.206-1.065-.214-.258-.42-.16-.769.292-1.046a55.475 55.475 0 0 0 1.88-1.231c.829-.56 1.456-.97 1.881-1.231.48-.294.848-.231 1.106.19.228.37.144.711-.252 1.02ZM78.241 53.213l-.5 1.83-.562 2.313 4.745 1.827c.24.09.412.218.514.385.13.21.162.445.1.706a.889.889 0 0 1-.4.58c-.206.125-.453.14-.742.042-.849-.272-2.402-.847-4.66-1.723l-.58 2.59c-.142.48-.333 1.21-.571 2.186-.054.3-.18.51-.38.633a.89.89 0 0 1-.698.094.914.914 0 0 1-.576-.414c-.102-.167-.14-.378-.11-.633.029-.291.116-.675.262-1.15.17-.556.276-.933.319-1.13l.616-2.857-1.995-.878c-.799-.348-1.443-.564-1.933-.65-.317-.057-.541-.194-.674-.41a.975.975 0 0 1-.125-.712c.054-.263.18-.455.38-.577.317-.195 1.051-.074 2.201.362l2.582 1.074.692-2.426c.278-1.022.425-1.78.442-2.272.017-.359.144-.61.38-.756a.914.914 0 0 1 .702-.108.859.859 0 0 1 .574.393c.182.296.181.857-.003 1.681ZM69.622 68.55c-.814.5-1.648.778-2.502.835-.969.052-1.798-.2-2.487-.755a1.045 1.045 0 0 1-.222-.253.792.792 0 0 1-.084-.682.995.995 0 0 1 .44-.57c.215-.132.462-.147.74-.043l.714.33a2.1 2.1 0 0 0 1.15.117c.409-.072.841-.249 1.3-.53.586-.36.989-.858 1.206-1.496.23-.675.174-1.293-.17-1.853-.498-.813-1.195-1.28-2.09-1.397-.786-.097-1.643.077-2.572.52-.635.308-1.082.249-1.343-.177-.195-.318-.11-.704.257-1.158l1.639-1.661c.289-.363.458-.715.508-1.057a1.554 1.554 0 0 0-.224-1.019 1.57 1.57 0 0 0-1.254-.81c-.578-.06-1.222.127-1.934.563a2.699 2.699 0 0 0-.903.92l-.56 1.134c-.11.223-.217.367-.325.433a.879.879 0 0 1-.706.1.964.964 0 0 1-.573-.428c-.261-.425-.1-1.087.483-1.986.502-.79.984-1.326 1.447-1.61 1.158-.71 2.234-1.018 3.227-.923 1.064.104 1.908.665 2.532 1.683.777 1.266.777 2.415.001 3.446-.068.094-.15.196-.246.307.879-.176 1.658-.108 2.337.201.676.305 1.255.85 1.737 1.637.651 1.061.83 2.193.537 3.396-.296 1.197-.983 2.126-2.06 2.787ZM61.407 65.927c.122.2.162.416.12.65a.74.74 0 0 1-.36.52c-.064.04-.168.088-.31.146a2.297 2.297 0 0 0-.319.15l-.798.512c-.322.213-.592.378-.808.496l1.164 1.899c.298.485.207.874-.273 1.168-.237.145-.454.197-.65.154-.195-.051-.366-.198-.515-.44l-.578-.925-.583-.932c-.629.438-1.078.739-1.347.904-.835.512-1.404.52-1.708.025-.215-.35-.2-.66.043-.927.086-.09.347-.269.783-.536.27-.165.718-.467 1.347-.904l-.588-.94c-.3-.49-.484-.845-.551-1.064-.066-.226-.071-.423-.017-.59a.76.76 0 0 1 .347-.413.842.842 0 0 1 .64-.115c.225.04.4.163.526.368.056.091.135.243.235.456.106.209.19.365.254.467l.573.916.62-.347c.108-.066.27-.172.483-.318.212-.152.37-.26.478-.327.884-.542 1.481-.56 1.791-.053ZM46.317 70.588l.689-.4.689-.4c.178-.11.422-.297.734-.562.317-.269.56-.454.726-.556a.612.612 0 0 1 .526-.067c.19.054.335.165.438.332.303.496-.267 1.186-1.71 2.071-.183.113-.459.274-.826.485-.362.207-.635.367-.818.48-.286.174-.566.26-.841.26-.33-.006-.577-.144-.742-.413-.437-.711-.524-1.495-.264-2.352l.925-2.045c.34-.728.387-1.29.143-1.69-.096-.155-.306-.268-.63-.336-.323-.069-.566-.053-.727.046-.372.228-.595.517-.67.866l-.001.868c0 .304-.101.518-.306.644a.755.755 0 0 1-.535.106.64.64 0 0 1-.444-.306c-.317-.517-.309-1.127.025-1.828a3.318 3.318 0 0 1 1.29-1.469c.506-.31 1.091-.395 1.756-.254.667.132 1.149.44 1.446.925.426.695.58 1.369.46 2.02-.06.348-.29.916-.69 1.702-.38.736-.593 1.36-.643 1.873ZM42.28 75.265l-.5 1.83-.562 2.313 4.745 1.827c.24.09.412.218.514.385a.9.9 0 0 1 .1.706.89.89 0 0 1-.4.58c-.206.125-.453.14-.742.043-.849-.273-2.402-.847-4.66-1.724l-.58 2.59c-.142.48-.333 1.21-.571 2.186-.054.3-.18.51-.38.633a.89.89 0 0 1-.698.094.914.914 0 0 1-.576-.413c-.102-.168-.139-.379-.11-.633.029-.292.116-.676.262-1.15.17-.557.276-.934.319-1.13l.616-2.858-1.995-.878c-.799-.348-1.443-.564-1.933-.65-.317-.057-.541-.194-.673-.41a.975.975 0 0 1-.126-.712c.054-.262.18-.455.38-.577.318-.195 1.051-.074 2.201.362l2.582 1.074.692-2.425c.278-1.023.425-1.78.442-2.273.017-.359.144-.61.38-.756a.914.914 0 0 1 .702-.108.859.859 0 0 1 .574.393c.182.296.181.857-.003 1.681Z" fill="#727E99"/><path opacity=".1" d="M664.302 355.341c-.124.225-3.867 6.595-3.991 6.741.023-.169 2.751-9.413 2.751-9.413s4.746 2.672 4.859 2.728c.045-.079 3.856-5.355 3.991-5.502-.022.169-2.728 8.174-2.728 8.174l-4.882-2.728ZM697.064 374.258c-.124.226-3.867 6.596-3.991 6.742.022-.169 2.751-9.414 2.751-9.414s4.746 2.672 4.859 2.729c.045-.079 3.856-5.355 3.991-5.502-.023.169-2.728 8.174-2.728 8.174l-4.882-2.729Z" fill="#222"/><path d="m669.939 345.07 17.272-9.978c6.325-3.641 14.634-5.445 22.942-5.411H717.087c8.298-.034 16.618 1.77 22.931 5.423 0 0 .214.124.586.36.395.226.936.598 1.635 1.083.677.507 1.5 1.116 2.345 1.928.857.8 1.759 1.781 2.559 2.987.823 1.195 1.534 2.616 1.906 4.228.191.8.282 1.646.293 2.514a12.287 12.287 0 0 1-.338 2.616 13.474 13.474 0 0 1-.97 2.547c-.101.203-.225.406-.338.609l-.169.305-.192.293c-.124.191-.259.394-.383.586l-.429.564c-1.15 1.488-2.604 2.784-4.16 3.912-1.544 1.127-3.269 2.018-4.915 2.976a654.01 654.01 0 0 1-4.848 2.762c-3.145 1.793-6.077 3.473-8.591 4.904-.518.294-1.026.587-1.511.869-1.826 1.048-3.37 1.927-4.532 2.593-1.161.665-1.927 1.104-2.209 1.262 0 0-7.351-.034-7.407 0l-1.421-.834-1.578-.913-1.579-.902-1.589-.891a126.304 126.304 0 0 0-3.202-1.747c-.53-.293-1.071-.564-1.612-.846-.541-.282-1.082-.564-1.624-.834l6.979-4.025 17.272-9.966a10.94 10.94 0 0 0 2.142-1.59v.012l.011-.012s.011 0 .011-.011l.079-.079c.124-.124.237-.248.35-.372l.022-.022.011-.012c.068-.067.125-.135.192-.225.09-.102.169-.214.237-.316a.545.545 0 0 1 .079-.101c.079-.102.146-.226.225-.35.012-.022.034-.045.045-.079 0-.011.012-.011.012-.022.045-.079.101-.158.146-.248.045-.091.09-.181.124-.282.361-.744.62-1.781.429-2.943a5.398 5.398 0 0 0-.395-1.307 7.395 7.395 0 0 0-1.477-2.075 11.761 11.761 0 0 0-2.198-1.646 13.19 13.19 0 0 0-1.703-.834c-1.375-.564-2.897-.947-4.498-1.184a23.039 23.039 0 0 0-4.239.97c-.451.157-.913.304-1.353.507l-.665.282-.631.327c-.215.112-.417.203-.632.338l-.62.349c-.406.237-.823.463-1.229.699-1.634.936-3.235 1.849-4.791 2.74-3.112 1.781-6.009 3.439-8.501 4.848-.496.282-.958.552-1.42.812a2474.859 2474.859 0 0 0-6.742 3.855s-7.351-.034-7.407 0l-1.42-.834-1.579-.913-1.578-.902-1.59-.891c-1.06-.597-2.131-1.172-3.202-1.747-.529-.293-1.071-.564-1.612-.846-.541-.282-1.082-.563-1.623-.834l6.933-4.036Z" fill="#222" opacity=".1"/><path d="M683.997 343.153c2.469-1.443 5.356-3.122 8.456-4.926 1.544-.902 3.145-1.838 4.769-2.785l1.217-.71.609-.361c.192-.113.417-.225.62-.338l.632-.327.642-.282c.429-.203.88-.349 1.319-.507 1.793-.609 3.676-.981 5.536-1.161 1.86-.181 3.72-.17 5.49.033s3.461.587 4.983 1.195c.598.237 1.173.519 1.703.823v8.174c-5.547-3.202-15.31-2.773-20.868.428l-16.539 9.549v-7.97c.473-.271.935-.553 1.431-.835Z" fill="#AF5F6F"/><path d="M716.85 362.015c2.502-1.455 5.422-3.157 8.545-4.983 1.567-.914 3.179-1.861 4.814-2.808 1.635-.969 3.337-1.871 4.904-3.044 1.556-1.149 3.01-2.469 4.172-3.991l.428-.574c.135-.192.259-.395.395-.598l.191-.293.169-.316c.113-.203.237-.406.339-.62a13.21 13.21 0 0 0 .958-2.604c.101-.44.18-.88.225-1.33l-.011 6.29c.023.44.023.88 0 1.319v.023c-.293 4.51-3.416 8.963-9.368 12.401l-17.272 9.978v-7.971c.485-.282.992-.575 1.511-.879Z" fill="#435168"/><path d="m675.588 347.404-1.42-.835-1.579-.913-1.589-.902-1.59-.89a174.253 174.253 0 0 0-3.202-1.748c-.53-.293-1.071-.563-1.612-.845-.541-.282-1.082-.564-1.623-.835l6.978-4.024 7.159 4.126 5.22 3.01c-3.653 2.086-6.167 3.529-6.742 3.856ZM715.103 362.466a1301.184 1301.184 0 0 0-6.742 3.855l-1.421-.834-1.578-.913-1.59-.902-1.589-.891a180.426 180.426 0 0 0-3.202-1.747c-.53-.293-1.071-.564-1.612-.846-.542-.282-1.083-.564-1.624-.834l6.979-4.025 7.136 4.115 5.243 3.022Z" fill="#C9CED3"/><path d="M697.268 360.335c.507.327 1.026.654 1.544.981 1.037.642 2.075 1.274 3.123 1.894l1.567.935 1.579.925 1.578.913 1.454.823.034 1.905.056 2.064c.023.687.045 1.375.079 2.063.034.687.057 1.375.102 2.063l-12.638-7.294v-8.264a50.53 50.53 0 0 0 1.522.992Z" fill="#DFE7EB"/><path d="M708.474 372.827c.034-.688.057-1.376.079-2.064l.057-2.063.034-1.882c.552-.327 3.066-1.793 6.708-3.912v7.97l-6.979 4.025c.045-.688.068-1.387.101-2.074Z" fill="#A7ACB0"/><path d="M666.05 342.387c1.037.642 2.074 1.274 3.122 1.894l1.567.936 1.579.924 1.578.913 1.455.823.033 1.905.057 2.064c.022.687.045 1.375.079 2.063.033.687.056 1.375.101 2.063l-12.638-7.294v-8.264c.507.338 1.015.665 1.533.992.496.338 1.015.665 1.534.981Z" fill="#DFE7EB"/><path d="m675.791 351.846.056-2.064.034-1.882c.552-.327 3.066-1.793 6.708-3.924v7.971l-6.979 4.025c.045-.688.068-1.376.102-2.063.034-.688.056-1.376.079-2.063Z" fill="#A7ACB0"/><path d="M664.596 341.248c.541.282 1.082.564 1.612.846 1.071.575 2.142 1.161 3.202 1.747l1.59.891 1.589.902 1.579.913 1.42.834c.564-.327 3.089-1.759 6.742-3.855l.248.146v.282c-3.641 2.131-6.155 3.596-6.708 3.923l-.034 1.883-.056 2.063c-.023.688-.045 1.376-.079 2.063-.034.688-.056 1.376-.101 2.063-.046-.687-.068-1.375-.102-2.063-.034-.687-.056-1.375-.079-2.063l-.056-2.063-.034-1.905-1.454-.823-1.579-.913-1.578-.925-1.567-.936a171.77 171.77 0 0 1-3.123-1.894 55.107 55.107 0 0 1-1.545-.981 65.804 65.804 0 0 1-1.533-.992l1.646.857ZM708.372 374.901c-.045-.688-.068-1.376-.101-2.063-.034-.688-.057-1.376-.079-2.063l-.057-2.064-.033-1.905-1.455-.823-1.578-.913-1.579-.925-1.567-.935a185.314 185.314 0 0 1-3.123-1.894 61.858 61.858 0 0 1-1.544-.981 70.547 70.547 0 0 1-1.533-.992c.552.27 1.082.552 1.623.834.541.282 1.082.564 1.612.846 1.071.575 2.142 1.161 3.202 1.747l1.59.891 1.589.902 1.579.913 1.42.834c.564-.327 3.089-1.759 6.742-3.856l.248.147v.282c-3.653 2.131-6.155 3.596-6.708 3.912l-.034 1.883-.056 2.063c-.023.687-.045 1.375-.079 2.063a42.18 42.18 0 0 1-.079 2.097Z" fill="#F2FCFF"/><path d="M722.566 343.289a9.91 9.91 0 0 1-.349.372c.079-.079.192-.203.349-.372Z" fill="#397BD0"/><path d="M720.019 333.695a14.795 14.795 0 0 0-1.703-.835c-1.522-.62-3.224-1.037-5.005-1.251a26.555 26.555 0 0 0-5.525-.079c-1.882.169-3.776.519-5.603 1.116-.451.158-.913.305-1.353.507l-.665.282-.631.327c-.214.113-.417.203-.631.338l-.62.35a69.69 69.69 0 0 1-1.229.699c-1.635.936-3.236 1.849-4.792 2.74-3.111 1.77-6.009 3.427-8.5 4.847-.485.282-.959.553-1.421.812l-5.242-3.021-7.159-4.127 17.272-9.977c12.525-7.227 32.886-7.227 45.411 0l-8.32 4.803-4.284 2.469Z" fill="#EF627E"/><path d="M719.984 333.717v.079a15.941 15.941 0 0 0-1.702-.823c-1.522-.609-3.213-.992-4.983-1.195a26.267 26.267 0 0 0-5.491-.034c-1.86.181-3.743.553-5.535 1.161-.451.158-.902.305-1.319.508l-.643.282-.631.326c-.203.113-.429.215-.62.339l-.609.36-1.218.711-4.769 2.784a6022.812 6022.812 0 0 1-8.455 4.927c-.485.282-.958.564-1.409.823v-.282l-.248-.146c.451-.26.924-.53 1.42-.812 2.492-1.421 5.389-3.078 8.501-4.848l4.791-2.739c.406-.237.823-.463 1.229-.699l.62-.35c.214-.124.429-.225.631-.338l.632-.327.665-.282c.44-.203.902-.349 1.353-.507a24.66 24.66 0 0 1 5.603-1.116 27.237 27.237 0 0 1 5.524.079c1.782.214 3.484.631 5.006 1.251.597.248 1.161.53 1.702.834l-.045.034Z" fill="#FF5778"/><path d="M719.984 333.796a10.622 10.622 0 0 1 2.176 1.601 7.12 7.12 0 0 1 1.488 2.074c.192.417.327.834.395 1.263a4.982 4.982 0 0 1-.406 2.92c-.045.09-.079.192-.124.282-.045.09-.102.169-.147.248-.101.158-.169.315-.27.439-.203.26-.35.485-.508.643-.169.18-.282.304-.36.395-.598-.598-1.342-1.162-2.233-1.68l-.011-8.185Z" fill="#2D4163"/><path d="M734.844 327.866c.676.507 1.499 1.116 2.345 1.928.857.8 1.759 1.781 2.559 2.987.8 1.195 1.511 2.616 1.883 4.228.191.8.282 1.646.293 2.514a12.278 12.278 0 0 1-.338 2.616 13.483 13.483 0 0 1-.97 2.548c-.101.202-.225.405-.338.608l-.169.305-.192.293c-.135.191-.259.394-.395.586l-.428.564c-1.15 1.499-2.604 2.784-4.16 3.912-1.545 1.127-3.269 2.018-4.915 2.976a654.01 654.01 0 0 1-4.848 2.762c-3.146 1.793-6.077 3.473-8.591 4.904-.519.294-1.026.587-1.511.869l-5.242-3.022-7.159-4.126 17.272-9.978a10.999 10.999 0 0 0 2.153-1.589c.034-.023.056-.057.079-.079a9.91 9.91 0 0 0 .349-.372l.023-.023.011-.011c.068-.068.124-.135.192-.225.079-.102.169-.203.237-.316a.63.63 0 0 1 .078-.102c.079-.101.147-.225.226-.349.011-.023.034-.045.045-.079 0-.011.011-.011.011-.023.045-.078.102-.157.147-.248.045-.09.079-.18.124-.281.361-.745.62-1.782.428-2.943a5.414 5.414 0 0 0-.394-1.308 7.411 7.411 0 0 0-1.477-2.074 11.42 11.42 0 0 0-2.199-1.646l4.285-2.469 8.32-4.803s.214.124.586.361c.44.248.992.62 1.68 1.105Z" fill="#5E6C86"/><path d="M732.622 326.423c.248.146.485.282.722.428-.045-.022-.079-.045-.124-.067a12.45 12.45 0 0 0-.598-.361Z" fill="#4390E7"/><path d="M740.807 344.788c-.102.214-.226.417-.338.62l-.169.316-.192.293c-.135.203-.259.406-.395.598l-.428.574c-1.161 1.522-2.616 2.842-4.171 3.991-1.568 1.173-3.281 2.064-4.905 3.044-1.646.959-3.258 1.906-4.814 2.808a3752.565 3752.565 0 0 1-8.545 4.983c-.519.304-1.026.597-1.5.879v-.282l-.248-.146c.485-.282.992-.564 1.511-.868 2.514-1.432 5.445-3.112 8.591-4.905 1.567-.901 3.19-1.826 4.848-2.762 1.634-.958 3.37-1.849 4.915-2.976 1.556-1.127 2.999-2.413 4.16-3.912l.429-.564c.135-.191.259-.394.394-.586l.192-.293.169-.305c.113-.202.237-.405.338-.608.417-.823.733-1.68.97-2.548a12.37 12.37 0 0 0 .338-2.616 11.48 11.48 0 0 0-.293-2.514c-.372-1.612-1.083-3.033-1.883-4.228-.8-1.206-1.714-2.176-2.559-2.987-.846-.812-1.669-1.432-2.345-1.928a31.42 31.42 0 0 0-1.635-1.082l-.586-.361c.011.011.214.124.597.361.034.022.079.045.124.067.384.226.891.564 1.522.992.677.496 1.511 1.105 2.368 1.917.868.8 1.781 1.77 2.604 2.976.812 1.195 1.545 2.627 1.939 4.251.203.811.293 1.668.316 2.547 0 .44-.034.891-.079 1.342-.056.44-.124.879-.225 1.33-.282.857-.598 1.737-1.015 2.582ZM723.085 342.612c.102-.124.18-.282.271-.439.045-.079.101-.158.146-.248.045-.091.079-.181.124-.282.35-.744.598-1.782.406-2.92a4.989 4.989 0 0 0-.394-1.263 7.462 7.462 0 0 0-1.489-2.074c-.62-.598-1.364-1.128-2.175-1.601v-.079l.045-.023c.823.485 1.567 1.026 2.198 1.646.631.643 1.139 1.353 1.477 2.075.203.428.338.868.394 1.308a5.107 5.107 0 0 1-.428 2.942c-.045.09-.079.192-.124.282a7.07 7.07 0 0 0-.146.248c0 .011-.012.011-.012.022-.011.023-.034.057-.045.079-.079.124-.135.248-.225.35-.023.034-.057.068-.079.101-.079.102-.158.215-.237.316-.068.079-.124.158-.192.225l-.011.012-.022.022c-.158.169-.271.293-.35.372-.034.034-.068.068-.079.091.011-.023.045-.046.079-.091a9.23 9.23 0 0 0 .361-.394c.158-.181.304-.417.507-.677Z" fill="#58709C"/><path d="M661.991 353.774c-.124.225-3.867 6.595-3.991 6.742.022-.17 2.751-9.414 2.751-9.414s4.746 2.672 4.859 2.728c.045-.079 3.855-5.355 3.991-5.502-.023.169-2.729 8.174-2.729 8.174l-4.881-2.728Z" fill="#FFD683"/><path d="m657.999 360.527 3.991-6.754-.011 1.872-3.98 4.882ZM666.861 356.513l-.011 1.871 2.751-10.033-2.74 8.162Z" fill="#FFA256"/><path d="m666.85 358.384-4.87-2.739.011-1.872 4.87 2.74-.011 1.871Z" fill="#FEDA93"/><path d="M694.753 372.691c-.124.226-3.867 6.595-3.991 6.742.023-.169 2.751-9.414 2.751-9.414s4.747 2.672 4.859 2.729c.045-.079 3.856-5.356 3.991-5.502-.022.169-2.728 8.173-2.728 8.173l-4.882-2.728Z" fill="#FFD683"/><path d="m690.762 379.444 3.991-6.753-.011 1.872-3.98 4.881ZM699.624 375.431l-.012 1.871 2.751-10.033-2.739 8.162Z" fill="#FFA256"/><path d="m699.613 377.302-4.871-2.739.012-1.872 4.87 2.74-.011 1.871Z" fill="#FEDA93"/><path d="M22.606 238.269c-2.43-.513-6.141 1.029-7.693 1.865-7.692 1.864-7.606-6.051-3.638-8.808 3.174-2.206 2.4-3.018 1.617-3.149-2.678-1.342-7.229-5.632-4.008-12.059 3.22-6.428 9.19-5.109 11.771-3.647 2.062.753 5.59 8.586 8.248 3.013 2.66-5.573 7.248-5.766 9.496-3.387 1.797 1.903-.083 5.059-1.247 6.4-.54 1.049-9.673 4.725-3.495 4.021 6.178-.704 7.553-.202 10.459 5.067 2.905 5.268-5.252 8.832-9.368 10.289-4.116 1.457-9.105 1.038-12.142.395Z" fill="#C1CFEE"/><path d="M33.385 252.198c5.092 7.619 8.699 16.1 12.558 24.358.662 1.421-1.442 2.713-2.104 1.293-3.862-8.286-7.466-16.739-12.558-24.359-.848-1.343 1.231-2.605 2.104-1.292Z" fill="#727E99"/><path d="m32.734 254.902 11.483 22.736c4.363.711 15.154 4.071 23.415 11.825 10.327 9.693 4.688 14.123.819 21.646-4.862 9.452-14.533 11.207-24.724 11.38-10.191.173-21.345-8.108-21.49-20.938-.114-10.263 7.24-17.403 10.933-19.69-3.5-6.628-10.66-20.129-11.298-21.11-.799-1.227-.436-.939 4.367-2.145 3.842-.964 5.93-2.871 6.495-3.704Z" fill="#DCF8C1"/><path d="M18.48 256.777a160.846 160.846 0 0 1 14.1 25.207c.632 1.397-1.276 2.694-2.103 1.293-.279-.495-.588-1.014-.867-1.508-.769-1.381 1.311-2.642 2.104-1.292.279.494.588 1.013.867 1.507-.7.44-1.404.853-2.104 1.293-3.952-8.83-8.632-17.216-14.128-25.205-.872-1.313 1.235-2.578 2.131-1.295Z" fill="#727E99"/><path d="M45.096 275.684c12.94 1.6 26.268 8.558 28.765 22.429 2.528 14.143-9.535 23.163-21.954 26.378-12.093 3.151-25.041-.471-30.955-12.124-5.843-11.523-.795-25.034 10.074-31.369 1.355-.791 2.647 1.278 1.295 2.096-10.345 6.054-14.735 18.992-8.385 29.598 6.178 10.321 18.189 12.304 28.955 8.972 11.653-3.598 21.984-12.448 17.924-25.642-3.534-11.508-15.201-16.578-26.28-17.948-1.578-.18-1.016-2.571.56-2.39ZM32.293 251.879c.754 4.18-4.875 5.265-7.844 6.046-2.484.643-8.707 2.128-8.611-2.398.1-3.751 7.456-5.06 10.215-5.485 2.076-.32 9.647-.711 6.95 3.668-.821 1.34-3.007.204-2.187-1.136.258-.417-5.63.115-5.983.183-.865.209-1.755.449-2.584.737-.481.166-2.797.818-2.994 1.283.199.532.423 1.032.622 1.564.69-.051 1.396-.187 2.073-.347.924-.188 1.841-.431 2.73-.671 1.025-.283 5.557-1.243 5.276-2.734-.287-1.546 2.05-2.256 2.337-.71ZM36.52 261.896c-1.384.546-2.764 1.118-4.175 1.667-1.462.582-2.148-1.778-.685-2.36 1.383-.545 2.763-1.118 4.174-1.666 1.462-.582 2.147 1.777.685 2.359ZM39.87 266.889c-1.508.67-2.991 1.31-4.5 1.98-.609.264-1.363-.26-1.538-.822-.218-.695.22-1.243.825-1.534 1.48-.667 2.992-1.31 4.5-1.981.61-.263 1.364.26 1.539.822.221.723-.217 1.271-.826 1.535ZM42.01 273.238l-3.832.768c-.652.13-1.324-.154-1.539-.822-.178-.589.174-1.404.826-1.534l3.831-.769c.653-.13 1.324.154 1.54.822.18.616-.174 1.405-.827 1.535Z" fill="#727E99"/><path d="M32.475 299.088c6.364-4.16 15.212-9.683 23.188-8.957 4.435.381 7.21 3.029 3.249 6.555-2.648 2.379-6.572 3.795-9.777 5.185-4.027 1.733-9.035 4.132-13.483 4.362-4.254.235-6.29-3.245-2.968-6.283 1.157-1.073 2.96.605 1.804 1.679.837 1.982 2.089 2.476 3.73 1.514.591-.179 1.158-.326 1.75-.504a83.041 83.041 0 0 0 5.136-1.749c2.77-1.063 10.809-3.447 11.472-6.653.645-3.12-3.8-1.644-5.94-1.151-1.597.375-3.142.967-4.656 1.583-4.305 1.736-8.331 3.968-12.21 6.515-1.346.873-2.613-1.226-1.295-2.096Z" fill="#727E99"/><path d="M59.863 291.868c9.329 8.937 2.04 21.318-8.742 24.513-9.946 2.961-21.024-4.004-19.33-15 .24-1.551 2.638-.993 2.398.558-1.405 9.135 8.223 14.603 16.25 12.11 8.776-2.745 15.818-12.66 7.767-20.386-1.18-1.084.505-2.883 1.657-1.795ZM49.686 282.557c2.676-.416 5.393.493 7.33 2.378 1.125 1.091-.56 2.889-1.684 1.799-1.532-1.488-3.485-2.041-5.56-1.722-1.559.233-1.613-2.198-.086-2.455ZM29.381 245.813c-.33-1.431-.687-2.858-1.013-4.262-.213-.89.523-1.749 1.463-1.551 4.643.994 10.948-2.466 13.503-6.386 4.28-6.582-2.248-15.339-9.54-10.797-1.35.846-2.617-1.253-1.295-2.096a9.604 9.604 0 0 1 14.75 8.957c-.588 7.767-10.547 14.276-17.98 12.712.496-.527.968-1.024 1.463-1.551.33 1.43.687 2.858 1.014 4.261.345 1.567-2.02 2.28-2.365.713Z" fill="#727E99"/><path d="M33.233 219.861c1.867-.933 4.06-1.93 5.27-3.758 1.306-1.949 1.011-4.298-1.257-5.424-3.798-1.867-8.74.386-8.411 4.974.095 1.568-2.341 1.652-2.464.087-.427-6.433 6.624-9.923 12.016-7.241 2.653 1.332 3.895 3.933 3.108 6.792-.921 3.374-4.107 5.177-7.025 6.645-1.361.737-2.656-1.359-1.237-2.075Z" fill="#727E99"/><path d="M25.97 215.869c-3.708-6.198-11.405-6.18-17.008-2.661-2.88 1.796-4.867 3.629-4.776 7.109.076 2.623.835 3.672 2.592 5.439 1.572 1.594 3.07 3.03 5.56 2.94 1.58-.042 1.662 2.387.086 2.455-4.236.15-8.307-3.624-10.242-7.198-2.04-3.757-.735-7.423 2.189-10.305 6.623-6.516 18.473-7.894 23.727.898.772 1.408-1.335 2.673-2.128 1.323Z" fill="#727E99"/><path d="M13.035 231.415c-3.025.039-6.5 3.926-5.588 7.063 1.129 3.804 7.78 2.908 10.394 1.696 1.426-.661 2.718 1.408 1.295 2.097-4.118 1.909-12.36 2.516-14.026-3.084-1.362-4.637 3.236-10.147 7.87-10.204 1.553-.038 1.638 2.417.055 2.432Z" fill="#727E99"/><path d="m20.174 241.377 2.31 5.637c.582 1.457-1.758 2.139-2.369.685l-2.31-5.637c-.582-1.457 1.786-2.142 2.369-.685ZM36.747 227.052c1.472.719 2.485 2.293 2.37 3.968-.108 1.73-1.285 3.11-2.885 3.708-1.493.558-2.178-1.802-.685-2.359 1.52-.561 1.412-2.488.059-3.137-1.441-.695-.272-2.878 1.141-2.18Z" fill="#727E99"/></svg>