<svg width="395" height="366" fill="none" xmlns="http://www.w3.org/2000/svg"><path opacity=".75" d="M205.511 90.544c2.319.325 5.019 1.446 4.189 1.87-.779.634.51 2.099 1.448 3.649.937 1.55-1.081.93-.724 2.398.358 1.47 1.142 2.39.414 3.234-.728.844.005 1.555.311 2.814.358 1.469-1.711.638-2.133 2.741-.324.968.409 1.679 1.42 2.767.835 1.13.738 2.265-.9 2.441-1.637.176-3.371 1.487-6.015 2.131-2.643.643-21.177 4.263-25.833 5.841-4.657 1.577-12.833 5.567-14.846 6.501-2.138 1.187-23.87 13.143-36.892 22.535-13.023 9.392-32.695 27.515-40.248 37.132-7.554 9.617-23.681 33.101-29.486 46.071-5.754 13.181-11.113 23.375-12.336 35.231-1.171 12.065-1.385 31.899.675 38.066 0 0-1.489-.749-3.749-6.2-2.26-5.452-7.304-23.117-8.322-34.205-.99-10.206 1.38-33.455 10.195-50.936 8.813-17.481 16.9-34.118 30.43-49.858 13.532-15.739 21.188-24.937 38.509-37.375 17.27-12.648 19.988-13.754 21.194-14.937 1.206-1.182 1.86-1.563 3.27-1.906 1.409-.344 2.035-1.607 3.167-2.327 1.183-.51 15.04-8.772 30.749-13.26 15.884-4.532 29.715-5.23 35.513-4.418Z" fill="#CFF5D0"/><path opacity=".75" d="M313.524 151.615s-10.605 17.028-17.482 25.591c-6.7 8.521-28.072 38.838-56.473 53.305-28.402 14.468-51.378 23.614-90.411 30.444-39.034 6.83-59.239-.256-67.45-7.149-8.21-6.893-19.076-24.698-21.977-33.55 0 0 3.4 23.178 4.908 30.146 1.56 7.178 6.916 27.657 24.659 36.898 17.566 9.285 46.541 8.681 69.986 4.532 23.445-4.149 59.366-15.333 76.516-26.174 17.149-10.841 43.769-31.099 50.048-37.516 6.228-6.628 8.736-10.128 7.906-9.703-.83.424-6.052 6.584-7.257 7.767-1.206 1.182-9.572 8.997-12.688 11.533-2.639 2.198-5.959 3.895-6.613 4.276 1.006-.467 7.114-5.287 9.275-7.146 2.11-2.07 5.073-5.236 5.676-5.827.603-.591.575-1.473 1.405-1.898.83-.424 1.182-.51 1.609-1.058.376-.758 2.212-1.649 2.94-2.493.728-.844.927-1.56 1.178-2.065.25-.506 1.029-1.14 1.229-1.855.375-.758.5-1.011 1.33-1.435.882-.215 1.837-.892 2.036-1.607.2-.715.803-1.306 1.155-1.392.353-.086 1.762-.429 2.138-1.187.25-.506 7.303-9.112 9.46-12.526 2.332-3.457 3.584-5.984 3.959-6.743.376-.758.348-1.64.7-1.726.478-.338.728-.844.677-1.054-.102-.419.098-1.135.575-1.473.478-.339 1.053-1.812 1.924-5.136 1.048-3.367 1.298-3.872 1.325-11.436.077-7.353-.44-19.452-2.263-22.343Zm-23.601 42.639c-.552.801-1.154 1.393-1.706 2.194-4.016 4.978-14.157 17.003-22.301 23.429-10.657 8.372-26.369 19.752-31.475 22.551-5.106 2.798-5.811 2.97-6.971 2.807-1.159-.162-.705.172-3.121.982s-4.754 2.712-5.76 3.179c-1.006.468-11.349 4.762-23.004 8.265-11.831 3.545-30.819 6.832-30.819 6.832s30.063-6.871 42.947-12.228c13.06-5.4 17.689-7.86 19.827-9.047 2.137-1.187 17.461-8.027 31.508-20.113 12.841-10.904 22.918-19.357 28.993-26.615 1.279-1.645 2.007-2.489 1.882-2.236Z" fill="#CFF5D0"/><path opacity=".75" d="M357.286 134.299c-1.624-3.605-3.582-9.352-7.098-13.831-3.517-4.479-15.518-14.673-23.037-17.956-7.519-3.282-24.087-7.698-37.297-9.818-13.335-1.868-21.169-1.073-25.427-.926-4.258.147-9.448.299-12.068.27-2.57.18-17.379 2.227-22.643 2.841-5.088.572-13.4 1.705-17.578 2.944-4.003 1.196-19.262 4.464-21.78 4.854-2.519.391-9.142 1.558-12.616 2.625-3.473 1.068-9.739 3.704-13.162 4.981-3.423 1.277-21.645 7.711-26.296 10.844-4.476 3.089-6.716 3.856-9.484 4.752-2.593.853-4.777 3.385-5.482 3.557-.705.171-12.828 7.122-16.399 9.324-3.571 2.203-15.053 12.554-21.582 19.477-6.58 6.713-12.804 14.895-16.388 20.879-3.584 5.985-6.343 9.99-8.424 21.387-1.955 11.145-1.401 18.79-.064 27.355 1.337 8.566 2.35 18.099 4.592 25.778 2.241 7.678 4.905 13.254 5.967 14.551 0 0-5.109-37.876 13.601-65.322 18.534-27.404 56.029-50.53 107.853-68.473 51.823-17.944 111.179-12.604 124.979-7.293 0 0 .955-.677-3.484-2.042-4.615-1.322-10.413-2.134-10.413-2.134s3.928-.734 13.386 2.078c9.458 2.811 15.516 6.226 20.136 9.103 4.393 2.71 9.723 6.97 12.79 12.669 3.015 5.49 6.394 14.004 8.027 20.719 1.634 6.715 1.649 11.379 1.923 10.201.273-1.178 1.648-12.404.96-22.905-.865-10.459-1.868-16.883-3.492-20.489Zm-70.659-34.152c-6.48-1.313-11.215-.827-13.256-.775-2.041.052-3.024-.153-5.014.108-1.99.262.148-.925-2.069-.83-2.217.095-5.036.781-8.487 1.176-3.451.395-6.628-.387-10.682.599-3.877.943-11.335.98-16.145 1.928-4.81.948-9.795 1.938-13.724 2.672-3.928.734-7.129.623-10.83 1.524-3.524.857-8.385 1.595-5.013.108 1.66-.848 8.306-2.688 11.655-3.502 3.172-.772 10.551-1.901 13.246-2.334 2.694-.434 35.286-4.585 40.629-4.107 5.344.478 23.539 1.608 31.128 2.873 7.412 1.309 12.862 3.761 12.862 3.761s-17.82-1.888-24.3-3.201Z" fill="#CFF5D0"/><path opacity=".75" d="M356.245 132.33c-.659-1.173-4.258 23.93-7.383 31.803-3.124 7.873-18.398 30.26-27.39 39.338s-38.25 31.533-40.94 33.521c-2.513 1.946-4.605 1.788-6.34 3.099-1.734 1.311-.13-1.302-2.393.138-2.263 1.439-19.868 11.946-23.49 13.939-3.622 1.992-17.029 9.033-22.061 11.369-5.032 2.336-42.78 17.521-57.357 21.29-14.753 3.812-40.967 8.857-51.143 9.999-10.176 1.142-23.933 1.378-34.188 1.428-10.255.05-19.717-4.316-25.622-7.102-5.854-2.577-9.598-7.222-12.938-11.744-3.113-4.355-10.411-17.471-12.403-25.655 0 0-1.612 7.949.871 20.459 2.484 12.51 8.903 34.286 18.5 41.509 9.598 7.222 28.848 14.985 52.804 12.935 23.779-2.007 49.715-7.428 53.945-8.458 4.23-1.029 17.22-4.412 19.864-5.055 2.644-.643 4.355-1.282 6.419-2.006 2.064-.725 1.581-1.941.524-1.684-1.058.258-.654.382-2.189.977-1.535.596-2.138 1.187-3.122.982-.983-.205-1.512-.076-2.518.391-1.006.467-1.586.386-2.996.729-1.41.343-1.058.257-2.593.853s-2.37-.535-2.37-.535 1.132-.72 2.542-1.063c1.409-.343 8.459-2.058 9.818-2.611 1.183-.51 2.945-.939 4.23-1.029 1.285-.091 2.644-.643 3.701-.901 1.057-.257.524-1.683 1.581-1.94 1.058-.258.631.291 2.041-.052 1.41-.343 3.019-1.402 4.253-1.702 1.234-.3 2.485-2.827 4.248-3.256 1.762-.429 2.667-1.316 3.274-.352.608.963 1.086.625.933-.005-.154-.63-.511-2.098.672-2.608 1.182-.51 2.592-.854 4.076-1.659 1.484-.806 4.981-2.546 6.215-2.846 1.234-.3 2.444.072 2.444.072s-4.127 1.449-5.788 2.298c-1.66.848-4.099 2.331-2.69 1.988l4.23-1.03c1.058-.257 1.512.077 2.82-.686 1.308-.762 1.684-1.521 3.395-2.159 1.711-.639 1.911-1.354 3.673-1.783l3.172-.772c.705-.171 2.593-.853 3.776-1.363 1.182-.51 1.103-1.602 2.286-2.112 1.182-.51 4.781-1.83 5.964-2.34 1.183-.51 2.968-1.612 4.1-2.332 1.131-.719 3.093-1.863 4.452-2.416 1.359-.553.983.205 2.922-.267s2.672.239 5.31-1.959c2.639-2.198 2.059-2.279 3.441-3.504 1.382-1.225 4.35-2.837 6.363-3.771 2.013-.934 2.741-1.778 3.798-2.036 1.058-.257 1.763-.428 1.382-1.225-.38-.796.473-1.893 1.206-1.182.733.71 1.916.2 1.916.2 1.734-1.311 3.543-3.084 4.6-3.342 1.058-.257 1.66-.848 3.571-2.202 1.911-1.354 1.911-1.354 3.093-1.864 1.183-.51.445-2.776 1.929-3.581 1.484-.806 4.327-2.164 5.885-3.432 1.559-1.269 2.843-1.359 4.402-2.627 1.558-1.268 1.637-.176-2.588 2.408-4.225 2.583-4.197 3.466-2.662 2.87 1.535-.596 3.293-2.579 5.607-3.809s2.917-1.821 3.469-2.622c.552-.802-.358-1.469 1.075-2.485 1.433-1.015 3.896-3.17 5.329-4.186 1.433-1.015 4.151-2.121 5.356-3.304 1.206-1.182 3.043-2.073 4.072-3.213 1.03-1.14 2.537-2.618 1.832-2.446-.705.171-2.69 1.988-4.424 3.299-1.735 1.311-3.196 1.444-3.196 1.444s1.809-1.773 3.594-2.875c1.786-1.101 2.11-2.069 3.543-3.084 1.433-1.016 2.235-2.322 1.707-2.194-.529.129-3.071 1.192-1.865.01 1.206-1.183 2.815-2.241 4.675-3.805 1.859-1.564 3.663-4.892 3.663-4.892s.608.963-.32 2.522c-.927 1.56-1.604 2.613.005 1.555 1.61-1.058.882-.214 2.514-1.945 1.632-1.731 4.22-4.139 6.455-6.461 2.235-2.322 2.764-2.45 3.566-3.757.802-1.306 1.257-.972.802-1.306-.454-.334-1.261-.582-1.261-.582 1.683-1.521 1.905-2.909 3.162-3.882 1.257-.972 2.555-4.844 3.709-6.237 1.155-1.392 3.265-3.461 3.891-4.725.626-1.263 1.303-2.317 2.355-4.129 1.053-1.812 2.55-6.4 3.125-7.873.575-1.474 1.173-3.62 1.344-5.217.172-1.598 1.493-6.142 1.774-12.657 1.993-7.153 1.345-29-3.035-35.491Zm-42.882 88.45c-6.734 6.084-16.157 14.156-18.369 15.805-2.036 1.607-10.815 6.188-14.534 9.316-3.771 2.918-15.04 8.771-18.913 11.269-3.872 2.499-27.668 15.179-35.52 18.201-7.852 3.021-29.998 11.744-34.404 12.816-4.23 1.029-7.453 1.591-8.988 2.187-1.535.596-3.849 1.825-6.141 2.383-2.291.557-3.019 1.401-4.781 1.83l-5.287 1.287c-1.939.471-54.515 11.485-64.172 9.39-1.564-.287 31.784-4.4 34.479-4.833 2.695-.433 24.326-4.363 30.893-7.295 6.618-2.721 26.232-7.271 30.662-9.016 4.605-1.787 34.95-15.172 38.248-16.196 3.297-1.025 17.303-10.212 22.056-12.924 4.578-2.67 23.319-12.342 29.079-15.521 5.76-3.18 13.421-10.823 18.624-14.756 5.027-3.891 22.032-20.698 25.246-24.369.352-.086-11.319 14.09-18.178 20.426Z" fill="#CFF5D0"/><g clip-path="url(#a)"><path d="M284.938 289.309h99.941s-40.692 100.59-157.323 70.466c-116.632-30.124-172.012 26.749-199.665-12.414-27.653-39.163 27.727-59.17 27.727-59.17l229.32 1.118Z" fill="#F2F2F2"/><path d="M332.545 289.309h-103.6v-91.298h97.993c10.201 0 18.47 8.95 18.47 19.991l-12.861 71.309-.002-.002Z" fill="#BF9A76"/><path d="M248.527 159.028c-3.742 9.947-11.713 28.708-14.16 30.285-3.021 1.948-31.732 0-31.732 0 .08-2.567 2.774-9.207 3.517-12.849l1.089-1.427s-.044-2.29-.458-5.282a43.415 43.415 0 0 0-.754-4.084c-.625-2.627-1.46-5.337-2.541-7.41 1.459 0 2.867-.109 4.192-.29 4.137-.569 7.468-1.858 9.038-2.826 2.978-1.838 10.292-7.734 15.649-15.861 3.369 3.587 6.568 5.649 9.546 6.618 1.069 3.858 3.188 9.898 6.614 13.126Z" fill="#FDA67D"/><path d="M248.527 159.028c-3.742 9.947-11.713 28.708-14.16 30.285-3.021 1.948-31.732 0-31.732 0 .08-2.567 2.774-9.207 3.517-12.849l1.089-1.427s32.305.49 40.064-16.776l.162-.366c.339.407.691.786 1.06 1.133Z" fill="#FDA67D"/><path d="M238.457 111.835c-.513-2.321-1.475-4.499-2.56-6.41-1.69-2.975-3.685-5.293-4.771-6.456h.016c.237.01.352-.278.184-.445-.924-.915-.284-1.716-.284-1.716a29.47 29.47 0 0 0 3.648-.24c.664 1.482 2.956 7.058 3.767 15.267Z" fill="#333E5B"/><path d="M230.152 136.731a44.834 44.834 0 0 0 2.215 2.553c-5.357 8.127-12.671 14.023-15.649 15.861-1.57.968-4.901 2.257-9.038 2.826a31.04 31.04 0 0 1-4.192.29h-.002c-1.195 0-2.424-.073-3.671-.237-5.555-.731-11.446-3.279-16.136-9.311a31.317 31.317 0 0 1-2.899-4.488 41.538 41.538 0 0 1-.967-1.922c-1.511-3.185-2.728-6.683-3.703-10.312a87.231 87.231 0 0 1-1.116-4.665c-1.802-8.518-2.47-17.321-2.673-24.201-.223-7.546.11-12.776.11-12.776l.131-4.45.718-2.734.055-1.09c6.475 6.898 24.961 10.925 31.458 12.158.348.066.521-.398.222-.586-3.501-2.181-3.974-5.497-3.974-5.497 17.408 9.638 27.351 10.72 30.086 10.819 1.086 1.163 3.08 3.481 4.771 6.456 1.62 13.286-1.307 22.547-3.547 27.388-1.196 2.592-2.197 3.918-2.197 3.918h-.002Z" fill="#FDA67D"/><path d="M231.5 136.5c.746.925.137 2.006.868 2.784-5.357 8.127-12.671 14.023-15.65 15.861-1.569.968-4.9 2.257-9.037 2.826a31.04 31.04 0 0 1-4.192.29h-.002a27.99 27.99 0 0 1-3.671-.237c-5.556-.73-11.446-3.278-16.136-9.31a31.52 31.52 0 0 1-2.9-4.488 42.073 42.073 0 0 1-.966-1.923c-1.512-3.184-2.728-6.683-3.703-10.312a87.231 87.231 0 0 1-1.116-4.665c-1.033-4.881-1.692-9.854-2.106-14.506 9.505.541 49.042 2.148 62.92-7.548l.088.154c1.62 13.285-1.306 22.546-3.547 27.387-1.196 2.593-.85 3.687-.85 3.687Z" fill="#FDA67D"/><path d="M243.571 94.255a.267.267 0 0 1-.173.232 43.131 43.131 0 0 1-8.711 2.08 29.739 29.739 0 0 1-3.502.24.258.258 0 0 0-.23.138c-.137.267-.327.892.368 1.579.169.167.054.454-.184.445h-.016c-2.707-.096-12.479-1.159-29.565-10.533a.263.263 0 0 0-.38.303c.318 1.086 1.301 3.438 4.092 5.063.253.148.105.54-.184.486-6.086-1.141-24.414-5.045-31.339-11.79a.262.262 0 0 0-.445.174l-.025.493-.847 7.173-.003.023c-.016.265-.328 5.417-.111 12.764l-.077-.034-4.23 3.736a.263.263 0 0 1-.425-.118c-1.004-3.213-7.619-25.765.123-38.93 2.198-3.734 6.003-7.219 10.828-10.071 13.513-7.991 35.025-11.041 51.609-.848 0 0 11.217 7.363 13.263 26.666.343 3.234.427 6.803.161 10.729h.003Z" fill="#551700"/><path d="M243.572 94.255a.27.27 0 0 1-.174.232 43.22 43.22 0 0 1-8.71 2.08 29.702 29.702 0 0 1-3.502.24.258.258 0 0 0-.23.138c-.137.267-.328.892.368 1.579.17.167.054.454-.184.445h-.016c-2.707-.096-12.479-1.159-29.565-10.533a.263.263 0 0 0-.38.305c.318 1.084 1.3 3.436 4.092 5.063.253.146.103.54-.185.484-6.084-1.14-24.411-5.045-31.336-11.79a.257.257 0 0 0-.266-.06l-.15-.362c-5.066 7.704-5.321 24.751-5.321 24.751a.262.262 0 0 1-.425-.118c-1.004-3.213-7.619-25.764.123-38.93 2.198-3.734 6.003-7.219 10.828-10.071 13.513-7.991 35.025-11.041 51.609-.848 0 0 11.217 7.363 13.263 26.666.343 3.234.427 6.803.161 10.729Z" fill="#3F4B69"/><path d="M235.808 105.272c-13.878 9.696-53.415 8.089-62.92 7.548-.309-3.469-.48-6.757-.567-9.695-.223-7.546.11-12.776.11-12.776l.904-8.273c6.475 6.897 24.961 10.924 31.458 12.157.346.066.521-.398.22-.586-3.501-2.18-3.973-5.497-3.973-5.497 17.408 9.638 27.351 10.72 30.085 10.819 1.067 1.143 3.013 3.402 4.683 6.303Z" fill="#FC9F73"/><path d="M263.134 130.635c.751.995.955 2.321.308 3.386-2.712 4.456-10.665 15.422-21.529 11.881-2.978-.969-6.177-3.031-9.546-6.618-.403-.429-.808-.88-1.215-1.353-.599-.695-.62-1.72-.155-2.511.375-.638.846-1.508 1.353-2.605 1.104-2.387 2.374-5.847 3.186-10.332 4.539 3.372 13.145 7.124 22.775-.553 1.437 3.33 3.044 6.348 4.823 8.705Z" fill="#3F4B69"/><path d="M183.679 148.713c-2.984 1.626-6.099 1.484-8.381.984-1.843-.403-2.396-2.624-1.739-4.392.474-1.274.87-2.719 1.199-4.199a7.963 7.963 0 0 0 4.274 1.234c.263 0 .524-.012.781-.037.308.655.631 1.296.966 1.922a31.406 31.406 0 0 0 2.9 4.488Z" fill="#232C42"/><path d="M176.11 131.991c.975 3.629 2.191 7.128 3.703 10.312a7.964 7.964 0 0 1-5.055-1.197c.757-3.408 1.16-7.001 1.352-9.115Z" fill="#3F4B69"/><path d="M176.269 101.997c2.103-2.002 6.908-5.218 11.947.735.351.415-.065 1.019-.597.873a27.234 27.234 0 0 0-10.872-.674c-.541.078-.869-.562-.478-.934ZM199.827 103.23c2.034-2.293 6.773-6.072 12.408-.034.392.42.007 1.098-.555.978-2.256-.482-6.448-1.03-11.292.025-.556.121-.939-.543-.561-.969Z" fill="#D4794E"/><path d="M192.089 111.851s2.692 11.004-.258 20.831c-.411 1.367.767 2.728 2.188 2.776 1.472.049 3.473-.351 5.826-2.002M191.434 144.173s6.627 5.368 16.823-.639" stroke="#D5794E" stroke-width="2" stroke-miterlimit="10" stroke-linecap="round"/><path d="M319.805 222.147s-5.288 1.205-12.46 3.353c-9.521 2.854-22.362 7.373-30.556 12.944a195.718 195.718 0 0 1-1.289-15.627c-.285-6.751-.223-14.044.419-21.565 2.698-31.56 7.581-35.046 7.657-35.098 0 0 28.194 34.047 36.228 55.993h.001Z" fill="#9DE9A0"/><path d="M283.579 166.153c-.076.053-4.959 3.539-7.657 35.099-.642 7.521-.704 14.814-.419 21.565.235 5.648.712 10.919 1.289 15.627 1.057 8.625 2.447 15.366 3.311 19.096.485 2.095.803 3.241.803 3.241l-1.066 1.241-50.893 20.684s-16.345-2.779-18.837-2.501c-2.494.278-13.945 12.841-13.945 12.841l-12.295-66.434h-17.157s-2.266-45.353 2.265-53.987c.491-.934 1.335-1.864 2.45-2.78a38.953 38.953 0 0 1 3.31-2.251l.073-.043.395-.227c.047-.027.071-.039.071-.039 6.788-3.824 17.242-7.182 24.54-9.261 1.247.164 2.477.237 3.671.237h.002c1.081 2.073 1.916 4.783 2.541 7.41.335 1.407.578 2.809.754 4.084.178 1.691.066.935.458 5.282.02.226-1.037 1.17-1.089 1.427-.743 3.642-3.437 10.282-3.517 12.849 0 0 28.711 1.948 31.731 0 2.448-1.577 10.419-20.338 14.161-30.285.143-.38.272-.712.387-1.005a3.246 3.246 0 0 1 4.028-1.898l30.636 10.028h-.001Z" fill="#FFC93C"/><path d="M283.579 166.153c-.076.053-4.959 3.539-7.657 35.099-.642 7.521-.704 14.814-.419 21.565.235 5.648.712 10.919 1.289 15.627 1.057 8.625 2.447 15.366 3.311 19.096.485 2.095.803 3.241.803 3.241l-1.066 1.241-50.893 20.684s-16.345-2.779-18.837-2.501c-2.494.278-13.945 12.841-13.945 12.841l-12.295-66.434h-17.157s-2.266-45.353 2.265-53.987c.491-.934 1.335-1.864 2.45-2.78a39.202 39.202 0 0 1 3.31-2.251l.073-.043.395-.227c.047-.027.071-.039.071-.039 6.788-3.824 17.242-7.182 24.54-9.261a28 28 0 0 0 3.671.237h.002c1.081 2.073 1.916 4.783 2.541 7.41.335 1.407.578 2.809.754 4.084.178 1.691.066.935.458 5.282.02.226-1.037 1.17-1.089 1.427-.477 2.342-1.762 5.922-2.639 8.861v.004c-.488 1.632-.848 3.068-.878 3.984l.313.021-.313 2.225s30.105 4.2 34.537 0c4.433-4.197 15.77-35.434 15.77-35.434l30.636 10.028h-.001Z" fill="#9DE9A0"/><path d="M171.426 169.845c-1.114.916-1.958 1.846-2.449 2.78-4.531 8.634-2.265 53.987-2.265 53.987h1.217l-.578.716h-24.697l.907-6.362s.453-2.953 8.156-24.083c5.318-14.589 14.521-23.14 19.709-27.038Z" fill="#FFC93C"/><path d="M171.426 169.845c-1.115.916-1.959 1.846-2.45 2.78-2.681 5.11-2.983 23.083-2.781 36.903-8.172 2.47-14.94 1.49-19.09.285a817.72 817.72 0 0 1 4.611-12.93c5.318-14.589 14.521-23.14 19.71-27.038Z" fill="#9DE9A0"/><path d="M252.942 156.125s-11.337 31.237-15.77 35.434c-4.432 4.2-34.537 0-34.537 0l.313-2.225c3.122.203 28.583 1.807 31.419-.021 2.447-1.577 10.418-20.338 14.16-30.285.143-.38.272-.712.387-1.005a3.246 3.246 0 0 1 4.028-1.898Z" fill="#6DC270"/><path d="M247.744 308.834v-.295c.014.098.014.197 0 .295Z" stroke="#00F" stroke-width="2.46" stroke-miterlimit="10"/><path d="M273.65 215.886c.183-1.233 2.088-1.071 2.092.175.022 7.731.248 16.73 1.049 22.383 1.64 11.576 6.788 29.13 6.788 29.13l-54.634 15.132s37.102-7.641 40.527-35.878a1202.73 1202.73 0 0 1 4.178-30.942Z" fill="#70BE72"/><path d="m253.744 309.063-50.572 17.783v-3.397l.009.003 44.93-15.948 5.233-1.858c.279-.099.515-.266.564-.5.192-.933.225.712.228 3.361a.586.586 0 0 1-.39.554l-.002.002Z" fill="#CCC"/><path d="M253.982 304.59v.297a.935.935 0 0 1-.639.759l-5.233 1.858-44.93 15.948-.009-.003c-.282-.07-7.401-1.854-7.805-1.854-.257 0-.595-1.615-.812-2.824-.13-.721-.216-1.299-.216-1.299l1.645-13.725h57.034c.561 0 .904.401.965.843Z" fill="#B3B3B3"/><path d="M313.158 275.206c-2.217 7.778-11.081 10.834-18.561 12.779-7.48 1.943-64.269 10.832-64.269 10.832s-7.774 5.395-11.651 3.728c-3.879-1.668-6.374-3.3-13.16 2.68 0 0-4.712 5.164-6.375 4.33-1.66-.833-2.978-16.509-2.978-16.509s11.451-12.563 13.945-12.841c2.492-.278 18.837 2.501 18.837 2.501l50.893-20.684 1.066-1.241s-.318-1.146-.803-3.239c-.864-3.732-2.254-10.473-3.311-19.098 8.194-5.571 21.035-10.089 30.556-12.942 0 0 8.027 41.926 5.812 49.704h-.001Z" fill="#FDA67D"/><path d="M230.328 298.817s-7.774 5.395-11.651 3.728c-3.879-1.668-6.376-3.3-13.161 2.68 0 0-4.713 5.164-6.375 4.33-1.661-.833-2.979-16.509-2.979-16.509s11.451-12.563 13.945-12.841c2.492-.278 18.837 2.501 18.837 2.501l50.893-20.684 1.066-1.24s-.318-1.147-.803-3.24c-.864-3.732-2.254-10.473-3.311-19.098 3.204-2.179 7.121-4.196 11.27-6.017 1.438 8.741 4.027 24.411 5.268 31.42 1.768 9.996-62.999 34.97-62.999 34.97Z" fill="#FDA67D"/><path d="m167.929 226.612-.578.716h-24.697l.907-6.362s.25-1.632 3.545-11.153c4.15 1.205 10.917 2.185 19.089-.285.139 9.528.517 17.084.517 17.084h1.217Z" fill="#9DE9A0"/><path d="m204.992 320.137 19.567-7.488c1.156-.442.839-2.159-.396-2.159h-20.991l1.82 9.647Z" fill="gray"/><path d="M248.526 159.028s-14.733 64.261-21.542 72.331c-6.81 8.07-18.38 7.732-23.119-7.928M166.616 224.504s-3.797-22.529 1.398-41.858" stroke="#6DC270" stroke-width="2" stroke-linecap="round" stroke-linejoin="round"/><path opacity=".21" d="M222.691 130.283c0 4.447-3.595 8.052-8.03 8.052-4.435 0-8.03-3.605-8.03-8.052 0-4.447 3.595-8.051 8.03-8.051 4.435 0 8.03 3.604 8.03 8.051ZM187.062 134.288a8.028 8.028 0 0 1-1.136 4.131 8.027 8.027 0 0 1-6.113 3.884c-1.511-3.185-2.728-6.683-3.703-10.312a87.231 87.231 0 0 1-1.116-4.665 7.98 7.98 0 0 1 4.038-1.091c4.435 0 8.03 3.606 8.03 8.053Z" fill="#D89497"/><path d="M201.388 327.233H63.69a5.36 5.36 0 0 1-5.15-3.891l-17.634-94.111c-.748-3.99 2.303-7.677 6.35-7.677H188.68a5.362 5.362 0 0 1 5.31 4.658l12.709 94.934c.431 3.222-2.069 6.087-5.31 6.087Z" fill="#E6E6E6"/><path d="M210.661 116.392a3.356 3.356 0 0 0-2.767-3.851 3.348 3.348 0 0 0-3.84 2.775 3.356 3.356 0 0 0 2.767 3.851 3.348 3.348 0 0 0 3.84-2.775ZM186.018 115.429a3.354 3.354 0 0 0-2.767-3.851 3.349 3.349 0 0 0-3.84 2.775 3.356 3.356 0 0 0 2.768 3.851 3.347 3.347 0 0 0 3.839-2.775Z" fill="#221F1F"/><path d="M173.484 82.437a.258.258 0 0 0-.179.235l-.025.493-.847 7.173v.022c-.017.266-.328 5.417-.11 12.765l-.077-.034-4.23 3.736s.255-17.047 5.321-24.751l.149.361h-.002Z" fill="#232C42"/><path d="M204.402 189.427c-2.182 12.185-1.902 24.055.97 33.546a1.58 1.58 0 0 1-1.508 2.036 1.574 1.574 0 0 1-1.505-1.12c-2.291-7.572-3.057-16.238-2.28-25.754.682-8.334 2.563-17.067 5.439-25.259a1.576 1.576 0 0 1 1.508-1.054c.189 1.918.214 3.215.214 3.215l-1.089 1.427-1.749 12.963Z" fill="#6DC270"/><path d="M276.309 232.825s19.175-13.83 36.242-15.472M276 237.5s-3.656-20.597-1.707-43.08" stroke="#6DC270" stroke-width="2" stroke-linecap="round" stroke-linejoin="round"/><path d="M247.468 157.895c-.054.121-.107.243-.163.366-7.759 17.266-40.064 16.776-40.064 16.776s-.044-2.29-.458-5.282a43.415 43.415 0 0 0-.754-4.084c-.625-2.627-1.459-5.337-2.541-7.41 1.46 0 2.867-.109 4.192-.29 4.138-.569 7.469-1.858 9.038-2.826 2.979-1.838 10.292-7.734 15.65-15.861 3.368 3.587 6.567 5.649 9.546 6.618.954 3.443 2.744 8.624 5.554 11.993Z" fill="#EA966F"/><path d="M313.158 275.206c-2.217 7.778-11.081 10.834-18.56 12.779-7.481 1.943-64.27 10.832-64.27 10.832s64.767-24.974 62.999-34.97c-1.24-7.009-3.83-22.679-5.267-31.42 6.461-2.833 13.488-5.189 19.286-6.925 0 0 8.027 41.926 5.812 49.704Z" fill="#FDA67D"/><path d="M313.158 275.206c-2.217 7.778-11.081 10.834-18.56 12.779-7.481 1.943-64.27 10.832-64.27 10.832s64.767-24.974 62.999-34.97c-1.24-7.009-3.83-22.679-5.267-31.42 6.461-2.833 13.488-5.189 19.286-6.925 0 0 8.027 41.926 5.812 49.704Z" fill="#F29F78"/></g><path d="M258.311 121.93c-9.63 7.677-18.236 3.925-22.775.553.835-4.616 1.183-10.318.361-17.058 1.085 1.91 2.046 4.089 2.56 6.41-.811-8.209-3.103-13.785-3.768-15.267 1.31-.165 2.56-.397 3.689-.648 3.037-.677 5.122-1.92 5.122-1.92l.172 1.177C244 96.5 244.064 98.073 245 100c.615 1.267.5 2 1 4s1.883 3.265 2.5 4.5c.617 1.235 2.5 3.5 2.5 3.5s3 3 4 5 1.5 3 3.311 4.93Z" fill="#3F4B69"/><path d="M309.5 2c10 0 17.5 7 20 10.5 1.334-1.5 6.4-4.3 16-3.5 12 1 21 14.5 20.5 22.5-.4 6.4-4.5 13.667-6.5 16.5 2 3.833 5.4 13 3 19-3 7.5-10.5 13.5-17 14.5-5.2.8-12.833-1.667-16-3-4.333 1.167-13.4 3.5-15 3.5-2 0-13-5-14.5-4.5-1.19.397-9.366 2.794-13.402 3.972a.53.53 0 0 1-.098.028l.098-.028c.606-.253-1.012-1.531-12.098-4.972-11.6-3.6-10.5-20.833-8.5-29-4.166-4.833-10.7-16.8-3.5-26 7.2-9.2 21-9.833 27-9C292 9 299.5 2 309.5 2Z" fill="#fff"/><mask id="b" fill="#fff"><path d="M284.554 96.867a7.793 7.793 0 0 0 3.618-.858 4.854 4.854 0 0 0 .223-8.538 8.074 8.074 0 0 0-7.637-.2 4.837 4.837 0 0 0-2.676 4.199 4.843 4.843 0 0 0 2.442 4.34 7.86 7.86 0 0 0 4.03 1.057Zm-3.128-5.31a1.498 1.498 0 0 1 .924-1.358 4.452 4.452 0 0 1 2.026-.457 4.453 4.453 0 0 1 2.226.568 1.528 1.528 0 0 1 .839 1.405 1.526 1.526 0 0 1-.917 1.355 4.75 4.75 0 0 1-4.297-.11 1.496 1.496 0 0 1-.846-1.403h.045Zm-3.607 5.332a6.18 6.18 0 0 0-5.845-.156 3.894 3.894 0 0 0-2.126 3.34 3.895 3.895 0 0 0 1.926 3.507 6.04 6.04 0 0 0 3.083.812 5.747 5.747 0 0 0 2.761-.668 3.902 3.902 0 0 0 1.632-5.363 3.892 3.892 0 0 0-1.443-1.472h.012Zm-1.782 3.908a2.882 2.882 0 0 1-2.504-.067c-.357-.223-.357-.423-.346-.535 0-.111 0-.311.379-.512.362-.18.764-.268 1.169-.256.466-.015.928.097 1.336.323.356.223.356.412.345.534-.011.123 0 .312-.379.513Zm-12.546-49.295a22.123 22.123 0 0 0 1.603 17.79 25.359 25.359 0 0 0 14.339 11.911 25.26 25.26 0 0 0 21.497-2.338 28.354 28.354 0 0 0 15.374 4.832 24.75 24.75 0 0 0 12.903-3.685 25.404 25.404 0 0 0 4.341 1.937c12.814 4.375 26.596-1.892 30.626-13.927a22.457 22.457 0 0 0-3.34-20.595c.349-.312.683-.635 1.002-.969.29-.3.557-.59.824-.901a21.676 21.676 0 0 0 4.186-7.259 22.14 22.14 0 0 0-1.637-17.812 25.762 25.762 0 0 0-35.546-9.763 25.608 25.608 0 0 0-12.68-9.351c-11.066-3.752-23.156.423-28.733 9.718-12.346-3.362-25.227 2.873-29.123 14.384a22.653 22.653 0 0 0 5.566 23.133 24.02 24.02 0 0 0-1.202 2.895Zm-1.191-24.96c3.44-10.186 15.229-15.519 26.284-11.878a1.668 1.668 0 0 0 2.004-.824c4.453-8.683 15.374-12.691 25.371-9.307 4.928 1.663 9.119 5 11.845 9.43a1.667 1.667 0 0 0 1.113.757 1.65 1.65 0 0 0 1.303-.279 21.795 21.795 0 0 1 19.56-2.705 22.068 22.068 0 0 1 12.435 10.353 18.81 18.81 0 0 1 1.413 15.13 18.313 18.313 0 0 1-5.143 7.792c-.334.312-.69.601-1.046.89a1.65 1.65 0 0 0-.635 1.114 1.64 1.64 0 0 0 .39 1.247 19.356 19.356 0 0 1 3.863 18.692c-3.485 10.286-15.352 15.585-26.473 11.833a23.25 23.25 0 0 1-4.598-2.226 1.672 1.672 0 0 0-1.826 0c-3.618 2.65-13.437 7.615-26.328-1.08a1.584 1.584 0 0 0-.936-.29 1.68 1.68 0 0 0-.957.301 21.798 21.798 0 0 1-19.449 2.55 22.024 22.024 0 0 1-12.424-10.343 18.923 18.923 0 0 1-1.413-15.13 18.144 18.144 0 0 1 1.58-3.416 1.665 1.665 0 0 0-.3-2.06c-5.9-5.522-8.06-13.393-5.633-20.55Z"/></mask><path d="M284.554 96.867a7.793 7.793 0 0 0 3.618-.858 4.854 4.854 0 0 0 .223-8.538 8.074 8.074 0 0 0-7.637-.2 4.837 4.837 0 0 0-2.676 4.199 4.843 4.843 0 0 0 2.442 4.34 7.86 7.86 0 0 0 4.03 1.057Zm-3.128-5.31a1.498 1.498 0 0 1 .924-1.358 4.452 4.452 0 0 1 2.026-.457 4.453 4.453 0 0 1 2.226.568 1.528 1.528 0 0 1 .839 1.405 1.526 1.526 0 0 1-.917 1.355 4.75 4.75 0 0 1-4.297-.11 1.496 1.496 0 0 1-.846-1.403h.045Zm-3.607 5.332a6.18 6.18 0 0 0-5.845-.156 3.894 3.894 0 0 0-2.126 3.34 3.895 3.895 0 0 0 1.926 3.507 6.04 6.04 0 0 0 3.083.812 5.747 5.747 0 0 0 2.761-.668 3.902 3.902 0 0 0 1.632-5.363 3.892 3.892 0 0 0-1.443-1.472h.012Zm-1.782 3.908a2.882 2.882 0 0 1-2.504-.067c-.357-.223-.357-.423-.346-.535 0-.111 0-.311.379-.512.362-.18.764-.268 1.169-.256.466-.015.928.097 1.336.323.356.223.356.412.345.534-.011.123 0 .312-.379.513Zm-12.546-49.295a22.123 22.123 0 0 0 1.603 17.79 25.359 25.359 0 0 0 14.339 11.911 25.26 25.26 0 0 0 21.497-2.338 28.354 28.354 0 0 0 15.374 4.832 24.75 24.75 0 0 0 12.903-3.685 25.404 25.404 0 0 0 4.341 1.937c12.814 4.375 26.596-1.892 30.626-13.927a22.457 22.457 0 0 0-3.34-20.595c.349-.312.683-.635 1.002-.969.29-.3.557-.59.824-.901a21.676 21.676 0 0 0 4.186-7.259 22.14 22.14 0 0 0-1.637-17.812 25.762 25.762 0 0 0-35.546-9.763 25.608 25.608 0 0 0-12.68-9.351c-11.066-3.752-23.156.423-28.733 9.718-12.346-3.362-25.227 2.873-29.123 14.384a22.653 22.653 0 0 0 5.566 23.133 24.02 24.02 0 0 0-1.202 2.895Zm-1.191-24.96c3.44-10.186 15.229-15.519 26.284-11.878a1.668 1.668 0 0 0 2.004-.824c4.453-8.683 15.374-12.691 25.371-9.307 4.928 1.663 9.119 5 11.845 9.43a1.667 1.667 0 0 0 1.113.757 1.65 1.65 0 0 0 1.303-.279 21.795 21.795 0 0 1 19.56-2.705 22.068 22.068 0 0 1 12.435 10.353 18.81 18.81 0 0 1 1.413 15.13 18.313 18.313 0 0 1-5.143 7.792c-.334.312-.69.601-1.046.89a1.65 1.65 0 0 0-.635 1.114 1.64 1.64 0 0 0 .39 1.247 19.356 19.356 0 0 1 3.863 18.692c-3.485 10.286-15.352 15.585-26.473 11.833a23.25 23.25 0 0 1-4.598-2.226 1.672 1.672 0 0 0-1.826 0c-3.618 2.65-13.437 7.615-26.328-1.08a1.584 1.584 0 0 0-.936-.29 1.68 1.68 0 0 0-.957.301 21.798 21.798 0 0 1-19.449 2.55 22.024 22.024 0 0 1-12.424-10.343 18.923 18.923 0 0 1-1.413-15.13 18.144 18.144 0 0 1 1.58-3.416 1.665 1.665 0 0 0-.3-2.06c-5.9-5.522-8.06-13.393-5.633-20.55Z" fill="#3F4B69" fill-opacity=".38" stroke="#fff" stroke-width="2" mask="url(#b)"/><path d="M318.322 53.976h-11.478c-.866 0-1.571.705-1.571 1.571s.705 1.57 1.571 1.57h11.473c.866 0 1.571-.704 1.571-1.57 0-.866-.7-1.57-1.566-1.57Z" fill="#3F4B69" fill-opacity=".6"/><path d="M326.166 34.583c0-7.499-6.079-13.583-13.583-13.583C305.08 21 299 27.084 299 34.583c0 3.639 1.774 6.657 3.761 9.382 2.148 2.948 1.907 5.398 1.907 5.398a2.346 2.346 0 0 0 2.347 2.347h11.142a2.346 2.346 0 0 0 2.346-2.347s-.236-2.45 1.907-5.398c1.982-2.725 3.756-5.744 3.756-9.382Z" fill="#FFCA42"/><path d="M318.238 59.38H306.93c-.7 0-1.216.676-1.012 1.348.738 2.455 3.444 4.272 6.666 4.272 3.222 0 5.928-1.817 6.666-4.272.204-.667-.312-1.349-1.012-1.349Z" fill="#3F4B69" fill-opacity=".6"/><path d="m330 27 11-6M278 24.417l16.39 4.46M326.32 50.641l14.68 5.36M331.001 38.454 342 38M282.001 40l11.488-1.926M283 55l12.822-7.153" stroke="#FFCA42" stroke-linecap="round"/><defs><clipPath id="a"><path fill="#fff" transform="translate(20.156 42.932)" d="M0 0h374.59v322.473H0z"/></clipPath></defs></svg>