<svg width="59" height="198" fill="none" xmlns="http://www.w3.org/2000/svg"><path opacity=".75" d="M16.177 20.491c-2.368-1.114-2.91-1.12-5.498-1.913-2.482-.682-4.088-2.11-4.719-3.527-.631-1.416-.396-2.82.162-4.113.559-1.292 1.103-1.502 1.98-2.357.878-.855 2.095-2.788 2.861-3.428.658-.64 1.326-2.04 2.314-3.002.987-.961 2.414-2.459 3.705-1.792s1.72.997 1.92 2.3c.307 1.303.938 2.719 1.904 3.381.966.663 3.312 3.51 4.172 3.954.86.444 3.221 2.1 4.075 3.085.853.986 2.468 1.765 3.43 2.753.961.987 5.136 4.724 6.096 5.82.96 1.095 3.417 3.726 4.165 4.494.638.875 3.314 3.292 3.738 3.948.425.655 2.026 2.409 2.666 3.175.533.657 1.923 1.975 2.773 3.285.849 1.311 3.305 3.942 3.726 4.922.42.98 1.809 2.407 1.909 3.058.1.65.625 1.85.83 2.718.097.868-.576 2.7-1.032 4.427-.457 1.835-1.79 4.308-2.131 5.603-.45 1.294-1.438 2.256-2.3 1.92-.861-.337-1.383-1.86-1.7-2.514-.316-.654-2.432-4.472-2.853-5.344-.422-.872-5.208-7.54-7.023-9.513-1.815-1.974-3.216-2.533-2.99-3.288.117-.649-.312-.98-1.065-1.314-.862-.336-1.395-.993-2.035-1.76-.64-.657-5.025-4.939-6.098-5.71-1.074-.665-3.644-2.864-4.716-3.744-1.071-.88-1.295-.342-1.823-1.324-.529-.982-1.938-.892-2.468-1.765-.75-.551-2.683-1.876-3.975-2.435Z" fill="#CBF3CC"/><path opacity=".75" d="M46.446 98.97c.546-.319 1.213-1.61 1.669-3.336.441-.644.883-1.288 1.105-1.718.662-.966 1.907-5.065 2.137-6.037.226-.755.232-1.188-.09-1.409-.205-.869-.519-1.74-.828-2.935-.41-1.846-2.54-4.473-4.779-7.21-2.237-2.845-16.456-16.893-18.49-18.76-2.032-1.868-4.056-4.494-2.76-4.26 1.406.234 7.875 2.377 11.325 3.613 1.185.45 7.123 1.826 8.42 2.06 1.295.342 7.249.528 8.552.22 1.304-.307 1.744-.843 2.3-1.919.555-1.076 1.115-2.476 1.451-3.338.336-.862 1.567-3.878 1.907-5.065.34-1.078-.941-2.503-1.48-2.727 0 0-2.059.082-3.683.06-1.516-.02-6.6-.411-7.575-.424-.974-.013-3.898-.05-5.298-.61-1.4-.56-7.44-2.48-9.161-3.37-1.83-.89-8.402-3.467-10.014-4.463-1.72-.997-9.148-4.343-10.548-4.903-1.4-.56-2.057-.027-3.149.609-.983.636-1.548 2.47-2.432 3.758-.883 1.288-2.548 4.407-3.32 5.48 0 0-.883 1.288-.688 2.915.195 1.627.198 1.41 1.13 4.671.932 3.261 2.986 3.505 4.364 5.797 1.378 2.292 6.411 6.582 8.445 8.45 2.033 1.867 13.482 12.414 15.508 14.823.533.656 1.494 1.752 2.668 3.067-1.402-.452-2.697-.793-3.56-1.021-2.807-.687-6.69-1.93-8.528-2.17-1.947-.134-4.553.374-5.217 1.448-.665 1.182-1.892 3.874-3.104 5.482-1.212 1.609-2.66 4.622-2.678 6.03-.019 1.407 1.395.993 2.586 1.008 1.19.016 3.456.695 5.073 1.258 1.619.455 4.648.71 6.478 1.493 1.833.674 8.097 1.947 8.744 2.172.647.225 8.966 1.742 10.912 1.984.431.114.866.011 1.192-.093.32.438.87-.205 1.416-.63Z" fill="#CBF3CC"/><path opacity=".75" d="M15.826 80.265c-.67 1.616-3.531 5.044-4.316 7.091-.677 2.049-2.876 4.619.321 8.56 3.197 3.94 10.285 8.473 14.23 13.182 3.838 4.707 8.418 10.506 11.405 14.011 0 0-4.643-1.036-8.106-1.298-3.462-.262-6.737 1.753-8.178 4.333-1.442 2.581-2.888 5.486-3.569 7.859-.68 2.266.358 5.745 1.737 7.929 1.38 2.075 4.379 4.714 5.44 6.352 1.17 1.64 8.872 8.888 8.207 10.071-.665 1.182-3.96 4.605-5.177 6.646-1.218 2.042-3.989 6.879-3.583 8.942.406 2.063 2.213 4.686 3.386 6.109 1.172 1.423 3.641 3.08 4.821 3.962 1.178.99 1.825 1.215 4.056 4.493 2.232 3.278 1.804 2.839 3.404 4.701 1.6 1.862 1.603 1.646 1.824 1.324.113-.324.22-.322.439-.428.218-.105.434-.102.54.116.213.219.534.548.745.984.21.436.633 1.308.637.983.004-.325-.103-.434.115-.54.218-.105.435-.102.539.224.104.326.315.762.642.55.328-.213.767-.64.767-.64s.215.111.11-.215c-.211-.328-.53-.765-.528-.982.003-.216.544-.209.651-.1.107.11.64.767.85 1.311.317.546.427.439.638.875.21.436.641.658.538.224-.102-.435-.419-1.089-.63-1.525-.212-.328-.423-.763-.53-.873-.105-.218-.212-.328-.102-.435.11-.107.652-.208.652-.208s.324.113.538.332c.213.22.21.436.316.654.214.219.433.006.544-.209.11-.107.336-.862.23-.972-.106-.218-.53-.982-.526-1.198.003-.217-5.07-9.813-5.92-11.124-.741-1.201-3.714-5.788-4.135-6.66-.422-.872-.841-1.961-.297-2.17.544-.209 4.067-4.603 4.955-6.216.78-1.614 3.546-6.127 3.895-7.963.242-1.946.394-5.301-1.205-7.272-1.598-1.97-11.734-13.582-11.734-13.582s8.327.867 9.193.878c.867.012 1.52-.196 2.288-1.053.77-.856 5.318-9.135 5.656-10.105.338-.971.819-4.646.504-5.408-.315-.763-3.363-7.842-5.385-10.576-2.021-2.734-7.032-8.756-7.991-9.959-.958-1.313-5.313-7.759-6.161-9.178-.74-1.418-10.71-9.129-11.876-11.094-1.273-1.965-2.235-2.953-2.999-2.53-.655.425-1.864 1.817-1.864 1.817Z" fill="#CBF3CC"/></svg>