<svg width="364" height="77" fill="none" xmlns="http://www.w3.org/2000/svg"><path d="M42.753 29.53c-.89.547-1.79.538-2.7-.024-.694-.437-1.349-1.157-1.965-2.161-.52-.85-.773-1.714-.757-2.594.023-1.034.445-1.802 1.265-2.305.77-.472 1.571-.512 2.404-.12.72.34 1.33.918 1.831 1.735.805 1.312 1.201 2.425 1.19 3.339-.014.91-.437 1.62-1.268 2.13Zm-3.642-6.233c-.544.334-.807.875-.786 1.624.017.626.208 1.237.572 1.831.59.963 1.165 1.607 1.721 1.93.557.323 1.096.325 1.618.006.62-.381.848-1.008.683-1.882-.114-.607-.403-1.288-.866-2.044-.487-.793-.976-1.311-1.467-1.554-.489-.244-.98-.215-1.475.089ZM34.462 28.341l2.054-1.253c.26-.16.47-.11.63.151.16.26.11.47-.151.63l-2.058 1.257a6.007 6.007 0 0 0-.295.199c-.128.086-.225.15-.289.189a.438.438 0 0 1-.629-.158c-.13-.211-.085-.415.132-.613.055-.054.257-.188.606-.402Zm1.696 2.205c.194-.118.486-.292.878-.52a48.5 48.5 0 0 0 .878-.52c.26-.16.47-.11.63.151.16.26.11.471-.15.63-.194.12-.486.293-.878.52-.392.23-.685.402-.878.521a7.64 7.64 0 0 0-.385.26c-.168.12-.295.205-.38.257-.27.166-.484.118-.643-.143-.148-.24-.102-.447.138-.622.31-.223.574-.4.79-.534ZM33.656 32.232l.997 1.625c.167.272.117.49-.15.654-.31.19-.595.073-.856-.352a4.678 4.678 0 0 1-.128-.23c-.054-.1-.091-.167-.113-.202l-.615-.994-1.967 1.139c-.401.246-.687.403-.859.472-.293.12-.49.097-.59-.067-.081-.131-.103-.348-.066-.648l.103-.68.227-4.479c.03-.392.195-.68.496-.866.331-.203.584-.16.76.126l2.239 3.65c.047-.034.107-.072.177-.115.539-.33.897-.35 1.075-.06.129.21.1.412-.089.604-.083.087-.297.228-.64.423Zm-3.13-3.193c-.017 1.727-.055 3.035-.114 3.925l1.859-1.08-1.745-2.845ZM28.91 34.912c-.372.285-1.068.74-2.087 1.365-.246.151-.44.112-.58-.116-.14-.229-.086-.418.16-.569.231-.142.572-.365 1.022-.669.45-.304.79-.527 1.022-.669.26-.16.46-.125.6.103.125.202.08.387-.136.555ZM24.59 35.248l-.272.994-.305 1.257 2.579.993a.53.53 0 0 1 .28.21.49.49 0 0 1 .053.383.483.483 0 0 1-.218.315c-.11.069-.245.076-.402.024-.462-.148-1.306-.46-2.533-.937l-.315 1.408c-.078.26-.181.657-.311 1.188-.029.163-.098.277-.206.344a.483.483 0 0 1-.38.051.497.497 0 0 1-.313-.225.53.53 0 0 1-.06-.344c.016-.159.063-.367.143-.625a9.37 9.37 0 0 0 .173-.614l.335-1.553-1.084-.477c-.434-.19-.785-.307-1.05-.354-.173-.03-.295-.105-.367-.222a.53.53 0 0 1-.068-.387.455.455 0 0 1 .206-.314c.173-.106.572-.04 1.197.197l1.403.583.376-1.318c.151-.556.231-.968.24-1.235.01-.195.079-.332.207-.411a.497.497 0 0 1 .381-.059c.14.031.244.103.313.214.099.16.098.465-.002.913ZM19.905 43.584a2.958 2.958 0 0 1-1.36.453c-.526.029-.977-.108-1.351-.41a.568.568 0 0 1-.12-.138.43.43 0 0 1-.047-.37.541.541 0 0 1 .24-.31c.116-.072.25-.08.402-.023l.388.179c.193.079.402.1.625.063.222-.039.457-.135.706-.287.32-.196.538-.467.656-.813.125-.367.095-.703-.092-1.008-.271-.442-.65-.695-1.137-.76-.427-.052-.893.043-1.398.284-.344.167-.588.135-.73-.097-.106-.172-.059-.382.14-.63l.891-.902c.157-.197.25-.388.276-.574a.844.844 0 0 0-.122-.554.853.853 0 0 0-.68-.44c-.315-.033-.666.069-1.052.306-.2.122-.363.289-.49.5l-.306.616c-.059.121-.118.2-.176.235a.478.478 0 0 1-.384.054.524.524 0 0 1-.312-.232c-.141-.231-.054-.59.263-1.08.273-.428.535-.72.787-.875.63-.386 1.214-.553 1.753-.5.579.055 1.038.36 1.377.914.422.688.422 1.312 0 1.873a2.597 2.597 0 0 1-.133.166c.477-.095.9-.058 1.27.11.367.166.682.462.944.89.354.576.451 1.192.292 1.845a2.394 2.394 0 0 1-1.12 1.515ZM15.44 42.158a.487.487 0 0 1 .065.353.402.402 0 0 1-.195.282 1.243 1.243 0 0 1-.169.08 1.243 1.243 0 0 0-.173.082l-.434.278a6.4 6.4 0 0 1-.439.27l.633 1.032c.162.263.112.475-.149.635-.128.078-.246.106-.353.083-.106-.028-.199-.107-.28-.24l-.314-.502-.317-.506c-.341.237-.585.401-.732.491-.454.278-.763.283-.928.014-.117-.19-.11-.359.023-.504.047-.05.188-.146.426-.292.146-.09.39-.253.732-.491l-.32-.511c-.163-.267-.263-.46-.3-.578a.549.549 0 0 1-.009-.32.413.413 0 0 1 .189-.225.457.457 0 0 1 .348-.063.407.407 0 0 1 .286.2c.03.05.073.133.128.248.057.114.103.198.137.254l.312.498.337-.189c.059-.036.146-.093.263-.173.114-.082.201-.141.26-.177.48-.295.804-.304.973-.03ZM7.238 44.691l.375-.217.374-.218c.097-.059.23-.16.4-.305.171-.146.303-.247.394-.302a.332.332 0 0 1 .286-.037.4.4 0 0 1 .237.181c.166.27-.144.645-.929 1.126-.1.06-.25.149-.449.263-.197.113-.345.2-.444.26a.861.861 0 0 1-.458.142.452.452 0 0 1-.403-.224c-.237-.387-.285-.813-.143-1.278l.502-1.112c.185-.395.211-.701.078-.918-.052-.085-.166-.146-.342-.183-.176-.037-.308-.03-.395.025-.202.124-.324.28-.364.47l-.001.473c0 .164-.055.281-.166.35a.41.41 0 0 1-.291.057.348.348 0 0 1-.241-.166c-.173-.282-.168-.613.013-.994.16-.344.393-.61.7-.798.276-.17.594-.215.956-.139.362.072.624.24.786.504.231.377.315.743.25 1.097-.033.19-.158.498-.376.925-.206.4-.322.74-.349 1.018ZM5.044 47.234l-.272.994-.305 1.257 2.579.993a.53.53 0 0 1 .28.21c.07.114.087.242.053.383a.483.483 0 0 1-.217.315c-.112.069-.246.076-.403.024-.462-.148-1.306-.46-2.533-.937l-.315 1.408c-.077.26-.181.657-.31 1.188-.03.163-.099.277-.207.344a.483.483 0 0 1-.38.051.497.497 0 0 1-.313-.225.53.53 0 0 1-.06-.344c.016-.159.064-.367.143-.625.092-.303.15-.507.173-.614l.335-1.553-1.084-.477c-.434-.19-.785-.307-1.05-.353-.173-.032-.295-.106-.367-.223a.53.53 0 0 1-.068-.387.455.455 0 0 1 .206-.314c.173-.106.572-.04 1.197.197l1.403.583.376-1.318c.151-.556.231-.967.24-1.235.01-.195.079-.332.207-.411a.497.497 0 0 1 .382-.059c.14.032.244.103.312.214.099.16.098.465-.002.914Z" fill="#727E99"/><path fill-rule="evenodd" clip-rule="evenodd" d="M345.833 37.605c-.767-.004-1.477.388-1.895.756a.175.175 0 1 1-.232-.263c.46-.405 1.249-.849 2.129-.844.896.004 1.846.474 2.605 1.818a.175.175 0 0 1-.306.172c-.707-1.254-1.551-1.636-2.301-1.64ZM352.71 37.81c-.081-.088-.126-.096-.138-.095a.473.473 0 0 0-.218.096 2.31 2.31 0 0 0-.338.291 8.626 8.626 0 0 0-.761.92 20.086 20.086 0 0 0-.83 1.228l-.052.085-.014.022-.003.005-.001.002-.15-.09-.15-.092.001-.002.004-.006.014-.023.054-.087a20.441 20.441 0 0 1 .844-1.25c.252-.343.531-.692.795-.959.131-.133.264-.25.391-.335a.803.803 0 0 1 .4-.156c.169-.006.307.097.41.209.108.116.208.276.3.456.187.362.362.84.512 1.31a23.79 23.79 0 0 1 .472 1.726l.028.12.007.033.002.008.001.003-.171.038-.172.038v-.003l-.002-.008-.007-.03a22.566 22.566 0 0 0-.492-1.818c-.149-.465-.317-.921-.489-1.256a1.784 1.784 0 0 0-.247-.38Zm-2.596 2.613a.175.175 0 0 1-.059-.24l.15.09.15.091a.175.175 0 0 1-.241.06Zm4.043 1.015a.176.176 0 0 1-.21-.133l.172-.038.171-.038a.176.176 0 0 1-.133.209Z" fill="#EF627E"/><path d="M361.545 47.616a.455.455 0 0 1-.297-.2.454.454 0 0 1-.065-.353.447.447 0 0 1 .2-.293.444.444 0 0 1 .353-.07.44.44 0 0 1 .292.204.44.44 0 0 1 .07.35.441.441 0 0 1-.204.296.447.447 0 0 1-.349.066ZM360.852 45.874c-.09.433-.327.72-.71.861-.326.122-.736.132-1.23.029a12.275 12.275 0 0 1-.368-.084 8.17 8.17 0 0 0-.369-.093.488.488 0 0 1-.121-.01c-.251-.051-.341-.247-.271-.587.01-.046.054-.191.133-.434a9.16 9.16 0 0 0 .244-.915c.041-.197.087-.478.137-.842.053-.366.1-.648.141-.844.054-.261.201-.366.439-.317.253.053.357.192.309.419-.053.258-.111.618-.174 1.08.121.02.217.037.286.051.592.124 1.011.294 1.256.512.305.274.404.665.298 1.174Zm-.712-.148c.057-.275.011-.479-.139-.61-.12-.11-.358-.202-.712-.275a7.374 7.374 0 0 0-.402-.068 2.58 2.58 0 0 1-.027.148 17.83 17.83 0 0 1-.298 1.1c.203.048.364.084.482.108.647.135 1.012 0 1.096-.403ZM355.768 46.298c-.504-.105-.893-.345-1.167-.72-.288-.393-.377-.852-.268-1.376.104-.499.377-.98.82-1.442.492-.514.969-.722 1.431-.626.241.05.499.163.773.338.346.223.497.44.454.648a.392.392 0 0 1-.145.232.296.296 0 0 1-.251.06.308.308 0 0 1-.175-.102l-.124-.16c-.121-.147-.347-.254-.676-.322-.251-.053-.546.12-.885.516-.31.364-.495.696-.558.996-.067.325-.01.604.173.837.17.218.417.36.742.428.148.03.313.024.497-.02l.475-.14a.417.417 0 0 1 .171-.026.314.314 0 0 1 .213.16.36.36 0 0 1 .049.268c-.038.18-.263.313-.677.402-.362.078-.653.095-.872.05ZM353.557 44.545c-.02.096-.055.238-.104.425a9.677 9.677 0 0 0-.104.425.351.351 0 0 1-.16.236.352.352 0 0 1-.281.053.366.366 0 0 1-.293-.442c.034-.16.091-.397.171-.71.081-.315.138-.552.171-.712.063-.303.1-.595.11-.878-.392.38-.674.644-.846.79a5.78 5.78 0 0 1-.943.666c-.393.214-.689.388-.886.524-.159.108-.309.148-.452.118a.479.479 0 0 1-.263-.143.308.308 0 0 1-.076-.282 70.17 70.17 0 0 0 .419-2.199l.2-1.163c.052-.251.201-.351.447-.3.209.044.306.187.291.43-.002.038-.044.282-.125.733l-.337 1.843a10.4 10.4 0 0 0 1.42-.998c.158-.13.594-.508 1.31-1.137.186-.164.361-.229.526-.194a.356.356 0 0 1 .236.157.356.356 0 0 1 .053.284c-.057.273-.138.686-.242 1.239-.105.55-.185.962-.242 1.235ZM349.052 44.478a.362.362 0 0 1-.441.29.369.369 0 0 1-.245-.16.353.353 0 0 1-.048-.283c.041-.2.121-.621.24-1.266-.345.151-.737.181-1.177.09-.522-.109-.862-.367-1.021-.775-.157-.407-.151-1.015.018-1.824.084-.404.256-.578.517-.524a.362.362 0 0 1 .289.441 1.23 1.23 0 0 1-.036.12.856.856 0 0 0-.036.115c-.136.652-.164 1.098-.086 1.337.072.223.275.37.61.44.15.03.341.016.574-.043.25-.066.428-.157.534-.274l.102-.452c.054-.233.087-.38.1-.441.01-.05.02-.124.031-.225.013-.1.024-.173.034-.22a.342.342 0 0 1 .16-.232.391.391 0 0 1 .286-.044c.261.054.345.306.251.756a4.707 4.707 0 0 1-.066.263 6.23 6.23 0 0 0-.053.217c-.059.282-.148.732-.269 1.349-.12.613-.209 1.062-.268 1.345ZM346.176 40.627l-1.85 2.494a22.678 22.678 0 0 0-1.074 1.536l-.393.665c-.101.164-.23.23-.387.197a.399.399 0 0 1-.248-.16.33.33 0 0 1-.058-.273c.051-.246.465-.903 1.241-1.97l-.792-2.818-.11-.303a.608.608 0 0 1-.041-.305.373.373 0 0 1 .17-.242c.095-.06.19-.08.286-.06a.31.31 0 0 1 .235.184c.297.667.574 1.587.831 2.759l.811-1.16c.288-.399.556-.738.804-1.017.107-.122.225-.17.353-.143a.383.383 0 0 1 .243.163c.064.087.086.18.066.279a.474.474 0 0 1-.087.174Z" fill="#EF627E"/><path d="M340.023 42.488a.3.3 0 0 1-.168.215.409.409 0 0 1-.277.039c-.173-.036-.274-.148-.304-.337-.028-.188-.144-.52-.351-.996-.22-.506-.376-.769-.467-.79l-.442-.092a36.05 36.05 0 0 1-.094.43c-.042.192-.074.337-.094.435-.084.403-.138.632-.162.686-.081.191-.222.266-.424.224a.41.41 0 0 1-.246-.148.31.31 0 0 1-.057-.265c.024-.116.067-.296.128-.54.062-.246.105-.428.129-.546.049-.234.113-.586.193-1.057s.145-.825.194-1.06c.066-.318.225-.45.479-.398a.387.387 0 0 1 .242.15.318.318 0 0 1 .056.267c-.037.179-.104.544-.201 1.093l.27.056c.304.043.548-.046.733-.267l.228-.322c.272-.354.548-.502.828-.444a.716.716 0 0 1 .264.12c.111.08.158.165.14.253-.041.194-.145.274-.312.24-.138-.03-.315.106-.531.405-.15.202-.233.314-.251.336a1.084 1.084 0 0 1-.322.272c.21.226.408.567.595 1.025.193.468.267.807.224 1.016ZM334.752 41.861c-.556-.115-.977-.348-1.263-.697-.313-.386-.411-.856-.296-1.409.133-.64.399-1.144.799-1.512.436-.402.935-.545 1.498-.427.408.084.727.223.957.414.282.236.386.53.313.881-.051.246-.237.441-.556.585-.142.063-.431.147-.869.25l-1.548.375c.095.233.234.422.417.568.185.146.414.248.687.305.17.035.376.044.618.028.307-.02.516-.087.627-.2.111-.116.215-.164.31-.144a.322.322 0 0 1 .209.148c.055.078.074.16.056.246-.057.273-.326.462-.807.567a2.758 2.758 0 0 1-1.152.023Zm.6-3.381a.964.964 0 0 0-.822.194c-.247.19-.469.508-.664.955l1.244-.303c.491-.123.847-.246 1.07-.366-.171-.241-.447-.401-.828-.48ZM332.781 40.27c-.093.45-.509.695-1.246.737-.463.027-1.008-.025-1.635-.155a.43.43 0 0 1-.253-.172.345.345 0 0 1-.076-.281l.146-.701.448-1.97.077-.37c.034-.149.075-.266.123-.35a.222.222 0 0 1 .141-.122.937.937 0 0 1 .215-.017c.155-.006.405.027.749.099a2.11 2.11 0 0 1 1.018.511c.33.303.456.64.379 1.01-.072.345-.309.559-.711.642.17.12.321.289.453.506.151.247.209.458.172.633Zm-.604-1.924c.031-.15-.045-.303-.228-.459a1.095 1.095 0 0 0-.485-.259l-.151-.031a4.292 4.292 0 0 0-.383-.068c-.02.083-.049.218-.088.405-.01.047-.023.14-.039.28a1.885 1.885 0 0 1-.051.282c.137.044.262.078.375.102.276.057.48.081.613.073.25-.017.395-.126.437-.325Zm-.119 1.738c.027-.133-.044-.278-.214-.437a1.465 1.465 0 0 0-.432-.29 2.494 2.494 0 0 0-.417-.121 8.805 8.805 0 0 1-.425-.104 7.213 7.213 0 0 0-.103.421l-.15.72c1.097.18 1.677.116 1.741-.189ZM322.739 36.31c.3.062.748.165 1.345.307.599.14 1.049.241 1.349.303l.868.158.762.128.21.047c.216.045.301.18.255.404-.057.273-.299.365-.727.276a7.673 7.673 0 0 1-.326-.08 7.533 7.533 0 0 0-.323-.078c-.487-.102-1.218-.25-2.194-.445-.975-.198-1.706-.347-2.193-.449-.251-.052-.351-.2-.3-.443.047-.23.191-.326.43-.292.102.014.384.068.844.164ZM318.688 37.292c-.02.096-.055.237-.104.425a9.677 9.677 0 0 0-.104.425.351.351 0 0 1-.16.236.353.353 0 0 1-.281.053.366.366 0 0 1-.293-.442c.033-.16.09-.397.171-.711.081-.314.138-.551.171-.711.063-.303.1-.596.11-.878-.393.38-.674.643-.846.79a5.78 5.78 0 0 1-.943.666c-.393.213-.689.388-.887.524-.158.108-.309.147-.451.117a.48.48 0 0 1-.263-.143.308.308 0 0 1-.076-.281 70.17 70.17 0 0 0 .419-2.2c.137-.795.204-1.182.199-1.163.053-.25.202-.35.448-.3.209.044.306.188.291.431-.003.038-.044.282-.125.732l-.337 1.843a10.4 10.4 0 0 0 1.42-.998 79.35 79.35 0 0 0 1.31-1.136c.186-.164.361-.23.526-.195a.356.356 0 0 1 .236.157.356.356 0 0 1 .053.284 76.08 76.08 0 0 0-.243 1.24c-.104.55-.184.962-.241 1.235ZM314.487 36.464c-.093.45-.509.696-1.246.738-.463.027-1.008-.025-1.635-.155a.43.43 0 0 1-.253-.172.345.345 0 0 1-.076-.282l.146-.7.448-1.97.077-.37c.034-.15.075-.266.123-.351a.222.222 0 0 1 .141-.121.946.946 0 0 1 .215-.017c.155-.006.405.026.749.098a2.11 2.11 0 0 1 1.018.512c.33.302.456.639.379 1.01-.072.345-.309.558-.711.642.17.12.321.288.453.506.151.247.209.457.172.632Zm-.604-1.923c.031-.15-.045-.303-.228-.46a1.095 1.095 0 0 0-.485-.258l-.151-.032a4.254 4.254 0 0 0-.383-.068c-.02.084-.049.218-.088.406-.01.046-.023.14-.039.28a1.885 1.885 0 0 1-.051.282c.137.044.262.078.375.101.276.057.48.082.613.074.25-.018.395-.126.437-.325Zm-.119 1.738c.027-.133-.044-.279-.214-.437a1.465 1.465 0 0 0-.432-.29 2.502 2.502 0 0 0-.417-.122 8.73 8.73 0 0 1-.425-.103 7.213 7.213 0 0 0-.103.42l-.15.72c1.097.18 1.677.117 1.741-.188ZM310.674 35.625c-.02.096-.054.237-.104.425a9.356 9.356 0 0 0-.103.425.352.352 0 0 1-.161.236.352.352 0 0 1-.281.053.37.37 0 0 1-.243-.162.358.358 0 0 1-.05-.28c.034-.16.091-.397.171-.711.081-.314.138-.551.172-.711.062-.303.099-.596.109-.878-.392.38-.674.643-.846.79-.33.28-.644.502-.943.666-.393.213-.689.388-.886.524-.159.108-.309.147-.452.117a.479.479 0 0 1-.263-.143.31.31 0 0 1-.076-.281c.146-.701.286-1.434.419-2.2l.2-1.163c.052-.25.201-.35.447-.3.209.044.306.188.292.431-.003.038-.045.282-.126.732l-.337 1.843c.44-.25.913-.582 1.42-.998.158-.129.595-.508 1.31-1.136.186-.164.361-.23.526-.195a.36.36 0 0 1 .237.157.356.356 0 0 1 .052.284c-.057.273-.137.686-.242 1.24-.104.55-.185.962-.242 1.235ZM306.237 35.49a.274.274 0 0 1-.149.197.37.37 0 0 1-.253.032c-.155-.032-.244-.134-.267-.306-.029-.195-.147-.537-.356-1.025-.223-.523-.386-.797-.492-.822l-.11-.023-.099.457c-.046.206-.079.36-.1.46a8.03 8.03 0 0 1-.16.695c-.074.174-.203.242-.385.204-.224-.046-.314-.17-.272-.372.025-.12.068-.305.13-.554a12.126 12.126 0 0 0 .229-1.026l-.114-.024c-.101-.021-.359.164-.774.555-.387.366-.631.633-.733.802-.092.148-.216.206-.371.173a.37.37 0 0 1-.218-.134.277.277 0 0 1-.058-.239c.043-.209.254-.498.63-.866.371-.361.692-.596.963-.704-.107-.115-.208-.388-.303-.821-.082-.382-.199-.588-.352-.62-.143-.03-.196-.13-.16-.303.015-.074.082-.124.201-.15a.623.623 0 0 1 .275-.009.531.531 0 0 1 .372.282c.045.08.093.23.145.45.028.151.084.35.169.596.068.115.222.2.462.258.064-.407.118-.717.162-.928.062-.3.208-.427.437-.379.096.02.17.066.221.138.052.07.069.15.05.242a64.53 64.53 0 0 0-.2 1.074c.247.047.429.03.545-.052.051-.033.186-.193.405-.481.134-.178.238-.296.312-.355a.537.537 0 0 1 .458-.109.62.62 0 0 1 .245.117c.098.071.139.144.124.218-.036.172-.125.243-.268.214-.152-.032-.342.11-.57.428a7.588 7.588 0 0 1-.263.357 1 1 0 0 1-.343.279c.206.207.407.549.603 1.026.199.488.276.837.232 1.049ZM299.649 34.09a.299.299 0 0 1-.168.215.41.41 0 0 1-.278.039c-.172-.036-.273-.148-.303-.337-.028-.188-.144-.52-.351-.996-.22-.506-.376-.77-.467-.79l-.442-.093a36.05 36.05 0 0 1-.094.431c-.042.192-.074.337-.094.435-.084.403-.138.632-.162.686-.081.191-.222.266-.424.224a.41.41 0 0 1-.246-.148.31.31 0 0 1-.057-.266c.024-.115.067-.295.128-.539.061-.246.105-.428.129-.547.049-.233.113-.586.193-1.057.08-.47.145-.824.194-1.06.066-.317.225-.45.479-.397a.387.387 0 0 1 .242.15.321.321 0 0 1 .056.266c-.037.18-.104.544-.201 1.094l.27.056c.304.043.548-.046.733-.267l.228-.322c.272-.354.548-.502.828-.444a.716.716 0 0 1 .264.12c.111.08.158.164.14.253-.041.194-.145.274-.312.24-.138-.03-.315.106-.531.405-.15.202-.233.314-.251.336a1.097 1.097 0 0 1-.322.272c.21.226.408.567.595 1.024.193.469.267.808.224 1.017ZM294.378 33.463c-.556-.116-.977-.348-1.263-.698-.313-.385-.411-.855-.296-1.408.133-.64.399-1.144.799-1.512.436-.402.935-.545 1.498-.428.408.085.727.223.957.415.282.235.386.53.313.88-.051.247-.237.442-.556.586-.142.063-.431.146-.869.25l-1.548.375c.095.233.234.422.417.568.185.146.414.248.687.304.17.036.376.045.618.029.307-.021.516-.088.627-.2.111-.116.215-.164.31-.144a.317.317 0 0 1 .208.147c.056.078.075.16.057.247-.057.273-.326.462-.807.567a2.756 2.756 0 0 1-1.152.022Zm.6-3.382a.964.964 0 0 0-.822.195c-.247.19-.469.508-.664.955l1.244-.303c.491-.124.847-.246 1.07-.367-.171-.24-.447-.4-.828-.48ZM291.013 32.432c-.598.101-1.328.062-2.189-.117-.106-.022-.196-.093-.271-.214a.453.453 0 0 1-.076-.335l.223-1.074c.073-.352.2-.849.38-1.492.195-.693.328-1.196.398-1.51.045-.227.129-.561.251-1.003.043-.119.101-.192.173-.218a3.945 3.945 0 0 1 1.172.082c.433.09.818.325 1.155.703.389.435.532.902.428 1.401-.131.632-.481 1.08-1.049 1.34.337.235.576.467.718.697.144.23.193.458.146.684-.062.298-.283.552-.663.763-.265.15-.53.248-.796.293Zm-.096-5.128a4.268 4.268 0 0 0-.569-.092l-.142.645-.371 1.412c.343.102.527.155.552.157.378.048.706-.004.984-.157a1.09 1.09 0 0 0 .556-.766c.048-.233-.036-.477-.253-.73a1.345 1.345 0 0 0-.757-.469Zm-.201 3.041-.378-.144a4.641 4.641 0 0 1-.298-.05 2.99 2.99 0 0 1-.417-.122c-.079.307-.144.582-.195.826l-.159.764c.649.112 1.193.13 1.633.054.186-.03.372-.1.558-.207.177-.096.272-.177.285-.24.024-.116-.106-.28-.391-.49a3.74 3.74 0 0 0-.638-.39Z" fill="#727E99"/><path fill-rule="evenodd" clip-rule="evenodd" d="M290.783 34.465a88.056 88.056 0 0 0-2.684-.482.176.176 0 0 1 .056-.346c.666.108 1.714.29 2.696.484.975.193 1.904.4 2.32.561.234.091.699.21 1.282.34.578.129 1.259.265 1.915.39.944.18 1.846.34 2.304.421.176.031.286.05.31.056a.176.176 0 0 1-.072.343l-.301-.054c-.452-.08-1.346-.238-2.307-.421a68.072 68.072 0 0 1-1.925-.392c-.579-.129-1.07-.254-1.333-.356-.381-.147-1.277-.35-2.261-.544ZM331.675 42.871a88.61 88.61 0 0 0-2.685-.482.175.175 0 0 1-.144-.201.175.175 0 0 1 .201-.145c.666.108 1.714.29 2.695.484.975.193 1.905.4 2.32.561.235.091.7.21 1.283.34.578.129 1.258.265 1.915.39a172.949 172.949 0 0 0 2.613.477.175.175 0 1 1-.071.343 25.475 25.475 0 0 0-.302-.054c-.451-.08-1.346-.238-2.306-.421a67.36 67.36 0 0 1-1.925-.392c-.579-.129-1.071-.254-1.334-.356-.38-.147-1.276-.35-2.26-.544ZM305.379 37.502c-1.58-.319-3.225-.625-3.886-.733a.176.176 0 0 1-.145-.2.176.176 0 0 1 .202-.146c.667.109 2.317.416 3.898.735.791.16 1.566.321 2.194.463.621.141 1.114.265 1.327.348.233.09.899.252 1.792.446.885.192 1.974.413 3.038.623 1.637.324 3.22.622 3.9.75l.344.066a.175.175 0 1 1-.071.343l-.341-.064c-.675-.128-2.253-.425-3.9-.75a171.52 171.52 0 0 1-3.045-.626c-.88-.191-1.579-.358-1.844-.461-.184-.072-.647-.19-1.277-.332a98.715 98.715 0 0 0-2.186-.462Z" fill="#727E99"/><path fill-rule="evenodd" clip-rule="evenodd" d="M346.786 46.015a113.989 113.989 0 0 0-3.371-.625.176.176 0 0 1-.145-.201.176.176 0 0 1 .202-.145c.667.109 2.058.362 3.383.627.662.133 1.309.268 1.84.39.527.121.953.231 1.166.314.233.09.899.252 1.791.446.885.192 1.974.413 3.039.624a471.787 471.787 0 0 0 4.244.815.176.176 0 0 1-.072.344l-.34-.065c-.675-.127-2.253-.425-3.9-.75-1.065-.21-2.157-.432-3.045-.625-.881-.192-1.579-.36-1.844-.462-.185-.072-.586-.177-1.117-.299-.527-.12-1.17-.256-1.831-.388Z" fill="#EF627E"/><path fill-rule="evenodd" clip-rule="evenodd" d="M313.554 40.224c-2.129-.453-4.351-.915-4.865-.983-.43-.057-1.938-.385-3.495-.724l-.031-.007c-1.578-.344-3.206-.699-3.864-.806a.176.176 0 0 1 .056-.346c.67.11 2.31.466 3.88.808h.003c1.58.345 3.083.672 3.497.727.532.07 2.774.537 4.892.988 1.639.348 3.209.688 3.882.834l.34.074a.175.175 0 1 1-.071.343l-.342-.074c-.675-.146-2.248-.487-3.882-.834Z" fill="#727E99"/><path fill-rule="evenodd" clip-rule="evenodd" d="M354.445 48.63c-2.128-.453-4.351-.915-4.865-.983-.43-.057-1.937-.386-3.494-.725l-.031-.007c-1.578-.343-3.206-.698-3.864-.805a.175.175 0 0 1-.145-.202.175.175 0 0 1 .201-.144c.67.109 2.31.466 3.88.808h.002c1.581.345 3.084.672 3.497.727.532.07 2.774.537 4.892.987 1.639.349 3.21.69 3.883.835.199.043.32.07.34.073a.176.176 0 0 1-.072.343c-.02-.003-.141-.03-.342-.073-.674-.146-2.247-.487-3.882-.834Z" fill="#EF627E"/></svg>