<svg width="25" height="25" fill="none" xmlns="http://www.w3.org/2000/svg"><path fill="#fff" d="M5 6h15v14H5z"/><path fill-rule="evenodd" clip-rule="evenodd" d="M12.5 0C5.596 0 0 5.596 0 12.5S5.596 25 12.5 25 25 19.404 25 12.5 19.404 0 12.5 0Zm1.017 16.445c-.124.13-.364.157-.364.157h-.797s-1.758.103-3.307-1.48c-1.69-1.726-3.18-5.151-3.18-5.151s-.087-.225.006-.333c.105-.122.392-.13.392-.13l1.905-.012s.179.029.307.122c.107.076.166.22.166.22s.308.764.715 1.455c.797 1.35 1.167 1.645 1.437 1.5.394-.21.276-1.908.276-1.908s.007-.616-.198-.89c-.16-.213-.46-.275-.592-.292-.107-.014.069-.259.297-.368.343-.165.948-.174 1.663-.167.558.005.718.04.936.091.506.12.49.504.456 1.332-.01.248-.022.535-.022.867 0 .075-.002.154-.005.236-.011.424-.025.91.26 1.091.146.092.503.013 1.396-1.474.423-.706.74-1.535.74-1.535s.07-.147.177-.21c.11-.066.259-.046.259-.046l2.005-.012s.602-.07.7.197c.102.28-.226.934-1.045 2.005-.777 1.017-1.155 1.391-1.12 1.722.025.242.271.461.743.89.984.898 1.248 1.37 1.312 1.483l.012.021c.441.72-.49.776-.49.776l-1.781.024s-.382.074-.886-.265c-.264-.178-.521-.468-.767-.744-.374-.422-.72-.812-1.016-.72-.497.155-.482 1.205-.482 1.205s.004.224-.108.343Z" fill="#0161A2"/></svg>