<svg width="25" height="25" fill="none" xmlns="http://www.w3.org/2000/svg"><path fill-rule="evenodd" clip-rule="evenodd" d="M12.5 25C19.404 25 25 19.404 25 12.5S19.404 0 12.5 0 0 5.596 0 12.5 5.596 25 12.5 25Z" fill="#000"/><path d="M18.14 9.177A3.204 3.204 0 0 1 14.932 6h-2.071v5.66l-.003 3.1a1.875 1.875 0 0 1-1.984 1.872 1.868 1.868 0 0 1-.857-.263 1.875 1.875 0 0 1-.917-1.58 1.877 1.877 0 0 1 2.47-1.807v-2.104a4.068 4.068 0 0 0-.597-.044 3.972 3.972 0 0 0-2.985 1.335 3.886 3.886 0 0 0-.98 2.344 3.88 3.88 0 0 0 1.156 3.024 3.972 3.972 0 0 0 2.81 1.15 3.959 3.959 0 0 0 2.81-1.15 3.878 3.878 0 0 0 1.161-2.76l-.01-4.63a5.233 5.233 0 0 0 3.211 1.091V9.177h-.006Z" fill="#fff"/></svg>