<svg width="96" height="131" fill="none" xmlns="http://www.w3.org/2000/svg"><path opacity=".75" fill-rule="evenodd" clip-rule="evenodd" d="M33.862 48.226c-1.83.913-3.66 2.055-5.491 3.197-1.83.913-3.432 1.826-5.034 2.055-.228-.685-.457-.685-.686-1.142-.915 1.37-2.06 1.37-3.89.913-1.372-2.74-1.83-5.936-1.601-8.905.229-2.968 1.144-5.937 1.83-8.448 1.602-4.795 4.347-9.59 7.78-13.929 3.66-4.338 8.007-8.448 12.812-11.873 4.805-3.425 10.296-6.165 16.245-7.992C61.547.275 67.953-.638 73.901.504c.228.913 2.516.913 5.262 1.826 1.373.457 2.745.914 3.89 1.599 1.143.685 2.059 1.598 2.516 2.511 1.83.914 4.119 3.197 5.491 5.709 1.373 2.511 2.288 5.252 2.746 6.85 0 .228.686.913.915 1.598.229.685.458 1.142-.229.914.23 1.598 1.144 1.141 1.144 3.425v8.22c0 .456 0 .913-.228 1.598 0 .913-.23 2.055-.23 2.968-.228 1.827-.457 3.425-1.143 5.252-.23.914-.458 1.599-.915 2.512-.23.913-.687 1.598-1.144 2.512-.23.456.228.228.228 0-1.601 3.653-4.347 8.677-6.177 12.33-2.517 3.425-6.178 8.677-10.525 13.928-4.118 5.024-8.694 9.819-12.584 12.787-.686.914-1.144 1.827-1.601 2.74-5.72 4.567-13.5 13.244-21.965 19.181-1.83 3.196-6.635 5.48-9.38 8.676 0-.228 0-.456-.23-.685-1.6 2.055-3.66 2.512-3.66 3.654-.686.228-1.373 0-2.288.913.458.457 1.144-1.37 1.601-.228-2.059 1.37-4.347 3.425-7.092 5.023-.229.457.686.229-.687 1.37 0-1.598-1.372.685-1.372-.685-.23 1.37-2.06 2.512-3.432 2.055 1.601-.913-.687-1.141.915-2.055-1.373-.228-1.373 2.284-.687 2.969-1.143.913-1.601-.457-.457-1.37-1.373 0-.915 1.37-1.602 2.055.23.913-.686-.229.23-.685-.687-.229-1.602.685-2.06.228-.686-.457-.229-.913-.458-1.37.687-.913 1.144 0 1.83-1.142-.914.229-1.372 0-2.287-1.141 1.144 0 .915-.685 2.059-.914-1.144.229 0-.913-.458-1.37-.228 1.599-1.601 1.599-1.601 2.74-1.373.914 0-1.598-.915-.685-.458-.456 1.144-1.37 1.372-1.826-.457-.229-.686-.685-1.144-.457.916.913-.457 0-1.83 2.283-.686-.228 0-2.74.915-2.283.229-.457-.229-.457.229-.913-.458.456-1.83 1.141-2.974 1.37 0-.457.686-1.142.915-1.827 1.144.685 1.601 0 2.059-.913-1.83 1.141-1.602-.229-4.118.913 0-1.37.686-3.197 1.83-2.74.229-.457-.458 0-.686-.457.686 0 1.144-1.827 1.372-.457.687-.685 0-1.141-.686-.456 1.602-.914 2.517-2.74 4.576-3.654-.686-.685 2.517-1.826 3.66-3.653-3.66 1.598-5.49 4.795-10.066 7.535-.23-.228.457-.685.228-.913l.687-.685c.229.913 4.576-4.795 7.779-6.622v-.228c.229 0 .458-.229.686-.229.687-.685 2.746-1.826 3.204-2.283 0-.228.686-.685 1.144-1.142.457-.456 1.143-.913 1.143-.913.687-.913.916-.913 1.144-1.37.458-.685 3.89-3.653 4.576-4.11.23 0 1.602-1.142 2.746-2.284 2.974-1.826 7.321-5.936 11.44-9.818 3.89-3.882 7.55-7.764 8.923-8.448 1.601-.914-.458 1.141.458-.457 1.143-1.599 4.804-4.11 5.72-5.252.686-1.827 3.66-3.425 5.033-4.795 1.144-1.37 2.06-3.197 2.746-4.11.228-.228 1.144-.228 1.372-.457.687-.685.687-2.283 1.602-2.968 1.601-.913-.458 1.142.457-.685 1.373-2.74 4.119-4.795 5.95-7.535 2.745-4.339 5.72-9.819 7.32-15.299.687-.685.916.457 1.145-.228 0-1.37-.915.228-.915-.457 0-.913 1.83-.685 1.144-1.37 0 .228-.23.457-.458.685 0-.685 0-1.37.229-2.055v-3.882c0-.685 0-1.37-.23-2.055 0-1.37-.228-2.74-.457-3.881-.228-1.142-.686-2.055-.915-2.969.229.229.229.457.458.229-.23-.685-.916-.229-1.144-.457-.915-1.599-2.06-2.512-3.661-3.425-1.602-.685-3.66-.913-5.72-.913-4.347.228-8.694 1.598-12.584 3.653.915-.913-.686-1.37-1.144-.457.229 0 .687-.228.687 0-2.06 1.37-5.263 3.197-8.695 5.937-3.203 2.74-6.864 6.165-9.152 10.275h.23c-.687 1.37-1.831 3.654-2.289 5.48.229 1.37.229 2.969.229 3.197-.229.685-.229 1.598 0 2.74Z" fill="#FFCA42"/><path opacity=".75" fill-rule="evenodd" clip-rule="evenodd" d="M15.1 125.86c-3.889-1.37-8.236-1.826-11.21-3.196.228-.229-.23-.457 0-.685-1.602 0-2.517-.457-3.89-1.599 0-.685.458-1.598.686-2.283.458-.685.916-1.37 1.602-2.055.458-.685 1.144-1.142 1.83-1.598.687-.457 1.144-.914 1.602-1.142 1.83-1.599 4.118-2.74 6.406-3.882 2.288-1.142 4.576-1.827 6.864-2.512 4.576-1.37 9.38-2.283 13.042-2.511.457 1.598 2.745-1.599 3.66.456 1.144-1.141 3.203 0 4.347 0 0 0 1.145-1.141.916 0 .457 0 .457-.913 1.144-.456 3.203 1.37 5.262 0 7.779.913.229 0 0-.228 0-.228 1.373.228 3.432.456 5.033 0 2.975 1.141 10.067.456 13.5 2.283l1.372-.685c2.746 1.37 7.55.913 11.44 2.968 1.602-.685 3.432 1.142 5.262.914 0 .228-.228.228-.228.456 1.143-.228 1.601.914 2.287.229.23.456.23 1.142.916 1.142.229-.686-.687-.001-.23-.914.916.685 2.289.913 3.433 2.284.229-.229 0-.685.915-.229-.915.914.458.685-.229 1.37.687-.685 1.602.229 1.373 1.37-.686-.685-.686 1.142-1.373.457 0 1.142 1.373-.228 1.602-1.142.686.457-.229 1.599-.687 1.142 0 .913.916 0 1.373.228.458-.685 0 .685-.457 0 0 .685.457.914.228 1.599-.228.685-.457.685-.915 1.141-.457 0 0-.913-.686-.913 0 .685 0 1.142-.687 2.283 0-.685-.228-.228-.457-1.141.229.685-.458.456-.687 1.141.916-.913.687.229 1.373-.228.458.457-.915.685-.457.913-.23.457-.687-.228-.916 0-.228.457-.457.914-.228 1.142.457-1.142 0 .457 1.144.228-.23.685-1.373 1.599-1.144.457-.23 0-.23.457-.458.457.229.228.458.685.458 1.37-.23.228-.458.228-.687.228.458-1.142 0-1.142-.457-.913.457.685 0 1.37.228 2.511-.686.685-1.372 1.37-1.143.229-.23 0 0 .456-.23.685 0-.457-.686.228-.228-.685-.229 0-.458.685-.229.685-.457-.685-1.144-.229-1.602-1.142-.228.913-.915-.685-1.83-.228.915 1.598 2.517.913 3.432 2.511-.229.229-.229 0-.457.457h-.23c.458-.913-2.058-.457-2.974-1.598v.228c0-.228 0-.228-.228-.228-.23 0-.916-.685-1.144-.685-.23 0-1.144-.229-1.144-.229-.458.229-.458 0-.687 0-.229 0-2.059-.228-2.288-.456l-1.373-.457c-2.288-1.827-9.151-1.142-10.296-2.283-.686-.457.458-.457-.228 0-.915.228-2.288-.685-2.975-.685-.686.685-1.83-.457-2.745-.685-.687-.229-1.602.456-2.06.228-.228 0-.228-.913-.457-.913s-.915.913-1.373.456c-.686-.913.458-.228-.229 0-.915.229-2.059-.913-3.66-.913-2.06-.228-4.805 0-7.322-.228-.457-.457.229-.914-.229-1.142-.686.457.23.685-.228 1.142-.458.228-.458-1.599-.687-.914.229 0 .229.229.229.229-2.517.913-5.491.228-7.78.228 0 0 .23 0 .23-.228-.458-.229-.458.685-.687.913-5.262-.228-9.38 0-12.812.913.457-.456-.23-1.37-.458-.685 0 0 .229 0 .229.229-.915.456-2.288.913-3.89 1.37-1.372.456-3.203 1.141-4.118 1.826v.229c-.458.228-.915.685-1.144.685h-.458c.23-.229 0-.229-.228-.229Z" fill="#FFCA42"/></svg>