<svg width="101" height="142" fill="none" xmlns="http://www.w3.org/2000/svg"><g clip-path="url(#a)"><path opacity=".75" fill-rule="evenodd" clip-rule="evenodd" d="M80.706 0c1.888 4.017 3.303 8.27 3.303 11.577-.472 0-.472.473-.944.473.944 1.418.944 2.363.708 4.253-2.831 1.418-6.371 1.418-9.439 2.599-5.663 2.363-12.743 7.088-19.114 13.231-6.372 6.143-12.271 13.468-16.755 19.374-1.652-.472-2.124 5.435-4.956 5.907-.472 2.363-3.54 5.435-4.72 7.561-.235.236 0 2.599-.943 1.418-.472.945.236 1.181-.708 2.362-4.248 5.198-4.72 9.688-7.552 14.413 0 .473.236.236.236 0-.235.709-.707 1.418-.944 2.126l-.707 2.127c-.236.709-.236 1.654-.472 2.363 0 .472 0 .709-.236 1.181v1.181c-.944 2.6-.944 7.089.236 11.342 1.18 4.252 3.067 8.033 4.72 11.104.707.473 1.415.709 2.123 1.182 1.416 2.126 3.776 4.253 6.843 5.67 3.068 1.654 6.608 2.599 9.912 3.308.708-.236 1.18-.236 1.888-.236h2.123c.708 0 1.652 0 2.36-.236.708 0 1.416-.473 2.124-.709 0 .236-.236.236 0 .709.944-.473 1.652-.709 2.124-.709.708-.237 1.18-.237 1.18-.709.708.236 1.18.709 1.888 0-.236-.709-1.18.709-1.18-.473.472 0 .944-.236 1.416-.236l1.416-.709c1.18-.472 2.123-.945 3.54-1.181.235-.473-.709-.473.707-1.181 0 1.417 1.18-.237 1.18.945.236-1.182 1.888-1.891 3.068-1.418-1.416.709.708 1.181-.944 1.89.708.236.944-.236.944-.945s0-1.418-.472-1.89c1.18-.709 1.652.709.472 1.418 1.18.236.944-1.182 1.416-1.654-.236-.945.708.236-.236.708.708.237 1.416-.472 2.124 0 .472.473.236.946.472 1.418-.708.945-1.18 0-1.652.709.944 0 1.416 0 2.124 1.418-.944 0-.708.472-1.888.708 1.18-.236 0 .945.472 1.418.236-1.654 1.416-1.418 1.652-2.599 1.18-.709 0 1.418.943.709.472.472-1.18 1.181-1.416 1.654.237.236.709.945 1.18.472-.944-1.181.472 0 1.652-1.89.708.473 0 2.835-.944 2.127-.236.236.236.472-.236.945.472-.237 1.888-.945 2.832-1.182 0 .473-.708 1.182-.944 1.654-1.18-.709-1.652 0-2.124.709 1.888-.945 1.652.236 4.012-.709-.236 1.182-.708 3.072-2.124 2.599-.472.473.472.236.708.473-.708 0-1.416 1.654-1.416.472-.708.709-.236 1.182.708.709-.944.473-1.652.945-2.36 1.654-.707.709-1.651 1.181-2.831 1.418.236.236-.472.708-1.416 1.181-.944.473-2.36.945-3.304 1.654 2.124-.236 4.012-1.181 5.664-2.363 1.888-1.181 3.54-2.363 6.135-3.544.236.236-.472.709-.236.945l-.708.473c0-.473-1.416.472-3.303 1.89-.945.709-2.124 1.418-3.068 2.126-1.18.709-2.36 1.182-3.304 1.418v.236c-.236 0-.472 0-.708.237-.944.472-3.54.945-4.012 1.417-.236.236-3.303 1.182-3.303 1.182-1.18.708-1.18.472-1.888.708-.472.237-1.888.709-3.54.945-1.652.237-3.068.473-3.54.237h-4.011c-1.888-.473-4.72-.709-7.552-1.418-3.068-.472-6.135-1.654-9.203-2.835-3.068-1.182-5.9-2.835-7.787-4.253-.472-.473-.944-.709-1.416-.945s-.708-.709-1.18-.945l-1.416-1.418c-1.18-1.654 1.18.709-.708-.709-1.888-1.181-4.484-5.67-5.664-7.088-.944-.709-1.651-1.89-2.123-3.308-.708-1.417-.944-2.835-1.416-4.016-.708-1.891-2.36-3.781-2.596-5.198 0-.473.472-1.182.472-1.654-.236-.945-1.652-2.363-1.416-3.781.472-2.126.708 1.182-.236-.945-1.18-3.544-.472-7.324 0-11.577.236-1.418.472-3.072.708-4.726.236-.708.236-1.653.472-2.599 0-.472.236-.945.236-1.18 0-.474.236-.946.472-1.419.236-.945.472-1.653.708-2.599.236-.945.708-1.653.944-2.362.708-1.654 1.18-3.072 1.888-4.726.707-.709.943.709 1.18 0 .235-1.417-.944.236-.944-.709.236-1.181 2.123-.708 1.651-1.417 0 .945-.236.945-.472 1.181 1.888-6.38 5.9-12.759 9.204-17.72 0 .236-.472.708-.236.708.708-.945-.236-1.18.236-1.89 7.551-11.34 14.867-20.083 21.474-27.171-.472 1.181 1.18.945 1.18 0-.236.236-.472.472-.708.472 3.54-4.725 11.563-12.05 22.418-18.665v-.236c1.888-1.182 5.192-2.836 8.26-4.017 3.067-1.181 5.9-1.89 6.607-1.89.472 0 1.18-.236 1.888-.236C78.818.236 79.762.236 80.706 0Z" fill="#FFCA42"/><path opacity=".75" fill-rule="evenodd" clip-rule="evenodd" d="M31.15 69.228c-3.776-2.363-7.788-4.017-10.148-6.38.472-.472 0-.708.236-.944-1.652-.237-2.36-1.182-3.303-2.836.944-1.89 2.595-3.308 4.011-4.489.708-.473 1.652-.945 2.36-1.418.708-.472 1.652-.945 2.36-1.417 5.427-3.308 12.979-6.38 21.002-7.797 8.024-1.654 16.519-1.89 23.598-.236 0 .945 1.416.708 3.068.945 1.652 0 3.304.472 4.012 1.654 1.18 0 2.832.472 4.247 1.417l2.124 1.418c.708.472 1.18.945 1.888 1.417.236.237 2.596.473 1.416 1.182.944.709 1.416 0 2.36 1.181 2.36 3.072 4.011 5.434 5.427 8.033a21.626 21.626 0 0 1 1.652 3.308c.472 1.182.944 2.363 1.18 3.78.236.237.236 0 .236 0 .708 2.836 1.652 7.089 2.36 10.633-.236 3.544-.472 8.742-1.888 13.94-1.416 5.198-3.776 9.687-6.135 12.522-.236.946-.236 1.654-.472 2.363-1.888 2.127-3.776 4.962-5.9 8.033-2.124 2.836-4.72 5.907-7.551 8.27-.708 2.599-4.248 4.253-5.664 6.852-.236-.236 0-.473-.236-.473-.708 1.654-2.36 1.891-2.124 2.836-.708 0-1.18 0-1.651.708.471.473.707-.945 1.18 0-1.416.946-2.832 2.599-4.72 3.781 0 .472.708.236-.236 1.181-.472-1.417-.944.473-1.416-.709.236 1.182-1.18 1.891-2.36 1.418 1.18-.709-.944-.945.236-1.654-1.18-.236-.472 1.654.236 2.363-.708.709-1.652-.709-.944-1.182-1.18 0-.472 1.182-.944 1.654.472.709-.708-.236 0-.472-.708-.236-1.18.472-1.888 0-.708-.236-.472-.709-.944-1.182.236-.708.944 0 1.18-.708-.708 0-1.18 0-2.36-1.182.944 0 .473-.472 1.652-.472-.944.236-.236-.709-.708-1.182.236 1.418-.944 1.182-.708 2.127-.943.709-.236-1.182-.943-.709-.472-.473.708-.945.708-1.418-.473-.236-.708-.708-1.18-.472 1.18.945-.472 0-.944 1.654-.708-.237-.944-2.363.236-1.89.236-.237-.472-.473-.236-.709-.236.236-1.18.709-2.124.945-.236-.473.236-.945.472-1.418 1.18.709 1.416 0 1.652-.709-1.18.709-1.416-.236-3.304.473-.236-1.181-.236-2.599.944-2.127.236-.472-.472 0-.708-.472.708 0 .472-1.418.944-.236.472-.473-.236-.945-.708-.473 1.18-.709 1.416-2.126 3.068-2.599-.708-.472 1.652-1.418 2.123-2.835-2.831.945-3.54 3.544-6.607 5.67-.236-.236.236-.472 0-.708l.472-.473c.472.945 2.832-3.78 5.192-4.962v-.236c.236 0 .472 0 .472-.236.471-.473 1.887-1.418 2.123-1.89 0-.237 1.416-1.654 1.416-1.654.236-.709.472-.709.708-.945.236-.473 2.36-2.836 2.832-3.072l1.652-1.654c1.888-1.181 4.484-4.489 6.607-7.324 2.124-3.072 3.776-5.907 4.484-6.38.944-.709 0 .945.236-.472.236-1.182 2.36-3.072 2.596-4.017 0-.709.236-1.181.708-1.89.472-.709.944-1.181 1.18-1.654.472-.945 0-2.363.472-2.835.236-.237.944-.237.944-.473.235-.472-.709-1.418 0-1.89.943-.709.235.709 0-.473v-1.18c0-.474.235-.946.235-1.182.236-.473.236-.945.472-1.418 0-.473.236-.945.236-1.418 0-2.835-.944-6.143-2.36-9.45 0-.71.944-.237.944-.71-.707-.708-.707.473-1.18.237-.471-.473 1.18-1.418.237-1.418v.473c-.708-.945-1.18-1.181-1.652-1.89l-.708-.71-.708-.708c-.944-1.181-2.124-2.126-3.54-3.072.236 0 .236.237.472 0-.472-.472-.708.473-1.18.237-1.416-.945-3.068-1.654-4.72-2.127-1.651-.472-3.303-.945-4.955-1.181-3.304-.473-6.608-.473-9.44 0 .709-.473-.235-1.418-.471-.709.236 0 .472 0 .472.236-1.652.473-4.248.946-7.08 1.654-2.832.71-6.135 1.654-8.967 3.072v.236c-.944.709-2.596 1.418-4.012 2.127-.236.236-.708.472-.944.472-.236.236-.472.236-.708.473-.472.236-.708.472-.944.472-.235 0-.471.237-.707.473.472-1.182.236-.945 0-.709Z" fill="#FFCA42"/></g><defs><clipPath id="a"><path fill="#fff" d="M0 0h101v142H0z"/></clipPath></defs></svg>