<svg width="59" height="131" fill="none" xmlns="http://www.w3.org/2000/svg"><path opacity=".75" fill-rule="evenodd" clip-rule="evenodd" d="M44.175.675c4.057 1.124 8.114 2.25 10.819 3.824-.226.225 0 .45 0 .674 1.578.225 2.254.675 3.606 1.575 0 2.25-2.029 4.049-2.93 6.073-.676 2.024-1.578 4.274-2.254 6.748a212.168 212.168 0 0 0-2.028 8.098c-.676 2.924-1.127 5.623-1.803 8.322-.451 2.7-1.127 5.399-1.578 7.648-1.578 0 .45 3.824-1.578 4.723.676 1.575-.901 4.05-1.127 5.624 0 .225.902 1.574-.225 1.124-.225.675.676.675.225 1.575-2.028 4.049-1.127 6.748-2.479 10.122 0 .225.225.225.225 0-.45 1.8-.901 4.723-.901 6.748-.676 2.024-1.127 5.398-1.578 8.997-.45 3.599-.901 6.973-2.028 9.447.225.675.45 1.125.676 1.8-1.352 3.823-1.127 10.346-2.93 15.97.676 2.024-.902 4.723-.676 7.198-.226 0-.226-.225-.451-.225.225 1.574-.676 2.474 0 2.924-.45.45-1.127.45-.902 1.349.676.225 0-1.124.902-.674-.45 1.349-.676 3.149-1.578 4.948.226.225.676 0 .451.9-1.127-.675-.676.9-1.352.225.676.675 0 2.024-1.127 2.249.676-1.125-1.127-.45-.676-1.35-1.127.225.45 1.575 1.352 1.575-.225.9-1.578.225-1.352-.45-.902.45.225 1.125 0 1.575.676.449-.677.225-.226-.45-.676.225-.676.899-1.352.899s-.902-.449-1.352-.449c-.226-.675.901-.45.676-1.125-.676.45-1.127.45-2.48 0 .677-.45.226-.45.902-1.125-.676.45-.45-.45-1.352-.45.901.9-.226 1.125.676 1.8-.45.9-.902-.9-1.127 0-.676 0 0-.9 0-1.35-.45 0-.902-.225-1.127.225 1.352.225-.45.225 0 1.575-.676 0-1.803-1.35-.676-1.35 0-.225-.45-.225-.45-.45 0 .225-.677 1.125-1.353 1.575-.451-.225-.226-.675-.451-1.125 1.127 0 1.127-.45.902-1.124-.677 1.124-1.353.449-2.48 1.574-.676-.675-1.577-1.574-.225-1.799 0-.225-.45 0-.902 0 .451-.225-.225-1.125.677-.675 0-.45-.677-.45-.902 0 .45-.9 0-2.025.902-3.149-.902 0 .45-1.575 0-2.924-1.578 2.024-.677 4.048-2.254 6.523-.226 0-.226-.45-.451-.45v-.45c2.028.45 1.352-3.599 2.254-5.623h-.226c.226 0 .226-.225.226-.45 0-.45.676-1.8.45-2.25 0-.224.226-1.799.226-1.799-.225-.675 0-.675 0-1.125 0-.45.225-3.149.45-3.599 0-.225.226-1.124.452-2.024 1.803-3.599 1.126-13.946 2.253-15.745.451-.9.226.675 0-.45-.225-1.125.902-3.599.902-4.499-.676-1.124.676-2.924.901-4.049.226-1.124-.45-2.249-.225-2.924 0-.225.902-.45.902-.674.225-.45-.902-1.575-.226-2.025.902-.9.226.675 0-.45-.45-2.024.902-3.823 1.127-5.848.45-3.149.676-7.198 1.578-11.022.45-.45.901.45 1.127-.224-.226-.9-.902.224-1.127-.225 0-.675 1.803-.675.901-1.125 0 .225-.225.225-.45.45-.226-4.049 1.127-8.323 2.028-11.697 0 .225 0 .45.225.45.226-.675-.676-.675-.676-1.124 2.029-7.873 3.606-14.396 4.733-20.244.226.9 1.353.225.902-.225 0 .225-.225.45-.45.45.224-1.8.45-4.274 1.351-6.973.677-2.924 1.803-6.073 2.93-9.672h-.225c.902-1.125 1.578-3.15 2.254-4.724.676-1.574 1.578-3.149 1.803-3.374.45-.45.901-1.35 1.352-2.25Z" fill="#FFCA42"/><path opacity=".75" fill-rule="evenodd" clip-rule="evenodd" d="M44.4 0c3.382 2.474 6.762 4.949 9.016 7.198-.225 0 0 .225 0 .45 1.353.674 2.029 1.574 2.93 2.699-.225 1.35-1.803 1.574-2.704 2.474-1.578 1.575-3.381 4.049-4.959 6.523-1.803 2.474-3.38 5.174-4.958 7.423-1.353-.9-.226 2.474-2.029 1.8.226 1.349-1.352 1.799-2.028 2.474 0 0 .45 1.35-.451.45-.225.224.45.674 0 .9-2.48 1.124-2.254 2.923-4.057 4.048 0 .225.225.225.225.225-.676.675-1.803 1.8-2.253 3.149-1.127.675-2.254 2.25-3.381 3.599-1.127 1.574-2.48 2.924-4.057 3.599v1.35c-2.029 1.124-3.606 4.498-6.536 6.073 0 1.574-2.029 1.799-2.48 2.924-.225-.225 0-.225-.225-.45-.225.9-1.352.675-.901 1.35-.451-.226-.902-.45-1.127 0 .45.45.225-.45.901.224-.676 0-1.352.675-2.704.9 0 .225.676.45 0 .675-.677-1.125-.677 0-1.127-.9.45.9-.451.9-1.353.225.677 0-.901-.9 0-1.125-.901-.674-.225 1.125.451 1.8-.45.225-1.127-.675-.676-.9-.902-.45-.225.675-.45.675.45.675-.452-.45 0-.45-.452-.45-.677 0-1.353-.675-.45-.45-.45-.675-.902-1.124.226-.45.676.45.902 0-.676-.225-.902-.45-1.803-1.575.676.225.225 0 .901.225-.676-.225-.225-.675-.901-1.125.45 1.125-.451.45 0 1.125-.451.225-.451-.9-.676-.675-.451-.45.225-.45.225-.675-.225-.225-.676-.674-.902-.674.902.9-.225-.225-.45.674-.451-.45-.902-1.8 0-1.124 0-.225-.226-.45-.226-.45-.225 0-.676 0-1.352-.225-.225-.45 0-.45 0-.675.902.9.902.45.902.225-.677 0-1.127-.675-2.254-.9-.451-.9-.676-1.8.225-1.124 0-.225-.225-.225-.676-.45.45.225 0-.675.676.225.225-.225-.225-.675-.676-.45.676 0 .45-.9 1.578-.675-.677-.675.901-.45.901-1.125-1.803-.224-1.578 1.35-3.38 1.575-.226-.225 0-.225-.226-.45l.225-.225c.451.675 1.127-1.35 2.48-1.574v-.225h.225c.225-.225.902-.225.902-.675 0-.225.676-.675.676-.675 0-.45.225-.225.225-.45s.902-1.124 1.352-1.35c0 0 .451-.45.902-.674 2.254-.675 4.508-5.398 5.635-5.623.676 0 0 .45.225-.225 0-.675 1.578-1.125 1.803-1.575-.225-.9 1.127-.9 1.578-1.35.45-.45.225-1.35.45-1.574.226 0 .677.225.902.225.225-.225-.45-1.125.225-1.125.902 0 0 .45.226-.225.225-1.124 1.352-1.35 2.254-2.249 1.127-1.35 2.028-3.149 3.38-4.499.451 0 .677.675.902.45 0-.675-.676-.45-.676-.675 0-.45 1.578.675 1.127 0h-.451c.45-2.024 2.254-3.598 3.606-4.948 0 0-.225.225 0 .45.226-.225-.45-.675-.225-.9 2.93-3.149 4.958-5.848 6.761-8.322.226.674 1.127.9.902.225 0 0-.226.225-.45 0 .675-1.8 2.704-4.274 4.957-7.423l-.225-.225c.676-.9 2.93-2.924 3.38-3.15.226 0 .677-.224 1.128-.674Z" fill="#FFCA42"/></svg>