<svg width="111" height="129" fill="none" xmlns="http://www.w3.org/2000/svg"><path opacity=".75" fill-rule="evenodd" clip-rule="evenodd" d="M17.635 16.324c0-4.148-.231-8.526.23-11.752.232 0 .232-.23.463-.23-.231-1.614 0-2.535.23-4.148 1.386-.692 2.771.69 4.157.69 5.08.692 13.853-.23 19.857-.23.23 1.613 2.309-1.382 3.001.692.924-.922 2.54 0 3.464 0 0 0 .923-1.152.693 0 .461 0 .461-.922.923-.461 2.54 1.382 4.156 0 6.234.691.231 0 0-.23 0-.23 1.155.23 2.771.23 4.157-.23 1.385.46 3.232.23 5.31.23 2.078-.23 4.156-.23 5.772.46.462-.23.693-.69.924-.921 2.31.922 6.003-.691 9.467.23.924-1.152 2.77.23 4.156-.691v.46c.693-.46 1.385.231 1.616-.46.231.23.462.922.924.691 0-.691-.462.23-.462-.691.693.23 1.847 0 3.002.691 0-.23-.231-.691.462-.691-.231 1.152.461.46.461 1.383.231-.922 1.155-.461 1.386.69-.693-.46 0 1.383-.693.923.462.921.693-.692.462-1.844.462.23.462 1.613 0 1.383.462.921.462-.461.923-.461 0-.922.231.691-.23.23.23.692.692.461.923 1.383.231.691 0 .922 0 1.383-.462.23-.462-.692-.693-.461.462.46.462.921.693 2.304-.462-.691-.462 0-.924-.691.462.46-.23.691 0 1.382.231-1.152.693 0 .924-.921.693.23-.23 1.152.231 1.152.23.691-.462.23-.693.46 0 .461.231 1.153.462 1.153-.23-1.383.231.23.924-.461.23.691-.231 2.074-.693.922-.23 0 0 .46-.23.69.23 0 .692.462 1.154.923 0 .46-.462.46-.462.69-.231-1.151-.693-1.151-.924-.69.693.23.462 1.152 1.617 2.074-.231.921-.693 1.843-.924.69-.231.231.23.231.23.922-.23-.46-.692.692-.461-.46-.23.23-.23.691.23.921-.692-.23-1.154.461-2.077-.23.23.922-1.155-.23-1.847.46 1.616 1.153 2.54-.23 4.618.692 0 .23-.231.23-.231.691h-.231c0-.921-2.31.461-3.695 0v.23c0-.23-.23-.23-.23-.23-.462 0-1.155-.23-1.386 0l-1.154.23c-.462.462-.462 0-.693.231-.23 0-.693.23-1.154.23h-2.54c-2.54-1.151-8.774 1.383-9.929.462-.693-.461.462-.461-.23 0-.694.46-2.31-.23-2.772-.23-.692.69-1.847-.231-2.54-.231-.692 0-1.385.922-1.847.691-.23 0-.23-.691-.461-.922-.231 0-.924 1.152-1.155.461-.693-.691.462-.46-.23 0-1.155.692-2.31-.23-3.695-.23-1.847 0-4.387.46-6.927.23-.23-.46.23-.922-.23-1.152-.463.46.23.691 0 1.152-.463.23-.463-1.613-.694-.922.231 0 .231.23.231.23-2.309.923-5.08.462-7.157 0 0 0 .23 0 .23-.23-.461-.23-.461.692-.692.922-4.85-.46-9.005-.691-12.469-.46.462-.462 0-1.383-.23-.922 0 0 .23 0 .23.23-2.078.691-5.772.46-10.16.23v.23c-1.616 0-4.848-.46-5.31-.92-.23-.231-.923-.462-1.616-.692Z" fill="#FFCA42"/><path opacity=".75" fill-rule="evenodd" clip-rule="evenodd" d="M88.982.424c1.616 3.917 3.002 8.065 3.694 11.291-.23 0-.23.23-.23.46.692 1.383.923 2.305 1.154 3.918-.924 1.152-2.54.461-3.925.692-1.155.46-2.54.921-3.925 1.613a42.92 42.92 0 0 0-4.388 2.534c-3.001 1.844-6.003 3.918-8.312 5.53-1.154-1.382-1.154 2.305-2.77 1.153-.231 1.382-2.079 1.382-3.002 1.843 0 0 0 1.383-.462.461-.462.23.23.922-.462.922-2.77.46-3.463 2.535-5.541 3.226 0 .23 0 .23.23.23-1.154.461-2.54 1.613-3.232 2.766-1.385.46-3.002 1.843-4.618 3.226-1.616 1.382-3.463 2.765-5.08 3.226-.23.46-.23.921-.23 1.382-2.54.922-4.85 4.379-8.313 5.761-.23 1.613-2.54 1.613-3.233 2.996-.23-.23 0-.23-.23-.461-.462.922-1.386.691-1.155 1.382-.462-.23-.923-.46-1.154 0 .462.461.462-.46.923.23-.923.231-1.847 1.153-3.001 1.153 0 .23.692.46 0 .691-.462-1.152-.693 0-1.155-.921.231.921-.693.921-1.616.23.923 0-.693-1.152 0-1.152-.924-.691-.231 1.152.462 1.843-.462.23-1.155-.921-.693-1.152-.924-.46-.231.691-.462.922.462.691-.462-.461 0-.461-.462-.46-.923 0-1.385-.691-.462-.461-.462-.692-.693-1.152.231-.461.693.46.924 0-.693-.23-.924-.461-1.848-1.613.693.23.462 0 1.155.23-.693-.23-.23-.691-.693-1.152.462 1.152-.692.46-.23 1.382-.693.23-.462-1.152-.693-.69-.462-.462.462-.462.462-.692-.231-.23-.693-.922-.924-.691.924 1.152-.231-.23-.462.921-.462-.46-.924-2.074 0-1.152 0-.23-.23-.46-.23-.691-.232 0-.924 0-1.617-.23-.231-.462 0-.692.23-.922.924.921 1.155.46 1.155.23-.923.23-1.154-.691-2.309-.922-.23-.921-.461-2.074.462-1.152 0-.23-.23-.23-.462-.691.462.23.231-.922.693.23.23-.23-.23-.691-.462-.691.693 0 .693-1.152 1.847-.922-.692-.691.924-.46 1.155-1.382-1.847-.23-2.078 1.613-4.156 1.843-.231-.23 0-.23-.231-.691l.23-.23c.463.921 1.617-1.614 3.002-1.844v-.23h.231c.231-.23 1.155-.461 1.386-.692 0-.23.923-.691.923-.691.231-.46.231-.23.462-.46.231-.231 1.386-1.384 1.616-1.384 0 0 .693-.46 1.155-.69 2.77-.692 6.696-6.222 8.081-6.222.693 0 0 .69.231-.231.231-.691 2.078-1.152 2.54-1.613 0-.922 1.616-.922 2.309-1.383.462-.46.693-1.382 1.154-1.613.231 0 .693.461.924.461.23-.23 0-1.382.693-1.152.923.23 0 .461.23-.23.462-1.152 2.079-1.152 3.233-2.074 1.617-1.152 3.464-2.996 5.773-4.378.461 0 .461.921.692.69.231-.69-.692-.46-.462-.92.231-.462 1.386.92 1.155.23h-.462c1.386-2.305 4.156-3.457 6.234-4.379 0 0-.23.23 0 .461.462-.23 0-.921.231-1.152 4.618-2.535 8.313-4.839 11.545-6.913-.23.691.693 1.383.693.46-.231 0-.231.231-.462 0 1.616-1.612 5.31-3.686 9.929-5.53v-.23c.692-.46 2.078-.922 3.232-1.152 1.155-.23 2.31-.46 2.54-.46-1.385-.692-.693-.692 0-.692Z" fill="#FFCA42"/><path opacity=".75" fill-rule="evenodd" clip-rule="evenodd" d="M26.87 60.106c-3.232-2.995-6.695-5.53-8.08-8.756.692-.461.461-.692.923-.922-1.617-.691-1.847-1.613-2.31-3.456l1.386-1.383c.462-.461.924-.691 1.616-1.152 1.155-.692 2.31-1.383 3.464-1.844l3.463-1.382c1.155-.461 2.31-.692 3.464-1.152 4.156-1.383 9.005-2.766 14.546-3.687 5.311-.922 11.314-1.153 17.318-.692 6.003.461 12.006 1.613 17.779 3.687 5.772 1.844 10.852 4.84 15.239 8.296 0 .46.23.922.923 1.613.693.46 1.617 1.152 2.54 1.843.924.692 1.847 1.613 2.771 2.535.693.922 1.155 1.843 1.155 2.765.692.461 1.385 1.383 2.078 2.305.231.46.692.921.923 1.613.231.46.462 1.152.693 1.843.923 2.304 1.385 5.07 2.078 6.683 0 .23 1.847 3.226.462 2.534.231 1.613 1.154 1.152.923 3.457 0 2.535-.461 4.839-.692 6.913-.231.922-.231 2.074-.462 2.995-.231.922-.231 1.844-.462 2.766-.693 3.686-1.847 6.682-3.694 10.139-.231.46.231.23.231 0-1.617 3.687-5.08 8.987-7.85 12.673-.924.922-1.848 1.844-3.002 2.766-.462.46-1.155.921-1.848 1.613-.692.461-1.385.921-1.847 1.613-2.77 2.304-6.003 4.147-9.236 5.991-6.927 3.456-14.546 5.069-20.088 4.839-1.385.23-2.309.691-3.463.922-4.156-.231-9.698-.461-15.47-1.613-5.773-1.152-11.776-3.226-16.856-6.452-1.154-.231-2.078-.692-3.232-1.383-.462-.23-1.155-.691-1.617-.922-.461-.461-1.154-.691-1.616-1.152-1.154-.691-2.078-1.613-3.232-2.535-.924-.921-2.079-1.613-3.002-2.304.23-.23.462 0 .693-.23-1.155-.922-2.079-1.844-2.771-2.535-.693-.922-1.155-1.383-1.847-1.383-.231-.921-.231-1.613-1.386-2.765-.462.461 1.386 1.613.462 1.613-.693-1.152-1.847-2.535-2.77-4.148-.924-1.613-1.848-3.226-2.54-5.07-.462-.23-.462.692-1.386-1.382 1.616.461-.462-1.843.924-1.152C.779 93.98.317 91.214 1.01 90.062c.462 2.305 1.386 0 1.847 2.074.693-1.152-1.847-2.304-2.77-2.074-.462-1.843 1.154-1.382 1.616.23.462-1.382-.924-1.843-1.386-2.764-.923-.23.462-.692.462.69.462-.69 0-1.843.693-2.303.693-.23.924.23 1.616.23.693 1.152-.462 1.152.231 2.304.231-.921.462-1.382 2.078-1.613-.462.922.231 1.153 0 2.305.231-1.153.924.46 1.616 0-1.616-.692-.692-2.074-1.847-2.535-.23-1.613 1.386.922.924-.461.462-.23.693 1.613.923 2.074.462-.23.924-.23.924-.922-1.385.461.231-.46-1.154-2.535.692-.46 2.54 1.153 1.616 1.844.23.46.462 0 .693.46-.231-.46-.231-1.843.23-2.995.462.23.693.922 1.155 1.383-1.155.691-.693 1.382 0 2.074-.231-.922 0-1.153.23-1.613.232-.461.463-.922.693-2.074 1.155.46 2.31 1.382 1.386 2.304.23.46.23-.23.693-.46-.231.69 1.154 1.382 0 1.151.461.692.923.23.692-.46.231 1.612 1.617 2.534 1.617 4.378.461-.23.692.23.923 1.152l.693 1.382c.23.461.692.692.923 1.153 0-.461-.23-.692-.461-1.153-.231-.46-.231-.69-.462-1.152-.231-.691-.693-1.382-1.155-2.074-.461-.69-.692-1.382-1.154-2.304l-.693-2.765c.231 0 .462.46.693.23l.23.461c-.23 0-.23.23 0 .691.232.461.463 1.153.924 1.844.462.691.924 1.613 1.386 2.304.461.692.923 1.613 1.154 2.305h.231c0 .23 0 .46.231.69.23.231.462.923.924 1.383.461.461.692.922.923 1.153.231 0 .462.46.924.921l.923.922c.924.46.693.691 1.155.922.23.23 1.154.921 2.078 1.613.924.691 1.847 1.382 2.078 1.613 0 0 .462.23.924.691.461.231 1.154.691 1.616 1.152.462.461 1.385.922 2.078 1.613l1.385.692c.462.23.924.461 1.617.691 2.078.922 4.617 1.613 7.157 2.074 4.85.922 9.467.922 10.852 1.382 1.617.461-1.154.461.693 0 .924-.23 2.31-.23 3.464 0h3.232c.693-.46 1.847-.691 3.002-.691 1.154 0 2.309-.23 3.232-.461.693-.23 1.617-.691 2.079-1.152.692-.461 1.154-.691 1.616-.922.23 0 .923.461 1.385.231.693-.231 1.386-1.844 2.31-1.844 1.615 0-.694.692.692-.23.462-.461.923-.922 1.616-1.383.231-.23.693-.461.924-.461.23-.23.462-.46.923-.46.693-.461 1.155-.692 1.847-1.153.462-.46 1.155-.921 1.848-1.382 3.232-3.226 6.003-8.296 8.081-13.826.693-.691.924.691 1.155 0 0-1.383-.924.23-.924-.461 0-.922 1.847-.691 1.154-1.383 0 .23-.23.23-.461.692 0-.692.23-1.383.23-2.074 0-.691 0-1.383.231-2.074l.231-1.152v-2.996c0-2.535-.461-5.07-1.154-7.374.23.23.23.461.462.461-.231-.922-.924-.46-1.386-.922-.923-2.304-2.309-4.378-4.156-6.221-1.616-1.844-3.694-3.457-5.772-4.609-4.156-2.535-8.774-4.148-13.161-5.07 1.154-.23.23-1.382-.693-.921.23.23.693.23.693.46-2.771-.23-6.466-.69-10.853-.69s-9.697.23-15.008 1.612v.23c-1.847.692-4.849 1.384-7.158 2.305-2.54.922-4.387 1.844-5.08 2.074-.461.23-.923.23-1.385.691.231.23-.462.461-.923.922Z" fill="#FFCA42"/></svg>