<svg width="93" height="128" fill="none" xmlns="http://www.w3.org/2000/svg"><g clip-path="url(#a)"><path opacity=".75" fill-rule="evenodd" clip-rule="evenodd" d="M32.339 7.804c2.959 2.336 6.13 4.885 8.243 7.008-.212 0 0 .213 0 .425 1.057.85 1.69 1.487 2.748 2.549.21 1.062-1.057.85-1.691 1.486-.423.638-.846 1.275-1.269 2.124-.422.85-.845 1.912-1.056 2.973-.212 1.062-.635 2.124-.846 3.186-.211 1.062-.423 2.124-.634 2.973-1.48-.212.845 1.7-1.057 1.7.846.849-.422 1.698-.634 2.335 0 0 .846.85-.211.425 0 .212.634.425.422.637-1.479 1.487-.634 2.761-1.479 4.248 0 .212.211 0 .211 0-.211.85-.634 1.911-.422 2.973-1.057 1.699-.635 5.734-2.114 7.858.211.212.423.637.634.85-1.057 1.486-.423 4.46-1.902 6.795.845 1.062-.634 2.124-.212 3.186-.21 0-.21-.212-.422-.212.211.637-.634 1.061 0 1.274-.423.212-.846.212-.846.425.634.212 0-.425.846-.213-.423.425-.423 1.274-1.48 2.124.212.212.634 0 .423.425-1.057-.425-.423.212-1.268 0 .634.424 0 .85-.846.85.423-.426-1.056-.213-.634-.638-1.057 0 .423.85 1.268.85-.211.424-1.48 0-1.268-.425-.845 0 .212.425.212.637.634.212-.634 0-.212-.212-.634 0-.634.212-1.268.212s-.845-.212-1.268-.425c-.211-.425.634 0 .634-.425-.634 0-1.057 0-2.325-.212.634 0 .211-.212.845-.425-.634.213-.422-.212-1.268-.424.846.424 0 .424.634.85-.211.424-.845-.426-1.057-.213-.634 0 0-.425-.21-.637-.424 0-.846-.213-1.058 0 1.268.212-.422 0 .212.637-.634 0-1.903-.85-.634-.637 0-.213-.423-.213-.423-.213 0 .213-.634.425-1.057.425-.423-.212-.211-.425-.423-.637 1.057.212 1.057 0 .846-.425-.423.425-1.057 0-2.114.425-.634-.425-1.48-.85-.423-.85 0-.212-.422 0-.845-.212.423 0-.423-.637.634-.212 0-.213-.634-.425-.845-.213.422-.425 0-.85.634-1.274-.846-.212.422-.637 0-1.274-1.268.637-.423 1.699-1.691 2.548-.212 0-.212-.212-.423-.212v-.213c.846.213 0-1.486.846-2.123h-.212c.212 0 .212 0 .212-.213 0-.212.634-.637.422-.85v-.849c-.211-.212 0-.212 0-.424 0-.213 0-1.275.212-1.487 0 0 .21-.425.21-.85 1.48-1.486.424-6.158 1.27-6.796.422-.424.422.425 0-.212-.212-.637.633-1.486.633-1.911-.634-.637.423-1.274.634-1.7.212-.424-.422-1.061-.211-1.273 0 0 .845 0 .845-.213 0-.212-.845-.85-.422-1.062.845-.212.211.425 0-.212-.423-.85.634-1.7.634-2.549.211-1.486.211-3.185.845-4.884.423-.213.846.212 1.057 0-.211-.425-.634 0-1.057-.213-.211-.424 1.48 0 .846-.424 0 0-.212 0-.212.212a6.089 6.089 0 0 1 0-2.76c.212-.85.634-1.7.846-2.55 0 0 0 .213.211.213.211-.212-.634-.425-.634-.637.634-1.7 1.268-3.398 1.69-4.885.635-1.486.846-2.973 1.27-4.247.21.425 1.267.425.845 0 0 0 0 .212-.423.212 0-.85.423-2.124.845-3.398.212-.637.634-1.486 1.057-2.124.423-.85.634-1.486 1.268-2.336h-.211c.211-.637.845-1.486 1.48-2.336 1.479-.212 2.113-.85 2.325-.85.422-.212.845-.424 1.268-.849Z" fill="#FFCA42"/><path opacity=".75" fill-rule="evenodd" clip-rule="evenodd" d="M25.998 67.057c-2.114-3.398-4.439-6.584-5.073-9.557.634-.212.423-.425.845-.637-1.268-1.062-1.268-1.912-1.268-3.61 3.17-2.124 7.398-2.337 10.78-2.974 6.34-1.487 15.007-2.76 24.307-2.548 4.65.212 9.511.637 14.161 1.911s9.3 3.186 13.105 6.159c0 .425.21.85.845 1.274.211.212.634.425 1.057.85.422.212.845.637 1.268 1.062.423.424.846.637 1.268 1.061.423.425.634.85 1.057 1.275.634.85 1.057 1.699.846 2.548.633.637 1.056 1.274 1.69 2.124.423.85.846 1.911 1.057 3.185.212 1.062.423 2.124.423 3.186.211 1.062 0 1.911.211 2.76 0 .213.423.85.423 1.488.211.637.211 1.061-.423.637 0 1.274.846 1.062.423 2.973-1.057 3.823-1.69 6.796-2.325 9.557a26.829 26.829 0 0 0-.634 2.123c-.212.425-.211.638-.423 1.062l-.422 1.062c-.635 1.487-1.48 2.761-2.537 4.035-.211-.212 0-.212.212-.424-1.057 1.486-2.325 2.973-3.594 4.672-.634.849-1.268 1.487-1.902 2.336-.634.85-1.268 1.487-1.902 2.124-2.748 2.123-6.975 5.734-11.625 8.707-4.65 2.973-9.934 5.522-13.739 6.371-.845.637-1.48 1.062-2.325 1.699-3.17.637-6.975 1.912-11.625 2.761-4.438.85-9.511 1.274-14.373.213-.845.212-1.902.212-2.959 0-1.057-.213-2.113-.425-3.17-.85s-2.114-.637-3.17-1.274l-3.171-1.274c.211-.213.423 0 .634-.213-1.268-.425-2.325-1.062-2.96-1.699-.845-.637-1.267-1.062-1.901-1.062-.212-.424-.212-.637-.423-1.062-.211-.424-.423-.849-1.057-1.274-.423.425 1.48 1.062.634 1.487-.423-.425-.845-1.062-1.48-1.487-.422-.637-1.056-1.062-1.479-1.699-.423-.637-1.057-1.274-1.48-2.124-.422-.637-.845-1.486-1.056-2.336-.423-.212-.423.637-1.268-1.062.845.213.634-.212.422-.637-.211-.424-.211-.849.423-.637-1.057-.637-1.902-2.973-1.057-3.823 0 .85.423.85.846.85.211 0 .634 0 .845.849.211-.637 0-1.061-.634-1.274-.423-.425-1.268-.425-1.69-.425-.212-1.486 1.056-1.274 1.479 0 .422-1.061-.846-1.486-1.057-2.336-.846-.212.423-.424.423.638.422-.425 0-1.487.634-1.912 0 .213.211.85.845.637.423.85-.423.85.211 1.912.212-.85.635-1.275 1.903-1.275-.423.85.211.85-.212 1.912.212-.425.212-.425.423-.213.211.213.634.425.846.213-1.269-.637-.635-1.699-1.48-2.124-.211-1.274 1.268.637.845-.425.423-.212.635 1.062.846 1.699.423-.212.845-.425.845-.849-1.268.424.212-.213-.845-1.912.634-.424 2.325.638 1.268 1.275.211.212.423 0 .634.212 0-.425 0-1.487.212-2.336.422 0 .634.637.845 1.062-1.057.637-.634 1.062-.211 1.699-.212-1.487.845-1.062 1.056-2.973 1.057.424 2.114.849 1.057 1.699.423.637.423 0 .846 0-.212.424.845.849-.212.849.423.425.846.212.846-.425 0 .637.422 1.062.634 1.487.211.425.634.849.634 1.486.423-.212.423.213.846.638.21.424.634 1.274 1.268 1.274-.212-.425-.423-1.062-.634-1.487-.212-.425-.634-.849-.846-1.274-.211-.425-.634-.849-.845-1.487-.212-.637-.423-1.274-.423-1.911.211 0 .423.212.634.212v.638c-.211 0-.211.212-.211.637.211.212.422.849.634 1.274.423 0 .634.212.634.425.211.212.423.424.423.637.422.425.634.849.845 1.274h.211c0 .212 0 .212.212.425.211.212.422.424.634.849.211.425.634.637.634.637s.423.213.634.425a2.6 2.6 0 0 1 .634.425c.634 0 .634.212.845.212.212 0 .846.213 1.691.425.634.212 1.48.425 1.691.637 0 0 .212.212.635.212.422 0 .845.213 1.479.213.423.212 1.057.425 1.902.425.423 0 .634.212 1.057.212h1.268c1.691 0 3.805-.212 5.707-.637 3.805-.637 7.398-2.124 8.455-2.124 1.268 0-.634.637.634-.212.634-.425 1.69-.637 2.748-1.062 1.056-.213 2.113-.637 2.747-.85.846-1.062 3.382-1.274 4.861-1.911 1.269-.637 2.114-1.911 2.96-2.124.211 0 .845.213 1.268.213.634-.213.845-1.699 1.902-1.699 1.48-.213-.423.849.423-.425.845-.85 1.902-1.487 2.747-2.124 1.057-.637 2.114-1.274 3.171-2.124.634-.637 1.48-1.274 2.114-2.123.634-.85 1.48-1.487 2.113-2.549l1.903-2.548c.422-.85 1.056-1.7 1.48-2.549.633-.425.844.425 1.056.213 0-.85-.845 0-.845-.425 0-.637 1.69-.425 1.056-1.062 0 .212-.211.212-.422.425.21-1.062.422-2.337.634-3.398 0-.638.211-1.062.422-1.7 0-.636.212-1.061.212-1.698.211-2.124.422-4.035 0-5.522 0 .212 0 .425.422.425 0-.637-.845-.425-.845-.637-.423-1.487-1.057-2.974-2.114-4.036-1.056-1.274-2.325-2.123-4.016-2.973-.634-.425-1.69-.85-2.325-1.062-.845-.212-1.69-.637-2.536-.85l-2.536-.636c-.423 0-.846-.213-1.269-.213-.422 0-.845 0-1.268-.212 1.057-.212.212-1.274-.422-.85.211 0 .634 0 .634.425-2.114 0-5.073-.212-8.666 0-3.593 0-7.82.425-12.26 1.275v.212c-1.479.212-4.015.85-6.129 1.274-2.113.425-4.016.85-4.438 1.062-1.057-.212-2.325 0-3.382.425ZM32.761 20.122c.423-3.823.846-7.858 1.691-10.831.212 0 .212-.213.212-.213 0-1.274.211-2.336.634-3.822.845-.637 1.48.637 2.325.85.845.424 1.69.424 2.748.424 1.056 0 2.113-.212 3.17-.425 1.057-.212 2.114-.425 3.382-.637 1.057-.212 2.113-.425 2.959-.637.422 1.487 1.268-1.487 2.114.212.422-1.062 1.69-.212 2.325-.424 0 0 .422-1.062.422 0 .212 0 0-.85.423-.638 1.902.85 2.748-.637 4.439-.424v-.213c.845 0 2.113-.212 2.747-.85 1.057.213 2.537-.212 4.016-.636 1.48-.425 3.17-.637 4.439-.213.211-.212.422-.637.634-.85 1.057.213 2.114 0 3.382-.212 1.268-.212 2.748-.424 4.016 0 .845-1.061 2.325.213 3.382-.424v.424c.634-.424 1.268.425 1.479-.212.211.425.211.85.634.637 0-.637-.423.213-.423-.85.423.213.635.213 1.057.425.423.213.846.213 1.268.638.212-.213 0-.638.423-.425-.211 1.062.423.425.212 1.274.21-.85.845-.212 1.056.85-.423-.425-.211 1.274-.634.85.211 1.06.634-.638.634-1.488.423.213.212 1.487-.211 1.275.211.85.423-.425.634-.213.211-.85 0 .637-.211.213 0 .637.422.637.422 1.274s-.211.85-.211 1.274c-.211.213-.211-.637-.423-.425.212.638.212.85 0 2.337-.211-.638-.211-.213-.422-.85.21.637-.212.637-.212 1.274.423-1.062.423 0 .846-.637.422.213-.423.85 0 1.062 0 .637-.423 0-.634.212v1.062c0-1.274 0 .425.634-.212 0 .637-.634 1.911-.634.85 0 0 0 .424-.212.424.211 0 .423.425.634 1.062 0 .425-.211.425-.422.425 0-1.062-.212-1.062-.423-.85.422.425.211 1.062.634 2.124-.212.85-.634 1.699-.634.425-.211.212 0 .425 0 .85 0-.425-.423.424-.211-.425-.212-.425-.212.212 0 .212-.423-.425-.846.212-1.269-.637 0 .85-.634-.213-1.056.212.845 1.274 1.479.213 2.536 1.274 0 .213-.211.213-.211.425h-.212c.212-.85-1.268.213-2.114-.637v.212c0-.212 0-.212-.21-.212-.212 0-.635-.425-.846-.212h-.635c-.21.212-.21 0-.422.212s-1.057.212-1.268 0h-.846c-.845-.637-2.113-.212-3.382 0-1.268.425-2.325.85-2.747.425-.423-.425.211-.425-.212 0-.422.425-1.48-.213-1.902 0-.211.85-1.268 0-1.69 0-.424 0-.846.85-1.058.637l-.422-.637c-.212 0-.423 1.062-.635.637-.634-.637.212-.425-.21 0-.635.637-1.692 0-2.537.212-1.269.213-2.96 1.062-4.65 1.062-.212-.212-.212-.85-.423-1.062-.211.425.211.637.211 1.062-.211.212-.634-1.486-.634-.637l.212.212c-1.48 1.275-3.382 1.062-5.073 1.275 0 0 .211 0 .211-.213-.422 0-.211.637-.422.85-3.594.212-6.553.637-9.3 1.062.21-.425-.212-1.275-.212-.85 0 0 .212 0 .212.213-1.48.849-4.44 1.061-8.032.849v.212c-.634 0-1.691 0-2.537-.212-.845-.212-1.69-.425-1.69-.637.21.637-.212.212-.635 0Z" fill="#FFCA42"/></g><defs><clipPath id="a"><path fill="#fff" transform="translate(0 .159)" d="M0 0h93v127H0z"/></clipPath></defs></svg>