<svg width="158" height="9" fill="none" xmlns="http://www.w3.org/2000/svg"><path opacity=".75" d="M1.718 5.394C.602 5.897-.832 6.61.602 7.088c1.435.503 3.666 1.244 4.834 1.482 1.169.265 2.338-.397 2.922-.609.637-.212 1.169-1.112 1.647-1.244.478-.132 1.115-.423 1.593-.556.478-.132 2.39-1.059 3.613-1.323 1.221-.265 2.656-.53 4.727-.477 2.125.053 3.4.636 4.728 1.27 1.275.636 5.26 1.88 6.853 2.383 1.593.503 5.63 1.138 7.012.953 1.38-.185 3.612-1.191 5.471-1.588 1.86-.397 3.772-1.032 5.312-1.297 1.54-.265 3.878-.635 4.781-.688.903-.053 2.762-.371 3.506.026.69.397 4.197 1.641 6.268 2.144 2.072.503 4.197.424 5.897.08 1.7-.318 3.08-.662 3.559-.874.478-.212 1.275-.635 2.23-1.059.957-.423 3.507-1.562 5.047-1.588 1.54-.026 2.231.132 3.294.397 1.01.265 3.4.847 3.984.874.584.026 1.806-.106 2.443-.239.638-.132 3.613-1.111 3.613-1.111s1.7-.397 2.496-.689c.797-.29 1.116-.582 1.913-.635.743-.053 1.38-.106 1.38-.106s4.622 1.933 7.438 2.62c2.815.689 4.887 1.033 5.949 1.086 1.063.027 3.666-.053 5.047-.238 1.381-.185 4.302-.477 5.949-.424 1.647.053 5.1.291 5.684.45.584.16 5.047.82 6.428.927 1.328.106 6.799.185 7.862.212 1.062.026 5.577.079 6.055.105.478 0 3.559.715 5.206.821 1.647.132 2.391.08 2.603-.291.213-.37-.212-.688-1.115-.794-.903-.106-2.816-.689-4.303-1.033-1.488-.344-2.497-.53-4.622-.661-2.125-.133-5.365-.768-7.968-.742-2.603 0-4.728.106-6.959-.132-2.231-.212-3.559-.556-6.693-.953-3.134-.397-6.003-.476-8.605-.238-2.603.238-5.366.609-7.065.715-1.7.105-3.56-.556-5.313-1.218-1.753-.662-3.559-1.906-5.79-2.435-2.23-.503-4.303-.583-6.215.132s-5.046 1.668-6.109 1.932c-1.115.265-2.496.45-3.93.027-1.435-.424-3.772-1.535-5.95-1.085-2.178.476-5.95 1.8-7.862 2.647-1.912.847-5.63 1.588-7.118 1.164-1.488-.423-4.038-1.694-6.428-2.144-2.39-.45-5.843-.397-8.021-.159-2.125.239-6.056 1.35-8.075 1.88-2.018.556-5.949 1.64-7.436 1.376-1.488-.264-3.772-1.403-5.1-1.88-1.328-.502-5.1-1.958-7.596-2.329-2.55-.37-6.003-.555-10.093.636-4.037 1.244-7.862 2.806-7.862 2.806Z" fill="#E3EBFE"/></svg>