<svg width="212" height="171" fill="none" xmlns="http://www.w3.org/2000/svg"><g clip-path="url(#a)"><path opacity=".75" d="M167.187 55.13c-.061-.48-.017-1.805 1.156-2.088 1.195-.236 3.318-1.147 4.012-1.596.649-.426 13.784-8.01 14.987-8.704 1.203-.694 7.816-4.451 8.396-4.901.626-.473 1.256-1.173 2.102-1.071.824.055 1.297.564 1.565 1.001.222.46 1.107.996 1.491 1.32.362.279 1.194 1.294 1.297 1.98.104.688.004 1.189-.264 2.168-.243.91-.045 1.439-.332 2.144-.286.704-.857.583-1.389.896-.532.314-1.337.532-1.984.844-.646.312-10.237 5.45-12.251 6.705-1.967 1.233-5.974 3.903-7.433 4.89-1.459.987-3.148 1.972-4.005 2.556-.857.583-1.902 1.484-3.018 1.06-1.116-.425-2.785-3.53-3.315-4.747a69.55 69.55 0 0 1-1.015-2.457Z" fill="#FFC327"/></g><g clip-path="url(#b)"><path opacity=".75" d="M128.962 36.936c-.344-.341-1.125-1.412-.375-2.357.795-.923 1.906-2.948 2.177-3.729.248-.735 5.924-14.801 6.444-16.088.52-1.288 3.415-8.321 3.595-9.033.203-.758.267-1.697.997-2.139.683-.463 1.369-.354 1.849-.175.458.226 1.485.103 1.988.122.457-.004 1.737.284 2.242.761.505.477.735.934 1.127 1.87.369.867.85 1.161 1.059 1.893.208.731-.316.988-.542 1.562-.226.575-.726 1.243-1.043 1.887-.317.644-4.708 10.6-5.521 12.828-.791 2.183-2.302 6.754-2.844 8.43-.541 1.678-1.264 3.493-1.58 4.481-.316.988-.584 2.341-1.725 2.694-1.141.353-4.368-1.065-5.535-1.697-1.214-.655-2.313-1.31-2.313-1.31Z" fill="#FFC327"/></g><g clip-path="url(#c)"><path opacity=".75" d="M88.375 38.558c-.476-.088-1.724-.534-1.635-1.738.139-1.21-.081-3.51-.297-4.308-.208-.747-3.426-15.57-3.72-16.927-.293-1.357-1.855-8.8-2.107-9.49-.258-.74-.733-1.554-.379-2.33.305-.767.933-1.062 1.431-1.184.506-.071 1.286-.75 1.713-1.018.375-.26 1.596-.742 2.281-.631.686.11 1.133.359 1.984.912.793.51 1.356.483 1.94.97.584.488.294.994.43 1.597.137.602.1 1.436.2 2.146.1.711 2.067 11.412 2.648 13.713.574 2.249 1.895 6.879 2.39 8.57.496 1.69.919 3.599 1.213 4.593.295.995.834 2.265.09 3.198-.746.933-4.211 1.576-5.532 1.71-1.372.141-2.65.217-2.65.217Z" fill="#FFC327"/></g><g clip-path="url(#d)"><path opacity=".75" d="M50.657 56.235c-.443.197-1.725.534-2.332-.508-.57-1.077-2.051-2.85-2.68-3.386-.595-.499-11.63-10.906-12.64-11.858-1.009-.953-6.506-6.21-7.103-6.637-.632-.464-1.484-.867-1.63-1.706-.182-.806.169-1.405.51-1.787.377-.344.637-1.346.838-1.807.163-.427.897-1.515 1.525-1.811.628-.296 1.137-.345 2.151-.37.943-.027 1.392-.368 2.15-.296.756.072.804.654 1.257 1.073.453.42.893 1.129 1.378 1.659.484.53 8.158 8.243 9.938 9.811 1.745 1.531 5.452 4.603 6.817 5.718 1.365 1.115 2.792 2.45 3.597 3.103.805.654 1.968 1.397 1.882 2.587-.087 1.191-2.582 3.68-3.596 4.538-1.052.892-2.062 1.677-2.062 1.677Z" fill="#FFC327"/></g><g clip-path="url(#e)"><path opacity=".75" d="M38.485 92.52c-.175.452-.843 1.597-2.01 1.288-1.164-.36-3.464-.567-4.288-.503-.773.067-15.935.497-17.323.536-1.388.039-8.992.202-9.716.322-.776.118-1.663.435-2.36-.057-.698-.44-.872-1.113-.9-1.625.023-.51-.5-1.402-.684-1.87-.187-.417-.436-1.706-.2-2.36.235-.653.56-1.046 1.262-1.78.647-.686.724-1.245 1.31-1.729.587-.484 1.032-.106 1.649-.129.617-.022 1.43.168 2.147.2.717.034 11.597.072 13.965-.076 2.317-.15 7.111-.594 8.864-.77 1.753-.174 3.707-.238 4.739-.344 1.03-.107 2.379-.403 3.159.502.78.904.773 4.428.66 5.751-.113 1.375-.274 2.644-.274 2.644Z" fill="#FFC327"/></g><g clip-path="url(#f)"><path opacity=".75" d="M56.823 126.303c.136.465.301 1.78-.813 2.244-1.143.422-3.095 1.656-3.71 2.208-.574.523-12.35 10.082-13.429 10.956-1.078.875-7.017 5.627-7.519 6.163-.544.564-1.056 1.355-1.907 1.388-.823.075-1.37-.352-1.703-.742-.292-.419-1.25-.809-1.68-1.069-.402-.218-1.384-1.09-1.594-1.752-.21-.661-.19-1.172-.08-2.181.096-.938-.182-1.428-.01-2.169.171-.741.754-.712 1.23-1.105s1.237-.736 1.826-1.146c.59-.41 9.252-6.994 11.043-8.55 1.748-1.527 5.284-4.795 6.57-6 1.285-1.205 2.798-2.443 3.552-3.155.755-.711 1.645-1.765 2.814-1.522 1.169.244 3.306 3.047 4.021 4.166a69.768 69.768 0 0 1 1.39 2.266Z" fill="#FFC327"/></g><g clip-path="url(#g)"><path opacity=".75" d="M85.334 134.346c.381.299 1.28 1.272.645 2.298-.684 1.008-1.554 3.148-1.733 3.955-.161.759-4.175 15.387-4.543 16.725-.368 1.339-2.432 8.66-2.528 9.387-.114.776-.07 1.717-.743 2.24-.625.539-1.32.51-1.817.387-.481-.171-1.487.07-1.989.109-.453.056-1.758-.082-2.315-.497-.556-.416-.837-.843-1.335-1.727-.467-.82-.978-1.056-1.27-1.759-.292-.702.2-1.017.358-1.614.158-.597.577-1.318.818-1.995.24-.676 3.453-11.072 4.003-13.379.533-2.26 1.507-6.975 1.851-8.703.344-1.728.853-3.615 1.053-4.633.2-1.017.31-2.393 1.403-2.875 1.092-.482 4.46.553 5.694 1.047a70.065 70.065 0 0 1 2.448 1.034Z" fill="#FFC327"/></g><g clip-path="url(#h)"><path opacity=".75" d="M123.929 128.442c.482.043 1.767.366 1.795 1.573-.022 1.218.418 3.485.71 4.259.279.724 4.908 15.169 5.331 16.491.423 1.322 2.694 8.581 3.011 9.243.329.712.88 1.476.601 2.282-.229.793-.826 1.148-1.31 1.317-.496.119-1.208.871-1.606 1.178-.349.294-1.518.892-2.211.848-.693-.045-1.162-.248-2.062-.717-.839-.431-1.396-.35-2.024-.779-.628-.429-.389-.961-.583-1.548-.193-.586-.236-1.42-.404-2.117-.168-.698-3.157-11.16-3.957-13.394-.787-2.184-2.548-6.665-3.203-8.301-.656-1.635-1.261-3.494-1.65-4.455-.388-.961-1.047-2.174-.396-3.174.652-1.001 4.039-1.974 5.341-2.235 1.352-.272 2.617-.471 2.617-.471Z" fill="#FFC327"/></g><g clip-path="url(#i)"><path opacity=".75" d="M158.286 118.406c.474-.103 1.797-.176 2.182.968.341 1.169 1.436 3.203 1.944 3.855.482.609 9.196 13.024 9.993 14.16.797 1.137 5.124 7.393 5.623 7.931.526.582 1.279 1.147 1.253 1.999.017.826-.448 1.342-.86 1.647-.438.262-.894 1.191-1.183 1.602-.246.386-1.184 1.303-1.859 1.467-.674.164-1.183.109-2.182-.071-.928-.163-1.437.081-2.164-.142-.727-.223-.657-.802-1.016-1.305-.359-.502-.648-1.285-1.016-1.901-.368-.617-6.332-9.717-7.76-11.612-1.401-1.851-4.414-5.606-5.526-6.972-1.113-1.367-2.243-2.962-2.9-3.764-.657-.802-1.646-1.764-1.322-2.913.325-1.149 3.27-3.085 4.436-3.721 1.209-.662 2.357-1.228 2.357-1.228Z" fill="#FFC327"/></g><g clip-path="url(#j)"><path opacity=".75" d="M176.589 88.885c.356-.329 1.46-1.062 2.371-.27.887.835 2.86 2.034 3.629 2.34.723.28 14.525 6.572 15.788 7.149 1.263.576 8.161 3.78 8.864 3.991.748.236 1.684.342 2.093 1.09.433.703.293 1.383.093 1.855-.246.448-.168 1.48-.21 1.981-.016.457-.36 1.723-.859 2.206-.499.483-.965.693-1.918 1.043-.883.331-1.198.798-1.938.974-.74.176-.973-.359-1.537-.61s-1.209-.78-1.839-1.126c-.629-.345-10.38-5.172-12.571-6.083-2.146-.886-6.646-2.598-8.297-3.213-1.651-.615-3.433-1.418-4.406-1.777-.972-.36-2.313-.688-2.615-1.843-.302-1.155 1.257-4.316 1.94-5.455.708-1.183 1.412-2.252 1.412-2.252Z" fill="#FFC327"/></g><g clip-path="url(#k)" fill="#FFC327"><path opacity=".75" d="M104.061 54.164c1.687 0 2.449.215 3.538.215 1.088 0 1.469-.215 1.469-.538 0-.323-.871.107 0-.323.871-.431.871-.431.871-.862 0-.43 1.089-.538.653-.97-.435-.43-.544-.968-.544-.968s.326 0 .326-.754-.435-1.346-1.197-1.562c-.762-.215-5.116-1.884-8.436-.969-3.32.862-12.136 3.877-16.327 6.408-4.245 2.423-15.946 11.792-19.702 16.207-3.81 4.362-8.435 11.954-9.687 17.392-1.197 5.385-.435 12.385.98 16.046l1.469 3.608s-1.306-9.53-.109-14.054c1.197-4.523 1.905-5.708 2.232-6.3.326-.538 1.197-2.854 2.122-4.307.87-1.4 6.313-8.454 8.98-10.877 2.667-2.423 8.762-7.808 12.572-10.123 3.755-2.315 9.143-4.954 12.681-5.923 3.538-.97 8.109-1.346 8.109-1.346ZM96.658 119.909c.218-.054.762-.108 1.143-.108s.925-.054 1.198-.054c.272 0 .326.108.544-.053.218-.162.272-.054.49-.054.217 0 .87-.054 1.088-.054.218 0 .109-.216.272-.216.218 0 .218 0 .708-.053.49-.054.598 0 .925-.054.272-.054.599-.108.599-.054.054.108-.055.108-.218.108-.163.053-.544.053-.762.107-.163.054-.326.054-.599.054-.272-.054-.272.162-.489.162-.218 0-.654.054-.98.107-.327.054-.544 0-.762.054-.218.054-.381.162-.653.108-.272-.054-.817.054-1.089.054s-.38-.054-.761 0c-.382.054-.382.054-.708.107-.218 0 .054-.161.054-.161ZM105.749 118.832c.381 0 1.415-.215 1.85-.323.435-.108.707-.162.925-.162.218-.053.381-.107.436 0 .054.108 0 .216-.327.27-.327.053-.272.053-.599.053-.326 0-.544.108-.816.108-.272 0-.544.108-.708.108-.163.054-.108 0-.326.054-.218 0-.599-.108-.435-.108ZM109.883 118.186c.163 0 .925-.108 1.252-.215.381-.108.98-.216 1.252-.27.272-.054.598-.107 1.197-.269.544-.161 1.034-.161 1.415-.269.381-.108.381-.162.816-.269.49-.108 1.143-.162.926-.054-.164.107-.436.161-.762.269-.381.108-.871.377-1.143.377-.218 0-.817 0-.98.108-.163.107-.598.215-.871.269-.272.054-.435.054-.87.161-.436.108-.545.108-.762.216-.218.107-.272.161-.599.161-.327.054-.49.054-.816.054-.272-.054-.055-.269-.055-.269Z"/><path opacity=".75" d="M159.465 76.94c0 3.393-2.667 9.908-5.116 12.87-2.449 2.96-9.144 8.13-15.13 10.876-5.987 2.746-24.927 9.369-37.934 10.338-13.007.97-23.348-.107-33.471-3.984-10.123-3.769-12.844-18.415-13.116-17.554-.599 1.777-.327 8.939.544 11.954.87 2.961 2.449 6.946 5.497 9.854 3.102 2.907 6.585 4.738 7.674 5.115 1.142.377 4.136 1.562 4.898 1.669.762.108 2.122.539 3.32.7 1.251.216 3.755.646 5.388.754 1.632.108 4.462.377 5.66.377 1.197 0 6.803.108 7.347.108.544 0 .272-.323-.109-.323-.38 0-1.36.215-2.612.107-1.252-.054-3.102-.054-3.755-.054s-3.81-.269-4.409-.323c-.598-.054-4.19-.538-5.116-.592-.925-.054-3.755-.7-4.19-.754-.436-.054-.871-.431-.544-.592.326-.108 1.197 0 1.85.269s2.503.592 3.81.754c1.306.215 4.245.7 5.986.646 1.687-.054 6.26.054 6.749.054.544 0 .598.054.98.054.38 0 .598-.054.544-.431-.055-.377.762-.323 1.47-.323.652 0-.055.269.598.431.653.215 1.034-.054 1.905-.108.87-.054.653-.269.925-.269s.218-.431.762-.539c.599-.053 1.36.054.925.108-.435.054-.599.377.109.377.707 0 .653-.054 1.469-.215.762-.108 1.252-.108 1.796-.323.545-.216.654.053 1.361.053.708 0 2.449-.592 3.211-.592s.762-.108 1.252-.269c.435-.108.707-.108 1.197-.216.436-.053.599 0 1.252-.215s.925-.431 1.959-.592c1.034-.108 0 0 .218 0s1.905-.431 2.34-.539c.436-.054.871-.054.599-.269-.272-.215.109-.431.544-.538.381-.054 1.034-.539 1.47-.539.38 0 0 .377-.708.592-.708.216-.762.539-.381.377.381-.107.98-.269 1.959-.592.98-.323 1.851-.323 2.177-.431.327-.107.218-.323.218-.592 0-.269.544-.108.925-.323.381-.215.925-.269 1.578-.431.654-.215 1.579-.377 1.035-.215-.545.215-.218.431.326.323.544-.108.599-.323.925-.377.327-.054.327-.054.327-.431s.544-.107.707.108c.218.269.653-.215 1.252-.754.544-.538 0 0 .327-.108.326-.107.544-.215 1.088-.323.544-.107.544.108.871-.107.326-.216.544-.539 1.088-.647.545-.107.98.108 1.47-.107.435-.216 1.469-.539 2.993-1.562 1.579-.969 10.45-5.492 11.212-5.815.762-.323.653-.862.87-1.185.218-.323.98-.215.98-.215l.762-.862c.762-.861.327-.753.653-1.346.327-.538.544.216 1.089-.215.544-.43.979-1.346 2.231-2.962 1.197-1.669 2.014-4.2 2.014-4.2 3.809-10.069 1.905-14.915 1.905-14.915Zm-17.471 24.338c-1.469.7-4.68 2.208-5.333 2.477-.653.27-1.306.216-1.524.431-.218.269-.599.323-.871.431-.272.108-.762.269-1.252.538-.435.27-3.428 1.346-4.789 1.831-1.361.431-6.64 1.992-7.892 2.423-1.251.377-4.68 1.185-6.041 1.346-1.36.216-1.306.431-1.85.593-.544.107-.055.376-.599.376-.544 0-2.449.431-3.102.539-.653.054-1.034 0-1.524 0-.435 0-1.197 0-1.36.054-.218.054-.654.215-.98.269-.327.054-1.034.054-2.667.269-1.633.216-3.81.108-3.483.054 0 0 6.694-.915 7.456-.969.762-.054 10.014-2.154 11.157-2.262 1.089-.107 10.776-2.907 13.987-4.146 3.211-1.238 8.871-3.769 10.831-4.738 1.959-.97 2.503-1.292 2.503-1.292s-1.252 1.076-2.667 1.776Z"/><path opacity=".75" d="M153.859 67.248c-4.027-3.661-5.496-4.684-6.041-5.007-.544-.324-3.211-1.831-3.701-2.1-.435-.27-2.721-1.454-2.721-1.454s-4.898-1.992-5.714-2.316c-.762-.323-7.021-2.423-11.647-3.176-4.626-.754-7.674-1.293-9.688-1.293-2.013 0-2.775-.161-3.809-.161-1.034 0-14.042.915-17.035 1.454-2.993.538-8.327 1.453-9.524 1.723-1.252.269-7.511 2.53-8.6 2.961-1.034.43-6.15 3.823-6.64 4.146-.544.323-2.557 2.585-3.047 3.393-.544.753-1.143 2.315-1.306 3.284-.163.97-.327 5.708 0 7.108.435 1.669.163 2.746.544 3.284.327.539.87.323 1.252.862.326.538.707.7 1.034 0 .326-.7 1.578-1.562 1.578-2.423 0-.862.163-3.446.163-3.446s.708-3.985 2.613-5.008c1.905-1.023 15.728-4.846 17.851-5.546 2.122-.7 14.695-2.585 17.688-2.585 4.898 0 13.987.7 22.423 2.746 4.735 1.185 15.511 6.085 18.286 8.131 2.776 2.1 6.749 6.085 7.62 8.508.87 2.423 1.905 6.569 1.578 9.53-.327 2.962 0 3.662.871 1.562.871-2.1 2.122-7.108 2.122-10.07 0-3.069-2.122-10.5-6.15-14.107Zm-20.518-9.477c-1.578-.592-6.204-1.723-6.911-1.884-.708-.162-3.701-.7-5.062-.97-1.415-.269-4.027-.592-6.041-.7-2.014-.107-4.191-.269-5.442-.269-1.252 0-2.994-.161-3.484-.161-.544 0 .708-.108.871-.162.49-.215 4.136-.161 4.572-.161.435 0 5.497.538 6.15.538.598 0 6.912 1.023 6.912 1.023 1.415.108 8.762 2.423 9.524 2.747.707.376.49.646-1.089 0Zm6.695 2.962s-.49-.377-.817-.538c-.326-.216-.816-.377-1.197-.593-.381-.215-.925-.592-.925-.592.272.108 1.905.7 2.286.97.326.215 1.197.86.653.753Z"/></g><defs><clipPath id="a"><path fill="#fff" transform="rotate(-25.759 196.749 -335.983)" d="M0 0h37.843v12.299H0z"/></clipPath><clipPath id="b"><path fill="#fff" transform="rotate(-63.781 91.49 -83.33)" d="M0 0h37.843v12.299H0z"/></clipPath><clipPath id="c"><path fill="#fff" transform="rotate(-98.002 59.537 -17.355)" d="M0 0h37.843v12.299H0z"/></clipPath><clipPath id="d"><path fill="#fff" transform="rotate(-132.433 37.043 18.699)" d="M0 0h37.843v12.299H0z"/></clipPath><clipPath id="e"><path fill="#fff" transform="rotate(-165.501 24.655 47.483)" d="M0 0h37.843v12.299H0z"/></clipPath><clipPath id="f"><path fill="#fff" transform="rotate(145.18 9.222 73.746)" d="M0 0h37.843v12.299H0z"/></clipPath><clipPath id="g"><path fill="#fff" transform="rotate(109.589 -3.445 98.933)" d="M0 0h37.843v12.299H0z"/></clipPath><clipPath id="h"><path fill="#fff" transform="rotate(76.475 -17.29 144.47)" d="M0 0h37.843v12.299H0z"/></clipPath><clipPath id="i"><path fill="#fff" transform="rotate(59.178 -22.031 200.158)" d="M0 0h37.843v12.299H0z"/></clipPath><clipPath id="j"><path fill="#fff" transform="rotate(28.753 -78.343 390.319)" d="M0 0h37.843v12.299H0z"/></clipPath><clipPath id="k"><path fill="#fff" transform="translate(54.371 47.11)" d="M0 0h105.638v73.014H0z"/></clipPath></defs></svg>