<svg width="393" height="342" fill="none" xmlns="http://www.w3.org/2000/svg"><path opacity=".75" d="M236.757 34.743c2.934.4 6.35 1.778 5.299 2.3-.985.78.646 2.58 1.832 4.486 1.186 1.906-1.367 1.143-.915 2.949.452 1.806 1.444 2.938.523 3.975-.921 1.038.006 1.912.394 3.46.452 1.806-2.165.785-2.699 3.37-.41 1.19.517 2.064 1.796 3.401 1.057 1.39.934 2.786-1.137 3.002-2.072.217-4.266 1.829-7.611 2.62-3.344.79-26.792 5.241-32.683 7.18-5.891 1.94-16.235 6.846-18.782 7.994-2.705 1.46-30.199 16.159-46.674 27.706-16.476 11.547-41.363 33.828-50.92 45.652-9.557 11.824-29.96 40.696-37.304 56.643-7.28 16.204-14.06 28.739-15.607 43.314-1.481 14.834-1.753 39.22.854 46.801 0 0-1.884-.921-4.743-7.623-2.859-6.702-9.241-28.421-10.529-42.054-1.252-12.547 1.747-41.13 12.898-62.622 11.151-21.493 21.381-41.948 38.5-61.299 17.12-19.35 26.805-30.659 48.719-45.951 21.85-15.55 25.288-16.91 26.813-18.364 1.526-1.454 2.353-1.923 4.137-2.344 1.784-.422 2.576-1.976 4.007-2.86 1.496-.628 19.028-10.785 38.902-16.304 20.097-5.572 37.595-6.43 44.93-5.431Z" fill="#79A5DB" fill-opacity=".42"/><path opacity=".75" d="M132.049 115.274c-1.413 1.713-2.592 4.209-1.748 3.962.939-.072.957 1.75 1.273 3.402.317 1.653 1.335-.066 2.005 1.159.669 1.224.699 2.352 1.734 2.455 1.035.103.969 1.056 1.544 2.105.669 1.225 1.591-.669 3.201.483.831.447.765 1.4.741 2.787.125 1.303.903 2.009 2.154 1.074 1.251-.934 3.279-1.163 5.523-2.429 2.244-1.267 17.421-10.746 21.652-12.675 4.23-1.93 12.422-4.492 14.409-5.155 2.232-.572 24.851-6.467 39.799-8.491 14.947-2.024 39.988-2.418 51.267-.769 11.278 1.649 37.204 7.166 49.361 12.211 12.253 5.22 22.365 8.672 30.633 15.911 8.363 7.415 20.919 20.705 23.341 26.206 0 0 .569-1.466-1.267-6.611-1.835-5.145-9.371-20.353-15.598-28.515-5.695-7.546-21.889-21.76-38.965-27.921-17.076-6.162-33.116-12.22-52.389-14.166-19.272-1.946-30.36-3.245-50.208-.516-19.943 2.554-22.528 3.555-24.108 3.53-1.58-.024-2.274.139-3.471.814-1.197.675-2.423.223-3.662.464-1.143.416-15.965 3.743-29.716 10.815-13.902 7.157-23.974 15.588-27.505 19.87Z" fill="#79A5DB" fill-opacity=".42"/><path opacity=".75" d="M372.886 105.529c-1.851-4.053-4.093-10.508-8.072-15.555-3.979-5.047-17.515-16.565-25.97-20.304-8.455-3.739-27.062-8.82-41.886-11.302-14.962-2.2-23.735-1.373-28.507-1.243-4.771.13-10.587.258-13.524.205-2.879.181-19.461 2.356-25.356 3.001-5.698.599-15.004 1.801-19.678 3.156-4.476 1.308-21.552 4.846-24.371 5.264-2.82.417-10.234 1.67-14.118 2.839-3.885 1.168-10.886 4.07-14.712 5.474-3.826 1.404-24.196 8.466-29.384 11.937-4.99 3.426-7.495 4.267-10.591 5.249-2.899.935-5.326 3.754-6.114 3.94-.789.187-14.32 7.877-18.303 10.316-3.985 2.438-16.769 13.943-24.03 21.648-7.32 7.468-14.226 16.586-18.194 23.262-3.967 6.676-7.026 11.141-9.264 23.895-2.099 12.471-1.415 21.041.155 30.649s2.785 20.297 5.361 28.919c2.576 8.621 5.608 14.89 6.81 16.352 0 0-6.041-42.479 14.702-73.08 20.545-30.554 62.38-56.163 120.317-75.849 57.937-19.687 124.51-13.224 140.021-7.162 0 0 1.065-.751-3.921-2.316-5.184-1.519-11.69-2.475-11.69-2.475s4.397-.79 15.021 2.435c10.624 3.226 17.443 7.103 22.645 10.363 4.947 3.072 10.956 7.888 14.441 14.299 3.426 6.175 7.283 15.741 9.17 23.278 1.887 7.537 1.942 12.763 2.239 11.445.297-1.317 1.745-13.884.886-25.656-1.056-11.725-2.233-18.931-4.083-22.984Zm-79.482-38.836c-7.274-1.523-12.578-1.018-14.865-.976-2.287.042-3.391-.196-5.619.081-2.228.278.159-1.035-2.325-.947-2.485.089-5.639.835-9.504 1.25-3.864.414-7.432-.488-11.967.584-4.338 1.026-12.698 1.006-18.081 2.03-5.382 1.023-10.963 2.093-15.36 2.883s-7.985.64-12.126 1.62c-3.943.932-9.385 1.72-5.618.08 1.854-.936 9.288-2.944 13.034-3.83 3.549-.839 11.811-2.044 14.828-2.508 3.016-.463 39.512-4.851 45.505-4.273 5.993.58 26.397 1.992 34.913 3.47 8.318 1.526 14.448 4.318 14.448 4.318s-19.99-2.259-27.263-3.782Z" fill="#79A5DB" fill-opacity=".42"/><path opacity=".75" d="M371.224 99.648c-.748-1.352-4.217 27.248-7.5 36.179-3.282 8.932-19.644 34.209-29.356 44.406-9.712 10.197-41.451 35.287-44.371 37.507-2.726 2.174-5.03 1.954-6.912 3.418-1.882 1.465-.168-1.489-2.629.112-2.461 1.601-21.617 13.267-25.562 15.474-3.944 2.207-18.553 9.994-24.041 12.566-5.489 2.572-46.706 19.199-62.664 23.227-16.151 4.074-44.882 9.338-56.051 10.449-11.169 1.112-26.294 1.12-37.571.983-11.277-.137-21.77-5.302-28.318-8.596-6.488-3.053-10.696-8.43-14.458-13.657-3.508-5.032-11.79-20.15-14.14-29.534 0 0-1.618 9.048 1.357 23.382 2.976 14.333 10.46 39.324 21.155 47.754 10.696 8.43 32.018 17.66 58.324 15.773 26.113-1.842 54.531-7.541 59.163-8.637 4.632-1.095 18.853-4.712 21.748-5.397 2.894-.684 4.764-1.381 7.02-2.169 2.255-.788 1.701-2.187.543-1.913-1.158.274-.712.423-2.388 1.075-1.677.651-2.329 1.315-3.414 1.062-1.085-.253-1.664-.116-2.762.398s-1.737.411-3.281.776c-1.544.365-1.158.273-2.835.925a2.211 2.211 0 0 1-2.617-.656s1.231-.8 2.775-1.165c1.544-.365 9.263-2.191 10.747-2.796 1.291-.56 3.221-1.017 4.632-1.096 1.411-.078 2.895-.684 4.053-.958 1.157-.274.543-1.912 1.701-2.186s.699.344 2.243-.021 3.293-1.543 4.644-1.863c1.351-.319 2.679-3.181 4.608-3.638 1.93-.456 2.908-1.452 3.595-.34.687 1.112 1.206.734 1.025.013-.181-.722-.602-2.407.688-2.967 1.291-.56 2.835-.925 4.451-1.817 1.617-.892 5.429-2.812 6.78-3.132 1.35-.319 2.689.129 2.689.129s-4.511 1.576-6.321 2.514c-1.809.937-4.463 2.584-2.919 2.219l4.632-1.095c1.158-.274 1.664.116 3.088-.73 1.423-.846 1.821-1.705 3.691-2.402 1.87-.697 2.075-1.51 4.005-1.966l3.474-.822c.772-.182 2.834-.925 4.125-1.485s1.183-1.809 2.473-2.369c1.291-.56 5.223-1.999 6.514-2.559 1.291-.56 3.233-1.784 4.463-2.585 1.231-.8 3.366-2.07 4.85-2.676 1.483-.605 1.085.254 3.208-.248s2.943.323 5.802-2.137c2.859-2.46 2.22-2.564 3.716-3.937 1.496-1.373 4.729-3.157 6.924-4.186 2.195-1.028 2.98-1.978 4.138-2.252 1.158-.274 1.929-.457 1.496-1.373-.434-.917.483-2.154 1.302-1.328.82.826 2.111.266 2.111.266 1.882-1.465 3.836-3.456 4.994-3.73s1.81-.937 3.885-2.448c2.075-1.51 2.075-1.51 3.365-2.07 1.291-.56.435-3.161 2.052-4.053 1.616-.892 4.716-2.389 6.405-3.808s3.1-1.498 4.789-2.916c1.689-1.419 1.798-.17-2.799 2.7-4.596 2.871-4.548 3.879-2.871 3.228 1.677-.651 3.571-2.883 6.092-4.244 2.521-1.361 3.173-2.025 3.764-2.929.591-.904-.422-1.684 1.134-2.817 1.557-1.132 4.223-3.547 5.779-4.679 1.556-1.133 4.523-2.344 5.826-3.672 1.303-1.327 3.306-2.31 4.416-3.592 1.11-1.282 2.738-2.942 1.966-2.759-.771.182-2.919 2.219-4.801 3.684-1.882 1.464-3.486 1.589-3.486 1.589s1.954-1.992 3.897-3.215c1.942-1.224 2.28-2.324 3.836-3.456 1.556-1.133 2.413-2.61 1.834-2.473-.579.137-3.353 1.303-2.05-.025 1.302-1.327 3.052-2.505 5.066-4.256 2.015-1.751 3.934-5.517 3.934-5.517s.687 1.111-.303 2.874c-.989 1.764-1.713 2.954.036 1.776 1.749-1.178.965-.228 2.727-2.174 1.761-1.945 4.56-4.646 6.973-7.255 2.413-2.61 2.992-2.747 3.848-4.224.857-1.477 1.364-1.087.857-1.477-.506-.39-1.399-.688-1.399-.688 1.822-1.705 2.039-3.286 3.403-4.373 1.363-1.087 2.715-5.484 3.958-7.052 1.242-1.568 3.522-3.892 4.186-5.323.664-1.431 1.388-2.622 2.51-4.671 1.122-2.049 2.68-7.26 3.283-8.932.604-1.672 1.219-4.111 1.377-5.932.157-1.821 1.521-6.986 1.704-14.421 2.052-8.131.913-33.093-4.03-40.59Zm-45.436 100.199c-7.287 6.821-17.493 15.86-19.894 17.702-2.208 1.796-11.773 6.862-15.803 10.363-4.089 3.261-16.369 9.732-20.58 12.512-4.21 2.779-30.133 16.809-38.709 20.112-8.577 3.302-32.762 12.843-37.587 13.984-4.631 1.095-8.165 1.676-9.842 2.327-1.677.652-4.198 2.012-6.707 2.606-2.509.593-3.293 1.543-5.223 1.999l-5.79 1.369c-2.122.502-59.73 12.084-70.391 9.508-1.725-.357 34.87-4.422 37.825-4.866 2.955-.444 26.668-4.522 33.834-7.745 7.225-2.983 28.707-7.807 33.544-9.716 5.03-1.954 38.142-16.664 41.749-17.772 3.606-1.107 18.83-11.333 24.005-14.341 4.982-2.962 25.405-13.653 31.678-17.175 6.272-3.522 14.549-12.105 20.194-16.498 5.453-4.348 23.827-23.219 27.29-27.351.386-.092-12.174 15.876-19.593 22.982Z" fill="#79A5DB" fill-opacity=".42"/><path opacity=".75" d="M360.289 109.829s-13.417 20.935-22.117 31.464c-8.477 10.475-35.516 47.748-71.448 65.536-35.932 17.787-65 29.032-114.383 37.43-49.384 8.397-74.946-.316-85.334-8.79-10.388-8.475-24.135-30.366-27.805-41.249 0 0 4.301 28.497 6.21 37.064 1.973 8.824 8.75 34.003 31.197 45.365 22.224 11.414 58.881 10.672 88.543 5.571 29.661-5.1 75.106-18.852 96.804-32.18 21.697-13.329 55.375-38.234 63.318-46.125 7.88-8.148 11.053-12.451 10.003-11.929-1.05.521-7.656 8.095-9.182 9.549-1.525 1.454-12.109 11.062-16.052 14.18-3.338 2.702-7.539 4.789-8.366 5.257 1.273-.574 9-6.5 11.734-8.786 2.669-2.544 6.418-6.437 7.181-7.163.763-.727.727-1.812 1.777-2.334 1.051-.521 1.497-.627 2.036-1.301.476-.932 2.799-2.028 3.72-3.065.921-1.038 1.173-1.918 1.49-2.539.317-.621 1.303-1.401 1.555-2.28.475-.933.633-1.243 1.684-1.765 1.114-.264 2.323-1.096 2.575-1.975.252-.88 1.015-1.607 1.461-1.712.446-.105 2.23-.527 2.705-1.459.317-.622 9.24-11.203 11.968-15.401 2.95-4.25 4.534-7.357 5.009-8.289.476-.932.44-2.017.886-2.123.604-.416.921-1.037.857-1.295-.13-.516.122-1.396.727-1.812.604-.416 1.331-2.227 2.434-6.314 1.325-4.139 1.642-4.761 1.675-14.06.099-9.041-.556-23.916-2.862-27.47Zm-29.859 52.423c-.698.985-1.46 1.712-2.159 2.697-5.08 6.12-17.911 20.904-28.213 28.806-13.483 10.293-33.361 24.284-39.821 27.725-6.46 3.44-7.352 3.651-8.819 3.451-1.467-.2-.892.211-3.949 1.207-3.057.996-6.014 3.335-7.287 3.909-1.273.575-14.358 5.855-29.104 10.161-14.968 4.359-38.991 8.399-38.991 8.399s38.035-8.446 54.335-15.033c16.523-6.639 22.379-9.664 25.084-11.123 2.704-1.459 22.091-9.869 39.862-24.729 16.246-13.405 28.995-23.798 36.68-32.72 1.62-2.023 2.541-3.061 2.382-2.75Z" fill="#79A5DB" fill-opacity=".42"/></svg>