<svg width="196" height="156" fill="none" xmlns="http://www.w3.org/2000/svg"><g opacity=".57" fill="#FFCA42"><path opacity=".75" d="M40.35 132.3c.402 2.586.699 3.038 1.491 5.627.823 2.439.538 4.569-.283 5.884-.82 1.316-2.116 1.907-3.5 2.168-1.383.26-1.86-.074-3.06-.323s-3.483-.175-4.442-.452c-.9-.187-2.433.042-3.783-.238-1.35-.28-3.389-.625-3.559-2.068-.17-1.443-.136-1.983.832-2.877.908-.985 1.728-2.3 1.737-3.471.008-1.172 1.055-4.708.942-5.67-.113-.962-.063-3.845.277-5.104s.082-3.033.362-4.382c.28-1.35 1.04-6.901 1.411-8.31.371-1.408 1.177-4.917 1.395-5.966.368-1.019.874-4.589 1.18-5.308.305-.718.862-3.027 1.14-3.986.246-.81.56-2.7 1.17-4.136.612-1.438 1.418-4.946 1.995-5.843.577-.896.982-2.846 1.465-3.293.484-.447 1.183-1.553 1.788-2.21.665-.565 2.56-1.032 4.247-1.62 1.777-.648 4.572-.929 5.837-1.37 1.324-.35 2.673-.07 2.877.832.203.902-.767 2.187-1.132 2.815-.365.628-2.345 4.518-2.832 5.355-.486.838-3.335 8.536-3.955 11.144-.619 2.609-.3 4.083-1.052 4.318-.602.266-.636.806-.492 1.618.204.903-.042 1.712-.32 2.671-.186.899-1.281 6.928-1.32 8.25.05 1.261-.334 4.622-.464 6.003-.13 1.381.441 1.265-.077 2.252-.517.987.346 2.105-.082 3.033-.036.931-.053 3.273.207 4.657Z"/><path opacity=".75" d="M88.449 63.298c-.57-.274-2.012-.105-3.698.484-.78-.006-1.562-.011-2.043.045-1.171-.008-5.265 1.254-6.198 1.607-.753.235-1.115.473-1.118.863-.605.657-1.151 1.404-1.969 2.329-1.301 1.372-2.286 4.608-3.301 7.995-1.106 3.446-4.792 23.092-5.202 25.822-.41 2.73-1.454 5.876-1.986 4.671-.591-1.296-2.436-7.857-3.342-11.407-.291-1.234-2.473-6.926-3.005-8.131-.44-1.265-3.618-6.303-4.603-7.211-.984-.909-1.675-.974-2.877-.832-1.203.141-2.676.461-3.579.665-.902.204-4.09.871-5.265 1.253-1.084.323-1.547 2.182-1.431 2.753 0 0 1.219 1.66 2.11 3.019.832 1.267 3.353 5.7 3.888 6.515.534.815 2.139 3.26 2.458 4.733.32 1.474 2.108 7.554 2.335 9.478.285 2.014 1.828 8.903 1.904 10.796.136 1.983 1.52 10.012 1.84 11.486.32 1.474 1.128 1.72 2.266 2.269 1.078.458 2.914-.099 4.475-.088 1.562.011 5.079-.354 6.4-.314 0 0 1.562.011 2.8-1.061 1.24-1.072 1.059-.954 3.24-3.551 2.181-2.597 1.233-4.436 2.362-6.861 1.129-2.424 1.867-8.996 2.277-11.726.41-2.731 2.744-18.121 3.607-21.148.246-.81.616-2.219 1.05-3.927a67.82 67.82 0 0 0 1.145 3.522c1.002 2.71 2.145 6.623 2.974 8.28.979 1.69 2.857 3.565 4.12 3.514 1.351-.11 4.268-.6 6.28-.495 2.011.105 5.319-.382 6.495-1.154 1.177-.773.043-1.712-.611-2.708-.653-.996-1.358-3.253-1.796-4.908-.53-1.596-2.012-4.25-2.388-6.205-.467-1.895-2.917-7.8-3.093-8.462-.175-.662-3.573-8.405-4.462-10.153-.147-.422-.475-.724-.744-.937.184-.509-.656-.605-1.315-.82Z"/><path opacity=".75" d="M90.084 99.141c1.714-.348 6.156.105 8.292-.39 2.076-.586 5.437-.201 6.914-5.056 1.477-4.855 1.267-13.266 2.962-19.17 1.753-5.815 3.997-12.856 5.23-17.293 0 0 1.74 4.428 3.46 7.444 1.721 3.016 5.223 4.603 8.168 4.354 2.945-.25 6.162-.677 8.51-1.44 2.258-.705 4.561-3.512 5.599-5.877.948-2.306 1.457-6.267 2.221-8.063.704-1.887 2.401-12.327 3.754-12.437 1.352-.11 6.031.704 8.405.571 2.374-.133 7.933-.543 9.415-2.034 1.483-1.491 2.645-4.456 3.169-6.225.523-1.768.515-4.741.585-6.212.161-1.531-.014-2.193 1.454-5.877 1.468-3.683 1.344-3.083 1.992-5.451.648-2.368.467-2.25.076-2.252-.331.087-.39-.003-.6-.125-.209-.122-.328-.303-.206-.512.062-.3.155-.75.399-1.168.243-.42.73-1.257.458-1.078-.272.178-.303.328-.512.206-.209-.121-.328-.302-.116-.571.212-.269.455-.688.096-.84-.359-.153-.959-.278-.959-.278s-.028-.24-.241.029c-.152.359-.336.868-.517.987s-.478-.334-.447-.484c.031-.15.277-.959.611-1.437.274-.569.124-.6.368-1.019.243-.418.186-.9-.116-.571-.303.328-.668.956-.911 1.375-.153.36-.396.778-.428.928-.121.21-.152.36-.302.328-.15-.031-.538-.424-.538-.424s-.088-.331-.025-.631c.062-.3.243-.419.365-.628.062-.3-.238-.362-.479-.334-.149-.031-.902.204-.933.354-.122.209-.518.987-.699 1.106-.181.119-5.296 9.693-5.907 11.13-.58 1.287-2.718 6.317-3.205 7.155-.487.837-1.154 1.794-1.632 1.46-.479-.334-6.092-.795-7.925-.628-1.774.258-7.061.49-8.779 1.228-1.748.889-4.614 2.64-5.352 5.067-.739 2.428-4.69 17.326-4.69 17.326s-3.942-7.387-4.417-8.11c-.475-.725-1.013-1.15-2.153-1.308-1.14-.158-10.547.705-11.54.968-.993.263-4.309 1.921-4.764 2.609-.456.687-4.617 7.174-5.752 10.38-1.134 3.205-3.32 10.728-3.782 12.197-.551 1.527-3.457 8.745-4.158 10.241-.761 1.406-1.573 13.985-2.549 16.05-.917 2.156-1.197 3.505-.419 3.901.719.306 2.55.53 2.55.53Z"/></g></svg>