<svg width="307" height="231" fill="none" xmlns="http://www.w3.org/2000/svg"><path opacity=".75" d="M161.799 28.768c1.824.255 3.947 1.137 3.294 1.471-.613.499.401 1.65 1.139 2.87.737 1.219-.85.73-.569 1.886.281 1.155.897 1.88.325 2.543-.573.664.004 1.223.245 2.213.281 1.155-1.346.502-1.678 2.156-.255.762.321 1.32 1.117 2.176.657.889.58 1.782-.708 1.92-1.287.138-2.651 1.17-4.73 1.675-2.08.506-16.655 3.354-20.318 4.594-3.662 1.24-10.092 4.379-11.675 5.114-1.682.933-18.773 10.336-29.015 17.722-10.242 7.387-25.713 21.64-31.653 29.203-5.941 7.564-18.625 26.033-23.19 36.234-4.525 10.366-8.74 18.384-9.702 27.708-.92 9.489-1.09 25.088.531 29.938 0 0-1.171-.59-2.948-4.877-1.778-4.287-5.745-18.181-6.546-26.901-.778-8.027 1.086-26.311 8.018-40.059 6.932-13.748 13.291-26.833 23.933-39.212C68.311 74.764 74.332 67.53 87.955 57.748 101.537 47.8 103.675 46.93 104.623 46c.948-.93 1.463-1.23 2.572-1.5 1.108-.27 1.601-1.264 2.491-1.83.93-.4 11.828-6.898 24.182-10.429 12.493-3.564 23.371-4.113 27.931-3.474Z" fill="#FBB624" fill-opacity=".59"/><path opacity=".75" d="M246.748 76.799S238.408 90.19 233 96.925c-5.27 6.702-22.078 30.544-44.415 41.923-22.337 11.378-40.407 18.571-71.105 23.943-30.699 5.372-46.59-.202-53.047-5.623-6.458-5.421-15.003-19.424-17.285-26.386 0 0 2.674 18.229 3.86 23.709 1.227 5.645 5.44 21.751 19.394 29.019 13.815 7.302 36.603 6.827 55.041 3.565 18.439-3.263 46.69-12.06 60.178-20.586 13.487-8.526 34.423-24.458 39.361-29.505 4.898-5.212 6.871-7.965 6.218-7.631-.653.334-4.759 5.179-5.708 6.109-.948.929-7.527 7.075-9.978 9.07-2.076 1.729-4.687 3.063-5.201 3.363.791-.367 5.594-4.158 7.294-5.62 1.659-1.628 3.99-4.118 4.464-4.583.474-.465.452-1.158 1.105-1.492.653-.334.93-.401 1.266-.832.295-.597 1.739-1.298 2.312-1.962.573-.663.729-1.226.926-1.623.197-.398.81-.897.967-1.459.295-.596.393-.795 1.046-1.129.693-.168 1.445-.701 1.602-1.263.156-.563.63-1.028.908-1.095.277-.068 1.386-.338 1.681-.934.197-.398 5.744-7.166 7.44-9.851 1.834-2.719 2.819-4.707 3.114-5.303.295-.596.273-1.29.551-1.358.375-.266.572-.663.532-.828-.08-.331.076-.893.452-1.159.376-.267.828-1.425 1.513-4.039.824-2.648 1.021-3.046 1.042-8.994.061-5.784-.346-15.3-1.78-17.572Zm-18.561 33.534c-.434.63-.908 1.095-1.342 1.725-3.158 3.915-11.134 13.372-17.539 18.427-8.381 6.584-20.738 15.534-24.754 17.735-4.016 2.2-4.57 2.335-5.482 2.208-.912-.128-.555.134-2.455.772-1.9.637-3.738 2.133-4.53 2.5-.791.368-8.925 3.745-18.092 6.5-9.305 2.788-24.238 5.373-24.238 5.373s23.644-5.403 33.776-9.617c10.272-4.247 13.912-6.181 15.593-7.115 1.682-.933 13.733-6.313 24.78-15.818 10.099-8.576 18.025-15.224 22.802-20.931 1.007-1.294 1.58-1.958 1.481-1.759Z" fill="#FBB624" fill-opacity=".59"/><path opacity=".75" d="M281.164 63.18c-1.277-2.835-2.817-7.355-5.583-10.877-2.765-3.523-12.204-11.54-18.117-14.122-5.914-2.582-18.944-6.054-29.333-7.721-10.488-1.47-16.649-.844-19.997-.729-3.349.116-7.431.235-9.492.212-2.021.142-13.668 1.752-17.808 2.235-4.001.45-10.538 1.34-13.824 2.315-3.148.94-15.149 3.51-17.13 3.818-1.98.307-7.189 1.225-9.921 2.064-2.732.84-7.66 2.913-10.352 3.917-2.692 1.005-17.023 6.065-20.681 8.529-3.52 2.43-5.282 3.033-7.459 3.737-2.04.671-3.757 2.663-4.311 2.797-.555.135-10.089 5.602-12.897 7.334-2.809 1.732-11.84 9.873-16.974 15.318-5.176 5.28-10.07 11.714-12.889 16.42-2.818 4.707-4.988 7.857-6.624 16.821-1.538 8.765-1.103 14.777-.051 21.514 1.052 6.736 1.848 14.234 3.611 20.273 1.763 6.039 3.858 10.424 4.693 11.444 0 0-4.018-29.789 10.697-51.374 14.576-21.552 44.065-39.74 84.823-53.852 40.757-14.112 87.438-9.912 98.291-5.735 0 0 .752-.533-2.739-1.606-3.63-1.04-8.19-1.678-8.19-1.678s3.09-.577 10.528 1.633c7.438 2.211 12.202 4.898 15.836 7.16 3.455 2.131 7.647 5.481 10.059 9.964 2.372 4.318 5.028 11.013 6.313 16.294 1.285 5.282 1.297 8.95 1.512 8.023.215-.926 1.297-9.755.755-18.014-.68-8.225-1.468-13.278-2.746-16.113Zm-55.571-26.859c-5.096-1.032-8.82-.65-10.425-.61-1.605.041-2.379-.12-3.944.086-1.564.206.117-.728-1.627-.653-1.743.074-3.961.614-6.675.925-2.714.31-5.213-.305-8.401.47-3.049.742-8.915.771-12.697 1.517-3.783.745-7.704 1.524-10.794 2.101-3.089.577-5.606.49-8.517 1.199-2.772.674-6.595 1.255-3.943.085 1.306-.667 6.533-2.114 9.166-2.755 2.495-.607 8.299-1.494 10.418-1.835 2.119-.341 27.751-3.606 31.954-3.23 4.202.376 18.512 1.264 24.48 2.26 5.83 1.029 10.116 2.957 10.116 2.957s-14.015-1.484-19.111-2.517Z" fill="#FBB624" fill-opacity=".59"/><path opacity=".75" d="M280.345 61.631c-.518-.922-3.348 18.82-5.806 25.012-2.457 6.192-14.47 23.799-21.542 30.938-7.071 7.14-30.082 24.8-32.197 26.364-1.977 1.53-3.622 1.406-4.986 2.437-1.364 1.031-.103-1.024-1.883.108-1.779 1.132-15.625 9.396-18.474 10.963-2.848 1.567-13.393 7.104-17.35 8.941-3.958 1.837-33.645 13.78-45.109 16.745-11.603 2.997-32.22 6.965-40.223 7.863-8.003.899-18.822 1.084-26.887 1.123-8.065.04-15.507-3.394-20.151-5.585-4.604-2.027-7.549-5.68-10.176-9.237-2.448-3.424-8.188-13.74-9.754-20.177 0 0-1.268 6.253.685 16.091 1.953 9.838 7.001 26.965 14.55 32.645 7.548 5.68 22.687 11.786 41.528 10.174 18.702-1.579 39.099-5.843 42.426-6.652 3.326-.81 13.543-3.47 15.622-3.976 2.08-.506 3.425-1.008 5.049-1.578 1.623-.57 1.243-1.526.412-1.324-.832.202-.515.3-1.722.769-1.207.468-1.681.933-2.455.772-.773-.162-1.189-.061-1.981.307-.791.367-1.247.303-2.356.573-1.109.27-.832.202-2.039.671-1.207.469-1.864-.42-1.864-.42s.89-.567 1.999-.836c1.109-.27 6.653-1.619 7.722-2.054.93-.401 2.316-.738 3.326-.81 1.011-.071 2.08-.505 2.911-.708.832-.202.412-1.324 1.244-1.526.831-.202.496.229 1.605-.041s2.374-1.102 3.345-1.338c.97-.236 1.954-2.224 3.341-2.561 1.386-.337 2.097-1.035 2.575-.277.478.758.853.491.733-.004s-.402-1.65.529-2.051c.93-.401 2.039-.671 3.206-1.305 1.167-.633 3.917-2.002 4.887-2.238.971-.236 1.923.057 1.923.057s-3.247 1.139-4.552 1.807c-1.306.667-3.225 1.833-2.116 1.563l3.327-.809c.831-.202 1.189.06 2.218-.54 1.028-.6 1.323-1.196 2.669-1.698s1.503-1.065 2.889-1.402l2.495-.607c.555-.135 2.039-.671 2.969-1.072.93-.401.868-1.26 1.798-1.661.93-.402 3.761-1.44 4.691-1.841.93-.401 2.334-1.267 3.224-1.833.89-.566 2.433-1.466 3.502-1.901 1.068-.435.773.161 2.298-.21 1.524-.371 2.101.188 4.176-1.54 2.075-1.729 1.619-1.793 2.706-2.756 1.087-.964 3.422-2.231 5.005-2.966 1.583-.735 2.155-1.399 2.987-1.601.831-.202 1.386-.337 1.087-.964-.3-.626.371-1.488.948-.93.576.559 1.506.158 1.506.158 1.365-1.031 2.787-2.426 3.619-2.628.831-.202 1.305-.667 2.808-1.732s1.503-1.065 2.433-1.466c.93-.401.35-2.183 1.517-2.817 1.167-.633 3.403-1.702 4.628-2.699 1.226-.997 2.236-1.068 3.462-2.066 1.225-.997 1.287-.138-2.035 1.894-3.323 2.032-3.301 2.726-2.094 2.257 1.207-.468 2.59-2.028 4.41-2.996 1.82-.967 2.294-1.432 2.728-2.062.434-.63-.281-1.155.846-1.954 1.127-.798 3.063-2.493 4.19-3.292 1.127-.799 3.265-1.668 4.213-2.598.948-.93 2.393-1.631 3.202-2.527.81-.897 1.995-2.059 1.441-1.924-.554.135-2.115 1.563-3.48 2.595-1.364 1.031-2.513 1.135-2.513 1.135s1.423-1.395 2.827-2.261c1.404-.866 1.659-1.627 2.786-2.426 1.127-.798 1.758-1.826 1.342-1.725-.415.102-2.414.937-1.466.008.948-.93 2.214-1.763 3.676-2.993 1.463-1.23 2.882-3.847 2.882-3.847s.478.758-.252 1.984c-.729 1.226-1.262 2.055.004 1.223 1.266-.833.693-.169 1.977-1.53 1.284-1.361 3.319-3.255 5.077-5.081 1.758-1.826 2.173-1.928 2.804-2.955.631-1.028.989-.765.631-1.028-.357-.262-.992-.458-.992-.458 1.324-1.196 1.499-2.287 2.487-3.052.988-.765 2.009-3.81 2.917-4.905.908-1.095 2.568-2.723 3.06-3.716.492-.994 1.025-1.823 1.853-3.248.827-1.425 2.005-5.033 2.457-6.192.452-1.159.922-2.846 1.057-4.103.135-1.256 1.174-4.83 1.396-9.954 1.567-5.625 1.057-22.807-2.388-27.913Zm-33.725 69.564c-5.296 4.784-12.707 11.133-14.447 12.43-1.601 1.264-8.505 4.866-11.43 7.326-2.966 2.295-11.829 6.899-14.874 8.863-3.046 1.965-21.761 11.938-27.936 14.314-6.175 2.377-23.592 9.237-27.057 10.08-3.327.809-5.862 1.251-7.069 1.72-1.208.468-3.028 1.435-4.83 1.874-1.802.438-2.374 1.102-3.76 1.439l-4.159 1.012c-1.524.371-42.874 9.033-50.469 7.385-1.229-.225 24.998-3.46 27.117-3.801 2.119-.341 19.132-3.431 24.297-5.737 5.205-2.14 20.631-5.718 24.114-7.09 3.622-1.406 27.487-11.933 30.081-12.739 2.593-.805 13.608-8.03 17.347-10.164 3.6-2.099 18.339-9.706 22.869-12.207 4.53-2.5 10.555-8.511 14.647-11.605 3.954-3.059 17.328-16.277 19.855-19.165.277-.067-8.902 11.081-14.296 16.065Z" fill="#FBB624" fill-opacity=".59"/></svg>