<svg width="215" height="56" fill="none" xmlns="http://www.w3.org/2000/svg"><path d="M212.76 51.623c-.893-1.646-4.947-3.014-7.457-4.231-14.76-7.005-30.128-12.272-45.603-17.344-21.691-7.082-43.847-12.418-66.129-17.271C80.836 10.014 23.87 1.77 10.914.357 7.39-.008 3.882-.093.344.253c.056.91-.08 1.926.19 2.055 1.113.51 2.33 1.001 3.548 1.103 16.89 1.317 77.692 10.294 94.2 14.227 4.754 1.137 9.578 1.873 14.338 3.044 10.111 2.486 20.243 4.897 30.278 7.75 9.066 2.566 18.056 5.498 27.002 8.58 14.108 4.926 28.213 10.03 41.515 16.974 2.488 1.292 3.154 2.058 3.275 1.152.121-.906-1.072-1.862-1.93-3.515Z" fill="#B9ACEB"/></svg>