<svg width="779" height="585" fill="none" xmlns="http://www.w3.org/2000/svg"><path opacity=".75" d="M411.655 73.145c4.634.65 10.027 2.89 8.368 3.737-1.556 1.267 1.02 4.192 2.893 7.29 1.872 3.096-2.159 1.857-1.445 4.791.714 2.935 2.28 4.774.826 6.46-1.455 1.686.01 3.106.622 5.622.714 2.934-3.419 1.276-4.262 5.477-.648 1.934.816 3.354 2.837 5.527 1.668 2.258 1.474 4.526-1.797 4.877-3.271.352-6.736 2.972-12.017 4.257-5.282 1.285-42.309 8.517-51.611 11.669-9.303 3.152-25.638 11.123-29.659 12.989-4.271 2.371-47.689 26.257-73.705 45.021-26.016 18.763-65.317 54.969-80.408 74.183-15.091 19.213-47.311 66.13-58.907 92.042-11.495 26.332-22.203 46.7-24.645 70.385-2.34 24.104-2.768 63.729 1.348 76.049 0 0-2.974-1.496-7.489-12.387S68.01 444.95 65.977 422.798c-1.977-20.389 2.759-66.835 20.367-101.76 17.609-34.924 33.763-68.162 60.797-99.607 27.033-31.444 42.328-49.82 76.933-74.669 34.503-25.269 39.932-27.479 42.341-29.841 2.409-2.362 3.715-3.124 6.532-3.81 2.817-.685 4.067-3.209 6.328-4.648 2.363-1.019 30.047-17.524 61.43-26.492 31.736-9.053 59.367-10.448 70.95-8.826Z" fill="#79A5DB" fill-opacity=".42"/><path opacity=".75" d="M714.874 160.562c-3.244-7.204-7.157-18.685-14.182-27.633s-31.001-29.314-46.023-35.873c-15.021-6.558-48.122-15.378-74.513-19.614-26.641-3.731-42.292-2.144-50.798-1.85-8.506.293-18.875.596-24.111.537-5.133.361-34.719 4.452-45.236 5.678-10.165 1.141-26.77 3.405-35.118 5.88-7.997 2.39-38.481 8.92-43.513 9.7-5.031.78-18.263 3.111-25.203 5.244-6.94 2.132-19.458 7.398-26.296 9.95-6.838 2.552-43.243 15.406-52.535 21.664-8.941 6.172-13.417 7.705-18.948 9.495-5.18 1.704-9.543 6.762-10.952 7.105-1.408.342-25.627 14.228-32.762 18.628-7.134 4.401-30.073 25.08-43.118 38.911-13.146 13.412-25.578 29.759-32.739 41.714-7.16 11.956-12.672 19.958-16.829 42.728-3.906 22.265-2.801 37.538-.129 54.65 2.672 17.112 4.695 36.158 9.174 51.499 4.478 15.34 9.799 26.479 11.922 29.071 0 0-10.207-75.67 27.172-130.503 37.027-54.747 111.936-100.949 215.471-136.797 103.534-35.848 222.116-25.18 249.685-14.569 0 0 1.909-1.353-6.959-4.08-9.221-2.641-20.804-4.263-20.804-4.263s7.848-1.466 26.743 4.15c18.895 5.616 30.998 12.441 40.228 18.188 8.777 5.413 19.425 13.924 25.552 25.311 6.025 10.967 12.774 27.976 16.038 41.391 3.264 13.416 3.294 22.734 3.84 20.38.546-2.353 3.294-24.78 1.919-45.76-1.727-20.895-3.731-33.729-6.976-40.932Zm-141.165-68.23c-12.945-2.623-22.406-1.653-26.483-1.55-4.077.105-6.041-.306-10.017.218-3.975.523.297-1.849-4.133-1.66-4.429.19-10.062 1.561-16.956 2.35-6.894.79-13.242-.774-21.34 1.196-7.747 1.885-22.647 1.958-32.255 3.852-9.609 1.894-19.57 3.873-27.418 5.339-7.848 1.465-14.242 1.244-21.636 3.044-7.042 1.713-16.753 3.188-10.017.216 3.317-1.695 16.595-5.37 23.285-6.997 6.337-1.542 21.08-3.797 26.463-4.663 5.384-.866 70.496-9.16 81.171-8.204 10.675.955 47.027 3.212 62.187 5.74 14.808 2.614 25.696 7.513 25.696 7.513s-35.601-3.771-48.547-6.394Z" fill="#79A5DB" fill-opacity=".42"/><path opacity=".75" d="M712.797 156.627c-1.316-2.344-8.507 47.808-14.75 63.536-6.242 15.729-36.757 60.454-54.721 78.591-17.964 18.136-76.416 62.998-81.79 66.97-5.022 3.886-9.201 3.571-12.666 6.19-3.465 2.62-.26-2.601-4.781.276-4.522 2.876-39.692 23.867-46.929 27.848-7.236 3.981-34.022 18.047-44.075 22.714-10.053 4.666-85.465 35.004-114.588 42.534-29.474 7.615-81.845 17.693-102.175 19.976-20.33 2.282-47.813 2.752-68.301 2.852-20.488.101-39.392-8.621-51.189-14.188-11.695-5.148-19.175-14.429-25.848-23.463-6.22-8.7-20.8-34.904-24.778-51.254 0 0-3.222 15.882 1.74 40.874 4.962 24.992 17.785 68.497 36.96 82.926 19.174 14.429 57.632 29.939 105.491 25.844 47.508-4.011 99.322-14.841 107.773-16.898 8.45-2.056 34.404-8.814 39.685-10.1 5.282-1.285 8.701-2.561 12.824-4.008 4.123-1.447 3.159-3.877 1.047-3.363-2.113.514-1.307.762-4.374 1.952-3.067 1.191-4.271 2.372-6.236 1.962-1.964-.41-3.02-.153-5.031.78-2.011.933-3.169.771-5.986 1.456-2.817.686-2.112.514-5.179 1.705-3.067 1.19-4.735-1.069-4.735-1.069s2.26-1.438 5.077-2.123c2.817-.686 16.901-4.112 19.616-5.217 2.362-1.019 5.883-1.876 8.45-2.056 2.567-.18 5.282-1.285 7.394-1.799 2.113-.514 1.047-3.363 3.159-3.877 2.113-.514 1.261.581 4.077-.104 2.817-.685 6.032-2.8 8.497-3.399 2.465-.6 4.966-5.649 8.487-6.506 3.521-.857 5.327-2.628 6.542-.704 1.214 1.925 2.168 1.249 1.862-.009-.306-1.257-1.02-4.192 1.343-5.211 2.362-1.019 5.179-1.704 8.144-3.314 2.965-1.609 9.951-5.085 12.416-5.685 2.465-.6 4.883.144 4.883.144s-8.246 2.895-11.563 4.59c-3.317 1.695-8.191 4.657-5.374 3.972l8.45-2.057c2.113-.514 3.021.154 5.634-1.37 2.613-1.524 3.363-3.039 6.782-4.315 3.419-1.276 3.817-2.705 7.338-3.561l6.338-1.542c1.409-.343 5.18-1.705 7.542-2.724 2.363-1.019 2.205-3.2 4.568-4.219 2.363-1.019 9.553-3.657 11.915-4.676 2.363-1.019 5.93-3.219 8.191-4.657 2.261-1.438 6.18-3.724 8.895-4.829 2.715-1.104 1.964.411 5.837-.532 3.873-.942 5.338.478 10.609-3.913 5.272-4.391 4.114-4.554 6.875-7.002 2.761-2.447 8.69-5.667 12.712-7.533 4.021-1.867 5.475-3.553 7.588-4.067 2.113-.514 3.521-.856 2.761-2.448-.76-1.591.944-3.782 2.409-2.362 1.464 1.42 3.827.401 3.827.401 3.465-2.619 7.078-6.163 9.191-6.677 2.112-.514 3.317-1.695 7.134-4.4s3.817-2.705 6.18-3.724c2.362-1.019.888-5.545 3.853-7.154 2.965-1.61 8.645-4.324 11.758-6.857 3.113-2.534 5.679-2.715 8.792-5.248 3.113-2.534 3.271-.352-5.169 4.81-8.441 5.162-8.385 6.925-5.318 5.735 3.067-1.191 6.578-5.153 11.202-7.61 4.623-2.458 5.827-3.639 6.93-5.239 1.102-1.601-.714-2.935 2.149-4.964 2.862-2.028 7.782-6.334 10.645-8.362 2.863-2.029 8.292-4.238 10.701-6.601 2.409-2.362 6.078-4.143 8.135-6.419 2.057-2.277 5.068-5.23 3.659-4.887-1.408.342-5.374 3.972-8.839 6.591-3.465 2.619-6.384 2.885-6.384 2.885s3.614-3.543 7.181-5.743 4.215-4.134 7.078-6.163c2.863-2.029 4.465-4.639 3.409-4.382-1.056.257-6.134 2.381-3.725.018 2.409-2.362 5.624-4.476 9.339-7.601 3.715-3.124 7.319-9.773 7.319-9.773s1.214 1.924-.639 5.04c-1.852 3.115-3.205 5.22.01 3.106 3.215-2.115 1.761-.429 5.022-3.887 3.261-3.457 8.43-8.268 12.896-12.907 4.465-4.639 5.522-4.896 7.124-7.506 1.603-2.61 2.511-1.943 1.603-2.61-.908-.667-2.521-1.163-2.521-1.163 3.363-3.038 3.808-5.811 6.318-7.754 2.511-1.943 5.104-9.679 7.411-12.46 2.307-2.782 6.522-6.916 7.773-9.441 1.25-2.524 2.603-4.629 4.705-8.249 2.103-3.62 5.095-12.785 6.243-15.729 1.149-2.944 2.343-7.231 2.685-10.423.343-3.191 2.982-12.271 3.545-25.285 3.982-14.291 2.686-57.937-6.064-70.906Zm-85.671 176.709c-13.453 12.154-32.279 28.28-36.698 31.575-4.067 3.21-21.607 12.362-29.037 18.611-7.532 5.829-30.047 17.524-37.784 22.515-7.736 4.99-55.277 30.323-70.963 36.36-15.687 6.037-59.93 23.463-68.733 25.605-8.45 2.056-14.89 3.179-17.957 4.369s-7.69 3.647-12.267 4.761c-4.578 1.114-6.032 2.8-9.553 3.656l-10.563 2.571c-3.873.942-108.911 22.946-128.204 18.76-3.123-.573 63.499-8.79 68.883-9.656 5.384-.865 48.6-8.716 61.72-14.573 13.222-5.437 52.407-14.527 61.256-18.012 9.2-3.571 69.824-30.311 76.412-32.358 6.588-2.047 34.569-20.401 44.066-25.82 9.145-5.333 46.586-24.656 58.094-31.009 11.507-6.352 26.812-21.621 37.207-29.479 10.044-7.773 44.017-41.35 50.437-48.685.704-.171-22.614 28.149-36.316 40.809Z" fill="#79A5DB" fill-opacity=".42"/><path opacity=".75" d="M627.446 195.156s-21.186 34.018-34.925 51.127c-13.386 17.023-56.083 77.59-112.825 106.493-56.741 28.904-102.642 47.177-180.625 60.822-77.982 13.646-118.348-.512-134.752-14.283-16.404-13.771-38.112-49.342-43.906-67.027 0 0 6.791 46.306 9.805 60.227 3.116 14.339 13.817 55.253 49.264 73.716 35.094 18.548 92.98 17.342 139.82 9.054 46.839-8.289 118.602-30.634 152.864-52.292 34.263-21.658 87.444-62.129 99.988-74.951 12.442-13.24 17.454-20.232 15.795-19.385-1.658.848-12.09 13.155-14.498 15.518-2.409 2.362-19.123 17.974-25.349 23.041-5.271 4.391-11.905 7.782-13.212 8.544 2.011-.934 14.213-10.563 18.53-14.278 4.215-4.134 10.135-10.459 11.34-11.64 1.204-1.182 1.148-2.944 2.807-3.792 1.658-.847 2.363-1.019 3.215-2.114.75-1.515 4.419-3.296 5.874-4.982 1.454-1.686 1.852-3.115 2.353-4.125.5-1.01 2.056-2.276 2.454-3.705.751-1.515 1.001-2.02 2.659-2.868 1.761-.428 3.669-1.781 4.068-3.21.398-1.429 1.602-2.61 2.306-2.781.705-.171 3.521-.857 4.272-2.372.5-1.009 14.591-18.204 18.898-25.024 4.66-6.907 7.161-11.956 7.911-13.471.751-1.514.695-3.277 1.399-3.448.954-.677 1.454-1.686 1.352-2.106-.204-.838.195-2.267 1.149-2.943.954-.677 2.103-3.62 3.843-10.261 2.093-6.726 2.594-7.736 2.646-22.846.155-14.692-.878-38.864-4.52-44.638Zm-47.15 85.185c-1.102 1.601-2.307 2.782-3.409 4.382-8.023 9.945-28.284 33.969-44.553 46.809-21.291 16.726-52.681 39.461-62.882 45.051-10.201 5.591-11.609 5.934-13.926 5.609-2.317-.324-1.408.343-6.236 1.961-4.827 1.619-9.497 5.419-11.507 6.353-2.011.933-22.673 9.513-45.958 16.51-23.637 7.084-61.571 13.649-61.571 13.649s60.061-13.725 85.8-24.428c26.092-10.789 35.339-15.704 39.61-18.075 4.272-2.371 34.885-16.037 62.948-40.183 25.654-21.784 45.787-38.672 57.923-53.17 2.557-3.287 4.011-4.973 3.761-4.468Z" fill="#79A5DB" fill-opacity=".42"/></svg>