<svg width="137" height="108" fill="none" xmlns="http://www.w3.org/2000/svg"><g clip-path="url(#a)"><circle cx="83" cy="53" r="50" fill="#FA9595"/><path opacity=".75" d="M17.252 93.374c.203 2.02.415 2.384.92 4.423.537 1.925.227 3.564-.464 4.55-.69.985-1.72 1.389-2.803 1.533-1.083.144-1.44-.134-2.36-.377-.918-.243-2.691-.281-3.423-.536-.69-.183-1.888-.069-2.922-.342-1.034-.274-2.6-.626-2.672-1.752-.072-1.125-.023-1.542.764-2.195.745-.725 1.436-1.71 1.492-2.618.055-.907 1.014-3.605.966-4.355-.047-.75.112-2.983.428-3.944.316-.962.19-2.348.463-3.382.274-1.034 1.095-5.305 1.441-6.381a144.674 144.674 0 0 0 1.33-4.567c.327-.774.869-3.52 1.136-4.064.266-.545.795-2.31 1.05-3.043.224-.616.546-2.068 1.08-3.157.533-1.088 1.305-3.773 1.79-4.445.484-.67.879-2.165 1.273-2.49.393-.327.98-1.155 1.477-1.639.54-.41 2.028-.693 3.36-1.08 1.404-.427 3.582-.528 4.58-.817 1.041-.217 2.075.056 2.196.765.12.708-.686 1.663-.995 2.134-.309.472-2.006 3.404-2.418 4.033-.412.629-2.941 6.477-3.53 8.473-.59 1.996-.403 3.151-.996 3.302-.478.18-.527.598-.449 1.234.12.708-.104 1.325-.36 2.056-.181.69-1.281 5.317-1.367 6.34-.013.98-.452 3.569-.61 4.633-.159 1.065.29.999-.153 1.743-.443.743.18 1.645-.19 2.347-.068.72-.178 2.535-.035 3.618Z" fill="#FA9595" fill-opacity=".43"/><path opacity=".75" d="M57.411 41.899c-.43-.237-1.555-.165-2.886.22-.605-.036-1.21-.073-1.585-.05-.907-.055-4.133.752-4.871.987-.594.151-.884.32-.903.623-.496.483-.95 1.04-1.623 1.722-1.066 1.01-1.964 3.477-2.892 6.06-1.001 2.624-4.678 17.697-5.11 19.796-.431 2.1-1.372 4.494-1.734 3.538-.404-1.03-1.56-6.191-2.114-8.981-.174-.968-1.627-5.471-1.99-6.427-.289-.999-2.541-5.037-3.266-5.782-.726-.745-1.258-.824-2.196-.764-.938.059-2.093.245-2.802.366-.707.12-3.207.504-4.133.752-.853.204-1.29 1.626-1.224 2.073 0 0 .876 1.338 1.51 2.428.592 1.017 2.36 4.558 2.741 5.212.38.654 1.522 2.615 1.709 3.771.186 1.156 1.318 5.943 1.413 7.444.138 1.573 1.046 6.977 1.026 8.447.022 1.542.76 7.823.946 8.98.187 1.155.803 1.38 1.662 1.852.817.4 2.263.045 3.473.119s3.95-.063 4.973.023c0 0 1.21.074 2.215-.705 1.005-.78.86-.695 2.659-2.617 1.799-1.922 1.141-3.387 2.117-5.22.976-1.831 1.822-6.894 2.254-8.993.432-2.1 2.883-13.93 3.678-16.241.224-.617.57-1.693.977-3 .26 1.114.548 2.112.741 2.778.664 2.142 1.386 5.223 1.96 6.542.688 1.35 2.066 2.882 3.046 2.895 1.053-.029 3.334-.286 4.889-.121 1.554.165 4.138-.075 5.082-.624.945-.55.105-1.325-.36-2.124-.465-.8-.917-2.579-1.188-3.88-.344-1.258-1.382-3.377-1.592-4.908-.283-1.489-1.936-6.167-2.044-6.688-.108-.52-2.42-6.663-3.035-8.056-.096-.332-.338-.58-.537-.756.163-.388-.484-.497-.986-.691Z" fill="#FA9595" fill-opacity=".43"/><path opacity=".75" d="M57.182 69.75c1.343-.199 4.767.337 6.444.042 1.633-.367 4.222.071 5.57-3.63 1.347-3.701 1.535-10.229 3.095-14.735 1.602-4.433 3.634-9.797 4.775-13.184 0 0 1.164 3.504 2.372 5.913 1.207 2.41 3.856 3.786 6.149 3.716 2.293-.07 4.804-.267 6.656-.761 1.779-.452 3.681-2.532 4.584-4.322.831-1.747 1.39-4.796 2.058-6.156.625-1.434 2.376-9.454 3.428-9.483 1.053-.03 4.646.797 6.491.793 1.846-.004 6.172-.09 7.383-1.184 1.211-1.094 2.236-3.343 2.715-4.692.48-1.349.597-3.654.713-4.791.189-1.18.081-1.7 1.372-4.494 1.292-2.794 1.171-2.334 1.771-4.142.601-1.809.456-1.724.154-1.743-.261.055-.303-.018-.46-.121-.157-.103-.242-.248-.139-.406.061-.23.152-.574.358-.889.206-.314.618-.943.4-.816-.218.127-.248.242-.405.139-.157-.103-.242-.248-.066-.448.175-.2.381-.514.109-.647-.272-.134-.732-.255-.732-.255s-.011-.188-.187.012c-.134.272-.297.659-.443.744-.145.084-.356-.28-.326-.394.031-.115.255-.732.534-1.089.236-.429.121-.46.327-.774.206-.314.182-.69-.066-.447-.248.241-.557.713-.763 1.027-.134.272-.34.587-.37.702-.103.157-.133.272-.248.241-.115-.03-.399-.35-.399-.35s-.054-.261.006-.49c.061-.23.206-.315.309-.473.061-.23-.169-.29-.356-.278-.115-.03-.708.12-.739.235-.103.157-.442.744-.587.828-.146.085-4.51 7.292-5.043 8.38-.503.974-2.371 4.784-2.783 5.412-.412.63-.969 1.342-1.326 1.064-.357-.279-4.688-.87-6.116-.817-1.386.125-5.493.084-6.855.585-1.393.616-3.687 1.854-4.36 3.704-.674 1.85-4.359 13.233-4.359 13.233s-2.746-5.89-3.084-6.47c-.338-.582-.737-.933-1.614-1.103-.878-.17-8.205.106-8.985.268-.781.163-3.42 1.31-3.802 1.823-.382.514-3.878 5.369-4.89 7.806-1.013 2.437-3.022 8.177-3.44 9.295-.492 1.162-3.045 6.634-3.651 7.765-.649 1.058-1.803 10.773-2.645 12.334-.8 1.632-1.074 2.666-.488 3.006.545.267 1.954.516 1.954.516Z" fill="#FA9595" fill-opacity=".43"/><path d="M72.736 19.31c-2.964.39-5.928.871-8.854 1.458-.377.072-.453.516-.472.819-.812 8.984-1.623 18.005-1.36 27.043.246 8.308 1.379 16.635 4.116 24.552 1.492 4.306 3.436 8.469 5.928 12.33.132.195.321.498.642.444 9.232-1.6 18.407-3.683 27.789-4.359a79.285 79.285 0 0 1 7.967-.177c.717.017.642-1.584-.019-2.01a113.433 113.433 0 0 1-4.965-22.596 114.888 114.888 0 0 1-.208-23.894 108.964 108.964 0 0 1 2.096-13.255c.094-.462-.076-1.28-.699-1.316-10.666-.659-21.389-.41-31.96.96Zm23.24.604c2.68.018 5.361.107 8.042.25a115.96 115.96 0 0 0-2.303 22.968c0 8.13.868 16.262 2.567 24.214a119.986 119.986 0 0 0 3.228 11.974c-9.194-.196-18.255 1.423-27.223 3.096-2.51.462-5.04.943-7.55 1.37-4.135-6.583-6.684-13.93-8.043-21.457-1.51-8.362-1.624-16.884-1.17-25.353.245-4.786.66-9.554 1.094-14.304 10.27-2.028 20.823-2.847 31.358-2.758Z" fill="#fff"/><path d="M76.136 58.646c.189-.516-.095-1.44-.585-1.316-2.38.551-4.739 1.139-7.118 1.69-.453.107-.377.73-.302 1.032.85 3.291.925 6.725 1.775 10.034.038.16.264.552.51.48 2.265-.711 4.606-1.067 6.758-2.063.227-.107.245-.534.208-.712-.51-3.06-.755-6.12-1.246-9.145Zm-5.57 10.337c-.622-2.81-.773-5.71-1.377-8.54 2.076-.462 4.172-.925 6.248-1.387.397 2.74.585 5.497 1 8.237-1.868.8-3.907 1.12-5.87 1.69ZM67.64 53.86c.019.232.226.712.547.659 2.643-.463 5.343-.445 7.986-.907.359-.072.377-.57.34-.819-.17-1.726-.321-3.47-.491-5.195.774-1.12 1.548-2.242 2.322-3.345 1.548-2.242 3.077-4.519 4.663-6.743.227-.32.189-.836 0-1.174-.132-.231-.51-.551-.736-.213-1.51 2.259-3.096 4.483-4.644 6.742-.605.872-1.209 1.744-1.794 2.616-.075-.783-.15-1.584-.226-2.366-.02-.25-.246-.766-.586-.73-1.227.178-2.454.338-3.68.516-.076-.231-.17-.463-.246-.712-.284-.765-.85-.16-.642.41.037.142.094.267.132.409-1.076.16-2.152.32-3.21.498a.275.275 0 0 0-.207-.036c-.113.018-.189.072-.227.16-.302.232-.264.908-.019 1.264.227 2.97.472 5.978.718 8.967Zm7.08-9.838c.094.89.17 1.78.264 2.669-.265.391-.548.782-.812 1.192-.227.32-.472.64-.68.978-.528-1.459-1.076-2.918-1.605-4.394.945-.143 1.888-.303 2.832-.445Zm-3.606.57c.66 1.92 1.321 3.824 1.963 5.746.056.178.32.64.604.427.49-.374.793-.943 1.133-1.423.132-.178.245-.356.377-.534.114 1.12.227 2.242.34 3.38-2.34.392-4.72.463-7.06.836-.227-2.65-.472-5.284-.699-7.935 1.095-.178 2.228-.338 3.341-.498Z" fill="#fff"/><path d="M67.75 40.339c.227.053.36-.09.454-.25 1.718-.32 3.455-.213 5.173-.515.717-.125 1.416-.178 2.133-.285.585-.089.944-.338 1.133-.872.453-1.28.264-2.864.264-4.18 0-1.922.038-3.826.056-5.747 0-.267-.15-.925-.566-.89-2.964.302-5.928.516-8.892.765-.302.018-.377.445-.377.658-.057 3.452.132 6.886.113 10.337 0 .303.132.908.51.979Zm8.288-11.191c-.018 1.405-.018 2.811-.037 4.216-.02 1.3.132 2.723-.132 4.004-.114.516-.68.498-1.152.533-.698.054-1.34.232-2.02.338-1.454.232-2.945.232-4.399.516-.019-2.935-.132-5.87-.17-8.806 2.643-.339 5.267-.534 7.91-.801ZM80.532 29.967c3.19-.09 6.362-.16 9.552-.25 1.567-.035 3.134-.088 4.72-.124.793-.018 1.567-.036 2.36-.071.66-.018 1.718.16 2.265-.214.227-.16.189-.694-.056-.818-.586-.32-1.322-.142-2.002-.107-.83.018-1.66.053-2.492.071-1.604.054-3.228.09-4.833.143-3.228.089-6.456.195-9.684.284-.434.018-.302 1.103.17 1.086ZM78.89 35.5c3.172-.232 6.344-.499 9.497-.766 1.567-.124 3.115-.267 4.682-.391 1.567-.125 3.247-.427 4.833-.303.547.036.377-1.548-.208-1.387-1.473.391-3.134.391-4.663.551-1.605.16-3.21.303-4.814.463-3.153.302-6.324.605-9.477.943-.378 0-.245.925.15.89ZM88.515 45.587c1.284-.124 2.567-.267 3.851-.391.642-.071 1.284-.125 1.926-.196.66-.071 1.435-.035 2.058-.249.377-.124.358-1.032-.076-1.103-.623-.071-1.265.089-1.888.142l-2.058.214c-1.283.142-2.567.284-3.85.409-2.663.285-5.306.57-7.968.854-.453.053-.302 1.156.17 1.103 2.606-.25 5.21-.516 7.835-.783ZM91.841 50.285c.51-.018.321-1.37-.188-1.246-2.02.445-4.154.57-6.212.837-2.076.249-4.134.516-6.21.765-.416.053-.265 1.05.15.996 2.077-.231 4.154-.463 6.23-.712 2.058-.231 4.172-.605 6.23-.64ZM98.746 57.508c-5.984.694-11.988 1.317-17.991 1.94-.472.053-.321 1.21.17 1.156 6.003-.587 12.006-1.192 18.01-1.726.585-.036.396-1.441-.19-1.37ZM93.35 63.041c-1.775.338-3.663.391-5.457.57-1.812.177-3.643.373-5.456.55-.528.054-.358 1.335.19 1.3 1.83-.16 3.643-.32 5.474-.498 1.812-.16 3.662-.463 5.475-.48.566 0 .396-1.549-.227-1.442Z" fill="#fff"/></g><defs><clipPath id="a"><path fill="#fff" transform="translate(-317 -3975)" d="M0 0h1920v9211H0z"/></clipPath></defs></svg>