<svg width="171" height="108" fill="none" xmlns="http://www.w3.org/2000/svg"><g clip-path="url(#a)"><circle cx="95" cy="56" r="46" fill="#FA9595"/><path opacity=".75" d="M17.762 30.548c-1.91 1.223-2.164 1.616-3.94 3.149-1.646 1.505-3.435 2.023-4.765 1.832-1.33-.19-2.251-1.012-2.94-2.018-.69-1.005-.593-1.501-.815-2.54-.222-1.037-1.078-2.822-1.193-3.68-.166-.778-.884-1.913-1.134-3.081-.249-1.168-.688-2.906.397-3.545 1.084-.639 1.525-.8 2.571-.346 1.098.376 2.428.567 3.36.164.931-.402 4.101-.808 4.824-1.234.723-.426 3.027-1.393 4.144-1.564 1.117-.17 2.433-.994 3.601-1.244 1.168-.25 5.835-1.586 7.081-1.784 1.247-.199 4.31-.785 5.219-.98.936-.064 3.944-.91 4.62-.919.677-.008 2.702-.373 3.56-.489.727-.087 2.335-.499 3.688-.516 1.353-.018 4.416-.605 5.329-.46.913.144 2.6-.217 3.123.01.524.228 1.645.396 2.377.646.68.33 1.713 1.67 2.77 2.8 1.134 1.183 2.332 3.301 3.124 4.15.741.927.99 2.095.346 2.572-.644.477-2.002.156-2.627.086-.626-.07-4.402-.28-5.236-.374-.834-.093-7.933.338-10.218.759-2.285.42-3.341 1.189-3.79.674-.422-.385-.862-.223-1.456.175-.644.477-1.372.565-2.229.68-.779.166-5.941 1.405-7.003 1.835-.982.482-3.782 1.351-4.922 1.73-1.14.38-.848.792-1.812.727-.964-.066-1.548 1.009-2.433.994-.751.296-2.614 1.102-3.62 1.791Z" fill="#FA9595" fill-opacity=".43"/><path opacity=".75" d="M89.278 44.573c.019-.547-.62-1.632-1.676-2.763-.268-.62-.537-1.242-.75-1.604-.402-.931-2.833-3.736-3.44-4.353-.449-.514-.764-.718-1.074-.584-.732-.25-1.515-.423-2.535-.748-1.542-.552-4.453-.202-7.492.176-3.12.327-19.984 4.27-22.292 4.898-2.308.63-5.167.9-4.397.058.82-.922 5.378-4.677 7.877-6.635.876-.662 4.627-4.381 5.396-5.224.849-.792 3.734-5.072 4.11-6.17.376-1.098.186-1.668-.346-2.571-.533-.904-1.301-1.961-1.778-2.606-.477-.644-2.12-2.939-2.834-3.736-.634-.747-2.27-.465-2.682-.173 0 0-.891 1.547-1.656 2.728-.715 1.102-3.349 4.65-3.808 5.359-.46.709-1.837 2.835-2.894 3.603-1.057.769-5.252 4.31-6.698 5.163-1.498.93-6.421 4.56-7.895 5.282-1.525.8-7.408 4.703-8.465 5.472-1.057.768-.969 1.496-1.007 2.59.014 1.014 1.097 2.275 1.634 3.517.537 1.243 2.055 3.903 2.485 4.965 0 0 .537 1.242 1.82 1.85 1.283.608 1.126.505 3.947 1.327 2.822.822 3.948-.572 6.265-.524 2.317.048 7.786-1.663 10.094-2.292 2.308-.629 15.326-4.157 18.028-4.53.728-.088 1.974-.286 3.48-.54a58.8 58.8 0 0 0-2.392 2.14c-1.799 1.74-4.502 4.014-5.527 5.25-.997 1.367-1.827 3.512-1.346 4.494.56 1.034 1.967 3.176 2.587 4.807.62 1.632 2.162 4.084 3.185 4.747 1.024.663 1.372-.564 1.933-1.43.562-.867 2.105-2.214 3.264-3.14 1.08-.977 2.667-3.08 4.085-4.062 1.34-1.032 5.165-5.038 5.629-5.408.464-.37 5.416-5.77 6.492-7.086.282-.264.408-.63.482-.917.468-.032.25-.732.19-1.33Z" fill="#FA9595" fill-opacity=".43"/><path opacity=".75" d="M61.43 58.394c.875 1.238 2.068 4.918 3.207 6.438 1.19 1.442 2.06 4.242 6.425 3.716 4.365-.526 10.96-3.63 16.234-4.35 5.223-.641 11.59-1.323 15.538-1.895 0 0-2.902 2.927-4.692 5.344-1.79 2.418-1.825 5.75-.598 7.998 1.226 2.248 2.689 4.649 4.115 6.244 1.348 1.544 4.378 2.389 6.616 2.386 2.159-.055 5.478-1.035 7.169-1.057 1.742-.101 10.613-2.403 11.173-1.37.56 1.034 1.549 5.03 2.484 6.865s3.203 6.1 4.903 6.754c1.7.654 4.457.54 6.042.337s3.94-1.248 5.131-1.706c1.27-.407 1.733-.778 5.167-.9 3.434-.124 2.915-.013 5.018-.327 2.104-.313 1.947-.416 1.813-.726-.186-.232-.135-.31-.111-.52.023-.208.125-.365.334-.342.259-.055.648-.139 1.065-.092.417.047 1.251.14 1.015-.013-.236-.153-.366-.126-.342-.334.023-.209.125-.366.412-.292.287.075.704.121.7-.217-.004-.338-.115-.857-.115-.857s.18-.107-.107-.181c-.338.004-.806.036-.964-.066-.157-.102.098-.495.228-.523.13-.028.857-.115 1.353-.018.547.02.519-.11.936-.064.417.046.778-.166.412-.292-.366-.125-.991-.195-1.408-.242-.338.005-.755-.042-.885-.014-.209-.023-.338.004-.366-.125-.028-.13.149-.575.149-.575s.231-.185.491-.24c.259-.056.417.046.625.07.26-.056.204-.316.098-.496-.028-.13-.477-.645-.607-.617-.208-.023-.963-.066-1.121-.168-.157-.102-9.536-.812-10.889-.794-1.223-.01-5.959.052-6.793-.041-.834-.093-1.825-.289-1.728-.784.098-.496-1.498-5.108-2.271-6.503-.824-1.316-2.856-5.428-4.041-6.531-1.315-1.076-3.705-2.736-5.888-2.474-2.183.263-15.376 2.336-15.376 2.336s4.479-5.706 4.888-6.336c.408-.63.556-1.205.284-2.164-.273-.96-4.245-8.116-4.8-8.812-.556-.695-3.029-2.745-3.733-2.866-.705-.12-7.302-1.153-10.24-.933-2.938.22-9.667 1.116-10.992 1.263-1.404.097-8.142.315-9.574.282-1.38-.112-11.637 3.64-13.616 3.587-2.03.027-3.197.276-3.24 1.031.01.677.472 2.206.472 2.206Z" fill="#FA9595" fill-opacity=".43"/><path d="M81.957 51.61c2.234-.209 4.499 0 6.733-.18.447-.029.298-.684.208-.923-1.28-3.187-.983-7.924 1.996-10.099 2.8-2.056 7.478-1.609 8.104 2.354.625 4.17-2.324 7.567-4.916 10.427-1.43 1.549-2.98 3.128-3.932 5.034-.835 1.669-1.281 3.516-1.222 5.393.03 1.102.268 2.174.656 3.217.297.805.834 2.354 1.817 2.473 1.102.149 2.264.03 3.366.09 1.222.059 2.443.089 3.635.118.328 0 .357-.298.268-.625-.03-.209-.149-.417-.238-.566-1.43-2.354-.596-5.75.417-8.104 1.251-2.86 3.426-4.975 5.571-7.18 2.085-2.174 4.081-4.468 5.005-7.388.774-2.532.685-5.273 0-7.805-1.46-5.273-5.541-9.623-10.904-10.874-5.392-1.251-11.38.566-15.194 4.618-4.945 5.243-5.54 12.9-2.353 19.245.179.328.536.804.983.775Zm1.698-17.547c3.367-4.29 9.146-6.495 14.508-5.572 5.214.894 9.117 4.856 10.159 10.01.477 2.443.269 5.065-.774 7.33-1.281 2.8-3.575 4.974-5.69 7.15-2.175 2.263-3.963 4.557-4.916 7.596-.715 2.324-.923 4.856-.03 7.12-1.936 0-3.873-.12-5.81-.12-1.757-3.395-.476-7.387 1.818-10.247 2.443-3.099 5.75-5.72 7.001-9.593 1.013-3.158.507-7.09-2.353-9.146-2.652-1.907-6.525-1.311-8.7 1.013-2.412 2.592-2.561 6.852-1.489 10.129-1.877.119-3.754 0-5.63.119-2.294-5.243-1.699-11.202 1.906-15.79ZM101.232 86.168c.715-3.307-.983-6.763-3.724-8.55-1.52-.983-3.336-1.46-5.273-1.103a7.222 7.222 0 0 0-3.992 2.145c-2.204 2.324-2.353 5.78-.953 8.58 1.43 2.86 4.29 4.827 7.537 4.499 3.098-.358 5.75-2.532 6.405-5.571Zm-6.345 3.545c-2.413.506-4.976-.298-6.227-2.532-1.191-2.145-.894-4.856.715-6.703 2.056-2.354 6.882-3.337 9.295-.805 1.311 1.4 1.639 3.456 1.251 5.273-.536 2.473-2.592 4.26-5.034 4.767Z" fill="#fff"/></g><defs><clipPath id="a"><path fill="#fff" transform="translate(-1058 -3971)" d="M0 0h1920v9211H0z"/></clipPath></defs></svg>