<svg width="146" height="108" fill="none" xmlns="http://www.w3.org/2000/svg"><g clip-path="url(#a)"><circle cx="82" cy="52" r="46" fill="#FA9595"/><path opacity=".75" d="M114.161 29.931c.551.823.958 1.989.591 1.847-.419-.067-.517.752-.742 1.484-.224.732-.597-.079-.959.448-.362.526-.431 1.032-.902 1.04-.471.009-.489.44-.799.891-.362.527-.683-.359-1.465.1-.396.171-.414.602-.471 1.227-.121.582-.506.87-1.023.404-.517-.466-1.418-.643-2.365-1.294-.948-.652-7.309-5.471-9.118-6.494-1.808-1.022-5.368-2.474-6.23-2.845-.976-.34-10.864-3.819-17.491-5.276-6.627-1.457-17.878-2.55-23.036-2.22-5.157.33-17.099 1.864-22.82 3.689-5.773 1.9-10.495 3.083-14.574 6.037C8.627 32 2.317 37.52.955 39.904c0 0-.184-.68.897-2.927 1.081-2.248 5.225-8.813 8.432-12.257 2.936-3.187 10.928-8.989 18.919-11.136 7.99-2.147 15.509-4.287 24.279-4.457 8.77-.17 13.824-.35 22.622 1.604 8.85 1.878 9.964 2.422 10.676 2.47.712.046 1.016.144 1.522.492.505.348 1.08.189 1.625.343.493.229 7 2.267 12.839 5.952 5.902 3.727 10.018 7.888 11.395 9.943Z" fill="#FA9595" fill-opacity=".43"/><path opacity=".75" d="M125.345 81.163s-8.352 1.456-12.987 1.702c-4.571.289-20.143 2.095-32.7-2.777-12.56-4.872-21.913-9.534-35.06-19.908-13.146-10.373-16.605-18.735-16.747-23.263-.141-4.529 2.408-12.967 4.38-16.375 0 0-6.345 7.6-8.115 10.038-1.822 2.514-6.765 9.97-4.68 18.163 2.024 8.15 10.376 17.107 18.287 23.325S59.276 86.45 67.523 88.8c8.246 2.35 22.126 5.03 25.917 5.2 3.842.095 5.651-.1 5.284-.243-.368-.142-3.78-.052-4.491-.098-.713-.047-5.531-.482-7.208-.749-1.436-.212-2.906-.78-3.21-.879.43.186 3.67.752 4.864.91 1.246.081 3.078.123 3.435.146.356.024.626-.234.993-.092.368.142.494.23.787.21.345-.096 1.143.231 1.614.223.47-.008.752-.147.982-.21.23-.064.649.003.93-.136.345-.095.46-.127.827.015.316.217.799.328 1.08.189.282-.139.638-.115.764-.029.126.087.632.435.976.34.23-.064 4.928-.266 6.611-.549 1.746-.239 2.895-.556 3.24-.651.344-.096.614-.353.741-.266.241.055.471-.008.522-.084a.663.663 0 0 1 .627-.234c.241.056.867-.178 2.159-.84 1.356-.618 1.586-.682 3.976-2.804 2.339-2.047 6.005-5.618 6.402-7.007Zm-20.081 4.576c-.408.052-.764.028-1.172.08-2.699.137-9.344.33-13.663-.426-5.64-.999-13.65-2.743-15.97-3.564-2.32-.82-2.573-.994-2.849-1.405-.275-.411-.252-.174-1.188-.707-.936-.533-2.194-.733-2.624-.919-.43-.185-4.697-2.234-9.084-4.92-4.45-2.728-10.833-7.784-10.833-7.784S58.513 73.63 63.83 76.18c5.38 2.593 7.458 3.358 8.434 3.697.977.34 7.448 3.24 15.213 4.261 7.052.974 12.554 1.768 16.551 1.638.879-.06 1.35-.069 1.235-.037Z" fill="#FA9595" fill-opacity=".43"/><path opacity=".75" d="M143.13 90.073c.678-1.527 1.937-3.763 2.358-6.133.42-2.37.251-9.022-.833-12.315-1.084-3.294-4.36-9.757-7.413-14.516-3.168-4.727-5.625-6.971-6.87-8.271-1.246-1.3-2.756-2.893-3.485-3.727-.78-.758-5.597-4.847-7.273-6.333-1.613-1.442-4.311-3.741-5.879-4.708-1.504-.925-6.832-4.811-7.664-5.495-.833-.683-3.066-2.44-4.381-3.235-1.315-.793-3.91-2.025-5.277-2.743-1.366-.719-8.526-4.647-10.823-5.23-2.234-.54-3.107-1.03-4.17-1.65-.998-.576-2.411-.55-2.664-.725-.252-.174-5.857-2.035-7.557-2.54-1.7-.504-8.195-1.206-12.215-1.313-3.969-.182-8.3.163-11.194.719-2.895.556-4.934.816-9.11 3.37-4.063 2.524-6.315 4.852-8.637 7.686-2.322 2.834-5.04 5.838-6.828 8.707-1.787 2.87-2.794 5.28-2.903 5.98 0 0 10.494-12.28 24.41-14.116 13.855-1.88 31.702 3.418 51.953 14.69 20.251 11.273 35.288 31.477 37.502 37.32 0 0 .483.11-.338-1.672-.883-1.827-2.26-3.882-2.26-3.882s1.337 1.03 3.116 4.802c1.778 3.772 2.409 6.642 2.804 8.908.383 2.148.543 5.027-.389 7.598-.88 2.497-2.611 5.96-4.266 8.366-1.655 2.406-3.12 3.724-2.672 3.479.448-.246 4.372-2.975 7.486-6.15 3.052-3.218 4.793-5.344 5.472-6.871Zm-9.145-31.881c-1.411-2.411-2.898-3.767-3.489-4.395-.592-.628-.804-.996-1.447-1.549-.643-.553.333-.214-.321-.886-.655-.671-1.665-1.366-2.761-2.342-1.097-.976-1.745-2.198-3.198-3.197-1.389-.956-3.502-3.295-5.155-4.543-1.654-1.248-3.37-2.54-4.708-3.571-1.337-1.031-2.204-2.07-3.53-2.983-1.264-.869-2.865-2.192-1.447-1.549.735.284 3.187 1.86 4.387 2.686 1.136.782 3.571 2.788 4.466 3.515.896.727 11.384 9.826 12.739 11.644 1.354 1.818 6.124 7.868 7.863 10.615 1.675 2.704 2.438 5.112 2.438 5.112s-4.425-6.146-5.837-8.557Z" fill="#FA9595" fill-opacity=".43"/><path opacity=".75" d="M143.458 89.19c.184-.538-8.739 5.4-12.099 6.633-3.361 1.233-14.716 2.727-20.109 2.452-5.393-.276-20.709-3.168-22.093-3.456-1.32-.244-1.86-.947-2.762-1.124-.901-.177.374-.408-.717-.715-1.091-.308-9.36-2.895-11.008-3.474-1.648-.58-7.643-2.82-9.797-3.748-2.153-.928-17.57-8.542-22.864-12.073-5.356-3.574-14.33-10.412-17.556-13.296-3.226-2.884-7.175-7.152-10.08-10.368-2.904-3.217-4.194-7.428-4.98-10.073-.837-2.57-.428-5.058.056-7.384.495-2.207 2.571-8.201 4.588-11.134 0 0-2.958 1.731-6.2 6.037C4.596 31.774-.457 39.93-.029 44.988c.429 5.058 3.405 13.31 10.799 20.28 7.33 6.925 16.344 13.57 17.86 14.612 1.516 1.043 6.24 4.182 7.188 4.834.948.652 1.63 1.01 2.44 1.457.81.446 1.057-.049.678-.31-.379-.26-.304-.098-.924-.413-.62-.316-.976-.34-1.189-.707-.212-.368-.401-.498-.832-.684-.43-.185-.569-.39-1.074-.738-.505-.348-.379-.261-.999-.577-.62-.316-.499-.897-.499-.897s.546.154 1.05.501c.506.348 3.032 2.085 3.59 2.358a6.211 6.211 0 0 1 1.515 1.043c.39.379.947.651 1.326.912.379.26.678-.31 1.057-.049.379.261.086.281.591.629.505.347 1.292.556 1.734.86.442.304 1.591-.013 2.223.421.631.435 1.165.47 1.033.933-.132.463.109.518.264.292.155-.226.517-.752 1.011-.523.494.229 1 .577 1.671.817.672.24 2.205.852 2.647 1.156.442.305.666.79.666.79s-1.62-.891-2.354-1.175c-.735-.285-1.89-.636-1.384-.288l1.516 1.043c.378.26.401.498 1.01.695.609.197.953.102 1.637.461.683.36.964.22 1.596.655l1.137.782c.252.174.999.577 1.492.805.494.23.816-.103 1.31.126.494.229 1.924.99 2.417 1.22.494.228 1.344.48 1.89.635.545.153 1.458.449 2.015.721.557.273.212.368.907.846.695.478.677.909 2.113 1.121 1.436.212 1.298.007 2.073.097.776.09 2.12.571 2.98.942.862.371 1.333.363 1.712.624.379.26.631.434.775.09.144-.344.73-.384.712.047-.017.431.477.66.477.66.901.177 1.97.247 2.349.508.378.26.734.284 1.7.504.964.221.964.221 1.458.45s1-.642 1.671-.401c.672.24 1.901.753 2.74.887.838.134 1.228.513 2.067.647.838.133.516.466-1.488-.137-2.004-.604-2.274-.346-1.654-.031.62.316 1.74.311 2.78.694 1.039.383 1.395.406 1.803.354.408-.052.362-.526 1.086-.361.723.166 2.096.334 2.82.5.723.165 1.837.71 2.549.757.712.046 1.51.374 2.16.377.648.004 1.538.062 1.286-.112-.253-.173-1.384-.287-2.286-.464-.901-.177-1.355-.6-1.355-.6s1.068.07 1.918.322c.85.253 1.246.082 1.97.248.724.165 1.361.05 1.172-.081-.19-.13-1.241-.631-.528-.584.712.046 1.499.255 2.515.401 1.017.145 2.573-.224 2.573-.224s-.132.462-.885.61c-.752.147-1.275.23-.488.439.787.209.316.217 1.321.244 1.005.027 2.492.164 3.853.214 1.362.05 1.551.18 2.189.065.637-.115.66.122.637-.115-.023-.238-.172-.562-.172-.562.954.102 1.453-.219 2.114-.097.66.122 2.246-.56 3.01-.588.764-.028 2.01.053 2.584-.105.575-.159 1.097-.243 1.965-.421.867-.179 2.734-1 3.36-1.234.626-.234 1.471-.65 2.022-1.046.552-.396 2.356-1.26 4.487-3.006 2.815-1.387 9.515-7.745 10.327-10.954Zm-39.945 11.406c-3.814-.408-9.011-1.103-10.154-1.335-1.08-.19-4.996-1.664-7.029-1.955-1.98-.366-7-2.268-8.877-2.784-1.878-.516-12.576-4.441-15.74-6.064-3.164-1.622-12.15-6.142-13.729-7.228-1.515-1.043-2.6-1.9-3.22-2.216-.62-.316-1.66-.698-2.48-1.263-.822-.565-1.293-.557-1.924-.991l-1.895-1.303c-.695-.478-18.975-13.94-21.035-17.572-.35-.574 10.34 8.774 11.235 9.5.896.728 8.227 6.436 11 7.679 2.722 1.318 9.68 6.216 11.478 7.12 1.86.947 14.625 6.737 15.876 7.487 1.252.75 8.091 2.575 10.285 3.309 2.13.69 10.457 3.87 13.08 4.788 2.625.92 7.191 1.18 9.896 1.712 2.642.487 12.727 1.11 14.788 1.089.127.087-7.627.403-11.555.027Z" fill="#FA9595" fill-opacity=".43"/><path d="M97.753 38.649c-.508.406.381 1.777.889 1.396 1.599-1.193 3.199-2.387 4.773-3.58 1.574-1.168 3.326-2.26 4.774-3.58.558-.508-.407-2.031-1.041-1.625-1.651 1.066-3.149 2.463-4.698 3.682-1.574 1.244-3.123 2.462-4.697 3.707ZM112.634 47.104c.965-.153 2.412-.102 3.199-.711.711-.559-.305-1.88-.914-2.031-1.066-.28-2.336.101-3.402.253-1.092.153-2.184.33-3.276.508-2.259.33-4.494.686-6.728 1.041-1.117.178.076 2.514 1.066 2.387 2.26-.305 4.52-.635 6.78-.94 1.066-.203 2.183-.355 3.275-.507ZM68.91 53.375c.609 2.463 1.853 4.596 3.199 6.678.558.863 1.142 1.726 1.726 2.59 1.016 1.523 1.803 3.174 2.717 4.748-1.93-.026-3.377 1.752-2.793 3.91.127.406.305.812.533 1.193-.99.533-1.37 1.6-1.219 2.666.204 1.549 1.092 2.666 2.286 3.352-.178.914.279 1.879.888 2.539.432.507.99.888 1.625 1.193.051 2.438.787 6.018 3.86 6.195 1.421.077 2.564-.736 3.326-1.879.38-.584.66-1.218.863-1.853.178-.559.33-1.143.355-1.727.026-.482.204-.558.534-.838.254-.203.482-.406.66-.66 1.092-1.37.94-3.326-.127-4.646 1.346-1.193 1.777-3.2.584-4.52.177-.152.33-.304.457-.482.736-.94.685-2.234 0-3.174a2.797 2.797 0 0 0-1.016-.863c.051-2.793 1.32-5.307 2.768-7.744.127-.203.254-.406.355-.61.965-1.624 1.98-3.224 2.717-4.85 1.117-2.487 1.676-5.103 1.193-7.82-.482-2.69-1.93-5.204-3.884-7.134a19.49 19.49 0 0 0-.737-.686c-4.62-3.884-11.629-3.757-16.224.127-4.012 3.453-5.916 9.14-4.647 14.295Zm13.304 33.21c-.813.356-1.803.28-2.387-.456-.685-.889-.66-2.21-.71-3.276 0-.025 0-.05-.026-.101a11.61 11.61 0 0 0 3.123.508c.762.025 1.6 0 2.387-.153-.381 1.448-.889 2.819-2.387 3.479Zm3.783-6.245c-.888.71-2.056.965-3.174.99-1.295.05-2.59-.178-3.808-.584-.33-.102-2.565-.736-1.448-1.295.432-.228.94-.076 1.422-.101 1.55-.077 3.098-.356 4.57-.762.56-.152 1.118-.305 1.651-.508.254-.102.508-.203.762-.33.304-.152.61-.483.94-.178.735.737-.33 2.285-.915 2.768Zm.889-5.51c-.584.457-1.295.635-1.98.863a24.854 24.854 0 0 1-5.46 1.143c-1.142.102-2.513.355-3.58-.152-.914-.432-1.218-1.143-.33-1.702 1.32-.838 3.403-.177 4.875-.355 1.524-.178 3.073-.457 4.545-.94.762-.253 1.574-.482 2.285-.888.026.025.026.025.051.025.736.559.102 1.6-.406 2.006Zm1.346-34.353a8.52 8.52 0 0 1 2.31 2.056 8.136 8.136 0 0 1 1.6 3.606c.38 2.285-.33 4.57-1.295 6.601l-.305.61c-1.168 2.26-2.64 4.418-3.758 6.728-.736 1.498-1.346 3.072-1.625 4.748-.178 1.041-.203 2.184.127 3.225.153.482.356.99.686 1.37.152.179.33.382.584.432.127.026.94-.126.533.204-.838.634-1.828.965-2.844 1.218-.558.127-1.142.28-1.701.381.076-1.625.229-3.224.254-4.85l.152-5.788a4.08 4.08 0 0 0 1.473-.762c.076-.076.152-.127.228-.203 1.32-1.27 1.473-3.352 0-4.647-.634-.558-1.523-.761-2.234-.279-.965.66-.99 1.955-.965 3.022v.482a6.266 6.266 0 0 0-.254-.736c-.355-.914-.99-1.829-1.955-2.159-.812-.279-1.7-.025-2.006.838-.431 1.27.33 2.616 1.346 3.504.33.28.66.508.99.66.33.153.711.28 1.092.356.28 1.472.483 2.945.635 4.443-.05 2.082-.076 4.19.127 6.272 0 .025 0 .05.025.076-.584.101-1.193.203-1.777.28-.787.1-1.625.202-2.412.1-.432-.05-1.041-.076-1.371-.406-.432-.457.025-1.218.406-1.548.482-.432 1.219-.584 1.803-.305.533.228.94-.025.94-.61 0-.736-.585-1.142-1.042-1.65-1.37-1.574-1.93-3.656-2.97-5.408a66.845 66.845 0 0 0-1.422-2.234c-.737-1.118-1.473-2.26-2.032-3.479-2.183-4.646-1.27-9.902 2.184-13.71 3.53-3.936 9.851-5.231 14.472-2.438Zm-8.938 16.96c.711.026.863 1.143.99 1.854-.558-.076-1.066-.28-1.422-.66-.406-.432-.279-1.219.432-1.193Zm3.58 1.346c0-.61.076-1.218.406-1.625.204-.254.686-.609.914-.279.153.229-.33.94-.457 1.143a3.108 3.108 0 0 1-.863.761ZM60.483 37.557a660.454 660.454 0 0 1 3.352 4.393c.61.787 1.244-.051.71-.762-1.091-1.473-2.208-2.945-3.3-4.444-.559-.736-1.092-1.472-1.65-2.208-.432-.559-.788-1.143-1.473-1.397-.203-.076-.356.152-.33.33.101.736.558 1.295.99 1.88.584.76 1.143 1.472 1.701 2.208ZM71.501 33.977c.026.406.33.94.711 1.117.356.152.66 0 .635-.406-.102-2.362-.178-4.698-.28-7.059-.1-2.336 0-4.773-.355-7.084-.076-.482-.33-1.015-.812-1.244-.432-.203-.686.026-.711.457-.076 1.143.076 2.31.152 3.453.076 1.219.127 2.438.203 3.656.153 2.362.305 4.723.457 7.11ZM87.725 19.225c-.482.813-.558 1.904-.761 2.818l-.686 3.276c-.457 2.133-.889 4.265-1.32 6.398-.127.686 1.218 2.184 1.472 1.168a452.794 452.794 0 0 0 1.498-6.271c.229-1.016.483-2.032.711-3.073.229-1.04.584-2.107.559-3.199-.025-.406-1.016-1.904-1.473-1.117ZM49.081 57.438c-.635.101-1.244.228-1.879.33-.635.101-1.04.152-1.193.812-.051.254.127.559.33.711.558.381.812.432 1.498.33a26.112 26.112 0 0 0 2.031-.406c1.346-.28 2.717-.533 4.063-.813 2.716-.558 5.433-1.04 8.15-1.548.736-.127-.05-1.65-.686-1.55-2.742.483-5.459.991-8.2 1.448-1.346.229-2.743.457-4.114.686Z" fill="#fff"/></g><defs><clipPath id="a"><path fill="#fff" transform="translate(-698 -3976)" d="M0 0h1920v9211H0z"/></clipPath></defs></svg>