<svg width="140" height="112" fill="none" xmlns="http://www.w3.org/2000/svg"><g clip-path="url(#a)"><path d="M123.579 11.163A37.006 37.006 0 0 0 97.301.366 37.046 37.046 0 0 0 75.208 7.57 37.093 37.093 0 0 0 53.098.377a36.898 36.898 0 0 0-26.302 10.81C12.4 25.673 12.4 49.25 26.808 63.749l35.839 35.844c3.344 3.339 7.802 5.18 12.555 5.18 4.754 0 9.218-1.841 12.562-5.18l35.833-35.844a36.842 36.842 0 0 0 10.791-26.284 36.862 36.862 0 0 0-10.809-26.302Z" fill="#FA9595"/><path opacity=".75" d="M72.474 9.912c.983.115 2.134.562 1.787.75-.322.275.237.881.648 1.527.41.646-.448.403-.282 1.02.165.617.505.999.206 1.363-.3.363.017.656.159 1.185.165.617-.717.287-.874 1.18-.128.412.189.705.627 1.154.363.47.333.95-.357 1.04-.69.091-1.41.662-2.52.96-1.11.297-8.906 2.008-10.858 2.72-1.952.712-5.367 2.477-6.209 2.892-.891.522-9.956 5.786-15.366 9.881-5.41 4.096-13.545 11.945-16.642 16.082-3.098 4.137-9.682 14.216-12.007 19.753-2.302 5.625-4.467 9.984-4.868 15.005-.377 5.11-.274 13.491.657 16.077 0 0-.636-.302-1.644-2.584-1.008-2.28-3.312-9.695-3.85-14.37-.519-4.302.256-14.147 3.809-21.62 3.553-7.471 6.807-14.58 12.37-21.361 5.563-6.783 8.707-10.744 15.904-16.168 7.173-5.513 8.31-6.006 8.808-6.518.498-.511.77-.679 1.363-.837.593-.159.845-.699 1.316-1.014.494-.227 6.268-3.853 12.861-5.903 6.667-2.07 12.504-2.5 14.962-2.214Z" fill="#FA9595" fill-opacity=".43"/><path opacity=".75" d="M118.703 34.66s-4.314 7.297-7.136 10.982c-2.748 3.666-11.481 16.683-23.339 23.073-11.858 6.39-21.476 10.48-37.9 13.746-16.426 3.267-25.032.47-28.568-2.361-3.537-2.832-8.301-10.248-9.613-13.96 0 0 1.662 9.76 2.368 12.689.73 3.017 3.192 11.617 10.779 15.348 7.512 3.75 19.748 3.213 29.613 1.23 9.865-1.981 24.932-7.058 32.072-11.806 7.14-4.748 18.189-13.566 20.779-16.34 2.566-2.86 3.592-4.363 3.245-4.176-.346.187-2.492 2.841-2.99 3.352-.498.512-3.956 3.895-5.248 4.997-1.093.955-2.48 1.704-2.752 1.872.42-.207 2.954-2.304 3.849-3.11.871-.895 2.092-2.262 2.341-2.517.249-.256.228-.629.575-.816.346-.187.494-.227.669-.463.152-.324.919-.719 1.218-1.082.3-.364.377-.668.478-.884.1-.216.423-.491.501-.796.151-.324.201-.432.548-.619.37-.1.767-.395.844-.699.078-.304.327-.56.475-.6.148-.039.74-.198.891-.522.101-.216 2.997-3.92 3.875-5.384.951-1.484 1.455-2.564 1.607-2.888.151-.324.13-.696.279-.736.198-.148.299-.364.275-.452a.661.661 0 0 1 .229-.628c.198-.148.427-.776.762-2.188.41-1.433.511-1.65.448-4.845-.039-3.108-.376-8.215-1.174-9.418Zm-9.555 18.245c-.225.343-.474.6-.699.943-1.648 2.142-5.815 7.322-9.193 10.117-4.42 3.641-10.948 8.603-13.078 9.835-2.13 1.232-2.426 1.312-2.918 1.254-.491-.057-.296.08-1.309.445-1.013.367-1.982 1.193-2.402 1.4-.421.207-4.749 2.123-9.639 3.717-4.964 1.613-12.954 3.187-12.954 3.187s12.635-3.196 18.026-5.586c5.465-2.409 7.396-3.493 8.288-4.016.892-.522 7.299-3.562 13.115-8.805 5.319-4.733 9.494-8.403 11.99-11.528.524-.708.824-1.071.773-.963Z" fill="#FA9595" fill-opacity=".43"/><path opacity=".75" d="M137.025 26.916c-.721-1.508-1.605-3.917-3.135-5.775-1.529-1.858-6.699-6.047-9.908-7.36-3.209-1.314-10.252-3.018-15.854-3.784-5.652-.66-8.954-.247-10.752-.143-1.797.103-3.988.218-5.096.231-1.084.102-7.32 1.112-9.539 1.422-2.144.292-5.644.851-7.398 1.416-1.679.544-8.094 2.074-9.154 2.264-1.06.19-3.847.747-5.304 1.232-1.458.485-4.08 1.66-5.513 2.233-1.433.573-9.07 3.47-11.004 4.838-1.86 1.35-2.8 1.695-3.96 2.101-1.088.386-1.986 1.477-2.282 1.556-.296.08-5.35 3.135-6.837 4.1-1.487.965-6.237 5.45-8.928 8.44-2.715 2.9-5.264 6.418-6.72 8.982-1.456 2.563-2.582 4.282-3.35 9.118-.717 4.727-.409 7.952.24 11.558s1.17 7.624 2.192 10.846c1.022 3.222 2.202 5.552 2.663 6.09 0 0-2.528-15.953 5.108-27.732 7.563-11.759 23.179-21.896 44.899-29.984 21.72-8.087 46.85-6.411 52.732-4.302 0 0 .397-.296-1.492-.829-1.963-.513-4.42-.8-4.42-.8s1.652-.348 5.676.747c4.023 1.095 6.616 2.48 8.596 3.65 1.882 1.102 4.176 2.85 5.527 5.227 1.328 2.29 2.839 5.854 3.595 8.675.756 2.822.807 4.792.911 4.292.104-.5.576-5.257.182-9.687-.467-4.41-.954-7.115-1.675-8.622Zm-30.187-13.739c-2.751-.491-4.747-.24-5.608-.198-.862.042-1.28-.035-2.118.095-.838.13.054-.393-.882-.33-.936.061-2.12.378-3.574.579-1.455.2-2.805-.099-4.508.357-1.629.437-4.78.525-6.802.973-2.023.447-4.12.915-5.772 1.263-1.653.348-3.006.333-4.56.75-1.482.396-3.528.756-2.118.094.693-.375 3.483-1.217 4.89-1.594 1.333-.357 4.44-.906 5.574-1.115 1.134-.21 14.863-2.282 17.125-2.132 2.263.15 9.961.45 13.18.91 3.144.48 5.471 1.463 5.471 1.463s-7.548-.624-10.298-1.115Z" fill="#FA9595" fill-opacity=".43"/><path opacity=".75" d="M136.566 26.094c-.29-.49-1.566 10.152-2.809 13.508-1.243 3.357-7.478 12.965-11.188 16.888-3.71 3.924-15.852 13.697-16.969 14.563-1.043.847-1.929.8-2.648 1.371-.72.571-.068-.549-1.01.082-.942.63-8.278 5.242-9.788 6.119-1.511.877-7.107 3.983-9.21 5.019-2.103 1.036-17.903 7.82-24.025 9.555-6.196 1.755-17.222 4.143-21.51 4.725-4.288.582-10.098.816-14.43.937-4.333.121-8.373-1.63-10.895-2.75-2.499-1.032-4.126-2.958-5.582-4.836-1.357-1.809-4.569-7.28-5.49-10.718 0 0-.604 3.375.568 8.636 1.171 5.26 4.096 14.399 8.221 17.356 4.126 2.958 12.335 6.05 22.436 4.95 10.027-1.081 20.932-3.625 22.71-4.101 1.776-.476 7.232-2.032 8.342-2.33 1.111-.298 1.828-.584 2.693-.91.865-.327.649-.836.205-.717-.445.119-.273.168-.916.435-.642.266-.891.522-1.309.445-.417-.077-.64-.018-1.06.189-.42.208-.666.179-1.259.338-.592.158-.444.119-1.087.385-.643.267-1.006-.202-1.006-.202s.47-.316 1.063-.474c.592-.159 3.554-.953 4.123-1.199a6.226 6.226 0 0 1 1.777-.477c.542-.05 1.11-.297 1.555-.416.444-.119.204-.717.649-.836.444-.119.27.117.861-.041.593-.159 1.262-.622 1.78-.761.519-.139 1.023-1.219 1.764-1.417.74-.199 1.113-.582 1.38-.181.266.401.464.253.393-.011-.07-.265-.236-.882.259-1.109.495-.227 1.087-.385 1.706-.74.62-.355 2.08-1.124 2.598-1.263a2.186 2.186 0 0 1 1.033.006s-1.73.653-2.423 1.027c-.693.375-1.709 1.025-1.117.867l1.777-.477c.445-.119.64.018 1.185-.317s.696-.659 1.413-.946c.717-.286.794-.59 1.535-.789l1.332-.357c.297-.08 1.088-.386 1.582-.613.495-.227.45-.687.945-.914.495-.227 2.003-.82 2.498-1.047.494-.227 1.238-.71 1.709-1.025.47-.316 1.288-.818 1.857-1.065s.418.077 1.232-.141c.815-.218 1.131.075 2.225-.88 1.093-.954.847-.983 1.42-1.514.571-.531 1.81-1.24 2.651-1.655.841-.415 1.14-.778 1.584-.897.445-.12.741-.199.572-.531-.168-.333.182-.805.498-.512.317.293.812.066.812.066.72-.57 1.466-1.338 1.911-1.457.444-.119.693-.374 1.487-.965.794-.59.794-.59 1.288-.818.495-.227.161-1.177.78-1.532.62-.355 1.807-.956 2.453-1.508.646-.55 1.188-.601 1.834-1.152.646-.551.69-.09-1.07 1.042-1.759 1.133-1.739 1.506-1.096 1.239.643-.267 1.366-1.122 2.332-1.664.965-.542 1.214-.798 1.439-1.142.226-.344-.165-.617.431-1.06.595-.443 1.614-1.378 2.21-1.82.596-.444 1.733-.938 2.231-1.449.498-.511 1.265-.906 1.689-1.397.424-.492 1.046-1.131.75-1.052-.297.08-1.117.867-1.837 1.437-.72.571-1.336.642-1.336.642s.747-.767 1.49-1.25c.744-.483.871-.895 1.467-1.338.595-.443.922-1.003.699-.943-.222.06-1.285.533-.787.022.498-.511 1.167-.974 1.938-1.653.77-.68 1.499-2.103 1.499-2.103s.267.401-.11 1.069c-.376.668-.652 1.12.017.657.67-.463.371-.1 1.043-.847.673-.747 1.743-1.79 2.664-2.792.922-1.003 1.144-1.063 1.47-1.623.327-.56.522-.423.327-.56-.196-.136-.539-.233-.539-.233.696-.659.777-1.247 1.298-1.67.522-.424 1.032-2.072 1.506-2.672.475-.6 1.346-1.494 1.598-2.034.252-.54.528-.992.955-1.768.427-.776 1.014-2.729 1.243-3.357.228-.628.46-1.54.517-2.217.057-.677.57-2.61.626-5.365.772-3.041.284-12.265-1.629-14.965Zm-17.254 37.789c-2.785 2.636-6.688 6.138-7.606 6.857-.845.699-4.509 2.72-6.05 4.078-1.564 1.27-6.269 3.853-7.88 4.946-1.612 1.093-11.542 6.683-14.83 8.037-3.287 1.353-12.559 5.255-14.41 5.75-1.777.477-3.133.746-3.776 1.012-.643.267-1.608.81-2.571 1.067-.963.258-1.262.622-2.002.82l-2.222.596c-.814.218-22.92 5.385-27.02 4.594-.664-.106 13.386-2.17 14.52-2.379 1.134-.21 10.235-2.081 12.981-3.384 2.77-1.214 11.012-3.328 12.866-4.109 1.928-.8 14.618-6.751 16.002-7.216 1.383-.466 7.21-4.484 9.192-5.676 1.908-1.173 9.732-5.442 12.134-6.842 2.403-1.4 5.565-4.704 7.725-6.416 2.086-1.693 9.106-8.96 10.428-10.543.148-.04-4.645 6.064-7.481 8.808Z" fill="#FA9595" fill-opacity=".43"/><path d="M44.564 60.51c-1.009 2.046-2.364 3.862-3.517 5.822-.23.375.433 1.528.894 1.182 1.384-1.095 2.421-2.565 3.286-4.122 2.883-2.854 6.4-4.987 10.493-5.823 6.804-1.384 13.838-.058 20.67.029 3.66.058 7.293-.346 10.608-1.932.144-.057.144-.288.173-.403l.346-16.374c0-.49-.519-1.24-1.067-1.182a618.953 618.953 0 0 1-40.012 2.248c-.346 0-.375.52-.288.75 1.355 4.324 1.556 8.965.634 13.405a30.075 30.075 0 0 1-2.22 6.4Zm3.2-18.767c12.8-.346 25.599-1.125 38.34-2.278-.086 4.93-.172 9.83-.23 14.76-6.112 2.912-13.347 1.73-19.862 1.413-3.546-.173-7.12-.202-10.58.547a21.615 21.615 0 0 0-7.495 3.2 19.34 19.34 0 0 0-1.24.894 26.987 26.987 0 0 0 1.557-5.132c.923-4.439.779-9.08-.49-13.404Z" fill="#fff"/><path d="M58.083 46.96c7.928-.259 15.884-.49 23.812-.75.72-.028-.03-1.613-.692-1.585-7.899.289-15.826.606-23.725.923-.663.029.029 1.441.605 1.412ZM80.686 49.065c-7.235.634-14.5 1.355-21.736 2.018-.576.058.03 1.326.577 1.268 7.293-.576 14.587-1.066 21.88-1.672.75-.029-.029-1.672-.72-1.614ZM52.06 17.528c-.145 0-.289.173-.318.317-.375 3.805-.605 7.783 1.557 11.156.922 1.413 2.22 2.595 3.834 3.171 1.787.663 3.719.606 5.564.49 4.41-.288 8.82-.49 13.26-.461 4.209.058 8.677.058 12.655 1.585 3.863 1.5 5.795 5.247 7.61 8.706.116.317.404.721.721.808h.116c.317-.03.374-.318.317-.635A8302.727 8302.727 0 0 1 91.09 16.98c-.115-.432-.518-.98-1.008-.98-9.946.346-19.891.75-29.808 1.153-2.739.144-5.477.26-8.216.375Zm38.022.202c1.672 6.774 3.373 13.549 5.045 20.323-1.037-1.614-2.306-3.085-3.747-4.238-2.912-2.335-6.89-2.969-10.522-3.2-4.123-.288-8.274-.259-12.396-.115-2.19.087-4.382.23-6.573.375-1.845.115-3.834.23-5.535-.605-3.978-1.932-3.574-7.265-3.228-10.984 9.83-.374 19.66-.836 29.49-1.24 2.508-.115 4.987-.23 7.466-.316Z" fill="#fff"/><path d="M62.033 22.457c8.1-.375 16.23-.288 24.33.173.663.029-.029-1.499-.692-1.528-8.072-.461-16.172-.403-24.244.058-.576 0 .058 1.297.606 1.297ZM86.565 26.84c-.807-.549-1.499-.52-2.45-.549-1.009-.029-1.989-.057-2.998-.057-2.047-.03-4.094.028-6.14.115-4.036.173-8.072.577-12.05 1.124-.634.087.058 1.442.605 1.355 3.978-.519 7.957-.836 11.964-.98 1.96-.058 3.891-.086 5.852-.058 1.009 0 1.989.03 2.998.058.807.029 1.873.346 2.479-.346.115-.202-.115-.576-.26-.663ZM64.513 78.152c1.528.75 3.257.692 4.93.461 1.902-.26 3.776-.634 5.707-.807 3.834-.346 7.784-.23 11.416 1.067 3.401 1.21 6.457 3.43 8.216 6.63.201.346.519.519.778.49.173.029.317-.029.375-.202.057-.115.057-.317-.03-.548-1.642-7.639-2.968-15.307-4.612-22.946-.115-.49-.576-1.038-1.095-1.067-9.57-.26-19.141 0-28.712-.23-.173 0-.317.201-.317.317-.202 1.7-.317 3.43-.346 5.16-.029 1.441-.144 2.883-.115 4.324.029 2.825 1.124 6.025 3.805 7.35ZM62.264 68.12c.03-1.787.087-3.546.289-5.304 9.167.23 18.363.029 27.559.201 1.383 6.458 2.565 12.973 3.92 19.459-3.46-4.122-8.792-6.227-14.212-6.573-3.747-.23-7.35.346-11.04.894-1.586.23-3.431.404-4.815-.548-1.066-.75-1.528-2.104-1.7-3.344-.26-1.585-.03-3.2 0-4.785Z" fill="#fff"/><path d="M70.942 68.898c5.766-1.066 11.56-1.009 17.412-.75.75.03-.029-1.614-.606-1.671-5.794-.75-11.761-.144-17.469.951-.663.144.087 1.586.663 1.47ZM86.683 71.896c-2.22-.058-4.469.26-6.688.433-2.22.172-4.44.288-6.688.432-.606.029.029 1.326.576 1.297 2.249-.115 4.469-.26 6.717-.346 2.22-.086 4.526-.029 6.717-.346.75-.115-.087-1.47-.634-1.47Z" fill="#fff"/></g><defs><clipPath id="a"><path fill="#fff" transform="translate(-1459 -3977)" d="M0 0h1920v9211H0z"/></clipPath></defs></svg>