<svg width="92" height="64" fill="none" xmlns="http://www.w3.org/2000/svg"><path opacity=".75" d="M60.623 42.5c-.793.877-2.854 2.565-4.21 3.761-1.357 1.197-1.715 2.93-1.383 3.17.322.196 3.256 1.361 3.427 1.503.171.141.68-.027.952-.413.229-.376 1.154-1.468 1.252-1.63.141-.17 5.805-7.942 7.215-10.432 1.41-2.49 4.203-7.007 5.244-9.133 1.04-2.126 3.662-8.11 4.693-10.463 1.02-2.395 2.168-5.782 2.669-7.87.5-2.087.648-2.991.641-3.584a7.682 7.682 0 0 1 .119-1.4c.056-.334.089-.388.17-1.001.08-.614.146-.905.235-1.292.09-.387-.078-1.079-.494-1.664-.459-.575-1.51-1.326-1.907-1.459-.408-.175-1.196-.03-1.287.54-.09.57.041 1.682.131 2.62.09.939-.178 4.936-.434 5.958-.212 1.011-1.146 4.712-2.757 8.257-1.633 3.458-2.777 6.479-4.636 9.946-1.87 3.424-2.53 5.23-4.75 8.145-2.212 2.958-3.912 5.38-4.89 6.44Z" fill="#FBB116"/><path opacity=".75" d="M71.24 10.027c.681-.393 3.633-1.61 4.823-2.173 1.19-.562 3.877-2.31 4.562-3.07.641-.749.95-1.555.75-2.192-.2-.638-.685-.75-.908-1.107-.224-.357-.686-.565-1.152-.224-.466.341-1.625 1.033-2.113 1.471-.445.428-3.26 2.023-4.063 2.675-.846.662-4.329 2.327-5.206 2.86-.888.489-4.435 2.078-6.005 2.96-1.56.927-7.952 3.799-9.779 4.561-1.828.762-5.87 2.197-7.124 2.683-1.221.433-3.609 1.148-4.407 1.25-.788.145-1.37.194-1.661.127-.29-.067-.721-.146-1.284.173-.563.32-1.577.473-1.913.6-.335.127-.921.726-.73 1.137.2.454.271 1.123.538 1.47s.745 1.192 1.047 1.302c.3.11.709.285 1.163.084.454-.201 1.31-.637 2.183-.803.918-.176 3.1-.795 3.565-.953.454-.201.637-.2.93-.316.291-.117-.15-.239.175-.409.335-.126.25-.289.66-.296.42.035.776-.005.853-.253.077-.247.252-.472.575-.459.334.057.408.176.625-.06.218-.235.209-.462.51-.351.3.11.788-.145 1.437-.485.65-.34 7.106-3.136 8.296-3.699 1.19-.562 6.156-3.09 7.616-3.671 1.448-.442 6.036-2.832 6.036-2.832Z" fill="#FBB116"/><path opacity=".75" d="M15.182 56.142c-1.925.74-3.804 1.286-4.247 1.347-.442.061-.917.176-1.158.692-.252.472-.33.903.01 1.552.34.65 1.137 2.057 1.65 2.664.513.608 1.567.81 2.53.44.951-.413 2.01-.76 3.374-1.548 1.365-.787 3.152-1.905 3.692-2.128.54-.222.961-.186.855-.435-.095-.205-.018-.453.274-.57.292-.115 3.312-1.806 4.136-2.371.77-.598 2.609-1.5 3.778-2.149 1.159-.691 2.75-1.67 3.14-1.948.39-.278.867-.576.76-.641-.107-.066-.898.446-1.526.872-.586.416-1.701 1.097-2.069 1.278-.378.137-.411.19-.736.36-.324.17-.466.342-.637.2-.172-.14.878-.715 1.15-.918.314-.213 1.536-.829 2.089-1.191.563-.319 1.45-.808 1.765-1.021.314-.213.576-.643.9-.813.368-.18.672-.436.824-.565.152-.128 2.482-1.835 2.905-2.166.38-.32 1.704-1.463 1.899-1.602.195-.138 3.36-2.367 3.587-2.56.271-.202 2.149-1.89 2.3-2.019.185-.182 1.02-.704 1.247-.896.228-.192 1.313-1.186 1.617-1.443.304-.256.542-.405.77-.597.228-.193.208-.462.024-.28-.185.181-.574.275-.422.147.142-.171.36-.407.565-.502.205-.096.345-.084.497-.212.152-.128.143-.355.424-.514.282-.16.541-.222.736-.36.195-.14 3.17-2.962 4.148-4.022 1.013-1.297 7.393-8.19 9.544-10.447 2.151-2.258 8.244-9.585 9.68-11.395 1.447-1.768 3.474-4.544 3.832-4.95.349-.45.63-.61.645-1.117.014-.506-.562-1.19-.732-1.514-.17-.325-.478-1.028-.868-.75-.39.276-1.466 1.497-1.75 1.84-.282.343-5.205 7.02-5.836 7.813-.632.793-6.45 7.55-8.808 10.086-2.359 2.537-8.96 8.706-11.075 10.544-2.116 1.838-10.468 8.705-11.563 9.472-1.084.811-3.048 2.52-5.063 3.831a387.879 387.879 0 0 1-6.305 4.177c-2.22 1.406-4.925 2.7-5.975 3.275-.997.606-4.61 2.304-6.577 3.054Z" fill="#FBB116"/></svg>