<svg width="59" height="59" fill="none" xmlns="http://www.w3.org/2000/svg"><path d="M36.414 49.908v3.906A5.179 5.179 0 0 1 31.228 59h-3.457a5.179 5.179 0 0 1-5.185-5.186v-3.906c0-.968.76-1.844 1.729-1.844h10.37c.969 0 1.73.876 1.73 1.844Z" fill="#FEA832"/><path d="M36.414 49.908v3.906A5.179 5.179 0 0 1 31.228 59H29.5V48.064h5.185c.969 0 1.73.876 1.73 1.844Z" fill="#FE9923"/><path d="M29.5 13.943c-1.245 0-2.49.139-3.734.45-5.531 1.279-9.99 5.67-11.34 11.166-1.347 5.531.208 11.131 4.184 15.038 1.417 1.417 2.247 3.526 2.247 5.808v.38c0 2.87 2.316 5.3 5.186 5.3h6.914c2.869 0 5.185-2.43 5.185-5.3v-.38c0-2.247.864-4.425 2.386-5.912A15.568 15.568 0 0 0 45.056 29.5c0-8.712-7.052-15.557-15.556-15.557Z" fill="#FEDB41"/><path d="M45.057 29.5c0 4.148-1.625 8.055-4.53 10.993-1.52 1.487-2.384 3.665-2.384 5.912v.38c0 2.87-2.316 5.3-5.186 5.3H29.5V13.944c8.504 0 15.557 6.845 15.557 15.557Z" fill="#FC3"/><path d="m13.61 16.055-4.888-4.888a1.728 1.728 0 1 1 2.445-2.445l4.888 4.889a1.728 1.728 0 1 1-2.444 2.444ZM8.759 31.23h-7.03a1.728 1.728 0 1 1 0-3.457h7.03a1.727 1.727 0 1 1 0 3.457Z" fill="#FEA832"/><path d="M57.271 31.229h-7.029a1.728 1.728 0 1 1 0-3.457h7.03a1.728 1.728 0 1 1 0 3.457ZM42.945 16.055a1.728 1.728 0 0 1 0-2.444l4.888-4.889a1.728 1.728 0 1 1 2.445 2.445l-4.889 4.888a1.728 1.728 0 0 1-2.444 0Z" fill="#FE9923"/><path d="M31.229 1.729v7.029c0 .968-.76 1.728-1.729 1.728-.968 0-1.729-.76-1.729-1.728v-7.03C27.771.76 28.532 0 29.5 0c.968 0 1.729.76 1.729 1.729Z" fill="#FEA832"/><path d="M31.229 1.729v7.029c0 .968-.76 1.728-1.729 1.728V0c.968 0 1.729.76 1.729 1.729Z" fill="#FE9923"/></svg>