<svg width="100" height="100" viewBox="0 0 100 100" fill="none" xmlns="http://www.w3.org/2000/svg">
<g clip-path="url(#clip0_2003_5185)">
<path d="M75.6879 67.7475C74.8274 67.2862 74.1875 68.7811 75.2289 69.2185C76.2702 69.6559 76.8605 69.9409 77.1884 69.9409C77.5163 69.9409 77.8164 69.0096 77.5362 68.7028C77.2559 68.396 76.2821 68.0652 75.6879 67.7475Z" fill="#FBAE96"/>
<path d="M34.861 55.558C36.3197 55.558 36.7033 57.61 38.5237 58.2715C40.7813 59.0918 43.7146 57.7949 44.4718 55.6799C45.4555 52.9316 43.5934 51.4998 44.0167 46.9324C44.2969 43.9056 42.4149 44.1733 40.8031 41.227C39.1914 38.2785 39.6227 37.9587 37.4366 35.2496C35.2505 32.5405 31.5978 32.1575 28.8533 32.634C26.1088 33.1106 24.7415 33.6611 22.5932 35.2779C20.4449 36.8946 21.4167 38.6267 20.0355 39.7691C18.6543 40.9093 18.0382 42.2345 17.6208 44.5018C16.818 48.8538 19.5168 50.958 18.3045 52.4616C17.0922 53.9652 14.6319 60.7042 20.9973 60.2973C23.247 60.1537 25.2622 60.9631 26.3651 59.094C27.9888 56.3435 28.7996 58.1735 31.0235 56.968C33.2493 55.7604 34.859 55.5624 34.859 55.5624L34.861 55.558Z" fill="#37231B"/>
<path d="M18.5469 57.0464C23.9067 52.2701 24.4155 57.0464 37.2736 56.1129C38.8595 55.9976 46.0775 57.5882 47.4706 58.5261C54.5336 63.2762 60.0544 94.3841 60.0544 94.3841L19.155 93.8901L18.5469 57.0464Z" fill="#FCC583"/>
<path d="M28.7974 54.8748C28.704 56.8463 27.0645 54.9814 27.0645 57.4795C27.0645 59.6489 29.2823 63.1153 35.5603 62.0164C39.5529 61.3179 40.7532 57.5861 38.3804 56.4981C37.0369 55.8823 36.403 53.4082 36.403 53.4082L28.7974 54.8726V54.8748Z" fill="#FBAE96"/>
<path d="M37.308 43.573C38.5421 48.9868 38.4944 56.8508 32.8623 57.323C25.9722 57.9018 18.3865 43.0965 23.9153 37.6609C29.4441 32.2253 35.5591 35.907 37.308 43.573Z" fill="#FBAE96"/>
<path d="M26.3857 41.7097C25.5749 43.4222 25.5172 43.729 24.6189 44.7125C23.7207 45.6961 23.8041 48.2441 24.2334 49.6977C26.2784 56.6282 24.5275 53.2815 24.1221 53.7254C23.7167 54.1693 22.0374 49.6433 21.8069 49.3909C21.5743 49.1363 19.752 41.8794 19.752 41.1178C19.752 40.3562 24.142 35.7649 24.6726 35.1817C25.2052 34.5986 29.9987 33.5106 31.36 33.5106C32.7213 33.5106 35.442 33.3213 36.0223 34.3353C36.6006 35.3493 40.3646 43.8443 40.3646 43.8443C40.3646 43.8443 42.6222 47.8024 41.096 47.6914C39.1424 47.5478 38.7748 47.117 38.2739 45.8658C37.7374 44.521 37.2286 41.5008 34.5378 42.4996C29.9887 44.1859 26.3857 41.714 26.3857 41.714V41.7097Z" fill="#37231B"/>
<path d="M7.70626 97.3931C5.96336 85.5101 14.6182 58.1711 20.2364 55.6817C24.1952 53.9257 27.2458 55.3075 27.9811 60.1055C28.7164 64.9035 22.023 87.512 22.023 87.512C22.023 87.512 41.652 81.6064 43.3909 87.512C45.1278 93.4176 44.2594 97.602 44.2594 97.602L7.70825 97.3931H7.70626Z" fill="#FCC583"/>
<path d="M25.8531 88.115C24.0546 88.115 22.4568 88.0715 21.2485 88.0367C20.6662 88.0214 20.1614 88.0062 19.75 87.9997C19.5712 87.9975 19.4221 87.9083 19.3287 87.7516C18.8796 86.9922 19.8573 84.4006 21.7751 79.4981C23.7366 74.4803 26.1771 68.2352 26.1771 64.8472C26.1771 64.6993 26.2864 64.5796 26.4215 64.5796C26.5567 64.5796 26.666 64.6993 26.666 64.8472C26.666 68.3462 24.2037 74.6457 22.2243 79.7092C21.4353 81.7263 20.692 83.6303 20.225 85.049C19.5573 87.0792 19.7003 87.4122 19.7401 87.4622C19.7401 87.4622 19.7461 87.4622 19.756 87.4622C20.1694 87.4687 20.6761 87.4818 21.2604 87.4992C23.9433 87.5732 27.9955 87.6863 32.1649 87.3491C32.3001 87.3382 32.4173 87.4491 32.4273 87.5971C32.4372 87.7451 32.3358 87.8735 32.2007 87.8843C30.0126 88.0606 27.8146 88.1128 25.8531 88.1128V88.115Z" fill="#C99565"/>
<path d="M28.8616 48.9601C28.8179 49.2691 29.114 50.2026 29.746 49.9893C30.1633 49.8479 30.0938 48.6816 29.6029 48.4683C29.2035 48.2964 28.9054 48.6511 28.8616 48.9601Z" fill="#372313"/>
<path d="M34.0433 47.2278C33.9698 47.5302 34.2301 48.4877 34.878 48.3462C35.3073 48.2548 35.2934 47.0929 34.8283 46.8252C34.4487 46.6054 34.1169 46.9253 34.0433 47.2278Z" fill="#372313"/>
<path d="M31.625 54.1495C31.9688 54.5847 32.7936 55.096 34.0615 54.626C35.3294 54.156 35.1843 52.7568 35.1843 52.7568C34.0396 53.5489 32.9486 53.9297 31.625 54.1473V54.1495Z" fill="#E66C40"/>
<path d="M33.1117 46.1593C33.3661 46.1593 34.171 45.5413 34.9361 45.6763C35.7013 45.8112 35.6734 45.6958 35.4906 45.4935C35.3058 45.2911 34.7871 45.0822 33.8173 45.2193C32.6407 45.3868 32.8912 46.1593 33.1117 46.1593Z" fill="#37231B"/>
<path d="M29.7377 47.0472C29.7516 46.7796 29.2269 46.7143 28.8473 46.8231C28.3267 46.9733 27.5317 47.8045 27.4006 48.4007C27.331 48.7119 27.5317 48.8642 27.8239 48.4268C28.1697 47.9111 28.4419 47.5978 28.8811 47.5238C29.2349 47.4629 29.7277 47.2583 29.7377 47.0494V47.0472Z" fill="#37231B"/>
<path d="M25.3562 49.7958C25.9763 50.7532 26.8308 52.6355 26.1949 53.1294C25.5589 53.6234 23.673 52.5441 23.0529 51.5867C22.4329 50.6292 22.4448 49.452 23.0807 48.9581C23.7167 48.4641 24.7362 48.8384 25.3562 49.7958Z" fill="#FBAE96"/>
<path d="M32.9719 57.9836C31.7219 57.9836 30.6845 57.5266 30.6268 57.5005C30.5454 57.4635 30.5056 57.3612 30.5394 57.272C30.5732 57.1828 30.6666 57.1393 30.7481 57.1763C30.766 57.185 32.5705 57.977 34.216 57.4505C34.3014 57.4243 34.3889 57.4766 34.4147 57.5701C34.4386 57.6637 34.3909 57.7595 34.3054 57.7877C33.8563 57.9314 33.4012 57.9858 32.9719 57.9858V57.9836Z" fill="#C99565"/>
<path d="M26.024 53.4104C26.4751 53.9043 28.5638 56.1434 30.6883 57.3402C31.3043 57.6884 30.9923 60.0036 30.9387 60.3496C30.5332 62.9825 27.9576 62.4146 26.4194 61.5725C24.768 60.6673 26.3141 54.8966 23.977 54.7225C21.3279 54.5245 20.2746 55.8083 19.8891 55.6973C19.1339 55.4776 20.4872 54.1938 22.3295 53.5867C23.8061 53.1014 25.7537 53.2211 26.024 53.4104Z" fill="#37231B"/>
<path d="M27.1386 35.6144C26.137 35.4338 25.6481 36.7547 25.1791 37.4793C25.0857 37.6229 25.3023 37.8057 25.4017 37.6686C25.8389 37.0723 26.2384 35.8125 27.0989 35.9278C27.2599 35.9495 27.2996 35.6449 27.1366 35.6144H27.1386Z" fill="#55341B"/>
<path d="M27.5902 36.7436C26.9145 36.811 26.519 37.3833 26.1275 37.9251C26.0142 38.0818 26.2129 38.3037 26.3302 38.1471C26.6661 37.6923 27.0178 37.1374 27.5921 37.0613C27.773 37.0373 27.7809 36.724 27.5921 36.7436H27.5902Z" fill="#55341B"/>
<path d="M22.7489 43.4132C22.1725 44.1704 21.781 45.1365 21.62 46.107C21.5863 46.305 21.8625 46.3921 21.9003 46.1919C22.0672 45.2823 22.4209 44.3641 22.9516 43.6351C23.0648 43.4806 22.8681 43.2587 22.7489 43.4132Z" fill="#55341B"/>
<path d="M29.4206 58.7979C29.4345 58.5912 29.1463 58.5956 29.1284 58.7979C29.0927 59.2375 29.1702 59.6792 29.1503 60.1209C29.1404 60.319 29.1185 60.5496 29.0052 60.7128C28.8601 60.9217 28.6217 60.9217 28.4031 60.9043C28.2123 60.8891 28.2222 61.1981 28.4031 61.2242C29.7425 61.4069 29.3649 59.6792 29.4206 58.7979Z" fill="#55341B"/>
<path d="M42.8385 48.777C42.6735 48.4027 42.4589 48.0589 42.2582 47.7086C42.127 47.4779 41.8905 47.1537 41.9025 46.8665C41.9104 46.6663 41.6282 46.6663 41.6183 46.8665C41.6044 47.108 41.7276 47.3495 41.8329 47.5519C41.9978 47.8718 42.1886 48.1764 42.3595 48.4919C42.5146 48.7748 42.6894 49.086 42.7391 49.4189C42.7908 49.7649 42.606 49.9106 42.3218 49.9955C42.139 50.0499 42.2165 50.3458 42.3993 50.3045C42.6894 50.237 42.9637 50.0586 43.0313 49.7213C43.0949 49.4015 42.9657 49.062 42.8405 48.7791L42.8385 48.777Z" fill="#55341B"/>
<path d="M42.8546 52.6132C42.6896 52.4108 42.481 52.3129 42.2624 52.1997C41.998 52.0605 41.8629 51.9234 41.9007 51.5796C41.9185 51.4077 41.6423 51.3642 41.6204 51.5382C41.5549 52.0496 41.7854 52.3064 42.1868 52.5109C42.3856 52.611 42.7115 52.7633 42.7612 53.0331C42.7989 53.2464 42.477 53.4183 42.3637 53.5554C42.2385 53.7077 42.4333 53.9253 42.5704 53.7817C42.7214 53.6228 42.94 53.4901 43.0275 53.2725C43.1249 53.031 43.0036 52.796 42.8566 52.6154L42.8546 52.6132Z" fill="#55341B"/>
<path d="M35.2704 37.9815C35.018 37.6855 34.696 37.5789 34.3363 37.5419C33.9309 37.4984 33.5354 37.5223 33.2552 37.1437C33.134 36.9805 32.9273 37.2112 33.0446 37.3744C33.5672 38.0946 34.4993 37.5963 35.0617 38.2078C35.1949 38.3536 35.3956 38.1316 35.2684 37.9815H35.2704Z" fill="#55341B"/>
<path d="M46.1445 58.0054C48.3723 58.3361 55.4413 67.3925 64.3883 69.4945C73.3353 71.5965 76.6045 69.3792 76.6045 69.3792L80.4241 76.1552C71.6699 83.1771 57.995 79.4888 49.3263 74.7604L46.1445 58.0054Z" fill="#FCC583"/>
<path d="M81.6175 96.4267C81.6175 96.4267 87.0231 77.7502 75.6932 68.598C73.3084 66.6723 71.2337 65.7649 66.2196 65.7845C60.8796 65.8062 56.0742 71.2832 54.1863 74.9932C50.6886 81.8672 47.791 96.4267 47.791 96.4267H81.6175Z" fill="#DB7E5D"/>
<path d="M75.2273 96.4112C75.0941 96.4112 74.9888 96.2937 74.9888 96.1501V85.5095C74.9868 85.4595 74.6867 79.1209 73.8759 76.6533C73.8302 76.5162 73.8958 76.3661 74.021 76.3182C74.1462 76.2681 74.2833 76.3399 74.327 76.477C75.1637 79.0186 75.4558 85.2354 75.4697 85.4987V96.1523C75.4697 96.298 75.3624 96.4134 75.2313 96.4134L75.2273 96.4112Z" fill="#9E614B"/>
<path d="M57.6051 94.7166C57.4859 94.7166 57.3825 94.6187 57.3686 94.4838C57.311 93.9376 55.9536 81.0449 56.7287 76.5145C56.7525 76.3731 56.8777 76.2795 57.0089 76.3056C57.1381 76.3318 57.2235 76.4688 57.1997 76.6124C56.4366 81.0645 57.8317 94.2923 57.8456 94.425C57.8615 94.5686 57.7661 94.6992 57.6349 94.7166C57.625 94.7166 57.6151 94.7166 57.6071 94.7166H57.6051Z" fill="#9E614B"/>
<path d="M63.0831 67.9521C61.8827 69.4448 61.1176 74.0122 63.3076 74.1341C68.4568 74.4235 70.2514 66.7662 68.8722 66.2788C65.7203 65.1625 63.0831 67.9521 63.0831 67.9521Z" fill="#F1F2F2"/>
<path d="M62.8627 64.1336C62.8627 64.7167 62.5507 68.4377 63.4251 68.9686C65.9848 70.5222 68.8744 67.2713 68.8744 66.2813V63.0869L62.8647 64.1357L62.8627 64.1336Z" fill="#FBAE96"/>
<path d="M58.753 49.5159C58.5025 46.6698 56.9822 44.2936 55.6686 45.486C54.355 46.6785 52.8525 47.934 53.1725 49.5159C53.3514 50.4016 57.5625 51.8486 57.5625 51.8486L58.753 49.5159Z" fill="#37231B"/>
<path d="M56.1616 52.2921C56.092 52.2921 56.0224 52.2595 55.9748 52.1942C55.8913 52.081 55.9092 51.9157 56.0105 51.8264C56.8472 51.0888 57.2546 50.3011 57.2546 49.4198C57.2546 49.274 57.3619 49.1587 57.4931 49.1587C57.6242 49.1587 57.7316 49.2762 57.7316 49.4198C57.7316 50.4556 57.2526 51.4021 56.3086 52.2355C56.2649 52.2747 56.2112 52.2943 56.1596 52.2943L56.1616 52.2921Z" fill="#DE501D"/>
<path d="M56.9152 56.2794C56.0825 56.4839 55.4664 56.7189 55.1246 56.3468C54.7828 55.9726 55.1246 55.0086 55.1246 55.0086L56.2236 54.8149L56.9152 56.2794Z" fill="#82512B"/>
<path d="M72.3011 57.2478C71.5102 63.2208 68.0065 67.9514 63.0898 67.9514C59.4569 67.9514 57.0582 65.9604 56.6647 61.8891C56.5733 60.9426 56.7482 59.6283 56.6826 59.0734C56.5733 58.1399 55.9453 57.1042 55.9453 56.125C55.9453 50.1519 60.6354 47.2861 65.5521 47.2861C70.4688 47.2861 73.0841 51.3378 72.3011 57.2478Z" fill="#FBAE96"/>
<path d="M61.7429 57.7854C61.723 57.5917 62.1423 57.2022 62.7167 57.3502C63.289 57.4981 63.7143 57.942 63.5275 58.0639C63.3407 58.1858 62.9214 57.8071 62.5557 57.8528C62.19 57.8964 61.7588 57.9225 61.7449 57.7854H61.7429Z" fill="#37231B"/>
<path d="M58.8976 57.8987C58.9174 57.705 58.4981 57.3155 57.9238 57.4635C57.3514 57.6114 56.9261 58.0553 57.1129 58.1772C57.2997 58.299 57.7191 57.9204 58.0847 57.9661C58.4504 58.0118 58.8817 58.0357 58.8956 57.8987H58.8976Z" fill="#37231B"/>
<path d="M61.0053 54.118C65.1906 53.6697 65.4271 55.5171 66.6235 57.247C67.8218 58.9769 70.7552 58.644 72.1026 58.4112C72.5616 58.3328 73.2552 55.0645 73.0644 53.1127C72.9233 51.6656 73.0008 49.0066 70.2782 47.4573C67.5555 45.908 66.6096 45.5598 63.9644 46.0973C61.3213 46.6348 58.4496 54.3921 61.0033 54.118H61.0053Z" fill="#37231B"/>
<path d="M68.123 49.6974C68.3735 46.8512 70.9192 44.4293 72.2349 45.6218C73.5505 46.8142 74.7806 50.2022 74.099 50.7201C73.4173 51.238 69.3135 52.03 69.3135 52.03L68.123 49.6974Z" fill="#37231B"/>
<path d="M69.7253 52.1058C68.5667 52.1058 68.0898 51.329 67.9308 50.9635C67.6525 50.3259 67.6824 49.5469 67.9983 49.227C68.0957 49.1291 68.2468 49.1356 68.3362 49.2423C68.4256 49.3489 68.4197 49.5142 68.3223 49.6122C68.211 49.7253 68.1414 50.2367 68.36 50.7371C68.527 51.1201 68.9781 51.7337 70.1248 51.5488C70.254 51.527 70.3772 51.6271 70.3971 51.7707C70.4169 51.9144 70.3255 52.0471 70.1944 52.0689C70.0254 52.095 69.8684 52.108 69.7234 52.108L69.7253 52.1058Z" fill="#D9886B"/>
<path d="M54.8052 56.0556C56.2023 58.0423 56.7488 52.6371 60.6321 53.6707C62.1484 54.0733 60.958 51.2271 62.4028 50.1239C63.8456 49.0207 66.1469 46.5531 63.6429 46.1962C61.1388 45.8394 57.7484 47.4235 56.8064 49.1164C56.3871 49.8693 55.5206 50.8746 55.3954 52.2324C55.2285 54.0646 54.4037 55.4833 54.8072 56.0556H54.8052Z" fill="#37231B"/>
<path d="M59.4824 64.2646C59.4824 64.2646 59.9176 65.3613 61.0783 65.4288C62.2389 65.4963 62.4475 64.2755 62.4475 64.2755C61.426 64.6563 60.5417 64.7347 59.4824 64.2646Z" fill="#F1F2F2"/>
<path d="M62.5889 59.3039C62.3862 59.3866 62.1815 59.7435 62.2789 60.27C62.3763 60.7945 62.736 61.0251 62.9606 60.8663C63.1851 60.7074 63.3461 59.9719 63.205 59.6651C63.0639 59.3583 62.7181 59.2517 62.5869 59.3061L62.5889 59.3039Z" fill="#372313"/>
<path d="M58.0482 59.313C57.8495 59.4044 57.6567 59.7699 57.774 60.2922C57.8912 60.8122 58.2569 61.0255 58.4775 60.8579C58.6981 60.6882 58.8292 59.9484 58.6782 59.6481C58.5272 59.3478 58.1754 59.2564 58.0482 59.3152V59.313Z" fill="#372313"/>
<path d="M65.5105 51.9902C65.0157 51.3635 64.0896 51.1959 63.402 51.4875C63.235 51.5593 63.3046 51.8531 63.4775 51.7856C64.1075 51.5397 64.8269 51.7029 65.3039 52.2165C65.439 52.3623 65.6338 52.1447 65.5105 51.9902Z" fill="#643D20"/>
<path d="M66.4624 49.0988C65.6178 48.8768 64.8388 48.9856 64.0637 49.4056C63.8968 49.497 64.0438 49.769 64.2108 49.6798C64.9262 49.299 65.6119 49.2402 66.3869 49.4034C66.5678 49.4426 66.6473 49.1467 66.4644 49.0988H66.4624Z" fill="#643D20"/>
<path d="M69.8398 55.0389C69.343 55.2174 68.723 54.6429 68.7428 54.0859C68.7508 53.8857 68.4726 53.8878 68.4606 54.0859C68.4169 54.8257 69.2516 55.6308 69.9173 55.3457C70.0863 55.2718 70.0207 54.9737 69.8398 55.0389Z" fill="#643D20"/>
<path d="M58.229 50.728C57.746 50.6779 57.2611 50.8542 56.9789 51.3068C56.8736 51.4743 56.8219 51.6658 56.7663 51.8573C56.6848 52.138 56.5974 52.2664 56.3152 52.2947C56.1323 52.3143 56.1264 52.608 56.3152 52.6124C56.7325 52.6189 56.9372 52.3512 57.0564 51.9443C57.126 51.705 57.1916 51.4896 57.3684 51.3133C57.6029 51.0783 57.9229 51.0152 58.2309 51.0348C58.4138 51.0457 58.4078 50.7454 58.2309 50.728H58.229Z" fill="#643D20"/>
<path d="M60.5528 47.993C60.2329 47.9038 60.0182 47.647 59.6645 47.6949C59.3346 47.7406 59.0723 47.993 58.8695 48.265C58.7543 48.4195 58.9451 48.6436 59.0742 48.4891C59.269 48.2606 59.5095 47.9864 59.8235 48.0191C60.056 48.043 60.2468 48.2454 60.4773 48.2954C60.6562 48.3346 60.7337 48.043 60.5528 47.993Z" fill="#643D20"/>
<path d="M63.0867 68.1254C62.9993 68.1254 62.9277 68.0471 62.9277 67.9514C62.9277 67.8556 62.9993 67.7773 63.0867 67.7773C64.4779 67.7773 65.6365 67.4835 66.5268 66.9047C66.6023 66.8547 66.6997 66.8829 66.7454 66.9656C66.7911 67.0483 66.7653 67.1549 66.6898 67.205C65.7498 67.8164 64.5375 68.1254 63.0867 68.1254Z" fill="#C48976"/>
<path d="M63.9863 96.4856C63.9863 93.6895 67.5536 88.2495 74.1019 88.2495C80.6502 88.2495 84.0048 88.75 84.0048 88.75V96.3812L63.9863 96.4856Z" fill="#DB7E5D"/>
<path d="M63.8735 90.2218C63.7781 90.2218 63.6867 90.1587 63.6509 90.0543C63.6032 89.9194 63.6648 89.7671 63.788 89.7148C65.8251 88.8619 73.5021 87.9697 75.2311 87.9936C75.3643 87.9936 75.4696 88.1133 75.4676 88.2591C75.4676 88.4027 75.3583 88.518 75.2291 88.518C75.2291 88.518 75.2272 88.518 75.2252 88.518C73.5697 88.4919 65.9065 89.3884 63.9609 90.2044C63.9331 90.2153 63.9033 90.2218 63.8755 90.2218H63.8735Z" fill="#9E614B"/>
<path d="M32.0645 91.8625H62.1071C63.8738 91.8625 65.3087 93.4336 65.3087 95.368V95.912H32.0625V91.8604L32.0645 91.8625Z" fill="#7781A6"/>
<path d="M58.0423 95.9142H24.961L22.7869 68.9952C22.6617 68.2183 22.9717 67.5024 23.6832 67.5024H54.6717C55.2242 67.5024 55.6992 67.942 55.7966 68.5469L58.0423 95.9142Z" fill="#7781A6"/>
<path d="M41.5905 77.6278C41.678 79.1205 40.724 80.4022 39.4601 80.4914C38.1961 80.5806 37.0991 79.4447 37.0097 77.952C36.9203 76.4593 37.8762 75.1776 39.1401 75.0884C40.4041 74.9992 41.5011 76.1351 41.5905 77.6278Z" fill="#DBDBDB"/>
<path d="M127 95.4243H-27V101.026H127V95.4243Z" fill="#DCBFA3"/>
<path d="M99.8246 42.6017C99.8246 40.0623 99.5742 29.0127 102.895 23.7969C102.895 23.7969 103.646 28.188 103.646 31.5869C103.646 34.9858 101.327 48.2288 101.327 48.2288L99.8226 42.6017H99.8246Z" fill="#A7CBBD"/>
<path d="M87.8695 23.042C87.8695 23.042 94.1991 49.8762 94.1991 55.2291C94.1991 60.582 91.2837 58.5235 91.2837 58.5235C91.2837 58.5235 89.1215 39.8906 88.3683 37.7625C87.6171 35.6344 88.0861 33.8501 88.0861 32.3748C88.0861 30.8995 87.3965 29.0129 87.3965 27.605C87.3965 26.1972 87.8675 23.042 87.8675 23.042H87.8695Z" fill="#A7CBBD"/>
<path d="M96.6935 82.0072C97.2579 79.3677 100.736 75.9253 100.736 72.4808C100.736 69.0362 100.36 55.8389 101.394 53.1994C102.427 50.5599 103.274 46.1993 103.274 43.6729C103.274 41.1466 106.094 38.5093 106.094 36.6728V33.5742C106.094 33.5742 107.409 35.5261 107.409 38.6247C107.409 41.7233 106.376 45.7401 105.529 46.7737C104.683 47.8073 104.118 49.0694 104.118 51.2497C104.118 53.43 103.647 64.2186 103.647 67.0887C103.647 69.9588 103.458 70.5311 102.801 73.2859C102.143 76.0407 97.1585 82.5817 97.1585 82.5817L96.6875 82.0072H96.6935Z" fill="#A4CABB"/>
<path d="M91.3302 82.0067C90.0145 78.7928 87.9457 71.908 87.9457 68.5787C87.9457 65.2495 88.4167 62.0377 87.9457 60.2012C87.4747 58.3647 84.8316 46.1008 85.861 41.59C86.5029 38.7787 86.7235 40.7588 86.7235 40.7588C86.7235 40.7588 90.8612 47.9221 91.3302 50.7901C91.7992 53.658 91.1851 59.0545 91.8012 60.6516C92.4153 62.2488 93.4944 66.0546 93.4944 68.5809V81.6651L91.3322 82.0089L91.3302 82.0067Z" fill="#C2E8D8"/>
<path d="M96.6901 39.5409L92.3657 30.2451C92.3657 30.2451 90.8613 35.524 90.8613 37.2452C90.8613 38.9664 90.2969 40.3438 90.2969 42.065C90.2969 43.7862 91.6125 47.344 91.6125 50.3294C91.6125 53.3149 91.1415 56.4113 91.1415 58.9376C91.1415 61.4639 93.4925 82.0073 93.4925 82.0073H95.1857L96.6901 39.5431V39.5409Z" fill="#92BCAB"/>
<path d="M95.1879 82.0071C95.1879 79.7114 94.5301 77.8749 94.5301 74.4325C94.5301 70.9901 94.5301 68.8098 93.9657 64.5623C93.4013 60.3148 95.1879 54.1176 95.1879 51.3628C95.1879 48.608 94.2479 40.4589 95.1879 37.3603C96.1279 34.2617 97.1613 27.9492 97.1613 27.9492C97.1613 27.9492 102.05 39.8845 102.05 41.9517V55.7234C102.05 58.3629 101.017 62.6104 100.546 65.4784C100.075 68.3485 100.075 70.5288 100.075 73.5121C100.075 76.4953 97.9523 82.0049 97.9523 82.0049H95.1859L95.1879 82.0071Z" fill="#C2E8D8"/>
<path d="M102.598 95.5491H88.9971L87.2045 78.9115C87.1131 78.0694 87.7153 77.3296 88.4903 77.3296H103.032C103.805 77.3296 104.405 78.0651 104.317 78.905L102.6 95.5491H102.598Z" fill="#E3AC69"/>
<path d="M103.579 90.6075H87.9271L87.3984 82.5781H104.076L103.579 90.6075Z" fill="#FCC583"/>
<path d="M2.24542 89.1786C-6.11531 89.1786 -12.918 81.7302 -12.918 72.5759C-12.918 67.4297 -10.7915 62.6578 -7.08116 59.4852C-6.89236 59.3242 -6.62208 59.3568 -6.47104 59.557L12.3431 84.3349C12.4961 84.5351 12.4743 84.8332 12.2954 85.0051C9.52305 87.6946 5.9538 89.1765 2.24343 89.1765L2.24542 89.1786ZM-6.8705 60.5427C-10.1576 63.526 -12.0336 67.8867 -12.0336 72.5781C-12.0336 81.1993 -5.62841 88.2125 2.24542 88.2125C5.59607 88.2125 8.8255 86.9287 11.3872 84.5895L-6.8705 60.5427Z" fill="#9CA8D3"/>
<path d="M2.24403 85.8602C8.94473 85.8602 14.3767 79.9126 14.3767 72.5759C14.3767 65.2391 8.94473 59.2915 2.24403 59.2915C-4.45668 59.2915 -9.88867 65.2391 -9.88867 72.5759C-9.88867 79.9126 -4.45668 85.8602 2.24403 85.8602Z" fill="#A3D8F5"/>
<mask id="mask0_2003_5185" style="mask-type:luminance" maskUnits="userSpaceOnUse" x="-10" y="59" width="25" height="27">
<path d="M2.24793 85.8597C8.94864 85.8597 14.3806 79.9121 14.3806 72.5754C14.3806 65.2386 8.94864 59.291 2.24793 59.291C-4.45277 59.291 -9.88477 65.2386 -9.88477 72.5754C-9.88477 79.9121 -4.45277 85.8597 2.24793 85.8597Z" fill="white"/>
</mask>
<g mask="url(#mask0_2003_5185)">
<path d="M-3.69331 69.4768C-5.57135 70.865 -7.93827 75.8937 -5.57135 75.5129C-3.20641 75.1321 -2.09152 73.3805 -0.978606 75.2083C0.134303 77.0361 0.253544 78.333 2.24684 78.333C4.24015 78.333 6.82766 79.965 7.23308 79.5233C7.63651 79.0815 6.18972 76.429 5.4246 73.9136C4.65947 71.4003 2.36211 68.8849 0.831859 68.1995C-0.698391 67.514 -3.69132 69.4768 -3.69132 69.4768H-3.69331Z" fill="#DEB788"/>
<path d="M3.42752 70.389C2.56303 69.351 1.59917 68.5438 0.82808 68.2C-0.702171 67.5145 -3.6951 69.4773 -3.6951 69.4773C-4.55959 70.117 -5.52743 71.527 -6.08984 72.8261C-4.95507 73.0916 -4.87757 71.9709 -2.84055 71.7533C-0.475614 71.4987 -0.614727 71.4966 0.591587 72.3104C1.7979 73.1242 1.34678 71.8556 2.24505 71.3464C2.81939 71.0222 3.21487 70.6762 3.42752 70.389Z" fill="#7DD2B1"/>
<path d="M6.32527 58.8169C2.77589 58.8169 0.550068 62.2549 2.98456 63.245C5.41905 64.2351 5.83838 64.0719 7.29907 65.1077C8.75976 66.1412 10.1509 67.436 10.5007 66.4459C10.8485 65.4558 12.3091 65.2273 12.3091 64.3896C12.3091 63.5518 6.88173 58.8191 6.32527 58.8191V58.8169Z" fill="#7CC8AA"/>
<path d="M0.827384 86.4084C0.410043 85.1899 0.380234 84.8091 1.96017 84.1237C3.5401 83.4382 3.74877 83.2859 5.07234 82.6005C6.39392 81.915 6.67215 81.915 7.99571 81.915C9.31928 81.915 9.94331 83.5144 9.94331 83.5144C9.94331 83.5144 7.33194 85.2813 7.1352 85.4945C6.93845 85.7078 0.827384 86.4084 0.827384 86.4084Z" fill="#F1F2F2"/>
<path d="M-5.72656 62.3329C-5.00516 62.3329 -4.68321 62.7115 -2.66407 61.9499C-0.646925 61.1883 0.4322 59.3496 0.4322 59.3496L-3.35964 60.0829L-5.72457 62.3329H-5.72656Z" fill="#F1F2F2"/>
</g>
<path d="M9.34253 75.6984C9.69032 76.0792 9.67243 76.7842 10.0739 76.3469C10.4733 75.9095 10.0043 75.4895 10.6661 75.6984C11.3279 75.9073 11.7452 75.4699 11.7452 74.8215C11.7452 74.1731 11.781 73.4876 11.1192 73.7553C10.4574 74.0229 10.0401 74.2122 9.62275 74.4407C9.20541 74.6692 9.34452 75.6984 9.34452 75.6984H9.34253Z" fill="#DCF8C1"/>
<path d="M11.7461 76.8408C11.7461 76.3839 11.9488 76.0966 12.3025 76.484C12.6563 76.8713 13.5903 77.7917 12.9643 77.5633C12.3383 77.3348 11.7481 76.8386 11.7481 76.8386L11.7461 76.8408Z" fill="#DCF8C1"/>
<path d="M10.873 72.8412C10.873 72.4604 11.6084 72.0513 12.0019 71.6226C12.3934 71.1939 12.0933 70.4802 12.457 70.4802C12.8206 70.4802 12.8206 70.3649 12.8206 70.9372C12.8206 71.5095 13.0989 72.2711 12.612 72.2711C12.1251 72.2711 12.0555 72.4995 11.7435 72.8433C11.4295 73.1871 10.873 72.8433 10.873 72.8433V72.8412Z" fill="#E3AC69"/>
<path d="M2.3845 88.6953L4.58249 93.5717H-0.0957031L2.3845 88.6953Z" fill="#9CA8D3"/>
<path d="M-1.01726 92.7314H5.50717C6.76913 92.7314 7.7946 93.8543 7.7946 95.236V95.706H-3.30469V95.236C-3.30469 93.8543 -2.27922 92.7314 -1.01726 92.7314Z" fill="#9CA8D3"/>
<path d="M76.7307 69.4944C76.5638 71.4201 74.2008 72.5494 76.22 74.7602C76.7864 75.3804 77.635 75.9222 78.3146 75.8004C79.5368 75.5806 80.5226 73.9682 80.445 73.1435C80.2225 70.8021 77.5475 68.278 77.2554 68.5979C76.9632 68.9177 76.7883 68.8437 76.7307 69.4944Z" fill="#FBAE96"/>
<path d="M75.8734 74.2525C75.8377 74.2525 75.8019 74.2329 75.78 74.1959C75.7482 74.1394 75.7641 74.0654 75.8158 74.0327C76.5591 73.5323 77.4673 72.4508 77.6442 71.5804C77.819 70.7144 78.137 69.3653 78.141 69.3522C78.1569 69.2891 78.2165 69.2499 78.2741 69.2673C78.3318 69.2847 78.3676 69.3478 78.3517 69.4131C78.3477 69.4262 78.0317 70.7709 77.8568 71.6348C77.666 72.5813 76.728 73.702 75.9291 74.2394C75.9112 74.2525 75.8913 74.2569 75.8715 74.2569L75.8734 74.2525Z" fill="#C99565"/>
<path d="M76.4434 74.9757C76.3917 74.9757 76.346 74.9365 76.3361 74.8799C76.3242 74.8147 76.3639 74.7537 76.4216 74.7407C76.9701 74.6232 78.1525 73.446 78.3691 72.8911C78.5997 72.3014 79.0786 70.5214 79.0786 70.3126C79.0786 70.2473 79.1283 70.1929 79.1879 70.1929C79.2476 70.1929 79.2972 70.2473 79.2972 70.3126C79.2972 70.5933 78.7825 72.445 78.5719 72.9847C78.3493 73.5548 77.133 74.8321 76.4653 74.9735C76.4593 74.9735 76.4514 74.9757 76.4454 74.9757H76.4434Z" fill="#C99565"/>
<path d="M77.6017 75.5679C77.556 75.5679 77.5142 75.5374 77.4983 75.4874C77.4785 75.4243 77.5083 75.3568 77.5659 75.3351C78.2813 75.0609 79.1081 74.0774 79.3168 73.5464C79.5314 73.0024 79.901 71.7121 79.903 71.699C79.9209 71.6359 79.9825 71.6011 80.0401 71.6207C80.0978 71.6403 80.1296 71.7077 80.1117 71.7708C80.0958 71.8252 79.7341 73.0851 79.5175 73.64C79.2969 74.2036 78.4344 75.2567 77.6375 75.5614C77.6255 75.5657 77.6136 75.5679 77.6017 75.5679Z" fill="#C99565"/>
<path d="M20.579 95.6855L9.86329 95.7203L9.84976 90.7265L20.5654 90.6917C20.9768 90.6903 21.3117 91.0548 21.3129 91.5052L21.322 94.8649C21.3232 95.3154 20.9903 95.682 20.579 95.6834L20.579 95.6855Z" fill="#7096C4"/>
<path d="M13.1806 94.3183L13.1747 92.0792C13.1747 91.8289 13.0137 91.6244 12.815 91.6244L0.586867 91.6657C0.574943 91.6657 0.563019 91.657 0.557057 91.644C0.447753 91.3829 0.451728 91.0935 0.557057 90.7823C0.563019 90.7671 0.572956 90.7584 0.586867 90.7584L13.4907 90.7148C13.6874 90.7148 13.8484 90.9172 13.8504 91.1696L13.8623 95.2539C13.8623 95.5042 13.7033 95.7087 13.5046 95.7109L0.670335 95.7544C0.610715 95.7544 0.557057 95.7087 0.537184 95.6369C0.469614 95.4106 0.475576 95.1778 0.539171 94.9362C0.559045 94.8644 0.612702 94.8166 0.672323 94.8166L12.8229 94.7774C13.0197 94.7774 13.1806 94.5729 13.1806 94.3204V94.3183Z" fill="#79ADDD"/>
<path d="M2.92347 92.3843L0.975874 92.3908C1.01165 92.2799 1.05934 92.2799 1.11499 91.503L13.0967 91.4639C13.1404 91.4639 13.1543 91.6684 13.1563 91.7228L13.1642 94.7931C13.1642 94.8475 1.05338 94.841 1.05338 94.841C0.95799 94.1012 0.934141 94.0663 0.902344 93.7465L2.06891 93.7138L0.930166 93.7182C0.898369 93.7182 0.912281 92.9109 0.959977 92.5083L2.92347 92.3821V92.3843Z" fill="#E6E6E6"/>
<path d="M12.8969 92.5713L12.9009 94.0314L12.9029 94.3578L12.3782 94.1967L11.8555 94.3621V94.0357L11.8516 92.5756L12.8969 92.5713Z" fill="#F6A447"/>
<path d="M88.4868 71.8262C88.143 74.7268 85.5912 76.6852 82.954 76.2282C80.3168 75.7713 78.5163 73.0578 78.9356 70.1703C79.353 67.2828 81.8312 65.3114 84.4684 65.7705C87.1056 66.2296 88.7431 69.6633 88.4888 71.8284L88.4868 71.8262Z" fill="#FCDCB5"/>
<path d="M95.8269 83.0264C96.4629 89.5369 96.602 95.919 88.6387 95.919C82.5674 95.919 80.9477 91.0166 81.2816 83.5181C81.6095 76.1568 83.575 68.5169 87.2436 70.434C91.3097 72.5577 95.183 76.4571 95.8269 83.0264Z" fill="#FCDCB5"/>
<path d="M82.3097 76.032C82.2719 76.032 82.2322 76.0211 82.1964 75.9994C82.0871 75.9297 82.0494 75.7774 82.1129 75.6577C83.5498 72.9247 85.0582 72.1 86.6063 71.432C88.2061 70.7422 88.7268 71.1078 88.8162 71.1883L88.5241 71.5734C88.5241 71.5734 88.5281 71.5778 88.536 71.5821C88.5321 71.5799 88.1227 71.3145 86.7752 71.8955C85.3066 72.5287 83.8737 73.312 82.5104 75.9058C82.4687 75.9863 82.3912 76.032 82.3117 76.032H82.3097Z" fill="#9E614B"/>
<path d="M100.517 108.999C100.499 108.999 100.481 108.999 100.462 108.999C99.776 108.966 99.2454 108.331 99.2752 107.582C99.2752 107.558 99.3726 105.051 99.2573 102.373C99.0586 97.7706 98.3272 96.9655 97.7648 96.6435C96.9301 96.2039 93.5198 95.6208 90.2566 95.3118C89.573 95.2465 89.0682 94.5872 89.1278 93.8408C89.1874 93.0923 89.7896 92.5396 90.4713 92.6048C92.2062 92.7702 97.9834 93.3773 99.5316 94.2847C100.346 94.7612 100.893 95.8101 101.251 97.5857C101.479 98.715 101.638 100.177 101.724 101.931C101.867 104.856 101.759 107.586 101.755 107.702C101.726 108.431 101.177 109.001 100.515 109.001L100.517 108.999Z" fill="#FCDCB5"/>
<path d="M79.7608 70.0656L78.161 67.8091C77.9901 67.5676 78.167 67.2195 78.4432 67.2499L81.0049 67.5328L79.7608 70.0656Z" fill="#FCDCB5"/>
<path d="M85.7174 66.491L84.8013 64.3716C84.7416 64.1888 84.5052 64.191 84.4475 64.3716L83.6387 66.2756L85.7174 66.4888V66.491Z" fill="#FCDCB5"/>
<path d="M83.4447 83.5399C82.6557 83.4289 82.0595 82.6738 82.0933 81.7882C82.141 80.5348 81.5785 79.8733 81.0976 79.5382C80.4915 79.1161 79.9132 79.1292 79.7621 79.2053C79.0864 79.7645 78.1226 79.6274 77.6019 78.892C77.0772 78.1521 77.2024 77.0881 77.8781 76.5158C78.989 75.5758 80.7816 75.5344 82.3397 76.4157C84.2157 77.4754 85.281 79.5382 85.1895 81.9318C85.1538 82.8675 84.4324 83.5921 83.5778 83.5529C83.5321 83.5529 83.4884 83.5464 83.4447 83.5399Z" fill="#FCDCB5"/>
<path d="M85.8749 93.3553C85.549 93.3553 80.2428 93.0093 80.2269 94.5912C80.209 96.1732 80.9066 95.8903 82.8502 95.8903C84.7938 95.8903 87.8523 95.9099 87.8523 95.9099L85.8749 93.3553Z" fill="#FCDCB5"/>
<path d="M7.82617 9.94909L12.4885 19.4516C14.3128 16.4292 16.6062 15.8199 20.7598 15.1345L15.08 6.21729C10.7734 7.11814 9.40611 7.62297 7.82816 9.94909H7.82617Z" fill="#ABCFE3"/>
<path d="M20.7599 15.1326C20.7599 15.1326 24.041 9.06166 28.1786 9.7645L21.3303 0.634084C21.3303 0.634084 19.4622 0.364263 17.608 2.08111C15.7538 3.79796 15.0801 6.21548 15.0801 6.21548L20.7599 15.1326Z" fill="#ABCFE3"/>
<path d="M16.4485 6.43962C16.4088 6.43962 16.377 6.4048 16.377 6.36128C16.377 5.56487 17.1083 4.16572 18.3325 3.19958C19.4851 2.29002 20.133 2.01367 21.1088 2.01367C21.1486 2.01367 21.1803 2.04849 21.1803 2.09201C21.1803 2.13553 21.1486 2.17034 21.1088 2.17034C20.1589 2.17034 19.5547 2.42928 18.416 3.32796C17.2454 4.25058 16.52 5.62145 16.52 6.36128C16.52 6.4048 16.4882 6.43962 16.4485 6.43962Z" fill="#7496B8"/>
<path d="M17.1868 7.63639C17.147 7.63639 17.1152 7.60158 17.1152 7.55806C17.1152 6.76165 17.8466 5.36249 19.0708 4.39636C20.2234 3.4868 20.8733 3.21045 21.8471 3.21045C21.8868 3.21045 21.9186 3.24526 21.9186 3.28878C21.9186 3.3323 21.8868 3.36712 21.8471 3.36712C20.8971 3.36712 20.293 3.62606 19.1542 4.52474C17.9837 5.44736 17.2583 6.81822 17.2583 7.55806C17.2583 7.60158 17.2265 7.63639 17.1868 7.63639Z" fill="#7496B8"/>
<path d="M18.0637 9.04216C18.024 9.04216 17.9922 9.00734 17.9922 8.96382C17.9922 8.16741 18.7235 6.76826 19.9477 5.80212C21.1004 4.89256 21.7483 4.61621 22.724 4.61621C22.7638 4.61621 22.7956 4.65103 22.7956 4.69455C22.7956 4.73807 22.7638 4.77288 22.724 4.77288C21.7741 4.77288 21.1699 5.03182 20.0312 5.9305C18.8607 6.85312 18.1353 8.22399 18.1353 8.96382C18.1353 9.00734 18.1035 9.04216 18.0637 9.04216Z" fill="#7496B8"/>
<path d="M18.8958 10.4743C18.856 10.4743 18.8242 10.4395 18.8242 10.3959C18.8242 9.59954 19.5556 8.20039 20.7798 7.23425C21.9324 6.32469 22.5803 6.04834 23.5561 6.04834C23.5958 6.04834 23.6276 6.08316 23.6276 6.12668C23.6276 6.17019 23.5958 6.20501 23.5561 6.20501C22.6061 6.20501 22.002 6.46395 20.8632 7.36263C19.6927 8.28525 18.9673 9.65612 18.9673 10.3959C18.9673 10.4395 18.9355 10.4743 18.8958 10.4743Z" fill="#7496B8"/>
<path d="M19.5137 11.1768L20.7597 13.1809C20.7597 13.1809 21.4156 11.3596 22.3436 10.759L21.1075 8.80713C21.1075 8.80713 20.3941 9.18357 19.9668 9.84725C19.6091 10.4021 19.5157 11.1746 19.5157 11.1746L19.5137 11.1768Z" fill="#7496B8"/>
<path d="M67.571 13.4542L66.0352 12.0596L59.3253 20.9183L60.8611 22.3129L67.571 13.4542Z" fill="#C98446"/>
<path d="M67.5706 13.4558L67.0918 13.021L60.3819 21.8797L60.8607 22.3145L67.5706 13.4558Z" fill="#A36B39"/>
<path d="M66.5081 12.4963L66.0293 12.0615L59.3194 20.9202L59.7982 21.355L66.5081 12.4963Z" fill="#A36B39"/>
<path d="M67.5714 13.4526L66.0352 12.0578L67.476 11.4289L68.1159 11.1504L67.949 11.8554L67.5714 13.4526Z" fill="#E5C3A5"/>
<path d="M67.9397 11.8661L67.4688 11.4374L68.1087 11.1567L67.9397 11.8661Z" fill="#877268"/>
<path d="M59.3171 20.9219C59.2535 21.0633 57.6239 22.5582 58.5659 23.4808C59.5258 24.423 60.8533 22.3189 60.8533 22.3189L59.3171 20.9241V20.9219Z" fill="#FA9876"/>
<path d="M-1.48169 22.1462L-2.58789 23.9644L6.15986 30.3449L7.26606 28.5267L-1.48169 22.1462Z" fill="#E4AF9C"/>
<path d="M-1.48131 22.1475L-1.82617 22.7144L6.92158 29.0949L7.26644 28.5281L-1.48131 22.1475Z" fill="#FBE8E2"/>
<path d="M-2.23912 23.399L-2.58398 23.9658L6.16376 30.3464L6.50863 29.7796L-2.23912 23.399Z" fill="#E4AF9C"/>
<path d="M6.16211 30.3484C6.29725 30.4028 7.82352 32.0217 8.5648 30.8989C9.31999 29.7544 7.26906 28.5293 7.26906 28.5293L6.16211 30.3484Z" fill="#FCC583"/>
<path d="M47.3555 -0.724325C43.9969 2.54835 43.671 8.16456 46.6063 11.8746L47.9855 10.5298L49.0448 9.49843L56.4337 2.29811L57.493 1.26452L58.8722 -0.0780582C55.8474 -3.70107 50.7161 -3.99918 47.3555 -0.724325ZM48.1624 7.88386C47.4529 5.84279 47.918 3.44703 49.4959 1.91079C51.0739 0.37237 53.3017 0.143892 55.0704 1.15355L48.1624 7.88603V7.88386Z" fill="#DCF8C1"/>
<path d="M45.101 7.23555C45.0533 7.23555 45.0116 7.19856 45.0036 7.14634C44.9937 7.08759 45.0295 7.02884 45.0831 7.01796L45.892 6.84605C45.9476 6.83517 45.9993 6.87434 46.0092 6.93309C46.0191 6.99184 45.9854 7.0506 45.9297 7.06148L45.1209 7.23338C45.1209 7.23338 45.107 7.23338 45.101 7.23338V7.23555Z" fill="#A4C5EE"/>
<path d="M48.1202 0.668212C48.0923 0.668212 48.0645 0.655156 48.0466 0.63122L47.369 -0.20218C47.3332 -0.247876 47.3352 -0.315331 47.3769 -0.356675C47.4186 -0.395842 47.4802 -0.393666 47.518 -0.347971L48.1957 0.48543C48.2315 0.531125 48.2295 0.59858 48.1877 0.639924C48.1679 0.657332 48.146 0.668212 48.1222 0.668212H48.1202Z" fill="#A4C5EE"/>
<path d="M48.5971 10.0462C48.5693 10.0462 48.5415 10.0331 48.5236 10.0092L48.0506 9.42819C48.0148 9.3825 48.0168 9.31504 48.0586 9.2737C48.1003 9.23453 48.1619 9.2367 48.1996 9.2824L48.6726 9.86339C48.7084 9.90908 48.7064 9.97654 48.6647 10.0179C48.6448 10.0375 48.623 10.0462 48.5991 10.0462H48.5971Z" fill="#A4C5EE"/>
<path d="M49.8354 8.83767C49.8076 8.83767 49.7798 8.82462 49.7619 8.80068L49.2889 8.21969C49.2531 8.174 49.2551 8.10654 49.2968 8.0652C49.3386 8.02603 49.4002 8.02821 49.4379 8.0739L49.9109 8.65489C49.9467 8.70059 49.9447 8.76804 49.903 8.80939C49.8831 8.82679 49.8612 8.83767 49.8374 8.83767H49.8354Z" fill="#A4C5EE"/>
<path d="M51.0795 7.62722C51.0517 7.62722 51.0239 7.61417 51.006 7.59023L50.533 7.00925C50.4972 6.96355 50.4992 6.89609 50.541 6.85475C50.5827 6.81558 50.6443 6.81776 50.6821 6.86346L51.1551 7.44444C51.1908 7.49014 51.1888 7.55759 51.1471 7.59894C51.1272 7.61634 51.1054 7.62722 51.0815 7.62722H51.0795Z" fill="#A4C5EE"/>
<path d="M52.3198 6.41726C52.292 6.41726 52.2641 6.40421 52.2462 6.38027L51.7733 5.79928C51.7375 5.75359 51.7395 5.68613 51.7812 5.64479C51.8229 5.60562 51.8845 5.6078 51.9223 5.65349L52.3953 6.23448C52.4311 6.28018 52.4291 6.34763 52.3873 6.38898C52.3675 6.40638 52.3456 6.41726 52.3218 6.41726H52.3198Z" fill="#A4C5EE"/>
<path d="M53.56 5.2073C53.5322 5.2073 53.5044 5.19425 53.4865 5.17031L53.0135 4.58932C52.9777 4.54363 52.9797 4.47617 53.0214 4.43483C53.0632 4.39566 53.1248 4.39784 53.1625 4.44353L53.6355 5.02452C53.6713 5.07022 53.6693 5.13767 53.6276 5.17901C53.6097 5.19642 53.5858 5.2073 53.562 5.2073H53.56Z" fill="#A4C5EE"/>
<path d="M54.8022 3.99978C54.7744 3.99978 54.7465 3.98673 54.7287 3.96279L54.2557 3.3818C54.2199 3.33611 54.2219 3.26865 54.2636 3.22731C54.3054 3.18814 54.367 3.19032 54.4047 3.23601L54.8777 3.817C54.9135 3.8627 54.9115 3.93015 54.8698 3.97149C54.8519 3.9889 54.828 3.99978 54.8042 3.99978H54.8022Z" fill="#A4C5EE"/>
<path d="M56.0424 2.78982C56.0146 2.78982 55.9868 2.77677 55.9689 2.75283L55.4959 2.17184C55.4601 2.12615 55.4621 2.05869 55.5039 2.01735C55.5456 1.97818 55.6072 1.98036 55.645 2.02605L56.1179 2.60704C56.1537 2.65274 56.1517 2.72019 56.11 2.76153C56.0901 2.77894 56.0683 2.78982 56.0444 2.78982H56.0424Z" fill="#A4C5EE"/>
<path d="M57.2827 1.57986C57.2548 1.57986 57.227 1.56681 57.2091 1.54287L56.7361 0.961883C56.7004 0.916187 56.7024 0.848731 56.7441 0.807388C56.7858 0.76822 56.8474 0.770396 56.8852 0.816092L57.3582 1.39708C57.394 1.44277 57.392 1.51023 57.3502 1.55157C57.3323 1.56898 57.3085 1.57986 57.2847 1.57986H57.2827Z" fill="#A4C5EE"/>
<path d="M91.3426 13.7984L92.8828 14.4381C92.8828 14.3511 92.843 14.3359 92.9802 13.7875L83.5065 9.84464C83.4727 9.83158 83.4111 9.96649 83.3992 10.0035L82.6738 12.0946C82.6619 12.1316 92.2468 16.0853 92.2468 16.0853C92.4953 15.611 92.5231 15.5958 92.6225 15.389L91.7063 14.9865L92.6066 15.3607C92.6304 15.3716 92.8093 14.8168 92.8669 14.5252L91.3426 13.7984Z" fill="#D9D4A7"/>
<path d="M92.7305 13.5986C92.7802 14.5387 91.8203 16.1119 91.8203 16.1119L92.2436 16.2229C92.2436 16.2229 92.965 14.7845 93.0525 14.3842C93.1399 13.9838 93.1399 13.7292 93.1399 13.7292L92.7285 13.6008L92.7305 13.5986Z" fill="#C2BD95"/>
<path d="M82.7712 11.7664L83.2998 10.2411C83.3594 10.0692 83.5343 9.98432 83.6913 10.0496L93.3597 14.073C93.3597 14.073 93.3796 14.073 93.3876 14.0665C93.5366 13.9228 93.6002 13.7248 93.5903 13.4789C93.5903 13.4681 93.5823 13.4572 93.5724 13.4528L83.3694 9.20532C83.2124 9.14004 83.0375 9.22708 82.9779 9.3968L82.012 12.1799C81.9524 12.3518 82.0319 12.5433 82.1869 12.6086L92.3343 16.8321C92.382 16.8517 92.4336 16.8365 92.4674 16.7951C92.5727 16.6624 92.6244 16.5014 92.6304 16.3164C92.6304 16.2598 92.6006 16.2098 92.5529 16.1902L82.9461 12.1908C82.7891 12.1255 82.7116 11.934 82.7712 11.7621V11.7664Z" fill="#B1B1E8"/>
<path d="M83.8767 10.9565L82.8652 13.8658L82.6406 14.5143L83.3799 14.4512L83.8887 15.0343L84.1132 14.3859L85.1248 11.4766L83.8767 10.9565Z" fill="#F5A98D"/>
<path d="M82.0944 12.5453L78.2012 5.18182L79.0537 3.03412C79.2346 2.58152 79.7175 2.3748 80.1309 2.57499L89.4257 7.0858L93.5732 13.4527L83.2172 9.44239L82.0944 12.5432V12.5453Z" fill="#B1B1E8"/>
<path d="M79.6877 2.50977C79.4174 2.55111 79.1729 2.74042 79.0557 3.03635L78.2031 5.18405L82.0963 12.5476L83.2192 9.44679L83.4139 9.52295C82.3288 7.54281 80.4627 4.11129 79.6877 2.51194V2.50977Z" fill="#C8C8F0"/>
</g>
<defs>
<clipPath id="clip0_2003_5185">
<rect width="100" height="100" fill="white"/>
</clipPath>
</defs>
</svg>
