<svg width="394" height="229" viewBox="0 0 394 229" fill="none" xmlns="http://www.w3.org/2000/svg">
<g clip-path="url(#clip0_2003_5020)">
<path d="M263.726 157.319C261.474 156.216 259.8 159.792 262.525 160.839C265.25 161.885 266.795 162.567 267.653 162.567C268.511 162.567 269.296 160.339 268.563 159.605C267.829 158.871 265.281 158.079 263.726 157.319Z" fill="#FBAE96"/>
<path d="M156.882 128.155C160.699 128.155 161.703 133.064 166.467 134.647C172.375 136.61 180.051 133.507 182.032 128.447C184.606 121.871 179.733 118.446 180.841 107.518C181.575 100.276 176.649 100.917 172.432 93.8676C168.214 86.8134 169.343 86.0481 163.622 79.5665C157.901 73.0849 148.342 72.1686 141.16 73.3088C133.978 74.4489 130.4 75.7661 124.778 79.6342C119.156 83.5023 121.699 87.6464 118.085 90.3796C114.471 93.1075 112.858 96.2781 111.766 101.703C109.665 112.115 116.728 117.149 113.555 120.747C110.383 124.344 103.944 140.467 120.602 139.494C126.489 139.15 131.763 141.087 134.649 136.615C138.898 130.034 141.02 134.413 146.839 131.529C152.664 128.639 156.877 128.165 156.877 128.165L156.882 128.155Z" fill="#37231B"/>
<path d="M114.189 131.716C128.216 120.288 129.547 131.716 163.195 129.482C167.345 129.206 186.234 133.012 189.88 135.256C208.363 146.621 222.81 221.047 222.81 221.047L115.781 219.865L114.189 131.716Z" fill="#FCC583"/>
<path d="M141.015 126.52C140.771 131.237 136.48 126.775 136.48 132.752C136.48 137.942 142.284 146.236 158.713 143.607C169.161 141.935 172.303 133.007 166.093 130.404C162.577 128.931 160.918 123.011 160.918 123.011L141.015 126.515V126.52Z" fill="#FBAE96"/>
<path d="M163.29 99.4797C166.519 112.432 166.394 131.247 151.656 132.377C133.625 133.762 113.774 98.3396 128.242 85.3348C142.711 72.33 158.713 81.1387 163.29 99.4797Z" fill="#FBAE96"/>
<path d="M134.7 95.0231C132.578 99.1203 132.427 99.8543 130.076 102.207C127.726 104.561 127.944 110.657 129.067 114.135C134.419 130.716 129.837 122.709 128.776 123.771C127.715 124.833 123.321 114.004 122.717 113.401C122.109 112.791 117.34 95.4292 117.34 93.607C117.34 91.7849 128.828 80.8 130.217 79.4048C131.61 78.0096 144.154 75.4065 147.717 75.4065C151.279 75.4065 158.399 74.9536 159.918 77.3796C161.431 79.8057 171.281 100.13 171.281 100.13C171.281 100.13 177.189 109.6 173.195 109.335C168.083 108.991 167.12 107.96 165.81 104.967C164.406 101.749 163.074 94.5233 156.033 96.9129C144.128 100.948 134.7 95.0335 134.7 95.0335V95.0231Z" fill="#37231B"/>
<path d="M85.8206 228.247C81.2596 199.817 103.908 134.407 118.611 128.452C128.97 124.25 136.953 127.556 138.878 139.036C140.802 150.515 123.286 204.606 123.286 204.606C123.286 204.606 174.653 190.477 179.203 204.606C183.749 218.736 181.476 228.747 181.476 228.747L85.8258 228.247H85.8206Z" fill="#FCC583"/>
<path d="M133.308 206.049C128.601 206.049 124.42 205.945 121.258 205.861C119.734 205.825 118.413 205.789 117.336 205.773C116.868 205.768 116.478 205.554 116.234 205.179C115.058 203.363 117.617 197.162 122.636 185.433C127.769 173.427 134.155 158.486 134.155 150.38C134.155 150.026 134.441 149.74 134.795 149.74C135.149 149.74 135.435 150.026 135.435 150.38C135.435 158.751 128.991 173.823 123.811 185.938C121.746 190.764 119.801 195.319 118.579 198.713C116.832 203.571 117.206 204.367 117.31 204.487C117.31 204.487 117.326 204.487 117.352 204.487C118.434 204.503 119.76 204.534 121.289 204.576C128.31 204.753 138.914 205.023 149.825 204.216C150.178 204.19 150.485 204.456 150.511 204.81C150.537 205.164 150.272 205.471 149.918 205.497C144.193 205.919 138.441 206.044 133.308 206.044V206.049Z" fill="#C99565"/>
<path d="M141.181 112.37C141.067 113.109 141.841 115.342 143.495 114.832C144.587 114.494 144.405 111.703 143.121 111.193C142.075 110.782 141.295 111.63 141.181 112.37Z" fill="#372313"/>
<path d="M154.739 108.226C154.546 108.949 155.227 111.24 156.923 110.902C158.046 110.683 158.01 107.903 156.793 107.263C155.8 106.737 154.931 107.502 154.739 108.226Z" fill="#372313"/>
<path d="M148.414 124.786C149.314 125.828 151.472 127.051 154.79 125.927C158.108 124.802 157.728 121.455 157.728 121.455C154.733 123.35 151.878 124.261 148.414 124.781V124.786Z" fill="#E66C40"/>
<path d="M152.305 105.67C152.971 105.67 155.077 104.191 157.079 104.514C159.081 104.837 159.009 104.561 158.53 104.077C158.047 103.593 156.689 103.093 154.151 103.421C151.072 103.822 151.728 105.67 152.305 105.67Z" fill="#37231B"/>
<path d="M143.48 107.794C143.517 107.154 142.144 106.997 141.15 107.258C139.788 107.617 137.708 109.606 137.364 111.032C137.182 111.777 137.708 112.141 138.472 111.095C139.377 109.861 140.089 109.111 141.239 108.934C142.165 108.788 143.454 108.299 143.48 107.799V107.794Z" fill="#37231B"/>
<path d="M132.007 114.369C133.63 116.66 135.866 121.163 134.202 122.345C132.538 123.527 127.602 120.945 125.98 118.654C124.357 116.363 124.388 113.547 126.052 112.365C127.717 111.183 130.385 112.079 132.007 114.369Z" fill="#FBAE96"/>
<path d="M151.94 133.96C148.669 133.96 145.954 132.866 145.803 132.804C145.59 132.715 145.486 132.471 145.575 132.257C145.663 132.044 145.907 131.94 146.121 132.028C146.167 132.049 150.89 133.944 155.196 132.684C155.419 132.622 155.648 132.747 155.716 132.97C155.778 133.194 155.653 133.423 155.43 133.491C154.254 133.835 153.063 133.965 151.94 133.965V133.96Z" fill="#C99565"/>
<path d="M133.755 123.017C134.936 124.198 140.402 129.555 145.961 132.419C147.573 133.252 146.757 138.791 146.616 139.619C145.555 145.918 138.815 144.559 134.79 142.545C130.468 140.379 134.514 126.572 128.398 126.156C121.466 125.682 118.71 128.754 117.701 128.488C115.724 127.962 119.266 124.891 124.087 123.438C127.951 122.277 133.048 122.564 133.755 123.017Z" fill="#37231B"/>
<path d="M136.682 80.441C134.061 80.0089 132.781 83.169 131.554 84.9027C131.31 85.2463 131.876 85.6836 132.136 85.3556C133.281 83.9291 134.326 80.9148 136.578 81.1907C136.999 81.2428 137.103 80.5139 136.677 80.441H136.682Z" fill="#55341B"/>
<path d="M137.863 83.1427C136.095 83.3041 135.06 84.6733 134.036 85.9696C133.739 86.3445 134.259 86.8755 134.566 86.5007C135.445 85.4126 136.365 84.085 137.868 83.9028C138.342 83.8456 138.362 83.0959 137.868 83.1427H137.863Z" fill="#55341B"/>
<path d="M125.194 99.0993C123.686 100.911 122.661 103.223 122.24 105.544C122.151 106.018 122.874 106.226 122.973 105.747C123.41 103.571 124.336 101.374 125.724 99.6303C126.021 99.2607 125.506 98.7297 125.194 99.0993Z" fill="#55341B"/>
<path d="M142.662 135.907C142.699 135.412 141.945 135.422 141.898 135.907C141.804 136.958 142.007 138.015 141.955 139.072C141.929 139.546 141.872 140.098 141.575 140.488C141.196 140.988 140.572 140.988 140 140.946C139.5 140.91 139.526 141.649 140 141.711C143.505 142.149 142.517 138.015 142.662 135.907Z" fill="#55341B"/>
<path d="M177.772 111.932C177.341 111.037 176.779 110.214 176.254 109.376C175.91 108.824 175.291 108.048 175.323 107.361C175.343 106.882 174.605 106.882 174.579 107.361C174.543 107.939 174.865 108.517 175.141 109.001C175.572 109.766 176.072 110.495 176.519 111.25C176.924 111.927 177.382 112.671 177.512 113.468C177.647 114.296 177.164 114.644 176.42 114.848C175.942 114.978 176.144 115.686 176.623 115.587C177.382 115.425 178.1 114.999 178.277 114.192C178.443 113.426 178.105 112.614 177.777 111.937L177.772 111.932Z" fill="#55341B"/>
<path d="M177.807 121.111C177.376 120.627 176.83 120.392 176.258 120.122C175.566 119.788 175.212 119.46 175.311 118.638C175.358 118.227 174.635 118.123 174.578 118.539C174.406 119.762 175.009 120.377 176.06 120.866C176.58 121.106 177.433 121.47 177.563 122.116C177.662 122.626 176.819 123.037 176.523 123.365C176.195 123.729 176.705 124.25 177.064 123.906C177.459 123.526 178.031 123.209 178.26 122.688C178.515 122.11 178.197 121.548 177.813 121.116L177.807 121.111Z" fill="#55341B"/>
<path d="M157.953 86.1052C157.292 85.3972 156.45 85.1421 155.509 85.0536C154.448 84.9494 153.413 85.0067 152.679 84.1008C152.362 83.7104 151.821 84.2622 152.128 84.6527C153.496 86.3759 155.935 85.1837 157.407 86.6466C157.755 86.9954 158.281 86.4644 157.948 86.1052H157.953Z" fill="#55341B"/>
<path d="M186.408 134.011C192.238 134.803 210.737 156.47 234.15 161.499C257.563 166.528 266.119 161.223 266.119 161.223L276.114 177.435C253.205 194.235 217.42 185.411 194.734 174.098L186.408 134.011Z" fill="#FCC583"/>
<path d="M279.245 225.936C279.245 225.936 293.391 181.252 263.742 159.355C257.501 154.747 252.071 152.576 238.95 152.623C224.976 152.675 212.401 165.779 207.46 174.655C198.307 191.102 190.725 225.936 190.725 225.936H279.245Z" fill="#DB7E5D"/>
<path d="M262.53 225.899C262.181 225.899 261.906 225.618 261.906 225.274V199.816C261.9 199.697 261.115 184.531 258.993 178.627C258.874 178.299 259.045 177.94 259.373 177.826C259.7 177.706 260.059 177.878 260.174 178.206C262.363 184.286 263.128 199.16 263.164 199.79V225.279C263.164 225.628 262.883 225.904 262.54 225.904L262.53 225.899Z" fill="#9E614B"/>
<path d="M216.41 221.844C216.098 221.844 215.827 221.61 215.791 221.287C215.64 219.98 212.088 189.134 214.116 178.295C214.179 177.957 214.506 177.733 214.85 177.795C215.188 177.858 215.411 178.186 215.349 178.529C213.352 189.181 217.003 220.829 217.039 221.146C217.081 221.49 216.831 221.802 216.488 221.844C216.462 221.844 216.436 221.844 216.415 221.844H216.41Z" fill="#9E614B"/>
<path d="M230.743 157.809C227.602 161.38 225.6 172.308 231.331 172.6C244.806 173.292 249.502 154.972 245.893 153.806C237.645 151.135 230.743 157.809 230.743 157.809Z" fill="#F1F2F2"/>
<path d="M230.165 148.673C230.165 150.068 229.349 158.97 231.637 160.241C238.335 163.958 245.897 156.18 245.897 153.811V146.168L230.17 148.678L230.165 148.673Z" fill="#FBAE96"/>
<path d="M219.413 113.703C218.758 106.893 214.779 101.208 211.341 104.061C207.904 106.914 203.972 109.918 204.809 113.703C205.277 115.822 216.298 119.284 216.298 119.284L219.413 113.703Z" fill="#37231B"/>
<path d="M212.631 120.346C212.449 120.346 212.267 120.268 212.142 120.112C211.924 119.841 211.971 119.445 212.236 119.232C214.425 117.467 215.491 115.582 215.491 113.474C215.491 113.125 215.772 112.849 216.116 112.849C216.459 112.849 216.74 113.13 216.74 113.474C216.74 115.952 215.486 118.217 213.016 120.211C212.902 120.304 212.761 120.351 212.626 120.351L212.631 120.346Z" fill="#DE501D"/>
<path d="M214.595 129.884C212.416 130.373 210.804 130.935 209.909 130.045C209.015 129.15 209.909 126.843 209.909 126.843L212.785 126.38L214.595 129.884Z" fill="#82512B"/>
<path d="M254.856 132.2C252.786 146.49 243.617 157.808 230.751 157.808C221.244 157.808 214.967 153.045 213.937 143.304C213.698 141.04 214.156 137.895 213.984 136.568C213.698 134.334 212.055 131.856 212.055 129.513C212.055 115.223 224.328 108.366 237.195 108.366C250.061 108.366 256.905 118.06 254.856 132.2Z" fill="#FBAE96"/>
<path d="M227.242 133.486C227.19 133.023 228.287 132.091 229.79 132.445C231.288 132.799 232.401 133.861 231.912 134.152C231.423 134.444 230.326 133.538 229.369 133.647C228.412 133.751 227.284 133.814 227.247 133.486H227.242Z" fill="#37231B"/>
<path d="M219.795 133.757C219.847 133.294 218.749 132.362 217.246 132.716C215.749 133.07 214.636 134.132 215.124 134.423C215.613 134.715 216.711 133.809 217.668 133.918C218.625 134.028 219.753 134.085 219.789 133.757H219.795Z" fill="#37231B"/>
<path d="M225.304 124.713C236.257 123.641 236.876 128.061 240.007 132.2C243.143 136.339 250.819 135.542 254.345 134.985C255.546 134.798 257.361 126.978 256.862 122.308C256.493 118.846 256.695 112.484 249.571 108.778C242.446 105.071 239.97 104.238 233.048 105.524C226.131 106.81 218.616 125.369 225.299 124.713H225.304Z" fill="#37231B"/>
<path d="M243.939 114.135C244.595 107.325 251.257 101.531 254.7 104.384C258.142 107.237 261.362 115.343 259.578 116.582C257.794 117.821 247.055 119.716 247.055 119.716L243.939 114.135Z" fill="#37231B"/>
<path d="M248.126 119.898C245.094 119.898 243.846 118.04 243.43 117.165C242.702 115.64 242.78 113.776 243.607 113.011C243.862 112.776 244.257 112.792 244.491 113.047C244.725 113.302 244.71 113.698 244.455 113.932C244.164 114.203 243.982 115.426 244.554 116.624C244.99 117.54 246.171 119.008 249.172 118.565C249.51 118.513 249.832 118.753 249.884 119.096C249.936 119.44 249.697 119.758 249.354 119.81C248.912 119.872 248.501 119.903 248.121 119.903L248.126 119.898Z" fill="#D9886B"/>
<path d="M209.083 129.347C212.739 134.1 214.169 121.168 224.331 123.641C228.3 124.604 225.184 117.795 228.965 115.155C232.741 112.516 238.763 106.612 232.21 105.758C225.658 104.904 216.785 108.694 214.32 112.745C213.223 114.546 210.955 116.951 210.628 120.2C210.191 124.583 208.033 127.978 209.088 129.347H209.083Z" fill="#37231B"/>
<path d="M221.316 148.99C221.316 148.99 222.455 151.614 225.493 151.775C228.53 151.936 229.076 149.016 229.076 149.016C226.403 149.927 224.088 150.114 221.316 148.99Z" fill="#F1F2F2"/>
<path d="M229.449 137.12C228.919 137.318 228.383 138.172 228.638 139.432C228.893 140.686 229.834 141.238 230.422 140.858C231.009 140.478 231.43 138.718 231.061 137.984C230.692 137.25 229.787 136.995 229.444 137.125L229.449 137.12Z" fill="#372313"/>
<path d="M217.563 137.141C217.043 137.359 216.538 138.234 216.845 139.483C217.152 140.728 218.109 141.238 218.686 140.837C219.264 140.431 219.607 138.661 219.212 137.942C218.816 137.224 217.896 137.005 217.563 137.146V137.141Z" fill="#372313"/>
<path d="M237.099 119.622C235.804 118.123 233.381 117.722 231.582 118.42C231.145 118.591 231.327 119.294 231.779 119.133C233.428 118.545 235.31 118.935 236.559 120.164C236.912 120.513 237.422 119.992 237.099 119.622Z" fill="#643D20"/>
<path d="M239.575 112.703C237.365 112.172 235.326 112.432 233.298 113.437C232.861 113.655 233.246 114.306 233.683 114.093C235.555 113.182 237.349 113.041 239.377 113.432C239.851 113.525 240.059 112.817 239.58 112.703H239.575Z" fill="#643D20"/>
<path d="M248.42 126.916C247.12 127.343 245.497 125.968 245.549 124.636C245.57 124.157 244.842 124.162 244.811 124.636C244.697 126.406 246.881 128.332 248.623 127.65C249.065 127.473 248.893 126.76 248.42 126.916Z" fill="#643D20"/>
<path d="M218.039 116.602C216.775 116.482 215.506 116.904 214.768 117.987C214.492 118.388 214.357 118.846 214.211 119.304C213.998 119.976 213.769 120.283 213.031 120.351C212.552 120.397 212.537 121.1 213.031 121.111C214.123 121.126 214.659 120.486 214.971 119.512C215.153 118.94 215.324 118.424 215.787 118.003C216.401 117.44 217.238 117.289 218.044 117.336C218.523 117.362 218.507 116.644 218.044 116.602H218.039Z" fill="#643D20"/>
<path d="M224.123 110.058C223.286 109.845 222.724 109.231 221.798 109.345C220.935 109.454 220.249 110.058 219.718 110.709C219.416 111.079 219.916 111.615 220.254 111.245C220.763 110.699 221.393 110.043 222.214 110.121C222.823 110.178 223.322 110.662 223.925 110.782C224.393 110.876 224.596 110.178 224.123 110.058Z" fill="#643D20"/>
<path d="M230.744 158.226C230.515 158.226 230.328 158.038 230.328 157.809C230.328 157.58 230.515 157.393 230.744 157.393C234.385 157.393 237.417 156.69 239.746 155.305C239.944 155.185 240.199 155.253 240.319 155.451C240.438 155.649 240.371 155.904 240.173 156.023C237.713 157.486 234.541 158.226 230.744 158.226Z" fill="#C48976"/>
<path d="M233.105 226.077C233.105 219.387 242.441 206.372 259.577 206.372C276.713 206.372 285.492 207.569 285.492 207.569V225.827L233.105 226.077Z" fill="#DB7E5D"/>
<path d="M232.814 211.088C232.565 211.088 232.325 210.937 232.232 210.687C232.107 210.364 232.268 210 232.591 209.875C237.921 207.834 258.011 205.7 262.536 205.757C262.884 205.757 263.16 206.043 263.155 206.392C263.155 206.736 262.869 207.012 262.531 207.012C262.531 207.012 262.525 207.012 262.52 207.012C258.188 206.949 238.134 209.094 233.043 211.046C232.97 211.072 232.892 211.088 232.819 211.088H232.814Z" fill="#9E614B"/>
<path d="M149.568 215.014H228.186C232.809 215.014 236.564 218.772 236.564 223.401V224.702H149.562V215.008L149.568 215.014Z" fill="#7781A6"/>
<path d="M217.551 224.707H130.981L125.292 160.302C124.964 158.444 125.775 156.731 127.637 156.731H208.731C210.177 156.731 211.42 157.783 211.674 159.23L217.551 224.707Z" fill="#7781A6"/>
<path d="M174.495 180.955C174.724 184.526 172.227 187.593 168.92 187.806C165.612 188.02 162.741 185.302 162.507 181.731C162.273 178.159 164.775 175.093 168.082 174.879C171.39 174.666 174.261 177.384 174.495 180.955Z" fill="#DBDBDB"/>
<path d="M397.999 223.538H-5.00195V236.939H397.999V223.538Z" fill="#DCBFA3"/>
<path d="M326.88 97.1576C326.88 91.0821 326.225 64.6455 334.915 52.1665C334.915 52.1665 336.881 62.6724 336.881 70.8043C336.881 78.9362 330.812 110.621 330.812 110.621L326.875 97.1576H326.88Z" fill="#A7CBBD"/>
<path d="M295.593 50.3604C295.593 50.3604 312.157 114.562 312.157 127.369C312.157 140.176 304.528 135.251 304.528 135.251C304.528 135.251 298.87 90.6711 296.899 85.5796C294.933 80.488 296.16 76.219 296.16 72.6893C296.16 69.1596 294.355 64.6459 294.355 61.2775C294.355 57.9092 295.588 50.3604 295.588 50.3604H295.593Z" fill="#A7CBBD"/>
<path d="M318.68 191.435C320.157 185.12 329.258 176.884 329.258 168.643C329.258 160.401 328.275 128.826 330.979 122.511C333.684 116.196 335.899 105.763 335.899 99.7191C335.899 93.6748 343.279 87.365 343.279 82.9711V75.5576C343.279 75.5576 346.722 80.2275 346.722 87.641C346.722 95.0544 344.017 104.665 341.802 107.138C339.586 109.611 338.109 112.63 338.109 117.847C338.109 123.063 336.877 148.875 336.877 155.742C336.877 162.609 336.383 163.978 334.661 170.569C332.94 177.16 319.897 192.809 319.897 192.809L318.664 191.435H318.68Z" fill="#A4CABB"/>
<path d="M304.652 191.435C301.21 183.746 295.796 167.274 295.796 159.308C295.796 151.343 297.028 143.659 295.796 139.265C294.563 134.871 287.646 105.529 290.34 94.737C292.02 88.0108 292.597 92.7483 292.597 92.7483C292.597 92.7483 303.425 109.887 304.652 116.748C305.88 123.61 304.273 136.521 305.885 140.342C307.492 144.164 310.316 153.269 310.316 159.313V190.618L304.658 191.44L304.652 191.435Z" fill="#C2E8D8"/>
<path d="M318.678 89.8327L307.361 67.5923C307.361 67.5923 303.424 80.2223 303.424 84.3403C303.424 88.4583 301.947 91.7538 301.947 95.8718C301.947 99.9898 305.39 108.502 305.39 115.645C305.39 122.787 304.158 130.196 304.158 136.24C304.158 142.284 310.31 191.435 310.31 191.435H314.741L318.678 89.8379V89.8327Z" fill="#92BCAB"/>
<path d="M314.743 191.435C314.743 185.943 313.021 181.549 313.021 173.313C313.021 165.077 313.021 159.86 311.544 149.698C310.067 139.536 314.743 124.709 314.743 118.118C314.743 111.527 312.283 92.0299 314.743 84.6164C317.203 77.203 319.907 62.1001 319.907 62.1001C319.907 62.1001 332.701 90.6555 332.701 95.6013V128.551C332.701 134.866 329.996 145.028 328.764 151.89C327.531 158.756 327.531 163.973 327.531 171.11C327.531 178.248 321.977 191.43 321.977 191.43H314.738L314.743 191.435Z" fill="#C2E8D8"/>
<path d="M334.146 223.838H298.553L293.862 184.032C293.623 182.017 295.199 180.247 297.227 180.247H335.28C337.303 180.247 338.874 182.007 338.645 184.016L334.151 223.838H334.146Z" fill="#E3AC69"/>
<path d="M336.705 212.015H295.745L294.361 192.804H338.005L336.705 212.015Z" fill="#FCC583"/>
<path d="M71.5325 208.594C49.6534 208.594 31.8516 190.773 31.8516 168.871C31.8516 156.559 37.4163 145.142 47.1259 137.552C47.6199 137.166 48.3272 137.244 48.7225 137.723L97.957 197.005C98.3574 197.484 98.3002 198.197 97.8322 198.609C90.5773 205.043 81.2369 208.589 71.5273 208.589L71.5325 208.594ZM47.6771 140.082C39.0753 147.219 34.1659 157.652 34.1659 168.877C34.1659 189.503 50.9275 206.282 71.5325 206.282C80.3008 206.282 88.7518 203.211 95.4555 197.614L47.6771 140.082Z" fill="#9CA8D3"/>
<path d="M71.5332 200.655C89.0682 200.655 103.283 186.425 103.283 168.872C103.283 151.318 89.0682 137.088 71.5332 137.088C53.9981 137.088 39.7832 151.318 39.7832 168.872C39.7832 186.425 53.9981 200.655 71.5332 200.655Z" fill="#A3D8F5"/>
<mask id="mask0_2003_5020" style="mask-type:luminance" maskUnits="userSpaceOnUse" x="39" y="137" width="65" height="64">
<path d="M71.5351 200.655C89.0701 200.655 103.285 186.425 103.285 168.872C103.285 151.318 89.0701 137.088 71.5351 137.088C54.0001 137.088 39.7852 151.318 39.7852 168.872C39.7852 186.425 54.0001 200.655 71.5351 200.655Z" fill="white"/>
</mask>
<g mask="url(#mask0_2003_5020)">
<path d="M55.9881 161.458C51.0735 164.78 44.8795 176.811 51.0735 175.9C57.2622 174.989 60.1798 170.798 63.0922 175.171C66.0045 179.544 66.3166 182.647 71.5328 182.647C76.7491 182.647 83.5203 186.552 84.5812 185.495C85.637 184.438 81.8509 178.092 79.8487 172.073C77.8464 166.06 71.8345 160.042 67.83 158.402C63.8255 156.762 55.9933 161.458 55.9933 161.458H55.9881Z" fill="#DEB788"/>
<path d="M74.6266 163.64C72.3643 161.156 69.842 159.225 67.8242 158.402C63.8197 156.762 55.9875 161.458 55.9875 161.458C53.7252 162.989 51.1925 166.362 49.7207 169.47C52.6903 170.106 52.8931 167.424 58.2238 166.904C64.4125 166.295 64.0485 166.289 67.2053 168.237C70.3621 170.184 69.1815 167.148 71.5322 165.93C73.0352 165.155 74.0701 164.327 74.6266 163.64Z" fill="#7DD2B1"/>
<path d="M51.8014 161.458C48.343 160.224 46.1587 160.589 46.1587 156.393C46.1587 152.197 47.4849 151.004 45.2746 151.004C43.0643 151.004 38.1445 160.568 38.1445 163.4C38.1445 166.232 43.7768 166.279 44.973 165.082C46.1691 163.884 51.8014 161.458 51.8014 161.458Z" fill="#DEB788"/>
<path d="M82.2101 135.953C72.9217 135.953 67.097 144.179 73.4678 146.548C79.8386 148.916 80.9359 148.526 84.7584 151.004C88.5809 153.477 92.2213 156.574 93.1366 154.206C94.0467 151.837 97.8692 151.29 97.8692 149.286C97.8692 147.282 83.6662 135.958 82.2101 135.958V135.953Z" fill="#7CC8AA"/>
<path d="M67.8245 201.967C66.7323 199.051 66.6543 198.14 70.7888 196.5C74.9233 194.861 75.4694 194.496 78.933 192.856C82.3915 191.216 83.1196 191.216 86.5832 191.216C90.0468 191.216 91.6798 195.043 91.6798 195.043C91.6798 195.043 84.8462 199.27 84.3313 199.78C83.8164 200.291 67.8245 201.967 67.8245 201.967Z" fill="#F1F2F2"/>
<path d="M50.6719 144.366C52.5597 144.366 53.4022 145.272 58.6861 143.45C63.9647 141.628 66.7887 137.229 66.7887 137.229L56.8658 138.983L50.6771 144.366H50.6719Z" fill="#F1F2F2"/>
</g>
<path d="M90.1077 176.342C91.0178 177.253 90.971 178.94 92.0216 177.894C93.0669 176.847 91.8395 175.842 93.5714 176.342C95.3032 176.842 96.3953 175.795 96.3953 174.244C96.3953 172.693 96.4889 171.053 94.7571 171.693C93.0253 172.333 91.9332 172.786 90.841 173.333C89.7489 173.88 90.1129 176.342 90.1129 176.342H90.1077Z" fill="#DCF8C1"/>
<path d="M96.3926 179.075C96.3926 177.982 96.923 177.295 97.8488 178.222C98.7745 179.148 101.219 181.351 99.5806 180.804C97.9424 180.257 96.3978 179.07 96.3978 179.07L96.3926 179.075Z" fill="#DCF8C1"/>
<path d="M94.1133 169.507C94.1133 168.596 96.0375 167.617 97.0673 166.591C98.0918 165.566 97.3065 163.858 98.2582 163.858C99.2099 163.858 99.2099 163.582 99.2099 164.952C99.2099 166.321 99.938 168.143 98.6638 168.143C97.3897 168.143 97.2077 168.689 96.3912 169.512C95.5695 170.335 94.1133 169.512 94.1133 169.512V169.507Z" fill="#E3AC69"/>
<path d="M71.9025 207.438L77.6544 219.105H65.4121L71.9025 207.438Z" fill="#9CA8D3"/>
<path d="M62.9996 217.095H80.0733C83.3758 217.095 86.0593 219.782 86.0593 223.087V224.212H57.0137V223.087C57.0137 219.782 59.6972 217.095 62.9996 217.095Z" fill="#9CA8D3"/>
<path d="M266.447 161.5C266.01 166.107 259.827 168.809 265.111 174.099C266.593 175.582 268.813 176.879 270.592 176.587C273.791 176.061 276.37 172.204 276.167 170.231C275.585 164.629 268.585 158.59 267.82 159.355C267.056 160.12 266.598 159.943 266.447 161.5Z" fill="#FBAE96"/>
<path d="M264.201 172.885C264.108 172.885 264.014 172.838 263.957 172.75C263.874 172.615 263.915 172.438 264.051 172.36C265.996 171.162 268.372 168.575 268.835 166.492C269.293 164.42 270.125 161.192 270.135 161.161C270.177 161.01 270.333 160.917 270.484 160.958C270.635 161 270.728 161.151 270.687 161.307C270.676 161.338 269.849 164.556 269.392 166.622C268.892 168.887 266.438 171.568 264.347 172.854C264.3 172.885 264.248 172.896 264.196 172.896L264.201 172.885Z" fill="#C99565"/>
<path d="M265.698 174.614C265.563 174.614 265.444 174.521 265.418 174.385C265.386 174.229 265.49 174.083 265.641 174.052C267.077 173.771 270.171 170.955 270.738 169.627C271.341 168.216 272.595 163.958 272.595 163.458C272.595 163.302 272.725 163.171 272.881 163.171C273.037 163.171 273.167 163.302 273.167 163.458C273.167 164.129 271.82 168.56 271.268 169.851C270.686 171.215 267.503 174.271 265.756 174.609C265.74 174.609 265.719 174.614 265.704 174.614H265.698Z" fill="#C99565"/>
<path d="M268.72 176.03C268.601 176.03 268.491 175.957 268.45 175.838C268.398 175.687 268.476 175.525 268.627 175.473C270.499 174.817 272.662 172.464 273.208 171.194C273.77 169.892 274.737 166.805 274.742 166.774C274.789 166.623 274.951 166.539 275.101 166.586C275.252 166.633 275.335 166.795 275.289 166.945C275.247 167.076 274.3 170.09 273.734 171.418C273.156 172.766 270.899 175.286 268.814 176.015C268.783 176.025 268.751 176.03 268.72 176.03Z" fill="#C99565"/>
<path d="M119.517 224.162L91.4748 224.245L91.4394 212.297L119.481 212.214C120.558 212.21 121.434 213.082 121.437 214.16L121.461 222.198C121.464 223.276 120.593 224.153 119.517 224.156L119.517 224.162Z" fill="#7096C4"/>
<path d="M100.151 220.891L100.136 215.534C100.136 214.936 99.7146 214.446 99.1945 214.446L67.1949 214.545C67.1637 214.545 67.1325 214.524 67.1169 214.493C66.8309 213.868 66.8413 213.176 67.1169 212.431C67.1325 212.395 67.1585 212.374 67.1949 212.374L100.963 212.27C101.478 212.27 101.899 212.754 101.904 213.358L101.935 223.13C101.935 223.729 101.519 224.218 100.999 224.223L67.4133 224.327C67.2573 224.327 67.1169 224.218 67.0649 224.046C66.8881 223.505 66.9037 222.948 67.0701 222.37C67.1221 222.198 67.2625 222.083 67.4185 222.083L99.2153 221.99C99.7302 221.99 100.151 221.5 100.151 220.897V220.891Z" fill="#79ADDD"/>
<path d="M73.3066 216.263L68.21 216.279C68.3036 216.013 68.4284 216.013 68.574 214.155L99.9288 214.061C100.043 214.061 100.08 214.55 100.085 214.681L100.106 222.026C100.106 222.157 68.4128 222.141 68.4128 222.141C68.1632 220.371 68.1008 220.288 68.0176 219.522L71.0704 219.444L68.0904 219.455C68.0072 219.455 68.0436 217.523 68.1684 216.56L73.3066 216.258V216.263Z" fill="#E6E6E6"/>
<path d="M99.4016 216.71L99.412 220.204L99.4172 220.985L98.0442 220.599L96.6764 220.995V220.214L96.666 216.721L99.4016 216.71Z" fill="#F6A447"/>
<path d="M297.219 167.076C296.32 174.015 289.642 178.701 282.741 177.608C275.84 176.514 271.128 170.022 272.225 163.114C273.317 156.205 279.802 151.489 286.704 152.587C293.605 153.686 297.89 161.901 297.225 167.081L297.219 167.076Z" fill="#FCDCB5"/>
<path d="M316.424 193.871C318.088 209.448 318.452 224.717 297.613 224.717C281.725 224.717 277.486 212.988 278.36 195.048C279.218 177.436 284.362 159.157 293.962 163.744C304.603 168.825 314.739 178.154 316.424 193.871Z" fill="#FCDCB5"/>
<path d="M281.049 177.139C280.95 177.139 280.846 177.113 280.752 177.061C280.466 176.894 280.368 176.53 280.534 176.244C284.294 169.705 288.241 167.732 292.293 166.133C296.479 164.483 297.842 165.358 298.076 165.55L297.311 166.472C297.311 166.472 297.322 166.482 297.343 166.492C297.332 166.487 296.261 165.852 292.735 167.242C288.891 168.757 285.142 170.631 281.574 176.837C281.465 177.03 281.262 177.139 281.054 177.139H281.049Z" fill="#9E614B"/>
<path d="M328.702 256.012C328.655 256.012 328.609 256.012 328.557 256.012C326.762 255.934 325.374 254.413 325.452 252.622C325.452 252.565 325.707 246.568 325.405 240.159C324.885 229.148 322.971 227.222 321.499 226.451C319.315 225.4 310.391 224.005 301.851 223.265C300.062 223.109 298.741 221.532 298.897 219.746C299.053 217.955 300.629 216.633 302.413 216.789C306.953 217.185 322.071 218.637 326.123 220.808C328.255 221.948 329.685 224.457 330.621 228.706C331.219 231.408 331.635 234.906 331.859 239.102C332.233 246.099 331.953 252.633 331.942 252.909C331.864 254.653 330.429 256.017 328.697 256.017L328.702 256.012Z" fill="#FCDCB5"/>
<path d="M274.376 162.864L270.19 157.465C269.742 156.887 270.205 156.054 270.928 156.127L277.632 156.804L274.376 162.864Z" fill="#FCDCB5"/>
<path d="M289.963 154.31L287.566 149.24C287.41 148.802 286.791 148.808 286.64 149.24L284.523 153.795L289.963 154.305V154.31Z" fill="#FCDCB5"/>
<path d="M284.024 195.1C281.959 194.835 280.399 193.028 280.488 190.909C280.612 187.91 279.141 186.328 277.882 185.526C276.296 184.516 274.782 184.547 274.387 184.73C272.619 186.068 270.097 185.74 268.734 183.98C267.361 182.21 267.689 179.664 269.457 178.295C272.364 176.046 277.055 175.947 281.132 178.055C286.042 180.591 288.829 185.526 288.59 191.253C288.497 193.491 286.609 195.225 284.372 195.131C284.253 195.131 284.138 195.116 284.024 195.1Z" fill="#FCDCB5"/>
<path d="M290.375 218.585C289.522 218.585 275.636 217.757 275.595 221.542C275.548 225.327 277.373 224.65 282.459 224.65C287.546 224.65 295.55 224.697 295.55 224.697L290.375 218.585Z" fill="#FCDCB5"/>
<path d="M86.1191 19.0344L98.3199 41.7694C103.094 34.5382 109.096 33.0804 119.965 31.4405L105.102 10.106C93.8317 12.2613 90.2537 13.4691 86.1243 19.0344H86.1191Z" fill="#ABCFE3"/>
<path d="M119.965 31.4351C119.965 31.4351 128.551 16.9101 139.379 18.5917L121.458 -3.25312C121.458 -3.25312 116.569 -3.89867 111.717 0.208934C106.865 4.31654 105.102 10.1005 105.102 10.1005L119.965 31.4351Z" fill="#ABCFE3"/>
<path d="M108.681 10.637C108.577 10.637 108.494 10.5537 108.494 10.4496C108.494 8.54419 110.408 5.19668 113.612 2.88517C116.628 0.709025 118.323 0.0478516 120.877 0.0478516C120.981 0.0478516 121.064 0.131148 121.064 0.23527C121.064 0.339392 120.981 0.42269 120.877 0.42269C118.391 0.42269 116.81 1.04221 113.83 3.19233C110.767 5.39971 108.869 8.67955 108.869 10.4496C108.869 10.5537 108.785 10.637 108.681 10.637Z" fill="#7496B8"/>
<path d="M110.609 13.5003C110.505 13.5003 110.422 13.417 110.422 13.3129C110.422 11.4075 112.336 8.05996 115.539 5.74845C118.556 3.57231 120.256 2.91113 122.805 2.91113C122.909 2.91113 122.992 2.99443 122.992 3.09855C122.992 3.20267 122.909 3.28597 122.805 3.28597C120.319 3.28597 118.738 3.9055 115.758 6.05561C112.695 8.263 110.796 11.5428 110.796 13.3129C110.796 13.417 110.713 13.5003 110.609 13.5003Z" fill="#7496B8"/>
<path d="M112.908 16.8631C112.804 16.8631 112.721 16.7798 112.721 16.6757C112.721 14.7703 114.635 11.4228 117.838 9.11124C120.855 6.9351 122.55 6.27393 125.103 6.27393C125.207 6.27393 125.291 6.35722 125.291 6.46134C125.291 6.56547 125.207 6.64876 125.103 6.64876C122.618 6.64876 121.037 7.26829 118.057 9.4184C114.993 11.6258 113.095 14.9056 113.095 16.6757C113.095 16.7798 113.012 16.8631 112.908 16.8631Z" fill="#7496B8"/>
<path d="M115.088 20.2894C114.984 20.2894 114.9 20.2061 114.9 20.102C114.9 18.1965 116.814 14.849 120.018 12.5375C123.034 10.3614 124.73 9.7002 127.283 9.7002C127.387 9.7002 127.47 9.78349 127.47 9.88761C127.47 9.99174 127.387 10.075 127.283 10.075C124.797 10.075 123.216 10.6946 120.236 12.8447C117.173 15.0521 115.275 18.3319 115.275 20.102C115.275 20.2061 115.192 20.2894 115.088 20.2894Z" fill="#7496B8"/>
<path d="M116.705 21.9707L119.966 26.7655C119.966 26.7655 121.682 22.408 124.111 20.9711L120.876 16.3013C120.876 16.3013 119.009 17.2019 117.891 18.7898C116.955 20.1173 116.71 21.9655 116.71 21.9655L116.705 21.9707Z" fill="#7496B8"/>
<path d="M242.451 27.4212L238.432 24.0845L220.873 45.2791L224.892 48.6158L242.451 27.4212Z" fill="#C98446"/>
<path d="M242.448 27.4264L241.195 26.3862L223.636 47.5809L224.889 48.6211L242.448 27.4264Z" fill="#A36B39"/>
<path d="M239.681 25.1301L238.428 24.0898L220.869 45.2845L222.122 46.3247L239.681 25.1301Z" fill="#A36B39"/>
<path d="M242.454 27.4177L238.434 24.0806L242.204 22.5761L243.879 21.9097L243.442 23.5964L242.454 27.4177Z" fill="#E5C3A5"/>
<path d="M243.42 23.6225L242.188 22.5969L243.862 21.9253L243.42 23.6225Z" fill="#877268"/>
<path d="M220.86 45.29C220.694 45.6284 216.429 49.205 218.894 51.4124C221.406 53.6666 224.88 48.6323 224.88 48.6323L220.86 45.2952V45.29Z" fill="#FA9876"/>
<path d="M61.7581 48.2173L58.8633 52.5674L81.7552 67.833L84.65 63.483L61.7581 48.2173Z" fill="#E4AF9C"/>
<path d="M61.7618 48.2225L60.8594 49.5786L83.7513 64.8443L84.6538 63.4881L61.7618 48.2225Z" fill="#FBE8E2"/>
<path d="M59.7716 51.2137L58.8691 52.5698L81.761 67.8355L82.6635 66.4793L59.7716 51.2137Z" fill="#E4AF9C"/>
<path d="M61.7469 48.2098L58.8501 52.5621L56.9571 48.9646L56.125 47.3716L57.8464 47.6267L61.7469 48.2098Z" fill="#E5C3A5"/>
<path d="M57.8724 47.647L56.9831 48.9798L56.1406 47.3867L57.8724 47.647Z" fill="#877268"/>
<path d="M81.7598 67.842C82.1134 67.9722 86.1075 71.8455 88.0474 69.1592C90.0236 66.4208 84.6565 63.4897 84.6565 63.4897L81.7598 67.842Z" fill="#FCC583"/>
<path d="M189.573 -6.5007C180.784 1.32927 179.931 14.7662 187.612 23.6426L191.221 20.4252L193.993 17.9575L213.329 0.730566L216.101 -1.74233L219.711 -4.95449C211.795 -13.6226 198.367 -14.3359 189.573 -6.5007ZM191.684 14.0946C189.828 9.21129 191.045 3.47938 195.174 -0.196119C199.303 -3.87683 205.133 -4.42347 209.762 -2.00784L191.684 14.0998V14.0946Z" fill="#DCF8C1"/>
<path d="M183.669 12.5432C183.545 12.5432 183.435 12.4547 183.414 12.3297C183.388 12.1892 183.482 12.0486 183.623 12.0226L185.739 11.6113C185.885 11.5852 186.02 11.679 186.046 11.8195C186.072 11.9601 185.984 12.1006 185.838 12.1267L183.721 12.538C183.721 12.538 183.685 12.538 183.669 12.538V12.5432Z" fill="#A4C5EE"/>
<path d="M192.818 19.2692C192.746 19.2692 192.673 19.2379 192.626 19.1807L191.388 17.7907C191.295 17.6813 191.3 17.5199 191.409 17.421C191.518 17.3273 191.679 17.3325 191.778 17.4418L193.016 18.8319C193.11 18.9412 193.104 19.1026 192.995 19.2015C192.943 19.2484 192.886 19.2692 192.824 19.2692H192.818Z" fill="#A4C5EE"/>
<path d="M196.068 16.3751C195.996 16.3751 195.923 16.3439 195.876 16.2866L194.638 14.8966C194.545 14.7873 194.55 14.6259 194.659 14.527C194.768 14.4333 194.929 14.4385 195.028 14.5478L196.266 15.9378C196.36 16.0472 196.354 16.2085 196.245 16.3075C196.193 16.3491 196.136 16.3751 196.074 16.3751H196.068Z" fill="#A4C5EE"/>
<path d="M199.313 13.4801C199.24 13.4801 199.167 13.4489 199.12 13.3916L197.882 12.0016C197.789 11.8923 197.794 11.7309 197.903 11.632C198.012 11.5382 198.174 11.5435 198.272 11.6528L199.51 13.0428C199.604 13.1521 199.599 13.3135 199.489 13.4124C199.437 13.4541 199.38 13.4801 199.318 13.4801H199.313Z" fill="#A4C5EE"/>
<path d="M202.565 10.5856C202.492 10.5856 202.419 10.5544 202.372 10.4971L201.134 9.10706C201.041 8.99773 201.046 8.83634 201.155 8.73743C201.264 8.64372 201.426 8.64892 201.524 8.75825L202.762 10.1483C202.856 10.2576 202.851 10.419 202.741 10.5179C202.689 10.5596 202.632 10.5856 202.57 10.5856H202.565Z" fill="#A4C5EE"/>
<path d="M205.809 7.69106C205.736 7.69106 205.663 7.65982 205.616 7.60256L204.378 6.21253C204.285 6.1032 204.29 5.94181 204.399 5.8429C204.508 5.74919 204.67 5.75439 204.769 5.86372L206.006 7.25375C206.1 7.36307 206.095 7.52446 205.985 7.62338C205.939 7.66503 205.876 7.69106 205.814 7.69106H205.809Z" fill="#A4C5EE"/>
<path d="M209.061 4.8019C208.988 4.8019 208.915 4.77066 208.868 4.71339L207.63 3.32337C207.537 3.21404 207.542 3.05265 207.651 2.95374C207.76 2.86003 207.922 2.86523 208.02 2.97456L209.258 4.36459C209.352 4.47391 209.347 4.6353 209.237 4.73422C209.191 4.77587 209.128 4.8019 209.066 4.8019H209.061Z" fill="#A4C5EE"/>
<path d="M212.305 1.90737C212.232 1.90737 212.159 1.87613 212.112 1.81886L210.875 0.428837C210.781 0.319509 210.786 0.15812 210.895 0.0592038C211.005 -0.0345059 211.166 -0.0292993 211.265 0.0800287L212.502 1.47006C212.596 1.57938 212.591 1.74077 212.482 1.83969C212.43 1.88134 212.372 1.90737 212.31 1.90737H212.305Z" fill="#A4C5EE"/>
<path d="M304.687 28.2443L308.718 29.7749C308.718 29.5667 308.614 29.5302 308.973 28.2183L284.181 18.7848C284.093 18.7536 283.931 19.0764 283.9 19.1649L282.002 24.1679C281.971 24.2564 307.053 33.7159 307.053 33.7159C307.704 32.581 307.776 32.5445 308.036 32.05L305.639 31.0868L307.995 31.9823C308.057 32.0083 308.525 30.6808 308.676 29.9831L304.687 28.2443Z" fill="#D9D4A7"/>
<path d="M308.317 27.7656C308.447 30.0147 305.936 33.7787 305.936 33.7787L307.043 34.0442C307.043 34.0442 308.931 30.6029 309.16 29.645C309.389 28.6871 309.389 28.078 309.389 28.078L308.312 27.7708L308.317 27.7656Z" fill="#C2BD95"/>
<path d="M282.257 23.3822L283.641 19.7327C283.797 19.3214 284.254 19.1184 284.665 19.2746L309.966 28.9006C309.966 28.9006 310.018 28.9006 310.039 28.885C310.429 28.5414 310.596 28.0677 310.57 27.4794C310.57 27.4533 310.549 27.4273 310.523 27.4169L283.823 17.2546C283.412 17.0984 282.954 17.3067 282.798 17.7127L280.271 24.3713C280.115 24.7826 280.323 25.2408 280.728 25.3969L307.283 35.502C307.408 35.5488 307.543 35.5124 307.631 35.4135C307.907 35.0959 308.042 34.7106 308.058 34.2681C308.058 34.1328 307.98 34.013 307.855 33.9662L282.715 24.3974C282.304 24.2412 282.101 23.7831 282.257 23.3718V23.3822Z" fill="#B1B1E8"/>
<path d="M285.145 21.4458L282.498 28.4063L281.91 29.9578L283.845 29.8068L285.176 31.202L285.764 29.6506L288.411 22.6901L285.145 21.4458Z" fill="#F5A98D"/>
<path d="M280.485 25.2457L270.297 7.62832L272.528 2.48991C273.001 1.40704 274.265 0.912464 275.347 1.39142L299.67 12.1837L310.524 27.4167L283.423 17.8219L280.485 25.2405V25.2457Z" fill="#B1B1E8"/>
<path d="M274.186 1.23584C273.478 1.33476 272.839 1.78769 272.532 2.49571L270.301 7.63413L280.489 25.2516L283.427 17.8329L283.937 18.0151C281.097 13.2775 276.214 5.06752 274.186 1.24105V1.23584Z" fill="#C8C8F0"/>
</g>
<defs>
<clipPath id="clip0_2003_5020">
<rect width="394" height="229" fill="white"/>
</clipPath>
</defs>
</svg>
