<svg width="197" height="239" viewBox="0 0 197 239" fill="none" xmlns="http://www.w3.org/2000/svg">
<g clip-path="url(#clip0_2003_4855)">
<path d="M163.389 162.384C161.216 161.319 159.599 164.771 162.23 165.781C164.86 166.791 166.351 167.45 167.179 167.45C168.008 167.45 168.766 165.299 168.058 164.59C167.35 163.882 164.89 163.118 163.389 162.384Z" fill="#FBAE96"/>
<path d="M60.2601 134.234C63.9448 134.234 64.9136 138.973 69.5119 140.5C75.2146 142.395 82.6241 139.4 84.5367 134.515C87.0215 128.169 82.3178 124.862 83.3871 114.314C84.0949 107.324 79.341 107.942 75.2698 101.138C71.1986 94.3287 72.2879 93.59 66.766 87.3336C61.244 81.0772 52.0173 80.1928 45.0847 81.2933C38.1522 82.3938 34.6984 83.6652 29.2718 87.3989C23.8453 91.1327 26.3 95.1328 22.8112 97.771C19.3223 100.404 17.7661 103.465 16.7119 108.701C14.6838 118.751 21.5009 123.611 18.4388 127.083C15.3766 130.556 9.16186 146.119 25.2408 145.179C30.9234 144.847 36.0137 146.717 38.7997 142.4C42.9011 136.048 44.9492 140.274 50.5665 137.49C56.1889 134.701 60.2551 134.244 60.2551 134.244L60.2601 134.234Z" fill="#37231B"/>
<path d="M19.0508 137.671C32.5896 126.64 33.8747 137.671 66.3539 135.515C70.3599 135.248 88.5924 138.922 92.1114 141.088C109.952 152.058 123.898 223.898 123.898 223.898L20.5869 222.758L19.0508 137.671Z" fill="#FCC583"/>
<path d="M44.9458 132.656C44.7098 137.208 40.5684 132.902 40.5684 138.671C40.5684 143.681 46.1706 151.686 62.0287 149.148C72.1138 147.535 75.1459 138.917 69.1521 136.404C65.7586 134.982 64.1572 129.269 64.1572 129.269L44.9458 132.651V132.656Z" fill="#FBAE96"/>
<path d="M66.4417 106.555C69.5591 119.058 69.4386 137.219 55.212 138.309C37.8078 139.646 18.6466 105.454 32.6121 92.9015C46.5777 80.3485 62.0241 88.8511 66.4417 106.555Z" fill="#FBAE96"/>
<path d="M38.8465 102.253C36.7983 106.207 36.6528 106.916 34.3837 109.187C32.1147 111.459 32.3256 117.343 33.4099 120.7C38.5754 136.705 34.1528 128.977 33.1287 130.002C32.1047 131.027 27.8628 120.574 27.2805 119.992C26.6932 119.404 22.0898 102.644 22.0898 100.886C22.0898 99.1268 33.179 88.5236 34.5193 87.1768C35.8646 85.8301 47.9728 83.3175 51.4115 83.3175C54.8502 83.3175 61.7225 82.8803 63.1883 85.222C64.6491 87.5638 74.157 107.182 74.157 107.182C74.157 107.182 79.8596 116.323 76.0043 116.067C71.0697 115.735 70.141 114.74 68.8759 111.851C67.5205 108.745 66.2354 101.77 59.4384 104.077C47.9477 107.971 38.8465 102.263 38.8465 102.263V102.253Z" fill="#37231B"/>
<path d="M-8.33293 230.848C-12.7354 203.406 9.12651 140.269 23.318 134.52C33.3177 130.465 41.0234 133.656 42.8808 144.736C44.7382 155.817 27.8309 208.029 27.8309 208.029C27.8309 208.029 77.4131 194.39 81.8056 208.029C86.1931 221.667 83.9993 231.331 83.9993 231.331L-8.32791 230.848H-8.33293Z" fill="#FCC583"/>
<path d="M37.5073 209.421C32.9642 209.421 28.9282 209.321 25.876 209.24C24.4052 209.205 23.1301 209.17 22.091 209.155C21.6392 209.15 21.2627 208.944 21.0267 208.582C19.8922 206.828 22.362 200.843 27.2063 189.521C32.161 177.933 38.3255 163.511 38.3255 155.686C38.3255 155.345 38.6016 155.068 38.943 155.068C39.2844 155.068 39.5605 155.345 39.5605 155.686C39.5605 163.767 33.3407 178.315 28.3408 190.009C26.3479 194.667 24.4704 199.064 23.2907 202.341C21.604 207.029 21.9655 207.798 22.0659 207.914C22.0659 207.914 22.0809 207.914 22.106 207.914C23.1502 207.929 24.4303 207.959 25.9061 207.999C32.6831 208.17 42.9188 208.431 53.4507 207.652C53.7921 207.627 54.0882 207.883 54.1133 208.225C54.1384 208.567 53.8824 208.863 53.5411 208.889C48.0141 209.296 42.462 209.416 37.5073 209.416V209.421Z" fill="#C99565"/>
<path d="M45.1025 118.997C44.992 119.71 45.74 121.866 47.3363 121.374C48.3905 121.047 48.2148 118.354 46.9749 117.861C45.9659 117.464 45.2129 118.283 45.1025 118.997Z" fill="#372313"/>
<path d="M58.1907 114.996C58.0049 115.695 58.6625 117.906 60.299 117.579C61.3834 117.368 61.3482 114.685 60.1735 114.067C59.2147 113.559 58.3764 114.298 58.1907 114.996Z" fill="#372313"/>
<path d="M52.084 130.981C52.9524 131.986 55.0357 133.167 58.2385 132.081C61.4412 130.996 61.0747 127.765 61.0747 127.765C58.1832 129.594 55.4273 130.473 52.084 130.976V130.981Z" fill="#E66C40"/>
<path d="M55.8428 112.53C56.4853 112.53 58.5184 111.103 60.4511 111.414C62.3838 111.726 62.3135 111.459 61.8517 110.992C61.3848 110.525 60.0746 110.042 57.6249 110.359C54.6531 110.746 55.2856 112.53 55.8428 112.53Z" fill="#37231B"/>
<path d="M47.3212 114.579C47.3564 113.961 46.0311 113.81 45.0723 114.062C43.7571 114.408 41.7491 116.328 41.4178 117.705C41.2421 118.424 41.7491 118.775 42.487 117.765C43.3605 116.574 44.0482 115.851 45.1576 115.68C46.0512 115.539 47.2961 115.067 47.3212 114.584V114.579Z" fill="#37231B"/>
<path d="M36.2484 120.927C37.8147 123.138 39.9732 127.485 38.3669 128.626C36.7605 129.766 31.9965 127.274 30.4303 125.063C28.864 122.852 28.8942 120.133 30.5006 118.992C32.107 117.852 34.6822 118.716 36.2484 120.927Z" fill="#FBAE96"/>
<path d="M55.4913 139.836C52.3338 139.836 49.7133 138.78 49.5677 138.72C49.3619 138.635 49.2615 138.399 49.3469 138.193C49.4322 137.986 49.6681 137.886 49.874 137.971C49.9191 137.992 54.4773 139.821 58.6338 138.605C58.8497 138.544 59.0705 138.665 59.1358 138.881C59.196 139.097 59.0756 139.318 58.8597 139.383C57.7252 139.715 56.5756 139.841 55.4913 139.841V139.836Z" fill="#C99565"/>
<path d="M37.9358 129.273C39.0753 130.414 44.3513 135.585 49.7176 138.349C51.2738 139.153 50.4857 144.5 50.3501 145.299C49.3261 151.379 42.8202 150.068 38.9347 148.123C34.7631 146.032 38.6687 132.706 32.7652 132.304C26.0736 131.846 23.413 134.811 22.4391 134.555C20.5315 134.047 23.9501 131.082 28.6036 129.68C32.3335 128.56 37.253 128.836 37.9358 129.273Z" fill="#37231B"/>
<path d="M40.7613 88.1769C38.2313 87.7598 36.9964 90.8102 35.8116 92.4836C35.5757 92.8152 36.1229 93.2373 36.3739 92.9208C37.4783 91.5438 38.4873 88.6342 40.6609 88.9006C41.0675 88.9508 41.168 88.2473 40.7563 88.1769H40.7613Z" fill="#55341B"/>
<path d="M41.899 90.7838C40.1923 90.9396 39.1933 92.2612 38.2043 93.5125C37.9182 93.8743 38.4202 94.3869 38.7164 94.025C39.5648 92.9748 40.4533 91.6933 41.9041 91.5175C42.3609 91.4622 42.381 90.7385 41.9041 90.7838H41.899Z" fill="#55341B"/>
<path d="M29.6691 106.186C28.2133 107.935 27.2244 110.166 26.8178 112.407C26.7324 112.865 27.4302 113.066 27.5256 112.603C27.9473 110.503 28.8408 108.382 30.1811 106.699C30.4673 106.342 29.9703 105.829 29.6691 106.186Z" fill="#55341B"/>
<path d="M46.5278 141.716C46.5629 141.238 45.835 141.248 45.7898 141.716C45.6995 142.731 45.8953 143.751 45.8451 144.771C45.82 145.228 45.7647 145.761 45.4786 146.138C45.1121 146.62 44.5098 146.62 43.9576 146.58C43.4756 146.545 43.5007 147.258 43.9576 147.319C47.341 147.741 46.3872 143.751 46.5278 141.716Z" fill="#55341B"/>
<path d="M80.4209 118.574C80.0043 117.709 79.4621 116.916 78.9551 116.106C78.6238 115.574 78.0264 114.825 78.0565 114.162C78.0766 113.699 77.3638 113.699 77.3387 114.162C77.3035 114.719 77.6148 115.277 77.8808 115.745C78.2975 116.483 78.7794 117.187 79.2111 117.916C79.6027 118.569 80.0444 119.287 80.1699 120.056C80.3004 120.855 79.8336 121.192 79.1157 121.388C78.6539 121.514 78.8497 122.197 79.3115 122.102C80.0444 121.946 80.7372 121.534 80.9079 120.755C81.0685 120.016 80.7422 119.232 80.4259 118.579L80.4209 118.574Z" fill="#55341B"/>
<path d="M80.4598 127.433C80.0432 126.966 79.5161 126.74 78.9639 126.478C78.2962 126.157 77.9549 125.84 78.0502 125.046C78.0954 124.649 77.3976 124.549 77.3424 124.951C77.1768 126.132 77.7591 126.725 78.7731 127.197C79.2751 127.428 80.0984 127.78 80.2239 128.403C80.3193 128.895 79.506 129.292 79.2199 129.609C78.9036 129.961 79.3956 130.463 79.742 130.132C80.1235 129.765 80.6757 129.458 80.8965 128.956C81.1425 128.398 80.8363 127.855 80.4648 127.438L80.4598 127.433Z" fill="#55341B"/>
<path d="M61.2923 93.6442C60.6548 92.9608 59.8415 92.7145 58.9329 92.6291C57.9089 92.5286 56.9099 92.5839 56.2021 91.7095C55.8958 91.3326 55.3738 91.8653 55.6699 92.2422C56.9902 93.9055 59.3446 92.7547 60.7652 94.1668C61.1015 94.5035 61.6086 93.9909 61.2873 93.6442H61.2923Z" fill="#55341B"/>
<path d="M88.7598 139.886C94.3871 140.65 112.243 161.565 134.843 166.419C157.443 171.274 165.701 166.153 165.701 166.153L175.349 181.802C153.236 198.018 118.694 189.5 96.7967 178.58L88.7598 139.886Z" fill="#FCC583"/>
<path d="M178.373 228.617C178.373 228.617 192.027 185.485 163.408 164.349C157.384 159.902 152.143 157.807 139.478 157.852C125.989 157.902 113.851 170.551 109.082 179.119C100.247 194.993 92.9277 228.617 92.9277 228.617H178.373Z" fill="#DB7E5D"/>
<path d="M162.237 228.581C161.901 228.581 161.635 228.31 161.635 227.978V203.405C161.63 203.289 160.872 188.651 158.824 182.952C158.708 182.636 158.874 182.289 159.19 182.178C159.507 182.063 159.853 182.229 159.963 182.545C162.077 188.415 162.815 202.772 162.85 203.38V227.983C162.85 228.32 162.579 228.586 162.248 228.586L162.237 228.581Z" fill="#9E614B"/>
<path d="M117.72 224.668C117.419 224.668 117.158 224.442 117.123 224.13C116.978 222.869 113.549 193.095 115.507 182.632C115.567 182.306 115.883 182.089 116.214 182.15C116.541 182.21 116.757 182.527 116.696 182.858C114.769 193.14 118.293 223.688 118.328 223.995C118.368 224.326 118.127 224.628 117.796 224.668C117.771 224.668 117.746 224.668 117.725 224.668H117.72Z" fill="#9E614B"/>
<path d="M131.557 162.858C128.525 166.305 126.593 176.853 132.125 177.135C145.131 177.803 149.664 160.119 146.18 158.994C138.219 156.416 131.557 162.858 131.557 162.858Z" fill="#F1F2F2"/>
<path d="M130.998 154.039C130.998 155.385 130.21 163.979 132.419 165.205C138.884 168.793 146.183 161.285 146.183 158.999V151.622L131.003 154.044L130.998 154.039Z" fill="#FBAE96"/>
<path d="M120.618 120.284C119.986 113.711 116.146 108.223 112.827 110.977C109.509 113.731 105.714 116.631 106.522 120.284C106.974 122.329 117.611 125.671 117.611 125.671L120.618 120.284Z" fill="#37231B"/>
<path d="M114.074 126.696C113.898 126.696 113.723 126.62 113.602 126.47C113.391 126.208 113.437 125.826 113.693 125.62C115.806 123.917 116.835 122.098 116.835 120.062C116.835 119.726 117.106 119.459 117.438 119.459C117.769 119.459 118.04 119.731 118.04 120.062C118.04 122.455 116.83 124.64 114.446 126.565C114.335 126.656 114.2 126.701 114.069 126.701L114.074 126.696Z" fill="#DE501D"/>
<path d="M115.971 135.902C113.868 136.375 112.312 136.918 111.448 136.058C110.585 135.194 111.448 132.968 111.448 132.968L114.224 132.521L115.971 135.902Z" fill="#82512B"/>
<path d="M154.832 138.138C152.834 151.932 143.984 162.857 131.564 162.857C122.388 162.857 116.329 158.259 115.335 148.857C115.104 146.671 115.546 143.635 115.38 142.354C115.104 140.198 113.518 137.806 113.518 135.545C113.518 121.751 125.365 115.132 137.784 115.132C150.203 115.132 156.81 124.489 154.832 138.138Z" fill="#FBAE96"/>
<path d="M128.17 139.38C128.119 138.933 129.179 138.033 130.629 138.375C132.075 138.717 133.149 139.742 132.678 140.023C132.206 140.305 131.147 139.43 130.223 139.536C129.299 139.636 128.21 139.697 128.175 139.38H128.17Z" fill="#37231B"/>
<path d="M120.986 139.642C121.036 139.195 119.977 138.295 118.526 138.637C117.08 138.978 116.006 140.004 116.478 140.285C116.95 140.566 118.009 139.692 118.933 139.798C119.856 139.903 120.946 139.958 120.981 139.642H120.986Z" fill="#37231B"/>
<path d="M126.306 130.911C136.878 129.876 137.475 134.143 140.497 138.138C143.524 142.133 150.934 141.364 154.337 140.826C155.497 140.645 157.249 133.097 156.767 128.59C156.41 125.248 156.606 119.107 149.729 115.529C142.851 111.951 140.462 111.147 133.78 112.388C127.104 113.63 119.85 131.545 126.301 130.911H126.306Z" fill="#37231B"/>
<path d="M144.291 120.7C144.924 114.127 151.354 108.534 154.677 111.288C158.001 114.041 161.108 121.866 159.386 123.062C157.664 124.258 147.298 126.087 147.298 126.087L144.291 120.7Z" fill="#37231B"/>
<path d="M148.335 126.263C145.408 126.263 144.203 124.469 143.802 123.624C143.099 122.152 143.174 120.353 143.972 119.614C144.218 119.388 144.6 119.403 144.826 119.649C145.052 119.896 145.037 120.277 144.791 120.504C144.509 120.765 144.334 121.946 144.886 123.102C145.308 123.986 146.447 125.403 149.344 124.976C149.67 124.926 149.981 125.157 150.031 125.489C150.082 125.82 149.851 126.127 149.519 126.177C149.093 126.237 148.696 126.268 148.33 126.268L148.335 126.263Z" fill="#D9886B"/>
<path d="M110.648 135.385C114.177 139.973 115.557 127.49 125.366 129.877C129.196 130.807 126.189 124.234 129.839 121.686C133.483 119.138 139.297 113.439 132.971 112.615C126.646 111.791 118.082 115.449 115.703 119.359C114.643 121.098 112.455 123.419 112.139 126.555C111.717 130.786 109.634 134.063 110.653 135.385H110.648Z" fill="#37231B"/>
<path d="M122.457 154.344C122.457 154.344 123.556 156.876 126.488 157.032C129.42 157.188 129.947 154.369 129.947 154.369C127.367 155.248 125.133 155.429 122.457 154.344Z" fill="#F1F2F2"/>
<path d="M130.303 142.888C129.791 143.079 129.274 143.903 129.52 145.119C129.766 146.33 130.675 146.863 131.242 146.496C131.809 146.129 132.216 144.43 131.859 143.722C131.503 143.013 130.63 142.767 130.298 142.893L130.303 142.888Z" fill="#372313"/>
<path d="M118.836 142.907C118.334 143.118 117.847 143.962 118.143 145.168C118.439 146.369 119.363 146.862 119.92 146.475C120.477 146.083 120.808 144.374 120.427 143.681C120.045 142.987 119.157 142.776 118.836 142.912V142.907Z" fill="#372313"/>
<path d="M137.686 125.997C136.436 124.549 134.097 124.162 132.36 124.836C131.938 125.002 132.114 125.68 132.551 125.524C134.142 124.956 135.959 125.333 137.164 126.519C137.505 126.856 137.997 126.353 137.686 125.997Z" fill="#643D20"/>
<path d="M140.081 119.318C137.947 118.806 135.979 119.057 134.022 120.027C133.6 120.238 133.971 120.866 134.393 120.66C136.2 119.781 137.932 119.645 139.89 120.022C140.347 120.112 140.548 119.429 140.086 119.318H140.081Z" fill="#643D20"/>
<path d="M148.617 133.038C147.362 133.45 145.796 132.124 145.846 130.837C145.866 130.375 145.163 130.38 145.133 130.837C145.023 132.546 147.131 134.405 148.813 133.747C149.239 133.576 149.074 132.887 148.617 133.038Z" fill="#643D20"/>
<path d="M119.29 123.082C118.07 122.966 116.845 123.373 116.132 124.419C115.866 124.806 115.736 125.248 115.595 125.69C115.389 126.338 115.168 126.635 114.456 126.7C113.994 126.745 113.979 127.424 114.456 127.434C115.51 127.449 116.027 126.831 116.328 125.891C116.504 125.338 116.669 124.841 117.116 124.434C117.708 123.891 118.517 123.745 119.295 123.791C119.757 123.816 119.742 123.122 119.295 123.082H119.29Z" fill="#643D20"/>
<path d="M125.162 116.766C124.354 116.56 123.812 115.967 122.918 116.077C122.085 116.183 121.422 116.766 120.91 117.394C120.619 117.75 121.101 118.268 121.427 117.911C121.919 117.384 122.527 116.75 123.32 116.826C123.907 116.881 124.389 117.348 124.971 117.464C125.423 117.555 125.619 116.881 125.162 116.766Z" fill="#643D20"/>
<path d="M131.558 163.259C131.337 163.259 131.156 163.078 131.156 162.857C131.156 162.636 131.337 162.455 131.558 162.455C135.072 162.455 137.998 161.777 140.247 160.44C140.438 160.325 140.684 160.39 140.8 160.581C140.915 160.772 140.85 161.018 140.659 161.134C138.285 162.546 135.222 163.259 131.558 163.259Z" fill="#C48976"/>
<path d="M133.832 228.754C133.832 222.296 142.843 209.733 159.384 209.733C175.924 209.733 184.398 210.889 184.398 210.889V228.513L133.832 228.754Z" fill="#DB7E5D"/>
<path d="M133.552 214.286C133.311 214.286 133.08 214.14 132.99 213.899C132.87 213.588 133.025 213.236 133.336 213.115C138.482 211.145 157.874 209.085 162.241 209.14C162.578 209.14 162.844 209.417 162.839 209.753C162.839 210.085 162.563 210.351 162.236 210.351C162.236 210.351 162.231 210.351 162.226 210.351C158.045 210.291 138.688 212.361 133.773 214.246C133.703 214.271 133.628 214.286 133.557 214.286H133.552Z" fill="#9E614B"/>
<path d="M53.1984 218.076H129.085C133.548 218.076 137.172 221.704 137.172 226.171V227.428H53.1934V218.071L53.1984 218.076Z" fill="#7781A6"/>
<path d="M118.816 227.432H35.2537L29.7618 165.265C29.4456 163.471 30.2287 161.818 32.0259 161.818H110.302C111.698 161.818 112.898 162.833 113.144 164.23L118.816 227.432Z" fill="#7781A6"/>
<path d="M77.2575 185.201C77.4784 188.648 75.0688 191.608 71.8761 191.814C68.6834 192.02 65.9124 189.397 65.6865 185.95C65.4606 182.502 67.8752 179.543 71.0679 179.337C74.2606 179.131 77.0316 181.754 77.2575 185.201Z" fill="#DBDBDB"/>
<path d="M293 226.301H-96V239.237H293V226.301Z" fill="#DCBFA3"/>
<path d="M194.152 59.1411C194.152 59.1411 210.14 121.112 210.14 133.474C210.14 145.836 202.776 141.082 202.776 141.082C202.776 141.082 197.314 98.0514 195.412 93.1368C193.514 88.2221 194.699 84.1014 194.699 80.6943C194.699 77.2872 192.957 72.9303 192.957 69.679C192.957 66.4277 194.147 59.1411 194.147 59.1411H194.152Z" fill="#A7CBBD"/>
<path d="M202.897 195.314C199.574 187.892 194.348 171.992 194.348 164.304C194.348 156.615 195.538 149.198 194.348 144.957C193.159 140.715 186.482 112.393 189.083 101.976C190.704 95.4833 191.261 100.056 191.261 100.056C191.261 100.056 201.713 116.599 202.897 123.223C204.082 129.846 202.531 142.308 204.087 145.997C205.638 149.685 208.364 158.474 208.364 164.309V194.525L202.902 195.319L202.897 195.314Z" fill="#C2E8D8"/>
<path d="M231.365 226.591H197.008L192.48 188.168C192.249 186.223 193.77 184.515 195.728 184.515H232.459C234.412 184.515 235.928 186.213 235.707 188.153L231.37 226.591H231.365Z" fill="#E3AC69"/>
<path d="M233.837 215.179H194.3L192.965 196.636H235.092L233.837 215.179Z" fill="#FCC583"/>
<path d="M-22.1195 211.878C-43.2385 211.878 -60.4219 194.677 -60.4219 173.536C-60.4219 161.651 -55.0505 150.631 -45.6782 143.304C-45.2013 142.932 -44.5186 143.008 -44.1371 143.47L3.38693 200.692C3.77347 201.155 3.71825 201.843 3.26645 202.24C-3.7364 208.451 -12.7523 211.873 -22.1245 211.873L-22.1195 211.878ZM-45.1461 145.747C-53.4491 152.636 -58.188 162.707 -58.188 173.541C-58.188 193.451 -42.0086 209.647 -22.1195 209.647C-13.6559 209.647 -5.49841 206.682 0.972326 201.28L-45.1461 145.747Z" fill="#9CA8D3"/>
<path d="M-22.1226 204.215C-5.19682 204.215 8.52427 190.48 8.52427 173.536C8.52427 156.593 -5.19682 142.857 -22.1226 142.857C-39.0484 142.857 -52.7695 156.593 -52.7695 173.536C-52.7695 190.48 -39.0484 204.215 -22.1226 204.215Z" fill="#A3D8F5"/>
<mask id="mask0_2003_4855" style="mask-type:luminance" maskUnits="userSpaceOnUse" x="-53" y="142" width="62" height="63">
<path d="M-22.1148 204.215C-5.189 204.215 8.53208 190.479 8.53208 173.536C8.53208 156.592 -5.189 142.857 -22.1148 142.857C-39.0406 142.857 -52.7617 156.592 -52.7617 173.536C-52.7617 190.479 -39.0406 204.215 -22.1148 204.215Z" fill="white"/>
</mask>
<g mask="url(#mask0_2003_4855)">
<path d="M-11.8098 141.76C-20.7754 141.76 -26.3978 149.7 -20.2483 151.986C-14.0989 154.273 -13.0397 153.896 -9.34999 156.288C-5.66032 158.675 -2.14634 161.665 -1.26283 159.378C-0.384331 157.092 3.30534 156.564 3.30534 154.629C3.30534 152.695 -10.4042 141.765 -11.8098 141.765V141.76Z" fill="#7CC8AA"/>
</g>
<path d="M-4.18903 180.747C-3.31054 181.626 -3.35572 183.255 -2.34168 182.244C-1.33267 181.234 -2.51738 180.264 -0.845734 180.747C0.825915 181.229 1.8801 180.219 1.8801 178.722C1.8801 177.224 1.97047 175.641 0.298818 176.259C-1.37283 176.877 -2.42702 177.315 -3.48122 177.842C-4.53541 178.37 -4.18401 180.747 -4.18401 180.747H-4.18903Z" fill="#DCF8C1"/>
<path d="M1.87891 183.385C1.87891 182.329 2.39094 181.666 3.2845 182.561C4.17805 183.455 6.53744 185.581 4.95615 185.053C3.37486 184.525 1.88392 183.38 1.88392 183.38L1.87891 183.385Z" fill="#DCF8C1"/>
<path d="M-0.322266 174.148C-0.322266 173.269 1.53513 172.324 2.52908 171.334C3.51801 170.344 2.75999 168.696 3.67865 168.696C4.5973 168.696 4.5973 168.429 4.5973 169.751C4.5973 171.073 5.3001 172.832 4.07021 172.832C2.84031 172.832 2.66462 173.359 1.87648 174.153C1.08333 174.947 -0.322266 174.153 -0.322266 174.153V174.148Z" fill="#E3AC69"/>
<path d="M166.018 166.419C165.597 170.866 159.628 173.475 164.728 178.58C166.159 180.012 168.302 181.264 170.019 180.982C173.107 180.475 175.596 176.751 175.401 174.846C174.838 169.439 168.082 163.61 167.344 164.349C166.606 165.087 166.164 164.917 166.018 166.419Z" fill="#FBAE96"/>
<path d="M163.848 177.409C163.757 177.409 163.667 177.363 163.612 177.278C163.531 177.147 163.572 176.976 163.702 176.901C165.579 175.745 167.874 173.248 168.32 171.238C168.762 169.238 169.565 166.122 169.575 166.092C169.616 165.946 169.766 165.856 169.912 165.896C170.057 165.936 170.148 166.082 170.108 166.232C170.097 166.263 169.299 169.368 168.858 171.363C168.376 173.549 166.006 176.137 163.988 177.378C163.943 177.409 163.893 177.419 163.843 177.419L163.848 177.409Z" fill="#C99565"/>
<path d="M165.296 179.078C165.165 179.078 165.05 178.988 165.025 178.857C164.995 178.706 165.095 178.566 165.241 178.535C166.626 178.264 169.613 175.545 170.16 174.264C170.743 172.902 171.952 168.792 171.952 168.309C171.952 168.158 172.078 168.033 172.229 168.033C172.379 168.033 172.505 168.158 172.505 168.309C172.505 168.957 171.204 173.234 170.672 174.48C170.11 175.797 167.038 178.746 165.351 179.073C165.336 179.073 165.316 179.078 165.301 179.078H165.296Z" fill="#C99565"/>
<path d="M168.214 180.445C168.099 180.445 167.993 180.375 167.953 180.259C167.903 180.114 167.978 179.958 168.124 179.908C169.931 179.274 172.019 177.003 172.546 175.777C173.088 174.52 174.022 171.541 174.027 171.51C174.072 171.365 174.228 171.284 174.374 171.329C174.519 171.375 174.599 171.53 174.554 171.676C174.514 171.802 173.6 174.711 173.053 175.993C172.496 177.294 170.317 179.727 168.304 180.43C168.274 180.44 168.244 180.445 168.214 180.445Z" fill="#C99565"/>
<path d="M24.1859 226.904L-2.88166 226.984L-2.91584 215.451L24.1517 215.371C25.1908 215.368 26.0367 216.209 26.0398 217.25L26.0628 225.008C26.0658 226.049 25.225 226.895 24.1859 226.899L24.1859 226.904Z" fill="#7096C4"/>
<path d="M5.49641 223.747L5.48135 218.576C5.48135 217.998 5.07473 217.525 4.57274 217.525L-26.3151 217.621C-26.3452 217.621 -26.3754 217.601 -26.3904 217.571C-26.6665 216.968 -26.6565 216.299 -26.3904 215.581C-26.3754 215.545 -26.3503 215.525 -26.3151 215.525L6.27953 215.425C6.77651 215.425 7.18312 215.892 7.18814 216.475L7.21826 225.907C7.21826 226.485 6.81666 226.958 6.31467 226.963L-26.1043 227.063C-26.2549 227.063 -26.3904 226.958 -26.4406 226.792C-26.6113 226.269 -26.5962 225.732 -26.4356 225.174C-26.3854 225.008 -26.2499 224.897 -26.0993 224.897L4.59282 224.807C5.0898 224.807 5.49641 224.335 5.49641 223.752V223.747Z" fill="#79ADDD"/>
<path d="M-20.4162 219.279L-25.3357 219.294C-25.2454 219.038 -25.1249 219.038 -24.9843 217.244L5.28103 217.153C5.39147 217.153 5.42661 217.626 5.43163 217.751L5.45171 224.842C5.45171 224.968 -25.14 224.952 -25.14 224.952C-25.3809 223.244 -25.4412 223.163 -25.5215 222.425L-22.5748 222.349L-25.4512 222.359C-25.5315 222.359 -25.4964 220.495 -25.3759 219.565L-20.4162 219.274V219.279Z" fill="#E6E6E6"/>
<path d="M4.77332 219.712L4.78336 223.084L4.78838 223.838L3.46311 223.466L2.14285 223.848V223.094L2.13281 219.722L4.77332 219.712Z" fill="#F6A447"/>
<path d="M195.722 171.802C194.854 178.5 188.408 183.023 181.747 181.968C175.085 180.912 170.537 174.646 171.597 167.977C172.651 161.309 178.911 156.756 185.572 157.816C192.234 158.877 196.37 166.807 195.727 171.807L195.722 171.802Z" fill="#FCDCB5"/>
<path d="M214.258 197.667C215.864 212.703 216.215 227.442 196.1 227.442C180.764 227.442 176.673 216.12 177.517 198.803C178.345 181.803 183.31 164.159 192.576 168.586C202.847 173.491 212.631 182.496 214.258 197.667Z" fill="#FCDCB5"/>
<path d="M180.112 181.515C180.017 181.515 179.916 181.49 179.826 181.439C179.55 181.279 179.455 180.927 179.615 180.65C183.245 174.339 187.055 172.434 190.965 170.891C195.006 169.298 196.322 170.143 196.548 170.329L195.81 171.218C195.81 171.218 195.82 171.228 195.84 171.238C195.83 171.233 194.796 170.62 191.392 171.962C187.682 173.424 184.063 175.233 180.619 181.223C180.514 181.409 180.318 181.515 180.117 181.515H180.112Z" fill="#9E614B"/>
<path d="M173.67 167.736L169.629 162.525C169.197 161.967 169.644 161.163 170.342 161.234L176.812 161.887L173.67 167.736Z" fill="#FCDCB5"/>
<path d="M188.72 159.48L186.405 154.586C186.255 154.164 185.657 154.169 185.512 154.586L183.469 158.983L188.72 159.475V159.48Z" fill="#FCDCB5"/>
<path d="M182.983 198.852C180.99 198.596 179.484 196.852 179.569 194.807C179.69 191.912 178.269 190.385 177.054 189.611C175.523 188.636 174.062 188.666 173.681 188.842C171.974 190.133 169.539 189.817 168.224 188.118C166.899 186.41 167.215 183.952 168.922 182.631C171.728 180.46 176.256 180.364 180.192 182.4C184.931 184.847 187.621 189.611 187.39 195.139C187.3 197.299 185.478 198.973 183.319 198.882C183.204 198.882 183.093 198.867 182.983 198.852Z" fill="#FCDCB5"/>
<path d="M189.113 221.522C188.29 221.522 174.887 220.723 174.847 224.376C174.801 228.029 176.563 227.376 181.473 227.376C186.382 227.376 194.108 227.421 194.108 227.421L189.113 221.522Z" fill="#FCDCB5"/>
<path d="M-8.05273 26.9039L3.72411 48.8491C8.33244 41.869 14.1255 40.462 24.6172 38.879L10.2701 18.2856C-0.608123 20.3661 -4.06186 21.5319 -8.04771 26.9039H-8.05273Z" fill="#ABCFE3"/>
<path d="M24.6166 38.8742C24.6166 38.8742 32.9046 24.8538 43.3561 26.4769L26.0573 5.39111C26.0573 5.39111 21.3386 4.76798 16.6549 8.73288C11.9713 12.6978 10.2695 18.2808 10.2695 18.2808L24.6166 38.8742Z" fill="#ABCFE3"/>
<path d="M13.7256 18.7985C13.6252 18.7985 13.5449 18.718 13.5449 18.6175C13.5449 16.7783 15.3923 13.5471 18.4846 11.3159C21.3961 9.21535 23.0327 8.57715 25.4975 8.57715C25.5979 8.57715 25.6782 8.65755 25.6782 8.75806C25.6782 8.85856 25.5979 8.93896 25.4975 8.93896C23.0979 8.93896 21.5718 9.53697 18.6954 11.6124C15.7386 13.7431 13.9064 16.909 13.9064 18.6175C13.9064 18.718 13.826 18.7985 13.7256 18.7985Z" fill="#7496B8"/>
<path d="M15.587 21.5621C15.4866 21.5621 15.4062 21.4817 15.4062 21.3812C15.4062 19.542 17.2536 16.3108 20.3459 14.0796C23.2575 11.979 24.899 11.3408 27.3588 11.3408C27.4592 11.3408 27.5395 11.4212 27.5395 11.5217C27.5395 11.6222 27.4592 11.7026 27.3588 11.7026C24.9593 11.7026 23.4332 12.3006 20.5567 14.3761C17.6 16.5067 15.7677 19.6726 15.7677 21.3812C15.7677 21.4817 15.6874 21.5621 15.587 21.5621Z" fill="#7496B8"/>
<path d="M17.8057 24.8087C17.7053 24.8087 17.625 24.7283 17.625 24.6278C17.625 22.7886 19.4724 19.5573 22.5647 17.3261C25.4762 15.2256 27.1127 14.5874 29.5776 14.5874C29.6779 14.5874 29.7583 14.6678 29.7583 14.7683C29.7583 14.8688 29.6779 14.9492 29.5776 14.9492C27.178 14.9492 25.6519 15.5472 22.7755 17.6226C19.8187 19.7533 17.9864 22.9192 17.9864 24.6278C17.9864 24.7283 17.9061 24.8087 17.8057 24.8087Z" fill="#7496B8"/>
<path d="M19.9092 28.1163C19.8088 28.1163 19.7285 28.0359 19.7285 27.9354C19.7285 26.0962 21.5759 22.865 24.6682 20.6338C27.5798 18.5332 29.2163 17.895 31.6811 17.895C31.7815 17.895 31.8618 17.9754 31.8618 18.0759C31.8618 18.1764 31.7815 18.2568 31.6811 18.2568C29.2815 18.2568 27.7554 18.8548 24.879 20.9303C21.9222 23.0609 20.09 26.2268 20.09 27.9354C20.09 28.0359 20.0096 28.1163 19.9092 28.1163Z" fill="#7496B8"/>
<path d="M21.4707 29.7386L24.6182 34.3668C24.6182 34.3668 26.2748 30.1607 28.6191 28.7737L25.4967 24.2661C25.4967 24.2661 23.6945 25.1355 22.6153 26.6682C21.7117 27.9496 21.4757 29.7336 21.4757 29.7336L21.4707 29.7386Z" fill="#7496B8"/>
<path d="M142.856 34.9996L138.977 31.7788L122.028 52.2371L125.907 55.4579L142.856 34.9996Z" fill="#C98446"/>
<path d="M142.854 35.0031L141.645 33.999L124.696 54.4573L125.905 55.4614L142.854 35.0031Z" fill="#A36B39"/>
<path d="M140.178 32.7873L138.969 31.7832L122.02 52.2415L123.229 53.2456L140.178 32.7873Z" fill="#A36B39"/>
<path d="M142.859 34.9959L138.979 31.7747L142.618 30.3224L144.234 29.6792L143.813 31.3074L142.859 34.9959Z" fill="#E5C3A5"/>
<path d="M143.791 31.3321L142.602 30.3421L144.218 29.6938L143.791 31.3321Z" fill="#877268"/>
<path d="M122.011 52.2466C121.851 52.5732 117.734 56.0256 120.114 58.1562C122.538 60.3322 125.892 55.4728 125.892 55.4728L122.011 52.2516V52.2466Z" fill="#FA9876"/>
<path d="M91.807 2.25546C83.3233 9.81339 82.5 22.7835 89.9145 31.3515L93.3983 28.2459L96.074 25.864L114.738 9.23549L117.414 6.84851L120.898 3.74795C113.257 -4.61905 100.296 -5.3075 91.807 2.25546ZM93.8451 22.1352C92.053 17.4216 93.2277 11.8888 97.2135 8.341C101.199 4.78817 106.827 4.26052 111.295 6.59223L93.8451 22.1403V22.1352Z" fill="#DCF8C1"/>
<path d="M86.1096 20.6376C85.9891 20.6376 85.8836 20.5522 85.8636 20.4316C85.8385 20.2959 85.9288 20.1602 86.0644 20.1351L88.1075 19.7381C88.248 19.713 88.3786 19.8034 88.4037 19.9391C88.4288 20.0748 88.3434 20.2104 88.2029 20.2356L86.1598 20.6326C86.1598 20.6326 86.1246 20.6326 86.1096 20.6326V20.6376Z" fill="#A4C5EE"/>
<path d="M109.769 0.983381C109.744 0.983381 109.719 0.983381 109.694 0.97333C109.564 0.933129 109.488 0.787397 109.528 0.656741L110.161 -1.32822C110.201 -1.45888 110.347 -1.53426 110.477 -1.49405C110.608 -1.45385 110.683 -1.30812 110.643 -1.17747L110.01 0.807498C109.975 0.913028 109.88 0.983381 109.769 0.983381Z" fill="#A4C5EE"/>
<path d="M93.7366 5.47115C93.6663 5.47115 93.5961 5.441 93.5509 5.38572L91.8391 3.46106C91.7487 3.35553 91.7537 3.19975 91.8592 3.10427C91.9646 3.01382 92.1202 3.01884 92.2156 3.12437L93.9274 5.04903C94.0177 5.15456 94.0127 5.31035 93.9073 5.40582C93.8571 5.44603 93.8019 5.47115 93.7416 5.47115H93.7366Z" fill="#A4C5EE"/>
<path d="M94.9403 27.1294C94.87 27.1294 94.7997 27.0993 94.7545 27.044L93.5598 25.7023C93.4694 25.5967 93.4744 25.441 93.5799 25.3455C93.6853 25.255 93.8409 25.2601 93.9363 25.3656L95.131 26.7073C95.2214 26.8128 95.2164 26.9686 95.1109 27.0641C95.0607 27.1093 95.0055 27.1294 94.9453 27.1294H94.9403Z" fill="#A4C5EE"/>
<path d="M98.075 24.336C98.0047 24.336 97.9345 24.3058 97.8893 24.2506L96.6945 22.9088C96.6042 22.8033 96.6092 22.6475 96.7146 22.552C96.82 22.4616 96.9757 22.4666 97.071 22.5721L98.2658 23.9139C98.3561 24.0194 98.3511 24.1752 98.2457 24.2707C98.1955 24.3109 98.1403 24.336 98.0801 24.336H98.075Z" fill="#A4C5EE"/>
<path d="M101.212 21.5415C101.141 21.5415 101.071 21.5114 101.026 21.4561L99.8313 20.1144C99.7409 20.0089 99.7459 19.8531 99.8513 19.7576C99.9568 19.6671 100.112 19.6722 100.208 19.7777L101.403 21.1194C101.493 21.225 101.488 21.3807 101.382 21.4762C101.332 21.5164 101.277 21.5415 101.217 21.5415H101.212Z" fill="#A4C5EE"/>
<path d="M104.345 18.7486C104.274 18.7486 104.204 18.7184 104.159 18.6631L102.964 17.3214C102.874 17.2159 102.879 17.0601 102.984 16.9646C103.09 16.8742 103.245 16.8792 103.341 16.9847L104.535 18.3265C104.626 18.432 104.621 18.5878 104.515 18.6833C104.465 18.7235 104.41 18.7486 104.35 18.7486H104.345Z" fill="#A4C5EE"/>
<path d="M107.479 15.9537C107.409 15.9537 107.339 15.9235 107.294 15.8682L106.099 14.5265C106.008 14.421 106.013 14.2652 106.119 14.1697C106.224 14.0792 106.38 14.0843 106.475 14.1898L107.67 15.5315C107.76 15.6371 107.755 15.7929 107.65 15.8883C107.605 15.9285 107.545 15.9537 107.484 15.9537H107.479Z" fill="#A4C5EE"/>
<path d="M110.618 13.1656C110.548 13.1656 110.477 13.1354 110.432 13.0801L109.238 11.7384C109.147 11.6329 109.152 11.4771 109.258 11.3816C109.363 11.2912 109.519 11.2962 109.614 11.4017L110.809 12.7435C110.899 12.849 110.894 13.0048 110.789 13.1002C110.744 13.1404 110.683 13.1656 110.623 13.1656H110.618Z" fill="#A4C5EE"/>
<path d="M113.751 10.3711C113.681 10.3711 113.61 10.341 113.565 10.2857L112.37 8.94397C112.28 8.83844 112.285 8.68266 112.39 8.58718C112.496 8.49673 112.651 8.50175 112.747 8.60728L113.942 9.94902C114.032 10.0545 114.027 10.2103 113.921 10.3058C113.871 10.346 113.816 10.3711 113.756 10.3711H113.751Z" fill="#A4C5EE"/>
<path d="M116.884 7.57622C116.813 7.57622 116.743 7.54606 116.698 7.49079L115.503 6.14905C115.413 6.04352 115.418 5.88774 115.523 5.79226C115.629 5.70181 115.784 5.70683 115.88 5.81236L117.074 7.1541C117.165 7.25963 117.16 7.41541 117.054 7.51089C117.009 7.55109 116.949 7.57622 116.889 7.57622H116.884Z" fill="#A4C5EE"/>
<path d="M202.919 35.794L206.809 37.2714C206.809 37.0704 206.709 37.0352 207.055 35.7689L183.125 26.6632C183.04 26.633 182.884 26.9446 182.854 27.03L181.022 31.8593C180.991 31.9447 205.203 41.0755 205.203 41.0755C205.83 39.98 205.9 39.9448 206.151 39.4675L203.837 38.5378L206.111 39.4021C206.172 39.4273 206.623 38.1458 206.769 37.4724L202.919 35.794Z" fill="#D9D4A7"/>
<path d="M181.267 31.1011L182.602 27.5784C182.752 27.1814 183.194 26.9854 183.591 27.1362L208.013 36.4278C208.013 36.4278 208.063 36.4278 208.083 36.4127C208.46 36.0811 208.62 35.6238 208.595 35.0559C208.595 35.0308 208.575 35.0057 208.55 34.9956L182.778 25.1864C182.381 25.0356 181.939 25.2367 181.789 25.6286L179.349 32.0559C179.198 32.4529 179.399 32.8951 179.791 33.0458L205.423 42.7998C205.543 42.845 205.674 42.8099 205.759 42.7144C206.025 42.4078 206.156 42.036 206.171 41.6088C206.171 41.4782 206.095 41.3626 205.975 41.3174L181.708 32.081C181.312 31.9303 181.116 31.488 181.267 31.091V31.1011Z" fill="#B1B1E8"/>
<path d="M184.058 29.2305L181.503 35.9492L180.936 37.4467L182.803 37.301L184.088 38.6477L184.655 37.1502L187.211 30.4315L184.058 29.2305Z" fill="#F5A98D"/>
<path d="M179.559 32.8994L169.725 15.8941L171.878 10.9342C172.335 9.88891 173.555 9.41152 174.599 9.87384L198.077 20.2911L208.554 34.9949L182.395 25.7334L179.559 32.8944V32.8994Z" fill="#B1B1E8"/>
<path d="M173.48 9.72412C172.798 9.8196 172.18 10.2568 171.884 10.9402L169.73 15.9001L179.565 32.9055L182.401 25.7445L182.893 25.9204C180.152 21.3475 175.438 13.4227 173.48 9.72915V9.72412Z" fill="#C8C8F0"/>
</g>
<defs>
<clipPath id="clip0_2003_4855">
<rect width="197" height="239" fill="white"/>
</clipPath>
</defs>
</svg>
