<svg width="393" height="79" fill="none" xmlns="http://www.w3.org/2000/svg"><mask id="a" style="mask-type:alpha" maskUnits="userSpaceOnUse" x="0" y="0" width="393" height="79"><path fill="#D9D9D9" d="M0 0h393v79H0z"/></mask><g mask="url(#a)"><path d="M193.262.163c-24.078-.733-48.079 1.069-71.256 5.08-16.722 2.82-34.14.804-51.159.387-19.736-.489-40.117-3.35-59.597-.5C-6.077 7.606-6.747 19.334-5.678 28.089-5.51 38.92-2.508 49.64-.563 60.329-4.12 67.252 1.91 85.78 17.33 76.404c3.376-9.926 4.703-22.998 26.63-22.845 10.757-5.68 13.604-17.296 29.656-19.058 11.66 4.704 27.467 7.045 38.289-.478 10.976-7.218 29.257-4.408 36.085 3.91 12.484 10.81 24.968-2.505 37.387-4.898 14.88-3.054 29.451 4.062 44.588 1.975 13.669-.417 28.936-5.446 40.801-.05 9.185 11.086 26.732 2.779 39.216-.448 18.539-6.037 20.587 13.845 38.082 7.431 13.746 2.525 16.13 12.298 20.974 19.343 1.597 5.732 12.329 21.175 19.389 8.877 7.047-10.78 13.192-22.753 7.06-34.267-5.669-6.83-3.852-16.258-15.202-21.47-13.257-7.045-32.272-4.836-48.492-5.569-18.642-.153-37.232.733-55.745-1.008C252.975 5.62 230.855.173 207.24.224c-4.663-.071-9.314-.071-13.978-.071v.01Z" fill="#fff"/><path d="M130.341 23.038c-14.97-.326-30.275 5.06-44.111 7.157-10.126 1.537-23.422-5.151-34.707-4.011-13.192 1.334-25.045 15.372-37.18 13.53C3.584 38.095-2.213 31.824-5.962 24.84c.051 1.11.141 2.2.27 3.238.168 10.832 3.182 21.552 5.115 32.241-3.556 6.923 2.473 25.451 17.894 16.075 3.376-9.926 4.703-22.998 26.63-22.845 10.757-5.68 13.604-17.297 29.657-19.068 11.659 4.703 27.466 7.045 38.288-.478 10.976-7.218 29.257-4.409 36.085 3.909 12.484 10.812 24.968-2.505 37.387-4.897 14.88-3.054 29.451 4.062 44.601 1.975 13.669-.417 28.936-5.446 40.801-.05 9.186 11.086 26.732 2.778 39.216-.449 18.539-6.037 20.6 13.846 38.082 7.432 13.746 2.525 16.143 12.298 20.974 19.333 1.597 5.731 12.329 21.175 19.389 8.877 7.047-10.781 13.192-22.753 7.06-34.267-2.822-3.39-3.788-7.422-5.437-11.27-7.524 2.657-14.828 14.07-24.503 12.593-4.355-.662-9.147-6.515-10.745-6.515-4.213 0-7.021 3.93-11.569 3.003-8.464-1.71-19.428-8.022-28.098-8.022-7.24 0-13.939 6.2-22.313 4.51-4.355-.876-8.052-3.635-12.394-4.51-14.738-2.983-30.971 3.858-46.276 2.005-4.084-.499-44.395-3.817-47.938-3.512-7.884.682-15.253 3.41-23.138 4.011-10.847.825-18.938-4.194-29.747-5.009a57.898 57.898 0 0 0-2.989-.142v.03Z" fill="#E5EFFB"/><path d="M124.853 26.082c-11.479-.132-24.104 5.742-34.913 7.381-9.057 1.374-19.157-4.021-28.51-1.751-9.817 2.382-10.075 9.753-18.178 13.03-5.823 2.353-7.627-5.904-17.766.754-5.81 3.818-7.266 14.986-18.178 13.785-4.11-.459-7.098-3.502-9.559-7.34.58 2.8 1.172 5.599 1.675 8.398-3.556 6.923 2.473 25.451 17.894 16.075 3.376-9.926 4.703-22.997 26.63-22.845 10.757-5.68 13.604-17.296 29.656-19.068 11.66 4.704 27.467 7.045 38.289-.478 10.976-7.218 29.257-4.408 36.085 3.91 12.484 10.81 24.968-2.505 37.387-4.898 14.88-3.054 29.451 4.062 44.601 1.975 13.669-.417 28.936-5.446 40.801-.05 9.185 11.086 26.732 2.779 39.216-.448 18.539-6.037 20.6 13.845 38.082 7.431 13.746 2.525 16.143 12.298 20.974 19.333 1.597 5.731 12.329 21.175 19.389 8.877 7.047-10.78 13.192-22.753 7.06-34.267-1.044-1.262-1.804-2.637-2.461-4.032-3.891.285-4.651 5.946-5.991 6.872-5.449 3.716-18.384 6.23-26.448 5.009-7.318-1.11-5.579-5.345-10.333-7.269-4.547-1.832-19.26-.132-26.023-1.507-4.793-.967-5.695-4.764-11.569-4.764-9.676 0-16.697 6.098-27.274 4.266-4.767-.825-3.143-3.716-6.609-4.765-7.253-2.199-29.605.662-38.43 1.252-17.882 1.202-35.622-2.005-53.297-2.005-10.796 0-19.84 5.416-30.984 4.51-7.756-.631-17.47-6.271-28.923-7.269-.76-.061-1.52-.102-2.28-.112l-.013.01Z" fill="#C6E0FA"/></g></svg>