<svg width="1920" height="74" fill="none" xmlns="http://www.w3.org/2000/svg"><mask id="a" style="mask-type:alpha" maskUnits="userSpaceOnUse" x="0" y="0" width="1920" height="74"><path fill="#D9D9D9" d="M0 0h1920v74H0z"/></mask><g mask="url(#a)"><g clip-path="url(#b)"><path d="M176.452.154c-22.409-.687-44.747 1.001-66.317 4.758-15.564 2.642-31.775.754-47.614.363-18.368-.458-37.337-3.138-55.466-.467C-9.072 7.125-9.695 18.11-8.7 26.31c.156 10.147 2.95 20.188 4.76 30.201-3.31 6.485 2.302 23.84 16.654 15.058 3.142-9.298 4.377-21.542 24.784-21.4C47.51 44.85 50.16 33.97 65.099 32.32c10.852 4.405 25.563 6.598 35.635-.45 10.216-6.76 27.23-4.128 33.585 3.663 11.618 10.127 23.237-2.346 34.795-4.587 13.849-2.86 27.41 3.805 41.498 1.85 12.722-.391 26.93-5.102 37.973-.048 8.549 10.385 24.88 2.604 36.498-.42 17.254-5.654 19.161 12.97 35.443 6.962 12.794 2.365 16.966.111 21.474 6.71 1.487 5.369 13.929 1.02 20.5-10.5 6.559-10.099 1.237-8.5 0-10-5.276-6.399-1.423-7.104-11.986-11.986-12.338-6.599-30.036-4.53-45.131-5.216-17.35-.143-34.652.686-51.882-.944C232.027 5.265 211.44.164 189.462.21c-4.341-.067-8.669-.067-13.01-.067v.01Z" fill="#fff"/><path d="M117.893 21.58c-13.932-.305-28.177 4.74-41.054 6.704-9.424 1.44-21.798-4.825-32.302-3.757C32.26 25.777 21.23 38.927 9.934 37.2-.078 35.684-5.474 29.81-8.963 23.268c.048 1.04.132 2.06.252 3.032.156 10.147 2.962 20.188 4.76 30.201-3.31 6.485 2.302 23.84 16.654 15.058 3.142-9.298 4.377-21.542 24.784-21.4C47.5 44.84 50.15 33.959 65.09 32.3c10.85 4.405 25.563 6.599 35.634-.448 10.216-6.761 27.23-4.13 33.585 3.661 11.618 10.128 23.237-2.346 34.795-4.587 13.849-2.86 27.41 3.805 41.51 1.85 12.722-.39 26.93-5.101 37.973-.047 8.549 10.385 24.88 2.603 36.498-.42 17.254-5.655 19.173 12.97 35.443 6.962 12.794 2.365 14.977-.86 19.473 5.73 1.487 5.369 14.429 3.02 21-8.5 5-5.665 3.837-7.596 2.5-11-2.626-3.175 2-3-3.897-2.46-7.002 2.488-13.8 13.178-22.805 11.795-4.053-.62-8.513-6.103-10-6.103-3.921 0-6.534 3.681-10.767 2.813-7.878-1.602-18.081-7.514-26.151-7.514-6.738 0-12.973 5.807-20.767 4.224-4.052-.82-7.493-3.404-11.534-4.224-13.717-2.794-28.824 3.614-43.069 1.879-3.801-.468-41.318-3.576-44.615-3.29-7.338.639-14.197 3.194-21.535 3.757-10.095.772-17.625-3.929-27.685-4.692a53.469 53.469 0 0 0-2.782-.133v.028Z" fill="#E5EFFB"/><path d="M112.784 24.431c-10.683-.123-22.433 5.379-32.493 6.914-8.43 1.288-17.83-3.767-26.534-1.64-9.137 2.231-9.377 9.136-16.918 12.206-5.42 2.203-7.099-5.53-16.535.706-5.408 3.576-6.762 14.037-16.918 12.912-3.825-.43-6.607-3.28-8.897-6.876.54 2.623 1.091 5.245 1.559 7.867-3.31 6.485 2.302 23.84 16.654 15.058 3.142-9.298 4.377-21.542 24.784-21.4 10.012-5.32 12.662-16.2 27.601-17.86 10.851 4.406 25.563 6.599 35.635-.448 10.216-6.762 27.23-4.13 33.585 3.662 11.618 10.127 23.237-2.346 34.795-4.587 13.849-2.861 27.41 3.804 41.51 1.85 12.722-.391 26.93-5.102 37.973-.048 8.549 10.385 24.88 2.603 36.498-.42 17.254-5.654 19.172 12.97 35.443 6.962C333.32 41.654 335.504 39.41 340 46c1.487 5.369 12.929 6.487 19.5-5.033 6.559-10.099 8-7.467 7.5-10.467 0-6.503-5.872-1.838-7.5-1.5-3.372 1.162-1.457 6.407-2.704 7.275-5.071 3.481-17.11 5.836-24.615 4.692-6.811-1.04-5.192-5.006-9.617-6.809-4.232-1.716-17.925-.124-24.22-1.411-4.46-.906-5.299-4.463-10.767-4.463-9.005 0-15.539 5.712-25.383 3.996-4.436-.773-2.926-3.481-6.151-4.463-6.751-2.06-27.554.62-35.767 1.173-16.642 1.125-33.153-1.879-49.603-1.879-10.048 0-18.465 5.073-28.837 4.225-7.218-.592-16.258-5.875-26.917-6.81a31.687 31.687 0 0 0-2.123-.104l-.012.01Z" fill="#C6E0FA"/></g><g clip-path="url(#c)"><path d="M1743.55.154c22.41-.687 44.75 1.001 66.32 4.758 15.56 2.642 31.77.754 47.61.363 18.37-.458 37.34-3.138 55.47-.467 16.12 2.317 16.75 13.302 15.75 21.503-.16 10.147-2.95 20.188-4.76 30.201 3.31 6.485-2.3 23.84-16.65 15.058-3.15-9.298-4.38-21.542-24.79-21.4-10.01-5.32-12.66-16.201-27.6-17.85-10.85 4.405-25.56 6.598-35.63-.45-10.22-6.76-27.23-4.128-33.59 3.663-11.62 10.127-23.24-2.346-34.79-4.587-13.85-2.86-27.41 3.805-41.5 1.85-12.72-.391-26.93-5.102-37.98-.048-8.54 10.385-24.87 2.604-36.49-.42-17.26-5.654-19.16 12.97-35.45 6.962-12.79 2.365-16.96.111-21.47 6.71-1.49 5.369-13.93 1.02-20.5-10.5-6.56-10.099-1.24-8.5 0-10 5.28-6.399 1.42-7.104 11.99-11.986 12.33-6.599 30.03-4.53 45.13-5.216 17.35-.143 34.65.686 51.88-.944 21.47-2.089 42.06-7.19 64.04-7.143 4.34-.067 8.67-.067 13.01-.067v.01Z" fill="#fff"/><path d="M1802.11 21.58c13.93-.305 28.17 4.74 41.05 6.704 9.43 1.44 21.8-4.825 32.3-3.757 12.28 1.25 23.31 14.4 34.61 12.673 10.01-1.516 15.4-7.39 18.89-13.932-.05 1.04-.13 2.06-.25 3.032-.15 10.147-2.96 20.188-4.76 30.201 3.31 6.485-2.3 23.84-16.65 15.058-3.14-9.298-4.38-21.542-24.79-21.4-10.01-5.32-12.66-16.201-27.6-17.86-10.85 4.405-25.56 6.599-35.63-.448-10.22-6.761-27.23-4.13-33.59 3.661-11.62 10.128-23.23-2.346-34.79-4.587-13.85-2.86-27.41 3.805-41.51 1.85-12.72-.39-26.93-5.101-37.98-.047-8.55 10.385-24.88 2.603-36.49-.42-17.26-5.655-19.18 12.97-35.45 6.962-12.79 2.365-14.97-.86-19.47 5.73-1.49 5.369-14.43 3.02-21-8.5-5-5.665-3.84-7.596-2.5-11 2.63-3.175-2-3 3.9-2.46 7 2.488 13.8 13.178 22.8 11.795 4.05-.62 8.52-6.103 10-6.103 3.92 0 6.54 3.681 10.77 2.813 7.88-1.602 18.08-7.514 26.15-7.514 6.74 0 12.97 5.807 20.77 4.224 4.05-.82 7.49-3.404 11.53-4.224 13.72-2.794 28.83 3.614 43.07 1.879 3.8-.468 41.32-3.576 44.62-3.29 7.33.639 14.19 3.194 21.53 3.757 10.1.772 17.63-3.929 27.68-4.692.93-.067 1.85-.114 2.79-.133v.028Z" fill="#E5EFFB"/><path d="M1807.22 24.431c10.68-.123 22.43 5.379 32.49 6.914 8.43 1.288 17.83-3.767 26.53-1.64 9.14 2.231 9.38 9.136 16.92 12.206 5.42 2.203 7.1-5.53 16.54.706 5.4 3.576 6.76 14.037 16.91 12.912 3.83-.43 6.61-3.28 8.9-6.876-.54 2.623-1.09 5.245-1.56 7.867 3.31 6.485-2.3 23.84-16.65 15.058-3.14-9.298-4.38-21.542-24.79-21.4-10.01-5.32-12.66-16.2-27.6-17.86-10.85 4.406-25.56 6.599-35.63-.448-10.22-6.762-27.23-4.13-33.59 3.662-11.62 10.127-23.23-2.346-34.79-4.587-13.85-2.861-27.41 3.804-41.51 1.85-12.72-.391-26.93-5.102-37.98-.048-8.54 10.385-24.87 2.603-36.49-.42-17.26-5.654-19.18 12.97-35.45 6.962-12.79 2.365-14.97.122-19.47 6.711-1.49 5.369-12.93 6.487-19.5-5.033-6.56-10.099-8-7.467-7.5-10.467 0-6.503 5.87-1.838 7.5-1.5 3.37 1.162 1.46 6.407 2.7 7.275 5.08 3.481 17.11 5.836 24.62 4.692 6.81-1.04 5.19-5.006 9.62-6.809 4.23-1.716 17.92-.124 24.22-1.411 4.46-.906 5.3-4.463 10.76-4.463 9.01 0 15.54 5.712 25.39 3.996 4.43-.773 2.92-3.481 6.15-4.463 6.75-2.06 27.55.62 35.76 1.173 16.65 1.125 33.16-1.879 49.61-1.879 10.04 0 18.46 5.073 28.83 4.225 7.22-.592 16.26-5.875 26.92-6.81a31.93 31.93 0 0 1 2.12-.104l.02.01Z" fill="#C6E0FA"/></g><g clip-path="url(#d)"><path d="M382.452 5.69c28.14 3.167 57.377 3.136 84.674 1.27 10.191-.697 27.552-5.324 38.203-4.23 13.291 1.365 49.222 4.429 61.956 3.387 18.172-1.49 41.717-8.128 60.922-5.502 9.031 1.24 18.474 1.844 27.886 3.386 14.865 2.439 25.565 7.045 41.304 8.889 20.652 2.417 45.978.781 66.089-1.699 27.139-3.334 77.282-6.419 99.126 2.543 2.242.917 5.294 3.23 4.134 4.658-9.476 11.66-28.045 7.336-37.171 14.818-4.372 3.584 2.099 11.004-8.267 13.13-12.909 2.646-16.916-9.681-25.819-8.472-7.917 1.084-8.966 4.168-15.485 5.502-7.71 1.584-9.57-5.867-27.885-2.115-9.873 2.021-16.932 6.075-27.886 7.2-6.486.667-31.192-7.034-38.203-8.472-6.932-1.427-16.217.198-23.752-.427-14.579-1.198-28.697-.584-43.371.427-16.041 1.094-33.498-.573-48.538-2.115-29.141-2.99-35.961 17.35-60.922 19.059-15.056 1.032-22.242-9.222-35.103-11.859-6.598-1.354-15.692 2.282-22.719.844-6.773-1.386-12.21-4.324-19.618-5.085-5.946-.604-12.481-.062-18.586-.427-11.812-.688-24.372-2.563-35.103-5.085-8.458-1.98-26.375-6.846-28.919-11.015-6.693-10.962 11.335-21.08 33.037-18.631l.016.02Z" fill="#fff"/><path d="M862.66 13.765c2.241.938 5.23 3.22 4.086 4.627-9.476 11.66-28.045 7.336-37.171 14.818-4.372 3.585 2.099 11.004-8.267 13.13-12.909 2.647-16.916-9.691-25.819-8.472-7.917 1.084-8.966 4.168-15.485 5.502-7.71 1.584-9.57-5.867-27.885-2.115-9.873 2.021-16.932 6.075-27.886 7.2-6.486.667-31.192-7.034-38.203-8.472-6.932-1.427-16.217.198-23.752-.427-14.579-1.198-28.697-.583-43.371.427-16.041 1.095-33.514-.573-48.537-2.115-29.142-2.99-35.962 17.35-60.923 19.06-15.055 1.03-22.241-9.223-35.103-11.86-6.598-1.354-15.692 2.283-22.719.845-6.773-1.386-12.21-4.325-19.618-5.085-5.946-.605-12.481-.063-18.585-.428-11.813-.688-24.373-2.563-35.104-5.085-8.458-1.98-26.375-6.846-28.919-11.014-2.003-3.283-1.749-6.482.111-9.295 5.708 2.907 11.686 5.866 17.536 7.335 13.657 3.44 34.102-.145 42.83 2.053 5.024 1.261 15.612 5.867 21.415 5.127 7.663-.958 24.849-4.783 31.606-3.074 16.82 4.23 27.425 15.204 46.916 18.476 11.876 1.99 31.669-12.338 38.76-15.902 2.258-1.136 13.673-1.084 17.329-1.542 21.495-2.7 42.671 5.148 63.228 2.563 12.559-1.584 29.793-4.387 42.83-3.074 14.912 1.5 30.318 6.284 44.865 8.722 7.599 1.272 51.351-10.91 67.313-11.796 22.417-1.25 61.367-.813 78.522-10.139v.01Z" fill="#E5EFFB"/><path d="M864.758 14.953c1.558 1.074 2.783 2.46 1.988 3.44-9.476 11.66-28.045 7.335-37.171 14.817-4.372 3.585 2.099 11.004-8.267 13.13-12.909 2.647-16.915-9.691-25.819-8.472-7.917 1.084-8.966 4.168-15.484 5.502-7.711 1.584-9.571-5.867-27.886-2.115-9.873 2.021-16.932 6.075-27.886 7.2-6.486.667-31.192-7.034-38.203-8.472-6.932-1.427-16.217.198-23.752-.427-14.579-1.198-28.697-.583-43.371.427-16.041 1.095-33.514-.573-48.537-2.115-29.142-2.99-35.962 17.35-60.923 19.06-15.055 1.03-22.241-9.223-35.103-11.86-6.598-1.354-15.692 2.283-22.719.845-6.772-1.386-12.21-4.325-19.618-5.086-5.946-.604-12.48-.062-18.585-.427-11.813-.688-24.373-2.563-35.104-5.085-8.458-1.98-26.375-6.846-28.919-11.014-.588-.97-.922-1.928-1.145-2.866.986.344 1.972.677 3.037 1.146 23.068 10.16 51.924 8.712 73.546 10.88 21.637 2.177 20.19 5.074 34.61 3.626 14.42-1.449 10.096-1.449 31.733 6.533 21.638 7.982 24.515 7.982 37.488 2.178 12.973-5.804 28.84-14.516 57.695-12.338 28.84 2.178 43.26.73 70.668-1.448 27.409-2.178 34.611 2.178 56.248 7.252 21.638 5.075 30.287-.73 41.829-5.804 11.542-5.075 12.973 2.178 21.637.73 8.649-1.449 4.325-4.356 20.191-5.086 15.867-.729 14.42 7.253 21.638 2.908 7.218-4.356-1.447-5.075 12.973-6.534 8.315-.834 22.369-6.106 33.195-10.545l.016.02Z" fill="#C6E0FA"/></g><g clip-path="url(#e)"><path d="M869.452 5.69c28.14 3.167 57.376 3.136 84.674 1.27 10.191-.697 27.552-5.324 38.203-4.23 13.291 1.365 49.221 4.429 61.961 3.387 18.17-1.49 41.71-8.128 60.92-5.502 9.03 1.24 18.47 1.844 27.88 3.386 14.87 2.439 25.57 7.045 41.31 8.889 20.65 2.417 45.97.781 66.09-1.699 27.13-3.334 77.28-6.419 99.12 2.543 2.24.917 5.3 3.23 4.14 4.658-9.48 11.66-28.05 7.336-37.17 14.818-4.38 3.584 2.09 11.004-8.27 13.13-12.91 2.646-16.92-9.681-25.82-8.472-7.92 1.084-8.97 4.168-15.49 5.502-7.71 1.584-9.57-5.867-27.88-2.115-9.87 2.021-16.93 6.075-27.89 7.2-6.48.667-31.19-7.034-38.2-8.472-6.93-1.427-16.22.198-23.75-.427-14.58-1.198-28.7-.584-43.37.427-16.04 1.094-33.5-.573-48.54-2.115-29.14-2.99-35.96 17.35-60.923 19.059-15.056 1.032-22.242-9.222-35.103-11.859-6.598-1.354-15.692 2.282-22.719.844-6.773-1.386-12.21-4.324-19.618-5.085-5.946-.604-12.481-.062-18.586-.427-11.812-.688-24.372-2.563-35.103-5.085-8.458-1.98-26.375-6.846-28.919-11.015-6.693-10.962 11.335-21.08 33.037-18.631l.016.02Z" fill="#fff"/><path d="M1349.66 13.765c2.24.938 5.23 3.22 4.09 4.627-9.48 11.66-28.05 7.336-37.17 14.818-4.38 3.585 2.09 11.004-8.27 13.13-12.91 2.647-16.92-9.691-25.82-8.472-7.92 1.084-8.97 4.168-15.49 5.502-7.71 1.584-9.57-5.867-27.88-2.115-9.87 2.021-16.93 6.075-27.89 7.2-6.48.667-31.19-7.034-38.2-8.472-6.93-1.427-16.22.198-23.75-.427-14.58-1.198-28.7-.583-43.37.427-16.04 1.095-33.52-.573-48.54-2.115-29.14-2.99-35.96 17.35-60.923 19.06-15.055 1.03-22.241-9.223-35.103-11.86-6.598-1.354-15.692 2.283-22.719.845-6.773-1.386-12.21-4.325-19.618-5.085-5.946-.605-12.481-.063-18.585-.428-11.813-.688-24.373-2.563-35.104-5.085-8.458-1.98-26.375-6.846-28.919-11.014-2.003-3.283-1.749-6.482.111-9.295 5.708 2.907 11.686 5.866 17.536 7.335 13.657 3.44 34.102-.145 42.83 2.053 5.024 1.261 15.612 5.867 21.415 5.127 7.663-.958 24.849-4.783 31.606-3.074 16.82 4.23 27.425 15.204 46.916 18.476 11.877 1.99 31.667-12.338 38.757-15.902 2.26-1.136 13.68-1.084 17.33-1.542 21.5-2.7 42.67 5.148 63.23 2.563 12.56-1.584 29.79-4.387 42.83-3.074 14.91 1.5 30.32 6.284 44.86 8.722 7.6 1.272 51.36-10.91 67.32-11.796 22.41-1.25 61.37-.813 78.52-10.139v.01Z" fill="#E5EFFB"/><path d="M1351.76 14.953c1.56 1.074 2.78 2.46 1.99 3.44-9.48 11.66-28.05 7.335-37.17 14.817-4.38 3.585 2.09 11.004-8.27 13.13-12.91 2.647-16.92-9.691-25.82-8.472-7.92 1.084-8.97 4.168-15.49 5.502-7.71 1.584-9.57-5.867-27.88-2.115-9.87 2.021-16.93 6.075-27.89 7.2-6.48.667-31.19-7.034-38.2-8.472-6.93-1.427-16.22.198-23.75-.427-14.58-1.198-28.7-.583-43.37.427-16.04 1.095-33.52-.573-48.54-2.115-29.14-2.99-35.96 17.35-60.923 19.06-15.055 1.03-22.241-9.223-35.103-11.86-6.598-1.354-15.692 2.283-22.719.845-6.772-1.386-12.21-4.325-19.618-5.086-5.946-.604-12.48-.062-18.585-.427-11.813-.688-24.373-2.563-35.104-5.085-8.458-1.98-26.375-6.846-28.919-11.014-.588-.97-.922-1.928-1.145-2.866.986.344 1.972.677 3.037 1.146 23.068 10.16 51.924 8.712 73.546 10.88 21.637 2.177 20.19 5.074 34.61 3.626 14.42-1.449 10.096-1.449 31.733 6.533 21.638 7.982 24.52 7.982 37.49 2.178 12.97-5.804 28.84-14.516 57.69-12.338 28.84 2.178 43.26.73 70.67-1.448 27.41-2.178 34.61 2.178 56.25 7.252 21.64 5.075 30.29-.73 41.83-5.804 11.54-5.075 12.97 2.178 21.64.73 8.64-1.449 4.32-4.356 20.19-5.086 15.86-.729 14.42 7.253 21.63 2.908 7.22-4.356-1.44-5.075 12.98-6.534 8.31-.834 22.37-6.106 33.19-10.545l.02.02Z" fill="#C6E0FA"/></g><g clip-path="url(#f)"><path d="M1208.45 5.69c28.14 3.167 57.38 3.136 84.68 1.27 10.19-.697 27.55-5.324 38.2-4.23 13.29 1.365 49.22 4.429 61.96 3.387 18.17-1.49 41.71-8.128 60.92-5.502 9.03 1.24 18.47 1.844 27.88 3.386 14.87 2.439 25.57 7.045 41.31 8.889 20.65 2.417 45.97.781 66.09-1.699 27.13-3.334 77.28-6.419 99.12 2.543 2.24.917 5.3 3.23 4.14 4.658-9.48 11.66-28.05 7.336-37.17 14.818-4.38 3.584 2.09 11.004-8.27 13.13-12.91 2.646-16.92-9.681-25.82-8.472-7.92 1.084-8.97 4.168-15.49 5.502-7.71 1.584-9.57-5.867-27.88-2.115-9.87 2.021-16.93 6.075-27.89 7.2-6.48.667-31.19-7.034-38.2-8.472-6.93-1.427-16.22.198-23.75-.427-14.58-1.198-28.7-.584-43.37.427-16.04 1.094-33.5-.573-48.54-2.115-29.14-2.99-35.96 17.35-60.92 19.059-15.06 1.032-22.24-9.222-35.11-11.859-6.59-1.354-15.69 2.282-22.71.844-6.78-1.386-12.21-4.324-19.62-5.085-5.95-.604-12.48-.062-18.59-.427-11.81-.688-24.37-2.563-35.1-5.085-8.46-1.98-26.38-6.846-28.92-11.015-6.69-10.962 11.33-21.08 33.04-18.631l.01.02Z" fill="#fff"/><path d="M1688.66 13.765c2.24.938 5.23 3.22 4.09 4.627-9.48 11.66-28.05 7.336-37.17 14.818-4.38 3.585 2.09 11.004-8.27 13.13-12.91 2.647-16.92-9.691-25.82-8.472-7.92 1.084-8.97 4.168-15.49 5.502-7.71 1.584-9.57-5.867-27.88-2.115-9.87 2.021-16.93 6.075-27.89 7.2-6.48.667-31.19-7.034-38.2-8.472-6.93-1.427-16.22.198-23.75-.427-14.58-1.198-28.7-.583-43.37.427-16.04 1.095-33.52-.573-48.54-2.115-29.14-2.99-35.96 17.35-60.92 19.06-15.06 1.03-22.24-9.223-35.11-11.86-6.59-1.354-15.69 2.283-22.71.845-6.78-1.386-12.21-4.325-19.62-5.085-5.95-.605-12.48-.063-18.59-.428-11.81-.688-24.37-2.563-35.1-5.085-8.46-1.98-26.38-6.846-28.92-11.014-2-3.283-1.75-6.482.11-9.295 5.71 2.907 11.69 5.866 17.54 7.335 13.65 3.44 34.1-.145 42.83 2.053 5.02 1.261 15.61 5.867 21.41 5.127 7.66-.958 24.85-4.783 31.61-3.074 16.82 4.23 27.42 15.204 46.91 18.476 11.88 1.99 31.67-12.338 38.76-15.902 2.26-1.136 13.68-1.084 17.33-1.542 21.5-2.7 42.67 5.148 63.23 2.563 12.56-1.584 29.79-4.387 42.83-3.074 14.91 1.5 30.32 6.284 44.86 8.722 7.6 1.272 51.36-10.91 67.32-11.796 22.41-1.25 61.37-.813 78.52-10.139v.01Z" fill="#E5EFFB"/><path d="M1690.76 14.953c1.56 1.074 2.78 2.46 1.99 3.44-9.48 11.66-28.05 7.335-37.17 14.817-4.38 3.585 2.09 11.004-8.27 13.13-12.91 2.647-16.92-9.691-25.82-8.472-7.92 1.084-8.97 4.168-15.49 5.502-7.71 1.584-9.57-5.867-27.88-2.115-9.87 2.021-16.93 6.075-27.89 7.2-6.48.667-31.19-7.034-38.2-8.472-6.93-1.427-16.22.198-23.75-.427-14.58-1.198-28.7-.583-43.37.427-16.04 1.095-33.52-.573-48.54-2.115-29.14-2.99-35.96 17.35-60.92 19.06-15.06 1.03-22.24-9.223-35.11-11.86-6.59-1.354-15.69 2.283-22.71.845-6.78-1.386-12.21-4.325-19.62-5.086-5.95-.604-12.48-.062-18.59-.427-11.81-.688-24.37-2.563-35.1-5.085-8.46-1.98-26.38-6.846-28.92-11.014-.59-.97-.92-1.928-1.15-2.866.99.344 1.98.677 3.04 1.146 23.07 10.16 51.92 8.712 73.55 10.88 21.63 2.177 20.19 5.074 34.61 3.626 14.42-1.449 10.09-1.449 31.73 6.533s24.52 7.982 37.49 2.178c12.97-5.804 28.84-14.516 57.69-12.338 28.84 2.178 43.26.73 70.67-1.448 27.41-2.178 34.61 2.178 56.25 7.252 21.64 5.075 30.29-.73 41.83-5.804 11.54-5.075 12.97 2.178 21.64.73 8.64-1.449 4.32-4.356 20.19-5.086 15.86-.729 14.42 7.253 21.63 2.908 7.22-4.356-1.44-5.075 12.98-6.534 8.31-.834 22.37-6.106 33.19-10.545l.02.02Z" fill="#C6E0FA"/><path d="M1178.85 10.293C1195.19 8.543 1222 11.5 1231 12.5c8.5 0 43.29 7.96 41 10.5-4.5 5-22.15 5.47-29.5 4-20-4-55 2.206-77.5 0-21.9-2.147-41.49-7.662-40-9 5-4.5 39.85-6.207 53.85-7.707Z" fill="#fff"/></g></g><defs><clipPath id="b"><path fill="#fff" transform="translate(-9)" d="M0 0h376v74H0z"/></clipPath><clipPath id="c"><path fill="#fff" transform="matrix(-1 0 0 1 1929 0)" d="M0 0h376v74H0z"/></clipPath><clipPath id="d"><path fill="#fff" transform="matrix(-1 0 0 1 867 0)" d="M0 0h519v57H0z"/></clipPath><clipPath id="e"><path fill="#fff" transform="matrix(-1 0 0 1 1354 0)" d="M0 0h519v57H0z"/></clipPath><clipPath id="f"><path fill="#fff" transform="matrix(-1 0 0 1 1693 0)" d="M0 0h519v57H0z"/></clipPath></defs></svg>