<svg width="748" height="62" fill="none" xmlns="http://www.w3.org/2000/svg"><g clip-path="url(#a)"><path d="M130.374.13C114.62-.447 98.917.967 83.753 4.115c-10.942 2.213-22.338.631-33.473.304-12.913-.384-26.248-2.63-38.993-.392C-.05 5.97-.49 15.174.21 22.045c.11 8.5 2.073 16.914 3.346 25.303-2.326 5.433 1.619 19.974 11.708 12.616 2.209-7.79 3.077-18.049 17.423-17.929 7.039-4.458 8.902-13.574 19.404-14.957 7.629 3.692 17.972 5.53 25.052-.375 7.182-5.665 19.143-3.46 23.61 3.068 8.168 8.485 16.336-1.966 24.462-3.843 9.735-2.397 19.269 3.188 29.173 1.55 8.943-.328 18.932-4.275 26.695-.04 6.01 8.7 17.491 2.181 25.659-.352 12.129-4.738 13.47 10.866 24.916 5.833 8.994 1.981 11.927.093 15.097 5.622 1.045 4.498 9.792.854 14.411-8.798 4.611-8.46.87-7.121 0-8.378-3.708-5.361-1-5.952-8.426-10.042-8.674-5.53-21.115-3.795-31.728-4.37-12.197-.12-24.36.575-36.473-.792-15.096-1.75-29.569-6.024-45.02-5.984-3.051-.056-6.094-.056-9.146-.056V.13Z" fill="#fff"/><path d="M89.207 18.08c-9.795-.255-19.808 3.972-28.861 5.617-6.626 1.207-15.325-4.042-22.709-3.148-8.631 1.047-16.386 12.065-24.326 10.619C6.272 29.898 2.479 24.976.026 19.495c.034.87.093 1.726.177 2.54.11 8.502 2.082 16.915 3.347 25.304-2.327 5.433 1.618 19.974 11.708 12.616 2.208-7.79 3.076-18.05 17.423-17.93 7.038-4.457 8.901-13.574 19.404-14.964 7.628 3.691 17.97 5.529 25.051-.375 7.182-5.665 19.143-3.46 23.611 3.068 8.167 8.485 16.335-1.966 24.461-3.843 9.736-2.397 19.269 3.188 29.182 1.55 8.943-.328 18.932-4.275 26.695-.04 6.01 8.7 17.491 2.18 25.659-.352 12.129-4.738 13.478 10.866 24.916 5.832 8.994 1.982 10.529-.72 13.69 4.802 1.045 4.498 10.144 2.53 14.763-7.122 3.515-4.746 2.697-6.364 1.757-9.216-1.846-2.66 1.406-2.514-2.739-2.062-4.923 2.085-9.702 11.042-16.032 9.883-2.849-.519-5.985-5.113-7.03-5.113-2.757 0-4.594 3.084-7.57 2.357-5.538-1.342-12.711-6.296-18.384-6.296-4.737 0-9.12 4.866-14.599 3.54-2.849-.688-5.268-2.853-8.109-3.54-9.643-2.341-20.264 3.028-30.278 1.574-2.672-.391-29.047-2.996-31.365-2.756-5.158.535-9.98 2.676-15.138 3.147-7.098.648-12.391-3.291-19.463-3.93a31.65 31.65 0 0 0-1.956-.112v.024Z" fill="#E5EFFB"/><path d="M85.615 20.47c-7.51-.104-15.77 4.506-22.843 5.792-5.926 1.079-12.534-3.156-18.654-1.374-6.423 1.87-6.591 7.654-11.893 10.227-3.81 1.845-4.99-4.634-11.624.59-3.802 2.997-4.754 11.762-11.894 10.819-2.689-.36-4.644-2.748-6.254-5.76.38 2.197.767 4.394 1.096 6.59-2.327 5.434 1.618 19.975 11.708 12.617 2.208-7.79 3.077-18.05 17.423-17.93 7.038-4.457 8.901-13.574 19.404-14.964 7.628 3.691 17.971 5.529 25.051-.375 7.182-5.665 19.143-3.46 23.611 3.068 8.168 8.485 16.335-1.966 24.461-3.843 9.736-2.397 19.269 3.187 29.182 1.55 8.943-.328 18.932-4.275 26.695-.04 6.01 8.7 17.491 2.18 25.659-.352 12.129-4.738 13.478 10.866 24.916 5.832 8.994 1.982 10.53.103 13.691 5.624 1.045 4.498 9.089 5.434 13.708-4.217 4.611-8.461 5.624-6.256 5.273-8.77 0-5.449-4.128-1.54-5.273-1.257-2.37.974-1.024 5.369-1.9 6.096-3.566 2.916-12.029 4.89-17.306 3.93-4.787-.87-3.649-4.194-6.76-5.704-2.975-1.438-12.601-.104-17.027-1.182-3.135-.76-3.725-3.74-7.569-3.74-6.33 0-10.924 4.786-17.845 3.348-3.118-.647-2.056-2.916-4.324-3.74-4.745-1.725-19.37.52-25.144.984-11.7.942-23.307-1.574-34.872-1.574-7.063 0-12.981 4.25-20.272 3.54-5.074-.496-11.43-4.922-18.923-5.706-.498-.047-.995-.08-1.492-.087l-.009.008Z" fill="#C6E0FA"/></g><g clip-path="url(#b)"><path d="M617.626.13c15.754-.576 31.457.838 46.622 3.986 10.941 2.213 22.337.631 33.472.304 12.913-.384 26.248-2.63 38.993-.392 11.338 1.942 11.776 11.146 11.076 18.017-.109 8.5-2.073 16.914-3.346 25.303 2.326 5.433-1.619 19.974-11.708 12.616-2.209-7.79-3.077-18.049-17.423-17.929-7.039-4.458-8.902-13.574-19.404-14.957-7.629 3.692-17.971 5.53-25.052-.375-7.182-5.665-19.143-3.46-23.61 3.068-8.168 8.485-16.336-1.966-24.462-3.843-9.735-2.397-19.269 3.188-29.173 1.55-8.943-.328-18.932-4.275-26.695-.04-6.01 8.7-17.491 2.181-25.659-.352-12.129-4.738-13.47 10.866-24.916 5.833-8.994 1.981-11.927.093-15.097 5.622-1.045 4.498-9.792.854-14.411-8.798-4.611-8.46-.87-7.121 0-8.378 3.709-5.361 1-5.952 8.426-10.042 8.674-5.53 21.115-3.795 31.728-4.37 12.197-.12 24.36.575 36.473-.792 15.096-1.75 29.569-6.024 45.02-5.984 3.051-.056 6.094-.056 9.146-.056V.13Z" fill="#fff"/><path d="M658.793 18.08c9.795-.255 19.809 3.972 28.862 5.617 6.625 1.207 15.324-4.042 22.708-3.148 8.631 1.047 16.386 12.065 24.326 10.619 7.039-1.27 10.832-6.192 13.285-11.673a40.22 40.22 0 0 1-.177 2.54c-.11 8.502-2.082 16.915-3.347 25.304 2.327 5.433-1.618 19.974-11.708 12.616-2.208-7.79-3.076-18.05-17.423-17.93-7.038-4.457-8.901-13.574-19.404-14.964-7.628 3.691-17.971 5.529-25.051-.375-7.182-5.665-19.143-3.46-23.611 3.068-8.167 8.485-16.335-1.966-24.461-3.843-9.736-2.397-19.269 3.188-29.182 1.55-8.943-.328-18.932-4.275-26.695-.04-6.01 8.7-17.491 2.18-25.659-.352-12.129-4.738-13.478 10.866-24.916 5.832-8.994 1.982-10.529-.72-13.69 4.802-1.045 4.498-10.144 2.53-14.763-7.122-3.515-4.746-2.697-6.364-1.757-9.216 1.846-2.66-1.406-2.514 2.739-2.062 4.923 2.085 9.702 11.042 16.032 9.883 2.849-.519 5.985-5.113 7.03-5.113 2.757 0 4.594 3.084 7.57 2.357 5.538-1.342 12.711-6.296 18.384-6.296 4.737 0 9.12 4.866 14.599 3.54 2.849-.688 5.268-2.853 8.109-3.54 9.643-2.341 20.264 3.028 30.278 1.574 2.672-.391 29.047-2.996 31.365-2.756 5.158.535 9.98 2.676 15.138 3.147 7.098.648 12.391-3.291 19.463-3.93a31.684 31.684 0 0 1 1.956-.112v.024Z" fill="#E5EFFB"/><path d="M662.385 20.47c7.51-.104 15.771 4.506 22.843 5.792 5.926 1.079 12.534-3.156 18.654-1.374 6.423 1.87 6.591 7.654 11.893 10.227 3.81 1.845 4.99-4.634 11.624.59 3.802 2.997 4.754 11.762 11.894 10.819 2.689-.36 4.644-2.748 6.254-5.76-.379 2.197-.767 4.394-1.096 6.59 2.327 5.434-1.618 19.975-11.708 12.617-2.208-7.79-3.076-18.05-17.423-17.93-7.038-4.457-8.901-13.574-19.404-14.964-7.628 3.691-17.971 5.529-25.051-.375-7.182-5.665-19.143-3.46-23.611 3.068-8.168 8.485-16.335-1.966-24.461-3.843-9.736-2.397-19.269 3.187-29.182 1.55-8.943-.328-18.932-4.275-26.695-.04-6.01 8.7-17.491 2.18-25.659-.352-12.129-4.738-13.478 10.866-24.916 5.832-8.994 1.982-10.53.103-13.691 5.624-1.045 4.498-9.089 5.434-13.708-4.217-4.611-8.461-5.624-6.256-5.273-8.77 0-5.449 4.128-1.54 5.273-1.257 2.37.974 1.024 5.369 1.9 6.096 3.566 2.916 12.029 4.89 17.306 3.93 4.787-.87 3.649-4.194 6.76-5.704 2.975-1.438 12.601-.104 17.027-1.182 3.135-.76 3.725-3.74 7.569-3.74 6.33 0 10.924 4.786 17.845 3.348 3.118-.647 2.056-2.916 4.324-3.74 4.745-1.725 19.37.52 25.144.984 11.7.942 23.307-1.574 34.872-1.574 7.063 0 12.981 4.25 20.272 3.54 5.074-.496 11.43-4.922 18.923-5.706.498-.047.995-.08 1.492-.087l.009.008Z" fill="#C6E0FA"/></g><g clip-path="url(#c)"><path d="M275.193 4.767c19.783 2.654 40.337 2.628 59.527 1.065 7.164-.585 19.369-4.461 26.858-3.545 9.343 1.144 34.602 3.71 43.555 2.838 12.775-1.249 29.327-6.81 42.829-4.61 6.348 1.039 12.987 1.545 19.604 2.838 10.45 2.043 17.972 5.901 29.036 7.447 14.519 2.025 32.323.655 46.462-1.423 19.078-2.794 54.329-5.378 69.686 2.13 1.576.768 3.722 2.707 2.906 3.903-6.661 9.77-19.716 6.146-26.131 12.415-3.074 3.003 1.475 9.22-5.812 11-9.075 2.218-11.892-8.11-18.151-7.098-5.566.908-6.303 3.492-10.886 4.61-5.421 1.327-6.728-4.915-19.604-1.772-6.94 1.693-11.903 5.09-19.603 6.033-4.561.558-21.929-5.894-26.858-7.099-4.873-1.196-11.4.166-16.698-.357-10.249-1.005-20.174-.49-30.49.357-11.277.917-23.549-.48-34.122-1.772-20.487-2.506-25.281 14.537-42.829 15.969-10.584.864-15.636-7.727-24.678-9.936-4.638-1.135-11.031 1.912-15.971.707-4.761-1.16-8.584-3.623-13.792-4.26-4.18-.507-8.774-.053-13.065-.358-8.305-.576-17.134-2.148-24.678-4.26-5.946-1.66-18.542-5.737-20.331-9.23-4.705-9.184 7.969-17.661 23.225-15.61l.011.018Z" fill="#fff"/><path d="M612.783 11.533c1.576.786 3.678 2.698 2.873 3.877-6.661 9.77-19.716 6.146-26.131 12.415-3.074 3.003 1.475 9.22-5.812 11-9.075 2.218-11.892-8.12-18.151-7.098-5.566.908-6.303 3.492-10.886 4.61-5.421 1.327-6.728-4.915-19.604-1.772-6.94 1.694-11.903 5.09-19.603 6.033-4.561.558-21.929-5.894-26.858-7.098-4.873-1.197-11.4.165-16.698-.358-10.249-1.004-20.174-.49-30.49.358-11.277.916-23.56-.48-34.122-1.773-20.487-2.506-25.281 14.537-42.829 15.969-10.584.864-15.636-7.727-24.678-9.936-4.638-1.135-11.031 1.912-15.971.707-4.761-1.16-8.584-3.623-13.792-4.26-4.18-.507-8.774-.053-13.065-.358-8.305-.576-17.134-2.148-24.678-4.26-5.946-1.66-18.543-5.737-20.331-9.23-1.408-2.75-1.229-5.43.078-7.787 4.013 2.436 8.215 4.916 12.328 6.146 9.601 2.882 23.974-.122 30.11 1.72 3.532 1.057 10.976 4.916 15.055 4.296 5.387-.803 17.469-4.007 22.219-2.576 11.825 3.545 19.28 12.739 32.982 15.48 8.349 1.668 22.264-10.337 27.249-13.323 1.587-.952 9.612-.908 12.183-1.292 15.11-2.261 29.998 4.313 44.449 2.148 8.83-1.328 20.945-3.676 30.11-2.576 10.483 1.257 21.314 5.265 31.54 7.308 5.343 1.065 36.101-9.141 47.322-9.884 15.759-1.047 43.142-.68 55.201-8.494v.008Z" fill="#E5EFFB"/><path d="M614.259 12.528c1.095.9 1.956 2.06 1.397 2.882-6.661 9.77-19.716 6.146-26.131 12.415-3.074 3.003 1.475 9.22-5.812 11-9.075 2.218-11.892-8.12-18.151-7.098-5.566.908-6.303 3.492-10.886 4.61-5.421 1.327-6.728-4.915-19.604-1.772-6.94 1.694-11.903 5.09-19.603 6.033-4.561.558-21.929-5.894-26.858-7.098-4.873-1.197-11.4.166-16.698-.358-10.249-1.004-20.174-.49-30.49.358-11.277.916-23.56-.48-34.122-1.773-20.487-2.506-25.281 14.537-42.829 15.969-10.584.864-15.636-7.727-24.678-9.936-4.638-1.135-11.031 1.912-15.971.707-4.761-1.16-8.584-3.623-13.792-4.26-4.18-.507-8.774-.053-13.065-.358-8.305-.576-17.134-2.148-24.678-4.26-5.946-1.66-18.542-5.737-20.331-9.23-.413-.811-.648-1.614-.804-2.4.693.288 1.385.567 2.134.96 16.218 8.513 36.503 7.3 51.703 9.115 15.212 1.825 14.195 4.252 24.332 3.038 10.137-1.213 7.097-1.213 22.308 5.475 15.212 6.687 17.235 6.687 26.355 1.824 9.12-4.863 20.274-12.162 40.56-10.337 20.274 1.825 30.411.611 49.68-1.213 19.268-1.825 24.331 1.824 39.543 6.076 15.211 4.252 21.291-.611 29.406-4.863 8.114-4.252 9.12 1.825 15.211.611 6.08-1.213 3.04-3.65 14.194-4.26 11.155-.611 10.137 6.076 15.212 2.436 5.074-3.65-1.017-4.252 9.12-5.475 5.845-.698 15.725-5.116 23.337-8.835l.011.018Z" fill="#C6E0FA"/></g><path d="M266.242 7.731c-9.842-1.256-26.714 4.015-31.284 6.285-2.812 1.396-2.952 4.859-.703 5.864 2.812 1.257 8.788 6.703 14.06 6.703 5.273 0 5.826-7.54 16.17-7.54 15.466 0 27.417-5.027 26.011-5.027-1.406 0-14.412-5.028-24.254-6.285ZM597.503 3.806c11.488-1.467 30.339 1.011 36.666 1.85 5.975 0 30.43 6.668 28.823 8.796-3.163 4.19-15.569 4.584-20.739 3.352-14.06-3.352-38.665 1.848-54.483 0-15.392-1.799-29.165-6.42-28.12-7.54 3.515-3.771 28.011-5.201 37.853-6.458Z" fill="#fff"/><defs><clipPath id="a"><path fill="#fff" d="M0 0h264.331v62H0z"/></clipPath><clipPath id="b"><path fill="#fff" transform="matrix(-1 0 0 1 748 0)" d="M0 0h264.331v62H0z"/></clipPath><clipPath id="c"><path fill="#fff" transform="matrix(-1 0 0 1 615.835 0)" d="M0 0h364.861v47.757H0z"/></clipPath></defs></svg>