<svg width="20" height="20" fill="none" xmlns="http://www.w3.org/2000/svg"><mask id="a" style="mask-type:alpha" maskUnits="userSpaceOnUse" x="0" y="0" width="20" height="20"><path fill="#D9D9D9" d="M0 0h20v20H0z"/></mask><g mask="url(#a)"><path fill-rule="evenodd" clip-rule="evenodd" d="M1.374 9.044c5.367-2.309 8.946-3.831 10.737-4.567 5.113-2.1 6.175-2.465 6.867-2.477.153-.002.493.035.714.212.327.262.329.83.292 1.208-.277 2.875-1.476 9.851-2.085 13.071-.259 1.363-.767 1.82-1.259 1.864-1.069.098-1.88-.697-2.916-1.368-1.62-1.049-2.536-1.702-4.109-2.725-1.817-1.183-.639-1.833.397-2.896.271-.278 4.982-4.51 5.073-4.893.011-.048.022-.227-.086-.322-.107-.094-.266-.062-.381-.036-.162.036-2.751 1.726-7.765 5.069-.735.498-1.4.74-1.997.728-.657-.014-1.922-.367-2.862-.669-1.153-.37-2.069-.566-1.99-1.194.042-.327.499-.662 1.37-1.005Z" fill="#fff"/></g></svg>