<svg width="20" height="20" fill="none" xmlns="http://www.w3.org/2000/svg"><path d="m14.59 11.923-.008.062c-1.833-.913-2.024-1.035-2.261-.68-.164.246-.643.804-.787.969-.146.162-.29.175-.538.062-.25-.125-1.053-.387-2.003-1.237-.74-.663-1.236-1.475-1.383-1.725-.244-.422.267-.482.732-1.362.083-.175.04-.313-.021-.437-.063-.125-.56-1.35-.768-1.838-.2-.487-.406-.425-.56-.425-.48-.042-.831-.035-1.14.287-1.345 1.478-1.006 3.003.145 4.625 2.261 2.96 3.466 3.505 5.67 4.261.595.19 1.137.163 1.566.101.479-.076 1.473-.6 1.68-1.188.213-.588.213-1.075.15-1.188-.061-.112-.225-.175-.475-.287Z" fill="#fff"/><path d="M17.1 2.875C10.692-3.32.088 1.173.084 9.91c0 1.747.458 3.45 1.33 4.954L0 20l5.28-1.376c6.587 3.558 14.717-1.167 14.72-8.708a9.828 9.828 0 0 0-2.913-7.009l.013-.032Zm1.235 7.014c-.005 6.36-6.988 10.333-12.51 7.086l-.3-.178-3.125.813.837-3.038-.199-.313C-.398 8.79 3.55 1.64 10.06 1.64a8.221 8.221 0 0 1 5.85 2.425 8.155 8.155 0 0 1 2.425 5.825Z" fill="#fff"/></svg>