<svg width="128" height="55" fill="none" xmlns="http://www.w3.org/2000/svg"><mask id="a" style="mask-type:alpha" maskUnits="userSpaceOnUse" x="0" y="0" width="128" height="55"><path fill="#D9D9D9" d="M0 0h128v55H0z"/></mask><g mask="url(#a)"><g clip-path="url(#b)"><path d="M112.341 29.53c.383-.405.83-.51 1.353-.564.393-.04.981-.584 1.352-.458.598.202 1.176.562 1.734.846.335.17.992-.084 1.283.212.096.097-.074.514-.174.564-.178.09-5.175-.004-5.582-.212-.164-.083-.042-.233.034-.388Z" fill="#fff"/><path d="M112.768 29.205c-.15.079-.292.184-.427.325-.076.155-.198.305-.034.388.407.208 5.404.303 5.582.212.1-.05.269-.467.174-.564a.497.497 0 0 0-.263-.13c-.15.093-.275.177-.326.2-.821.372-2.059.044-2.809-.211-.431-.146-.959.188-1.422.07a1.062 1.062 0 0 1-.475-.29Z" fill="#E5EFFB"/><path d="m112.347 29.525-.006.006c-.076.154-.198.304-.034.388.407.207 5.404.302 5.582.211.082-.04.209-.325.202-.482-.085.03-.156.06-.197.072a3.316 3.316 0 0 1-.527.112c-.419.061-.857.26-1.287.212-.19-.021-.385-.15-.577-.2-.2-.05-.399.027-.6-.024-.183-.047-.307-.219-.491-.25-.216-.036-.446.073-.65.125-.442.113-1.035.142-1.416-.17h.001Z" fill="#C6E0FA"/></g><path d="M37.537 9.217c-5.386.045-9.717 4.466-9.672 9.853.045 5.386 4.466 9.717 9.852 9.672 5.386-.045 9.717-4.466 9.672-9.852-.044-5.386-4.466-9.718-9.852-9.673Zm.135 15.127a5.398 5.398 0 0 1-5.431-5.32 5.364 5.364 0 1 1 10.727-.089c.068 2.962-2.334 5.386-5.296 5.409Z" fill="#F37E60"/><path d="m31.69 6.355-.003-.002h.007a.025.025 0 0 1-.003.002Z" fill="#AA0C0F"/><path d="m49.723 8.805-.398.176-.065.03s-2.985-2.207-3.345-2.31c0 0 .136.258.326.664.237.507.56 1.243.809 1.994.128.386.238.775.306 1.14l-6.38-2.926-7.513.616-4.94 2.977-.952-.436c.615-1.474 1.373-2.904 2.199-4.268.924-1.524 1.945-3.05 3.347-4.18 1.17-.945 2.616-1.47 4.072-1.787.123-.026.245-.053.368-.078C38.697.18 39.86-.003 41.023 0c1.128.004 2.348.02 3.334.639.867.542 1.493 1.426 1.987 2.302.557.99 1.089 1.996 1.66 2.978.56.962 1.083 1.971 1.719 2.886Z" fill="#D31C1F"/><path d="m47.356 10.498-6.38-2.925-7.513.616-4.94 2.977-.952-.437c.615-1.473 1.373-2.903 2.199-4.267.924-1.524 1.945-3.05 3.347-4.18 1.17-.945 2.616-1.47 4.072-1.787.123-.026.245-.053.368-.078a15.83 15.83 0 0 0-1.047.637c-.712.465-1.423.952-1.98 1.594-.557.642-.952 1.462-.922 2.31.019.518.248 1.083.732 1.27.172.066.36.078.544.079.734.003 1.46-.154 2.193-.192.586-.03 1.173.016 1.757.076 2.885.3 5.873 1.028 8.016 2.979.068.061.134.124.2.189.128.386.237.775.306 1.14Z" fill="#AA0C0F"/><path d="M49.26 9.01s-2.985-2.207-3.345-2.31c0 0 .136.259.325.664a11.528 11.528 0 0 1-.203-.178c-.7-.633-1.315-1.354-2.027-1.974a6.107 6.107 0 0 0-1.316-.902 9.063 9.063 0 0 0-.769-.32l-1.963-.746c.425-.189.917-.177 1.367-.059.45.118.867.334 1.279.549.658.344 1.325.691 1.88 1.185.36.319.678.701 1.107.919.063.032.139.06.202.029.11-.054.08-.217.027-.327-.264-.542-.685-.989-1.047-1.47-.362-.483-.677-1.042-.67-1.644.535.302.93.797 1.29 1.295.345.477.672.967.96 1.48.187.333.358.676.586.981.151.204.327.39.5.576a32.72 32.72 0 0 1 1.882 2.223l-.066.03V9.01Z" fill="#AA0C0F"/><path d="M48.03 16.51a.994.994 0 0 1-.259.31c-.072.055-.178.02-.21-.064-.297-.79-2.043-4.48-8.747-4.985 0 0-10.148-.098-10.804 5.685a.157.157 0 0 1-.273.088c-.723-.795-2.714-3.287-1.35-5.285 0 0 2.227-4.398 8.28-5.496.62-.113 1.282-.191 1.986-.226 7.744-.385 11.19 3.823 11.603 4.644.352.703.46 4.128-.226 5.328Z" fill="#fff"/><path d="M48.03 16.51a.996.996 0 0 1-.259.31.138.138 0 0 1-.21-.064c-.297-.79-2.043-4.48-8.747-4.985 0 0-10.148-.098-10.804 5.684a.157.157 0 0 1-.273.09c-.723-.796-2.714-3.288-1.35-5.286 0 0 2.227-4.398 8.28-5.497-.038.208-.148.456-.17.64-.038.297-.04.599-.011.897a3.96 3.96 0 0 0 .649 1.824c.288.426.671.802 1.145 1.003.559.238 1.188.215 1.796.225 2.132.032 4.257.51 6.197 1.393 1.004.458 1.973 1.034 2.71 1.853.491.544.87 1.207 1.047 1.912Z" fill="#E0E1DE"/><path d="M37.604 16.534a2.467 2.467 0 0 0-2.423 2.468 2.467 2.467 0 0 0 2.468 2.424 2.467 2.467 0 0 0 2.424-2.468c0-1.347-1.122-2.424-2.469-2.424Z" fill="#F37E60"/><path d="M42.025 35.475h-6.8v-5.588H30.78v15.597h4.444v-5.61h6.8v5.61H46.4V29.887h-4.376v5.588ZM16.823 27.081H21.2V15.905h5.61v-4.421H11.213v4.421h5.61v11.176Z" fill="#003C56"/><g clip-path="url(#c)"><path d="M22.188 9.703c.71.067 1.738.24 2.465.213 1.377.001 1.631.79 3.577.72 1.444-.051 3.976-1.837 5.651-1.419.838.42-1.46 2.049-1.676 2.095-.426.09-.464.079-.774.256-.554.316-.542.767-1.32 1-.608.184-.867-.06-2.096.42-1.24.485-1.6 1.976-3.77 1.676-1.309-.182-1.32-.917-2.413-1.162-.44-.1-1.195.157-1.636.058-.574-.129-.65-.53-1.335-.684-.237-.053-.926.104-1.063.038-.204-.098-.544-.14-.827-.229-.936-.29-1.71-.484-2.807-.588-.726-.07-1.437-.067-2.138-.225-.137-.03-1.41-.29-1.082-.477.549-.314 1.725-.352 2.521-.52.22-.047.438-.176.647-.239.337-.101.743-.114 1.058-.21l1.459-.44c1.776-.066 3.792-.366 5.561-.284l-.002.001Z" fill="#fff"/><path d="M33.043 10.055c.838-.418 1.136-1.088 1.257-.838.231.479-1.178 2.295-1.395 2.34-.425.091-1.164-.167-1.474.01-.554.317-.159 1.047-.938 1.281-.608.183-1.226-.392-2.454.088-1.241.485-1.369 2.148-3.539 1.847-1.309-.181-1.575-1.037-2.668-1.282-.44-.099-1.195.158-1.636.059-.574-.13-.65-.53-1.336-.684-.237-.054-.925.104-1.063.038-.204-.099-.544-.141-.827-.23-.936-.29-1.71-.483-2.807-.587-.726-.07-1.437-.068-2.138-.225-.137-.03-1.41-.29-1.082-.478.213-.121.52-.2.861-.263 1.194.478 2.986.51 4.484.457 1.175-.042 1.667.15 2.734.298.98.136 1.594-.369 2.718-.157 1.034.194 1.674.825 2.813.904 1.318.09 1.716-.563 2.754-.738.716-.12 1.445.289 2.144.015.472-.184.502-.78 1.011-.887 1.008-.214.913-.045 1.682.061.825.114.06-.61.899-1.029Z" fill="#E5EFFB"/><path d="M11.162 11.296c.357.176.832.245 1.303.324.626.103 1.322.184 1.978.218.381.02.789-.025 1.16.02.702.085 1.077.345 1.64.534.358.12.547-.095.893-.138.37-.046.823.062 1.135.142.281.072 1.148.635 1.498.57.275-.051.56-.56.88-.488.206.046.305.186.416.274.602.479 1.333 1.351 2.681 1.258 1.006-.069 1.957-.565 2.338-1.056.151-.196.276-.49.615-.63.266-.112 1.401.095 1.884.024.844-.126.508-.894 1.207-1.078.658-.173 1.37.146 1.976.188a.983.983 0 0 0 .38-.062c-.108.087-.2.154-.24.162-.426.091-1.165-.167-1.474.01-.554.317-.16 1.047-.938 1.28-.608.184-1.226-.392-2.455.088-1.24.485-1.368 2.148-3.538 1.848-1.309-.182-1.575-1.037-2.668-1.282-.44-.1-1.195.158-1.636.058-.575-.129-.651-.53-1.336-.684-.237-.053-.925.104-1.063.038-.204-.098-.544-.14-.827-.228-.937-.291-1.71-.484-2.807-.589-.727-.069-1.437-.067-2.138-.224-.137-.031-1.41-.29-1.082-.478.064-.037.138-.07.22-.1h-.002Z" fill="#C6E0FA"/></g><path d="m110.407 22.75-3.95 4.945 3.419 2.731 3.95-4.945-3.419-2.73ZM23.42 36.552l4.556-6.688H13.95v4.354h5.745l-4.04 5.948 3.636 2.468 1.594-2.356a5.244 5.244 0 0 1 4.017 5.094 5.258 5.258 0 0 1-5.252 5.252 5.258 5.258 0 0 1-5.251-5.252H10C10 50.692 14.331 55 19.628 55c5.319 0 9.628-4.331 9.628-9.628.022-3.927-2.402-7.339-5.835-8.82Z" fill="#003C56"/><path d="m112.876 29.887-6.801 8.506v-8.506h-4.421v15.597h4.421l6.801-8.55v8.55h4.376V29.887h-4.376ZM87.74 27.463c2.065 0 3.995-.943 5.476-2.514v2.133h4.376V11.484h-4.376v1.234a6.635 6.635 0 0 0-2.177-1.279 6.558 6.558 0 0 0-2.087-.337c-3.254 0-6.239 2.357-7.428 5.836-1.482 4.309.381 8.887 4.151 10.188a6.223 6.223 0 0 0 2.065.337Zm-2.132-9.246c.561-1.616 1.93-2.693 3.434-2.693.336 0 .65.045.965.157 1.728.606 2.603 2.693 1.907 4.69-.56 1.616-1.93 2.693-3.433 2.693-.337 0-.651-.044-.965-.157-1.728-.606-2.604-2.715-1.908-4.69ZM54.212 45.843c2.064 0 3.994-.942 5.476-2.513v2.132h4.376V29.864h-4.376V31.1a6.635 6.635 0 0 0-2.177-1.28 6.557 6.557 0 0 0-2.087-.336c-3.255 0-6.24 2.356-7.429 5.835-1.481 4.309.382 8.887 4.152 10.189.65.224 1.37.336 2.065.336Zm-2.132-9.246c.56-1.616 1.93-2.693 3.434-2.693.336 0 .65.045.964.157 1.728.606 2.604 2.693 1.908 4.69-.561 1.617-1.93 2.694-3.434 2.694-.336 0-.65-.045-.965-.157-1.728-.606-2.58-2.716-1.907-4.69ZM95.146 29.887l-6.8 8.506v-8.506h-4.421v15.597h4.398l6.823-8.55v8.55h4.376V29.887h-4.376ZM59.688 11.506v4.22c0 1.974-1.481 3.5-3.411 3.5-1.908 0-3.412-1.548-3.412-3.5v-4.242h-4.42v4.242c0 4.353 3.5 7.9 7.81 7.9a7.782 7.782 0 0 0 3.41-.786v4.264h4.377V11.506h-4.354Z" fill="#003C56"/><path d="M81.435 11.484h-5.297l-3.658 5.364h-1.907v-5.364h-4.377V27.08h4.377v-5.835h2.334l3.972 5.835h5.296l-5.678-8.348 4.938-7.25ZM77.44 35.475h-6.822v-5.588h-4.422v15.597h4.422v-5.61h6.822v5.61h4.354V29.887H77.44v5.588Z" fill="#003C56"/><g clip-path="url(#d)"><path d="M107.663 24.87c.831-.332 1.21-1.304 1.938-1.815 1.945-1.363 1.192 1.636 1.155 1.668-.388.329-.998.008-1.434.376-.453.384-.787.922-1.2 1.325-.264.257-.632.297-.896.555-.268.262-.466.788-.84.886-.471.123-.015-.796-.033-.903-.231-1.35.686-1.428 1.31-2.093Z" fill="#fff"/><path d="M106.272 27.247c.159-.006.307.028.46-.07.284-.182.293-.655.606-.855.386-.247.784-.472 1.164-.793.273-.232.355-.825.572-1.056.494-.527 1.45-1.062 1.079-1.72 1.234-.431.636 1.942.603 1.97-.389.33-.999.008-1.434.377-.454.383-.788.921-1.2 1.324-.265.258-.633.298-.896.556-.268.261-.467.787-.84.885-.324.085-.21-.32-.113-.619h-.001Z" fill="#E5EFFB"/><path d="M106.19 27.542c.21-.01.44-.06.604-.206.385-.345.59-.747 1.183-1.077.593-.33 1.103-.95 1.231-1.402.127-.452.516-.38 1.191-.835.381-.257.374-.804.296-1.23.474.391.087 1.91.061 1.932-.389.329-.999.008-1.434.377-.454.383-.788.921-1.2 1.324-.265.258-.633.298-.896.555-.268.262-.467.788-.84.886-.221.058-.237-.114-.195-.323h-.001Z" fill="#C6E0FA"/></g><g clip-path="url(#e)"><path d="M57.16 28.99c-2.544.28-5.188.277-7.656.113-.921-.062-2.49-.47-3.454-.373-1.201.12-4.45.39-5.601.298-1.643-.131-3.772-.716-5.508-.485-.817.11-1.67.163-2.521.299-1.344.215-2.312.621-3.735.784-1.867.213-4.156.069-5.975-.15-2.453-.294-6.987-.566-8.962.224-.202.081-.478.285-.373.411.856 1.029 2.535.647 3.36 1.307.395.316-.19.97.748 1.158 1.167.234 1.529-.854 2.334-.747.716.095.81.367 1.4.485.697.14.865-.517 2.521-.186.893.178 1.53.535 2.521.635.587.059 2.82-.62 3.454-.747.627-.126 1.466.017 2.148-.038 1.318-.106 2.594-.052 3.92.038 1.451.096 3.03-.051 4.389-.187 2.635-.264 3.251 1.53 5.508 1.68 1.361.092 2.01-.813 3.174-1.045.596-.12 1.418.201 2.054.075.612-.123 1.104-.382 1.773-.45.538-.052 1.129-.005 1.68-.037a19.712 19.712 0 0 0 3.174-.448c.765-.175 2.385-.604 2.615-.972.605-.967-1.025-1.86-2.987-1.643l-.001.002Z" fill="#fff"/><path d="M13.744 29.703c-.203.082-.473.284-.37.408.857 1.028 2.536.647 3.361 1.307.395.316-.19.97.747 1.158 1.168.233 1.53-.855 2.335-.747.715.095.81.367 1.4.485.697.14.865-.517 2.52-.187.893.179 1.532.536 2.522.636.586.058 2.82-.62 3.454-.748.627-.126 1.466.018 2.147-.037 1.319-.106 2.595-.052 3.922.037 1.45.097 3.03-.05 4.388-.186 2.634-.264 3.251 1.53 5.508 1.68 1.361.092 2.01-.813 3.174-1.045.596-.12 1.418.201 2.054.074.612-.122 1.103-.381 1.773-.448.538-.054 1.129-.006 1.68-.038a19.723 19.723 0 0 0 3.174-.448c.765-.175 2.385-.604 2.615-.972a.706.706 0 0 0-.01-.82c-.516.257-1.057.518-1.586.647-1.234.303-3.083-.013-3.872.181-.454.111-1.411.518-1.936.453-.693-.085-2.247-.422-2.858-.272-1.52.373-2.479 1.341-4.241 1.63-1.074.175-2.864-1.088-3.505-1.403-.204-.1-1.236-.095-1.566-.136-1.944-.238-3.858.454-5.717.227-1.135-.14-2.693-.387-3.872-.272-1.348.133-2.741.555-4.056.77-.687.112-4.643-.963-6.086-1.04-2.027-.111-5.548-.073-7.1-.895Z" fill="#E5EFFB"/><path d="M13.555 29.808c-.141.094-.252.216-.18.303.857 1.028 2.536.647 3.36 1.307.396.316-.19.97.748 1.158 1.167.233 1.53-.855 2.334-.747.716.095.811.367 1.4.485.698.14.866-.518 2.521-.187.893.179 1.531.536 2.522.635.586.06 2.82-.62 3.454-.747.626-.126 1.466.018 2.147-.038 1.318-.105 2.595-.051 3.921.038 1.45.097 3.03-.05 4.389-.186 2.634-.264 3.25 1.53 5.508 1.68 1.36.092 2.01-.813 3.173-1.045.597-.12 1.419.201 2.054.074.613-.122 1.104-.381 1.774-.448.538-.054 1.128-.006 1.68-.038a19.72 19.72 0 0 0 3.174-.449c.765-.174 2.385-.603 2.614-.971a.844.844 0 0 0 .104-.253c-.09.03-.178.06-.275.101-2.085.896-4.694.769-6.649.96-1.956.192-1.825.447-3.129.32-1.304-.128-.913-.128-2.869.576-1.956.704-2.216.704-3.39.192-1.172-.512-2.607-1.28-5.215-1.088-2.608.192-3.912.064-6.39-.128-2.478-.192-3.129.192-5.085.64-1.956.447-2.738-.065-3.782-.512-1.043-.448-1.173.192-1.956.064-.782-.128-.39-.384-1.825-.448-1.435-.065-1.304.64-1.957.256-.652-.384.131-.448-1.173-.576-.751-.074-2.022-.539-3-.93l-.002.002Z" fill="#C6E0FA"/></g><g clip-path="url(#f)"><path d="M62.551 28.99c2.544.28 5.188.277 7.656.113.921-.062 2.49-.47 3.454-.373 1.201.12 4.45.39 5.601.298 1.643-.131 3.772-.716 5.508-.485.817.11 1.67.163 2.521.299 1.344.215 2.312.621 3.734.784 1.868.213 4.157.069 5.976-.15 2.453-.294 6.987-.566 8.962.224.202.081.478.285.373.411-.856 1.029-2.535.647-3.36 1.307-.396.316.189.97-.748 1.158-1.167.234-1.529-.854-2.334-.747-.716.095-.81.367-1.4.485-.697.14-.865-.517-2.521-.186-.893.178-1.53.535-2.521.635-.587.059-2.82-.62-3.454-.747-.627-.126-1.466.017-2.148-.038-1.318-.106-2.594-.052-3.92.038-1.451.096-3.03-.051-4.39-.187-2.634-.264-3.25 1.53-5.507 1.68-1.361.092-2.011-.813-3.174-1.045-.596-.12-1.418.201-2.054.075-.612-.123-1.104-.382-1.774-.45-.537-.052-1.128-.005-1.68-.037a19.709 19.709 0 0 1-3.173-.448c-.765-.175-2.385-.604-2.615-.972-.605-.967 1.025-1.86 2.987-1.643l.001.002Z" fill="#fff"/><path d="M105.967 29.703c.203.082.473.284.37.408-.857 1.028-2.536.647-3.361 1.307-.395.316.19.97-.747 1.158-1.168.233-1.53-.855-2.335-.747-.716.095-.81.367-1.4.485-.697.14-.865-.517-2.52-.187-.894.179-1.532.536-2.522.636-.587.058-2.82-.62-3.454-.748-.627-.126-1.466.018-2.148-.037-1.317-.106-2.594-.052-3.92.037-1.45.097-3.03-.05-4.389-.186-2.635-.264-3.251 1.53-5.508 1.68-1.361.092-2.01-.813-3.174-1.045-.596-.12-1.418.201-2.054.074-.612-.122-1.104-.381-1.773-.448-.538-.054-1.129-.006-1.68-.038a19.72 19.72 0 0 1-3.174-.448c-.765-.175-2.385-.604-2.615-.972a.706.706 0 0 1 .01-.82c.516.257 1.057.518 1.586.647 1.234.303 3.083-.013 3.872.181.454.111 1.411.518 1.936.453.693-.085 2.247-.422 2.858-.272 1.52.373 2.479 1.341 4.241 1.63 1.074.175 2.863-1.088 3.504-1.403.205-.1 1.237-.095 1.567-.136 1.944-.238 3.858.454 5.717.227 1.135-.14 2.693-.387 3.872-.272 1.348.133 2.741.555 4.056.77.687.112 4.643-.963 6.086-1.04 2.027-.111 5.548-.073 7.099-.895Z" fill="#E5EFFB"/><path d="M106.156 29.808c.141.094.252.216.18.303-.857 1.028-2.536.647-3.361 1.307-.395.316.19.97-.747 1.158-1.167.233-1.53-.855-2.334-.747-.716.095-.811.367-1.4.485-.698.14-.866-.518-2.522-.187-.892.179-1.53.536-2.52.635-.587.06-2.82-.62-3.455-.747-.626-.126-1.466.018-2.147-.038-1.318-.105-2.595-.051-3.921.038-1.45.097-3.03-.05-4.389-.186-2.634-.264-3.25 1.53-5.508 1.68-1.36.092-2.01-.813-3.173-1.045-.597-.12-1.419.201-2.054.074-.613-.122-1.104-.381-1.774-.448-.538-.054-1.128-.006-1.68-.038a19.72 19.72 0 0 1-3.174-.449c-.765-.174-2.385-.603-2.615-.971a.844.844 0 0 1-.103-.253c.089.03.178.06.274.101 2.086.896 4.695.769 6.65.96 1.956.192 1.825.447 3.129.32 1.304-.128.913-.128 2.869.576 1.956.704 2.216.704 3.39.192 1.172-.512 2.607-1.28 5.215-1.088 2.608.192 3.911.064 6.39-.128 2.477-.192 3.129.192 5.085.64 1.956.447 2.738-.065 3.782-.512 1.043-.448 1.172.192 1.956.064.782-.128.39-.384 1.825-.448 1.435-.065 1.304.64 1.957.256.652-.384-.131-.448 1.173-.576.751-.074 2.022-.539 3.001-.93l.001.002Z" fill="#C6E0FA"/></g><g clip-path="url(#g)"><path d="M72.893 7.564a46.888 46.888 0 0 0-9.606.7c-2.254.39-4.602.111-6.897.054-2.66-.068-5.408-.462-8.034-.07-2.336.342-2.47 1.438-2.326 2.645.023 1.493.157 1.04.42 2.513.148.838.434 3.807 2.513 2.514.838-.838.396-1.697 3.352-1.676 1.45-.783 2.285-1.703 4.449-1.945 1.572.648 3.703.97 5.161-.066 1.48-.996 3.945-.608 4.865.539 1.683 1.49 3.366-.346 5.04-.676 2.006-.42 3.97.56 6.011.273 1.843-.058 3.901-.751 5.5-.007 1.24 1.528 3.605.383 5.288-.062 2.499-.833 2.775 1.909 5.134 1.025 1.853.348 2.174 1.695 2.827 2.667.215.79 1.662 2.92 2.614 1.224.95-1.487 1.778-3.138.952-4.725-.764-.942-.52-2.242-2.05-2.96-1.787-.972-4.35-.667-6.537-.768-2.513-.021-5.02.1-7.515-.14-3.11-.307-6.093-1.058-9.276-1.05-.629-.01-1.256-.01-1.885-.01Z" fill="#fff"/><path d="M64.411 10.718c-2.018-.045-4.081.697-5.946.986-1.366.212-3.158-.71-4.68-.553-1.778.184-3.376 2.12-5.012 1.866-1.45-.223-2.232-1.088-2.737-2.051.007.153.02.303.037.446.022 1.494.429 2.972.69 4.446-.48.954.333 3.51 2.412 2.216.455-1.368.633-3.17 3.59-3.15 1.45-.783 1.834-2.384 3.998-2.629 1.571.649 3.702.972 5.161-.066 1.48-.995 3.945-.607 4.865.54 1.683 1.49 3.366-.346 5.04-.676 2.006-.42 3.97.56 6.013.273 1.843-.058 3.9-.751 5.5-.008 1.239 1.53 3.604.384 5.287-.061 2.5-.833 2.777 1.909 5.134 1.024 1.853.349 2.176 1.696 2.828 2.666.215.79 1.662 2.92 2.614 1.224.95-1.486 1.778-3.137.951-4.725-.38-.467-.51-1.023-.733-1.554-1.014.367-1.999 1.94-3.303 1.737-.587-.091-1.233-.899-1.448-.899-.568 0-.947.542-1.56.415-1.141-.236-2.62-1.107-3.788-1.107-.976 0-1.88.855-3.008.622-.587-.12-1.086-.5-1.671-.622-1.987-.41-4.175.532-6.239.277-.55-.069-5.985-.527-6.462-.484-1.063.094-2.056.47-3.12.553-1.462.113-2.552-.579-4.01-.691a7.663 7.663 0 0 0-.403-.02v.005Z" fill="#E5EFFB"/><path d="M63.671 11.137c-1.547-.018-3.25.792-4.706 1.018-1.221.19-2.583-.554-3.844-.241-1.323.328-1.358 1.344-2.45 1.796-.785.325-1.029-.814-2.396.104-.783.527-.98 2.066-2.45 1.9-.554-.062-.957-.482-1.289-1.011.078.386.158.772.226 1.158-.48.954.333 3.51 2.412 2.216.455-1.368.634-3.17 3.59-3.15 1.45-.783 1.834-2.384 3.998-2.629 1.572.649 3.703.972 5.162-.066 1.48-.995 3.944-.607 4.865.54 1.683 1.49 3.366-.346 5.04-.676 2.006-.421 3.97.56 6.013.272 1.843-.057 3.9-.75 5.5-.007 1.239 1.53 3.604.384 5.287-.061 2.5-.833 2.777 1.909 5.134 1.024 1.853.348 2.176 1.696 2.828 2.666.215.79 1.662 2.92 2.613 1.224.95-1.486 1.779-3.137.952-4.725a2.58 2.58 0 0 1-.332-.556c-.524.04-.627.82-.807.948-.735.512-2.479.859-3.566.69-.986-.153-.752-.736-1.393-1.002-.613-.253-2.596-.018-3.508-.208-.646-.133-.768-.657-1.56-.657-1.304 0-2.25.841-3.676.589-.643-.114-.424-.513-.891-.657-.978-.303-3.992.09-5.181.172-2.411.166-4.803-.276-7.185-.276-1.456 0-2.675.747-4.177.622-1.046-.087-2.355-.865-3.9-1.003a4.521 4.521 0 0 0-.307-.015l-.002.001Z" fill="#C6E0FA"/></g></g><defs><clipPath id="b"><path fill="#fff" transform="translate(112.226 28.489)" d="M0 0h5.865v1.676H0z"/></clipPath><clipPath id="c"><path fill="#fff" transform="scale(-1 1) rotate(2.043 -275.657 -961.731)" d="M0 0h23.643v5.264H0z"/></clipPath><clipPath id="d"><path fill="#fff" transform="scale(-1 1) rotate(57.192 -74.553 -89.212)" d="M0 0h6.679v2.949H0z"/></clipPath><clipPath id="e"><path fill="#fff" transform="translate(13.352 28.489)" d="M0 0h46.923v5.027H0z"/></clipPath><clipPath id="f"><path fill="#fff" transform="matrix(-1 0 0 1 106.359 28.489)" d="M0 0h46.923v5.027H0z"/></clipPath><clipPath id="g"><path fill="#fff" transform="translate(46.03 7.541)" d="M0 0h54.464v10.893H0z"/></clipPath></defs></svg>