<svg width="187" height="80" fill="none" xmlns="http://www.w3.org/2000/svg"><path d="M48.012 0C38.62.08 31.069 7.805 31.147 17.217c.078 9.412 7.787 16.98 17.178 16.902 9.391-.078 16.943-7.804 16.865-17.216C65.112 7.492 57.403-.078 48.012.002Zm.235 26.432c-5.165.039-9.391-4.118-9.47-9.294-.039-5.177 4.109-9.412 9.274-9.451 5.165-.04 9.391 4.117 9.43 9.294.118 5.176-4.07 9.412-9.234 9.45Z" fill="#fff"/><path d="M48.13 12.785a4.306 4.306 0 0 0-4.227 4.314 4.305 4.305 0 0 0 4.305 4.235 4.306 4.306 0 0 0 4.226-4.314c0-2.353-1.957-4.235-4.305-4.235ZM55.838 45.883H43.98v-9.765h-7.747v27.255h7.747v-9.804h11.857v9.804h7.63V36.118h-7.63v9.765ZM11.895 31.216h7.63v-19.53h9.783V3.962H2.113v7.726h9.782v19.53ZM175.065 23.648l-6.887 8.64 5.962 4.772 6.886-8.64-5.961-4.772ZM23.4 47.765l7.943-11.686H6.887v7.607h10.017L9.861 54.078l6.339 4.314 2.778-4.117c4.03.98 7.004 4.588 7.004 8.901 0 5.06-4.109 9.177-9.156 9.177-5.048 0-9.157-4.118-9.157-9.176H0C0 72.47 7.552 80 16.787 80c9.273 0 16.786-7.569 16.786-16.824.04-6.862-4.187-12.823-10.174-15.411Z" fill="#fff"/><path d="m179.37 36.118-11.857 14.863V36.118h-7.708v27.255H167.513l11.857-14.941v14.94H187V36.119h-7.63ZM135.545 31.883c3.599 0 6.965-1.647 9.547-4.392v3.725h7.63V3.961h-7.63v2.157c-1.095-.98-2.387-1.725-3.795-2.235a11.41 11.41 0 0 0-3.639-.588c-5.674 0-10.878 4.117-12.952 10.196-2.583 7.53.665 15.529 7.239 17.803 1.095.393 2.347.589 3.6.589Zm-3.718-16.157c.978-2.824 3.365-4.706 5.987-4.706.587 0 1.135.079 1.683.275 3.013 1.058 4.539 4.705 3.326 8.196-.979 2.823-3.365 4.706-5.987 4.706a4.888 4.888 0 0 1-1.683-.275c-3.013-1.059-4.539-4.745-3.326-8.196ZM77.085 64c3.6 0 6.965-1.647 9.548-4.392v3.726h7.63V36.079h-7.63v2.157c-1.096-.98-2.387-1.726-3.796-2.235a11.408 11.408 0 0 0-3.639-.589c-5.674 0-10.878 4.118-12.952 10.196-2.582 7.53.666 15.53 7.24 17.804 1.134.392 2.386.588 3.6.588Zm-3.717-16.157c.978-2.823 3.365-4.705 5.987-4.705.587 0 1.135.078 1.682.274 3.013 1.059 4.54 4.706 3.326 8.196-.978 2.824-3.365 4.706-5.987 4.706a4.885 4.885 0 0 1-1.682-.275c-3.013-1.058-4.5-4.745-3.326-8.196ZM148.457 36.118l-11.856 14.863V36.118h-7.708v27.255h7.669l11.895-14.941v14.94h7.631V36.119h-7.631ZM86.633 4v7.373c0 3.451-2.583 6.118-5.948 6.118-3.326 0-5.947-2.706-5.947-6.118V3.961h-7.709v7.412c0 7.608 6.104 13.804 13.617 13.804 2.152 0 4.187-.51 5.948-1.373v7.451h7.63V4.001h-7.591Z" fill="#fff"/><path d="M124.549 3.961h-9.234l-6.378 9.373h-3.326V3.96h-7.63v27.255h7.63V21.02h4.069l6.926 10.196h9.235l-9.9-14.588 8.608-12.667ZM117.584 45.883h-11.895v-9.765H97.98v27.255h7.709v-9.804h11.895v9.804h7.591V36.118h-7.591v9.765Z" fill="#fff"/></svg>