<svg width="128" height="40" fill="none" xmlns="http://www.w3.org/2000/svg"><g clip-path="url(#a)" fill="#fff"><path d="M17.105 40c3.043 0 5.51-.516 5.51-1.153 0-.636-2.467-1.152-5.51-1.152-3.043 0-5.51.516-5.51 1.152 0 .637 2.467 1.153 5.51 1.153Z" fill-opacity=".5"/><path d="M17.105 9.222C10.56 9.222 5.28 14.64 5.28 21.211c0 9.913 10.447 16.023 10.906 16.484.46.461 1.263.461 1.722 0 .46-.346 10.906-6.57 10.906-16.484 0-6.57-5.28-11.989-11.71-11.989Zm0 18.675c-3.56 0-6.544-2.997-6.544-6.686s2.985-6.686 6.544-6.686c3.558 0 6.543 2.997 6.543 6.686s-2.985 6.686-6.543 6.686Z"/><path fill-rule="evenodd" clip-rule="evenodd" d="M2.87 8.991c.23 0 .344.23.344.461 0 .346-.23.577-.459.577-.23 0-.46-.23-.46-.577 0-.23.116-.46.345-.46v-.923h.345l-.115.922ZM4.362 22.594 2.755 10.72 1.263 22.595h3.1Z"/><path fill-rule="evenodd" clip-rule="evenodd" d="M2.295 9.798c.115.115.23.23.345.23.115 0 .23-.115.344-.23v1.153h-.803V9.798h.114Z"/><path d="M49.364 39.077c-1.952 0-3.559-.46-4.592-1.383-1.033-.922-1.607-2.19-1.722-3.92h3.214c0 .462.115.923.23 1.269.23.345.344.691.688.922.23.23.575.346 1.034.46.344.116.803.116 1.262.116.804 0 1.378-.23 1.837-.691.46-.462.69-1.038.69-1.73 0-.46-.116-.691-.23-1.037-.115-.23-.345-.461-.575-.692-.344 0-.688-.115-1.033-.115-.344 0-.689-.115-1.033-.115h-1.148v-2.19h.919c1.721 0 2.64-.692 2.64-1.96 0-.576-.23-1.038-.574-1.383-.344-.346-.918-.462-1.607-.462-.804 0-1.378.231-1.952.577-.46.346-.689.922-.803 1.614h-2.985c0-.807.23-1.499.459-2.075.344-.577.689-1.038 1.263-1.499.574-.346 1.148-.691 1.837-.807.688-.23 1.377-.23 2.18-.23.69 0 1.378.115 2.067.346.689.23 1.148.46 1.607.806a3.6 3.6 0 0 1 1.033 1.268c.23.462.46 1.038.46 1.614 0 .692-.23 1.384-.574 1.96-.46.576-.919.922-1.608 1.038l1.034.345c.344.23.688.461.918.692.23.23.46.576.574 1.037.115.346.23.807.23 1.268 0 .692-.115 1.384-.46 1.96a3.743 3.743 0 0 1-1.148 1.499c-.459.46-1.148.806-1.836 1.037-.69.346-1.378.461-2.296.461Zm7.691-14.985h3.215v5.648h5.854v-5.648h3.215v14.64h-3.215v-6.34H60.27v6.34h-3.215v-14.64Zm18.942 0h3.214l5.396 14.64h-3.33l-1.147-3.228h-5.396l-1.148 3.227h-3.214c.115 0 5.625-14.64 5.625-14.64Zm3.444 8.99-1.837-5.417-1.951 5.418h3.788Zm6.314-8.99h3.214v5.648h5.855v-5.648h3.214v14.64h-3.214v-6.34h-5.855v6.34h-3.214v-14.64Zm14.924 0h3.214v10.144h.115l5.51-10.144h3.559v14.64h-3.215V28.586h-.114l-5.511 10.144h-3.558v-14.64Zm15.038 0h3.214v10.144h.115l5.511-10.144h3.558v14.64h-3.214V28.586h-.115l-5.51 10.144h-3.559v-14.64Zm6.314-1.268c-2.64 0-3.903-1.038-3.903-3.113h2.411c0 .461.114.807.344 1.038.23.23.689.46 1.148.46.574 0 1.033-.114 1.263-.345.229-.23.344-.576.344-1.038h2.411c-.115 1.96-1.378 2.998-4.018 2.998ZM46.035 8.645H43.05v-.922h7.117v1.038h-2.985v7.954h-1.147v-8.07Zm8.839 8.185c-.689 0-1.378-.115-1.837-.346a3.136 3.136 0 0 1-1.377-1.038c-.345-.46-.574-.922-.804-1.498-.23-.576-.23-1.153-.23-1.73 0-.575.115-1.152.23-1.728.23-.577.46-1.038.804-1.499a3.136 3.136 0 0 1 1.377-1.037 4.742 4.742 0 0 1 1.837-.346c.689 0 1.378.115 1.837.346.574.23 1.033.576 1.377 1.037.345.461.574.922.804 1.499.23.576.23 1.152.23 1.729 0 .576-.115 1.153-.23 1.729-.23.576-.46 1.037-.804 1.498a3.136 3.136 0 0 1-1.377 1.038 4.743 4.743 0 0 1-1.837.346Zm0-1.038c.574 0 1.033-.115 1.378-.345.344-.231.688-.462.918-.807.23-.346.46-.692.574-1.153.115-.461.23-.922.23-1.383 0-.461-.115-.923-.23-1.384-.115-.46-.344-.807-.574-1.152-.23-.346-.574-.577-.918-.807-.345-.23-.804-.346-1.378-.346-.574 0-1.033.115-1.378.346-.344.23-.688.46-.918.807-.23.345-.46.691-.574 1.152-.115.461-.23.922-.23 1.384 0 .46.115.922.23 1.383.115.461.345.807.574 1.153.23.345.574.576.918.806.345.346.804.346 1.378.346Zm10.676-2.997c-.114 0-.23.116-.459.116-.23 0-.344.115-.574.115-.23 0-.46.115-.689.115h-.689c-.688 0-1.262-.115-1.607-.23-.459-.116-.688-.346-.918-.692-.23-.23-.344-.576-.46-.922-.114-.346-.114-.692-.114-1.038V7.723h1.148v3.343c0 .23.115.461.23.576.114.231.344.346.574.462.23.115.574.23 1.033.23.574 0 1.033 0 1.377-.115.345-.115.69-.23.919-.346v-4.15h1.148v8.992H65.32l.23-3.92Zm2.985-5.072h1.148v4.38l4.477-4.38h1.607l-4.247 4.035 4.362 4.957H74.39L70.6 12.449l-.918.807V16.6h-1.148V7.723Zm10.561 0h1.263l3.444 8.992H82.54l-.918-2.652h-3.788l-.919 2.536h-1.263l3.444-8.876Zm2.182 5.188-1.493-4.15-1.492 4.15h2.985Z"/><path fill-rule="evenodd" clip-rule="evenodd" d="M16.876 5.187h.459v5.303h-.459V5.187Z"/><path d="M17.105 0 0 7.378l8.38 3.688V7.84c.115 0 .23.115.23.115 5.51-3.228 11.365-3.112 16.646.115.114 0 .459-.346.574-.23v2.881l8.38-3.342C34.21 7.262 17.105 0 17.105 0Z"/><path fill-rule="evenodd" clip-rule="evenodd" d="M17.104 5.187v5.418a15.016 15.016 0 0 0-8.84 2.882V7.839a18.407 18.407 0 0 1 8.84-2.652ZM17.105 5.187v5.418c3.214 0 6.313 1.038 8.839 2.882V7.839a18.407 18.407 0 0 0-8.84-2.652Z"/></g><defs><clipPath id="a"><path fill="#fff" d="M0 0h128v40H0z"/></clipPath></defs></svg>