<svg width="859" height="94" viewBox="0 0 859 94" fill="none" xmlns="http://www.w3.org/2000/svg">
<path opacity="0.75" d="M810.937 70.5903C816.098 71.5972 816.743 71.8489 819.324 72.6041C821.904 73.3592 824.485 74.1144 826.42 74.6178C828.356 75.1212 829.969 75.6247 832.872 75.8764C835.775 76.1281 839.646 76.1281 840.936 75.8764C841.904 75.6247 841.904 74.8695 841.259 74.6178C840.613 74.3661 839.646 73.8626 838.033 73.6109C836.097 73.3592 834.485 72.8558 834.485 72.8558C834.485 72.8558 834.162 71.5972 835.452 71.8489C836.743 71.8489 838.033 71.3455 839.646 71.5972C841.581 71.5972 842.549 71.0938 843.839 71.3455C845.129 71.3455 846.742 71.3455 847.387 71.0938C848.033 71.0938 847.71 70.0869 846.42 70.0869C845.129 70.0869 844.807 69.8352 844.162 69.5835C843.517 69.3317 841.259 68.5766 842.226 68.5766C843.517 68.5766 845.452 68.5766 846.097 68.5766C847.065 68.5766 847.71 68.3249 849 68.3249C850.291 68.3249 851.258 68.3249 851.258 67.0663C851.258 66.0594 852.226 65.556 852.871 64.8008C853.516 64.2974 852.871 63.794 851.903 63.794C850.936 63.794 849.323 63.5423 849.323 63.5423C849.323 63.5423 849.968 62.5354 849.645 61.7803C849.323 61.2768 848.032 61.2768 848.032 60.5217C848.032 59.7665 848.032 58.7597 849.323 59.0114C850.613 59.2631 852.226 60.5217 852.226 59.5148C852.226 58.5079 850.291 57.5011 852.226 57.2494C854.161 56.9977 855.774 57.5011 856.097 56.4942C856.097 55.4874 855.452 55.2356 854.484 54.7322C853.839 54.4805 851.258 53.4736 852.548 53.2219C854.161 53.2219 855.452 53.2219 856.097 53.2219C857.064 53.2219 857.71 52.7185 857.387 52.215C857.387 51.7116 857.064 51.2082 856.097 50.9565C855.452 50.453 853.194 49.6979 854.806 49.6979C856.419 49.6979 857.387 50.2013 857.71 49.1944C858.032 48.1876 857.387 47.9359 856.742 47.4324C856.097 46.929 853.839 45.9221 854.806 45.9221C855.774 45.9221 858.032 46.1739 858.032 45.6704C858.032 45.167 857.064 44.4118 856.097 43.6567C855.129 43.1533 854.161 41.8947 855.129 41.8947C856.097 41.8947 857.064 41.8947 857.71 41.8947C858.677 41.8947 858.355 40.8878 857.387 40.3844C856.419 39.8809 856.097 40.1327 854.806 39.3775C853.516 38.8741 853.516 37.8672 850.936 37.1121C848.355 36.3569 840.613 32.3295 837.71 31.3226C834.807 30.3157 830.614 28.8054 828.356 28.5537C826.098 28.0503 818.356 27.0434 816.743 26.54C815.13 26.0366 771.906 23.016 756.423 23.2677C740.94 23.5194 580.946 28.302 566.43 30.064C551.915 31.826 300.311 39.6292 240.313 45.9221C180.316 51.9633 69.6746 51.2082 46.7722 47.9359C23.8699 44.6636 4.51574 42.3981 4.51574 42.3981C4.51574 42.3981 0.967486 68.3249 0.644918 73.6109C-0.000219349 78.897 -1.29049 83.9313 4.51574 86.1967C10.322 88.2105 110.641 96.0137 165.8 93.7482C220.637 91.4828 364.825 83.1761 392.888 81.4141C420.952 79.6521 604.816 68.8283 643.524 66.5629C681.91 64.2974 733.198 63.0388 756.1 64.5491C779.003 66.0594 795.776 67.318 810.937 70.5903Z" fill="#FFCA42"/>
<path opacity="0.75" d="M4.19268 46.1739C4.83782 44.4119 7.0958 40.3845 14.5149 40.3845C21.934 40.3845 113.543 26.2883 169.348 22.2609C225.152 18.2334 368.695 15.968 408.049 13.7025C447.402 11.4371 565.139 9.17165 615.138 6.15105C664.813 2.87874 739.79 4.89236 758.499 6.15094C777.208 7.40952 793.55 10.4998 798.999 11.9999C798.999 11.9999 809.08 12.9656 806.499 17.9999C804.564 21.7756 796.421 29.3089 792.55 31.3227C788.679 33.3364 774.809 37.1121 760.939 38.119C747.391 38.8742 589.977 43.9085 564.494 44.6636C539.011 45.4188 475.788 46.4257 453.853 48.6911C431.919 50.7048 337.729 54.7323 306.117 55.9909C274.505 57.5012 199.024 62.0321 169.67 63.5424C140.317 65.0527 69.6741 73.3593 55.8036 76.1282C41.9332 78.6453 18.3857 82.4211 12.2569 83.9314C6.12809 85.1899 2.25727 86.1968 1.61213 83.9314C1.28956 81.6659 -1.61355 66.3112 4.19268 46.1739Z" fill="#FFCA42"/>
<path opacity="0.75" d="M809.813 15.6064C808.845 14.3478 800.781 9.81693 792.394 9.06178C784.007 8.30664 701.107 6.54462 687.882 6.04119C674.334 5.53776 615.627 4.02746 583.047 3.27231C550.79 2.26545 486.599 3.77574 462.406 4.78261C438.214 6.04119 368.862 6.04119 344.346 6.04119C319.831 6.04119 235.641 4.78261 206.61 5.28604C177.578 5.78947 98.8717 4.27918 79.8402 3.02059C60.8087 1.76201 37.9063 3.02059 34.358 2.76888C30.8098 2.26545 23.7133 0.503432 21.1327 0.503432C18.5522 0.251716 15.6491 0 14.0362 0C12.746 0 9.84284 1.76201 9.84284 3.52403C9.52027 5.53776 7.26229 12.3341 6.93972 15.8581C6.61715 19.3822 4.68174 29.4508 3.0689 32.7231C1.77862 36.2471 1.77862 41.2815 2.42376 42.7918C3.39147 44.3021 8.55256 46.3158 10.488 46.3158C12.4234 46.5675 59.841 47.0709 66.9375 47.5744C74.034 48.0778 234.673 46.3158 245.963 47.0709C257.253 47.8261 354.991 50.595 384.345 49.5881C413.699 48.5812 565.951 48.5812 588.531 47.5744C611.111 46.5675 702.075 43.7986 731.106 45.8124C760.137 47.5744 791.749 45.5606 793.039 47.5744C794.33 49.3364 797.555 46.0641 799.491 42.0366C801.426 38.0092 805.297 25.9268 809.168 19.3821C810.458 18.627 810.781 16.865 809.813 15.6064ZM500.47 9.06178C498.857 9.3135 493.696 10.8238 487.567 10.3204C481.761 9.81693 478.212 10.3204 476.277 10.0686C474.342 9.81693 474.664 11.3272 471.761 11.3272C469.18 11.3272 467.89 11.0755 465.955 11.0755C464.019 10.8238 462.406 11.3272 460.794 11.3272C459.181 11.3272 457.245 11.3272 455.633 11.0755C454.02 11.0755 453.697 10.8238 452.407 11.3272C451.117 11.5789 452.729 12.8375 451.117 12.8375C449.504 12.8375 444.343 11.3272 440.149 12.0824C435.956 12.8375 434.343 13.0892 431.44 12.8375C428.859 12.5858 427.569 11.8307 426.601 12.5858C425.634 13.341 425.634 13.8444 424.666 13.0892C423.376 12.3341 422.731 12.0824 421.763 12.5858C420.795 13.0892 420.795 13.5927 418.537 13.0892C415.957 12.8375 413.053 11.8307 409.505 12.0824C406.28 12.3341 405.312 12.8375 402.731 13.341C400.151 13.8444 398.861 14.3478 397.57 13.8444C395.957 13.5927 394.345 13.341 391.764 13.0892C389.183 12.8375 387.893 12.5858 386.28 12.8375C384.667 13.0892 384.022 13.341 382.409 13.0892C380.797 13.0892 380.152 12.3341 378.216 12.8375C376.281 13.341 371.12 13.8444 369.507 13.5927C367.894 13.5927 345.637 14.0961 340.798 13.5927C335.96 13.341 318.218 13.5927 313.38 13.0892C308.541 12.8375 295.316 12.8375 293.381 12.8375C290.8 13.0892 283.058 12.5858 280.155 12.5858C277.252 12.5858 274.349 12.5858 268.865 12.3341C264.027 12.0824 259.188 10.8238 256.93 10.5721C255.963 10.5721 255.317 10.5721 255.963 10.5721C256.285 10.5721 256.608 10.5721 256.93 10.5721C258.543 10.5721 260.801 10.5721 261.446 10.5721C262.414 10.5721 266.285 11.0755 266.285 11.0755C266.285 11.0755 269.833 11.5789 272.091 11.3272C274.026 11.3272 282.736 11.8307 284.671 11.8307C286.607 12.0824 298.542 11.5789 300.8 11.8307C303.38 12.0824 308.541 12.0824 311.122 12.0824C313.702 12.0824 320.799 11.8307 322.412 11.8307C324.025 11.8307 329.831 11.3272 331.121 11.3272C332.734 11.3272 337.25 11.3272 339.185 11.3272C340.798 11.3272 343.379 11.5789 344.669 11.5789C345.959 11.5789 347.572 11.3272 350.475 11.3272C353.378 11.3272 356.927 11.5789 359.507 11.5789C362.088 11.5789 364.023 11.3272 367.894 11.3272C371.765 11.3272 370.474 11.3272 374.023 11.3272C377.894 11.3272 377.571 11.8307 381.442 11.3272C385.313 11.0755 386.603 10.5721 387.893 10.5721C389.506 10.5721 392.087 10.8238 393.699 10.5721C395.312 10.3204 395.635 9.81693 396.925 9.81693C398.215 9.81693 440.472 9.3135 449.826 9.06178C459.181 8.81007 468.213 9.06178 473.696 8.55835C479.18 8.05492 486.277 7.55149 492.083 7.55149C497.566 8.30664 502.082 8.81007 500.47 9.06178Z" fill="#FFCA42"/>
</svg>
