<svg width="26" height="26" viewBox="0 0 26 26" fill="none" xmlns="http://www.w3.org/2000/svg">
<path fill-rule="evenodd" clip-rule="evenodd" d="M19.0954 2.98735C17.9631 2.61685 16.4213 2.59995 12.9998 2.59995C11.1655 2.59995 9.85383 2.59995 8.82034 2.67145C7.79856 2.74035 7.14337 2.87425 6.61298 3.09525C5.82413 3.42175 5.10734 3.90047 4.50353 4.50405C3.89973 5.10763 3.42075 5.82425 3.09395 6.61298C2.87295 7.14467 2.73905 7.79856 2.67015 8.82034C2.59995 9.85383 2.59995 11.1642 2.59995 12.9998C2.59995 14.8353 2.59995 16.1457 2.67145 17.1792C2.74035 18.201 2.87425 18.8562 3.09525 19.3866C3.4219 20.1752 3.90068 20.8917 4.50425 21.4953C5.10783 22.0989 5.82437 22.5776 6.61298 22.9043C7.14467 23.1253 7.79856 23.2592 8.82034 23.3281C9.85383 23.3996 11.1668 23.3996 12.9998 23.3996C14.8327 23.3996 16.1457 23.3996 17.1792 23.3281C18.201 23.2592 18.8562 23.1253 19.3866 22.9043C20.1752 22.5776 20.8917 22.0989 21.4953 21.4953C22.0989 20.8917 22.5776 20.1752 22.9043 19.3866C23.1253 18.8549 23.2592 18.201 23.3281 17.1792C23.3996 16.1457 23.3996 14.8353 23.3996 12.9998C23.3996 12.004 23.3996 11.159 23.3866 10.4206C23.3811 10.0758 23.5127 9.743 23.7526 9.4953C23.9925 9.24761 24.321 9.10536 24.6658 9.09984C25.0105 9.09432 25.3434 9.226 25.5911 9.46589C25.8388 9.70578 25.981 10.0342 25.9865 10.379C25.9995 11.1395 25.9995 12.0053 25.9995 12.992V13.0479C25.9995 14.8249 25.9995 16.2237 25.9215 17.356C25.8435 18.5104 25.6797 19.4802 25.3067 20.3823C24.3831 22.6118 22.6118 24.3831 20.3823 25.3067C19.4802 25.6797 18.5104 25.8435 17.356 25.9228C16.225 25.9995 14.8236 25.9995 13.0479 25.9995H12.9517C11.1746 25.9995 9.77583 25.9995 8.64355 25.9215C7.48917 25.8435 6.51939 25.6797 5.6172 25.3067C3.38776 24.3831 1.61646 22.6118 0.692888 20.3823C0.319794 19.4802 0.155997 18.5104 0.0766987 17.356C1.93712e-08 16.225 0 14.8249 0 13.0479V12.9517C0 11.1759 -7.26419e-08 9.77583 0.0779986 8.64355C0.155997 7.48917 0.319794 6.51939 0.692888 5.6172C1.61615 3.38801 3.38695 1.61674 5.6159 0.692888C6.51809 0.319794 7.48787 0.155997 8.64225 0.0766987C9.77453 1.93712e-08 11.1746 0 12.9517 0H13.2793C16.3342 0 18.3245 7.74847e-08 19.904 0.516091C20.2226 0.630341 20.4841 0.864365 20.6329 1.16841C20.7816 1.47245 20.8059 1.82254 20.7006 2.14423C20.5953 2.46592 20.3687 2.73385 20.0689 2.89106C19.7691 3.04826 19.4199 3.08364 19.0954 2.98735ZM25.8227 3.89473C25.9088 4.04222 25.965 4.20522 25.9881 4.37443C26.0112 4.54363 26.0007 4.71573 25.9572 4.88088C25.9137 5.04602 25.8382 5.20099 25.7348 5.33692C25.6314 5.47286 25.5023 5.58709 25.3548 5.6731L25.0662 5.8408C20.3929 8.56682 16.6382 12.6238 14.2815 17.4938C14.1913 17.6805 14.0576 17.8428 13.8918 17.9674C13.7259 18.0919 13.5327 18.1749 13.3282 18.2095C13.1238 18.2441 12.914 18.2293 12.7164 18.1663C12.5188 18.1033 12.3392 17.994 12.1925 17.8474L6.97568 12.6345C6.84861 12.5153 6.74679 12.3719 6.67626 12.2126C6.60573 12.0533 6.56793 11.8815 6.5651 11.7073C6.56227 11.5331 6.59448 11.3602 6.6598 11.1987C6.72512 11.0372 6.82223 10.8905 6.94536 10.7673C7.06849 10.6441 7.21512 10.5469 7.37655 10.4814C7.53799 10.416 7.71092 10.3837 7.88509 10.3864C8.05926 10.3891 8.23111 10.4268 8.39044 10.4972C8.54976 10.5676 8.6933 10.6693 8.81255 10.7963L12.7775 14.7573C15.3771 10.1248 19.1672 6.27097 23.7558 3.59444L24.0444 3.42674C24.1919 3.34066 24.3549 3.28447 24.5241 3.2614C24.6933 3.23833 24.8654 3.24883 25.0305 3.29229C25.1957 3.33575 25.3506 3.41132 25.4866 3.51469C25.6225 3.61806 25.7367 3.7472 25.8227 3.89473Z" fill="#FA8D8D"/>
</svg>
