<svg width="43" height="44" fill="none" xmlns="http://www.w3.org/2000/svg"><path d="m9.974 3.3-7.729.493a2.209 2.209 0 0 0-2.06 2.343L2.101 36.22a2.209 2.209 0 0 0 2.343 2.061l7.73-.493L9.974 3.3Z" fill="#81ABDD"/><path d="M3.527 38.324a.2.2 0 0 1-.064-.01 2.394 2.394 0 0 1-1.54-2.08L.638 16.067a.18.18 0 0 1 .357-.022L2.28 36.213a2.034 2.034 0 0 0 1.307 1.768.18.18 0 0 1 .103.232.174.174 0 0 1-.164.111ZM.487 11.066a.18.18 0 0 1-.178-.168L.005 6.151a2.377 2.377 0 0 1 1.85-2.48.18.18 0 0 1 .08.35A2.024 2.024 0 0 0 .358 6.13l.307 4.748a.177.177 0 0 1-.168.189h-.01Z" fill="#727E99"/><path d="m31.272 4.154 1.918 30.084a2.209 2.209 0 0 1-2.06 2.343L6.942 38.124a2.209 2.209 0 0 1-2.343-2.061L2.68 5.979a2.209 2.209 0 0 1 2.06-2.343L28.93 2.093a2.209 2.209 0 0 1 2.343 2.061Z" fill="#C7E0FF"/><path d="m31.272 4.154 1.918 30.083a2.209 2.209 0 0 1-2.06 2.344L6.941 38.124a2.199 2.199 0 0 1-1.45-.425L30.314 2.47a2.208 2.208 0 0 1 .957 1.683Z" fill="#C7E0FF"/><path d="M6.799 38.306a2.356 2.356 0 0 1-1.572-.596 2.365 2.365 0 0 1-.803-1.64L2.506 5.987c-.04-.636.168-1.25.589-1.73a2.365 2.365 0 0 1 1.64-.803l24.187-1.543a2.384 2.384 0 0 1 2.532 2.229l1.919 30.084a2.388 2.388 0 0 1-2.23 2.532L6.957 38.299c-.057.007-.107.007-.157.007ZM29.072 2.264c-.043 0-.085 0-.132.004L4.752 3.811a2.02 2.02 0 0 0-1.393.686 2.03 2.03 0 0 0-.503 1.468L4.774 36.05a2.02 2.02 0 0 0 .686 1.393 2.03 2.03 0 0 0 1.467.504l24.188-1.544a2.03 2.03 0 0 0 1.897-2.154L31.094 4.166a2.03 2.03 0 0 0-2.022-1.9Z" fill="#727E99"/><path d="m29.133 4.229 1.937 30.212-24.318 1.56L4.815 5.789l24.318-1.56Z" fill="#fff"/><path d="m4.814 5.777 1.287-.082 1.937 30.212-1.286.083L4.814 5.776Zm22.962-1.475 1.287-.083 1.938 30.212-1.287.083-1.938-30.212Z" fill="#EDEDED"/><path d="M6.742 36.17a.177.177 0 0 1-.179-.164L4.634 5.794a.187.187 0 0 1 .043-.129.181.181 0 0 1 .122-.06l24.316-1.55a.177.177 0 0 1 .19.167l1.928 30.212a.187.187 0 0 1-.043.129.181.181 0 0 1-.121.06l-24.316 1.55c-.004-.003-.008-.003-.011-.003ZM5.002 5.944l1.904 29.855 23.96-1.53-1.904-29.854-23.96 1.529Z" fill="#727E99"/><path d="m22.229 5.947-10.173.65A.997.997 0 0 1 11.01 5.43l.44-2.454a1.002 1.002 0 0 1 .917-.821l1.464-.093a.985.985 0 0 0 .854-.6C14.957.775 15.767.25 16.757.185c.99-.064 1.857.358 2.218 1 .182.33.546.511.921.49l1.465-.093c.457-.028.875.26 1.014.697l.747 2.375a1 1 0 0 1-.893 1.293Z" fill="#fff"/><path d="M11.9 5.372a.998.998 0 0 0 1.046 1.168l-.89.057A.997.997 0 0 1 11.01 5.43l.44-2.454a.995.995 0 0 1 .914-.821l.889-.057a.995.995 0 0 0-.914.821l-.44 2.454ZM17.2.19c-.779.168-1.397.636-1.625 1.215a.982.982 0 0 1-.858.603l-.889.057a.982.982 0 0 0 .857-.603C14.957.778 15.767.25 16.753.185c.154-.01.3-.01.447.004Z" fill="#EDEDED"/><path d="M11.989 6.78a1.173 1.173 0 0 1-1.158-1.383l.44-2.454c.096-.536.539-.932 1.082-.968l1.464-.093a.804.804 0 0 0 .7-.49c.304-.764 1.197-1.32 2.226-1.385 1.024-.068 1.985.375 2.382 1.093.146.26.446.418.757.396l1.464-.093a1.173 1.173 0 0 1 1.197.822l.746 2.375a1.18 1.18 0 0 1-1.05 1.525l-1.95.126c-.1 0-.182-.068-.19-.168a.177.177 0 0 1 .169-.19l1.95-.124a.825.825 0 0 0 .625-.354.814.814 0 0 0 .107-.707l-.746-2.376a.813.813 0 0 0-.833-.571l-1.464.093c-.45.028-.879-.2-1.09-.58-.332-.6-1.153-.967-2.05-.91-.893.057-1.664.525-1.918 1.165-.16.403-.557.685-1.007.714l-1.464.093a.82.82 0 0 0-.754.675l-.44 2.454c-.042.246.03.5.197.686.168.189.411.29.665.271l6.018-.382a.182.182 0 0 1 .19.168.177.177 0 0 1-.169.19l-6.018.381c-.025-.003-.053 0-.079 0Z" fill="#727E99"/><path d="M14.285 4.1a.18.18 0 0 1-.178-.167.177.177 0 0 1 .168-.19l5.51-.35a.18.18 0 0 1 .022.357l-5.511.35h-.01Zm1.511 6.255a.18.18 0 0 1-.178-.168.177.177 0 0 1 .167-.19l10.883-.696a.18.18 0 0 1 .19.168.177.177 0 0 1-.168.19l-10.88.692c-.003 0-.007.004-.014.004Zm.122 1.9a.18.18 0 0 1-.179-.168.177.177 0 0 1 .168-.189l10.883-.693a.175.175 0 0 1 .19.168.177.177 0 0 1-.169.19l-10.88.692h-.013Zm.121 1.9a.18.18 0 0 1-.179-.167.177.177 0 0 1 .168-.19l6.726-.428a.175.175 0 0 1 .19.168.177.177 0 0 1-.169.19l-6.725.428h-.011Zm.279 4.327a.18.18 0 0 1-.179-.168.177.177 0 0 1 .168-.19l8.833-.564c.107-.007.182.068.189.168a.177.177 0 0 1-.168.19l-8.833.564h-.01Zm.121 1.9a.18.18 0 0 1-.179-.168.177.177 0 0 1 .168-.19l8.833-.564c.107-.007.182.068.19.168a.177.177 0 0 1-.168.19l-8.833.564h-.011Zm.121 1.904a.18.18 0 0 1-.178-.168.177.177 0 0 1 .168-.19l6.725-.428c.107-.007.182.068.19.168a.177.177 0 0 1-.168.189l-6.726.429c-.003-.004-.007 0-.01 0Zm.276 4.322a.18.18 0 0 1-.18-.168.177.177 0 0 1 .169-.19l10.883-.692a.175.175 0 0 1 .19.168.177.177 0 0 1-.169.189l-10.883.693h-.01Zm.12 1.904a.18.18 0 0 1-.178-.168.177.177 0 0 1 .168-.19l10.883-.692a.175.175 0 0 1 .19.167.177.177 0 0 1-.168.19l-10.883.693h-.011Zm.122 1.9a.18.18 0 0 1-.178-.168.177.177 0 0 1 .168-.19l6.725-.428c.11-.003.182.068.19.168a.177.177 0 0 1-.168.19l-6.726.428h-.01Z" fill="#727E99"/><path d="M13.2 12.248a2.589 2.589 0 0 1-2.419 2.75 2.59 2.59 0 0 1-2.11-4.293 2.588 2.588 0 0 1 3.65-.232 2.558 2.558 0 0 1 .878 1.775Z" fill="#FA9595"/><path d="M13.2 12.248a2.59 2.59 0 0 1-4.183 2.2l2.961-4.232a2.576 2.576 0 0 1 1.222 2.033Z" fill="#FA8D8D"/><path d="M10.61 15.184a2.756 2.756 0 0 1-1.825-.689 2.754 2.754 0 0 1-.932-1.9 2.78 2.78 0 0 1 .682-2.008 2.755 2.755 0 0 1 1.903-.932 2.765 2.765 0 0 1 2.94 2.586 2.762 2.762 0 0 1-.686 2.008 2.745 2.745 0 0 1-1.9.932c-.06 0-.121.003-.182.003Zm.007-5.179c-.054 0-.104 0-.157.003a2.407 2.407 0 0 0-2.254 2.558 2.403 2.403 0 0 0 2.557 2.254 2.383 2.383 0 0 0 1.654-.81c.429-.487.64-1.108.6-1.748a2.402 2.402 0 0 0-.814-1.657 2.364 2.364 0 0 0-1.586-.6Z" fill="#727E99"/><path d="M10.267 13.302a.178.178 0 0 1-.118-.043l-.618-.543a.176.176 0 0 1-.014-.254.177.177 0 0 1 .254-.014l.482.425 1.16-1.318a.18.18 0 0 1 .254-.018.18.18 0 0 1 .018.254l-1.279 1.454a.181.181 0 0 1-.121.06c-.01-.003-.014-.003-.018-.003Z" fill="#fff"/><path d="M13.717 20.378a2.589 2.589 0 0 1-2.418 2.75 2.59 2.59 0 0 1-2.11-4.293 2.588 2.588 0 0 1 3.65-.232 2.551 2.551 0 0 1 .878 1.775Z" fill="#FA9595"/><path d="M13.717 20.375a2.589 2.589 0 0 1-2.418 2.75 2.56 2.56 0 0 1-1.764-.55l2.96-4.233a2.571 2.571 0 0 1 1.222 2.032Z" fill="#FA8D8D"/><path d="M11.128 23.31a2.756 2.756 0 0 1-1.825-.689 2.754 2.754 0 0 1-.932-1.9 2.78 2.78 0 0 1 .682-2.008 2.755 2.755 0 0 1 1.903-.932 2.76 2.76 0 0 1 2.004.682 2.746 2.746 0 0 1 .936 1.904 2.763 2.763 0 0 1-2.768 2.944Zm.007-5.179a2.405 2.405 0 0 0-2.41 2.561c.038.643.328 1.23.81 1.658a2.382 2.382 0 0 0 1.747.596 2.383 2.383 0 0 0 1.653-.81c.429-.486.64-1.108.6-1.747a2.403 2.403 0 0 0-.814-1.658 2.382 2.382 0 0 0-1.586-.6Z" fill="#727E99"/><path d="M10.785 21.428a.177.177 0 0 1-.118-.043l-.618-.543a.177.177 0 0 1-.014-.253.177.177 0 0 1 .254-.014l.482.425 1.16-1.318a.18.18 0 0 1 .254-.018.18.18 0 0 1 .018.253l-1.279 1.454a.181.181 0 0 1-.121.06c-.01-.003-.014-.003-.018-.003Z" fill="#fff"/><path d="M14.235 28.505a2.589 2.589 0 0 1-2.418 2.75 2.59 2.59 0 0 1-2.11-4.294 2.588 2.588 0 0 1 3.65-.232 2.546 2.546 0 0 1 .878 1.776Z" fill="#FA9595"/><path d="M14.235 28.504a2.589 2.589 0 0 1-2.418 2.75 2.561 2.561 0 0 1-1.764-.55l2.96-4.232a2.563 2.563 0 0 1 1.222 2.032Z" fill="#FA8D8D"/><path d="M11.65 31.437a2.772 2.772 0 0 1-1.221-5.257c.327-.16.682-.254 1.045-.276a2.76 2.76 0 0 1 2.004.682 2.742 2.742 0 0 1 .936 1.904 2.762 2.762 0 0 1-.686 2.008 2.747 2.747 0 0 1-1.9.932c-.061.007-.118.007-.179.007Zm.006-5.18c-.053 0-.103 0-.157.004a2.405 2.405 0 0 0-2.254 2.558 2.418 2.418 0 0 0 2.561 2.254 2.383 2.383 0 0 0 1.654-.811c.429-.486.64-1.107.6-1.747a2.402 2.402 0 0 0-.814-1.657 2.404 2.404 0 0 0-1.59-.6Z" fill="#727E99"/><path d="M11.303 29.558a.177.177 0 0 1-.118-.043l-.618-.543a.178.178 0 0 1-.05-.193.175.175 0 0 1 .036-.06.177.177 0 0 1 .253-.015l.483.426 1.16-1.319a.18.18 0 0 1 .254-.017.18.18 0 0 1 .018.253l-1.279 1.454a.181.181 0 0 1-.121.06c-.011-.003-.015-.003-.018-.003Z" fill="#fff"/><path d="m27.918 16.628 6.356-11.313 5.214 2.93-6.357 11.313-5.213-2.93Z" fill="#FA9595"/><path d="m27.916 16.628 6.356-11.313.894.503-6.357 11.312-.893-.502Zm4.326 2.43 6.356-11.313.894.502-6.356 11.313-.894-.502Z" fill="#FA8D8D"/><path d="M41.562 4.572 40.477 6.5l-5.219-2.933 1.086-1.929a1.837 1.837 0 0 1 2.497-.7l2.025 1.14a1.83 1.83 0 0 1 .696 2.493Z" fill="#C7E0FF"/><path d="M38.07.714a1.828 1.828 0 0 0-1.722.925l-1.086 1.929.914.514L38.07.714Zm3.385 1.904c.393.56.465 1.318.108 1.954L40.477 6.5l-.915-.515 1.893-3.368Z" fill="#C7E0FF"/><path d="m34.265 5.317.991-1.763L40.48 6.49l-.99 1.763-5.224-2.935Z" fill="#EDEDED"/><path d="m35.157 5.817.99-1.763 3.438 1.933-.99 1.762-3.438-1.932Z" fill="#fff"/><path d="m33.13 19.57-5.576 3.808.36-6.744 5.215 2.937Z" fill="#FCDCB5"/><path d="m28.308 22.868-.754.51.36-6.744.7.393-.306 5.84Z" fill="#FCC583"/><path d="M33.126 19.75a.204.204 0 0 1-.09-.022l-5.21-2.929a.173.173 0 0 1-.086-.107.166.166 0 0 1 .018-.136l6.357-11.309a.177.177 0 0 1 .243-.068l5.211 2.93c.086.05.118.157.068.242l-1.871 3.333a.177.177 0 0 1-.243.068.177.177 0 0 1-.068-.243l1.786-3.176-4.9-2.754-6.183 10.991 4.9 2.758 3.179-5.654a.177.177 0 0 1 .243-.068c.085.05.118.157.068.243l-3.265 5.808a.181.181 0 0 1-.157.093Zm7.35-13.07a.205.205 0 0 1-.089-.022l-5.215-2.933a.183.183 0 0 1-.085-.107.166.166 0 0 1 .018-.135l1.085-1.93a2.019 2.019 0 0 1 2.74-.768l2.025 1.137a2.01 2.01 0 0 1 .768 2.736l-1.086 1.929a.188.188 0 0 1-.16.093ZM35.505 3.5l4.904 2.758.996-1.775a1.653 1.653 0 0 0-.632-2.25l-2.025-1.137a1.63 1.63 0 0 0-1.258-.15 1.644 1.644 0 0 0-.996.783l-.99 1.771Z" fill="#727E99"/><path d="M39.49 8.444a.205.205 0 0 1-.089-.021L34.18 5.486a.182.182 0 0 1-.086-.107.166.166 0 0 1 .018-.136l.99-1.76a.172.172 0 0 1 .106-.086.166.166 0 0 1 .136.018l5.222 2.936c.086.05.118.157.068.243l-.99 1.76a.173.173 0 0 1-.107.086c-.014 0-.032.004-.046.004Zm-4.978-3.183 4.911 2.761.814-1.45-4.91-2.761-.815 1.45Zm-6.958 18.296a.173.173 0 0 1-.169-.114.172.172 0 0 1-.01-.072l.358-6.743A.18.18 0 0 1 28 16.48l5.218 2.933c.053.028.09.085.09.146a.175.175 0 0 1-.08.154l-5.575 3.815a.192.192 0 0 1-.1.028Zm.522-6.626-.325 6.098 5.04-3.444-4.715-2.654Z" fill="#727E99"/><path d="M30.522 18.281a.204.204 0 0 1-.09-.021.177.177 0 0 1-.067-.243l6.358-11.309a.176.176 0 0 1 .242-.068c.086.05.118.157.068.243l-6.357 11.31a.177.177 0 0 1-.154.088Zm-2.793 1.79-.175 3.308 2.736-1.869-2.561-1.439Z" fill="#727E99"/><path d="M27.554 23.557a.172.172 0 0 1-.178-.185l.175-3.308a.18.18 0 0 1 .267-.147l2.558 1.44c.053.028.09.086.09.146a.174.174 0 0 1-.08.154l-2.735 1.868a.15.15 0 0 1-.097.032Zm.34-3.19-.143 2.662 2.2-1.504-2.058-1.158Z" fill="#727E99"/><path d="m35.905 28.008 1.033-2.828 1.704.623-1.033 2.827-1.704-.622Z" fill="#fff"/><path d="M37.626 28.805a.166.166 0 0 1-.06-.011l-1.704-.622a.182.182 0 0 1-.107-.228l1.032-2.83a.179.179 0 0 1 .229-.106l1.703.621a.182.182 0 0 1 .108.229l-1.033 2.829a.176.176 0 0 1-.168.118Zm-1.475-.908 1.368.5.911-2.493-1.368-.5-.91 2.493Z" fill="#727E99"/><path d="M34.24 43.821a8.573 8.573 0 0 0 8.572-8.573 8.573 8.573 0 1 0-17.144 0 8.573 8.573 0 0 0 8.572 8.573Z" fill="#FCDCB5"/><path d="M39.923 37.328a6.05 6.05 0 1 1-11.364-4.159 6.05 6.05 0 0 1 11.364 4.159Z" fill="#fff"/><path d="M42.291 38.192A8.574 8.574 0 0 1 31.297 43.3a8.544 8.544 0 0 1-4.693-4.161l15.308-7.716a8.576 8.576 0 0 1 .379 6.769Z" fill="#F9D4A7"/><path d="M34.23 44a8.692 8.692 0 0 1-2.994-.532 8.741 8.741 0 0 1-5.35-10.824.18.18 0 0 1 .225-.117.18.18 0 0 1 .118.225 8.382 8.382 0 0 0 5.132 10.38 8.337 8.337 0 0 0 6.419-.271 8.355 8.355 0 0 0 4.346-4.733 8.355 8.355 0 0 0-.271-6.42 8.354 8.354 0 0 0-4.732-4.347c-3.519-1.285-7.505-.064-9.69 2.972a.181.181 0 0 1-.25.04.177.177 0 0 1-.04-.25c2.279-3.165 6.436-4.44 10.105-3.1a8.694 8.694 0 0 1 4.932 4.532 8.682 8.682 0 0 1 .282 6.69A8.774 8.774 0 0 1 34.23 44Z" fill="#727E99"/><path d="M39.923 37.328a6.05 6.05 0 0 1-11.065.678l10.804-5.444a6.03 6.03 0 0 1 .261 4.766Z" fill="#FADFCB"/><path d="M34.244 41.482A6.278 6.278 0 0 1 32.1 41.1a6.187 6.187 0 0 1-3.511-3.226 6.187 6.187 0 0 1-.2-4.761 6.208 6.208 0 0 1 3.225-3.512 6.185 6.185 0 0 1 4.761-.2 6.187 6.187 0 0 1 3.511 3.226c.7 1.507.772 3.2.2 4.761a6.188 6.188 0 0 1-3.225 3.512c-.82.382-1.714.58-2.618.582Zm-.007-12.11c-.843 0-1.683.186-2.472.55a5.838 5.838 0 0 0-3.04 3.308 5.83 5.83 0 0 0 .19 4.49 5.838 5.838 0 0 0 3.307 3.04 5.828 5.828 0 0 0 4.49-.189 5.838 5.838 0 0 0 3.04-3.308 5.83 5.83 0 0 0-.19-4.49 5.839 5.839 0 0 0-3.307-3.04 5.898 5.898 0 0 0-2.018-.36Z" fill="#727E99"/><path d="M36.076 30.401a.18.18 0 0 1-.177-.155.178.178 0 0 1 .01-.084l.239-.657a.179.179 0 0 1 .335.121l-.239.658a.176.176 0 0 1-.168.117Zm-3.91 10.71a.177.177 0 0 1-.147-.077.18.18 0 0 1-.022-.163l.24-.657a.179.179 0 0 1 .335.121l-.239.658a.184.184 0 0 1-.168.117Zm-2.951-7.52a.167.167 0 0 1-.06-.01l-.658-.24a.179.179 0 0 1 .121-.336l.658.24a.18.18 0 0 1-.061.346Zm10.708 3.912a.168.168 0 0 1-.06-.011l-.658-.24a.179.179 0 0 1 .121-.335l.658.24a.179.179 0 0 1-.061.346Zm-7.937-6.927a.176.176 0 0 1-.16-.103l-.297-.636a.175.175 0 0 1 .086-.236.175.175 0 0 1 .236.086l.296.636a.175.175 0 0 1-.085.236.192.192 0 0 1-.075.017Zm4.805 10.338a.176.176 0 0 1-.161-.104l-.297-.635a.175.175 0 0 1 .086-.236.178.178 0 0 1 .236.086l.296.635a.175.175 0 0 1-.086.236.145.145 0 0 1-.075.018Zm-8.037-2.936a.176.176 0 0 1-.16-.104.175.175 0 0 1 .085-.236l.636-.296a.178.178 0 0 1 .236.086.175.175 0 0 1-.086.235l-.636.297a.192.192 0 0 1-.075.018Zm10.337-4.805a.176.176 0 0 1-.161-.103.173.173 0 0 1-.007-.136.174.174 0 0 1 .093-.1l.636-.296a.178.178 0 0 1 .235.085.175.175 0 0 1-.086.236l-.635.297a.192.192 0 0 1-.075.017Z" fill="#727E99"/><path d="M39.827 25.983v.003a.825.825 0 0 1-1.057.49l-2.336-.854a.818.818 0 0 1-.493-1.054v-.004a.829.829 0 0 1 1.06-.492l2.336.853a.823.823 0 0 1 .49 1.058Z" fill="#FA9595"/><path d="m37.24 25.918-.807-.296a.82.82 0 0 1-.493-1.054v-.004a.828.828 0 0 1 1.061-.496l.807.296a.83.83 0 0 0-1.064.493v.004c-.154.429.064.9.496 1.057Z" fill="#FA8D8D"/><path d="M39.055 26.708a1.04 1.04 0 0 1-.346-.06l-2.336-.854a1.004 1.004 0 1 1 .69-1.887l2.335.854c.521.19.79.768.6 1.29v.003a.983.983 0 0 1-.518.565c-.14.057-.282.089-.425.089Zm-2.34-2.508a.647.647 0 0 0-.22 1.254l2.335.854c.164.06.34.053.497-.018a.623.623 0 0 0 .332-.36v-.004a.647.647 0 0 0-.386-.829l-2.336-.854a.596.596 0 0 0-.221-.043Zm-.964 14.482a.176.176 0 0 1-.16-.104l-1.511-3.254a.18.18 0 0 1-.008-.136l1.383-3.786a.179.179 0 0 1 .336.121l-1.358 3.715 1.483 3.186a.175.175 0 0 1-.086.236.131.131 0 0 1-.079.022Z" fill="#727E99"/><path d="M34.24 36.049a.8.8 0 1 0 0-1.6.8.8 0 0 0 0 1.6Z" fill="#727E99"/></svg>