<svg width="363" height="129" fill="none" xmlns="http://www.w3.org/2000/svg"><g clip-path="url(#a)"><path fill="#C7F2C9" d="M0 0h363v129H0z"/><path d="M268.071 105.041c-.119 0-.237-.007-.356-.019-1.628-.175-2.965-1.313-3.488-2.97-.631-2 .074-4.2 1.84-5.74 3.436-3 9.332-2.422 13.234-2.039a1.222 1.222 0 1 1-.239 2.434c-3.483-.34-8.747-.858-11.387 1.447-1.038.905-1.455 2.088-1.115 3.163.229.727.759 1.203 1.416 1.273.334.035.73-.126 1.01-.411.107-.109.349-.397.307-.733a1.222 1.222 0 1 1 2.425-.309c.126.984-.234 1.987-.985 2.754-.72.734-1.694 1.15-2.662 1.15Z" fill="#EDAA9D"/><path d="M339.183 90.392c-1.559-7.332-6.427-13.438-12.965-16.688V63.99c0-.822-.724-1.462-1.539-1.354-4.696.62-8.506 4.046-9.697 8.537h-15.369c-13.401 0-24.575 10.963-24.539 24.363.021 7.796 3.717 14.724 9.443 19.156.076 3.496.465 7.039.84 9.74a5.44 5.44 0 0 0 5.388 4.689c2.716 0 5.014-2 5.389-4.689.196-1.416.397-3.064.554-4.815.882.097 1.776.151 2.684.151h16.049c.628 0 1.249-.025 1.864-.071.142 1.543.319 3.083.531 4.618.374 2.702 2.649 4.791 5.375 4.806a5.438 5.438 0 0 0 5.418-4.689c.354-2.54.719-5.826.824-9.116a24.399 24.399 0 0 0 8.348-10.34 1.125 1.125 0 0 1 1.038-.687h4.734a2.377 2.377 0 0 0 2.377-2.378v-9.14a2.378 2.378 0 0 0-2.378-2.379h-4.369Z" fill="#FFD2C0"/><path d="M343.55 90.392h-1.347c.004.061.008.121.008.183v9.14a2.377 2.377 0 0 1-2.378 2.378h-4.82a.997.997 0 0 0-.917.607 24.374 24.374 0 0 1-7.988 10.134 1.01 1.01 0 0 0-.411.772c-.124 3.126-.47 6.215-.806 8.63a5.439 5.439 0 0 1-6.032 4.649c.993 1.349 2.567 2.227 4.33 2.236a5.438 5.438 0 0 0 5.418-4.689c.353-2.54.719-5.826.824-9.116a24.406 24.406 0 0 0 8.348-10.34c.086-.204.231-.377.416-.499.184-.123.4-.188.622-.188h4.733a2.377 2.377 0 0 0 2.378-2.378v-9.14a2.379 2.379 0 0 0-2.378-2.379Zm-26.259 29.376H299.37c-.907 0-1.803-.054-2.684-.15a99.706 99.706 0 0 1-.555 4.814 5.439 5.439 0 0 1-9.787 2.45 5.44 5.44 0 0 0 6.071-4.646c.224-1.6.408-3.205.554-4.814.882.096 1.777.15 2.684.15 0 0 15.457-.017 21.461-.048.049.761.109 1.512.177 2.244Zm12.495-30.832a1.225 1.225 0 0 1-1.223-1.223V84.94a1.213 1.213 0 0 1 .358-.865 1.232 1.232 0 0 1 .865-.358 1.225 1.225 0 0 1 1.223 1.223v2.773a1.224 1.224 0 0 1-1.223 1.223Z" fill="#EDAA9D"/><path d="M317.265 119.698c-.07-.75-.13-1.5-.178-2.252a69.503 69.503 0 0 1-.107-2.197 1.222 1.222 0 0 0-1.221-1.184l-.039.001a1.221 1.221 0 0 0-1.184 1.261 71.874 71.874 0 0 0 .28 4.441h.604c.621 0 1.236-.025 1.845-.07Zm-33.305-13.553a1.217 1.217 0 0 0-.916.188 1.217 1.217 0 0 0-.516.78c-.316 1.63-.469 3.458-.508 5.358a24.243 24.243 0 0 0 2.454 2.187c-.072-3.534.207-5.801.455-7.08a1.235 1.235 0 0 0-.188-.917 1.232 1.232 0 0 0-.781-.516Z" fill="#EDAA9D"/><path d="M311.56 69.094a10.08 10.08 0 0 1-4.811 8.6h-8.254c-.17 0-.341.002-.511.01a18.44 18.44 0 0 0-1.605.108 10.09 10.09 0 0 1-5.004-8.718c0-5.575 4.519-10.094 10.094-10.094 5.572 0 10.091 4.52 10.091 10.094Z" fill="#FFCD34"/><path d="M300.715 69.656a4.53 4.53 0 0 1-.185-.006 17.126 17.126 0 0 1-.351-.038c-.008.11-.015.24-.019.389 0 .148-.002.314-.006.497l.427.013h.478c.021 0 .058-.002.109-.007.055-.008.119-.017.191-.025l.204-.026c.068-.008.127-.013.178-.013a.72.72 0 0 1 .753.734c0 .157-.022.28-.064.37a.376.376 0 0 1-.211.19 1.388 1.388 0 0 1-.408.07c-.17.01-.384.014-.643.014H300.721a5.425 5.425 0 0 0-.268-.007 54.573 54.573 0 0 1-.255-.013h-.057v.893a.79.79 0 0 1-.236.58.813.813 0 0 1-.599.242.824.824 0 0 1-.606-.242.79.79 0 0 1-.236-.58v-.956a5.482 5.482 0 0 1-.586-.038 1.412 1.412 0 0 1-.408-.109.57.57 0 0 1-.249-.204.638.638 0 0 1-.076-.332c0-.459.297-.688.892-.688.072 0 .147.002.223.006.081.005.151.013.211.026l.032-.867-.058-.007a3.997 3.997 0 0 1-.567-.044 1.076 1.076 0 0 1-.364-.121.499.499 0 0 1-.191-.23.936.936 0 0 1-.057-.35c0-.447.297-.67.892-.67a1.8 1.8 0 0 1 .223.013c.068.008.136.012.204.012.047-.671.079-1.273.096-1.804.021-.531.034-.958.038-1.281 0-.276.019-.51.058-.702.042-.195.102-.357.178-.484a.776.776 0 0 1 .287-.287c.119-.064.255-.102.408-.115.149-.013.349-.034.599-.064.251-.034.561-.05.931-.05.833 0 1.615.27 2.346.81.812.607 1.218 1.342 1.218 2.205 0 1.084-.431 1.949-1.294 2.595-.191.14-.393.257-.606.35a4.1 4.1 0 0 1-.656.217 5.285 5.285 0 0 1-.708.109c-.247.017-.502.025-.765.025Zm.319-4.667a9.12 9.12 0 0 0-.364.007c-.102 0-.189.004-.261.013v.37a29.833 29.833 0 0 1-.045 1.498c-.021.408-.049.862-.083 1.364.111.017.202.03.274.038.073.009.126.013.16.013.246 0 .45-.017.612-.051a1.816 1.816 0 0 0 .733-.325c.094-.072.196-.147.306-.223.468-.34.701-.785.701-1.333 0-.361-.218-.682-.656-.963a2.469 2.469 0 0 0-1.377-.408Z" fill="#E69012"/><path d="M305.412 59.8a10.066 10.066 0 0 1 3.194 7.363c0 5.574-4.519 10.093-10.093 10.093a10.062 10.062 0 0 1-3.943-.8c.553.519 1.162.973 1.816 1.355 1.431-.158 1.498-.115 10.363-.117 6.815-4.193 6.815-13.805-1.337-17.895Z" fill="#E69012"/><path d="M293.394 79.61a1.224 1.224 0 0 1-.326-2.402 20.303 20.303 0 0 1 5.427-.736h12.935a1.22 1.22 0 0 1 1.13.755 1.232 1.232 0 0 1 0 .936 1.222 1.222 0 0 1-1.13.755h-12.935c-.155 0-.31.002-.464.007l-.018.001a17.875 17.875 0 0 0-4.292.64c-.107.029-.217.044-.327.044Z" fill="#EDAA9D"/></g><defs><clipPath id="a"><path fill="#fff" d="M0 0h363v129H0z"/></clipPath></defs></svg>