<svg width="363" height="134" fill="none" xmlns="http://www.w3.org/2000/svg"><g clip-path="url(#a)"><path fill="#C7F2C9" d="M0 0h363v134H0z"/><path d="M391.953 120.889c-.058.276-.118.55-.18.822-1.468 6.5-3.809 11.65-7.003 14.607-21.482 2.755-136.795 1.902-136.795 1.902-5.366-3.404-9.132-9.348-11.177-16.509a43.134 43.134 0 0 1-.226-.822c-2.116-8.016-2.123-17.457.142-26.54.068-.275.139-.549.212-.823 2.445-9.224 7.252-18.021 14.594-24.507a44.205 44.205 0 0 0 2.941-2.855c6.84-7.233 12.309-17.168 18.718-26.54.187-.275.376-.548.565-.822 5.318-7.678 11.317-14.911 19.284-19.886a42.613 42.613 0 0 1 11.058-4.905c18.136-5.131 32.658-3.662 46.021 4.083.459.267.918.541 1.375.822 7.531 4.636 14.715 11.284 22.002 19.886a149.33 149.33 0 0 1 1.627 1.95c5.575 6.786 9.869 15.708 12.911 25.412a115.608 115.608 0 0 1 2.109 7.661l.03.125c.232.973.452 1.95.661 2.931v.001a128.589 128.589 0 0 1 1.852 11.089 127.805 127.805 0 0 1 .624 6.378c.707 9.726.249 18.991-1.345 26.54Z" fill="#D5FBD7"/><path d="M247.124 120.235c-.047.09-.115.187-.219.197-.091.009-.176-.059-.212-.139a.554.554 0 0 1-.031-.259 4.58 4.58 0 0 1 .212-1.153c.041-.126.091-.257.195-.343.633-.523.179 1.464.055 1.697ZM244.258 120.156c.01.057.02.117.002.166-.033.089-.149.092-.232.033a.747.747 0 0 1-.196-.253c-.166-.289-.334-.583-.426-.901-.108-.374-.084-1.037.336-.561.309.351.437 1.084.516 1.516Z" fill="#7096B4"/><path d="M249.468 101.285c.472-.683.684-1.5.81-2.311.105-.68.205-1.404.191-2.09-.011-.558-.389-1.148-.97-.838-.522.278-.99.887-1.326 1.346a6.436 6.436 0 0 0-1.179 2.81c-.099.634-.32 2.002.556 2.267.687.209 1.596-.718 1.918-1.184ZM245.316 100.879c.471 1.006.776 2.083.901 3.179.061.532.073 1.097-.179 1.574-.117.221-.31.428-.565.469-.4.064-.73-.29-.943-.621a7.155 7.155 0 0 1-1.103-4.529c.024-.25.065-.508.21-.717.573-.823 1.424.102 1.679.645ZM250.449 103.126a8.388 8.388 0 0 1-1.324 2.331c-.235.292-.497.576-.836.751-.14.073-.334.118-.444.007a.348.348 0 0 1-.081-.168c-.169-.68.126-1.38.443-2.01.35-.699.763-1.435 1.427-1.908.97-.691 1.1.23.816.997h-.001Z" fill="#C7F2C9"/><path d="m246.145 113.745-.129-.004c.001-.031.125-3.03.631-6.625.467-3.321 1.366-7.843 2.994-10.53l.112.06c-1.617 2.67-2.512 7.176-2.978 10.485a74.906 74.906 0 0 0-.63 6.614Z" fill="#E0BA89"/><path d="m245.95 113.463-.127-.018c.517-3.176-.23-9.11-1.6-12.698l.121-.04c1.376 3.603 2.126 9.564 1.606 12.756ZM246.921 112.902c-.188-1.455-.029-3.359.423-5.092.388-1.488 1.183-3.601 2.765-5.212l.095.081c-2.88 2.933-3.464 7.818-3.155 10.209l-.128.014Z" fill="#E0BA89"/><path d="M243.168 110.35c.963-.483 2.025-.588 2.025-1.686v-.947c0-.101.111-.181.243-.176l1.09.044 1.09-.044c.132-.005.243.075.243.176v.71c0 .486.254.96.7 1.306.46.356 1.146.444 1.575.798.237.197.391.443.514.694.912 1.87-.176 3.907-.763 5.75l-1.229 3.86-.017.054h-4.94l-.85-3.646c-.213-.913-.898-3.767-.923-4.3a3.326 3.326 0 0 1 .311-1.571c.183-.394.461-.782.917-1.013l.015-.008-.001-.001Z" fill="#C7F2C9"/><path d="M244.714 109.503c.235.065.447.125.579.142.785.101 1.584.2 2.377.16.308-.015.617-.055.907-.12l.061.047c.191.139.418.237.651.326-.57.217-1.252.326-1.933.346-.888.025-1.778-.091-2.637-.249a5.883 5.883 0 0 1-.785-.214c.305-.123.579-.254.782-.438h-.002ZM246.874 108.918a14.29 14.29 0 0 1-1.815-.115 1.52 1.52 0 0 0 .007-.139v-.327c.699.077 1.406.143 2.106.127.243-.006.487-.023.721-.053v.016c0 .142.024.282.068.42a8.95 8.95 0 0 1-1.086.071h-.001ZM249.678 112.83c-.008.216-.031.46-.208.595-.031.024-.069.044-.108.041-.061-.005-.103-.06-.128-.113-.088-.185-.079-.396-.083-.599-.007-.354-.522-1.718-.084-1.761.716-.071.625 1.499.612 1.837h-.001ZM247.016 112.391l.001 1.038c0 .073-.001.15-.041.213-.076.122-.272.129-.395.048-.122-.081-.186-.22-.232-.356a2.535 2.535 0 0 1-.022-1.56c.079-.253.268-.546.538-.332.199.158.15.73.15.949h.001ZM246.863 119.018l.002 1.038c0 .073-.001.15-.041.213-.077.122-.273.129-.395.048-.123-.081-.187-.22-.233-.356a2.542 2.542 0 0 1-.021-1.56c.078-.253.268-.546.538-.332.199.157.149.729.15.949ZM248.349 113.318c-.024.101-.066.215-.168.25-.089.031-.191-.016-.249-.088a.595.595 0 0 1-.099-.252 4.695 4.695 0 0 1-.092-1.206c.007-.136.023-.279.105-.391.496-.677.565 1.424.503 1.687ZM247.815 117.99c-.038.097-.095.204-.201.225-.093.019-.187-.04-.234-.119a.566.566 0 0 1-.062-.263c-.026-.403.002-.81.08-1.207.027-.134.063-.273.16-.373.588-.606.357 1.484.257 1.737ZM248.995 116.074c-.043.095-.105.2-.212.217-.093.014-.185-.049-.229-.13a.57.57 0 0 1-.049-.265 4.684 4.684 0 0 1 .136-1.202c.032-.133.075-.27.176-.366.616-.581.288 1.497.177 1.746h.001ZM245.333 113.375c-.018.063-.039.129-.091.171-.095.078-.251.036-.331-.057-.08-.093-.102-.217-.122-.335-.06-.361-.119-.728-.064-1.09.066-.425.473-1.093.769-.441.219.48-.023 1.28-.161 1.752ZM245.638 118.087c-.019.063-.04.128-.091.171-.095.078-.252.035-.332-.057-.079-.093-.102-.217-.121-.336-.06-.36-.12-.728-.064-1.089.066-.425.473-1.093.769-.442.218.48-.023 1.28-.162 1.753h.001ZM246.81 116.626c-.019.063-.04.129-.091.171-.095.078-.252.035-.332-.057-.079-.093-.102-.217-.121-.336-.06-.36-.12-.728-.064-1.089.066-.425.473-1.093.769-.442.218.481-.023 1.28-.162 1.753h.001ZM244.149 111.376a3.018 3.018 0 0 1-.21 1.713.264.264 0 0 1-.066.102c-.074.062-.197.033-.263-.037a.49.49 0 0 1-.106-.259 4.122 4.122 0 0 1-.058-1.075c.025-.334.579-1.165.703-.444ZM244.442 114.598c.248.533.336 1.132.251 1.709a.252.252 0 0 1-.037.114c-.055.078-.182.08-.264.029a.505.505 0 0 1-.172-.225 4.208 4.208 0 0 1-.341-1.026c-.063-.329.252-1.268.562-.6l.001-.001Z" fill="#A3E1A6"/><path d="M374.176 39.624H273.18c.187-.274.375-.548.565-.822h99.74c.23.272.46.546.691.822ZM351.485 18.917h-58.454c.451-.281.907-.555 1.371-.822h55.708c.459.267.917.541 1.375.822ZM388.277 66.987H253.668c.267-.27.531-.544.794-.822h133.56c.086.273.171.547.255.822ZM393.302 94.349H236.719c.068-.275.138-.549.211-.822h156.31l.062.822Z" fill="#C7F2C9"/><path d="M391.954 120.889c-.058.276-.118.55-.179.822H236.8a43.134 43.134 0 0 1-.226-.822h155.38Z" fill="#9DE9A0"/><path d="M359.747 29.967h-18.251v8.836h18.251v-8.836Z" fill="#C7F2C9"/><path d="M351.276 31.497c0-.309-.294-.56-.658-.56-.363 0-.657.251-.657.56 0 .247.187.456.447.53v.735h.421v-.735c.26-.075.447-.283.447-.53Z" fill="#A3E1A6"/><path d="M287.535 66.165v-2.519h-23.658v2.52h23.658Z" fill="#C7F2C9"/><path d="M281.848 65.559v-1.306h-12.267v1.306h12.267Z" fill="#A3E1A6"/><path d="M289.227 63.646v-3.264H269.42v3.264h19.807Z" fill="#C7F2C9"/><path d="M284.449 62.86v-1.693h-10.27v1.693h10.27Z" fill="#A3E1A6"/><path d="M283.215 60.44v-1.694h-16.674v1.694h16.674Z" fill="#C7F2C9"/><path d="M282.242 60.033v-.878h-14.716v.878h14.716Z" fill="#A3E1A6"/><path d="M320.123 59.581c1.433.192 2.989.543 3.842 1.634.953 1.219.989 2.718.384 4.117 2.957-2.078 4.841-4.875 5.825-8.204.624-2.11.772-4.314.828-6.501.038-1.466.034-2.953-.37-4.37-.829-2.904-3.237-5.183-5.806-6.996-1.781-1.257-3.695-2.366-5.77-3.134a19.936 19.936 0 0 0-7.593-1.21c-1.168.041-2.38.203-3.348.814-.592.374-1.057.895-1.498 1.42-1.869 2.225-3.477 4.689-4.312 7.407-.965 3.142-.855 6.523-.008 9.695.597 2.238 1.552 4.381 2.717 6.41.381.665 2.19 3.005 2.19 3.005s-.173-1.433.595-2.364c1.361-1.65 8.641-2.214 12.323-1.723h.001Z" fill="#5C2F1F"/><path d="M324.619 72.07c-2.108-4.162-3.58-11.154-3.27-17.364.205-.352-10.463.002-10.259.354.31 6.21-.757 12.848-2.866 17.01-.681 1.345.499 3.517 1.206 4.819.822 1.512 1.834 2.927 3.135 4.12.863.79 2.345 1.92 3.817 2.335v.024l.039-.012.04.012v-.023c1.472-.416 2.953-1.546 3.817-2.337 1.301-1.192 2.313-2.607 3.135-4.12.707-1.301 1.887-3.473 1.205-4.818h.001Z" fill="#FBAE96"/><path d="M320.719 60.538c.068-.044-5.696-.906-9.613-1.486a44.304 44.304 0 0 1-.227 3.008c1.88.85 6.376 2.27 9.84-1.522Z" fill="#FBAE96" style="mix-blend-mode:multiply" opacity=".28"/><path d="M329.468 41.965c-.373 2.454-1.872 8.588-2.802 10.727-1.887 4.341-4.334 8.002-9.631 9.468-.759.21-1.548.276-2.317.063-4.322-1.2-7.594-5.366-9.177-8.98-1.157-2.638-2.318-5.284-3.168-8.025-1.225-3.952-2.056-7.65-.141-11.493 1.603-3.218 4.59-5.836 8.17-7.053 2.462-.838 4.553-.285 7.024-.304 1.257-.01 2.128-.202 3.421.133 2.469.64 4.773 1.928 6.344 3.841 2.804 3.419 2.925 7.364 2.277 11.623Z" fill="#FBAE96"/><path d="M330.47 33.929c-1.509-3.612-4.732-6.534-8.584-7.983-1.055-.397-2.036-.204-3.039-.431a3.221 3.221 0 0 1-.274-.076c-.263-.394-.582-.724-.968-.952-.905-.535-4.602-.21-6.875.535-10.234 3.356-11.769 13.725-11.884 15.223-.227 2.935-.284 5.885-.078 8.821.205 2.915.683 5.86 1.99 8.515 1.306 2.655 3.525 5.012 6.435 6.088-2.468-4.964-3.477-10.551-2.89-15.996.091-.847.223-1.7.564-2.489.382-.884.998-1.63 1.73-2.293a19.445 19.445 0 0 1 2.443-1.242c.68-.293 1.375-.567 2.067-.847 1.623-.655 3.23-1.34 4.605-2.362.151.099.305.192.459.28 1.131.643 2.356 1.132 3.54 1.686.688.322 1.363.665 1.997 1.073 1.356.874 2.5 2.033 3.319 3.367.365.594.69 1.246 1.287 1.643 1.158.77 2.692-.424 3.278-1.352 2.11-3.34 2.387-7.596.878-11.208Z" fill="#7B3E29"/><path d="M321.973 49.738c-.066.733.611 1.312 1.233.627.267-.295.289-.86.192-1.222-.106-.394-.539-.656-.946-.426-.331.187-.448.684-.479 1.021Z" fill="#7B3E29"/><path d="M315.885 56.505a9.02 9.02 0 0 1-2.346-.31c-.035-.009-.054-.042-.044-.074.009-.032.045-.05.08-.042 1.487.401 3.061.407 4.552.018.034-.008.07.01.08.042a.06.06 0 0 1-.045.074 9.018 9.018 0 0 1-2.277.292ZM315.084 57.678c-.035 0-.064-.026-.064-.06-.001-.033.027-.06.063-.06l1.337-.018c.036 0 .065.026.065.06a.063.063 0 0 1-.064.061l-1.336.017h-.001ZM316.645 53.847c-.006 0-.012 0-.018-.002a3.626 3.626 0 0 1-1.219-.57 1.078 1.078 0 0 1-.311-.311c-.18-.309-.061-.674.044-.996l.011-.034a6.226 6.226 0 0 0 .162-3.255c-.007-.032.016-.064.05-.07.035-.007.069.014.076.046a6.323 6.323 0 0 1-.165 3.314l-.011.034c-.102.314-.208.64-.053.903a.973.973 0 0 0 .276.274c.346.252.752.441 1.175.55a.06.06 0 0 1 .045.073.064.064 0 0 1-.062.044Z" fill="#A45236"/><path d="M324.686 47.201c-.018-.194-.572-.483-.68-.535a3.18 3.18 0 0 0-1.216-.306c-.478-.023-.971.097-1.401.287-.291.128-1.043.538-.436.842.208.104.461.025.685-.042a5.496 5.496 0 0 1 2.614-.122c.096.02.196.04.29.013.109-.032.149-.08.144-.137ZM310.732 49.738c.066.733-.611 1.312-1.233.627-.268-.295-.29-.86-.192-1.222.106-.394.538-.656.946-.426.331.187.448.684.479 1.021ZM308.008 47.201c.018-.194.572-.483.681-.535.376-.18.793-.286 1.215-.306.479-.023.971.097 1.401.287.292.128 1.044.538.436.842-.208.104-.461.025-.685-.042a5.496 5.496 0 0 0-2.614-.122c-.096.02-.196.04-.289.013-.11-.032-.15-.08-.145-.137Z" fill="#7B3E29"/><path d="M328.169 45.202c1.187-.532 2.699.092 3.339 1.09.639.996.596 2.23.365 3.372-.151.747-.381 1.497-.842 2.146-.462.649-1.182 1.19-2.031 1.35-.85.16-1.817-.129-2.238-.78-.151-.234-.227-.5-.29-.764-.417-1.773-.606-5.382 1.697-6.414Z" fill="#FBAE96"/><path d="M327.232 51.31c-.013 0-.024-.008-.024-.02a4.98 4.98 0 0 1 1.075-3.354c.589-.743 1.329-1.147 2.028-1.11.013 0 .023.011.023.023-.001.013-.012.023-.026.022-.971-.052-1.712.746-1.987 1.091-.747.943-1.136 2.154-1.065 3.325 0 .013-.01.023-.023.024h-.001Z" fill="#A45236"/><path d="M327.544 49.315c-.008 0-.017-.005-.021-.012-.007-.01-.003-.024.009-.03.771-.414 1.674-.416 2.301-.007a.022.022 0 0 1 .006.032.026.026 0 0 1-.034.005c-.611-.4-1.494-.396-2.249.009a.026.026 0 0 1-.012.003Z" fill="#A45236"/><path d="M301.493 45.819c-1.311-.114-2.496.961-2.726 2.103-.229 1.143.271 2.286.912 3.282.419.652.914 1.28 1.588 1.74.674.459 1.55.733 2.406.608.856-.126 1.656-.709 1.809-1.456.054-.269.028-.542-.012-.81-.268-1.799-1.433-5.245-3.977-5.467Z" fill="#FBAE96"/><path d="M304.625 51.287a.063.063 0 0 1-.061-.043c-.367-1.112-1.176-2.116-2.219-2.752-.38-.232-1.358-.732-2.232-.377a.066.066 0 0 1-.084-.031.059.059 0 0 1 .033-.08c.656-.266 1.513-.125 2.354.387 1.068.652 1.896 1.68 2.272 2.818a.06.06 0 0 1-.043.075.063.063 0 0 1-.019.003h-.001Z" fill="#A45236"/><path d="M301.459 50.244a.068.068 0 0 1-.037-.01.058.058 0 0 1-.016-.084c.444-.6 1.308-.896 2.201-.756.035.006.058.037.052.07-.006.033-.039.054-.074.05-.843-.133-1.657.143-2.073.704a.067.067 0 0 1-.053.026Z" fill="#A45236"/><path d="M325.556 52.068c.413 4.603-.329 9.238-1.508 13.725 4.474-2.838 7.901-7.188 9.103-12.11.163-.666.285-1.338.387-2.013.838-5.522.51-13.503-4.059-19.648-.456-.614-4.039-.02-4.654-.496-.686-.532 3.78 1.138 2.891 1.191-.89.054-1.746.333-2.567.656a22.326 22.326 0 0 0-3.614 1.814c-.396.246-.799.52-1.01.92-.246.462-.19 1.008-.129 1.522.172 1.442.317 2.023 1.183 3.23a20.245 20.245 0 0 1 2.001 3.488c1.053 2.336 1.976 5.162 1.976 7.721Z" fill="#7B3E29"/><path d="M342.733 81.21c-3.057-3.874-8.424-5.04-12.865-6.967-2.354-1.021-4.44-1.992-6.041-3.932-.423-.514-14.094-1.347-14.853.052-1.143 2.109-3.971 2.859-6.325 3.88-4.442 1.927-9.169 3.476-12.226 7.351-1.609 2.04-2.938 4.309-2.51 6.81.338 1.978 1.326 3.797 2.19 5.63 3.177 6.743 7.785 30.257 9.969 42.539 7.943 4.201 26.845 1.869 32.004.27 2.263-12.537 7.233-36.22 10.337-42.81.864-1.833 1.852-3.651 2.19-5.63.428-2.5-.261-5.153-1.871-7.193h.001Z" fill="#FBAE96"/><path d="M334.193 75.925s-15.858 2.692-33.445-.909c-8.143 2.008-13.738 8.256-17.514 15.981-5.578 11.412 10.52 3.54 11.43 21.121.03.589.891 1.413.861 1.346.445.985.503 2.332.726 3.385.515 2.428 1.01 4.859 1.492 7.292a651.898 651.898 0 0 1 2.337 12.432c7.943 4.202 26.845 1.869 32.004.271 2.263-12.538 7.233-36.221 10.338-42.81.863-1.833 2.028-11.591.89-13.188-2.473-3.471-9.118-4.92-9.118-4.92h-.001Z" fill="#fff"/><path d="M343.532 81.227c6.167 7.819 9.885 21.147 13.462 30.986 3.623 9.966 3.395 12.487 2.36 14.856-1.54 3.524-14.699-.231-17.411-5.893-2.714-5.663-6.712-16.468-8.389-21.341-1.676-4.873.763-17.22 9.978-18.608Z" fill="#fff"/><path d="M310.02 132.14s-.16 1.124-.62 2.054c-.324.657-.798 1.218-1.469 1.218-2.38 0-6.054.177-7.137 0-.434-.07-.483-.34-.266-.807.26-.558.902-1.398 1.726-2.52.211-.288.434-.594.666-.918l5.177.709 1.924.264h-.001ZM326.469 131.609c-.061 1.48-.331 3.803-1.436 3.803-2.38 0-6.054.177-7.137 0-.434-.07-.484-.339-.266-.807.047-.102.107-.213.179-.333.421-.71 1.241-1.744 2.213-3.105l4.651-.544 1.806-.212s.018.507-.01 1.198Z" fill="#FCC583"/><path d="M334.191 119.05c0 8.108-9.418 14.682-21.037 14.682-5.274 0-10.094-1.354-13.786-3.592-2.364-1.433-4.266-3.228-5.528-5.261-.293-.473-3.451-.12-3.896-.463-.806-.619-.448-6.191.215-6.928.229-.255 2.177-.632 2.32-1.161 1.829-6.807 10.391-11.958 20.675-11.958 6.804 0 12.854 2.254 16.699 5.751 2.721 2.474 4.338 5.571 4.338 8.93Z" fill="#FCC583"/><path d="M302.899 109.675c-.655.329-1.292.383-1.842.256a2.505 2.505 0 0 1-.131-.144c-.008-.01-.019-.019-.028-.028-1.311-1.336-1.855-5.095-1.498-5.982a.329.329 0 0 1 .193-.198c.183-.07.458-.003.789.156 1.227.722 2.551 1.614 2.964 2.08.745.839 1.638 2.813-.447 3.859v.001ZM333.271 115.706c.836.147 2.005.033 2.61-.423 1.079-.813 1.505-2.118 1.785-3.359.117-.631.401-1.892-.201-2.362-.388-.297-.982-.064-1.215.309-.231.367-.212.813-.1 1.219.491 1.716 2.739 2.719 4.503 2.111 1.399-.484 1.723-1.202 1.42-.785-1.364 1.879-4.685 1.367-5.863-.508-.43-.684-.676-1.694-.073-2.355.367-.39 1.051-.555 1.508-.2.74.582.526 1.84.367 2.595-.242 1.02-.49 2.41-1.15 3.271-.8 1.066-2.217 2.051-3.651 1.741-.818-.163-1.002-1.439.059-1.253l.001-.001Z" fill="#FCC583"/><path d="M322.439 107.117c-2.216-.608-4.947-1.023-7.912-1.143-3.004-.121-5.796.08-8.077.52-.1-.106-.214-.16-.36-.251 1.914-.793 4.945-1.168 8.471-.999 3.979.19 6.329.772 8.188 1.65a6.314 6.314 0 0 0-.31.223ZM299.487 114.506c.104-.671-.085-1.252-.422-1.297-.337-.046-.695.461-.799 1.132-.104.671.085 1.252.422 1.298.338.045.695-.462.799-1.133Z" fill="#BD8440"/><path d="M292.264 79.196c-8.08 6.115-16.771 18.99-22.891 27.669-6.198 8.791-7.552 15.703-3.477 18.443 3.308 2.226 11.467-1.387 15.621-6.227 4.155-4.841 10.944-14.356 13.883-18.677 2.939-4.321 5.406-17.695-3.136-21.207Z" fill="#fff"/><path d="M301.176 96.102a3.64 3.64 0 0 0-.134.112c-.423.362-1.964.84-2.698 1.645-5.819 6.375-19.297 24.974-23.567 26.872-4.869 2.163-8.276 1.318-9.705-1.006-2.035-3.306-.612-7.256 3.199-11.186 3.59-3.702 21.482-15.33 26.627-21.078.316-.352.584-.682.797-.987l.001-.002c1.531-2.188 5.846.94 6.255 3.595.118.764-.088 1.488-.775 2.035Z" fill="#FBAE96"/><path d="M297.556 89.552c-.763-.57-.514-1.499.486-2.717.999-1.22 3.842-4.408 4.534-5.201.691-.794 3.131-3.113 4.337-3.015 1.119.091-1.976 4.222-2.268 4.586-.293.364-3.857 4.396-4.572 5.245-.716.849-1.636 1.759-2.517 1.101Z" fill="#FBAE96"/><path d="M300.63 89.277c-.763-.57-.514-1.498.486-2.717.999-1.219 3.842-4.408 4.534-5.2.691-.794 3.119-3.113 4.336-3.016 1.12.09-1.975 4.222-2.267 4.586-.293.364-3.858 4.396-4.573 5.245-.715.849-1.635 1.76-2.516 1.102Z" fill="#FBAE96"/><path d="M310.94 90.622c.483.597 1.03 1.382 1.427 1.63.396.247 3.176 2.076 1.238-1.477-1.937-3.553-1.457-3.337-2.498-4.629-1.041-1.292-4.405.248-7.374 1.531-3.074 1.329-3.47 2.67-3.067 3.304.403.634 1.604 1.458 3.516.126 1.899-1.323 4.879-3.095 5.422-2.299.543.797.923 1.302 1.336 1.814Z" fill="#FBAE96"/><path d="M303.829 89.14c-.763-.57-.513-1.498.486-2.717 1-1.219 3.842-4.407 4.534-5.2.692-.794 3.312-3.3 4.337-3.016 1.077.3-1.975 4.223-2.268 4.586-.292.364-3.857 4.397-4.572 5.245-.715.85-1.636 1.76-2.516 1.102h-.001ZM306.737 96.04c.643.762 1.688 1.134 2.184 1.648.495.514.895 1.67-.829 1.245-1.724-.424-2.248-.96-3.655-1.449-.965-.336-1.787-.044-2.931-.076-1.448-.041-1.413-.88-2.736.076-1.573 1.135 9.26-11.16 7.993-9.793-1.153 1.244-2.947 3.563-2.576 5.616.188 1.037 2.003 2.083 2.55 2.732Z" fill="#FBAE96"/><path d="m305.706 88.849-.035.361c-.025.257-4.039 6.666-4.573 6.956l-.096.052c-.43.242-1.221.048-1.62.345-.483.358-1.088.725-1.434 1-1.384 1.095-6.174-.847-4.379-3.488.514-.754.977-1.547 1.427-2.348.234-.417.465-.836.698-1.253l.001-.001c.707-1.268 1.43-2.515 2.314-3.62.204-.255.417-.503.64-.741 1.094-1.168 6.056 1.125 7.057 2.737Z" fill="#FBAE96"/><path d="M301.619 86.544a.066.066 0 0 1-.038-.012.058.058 0 0 1-.014-.085c.022-.027 2.239-2.807 4.541-5.519a.068.068 0 0 1 .091-.01c.028.021.033.06.01.085a263.268 263.268 0 0 0-4.538 5.517.066.066 0 0 1-.052.024ZM304.354 87.114a.069.069 0 0 1-.039-.012.058.058 0 0 1-.013-.084c.024-.03 2.46-3.078 4.763-5.79a.067.067 0 0 1 .09-.009c.028.02.033.059.011.085a295.065 295.065 0 0 0-4.761 5.786.064.064 0 0 1-.051.024Z" fill="#E8825F"/><path d="M359.546 123.614c-1.424-3.573-5.589-5.078-11.263-4.853-5.673.225-25.956 6.9-32.665 6.177-3.582-.386-3.127 5.911.895 6.326 4.021.415 32.765 2.072 37.659-.041 4.895-2.113 6.375-5.098 5.374-7.609Z" fill="#FBAE96"/><path d="M304.556 128.739c-.33-1.881-.498-3.707-.144-5.481 1.209.119 2.833.197 3.955.387 1.717.3 3.372.809 5.083 1.223.877.209 1.532-.322 2.342-.264.936.067 4.032.161 5.779-.093 1.105-.161-.193 2.35.155 3.321.043.119.083.242.072.354-.013.134-.101.236-.186.331-.926 1.035-.777 2.96-2.39 2.96-2.093 0-4.327.161-5.978.154-2.398.011-5.627-.094-8.228-.155-.564-1.02-.273-1.704-.46-2.737Z" fill="#FBAE96"/><path d="M296.303 122.474c-.365-.017-.745-.033-1.092.048-.346.082-.66.281-.709.564a.338.338 0 0 0 .088.302c.101.106.271.156.426.199 3.676.992 6.711 1.379 10.429 2.073 1.338.23.573-1.667-.058-2.069-.543-.339-1.141-.347-1.785-.433a85.104 85.104 0 0 0-7.299-.684ZM296.814 128.177c-.405-.086-.827-.177-1.207-.128-.38.05-.697.292-.59.602.085.247.4.451.696.615 1.983 1.098 4.273 1.637 6.424 1.942 1.796.249 3.067.419 4.953.08.166-.031.341-.485.422-.598.379-.539-.532-1.223-1.165-1.357-.711-.149-1.64-.032-2.379-.095a57.299 57.299 0 0 1-7.155-1.061h.001Z" fill="#FBAE96"/><path d="M304.794 125.644c.106.335-8.572-1.671-11.254-1.334-.285.036-.557.166-.706.396-.451.696.006 2.327 11.79 4.397.839.166 1.675.312 2.505.438a34.484 34.484 0 0 1-2.334-3.897h-.001Z" fill="#FBAE96"/><path d="M304.599 127.421h-.008c-3.479-.436-7.299-1.053-11.671-2.6a.059.059 0 0 1-.037-.077c.012-.031.05-.046.083-.035 4.359 1.543 8.171 2.158 11.641 2.592.036.005.061.035.056.068-.004.03-.032.052-.064.052Z" fill="#E8825F"/><path d="M310.76 122.099c-.81-.266-1.596-.565-2.429-.673-.741-.096-1.444-.628-2.015-1.083-.101-.08-.26-.03-.316.099-.242.564-.15 1.231.171 1.756.368.603.982 1.045 1.617 1.431.636.388 1.311.741 1.891 1.248.38.331.717.726 1.137 1.036.477.351.95.412 1.497.518.691.133 1.385.194 2.073.233.685.053 2.683.111 2.879-.669.202-.803-1.044-1.335-1.649-1.728-1.657-1.055-3.239-1.638-4.856-2.168Z" fill="#FBAE96"/><path d="M312.173 96.618c1.349-1.26 1.349-3.3 0-4.56-1.349-1.26-3.537-1.26-4.886 0-1.349 1.26-1.349 3.3 0 4.56 1.349 1.26 3.537 1.26 4.886 0Z" fill="#FFCA42"/><path d="M309.73 97.004c-.104 0-.208-.005-.314-.016a2.897 2.897 0 0 1-1.918-.98 2.53 2.53 0 0 1-.614-1.96 2.61 2.61 0 0 1 1.051-1.79 2.98 2.98 0 0 1 2.099-.572c1.566.158 2.702 1.477 2.532 2.94a2.612 2.612 0 0 1-1.05 1.79 2.965 2.965 0 0 1-1.785.588h-.001Zm-.01-5.214c-.619 0-1.215.195-1.705.563a2.491 2.491 0 0 0-1.003 1.709c-.078.676.13 1.34.587 1.87.456.53 1.107.863 1.831.937a2.846 2.846 0 0 0 2.004-.547 2.491 2.491 0 0 0 1.003-1.71c.163-1.395-.922-2.655-2.417-2.807-.1-.01-.201-.015-.3-.015Z" fill="#D1990A"/><path d="M309.7 91.79a.061.061 0 0 1-.063-.06v-.54c0-.034.028-.06.063-.06s.064.026.064.06v.54c0 .033-.029.06-.064.06ZM309.7 97.544a.061.061 0 0 1-.063-.06v-.54c0-.034.028-.06.063-.06s.064.026.064.06v.54c0 .034-.029.06-.064.06ZM313.073 94.399h-.579a.062.062 0 0 1-.064-.061c0-.034.028-.06.064-.06h.579c.036 0 .065.026.065.06s-.029.06-.065.06ZM306.902 94.398h-.58c-.035 0-.064-.027-.064-.06 0-.034.029-.06.064-.06h.58c.035 0 .064.026.064.06 0 .033-.029.06-.064.06ZM311.69 92.554a.066.066 0 0 1-.046-.018.058.058 0 0 1 0-.085l.41-.382a.067.067 0 0 1 .091 0 .058.058 0 0 1 0 .085l-.41.382a.066.066 0 0 1-.045.018ZM307.338 96.624a.07.07 0 0 1-.046-.018.058.058 0 0 1 0-.085l.41-.382a.067.067 0 0 1 .091 0 .058.058 0 0 1 0 .085l-.409.382a.07.07 0 0 1-.046.018ZM312.099 96.623a.066.066 0 0 1-.045-.018l-.41-.382a.058.058 0 0 1 0-.085.067.067 0 0 1 .091 0l.41.382a.058.058 0 0 1 0 .085.07.07 0 0 1-.046.018ZM307.748 92.554a.066.066 0 0 1-.046-.018l-.41-.382a.058.058 0 0 1 0-.085.069.069 0 0 1 .092 0l.409.382a.058.058 0 0 1 0 .085.066.066 0 0 1-.045.018Z" fill="#D1990A"/><path d="M301.585 86.544c-.544 0-1.085-.276-1.301-.477a.058.058 0 0 1 0-.085.068.068 0 0 1 .092 0c.193.18.707.442 1.21.442h.032c.037 0 .065.025.066.058.001.034-.027.061-.063.062h-.036ZM304.327 87.114c-.544 0-1.085-.276-1.3-.477a.057.057 0 0 1 0-.085.068.068 0 0 1 .091 0c.194.18.707.442 1.21.442h.032c.038 0 .065.026.066.058.001.034-.027.061-.062.062h-.037ZM307.776 86.25a.066.066 0 0 1-.06-.037c-.014-.03.001-.066.034-.08l1.261-.504c.033-.013.071.001.085.031.014.03-.001.066-.034.08l-1.261.504a.07.07 0 0 1-.025.005ZM301.618 89.481c-1.2 0-2.332-.143-2.853-.22-.035-.005-.059-.036-.053-.069.005-.032.038-.055.074-.05.69.102 2.466.322 4.034.163.737-.075 1.756-.37 2.595-.751a.067.067 0 0 1 .086.028c.016.03.002.065-.03.08-.85.387-1.886.687-2.637.763-.399.04-.811.056-1.215.056h-.001ZM298.611 91.79a.065.065 0 0 1-.06-.038c-.013-.03.004-.066.037-.078 2.066-.75 5.577-1.035 6.052-1.035.035 0 .064.027.064.06 0 .034-.029.06-.064.06-.471 0-3.956.284-6.005 1.028a.072.072 0 0 1-.024.004Z" fill="#E8825F"/><path d="M299.963 92.91a.072.072 0 0 1-.024-.004.059.059 0 0 1-.036-.078c.187-.448 1.411-1.484 2.456-1.97a.066.066 0 0 1 .086.027c.016.03.003.066-.029.08-1.003.467-2.218 1.486-2.393 1.907a.065.065 0 0 1-.06.038Z" fill="#E8825F"/></g><defs><clipPath id="a"><path fill="#fff" d="M0 0h363v134H0z"/></clipPath></defs></svg>