<svg width="514" height="146" fill="none" xmlns="http://www.w3.org/2000/svg"><g clip-path="url(#a)"><path fill="#C7F2C9" d="M0 0h514v146H0z"/><path d="M526.192 126.158c-.063.3-.128.597-.195.891-1.592 7.049-4.131 12.633-7.594 15.84-23.294 2.987-148.334 2.063-148.334 2.063-5.818-3.692-9.902-10.137-12.119-17.903a41.58 41.58 0 0 1-.245-.891c-2.294-8.692-2.302-18.93.154-28.78.073-.297.15-.594.229-.89 2.652-10.003 7.864-19.542 15.825-26.575a48.277 48.277 0 0 0 3.19-3.096c7.417-7.843 13.347-18.616 20.296-28.779.203-.297.408-.594.613-.89 5.766-8.327 12.271-16.17 20.911-21.564a46.218 46.218 0 0 1 11.99-5.318c19.667-5.565 35.413-3.972 49.903 4.427.498.29.995.586 1.491.891 8.166 5.026 15.957 12.235 23.859 21.563a225.755 225.755 0 0 1 1.764 2.115c6.044 7.358 10.701 17.033 13.999 27.555a125.17 125.17 0 0 1 2.288 8.308l.032.135c.252 1.055.49 2.115.717 3.178v.002a140.034 140.034 0 0 1 2.008 12.023v.001c.248 2.019.451 4.03.609 6.024.023.298.046.595.067.891.767 10.547.27 20.593-1.458 28.779Z" fill="#D5FBD7"/><path d="M369.147 125.449c-.051.097-.124.202-.237.213-.099.01-.191-.063-.23-.15a.595.595 0 0 1-.033-.281c.022-.424.1-.844.23-1.25.043-.137.098-.279.211-.372.687-.567.194 1.587.059 1.84ZM366.037 125.363a.355.355 0 0 1 .003.18c-.036.096-.162.099-.252.036-.09-.064-.154-.171-.213-.274-.179-.314-.362-.633-.461-.978-.117-.405-.092-1.124.364-.607.335.38.474 1.174.559 1.643Z" fill="#7096B4"/><path d="M371.685 104.9c.512-.741.742-1.627.878-2.506.114-.736.222-1.522.207-2.267-.012-.604-.421-1.244-1.051-.908-.566.302-1.074.962-1.438 1.46a6.985 6.985 0 0 0-1.279 3.047c-.107.687-.347 2.171.603 2.458.745.226 1.731-.778 2.08-1.284ZM367.177 104.46c.511 1.091.842 2.259.978 3.447.065.577.079 1.189-.195 1.707-.126.24-.336.464-.612.509-.435.069-.792-.315-1.023-.674a7.762 7.762 0 0 1-1.196-4.911c.026-.271.071-.55.228-.777.621-.893 1.544.11 1.821.699h-.001ZM372.746 106.897a9.06 9.06 0 0 1-1.436 2.527c-.254.317-.539.625-.907.815-.151.078-.362.127-.481.008a.376.376 0 0 1-.087-.183c-.184-.737.137-1.496.479-2.18.381-.758.828-1.555 1.548-2.068 1.052-.749 1.193.249.885 1.081h-.001Z" fill="#C7F2C9"/><path d="m368.081 118.411-.14-.004c.002-.033.136-3.286.685-7.184.507-3.6 1.482-8.504 3.247-11.418l.122.064c-1.754 2.896-2.725 7.782-3.23 11.37-.548 3.893-.682 7.14-.684 7.173v-.001Z" fill="#E0BA89"/><path d="m367.862 118.106-.139-.019c.561-3.445-.249-9.879-1.735-13.769l.132-.044c1.492 3.907 2.305 10.37 1.742 13.832ZM368.92 117.498c-.204-1.579-.032-3.643.458-5.523.421-1.613 1.283-3.903 2.999-5.651l.103.088c-3.123 3.18-3.756 8.478-3.422 11.07l-.138.016Z" fill="#E0BA89"/><path d="M364.856 114.73c1.044-.524 2.195-.637 2.195-1.828v-1.027c0-.109.121-.196.264-.19l1.181.047 1.182-.047c.143-.006.263.081.263.19v.77c0 .527.276 1.041.76 1.416.498.386 1.242.481 1.707.866.258.213.425.48.558.752.989 2.028-.191 4.237-.827 6.235l-1.333 4.185-.018.06h-5.357l-.922-3.954c-.231-.99-.974-4.086-1.001-4.663a3.61 3.61 0 0 1 .338-1.704c.198-.427.499-.848.994-1.098l.016-.009v-.001Z" fill="#C7F2C9"/><path d="M366.53 113.811c.255.071.484.136.628.155.851.109 1.717.216 2.577.173.334-.017.669-.059.984-.13.021.017.043.035.066.051.207.151.453.257.705.354-.617.234-1.357.353-2.095.374-.963.028-1.929-.098-2.86-.27a6.378 6.378 0 0 1-.851-.232c.331-.133.628-.275.848-.475h-.002ZM368.879 113.177a15.607 15.607 0 0 1-1.969-.124 1.48 1.48 0 0 0 .008-.151v-.355c.758.084 1.525.156 2.283.138a7.69 7.69 0 0 0 .783-.057v.016c0 .154.025.307.074.456a9.851 9.851 0 0 1-1.179.077ZM371.916 117.419c-.009.234-.034.499-.225.645a.18.18 0 0 1-.117.044c-.066-.005-.112-.064-.139-.122-.096-.2-.086-.43-.09-.65-.008-.384-.566-1.862-.092-1.909.777-.077.678 1.625.664 1.992h-.001ZM369.021 116.943l.001 1.126c0 .08-.001.163-.044.231-.083.132-.296.14-.428.052-.133-.088-.203-.239-.253-.386a2.752 2.752 0 0 1-.023-1.691c.085-.275.29-.593.584-.361.215.171.162.791.162 1.029h.001ZM368.864 124.129l.002 1.126c0 .079-.001.162-.044.23-.083.132-.296.14-.429.052-.133-.087-.202-.238-.252-.385a2.755 2.755 0 0 1-.023-1.692c.085-.275.29-.593.583-.36.216.171.162.791.163 1.029ZM370.475 117.949c-.026.109-.072.232-.182.271-.096.033-.207-.018-.27-.096a.631.631 0 0 1-.107-.273 5.04 5.04 0 0 1-.1-1.308c.008-.147.024-.302.113-.424.539-.734.614 1.544.546 1.83ZM369.901 123.014c-.041.105-.104.222-.218.245-.101.02-.204-.045-.254-.13a.617.617 0 0 1-.067-.285 5.037 5.037 0 0 1 .087-1.308c.029-.146.068-.297.173-.405.637-.657.387 1.609.279 1.883ZM371.173 120.937c-.046.103-.114.216-.23.235-.101.016-.201-.053-.248-.141a.623.623 0 0 1-.054-.287 5.118 5.118 0 0 1 .148-1.304c.035-.144.082-.293.192-.397.667-.629.312 1.624.191 1.893l.001.001ZM367.199 118.01c-.02.068-.043.139-.099.185-.103.085-.273.039-.359-.062-.087-.1-.111-.235-.132-.363-.065-.391-.13-.79-.069-1.182.071-.46.512-1.185.833-.478.237.52-.024 1.387-.175 1.9h.001ZM367.535 123.12c-.02.068-.043.139-.099.185-.103.084-.273.038-.359-.062-.087-.101-.111-.235-.132-.364-.065-.391-.13-.789-.069-1.181.071-.461.512-1.185.833-.479.237.521-.024 1.388-.175 1.9l.001.001ZM368.808 121.535c-.02.068-.043.14-.098.185-.103.085-.274.039-.36-.062-.086-.1-.11-.235-.132-.363-.065-.391-.129-.79-.069-1.181.071-.461.513-1.186.834-.479.237.52-.025 1.388-.175 1.9ZM365.924 115.842a3.284 3.284 0 0 1-.227 1.858.28.28 0 0 1-.072.11c-.08.067-.214.036-.285-.039a.54.54 0 0 1-.116-.281 4.51 4.51 0 0 1-.062-1.166c.028-.362.627-1.264.762-.482ZM366.236 119.337c.269.577.365 1.227.273 1.852a.293.293 0 0 1-.04.124c-.06.085-.198.087-.287.031a.537.537 0 0 1-.186-.244 4.53 4.53 0 0 1-.37-1.112c-.069-.357.273-1.375.61-.651Z" fill="#A3E1A6"/><path d="M518.052 122.247c0 3.604-3.431 3.903-7.663 3.903-2.076 0-3.983.112-5.363-.566-1.433-.705-2.299-1.501-2.299-3.337 0-2.892 2.343-6.273 5.403-7.414.363-.135.121-1.824-.541-2.88-.309-.492.753-.653 1.821-.006-.116-.673.519-.979.96-.979.44 0 .862.215.917.956.637-.612 1.927-.52 1.588-.087-.657.84-1.053 2.913-.762 2.99 2.48.654 4.5 2.65 5.413 4.884.34.831.526 1.696.526 2.537v-.001Z" fill="#C7F2C9"/><path d="M512.164 113.964h-3.947a.029.029 0 0 0-.029.028v.612c0 .015.013.027.029.027h3.947c.016 0 .03-.012.03-.027v-.612c0-.015-.014-.028-.03-.028Z" fill="#A3E1A6"/><path d="M506.914 38.038H397.398c.203-.297.408-.594.613-.89h108.153c.25.294.5.591.75.89ZM482.31 15.585h-63.384c.488-.305.983-.602 1.486-.891h60.407c.498.29.995.586 1.491.891ZM522.209 67.709H376.246c.289-.293.576-.59.861-.891h144.827c.093.297.185.593.275.891ZM527.655 97.38H357.863c.074-.298.15-.595.23-.892h169.494l.068.891Z" fill="#C7F2C9"/><path d="M526.198 126.158c-.064.3-.129.597-.195.891H357.956a41.58 41.58 0 0 1-.245-.891h168.487Z" fill="#9DE9A0"/><path d="M491.27 27.566h-19.79v9.582h19.79v-9.582Z" fill="#C7F2C9"/><path d="M482.082 29.226c0-.335-.319-.607-.713-.607-.394 0-.713.271-.713.607 0 .267.203.494.485.574v.798h.457V29.8c.281-.08.484-.307.484-.574Z" fill="#A3E1A6"/><path d="m511.995 96.418-3.003-.663 5.485-17.997 3.002.663-5.484 17.997Z" fill="#C7F2C9"/><path d="m511.592 95.202-1.557-.344 4.841-15.884 1.556.344-4.84 15.884Z" fill="#A3E1A6"/><path d="M412.973 66.819v-2.732h-25.654v2.731h25.654Z" fill="#C7F2C9"/><path d="M406.805 66.161v-1.416h-13.302v1.416h13.302Z" fill="#A3E1A6"/><path d="M414.789 64.088v-3.54h-21.478v3.54h21.478Z" fill="#C7F2C9"/><path d="M409.605 63.236V61.4h-11.136v1.836h11.136Z" fill="#A3E1A6"/><path d="M408.273 60.61v-1.836h-18.08v1.836h18.08Z" fill="#C7F2C9"/><path d="M407.215 60.169v-.952h-15.957v.952h15.957Z" fill="#A3E1A6"/><path d="M448.289 59.68c1.554.207 3.241.588 4.166 1.771 1.033 1.322 1.073 2.947.417 4.464 3.206-2.254 5.249-5.286 6.316-8.897.676-2.286.837-4.677.898-7.049.041-1.589.037-3.201-.401-4.738-.899-3.15-3.511-5.62-6.296-7.586-1.931-1.363-4.006-2.566-6.257-3.398a21.614 21.614 0 0 0-8.233-1.313c-1.267.045-2.582.22-3.631.883-.642.406-1.146.971-1.624 1.54-2.027 2.413-3.77 5.084-4.676 8.031-1.046 3.408-.926 7.074-.009 10.513.648 2.427 1.683 4.751 2.947 6.952.413.72 2.375 3.258 2.375 3.258s-.188-1.555.645-2.564c1.476-1.788 9.37-2.4 13.362-1.868h.001Z" fill="#5C2F1F"/><path d="M453.172 73.221c-2.287-4.514-3.882-12.095-3.546-18.828.222-.383-11.346.001-11.124.384.336 6.733-.822 13.93-3.108 18.444-.739 1.458.54 3.813 1.307 5.225.891 1.64 1.989 3.175 3.4 4.467.936.858 2.542 2.083 4.138 2.533v.026c.015-.004.029-.01.043-.013l.043.013v-.026c1.596-.45 3.203-1.675 4.139-2.533 1.411-1.292 2.508-2.827 3.399-4.467.767-1.412 2.047-3.767 1.308-5.225h.001Z" fill="#FBAE96"/><path d="M448.939 60.717c.075-.048-6.176-.983-10.423-1.611a48.468 48.468 0 0 1-.246 3.261c2.038.922 6.914 2.462 10.669-1.65Z" fill="#FBAE96" style="mix-blend-mode:multiply" opacity=".28"/><path d="M458.424 40.577c-.405 2.662-2.031 9.312-3.039 11.632-2.046 4.707-4.699 8.677-10.443 10.266-.823.228-1.679.3-2.512.069-4.687-1.3-8.235-5.819-9.952-9.737-1.254-2.861-2.513-5.73-3.435-8.703-1.329-4.285-2.229-8.296-.153-12.462 1.738-3.49 4.978-6.328 8.859-7.649 2.67-.908 4.937-.308 7.616-.328 1.363-.01 2.308-.22 3.71.144 2.677.694 5.176 2.09 6.879 4.165 3.041 3.707 3.172 7.985 2.47 12.603Z" fill="#FBAE96"/><path d="M459.515 31.863c-1.637-3.917-5.132-7.085-9.309-8.657-1.144-.43-2.207-.221-3.295-.467a3.474 3.474 0 0 1-.297-.083c-.286-.427-.631-.784-1.05-1.032-.982-.58-4.99-.227-7.455.58-11.097 3.64-12.761 14.883-12.886 16.508-.246 3.182-.308 6.38-.085 9.565.222 3.16.741 6.354 2.158 9.233 1.416 2.879 3.823 5.435 6.978 6.601-2.676-5.382-3.771-11.441-3.134-17.345.098-.918.241-1.843.611-2.699.415-.959 1.083-1.768 1.876-2.486a21.215 21.215 0 0 1 2.649-1.347c.738-.318 1.492-.615 2.242-.918 1.76-.71 3.502-1.453 4.993-2.561.164.106.331.207.499.303 1.226.697 2.554 1.227 3.837 1.828.747.349 1.479.721 2.166 1.164a11.603 11.603 0 0 1 3.6 3.65c.395.644.747 1.352 1.395 1.783 1.255.834 2.918-.46 3.554-1.467 2.288-3.62 2.589-8.236.952-12.153h.001Z" fill="#7B3E29"/><path d="M450.298 49.005c-.072.795.662 1.422 1.336.68.291-.32.314-.932.209-1.325-.115-.427-.584-.71-1.026-.462-.359.203-.486.742-.519 1.107Z" fill="#7B3E29"/><path d="M443.696 56.344a9.788 9.788 0 0 1-2.544-.336.066.066 0 0 1-.048-.081c.01-.035.05-.055.087-.045a9.644 9.644 0 0 0 4.936.02c.037-.01.076.01.087.045a.065.065 0 0 1-.049.08 9.778 9.778 0 0 1-2.469.316ZM442.832 57.616c-.039 0-.07-.03-.07-.065-.001-.037.03-.066.069-.067l1.449-.019c.04 0 .07.029.071.065a.069.069 0 0 1-.069.067l-1.449.019h-.001ZM444.521 53.462l-.018-.003a3.935 3.935 0 0 1-1.323-.618 1.178 1.178 0 0 1-.337-.338c-.195-.334-.066-.73.048-1.08l.012-.037a6.76 6.76 0 0 0 .176-3.529c-.008-.035.016-.07.054-.076.038-.007.075.015.083.05a6.885 6.885 0 0 1-.179 3.593l-.012.037c-.112.341-.226.694-.059.98.072.122.192.219.3.297.375.273.816.478 1.274.595.037.01.059.046.049.08a.07.07 0 0 1-.068.048Z" fill="#A45236"/><path d="M453.243 46.255c-.019-.211-.62-.524-.738-.58a3.442 3.442 0 0 0-1.318-.333c-.519-.025-1.053.106-1.519.311-.316.14-1.131.584-.473.914.226.112.5.026.743-.046a5.964 5.964 0 0 1 2.835-.132c.103.02.212.043.313.014.119-.035.163-.088.157-.149ZM438.118 49.005c.072.795-.662 1.422-1.336.68-.291-.32-.315-.932-.209-1.325.115-.427.584-.71 1.026-.462.359.203.486.742.519 1.107ZM435.157 46.255c.019-.211.62-.524.737-.58.408-.196.861-.311 1.319-.333.518-.025 1.052.106 1.519.311.316.14 1.131.584.472.914-.225.112-.499.026-.743-.046a5.96 5.96 0 0 0-2.834-.132c-.104.02-.213.043-.314.014-.119-.035-.162-.088-.156-.149Z" fill="#7B3E29"/><path d="M457.01 44.087c1.287-.577 2.926.1 3.62 1.182.693 1.08.647 2.42.396 3.657-.164.81-.413 1.623-.913 2.327-.5.703-1.281 1.29-2.203 1.463-.921.173-1.969-.139-2.426-.845-.164-.254-.247-.542-.314-.829-.453-1.922-.658-5.836 1.84-6.955Z" fill="#FBAE96"/><path d="M455.996 50.712a.025.025 0 0 1-.026-.024c-.077-1.28.348-2.606 1.166-3.636.639-.805 1.442-1.244 2.199-1.204.015.001.025.012.025.026-.001.013-.013.024-.028.023-1.053-.056-1.857.81-2.154 1.184-.811 1.021-1.232 2.335-1.156 3.605.001.013-.01.025-.025.026h-.001Z" fill="#A45236"/><path d="M456.339 48.547a.027.027 0 0 1-.023-.012.023.023 0 0 1 .01-.033c.836-.449 1.816-.451 2.495-.007a.024.024 0 0 1 .007.034.029.029 0 0 1-.037.006c-.662-.434-1.62-.43-2.439.009a.028.028 0 0 1-.013.003Z" fill="#A45236"/><path d="M428.091 44.756c-1.421-.124-2.707 1.042-2.955 2.28-.249 1.24.293 2.48.987 3.56.455.706.992 1.388 1.723 1.886.73.498 1.681.795 2.609.66.928-.137 1.796-.77 1.961-1.58.059-.29.03-.588-.013-.879-.29-1.95-1.553-5.686-4.312-5.927Z" fill="#FBAE96"/><path d="M431.49 50.685a.07.07 0 0 1-.067-.046c-.397-1.206-1.274-2.294-2.406-2.984-.412-.252-1.473-.795-2.419-.41-.036.015-.077 0-.092-.033-.016-.033.001-.072.036-.086.711-.289 1.641-.136 2.552.42 1.159.706 2.057 1.82 2.464 3.055.011.034-.01.07-.047.081a.068.068 0 0 1-.02.003h-.001Z" fill="#A45236"/><path d="M428.054 49.555a.079.079 0 0 1-.04-.012.063.063 0 0 1-.017-.091c.482-.65 1.418-.971 2.386-.819.038.006.064.04.057.075-.006.036-.042.06-.08.054-.915-.144-1.798.156-2.249.764a.07.07 0 0 1-.057.029Z" fill="#A45236"/><path d="M454.183 51.531c.448 4.992-.357 10.018-1.635 14.883 4.851-3.077 8.568-7.794 9.871-13.132a25 25 0 0 0 .42-2.182c.909-5.988.552-14.642-4.402-21.305-.495-.666-4.379-.021-5.047-.538-.743-.577 4.099 1.234 3.135 1.292-.964.058-1.892.36-2.783.71a24.167 24.167 0 0 0-3.919 1.968c-.43.267-.866.565-1.095.997-.266.501-.206 1.094-.14 1.65.186 1.564.344 2.194 1.283 3.503a21.962 21.962 0 0 1 2.17 3.783c1.141 2.533 2.142 5.597 2.142 8.372Z" fill="#7B3E29"/><path d="M472.809 83.133c-3.315-4.202-9.134-5.466-13.95-7.556-2.552-1.107-4.814-2.16-6.55-4.263-.459-.557-15.283-1.46-16.106.057-1.24 2.286-4.306 3.099-6.859 4.206-4.816 2.09-9.942 3.77-13.257 7.972-1.745 2.212-3.186 4.672-2.722 7.384.367 2.145 1.438 4.117 2.375 6.105 3.445 7.312 8.442 32.809 10.81 46.127 8.613 4.556 29.109 2.027 34.703.293 2.454-13.595 7.843-39.276 11.21-46.42.936-1.988 2.008-3.96 2.374-6.105.464-2.713-.283-5.589-2.029-7.8h.001Z" fill="#FBAE96"/><path d="M463.547 77.402s-17.195 2.918-36.266-.986c-8.83 2.177-14.896 8.952-18.991 17.33-6.048 12.373 11.407 3.837 12.393 22.901.034.639.967 1.533.934 1.46.484 1.068.546 2.528.788 3.671a592.052 592.052 0 0 1 1.617 7.907c.888 4.486 1.735 8.98 2.535 13.48 8.613 4.556 29.109 2.027 34.703.294 2.455-13.595 7.843-39.276 11.21-46.42.937-1.989 2.199-12.57.965-14.302-2.682-3.764-9.887-5.335-9.887-5.335h-.001Z" fill="#fff"/><path d="M473.669 83.15c6.687 8.478 10.719 22.931 14.598 33.6 3.928 10.806 3.681 13.54 2.558 16.109-1.669 3.822-15.938-.25-18.88-6.39-2.942-6.14-7.278-17.857-9.095-23.141-1.818-5.285.827-18.673 10.819-20.178Z" fill="#fff"/><path d="M437.34 138.357s-.175 1.219-.673 2.229c-.352.712-.865 1.32-1.593 1.32-2.581 0-6.564.192-7.739 0-.47-.077-.524-.368-.289-.875.282-.605.978-1.516 1.872-2.733.229-.312.471-.643.722-.995l5.613.769 2.087.285ZM455.178 137.782c-.066 1.604-.359 4.124-1.557 4.124-2.581 0-6.564.192-7.739 0-.47-.077-.524-.369-.289-.875.052-.111.117-.231.195-.362.457-.769 1.345-1.891 2.399-3.367l5.043-.59 1.959-.229s.019.55-.01 1.298l-.001.001Z" fill="#FCC583"/><path d="M463.552 124.164c0 8.792-10.212 15.92-22.811 15.92-5.719 0-10.946-1.468-14.949-3.895-2.564-1.553-4.626-3.5-5.994-5.705-.318-.513-3.742-.13-4.225-.502-.874-.671-.486-6.713.233-7.512.249-.277 2.361-.686 2.515-1.259 1.984-7.381 11.268-12.967 22.42-12.967 7.378 0 13.938 2.444 18.108 6.236 2.95 2.683 4.703 6.041 4.703 9.684Z" fill="#FCC583"/><path d="M429.622 113.998c-.711.356-1.402.415-1.999.277a2.577 2.577 0 0 1-.141-.156c-.009-.011-.021-.02-.031-.031-1.421-1.448-2.011-5.524-1.624-6.486a.36.36 0 0 1 .21-.215c.197-.075.496-.003.855.17 1.33.782 2.766 1.75 3.214 2.255.808.91 1.776 3.051-.484 4.185v.001ZM462.555 120.537c.908.159 2.175.036 2.83-.458 1.171-.882 1.633-2.297 1.937-3.643.126-.684.435-2.052-.219-2.561-.42-.322-1.064-.07-1.317.335-.25.398-.23.882-.108 1.321.532 1.862 2.97 2.949 4.882 2.29 1.517-.525 1.869-1.304 1.54-.851-1.479 2.037-5.08 1.482-6.357-.552-.467-.74-.734-1.836-.079-2.553.397-.422 1.139-.602 1.635-.217.803.632.57 1.995.398 2.814-.263 1.106-.532 2.614-1.248 3.547-.867 1.156-2.404 2.224-3.958 1.888-.887-.177-1.087-1.56.064-1.359v-.001Z" fill="#FCC583"/><path d="M450.802 111.224c-2.403-.66-5.364-1.11-8.579-1.24-3.258-.131-6.285.087-8.758.564-.109-.115-.233-.173-.391-.272 2.076-.86 5.362-1.267 9.186-1.084 4.315.207 6.863.838 8.878 1.79a6.864 6.864 0 0 0-.335.242h-.001ZM425.922 119.236c.113-.728-.092-1.358-.457-1.407-.366-.049-.754.5-.866 1.228-.113.728.092 1.358.457 1.407.366.049.754-.5.866-1.228Z" fill="#BD8440"/><path d="M418.083 80.948c-8.762 6.63-18.186 20.592-24.822 30.003-6.721 9.533-8.189 17.027-3.77 19.999 3.587 2.413 12.434-1.504 16.938-6.752 4.506-5.25 11.867-15.567 15.054-20.253 3.187-4.686 5.862-19.188-3.4-22.996Z" fill="#fff"/><path d="m427.749 99.28-.084.07-.062.052c-.458.392-2.129.911-2.925 1.783-6.31 6.913-20.925 27.081-25.555 29.139-5.28 2.346-8.974 1.429-10.524-1.09-2.206-3.585-.663-7.869 3.469-12.13 3.893-4.015 23.294-16.623 28.874-22.855.342-.383.632-.74.863-1.071l.002-.002c1.659-2.373 6.339 1.019 6.782 3.898.128.828-.095 1.613-.84 2.207Z" fill="#FBAE96"/><path d="M423.82 92.177c-.827-.618-.557-1.624.527-2.946s4.166-4.78 4.916-5.64c.75-.86 3.396-3.374 4.703-3.268 1.214.098-2.142 4.578-2.459 4.972-.317.395-4.183 4.767-4.958 5.688-.775.92-1.773 1.907-2.728 1.194h-.001Z" fill="#FBAE96"/><path d="M427.16 91.88c-.827-.618-.557-1.625.527-2.946 1.084-1.322 4.166-4.78 4.916-5.64.75-.86 3.382-3.375 4.703-3.269 1.213.097-2.143 4.578-2.459 4.972-.318.395-4.183 4.768-4.959 5.688-.775.92-1.773 1.908-2.728 1.194Z" fill="#FBAE96"/><path d="M438.333 93.337c.524.648 1.117 1.499 1.547 1.767.431.268 3.444 2.252 1.343-1.6-2.101-3.854-1.58-3.62-2.709-5.02-1.129-1.4-4.776.269-7.995 1.66-3.334 1.441-3.763 2.896-3.326 3.583.436.688 1.739 1.58 3.812.137 2.059-1.435 5.291-3.357 5.88-2.493.588.863 1 1.412 1.448 1.966Z" fill="#FBAE96"/><path d="M430.629 91.731c-.828-.618-.557-1.624.526-2.946 1.084-1.322 4.167-4.78 4.917-5.64.75-.86 3.591-3.578 4.703-3.269 1.167.325-2.142 4.578-2.459 4.973-.318.394-4.183 4.767-4.958 5.688-.776.92-1.774 1.907-2.729 1.194ZM433.773 99.212c.698.828 1.832 1.23 2.369 1.788.537.558.971 1.81-.899 1.35-1.87-.46-2.438-1.041-3.963-1.571-1.047-.364-1.938-.048-3.178-.083-1.571-.044-1.532-.954-2.968.083-1.705 1.23 10.042-12.103 8.668-10.62-1.25 1.35-3.196 3.864-2.793 6.09.204 1.125 2.172 2.259 2.765 2.963h-.001Z" fill="#FBAE96"/><path d="M432.653 91.415s-.012.143-.037.392c-.027.278-4.38 7.228-4.959 7.542l-.104.057c-.466.262-1.324.051-1.757.373-.523.389-1.179.787-1.554 1.084-1.501 1.188-6.696-.917-4.748-3.781a35.075 35.075 0 0 0 1.546-2.546c.255-.452.505-.906.757-1.359l.001-.001c.767-1.375 1.551-2.727 2.509-3.925.222-.277.453-.546.695-.804 1.185-1.267 6.566 1.22 7.651 2.968Z" fill="#FBAE96"/><path d="M428.23 88.916a.074.074 0 0 1-.042-.013.062.062 0 0 1-.014-.092c.024-.03 2.427-3.044 4.924-5.984a.073.073 0 0 1 .098-.01c.03.022.036.063.011.091-2.495 2.939-4.897 5.952-4.921 5.982a.07.07 0 0 1-.056.026ZM431.191 89.534a.077.077 0 0 1-.042-.013.062.062 0 0 1-.014-.091c.026-.033 2.668-3.338 5.165-6.278a.073.073 0 0 1 .098-.01c.03.022.035.064.011.092a318.37 318.37 0 0 0-5.162 6.274.07.07 0 0 1-.056.026Z" fill="#E8825F"/><path d="M491.046 129.113c-1.545-3.875-6.061-5.506-12.213-5.262-6.152.243-28.146 7.481-35.421 6.697-3.884-.418-3.391 6.41.971 6.86 4.361.451 35.528 2.247 40.836-.044s6.912-5.529 5.827-8.251Z" fill="#FBAE96"/><path d="M431.409 134.67c-.357-2.039-.54-4.019-.157-5.942 1.312.128 3.073.212 4.289.419 1.862.326 3.657.877 5.512 1.326.951.226 1.662-.35 2.54-.287 1.015.074 4.371.175 6.267-.101 1.197-.174-.21 2.549.167 3.602.047.129.091.262.079.384-.015.145-.11.256-.202.359-1.005 1.122-.843 3.21-2.592 3.21-2.27 0-4.692.174-6.483.166-2.6.012-6.101-.101-8.921-.168-.612-1.105-.296-1.848-.499-2.968Z" fill="#FBAE96"/><path d="M422.459 127.877c-.396-.019-.808-.036-1.183.052-.376.088-.717.305-.77.611a.371.371 0 0 0 .096.328c.11.114.293.169.462.216 3.986 1.075 7.277 1.494 11.309 2.247 1.45.25.621-1.807-.064-2.244-.588-.367-1.236-.375-1.934-.469a92.407 92.407 0 0 0-7.916-.741ZM423.006 134.06c-.438-.093-.896-.191-1.308-.138-.412.054-.756.317-.64.653.092.267.433.489.755.667 2.149 1.19 4.633 1.775 6.966 2.106 1.947.27 3.325.454 5.37.087.18-.034.37-.527.458-.649.41-.584-.577-1.326-1.264-1.472-.77-.161-1.778-.035-2.579-.103a61.889 61.889 0 0 1-7.758-1.15v-.001Z" fill="#FBAE96"/><path d="M431.664 131.314c.114.363-9.296-1.812-12.204-1.447-.309.039-.604.18-.766.429-.488.755.007 2.524 12.785 4.768.91.18 1.816.338 2.716.475a37.569 37.569 0 0 1-2.531-4.225Z" fill="#FBAE96"/><path d="M431.459 133.241h-.009c-3.772-.473-7.915-1.141-12.655-2.819a.064.064 0 0 1-.041-.084.072.072 0 0 1 .09-.037c4.727 1.672 8.861 2.339 12.624 2.81.038.005.065.038.06.074a.069.069 0 0 1-.069.057v-.001Z" fill="#E8825F"/><path d="M438.13 127.47c-.878-.288-1.731-.612-2.634-.729-.803-.105-1.566-.682-2.185-1.175-.109-.086-.282-.033-.342.108-.263.611-.163 1.334.185 1.903.399.654 1.065 1.133 1.753 1.553.69.42 1.422.803 2.051 1.353.412.359.777.786 1.233 1.124.517.379 1.03.446 1.623.561.749.144 1.502.21 2.248.252.743.058 2.909.12 3.122-.725.219-.871-1.133-1.448-1.788-1.874-1.798-1.144-3.512-1.776-5.266-2.351Z" fill="#FBAE96"/><path d="M439.67 99.84c1.463-1.365 1.463-3.58 0-4.945-1.463-1.365-3.835-1.365-5.298 0-1.463 1.366-1.463 3.58 0 4.945 1.463 1.366 3.835 1.366 5.298 0Z" fill="#FFCA42"/><path d="M437.023 100.258c-.114 0-.227-.006-.341-.017a3.146 3.146 0 0 1-2.08-1.063 2.737 2.737 0 0 1-.665-2.125 2.825 2.825 0 0 1 1.138-1.941 3.235 3.235 0 0 1 2.277-.621c1.698.172 2.93 1.602 2.745 3.187-.089.768-.494 1.457-1.139 1.942a3.208 3.208 0 0 1-1.935.638Zm-.012-5.654c-.671 0-1.317.211-1.848.61a2.703 2.703 0 0 0-1.088 1.853 2.62 2.62 0 0 0 .636 2.029 3 3 0 0 0 1.986 1.015c.786.08 1.557-.13 2.173-.593a2.703 2.703 0 0 0 1.088-1.854c.176-1.513-1-2.88-2.622-3.043a3.245 3.245 0 0 0-.325-.017Z" fill="#D1990A"/><path d="M436.987 94.604a.067.067 0 0 1-.069-.066v-.586c0-.036.031-.065.069-.065.038 0 .069.03.069.065v.587a.067.067 0 0 1-.069.065ZM436.987 100.843c-.038 0-.069-.029-.069-.065v-.586c0-.036.031-.066.069-.066.038 0 .069.03.069.066v.586c0 .036-.031.065-.069.065ZM440.643 97.432h-.628c-.038 0-.07-.03-.07-.066 0-.036.032-.065.07-.065h.628c.039 0 .07.03.07.066 0 .036-.031.065-.07.065ZM433.944 97.432h-.628c-.039 0-.07-.03-.07-.066 0-.036.031-.065.07-.065h.628c.039 0 .07.03.07.066 0 .036-.031.065-.07.065ZM439.133 95.432a.074.074 0 0 1-.05-.02.063.063 0 0 1 0-.092l.444-.414a.073.073 0 0 1 .099 0 .063.063 0 0 1 0 .092l-.444.415a.074.074 0 0 1-.049.019ZM434.418 99.845a.075.075 0 0 1-.05-.02.063.063 0 0 1 0-.091l.444-.415a.073.073 0 0 1 .099 0 .061.061 0 0 1 0 .092l-.444.415a.072.072 0 0 1-.049.019ZM439.577 99.844a.075.075 0 0 1-.05-.019l-.444-.415a.063.063 0 0 1 0-.092.073.073 0 0 1 .099 0l.444.415a.063.063 0 0 1 0 .092.074.074 0 0 1-.049.02ZM434.862 95.432a.074.074 0 0 1-.05-.02l-.444-.414a.063.063 0 0 1 0-.092.073.073 0 0 1 .099 0l.444.414a.061.061 0 0 1 0 .093.072.072 0 0 1-.049.019Z" fill="#D1990A"/><path d="M428.197 88.916c-.591 0-1.177-.3-1.411-.517a.063.063 0 0 1 0-.093.073.073 0 0 1 .099 0c.21.197.767.48 1.312.48h.035c.04 0 .071.028.072.063.001.036-.03.066-.068.067h-.039ZM431.169 89.535c-.59 0-1.177-.3-1.41-.518a.062.062 0 0 1 0-.092.074.074 0 0 1 .099 0c.21.196.767.48 1.312.48h.035c.04 0 .071.027.071.063.001.036-.029.066-.068.067h-.039ZM434.906 88.596a.07.07 0 0 1-.064-.04c-.016-.033.001-.071.036-.085l1.368-.548c.036-.014.077.001.092.034.015.034-.001.072-.037.086l-1.368.547a.07.07 0 0 1-.027.005ZM428.231 92.102c-1.302 0-2.529-.156-3.094-.239-.038-.005-.064-.039-.058-.075.006-.035.042-.06.08-.054.749.11 2.674.349 4.375.176.799-.08 1.904-.4 2.813-.814a.073.073 0 0 1 .094.03c.017.033.002.072-.032.088-.923.42-2.045.744-2.86.826-.433.044-.879.062-1.318.062ZM424.968 94.605a.07.07 0 0 1-.065-.042c-.014-.034.004-.072.04-.085 2.24-.813 6.047-1.122 6.562-1.122.039 0 .07.03.07.065 0 .036-.031.065-.07.065-.51 0-4.289.307-6.511 1.114a.079.079 0 0 1-.026.005Z" fill="#E8825F"/><path d="M426.429 95.819a.07.07 0 0 1-.025-.005c-.036-.012-.054-.05-.04-.084.203-.486 1.53-1.61 2.663-2.136a.072.072 0 0 1 .094.029.064.064 0 0 1-.031.087c-1.088.507-2.406 1.612-2.595 2.068a.072.072 0 0 1-.066.041Z" fill="#E8825F"/></g><defs><clipPath id="a"><path fill="#fff" d="M0 0h514v146H0z"/></clipPath></defs></svg>