<svg width="363" height="141" fill="none" xmlns="http://www.w3.org/2000/svg"><g clip-path="url(#a)"><path fill="#C7F2C9" d="M0 0h363v141H0z"/><path d="M261.528 111.214c-.131 0-.264-.007-.395-.022-1.812-.194-3.298-1.459-3.88-3.302-.702-2.225.082-4.673 2.046-6.387 3.822-3.336 10.381-2.693 14.721-2.266a1.361 1.361 0 0 1-.266 2.707c-3.874-.38-9.73-.955-12.666 1.609-1.154 1.007-1.618 2.322-1.241 3.518.256.809.844 1.339 1.576 1.416.371.04.812-.139 1.124-.456.118-.121.388-.442.34-.816a1.368 1.368 0 0 1 .274-1.005 1.363 1.363 0 0 1 1.908-.243 1.365 1.365 0 0 1 .517.904c.139 1.094-.261 2.211-1.097 3.064-.8.816-1.883 1.279-2.961 1.279Z" fill="#EDAA9D"/><path d="M340.625 94.92c-1.735-8.157-7.15-14.948-14.423-18.564V65.551c0-.915-.804-1.626-1.711-1.507-5.224.69-9.462 4.501-10.787 9.497h-17.096c-14.906 0-27.336 12.195-27.295 27.1.023 8.672 4.134 16.378 10.503 21.308.085 3.889.517 7.831.935 10.835a6.05 6.05 0 0 0 5.994 5.216 6.05 6.05 0 0 0 5.993-5.216c.219-1.575.442-3.409.617-5.356a27.24 27.24 0 0 0 2.985.168h17.853c.698 0 1.389-.028 2.073-.08.158 1.717.355 3.43.591 5.138.415 3.005 2.946 5.329 5.979 5.346a6.05 6.05 0 0 0 6.026-5.216c.394-2.826.8-6.48.917-10.141a27.141 27.141 0 0 0 9.286-11.501 1.253 1.253 0 0 1 1.154-.764h5.266a2.645 2.645 0 0 0 2.645-2.645V97.565a2.645 2.645 0 0 0-2.645-2.645h-4.86Z" fill="#FFD2C0"/><path d="M345.478 94.92h-1.499c.005.067.009.134.009.202v10.168a2.645 2.645 0 0 1-2.645 2.645h-5.362a1.107 1.107 0 0 0-1.019.675 27.128 27.128 0 0 1-8.886 11.273 1.136 1.136 0 0 0-.457.859c-.139 3.477-.523 6.913-.897 9.599a6.051 6.051 0 0 1-6.027 5.217 5.789 5.789 0 0 1-.683-.046c1.105 1.501 2.856 2.478 4.817 2.488a6.05 6.05 0 0 0 6.026-5.216c.394-2.826.8-6.48.917-10.141a27.141 27.141 0 0 0 9.286-11.501 1.253 1.253 0 0 1 1.154-.764h5.266a2.645 2.645 0 0 0 2.645-2.645V97.565a2.645 2.645 0 0 0-2.645-2.645Zm-29.21 32.676h-19.935c-1.009 0-2.005-.06-2.985-.167-.162 1.79-.368 3.575-.617 5.355a6.05 6.05 0 0 1-10.887 2.725 6.05 6.05 0 0 0 6.753-5.168c.249-1.779.454-3.565.616-5.355.981.107 1.977.167 2.986.167 0 0 17.194-.019 23.872-.053.054.846.122 1.682.197 2.496Zm13.899-34.297a1.36 1.36 0 0 1-1.361-1.36v-3.085a1.368 1.368 0 0 1 .399-.962 1.349 1.349 0 0 1 .962-.398 1.36 1.36 0 0 1 1.36 1.36v3.085a1.36 1.36 0 0 1-1.36 1.36Z" fill="#EDAA9D"/><path d="M316.245 127.518a80.028 80.028 0 0 1-.317-4.949 1.358 1.358 0 0 0-1.359-1.317l-.043.001a1.362 1.362 0 0 0-1.317 1.403c.025.807.066 1.659.122 2.532.049.764.113 1.575.189 2.408h.672c.691 0 1.375-.027 2.053-.078Zm-37.047-15.076a1.363 1.363 0 0 0-1.594 1.077c-.351 1.813-.521 3.847-.565 5.96a27.044 27.044 0 0 0 2.73 2.433c-.079-3.932.231-6.453.506-7.876a1.356 1.356 0 0 0-.586-1.393 1.353 1.353 0 0 0-.491-.201Z" fill="#EDAA9D"/><path d="M309.906 71.228c0 4.046-2.14 7.593-5.351 9.567h-9.182c-.189 0-.379.002-.568.01-.6.014-1.196.055-1.785.12a11.222 11.222 0 0 1-5.567-9.697c0-6.2 5.027-11.228 11.228-11.228 6.199 0 11.226 5.027 11.226 11.228h-.001Z" fill="#FFCD34"/><path d="M297.846 71.853c-.037 0-.106-.002-.205-.007a17.84 17.84 0 0 1-.39-.042c-.01.123-.017.267-.022.433 0 .165-.002.35-.007.553.137.004.296.01.476.014h.531c.024 0 .064-.002.121-.007.061-.01.132-.02.213-.029l.227-.028c.075-.01.142-.014.198-.014.251 0 .452.078.603.234a.79.79 0 0 1 .234.581.979.979 0 0 1-.071.412.414.414 0 0 1-.234.212 1.547 1.547 0 0 1-.454.078c-.189.01-.428.015-.716.015h-.496a5.906 5.906 0 0 0-.298-.007l-.284-.015h-.064v.993c0 .256-.087.47-.262.646a.906.906 0 0 1-.667.27.916.916 0 0 1-.674-.27.876.876 0 0 1-.262-.646v-1.064a6.122 6.122 0 0 1-.652-.042 1.574 1.574 0 0 1-.454-.12.64.64 0 0 1-.277-.228.707.707 0 0 1-.085-.368c0-.511.331-.766.993-.766.08 0 .163.002.248.007.09.005.168.014.234.028l.036-.964-.064-.007a4.435 4.435 0 0 1-.631-.05 1.192 1.192 0 0 1-.405-.135.552.552 0 0 1-.212-.255 1.027 1.027 0 0 1-.064-.39c0-.497.331-.745.993-.745.089 0 .172.005.248.014.075.01.151.014.227.014a54.27 54.27 0 0 0 .106-2.007c.024-.59.038-1.066.043-1.425 0-.307.021-.567.064-.78.047-.218.113-.397.198-.539a.864.864 0 0 1 .319-.32c.133-.07.284-.113.454-.127.166-.014.388-.038.667-.07a7.884 7.884 0 0 1 1.035-.058c.927 0 1.797.3 2.61.901.903.676 1.355 1.494 1.355 2.454 0 1.206-.48 2.168-1.44 2.886a3.555 3.555 0 0 1-.674.39c-.232.1-.475.18-.73.242a5.833 5.833 0 0 1-.788.12c-.274.019-.557.028-.851.028Zm.355-5.19c-.151 0-.286.002-.404.006-.114 0-.211.005-.291.014v.412a33.3 33.3 0 0 1-.05 1.667c-.023.453-.054.96-.092 1.517.123.019.225.033.305.043.081.01.14.014.177.014.275 0 .502-.02.681-.057a2.017 2.017 0 0 0 .816-.362c.104-.08.217-.163.34-.248.52-.378.78-.872.78-1.482 0-.402-.243-.759-.73-1.07a2.743 2.743 0 0 0-1.532-.455Z" fill="#E69012"/><path d="M303.067 60.889a11.192 11.192 0 0 1 3.553 8.191c0 6.2-5.026 11.227-11.227 11.227-1.507.002-2.998-.3-4.385-.889a11.274 11.274 0 0 0 2.02 1.507c1.591-.176 1.666-.128 11.527-.13 7.58-4.664 7.581-15.357-1.488-19.906Z" fill="#E69012"/><path d="M289.695 82.925a1.361 1.361 0 0 1-.362-2.67 22.587 22.587 0 0 1 6.037-.82h14.388a1.36 1.36 0 1 1 0 2.72H295.37a12.705 12.705 0 0 0-.537.01 19.876 19.876 0 0 0-4.774.711c-.118.033-.241.05-.364.05Z" fill="#EDAA9D"/></g><defs><clipPath id="a"><path fill="#fff" d="M0 0h363v141H0z"/></clipPath></defs></svg>