<svg width="148" height="127" fill="none" xmlns="http://www.w3.org/2000/svg"><path d="M7.353 83.387c-.213 0-.428-.011-.641-.035-2.943-.316-5.357-2.377-6.302-5.377-1.139-3.623.135-7.608 3.323-10.399 6.207-5.431 16.858-4.384 23.907-3.69a2.213 2.213 0 0 1 1.983 2.42 2.21 2.21 0 0 1-2.415 1.988c-6.291-.618-15.801-1.554-20.57 2.62-1.874 1.639-2.627 3.78-2.014 5.728.415 1.317 1.37 2.18 2.559 2.306.603.064 1.319-.227 1.825-.744.191-.197.63-.72.553-1.328a2.22 2.22 0 0 1 1.094-2.203 2.204 2.204 0 0 1 3.014.823c.144.253.237.531.274.82.226 1.782-.423 3.6-1.78 4.989-1.3 1.33-3.06 2.082-4.81 2.082Z" fill="#EDAA9D"/><path d="M135.809 56.856c-2.817-13.28-11.611-24.338-23.422-30.225V9.038c0-1.49-1.306-2.648-2.779-2.453-8.483 1.124-15.366 7.328-17.517 15.462H64.327c-24.206 0-44.392 19.856-44.327 44.125.038 14.12 6.714 26.667 17.057 34.693.138 6.333.84 12.75 1.519 17.642.676 4.87 4.828 8.493 9.733 8.493s9.057-3.623 9.733-8.493c.356-2.564.719-5.55 1.002-8.721 1.593.176 3.208.273 4.848.273h28.993c1.133 0 2.256-.045 3.367-.129.255 2.796.575 5.585.96 8.365.674 4.893 4.784 8.678 9.709 8.705 4.929.026 9.108-3.605 9.787-8.493.638-4.601 1.298-10.551 1.488-16.511a44.177 44.177 0 0 0 15.081-18.727 2.041 2.041 0 0 1 1.874-1.244h8.551a4.3 4.3 0 0 0 4.295-4.306V61.163a4.3 4.3 0 0 0-4.295-4.307h-7.893Z" fill="#FFD2C0"/><path d="M143.691 56.856h-2.434c.008.11.016.22.016.33v16.556a4.3 4.3 0 0 1-4.295 4.306h-8.708a1.791 1.791 0 0 0-1.656 1.099 44.147 44.147 0 0 1-14.43 18.355 1.824 1.824 0 0 0-.743 1.398c-.225 5.662-.849 11.255-1.457 15.63-.678 4.888-4.858 8.519-9.787 8.493a9.34 9.34 0 0 1-1.109-.074c1.794 2.444 4.638 4.034 7.823 4.051 4.929.026 9.108-3.605 9.786-8.493.639-4.601 1.299-10.551 1.488-16.511a44.162 44.162 0 0 0 15.081-18.726 2.03 2.03 0 0 1 1.875-1.244h8.551a4.3 4.3 0 0 0 4.295-4.307V61.163a4.302 4.302 0 0 0-4.296-4.307ZM96.256 110.06H63.882c-1.639 0-3.256-.097-4.849-.271a180.45 180.45 0 0 1-1.001 8.719c-.678 4.87-4.828 8.493-9.735 8.493a9.816 9.816 0 0 1-7.945-4.056 9.65 9.65 0 0 0 1.232.079c4.907 0 9.057-3.623 9.735-8.493.404-2.898.737-5.805 1-8.719 1.594.174 3.21.271 4.85.271 0 0 27.922-.03 38.767-.086.088 1.377.198 2.739.32 4.064v-.001Zm22.572-55.841a2.209 2.209 0 0 1-2.21-2.215V46.98a2.22 2.22 0 0 1 .647-1.566 2.208 2.208 0 0 1 3.771 1.566v5.023c0 .588-.233 1.15-.647 1.566a2.206 2.206 0 0 1-1.561.649Z" fill="#EDAA9D"/><path d="M96.216 109.932a143.644 143.644 0 0 1-.322-4.077 127.517 127.517 0 0 1-.192-3.98 2.207 2.207 0 0 0-2.206-2.144l-.072.001a2.204 2.204 0 0 0-1.997 1.431 2.22 2.22 0 0 0-.142.853c.042 1.314.109 2.701.2 4.123.08 1.244.183 2.564.306 3.92h1.091c1.122 0 2.233-.044 3.334-.127ZM36.053 85.386a2.205 2.205 0 0 0-1.656.34c-.486.329-.82.837-.932 1.414-.57 2.951-.847 6.263-.918 9.704a44.23 44.23 0 0 0 4.433 3.961c-.129-6.402.375-10.506.822-12.824a2.217 2.217 0 0 0-1.75-2.595Z" fill="#EDAA9D"/><path d="M85.917 18.281a18.27 18.27 0 0 1-8.691 15.578h-14.91c-.309 0-.617.003-.924.015-.974.023-1.943.091-2.899.198a18.282 18.282 0 0 1-9.04-15.791C49.453 8.185 57.616 0 67.687 0c10.066 0 18.23 8.185 18.23 18.281Z" fill="#FFCD34"/><path d="M66.332 19.3c-.061 0-.172-.004-.334-.012a29.953 29.953 0 0 1-.633-.069c-.015.2-.027.435-.035.705 0 .269-.003.57-.011.9.222.008.48.016.772.023h.863c.039 0 .104-.004.196-.011.1-.016.215-.031.346-.046.13-.016.253-.031.368-.047.123-.015.23-.023.323-.023.407 0 .733.127.979.381.253.254.38.57.38.947 0 .285-.039.508-.116.67a.68.68 0 0 1-.38.346c-.184.07-.43.112-.737.127a24 24 0 0 1-1.163.024h-.806a9.672 9.672 0 0 0-.484-.012 91.91 91.91 0 0 1-.46-.023h-.104v1.616c0 .416-.142.766-.426 1.051a1.469 1.469 0 0 1-1.083.439c-.438 0-.802-.146-1.094-.439a1.43 1.43 0 0 1-.426-1.05v-1.733a9.906 9.906 0 0 1-1.06-.069 2.559 2.559 0 0 1-.737-.196c-.2-.093-.35-.216-.449-.37-.092-.154-.138-.354-.138-.6 0-.832.537-1.247 1.612-1.247.13 0 .265.004.403.011.146.008.273.023.38.047l.058-1.57-.104-.012a7.192 7.192 0 0 1-1.025-.081 1.931 1.931 0 0 1-.656-.22.904.904 0 0 1-.346-.415 1.69 1.69 0 0 1-.103-.636c0-.808.537-1.212 1.612-1.212.146 0 .28.008.403.023.123.016.246.023.369.023.084-1.216.142-2.305.172-3.268.039-.962.062-1.736.07-2.32 0-.5.034-.924.103-1.27.077-.355.184-.647.323-.878.138-.231.31-.404.518-.52a1.87 1.87 0 0 1 .737-.208c.269-.023.63-.061 1.083-.115a12.8 12.8 0 0 1 1.681-.093c1.505 0 2.918.49 4.238 1.467 1.467 1.1 2.2 2.432 2.2 3.995 0 1.963-.78 3.53-2.338 4.7-.345.254-.71.466-1.094.635a7.38 7.38 0 0 1-1.186.393 9.44 9.44 0 0 1-1.279.196c-.445.03-.906.046-1.382.046Zm.576-8.452c-.246 0-.464.003-.656.011a4.11 4.11 0 0 0-.472.023v.67a54.152 54.152 0 0 1-.08 2.714c-.04.739-.09 1.562-.15 2.47.199.031.364.054.495.07.13.015.226.023.287.023.446 0 .814-.03 1.106-.092.292-.062.541-.143.749-.243.215-.1.407-.215.576-.346.168-.131.353-.266.552-.405.845-.615 1.267-1.42 1.267-2.413 0-.654-.395-1.235-1.186-1.743a4.447 4.447 0 0 0-2.488-.74Z" fill="#E69012"/><path d="M74.81 1.447a18.249 18.249 0 0 1 5.77 13.338c0 10.094-8.162 18.28-18.232 18.28a18.13 18.13 0 0 1-7.121-1.448c.998.937 2.099 1.76 3.28 2.453 2.584-.287 2.706-.209 18.72-.212 12.31-7.594 12.311-25.003-2.416-32.41Z" fill="#E69012"/><path d="M53.098 37.327a2.205 2.205 0 0 1-2.127-1.624 2.22 2.22 0 0 1 .77-2.337c.228-.178.49-.31.769-.388a36.604 36.604 0 0 1 9.803-1.334H85.68a2.2 2.2 0 0 1 1.562.65 2.215 2.215 0 0 1 .478 2.413 2.213 2.213 0 0 1-2.04 1.367H62.313c-.28 0-.56.004-.839.014l-.032.001c-.885.02-1.796.083-2.708.184-1.705.19-3.392.515-5.045.974a2.22 2.22 0 0 1-.59.08Z" fill="#EDAA9D"/></svg>