<svg width="91" height="78" fill="none" xmlns="http://www.w3.org/2000/svg"><path d="M4.522 51.214c-.132 0-.264-.007-.395-.022-1.81-.194-3.294-1.46-3.875-3.302-.7-2.225.083-4.673 2.044-6.387 3.816-3.336 10.365-2.693 14.7-2.266a1.36 1.36 0 0 1-.266 2.707c-3.869-.38-9.716-.955-12.648 1.609-1.153 1.007-1.616 2.322-1.239 3.518.255.809.843 1.339 1.574 1.416.37.04.81-.14 1.122-.456.118-.121.387-.442.34-.816a1.362 1.362 0 0 1 1.175-1.521 1.357 1.357 0 0 1 1.52 1.177c.138 1.094-.26 2.211-1.096 3.064-.799.816-1.88 1.279-2.956 1.279Z" fill="#EDAA9D"/><path d="M83.506 34.92c-1.732-8.157-7.14-14.948-14.401-18.564V5.551c0-.915-.804-1.626-1.71-1.507-5.215.69-9.448 4.501-10.77 9.497H39.552c-14.884 0-27.296 12.195-27.256 27.1.023 8.672 4.128 16.378 10.488 21.308.085 3.89.517 7.83.934 10.835A6.044 6.044 0 0 0 29.704 78a6.044 6.044 0 0 0 5.985-5.216c.218-1.575.441-3.409.615-5.356.98.108 1.973.168 2.981.168h17.828c.697 0 1.387-.028 2.07-.08.157 1.717.354 3.43.59 5.138.415 3.005 2.942 5.33 5.97 5.346a6.043 6.043 0 0 0 6.018-5.216c.393-2.826.798-6.48.915-10.14a27.135 27.135 0 0 0 9.273-11.502 1.253 1.253 0 0 1 1.153-.764h5.257a2.643 2.643 0 0 0 2.642-2.645V37.565a2.643 2.643 0 0 0-2.642-2.645h-4.853Z" fill="#FFD2C0"/><path d="M88.355 34.92h-1.497c.005.067.01.134.01.202V45.29a2.643 2.643 0 0 1-2.642 2.645h-5.354a1.104 1.104 0 0 0-1.018.675 27.12 27.12 0 0 1-8.873 11.273 1.121 1.121 0 0 0-.456.859c-.139 3.477-.523 6.913-.896 9.6a6.044 6.044 0 0 1-6.019 5.216 5.817 5.817 0 0 1-.681-.046c1.103 1.501 2.851 2.478 4.81 2.488a6.043 6.043 0 0 0 6.017-5.216c.393-2.826.799-6.48.915-10.14a27.135 27.135 0 0 0 9.273-11.502 1.253 1.253 0 0 1 1.153-.764h5.258a2.643 2.643 0 0 0 2.641-2.645V37.565a2.644 2.644 0 0 0-2.641-2.645ZM59.187 67.595H39.281c-1.008 0-2.002-.06-2.981-.166-.162 1.79-.367 3.575-.616 5.355A6.044 6.044 0 0 1 29.698 78c-1.99 0-3.78-.971-4.886-2.491a6.045 6.045 0 0 0 6.744-5.167c.249-1.78.454-3.566.615-5.356.98.107 1.974.167 2.982.167 0 0 17.169-.019 23.838-.053.054.846.121 1.682.196 2.496ZM73.067 33.3a1.357 1.357 0 0 1-1.36-1.36v-3.085a1.362 1.362 0 0 1 1.36-1.36 1.357 1.357 0 0 1 1.357 1.36v3.085a1.361 1.361 0 0 1-1.358 1.36Z" fill="#EDAA9D"/><path d="M59.165 67.518a78.302 78.302 0 0 1-.316-4.948 1.361 1.361 0 0 0-1.4-1.317 1.358 1.358 0 0 0-1.316 1.403 80.281 80.281 0 0 0 .311 4.94h.67c.691 0 1.374-.028 2.051-.078ZM22.171 52.442a1.357 1.357 0 0 0-1.59 1.077c-.352 1.813-.522 3.847-.565 5.96a27.212 27.212 0 0 0 2.725 2.433c-.079-3.932.231-6.453.506-7.876a1.361 1.361 0 0 0-1.076-1.594Z" fill="#EDAA9D"/><path d="M52.827 11.228c0 4.046-2.137 7.593-5.344 9.567h-9.168c-.19 0-.379.002-.568.01-.599.014-1.194.055-1.782.12a11.226 11.226 0 0 1-5.559-9.697C30.406 5.028 35.426 0 41.618 0c6.19 0 11.21 5.027 11.21 11.228Z" fill="#FFCD34"/><path d="M40.786 11.854c-.038 0-.106-.003-.205-.008-.1-.009-.23-.023-.39-.042-.01.123-.016.267-.021.432 0 .166-.002.35-.007.554.137.004.295.01.474.014h.532c.023 0 .063-.002.12-.007.061-.01.132-.02.212-.029l.227-.028c.075-.01.142-.014.198-.014.25 0 .451.078.602.234a.79.79 0 0 1 .234.581.976.976 0 0 1-.071.412.418.418 0 0 1-.234.213 1.544 1.544 0 0 1-.453.077c-.189.01-.427.015-.715.015h-.496a5.868 5.868 0 0 0-.297-.007l-.284-.015h-.063v.993c0 .256-.088.47-.262.646a.903.903 0 0 1-.666.27.912.912 0 0 1-.935-.916v-1.063a6.129 6.129 0 0 1-.651-.043 1.571 1.571 0 0 1-.453-.12.635.635 0 0 1-.277-.228.71.71 0 0 1-.085-.368c0-.511.33-.766.992-.766.08 0 .163.002.248.007a1.5 1.5 0 0 1 .233.028l.036-.964-.064-.007a4.434 4.434 0 0 1-.63-.05 1.19 1.19 0 0 1-.404-.135.556.556 0 0 1-.212-.255 1.037 1.037 0 0 1-.064-.39c0-.497.33-.745.991-.745.09 0 .173.005.248.014.076.01.151.014.227.014.052-.746.087-1.415.106-2.006.024-.591.038-1.067.042-1.426 0-.307.022-.567.064-.78.047-.218.113-.397.198-.539a.86.86 0 0 1 .32-.32 1.15 1.15 0 0 1 .452-.127c.166-.014.387-.038.666-.07a7.88 7.88 0 0 1 1.034-.057c.925 0 1.794.3 2.606.9.902.676 1.353 1.494 1.353 2.454 0 1.206-.48 2.168-1.438 2.886a3.558 3.558 0 0 1-.673.39c-.231.1-.474.18-.73.242-.25.056-.511.097-.785.12-.274.019-.557.029-.85.029Zm.354-5.192c-.15 0-.285.003-.404.007-.113 0-.21.005-.29.015v.41a28.288 28.288 0 0 1-.05 1.667c-.023.454-.054.96-.092 1.518.123.019.225.033.305.043.08.01.14.014.177.014.274 0 .5-.02.68-.057.18-.038.333-.087.46-.149.132-.061.25-.132.354-.213.104-.08.218-.163.34-.248.52-.378.78-.872.78-1.482 0-.402-.244-.759-.73-1.07a2.737 2.737 0 0 0-1.53-.455Z" fill="#E69012"/><path d="M46.003.889A11.202 11.202 0 0 1 49.55 9.08c0 6.2-5.02 11.227-11.211 11.227-1.505.002-2.994-.3-4.38-.889.615.576 1.292 1.081 2.018 1.507 1.59-.176 1.664-.128 11.51-.13 7.57-4.664 7.57-15.357-1.485-19.906Z" fill="#E69012"/><path d="M32.647 22.925a1.357 1.357 0 0 1-1.348-1.526 1.364 1.364 0 0 1 .986-1.145 22.529 22.529 0 0 1 6.028-.819H52.68a1.356 1.356 0 0 1 1.358 1.36 1.359 1.359 0 0 1-1.357 1.36H38.313c-.172 0-.344.003-.516.01h-.02a19.82 19.82 0 0 0-4.767.711c-.119.033-.24.05-.364.05Z" fill="#EDAA9D"/></svg>