<svg width="696" height="127" fill="none" xmlns="http://www.w3.org/2000/svg"><mask id="a" style="mask-type:alpha" maskUnits="userSpaceOnUse" x="0" y="0" width="696" height="127"><path fill="#D9D9D9" d="M0 0h696v127H0z"/></mask><g clip-path="url(#b)" mask="url(#a)"><path fill="#C7F2C9" d="M-18 1h714v127H-18z"/><circle cx="630.5" cy="75.5" r="90.5" fill="#D5FBD7"/><path d="M548.198 89.727c-.238 0-.477-.013-.715-.04-3.28-.35-5.972-2.642-7.026-5.98-1.27-4.028.15-8.459 3.705-11.562 6.92-6.04 18.795-4.876 26.653-4.104a2.463 2.463 0 1 1-.48 4.902c-7.015-.687-17.617-1.728-22.934 2.913-2.09 1.823-2.929 4.205-2.246 6.37.463 1.464 1.529 2.424 2.853 2.564.673.071 1.47-.253 2.034-.827.214-.219.703-.8.617-1.476a2.461 2.461 0 0 1 3.09-2.688 2.455 2.455 0 0 1 1.491 1.153c.16.281.264.59.305.912.252 1.981-.472 4.003-1.985 5.547-1.449 1.478-3.411 2.316-5.362 2.316Z" fill="#EDAA9D"/><path d="M691.413 60.224c-3.141-14.767-12.945-27.064-26.113-33.61V7.05c0-1.656-1.457-2.944-3.099-2.728-9.457 1.25-17.132 8.15-19.53 17.194h-30.954c-26.988 0-49.493 22.08-49.42 49.068.042 15.701 7.486 29.653 19.017 38.579.154 7.042.936 14.178 1.693 19.617a10.953 10.953 0 0 0 10.852 9.444 10.954 10.954 0 0 0 10.852-9.444c.396-2.851.8-6.171 1.116-9.697a49.47 49.47 0 0 0 5.405.303h32.324c1.264 0 2.515-.05 3.754-.143.285 3.108.642 6.21 1.07 9.302.752 5.441 5.334 9.649 10.825 9.679a10.953 10.953 0 0 0 10.911-9.444c.712-5.116 1.448-11.733 1.659-18.36a49.134 49.134 0 0 0 16.814-20.824 2.268 2.268 0 0 1 2.09-1.383h9.534a4.789 4.789 0 0 0 4.788-4.79v-18.41a4.789 4.789 0 0 0-4.789-4.789h-8.799Z" fill="#FFD2C0"/><path d="M700.206 60.225h-2.714c.009.122.017.243.017.366v18.41a4.788 4.788 0 0 1-4.788 4.79h-9.709a2.002 2.002 0 0 0-1.846 1.22 49.119 49.119 0 0 1-16.088 20.412 2.034 2.034 0 0 0-.828 1.555c-.251 6.295-.947 12.515-1.624 17.38a10.953 10.953 0 0 1-10.912 9.444c-.414-.003-.826-.03-1.236-.082 2 2.718 5.17 4.486 8.721 4.505a10.954 10.954 0 0 0 10.911-9.444c.712-5.117 1.448-11.734 1.659-18.361a49.134 49.134 0 0 0 16.814-20.824 2.268 2.268 0 0 1 2.09-1.383h9.534a4.789 4.789 0 0 0 4.788-4.79v-18.41a4.79 4.79 0 0 0-4.789-4.788Zm-52.886 59.161h-36.094a49.99 49.99 0 0 1-5.405-.301 201.11 201.11 0 0 1-1.117 9.696 10.955 10.955 0 0 1-19.712 4.933 10.955 10.955 0 0 0 12.228-9.356c.45-3.223.822-6.455 1.115-9.696a49.76 49.76 0 0 0 5.407.302s31.13-.034 43.222-.095c.098 1.53.22 3.045.356 4.518v-.001Zm25.165-62.096a2.462 2.462 0 0 1-2.463-2.462v-5.586a2.458 2.458 0 0 1 2.463-2.462 2.461 2.461 0 0 1 2.462 2.462v5.586a2.46 2.46 0 0 1-2.462 2.462Z" fill="#EDAA9D"/><path d="M647.274 119.246c-.141-1.51-.261-3.022-.36-4.535a141.141 141.141 0 0 1-.214-4.425 2.461 2.461 0 0 0-4.257-1.607 2.455 2.455 0 0 0-.666 1.763c.046 1.461.12 3.004.221 4.585.09 1.383.206 2.851.343 4.359h1.216c1.251 0 2.49-.049 3.717-.14ZM580.198 91.95a2.465 2.465 0 0 0-2.885 1.95c-.636 3.282-.945 6.965-1.024 10.792a49.391 49.391 0 0 0 4.942 4.404c-.143-7.119.418-11.683.917-14.26a2.468 2.468 0 0 0-1.06-2.522 2.47 2.47 0 0 0-.89-.364Z" fill="#EDAA9D"/><path d="M635.786 17.328c0 7.326-3.874 13.749-9.689 17.323h-16.624c-.344 0-.687.004-1.03.018-1.086.025-2.165.1-3.231.219-6.03-3.53-10.079-10.07-10.079-17.56C595.133 6.102 604.234-3 615.462-3c11.223 0 20.324 9.102 20.324 20.328Z" fill="#FFCD34"/><path d="M613.956 18.462a9.24 9.24 0 0 1-.372-.013c-.18-.017-.415-.043-.706-.077-.017.222-.03.483-.039.783 0 .3-.004.634-.013 1.002.249.008.535.017.861.025h.963c.042 0 .115-.004.218-.012.111-.018.24-.035.385-.052.146-.017.283-.034.411-.051.137-.017.257-.026.36-.026.453 0 .817.141 1.091.424.282.282.424.633.424 1.053 0 .316-.043.565-.129.744a.756.756 0 0 1-.423.386c-.206.077-.48.124-.822.141-.343.017-.775.026-1.297.026h-.899a10.881 10.881 0 0 0-.539-.013l-.514-.026h-.115v1.798c0 .462-.159.851-.475 1.168a1.642 1.642 0 0 1-1.207.488c-.488 0-.895-.163-1.22-.488a1.587 1.587 0 0 1-.475-1.168v-1.926a11.074 11.074 0 0 1-1.182-.077 2.868 2.868 0 0 1-.822-.219 1.152 1.152 0 0 1-.5-.41c-.103-.172-.154-.394-.154-.668 0-.925.599-1.387 1.797-1.387.146 0 .296.004.45.013.162.008.304.026.423.051l.065-1.746-.116-.013a8.037 8.037 0 0 1-1.143-.09 2.169 2.169 0 0 1-.732-.244 1.01 1.01 0 0 1-.385-.462 1.876 1.876 0 0 1-.115-.706c0-.9.599-1.349 1.797-1.349.163 0 .313.01.45.026.137.017.274.026.411.026a97.73 97.73 0 0 0 .192-3.634c.043-1.07.069-1.93.077-2.58 0-.557.039-1.028.116-1.413a3.22 3.22 0 0 1 .359-.976c.154-.257.347-.45.578-.578.24-.128.514-.205.822-.231.3-.026.702-.069 1.207-.129.505-.068 1.13-.102 1.875-.102 1.677 0 3.252.543 4.725 1.63 1.635 1.225 2.452 2.705 2.452 4.443 0 2.183-.868 3.925-2.606 5.226a6.446 6.446 0 0 1-1.22.707c-.42.18-.86.325-1.323.436-.453.103-.928.176-1.425.218a22.42 22.42 0 0 1-1.541.052Zm.642-9.4c-.274 0-.518.005-.732.013-.205 0-.381.009-.526.026v.745a58.182 58.182 0 0 1-.09 3.017c-.043.822-.098 1.738-.167 2.748.223.034.407.06.552.077.146.017.253.026.321.026.497 0 .908-.034 1.233-.103a3.7 3.7 0 0 0 .835-.27c.239-.11.453-.24.642-.385.188-.145.393-.295.616-.45.942-.684 1.412-1.579 1.412-2.683 0-.727-.44-1.374-1.322-1.939a4.97 4.97 0 0 0-2.774-.821Z" fill="#E69012"/><path d="M623.405-1.39c3.956 3.708 6.432 8.98 6.432 14.83 0 11.226-9.1 20.328-20.327 20.328a20.264 20.264 0 0 1-7.94-1.61 20.435 20.435 0 0 0 3.658 2.728c2.881-.319 3.016-.232 20.871-.236 13.724-8.444 13.725-27.804-2.694-36.04Z" fill="#E69012"/><path d="M599.196 38.508a2.464 2.464 0 0 1-1.515-4.405c.255-.199.547-.345.859-.432a40.868 40.868 0 0 1 10.93-1.482h26.051a2.456 2.456 0 0 1 1.741.721 2.448 2.448 0 0 1 .721 1.742 2.458 2.458 0 0 1-1.52 2.275 2.458 2.458 0 0 1-.942.188h-26.052a23.14 23.14 0 0 0-.935.015l-.035.001c-.987.023-2.003.092-3.02.204a36.006 36.006 0 0 0-5.625 1.084c-.214.059-.436.089-.658.09Z" fill="#EDAA9D"/></g><defs><clipPath id="b"><path fill="#fff" transform="translate(-18 1)" d="M0 0h714v127H0z"/></clipPath></defs></svg>