<svg width="457" height="99" fill="none" xmlns="http://www.w3.org/2000/svg"><g clip-path="url(#a)"><path fill="#C7F2C9" d="M0 0h457v99H0z"/><path d="M487.509 90.245c-.052.247-.105.492-.16.734-1.313 5.812-3.406 10.416-6.262 13.06-19.205 2.463-122.3 1.701-122.3 1.701-4.797-3.044-8.164-8.358-9.992-14.76-.07-.244-.137-.489-.202-.735-1.892-7.166-1.898-15.608.127-23.728.061-.246.124-.49.189-.735 2.187-8.247 6.484-16.112 13.048-21.91a39.807 39.807 0 0 0 2.629-2.553c6.116-6.467 11.005-15.349 16.735-23.728.167-.246.336-.49.505-.735 4.754-6.864 10.118-13.331 17.241-17.779a38.117 38.117 0 0 1 9.886-4.385c16.215-4.588 29.198-3.274 41.144 3.65.411.24.821.484 1.23.735 6.732 4.145 13.156 10.088 19.671 17.78a136.4 136.4 0 0 1 1.454 1.743c4.984 6.067 8.823 14.043 11.543 22.719.077.245.152.49.227.735a102.23 102.23 0 0 1 1.659 6.114l.026.112c.208.87.404 1.744.591 2.62v.001a114.403 114.403 0 0 1 1.656 9.914c.204 1.665.372 3.323.502 4.967l.056.735c.632 8.696.222 16.979-1.203 23.728Z" fill="#D5FBD7"/><path d="M358.028 89.66c-.042.08-.103.167-.196.176-.081.008-.157-.052-.189-.124a.491.491 0 0 1-.028-.232c.019-.349.082-.696.19-1.03.036-.113.081-.23.174-.307.566-.468.16 1.309.049 1.517ZM355.463 89.589c.009.05.018.105.001.148-.029.08-.132.083-.207.03a.68.68 0 0 1-.176-.226c-.147-.258-.298-.521-.38-.806-.096-.334-.075-.926.3-.5.277.313.391.968.462 1.354Z" fill="#7096B4"/><path d="M360.118 72.718c.421-.611.611-1.342.723-2.066.094-.607.183-1.255.171-1.87-.01-.498-.347-1.025-.867-.748-.467.249-.885.793-1.186 1.203a5.762 5.762 0 0 0-1.054 2.513c-.088.566-.286 1.79.497 2.027.615.186 1.427-.642 1.716-1.06ZM356.401 72.355c.421.9.695 1.862.806 2.842.055.476.066.98-.16 1.408-.104.197-.277.382-.505.419-.358.057-.653-.26-.843-.555a6.406 6.406 0 0 1-.987-4.05c.022-.223.059-.453.189-.64.511-.736 1.273.09 1.501.576h-.001ZM360.992 74.364a7.525 7.525 0 0 1-1.184 2.084c-.21.261-.445.515-.748.672-.125.064-.299.105-.397.006a.32.32 0 0 1-.072-.15c-.152-.608.113-1.234.396-1.798.313-.625.682-1.282 1.275-1.705.868-.618.984.206.73.891Z" fill="#C7F2C9"/><path d="m357.147 83.858-.116-.004a66.97 66.97 0 0 1 .565-5.923c.418-2.969 1.221-7.011 2.677-9.414l.1.053c-1.446 2.388-2.246 6.416-2.663 9.375a66.734 66.734 0 0 0-.563 5.913Z" fill="#E0BA89"/><path d="m356.966 83.606-.114-.016c.463-2.84-.205-8.145-1.43-11.352l.109-.036c1.229 3.22 1.9 8.55 1.435 11.404ZM357.839 83.105c-.168-1.302-.027-3.004.378-4.554.347-1.33 1.058-3.218 2.472-4.66l.085.074c-2.575 2.622-3.097 6.99-2.821 9.127l-.115.013h.001Z" fill="#E0BA89"/><path d="M354.489 80.823c.861-.433 1.811-.526 1.811-1.507v-.847c0-.09.099-.162.217-.157l.974.038.975-.038c.117-.005.217.067.217.157v.634c0 .434.227.858.626 1.168.411.318 1.024.397 1.408.713.212.176.35.396.459.62.816 1.673-.157 3.494-.682 5.142l-1.098 3.45-.016.05h-4.416l-.76-3.26c-.191-.817-.803-3.37-.826-3.845-.022-.476.07-.956.279-1.405.164-.352.412-.699.819-.906a.183.183 0 0 0 .014-.007h-.001Z" fill="#C7F2C9"/><path d="M355.87 80.065c.21.058.399.112.517.127.702.09 1.416.179 2.125.143.276-.014.552-.049.811-.107l.055.042c.17.124.373.212.581.292-.509.193-1.119.29-1.727.308-.794.023-1.59-.08-2.358-.222a5.289 5.289 0 0 1-.702-.191c.273-.11.518-.227.699-.392h-.001ZM357.807 79.542a12.781 12.781 0 0 1-1.623-.103 1.63 1.63 0 0 0 .006-.124v-.293c.625.07 1.257.129 1.883.114.218-.005.435-.02.645-.047v.014c0 .127.021.253.061.375-.313.041-.642.062-.972.064ZM360.31 83.04c-.008.193-.028.411-.186.532-.028.02-.062.038-.097.036-.054-.004-.092-.053-.115-.101-.078-.165-.07-.354-.073-.536-.007-.316-.467-1.535-.076-1.574.64-.064.559 1.34.547 1.643ZM357.923 82.647l.001.929c0 .065-.001.134-.036.19-.069.109-.244.115-.354.043-.109-.073-.166-.197-.207-.318a2.268 2.268 0 0 1-.02-1.395c.071-.226.24-.489.481-.297.178.14.134.652.135.848ZM357.794 88.572l.001.928c0 .065-.001.134-.036.19-.069.11-.244.116-.353.043-.11-.072-.167-.197-.208-.318a2.26 2.26 0 0 1-.019-1.395c.07-.226.239-.488.481-.297.177.141.133.653.134.849ZM359.124 83.476c-.022.09-.059.192-.15.224-.08.027-.171-.015-.223-.079a.519.519 0 0 1-.088-.225 4.199 4.199 0 0 1-.083-1.079c.007-.121.02-.249.094-.349.444-.605.505 1.273.45 1.508ZM358.648 87.653c-.034.086-.085.182-.18.201-.083.017-.167-.036-.209-.106a.512.512 0 0 1-.055-.235 4.2 4.2 0 0 1 .071-1.08c.024-.12.056-.244.143-.333.526-.542.319 1.327.23 1.553ZM359.697 85.94c-.038.085-.094.179-.19.194-.083.013-.165-.044-.204-.116a.517.517 0 0 1-.045-.237 4.233 4.233 0 0 1 .122-1.075c.029-.119.067-.242.158-.327.551-.52.257 1.339.158 1.56l.001.001ZM356.423 83.527c-.017.056-.036.115-.082.152-.084.07-.225.032-.296-.05-.072-.083-.091-.195-.109-.3-.053-.323-.107-.651-.057-.974.059-.38.423-.978.688-.395.195.43-.021 1.144-.145 1.567h.001ZM356.7 87.74c-.017.056-.035.115-.081.152-.085.07-.226.032-.297-.05-.071-.084-.091-.195-.109-.3-.053-.323-.106-.651-.056-.974.058-.38.422-.978.687-.395.195.429-.02 1.144-.144 1.567ZM357.747 86.433c-.017.056-.036.115-.081.153-.085.07-.226.032-.297-.051-.071-.083-.091-.194-.109-.3-.053-.322-.106-.65-.056-.974.058-.38.422-.977.687-.395.195.43-.021 1.145-.145 1.567h.001ZM355.37 81.74a2.704 2.704 0 0 1-.187 1.531.245.245 0 0 1-.059.091c-.067.056-.177.03-.236-.032a.448.448 0 0 1-.095-.232 3.731 3.731 0 0 1-.052-.961c.023-.299.518-1.042.629-.398ZM355.627 84.62c.222.476.301 1.012.225 1.528a.23.23 0 0 1-.033.102c-.049.07-.163.072-.236.026a.456.456 0 0 1-.154-.201 3.737 3.737 0 0 1-.304-.917c-.057-.295.224-1.134.502-.537Z" fill="#A3E1A6"/><path d="M471.615 17.591H381.32c.167-.246.336-.49.506-.735h89.171c.206.243.412.488.618.735ZM484.224 42.054H363.879c.238-.241.475-.486.71-.735h119.408c.077.245.152.49.227.735ZM488.714 66.517H348.723c.06-.245.123-.49.189-.735h139.746c.02.246.038.49.056.735Z" fill="#C7F2C9"/><path d="M487.513 90.245c-.052.247-.105.492-.16.735H348.799a41.125 41.125 0 0 1-.201-.735h138.915Z" fill="#9DE9A0"/><path d="M458.715 8.957h-16.317v7.9h16.317v-7.9Z" fill="#C7F2C9"/><path d="M451.14 10.325c0-.276-.263-.5-.587-.5-.325 0-.588.224-.588.5 0 .22.167.407.399.474v.657h.377V10.8c.232-.067.399-.254.399-.474Z" fill="#A3E1A6"/><path d="M394.16 41.32v-2.252h-21.151v2.252h21.151Z" fill="#C7F2C9"/><path d="M389.074 40.778V39.61h-10.967v1.168h10.967Z" fill="#A3E1A6"/><path d="M395.68 39.069v-2.92h-17.708v2.92h17.708Z" fill="#C7F2C9"/><path d="M391.406 38.366v-1.514h-9.182v1.514h9.182Z" fill="#A3E1A6"/><path d="M390.305 36.2v-1.513h-14.907v1.514h14.907Z" fill="#C7F2C9"/><path d="M389.434 35.837v-.785h-13.157v.785h13.157Z" fill="#A3E1A6"/><path d="M423.28 35.434c1.28.17 2.672.485 3.435 1.46.851 1.09.884 2.43.343 3.68 2.643-1.857 4.328-4.357 5.208-7.334.557-1.886.69-3.857.74-5.812.034-1.31.031-2.64-.331-3.906-.741-2.597-2.894-4.634-5.191-6.255-1.592-1.124-3.303-2.116-5.158-2.802a17.825 17.825 0 0 0-6.788-1.083c-1.045.038-2.129.182-2.994.729-.529.334-.945.8-1.339 1.27-1.671 1.988-3.109 4.191-3.855 6.62-.863 2.81-.764 5.833-.008 8.669.534 2 1.388 3.917 2.43 5.732.341.593 1.958 2.685 1.958 2.685s-.155-1.281.532-2.114c1.217-1.474 7.725-1.979 11.017-1.54h.001Z" fill="#5C2F1F"/><path d="M427.306 46.599c-1.886-3.722-3.201-9.972-2.924-15.524.183-.315-9.354.001-9.172.317.277 5.55-.677 11.485-2.562 15.207-.609 1.202.445 3.144 1.078 4.308.734 1.352 1.64 2.617 2.803 3.683.771.707 2.096 1.717 3.412 2.088v.021l.035-.01.036.01v-.02c1.316-.372 2.64-1.382 3.412-2.09 1.163-1.065 2.068-2.33 2.803-3.682.632-1.164 1.687-3.106 1.078-4.308h.001Z" fill="#FBAE96"/><path d="M423.817 36.289c.061-.04-5.092-.81-8.595-1.329a39.545 39.545 0 0 1-.202 2.69c1.68.76 5.7 2.03 8.797-1.361Z" fill="#FBAE96" style="mix-blend-mode:multiply" opacity=".28"/><path d="M431.638 19.684c-.334 2.194-1.674 7.678-2.506 9.59-1.686 3.881-3.874 7.154-8.61 8.465-.678.187-1.384.247-2.071.056-3.864-1.072-6.789-4.797-8.205-8.028-1.034-2.358-2.072-4.724-2.832-7.175-1.096-3.533-1.838-6.84-.127-10.275 1.434-2.877 4.105-5.217 7.305-6.306 2.201-.749 4.071-.255 6.279-.271 1.124-.009 1.903-.181 3.059.118 2.207.573 4.268 1.724 5.671 3.435 2.508 3.056 2.616 6.584 2.037 10.391Z" fill="#FBAE96"/><path d="M432.535 12.499c-1.349-3.23-4.231-5.841-7.675-7.137-.943-.355-1.819-.183-2.716-.385a2.878 2.878 0 0 1-.246-.068 2.716 2.716 0 0 0-.865-.851c-.809-.478-4.114-.188-6.147.478-9.149 3-10.521 12.27-10.624 13.61-.203 2.624-.254 5.261-.07 7.886.183 2.607.611 5.24 1.779 7.613s3.152 4.481 5.754 5.442c-2.207-4.437-3.11-9.433-2.585-14.3.082-.757.2-1.52.505-2.225.341-.79.892-1.458 1.546-2.05a17.442 17.442 0 0 1 2.184-1.11c.609-.263 1.23-.508 1.848-.758 1.452-.586 2.888-1.198 4.117-2.112.136.088.273.172.411.25 1.011.575 2.107 1.013 3.165 1.508.615.287 1.218.594 1.785.96a9.557 9.557 0 0 1 2.968 3.01c.326.53.616 1.114 1.15 1.469 1.035.688 2.406-.38 2.931-1.21 1.886-2.985 2.134-6.79.785-10.02Z" fill="#7B3E29"/><path d="M424.938 26.633c-.06.655.546 1.172 1.101.56.24-.263.259-.768.172-1.092-.094-.352-.481-.586-.845-.38-.297.166-.401.61-.428.912Z" fill="#7B3E29"/><path d="M419.495 32.684a8.072 8.072 0 0 1-2.098-.278c-.031-.008-.048-.038-.039-.066.008-.03.04-.046.071-.037a7.953 7.953 0 0 0 4.07.016c.031-.008.063.008.071.037.009.029-.009.058-.04.066a8.06 8.06 0 0 1-2.035.261ZM418.78 33.732c-.031 0-.057-.024-.057-.053-.001-.03.025-.055.057-.055l1.194-.016c.033 0 .058.024.059.054 0 .03-.025.054-.057.055l-1.195.015h-.001ZM420.174 30.307c-.005 0-.01 0-.016-.002a3.24 3.24 0 0 1-1.09-.51.968.968 0 0 1-.278-.278c-.161-.276-.055-.602.04-.89l.01-.03c.305-.941.355-1.948.144-2.91-.006-.03.014-.058.045-.064.031-.006.062.013.068.042.215.98.164 2.005-.147 2.962l-.01.03c-.092.282-.187.573-.048.808.059.101.158.18.247.246a3.12 3.12 0 0 0 1.05.49c.031.008.049.038.041.066a.058.058 0 0 1-.056.04Z" fill="#A45236"/><path d="M427.364 24.365c-.016-.173-.512-.432-.608-.478a2.848 2.848 0 0 0-1.087-.275c-.428-.02-.868.088-1.253.257-.26.115-.933.481-.389.753.185.093.411.022.612-.038a4.914 4.914 0 0 1 2.337-.108c.085.017.175.036.259.011.098-.029.133-.072.129-.122ZM414.895 26.633c.059.655-.546 1.172-1.102.56-.239-.263-.259-.768-.171-1.092.094-.352.481-.586.845-.38.297.166.401.61.428.912ZM412.454 24.365c.015-.173.511-.432.608-.478a2.84 2.84 0 0 1 1.087-.275c.427-.02.868.088 1.252.257.261.115.933.481.39.753-.186.093-.412.022-.613-.038a4.914 4.914 0 0 0-2.337-.108c-.085.017-.175.036-.258.011-.098-.029-.134-.072-.129-.122Z" fill="#7B3E29"/><path d="M430.47 22.578c1.061-.476 2.413.083 2.985.974.571.892.533 1.995.326 3.015-.135.668-.341 1.34-.753 1.92-.412.58-1.056 1.063-1.816 1.206-.759.142-1.624-.115-2-.698-.135-.209-.203-.446-.259-.683-.373-1.585-.542-4.812 1.517-5.734Z" fill="#FBAE96"/><path d="M429.634 28.04a.021.021 0 0 1-.021-.02 4.454 4.454 0 0 1 .961-2.998c.527-.664 1.189-1.025 1.814-.992.011 0 .02.01.02.021a.021.021 0 0 1-.023.02c-.868-.047-1.531.666-1.776.975a4.418 4.418 0 0 0-.953 2.973c.001.01-.009.02-.02.02h-.002Z" fill="#A45236"/><path d="M429.916 26.255a.024.024 0 0 1-.019-.01.02.02 0 0 1 .008-.027c.69-.37 1.498-.372 2.058-.006.009.006.012.019.005.028a.023.023 0 0 1-.03.005c-.546-.358-1.336-.354-2.011.008a.024.024 0 0 1-.011.002Z" fill="#A45236"/><path d="M406.628 23.13c-1.172-.103-2.232.859-2.437 1.88-.205 1.021.242 2.044.815 2.934.375.583.817 1.145 1.42 1.556.602.41 1.385.655 2.151.543.766-.112 1.481-.634 1.617-1.302.049-.24.025-.485-.011-.724-.239-1.608-1.28-4.689-3.555-4.887Z" fill="#FBAE96"/><path d="M409.431 28.018a.056.056 0 0 1-.055-.038c-.328-.995-1.051-1.892-1.984-2.46-.34-.208-1.214-.655-1.995-.338a.06.06 0 0 1-.076-.028.053.053 0 0 1 .03-.07c.586-.239 1.353-.113 2.104.345.956.583 1.696 1.502 2.031 2.52.01.028-.007.058-.038.067a.056.056 0 0 1-.017.002Z" fill="#A45236"/><path d="M406.597 27.086a.06.06 0 0 1-.033-.01.052.052 0 0 1-.015-.075c.398-.536 1.17-.8 1.968-.675a.055.055 0 0 1 .047.062c-.005.03-.035.049-.066.044-.755-.118-1.482.129-1.854.63a.059.059 0 0 1-.047.024Z" fill="#A45236"/><path d="M428.141 28.716c.369 4.115-.295 8.26-1.349 12.27 4-2.537 7.064-6.426 8.139-10.827.145-.594.255-1.195.346-1.799.749-4.937.455-12.072-3.629-17.566-.408-.549-3.611-.017-4.161-.444-.613-.475 3.379 1.018 2.584 1.066-.795.048-1.56.297-2.294.586a19.963 19.963 0 0 0-3.232 1.622c-.354.22-.714.465-.903.821-.219.414-.169.903-.115 1.362.154 1.289.284 1.808 1.058 2.887.704.982 1.298 2.03 1.789 3.12.941 2.088 1.766 4.614 1.766 6.902h.001Z" fill="#7B3E29"/><path d="M443.497 54.77c-2.732-3.464-7.531-4.506-11.501-6.229-2.105-.913-3.97-1.78-5.401-3.515-.378-.459-12.6-1.204-13.279.047-1.022 1.885-3.551 2.555-5.655 3.468-3.971 1.723-8.198 3.109-10.93 6.573-1.439 1.824-2.627 3.852-2.244 6.088.302 1.769 1.185 3.395 1.957 5.034 2.841 6.028 6.961 27.05 8.913 38.031 7.101 3.756 24 1.671 28.613.242 2.023-11.21 6.466-32.383 9.242-38.273.772-1.64 1.655-3.266 1.958-5.034.382-2.237-.234-4.608-1.673-6.431Z" fill="#FBAE96"/><path d="M435.861 50.046s-14.178 2.406-29.901-.813c-7.281 1.795-12.282 7.38-15.658 14.288-4.987 10.202 9.405 3.164 10.218 18.882.027.526.797 1.264.77 1.204.398.88.449 2.084.649 3.026a585.4 585.4 0 0 1 3.424 17.634c7.101 3.757 24 1.671 28.612.242 2.024-11.209 6.466-32.382 9.242-38.273.773-1.64 1.813-10.363.796-11.791-2.211-3.104-8.152-4.4-8.152-4.4Z" fill="#fff"/><path d="M444.208 54.785c5.513 6.99 8.837 18.906 12.035 27.703 3.24 8.91 3.036 11.163 2.11 13.282-1.377 3.15-13.141-.207-15.566-5.269-2.426-5.063-6.001-14.723-7.5-19.08-1.499-4.356.682-15.395 8.921-16.636Z" fill="#fff"/><path d="M428.96 99.829c-.054 1.322-.296 3.4-1.284 3.4-2.127 0-5.412.158-6.38 0-.388-.063-.433-.304-.238-.722.042-.091.096-.19.16-.298.377-.634 1.109-1.559 1.978-2.776l4.158-.486 1.616-.19s.015.454-.009 1.071h-.001Z" fill="#FCC583"/><path d="M435.864 88.6c0 7.25-8.421 13.126-18.808 13.126-4.715 0-9.025-1.21-12.325-3.21-2.114-1.282-3.815-2.887-4.942-4.705-.263-.423-3.086-.107-3.484-.414-.72-.553-.401-5.534.193-6.193.204-.228 1.946-.565 2.073-1.038 1.636-6.086 9.29-10.691 18.485-10.691 6.083 0 11.492 2.015 14.93 5.142 2.432 2.212 3.878 4.98 3.878 7.983Z" fill="#FCC583"/><path d="M407.888 80.219c-.586.293-1.155.342-1.647.228a2.056 2.056 0 0 1-.117-.129l-.025-.025c-1.172-1.193-1.658-4.555-1.339-5.347a.295.295 0 0 1 .173-.177c.163-.063.409-.003.705.14 1.097.644 2.28 1.442 2.65 1.858.666.75 1.464 2.516-.4 3.451ZM435.04 85.61c.748.132 1.793.03 2.334-.378.965-.727 1.346-1.893 1.596-3.003.105-.564.359-1.692-.18-2.111-.347-.266-.878-.058-1.086.276-.206.328-.19.727-.089 1.09.439 1.534 2.448 2.43 4.025 1.887 1.251-.432 1.541-1.075 1.27-.701-1.22 1.68-4.189 1.22-5.242-.456-.384-.61-.604-1.513-.065-2.105.328-.348.94-.496 1.348-.178.662.52.47 1.645.329 2.32-.217.912-.439 2.154-1.029 2.924-.715.953-1.982 1.834-3.264 1.556-.731-.145-.896-1.286.053-1.12Z" fill="#FCC583"/><path d="M425.351 77.932c-1.981-.544-4.423-.915-7.074-1.022-2.686-.108-5.182.072-7.22.465-.09-.095-.192-.143-.323-.225 1.712-.709 4.421-1.044 7.574-.893 3.557.17 5.659.69 7.32 1.475a5.642 5.642 0 0 0-.277.2ZM404.838 84.537c.093-.6-.076-1.119-.378-1.16-.301-.04-.621.413-.714 1.013-.093.6.076 1.12.378 1.16.301.04.621-.412.714-1.013Z" fill="#BD8440"/><path d="M398.376 52.97c-7.224 5.467-14.994 16.977-20.465 24.737-5.542 7.86-6.752 14.039-3.109 16.489 2.958 1.99 10.252-1.24 13.965-5.567 3.716-4.329 9.785-12.835 12.412-16.698 2.628-3.864 4.833-15.82-2.803-18.96v-.001Z" fill="#fff"/><path d="M406.346 68.085a1.908 1.908 0 0 0-.12.1c-.378.323-1.756.75-2.412 1.47-5.203 5.7-17.252 22.328-21.07 24.024-4.353 1.935-7.399 1.179-8.677-.898-1.819-2.956-.547-6.488 2.86-10.001 3.21-3.31 19.206-13.706 23.806-18.844.282-.316.522-.61.712-.883l.001-.002c1.369-1.957 5.227.84 5.593 3.214.105.683-.079 1.33-.693 1.82Z" fill="#FBAE96"/><path d="M403.106 62.228c-.682-.51-.459-1.34.435-2.43.893-1.089 3.435-3.94 4.053-4.649.618-.71 2.8-2.783 3.878-2.695 1 .081-1.767 3.774-2.028 4.1-.262.325-3.448 3.93-4.088 4.689-.639.759-1.462 1.573-2.249.985h-.001Z" fill="#FBAE96"/><path d="M405.86 61.983c-.682-.51-.459-1.34.434-2.43.894-1.09 3.436-3.94 4.054-4.65.618-.709 2.788-2.782 3.877-2.694 1.001.08-1.766 3.774-2.027 4.1-.262.325-3.449 3.93-4.088 4.689-.64.758-1.462 1.572-2.25.984Z" fill="#FBAE96"/><path d="M415.072 63.184c.432.535.92 1.236 1.275 1.457.355.221 2.84 1.857 1.108-1.32-1.733-3.176-1.304-2.983-2.234-4.138-.931-1.155-3.938.221-6.592 1.369-2.749 1.188-3.103 2.387-2.743 2.954.36.567 1.435 1.303 3.144.112 1.697-1.182 4.362-2.767 4.847-2.055.486.712.825 1.164 1.195 1.621Z" fill="#FBAE96"/><path d="M408.72 61.86c-.683-.51-.46-1.34.434-2.429.893-1.09 3.435-3.94 4.053-4.65.619-.71 2.962-2.95 3.878-2.695.962.268-1.766 3.775-2.028 4.1-.261.325-3.448 3.93-4.087 4.69-.64.758-1.463 1.572-2.25.984ZM411.313 68.028c.575.682 1.51 1.014 1.953 1.474.443.46.801 1.493-.741 1.113-1.541-.38-2.01-.858-3.267-1.295-.863-.3-1.598-.04-2.621-.069-1.295-.036-1.263-.786-2.446.069-1.406 1.015 8.279-9.978 7.146-8.755-1.031 1.112-2.635 3.185-2.303 5.02.168.927 1.791 1.863 2.28 2.443h-.001Z" fill="#FBAE96"/><path d="M410.389 61.6s-.01.117-.031.322c-.022.23-3.611 5.96-4.089 6.219l-.085.047c-.384.216-1.091.042-1.449.308-.431.32-.972.648-1.281.893-1.238.98-5.521-.756-3.915-3.117.459-.675.873-1.384 1.275-2.1.21-.372.416-.747.624-1.12l.001-.001c.632-1.133 1.279-2.248 2.069-3.236.183-.228.373-.45.573-.663.977-1.044 5.413 1.006 6.308 2.447Z" fill="#FBAE96"/><path d="M406.741 59.539a.059.059 0 0 1-.034-.011.051.051 0 0 1-.012-.075c.019-.025 2.001-2.51 4.06-4.935a.06.06 0 0 1 .081-.008.051.051 0 0 1 .009.076c-2.057 2.422-4.038 4.907-4.058 4.931a.057.057 0 0 1-.046.022ZM409.183 60.049a.064.064 0 0 1-.035-.011.052.052 0 0 1-.012-.075c.022-.028 2.2-2.752 4.259-5.176a.06.06 0 0 1 .081-.009.051.051 0 0 1 .009.076 261.693 261.693 0 0 0-4.256 5.173.058.058 0 0 1-.046.022Z" fill="#E8825F"/><path d="M458.533 92.68c-1.274-3.194-4.997-4.539-10.07-4.338-5.072.201-23.206 6.169-29.204 5.523-3.202-.345-2.796 5.285.8 5.656 3.596.37 29.293 1.852 33.669-.037 4.376-1.889 5.7-4.558 4.805-6.803Z" fill="#FBAE96"/><path d="M409.364 97.263c-.295-1.681-.445-3.314-.13-4.9 1.082.106 2.534.176 3.537.346 1.535.269 3.014.724 4.544 1.093.784.187 1.37-.288 2.094-.236.837.06 3.604.144 5.167-.083.987-.144-.173 2.101.138 2.969a.755.755 0 0 1 .065.317c-.012.12-.09.21-.167.296-.828.925-.694 2.646-2.136 2.646-1.872 0-3.869.144-5.345.138-2.144.01-5.031-.084-7.356-.139-.504-.911-.244-1.523-.411-2.447Z" fill="#FBAE96"/><path d="M401.987 91.662c-.327-.016-.667-.03-.976.043-.31.073-.591.251-.635.504-.015.09.002.19.079.27.091.094.242.14.381.178 3.286.886 6 1.232 9.324 1.853 1.196.206.513-1.49-.052-1.85-.485-.303-1.02-.31-1.595-.386a76.079 76.079 0 0 0-6.527-.612h.001ZM402.438 96.76c-.362-.077-.74-.158-1.079-.114-.34.045-.623.262-.528.538.076.221.357.404.623.55 1.772.982 3.819 1.464 5.743 1.737 1.606.223 2.742.374 4.428.071.148-.027.305-.434.377-.534.339-.482-.475-1.094-1.042-1.214-.635-.133-1.465-.029-2.126-.085a51.147 51.147 0 0 1-6.397-.948h.001Z" fill="#FBAE96"/><path d="M409.574 94.496c.095.3-7.664-1.494-10.062-1.193-.255.032-.498.148-.631.354-.403.622.005 2.08 10.541 3.931.75.148 1.497.279 2.239.392a31.134 31.134 0 0 1-2.087-3.484Z" fill="#FBAE96"/><path d="M409.404 96.085h-.007c-3.11-.39-6.526-.941-10.434-2.324-.03-.01-.045-.042-.034-.07a.06.06 0 0 1 .075-.03c3.897 1.379 7.305 1.928 10.408 2.317.031.004.053.03.049.06a.057.057 0 0 1-.057.047Z" fill="#E8825F"/><path d="M414.905 91.326c-.724-.237-1.427-.504-2.171-.6-.663-.087-1.292-.562-1.802-.97-.09-.07-.232-.026-.282.09-.217.504-.134 1.1.152 1.569.329.539.879.934 1.446 1.28.568.346 1.172.663 1.691 1.115.339.297.64.65 1.017.927.426.313.849.368 1.337.463.618.119 1.239.173 1.854.208.612.047 2.399.099 2.574-.598.18-.718-.934-1.194-1.474-1.545-1.482-.943-2.896-1.465-4.342-1.938Z" fill="#FBAE96"/><path d="M416.174 68.546c1.206-1.126 1.206-2.951 0-4.077-1.207-1.126-3.162-1.126-4.369 0-1.206 1.126-1.206 2.951 0 4.077 1.207 1.126 3.162 1.126 4.369 0Z" fill="#FFCA42"/><path d="M413.99 68.89c-.094 0-.187-.004-.281-.014a2.59 2.59 0 0 1-1.715-.876 2.258 2.258 0 0 1-.549-1.752 2.332 2.332 0 0 1 .939-1.6c.532-.4 1.198-.582 1.877-.513 1.4.142 2.416 1.321 2.263 2.628a2.328 2.328 0 0 1-.939 1.601 2.646 2.646 0 0 1-1.595.526Zm-.01-4.661c-.553 0-1.086.174-1.524.502a2.228 2.228 0 0 0-.897 1.529c-.07.604.116 1.198.525 1.672.408.474.989.771 1.637.837a2.546 2.546 0 0 0 1.792-.489c.508-.381.826-.924.897-1.528.145-1.248-.825-2.374-2.162-2.51a2.702 2.702 0 0 0-.268-.013Z" fill="#D1990A"/><path d="M413.963 64.228c-.031 0-.057-.024-.057-.053v-.484c0-.03.026-.053.057-.053.031 0 .057.023.057.053v.484c0 .03-.026.053-.057.053ZM413.963 69.373c-.031 0-.057-.024-.057-.054v-.483c0-.03.026-.054.057-.054.031 0 .057.024.057.054v.483c0 .03-.026.054-.057.054ZM416.978 66.56h-.518c-.032 0-.058-.024-.058-.054s.026-.054.058-.054h.518c.032 0 .058.024.058.054s-.026.055-.058.055ZM411.454 66.56h-.517c-.032 0-.058-.024-.058-.054s.026-.054.058-.054h.517c.032 0 .058.024.058.054s-.026.055-.058.055ZM415.73 64.911a.06.06 0 0 1-.041-.016.05.05 0 0 1 0-.076l.366-.341a.06.06 0 0 1 .081 0 .05.05 0 0 1 0 .076l-.366.341a.06.06 0 0 1-.04.016ZM411.843 68.55a.06.06 0 0 1-.041-.016.05.05 0 0 1 0-.076l.366-.342a.061.061 0 0 1 .082 0 .052.052 0 0 1 0 .076l-.366.342a.064.064 0 0 1-.041.016ZM416.096 68.549a.06.06 0 0 1-.041-.016l-.366-.341a.05.05 0 0 1 0-.076.06.06 0 0 1 .081 0l.366.341a.05.05 0 0 1 0 .076.06.06 0 0 1-.04.016ZM412.209 64.911a.06.06 0 0 1-.041-.016l-.366-.341a.05.05 0 0 1 0-.076.061.061 0 0 1 .082 0l.366.341a.052.052 0 0 1 0 .076.06.06 0 0 1-.041.016Z" fill="#D1990A"/><path d="M406.715 59.54c-.487 0-.971-.248-1.163-.428a.051.051 0 0 1 0-.076.06.06 0 0 1 .081 0c.174.162.633.395 1.082.395h.029c.033 0 .059.024.059.053.001.03-.024.054-.056.055h-.032ZM409.164 60.05c-.487 0-.97-.247-1.163-.427a.052.052 0 0 1 0-.076.061.061 0 0 1 .082 0c.173.161.632.395 1.082.395h.028c.034 0 .059.023.06.052 0 .03-.025.054-.057.055h-.032ZM412.245 59.275a.058.058 0 0 1-.053-.033.053.053 0 0 1 .031-.07l1.127-.452a.06.06 0 0 1 .076.029c.013.027-.001.058-.03.07l-1.128.451a.06.06 0 0 1-.023.005ZM406.744 62.166c-1.073 0-2.085-.128-2.551-.197-.031-.005-.053-.032-.048-.062.005-.03.035-.05.066-.044.618.09 2.205.287 3.607.145.659-.067 1.57-.33 2.32-.672a.06.06 0 0 1 .077.025.053.053 0 0 1-.026.072c-.761.346-1.687.614-2.358.682-.357.036-.725.05-1.087.05ZM404.054 64.23a.058.058 0 0 1-.054-.035.053.053 0 0 1 .033-.07c1.847-.67 4.986-.925 5.41-.925.032 0 .058.024.058.053 0 .03-.026.054-.058.054-.421 0-3.536.253-5.368.919a.06.06 0 0 1-.021.003Z" fill="#E8825F"/><path d="M405.257 65.23a.062.062 0 0 1-.021-.003.053.053 0 0 1-.033-.07c.167-.4 1.262-1.327 2.196-1.761a.06.06 0 0 1 .077.024.052.052 0 0 1-.026.072c-.896.417-1.983 1.328-2.139 1.704a.059.059 0 0 1-.054.035Z" fill="#E8825F"/></g><defs><clipPath id="a"><path fill="#fff" d="M0 0h457v99H0z"/></clipPath></defs></svg>