<svg width="543" height="215" fill="none" xmlns="http://www.w3.org/2000/svg"><g clip-path="url(#a)"><path fill="#C7F2C9" d="M0 0h543v215H0z"/><path d="M611.092 187.231c-.102.47-.207.937-.315 1.4-2.574 11.076-6.677 19.85-12.275 24.888-37.651 4.694-239.761 3.242-239.761 3.242-9.405-5.8-16.006-15.928-19.59-28.13a68.54 68.54 0 0 1-.395-1.4c-3.709-13.657-3.722-29.744.249-45.22.119-.468.242-.935.37-1.401 4.287-15.717 12.712-30.706 25.579-41.756a76.613 76.613 0 0 0 3.764-3.464c.468-.46.931-.926 1.391-1.4 11.989-12.325 21.574-29.251 32.807-45.22.328-.468.659-.934.991-1.4 9.32-13.082 19.835-25.407 33.8-33.882a75.857 75.857 0 0 1 19.38-8.357c31.788-8.744 57.24-6.24 80.661 6.957.805.454 1.609.92 2.41 1.4 13.199 7.898 25.792 19.225 38.564 33.882a266.789 266.789 0 0 1 2.852 3.323c9.77 11.562 17.296 26.763 22.628 43.297a192.136 192.136 0 0 1 3.508 12.29l.19.763.051.212c.407 1.659.793 3.324 1.159 4.995v.002a214.246 214.246 0 0 1 3.245 18.892v.002a212.337 212.337 0 0 1 1.094 10.865c1.239 16.572.437 32.357-2.357 45.22Z" fill="#D5FBD7"/><path d="M357.243 186.117c-.083.152-.202.317-.385.334-.159.015-.308-.099-.371-.236-.064-.137-.061-.292-.053-.442a7.6 7.6 0 0 1 .371-1.964c.071-.214.159-.437.342-.584 1.109-.891.312 2.494.096 2.892ZM352.221 185.981c.018.097.036.2.004.283-.058.152-.261.157-.407.057-.146-.1-.248-.269-.344-.431-.29-.492-.585-.994-.746-1.536-.189-.637-.147-1.766.589-.955.542.598.766 1.846.904 2.582Z" fill="#7096B4"/><path d="M361.324 153.829c.827-1.164 1.198-2.557 1.418-3.937.185-1.157.359-2.392.335-3.563-.019-.949-.681-1.954-1.7-1.426-.914.473-1.735 1.511-2.324 2.293-1.073 1.419-1.793 3.071-2.067 4.788-.172 1.08-.56 3.411.975 3.863 1.205.355 2.798-1.224 3.363-2.018ZM354.047 153.138a17.078 17.078 0 0 1 1.58 5.416c.107.907.128 1.868-.314 2.682-.205.377-.543.729-.99.799-.702.109-1.281-.494-1.653-1.058-1.512-2.29-2.201-5.041-1.934-7.717.042-.426.115-.865.369-1.221 1.003-1.403 2.496.173 2.943 1.099h-.001ZM363.051 156.966a14.164 14.164 0 0 1-2.322 3.971c-.411.498-.871.981-1.465 1.28-.246.124-.586.2-.778.012a.573.573 0 0 1-.141-.286c-.298-1.158.22-2.352.775-3.425.614-1.191 1.337-2.445 2.501-3.25 1.701-1.178 1.928.391 1.43 1.698Z" fill="#C7F2C9"/><path d="m355.507 175.059-.226-.008c.003-.051.219-5.162 1.107-11.287.819-5.657 2.395-13.362 5.248-17.941l.197.101c-2.835 4.55-4.404 12.227-5.221 17.866-.886 6.115-1.103 11.218-1.105 11.269Z" fill="#E0BA89"/><path d="m355.153 174.58-.224-.031c.907-5.413-.403-15.522-2.804-21.635l.213-.069c2.411 6.139 3.726 16.295 2.815 21.735ZM356.87 173.623c-.329-2.48-.052-5.723.741-8.677.681-2.535 2.074-6.134 4.847-8.88l.167.139c-5.048 4.997-6.072 13.321-5.531 17.394l-.224.024Z" fill="#E0BA89"/><path d="M350.294 169.275c1.688-.824 3.549-1.002 3.549-2.873v-1.614c0-.171.195-.308.426-.299l1.91.074 1.91-.074c.231-.009.426.128.426.299v1.21c0 .827.446 1.635 1.228 2.225.805.607 2.007.757 2.759 1.36.417.335.687.754.901 1.182 1.6 3.187-.307 6.658-1.336 9.797-.718 2.193-1.437 4.384-2.154 6.577l-.031.093h-8.658l-1.49-6.213c-.374-1.556-1.574-6.419-1.618-7.327a5.555 5.555 0 0 1 .546-2.677c.321-.67.807-1.332 1.607-1.726l.026-.013-.001-.001Z" fill="#C7F2C9"/><path d="M353.001 167.831c.412.11.783.213 1.015.242 1.376.172 2.775.34 4.166.272a9.82 9.82 0 0 0 1.589-.203c.036.026.071.054.108.08.333.237.731.403 1.139.555-.998.369-2.194.555-3.387.589-1.556.043-3.116-.155-4.621-.425-.256-.046-.844-.18-1.377-.364.535-.209 1.016-.433 1.371-.746h-.003ZM356.799 166.834a25.813 25.813 0 0 1-3.182-.195c.008-.076.013-.155.013-.237v-.558c1.225.132 2.464.245 3.691.217.427-.01.854-.039 1.264-.09v.026c0 .242.042.482.12.715-.613.078-1.259.118-1.905.122h-.001ZM361.708 173.499c-.015.369-.055.785-.364 1.014a.29.29 0 0 1-.19.069c-.106-.008-.18-.101-.224-.192-.155-.315-.138-.675-.145-1.021-.013-.603-.915-2.927-.148-3 1.254-.121 1.096 2.554 1.072 3.131l-.001-.001ZM357.028 172.752l.003 1.769c0 .125-.002.256-.071.363-.135.207-.478.22-.693.082-.215-.138-.327-.376-.408-.607a4.208 4.208 0 0 1-.037-2.657c.138-.432.469-.932.943-.567.349.269.262 1.243.263 1.617ZM356.771 184.042l.002 1.769c0 .125-.002.256-.071.362-.135.208-.478.22-.693.082-.215-.138-.327-.375-.407-.606a4.208 4.208 0 0 1-.038-2.657c.138-.432.469-.932.943-.567.349.269.262 1.243.263 1.617h.001ZM359.382 174.332c-.042.172-.116.365-.294.425-.156.053-.335-.027-.437-.149-.101-.123-.14-.278-.173-.43a7.84 7.84 0 0 1-.162-2.055c.013-.232.04-.475.184-.666.87-1.153.991 2.426.882 2.875ZM358.443 182.291c-.067.165-.168.348-.353.384-.163.032-.329-.069-.411-.203-.082-.134-.098-.293-.108-.448a7.757 7.757 0 0 1 .141-2.056c.046-.229.11-.466.279-.636 1.031-1.033.626 2.528.452 2.959ZM360.501 179.027c-.074.162-.184.34-.371.369-.164.025-.325-.083-.401-.221-.076-.137-.084-.297-.087-.452a7.783 7.783 0 0 1 .238-2.048c.058-.226.132-.46.31-.624 1.079-.988.505 2.552.31 2.975l.001.001ZM354.096 174.428c-.032.107-.069.219-.159.291-.166.133-.441.061-.581-.097-.14-.158-.179-.37-.213-.572-.105-.614-.21-1.24-.112-1.856.115-.723.829-1.862 1.348-.752.382.818-.04 2.181-.283 2.986ZM354.62 182.457c-.033.106-.07.219-.159.29-.167.134-.442.061-.582-.097-.139-.158-.178-.369-.213-.571-.105-.614-.209-1.24-.111-1.856.115-.724.828-1.862 1.347-.753.383.818-.04 2.181-.283 2.986l.001.001ZM356.682 179.967c-.032.107-.069.219-.159.291-.166.133-.442.061-.581-.097-.14-.158-.179-.37-.213-.572-.105-.614-.21-1.24-.112-1.856.115-.723.829-1.862 1.348-.752.382.818-.04 2.181-.284 2.986h.001ZM352.019 171.022a5.014 5.014 0 0 1-.367 2.919.444.444 0 0 1-.116.174c-.13.105-.345.056-.461-.063-.116-.119-.156-.283-.186-.441a6.866 6.866 0 0 1-.102-1.832c.045-.569 1.014-1.986 1.232-.757ZM352.516 176.513c.435.907.589 1.928.441 2.91a.447.447 0 0 1-.065.196c-.097.132-.319.136-.464.048-.145-.087-.228-.238-.301-.383a7.016 7.016 0 0 1-.597-1.748c-.111-.561.441-2.16.985-1.023h.001Z" fill="#A3E1A6"/><path d="M579.931 48.77H402.914c.328-.468.658-.934.991-1.4h174.814c.404.463.807.93 1.212 1.4ZM540.155 13.49H437.703c.789-.48 1.59-.947 2.402-1.4h97.64c.805.454 1.608.92 2.41 1.4ZM604.656 95.391H368.727c.467-.46.931-.926 1.391-1.4H604.21c.151.466.299.932.446 1.4ZM613.452 142.012H339.008c.119-.468.242-.935.37-1.401h273.965c.038.468.075.935.109 1.401Z" fill="#C7F2C9"/><path d="M611.101 187.231c-.102.471-.207.938-.315 1.4H339.161a68.54 68.54 0 0 1-.395-1.4h272.335Z" fill="#9DE9A0"/><path d="M554.628 32.315h-31.987v15.056h31.987V32.315Z" fill="#C7F2C9"/><path d="M539.781 34.923c0-.527-.516-.954-1.152-.954-.637 0-1.152.427-1.152.954 0 .42.328.775.783.902v1.253h.738v-1.253c.455-.127.783-.483.783-.902Z" fill="#A3E1A6"/><path d="M428.125 93.992V89.7H386.66v4.292h41.465Z" fill="#C7F2C9"/><path d="M418.148 92.958v-2.225h-21.5v2.225h21.5Z" fill="#A3E1A6"/><path d="M431 89.7v-5.562h-34.716v5.563H431Z" fill="#C7F2C9"/><path d="M422.633 88.362v-2.884h-18.001v2.884h18.001Z" fill="#A3E1A6"/><path d="M420.469 84.236V81.35h-29.224v2.885h29.224Z" fill="#C7F2C9"/><path d="M418.75 83.543v-1.496h-25.793v1.496h25.793Z" fill="#A3E1A6"/><path d="M485.163 82.774c2.511.326 5.239.925 6.734 2.784 1.67 2.076 1.734 4.631.673 7.014 5.182-3.54 8.484-8.305 10.21-13.979 1.093-3.593 1.352-7.35 1.451-11.076.067-2.497.06-5.03-.649-7.444-1.453-4.95-5.674-8.832-10.176-11.92-3.121-2.142-6.476-4.033-10.113-5.34a35.85 35.85 0 0 0-13.308-2.064c-2.047.072-4.173.347-5.869 1.389-1.037.637-1.852 1.525-2.625 2.419-3.276 3.79-6.094 7.989-7.558 12.62-1.691 5.354-1.498 11.114-.015 16.518 1.047 3.814 2.721 7.465 4.764 10.924.668 1.13 3.838 5.118 3.838 5.118s-.304-2.442 1.043-4.028c2.385-2.81 15.145-3.773 21.599-2.936l.001.001Z" fill="#5C2F1F"/><path d="M493.055 104.052c-3.695-7.093-6.274-19.005-5.731-29.585.358-.6-18.338.003-17.981.603.543 10.58-1.328 21.89-5.024 28.982-1.193 2.29.874 5.991 2.114 8.209 1.44 2.577 3.215 4.989 5.495 7.019 1.513 1.348 4.11 3.274 6.689 3.981v.04l.07-.02.069.02v-.04c2.58-.707 5.177-2.633 6.69-3.981 2.28-2.03 4.054-4.442 5.494-7.019 1.24-2.217 3.308-5.919 2.114-8.209h.001Z" fill="#FBAE96"/><path d="M486.215 84.404c.12-.076-9.982-1.544-16.849-2.532a73.082 73.082 0 0 1-.397 5.125c3.295 1.449 11.176 3.869 17.246-2.593Z" fill="#FBAE96" style="mix-blend-mode:multiply" opacity=".28"/><path d="M501.553 52.759c-.654 4.182-3.282 14.632-4.911 18.277-3.307 7.396-7.596 13.633-16.88 16.13-1.331.358-2.714.472-4.061.109-7.575-2.044-13.31-9.143-16.085-15.3-2.027-4.495-4.062-9.003-5.552-13.674-2.148-6.733-3.604-13.035-.249-19.582 2.811-5.483 8.047-9.943 14.32-12.018 4.315-1.427 7.981-.485 12.311-.516 2.203-.017 3.731-.345 5.996.226 4.328 1.09 8.367 3.284 11.119 6.545 4.916 5.824 5.127 12.547 3.992 19.803Z" fill="#FBAE96"/><path d="M503.312 39.066c-2.645-6.154-8.294-11.132-15.047-13.602-1.849-.676-3.567-.347-5.325-.733a5.678 5.678 0 0 1-.481-.13c-.461-.672-1.019-1.233-1.697-1.622-1.586-.911-8.065-.358-12.05.912-17.937 5.718-20.626 23.385-20.829 25.937-.398 5.001-.498 10.026-.136 15.03.359 4.966 1.197 9.983 3.487 14.507 2.29 4.523 6.179 8.54 11.28 10.372-4.326-8.457-6.096-17.977-5.067-27.253.16-1.443.391-2.897.989-4.24.67-1.508 1.75-2.78 3.033-3.908 1.36-.809 2.82-1.503 4.281-2.115 1.193-.5 2.411-.967 3.623-1.444 2.845-1.116 5.661-2.282 8.071-4.024.265.167.535.326.806.476 1.982 1.096 4.129 1.93 6.203 2.872 1.207.55 2.389 1.134 3.5 1.83 2.377 1.488 4.382 3.463 5.819 5.736.639 1.012 1.208 2.123 2.255 2.8 2.029 1.312 4.717-.723 5.745-2.304 3.698-5.69 4.184-12.942 1.539-19.096l.001-.001Z" fill="#7B3E29"/><path d="M488.422 66.002c-.116 1.249 1.07 2.235 2.16 1.068.469-.502.508-1.464.337-2.082-.186-.67-.944-1.117-1.658-.725-.581.318-.786 1.165-.839 1.739Z" fill="#7B3E29"/><path d="M477.749 77.533c-1.384 0-2.768-.176-4.113-.528-.06-.016-.094-.072-.077-.127.016-.055.08-.086.14-.07 2.607.682 5.366.693 7.979.03.06-.015.122.017.14.071.016.055-.018.112-.079.127a16.239 16.239 0 0 1-3.991.497h.001ZM476.355 79.532c-.062 0-.112-.046-.113-.102-.001-.057.049-.104.112-.105l2.342-.03c.064 0 .114.045.115.102 0 .058-.049.104-.112.105l-2.342.03h-.002ZM479.079 73.004a.153.153 0 0 1-.03-.003 6.441 6.441 0 0 1-2.138-.971c-.194-.137-.41-.307-.545-.531-.316-.526-.107-1.148.077-1.698l.02-.057c.599-1.793.697-3.71.284-5.545-.013-.056.027-.11.088-.121.061-.011.12.024.133.08.421 1.868.321 3.82-.289 5.645l-.02.058c-.18.536-.365 1.09-.094 1.54.116.191.311.343.485.467a6.193 6.193 0 0 0 2.059.934c.06.015.096.072.079.126a.112.112 0 0 1-.109.075v.001Z" fill="#A45236"/><path d="M493.173 61.68c-.031-.33-1.002-.823-1.192-.912a5.703 5.703 0 0 0-2.131-.523c-.838-.038-1.701.167-2.455.49-.511.218-1.829.917-.764 1.436.364.177.807.041 1.201-.073a9.899 9.899 0 0 1 4.581-.207c.167.032.344.068.507.022.192-.055.262-.137.253-.234ZM468.731 66.002c.116 1.249-1.071 2.235-2.161 1.068-.469-.502-.507-1.464-.336-2.082.185-.67.943-1.117 1.658-.725.58.318.785 1.165.839 1.739ZM463.938 61.68c.031-.33 1.003-.823 1.193-.912a5.698 5.698 0 0 1 2.13-.523c.839-.038 1.702.167 2.456.49.51.218 1.829.917.764 1.436-.364.177-.808.041-1.201-.073a9.903 9.903 0 0 0-4.582-.207c-.167.032-.343.068-.507.022-.192-.055-.262-.137-.253-.234Z" fill="#7B3E29"/><path d="M499.276 58.274c2.082-.907 4.731.158 5.852 1.856 1.121 1.7 1.046 3.802.641 5.747-.265 1.273-.669 2.551-1.477 3.657-.808 1.105-2.071 2.027-3.56 2.299-1.489.272-3.183-.219-3.921-1.329-.265-.398-.399-.85-.508-1.302-.731-3.02-1.063-9.17 2.974-10.928h-.001Z" fill="#FBAE96"/><path d="M497.635 68.683c-.022 0-.041-.016-.042-.037-.125-2.012.562-4.095 1.884-5.714 1.033-1.265 2.331-1.954 3.555-1.89.024 0 .041.018.04.04-.001.02-.021.037-.044.036-1.703-.088-3.003 1.271-3.483 1.86-1.311 1.605-1.992 3.67-1.868 5.664.002.022-.017.04-.04.04h-.002Z" fill="#A45236"/><path d="M498.191 65.282a.044.044 0 0 1-.037-.02.036.036 0 0 1 .016-.051c1.352-.705 2.935-.709 4.033-.011a.037.037 0 0 1 .011.053.046.046 0 0 1-.059.01c-1.071-.682-2.619-.675-3.943.014a.047.047 0 0 1-.021.005Z" fill="#A45236"/><path d="M452.533 59.325c-2.298-.194-4.376 1.638-4.778 3.584-.401 1.947.474 3.895 1.597 5.592.735 1.11 1.603 2.182 2.784 2.964 1.181.782 2.717 1.25 4.218 1.036 1.5-.214 2.902-1.208 3.169-2.481.096-.457.049-.924-.021-1.381-.469-3.064-2.51-8.935-6.969-9.313Z" fill="#FBAE96"/><path d="M458.019 68.642a.111.111 0 0 1-.108-.072c-.642-1.896-2.06-3.605-3.89-4.69-.665-.395-2.38-1.248-3.91-.642-.057.022-.124-.002-.149-.053-.024-.053.002-.113.059-.135 1.149-.455 2.652-.214 4.125.659 1.873 1.11 3.324 2.86 3.982 4.8.018.054-.015.112-.075.128a.11.11 0 0 1-.033.005h-.001Z" fill="#A45236"/><path d="M452.464 66.865a.122.122 0 0 1-.064-.018.097.097 0 0 1-.028-.143c.778-1.021 2.292-1.526 3.857-1.287.061.01.103.062.092.118-.01.056-.068.093-.13.084-1.478-.225-2.905.246-3.634 1.202a.117.117 0 0 1-.093.044Z" fill="#A45236"/><path d="M494.706 69.971c.724 7.844-.578 15.74-2.643 23.385 7.841-4.835 13.848-12.246 15.955-20.633.285-1.133.5-2.28.679-3.43 1.469-9.408.892-23.006-7.116-33.476-.799-1.046-7.078-.033-8.157-.846-1.201-.905 6.625 1.94 5.067 2.03-1.558.092-3.059.567-4.498 1.117a39.53 39.53 0 0 0-6.335 3.091c-.694.42-1.4.888-1.77 1.567-.43.788-.333 1.72-.226 2.594.301 2.457.556 3.447 2.074 5.503a34.314 34.314 0 0 1 3.507 5.944c1.845 3.98 3.462 8.795 3.462 13.156l.001-.002Z" fill="#7B3E29"/><path d="M524.811 119.626c-5.358-6.602-14.765-8.589-22.549-11.872-4.125-1.74-7.781-3.393-10.587-6.699-.742-.875-24.702-2.294-26.033.089-2.004 3.592-6.961 4.87-11.086 6.61-7.785 3.283-16.071 5.924-21.428 12.526-2.821 3.476-5.15 7.34-4.4 11.603.593 3.369 2.324 6.469 3.838 9.592 5.569 11.489 13.645 51.553 17.473 72.478 13.921 7.159 47.051 3.185 56.093.461 3.967-21.362 12.677-61.713 18.119-72.939 1.514-3.124 3.246-6.223 3.838-9.593.751-4.262-.458-8.781-3.279-12.257l.001.001Z" fill="#FBAE96"/><path d="M509.823 110.621s-27.795 4.586-58.619-1.549c-14.274 3.421-24.079 14.066-30.697 27.229-9.777 19.442 18.438 6.03 20.032 35.985.053 1.003 1.563 2.409 1.509 2.294.781 1.679.882 3.973 1.273 5.768.903 4.135 1.77 8.278 2.615 12.424 1.435 7.049 2.803 14.11 4.097 21.182 13.921 7.158 47.051 3.185 56.093.461 3.967-21.362 12.677-61.713 18.119-72.939 1.514-3.124 3.554-19.75 1.56-22.472-4.335-5.914-15.981-8.384-15.981-8.384l-.001.001Z" fill="#fff"/><path d="M526.193 119.654c10.809 13.321 17.326 36.03 23.596 52.794 6.35 16.98 5.95 21.275 4.135 25.312-2.698 6.005-25.762-.393-30.516-10.04-4.756-9.649-11.764-28.059-14.703-36.362-2.938-8.303 1.337-29.34 17.488-31.705v.001Z" fill="#fff"/><path d="M467.475 206.4s-.282 1.914-1.087 3.501c-.569 1.119-1.399 2.074-2.575 2.074-4.171 0-10.61.302-12.509 0-.76-.12-.848-.579-.466-1.375.455-.95 1.58-2.381 3.024-4.294.37-.49.761-1.011 1.168-1.564l9.073 1.209 3.373.449h-.001ZM496.299 205.495c-.106 2.521-.58 6.48-2.517 6.48-4.172 0-10.611.301-12.509 0-.76-.12-.848-.579-.467-1.375a6.62 6.62 0 0 1 .315-.569c.738-1.208 2.175-2.971 3.878-5.29l8.151-.927 3.167-.36s.031.864-.017 2.04l-.001.001Z" fill="#FCC583"/><path d="M509.841 184.097c0 13.815-16.508 25.015-36.871 25.015-9.244 0-17.693-2.307-24.163-6.119-4.144-2.442-7.478-5.5-9.689-8.965-.514-.806-6.049-.204-6.829-.789-1.412-1.054-.786-10.548.377-11.803.402-.435 3.816-1.077 4.065-1.979 3.207-11.598 18.213-20.374 36.239-20.374 11.925 0 22.529 3.84 29.269 9.799 4.768 4.216 7.602 9.491 7.602 15.215Z" fill="#FCC583"/><path d="M455.001 168.123c-1.149.56-2.265.652-3.23.436a3.512 3.512 0 0 1-.229-.246c-.014-.017-.033-.031-.049-.047-2.298-2.275-3.251-8.681-2.626-10.192a.572.572 0 0 1 .339-.337c.32-.119.802-.005 1.382.266 2.151 1.229 4.471 2.749 5.196 3.543 1.305 1.43 2.871 4.794-.783 6.576v.001ZM508.227 178.399c1.466.249 3.514.055 4.574-.721 1.892-1.386 2.639-3.609 3.129-5.724.205-1.074.704-3.224-.352-4.023-.68-.506-1.721-.11-2.13.525-.404.626-.371 1.386-.175 2.077.861 2.924 4.801 4.633 7.892 3.598 2.452-.825 3.021-2.049 2.49-1.337-2.392 3.201-8.212 2.327-10.276-.867-.754-1.164-1.186-2.886-.128-4.012.642-.664 1.842-.946 2.643-.341 1.297.992.921 3.135.644 4.421-.426 1.738-.86 4.107-2.018 5.573-1.401 1.817-3.885 3.496-6.398 2.967-1.433-.277-1.756-2.452.104-2.135l.001-.001Z" fill="#FCC583"/><path d="M489.217 163.765c-3.883-1.037-8.67-1.744-13.867-1.948-5.266-.206-10.159.137-14.156.886-.176-.18-.376-.272-.632-.427 3.355-1.351 8.668-1.991 14.848-1.703 6.974.324 11.093 1.316 14.35 2.811-.159.104-.33.224-.542.381h-.001ZM449.009 176.354c.182-1.143-.149-2.133-.74-2.211-.591-.077-1.218.787-1.4 1.93-.182 1.144.149 2.134.74 2.211.591.078 1.217-.786 1.4-1.93Z" fill="#BD8440"/><path d="M436.346 116.194c-14.162 10.418-29.394 32.354-40.121 47.143-10.863 14.978-13.236 26.754-6.094 31.423 5.798 3.792 20.098-2.363 27.378-10.609 7.284-8.25 19.182-24.461 24.333-31.823 5.151-7.363 9.475-30.15-5.496-36.134Z" fill="#fff"/><path d="m451.968 144.999-.136.108-.099.082c-.742.616-3.443 1.431-4.729 2.802-10.199 10.863-33.822 42.552-41.306 45.785-8.535 3.687-14.505 2.246-17.01-1.712-3.566-5.633-1.073-12.365 5.606-19.06 6.293-6.308 37.653-26.12 46.671-35.912a18.468 18.468 0 0 0 1.396-1.683l.002-.002c2.683-3.73 10.247 1.601 10.963 6.125.207 1.3-.153 2.534-1.358 3.467Z" fill="#FBAE96"/><path d="M445.611 133.837c-1.338-.971-.901-2.552.851-4.629 1.752-2.077 6.734-7.51 7.947-8.861 1.212-1.352 5.489-5.304 7.601-5.137 1.962.155-3.462 7.194-3.974 7.813-.513.62-6.761 7.491-8.014 8.937-1.254 1.446-2.867 2.997-4.41 1.877h-.001Z" fill="#FBAE96"/><path d="M451.025 133.37c-1.338-.971-.901-2.553.851-4.629 1.752-2.077 6.735-7.51 7.946-8.862 1.212-1.352 5.467-5.303 7.602-5.136 1.962.153-3.463 7.193-3.975 7.813-.513.62-6.761 7.491-8.014 8.937-1.253 1.446-2.867 2.997-4.41 1.876v.001Z" fill="#FBAE96"/><path d="M469.073 135.66c.846 1.019 1.804 2.355 2.5 2.776.695.422 5.567 3.54 2.171-2.515-3.396-6.054-2.555-5.685-4.379-7.887-1.825-2.201-7.72.423-12.924 2.609-5.388 2.264-6.082 4.55-5.376 5.63.706 1.08 2.812 2.483 6.162.214 3.328-2.254 8.553-5.274 9.504-3.917a43.738 43.738 0 0 0 2.342 3.09Z" fill="#FBAE96"/><path d="M456.619 133.136c-1.338-.971-.901-2.552.851-4.629 1.752-2.077 6.734-7.51 7.947-8.862 1.212-1.351 5.805-5.622 7.601-5.136 1.887.511-3.462 7.193-3.974 7.813-.513.62-6.761 7.491-8.014 8.937-1.254 1.446-2.867 2.997-4.41 1.877h-.001ZM461.714 144.891c1.128 1.3 2.96 1.933 3.829 2.809.868.876 1.569 2.844-1.452 2.121-3.023-.723-3.942-1.635-6.406-2.469-1.693-.572-3.134-.075-5.138-.13-2.538-.069-2.476-1.498-4.796.13-2.756 1.934 16.23-19.016 14.009-16.685-2.02 2.119-5.165 6.071-4.514 9.568.329 1.767 3.51 3.549 4.469 4.656h-.001Z" fill="#FBAE96"/><path d="M459.898 132.64s-.021.224-.061.615c-.044.438-7.079 11.358-8.016 11.851-.056.029-.111.06-.167.09-.754.411-2.14.08-2.84.587-.846.61-1.907 1.236-2.513 1.703-2.426 1.866-10.822-1.442-7.674-5.942.899-1.285 1.711-2.636 2.499-4 .412-.711.816-1.425 1.224-2.135l.002-.003c1.239-2.16 2.506-4.284 4.055-6.166a21.72 21.72 0 0 1 1.123-1.265c1.916-1.99 10.613 1.917 12.368 4.665Z" fill="#FBAE96"/><path d="M452.745 128.713a.12.12 0 0 1-.067-.021.096.096 0 0 1-.023-.143c.038-.048 3.923-4.784 7.959-9.404a.12.12 0 0 1 .159-.016.096.096 0 0 1 .018.144 453.354 453.354 0 0 0-7.955 9.399.114.114 0 0 1-.09.041h-.001ZM457.535 129.684a.123.123 0 0 1-.068-.021c-.049-.034-.06-.097-.023-.143.043-.052 4.313-5.244 8.348-9.863a.121.121 0 0 1 .159-.017c.049.035.058.1.018.144-4.033 4.618-8.301 9.807-8.344 9.859a.114.114 0 0 1-.09.041Z" fill="#E8825F"/><path d="M554.278 191.873c-2.497-6.088-9.797-8.651-19.741-8.268-9.944.383-45.494 11.756-57.253 10.524-6.278-.657-5.481 10.072 1.568 10.779 7.049.708 57.428 3.531 66.007-.069 8.579-3.6 11.173-8.688 9.419-12.966Z" fill="#FBAE96"/><path d="M457.896 200.606c-.579-3.205-.873-6.316-.254-9.338 2.119.201 4.966.334 6.932.659 3.009.511 5.911 1.379 8.909 2.083 1.537.356 2.686-.549 4.105-.45 1.641.115 7.066.275 10.13-.159 1.935-.274-.338 4.005.271 5.659.076.203.146.412.126.604-.023.228-.177.402-.326.564-1.624 1.763-1.362 5.043-4.189 5.043-3.669 0-7.584.273-10.479.262-4.202.019-9.862-.159-14.42-.264-.988-1.737-.479-2.904-.805-4.663Z" fill="#FBAE96"/><path d="M443.44 189.931c-.64-.03-1.306-.056-1.913.082s-1.158.479-1.243.96a.57.57 0 0 0 .154.515c.178.18.475.266.747.34 6.442 1.688 11.762 2.348 18.279 3.531 2.345.392 1.005-2.84-.102-3.526-.951-.577-1.999-.59-3.128-.737-4.019-.524-8.189-.947-12.794-1.165ZM444.319 199.647c-.709-.146-1.45-.301-2.115-.217-.666.085-1.221.498-1.035 1.026.149.42.701.768 1.221 1.048 3.474 1.87 7.488 2.789 11.259 3.309 3.148.424 5.375.713 8.68.136.292-.053.598-.827.74-1.019.664-.918-.931-2.084-2.042-2.313-1.245-.252-2.874-.054-4.168-.162a102.88 102.88 0 0 1-12.541-1.807l.001-.001Z" fill="#FBAE96"/><path d="M458.315 195.332c.185.57-15.025-2.847-19.725-2.274-.501.061-.977.282-1.238.675-.789 1.186.011 3.965 20.664 7.492 1.472.282 2.936.531 4.391.746a58.725 58.725 0 0 1-4.091-6.639h-.001Z" fill="#FBAE96"/><path d="m457.988 198.36-.015-.001c-6.097-.742-12.793-1.793-20.455-4.428-.058-.02-.087-.08-.065-.132.021-.053.087-.08.145-.06 7.64 2.629 14.321 3.676 20.404 4.417.062.008.106.059.097.115-.007.052-.056.089-.111.089Z" fill="#E8825F"/><path d="M468.762 189.292c-1.42-.453-2.797-.962-4.257-1.146-1.299-.164-2.531-1.071-3.532-1.846-.177-.136-.455-.051-.553.169-.424.961-.263 2.097.299 2.991.645 1.028 1.722 1.781 2.834 2.439 1.114.661 2.297 1.263 3.314 2.127.666.564 1.256 1.236 1.994 1.765.835.597 1.664.702 2.622.882 1.212.228 2.429.331 3.635.397 1.2.09 4.702.189 5.046-1.139.353-1.369-1.831-2.276-2.89-2.946-2.906-1.796-5.678-2.79-8.513-3.693h.001Z" fill="#FBAE96"/><path d="M471.26 145.878c2.365-2.145 2.365-5.624 0-7.77s-6.199-2.146-8.564 0-2.365 5.624 0 7.77 6.199 2.146 8.564 0Z" fill="#FFCA42"/><path d="M466.972 146.534c-.183 0-.367-.008-.551-.027-1.33-.131-2.524-.724-3.362-1.67-.839-.946-1.221-2.132-1.076-3.338.145-1.207.798-2.29 1.841-3.051 1.042-.761 2.349-1.107 3.679-.976 2.746.271 4.736 2.518 4.438 5.009-.144 1.206-.798 2.29-1.841 3.05a5.286 5.286 0 0 1-3.128 1.003Zm-.019-8.884c-1.085 0-2.13.333-2.987.959-.996.726-1.621 1.76-1.758 2.912-.138 1.152.226 2.284 1.027 3.187.801.904 1.94 1.47 3.21 1.595a5.089 5.089 0 0 0 3.513-.932c.996-.726 1.619-1.76 1.758-2.912.285-2.378-1.616-4.524-4.238-4.783a5.443 5.443 0 0 0-.525-.026Z" fill="#D1990A"/><path d="M466.932 137.65c-.062 0-.112-.046-.112-.103v-.921c0-.057.05-.102.112-.102.061 0 .111.045.111.102v.921c0 .057-.05.103-.111.103ZM466.932 147.454c-.062 0-.112-.046-.112-.102v-.922c0-.056.05-.102.112-.102.061 0 .111.046.111.102v.922c0 .056-.05.102-.111.102ZM472.831 142.094h-1.015c-.062 0-.113-.046-.113-.103 0-.057.051-.103.113-.103h1.015c.063 0 .113.046.113.103 0 .057-.05.103-.113.103ZM462.019 142.094h-1.015c-.063 0-.113-.046-.113-.103 0-.057.05-.103.113-.103h1.015c.062 0 .113.046.113.103 0 .057-.051.103-.113.103ZM470.41 138.952a.12.12 0 0 1-.08-.03.096.096 0 0 1 0-.145l.719-.652a.122.122 0 0 1 .16 0 .097.097 0 0 1 0 .145l-.719.652a.119.119 0 0 1-.08.03ZM462.809 145.886a.119.119 0 0 1-.08-.03.095.095 0 0 1 0-.145l.718-.652a.12.12 0 0 1 .16 0 .095.095 0 0 1 0 .145l-.718.652a.12.12 0 0 1-.08.03ZM471.129 145.885a.124.124 0 0 1-.08-.03l-.719-.652a.096.096 0 0 1 0-.145.12.12 0 0 1 .16 0l.719.652a.096.096 0 0 1 0 .145.126.126 0 0 1-.08.03ZM463.527 138.952a.119.119 0 0 1-.08-.03l-.718-.652a.095.095 0 0 1 0-.145.12.12 0 0 1 .16 0l.718.652a.095.095 0 0 1 0 .145.119.119 0 0 1-.08.03Z" fill="#D1990A"/><path d="M452.696 128.713c-.955 0-1.903-.47-2.28-.813a.095.095 0 0 1 0-.145.122.122 0 0 1 .16 0c.339.308 1.239.753 2.121.753h.056c.065 0 .115.044.116.1.002.057-.047.104-.11.105h-.063ZM457.493 129.685c-.955 0-1.903-.47-2.28-.813a.095.095 0 0 1 0-.145.12.12 0 0 1 .159 0c.34.308 1.24.753 2.121.753h.057c.065 0 .114.044.116.1.001.057-.048.104-.11.105h-.063ZM463.535 128.21a.113.113 0 0 1-.104-.062c-.025-.052.002-.112.06-.135l2.21-.86c.057-.022.124.002.149.054.024.052-.003.112-.06.134l-2.211.86a.11.11 0 0 1-.044.008v.001ZM452.752 133.719c-2.103 0-4.088-.244-5-.375-.062-.009-.104-.061-.094-.117.009-.057.067-.095.129-.086 1.211.174 4.323.547 7.071.277 1.293-.127 3.079-.63 4.548-1.279.056-.025.124-.004.151.047.028.051.004.112-.052.137-1.491.66-3.305 1.169-4.622 1.299-.7.069-1.421.097-2.13.097h-.001ZM447.48 137.651a.112.112 0 0 1-.105-.065c-.023-.053.006-.112.064-.133 3.621-1.278 9.775-1.764 10.607-1.764.063 0 .113.046.113.103 0 .057-.05.102-.113.102-.825 0-6.933.483-10.525 1.751a.145.145 0 0 1-.041.006Z" fill="#E8825F"/><path d="M449.831 139.559a.122.122 0 0 1-.041-.007c-.057-.02-.086-.08-.064-.132.328-.764 2.474-2.529 4.305-3.357.056-.025.124-.005.151.046.028.05.006.112-.05.137-1.758.795-3.888 2.532-4.195 3.248a.114.114 0 0 1-.105.066l-.001-.001Z" fill="#E8825F"/></g><defs><clipPath id="a"><path fill="#fff" d="M0 0h543v215H0z"/></clipPath></defs></svg>