<svg width="204" height="61" fill="none" xmlns="http://www.w3.org/2000/svg"><path opacity=".75" d="M21.532 44.872c-1.116 2.456-1.116 3.014-1.897 5.693-.67 2.567-2.121 4.242-3.572 4.911-1.451.67-2.903.447-4.242-.111-1.34-.558-1.563-1.116-2.456-2.01-.893-.892-2.902-2.12-3.572-2.902-.67-.67-2.12-1.34-3.125-2.344C1.663 47.105.1 45.653.77 44.314c.67-1.34 1.005-1.786 2.344-2.01 1.34-.334 2.79-1.004 3.46-2.008.67-1.005 3.572-3.46 4.019-4.354.447-.893 2.12-3.348 3.126-4.241 1.004-.893 1.786-2.568 2.79-3.572 1.005-1.005 4.8-5.358 5.916-6.363 1.116-1.005 3.795-3.572 4.577-4.353.893-.67 3.348-3.46 4.018-3.907.67-.447 2.456-2.12 3.237-2.79.67-.559 2.01-2.01 3.349-2.903 1.34-.893 4.018-3.46 5.023-3.907 1.005-.446 2.456-1.897 3.126-2.009.67-.112 1.897-.67 2.79-.893.893-.112 2.79.558 4.577 1.005 1.897.446 4.465 1.786 5.804 2.12 1.34.447 2.344 1.452 2.01 2.345-.336.893-1.898 1.45-2.568 1.786-.67.334-4.577 2.567-5.47 3.013-.893.447-7.702 5.47-9.71 7.368-2.01 1.897-2.568 3.348-3.35 3.125-.67-.112-1.004.335-1.339 1.116-.335.893-1.005 1.451-1.786 2.121-.67.67-5.023 5.247-5.804 6.363-.67 1.116-2.903 3.795-3.796 4.911-.893 1.116-.334 1.34-1.34 1.898-1.004.558-.892 2.009-1.785 2.567-.558.782-1.898 2.79-2.456 4.13Z" fill="#BBB0E5" fill-opacity=".5"/><path opacity=".75" d="M102.009 12.611c-.335-.558-1.674-1.228-3.46-1.674-.67-.447-1.34-.893-1.786-1.117-1.005-.67-5.246-1.897-6.25-2.12-.782-.224-1.229-.224-1.452.111-.893.224-1.786.558-3.014.893-1.897.447-4.576 2.68-7.367 5.023-2.902 2.344-17.19 17.19-19.088 19.311-1.897 2.121-4.576 4.242-4.353 2.902.223-1.45 2.344-8.148 3.572-11.72.447-1.228 1.786-7.367 2.01-8.707.334-1.34.446-7.478.11-8.818-.334-1.34-.892-1.786-2.008-2.344-1.117-.558-2.568-1.116-3.46-1.451-.894-.335-4.02-1.563-5.247-1.898-1.116-.335-2.567 1.005-2.79 1.563 0 0 .111 2.12.111 3.795 0 1.563-.335 6.81-.335 7.814 0 1.004 0 4.018-.558 5.47-.558 1.45-2.456 7.701-3.349 9.487-.893 1.898-3.46 8.707-4.465 10.381-1.004 1.786-4.353 9.488-4.911 10.94-.558 1.45 0 2.12.67 3.237.67 1.004 2.567 1.562 3.907 2.455 1.339.893 4.576 2.568 5.692 3.349 0 0 1.34.893 3.014.67 1.675-.223 1.451-.223 4.8-1.228 3.349-1.005 3.572-3.126 5.916-4.577 2.344-1.45 6.697-6.697 8.595-8.818 1.898-2.12 12.613-14.064 15.07-16.185.669-.558 1.785-1.563 3.125-2.791a69.913 69.913 0 0 0-1.005 3.684c-.67 2.902-1.898 6.92-2.12 8.818-.112 2.01.446 4.688 1.562 5.358 1.228.67 4.018 1.897 5.693 3.125 1.674 1.228 4.8 2.68 6.25 2.68 1.452 0 1.005-1.452 1.005-2.68 0-1.228.67-3.572 1.228-5.246.447-1.674.67-4.8 1.451-6.697.67-1.898 1.898-8.372 2.121-9.042.223-.67 1.674-9.265 1.898-11.274.111-.446 0-.893-.112-1.228.447-.335-.223-.893-.67-1.45Z" fill="#BBB0E5" fill-opacity=".5"/><path opacity=".75" d="M83.143 44.423c1.674.67 5.246 3.572 7.367 4.354 2.121.67 4.8 2.902 8.818-.447 4.019-3.348 8.595-10.716 13.395-14.846 4.8-4.018 10.716-8.818 14.288-11.943 0 0-1.005 4.8-1.228 8.371-.223 3.572 1.898 6.921 4.577 8.372 2.679 1.451 5.693 2.902 8.148 3.572 2.344.67 5.916-.446 8.149-1.898 2.121-1.45 4.8-4.576 6.474-5.692 1.674-1.228 9.042-9.265 10.269-8.595 1.228.67 4.8 4.018 6.921 5.246 2.121 1.228 7.144 4.018 9.265 3.572 2.121-.447 4.8-2.344 6.251-3.572 1.451-1.228 3.125-3.795 4.018-5.023 1.005-1.228 1.228-1.898 4.577-4.242 3.348-2.344 2.902-1.897 4.8-3.572 1.897-1.674 1.674-1.674 1.339-1.897-.335-.112-.335-.224-.446-.447-.112-.223-.112-.446.111-.558.223-.223.558-.558 1.005-.781.446-.224 1.339-.67 1.004-.67-.334 0-.446.111-.558-.112-.111-.223-.111-.446.224-.558.334-.111.781-.335.558-.67-.224-.334-.67-.78-.67-.78s.112-.224-.223-.113c-.335.224-.782.559-1.005.559-.223 0-.223-.559-.112-.67.112-.112.782-.67 1.34-.893.558-.335.446-.447.893-.67.446-.223.67-.67.223-.558-.446.112-1.116.446-1.563.67-.334.223-.781.446-.893.558-.223.111-.334.223-.446.111-.112-.111-.223-.67-.223-.67s.111-.334.335-.557c.223-.224.446-.224.669-.335.224-.224 0-.447-.223-.558-.112-.112-.893-.335-1.005-.224-.223.112-1.004.558-1.227.558-.224 0-10.047 5.358-11.386 6.251-1.228.782-5.916 3.907-6.809 4.354-.893.446-2.009.893-2.233.335-.223-.558-4.799-4.13-6.474-5.023-1.674-.782-6.362-3.572-8.26-3.907-2.009-.223-5.469-.335-7.479 1.34-2.009 1.674-13.841 12.278-13.841 12.278s.781-8.595.781-9.488c0-.893-.223-1.563-1.116-2.344-.893-.782-9.488-5.358-10.492-5.693-1.005-.335-4.8-.781-5.582-.447-.781.335-8.037 3.572-10.827 5.693-2.791 2.121-8.93 7.367-10.158 8.372-1.339 1.005-7.925 5.581-9.376 6.474-1.451.781-9.265 11.162-11.274 12.39-2.01 1.34-3.014 2.345-2.568 3.126.447.67 1.898 1.897 1.898 1.897Z" fill="#BBB0E5" fill-opacity=".5"/></svg>