<svg width="137" height="24" fill="none" xmlns="http://www.w3.org/2000/svg"><path opacity=".75" d="M136.174 17.256c-.337-.067-.472-.202-.876-.202-.471-.068-.807-.203-1.009-.406-.202-.135-.539-.203-.337-.473.269-.27.471-.676.202-.676-.269 0-.875-.136-1.212-.27-.336-.068-.606-.204-.875-.339-.337-.135-.673-.338-.539-.608.135-.27-.269-.474-.538-.541-.269-.068-3.568-.676-4.578-.88-1.01-.202-2.424-.405-3.77-.878-1.414-.473-2.693-.947-3.433-2.434-.741-1.487-.876-2.366-1.212-2.84-.337-.473-.673-1.555-1.212-1.825-.538-.338-.538-.609-.942-.54-.404.067-.741.27-1.078.405-.403.135-1.279.54-1.615.676-.337.203-.404.406-.875.406-.472 0-2.02.946-2.559 1.284-.538.338-2.289 1.487-2.76 1.69-.404.203-1.01.812-1.481.947-.471.203-.875.54-1.548.743-.673.271-2.76 1.488-3.77 1.894-1.01.405-3.232 1.149-4.107 1.014-.875-.136-1.75-1.893-2.087-2.772-.336-.88-1.817-4.192-2.895-4.733-1.144-.608-1.75-.473-2.221-.338-.471.135-1.212.609-1.414.676-.202.068-1.414.609-1.952.811-.539.203-1.481.474-2.087.744-.606.27-1.28.473-1.481.473-.135 0-.808-.405-1.145-.202-.404.202-1.144.473-1.413.608-.27.203-.741.338-.808.473 0 .136.202.203.404.136.202-.068.404-.203.74-.338.337-.068.943-.27.808-.203-.135.067-.808.54-1.144.676-.337.135-.27.27-.943.405-.673.203-1.077.068-.875-.067.202-.135.471-.338.27-.406-.203-.067-.337 0-.607.203-.269.203-.47.203-1.077.338-.606.135-.808.27-1.144.54-.337.271-1.01.271-1.212.339-.135.068-.673.203-1.01.203-.337 0-.538-.27-1.212 0-.74.27-2.356.744-2.895.811a1.984 1.984 0 0 1-1.548-.54c-.337-.271-3.097-5.68-3.635-6.288-.606-.609-2.424-2.705-2.895-2.84-.404-.135-1.75-.203-2.693.135-.942.338-3.299 1.082-4.51 1.826-1.078.946-6.934 4.732-9.56 6.22-2.625 1.487-4.578 2.569-5.116 2.772-.606.203-.875.203-1.212.338-.337.135-.606-.068-.27-.203.337-.135 1.616-.811 2.155-1.014.538-.27 1.548-.947 2.087-1.15.538-.202.27-.27-.337 0-.606.27-1.413.474-2.02.812-.605.338-1.682.676-2.02.946-.403.27-1.951.812-3.702 1.014-1.75.136-3.77-.405-4.106-.608-.27-.203-.943-.744-.943-.744s-.404-2.637-.875-3.448c-.471-.879-3.837-5.747-4.578-6.693-.808-.947-2.154-2.299-3.635-2.299-1.481 0-4.241 1.555-5.992 2.637-1.75 1.15-8.751 7.302-10.098 8.586-1.818 1.758-3.299 2.975-3.03 4.327.203 1.352 1.886 4.665 2.828 5.815.943 1.149 1.28 2.028 2.828.743 1.548-1.284 6.328-7.166 9.896-9.735 3.568-2.57 7.203-4.8 8.011-2.772.875 2.028 3.972 8.18 5.588 10.614 1.615 2.434 7.338 4.26 12.993 1.623 5.655-2.637 12.858-7.64 15.282-8.924 2.49-1.285 4.712-1.285 5.116-1.15.471.135 3.164 6.829 3.635 8.046.472 1.149 4.174 3.853 8.55 1.96 2.626-1.082 8.011-3.786 12.32-5.138 2.895-.947 5.318-1.082 5.722-.338 1.01 1.893 1.481 5.882 3.164 6.829 1.683.946 3.03.743 4.443.202 1.481-.54 2.155-.879 2.761-1.487.538-.609 2.423-2.028 3.298-2.231.875-.203 5.049-2.772 6.059-3.11 1.01-.338 2.895-1.488 2.895-1.488s.741-.338.942-.405c.135-.068.539-.135.674-.068.134.068.134.338 0 .338-.135 0-6.732 3.583-7.473 3.99-.673.405-2.827 1.622-3.299 1.825-.404.135-1.279.676-1.75.879-.471.202-.404.54-.067.405.336-.135 4.174-1.96 5.049-2.434.875-.473 3.5-2.096 4.174-2.501.673-.406 1.077-.541 1.683-.744.606-.203 1.279-.608 1.346-.608.067-.068.539-.339.673-.339.068 0 .27.474.27.609s1.885 3.65 2.894 4.462c1.078.811 2.155 1.285 2.761 1.623.673.338.807.405 1.346.338.539-.068.673-.135.808-.27.134-.136.067-.203.404-.068a9.242 9.242 0 0 0 2.356.608c1.144.135 1.885.135 2.356.135.471-.067.943-.067.741-.067-.202-.068-1.347 0-2.222-.27-.875-.271-1.414-.136-2.087-.406-.673-.27-.538-.473 0-.541.606 0 2.222.406 3.03.54.875.136 1.952.068 2.625.136.606.068 1.145.068 1.212 0 .135-.135.135-.203.404-.203.336 0 .538-.067.875-.067.337-.068.673-.203.067-.27-.673-.069-1.548-.271-1.885-.339a7.36 7.36 0 0 1-1.144-.338c-.337-.135-.606-.27-.673-.338-.135-.068.269-.338.808-.338.538 0 1.279.135 1.75.135.471 0 1.75.203 1.683 0-.067-.203-.471-.203-.808-.338-.269-.068-.471-.203-.74-.27-.27-.068-.606-.338-.472-.406.135-.068.472-.135.337-.27-.067-.136-.404-.609-.067-.744.336-.135.538-.406.807-.406.27 0 .606-.203.808-.203.337-.27.808-.405.472-.54ZM16.544 1.64c-.202.27-.673.743-1.212 1.081-.538.339-3.5 2.637-4.174 2.908-.74.338-2.49 2.096-2.894 2.501-.472.338-1.549 1.217-2.222 1.826-.74.608-1.616 1.149-1.616 1.149.135-.068 3.03-3.313 6.06-5.544 2.961-2.231 3.836-2.772 4.51-3.245.74-.406.807-.473 1.211-.676.337-.203.539-.27.337 0Zm34.603 13.724c-.135.136-.471.27-.74.406-.202.135-.472.135-.674.338-.134.203-.404.203-.404.068 0-.136 0-.474.27-.541.336-.068.673-.203.808-.27.134-.068.336-.271.47-.271.203-.068.472.068.27.27Zm3.03-1.893c-.27.136-.808.609-1.01.676-.202.068-.404.203-.606.474-.202.27-.404.27-.539.338-.202.067-.27-.27-.067-.406.202-.067.538-.54.74-.676.202-.135.337-.203.741-.406.471-.27.538-.405.808-.338.27.136.202.136-.068.338Zm3.029-9.533c-.875.27-1.616.609-4.107 1.961-2.558 1.352-6.058 3.786-6.664 4.057-.539.203-.539-.27-.27-.406.27-.135.27-.203 1.212-.811.875-.609 3.03-1.826 4.443-2.772 1.414-.947 3.905-1.893 4.645-2.096.74-.203 1.683-.135 1.683-.135s-.067-.068-.942.202Zm23.293 6.018c.606-.27 1.818-.744 2.356-.88.539-.134-.404.339-.673.474-.337.135-.538.338-.74.54-.202.204-.943.339-1.212.339-.337.067-.135-.203.269-.473Zm-2.087 8.586c.27-.068.943-.338 1.077-.406.202-.067 1.347-.405 1.683-.54.404-.136.606-.406.943-.541.336-.136.471-.136 1.077-.406.538-.27.875-.406 1.144-.473.202-.068 1.347-.676 1.616-.676.27 0 .875-.136 1.01-.203.135-.068.404-.068.337 0-.068.135-.337.473-.54.54-.201.068-1.076.339-1.346.474a12.82 12.82 0 0 0-1.615.473c-.539.203-1.347.676-1.818.88-.471.134-1.01.27-1.481.54-.471.203-.471.203-1.077.473-.606.27-.943.474-.943.474-.269.135-.538.135-.538-.068-.135-.203.202-.541.471-.541Zm3.837-.27c-2.558 1.217-3.904 1.757-4.981 2.163-1.078.406-1.481.338-1.481.338s1.346-.608 1.952-.811c.606-.203 4.51-2.028 6.395-2.772 1.549-.676 1.414-.541 2.424-.88.808-.27.942 0 .942 0s-2.692.745-5.25 1.962ZM115.102 5.29c-.067.338 0 .338-.404.676-.471.27-.942.811-.673.676.269-.135.202.27-.135.54-.336.271-.606.271-1.211.542-.606.27-.876.54-1.684.676-.74.135-1.548.676-2.423 1.149-.875.54-2.356 1.352-3.231 1.825-.876.474-1.347.203-1.684.541-.336.338-.471.203-.942.27-.471.068-.337-.27-.337-.27a5.58 5.58 0 0 1 1.078-.608c.269-.203 1.346-.541 1.75-.676.404-.203 1.077-.676 1.346-.812.27-.135 1.212-.878 1.481-1.081.27-.203 1.683-1.014 2.155-1.217.471-.203 1.144-.541 1.481-.609.336-.067.942-.405 1.279-.54.336-.136.875-.541 1.077-.677a5.94 5.94 0 0 1 .673-.405c.337-.203.539-.406.404 0Z" fill="#F98D8D" fill-opacity=".5"/></svg>