<svg width="198" height="145" fill="none" xmlns="http://www.w3.org/2000/svg"><g clip-path="url(#a)" fill="#FFCA42"><path opacity=".75" d="M182.364 97.732s-.627-15.793-1.255-19.795c-.627-4.002-2.613-27.8-3.24-30.504-.628-2.705-2.928-12.44-1.569-14.063 1.255-1.622 1.255-.216 1.464-.757.209-.54.314-1.622 1.15-1.73.836-.109 1.882 0 2.195-.65.419-.649 1.569-.649 1.882-1.19.314-.54.837-.432 1.15-.324.314.108 1.046-.325 1.359-.54.314-.217.732-.974 1.15-.974.419 0 1.359.324 1.359.324s.837.866 1.046 1.298c.209.433 2.404 16.118 3.032 19.363.627 3.245 2.195 17.848 2.613 22.716.418 4.868 1.568 12.548 2.091 14.928.523 2.271 1.046 3.677.627 4.218-.418.541-3.031 2.164-3.659 2.488-.627.433-.418.216-1.15.541-.731.325-.836.54-1.254.865-.418.325-.418.65-1.464 1.082-1.045.433-2.195.757-3.136 1.406-1.046.65-1.046.974-2.196 1.19-1.463.108-2.195.108-2.195.108Z"/><path opacity=".75" d="M112.527 78.912c1.15.757 4.809 2.271 6.586 2.488 1.777.324 26.973 8.113 32.827 9.952 5.855 1.838 13.068 3.137 16.1 3.786 3.032.649 5.541 1.514 5.123 1.622-.418.108-2.823-.216-4.6-.757-1.777-.54-3.973-.757-5.75-1.298-1.777-.54-3.555-.65-4.705-1.082-1.15-.433.523.757 3.66 1.406 3.136.65 7.004 1.623 8.572 1.948 1.568.324 3.346.54 5.227.973 1.882.433 3.66.757 4.81.757 1.15 0 2.195-.108 3.031-.649.941-.54.941-.757 1.882-.973.941-.217 1.777-.974 2.509-1.298.837-.325 2.405-1.19 2.718-1.515.314-.324 1.569-1.082 1.882-1.298.314-.216 1.359-.649 1.882-.973.523-.325 1.777-1.298 2.3-1.731.627-.433 1.045-1.406.627-1.514-.418-.109-3.868-.433-5.541-.758-1.672-.324-16.831-3.137-17.668-3.461-.836-.325-2.927-.866-3.763-1.19-.837-.325-1.569-.216-2.509-.325-1.046-.108-1.778-.432-2.614-.865-.941-.433-6.168-2.272-7.527-2.596-1.464-.433-15.055-4.868-17.982-5.841-2.927-.974-12.232-3.678-13.695-4.219-1.464-.54-2.3-.974-3.032-.865-.732.108-1.046.324-1.464.757-.418.433-.523 1.19-1.359 1.298-.836.108-1.673-.108-2.195.433-.523.54-1.987.432-1.464.865.523.433 2.614.324 2.195.865-.418.541-1.672.65-1.986.541-.313-.108-1.463.108-1.463.108s-.523.541-.523.866c0 .324 0 .865-.523.865s-1.15-.108-1.673.325c-.522.432-.941 1.19-.941 1.19s.21.54.523.757c.523.324.523 1.406.523 1.406Z"/><path opacity=".75" d="M175.255 87.458c.731.865 5.227 6.706 5.749 8.004.523 1.298 1.987 3.03 2.405 2.704.418-.324 2.509-1.406 3.136-1.73.628-.217 5.541-3.137 6.9-3.786 1.464-.65 5.018-3.137 3.659-3.57-1.359-.433-32.931-36.886-45.058-47.595-12.128-10.817-37.741-29.098-55.2-34.723-17.46-5.517-38.682-8.005-53.632-4.219-2.822.757-5.75 1.947-8.677 3.353-5.018 2.488-10.35 5.625-14.636 8.979C13.628 19.85 9.028 25.259 7.669 27.639c-2.823 4.976 6.377-8.33 17.46-13.738 11.08-5.409 17.04-5.409 22.999-5.95 5.959-.54 17.982.433 24.254 1.623 6.168 1.19 11.918 2.92 14.741 4.11 2.823 1.19 3.973 2.489 3.555 2.164-.418-.325-5.018-1.947-7.632-2.92-2.51-.974-7.736-2.38-9.41-2.489-1.672-.108.837.433 4.078 1.407 3.241.973 7.214 2.163 8.26 2.812 1.15.541 1.986.541 2.404.866.418.324.731.324 1.359.757.732.432 1.672 1.406 2.509 1.406.836 0 .836.108 1.882.757.94.541 1.672.974 2.09 1.19.419.108 2.091 1.298 3.137 1.406.941.108 1.254.433 1.673.866.418.432.836.757 1.254.973.418.325 10.977 6.274 13.068 7.572 2.091 1.298 14.218 11.25 17.877 14.17 3.66 2.921 16.937 15.902 19.864 18.606 2.927 2.813 11.395 11.683 14.95 15.577 3.659 4.11 7.214 8.654 7.214 8.654Z"/></g><defs><clipPath id="a"><path fill="#fff" transform="matrix(1 0 0 -1 .56 144.679)" d="M0 0h196.963v143.976H0z"/></clipPath></defs></svg>