<svg width="212" height="38" fill="none" xmlns="http://www.w3.org/2000/svg"><path opacity=".75" d="M211.6 27.085c-.522-.105-.731-.314-1.357-.314-.731-.105-1.253-.315-1.567-.63-.313-.21-.835-.314-.522-.734.418-.42.731-1.049.314-1.049-.418 0-1.358-.21-1.88-.419-.522-.105-.94-.315-1.358-.524-.522-.21-1.044-.525-.835-.944.209-.42-.418-.734-.836-.84-.417-.104-5.534-1.048-7.101-1.363-1.566-.314-3.759-.629-5.847-1.363-2.193-.734-4.178-1.468-5.326-3.776-1.149-2.307-1.358-3.67-1.88-4.404-.522-.734-1.044-2.412-1.88-2.832-.835-.524-.835-.944-1.462-.839-.626.105-1.148.42-1.67.63-.627.21-1.985.838-2.507 1.048-.522.315-.626.63-1.357.63s-3.133 1.468-3.968 1.992c-.836.524-3.551 2.307-4.282 2.622-.627.314-1.566 1.258-2.297 1.468-.731.315-1.358.84-2.402 1.154-1.044.42-4.282 2.307-5.848 2.936-1.567.63-5.013 1.783-6.37 1.573-1.358-.21-2.715-2.936-3.237-4.3-.523-1.363-2.82-6.502-4.491-7.34-1.775-.945-2.715-.735-3.446-.525-.731.21-1.88.944-2.193 1.049-.313.105-2.193.944-3.028 1.258-.836.315-2.298.734-3.237 1.154-.94.42-1.985.734-2.298.734-.209 0-1.253-.63-1.775-.315-.627.315-1.775.734-2.193.944-.418.315-1.149.524-1.253.734 0 .21.313.315.626.21.314-.105.627-.315 1.149-.524.522-.105 1.462-.42 1.253-.315-.209.105-1.253.839-1.775 1.049-.522.21-.418.42-1.462.629-1.044.315-1.671.105-1.358-.105.314-.21.731-.524.418-.63-.313-.104-.522 0-.94.316-.418.314-.731.314-1.671.524-.939.21-1.253.42-1.775.839-.522.42-1.566.42-1.88.524-.208.105-1.044.315-1.566.315s-.835-.42-1.88 0c-1.148.42-3.655 1.153-4.49 1.258-.94.105-1.88-.314-2.402-.839-.522-.42-4.803-8.809-5.639-9.753-.94-.944-3.76-4.195-4.49-4.405-.627-.21-2.715-.314-4.177.21-1.462.524-5.117 1.678-6.997 2.832-1.67 1.468-10.756 7.34-14.829 9.648-4.072 2.307-7.1 3.985-7.936 4.3-.94.315-1.358.315-1.88.524-.522.21-.94-.104-.417-.314.522-.21 2.506-1.259 3.341-1.573.836-.42 2.402-1.469 3.237-1.783.836-.315.418-.42-.522 0s-2.193.734-3.133 1.258c-.94.525-2.61 1.049-3.132 1.468-.627.42-3.029 1.259-5.744 1.574-2.715.21-5.848-.63-6.37-.944-.418-.315-1.462-1.154-1.462-1.154s-.626-4.09-1.357-5.348c-.731-1.364-5.953-8.915-7.102-10.383C34.596 2.44 32.508.342 30.212.342c-2.298 0-6.58 2.412-9.295 4.09C18.201 6.215 7.341 15.76 5.252 17.752 2.432 20.477.135 22.365.553 24.462c.313 2.098 2.924 7.237 4.386 9.02 1.462 1.782 1.984 3.146 4.386 1.153 2.402-1.992 9.816-11.117 15.35-15.102 5.535-3.985 11.174-7.446 12.428-4.3 1.357 3.147 6.16 12.69 8.667 16.466 2.506 3.775 11.383 6.607 20.154 2.517 8.772-4.09 19.946-11.851 23.705-13.844 3.864-1.992 7.31-1.992 7.937-1.783.73.21 4.908 10.593 5.639 12.48.731 1.783 6.474 5.978 13.262 3.042 4.073-1.678 12.427-5.873 19.11-7.97 4.491-1.469 8.25-1.679 8.877-.525 1.566 2.936 2.297 9.124 4.908 10.592 2.61 1.468 4.699 1.154 6.892.315 2.297-.84 3.342-1.364 4.282-2.307.835-.944 3.759-3.147 5.116-3.461 1.358-.315 7.832-4.3 9.399-4.824 1.566-.525 4.49-2.308 4.49-2.308s1.149-.524 1.462-.629c.209-.105.836-.21 1.044-.105.209.105.209.525 0 .525-.208 0-10.442 5.558-11.591 6.187-1.044.63-4.386 2.517-5.117 2.832-.626.21-1.984 1.049-2.715 1.363-.731.315-.627.84-.104.63.522-.21 6.474-3.042 7.832-3.776 1.357-.734 5.43-3.251 6.474-3.88 1.044-.63 1.671-.84 2.611-1.154.94-.315 1.984-.944 2.088-.944.105-.105.836-.524 1.045-.524.104 0 .417.734.417.944 0 .21 2.924 5.663 4.491 6.921 1.671 1.259 3.341 1.993 4.281 2.517 1.044.525 1.253.63 2.089.525.835-.105 1.044-.21 1.253-.42.209-.21.104-.315.626-.105.523.21 1.88.734 3.655.944 1.776.21 2.924.21 3.655.21.731-.105 1.462-.105 1.149-.105-.313-.105-2.088 0-3.446-.42-1.358-.419-2.193-.21-3.237-.629-1.045-.42-.836-.734 0-.839.94 0 3.446.63 4.699.84 1.357.209 3.028.104 4.073.209.939.105 1.775.105 1.879 0 .209-.21.209-.315.627-.315.522 0 .835-.105 1.357-.105.523-.104 1.045-.314.105-.419-1.044-.105-2.402-.42-2.924-.524a11.367 11.367 0 0 1-1.775-.525c-.523-.21-.94-.42-1.045-.524-.209-.105.418-.524 1.253-.524.836 0 1.985.21 2.716.21.731 0 2.715.314 2.61 0-.104-.315-.731-.315-1.253-.525-.418-.105-.731-.315-1.149-.42-.417-.105-.939-.524-.731-.629.209-.105.731-.21.523-.42-.105-.21-.627-.943-.105-1.153.522-.21.836-.63 1.253-.63.418 0 .94-.314 1.253-.314.523-.42 1.254-.63.731-.839ZM26.033 2.86c-.313.42-1.044 1.154-1.88 1.678-.835.525-5.43 4.09-6.474 4.51-1.148.524-3.864 3.25-4.49 3.88-.731.525-2.402 1.888-3.446 2.832-1.149.944-2.507 1.783-2.507 1.783.21-.105 4.7-5.14 9.399-8.6 4.595-3.46 5.952-4.3 6.996-5.034 1.15-.63 1.254-.734 1.88-1.049.522-.314.836-.42.522 0ZM79.71 24.15c-.209.21-.731.42-1.149.629-.313.21-.73.21-1.044.524-.209.315-.627.315-.627.105 0-.21 0-.734.418-.839a5.706 5.706 0 0 0 1.253-.42c.21-.104.522-.419.731-.419.314-.105.731.105.418.42Zm4.7-2.937c-.419.21-1.254.944-1.567 1.049-.314.105-.627.315-.94.734-.313.42-.627.42-.835.524-.314.105-.418-.419-.105-.629.313-.105.835-.839 1.149-1.049.313-.21.522-.314 1.148-.629.731-.42.836-.629 1.254-.524.417.21.313.21-.105.524Zm4.698-14.787c-1.357.42-2.506.944-6.37 3.041C78.77 11.564 73.34 15.34 72.4 15.76c-.835.314-.835-.42-.418-.63.418-.21.418-.314 1.88-1.258 1.358-.944 4.7-2.832 6.892-4.3 2.193-1.468 6.057-2.936 7.206-3.25 1.148-.316 2.61-.21 2.61-.21s-.104-.106-1.462.314Zm36.132 9.334c.94-.42 2.82-1.154 3.655-1.364.836-.21-.626.525-1.044.735-.522.21-.836.524-1.149.838-.313.315-1.462.525-1.88.525-.522.105-.208-.315.418-.734Zm-3.237 13.319c.418-.105 1.462-.525 1.671-.63.313-.104 2.088-.629 2.61-.838.627-.21.94-.63 1.462-.84.523-.21.731-.21 1.671-.629.836-.42 1.358-.629 1.775-.734.314-.105 2.089-1.049 2.507-1.049.417 0 1.357-.21 1.566-.314.209-.105.627-.105.522 0-.104.21-.522.734-.835.839-.313.105-1.671.524-2.089.734-.522.105-1.671.42-2.506.734-.835.315-2.088 1.049-2.819 1.363-.731.21-1.567.42-2.298.84-.731.314-.731.314-1.671.734-.94.419-1.462.734-1.462.734-.417.21-.835.21-.835-.105-.209-.315.313-.84.731-.84Zm5.952-.42c-3.968 1.888-6.057 2.727-7.727 3.356-1.671.63-2.298.525-2.298.525s2.089-.944 3.029-1.259c.939-.315 6.996-3.146 9.92-4.3 2.402-1.048 2.193-.839 3.76-1.363 1.253-.42 1.462 0 1.462 0s-4.178 1.154-8.146 3.041Zm50.961-20.136c-.105.525 0 .525-.627 1.05-.731.419-1.462 1.258-1.044 1.048.418-.21.313.42-.209.839-.522.42-.94.42-1.88.839-.94.42-1.357.839-2.61 1.049-1.149.21-2.402 1.048-3.76 1.783-1.357.838-3.655 2.097-5.012 2.831-1.358.734-2.089.315-2.611.84-.522.524-.731.314-1.462.419-.731.105-.522-.42-.522-.42a8.64 8.64 0 0 1 1.671-.944c.418-.314 2.088-.839 2.715-1.049.626-.314 1.671-1.048 2.088-1.258.418-.21 1.88-1.363 2.298-1.678.418-.315 2.611-1.573 3.342-1.888.73-.314 1.775-.839 2.297-.944.522-.104 1.462-.629 1.984-.838.522-.21 1.358-.84 1.671-1.05a9.12 9.12 0 0 1 1.044-.629c.522-.314.836-.629.627 0Z" fill="#FFCA42"/></svg>