<svg width="239" height="191" fill="none" xmlns="http://www.w3.org/2000/svg"><g clip-path="url(#a)"><path d="M235.498 178.085a92.96 92.96 0 0 1-.269 1.319c-2.204 10.432-5.716 18.697-10.509 23.443-32.232 4.421-205.252 3.053-205.252 3.053-8.051-5.463-13.702-15.003-16.77-26.496-.117-.437-.23-.876-.339-1.319-3.175-12.864-3.186-28.016.213-42.593.102-.44.208-.88.317-1.319 3.67-14.804 10.882-28.923 21.898-39.331A68.893 68.893 0 0 0 29.2 90.26c10.263-11.61 18.469-27.552 28.085-42.593.28-.441.564-.88.848-1.32 7.979-12.322 16.98-23.93 28.935-31.913a65.21 65.21 0 0 1 2.056-1.32 61.77 61.77 0 0 1 14.535-6.551c27.213-8.236 49.002-5.878 69.052 6.552.689.428 1.377.868 2.063 1.319 11.299 7.439 22.079 18.108 33.013 31.914a290.332 290.332 0 0 1 2.441 3.13c8.365 10.89 14.807 25.208 19.372 40.782a195.905 195.905 0 0 1 3.003 11.576c.054.239.109.479.162.719l.045.199c.348 1.563.678 3.131.991 4.705v.002a219.406 219.406 0 0 1 2.779 17.794v.002a220.854 220.854 0 0 1 .936 10.234c1.061 15.609.374 30.478-2.018 42.594v-.001Z" fill="#C7C1DF"/><path d="M18.204 177.036c-.071.144-.173.299-.33.315-.136.015-.263-.094-.317-.222-.055-.13-.052-.275-.046-.416a7.79 7.79 0 0 1 .318-1.85c.06-.202.136-.412.293-.55.95-.84.267 2.349.082 2.723ZM13.891 176.91c.015.091.03.188.003.266-.05.143-.223.147-.348.053-.125-.094-.213-.253-.295-.405-.248-.464-.5-.937-.638-1.447-.162-.6-.126-1.663.504-.899.464.562.656 1.738.774 2.432Z" fill="#64589F"/><path d="M21.706 146.623c.708-1.096 1.026-2.408 1.214-3.708.158-1.09.307-2.253.287-3.356-.017-.894-.583-1.841-1.456-1.343-.782.446-1.485 1.424-1.99 2.16a10.732 10.732 0 0 0-1.769 4.51c-.147 1.017-.48 3.213.835 3.638 1.031.335 2.395-1.152 2.879-1.901ZM15.477 145.973a17.33 17.33 0 0 1 1.352 5.101c.091.854.11 1.76-.268 2.526-.176.355-.465.687-.848.753-.601.103-1.097-.465-1.416-.996a12.127 12.127 0 0 1-1.655-7.269c.036-.401.099-.815.316-1.15.859-1.322 2.137.163 2.52 1.035h-.001ZM23.181 149.579a13.727 13.727 0 0 1-1.987 3.74c-.352.469-.746.924-1.255 1.206-.21.116-.5.188-.666.011a.573.573 0 0 1-.12-.269c-.255-1.092.188-2.215.663-3.227.526-1.122 1.145-2.302 2.141-3.061 1.456-1.109 1.651.369 1.225 1.6Z" fill="#8E82BD"/><path d="m16.725 166.622-.194-.007c.002-.049.188-4.863.947-10.632.702-5.329 2.05-12.586 4.493-16.899l.169.096c-2.427 4.285-3.77 11.516-4.47 16.827-.758 5.761-.943 10.567-.945 10.615Z" fill="#E0BA89"/><path d="m16.42 166.168-.191-.029c.776-5.098-.345-14.62-2.4-20.378l.182-.065c2.064 5.782 3.19 15.348 2.41 20.472ZM17.882 165.268c-.282-2.336-.045-5.391.634-8.173.583-2.388 1.776-5.778 4.15-8.364l.142.131c-4.321 4.706-5.198 12.547-4.735 16.383l-.192.023h.001Z" fill="#E0BA89"/><path d="M12.253 161.172c1.445-.776 3.038-.943 3.038-2.705v-1.521c0-.161.167-.29.365-.282l1.635.07 1.635-.07c.198-.008.364.121.364.282v1.14c0 .779.382 1.54 1.052 2.096.69.571 1.719.712 2.362 1.281.357.315.588.71.771 1.112 1.37 3.003-.263 6.272-1.144 9.229l-1.844 6.194-.026.088H13.05l-1.277-5.851c-.32-1.466-1.346-6.047-1.385-6.902a5.677 5.677 0 0 1 .468-2.521c.275-.632.691-1.255 1.375-1.626l.023-.012v-.002Z" fill="#8E82BD"/><path d="M14.57 159.812c.352.105.67.201.869.229 1.178.162 2.376.32 3.566.256a7.515 7.515 0 0 0 1.36-.192l.093.076c.285.223.626.38.975.523-.854.347-1.878.523-2.9.554-1.332.041-2.668-.145-3.956-.399a8.405 8.405 0 0 1-1.179-.344c.459-.197.87-.407 1.174-.703h-.002ZM17.818 158.874c-.91.007-1.824-.067-2.724-.184.006-.071.01-.145.01-.223v-.526c1.05.125 2.11.231 3.16.204a9.837 9.837 0 0 0 1.083-.084v.025c0 .227.035.453.102.674a12.59 12.59 0 0 1-1.63.114h-.001ZM22.01 165.152c-.013.347-.047.739-.312.955-.047.038-.104.07-.163.065-.09-.007-.154-.095-.192-.181-.132-.296-.118-.635-.124-.961-.01-.568-.783-2.757-.127-2.827 1.075-.113.938 2.407.918 2.95v-.001ZM18.03 164.447c0 .555 0 1.111.002 1.666 0 .117-.002.241-.061.341-.116.196-.41.208-.593.078-.184-.13-.28-.354-.35-.571a4.346 4.346 0 0 1-.031-2.504c.118-.407.401-.877.807-.533.298.253.224 1.171.225 1.523ZM17.78 175.083c0 .555 0 1.111.002 1.666 0 .118-.002.241-.061.342-.116.195-.41.207-.593.077-.184-.13-.28-.354-.35-.571a4.346 4.346 0 0 1-.031-2.504c.118-.406.401-.877.807-.533.298.253.224 1.171.225 1.523ZM20.032 165.936c-.037.162-.1.344-.252.401-.133.049-.287-.026-.374-.141-.086-.115-.12-.262-.148-.405a8.056 8.056 0 0 1-.139-1.936c.011-.218.034-.447.158-.627.744-1.086.848 2.285.755 2.708ZM19.206 173.433c-.058.155-.144.328-.303.362-.139.03-.28-.066-.351-.192-.07-.126-.084-.276-.093-.421-.038-.648.003-1.3.12-1.937.04-.215.095-.439.24-.6.883-.972.536 2.382.387 2.788ZM20.994 170.358c-.063.153-.158.321-.317.348-.14.024-.278-.079-.343-.208-.066-.129-.073-.28-.075-.426a8.053 8.053 0 0 1 .204-1.929c.05-.213.113-.434.265-.587.924-.932.432 2.403.266 2.802ZM15.5 166.027c-.028.1-.06.206-.136.274-.143.125-.378.057-.498-.092-.12-.148-.153-.348-.182-.538-.09-.579-.18-1.168-.096-1.748.099-.682.71-1.754 1.154-.709.327.771-.035 2.054-.243 2.812v.001ZM15.96 173.589c-.027.1-.059.206-.135.274-.143.125-.379.057-.498-.092-.12-.148-.153-.348-.182-.538-.09-.579-.18-1.168-.096-1.748.099-.682.71-1.754 1.154-.709.327.771-.035 2.054-.243 2.812v.001ZM17.703 171.244c-.028.1-.06.206-.136.273-.143.126-.379.058-.498-.091-.12-.149-.153-.348-.182-.538-.09-.579-.18-1.168-.096-1.748.099-.682.71-1.754 1.154-.709.327.77-.034 2.054-.243 2.812l.001.001ZM13.722 162.818a5.161 5.161 0 0 1-.314 2.75.433.433 0 0 1-.1.164c-.111.099-.296.053-.395-.059-.1-.112-.134-.267-.16-.416a7.088 7.088 0 0 1-.086-1.725c.038-.536.868-1.87 1.055-.714ZM14.161 167.991c.372.854.504 1.816.377 2.741a.434.434 0 0 1-.055.184c-.083.125-.274.128-.397.046-.124-.082-.196-.224-.258-.361a7.044 7.044 0 0 1-.51-1.646c-.096-.529.376-2.035.843-.964Z" fill="#64589F"/><path d="M224.237 172.299c0 5.334-4.747 5.776-10.603 5.776-2.872 0-5.511.167-7.421-.837-1.983-1.043-3.182-2.222-3.182-4.939 0-4.281 3.244-9.284 7.477-10.972.503-.2.168-2.701-.749-4.263-.428-.729 1.043-.967 2.52-.009-.16-.996.719-1.449 1.328-1.449.609 0 1.194.318 1.269 1.415.881-.906 2.667-.769 2.198-.129-.91 1.243-1.457 4.311-1.054 4.425 3.431.969 6.226 3.922 7.489 7.229.471 1.23.729 2.51.729 3.754l-.001-.001Z" fill="#8E82BD"/><path d="M216.089 160.042h-5.462a.04.04 0 0 0-.041.04v.906c0 .022.018.04.041.04h5.462a.04.04 0 0 0 .04-.04v-.906a.04.04 0 0 0-.04-.04Z" fill="#64589F"/><path d="M208.828 47.669H57.289c.28-.441.564-.88.848-1.32H207.79c.346.437.692.877 1.038 1.32ZM174.768 14.436H87.062a65.324 65.324 0 0 1 2.057-1.319h83.586c.689.428 1.377.868 2.063 1.32ZM229.972 91.58H28c.4-.433.797-.872 1.19-1.319h200.401c.129.44.256.878.381 1.32ZM237.514 135.492H2.57c.102-.44.208-.88.318-1.319H237.42l.093 1.319ZM235.49 178.085c-.088.443-.177.883-.269 1.319H2.691c-.118-.437-.23-.876-.34-1.319H235.49Z" fill="#8E82BD"/><path d="M187.188 32.17h-27.383v14.18h27.383V32.17Z" fill="#8E82BD"/><path d="M174.481 34.626c0-.497-.442-.899-.987-.899-.545 0-.986.402-.986.899 0 .395.281.73.67.85v1.18h.632v-1.18c.39-.12.671-.455.671-.85Z" fill="#64589F"/><path d="M236.597 125.257v.002l-1.05 8.915-.003.022-.227-.022-6.122-.599 3.632-30.818c.349 1.562.679 3.13.992 4.703v.002a220.487 220.487 0 0 1 2.779 17.795h-.001Z" fill="#8E82BD"/><path d="m235.792 118.997-.672 5.703-3.292-.322 1.994-16.917c.76 3.829 1.417 7.683 1.97 11.536Z" fill="#64589F"/><path d="m232.768 102.556-5.613 31.593-8.171-1.205 5.733-32.269 7.889 1.163c.054.239.109.479.162.719v-.001Z" fill="#8E82BD"/><path d="m226.573 126.09-4.237-.624 2.972-16.733 4.237.625-2.972 16.732Z" fill="#64589F"/><path d="m215.881 134.07-4.154-.983 7.589-26.636 4.154.983-7.589 26.636Z" fill="#8E82BD"/><path d="m215.334 132.269-2.154-.51 6.698-23.508 2.153.509-6.697 23.509Z" fill="#64589F"/><path d="M78.805 90.262v-4.043H43.308v4.043h35.497Z" fill="#8E82BD"/><path d="M70.266 89.288v-2.096H51.86v2.096h18.406Z" fill="#64589F"/><path d="M81.29 86.22v-5.239H51.57v5.24h29.72Z" fill="#8E82BD"/><path d="M74.14 84.96v-2.718H58.73v2.717h15.41Z" fill="#64589F"/><path d="M72.32 81.073v-2.717H47.302v2.718H72.32Z" fill="#8E82BD"/><path d="M70.852 80.42v-1.409h-22.08v1.41h22.08Z" fill="#64589F"/><path d="M127.737 79.697c2.15.307 4.485.871 5.765 2.623 1.43 1.955 1.485 4.361.577 6.606 4.436-3.335 7.263-7.823 8.74-13.167.936-3.384 1.157-6.923 1.242-10.433.057-2.352.051-4.738-.555-7.012-1.244-4.661-4.858-8.318-8.712-11.228-2.671-2.016-5.543-3.797-8.657-5.029a28.15 28.15 0 0 0-11.393-1.944c-1.752.068-3.572.327-5.024 1.308-.888.6-1.586 1.437-2.247 2.279-2.805 3.57-5.217 7.525-6.47 11.886-1.448 5.044-1.282 10.47-.013 15.56.896 3.592 2.329 7.03 4.078 10.289.572 1.065 3.286 4.82 3.286 4.82s-.26-2.3.893-3.794c2.042-2.646 12.965-3.553 18.49-2.764Z" fill="#5C2F1F"/><path d="M134.493 99.74c-3.164-6.68-5.372-17.9-4.906-27.866.306-.566-15.7.002-15.393.568.464 9.965-1.137 20.617-4.301 27.298-1.022 2.157.748 5.643 1.809 7.732 1.233 2.428 2.752 4.699 4.704 6.612 1.295 1.269 3.519 3.083 5.727 3.749v.038l.059-.019.06.019v-.038c2.208-.666 4.431-2.48 5.727-3.749 1.951-1.913 3.471-4.184 4.703-6.612 1.062-2.088 2.832-5.575 1.81-7.732h.001Z" fill="#FBAE96"/><path d="M128.639 81.233c.103-.071-8.546-1.455-14.424-2.385a75.625 75.625 0 0 1-.34 4.827c2.821 1.365 9.567 3.644 14.764-2.442Z" fill="#FBAE96" style="mix-blend-mode:multiply" opacity=".28"/><path d="M141.748 51.426c-.56 3.94-2.81 13.782-4.205 17.216-2.83 6.966-6.503 12.841-14.45 15.193-1.139.337-2.323.444-3.476.102-6.485-1.925-11.394-8.612-13.771-14.41-1.735-4.235-3.477-8.48-4.752-12.88-1.84-6.342-3.086-12.279-.213-18.445 2.406-5.165 6.888-9.365 12.259-11.32 3.694-1.344 6.832-.457 10.539-.486 1.886-.016 3.193-.325 5.133.213 3.704 1.027 7.162 3.093 9.518 6.164 4.208 5.487 4.39 11.819 3.418 18.653Z" fill="#FBAE96"/><path d="M143.274 38.528c-2.264-5.796-7.1-10.485-12.881-12.811-1.583-.637-3.053-.328-4.558-.691a4.534 4.534 0 0 1-.412-.123c-.395-.632-.873-1.16-1.453-1.527-1.358-.858-6.904-.337-10.315.859C98.3 29.62 95.997 46.26 95.824 48.665c-.34 4.71-.427 9.444-.117 14.156.307 4.679 1.025 9.405 2.985 13.665 1.96 4.261 5.29 8.045 9.657 9.77a49.474 49.474 0 0 1-4.338-25.67c.137-1.359.335-2.728.847-3.994.573-1.42 1.498-2.617 2.596-3.68 1.164-.762 2.414-1.416 3.665-1.993 1.021-.47 2.064-.91 3.101-1.36 2.436-1.051 4.847-2.15 6.91-3.79.227.157.457.307.69.448 1.696 1.032 3.534 1.818 5.31 2.706 1.033.517 2.045 1.068 2.996 1.723a16.672 16.672 0 0 1 4.981 5.403c.548.953 1.035 2 1.931 2.637 1.737 1.236 4.038-.68 4.918-2.17 3.166-5.359 3.582-12.19 1.318-17.987Z" fill="#7B3E29"/><path d="M130.499 63.9c-.099 1.176.916 2.104 1.849 1.006.402-.474.435-1.38.288-1.962-.158-.631-.808-1.052-1.419-.683-.497.3-.672 1.098-.718 1.639Z" fill="#7B3E29"/><path d="M121.387 74.76c-1.185 0-2.369-.166-3.52-.497a.097.097 0 0 1-.067-.12.097.097 0 0 1 .12-.066 12.51 12.51 0 0 0 6.831.029.098.098 0 0 1 .12.067.097.097 0 0 1-.067.119 12.715 12.715 0 0 1-3.417.468ZM120.175 76.64a.096.096 0 1 1-.001-.193l2.005-.027a.096.096 0 1 1 .002.193l-2.005.028h-.001ZM122.524 70.494a.123.123 0 0 1-.026-.003 5.285 5.285 0 0 1-1.829-.915c-.166-.128-.351-.288-.467-.5-.27-.495-.092-1.081.066-1.599l.017-.054c.513-1.688.597-3.494.243-5.223a.097.097 0 0 1 .075-.114.098.098 0 0 1 .115.076c.36 1.76.274 3.598-.248 5.317l-.017.055c-.154.505-.313 1.026-.08 1.45.098.18.265.323.415.44a5.081 5.081 0 0 0 1.762.88.096.096 0 0 1-.026.19Z" fill="#A45236"/><path d="M134.58 59.829c-.027-.312-.859-.775-1.021-.859a4.52 4.52 0 0 0-1.824-.492c-.718-.037-1.457.157-2.102.46-.437.206-1.566.864-.654 1.353.311.167.691.04 1.028-.068a7.73 7.73 0 0 1 3.922-.195c.143.03.294.064.434.02.164-.052.224-.13.217-.22ZM113.647 63.9c.099 1.176-.916 2.104-1.849 1.006-.402-.474-.435-1.38-.289-1.962.159-.631.808-1.052 1.42-.683.497.3.672 1.098.718 1.639ZM109.563 59.83c.027-.312.858-.776 1.021-.86.564-.29 1.19-.46 1.824-.492.718-.037 1.457.157 2.102.461.437.206 1.566.864.654 1.352-.312.167-.691.04-1.028-.068a7.73 7.73 0 0 0-3.922-.195c-.143.03-.294.065-.434.02-.165-.051-.225-.129-.217-.22v.001Z" fill="#7B3E29"/><path d="M139.799 56.62c1.782-.854 4.05.149 5.01 1.749.959 1.6.895 3.58.548 5.413-.227 1.199-.572 2.403-1.264 3.444-.692 1.041-1.773 1.91-3.047 2.165-1.275.257-2.726-.206-3.357-1.25-.227-.376-.342-.802-.435-1.227-.627-2.846-.91-8.638 2.546-10.294h-.001Z" fill="#FBAE96"/><path d="M138.392 66.424a.037.037 0 0 1-.036-.034 8.38 8.38 0 0 1 1.613-5.383c.884-1.191 1.995-1.84 3.044-1.78a.036.036 0 0 1-.004.072c-1.458-.083-2.57 1.197-2.982 1.752a8.321 8.321 0 0 0-1.599 5.335c.002.02-.014.037-.034.038h-.002Z" fill="#A45236"/><path d="M138.864 63.22a.036.036 0 0 1-.031-.017.036.036 0 0 1 .013-.05c1.158-.663 2.513-.667 3.453-.01.016.012.02.035.009.05a.036.036 0 0 1-.05.01c-.917-.642-2.242-.636-3.376.013a.032.032 0 0 1-.018.005Z" fill="#A45236"/><path d="M99.769 57.611c-1.968-.183-3.747 1.542-4.09 3.376-.344 1.833.405 3.668 1.367 5.266.629 1.046 1.372 2.056 2.383 2.793 1.011.736 2.325 1.176 3.611.975 1.284-.202 2.484-1.138 2.713-2.337.082-.43.042-.87-.018-1.3-.402-2.886-2.149-8.416-5.966-8.773Z" fill="#FBAE96"/><path d="M104.467 66.386a.096.096 0 0 1-.092-.068 8.262 8.262 0 0 0-3.33-4.417c-.57-.372-2.037-1.176-3.347-.605a.097.097 0 0 1-.077-.177c.983-.428 2.27-.202 3.531.62a8.461 8.461 0 0 1 3.409 4.522.097.097 0 0 1-.093.125h-.001Z" fill="#A45236"/><path d="M99.721 64.713a.097.097 0 0 1-.079-.152c.667-.961 1.963-1.437 3.302-1.212a.096.096 0 0 1 .079.112.096.096 0 0 1-.111.079c-1.266-.213-2.487.23-3.111 1.131a.097.097 0 0 1-.08.042Z" fill="#A45236"/><path d="M135.891 67.638c.62 7.388-.494 14.826-2.262 22.027 6.712-4.555 11.855-11.535 13.658-19.435.244-1.068.428-2.147.581-3.23 1.258-8.862.764-21.67-6.091-31.532-.684-.985-6.06-.031-6.983-.797-1.029-.853 5.671 1.827 4.337 1.913-1.334.086-2.618.533-3.85 1.051a32.66 32.66 0 0 0-5.424 2.912c-.594.395-1.198.836-1.515 1.475-.368.743-.285 1.62-.193 2.444.257 2.314.476 3.247 1.775 5.183a33.102 33.102 0 0 1 3.002 5.6c1.58 3.748 2.965 8.283 2.965 12.39Z" fill="#7B3E29"/><path d="M161.672 114.408c-4.586-6.219-12.639-8.09-19.303-11.182-3.532-1.639-6.661-3.196-9.063-6.31-.635-.824-21.148-2.161-22.286.084-1.716 3.383-5.959 4.587-9.491 6.226-6.664 3.092-13.758 5.579-18.344 11.798-2.415 3.274-4.409 6.914-3.766 10.929.507 3.174 1.99 6.093 3.285 9.035 4.767 10.821 11.681 48.558 14.958 68.268 11.918 6.743 40.279 3 48.02.434 3.396-20.121 10.852-58.128 15.511-68.702 1.296-2.943 2.778-5.862 3.286-9.036.642-4.015-.393-8.271-2.808-11.545l.001.001Z" fill="#FBAE96"/><path d="M148.852 105.927s-23.794 4.319-50.183-1.46c-12.218 3.223-20.612 13.249-26.278 25.648-8.37 18.313 15.784 5.68 17.149 33.895.046.945 1.338 2.268 1.292 2.16.669 1.581.755 3.742 1.09 5.433a931.87 931.87 0 0 1 2.238 11.703c1.229 6.639 2.4 13.29 3.508 19.951 11.917 6.743 40.278 3 48.019.434 3.396-20.121 10.853-58.128 15.511-68.702 1.296-2.943 3.043-18.603 1.335-21.166-3.71-5.571-13.681-7.897-13.681-7.897v.001Z" fill="#fff"/><path d="M162.865 114.434c9.253 12.547 14.832 33.937 20.199 49.728 5.436 15.993 5.094 20.039 3.541 23.841-2.311 5.656-22.055-.37-26.125-9.457-4.071-9.088-10.071-26.428-12.586-34.249-2.515-7.821 1.144-27.636 14.971-29.864v.001Z" fill="#fff"/><path d="M148.851 175.134c0 13.013-14.131 23.562-31.564 23.562-7.914 0-15.146-2.173-20.686-5.764-3.547-2.299-6.401-5.181-8.294-8.444-.44-.759-5.178-.193-5.846-.743-1.209-.993-.672-9.935.323-11.118.344-.409 3.267-1.014 3.48-1.863 2.746-10.925 15.591-19.191 31.023-19.191 10.209 0 19.286 3.617 25.056 9.229 4.082 3.971 6.508 8.941 6.508 14.332Z" fill="#FCC583"/><path d="M101.896 160.089c-.984.527-1.94.614-2.765.41a3.363 3.363 0 0 1-.196-.231c-.013-.016-.029-.03-.042-.045-1.968-2.143-2.783-8.176-2.248-9.6a.517.517 0 0 1 .29-.318c.273-.112.687-.004 1.183.251 1.841 1.158 3.828 2.59 4.448 3.337 1.118 1.348 2.458 4.516-.67 6.195v.001ZM147.471 169.768c1.255.234 3.008.052 3.916-.68 1.619-1.305 2.259-3.399 2.679-5.391.175-1.011.602-3.036-.302-3.79-.582-.476-1.473-.103-1.823.495-.346.589-.318 1.306-.15 1.957.737 2.754 4.11 4.363 6.756 3.389 2.099-.777 2.586-1.931 2.131-1.26-2.047 3.015-7.029 2.192-8.797-.817-.645-1.096-1.015-2.718-.109-3.778.55-.626 1.577-.892 2.262-.322 1.111.935.789 2.953.551 4.164-.364 1.638-.735 3.869-1.726 5.25-1.2 1.711-3.327 3.292-5.478 2.794-1.227-.261-1.503-2.309.089-2.011h.001Z" fill="#FCC583"/><path d="M131.21 155.983c-3.324-.977-7.422-1.643-11.871-1.835-4.508-.194-8.697.129-12.118.834-.151-.17-.323-.256-.541-.402 2.872-1.273 7.419-1.875 12.71-1.604 5.971.306 9.497 1.24 12.285 2.648a9.488 9.488 0 0 0-.464.359h-.001ZM96.794 167.841c.156-1.077-.128-2.009-.633-2.082-.506-.073-1.043.741-1.199 1.818-.156 1.077.128 2.009.633 2.082.506.073 1.043-.741 1.199-1.818Z" fill="#BD8440"/><path d="M85.936 111.176c-12.124 9.813-25.164 30.475-34.346 44.405-9.3 14.108-11.331 25.2-5.217 29.598 4.963 3.571 17.205-2.226 23.437-9.993 6.235-7.77 16.421-23.04 20.83-29.974 4.41-6.936 8.112-28.399-4.704-34.035v-.001Z" fill="#fff"/><path d="m99.322 138.308-.117.101-.085.077c-.635.581-2.947 1.349-4.048 2.64-8.731 10.232-28.954 40.08-35.361 43.126-7.306 3.472-12.417 2.115-14.562-1.613-3.052-5.306-.918-11.647 4.8-17.953 5.386-5.941 32.233-24.603 39.953-33.826a17.22 17.22 0 0 0 1.195-1.585l.002-.002c2.296-3.513 8.772 1.508 9.385 5.769.177 1.225-.131 2.387-1.162 3.266Z" fill="#FBAE96"/><path d="M93.873 127.796c-1.145-.915-.77-2.404.729-4.36 1.5-1.956 5.765-7.074 6.803-8.347 1.038-1.273 4.699-4.995 6.507-4.838 1.679.146-2.964 6.775-3.402 7.359-.439.584-5.788 7.056-6.86 8.418-1.074 1.362-2.455 2.823-3.776 1.767v.001Z" fill="#FBAE96"/><path d="M98.475 127.355c-1.145-.915-.771-2.404.729-4.36 1.499-1.956 5.765-7.074 6.802-8.347 1.038-1.273 4.68-4.995 6.507-4.838 1.68.144-2.964 6.776-3.402 7.359-.439.584-5.788 7.056-6.861 8.418-1.073 1.362-2.454 2.823-3.775 1.768Z" fill="#FBAE96"/><path d="M113.956 129.513c.724.959 1.545 2.217 2.14 2.614.595.397 4.766 3.334 1.859-2.369-2.908-5.702-2.187-5.355-3.749-7.428-1.563-2.074-6.609.397-11.063 2.457-4.613 2.132-5.207 4.285-4.603 5.302.604 1.018 2.407 2.339 5.275.202 2.849-2.122 7.322-4.968 8.136-3.689a41.108 41.108 0 0 0 2.005 2.911Z" fill="#FBAE96"/><path d="M103.295 127.134c-1.145-.915-.771-2.404.729-4.36 1.5-1.957 5.765-7.074 6.803-8.347 1.037-1.273 4.969-5.296 6.507-4.838 1.615.481-2.964 6.775-3.402 7.359-.439.584-5.788 7.056-6.861 8.418-1.073 1.362-2.454 2.823-3.775 1.767l-.001.001ZM107.642 138.206c.965 1.225 2.534 1.821 3.277 2.646.743.826 1.344 2.679-1.243 1.998-2.588-.681-3.374-1.54-5.484-2.325-1.449-.539-2.682-.071-4.398-.123-2.173-.065-2.12-1.411-4.106.123-2.36 1.821 13.894-17.912 11.993-15.716-1.729 1.996-4.422 5.718-3.864 9.012.281 1.664 3.004 3.343 3.825 4.385Z" fill="#FBAE96"/><path d="M106.111 126.667s-.018.212-.052.58c-.038.412-6.06 10.697-6.862 11.162l-.143.085c-.646.387-1.832.075-2.432.552-.723.575-1.632 1.165-2.151 1.605-2.077 1.757-9.264-1.359-6.57-5.597.77-1.211 1.465-2.483 2.14-3.768.352-.669.699-1.341 1.047-2.011l.002-.002c1.061-2.034 2.146-4.036 3.472-5.808a20 20 0 0 1 .961-1.191c1.64-1.875 9.086 1.805 10.588 4.393Z" fill="#FBAE96"/><path d="M99.98 122.968a.096.096 0 0 1-.058-.02.097.097 0 0 1-.02-.135c.033-.044 3.358-4.506 6.813-8.857a.096.096 0 0 1 .136-.015.096.096 0 0 1 .016.135c-3.453 4.35-6.777 8.809-6.81 8.853a.095.095 0 0 1-.077.039ZM104.073 123.883a.105.105 0 0 1-.058-.019.1.1 0 0 1-.02-.136c.037-.049 3.693-4.939 7.147-9.29a.096.096 0 0 1 .136-.015.096.096 0 0 1 .016.135 465.916 465.916 0 0 0-7.143 9.286.097.097 0 0 1-.078.039Z" fill="#E8825F"/><path d="M186.873 182.458c-2.138-5.735-8.387-8.149-16.899-7.788-8.513.36-38.946 11.073-49.013 9.913-5.374-.62-4.692 9.486 1.343 10.153 6.034.666 49.162 3.325 56.506-.066 7.344-3.391 9.565-8.183 8.063-12.212Z" fill="#FBAE96"/><path d="M104.38 190.686c-.496-3.019-.748-5.949-.218-8.796 1.815.19 4.252.315 5.935.621 2.576.482 5.06 1.299 7.627 1.962 1.316.336 2.299-.517 3.514-.424 1.405.109 6.049.259 8.672-.149 1.657-.258-.29 3.772.232 5.33.065.191.125.388.108.569-.02.215-.152.378-.279.531-1.39 1.661-1.166 4.75-3.587 4.75-3.14 0-6.492.258-8.97.247-3.598.018-8.443-.15-12.344-.249-.847-1.636-.41-2.735-.69-4.392Z" fill="#FBAE96"/><path d="M92 180.63c-.548-.028-1.118-.053-1.638.077-.52.131-.991.451-1.064.905a.572.572 0 0 0 .132.485c.152.169.406.25.64.32 5.515 1.59 10.068 2.211 15.648 3.326 2.007.369.86-2.676-.088-3.321-.814-.544-1.711-.556-2.677-.694-3.441-.494-7.01-.892-10.953-1.098ZM92.758 189.781c-.606-.138-1.24-.284-1.81-.205-.57.08-1.045.47-.885.966.127.396.6.724 1.044.988 2.975 1.761 6.41 2.627 9.639 3.117 2.695.399 4.601.671 7.431.128.249-.05.512-.779.634-.96.568-.864-.798-1.963-1.749-2.178-1.066-.238-2.46-.052-3.568-.153a80.755 80.755 0 0 1-10.736-1.702v-.001Z" fill="#FBAE96"/><path d="M104.74 185.718c.158.537-12.863-2.682-16.887-2.142-.428.058-.836.266-1.06.636-.675 1.117.01 3.735 17.691 7.056 1.26.266 2.513.501 3.759.703a56.401 56.401 0 0 1-3.503-6.253Z" fill="#FBAE96"/><path d="m104.461 188.569-.013-.001c-5.22-.699-10.952-1.688-17.51-4.171a.096.096 0 1 1 .068-.18c6.54 2.476 12.26 3.462 17.467 4.16a.097.097 0 0 1-.012.193v-.001Z" fill="#E8825F"/><path d="M113.691 180.028c-1.215-.426-2.395-.905-3.644-1.079-1.113-.155-2.168-1.008-3.024-1.738-.151-.128-.39-.049-.474.159-.363.905-.225 1.975.256 2.817.552.968 1.474 1.677 2.427 2.298.953.621 1.966 1.189 2.837 2.002.57.532 1.075 1.165 1.706 1.663.716.562 1.425.661 2.246.831 1.036.214 2.078.311 3.111.374 1.028.085 4.025.177 4.32-1.073.302-1.29-1.568-2.144-2.474-2.775-2.488-1.692-4.861-2.628-7.288-3.478l.001-.001Z" fill="#FBAE96"/><path d="M115.817 139.133a5.168 5.168 0 0 0 0-7.319 5.19 5.19 0 0 0-7.331 0 5.17 5.17 0 0 0 0 7.319 5.19 5.19 0 0 0 7.331 0Z" fill="#FFCA42"/><path d="M112.155 139.753c-.156 0-.313-.008-.471-.026a4.256 4.256 0 0 1-2.878-1.573 4.244 4.244 0 0 1-.921-3.144 4.255 4.255 0 0 1 1.576-2.874 4.263 4.263 0 0 1 3.15-.919 4.287 4.287 0 0 1 3.799 4.718 4.253 4.253 0 0 1-1.576 2.873 4.261 4.261 0 0 1-2.678.945h-.001Zm-.016-8.368a4.07 4.07 0 0 0-2.557.902 4.062 4.062 0 0 0-1.505 2.744 4.053 4.053 0 0 0 .88 3.002 4.067 4.067 0 0 0 2.748 1.502 4.066 4.066 0 0 0 3.007-.878 4.062 4.062 0 0 0 1.505-2.743 4.094 4.094 0 0 0-4.078-4.529Z" fill="#D1990A"/><path d="M112.104 131.385a.096.096 0 0 1-.096-.097v-.867a.096.096 0 1 1 .193 0v.867a.096.096 0 0 1-.097.097ZM112.104 140.62a.096.096 0 0 1-.096-.097v-.867a.096.096 0 1 1 .193 0v.867a.096.096 0 0 1-.097.097ZM117.153 135.569h-.869a.096.096 0 0 1-.096-.096c0-.054.043-.097.096-.097h.869a.096.096 0 1 1 0 .193ZM107.896 135.569h-.87a.096.096 0 0 1-.096-.096c0-.054.043-.097.096-.097h.87c.053 0 .096.043.096.097a.096.096 0 0 1-.096.096ZM115.089 132.61a.094.094 0 0 1-.068-.028.095.095 0 0 1 0-.136l.614-.614a.097.097 0 0 1 .137 0 .097.097 0 0 1 0 .137l-.615.613a.093.093 0 0 1-.068.028ZM108.558 139.141a.097.097 0 0 1-.069-.165l.615-.613a.097.097 0 0 1 .137.136l-.615.614a.096.096 0 0 1-.068.028ZM115.704 139.141a.097.097 0 0 1-.069-.028l-.614-.614a.095.095 0 0 1 0-.136.095.095 0 0 1 .136 0l.615.613a.097.097 0 0 1-.068.165ZM109.172 132.61a.096.096 0 0 1-.068-.028l-.615-.613a.097.097 0 0 1 0-.137.097.097 0 0 1 .137 0l.615.614a.095.095 0 0 1 0 .136.097.097 0 0 1-.069.028Z" fill="#D1990A"/><path d="M99.91 122.967c-.817 0-1.629-.443-1.952-.766a.096.096 0 0 1 0-.136.096.096 0 0 1 .137 0c.29.29 1.061.709 1.815.709h.049a.096.096 0 1 1 .005.193h-.054ZM104.019 123.883c-.817 0-1.629-.443-1.952-.766a.096.096 0 0 1 0-.136.097.097 0 0 1 .137 0c.291.29 1.061.709 1.816.709h.048c.056 0 .098.041.099.094a.095.095 0 0 1-.094.099h-.054ZM109.206 122.495a.097.097 0 0 1-.038-.186l1.893-.81a.097.097 0 0 1 .127.051.096.096 0 0 1-.051.126l-1.893.81a.1.1 0 0 1-.038.008v.001ZM99.964 127.682c-1.8 0-3.5-.23-4.28-.353a.096.096 0 0 1-.081-.11.097.097 0 0 1 .11-.081c1.037.164 3.701.516 6.054.261 1.106-.12 2.635-.593 3.893-1.205a.099.099 0 0 1 .13.044.098.098 0 0 1-.045.13c-1.276.621-2.83 1.101-3.957 1.223-.599.065-1.216.091-1.823.091ZM95.456 131.387a.097.097 0 0 1-.035-.187c3.1-1.203 8.368-1.661 9.08-1.661a.096.096 0 1 1 0 .193c-.706 0-5.935.455-9.01 1.649a.106.106 0 0 1-.035.006Z" fill="#E8825F"/><path d="M97.48 133.185a.096.096 0 0 1-.09-.132c.28-.719 2.117-2.381 3.684-3.161a.097.097 0 1 1 .087.172c-1.505.749-3.329 2.385-3.591 3.06a.097.097 0 0 1-.09.061Z" fill="#E8825F"/></g><defs><clipPath id="a"><path fill="#fff" d="M0 0h239v191H0z"/></clipPath></defs></svg>