<svg width="820" height="570" fill="none" xmlns="http://www.w3.org/2000/svg"><path fill="#F6FAFF" d="M0 0h820v570H0z"/><path d="M131.315 46.122v-12.13h-6.58l-.107 3.15a49.342 49.342 0 0 1-.214 3.043c-.086.972-.215 1.85-.386 2.636-.172.772-.414 1.408-.729 1.908-.3.5-.686.807-1.157.922l-2.315-.386c.557.043 1.015-.143 1.372-.557.371-.43.657-1.022.857-1.78.214-.77.372-1.664.472-2.678.1-1.03.171-2.13.214-3.301l.15-4.822h10.545v13.995h-2.122Zm-12.024 4.286.022-5.143h16.331v5.143h-1.993V47.13h-12.345l-.021 3.28h-1.994Zm18.94-3.279V35.77h2.058v8.273l6.965-8.273h1.865v11.36h-2.058v-8.274l-6.944 8.273h-1.886Zm14.882 0V35.77h2.057v4.822h6.473V35.77h2.057v11.36h-2.057V42.37h-6.473v4.758h-2.057Zm21.553 0v-2.4l-.107-.45v-4.094c0-.871-.257-1.543-.771-2.014-.5-.486-1.258-.729-2.272-.729-.672 0-1.329.114-1.972.343-.643.214-1.186.507-1.629.879l-.857-1.544c.586-.471 1.286-.828 2.1-1.071a8.7 8.7 0 0 1 2.594-.386c1.557 0 2.757.379 3.6 1.136.843.757 1.265 1.915 1.265 3.472v6.858h-1.951Zm-3.729.129c-.843 0-1.586-.143-2.229-.429-.628-.285-1.114-.678-1.457-1.178a3.06 3.06 0 0 1-.515-1.737c0-.614.143-1.171.429-1.671.3-.5.779-.9 1.436-1.2.672-.3 1.572-.45 2.701-.45h3.6v1.478h-3.515c-1.029 0-1.721.172-2.079.515a1.661 1.661 0 0 0-.536 1.243c0 .557.222 1.007.665 1.35.443.329 1.057.493 1.843.493.772 0 1.443-.171 2.015-.514a2.91 2.91 0 0 0 1.264-1.5l.407 1.414c-.271.671-.75 1.207-1.436 1.607-.685.386-1.55.579-2.593.579Zm9.385-.129V35.77h2.122l4.886 8.402h-.857l5.015-8.402h1.929v11.36h-1.865v-9.045l.343.193-4.586 7.566h-.9l-4.608-7.716.407-.086v9.087h-1.886Zm17.1 0V35.77h2.057v8.273l6.966-8.273h1.864v11.36h-2.057v-8.274l-6.944 8.273h-1.886Zm23.111 0-4.394-5.53 1.693-1.028 5.123 6.558h-2.422Zm-8.23 0V35.77h2.057v11.36h-2.057Zm1.436-4.8V40.57h3.75v1.758h-3.75Zm4.265-.643-1.908-.258 4.351-5.658h2.208l-4.651 5.916Zm13.864 5.443v-2.4l-.107-.45v-4.094c0-.871-.257-1.543-.771-2.014-.501-.486-1.258-.729-2.272-.729-.672 0-1.329.114-1.972.343-.643.214-1.186.507-1.629.879l-.857-1.544c.586-.471 1.286-.828 2.1-1.071a8.699 8.699 0 0 1 2.593-.386c1.558 0 2.758.379 3.601 1.136.843.757 1.265 1.915 1.265 3.472v6.858h-1.951Zm-3.729.129c-.843 0-1.586-.143-2.229-.429-.629-.285-1.114-.678-1.457-1.178a3.06 3.06 0 0 1-.515-1.737c0-.614.143-1.171.429-1.671.3-.5.779-.9 1.436-1.2.671-.3 1.572-.45 2.7-.45h3.601v1.478h-3.515c-1.029 0-1.722.172-2.079.515a1.661 1.661 0 0 0-.536 1.243c0 .557.222 1.007.665 1.35.443.329 1.057.493 1.843.493.772 0 1.443-.171 2.015-.514a2.914 2.914 0 0 0 1.264-1.5l.407 1.414c-.271.671-.75 1.207-1.436 1.607-.685.386-1.55.579-2.593.579Zm20.091 0c-1.157 0-2.193-.25-3.107-.75a5.533 5.533 0 0 1-2.122-2.058c-.515-.871-.772-1.871-.772-3s.257-2.13.772-3a5.38 5.38 0 0 1 2.122-2.037c.914-.5 1.95-.75 3.107-.75 1.029 0 1.943.207 2.744.622.814.4 1.443 1 1.886 1.8l-1.565 1.007c-.371-.557-.829-.964-1.372-1.221a3.695 3.695 0 0 0-1.714-.408c-.743 0-1.408.165-1.993.493a3.627 3.627 0 0 0-1.394 1.393c-.342.586-.514 1.286-.514 2.1 0 .815.172 1.523.514 2.123.343.6.808 1.064 1.394 1.393.585.328 1.25.493 1.993.493.614 0 1.186-.129 1.714-.386.543-.272 1.001-.686 1.372-1.243l1.565.986a4.549 4.549 0 0 1-1.886 1.821c-.801.415-1.715.622-2.744.622Zm12.184 0c-1.214 0-2.286-.25-3.215-.75a5.5 5.5 0 0 1-2.143-2.058c-.5-.871-.75-1.871-.75-3s.243-2.13.729-3a5.353 5.353 0 0 1 2.036-2.037c.871-.5 1.85-.75 2.936-.75 1.1 0 2.072.243 2.915.729a5.063 5.063 0 0 1 1.971 2.057c.486.872.729 1.894.729 3.065 0 .086-.007.186-.021.3 0 .114-.007.222-.022.322h-9.666v-1.48h8.595l-.836.515c.014-.728-.136-1.379-.45-1.95a3.344 3.344 0 0 0-1.308-1.329c-.543-.329-1.178-.493-1.907-.493-.715 0-1.35.164-1.908.493a3.308 3.308 0 0 0-1.307 1.35c-.314.572-.472 1.23-.472 1.972v.343c0 .757.172 1.436.515 2.036a3.7 3.7 0 0 0 1.479 1.372c.628.328 1.35.493 2.164.493.672 0 1.279-.115 1.822-.343a3.99 3.99 0 0 0 1.457-1.029l1.136 1.329a4.955 4.955 0 0 1-1.929 1.371c-.757.315-1.607.472-2.55.472Zm8.4-.129V35.77h2.122l4.886 8.402h-.857l5.015-8.402h1.929v11.36h-1.864v-9.045l.343.193-4.587 7.566h-.9l-4.608-7.716.407-.086v9.087h-1.886Zm22.158.129c-1.215 0-2.286-.25-3.215-.75a5.5 5.5 0 0 1-2.143-2.058c-.5-.871-.75-1.871-.75-3s.243-2.13.728-3a5.36 5.36 0 0 1 2.036-2.037c.872-.5 1.851-.75 2.937-.75 1.1 0 2.072.243 2.915.729a5.063 5.063 0 0 1 1.971 2.057c.486.872.729 1.894.729 3.065 0 .086-.007.186-.021.3 0 .114-.008.222-.022.322h-9.666v-1.48h8.595l-.836.515c.014-.728-.136-1.379-.45-1.95a3.35 3.35 0 0 0-1.308-1.329c-.543-.329-1.179-.493-1.907-.493-.715 0-1.351.164-1.908.493a3.308 3.308 0 0 0-1.307 1.35c-.314.572-.472 1.23-.472 1.972v.343c0 .757.172 1.436.515 2.036a3.7 3.7 0 0 0 1.479 1.372c.628.328 1.35.493 2.164.493.672 0 1.279-.115 1.822-.343a3.99 3.99 0 0 0 1.457-1.029l1.136 1.329a4.955 4.955 0 0 1-1.929 1.371c-.757.315-1.607.472-2.55.472Zm8.4-.129V35.77h2.057v8.273l6.966-8.273h1.865v11.36h-2.058v-8.274l-6.944 8.273h-1.886Zm5.315-12.838c-1.043 0-1.864-.25-2.465-.75-.585-.514-.885-1.25-.9-2.207h1.393c.015.543.193.971.536 1.286.357.314.829.471 1.415.471.586 0 1.057-.157 1.414-.471.357-.315.543-.743.557-1.286h1.436c-.014.957-.321 1.693-.921 2.207-.6.5-1.422.75-2.465.75Zm9.566 12.838V35.77h2.058v4.822h6.472V35.77h2.058v11.36h-2.058V42.37h-6.472v4.758h-2.058Zm19.454.129c-1.143 0-2.158-.25-3.044-.75a5.58 5.58 0 0 1-2.1-2.058c-.515-.886-.772-1.886-.772-3 0-1.129.257-2.13.772-3a5.422 5.422 0 0 1 2.1-2.037c.886-.5 1.901-.75 3.044-.75 1.128 0 2.136.25 3.022.75.9.486 1.6 1.165 2.1 2.036.514.858.772 1.858.772 3 0 1.13-.258 2.13-.772 3.001-.5.872-1.2 1.558-2.1 2.058-.886.5-1.894.75-3.022.75Zm0-1.8c.728 0 1.378-.165 1.95-.493a3.48 3.48 0 0 0 1.372-1.393c.328-.615.493-1.322.493-2.122 0-.815-.165-1.515-.493-2.1a3.482 3.482 0 0 0-1.372-1.394c-.572-.328-1.222-.493-1.95-.493-.729 0-1.379.165-1.951.493a3.667 3.667 0 0 0-1.371 1.393c-.343.586-.515 1.286-.515 2.1 0 .801.172 1.508.515 2.123.342.6.8 1.064 1.371 1.393.572.328 1.222.493 1.951.493Zm8.865 1.671V35.77h8.358v1.8h-6.794l.493-.471v10.03h-2.057Zm14.827.129c-1.143 0-2.157-.25-3.043-.75a5.58 5.58 0 0 1-2.1-2.058c-.515-.886-.772-1.886-.772-3 0-1.129.257-2.13.772-3a5.422 5.422 0 0 1 2.1-2.037c.886-.5 1.9-.75 3.043-.75 1.129 0 2.137.25 3.022.75a5.235 5.235 0 0 1 2.101 2.036c.514.858.771 1.858.771 3 0 1.13-.257 2.13-.771 3.001-.5.872-1.2 1.558-2.101 2.058-.885.5-1.893.75-3.022.75Zm0-1.8c.729 0 1.379-.165 1.951-.493a3.472 3.472 0 0 0 1.371-1.393c.329-.615.493-1.322.493-2.122 0-.815-.164-1.515-.493-2.1a3.473 3.473 0 0 0-1.371-1.394c-.572-.328-1.222-.493-1.951-.493-.728 0-1.378.165-1.95.493a3.677 3.677 0 0 0-1.372 1.393c-.342.586-.514 1.286-.514 2.1 0 .801.172 1.508.514 2.123.343.6.801 1.064 1.372 1.393.572.328 1.222.493 1.95.493Zm19.486 1.8c-1.143 0-2.157-.25-3.043-.75a5.58 5.58 0 0 1-2.1-2.058c-.515-.886-.772-1.886-.772-3 0-1.129.257-2.13.772-3a5.422 5.422 0 0 1 2.1-2.037c.886-.5 1.9-.75 3.043-.75 1.129 0 2.136.25 3.022.75a5.241 5.241 0 0 1 2.101 2.036c.514.858.771 1.858.771 3 0 1.13-.257 2.13-.771 3.001a5.388 5.388 0 0 1-2.101 2.058c-.886.5-1.893.75-3.022.75Zm0-1.8c.729 0 1.379-.165 1.951-.493a3.478 3.478 0 0 0 1.371-1.393c.329-.615.493-1.322.493-2.122 0-.815-.164-1.515-.493-2.1a3.48 3.48 0 0 0-1.371-1.394c-.572-.328-1.222-.493-1.951-.493-.728 0-1.378.165-1.95.493a3.67 3.67 0 0 0-1.372 1.393c-.343.586-.514 1.286-.514 2.1 0 .801.171 1.508.514 2.123.343.6.8 1.064 1.372 1.393.572.328 1.222.493 1.95.493Zm14.116 1.843c-.943 0-1.779-.15-2.507-.45a5.004 5.004 0 0 1-1.844-1.329c-.514-.6-.907-1.35-1.178-2.25-.258-.915-.386-1.986-.386-3.215 0-.972.086-1.843.257-2.615a8.295 8.295 0 0 1 .729-2.058c.328-.6.728-1.121 1.2-1.564a6.647 6.647 0 0 1 1.629-1.093 8.804 8.804 0 0 1 2.014-.686l5.187-1.157.3 1.907-4.779 1.029c-.286.057-.629.143-1.029.257-.4.114-.807.293-1.222.536-.414.229-.8.55-1.157.964-.357.415-.643.958-.857 1.63-.215.657-.322 1.47-.322 2.443 0 .271.007.478.022.621l.043.429c.028.143.05.357.064.643l-.857-.88a5.464 5.464 0 0 1 1.093-2.057c.5-.585 1.1-1.035 1.8-1.35a5.52 5.52 0 0 1 2.336-.493c1.057 0 1.993.229 2.808.686a5.052 5.052 0 0 1 1.95 1.886c.472.8.707 1.715.707 2.744 0 1.043-.25 1.978-.75 2.807-.486.815-1.179 1.458-2.079 1.929-.9.457-1.957.686-3.172.686Zm.193-1.715c.729 0 1.372-.157 1.929-.471a3.584 3.584 0 0 0 1.307-1.308 3.722 3.722 0 0 0 .472-1.864c0-.686-.157-1.293-.472-1.822a3.318 3.318 0 0 0-1.307-1.243c-.557-.314-1.214-.472-1.972-.472-.714 0-1.357.15-1.929.45a3.143 3.143 0 0 0-1.328 1.222c-.315.514-.472 1.115-.472 1.8 0 .686.157 1.315.472 1.886.328.558.771 1 1.328 1.33.572.328 1.229.492 1.972.492Zm14.769 1.672a5.326 5.326 0 0 1-2.593-.643c-.772-.443-1.393-1.093-1.865-1.95-.457-.858-.685-1.93-.685-3.215 0-1.286.221-2.358.664-3.215.457-.857 1.072-1.5 1.843-1.929.786-.429 1.665-.643 2.636-.643 1.115 0 2.101.243 2.958.729a5.36 5.36 0 0 1 2.036 2.036c.5.857.75 1.864.75 3.022 0 1.157-.25 2.172-.75 3.043a5.36 5.36 0 0 1-2.036 2.036c-.857.486-1.843.729-2.958.729Zm-6.022 4.03V35.77h1.972v3.065l-.129 2.636.214 2.636v7.18h-2.057Zm5.851-5.83c.729 0 1.379-.165 1.95-.493a3.48 3.48 0 0 0 1.372-1.393c.343-.615.514-1.322.514-2.122 0-.815-.171-1.515-.514-2.1a3.482 3.482 0 0 0-1.372-1.394c-.571-.328-1.221-.493-1.95-.493-.714 0-1.365.165-1.95.493a3.67 3.67 0 0 0-1.372 1.393c-.329.586-.493 1.286-.493 2.1 0 .801.164 1.508.493 2.123.343.6.8 1.064 1.372 1.393a3.914 3.914 0 0 0 1.95.493Zm15.765 1.671v-2.4l-.107-.45v-4.094c0-.871-.257-1.543-.771-2.014-.5-.486-1.258-.729-2.272-.729-.672 0-1.329.114-1.972.343-.643.214-1.186.507-1.629.879l-.857-1.544c.586-.471 1.286-.828 2.1-1.071a8.7 8.7 0 0 1 2.594-.386c1.557 0 2.757.379 3.6 1.136.843.757 1.265 1.915 1.265 3.472v6.858h-1.951Zm-3.729.129c-.843 0-1.586-.143-2.229-.429-.628-.285-1.114-.678-1.457-1.178a3.06 3.06 0 0 1-.515-1.737c0-.614.143-1.171.429-1.671.3-.5.779-.9 1.436-1.2.672-.3 1.572-.45 2.701-.45h3.6v1.478h-3.515c-1.028 0-1.721.172-2.079.515a1.66 1.66 0 0 0-.535 1.243c0 .557.221 1.007.664 1.35.443.329 1.057.493 1.843.493.772 0 1.443-.171 2.015-.514a2.91 2.91 0 0 0 1.264-1.5l.408 1.414c-.272.671-.751 1.207-1.436 1.607-.686.386-1.551.579-2.594.579Zm12.518.021c-.857 0-1.7-.107-2.529-.321a8.004 8.004 0 0 1-2.186-.965l.622-1.564a7.146 7.146 0 0 0 1.864.814 8.248 8.248 0 0 0 2.122.279c.658 0 1.222-.079 1.693-.236.486-.157.858-.371 1.115-.643.257-.285.386-.614.386-.986 0-.528-.236-.935-.708-1.221-.471-.286-1.128-.429-1.971-.429h-2.058v-1.479h1.929c.5 0 .936-.057 1.307-.171.372-.114.658-.286.858-.515.214-.242.321-.521.321-.835 0-.343-.121-.636-.364-.88-.243-.242-.586-.428-1.029-.556-.429-.129-.936-.193-1.522-.193a8.488 8.488 0 0 0-1.757.235 8.93 8.93 0 0 0-1.8.665l-.558-1.608a11.248 11.248 0 0 1 2.015-.75 8.12 8.12 0 0 1 1.993-.3c.986-.028 1.865.086 2.636.343.772.243 1.379.6 1.822 1.072.457.471.686 1.029.686 1.672a2.27 2.27 0 0 1-.514 1.457c-.343.414-.801.743-1.372.986-.572.243-1.229.364-1.972.364l.086-.493c1.272 0 2.272.25 3 .75.729.5 1.093 1.18 1.093 2.036 0 .686-.228 1.293-.685 1.822-.458.515-1.079.922-1.865 1.222-.772.285-1.657.428-2.658.428Zm13.202-.021c-1.143 0-2.158-.25-3.044-.75a5.58 5.58 0 0 1-2.1-2.058c-.515-.886-.772-1.886-.772-3 0-1.129.257-2.13.772-3a5.422 5.422 0 0 1 2.1-2.037c.886-.5 1.901-.75 3.044-.75 1.128 0 2.136.25 3.022.75.9.486 1.6 1.165 2.1 2.036.514.858.771 1.858.771 3 0 1.13-.257 2.13-.771 3.001-.5.872-1.2 1.558-2.1 2.058-.886.5-1.894.75-3.022.75Zm0-1.8c.728 0 1.378-.165 1.95-.493a3.48 3.48 0 0 0 1.372-1.393c.328-.615.493-1.322.493-2.122 0-.815-.165-1.515-.493-2.1a3.482 3.482 0 0 0-1.372-1.394c-.572-.328-1.222-.493-1.95-.493-.729 0-1.379.165-1.951.493a3.667 3.667 0 0 0-1.371 1.393c-.343.586-.515 1.286-.515 2.1 0 .801.172 1.508.515 2.123.342.6.8 1.064 1.371 1.393.572.328 1.222.493 1.951.493Zm8.865 1.671V35.77h5.272c1.329 0 2.372.257 3.129.772.772.5 1.157 1.214 1.157 2.143 0 .929-.364 1.65-1.093 2.165-.714.5-1.664.75-2.85.75l.321-.557c1.358 0 2.365.25 3.022.75.658.5.986 1.236.986 2.207 0 .986-.371 1.758-1.114 2.315-.729.543-1.851.814-3.365.814h-5.465Zm2.014-1.586h3.301c.857 0 1.5-.128 1.929-.385.428-.272.643-.7.643-1.286 0-.6-.2-1.036-.6-1.308-.386-.285-1.001-.428-1.844-.428h-3.429v3.407Zm0-4.886h3.086c.786 0 1.379-.143 1.779-.429.415-.3.622-.714.622-1.243 0-.543-.207-.95-.622-1.222-.4-.271-.993-.407-1.779-.407h-3.086v3.3Zm18.116 6.472v-2.4l-.107-.45v-4.094c0-.871-.257-1.543-.772-2.014-.5-.486-1.257-.729-2.271-.729-.672 0-1.329.114-1.972.343-.643.214-1.186.507-1.629.879l-.857-1.544c.585-.471 1.286-.828 2.1-1.071a8.699 8.699 0 0 1 2.593-.386c1.558 0 2.758.379 3.601 1.136.843.757 1.264 1.915 1.264 3.472v6.858h-1.95Zm-3.729.129c-.843 0-1.586-.143-2.229-.429-.629-.285-1.115-.678-1.458-1.178a3.066 3.066 0 0 1-.514-1.737c0-.614.143-1.171.429-1.671.3-.5.778-.9 1.436-1.2.671-.3 1.571-.45 2.7-.45h3.601v1.478h-3.515c-1.029 0-1.722.172-2.079.515a1.661 1.661 0 0 0-.536 1.243c0 .557.222 1.007.665 1.35.443.329 1.057.493 1.843.493.771 0 1.443-.171 2.014-.514a2.911 2.911 0 0 0 1.265-1.5l.407 1.414c-.271.671-.75 1.207-1.436 1.607-.686.386-1.55.579-2.593.579Zm9.384-.129V35.77h2.058v4.822h6.472V35.77h2.058v11.36h-2.058V42.37h-6.472v4.758h-2.058Zm14.589 0V35.77h2.057v8.273l6.966-8.273h1.864v11.36h-2.057v-8.274l-6.944 8.273h-1.886Zm22.147 0v-3.986l.321.386h-3.622c-1.515 0-2.701-.322-3.558-.965-.843-.643-1.264-1.579-1.264-2.807 0-1.315.45-2.308 1.35-2.98.914-.671 2.129-1.007 3.643-1.007h4.973v11.36h-1.843Zm-8.231 0 3.087-4.35h2.122l-3.001 4.35h-2.208Zm8.231-4.629v-5.508l.321.579h-3.386c-.943 0-1.672.178-2.186.535-.515.343-.772.915-.772 1.715 0 1.486.957 2.229 2.872 2.229h3.472l-.321.45Zm11.613 4.63V35.77h5.272c1.329 0 2.372.257 3.129.772.772.5 1.158 1.214 1.158 2.143 0 .929-.365 1.65-1.093 2.165-.715.5-1.665.75-2.851.75l.322-.557c1.357 0 2.364.25 3.022.75.657.5.985 1.236.985 2.207 0 .986-.371 1.758-1.114 2.315-.729.543-1.85.814-3.365.814h-5.465Zm2.014-1.587h3.301c.857 0 1.5-.128 1.929-.385.429-.272.643-.7.643-1.286 0-.6-.2-1.036-.6-1.308-.386-.285-1-.428-1.843-.428h-3.43v3.407Zm0-4.886h3.087c.786 0 1.379-.143 1.779-.429.414-.3.621-.714.621-1.243 0-.543-.207-.95-.621-1.222-.4-.271-.993-.407-1.779-.407h-3.087v3.3Zm17.25 6.472V32.127h5.851c1.314 0 2.436.207 3.364.621.929.415 1.644 1.015 2.144 1.8.5.786.75 1.722.75 2.808 0 1.086-.25 2.022-.75 2.808-.5.771-1.215 1.371-2.144 1.8-.928.415-2.05.622-3.364.622h-4.673l.965-1.008v5.551h-2.143Zm2.143-5.336-.965-1.072h4.608c1.372 0 2.408-.293 3.108-.879.714-.585 1.072-1.414 1.072-2.486 0-1.071-.358-1.9-1.072-2.486-.7-.586-1.736-.879-3.108-.879h-4.608l.965-1.071v8.873Zm17.427 5.465c-1.143 0-2.157-.25-3.043-.75a5.58 5.58 0 0 1-2.1-2.058c-.515-.886-.772-1.886-.772-3 0-1.129.257-2.13.772-3a5.422 5.422 0 0 1 2.1-2.037c.886-.5 1.9-.75 3.043-.75 1.129 0 2.137.25 3.022.75a5.235 5.235 0 0 1 2.101 2.036c.514.858.771 1.858.771 3 0 1.13-.257 2.13-.771 3.001-.5.872-1.2 1.558-2.101 2.058-.885.5-1.893.75-3.022.75Zm0-1.8c.729 0 1.379-.165 1.951-.493a3.48 3.48 0 0 0 1.372-1.393c.328-.615.492-1.322.492-2.122 0-.815-.164-1.515-.492-2.1a3.482 3.482 0 0 0-1.372-1.394c-.572-.328-1.222-.493-1.951-.493-.728 0-1.378.165-1.95.493a3.677 3.677 0 0 0-1.372 1.393c-.342.586-.514 1.286-.514 2.1 0 .801.172 1.508.514 2.123.343.6.801 1.064 1.372 1.393.572.328 1.222.493 1.95.493Zm13.816 1.8c-1.157 0-2.193-.25-3.107-.75a5.533 5.533 0 0 1-2.122-2.058c-.515-.871-.772-1.871-.772-3s.257-2.13.772-3a5.38 5.38 0 0 1 2.122-2.037c.914-.5 1.95-.75 3.107-.75 1.029 0 1.944.207 2.744.622.814.4 1.443 1 1.886 1.8l-1.565 1.007c-.371-.557-.829-.964-1.372-1.221a3.695 3.695 0 0 0-1.714-.408c-.743 0-1.407.165-1.993.493a3.618 3.618 0 0 0-1.393 1.393c-.343.586-.515 1.286-.515 2.1 0 .815.172 1.523.515 2.123.342.6.807 1.064 1.393 1.393.586.328 1.25.493 1.993.493.614 0 1.186-.129 1.714-.386.543-.272 1.001-.686 1.372-1.243l1.565.986a4.549 4.549 0 0 1-1.886 1.821c-.8.415-1.715.622-2.744.622Zm12.077 0c-1.157 0-2.193-.25-3.108-.75a5.546 5.546 0 0 1-2.122-2.058c-.514-.871-.771-1.871-.771-3s.257-2.13.771-3a5.392 5.392 0 0 1 2.122-2.037c.915-.5 1.951-.75 3.108-.75 1.029 0 1.943.207 2.743.622.815.4 1.443 1 1.886 1.8l-1.564 1.007c-.372-.557-.829-.964-1.372-1.221a3.698 3.698 0 0 0-1.714-.408c-.743 0-1.408.165-1.994.493a3.632 3.632 0 0 0-1.393 1.393c-.343.586-.514 1.286-.514 2.1 0 .815.171 1.523.514 2.123a3.63 3.63 0 0 0 1.393 1.393c.586.328 1.251.493 1.994.493.614 0 1.185-.129 1.714-.386.543-.272 1-.686 1.372-1.243l1.564.986a4.543 4.543 0 0 1-1.886 1.821c-.8.415-1.714.622-2.743.622Zm7.293-.129V35.77h2.058v8.273l6.965-8.273h1.865v11.36h-2.058v-8.274l-6.944 8.273h-1.886Zm14.881 0V35.77h2.058v8.273l6.966-8.273h1.864v11.36h-2.057v-8.274l-6.944 8.273h-1.887Z" fill="#222"/><path d="m88.507 109.578 4.95-10.968.434.75h-6.935l.834-.817v2.901h-1.6V97.91h8.801v1.133l-4.717 10.535h-1.767Zm12.387.134c-.911 0-1.728-.234-2.45-.7-.711-.467-1.278-1.145-1.7-2.034-.412-.889-.617-1.967-.617-3.234s.205-2.345.617-3.234c.422-.889.989-1.567 1.7-2.034.722-.466 1.539-.7 2.45-.7.9 0 1.712.234 2.434.7.722.467 1.289 1.145 1.7 2.034.411.889.617 1.967.617 3.234s-.206 2.345-.617 3.234c-.411.889-.978 1.567-1.7 2.034-.722.466-1.534.7-2.434.7Zm0-1.484c.611 0 1.145-.167 1.601-.5.466-.333.827-.833 1.083-1.5.267-.667.4-1.495.4-2.484 0-.989-.133-1.817-.4-2.484-.256-.667-.617-1.167-1.083-1.5-.456-.333-.99-.5-1.601-.5a2.71 2.71 0 0 0-1.617.5c-.466.333-.833.833-1.1 1.5-.256.667-.383 1.495-.383 2.484 0 .989.127 1.817.383 2.484.267.667.633 1.167 1.1 1.5.467.333 1.006.5 1.617.5Zm15.595 1.484c-.911 0-1.728-.234-2.45-.7-.711-.467-1.278-1.145-1.7-2.034-.411-.889-.617-1.967-.617-3.234s.206-2.345.617-3.234c.422-.889.989-1.567 1.7-2.034.722-.466 1.539-.7 2.45-.7.901 0 1.712.234 2.434.7.723.467 1.289 1.145 1.701 2.034.411.889.616 1.967.616 3.234s-.205 2.345-.616 3.234c-.412.889-.978 1.567-1.701 2.034-.722.466-1.533.7-2.434.7Zm0-1.484c.612 0 1.145-.167 1.601-.5.467-.333.828-.833 1.083-1.5.267-.667.4-1.495.4-2.484 0-.989-.133-1.817-.4-2.484-.255-.667-.616-1.167-1.083-1.5-.456-.333-.989-.5-1.601-.5-.611 0-1.15.167-1.616.5-.467.333-.834.833-1.101 1.5-.255.667-.383 1.495-.383 2.484 0 .989.128 1.817.383 2.484.267.667.634 1.167 1.101 1.5a2.71 2.71 0 0 0 1.616.5Zm11.119 1.484c-.911 0-1.728-.234-2.45-.7-.712-.467-1.278-1.145-1.701-2.034-.411-.889-.617-1.967-.617-3.234s.206-2.345.617-3.234c.423-.889.989-1.567 1.701-2.034.722-.466 1.539-.7 2.45-.7.9 0 1.711.234 2.434.7.722.467 1.289 1.145 1.7 2.034.411.889.617 1.967.617 3.234s-.206 2.345-.617 3.234c-.411.889-.978 1.567-1.7 2.034-.723.466-1.534.7-2.434.7Zm0-1.484c.611 0 1.145-.167 1.6-.5.467-.333.828-.833 1.084-1.5.267-.667.4-1.495.4-2.484 0-.989-.133-1.817-.4-2.484-.256-.667-.617-1.167-1.084-1.5-.455-.333-.989-.5-1.6-.5-.611 0-1.15.167-1.617.5-.467.333-.833.833-1.1 1.5-.256.667-.384 1.495-.384 2.484 0 .989.128 1.817.384 2.484.267.667.633 1.167 1.1 1.5.467.333 1.006.5 1.617.5Zm11.118 1.484c-.911 0-1.728-.234-2.45-.7-.711-.467-1.278-1.145-1.7-2.034-.411-.889-.617-1.967-.617-3.234s.206-2.345.617-3.234c.422-.889.989-1.567 1.7-2.034.722-.466 1.539-.7 2.45-.7.901 0 1.712.234 2.434.7.723.467 1.289 1.145 1.701 2.034.411.889.616 1.967.616 3.234s-.205 2.345-.616 3.234c-.412.889-.978 1.567-1.701 2.034-.722.466-1.533.7-2.434.7Zm0-1.484c.612 0 1.145-.167 1.601-.5.467-.333.828-.833 1.083-1.5.267-.667.4-1.495.4-2.484 0-.989-.133-1.817-.4-2.484-.255-.667-.616-1.167-1.083-1.5-.456-.333-.989-.5-1.601-.5-.611 0-1.15.167-1.616.5-.467.333-.834.833-1.101 1.5-.255.667-.383 1.495-.383 2.484 0 .989.128 1.817.383 2.484.267.667.634 1.167 1.101 1.5a2.71 2.71 0 0 0 1.616.5ZM91.39 162.071c-1.033 0-1.916-.228-2.65-.684-.733-.455-1.295-1.111-1.684-1.967-.377-.866-.566-1.922-.566-3.167 0-1.322.233-2.439.7-3.35.466-.912 1.117-1.601 1.95-2.067.834-.467 1.79-.701 2.867-.701.556 0 1.084.056 1.584.167.511.111.95.283 1.317.517l-.634 1.3a2.678 2.678 0 0 0-1.033-.433 5.927 5.927 0 0 0-1.2-.117c-1.19 0-2.134.372-2.834 1.117-.7.733-1.05 1.828-1.05 3.284 0 .233.01.511.033.833.022.323.078.639.167.95l-.567-.566c.166-.512.428-.939.783-1.284.367-.356.8-.617 1.3-.783a4.985 4.985 0 0 1 1.65-.267c.779 0 1.468.144 2.068.433.6.289 1.072.7 1.417 1.234.344.522.517 1.145.517 1.867 0 .744-.184 1.395-.55 1.95a3.623 3.623 0 0 1-1.484 1.284c-.623.3-1.323.45-2.1.45Zm-.066-1.35c.511 0 .956-.095 1.333-.284.39-.189.695-.45.917-.783.222-.345.334-.745.334-1.2 0-.689-.24-1.234-.717-1.634-.478-.411-1.128-.617-1.95-.617-.534 0-1 .1-1.4.3-.4.2-.718.473-.951.817a2.025 2.025 0 0 0-.333 1.15c0 .4.105.773.316 1.117.212.333.523.606.934.817.411.211.917.317 1.517.317Zm10.221 1.35c-.911 0-1.728-.234-2.45-.7-.711-.467-1.278-1.145-1.7-2.034-.411-.889-.617-1.967-.617-3.234s.206-2.345.617-3.234c.422-.889.989-1.567 1.7-2.033.722-.467 1.539-.701 2.45-.701.901 0 1.712.234 2.434.701.723.466 1.289 1.144 1.7 2.033.412.889.617 1.967.617 3.234s-.205 2.345-.617 3.234c-.411.889-.977 1.567-1.7 2.034-.722.466-1.533.7-2.434.7Zm0-1.484c.612 0 1.145-.166 1.601-.5.466-.333.828-.833 1.083-1.5.267-.667.4-1.495.4-2.484 0-.989-.133-1.817-.4-2.484-.255-.666-.617-1.167-1.083-1.5-.456-.333-.989-.5-1.601-.5-.611 0-1.15.167-1.617.5-.466.333-.833.834-1.1 1.5-.255.667-.383 1.495-.383 2.484 0 .989.128 1.817.383 2.484.267.667.634 1.167 1.1 1.5.467.334 1.006.5 1.617.5Zm15.596 1.484c-.912 0-1.728-.234-2.451-.7-.711-.467-1.278-1.145-1.7-2.034-.411-.889-.617-1.967-.617-3.234s.206-2.345.617-3.234c.422-.889.989-1.567 1.7-2.033.723-.467 1.539-.701 2.451-.701.9 0 1.711.234 2.433.701.723.466 1.29 1.144 1.701 2.033.411.889.616 1.967.616 3.234s-.205 2.345-.616 3.234c-.411.889-.978 1.567-1.701 2.034a4.39 4.39 0 0 1-2.433.7Zm0-1.484c.611 0 1.144-.166 1.6-.5.467-.333.828-.833 1.083-1.5.267-.667.401-1.495.401-2.484 0-.989-.134-1.817-.401-2.484-.255-.666-.616-1.167-1.083-1.5-.456-.333-.989-.5-1.6-.5a2.71 2.71 0 0 0-1.617.5c-.467.333-.834.834-1.101 1.5-.255.667-.383 1.495-.383 2.484 0 .989.128 1.817.383 2.484.267.667.634 1.167 1.101 1.5.466.334 1.005.5 1.617.5Zm11.118 1.484c-.911 0-1.728-.234-2.45-.7-.712-.467-1.278-1.145-1.701-2.034-.411-.889-.616-1.967-.616-3.234s.205-2.345.616-3.234c.423-.889.989-1.567 1.701-2.033.722-.467 1.539-.701 2.45-.701.9 0 1.712.234 2.434.701.722.466 1.289 1.144 1.7 2.033.411.889.617 1.967.617 3.234s-.206 2.345-.617 3.234c-.411.889-.978 1.567-1.7 2.034-.722.466-1.534.7-2.434.7Zm0-1.484c.611 0 1.145-.166 1.6-.5.467-.333.828-.833 1.084-1.5.267-.667.4-1.495.4-2.484 0-.989-.133-1.817-.4-2.484-.256-.666-.617-1.167-1.084-1.5-.455-.333-.989-.5-1.6-.5-.611 0-1.15.167-1.617.5-.467.333-.833.834-1.1 1.5-.256.667-.383 1.495-.383 2.484 0 .989.127 1.817.383 2.484.267.667.633 1.167 1.1 1.5.467.334 1.006.5 1.617.5Zm11.119 1.484c-.912 0-1.728-.234-2.451-.7-.711-.467-1.278-1.145-1.7-2.034-.411-.889-.617-1.967-.617-3.234s.206-2.345.617-3.234c.422-.889.989-1.567 1.7-2.033.723-.467 1.539-.701 2.451-.701.9 0 1.711.234 2.433.701.723.466 1.29 1.144 1.701 2.033.411.889.617 1.967.617 3.234s-.206 2.345-.617 3.234c-.411.889-.978 1.567-1.701 2.034a4.39 4.39 0 0 1-2.433.7Zm0-1.484c.611 0 1.144-.166 1.6-.5.467-.333.828-.833 1.083-1.5.267-.667.401-1.495.401-2.484 0-.989-.134-1.817-.401-2.484-.255-.666-.616-1.167-1.083-1.5-.456-.333-.989-.5-1.6-.5a2.71 2.71 0 0 0-1.617.5c-.467.333-.834.834-1.1 1.5-.256.667-.384 1.495-.384 2.484 0 .989.128 1.817.384 2.484.266.667.633 1.167 1.1 1.5.466.334 1.005.5 1.617.5ZM90.257 214.43a7.63 7.63 0 0 1-2.4-.384c-.767-.255-1.395-.6-1.884-1.033l.767-1.317c.389.367.894.667 1.517.9a5.61 5.61 0 0 0 1.983.35c.89 0 1.573-.189 2.05-.567.478-.377.717-.883.717-1.517a2.02 2.02 0 0 0-.316-1.133c-.211-.322-.578-.567-1.1-.734-.512-.177-1.217-.266-2.117-.266h-2.651l.617-6.101h6.584v1.45h-5.968l.867-.817-.483 4.818-.867-.801h2.25c1.167 0 2.107.15 2.818.451.71.3 1.228.716 1.55 1.25.322.522.483 1.128.483 1.817 0 .667-.16 1.278-.483 1.833-.322.545-.811.984-1.467 1.317-.645.323-1.467.484-2.467.484Zm10.572 0c-.911 0-1.728-.234-2.45-.7-.712-.467-1.278-1.145-1.7-2.034-.412-.889-.617-1.967-.617-3.234s.205-2.345.616-3.234c.423-.889.99-1.567 1.7-2.034.723-.466 1.54-.7 2.451-.7.9 0 1.712.234 2.434.7.722.467 1.289 1.145 1.7 2.034.411.889.617 1.967.617 3.234s-.206 2.345-.617 3.234c-.411.889-.978 1.567-1.7 2.034-.722.466-1.534.7-2.434.7Zm0-1.484c.611 0 1.145-.167 1.6-.5.467-.333.828-.833 1.084-1.5.267-.667.4-1.495.4-2.484 0-.989-.133-1.817-.4-2.484-.256-.667-.617-1.167-1.084-1.5-.455-.333-.989-.5-1.6-.5-.611 0-1.15.167-1.617.5-.467.333-.833.833-1.1 1.5-.256.667-.383 1.495-.383 2.484 0 .989.127 1.817.383 2.484.267.667.633 1.167 1.1 1.5.467.333 1.006.5 1.617.5Zm15.595 1.484c-.911 0-1.728-.234-2.45-.7-.711-.467-1.278-1.145-1.7-2.034-.412-.889-.617-1.967-.617-3.234s.205-2.345.617-3.234c.422-.889.989-1.567 1.7-2.034.722-.466 1.539-.7 2.45-.7.901 0 1.712.234 2.434.7.722.467 1.289 1.145 1.7 2.034.412.889.617 1.967.617 3.234s-.205 2.345-.617 3.234c-.411.889-.978 1.567-1.7 2.034-.722.466-1.533.7-2.434.7Zm0-1.484c.612 0 1.145-.167 1.601-.5.466-.333.828-.833 1.083-1.5.267-.667.4-1.495.4-2.484 0-.989-.133-1.817-.4-2.484-.255-.667-.617-1.167-1.083-1.5-.456-.333-.989-.5-1.601-.5-.611 0-1.15.167-1.617.5-.466.333-.833.833-1.1 1.5-.255.667-.383 1.495-.383 2.484 0 .989.128 1.817.383 2.484.267.667.634 1.167 1.1 1.5.467.333 1.006.5 1.617.5Zm11.119 1.484c-.911 0-1.728-.234-2.451-.7-.711-.467-1.278-1.145-1.7-2.034-.411-.889-.617-1.967-.617-3.234s.206-2.345.617-3.234c.422-.889.989-1.567 1.7-2.034.723-.466 1.54-.7 2.451-.7.9 0 1.711.234 2.434.7.722.467 1.289 1.145 1.7 2.034.411.889.617 1.967.617 3.234s-.206 2.345-.617 3.234c-.411.889-.978 1.567-1.7 2.034-.723.466-1.534.7-2.434.7Zm0-1.484c.611 0 1.145-.167 1.6-.5.467-.333.828-.833 1.084-1.5.266-.667.4-1.495.4-2.484 0-.989-.134-1.817-.4-2.484-.256-.667-.617-1.167-1.084-1.5-.455-.333-.989-.5-1.6-.5-.611 0-1.15.167-1.617.5-.467.333-.834.833-1.1 1.5-.256.667-.384 1.495-.384 2.484 0 .989.128 1.817.384 2.484.266.667.633 1.167 1.1 1.5.467.333 1.006.5 1.617.5Zm11.118 1.484c-.911 0-1.728-.234-2.45-.7-.711-.467-1.278-1.145-1.7-2.034-.412-.889-.617-1.967-.617-3.234s.205-2.345.617-3.234c.422-.889.989-1.567 1.7-2.034.722-.466 1.539-.7 2.45-.7.901 0 1.712.234 2.434.7.723.467 1.289 1.145 1.7 2.034.412.889.617 1.967.617 3.234s-.205 2.345-.617 3.234c-.411.889-.977 1.567-1.7 2.034-.722.466-1.533.7-2.434.7Zm0-1.484c.612 0 1.145-.167 1.601-.5.466-.333.828-.833 1.083-1.5.267-.667.4-1.495.4-2.484 0-.989-.133-1.817-.4-2.484-.255-.667-.617-1.167-1.083-1.5-.456-.333-.989-.5-1.601-.5-.611 0-1.15.167-1.617.5-.466.333-.833.833-1.1 1.5-.255.667-.383 1.495-.383 2.484 0 .989.128 1.817.383 2.484.267.667.634 1.167 1.1 1.5.467.333 1.006.5 1.617.5ZM85.132 263.788v-1.167l5.968-7.634h1.8l-5.917 7.634-.85-.266h9.318v1.433H85.132Zm6.485 2.868v-2.868l.05-1.433v-2.534h1.567v6.835h-1.617Zm9.601.133c-.912 0-1.728-.234-2.45-.7-.712-.467-1.279-1.145-1.701-2.034-.411-.889-.617-1.967-.617-3.234s.206-2.345.617-3.234c.422-.889.99-1.567 1.7-2.033.723-.467 1.539-.701 2.451-.701.9 0 1.711.234 2.434.701.722.466 1.289 1.144 1.7 2.033.411.889.617 1.967.617 3.234s-.206 2.345-.617 3.234c-.411.889-.978 1.567-1.7 2.034-.723.466-1.534.7-2.434.7Zm0-1.484c.611 0 1.144-.166 1.6-.5.467-.333.828-.833 1.084-1.5.266-.667.4-1.495.4-2.484 0-.989-.134-1.817-.4-2.484-.256-.666-.617-1.167-1.084-1.5-.456-.333-.989-.5-1.6-.5-.611 0-1.15.167-1.617.5-.467.333-.834.834-1.1 1.5-.256.667-.384 1.495-.384 2.484 0 .989.128 1.817.384 2.484.266.667.633 1.167 1.1 1.5.467.334 1.006.5 1.617.5Zm15.595 1.484c-.911 0-1.728-.234-2.45-.7-.712-.467-1.278-1.145-1.701-2.034-.411-.889-.617-1.967-.617-3.234s.206-2.345.617-3.234c.423-.889.989-1.567 1.701-2.033.722-.467 1.539-.701 2.45-.701.9 0 1.711.234 2.434.701.722.466 1.289 1.144 1.7 2.033.411.889.617 1.967.617 3.234s-.206 2.345-.617 3.234c-.411.889-.978 1.567-1.7 2.034-.723.466-1.534.7-2.434.7Zm0-1.484c.611 0 1.145-.166 1.6-.5.467-.333.828-.833 1.084-1.5.267-.667.4-1.495.4-2.484 0-.989-.133-1.817-.4-2.484-.256-.666-.617-1.167-1.084-1.5-.455-.333-.989-.5-1.6-.5-.611 0-1.15.167-1.617.5-.467.333-.833.834-1.1 1.5-.256.667-.384 1.495-.384 2.484 0 .989.128 1.817.384 2.484.267.667.633 1.167 1.1 1.5.467.334 1.006.5 1.617.5Zm11.118 1.484c-.911 0-1.728-.234-2.45-.7-.711-.467-1.278-1.145-1.7-2.034-.411-.889-.617-1.967-.617-3.234s.206-2.345.617-3.234c.422-.889.989-1.567 1.7-2.033.722-.467 1.539-.701 2.45-.701.901 0 1.712.234 2.434.701.723.466 1.289 1.144 1.701 2.033.411.889.616 1.967.616 3.234s-.205 2.345-.616 3.234c-.412.889-.978 1.567-1.701 2.034-.722.466-1.533.7-2.434.7Zm0-1.484c.612 0 1.145-.166 1.601-.5.467-.333.828-.833 1.083-1.5.267-.667.4-1.495.4-2.484 0-.989-.133-1.817-.4-2.484-.255-.666-.616-1.167-1.083-1.5-.456-.333-.989-.5-1.601-.5a2.71 2.71 0 0 0-1.616.5c-.467.333-.834.834-1.101 1.5-.255.667-.383 1.495-.383 2.484 0 .989.128 1.817.383 2.484.267.667.634 1.167 1.101 1.5.466.334 1.005.5 1.616.5Zm11.119 1.484c-.911 0-1.728-.234-2.45-.7-.712-.467-1.278-1.145-1.701-2.034-.411-.889-.617-1.967-.617-3.234s.206-2.345.617-3.234c.423-.889.989-1.567 1.701-2.033.722-.467 1.539-.701 2.45-.701.9 0 1.711.234 2.434.701.722.466 1.289 1.144 1.7 2.033.411.889.617 1.967.617 3.234s-.206 2.345-.617 3.234c-.411.889-.978 1.567-1.7 2.034-.723.466-1.534.7-2.434.7Zm0-1.484c.611 0 1.145-.166 1.6-.5.467-.333.828-.833 1.084-1.5.267-.667.4-1.495.4-2.484 0-.989-.133-1.817-.4-2.484-.256-.666-.617-1.167-1.084-1.5-.455-.333-.989-.5-1.6-.5-.611 0-1.15.167-1.617.5-.467.333-.833.834-1.1 1.5-.256.667-.384 1.495-.384 2.484 0 .989.128 1.817.384 2.484.267.667.633 1.167 1.1 1.5.467.334 1.006.5 1.617.5ZM90.057 319.148a7.658 7.658 0 0 1-2.4-.383c-.767-.256-1.395-.6-1.884-1.034l.767-1.317c.389.367.894.667 1.516.901a5.66 5.66 0 0 0 2 .35c.868 0 1.54-.184 2.018-.55.489-.378.733-.884.733-1.517 0-.612-.233-1.101-.7-1.467-.455-.378-1.183-.567-2.183-.567h-.934v-1.167l3.467-4.267.234.666h-6.385v-1.45h7.702v1.134l-3.451 4.25-.867-.516h.55c1.412 0 2.467.316 3.168.95.71.633 1.066 1.439 1.066 2.417 0 .656-.16 1.256-.483 1.8-.322.545-.811.978-1.467 1.3-.645.312-1.467.467-2.467.467Zm10.74 0c-.912 0-1.728-.233-2.45-.7-.712-.467-1.279-1.145-1.701-2.034-.411-.889-.617-1.967-.617-3.233 0-1.267.206-2.345.617-3.234.422-.889.989-1.567 1.7-2.034.722-.467 1.54-.7 2.451-.7.9 0 1.711.233 2.433.7.723.467 1.289 1.145 1.701 2.034.411.889.616 1.967.616 3.234 0 1.266-.205 2.344-.616 3.233-.412.889-.978 1.567-1.701 2.034-.722.467-1.533.7-2.433.7Zm0-1.483c.611 0 1.144-.167 1.6-.5.467-.334.828-.834 1.083-1.501.267-.666.4-1.494.4-2.483 0-.99-.133-1.817-.4-2.484-.255-.667-.616-1.167-1.083-1.501-.456-.333-.989-.5-1.6-.5-.612 0-1.15.167-1.617.5-.467.334-.834.834-1.1 1.501-.256.667-.384 1.494-.384 2.484 0 .989.128 1.817.383 2.483.267.667.634 1.167 1.1 1.501.467.333 1.006.5 1.618.5Zm15.595 1.483c-.911 0-1.728-.233-2.451-.7-.711-.467-1.278-1.145-1.7-2.034-.411-.889-.617-1.967-.617-3.233 0-1.267.206-2.345.617-3.234.422-.889.989-1.567 1.7-2.034.723-.467 1.54-.7 2.451-.7.9 0 1.711.233 2.434.7.722.467 1.289 1.145 1.7 2.034.411.889.617 1.967.617 3.234 0 1.266-.206 2.344-.617 3.233-.411.889-.978 1.567-1.7 2.034-.723.467-1.534.7-2.434.7Zm0-1.483c.611 0 1.144-.167 1.6-.5.467-.334.828-.834 1.084-1.501.266-.666.4-1.494.4-2.483 0-.99-.134-1.817-.4-2.484-.256-.667-.617-1.167-1.084-1.501-.456-.333-.989-.5-1.6-.5-.611 0-1.15.167-1.617.5-.467.334-.834.834-1.1 1.501-.256.667-.384 1.494-.384 2.484 0 .989.128 1.817.384 2.483.266.667.633 1.167 1.1 1.501.467.333 1.006.5 1.617.5Zm11.118 1.483c-.911 0-1.728-.233-2.45-.7-.711-.467-1.278-1.145-1.7-2.034-.412-.889-.617-1.967-.617-3.233 0-1.267.205-2.345.617-3.234.422-.889.989-1.567 1.7-2.034.722-.467 1.539-.7 2.45-.7.9 0 1.712.233 2.434.7.722.467 1.289 1.145 1.7 2.034.412.889.617 1.967.617 3.234 0 1.266-.205 2.344-.617 3.233-.411.889-.978 1.567-1.7 2.034-.722.467-1.534.7-2.434.7Zm0-1.483c.612 0 1.145-.167 1.601-.5.466-.334.828-.834 1.083-1.501.267-.666.4-1.494.4-2.483 0-.99-.133-1.817-.4-2.484-.255-.667-.617-1.167-1.083-1.501-.456-.333-.989-.5-1.601-.5-.611 0-1.15.167-1.617.5-.466.334-.833.834-1.1 1.501-.255.667-.383 1.494-.383 2.484 0 .989.128 1.817.383 2.483.267.667.634 1.167 1.1 1.501.467.333 1.006.5 1.617.5Zm11.119 1.483c-.911 0-1.728-.233-2.451-.7-.711-.467-1.278-1.145-1.7-2.034-.411-.889-.617-1.967-.617-3.233 0-1.267.206-2.345.617-3.234.422-.889.989-1.567 1.7-2.034.723-.467 1.54-.7 2.451-.7.9 0 1.711.233 2.434.7.722.467 1.289 1.145 1.7 2.034.411.889.617 1.967.617 3.234 0 1.266-.206 2.344-.617 3.233-.411.889-.978 1.567-1.7 2.034-.723.467-1.534.7-2.434.7Zm0-1.483c.611 0 1.144-.167 1.6-.5.467-.334.828-.834 1.084-1.501.266-.666.4-1.494.4-2.483 0-.99-.134-1.817-.4-2.484-.256-.667-.617-1.167-1.084-1.501-.456-.333-.989-.5-1.6-.5-.611 0-1.15.167-1.617.5-.467.334-.834.834-1.1 1.501-.256.667-.384 1.494-.384 2.484 0 .989.128 1.817.384 2.483.266.667.633 1.167 1.1 1.501.467.333 1.006.5 1.617.5ZM86.306 371.374v-1.134l4.751-4.584c.422-.4.733-.75.934-1.05.21-.311.35-.595.416-.85.078-.267.117-.523.117-.767 0-.6-.211-1.072-.633-1.417-.423-.344-1.04-.517-1.85-.517-.623 0-1.184.106-1.684.317-.5.2-.934.517-1.3.95l-1.134-.983c.444-.567 1.039-1.001 1.784-1.301.755-.311 1.583-.466 2.483-.466.811 0 1.517.133 2.117.4.6.255 1.062.628 1.384 1.117.333.489.5 1.066.5 1.733 0 .378-.05.75-.15 1.117-.1.367-.289.756-.567 1.167-.278.411-.678.872-1.2 1.384l-4.234 4.084-.4-.65h7.051v1.45h-8.385Zm14.507.133c-.911 0-1.728-.233-2.45-.7-.712-.467-1.279-1.145-1.7-2.034-.412-.889-.618-1.967-.618-3.234 0-1.266.206-2.344.617-3.234.422-.889.99-1.566 1.7-2.033.723-.467 1.54-.7 2.451-.7.9 0 1.711.233 2.434.7.722.467 1.289 1.144 1.7 2.033.411.89.617 1.968.617 3.234 0 1.267-.206 2.345-.617 3.234-.411.889-.978 1.567-1.7 2.034-.723.467-1.534.7-2.434.7Zm0-1.483c.611 0 1.144-.167 1.6-.501.467-.333.828-.833 1.084-1.5.266-.667.4-1.495.4-2.484 0-.989-.134-1.817-.4-2.483-.256-.667-.617-1.167-1.084-1.501-.456-.333-.989-.5-1.6-.5-.611 0-1.15.167-1.617.5-.467.334-.834.834-1.1 1.501-.256.666-.384 1.494-.384 2.483 0 .989.128 1.817.384 2.484.266.667.633 1.167 1.1 1.5a2.708 2.708 0 0 0 1.617.501Zm15.595 1.483c-.911 0-1.728-.233-2.45-.7-.712-.467-1.278-1.145-1.701-2.034-.411-.889-.616-1.967-.616-3.234 0-1.266.205-2.344.616-3.234.423-.889.989-1.566 1.701-2.033.722-.467 1.539-.7 2.45-.7.9 0 1.711.233 2.434.7.722.467 1.289 1.144 1.7 2.033.411.89.617 1.968.617 3.234 0 1.267-.206 2.345-.617 3.234-.411.889-.978 1.567-1.7 2.034-.723.467-1.534.7-2.434.7Zm0-1.483c.611 0 1.145-.167 1.6-.501.467-.333.828-.833 1.084-1.5.267-.667.4-1.495.4-2.484 0-.989-.133-1.817-.4-2.483-.256-.667-.617-1.167-1.084-1.501-.455-.333-.989-.5-1.6-.5-.611 0-1.15.167-1.617.5-.467.334-.833.834-1.1 1.501-.256.666-.383 1.494-.383 2.483 0 .989.127 1.817.383 2.484.267.667.633 1.167 1.1 1.5a2.708 2.708 0 0 0 1.617.501Zm11.119 1.483c-.912 0-1.728-.233-2.451-.7-.711-.467-1.278-1.145-1.7-2.034-.411-.889-.617-1.967-.617-3.234 0-1.266.206-2.344.617-3.234.422-.889.989-1.566 1.7-2.033.723-.467 1.539-.7 2.451-.7.9 0 1.711.233 2.433.7.723.467 1.289 1.144 1.701 2.033.411.89.616 1.968.616 3.234 0 1.267-.205 2.345-.616 3.234-.412.889-.978 1.567-1.701 2.034-.722.467-1.533.7-2.433.7Zm0-1.483c.611 0 1.144-.167 1.6-.501.467-.333.828-.833 1.083-1.5.267-.667.4-1.495.4-2.484 0-.989-.133-1.817-.4-2.483-.255-.667-.616-1.167-1.083-1.501-.456-.333-.989-.5-1.6-.5a2.71 2.71 0 0 0-1.617.5c-.467.334-.834.834-1.101 1.501-.255.666-.383 1.494-.383 2.483 0 .989.128 1.817.383 2.484.267.667.634 1.167 1.101 1.5a2.704 2.704 0 0 0 1.617.501Zm11.118 1.483c-.911 0-1.728-.233-2.45-.7-.712-.467-1.278-1.145-1.701-2.034-.411-.889-.616-1.967-.616-3.234 0-1.266.205-2.344.616-3.234.423-.889.989-1.566 1.701-2.033.722-.467 1.539-.7 2.45-.7.9 0 1.712.233 2.434.7.722.467 1.289 1.144 1.7 2.033.411.89.617 1.968.617 3.234 0 1.267-.206 2.345-.617 3.234-.411.889-.978 1.567-1.7 2.034-.722.467-1.534.7-2.434.7Zm0-1.483c.611 0 1.145-.167 1.6-.501.467-.333.828-.833 1.084-1.5.267-.667.4-1.495.4-2.484 0-.989-.133-1.817-.4-2.483-.256-.667-.617-1.167-1.084-1.501-.455-.333-.989-.5-1.6-.5-.611 0-1.15.167-1.617.5-.467.334-.833.834-1.1 1.501-.256.666-.383 1.494-.383 2.483 0 .989.127 1.817.383 2.484.267.667.633 1.167 1.1 1.5a2.708 2.708 0 0 0 1.617.501ZM92.027 423.733v-11.002l.717.783h-3.35v-1.45h4.283v11.669h-1.65Zm8.97.133c-.911 0-1.728-.233-2.45-.7-.712-.467-1.278-1.145-1.7-2.034-.412-.889-.617-1.967-.617-3.233 0-1.267.205-2.345.616-3.234.423-.889.99-1.567 1.7-2.034.723-.467 1.54-.7 2.451-.7.9 0 1.712.233 2.434.7.722.467 1.289 1.145 1.7 2.034.411.889.617 1.967.617 3.234 0 1.266-.206 2.344-.617 3.233-.411.889-.978 1.567-1.7 2.034-.722.467-1.534.7-2.434.7Zm0-1.483c.611 0 1.145-.167 1.6-.5.467-.334.828-.834 1.084-1.501.267-.666.4-1.494.4-2.483 0-.99-.133-1.817-.4-2.484-.256-.667-.617-1.167-1.084-1.501-.455-.333-.989-.5-1.6-.5-.611 0-1.15.167-1.617.5-.467.334-.833.834-1.1 1.501-.256.667-.383 1.494-.383 2.484 0 .989.127 1.817.383 2.483.267.667.633 1.167 1.1 1.501.467.333 1.006.5 1.617.5Zm15.595 1.483c-.911 0-1.728-.233-2.45-.7-.711-.467-1.278-1.145-1.7-2.034-.412-.889-.617-1.967-.617-3.233 0-1.267.205-2.345.617-3.234.422-.889.989-1.567 1.7-2.034.722-.467 1.539-.7 2.45-.7.901 0 1.712.233 2.434.7.722.467 1.289 1.145 1.7 2.034.412.889.617 1.967.617 3.234 0 1.266-.205 2.344-.617 3.233-.411.889-.978 1.567-1.7 2.034-.722.467-1.533.7-2.434.7Zm0-1.483c.612 0 1.145-.167 1.601-.5.466-.334.828-.834 1.083-1.501.267-.666.4-1.494.4-2.483 0-.99-.133-1.817-.4-2.484-.255-.667-.617-1.167-1.083-1.501-.456-.333-.989-.5-1.601-.5-.611 0-1.15.167-1.617.5-.466.334-.833.834-1.1 1.501-.255.667-.383 1.494-.383 2.484 0 .989.128 1.817.383 2.483.267.667.634 1.167 1.1 1.501.467.333 1.006.5 1.617.5Zm11.119 1.483c-.911 0-1.728-.233-2.451-.7-.711-.467-1.278-1.145-1.7-2.034-.411-.889-.617-1.967-.617-3.233 0-1.267.206-2.345.617-3.234.422-.889.989-1.567 1.7-2.034.723-.467 1.54-.7 2.451-.7.9 0 1.711.233 2.434.7.722.467 1.289 1.145 1.7 2.034.411.889.617 1.967.617 3.234 0 1.266-.206 2.344-.617 3.233-.411.889-.978 1.567-1.7 2.034-.723.467-1.534.7-2.434.7Zm0-1.483c.611 0 1.145-.167 1.6-.5.467-.334.828-.834 1.084-1.501.266-.666.4-1.494.4-2.483 0-.99-.134-1.817-.4-2.484-.256-.667-.617-1.167-1.084-1.501-.455-.333-.989-.5-1.6-.5-.611 0-1.15.167-1.617.5-.467.334-.834.834-1.1 1.501-.256.667-.384 1.494-.384 2.484 0 .989.128 1.817.384 2.483.266.667.633 1.167 1.1 1.501.467.333 1.006.5 1.617.5Zm11.118 1.483c-.911 0-1.728-.233-2.45-.7-.711-.467-1.278-1.145-1.7-2.034-.412-.889-.617-1.967-.617-3.233 0-1.267.205-2.345.617-3.234.422-.889.989-1.567 1.7-2.034.722-.467 1.539-.7 2.45-.7.901 0 1.712.233 2.434.7.723.467 1.289 1.145 1.7 2.034.412.889.617 1.967.617 3.234 0 1.266-.205 2.344-.617 3.233-.411.889-.977 1.567-1.7 2.034-.722.467-1.533.7-2.434.7Zm0-1.483c.612 0 1.145-.167 1.601-.5.466-.334.828-.834 1.083-1.501.267-.666.4-1.494.4-2.483 0-.99-.133-1.817-.4-2.484-.255-.667-.617-1.167-1.083-1.501-.456-.333-.989-.5-1.601-.5-.611 0-1.15.167-1.617.5-.466.334-.833.834-1.1 1.501-.255.667-.383 1.494-.383 2.484 0 .989.128 1.817.383 2.483.267.667.634 1.167 1.1 1.501.467.333 1.006.5 1.617.5ZM138.863 464.325c-.912 0-1.729-.233-2.451-.7-.711-.467-1.278-1.145-1.7-2.034-.411-.889-.617-1.967-.617-3.233 0-1.267.206-2.345.617-3.234.422-.889.989-1.567 1.7-2.034.722-.467 1.539-.7 2.451-.7.9 0 1.711.233 2.433.7.723.467 1.289 1.145 1.701 2.034.411.889.616 1.967.616 3.234 0 1.266-.205 2.344-.616 3.233-.412.889-.978 1.567-1.701 2.034-.722.467-1.533.7-2.433.7Zm0-1.483c.611 0 1.144-.167 1.6-.5.467-.334.828-.834 1.083-1.501.267-.666.4-1.494.4-2.483 0-.99-.133-1.817-.4-2.484-.255-.667-.616-1.167-1.083-1.501-.456-.333-.989-.5-1.6-.5a2.71 2.71 0 0 0-1.617.5c-.467.334-.834.834-1.101 1.501-.255.667-.383 1.494-.383 2.484 0 .989.128 1.817.383 2.483.267.667.634 1.167 1.101 1.501a2.71 2.71 0 0 0 1.617.5Z" fill="#000" fill-opacity=".75"/><path d="m47.704 342.565-5.75 4.235-.834-1.351 6.584-4.784v1.9Zm0 7.852H36.035v-1.634h11.67v1.634Zm-5.134-1.134h-1.467v-3.784h1.467v3.784Zm-.517-3.984-.233 1.534-5.785-4.184v-1.784l6.018 4.434Zm5.751-9.746c0 .889-.194 1.678-.583 2.367a4.344 4.344 0 0 1-1.6 1.634c-.69.4-1.468.6-2.334.6-.878 0-1.656-.2-2.334-.6a4.22 4.22 0 0 1-1.584-1.634c-.389-.689-.583-1.478-.583-2.367 0-.878.194-1.661.583-2.35.378-.7.906-1.245 1.584-1.634.667-.4 1.445-.6 2.334-.6.878 0 1.656.2 2.333.6a4.192 4.192 0 0 1 1.6 1.634c.39.689.584 1.472.584 2.35Zm-1.4 0c0-.567-.128-1.072-.384-1.517a2.713 2.713 0 0 0-1.083-1.067c-.478-.255-1.028-.383-1.65-.383-.634 0-1.178.128-1.634.383a2.713 2.713 0 0 0-1.084 1.067c-.255.445-.383.95-.383 1.517s.128 1.073.383 1.517c.256.445.617.8 1.084 1.067.456.267 1 .4 1.634.4.622 0 1.172-.133 1.65-.4a2.854 2.854 0 0 0 1.084-1.067c.255-.444.383-.95.383-1.517Zm1.283-5.363-1.35-.1.033-.216a1.13 1.13 0 0 0 .017-.184c0-.355-.122-.633-.367-.833-.244-.211-.566-.367-.966-.467a9.352 9.352 0 0 0-1.384-.217 35.867 35.867 0 0 0-1.534-.1l-3.267-.15v-6.784h8.835v1.6h-7.901l.466-.383v4.534l-.483-.367 2.45.117c.778.033 1.506.094 2.184.183a8.263 8.263 0 0 1 1.784.417c.511.178.911.428 1.2.75.289.311.433.717.433 1.217 0 .144-.016.3-.05.466a5.901 5.901 0 0 1-.1.517Zm.017-12.146H38.87v-1.6h6.435l-6.435-5.418v-1.45h8.835v1.6H41.27l6.434 5.401v1.467Zm-3.617-17.142c.222.467.4.951.533 1.451.123.489.184.994.184 1.517 0 1.066-.25 1.911-.75 2.533-.5.612-1.273.917-2.318.917H38.87v-1.6h2.767c.634 0 1.1-.195 1.4-.584.3-.4.45-.933.45-1.6a5.35 5.35 0 0 0-.166-1.3 7.312 7.312 0 0 0-.467-1.334h1.234Zm3.617.117H38.87v-1.6h8.835v1.6Zm.1-8.641c0 .945-.194 1.778-.583 2.5a4.273 4.273 0 0 1-1.6 1.667c-.678.389-1.456.584-2.334.584-.878 0-1.656-.189-2.334-.567a4.167 4.167 0 0 1-1.584-1.584c-.389-.678-.583-1.439-.583-2.283 0-.856.189-1.612.567-2.267a3.943 3.943 0 0 1 1.6-1.534c.678-.378 1.472-.567 2.384-.567.066 0 .144.006.233.017.089 0 .172.005.25.017v7.518h-1.15v-6.685l.4.65c-.567-.011-1.072.106-1.517.35a2.606 2.606 0 0 0-1.033 1.017c-.256.422-.384.917-.384 1.484 0 .555.128 1.05.383 1.483.245.434.595.773 1.05 1.017.445.245.956.367 1.534.367h.267c.589 0 1.117-.134 1.584-.4a2.881 2.881 0 0 0 1.066-1.15c.256-.489.384-1.051.384-1.684 0-.522-.089-.995-.267-1.417a3.117 3.117 0 0 0-.8-1.134l1.033-.883c.467.4.823.9 1.067 1.5.245.589.367 1.25.367 1.984Zm0-10.384c0 .9-.194 1.706-.583 2.417-.39.7-.923 1.25-1.6 1.65-.678.4-1.456.6-2.334.6-.878 0-1.656-.2-2.334-.6a4.189 4.189 0 0 1-1.584-1.65c-.389-.711-.583-1.517-.583-2.417 0-.8.161-1.511.483-2.134a3.313 3.313 0 0 1 1.4-1.467l.784 1.217c-.433.289-.75.645-.95 1.067a2.878 2.878 0 0 0-.317 1.334c0 .577.128 1.094.383 1.55.256.455.617.817 1.084 1.083.456.267 1 .4 1.634.4.633 0 1.183-.133 1.65-.4a2.818 2.818 0 0 0 1.084-1.083c.255-.456.383-.973.383-1.55 0-.478-.1-.923-.3-1.334a2.766 2.766 0 0 0-.967-1.067l.767-1.217a3.542 3.542 0 0 1 1.417 1.467c.322.623.483 1.334.483 2.134Zm-.1-7.309h-7.851l.416-.4v3.634h-1.4v-8.068h1.4v3.617l-.416-.383h7.851v1.6Zm0-6.47H38.87v-4.101c0-1.034.2-1.845.6-2.434.39-.6.945-.9 1.667-.9.723 0 1.284.283 1.684.85.389.556.583 1.295.583 2.217l-.433-.25c0-1.056.194-1.839.583-2.35.39-.512.962-.767 1.717-.767.767 0 1.367.289 1.8.867.423.566.634 1.439.634 2.617v4.251Zm-1.233-1.567v-2.568c0-.666-.1-1.166-.3-1.5-.212-.333-.545-.5-1-.5-.467 0-.806.156-1.017.467-.223.3-.334.778-.334 1.433v2.668h2.65Zm-3.801 0v-2.401c0-.611-.111-1.072-.334-1.383-.233-.323-.555-.484-.966-.484-.423 0-.74.161-.95.484-.212.311-.317.772-.317 1.383v2.401h2.567Zm5.134-12.457c0 .889-.194 1.678-.583 2.367a4.344 4.344 0 0 1-1.6 1.634c-.69.4-1.468.6-2.334.6-.878 0-1.656-.2-2.334-.6a4.22 4.22 0 0 1-1.584-1.634c-.389-.689-.583-1.478-.583-2.367 0-.878.194-1.661.583-2.35.378-.7.906-1.245 1.584-1.634.667-.4 1.445-.6 2.334-.6.878 0 1.656.2 2.333.6a4.192 4.192 0 0 1 1.6 1.634c.39.689.584 1.472.584 2.35Zm-1.4 0c0-.567-.128-1.072-.384-1.517a2.706 2.706 0 0 0-1.083-1.067c-.478-.255-1.028-.383-1.65-.383-.634 0-1.178.128-1.634.383a2.707 2.707 0 0 0-1.084 1.067c-.255.445-.383.95-.383 1.517s.128 1.072.383 1.517c.256.445.617.8 1.084 1.067.456.267 1 .4 1.634.4.622 0 1.172-.133 1.65-.4a2.854 2.854 0 0 0 1.084-1.067c.255-.445.383-.95.383-1.517Zm-.1-17.239.417.366h-7.852v-1.6h7.852l-.417.4v-4.667l.417.383h-7.852v-1.6h8.835v12.585H38.87v-1.6h7.852l-.417.383v-4.65Zm1.4-16.227-4.3 3.418-.8-1.317 5.1-3.984v1.883Zm0 6.401H38.87v-1.6h8.835v1.6Zm-3.734-1.116h-1.367v-2.918h1.367v2.918Zm-.5-3.318-.2 1.484-4.4-3.384v-1.717l4.6 3.617Zm4.334-9.019c0 .889-.194 1.678-.583 2.367a4.341 4.341 0 0 1-1.6 1.633c-.69.401-1.468.601-2.334.601-.878 0-1.656-.2-2.334-.601a4.218 4.218 0 0 1-1.584-1.633c-.389-.689-.583-1.478-.583-2.367 0-.878.194-1.662.583-2.351.378-.7.906-1.244 1.584-1.633.667-.4 1.445-.6 2.334-.6.878 0 1.656.2 2.333.6a4.189 4.189 0 0 1 1.6 1.633c.39.689.584 1.473.584 2.351Zm-1.4 0c0-.567-.128-1.073-.384-1.517a2.706 2.706 0 0 0-1.083-1.067c-.478-.256-1.028-.383-1.65-.383-.634 0-1.178.127-1.634.383a2.707 2.707 0 0 0-1.084 1.067c-.255.444-.383.95-.383 1.517s.128 1.072.383 1.517c.256.444.617.8 1.084 1.067.456.266 1 .4 1.634.4.622 0 1.172-.134 1.65-.4a2.861 2.861 0 0 0 1.084-1.067c.255-.445.383-.95.383-1.517Zm1.283-5.363-1.35-.1.033-.217c.012-.067.017-.128.017-.183 0-.356-.122-.634-.367-.834-.244-.211-.566-.366-.966-.466a9.098 9.098 0 0 0-1.384-.217 34.308 34.308 0 0 0-1.534-.1l-3.267-.15v-6.785h8.835v1.6h-7.901l.466-.383v4.534l-.483-.366 2.45.116c.778.034 1.506.095 2.184.184a8.207 8.207 0 0 1 1.784.416c.511.178.911.428 1.2.75.289.312.433.717.433 1.217 0 .145-.016.3-.05.467a5.901 5.901 0 0 1-.1.517Zm-5.817-16.23c.01-1.123.266-1.978.767-2.567.5-.589 1.205-.884 2.117-.884.955 0 1.694.323 2.217.967.51.645.76 1.556.75 2.734l-.017 3.834H38.87v-1.6h2.984l.017-2.484Zm4.634.383c.011-.722-.133-1.267-.433-1.633-.3-.378-.745-.567-1.334-.567-.578 0-1 .183-1.267.55-.267.367-.406.917-.417 1.65l-.033 2.101h3.467l.017-2.101Zm1.2-5.887H38.87v-1.601h3.75v-5.034h-3.75v-1.6h8.835v1.6h-3.7v5.034h3.7v1.601Zm0-11.347H38.87v-1.6h6.435l-6.435-5.418v-1.45h8.835v1.6H41.27l6.434 5.401v1.467Zm0-17.975-4.3 3.417-.8-1.317 5.1-3.984v1.884Zm0 6.401H38.87v-1.6h8.835v1.6Zm-3.734-1.117h-1.367v-2.917h1.367v2.917Zm-.5-3.317-.2 1.483-4.4-3.384v-1.717l4.6 3.618Zm4.334-9.02c0 .889-.194 1.678-.583 2.367a4.344 4.344 0 0 1-1.6 1.634c-.69.4-1.468.6-2.334.6-.878 0-1.656-.2-2.334-.6a4.22 4.22 0 0 1-1.584-1.634c-.389-.689-.583-1.478-.583-2.367 0-.878.194-1.661.583-2.35.378-.7.906-1.245 1.584-1.634.667-.4 1.445-.6 2.334-.6.878 0 1.656.2 2.333.6a4.192 4.192 0 0 1 1.6 1.634c.39.689.584 1.472.584 2.35Zm-1.4 0c0-.567-.128-1.072-.384-1.517a2.713 2.713 0 0 0-1.083-1.067c-.478-.255-1.028-.383-1.65-.383-.634 0-1.178.128-1.634.383a2.713 2.713 0 0 0-1.084 1.067c-.255.445-.383.95-.383 1.517s.128 1.073.383 1.517c.256.445.617.8 1.084 1.067.456.267 1 .4 1.634.4.622 0 1.172-.133 1.65-.4a2.854 2.854 0 0 0 1.084-1.067c.255-.444.383-.95.383-1.517Zm1.3-6.895H38.87v-4.101c0-1.033.2-1.844.6-2.433.39-.6.945-.9 1.667-.9.723 0 1.284.283 1.684.85.389.555.583 1.294.583 2.217l-.433-.25c0-1.056.194-1.84.583-2.351.39-.511.962-.767 1.717-.767.767 0 1.367.289 1.8.867.423.567.634 1.439.634 2.617v4.251Zm-1.233-1.567v-2.567c0-.667-.1-1.167-.3-1.5-.212-.334-.545-.5-1-.5-.467 0-.806.155-1.017.467-.223.3-.334.777-.334 1.433v2.667h2.65Zm-3.801 0v-2.4c0-.611-.111-1.073-.334-1.384-.233-.322-.555-.483-.966-.483-.423 0-.74.161-.95.483-.212.311-.317.773-.317 1.384v2.4h2.567ZM386.23 536.781v-11.669h7.651l-.016 1.45h-6.401l.4-.416.016 10.635h-1.65Zm10.664.1c-.889 0-1.678-.195-2.367-.584a4.342 4.342 0 0 1-1.634-1.6c-.4-.689-.6-1.467-.6-2.334 0-.878.2-1.656.6-2.333.4-.678.945-1.206 1.634-1.584.689-.389 1.478-.583 2.367-.583.878 0 1.661.194 2.35.583.7.378 1.245.906 1.634 1.584.4.666.6 1.444.6 2.333 0 .878-.2 1.656-.6 2.334a4.19 4.19 0 0 1-1.634 1.6c-.689.389-1.472.584-2.35.584Zm0-1.4c.567 0 1.072-.128 1.517-.384a2.712 2.712 0 0 0 1.067-1.083c.255-.478.383-1.028.383-1.651 0-.633-.128-1.178-.383-1.633a2.715 2.715 0 0 0-1.067-1.084 2.995 2.995 0 0 0-1.517-.383c-.567 0-1.073.128-1.517.383-.445.256-.8.617-1.067 1.084-.267.455-.4 1-.4 1.633 0 .623.133 1.173.4 1.651.267.466.622.828 1.067 1.083.444.256.95.384 1.517.384Zm12.864.55v-6.685h-3.834l-.083 1.7a24.094 24.094 0 0 1-.117 1.617 8.713 8.713 0 0 1-.233 1.417c-.1.434-.25.789-.45 1.067-.2.278-.467.45-.801.517l-1.583-.283c.344.011.622-.101.833-.334.211-.244.373-.578.484-1 .122-.422.211-.9.266-1.434.056-.544.1-1.105.134-1.683l.133-2.984h6.851v8.085h-1.6Zm-7.451 2.8v-3.45h10.402v3.45h-1.501v-2.05h-7.384v2.05h-1.517Zm21.221-2.05v-8.835h1.601v8.835h-1.601Zm-4.751-5.835c1.123.012 1.973.267 2.551.767.589.5.883 1.206.883 2.117 0 .956-.322 1.695-.966 2.217-.634.511-1.545.762-2.734.75l-3.718-.016v-8.835h1.601v2.984l2.383.016Zm-.383 4.635c.711.011 1.256-.134 1.634-.434.377-.3.566-.744.566-1.333 0-.578-.189-1.001-.566-1.267-.367-.267-.912-.406-1.634-.417l-2-.033v3.467l2 .017Z" fill="#B0BFE3"/><path d="M256.495 484.422v-1.134l4.751-4.584c.422-.4.733-.75.933-1.05.211-.311.35-.595.417-.85.078-.267.116-.523.116-.767 0-.6-.211-1.073-.633-1.417-.422-.345-1.039-.517-1.85-.517-.623 0-1.184.106-1.684.317-.5.2-.933.517-1.3.95l-1.134-.983c.445-.567 1.039-1.001 1.784-1.301.756-.311 1.584-.466 2.484-.466.811 0 1.517.133 2.117.4.6.255 1.061.627 1.383 1.116.334.489.5 1.067.5 1.734 0 .378-.05.75-.15 1.117-.1.367-.289.756-.566 1.167-.278.411-.678.872-1.201 1.383l-4.234 4.084-.4-.65h7.052v1.451h-8.385Zm14.506.133c-.911 0-1.728-.233-2.45-.7-.711-.467-1.278-1.145-1.7-2.034-.412-.889-.617-1.967-.617-3.234s.205-2.345.617-3.234c.422-.889.989-1.567 1.7-2.033.722-.467 1.539-.7 2.45-.7.9 0 1.712.233 2.434.7.722.466 1.289 1.144 1.7 2.033.412.889.617 1.967.617 3.234s-.205 2.345-.617 3.234c-.411.889-.978 1.567-1.7 2.034-.722.467-1.534.7-2.434.7Zm0-1.484c.612 0 1.145-.166 1.601-.5.466-.333.828-.833 1.083-1.5.267-.667.4-1.495.4-2.484 0-.989-.133-1.817-.4-2.484-.255-.666-.617-1.166-1.083-1.5-.456-.333-.989-.5-1.601-.5-.611 0-1.15.167-1.617.5-.466.334-.833.834-1.1 1.5-.255.667-.383 1.495-.383 2.484 0 .989.128 1.817.383 2.484.267.667.634 1.167 1.1 1.5.467.334 1.006.5 1.617.5Zm8.318 1.351V473.42l.717.783h-3.35v-1.45h4.284v11.669h-1.651Zm7.97.133a7.658 7.658 0 0 1-2.4-.383c-.767-.256-1.395-.601-1.884-1.034l.767-1.317c.389.367.895.667 1.517.9a5.59 5.59 0 0 0 1.984.35c.889 0 1.572-.189 2.05-.566.478-.378.717-.884.717-1.517 0-.434-.106-.812-.317-1.134-.211-.322-.578-.567-1.1-.733-.511-.178-1.217-.267-2.117-.267h-2.651l.617-6.101h6.585v1.45h-5.968l.867-.817-.484 4.818-.866-.8h2.25c1.167 0 2.106.15 2.817.45.711.3 1.228.717 1.55 1.25.323.522.484 1.128.484 1.817 0 .667-.161 1.278-.484 1.834-.322.544-.811.983-1.467 1.317-.644.322-1.466.483-2.467.483ZM388.599 484.422v-1.134l4.751-4.584c.422-.4.734-.75.934-1.05.211-.311.35-.595.416-.85.078-.267.117-.523.117-.767 0-.6-.211-1.073-.633-1.417-.423-.345-1.04-.517-1.851-.517a4.29 4.29 0 0 0-1.683.317c-.501.2-.934.517-1.301.95l-1.133-.983c.444-.567 1.039-1.001 1.783-1.301.756-.311 1.584-.466 2.484-.466.811 0 1.517.133 2.117.4.6.255 1.062.627 1.384 1.116.333.489.5 1.067.5 1.734 0 .378-.05.75-.15 1.117-.1.367-.289.756-.567 1.167-.278.411-.678.872-1.2 1.383l-4.234 4.084-.4-.65h7.051v1.451h-8.385Zm14.507.133c-.911 0-1.728-.233-2.451-.7-.711-.467-1.278-1.145-1.7-2.034-.411-.889-.617-1.967-.617-3.234s.206-2.345.617-3.234c.422-.889.989-1.567 1.7-2.033.723-.467 1.54-.7 2.451-.7.9 0 1.711.233 2.434.7.722.466 1.289 1.144 1.7 2.033.411.889.617 1.967.617 3.234s-.206 2.345-.617 3.234c-.411.889-.978 1.567-1.7 2.034-.723.467-1.534.7-2.434.7Zm0-1.484c.611 0 1.144-.166 1.6-.5.467-.333.828-.833 1.084-1.5.266-.667.4-1.495.4-2.484 0-.989-.134-1.817-.4-2.484-.256-.666-.617-1.166-1.084-1.5-.456-.333-.989-.5-1.6-.5-.611 0-1.15.167-1.617.5-.467.334-.834.834-1.1 1.5-.256.667-.384 1.495-.384 2.484 0 .989.128 1.817.384 2.484.266.667.633 1.167 1.1 1.5.467.334 1.006.5 1.617.5Zm8.318 1.351V473.42l.717.783h-3.351v-1.45h4.284v11.669h-1.65Zm9.103.133c-1.033 0-1.917-.228-2.65-.683-.734-.456-1.295-1.112-1.684-1.967-.378-.867-.566-1.923-.566-3.168 0-1.322.233-2.439.7-3.35.466-.912 1.117-1.601 1.95-2.067.833-.467 1.789-.7 2.867-.7.556 0 1.084.055 1.584.166.511.111.95.284 1.317.517l-.634 1.3a2.69 2.69 0 0 0-1.033-.433 5.929 5.929 0 0 0-1.2-.117c-1.19 0-2.134.372-2.834 1.117-.7.733-1.051 1.828-1.051 3.284 0 .233.012.511.034.833.022.323.078.639.167.951l-.567-.567c.166-.511.428-.939.783-1.284.367-.355.8-.617 1.3-.783a4.992 4.992 0 0 1 1.651-.267c.778 0 1.467.145 2.067.433.6.289 1.072.701 1.417 1.234.344.522.516 1.145.516 1.867 0 .745-.183 1.395-.55 1.95a3.62 3.62 0 0 1-1.483 1.284c-.623.3-1.323.45-2.101.45Zm-.066-1.35c.511 0 .955-.095 1.333-.284.389-.189.695-.45.917-.783a2.17 2.17 0 0 0 .334-1.2c0-.689-.239-1.234-.717-1.634-.478-.411-1.128-.617-1.951-.617-.533 0-1 .1-1.4.3-.4.2-.717.473-.95.817a2.029 2.029 0 0 0-.333 1.15c0 .4.105.773.316 1.117.211.334.523.606.934.817.411.211.917.317 1.517.317ZM564.739 484.422v-1.134l4.751-4.584c.422-.4.733-.75.933-1.05.211-.311.35-.595.417-.85.078-.267.117-.523.117-.767 0-.6-.212-1.073-.634-1.417-.422-.345-1.039-.517-1.85-.517-.622 0-1.184.106-1.684.317-.5.2-.933.517-1.3.95l-1.134-.983c.445-.567 1.04-1.001 1.784-1.301.756-.311 1.584-.466 2.484-.466.811 0 1.517.133 2.117.4.6.255 1.061.627 1.383 1.116.334.489.501 1.067.501 1.734 0 .378-.05.75-.15 1.117-.1.367-.289.756-.567 1.167-.278.411-.678.872-1.2 1.383l-4.235 4.084-.4-.65h7.052v1.451h-8.385Zm14.506.133c-.911 0-1.728-.233-2.45-.7-.711-.467-1.278-1.145-1.7-2.034-.411-.889-.617-1.967-.617-3.234s.206-2.345.617-3.234c.422-.889.989-1.567 1.7-2.033.722-.467 1.539-.7 2.45-.7.901 0 1.712.233 2.434.7.723.466 1.289 1.144 1.701 2.033.411.889.616 1.967.616 3.234s-.205 2.345-.616 3.234c-.412.889-.978 1.567-1.701 2.034-.722.467-1.533.7-2.434.7Zm0-1.484c.612 0 1.145-.166 1.601-.5.467-.333.828-.833 1.083-1.5.267-.667.4-1.495.4-2.484 0-.989-.133-1.817-.4-2.484-.255-.666-.616-1.166-1.083-1.5-.456-.333-.989-.5-1.601-.5a2.71 2.71 0 0 0-1.616.5c-.467.334-.834.834-1.101 1.5-.255.667-.383 1.495-.383 2.484 0 .989.128 1.817.383 2.484.267.667.634 1.167 1.101 1.5.466.334 1.005.5 1.616.5Zm6.168 1.351v-1.134l4.751-4.584c.422-.4.733-.75.933-1.05.212-.311.351-.595.417-.85.078-.267.117-.523.117-.767 0-.6-.211-1.073-.634-1.417-.422-.345-1.039-.517-1.85-.517-.622 0-1.183.106-1.684.317-.5.2-.933.517-1.3.95l-1.133-.983c.444-.567 1.039-1.001 1.783-1.301.756-.311 1.584-.466 2.484-.466.811 0 1.517.133 2.117.4.6.255 1.061.627 1.384 1.116.333.489.5 1.067.5 1.734 0 .378-.05.75-.15 1.117-.1.367-.289.756-.567 1.167-.278.411-.678.872-1.2 1.383l-4.234 4.084-.4-.65h7.051v1.451h-8.385Zm14.507.133c-.912 0-1.728-.233-2.451-.7-.711-.467-1.278-1.145-1.7-2.034-.411-.889-.617-1.967-.617-3.234s.206-2.345.617-3.234c.422-.889.989-1.567 1.7-2.033.723-.467 1.539-.7 2.451-.7.9 0 1.711.233 2.433.7.723.466 1.29 1.144 1.701 2.033.411.889.617 1.967.617 3.234s-.206 2.345-.617 3.234c-.411.889-.978 1.567-1.701 2.034-.722.467-1.533.7-2.433.7Zm0-1.484c.611 0 1.144-.166 1.6-.5.467-.333.828-.833 1.084-1.5.266-.667.4-1.495.4-2.484 0-.989-.134-1.817-.4-2.484-.256-.666-.617-1.166-1.084-1.5-.456-.333-.989-.5-1.6-.5-.611 0-1.15.167-1.617.5-.467.334-.834.834-1.1 1.5-.256.667-.384 1.495-.384 2.484 0 .989.128 1.817.384 2.484.266.667.633 1.167 1.1 1.5.467.334 1.006.5 1.617.5ZM708.745 484.422v-1.134l4.751-4.584c.422-.4.733-.75.933-1.05.211-.311.35-.595.417-.85.078-.267.116-.523.116-.767 0-.6-.211-1.073-.633-1.417-.422-.345-1.039-.517-1.85-.517-.623 0-1.184.106-1.684.317-.5.2-.933.517-1.3.95l-1.134-.983c.445-.567 1.039-1.001 1.784-1.301.756-.311 1.584-.466 2.484-.466.811 0 1.517.133 2.117.4.6.255 1.061.627 1.383 1.116.334.489.5 1.067.5 1.734 0 .378-.05.75-.15 1.117-.1.367-.289.756-.566 1.167-.278.411-.678.872-1.201 1.383l-4.234 4.084-.4-.65h7.052v1.451h-8.385Zm14.506.133c-.911 0-1.728-.233-2.45-.7-.711-.467-1.278-1.145-1.7-2.034-.412-.889-.617-1.967-.617-3.234s.205-2.345.617-3.234c.422-.889.989-1.567 1.7-2.033.722-.467 1.539-.7 2.45-.7.9 0 1.712.233 2.434.7.722.466 1.289 1.144 1.7 2.033.412.889.617 1.967.617 3.234s-.205 2.345-.617 3.234c-.411.889-.978 1.567-1.7 2.034-.722.467-1.534.7-2.434.7Zm0-1.484c.612 0 1.145-.166 1.601-.5.466-.333.828-.833 1.083-1.5.267-.667.4-1.495.4-2.484 0-.989-.133-1.817-.4-2.484-.255-.666-.617-1.166-1.083-1.5-.456-.333-.989-.5-1.601-.5-.611 0-1.15.167-1.617.5-.466.334-.833.834-1.1 1.5-.255.667-.383 1.495-.383 2.484 0 .989.128 1.817.383 2.484.267.667.634 1.167 1.1 1.5.467.334 1.006.5 1.617.5Zm6.168 1.351v-1.134l4.751-4.584c.422-.4.733-.75.933-1.05.211-.311.35-.595.417-.85.078-.267.117-.523.117-.767 0-.6-.211-1.073-.634-1.417-.422-.345-1.039-.517-1.85-.517-.622 0-1.184.106-1.684.317-.5.2-.933.517-1.3.95l-1.133-.983c.444-.567 1.039-1.001 1.783-1.301.756-.311 1.584-.466 2.484-.466.811 0 1.517.133 2.117.4.6.255 1.061.627 1.384 1.116.333.489.5 1.067.5 1.734 0 .378-.05.75-.15 1.117-.1.367-.289.756-.567 1.167-.278.411-.678.872-1.2 1.383l-4.234 4.084-.4-.65h7.051v1.451h-8.385Zm13.323.133a7.66 7.66 0 0 1-2.401-.383c-.767-.256-1.394-.601-1.883-1.034l.766-1.317c.389.367.895.667 1.517.9a5.64 5.64 0 0 0 2.001.35c.866 0 1.539-.183 2.017-.55.489-.378.733-.883.733-1.517 0-.611-.233-1.1-.7-1.467-.456-.377-1.184-.566-2.184-.566h-.933v-1.167l3.467-4.268.233.667h-6.384v-1.45h7.701v1.133l-3.45 4.251-.867-.517h.55c1.411 0 2.467.317 3.167.951.711.633 1.067 1.439 1.067 2.417 0 .655-.161 1.255-.483 1.8-.323.545-.812.978-1.467 1.3-.645.311-1.467.467-2.467.467Z" fill="#000" fill-opacity=".75"/><path stroke="#C9D6F5" stroke-opacity=".85" stroke-width="1.191" d="M167.809 104.123h612.917M167.809 156.482h612.917"/><path stroke="#C9D6F5" stroke-opacity=".25" stroke-width="1.191" d="M167.809 129.112h612.917"/><path stroke="#C9D6F5" stroke-opacity=".85" stroke-width="1.191" d="M167.809 261.2h612.917"/><path stroke="#C9D6F5" stroke-opacity=".25" stroke-width="1.191" d="M167.809 233.831h612.917"/><path stroke="#C9D6F5" stroke-opacity=".85" stroke-width="1.191" d="M167.809 365.918h612.917"/><path stroke="#C9D6F5" stroke-opacity=".25" stroke-width="1.191" d="M167.809 338.549h612.917"/><path stroke="#C9D6F5" stroke-opacity=".85" stroke-width="1.191" d="M167.809 208.841h612.917"/><path stroke="#C9D6F5" stroke-opacity=".25" stroke-width="1.191" d="M167.809 182.661h612.917"/><path stroke="#C9D6F5" stroke-opacity=".85" stroke-width="1.191" d="M167.809 312.369h612.917"/><path stroke="#C9D6F5" stroke-opacity=".25" stroke-width="1.191" d="M167.809 287.38h612.917"/><path stroke="#C9D6F5" stroke-opacity=".85" stroke-width="1.191" d="M167.809 417.087h612.917M167.809 457.547h612.917"/><path stroke="#C9D6F5" stroke-opacity=".25" stroke-width="1.191" d="M167.809 392.098h612.917"/><path d="M277.301 427.202s94.02-6.544 132.104-13.089c38.084-6.545 103.223-20.748 175.821-46.332 72.598-25.585 146.11-237.478 146.11-237.478" stroke="#FA8D8D" stroke-width="4.763" stroke-linecap="round"/><ellipse cx="277.3" cy="427.202" rx="5.951" ry="5.95" fill="#fff" stroke="#FA8D8D" stroke-width="4.763"/><ellipse cx="407.025" cy="414.113" rx="5.951" ry="5.95" fill="#fff" stroke="#FA8D8D" stroke-width="4.763"/><ellipse cx="585.544" cy="367.704" rx="5.951" ry="5.95" fill="#fff" stroke="#FA8D8D" stroke-width="4.763"/><ellipse cx="729.55" cy="132.088" rx="5.951" ry="5.95" fill="#fff" stroke="#FA8D8D" stroke-width="4.763"/></svg>