<svg width="550" height="313" fill="none" xmlns="http://www.w3.org/2000/svg"><path opacity=".75" d="M332.872 6.085c3.438 1.25 7.164 3.75 5.731 4.063-1.433.625 0 3.125.859 5.626.86 2.5-2.005.937-2.005 3.125 0 2.188.859 3.75-.574 4.688-1.432.938-.573 2.188-.573 4.063 0 2.188-2.865.313-4.298 3.126-.86 1.25 0 2.5 1.146 4.375.86 1.875.287 3.438-2.292 3.125-2.579-.312-5.731.938-10.029.938-4.299 0-34.1-1.25-41.837-.625-7.736.625-21.777 3.438-25.216 4.063-3.725.938-41.55 10.314-65.047 19.065-23.497 8.751-60.462 27.504-75.649 38.443-15.187 10.939-48.713 38.442-62.468 54.694-13.754 16.565-25.789 29.067-32.093 45.319-6.304 16.564-14.041 44.381-13.181 53.757 0 0-2.006-1.563-3.439-10.002-1.433-8.438-2.579-35.004 0-50.944 2.292-14.689 14.614-46.568 34.673-68.134 20.058-21.565 38.684-42.193 65.333-59.695 26.649-17.502 41.836-27.816 73.07-39.38 31.234-11.877 35.819-12.502 38.111-13.752 2.292-1.25 3.439-1.563 5.731-1.563s3.725-1.562 5.731-2.187c2.006-.313 26.363-7.189 52.152-8.127 26.076-.937 47.567 2.813 56.164 5.939Z" fill="#fff"/><path opacity=".75" d="M475.861 128.914s-22.637 20.315-36.392 30.004c-13.467 9.688-57.596 45.006-106.596 55.632-49 10.626-87.684 15.627-150.152 11.876-62.468-3.75-90.836-20.627-100.866-33.129-10.029-12.501-20.058-41.255-21.204-54.695 0 0-3.439 33.755-3.725 44.069-.287 10.626.286 41.255 24.07 60.32 23.497 19.065 68.199 28.129 105.737 30.317 37.538 2.187 96.853-1.251 127.228-10.627 30.374-9.376 78.801-28.754 90.836-35.629 12.035-7.189 17.193-11.252 15.76-10.939-1.433.312-11.748 7.188-14.041 8.438-2.292 1.25-18.052 9.376-23.783 11.877-4.872 2.188-10.603 3.438-11.749 3.75 1.719-.312 12.895-5 16.906-6.876 4.012-2.187 9.743-5.625 10.889-6.25 1.147-.626 1.433-1.876 2.866-2.188 1.433-.313 2.006-.313 2.865-.938.86-.937 4.012-1.563 5.445-2.5 1.432-.938 2.006-1.875 2.579-2.5.573-.626 2.006-1.251 2.579-2.188.859-.938 1.146-1.25 2.579-1.563 1.432 0 3.152-.625 3.725-1.563.573-.937 1.719-1.562 2.292-1.562.573 0 2.866 0 3.725-.938.573-.625 14.614-10.314 19.199-14.377 4.871-4.063 7.737-7.188 8.597-8.126.859-.938 1.146-2.188 1.719-2.188.86-.312 1.433-.937 1.433-1.25 0-.625.573-1.563 1.432-1.875.86-.313 2.293-2.188 4.872-6.564 2.865-4.375 3.438-5 6.304-15.627 2.865-10.313 6.59-27.503 4.871-32.191Zm-52.152 51.882c-1.146.937-2.292 1.562-3.438 2.5-8.024 5.626-28.082 19.065-42.983 25.316-19.485 8.126-47.854 18.752-56.737 20.94-8.883 2.188-10.029 2.188-11.748 1.563-1.72-.625-1.146 0-5.158.312-4.012.313-8.31 2.188-10.029 2.5-1.72.313-19.199 2.813-38.398 3.751-19.485.938-49.86-.938-49.86-.938s48.714.625 70.492-2.5c22.064-3.125 30.087-5.001 33.812-5.938 3.726-.938 29.802-5.313 55.878-17.503 23.783-10.938 42.409-19.377 54.444-27.503 2.579-1.875 4.012-2.813 3.725-2.5Z" fill="#fff"/><path opacity=".75" d="M549.502 119.538c-1.146-5.626-2.006-14.377-5.731-21.878-3.725-7.501-18.339-25.941-28.655-33.13-10.316-7.188-34.1-19.065-53.585-26.566-19.772-7.188-32.094-8.75-38.684-10.001-6.591-1.25-14.614-2.813-18.626-3.75-4.012-.626-27.509-2.813-35.819-3.75-8.023-.939-21.204-2.189-28.081-1.876-6.591.312-31.234-.313-35.246-.625-4.012-.313-14.614-.938-20.345-.625-5.731.312-16.333 1.875-22.064 2.5-5.731.625-36.106 3.438-44.416 6.25-8.023 2.814-11.748 3.126-16.333 3.439-4.298.312-8.596 3.125-9.743 3.125-1.146 0-22.35 5.626-28.655 7.501-6.304 1.875-27.795 12.502-40.403 20.003-12.608 7.188-25.216 16.564-32.953 23.753-7.737 7.188-13.468 11.876-20.918 27.191-7.164 15.002-9.17 25.941-10.316 38.442-1.146 12.502-3.152 26.254-2.58 37.818.574 11.564 2.58 20.315 3.726 22.503 0 0 6.304-55.007 45.275-87.199 38.684-32.192 104.877-51.882 191.128-59.383 86.252-7.5 175.369 20.315 194.568 32.504 0 0 1.719-.625-4.585-4.063-6.591-3.438-15.187-6.563-15.187-6.563s6.304.313 19.772 7.501c13.467 7.188 21.491 14.064 27.508 19.69 5.731 5.313 12.322 13.127 14.901 22.191 2.579 8.751 4.585 21.877 4.585 31.879 0 10.001-1.719 16.564-.86 15.002.86-1.563 7.164-16.878 10.029-31.88 2.579-15.001 3.439-24.378 2.293-30.003Zm-95.708-72.197c-9.456-4.063-16.906-5.001-20.058-5.626-3.152-.625-4.585-1.25-7.737-1.563-3.152-.312.573-1.25-2.866-1.875-3.438-.625-8.023-.625-13.467-1.25-5.445-.625-10.03-2.813-16.62-2.813-6.304 0-17.766-2.5-25.503-2.813-7.737-.313-15.76-.625-22.065-.938-6.304-.312-11.175-1.562-17.193-1.562-5.731 0-13.467-.625-7.736-1.563 2.865-.625 13.754-.938 19.198-.938 5.158 0 16.907.938 21.205 1.25 4.298.313 55.877 5.626 63.901 8.127 8.023 2.5 35.532 10.313 46.707 14.689 10.889 4.376 18.339 9.689 18.339 9.689s-26.649-8.751-36.105-12.814Z" fill="#fff"/><path opacity=".75" d="M548.644 116.412c-.573-1.875-15.473 32.192-23.21 42.193-7.737 10.001-39.544 36.255-56.737 45.943-17.193 9.689-70.491 31.255-75.363 33.13-4.584 1.875-7.736.937-10.889 2.188-3.152 1.25.287-1.876-3.725-.626-4.011 1.251-34.959 10.002-41.263 11.565-6.304 1.562-29.514 6.875-38.111 8.438-8.596 1.563-72.21 10.001-95.994 10.314-24.07.313-66.193-1.563-82.24-3.438-16.047-1.875-37.251-6.251-53.011-9.689-15.76-3.438-28.655-12.814-36.679-18.752-8.023-5.626-12.035-13.439-15.474-20.94-3.152-7.189-9.456-28.129-9.456-40.318 0 0-5.444 10.626-6.304 29.066-.86 18.44.86 51.257 12.895 64.696s38.684 30.942 76.222 36.255C126.557 311.75 168.393 313 175.27 313c6.877 0 28.082-.312 32.38-.312 4.298 0 7.164-.313 10.603-.625 3.438-.313 3.152-2.188 1.432-2.188-1.719 0-1.146.312-3.725.625-2.579.312-3.725.937-5.158.312-1.433-.625-2.292-.625-4.011-.312-1.72.312-2.579 0-4.872 0-2.292 0-1.719 0-4.298.312-2.579.313-3.439-1.562-3.439-1.562s2.006-.625 4.299-.625c2.292 0 13.754 0 16.046-.313 2.006-.312 4.872-.312 6.878 0 2.005.313 4.298 0 6.017 0 1.719 0 1.433-2.188 3.152-2.188s.86.625 3.152.625c2.293 0 5.158-.937 7.164-.937 2.006 0 4.871-3.126 7.737-3.126 2.865 0 4.585-.937 5.158.625.573 1.563 1.432 1.251 1.432.313s0-3.125 2.006-3.438c2.006-.313 4.298-.313 6.877-.938 2.579-.625 8.597-1.875 10.603-1.875 2.006 0 3.725.938 3.725.938s-6.877.625-9.743 1.25c-2.865.625-7.164 1.875-4.871 1.875h6.877c1.719 0 2.292.625 4.585 0 2.292-.625 3.152-1.563 6.017-1.875 2.866-.313 3.439-1.25 6.305-1.25h5.157c1.147 0 4.299-.313 6.304-.625 2.006-.313 2.293-1.876 4.299-2.188 2.006-.313 8.023-.938 10.029-1.25 2.006-.313 5.158-1.25 7.164-1.876 2.006-.625 5.444-1.562 7.737-1.875 2.292-.312 1.432.625 4.584.625 3.152 0 4.012 1.25 8.883-.937 4.872-2.188 4.012-2.501 6.591-3.751 2.579-1.25 7.737-2.5 11.175-3.125 3.439-.625 4.872-1.563 6.591-1.563 1.719 0 2.866 0 2.579-1.25-.286-1.25 1.433-2.5 2.292-1.25.86 1.25 2.866.937 2.866.937 3.152-1.25 6.591-3.125 8.31-3.125 1.719 0 2.865-.625 6.304-1.875s3.439-1.25 5.444-1.563c2.006-.313 1.72-3.75 4.299-4.376 2.579-.625 7.45-1.562 10.315-2.812 2.866-1.251 4.872-.938 7.737-2.188 2.866-1.25 2.579.312-4.871 2.5-7.45 2.188-7.737 3.438-5.158 3.126 2.579-.313 6.018-2.501 10.029-3.438 4.012-.938 5.158-1.563 6.304-2.501 1.147-.937 0-2.188 2.579-3.125 2.579-.938 7.164-3.126 9.743-4.063 2.579-.938 7.164-1.563 9.456-2.813 2.293-1.25 5.445-1.875 7.45-3.125 2.006-1.251 4.872-2.813 3.726-2.813-1.147 0-4.872 1.875-8.024 3.125-3.152 1.25-5.444.938-5.444.938s3.438-1.876 6.59-2.813c3.152-.938 4.012-2.188 6.591-3.126 2.579-.937 4.298-2.5 3.439-2.5-.86 0-5.158.625-2.866-.625 2.293-1.25 5.158-2.188 8.597-3.751 3.438-1.562 7.45-5.625 7.45-5.625s.573 1.562-1.433 3.438c-2.006 1.875-3.438 3.125-.573 2.187 2.866-.937 1.433.001 4.585-1.875 3.152-1.875 8.023-4.375 12.322-6.876 4.298-2.5 5.157-2.5 6.877-4.063 1.719-1.562 2.292-.937 1.719-1.562-.573-.625-1.719-1.251-1.719-1.251 3.152-1.562 4.011-3.438 6.304-4.375 2.292-.938 5.731-5.938 8.023-7.501 2.293-1.563 6.304-3.751 7.737-5.313 1.433-1.563 2.866-2.813 5.158-5.001 2.292-2.188 6.304-8.126 7.737-10.001 1.433-1.876 3.152-4.688 4.011-6.876.86-2.188 4.585-8.126 7.451-17.19 5.731-9.376 12.895-40.318 8.596-50.944Zm-98.859 109.702c-12.609 6.251-30.088 14.377-34.1 15.939-3.725 1.563-18.912 5.001-25.789 8.126-6.877 2.813-26.363 7.189-33.24 9.377-6.877 2.187-48.14 11.876-61.322 13.439-13.181 1.563-50.432 6.251-57.596 6.251-6.877 0-12.035-.313-14.614 0-2.579.312-6.591 1.25-10.316 1.25-3.725 0-5.158.938-8.023.938h-8.597c-3.152 0-87.971-2.501-102.011-8.752-2.293-.937 50.432 4.689 54.73 5.001 4.299.313 38.971 2.188 50.147.313 11.175-1.563 42.982-1.251 50.432-2.188 7.737-.938 59.316-9.376 64.761-9.689 5.444-.313 30.374-8.439 38.684-10.626 8.023-2.188 40.403-9.377 50.433-11.877 10.029-2.5 24.643-10.626 34.099-14.377 9.17-3.75 41.55-21.565 47.854-25.628.573 0-22.638 15.939-35.532 22.503Z" fill="#fff"/><path d="M286.83 104.856h-13.105l-89.958-23.725c3.962-23.574 18.54-42.625 36.775-52.888a5.753 5.753 0 0 1 5.588 0c14.273 7.875 26.972 22.71 36.877 37.29 8.533 12.346 18.388 29.01 23.823 39.323Z" fill="#FCDCB5"/><path d="M273.725 104.856c-11.988.661-31.849-1.219-46.986-5.283-5.79-1.372-44.394-13.21-42.972-18.442.914-3.353 21.232-.66 45.36 5.995 24.077 6.655 44.598 17.73 44.598 17.73Z" fill="#FCC583"/><path d="M264.633 104.907c-11.327-.356-25.855-2.134-37.893-5.334-4.876-1.169-20.318-5.944-31.341-10.568 23.417-1.117 47.291 3.912 69.234 15.902Z" fill="#C99A62"/><path d="M263.464 66.143c-18.286-21.591-60.446-29.314-79.24 12.549 6.298-31.092 28.445-46.029 36.318-50.448a5.753 5.753 0 0 1 5.588 0c14.273 7.874 26.972 22.709 36.877 37.29.101.152.203.254.304.406.051.051.102.153.153.203Z" fill="#FCC583"/><path d="M326.043 51.41c-6.654 22.303-17.118 42.422-22.35 52.938h-17.371c-4.318-8.687-13.309-23.928-19.252-41.608-5.282-15.445-9.346-32.718-9.041-48.976a5.924 5.924 0 0 1 2.895-4.928c20.064-11.634 47.189-11.684 68.218 0 1.473.813 2.844 2.693 2.895 4.928.152 12.397-2.336 25.352-5.994 37.646Z" fill="#FCDCB5"/><path d="M326.044 51.41c-6.654 22.303-17.118 42.422-22.35 52.938h-14.629c17.525-13.056 28.954-32.514 36.979-52.938Z" fill="#FFEFDC"/><path d="M329.396 9.04c-57.145-10.11-62.376 39.474-62.376 53.7-5.283-15.445-9.347-32.718-9.042-48.976a5.924 5.924 0 0 1 2.895-4.928c20.064-11.634 47.189-11.684 68.218 0 .102.051.203.102.305.204Z" fill="#FCC583"/><path d="m407.009 80.013-90.211 24.285h-13.156c.711-1.321 26.413-58.171 59.735-77.172 1.727-1.016 3.86-1.016 5.587-.102 20.013 10.923 34.134 31.651 38.045 52.99Z" fill="#FCDCB5"/><path d="M364.291 99.014c-15.035 4.267-34.896 6.401-46.935 5.893 0 0 20.369-11.33 44.395-18.29 2.032-.61 4.013-1.168 5.943-1.676 21.334-5.792 38.401-7.976 39.316-4.928 1.473 5.03-34.795 17.02-42.719 19ZM396.139 52.731c-13.41-4.064-28.293-2.896-41.551 1.981-30.477 11.228-44.547 36.986-44.547 36.986 9.499-18.086 29.867-50.957 53.436-64.521 1.677-.966 3.708-1.067 5.537-.102 5.486 2.998 17.778 10.872 27.125 25.656Z" fill="#FCC583"/><path d="M364.291 99.014c-7.924 2.235-16.915 3.861-25.397 4.826 8.889-7.265 18.489-13.87 28.8-18.9 21.334-5.79 38.401-7.975 39.316-4.927 1.473 5.03-34.795 17.02-42.719 19Z" fill="#C99A62"/><path d="m172.743 130.615 5.13 155.257h235.029l5.13-173.75-245.289 18.493Z" fill="#FA9595"/><path d="m421.081 103.129-1.067 32.667H170.763l-1.067-32.667h251.385Z" fill="#FA9595"/><path d="M173.15 142.502c83.253 20.271 208.92 69.653 239.753 143.37l4.419-150.076H172.947l.203 6.706Z" fill="#F28282"/><path d="m172.947 135.796.203 6.706h243.969l.203-6.706H172.947Z" fill="#E57676"/><path d="M263.769 103.129c-12.191 3.658-11.886 20.982-10.871 39.373 1.169 21.186 4.47 47.248-3.809 71.075l-18.083-22.404-21.588 19.559c5.587-17.781-4.622-92.362 10.616-107.603h43.735Z" fill="#E67676"/><path d="M263.768 103.129c-27.683 0-4.978 69.246-19.454 100.186l-14.731-15.698-22.908 15.698c8.381-19.712-7.721-95.969 13.359-100.186h43.734Z" fill="#FCDCB5"/><path d="M233.85 103.129c-31.594 0-10.26 81.592-27.226 100.186 8.432-19.712-7.772-95.969 13.359-100.186h13.867Z" fill="#FCC583"/><path d="m322.793 103.129-4.013 182.743h-2.895l4.927-182.743h1.981Z" fill="#E67676"/><path d="m269.966 103.129 4.927 182.743h40.991l4.928-182.743h-50.846Z" fill="#FCDCB5"/><path d="M274.893 285.872s-4.013-178.679 45.969-182.743h-50.896l4.927 182.743Z" fill="#FCC583"/><path d="m317.408 230.292-1.473 55.58h-18.744c14.782 0 18.947-33.988 20.217-55.58Z" fill="#E67676"/></svg>