<svg width="268" height="210" fill="none" xmlns="http://www.w3.org/2000/svg"><g clip-path="url(#a)" fill="#fff"><path opacity=".75" d="M162.319 31.642c1.677.607 3.494 1.822 2.795 1.974-.699.303 0 1.518.419 2.732.419 1.215-.978.456-.978 1.519 0 1.062.419 1.821-.279 2.277-.699.455-.28 1.063-.28 1.973 0 1.063-1.397.152-2.096 1.519-.419.607 0 1.214.559 2.125.419.91.14 1.67-1.118 1.518-1.257-.152-2.794.456-4.89.456-2.096 0-16.628-.608-20.401-.304-3.773.304-10.62 1.67-12.296 1.974-1.817.455-20.261 5.01-31.72 9.26-11.457 4.251-29.482 13.36-36.888 18.674-7.406 5.313-23.754 18.673-30.461 26.567-6.707 8.047-12.576 14.119-15.65 22.014-3.074 8.046-6.847 21.557-6.428 26.112 0 0-.978-.759-1.676-4.858-.699-4.099-1.258-17.004 0-24.746 1.117-7.136 7.126-22.62 16.907-33.096 9.781-10.475 18.864-20.495 31.858-28.997 12.995-8.501 20.401-13.511 35.632-19.129 15.23-5.769 17.466-6.072 18.584-6.68 1.118-.607 1.677-.758 2.795-.758 1.117 0 1.816-.76 2.794-1.063.978-.152 12.855-3.492 25.431-3.947 12.716-.456 23.195 1.366 27.387 2.884Z"/><path opacity=".75" d="M232.045 91.305s-11.039 9.868-17.746 14.575c-6.567 4.706-28.085 21.861-51.979 27.023-23.894 5.162-42.758 7.591-73.22 5.769-30.46-1.822-44.294-10.02-49.184-16.093-4.89-6.072-9.781-20.039-10.34-26.567 0 0-1.677 16.396-1.817 21.406-.14 5.161.14 20.039 11.737 29.3 11.458 9.261 33.256 13.663 51.561 14.726 18.305 1.063 47.229-.607 62.04-5.162 14.812-4.554 38.426-13.967 44.295-17.307 5.869-3.491 8.384-5.465 7.685-5.313-.699.152-5.729 3.492-6.847 4.099-1.118.607-8.803 4.554-11.597 5.769-2.376 1.063-5.17 1.67-5.729 1.822.838-.152 6.288-2.429 8.244-3.34 1.956-1.063 4.751-2.733 5.31-3.037.559-.303.698-.91 1.397-1.062.699-.152.978-.152 1.397-.456.419-.455 1.956-.759 2.655-1.214.699-.456.978-.911 1.258-1.215.279-.303.978-.607 1.257-1.062.419-.456.559-.608 1.258-.76.698 0 1.537-.303 1.816-.759.28-.455.839-.759 1.118-.759.28 0 1.397 0 1.817-.455.279-.304 7.126-5.01 9.362-6.984 2.375-1.973 3.772-3.491 4.192-3.947.419-.455.558-1.063.838-1.063.419-.151.699-.455.699-.607 0-.303.279-.759.698-.911.419-.152 1.118-1.062 2.376-3.188 1.397-2.125 1.676-2.429 3.074-7.591 1.397-5.01 3.213-13.36 2.375-15.637Zm-25.431 25.202c-.559.455-1.118.759-1.677 1.214-3.912 2.733-13.693 9.261-20.959 12.297-9.502 3.948-23.335 9.109-27.667 10.172-4.331 1.063-4.89 1.063-5.729.759-.838-.304-.559 0-2.515.152s-4.052 1.063-4.89 1.214c-.839.152-9.362 1.367-18.724 1.822-9.502.456-24.313-.455-24.313-.455s23.754.303 34.373-1.215c10.759-1.518 14.672-2.429 16.488-2.884 1.817-.456 14.532-2.581 27.248-8.502 11.598-5.313 20.68-9.412 26.549-13.36 1.257-.911 1.956-1.366 1.816-1.214Z"/><path opacity=".75" d="M267.955 86.751c-.559-2.732-.978-6.983-2.795-10.627-1.816-3.643-8.942-12.6-13.973-16.092-5.03-3.492-16.628-9.26-26.129-12.904-9.642-3.492-15.65-4.251-18.864-4.858-3.214-.608-7.126-1.367-9.082-1.822-1.957-.304-13.414-1.367-17.467-1.822-3.912-.456-10.34-1.063-13.693-.911-3.214.152-15.231-.152-17.187-.304-1.956-.151-7.126-.455-9.921-.303-2.795.152-7.965.91-10.759 1.214-2.795.304-17.606 1.67-21.658 3.037-3.913 1.366-5.729 1.518-7.965 1.67-2.096.151-4.192 1.518-4.75 1.518-.56 0-10.9 2.732-13.974 3.643-3.074.911-13.554 6.073-19.702 9.717-6.148 3.491-12.296 8.046-16.069 11.538-3.773 3.491-6.567 5.769-10.2 13.207-3.494 7.288-4.472 12.601-5.03 18.674-.56 6.072-1.538 12.752-1.258 18.369.28 5.618 1.257 9.868 1.816 10.931 0 0 3.074-26.719 22.078-42.356 18.863-15.637 51.141-25.202 93.2-28.845 42.059-3.644 85.515 9.868 94.877 15.788 0 0 .838-.303-2.236-1.973-3.214-1.67-7.405-3.188-7.405-3.188s3.074.151 9.641 3.643 10.48 6.832 13.414 9.565c2.795 2.58 6.009 6.376 7.266 10.779 1.258 4.25 2.236 10.627 2.236 15.485 0 4.858-.839 8.046-.419 7.287.419-.759 3.493-8.198 4.89-15.485 1.258-7.287 1.677-11.842 1.118-14.575Zm-46.67-35.069c-4.611-1.974-8.244-2.429-9.781-2.733-1.537-.303-2.236-.607-3.773-.759-1.537-.151.28-.607-1.397-.91-1.677-.304-3.913-.304-6.567-.608-2.655-.303-4.891-1.366-8.105-1.366-3.074 0-8.663-1.215-12.436-1.366-3.773-.152-7.685-.304-10.759-.456-3.074-.152-5.45-.759-8.384-.759-2.795 0-6.567-.304-3.773-.76 1.398-.303 6.707-.455 9.362-.455 2.515 0 8.244.456 10.34.608 2.096.151 27.248 2.732 31.16 3.947 3.913 1.214 17.327 5.01 22.776 7.135 5.31 2.126 8.943 4.706 8.943 4.706s-12.995-4.25-17.606-6.224Z"/><path opacity=".75" d="M267.536 85.233c-.28-.91-7.545 15.637-11.318 20.495-3.773 4.858-19.283 17.611-27.667 22.317-8.384 4.706-34.374 15.182-36.749 16.093-2.236.91-3.773.455-5.31 1.062-1.537.608.14-.911-1.816-.303-1.956.607-17.047 4.858-20.121 5.617-3.075.759-14.393 3.34-18.585 4.099-4.192.759-35.212 4.858-46.81 5.01-11.737.152-32.277-.759-40.102-1.67-7.825-.911-18.165-3.037-25.85-4.706-7.685-1.67-13.973-6.225-17.886-9.109-3.912-2.733-5.868-6.528-7.545-10.172-1.537-3.492-4.611-13.663-4.611-19.584 0 0-2.655 5.161-3.074 14.119-.42 8.957.419 24.897 6.288 31.425 5.868 6.528 18.863 15.03 37.168 17.611 18.165 2.581 38.566 3.188 41.92 3.188 3.353 0 13.693-.152 15.789-.152s3.493-.152 5.17-.303c1.676-.152 1.537-1.063.698-1.063-.838 0-.559.152-1.816.304-1.258.151-1.817.455-2.515.151-.699-.303-1.118-.303-1.957-.151-.838.151-1.257 0-2.375 0s-.838 0-2.096.151c-1.257.152-1.677-.759-1.677-.759s.978-.303 2.096-.303 6.707 0 7.825-.152c.978-.152 2.376-.152 3.354 0 .978.152 2.096 0 2.934 0 .838 0 .699-1.063 1.537-1.063s.419.304 1.537.304c1.118 0 2.515-.456 3.493-.456.979 0 2.376-1.518 3.773-1.518 1.397 0 2.236-.455 2.515.304.28.759.699.607.699.152 0-.456 0-1.519.978-1.67.978-.152 2.096-.152 3.354-.456 1.257-.303 4.191-.911 5.17-.911.978 0 1.816.456 1.816.456s-3.353.303-4.751.607c-1.397.304-3.493.911-2.375.911h3.353c.839 0 1.118.304 2.236 0s1.537-.759 2.934-.911c1.398-.152 1.677-.607 3.074-.607h2.516c.559 0 2.096-.152 3.074-.304.978-.152 1.118-.911 2.096-1.063.978-.151 3.912-.455 4.89-.607.978-.152 2.515-.607 3.493-.911.979-.303 2.655-.759 3.773-.911 1.118-.151.699.304 2.236.304 1.537 0 1.956.607 4.332-.455 2.375-1.063 1.956-1.215 3.213-1.822 1.258-.607 3.773-1.215 5.45-1.518 1.677-.304 2.375-.759 3.214-.759.838 0 1.397 0 1.257-.608-.14-.607.699-1.214 1.118-.607.419.607 1.397.455 1.397.455 1.537-.607 3.214-1.518 4.053-1.518.838 0 1.397-.303 3.074-.911 1.676-.607 1.676-.607 2.654-.759.979-.151.839-1.821 2.096-2.125 1.258-.304 3.633-.759 5.031-1.366 1.397-.608 2.375-.456 3.772-1.063 1.398-.607 1.258.152-2.375 1.214-3.633 1.063-3.773 1.67-2.515 1.519 1.257-.152 2.934-1.215 4.89-1.67 1.957-.456 2.516-.759 3.075-1.215.558-.455 0-1.063 1.257-1.518 1.258-.456 3.493-1.518 4.751-1.974 1.258-.455 3.493-.759 4.611-1.366 1.118-.607 2.655-.911 3.633-1.518.978-.607 2.375-1.367 1.817-1.367-.559 0-2.376.911-3.913 1.519-1.537.607-2.655.455-2.655.455s1.677-.911 3.214-1.366c1.537-.456 1.956-1.063 3.214-1.518 1.257-.456 2.096-1.215 1.677-1.215-.42 0-2.516.304-1.398-.304 1.118-.607 2.515-1.062 4.192-1.821 1.677-.759 3.633-2.733 3.633-2.733s.28.759-.698 1.67c-.979.911-1.677 1.518-.28 1.063 1.397-.456.699 0 2.236-.911 1.537-.911 3.912-2.126 6.008-3.34 2.096-1.215 2.515-1.215 3.354-1.974.838-.759 1.118-.455.838-.759-.279-.303-.838-.607-.838-.607 1.537-.759 1.956-1.67 3.074-2.126 1.118-.455 2.794-2.884 3.912-3.643 1.118-.759 3.074-1.822 3.773-2.581.699-.759 1.397-1.366 2.515-2.429 1.118-1.063 3.074-3.947 3.773-4.858.698-.911 1.537-2.277 1.956-3.34.419-1.063 2.236-3.947 3.633-8.35 2.795-4.554 6.288-19.584 4.192-24.746Zm-48.207 53.287c-6.148 3.037-14.672 6.984-16.628 7.743-1.816.759-9.222 2.429-12.576 3.947-3.353 1.367-12.855 3.492-16.208 4.555-3.354 1.062-23.475 5.769-29.903 6.528-6.427.759-24.592 3.036-28.086 3.036-3.353 0-5.868-.152-7.126 0-1.257.152-3.214.607-5.03.607-1.817 0-2.515.456-3.913.456h-4.192c-1.537 0-42.897-1.215-49.744-4.251-1.117-.456 24.593 2.277 26.689 2.429 2.096.152 19.003 1.063 24.453.152 5.449-.759 20.959-.607 24.592-1.063 3.773-.455 28.925-4.554 31.579-4.706 2.655-.152 14.812-4.099 18.864-5.162 3.912-1.063 19.702-4.554 24.593-5.769 4.89-1.214 12.016-5.162 16.628-6.983 4.471-1.822 20.26-10.476 23.335-12.449.279 0-11.039 7.742-17.327 10.93Z"/></g><path d="M127.403 76.984h-9.641L51.582 59.55c2.915-17.322 13.64-31.322 27.055-38.863 1.27-.71 2.84-.71 4.11 0 10.501 5.786 19.843 16.687 27.13 27.402 6.278 9.072 13.528 21.317 17.526 28.895Z" fill="#FCDCB5"/><path d="M117.762 76.984c-8.819.485-23.43-.896-34.566-3.883-4.26-1.008-32.66-9.706-31.614-13.551.672-2.464 15.62-.486 33.37 4.405 17.713 4.89 32.81 13.029 32.81 13.029Z" fill="#FCC583"/><path d="M111.073 77.021c-8.333-.261-19.02-1.568-27.877-3.92-3.587-.858-14.947-4.368-23.056-7.765 17.227-.821 34.79 2.875 50.933 11.685Z" fill="#C99A62"/><path d="M110.213 48.537C96.76 32.67 65.744 26.996 51.918 57.757c4.634-22.846 20.926-33.822 26.718-37.07 1.271-.71 2.84-.71 4.111 0 10.5 5.786 19.843 16.687 27.13 27.402.074.112.149.187.224.299.037.037.075.111.112.149Z" fill="#FCC583"/><path d="M156.251 37.71c-4.896 16.39-12.594 31.173-16.443 38.9h-12.78c-3.176-6.383-9.79-17.583-14.162-30.574-3.887-11.35-6.876-24.043-6.652-35.989a4.35 4.35 0 0 1 2.13-3.621c14.761-8.55 34.715-8.587 50.186 0 1.084.597 2.093 1.978 2.13 3.621.112 9.11-1.719 18.629-4.409 27.664Z" fill="#FCDCB5"/><path d="M156.25 37.71c-4.895 16.39-12.593 31.174-16.442 38.901h-10.762c12.892-9.594 21.3-23.892 27.204-38.9Z" fill="#FFEFDC"/><path d="M158.717 6.575c-42.04-7.429-45.889 29.008-45.889 39.46-3.886-11.348-6.875-24.041-6.651-35.988a4.35 4.35 0 0 1 2.13-3.621c14.76-8.55 34.715-8.587 50.186 0a.781.781 0 0 1 .224.15Z" fill="#FCC583"/><path d="M215.817 58.729 149.45 76.574h-9.679c.524-.97 19.432-42.746 43.946-56.708 1.271-.747 2.84-.747 4.111-.075 14.723 8.027 25.111 23.258 27.989 38.938Z" fill="#FCDCB5"/><path d="M184.39 72.69c-11.061 3.136-25.672 4.704-34.529 4.331 0 0 14.985-8.325 32.661-13.44 1.494-.448 2.952-.858 4.372-1.232 15.694-4.255 28.25-5.86 28.923-3.62 1.084 3.695-25.598 12.505-31.427 13.962ZM207.82 38.68c-9.865-2.986-20.814-2.127-30.567 1.457-22.421 8.25-32.773 27.178-32.773 27.178 6.988-13.29 21.973-37.445 39.312-47.412a4.16 4.16 0 0 1 4.073-.075c4.036 2.203 13.079 7.99 19.955 18.853Z" fill="#FCC583"/><path d="M184.389 72.69c-5.829 1.643-12.443 2.838-18.684 3.547 6.54-5.338 13.602-10.192 21.188-13.888 15.695-4.255 28.251-5.86 28.923-3.62 1.084 3.695-25.597 12.505-31.427 13.962Z" fill="#C99A62"/><path d="M43.473 95.912 47.247 210H220.15l3.775-127.677L43.473 95.912Z" fill="#FA9595"/><path d="m226.168 75.715-.785 24.004H42.015l-.785-24.004h184.938Z" fill="#FA9595"/><path d="M43.772 104.647c61.247 14.896 153.697 51.183 176.379 105.352l3.252-110.28H43.623l.149 4.928Z" fill="#F28282"/><path d="m43.622 99.72.15 4.927h179.481l.15-4.928H43.623Z" fill="#E57676"/><path d="M110.438 75.714c-8.969 2.688-8.745 15.419-7.997 28.933.859 15.568 3.288 34.719-2.803 52.228l-13.303-16.463-15.882 14.373c4.11-13.067-3.4-67.87 7.81-79.07h32.175Z" fill="#E67676"/><path d="M110.437 75.714c-20.366 0-3.662 50.885-14.312 73.62l-10.837-11.536-16.853 11.536c6.165-14.485-5.68-70.521 9.828-73.62h32.174Z" fill="#FCDCB5"/><path d="M88.427 75.715c-23.243 0-7.548 59.956-20.03 73.619 6.204-14.485-5.717-70.52 9.828-73.62h10.202Z" fill="#FCC583"/><path d="M153.859 75.714 150.907 210h-2.13l3.625-134.285h1.457Z" fill="#E67676"/><path d="M114.996 75.715 118.621 210h30.156l3.625-134.285h-37.406Z" fill="#FCDCB5"/><path d="M118.621 210s-2.952-131.299 33.818-134.285h-37.443L118.621 210Z" fill="#FCC583"/><path d="m149.898 169.158-1.084 40.841h-13.789c10.875 0 13.939-24.975 14.873-40.841Z" fill="#E67676"/><defs><clipPath id="a"><path fill="#fff" transform="translate(0 28.686)" d="M0 0h268v152.259H0z"/></clipPath></defs></svg>