<svg width="550" height="313" viewBox="0 0 550 313" fill="none" xmlns="http://www.w3.org/2000/svg">
<path opacity="0.75" d="M332.872 6.08475C336.31 7.33491 340.036 9.83524 338.603 10.1478C337.17 10.7729 338.603 13.2732 339.462 15.7735C340.322 18.2738 337.457 16.7111 337.457 18.8989C337.457 21.0867 338.316 22.6494 336.883 23.587C335.451 24.5247 336.31 25.7748 336.31 27.6501C336.31 29.8379 333.445 27.9626 332.012 30.7755C331.152 32.0256 332.012 33.2758 333.158 35.1511C334.018 37.0263 333.445 38.589 330.866 38.2765C328.287 37.9639 325.135 39.2141 320.837 39.2141C316.538 39.2141 286.737 37.9639 279 38.589C271.264 39.2141 257.223 42.027 253.784 42.652C250.059 43.5897 212.234 52.9659 188.737 61.717C165.24 70.4682 128.275 89.2207 113.088 100.16C97.9011 111.099 64.3748 138.602 50.6204 154.854C36.866 171.419 24.831 183.921 18.5269 200.173C12.2228 216.737 4.48593 244.554 5.34558 253.93C5.34558 253.93 3.33973 252.367 1.90698 243.928C0.474236 235.49 -0.671963 208.924 1.90698 192.984C4.19938 178.295 16.521 146.416 36.5795 124.85C56.638 103.285 75.2637 82.6573 101.913 65.155C128.562 47.6527 143.749 37.3388 174.983 25.7748C206.217 13.8983 210.802 13.2732 213.094 12.023C215.386 10.7729 216.533 10.4603 218.825 10.4603C221.117 10.4603 222.55 8.89762 224.556 8.27253C226.562 7.95999 250.919 1.08409 276.708 0.146467C302.784 -0.791156 324.275 2.95934 332.872 6.08475Z" fill="white"/>
<path opacity="0.75" d="M475.861 128.914C475.861 128.914 453.224 149.229 439.469 158.918C426.002 168.606 381.873 203.924 332.873 214.55C283.873 225.176 245.189 230.177 182.721 226.426C120.253 222.676 91.8847 205.799 81.8554 193.297C71.8262 180.796 61.7969 152.042 60.6507 138.602C60.6507 138.602 57.2121 172.357 56.9256 182.671C56.639 193.297 57.2121 223.926 80.9958 242.991C104.493 262.056 149.195 271.12 186.733 273.308C224.271 275.495 283.586 272.057 313.961 262.681C344.335 253.305 392.762 233.927 404.797 227.052C416.832 219.863 421.99 215.8 420.557 216.113C419.124 216.425 408.809 223.301 406.516 224.551C404.224 225.801 388.464 233.927 382.733 236.428C377.861 238.616 372.13 239.866 370.984 240.178C372.703 239.866 383.879 235.178 387.89 233.302C391.902 231.115 397.633 227.677 398.779 227.052C399.926 226.426 400.212 225.176 401.645 224.864C403.078 224.551 403.651 224.551 404.51 223.926C405.37 222.989 408.522 222.363 409.955 221.426C411.387 220.488 411.961 219.551 412.534 218.926C413.107 218.3 414.54 217.675 415.113 216.738C415.972 215.8 416.259 215.488 417.692 215.175C419.124 215.175 420.844 214.55 421.417 213.612C421.99 212.675 423.136 212.05 423.709 212.05C424.282 212.05 426.575 212.05 427.434 211.112C428.007 210.487 442.048 200.798 446.633 196.735C451.504 192.672 454.37 189.547 455.23 188.609C456.089 187.671 456.376 186.421 456.949 186.421C457.809 186.109 458.382 185.484 458.382 185.171C458.382 184.546 458.955 183.608 459.814 183.296C460.674 182.983 462.107 181.108 464.686 176.732C467.551 172.357 468.124 171.732 470.99 161.105C473.855 150.792 477.58 133.602 475.861 128.914ZM423.709 180.796C422.563 181.733 421.417 182.358 420.271 183.296C412.247 188.922 392.189 202.361 377.288 208.612C357.803 216.738 329.434 227.364 320.551 229.552C311.668 231.74 310.522 231.74 308.803 231.115C307.083 230.49 307.657 231.115 303.645 231.427C299.633 231.74 295.335 233.615 293.616 233.927C291.896 234.24 274.417 236.74 255.218 237.678C235.733 238.616 205.358 236.74 205.358 236.74C205.358 236.74 254.072 237.365 275.85 234.24C297.914 231.115 305.937 229.239 309.662 228.302C313.388 227.364 339.464 222.989 365.54 210.799C389.323 199.861 407.949 191.422 419.984 183.296C422.563 181.421 423.996 180.483 423.709 180.796Z" fill="white"/>
<path opacity="0.75" d="M549.502 119.538C548.356 113.912 547.496 105.161 543.771 97.6597C540.046 90.1587 525.432 71.7188 515.116 64.5303C504.8 57.3419 481.016 45.4653 461.531 37.9643C441.759 30.7759 429.437 29.2132 422.847 27.963C416.256 26.7129 408.233 25.1502 404.221 24.2125C400.209 23.5875 376.712 21.3997 368.402 20.4621C360.379 19.5244 347.198 18.2743 340.321 18.5868C333.73 18.8994 309.087 18.2743 305.075 17.9617C301.063 17.6492 290.461 17.0241 284.73 17.3366C278.999 17.6492 268.397 19.2119 262.666 19.837C256.935 20.4621 226.56 23.2749 218.25 26.0878C210.227 28.9007 206.502 29.2132 201.917 29.5257C197.619 29.8383 193.321 32.6512 192.174 32.6512C191.028 32.6512 169.824 38.2769 163.519 40.1521C157.215 42.0274 135.724 52.6538 123.116 60.1548C110.508 67.3432 97.8996 76.7194 90.1627 83.9079C82.4259 91.0963 76.6949 95.7844 69.2446 111.099C62.0809 126.101 60.075 137.04 58.9288 149.541C57.7826 162.043 55.7768 175.795 56.3499 187.359C56.923 198.923 58.9288 207.674 60.075 209.862C60.075 209.862 66.3791 154.855 105.35 122.663C144.034 90.4712 210.227 70.7812 296.478 63.2802C382.73 55.7792 471.847 83.5953 491.046 95.7844C491.046 95.7844 492.765 95.1593 486.461 91.7214C479.87 88.2834 471.274 85.158 471.274 85.158C471.274 85.158 477.578 85.4706 491.046 92.659C504.513 99.8475 512.537 106.723 518.554 112.349C524.285 117.662 530.876 125.476 533.455 134.54C536.034 143.291 538.04 156.417 538.04 166.419C538.04 176.42 536.321 182.983 537.18 181.421C538.04 179.858 544.344 164.543 547.209 149.541C549.788 134.54 550.648 125.163 549.502 119.538ZM453.794 47.3406C444.338 43.2775 436.888 42.3399 433.736 41.7148C430.584 41.0898 429.151 40.4647 425.999 40.1521C422.847 39.8396 426.572 38.902 423.133 38.2769C419.695 37.6518 415.11 37.6518 409.666 37.0267C404.221 36.4016 399.636 34.2139 393.046 34.2139C386.742 34.2139 375.28 31.7135 367.543 31.401C359.806 31.0884 351.783 30.7759 345.478 30.4634C339.174 30.1508 334.303 28.9007 328.285 28.9007C322.554 28.9007 314.818 28.2756 320.549 27.338C323.414 26.7129 334.303 26.4003 339.747 26.4003C344.905 26.4003 356.654 27.338 360.952 27.6505C365.25 27.963 416.829 33.2762 424.853 35.7766C432.876 38.2769 460.385 46.0904 471.56 50.466C482.449 54.8416 489.899 60.1548 489.899 60.1548C489.899 60.1548 463.25 51.4036 453.794 47.3406Z" fill="white"/>
<path opacity="0.75" d="M548.644 116.412C548.071 114.537 533.171 148.604 525.434 158.605C517.697 168.606 485.89 194.86 468.697 204.548C451.504 214.237 398.206 235.803 393.334 237.678C388.75 239.553 385.598 238.615 382.445 239.866C379.293 241.116 382.732 237.99 378.72 239.24C374.709 240.491 343.761 249.242 337.457 250.805C331.153 252.367 307.943 257.68 299.346 259.243C290.75 260.806 227.136 269.244 203.352 269.557C179.282 269.87 137.159 267.994 121.112 266.119C105.065 264.244 83.8607 259.868 68.1005 256.43C52.3403 252.992 39.4455 243.616 31.4221 237.678C23.3987 232.052 19.387 224.239 15.9485 216.738C12.7964 209.549 6.49231 188.609 6.49231 176.42C6.49231 176.42 1.04787 187.046 0.188221 205.486C-0.671428 223.926 1.04787 256.743 13.083 270.182C25.118 283.621 51.7672 301.124 89.3052 306.437C126.557 311.75 168.393 313 175.27 313C182.147 313 203.352 312.688 207.65 312.688C211.948 312.688 214.814 312.375 218.253 312.063C221.691 311.75 221.405 309.875 219.685 309.875C217.966 309.875 218.539 310.187 215.96 310.5C213.381 310.812 212.235 311.437 210.802 310.812C209.369 310.187 208.51 310.187 206.791 310.5C205.071 310.812 204.212 310.5 201.919 310.5C199.627 310.5 200.2 310.5 197.621 310.812C195.042 311.125 194.182 309.25 194.182 309.25C194.182 309.25 196.188 308.625 198.481 308.625C200.773 308.625 212.235 308.625 214.527 308.312C216.533 308 219.399 308 221.405 308.312C223.41 308.625 225.703 308.312 227.422 308.312C229.141 308.312 228.855 306.124 230.574 306.124C232.293 306.124 231.434 306.749 233.726 306.749C236.019 306.749 238.884 305.812 240.89 305.812C242.896 305.812 245.761 302.686 248.627 302.686C251.492 302.686 253.212 301.749 253.785 303.311C254.358 304.874 255.217 304.562 255.217 303.624C255.217 302.686 255.217 300.499 257.223 300.186C259.229 299.873 261.521 299.873 264.1 299.248C266.679 298.623 272.697 297.373 274.703 297.373C276.709 297.373 278.428 298.311 278.428 298.311C278.428 298.311 271.551 298.936 268.685 299.561C265.82 300.186 261.521 301.436 263.814 301.436C266.106 301.436 268.972 301.436 270.691 301.436C272.41 301.436 272.983 302.061 275.276 301.436C277.568 300.811 278.428 299.873 281.293 299.561C284.159 299.248 284.732 298.311 287.598 298.311C290.463 298.311 291.609 298.311 292.755 298.311C293.902 298.311 297.054 297.998 299.059 297.686C301.065 297.373 301.352 295.81 303.358 295.498C305.364 295.185 311.381 294.56 313.387 294.248C315.393 293.935 318.545 292.998 320.551 292.372C322.557 291.747 325.995 290.81 328.288 290.497C330.58 290.185 329.72 291.122 332.872 291.122C336.024 291.122 336.884 292.372 341.755 290.185C346.627 287.997 345.767 287.684 348.346 286.434C350.925 285.184 356.083 283.934 359.521 283.309C362.96 282.684 364.393 281.746 366.112 281.746C367.831 281.746 368.978 281.746 368.691 280.496C368.405 279.246 370.124 277.996 370.983 279.246C371.843 280.496 373.849 280.183 373.849 280.183C377.001 278.933 380.44 277.058 382.159 277.058C383.878 277.058 385.024 276.433 388.463 275.183C391.902 273.933 391.902 273.933 393.907 273.62C395.913 273.307 395.627 269.87 398.206 269.244C400.785 268.619 405.656 267.682 408.521 266.432C411.387 265.181 413.393 265.494 416.258 264.244C419.124 262.994 418.837 264.556 411.387 266.744C403.937 268.932 403.65 270.182 406.229 269.87C408.808 269.557 412.247 267.369 416.258 266.432C420.27 265.494 421.416 264.869 422.562 263.931C423.709 262.994 422.562 261.743 425.141 260.806C427.72 259.868 432.305 257.68 434.884 256.743C437.463 255.805 442.048 255.18 444.34 253.93C446.633 252.68 449.785 252.055 451.79 250.805C453.796 249.554 456.662 247.992 455.516 247.992C454.369 247.992 450.644 249.867 447.492 251.117C444.34 252.367 442.048 252.055 442.048 252.055C442.048 252.055 445.486 250.179 448.638 249.242C451.79 248.304 452.65 247.054 455.229 246.116C457.808 245.179 459.527 243.616 458.668 243.616C457.808 243.616 453.51 244.241 455.802 242.991C458.095 241.741 460.96 240.803 464.399 239.24C467.837 237.678 471.849 233.615 471.849 233.615C471.849 233.615 472.422 235.177 470.416 237.053C468.41 238.928 466.978 240.178 469.843 239.24C472.709 238.303 471.276 239.241 474.428 237.365C477.58 235.49 482.451 232.99 486.75 230.489C491.048 227.989 491.907 227.989 493.627 226.426C495.346 224.864 495.919 225.489 495.346 224.864C494.773 224.239 493.627 223.613 493.627 223.613C496.779 222.051 497.638 220.175 499.931 219.238C502.223 218.3 505.662 213.3 507.954 211.737C510.247 210.174 514.258 207.986 515.691 206.424C517.124 204.861 518.557 203.611 520.849 201.423C523.141 199.235 527.153 193.297 528.586 191.422C530.019 189.546 531.738 186.734 532.597 184.546C533.457 182.358 537.182 176.42 540.048 167.356C545.779 157.98 552.943 127.038 548.644 116.412ZM449.785 226.114C437.176 232.365 419.697 240.491 415.685 242.053C411.96 243.616 396.773 247.054 389.896 250.179C383.019 252.992 363.533 257.368 356.656 259.556C349.779 261.743 308.516 271.432 295.334 272.995C282.153 274.558 244.902 279.246 237.738 279.246C230.861 279.246 225.703 278.933 223.124 279.246C220.545 279.558 216.533 280.496 212.808 280.496C209.083 280.496 207.65 281.434 204.785 281.434C201.633 281.434 199.34 281.434 196.188 281.434C193.036 281.434 108.217 278.933 94.1765 272.682C91.8841 271.745 144.609 277.371 148.907 277.683C153.206 277.996 187.878 279.871 199.054 277.996C210.229 276.433 242.036 276.745 249.486 275.808C257.223 274.87 308.802 266.432 314.247 266.119C319.691 265.806 344.621 257.68 352.931 255.493C360.954 253.305 393.334 246.116 403.364 243.616C413.393 241.116 428.007 232.99 437.463 229.239C446.633 225.489 479.013 207.674 485.317 203.611C485.89 203.611 462.679 219.55 449.785 226.114Z" fill="white"/>
<path d="M286.83 104.856H273.725L183.767 81.1306C187.729 57.5575 202.307 38.5059 220.542 28.2435C222.269 27.2782 224.403 27.2782 226.13 28.2435C240.403 36.1181 253.102 50.9529 263.007 65.5337C271.54 77.8791 281.395 94.5429 286.83 104.856Z" fill="#FCDCB5"/>
<path d="M273.725 104.856C261.737 105.517 241.876 103.637 226.739 99.5726C220.949 98.2009 182.345 86.3635 183.767 81.1307C184.681 77.7776 204.999 80.4702 229.127 87.1256C253.204 93.7809 273.725 104.856 273.725 104.856Z" fill="#FCC583"/>
<path d="M264.633 104.907C253.306 104.551 238.778 102.773 226.74 99.5726C221.864 98.4041 206.422 93.6285 195.399 89.0053C218.816 87.8876 242.69 92.9172 264.633 104.907Z" fill="#C99A62"/>
<path d="M263.464 66.1434C245.178 44.5516 203.018 36.8294 184.224 78.692C190.522 47.5999 212.669 32.6634 220.542 28.2435C222.269 27.2782 224.402 27.2782 226.13 28.2435C240.403 36.1181 253.102 50.9529 263.007 65.5337C263.108 65.6861 263.21 65.7877 263.311 65.9402C263.362 65.991 263.413 66.0926 263.464 66.1434Z" fill="#FCC583"/>
<path d="M326.043 51.4103C319.389 73.7133 308.925 93.8318 303.693 104.348H286.322C282.004 95.6607 273.013 80.4195 267.07 62.7397C261.788 47.2952 257.724 30.0218 258.029 13.7645C258.08 11.7323 259.197 9.85255 260.924 8.83647C280.988 -2.79768 308.113 -2.84848 329.142 8.83647C330.615 9.64933 331.986 11.5291 332.037 13.7645C332.189 26.1607 329.701 39.1157 326.043 51.4103Z" fill="#FCDCB5"/>
<path d="M326.044 51.4104C319.39 73.7134 308.926 93.8318 303.694 104.348H289.065C306.59 91.2916 318.019 71.8337 326.044 51.4104Z" fill="#FFEFDC"/>
<path d="M329.396 9.03968C272.251 -1.07034 267.02 48.5145 267.02 62.7397C261.737 47.2952 257.673 30.0218 257.978 13.7645C258.029 11.7323 259.146 9.85255 260.873 8.83647C280.937 -2.79768 308.062 -2.84848 329.091 8.83647C329.193 8.88727 329.294 8.93808 329.396 9.03968Z" fill="#FCC583"/>
<path d="M407.009 80.0132L316.798 104.298H303.642C304.353 102.977 330.055 46.1268 363.377 27.1261C365.104 26.11 367.237 26.11 368.964 27.0245C388.977 37.9474 403.098 58.6755 407.009 80.0132Z" fill="#FCDCB5"/>
<path d="M364.291 99.0136C349.256 103.281 329.395 105.415 317.356 104.907C317.356 104.907 337.725 93.5776 361.751 86.6174C363.783 86.0078 365.764 85.4489 367.694 84.9409C389.028 79.1492 406.095 76.9646 407.01 80.0129C408.483 85.0425 372.215 97.0323 364.291 99.0136Z" fill="#FCC583"/>
<path d="M396.139 52.7311C382.729 48.6668 367.846 49.8353 354.588 54.7125C324.111 65.9402 310.041 91.6979 310.041 91.6979C319.54 73.6116 339.908 40.7414 363.477 27.1767C365.154 26.2114 367.185 26.1098 369.014 27.0751C374.5 30.0725 386.792 37.9471 396.139 52.7311Z" fill="#FCC583"/>
<path d="M364.291 99.0136C356.367 101.249 347.376 102.875 338.894 103.84C347.783 96.575 357.383 89.9705 367.694 84.9409C389.028 79.1492 406.095 76.9646 407.01 80.0129C408.483 85.0425 372.215 97.0323 364.291 99.0136Z" fill="#C99A62"/>
<path d="M172.743 130.615L177.873 285.872H412.902L418.032 112.122L172.743 130.615Z" fill="#FA9595"/>
<path d="M421.081 103.129L420.014 135.796H170.763L169.696 103.129H421.081Z" fill="#FA9595"/>
<path d="M173.15 142.502C256.403 162.773 382.07 212.155 412.903 285.872L417.322 135.796H172.947L173.15 142.502Z" fill="#F28282"/>
<path d="M172.947 135.796L173.15 142.502H417.119L417.322 135.796H172.947Z" fill="#E57676"/>
<path d="M263.769 103.129C251.578 106.787 251.883 124.111 252.898 142.502C254.067 163.688 257.368 189.75 249.089 213.577L231.006 191.173L209.418 210.732C215.005 192.951 204.796 118.37 220.034 103.129H263.769Z" fill="#E67676"/>
<path d="M263.768 103.129C236.085 103.129 258.79 172.375 244.314 203.315L229.583 187.617L206.675 203.315C215.056 183.603 198.954 107.346 220.034 103.129H263.768Z" fill="#FCDCB5"/>
<path d="M233.85 103.129C202.256 103.129 223.59 184.721 206.624 203.315C215.056 183.603 198.852 107.346 219.983 103.129H233.85Z" fill="#FCC583"/>
<path d="M322.793 103.129L318.78 285.872H315.885L320.812 103.129H322.793Z" fill="#E67676"/>
<path d="M269.966 103.129L274.893 285.872H315.884L320.812 103.129H269.966Z" fill="#FCDCB5"/>
<path d="M274.893 285.872C274.893 285.872 270.88 107.193 320.862 103.129H269.966L274.893 285.872Z" fill="#FCC583"/>
<path d="M317.408 230.292L315.935 285.872H297.191C311.973 285.872 316.138 251.884 317.408 230.292Z" fill="#E67676"/>
</svg>
