<svg width="268" height="210" viewBox="0 0 268 210" fill="none" xmlns="http://www.w3.org/2000/svg">
<g clip-path="url(#clip0_2054_249)">
<path opacity="0.75" d="M162.319 31.6422C163.996 32.2494 165.813 33.4639 165.114 33.6158C164.415 33.9194 165.114 35.1339 165.533 36.3484C165.952 37.563 164.555 36.8039 164.555 37.8666C164.555 38.9293 164.974 39.6884 164.276 40.1438C163.577 40.5993 163.996 41.2065 163.996 42.1174C163.996 43.1801 162.599 42.2692 161.9 43.6356C161.481 44.2428 161.9 44.8501 162.459 45.761C162.878 46.6719 162.599 47.431 161.341 47.2791C160.084 47.1273 158.547 47.7346 156.451 47.7346C154.355 47.7346 139.823 47.1273 136.05 47.431C132.277 47.7346 125.43 49.1009 123.754 49.4046C121.937 49.86 103.493 54.4145 92.0349 58.6653C80.577 62.9161 62.5517 72.0251 55.146 77.3386C47.7403 82.6521 31.3919 96.0119 24.6848 103.906C17.9777 111.953 12.109 118.025 9.03498 125.92C5.96091 133.966 2.18819 147.477 2.60738 152.032C2.60738 152.032 1.62926 151.273 0.930612 147.174C0.23196 143.075 -0.326962 130.17 0.930612 122.428C2.04846 115.292 8.05686 99.8073 17.838 89.332C27.6191 78.8568 36.7016 68.8369 49.6965 60.3353C62.6915 51.8336 70.0972 46.8237 85.3278 41.2065C100.558 35.4375 102.794 35.1339 103.912 34.5267C105.03 33.9194 105.589 33.7676 106.707 33.7676C107.824 33.7676 108.523 33.0085 109.501 32.7049C110.479 32.5531 122.356 29.2131 134.932 28.7577C147.648 28.3022 158.127 30.124 162.319 31.6422Z" fill="white"/>
<path opacity="0.75" d="M232.045 91.3054C232.045 91.3054 221.006 101.173 214.299 105.88C207.732 110.586 186.214 127.741 162.32 132.903C138.426 138.065 119.562 140.494 89.1008 138.672C58.6396 136.85 44.8063 128.652 39.9157 122.579C35.0252 116.507 30.1346 102.54 29.5757 96.0117C29.5757 96.0117 27.8989 112.408 27.7592 117.418C27.6194 122.579 27.8989 137.457 39.4965 146.718C50.9544 155.979 72.7524 160.381 91.0571 161.444C109.362 162.507 138.286 160.837 153.097 156.282C167.909 151.728 191.523 142.315 197.392 138.975C203.261 135.484 205.776 133.51 205.077 133.662C204.378 133.814 199.348 137.154 198.23 137.761C197.112 138.368 189.427 142.315 186.633 143.53C184.257 144.593 181.463 145.2 180.904 145.352C181.742 145.2 187.192 142.923 189.148 142.012C191.104 140.949 193.899 139.279 194.458 138.975C195.017 138.672 195.156 138.065 195.855 137.913C196.554 137.761 196.833 137.761 197.252 137.457C197.671 137.002 199.208 136.698 199.907 136.243C200.606 135.787 200.885 135.332 201.165 135.028C201.444 134.725 202.143 134.421 202.422 133.966C202.841 133.51 202.981 133.358 203.68 133.206C204.378 133.206 205.217 132.903 205.496 132.447C205.776 131.992 206.335 131.688 206.614 131.688C206.894 131.688 208.011 131.688 208.431 131.233C208.71 130.929 215.557 126.223 217.793 124.249C220.168 122.276 221.565 120.758 221.985 120.302C222.404 119.847 222.543 119.239 222.823 119.239C223.242 119.088 223.522 118.784 223.522 118.632C223.522 118.329 223.801 117.873 224.22 117.721C224.639 117.569 225.338 116.659 226.596 114.533C227.993 112.408 228.272 112.104 229.67 106.942C231.067 101.932 232.883 93.5827 232.045 91.3054ZM206.614 116.507C206.055 116.962 205.496 117.266 204.937 117.721C201.025 120.454 191.244 126.982 183.978 130.018C174.476 133.966 160.643 139.127 156.311 140.19C151.98 141.253 151.421 141.253 150.582 140.949C149.744 140.645 150.023 140.949 148.067 141.101C146.111 141.253 144.015 142.164 143.177 142.315C142.338 142.467 133.815 143.682 124.453 144.137C114.951 144.593 100.14 143.682 100.14 143.682C100.14 143.682 123.894 143.985 134.513 142.467C145.272 140.949 149.185 140.038 151.001 139.583C152.818 139.127 165.533 137.002 178.249 131.081C189.847 125.768 198.929 121.669 204.798 117.721C206.055 116.81 206.754 116.355 206.614 116.507Z" fill="white"/>
<path opacity="0.75" d="M267.955 86.7514C267.396 84.0188 266.977 79.7679 265.16 76.1243C263.344 72.4808 256.218 63.5237 251.187 60.0319C246.157 56.5402 234.559 50.7712 225.058 47.1276C215.416 43.6358 209.408 42.8768 206.194 42.2695C202.98 41.6622 199.068 40.9032 197.112 40.4477C195.155 40.1441 183.698 39.0814 179.645 38.6259C175.733 38.1705 169.305 37.5632 165.952 37.715C162.738 37.8669 150.721 37.5632 148.765 37.4114C146.809 37.2596 141.639 36.956 138.844 37.1078C136.049 37.2596 130.879 38.0187 128.085 38.3223C125.29 38.6259 110.479 39.9923 106.427 41.3586C102.514 42.725 100.698 42.8768 98.4619 43.0286C96.366 43.1804 94.27 44.5467 93.7111 44.5467C93.1522 44.5467 82.8121 47.2794 79.7381 48.1903C76.664 49.1012 66.1842 54.2629 60.0361 57.9065C53.8879 61.3983 47.7398 65.9527 43.9671 69.4445C40.1943 72.9362 37.3997 75.2135 33.7667 82.6524C30.2735 89.9396 29.2954 95.2531 28.7364 101.326C28.1775 107.398 27.1994 114.078 27.4789 119.695C27.7583 125.313 28.7364 129.563 29.2954 130.626C29.2954 130.626 32.3694 103.907 51.3728 88.2696C70.2364 72.6326 102.514 63.0682 144.573 59.4247C186.632 55.7811 230.088 69.2927 239.45 75.2135C239.45 75.2135 240.288 74.9098 237.214 73.2399C234 71.5699 229.809 70.0517 229.809 70.0517C229.809 70.0517 232.883 70.2035 239.45 73.6953C246.017 77.1871 249.93 80.527 252.864 83.2597C255.659 85.8405 258.873 89.6359 260.13 94.0386C261.388 98.2894 262.366 104.666 262.366 109.524C262.366 114.382 261.527 117.57 261.947 116.811C262.366 116.052 265.44 108.613 266.837 101.326C268.095 94.0386 268.514 89.4841 267.955 86.7514ZM221.285 51.6821C216.674 49.7085 213.041 49.253 211.504 48.9494C209.967 48.6458 209.268 48.3421 207.731 48.1903C206.194 48.0385 208.011 47.583 206.334 47.2794C204.657 46.9758 202.421 46.9758 199.767 46.6722C197.112 46.3685 194.876 45.3058 191.662 45.3058C188.588 45.3058 182.999 44.0913 179.226 43.9395C175.453 43.7877 171.541 43.6358 168.467 43.484C165.393 43.3322 163.017 42.725 160.083 42.725C157.288 42.725 153.516 42.4213 156.31 41.9659C157.708 41.6622 163.017 41.5104 165.672 41.5104C168.187 41.5104 173.916 41.9659 176.012 42.1177C178.108 42.2695 203.26 44.8504 207.172 46.0649C211.085 47.2794 224.499 51.0748 229.948 53.2002C235.258 55.3256 238.891 57.9065 238.891 57.9065C238.891 57.9065 225.896 53.6557 221.285 51.6821Z" fill="white"/>
<path opacity="0.75" d="M267.536 85.2332C267.256 84.3223 259.991 100.87 256.218 105.728C252.445 110.586 236.935 123.339 228.551 128.045C220.167 132.751 194.177 143.227 191.802 144.138C189.566 145.048 188.029 144.593 186.492 145.2C184.955 145.808 186.632 144.289 184.676 144.897C182.72 145.504 167.629 149.755 164.555 150.514C161.48 151.273 150.162 153.854 145.97 154.613C141.778 155.372 110.758 159.471 99.1607 159.623C87.4233 159.775 66.883 158.864 59.058 157.953C51.2331 157.042 40.8931 154.916 33.2079 153.247C25.5227 151.577 19.2349 147.022 15.3224 144.138C11.41 141.405 9.45373 137.61 7.77696 133.966C6.23992 130.474 3.16585 120.303 3.16585 114.382C3.16585 114.382 0.510974 119.543 0.0917826 128.501C-0.327409 137.458 0.510974 153.398 6.37965 159.926C12.2483 166.454 25.2433 174.956 43.548 177.537C61.7129 180.118 82.1136 180.725 85.4671 180.725C88.8206 180.725 99.1607 180.573 101.257 180.573C103.353 180.573 104.75 180.421 106.427 180.27C108.103 180.118 107.964 179.207 107.125 179.207C106.287 179.207 106.566 179.359 105.309 179.511C104.051 179.662 103.492 179.966 102.794 179.662C102.095 179.359 101.676 179.359 100.837 179.511C99.9991 179.662 99.5799 179.511 98.462 179.511C97.3442 179.511 97.6237 179.511 96.3661 179.662C95.1085 179.814 94.6893 178.903 94.6893 178.903C94.6893 178.903 95.6674 178.6 96.7853 178.6C97.9031 178.6 103.492 178.6 104.61 178.448C105.588 178.296 106.986 178.296 107.964 178.448C108.942 178.6 110.06 178.448 110.898 178.448C111.736 178.448 111.597 177.385 112.435 177.385C113.273 177.385 112.854 177.689 113.972 177.689C115.09 177.689 116.487 177.233 117.465 177.233C118.444 177.233 119.841 175.715 121.238 175.715C122.635 175.715 123.474 175.26 123.753 176.019C124.033 176.778 124.452 176.626 124.452 176.171C124.452 175.715 124.452 174.652 125.43 174.501C126.408 174.349 127.526 174.349 128.784 174.045C130.041 173.742 132.975 173.134 133.954 173.134C134.932 173.134 135.77 173.59 135.77 173.59C135.77 173.59 132.417 173.893 131.019 174.197C129.622 174.501 127.526 175.108 128.644 175.108C129.762 175.108 131.159 175.108 131.997 175.108C132.836 175.108 133.115 175.412 134.233 175.108C135.351 174.804 135.77 174.349 137.167 174.197C138.565 174.045 138.844 173.59 140.241 173.59C141.639 173.59 142.198 173.59 142.757 173.59C143.316 173.59 144.853 173.438 145.831 173.286C146.809 173.134 146.949 172.375 147.927 172.223C148.905 172.072 151.839 171.768 152.817 171.616C153.795 171.464 155.332 171.009 156.31 170.705C157.289 170.402 158.965 169.946 160.083 169.794C161.201 169.643 160.782 170.098 162.319 170.098C163.856 170.098 164.275 170.705 166.651 169.643C169.026 168.58 168.607 168.428 169.864 167.821C171.122 167.214 173.637 166.606 175.314 166.303C176.991 165.999 177.689 165.544 178.528 165.544C179.366 165.544 179.925 165.544 179.785 164.936C179.645 164.329 180.484 163.722 180.903 164.329C181.322 164.936 182.3 164.784 182.3 164.784C183.837 164.177 185.514 163.266 186.353 163.266C187.191 163.266 187.75 162.963 189.427 162.355C191.103 161.748 191.103 161.748 192.081 161.596C193.06 161.445 192.92 159.775 194.177 159.471C195.435 159.167 197.81 158.712 199.208 158.105C200.605 157.497 201.583 157.649 202.98 157.042C204.378 156.435 204.238 157.194 200.605 158.256C196.972 159.319 196.832 159.926 198.09 159.775C199.347 159.623 201.024 158.56 202.98 158.105C204.937 157.649 205.496 157.346 206.055 156.89C206.613 156.435 206.055 155.827 207.312 155.372C208.57 154.916 210.805 153.854 212.063 153.398C213.321 152.943 215.556 152.639 216.674 152.032C217.792 151.425 219.329 151.121 220.307 150.514C221.285 149.907 222.682 149.147 222.124 149.147C221.565 149.147 219.748 150.058 218.211 150.666C216.674 151.273 215.556 151.121 215.556 151.121C215.556 151.121 217.233 150.21 218.77 149.755C220.307 149.299 220.726 148.692 221.984 148.237C223.241 147.781 224.08 147.022 223.661 147.022C223.241 147.022 221.145 147.326 222.263 146.718C223.381 146.111 224.778 145.656 226.455 144.897C228.132 144.138 230.088 142.164 230.088 142.164C230.088 142.164 230.368 142.923 229.39 143.834C228.411 144.745 227.713 145.352 229.11 144.897C230.507 144.441 229.809 144.897 231.346 143.986C232.883 143.075 235.258 141.86 237.354 140.646C239.45 139.431 239.869 139.431 240.708 138.672C241.546 137.913 241.826 138.217 241.546 137.913C241.267 137.61 240.708 137.306 240.708 137.306C242.245 136.547 242.664 135.636 243.782 135.18C244.9 134.725 246.576 132.296 247.694 131.537C248.812 130.778 250.768 129.715 251.467 128.956C252.166 128.197 252.864 127.59 253.982 126.527C255.1 125.464 257.056 122.58 257.755 121.669C258.453 120.758 259.292 119.392 259.711 118.329C260.13 117.266 261.947 114.382 263.344 109.979C266.139 105.425 269.632 90.3949 267.536 85.2332ZM219.329 138.52C213.181 141.557 204.657 145.504 202.701 146.263C200.885 147.022 193.479 148.692 190.125 150.21C186.772 151.577 177.27 153.702 173.917 154.765C170.563 155.827 150.442 160.534 144.014 161.293C137.587 162.052 119.422 164.329 115.928 164.329C112.575 164.329 110.06 164.177 108.802 164.329C107.545 164.481 105.588 164.936 103.772 164.936C101.955 164.936 101.257 165.392 99.8593 165.392C98.3223 165.392 97.2045 165.392 95.6674 165.392C94.1304 165.392 52.7702 164.177 45.9234 161.141C44.8055 160.685 70.5159 163.418 72.6119 163.57C74.7079 163.722 91.6152 164.633 97.0647 163.722C102.514 162.963 118.024 163.115 121.657 162.659C125.43 162.204 150.582 158.105 153.236 157.953C155.891 157.801 168.048 153.854 172.1 152.791C176.012 151.728 191.802 148.237 196.693 147.022C201.583 145.808 208.709 141.86 213.321 140.039C217.792 138.217 233.581 129.563 236.656 127.59C236.935 127.59 225.617 135.332 219.329 138.52Z" fill="white"/>
</g>
<path d="M127.403 76.9842H117.762L51.582 59.5499C54.4968 42.2276 65.2216 28.2279 78.6369 20.6868C79.9074 19.9775 81.4769 19.9775 82.7475 20.6868C93.248 26.4733 102.59 37.3744 109.877 48.0888C116.155 57.1606 123.405 69.4057 127.403 76.9842Z" fill="#FCDCB5"/>
<path d="M117.762 76.9839C108.943 77.4692 94.3316 76.0879 83.1958 73.1013C78.9357 72.0934 50.5356 63.3949 51.5819 59.5497C52.2545 57.0857 67.202 59.0643 84.9521 63.9549C102.665 68.8454 117.762 76.9839 117.762 76.9839Z" fill="#FCC583"/>
<path d="M111.073 77.0212C102.74 76.7599 92.0525 75.4533 83.1961 73.1013C79.6087 72.2427 68.2486 68.7334 60.1396 65.3362C77.3666 64.5148 94.9298 68.2108 111.073 77.0212Z" fill="#C99A62"/>
<path d="M110.213 48.5368C96.7603 32.6705 65.7444 26.996 51.918 57.7579C56.5517 34.9105 72.8444 23.9347 78.6365 20.6868C79.9071 19.9775 81.4765 19.9775 82.7471 20.6868C93.2477 26.4733 102.59 37.3744 109.877 48.0888C109.951 48.2008 110.026 48.2755 110.101 48.3875C110.138 48.4248 110.176 48.4995 110.213 48.5368Z" fill="#FCC583"/>
<path d="M156.251 37.7105C151.355 54.0995 143.657 68.8831 139.808 76.6109H127.028C123.852 70.2271 117.238 59.0273 112.866 46.0356C108.979 34.6866 105.99 21.9935 106.214 10.0471C106.251 8.55381 107.073 7.17251 108.344 6.42586C123.105 -2.12328 143.059 -2.16061 158.53 6.42586C159.614 7.02318 160.623 8.40448 160.66 10.0471C160.772 19.1562 158.941 28.676 156.251 37.7105Z" fill="#FCDCB5"/>
<path d="M156.25 37.7109C151.355 54.0999 143.657 68.8836 139.808 76.6114H129.046C141.938 67.0169 150.346 52.7186 156.25 37.7109Z" fill="#FFEFDC"/>
<path d="M158.717 6.57519C116.677 -0.853973 112.828 35.5825 112.828 46.0356C108.942 34.6866 105.953 21.9935 106.177 10.0471C106.214 8.55381 107.036 7.17251 108.307 6.42586C123.067 -2.12328 143.022 -2.16061 158.493 6.42586C158.568 6.4632 158.642 6.50053 158.717 6.57519Z" fill="#FCC583"/>
<path d="M215.817 58.729L149.45 76.5739H139.771C140.295 75.6032 159.203 33.8282 183.717 19.8658C184.988 19.1192 186.557 19.1192 187.828 19.7912C202.551 27.8177 212.939 43.0493 215.817 58.729Z" fill="#FCDCB5"/>
<path d="M184.39 72.6905C173.329 75.8264 158.718 77.3944 149.861 77.021C149.861 77.021 164.846 68.6959 182.522 63.5813C184.016 63.1334 185.474 62.7227 186.894 62.3494C202.588 58.0935 215.144 56.4882 215.817 58.7281C216.901 62.424 190.219 71.2345 184.39 72.6905Z" fill="#FCC583"/>
<path d="M207.82 38.6808C197.955 35.6942 187.006 36.5529 177.253 40.1368C154.832 48.3873 144.48 67.3148 144.48 67.3148C151.468 54.0245 166.453 29.8704 183.792 19.9026C185.025 19.1933 186.52 19.1186 187.865 19.8279C191.901 22.0305 200.944 27.8171 207.82 38.6808Z" fill="#FCC583"/>
<path d="M184.389 72.6905C178.56 74.3331 171.946 75.5277 165.705 76.2371C172.245 70.8985 179.307 66.0453 186.893 62.3494C202.588 58.0935 215.144 56.4882 215.816 58.7281C216.9 62.424 190.219 71.2345 184.389 72.6905Z" fill="#C99A62"/>
<path d="M43.4727 95.9115L47.2469 210H220.151L223.926 82.3225L43.4727 95.9115Z" fill="#FA9595"/>
<path d="M226.168 75.7146L225.383 99.7194H42.0152L41.2305 75.7146H226.168Z" fill="#FA9595"/>
<path d="M43.7715 104.647C105.019 119.543 197.469 155.83 220.151 209.999L223.403 99.7192H43.6221L43.7715 104.647Z" fill="#F28282"/>
<path d="M43.6221 99.7192L43.7715 104.647H223.253L223.403 99.7192H43.6221Z" fill="#E57676"/>
<path d="M110.438 75.7144C101.469 78.4023 101.693 91.1327 102.441 104.647C103.3 120.215 105.729 139.366 99.638 156.875L86.3348 140.412L70.4531 154.785C74.5637 141.718 67.0526 86.9141 78.2632 75.7144H110.438Z" fill="#E67676"/>
<path d="M110.437 75.7144C90.071 75.7144 106.775 126.599 96.1247 149.334L85.2878 137.798L68.4346 149.334C74.6004 134.849 62.7545 78.813 78.2625 75.7144H110.437Z" fill="#FCDCB5"/>
<path d="M88.427 75.7146C65.1838 75.7146 80.8786 135.671 68.3975 149.334C74.6007 134.849 62.6801 78.8132 78.2254 75.7146H88.427Z" fill="#FCC583"/>
<path d="M153.859 75.7144L150.907 209.999H148.777L152.402 75.7144H153.859Z" fill="#E67676"/>
<path d="M114.996 75.7146L118.621 210H148.777L152.402 75.7146H114.996Z" fill="#FCDCB5"/>
<path d="M118.621 210C118.621 210 115.669 78.7012 152.439 75.7146H114.996L118.621 210Z" fill="#FCC583"/>
<path d="M149.898 169.158L148.814 209.999H135.025C145.9 209.999 148.964 185.024 149.898 169.158Z" fill="#E67676"/>
<defs>
<clipPath id="clip0_2054_249">
<rect width="268" height="152.259" fill="white" transform="translate(0 28.6865)"/>
</clipPath>
</defs>
</svg>
