<svg width="122" height="22" fill="none" xmlns="http://www.w3.org/2000/svg"><path opacity=".75" d="M121.896 15.949c-.301-.063-.422-.188-.784-.188-.422-.062-.723-.187-.904-.375-.181-.125-.483-.188-.302-.438.242-.25.422-.625.181-.625s-.784-.125-1.085-.25c-.302-.063-.543-.188-.784-.313-.302-.125-.603-.313-.482-.563.12-.25-.242-.438-.483-.5-.241-.063-3.196-.626-4.1-.814-.905-.187-2.171-.375-3.377-.813-1.266-.437-2.412-.875-3.076-2.251-.663-1.376-.783-2.19-1.085-2.627-.301-.438-.603-1.439-1.085-1.689-.483-.313-.483-.563-.845-.5-.361.062-.663.25-.964.375-.362.125-1.146.5-1.448.626-.301.187-.361.375-.783.375-.423 0-1.81.875-2.292 1.188-.482.313-2.05 1.376-2.472 1.564-.362.187-.905.75-1.327.875-.422.188-.784.5-1.387.688-.603.25-2.472 1.376-3.377 1.752-.904.375-2.894 1.063-3.678.938-.784-.125-1.568-1.751-1.87-2.565-.3-.813-1.627-3.877-2.592-4.378-1.025-.563-1.568-.437-1.99-.312-.422.125-1.086.563-1.266.625-.181.063-1.267.563-1.75.75-.482.188-1.326.438-1.868.689-.543.25-1.146.437-1.327.437-.12 0-.724-.375-1.025-.187-.362.187-1.025.438-1.267.563-.24.187-.663.312-.723.438 0 .125.18.187.362.125.18-.063.361-.188.663-.313.301-.063.844-.25.724-.188-.121.063-.724.5-1.026.626-.301.125-.24.25-.844.375-.603.188-.965.062-.784-.063.181-.125.422-.312.242-.375-.181-.062-.302 0-.543.188-.241.187-.422.187-.965.312-.543.126-.724.25-1.025.5-.302.251-.905.251-1.085.314-.121.062-.604.187-.905.187-.302 0-.483-.25-1.086 0-.663.25-2.11.688-2.592.75-.543.063-1.086-.187-1.387-.5-.302-.25-2.774-5.253-3.256-5.816-.543-.563-2.171-2.502-2.593-2.627-.362-.125-1.568-.188-2.413.125-.844.313-2.954 1-4.04 1.689-.965.875-6.21 4.378-8.562 5.754-2.352 1.376-4.1 2.376-4.583 2.564-.543.188-.784.188-1.086.313-.301.125-.542-.063-.24-.188.3-.125 1.446-.75 1.929-.938.482-.25 1.387-.876 1.87-1.063.481-.188.24-.25-.302 0-.543.25-1.267.438-1.81.75-.542.313-1.507.626-1.808.876-.362.25-1.75.75-3.317.938-1.568.125-3.377-.375-3.678-.563a54.944 54.944 0 0 1-.845-.688s-.361-2.44-.784-3.19c-.422-.813-3.437-5.316-4.1-6.191C19.686 1.25 18.48 0 17.154 0c-1.327 0-3.8 1.439-5.367 2.44-1.568 1.062-7.839 6.754-9.045 7.942C1.114 12.01-.213 13.134.028 14.385c.181 1.251 1.689 4.316 2.533 5.379.844 1.063 1.146 1.876 2.533.688s5.668-6.63 8.864-9.006c3.196-2.377 6.452-4.441 7.176-2.565.784 1.877 3.558 7.568 5.005 9.82 1.447 2.251 6.572 3.94 11.638 1.5 5.065-2.438 11.517-7.067 13.688-8.255 2.231-1.188 4.221-1.188 4.583-1.063.422.125 2.834 6.317 3.256 7.443.422 1.063 3.739 3.564 7.658 1.813 2.352-1 7.176-3.502 11.035-4.753 2.593-.876 4.764-1 5.126-.313.904 1.751 1.326 5.442 2.834 6.317 1.508.876 2.714.688 3.98.188 1.326-.5 1.93-.813 2.472-1.376.483-.563 2.171-1.877 2.955-2.064.784-.188 4.522-2.564 5.427-2.877.905-.313 2.593-1.376 2.593-1.376s.663-.313.844-.375c.121-.063.483-.126.603-.063.121.063.121.313 0 .313-.12 0-6.03 3.315-6.693 3.69-.603.375-2.533 1.501-2.955 1.689-.362.125-1.146.625-1.568.813-.422.187-.362.5-.06.375.301-.125 3.739-1.814 4.522-2.252.784-.438 3.136-1.938 3.739-2.314.603-.375.965-.5 1.508-.688.542-.187 1.145-.563 1.206-.563.06-.062.482-.312.603-.312.06 0 .241.437.241.563 0 .125 1.688 3.377 2.593 4.127.965.751 1.929 1.189 2.472 1.502.603.312.724.375 1.206.312.483-.062.603-.125.724-.25.12-.125.06-.188.362-.063a8.066 8.066 0 0 0 2.11.563c1.025.125 1.689.125 2.111.125.422-.062.844-.062.663-.062-.181-.063-1.206 0-1.99-.25s-1.266-.125-1.869-.375-.483-.438 0-.5c.542 0 1.99.374 2.713.5.784.125 1.749.062 2.352.125.543.062 1.025.062 1.085 0 .121-.125.121-.188.362-.188.302 0 .483-.063.784-.063.302-.062.603-.187.06-.25-.603-.062-1.387-.25-1.688-.313a6.383 6.383 0 0 1-1.025-.312c-.302-.125-.543-.25-.603-.313-.121-.063.241-.313.723-.313.483 0 1.146.125 1.568.125.422 0 1.568.188 1.508 0-.061-.187-.422-.187-.724-.312-.241-.063-.422-.188-.663-.25-.241-.063-.543-.313-.422-.376.12-.062.422-.125.301-.25-.06-.125-.362-.563-.06-.688.301-.125.482-.375.724-.375.241 0 .542-.188.723-.188.302-.25.724-.375.422-.5ZM14.742 1.5c-.181.25-.603.688-1.086 1-.482.313-3.135 2.44-3.738 2.69-.664.313-2.231 1.94-2.593 2.314-.422.313-1.387 1.126-1.99 1.689-.663.563-1.447 1.063-1.447 1.063.12-.062 2.713-3.064 5.427-5.128 2.653-2.064 3.437-2.565 4.04-3.002.663-.376.723-.438 1.085-.626.302-.188.483-.25.302 0Zm30.994 12.697c-.12.125-.422.25-.663.375-.18.125-.422.125-.603.313-.12.187-.362.187-.362.062s0-.438.242-.5a3.23 3.23 0 0 0 .723-.25c.12-.063.302-.25.422-.25.181-.063.422.062.241.25Zm2.714-1.752c-.241.125-.724.563-.905.626-.18.062-.361.187-.542.438-.181.25-.362.25-.483.312-.18.063-.24-.25-.06-.375.18-.063.482-.5.663-.625.181-.125.302-.188.664-.376.422-.25.482-.375.723-.312.242.125.181.125-.06.312Zm2.713-8.818c-.783.25-1.447.562-3.678 1.813-2.291 1.251-5.427 3.503-5.97 3.753-.482.188-.482-.25-.24-.375.24-.125.24-.188 1.085-.75.784-.564 2.713-1.69 3.98-2.565 1.266-.876 3.497-1.751 4.16-1.939.663-.188 1.508-.125 1.508-.125s-.06-.063-.845.188Zm20.865 5.566c.542-.25 1.628-.688 2.11-.813.483-.125-.362.313-.603.438-.301.125-.482.312-.663.5-.181.188-.844.313-1.086.313-.301.062-.12-.188.242-.438Zm-1.87 7.943c.241-.062.844-.313.965-.375.18-.063 1.206-.375 1.508-.5.361-.125.542-.376.844-.5.301-.126.422-.126.965-.376.482-.25.784-.375 1.025-.438.18-.062 1.206-.625 1.447-.625.241 0 .784-.125.904-.188.121-.063.362-.063.302 0-.06.125-.302.438-.483.5-.18.063-.964.313-1.206.438-.301.063-.964.25-1.447.438-.482.188-1.206.626-1.628.813-.422.125-.904.25-1.326.5-.423.188-.423.188-.965.438-.543.25-.844.438-.844.438-.242.125-.483.125-.483-.063-.12-.187.181-.5.422-.5Zm3.437-.25c-2.291 1.126-3.497 1.626-4.462 2.001-.965.376-1.326.313-1.326.313s1.206-.563 1.748-.75c.543-.188 4.04-1.877 5.729-2.565 1.387-.625 1.266-.5 2.17-.813.724-.25.845 0 .845 0s-2.412.688-4.704 1.814Zm29.427-12.009c-.06.313 0 .313-.362.626-.422.25-.844.75-.603.625.242-.125.181.25-.12.5-.302.25-.543.25-1.086.501-.542.25-.784.5-1.507.626-.663.125-1.387.625-2.171 1.063-.784.5-2.11 1.25-2.895 1.688-.783.438-1.206.188-1.507.5-.302.313-.422.188-.844.251s-.302-.25-.302-.25c.242-.188.664-.438.965-.563.241-.188 1.206-.5 1.568-.626.362-.187.965-.625 1.206-.75s1.085-.813 1.327-1c.24-.188 1.507-.939 1.93-1.127.421-.187 1.024-.5 1.326-.562.301-.063.844-.376 1.146-.5.301-.126.783-.501.964-.626.181-.125.362-.25.603-.376.302-.187.483-.375.362 0Z" fill="#FDD771"/></svg>