<svg width="254" height="158" fill="none" xmlns="http://www.w3.org/2000/svg"><path opacity=".75" d="M153.469 3.783c1.581.627 3.295 1.882 2.636 2.038-.659.314 0 1.568.395 2.822.396 1.254-.922.47-.922 1.568 0 1.097.395 1.881-.264 2.351s-.264 1.098-.264 2.039c0 1.097-1.318.156-1.977 1.567-.395.627 0 1.254.527 2.195.396.94.132 1.724-1.054 1.568-1.186-.157-2.636.47-4.614.47-1.977 0-15.685-.627-19.244-.314-3.559.314-10.018 1.725-11.6 2.038-1.713.47-19.112 5.174-29.921 9.564-10.809 4.39-27.813 13.795-34.799 19.282-6.986 5.487-22.408 19.283-28.735 27.435-6.327 8.309-11.863 14.58-14.763 22.732-2.9 8.309-6.459 22.261-6.063 26.964 0 0-.923-.783-1.582-5.016s-1.186-17.558 0-25.554c1.055-7.368 6.723-23.359 15.95-34.176C26.4 52.54 34.968 42.192 47.227 33.413 59.486 24.633 66.472 19.46 80.84 13.66 95.207 7.703 97.317 7.39 98.37 6.762c1.055-.627 1.582-.784 2.636-.784 1.055 0 1.714-.784 2.636-1.097.923-.157 12.127-3.606 23.99-4.076 11.995-.47 21.881 1.41 25.836 2.978Z" fill="#FFCA42"/><path opacity=".75" d="M219.242 65.397s-10.413 10.19-16.74 15.05c-6.195 4.86-26.494 22.575-49.034 27.905-22.54 5.33-40.335 7.838-69.07 5.957C55.663 112.428 42.614 103.962 38 97.691c-4.613-6.27-9.227-20.693-9.754-27.434 0 0-1.582 16.93-1.713 22.104-.132 5.33.131 20.694 11.072 30.257 10.808 9.563 31.371 14.109 48.639 15.207 17.267 1.097 44.552-.627 58.524-5.331 13.972-4.703 36.249-14.422 41.785-17.871 5.536-3.606 7.909-5.644 7.25-5.487-.659.156-5.405 3.605-6.459 4.232-1.055.627-8.304 4.704-10.941 5.958-2.24 1.097-4.877 1.724-5.404 1.881.791-.157 5.932-2.508 7.777-3.449 1.845-1.097 4.482-2.822 5.009-3.135.527-.314.659-.941 1.318-1.098.659-.157.923-.157 1.318-.47.396-.47 1.845-.784 2.505-1.254.659-.471.922-.941 1.186-1.254.263-.314.923-.628 1.186-1.098.396-.47.527-.627 1.186-.784.66 0 1.45-.313 1.714-.784.264-.47.791-.783 1.055-.783.263 0 1.318 0 1.713-.471.264-.313 6.723-5.173 8.832-7.211 2.24-2.038 3.558-3.606 3.954-4.076.395-.47.527-1.098.791-1.098.395-.156.659-.47.659-.627 0-.313.264-.783.659-.94.395-.157 1.054-1.098 2.241-3.293 1.318-2.194 1.581-2.508 2.9-7.838 1.318-5.173 3.031-13.796 2.24-16.147ZM195.253 91.42c-.528.47-1.055.784-1.582 1.255-3.691 2.822-12.918 9.563-19.772 12.698-8.963 4.076-22.013 9.406-26.099 10.504-4.086 1.097-4.613 1.097-5.404.784-.791-.314-.528 0-2.373.156-1.845.157-3.822 1.098-4.613 1.255-.791.156-8.832 1.41-17.663 1.881-8.964.47-22.936-.471-22.936-.471s22.409.314 32.426-1.254c10.15-1.567 13.841-2.508 15.554-2.978 1.714-.471 13.709-2.665 25.704-8.779 10.94-5.487 19.508-9.72 25.044-13.796 1.186-.94 1.845-1.411 1.714-1.254Z" fill="#FFCA42"/><path opacity=".75" d="M253.121 60.691c-.527-2.822-.922-7.211-2.636-10.974-1.713-3.762-8.436-13.012-13.181-16.617-4.745-3.606-15.686-9.563-24.649-13.326-9.095-3.606-14.763-4.39-17.795-5.017-3.031-.627-6.722-1.41-8.568-1.88-1.845-.314-12.654-1.412-16.476-1.882-3.691-.47-9.754-1.097-12.918-.94-3.031.156-14.367-.157-16.213-.314-1.845-.157-6.722-.47-9.358-.314-2.637.157-7.514.94-10.15 1.255-2.636.313-16.608 1.724-20.431 3.135-3.69 1.41-5.404 1.568-7.513 1.724-1.977.157-3.955 1.568-4.482 1.568-.527 0-10.281 2.822-13.181 3.763-2.9.94-12.786 6.27-18.586 10.033-5.8 3.606-11.6 8.309-15.158 11.914-3.56 3.606-6.195 5.958-9.623 13.64-3.295 7.524-4.218 13.011-4.745 19.282-.527 6.271-1.45 13.169-1.186 18.97.264 5.8 1.186 10.19 1.713 11.287 0 0 2.9-27.592 20.827-43.739 17.795-16.147 48.243-26.024 87.919-29.786 39.675-3.763 80.669 10.19 89.501 16.304 0 0 .791-.314-2.109-2.038-3.032-1.725-6.986-3.292-6.986-3.292s2.899.156 9.095 3.762c6.195 3.606 9.886 7.055 12.654 9.877 2.636 2.665 5.668 6.584 6.854 11.13 1.186 4.39 2.109 10.974 2.109 15.99 0 5.017-.791 8.31-.396 7.526.396-.784 3.296-8.466 4.614-15.99 1.186-7.526 1.582-12.229 1.054-15.05Zm-44.025-36.214c-4.35-2.038-7.777-2.508-9.227-2.822-1.45-.313-2.109-.627-3.559-.783-1.45-.157.264-.628-1.318-.941-1.582-.314-3.691-.314-6.195-.627-2.505-.314-4.614-1.411-7.645-1.411-2.9 0-8.173-1.254-11.732-1.411-3.559-.157-7.249-.314-10.149-.47-2.9-.157-5.141-.784-7.909-.784-2.636 0-6.195-.314-3.559-.784 1.318-.314 6.327-.47 8.832-.47 2.372 0 7.777.47 9.754.627 1.977.156 25.703 2.822 29.394 4.076 3.691 1.254 16.345 5.173 21.485 7.368 5.009 2.195 8.436 4.86 8.436 4.86s-12.258-4.39-16.608-6.428Z" fill="#FFCA42"/><path opacity=".75" d="M252.726 59.123c-.263-.94-7.117 16.147-10.676 21.164-3.559 5.016-18.191 18.185-26.099 23.045-7.909 4.86-32.426 15.677-34.667 16.618-2.109.94-3.559.47-5.009 1.097-1.45.627.132-.941-1.713-.313-1.846.627-16.082 5.016-18.981 5.8-2.9.784-13.577 3.449-17.532 4.233-3.954.784-33.216 5.017-44.157 5.173-11.072.157-30.448-.784-37.83-1.724-7.381-.941-17.136-3.136-24.385-4.86-7.25-1.725-13.181-6.428-16.872-9.406-3.691-2.822-5.536-6.741-7.118-10.504-1.45-3.606-4.35-14.11-4.35-20.223 0 0-2.504 5.33-2.9 14.579-.395 9.25.396 25.711 5.932 32.452 5.536 6.741 17.794 15.52 35.062 18.185 17.136 2.665 36.38 3.292 39.544 3.292 3.163 0 12.917-.156 14.895-.156 1.977 0 3.295-.157 4.877-.314 1.581-.157 1.449-1.097.659-1.097-.791 0-.528.156-1.714.313s-1.713.471-2.373.157c-.659-.314-1.054-.314-1.845-.157-.79.157-1.186 0-2.24 0-1.055 0-.792 0-1.978.157s-1.582-.784-1.582-.784.923-.313 1.977-.313c1.055 0 6.328 0 7.382-.157.923-.157 2.241-.157 3.163 0 .923.157 1.978 0 2.769 0 .79 0 .659-1.098 1.449-1.098.791 0 .396.314 1.45.314 1.055 0 2.373-.47 3.296-.47.922 0 2.241-1.568 3.559-1.568s2.109-.47 2.372.314c.264.783.659.627.659.156 0-.47 0-1.567.923-1.724.923-.157 1.977-.157 3.164-.471 1.186-.313 3.954-.94 4.877-.94.922 0 1.713.47 1.713.47s-3.163.314-4.481.627c-1.319.314-3.296.941-2.241.941h3.163c.791 0 1.055.313 2.109 0 1.055-.314 1.45-.784 2.768-.941 1.318-.157 1.582-.627 2.9-.627h2.373c.527 0 1.977-.157 2.9-.313.922-.157 1.054-.941 1.977-1.098.923-.157 3.691-.47 4.613-.627.923-.157 2.373-.627 3.296-.94.922-.314 2.504-.784 3.559-.941 1.054-.157.659.313 2.109.313 1.449 0 1.845.628 4.086-.47 2.241-1.097 1.845-1.254 3.031-1.881 1.187-.627 3.559-1.254 5.141-1.568 1.582-.313 2.241-.784 3.032-.784.791 0 1.318 0 1.186-.627-.132-.627.659-1.254 1.055-.627.395.627 1.318.47 1.318.47 1.45-.627 3.031-1.567 3.822-1.567.791 0 1.318-.314 2.9-.941 1.582-.627 1.582-.627 2.505-.784.922-.156.791-1.881 1.977-2.194 1.186-.314 3.427-.784 4.745-1.411s2.241-.471 3.559-1.098c1.318-.627 1.186.157-2.241 1.254-3.427 1.098-3.559 1.725-2.372 1.568 1.186-.157 2.768-1.254 4.613-1.724 1.845-.471 2.373-.784 2.9-1.255.527-.47 0-1.097 1.186-1.567 1.187-.471 3.296-1.568 4.482-2.038 1.186-.471 3.295-.784 4.35-1.411 1.054-.627 2.504-.941 3.427-1.568.922-.627 2.241-1.411 1.713-1.411-.527 0-2.24.941-3.69 1.568-1.45.627-2.505.47-2.505.47s1.582-.94 3.032-1.411c1.45-.47 1.845-1.097 3.032-1.568 1.186-.47 1.977-1.254 1.581-1.254-.395 0-2.372.314-1.318-.313 1.055-.627 2.373-1.098 3.955-1.881 1.581-.784 3.427-2.822 3.427-2.822s.263.784-.659 1.724c-.923.941-1.582 1.568-.264 1.098 1.318-.471.659 0 2.109-.941s3.691-2.195 5.668-3.449c1.977-1.254 2.373-1.254 3.163-2.038.791-.784 1.055-.47.791-.784-.263-.313-.791-.627-.791-.627 1.45-.784 1.846-1.724 2.9-2.195 1.055-.47 2.637-2.978 3.691-3.762 1.055-.784 2.9-1.882 3.559-2.665.659-.784 1.318-1.411 2.373-2.509 1.054-1.097 2.899-4.076 3.559-5.016.659-.941 1.449-2.352 1.845-3.45.395-1.097 2.109-4.075 3.427-8.622 2.636-4.703 5.932-20.223 3.954-25.553Zm-45.475 55.026c-5.8 3.136-13.84 7.212-15.686 7.995-1.713.784-8.699 2.509-11.863 4.077-3.163 1.41-12.127 3.605-15.29 4.703-3.164 1.097-22.145 5.957-28.208 6.741-6.063.784-23.199 3.135-26.494 3.135-3.164 0-5.536-.157-6.723 0-1.186.157-3.031.627-4.745.627s-2.373.471-3.69.471h-3.955c-1.45 0-40.466-1.255-46.925-4.39-1.055-.47 23.199 2.352 25.176 2.508 1.977.157 17.926 1.098 23.067.157 5.14-.784 19.772-.627 23.199-1.097 3.559-.471 27.285-4.703 29.79-4.86 2.504-.157 13.972-4.233 17.794-5.33 3.691-1.098 18.586-4.704 23.199-5.958 4.614-1.254 11.336-5.33 15.686-7.211 4.218-1.881 19.113-10.817 22.013-12.855.263 0-10.413 7.995-16.345 11.287Z" fill="#FFCA42"/></svg>