<svg width="101" height="195" fill="none" xmlns="http://www.w3.org/2000/svg"><g clip-path="url(#a)" fill="#FA8D8D"><path d="M14.733 75.453c-.742-2.573-2.86-4.245-4.304-6.358C1.782 56.39-1.268 43.023 5.012 28.305c2.568-6.018 5.929-11.374 10.644-15.97 1.344-1.312 2.89-1.932 4.404-2.713C27.273 5.907 34.677 2.743 42.642.89 49.143-.621 55.534.1 61.874 1.2c5.678.992 11.196 2.764 16.332 5.557C88.79 12.495 95.953 21.356 99.304 32.56c2.337 7.81.511 15.94-2.227 23.82-3.823 10.993-11.357 19.283-18.67 27.824-3.752 4.395-7.655 8.64-12.72 11.534-4.134 2.363-6.07 6.308-7.846 10.273-2.428 5.447-3.36 11.214-2.88 17.261.322 4.085-.2 8.261 2.288 11.925.301.441.512 1.192.02 1.492-2.96 1.802-1.123 4.105-.632 6.168.422 1.772 1.164 3.354-1.846 2.793-.933-.17-.973.461-.802 1.292.562 2.833-.311 3.364-3 2.763-3.4-.751-5.578-2.743-7.233-6.338-1.033 2.914 1.896 4.896-.04 7.57-1.585-4.186-6.11-5.397-8.016-9.082-2.749-5.296-4.464-10.753-3.32-16.911 1.454-7.819 2.829-15.619 7.624-22.277 4.605-6.388 9.801-12.265 16.402-16.63 4.314-2.854 8.056-6.148 10.986-10.384 4.364-6.317 9.109-12.515 10.363-20.345 1.454-9.111.26-17.201-6.44-24.79-6.983-7.9-15.15-10.423-24.91-9.913-8.217.43-18.37 7.91-20.105 18.463-.592 3.605-1.715 7.29-.26 10.984 1.875 4.756 4.243 9.241 7.915 12.866 3 2.963 5.888 6.147 10.222 7.279.672.17 1.264.55 1.585 1.361-3.4 1.362-6.66.46-10.022-.44 2.77 3.034 5.86 5.597 9.5 7.47.613.31 1.245.58 1.827.94 1.414.871 2.949 1.752 2.698 3.745-.16 1.271-3.35 2.873-5.126 2.583-4.284-.71-8.136-2.373-11.557-5.116-.943-.761-2.197-2.944-3.12-1.612-.973 1.421 1.525 2.032 2.598 2.853 2.448 1.893 5.728 2.764 7.173 5.888-.742.93-1.605.83-2.618.56-3.22-.87-6.18-2.283-8.909-4.185-1.123-.79-2.117-1.782-3.651-1.632-3.873-1.572-6.491-4.836-9.822-7.159Zm5.498-9.652c-2.217-5.286-3.492-10.723-4.314-16.25-.823-5.557 1.505-11.004 1.083-16.8-6.27 7.228-5.648 26.702 3.23 33.05ZM10.53 30.698c5.377-4.606 10.062-10.753 10.995-14.328-6.48 2.503-9.1 7.75-10.995 14.328Zm81.42 7.449c.482-7.319-.993-11.164-5.558-15.169 2.177 4.726 2.699 10.083 5.558 15.169ZM23.892 10.513c2.86-.41 2.85-.42 4.374-2.173-1.815.17-3.18.761-4.374 2.173ZM45.983 169.139c3-2.984 6.752-3.885 10.835-4.015 2.107-.07 3.752.531 4.895 2.653-2.728.891-5.708.821-8.597 2.814 2.89.601 4.354 2.363 6.01 3.975 2.577 2.513 2.638 2.603-.994 3.925-.26.66.411.841.662 1.231.27.431.542.861.853 1.352-3.19.12-5.387 1.251-6.822 4.235-1.605 3.344-5.588 4.215-8.146 6.768-1.706 1.703-5.157.341-6.722-1.922-.682-.991-1.374-1.582-2.518-1.852-4.314-1.042-5.818-3.965-4.544-8.841 1.585-6.068 5.939-9.632 11.436-11.965 1.615-.681 2.639.831 3.742 1.732-.411-.01-.822 0-1.234-.02-.943-.04-1.755-.21-1.344 1.372.14.531-.29 1.151.592 1.352.993.23 1.575-.171 1.705-1.182.08-.531.13-1.071.191-1.612Zm-.24 20.345c-1.626-.32-2.99-.711-4.184-1.492-.612-.4-1.274-.6-1.726.161-.4.67-.08 1.311.412 1.822 1.414 1.462 2.849 1.382 5.497-.491Zm-4.425-11.013c-1.013-.211-1.926-.04-2.789.47-.572.341-1.374.501-1.475 1.262-.08.56.422.951.903 1.251.853.541 1.475.09 2.207-.35 1.064-.651-.06-2.113 1.154-2.633Z"/><path d="M14.733 75.453c3.32 2.313 5.949 5.587 9.811 7.16.251.32.592.61.723.97.25.661-.372.561-.693.581-1.314.1-2.418-.62-3.4-1.282-8.277-5.476-14.828-12.495-18.6-21.837-.411-1.01-.753-2.082-.331-3.203l-.08.07c1.685 2.583 2.447 5.636 4.253 8.18 2.438 3.444 4.856 6.858 8.317 9.361Z"/><path d="M2.253 57.851c-2.277-.84-1.314-2.933-1.876-4.425 1.294 1.241 1.946 2.723 1.796 4.495l.08-.07ZM58.824 188.062c-1.595 1.372-.813 3.134-3.26 4.236 1.213-1.662-.913-4.035 3.26-4.236ZM53.748 193.97c-.842.22-1.073-.19-1.103-.781-.03-.521-.06-1.222.471-1.362.803-.21 1.084.521 1.325 1.152.32.821-.442.78-.693.991Z"/></g><defs><clipPath id="a"><path fill="#fff" transform="translate(.377 .03)" d="M0 0h100v194H0z"/></clipPath></defs></svg>