<svg width="71" height="137" fill="none" xmlns="http://www.w3.org/2000/svg"><g clip-path="url(#a)" fill="#FA8D8D"><path d="M10.601 53.68c-.52-1.805-2.001-2.977-3.012-4.458C1.535 40.315-.6 30.945 3.796 20.627c1.798-4.219 4.15-7.974 7.451-11.196.941-.92 2.023-1.354 3.083-1.902 5.05-2.604 10.232-4.822 15.808-6.12 4.55-1.06 9.023-.555 13.462.217 3.974.695 7.837 1.938 11.432 3.896 7.409 4.022 12.423 10.233 14.769 18.088 1.636 5.475.358 11.174-1.56 16.698-2.675 7.707-7.949 13.519-13.068 19.506-2.627 3.081-5.358 6.057-8.905 8.086-2.893 1.656-4.248 4.422-5.491 7.201-1.7 3.818-2.353 7.861-2.016 12.1.225 2.865-.14 5.792 1.601 8.36.211.31.358.836.014 1.046-2.071 1.264-.786 2.878-.442 4.324.295 1.242.815 2.351-1.292 1.958-.653-.119-.681.323-.562.906.393 1.986-.218 2.358-2.1 1.937-2.38-.526-3.904-1.923-5.063-4.443-.723 2.042 1.327 3.432-.028 5.306-1.11-2.934-4.277-3.783-5.61-6.366-1.925-3.713-3.126-7.538-2.325-11.855 1.018-5.482 1.98-10.95 5.337-15.617 3.223-4.478 6.86-8.599 11.482-11.659 3.02-2 5.638-4.31 7.69-7.279 3.054-4.428 6.376-8.773 7.253-14.262 1.019-6.387.183-12.059-4.508-17.38-4.888-5.537-10.604-7.306-17.437-6.948-5.751.302-12.858 5.545-14.073 12.943-.414 2.527-1.2 5.11-.183 7.7 1.314 3.334 2.971 6.478 5.541 9.02 2.1 2.077 4.122 4.309 7.156 5.102.47.12.885.386 1.11.955-2.381.954-4.663.323-7.016-.31 1.938 2.128 4.101 3.924 6.65 5.237.429.218.871.407 1.279.66.99.61 2.064 1.228 1.889 2.625-.113.891-2.346 2.014-3.589 1.81-2.998-.497-5.695-1.663-8.09-3.586-.66-.533-1.538-2.063-2.184-1.13-.68.997 1.068 1.425 1.82 2 1.713 1.327 4.009 1.938 5.02 4.128-.52.652-1.123.582-1.833.393a19.925 19.925 0 0 1-6.236-2.934c-.786-.555-1.481-1.25-2.556-1.144-2.71-1.102-4.543-3.39-6.875-5.019Zm3.848-6.767c-1.551-3.706-2.443-7.517-3.02-11.392-.575-3.896 1.054-7.714.76-11.778-4.39 5.068-3.954 18.72 2.26 23.17ZM7.66 22.304c3.764-3.228 7.043-7.538 7.696-10.044-4.536 1.755-6.369 5.433-7.696 10.044Zm56.994 5.222c.337-5.13-.695-7.826-3.89-10.633 1.523 3.313 1.889 7.068 3.89 10.633ZM17.013 8.154c2.001-.288 1.994-.295 3.061-1.523-1.27.12-2.226.533-3.061 1.523ZM32.478 119.356c2.1-2.092 4.726-2.723 7.584-2.815 1.475-.049 2.626.372 3.427 1.86-1.91.625-3.996.576-6.018 1.973 2.022.421 3.047 1.656 4.206 2.786 1.805 1.762 1.847 1.825-.695 2.752-.183.463.288.589.463.863l.597.948c-2.233.084-3.77.877-4.775 2.969-1.124 2.344-3.912 2.955-5.702 4.745-1.194 1.193-3.61.238-4.705-1.348-.478-.695-.962-1.109-1.763-1.299-3.02-.73-4.073-2.779-3.181-6.197 1.11-4.254 4.157-6.753 8.005-8.388 1.131-.477 1.847.583 2.62 1.214-.288-.007-.576 0-.864-.014-.66-.028-1.229-.147-.941.962.098.372-.204.807.414.947.696.162 1.103-.119 1.194-.828.056-.372.091-.751.134-1.13Zm-.169 14.263c-1.138-.225-2.093-.499-2.928-1.046-.429-.281-.892-.421-1.208.112-.281.47-.056.92.288 1.278.99 1.024 1.994.968 3.848-.344Zm-3.097-7.721a2.627 2.627 0 0 0-1.952.33c-.4.238-.962.351-1.032.884-.057.393.294.667.632.877.596.379 1.032.064 1.545-.245.744-.456-.043-1.481.807-1.846Z"/><path d="M10.602 53.68c2.324 1.62 4.164 3.916 6.868 5.018.175.224.414.428.505.68.176.464-.26.394-.484.408-.92.07-1.693-.436-2.38-.899-5.794-3.84-10.38-8.76-13.02-15.308-.288-.709-.527-1.46-.232-2.246l-.056.049c1.18 1.81 1.713 3.952 2.977 5.734 1.707 2.415 3.399 4.809 5.822 6.563Z"/><path d="M1.867 41.34c-1.594-.59-.92-2.057-1.313-3.102.906.87 1.362 1.909 1.257 3.151l.056-.049ZM41.466 132.622c-1.117.962-.569 2.197-2.282 2.969.85-1.165-.64-2.829 2.282-2.969ZM37.913 136.763c-.59.154-.751-.134-.772-.548-.021-.365-.042-.856.33-.954.562-.147.758.365.927.807.224.575-.31.547-.485.695Z"/></g><defs><clipPath id="a"><path fill="#fff" transform="translate(.553 .805)" d="M0 0h70v136H0z"/></clipPath></defs></svg>