<svg width="377" height="440" viewBox="0 0 377 440" fill="none" xmlns="http://www.w3.org/2000/svg">
<g clip-path="url(#clip0_2014_70)">
<path d="M211.141 259.139C217.466 259.139 219.129 267.274 227.022 269.896C236.811 273.148 249.53 268.007 252.814 259.622C257.079 248.727 249.005 243.051 250.84 224.945C252.055 212.946 243.895 214.007 236.906 202.327C229.918 190.638 231.788 189.37 222.309 178.63C212.83 167.891 196.991 166.372 185.091 168.262C173.19 170.151 167.262 172.333 157.947 178.743C148.631 185.152 152.845 192.018 146.856 196.547C140.867 201.067 138.196 206.321 136.386 215.309C132.905 232.562 144.607 240.903 139.351 246.864C134.094 252.825 123.426 279.54 151.027 277.927C160.782 277.358 169.52 280.567 174.302 273.157C181.342 262.253 184.858 269.508 194.501 264.729C204.152 259.941 211.132 259.156 211.132 259.156L211.141 259.139Z" fill="#37231B"/>
<path d="M140.401 265.04C163.642 246.105 165.848 265.04 221.602 261.339C228.478 260.882 259.776 267.188 265.817 270.906C296.442 289.737 320.381 413.058 320.381 413.058L143.038 411.099L140.401 265.04Z" fill="#FCC583"/>
<path d="M184.849 256.431C184.444 264.246 177.335 256.854 177.335 266.757C177.335 275.357 186.952 289.099 214.174 284.742C231.486 281.973 236.69 267.179 226.401 262.866C220.576 260.425 217.827 250.617 217.827 250.617L184.849 256.422V256.431Z" fill="#FBAE96"/>
<path d="M221.756 211.626C227.107 233.088 226.9 264.263 202.479 266.135C172.603 268.43 139.711 209.737 163.684 188.189C187.657 166.64 214.173 181.236 221.756 211.626Z" fill="#FBAE96"/>
<path d="M174.389 204.242C170.873 211.031 170.624 212.247 166.729 216.146C162.834 220.045 163.196 230.146 165.057 235.909C173.924 263.383 166.332 250.116 164.574 251.876C162.816 253.636 155.535 235.693 154.535 234.692C153.527 233.683 145.625 204.915 145.625 201.895C145.625 198.876 164.66 180.675 166.961 178.363C169.271 176.051 190.055 171.738 195.958 171.738C201.861 171.738 213.658 170.988 216.174 175.007C218.682 179.027 235.003 212.704 235.003 212.704C235.003 212.704 244.792 228.395 238.174 227.955C229.703 227.386 228.109 225.678 225.938 220.718C223.611 215.387 221.405 203.414 209.737 207.373C190.012 214.058 174.389 204.259 174.389 204.259V204.242Z" fill="#37231B"/>
<path d="M93.3947 424.988C85.8374 377.88 123.365 269.499 147.726 259.631C164.892 252.67 178.119 258.147 181.308 277.168C184.496 296.189 155.473 385.816 155.473 385.816C155.473 385.816 240.586 362.404 248.126 385.816C255.657 409.228 251.892 425.816 251.892 425.816L93.4034 424.988H93.3947Z" fill="#FCC583"/>
<path d="M172.078 388.205C164.279 388.205 157.351 388.033 152.112 387.895C149.587 387.834 147.398 387.774 145.615 387.748C144.839 387.74 144.193 387.386 143.788 386.765C141.84 383.754 146.08 373.48 154.395 354.045C162.901 334.153 173.483 309.396 173.483 295.965C173.483 295.378 173.957 294.904 174.543 294.904C175.129 294.904 175.602 295.378 175.602 295.965C175.602 309.836 164.926 334.809 156.343 354.882C152.922 362.879 149.699 370.427 147.674 376.051C144.779 384.099 145.399 385.419 145.571 385.618C145.571 385.618 145.597 385.618 145.64 385.618C147.433 385.643 149.63 385.695 152.164 385.764C163.797 386.057 181.367 386.506 199.446 385.169C200.032 385.126 200.541 385.566 200.584 386.152C200.627 386.739 200.187 387.248 199.601 387.291C190.114 387.99 180.583 388.197 172.078 388.197V388.205Z" fill="#C99565"/>
<path d="M185.124 232.985C184.934 234.209 186.218 237.91 188.958 237.065C190.768 236.504 190.466 231.88 188.338 231.035C186.606 230.354 185.313 231.76 185.124 232.985Z" fill="#372313"/>
<path d="M207.587 226.118C207.268 227.317 208.397 231.113 211.206 230.552C213.067 230.19 213.007 225.583 210.99 224.522C209.344 223.651 207.905 224.919 207.587 226.118Z" fill="#372313"/>
<path d="M197.113 253.558C198.604 255.283 202.18 257.31 207.678 255.447C213.176 253.584 212.547 248.037 212.547 248.037C207.583 251.177 202.852 252.687 197.113 253.549V253.558Z" fill="#E66C40"/>
<path d="M203.56 221.883C204.663 221.883 208.153 219.433 211.471 219.968C214.789 220.502 214.668 220.045 213.875 219.243C213.074 218.441 210.825 217.613 206.619 218.156C201.518 218.82 202.604 221.883 203.56 221.883Z" fill="#37231B"/>
<path d="M188.934 225.402C188.994 224.341 186.719 224.082 185.074 224.514C182.816 225.109 179.369 228.404 178.8 230.768C178.499 232.001 179.369 232.605 180.636 230.871C182.135 228.827 183.316 227.585 185.22 227.291C186.754 227.05 188.891 226.239 188.934 225.411V225.402Z" fill="#37231B"/>
<path d="M169.923 236.297C172.612 240.093 176.317 247.554 173.559 249.513C170.802 251.471 162.624 247.192 159.936 243.397C157.247 239.601 157.299 234.934 160.056 232.976C162.814 231.018 167.234 232.502 169.923 236.297Z" fill="#FBAE96"/>
<path d="M202.955 268.758C197.535 268.758 193.037 266.946 192.787 266.843C192.434 266.696 192.261 266.29 192.408 265.937C192.554 265.583 192.959 265.411 193.313 265.557C193.39 265.592 201.215 268.732 208.35 266.644C208.72 266.541 209.099 266.748 209.211 267.119C209.315 267.49 209.108 267.869 208.737 267.981C206.79 268.551 204.817 268.766 202.955 268.766V268.758Z" fill="#C99565"/>
<path d="M172.822 250.625C174.778 252.583 183.835 261.46 193.047 266.204C195.718 267.584 194.365 276.763 194.132 278.134C192.375 288.572 181.207 286.321 174.537 282.982C167.376 279.394 174.08 256.517 163.946 255.827C152.46 255.042 147.892 260.131 146.221 259.691C142.946 258.82 148.814 253.731 156.803 251.324C163.205 249.4 171.65 249.875 172.822 250.625Z" fill="#37231B"/>
<path d="M177.672 180.08C173.329 179.364 171.209 184.6 169.175 187.472C168.77 188.042 169.71 188.766 170.14 188.223C172.036 185.859 173.768 180.865 177.5 181.322C178.198 181.408 178.37 180.2 177.663 180.08H177.672Z" fill="#55341B"/>
<path d="M179.629 184.556C176.699 184.824 174.984 187.093 173.287 189.241C172.796 189.862 173.657 190.741 174.166 190.12C175.622 188.318 177.147 186.118 179.638 185.816C180.422 185.721 180.456 184.479 179.638 184.556H179.629Z" fill="#55341B"/>
<path d="M158.636 210.996C156.137 213.998 154.44 217.828 153.742 221.675C153.595 222.46 154.793 222.805 154.957 222.012C155.681 218.406 157.215 214.766 159.515 211.876C160.007 211.263 159.153 210.384 158.636 210.996Z" fill="#55341B"/>
<path d="M187.579 271.984C187.639 271.164 186.39 271.182 186.312 271.984C186.157 273.726 186.493 275.478 186.407 277.229C186.364 278.014 186.269 278.928 185.778 279.575C185.149 280.403 184.115 280.403 183.167 280.334C182.34 280.274 182.383 281.499 183.167 281.602C188.975 282.327 187.338 275.478 187.579 271.984Z" fill="#55341B"/>
<path d="M245.758 232.26C245.042 230.776 244.112 229.413 243.241 228.024C242.673 227.11 241.647 225.825 241.699 224.686C241.733 223.892 240.51 223.892 240.467 224.686C240.406 225.644 240.941 226.601 241.397 227.403C242.112 228.671 242.94 229.879 243.681 231.13C244.353 232.251 245.111 233.485 245.327 234.805C245.551 236.176 244.749 236.754 243.517 237.091C242.724 237.306 243.06 238.479 243.853 238.316C245.111 238.048 246.3 237.341 246.593 236.004C246.869 234.736 246.309 233.39 245.766 232.269L245.758 232.26Z" fill="#55341B"/>
<path d="M245.82 247.468C245.105 246.666 244.2 246.278 243.252 245.829C242.106 245.277 241.52 244.733 241.684 243.371C241.761 242.689 240.564 242.517 240.469 243.207C240.185 245.234 241.184 246.252 242.925 247.063C243.787 247.459 245.2 248.063 245.415 249.133C245.579 249.978 244.183 250.66 243.692 251.203C243.149 251.807 243.993 252.67 244.588 252.1C245.243 251.471 246.191 250.944 246.57 250.082C246.992 249.124 246.466 248.193 245.829 247.477L245.82 247.468Z" fill="#55341B"/>
<path d="M212.917 189.465C211.823 188.292 210.427 187.869 208.867 187.723C207.109 187.55 205.395 187.645 204.18 186.144C203.654 185.497 202.758 186.411 203.266 187.058C205.532 189.914 209.574 187.938 212.013 190.362C212.59 190.94 213.46 190.06 212.909 189.465H212.917Z" fill="#55341B"/>
<path d="M260.06 268.844C269.719 270.155 300.371 306.057 339.166 314.39C377.961 322.723 392.136 313.933 392.136 313.933L408.698 340.795C370.739 368.632 311.444 354.011 273.856 335.266L260.06 268.844Z" fill="#FCC583"/>
<path d="M413.888 421.158C413.888 421.158 437.327 347.118 388.2 310.836C377.859 303.202 368.863 299.605 347.121 299.683C323.967 299.769 303.13 321.481 294.944 336.189C279.778 363.439 267.214 421.158 267.214 421.158H413.888Z" fill="#DB7E5D"/>
<path d="M309.773 414.378C309.256 414.378 308.808 413.989 308.747 413.455C308.497 411.289 302.612 360.179 305.972 342.219C306.076 341.658 306.619 341.287 307.188 341.391C307.748 341.494 308.118 342.038 308.015 342.607C304.706 360.256 310.755 412.695 310.815 413.222C310.884 413.791 310.471 414.309 309.902 414.378C309.859 414.378 309.816 414.378 309.781 414.378H309.773Z" fill="#9E614B"/>
<path d="M333.521 308.274C328.316 314.192 324.999 332.298 334.495 332.781C356.822 333.929 364.604 303.573 358.623 301.641C344.956 297.215 333.521 308.274 333.521 308.274Z" fill="#F1F2F2"/>
<path d="M332.565 293.135C332.565 295.447 331.212 310.198 335.003 312.303C346.102 318.462 358.632 305.574 358.632 301.649V288.986L332.573 293.144L332.565 293.135Z" fill="#FBAE96"/>
<path d="M314.747 235.193C313.661 223.909 307.069 214.49 301.373 219.217C295.677 223.944 289.162 228.921 290.549 235.193C291.325 238.704 309.585 244.44 309.585 244.44L314.747 235.193Z" fill="#37231B"/>
<path d="M303.511 246.2C303.209 246.2 302.908 246.07 302.701 245.811C302.339 245.363 302.417 244.707 302.856 244.354C306.484 241.429 308.25 238.307 308.25 234.813C308.25 234.235 308.716 233.778 309.285 233.778C309.853 233.778 310.319 234.244 310.319 234.813C310.319 238.919 308.242 242.671 304.149 245.975C303.959 246.131 303.726 246.208 303.502 246.208L303.511 246.2Z" fill="#DE501D"/>
<path d="M306.767 262.003C303.156 262.814 300.485 263.745 299.002 262.27C297.52 260.786 299.002 256.965 299.002 256.965L303.768 256.197L306.767 262.003Z" fill="#82512B"/>
<path d="M373.475 265.842C370.046 289.521 354.854 308.274 333.535 308.274C317.782 308.274 307.381 300.381 305.675 284.242C305.279 280.489 306.037 275.279 305.753 273.079C305.279 269.379 302.556 265.272 302.556 261.391C302.556 237.712 322.892 226.351 344.211 226.351C365.53 226.351 376.871 242.413 373.475 265.842Z" fill="#FBAE96"/>
<path d="M327.713 267.972C327.627 267.205 329.445 265.661 331.935 266.247C334.417 266.834 336.261 268.594 335.451 269.077C334.641 269.56 332.823 268.059 331.237 268.24C329.652 268.412 327.782 268.516 327.722 267.972H327.713Z" fill="#37231B"/>
<path d="M315.377 268.421C315.463 267.653 313.645 266.109 311.154 266.696C308.673 267.282 306.829 269.042 307.639 269.525C308.449 270.008 310.267 268.507 311.852 268.688C313.438 268.87 315.308 268.964 315.368 268.421H315.377Z" fill="#37231B"/>
<path d="M324.511 253.437C342.659 251.66 343.684 258.984 348.872 265.842C354.068 272.7 366.787 271.38 372.63 270.457C374.62 270.146 377.628 257.19 376.8 249.452C376.188 243.715 376.525 233.174 364.719 227.032C352.913 220.89 348.812 219.51 337.342 221.641C325.881 223.771 313.429 254.524 324.502 253.437H324.511Z" fill="#37231B"/>
<path d="M355.384 235.908C356.47 224.625 367.508 215.024 373.213 219.751C378.917 224.479 384.252 237.91 381.296 239.963C378.34 242.016 360.546 245.156 360.546 245.156L355.384 235.908Z" fill="#37231B"/>
<path d="M362.32 245.458C357.297 245.458 355.228 242.378 354.539 240.929C353.333 238.401 353.462 235.313 354.832 234.045C355.254 233.657 355.909 233.683 356.297 234.105C356.685 234.528 356.659 235.184 356.237 235.572C355.754 236.02 355.453 238.048 356.4 240.032C357.124 241.55 359.08 243.982 364.052 243.249C364.613 243.163 365.147 243.56 365.233 244.129C365.319 244.698 364.923 245.225 364.354 245.311C363.622 245.414 362.941 245.466 362.312 245.466L362.32 245.458Z" fill="#D9886B"/>
<path d="M297.632 261.115C303.69 268.991 306.06 247.563 322.898 251.66C329.473 253.256 324.311 241.973 330.576 237.6C336.832 233.226 346.811 223.444 335.953 222.029C325.095 220.615 310.394 226.894 306.31 233.606C304.491 236.59 300.734 240.576 300.191 245.958C299.467 253.222 295.891 258.846 297.641 261.115H297.632Z" fill="#37231B"/>
<path d="M317.9 293.661C317.9 293.661 319.788 298.009 324.82 298.276C329.852 298.544 330.757 293.705 330.757 293.705C326.328 295.214 322.493 295.525 317.9 293.661Z" fill="#F1F2F2"/>
<path d="M331.378 273.994C330.499 274.321 329.611 275.736 330.033 277.824C330.455 279.903 332.015 280.817 332.989 280.187C333.963 279.557 334.661 276.642 334.049 275.426C333.437 274.209 331.938 273.787 331.369 274.002L331.378 273.994Z" fill="#372313"/>
<path d="M311.677 274.028C310.815 274.39 309.979 275.84 310.488 277.91C310.996 279.972 312.582 280.817 313.538 280.153C314.495 279.48 315.063 276.547 314.409 275.356C313.754 274.166 312.228 273.804 311.677 274.037V274.028Z" fill="#372313"/>
<path d="M344.055 245.001C341.91 242.517 337.894 241.852 334.912 243.008C334.189 243.293 334.49 244.458 335.24 244.19C337.971 243.215 341.091 243.862 343.159 245.898C343.745 246.476 344.59 245.613 344.055 245.001Z" fill="#643D20"/>
<path d="M348.159 233.537C344.497 232.657 341.119 233.088 337.758 234.753C337.034 235.115 337.672 236.194 338.396 235.84C341.498 234.33 344.471 234.097 347.832 234.744C348.616 234.9 348.96 233.726 348.168 233.537H348.159Z" fill="#643D20"/>
<path d="M362.817 257.086C360.662 257.794 357.974 255.516 358.06 253.308C358.094 252.514 356.888 252.523 356.836 253.308C356.647 256.241 360.266 259.433 363.153 258.303C363.885 258.009 363.601 256.828 362.817 257.086Z" fill="#643D20"/>
<path d="M312.476 239.998C310.382 239.799 308.279 240.498 307.056 242.292C306.599 242.957 306.375 243.716 306.134 244.475C305.78 245.588 305.401 246.096 304.178 246.209C303.385 246.286 303.359 247.451 304.178 247.468C305.987 247.494 306.875 246.433 307.392 244.82C307.693 243.871 307.978 243.017 308.745 242.318C309.762 241.387 311.149 241.136 312.485 241.214C313.277 241.257 313.252 240.067 312.485 239.998H312.476Z" fill="#643D20"/>
<path d="M322.558 229.154C321.171 228.801 320.24 227.783 318.707 227.973C317.276 228.154 316.139 229.154 315.26 230.233C314.76 230.845 315.587 231.734 316.147 231.121C316.992 230.215 318.034 229.129 319.396 229.258C320.404 229.353 321.231 230.155 322.231 230.353C323.007 230.509 323.343 229.353 322.558 229.154Z" fill="#643D20"/>
<path d="M333.524 308.964C333.145 308.964 332.835 308.654 332.835 308.274C332.835 307.894 333.145 307.584 333.524 307.584C339.556 307.584 344.58 306.419 348.441 304.125C348.768 303.926 349.19 304.039 349.389 304.366C349.587 304.694 349.475 305.117 349.147 305.315C345.071 307.739 339.815 308.964 333.524 308.964Z" fill="#C48976"/>
<path d="M337.433 421.39C337.433 410.305 352.901 388.74 381.294 388.74C409.688 388.74 424.234 390.724 424.234 390.724V420.976L337.433 421.39Z" fill="#DB7E5D"/>
<path d="M336.95 396.556C336.537 396.556 336.14 396.305 335.985 395.891C335.778 395.357 336.045 394.753 336.58 394.546C345.412 391.164 378.701 387.627 386.198 387.722C386.775 387.722 387.232 388.197 387.223 388.775C387.223 389.344 386.749 389.801 386.189 389.801C386.189 389.801 386.18 389.801 386.172 389.801C378.994 389.698 345.766 393.252 337.329 396.487C337.209 396.53 337.079 396.556 336.959 396.556H336.95Z" fill="#9E614B"/>
<path d="M199.014 403.06H329.281C336.942 403.06 343.164 409.288 343.164 416.957V419.114H199.006V403.052L199.014 403.06Z" fill="#7781A6"/>
<path d="M311.662 419.122H168.22L158.792 312.407C158.249 309.327 159.594 306.489 162.679 306.489H297.047C299.443 306.489 301.502 308.232 301.925 310.63L311.662 419.122Z" fill="#7781A6"/>
<path d="M240.322 346.627C240.702 352.545 236.565 357.626 231.085 357.979C225.604 358.333 220.847 353.83 220.46 347.913C220.072 341.995 224.217 336.914 229.697 336.561C235.178 336.207 239.935 340.71 240.322 346.627Z" fill="#DBDBDB"/>
<path d="M553.554 417.439H0V440.135H553.554V417.439Z" fill="#DCBFA3"/>
<path d="M69.7143 392.423C33.4616 392.423 3.96484 362.896 3.96484 326.605C3.96484 306.204 13.1853 287.287 29.2737 274.71C30.0923 274.071 31.2642 274.201 31.9191 274.994L113.498 373.221C114.162 374.015 114.067 375.197 113.292 375.878C101.271 386.54 85.7941 392.415 69.7057 392.415L69.7143 392.423ZM30.1871 278.902C15.9342 290.729 7.79951 308.016 7.79951 326.614C7.79951 360.791 35.5729 388.593 69.7143 388.593C84.243 388.593 98.246 383.504 109.354 374.231L30.1871 278.902Z" fill="#9CA8D3"/>
<path d="M69.7156 379.268C98.7703 379.268 122.324 355.69 122.324 326.605C122.324 297.52 98.7703 273.942 69.7156 273.942C40.6609 273.942 17.1074 297.52 17.1074 326.605C17.1074 355.69 40.6609 379.268 69.7156 379.268Z" fill="#A3D8F5"/>
<mask id="mask0_2014_70" style="mask-type:luminance" maskUnits="userSpaceOnUse" x="17" y="273" width="106" height="107">
<path d="M69.7176 379.269C98.7723 379.269 122.326 355.691 122.326 326.605C122.326 297.52 98.7723 273.942 69.7176 273.942C40.6629 273.942 17.1094 297.52 17.1094 326.605C17.1094 355.691 40.6629 379.269 69.7176 379.269Z" fill="white"/>
</mask>
<g mask="url(#mask0_2014_70)">
<path d="M43.9622 314.322C35.8189 319.825 25.5558 339.76 35.8189 338.251C46.0734 336.741 50.9077 329.797 55.7333 337.043C60.559 344.289 61.076 349.43 69.7191 349.43C78.3622 349.43 89.5818 355.9 91.3397 354.149C93.089 352.398 86.8157 341.882 83.498 331.911C80.1804 321.947 70.2189 311.975 63.5836 309.258C56.9483 306.541 43.9708 314.322 43.9708 314.322H43.9622Z" fill="#DEB788"/>
<path d="M74.8431 317.936C71.0946 313.821 66.9153 310.621 63.5718 309.258C56.9365 306.541 43.959 314.322 43.959 314.322C40.2105 316.858 36.0139 322.448 33.5752 327.597C38.4956 328.65 38.8317 324.207 47.6644 323.345C57.9189 322.335 57.3157 322.327 62.5463 325.553C67.777 328.779 65.8209 323.75 69.7159 321.732C72.2062 320.446 73.9211 319.075 74.8431 317.936Z" fill="#7DD2B1"/>
<path d="M37.0234 314.321C31.2929 312.277 27.6737 312.881 27.6737 305.928C27.6737 298.975 29.8711 297 26.2088 297C22.5464 297 14.3945 312.846 14.3945 317.539C14.3945 322.232 23.727 322.309 25.709 320.325C27.6909 318.341 37.0234 314.321 37.0234 314.321Z" fill="#DEB788"/>
<path d="M87.4065 272.061C72.0161 272.061 62.3648 285.691 72.9209 289.616C83.477 293.541 85.2953 292.894 91.6289 297C97.9626 301.097 103.995 306.23 105.511 302.305C107.019 298.38 113.353 297.474 113.353 294.153C113.353 290.832 89.8193 272.07 87.4065 272.07V272.061Z" fill="#7CC8AA"/>
<path d="M63.573 381.442C61.7634 376.612 61.6341 375.102 68.4848 372.385C75.3355 369.668 76.2403 369.064 81.9794 366.346C87.7098 363.629 88.9163 363.629 94.6553 363.629C100.394 363.629 103.1 369.969 103.1 369.969C103.1 369.969 91.7772 376.974 90.9241 377.819C90.071 378.665 63.573 381.442 63.573 381.442Z" fill="#F1F2F2"/>
<path d="M35.1553 286.002C38.2833 286.002 39.6793 287.503 48.4344 284.483C57.1809 281.464 61.8601 274.175 61.8601 274.175L45.4184 277.082L35.1639 286.002H35.1553Z" fill="#F1F2F2"/>
</g>
<path d="M100.494 338.983C102.002 340.493 101.925 343.288 103.665 341.554C105.397 339.82 103.364 338.155 106.233 338.983C109.103 339.812 110.912 338.078 110.912 335.507C110.912 332.936 111.067 330.219 108.198 331.28C105.328 332.341 103.519 333.092 101.709 333.997C99.8996 334.903 100.503 338.983 100.503 338.983H100.494Z" fill="#DCF8C1"/>
<path d="M110.904 343.513C110.904 341.701 111.783 340.562 113.317 342.098C114.851 343.633 118.901 347.282 116.187 346.376C113.472 345.471 110.913 343.504 110.913 343.504L110.904 343.513Z" fill="#DCF8C1"/>
<path d="M107.128 327.657C107.128 326.148 110.316 324.526 112.023 322.827C113.72 321.127 112.419 318.298 113.996 318.298C115.573 318.298 115.573 317.841 115.573 320.109C115.573 322.378 116.779 325.397 114.668 325.397C112.557 325.397 112.255 326.303 110.902 327.666C109.541 329.029 107.128 327.666 107.128 327.666V327.657Z" fill="#E3AC69"/>
<path d="M70.3256 390.508L79.8563 409.839H59.5713L70.3256 390.508Z" fill="#9CA8D3"/>
<path d="M55.5737 406.51H83.8641C89.336 406.51 93.7825 410.961 93.7825 416.439V418.302H45.6553V416.439C45.6553 410.961 50.1018 406.51 55.5737 406.51Z" fill="#9CA8D3"/>
<path d="M149.216 418.218L102.752 418.356L102.693 398.558L149.157 398.42C150.941 398.415 152.393 399.86 152.398 401.646L152.438 414.965C152.443 416.75 151 418.204 149.216 418.209L149.216 418.218Z" fill="#7096C4"/>
<path d="M117.132 412.799L117.106 403.923C117.106 402.931 116.408 402.12 115.546 402.12L62.5242 402.284C62.4725 402.284 62.4208 402.249 62.3949 402.197C61.921 401.162 61.9382 400.015 62.3949 398.781C62.4208 398.721 62.4639 398.686 62.5242 398.686L118.476 398.514C119.329 398.514 120.027 399.316 120.036 400.317L120.087 416.508C120.087 417.5 119.398 418.311 118.536 418.32L62.8861 418.492C62.6276 418.492 62.3949 418.311 62.3088 418.026C62.0158 417.129 62.0416 416.206 62.3174 415.249C62.4035 414.964 62.6362 414.774 62.8947 414.774L115.58 414.619C116.434 414.619 117.132 413.808 117.132 412.808V412.799Z" fill="#79ADDD"/>
<path d="M72.6485 405.13L64.2036 405.156C64.3587 404.716 64.5655 404.716 64.8068 401.637L116.76 401.481C116.95 401.481 117.01 402.292 117.019 402.508L117.053 414.68C117.053 414.895 64.5397 414.869 64.5397 414.869C64.126 411.936 64.0226 411.798 63.8848 410.53L68.9431 410.401L64.0054 410.418C63.8675 410.418 63.9279 407.218 64.1347 405.622L72.6485 405.122V405.13Z" fill="#E6E6E6"/>
<path d="M115.89 405.872L115.907 411.66L115.916 412.954L113.641 412.316L111.375 412.971V411.678L111.357 405.889L115.89 405.872Z" fill="#F6A447"/>
<path d="M93.8867 78.3328L114.103 116.004C122.013 104.022 131.958 101.606 149.968 98.8892L125.34 63.5388C106.666 67.1101 100.737 69.1114 93.8953 78.3328H93.8867Z" fill="#ABCFE3"/>
<path d="M149.966 98.8807C149.966 98.8807 164.193 74.8134 182.134 77.5997L152.439 41.404C152.439 41.404 144.339 40.3343 136.299 47.1404C128.259 53.9465 125.338 63.5303 125.338 63.5303L149.966 98.8807Z" fill="#ABCFE3"/>
<path d="M131.267 64.4188C131.095 64.4188 130.957 64.2808 130.957 64.1083C130.957 60.9511 134.128 55.4044 139.436 51.5744C144.434 47.9686 147.244 46.873 151.475 46.873C151.647 46.873 151.785 47.0111 151.785 47.1836C151.785 47.3561 151.647 47.4941 151.475 47.4941C147.356 47.4941 144.736 48.5207 139.798 52.0833C134.723 55.7408 131.577 61.1754 131.577 64.1083C131.577 64.2808 131.44 64.4188 131.267 64.4188Z" fill="#7496B8"/>
<path d="M134.465 69.163C134.293 69.163 134.155 69.025 134.155 68.8524C134.155 65.6952 137.326 60.1486 142.635 56.3185C147.633 52.7127 150.45 51.6172 154.673 51.6172C154.845 51.6172 154.983 51.7552 154.983 51.9277C154.983 52.1003 154.845 52.2383 154.673 52.2383C150.554 52.2383 147.934 53.2648 142.997 56.8274C137.921 60.485 134.776 65.9195 134.776 68.8524C134.776 69.025 134.638 69.163 134.465 69.163Z" fill="#7496B8"/>
<path d="M138.276 74.7355C138.104 74.7355 137.966 74.5975 137.966 74.425C137.966 71.2677 141.137 65.7211 146.445 61.891C151.443 58.2852 154.252 57.1897 158.483 57.1897C158.656 57.1897 158.794 57.3277 158.794 57.5002C158.794 57.6728 158.656 57.8108 158.483 57.8108C154.364 57.8108 151.745 58.8373 146.807 62.4C141.732 66.0575 138.586 71.492 138.586 74.425C138.586 74.5975 138.448 74.7355 138.276 74.7355Z" fill="#7496B8"/>
<path d="M141.882 80.4118C141.71 80.4118 141.572 80.2737 141.572 80.1012C141.572 76.944 144.743 71.3973 150.052 67.5673C155.05 63.9615 157.859 62.866 162.09 62.866C162.262 62.866 162.4 63.004 162.4 63.1765C162.4 63.349 162.262 63.4871 162.09 63.4871C157.971 63.4871 155.351 64.5136 150.414 68.0762C145.338 71.7338 142.193 77.1683 142.193 80.1012C142.193 80.2737 142.055 80.4118 141.882 80.4118Z" fill="#7496B8"/>
<path d="M144.565 83.1982L149.968 91.143C149.968 91.143 152.812 83.9228 156.836 81.542L151.476 73.8042C151.476 73.8042 148.383 75.2965 146.53 77.9275C144.979 80.1272 144.574 83.1896 144.574 83.1896L144.565 83.1982Z" fill="#7496B8"/>
<path d="M352.92 92.2267L346.261 86.698L317.166 121.817L323.826 127.345L352.92 92.2267Z" fill="#C98446"/>
<path d="M352.914 92.2358L350.838 90.5122L321.743 125.631L323.82 127.354L352.914 92.2358Z" fill="#A36B39"/>
<path d="M348.329 88.4311L346.253 86.7075L317.158 121.826L319.235 123.55L348.329 88.4311Z" fill="#A36B39"/>
<path d="M352.922 92.2211L346.261 86.6916L352.508 84.1986L355.283 83.0945L354.559 85.8894L352.922 92.2211Z" fill="#E5C3A5"/>
<path d="M354.528 85.9325L352.485 84.2331L355.26 83.1204L354.528 85.9325Z" fill="#877268"/>
<path d="M317.145 121.835C316.87 122.396 309.804 128.322 313.888 131.979C318.05 135.715 323.807 127.373 323.807 127.373L317.145 121.844V121.835Z" fill="#FA9876"/>
<path d="M53.5192 126.687L48.7227 133.895L86.6535 159.189L91.4501 151.981L53.5192 126.687Z" fill="#E4AF9C"/>
<path d="M53.5276 126.696L52.0322 128.943L89.9631 154.237L91.4584 151.99L53.5276 126.696Z" fill="#FBE8E2"/>
<path d="M50.2248 131.651L48.7295 133.898L86.6603 159.193L88.1557 156.946L50.2248 131.651Z" fill="#E4AF9C"/>
<path d="M53.5008 126.674L48.701 133.886L45.5643 127.925L44.1855 125.286L47.0379 125.708L53.5008 126.674Z" fill="#E5C3A5"/>
<path d="M47.0795 125.742L45.606 127.951L44.21 125.311L47.0795 125.742Z" fill="#877268"/>
<path d="M86.6602 159.204C87.2461 159.42 93.8642 165.838 97.0784 161.387C100.353 156.849 91.46 151.993 91.46 151.993L86.6602 159.204Z" fill="#FCC583"/>
<path d="M265.302 36.0215C250.739 48.9954 249.326 71.2597 262.053 85.9675L268.034 80.6365L272.627 76.5476L304.666 48.0033L309.259 43.9059L315.239 38.5835C302.124 24.2208 279.874 23.039 265.302 36.0215ZM268.801 70.1469C265.724 62.0555 267.741 52.558 274.583 46.4679C281.425 40.3691 291.085 39.4633 298.754 43.4659L268.801 70.1556V70.1469Z" fill="#DCF8C1"/>
<path d="M255.525 67.5764C255.318 67.5764 255.137 67.4298 255.103 67.2228C255.06 66.9899 255.215 66.7569 255.448 66.7138L258.955 66.0323C259.196 65.9892 259.42 66.1445 259.463 66.3774C259.506 66.6103 259.36 66.8432 259.119 66.8863L255.611 67.5678C255.611 67.5678 255.551 67.5678 255.525 67.5678V67.5764Z" fill="#A4C5EE"/>
<path d="M296.142 33.8387C296.099 33.8387 296.056 33.8387 296.013 33.8215C295.789 33.7525 295.66 33.5023 295.729 33.278L296.814 29.8706C296.883 29.6464 297.133 29.517 297.357 29.586C297.581 29.655 297.71 29.9051 297.642 30.1294L296.556 33.5368C296.495 33.7179 296.332 33.8387 296.142 33.8387Z" fill="#A4C5EE"/>
<path d="M268.622 41.5423C268.502 41.5423 268.381 41.4905 268.304 41.3956L265.365 38.0918C265.21 37.9106 265.219 37.6432 265.4 37.4793C265.581 37.324 265.848 37.3327 266.011 37.5138L268.95 40.8177C269.105 40.9988 269.096 41.2662 268.915 41.4301C268.829 41.4991 268.735 41.5423 268.631 41.5423H268.622Z" fill="#A4C5EE"/>
<path d="M270.678 78.7216C270.558 78.7216 270.437 78.6698 270.359 78.5749L268.309 76.2717C268.153 76.0905 268.162 75.8231 268.343 75.6592C268.524 75.504 268.791 75.5126 268.955 75.6937L271.006 77.9969C271.161 78.1781 271.152 78.4455 270.971 78.6094C270.885 78.687 270.79 78.7216 270.687 78.7216H270.678Z" fill="#A4C5EE"/>
<path d="M276.068 73.9249C275.947 73.9249 275.827 73.8732 275.749 73.7783L273.698 71.4751C273.543 71.2939 273.552 71.0265 273.733 70.8626C273.914 70.7073 274.181 70.716 274.344 70.8971L276.395 73.2003C276.55 73.3815 276.542 73.6489 276.361 73.8128C276.275 73.8818 276.18 73.9249 276.077 73.9249H276.068Z" fill="#A4C5EE"/>
<path d="M281.443 69.129C281.322 69.129 281.202 69.0773 281.124 68.9824L279.073 66.6792C278.918 66.498 278.927 66.2306 279.108 66.0667C279.289 65.9114 279.556 65.9201 279.719 66.1012L281.77 68.4044C281.925 68.5856 281.917 68.853 281.736 69.0169C281.65 69.0859 281.555 69.129 281.452 69.129H281.443Z" fill="#A4C5EE"/>
<path d="M286.828 64.3329C286.707 64.3329 286.586 64.2811 286.509 64.1862L284.458 61.883C284.303 61.7019 284.311 61.4345 284.492 61.2706C284.673 61.1153 284.941 61.1239 285.104 61.3051L287.155 63.6083C287.31 63.7894 287.302 64.0568 287.121 64.2207C287.034 64.2897 286.94 64.3329 286.836 64.3329H286.828Z" fill="#A4C5EE"/>
<path d="M292.202 59.5367C292.081 59.5367 291.96 59.485 291.883 59.3901L289.832 57.0869C289.677 56.9057 289.685 56.6383 289.866 56.4744C290.047 56.3191 290.315 56.3278 290.478 56.5089L292.529 58.8121C292.684 58.9933 292.676 59.2607 292.495 59.4246C292.417 59.4936 292.314 59.5367 292.21 59.5367H292.202Z" fill="#A4C5EE"/>
<path d="M297.588 54.7491C297.468 54.7491 297.347 54.6974 297.27 54.6025L295.219 52.2993C295.064 52.1181 295.072 51.8507 295.253 51.6868C295.434 51.5315 295.701 51.5402 295.865 51.7213L297.916 54.0245C298.071 54.2057 298.062 54.4731 297.881 54.637C297.804 54.706 297.7 54.7491 297.597 54.7491H297.588Z" fill="#A4C5EE"/>
<path d="M302.966 49.9528C302.846 49.9528 302.725 49.901 302.648 49.8061L300.597 47.5029C300.442 47.3217 300.45 47.0543 300.631 46.8904C300.812 46.7352 301.079 46.7438 301.243 46.9249L303.294 49.2281C303.449 49.4093 303.44 49.6767 303.259 49.8406C303.173 49.9096 303.078 49.9528 302.975 49.9528H302.966Z" fill="#A4C5EE"/>
<path d="M308.354 45.1566C308.233 45.1566 308.113 45.1049 308.035 45.01L305.984 42.7068C305.829 42.5256 305.838 42.2582 306.019 42.0943C306.2 41.939 306.467 41.9476 306.631 42.1288L308.682 44.432C308.837 44.6132 308.828 44.8806 308.647 45.0445C308.569 45.1135 308.466 45.1566 308.363 45.1566H308.354Z" fill="#A4C5EE"/>
</g>
<defs>
<clipPath id="clip0_2014_70">
<rect width="377" height="440" fill="white"/>
</clipPath>
</defs>
</svg>
