<svg width="25" height="25" viewBox="0 0 25 25" fill="none" xmlns="http://www.w3.org/2000/svg">
<path d="M12.5 25C19.4036 25 25 19.4036 25 12.5C25 5.59644 19.4036 0 12.5 0C5.59644 0 0 5.59644 0 12.5C0 19.4036 5.59644 25 12.5 25Z" fill="#29A71A"/>
<path d="M18.0116 6.98855C16.7111 5.67505 14.984 4.86953 13.1419 4.71727C11.2997 4.56502 9.46384 5.07605 7.96532 6.15821C6.46679 7.24036 5.4043 8.82239 4.96948 10.6189C4.53467 12.4155 4.75616 14.3083 5.59399 15.9559L4.77155 19.9488C4.76302 19.9885 4.76278 20.0296 4.77084 20.0694C4.77891 20.1093 4.79511 20.147 4.81843 20.1803C4.85259 20.2308 4.90135 20.2697 4.95821 20.2918C5.01506 20.3139 5.0773 20.3181 5.13661 20.3039L9.04996 19.3763C10.6929 20.193 12.5724 20.4002 14.3538 19.9612C16.1353 19.5222 17.7032 18.4654 18.7786 16.9788C19.854 15.4923 20.3671 13.6724 20.2267 11.8431C20.0862 10.0137 19.3013 8.29351 18.0116 6.98855ZM16.7914 16.7272C15.8916 17.6245 14.7329 18.2168 13.4786 18.4207C12.2243 18.6245 10.9376 18.4297 9.79996 17.8635L9.25451 17.5937L6.85536 18.1618L6.86246 18.132L7.35962 15.7172L7.09257 15.1903C6.51127 14.0486 6.3062 12.7522 6.50676 11.4869C6.70732 10.2216 7.3032 9.05216 8.20905 8.14622C9.34727 7.00835 10.8908 6.36913 12.5002 6.36913C14.1097 6.36913 15.6532 7.00835 16.7914 8.14622C16.8011 8.15733 16.8116 8.16777 16.8227 8.17747C17.9468 9.31826 18.5743 10.8572 18.5685 12.4588C18.5626 14.0603 17.9239 15.5946 16.7914 16.7272Z" fill="white"/>
<path d="M16.5782 14.956C16.2842 15.4191 15.8197 15.9859 15.2359 16.1265C14.2131 16.3736 12.6435 16.135 10.6904 14.314L10.6663 14.2927C8.94894 12.7003 8.50292 11.3751 8.61087 10.3239C8.67053 9.72733 9.16769 9.18756 9.58673 8.83528C9.65297 8.77874 9.73153 8.73849 9.81612 8.71774C9.90071 8.69698 9.98898 8.69631 10.0739 8.71578C10.1588 8.73524 10.2379 8.7743 10.305 8.82983C10.3721 8.88536 10.4253 8.95581 10.4603 9.03557L11.0924 10.456C11.1335 10.5481 11.1487 10.6497 11.1364 10.7498C11.1242 10.8499 11.0849 10.9447 11.0228 11.0242L10.7032 11.439C10.6346 11.5246 10.5932 11.6288 10.5844 11.7382C10.5755 11.8475 10.5996 11.957 10.6535 12.0526C10.8325 12.3665 11.2614 12.8282 11.7373 13.2557C12.2714 13.7387 12.8637 14.1805 13.2387 14.331C13.3391 14.372 13.4494 14.382 13.5555 14.3597C13.6615 14.3375 13.7585 14.2839 13.8339 14.206L14.2046 13.8324C14.2762 13.7619 14.3651 13.7116 14.4624 13.6866C14.5598 13.6617 14.6619 13.663 14.7586 13.6904L16.26 14.1165C16.3428 14.1419 16.4188 14.1859 16.482 14.2452C16.5452 14.3044 16.594 14.3774 16.6247 14.4584C16.6554 14.5394 16.6672 14.6263 16.6591 14.7126C16.6511 14.7988 16.6234 14.8821 16.5782 14.956Z" fill="white"/>
</svg>
