<svg width="59" height="59" viewBox="0 0 59 59" fill="none" xmlns="http://www.w3.org/2000/svg">
<path d="M36.4141 49.908V53.8144C36.4141 56.6836 34.098 59 31.2285 59H27.7715C24.902 59 22.5859 56.6836 22.5859 53.8144V49.908C22.5859 48.9399 23.3464 48.0642 24.3145 48.0642H34.6855C35.6536 48.0642 36.4141 48.9399 36.4141 49.908Z" fill="#FEA832"/>
<path d="M36.4141 49.908V53.8144C36.4141 56.6836 34.098 59 31.2285 59H29.5V48.0642H34.6855C35.6536 48.0642 36.4141 48.9399 36.4141 49.908Z" fill="#FE9923"/>
<path d="M29.4995 13.9434C28.255 13.9434 27.0106 14.0815 25.7658 14.3928C20.2347 15.6719 15.7752 20.0622 14.4269 25.559C13.0786 31.0901 14.6343 36.6905 18.6098 40.597C20.0273 42.0145 20.857 44.1231 20.857 46.4049V46.7852C20.857 49.6544 23.1731 52.0859 26.0425 52.0859H32.9566C35.826 52.0859 38.1421 49.6544 38.1421 46.7852V46.4049C38.1421 44.1577 39.0064 41.9798 40.5275 40.4932C43.4315 37.5548 45.0562 33.6484 45.0562 29.5C45.0562 20.7882 38.004 13.9434 29.4995 13.9434Z" fill="#FEDB41"/>
<path d="M45.0566 29.5C45.0566 33.6484 43.432 37.5548 40.5279 40.4934C39.0068 41.9799 38.1426 44.1578 38.1426 46.4049V46.7852C38.1426 49.6544 35.8265 52.0859 32.957 52.0859H29.5V13.9434C38.0044 13.9434 45.0566 20.7882 45.0566 29.5Z" fill="#FFCC33"/>
<path d="M13.6108 16.0551L8.72232 11.1667C8.04716 10.4915 8.04716 9.39759 8.72232 8.72243C9.39748 8.04727 10.4914 8.04727 11.1666 8.72243L16.055 13.6109C16.7302 14.2861 16.7302 15.38 16.055 16.0551C15.3799 16.7304 14.2861 16.7304 13.6108 16.0551ZM8.75781 31.2286H1.72852C0.773108 31.2286 0 30.4555 0 29.5001C0 28.5447 0.773108 27.7716 1.72852 27.7716H8.75781C9.71322 27.7716 10.4863 28.5447 10.4863 29.5001C10.4863 30.4555 9.71322 31.2286 8.75781 31.2286Z" fill="#FEA832"/>
<path d="M57.2714 31.2286H50.2421C49.2867 31.2286 48.5135 30.4555 48.5135 29.5001C48.5135 28.5447 49.2867 27.7716 50.2421 27.7716H57.2714C58.2268 27.7716 58.9999 28.5447 58.9999 29.5001C58.9999 30.4555 58.2268 31.2286 57.2714 31.2286ZM42.9448 16.0551C42.2697 15.38 42.2697 14.2861 42.9448 13.6109L47.8333 8.72243C48.5085 8.04727 49.6024 8.04727 50.2776 8.72243C50.9527 9.39759 50.9527 10.4915 50.2776 11.1667L45.3891 16.0551C44.7138 16.7304 43.62 16.7304 42.9448 16.0551Z" fill="#FE9923"/>
<path d="M31.2285 1.72852V8.75781C31.2285 9.72567 30.4681 10.4863 29.5 10.4863C28.5319 10.4863 27.7715 9.72567 27.7715 8.75781V1.72852C27.7715 0.760432 28.5319 0 29.5 0C30.4681 0 31.2285 0.760432 31.2285 1.72852Z" fill="#FEA832"/>
<path d="M31.2285 1.72852V8.75781C31.2285 9.72567 30.4681 10.4863 29.5 10.4863V0C30.4681 0 31.2285 0.760432 31.2285 1.72852Z" fill="#FE9923"/>
</svg>
