<svg width="820" height="570" viewBox="0 0 820 570" fill="none" xmlns="http://www.w3.org/2000/svg">
<rect width="820" height="570" fill="#F6FAFF"/>
<path d="M131.315 46.1221V33.9913H124.735L124.628 37.1419C124.585 38.1992 124.514 39.2137 124.414 40.1853C124.328 41.1569 124.199 42.0356 124.028 42.8215C123.856 43.5931 123.614 44.2289 123.299 44.729C122.999 45.2291 122.613 45.5363 122.142 45.6506L119.827 45.2648C120.384 45.3076 120.842 45.1219 121.199 44.7075C121.57 44.2789 121.856 43.6859 122.056 42.9286C122.27 42.1571 122.428 41.2641 122.528 40.2496C122.628 39.2208 122.699 38.1206 122.742 36.949L122.892 32.1267H133.437V46.1221H131.315ZM119.291 50.4085L119.313 45.2648H135.644V50.4085H133.651V47.1294H121.306L121.285 50.4085H119.291ZM138.231 47.1294V35.7702H140.289V44.0431L147.254 35.7702H149.119V47.1294H147.061V38.8565L140.117 47.1294H138.231ZM153.113 47.1294V35.7702H155.17V40.5925H161.643V35.7702H163.7V47.1294H161.643V42.3714H155.17V47.1294H153.113ZM174.666 47.1294V44.729L174.559 44.2789V40.1853C174.559 39.3137 174.302 38.6422 173.788 38.1707C173.288 37.6849 172.53 37.442 171.516 37.442C170.844 37.442 170.187 37.5563 169.544 37.7849C168.901 37.9992 168.358 38.2921 167.915 38.6636L167.058 37.1205C167.644 36.649 168.344 36.2918 169.158 36.0489C169.987 35.7917 170.851 35.6631 171.752 35.6631C173.309 35.6631 174.509 36.0417 175.352 36.799C176.195 37.5563 176.617 38.7136 176.617 40.271V47.1294H174.666ZM170.937 47.258C170.094 47.258 169.351 47.1151 168.708 46.8293C168.08 46.5436 167.594 46.1506 167.251 45.6506C166.908 45.1362 166.736 44.5575 166.736 43.9145C166.736 43.3001 166.879 42.7429 167.165 42.2428C167.465 41.7427 167.944 41.3426 168.601 41.0426C169.273 40.7425 170.173 40.5925 171.302 40.5925H174.902V42.0714H171.387C170.358 42.0714 169.666 42.2428 169.308 42.5857C168.951 42.9286 168.772 43.343 168.772 43.8288C168.772 44.386 168.994 44.8361 169.437 45.179C169.88 45.5077 170.494 45.672 171.28 45.672C172.052 45.672 172.723 45.5005 173.295 45.1576C173.881 44.8147 174.302 44.3146 174.559 43.6573L174.966 45.0719C174.695 45.7434 174.216 46.2792 173.53 46.6793C172.845 47.0651 171.98 47.258 170.937 47.258ZM180.322 47.1294V35.7702H182.444L187.33 44.1717H186.473L191.488 35.7702H193.417V47.1294H191.552V38.0849L191.895 38.2778L187.309 45.8435H186.409L181.801 38.1278L182.208 38.0421V47.1294H180.322ZM197.422 47.1294V35.7702H199.479V44.0431L206.445 35.7702H208.309V47.1294H206.252V38.8565L199.308 47.1294H197.422ZM220.533 47.1294L216.139 41.5998L217.832 40.5711L222.955 47.1294H220.533ZM212.303 47.1294V35.7702H214.36V47.1294H212.303ZM213.739 42.3285V40.5711H217.489V42.3285H213.739ZM218.004 41.6856L216.096 41.4284L220.447 35.7702H222.655L218.004 41.6856ZM231.868 47.1294V44.729L231.761 44.2789V40.1853C231.761 39.3137 231.504 38.6422 230.99 38.1707C230.489 37.6849 229.732 37.442 228.718 37.442C228.046 37.442 227.389 37.5563 226.746 37.7849C226.103 37.9992 225.56 38.2921 225.117 38.6636L224.26 37.1205C224.846 36.649 225.546 36.2918 226.36 36.0489C227.189 35.7917 228.053 35.6631 228.953 35.6631C230.511 35.6631 231.711 36.0417 232.554 36.799C233.397 37.5563 233.819 38.7136 233.819 40.271V47.1294H231.868ZM228.139 47.258C227.296 47.258 226.553 47.1151 225.91 46.8293C225.281 46.5436 224.796 46.1506 224.453 45.6506C224.11 45.1362 223.938 44.5575 223.938 43.9145C223.938 43.3001 224.081 42.7429 224.367 42.2428C224.667 41.7427 225.146 41.3426 225.803 41.0426C226.474 40.7425 227.375 40.5925 228.503 40.5925H232.104V42.0714H228.589C227.56 42.0714 226.867 42.2428 226.51 42.5857C226.153 42.9286 225.974 43.343 225.974 43.8288C225.974 44.386 226.196 44.8361 226.639 45.179C227.082 45.5077 227.696 45.672 228.482 45.672C229.254 45.672 229.925 45.5005 230.497 45.1576C231.082 44.8147 231.504 44.3146 231.761 43.6573L232.168 45.0719C231.897 45.7434 231.418 46.2792 230.732 46.6793C230.047 47.0651 229.182 47.258 228.139 47.258ZM248.23 47.258C247.073 47.258 246.037 47.0079 245.123 46.5079C244.222 46.0078 243.515 45.3219 243.001 44.4503C242.486 43.5788 242.229 42.5786 242.229 41.4498C242.229 40.321 242.486 39.3209 243.001 38.4493C243.515 37.5777 244.222 36.899 245.123 36.4132C246.037 35.9131 247.073 35.6631 248.23 35.6631C249.259 35.6631 250.173 35.8702 250.974 36.2846C251.788 36.6847 252.417 37.2848 252.86 38.0849L251.295 39.0922C250.924 38.535 250.466 38.1278 249.923 37.8706C249.395 37.5991 248.823 37.4634 248.209 37.4634C247.466 37.4634 246.801 37.6277 246.216 37.9563C245.63 38.285 245.165 38.7493 244.822 39.3494C244.48 39.9353 244.308 40.6354 244.308 41.4498C244.308 42.2642 244.48 42.9715 244.822 43.5716C245.165 44.1717 245.63 44.6361 246.216 44.9647C246.801 45.2934 247.466 45.4577 248.209 45.4577C248.823 45.4577 249.395 45.3291 249.923 45.0719C250.466 44.8004 250.924 44.386 251.295 43.8288L252.86 44.8147C252.417 45.6006 251.788 46.2078 250.974 46.6364C250.173 47.0508 249.259 47.258 248.23 47.258ZM260.414 47.258C259.2 47.258 258.128 47.0079 257.199 46.5079C256.285 46.0078 255.57 45.3219 255.056 44.4503C254.556 43.5788 254.306 42.5786 254.306 41.4498C254.306 40.321 254.549 39.3209 255.035 38.4493C255.535 37.5777 256.213 36.899 257.071 36.4132C257.942 35.9131 258.921 35.6631 260.007 35.6631C261.107 35.6631 262.079 35.906 262.922 36.3918C263.765 36.8776 264.422 37.5634 264.893 38.4493C265.379 39.3209 265.622 40.3425 265.622 41.5141C265.622 41.5998 265.615 41.6999 265.601 41.8142C265.601 41.9285 265.594 42.0356 265.579 42.1356H255.913V40.6568H264.508L263.672 41.1712C263.686 40.4425 263.536 39.7924 263.222 39.2208C262.907 38.6493 262.472 38.2064 261.914 37.892C261.371 37.5634 260.736 37.3991 260.007 37.3991C259.292 37.3991 258.657 37.5634 258.099 37.892C257.542 38.2064 257.106 38.6565 256.792 39.2423C256.478 39.8138 256.32 40.4711 256.32 41.2141V41.557C256.32 42.3143 256.492 42.9929 256.835 43.5931C257.192 44.1789 257.685 44.6361 258.314 44.9647C258.942 45.2934 259.664 45.4577 260.478 45.4577C261.15 45.4577 261.757 45.3434 262.3 45.1148C262.857 44.8861 263.343 44.5432 263.757 44.086L264.893 45.4148C264.379 46.0149 263.736 46.4721 262.964 46.7865C262.207 47.1008 261.357 47.258 260.414 47.258ZM268.814 47.1294V35.7702H270.936L275.822 44.1717H274.965L279.98 35.7702H281.909V47.1294H280.045V38.0849L280.388 38.2778L275.801 45.8435H274.901L270.293 38.1278L270.7 38.0421V47.1294H268.814ZM290.972 47.258C289.757 47.258 288.686 47.0079 287.757 46.5079C286.843 46.0078 286.128 45.3219 285.614 44.4503C285.114 43.5788 284.864 42.5786 284.864 41.4498C284.864 40.321 285.107 39.3209 285.592 38.4493C286.092 37.5777 286.771 36.899 287.628 36.4132C288.5 35.9131 289.479 35.6631 290.565 35.6631C291.665 35.6631 292.637 35.906 293.48 36.3918C294.323 36.8776 294.98 37.5634 295.451 38.4493C295.937 39.3209 296.18 40.3425 296.18 41.5141C296.18 41.5998 296.173 41.6999 296.159 41.8142C296.159 41.9285 296.151 42.0356 296.137 42.1356H286.471V40.6568H295.066L294.23 41.1712C294.244 40.4425 294.094 39.7924 293.78 39.2208C293.465 38.6493 293.029 38.2064 292.472 37.892C291.929 37.5634 291.293 37.3991 290.565 37.3991C289.85 37.3991 289.214 37.5634 288.657 37.892C288.1 38.2064 287.664 38.6565 287.35 39.2423C287.036 39.8138 286.878 40.4711 286.878 41.2141V41.557C286.878 42.3143 287.05 42.9929 287.393 43.5931C287.75 44.1789 288.243 44.6361 288.872 44.9647C289.5 45.2934 290.222 45.4577 291.036 45.4577C291.708 45.4577 292.315 45.3434 292.858 45.1148C293.415 44.8861 293.901 44.5432 294.315 44.086L295.451 45.4148C294.937 46.0149 294.294 46.4721 293.522 46.7865C292.765 47.1008 291.915 47.258 290.972 47.258ZM299.372 47.1294V35.7702H301.429V44.0431L308.395 35.7702H310.26V47.1294H308.202V38.8565L301.258 47.1294H299.372ZM304.687 34.2914C303.644 34.2914 302.823 34.0414 302.222 33.5413C301.637 33.0269 301.337 32.291 301.322 31.3337H302.715C302.73 31.8767 302.908 32.3053 303.251 32.6197C303.608 32.934 304.08 33.0912 304.666 33.0912C305.252 33.0912 305.723 32.934 306.08 32.6197C306.437 32.3053 306.623 31.8767 306.637 31.3337H308.073C308.059 32.291 307.752 33.0269 307.152 33.5413C306.552 34.0414 305.73 34.2914 304.687 34.2914ZM314.253 47.1294V35.7702H316.311V40.5925H322.783V35.7702H324.841V47.1294H322.783V42.3714H316.311V47.1294H314.253ZM333.707 47.258C332.564 47.258 331.549 47.0079 330.663 46.5079C329.777 46.0078 329.077 45.3219 328.563 44.4503C328.048 43.5645 327.791 42.5643 327.791 41.4498C327.791 40.321 328.048 39.3209 328.563 38.4493C329.077 37.5777 329.777 36.899 330.663 36.4132C331.549 35.9131 332.564 35.6631 333.707 35.6631C334.835 35.6631 335.843 35.9131 336.729 36.4132C337.629 36.899 338.329 37.5777 338.829 38.4493C339.343 39.3066 339.601 40.3068 339.601 41.4498C339.601 42.5786 339.343 43.5788 338.829 44.4503C338.329 45.3219 337.629 46.0078 336.729 46.5079C335.843 47.0079 334.835 47.258 333.707 47.258ZM333.707 45.4577C334.435 45.4577 335.085 45.2934 335.657 44.9647C336.243 44.6361 336.7 44.1717 337.029 43.5716C337.357 42.9572 337.522 42.25 337.522 41.4498C337.522 40.6354 337.357 39.9353 337.029 39.3494C336.7 38.7493 336.243 38.285 335.657 37.9563C335.085 37.6277 334.435 37.4634 333.707 37.4634C332.978 37.4634 332.328 37.6277 331.756 37.9563C331.185 38.285 330.727 38.7493 330.385 39.3494C330.042 39.9353 329.87 40.6354 329.87 41.4498C329.87 42.25 330.042 42.9572 330.385 43.5716C330.727 44.1717 331.185 44.6361 331.756 44.9647C332.328 45.2934 332.978 45.4577 333.707 45.4577ZM342.572 47.1294V35.7702H350.93V37.5705H344.136L344.629 37.099V47.1294H342.572ZM357.399 47.258C356.256 47.258 355.242 47.0079 354.356 46.5079C353.47 46.0078 352.77 45.3219 352.256 44.4503C351.741 43.5645 351.484 42.5643 351.484 41.4498C351.484 40.321 351.741 39.3209 352.256 38.4493C352.77 37.5777 353.47 36.899 354.356 36.4132C355.242 35.9131 356.256 35.6631 357.399 35.6631C358.528 35.6631 359.536 35.9131 360.421 36.4132C361.322 36.899 362.022 37.5777 362.522 38.4493C363.036 39.3066 363.293 40.3068 363.293 41.4498C363.293 42.5786 363.036 43.5788 362.522 44.4503C362.022 45.3219 361.322 46.0078 360.421 46.5079C359.536 47.0079 358.528 47.258 357.399 47.258ZM357.399 45.4577C358.128 45.4577 358.778 45.2934 359.35 44.9647C359.936 44.6361 360.393 44.1717 360.721 43.5716C361.05 42.9572 361.214 42.25 361.214 41.4498C361.214 40.6354 361.05 39.9353 360.721 39.3494C360.393 38.7493 359.936 38.285 359.35 37.9563C358.778 37.6277 358.128 37.4634 357.399 37.4634C356.671 37.4634 356.021 37.6277 355.449 37.9563C354.878 38.285 354.42 38.7493 354.077 39.3494C353.735 39.9353 353.563 40.6354 353.563 41.4498C353.563 42.25 353.735 42.9572 354.077 43.5716C354.42 44.1717 354.878 44.6361 355.449 44.9647C356.021 45.2934 356.671 45.4577 357.399 45.4577ZM376.885 47.258C375.742 47.258 374.728 47.0079 373.842 46.5079C372.956 46.0078 372.256 45.3219 371.742 44.4503C371.227 43.5645 370.97 42.5643 370.97 41.4498C370.97 40.321 371.227 39.3209 371.742 38.4493C372.256 37.5777 372.956 36.899 373.842 36.4132C374.728 35.9131 375.742 35.6631 376.885 35.6631C378.014 35.6631 379.021 35.9131 379.907 36.4132C380.807 36.899 381.508 37.5777 382.008 38.4493C382.522 39.3066 382.779 40.3068 382.779 41.4498C382.779 42.5786 382.522 43.5788 382.008 44.4503C381.508 45.3219 380.807 46.0078 379.907 46.5079C379.021 47.0079 378.014 47.258 376.885 47.258ZM376.885 45.4577C377.614 45.4577 378.264 45.2934 378.836 44.9647C379.421 44.6361 379.879 44.1717 380.207 43.5716C380.536 42.9572 380.7 42.25 380.7 41.4498C380.7 40.6354 380.536 39.9353 380.207 39.3494C379.879 38.7493 379.421 38.285 378.836 37.9563C378.264 37.6277 377.614 37.4634 376.885 37.4634C376.157 37.4634 375.507 37.6277 374.935 37.9563C374.363 38.285 373.906 38.7493 373.563 39.3494C373.22 39.9353 373.049 40.6354 373.049 41.4498C373.049 42.25 373.22 42.9572 373.563 43.5716C373.906 44.1717 374.363 44.6361 374.935 44.9647C375.507 45.2934 376.157 45.4577 376.885 45.4577ZM391.001 47.3009C390.058 47.3009 389.222 47.1508 388.494 46.8508C387.779 46.5507 387.165 46.1078 386.65 45.522C386.136 44.9219 385.743 44.1717 385.472 43.2716C385.214 42.3571 385.086 41.2855 385.086 40.0567C385.086 39.0851 385.172 38.2135 385.343 37.442C385.515 36.6704 385.757 35.9846 386.072 35.3844C386.4 34.7843 386.8 34.2628 387.272 33.8199C387.758 33.3769 388.301 33.0126 388.901 32.7268C389.515 32.4268 390.187 32.1982 390.915 32.041L396.102 30.8836L396.402 32.7911L391.623 33.8199C391.337 33.877 390.994 33.9628 390.594 34.0771C390.194 34.1914 389.787 34.37 389.372 34.6129C388.958 34.8415 388.572 35.163 388.215 35.5773C387.858 35.9917 387.572 36.5347 387.358 37.2062C387.143 37.8635 387.036 38.6779 387.036 39.6495C387.036 39.921 387.043 40.1281 387.058 40.271C387.072 40.4139 387.086 40.5568 387.101 40.6997C387.129 40.8426 387.151 41.0569 387.165 41.3426L386.308 40.4639C386.536 39.6781 386.9 38.9922 387.401 38.4064C387.901 37.8206 388.501 37.3705 389.201 37.0562C389.915 36.7275 390.694 36.5632 391.537 36.5632C392.594 36.5632 393.53 36.7918 394.345 37.2491C395.173 37.7063 395.824 38.335 396.295 39.1351C396.767 39.9353 397.002 40.8497 397.002 41.8785C397.002 42.9215 396.752 43.8574 396.252 44.6861C395.766 45.5005 395.073 46.1435 394.173 46.615C393.273 47.0722 392.216 47.3009 391.001 47.3009ZM391.194 45.5863C391.923 45.5863 392.566 45.4291 393.123 45.1148C393.68 44.7861 394.116 44.3503 394.43 43.8074C394.745 43.2501 394.902 42.6286 394.902 41.9428C394.902 41.2569 394.745 40.6497 394.43 40.121C394.116 39.5923 393.68 39.178 393.123 38.8779C392.566 38.5636 391.909 38.4064 391.151 38.4064C390.437 38.4064 389.794 38.5564 389.222 38.8565C388.651 39.1423 388.208 39.5495 387.894 40.0781C387.579 40.5925 387.422 41.1926 387.422 41.8785C387.422 42.5643 387.579 43.193 387.894 43.7645C388.222 44.3218 388.665 44.7647 389.222 45.0933C389.794 45.4219 390.451 45.5863 391.194 45.5863ZM405.963 47.258C405.02 47.258 404.156 47.0437 403.37 46.615C402.598 46.1721 401.977 45.522 401.505 44.6647C401.048 43.8074 400.82 42.7358 400.82 41.4498C400.82 40.1639 401.041 39.0922 401.484 38.235C401.941 37.3777 402.556 36.7347 403.327 36.306C404.113 35.8774 404.992 35.6631 405.963 35.6631C407.078 35.6631 408.064 35.906 408.921 36.3918C409.778 36.8776 410.457 37.5563 410.957 38.4278C411.457 39.2851 411.707 40.2925 411.707 41.4498C411.707 42.6072 411.457 43.6216 410.957 44.4932C410.457 45.3648 409.778 46.0435 408.921 46.5293C408.064 47.0151 407.078 47.258 405.963 47.258ZM399.941 51.2873V35.7702H401.913V38.8351L401.784 41.4712L401.998 44.1074V51.2873H399.941ZM405.792 45.4577C406.521 45.4577 407.171 45.2934 407.742 44.9647C408.328 44.6361 408.785 44.1717 409.114 43.5716C409.457 42.9572 409.628 42.25 409.628 41.4498C409.628 40.6354 409.457 39.9353 409.114 39.3494C408.785 38.7493 408.328 38.285 407.742 37.9563C407.171 37.6277 406.521 37.4634 405.792 37.4634C405.078 37.4634 404.427 37.6277 403.842 37.9563C403.27 38.285 402.813 38.7493 402.47 39.3494C402.141 39.9353 401.977 40.6354 401.977 41.4498C401.977 42.25 402.141 42.9572 402.47 43.5716C402.813 44.1717 403.27 44.6361 403.842 44.9647C404.427 45.2934 405.078 45.4577 405.792 45.4577ZM421.557 47.1294V44.729L421.45 44.2789V40.1853C421.45 39.3137 421.193 38.6422 420.679 38.1707C420.179 37.6849 419.421 37.442 418.407 37.442C417.735 37.442 417.078 37.5563 416.435 37.7849C415.792 37.9992 415.249 38.2921 414.806 38.6636L413.949 37.1205C414.535 36.649 415.235 36.2918 416.049 36.0489C416.878 35.7917 417.742 35.6631 418.643 35.6631C420.2 35.6631 421.4 36.0417 422.243 36.799C423.086 37.5563 423.508 38.7136 423.508 40.271V47.1294H421.557ZM417.828 47.258C416.985 47.258 416.242 47.1151 415.599 46.8293C414.971 46.5436 414.485 46.1506 414.142 45.6506C413.799 45.1362 413.627 44.5575 413.627 43.9145C413.627 43.3001 413.77 42.7429 414.056 42.2428C414.356 41.7427 414.835 41.3426 415.492 41.0426C416.164 40.7425 417.064 40.5925 418.193 40.5925H421.793V42.0714H418.278C417.25 42.0714 416.557 42.2428 416.199 42.5857C415.842 42.9286 415.664 43.343 415.664 43.8288C415.664 44.386 415.885 44.8361 416.328 45.179C416.771 45.5077 417.385 45.672 418.171 45.672C418.943 45.672 419.614 45.5005 420.186 45.1576C420.772 44.8147 421.193 44.3146 421.45 43.6573L421.858 45.0719C421.586 45.7434 421.107 46.2792 420.422 46.6793C419.736 47.0651 418.871 47.258 417.828 47.258ZM430.346 47.2794C429.489 47.2794 428.646 47.1723 427.817 46.9579C427.003 46.7293 426.274 46.4078 425.631 45.9935L426.253 44.4289C426.796 44.7718 427.417 45.0433 428.117 45.2433C428.818 45.4291 429.525 45.522 430.239 45.522C430.897 45.522 431.461 45.4434 431.932 45.2862C432.418 45.129 432.79 44.9147 433.047 44.6432C433.304 44.3575 433.433 44.0288 433.433 43.6573C433.433 43.1287 433.197 42.7215 432.725 42.4357C432.254 42.1499 431.597 42.0071 430.754 42.0071H428.696V40.5282H430.625C431.125 40.5282 431.561 40.4711 431.932 40.3568C432.304 40.2425 432.59 40.071 432.79 39.8424C433.004 39.5995 433.111 39.3209 433.111 39.0065C433.111 38.6636 432.99 38.3707 432.747 38.1278C432.504 37.8849 432.161 37.6991 431.718 37.5705C431.289 37.442 430.782 37.3777 430.196 37.3777C429.625 37.3919 429.039 37.4705 428.439 37.6134C427.853 37.7563 427.253 37.9778 426.639 38.2778L426.081 36.6704C426.767 36.3418 427.439 36.0917 428.096 35.9203C428.768 35.7345 429.432 35.6345 430.089 35.6202C431.075 35.5916 431.954 35.7059 432.725 35.9631C433.497 36.206 434.104 36.5632 434.547 37.0347C435.004 37.5063 435.233 38.0635 435.233 38.7065C435.233 39.2494 435.062 39.7352 434.719 40.1639C434.376 40.5782 433.918 40.9069 433.347 41.1498C432.775 41.3927 432.118 41.5141 431.375 41.5141L431.461 41.0212C432.733 41.0212 433.733 41.2712 434.461 41.7713C435.19 42.2714 435.554 42.9501 435.554 43.8074C435.554 44.4932 435.326 45.1005 434.869 45.6291C434.411 46.1435 433.79 46.5507 433.004 46.8508C432.232 47.1365 431.347 47.2794 430.346 47.2794ZM443.548 47.258C442.405 47.258 441.39 47.0079 440.504 46.5079C439.618 46.0078 438.918 45.3219 438.404 44.4503C437.889 43.5645 437.632 42.5643 437.632 41.4498C437.632 40.321 437.889 39.3209 438.404 38.4493C438.918 37.5777 439.618 36.899 440.504 36.4132C441.39 35.9131 442.405 35.6631 443.548 35.6631C444.676 35.6631 445.684 35.9131 446.57 36.4132C447.47 36.899 448.17 37.5777 448.67 38.4493C449.184 39.3066 449.441 40.3068 449.441 41.4498C449.441 42.5786 449.184 43.5788 448.67 44.4503C448.17 45.3219 447.47 46.0078 446.57 46.5079C445.684 47.0079 444.676 47.258 443.548 47.258ZM443.548 45.4577C444.276 45.4577 444.926 45.2934 445.498 44.9647C446.084 44.6361 446.541 44.1717 446.87 43.5716C447.198 42.9572 447.363 42.25 447.363 41.4498C447.363 40.6354 447.198 39.9353 446.87 39.3494C446.541 38.7493 446.084 38.285 445.498 37.9563C444.926 37.6277 444.276 37.4634 443.548 37.4634C442.819 37.4634 442.169 37.6277 441.597 37.9563C441.026 38.285 440.568 38.7493 440.226 39.3494C439.883 39.9353 439.711 40.6354 439.711 41.4498C439.711 42.25 439.883 42.9572 440.226 43.5716C440.568 44.1717 441.026 44.6361 441.597 44.9647C442.169 45.2934 442.819 45.4577 443.548 45.4577ZM452.413 47.1294V35.7702H457.685C459.014 35.7702 460.057 36.0274 460.814 36.5418C461.586 37.0419 461.971 37.7563 461.971 38.685C461.971 39.6138 461.607 40.3353 460.878 40.8497C460.164 41.3498 459.214 41.5998 458.028 41.5998L458.349 41.0426C459.707 41.0426 460.714 41.2926 461.371 41.7927C462.029 42.2928 462.357 43.0287 462.357 44.0003C462.357 44.9862 461.986 45.7577 461.243 46.315C460.514 46.8579 459.392 47.1294 457.878 47.1294H452.413ZM454.427 45.5434H457.728C458.585 45.5434 459.228 45.4148 459.657 45.1576C460.085 44.8861 460.3 44.4575 460.3 43.8717C460.3 43.2716 460.1 42.8358 459.7 42.5643C459.314 42.2785 458.699 42.1356 457.856 42.1356H454.427V45.5434ZM454.427 40.6568H457.513C458.299 40.6568 458.892 40.5139 459.292 40.2282C459.707 39.9281 459.914 39.5138 459.914 38.9851C459.914 38.4421 459.707 38.0349 459.292 37.7634C458.892 37.492 458.299 37.3562 457.513 37.3562H454.427V40.6568ZM472.543 47.1294V44.729L472.436 44.2789V40.1853C472.436 39.3137 472.179 38.6422 471.664 38.1707C471.164 37.6849 470.407 37.442 469.393 37.442C468.721 37.442 468.064 37.5563 467.421 37.7849C466.778 37.9992 466.235 38.2921 465.792 38.6636L464.935 37.1205C465.52 36.649 466.221 36.2918 467.035 36.0489C467.864 35.7917 468.728 35.6631 469.628 35.6631C471.186 35.6631 472.386 36.0417 473.229 36.799C474.072 37.5563 474.493 38.7136 474.493 40.271V47.1294H472.543ZM468.814 47.258C467.971 47.258 467.228 47.1151 466.585 46.8293C465.956 46.5436 465.47 46.1506 465.127 45.6506C464.785 45.1362 464.613 44.5575 464.613 43.9145C464.613 43.3001 464.756 42.7429 465.042 42.2428C465.342 41.7427 465.82 41.3426 466.478 41.0426C467.149 40.7425 468.049 40.5925 469.178 40.5925H472.779V42.0714H469.264C468.235 42.0714 467.542 42.2428 467.185 42.5857C466.828 42.9286 466.649 43.343 466.649 43.8288C466.649 44.386 466.871 44.8361 467.314 45.179C467.757 45.5077 468.371 45.672 469.157 45.672C469.928 45.672 470.6 45.5005 471.171 45.1576C471.757 44.8147 472.179 44.3146 472.436 43.6573L472.843 45.0719C472.572 45.7434 472.093 46.2792 471.407 46.6793C470.721 47.0651 469.857 47.258 468.814 47.258ZM478.198 47.1294V35.7702H480.256V40.5925H486.728V35.7702H488.786V47.1294H486.728V42.3714H480.256V47.1294H478.198ZM492.787 47.1294V35.7702H494.844V44.0431L501.81 35.7702H503.674V47.1294H501.617V38.8565L494.673 47.1294H492.787ZM514.934 47.1294V43.143L515.255 43.5288H511.633C510.118 43.5288 508.932 43.2073 508.075 42.5643C507.232 41.9213 506.811 40.9854 506.811 39.7567C506.811 38.4421 507.261 37.4491 508.161 36.7776C509.075 36.106 510.29 35.7702 511.804 35.7702H516.777V47.1294H514.934ZM506.703 47.1294L509.79 42.7786H511.912L508.911 47.1294H506.703ZM514.934 42.5V36.9919L515.255 37.5705H511.869C510.926 37.5705 510.197 37.7492 509.683 38.1064C509.168 38.4493 508.911 39.0208 508.911 39.821C508.911 41.3069 509.868 42.0499 511.783 42.0499H515.255L514.934 42.5ZM526.547 47.1294V35.7702H531.819C533.148 35.7702 534.191 36.0274 534.948 36.5418C535.72 37.0419 536.106 37.7563 536.106 38.685C536.106 39.6138 535.741 40.3353 535.013 40.8497C534.298 41.3498 533.348 41.5998 532.162 41.5998L532.484 41.0426C533.841 41.0426 534.848 41.2926 535.506 41.7927C536.163 42.2928 536.491 43.0287 536.491 44.0003C536.491 44.9862 536.12 45.7577 535.377 46.315C534.648 46.8579 533.527 47.1294 532.012 47.1294H526.547ZM528.561 45.5434H531.862C532.719 45.5434 533.362 45.4148 533.791 45.1576C534.22 44.8861 534.434 44.4575 534.434 43.8717C534.434 43.2716 534.234 42.8358 533.834 42.5643C533.448 42.2785 532.834 42.1356 531.991 42.1356H528.561V45.5434ZM528.561 40.6568H531.648C532.434 40.6568 533.027 40.5139 533.427 40.2282C533.841 39.9281 534.048 39.5138 534.048 38.9851C534.048 38.4421 533.841 38.0349 533.427 37.7634C533.027 37.492 532.434 37.3562 531.648 37.3562H528.561V40.6568ZM545.811 47.1294V32.1267H551.662C552.976 32.1267 554.098 32.3339 555.026 32.7483C555.955 33.1626 556.67 33.7627 557.17 34.5486C557.67 35.3344 557.92 36.2703 557.92 37.3562C557.92 38.4421 557.67 39.378 557.17 40.1639C556.67 40.9354 555.955 41.5355 555.026 41.9642C554.098 42.3785 552.976 42.5857 551.662 42.5857H546.989L547.954 41.5784V47.1294H545.811ZM547.954 41.7927L546.989 40.7211H551.597C552.969 40.7211 554.005 40.4282 554.705 39.8424C555.419 39.2566 555.777 38.4278 555.777 37.3562C555.777 36.2846 555.419 35.4559 554.705 34.8701C554.005 34.2843 552.969 33.9913 551.597 33.9913H546.989L547.954 32.9197V41.7927ZM565.381 47.258C564.238 47.258 563.224 47.0079 562.338 46.5079C561.452 46.0078 560.752 45.3219 560.238 44.4503C559.723 43.5645 559.466 42.5643 559.466 41.4498C559.466 40.321 559.723 39.3209 560.238 38.4493C560.752 37.5777 561.452 36.899 562.338 36.4132C563.224 35.9131 564.238 35.6631 565.381 35.6631C566.51 35.6631 567.518 35.9131 568.403 36.4132C569.304 36.899 570.004 37.5777 570.504 38.4493C571.018 39.3066 571.275 40.3068 571.275 41.4498C571.275 42.5786 571.018 43.5788 570.504 44.4503C570.004 45.3219 569.304 46.0078 568.403 46.5079C567.518 47.0079 566.51 47.258 565.381 47.258ZM565.381 45.4577C566.11 45.4577 566.76 45.2934 567.332 44.9647C567.918 44.6361 568.375 44.1717 568.704 43.5716C569.032 42.9572 569.196 42.25 569.196 41.4498C569.196 40.6354 569.032 39.9353 568.704 39.3494C568.375 38.7493 567.918 38.285 567.332 37.9563C566.76 37.6277 566.11 37.4634 565.381 37.4634C564.653 37.4634 564.003 37.6277 563.431 37.9563C562.86 38.285 562.402 38.7493 562.059 39.3494C561.717 39.9353 561.545 40.6354 561.545 41.4498C561.545 42.25 561.717 42.9572 562.059 43.5716C562.402 44.1717 562.86 44.6361 563.431 44.9647C564.003 45.2934 564.653 45.4577 565.381 45.4577ZM579.197 47.258C578.04 47.258 577.004 47.0079 576.09 46.5079C575.189 46.0078 574.482 45.3219 573.968 44.4503C573.453 43.5788 573.196 42.5786 573.196 41.4498C573.196 40.321 573.453 39.3209 573.968 38.4493C574.482 37.5777 575.189 36.899 576.09 36.4132C577.004 35.9131 578.04 35.6631 579.197 35.6631C580.226 35.6631 581.141 35.8702 581.941 36.2846C582.755 36.6847 583.384 37.2848 583.827 38.0849L582.262 39.0922C581.891 38.535 581.433 38.1278 580.89 37.8706C580.362 37.5991 579.79 37.4634 579.176 37.4634C578.433 37.4634 577.769 37.6277 577.183 37.9563C576.597 38.285 576.132 38.7493 575.79 39.3494C575.447 39.9353 575.275 40.6354 575.275 41.4498C575.275 42.2642 575.447 42.9715 575.79 43.5716C576.132 44.1717 576.597 44.6361 577.183 44.9647C577.769 45.2934 578.433 45.4577 579.176 45.4577C579.79 45.4577 580.362 45.3291 580.89 45.0719C581.433 44.8004 581.891 44.386 582.262 43.8288L583.827 44.8147C583.384 45.6006 582.755 46.2078 581.941 46.6364C581.141 47.0508 580.226 47.258 579.197 47.258ZM591.274 47.258C590.117 47.258 589.081 47.0079 588.166 46.5079C587.266 46.0078 586.559 45.3219 586.044 44.4503C585.53 43.5788 585.273 42.5786 585.273 41.4498C585.273 40.321 585.53 39.3209 586.044 38.4493C586.559 37.5777 587.266 36.899 588.166 36.4132C589.081 35.9131 590.117 35.6631 591.274 35.6631C592.303 35.6631 593.217 35.8702 594.017 36.2846C594.832 36.6847 595.46 37.2848 595.903 38.0849L594.339 39.0922C593.967 38.535 593.51 38.1278 592.967 37.8706C592.438 37.5991 591.867 37.4634 591.253 37.4634C590.51 37.4634 589.845 37.6277 589.259 37.9563C588.674 38.285 588.209 38.7493 587.866 39.3494C587.523 39.9353 587.352 40.6354 587.352 41.4498C587.352 42.2642 587.523 42.9715 587.866 43.5716C588.209 44.1717 588.674 44.6361 589.259 44.9647C589.845 45.2934 590.51 45.4577 591.253 45.4577C591.867 45.4577 592.438 45.3291 592.967 45.0719C593.51 44.8004 593.967 44.386 594.339 43.8288L595.903 44.8147C595.46 45.6006 594.832 46.2078 594.017 46.6364C593.217 47.0508 592.303 47.258 591.274 47.258ZM598.567 47.1294V35.7702H600.625V44.0431L607.59 35.7702H609.455V47.1294H607.397V38.8565L600.453 47.1294H598.567ZM613.448 47.1294V35.7702H615.506V44.0431L622.472 35.7702H624.336V47.1294H622.279V38.8565L615.335 47.1294H613.448Z" fill="#222222"/>
<path d="M88.5066 109.578L93.4575 98.6097L93.8909 99.3599H86.9563L87.7898 98.5431V101.444H86.1895V97.9096H94.9911V99.0432L90.2736 109.578H88.5066ZM100.894 109.712C99.983 109.712 99.1662 109.478 98.4438 109.012C97.7326 108.545 97.1658 107.867 96.7435 106.978C96.3323 106.089 96.1267 105.011 96.1267 103.744C96.1267 102.477 96.3323 101.399 96.7435 100.51C97.1658 99.621 97.7326 98.9431 98.4438 98.4764C99.1662 98.0096 99.983 97.7763 100.894 97.7763C101.794 97.7763 102.606 98.0096 103.328 98.4764C104.05 98.9431 104.617 99.621 105.028 100.51C105.439 101.399 105.645 102.477 105.645 103.744C105.645 105.011 105.439 106.089 105.028 106.978C104.617 107.867 104.05 108.545 103.328 109.012C102.606 109.478 101.794 109.712 100.894 109.712ZM100.894 108.228C101.505 108.228 102.039 108.061 102.495 107.728C102.961 107.395 103.322 106.895 103.578 106.228C103.845 105.561 103.978 104.733 103.978 103.744C103.978 102.755 103.845 101.927 103.578 101.26C103.322 100.593 102.961 100.093 102.495 99.76C102.039 99.4266 101.505 99.2599 100.894 99.2599C100.283 99.2599 99.744 99.4266 99.2773 99.76C98.8105 100.093 98.4438 100.593 98.1771 101.26C97.9215 101.927 97.7937 102.755 97.7937 103.744C97.7937 104.733 97.9215 105.561 98.1771 106.228C98.4438 106.895 98.8105 107.395 99.2773 107.728C99.744 108.061 100.283 108.228 100.894 108.228ZM116.489 109.712C115.578 109.712 114.761 109.478 114.039 109.012C113.328 108.545 112.761 107.867 112.339 106.978C111.928 106.089 111.722 105.011 111.722 103.744C111.722 102.477 111.928 101.399 112.339 100.51C112.761 99.621 113.328 98.9431 114.039 98.4764C114.761 98.0096 115.578 97.7763 116.489 97.7763C117.39 97.7763 118.201 98.0096 118.923 98.4764C119.646 98.9431 120.212 99.621 120.624 100.51C121.035 101.399 121.24 102.477 121.24 103.744C121.24 105.011 121.035 106.089 120.624 106.978C120.212 107.867 119.646 108.545 118.923 109.012C118.201 109.478 117.39 109.712 116.489 109.712ZM116.489 108.228C117.101 108.228 117.634 108.061 118.09 107.728C118.557 107.395 118.918 106.895 119.173 106.228C119.44 105.561 119.573 104.733 119.573 103.744C119.573 102.755 119.44 101.927 119.173 101.26C118.918 100.593 118.557 100.093 118.09 99.76C117.634 99.4266 117.101 99.2599 116.489 99.2599C115.878 99.2599 115.339 99.4266 114.873 99.76C114.406 100.093 114.039 100.593 113.772 101.26C113.517 101.927 113.389 102.755 113.389 103.744C113.389 104.733 113.517 105.561 113.772 106.228C114.039 106.895 114.406 107.395 114.873 107.728C115.339 108.061 115.878 108.228 116.489 108.228ZM127.608 109.712C126.697 109.712 125.88 109.478 125.158 109.012C124.446 108.545 123.88 107.867 123.457 106.978C123.046 106.089 122.84 105.011 122.84 103.744C122.84 102.477 123.046 101.399 123.457 100.51C123.88 99.621 124.446 98.9431 125.158 98.4764C125.88 98.0096 126.697 97.7763 127.608 97.7763C128.508 97.7763 129.319 98.0096 130.042 98.4764C130.764 98.9431 131.331 99.621 131.742 100.51C132.153 101.399 132.359 102.477 132.359 103.744C132.359 105.011 132.153 106.089 131.742 106.978C131.331 107.867 130.764 108.545 130.042 109.012C129.319 109.478 128.508 109.712 127.608 109.712ZM127.608 108.228C128.219 108.228 128.753 108.061 129.208 107.728C129.675 107.395 130.036 106.895 130.292 106.228C130.559 105.561 130.692 104.733 130.692 103.744C130.692 102.755 130.559 101.927 130.292 101.26C130.036 100.593 129.675 100.093 129.208 99.76C128.753 99.4266 128.219 99.2599 127.608 99.2599C126.997 99.2599 126.458 99.4266 125.991 99.76C125.524 100.093 125.158 100.593 124.891 101.26C124.635 101.927 124.507 102.755 124.507 103.744C124.507 104.733 124.635 105.561 124.891 106.228C125.158 106.895 125.524 107.395 125.991 107.728C126.458 108.061 126.997 108.228 127.608 108.228ZM138.726 109.712C137.815 109.712 136.998 109.478 136.276 109.012C135.565 108.545 134.998 107.867 134.576 106.978C134.165 106.089 133.959 105.011 133.959 103.744C133.959 102.477 134.165 101.399 134.576 100.51C134.998 99.621 135.565 98.9431 136.276 98.4764C136.998 98.0096 137.815 97.7763 138.726 97.7763C139.627 97.7763 140.438 98.0096 141.16 98.4764C141.883 98.9431 142.449 99.621 142.861 100.51C143.272 101.399 143.477 102.477 143.477 103.744C143.477 105.011 143.272 106.089 142.861 106.978C142.449 107.867 141.883 108.545 141.16 109.012C140.438 109.478 139.627 109.712 138.726 109.712ZM138.726 108.228C139.338 108.228 139.871 108.061 140.327 107.728C140.794 107.395 141.155 106.895 141.41 106.228C141.677 105.561 141.81 104.733 141.81 103.744C141.81 102.755 141.677 101.927 141.41 101.26C141.155 100.593 140.794 100.093 140.327 99.76C139.871 99.4266 139.338 99.2599 138.726 99.2599C138.115 99.2599 137.576 99.4266 137.11 99.76C136.643 100.093 136.276 100.593 136.009 101.26C135.754 101.927 135.626 102.755 135.626 103.744C135.626 104.733 135.754 105.561 136.009 106.228C136.276 106.895 136.643 107.395 137.11 107.728C137.576 108.061 138.115 108.228 138.726 108.228Z" fill="black" fill-opacity="0.75"/>
<path d="M91.3905 162.071C90.357 162.071 89.4735 161.843 88.74 161.387C88.0065 160.932 87.4453 160.276 87.0564 159.42C86.6785 158.554 86.4896 157.498 86.4896 156.253C86.4896 154.931 86.723 153.814 87.1897 152.903C87.6565 151.991 88.3066 151.302 89.1401 150.836C89.9735 150.369 90.9293 150.135 92.0072 150.135C92.5629 150.135 93.0908 150.191 93.5909 150.302C94.1021 150.413 94.541 150.585 94.9078 150.819L94.2743 152.119C93.9743 151.908 93.6298 151.763 93.2408 151.686C92.863 151.608 92.4629 151.569 92.0406 151.569C90.8515 151.569 89.9069 151.941 89.2067 152.686C88.5066 153.419 88.1566 154.514 88.1566 155.97C88.1566 156.203 88.1677 156.481 88.1899 156.803C88.2121 157.126 88.2677 157.442 88.3566 157.753L87.7898 157.187C87.9565 156.675 88.2177 156.248 88.5733 155.903C88.94 155.547 89.3734 155.286 89.8735 155.12C90.3847 154.942 90.9348 154.853 91.5238 154.853C92.3017 154.853 92.9908 154.997 93.5909 155.286C94.191 155.575 94.6633 155.986 95.0078 156.52C95.3523 157.042 95.5245 157.665 95.5245 158.387C95.5245 159.131 95.3412 159.782 94.9744 160.337C94.6077 160.893 94.1132 161.321 93.4908 161.621C92.8685 161.921 92.1684 162.071 91.3905 162.071ZM91.3238 160.721C91.835 160.721 92.2795 160.626 92.6574 160.437C93.0463 160.248 93.3519 159.987 93.5742 159.654C93.7965 159.309 93.9076 158.909 93.9076 158.454C93.9076 157.765 93.6687 157.22 93.1908 156.82C92.7129 156.409 92.0628 156.203 91.2404 156.203C90.707 156.203 90.2403 156.303 89.8402 156.503C89.4401 156.703 89.1234 156.976 88.89 157.32C88.6678 157.653 88.5566 158.037 88.5566 158.47C88.5566 158.87 88.6622 159.243 88.8734 159.587C89.0845 159.92 89.3957 160.193 89.8069 160.404C90.218 160.615 90.7237 160.721 91.3238 160.721ZM101.545 162.071C100.634 162.071 99.8173 161.837 99.095 161.371C98.3837 160.904 97.817 160.226 97.3947 159.337C96.9835 158.448 96.7779 157.37 96.7779 156.103C96.7779 154.836 96.9835 153.758 97.3947 152.869C97.817 151.98 98.3837 151.302 99.095 150.836C99.8173 150.369 100.634 150.135 101.545 150.135C102.446 150.135 103.257 150.369 103.979 150.836C104.702 151.302 105.268 151.98 105.679 152.869C106.091 153.758 106.296 154.836 106.296 156.103C106.296 157.37 106.091 158.448 105.679 159.337C105.268 160.226 104.702 160.904 103.979 161.371C103.257 161.837 102.446 162.071 101.545 162.071ZM101.545 160.587C102.157 160.587 102.69 160.421 103.146 160.087C103.612 159.754 103.974 159.254 104.229 158.587C104.496 157.92 104.629 157.092 104.629 156.103C104.629 155.114 104.496 154.286 104.229 153.619C103.974 152.953 103.612 152.452 103.146 152.119C102.69 151.786 102.157 151.619 101.545 151.619C100.934 151.619 100.395 151.786 99.9284 152.119C99.4617 152.452 99.095 152.953 98.8283 153.619C98.5726 154.286 98.4448 155.114 98.4448 156.103C98.4448 157.092 98.5726 157.92 98.8283 158.587C99.095 159.254 99.4617 159.754 99.9284 160.087C100.395 160.421 100.934 160.587 101.545 160.587ZM117.141 162.071C116.229 162.071 115.413 161.837 114.69 161.371C113.979 160.904 113.412 160.226 112.99 159.337C112.579 158.448 112.373 157.37 112.373 156.103C112.373 154.836 112.579 153.758 112.99 152.869C113.412 151.98 113.979 151.302 114.69 150.836C115.413 150.369 116.229 150.135 117.141 150.135C118.041 150.135 118.852 150.369 119.574 150.836C120.297 151.302 120.864 151.98 121.275 152.869C121.686 153.758 121.891 154.836 121.891 156.103C121.891 157.37 121.686 158.448 121.275 159.337C120.864 160.226 120.297 160.904 119.574 161.371C118.852 161.837 118.041 162.071 117.141 162.071ZM117.141 160.587C117.752 160.587 118.285 160.421 118.741 160.087C119.208 159.754 119.569 159.254 119.824 158.587C120.091 157.92 120.225 157.092 120.225 156.103C120.225 155.114 120.091 154.286 119.824 153.619C119.569 152.953 119.208 152.452 118.741 152.119C118.285 151.786 117.752 151.619 117.141 151.619C116.529 151.619 115.99 151.786 115.524 152.119C115.057 152.452 114.69 152.953 114.423 153.619C114.168 154.286 114.04 155.114 114.04 156.103C114.04 157.092 114.168 157.92 114.423 158.587C114.69 159.254 115.057 159.754 115.524 160.087C115.99 160.421 116.529 160.587 117.141 160.587ZM128.259 162.071C127.348 162.071 126.531 161.837 125.809 161.371C125.097 160.904 124.531 160.226 124.108 159.337C123.697 158.448 123.492 157.37 123.492 156.103C123.492 154.836 123.697 153.758 124.108 152.869C124.531 151.98 125.097 151.302 125.809 150.836C126.531 150.369 127.348 150.135 128.259 150.135C129.159 150.135 129.971 150.369 130.693 150.836C131.415 151.302 131.982 151.98 132.393 152.869C132.804 153.758 133.01 154.836 133.01 156.103C133.01 157.37 132.804 158.448 132.393 159.337C131.982 160.226 131.415 160.904 130.693 161.371C129.971 161.837 129.159 162.071 128.259 162.071ZM128.259 160.587C128.87 160.587 129.404 160.421 129.859 160.087C130.326 159.754 130.687 159.254 130.943 158.587C131.21 157.92 131.343 157.092 131.343 156.103C131.343 155.114 131.21 154.286 130.943 153.619C130.687 152.953 130.326 152.452 129.859 152.119C129.404 151.786 128.87 151.619 128.259 151.619C127.648 151.619 127.109 151.786 126.642 152.119C126.175 152.452 125.809 152.953 125.542 153.619C125.286 154.286 125.159 155.114 125.159 156.103C125.159 157.092 125.286 157.92 125.542 158.587C125.809 159.254 126.175 159.754 126.642 160.087C127.109 160.421 127.648 160.587 128.259 160.587ZM139.378 162.071C138.466 162.071 137.65 161.837 136.927 161.371C136.216 160.904 135.649 160.226 135.227 159.337C134.816 158.448 134.61 157.37 134.61 156.103C134.61 154.836 134.816 153.758 135.227 152.869C135.649 151.98 136.216 151.302 136.927 150.836C137.65 150.369 138.466 150.135 139.378 150.135C140.278 150.135 141.089 150.369 141.811 150.836C142.534 151.302 143.101 151.98 143.512 152.869C143.923 153.758 144.129 154.836 144.129 156.103C144.129 157.37 143.923 158.448 143.512 159.337C143.101 160.226 142.534 160.904 141.811 161.371C141.089 161.837 140.278 162.071 139.378 162.071ZM139.378 160.587C139.989 160.587 140.522 160.421 140.978 160.087C141.445 159.754 141.806 159.254 142.061 158.587C142.328 157.92 142.462 157.092 142.462 156.103C142.462 155.114 142.328 154.286 142.061 153.619C141.806 152.953 141.445 152.452 140.978 152.119C140.522 151.786 139.989 151.619 139.378 151.619C138.766 151.619 138.227 151.786 137.761 152.119C137.294 152.452 136.927 152.953 136.661 153.619C136.405 154.286 136.277 155.114 136.277 156.103C136.277 157.092 136.405 157.92 136.661 158.587C136.927 159.254 137.294 159.754 137.761 160.087C138.227 160.421 138.766 160.587 139.378 160.587Z" fill="black" fill-opacity="0.75"/>
<path d="M90.2569 214.43C89.4346 214.43 88.6344 214.302 87.8565 214.046C87.0897 213.791 86.4618 213.446 85.9728 213.013L86.7396 211.696C87.1286 212.063 87.6342 212.363 88.2566 212.596C88.8789 212.829 89.5401 212.946 90.2403 212.946C91.1293 212.946 91.8128 212.757 92.2906 212.379C92.7685 212.002 93.0074 211.496 93.0074 210.862C93.0074 210.429 92.9018 210.051 92.6907 209.729C92.4796 209.407 92.1128 209.162 91.5905 208.995C91.0793 208.818 90.3736 208.729 89.4735 208.729H86.823L87.4398 202.628H94.0243V204.078H88.0565L88.9234 203.261L88.4399 208.079L87.5731 207.278H89.8235C90.9904 207.278 91.9295 207.428 92.6407 207.729C93.3519 208.029 93.8687 208.445 94.191 208.979C94.5132 209.501 94.6744 210.107 94.6744 210.796C94.6744 211.463 94.5132 212.074 94.191 212.629C93.8687 213.174 93.3797 213.613 92.724 213.946C92.0795 214.269 91.2571 214.43 90.2569 214.43ZM100.829 214.43C99.9179 214.43 99.101 214.196 98.3787 213.73C97.6675 213.263 97.1007 212.585 96.6784 211.696C96.2672 210.807 96.0616 209.729 96.0616 208.462C96.0616 207.195 96.2672 206.117 96.6784 205.228C97.1007 204.339 97.6675 203.661 98.3787 203.194C99.101 202.728 99.9179 202.494 100.829 202.494C101.729 202.494 102.541 202.728 103.263 203.194C103.985 203.661 104.552 204.339 104.963 205.228C105.374 206.117 105.58 207.195 105.58 208.462C105.58 209.729 105.374 210.807 104.963 211.696C104.552 212.585 103.985 213.263 103.263 213.73C102.541 214.196 101.729 214.43 100.829 214.43ZM100.829 212.946C101.44 212.946 101.974 212.779 102.429 212.446C102.896 212.113 103.257 211.613 103.513 210.946C103.78 210.279 103.913 209.451 103.913 208.462C103.913 207.473 103.78 206.645 103.513 205.978C103.257 205.311 102.896 204.811 102.429 204.478C101.974 204.145 101.44 203.978 100.829 203.978C100.218 203.978 99.6789 204.145 99.2122 204.478C98.7454 204.811 98.3787 205.311 98.112 205.978C97.8564 206.645 97.7286 207.473 97.7286 208.462C97.7286 209.451 97.8564 210.279 98.112 210.946C98.3787 211.613 98.7454 212.113 99.2122 212.446C99.6789 212.779 100.218 212.946 100.829 212.946ZM116.424 214.43C115.513 214.43 114.696 214.196 113.974 213.73C113.263 213.263 112.696 212.585 112.274 211.696C111.862 210.807 111.657 209.729 111.657 208.462C111.657 207.195 111.862 206.117 112.274 205.228C112.696 204.339 113.263 203.661 113.974 203.194C114.696 202.728 115.513 202.494 116.424 202.494C117.325 202.494 118.136 202.728 118.858 203.194C119.58 203.661 120.147 204.339 120.558 205.228C120.97 206.117 121.175 207.195 121.175 208.462C121.175 209.729 120.97 210.807 120.558 211.696C120.147 212.585 119.58 213.263 118.858 213.73C118.136 214.196 117.325 214.43 116.424 214.43ZM116.424 212.946C117.036 212.946 117.569 212.779 118.025 212.446C118.491 212.113 118.853 211.613 119.108 210.946C119.375 210.279 119.508 209.451 119.508 208.462C119.508 207.473 119.375 206.645 119.108 205.978C118.853 205.311 118.491 204.811 118.025 204.478C117.569 204.145 117.036 203.978 116.424 203.978C115.813 203.978 115.274 204.145 114.807 204.478C114.341 204.811 113.974 205.311 113.707 205.978C113.452 206.645 113.324 207.473 113.324 208.462C113.324 209.451 113.452 210.279 113.707 210.946C113.974 211.613 114.341 212.113 114.807 212.446C115.274 212.779 115.813 212.946 116.424 212.946ZM127.543 214.43C126.632 214.43 125.815 214.196 125.092 213.73C124.381 213.263 123.814 212.585 123.392 211.696C122.981 210.807 122.775 209.729 122.775 208.462C122.775 207.195 122.981 206.117 123.392 205.228C123.814 204.339 124.381 203.661 125.092 203.194C125.815 202.728 126.632 202.494 127.543 202.494C128.443 202.494 129.254 202.728 129.977 203.194C130.699 203.661 131.266 204.339 131.677 205.228C132.088 206.117 132.294 207.195 132.294 208.462C132.294 209.729 132.088 210.807 131.677 211.696C131.266 212.585 130.699 213.263 129.977 213.73C129.254 214.196 128.443 214.43 127.543 214.43ZM127.543 212.946C128.154 212.946 128.688 212.779 129.143 212.446C129.61 212.113 129.971 211.613 130.227 210.946C130.493 210.279 130.627 209.451 130.627 208.462C130.627 207.473 130.493 206.645 130.227 205.978C129.971 205.311 129.61 204.811 129.143 204.478C128.688 204.145 128.154 203.978 127.543 203.978C126.932 203.978 126.393 204.145 125.926 204.478C125.459 204.811 125.092 205.311 124.826 205.978C124.57 206.645 124.442 207.473 124.442 208.462C124.442 209.451 124.57 210.279 124.826 210.946C125.092 211.613 125.459 212.113 125.926 212.446C126.393 212.779 126.932 212.946 127.543 212.946ZM138.661 214.43C137.75 214.43 136.933 214.196 136.211 213.73C135.5 213.263 134.933 212.585 134.511 211.696C134.099 210.807 133.894 209.729 133.894 208.462C133.894 207.195 134.099 206.117 134.511 205.228C134.933 204.339 135.5 203.661 136.211 203.194C136.933 202.728 137.75 202.494 138.661 202.494C139.562 202.494 140.373 202.728 141.095 203.194C141.818 203.661 142.384 204.339 142.795 205.228C143.207 206.117 143.412 207.195 143.412 208.462C143.412 209.729 143.207 210.807 142.795 211.696C142.384 212.585 141.818 213.263 141.095 213.73C140.373 214.196 139.562 214.43 138.661 214.43ZM138.661 212.946C139.273 212.946 139.806 212.779 140.262 212.446C140.728 212.113 141.09 211.613 141.345 210.946C141.612 210.279 141.745 209.451 141.745 208.462C141.745 207.473 141.612 206.645 141.345 205.978C141.09 205.311 140.728 204.811 140.262 204.478C139.806 204.145 139.273 203.978 138.661 203.978C138.05 203.978 137.511 204.145 137.044 204.478C136.578 204.811 136.211 205.311 135.944 205.978C135.689 206.645 135.561 207.473 135.561 208.462C135.561 209.451 135.689 210.279 135.944 210.946C136.211 211.613 136.578 212.113 137.044 212.446C137.511 212.779 138.05 212.946 138.661 212.946Z" fill="black" fill-opacity="0.75"/>
<path d="M85.1325 263.788V262.621L91.1002 254.987H92.9005L86.9828 262.621L86.1326 262.355H95.451V263.788H85.1325ZM91.617 266.656V263.788L91.667 262.355V259.821H93.2339V266.656H91.617ZM101.218 266.789C100.306 266.789 99.4897 266.555 98.7673 266.089C98.0561 265.622 97.4893 264.944 97.067 264.055C96.6558 263.166 96.4502 262.088 96.4502 260.821C96.4502 259.554 96.6558 258.476 97.067 257.587C97.4893 256.698 98.0561 256.02 98.7673 255.554C99.4897 255.087 100.306 254.853 101.218 254.853C102.118 254.853 102.929 255.087 103.652 255.554C104.374 256.02 104.941 256.698 105.352 257.587C105.763 258.476 105.969 259.554 105.969 260.821C105.969 262.088 105.763 263.166 105.352 264.055C104.941 264.944 104.374 265.622 103.652 266.089C102.929 266.555 102.118 266.789 101.218 266.789ZM101.218 265.305C101.829 265.305 102.362 265.139 102.818 264.805C103.285 264.472 103.646 263.972 103.902 263.305C104.168 262.638 104.302 261.81 104.302 260.821C104.302 259.832 104.168 259.004 103.902 258.337C103.646 257.671 103.285 257.17 102.818 256.837C102.362 256.504 101.829 256.337 101.218 256.337C100.607 256.337 100.068 256.504 99.6008 256.837C99.1341 257.17 98.7673 257.671 98.5006 258.337C98.245 259.004 98.1172 259.832 98.1172 260.821C98.1172 261.81 98.245 262.638 98.5006 263.305C98.7673 263.972 99.1341 264.472 99.6008 264.805C100.068 265.139 100.607 265.305 101.218 265.305ZM116.813 266.789C115.902 266.789 115.085 266.555 114.363 266.089C113.651 265.622 113.085 264.944 112.662 264.055C112.251 263.166 112.045 262.088 112.045 260.821C112.045 259.554 112.251 258.476 112.662 257.587C113.085 256.698 113.651 256.02 114.363 255.554C115.085 255.087 115.902 254.853 116.813 254.853C117.713 254.853 118.524 255.087 119.247 255.554C119.969 256.02 120.536 256.698 120.947 257.587C121.358 258.476 121.564 259.554 121.564 260.821C121.564 262.088 121.358 263.166 120.947 264.055C120.536 264.944 119.969 265.622 119.247 266.089C118.524 266.555 117.713 266.789 116.813 266.789ZM116.813 265.305C117.424 265.305 117.958 265.139 118.413 264.805C118.88 264.472 119.241 263.972 119.497 263.305C119.764 262.638 119.897 261.81 119.897 260.821C119.897 259.832 119.764 259.004 119.497 258.337C119.241 257.671 118.88 257.17 118.413 256.837C117.958 256.504 117.424 256.337 116.813 256.337C116.202 256.337 115.663 256.504 115.196 256.837C114.729 257.17 114.363 257.671 114.096 258.337C113.84 259.004 113.712 259.832 113.712 260.821C113.712 261.81 113.84 262.638 114.096 263.305C114.363 263.972 114.729 264.472 115.196 264.805C115.663 265.139 116.202 265.305 116.813 265.305ZM127.931 266.789C127.02 266.789 126.203 266.555 125.481 266.089C124.77 265.622 124.203 264.944 123.781 264.055C123.37 263.166 123.164 262.088 123.164 260.821C123.164 259.554 123.37 258.476 123.781 257.587C124.203 256.698 124.77 256.02 125.481 255.554C126.203 255.087 127.02 254.853 127.931 254.853C128.832 254.853 129.643 255.087 130.365 255.554C131.088 256.02 131.654 256.698 132.066 257.587C132.477 258.476 132.682 259.554 132.682 260.821C132.682 262.088 132.477 263.166 132.066 264.055C131.654 264.944 131.088 265.622 130.365 266.089C129.643 266.555 128.832 266.789 127.931 266.789ZM127.931 265.305C128.543 265.305 129.076 265.139 129.532 264.805C129.999 264.472 130.36 263.972 130.615 263.305C130.882 262.638 131.015 261.81 131.015 260.821C131.015 259.832 130.882 259.004 130.615 258.337C130.36 257.671 129.999 257.17 129.532 256.837C129.076 256.504 128.543 256.337 127.931 256.337C127.32 256.337 126.781 256.504 126.315 256.837C125.848 257.17 125.481 257.671 125.214 258.337C124.959 259.004 124.831 259.832 124.831 260.821C124.831 261.81 124.959 262.638 125.214 263.305C125.481 263.972 125.848 264.472 126.315 264.805C126.781 265.139 127.32 265.305 127.931 265.305ZM139.05 266.789C138.139 266.789 137.322 266.555 136.6 266.089C135.888 265.622 135.322 264.944 134.899 264.055C134.488 263.166 134.282 262.088 134.282 260.821C134.282 259.554 134.488 258.476 134.899 257.587C135.322 256.698 135.888 256.02 136.6 255.554C137.322 255.087 138.139 254.853 139.05 254.853C139.95 254.853 140.761 255.087 141.484 255.554C142.206 256.02 142.773 256.698 143.184 257.587C143.595 258.476 143.801 259.554 143.801 260.821C143.801 262.088 143.595 263.166 143.184 264.055C142.773 264.944 142.206 265.622 141.484 266.089C140.761 266.555 139.95 266.789 139.05 266.789ZM139.05 265.305C139.661 265.305 140.195 265.139 140.65 264.805C141.117 264.472 141.478 263.972 141.734 263.305C142.001 262.638 142.134 261.81 142.134 260.821C142.134 259.832 142.001 259.004 141.734 258.337C141.478 257.671 141.117 257.17 140.65 256.837C140.195 256.504 139.661 256.337 139.05 256.337C138.439 256.337 137.9 256.504 137.433 256.837C136.966 257.17 136.6 257.671 136.333 258.337C136.077 259.004 135.949 259.832 135.949 260.821C135.949 261.81 136.077 262.638 136.333 263.305C136.6 263.972 136.966 264.472 137.433 264.805C137.9 265.139 138.439 265.305 139.05 265.305Z" fill="black" fill-opacity="0.75"/>
<path d="M90.0569 319.148C89.2345 319.148 88.4344 319.02 87.6565 318.765C86.8897 318.509 86.2618 318.165 85.7728 317.731L86.5396 316.414C86.9286 316.781 87.4342 317.081 88.0565 317.315C88.6789 317.548 89.3457 317.665 90.0569 317.665C90.9237 317.665 91.5961 317.481 92.0739 317.115C92.5629 316.737 92.8074 316.231 92.8074 315.598C92.8074 314.986 92.574 314.497 92.1073 314.131C91.6516 313.753 90.9237 313.564 89.9235 313.564H88.99V312.397L92.4573 308.13L92.6907 308.796H86.3062V307.346H94.0076V308.48L90.557 312.73L89.6902 312.214H90.2403C91.6516 312.214 92.7074 312.53 93.4075 313.164C94.1187 313.797 94.4744 314.603 94.4744 315.581C94.4744 316.237 94.3132 316.837 93.9909 317.381C93.6687 317.926 93.1797 318.359 92.524 318.681C91.8794 318.993 91.0571 319.148 90.0569 319.148ZM100.797 319.148C99.8853 319.148 99.0685 318.915 98.3461 318.448C97.6349 317.981 97.0681 317.303 96.6458 316.414C96.2346 315.525 96.0291 314.447 96.0291 313.181C96.0291 311.914 96.2346 310.836 96.6458 309.947C97.0681 309.058 97.6349 308.38 98.3461 307.913C99.0685 307.446 99.8853 307.213 100.797 307.213C101.697 307.213 102.508 307.446 103.23 307.913C103.953 308.38 104.519 309.058 104.931 309.947C105.342 310.836 105.547 311.914 105.547 313.181C105.547 314.447 105.342 315.525 104.931 316.414C104.519 317.303 103.953 317.981 103.23 318.448C102.508 318.915 101.697 319.148 100.797 319.148ZM100.797 317.665C101.408 317.665 101.941 317.498 102.397 317.165C102.864 316.831 103.225 316.331 103.48 315.664C103.747 314.998 103.88 314.17 103.88 313.181C103.88 312.191 103.747 311.364 103.48 310.697C103.225 310.03 102.864 309.53 102.397 309.196C101.941 308.863 101.408 308.696 100.797 308.696C100.185 308.696 99.6464 308.863 99.1796 309.196C98.7129 309.53 98.3461 310.03 98.0794 310.697C97.8238 311.364 97.696 312.191 97.696 313.181C97.696 314.17 97.8238 314.998 98.0794 315.664C98.3461 316.331 98.7129 316.831 99.1796 317.165C99.6464 317.498 100.185 317.665 100.797 317.665ZM116.392 319.148C115.481 319.148 114.664 318.915 113.941 318.448C113.23 317.981 112.663 317.303 112.241 316.414C111.83 315.525 111.624 314.447 111.624 313.181C111.624 311.914 111.83 310.836 112.241 309.947C112.663 309.058 113.23 308.38 113.941 307.913C114.664 307.446 115.481 307.213 116.392 307.213C117.292 307.213 118.103 307.446 118.826 307.913C119.548 308.38 120.115 309.058 120.526 309.947C120.937 310.836 121.143 311.914 121.143 313.181C121.143 314.447 120.937 315.525 120.526 316.414C120.115 317.303 119.548 317.981 118.826 318.448C118.103 318.915 117.292 319.148 116.392 319.148ZM116.392 317.665C117.003 317.665 117.536 317.498 117.992 317.165C118.459 316.831 118.82 316.331 119.076 315.664C119.342 314.998 119.476 314.17 119.476 313.181C119.476 312.191 119.342 311.364 119.076 310.697C118.82 310.03 118.459 309.53 117.992 309.196C117.536 308.863 117.003 308.696 116.392 308.696C115.781 308.696 115.242 308.863 114.775 309.196C114.308 309.53 113.941 310.03 113.675 310.697C113.419 311.364 113.291 312.191 113.291 313.181C113.291 314.17 113.419 314.998 113.675 315.664C113.941 316.331 114.308 316.831 114.775 317.165C115.242 317.498 115.781 317.665 116.392 317.665ZM127.51 319.148C126.599 319.148 125.782 318.915 125.06 318.448C124.349 317.981 123.782 317.303 123.36 316.414C122.948 315.525 122.743 314.447 122.743 313.181C122.743 311.914 122.948 310.836 123.36 309.947C123.782 309.058 124.349 308.38 125.06 307.913C125.782 307.446 126.599 307.213 127.51 307.213C128.41 307.213 129.222 307.446 129.944 307.913C130.666 308.38 131.233 309.058 131.644 309.947C132.056 310.836 132.261 311.914 132.261 313.181C132.261 314.447 132.056 315.525 131.644 316.414C131.233 317.303 130.666 317.981 129.944 318.448C129.222 318.915 128.41 319.148 127.51 319.148ZM127.51 317.665C128.122 317.665 128.655 317.498 129.111 317.165C129.577 316.831 129.939 316.331 130.194 315.664C130.461 314.998 130.594 314.17 130.594 313.181C130.594 312.191 130.461 311.364 130.194 310.697C129.939 310.03 129.577 309.53 129.111 309.196C128.655 308.863 128.122 308.696 127.51 308.696C126.899 308.696 126.36 308.863 125.893 309.196C125.427 309.53 125.06 310.03 124.793 310.697C124.538 311.364 124.41 312.191 124.41 313.181C124.41 314.17 124.538 314.998 124.793 315.664C125.06 316.331 125.427 316.831 125.893 317.165C126.36 317.498 126.899 317.665 127.51 317.665ZM138.629 319.148C137.718 319.148 136.901 318.915 136.178 318.448C135.467 317.981 134.9 317.303 134.478 316.414C134.067 315.525 133.861 314.447 133.861 313.181C133.861 311.914 134.067 310.836 134.478 309.947C134.9 309.058 135.467 308.38 136.178 307.913C136.901 307.446 137.718 307.213 138.629 307.213C139.529 307.213 140.34 307.446 141.063 307.913C141.785 308.38 142.352 309.058 142.763 309.947C143.174 310.836 143.38 311.914 143.38 313.181C143.38 314.447 143.174 315.525 142.763 316.414C142.352 317.303 141.785 317.981 141.063 318.448C140.34 318.915 139.529 319.148 138.629 319.148ZM138.629 317.665C139.24 317.665 139.773 317.498 140.229 317.165C140.696 316.831 141.057 316.331 141.313 315.664C141.579 314.998 141.713 314.17 141.713 313.181C141.713 312.191 141.579 311.364 141.313 310.697C141.057 310.03 140.696 309.53 140.229 309.196C139.773 308.863 139.24 308.696 138.629 308.696C138.018 308.696 137.479 308.863 137.012 309.196C136.545 309.53 136.178 310.03 135.912 310.697C135.656 311.364 135.528 312.191 135.528 313.181C135.528 314.17 135.656 314.998 135.912 315.664C136.178 316.331 136.545 316.831 137.012 317.165C137.479 317.498 138.018 317.665 138.629 317.665Z" fill="black" fill-opacity="0.75"/>
<path d="M86.3062 371.374V370.24L91.0571 365.656C91.4794 365.256 91.7905 364.906 91.9906 364.606C92.2017 364.295 92.3406 364.011 92.4073 363.756C92.4851 363.489 92.524 363.233 92.524 362.989C92.524 362.389 92.3129 361.917 91.8906 361.572C91.4683 361.228 90.8515 361.055 90.0402 361.055C89.4179 361.055 88.8567 361.161 88.3566 361.372C87.8565 361.572 87.4231 361.889 87.0564 362.322L85.9228 361.339C86.3674 360.772 86.9619 360.338 87.7065 360.038C88.4622 359.727 89.2901 359.572 90.1903 359.572C91.0015 359.572 91.7072 359.705 92.3073 359.972C92.9074 360.227 93.3686 360.6 93.6909 361.089C94.0243 361.578 94.191 362.155 94.191 362.822C94.191 363.2 94.141 363.572 94.0409 363.939C93.9409 364.306 93.752 364.695 93.4742 365.106C93.1963 365.517 92.7963 365.978 92.274 366.49L88.0399 370.574L87.6398 369.924H94.6911V371.374H86.3062ZM100.813 371.507C99.9016 371.507 99.0848 371.274 98.3624 370.807C97.6512 370.34 97.0844 369.662 96.6621 368.773C96.2509 367.884 96.0453 366.806 96.0453 365.539C96.0453 364.273 96.2509 363.195 96.6621 362.305C97.0844 361.416 97.6512 360.739 98.3624 360.272C99.0848 359.805 99.9016 359.572 100.813 359.572C101.713 359.572 102.524 359.805 103.247 360.272C103.969 360.739 104.536 361.416 104.947 362.305C105.358 363.195 105.564 364.273 105.564 365.539C105.564 366.806 105.358 367.884 104.947 368.773C104.536 369.662 103.969 370.34 103.247 370.807C102.524 371.274 101.713 371.507 100.813 371.507ZM100.813 370.024C101.424 370.024 101.957 369.857 102.413 369.523C102.88 369.19 103.241 368.69 103.497 368.023C103.763 367.356 103.897 366.528 103.897 365.539C103.897 364.55 103.763 363.722 103.497 363.056C103.241 362.389 102.88 361.889 102.413 361.555C101.957 361.222 101.424 361.055 100.813 361.055C100.202 361.055 99.6626 361.222 99.1959 361.555C98.7291 361.889 98.3624 362.389 98.0957 363.056C97.8401 363.722 97.7123 364.55 97.7123 365.539C97.7123 366.528 97.8401 367.356 98.0957 368.023C98.3624 368.69 98.7291 369.19 99.1959 369.523C99.6626 369.857 100.202 370.024 100.813 370.024ZM116.408 371.507C115.497 371.507 114.68 371.274 113.958 370.807C113.246 370.34 112.68 369.662 112.257 368.773C111.846 367.884 111.641 366.806 111.641 365.539C111.641 364.273 111.846 363.195 112.257 362.305C112.68 361.416 113.246 360.739 113.958 360.272C114.68 359.805 115.497 359.572 116.408 359.572C117.308 359.572 118.119 359.805 118.842 360.272C119.564 360.739 120.131 361.416 120.542 362.305C120.953 363.195 121.159 364.273 121.159 365.539C121.159 366.806 120.953 367.884 120.542 368.773C120.131 369.662 119.564 370.34 118.842 370.807C118.119 371.274 117.308 371.507 116.408 371.507ZM116.408 370.024C117.019 370.024 117.553 369.857 118.008 369.523C118.475 369.19 118.836 368.69 119.092 368.023C119.359 367.356 119.492 366.528 119.492 365.539C119.492 364.55 119.359 363.722 119.092 363.056C118.836 362.389 118.475 361.889 118.008 361.555C117.553 361.222 117.019 361.055 116.408 361.055C115.797 361.055 115.258 361.222 114.791 361.555C114.324 361.889 113.958 362.389 113.691 363.056C113.435 363.722 113.308 364.55 113.308 365.539C113.308 366.528 113.435 367.356 113.691 368.023C113.958 368.69 114.324 369.19 114.791 369.523C115.258 369.857 115.797 370.024 116.408 370.024ZM127.527 371.507C126.615 371.507 125.799 371.274 125.076 370.807C124.365 370.34 123.798 369.662 123.376 368.773C122.965 367.884 122.759 366.806 122.759 365.539C122.759 364.273 122.965 363.195 123.376 362.305C123.798 361.416 124.365 360.739 125.076 360.272C125.799 359.805 126.615 359.572 127.527 359.572C128.427 359.572 129.238 359.805 129.96 360.272C130.683 360.739 131.249 361.416 131.661 362.305C132.072 363.195 132.277 364.273 132.277 365.539C132.277 366.806 132.072 367.884 131.661 368.773C131.249 369.662 130.683 370.34 129.96 370.807C129.238 371.274 128.427 371.507 127.527 371.507ZM127.527 370.024C128.138 370.024 128.671 369.857 129.127 369.523C129.594 369.19 129.955 368.69 130.21 368.023C130.477 367.356 130.61 366.528 130.61 365.539C130.61 364.55 130.477 363.722 130.21 363.056C129.955 362.389 129.594 361.889 129.127 361.555C128.671 361.222 128.138 361.055 127.527 361.055C126.915 361.055 126.376 361.222 125.91 361.555C125.443 361.889 125.076 362.389 124.809 363.056C124.554 363.722 124.426 364.55 124.426 365.539C124.426 366.528 124.554 367.356 124.809 368.023C125.076 368.69 125.443 369.19 125.91 369.523C126.376 369.857 126.915 370.024 127.527 370.024ZM138.645 371.507C137.734 371.507 136.917 371.274 136.195 370.807C135.483 370.34 134.917 369.662 134.494 368.773C134.083 367.884 133.878 366.806 133.878 365.539C133.878 364.273 134.083 363.195 134.494 362.305C134.917 361.416 135.483 360.739 136.195 360.272C136.917 359.805 137.734 359.572 138.645 359.572C139.545 359.572 140.357 359.805 141.079 360.272C141.801 360.739 142.368 361.416 142.779 362.305C143.19 363.195 143.396 364.273 143.396 365.539C143.396 366.806 143.19 367.884 142.779 368.773C142.368 369.662 141.801 370.34 141.079 370.807C140.357 371.274 139.545 371.507 138.645 371.507ZM138.645 370.024C139.256 370.024 139.79 369.857 140.245 369.523C140.712 369.19 141.073 368.69 141.329 368.023C141.596 367.356 141.729 366.528 141.729 365.539C141.729 364.55 141.596 363.722 141.329 363.056C141.073 362.389 140.712 361.889 140.245 361.555C139.79 361.222 139.256 361.055 138.645 361.055C138.034 361.055 137.495 361.222 137.028 361.555C136.561 361.889 136.195 362.389 135.928 363.056C135.672 363.722 135.545 364.55 135.545 365.539C135.545 366.528 135.672 367.356 135.928 368.023C136.195 368.69 136.561 369.19 137.028 369.523C137.495 369.857 138.034 370.024 138.645 370.024Z" fill="black" fill-opacity="0.75"/>
<path d="M92.0269 423.733V412.731L92.7437 413.514H89.3931V412.064H93.6772V423.733H92.0269ZM100.997 423.866C100.086 423.866 99.2691 423.633 98.5467 423.166C97.8355 422.699 97.2687 422.021 96.8464 421.132C96.4352 420.243 96.2296 419.165 96.2296 417.899C96.2296 416.632 96.4352 415.554 96.8464 414.665C97.2687 413.776 97.8355 413.098 98.5467 412.631C99.2691 412.164 100.086 411.931 100.997 411.931C101.897 411.931 102.709 412.164 103.431 412.631C104.153 413.098 104.72 413.776 105.131 414.665C105.542 415.554 105.748 416.632 105.748 417.899C105.748 419.165 105.542 420.243 105.131 421.132C104.72 422.021 104.153 422.699 103.431 423.166C102.709 423.633 101.897 423.866 100.997 423.866ZM100.997 422.383C101.608 422.383 102.142 422.216 102.597 421.883C103.064 421.549 103.425 421.049 103.681 420.382C103.948 419.716 104.081 418.888 104.081 417.899C104.081 416.909 103.948 416.082 103.681 415.415C103.425 414.748 103.064 414.248 102.597 413.914C102.142 413.581 101.608 413.414 100.997 413.414C100.386 413.414 99.8469 413.581 99.3802 413.914C98.9134 414.248 98.5467 414.748 98.28 415.415C98.0244 416.082 97.8966 416.909 97.8966 417.899C97.8966 418.888 98.0244 419.716 98.28 420.382C98.5467 421.049 98.9134 421.549 99.3802 421.883C99.8469 422.216 100.386 422.383 100.997 422.383ZM116.592 423.866C115.681 423.866 114.864 423.633 114.142 423.166C113.431 422.699 112.864 422.021 112.442 421.132C112.03 420.243 111.825 419.165 111.825 417.899C111.825 416.632 112.03 415.554 112.442 414.665C112.864 413.776 113.431 413.098 114.142 412.631C114.864 412.164 115.681 411.931 116.592 411.931C117.493 411.931 118.304 412.164 119.026 412.631C119.748 413.098 120.315 413.776 120.726 414.665C121.138 415.554 121.343 416.632 121.343 417.899C121.343 419.165 121.138 420.243 120.726 421.132C120.315 422.021 119.748 422.699 119.026 423.166C118.304 423.633 117.493 423.866 116.592 423.866ZM116.592 422.383C117.204 422.383 117.737 422.216 118.193 421.883C118.659 421.549 119.021 421.049 119.276 420.382C119.543 419.716 119.676 418.888 119.676 417.899C119.676 416.909 119.543 416.082 119.276 415.415C119.021 414.748 118.659 414.248 118.193 413.914C117.737 413.581 117.204 413.414 116.592 413.414C115.981 413.414 115.442 413.581 114.975 413.914C114.509 414.248 114.142 414.748 113.875 415.415C113.62 416.082 113.492 416.909 113.492 417.899C113.492 418.888 113.62 419.716 113.875 420.382C114.142 421.049 114.509 421.549 114.975 421.883C115.442 422.216 115.981 422.383 116.592 422.383ZM127.711 423.866C126.8 423.866 125.983 423.633 125.26 423.166C124.549 422.699 123.982 422.021 123.56 421.132C123.149 420.243 122.943 419.165 122.943 417.899C122.943 416.632 123.149 415.554 123.56 414.665C123.982 413.776 124.549 413.098 125.26 412.631C125.983 412.164 126.8 411.931 127.711 411.931C128.611 411.931 129.422 412.164 130.145 412.631C130.867 413.098 131.434 413.776 131.845 414.665C132.256 415.554 132.462 416.632 132.462 417.899C132.462 419.165 132.256 420.243 131.845 421.132C131.434 422.021 130.867 422.699 130.145 423.166C129.422 423.633 128.611 423.866 127.711 423.866ZM127.711 422.383C128.322 422.383 128.856 422.216 129.311 421.883C129.778 421.549 130.139 421.049 130.395 420.382C130.661 419.716 130.795 418.888 130.795 417.899C130.795 416.909 130.661 416.082 130.395 415.415C130.139 414.748 129.778 414.248 129.311 413.914C128.856 413.581 128.322 413.414 127.711 413.414C127.1 413.414 126.561 413.581 126.094 413.914C125.627 414.248 125.26 414.748 124.994 415.415C124.738 416.082 124.61 416.909 124.61 417.899C124.61 418.888 124.738 419.716 124.994 420.382C125.26 421.049 125.627 421.549 126.094 421.883C126.561 422.216 127.1 422.383 127.711 422.383ZM138.829 423.866C137.918 423.866 137.101 423.633 136.379 423.166C135.668 422.699 135.101 422.021 134.679 421.132C134.267 420.243 134.062 419.165 134.062 417.899C134.062 416.632 134.267 415.554 134.679 414.665C135.101 413.776 135.668 413.098 136.379 412.631C137.101 412.164 137.918 411.931 138.829 411.931C139.73 411.931 140.541 412.164 141.263 412.631C141.986 413.098 142.552 413.776 142.963 414.665C143.375 415.554 143.58 416.632 143.58 417.899C143.58 419.165 143.375 420.243 142.963 421.132C142.552 422.021 141.986 422.699 141.263 423.166C140.541 423.633 139.73 423.866 138.829 423.866ZM138.829 422.383C139.441 422.383 139.974 422.216 140.43 421.883C140.896 421.549 141.258 421.049 141.513 420.382C141.78 419.716 141.913 418.888 141.913 417.899C141.913 416.909 141.78 416.082 141.513 415.415C141.258 414.748 140.896 414.248 140.43 413.914C139.974 413.581 139.441 413.414 138.829 413.414C138.218 413.414 137.679 413.581 137.212 413.914C136.746 414.248 136.379 414.748 136.112 415.415C135.857 416.082 135.729 416.909 135.729 417.899C135.729 418.888 135.857 419.716 136.112 420.382C136.379 421.049 136.746 421.549 137.212 421.883C137.679 422.216 138.218 422.383 138.829 422.383Z" fill="black" fill-opacity="0.75"/>
<path d="M138.863 464.325C137.951 464.325 137.134 464.092 136.412 463.625C135.701 463.158 135.134 462.48 134.712 461.591C134.301 460.702 134.095 459.624 134.095 458.358C134.095 457.091 134.301 456.013 134.712 455.124C135.134 454.235 135.701 453.557 136.412 453.09C137.134 452.623 137.951 452.39 138.863 452.39C139.763 452.39 140.574 452.623 141.296 453.09C142.019 453.557 142.585 454.235 142.997 455.124C143.408 456.013 143.613 457.091 143.613 458.358C143.613 459.624 143.408 460.702 142.997 461.591C142.585 462.48 142.019 463.158 141.296 463.625C140.574 464.092 139.763 464.325 138.863 464.325ZM138.863 462.842C139.474 462.842 140.007 462.675 140.463 462.342C140.93 462.008 141.291 461.508 141.546 460.841C141.813 460.175 141.946 459.347 141.946 458.358C141.946 457.368 141.813 456.541 141.546 455.874C141.291 455.207 140.93 454.707 140.463 454.373C140.007 454.04 139.474 453.873 138.863 453.873C138.251 453.873 137.712 454.04 137.246 454.373C136.779 454.707 136.412 455.207 136.145 455.874C135.89 456.541 135.762 457.368 135.762 458.358C135.762 459.347 135.89 460.175 136.145 460.841C136.412 461.508 136.779 462.008 137.246 462.342C137.712 462.675 138.251 462.842 138.863 462.842Z" fill="black" fill-opacity="0.75"/>
<path d="M47.7041 342.565L41.9531 346.8L41.1196 345.449L47.7041 340.665L47.7041 342.565ZM47.7041 350.417L36.0354 350.417L36.0354 348.783L47.7041 348.783L47.7041 350.417ZM42.5699 349.283L41.1029 349.283L41.1029 345.499L42.5699 345.499L42.5699 349.283ZM42.0531 345.299L41.8197 346.833L36.0354 342.649L36.0354 340.865L42.0531 345.299ZM47.8041 335.553C47.8041 336.442 47.6096 337.231 47.2207 337.92C46.8317 338.609 46.2983 339.154 45.6204 339.554C44.9314 339.954 44.1535 340.154 43.2866 340.154C42.4087 340.154 41.6308 339.954 40.9529 339.554C40.275 339.154 39.7471 338.609 39.3693 337.92C38.9803 337.231 38.7858 336.442 38.7858 335.553C38.7858 334.675 38.9803 333.892 39.3693 333.203C39.7471 332.503 40.275 331.958 40.9529 331.569C41.6197 331.169 42.3976 330.969 43.2866 330.969C44.1646 330.969 44.9425 331.169 45.6204 331.569C46.2983 331.958 46.8317 332.503 47.2207 333.203C47.6096 333.892 47.8041 334.675 47.8041 335.553ZM46.4039 335.553C46.4039 334.986 46.2761 334.481 46.0205 334.036C45.7649 333.581 45.4037 333.225 44.9369 332.969C44.4591 332.714 43.909 332.586 43.2866 332.586C42.6532 332.586 42.1087 332.714 41.653 332.969C41.1863 333.225 40.8251 333.581 40.5695 334.036C40.3139 334.481 40.1861 334.986 40.1861 335.553C40.1861 336.12 40.3139 336.626 40.5695 337.07C40.8251 337.515 41.1863 337.87 41.653 338.137C42.1087 338.404 42.6532 338.537 43.2866 338.537C43.909 338.537 44.4591 338.404 44.9369 338.137C45.4037 337.87 45.7649 337.515 46.0205 337.07C46.2761 336.626 46.4039 336.12 46.4039 335.553ZM47.6874 330.19L46.3372 330.09C46.3483 330.012 46.3594 329.94 46.3705 329.874C46.3816 329.807 46.3872 329.746 46.3872 329.69C46.3872 329.335 46.265 329.057 46.0205 328.857C45.776 328.646 45.4537 328.49 45.0536 328.39C44.6424 328.29 44.1813 328.218 43.67 328.173C43.1588 328.129 42.6476 328.095 42.1364 328.073L38.8692 327.923L38.8692 321.139L47.7041 321.139L47.7041 322.739L39.8027 322.739L40.2694 322.356L40.2694 326.89L39.786 326.523L42.2365 326.64C43.0144 326.673 43.7423 326.734 44.4202 326.823C45.0981 326.912 45.6926 327.051 46.2038 327.24C46.715 327.418 47.1151 327.668 47.404 327.99C47.693 328.301 47.8375 328.707 47.8375 329.207C47.8375 329.351 47.8208 329.507 47.7874 329.673C47.7652 329.829 47.7319 330.001 47.6874 330.19ZM47.7041 318.044L38.8692 318.044L38.8692 316.444L45.3037 316.444L38.8692 311.026L38.8692 309.576L47.7041 309.576L47.7041 311.176L41.2696 311.176L47.7041 316.577L47.7041 318.044ZM44.0868 300.902C44.3091 301.369 44.4869 301.853 44.6202 302.353C44.7425 302.842 44.8036 303.347 44.8036 303.87C44.8036 304.936 44.5535 305.781 44.0534 306.403C43.5534 307.015 42.781 307.32 41.7364 307.32L38.8692 307.32L38.8692 305.72L41.6364 305.72C42.2698 305.72 42.7365 305.525 43.0366 305.136C43.3367 304.736 43.4867 304.203 43.4867 303.536C43.4867 303.114 43.4311 302.68 43.32 302.236C43.2089 301.78 43.0533 301.336 42.8532 300.902L44.0868 300.902ZM47.7041 301.019L38.8692 301.019L38.8692 299.419L47.7041 299.419L47.7041 301.019ZM47.8041 292.378C47.8041 293.323 47.6096 294.156 47.2207 294.878C46.8317 295.59 46.2983 296.145 45.6204 296.545C44.9425 296.934 44.1646 297.129 43.2866 297.129C42.4087 297.129 41.6308 296.94 40.9529 296.562C40.275 296.173 39.7471 295.645 39.3693 294.978C38.9803 294.3 38.7858 293.539 38.7858 292.695C38.7858 291.839 38.9748 291.083 39.3526 290.428C39.7305 289.772 40.2639 289.261 40.9529 288.894C41.6308 288.516 42.4254 288.327 43.3367 288.327C43.4033 288.327 43.4811 288.333 43.57 288.344C43.6589 288.344 43.7423 288.349 43.8201 288.361L43.8201 295.879L42.6699 295.879L42.6699 289.194L43.0699 289.844C42.5032 289.833 41.9975 289.95 41.553 290.194C41.1085 290.439 40.764 290.778 40.5195 291.211C40.2639 291.633 40.1361 292.128 40.1361 292.695C40.1361 293.25 40.2639 293.745 40.5195 294.178C40.764 294.612 41.114 294.951 41.5697 295.195C42.0142 295.44 42.5254 295.562 43.1033 295.562L43.37 295.562C43.959 295.562 44.4869 295.428 44.9536 295.162C45.4092 294.884 45.7649 294.501 46.0205 294.012C46.2761 293.523 46.4039 292.961 46.4039 292.328C46.4039 291.806 46.315 291.333 46.1372 290.911C45.9593 290.478 45.6926 290.1 45.337 289.777L46.3705 288.894C46.8373 289.294 47.1929 289.794 47.4374 290.394C47.6819 290.983 47.8041 291.644 47.8041 292.378ZM47.8041 281.994C47.8041 282.894 47.6096 283.7 47.2207 284.411C46.8317 285.111 46.2983 285.661 45.6204 286.061C44.9425 286.461 44.1646 286.661 43.2866 286.661C42.4087 286.661 41.6308 286.461 40.9529 286.061C40.275 285.661 39.7471 285.111 39.3693 284.411C38.9803 283.7 38.7858 282.894 38.7858 281.994C38.7858 281.194 38.947 280.483 39.2693 279.86C39.5804 279.227 40.0472 278.738 40.6695 278.393L41.453 279.61C41.0196 279.899 40.7029 280.255 40.5028 280.677C40.2917 281.088 40.1861 281.533 40.1861 282.011C40.1861 282.588 40.3139 283.105 40.5695 283.561C40.8251 284.016 41.1863 284.378 41.653 284.644C42.1087 284.911 42.6532 285.044 43.2866 285.044C43.9201 285.044 44.4702 284.911 44.9369 284.644C45.4037 284.378 45.7649 284.016 46.0205 283.561C46.2761 283.105 46.4039 282.588 46.4039 282.011C46.4039 281.533 46.3038 281.088 46.1038 280.677C45.8927 280.255 45.5704 279.899 45.137 279.61L45.9038 278.393C46.515 278.738 46.9873 279.227 47.3207 279.86C47.643 280.483 47.8041 281.194 47.8041 281.994ZM47.7041 274.685L39.8527 274.685L40.2694 274.285L40.2694 277.919L38.8692 277.919L38.8692 269.851L40.2694 269.851L40.2694 273.468L39.8527 273.085L47.7041 273.085L47.7041 274.685ZM47.7041 268.215L38.8692 268.215L38.8692 264.114C38.8692 263.08 39.0692 262.269 39.4693 261.68C39.8583 261.08 40.4139 260.78 41.1363 260.78C41.8586 260.78 42.4198 261.063 42.8199 261.63C43.2089 262.186 43.4033 262.925 43.4033 263.847L42.9699 263.597C42.9699 262.541 43.1644 261.758 43.5534 261.247C43.9423 260.735 44.5146 260.48 45.2703 260.48C46.0371 260.48 46.6372 260.769 47.0707 261.347C47.4929 261.913 47.7041 262.786 47.7041 263.964L47.7041 268.215ZM46.4705 266.648L46.4705 264.08C46.4705 263.414 46.3705 262.914 46.1705 262.58C45.9593 262.247 45.6259 262.08 45.1703 262.08C44.7036 262.08 44.3646 262.236 44.1535 262.547C43.9312 262.847 43.8201 263.325 43.8201 263.98L43.8201 266.648L46.4705 266.648ZM42.6699 266.648L42.6699 264.247C42.6699 263.636 42.5587 263.175 42.3365 262.864C42.1031 262.541 41.7808 262.38 41.3696 262.38C40.9473 262.38 40.6306 262.541 40.4195 262.864C40.2083 263.175 40.1027 263.636 40.1027 264.247L40.1027 266.648L42.6699 266.648ZM47.8041 254.191C47.8041 255.08 47.6096 255.869 47.2207 256.558C46.8317 257.247 46.2983 257.792 45.6204 258.192C44.9314 258.592 44.1535 258.792 43.2866 258.792C42.4087 258.792 41.6308 258.592 40.9529 258.192C40.275 257.792 39.7471 257.247 39.3693 256.558C38.9803 255.869 38.7858 255.08 38.7858 254.191C38.7858 253.313 38.9803 252.53 39.3693 251.841C39.7471 251.141 40.275 250.596 40.9529 250.207C41.6197 249.807 42.3976 249.607 43.2866 249.607C44.1646 249.607 44.9425 249.807 45.6204 250.207C46.2983 250.596 46.8317 251.141 47.2207 251.841C47.6096 252.53 47.8041 253.313 47.8041 254.191ZM46.4039 254.191C46.4039 253.624 46.2761 253.119 46.0205 252.674C45.7649 252.218 45.4037 251.863 44.9369 251.607C44.4591 251.352 43.909 251.224 43.2866 251.224C42.6532 251.224 42.1087 251.352 41.653 251.607C41.1863 251.863 40.8251 252.218 40.5695 252.674C40.3139 253.119 40.1861 253.624 40.1861 254.191C40.1861 254.758 40.3139 255.263 40.5695 255.708C40.8251 256.153 41.1863 256.508 41.653 256.775C42.1087 257.042 42.6532 257.175 43.2866 257.175C43.909 257.175 44.4591 257.042 44.9369 256.775C45.4037 256.508 45.7649 256.153 46.0205 255.708C46.2761 255.263 46.4039 254.758 46.4039 254.191ZM46.3038 236.952L46.7206 237.318L38.8692 237.318L38.8692 235.718L46.7206 235.718L46.3038 236.118L46.3038 231.451L46.7206 231.834L38.8692 231.834L38.8692 230.234L47.7041 230.234L47.7041 242.819L38.8692 242.819L38.8692 241.219L46.7206 241.219L46.3038 241.602L46.3038 236.952ZM47.7041 220.725L43.4033 224.143L42.6032 222.826L47.7041 218.842L47.7041 220.725ZM47.7041 227.126L38.8692 227.126L38.8692 225.526L47.7041 225.526L47.7041 227.126ZM43.9701 226.01L42.6032 226.01L42.6032 223.092L43.9701 223.092L43.9701 226.01ZM43.47 222.692L43.27 224.176L38.8692 220.792L38.8692 219.075L43.47 222.692ZM47.8041 213.673C47.8041 214.562 47.6096 215.351 47.2207 216.04C46.8317 216.729 46.2983 217.273 45.6204 217.673C44.9314 218.074 44.1535 218.274 43.2866 218.274C42.4087 218.274 41.6308 218.074 40.9529 217.673C40.275 217.273 39.7471 216.729 39.3693 216.04C38.9803 215.351 38.7858 214.562 38.7858 213.673C38.7858 212.795 38.9803 212.011 39.3693 211.322C39.7471 210.622 40.275 210.078 40.9529 209.689C41.6197 209.289 42.3976 209.089 43.2866 209.089C44.1646 209.089 44.9425 209.289 45.6204 209.689C46.2983 210.078 46.8317 210.622 47.2207 211.322C47.6096 212.011 47.8041 212.795 47.8041 213.673ZM46.4039 213.673C46.4039 213.106 46.2761 212.6 46.0205 212.156C45.7649 211.7 45.4037 211.345 44.9369 211.089C44.4591 210.833 43.909 210.706 43.2866 210.706C42.6532 210.706 42.1087 210.833 41.653 211.089C41.1863 211.345 40.8251 211.7 40.5695 212.156C40.3139 212.6 40.1861 213.106 40.1861 213.673C40.1861 214.24 40.3139 214.745 40.5695 215.19C40.8251 215.634 41.1863 215.99 41.653 216.257C42.1087 216.523 42.6532 216.657 43.2866 216.657C43.909 216.657 44.4591 216.523 44.9369 216.257C45.4037 215.99 45.7649 215.634 46.0205 215.19C46.2761 214.745 46.4039 214.24 46.4039 213.673ZM47.6874 208.31L46.3372 208.21C46.3483 208.132 46.3594 208.06 46.3705 207.993C46.3816 207.926 46.3872 207.865 46.3872 207.81C46.3872 207.454 46.265 207.176 46.0205 206.976C45.776 206.765 45.4537 206.61 45.0536 206.51C44.6424 206.409 44.1812 206.337 43.67 206.293C43.1588 206.248 42.6476 206.215 42.1364 206.193L38.8692 206.043L38.8692 199.258L47.7041 199.258L47.7041 200.858L39.8027 200.858L40.2694 200.475L40.2694 205.009L39.786 204.643L42.2365 204.759C43.0144 204.793 43.7423 204.854 44.4202 204.943C45.0981 205.031 45.6926 205.17 46.2038 205.359C46.715 205.537 47.1151 205.787 47.404 206.109C47.693 206.421 47.8375 206.826 47.8375 207.326C47.8375 207.471 47.8208 207.626 47.7874 207.793C47.7652 207.949 47.7319 208.121 47.6874 208.31ZM41.8697 192.08C41.8808 190.957 42.1364 190.102 42.6365 189.513C43.1366 188.924 43.8423 188.629 44.7536 188.629C45.7093 188.629 46.4483 188.952 46.9706 189.596C47.4818 190.241 47.7319 191.152 47.7208 192.33L47.7041 196.164L38.8692 196.164L38.8692 194.564L41.8531 194.564L41.8697 192.08ZM46.5039 192.463C46.515 191.741 46.3705 191.196 46.0705 190.83C45.7704 190.452 45.3259 190.263 44.7369 190.263C44.159 190.263 43.7367 190.446 43.47 190.813C43.2033 191.18 43.0644 191.73 43.0533 192.463L43.0199 194.564L46.4872 194.564L46.5039 192.463ZM47.7041 186.576L38.8692 186.576L38.8692 184.975L42.6199 184.975L42.6199 179.941L38.8692 179.941L38.8692 178.341L47.7041 178.341L47.7041 179.941L44.0034 179.941L44.0034 184.975L47.7041 184.975L47.7041 186.576ZM47.7041 175.229L38.8692 175.229L38.8692 173.629L45.3037 173.629L38.8692 168.211L38.8692 166.761L47.7041 166.761L47.7041 168.361L41.2696 168.361L47.7041 173.762L47.7041 175.229ZM47.7041 157.254L43.4033 160.671L42.6032 159.354L47.7041 155.37L47.7041 157.254ZM47.7041 163.655L38.8692 163.655L38.8692 162.055L47.7041 162.055L47.7041 163.655ZM43.9701 162.538L42.6032 162.538L42.6032 159.621L43.9701 159.621L43.9701 162.538ZM43.47 159.221L43.27 160.704L38.8692 157.32L38.8692 155.603L43.47 159.221ZM47.8041 150.201C47.8041 151.09 47.6096 151.879 47.2207 152.568C46.8317 153.257 46.2983 153.802 45.6204 154.202C44.9314 154.602 44.1535 154.802 43.2866 154.802C42.4087 154.802 41.6308 154.602 40.9529 154.202C40.275 153.802 39.7471 153.257 39.3693 152.568C38.9803 151.879 38.7858 151.09 38.7858 150.201C38.7858 149.323 38.9803 148.54 39.3693 147.851C39.7471 147.151 40.275 146.606 40.9529 146.217C41.6197 145.817 42.3976 145.617 43.2866 145.617C44.1646 145.617 44.9425 145.817 45.6204 146.217C46.2983 146.606 46.8317 147.151 47.2207 147.851C47.6096 148.54 47.8041 149.323 47.8041 150.201ZM46.4039 150.201C46.4039 149.634 46.2761 149.129 46.0205 148.684C45.7649 148.229 45.4037 147.873 44.9369 147.617C44.4591 147.362 43.909 147.234 43.2866 147.234C42.6532 147.234 42.1087 147.362 41.653 147.617C41.1863 147.873 40.8251 148.229 40.5695 148.684C40.3139 149.129 40.1861 149.634 40.1861 150.201C40.1861 150.768 40.3139 151.274 40.5695 151.718C40.8251 152.163 41.1863 152.518 41.653 152.785C42.1087 153.052 42.6532 153.185 43.2866 153.185C43.909 153.185 44.4591 153.052 44.9369 152.785C45.4037 152.518 45.7649 152.163 46.0205 151.718C46.2761 151.274 46.4039 150.768 46.4039 150.201ZM47.7041 143.306L38.8692 143.306L38.8692 139.205C38.8692 138.172 39.0692 137.361 39.4693 136.772C39.8583 136.172 40.4139 135.872 41.1363 135.872C41.8586 135.872 42.4198 136.155 42.8199 136.722C43.2088 137.277 43.4033 138.016 43.4033 138.939L42.9699 138.689C42.9699 137.633 43.1644 136.849 43.5534 136.338C43.9423 135.827 44.5146 135.571 45.2703 135.571C46.0371 135.571 46.6372 135.86 47.0706 136.438C47.4929 137.005 47.7041 137.877 47.7041 139.055L47.7041 143.306ZM46.4705 141.739L46.4705 139.172C46.4705 138.505 46.3705 138.005 46.1705 137.672C45.9593 137.338 45.6259 137.172 45.1703 137.172C44.7036 137.172 44.3646 137.327 44.1535 137.639C43.9312 137.939 43.8201 138.416 43.8201 139.072L43.8201 141.739L46.4705 141.739ZM42.6699 141.739L42.6699 139.339C42.6699 138.728 42.5587 138.266 42.3365 137.955C42.1031 137.633 41.7808 137.472 41.3696 137.472C40.9473 137.472 40.6306 137.633 40.4195 137.955C40.2083 138.266 40.1027 138.728 40.1027 139.339L40.1027 141.739L42.6699 141.739Z" fill="#B0BFE3"/>
<path d="M386.23 536.781V525.112H393.881L393.865 526.562H387.464L387.864 526.146L387.88 536.781H386.23ZM396.894 536.881C396.005 536.881 395.216 536.686 394.527 536.297C393.838 535.908 393.293 535.375 392.893 534.697C392.493 534.008 392.293 533.23 392.293 532.363C392.293 531.485 392.493 530.707 392.893 530.03C393.293 529.352 393.838 528.824 394.527 528.446C395.216 528.057 396.005 527.863 396.894 527.863C397.772 527.863 398.555 528.057 399.244 528.446C399.944 528.824 400.489 529.352 400.878 530.03C401.278 530.696 401.478 531.474 401.478 532.363C401.478 533.241 401.278 534.019 400.878 534.697C400.489 535.375 399.944 535.908 399.244 536.297C398.555 536.686 397.772 536.881 396.894 536.881ZM396.894 535.481C397.461 535.481 397.966 535.353 398.411 535.097C398.866 534.842 399.222 534.48 399.478 534.014C399.733 533.536 399.861 532.986 399.861 532.363C399.861 531.73 399.733 531.185 399.478 530.73C399.222 530.263 398.866 529.902 398.411 529.646C397.966 529.391 397.461 529.263 396.894 529.263C396.327 529.263 395.821 529.391 395.377 529.646C394.932 529.902 394.577 530.263 394.31 530.73C394.043 531.185 393.91 531.73 393.91 532.363C393.91 532.986 394.043 533.536 394.31 534.014C394.577 534.48 394.932 534.842 395.377 535.097C395.821 535.353 396.327 535.481 396.894 535.481ZM409.758 536.031V529.346H405.924L405.841 531.046C405.819 531.602 405.78 532.141 405.724 532.663C405.68 533.175 405.602 533.647 405.491 534.08C405.391 534.514 405.241 534.869 405.041 535.147C404.841 535.425 404.574 535.597 404.24 535.664L402.657 535.381C403.001 535.392 403.279 535.28 403.49 535.047C403.701 534.803 403.863 534.469 403.974 534.047C404.096 533.625 404.185 533.147 404.24 532.613C404.296 532.069 404.34 531.508 404.374 530.93L404.507 527.946H411.358V536.031H409.758ZM402.307 538.831V535.381H412.709V538.831H411.208V536.781H403.824V538.831H402.307ZM423.528 536.781V527.946H425.129V536.781H423.528ZM418.777 530.946C419.9 530.958 420.75 531.213 421.328 531.713C421.917 532.213 422.211 532.919 422.211 533.83C422.211 534.786 421.889 535.525 421.245 536.047C420.611 536.558 419.7 536.809 418.511 536.797L414.793 536.781V527.946H416.394V530.93L418.777 530.946ZM418.394 535.581C419.105 535.592 419.65 535.447 420.028 535.147C420.405 534.847 420.594 534.403 420.594 533.814C420.594 533.236 420.405 532.813 420.028 532.547C419.661 532.28 419.116 532.141 418.394 532.13L416.394 532.097V535.564L418.394 535.581Z" fill="#B0BFE3"/>
<path d="M256.495 484.422V483.288L261.246 478.704C261.668 478.304 261.979 477.954 262.179 477.654C262.39 477.343 262.529 477.059 262.596 476.804C262.674 476.537 262.712 476.281 262.712 476.037C262.712 475.437 262.501 474.964 262.079 474.62C261.657 474.275 261.04 474.103 260.229 474.103C259.606 474.103 259.045 474.209 258.545 474.42C258.045 474.62 257.612 474.937 257.245 475.37L256.111 474.387C256.556 473.82 257.15 473.386 257.895 473.086C258.651 472.775 259.479 472.62 260.379 472.62C261.19 472.62 261.896 472.753 262.496 473.02C263.096 473.275 263.557 473.647 263.879 474.136C264.213 474.625 264.379 475.203 264.379 475.87C264.379 476.248 264.329 476.62 264.229 476.987C264.129 477.354 263.94 477.743 263.663 478.154C263.385 478.565 262.985 479.026 262.462 479.537L258.228 483.621L257.828 482.971H264.88V484.422H256.495ZM271.001 484.555C270.09 484.555 269.273 484.322 268.551 483.855C267.84 483.388 267.273 482.71 266.851 481.821C266.439 480.932 266.234 479.854 266.234 478.587C266.234 477.32 266.439 476.242 266.851 475.353C267.273 474.464 267.84 473.786 268.551 473.32C269.273 472.853 270.09 472.62 271.001 472.62C271.901 472.62 272.713 472.853 273.435 473.32C274.157 473.786 274.724 474.464 275.135 475.353C275.547 476.242 275.752 477.32 275.752 478.587C275.752 479.854 275.547 480.932 275.135 481.821C274.724 482.71 274.157 483.388 273.435 483.855C272.713 484.322 271.901 484.555 271.001 484.555ZM271.001 483.071C271.613 483.071 272.146 482.905 272.602 482.571C273.068 482.238 273.43 481.738 273.685 481.071C273.952 480.404 274.085 479.576 274.085 478.587C274.085 477.598 273.952 476.77 273.685 476.103C273.43 475.437 273.068 474.937 272.602 474.603C272.146 474.27 271.613 474.103 271.001 474.103C270.39 474.103 269.851 474.27 269.384 474.603C268.918 474.937 268.551 475.437 268.284 476.103C268.029 476.77 267.901 477.598 267.901 478.587C267.901 479.576 268.029 480.404 268.284 481.071C268.551 481.738 268.918 482.238 269.384 482.571C269.851 482.905 270.39 483.071 271.001 483.071ZM279.319 484.422V473.42L280.036 474.203H276.686V472.753H280.97V484.422H279.319ZM287.289 484.555C286.467 484.555 285.667 484.427 284.889 484.172C284.122 483.916 283.494 483.571 283.005 483.138L283.772 481.821C284.161 482.188 284.667 482.488 285.289 482.721C285.911 482.955 286.573 483.071 287.273 483.071C288.162 483.071 288.845 482.882 289.323 482.505C289.801 482.127 290.04 481.621 290.04 480.988C290.04 480.554 289.934 480.176 289.723 479.854C289.512 479.532 289.145 479.287 288.623 479.121C288.112 478.943 287.406 478.854 286.506 478.854H283.855L284.472 472.753H291.057V474.203H285.089L285.956 473.386L285.472 478.204L284.606 477.404H286.856C288.023 477.404 288.962 477.554 289.673 477.854C290.384 478.154 290.901 478.571 291.223 479.104C291.546 479.626 291.707 480.232 291.707 480.921C291.707 481.588 291.546 482.199 291.223 482.755C290.901 483.299 290.412 483.738 289.756 484.072C289.112 484.394 288.29 484.555 287.289 484.555Z" fill="black" fill-opacity="0.75"/>
<path d="M388.599 484.422V483.288L393.35 478.704C393.772 478.304 394.084 477.954 394.284 477.654C394.495 477.343 394.634 477.059 394.7 476.804C394.778 476.537 394.817 476.281 394.817 476.037C394.817 475.437 394.606 474.964 394.184 474.62C393.761 474.275 393.144 474.103 392.333 474.103C391.711 474.103 391.15 474.209 390.65 474.42C390.149 474.62 389.716 474.937 389.349 475.37L388.216 474.387C388.66 473.82 389.255 473.386 389.999 473.086C390.755 472.775 391.583 472.62 392.483 472.62C393.294 472.62 394 472.753 394.6 473.02C395.2 473.275 395.662 473.647 395.984 474.136C396.317 474.625 396.484 475.203 396.484 475.87C396.484 476.248 396.434 476.62 396.334 476.987C396.234 477.354 396.045 477.743 395.767 478.154C395.489 478.565 395.089 479.026 394.567 479.537L390.333 483.621L389.933 482.971H396.984V484.422H388.599ZM403.106 484.555C402.195 484.555 401.378 484.322 400.655 483.855C399.944 483.388 399.377 482.71 398.955 481.821C398.544 480.932 398.338 479.854 398.338 478.587C398.338 477.32 398.544 476.242 398.955 475.353C399.377 474.464 399.944 473.786 400.655 473.32C401.378 472.853 402.195 472.62 403.106 472.62C404.006 472.62 404.817 472.853 405.54 473.32C406.262 473.786 406.829 474.464 407.24 475.353C407.651 476.242 407.857 477.32 407.857 478.587C407.857 479.854 407.651 480.932 407.24 481.821C406.829 482.71 406.262 483.388 405.54 483.855C404.817 484.322 404.006 484.555 403.106 484.555ZM403.106 483.071C403.717 483.071 404.25 482.905 404.706 482.571C405.173 482.238 405.534 481.738 405.79 481.071C406.056 480.404 406.19 479.576 406.19 478.587C406.19 477.598 406.056 476.77 405.79 476.103C405.534 475.437 405.173 474.937 404.706 474.603C404.25 474.27 403.717 474.103 403.106 474.103C402.495 474.103 401.956 474.27 401.489 474.603C401.022 474.937 400.655 475.437 400.389 476.103C400.133 476.77 400.005 477.598 400.005 478.587C400.005 479.576 400.133 480.404 400.389 481.071C400.655 481.738 401.022 482.238 401.489 482.571C401.956 482.905 402.495 483.071 403.106 483.071ZM411.424 484.422V473.42L412.141 474.203H408.79V472.753H413.074V484.422H411.424ZM420.527 484.555C419.494 484.555 418.61 484.327 417.877 483.872C417.143 483.416 416.582 482.76 416.193 481.905C415.815 481.038 415.627 479.982 415.627 478.737C415.627 477.415 415.86 476.298 416.327 475.387C416.793 474.475 417.444 473.786 418.277 473.32C419.11 472.853 420.066 472.62 421.144 472.62C421.7 472.62 422.228 472.675 422.728 472.786C423.239 472.897 423.678 473.07 424.045 473.303L423.411 474.603C423.111 474.392 422.767 474.248 422.378 474.17C422 474.092 421.6 474.053 421.178 474.053C419.988 474.053 419.044 474.425 418.344 475.17C417.644 475.903 417.293 476.998 417.293 478.454C417.293 478.687 417.305 478.965 417.327 479.287C417.349 479.61 417.405 479.926 417.494 480.238L416.927 479.671C417.093 479.16 417.355 478.732 417.71 478.387C418.077 478.032 418.51 477.77 419.01 477.604C419.522 477.426 420.072 477.337 420.661 477.337C421.439 477.337 422.128 477.482 422.728 477.77C423.328 478.059 423.8 478.471 424.145 479.004C424.489 479.526 424.661 480.149 424.661 480.871C424.661 481.616 424.478 482.266 424.111 482.821C423.745 483.377 423.25 483.805 422.628 484.105C422.005 484.405 421.305 484.555 420.527 484.555ZM420.461 483.205C420.972 483.205 421.416 483.11 421.794 482.921C422.183 482.732 422.489 482.471 422.711 482.138C422.933 481.793 423.045 481.393 423.045 480.938C423.045 480.249 422.806 479.704 422.328 479.304C421.85 478.893 421.2 478.687 420.377 478.687C419.844 478.687 419.377 478.787 418.977 478.987C418.577 479.187 418.26 479.46 418.027 479.804C417.805 480.138 417.694 480.521 417.694 480.954C417.694 481.354 417.799 481.727 418.01 482.071C418.221 482.405 418.533 482.677 418.944 482.888C419.355 483.099 419.861 483.205 420.461 483.205Z" fill="black" fill-opacity="0.75"/>
<path d="M564.739 484.422V483.288L569.49 478.704C569.912 478.304 570.223 477.954 570.423 477.654C570.634 477.343 570.773 477.059 570.84 476.804C570.918 476.537 570.957 476.281 570.957 476.037C570.957 475.437 570.745 474.964 570.323 474.62C569.901 474.275 569.284 474.103 568.473 474.103C567.851 474.103 567.289 474.209 566.789 474.42C566.289 474.62 565.856 474.937 565.489 475.37L564.355 474.387C564.8 473.82 565.395 473.386 566.139 473.086C566.895 472.775 567.723 472.62 568.623 472.62C569.434 472.62 570.14 472.753 570.74 473.02C571.34 473.275 571.801 473.647 572.123 474.136C572.457 474.625 572.624 475.203 572.624 475.87C572.624 476.248 572.574 476.62 572.474 476.987C572.374 477.354 572.185 477.743 571.907 478.154C571.629 478.565 571.229 479.026 570.707 479.537L566.472 483.621L566.072 482.971H573.124V484.422H564.739ZM579.245 484.555C578.334 484.555 577.517 484.322 576.795 483.855C576.084 483.388 575.517 482.71 575.095 481.821C574.684 480.932 574.478 479.854 574.478 478.587C574.478 477.32 574.684 476.242 575.095 475.353C575.517 474.464 576.084 473.786 576.795 473.32C577.517 472.853 578.334 472.62 579.245 472.62C580.146 472.62 580.957 472.853 581.679 473.32C582.402 473.786 582.968 474.464 583.38 475.353C583.791 476.242 583.996 477.32 583.996 478.587C583.996 479.854 583.791 480.932 583.38 481.821C582.968 482.71 582.402 483.388 581.679 483.855C580.957 484.322 580.146 484.555 579.245 484.555ZM579.245 483.071C579.857 483.071 580.39 482.905 580.846 482.571C581.313 482.238 581.674 481.738 581.929 481.071C582.196 480.404 582.329 479.576 582.329 478.587C582.329 477.598 582.196 476.77 581.929 476.103C581.674 475.437 581.313 474.937 580.846 474.603C580.39 474.27 579.857 474.103 579.245 474.103C578.634 474.103 578.095 474.27 577.629 474.603C577.162 474.937 576.795 475.437 576.528 476.103C576.273 476.77 576.145 477.598 576.145 478.587C576.145 479.576 576.273 480.404 576.528 481.071C576.795 481.738 577.162 482.238 577.629 482.571C578.095 482.905 578.634 483.071 579.245 483.071ZM585.413 484.422V483.288L590.164 478.704C590.586 478.304 590.897 477.954 591.097 477.654C591.309 477.343 591.448 477.059 591.514 476.804C591.592 476.537 591.631 476.281 591.631 476.037C591.631 475.437 591.42 474.964 590.997 474.62C590.575 474.275 589.958 474.103 589.147 474.103C588.525 474.103 587.964 474.209 587.463 474.42C586.963 474.62 586.53 474.937 586.163 475.37L585.03 474.387C585.474 473.82 586.069 473.386 586.813 473.086C587.569 472.775 588.397 472.62 589.297 472.62C590.108 472.62 590.814 472.753 591.414 473.02C592.014 473.275 592.475 473.647 592.798 474.136C593.131 474.625 593.298 475.203 593.298 475.87C593.298 476.248 593.248 476.62 593.148 476.987C593.048 477.354 592.859 477.743 592.581 478.154C592.303 478.565 591.903 479.026 591.381 479.537L587.147 483.621L586.747 482.971H593.798V484.422H585.413ZM599.92 484.555C599.008 484.555 598.192 484.322 597.469 483.855C596.758 483.388 596.191 482.71 595.769 481.821C595.358 480.932 595.152 479.854 595.152 478.587C595.152 477.32 595.358 476.242 595.769 475.353C596.191 474.464 596.758 473.786 597.469 473.32C598.192 472.853 599.008 472.62 599.92 472.62C600.82 472.62 601.631 472.853 602.353 473.32C603.076 473.786 603.643 474.464 604.054 475.353C604.465 476.242 604.671 477.32 604.671 478.587C604.671 479.854 604.465 480.932 604.054 481.821C603.643 482.71 603.076 483.388 602.353 483.855C601.631 484.322 600.82 484.555 599.92 484.555ZM599.92 483.071C600.531 483.071 601.064 482.905 601.52 482.571C601.987 482.238 602.348 481.738 602.604 481.071C602.87 480.404 603.004 479.576 603.004 478.587C603.004 477.598 602.87 476.77 602.604 476.103C602.348 475.437 601.987 474.937 601.52 474.603C601.064 474.27 600.531 474.103 599.92 474.103C599.309 474.103 598.77 474.27 598.303 474.603C597.836 474.937 597.469 475.437 597.203 476.103C596.947 476.77 596.819 477.598 596.819 478.587C596.819 479.576 596.947 480.404 597.203 481.071C597.469 481.738 597.836 482.238 598.303 482.571C598.77 482.905 599.309 483.071 599.92 483.071Z" fill="black" fill-opacity="0.75"/>
<path d="M708.745 484.422V483.288L713.496 478.704C713.918 478.304 714.229 477.954 714.429 477.654C714.64 477.343 714.779 477.059 714.846 476.804C714.924 476.537 714.962 476.281 714.962 476.037C714.962 475.437 714.751 474.964 714.329 474.62C713.907 474.275 713.29 474.103 712.479 474.103C711.856 474.103 711.295 474.209 710.795 474.42C710.295 474.62 709.862 474.937 709.495 475.37L708.361 474.387C708.806 473.82 709.4 473.386 710.145 473.086C710.901 472.775 711.729 472.62 712.629 472.62C713.44 472.62 714.146 472.753 714.746 473.02C715.346 473.275 715.807 473.647 716.129 474.136C716.463 474.625 716.629 475.203 716.629 475.87C716.629 476.248 716.579 476.62 716.479 476.987C716.379 477.354 716.19 477.743 715.913 478.154C715.635 478.565 715.235 479.026 714.712 479.537L710.478 483.621L710.078 482.971H717.13V484.422H708.745ZM723.251 484.555C722.34 484.555 721.523 484.322 720.801 483.855C720.09 483.388 719.523 482.71 719.101 481.821C718.689 480.932 718.484 479.854 718.484 478.587C718.484 477.32 718.689 476.242 719.101 475.353C719.523 474.464 720.09 473.786 720.801 473.32C721.523 472.853 722.34 472.62 723.251 472.62C724.151 472.62 724.963 472.853 725.685 473.32C726.407 473.786 726.974 474.464 727.385 475.353C727.797 476.242 728.002 477.32 728.002 478.587C728.002 479.854 727.797 480.932 727.385 481.821C726.974 482.71 726.407 483.388 725.685 483.855C724.963 484.322 724.151 484.555 723.251 484.555ZM723.251 483.071C723.863 483.071 724.396 482.905 724.852 482.571C725.318 482.238 725.68 481.738 725.935 481.071C726.202 480.404 726.335 479.576 726.335 478.587C726.335 477.598 726.202 476.77 725.935 476.103C725.68 475.437 725.318 474.937 724.852 474.603C724.396 474.27 723.863 474.103 723.251 474.103C722.64 474.103 722.101 474.27 721.634 474.603C721.168 474.937 720.801 475.437 720.534 476.103C720.279 476.77 720.151 477.598 720.151 478.587C720.151 479.576 720.279 480.404 720.534 481.071C720.801 481.738 721.168 482.238 721.634 482.571C722.101 482.905 722.64 483.071 723.251 483.071ZM729.419 484.422V483.288L734.17 478.704C734.592 478.304 734.903 477.954 735.103 477.654C735.314 477.343 735.453 477.059 735.52 476.804C735.598 476.537 735.637 476.281 735.637 476.037C735.637 475.437 735.426 474.964 735.003 474.62C734.581 474.275 733.964 474.103 733.153 474.103C732.531 474.103 731.969 474.209 731.469 474.42C730.969 474.62 730.536 474.937 730.169 475.37L729.036 474.387C729.48 473.82 730.075 473.386 730.819 473.086C731.575 472.775 732.403 472.62 733.303 472.62C734.114 472.62 734.82 472.753 735.42 473.02C736.02 473.275 736.481 473.647 736.804 474.136C737.137 474.625 737.304 475.203 737.304 475.87C737.304 476.248 737.254 476.62 737.154 476.987C737.054 477.354 736.865 477.743 736.587 478.154C736.309 478.565 735.909 479.026 735.387 479.537L731.153 483.621L730.753 482.971H737.804V484.422H729.419ZM742.742 484.555C741.919 484.555 741.119 484.427 740.341 484.172C739.574 483.916 738.947 483.571 738.458 483.138L739.224 481.821C739.613 482.188 740.119 482.488 740.741 482.721C741.364 482.955 742.03 483.071 742.742 483.071C743.608 483.071 744.281 482.888 744.759 482.521C745.248 482.143 745.492 481.638 745.492 481.004C745.492 480.393 745.259 479.904 744.792 479.537C744.336 479.16 743.608 478.971 742.608 478.971H741.675V477.804L745.142 473.536L745.375 474.203H738.991V472.753H746.692V473.886L743.242 478.137L742.375 477.62H742.925C744.336 477.62 745.392 477.937 746.092 478.571C746.803 479.204 747.159 480.01 747.159 480.988C747.159 481.643 746.998 482.243 746.676 482.788C746.353 483.333 745.864 483.766 745.209 484.088C744.564 484.399 743.742 484.555 742.742 484.555Z" fill="black" fill-opacity="0.75"/>
<line x1="167.809" y1="104.123" x2="780.726" y2="104.123" stroke="#C9D6F5" stroke-opacity="0.85" stroke-width="1.19069"/>
<line x1="167.809" y1="156.482" x2="780.726" y2="156.482" stroke="#C9D6F5" stroke-opacity="0.85" stroke-width="1.19069"/>
<line x1="167.809" y1="129.112" x2="780.726" y2="129.112" stroke="#C9D6F5" stroke-opacity="0.25" stroke-width="1.19069"/>
<line x1="167.809" y1="261.2" x2="780.726" y2="261.2" stroke="#C9D6F5" stroke-opacity="0.85" stroke-width="1.19069"/>
<line x1="167.809" y1="233.831" x2="780.726" y2="233.831" stroke="#C9D6F5" stroke-opacity="0.25" stroke-width="1.19069"/>
<line x1="167.809" y1="365.918" x2="780.726" y2="365.918" stroke="#C9D6F5" stroke-opacity="0.85" stroke-width="1.19069"/>
<line x1="167.809" y1="338.549" x2="780.726" y2="338.549" stroke="#C9D6F5" stroke-opacity="0.25" stroke-width="1.19069"/>
<line x1="167.809" y1="208.841" x2="780.726" y2="208.841" stroke="#C9D6F5" stroke-opacity="0.85" stroke-width="1.19069"/>
<line x1="167.809" y1="182.661" x2="780.726" y2="182.661" stroke="#C9D6F5" stroke-opacity="0.25" stroke-width="1.19069"/>
<line x1="167.809" y1="312.369" x2="780.726" y2="312.369" stroke="#C9D6F5" stroke-opacity="0.85" stroke-width="1.19069"/>
<line x1="167.809" y1="287.38" x2="780.726" y2="287.38" stroke="#C9D6F5" stroke-opacity="0.25" stroke-width="1.19069"/>
<line x1="167.809" y1="417.087" x2="780.726" y2="417.087" stroke="#C9D6F5" stroke-opacity="0.85" stroke-width="1.19069"/>
<line x1="167.809" y1="457.547" x2="780.726" y2="457.547" stroke="#C9D6F5" stroke-opacity="0.85" stroke-width="1.19069"/>
<line x1="167.809" y1="392.098" x2="780.726" y2="392.098" stroke="#C9D6F5" stroke-opacity="0.25" stroke-width="1.19069"/>
<path d="M277.301 427.202C277.301 427.202 371.321 420.658 409.405 414.113C447.489 407.568 512.628 393.365 585.226 367.781C657.824 342.196 731.336 130.303 731.336 130.303" stroke="#FA8D8D" stroke-width="4.76275" stroke-linecap="round"/>
<ellipse cx="277.3" cy="427.202" rx="5.95065" ry="5.94989" fill="white" stroke="#FA8D8D" stroke-width="4.76275"/>
<ellipse cx="407.025" cy="414.113" rx="5.95065" ry="5.94989" fill="white" stroke="#FA8D8D" stroke-width="4.76275"/>
<ellipse cx="585.544" cy="367.704" rx="5.95065" ry="5.94989" fill="white" stroke="#FA8D8D" stroke-width="4.76275"/>
<ellipse cx="729.55" cy="132.088" rx="5.95065" ry="5.94989" fill="white" stroke="#FA8D8D" stroke-width="4.76275"/>
</svg>
