<svg width="145" height="198" viewBox="0 0 145 198" fill="none" xmlns="http://www.w3.org/2000/svg">
<g clip-path="url(#clip0_2025_7036)">
<path opacity="0.75" d="M47.4883 181.886C47.4883 181.886 63.2839 181.259 67.2869 180.631C71.2899 180.004 95.0916 178.017 97.7963 177.39C100.501 176.763 110.238 174.462 111.861 175.821C113.484 177.076 112.077 177.076 112.618 177.285C113.159 177.494 114.241 177.599 114.349 178.436C114.457 179.272 114.349 180.318 114.998 180.631C115.648 181.05 115.648 182.2 116.188 182.513C116.729 182.827 116.621 183.35 116.513 183.664C116.405 183.977 116.838 184.709 117.054 185.023C117.27 185.337 118.028 185.755 118.028 186.173C118.028 186.591 117.703 187.532 117.703 187.532C117.703 187.532 116.838 188.369 116.405 188.578C115.972 188.787 100.285 190.983 97.039 191.61C93.7933 192.238 79.1877 193.806 74.3192 194.224C69.4507 194.643 61.7693 195.793 59.3891 196.316C57.1171 196.838 55.7107 197.361 55.1697 196.943C54.6288 196.525 53.0059 193.911 52.6814 193.283C52.2486 192.656 52.465 192.865 52.1404 192.133C51.8159 191.401 51.5995 191.297 51.2749 190.878C50.9503 190.46 50.6258 190.46 50.193 189.415C49.7603 188.369 49.4357 187.219 48.7865 186.278C48.1374 185.232 47.8128 185.232 47.5965 184.082C47.4883 182.618 47.4883 181.886 47.4883 181.886Z" fill="#FFCA42"/>
<path opacity="0.75" d="M66.3104 112.038C65.553 113.188 64.0384 116.848 63.822 118.626C63.4974 120.403 55.7078 145.603 53.8686 151.458C52.0294 157.314 50.7311 164.528 50.082 167.561C49.4328 170.593 48.5673 173.103 48.4591 172.684C48.3509 172.266 48.6755 169.861 49.2165 168.084C49.7574 166.306 49.9738 164.11 50.5147 162.333C51.0557 160.555 51.1639 158.778 51.5966 157.627C52.0294 156.477 50.8393 158.15 50.1902 161.287C49.541 164.424 48.5673 168.293 48.2427 169.861C47.9182 171.43 47.7018 173.207 47.269 175.089C46.8363 176.971 46.5117 178.749 46.5117 179.899C46.5117 181.049 46.6199 182.095 47.1609 182.931C47.7018 183.872 47.9182 183.872 48.1346 184.814C48.3509 185.755 49.1083 186.591 49.4328 187.323C49.7574 188.16 50.6229 189.728 50.9475 190.042C51.272 190.355 52.0294 191.61 52.2458 191.924C52.4621 192.237 52.8949 193.283 53.2195 193.806C53.544 194.329 54.5177 195.583 54.9505 196.106C55.3832 196.734 56.3569 197.152 56.4651 196.734C56.5733 196.315 56.8979 192.865 57.2225 191.192C57.547 189.519 60.36 174.357 60.6845 173.521C61.0091 172.684 61.55 170.593 61.8746 169.757C62.1992 168.92 62.091 168.188 62.1992 167.247C62.3074 166.201 62.6319 165.47 63.0647 164.633C63.4974 163.692 65.3367 158.464 65.6612 157.105C66.094 155.641 70.5297 142.048 71.5035 139.12C72.4772 136.192 75.1819 126.886 75.7228 125.422C76.2638 123.958 76.6965 123.122 76.5884 122.39C76.4802 121.658 76.2638 121.344 75.831 120.926C75.3983 120.508 74.6409 120.403 74.5328 119.567C74.4246 118.73 74.6409 117.894 74.1 117.371C73.559 116.848 73.6672 115.384 73.2345 115.907C72.8017 116.43 72.9099 118.521 72.369 118.103C71.828 117.685 71.7198 116.43 71.828 116.116C71.9362 115.803 71.7198 114.652 71.7198 114.652C71.7198 114.652 71.1789 114.13 70.8543 114.13C70.5297 114.13 69.9888 114.13 69.9888 113.607C69.9888 113.084 70.097 112.457 69.6642 111.934C69.2315 111.411 68.4741 110.993 68.4741 110.993C68.4741 110.993 67.9332 111.202 67.7168 111.515C67.3923 112.038 66.3104 112.038 66.3104 112.038Z" fill="#FFCA42"/>
<path opacity="0.75" d="M57.7622 174.776C56.8967 175.508 51.0545 180.004 49.7562 180.527C48.4579 181.05 46.7269 182.513 47.0515 182.932C47.376 183.35 48.4579 185.441 48.7825 186.069C48.9989 186.696 51.92 191.61 52.5691 192.97C53.2183 194.434 55.7066 197.989 56.1394 196.629C56.5721 195.27 93.0319 163.692 103.743 151.563C114.562 139.434 132.846 113.816 138.471 96.3543C143.989 78.8924 146.477 57.6663 142.691 42.7139C141.934 39.8908 140.743 36.963 139.337 34.0353C136.849 29.0163 133.711 23.6836 130.357 19.3966C125.381 13.1229 119.971 8.52214 117.591 7.16284C112.614 4.33966 125.921 13.5411 131.331 24.6247C136.74 35.7083 136.74 41.6683 137.281 47.6284C137.822 53.5884 136.849 65.613 135.659 71.8868C134.468 78.0559 132.737 83.8069 131.547 86.63C130.357 89.4532 129.059 90.6034 129.384 90.1851C129.708 89.7669 131.331 85.1662 132.305 82.5521C133.278 80.0426 134.685 74.8145 134.793 73.1415C134.901 71.4685 134.36 73.978 133.387 77.2194C132.413 80.4609 131.223 84.4342 130.574 85.4798C130.033 86.63 130.033 87.4665 129.708 87.8848C129.384 88.303 129.384 88.6167 128.951 89.2441C128.518 89.976 127.544 90.9171 127.544 91.7536C127.544 92.5901 127.436 92.5901 126.787 93.6357C126.246 94.5768 125.813 95.3087 125.597 95.7269C125.489 96.1452 124.299 97.8182 124.19 98.8638C124.082 99.8049 123.758 100.119 123.325 100.537C122.892 100.955 122.568 101.373 122.351 101.792C122.027 102.21 116.076 112.771 114.778 114.862C113.48 116.953 103.526 129.082 100.605 132.742C97.6841 136.402 84.7014 149.681 81.9966 152.609C79.1837 155.536 70.3122 164.006 66.4174 167.561C62.3062 171.221 57.7622 174.776 57.7622 174.776Z" fill="#FFCA42"/>
</g>
<defs>
<clipPath id="clip0_2025_7036">
<rect width="196.995" height="144" fill="white" transform="matrix(0 1 1 0 0.53125 0.0527344)"/>
</clipPath>
</defs>
</svg>
