<svg width="213" height="38" viewBox="0 0 213 38" fill="none" xmlns="http://www.w3.org/2000/svg">
<path opacity="0.75" d="M212.749 27.5882C212.226 27.483 212.016 27.2726 211.387 27.2726C210.654 27.1674 210.13 26.957 209.815 26.6415C209.501 26.4311 208.977 26.3259 209.292 25.9052C209.711 25.4844 210.025 24.8533 209.606 24.8533C209.187 24.8533 208.244 24.6429 207.72 24.4325C207.196 24.3273 206.777 24.1169 206.358 23.9066C205.834 23.6962 205.31 23.3806 205.519 22.9599C205.729 22.5391 205.1 22.2236 204.681 22.1184C204.262 22.0132 199.127 21.0665 197.556 20.7509C195.984 20.4354 193.783 20.1198 191.688 19.3835C189.487 18.6472 187.496 17.9108 186.344 15.5967C185.191 13.2826 184.981 11.9151 184.458 11.1788C183.934 10.4425 183.41 8.75945 182.571 8.3387C181.733 7.81276 181.733 7.392 181.104 7.49719C180.476 7.60238 179.952 7.91794 179.428 8.12832C178.799 8.3387 177.437 8.96983 176.913 9.1802C176.389 9.49577 176.284 9.81133 175.551 9.81133C174.817 9.81133 172.407 11.284 171.569 11.8099C170.731 12.3359 168.006 14.1241 167.273 14.4396C166.644 14.7552 165.701 15.7019 164.968 15.9123C164.234 16.2278 163.605 16.7538 162.557 17.0693C161.51 17.4901 158.261 19.3835 156.69 20.0146C155.118 20.6457 151.66 21.8028 150.298 21.5924C148.935 21.3821 147.573 18.6472 147.049 17.2797C146.525 15.9123 144.22 10.758 142.544 9.91652C140.762 8.96983 139.819 9.1802 139.086 9.39058C138.352 9.60096 137.2 10.3373 136.885 10.4425C136.571 10.5477 134.685 11.3892 133.846 11.7047C133.008 12.0203 131.541 12.441 130.598 12.8618C129.655 13.2825 128.607 13.5981 128.293 13.5981C128.083 13.5981 127.035 12.967 126.511 13.2825C125.883 13.5981 124.73 14.0189 124.311 14.2292C123.892 14.5448 123.158 14.7552 123.054 14.9656C123.054 15.1759 123.368 15.2811 123.682 15.1759C123.997 15.0708 124.311 14.8604 124.835 14.65C125.359 14.5448 126.302 14.2292 126.092 14.3344C125.883 14.4396 124.835 15.1759 124.311 15.3863C123.787 15.5967 123.892 15.8071 122.844 16.0174C121.796 16.333 121.167 16.1226 121.482 15.9123C121.796 15.7019 122.215 15.3863 121.901 15.2811C121.587 15.1759 121.377 15.2811 120.958 15.5967C120.539 15.9123 120.224 15.9123 119.281 16.1226C118.338 16.333 118.024 16.5434 117.5 16.9641C116.976 17.3849 115.928 17.3849 115.614 17.4901C115.404 17.5953 114.566 17.8056 114.042 17.8056C113.518 17.8056 113.204 17.3849 112.156 17.8056C111.003 18.2264 108.488 18.9627 107.65 19.0679C106.707 19.1731 105.764 18.7523 105.24 18.2264C104.716 17.8056 100.42 9.39058 99.5817 8.44389C98.6387 7.49719 95.8095 4.23635 95.076 4.02598C94.4473 3.8156 92.3516 3.71041 90.8846 4.23635C89.4176 4.76229 85.7501 5.91937 83.864 7.07644C82.1874 8.54907 73.0711 14.4396 68.9845 16.7538C64.8979 19.0679 61.8591 20.7509 61.0209 21.0665C60.0778 21.3821 59.6587 21.3821 59.1347 21.5924C58.6108 21.8028 58.1917 21.4872 58.7156 21.2769C59.2395 21.0665 61.2304 20.0146 62.0687 19.699C62.907 19.2783 64.4788 18.2264 65.317 17.9108C66.1553 17.5953 65.7362 17.4901 64.7931 17.9108C63.8501 18.3316 62.5926 18.6472 61.6496 19.1731C60.7065 19.699 59.03 20.225 58.506 20.6457C57.8773 21.0665 55.4673 21.908 52.7429 22.2236C50.0185 22.4339 46.8749 21.5924 46.351 21.2769C45.9318 20.9613 44.884 20.1198 44.884 20.1198C44.884 20.1198 44.2553 16.0174 43.5218 14.7552C42.7883 13.3877 37.549 5.81418 36.3964 4.34154C35.139 2.8689 33.0433 0.765137 30.738 0.765137C28.4328 0.765137 24.1366 3.18447 21.4122 4.86748C18.6878 6.65568 7.79012 16.2278 5.69442 18.2264C2.86523 20.9613 0.559961 22.8547 0.979101 24.9585C1.29346 27.0622 3.91308 32.2165 5.38007 34.0047C6.84706 35.7929 7.37098 37.1603 9.78103 35.1617C12.1911 33.1631 19.6308 24.0118 25.1844 20.0146C30.738 16.0174 36.3964 12.5462 37.6538 15.7019C39.016 18.8575 43.8361 28.4297 46.351 32.2165C48.8658 36.0032 57.7725 38.8433 66.5745 34.741C75.3764 30.6386 86.5884 22.8547 90.3606 20.8561C94.2377 18.8575 97.6956 18.8575 98.3243 19.0679C99.0578 19.2783 103.249 29.6919 103.983 31.5853C104.716 33.3735 110.479 37.5811 117.29 34.6358C121.377 32.9528 129.76 28.7452 136.466 26.6415C140.972 25.1688 144.744 24.9585 145.373 26.1155C146.945 29.0608 147.678 35.2669 150.298 36.7396C152.917 38.2122 155.013 37.8966 157.213 37.0551C159.519 36.2136 160.567 35.6877 161.51 34.741C162.348 33.7943 165.282 31.5853 166.644 31.2698C168.006 30.9542 174.503 26.957 176.075 26.4311C177.646 25.9052 180.58 24.117 180.58 24.117C180.58 24.117 181.733 23.591 182.047 23.4858C182.257 23.3806 182.886 23.2754 183.095 23.3806C183.305 23.4858 183.305 23.9066 183.095 23.9066C182.886 23.9066 172.617 29.4816 171.464 30.1127C170.416 30.7438 167.063 32.6372 166.33 32.9528C165.701 33.1631 164.339 34.0047 163.605 34.3202C162.872 34.6358 162.977 35.1617 163.501 34.9513C164.024 34.741 169.997 31.9009 171.359 31.1646C172.722 30.4282 176.808 27.9037 177.856 27.2726C178.904 26.6415 179.533 26.4311 180.476 26.1155C181.419 25.8 182.467 25.1688 182.571 25.1688C182.676 25.0636 183.41 24.6429 183.619 24.6429C183.724 24.6429 184.038 25.3792 184.038 25.5896C184.038 25.8 186.972 31.2698 188.544 32.532C190.221 33.7943 191.897 34.5306 192.84 35.0565C193.888 35.5825 194.098 35.6877 194.936 35.5825C195.774 35.4773 195.984 35.3721 196.193 35.1617C196.403 34.9513 196.298 34.8462 196.822 35.0565C197.346 35.2669 198.708 35.7929 200.49 36.0032C202.271 36.2136 203.424 36.2136 204.157 36.2136C204.891 36.1084 205.624 36.1084 205.31 36.1084C204.995 36.0032 203.214 36.1084 201.852 35.6877C200.49 35.2669 199.651 35.4773 198.603 35.0565C197.556 34.6358 197.765 34.3202 198.603 34.215C199.547 34.215 202.061 34.8462 203.319 35.0565C204.681 35.2669 206.358 35.1617 207.405 35.2669C208.348 35.3721 209.187 35.3721 209.292 35.2669C209.501 35.0565 209.501 34.9513 209.92 34.9513C210.444 34.9513 210.759 34.8462 211.282 34.8462C211.806 34.741 212.33 34.5306 211.387 34.4254C210.339 34.3202 208.977 34.0047 208.453 33.8995C207.929 33.7943 207.196 33.5839 206.672 33.3735C206.148 33.1631 205.729 32.9528 205.624 32.8476C205.414 32.7424 206.043 32.3216 206.881 32.3216C207.72 32.3216 208.872 32.532 209.606 32.532C210.339 32.532 212.33 32.8476 212.226 32.532C212.121 32.2165 211.492 32.2165 210.968 32.0061C210.549 31.9009 210.235 31.6905 209.815 31.5853C209.396 31.4801 208.872 31.0594 209.082 30.9542C209.292 30.849 209.815 30.7438 209.606 30.5334C209.501 30.3231 208.977 29.5867 209.501 29.3764C210.025 29.166 210.339 28.7452 210.759 28.7452C211.178 28.7452 211.702 28.4297 212.016 28.4297C212.54 28.0089 213.273 27.7985 212.749 27.5882ZM26.5466 3.28966C26.2323 3.71041 25.4988 4.44673 24.6605 4.97267C23.8222 5.49861 19.2117 9.07502 18.1638 9.49577C17.0112 10.0217 14.2868 12.7566 13.6581 13.3877C12.9246 13.9137 11.248 15.2811 10.2002 16.2278C9.04754 17.1745 7.68534 18.016 7.68534 18.016C7.89491 17.9108 12.4007 12.8618 17.116 9.39058C21.7265 5.91937 23.0887 5.07786 24.1366 4.34154C25.2892 3.71041 25.394 3.60522 26.0227 3.28966C26.5466 2.97409 26.861 2.8689 26.5466 3.28966ZM80.4061 24.6429C80.1965 24.8533 79.6726 25.0636 79.2534 25.274C78.9391 25.4844 78.52 25.4844 78.2056 25.8C77.996 26.1155 77.5769 26.1155 77.5769 25.9052C77.5769 25.6948 77.5769 25.1688 77.996 25.0636C78.5199 24.9585 79.0439 24.7481 79.2534 24.6429C79.463 24.5377 79.7774 24.2221 79.9869 24.2221C80.3013 24.1169 80.7204 24.3273 80.4061 24.6429ZM85.1214 21.6976C84.7023 21.908 83.864 22.6443 83.5496 22.7495C83.2353 22.8547 82.9209 23.0651 82.6066 23.4858C82.2922 23.9066 81.9779 23.9066 81.7683 24.0118C81.4539 24.1169 81.3491 23.591 81.6635 23.3806C81.9779 23.2754 82.5018 22.5391 82.8161 22.3287C83.1305 22.1184 83.3401 22.0132 83.9688 21.6976C84.7023 21.2769 84.807 21.0665 85.2262 21.1717C85.6453 21.3821 85.5405 21.3821 85.1214 21.6976ZM89.8367 6.86606C88.4745 7.28681 87.3219 7.81276 83.4448 9.91652C79.463 12.0203 74.0142 15.8071 73.0711 16.2278C72.2329 16.5434 72.2329 15.8071 72.652 15.5967C73.0711 15.3863 73.0711 15.2811 74.5381 14.3344C75.9003 13.3877 79.2534 11.4943 81.4539 10.0217C83.6544 8.54907 87.5315 7.07644 88.6841 6.76087C89.8367 6.44531 91.3037 6.5505 91.3037 6.5505C91.3037 6.5505 91.1989 6.44531 89.8367 6.86606ZM126.092 16.2278C127.035 15.8071 128.922 15.0708 129.76 14.8604C130.598 14.65 129.131 15.3863 128.712 15.5967C128.188 15.8071 127.874 16.1226 127.559 16.4382C127.245 16.7538 126.092 16.9641 125.673 16.9641C125.149 17.0693 125.464 16.6486 126.092 16.2278ZM122.844 29.5867C123.263 29.4816 124.311 29.0608 124.521 28.9556C124.835 28.8504 126.616 28.3245 127.14 28.1141C127.769 27.9037 128.083 27.483 128.607 27.2726C129.131 27.0622 129.341 27.0622 130.284 26.6415C131.122 26.2207 131.646 26.0103 132.065 25.9052C132.379 25.8 134.161 24.8533 134.58 24.8533C134.999 24.8533 135.942 24.6429 136.152 24.5377C136.361 24.4325 136.78 24.4325 136.676 24.5377C136.571 24.7481 136.152 25.274 135.837 25.3792C135.523 25.4844 134.161 25.9052 133.742 26.1155C133.218 26.2207 132.065 26.5363 131.227 26.8518C130.388 27.1674 129.131 27.9037 128.398 28.2193C127.664 28.4297 126.826 28.64 126.092 29.0608C125.359 29.3764 125.359 29.3764 124.416 29.7971C123.473 30.2179 122.949 30.5334 122.949 30.5334C122.53 30.7438 122.11 30.7438 122.11 30.4283C121.901 30.1127 122.425 29.5867 122.844 29.5867ZM128.817 29.166C124.835 31.0594 122.739 31.9009 121.063 32.532C119.386 33.1631 118.757 33.058 118.757 33.058C118.757 33.058 120.853 32.1113 121.796 31.7957C122.739 31.4801 128.817 28.64 131.751 27.483C134.161 26.4311 133.951 26.6415 135.523 26.1155C136.78 25.6948 136.99 26.1155 136.99 26.1155C136.99 26.1155 132.799 27.2726 128.817 29.166ZM179.952 8.96983C179.847 9.49577 179.952 9.49577 179.323 10.0217C178.59 10.4425 177.856 11.284 178.275 11.0736C178.694 10.8632 178.59 11.4943 178.066 11.9151C177.542 12.3359 177.123 12.3359 176.18 12.7566C175.236 13.1774 174.817 13.5981 173.56 13.8085C172.407 14.0189 171.15 14.8604 169.788 15.5967C168.425 16.4382 166.12 17.7005 164.758 18.4368C163.396 19.1731 162.662 18.7523 162.138 19.2783C161.614 19.8042 161.405 19.5939 160.671 19.699C159.938 19.8042 160.147 19.2783 160.147 19.2783C160.567 18.9627 161.3 18.542 161.824 18.3316C162.243 18.016 163.92 17.4901 164.548 17.2797C165.177 16.9641 166.225 16.2278 166.644 16.0174C167.063 15.8071 168.53 14.65 168.949 14.3344C169.368 14.0189 171.569 12.7566 172.302 12.441C173.036 12.1255 174.084 11.5995 174.608 11.4943C175.132 11.3892 176.075 10.8632 176.599 10.6528C177.123 10.4425 177.961 9.81133 178.275 9.60096C178.59 9.39058 178.904 9.1802 179.323 8.96983C179.847 8.65426 180.161 8.3387 179.952 8.96983Z" fill="#F98D8D" fill-opacity="0.5"/>
</svg>
