<svg width="203" height="60" viewBox="0 0 203 60" fill="none" xmlns="http://www.w3.org/2000/svg">
<path opacity="0.75" d="M21.4764 44.6884C20.3631 47.1338 20.3632 47.6896 19.5839 50.3573C18.916 52.9138 17.4688 54.5811 16.0216 55.2481C14.5745 55.915 13.1273 55.6927 11.7914 55.1369C10.4556 54.5811 10.233 54.0254 9.34239 53.1361C8.45183 52.2469 6.44805 51.0242 5.78013 50.2461C5.1122 49.5792 3.66503 48.9123 2.66314 47.9119C1.66126 46.9115 0.102766 45.4665 0.770691 44.1327C1.43862 42.7988 1.77258 42.3542 3.10843 42.1319C4.44428 41.7984 5.89145 41.1315 6.55937 40.1311C7.2273 39.1307 10.1216 36.6854 10.5669 35.7961C11.0122 34.9069 12.682 32.4615 13.6839 31.5723C14.6858 30.6831 15.465 29.0157 16.4669 28.0154C17.4688 27.015 21.2537 22.68 22.3669 21.6796C23.4801 20.6792 26.1518 18.1227 26.9311 17.3446C27.8216 16.6777 30.2707 13.8988 30.9386 13.4542C31.6065 13.0096 33.3877 11.3423 34.1669 10.6754C34.8349 10.1196 36.1707 8.67459 37.5066 7.78536C38.8424 6.89613 41.5141 4.33959 42.516 3.89498C43.5179 3.45036 44.965 2.00536 45.633 1.89421C46.3009 1.78305 47.5254 1.22729 48.416 1.00498C49.3066 0.893824 51.199 1.56075 52.9801 2.00536C54.8726 2.44998 57.433 3.78382 58.7688 4.11729C60.1047 4.5619 61.1066 5.56229 60.7726 6.45152C60.4386 7.34075 58.8801 7.89652 58.2122 8.22998C57.5443 8.56344 53.6481 10.7865 52.7575 11.2311C51.8669 11.6757 45.0764 16.6777 43.0726 18.5673C41.0688 20.4569 40.5122 21.9019 39.733 21.6796C39.065 21.5684 38.7311 22.0131 38.3971 22.7911C38.0632 23.6804 37.3952 24.2361 36.616 24.9031C35.9481 25.57 31.6065 30.1273 30.8273 31.2388C30.1594 32.3504 27.933 35.0181 27.0424 36.1296C26.1518 37.2411 26.7084 37.4634 25.7065 38.0192C24.7047 38.575 24.816 40.02 23.9254 40.5758C23.3688 41.3538 22.033 43.3546 21.4764 44.6884Z" fill="#BBB0E5" fill-opacity="0.5"/>
<path opacity="0.75" d="M101.735 12.563C101.401 12.0072 100.065 11.3403 98.2841 10.8957C97.6162 10.4511 96.9483 10.0064 96.503 9.78413C95.5011 9.11721 91.2709 7.89452 90.269 7.67221C89.4898 7.4499 89.0445 7.4499 88.8219 7.78336C87.9313 8.00567 87.0407 8.33913 85.8162 8.67259C83.9238 9.11721 81.2521 11.3403 78.469 13.6745C75.5747 16.0087 61.3256 30.7922 59.4332 32.9041C57.5407 35.0161 54.869 37.128 55.0917 35.7941C55.3143 34.3491 57.4294 27.6799 58.6539 24.123C59.0992 22.9003 60.4351 16.7868 60.6577 15.453C60.9917 14.1191 61.103 8.00567 60.769 6.67182C60.4351 5.33798 59.8785 4.89336 58.7653 4.33759C57.652 3.78182 56.2049 3.22605 55.3143 2.89259C54.4237 2.55913 51.3068 1.33644 50.0822 1.00298C48.969 0.669515 47.5219 2.00336 47.2992 2.55913C47.2992 2.55913 47.4105 4.67105 47.4105 6.33836C47.4105 7.89452 47.0766 13.1187 47.0766 14.1191C47.0766 15.1195 47.0766 18.1207 46.52 19.5657C45.9634 21.0107 44.0709 27.2353 43.1803 29.0137C42.2898 30.9034 39.7294 37.6837 38.7275 39.3511C37.7256 41.1295 34.386 48.7991 33.8294 50.2441C33.2728 51.6891 33.8294 52.3561 34.4973 53.4676C35.1653 54.468 37.0577 55.0238 38.3936 55.913C39.7294 56.8022 42.9577 58.4695 44.0709 59.2476C44.0709 59.2476 45.4068 60.1368 47.0766 59.9145C48.7464 59.6922 48.5237 59.6922 51.8634 58.6918C55.203 57.6914 55.4256 55.5795 57.7634 54.1345C60.1011 52.6895 64.4426 47.4653 66.3351 45.3534C68.2275 43.2414 78.9143 31.348 81.3634 29.2361C82.0313 28.6803 83.1445 27.6799 84.4804 26.4572C84.0351 27.9022 83.7011 29.2361 83.4785 30.1253C82.8105 33.0153 81.586 37.0168 81.3634 38.9064C81.2521 40.9072 81.8087 43.5749 82.9219 44.2418C84.1464 44.9088 86.9294 46.1314 88.5992 47.3541C90.269 48.5768 93.386 50.0218 94.8332 50.0218C96.2804 50.0218 95.8351 48.5768 95.8351 47.3541C95.8351 46.1314 96.503 43.7972 97.0596 42.1299C97.5049 40.4626 97.7275 37.3503 98.5068 35.4607C99.1747 33.5711 100.399 27.1241 100.622 26.4572C100.845 25.7903 102.292 17.2314 102.514 15.2307C102.626 14.7861 102.514 14.3414 102.403 14.008C102.848 13.6745 102.18 13.1187 101.735 12.563Z" fill="#BBB0E5" fill-opacity="0.5"/>
<path opacity="0.75" d="M82.9188 44.2415C84.5886 44.9084 88.1508 47.7984 90.2659 48.5765C92.381 49.2434 95.0527 51.4665 99.0603 48.1319C103.068 44.7972 107.632 37.4611 112.419 33.3484C117.206 29.3469 123.106 24.5672 126.668 21.4549C126.668 21.4549 125.666 26.2345 125.443 29.7915C125.221 33.3484 127.336 36.683 130.007 38.128C132.679 39.573 135.685 41.018 138.134 41.6849C140.472 42.3519 144.034 41.2403 146.26 39.7953C148.375 38.3503 151.047 35.238 152.717 34.1265C154.387 32.9038 161.734 24.9007 162.958 25.5676C164.183 26.2345 167.745 29.5692 169.86 30.7918C171.975 32.0145 176.985 34.7934 179.1 34.3488C181.215 33.9042 183.887 32.0145 185.334 30.7918C186.781 29.5692 188.451 27.0126 189.341 25.7899C190.343 24.5672 190.566 23.9003 193.906 21.5661C197.245 19.2318 196.8 19.6765 198.692 18.0092C200.585 16.3418 200.362 16.3418 200.028 16.1195C199.694 16.0084 199.694 15.8972 199.583 15.6749C199.472 15.4526 199.472 15.2303 199.694 15.1192C199.917 14.8968 200.251 14.5634 200.696 14.3411C201.141 14.1188 202.032 13.6742 201.698 13.6742C201.364 13.6742 201.253 13.7853 201.141 13.563C201.03 13.3407 201.03 13.1184 201.364 13.0072C201.698 12.8961 202.143 12.6738 201.921 12.3403C201.698 12.0068 201.253 11.5622 201.253 11.5622C201.253 11.5622 201.364 11.3399 201.03 11.4511C200.696 11.6734 200.251 12.0068 200.028 12.0068C199.806 12.0068 199.806 11.4511 199.917 11.3399C200.028 11.2288 200.696 10.673 201.253 10.4507C201.809 10.1172 201.698 10.0061 202.143 9.78377C202.589 9.56146 202.811 9.11685 202.366 9.228C201.921 9.33916 201.253 9.67262 200.807 9.89493C200.474 10.1172 200.028 10.3395 199.917 10.4507C199.694 10.5618 199.583 10.673 199.472 10.5618C199.36 10.4507 199.249 9.89493 199.249 9.89493C199.249 9.89493 199.36 9.56146 199.583 9.33916C199.806 9.11685 200.028 9.11685 200.251 9.00569C200.474 8.78339 200.251 8.56108 200.028 8.44993C199.917 8.33877 199.138 8.11646 199.026 8.22762C198.804 8.33877 198.024 8.78339 197.802 8.78339C197.579 8.78339 187.783 14.1188 186.447 15.008C185.223 15.7861 180.547 18.8984 179.657 19.343C178.766 19.7876 177.653 20.2322 177.43 19.6765C177.207 19.1207 172.643 15.5638 170.974 14.6745C169.304 13.8965 164.628 11.1176 162.736 10.7842C160.732 10.5618 157.281 10.4507 155.277 12.118C153.273 13.7853 141.473 24.3449 141.473 24.3449C141.473 24.3449 142.253 15.7861 142.253 14.8968C142.253 14.0076 142.03 13.3407 141.14 12.5626C140.249 11.7845 131.677 7.22723 130.675 6.89377C129.673 6.56031 125.889 6.11569 125.109 6.44916C124.33 6.78262 117.094 10.0061 114.311 12.118C111.528 14.2299 105.406 19.4542 104.181 20.4545C102.845 21.4549 96.2773 26.0122 94.8301 26.9015C93.3829 27.6795 85.5905 38.0169 83.5867 39.2395C81.5829 40.5734 80.581 41.5738 81.0263 42.3519C81.4716 43.0188 82.9188 44.2415 82.9188 44.2415Z" fill="#BBB0E5" fill-opacity="0.5"/>
</svg>
