<svg width="386" height="240" viewBox="0 0 386 240" fill="none" xmlns="http://www.w3.org/2000/svg">
<path opacity="0.75" d="M233.986 4.92387C236.393 5.87846 239.001 7.78765 237.998 8.02629C236.995 8.50359 237.998 10.4128 238.6 12.322C239.202 14.2312 237.196 13.0379 237.196 14.7084C237.196 16.379 237.797 17.5722 236.795 18.2882C235.792 19.0041 236.393 19.9587 236.393 21.3906C236.393 23.0611 234.388 21.6292 233.385 23.7771C232.783 24.7317 233.385 25.6863 234.187 27.1182C234.789 28.55 234.388 29.7433 232.582 29.5046C230.777 29.266 228.571 30.2206 225.562 30.2206C222.553 30.2206 201.693 29.266 196.277 29.7433C190.861 30.2206 181.033 32.3684 178.626 32.8457C176.018 33.5617 149.541 40.7211 133.094 47.4033C116.646 54.0854 90.7707 68.4043 80.1399 76.757C69.509 85.1097 46.0409 106.111 36.413 118.52C26.785 131.169 18.3606 140.715 13.9477 153.124C9.53494 165.773 4.11922 187.013 4.72096 194.172C4.72096 194.172 3.31689 192.979 2.31398 186.535C1.31107 180.092 0.508737 159.807 2.31398 147.636C3.91863 136.419 12.5437 112.077 26.5844 95.6102C40.6252 79.1435 53.663 63.3927 72.3172 50.0284C90.9713 36.6641 101.602 28.7887 123.466 19.9587C145.329 10.8901 148.538 10.4128 150.143 9.45818C151.748 8.50359 152.55 8.26494 154.155 8.26494C155.759 8.26494 156.762 7.0717 158.166 6.5944C159.57 6.35576 176.62 1.10549 194.672 0.389549C212.925 -0.326396 227.969 2.53738 233.986 4.92387Z" fill="#79A5DB" fill-opacity="0.35"/>
<path opacity="0.75" d="M334.081 98.7132C334.081 98.7132 318.235 114.225 308.607 121.623C299.179 129.022 268.29 155.989 233.99 164.103C199.691 172.217 172.612 176.035 128.885 173.171C85.1581 170.308 65.3004 157.421 58.28 147.875C51.2596 138.329 44.2393 116.373 43.4369 106.111C43.4369 106.111 41.0299 131.885 40.8294 139.761C40.6288 147.875 41.0299 171.262 57.6783 185.82C74.126 200.377 105.417 207.298 131.693 208.969C157.969 210.639 199.49 208.014 220.752 200.855C242.013 193.695 275.912 178.899 284.336 173.649C292.761 168.16 296.371 165.057 295.368 165.296C294.365 165.535 287.144 170.785 285.54 171.74C283.935 172.694 272.903 178.899 268.891 180.808C265.482 182.479 261.47 183.433 260.668 183.672C261.871 183.433 269.694 179.854 272.502 178.422C275.31 176.751 279.322 174.126 280.124 173.649C280.926 173.171 281.127 172.217 282.13 171.978C283.133 171.74 283.534 171.74 284.136 171.262C284.737 170.546 286.944 170.069 287.947 169.353C288.95 168.637 289.351 167.921 289.752 167.444C290.153 166.967 291.156 166.489 291.557 165.773C292.159 165.057 292.36 164.819 293.362 164.58C294.365 164.58 295.569 164.103 295.97 163.387C296.371 162.671 297.174 162.194 297.575 162.194C297.976 162.194 299.581 162.194 300.182 161.478C300.583 161 310.412 153.602 313.621 150.5C317.031 147.397 319.037 145.011 319.639 144.295C320.241 143.579 320.441 142.624 320.842 142.624C321.444 142.386 321.845 141.909 321.845 141.67C321.845 141.193 322.246 140.477 322.848 140.238C323.45 139.999 324.453 138.567 326.258 135.226C328.264 131.885 328.665 131.408 330.671 123.294C332.677 115.419 335.284 102.293 334.081 98.7132ZM297.575 138.329C296.772 139.045 295.97 139.522 295.168 140.238C289.551 144.534 275.511 154.796 265.08 159.569C251.441 165.773 231.583 173.887 225.365 175.558C219.147 177.228 218.345 177.228 217.141 176.751C215.938 176.274 216.339 176.751 213.531 176.99C210.723 177.228 207.714 178.66 206.51 178.899C205.307 179.138 193.071 181.047 179.632 181.763C165.993 182.479 144.731 181.047 144.731 181.047C144.731 181.047 178.83 181.524 194.074 179.138C209.519 176.751 215.135 175.319 217.743 174.603C220.351 173.887 238.604 170.546 256.857 161.239C273.505 152.886 286.543 146.443 294.967 140.238C296.772 138.806 297.775 138.09 297.575 138.329Z" fill="#79A5DB" fill-opacity="0.35"/>
<path opacity="0.75" d="M385.634 91.5547C384.832 87.259 384.23 80.5769 381.622 74.8493C379.015 69.1218 368.785 55.0415 361.564 49.5526C354.343 44.0637 337.695 34.9951 324.055 29.2675C310.215 23.7786 301.59 22.5853 296.977 21.6307C292.363 20.6762 286.747 19.4829 283.939 18.767C281.131 18.2897 264.683 16.6191 258.866 15.9032C253.25 15.1872 244.023 14.2326 239.209 14.4713C234.596 14.7099 217.345 14.2326 214.537 13.994C211.729 13.7554 204.308 13.2781 200.296 13.5167C196.284 13.7554 188.863 14.9486 184.851 15.4259C180.84 15.9032 159.578 18.051 153.761 20.1989C148.145 22.3467 145.537 22.5853 142.328 22.824C139.319 23.0626 136.31 25.2105 135.508 25.2105C134.706 25.2105 119.863 29.5061 115.45 30.938C111.037 32.3699 95.9932 40.484 87.1676 46.2115C78.342 51.7004 69.5164 58.8599 64.1006 64.3488C58.6849 69.8377 54.6733 73.4174 49.4581 85.1112C44.4436 96.5663 43.0395 104.919 42.2372 114.465C41.4348 124.011 40.0308 134.511 40.4319 143.341C40.8331 152.171 42.2372 158.854 43.0395 160.524C43.0395 160.524 47.4523 118.522 74.7315 93.9412C101.81 69.3604 148.145 54.3256 208.52 48.598C268.895 42.8704 331.276 64.1102 344.715 73.4174C344.715 73.4174 345.919 72.9401 341.506 70.315C336.893 67.6899 330.875 65.3034 330.875 65.3034C330.875 65.3034 335.288 65.542 344.715 71.031C354.143 76.5199 359.759 81.7701 363.971 86.0658C367.983 90.1228 372.596 96.089 374.401 103.01C376.207 109.692 377.611 119.715 377.611 127.352C377.611 134.989 376.407 140 377.009 138.807C377.611 137.614 382.024 125.92 384.029 114.465C385.835 103.01 386.436 95.8504 385.634 91.5547ZM318.64 36.4269C312.02 33.3245 306.805 32.6086 304.599 32.1313C302.392 31.654 301.389 31.1767 299.183 30.938C296.977 30.6994 299.584 29.9834 297.177 29.5061C294.77 29.0288 291.561 29.0288 287.75 28.5515C283.939 28.0743 280.73 26.4037 276.116 26.4037C271.703 26.4037 263.68 24.4945 258.264 24.2559C252.849 24.0172 247.232 23.7786 242.819 23.5399C238.407 23.3013 234.997 22.3467 230.785 22.3467C226.773 22.3467 221.357 21.8694 225.369 21.1534C227.375 20.6762 234.997 20.4375 238.808 20.4375C242.418 20.4375 250.642 21.1534 253.651 21.3921C256.66 21.6307 292.764 25.6878 298.381 27.597C303.997 29.5061 323.253 35.4724 331.076 38.8134C338.698 42.1545 343.913 46.2115 343.913 46.2115C343.913 46.2115 325.259 39.5294 318.64 36.4269Z" fill="#79A5DB" fill-opacity="0.35"/>
<path opacity="0.75" d="M385.029 89.1679C384.627 87.736 374.197 113.749 368.781 121.385C363.366 129.022 341.101 149.069 329.066 156.467C317.031 163.865 279.723 180.332 276.313 181.763C273.104 183.195 270.897 182.479 268.691 183.434C266.485 184.389 268.892 182.002 266.083 182.957C263.275 183.911 241.612 190.593 237.199 191.787C232.787 192.98 216.54 197.037 210.522 198.23C204.505 199.423 159.975 205.867 143.327 206.106C126.478 206.344 96.9925 204.912 85.7599 203.48C74.5273 202.049 59.6842 198.707 48.6522 196.082C37.6201 193.457 28.5939 186.298 22.9776 181.763C17.3613 177.468 14.5532 171.502 12.1462 165.774C9.93979 160.285 5.52699 144.296 5.52699 134.988C5.52699 134.988 1.71592 143.102 1.11418 157.183C0.512428 171.263 1.71592 196.321 10.1404 206.583C18.5648 216.845 37.219 230.209 63.4953 234.266C89.5709 238.323 118.856 239.278 123.67 239.278C128.484 239.278 143.327 239.039 146.336 239.039C149.344 239.039 151.35 238.8 153.757 238.562C156.164 238.323 155.964 236.891 154.76 236.891C153.557 236.891 153.958 237.13 152.153 237.369C150.347 237.607 149.545 238.084 148.542 237.607C147.539 237.13 146.937 237.13 145.734 237.369C144.53 237.607 143.929 237.369 142.324 237.369C140.719 237.369 141.121 237.369 139.315 237.607C137.51 237.846 136.908 236.414 136.908 236.414C136.908 236.414 138.312 235.937 139.917 235.937C141.522 235.937 149.545 235.937 151.15 235.698C152.554 235.459 154.56 235.459 155.964 235.698C157.368 235.937 158.972 235.698 160.176 235.698C161.379 235.698 161.179 234.027 162.382 234.027C163.586 234.027 162.984 234.505 164.589 234.505C166.193 234.505 168.199 233.789 169.603 233.789C171.007 233.789 173.013 231.402 175.019 231.402C177.025 231.402 178.228 230.686 178.629 231.88C179.031 233.073 179.632 232.834 179.632 232.118C179.632 231.402 179.632 229.732 181.036 229.493C182.441 229.254 184.045 229.254 185.85 228.777C187.656 228.3 191.868 227.345 193.272 227.345C194.676 227.345 195.88 228.061 195.88 228.061C195.88 228.061 191.066 228.539 189.06 229.016C187.054 229.493 184.045 230.448 185.65 230.448C187.254 230.448 189.26 230.448 190.464 230.448C191.667 230.448 192.068 230.925 193.673 230.448C195.278 229.97 195.88 229.254 197.885 229.016C199.891 228.777 200.292 228.061 202.298 228.061C204.304 228.061 205.106 228.061 205.909 228.061C206.711 228.061 208.917 227.823 210.321 227.584C211.726 227.345 211.926 226.152 213.33 225.913C214.734 225.675 218.947 225.197 220.351 224.959C221.755 224.72 223.961 224.004 225.365 223.527C226.769 223.05 229.176 222.334 230.781 222.095C232.386 221.856 231.784 222.572 233.99 222.572C236.197 222.572 236.798 223.527 240.208 221.856C243.618 220.186 243.016 219.947 244.822 218.993C246.627 218.038 250.237 217.083 252.644 216.606C255.051 216.129 256.054 215.413 257.258 215.413C258.461 215.413 259.264 215.413 259.063 214.458C258.862 213.504 260.066 212.549 260.668 213.504C261.269 214.458 262.673 214.22 262.673 214.22C264.88 213.265 267.287 211.833 268.49 211.833C269.694 211.833 270.496 211.356 272.903 210.401C275.31 209.447 275.31 209.447 276.714 209.208C278.118 208.969 277.918 206.344 279.723 205.867C281.528 205.39 284.938 204.674 286.944 203.719C288.95 202.765 290.354 203.003 292.36 202.049C294.365 201.094 294.165 202.287 288.95 203.958C283.735 205.628 283.534 206.583 285.339 206.344C287.144 206.106 289.551 204.435 292.36 203.719C295.168 203.003 295.97 202.526 296.772 201.81C297.575 201.094 296.772 200.139 298.578 199.423C300.383 198.707 303.592 197.037 305.397 196.321C307.203 195.605 310.412 195.128 312.017 194.173C313.621 193.219 315.828 192.741 317.232 191.787C318.636 190.832 320.642 189.639 319.839 189.639C319.037 189.639 316.429 191.071 314.223 192.025C312.017 192.98 310.412 192.741 310.412 192.741C310.412 192.741 312.819 191.309 315.025 190.593C317.232 189.877 317.834 188.923 319.639 188.207C321.444 187.491 322.648 186.298 322.046 186.298C321.444 186.298 318.435 186.775 320.04 185.82C321.645 184.866 323.65 184.15 326.057 182.957C328.464 181.763 331.273 178.661 331.273 178.661C331.273 178.661 331.674 179.854 330.27 181.286C328.866 182.718 327.863 183.673 329.869 182.957C331.874 182.241 330.871 182.957 333.078 181.525C335.284 180.093 338.694 178.184 341.703 176.275C344.712 174.365 345.313 174.365 346.517 173.172C347.72 171.979 348.121 172.456 347.72 171.979C347.319 171.502 346.517 171.024 346.517 171.024C348.723 169.831 349.325 168.399 350.93 167.683C352.534 166.967 354.941 163.149 356.546 161.956C358.151 160.762 360.959 159.092 361.962 157.899C362.965 156.705 363.967 155.751 365.572 154.08C367.177 152.41 369.985 147.875 370.988 146.443C371.991 145.012 373.194 142.864 373.796 141.193C374.398 139.523 377.005 134.988 379.011 128.068C383.023 120.908 388.037 97.2819 385.029 89.1679ZM315.828 172.933C307.002 177.706 294.767 183.911 291.958 185.105C289.351 186.298 278.72 188.923 273.906 191.309C269.092 193.457 255.452 196.798 250.638 198.469C245.825 200.139 216.941 207.537 207.714 208.731C198.487 209.924 172.411 213.504 167.397 213.504C162.583 213.504 158.972 213.265 157.167 213.504C155.362 213.742 152.554 214.458 149.946 214.458C147.339 214.458 146.336 215.174 144.33 215.174C142.123 215.174 140.519 215.174 138.312 215.174C136.106 215.174 76.7337 213.265 66.9052 208.492C65.3005 207.776 102.208 212.072 105.216 212.31C108.225 212.549 132.496 213.981 140.318 212.549C148.141 211.356 170.406 211.594 175.621 210.879C181.036 210.163 217.141 203.719 220.952 203.48C224.763 203.242 242.214 197.037 248.031 195.366C253.647 193.696 276.313 188.207 283.333 186.298C290.354 184.389 300.583 178.184 307.203 175.32C313.621 172.456 336.287 158.853 340.7 155.751C341.101 155.751 324.854 167.922 315.828 172.933Z" fill="#79A5DB" fill-opacity="0.35"/>
</svg>
