<svg width="363" height="141" viewBox="0 0 363 141" fill="none" xmlns="http://www.w3.org/2000/svg">
<g clip-path="url(#clip0_2001_297)">
<rect width="363" height="141" fill="#C7F2C9"/>
<path d="M261.528 111.214C261.397 111.214 261.264 111.207 261.133 111.192C259.321 110.998 257.835 109.733 257.253 107.89C256.551 105.665 257.335 103.217 259.299 101.503C263.121 98.1672 269.68 98.8103 274.02 99.2366C274.767 99.3103 275.314 99.9757 275.241 100.723C275.168 101.471 274.502 102.019 273.754 101.944C269.88 101.564 264.024 100.989 261.088 103.553C259.934 104.56 259.47 105.875 259.847 107.071C260.103 107.88 260.691 108.41 261.423 108.487C261.794 108.527 262.235 108.348 262.547 108.031C262.665 107.91 262.935 107.589 262.887 107.215C262.865 107.038 262.877 106.858 262.924 106.686C262.971 106.513 263.051 106.352 263.161 106.21C263.27 106.069 263.406 105.951 263.561 105.862C263.716 105.774 263.887 105.716 264.065 105.694C264.242 105.671 264.422 105.684 264.594 105.731C264.766 105.778 264.928 105.858 265.069 105.967C265.21 106.077 265.329 106.213 265.417 106.368C265.506 106.523 265.563 106.694 265.586 106.871C265.725 107.965 265.325 109.082 264.489 109.935C263.689 110.751 262.606 111.214 261.528 111.214Z" fill="#EDAA9D"/>
<path d="M340.625 94.9197C338.89 86.7634 333.475 79.9716 326.202 76.3561V65.5511C326.202 64.6362 325.398 63.9248 324.491 64.0444C319.267 64.7349 315.029 68.5451 313.704 73.5409H296.608C281.702 73.5409 269.272 85.7356 269.313 100.641C269.336 109.313 273.447 117.019 279.816 121.949C279.901 125.838 280.333 129.78 280.751 132.784C281.168 135.775 283.724 138 286.745 138C289.765 138 292.322 135.775 292.738 132.784C292.957 131.209 293.18 129.375 293.355 127.428C294.336 127.536 295.33 127.596 296.34 127.596H314.193C314.891 127.596 315.582 127.568 316.266 127.516C316.424 129.233 316.621 130.946 316.857 132.654C317.272 135.659 319.803 137.983 322.836 138C325.871 138.016 328.444 135.786 328.862 132.784C329.256 129.958 329.662 126.304 329.779 122.643C333.848 119.762 337.088 115.786 339.065 111.142C339.161 110.915 339.322 110.722 339.527 110.586C339.733 110.45 339.973 110.378 340.219 110.378H345.485C346.946 110.378 348.13 109.194 348.13 107.733V97.5648C348.13 96.104 346.946 94.9197 345.485 94.9197H340.625Z" fill="#FFD2C0"/>
<path d="M345.478 94.9198H343.979C343.984 94.9874 343.988 95.0541 343.988 95.1223V105.29C343.988 106.751 342.804 107.935 341.343 107.935H335.981C335.764 107.935 335.551 107.999 335.37 108.119C335.188 108.239 335.046 108.41 334.962 108.61C333.059 113.124 329.966 117.012 326.076 119.883C325.941 119.983 325.829 120.112 325.75 120.26C325.671 120.409 325.626 120.574 325.619 120.742C325.48 124.219 325.096 127.655 324.722 130.341C324.304 133.344 321.73 135.573 318.695 135.558C318.467 135.556 318.239 135.541 318.012 135.512C319.117 137.013 320.868 137.99 322.829 138C325.864 138.016 328.437 135.786 328.855 132.784C329.249 129.958 329.655 126.304 329.772 122.643C333.841 119.762 337.081 115.786 339.058 111.142C339.154 110.915 339.315 110.722 339.52 110.586C339.726 110.45 339.966 110.378 340.212 110.378H345.478C346.939 110.378 348.123 109.194 348.123 107.733V97.5648C348.123 96.1047 346.939 94.9198 345.478 94.9198ZM316.268 127.596H296.333C295.324 127.596 294.328 127.536 293.348 127.429C293.186 129.219 292.98 131.004 292.731 132.784C292.314 135.775 289.758 138 286.737 138C284.743 138 282.951 137.029 281.844 135.509C282.093 135.541 282.345 135.558 282.603 135.558C285.624 135.558 288.18 133.333 288.597 130.341C288.846 128.562 289.051 126.776 289.213 124.986C290.194 125.093 291.19 125.153 292.199 125.153C292.199 125.153 309.393 125.134 316.071 125.1C316.125 125.946 316.193 126.782 316.268 127.596L316.268 127.596ZM330.167 93.2991C329.806 93.2992 329.46 93.156 329.205 92.901C328.95 92.6459 328.807 92.3 328.806 91.9392V88.8542C328.806 88.6755 328.842 88.4986 328.91 88.3335C328.978 88.1685 329.079 88.0185 329.205 87.8923C329.331 87.766 329.481 87.6658 329.647 87.5975C329.812 87.5292 329.989 87.4941 330.167 87.4943C330.528 87.4943 330.874 87.6375 331.129 87.8926C331.384 88.1476 331.527 88.4935 331.527 88.8542V91.9392C331.527 92.2998 331.384 92.6457 331.129 92.9007C330.874 93.1557 330.528 93.299 330.167 93.2991Z" fill="#EDAA9D"/>
<path d="M316.245 127.518C316.167 126.684 316.101 125.849 316.046 125.013C315.993 124.171 315.953 123.348 315.928 122.569C315.917 122.216 315.769 121.882 315.515 121.636C315.262 121.39 314.922 121.252 314.569 121.252C314.555 121.252 314.54 121.252 314.526 121.253C314.347 121.259 314.171 121.299 314.008 121.373C313.846 121.446 313.699 121.551 313.576 121.682C313.454 121.812 313.359 121.965 313.296 122.132C313.232 122.299 313.203 122.477 313.209 122.656C313.234 123.463 313.275 124.315 313.331 125.188C313.38 125.952 313.444 126.763 313.52 127.596H314.192C314.883 127.596 315.567 127.569 316.245 127.518ZM279.198 112.442C278.844 112.374 278.477 112.449 278.178 112.651C277.879 112.853 277.673 113.165 277.604 113.519C277.253 115.332 277.083 117.366 277.039 119.479C277.893 120.351 278.805 121.163 279.769 121.912C279.69 117.98 280 115.459 280.275 114.036C280.309 113.86 280.308 113.68 280.272 113.505C280.237 113.33 280.167 113.164 280.067 113.016C279.967 112.868 279.839 112.741 279.689 112.643C279.54 112.544 279.373 112.476 279.198 112.442Z" fill="#EDAA9D"/>
<path d="M309.906 71.2277C309.906 75.2736 307.766 78.821 304.555 80.795H295.373C295.184 80.795 294.994 80.7972 294.805 80.8048C294.205 80.8187 293.609 80.8605 293.02 80.9258C289.689 78.9768 287.453 75.3642 287.453 71.2277C287.453 65.0272 292.48 60 298.681 60C304.88 60 309.907 65.0272 309.907 71.2277H309.906Z" fill="#FFCD34"/>
<path d="M297.846 71.8535C297.809 71.8535 297.74 71.8511 297.641 71.8464C297.542 71.837 297.411 71.8228 297.251 71.8039C297.241 71.9268 297.234 72.071 297.229 72.2365C297.229 72.4019 297.227 72.5863 297.222 72.7896C297.359 72.7944 297.518 72.7991 297.698 72.8038C297.877 72.8038 298.054 72.8038 298.229 72.8038C298.253 72.8038 298.293 72.8015 298.35 72.7967C298.411 72.7873 298.482 72.7778 298.563 72.7684C298.643 72.7589 298.719 72.7494 298.79 72.74C298.865 72.7305 298.932 72.7258 298.988 72.7258C299.239 72.7258 299.44 72.8038 299.591 72.9598C299.747 73.1159 299.825 73.3097 299.825 73.5414C299.825 73.7163 299.801 73.8534 299.754 73.9527C299.712 74.0473 299.634 74.1182 299.52 74.1655C299.407 74.208 299.255 74.234 299.066 74.2435C298.877 74.2529 298.638 74.2577 298.35 74.2577C298.289 74.2577 298.213 74.2577 298.123 74.2577C298.038 74.2577 297.948 74.2577 297.854 74.2577C297.759 74.2529 297.66 74.2506 297.556 74.2506C297.456 74.2458 297.362 74.2411 297.272 74.2364H297.208V75.2292C297.208 75.4846 297.121 75.6997 296.946 75.8746C296.766 76.0543 296.544 76.1441 296.279 76.1441C296.01 76.1441 295.785 76.0543 295.605 75.8746C295.43 75.6997 295.343 75.4846 295.343 75.2292V74.1655C295.092 74.1607 294.875 74.1465 294.691 74.1229C294.511 74.0993 294.36 74.0591 294.237 74.0023C294.114 73.9456 294.022 73.87 293.96 73.7754C293.903 73.6808 293.875 73.5579 293.875 73.4066C293.875 72.896 294.206 72.6407 294.868 72.6407C294.948 72.6407 295.031 72.6431 295.116 72.6478C295.206 72.6525 295.284 72.662 295.35 72.6762L295.386 71.7117L295.322 71.7046C295.071 71.6998 294.861 71.6833 294.691 71.6549C294.525 71.6266 294.39 71.5816 294.286 71.5202C294.187 71.454 294.116 71.3689 294.074 71.2649C294.031 71.1609 294.01 71.0308 294.01 70.8748C294.01 70.3784 294.341 70.1302 295.003 70.1302C295.092 70.1302 295.175 70.1349 295.251 70.1444C295.326 70.1538 295.402 70.1585 295.478 70.1585C295.53 69.4115 295.565 68.7425 295.584 68.1515C295.608 67.5605 295.622 67.0854 295.627 66.7261C295.627 66.4187 295.648 66.1587 295.691 65.9459C295.738 65.7285 295.804 65.5488 295.889 65.407C295.974 65.2651 296.081 65.1587 296.208 65.0878C296.341 65.0169 296.492 64.9744 296.662 64.9602C296.828 64.946 297.05 64.9224 297.329 64.8893C297.608 64.8514 297.953 64.8325 298.364 64.8325C299.291 64.8325 300.161 65.1327 300.974 65.7332C301.877 66.4093 302.329 67.2272 302.329 68.187C302.329 69.3926 301.849 70.3547 300.889 71.0734C300.676 71.2294 300.452 71.3594 300.215 71.4634C299.983 71.5627 299.74 71.6431 299.485 71.7046C299.234 71.7613 298.972 71.8015 298.697 71.8251C298.423 71.844 298.14 71.8535 297.846 71.8535ZM298.201 66.6622C298.05 66.6622 297.915 66.6646 297.797 66.6693C297.683 66.6693 297.586 66.674 297.506 66.6835C297.506 66.7922 297.506 66.9294 297.506 67.0948C297.506 67.2603 297.504 67.4565 297.499 67.6835C297.494 67.9482 297.48 68.3076 297.456 68.7614C297.433 69.2153 297.402 69.7212 297.364 70.2791C297.487 70.298 297.589 70.3122 297.669 70.3217C297.75 70.3311 297.809 70.3358 297.846 70.3358C298.121 70.3358 298.348 70.3169 298.527 70.2791C298.707 70.2413 298.861 70.1916 298.988 70.1302C299.121 70.0687 299.239 69.9978 299.343 69.9174C299.447 69.837 299.56 69.7543 299.683 69.6692C300.203 69.291 300.463 68.7969 300.463 68.187C300.463 67.7851 300.22 67.4282 299.733 67.1161C299.27 66.8135 298.759 66.6622 298.201 66.6622Z" fill="#E69012"/>
<path d="M303.067 60.8889C305.253 62.9373 306.62 65.8486 306.62 69.0803C306.62 75.2803 301.594 80.3073 295.393 80.3073C293.886 80.3092 292.395 80.0067 291.008 79.418C291.623 79.9941 292.3 80.4994 293.028 80.9248C294.619 80.7489 294.694 80.7968 304.555 80.7948C312.135 76.1306 312.136 65.4383 303.067 60.8889Z" fill="#E69012"/>
<path d="M289.695 82.9255C289.398 82.9253 289.109 82.8276 288.872 82.6474C288.636 82.4672 288.465 82.2144 288.385 81.9278C288.338 81.7557 288.324 81.5758 288.346 81.3986C288.368 81.2213 288.424 81.0501 288.512 80.8946C288.6 80.7392 288.718 80.6027 288.859 80.4928C289 80.3828 289.161 80.3017 289.333 80.2541C290.49 79.9337 291.679 79.7048 292.867 79.5734C293.503 79.5033 294.139 79.46 294.758 79.4449C294.962 79.4378 295.166 79.4346 295.37 79.4351H309.758C309.937 79.4351 310.114 79.4703 310.279 79.5387C310.444 79.607 310.594 79.7073 310.72 79.8336C310.846 79.96 310.947 80.11 311.015 80.2751C311.083 80.4401 311.118 80.6171 311.118 80.7957C311.118 80.9743 311.083 81.1512 311.015 81.3162C310.946 81.4812 310.846 81.6311 310.72 81.7574C310.594 81.8837 310.444 81.9839 310.279 82.0523C310.114 82.1206 309.937 82.1558 309.758 82.1558H295.37C295.197 82.1551 295.025 82.1579 294.853 82.1642C294.846 82.1642 294.84 82.1642 294.833 82.1649C294.288 82.1773 293.727 82.2156 293.166 82.2776C292.116 82.3943 291.077 82.5944 290.059 82.8762C289.941 82.9088 289.818 82.9254 289.695 82.9255Z" fill="#EDAA9D"/>
</g>
<defs>
<clipPath id="clip0_2001_297">
<rect width="363" height="141" fill="white"/>
</clipPath>
</defs>
</svg>
