<svg width="696" height="127" viewBox="0 0 696 127" fill="none" xmlns="http://www.w3.org/2000/svg">
<mask id="mask0_2003_98" style="mask-type:alpha" maskUnits="userSpaceOnUse" x="0" y="0" width="696" height="127">
<rect width="696" height="127" fill="#D9D9D9"/>
</mask>
<g mask="url(#mask0_2003_98)">
<g clip-path="url(#clip0_2003_98)">
<rect width="714" height="127" transform="translate(-18 1)" fill="#C7F2C9"/>
<circle cx="630.5" cy="75.5" r="90.5" fill="#D5FBD7"/>
<path d="M548.198 89.7267C547.96 89.7267 547.721 89.7138 547.483 89.6877C544.203 89.3364 541.511 87.045 540.457 83.7078C539.187 79.6794 540.607 75.2481 544.162 72.1449C551.082 66.1048 562.957 67.2692 570.815 68.041C572.169 68.1744 573.16 69.3791 573.026 70.7324C572.894 72.0859 571.688 73.0779 570.335 72.9432C563.32 72.2557 552.718 71.2145 547.401 75.8562C545.311 77.679 544.472 80.061 545.155 82.226C545.618 83.6901 546.684 84.6495 548.008 84.7904C548.681 84.8613 549.478 84.5374 550.042 83.9634C550.256 83.7443 550.745 83.1629 550.659 82.4867C550.618 82.1659 550.641 81.8401 550.726 81.528C550.811 81.2158 550.956 80.9235 551.154 80.6677C551.352 80.4119 551.599 80.1976 551.879 80.0371C552.16 79.8766 552.47 79.773 552.791 79.7322C553.112 79.6913 553.437 79.7139 553.749 79.7989C554.061 79.8838 554.354 80.0294 554.609 80.2273C554.865 80.4253 555.079 80.6716 555.24 80.9523C555.4 81.2331 555.504 81.5427 555.545 81.8635C555.797 83.8451 555.073 85.8668 553.56 87.4114C552.111 88.8894 550.149 89.7267 548.198 89.7267Z" fill="#EDAA9D"/>
<path d="M691.413 60.2244C688.272 45.4568 678.468 33.1597 665.3 26.6136V7.05047C665.3 5.39397 663.843 4.10583 662.201 4.3224C652.744 5.57251 645.069 12.4712 642.671 21.5165H611.717C584.729 21.5165 562.224 43.5959 562.297 70.584C562.339 86.2853 569.783 100.237 581.314 109.163C581.468 116.205 582.25 123.341 583.007 128.78C583.761 134.196 588.39 138.224 593.859 138.224C599.328 138.224 603.956 134.196 604.711 128.78C605.107 125.929 605.511 122.609 605.827 119.083C607.603 119.278 609.404 119.386 611.232 119.386H643.556C644.82 119.386 646.071 119.336 647.31 119.243C647.595 122.351 647.952 125.453 648.38 128.545C649.132 133.986 653.714 138.194 659.205 138.224C664.7 138.253 669.359 134.216 670.116 128.78C670.828 123.664 671.564 117.047 671.775 110.42C679.144 105.204 685.009 98.0042 688.589 89.596C688.763 89.1857 689.054 88.8358 689.426 88.5898C689.797 88.3438 690.233 88.2125 690.679 88.2125H700.213C702.857 88.2125 705.001 86.0684 705.001 83.4235V65.0134C705.001 62.3685 702.857 60.2244 700.212 60.2244H691.413Z" fill="#FFD2C0"/>
<path d="M700.206 60.2247H697.492C697.501 60.3471 697.509 60.468 697.509 60.5914V79.0014C697.509 81.6464 695.366 83.7901 692.721 83.7901H683.012C682.619 83.7896 682.233 83.9052 681.905 84.1225C681.577 84.3397 681.319 84.649 681.166 85.0116C677.721 93.1851 672.12 100.225 665.078 105.423C664.833 105.603 664.63 105.837 664.487 106.106C664.344 106.375 664.263 106.673 664.25 106.978C663.999 113.273 663.303 119.493 662.626 124.358C661.87 129.794 657.209 133.831 651.714 133.802C651.3 133.799 650.888 133.772 650.478 133.72C652.478 136.438 655.648 138.206 659.199 138.225C664.694 138.254 669.353 134.216 670.11 128.781C670.822 123.664 671.558 117.047 671.769 110.42C679.138 105.204 685.003 98.0044 688.583 89.5963C688.757 89.186 689.048 88.836 689.42 88.59C689.791 88.344 690.227 88.2128 690.673 88.2127H700.207C702.851 88.2127 704.995 86.0686 704.995 83.4237V65.0137C704.995 62.3701 702.851 60.2247 700.206 60.2247ZM647.32 119.386H611.226C609.399 119.386 607.597 119.278 605.821 119.085C605.527 122.325 605.155 125.558 604.704 128.781C603.948 134.196 599.322 138.225 593.851 138.225C590.241 138.225 586.996 136.466 584.992 133.714C585.444 133.772 585.9 133.802 586.367 133.802C591.837 133.802 596.464 129.774 597.22 124.358C597.67 121.135 598.042 117.903 598.335 114.662C600.111 114.856 601.914 114.964 603.742 114.964C603.742 114.964 634.872 114.93 646.964 114.869C647.062 116.399 647.184 117.914 647.32 119.387L647.32 119.386ZM672.485 57.2903C671.832 57.2905 671.206 57.0312 670.744 56.5695C670.281 56.1077 670.022 55.4814 670.022 54.8282V49.2425C670.022 48.919 670.085 48.5987 670.209 48.2999C670.333 48.001 670.514 47.7295 670.743 47.5009C670.972 47.2722 671.244 47.0909 671.543 46.9672C671.841 46.8436 672.162 46.7801 672.485 46.7803C673.138 46.7803 673.765 47.0397 674.226 47.5014C674.688 47.9632 674.947 48.5894 674.947 49.2425V54.8282C674.947 55.4811 674.688 56.1073 674.226 56.569C673.764 57.0307 673.138 57.2902 672.485 57.2903Z" fill="#EDAA9D"/>
<path d="M647.274 119.246C647.133 117.736 647.013 116.224 646.914 114.711C646.817 113.185 646.745 111.696 646.7 110.286C646.68 109.647 646.412 109.041 645.953 108.596C645.494 108.151 644.88 107.902 644.24 107.901C644.214 107.901 644.187 107.901 644.161 107.903C643.838 107.913 643.52 107.987 643.225 108.12C642.93 108.253 642.664 108.443 642.443 108.679C642.221 108.914 642.048 109.191 641.934 109.494C641.82 109.797 641.766 110.119 641.777 110.442C641.823 111.903 641.897 113.446 641.998 115.027C642.088 116.41 642.204 117.878 642.341 119.386H643.557C644.808 119.386 646.047 119.337 647.274 119.246ZM580.198 91.95C579.557 91.8261 578.893 91.9619 578.351 92.3276C577.81 92.6933 577.437 93.259 577.313 93.9001C576.677 97.1822 576.368 100.865 576.289 104.692C577.836 106.269 579.487 107.74 581.231 109.096C581.088 101.977 581.649 97.4126 582.148 94.8354C582.21 94.5179 582.208 94.1914 582.143 93.8746C582.078 93.5578 581.952 93.2568 581.771 92.9888C581.59 92.7209 581.358 92.4913 581.088 92.313C580.818 92.1348 580.515 92.0114 580.198 91.95Z" fill="#EDAA9D"/>
<path d="M635.786 17.3285C635.786 24.6539 631.912 31.0768 626.097 34.6509H609.473C609.129 34.6509 608.786 34.6547 608.443 34.6686C607.357 34.6937 606.278 34.7695 605.212 34.8877C599.182 31.3588 595.133 24.8179 595.133 17.3285C595.133 6.10204 604.234 -3 615.462 -3C626.685 -3 635.786 6.10204 635.786 17.3285H635.786Z" fill="#FFCD34"/>
<path d="M613.956 18.4617C613.888 18.4617 613.764 18.4575 613.584 18.4489C613.404 18.4318 613.169 18.4061 612.878 18.3719C612.861 18.5944 612.848 18.8555 612.839 19.1551C612.839 19.4547 612.835 19.7886 612.826 20.1567C613.075 20.1652 613.361 20.1738 613.687 20.1824C614.012 20.1824 614.333 20.1824 614.65 20.1824C614.692 20.1824 614.765 20.1781 614.868 20.1695C614.979 20.1524 615.108 20.1353 615.253 20.1182C615.399 20.101 615.536 20.0839 615.664 20.0668C615.801 20.0497 615.921 20.0411 616.024 20.0411C616.477 20.0411 616.841 20.1824 617.115 20.4649C617.397 20.7473 617.539 21.0983 617.539 21.5178C617.539 21.8345 617.496 22.0827 617.41 22.2625C617.333 22.4337 617.192 22.5621 616.987 22.6477C616.781 22.7248 616.507 22.7718 616.165 22.789C615.822 22.8061 615.39 22.8146 614.868 22.8146C614.757 22.8146 614.62 22.8146 614.457 22.8146C614.303 22.8146 614.14 22.8146 613.969 22.8146C613.798 22.8061 613.618 22.8018 613.43 22.8018C613.25 22.7932 613.079 22.7847 612.916 22.7761H612.801V24.5738C612.801 25.036 612.642 25.4255 612.326 25.7423C612 26.0675 611.598 26.2302 611.119 26.2302C610.631 26.2302 610.224 26.0675 609.899 25.7423C609.582 25.4255 609.424 25.036 609.424 24.5738V22.6477C608.97 22.6392 608.576 22.6135 608.242 22.5707C607.917 22.5279 607.643 22.4551 607.42 22.3524C607.198 22.2497 607.031 22.1127 606.92 21.9415C606.817 21.7703 606.766 21.5477 606.766 21.2738C606.766 20.3493 607.365 19.887 608.563 19.887C608.709 19.887 608.859 19.8913 609.013 19.8999C609.175 19.9084 609.317 19.9256 609.436 19.9512L609.501 18.2049L609.385 18.1921C608.931 18.1835 608.55 18.1536 608.242 18.1022C607.943 18.0509 607.699 17.9695 607.51 17.8583C607.331 17.7384 607.202 17.5843 607.125 17.396C607.048 17.2077 607.01 16.9723 607.01 16.6898C607.01 15.7909 607.609 15.3415 608.807 15.3415C608.97 15.3415 609.12 15.3501 609.257 15.3672C609.394 15.3843 609.531 15.3929 609.668 15.3929C609.762 14.0404 609.826 12.8291 609.86 11.7591C609.903 10.689 609.929 9.82872 609.937 9.17814C609.937 8.62172 609.976 8.15091 610.053 7.7657C610.138 7.37193 610.258 7.04664 610.412 6.78983C610.566 6.53302 610.759 6.34041 610.99 6.21201C611.23 6.08361 611.504 6.00656 611.812 5.98088C612.112 5.9552 612.514 5.9124 613.019 5.85248C613.524 5.784 614.149 5.74976 614.894 5.74976C616.571 5.74976 618.146 6.29333 619.619 7.38049C621.254 8.6046 622.071 10.0855 622.071 11.8233C622.071 14.0061 621.203 15.7481 619.465 17.0493C619.08 17.3318 618.673 17.5672 618.245 17.7555C617.825 17.9353 617.385 18.0808 616.922 18.1921C616.469 18.2948 615.994 18.3676 615.497 18.4104C615.001 18.4446 614.487 18.4617 613.956 18.4617ZM614.598 9.06258C614.324 9.06258 614.08 9.06686 613.866 9.07542C613.661 9.07542 613.485 9.08398 613.34 9.1011C613.34 9.29799 613.34 9.54623 613.34 9.84584C613.34 10.1455 613.336 10.5007 613.327 10.9116C613.319 11.391 613.293 12.0416 613.25 12.8633C613.207 13.6851 613.152 14.6011 613.083 15.6112C613.306 15.6454 613.49 15.6711 613.635 15.6882C613.781 15.7053 613.888 15.7139 613.956 15.7139C614.453 15.7139 614.864 15.6797 615.189 15.6112C615.514 15.5427 615.792 15.4528 616.024 15.3415C616.263 15.2302 616.477 15.1018 616.666 14.9563C616.854 14.8108 617.059 14.661 617.282 14.5069C618.224 13.8221 618.694 12.9275 618.694 11.8233C618.694 11.0956 618.254 10.4493 617.372 9.88436C616.533 9.33651 615.608 9.06258 614.598 9.06258Z" fill="#E69012"/>
<path d="M623.405 -1.39062C627.361 2.31813 629.837 7.58927 629.837 13.4405C629.837 24.666 620.737 33.7678 609.51 33.7678C606.782 33.7711 604.082 33.2235 601.57 32.1577C602.684 33.2006 603.91 34.1157 605.228 34.8857C608.109 34.5673 608.244 34.654 626.099 34.6505C639.823 26.2056 639.824 6.84643 623.405 -1.39062Z" fill="#E69012"/>
<path d="M599.196 38.5081C598.657 38.5078 598.134 38.3309 597.705 38.0047C597.277 37.6784 596.967 37.2208 596.824 36.7017C596.737 36.3901 596.713 36.0645 596.753 35.7436C596.792 35.4226 596.895 35.1126 597.054 34.8312C597.213 34.5498 597.427 34.3025 597.681 34.1035C597.936 33.9045 598.228 33.7577 598.54 33.6714C600.634 33.0913 602.787 32.6768 604.937 32.439C606.089 32.312 607.241 32.2337 608.363 32.2063C608.732 32.1935 609.101 32.1876 609.47 32.1886H635.521C635.844 32.1885 636.165 32.2522 636.463 32.376C636.762 32.4998 637.034 32.6813 637.262 32.9101C637.491 33.1389 637.673 33.4105 637.796 33.7094C637.92 34.0083 637.983 34.3286 637.983 34.6521C637.983 34.9754 637.92 35.2956 637.796 35.5944C637.672 35.8932 637.491 36.1646 637.262 36.3933C637.034 36.622 636.762 36.8034 636.463 36.9271C636.165 37.0509 635.844 37.1146 635.521 37.1146H609.469C609.157 37.1133 608.846 37.1184 608.534 37.1297C608.521 37.1297 608.51 37.1297 608.499 37.131C607.512 37.1536 606.496 37.2229 605.479 37.335C603.578 37.5463 601.697 37.9088 599.854 38.4188C599.64 38.478 599.418 38.508 599.196 38.5081Z" fill="#EDAA9D"/>
</g>
</g>
<defs>
<clipPath id="clip0_2003_98">
<rect width="714" height="127" fill="white" transform="translate(-18 1)"/>
</clipPath>
</defs>
</svg>
