<svg width="91" height="78" viewBox="0 0 91 78" fill="none" xmlns="http://www.w3.org/2000/svg">
<path d="M4.52154 51.2139C4.39019 51.2139 4.25831 51.2067 4.12696 51.1923C2.31774 50.9983 0.833436 49.7327 0.252226 47.8896C-0.448248 45.6646 0.334875 43.2172 2.29553 41.5032C6.11214 38.1672 12.6613 38.8103 16.9952 39.2366C17.7417 39.3103 18.2881 39.9757 18.2145 40.7231C18.1416 41.4707 17.4763 42.0185 16.73 41.9441C12.8613 41.5645 7.01399 40.9894 4.08199 43.553C2.92935 44.5598 2.46633 45.8754 2.84332 47.0712C3.0982 47.8798 3.68617 48.4097 4.41668 48.4875C4.78744 48.5266 5.22753 48.3478 5.53857 48.0307C5.65659 47.9097 5.92605 47.5886 5.87877 47.2152C5.85612 47.0379 5.86856 46.858 5.91539 46.6856C5.96223 46.5132 6.04253 46.3518 6.1517 46.2105C6.26088 46.0692 6.3968 45.9508 6.55168 45.8622C6.70656 45.7735 6.87737 45.7163 7.05434 45.6938C7.23126 45.6712 7.41089 45.6837 7.58298 45.7306C7.75507 45.7776 7.91624 45.858 8.0573 45.9673C8.19835 46.0766 8.31652 46.2126 8.40506 46.3677C8.4936 46.5227 8.55077 46.6937 8.57331 46.8709C8.7123 47.9654 8.3131 49.082 7.47843 49.9351C6.67931 50.7514 5.59758 51.2139 4.52154 51.2139Z" fill="#EDAA9D"/>
<path d="M83.5063 34.9197C81.774 26.7634 76.3668 19.9716 69.1045 16.3561V5.55115C69.1045 4.63624 68.3011 3.92479 67.3957 4.04441C62.1796 4.73486 57.947 8.54506 56.6245 13.5409H39.5531C24.6688 13.5409 12.2568 25.7356 12.297 40.6414C12.3201 49.3135 16.4253 57.0193 22.7851 61.9489C22.8698 65.8385 23.3016 69.7795 23.7189 72.7839C24.1348 75.775 26.6877 78 29.7038 78C32.7198 78 35.2727 75.775 35.6886 72.7839C35.9073 71.209 36.1302 69.3755 36.3045 67.428C37.284 67.5357 38.2769 67.5955 39.2852 67.5955H57.1126C57.8096 67.5955 58.4998 67.5677 59.1829 67.5163C59.34 69.2331 59.5367 70.9461 59.773 72.6538C60.1876 75.6589 62.7147 77.9834 65.7433 78C68.7739 78.016 71.3435 75.7862 71.7608 72.7839C72.1536 69.9582 72.5592 66.3036 72.6758 62.6435C76.7397 59.7622 79.9744 55.7859 81.9489 51.142C82.0449 50.9154 82.2054 50.7221 82.4104 50.5863C82.6154 50.4504 82.8557 50.3779 83.1015 50.3779H88.3594C89.8182 50.3779 91.0005 49.1937 91.0005 47.7328V37.5648C91.0005 36.104 89.8182 34.9197 88.3593 34.9197H83.5063Z" fill="#FFD2C0"/>
<path d="M88.3546 34.9198H86.8578C86.8626 34.9874 86.8674 35.0541 86.8674 35.1223V45.2904C86.8674 46.7512 85.6851 47.9352 84.2264 47.9352H78.8722C78.655 47.935 78.4425 47.9988 78.2614 48.1188C78.0802 48.2388 77.9384 48.4096 77.8537 48.6099C75.954 53.1242 72.8651 57.0124 68.9813 59.8833C68.8457 59.9829 68.7342 60.1118 68.6551 60.2605C68.5761 60.4091 68.5314 60.5737 68.5245 60.7419C68.3862 64.2191 68.0023 67.6546 67.6287 70.3413C67.2115 73.3436 64.6412 75.5733 61.6104 75.5575C61.3825 75.5558 61.1549 75.5407 60.9288 75.5123C62.032 77.0133 63.7802 77.9897 65.7388 78C68.7694 78.016 71.339 75.7862 71.7563 72.784C72.1491 69.9583 72.5547 66.3036 72.6713 62.6435C76.7352 59.7622 79.9699 55.786 81.9444 51.142C82.0404 50.9154 82.2009 50.7222 82.4059 50.5863C82.6109 50.4504 82.8512 50.3779 83.097 50.3779H88.355C89.8137 50.3779 90.996 49.1937 90.996 47.7329V37.5648C90.996 36.1047 89.8135 34.9198 88.3546 34.9198ZM59.1874 67.5955H39.2809C38.2735 67.5955 37.2792 67.5357 36.2997 67.4287C36.1379 69.2186 35.9325 71.0042 35.6838 72.784C35.2672 75.775 32.7155 78 29.6982 78C27.7075 78 25.9177 77.0286 24.8125 75.5087C25.0617 75.5408 25.313 75.5575 25.5706 75.5575C28.5873 75.5575 31.1395 73.3325 31.5561 70.3413C31.8046 68.5615 32.0097 66.7759 32.1713 64.9861C33.151 65.0932 34.1451 65.1531 35.1532 65.1531C35.1532 65.1531 52.3219 65.1342 58.9907 65.1002C59.0447 65.9457 59.1121 66.7821 59.1871 67.5957L59.1874 67.5955ZM73.0663 33.2991C72.706 33.2992 72.3605 33.156 72.1057 32.901C71.8508 32.6459 71.7076 32.3 71.7075 31.9392V28.8542C71.7075 28.6755 71.7426 28.4986 71.8109 28.3335C71.8792 28.1685 71.9793 28.0185 72.1055 27.8923C72.2317 27.766 72.3815 27.6658 72.5463 27.5975C72.7112 27.5292 72.8879 27.4941 73.0663 27.4943C73.4264 27.4943 73.7718 27.6375 74.0265 27.8926C74.2811 28.1476 74.4242 28.4935 74.4242 28.8542V31.9392C74.4241 32.2998 74.281 32.6457 74.0264 32.9007C73.7717 33.1557 73.4264 33.299 73.0663 33.2991Z" fill="#EDAA9D"/>
<path d="M59.165 67.5178C59.0869 66.684 59.0208 65.8491 58.9665 65.0134C58.913 64.1706 58.8734 63.3481 58.8485 62.5693C58.8373 62.2164 58.6896 61.8816 58.4364 61.6358C58.1832 61.39 57.8444 61.2525 57.4918 61.2523C57.4772 61.2523 57.4626 61.2523 57.4481 61.253C57.2697 61.2586 57.0943 61.2994 56.9316 61.3729C56.769 61.4464 56.6225 61.5513 56.5004 61.6815C56.3782 61.8118 56.2829 61.9648 56.2199 62.132C56.1569 62.2991 56.1273 62.4771 56.133 62.6557C56.1587 63.4627 56.1996 64.3146 56.2552 65.1878C56.3045 65.952 56.3685 66.7626 56.444 67.5956H57.1148C57.805 67.5956 58.488 67.5685 59.165 67.5178ZM22.1714 52.4422C21.8178 52.3738 21.4515 52.4488 21.1531 52.6507C20.8547 52.8527 20.6486 53.1651 20.5801 53.5193C20.2294 55.332 20.0593 57.3658 20.0156 59.4795C20.8688 60.3506 21.7794 61.1634 22.7414 61.9122C22.6624 57.9802 22.972 55.4593 23.2469 54.0358C23.2808 53.8605 23.2799 53.6801 23.2442 53.5052C23.2085 53.3302 23.1387 53.1639 23.0389 53.016C22.939 52.868 22.811 52.7411 22.6622 52.6427C22.5134 52.5442 22.3465 52.4761 22.1714 52.4422Z" fill="#EDAA9D"/>
<path d="M52.8271 11.2277C52.8271 15.2736 50.6903 18.821 47.4833 20.795H38.315C38.1255 20.795 37.936 20.7972 37.7471 20.8048C37.1481 20.8187 36.5529 20.8605 35.9649 20.9258C32.6392 18.9768 30.4062 15.3642 30.4062 11.2277C30.4062 5.02716 35.4255 0 41.6179 0C47.8075 0 52.8273 5.02716 52.8273 11.2277H52.8271Z" fill="#FFCD34"/>
<path d="M40.786 11.8535C40.7483 11.8535 40.6798 11.8511 40.5807 11.8464C40.4815 11.837 40.3517 11.8228 40.1912 11.8039C40.1817 11.9268 40.1747 12.071 40.1699 12.2365C40.1699 12.4019 40.1676 12.5863 40.1629 12.7896C40.2998 12.7944 40.4579 12.7991 40.6373 12.8038C40.8167 12.8038 40.9938 12.8038 41.1685 12.8038C41.1921 12.8038 41.2322 12.8015 41.2888 12.7967C41.3502 12.7873 41.421 12.7778 41.5013 12.7684C41.5816 12.7589 41.6571 12.7494 41.7279 12.74C41.8035 12.7305 41.8695 12.7258 41.9262 12.7258C42.1764 12.7258 42.3771 12.8038 42.5281 12.9598C42.6839 13.1159 42.7618 13.3097 42.7618 13.5414C42.7618 13.7163 42.7382 13.8534 42.691 13.9527C42.6485 14.0473 42.5706 14.1182 42.4573 14.1655C42.344 14.208 42.1929 14.234 42.0041 14.2435C41.8153 14.2529 41.5768 14.2577 41.2888 14.2577C41.2275 14.2577 41.1519 14.2577 41.0622 14.2577C40.9773 14.2577 40.8876 14.2577 40.7931 14.2577C40.6987 14.2529 40.5996 14.2506 40.4957 14.2506C40.3966 14.2458 40.3021 14.2411 40.2124 14.2364H40.1487V15.2292C40.1487 15.4846 40.0614 15.6997 39.8867 15.8746C39.7073 16.0543 39.4854 16.1441 39.221 16.1441C38.9519 16.1441 38.7276 16.0543 38.5482 15.8746C38.3736 15.6997 38.2862 15.4846 38.2862 15.2292V14.1655C38.036 14.1607 37.8188 14.1465 37.6347 14.1229C37.4553 14.0993 37.3042 14.0591 37.1815 14.0023C37.0587 13.9456 36.9667 13.87 36.9053 13.7754C36.8486 13.6808 36.8203 13.5579 36.8203 13.4066C36.8203 12.896 37.1508 12.6407 37.8117 12.6407C37.892 12.6407 37.9746 12.6431 38.0596 12.6478C38.1493 12.6525 38.2272 12.662 38.2933 12.6762L38.3287 11.7117L38.265 11.7046C38.0148 11.6998 37.8047 11.6833 37.6347 11.6549C37.4695 11.6266 37.3349 11.5816 37.231 11.5202C37.1319 11.454 37.0611 11.3689 37.0186 11.2649C36.9761 11.1609 36.9549 11.0308 36.9549 10.8748C36.9549 10.3784 37.2853 10.1302 37.9463 10.1302C38.036 10.1302 38.1186 10.1349 38.1942 10.1444C38.2697 10.1538 38.3452 10.1585 38.4208 10.1585C38.4727 9.41152 38.5081 8.74252 38.527 8.15153C38.5506 7.56054 38.5648 7.08538 38.5695 6.72606C38.5695 6.41874 38.5907 6.15871 38.6332 5.94595C38.6804 5.72846 38.7465 5.5488 38.8315 5.40696C38.9165 5.26513 39.0227 5.15875 39.1502 5.08783C39.2824 5.01691 39.4335 4.97436 39.6034 4.96017C39.7686 4.94599 39.9905 4.92235 40.2691 4.88925C40.5476 4.85143 40.8923 4.83252 41.303 4.83252C42.2284 4.83252 43.097 5.13274 43.9091 5.73319C44.8108 6.40929 45.2617 7.22722 45.2617 8.18699C45.2617 9.39261 44.7825 10.3547 43.8241 11.0734C43.6116 11.2294 43.3874 11.3594 43.1513 11.4634C42.92 11.5627 42.6769 11.6431 42.4219 11.7046C42.1717 11.7613 41.9097 11.8015 41.6359 11.8251C41.362 11.844 41.0788 11.8535 40.786 11.8535ZM41.1401 6.66223C40.9891 6.66223 40.8545 6.66459 40.7365 6.66932C40.6232 6.66932 40.5264 6.67405 40.4461 6.68351C40.4461 6.79225 40.4461 6.92936 40.4461 7.09484C40.4461 7.26031 40.4438 7.45652 40.439 7.68346C40.4343 7.94823 40.4202 8.30755 40.3966 8.76143C40.373 9.21531 40.3423 9.7212 40.3045 10.2791C40.4272 10.298 40.5287 10.3122 40.609 10.3217C40.6893 10.3311 40.7483 10.3358 40.786 10.3358C41.0599 10.3358 41.2865 10.3169 41.4659 10.2791C41.6453 10.2413 41.7987 10.1916 41.9262 10.1302C42.0584 10.0687 42.1764 9.99779 42.2803 9.91741C42.3841 9.83704 42.4975 9.7543 42.6202 9.6692C43.1395 9.29096 43.3992 8.79689 43.3992 8.18699C43.3992 7.78511 43.156 7.42816 42.6698 7.11611C42.2071 6.81352 41.6972 6.66223 41.1401 6.66223Z" fill="#E69012"/>
<path d="M46.0028 0.888916C48.1851 2.9373 49.5507 5.84862 49.5507 9.08033C49.5507 15.2803 44.5317 20.3073 38.3399 20.3073C36.8354 20.3092 35.3459 20.0067 33.9609 19.418C34.575 19.9941 35.2516 20.4994 35.9779 20.9248C37.5671 20.7489 37.6416 20.7968 47.4887 20.7948C55.058 16.1306 55.0587 5.43834 46.0028 0.888916Z" fill="#E69012"/>
<path d="M32.6465 22.9255C32.3496 22.9253 32.0608 22.8276 31.8245 22.6474C31.5883 22.4672 31.4175 22.2144 31.3384 21.9278C31.2907 21.7557 31.2774 21.5758 31.2992 21.3986C31.321 21.2213 31.3775 21.0501 31.4653 20.8946C31.5532 20.7392 31.6708 20.6027 31.8114 20.4928C31.952 20.3828 32.1128 20.3017 32.2847 20.2541C33.44 19.9337 34.6273 19.7048 35.8132 19.5734C36.4484 19.5033 37.0836 19.46 37.7024 19.4449C37.9057 19.4378 38.1092 19.4346 38.3127 19.4351H52.6803C52.8587 19.4351 53.0354 19.4703 53.2002 19.5387C53.365 19.607 53.5148 19.7073 53.6409 19.8336C53.767 19.96 53.8671 20.11 53.9353 20.2751C54.0035 20.4401 54.0385 20.6171 54.0384 20.7957C54.0385 20.9743 54.0034 21.1512 53.9351 21.3162C53.8669 21.4812 53.7669 21.6311 53.6408 21.7574C53.5147 21.8837 53.365 21.9839 53.2002 22.0523C53.0355 22.1206 52.8589 22.1558 52.6805 22.1558H38.3125C38.1406 22.1551 37.9686 22.1579 37.7967 22.1642C37.7898 22.1642 37.7836 22.1642 37.7772 22.1649C37.2329 22.1773 36.6727 22.2156 36.1118 22.2776C35.0635 22.3943 34.0262 22.5944 33.0097 22.8762C32.8914 22.9088 32.7692 22.9254 32.6465 22.9255Z" fill="#EDAA9D"/>
</svg>
