<svg width="543" height="215" viewBox="0 0 543 215" fill="none" xmlns="http://www.w3.org/2000/svg">
<g clip-path="url(#clip0_2001_96)">
<rect width="543" height="215" fill="#C7F2C9"/>
<path d="M611.092 187.231C610.99 187.701 610.885 188.168 610.777 188.631C608.203 199.707 604.1 208.481 598.502 213.519C560.851 218.213 358.741 216.761 358.741 216.761C349.336 210.961 342.735 200.833 339.151 188.631C339.015 188.167 338.883 187.701 338.756 187.231C335.047 173.574 335.034 157.487 339.005 142.011C339.124 141.543 339.247 141.076 339.375 140.61C343.662 124.893 352.087 109.904 364.954 98.8537C366.237 97.7514 367.491 96.5958 368.718 95.3903C369.186 94.9304 369.649 94.4643 370.109 93.99C382.098 81.6651 391.683 64.7388 402.916 48.77C403.244 48.3019 403.575 47.8358 403.907 47.3697C413.227 34.2876 423.742 21.9633 437.707 13.4879C438.496 13.0088 439.297 12.5414 440.109 12.0876C445.271 9.20167 450.896 6.83509 457.087 5.13139C488.875 -3.6126 514.327 -1.10934 537.748 12.0876C538.553 12.5421 539.357 13.0088 540.158 13.4879C553.357 21.3858 565.95 32.7131 578.722 47.3697C579.126 47.8331 579.53 48.2998 579.934 48.77C580.481 49.4049 581.027 50.0459 581.574 50.6931C591.344 62.2547 598.87 77.456 604.202 93.99C604.353 94.4561 604.501 94.9222 604.648 95.3903C605.77 98.9685 606.792 102.607 607.71 106.28C607.774 106.534 607.837 106.789 607.9 107.043C607.917 107.115 607.934 107.184 607.951 107.255C608.358 108.914 608.744 110.579 609.11 112.25V112.252C609.998 116.316 610.765 120.409 611.412 124.499C611.763 126.716 612.078 128.932 612.355 131.144V131.146C612.757 134.318 613.085 137.478 613.34 140.611C613.378 141.078 613.414 141.545 613.449 142.011C614.688 158.583 613.886 174.368 611.092 187.231L611.092 187.231Z" fill="#D5FBD7"/>
<path d="M357.243 186.117C357.16 186.269 357.041 186.434 356.858 186.451C356.699 186.466 356.55 186.352 356.487 186.215C356.423 186.078 356.426 185.923 356.434 185.773C356.47 185.108 356.595 184.447 356.805 183.809C356.876 183.595 356.964 183.372 357.147 183.225C358.256 182.334 357.459 185.719 357.243 186.117Z" fill="#7096B4"/>
<path d="M352.221 185.981C352.239 186.078 352.257 186.181 352.225 186.264C352.167 186.416 351.964 186.421 351.818 186.321C351.672 186.221 351.57 186.052 351.474 185.89C351.184 185.398 350.889 184.896 350.728 184.354C350.539 183.717 350.581 182.588 351.317 183.399C351.859 183.997 352.083 185.245 352.221 185.981Z" fill="#7096B4"/>
<path d="M361.324 153.829C362.151 152.665 362.522 151.272 362.742 149.892C362.927 148.735 363.101 147.5 363.077 146.329C363.058 145.38 362.396 144.375 361.377 144.903C360.463 145.376 359.642 146.414 359.053 147.196C357.98 148.615 357.26 150.267 356.986 151.984C356.814 153.064 356.426 155.395 357.961 155.847C359.166 156.202 360.759 154.623 361.324 153.829Z" fill="#C7F2C9"/>
<path d="M354.047 153.138C354.873 154.852 355.408 156.687 355.627 158.554C355.734 159.461 355.755 160.422 355.313 161.236C355.108 161.613 354.77 161.965 354.323 162.035C353.621 162.144 353.042 161.541 352.67 160.977C351.158 158.687 350.469 155.936 350.736 153.26C350.778 152.834 350.851 152.395 351.105 152.039C352.108 150.636 353.601 152.212 354.048 153.138H354.047Z" fill="#C7F2C9"/>
<path d="M363.051 156.966C362.507 158.392 361.721 159.738 360.729 160.937C360.318 161.435 359.858 161.918 359.264 162.217C359.018 162.341 358.678 162.417 358.486 162.229C358.406 162.153 358.371 162.046 358.345 161.943C358.047 160.785 358.565 159.591 359.12 158.518C359.734 157.327 360.457 156.073 361.621 155.268C363.322 154.09 363.549 155.659 363.051 156.966H363.051Z" fill="#C7F2C9"/>
<path d="M355.507 175.059L355.281 175.051C355.284 175 355.5 169.889 356.388 163.764C357.207 158.107 358.783 150.402 361.636 145.823L361.833 145.924C358.998 150.474 357.429 158.151 356.612 163.79C355.726 169.905 355.509 175.008 355.507 175.059V175.059Z" fill="#E0BA89"/>
<path d="M355.153 174.58L354.929 174.549C355.836 169.136 354.526 159.027 352.125 152.914L352.338 152.845C354.749 158.984 356.064 169.14 355.153 174.58Z" fill="#E0BA89"/>
<path d="M356.87 173.623C356.541 171.143 356.818 167.9 357.611 164.946C358.292 162.411 359.685 158.812 362.458 156.066L362.625 156.205C357.577 161.202 356.553 169.526 357.094 173.599L356.87 173.623H356.87Z" fill="#E0BA89"/>
<path d="M350.294 169.275C351.982 168.451 353.843 168.273 353.843 166.402V164.788C353.843 164.617 354.038 164.48 354.269 164.489L356.179 164.563L358.089 164.489C358.32 164.48 358.515 164.617 358.515 164.788V165.998C358.515 166.825 358.961 167.633 359.743 168.223C360.548 168.83 361.75 168.98 362.502 169.583C362.919 169.918 363.189 170.337 363.403 170.765C365.003 173.952 363.096 177.423 362.067 180.562C361.349 182.755 360.63 184.946 359.913 187.139C359.903 187.169 359.892 187.201 359.882 187.232H351.224C350.727 185.161 350.23 183.09 349.734 181.019C349.36 179.463 348.16 174.6 348.116 173.692C348.072 172.785 348.252 171.872 348.662 171.015C348.983 170.345 349.469 169.683 350.269 169.289C350.278 169.285 350.287 169.28 350.295 169.276L350.294 169.275Z" fill="#C7F2C9"/>
<path d="M353.001 167.831C353.413 167.941 353.784 168.044 354.016 168.073C355.392 168.245 356.791 168.413 358.182 168.345C358.721 168.319 359.263 168.252 359.771 168.142C359.807 168.168 359.842 168.196 359.879 168.222C360.212 168.459 360.61 168.625 361.018 168.777C360.02 169.146 358.824 169.332 357.631 169.366C356.075 169.409 354.515 169.211 353.01 168.941C352.754 168.895 352.166 168.761 351.633 168.577C352.168 168.368 352.649 168.144 353.004 167.831H353.001Z" fill="#A3E1A6"/>
<path d="M356.799 166.834C355.737 166.842 354.669 166.762 353.617 166.639C353.625 166.563 353.63 166.484 353.63 166.402V165.844C354.855 165.976 356.094 166.089 357.321 166.061C357.748 166.051 358.175 166.022 358.585 165.971V165.997C358.585 166.239 358.627 166.479 358.705 166.712C358.092 166.79 357.446 166.83 356.8 166.834H356.799Z" fill="#A3E1A6"/>
<path d="M361.708 173.499C361.693 173.868 361.653 174.284 361.344 174.513C361.29 174.554 361.223 174.587 361.154 174.582C361.048 174.574 360.974 174.481 360.93 174.39C360.775 174.075 360.792 173.715 360.785 173.369C360.772 172.766 359.87 170.442 360.637 170.369C361.891 170.248 361.733 172.923 361.709 173.5L361.708 173.499Z" fill="#A3E1A6"/>
<path d="M357.028 172.752C357.029 173.342 357.03 173.932 357.031 174.521C357.031 174.646 357.029 174.777 356.96 174.884C356.825 175.091 356.482 175.104 356.267 174.966C356.052 174.828 355.94 174.59 355.859 174.359C355.56 173.504 355.547 172.564 355.822 171.702C355.96 171.27 356.291 170.77 356.765 171.135C357.114 171.404 357.027 172.378 357.028 172.752H357.028Z" fill="#A3E1A6"/>
<path d="M356.771 184.042C356.771 184.632 356.772 185.221 356.773 185.811C356.773 185.936 356.771 186.067 356.702 186.173C356.567 186.381 356.224 186.393 356.009 186.255C355.794 186.117 355.682 185.88 355.602 185.649C355.303 184.794 355.289 183.854 355.564 182.992C355.702 182.56 356.033 182.06 356.507 182.425C356.856 182.694 356.769 183.668 356.77 184.042H356.771Z" fill="#A3E1A6"/>
<path d="M359.382 174.332C359.34 174.504 359.266 174.697 359.088 174.757C358.932 174.81 358.753 174.73 358.651 174.608C358.55 174.485 358.511 174.33 358.478 174.178C358.334 173.503 358.279 172.811 358.316 172.123C358.329 171.891 358.356 171.648 358.5 171.457C359.37 170.304 359.491 173.883 359.382 174.332Z" fill="#A3E1A6"/>
<path d="M358.443 182.291C358.376 182.456 358.275 182.639 358.09 182.675C357.927 182.707 357.761 182.606 357.679 182.472C357.597 182.338 357.581 182.179 357.571 182.024C357.526 181.337 357.574 180.644 357.712 179.968C357.758 179.739 357.822 179.502 357.991 179.332C359.022 178.299 358.617 181.86 358.443 182.291V182.291Z" fill="#A3E1A6"/>
<path d="M360.501 179.027C360.427 179.189 360.317 179.367 360.13 179.396C359.966 179.421 359.805 179.313 359.729 179.175C359.653 179.038 359.645 178.878 359.642 178.723C359.63 178.035 359.71 177.345 359.88 176.675C359.938 176.449 360.012 176.215 360.19 176.051C361.269 175.063 360.695 178.603 360.5 179.026L360.501 179.027Z" fill="#A3E1A6"/>
<path d="M354.096 174.428C354.064 174.535 354.027 174.647 353.937 174.719C353.771 174.852 353.496 174.78 353.356 174.622C353.216 174.464 353.177 174.252 353.143 174.05C353.038 173.436 352.933 172.81 353.031 172.194C353.146 171.471 353.86 170.332 354.379 171.442C354.761 172.26 354.339 173.623 354.096 174.428L354.096 174.428Z" fill="#A3E1A6"/>
<path d="M354.62 182.457C354.587 182.563 354.55 182.676 354.461 182.747C354.294 182.881 354.019 182.808 353.879 182.65C353.74 182.492 353.701 182.281 353.666 182.079C353.561 181.465 353.457 180.839 353.555 180.223C353.67 179.499 354.383 178.361 354.902 179.47C355.285 180.288 354.862 181.651 354.619 182.456L354.62 182.457Z" fill="#A3E1A6"/>
<path d="M356.682 179.967C356.65 180.074 356.613 180.186 356.523 180.258C356.357 180.391 356.081 180.319 355.942 180.161C355.802 180.003 355.763 179.791 355.729 179.589C355.624 178.975 355.519 178.349 355.617 177.733C355.732 177.01 356.446 175.871 356.965 176.981C357.347 177.799 356.925 179.162 356.681 179.967L356.682 179.967Z" fill="#A3E1A6"/>
<path d="M352.019 171.022C352.192 172.001 352.064 173.025 351.652 173.941C351.624 174.005 351.592 174.069 351.536 174.115C351.406 174.22 351.191 174.171 351.075 174.052C350.959 173.933 350.919 173.769 350.889 173.611C350.773 173.007 350.739 172.391 350.787 171.779C350.832 171.21 351.801 169.793 352.019 171.022Z" fill="#A3E1A6"/>
<path d="M352.516 176.513C352.951 177.42 353.105 178.441 352.957 179.423C352.946 179.492 352.933 179.562 352.892 179.619C352.795 179.751 352.573 179.755 352.428 179.667C352.283 179.58 352.2 179.429 352.127 179.284C351.851 178.728 351.65 178.139 351.53 177.536C351.419 176.975 351.971 175.376 352.515 176.513L352.516 176.513Z" fill="#A3E1A6"/>
<path d="M579.931 48.7699H402.914C403.242 48.3018 403.572 47.8357 403.905 47.3696H578.719C579.123 47.833 579.526 48.2997 579.931 48.7699Z" fill="#C7F2C9"/>
<path d="M540.155 13.4894H437.703C438.492 13.0103 439.293 12.5429 440.105 12.0891H537.745C538.55 12.5436 539.353 13.0103 540.155 13.4894Z" fill="#C7F2C9"/>
<path d="M604.656 95.3911H368.727C369.194 94.9312 369.658 94.4651 370.118 93.9908H604.21C604.361 94.4569 604.509 94.923 604.656 95.3911Z" fill="#C7F2C9"/>
<path d="M613.452 142.012H339.008C339.127 141.544 339.25 141.077 339.378 140.611H613.343C613.381 141.079 613.418 141.546 613.452 142.012Z" fill="#C7F2C9"/>
<path d="M611.101 187.231C610.999 187.702 610.894 188.169 610.786 188.631H339.161C339.025 188.167 338.893 187.701 338.766 187.231H611.101Z" fill="#9DE9A0"/>
<path d="M554.628 32.3154H522.641V47.3705H554.628V32.3154Z" fill="#C7F2C9"/>
<path d="M539.781 34.9228C539.781 34.3959 539.265 33.9688 538.629 33.9688C537.992 33.9688 537.477 34.3959 537.477 34.9228C537.477 35.3424 537.805 35.6984 538.26 35.8255V37.0782H538.998V35.8255C539.453 35.6984 539.781 35.3424 539.781 34.9228Z" fill="#A3E1A6"/>
<path d="M428.125 93.9916V89.7H386.66V93.9916H428.125Z" fill="#C7F2C9"/>
<path d="M418.148 92.9584V90.7333H396.648V92.9584H418.148Z" fill="#A3E1A6"/>
<path d="M431 89.7009V84.1381H396.284V89.7009H431Z" fill="#C7F2C9"/>
<path d="M422.633 88.3624V85.4778H404.632V88.3624H422.633Z" fill="#A3E1A6"/>
<path d="M420.469 84.2357V81.3511H391.245V84.2357H420.469Z" fill="#C7F2C9"/>
<path d="M418.75 83.5428V82.0469H392.957V83.5428H418.75Z" fill="#A3E1A6"/>
<path d="M485.163 82.7742C487.674 83.1002 490.402 83.6989 491.897 85.5584C493.567 87.6345 493.631 90.189 492.57 92.572C497.752 89.0314 501.054 84.2668 502.78 78.5932C503.873 75 504.132 71.2434 504.231 67.5168C504.298 65.0197 504.291 62.4864 503.582 60.0727C502.129 55.1235 497.908 51.2412 493.406 48.1523C490.285 46.0112 486.93 44.1203 483.293 42.8129C479.078 41.2985 474.515 40.5906 469.985 40.7491C467.938 40.8209 465.812 41.0956 464.116 42.1377C463.079 42.7754 462.264 43.6631 461.491 44.557C458.215 48.3477 455.397 52.5458 453.933 57.1765C452.242 62.5308 452.435 68.2911 453.918 73.6954C454.965 77.5087 456.639 81.1601 458.682 84.6187C459.35 85.7497 462.52 89.7373 462.52 89.7373C462.52 89.7373 462.216 87.2949 463.563 85.7087C465.948 82.8993 478.708 81.9364 485.162 82.7735L485.163 82.7742Z" fill="#5C2F1F"/>
<path d="M493.055 104.052C489.36 96.9594 486.781 85.0473 487.324 74.467C487.682 73.8663 468.986 74.4697 469.343 75.0704C469.886 85.65 468.015 96.9594 464.319 104.052C463.126 106.342 465.193 110.043 466.433 112.261C467.873 114.838 469.648 117.25 471.928 119.28C473.441 120.628 476.038 122.554 478.617 123.261V123.301C478.641 123.295 478.663 123.287 478.687 123.281C478.71 123.287 478.733 123.295 478.756 123.301V123.261C481.336 122.554 483.933 120.628 485.446 119.28C487.726 117.25 489.5 114.838 490.94 112.261C492.18 110.044 494.248 106.342 493.054 104.052H493.055Z" fill="#FBAE96"/>
<g style="mix-blend-mode:multiply" opacity="0.28">
<path d="M486.215 84.4043C486.335 84.3284 476.233 82.8598 469.366 81.8723C469.293 83.5958 469.16 85.3111 468.969 86.9971C472.264 88.4459 480.145 90.8657 486.215 84.4043Z" fill="#FBAE96"/>
</g>
<path d="M501.553 52.759C500.899 56.9406 498.271 67.3911 496.642 71.0363C493.335 78.4319 489.046 84.6692 479.762 87.1663C478.431 87.5244 477.048 87.6379 475.701 87.275C468.126 85.231 462.391 78.1319 459.616 71.9753C457.589 67.4799 455.554 62.9723 454.064 58.3013C451.916 51.5685 450.46 45.2656 453.815 38.7187C456.626 33.2359 461.862 28.7761 468.135 26.7013C472.45 25.2744 476.116 26.2161 480.446 26.1846C482.649 26.1682 484.177 25.8395 486.442 26.4108C490.77 27.5015 494.809 29.6952 497.561 32.9557C502.477 38.7802 502.688 45.5027 501.553 52.759Z" fill="#FBAE96"/>
<path d="M503.312 39.066C500.667 32.9121 495.018 27.9342 488.265 25.4645C486.416 24.7879 484.698 25.1166 482.94 24.7305C482.774 24.6943 482.615 24.6492 482.459 24.6006C481.998 23.9289 481.44 23.3678 480.762 22.979C479.176 22.068 472.697 22.6209 468.712 23.8906C450.775 29.6085 448.086 47.2756 447.883 49.828C447.485 54.8291 447.385 59.8541 447.747 64.8572C448.106 69.8241 448.944 74.8415 451.234 79.3649C453.524 83.8882 457.413 87.9052 462.514 89.7374C458.188 81.2804 456.418 71.7601 457.447 62.4837C457.607 61.0411 457.838 59.5875 458.436 58.2433C459.106 56.7364 460.186 55.4646 461.469 54.3357C462.829 53.5272 464.289 52.8329 465.75 52.2206C466.943 51.721 468.161 51.2536 469.373 50.7773C472.218 49.6606 475.034 48.4947 477.444 46.7528C477.709 46.9202 477.979 47.0794 478.25 47.2291C480.232 48.3246 482.379 49.1583 484.453 50.1014C485.66 50.6501 486.842 51.2351 487.953 51.9308C490.33 53.4186 492.335 55.3943 493.772 57.6672C494.411 58.6786 494.98 59.7905 496.027 60.4671C498.056 61.7785 500.744 59.744 501.772 58.1627C505.47 52.4734 505.956 45.2206 503.311 39.0667L503.312 39.066Z" fill="#7B3E29"/>
<path d="M488.422 66.002C488.306 67.2506 489.492 68.2367 490.582 67.0701C491.051 66.5678 491.09 65.6056 490.919 64.9878C490.733 64.3174 489.975 63.8712 489.261 64.2628C488.68 64.5812 488.475 65.428 488.422 66.002Z" fill="#7B3E29"/>
<path d="M477.749 77.5333C476.365 77.5333 474.981 77.357 473.636 77.005C473.576 76.9893 473.542 76.9326 473.559 76.8779C473.575 76.8232 473.639 76.7918 473.699 76.8075C476.306 77.4902 479.065 77.5012 481.678 76.8383C481.738 76.8232 481.8 76.8547 481.818 76.9093C481.834 76.964 481.8 77.0207 481.739 77.0358C480.433 77.3672 479.09 77.5326 477.748 77.5326L477.749 77.5333Z" fill="#A45236"/>
<path d="M476.355 79.5318C476.293 79.5318 476.243 79.4864 476.242 79.4299C476.241 79.3728 476.291 79.3259 476.354 79.3253L478.696 79.2957C478.76 79.2957 478.81 79.3404 478.811 79.3975C478.811 79.4547 478.762 79.5015 478.699 79.5022L476.357 79.5318H476.355Z" fill="#A45236"/>
<path d="M479.079 73.0041C479.069 73.0041 479.059 73.0027 479.049 73.0007C478.28 72.8094 477.541 72.4738 476.911 72.0296C476.717 71.8929 476.501 71.7234 476.366 71.4986C476.05 70.9731 476.259 70.3505 476.443 69.8011L476.463 69.7437C477.062 67.9511 477.16 66.0335 476.747 64.1986C476.734 64.1433 476.774 64.0893 476.835 64.0777C476.896 64.0667 476.955 64.1023 476.968 64.1576C477.389 66.026 477.289 67.9785 476.679 69.8031L476.659 69.8612C476.479 70.397 476.294 70.9505 476.565 71.4002C476.681 71.5922 476.876 71.7439 477.05 71.8676C477.657 72.2954 478.368 72.6187 479.109 72.8025C479.169 72.8175 479.205 72.8736 479.188 72.9283C479.174 72.974 479.128 73.0034 479.079 73.0034V73.0041Z" fill="#A45236"/>
<path d="M493.173 61.6799C493.142 61.3491 492.171 60.8571 491.981 60.7682C491.322 60.4607 490.59 60.2803 489.85 60.2454C489.012 60.2065 488.149 60.4122 487.395 60.7348C486.884 60.9534 485.566 61.6519 486.631 62.1706C486.995 62.3476 487.438 62.2122 487.832 62.0981C489.305 61.6724 490.9 61.5999 492.413 61.891C492.58 61.9232 492.757 61.9594 492.92 61.9129C493.112 61.8576 493.182 61.7756 493.173 61.6792V61.6799Z" fill="#7B3E29"/>
<path d="M468.731 66.002C468.847 67.2506 467.66 68.2367 466.57 67.0701C466.101 66.5678 466.063 65.6056 466.234 64.9878C466.419 64.3174 467.177 63.8712 467.892 64.2628C468.472 64.5812 468.677 65.428 468.731 66.002Z" fill="#7B3E29"/>
<path d="M463.938 61.6799C463.969 61.3491 464.941 60.8571 465.131 60.7682C465.79 60.4607 466.521 60.2803 467.261 60.2454C468.1 60.2065 468.963 60.4122 469.717 60.7348C470.227 60.9534 471.546 61.6519 470.481 62.1706C470.117 62.3476 469.673 62.2122 469.28 62.0981C467.807 61.6724 466.211 61.5999 464.698 61.891C464.531 61.9232 464.355 61.9594 464.191 61.9129C463.999 61.8576 463.929 61.7756 463.938 61.6792V61.6799Z" fill="#7B3E29"/>
<path d="M499.276 58.2737C501.358 57.3675 504.007 58.4316 505.128 60.1305C506.249 61.8294 506.174 63.9322 505.769 65.8771C505.504 67.1503 505.1 68.4282 504.292 69.534C503.484 70.639 502.221 71.5609 500.732 71.8329C499.243 72.1049 497.549 71.6142 496.811 70.5044C496.546 70.106 496.412 69.6535 496.303 69.2025C495.572 66.1812 495.24 60.0321 499.277 58.2737H499.276Z" fill="#FBAE96"/>
<path d="M497.635 68.6827C497.613 68.6827 497.594 68.667 497.593 68.6465C497.468 66.6339 498.155 64.551 499.477 62.932C500.51 61.6671 501.808 60.9782 503.032 61.0411C503.056 61.0424 503.073 61.0602 503.072 61.0814C503.071 61.1026 503.051 61.119 503.028 61.1176C501.325 61.0301 500.025 62.3894 499.545 62.9778C498.234 64.5831 497.553 66.6476 497.677 68.6424C497.679 68.6636 497.66 68.6814 497.637 68.6827C497.636 68.6827 497.636 68.6827 497.635 68.6827Z" fill="#A45236"/>
<path d="M498.191 65.2819C498.176 65.2819 498.162 65.275 498.154 65.2627C498.143 65.2443 498.149 65.221 498.17 65.2108C499.522 64.5062 501.105 64.5021 502.203 65.1999C502.222 65.2122 502.226 65.2361 502.214 65.2532C502.2 65.2702 502.174 65.2744 502.155 65.2627C501.084 64.5814 499.536 64.5875 498.212 65.2771C498.205 65.2805 498.198 65.2819 498.191 65.2819Z" fill="#A45236"/>
<path d="M452.533 59.3255C450.235 59.1308 448.157 60.9629 447.755 62.9092C447.354 64.8555 448.229 66.8039 449.352 68.5007C450.087 69.6113 450.955 70.6828 452.136 71.4653C453.317 72.2471 454.853 72.7145 456.354 72.5006C457.854 72.2867 459.256 71.2931 459.523 70.0199C459.619 69.5627 459.572 69.096 459.502 68.6388C459.033 65.5751 456.992 59.7041 452.533 59.3255Z" fill="#FBAE96"/>
<path d="M458.019 68.642C457.97 68.642 457.926 68.614 457.911 68.5696C457.269 66.6738 455.851 64.9647 454.021 63.8801C453.356 63.4851 451.641 62.6323 450.111 63.2378C450.054 63.2603 449.987 63.2364 449.962 63.1845C449.938 63.1325 449.964 63.0724 450.021 63.0498C451.17 62.5954 452.673 62.8359 454.146 63.7086C456.019 64.8191 457.47 66.5693 458.128 68.5094C458.146 68.5634 458.113 68.6208 458.053 68.6372C458.042 68.6406 458.031 68.642 458.02 68.642H458.019Z" fill="#A45236"/>
<path d="M452.464 66.8651C452.442 66.8651 452.42 66.859 452.4 66.8467C452.349 66.8146 452.336 66.7503 452.372 66.7039C453.15 65.6829 454.664 65.1779 456.229 65.417C456.29 65.4266 456.332 65.4792 456.321 65.5353C456.311 65.5913 456.253 65.6282 456.191 65.6193C454.713 65.3938 453.286 65.8647 452.557 66.8207C452.535 66.8494 452.5 66.8651 452.464 66.8651Z" fill="#A45236"/>
<path d="M494.706 69.9713C495.43 77.8146 494.128 85.7119 492.063 93.3563C499.904 88.5206 505.911 81.1099 508.018 72.7227C508.303 71.5896 508.518 70.4435 508.697 69.2934C510.166 59.8852 509.589 46.287 501.581 35.8168C500.782 34.7712 494.503 35.784 493.424 34.9714C492.223 34.0659 500.049 36.9102 498.491 37.0018C496.933 37.0934 495.432 37.5676 493.993 38.1185C491.78 38.9645 489.656 40.0012 487.658 41.2094C486.964 41.629 486.258 42.0972 485.888 42.7758C485.458 43.5644 485.555 44.4952 485.662 45.3699C485.963 47.8267 486.218 48.8169 487.736 50.8733C489.116 52.7437 490.281 54.7426 491.243 56.8174C493.088 60.7975 494.705 65.612 494.705 69.9727L494.706 69.9713Z" fill="#7B3E29"/>
<path d="M524.811 119.626C519.453 113.024 510.046 111.037 502.262 107.754C498.137 106.014 494.481 104.361 491.675 101.055C490.933 100.18 466.973 98.7607 465.642 101.144C463.638 104.736 458.681 106.014 454.556 107.754C446.771 111.037 438.485 113.678 433.128 120.28C430.307 123.756 427.978 127.62 428.728 131.883C429.321 135.252 431.052 138.352 432.566 141.475C438.135 152.964 446.211 193.028 450.039 213.953C463.96 221.112 497.09 217.138 506.132 214.414C510.099 193.052 518.809 152.701 524.251 141.475C525.765 138.351 527.497 135.252 528.089 131.882C528.84 127.62 527.631 123.101 524.81 119.625L524.811 119.626Z" fill="#FBAE96"/>
<path d="M509.823 110.621C509.823 110.621 482.028 115.207 451.204 109.072C436.93 112.493 427.125 123.138 420.507 136.301C410.73 155.743 438.945 142.331 440.539 172.286C440.592 173.289 442.102 174.695 442.048 174.58C442.829 176.259 442.93 178.553 443.321 180.348C444.224 184.483 445.091 188.626 445.936 192.772C447.371 199.821 448.739 206.882 450.033 213.954C463.954 221.112 497.084 217.139 506.126 214.415C510.093 193.053 518.803 152.702 524.245 141.476C525.759 138.352 527.799 121.726 525.805 119.004C521.47 113.09 509.824 110.62 509.824 110.62L509.823 110.621Z" fill="white"/>
<path d="M526.193 119.654C537.002 132.975 543.519 155.684 549.789 172.448C556.139 189.428 555.739 193.723 553.924 197.76C551.226 203.765 528.162 197.367 523.408 187.72C518.652 178.071 511.644 159.661 508.705 151.358C505.767 143.055 510.042 122.018 526.193 119.653V119.654Z" fill="white"/>
<path d="M467.475 206.4C467.475 206.4 467.193 208.314 466.388 209.901C465.819 211.02 464.989 211.975 463.813 211.975C459.642 211.975 453.203 212.277 451.304 211.975C450.544 211.855 450.456 211.396 450.838 210.6C451.293 209.65 452.418 208.219 453.862 206.306C454.232 205.816 454.623 205.295 455.03 204.742L464.103 205.951L467.476 206.4H467.475Z" fill="#FCC583"/>
<path d="M496.299 205.495C496.193 208.016 495.719 211.975 493.782 211.975C489.61 211.975 483.171 212.276 481.273 211.975C480.513 211.855 480.425 211.396 480.806 210.6C480.89 210.426 480.995 210.237 481.121 210.031C481.859 208.823 483.296 207.06 484.999 204.741L493.15 203.814L496.317 203.454C496.317 203.454 496.348 204.318 496.3 205.494L496.299 205.495Z" fill="#FCC583"/>
<path d="M509.841 184.097C509.841 197.912 493.333 209.112 472.97 209.112C463.726 209.112 455.277 206.805 448.807 202.993C444.663 200.551 441.329 197.493 439.118 194.028C438.604 193.222 433.069 193.824 432.289 193.239C430.877 192.185 431.503 182.691 432.666 181.436C433.068 181.001 436.482 180.359 436.731 179.457C439.938 167.859 454.944 159.083 472.97 159.083C484.895 159.083 495.499 162.923 502.239 168.882C507.007 173.098 509.841 178.373 509.841 184.097Z" fill="#FCC583"/>
<path d="M455.001 168.123C453.852 168.683 452.736 168.775 451.771 168.559C451.69 168.479 451.613 168.398 451.542 168.313C451.528 168.296 451.509 168.282 451.493 168.266C449.195 165.991 448.242 159.585 448.867 158.074C448.938 157.903 449.053 157.793 449.206 157.737C449.526 157.618 450.008 157.732 450.588 158.003C452.739 159.232 455.059 160.752 455.784 161.546C457.089 162.976 458.655 166.34 455.001 168.122V168.123Z" fill="#FCC583"/>
<path d="M508.227 178.399C509.693 178.648 511.741 178.454 512.801 177.678C514.693 176.292 515.44 174.069 515.93 171.954C516.135 170.88 516.634 168.73 515.578 167.931C514.898 167.425 513.857 167.821 513.448 168.456C513.044 169.082 513.077 169.842 513.273 170.533C514.134 173.457 518.074 175.166 521.165 174.131C523.617 173.306 524.186 172.082 523.655 172.794C521.263 175.995 515.443 175.121 513.379 171.927C512.625 170.763 512.193 169.041 513.251 167.915C513.893 167.251 515.093 166.969 515.894 167.574C517.191 168.566 516.815 170.709 516.538 171.995C516.112 173.733 515.678 176.102 514.52 177.568C513.119 179.385 510.635 181.064 508.122 180.535C506.689 180.258 506.366 178.083 508.226 178.4L508.227 178.399Z" fill="#FCC583"/>
<path d="M489.217 163.765C485.334 162.728 480.547 162.021 475.35 161.817C470.084 161.611 465.191 161.954 461.194 162.703C461.018 162.523 460.818 162.431 460.562 162.276C463.917 160.925 469.23 160.285 475.41 160.573C482.384 160.897 486.503 161.889 489.76 163.384C489.601 163.488 489.43 163.608 489.218 163.765H489.217Z" fill="#BD8440"/>
<path d="M449.009 176.354C449.191 175.211 448.86 174.221 448.269 174.143C447.678 174.066 447.051 174.93 446.869 176.073C446.687 177.217 447.018 178.207 447.609 178.284C448.2 178.362 448.826 177.498 449.009 176.354Z" fill="#BD8440"/>
<path d="M436.346 116.194C422.184 126.612 406.952 148.548 396.225 163.337C385.362 178.315 382.989 190.091 390.131 194.76C395.929 198.552 410.229 192.397 417.509 184.151C424.793 175.901 436.691 159.69 441.842 152.328C446.993 144.965 451.317 122.178 436.346 116.194V116.194Z" fill="white"/>
<path d="M451.968 144.999C451.924 145.033 451.879 145.069 451.832 145.107C451.8 145.133 451.767 145.161 451.733 145.189C450.991 145.805 448.29 146.62 447.004 147.991C436.805 158.854 413.182 190.543 405.698 193.776C397.163 197.463 391.193 196.022 388.688 192.064C385.122 186.431 387.615 179.699 394.294 173.004C400.587 166.696 431.947 146.884 440.965 137.092C441.518 136.491 441.987 135.929 442.361 135.409C442.361 135.409 442.362 135.408 442.363 135.407C445.046 131.677 452.61 137.008 453.326 141.532C453.533 142.832 453.173 144.066 451.968 144.999Z" fill="#FBAE96"/>
<path d="M445.611 133.837C444.273 132.866 444.71 131.285 446.462 129.208C448.214 127.131 453.196 121.698 454.409 120.347C455.621 118.995 459.898 115.043 462.01 115.21C463.972 115.365 458.548 122.404 458.036 123.023C457.523 123.643 451.275 130.514 450.022 131.96C448.768 133.406 447.155 134.957 445.612 133.837L445.611 133.837Z" fill="#FBAE96"/>
<path d="M451.025 133.37C449.687 132.399 450.124 130.817 451.876 128.741C453.628 126.664 458.611 121.231 459.822 119.879C461.034 118.527 465.289 114.576 467.424 114.743C469.386 114.896 463.961 121.936 463.449 122.556C462.936 123.176 456.688 130.047 455.435 131.493C454.182 132.939 452.568 134.49 451.025 133.369V133.37Z" fill="#FBAE96"/>
<path d="M469.073 135.66C469.919 136.679 470.877 138.015 471.573 138.436C472.268 138.858 477.14 141.976 473.744 135.921C470.348 129.867 471.189 130.236 469.365 128.034C467.54 125.833 461.645 128.457 456.441 130.643C451.053 132.907 450.359 135.193 451.065 136.273C451.771 137.353 453.877 138.756 457.227 136.487C460.555 134.233 465.78 131.213 466.731 132.57C467.682 133.927 468.348 134.789 469.073 135.66Z" fill="#FBAE96"/>
<path d="M456.619 133.136C455.281 132.165 455.718 130.584 457.47 128.507C459.222 126.43 464.204 120.997 465.417 119.645C466.629 118.294 471.222 114.023 473.018 114.509C474.905 115.02 469.556 121.702 469.044 122.322C468.531 122.942 462.283 129.813 461.03 131.259C459.776 132.705 458.163 134.256 456.62 133.136L456.619 133.136Z" fill="#FBAE96"/>
<path d="M461.714 144.891C462.842 146.191 464.674 146.824 465.543 147.7C466.411 148.576 467.112 150.544 464.091 149.821C461.068 149.098 460.149 148.186 457.685 147.352C455.992 146.78 454.551 147.277 452.547 147.222C450.009 147.153 450.071 145.724 447.751 147.352C444.995 149.286 463.981 128.336 461.76 130.667C459.74 132.786 456.595 136.738 457.246 140.235C457.575 142.002 460.756 143.784 461.715 144.891H461.714Z" fill="#FBAE96"/>
<path d="M459.898 132.64C459.898 132.64 459.877 132.864 459.837 133.255C459.793 133.693 452.758 144.613 451.821 145.106C451.765 145.135 451.71 145.166 451.654 145.196C450.9 145.607 449.514 145.276 448.814 145.783C447.968 146.393 446.907 147.019 446.301 147.486C443.875 149.352 435.479 146.044 438.627 141.544C439.526 140.259 440.338 138.908 441.126 137.544C441.538 136.833 441.942 136.119 442.35 135.409C442.35 135.408 442.351 135.407 442.352 135.406C443.591 133.246 444.858 131.122 446.407 129.24C446.766 128.804 447.138 128.382 447.53 127.975C449.446 125.985 458.143 129.892 459.898 132.64Z" fill="#FBAE96"/>
<path d="M452.745 128.713C452.722 128.713 452.699 128.706 452.678 128.692C452.628 128.658 452.618 128.594 452.655 128.549C452.693 128.501 456.578 123.765 460.614 119.145C460.653 119.101 460.724 119.093 460.773 119.129C460.822 119.164 460.83 119.228 460.791 119.273C456.758 123.891 452.875 128.624 452.836 128.672C452.815 128.699 452.78 128.713 452.746 128.713H452.745Z" fill="#E8825F"/>
<path d="M457.535 129.684C457.512 129.684 457.488 129.677 457.467 129.663C457.418 129.629 457.407 129.566 457.444 129.52C457.487 129.468 461.757 124.276 465.792 119.657C465.832 119.612 465.902 119.605 465.951 119.64C466 119.675 466.009 119.74 465.969 119.784C461.936 124.402 457.668 129.591 457.625 129.643C457.604 129.67 457.569 129.684 457.535 129.684Z" fill="#E8825F"/>
<path d="M554.278 191.873C551.781 185.785 544.481 183.222 534.537 183.605C524.593 183.988 489.043 195.361 477.284 194.129C471.006 193.472 471.803 204.201 478.852 204.908C485.901 205.616 536.28 208.439 544.859 204.839C553.438 201.239 556.032 196.151 554.278 191.873Z" fill="#FBAE96"/>
<path d="M457.896 200.606C457.317 197.401 457.023 194.29 457.642 191.268C459.761 191.469 462.608 191.602 464.574 191.927C467.583 192.438 470.485 193.306 473.483 194.01C475.02 194.366 476.169 193.461 477.588 193.56C479.229 193.675 484.654 193.835 487.718 193.401C489.653 193.127 487.38 197.406 487.989 199.06C488.065 199.263 488.135 199.472 488.115 199.664C488.092 199.892 487.938 200.066 487.789 200.228C486.165 201.991 486.427 205.271 483.6 205.271C479.931 205.271 476.016 205.544 473.121 205.533C468.919 205.552 463.259 205.374 458.701 205.269C457.713 203.532 458.222 202.365 457.896 200.606Z" fill="#FBAE96"/>
<path d="M443.44 189.931C442.8 189.901 442.134 189.875 441.527 190.013C440.92 190.151 440.369 190.492 440.284 190.973C440.253 191.145 440.288 191.336 440.438 191.488C440.616 191.668 440.913 191.754 441.185 191.828C447.627 193.516 452.947 194.176 459.464 195.359C461.809 195.751 460.469 192.519 459.362 191.833C458.411 191.256 457.363 191.243 456.234 191.096C452.215 190.572 448.045 190.149 443.44 189.931H443.44Z" fill="#FBAE96"/>
<path d="M444.319 199.647C443.61 199.501 442.869 199.346 442.204 199.43C441.538 199.515 440.983 199.928 441.169 200.456C441.318 200.876 441.87 201.224 442.39 201.504C445.864 203.374 449.878 204.293 453.649 204.813C456.797 205.237 459.024 205.526 462.329 204.949C462.621 204.896 462.927 204.122 463.069 203.93C463.733 203.012 462.138 201.846 461.027 201.617C459.782 201.365 458.153 201.563 456.859 201.455C452.821 201.131 448.628 200.537 444.318 199.648L444.319 199.647Z" fill="#FBAE96"/>
<path d="M458.315 195.332C458.5 195.902 443.29 192.485 438.59 193.058C438.089 193.119 437.613 193.34 437.352 193.733C436.563 194.919 437.363 197.698 458.016 201.225C459.488 201.507 460.952 201.756 462.407 201.971C460.83 199.744 459.467 197.526 458.316 195.332H458.315Z" fill="#FBAE96"/>
<path d="M457.988 198.36C457.982 198.36 457.978 198.36 457.973 198.359C451.876 197.617 445.18 196.566 437.518 193.931C437.46 193.911 437.431 193.851 437.453 193.799C437.474 193.746 437.54 193.719 437.598 193.739C445.238 196.368 451.919 197.415 458.002 198.156C458.064 198.164 458.108 198.215 458.099 198.271C458.092 198.323 458.043 198.36 457.988 198.36V198.36Z" fill="#E8825F"/>
<path d="M468.762 189.292C467.342 188.839 465.965 188.33 464.505 188.146C463.206 187.982 461.974 187.075 460.973 186.3C460.796 186.164 460.518 186.249 460.42 186.469C459.996 187.43 460.157 188.566 460.719 189.46C461.364 190.488 462.441 191.241 463.553 191.899C464.667 192.56 465.85 193.162 466.867 194.026C467.533 194.59 468.123 195.262 468.861 195.791C469.696 196.388 470.525 196.493 471.483 196.673C472.695 196.901 473.912 197.004 475.118 197.07C476.318 197.16 479.82 197.259 480.164 195.931C480.517 194.562 478.333 193.655 477.274 192.985C474.368 191.189 471.596 190.195 468.761 189.292L468.762 189.292Z" fill="#FBAE96"/>
<path d="M471.26 145.878C473.625 143.733 473.625 140.254 471.26 138.108C468.895 135.962 465.061 135.962 462.696 138.108C460.331 140.254 460.331 143.732 462.696 145.878C465.061 148.024 468.895 148.024 471.26 145.878Z" fill="#FFCA42"/>
<path d="M466.972 146.534C466.789 146.534 466.605 146.526 466.421 146.507C465.091 146.376 463.897 145.783 463.059 144.837C462.22 143.891 461.838 142.705 461.983 141.499C462.128 140.292 462.781 139.209 463.824 138.448C464.866 137.687 466.173 137.341 467.503 137.472C470.249 137.743 472.239 139.99 471.941 142.481C471.797 143.687 471.143 144.771 470.1 145.531C469.203 146.187 468.108 146.534 466.972 146.534H466.972ZM466.953 137.65C465.868 137.65 464.823 137.983 463.966 138.609C462.97 139.335 462.345 140.369 462.208 141.521C462.07 142.673 462.434 143.805 463.235 144.708C464.036 145.612 465.175 146.178 466.445 146.303C467.715 146.429 468.962 146.098 469.958 145.371C470.954 144.645 471.577 143.611 471.716 142.459C472.001 140.081 470.1 137.935 467.478 137.676C467.303 137.659 467.127 137.65 466.953 137.65Z" fill="#D1990A"/>
<path d="M466.932 137.65C466.87 137.65 466.82 137.604 466.82 137.547V136.626C466.82 136.569 466.87 136.524 466.932 136.524C466.993 136.524 467.043 136.569 467.043 136.626V137.547C467.043 137.604 466.993 137.65 466.932 137.65Z" fill="#D1990A"/>
<path d="M466.932 147.454C466.87 147.454 466.82 147.408 466.82 147.352V146.43C466.82 146.374 466.87 146.328 466.932 146.328C466.993 146.328 467.043 146.374 467.043 146.43V147.352C467.043 147.408 466.993 147.454 466.932 147.454Z" fill="#D1990A"/>
<path d="M472.831 142.094H471.816C471.754 142.094 471.703 142.048 471.703 141.991C471.703 141.934 471.754 141.888 471.816 141.888H472.831C472.894 141.888 472.944 141.934 472.944 141.991C472.944 142.048 472.894 142.094 472.831 142.094Z" fill="#D1990A"/>
<path d="M462.019 142.094H461.004C460.941 142.094 460.891 142.048 460.891 141.991C460.891 141.934 460.941 141.888 461.004 141.888H462.019C462.081 141.888 462.132 141.934 462.132 141.991C462.132 142.048 462.081 142.094 462.019 142.094Z" fill="#D1990A"/>
<path d="M470.41 138.952C470.382 138.952 470.352 138.942 470.33 138.922C470.286 138.881 470.286 138.817 470.33 138.777L471.049 138.125C471.093 138.085 471.165 138.085 471.209 138.125C471.252 138.165 471.253 138.23 471.209 138.27L470.49 138.922C470.468 138.942 470.439 138.952 470.41 138.952Z" fill="#D1990A"/>
<path d="M462.809 145.886C462.78 145.886 462.751 145.876 462.729 145.856C462.684 145.815 462.684 145.75 462.729 145.711L463.447 145.059C463.492 145.018 463.563 145.018 463.607 145.059C463.652 145.099 463.652 145.164 463.607 145.204L462.889 145.856C462.867 145.876 462.837 145.886 462.809 145.886Z" fill="#D1990A"/>
<path d="M471.129 145.885C471.1 145.885 471.071 145.874 471.049 145.855L470.33 145.203C470.286 145.162 470.286 145.097 470.33 145.058C470.375 145.017 470.446 145.017 470.49 145.058L471.209 145.71C471.253 145.75 471.253 145.815 471.209 145.855C471.187 145.874 471.157 145.885 471.129 145.885Z" fill="#D1990A"/>
<path d="M463.527 138.952C463.498 138.952 463.469 138.942 463.447 138.922L462.729 138.27C462.684 138.229 462.684 138.164 462.729 138.125C462.773 138.084 462.845 138.084 462.889 138.125L463.607 138.777C463.652 138.817 463.652 138.882 463.607 138.922C463.585 138.942 463.556 138.952 463.527 138.952Z" fill="#D1990A"/>
<path d="M452.696 128.713C451.741 128.713 450.793 128.243 450.416 127.9C450.371 127.86 450.372 127.795 450.416 127.755C450.46 127.715 450.532 127.715 450.576 127.755C450.915 128.063 451.815 128.508 452.697 128.508C452.715 128.508 452.734 128.508 452.753 128.508C452.818 128.508 452.868 128.552 452.869 128.608C452.871 128.665 452.822 128.712 452.759 128.713C452.738 128.713 452.717 128.713 452.696 128.713Z" fill="#E8825F"/>
<path d="M457.493 129.685C456.538 129.685 455.59 129.215 455.213 128.872C455.168 128.832 455.169 128.767 455.213 128.727C455.257 128.687 455.329 128.687 455.372 128.727C455.712 129.035 456.612 129.48 457.493 129.48C457.512 129.48 457.531 129.48 457.55 129.48C457.615 129.48 457.664 129.524 457.666 129.58C457.667 129.637 457.618 129.684 457.556 129.685C457.535 129.685 457.514 129.685 457.493 129.685Z" fill="#E8825F"/>
<path d="M463.535 128.21C463.491 128.21 463.449 128.187 463.431 128.148C463.406 128.096 463.433 128.036 463.491 128.013L465.701 127.153C465.758 127.131 465.825 127.155 465.85 127.207C465.874 127.259 465.847 127.319 465.79 127.341L463.579 128.201C463.565 128.207 463.55 128.209 463.535 128.209V128.21Z" fill="#E8825F"/>
<path d="M452.752 133.719C450.649 133.719 448.664 133.475 447.752 133.344C447.69 133.335 447.648 133.283 447.658 133.227C447.667 133.17 447.725 133.132 447.787 133.141C448.998 133.315 452.11 133.688 454.858 133.418C456.151 133.291 457.937 132.788 459.406 132.139C459.462 132.114 459.53 132.135 459.557 132.186C459.585 132.237 459.561 132.298 459.505 132.323C458.014 132.983 456.2 133.492 454.883 133.622C454.183 133.691 453.462 133.719 452.753 133.719H452.752Z" fill="#E8825F"/>
<path d="M447.48 137.651C447.435 137.651 447.392 137.627 447.375 137.586C447.352 137.533 447.381 137.474 447.439 137.453C451.06 136.175 457.214 135.689 458.046 135.689C458.109 135.689 458.159 135.735 458.159 135.792C458.159 135.849 458.109 135.894 458.046 135.894C457.221 135.894 451.113 136.377 447.521 137.645C447.507 137.649 447.494 137.651 447.48 137.651Z" fill="#E8825F"/>
<path d="M449.831 139.559C449.818 139.559 449.804 139.557 449.79 139.552C449.733 139.532 449.704 139.472 449.726 139.42C450.054 138.656 452.2 136.891 454.031 136.063C454.087 136.038 454.155 136.058 454.182 136.109C454.21 136.159 454.188 136.221 454.132 136.246C452.374 137.041 450.244 138.778 449.937 139.494C449.92 139.534 449.877 139.56 449.832 139.56L449.831 139.559Z" fill="#E8825F"/>
</g>
<defs>
<clipPath id="clip0_2001_96">
<rect width="543" height="215" fill="white"/>
</clipPath>
</defs>
</svg>
