<svg width="457" height="99" viewBox="0 0 457 99" fill="none" xmlns="http://www.w3.org/2000/svg">
<g clip-path="url(#clip0_2006_154)">
<rect width="457" height="99" fill="#C7F2C9"/>
<path d="M487.509 90.2447C487.457 90.4918 487.404 90.7367 487.349 90.9795C486.036 96.7912 483.943 101.395 481.087 104.039C461.882 106.502 358.787 105.74 358.787 105.74C353.99 102.696 350.623 97.3821 348.795 90.9795C348.725 90.736 348.658 90.4914 348.593 90.2447C346.701 83.0786 346.695 74.6373 348.72 66.5166C348.781 66.2713 348.844 66.0264 348.909 65.7819C351.096 57.5346 355.393 49.6696 361.957 43.8711C362.611 43.2927 363.251 42.6863 363.877 42.0538C364.115 41.8124 364.352 41.5679 364.586 41.319C370.702 34.8518 375.591 25.9701 381.321 17.5909C381.488 17.3453 381.657 17.1007 381.826 16.8561C386.58 9.99159 391.944 3.52472 399.067 -0.92255C399.47 -1.17392 399.878 -1.4192 400.292 -1.65731C402.926 -3.17165 405.795 -4.41345 408.953 -5.30743C425.168 -9.89562 438.151 -8.5821 450.097 -1.65731C450.508 -1.41884 450.918 -1.17392 451.327 -0.92255C458.059 3.22171 464.483 9.16539 470.998 16.8561C471.204 17.0993 471.41 17.3442 471.616 17.5909C471.895 17.924 472.173 18.2604 472.452 18.6C477.436 24.6666 481.275 32.6432 483.995 41.319C484.072 41.5636 484.147 41.8081 484.222 42.0538C484.795 43.9313 485.316 45.8405 485.784 47.7679C485.817 47.9013 485.849 48.0347 485.881 48.1685C485.89 48.2058 485.898 48.2424 485.907 48.2796C486.115 49.15 486.311 50.0238 486.498 50.9002V50.9013C486.951 53.0342 487.343 55.1815 487.672 57.3277C487.851 58.4909 488.012 59.6542 488.154 60.8146V60.8157C488.358 62.4799 488.526 64.1381 488.656 65.7822C488.675 66.0275 488.694 66.2724 488.712 66.517C489.344 75.2125 488.934 83.4956 487.509 90.2451L487.509 90.2447Z" fill="#D5FBD7"/>
<path d="M358.028 89.6602C357.986 89.7402 357.925 89.827 357.832 89.8359C357.751 89.8438 357.675 89.7836 357.643 89.7119C357.61 89.6398 357.611 89.5588 357.615 89.4802C357.634 89.131 357.697 88.7842 357.805 88.4496C357.841 88.337 357.886 88.2201 357.979 88.143C358.545 87.6754 358.139 89.4519 358.028 89.6602Z" fill="#7096B4"/>
<path d="M355.463 89.589C355.472 89.6399 355.481 89.6941 355.464 89.7375C355.435 89.8171 355.332 89.8196 355.257 89.7672C355.182 89.7149 355.13 89.6263 355.081 89.5413C354.934 89.2828 354.783 89.0196 354.701 88.7352C354.605 88.401 354.626 87.8086 355.001 88.2342C355.278 88.5477 355.392 89.2028 355.463 89.589Z" fill="#7096B4"/>
<path d="M360.118 72.7177C360.539 72.107 360.729 71.3762 360.841 70.6518C360.935 70.0447 361.024 69.3967 361.012 68.7825C361.002 68.2844 360.665 67.7569 360.145 68.0341C359.678 68.2826 359.26 68.8273 358.959 69.2372C358.412 69.982 358.045 70.849 357.905 71.7498C357.817 72.3164 357.619 73.5396 358.402 73.7766C359.017 73.9631 359.829 73.1347 360.118 72.7177Z" fill="#C7F2C9"/>
<path d="M356.401 72.3553C356.822 73.2547 357.096 74.2175 357.207 75.1972C357.262 75.673 357.273 76.1776 357.047 76.6047C356.943 76.8022 356.77 76.9873 356.542 77.0239C356.184 77.0812 355.889 76.7646 355.699 76.4688C354.928 75.2671 354.576 73.8234 354.712 72.4195C354.734 72.1961 354.771 71.9655 354.901 71.7787C355.412 71.0425 356.174 71.8694 356.402 72.3553H356.401Z" fill="#C7F2C9"/>
<path d="M360.992 74.3644C360.714 75.1125 360.313 75.8185 359.808 76.4479C359.598 76.7093 359.363 76.9628 359.06 77.1195C358.935 77.1844 358.761 77.2246 358.663 77.126C358.623 77.0858 358.605 77.0299 358.591 76.9757C358.439 76.3679 358.704 75.7418 358.987 75.1784C359.3 74.5534 359.669 73.8958 360.262 73.473C361.13 72.8551 361.246 73.6785 360.992 74.3644H360.992Z" fill="#C7F2C9"/>
<path d="M357.147 83.8577L357.031 83.8538C357.032 83.8269 357.143 81.1449 357.596 77.9312C358.014 74.9624 358.817 70.9197 360.273 68.5171L360.373 68.5702C358.927 70.9577 358.127 74.9857 357.71 77.9445C357.258 81.1535 357.148 83.8312 357.147 83.8581V83.8577Z" fill="#E0BA89"/>
<path d="M356.966 83.6064L356.852 83.5902C357.315 80.7502 356.647 75.4455 355.422 72.2379L355.531 72.2017C356.76 75.4229 357.431 80.752 356.966 83.6064Z" fill="#E0BA89"/>
<path d="M357.839 83.1045C357.671 81.8031 357.812 80.1012 358.217 78.5514C358.564 77.221 359.275 75.3327 360.689 73.8918L360.774 73.9646C358.199 76.5867 357.677 80.9543 357.953 83.0916L357.838 83.1045H357.839Z" fill="#E0BA89"/>
<path d="M354.489 80.8227C355.35 80.3903 356.3 80.297 356.3 79.3156V78.4686C356.3 78.3786 356.399 78.3068 356.517 78.3115L357.491 78.3502L358.466 78.3115C358.583 78.3068 358.683 78.3786 358.683 78.4686V79.1033C358.683 79.5375 358.91 79.9614 359.309 80.2709C359.72 80.5893 360.333 80.6678 360.717 80.9844C360.929 81.1602 361.067 81.3803 361.176 81.6045C361.992 83.2769 361.019 85.0982 360.494 86.7456C360.128 87.896 359.762 89.046 359.396 90.1963C359.391 90.2125 359.385 90.229 359.38 90.2451H354.964C354.71 89.1586 354.457 88.072 354.204 86.9855C354.013 86.169 353.401 83.6169 353.378 83.1407C353.356 82.6648 353.448 82.1854 353.657 81.7361C353.821 81.3843 354.069 81.0372 354.476 80.8303C354.481 80.8281 354.486 80.8256 354.49 80.8234L354.489 80.8227Z" fill="#C7F2C9"/>
<path d="M355.87 80.0649C356.08 80.123 356.269 80.1768 356.387 80.1922C357.089 80.2826 357.803 80.3705 358.512 80.335C358.788 80.3213 359.064 80.2862 359.323 80.2281C359.341 80.2421 359.359 80.2564 359.378 80.2701C359.548 80.3945 359.751 80.482 359.959 80.5616C359.45 80.7549 358.84 80.8528 358.232 80.8703C357.438 80.8933 356.642 80.7893 355.874 80.6477C355.744 80.6236 355.444 80.553 355.172 80.4565C355.445 80.3468 355.69 80.2295 355.871 80.0649H355.87Z" fill="#A3E1A6"/>
<path d="M357.807 79.5421C357.265 79.546 356.72 79.5044 356.184 79.4395C356.187 79.3997 356.19 79.3585 356.19 79.3154V79.0225C356.815 79.0917 357.447 79.1508 358.073 79.1361C358.291 79.1311 358.508 79.1157 358.718 79.0892V79.1028C358.718 79.2297 358.739 79.3556 358.779 79.4782C358.466 79.5191 358.137 79.5399 357.807 79.5421H357.807Z" fill="#A3E1A6"/>
<path d="M360.31 83.0396C360.302 83.2329 360.282 83.4512 360.124 83.5717C360.096 83.5929 360.062 83.6105 360.027 83.6079C359.973 83.6036 359.935 83.5545 359.912 83.5068C359.834 83.3419 359.842 83.1529 359.839 82.9714C359.832 82.6548 359.372 81.4356 359.763 81.3969C360.403 81.3334 360.322 82.7373 360.31 83.0399L360.31 83.0396Z" fill="#A3E1A6"/>
<path d="M357.923 82.6474C357.923 82.9568 357.924 83.2663 357.924 83.5758C357.924 83.641 357.923 83.7099 357.888 83.7658C357.819 83.8748 357.644 83.8813 357.534 83.8088C357.425 83.7364 357.368 83.612 357.327 83.4908C357.174 83.0418 357.167 82.5487 357.307 82.0962C357.378 81.8696 357.547 81.6074 357.788 81.7989C357.966 81.9398 357.922 82.4512 357.923 82.6474H357.923Z" fill="#A3E1A6"/>
<path d="M357.794 88.5717C357.794 88.8811 357.795 89.1906 357.795 89.5001C357.795 89.5653 357.794 89.6342 357.759 89.6901C357.69 89.7991 357.515 89.8056 357.406 89.7332C357.296 89.6607 357.239 89.5363 357.198 89.4151C357.045 88.9661 357.038 88.4731 357.179 88.0205C357.249 87.7939 357.418 87.5317 357.66 87.7232C357.837 87.8642 357.793 88.3755 357.794 88.5717H357.794Z" fill="#A3E1A6"/>
<path d="M359.124 83.4762C359.102 83.5666 359.065 83.668 358.974 83.6996C358.894 83.7272 358.803 83.6853 358.751 83.6211C358.7 83.5569 358.679 83.4751 358.663 83.3955C358.589 83.0412 358.561 82.6783 358.58 82.3172C358.587 82.1957 358.6 82.068 358.674 81.968C359.118 81.3626 359.179 83.2406 359.124 83.4762Z" fill="#A3E1A6"/>
<path d="M358.648 87.6529C358.614 87.7393 358.563 87.8354 358.468 87.8544C358.385 87.8713 358.301 87.8178 358.259 87.7476C358.217 87.6773 358.209 87.5937 358.204 87.5127C358.181 87.1519 358.205 86.7887 358.275 86.4337C358.299 86.3139 358.331 86.1891 358.418 86.0998C358.944 85.558 358.737 87.4266 358.648 87.6525V87.6529Z" fill="#A3E1A6"/>
<path d="M359.697 85.94C359.659 86.025 359.603 86.1186 359.507 86.1336C359.424 86.1469 359.342 86.0899 359.303 86.0178C359.264 85.9457 359.26 85.8618 359.258 85.7808C359.253 85.4197 359.293 85.0575 359.38 84.7061C359.409 84.5874 359.447 84.4644 359.538 84.3787C360.089 83.8598 359.795 85.7176 359.696 85.9396L359.697 85.94Z" fill="#A3E1A6"/>
<path d="M356.423 83.5269C356.406 83.5829 356.387 83.6417 356.341 83.6793C356.257 83.7492 356.116 83.7112 356.045 83.6284C355.973 83.5456 355.954 83.4344 355.936 83.3286C355.883 83.0062 355.829 82.6778 355.879 82.3547C355.938 81.9749 356.302 81.3775 356.567 81.9599C356.762 82.3891 356.546 83.1041 356.422 83.5266L356.423 83.5269Z" fill="#A3E1A6"/>
<path d="M356.7 87.7398C356.683 87.7958 356.665 87.8546 356.619 87.8922C356.534 87.9621 356.393 87.9241 356.322 87.8413C356.251 87.7585 356.231 87.6473 356.213 87.5415C356.16 87.2191 356.107 86.8907 356.157 86.5676C356.215 86.1878 356.579 85.5904 356.844 86.1728C357.039 86.602 356.824 87.317 356.7 87.7395L356.7 87.7398Z" fill="#A3E1A6"/>
<path d="M357.747 86.4334C357.73 86.4893 357.711 86.5482 357.666 86.5858C357.581 86.6557 357.44 86.6177 357.369 86.5349C357.298 86.4521 357.278 86.3409 357.26 86.2351C357.207 85.9127 357.154 85.5843 357.204 85.2612C357.262 84.8814 357.626 84.284 357.891 84.8664C358.086 85.2956 357.87 86.0106 357.746 86.4331L357.747 86.4334Z" fill="#A3E1A6"/>
<path d="M355.37 81.7393C355.458 82.2532 355.393 82.7907 355.183 83.2713C355.168 83.3046 355.152 83.3387 355.124 83.3623C355.057 83.4176 354.947 83.3917 354.888 83.3297C354.829 83.2673 354.809 83.1809 354.793 83.0981C354.734 82.7814 354.717 82.458 354.741 82.137C354.764 81.8383 355.259 81.095 355.37 81.7393Z" fill="#A3E1A6"/>
<path d="M355.627 84.6206C355.849 85.0964 355.928 85.6322 355.852 86.1478C355.847 86.1837 355.84 86.2206 355.819 86.2504C355.77 86.32 355.656 86.3217 355.583 86.2758C355.509 86.2299 355.466 86.151 355.429 86.0747C355.288 85.7828 355.186 85.474 355.125 85.1578C355.068 84.863 355.349 84.0242 355.627 84.6209L355.627 84.6206Z" fill="#A3E1A6"/>
<path d="M471.615 17.591H381.32C381.487 17.3453 381.656 17.1008 381.826 16.8562H470.997C471.203 17.0993 471.409 17.3442 471.615 17.591Z" fill="#C7F2C9"/>
<path d="M484.224 42.0541H363.879C364.117 41.8128 364.354 41.5682 364.589 41.3193H483.997C484.074 41.5639 484.149 41.8085 484.224 42.0541Z" fill="#C7F2C9"/>
<path d="M488.714 66.517H348.723C348.783 66.2717 348.846 66.0268 348.912 65.7822H488.658C488.678 66.0275 488.696 66.2724 488.714 66.517Z" fill="#C7F2C9"/>
<path d="M487.513 90.2449C487.461 90.4919 487.408 90.7369 487.353 90.9796H348.799C348.73 90.7361 348.663 90.4916 348.598 90.2449H487.513Z" fill="#9DE9A0"/>
<path d="M458.715 8.95679H442.398V16.8566H458.715V8.95679Z" fill="#C7F2C9"/>
<path d="M451.14 10.3251C451.14 10.0486 450.877 9.82446 450.553 9.82446C450.228 9.82446 449.965 10.0486 449.965 10.3251C449.965 10.5452 450.132 10.7321 450.364 10.7988V11.4561H450.741V10.7988C450.973 10.7321 451.14 10.5452 451.14 10.3251Z" fill="#A3E1A6"/>
<path d="M394.16 41.3198V39.0679H373.009V41.3198H394.16Z" fill="#C7F2C9"/>
<path d="M389.074 40.7777V39.6101H378.107V40.7777H389.074Z" fill="#A3E1A6"/>
<path d="M395.68 39.0686V36.1497H377.972V39.0686H395.68Z" fill="#C7F2C9"/>
<path d="M391.406 38.3662V36.8525H382.224V38.3662H391.406Z" fill="#A3E1A6"/>
<path d="M390.305 36.2009V34.6873H375.398V36.2009H390.305Z" fill="#C7F2C9"/>
<path d="M389.434 35.8374V35.0525H376.277V35.8374H389.434Z" fill="#A3E1A6"/>
<path d="M423.28 35.4337C424.56 35.6048 425.952 35.9189 426.715 36.8946C427.566 37.984 427.599 39.3245 427.058 40.5749C429.701 38.717 431.386 36.2169 432.266 33.2399C432.823 31.3544 432.956 29.3832 433.006 27.4278C433.04 26.1175 433.037 24.7882 432.675 23.5216C431.934 20.9247 429.781 18.8875 427.484 17.2667C425.892 16.1432 424.181 15.151 422.326 14.465C420.176 13.6704 417.848 13.2989 415.538 13.382C414.493 13.4197 413.409 13.5639 412.544 14.1107C412.015 14.4453 411.599 14.9111 411.205 15.3801C409.534 17.3692 408.096 19.5721 407.35 22.0019C406.487 24.8115 406.586 27.8341 407.342 30.6698C407.876 32.6708 408.73 34.5867 409.772 36.4016C410.113 36.995 411.73 39.0874 411.73 39.0874C411.73 39.0874 411.575 37.8058 412.262 36.9735C413.479 35.4993 419.987 34.9941 423.279 35.4334L423.28 35.4337Z" fill="#5C2F1F"/>
<path d="M427.306 46.5987C425.42 42.8772 424.105 36.6266 424.382 31.0748C424.565 30.7596 415.028 31.0763 415.21 31.3915C415.487 36.9429 414.533 42.8772 412.648 46.5987C412.039 47.8007 413.093 49.7425 413.726 50.9065C414.46 52.2587 415.366 53.5242 416.529 54.5896C417.3 55.2967 418.625 56.3072 419.941 56.6784V56.6992C419.953 56.696 419.964 56.692 419.976 56.6888C419.988 56.692 420 56.696 420.012 56.6992V56.6784C421.328 56.3072 422.652 55.2967 423.424 54.5896C424.587 53.5242 425.492 52.2587 426.227 50.9065C426.859 49.7428 427.914 47.8007 427.305 46.5987H427.306Z" fill="#FBAE96"/>
<g style="mix-blend-mode:multiply" opacity="0.28">
<path d="M423.817 36.289C423.878 36.2492 418.725 35.4786 415.222 34.9604C415.185 35.8648 415.117 36.7649 415.02 37.6495C416.7 38.4098 420.72 39.6795 423.817 36.289Z" fill="#FBAE96"/>
</g>
<path d="M431.638 19.684C431.304 21.8782 429.964 27.3618 429.132 29.2746C427.446 33.1553 425.258 36.4282 420.522 37.7385C419.844 37.9264 419.138 37.9859 418.451 37.7955C414.587 36.7229 411.662 32.9979 410.246 29.7673C409.212 27.4085 408.174 25.0432 407.414 22.5922C406.318 19.0593 405.576 15.752 407.287 12.3167C408.721 9.43973 411.392 7.09955 414.592 6.01086C416.793 5.26212 418.663 5.75626 420.871 5.73977C421.995 5.73116 422.774 5.55868 423.93 5.85846C426.137 6.43078 428.198 7.58186 429.601 9.29271C432.109 12.349 432.217 15.8765 431.638 19.684Z" fill="#FBAE96"/>
<path d="M432.535 12.4989C431.186 9.26979 428.304 6.65779 424.86 5.36184C423.917 5.00683 423.041 5.17931 422.144 4.97671C422.059 4.9577 421.978 4.93404 421.898 4.90858C421.663 4.55608 421.378 4.26168 421.033 4.05764C420.224 3.57963 416.919 3.86973 414.886 4.536C405.737 7.53635 404.365 16.8067 404.262 18.146C404.059 20.7702 404.008 23.407 404.192 26.0322C404.375 28.6385 404.803 31.2713 405.971 33.6448C407.139 36.0183 409.123 38.1261 411.725 39.0875C409.518 34.6499 408.615 29.6544 409.14 24.7868C409.222 24.0298 409.34 23.2671 409.645 22.5618C409.986 21.7711 410.537 21.1037 411.191 20.5113C411.885 20.0871 412.63 19.7228 413.375 19.4015C413.984 19.1393 414.605 18.8941 415.223 18.6441C416.675 18.0582 418.111 17.4464 419.34 16.5324C419.476 16.6202 419.613 16.7038 419.751 16.7823C420.762 17.3571 421.858 17.7946 422.916 18.2895C423.531 18.5774 424.134 18.8844 424.701 19.2494C425.914 20.0301 426.936 21.0668 427.669 22.2595C427.995 22.7902 428.285 23.3736 428.819 23.7286C429.854 24.4168 431.225 23.3492 431.75 22.5194C433.636 19.5342 433.884 15.7284 432.535 12.4993L432.535 12.4989Z" fill="#7B3E29"/>
<path d="M424.938 26.6329C424.878 27.2881 425.484 27.8055 426.039 27.1934C426.279 26.9299 426.298 26.425 426.211 26.1008C426.117 25.749 425.73 25.5149 425.366 25.7203C425.069 25.8874 424.965 26.3317 424.938 26.6329Z" fill="#7B3E29"/>
<path d="M419.495 32.6835C418.789 32.6835 418.083 32.591 417.397 32.4063C417.366 32.398 417.349 32.3683 417.358 32.3396C417.366 32.3109 417.398 32.2944 417.429 32.3027C418.759 32.6609 420.166 32.6666 421.499 32.3188C421.53 32.3109 421.562 32.3274 421.57 32.3561C421.579 32.3848 421.561 32.4145 421.53 32.4224C420.864 32.5963 420.179 32.6831 419.495 32.6831L419.495 32.6835Z" fill="#A45236"/>
<path d="M418.78 33.7321C418.749 33.7321 418.723 33.7082 418.723 33.6786C418.722 33.6486 418.748 33.624 418.78 33.6237L419.974 33.6082C420.007 33.6082 420.032 33.6316 420.033 33.6616C420.033 33.6916 420.008 33.7162 419.976 33.7165L418.781 33.7321H418.78Z" fill="#A45236"/>
<path d="M420.174 30.307C420.169 30.307 420.164 30.3063 420.158 30.3053C419.766 30.2049 419.389 30.0288 419.068 29.7957C418.969 29.724 418.859 29.635 418.79 29.5171C418.629 29.2413 418.735 28.9146 418.83 28.6263L418.84 28.5962C419.145 27.6556 419.195 26.6494 418.984 25.6866C418.978 25.6575 418.998 25.6292 419.029 25.6231C419.06 25.6174 419.091 25.636 419.097 25.6651C419.312 26.6455 419.261 27.67 418.95 28.6274L418.94 28.6579C418.848 28.939 418.753 29.2295 418.892 29.4654C418.951 29.5662 419.05 29.6458 419.139 29.7107C419.448 29.9352 419.812 30.1048 420.189 30.2013C420.22 30.2092 420.238 30.2386 420.23 30.2672C420.223 30.2913 420.199 30.3067 420.174 30.3067V30.307Z" fill="#A45236"/>
<path d="M427.364 24.365C427.348 24.1915 426.852 23.9333 426.756 23.8867C426.419 23.7253 426.046 23.6306 425.669 23.6123C425.241 23.5919 424.801 23.6998 424.416 23.8691C424.156 23.9838 423.483 24.3503 424.027 24.6225C424.212 24.7154 424.438 24.6444 424.639 24.5845C425.39 24.3611 426.204 24.3231 426.976 24.4758C427.061 24.4927 427.151 24.5117 427.235 24.4873C427.333 24.4583 427.368 24.4152 427.364 24.3647V24.365Z" fill="#7B3E29"/>
<path d="M414.895 26.6329C414.954 27.2881 414.349 27.8055 413.793 27.1934C413.554 26.9299 413.534 26.425 413.622 26.1008C413.716 25.749 414.103 25.5149 414.467 25.7203C414.764 25.8874 414.868 26.3317 414.895 26.6329Z" fill="#7B3E29"/>
<path d="M412.454 24.365C412.469 24.1915 412.965 23.9333 413.062 23.8867C413.398 23.7253 413.771 23.6306 414.149 23.6123C414.576 23.5919 415.017 23.6998 415.401 23.8691C415.662 23.9838 416.334 24.3503 415.791 24.6225C415.605 24.7154 415.379 24.6444 415.178 24.5845C414.427 24.3611 413.613 24.3231 412.841 24.4758C412.756 24.4927 412.666 24.5117 412.583 24.4873C412.485 24.4583 412.449 24.4152 412.454 24.3647V24.365Z" fill="#7B3E29"/>
<path d="M430.47 22.5778C431.531 22.1023 432.883 22.6606 433.455 23.5521C434.026 24.4435 433.988 25.5469 433.781 26.5675C433.646 27.2355 433.44 27.9061 433.028 28.4863C432.616 29.0662 431.972 29.5499 431.212 29.6926C430.453 29.8353 429.588 29.5779 429.212 28.9955C429.077 28.7865 429.009 28.5491 428.953 28.3124C428.58 26.7271 428.411 23.5004 430.47 22.5778H430.47Z" fill="#FBAE96"/>
<path d="M429.634 28.0397C429.623 28.0397 429.614 28.0314 429.613 28.0207C429.549 26.9646 429.899 25.8716 430.574 25.0221C431.101 24.3584 431.763 23.9969 432.388 24.0299C432.399 24.0306 432.408 24.0399 432.408 24.0511C432.407 24.0622 432.397 24.0708 432.385 24.0701C431.517 24.0242 430.854 24.7374 430.609 25.0462C429.94 25.8885 429.593 26.9718 429.656 28.0185C429.657 28.0297 429.647 28.039 429.636 28.0397C429.635 28.0397 429.635 28.0397 429.634 28.0397Z" fill="#A45236"/>
<path d="M429.916 26.2551C429.909 26.2551 429.902 26.2515 429.897 26.245C429.892 26.2353 429.895 26.2232 429.905 26.2178C430.595 25.8481 431.403 25.8459 431.963 26.212C431.972 26.2185 431.975 26.231 431.968 26.24C431.961 26.249 431.948 26.2511 431.938 26.245C431.392 25.8875 430.602 25.8907 429.927 26.2526C429.923 26.2544 429.92 26.2551 429.916 26.2551Z" fill="#A45236"/>
<path d="M406.628 23.1296C405.456 23.0274 404.396 23.9887 404.191 25.01C403.986 26.0313 404.433 27.0536 405.006 27.944C405.381 28.5267 405.823 29.089 406.426 29.4996C407.028 29.9098 407.811 30.1551 408.577 30.0429C409.343 29.9306 410.058 29.4092 410.194 28.7412C410.243 28.5013 410.219 28.2564 410.183 28.0165C409.944 26.4089 408.903 23.3282 406.628 23.1296Z" fill="#FBAE96"/>
<path d="M409.431 28.0181C409.406 28.0181 409.383 28.0034 409.376 27.9801C409.048 26.9853 408.325 26.0885 407.392 25.5194C407.052 25.3121 406.178 24.8646 405.397 25.1823C405.368 25.1941 405.334 25.1816 405.321 25.1543C405.309 25.1271 405.322 25.0955 405.351 25.0837C405.937 24.8452 406.704 24.9715 407.455 25.4294C408.411 26.0121 409.151 26.9305 409.486 27.9485C409.496 27.9768 409.479 28.007 409.448 28.0156C409.442 28.0174 409.437 28.0181 409.431 28.0181H409.431Z" fill="#A45236"/>
<path d="M406.597 27.0858C406.585 27.0858 406.574 27.0826 406.564 27.0761C406.538 27.0593 406.531 27.0256 406.549 27.0012C406.947 26.4654 407.719 26.2004 408.517 26.3259C408.548 26.331 408.569 26.3586 408.564 26.388C408.559 26.4174 408.529 26.4367 408.498 26.4321C407.743 26.3137 407.016 26.5608 406.644 27.0625C406.633 27.0775 406.615 27.0858 406.597 27.0858Z" fill="#A45236"/>
<path d="M428.141 28.7157C428.51 32.8313 427.846 36.9752 426.792 40.9864C430.792 38.449 433.856 34.5604 434.931 30.1594C435.076 29.5648 435.186 28.9635 435.277 28.36C436.026 23.4232 435.732 16.2879 431.648 10.7939C431.24 10.2453 428.037 10.7767 427.487 10.3503C426.874 9.87521 430.866 11.3677 430.071 11.4157C429.276 11.4638 428.511 11.7126 427.777 12.0017C426.648 12.4456 425.565 12.9896 424.545 13.6236C424.191 13.8438 423.831 14.0894 423.642 14.4455C423.423 14.8593 423.473 15.3477 423.527 15.8067C423.681 17.0958 423.811 17.6154 424.585 18.6944C425.289 19.6759 425.883 20.7248 426.374 21.8135C427.315 23.9019 428.14 26.4282 428.14 28.7164L428.141 28.7157Z" fill="#7B3E29"/>
<path d="M443.497 54.7709C440.765 51.3065 435.966 50.2641 431.996 48.5414C429.891 47.6284 428.026 46.761 426.595 45.0261C426.217 44.5671 413.995 43.8223 413.316 45.0731C412.294 46.9579 409.765 47.6284 407.661 48.5414C403.69 50.2641 399.463 51.6497 396.731 55.1141C395.292 56.9379 394.104 58.9657 394.487 61.2023C394.789 62.9705 395.672 64.5967 396.444 66.2358C399.285 72.2641 403.405 93.2867 405.357 104.267C412.458 108.023 429.357 105.938 433.97 104.509C435.993 93.2996 440.436 72.1261 443.212 66.2355C443.984 64.5963 444.867 62.9701 445.17 61.2019C445.552 58.9654 444.936 56.5943 443.497 54.7705L443.497 54.7709Z" fill="#FBAE96"/>
<path d="M435.861 50.0458C435.861 50.0458 421.683 52.452 405.96 49.2329C398.679 51.028 393.678 56.6138 390.302 63.5207C385.315 73.7227 399.707 66.6849 400.52 82.4031C400.547 82.9295 401.317 83.6668 401.29 83.6066C401.688 84.4876 401.739 85.6914 401.939 86.6331C402.399 88.8033 402.842 90.9771 403.272 93.1527C404.005 96.8515 404.702 100.557 405.363 104.267C412.464 108.024 429.363 105.938 433.975 104.509C435.999 93.3 440.441 72.1266 443.217 66.2359C443.99 64.5968 445.03 55.8726 444.013 54.4447C441.802 51.3414 435.861 50.0455 435.861 50.0455L435.861 50.0458Z" fill="white"/>
<path d="M444.208 54.7853C449.721 61.7753 453.045 73.6914 456.243 82.488C459.483 91.3976 459.279 93.6514 458.353 95.7699C456.976 98.9205 445.212 95.5634 442.787 90.5015C440.361 85.4385 436.786 75.7784 435.287 71.4215C433.788 67.0646 435.969 56.026 444.208 54.7849V54.7853Z" fill="white"/>
<path d="M428.96 99.8286C428.906 101.151 428.664 103.229 427.676 103.229C425.549 103.229 422.264 103.387 421.296 103.229C420.908 103.166 420.863 102.925 421.058 102.507C421.1 102.416 421.154 102.317 421.218 102.209C421.595 101.575 422.327 100.65 423.196 99.433L427.354 98.9468L428.97 98.7578C428.97 98.7578 428.985 99.2111 428.961 99.8282L428.96 99.8286Z" fill="#FCC583"/>
<path d="M435.864 88.6005C435.864 95.8495 427.443 101.726 417.056 101.726C412.341 101.726 408.031 100.516 404.731 98.5153C402.617 97.2344 400.916 95.6293 399.789 93.8113C399.526 93.3885 396.703 93.704 396.305 93.3974C395.585 92.8441 395.904 87.8626 396.498 87.2038C396.702 86.9758 398.444 86.6387 398.571 86.1657C400.207 80.08 407.861 75.4746 417.056 75.4746C423.139 75.4746 428.548 77.4899 431.986 80.6165C434.418 82.8286 435.864 85.597 435.864 88.6005Z" fill="#FCC583"/>
<path d="M407.888 80.2187C407.302 80.5124 406.733 80.5608 406.241 80.4472C406.2 80.4056 406.161 80.3629 406.124 80.3184C406.117 80.3095 406.107 80.3019 406.099 80.2933C404.927 79.0996 404.441 75.7385 404.76 74.9456C404.796 74.8556 404.855 74.7979 404.933 74.7685C405.096 74.7061 405.342 74.766 405.638 74.9083C406.735 75.5531 407.918 76.351 408.288 76.7673C408.954 77.5178 409.752 79.2828 407.888 80.218V80.2187Z" fill="#FCC583"/>
<path d="M435.04 85.6107C435.788 85.7416 436.833 85.6397 437.374 85.2324C438.339 84.5052 438.72 83.3386 438.97 82.2288C439.075 81.6655 439.329 80.5373 438.79 80.1178C438.443 79.8524 437.912 80.06 437.704 80.3935C437.498 80.7216 437.514 81.1208 437.615 81.4833C438.054 83.0177 440.063 83.9142 441.64 83.3713C442.891 82.9385 443.181 82.2959 442.91 82.6695C441.69 84.3492 438.721 83.8909 437.668 82.2145C437.284 81.6038 437.064 80.7005 437.603 80.1095C437.931 79.761 438.543 79.6129 438.951 79.9306C439.613 80.4513 439.421 81.5755 439.28 82.2503C439.063 83.1626 438.841 84.4055 438.251 85.1747C437.536 86.1282 436.269 87.0089 434.987 86.7313C434.256 86.5861 434.091 85.445 435.04 85.6111L435.04 85.6107Z" fill="#FCC583"/>
<path d="M425.351 77.9317C423.37 77.3878 420.928 77.0166 418.277 76.9098C415.591 76.8015 413.095 76.9815 411.057 77.3745C410.967 77.2798 410.865 77.2318 410.734 77.1504C412.446 76.4414 415.155 76.1058 418.308 76.2568C421.865 76.4271 423.967 76.9474 425.628 77.732C425.547 77.7865 425.459 77.8493 425.351 77.9317H425.351Z" fill="#BD8440"/>
<path d="M404.838 84.5375C404.931 83.9376 404.762 83.4182 404.46 83.3775C404.159 83.3368 403.839 83.7902 403.746 84.3902C403.653 84.9902 403.822 85.5095 404.124 85.5502C404.425 85.5909 404.745 85.1375 404.838 84.5375Z" fill="#BD8440"/>
<path d="M398.376 52.97C391.152 58.4367 383.382 69.9472 377.911 77.7071C372.369 85.5664 371.159 91.7457 374.802 94.196C377.76 96.1854 385.054 92.9559 388.767 88.6288C392.483 84.3002 398.552 75.7937 401.179 71.9306C403.807 68.0671 406.012 56.1102 398.376 52.9703V52.97Z" fill="white"/>
<path d="M406.346 68.0845C406.323 68.1024 406.3 68.1214 406.277 68.1411C406.26 68.1551 406.243 68.1695 406.226 68.1842C405.848 68.5076 404.47 68.9354 403.814 69.6548C398.611 75.3546 386.562 91.9829 382.744 93.6794C378.391 95.6137 375.345 94.8577 374.067 92.7808C372.248 89.8249 373.52 86.2928 376.927 82.7796C380.137 79.4698 396.133 69.0738 400.733 63.9356C401.015 63.6204 401.255 63.3252 401.445 63.0527C401.445 63.0523 401.446 63.052 401.446 63.0513C402.815 61.0944 406.673 63.8915 407.039 66.2653C407.144 66.9477 406.96 67.595 406.346 68.0845Z" fill="#FBAE96"/>
<path d="M403.106 62.228C402.424 61.7185 402.647 60.8887 403.541 59.7989C404.434 58.7092 406.976 55.8583 407.594 55.149C408.212 54.4397 410.394 52.3664 411.472 52.4539C412.472 52.5353 409.705 56.2284 409.444 56.5537C409.182 56.8789 405.996 60.4842 405.356 61.243C404.717 62.0018 403.894 62.8158 403.107 62.2277L403.106 62.228Z" fill="#FBAE96"/>
<path d="M405.86 61.9827C405.178 61.4731 405.401 60.6433 406.294 59.5536C407.188 58.4638 409.73 55.613 410.348 54.9037C410.966 54.1944 413.136 52.121 414.225 52.2085C415.226 52.2888 412.459 55.983 412.198 56.3083C411.936 56.6335 408.749 60.2388 408.11 60.9976C407.47 61.7564 406.648 62.5704 405.86 61.9823V61.9827Z" fill="#FBAE96"/>
<path d="M415.072 63.1844C415.504 63.7187 415.992 64.4198 416.347 64.641C416.702 64.8623 419.187 66.4982 417.455 63.3214C415.722 60.1446 416.151 60.3379 415.221 59.1829C414.29 58.0278 411.283 59.4045 408.629 60.5516C405.88 61.7396 405.526 62.9391 405.886 63.5057C406.246 64.0727 407.321 64.8088 409.03 63.6183C410.727 62.4357 413.392 60.8507 413.877 61.5629C414.363 62.275 414.702 62.7272 415.072 63.1844Z" fill="#FBAE96"/>
<path d="M408.72 61.8602C408.037 61.3506 408.26 60.5209 409.154 59.4311C410.047 58.3413 412.589 55.4905 413.207 54.7812C413.826 54.0719 416.169 51.8311 417.085 52.086C418.047 52.3539 415.319 55.8606 415.057 56.1858C414.796 56.5111 411.609 60.1164 410.97 60.8751C410.33 61.6339 409.507 62.4479 408.72 61.8598L408.72 61.8602Z" fill="#FBAE96"/>
<path d="M411.313 68.028C411.888 68.7104 412.823 69.0425 413.266 69.5022C413.709 69.9619 414.067 70.9947 412.525 70.6153C410.984 70.2359 410.515 69.7572 409.258 69.3197C408.395 69.0195 407.66 69.2802 406.637 69.2515C405.342 69.215 405.374 68.4651 404.191 69.3197C402.785 70.3345 412.47 59.3415 411.337 60.5646C410.306 61.6766 408.702 63.75 409.034 65.5853C409.202 66.5123 410.825 67.4475 411.314 68.028H411.313Z" fill="#FBAE96"/>
<path d="M410.389 61.5993C410.389 61.5993 410.379 61.7173 410.358 61.9224C410.336 62.1519 406.747 67.8819 406.269 68.1408C406.241 68.1562 406.213 68.172 406.184 68.1878C405.8 68.4037 405.093 68.2301 404.735 68.4958C404.304 68.816 403.763 69.1445 403.454 69.3894C402.216 70.3687 397.933 68.6328 399.539 66.2715C399.998 65.5973 400.412 64.8884 400.814 64.1726C401.024 63.7997 401.23 63.4253 401.438 63.0524C401.438 63.052 401.439 63.0516 401.439 63.0509C402.071 61.9178 402.718 60.8029 403.508 59.8153C403.691 59.5869 403.881 59.3653 404.081 59.1519C405.058 58.1077 409.494 60.1578 410.389 61.5993Z" fill="#FBAE96"/>
<path d="M406.741 59.5387C406.729 59.5387 406.717 59.5351 406.707 59.528C406.681 59.51 406.676 59.4767 406.695 59.4527C406.714 59.4279 408.696 56.9425 410.755 54.5184C410.775 54.4951 410.811 54.4912 410.836 54.5098C410.861 54.5281 410.865 54.5622 410.845 54.5855C408.788 57.0085 406.807 59.4925 406.787 59.5172C406.776 59.5316 406.759 59.5387 406.741 59.5387H406.741Z" fill="#E8825F"/>
<path d="M409.183 60.0486C409.171 60.0486 409.159 60.045 409.148 60.0379C409.123 60.0199 409.117 59.9866 409.136 59.9626C409.158 59.9353 411.336 57.2111 413.395 54.787C413.415 54.7637 413.451 54.7597 413.476 54.7784C413.501 54.7967 413.505 54.8307 413.485 54.854C411.428 57.2771 409.25 59.9999 409.229 60.0271C409.218 60.0415 409.2 60.0486 409.183 60.0486Z" fill="#E8825F"/>
<path d="M458.533 92.6809C457.259 89.4862 453.536 88.1414 448.463 88.3422C443.391 88.5431 425.257 94.5108 419.259 93.8646C416.057 93.5196 416.463 99.1495 420.059 99.5207C423.655 99.8918 449.352 101.373 453.728 99.4841C458.104 97.595 459.428 94.9256 458.533 92.6809Z" fill="#FBAE96"/>
<path d="M409.364 97.2631C409.069 95.5816 408.919 93.9493 409.234 92.3633C410.316 92.4691 411.768 92.5386 412.771 92.7093C414.306 92.9775 415.785 93.4326 417.315 93.8023C418.099 93.9891 418.685 93.514 419.409 93.566C420.246 93.6266 423.013 93.7102 424.576 93.4828C425.563 93.339 424.403 95.5842 424.714 96.452C424.753 96.5588 424.789 96.6685 424.779 96.769C424.767 96.8887 424.689 96.9798 424.612 97.0648C423.784 97.9903 423.918 99.7112 422.476 99.7112C420.604 99.7112 418.607 99.8546 417.131 99.8486C414.987 99.8586 412.1 99.765 409.775 99.7101C409.271 98.7986 409.531 98.1865 409.364 97.2631Z" fill="#FBAE96"/>
<path d="M401.987 91.6621C401.66 91.6463 401.32 91.6323 401.011 91.7048C400.701 91.7776 400.42 91.9561 400.376 92.2089C400.361 92.2989 400.378 92.3994 400.455 92.479C400.546 92.5733 400.697 92.6185 400.836 92.6572C404.122 93.5433 406.836 93.8893 410.16 94.51C411.356 94.7159 410.673 93.0197 410.108 92.6601C409.623 92.357 409.088 92.3506 408.513 92.2735C406.462 91.9981 404.336 91.7765 401.986 91.6621H401.987Z" fill="#FBAE96"/>
<path d="M402.438 96.7603C402.076 96.6835 401.698 96.6021 401.359 96.6462C401.019 96.6907 400.736 96.9077 400.831 97.1845C400.907 97.405 401.188 97.5876 401.454 97.7346C403.226 98.7157 405.273 99.198 407.197 99.4709C408.803 99.6936 409.939 99.8449 411.625 99.5422C411.773 99.5146 411.93 99.1083 412.002 99.0076C412.341 98.526 411.527 97.9142 410.96 97.7941C410.325 97.6614 409.495 97.7654 408.834 97.7091C406.774 97.5388 404.636 97.2272 402.437 96.7606L402.438 96.7603Z" fill="#FBAE96"/>
<path d="M409.574 94.496C409.669 94.7951 401.91 93.0021 399.512 93.303C399.257 93.3349 399.014 93.4511 398.881 93.6569C398.478 94.2794 398.886 95.7378 409.422 97.5882C410.172 97.7363 410.919 97.8668 411.661 97.9797C410.857 96.8114 410.162 95.6475 409.574 94.496H409.574Z" fill="#FBAE96"/>
<path d="M409.404 96.0849C409.402 96.0849 409.399 96.0849 409.397 96.0845C406.287 95.6951 402.871 95.1439 398.963 93.7608C398.933 93.7504 398.918 93.7192 398.929 93.6916C398.941 93.664 398.974 93.65 399.004 93.6604C402.901 95.0396 406.309 95.5893 409.412 95.978C409.443 95.982 409.465 96.0088 409.461 96.0386C409.457 96.0655 409.432 96.0852 409.404 96.0852V96.0849Z" fill="#E8825F"/>
<path d="M414.905 91.3265C414.181 91.0891 413.478 90.8219 412.734 90.7251C412.071 90.639 411.442 90.1636 410.932 89.7569C410.842 89.6855 410.7 89.7297 410.65 89.8455C410.433 90.3497 410.516 90.9456 410.802 91.415C411.131 91.954 411.681 92.3492 412.248 92.6949C412.816 93.0413 413.42 93.3575 413.939 93.8104C414.278 94.1066 414.579 94.4591 414.956 94.737C415.382 95.0501 415.805 95.105 416.293 95.1996C416.911 95.319 417.532 95.3732 418.147 95.408C418.759 95.4553 420.546 95.5069 420.721 94.8102C420.901 94.0919 419.787 93.6161 419.247 93.2647C417.765 92.3219 416.351 91.8005 414.905 91.3268L414.905 91.3265Z" fill="#FBAE96"/>
<path d="M416.174 68.546C417.38 67.4201 417.38 65.5946 416.174 64.4687C414.967 63.3428 413.012 63.3428 411.805 64.4687C410.599 65.5946 410.599 67.4201 411.805 68.546C413.012 69.6719 414.967 69.6719 416.174 68.546Z" fill="#FFCA42"/>
<path d="M413.99 68.8904C413.896 68.8904 413.803 68.8858 413.709 68.8761C413.03 68.8072 412.421 68.496 411.994 67.9997C411.566 67.5034 411.371 66.8812 411.445 66.248C411.519 65.6147 411.852 65.0463 412.384 64.6472C412.916 64.2481 413.582 64.0663 414.261 64.1351C415.661 64.2771 416.677 65.4562 416.524 66.7632C416.451 67.3965 416.117 67.9649 415.585 68.364C415.128 68.7079 414.569 68.8904 413.99 68.8904H413.99ZM413.98 64.2287C413.427 64.2287 412.894 64.403 412.456 64.7315C411.948 65.1126 411.63 65.6552 411.559 66.2598C411.489 66.8644 411.675 67.4582 412.084 67.9323C412.492 68.4063 413.073 68.7032 413.721 68.7692C414.369 68.8348 415.005 68.6613 415.513 68.2801C416.021 67.8989 416.339 67.3564 416.41 66.7518C416.555 65.5039 415.585 64.3779 414.248 64.2423C414.159 64.2334 414.069 64.2287 413.98 64.2287Z" fill="#D1990A"/>
<path d="M413.963 64.2284C413.932 64.2284 413.906 64.2044 413.906 64.1746V63.6912C413.906 63.6615 413.932 63.6375 413.963 63.6375C413.994 63.6375 414.02 63.6615 414.02 63.6912V64.1746C414.02 64.2044 413.994 64.2284 413.963 64.2284Z" fill="#D1990A"/>
<path d="M413.963 69.3729C413.932 69.3729 413.906 69.3489 413.906 69.3192V68.8358C413.906 68.806 413.932 68.782 413.963 68.782C413.994 68.782 414.02 68.806 414.02 68.8358V69.3192C414.02 69.3489 413.994 69.3729 413.963 69.3729Z" fill="#D1990A"/>
<path d="M416.978 66.5605H416.46C416.428 66.5605 416.402 66.5363 416.402 66.5063C416.402 66.4764 416.428 66.4521 416.46 66.4521H416.978C417.01 66.4521 417.036 66.4764 417.036 66.5063C417.036 66.5363 417.01 66.5605 416.978 66.5605Z" fill="#D1990A"/>
<path d="M411.454 66.5605H410.937C410.905 66.5605 410.879 66.5363 410.879 66.5063C410.879 66.4764 410.905 66.4521 410.937 66.4521H411.454C411.486 66.4521 411.512 66.4764 411.512 66.5063C411.512 66.5363 411.486 66.5605 411.454 66.5605Z" fill="#D1990A"/>
<path d="M415.73 64.9111C415.715 64.9111 415.7 64.9057 415.689 64.8953C415.666 64.8741 415.666 64.8401 415.689 64.8193L416.055 64.4775C416.078 64.4564 416.114 64.4564 416.136 64.4775C416.159 64.4987 416.159 64.5328 416.136 64.5536L415.77 64.8953C415.759 64.9057 415.744 64.9111 415.73 64.9111Z" fill="#D1990A"/>
<path d="M411.843 68.5497C411.828 68.5497 411.813 68.5444 411.802 68.534C411.779 68.5128 411.779 68.4787 411.802 68.4579L412.168 68.1162C412.191 68.0951 412.227 68.0951 412.25 68.1162C412.272 68.1374 412.272 68.1714 412.25 68.1922L411.884 68.534C411.872 68.5444 411.857 68.5497 411.843 68.5497Z" fill="#D1990A"/>
<path d="M416.096 68.549C416.081 68.549 416.066 68.5436 416.055 68.5332L415.689 68.1915C415.666 68.1703 415.666 68.1363 415.689 68.1155C415.712 68.0943 415.748 68.0943 415.77 68.1155L416.136 68.4572C416.159 68.4784 416.159 68.5124 416.136 68.5332C416.125 68.5436 416.11 68.549 416.096 68.549Z" fill="#D1990A"/>
<path d="M412.209 64.9111C412.194 64.9111 412.179 64.9057 412.168 64.8953L411.802 64.5536C411.779 64.5324 411.779 64.4983 411.802 64.4775C411.825 64.4564 411.861 64.4564 411.884 64.4775L412.25 64.8193C412.272 64.8404 412.272 64.8745 412.25 64.8953C412.239 64.9057 412.224 64.9111 412.209 64.9111Z" fill="#D1990A"/>
<path d="M406.715 59.5391C406.228 59.5391 405.744 59.2924 405.552 59.1124C405.529 59.0912 405.53 59.0572 405.552 59.0364C405.575 59.0152 405.611 59.0152 405.633 59.0364C405.807 59.1981 406.266 59.4315 406.715 59.4315C406.725 59.4315 406.735 59.4315 406.744 59.4315C406.777 59.4315 406.803 59.4545 406.803 59.4839C406.804 59.5137 406.779 59.5384 406.747 59.5391C406.736 59.5391 406.726 59.5391 406.715 59.5391Z" fill="#E8825F"/>
<path d="M409.164 60.0492C408.677 60.0492 408.194 59.8025 408.001 59.6225C407.979 59.6014 407.979 59.5673 408.001 59.5465C408.024 59.5257 408.06 59.5253 408.083 59.5465C408.256 59.7082 408.715 59.9417 409.165 59.9417C409.174 59.9417 409.184 59.9417 409.193 59.9417C409.227 59.9417 409.252 59.9646 409.253 59.994C409.253 60.0238 409.228 60.0485 409.196 60.0492C409.186 60.0492 409.175 60.0492 409.164 60.0492Z" fill="#E8825F"/>
<path d="M412.245 59.2751C412.223 59.2751 412.201 59.2629 412.192 59.2424C412.18 59.2152 412.193 59.1836 412.223 59.1718L413.35 58.7203C413.379 58.7088 413.413 58.7214 413.426 58.7486C413.439 58.7759 413.425 58.8074 413.396 58.8193L412.268 59.2704C412.261 59.2733 412.253 59.2747 412.245 59.2747V59.2751Z" fill="#E8825F"/>
<path d="M406.744 62.1655C405.671 62.1655 404.659 62.0375 404.193 61.969C404.162 61.9643 404.14 61.9367 404.145 61.9073C404.15 61.8779 404.18 61.8578 404.211 61.8625C404.829 61.9536 406.416 62.1497 407.818 62.0077C408.477 61.941 409.388 61.6775 410.138 61.3364C410.166 61.3235 410.201 61.3346 410.215 61.3612C410.229 61.3881 410.217 61.42 410.189 61.4333C409.428 61.7793 408.502 62.0468 407.831 62.1149C407.474 62.1512 407.106 62.1655 406.744 62.1655H406.744Z" fill="#E8825F"/>
<path d="M404.054 64.2292C404.031 64.2292 404.009 64.2163 404 64.1948C403.989 64.1672 404.003 64.136 404.033 64.1252C405.88 63.4547 409.019 63.1997 409.443 63.1997C409.475 63.1997 409.501 63.2237 409.501 63.2535C409.501 63.2833 409.475 63.3073 409.443 63.3073C409.022 63.3073 405.907 63.5605 404.075 64.2256C404.068 64.2282 404.061 64.2292 404.054 64.2292Z" fill="#E8825F"/>
<path d="M405.257 65.2304C405.25 65.2304 405.243 65.2293 405.236 65.2268C405.206 65.216 405.192 65.1848 405.203 65.1572C405.37 64.7567 406.465 63.8304 407.399 63.3958C407.427 63.3826 407.462 63.3933 407.476 63.4198C407.49 63.4464 407.479 63.4787 407.45 63.4919C406.554 63.9093 405.467 64.8205 405.311 65.1963C405.302 65.2175 405.28 65.2307 405.257 65.2307L405.257 65.2304Z" fill="#E8825F"/>
</g>
<defs>
<clipPath id="clip0_2006_154">
<rect width="457" height="99" fill="white"/>
</clipPath>
</defs>
</svg>
