<svg width="363" height="129" viewBox="0 0 363 129" fill="none" xmlns="http://www.w3.org/2000/svg">
<g clip-path="url(#clip0_2001_271)">
<rect width="363" height="129" fill="#C7F2C9"/>
<path d="M268.071 105.041C267.952 105.041 267.834 105.034 267.715 105.022C266.087 104.847 264.75 103.709 264.227 102.052C263.596 100.052 264.301 97.8519 266.067 96.3111C269.503 93.3121 275.399 93.8902 279.301 94.2734C279.973 94.3397 280.465 94.9378 280.398 95.6097C280.333 96.2818 279.734 96.7744 279.062 96.7075C275.579 96.3661 270.315 95.8491 267.675 98.1539C266.637 99.0589 266.22 100.242 266.56 101.317C266.789 102.044 267.319 102.52 267.976 102.59C268.31 102.625 268.706 102.464 268.986 102.179C269.093 102.07 269.335 101.782 269.293 101.446C269.272 101.287 269.283 101.125 269.326 100.97C269.368 100.815 269.44 100.67 269.538 100.543C269.637 100.416 269.759 100.309 269.898 100.23C270.038 100.15 270.192 100.099 270.351 100.078C270.51 100.058 270.672 100.069 270.827 100.111C270.982 100.154 271.127 100.226 271.254 100.324C271.381 100.422 271.487 100.545 271.567 100.684C271.647 100.824 271.698 100.977 271.718 101.137C271.844 102.121 271.484 103.124 270.733 103.891C270.013 104.625 269.039 105.041 268.071 105.041Z" fill="#EDAA9D"/>
<path d="M339.183 90.3925C337.624 83.06 332.756 76.9542 326.218 73.704V63.9904C326.218 63.1679 325.494 62.5283 324.679 62.6359C319.983 63.2566 316.173 66.6819 314.982 71.1731H299.613C286.212 71.1731 275.038 82.1361 275.074 95.5363C275.095 103.332 278.791 110.26 284.517 114.692C284.593 118.188 284.982 121.731 285.357 124.432C285.732 127.121 288.03 129.121 290.745 129.121C293.461 129.121 295.759 127.121 296.134 124.432C296.33 123.016 296.531 121.368 296.688 119.617C297.57 119.714 298.464 119.768 299.372 119.768H315.421C316.049 119.768 316.67 119.743 317.285 119.697C317.427 121.24 317.604 122.78 317.816 124.315C318.19 127.017 320.465 129.106 323.191 129.121C325.92 129.136 328.233 127.131 328.609 124.432C328.963 121.892 329.328 118.606 329.433 115.316C333.091 112.726 336.004 109.151 337.781 104.976C337.868 104.772 338.012 104.599 338.197 104.477C338.381 104.354 338.598 104.289 338.819 104.289H343.553C344.866 104.289 345.93 103.225 345.93 101.911V92.7704C345.93 91.4571 344.866 90.3925 343.552 90.3925H339.183Z" fill="#FFD2C0"/>
<path d="M343.55 90.3925H342.203C342.207 90.4533 342.211 90.5133 342.211 90.5746V99.7156C342.211 101.029 341.147 102.093 339.833 102.093H335.013C334.818 102.093 334.626 102.15 334.463 102.258C334.3 102.366 334.172 102.52 334.096 102.7C332.386 106.758 329.605 110.254 326.108 112.834C325.986 112.924 325.886 113.04 325.815 113.174C325.744 113.307 325.703 113.455 325.697 113.606C325.573 116.732 325.227 119.821 324.891 122.236C324.515 124.935 322.201 126.94 319.473 126.925C319.267 126.924 319.062 126.91 318.859 126.885C319.852 128.234 321.426 129.112 323.189 129.121C325.918 129.136 328.231 127.131 328.607 124.432C328.96 121.892 329.326 118.606 329.431 115.316C333.089 112.726 336.001 109.151 337.779 104.976C337.865 104.772 338.01 104.599 338.195 104.477C338.379 104.354 338.595 104.289 338.817 104.289H343.55C344.864 104.289 345.928 103.225 345.928 101.911V92.7704C345.928 91.4577 344.863 90.3925 343.55 90.3925ZM317.291 119.768H299.37C298.463 119.768 297.567 119.714 296.686 119.618C296.54 121.227 296.355 122.832 296.131 124.432C295.756 127.121 293.459 129.121 290.742 129.121C288.95 129.121 287.339 128.248 286.344 126.882C286.568 126.91 286.794 126.925 287.026 126.925C289.742 126.925 292.04 124.925 292.415 122.236C292.639 120.636 292.823 119.031 292.969 117.422C293.851 117.518 294.746 117.572 295.653 117.572C295.653 117.572 311.11 117.555 317.114 117.524C317.163 118.285 317.223 119.036 317.291 119.768L317.291 119.768ZM329.786 88.9355C329.462 88.9356 329.151 88.8069 328.921 88.5776C328.692 88.3483 328.563 88.0373 328.563 87.713V84.9396C328.563 84.779 328.594 84.6199 328.656 84.4715C328.717 84.3232 328.808 84.1884 328.921 84.0748C329.035 83.9613 329.17 83.8713 329.318 83.8099C329.466 83.7485 329.626 83.7169 329.786 83.717C330.11 83.717 330.421 83.8458 330.651 84.0751C330.88 84.3044 331.009 84.6153 331.009 84.9396V87.713C331.009 88.0372 330.88 88.3481 330.651 88.5774C330.421 88.8066 330.11 88.9355 329.786 88.9355Z" fill="#EDAA9D"/>
<path d="M317.265 119.698C317.195 118.948 317.135 118.198 317.087 117.446C317.038 116.689 317.003 115.949 316.98 115.249C316.97 114.932 316.837 114.631 316.609 114.41C316.381 114.189 316.076 114.065 315.759 114.065C315.746 114.065 315.733 114.065 315.72 114.066C315.559 114.071 315.401 114.108 315.255 114.174C315.108 114.24 314.976 114.334 314.866 114.451C314.756 114.568 314.671 114.706 314.614 114.856C314.557 115.006 314.531 115.166 314.536 115.327C314.559 116.052 314.596 116.818 314.646 117.603C314.69 118.29 314.748 119.019 314.816 119.768H315.42C316.041 119.768 316.656 119.743 317.265 119.698ZM283.96 106.145C283.642 106.083 283.312 106.151 283.044 106.333C282.775 106.514 282.589 106.795 282.528 107.113C282.212 108.743 282.059 110.571 282.02 112.471C282.788 113.255 283.607 113.985 284.474 114.658C284.402 111.124 284.681 108.857 284.929 107.578C284.959 107.42 284.958 107.258 284.926 107.101C284.894 106.943 284.831 106.794 284.741 106.661C284.651 106.528 284.536 106.414 284.402 106.325C284.268 106.237 284.118 106.176 283.96 106.145Z" fill="#EDAA9D"/>
<path d="M311.56 69.0936C311.56 72.7308 309.637 75.9199 306.749 77.6945H298.495C298.325 77.6945 298.154 77.6965 297.984 77.7033C297.445 77.7158 296.909 77.7534 296.379 77.8122C293.385 76.06 291.375 72.8122 291.375 69.0936C291.375 63.5194 295.894 59 301.469 59C307.041 59 311.56 63.5194 311.56 69.0936H311.56Z" fill="#FFCD34"/>
<path d="M300.715 69.6563C300.681 69.6563 300.619 69.6542 300.53 69.6499C300.441 69.6414 300.324 69.6287 300.179 69.6117C300.171 69.7222 300.164 69.8518 300.16 70.0006C300.16 70.1493 300.158 70.3151 300.154 70.4979C300.277 70.5021 300.419 70.5064 300.581 70.5106C300.742 70.5106 300.902 70.5106 301.059 70.5106C301.08 70.5106 301.117 70.5085 301.168 70.5042C301.223 70.4957 301.287 70.4872 301.359 70.4787C301.431 70.4702 301.499 70.4617 301.563 70.4532C301.631 70.4447 301.69 70.4405 301.741 70.4405C301.967 70.4405 302.147 70.5106 302.283 70.6509C302.423 70.7911 302.494 70.9654 302.494 71.1737C302.494 71.3309 302.472 71.4542 302.43 71.5435C302.392 71.6285 302.321 71.6922 302.219 71.7347C302.117 71.773 301.981 71.7963 301.811 71.8048C301.641 71.8134 301.427 71.8176 301.168 71.8176C301.112 71.8176 301.044 71.8176 300.963 71.8176C300.887 71.8176 300.806 71.8176 300.721 71.8176C300.636 71.8134 300.547 71.8112 300.453 71.8112C300.364 71.807 300.279 71.8027 300.198 71.7985H300.141V72.6911C300.141 72.9206 300.062 73.114 299.905 73.2712C299.744 73.4327 299.544 73.5135 299.306 73.5135C299.064 73.5135 298.862 73.4327 298.7 73.2712C298.543 73.114 298.464 72.9206 298.464 72.6911V71.7347C298.239 71.7305 298.043 71.7177 297.878 71.6965C297.716 71.6752 297.58 71.6391 297.47 71.5881C297.359 71.5371 297.276 71.4691 297.221 71.3841C297.17 71.2991 297.145 71.1885 297.145 71.0525C297.145 70.5935 297.442 70.364 298.037 70.364C298.109 70.364 298.184 70.3661 298.26 70.3703C298.341 70.3746 298.411 70.3831 298.471 70.3959L298.503 69.5288L298.445 69.5224C298.22 69.5181 298.031 69.5033 297.878 69.4778C297.729 69.4523 297.608 69.4119 297.514 69.3566C297.425 69.2971 297.361 69.2206 297.323 69.1271C297.285 69.0336 297.266 68.9167 297.266 68.7765C297.266 68.3302 297.563 68.107 298.158 68.107C298.239 68.107 298.313 68.1113 298.381 68.1198C298.449 68.1283 298.517 68.1325 298.585 68.1325C298.632 67.461 298.664 66.8595 298.681 66.3282C298.702 65.7969 298.715 65.3698 298.719 65.0468C298.719 64.7705 298.738 64.5367 298.777 64.3454C298.819 64.1499 298.879 63.9884 298.955 63.8609C299.032 63.7334 299.127 63.6378 299.242 63.574C299.361 63.5102 299.497 63.472 299.65 63.4592C299.799 63.4465 299.999 63.4252 300.249 63.3955C300.5 63.3615 300.81 63.3445 301.18 63.3445C302.013 63.3445 302.795 63.6144 303.526 64.1542C304.338 64.762 304.744 65.4973 304.744 66.3601C304.744 67.444 304.313 68.3089 303.45 68.955C303.259 69.0952 303.057 69.2121 302.844 69.3056C302.636 69.3949 302.417 69.4671 302.188 69.5224C301.962 69.5734 301.726 69.6095 301.48 69.6308C301.233 69.6478 300.978 69.6563 300.715 69.6563ZM301.034 64.9894C300.898 64.9894 300.776 64.9915 300.67 64.9958C300.568 64.9958 300.481 65 300.409 65.0085C300.409 65.1063 300.409 65.2295 300.409 65.3783C300.409 65.527 300.407 65.7034 300.402 65.9075C300.398 66.1455 300.385 66.4685 300.364 66.8765C300.343 67.2846 300.315 67.7394 300.281 68.2409C300.392 68.2579 300.483 68.2707 300.555 68.2792C300.628 68.2877 300.681 68.2919 300.715 68.2919C300.961 68.2919 301.165 68.2749 301.327 68.2409C301.488 68.2069 301.627 68.1623 301.741 68.107C301.86 68.0518 301.967 67.988 302.06 67.9158C302.154 67.8435 302.256 67.7691 302.366 67.6926C302.834 67.3526 303.067 66.9084 303.067 66.3601C303.067 65.9988 302.849 65.6779 302.411 65.3974C301.994 65.1254 301.535 64.9894 301.034 64.9894Z" fill="#E69012"/>
<path d="M305.412 59.7992C307.376 61.6407 308.606 64.2579 308.606 67.1632C308.606 72.7369 304.087 77.2562 298.513 77.2562C297.158 77.2578 295.817 76.9859 294.57 76.4567C295.123 76.9746 295.732 77.4289 296.386 77.8113C297.817 77.6532 297.884 77.6962 306.749 77.6945C313.564 73.5013 313.564 63.8891 305.412 59.7992Z" fill="#E69012"/>
<path d="M293.394 79.6098C293.127 79.6096 292.867 79.5218 292.654 79.3598C292.441 79.1978 292.288 78.9706 292.216 78.7129C292.173 78.5581 292.161 78.3965 292.181 78.2371C292.201 78.0777 292.251 77.9238 292.331 77.7841C292.41 77.6444 292.516 77.5216 292.642 77.4228C292.769 77.324 292.913 77.2511 293.068 77.2082C294.108 76.9202 295.177 76.7144 296.245 76.5963C296.817 76.5333 297.389 76.4944 297.946 76.4808C298.129 76.4744 298.312 76.4715 298.495 76.472H311.43C311.591 76.472 311.75 76.5036 311.898 76.5651C312.047 76.6265 312.181 76.7166 312.295 76.8302C312.409 76.9438 312.499 77.0787 312.56 77.2271C312.621 77.3755 312.653 77.5345 312.653 77.6952C312.653 77.8557 312.621 78.0147 312.56 78.163C312.498 78.3114 312.408 78.4462 312.295 78.5597C312.181 78.6733 312.047 78.7633 311.898 78.8248C311.75 78.8862 311.591 78.9179 311.43 78.9179H298.495C298.34 78.9172 298.185 78.9197 298.031 78.9254C298.024 78.9254 298.019 78.9254 298.013 78.926C297.523 78.9372 297.019 78.9716 296.514 79.0273C295.57 79.1322 294.636 79.3122 293.721 79.5654C293.614 79.5948 293.504 79.6097 293.394 79.6098Z" fill="#EDAA9D"/>
</g>
<defs>
<clipPath id="clip0_2001_271">
<rect width="363" height="129" fill="white"/>
</clipPath>
</defs>
</svg>
