<svg width="514" height="146" viewBox="0 0 514 146" fill="none" xmlns="http://www.w3.org/2000/svg">
<g clip-path="url(#clip0_2001_97)">
<rect width="514" height="146" fill="#C7F2C9"/>
<path d="M526.192 126.158C526.129 126.458 526.064 126.755 525.997 127.049C524.405 134.098 521.866 139.682 518.403 142.889C495.109 145.876 370.069 144.952 370.069 144.952C364.251 141.26 360.167 134.815 357.95 127.049C357.865 126.754 357.784 126.457 357.705 126.158C355.411 117.466 355.403 107.228 357.859 97.3789C357.932 97.0814 358.009 96.7844 358.088 96.4877C360.74 86.4849 365.952 76.9456 373.913 69.9129C374.707 69.2113 375.482 68.4759 376.242 67.7087C376.531 67.4159 376.818 67.1193 377.103 66.8175C384.52 58.9736 390.45 48.2013 397.399 38.0384C397.602 37.7405 397.807 37.4439 398.012 37.1472C403.778 28.8214 410.283 20.978 418.923 15.584C419.412 15.2791 419.907 14.9816 420.409 14.6929C423.603 12.8562 427.083 11.35 430.913 10.2657C450.58 4.70086 466.326 6.29399 480.816 14.6929C481.314 14.9821 481.811 15.2791 482.307 15.584C490.473 20.6105 498.264 27.8194 506.166 37.1472C506.415 37.4421 506.665 37.7392 506.915 38.0384C507.254 38.4424 507.591 38.8504 507.93 39.2623C513.974 46.6204 518.631 56.2949 521.929 66.8175C522.022 67.1141 522.114 67.4107 522.205 67.7087C522.899 69.9859 523.531 72.3015 524.099 74.6392C524.139 74.801 524.178 74.9628 524.217 75.125C524.228 75.1702 524.238 75.2146 524.249 75.2598C524.501 76.3154 524.739 77.3753 524.966 78.4383V78.4396C525.515 81.0265 525.99 83.6309 526.39 86.2339C526.607 87.6448 526.802 89.0557 526.974 90.4631V90.4644C527.222 92.4829 527.425 94.494 527.583 96.4882C527.606 96.7857 527.629 97.0827 527.65 97.3793C528.417 107.926 527.92 117.972 526.192 126.158L526.192 126.158Z" fill="#D5FBD7"/>
<path d="M369.147 125.449C369.096 125.546 369.023 125.651 368.91 125.662C368.811 125.672 368.719 125.599 368.68 125.512C368.64 125.424 368.642 125.326 368.647 125.231C368.669 124.807 368.747 124.387 368.877 123.981C368.92 123.844 368.975 123.702 369.088 123.609C369.775 123.042 369.282 125.196 369.147 125.449Z" fill="#7096B4"/>
<path d="M366.037 125.363C366.049 125.425 366.059 125.49 366.04 125.543C366.004 125.639 365.878 125.642 365.788 125.579C365.698 125.515 365.634 125.408 365.575 125.305C365.396 124.991 365.213 124.672 365.114 124.327C364.997 123.922 365.022 123.203 365.478 123.72C365.813 124.1 365.952 124.894 366.037 125.363Z" fill="#7096B4"/>
<path d="M371.685 104.9C372.197 104.159 372.427 103.273 372.563 102.394C372.677 101.658 372.785 100.872 372.77 100.127C372.758 99.5229 372.349 98.8831 371.719 99.2193C371.153 99.5207 370.645 100.181 370.281 100.679C369.617 101.582 369.172 102.634 369.002 103.726C368.895 104.413 368.655 105.897 369.605 106.184C370.35 106.41 371.336 105.406 371.685 104.9Z" fill="#C7F2C9"/>
<path d="M367.177 104.46C367.688 105.551 368.019 106.719 368.155 107.907C368.22 108.484 368.234 109.096 367.96 109.614C367.834 109.854 367.624 110.078 367.348 110.123C366.913 110.192 366.556 109.808 366.325 109.449C365.39 107.992 364.963 106.241 365.129 104.538C365.155 104.267 365.2 103.988 365.357 103.761C365.978 102.868 366.901 103.871 367.178 104.46H367.177Z" fill="#C7F2C9"/>
<path d="M372.746 106.897C372.41 107.804 371.924 108.661 371.31 109.424C371.056 109.741 370.771 110.049 370.403 110.239C370.252 110.317 370.041 110.366 369.922 110.247C369.873 110.198 369.851 110.13 369.835 110.064C369.651 109.327 369.972 108.568 370.314 107.884C370.695 107.126 371.142 106.329 371.862 105.816C372.914 105.067 373.055 106.065 372.747 106.897H372.746Z" fill="#C7F2C9"/>
<path d="M368.081 118.411L367.941 118.407C367.943 118.374 368.077 115.121 368.626 111.223C369.133 107.623 370.108 102.719 371.873 99.8052L371.995 99.8695C370.241 102.765 369.27 107.651 368.765 111.239C368.217 115.132 368.083 118.379 368.081 118.412V118.411Z" fill="#E0BA89"/>
<path d="M367.862 118.106L367.723 118.087C368.284 114.642 367.474 108.208 365.988 104.318L366.12 104.274C367.612 108.181 368.425 114.644 367.862 118.106Z" fill="#E0BA89"/>
<path d="M368.92 117.498C368.716 115.919 368.888 113.855 369.378 111.975C369.799 110.362 370.661 108.072 372.377 106.324L372.48 106.412C369.357 109.592 368.724 114.89 369.058 117.482L368.92 117.498H368.92Z" fill="#E0BA89"/>
<path d="M364.856 114.73C365.9 114.206 367.051 114.093 367.051 112.902V111.875C367.051 111.766 367.172 111.679 367.315 111.685L368.496 111.732L369.678 111.685C369.821 111.679 369.941 111.766 369.941 111.875V112.645C369.941 113.172 370.217 113.686 370.701 114.061C371.199 114.447 371.943 114.542 372.408 114.927C372.666 115.14 372.833 115.407 372.966 115.679C373.955 117.707 372.775 119.916 372.139 121.914C371.695 123.309 371.25 124.704 370.806 126.099C370.8 126.119 370.794 126.139 370.788 126.159H365.431C365.124 124.841 364.816 123.523 364.509 122.205C364.278 121.215 363.535 118.119 363.508 117.542C363.48 116.965 363.592 116.383 363.846 115.838C364.044 115.411 364.345 114.99 364.84 114.74C364.845 114.737 364.851 114.734 364.856 114.731L364.856 114.73Z" fill="#C7F2C9"/>
<path d="M366.53 113.811C366.785 113.882 367.014 113.947 367.158 113.966C368.009 114.075 368.875 114.182 369.735 114.139C370.069 114.122 370.404 114.08 370.719 114.009C370.74 114.026 370.762 114.044 370.785 114.06C370.992 114.211 371.238 114.317 371.49 114.414C370.873 114.648 370.133 114.767 369.395 114.788C368.432 114.816 367.466 114.69 366.535 114.518C366.377 114.489 366.014 114.403 365.684 114.286C366.015 114.153 366.312 114.011 366.532 113.811H366.53Z" fill="#A3E1A6"/>
<path d="M368.879 113.177C368.222 113.182 367.561 113.131 366.91 113.053C366.915 113.004 366.918 112.954 366.918 112.902V112.547C367.676 112.631 368.443 112.703 369.201 112.685C369.466 112.679 369.73 112.66 369.984 112.628V112.644C369.984 112.798 370.009 112.951 370.058 113.1C369.679 113.149 369.279 113.174 368.879 113.177H368.879Z" fill="#A3E1A6"/>
<path d="M371.916 117.419C371.907 117.653 371.882 117.918 371.691 118.064C371.657 118.09 371.616 118.111 371.574 118.108C371.508 118.103 371.462 118.044 371.435 117.986C371.339 117.786 371.349 117.556 371.345 117.336C371.337 116.952 370.779 115.474 371.253 115.427C372.03 115.35 371.931 117.052 371.917 117.419L371.916 117.419Z" fill="#A3E1A6"/>
<path d="M369.021 116.943C369.021 117.319 369.022 117.694 369.022 118.069C369.022 118.149 369.021 118.232 368.978 118.3C368.895 118.432 368.682 118.44 368.55 118.352C368.417 118.264 368.347 118.113 368.297 117.966C368.112 117.422 368.104 116.824 368.274 116.275C368.359 116 368.564 115.682 368.858 115.914C369.073 116.085 369.02 116.705 369.02 116.943H369.021Z" fill="#A3E1A6"/>
<path d="M368.864 124.129C368.865 124.504 368.865 124.879 368.866 125.255C368.866 125.334 368.865 125.417 368.822 125.485C368.739 125.617 368.526 125.625 368.393 125.537C368.26 125.45 368.191 125.299 368.141 125.152C367.956 124.607 367.948 124.009 368.118 123.46C368.203 123.185 368.408 122.867 368.701 123.1C368.917 123.271 368.863 123.891 368.864 124.129H368.864Z" fill="#A3E1A6"/>
<path d="M370.475 117.949C370.449 118.058 370.403 118.181 370.293 118.22C370.197 118.253 370.086 118.202 370.023 118.124C369.961 118.047 369.936 117.947 369.916 117.851C369.826 117.421 369.792 116.981 369.816 116.543C369.824 116.396 369.84 116.241 369.929 116.119C370.468 115.385 370.543 117.663 370.475 117.949Z" fill="#A3E1A6"/>
<path d="M369.901 123.014C369.86 123.119 369.797 123.236 369.683 123.259C369.582 123.279 369.479 123.214 369.429 123.129C369.378 123.044 369.368 122.943 369.362 122.844C369.334 122.407 369.363 121.966 369.449 121.536C369.478 121.39 369.517 121.239 369.622 121.131C370.259 120.474 370.009 122.74 369.901 123.014V123.014Z" fill="#A3E1A6"/>
<path d="M371.173 120.937C371.127 121.04 371.059 121.153 370.943 121.172C370.842 121.188 370.742 121.119 370.695 121.031C370.648 120.944 370.643 120.842 370.641 120.744C370.634 120.306 370.684 119.866 370.789 119.44C370.824 119.296 370.871 119.147 370.981 119.043C371.648 118.414 371.293 120.667 371.172 120.936L371.173 120.937Z" fill="#A3E1A6"/>
<path d="M367.199 118.01C367.179 118.078 367.156 118.149 367.1 118.195C366.997 118.28 366.827 118.234 366.741 118.133C366.654 118.033 366.63 117.898 366.609 117.77C366.544 117.379 366.479 116.98 366.54 116.588C366.611 116.128 367.052 115.403 367.373 116.11C367.61 116.63 367.349 117.497 367.198 118.01L367.199 118.01Z" fill="#A3E1A6"/>
<path d="M367.535 123.12C367.515 123.188 367.492 123.259 367.436 123.305C367.333 123.389 367.163 123.343 367.077 123.243C366.99 123.142 366.966 123.008 366.945 122.879C366.88 122.488 366.815 122.09 366.876 121.698C366.947 121.237 367.388 120.513 367.709 121.219C367.946 121.74 367.685 122.607 367.534 123.119L367.535 123.12Z" fill="#A3E1A6"/>
<path d="M368.808 121.535C368.788 121.603 368.765 121.675 368.71 121.72C368.607 121.805 368.436 121.759 368.35 121.658C368.264 121.558 368.24 121.423 368.218 121.295C368.153 120.904 368.089 120.505 368.149 120.114C368.22 119.653 368.662 118.928 368.983 119.635C369.22 120.155 368.958 121.023 368.808 121.535L368.808 121.535Z" fill="#A3E1A6"/>
<path d="M365.924 115.842C366.031 116.465 365.951 117.117 365.697 117.7C365.679 117.74 365.66 117.782 365.625 117.81C365.545 117.877 365.411 117.846 365.34 117.771C365.268 117.695 365.243 117.59 365.224 117.49C365.153 117.106 365.132 116.714 365.162 116.324C365.19 115.962 365.789 115.06 365.924 115.842Z" fill="#A3E1A6"/>
<path d="M366.236 119.337C366.505 119.914 366.601 120.564 366.509 121.189C366.502 121.233 366.494 121.277 366.469 121.313C366.409 121.398 366.271 121.4 366.182 121.344C366.092 121.289 366.04 121.193 365.996 121.1C365.825 120.746 365.7 120.372 365.626 119.988C365.557 119.631 365.899 118.613 366.236 119.337L366.236 119.337Z" fill="#A3E1A6"/>
<path d="M518.052 122.247C518.052 125.851 514.621 126.15 510.389 126.15C508.313 126.15 506.406 126.262 505.026 125.584C503.593 124.879 502.727 124.083 502.727 122.247C502.727 119.355 505.07 115.974 508.13 114.833C508.493 114.698 508.251 113.009 507.589 111.953C507.28 111.461 508.342 111.3 509.41 111.947C509.294 111.274 509.929 110.968 510.37 110.968C510.81 110.968 511.232 111.183 511.287 111.924C511.924 111.312 513.214 111.404 512.875 111.837C512.218 112.677 511.822 114.75 512.113 114.827C514.593 115.481 516.613 117.477 517.526 119.711C517.866 120.542 518.052 121.407 518.052 122.248L518.052 122.247Z" fill="#C7F2C9"/>
<path d="M512.164 113.964H508.217C508.201 113.964 508.188 113.977 508.188 113.992V114.604C508.188 114.619 508.201 114.631 508.217 114.631H512.164C512.18 114.631 512.194 114.619 512.194 114.604V113.992C512.194 113.977 512.18 113.964 512.164 113.964Z" fill="#A3E1A6"/>
<path d="M506.914 38.0384H397.398C397.601 37.7405 397.806 37.4438 398.011 37.1472H506.164C506.414 37.4421 506.664 37.7392 506.914 38.0384Z" fill="#C7F2C9"/>
<path d="M482.31 15.585H418.926C419.414 15.2801 419.909 14.9826 420.412 14.6938H480.819C481.317 14.9831 481.814 15.2801 482.31 15.585Z" fill="#C7F2C9"/>
<path d="M522.209 67.709H376.246C376.535 67.4163 376.822 67.1197 377.107 66.8179H521.934C522.027 67.1145 522.119 67.4111 522.209 67.709Z" fill="#C7F2C9"/>
<path d="M527.655 97.3794H357.863C357.937 97.082 358.013 96.7849 358.093 96.4883H527.587C527.61 96.7858 527.633 97.0828 527.655 97.3794Z" fill="#C7F2C9"/>
<path d="M526.198 126.158C526.134 126.458 526.069 126.755 526.003 127.049H357.956C357.871 126.754 357.79 126.457 357.711 126.158H526.198Z" fill="#9DE9A0"/>
<path d="M491.27 27.5664H471.48V37.1478H491.27V27.5664Z" fill="#C7F2C9"/>
<path d="M482.082 29.2258C482.082 28.8905 481.763 28.6187 481.369 28.6187C480.975 28.6187 480.656 28.8905 480.656 29.2258C480.656 29.4929 480.859 29.7195 481.141 29.8003V30.5976H481.598V29.8003C481.879 29.7195 482.082 29.4929 482.082 29.2258Z" fill="#A3E1A6"/>
<path d="M511.995 96.4185L508.992 95.7548L514.477 77.7576L517.479 78.4213L511.995 96.4185Z" fill="#C7F2C9"/>
<path d="M511.592 95.2023L510.035 94.8579L514.876 78.9744L516.432 79.3184L511.592 95.2023Z" fill="#A3E1A6"/>
<path d="M412.973 66.8185V64.0872H387.319V66.8185H412.973Z" fill="#C7F2C9"/>
<path d="M406.805 66.161V64.7449H393.503V66.161H406.805Z" fill="#A3E1A6"/>
<path d="M414.789 64.0879V60.5476H393.311V64.0879H414.789Z" fill="#C7F2C9"/>
<path d="M409.605 63.236V61.4001H398.469V63.236H409.605Z" fill="#A3E1A6"/>
<path d="M408.273 60.6098V58.7739H390.193V60.6098H408.273Z" fill="#C7F2C9"/>
<path d="M407.215 60.1688V59.2168H391.258V60.1688H407.215Z" fill="#A3E1A6"/>
<path d="M448.289 59.6794C449.843 59.8868 451.53 60.2678 452.455 61.4512C453.488 62.7725 453.528 64.3983 452.872 65.9149C456.078 63.6615 458.121 60.6292 459.188 57.0185C459.864 54.7316 460.025 52.3408 460.086 49.9692C460.127 48.38 460.123 46.7677 459.685 45.2315C458.786 42.0818 456.174 39.611 453.389 37.6451C451.458 36.2825 449.383 35.079 447.132 34.247C444.525 33.2832 441.701 32.8327 438.899 32.9336C437.632 32.9792 436.317 33.1541 435.268 33.8173C434.626 34.2231 434.122 34.7881 433.644 35.357C431.617 37.7695 429.874 40.4413 428.968 43.3883C427.922 46.796 428.042 50.462 428.959 53.9014C429.607 56.3282 430.642 58.6521 431.906 60.8532C432.319 61.573 434.281 64.1108 434.281 64.1108C434.281 64.1108 434.093 62.5564 434.926 61.5469C436.402 59.7589 444.296 59.1461 448.288 59.6789L448.289 59.6794Z" fill="#5C2F1F"/>
<path d="M453.172 73.221C450.885 68.7073 449.29 61.1261 449.626 54.3926C449.848 54.0103 438.28 54.3944 438.502 54.7767C438.838 61.5097 437.68 68.7073 435.394 73.221C434.655 74.6789 435.934 77.034 436.701 78.4458C437.592 80.0859 438.69 81.6207 440.101 82.9129C441.037 83.7706 442.643 84.9962 444.239 85.4464V85.4716C444.254 85.4677 444.268 85.4629 444.282 85.459C444.297 85.4629 444.311 85.4677 444.325 85.4716V85.4464C445.921 84.9962 447.528 83.7706 448.464 82.9129C449.875 81.6207 450.972 80.0859 451.863 78.4458C452.63 77.0344 453.91 74.6789 453.171 73.221H453.172Z" fill="#FBAE96"/>
<g style="mix-blend-mode:multiply" opacity="0.28">
<path d="M448.939 60.7169C449.014 60.6686 442.763 59.7339 438.516 59.1055C438.47 60.2024 438.388 61.294 438.27 62.367C440.308 63.289 445.184 64.8291 448.939 60.7169Z" fill="#FBAE96"/>
</g>
<path d="M458.424 40.5772C458.019 43.2385 456.393 49.8894 455.385 52.2093C453.339 56.9161 450.686 60.8856 444.942 62.4748C444.119 62.7027 443.263 62.775 442.43 62.544C437.743 61.2431 434.195 56.7251 432.478 52.8069C431.224 49.9459 429.965 47.0772 429.043 44.1044C427.714 39.8195 426.814 35.8082 428.89 31.6416C430.628 28.1522 433.868 25.3139 437.749 23.9934C440.419 23.0853 442.686 23.6846 445.365 23.6646C446.728 23.6542 447.673 23.445 449.075 23.8086C451.752 24.5027 454.251 25.8988 455.954 27.9739C458.995 31.6808 459.126 35.9591 458.424 40.5772Z" fill="#FBAE96"/>
<path d="M459.515 31.8625C457.878 27.946 454.383 24.778 450.206 23.2062C449.062 22.7756 447.999 22.9848 446.911 22.7391C446.809 22.716 446.71 22.6873 446.614 22.6564C446.328 22.2289 445.983 21.8718 445.564 21.6244C444.582 21.0446 440.574 21.3965 438.109 22.2045C427.012 25.8436 425.348 37.0873 425.223 38.7117C424.977 41.8945 424.915 45.0925 425.138 48.2766C425.36 51.4377 425.879 54.6309 427.296 57.5097C428.712 60.3885 431.119 62.945 434.274 64.111C431.598 58.7288 430.503 52.6698 431.14 46.7661C431.238 45.848 431.381 44.9229 431.751 44.0674C432.166 43.1084 432.834 42.299 433.627 41.5805C434.469 41.066 435.373 40.6241 436.276 40.2344C437.014 39.9165 437.768 39.619 438.518 39.3159C440.278 38.6052 442.02 37.8632 443.511 36.7546C443.675 36.8611 443.842 36.9625 444.01 37.0577C445.236 37.7549 446.564 38.2855 447.847 38.8857C448.594 39.235 449.326 39.6073 450.013 40.05C451.484 40.9968 452.723 42.2542 453.613 43.7008C454.008 44.3445 454.36 45.0521 455.008 45.4827C456.263 46.3173 457.926 45.0225 458.562 44.0161C460.85 40.3953 461.151 35.7795 459.514 31.863L459.515 31.8625Z" fill="#7B3E29"/>
<path d="M450.298 49.0052C450.226 49.7998 450.96 50.4274 451.634 49.685C451.925 49.3653 451.948 48.7529 451.843 48.3598C451.728 47.9331 451.259 47.6491 450.817 47.8983C450.458 48.101 450.331 48.6398 450.298 49.0052Z" fill="#7B3E29"/>
<path d="M443.696 56.3439C442.84 56.3439 441.984 56.2317 441.152 56.0077C441.115 55.9977 441.094 55.9616 441.104 55.9268C441.114 55.892 441.154 55.872 441.191 55.882C442.804 56.3165 444.51 56.3234 446.127 55.9015C446.164 55.892 446.203 55.912 446.214 55.9468C446.224 55.9816 446.202 56.0177 446.165 56.0272C445.357 56.2382 444.526 56.3434 443.696 56.3434L443.696 56.3439Z" fill="#A45236"/>
<path d="M442.832 57.6156C442.793 57.6156 442.762 57.5867 442.762 57.5508C442.761 57.5144 442.792 57.4846 442.831 57.4842L444.28 57.4653C444.32 57.4653 444.35 57.4938 444.351 57.5302C444.351 57.5665 444.32 57.5963 444.282 57.5968L442.833 57.6156H442.832Z" fill="#A45236"/>
<path d="M444.521 53.4616C444.515 53.4616 444.509 53.4607 444.503 53.4594C444.027 53.3376 443.57 53.1241 443.18 52.8414C443.06 52.7544 442.927 52.6465 442.843 52.5034C442.648 52.169 442.777 51.7727 442.891 51.4231L442.903 51.3865C443.274 50.2457 443.334 49.0253 443.079 47.8575C443.071 47.8223 443.095 47.7879 443.133 47.7806C443.171 47.7736 443.208 47.7962 443.216 47.8314C443.476 49.0205 443.414 50.2631 443.037 51.4244L443.025 51.4613C442.913 51.8023 442.799 52.1546 442.966 52.4408C443.038 52.563 443.158 52.6596 443.266 52.7383C443.641 53.0105 444.082 53.2163 444.54 53.3333C444.577 53.3428 444.599 53.3785 444.589 53.4133C444.58 53.4424 444.552 53.4611 444.521 53.4611V53.4616Z" fill="#A45236"/>
<path d="M453.243 46.2545C453.224 46.044 452.623 45.7309 452.505 45.6743C452.098 45.4786 451.645 45.3638 451.187 45.3416C450.668 45.3168 450.134 45.4477 449.668 45.653C449.352 45.7922 448.537 46.2367 449.195 46.5668C449.421 46.6795 449.695 46.5933 449.938 46.5207C450.85 46.2498 451.837 46.2037 452.773 46.3889C452.876 46.4094 452.985 46.4324 453.086 46.4028C453.205 46.3676 453.249 46.3154 453.243 46.2541V46.2545Z" fill="#7B3E29"/>
<path d="M438.118 49.0052C438.19 49.7998 437.456 50.4274 436.782 49.685C436.491 49.3653 436.467 48.7529 436.573 48.3598C436.688 47.9331 437.157 47.6491 437.599 47.8983C437.958 48.101 438.085 48.6398 438.118 49.0052Z" fill="#7B3E29"/>
<path d="M435.157 46.2545C435.176 46.044 435.777 45.7309 435.894 45.6743C436.302 45.4786 436.755 45.3638 437.213 45.3416C437.731 45.3168 438.265 45.4477 438.732 45.653C439.048 45.7922 439.863 46.2367 439.204 46.5668C438.979 46.6795 438.705 46.5933 438.461 46.5207C437.55 46.2498 436.563 46.2037 435.627 46.3889C435.523 46.4094 435.414 46.4324 435.313 46.4028C435.194 46.3676 435.151 46.3154 435.157 46.2541V46.2545Z" fill="#7B3E29"/>
<path d="M457.01 44.0869C458.297 43.5102 459.936 44.1874 460.63 45.2686C461.323 46.3499 461.277 47.6881 461.026 48.9259C460.862 49.7362 460.613 50.5495 460.113 51.2532C459.613 51.9565 458.832 52.5432 457.91 52.7163C456.989 52.8894 455.941 52.5771 455.484 51.8708C455.32 51.6173 455.237 51.3293 455.17 51.0423C454.717 49.1195 454.512 45.206 457.01 44.0869H457.01Z" fill="#FBAE96"/>
<path d="M455.996 50.7116C455.982 50.7116 455.971 50.7016 455.97 50.6885C455.893 49.4077 456.318 48.082 457.136 47.0517C457.775 46.2466 458.578 45.8082 459.335 45.8482C459.35 45.8491 459.36 45.8604 459.36 45.8739C459.359 45.8874 459.347 45.8978 459.332 45.8969C458.279 45.8413 457.475 46.7063 457.178 47.0808C456.367 48.1024 455.946 49.4164 456.022 50.6859C456.023 50.6994 456.012 50.7107 455.997 50.7116C455.997 50.7116 455.996 50.7116 455.996 50.7116Z" fill="#A45236"/>
<path d="M456.339 48.547C456.33 48.547 456.321 48.5426 456.316 48.5348C456.309 48.5231 456.313 48.5083 456.326 48.5017C457.162 48.0533 458.142 48.0507 458.821 48.4948C458.833 48.5026 458.835 48.5178 458.828 48.5287C458.819 48.5396 458.803 48.5422 458.791 48.5348C458.129 48.1012 457.171 48.1051 456.352 48.5439C456.348 48.5461 456.343 48.547 456.339 48.547Z" fill="#A45236"/>
<path d="M428.091 44.7561C426.67 44.6322 425.384 45.7982 425.136 47.0369C424.887 48.2756 425.429 49.5155 426.123 50.5955C426.578 51.3022 427.115 51.9842 427.846 52.4822C428.576 52.9797 429.527 53.2772 430.455 53.1411C431.383 53.005 432.251 52.3726 432.416 51.5623C432.475 51.2713 432.446 50.9743 432.403 50.6833C432.113 48.7335 430.85 44.9971 428.091 44.7561Z" fill="#FBAE96"/>
<path d="M431.49 50.6852C431.46 50.6852 431.433 50.6674 431.423 50.6391C431.026 49.4326 430.149 48.3448 429.017 47.6546C428.605 47.4032 427.544 46.8604 426.598 47.2458C426.562 47.2601 426.521 47.2449 426.506 47.2119C426.49 47.1788 426.507 47.1405 426.542 47.1262C427.253 46.837 428.183 46.99 429.094 47.5455C430.253 48.2522 431.151 49.3661 431.558 50.6008C431.569 50.6352 431.548 50.6717 431.511 50.6821C431.504 50.6843 431.497 50.6852 431.491 50.6852H431.49Z" fill="#A45236"/>
<path d="M428.054 49.5546C428.041 49.5546 428.027 49.5507 428.014 49.5429C427.983 49.5224 427.975 49.4816 427.997 49.452C428.479 48.8022 429.415 48.4808 430.383 48.633C430.421 48.6391 430.447 48.6726 430.44 48.7083C430.434 48.7439 430.398 48.7674 430.36 48.7618C429.445 48.6182 428.562 48.9179 428.111 49.5264C428.098 49.5446 428.076 49.5546 428.054 49.5546Z" fill="#A45236"/>
<path d="M454.183 51.5314C454.631 56.5231 453.826 61.5491 452.548 66.4142C457.399 63.3366 461.116 58.6203 462.419 53.2824C462.595 52.5613 462.728 51.832 462.839 51.1C463.748 45.1123 463.391 36.4582 458.437 29.7947C457.942 29.1292 454.058 29.7738 453.39 29.2567C452.647 28.6804 457.489 30.4906 456.525 30.5488C455.561 30.6071 454.633 30.909 453.742 31.2595C452.373 31.7979 451.059 32.4577 449.823 33.2267C449.393 33.4937 448.957 33.7916 448.728 34.2235C448.462 34.7254 448.522 35.3178 448.588 35.8745C448.774 37.4381 448.932 38.0683 449.871 39.377C450.725 40.5674 451.446 41.8395 452.041 43.16C453.182 45.693 454.183 48.757 454.183 51.5323L454.183 51.5314Z" fill="#7B3E29"/>
<path d="M472.809 83.1329C469.494 78.931 463.675 77.6667 458.859 75.5773C456.307 74.47 454.045 73.4179 452.309 71.3137C451.85 70.757 437.026 69.8537 436.203 71.3707C434.963 73.6567 431.897 74.47 429.344 75.5773C424.528 77.6667 419.402 79.3473 416.087 83.5491C414.342 85.7611 412.901 88.2206 413.365 90.9333C413.732 93.0779 414.803 95.0503 415.74 97.0383C419.185 104.35 424.182 129.847 426.55 143.165C435.163 147.721 455.659 145.192 461.253 143.458C463.707 129.863 469.096 104.182 472.463 97.0379C473.399 95.0499 474.471 93.0775 474.837 90.9328C475.301 88.2202 474.554 85.3445 472.808 83.1324L472.809 83.1329Z" fill="#FBAE96"/>
<path d="M463.547 77.402C463.547 77.402 446.352 80.3203 427.281 76.416C418.451 78.5933 412.385 85.3681 408.29 93.7452C402.242 106.119 419.697 97.583 420.683 116.647C420.717 117.286 421.65 118.18 421.617 118.107C422.101 119.175 422.163 120.635 422.405 121.778C422.963 124.41 423.5 127.046 424.022 129.685C424.91 134.171 425.757 138.665 426.557 143.165C435.17 147.721 455.666 145.192 461.26 143.459C463.715 129.864 469.103 104.183 472.47 97.0385C473.407 95.0504 474.669 84.4691 473.435 82.7372C470.753 78.9734 463.548 77.4016 463.548 77.4016L463.547 77.402Z" fill="white"/>
<path d="M473.669 83.1503C480.356 91.6284 484.388 106.081 488.267 116.75C492.195 127.556 491.948 130.29 490.825 132.859C489.156 136.681 474.887 132.609 471.945 126.469C469.003 120.329 464.667 108.612 462.85 103.328C461.032 98.0435 463.677 84.6552 473.669 83.1499V83.1503Z" fill="white"/>
<path d="M437.34 138.357C437.34 138.357 437.165 139.576 436.667 140.586C436.315 141.298 435.802 141.906 435.074 141.906C432.493 141.906 428.51 142.098 427.335 141.906C426.865 141.829 426.811 141.538 427.046 141.031C427.328 140.426 428.024 139.515 428.918 138.298C429.147 137.986 429.389 137.655 429.64 137.303L435.253 138.072L437.34 138.357H437.34Z" fill="#FCC583"/>
<path d="M455.178 137.782C455.112 139.386 454.819 141.906 453.621 141.906C451.04 141.906 447.057 142.098 445.882 141.906C445.412 141.829 445.358 141.537 445.593 141.031C445.645 140.92 445.71 140.8 445.788 140.669C446.245 139.9 447.133 138.778 448.187 137.302L453.23 136.712L455.189 136.483C455.189 136.483 455.208 137.033 455.179 137.781L455.178 137.782Z" fill="#FCC583"/>
<path d="M463.552 124.164C463.552 132.956 453.34 140.084 440.741 140.084C435.022 140.084 429.795 138.616 425.792 136.189C423.228 134.636 421.166 132.689 419.798 130.484C419.48 129.971 416.056 130.354 415.573 129.982C414.699 129.311 415.087 123.269 415.806 122.47C416.055 122.193 418.167 121.784 418.321 121.211C420.305 113.83 429.589 108.244 440.741 108.244C448.119 108.244 454.679 110.688 458.849 114.48C461.799 117.163 463.552 120.521 463.552 124.164Z" fill="#FCC583"/>
<path d="M429.622 113.998C428.911 114.354 428.22 114.413 427.623 114.275C427.574 114.224 427.526 114.173 427.482 114.119C427.473 114.108 427.461 114.099 427.451 114.088C426.03 112.64 425.44 108.564 425.827 107.602C425.871 107.493 425.942 107.423 426.037 107.387C426.234 107.312 426.533 107.384 426.892 107.557C428.222 108.339 429.658 109.307 430.106 109.812C430.914 110.722 431.882 112.863 429.622 113.997V113.998Z" fill="#FCC583"/>
<path d="M462.555 120.537C463.463 120.696 464.73 120.573 465.385 120.079C466.556 119.197 467.018 117.782 467.322 116.436C467.448 115.752 467.757 114.384 467.103 113.875C466.683 113.553 466.039 113.805 465.786 114.21C465.536 114.608 465.556 115.092 465.678 115.531C466.21 117.393 468.648 118.48 470.56 117.821C472.077 117.296 472.429 116.517 472.1 116.97C470.621 119.007 467.02 118.452 465.743 116.418C465.276 115.678 465.009 114.582 465.664 113.865C466.061 113.443 466.803 113.263 467.299 113.648C468.102 114.28 467.869 115.643 467.697 116.462C467.434 117.568 467.165 119.076 466.449 120.009C465.582 121.165 464.045 122.233 462.491 121.897C461.604 121.72 461.404 120.337 462.555 120.538L462.555 120.537Z" fill="#FCC583"/>
<path d="M450.802 111.224C448.399 110.564 445.438 110.114 442.223 109.984C438.965 109.853 435.938 110.071 433.465 110.548C433.356 110.433 433.232 110.375 433.074 110.276C435.15 109.416 438.436 109.009 442.26 109.192C446.575 109.399 449.123 110.03 451.138 110.982C451.04 111.048 450.934 111.124 450.803 111.224H450.802Z" fill="#BD8440"/>
<path d="M425.922 119.236C426.035 118.508 425.83 117.878 425.465 117.829C425.099 117.78 424.711 118.329 424.599 119.057C424.486 119.785 424.691 120.415 425.056 120.464C425.422 120.513 425.81 119.964 425.922 119.236Z" fill="#BD8440"/>
<path d="M418.083 80.9485C409.321 87.5789 399.897 101.54 393.261 110.951C386.54 120.484 385.072 127.978 389.491 130.95C393.078 133.363 401.925 129.446 406.429 124.198C410.935 118.948 418.296 108.631 421.483 103.945C424.67 99.2593 427.345 84.7571 418.083 80.9489V80.9485Z" fill="white"/>
<path d="M427.749 99.2806C427.722 99.3023 427.694 99.3254 427.665 99.3493C427.645 99.3663 427.624 99.3837 427.603 99.4015C427.145 99.7938 425.474 100.313 424.678 101.185C418.368 108.098 403.753 128.266 399.123 130.324C393.843 132.67 390.149 131.753 388.599 129.234C386.393 125.649 387.936 121.365 392.068 117.104C395.961 113.089 415.362 100.481 420.942 94.2485C421.284 93.8662 421.574 93.5082 421.805 93.1777C421.805 93.1773 421.806 93.1768 421.807 93.176C423.466 90.8026 428.146 94.195 428.589 97.0742C428.717 97.9019 428.494 98.6869 427.749 99.2806Z" fill="#FBAE96"/>
<path d="M423.82 92.1774C422.993 91.5594 423.263 90.5529 424.347 89.2312C425.431 87.9095 428.513 84.4518 429.263 83.5915C430.013 82.7312 432.659 80.2165 433.966 80.3226C435.18 80.4213 431.824 84.9006 431.507 85.2951C431.19 85.6896 427.324 90.0623 426.549 90.9826C425.774 91.9029 424.776 92.8902 423.821 92.177L423.82 92.1774Z" fill="#FBAE96"/>
<path d="M427.16 91.8798C426.333 91.2617 426.603 90.2553 427.687 88.9336C428.771 87.6118 431.853 84.1542 432.603 83.2939C433.353 82.4336 435.985 79.9189 437.306 80.025C438.519 80.1224 435.163 84.603 434.847 84.9975C434.529 85.392 430.664 89.7647 429.888 90.685C429.113 91.6053 428.115 92.5926 427.16 91.8793V91.8798Z" fill="#FBAE96"/>
<path d="M438.333 93.3373C438.857 93.9854 439.45 94.8357 439.88 95.104C440.311 95.3724 443.324 97.3565 441.223 93.5035C439.122 89.6505 439.643 89.8849 438.514 88.484C437.385 87.0831 433.738 88.7528 430.519 90.1441C427.185 91.585 426.756 93.0399 427.193 93.727C427.629 94.4147 428.932 95.3076 431.005 93.8636C433.064 92.4292 436.296 90.5068 436.885 91.3706C437.473 92.2344 437.885 92.7828 438.333 93.3373Z" fill="#FBAE96"/>
<path d="M430.629 91.7312C429.801 91.1132 430.072 90.1068 431.155 88.785C432.239 87.4633 435.322 84.0056 436.072 83.1453C436.822 82.2851 439.663 79.5672 440.775 79.8764C441.942 80.2013 438.633 84.4545 438.316 84.849C437.998 85.2434 434.133 89.6162 433.358 90.5365C432.582 91.4568 431.584 92.4441 430.629 91.7308L430.629 91.7312Z" fill="#FBAE96"/>
<path d="M433.773 99.2119C434.471 100.04 435.605 100.442 436.142 101C436.679 101.558 437.113 102.81 435.243 102.35C433.373 101.89 432.805 101.309 431.28 100.779C430.233 100.415 429.342 100.731 428.102 100.696C426.531 100.652 426.57 99.7421 425.134 100.779C423.429 102.009 435.176 88.6763 433.802 90.1598C432.552 91.5085 430.606 94.0233 431.009 96.2492C431.213 97.3735 433.181 98.5078 433.774 99.2119H433.773Z" fill="#FBAE96"/>
<path d="M432.653 91.415C432.653 91.415 432.641 91.5581 432.616 91.8068C432.589 92.0852 428.236 99.0349 427.657 99.3489C427.622 99.3676 427.588 99.3868 427.553 99.4059C427.087 99.6677 426.229 99.4572 425.796 99.7795C425.273 100.168 424.617 100.566 424.242 100.863C422.741 102.051 417.546 99.9456 419.494 97.0816C420.05 96.264 420.552 95.4041 421.04 94.536C421.295 94.0837 421.545 93.6296 421.797 93.1773C421.797 93.1769 421.798 93.1764 421.798 93.1756C422.565 91.8012 423.349 90.449 424.307 89.2512C424.529 88.9742 424.76 88.7054 425.002 88.4466C426.187 87.1801 431.568 89.6666 432.653 91.415Z" fill="#FBAE96"/>
<path d="M428.23 88.9157C428.215 88.9157 428.201 88.9113 428.188 88.9026C428.157 88.8809 428.151 88.8405 428.174 88.8113C428.198 88.7813 430.601 85.7668 433.098 82.8267C433.122 82.7985 433.166 82.7937 433.196 82.8163C433.226 82.8385 433.232 82.8798 433.207 82.9081C430.712 85.8469 428.31 88.8596 428.286 88.8896C428.273 88.907 428.251 88.9157 428.23 88.9157H428.23Z" fill="#E8825F"/>
<path d="M431.191 89.5341C431.177 89.5341 431.162 89.5297 431.149 89.521C431.118 89.4993 431.112 89.4588 431.135 89.4297C431.161 89.3966 433.803 86.0925 436.3 83.1524C436.324 83.1241 436.368 83.1194 436.398 83.142C436.428 83.1642 436.433 83.2055 436.409 83.2337C433.914 86.1725 431.273 89.4749 431.247 89.508C431.234 89.5254 431.212 89.5341 431.191 89.5341Z" fill="#E8825F"/>
<path d="M491.046 129.113C489.501 125.238 484.985 123.607 478.833 123.851C472.681 124.094 450.687 131.332 443.412 130.548C439.528 130.13 440.021 136.958 444.383 137.408C448.744 137.859 479.911 139.655 485.219 137.364C490.527 135.073 492.131 131.835 491.046 129.113Z" fill="#FBAE96"/>
<path d="M431.409 134.67C431.052 132.631 430.869 130.651 431.252 128.728C432.564 128.856 434.325 128.94 435.541 129.147C437.403 129.473 439.198 130.024 441.053 130.473C442.004 130.699 442.715 130.123 443.593 130.186C444.608 130.26 447.964 130.361 449.86 130.085C451.057 129.911 449.65 132.634 450.027 133.687C450.074 133.816 450.118 133.949 450.106 134.071C450.091 134.216 449.996 134.327 449.904 134.43C448.899 135.552 449.061 137.64 447.312 137.64C445.042 137.64 442.62 137.814 440.829 137.806C438.229 137.818 434.728 137.705 431.908 137.638C431.296 136.533 431.612 135.79 431.409 134.67Z" fill="#FBAE96"/>
<path d="M422.459 127.877C422.063 127.858 421.651 127.841 421.276 127.929C420.9 128.017 420.559 128.234 420.506 128.54C420.487 128.649 420.509 128.771 420.602 128.868C420.712 128.982 420.895 129.037 421.064 129.084C425.05 130.159 428.341 130.578 432.373 131.331C433.823 131.581 432.994 129.524 432.309 129.087C431.721 128.72 431.073 128.712 430.375 128.618C427.888 128.284 425.308 128.016 422.459 127.877H422.459Z" fill="#FBAE96"/>
<path d="M423.006 134.06C422.568 133.967 422.11 133.869 421.698 133.922C421.286 133.976 420.942 134.239 421.058 134.575C421.15 134.842 421.491 135.064 421.813 135.242C423.962 136.432 426.446 137.017 428.779 137.348C430.726 137.618 432.104 137.802 434.149 137.435C434.329 137.401 434.519 136.908 434.607 136.786C435.017 136.202 434.03 135.46 433.343 135.314C432.573 135.153 431.565 135.279 430.764 135.211C428.266 135.005 425.672 134.627 423.006 134.061L423.006 134.06Z" fill="#FBAE96"/>
<path d="M431.664 131.314C431.778 131.677 422.368 129.502 419.46 129.867C419.151 129.906 418.856 130.047 418.694 130.296C418.206 131.051 418.701 132.82 431.479 135.064C432.389 135.244 433.295 135.402 434.195 135.539C433.22 134.122 432.376 132.711 431.664 131.314H431.664Z" fill="#FBAE96"/>
<path d="M431.459 133.241C431.456 133.241 431.453 133.241 431.45 133.241C427.678 132.768 423.535 132.1 418.795 130.422C418.759 130.41 418.741 130.372 418.754 130.338C418.768 130.305 418.809 130.288 418.844 130.301C423.571 131.973 427.705 132.64 431.468 133.111C431.506 133.116 431.533 133.149 431.528 133.185C431.523 133.218 431.493 133.242 431.459 133.242V133.241Z" fill="#E8825F"/>
<path d="M438.13 127.47C437.252 127.182 436.399 126.858 435.496 126.741C434.693 126.636 433.93 126.059 433.311 125.566C433.202 125.48 433.029 125.533 432.969 125.674C432.706 126.285 432.806 127.008 433.154 127.577C433.553 128.231 434.219 128.71 434.907 129.13C435.597 129.55 436.329 129.933 436.958 130.483C437.37 130.842 437.735 131.269 438.191 131.607C438.708 131.986 439.221 132.053 439.814 132.168C440.563 132.312 441.316 132.378 442.062 132.42C442.805 132.478 444.971 132.54 445.184 131.695C445.403 130.824 444.051 130.247 443.396 129.821C441.598 128.677 439.884 128.045 438.13 127.47L438.13 127.47Z" fill="#FBAE96"/>
<path d="M439.67 99.8403C441.133 98.4747 441.133 96.2607 439.67 94.8951C438.207 93.5295 435.835 93.5295 434.372 94.8951C432.909 96.2607 432.909 98.4747 434.372 99.8403C435.835 101.206 438.207 101.206 439.67 99.8403Z" fill="#FFCA42"/>
<path d="M437.023 100.258C436.909 100.258 436.796 100.252 436.682 100.241C435.859 100.157 435.121 99.7796 434.602 99.1777C434.083 98.5757 433.847 97.8211 433.937 97.053C434.026 96.285 434.43 95.5956 435.075 95.1115C435.72 94.6275 436.529 94.4069 437.352 94.4905C439.05 94.6627 440.282 96.0927 440.097 97.678C440.008 98.4461 439.603 99.1355 438.958 99.6195C438.403 100.037 437.726 100.258 437.023 100.258H437.023ZM437.011 94.604C436.34 94.604 435.694 94.8153 435.163 95.2137C434.547 95.6761 434.161 96.3341 434.075 97.0674C433.99 97.8007 434.216 98.5209 434.711 99.0959C435.206 99.6709 435.911 100.031 436.697 100.111C437.483 100.191 438.254 99.9801 438.87 99.5178C439.486 99.0554 439.872 98.3974 439.958 97.6641C440.134 96.1506 438.958 94.7849 437.336 94.6205C437.228 94.6096 437.119 94.604 437.011 94.604Z" fill="#D1990A"/>
<path d="M436.987 94.6037C436.949 94.6037 436.918 94.5746 436.918 94.5385V93.9522C436.918 93.9161 436.949 93.887 436.987 93.887C437.025 93.887 437.056 93.9161 437.056 93.9522V94.5385C437.056 94.5746 437.025 94.6037 436.987 94.6037Z" fill="#D1990A"/>
<path d="M436.987 100.843C436.949 100.843 436.918 100.814 436.918 100.778V100.192C436.918 100.156 436.949 100.126 436.987 100.126C437.025 100.126 437.056 100.156 437.056 100.192V100.778C437.056 100.814 437.025 100.843 436.987 100.843Z" fill="#D1990A"/>
<path d="M440.643 97.4322H440.015C439.977 97.4322 439.945 97.4029 439.945 97.3665C439.945 97.3301 439.977 97.3008 440.015 97.3008H440.643C440.682 97.3008 440.713 97.3301 440.713 97.3665C440.713 97.4029 440.682 97.4322 440.643 97.4322Z" fill="#D1990A"/>
<path d="M433.944 97.4322H433.316C433.277 97.4322 433.246 97.4029 433.246 97.3665C433.246 97.3301 433.277 97.3008 433.316 97.3008H433.944C433.983 97.3008 434.014 97.3301 434.014 97.3665C434.014 97.4029 433.983 97.4322 433.944 97.4322Z" fill="#D1990A"/>
<path d="M439.133 95.4318C439.115 95.4318 439.097 95.4253 439.083 95.4126C439.056 95.387 439.056 95.3457 439.083 95.3204L439.527 94.906C439.555 94.8803 439.599 94.8803 439.626 94.906C439.653 94.9316 439.653 94.9729 439.626 94.9982L439.182 95.4126C439.168 95.4253 439.15 95.4318 439.133 95.4318Z" fill="#D1990A"/>
<path d="M434.418 99.8449C434.4 99.8449 434.382 99.8383 434.368 99.8257C434.341 99.8001 434.341 99.7588 434.368 99.7335L434.812 99.3191C434.84 99.2934 434.884 99.2934 434.911 99.3191C434.939 99.3447 434.939 99.386 434.911 99.4112L434.467 99.8257C434.454 99.8383 434.435 99.8449 434.418 99.8449Z" fill="#D1990A"/>
<path d="M439.577 99.8441C439.559 99.8441 439.541 99.8376 439.527 99.825L439.083 99.4105C439.056 99.3849 439.056 99.3435 439.083 99.3183C439.111 99.2927 439.155 99.2927 439.182 99.3183L439.626 99.7328C439.653 99.7585 439.653 99.7998 439.626 99.825C439.612 99.8376 439.594 99.8441 439.577 99.8441Z" fill="#D1990A"/>
<path d="M434.862 95.4318C434.844 95.4318 434.826 95.4253 434.812 95.4126L434.368 94.9982C434.341 94.9725 434.341 94.9312 434.368 94.906C434.396 94.8803 434.44 94.8803 434.467 94.906L434.911 95.3204C434.939 95.3461 434.939 95.3874 434.911 95.4126C434.898 95.4253 434.879 95.4318 434.862 95.4318Z" fill="#D1990A"/>
<path d="M428.197 88.9161C427.606 88.9161 427.02 88.6169 426.786 88.3986C426.759 88.3729 426.759 88.3316 426.786 88.3064C426.814 88.2807 426.858 88.2807 426.885 88.3064C427.095 88.5025 427.652 88.7856 428.197 88.7856C428.209 88.7856 428.22 88.7856 428.232 88.7856C428.272 88.7856 428.303 88.8135 428.304 88.8491C428.305 88.8852 428.274 88.9153 428.236 88.9161C428.223 88.9161 428.21 88.9161 428.197 88.9161Z" fill="#E8825F"/>
<path d="M431.169 89.5349C430.579 89.5349 429.992 89.2356 429.759 89.0173C429.731 88.9916 429.732 88.9503 429.759 88.9251C429.786 88.8999 429.83 88.8994 429.858 88.9251C430.068 89.1212 430.625 89.4044 431.17 89.4044C431.181 89.4044 431.193 89.4044 431.205 89.4044C431.245 89.4044 431.276 89.4322 431.276 89.4679C431.277 89.504 431.247 89.534 431.208 89.5349C431.195 89.5349 431.182 89.5349 431.169 89.5349Z" fill="#E8825F"/>
<path d="M434.906 88.5959C434.879 88.5959 434.853 88.5812 434.842 88.5564C434.826 88.5233 434.843 88.485 434.878 88.4707L436.246 87.9231C436.282 87.9092 436.323 87.9244 436.338 87.9575C436.353 87.9905 436.337 88.0288 436.301 88.0432L434.933 88.5903C434.925 88.5938 434.915 88.5955 434.906 88.5955V88.5959Z" fill="#E8825F"/>
<path d="M428.231 92.1017C426.929 92.1017 425.702 91.9464 425.137 91.8633C425.099 91.8577 425.073 91.8242 425.079 91.7885C425.085 91.7529 425.121 91.7285 425.159 91.7342C425.908 91.8446 427.833 92.0825 429.534 91.9103C430.333 91.8294 431.438 91.5097 432.347 91.0961C432.382 91.0805 432.424 91.094 432.441 91.1261C432.458 91.1588 432.443 91.1975 432.409 91.2136C431.486 91.6333 430.364 91.9577 429.549 92.0404C429.116 92.0843 428.67 92.1017 428.231 92.1017H428.231Z" fill="#E8825F"/>
<path d="M424.968 94.6046C424.94 94.6046 424.914 94.589 424.903 94.5629C424.889 94.5294 424.907 94.4915 424.943 94.4785C427.183 93.6652 430.99 93.356 431.505 93.356C431.544 93.356 431.575 93.3851 431.575 93.4212C431.575 93.4573 431.544 93.4864 431.505 93.4864C430.995 93.4864 427.216 93.7935 424.994 94.6003C424.985 94.6033 424.977 94.6046 424.968 94.6046Z" fill="#E8825F"/>
<path d="M426.429 95.8189C426.421 95.8189 426.412 95.8176 426.404 95.8145C426.368 95.8015 426.35 95.7637 426.364 95.7302C426.567 95.2444 427.894 94.1209 429.027 93.5938C429.062 93.5777 429.104 93.5908 429.121 93.6229C429.138 93.6551 429.124 93.6943 429.09 93.7104C428.002 94.2166 426.684 95.3218 426.495 95.7776C426.484 95.8032 426.457 95.8193 426.429 95.8193L426.429 95.8189Z" fill="#E8825F"/>
</g>
<defs>
<clipPath id="clip0_2001_97">
<rect width="514" height="146" fill="white"/>
</clipPath>
</defs>
</svg>
