<svg width="363" height="134" viewBox="0 0 363 134" fill="none" xmlns="http://www.w3.org/2000/svg">
<g clip-path="url(#clip0_2006_510)">
<rect width="363" height="134" fill="#C7F2C9"/>
<path d="M391.953 120.889C391.895 121.165 391.835 121.439 391.773 121.711C390.305 128.211 387.964 133.361 384.77 136.318C363.288 139.073 247.975 138.22 247.975 138.22C242.609 134.816 238.843 128.872 236.798 121.711C236.72 121.438 236.645 121.165 236.572 120.889C234.456 112.873 234.449 103.432 236.714 94.3484C236.782 94.074 236.853 93.8001 236.926 93.5265C239.371 84.3018 244.178 75.5046 251.52 69.0189C252.252 68.3719 252.967 67.6937 253.667 66.9862C253.934 66.7162 254.198 66.4427 254.461 66.1643C261.301 58.9306 266.77 48.9963 273.179 39.6239C273.366 39.3492 273.555 39.0757 273.744 38.8021C279.062 31.124 285.061 23.8906 293.028 18.9163C293.479 18.6351 293.936 18.3608 294.399 18.0944C297.344 16.4006 300.554 15.0116 304.086 14.0117C322.222 8.8797 336.744 10.3489 350.107 18.0944C350.566 18.3612 351.025 18.6351 351.482 18.9163C359.013 23.5517 366.197 30.1998 373.484 38.8021C373.715 39.074 373.945 39.348 374.176 39.6239C374.488 39.9966 374.799 40.3728 375.111 40.7526C380.686 47.5383 384.98 56.4603 388.022 66.1643C388.108 66.4379 388.192 66.7114 388.276 66.9862C388.916 69.0863 389.499 71.2217 390.023 73.3776C390.06 73.5268 390.096 73.676 390.131 73.8256C390.141 73.8673 390.151 73.9082 390.161 73.95C390.393 74.9234 390.613 75.9009 390.822 76.8812V76.8824C391.329 79.2681 391.766 81.6698 392.135 84.0704C392.335 85.3715 392.515 86.6727 392.674 87.9706V87.9718C392.903 89.8333 393.09 91.6879 393.235 93.5269C393.257 93.8013 393.278 94.0752 393.298 94.3488C394.005 104.075 393.547 113.34 391.953 120.889L391.953 120.889Z" fill="#D5FBD7"/>
<path d="M247.124 120.235C247.077 120.325 247.009 120.422 246.905 120.432C246.814 120.441 246.729 120.373 246.693 120.293C246.656 120.212 246.658 120.122 246.662 120.034C246.683 119.643 246.754 119.255 246.874 118.881C246.915 118.755 246.965 118.624 247.069 118.538C247.702 118.015 247.248 120.002 247.124 120.235Z" fill="#7096B4"/>
<path d="M244.258 120.156C244.268 120.213 244.278 120.273 244.26 120.322C244.227 120.411 244.111 120.414 244.028 120.355C243.945 120.297 243.886 120.198 243.832 120.102C243.666 119.813 243.498 119.519 243.406 119.201C243.298 118.827 243.322 118.164 243.742 118.64C244.051 118.991 244.179 119.724 244.258 120.156Z" fill="#7096B4"/>
<path d="M249.468 101.285C249.94 100.602 250.152 99.7842 250.278 98.974C250.383 98.2949 250.483 97.5701 250.469 96.8831C250.458 96.3259 250.08 95.7359 249.499 96.046C248.977 96.3239 248.509 96.9332 248.173 97.3917C247.561 98.2247 247.15 99.1946 246.994 100.202C246.895 100.836 246.674 102.204 247.55 102.469C248.237 102.678 249.146 101.751 249.468 101.285Z" fill="#C7F2C9"/>
<path d="M245.316 100.879C245.787 101.885 246.092 102.962 246.217 104.058C246.278 104.59 246.29 105.155 246.038 105.632C245.921 105.853 245.728 106.06 245.473 106.101C245.073 106.165 244.743 105.811 244.53 105.48C243.667 104.136 243.274 102.521 243.427 100.951C243.451 100.701 243.492 100.443 243.637 100.234C244.21 99.4109 245.061 100.336 245.316 100.879H245.316Z" fill="#C7F2C9"/>
<path d="M250.449 103.126C250.139 103.963 249.69 104.753 249.125 105.457C248.89 105.749 248.628 106.033 248.289 106.208C248.149 106.281 247.955 106.326 247.845 106.215C247.8 106.17 247.779 106.108 247.764 106.047C247.595 105.367 247.89 104.667 248.207 104.037C248.557 103.338 248.97 102.602 249.634 102.129C250.604 101.438 250.734 102.359 250.45 103.126H250.449Z" fill="#C7F2C9"/>
<path d="M246.145 113.745L246.016 113.741C246.017 113.71 246.141 110.711 246.647 107.116C247.114 103.795 248.013 99.2735 249.641 96.5862L249.753 96.6455C248.136 99.316 247.241 103.822 246.775 107.131C246.27 110.72 246.146 113.715 246.145 113.745V113.745Z" fill="#E0BA89"/>
<path d="M245.95 113.463L245.823 113.445C246.34 110.269 245.593 104.335 244.223 100.747L244.344 100.707C245.72 104.31 246.47 110.271 245.95 113.463Z" fill="#E0BA89"/>
<path d="M246.921 112.902C246.733 111.447 246.892 109.543 247.344 107.81C247.732 106.322 248.527 104.209 250.109 102.598L250.204 102.679C247.324 105.612 246.74 110.497 247.049 112.888L246.921 112.902H246.921Z" fill="#E0BA89"/>
<path d="M243.168 110.35C244.131 109.867 245.193 109.762 245.193 108.664V107.717C245.193 107.616 245.304 107.536 245.436 107.541L246.526 107.585L247.616 107.541C247.748 107.536 247.859 107.616 247.859 107.717V108.427C247.859 108.913 248.113 109.387 248.559 109.733C249.019 110.089 249.705 110.177 250.134 110.531C250.371 110.728 250.525 110.974 250.648 111.225C251.56 113.095 250.472 115.132 249.885 116.975C249.476 118.262 249.066 119.548 248.656 120.835C248.651 120.853 248.645 120.871 248.639 120.889H243.699C243.416 119.674 243.132 118.459 242.849 117.243C242.636 116.33 241.951 113.476 241.926 112.943C241.9 112.411 242.003 111.874 242.237 111.372C242.42 110.978 242.698 110.59 243.154 110.359C243.159 110.356 243.164 110.353 243.169 110.351L243.168 110.35Z" fill="#C7F2C9"/>
<path d="M244.714 109.503C244.949 109.568 245.161 109.628 245.293 109.645C246.078 109.746 246.877 109.845 247.67 109.805C247.978 109.79 248.287 109.75 248.577 109.685C248.597 109.701 248.617 109.717 248.638 109.732C248.829 109.871 249.056 109.969 249.289 110.058C248.719 110.275 248.037 110.384 247.356 110.404C246.468 110.429 245.578 110.313 244.719 110.155C244.573 110.128 244.238 110.049 243.934 109.941C244.239 109.818 244.513 109.687 244.716 109.503H244.714Z" fill="#A3E1A6"/>
<path d="M246.874 108.918C246.268 108.922 245.659 108.876 245.059 108.803C245.063 108.759 245.066 108.713 245.066 108.664V108.337C245.765 108.414 246.472 108.48 247.172 108.464C247.415 108.458 247.659 108.441 247.893 108.411V108.427C247.893 108.569 247.917 108.709 247.961 108.847C247.612 108.892 247.243 108.916 246.875 108.918H246.874Z" fill="#A3E1A6"/>
<path d="M249.678 112.83C249.67 113.046 249.647 113.29 249.47 113.425C249.439 113.449 249.401 113.469 249.362 113.466C249.301 113.461 249.259 113.406 249.234 113.353C249.146 113.168 249.155 112.957 249.151 112.754C249.144 112.4 248.629 111.036 249.067 110.993C249.783 110.922 249.692 112.492 249.679 112.83L249.678 112.83Z" fill="#A3E1A6"/>
<path d="M247.016 112.391C247.016 112.737 247.016 113.083 247.017 113.429C247.017 113.502 247.016 113.579 246.976 113.642C246.9 113.764 246.704 113.771 246.581 113.69C246.459 113.609 246.395 113.47 246.349 113.334C246.178 112.832 246.17 112.281 246.327 111.774C246.406 111.521 246.595 111.228 246.865 111.442C247.064 111.6 247.015 112.172 247.015 112.391H247.016Z" fill="#A3E1A6"/>
<path d="M246.863 119.018C246.864 119.364 246.864 119.71 246.865 120.056C246.865 120.129 246.864 120.206 246.824 120.269C246.747 120.391 246.551 120.398 246.429 120.317C246.306 120.236 246.242 120.097 246.196 119.961C246.026 119.459 246.018 118.907 246.175 118.401C246.253 118.148 246.443 117.855 246.713 118.069C246.912 118.226 246.862 118.798 246.863 119.018H246.863Z" fill="#A3E1A6"/>
<path d="M248.349 113.318C248.325 113.419 248.283 113.533 248.181 113.568C248.092 113.599 247.99 113.552 247.932 113.48C247.875 113.408 247.852 113.317 247.833 113.228C247.751 112.832 247.719 112.426 247.741 112.022C247.748 111.886 247.764 111.743 247.846 111.631C248.342 110.954 248.411 113.055 248.349 113.318Z" fill="#A3E1A6"/>
<path d="M247.815 117.99C247.777 118.087 247.72 118.194 247.614 118.215C247.521 118.234 247.427 118.175 247.38 118.096C247.333 118.017 247.323 117.924 247.318 117.833C247.292 117.43 247.32 117.023 247.398 116.626C247.425 116.492 247.461 116.353 247.558 116.253C248.146 115.647 247.915 117.737 247.815 117.99V117.99Z" fill="#A3E1A6"/>
<path d="M248.995 116.074C248.952 116.169 248.89 116.274 248.783 116.291C248.69 116.305 248.598 116.242 248.554 116.161C248.511 116.08 248.506 115.987 248.505 115.896C248.498 115.492 248.544 115.087 248.641 114.694C248.673 114.561 248.716 114.424 248.817 114.328C249.433 113.747 249.105 115.825 248.994 116.074L248.995 116.074Z" fill="#A3E1A6"/>
<path d="M245.333 113.375C245.315 113.438 245.294 113.504 245.242 113.546C245.147 113.624 244.991 113.582 244.911 113.489C244.831 113.396 244.809 113.272 244.789 113.154C244.729 112.793 244.67 112.426 244.725 112.064C244.791 111.639 245.198 110.971 245.494 111.623C245.713 112.103 245.471 112.903 245.333 113.375L245.333 113.375Z" fill="#A3E1A6"/>
<path d="M245.638 118.087C245.619 118.15 245.598 118.215 245.547 118.258C245.452 118.336 245.295 118.293 245.215 118.201C245.136 118.108 245.113 117.984 245.094 117.865C245.034 117.505 244.974 117.137 245.03 116.776C245.096 116.351 245.503 115.683 245.799 116.334C246.017 116.814 245.776 117.614 245.637 118.087L245.638 118.087Z" fill="#A3E1A6"/>
<path d="M246.81 116.626C246.791 116.689 246.77 116.755 246.719 116.797C246.624 116.875 246.467 116.832 246.387 116.74C246.308 116.647 246.285 116.523 246.266 116.404C246.206 116.044 246.146 115.676 246.202 115.315C246.268 114.89 246.675 114.222 246.971 114.873C247.189 115.354 246.948 116.153 246.809 116.626L246.81 116.626Z" fill="#A3E1A6"/>
<path d="M244.149 111.376C244.248 111.95 244.174 112.552 243.939 113.089C243.923 113.126 243.905 113.164 243.873 113.191C243.799 113.253 243.676 113.224 243.61 113.154C243.544 113.085 243.521 112.988 243.504 112.895C243.438 112.541 243.418 112.179 243.446 111.82C243.471 111.486 244.025 110.655 244.149 111.376Z" fill="#A3E1A6"/>
<path d="M244.442 114.598C244.69 115.131 244.778 115.73 244.693 116.307C244.687 116.347 244.68 116.388 244.656 116.421C244.601 116.499 244.474 116.501 244.392 116.45C244.309 116.399 244.261 116.31 244.22 116.225C244.062 115.898 243.948 115.553 243.879 115.199C243.816 114.87 244.131 113.931 244.441 114.599L244.442 114.598Z" fill="#A3E1A6"/>
<path d="M374.176 39.6243H273.18C273.367 39.3496 273.555 39.076 273.745 38.8025H373.485C373.715 39.0744 373.945 39.3484 374.176 39.6243Z" fill="#C7F2C9"/>
<path d="M351.485 18.9172H293.031C293.482 18.636 293.938 18.3617 294.402 18.0953H350.11C350.569 18.3621 351.027 18.636 351.485 18.9172Z" fill="#C7F2C9"/>
<path d="M388.277 66.9866H253.668C253.935 66.7167 254.199 66.4432 254.462 66.1648H388.022C388.108 66.4383 388.193 66.7119 388.277 66.9866Z" fill="#C7F2C9"/>
<path d="M393.302 94.3485H236.719C236.787 94.0741 236.857 93.8002 236.93 93.5266H393.24C393.261 93.801 393.282 94.0749 393.302 94.3485Z" fill="#C7F2C9"/>
<path d="M391.954 120.889C391.896 121.165 391.836 121.439 391.775 121.711H236.8C236.722 121.438 236.647 121.165 236.574 120.889H391.954Z" fill="#9DE9A0"/>
<path d="M359.747 29.967H341.496V38.8031H359.747V29.967Z" fill="#C7F2C9"/>
<path d="M351.276 31.4973C351.276 31.1881 350.982 30.9374 350.618 30.9374C350.255 30.9374 349.961 31.1881 349.961 31.4973C349.961 31.7436 350.148 31.9525 350.408 32.0272V32.7624H350.829V32.0272C351.089 31.9525 351.276 31.7436 351.276 31.4973Z" fill="#A3E1A6"/>
<path d="M287.535 66.1651V63.6462H263.877V66.1651H287.535Z" fill="#C7F2C9"/>
<path d="M281.848 65.5586V64.2527H269.581V65.5586H281.848Z" fill="#A3E1A6"/>
<path d="M289.227 63.6464V60.3815H269.42V63.6464H289.227Z" fill="#C7F2C9"/>
<path d="M284.449 62.8603V61.1672H274.179V62.8603H284.449Z" fill="#A3E1A6"/>
<path d="M283.215 60.4395V58.7465H266.541V60.4395H283.215Z" fill="#C7F2C9"/>
<path d="M282.242 60.0327V59.1547H267.526V60.0327H282.242Z" fill="#A3E1A6"/>
<path d="M320.123 59.5814C321.556 59.7727 323.112 60.1241 323.965 61.2154C324.918 62.434 324.954 63.9332 324.349 65.3319C327.306 63.2538 329.19 60.4574 330.174 57.1275C330.798 55.0185 330.946 52.8137 331.002 50.6266C331.04 49.161 331.036 47.6741 330.632 46.2574C329.803 43.3527 327.395 41.0741 324.826 39.2612C323.045 38.0045 321.131 36.8947 319.056 36.1274C316.651 35.2386 314.048 34.8231 311.463 34.9161C310.295 34.9582 309.083 35.1195 308.115 35.7311C307.523 36.1054 307.058 36.6264 306.617 37.151C304.748 39.3759 303.14 41.8398 302.305 44.5576C301.34 47.7002 301.45 51.081 302.297 54.2528C302.894 56.491 303.849 58.634 305.014 60.6639C305.395 61.3277 307.204 63.6681 307.204 63.6681C307.204 63.6681 307.031 62.2346 307.799 61.3037C309.16 59.6548 316.44 59.0896 320.122 59.581L320.123 59.5814Z" fill="#5C2F1F"/>
<path d="M324.619 72.0701C322.511 67.9076 321.039 60.9161 321.349 54.7064C321.554 54.3538 310.886 54.708 311.09 55.0605C311.4 61.2699 310.333 67.9076 308.224 72.0701C307.543 73.4146 308.723 75.5865 309.43 76.8885C310.252 78.401 311.264 79.8164 312.565 81.0081C313.428 81.7991 314.91 82.9293 316.382 83.3445V83.3677C316.395 83.3641 316.408 83.3597 316.421 83.3561C316.435 83.3597 316.447 83.3641 316.461 83.3677V83.3445C317.933 82.9293 319.414 81.7991 320.278 81.0081C321.579 79.8164 322.591 78.401 323.413 76.8885C324.12 75.5869 325.3 73.4146 324.618 72.0701H324.619Z" fill="#FBAE96"/>
<g style="mix-blend-mode:multiply" opacity="0.28">
<path d="M320.719 60.5382C320.787 60.4937 315.023 59.6317 311.106 59.0521C311.064 60.0637 310.988 61.0704 310.879 62.0599C312.759 62.9102 317.255 64.3305 320.719 60.5382Z" fill="#FBAE96"/>
</g>
<path d="M329.468 41.9652C329.095 44.4195 327.596 50.553 326.666 52.6924C324.779 57.0331 322.332 60.6939 317.035 62.1595C316.276 62.3696 315.487 62.4362 314.718 62.2232C310.396 61.0236 307.124 56.857 305.541 53.2435C304.384 50.6051 303.223 47.9595 302.373 45.2181C301.148 41.2665 300.317 37.5672 302.232 33.7247C303.835 30.5067 306.822 27.8892 310.402 26.6715C312.864 25.834 314.955 26.3867 317.426 26.3683C318.683 26.3586 319.554 26.1657 320.847 26.501C323.316 27.1412 325.62 28.4287 327.191 30.3423C329.995 33.7608 330.116 37.7064 329.468 41.9652Z" fill="#FBAE96"/>
<path d="M330.47 33.9288C328.961 30.3169 325.738 27.3954 321.886 25.9458C320.831 25.5487 319.85 25.7417 318.847 25.515C318.753 25.4938 318.662 25.4673 318.573 25.4388C318.31 25.0446 317.991 24.7153 317.605 24.487C316.7 23.9524 313.003 24.2769 310.73 25.0221C300.496 28.3781 298.961 38.7471 298.846 40.2452C298.619 43.1804 298.562 46.1297 298.768 49.0661C298.973 51.9812 299.451 54.926 300.758 57.5809C302.064 60.2357 304.283 62.5934 307.193 63.6687C304.725 58.7052 303.716 53.1175 304.303 47.6731C304.394 46.8264 304.526 45.9732 304.867 45.1843C305.249 44.2999 305.865 43.5534 306.597 42.8908C307.373 42.4163 308.206 42.0088 309.04 41.6494C309.72 41.3562 310.415 41.0819 311.107 40.8023C312.73 40.1469 314.337 39.4627 315.712 38.4403C315.863 38.5386 316.017 38.632 316.171 38.7199C317.302 39.3628 318.527 39.8521 319.711 40.4057C320.399 40.7277 321.074 41.0711 321.708 41.4794C323.064 42.3526 324.208 43.5121 325.027 44.8462C325.392 45.4398 325.717 46.0924 326.314 46.4894C327.472 47.2591 329.006 46.0651 329.592 45.137C331.702 41.7978 331.979 37.541 330.47 33.9292L330.47 33.9288Z" fill="#7B3E29"/>
<path d="M321.973 49.7381C321.907 50.4709 322.584 51.0497 323.206 50.365C323.473 50.0702 323.495 49.5055 323.398 49.1429C323.292 48.7494 322.859 48.4875 322.452 48.7173C322.121 48.9043 322.004 49.4012 321.973 49.7381Z" fill="#7B3E29"/>
<path d="M315.885 56.5054C315.095 56.5054 314.306 56.4019 313.539 56.1953C313.504 56.1861 313.485 56.1528 313.495 56.1207C313.504 56.0886 313.54 56.0702 313.575 56.0794C315.062 56.4801 316.636 56.4865 318.127 56.0974C318.161 56.0886 318.197 56.1071 318.207 56.1392C318.216 56.1713 318.196 56.2045 318.162 56.2134C317.417 56.4079 316.651 56.505 315.885 56.505L315.885 56.5054Z" fill="#A45236"/>
<path d="M315.084 57.6785C315.049 57.6785 315.02 57.6518 315.02 57.6187C315.019 57.5852 315.047 57.5577 315.083 57.5573L316.42 57.5399C316.456 57.5399 316.485 57.5662 316.485 57.5997C316.485 57.6333 316.457 57.6607 316.421 57.6611L315.085 57.6785H315.084Z" fill="#A45236"/>
<path d="M316.645 53.8474C316.639 53.8474 316.633 53.8466 316.627 53.8454C316.189 53.7331 315.767 53.5362 315.408 53.2755C315.297 53.1952 315.174 53.0958 315.097 52.9638C314.917 52.6554 315.036 52.29 315.141 51.9675L315.152 51.9338C315.494 50.8817 315.55 49.7563 315.314 48.6793C315.307 48.6468 315.33 48.6152 315.364 48.6083C315.399 48.6019 315.433 48.6228 315.44 48.6553C315.681 49.7519 315.624 50.8978 315.275 51.9687L315.264 52.0028C315.162 52.3173 315.056 52.6421 315.211 52.9061C315.276 53.0188 315.388 53.1078 315.487 53.1804C315.833 53.4315 316.239 53.6212 316.662 53.7291C316.696 53.7379 316.716 53.7708 316.707 53.8029C316.699 53.8298 316.673 53.847 316.645 53.847V53.8474Z" fill="#A45236"/>
<path d="M324.686 47.2014C324.668 47.0072 324.114 46.7184 324.006 46.6663C323.63 46.4858 323.212 46.3799 322.79 46.3595C322.312 46.3366 321.819 46.4573 321.389 46.6466C321.098 46.775 320.346 47.1849 320.953 47.4893C321.161 47.5932 321.414 47.5138 321.638 47.4468C322.479 47.1969 323.389 47.1544 324.252 47.3253C324.348 47.3441 324.448 47.3654 324.542 47.3381C324.651 47.3056 324.691 47.2575 324.686 47.201V47.2014Z" fill="#7B3E29"/>
<path d="M310.732 49.7381C310.798 50.4709 310.121 51.0497 309.499 50.365C309.231 50.0702 309.209 49.5055 309.307 49.1429C309.413 48.7494 309.845 48.4875 310.253 48.7173C310.584 48.9043 310.701 49.4012 310.732 49.7381Z" fill="#7B3E29"/>
<path d="M308.008 47.2014C308.026 47.0072 308.58 46.7184 308.689 46.6663C309.065 46.4858 309.482 46.3799 309.904 46.3595C310.383 46.3366 310.875 46.4573 311.305 46.6466C311.597 46.775 312.349 47.1849 311.741 47.4893C311.533 47.5932 311.28 47.5138 311.056 47.4468C310.215 47.1969 309.305 47.1544 308.442 47.3253C308.346 47.3441 308.246 47.3654 308.153 47.3381C308.043 47.3056 308.003 47.2575 308.008 47.201V47.2014Z" fill="#7B3E29"/>
<path d="M328.169 45.2016C329.356 44.6698 330.868 45.2943 331.508 46.2914C332.147 47.2885 332.104 48.5227 331.873 49.6642C331.722 50.4115 331.492 51.1615 331.031 51.8105C330.569 52.459 329.849 53.0001 329 53.1597C328.15 53.3194 327.183 53.0314 326.762 52.38C326.611 52.1462 326.535 51.8807 326.472 51.6159C326.055 49.8427 325.866 46.2337 328.169 45.2016H328.169Z" fill="#FBAE96"/>
<path d="M327.232 51.3108C327.219 51.3108 327.208 51.3016 327.208 51.2896C327.136 50.1084 327.528 48.8858 328.283 47.9356C328.872 47.1932 329.612 46.7889 330.311 46.8258C330.324 46.8266 330.334 46.837 330.334 46.8495C330.333 46.8619 330.322 46.8715 330.308 46.8707C329.337 46.8194 328.596 47.6172 328.321 47.9625C327.574 48.9047 327.185 50.1164 327.256 51.2872C327.256 51.2996 327.246 51.31 327.233 51.3108C327.232 51.3108 327.232 51.3108 327.232 51.3108Z" fill="#A45236"/>
<path d="M327.544 49.3145C327.536 49.3145 327.527 49.3105 327.523 49.3033C327.516 49.2925 327.52 49.2788 327.532 49.2728C328.303 48.8593 329.206 48.8569 329.833 49.2664C329.844 49.2736 329.846 49.2876 329.839 49.2977C329.831 49.3077 329.816 49.3101 329.805 49.3033C329.194 48.9034 328.311 48.907 327.556 49.3117C327.552 49.3137 327.548 49.3145 327.544 49.3145Z" fill="#A45236"/>
<path d="M301.493 45.819C300.182 45.7047 298.997 46.7801 298.767 47.9224C298.538 49.0647 299.038 50.2082 299.679 51.2041C300.098 51.8559 300.593 52.4848 301.267 52.9441C301.941 53.4029 302.817 53.6773 303.673 53.5517C304.529 53.4262 305.329 52.843 305.482 52.0957C305.536 51.8274 305.51 51.5535 305.47 51.2851C305.202 49.487 304.037 46.0412 301.493 45.819Z" fill="#FBAE96"/>
<path d="M304.625 51.2867C304.598 51.2867 304.572 51.2703 304.564 51.2442C304.197 50.1316 303.388 49.1284 302.345 48.4919C301.965 48.2601 300.987 47.7595 300.113 48.1149C300.081 48.1281 300.043 48.1141 300.029 48.0836C300.015 48.0531 300.03 48.0178 300.062 48.0046C300.718 47.7378 301.575 47.879 302.416 48.3912C303.484 49.043 304.312 50.0702 304.688 51.2089C304.698 51.2406 304.679 51.2743 304.645 51.2839C304.639 51.2859 304.632 51.2867 304.626 51.2867H304.625Z" fill="#A45236"/>
<path d="M301.459 50.2443C301.446 50.2443 301.433 50.2407 301.422 50.2335C301.393 50.2146 301.386 50.1769 301.406 50.1497C301.85 49.5504 302.714 49.254 303.607 49.3944C303.642 49.4 303.665 49.4309 303.659 49.4638C303.653 49.4967 303.62 49.5183 303.585 49.5131C302.742 49.3808 301.928 49.6571 301.512 50.2182C301.499 50.2351 301.479 50.2443 301.459 50.2443Z" fill="#A45236"/>
<path d="M325.556 52.0677C325.969 56.6711 325.227 61.3061 324.048 65.7928C328.522 62.9546 331.949 58.6052 333.151 53.6825C333.314 53.0175 333.436 52.3449 333.538 51.6698C334.376 46.148 334.048 38.167 329.479 32.0219C329.023 31.4082 325.44 32.0026 324.825 31.5257C324.139 30.9943 328.605 32.6636 327.716 32.7174C326.826 32.7711 325.97 33.0495 325.149 33.3727C323.887 33.8693 322.675 34.4778 321.535 35.1869C321.139 35.4332 320.736 35.7079 320.525 36.1062C320.279 36.5691 320.335 37.1153 320.396 37.6287C320.568 39.0707 320.713 39.6519 321.579 40.8588C322.367 41.9566 323.031 43.1298 323.58 44.3475C324.633 46.6834 325.556 49.5091 325.556 52.0685L325.556 52.0677Z" fill="#7B3E29"/>
<path d="M342.733 81.2105C339.676 77.3355 334.309 76.1695 329.868 74.2427C327.514 73.2215 325.428 72.2513 323.827 70.3108C323.404 69.7974 309.733 68.9643 308.974 70.3633C307.831 72.4715 305.003 73.2215 302.649 74.2427C298.207 76.1695 293.48 77.7194 290.423 81.5943C288.814 83.6343 287.485 85.9025 287.913 88.4041C288.251 90.3819 289.239 92.2009 290.103 94.0343C293.28 100.777 297.888 124.291 300.072 136.573C308.015 140.774 326.917 138.442 332.076 136.843C334.339 124.306 339.309 100.623 342.413 94.0338C343.277 92.2004 344.265 90.3815 344.603 88.4037C345.031 85.9021 344.342 83.25 342.732 81.2101L342.733 81.2105Z" fill="#FBAE96"/>
<path d="M334.193 75.9255C334.193 75.9255 318.335 78.6169 300.748 75.0162C292.605 77.0241 287.01 83.2719 283.234 90.9974C277.656 102.409 293.754 94.5367 294.664 112.118C294.694 112.707 295.555 113.531 295.525 113.464C295.97 114.449 296.028 115.796 296.251 116.849C296.766 119.277 297.261 121.708 297.743 124.141C298.562 128.279 299.342 132.423 300.08 136.573C308.023 140.775 326.925 138.442 332.084 136.844C334.347 124.306 339.317 100.623 342.422 94.0345C343.285 92.2011 344.45 82.4429 343.312 80.8457C340.839 77.3747 334.194 75.9251 334.194 75.9251L334.193 75.9255Z" fill="white"/>
<path d="M343.532 81.227C349.699 89.0455 353.417 102.374 356.994 112.213C360.617 122.179 360.389 124.7 359.354 127.069C357.814 130.593 344.655 126.838 341.943 121.176C339.229 115.513 335.231 104.708 333.554 99.8349C331.878 94.9616 334.317 82.6147 343.532 81.2266V81.227Z" fill="white"/>
<path d="M310.02 132.14C310.02 132.14 309.86 133.264 309.4 134.194C309.076 134.851 308.602 135.412 307.931 135.412C305.551 135.412 301.877 135.589 300.794 135.412C300.36 135.342 300.311 135.072 300.528 134.605C300.788 134.047 301.43 133.207 302.254 132.085C302.465 131.797 302.688 131.491 302.92 131.167L308.097 131.876L310.021 132.14H310.02Z" fill="#FCC583"/>
<path d="M326.469 131.609C326.408 133.089 326.138 135.412 325.033 135.412C322.653 135.412 318.979 135.589 317.896 135.412C317.462 135.342 317.412 135.073 317.63 134.605C317.677 134.503 317.737 134.392 317.809 134.272C318.23 133.562 319.05 132.528 320.022 131.167L324.673 130.623L326.479 130.411C326.479 130.411 326.497 130.918 326.469 131.609L326.469 131.609Z" fill="#FCC583"/>
<path d="M334.191 119.05C334.191 127.158 324.773 133.732 313.154 133.732C307.88 133.732 303.06 132.378 299.368 130.14C297.004 128.707 295.102 126.912 293.84 124.879C293.547 124.406 290.389 124.759 289.944 124.416C289.138 123.797 289.496 118.225 290.159 117.488C290.388 117.233 292.336 116.856 292.479 116.327C294.308 109.52 302.87 104.369 313.154 104.369C319.958 104.369 326.008 106.623 329.853 110.12C332.574 112.594 334.191 115.691 334.191 119.05Z" fill="#FCC583"/>
<path d="M302.899 109.675C302.244 110.004 301.607 110.058 301.057 109.931C301.011 109.884 300.967 109.836 300.926 109.787C300.918 109.777 300.907 109.768 300.898 109.759C299.587 108.423 299.043 104.664 299.4 103.777C299.44 103.676 299.506 103.612 299.593 103.579C299.776 103.509 300.051 103.576 300.382 103.735C301.609 104.457 302.933 105.349 303.346 105.815C304.091 106.654 304.984 108.628 302.899 109.674V109.675Z" fill="#FCC583"/>
<path d="M333.271 115.706C334.107 115.853 335.276 115.739 335.881 115.283C336.96 114.47 337.386 113.165 337.666 111.924C337.783 111.293 338.067 110.032 337.465 109.562C337.077 109.265 336.483 109.498 336.25 109.871C336.019 110.238 336.038 110.684 336.15 111.09C336.641 112.806 338.889 113.809 340.653 113.201C342.052 112.717 342.376 111.999 342.073 112.416C340.709 114.295 337.388 113.783 336.21 111.908C335.78 111.224 335.534 110.214 336.137 109.553C336.504 109.163 337.188 108.998 337.645 109.353C338.385 109.935 338.171 111.193 338.012 111.948C337.77 112.968 337.522 114.358 336.862 115.219C336.062 116.285 334.645 117.27 333.211 116.96C332.393 116.797 332.209 115.521 333.27 115.707L333.271 115.706Z" fill="#FCC583"/>
<path d="M322.439 107.117C320.223 106.509 317.492 106.094 314.527 105.974C311.523 105.853 308.731 106.054 306.45 106.494C306.35 106.388 306.236 106.334 306.09 106.243C308.004 105.45 311.035 105.075 314.561 105.244C318.54 105.434 320.89 106.016 322.749 106.894C322.658 106.955 322.56 107.025 322.439 107.117H322.439Z" fill="#BD8440"/>
<path d="M299.487 114.506C299.591 113.835 299.402 113.254 299.065 113.209C298.728 113.163 298.37 113.67 298.266 114.341C298.162 115.012 298.351 115.593 298.688 115.639C299.026 115.684 299.383 115.177 299.487 114.506Z" fill="#BD8440"/>
<path d="M292.264 79.1963C284.184 85.311 275.493 98.1857 269.373 106.865C263.175 115.656 261.821 122.568 265.896 125.308C269.204 127.534 277.363 123.921 281.517 119.081C285.672 114.24 292.461 104.725 295.4 100.404C298.339 96.0827 300.806 82.7087 292.264 79.1967V79.1963Z" fill="white"/>
<path d="M301.176 96.1022C301.151 96.1222 301.125 96.1435 301.099 96.1655C301.08 96.1812 301.061 96.1972 301.042 96.2137C300.619 96.5755 299.078 97.054 298.344 97.8586C292.525 104.234 279.047 122.833 274.777 124.731C269.908 126.894 266.501 126.049 265.072 123.725C263.037 120.419 264.46 116.469 268.271 112.539C271.861 108.837 289.753 97.2088 294.898 91.4615C295.214 91.1089 295.482 90.7788 295.695 90.474C295.695 90.4736 295.696 90.4732 295.696 90.4724C297.227 88.2836 301.542 91.4122 301.951 94.0674C302.069 94.8307 301.863 95.5547 301.176 96.1022Z" fill="#FBAE96"/>
<path d="M297.556 89.5516C296.793 88.9816 297.042 88.0535 298.042 86.8346C299.041 85.6157 301.884 82.427 302.576 81.6336C303.267 80.8402 305.707 78.5211 306.913 78.619C308.032 78.71 304.937 82.8409 304.645 83.2047C304.352 83.5685 300.788 87.6011 300.073 88.4498C299.357 89.2985 298.437 90.209 297.556 89.5512L297.556 89.5516Z" fill="#FBAE96"/>
<path d="M300.63 89.277C299.867 88.7071 300.116 87.779 301.116 86.56C302.115 85.3411 304.958 82.1524 305.65 81.3591C306.341 80.5657 308.769 78.2466 309.986 78.3444C311.106 78.4343 308.011 82.5663 307.719 82.9301C307.426 83.2939 303.861 87.3265 303.146 88.1752C302.431 89.024 301.511 89.9344 300.63 89.2766V89.277Z" fill="#FBAE96"/>
<path d="M310.94 90.6219C311.423 91.2195 311.97 92.0037 312.367 92.2511C312.763 92.4986 315.543 94.3284 313.605 90.7751C311.668 87.2218 312.148 87.438 311.107 86.1461C310.066 84.8542 306.702 86.394 303.733 87.6771C300.659 89.0059 300.263 90.3475 300.666 90.9813C301.069 91.6154 302.27 92.4388 304.182 91.1072C306.081 89.7844 309.061 88.0116 309.604 88.8081C310.147 89.6047 310.527 90.1105 310.94 90.6219Z" fill="#FBAE96"/>
<path d="M303.829 89.1402C303.066 88.5702 303.316 87.6421 304.315 86.4232C305.315 85.2042 308.157 82.0155 308.849 81.2222C309.541 80.4288 312.161 77.9224 313.186 78.2075C314.263 78.5072 311.211 82.4295 310.918 82.7933C310.626 83.157 307.061 87.1896 306.346 88.0384C305.631 88.8871 304.71 89.7976 303.83 89.1398L303.829 89.1402Z" fill="#FBAE96"/>
<path d="M306.737 96.0392C307.38 96.8025 308.425 97.1739 308.921 97.6881C309.416 98.2023 309.816 99.3575 308.092 98.9331C306.368 98.5088 305.844 97.9733 304.437 97.484C303.472 97.1482 302.65 97.4398 301.506 97.4078C300.058 97.3668 300.093 96.5282 298.77 97.484C297.197 98.6191 308.03 86.3231 306.763 87.6913C305.61 88.9351 303.816 91.2542 304.187 93.307C304.375 94.3438 306.19 95.3898 306.737 96.0392H306.737Z" fill="#FBAE96"/>
<path d="M305.706 88.849C305.706 88.849 305.694 88.981 305.671 89.2104C305.646 89.4671 301.632 95.8762 301.098 96.1658C301.066 96.183 301.034 96.2007 301.002 96.2183C300.572 96.4598 299.781 96.2657 299.382 96.5629C298.899 96.921 298.294 97.2884 297.948 97.5624C296.564 98.6578 291.774 96.7161 293.569 94.0749C294.083 93.3208 294.546 92.5279 294.996 91.7273C295.23 91.3101 295.461 90.8914 295.694 90.4743C295.694 90.4739 295.695 90.4735 295.695 90.4727C296.402 89.2052 297.125 87.9582 298.009 86.8536C298.213 86.5981 298.426 86.3502 298.649 86.1116C299.743 84.9436 304.705 87.2366 305.706 88.849Z" fill="#FBAE96"/>
<path d="M301.619 86.5436C301.606 86.5436 301.592 86.5396 301.581 86.5316C301.552 86.5115 301.546 86.4742 301.567 86.4474C301.589 86.4197 303.806 83.6397 306.108 80.9283C306.131 80.9022 306.171 80.8978 306.199 80.9187C306.227 80.9392 306.232 80.9773 306.209 81.0033C303.908 83.7135 301.693 86.4919 301.671 86.5196C301.658 86.5356 301.639 86.5436 301.619 86.5436H301.619Z" fill="#E8825F"/>
<path d="M304.354 87.1141C304.34 87.1141 304.327 87.1101 304.315 87.1021C304.287 87.082 304.281 87.0447 304.302 87.0178C304.326 86.9874 306.762 83.9403 309.065 81.2289C309.087 81.2028 309.128 81.1984 309.155 81.2192C309.183 81.2397 309.188 81.2778 309.166 81.3039C306.865 84.0141 304.429 87.0596 304.405 87.09C304.393 87.1061 304.373 87.1141 304.354 87.1141Z" fill="#E8825F"/>
<path d="M359.546 123.614C358.122 120.041 353.957 118.536 348.283 118.761C342.61 118.986 322.327 125.661 315.618 124.938C312.036 124.552 312.491 130.849 316.513 131.264C320.534 131.679 349.278 133.336 354.172 131.223C359.067 129.11 360.547 126.125 359.546 123.614Z" fill="#FBAE96"/>
<path d="M304.556 128.739C304.226 126.858 304.058 125.032 304.412 123.258C305.621 123.377 307.245 123.455 308.367 123.645C310.084 123.945 311.739 124.454 313.45 124.868C314.327 125.077 314.982 124.546 315.792 124.604C316.728 124.671 319.824 124.765 321.571 124.511C322.676 124.35 321.378 126.861 321.726 127.832C321.769 127.951 321.809 128.074 321.798 128.186C321.785 128.32 321.697 128.422 321.612 128.517C320.686 129.552 320.835 131.477 319.222 131.477C317.129 131.477 314.895 131.638 313.244 131.631C310.846 131.642 307.617 131.537 305.016 131.476C304.452 130.456 304.743 129.772 304.556 128.739Z" fill="#FBAE96"/>
<path d="M296.303 122.474C295.938 122.457 295.558 122.441 295.211 122.522C294.865 122.604 294.551 122.803 294.502 123.086C294.484 123.187 294.504 123.299 294.59 123.388C294.691 123.494 294.861 123.544 295.016 123.587C298.692 124.579 301.727 124.966 305.445 125.66C306.783 125.89 306.018 123.993 305.387 123.591C304.844 123.252 304.246 123.244 303.602 123.158C301.309 122.85 298.93 122.602 296.303 122.474H296.303Z" fill="#FBAE96"/>
<path d="M296.814 128.177C296.409 128.091 295.987 128 295.607 128.049C295.227 128.099 294.91 128.341 295.017 128.651C295.102 128.898 295.417 129.102 295.713 129.266C297.696 130.364 299.986 130.903 302.137 131.208C303.933 131.457 305.204 131.627 307.09 131.288C307.256 131.257 307.431 130.803 307.512 130.69C307.891 130.151 306.98 129.467 306.347 129.333C305.636 129.184 304.707 129.301 303.968 129.238C301.665 129.047 299.272 128.699 296.813 128.177L296.814 128.177Z" fill="#FBAE96"/>
<path d="M304.794 125.644C304.9 125.979 296.222 123.973 293.54 124.31C293.255 124.346 292.983 124.476 292.834 124.706C292.383 125.402 292.84 127.033 304.624 129.103C305.463 129.269 306.299 129.415 307.129 129.541C306.229 128.234 305.451 126.932 304.795 125.644H304.794Z" fill="#FBAE96"/>
<path d="M304.599 127.421C304.596 127.421 304.594 127.421 304.591 127.421C301.112 126.985 297.292 126.368 292.92 124.821C292.887 124.81 292.871 124.775 292.883 124.744C292.895 124.713 292.933 124.698 292.966 124.709C297.325 126.252 301.137 126.867 304.607 127.301C304.643 127.306 304.668 127.336 304.663 127.369C304.659 127.399 304.631 127.421 304.599 127.421V127.421Z" fill="#E8825F"/>
<path d="M310.76 122.099C309.95 121.833 309.164 121.534 308.331 121.426C307.59 121.33 306.887 120.798 306.316 120.343C306.215 120.263 306.056 120.313 306 120.442C305.758 121.006 305.85 121.673 306.171 122.198C306.539 122.801 307.153 123.243 307.788 123.629C308.424 124.017 309.099 124.37 309.679 124.877C310.059 125.208 310.396 125.603 310.816 125.913C311.293 126.264 311.766 126.325 312.313 126.431C313.004 126.564 313.698 126.625 314.386 126.664C315.071 126.717 317.069 126.775 317.265 125.995C317.467 125.192 316.221 124.66 315.616 124.267C313.959 123.212 312.377 122.629 310.76 122.099L310.76 122.099Z" fill="#FBAE96"/>
<path d="M312.173 96.6183C313.522 95.3589 313.522 93.3171 312.173 92.0577C310.824 90.7984 308.636 90.7984 307.287 92.0577C305.938 93.3171 305.938 95.3589 307.287 96.6183C308.636 97.8776 310.824 97.8777 312.173 96.6183Z" fill="#FFCA42"/>
<path d="M309.73 97.0044C309.626 97.0044 309.522 96.9992 309.416 96.9884C308.657 96.9114 307.976 96.5632 307.498 96.0081C307.02 95.453 306.802 94.7571 306.884 94.0488C306.967 93.3404 307.34 92.7047 307.935 92.2583C308.529 91.8119 309.275 91.6085 310.034 91.6855C311.6 91.8444 312.736 93.1631 312.566 94.6251C312.483 95.3335 312.11 95.9692 311.516 96.4156C311.003 96.8003 310.379 97.0044 309.731 97.0044H309.73ZM309.72 91.7902C309.101 91.7902 308.505 91.9851 308.015 92.3525C307.447 92.7789 307.091 93.3858 307.012 94.062C306.934 94.7382 307.142 95.4025 307.599 95.9327C308.055 96.4629 308.706 96.7951 309.43 96.8689C310.155 96.9423 310.866 96.7481 311.434 96.3218C312.002 95.8954 312.358 95.2885 312.437 94.6123C312.6 93.2165 311.515 91.9571 310.02 91.8054C309.92 91.7954 309.819 91.7902 309.72 91.7902Z" fill="#D1990A"/>
<path d="M309.7 91.7903C309.665 91.7903 309.637 91.7634 309.637 91.7301V91.1894C309.637 91.1561 309.665 91.1293 309.7 91.1293C309.735 91.1293 309.764 91.1561 309.764 91.1894V91.7301C309.764 91.7634 309.735 91.7903 309.7 91.7903Z" fill="#D1990A"/>
<path d="M309.7 97.5445C309.665 97.5445 309.637 97.5177 309.637 97.4844V96.9437C309.637 96.9104 309.665 96.8835 309.7 96.8835C309.735 96.8835 309.764 96.9104 309.764 96.9437V97.4844C309.764 97.5177 309.735 97.5445 309.7 97.5445Z" fill="#D1990A"/>
<path d="M313.073 94.3986H312.494C312.458 94.3986 312.43 94.3715 312.43 94.338C312.43 94.3044 312.458 94.2773 312.494 94.2773H313.073C313.109 94.2773 313.138 94.3044 313.138 94.338C313.138 94.3715 313.109 94.3986 313.073 94.3986Z" fill="#D1990A"/>
<path d="M306.902 94.3984H306.322C306.287 94.3984 306.258 94.3714 306.258 94.3378C306.258 94.3043 306.287 94.2772 306.322 94.2772H306.902C306.937 94.2772 306.966 94.3043 306.966 94.3378C306.966 94.3714 306.937 94.3984 306.902 94.3984Z" fill="#D1990A"/>
<path d="M311.69 92.5539C311.673 92.5539 311.656 92.5479 311.644 92.5363C311.619 92.5126 311.619 92.4745 311.644 92.4513L312.054 92.069C312.079 92.0454 312.12 92.0454 312.145 92.069C312.17 92.0927 312.17 92.1308 312.145 92.154L311.735 92.5363C311.723 92.5479 311.706 92.5539 311.69 92.5539Z" fill="#D1990A"/>
<path d="M307.338 96.6236C307.322 96.6236 307.305 96.6176 307.292 96.606C307.267 96.5823 307.267 96.5442 307.292 96.521L307.702 96.1387C307.727 96.1151 307.768 96.1151 307.793 96.1387C307.818 96.1624 307.818 96.2005 307.793 96.2237L307.384 96.606C307.371 96.6176 307.354 96.6236 307.338 96.6236Z" fill="#D1990A"/>
<path d="M312.099 96.6227C312.083 96.6227 312.066 96.6166 312.054 96.605L311.644 96.2228C311.619 96.1991 311.619 96.161 311.644 96.1377C311.669 96.1141 311.71 96.1141 311.735 96.1377L312.145 96.52C312.17 96.5436 312.17 96.5818 312.145 96.605C312.132 96.6166 312.115 96.6227 312.099 96.6227Z" fill="#D1990A"/>
<path d="M307.748 92.5539C307.731 92.5539 307.714 92.5479 307.702 92.5363L307.292 92.154C307.267 92.1304 307.267 92.0923 307.292 92.069C307.318 92.0454 307.359 92.0454 307.384 92.069L307.793 92.4513C307.818 92.4749 307.818 92.513 307.793 92.5363C307.781 92.5479 307.764 92.5539 307.748 92.5539Z" fill="#D1990A"/>
<path d="M301.585 86.5442C301.041 86.5442 300.5 86.2682 300.284 86.0669C300.259 86.0432 300.26 86.0051 300.284 85.9819C300.31 85.9582 300.351 85.9582 300.376 85.9819C300.569 86.1628 301.083 86.4239 301.586 86.4239C301.596 86.4239 301.607 86.4239 301.618 86.4239C301.655 86.4239 301.683 86.4495 301.684 86.4824C301.685 86.5157 301.657 86.5434 301.621 86.5442C301.609 86.5442 301.597 86.5442 301.585 86.5442Z" fill="#E8825F"/>
<path d="M304.327 87.1142C303.783 87.1142 303.242 86.8383 303.027 86.6369C303.001 86.6133 303.002 86.5752 303.027 86.5519C303.052 86.5286 303.093 86.5282 303.118 86.5519C303.312 86.7328 303.825 86.9939 304.328 86.9939C304.339 86.9939 304.349 86.9939 304.36 86.9939C304.398 86.9939 304.425 87.0196 304.426 87.0525C304.427 87.0858 304.399 87.1134 304.364 87.1142C304.352 87.1142 304.34 87.1142 304.327 87.1142Z" fill="#E8825F"/>
<path d="M307.776 86.2493C307.751 86.2493 307.727 86.2356 307.716 86.2128C307.702 86.1823 307.717 86.147 307.75 86.1337L309.011 85.6288C309.044 85.6159 309.082 85.63 309.096 85.6605C309.11 85.6909 309.095 85.7262 309.062 85.7395L307.801 86.2441C307.793 86.2473 307.784 86.2489 307.776 86.2489V86.2493Z" fill="#E8825F"/>
<path d="M301.618 89.4813C300.418 89.4813 299.286 89.3381 298.765 89.2615C298.73 89.2563 298.706 89.2254 298.712 89.1925C298.717 89.1596 298.75 89.1372 298.786 89.1424C299.476 89.2443 301.252 89.4637 302.82 89.3048C303.557 89.2302 304.576 88.9354 305.415 88.554C305.447 88.5396 305.485 88.552 305.501 88.5817C305.517 88.6117 305.503 88.6474 305.471 88.6623C304.621 89.0493 303.585 89.3486 302.834 89.4248C302.435 89.4653 302.023 89.4813 301.619 89.4813H301.618Z" fill="#E8825F"/>
<path d="M298.611 91.7906C298.586 91.7906 298.561 91.7761 298.551 91.7521C298.538 91.7212 298.555 91.6863 298.588 91.6743C300.654 90.9242 304.165 90.639 304.64 90.639C304.675 90.639 304.704 90.6659 304.704 90.6992C304.704 90.7325 304.675 90.7594 304.64 90.7594C304.169 90.7594 300.684 91.0425 298.635 91.7866C298.627 91.7894 298.619 91.7906 298.611 91.7906Z" fill="#E8825F"/>
<path d="M299.963 92.9098C299.955 92.9098 299.947 92.9086 299.939 92.9058C299.906 92.8938 299.89 92.8589 299.903 92.828C300.09 92.3799 301.314 91.3439 302.359 90.8578C302.391 90.843 302.429 90.855 302.445 90.8847C302.461 90.9144 302.448 90.9505 302.416 90.9653C301.413 91.4322 300.198 92.4513 300.023 92.8717C300.013 92.8954 299.989 92.9102 299.963 92.9102L299.963 92.9098Z" fill="#E8825F"/>
</g>
<defs>
<clipPath id="clip0_2006_510">
<rect width="363" height="134" fill="white"/>
</clipPath>
</defs>
</svg>
