<svg width="148" height="127" viewBox="0 0 148 127" fill="none" xmlns="http://www.w3.org/2000/svg">
<path d="M7.35349 83.3871C7.13987 83.3871 6.92538 83.3755 6.71177 83.352C3.7694 83.0361 1.35544 80.9755 0.4102 77.9745C-0.728996 74.3518 0.544614 70.3668 3.73326 67.5762C9.94031 62.1445 20.5914 63.1916 27.6396 63.8857C28.8537 64.0057 29.7423 65.089 29.6226 66.3059C29.5041 67.5232 28.4221 68.4152 27.2083 68.2941C20.9166 67.6759 11.407 66.7395 6.63863 70.9137C4.76406 72.5529 4.01105 74.6949 4.62416 76.6419C5.03867 77.9585 5.99489 78.8213 7.18294 78.948C7.78592 79.0117 8.50164 78.7205 9.0075 78.2043C9.19944 78.0072 9.63766 77.4844 9.56077 76.8764C9.52393 76.5878 9.54417 76.2949 9.62033 76.0142C9.6965 75.7335 9.82709 75.4706 10.0047 75.2406C10.1822 75.0105 10.4032 74.8178 10.6551 74.6735C10.907 74.5291 11.1848 74.436 11.4726 74.3993C11.7604 74.3625 12.0525 74.3829 12.3324 74.4593C12.6122 74.5357 12.8744 74.6666 13.1038 74.8446C13.3332 75.0225 13.5253 75.2441 13.6693 75.4965C13.8133 75.749 13.9063 76.0274 13.943 76.3159C14.169 78.098 13.5198 79.916 12.1623 81.305C10.8627 82.6341 9.10347 83.3871 7.35349 83.3871Z" fill="#EDAA9D"/>
<path d="M135.809 56.8563C132.992 43.5761 124.198 32.5176 112.387 26.6309V9.03818C112.387 7.54853 111.081 6.39014 109.608 6.5849C101.125 7.70909 94.2419 13.9129 92.0909 22.0471H64.3273C40.1207 22.0471 19.9348 41.9027 20.0002 66.1724C20.0377 80.2922 26.7142 92.8389 37.0572 100.865C37.1951 107.198 37.8972 113.615 38.5759 118.507C39.2523 123.377 43.4041 127 48.3092 127C53.2143 127 57.3661 123.377 58.0425 118.507C58.3981 115.943 58.7606 112.957 59.0441 109.786C60.6372 109.962 62.2519 110.059 63.8917 110.059H92.8847C94.0184 110.059 95.1408 110.014 96.2517 109.93C96.5072 112.726 96.8272 115.515 97.2114 118.295C97.8858 123.188 101.996 126.973 106.921 127C111.85 127.026 116.029 123.395 116.708 118.507C117.346 113.906 118.006 107.956 118.196 101.996C124.805 97.305 130.065 90.8308 133.277 83.2695C133.433 82.9006 133.694 82.5859 134.027 82.3646C134.36 82.1434 134.751 82.0254 135.151 82.0253H143.702C146.075 82.0253 147.997 80.0972 147.997 77.7187V61.163C147.997 58.7844 146.075 56.8563 143.702 56.8563H135.809Z" fill="#FFD2C0"/>
<path d="M143.691 56.8563H141.257C141.265 56.9665 141.273 57.0752 141.273 57.1862V73.7419C141.273 76.1204 139.35 78.0482 136.978 78.0482H128.27C127.917 78.0478 127.571 78.1517 127.277 78.3471C126.982 78.5425 126.751 78.8206 126.614 79.1466C123.524 86.4969 118.501 92.8277 112.184 97.5021C111.964 97.6643 111.782 97.8742 111.654 98.1162C111.525 98.3583 111.453 98.6262 111.441 98.9002C111.216 104.562 110.592 110.155 109.984 114.53C109.306 119.418 105.126 123.049 100.197 123.023C99.8261 123.02 99.456 122.996 99.0882 122.949C100.882 125.393 103.726 126.983 106.911 127C111.84 127.026 116.019 123.395 116.697 118.507C117.336 113.906 117.996 107.956 118.185 101.996C124.795 97.305 130.055 90.8308 133.266 83.2696C133.423 82.9006 133.684 82.5859 134.017 82.3647C134.35 82.1434 134.741 82.0254 135.141 82.0254H143.692C146.064 82.0254 147.987 80.0972 147.987 77.7187V61.163C147.987 58.7857 146.064 56.8563 143.691 56.8563ZM96.2563 110.059H63.8818C62.2434 110.059 60.6264 109.962 59.0334 109.788C58.7703 112.702 58.4363 115.609 58.0318 118.507C57.3542 123.377 53.2044 127 48.2973 127C45.0598 127 42.149 125.418 40.3516 122.944C40.7568 122.996 41.1656 123.023 41.5844 123.023C46.4907 123.023 50.6413 119.4 51.3189 114.53C51.7229 111.632 52.0565 108.725 52.3193 105.811C53.9126 105.985 55.5294 106.082 57.1689 106.082C57.1689 106.082 85.0907 106.052 95.9363 105.996C96.0242 107.373 96.1337 108.735 96.2557 110.06L96.2563 110.059ZM118.828 54.2176C118.242 54.2177 117.68 53.9846 117.265 53.5693C116.851 53.1541 116.618 52.5908 116.618 52.0034V46.9803C116.618 46.6894 116.675 46.4014 116.786 46.1326C116.897 45.8639 117.06 45.6198 117.265 45.4141C117.47 45.2085 117.714 45.0454 117.982 44.9342C118.25 44.8231 118.538 44.7659 118.828 44.7661C119.413 44.7661 119.975 44.9994 120.389 45.4146C120.803 45.8299 121.036 46.3931 121.036 46.9803V52.0034C121.036 52.5906 120.803 53.1537 120.389 53.5689C119.975 53.9841 119.413 54.2174 118.828 54.2176Z" fill="#EDAA9D"/>
<path d="M96.2164 109.932C96.0894 108.575 95.9818 107.215 95.8935 105.855C95.8065 104.482 95.742 103.143 95.7016 101.875C95.6835 101.301 95.4431 100.755 95.0314 100.355C94.6196 99.9551 94.0687 99.7312 93.4952 99.7309C93.4715 99.7309 93.4478 99.7309 93.4241 99.7321C93.134 99.7412 92.8487 99.8075 92.5842 99.9272C92.3198 100.047 92.0814 100.218 91.8828 100.43C91.6842 100.642 91.5292 100.891 91.4267 101.163C91.3242 101.435 91.2761 101.725 91.2853 102.016C91.3272 103.33 91.3937 104.717 91.4842 106.139C91.5642 107.383 91.6683 108.703 91.7911 110.059H92.8821C94.0045 110.059 95.1154 110.015 96.2164 109.932ZM36.0529 85.3862C35.4778 85.2748 34.8821 85.3969 34.3967 85.7258C33.9114 86.0546 33.5762 86.5633 33.4649 87.1399C32.8946 90.0914 32.618 93.4028 32.5469 96.8443C33.9344 98.2627 35.4154 99.586 36.9799 100.805C36.8513 94.4032 37.3549 90.2986 37.802 87.9809C37.8572 87.6954 37.8557 87.4018 37.7976 87.1169C37.7395 86.832 37.6261 86.5613 37.4637 86.3204C37.3013 86.0794 37.0931 85.8729 36.8511 85.7126C36.6091 85.5523 36.3377 85.4414 36.0529 85.3862Z" fill="#EDAA9D"/>
<path d="M85.9166 18.281C85.9166 24.8685 82.4415 30.6445 77.226 33.8586H62.3153C62.0071 33.8586 61.699 33.862 61.3917 33.8745C60.4176 33.8971 59.4495 33.9652 58.4933 34.0716C53.0846 30.8981 49.4531 25.016 49.4531 18.281C49.4531 8.18526 57.616 0 67.6869 0C77.7532 0 85.9169 8.18526 85.9169 18.281H85.9166Z" fill="#FFCD34"/>
<path d="M66.3324 19.3C66.271 19.3 66.1596 19.2962 65.9984 19.2885C65.8371 19.2731 65.626 19.25 65.3649 19.2192C65.3496 19.4193 65.3381 19.6541 65.3304 19.9236C65.3304 20.193 65.3266 20.4932 65.3189 20.8242C65.5415 20.8319 65.7988 20.8396 66.0905 20.8473C66.3823 20.8473 66.6702 20.8473 66.9543 20.8473C66.9927 20.8473 67.058 20.8435 67.1501 20.8358C67.2499 20.8204 67.3651 20.805 67.4956 20.7896C67.6261 20.7742 67.749 20.7588 67.8641 20.7434C67.987 20.728 68.0945 20.7203 68.1866 20.7203C68.5936 20.7203 68.9199 20.8473 69.1656 21.1014C69.419 21.3554 69.5456 21.671 69.5456 22.0482C69.5456 22.333 69.5073 22.5563 69.4305 22.7179C69.3614 22.8719 69.2347 22.9874 69.0504 23.0644C68.8661 23.1336 68.6204 23.176 68.3133 23.1914C68.0062 23.2068 67.6185 23.2145 67.1501 23.2145C67.0503 23.2145 66.9274 23.2145 66.7815 23.2145C66.6433 23.2145 66.4975 23.2145 66.3439 23.2145C66.1903 23.2068 66.0291 23.2029 65.8602 23.2029C65.6989 23.1952 65.5454 23.1875 65.3995 23.1798H65.2958V24.7964C65.2958 25.2121 65.1538 25.5624 64.8697 25.8472C64.5779 26.1397 64.2171 26.286 63.7871 26.286C63.3495 26.286 62.9847 26.1397 62.693 25.8472C62.4089 25.5624 62.2668 25.2121 62.2668 24.7964V23.0644C61.8599 23.0567 61.5067 23.0336 61.2073 22.9951C60.9155 22.9566 60.6698 22.8912 60.4702 22.7988C60.2706 22.7064 60.1208 22.5832 60.021 22.4293C59.9289 22.2753 59.8828 22.0752 59.8828 21.8288C59.8828 20.9974 60.4203 20.5817 61.4952 20.5817C61.6257 20.5817 61.7601 20.5856 61.8983 20.5933C62.0442 20.601 62.1709 20.6164 62.2784 20.6395L62.336 19.0691L62.2323 19.0575C61.8254 19.0498 61.4837 19.0229 61.2073 18.9767C60.9385 18.9305 60.7197 18.8574 60.5508 18.7573C60.3896 18.6495 60.2744 18.511 60.2053 18.3416C60.1362 18.1722 60.1016 17.9606 60.1016 17.7065C60.1016 16.8982 60.6391 16.4941 61.714 16.4941C61.8599 16.4941 61.9943 16.5018 62.1171 16.5172C62.24 16.5326 62.3628 16.5403 62.4857 16.5403C62.5701 15.324 62.6277 14.2347 62.6584 13.2724C62.6968 12.3102 62.7199 11.5365 62.7275 10.9515C62.7275 10.4511 62.7621 10.0277 62.8312 9.6813C62.908 9.32719 63.0155 9.03466 63.1537 8.80372C63.2919 8.57278 63.4646 8.39957 63.6719 8.2841C63.8869 8.16863 64.1326 8.09935 64.409 8.07626C64.6778 8.05316 65.0386 8.01467 65.4916 7.96078C65.9446 7.8992 66.5051 7.86841 67.1731 7.86841C68.678 7.86841 70.0908 8.35723 71.4114 9.33489C72.8779 10.4357 73.6112 11.7675 73.6112 13.3302C73.6112 15.2932 72.8318 16.8597 71.2732 18.0298C70.9277 18.2839 70.563 18.4956 70.1791 18.6649C69.8029 18.8266 69.4074 18.9575 68.9928 19.0575C68.5859 19.1499 68.1598 19.2153 67.7144 19.2538C67.2691 19.2846 66.8084 19.3 66.3324 19.3ZM66.9082 10.8476C66.6625 10.8476 66.4437 10.8514 66.2518 10.8591C66.0675 10.8591 65.9101 10.8668 65.7796 10.8822C65.7796 11.0593 65.7796 11.2825 65.7796 11.5519C65.7796 11.8214 65.7757 12.1408 65.768 12.5103C65.7604 12.9414 65.7373 13.5265 65.6989 14.2655C65.6605 15.0045 65.6106 15.8282 65.5492 16.7366C65.7488 16.7674 65.9139 16.7904 66.0445 16.8058C66.175 16.8212 66.271 16.8289 66.3324 16.8289C66.7777 16.8289 67.1463 16.7981 67.438 16.7366C67.7298 16.675 67.9793 16.5941 68.1866 16.4941C68.4016 16.394 68.5936 16.2785 68.7625 16.1477C68.9314 16.0168 69.1157 15.8821 69.3153 15.7435C70.1599 15.1277 70.5822 14.3232 70.5822 13.3302C70.5822 12.6758 70.1868 12.0946 69.3959 11.5866C68.6435 11.0939 67.8142 10.8476 66.9082 10.8476Z" fill="#E69012"/>
<path d="M74.8106 1.44727C78.3597 4.78246 80.5805 9.52268 80.5805 14.7846C80.5805 24.8794 72.418 33.0644 62.3482 33.0644C59.9013 33.0674 57.479 32.575 55.2266 31.6165C56.2253 32.5544 57.3256 33.3773 58.5068 34.0698C61.0914 33.7834 61.2125 33.8614 77.2271 33.8582C89.5371 26.2639 89.5383 8.85466 74.8106 1.44727Z" fill="#E69012"/>
<path d="M53.0983 37.3274C52.6153 37.3271 52.1457 37.1681 51.7615 36.8747C51.3772 36.5813 51.0995 36.1697 50.9708 35.703C50.8934 35.4227 50.8717 35.1299 50.9072 34.8413C50.9426 34.5527 51.0344 34.2739 51.1773 34.0208C51.3202 33.7677 51.5114 33.5454 51.7401 33.3664C51.9687 33.1875 52.2302 33.0554 52.5098 32.9778C54.3887 32.4562 56.3196 32.0835 58.2483 31.8696C59.2814 31.7554 60.3145 31.685 61.3207 31.6603C61.6515 31.6488 61.9824 31.6435 62.3133 31.6444H85.6797C85.9699 31.6443 86.2572 31.7016 86.5252 31.813C86.7933 31.9243 87.0368 32.0875 87.2419 32.2932C87.447 32.499 87.6097 32.7432 87.7206 33.012C87.8316 33.2808 87.8886 33.5688 87.8884 33.8597C87.8885 34.1505 87.8314 34.4385 87.7204 34.7072C87.6095 34.9758 87.4468 35.22 87.2417 35.4256C87.0366 35.6312 86.7932 35.7944 86.5252 35.9056C86.2573 36.0169 85.97 36.0742 85.68 36.0742H62.3131C62.0334 36.0731 61.7537 36.0776 61.4742 36.0878C61.4629 36.0878 61.4528 36.0878 61.4424 36.089C60.5573 36.1093 59.6462 36.1716 58.7339 36.2725C57.0291 36.4625 55.3421 36.7884 53.6889 37.2471C53.4965 37.3003 53.2979 37.3273 53.0983 37.3274Z" fill="#EDAA9D"/>
</svg>
