<svg width="268" height="166" fill="none" xmlns="http://www.w3.org/2000/svg"><path opacity=".75" d="M162.988 15.287c1.654.592 3.438 1.753 2.743 1.884-.697.274-.021 1.418.378 2.559.398 1.14-.976.41-.991 1.403-.015.993.39 1.708-.309 2.123-.699.415-.291.989-.304 1.84-.015.992-1.387.12-2.099 1.387-.424.56-.017 1.134.525 1.993.403.857.115 1.562-1.129 1.402-1.245-.16-2.777.384-4.855.354-2.078-.031-16.477-.81-20.221-.582-3.745.228-10.552 1.404-12.218 1.663-1.808.399-20.157 4.383-31.575 8.185-11.418 3.803-29.415 12.047-36.83 16.902-7.416 4.854-23.809 17.093-30.567 24.369-6.76 7.417-12.663 13.003-15.82 20.331-3.159 7.47-7.086 20.035-6.733 24.295 0 0-.96-.723-1.596-4.562-.636-3.839-1.011-15.9.343-23.113 1.206-6.648 7.377-21.023 17.22-30.664 9.841-9.641 18.984-18.867 31.985-26.617 13.001-7.75 20.413-12.322 35.59-17.345 15.18-5.166 17.4-5.417 18.517-5.968 1.117-.55 1.673-.684 2.781-.668 1.108.017 1.811-.682 2.785-.951.972-.128 12.793-3.073 25.268-3.315 12.612-.24 22.977 1.616 27.112 3.095Z" fill="#79A5DB" fill-opacity=".2"/><path opacity=".75" d="M231.287 72.034s-11.08 9.055-17.795 13.352c-6.576 4.3-28.146 20.008-51.907 24.48-23.76 4.471-42.495 6.464-72.67 4.317-30.174-2.148-43.775-10.007-48.54-15.75-4.764-5.744-9.42-18.861-9.883-24.967 0 0-1.89 15.29-2.097 19.967-.21 4.82-.139 18.72 11.231 27.539 11.232 8.817 32.781 13.248 50.914 14.509 18.133 1.26 46.832.124 61.579-3.913 14.747-4.038 38.289-12.483 44.154-15.517 5.866-3.176 8.387-4.982 7.692-4.851-.695.132-5.728 3.178-6.844 3.729-1.117.551-8.791 4.125-11.578 5.218-2.37.958-5.149 1.484-5.705 1.618.833-.129 6.267-2.177 8.219-2.999 1.954-.964 4.748-2.483 5.306-2.758.559-.275.706-.841 1.4-.972.695-.132.972-.128 1.392-.405.422-.419 1.95-.681 2.649-1.096.699-.415.982-.836 1.263-1.116.282-.279.979-.553 1.262-.974.422-.419.562-.559 1.257-.69.693.01 1.528-.262 1.812-.683.283-.421.841-.697 1.118-.692.277.004 1.386.02 1.808-.399.281-.28 7.134-4.575 9.378-6.386 2.382-1.809 3.788-3.206 4.21-3.625.422-.42.569-.985.846-.98.418-.136.699-.416.701-.558.004-.283.288-.704.705-.84.418-.136 1.123-.976 2.399-2.943 1.415-1.965 1.696-2.244 3.153-7.045 1.455-4.659 3.371-12.431 2.571-14.57ZM205.726 95.2c-.56.417-1.118.692-1.679 1.11-3.916 2.495-13.704 8.449-20.949 11.179-9.475 3.547-23.261 8.166-27.57 9.095-4.309.929-4.863.921-5.69.625-.827-.296-.555-.008-2.496.105-1.942.113-4.032.934-4.865 1.063-.834.13-9.301 1.139-18.589 1.428-9.426.286-24.098-.782-24.098-.782s23.546.632 34.096-.631c10.687-1.26 14.579-2.054 16.386-2.453 1.807-.399 14.443-2.198 27.131-7.542 11.572-4.793 20.633-8.489 26.506-12.09 1.259-.832 1.958-1.247 1.817-1.107Z" fill="#79A5DB" fill-opacity=".2"/><path opacity=".75" d="M266.954 68.305c-.516-2.56-.873-6.537-2.623-9.966-1.751-3.43-8.692-11.9-13.631-15.235-4.939-3.335-16.357-8.893-25.727-12.435-9.51-3.403-15.456-4.2-18.634-4.814-3.178-.614-7.046-1.38-8.979-1.834-1.936-.313-13.28-1.473-17.292-1.958-3.872-.482-10.236-1.143-13.563-1.05-3.188.094-15.098-.365-17.035-.536-1.937-.17-7.059-.53-9.831-.429-2.773.101-7.909.735-10.684.977-2.775.243-17.478 1.303-21.514 2.52-3.898 1.218-5.701 1.333-7.92 1.443-2.08.11-4.177 1.356-4.73 1.348-.555-.008-10.844 2.393-13.904 3.199-3.06.805-13.522 5.473-19.667 8.786-6.144 3.172-12.302 7.336-16.09 10.542-3.79 3.206-6.591 5.292-10.296 12.187-3.564 6.755-4.607 11.704-5.245 17.367-.638 5.664-1.7 11.889-1.501 17.14.2 5.25 1.11 9.235 1.65 10.235 0 0 3.417-24.91 22.473-39.238 18.918-14.329 51.051-22.79 92.799-25.578 41.748-2.787 84.644 10.469 93.844 16.136 0 0 .835-.272-2.19-1.876-3.163-1.607-7.298-3.086-7.298-3.086s3.046.186 9.509 3.544c6.462 3.357 10.295 6.534 13.166 9.13 2.735 2.45 5.869 6.043 7.055 10.173 1.188 3.989 2.069 9.959 2.002 14.496-.067 4.538-.942 7.503-.516 6.8.426-.703 3.576-7.606 5.062-14.391 1.348-6.788 1.827-11.036 1.31-13.597ZM221.17 34.867c-4.544-1.91-8.14-2.39-9.659-2.695-1.52-.306-2.208-.6-3.73-.764-1.522-.165.285-.564-1.373-.872-1.658-.308-3.875-.34-6.502-.663-2.628-.322-4.83-1.348-8.016-1.395-3.048-.045-8.572-1.26-12.311-1.458-3.738-.197-7.615-.396-10.66-.583-3.046-.186-5.392-.788-8.301-.831-2.771-.041-6.507-.38-3.73-.765 1.389-.263 6.655-.327 9.288-.288 2.493.037 8.167.546 10.242.719 2.076.172 26.976 2.95 30.838 4.142 3.862 1.192 17.109 4.933 22.482 6.998 5.235 2.063 8.801 4.527 8.801 4.527s-12.825-4.16-17.369-6.072Z" fill="#79A5DB" fill-opacity=".2"/><path opacity=".75" d="M266.557 66.882c-.265-.855-7.697 14.494-11.505 18.977-3.807 4.482-19.36 16.166-27.737 20.439-8.377 4.273-34.289 13.677-36.656 14.493-2.229.818-3.747.37-5.279.915s.151-.849-1.797-.31c-1.948.538-16.968 4.288-20.026 4.952-3.058.664-14.315 2.909-18.481 3.556-4.167.648-34.977 4.023-46.477 3.995-11.639-.03-31.99-1.182-39.735-2.147-7.745-.965-17.967-3.102-25.563-4.774-7.596-1.672-13.767-6.018-17.606-8.77-3.841-2.609-5.728-6.183-7.34-9.61-1.476-3.284-4.383-12.83-4.3-18.36 0 0-2.704 4.783-3.244 13.142-.54 8.36.072 23.261 5.8 29.445 5.728 6.183 18.493 14.313 36.605 16.992 17.973 2.676 38.19 3.542 41.515 3.591 3.325.049 13.578.059 15.656.089 2.078.031 3.466-.09 5.13-.208 1.664-.117 1.539-.97.707-.982-.831-.012-.556.134-1.805.257-1.249.123-1.807.399-2.495.105-.689-.294-1.104-.3-1.938-.17-.833.129-1.246-.019-2.355-.035-1.108-.017-.83-.012-2.08.111-1.249.123-1.652-.734-1.652-.734s.974-.269 2.082-.252c1.109.016 6.65.098 7.76-.028.972-.127 2.357-.107 3.325.049s2.078.031 2.909.043c.831.012.708-.982 1.539-.97.831.012.411.29 1.519.306 1.109.017 2.5-.388 3.47-.374.97.014 2.376-1.383 3.761-1.363 1.386.021 2.223-.392 2.49.321.266.713.684.577.69.152.006-.426.021-1.418.993-1.546.972-.127 2.08-.111 3.331-.376s4.168-.79 5.138-.775c.97.014 1.795.452 1.795.452s-3.329.234-4.719.497c-1.389.263-3.476.8-2.367.816l3.324.049c.832.013 1.104.3 2.217.033 1.112-.267 1.534-.686 2.922-.808 1.387-.121 1.67-.542 3.056-.522l2.493.037c.554.008 2.08-.111 3.052-.239.972-.127 1.121-.834 2.093-.962.972-.127 3.885-.368 4.857-.495.972-.128 2.502-.531 3.476-.8.974-.269 2.642-.67 3.753-.795 1.11-.126.688.293 2.212.316 1.524.022 1.931.596 4.301-.362 2.369-.958 1.956-1.106 3.211-1.655 1.255-.548 3.757-1.079 5.424-1.338 1.666-.259 2.365-.674 3.196-.662.832.012 1.386.021 1.256-.549-.131-.569.709-1.124 1.116-.551.407.574 1.379.446 1.379.446 1.532-.544 3.207-1.371 4.039-1.358.831.012 1.389-.263 3.06-.806s1.671-.543 2.642-.67c.972-.128.857-1.69 2.108-1.955 1.251-.265 3.612-.656 5.006-1.202 1.393-.547 2.361-.391 3.755-.938 1.393-.546 1.244.16-2.372 1.1-3.617.939-3.763 1.504-2.515 1.381 1.249-.123 2.926-1.091 4.872-1.488 1.946-.397 2.504-.672 3.065-1.09.56-.417.014-.992 1.267-1.399 1.253-.407 3.485-1.367 4.738-1.774 1.253-.407 3.473-.658 4.59-1.209 1.117-.55 2.645-.812 3.623-1.364.978-.553 2.374-1.242 1.82-1.25-.555-.008-2.368.816-3.9 1.361-1.532.544-2.639.386-2.639.386s1.675-.826 3.205-1.229c1.531-.403 1.955-.964 3.208-1.371 1.253-.407 2.094-1.104 1.679-1.11-.416-.006-2.498.247-1.381-.304 1.116-.551 2.508-.956 4.181-1.64 1.673-.684 3.639-2.499 3.639-2.499s.267.713-.715 1.549c-.983.837-1.684 1.394-.292.989 1.391-.405.693.01 2.229-.818s3.908-1.928 6.003-3.032 2.51-1.097 3.352-1.794c.842-.697 1.115-.409.842-.697s-.823-.579-.823-.579c1.534-.687 1.962-1.531 3.077-1.94 1.114-.41 2.81-2.654 3.929-3.346 1.119-.693 3.073-1.657 3.776-2.356.703-.698 1.404-1.255 2.527-2.232 1.123-.976 3.103-3.641 3.808-4.482.705-.84 1.555-2.104 1.985-3.09.431-.987 2.272-3.655 3.718-7.747 2.833-4.213 6.504-18.2 4.498-23.051Zm-48.53 49.065c-6.137 2.746-14.642 6.308-16.592 6.989-1.812.682-9.177 2.133-12.523 3.502-3.343 1.227-12.793 3.074-16.132 4.017-3.34.944-23.353 5.045-29.736 5.66-6.383.615-24.423 2.476-27.887 2.425-3.324-.049-5.816-.228-7.065-.105-1.248.124-3.194.521-4.995.494-1.801-.027-2.5.389-3.885.368l-4.156-.061c-1.524-.023-42.512-1.762-49.258-4.698-1.102-.442 24.35 2.486 26.426 2.659 2.075.172 18.825 1.271 24.24.499 5.413-.629 20.788-.26 24.396-.632 3.747-.37 28.739-3.831 31.373-3.934 2.634-.103 14.741-3.612 18.773-4.545 3.894-.935 19.596-3.966 24.461-5.028 4.866-1.063 11.985-4.646 16.582-6.28 4.458-1.636 20.232-9.487 23.307-11.286.277.004-11.051 7.071-17.329 9.956Z" fill="#79A5DB" fill-opacity=".2"/><path fill-rule="evenodd" clip-rule="evenodd" d="M133.672 0C179.584 0 216.8 37.159 216.8 83s-37.216 83-83.128 83-83.128-37.159-83.128-83S87.76 0 133.672 0Z" fill="url(#a)"/><path d="M88.679 61.08V93.98c.032 7.441 6.118 13.426 13.538 13.397h48.035c1.367 0 2.465-1.096 2.465-2.428V72.045c-.03-7.438-6.115-13.426-13.538-13.397H91.144c-1.364 0-2.465 1.096-2.465 2.432Zm67.097 12.832 19.83-14.463c1.721-1.423 3.059-1.067 3.059 1.51v44.107c0 2.935-1.633 2.581-3.059 1.515l-19.83-14.438v-18.23Z" fill="#fff"/><defs><linearGradient id="a" x1="72.57" y1="26.722" x2="204.374" y2="126.634" gradientUnits="userSpaceOnUse"><stop stop-color="#4A8CFF"/><stop offset="1" stop-color="#23B7EC"/></linearGradient></defs></svg>