<svg width="315" height="194" viewBox="0 0 315 194" fill="none" xmlns="http://www.w3.org/2000/svg">
<g clip-path="url(#clip0_61_1156)">
<path d="M315 119.424L314.197 118.538L312.43 119.424L127.692 12.1653C125.363 10.8226 121.294 10.9837 118.617 12.5413L2.22189 80.0277C2.06127 80.1083 1.95419 80.2157 1.82035 80.2962L0 80.0814V82.928H0.0267698C0 83.8142 0.481856 84.6468 1.55265 85.2644L187.308 193.087C189.637 194.43 193.706 194.269 196.383 192.711L312.778 125.251C314.25 124.392 314.973 123.291 314.973 122.244L315 122.217V119.424Z" fill="#6C99D0"/>
<path d="M90.8035 139.672L98.8879 144.345C100.28 145.151 101.404 144.291 101.404 142.438C101.404 140.585 100.28 138.41 98.8879 137.605L90.8035 132.932C89.4114 132.126 88.2871 132.986 88.2871 134.839C88.2871 136.691 89.4114 138.867 90.8035 139.672Z" fill="#6C99D0"/>
<path d="M187.308 190.24L1.55288 82.4177C-0.776093 81.075 -0.481625 78.7118 2.19535 77.1542L118.617 9.69459C121.294 8.137 125.39 7.97588 127.692 9.31862L313.448 117.114C315.777 118.457 315.482 120.82 312.805 122.378L196.383 189.837C193.706 191.395 189.637 191.583 187.308 190.24Z" fill="#62B3E6"/>
<path d="M91.4463 136.906L98.7009 141.096C99.9591 141.821 100.976 141.042 100.976 139.377C100.976 137.712 99.9591 135.752 98.7009 135.027L91.4463 130.837C90.1882 130.112 89.1709 130.891 89.1709 132.556C89.1977 134.221 90.2149 136.181 91.4463 136.906Z" fill="#62B3E6"/>
<path d="M92.0888 130.998L2.67773 79.222L122.205 9.98999L211.616 61.7663L92.0888 130.998Z" fill="#9DA7CB"/>
<path d="M92.0888 131.025L2.67773 79.2489L7.12152 69.232L211.589 61.7932L97.8979 127.507C94.0965 125.923 91.7408 128.608 92.0888 131.025Z" fill="#B0B9DF"/>
<path d="M191.03 188.333L101.646 136.557L306.97 103.526L310.557 119.101L191.03 188.333Z" fill="#DBDEEA"/>
<path d="M199.943 177.726C206.315 173.51 212.927 169.723 219.566 165.91L239.429 154.523C252.653 146.923 265.904 139.323 279.209 131.858H279.235V131.885C266.118 139.699 252.948 147.407 239.777 155.087L220.021 166.635C213.435 170.502 206.85 174.342 200.024 177.78C199.997 177.78 199.997 177.78 199.97 177.753C199.943 177.753 199.943 177.753 199.943 177.726Z" fill="#D0D3E0"/>
<path d="M222.698 158.417C229.069 154.201 235.682 150.415 242.32 146.628L262.184 135.241C275.408 127.642 288.659 120.042 301.964 112.576H301.99V112.603C288.873 120.418 275.702 128.125 262.532 135.805L242.776 147.353C236.19 151.22 229.605 155.06 222.779 158.498C222.752 158.498 222.752 158.498 222.725 158.471C222.671 158.444 222.671 158.444 222.698 158.417Z" fill="#D0D3E0"/>
<path d="M187.443 172.758L191.03 188.334L101.646 136.557C101.646 136.557 103.466 132.073 97.8978 127.507C94.2839 124.553 105.393 120.256 105.393 120.256L181.714 165.131L187.443 172.758Z" fill="#B0B9DF"/>
<path d="M211.267 52.4477V55.8046L208.376 53.8173L209.152 51.4272L211.267 52.4477Z" fill="#FFCA42"/>
<path d="M97.897 127.507L7.14746 69.232L126.675 0L217.424 58.3021L97.897 127.507Z" fill="#EAECF7"/>
<path d="M73.9917 43.0483L46.6865 58.839L114.655 102.505L141.96 86.6876L73.9917 43.0483Z" fill="#E1E3F1"/>
<path d="M119.42 21.8867L98.6465 33.9177L150.366 67.1373L171.139 55.1063L119.42 21.8867Z" fill="#E1E3F1"/>
<path opacity="0.19" d="M120.036 106.856L210.705 54.3275C211.428 53.9247 211.455 52.8773 210.759 52.4477L207.894 50.5947C206.797 49.8964 205.405 49.8696 204.28 50.5141L113.879 102.881L120.036 106.856Z" fill="#90ACD5"/>
<path d="M97.8973 118.887C97.8437 118.887 97.7902 118.86 97.7366 118.833L19.4886 69.4199C19.3547 69.3394 19.3012 69.1245 19.3815 68.9902C19.4618 68.856 19.676 68.8023 19.8098 68.8828L98.0579 118.296C98.1917 118.376 98.2453 118.591 98.165 118.726C98.1114 118.833 98.0043 118.887 97.8973 118.887Z" fill="#D2D8E7"/>
<path d="M103.519 115.745C103.465 115.745 103.412 115.718 103.358 115.691L25.0032 66.1973C24.8694 66.1167 24.8158 65.9019 24.8961 65.7676C24.9764 65.6333 25.1906 65.5796 25.3244 65.6602L103.653 115.181C103.787 115.261 103.84 115.476 103.76 115.61C103.706 115.691 103.626 115.745 103.519 115.745Z" fill="#D2D8E7"/>
<path d="M109.114 112.603C109.06 112.603 109.006 112.576 108.953 112.549L30.5442 62.948C30.4104 62.8674 30.3568 62.6526 30.4371 62.5183C30.5175 62.384 30.7316 62.3303 30.8655 62.4109L109.274 112.012C109.408 112.093 109.462 112.307 109.381 112.442C109.328 112.549 109.221 112.603 109.114 112.603Z" fill="#D2D8E7"/>
<path d="M114.736 109.461C114.682 109.461 114.629 109.434 114.575 109.407L36.0862 59.7253C35.9524 59.6448 35.8988 59.4568 35.9791 59.2957C36.0594 59.1614 36.2468 59.1077 36.4075 59.1882L114.896 108.87C115.03 108.95 115.084 109.138 115.004 109.3C114.95 109.407 114.843 109.461 114.736 109.461Z" fill="#D2D8E7"/>
<path d="M113.825 62.4913C113.665 62.4913 113.477 62.4376 113.317 62.357L74.5273 37.6505C74.099 37.3819 73.9651 36.7911 74.2328 36.3614C74.5005 35.9318 75.0895 35.7975 75.5178 36.066L114.307 60.7726C114.736 61.0411 114.869 61.6319 114.602 62.0616C114.441 62.357 114.12 62.4913 113.825 62.4913Z" fill="#D2D8E7"/>
<path d="M159.655 84.3781C159.601 84.3781 159.548 84.3513 159.494 84.3244L80.4163 33.8909C80.2824 33.8103 80.2289 33.5955 80.3092 33.4612C80.3895 33.3269 80.5769 33.2732 80.7375 33.3538L159.815 83.7873C159.949 83.8679 160.003 84.0827 159.923 84.217C159.842 84.3244 159.762 84.3781 159.655 84.3781Z" fill="#D2D8E7"/>
<path d="M165.25 81.236C165.197 81.236 165.143 81.2092 165.09 81.1823L85.9583 30.6682C85.8244 30.5876 85.7709 30.3728 85.8512 30.2385C85.9315 30.1043 86.1189 30.0505 86.2795 30.1311L165.438 80.6721C165.572 80.7527 165.625 80.9675 165.545 81.1018C165.465 81.1823 165.357 81.236 165.25 81.236Z" fill="#D2D8E7"/>
<path d="M193.331 65.5529C193.278 65.5529 193.224 65.5261 193.171 65.4992L113.664 14.5286C113.53 14.448 113.477 14.2332 113.557 14.0989C113.664 13.9646 113.852 13.9109 113.986 13.9915L193.492 64.9621C193.626 65.0427 193.679 65.2575 193.599 65.3918C193.519 65.4992 193.438 65.5529 193.331 65.5529Z" fill="#D2D8E7"/>
<path d="M198.954 62.4108C198.9 62.4108 198.846 62.384 198.793 62.3571L119.206 11.3059C119.072 11.2253 119.019 11.0105 119.099 10.8762C119.206 10.742 119.394 10.6882 119.528 10.7688L199.114 61.8469C199.248 61.9274 199.302 62.1423 199.221 62.2766C199.141 62.3571 199.034 62.4108 198.954 62.4108Z" fill="#D2D8E7"/>
<path d="M168.194 36.5227C168.034 36.5227 167.846 36.469 167.686 36.3884L124.399 8.59354C123.971 8.32499 123.837 7.73418 124.131 7.3045C124.399 6.87482 124.988 6.74055 125.416 7.03595L168.703 34.8308C169.131 35.0993 169.265 35.6902 168.971 36.1198C168.783 36.3615 168.489 36.5227 168.194 36.5227Z" fill="#D2D8E7"/>
<path d="M120.036 105.97L210.732 53.4413C211.454 53.0384 211.481 51.9911 210.785 51.5614L207.921 49.7084C206.823 49.0102 205.431 48.9834 204.307 49.6279L113.905 101.995L120.036 105.97Z" fill="#FFCA42"/>
<path d="M187.442 172.758L97.8975 127.507L217.425 58.302L306.969 103.526L187.442 172.758Z" fill="#EAECF7"/>
<path d="M174.191 89.3196L147.983 104.493L226.017 143.916L252.225 128.743L174.191 89.3196Z" fill="#D2D8E7"/>
<path d="M189.798 165.856C189.745 165.856 189.718 165.856 189.664 165.829L108.525 126.567C108.365 126.487 108.311 126.299 108.391 126.164C108.472 126.003 108.659 125.95 108.793 126.03L189.932 165.292C190.093 165.373 190.146 165.561 190.066 165.695C190.039 165.775 189.932 165.856 189.798 165.856Z" fill="#D2D8E7"/>
<path d="M195.287 162.633C195.233 162.633 195.206 162.633 195.153 162.607L114.014 123.345C113.853 123.264 113.799 123.076 113.88 122.942C113.96 122.781 114.147 122.727 114.281 122.808L195.42 162.043C195.581 162.123 195.635 162.311 195.554 162.445C195.528 162.553 195.42 162.633 195.287 162.633Z" fill="#D2D8E7"/>
<path d="M200.774 159.411C200.72 159.411 200.694 159.411 200.64 159.384L119.501 120.122C119.34 120.041 119.287 119.853 119.367 119.719C119.447 119.558 119.635 119.504 119.769 119.585L200.908 158.847C201.068 158.927 201.122 159.115 201.042 159.25C200.988 159.33 200.881 159.411 200.774 159.411Z" fill="#D2D8E7"/>
<path d="M206.262 156.188C206.209 156.188 206.182 156.188 206.128 156.161L124.989 116.9C124.828 116.819 124.775 116.631 124.855 116.497C124.936 116.336 125.123 116.282 125.257 116.362L206.396 155.598C206.557 155.678 206.61 155.866 206.53 156C206.476 156.108 206.369 156.188 206.262 156.188Z" fill="#D2D8E7"/>
<path d="M211.75 152.939C211.696 152.939 211.67 152.939 211.616 152.912L130.45 113.677C130.289 113.596 130.236 113.408 130.316 113.274C130.397 113.113 130.584 113.059 130.718 113.14L211.857 152.402C212.018 152.482 212.071 152.67 211.991 152.805C211.964 152.885 211.857 152.939 211.75 152.939Z" fill="#D2D8E7"/>
<path d="M217.237 149.716C217.184 149.716 217.157 149.716 217.103 149.689L135.937 110.427C135.777 110.347 135.723 110.159 135.803 110.025C135.884 109.863 136.071 109.81 136.205 109.89L217.371 149.125C217.532 149.206 217.585 149.394 217.505 149.528C217.451 149.662 217.344 149.716 217.237 149.716Z" fill="#D2D8E7"/>
<path d="M222.699 146.494C222.645 146.494 222.618 146.494 222.565 146.467L141.426 107.205C141.265 107.124 141.211 106.936 141.292 106.802C141.372 106.641 141.559 106.587 141.693 106.668L222.833 145.93C222.993 146.01 223.047 146.198 222.966 146.333C222.94 146.44 222.833 146.494 222.699 146.494Z" fill="#D2D8E7"/>
<path d="M255.598 127.158C255.545 127.158 255.518 127.158 255.464 127.131L174.325 87.8693C174.164 87.7887 174.111 87.6007 174.191 87.4665C174.272 87.3053 174.459 87.2516 174.593 87.3322L255.732 126.594C255.893 126.675 255.946 126.863 255.866 126.997C255.839 127.104 255.732 127.158 255.598 127.158Z" fill="#D2D8E7"/>
<path d="M261.086 123.935C261.033 123.935 261.006 123.935 260.953 123.909L179.813 84.6466C179.653 84.5661 179.599 84.3781 179.679 84.2438C179.76 84.0827 179.947 84.029 180.081 84.1095L261.22 123.371C261.381 123.452 261.434 123.64 261.354 123.774C261.327 123.882 261.22 123.935 261.086 123.935Z" fill="#D2D8E7"/>
<path d="M266.574 120.713C266.52 120.713 266.493 120.713 266.44 120.686L185.301 81.4242C185.14 81.3436 185.086 81.1557 185.167 81.0214C185.247 80.8603 185.434 80.8065 185.568 80.8871L266.708 120.149C266.868 120.23 266.922 120.418 266.841 120.552C266.788 120.659 266.681 120.713 266.574 120.713Z" fill="#D2D8E7"/>
<path d="M272.062 117.49C272.008 117.49 271.982 117.49 271.928 117.463L190.789 78.2016C190.628 78.121 190.575 77.933 190.655 77.7987C190.735 77.6376 190.923 77.5839 191.057 77.6645L272.196 116.926C272.356 117.007 272.41 117.195 272.33 117.329C272.276 117.41 272.169 117.49 272.062 117.49Z" fill="#D2D8E7"/>
<path d="M277.55 114.268C277.496 114.268 277.469 114.268 277.416 114.241L196.25 74.9789C196.089 74.8983 196.036 74.7103 196.116 74.5761C196.196 74.4149 196.384 74.3612 196.518 74.4418L277.657 113.704C277.817 113.784 277.871 113.972 277.791 114.107C277.764 114.187 277.657 114.268 277.55 114.268Z" fill="#D2D8E7"/>
<path d="M283.037 111.045C282.983 111.045 282.957 111.045 282.903 111.018L201.737 71.7562C201.577 71.6757 201.523 71.4877 201.603 71.3534C201.684 71.1923 201.871 71.1386 202.005 71.2191L283.144 110.481C283.305 110.562 283.358 110.75 283.278 110.884C283.251 110.964 283.144 111.045 283.037 111.045Z" fill="#D2D8E7"/>
<path d="M288.498 107.823C288.445 107.823 288.418 107.823 288.365 107.796L207.225 68.5338C207.065 68.4533 207.011 68.2653 207.092 68.131C207.172 67.9699 207.359 67.9162 207.493 67.9967L288.632 107.259C288.793 107.339 288.846 107.527 288.766 107.661C288.739 107.742 288.632 107.823 288.498 107.823Z" fill="#D2D8E7"/>
<path d="M293.987 104.6C293.933 104.6 293.906 104.6 293.853 104.573L212.714 65.3112C212.553 65.2306 212.5 65.0426 212.58 64.9083C212.66 64.7472 212.848 64.6935 212.981 64.7741L294.121 104.036C294.281 104.117 294.335 104.305 294.254 104.439C294.228 104.519 294.121 104.6 293.987 104.6Z" fill="#D2D8E7"/>
<path opacity="0.27" d="M177.35 167.655L296.877 98.4233L217.425 58.302L97.8975 127.507L177.35 167.655Z" fill="#90ACD5"/>
<path d="M217.425 58.3021L97.8975 127.507C124.64 125.762 151.303 132.126 174.379 145.769L187.282 153.395L306.809 84.1634L293.906 76.5366C270.83 62.9212 244.168 56.5566 217.425 58.3021Z" fill="#E1E3F1"/>
<path d="M281.912 79.8128C281.752 79.8128 281.591 79.7591 281.431 79.6786C261.193 67.7281 238.117 62.2228 214.72 63.7536C214.158 63.7804 213.757 63.4045 213.73 62.8942C213.703 62.384 214.078 61.9274 214.586 61.9006C238.385 60.343 261.808 65.9557 282.368 78.0941C282.796 78.3627 282.957 78.9266 282.689 79.3563C282.555 79.6517 282.234 79.8128 281.912 79.8128Z" fill="#D2D8E7"/>
<path d="M287.748 89.0779C287.695 89.0779 287.641 89.0779 287.588 89.0242L276.237 82.3104C255.892 70.3063 232.71 64.7742 209.152 66.3049C208.992 66.3318 208.831 66.1975 208.831 66.0095C208.831 65.8484 208.938 65.6872 209.126 65.6872C232.79 64.1296 256.106 69.7155 276.559 81.7733L287.909 88.4871C288.043 88.5676 288.096 88.7556 288.016 88.9167C287.963 89.0242 287.855 89.0779 287.748 89.0779Z" fill="#D2D8E7"/>
<path d="M282.234 92.2734C282.18 92.2734 282.127 92.2734 282.073 92.2197L270.723 85.506C250.378 73.5018 227.195 67.9697 203.638 69.5005C203.504 69.5542 203.316 69.393 203.316 69.2051C203.316 69.0439 203.423 68.8828 203.611 68.8828C227.249 67.3252 250.592 72.911 271.044 84.9689L282.394 91.6826C282.528 91.7632 282.582 91.9512 282.501 92.1123C282.448 92.1929 282.341 92.2734 282.234 92.2734Z" fill="#D2D8E7"/>
<path d="M276.745 95.4424C276.692 95.4424 276.638 95.4424 276.585 95.3887L265.234 88.6749C244.889 76.6708 221.707 71.1387 198.149 72.6694C198.016 72.6963 197.828 72.562 197.828 72.374C197.828 72.2129 197.935 72.0517 198.123 72.0517C221.787 70.4942 245.104 76.08 265.556 88.1378L276.906 94.8516C277.04 94.9321 277.093 95.1201 277.013 95.2812C276.933 95.3887 276.853 95.4424 276.745 95.4424Z" fill="#D2D8E7"/>
<path d="M271.231 98.6113C271.177 98.6113 271.124 98.6113 271.07 98.5576L259.72 91.8439C239.402 79.8397 216.192 74.3076 192.635 75.8383C192.501 75.8921 192.313 75.7309 192.313 75.5429C192.313 75.3818 192.421 75.2207 192.608 75.2207C216.299 73.6631 239.589 79.2489 260.041 91.3068L271.391 98.0205C271.525 98.1011 271.579 98.2891 271.498 98.4502C271.418 98.5576 271.338 98.6113 271.231 98.6113Z" fill="#D2D8E7"/>
<path d="M265.717 101.78C265.664 101.78 265.61 101.78 265.557 101.727L254.206 95.0128C233.861 83.0087 210.678 77.4766 187.121 79.0073C186.987 79.0342 186.8 78.8999 186.8 78.7119C186.8 78.5508 186.907 78.3896 187.094 78.3896C210.759 76.832 234.075 82.4179 254.527 94.4757L265.878 101.189C266.012 101.27 266.065 101.458 265.985 101.619C265.905 101.727 265.824 101.78 265.717 101.78Z" fill="#D2D8E7"/>
<path d="M232.308 108.413C232.147 108.413 231.987 108.36 231.826 108.279C211.588 96.3286 188.513 90.8233 165.116 92.3541C164.554 92.3809 164.152 92.0049 164.125 91.4947C164.099 90.9845 164.473 90.5279 164.982 90.5011C188.78 88.9703 212.231 94.5562 232.763 106.695C233.191 106.963 233.352 107.527 233.084 107.957C232.95 108.225 232.629 108.413 232.308 108.413Z" fill="#D2D8E7"/>
<path d="M238.144 117.651C238.09 117.651 238.037 117.625 237.983 117.598L226.633 110.884C206.315 98.8798 183.105 93.3477 159.548 94.8784C159.414 94.9052 159.227 94.771 159.227 94.583C159.227 94.4219 159.334 94.2607 159.521 94.2607C183.212 92.7031 206.502 98.289 226.954 110.347L238.305 117.061C238.438 117.141 238.492 117.329 238.412 117.49C238.358 117.598 238.251 117.651 238.144 117.651Z" fill="#D2D8E7"/>
<path d="M232.63 120.847C232.576 120.847 232.523 120.847 232.469 120.794L221.119 114.08C200.8 102.076 177.591 96.5436 154.034 98.0743C154.034 98.0743 154.034 98.0743 154.007 98.0743C153.846 98.0743 153.712 97.94 153.686 97.7789C153.686 97.6178 153.793 97.4566 153.98 97.4566C177.671 95.9259 200.961 101.485 221.413 113.543L232.763 120.256C232.897 120.337 232.951 120.525 232.871 120.686C232.844 120.794 232.737 120.847 232.63 120.847Z" fill="#D2D8E7"/>
<path d="M227.115 124.016C227.061 124.016 227.007 124.016 226.954 123.962L215.604 117.249C195.259 105.245 172.076 99.7124 148.519 101.243C148.385 101.27 148.197 101.136 148.197 100.948C148.197 100.787 148.304 100.625 148.492 100.625C172.156 99.0679 195.473 104.654 215.925 116.712L227.275 123.425C227.409 123.506 227.463 123.694 227.382 123.855C227.329 123.962 227.222 124.016 227.115 124.016Z" fill="#D2D8E7"/>
<path d="M221.627 127.185C221.574 127.185 221.52 127.185 221.467 127.131L210.116 120.417C189.798 108.413 166.589 102.881 143.031 104.412C142.871 104.466 142.71 104.304 142.71 104.116C142.71 103.955 142.817 103.794 143.004 103.794C166.696 102.237 189.985 107.822 210.438 119.88L221.788 126.594C221.922 126.675 221.975 126.863 221.895 127.024C221.815 127.131 221.734 127.185 221.627 127.185Z" fill="#D2D8E7"/>
<path d="M216.113 130.354C216.059 130.354 216.006 130.354 215.952 130.3L204.602 123.586C184.283 111.582 161.074 106.05 137.517 107.581C137.356 107.608 137.195 107.473 137.195 107.285C137.195 107.124 137.302 106.963 137.49 106.963C161.154 105.406 184.471 110.991 204.923 123.049L216.273 129.763C216.407 129.844 216.461 130.031 216.38 130.193C216.3 130.3 216.22 130.354 216.113 130.354Z" fill="#D2D8E7"/>
<path d="M210.598 133.55C210.544 133.55 210.491 133.55 210.437 133.496L199.087 126.782C178.769 114.778 155.559 109.246 132.002 110.777C131.841 110.83 131.681 110.669 131.681 110.481C131.681 110.32 131.788 110.159 131.975 110.159C155.64 108.601 178.956 114.187 199.408 126.245L210.759 132.959C210.892 133.039 210.946 133.227 210.866 133.388C210.812 133.469 210.705 133.55 210.598 133.55Z" fill="#D2D8E7"/>
<path d="M205.083 136.719C205.03 136.719 204.976 136.718 204.923 136.665L193.572 129.951C173.254 117.947 150.045 112.415 126.487 113.946C126.327 113.972 126.166 113.838 126.166 113.65C126.166 113.489 126.273 113.328 126.46 113.328C150.152 111.77 173.441 117.356 193.894 129.414L205.244 136.128C205.378 136.208 205.431 136.396 205.351 136.557C205.297 136.665 205.19 136.719 205.083 136.719Z" fill="#D2D8E7"/>
<path d="M199.569 139.887C199.515 139.887 199.462 139.887 199.408 139.833L188.058 133.12C167.713 121.116 144.53 115.583 120.973 117.114C120.812 117.168 120.651 117.007 120.651 116.819C120.651 116.658 120.758 116.497 120.946 116.497C144.61 114.939 167.927 120.525 188.379 132.583L199.729 139.296C199.863 139.377 199.917 139.565 199.836 139.726C199.783 139.833 199.676 139.887 199.569 139.887Z" fill="#D2D8E7"/>
<path d="M194.054 143.056C194 143.056 193.947 143.056 193.893 143.002L182.543 136.289C162.224 124.311 139.042 118.779 115.484 120.31C115.324 120.337 115.163 120.203 115.163 120.015C115.163 119.853 115.27 119.692 115.458 119.692C139.122 118.135 162.439 123.721 182.891 135.778L194.241 142.492C194.375 142.573 194.428 142.761 194.348 142.922C194.268 143.002 194.161 143.056 194.054 143.056Z" fill="#D2D8E7"/>
<path d="M188.539 146.225C188.486 146.225 188.432 146.225 188.379 146.171L177.028 139.458C156.71 127.453 133.501 121.921 109.943 123.452C109.783 123.506 109.622 123.345 109.622 123.157C109.622 122.996 109.729 122.834 109.917 122.834C133.581 121.277 156.898 126.863 177.35 138.921L188.7 145.634C188.834 145.715 188.887 145.903 188.807 146.064C188.754 146.171 188.646 146.225 188.539 146.225Z" fill="#D2D8E7"/>
</g>
<defs>
<clipPath id="clip0_61_1156">
<rect width="315" height="194" fill="white"/>
</clipPath>
</defs>
</svg>
