<svg width="181" height="33" viewBox="0 0 181 33" fill="none" xmlns="http://www.w3.org/2000/svg">
<path opacity="0.75" d="M180.846 23.9232C180.399 23.8294 180.22 23.6418 179.683 23.6418C179.057 23.548 178.61 23.3603 178.341 23.0789C178.073 22.8913 177.625 22.7974 177.894 22.4222C178.252 22.0469 178.52 21.484 178.162 21.484C177.804 21.484 176.999 21.2964 176.552 21.1087C176.105 21.0149 175.747 20.8273 175.389 20.6397C174.942 20.452 174.494 20.1706 174.673 19.7953C174.852 19.42 174.315 19.1386 173.958 19.0448C173.6 18.951 169.216 18.1066 167.874 17.8252C166.532 17.5437 164.653 17.2623 162.864 16.6055C160.985 15.9488 159.286 15.2921 158.302 13.2281C157.317 11.1642 157.139 9.94456 156.691 9.28785C156.244 8.63113 155.797 7.13006 155.081 6.7548C154.365 6.28571 154.365 5.91045 153.828 6.00426C153.292 6.09808 152.844 6.37953 152.397 6.56716C151.86 6.7548 150.697 7.3177 150.25 7.50533C149.803 7.78678 149.713 8.06823 149.087 8.06823C148.461 8.06823 146.403 9.38166 145.687 9.85075C144.972 10.3198 142.646 11.9147 142.019 12.1962C141.483 12.4776 140.677 13.322 140.051 13.5096C139.425 13.791 138.888 14.2601 137.994 14.5416C137.099 14.9168 134.326 16.6055 132.984 17.1684C131.642 17.7313 128.689 18.7633 127.526 18.5757C126.363 18.3881 125.2 15.9488 124.753 14.7292C124.306 13.5096 122.338 8.91258 120.906 8.16205C119.385 7.3177 118.58 7.50533 117.954 7.69296C117.328 7.8806 116.344 8.53731 116.075 8.63113C115.807 8.72495 114.196 9.47548 113.481 9.75693C112.765 10.0384 111.513 10.4136 110.707 10.7889C109.902 11.1642 109.008 11.4456 108.739 11.4456C108.56 11.4456 107.666 10.8827 107.218 11.1642C106.682 11.4456 105.698 11.8209 105.34 12.0085C104.982 12.29 104.356 12.4776 104.266 12.6652C104.266 12.8529 104.535 12.9467 104.803 12.8529C105.071 12.7591 105.34 12.5714 105.787 12.3838C106.234 12.29 107.039 12.0085 106.861 12.1023C106.682 12.1962 105.787 12.8529 105.34 13.0405C104.892 13.2281 104.982 13.4158 104.087 13.6034C103.193 13.8849 102.656 13.6972 102.924 13.5096C103.193 13.322 103.55 13.0405 103.282 12.9467C103.014 12.8529 102.835 12.9467 102.477 13.2281C102.119 13.5096 101.851 13.5096 101.045 13.6972C100.24 13.8849 99.9719 14.0725 99.5246 14.4478C99.0773 14.823 98.1827 14.823 97.9143 14.9168C97.7354 15.0107 97.0197 15.1983 96.5723 15.1983C96.125 15.1983 95.8566 14.823 94.962 15.1983C93.9779 15.5736 91.8308 16.2303 91.1151 16.3241C90.31 16.4179 89.5048 16.0426 89.0575 15.5736C88.6102 15.1983 84.9422 7.69296 84.2265 6.84861C83.4213 6.00426 81.0059 3.09595 80.3796 2.90832C79.8428 2.72068 78.0536 2.62687 76.8011 3.09595C75.5486 3.56503 72.4174 4.59701 70.8071 5.629C69.3757 6.94243 61.5925 12.1962 58.1034 14.2601C54.6144 16.3241 52.02 17.8252 51.3043 18.1066C50.4991 18.3881 50.1412 18.3881 49.6939 18.5757C49.2466 18.7633 48.8888 18.4819 49.3361 18.2942C49.7834 18.1066 51.4832 17.1684 52.1989 16.887C52.9146 16.5117 54.2565 15.5736 54.9722 15.2921C55.6879 15.0107 55.3301 14.9168 54.5249 15.2921C53.7198 15.6674 52.6462 15.9488 51.841 16.4179C51.0359 16.887 49.6045 17.3561 49.1572 17.7313C48.6204 18.1066 46.5627 18.8571 44.2367 19.1386C41.9107 19.3262 39.2268 18.5757 38.7795 18.2942C38.4216 18.0128 37.527 17.2623 37.527 17.2623C37.527 17.2623 36.9902 13.6034 36.364 12.4776C35.7378 11.258 31.2646 4.5032 30.2806 3.18977C29.207 1.87633 27.4177 0 25.4496 0C23.4814 0 19.8134 2.15778 17.4874 3.65885C15.1614 5.25373 5.85726 13.791 4.06801 15.5736C1.65252 18.0128 -0.315662 19.7015 0.0421881 21.5778C0.310576 23.4542 2.54714 28.0512 3.79962 29.6461C5.05209 31.2409 5.49941 32.4606 7.55705 30.678C9.61469 28.8955 15.9665 20.7335 20.7081 17.1684C25.4496 13.6034 30.2806 10.5075 31.3541 13.322C32.5171 16.1365 36.6324 24.6738 38.7795 28.0512C40.9266 31.4286 48.5309 33.9616 56.0458 30.3028C63.5606 26.6439 73.1331 19.7015 76.3538 17.919C79.6639 16.1365 82.6162 16.1365 83.153 16.3241C83.7792 16.5117 87.3577 25.7996 87.9839 27.4883C88.6102 29.0832 93.5306 32.8358 99.3457 30.209C102.835 28.7079 109.992 24.9552 115.717 23.0789C119.564 21.7655 122.785 21.5778 123.322 22.6098C124.664 25.2367 125.29 30.7719 127.526 32.0853C129.763 33.3987 131.552 33.1173 133.431 32.3667C135.399 31.6162 136.294 31.1471 137.099 30.3028C137.815 29.4584 140.32 27.4883 141.483 27.2068C142.646 26.9254 148.192 23.3603 149.534 22.8913C150.876 22.4222 153.381 20.8273 153.381 20.8273C153.381 20.8273 154.365 20.3582 154.634 20.2644C154.812 20.1706 155.349 20.0768 155.528 20.1706C155.707 20.2644 155.707 20.6397 155.528 20.6397C155.349 20.6397 146.582 25.6119 145.598 26.1748C144.703 26.7377 141.84 28.4264 141.214 28.7079C140.677 28.8955 139.514 29.6461 138.888 29.9275C138.262 30.209 138.351 30.678 138.799 30.4904C139.246 30.3028 144.345 27.7697 145.508 27.113C146.671 26.4563 150.16 24.2047 151.055 23.6418C151.95 23.0789 152.486 22.8913 153.292 22.6098C154.097 22.3284 154.991 21.7655 155.081 21.7655C155.17 21.6716 155.797 21.2964 155.976 21.2964C156.065 21.2964 156.333 21.9531 156.333 22.1407C156.333 22.3284 158.838 27.2068 160.18 28.3326C161.612 29.4584 163.043 30.1151 163.848 30.5842C164.743 31.0533 164.922 31.1471 165.637 31.0533C166.353 30.9595 166.532 30.8657 166.711 30.678C166.89 30.4904 166.8 30.3966 167.248 30.5842C167.695 30.7719 168.858 31.2409 170.379 31.4286C171.9 31.6162 172.884 31.6162 173.51 31.6162C174.136 31.5224 174.763 31.5224 174.494 31.5224C174.226 31.4286 172.705 31.5224 171.542 31.1471C170.379 30.7719 169.663 30.9595 168.769 30.5842C167.874 30.209 168.053 29.9275 168.769 29.8337C169.574 29.8337 171.721 30.3966 172.794 30.5842C173.958 30.7719 175.389 30.678 176.284 30.7719C177.089 30.8657 177.804 30.8657 177.894 30.7719C178.073 30.5842 178.073 30.4904 178.431 30.4904C178.878 30.4904 179.146 30.3966 179.594 30.3966C180.041 30.3028 180.488 30.1151 179.683 30.0213C178.788 29.9275 177.625 29.6461 177.178 29.5522C176.731 29.4584 176.105 29.2708 175.657 29.0832C175.21 28.8955 174.852 28.7079 174.763 28.6141C174.584 28.5203 175.121 28.145 175.836 28.145C176.552 28.145 177.536 28.3326 178.162 28.3326C178.788 28.3326 180.488 28.6141 180.399 28.3326C180.309 28.0512 179.773 28.0512 179.325 27.8635C178.967 27.7697 178.699 27.5821 178.341 27.4883C177.983 27.3945 177.536 27.0192 177.715 26.9254C177.894 26.8316 178.341 26.7377 178.162 26.5501C178.073 26.3625 177.625 25.7058 178.073 25.5181C178.52 25.3305 178.788 24.9552 179.146 24.9552C179.504 24.9552 179.951 24.6738 180.22 24.6738C180.667 24.2985 181.293 24.1109 180.846 23.9232ZM21.8711 2.2516C21.6027 2.62687 20.9764 3.28358 20.2607 3.75267C19.545 4.22175 15.6087 7.41151 14.7141 7.78678C13.73 8.25586 11.4039 10.6951 10.8672 11.258C10.2409 11.7271 8.80952 12.9467 7.9149 13.791C6.93081 14.6354 5.7678 15.3859 5.7678 15.3859C5.94672 15.2921 9.79361 10.7889 13.8194 7.69296C17.7558 4.59701 18.9188 3.84648 19.8134 3.18977C20.7975 2.62687 20.887 2.53305 21.4238 2.2516C21.8711 1.97015 22.1395 1.87633 21.8711 2.2516ZM67.8549 21.2964C67.6759 21.484 67.2286 21.6716 66.8708 21.8593C66.6024 22.0469 66.2445 22.0469 65.9761 22.3284C65.7972 22.6098 65.4394 22.6098 65.4394 22.4222C65.4394 22.2345 65.4394 21.7655 65.7972 21.6716C66.2445 21.5778 66.6918 21.3902 66.8708 21.2964C67.0497 21.2026 67.3181 20.9211 67.497 20.9211C67.7654 20.8273 68.1232 21.0149 67.8549 21.2964ZM71.8807 18.6695C71.5228 18.8571 70.8071 19.5139 70.5387 19.6077C70.2703 19.7015 70.0019 19.8891 69.7336 20.2644C69.4652 20.6397 69.1968 20.6397 69.0179 20.7335C68.7495 20.8273 68.66 20.3582 68.9284 20.1706C69.1968 20.0768 69.6441 19.42 69.9125 19.2324C70.1809 19.0448 70.3598 18.951 70.8966 18.6695C71.5228 18.2942 71.6123 18.1066 71.9701 18.2004C72.328 18.3881 72.2385 18.3881 71.8807 18.6695ZM75.9065 5.44136C74.7435 5.81663 73.7594 6.28571 70.4493 8.16205C67.0497 10.0384 62.3976 13.4158 61.5925 13.791C60.8768 14.0725 60.8768 13.4158 61.2346 13.2281C61.5925 13.0405 61.5925 12.9467 62.8449 12.1023C64.008 11.258 66.8708 9.5693 68.7495 8.25586C70.6282 6.94243 73.9383 5.629 74.9224 5.34755C75.9065 5.0661 77.159 5.15991 77.159 5.15991C77.159 5.15991 77.0695 5.0661 75.9065 5.44136ZM106.861 13.791C107.666 13.4158 109.276 12.7591 109.992 12.5714C110.707 12.3838 109.455 13.0405 109.097 13.2281C108.65 13.4158 108.381 13.6972 108.113 13.9787C107.845 14.2601 106.861 14.4478 106.503 14.4478C106.055 14.5416 106.324 14.1663 106.861 13.791ZM104.087 25.7058C104.445 25.6119 105.34 25.2367 105.519 25.1429C105.787 25.049 107.308 24.58 107.755 24.3923C108.292 24.2047 108.56 23.8294 109.008 23.6418C109.455 23.4542 109.634 23.4542 110.439 23.0789C111.155 22.7036 111.602 22.516 111.96 22.4222C112.228 22.3284 113.749 21.484 114.107 21.484C114.465 21.484 115.27 21.2964 115.449 21.2026C115.628 21.1087 115.986 21.1087 115.896 21.2026C115.807 21.3902 115.449 21.8593 115.181 21.9531C114.912 22.0469 113.749 22.4222 113.391 22.6098C112.944 22.7036 111.96 22.9851 111.244 23.2665C110.529 23.548 109.455 24.2047 108.829 24.4861C108.202 24.6738 107.487 24.8614 106.861 25.2367C106.234 25.5181 106.234 25.5181 105.429 25.8934C104.624 26.2687 104.177 26.5501 104.177 26.5501C103.819 26.7377 103.461 26.7377 103.461 26.4563C103.282 26.1748 103.729 25.7058 104.087 25.7058ZM109.187 25.3305C105.787 27.0192 103.998 27.7697 102.566 28.3326C101.135 28.8955 100.598 28.8017 100.598 28.8017C100.598 28.8017 102.387 27.9574 103.193 27.6759C103.998 27.3945 109.187 24.8614 111.692 23.8294C113.749 22.8913 113.57 23.0789 114.912 22.6098C115.986 22.2345 116.165 22.6098 116.165 22.6098C116.165 22.6098 112.586 23.6418 109.187 25.3305ZM152.844 7.3177C152.755 7.78678 152.844 7.78678 152.308 8.25586C151.681 8.63113 151.055 9.38166 151.413 9.19403C151.771 9.0064 151.681 9.5693 151.234 9.94456C150.787 10.3198 150.429 10.3198 149.624 10.6951C148.819 11.0704 148.461 11.4456 147.387 11.6333C146.403 11.8209 145.329 12.5714 144.166 13.2281C143.003 13.9787 141.035 15.1045 139.872 15.7612C138.709 16.4179 138.083 16.0426 137.636 16.5117C137.188 16.9808 137.009 16.7932 136.383 16.887C135.757 16.9808 135.936 16.5117 135.936 16.5117C136.294 16.2303 136.92 15.855 137.367 15.6674C137.725 15.3859 139.157 14.9168 139.693 14.7292C140.23 14.4478 141.125 13.791 141.483 13.6034C141.84 13.4158 143.093 12.3838 143.451 12.1023C143.809 11.8209 145.687 10.6951 146.314 10.4136C146.94 10.1322 147.834 9.66311 148.282 9.5693C148.729 9.47548 149.534 9.0064 149.982 8.81876C150.429 8.63113 151.145 8.06823 151.413 7.8806C151.681 7.69296 151.95 7.50533 152.308 7.3177C152.755 7.03625 153.023 6.7548 152.844 7.3177Z" fill="#FDD771"/>
</svg>
