<svg width="268" height="166" viewBox="0 0 268 166" fill="none" xmlns="http://www.w3.org/2000/svg">
<path opacity="0.75" d="M162.988 15.287C164.642 15.8787 166.426 17.0397 165.731 17.1713C165.034 17.4446 165.71 18.5892 166.109 19.7297C166.507 20.8703 165.133 20.1408 165.118 21.1334C165.103 22.126 165.508 22.8411 164.809 23.2563C164.11 23.6714 164.518 24.2448 164.505 25.0955C164.49 26.0881 163.118 25.2169 162.406 26.4828C161.982 27.0439 162.389 27.6172 162.931 28.4762C163.334 29.3331 163.046 30.038 161.802 29.8778C160.557 29.7176 159.025 30.2623 156.947 30.2316C154.869 30.201 140.47 29.4211 136.726 29.6495C132.981 29.8779 126.174 31.0539 124.508 31.3129C122.7 31.7117 104.351 35.6958 92.9331 39.4984C81.5148 43.3011 63.5184 51.5451 56.1029 56.3997C48.6873 61.2542 32.2945 73.4931 25.5358 80.7685C18.7751 88.1856 12.8729 93.7716 9.71602 101.1C6.55709 108.57 2.62992 121.135 2.98253 125.395C2.98253 125.395 2.02331 124.672 1.38734 120.833C0.751376 116.994 0.375702 104.933 1.72954 97.7201C2.93646 91.072 9.1074 76.6966 18.9494 67.0557C28.7914 57.4148 37.9344 48.1891 50.9353 40.4386C63.9362 32.6882 71.3476 28.1172 86.5251 23.0936C101.705 17.9282 103.925 17.6773 105.042 17.1265C106.159 16.5756 106.715 16.442 107.823 16.4584C108.931 16.4747 109.634 15.776 110.608 15.5067C111.58 15.3792 123.401 12.4335 135.876 12.1921C148.488 11.9528 158.853 13.8077 162.988 15.287Z" fill="#79A5DB" fill-opacity="0.2"/>
<path opacity="0.75" d="M231.287 72.0336C231.287 72.0336 220.207 81.0889 213.492 85.3865C206.916 89.6861 185.346 105.394 161.585 109.866C137.825 114.337 119.09 116.33 88.9157 114.183C58.7413 112.035 45.1401 104.176 40.3755 98.4324C35.6109 92.6889 30.9555 79.572 30.4917 73.4665C30.4917 73.4665 28.6026 88.7561 28.3948 93.4334C28.1848 98.2524 28.2562 112.153 39.6261 120.972C50.8576 129.789 72.4074 134.22 90.5402 135.481C108.673 136.741 137.372 135.605 152.119 131.568C166.866 127.53 190.408 119.085 196.273 116.051C202.139 112.875 204.66 111.069 203.965 111.2C203.27 111.332 198.237 114.378 197.121 114.929C196.004 115.48 188.33 119.054 185.543 120.147C183.173 121.105 180.394 121.631 179.838 121.765C180.671 121.636 186.105 119.588 188.057 118.766C190.011 117.802 192.805 116.283 193.363 116.008C193.922 115.733 194.069 115.167 194.763 115.036C195.458 114.904 195.735 114.908 196.155 114.631C196.577 114.212 198.105 113.95 198.804 113.535C199.503 113.12 199.786 112.699 200.067 112.419C200.349 112.14 201.046 111.866 201.329 111.445C201.751 111.026 201.891 110.886 202.586 110.755C203.279 110.765 204.114 110.493 204.398 110.072C204.681 109.651 205.239 109.375 205.516 109.38C205.793 109.384 206.902 109.4 207.324 108.981C207.605 108.701 214.458 104.406 216.702 102.595C219.084 100.786 220.49 99.3889 220.912 98.9697C221.334 98.5504 221.481 97.9853 221.758 97.9894C222.176 97.8537 222.457 97.5742 222.459 97.4324C222.463 97.1488 222.747 96.7275 223.164 96.5918C223.582 96.4562 224.287 95.6156 225.563 93.6488C226.978 91.6841 227.259 91.4046 228.716 86.604C230.171 81.9451 232.087 74.1728 231.287 72.0336ZM205.726 95.1998C205.166 95.617 204.608 95.8924 204.047 96.3097C200.131 98.8048 190.343 104.759 183.098 107.489C173.623 111.036 159.837 115.655 155.528 116.584C151.219 117.513 150.665 117.505 149.838 117.209C149.011 116.913 149.283 117.201 147.342 117.314C145.4 117.427 143.31 118.248 142.477 118.377C141.643 118.507 133.176 119.516 123.888 119.805C114.462 120.091 99.7903 119.023 99.7903 119.023C99.7903 119.023 123.336 119.655 133.886 118.392C144.573 117.132 148.465 116.338 150.272 115.939C152.079 115.54 164.715 113.741 177.403 108.397C188.975 103.604 198.036 99.9085 203.909 96.3076C205.168 95.4752 205.867 95.0601 205.726 95.1998Z" fill="#79A5DB" fill-opacity="0.2"/>
<path opacity="0.75" d="M266.954 68.3054C266.438 65.7449 266.081 61.7684 264.331 58.3387C262.58 54.909 255.639 46.4387 250.7 43.1037C245.761 39.7688 234.343 34.2108 224.973 30.6686C215.463 27.2662 209.517 26.4693 206.339 25.8551C203.161 25.2408 199.293 24.4746 197.36 24.0206C195.424 23.7084 184.08 22.5481 180.068 22.0634C176.196 21.5808 169.832 20.9195 166.505 21.0123C163.317 21.107 151.407 20.6476 149.47 20.4772C147.533 20.3067 142.411 19.9475 139.639 20.0484C136.866 20.1493 131.73 20.7826 128.955 21.0253C126.18 21.268 111.477 22.3275 107.441 23.5443C103.543 24.7633 101.74 24.8785 99.5214 24.9876C97.4414 25.0987 95.3445 26.3442 94.7904 26.336C94.2363 26.3278 83.9472 28.7289 80.887 29.5347C77.8267 30.3405 67.3655 35.0082 61.2198 38.3214C55.0762 41.4928 48.9179 45.6567 45.1293 48.8629C41.3407 52.069 38.5386 54.155 34.8339 61.0499C31.2699 67.8051 30.2267 72.7537 29.5886 78.4174C28.9505 84.0811 27.8884 90.3059 28.0878 95.5565C28.2872 100.807 29.1981 104.792 29.7375 105.792C29.7375 105.792 33.1547 80.8811 52.2111 66.5541C71.1289 52.225 103.262 43.7641 145.01 40.9764C186.758 38.1888 229.654 51.4446 238.854 57.1117C238.854 57.1117 239.689 56.8404 236.664 55.2356C233.501 53.6288 229.366 52.1495 229.366 52.1495C229.366 52.1495 232.412 52.3363 238.875 55.6937C245.337 59.0512 249.17 62.228 252.041 64.8233C254.776 67.2747 257.91 70.8667 259.096 74.9972C260.284 78.9859 261.165 84.9557 261.098 89.4932C261.031 94.0307 260.156 96.9962 260.582 96.2934C261.008 95.5905 264.158 88.6874 265.644 81.9016C266.992 75.1137 267.471 70.8659 266.954 68.3054ZM221.17 34.8673C216.626 32.9565 213.03 32.4779 211.511 32.1718C209.991 31.8658 209.303 31.5719 207.781 31.4076C206.259 31.2434 208.066 30.8445 206.408 30.5364C204.75 30.2283 202.533 30.1956 199.906 29.8731C197.278 29.5507 195.076 28.5254 191.89 28.4784C188.842 28.4334 183.318 27.2172 179.579 27.0202C175.841 26.8232 171.964 26.6241 168.919 26.4374C165.873 26.2506 163.527 25.6486 160.618 25.6057C157.847 25.5648 154.111 25.226 156.888 24.8415C158.277 24.5784 163.543 24.5143 166.176 24.5531C168.669 24.5899 174.343 25.0991 176.418 25.2716C178.494 25.4441 203.394 28.2227 207.256 29.4143C211.118 30.6059 224.365 34.3472 229.738 36.4121C234.973 38.4749 238.539 40.9386 238.539 40.9386C238.539 40.9386 225.714 36.7782 221.17 34.8673Z" fill="#79A5DB" fill-opacity="0.2"/>
<path opacity="0.75" d="M266.557 66.8818C266.292 66.027 258.86 81.3765 255.052 85.8588C251.245 90.3411 235.692 102.025 227.315 106.298C218.938 110.571 193.026 119.975 190.659 120.791C188.43 121.609 186.912 121.161 185.38 121.706C183.848 122.251 185.531 120.857 183.583 121.396C181.635 121.934 166.615 125.684 163.557 126.348C160.499 127.012 149.242 129.257 145.076 129.904C140.909 130.552 110.099 133.927 98.5989 133.899C86.9603 133.869 66.6089 132.717 58.8638 131.752C51.1187 130.787 40.8968 128.65 33.3007 126.978C25.7047 125.306 19.5338 120.96 15.6948 118.208C11.8537 115.599 9.96681 112.025 8.35483 108.598C6.87928 105.314 3.97227 95.7684 4.05414 90.2383C4.05414 90.2383 1.35069 95.0206 0.81123 103.38C0.271775 111.74 0.882522 126.641 6.61053 132.825C12.3385 139.008 25.1043 147.138 43.2161 149.817C61.1894 152.493 81.4064 153.359 84.7311 153.408C88.0559 153.457 98.3092 153.467 100.387 153.497C102.465 153.528 103.853 153.407 105.517 153.289C107.181 153.172 107.056 152.319 106.224 152.307C105.393 152.295 105.668 152.441 104.419 152.564C103.17 152.687 102.612 152.963 101.924 152.669C101.235 152.375 100.82 152.369 99.9863 152.499C99.153 152.628 98.7395 152.48 97.6313 152.464C96.523 152.447 96.8001 152.452 95.5512 152.575C94.3023 152.698 93.8993 151.841 93.8993 151.841C93.8993 151.841 94.8732 151.572 95.9815 151.589C97.0897 151.605 102.631 151.687 103.741 151.561C104.713 151.434 106.098 151.454 107.066 151.61C108.034 151.766 109.144 151.641 109.975 151.653C110.806 151.665 110.683 150.671 111.514 150.683C112.345 150.695 111.925 150.973 113.033 150.989C114.142 151.006 115.533 150.601 116.503 150.615C117.473 150.629 118.879 149.232 120.264 149.252C121.65 149.273 122.487 148.86 122.754 149.573C123.02 150.286 123.438 150.15 123.444 149.725C123.45 149.299 123.465 148.307 124.437 148.179C125.409 148.052 126.517 148.068 127.768 147.803C129.019 147.538 131.936 147.013 132.906 147.028C133.876 147.042 134.701 147.48 134.701 147.48C134.701 147.48 131.372 147.714 129.982 147.977C128.593 148.24 126.506 148.777 127.615 148.793C128.723 148.81 130.108 148.83 130.939 148.842C131.771 148.855 132.043 149.142 133.156 148.875C134.268 148.608 134.69 148.189 136.078 148.067C137.465 147.946 137.748 147.525 139.134 147.545C140.519 147.566 141.073 147.574 141.627 147.582C142.181 147.59 143.707 147.471 144.679 147.343C145.651 147.216 145.8 146.509 146.772 146.381C147.744 146.254 150.657 146.013 151.629 145.886C152.601 145.758 154.131 145.355 155.105 145.086C156.079 144.817 157.747 144.416 158.858 144.291C159.968 144.165 159.546 144.584 161.07 144.607C162.594 144.629 163.001 145.203 165.371 144.245C167.74 143.287 167.327 143.139 168.582 142.59C169.837 142.042 172.339 141.511 174.006 141.252C175.672 140.993 176.371 140.578 177.202 140.59C178.034 140.602 178.588 140.611 178.458 140.041C178.327 139.472 179.167 138.917 179.574 139.49C179.981 140.064 180.953 139.936 180.953 139.936C182.485 139.392 184.16 138.565 184.992 138.578C185.823 138.59 186.381 138.315 188.052 137.772C189.723 137.229 189.723 137.229 190.694 137.102C191.666 136.974 191.551 135.412 192.802 135.147C194.053 134.882 196.414 134.491 197.808 133.945C199.201 133.398 200.169 133.554 201.563 133.007C202.956 132.461 202.807 133.167 199.191 134.107C195.574 135.046 195.428 135.611 196.676 135.488C197.925 135.365 199.602 134.397 201.548 134C203.494 133.603 204.052 133.328 204.613 132.91C205.173 132.493 204.627 131.918 205.88 131.511C207.133 131.104 209.365 130.144 210.618 129.737C211.871 129.33 214.091 129.079 215.208 128.528C216.325 127.978 217.853 127.716 218.831 127.164C219.809 126.611 221.205 125.922 220.651 125.914C220.096 125.906 218.283 126.73 216.751 127.275C215.219 127.819 214.112 127.661 214.112 127.661C214.112 127.661 215.787 126.835 217.317 126.432C218.848 126.029 219.272 125.468 220.525 125.061C221.778 124.654 222.619 123.957 222.204 123.951C221.788 123.945 219.706 124.198 220.823 123.647C221.939 123.096 223.331 122.691 225.004 122.007C226.677 121.323 228.643 119.508 228.643 119.508C228.643 119.508 228.91 120.221 227.928 121.057C226.945 121.894 226.244 122.451 227.636 122.046C229.027 121.641 228.329 122.056 229.865 121.228C231.401 120.4 233.773 119.3 235.868 118.196C237.963 117.092 238.378 117.099 239.22 116.402C240.062 115.705 240.335 115.993 240.062 115.705C239.789 115.417 239.239 115.126 239.239 115.126C240.773 114.439 241.201 113.595 242.316 113.186C243.43 112.776 245.126 110.532 246.245 109.84C247.364 109.147 249.318 108.183 250.021 107.484C250.724 106.786 251.425 106.229 252.548 105.252C253.671 104.276 255.651 101.611 256.356 100.77C257.061 99.9295 257.911 98.6656 258.341 97.6791C258.772 96.6927 260.613 94.0251 262.059 89.9334C264.892 85.7204 268.563 71.7336 266.557 66.8818ZM218.027 115.947C211.89 118.693 203.385 122.255 201.435 122.936C199.623 123.618 192.258 125.069 188.912 126.438C185.569 127.665 176.119 129.512 172.78 130.455C169.44 131.399 149.427 135.5 143.044 136.115C136.661 136.73 118.621 138.591 115.157 138.54C111.833 138.491 109.341 138.312 108.092 138.435C106.844 138.559 104.898 138.956 103.097 138.929C101.296 138.902 100.597 139.318 99.2118 139.297C97.688 139.275 96.5797 139.258 95.0559 139.236C93.5321 139.213 52.5438 137.474 45.7978 134.538C44.6959 134.096 70.1477 137.024 72.2236 137.197C74.2994 137.369 91.049 138.468 96.4643 137.696C101.877 137.067 117.252 137.436 120.86 137.064C124.607 136.694 149.599 133.233 152.233 133.13C154.867 133.027 166.974 129.518 171.006 128.585C174.9 127.65 190.602 124.619 195.467 123.557C200.333 122.494 207.452 118.911 212.049 117.277C216.507 115.641 232.281 107.79 235.356 105.991C235.633 105.995 224.305 113.062 218.027 115.947Z" fill="#79A5DB" fill-opacity="0.2"/>
<path fill-rule="evenodd" clip-rule="evenodd" d="M133.672 0C179.584 0 216.8 37.1587 216.8 83C216.8 128.841 179.584 166 133.672 166C87.7601 166 50.5442 128.841 50.5442 83C50.5442 37.1587 87.7601 0 133.672 0Z" fill="url(#paint0_linear_2007_64)"/>
<path d="M88.679 61.0797V93.9814C88.7115 101.422 94.7967 107.407 102.217 107.378H150.252C151.619 107.378 152.717 106.282 152.717 104.95V72.0448C152.687 64.6072 146.602 58.6189 139.179 58.6481H91.1436C89.7798 58.6481 88.679 59.7439 88.679 61.0797ZM155.776 73.9123L175.606 59.4489C177.327 58.0256 178.665 58.3822 178.665 60.9598V105.066C178.665 108.001 177.032 107.647 175.606 106.581L155.776 92.1431V73.9123Z" fill="white"/>
<defs>
<linearGradient id="paint0_linear_2007_64" x1="72.5698" y1="26.7221" x2="204.374" y2="126.634" gradientUnits="userSpaceOnUse">
<stop stop-color="#4A8CFF"/>
<stop offset="1" stop-color="#23B7EC"/>
</linearGradient>
</defs>
</svg>
