<svg width="197" height="239" fill="none" xmlns="http://www.w3.org/2000/svg"><g clip-path="url(#a)"><path d="M163.389 162.384c-2.173-1.065-3.79 2.387-1.159 3.397 2.63 1.01 4.121 1.669 4.949 1.669.829 0 1.587-2.151.879-2.86-.708-.708-3.168-1.472-4.669-2.206Z" fill="#FBAE96"/><path d="M60.26 134.234c3.685 0 4.654 4.739 9.252 6.266 5.703 1.895 13.112-1.1 15.025-5.985 2.484-6.346-2.22-9.653-1.15-20.201.708-6.99-4.046-6.372-8.117-13.176-4.071-6.81-2.982-7.548-8.504-13.804-5.522-6.257-14.749-7.141-21.681-6.04-6.933 1.1-10.387 2.371-15.813 6.105-5.427 3.734-2.972 7.734-6.46 10.372-3.49 2.633-5.046 5.694-6.1 10.93-2.028 10.05 4.789 14.91 1.727 18.382-3.062 3.473-9.277 19.036 6.802 18.096 5.682-.332 10.773 1.538 13.559-2.779 4.101-6.352 6.15-2.126 11.767-4.91 5.622-2.789 9.688-3.246 9.688-3.246l.005-.01Z" fill="#37231B"/><path d="M19.05 137.671c13.54-11.031 14.825 0 47.304-2.156 4.006-.267 22.238 3.407 25.757 5.573 17.841 10.97 31.787 82.81 31.787 82.81l-103.311-1.14-1.536-85.087Z" fill="#FCC583"/><path d="M44.946 132.656c-.236 4.552-4.378.246-4.378 6.015 0 5.01 5.603 13.015 21.46 10.477 10.086-1.613 13.118-10.231 7.124-12.744-3.393-1.422-4.995-7.135-4.995-7.135l-19.211 3.382v.005Z" fill="#FBAE96"/><path d="M66.442 106.555c3.117 12.503 2.997 30.664-11.23 31.754-17.404 1.337-36.565-32.855-22.6-45.407 13.966-12.553 29.412-4.05 33.83 13.653Z" fill="#FBAE96"/><path d="M38.846 102.253c-2.048 3.954-2.193 4.663-4.462 6.934-2.27 2.272-2.058 8.156-.974 11.513 5.165 16.005.743 8.277-.281 9.302-1.024 1.025-5.266-9.428-5.848-10.01-.588-.588-5.191-17.348-5.191-19.106 0-1.76 11.089-12.362 12.43-13.71 1.345-1.346 13.453-3.859 16.891-3.859 3.44 0 10.311-.437 11.777 1.905 1.461 2.342 10.969 21.96 10.969 21.96s5.703 9.141 1.847 8.885c-4.934-.332-5.863-1.327-7.128-4.216-1.356-3.106-2.64-10.081-9.438-7.774-11.49 3.894-20.592-1.814-20.592-1.814v-.01Z" fill="#37231B"/><path d="M-8.333 230.848c-4.402-27.442 17.46-90.579 31.651-96.328 10-4.055 17.705-.864 19.563 10.216 1.857 11.081-15.05 63.293-15.05 63.293s49.582-13.639 53.975 0c4.387 13.638 2.193 23.302 2.193 23.302l-92.327-.483h-.005Z" fill="#FCC583"/><path d="M37.507 209.421c-4.543 0-8.579-.1-11.631-.181-1.47-.035-2.746-.07-3.785-.085a1.247 1.247 0 0 1-1.064-.573c-1.135-1.754 1.335-7.739 6.18-19.061 4.954-11.588 11.118-26.01 11.118-33.835a.618.618 0 1 1 1.235 0c0 8.081-6.22 22.629-11.22 34.323-1.992 4.658-3.87 9.055-5.05 12.332-1.686 4.688-1.325 5.457-1.224 5.573h.04c1.044.015 2.324.045 3.8.085 6.777.171 17.013.432 27.545-.347a.62.62 0 0 1 .09 1.237c-5.527.407-11.079.527-16.034.527v.005Z" fill="#C99565"/><path d="M45.102 118.997c-.11.713.638 2.869 2.234 2.377 1.055-.327.879-3.02-.361-3.513-1.01-.397-1.762.422-1.873 1.136ZM58.19 114.996c-.185.699.473 2.91 2.109 2.583 1.084-.211 1.05-2.894-.126-3.512-.958-.508-1.797.231-1.982.929Z" fill="#372313"/><path d="M52.084 130.981c.868 1.005 2.952 2.186 6.154 1.1 3.203-1.085 2.837-4.316 2.837-4.316-2.892 1.829-5.648 2.708-8.991 3.211v.005Z" fill="#E66C40"/><path d="M55.843 112.53c.642 0 2.675-1.427 4.608-1.116 1.933.312 1.862.045 1.4-.422-.466-.467-1.776-.95-4.226-.633-2.972.387-2.34 2.171-1.782 2.171ZM47.321 114.579c.035-.618-1.29-.769-2.249-.517-1.315.346-3.323 2.266-3.654 3.643-.176.719.331 1.07 1.069.06.873-1.191 1.561-1.914 2.67-2.085.894-.141 2.14-.613 2.164-1.096v-.005Z" fill="#37231B"/><path d="M36.248 120.927c1.567 2.211 3.725 6.558 2.119 7.699-1.606 1.14-6.37-1.352-7.937-3.563-1.566-2.211-1.536-4.93.07-6.071 1.607-1.14 4.182-.276 5.748 1.935Z" fill="#FBAE96"/><path d="M55.491 139.836c-3.157 0-5.778-1.056-5.923-1.116a.404.404 0 0 1 .306-.749c.045.021 4.603 1.85 8.76.634a.406.406 0 0 1 .502.276.407.407 0 0 1-.276.502 12.01 12.01 0 0 1-3.369.458v-.005Z" fill="#C99565"/><path d="M37.936 129.273c1.14 1.141 6.415 6.312 11.782 9.076 1.556.804.768 6.151.632 6.95-1.024 6.08-7.53 4.769-11.415 2.824-4.172-2.091-.266-15.417-6.17-15.819-6.691-.458-9.352 2.507-10.326 2.251-1.907-.508 1.511-3.473 6.165-4.875 3.73-1.12 8.649-.844 9.332-.407Z" fill="#37231B"/><path d="M40.761 88.177c-2.53-.417-3.765 2.633-4.95 4.307-.235.331.312.753.563.437 1.104-1.377 2.113-4.287 4.287-4.02.407.05.507-.654.095-.724h.005ZM41.899 90.784c-1.707.156-2.706 1.477-3.695 2.728-.286.362.216.875.512.513.849-1.05 1.737-2.332 3.188-2.508.457-.055.477-.778 0-.733H41.9ZM29.67 106.186c-1.457 1.749-2.446 3.98-2.852 6.221-.086.458.612.659.708.196.421-2.1 1.315-4.221 2.655-5.904.286-.357-.21-.87-.512-.513ZM46.528 141.716c.035-.478-.693-.468-.738 0-.09 1.015.105 2.035.055 3.055-.025.457-.08.99-.366 1.367-.367.482-.97.482-1.521.442-.482-.035-.457.678 0 .739 3.383.422 2.43-3.568 2.57-5.603ZM80.42 118.574c-.416-.865-.958-1.658-1.465-2.468-.331-.532-.929-1.281-.898-1.944.02-.463-.693-.463-.718 0-.035.557.276 1.115.542 1.583.416.738.898 1.442 1.33 2.171.392.653.833 1.371.959 2.14.13.799-.336 1.136-1.054 1.332-.462.126-.266.809.195.714.733-.156 1.426-.568 1.597-1.347.16-.739-.166-1.523-.482-2.176l-.005-.005ZM80.46 127.433c-.417-.467-.944-.693-1.496-.955-.668-.321-1.01-.638-.914-1.432.045-.397-.652-.497-.708-.095-.165 1.181.417 1.774 1.431 2.246.502.231 1.325.583 1.45 1.206.096.492-.717.889-1.003 1.206-.316.352.176.854.522.523.382-.367.934-.674 1.154-1.176.246-.558-.06-1.101-.431-1.518l-.005-.005ZM61.292 93.644c-.637-.683-1.45-.93-2.36-1.015-1.023-.1-2.022-.045-2.73-.92-.306-.376-.828.156-.532.533 1.32 1.663 3.675.513 5.095 1.925.337.337.844-.176.522-.523h.005Z" fill="#55341B"/><path d="M88.76 139.886c5.627.764 23.483 21.679 46.083 26.533 22.6 4.855 30.858-.266 30.858-.266l9.648 15.649c-22.113 16.216-56.655 7.698-78.552-3.222l-8.037-38.694Z" fill="#FCC583"/><path d="M178.373 228.617s13.654-43.132-14.965-64.268c-6.024-4.447-11.265-6.542-23.93-6.497-13.489.05-25.627 12.699-30.396 21.267-8.835 15.874-16.154 49.498-16.154 49.498h85.445Z" fill="#DB7E5D"/><path d="M162.237 228.581a.6.6 0 0 1-.602-.603v-24.573c-.005-.116-.763-14.754-2.811-20.453a.6.6 0 0 1 .366-.774.6.6 0 0 1 .773.367c2.114 5.87 2.852 20.227 2.887 20.835v24.603a.6.6 0 0 1-.602.603l-.011-.005ZM117.72 224.668a.602.602 0 0 1-.597-.538c-.145-1.261-3.574-31.035-1.616-41.498a.605.605 0 1 1 1.189.226c-1.927 10.282 1.597 40.83 1.632 41.137a.609.609 0 0 1-.532.673h-.076Z" fill="#9E614B"/><path d="M131.557 162.858c-3.032 3.447-4.964 13.995.568 14.277 13.006.668 17.539-17.016 14.055-18.141-7.961-2.578-14.623 3.864-14.623 3.864Z" fill="#F1F2F2"/><path d="M130.998 154.039c0 1.346-.788 9.94 1.421 11.166 6.465 3.588 13.764-3.92 13.764-6.206v-7.377l-15.18 2.422-.005-.005Z" fill="#FBAE96"/><path d="M120.618 120.284c-.632-6.573-4.472-12.061-7.791-9.307-3.318 2.754-7.113 5.654-6.305 9.307.452 2.045 11.089 5.387 11.089 5.387l3.007-5.387Z" fill="#37231B"/><path d="M114.074 126.696a.606.606 0 0 1-.381-1.076c2.113-1.703 3.142-3.522 3.142-5.558a.602.602 0 1 1 1.205 0c0 2.393-1.21 4.578-3.594 6.503a.597.597 0 0 1-.377.136l.005-.005Z" fill="#DE501D"/><path d="M115.971 135.902c-2.103.473-3.659 1.016-4.523.156-.863-.864 0-3.09 0-3.09l2.776-.447 1.747 3.381Z" fill="#82512B"/><path d="M154.832 138.138c-1.998 13.794-10.848 24.719-23.268 24.719-9.176 0-15.235-4.598-16.229-14-.231-2.186.211-5.222.045-6.503-.276-2.156-1.862-4.548-1.862-6.809 0-13.794 11.847-20.413 24.266-20.413 12.419 0 19.026 9.357 17.048 23.006Z" fill="#FBAE96"/><path d="M128.17 139.38c-.051-.447 1.009-1.347 2.459-1.005 1.446.342 2.52 1.367 2.049 1.648-.472.282-1.531-.593-2.455-.487-.924.1-2.013.161-2.048-.156h-.005ZM120.986 139.642c.05-.447-1.009-1.347-2.46-1.005-1.446.341-2.52 1.367-2.048 1.648.472.281 1.531-.593 2.455-.487.923.105 2.013.16 2.048-.156h.005ZM126.306 130.911c10.572-1.035 11.169 3.232 14.191 7.227 3.027 3.995 10.437 3.226 13.84 2.688 1.16-.181 2.912-7.729 2.43-12.236-.357-3.342-.161-9.483-7.038-13.061-6.878-3.578-9.267-4.382-15.949-3.141-6.676 1.242-13.93 19.157-7.479 18.523h.005Z" fill="#37231B"/><path d="M144.291 120.7c.633-6.573 7.063-12.166 10.386-9.412 3.324 2.753 6.431 10.578 4.709 11.774-1.722 1.196-12.088 3.025-12.088 3.025l-3.007-5.387Z" fill="#37231B"/><path d="M148.335 126.263c-2.927 0-4.132-1.794-4.533-2.639-.703-1.472-.628-3.271.17-4.01a.604.604 0 1 1 .819.89c-.282.261-.457 1.442.095 2.598.422.884 1.561 2.301 4.458 1.874a.608.608 0 0 1 .687.513.605.605 0 0 1-.512.688c-.426.06-.823.091-1.189.091l.005-.005Z" fill="#D9886B"/><path d="M110.648 135.385c3.529 4.588 4.909-7.895 14.718-5.508 3.83.93.823-5.643 4.473-8.191 3.644-2.548 9.458-8.247 3.132-9.071-6.325-.824-14.889 2.834-17.268 6.744-1.06 1.739-3.248 4.06-3.564 7.196-.422 4.231-2.505 7.508-1.486 8.83h-.005Z" fill="#37231B"/><path d="M122.457 154.344s1.099 2.532 4.031 2.688c2.932.156 3.459-2.663 3.459-2.663-2.58.879-4.814 1.06-7.49-.025Z" fill="#F1F2F2"/><path d="M130.303 142.888c-.512.191-1.029 1.015-.783 2.231.246 1.211 1.155 1.744 1.722 1.377s.974-2.066.617-2.774c-.356-.709-1.229-.955-1.561-.829l.005-.005ZM118.836 142.907c-.502.211-.989 1.055-.693 2.261.296 1.201 1.22 1.694 1.777 1.307.557-.392.888-2.101.507-2.794-.382-.694-1.27-.905-1.591-.769v-.005Z" fill="#372313"/><path d="M137.686 125.997c-1.25-1.448-3.589-1.835-5.326-1.161-.422.166-.246.844.191.688 1.591-.568 3.408-.191 4.613.995.341.337.833-.166.522-.522ZM140.081 119.318c-2.134-.512-4.102-.261-6.059.709-.422.211-.051.839.371.633 1.807-.879 3.539-1.015 5.497-.638.457.09.658-.593.196-.704h-.005ZM148.617 133.038c-1.255.412-2.821-.914-2.771-2.201.02-.462-.683-.457-.713 0-.11 1.709 1.998 3.568 3.68 2.91.426-.171.261-.86-.196-.709ZM119.29 123.082c-1.22-.116-2.445.291-3.158 1.337-.266.387-.396.829-.537 1.271-.206.648-.427.945-1.139 1.01-.462.045-.477.724 0 .734 1.054.015 1.571-.603 1.872-1.543.176-.553.341-1.05.788-1.457.592-.543 1.401-.689 2.179-.643.462.025.447-.669 0-.709h-.005ZM125.162 116.766c-.808-.206-1.35-.799-2.244-.689-.833.106-1.496.689-2.008 1.317-.291.356.191.874.517.517.492-.527 1.1-1.161 1.893-1.085.587.055 1.069.522 1.651.638.452.091.648-.583.191-.698Z" fill="#643D20"/><path d="M131.558 163.259a.403.403 0 0 1-.402-.402c0-.221.181-.402.402-.402 3.514 0 6.44-.678 8.689-2.015a.404.404 0 0 1 .412.694c-2.374 1.412-5.437 2.125-9.101 2.125Z" fill="#C48976"/><path d="M133.832 228.754c0-6.458 9.011-19.021 25.552-19.021 16.54 0 25.014 1.156 25.014 1.156v17.624l-50.566.241Z" fill="#DB7E5D"/><path d="M133.552 214.286a.6.6 0 0 1-.562-.387.608.608 0 0 1 .346-.784c5.146-1.97 24.538-4.03 28.905-3.975a.6.6 0 0 1 .598.613.603.603 0 0 1-.603.598h-.01c-4.181-.06-23.538 2.01-28.453 3.895a.654.654 0 0 1-.216.04h-.005Z" fill="#9E614B"/><path d="M53.198 218.076h75.887c4.463 0 8.087 3.628 8.087 8.095v1.257H53.193v-9.357l.005.005Z" fill="#7781A6"/><path d="M118.816 227.432H35.254l-5.492-62.167c-.316-1.794.467-3.447 2.264-3.447h78.276c1.396 0 2.596 1.015 2.842 2.412l5.672 63.202Z" fill="#7781A6"/><path d="M77.257 185.201c.221 3.447-2.188 6.407-5.38 6.613-3.194.206-5.965-2.417-6.19-5.864-.226-3.448 2.188-6.407 5.38-6.613 3.194-.206 5.965 2.417 6.19 5.864Z" fill="#DBDBDB"/><path d="M293 226.301H-96v12.936h389v-12.936Z" fill="#DCBFA3"/><path d="M194.152 59.141s15.988 61.971 15.988 74.333c0 12.362-7.364 7.608-7.364 7.608s-5.462-43.03-7.364-47.945c-1.898-4.915-.713-9.036-.713-12.443s-1.742-7.764-1.742-11.015c0-3.251 1.19-10.538 1.19-10.538h.005Z" fill="#A7CBBD"/><path d="M202.897 195.314c-3.323-7.422-8.549-23.322-8.549-31.01 0-7.689 1.19-15.106 0-19.347-1.189-4.242-7.866-32.564-5.265-42.981 1.621-6.493 2.178-1.92 2.178-1.92s10.452 16.543 11.636 23.167c1.185 6.623-.366 19.085 1.19 22.774 1.551 3.688 4.277 12.477 4.277 18.312v30.216l-5.462.794-.005-.005Z" fill="#C2E8D8"/><path d="M231.365 226.591h-34.357l-4.528-38.423a3.269 3.269 0 0 1 3.248-3.653h36.731a3.267 3.267 0 0 1 3.248 3.638l-4.337 38.438h-.005Z" fill="#E3AC69"/><path d="M233.837 215.179H194.3l-1.335-18.543h42.127l-1.255 18.543Z" fill="#FCC583"/><path d="M-22.12 211.878c-21.119 0-38.302-17.201-38.302-38.342 0-11.885 5.371-22.905 14.744-30.232a1.111 1.111 0 0 1 1.54.166l47.525 57.222a1.113 1.113 0 0 1-.12 1.548 38.227 38.227 0 0 1-25.392 9.633l.006.005Zm-23.026-66.131c-8.303 6.889-13.042 16.96-13.042 27.794 0 19.91 16.18 36.106 36.069 36.106A36.003 36.003 0 0 0 .971 201.28l-46.118-55.533Z" fill="#9CA8D3"/><path d="M-22.123 204.215c16.926 0 30.647-13.735 30.647-30.679 0-16.943-13.72-30.679-30.647-30.679-16.925 0-30.646 13.736-30.646 30.679 0 16.944 13.72 30.679 30.646 30.679Z" fill="#A3D8F5"/><mask id="b" style="mask-type:luminance" maskUnits="userSpaceOnUse" x="-53" y="142" width="62" height="63"><path d="M-22.115 204.215c16.926 0 30.647-13.736 30.647-30.679 0-16.944-13.721-30.679-30.647-30.679s-30.647 13.735-30.647 30.679c0 16.943 13.721 30.679 30.647 30.679Z" fill="#fff"/></mask><g mask="url(#b)"><path d="M-11.81 141.76c-8.965 0-14.588 7.94-8.438 10.226 6.15 2.287 7.208 1.91 10.898 4.302 3.69 2.387 7.204 5.377 8.087 3.09.879-2.286 4.568-2.814 4.568-4.749 0-1.934-13.71-12.864-15.115-12.864v-.005Z" fill="#7CC8AA"/></g><path d="M-4.189 180.747c.878.879.833 2.508 1.847 1.497 1.01-1.01-.175-1.98 1.496-1.497 1.672.482 2.726-.528 2.726-2.025 0-1.498.09-3.081-1.581-2.463-1.672.618-2.726 1.056-3.78 1.583-1.054.528-.703 2.905-.703 2.905h-.005ZM1.879 183.385c0-1.056.512-1.719 1.405-.824.894.894 3.253 3.02 1.672 2.492-1.581-.528-3.072-1.673-3.072-1.673l-.005.005Z" fill="#DCF8C1"/><path d="M-.322 174.148c0-.879 1.857-1.824 2.851-2.814.989-.99.231-2.638 1.15-2.638.918 0 .918-.267.918 1.055s.703 3.081-.527 3.081-1.405.527-2.194 1.321c-.793.794-2.198 0-2.198 0v-.005Z" fill="#E3AC69"/><path d="M166.018 166.419c-.421 4.447-6.39 7.056-1.29 12.161 1.431 1.432 3.574 2.684 5.291 2.402 3.088-.507 5.577-4.231 5.382-6.136-.563-5.407-7.319-11.236-8.057-10.497-.738.738-1.18.568-1.326 2.07Z" fill="#FBAE96"/><path d="M163.848 177.409a.282.282 0 0 1-.236-.131.27.27 0 0 1 .09-.377c1.877-1.156 4.172-3.653 4.618-5.663.442-2 1.245-5.116 1.255-5.146a.277.277 0 0 1 .337-.196c.145.04.236.186.196.336-.011.031-.809 3.136-1.25 5.131-.482 2.186-2.852 4.774-4.87 6.015a.248.248 0 0 1-.145.041l.005-.01ZM165.296 179.078a.273.273 0 0 1-.055-.543c1.385-.271 4.372-2.99 4.919-4.271.583-1.362 1.792-5.472 1.792-5.955 0-.151.126-.276.277-.276.15 0 .276.125.276.276 0 .648-1.301 4.925-1.833 6.171-.562 1.317-3.634 4.266-5.321 4.593-.015 0-.035.005-.05.005h-.005ZM168.214 180.445a.274.274 0 0 1-.261-.186.274.274 0 0 1 .171-.351c1.807-.634 3.895-2.905 4.422-4.131.542-1.257 1.476-4.236 1.481-4.267a.278.278 0 0 1 .347-.181.277.277 0 0 1 .18.347c-.04.126-.954 3.035-1.501 4.317-.557 1.301-2.736 3.734-4.749 4.437a.283.283 0 0 1-.09.015Z" fill="#C99565"/><path d="m24.186 226.904-27.068.08-.034-11.533 27.068-.08a1.884 1.884 0 0 1 1.888 1.879l.023 7.758a1.885 1.885 0 0 1-1.877 1.891v.005Z" fill="#7096C4"/><path d="m5.496 223.747-.015-5.171c0-.578-.406-1.051-.908-1.051l-30.888.096c-.03 0-.06-.02-.075-.05-.276-.603-.267-1.272 0-1.99.015-.036.04-.056.075-.056l32.595-.1c.497 0 .903.467.908 1.05l.03 9.432c0 .578-.401 1.051-.903 1.056l-32.42.1c-.15 0-.285-.105-.336-.271-.17-.523-.155-1.06.005-1.618.05-.166.186-.277.337-.277l30.692-.09c.497 0 .903-.472.903-1.055v-.005Z" fill="#79ADDD"/><path d="m-20.416 219.279-4.92.015c.09-.256.211-.256.352-2.05l30.265-.091c.11 0 .146.473.15.598l.02 7.091c0 .126-30.591.11-30.591.11-.24-1.708-.301-1.789-.381-2.527l2.946-.076-2.876.01c-.08 0-.045-1.864.075-2.794l4.96-.291v.005Z" fill="#E6E6E6"/><path d="m4.773 219.712.01 3.372.005.754-1.325-.372-1.32.382v-.754l-.01-3.372 2.64-.01Z" fill="#F6A447"/><path d="M195.722 171.802c-.868 6.698-7.314 11.221-13.975 10.166-6.662-1.056-11.21-7.322-10.15-13.991 1.054-6.668 7.314-11.221 13.975-10.161 6.662 1.061 10.798 8.991 10.155 13.991l-.005-.005Z" fill="#FCDCB5"/><path d="M214.258 197.667c1.606 15.036 1.957 29.775-18.158 29.775-15.336 0-19.427-11.322-18.583-28.639.828-17 5.793-34.644 15.059-30.217 10.271 4.905 20.055 13.91 21.682 29.081Z" fill="#FCDCB5"/><path d="M180.112 181.515a.577.577 0 0 1-.497-.865c3.63-6.311 7.44-8.216 11.35-9.759 4.041-1.593 5.357-.748 5.583-.562l-.738.889s.01.01.03.02c-.01-.005-1.044-.618-4.448.724-3.71 1.462-7.329 3.271-10.773 9.261a.577.577 0 0 1-.502.292h-.005Z" fill="#9E614B"/><path d="m173.67 167.736-4.041-5.211c-.432-.558.015-1.362.713-1.291l6.47.653-3.142 5.849ZM188.72 159.48l-2.315-4.894c-.15-.422-.748-.417-.893 0l-2.043 4.397 5.251.492v.005ZM182.983 198.852a3.92 3.92 0 0 1-3.414-4.045c.121-2.895-1.3-4.422-2.515-5.196-1.531-.975-2.992-.945-3.373-.769a3.915 3.915 0 0 1-5.457-.724 3.91 3.91 0 0 1 .698-5.487c2.806-2.171 7.334-2.267 11.27-.231 4.739 2.447 7.429 7.211 7.198 12.739a3.908 3.908 0 0 1-4.407 3.713ZM189.113 221.522c-.823 0-14.226-.799-14.266 2.854-.046 3.653 1.716 3 6.626 3 4.909 0 12.635.045 12.635.045l-4.995-5.899Z" fill="#FCDCB5"/><path d="M-8.053 26.904 3.724 48.849c4.608-6.98 10.402-8.387 20.893-9.97L10.27 18.286c-10.878 2.08-14.332 3.246-18.318 8.618h-.005ZM24.617 38.874s8.288-14.02 18.74-12.397L26.056 5.39s-4.718-.623-9.402 3.342c-4.684 3.965-6.386 9.548-6.386 9.548l14.348 20.593Z" fill="#ABCFE3"/><path d="M13.726 18.799a.18.18 0 0 1-.181-.181c0-1.84 1.847-5.07 4.94-7.302 2.911-2.1 4.548-2.739 7.012-2.739.1 0 .181.08.181.181 0 .1-.08.181-.18.181-2.4 0-3.926.598-6.803 2.673-2.956 2.131-4.789 5.297-4.789 7.005 0 .101-.08.181-.18.181ZM15.587 21.562a.18.18 0 0 1-.18-.18c0-1.84 1.847-5.071 4.939-7.302 2.912-2.101 4.553-2.74 7.013-2.74.1 0 .18.081.18.182 0 .1-.08.18-.18.18-2.4 0-3.926.599-6.802 2.674-2.957 2.13-4.79 5.297-4.79 7.005 0 .1-.08.181-.18.181ZM17.806 24.809a.18.18 0 0 1-.181-.181c0-1.84 1.847-5.07 4.94-7.302 2.911-2.1 4.548-2.739 7.013-2.739.1 0 .18.08.18.181 0 .1-.08.181-.18.181-2.4 0-3.926.598-6.802 2.674-2.957 2.13-4.79 5.296-4.79 7.005 0 .1-.08.18-.18.18ZM19.91 28.116a.18.18 0 0 1-.181-.18c0-1.84 1.847-5.071 4.94-7.302 2.91-2.1 4.547-2.739 7.012-2.739.1 0 .18.08.18.18 0 .101-.08.182-.18.182-2.4 0-3.926.598-6.802 2.673-2.957 2.13-4.789 5.297-4.789 7.005 0 .1-.08.181-.18.181ZM21.47 29.739l3.148 4.628s1.657-4.206 4.001-5.593l-3.122-4.508s-1.802.87-2.882 2.402c-.903 1.282-1.14 3.066-1.14 3.066l-.004.005Z" fill="#7496B8"/><path d="m142.856 35-3.879-3.221-16.949 20.458 3.879 3.22L142.856 35Z" fill="#C98446"/><path d="M142.854 35.003 141.645 34l-16.949 20.458 1.209 1.004 16.949-20.458ZM140.178 32.787l-1.209-1.004-16.949 20.459 1.209 1.004 16.949-20.459Z" fill="#A36B39"/><path d="m142.859 34.996-3.88-3.221 3.639-1.453 1.616-.643-.421 1.628-.954 3.689Z" fill="#E5C3A5"/><path d="m143.791 31.332-1.189-.99 1.616-.648-.427 1.638Z" fill="#877268"/><path d="M122.011 52.247c-.16.326-4.277 3.779-1.897 5.91 2.424 2.175 5.778-2.684 5.778-2.684l-3.881-3.221v-.005Z" fill="#FA9876"/><path d="M91.807 2.255c-8.484 7.558-9.307 20.529-1.892 29.097l3.483-3.106 2.676-2.382 18.664-16.629 2.676-2.386 3.484-3.101c-7.641-8.367-20.602-9.056-29.091-1.493Zm2.038 19.88c-1.792-4.713-.617-10.246 3.368-13.794 3.986-3.553 9.614-4.08 14.082-1.749L93.845 22.14v-.005Z" fill="#DCF8C1"/><path d="M86.11 20.638a.248.248 0 0 1-.246-.206.256.256 0 0 1 .2-.297l2.044-.397a.253.253 0 0 1 .296.201.252.252 0 0 1-.201.297l-2.043.397h-.05v.005ZM109.769.983c-.025 0-.05 0-.075-.01a.257.257 0 0 1-.166-.316l.633-1.985a.256.256 0 0 1 .316-.166c.131.04.206.186.166.317L110.01.807a.253.253 0 0 1-.241.176ZM93.737 5.471a.24.24 0 0 1-.186-.085L91.839 3.46a.254.254 0 0 1 .02-.357.253.253 0 0 1 .357.02l1.711 1.925a.254.254 0 0 1-.02.357.265.265 0 0 1-.165.065h-.005ZM94.94 27.13a.24.24 0 0 1-.186-.086l-1.194-1.342a.254.254 0 0 1 .02-.357.253.253 0 0 1 .356.02l1.195 1.342a.254.254 0 0 1-.186.422h-.005ZM98.075 24.336c-.07 0-.14-.03-.186-.085l-1.194-1.342a.254.254 0 0 1 .02-.357.253.253 0 0 1 .356.02l1.195 1.342a.254.254 0 0 1-.02.357.265.265 0 0 1-.166.065h-.005ZM101.212 21.541a.24.24 0 0 1-.186-.085l-1.195-1.342a.254.254 0 0 1 .02-.356.254.254 0 0 1 .357.02l1.195 1.341a.254.254 0 0 1-.186.422h-.005ZM104.345 18.749a.24.24 0 0 1-.186-.086l-1.195-1.342a.255.255 0 0 1 .02-.356.254.254 0 0 1 .357.02l1.194 1.341a.253.253 0 0 1-.185.423h-.005ZM107.479 15.954a.24.24 0 0 1-.185-.086l-1.195-1.341a.253.253 0 0 1 .376-.337l1.195 1.341a.255.255 0 0 1-.186.423h-.005ZM110.618 13.166a.242.242 0 0 1-.186-.086l-1.194-1.342a.253.253 0 0 1 .376-.336l1.195 1.341a.254.254 0 0 1-.186.423h-.005ZM113.751 10.371a.241.241 0 0 1-.186-.085l-1.195-1.342a.255.255 0 0 1 .02-.357.254.254 0 0 1 .357.02l1.195 1.342a.254.254 0 0 1-.186.422h-.005ZM116.884 7.576a.24.24 0 0 1-.186-.085l-1.195-1.342a.255.255 0 0 1 .02-.357.254.254 0 0 1 .357.02l1.194 1.342a.253.253 0 0 1-.185.422h-.005Z" fill="#A4C5EE"/><path d="m202.919 35.794 3.89 1.477c0-.2-.1-.236.246-1.502l-23.93-9.106c-.085-.03-.241.282-.271.367l-1.832 4.83c-.031.085 24.181 9.215 24.181 9.215.627-1.095.697-1.13.948-1.608l-2.314-.93 2.274.865c.061.025.512-1.256.658-1.93l-3.85-1.678Z" fill="#D9D4A7"/><path d="m181.267 31.101 1.335-3.523a.764.764 0 0 1 .989-.442l24.422 9.292s.05 0 .07-.015c.377-.332.537-.79.512-1.357 0-.025-.02-.05-.045-.06l-25.772-9.81a.768.768 0 0 0-.989.443l-2.44 6.427c-.151.397.05.84.442.99l25.632 9.754c.12.045.251.01.336-.086.266-.306.397-.678.412-1.105a.307.307 0 0 0-.196-.292l-24.267-9.236a.765.765 0 0 1-.441-.99v.01Z" fill="#B1B1E8"/><path d="m184.058 29.23-2.555 6.72-.567 1.497 1.867-.146 1.285 1.347.567-1.498 2.556-6.718-3.153-1.201Z" fill="#F5A98D"/><path d="m179.559 32.9-9.834-17.006 2.153-4.96a2.06 2.06 0 0 1 2.721-1.06l23.478 10.417 10.477 14.704-26.159-9.262-2.836 7.161v.005Z" fill="#B1B1E8"/><path d="M173.48 9.724c-.682.096-1.3.533-1.596 1.216l-2.154 4.96 9.835 17.006 2.836-7.162.492.176c-2.741-4.573-7.455-12.497-9.413-16.19v-.006Z" fill="#C8C8F0"/></g><defs><clipPath id="a"><path fill="#fff" d="M0 0h197v239H0z"/></clipPath></defs></svg>