<svg width="100" height="100" fill="none" xmlns="http://www.w3.org/2000/svg"><g clip-path="url(#a)"><path d="M75.688 67.748c-.86-.462-1.5 1.033-.46 1.47 1.042.438 1.633.723 1.96.723.328 0 .628-.931.348-1.238-.28-.307-1.254-.638-1.848-.956Z" fill="#FBAE96"/><path d="M34.861 55.558c1.459 0 1.842 2.052 3.663 2.714 2.257.82 5.19-.477 5.948-2.592.983-2.748-.879-4.18-.455-8.748.28-3.026-1.602-2.759-3.214-5.705-1.612-2.948-1.18-3.268-3.366-5.977-2.186-2.71-5.84-3.093-8.584-2.616-2.744.477-4.112 1.027-6.26 2.644-2.148 1.617-1.176 3.349-2.558 4.491-1.38 1.14-1.997 2.465-2.414 4.733-.803 4.352 1.896 6.456.684 7.96-1.213 1.503-3.673 8.242 2.692 7.835 2.25-.143 4.265.666 5.368-1.203 1.624-2.75 2.435-.92 4.659-2.126 2.225-1.208 3.835-1.406 3.835-1.406l.002-.004Z" fill="#37231B"/><path d="M18.547 57.046c5.36-4.776 5.869 0 18.727-.933 1.585-.115 8.803 1.475 10.197 2.413 7.063 4.75 12.583 35.858 12.583 35.858l-40.899-.494-.608-36.844Z" fill="#FCC583"/><path d="M28.797 54.875c-.093 1.971-1.733.106-1.733 2.605 0 2.169 2.218 5.635 8.496 4.536 3.993-.698 5.193-4.43 2.82-5.518-1.343-.616-1.977-3.09-1.977-3.09l-7.606 1.465v.002Z" fill="#FBAE96"/><path d="M37.308 43.573c1.234 5.414 1.186 13.278-4.446 13.75-6.89.579-14.476-14.227-8.947-19.662 5.53-5.436 11.644-1.754 13.393 5.912Z" fill="#FBAE96"/><path d="M26.386 41.71c-.811 1.712-.869 2.019-1.767 3.002-.898.984-.815 3.532-.386 4.986 2.045 6.93.294 3.584-.11 4.027-.406.444-2.086-4.082-2.316-4.334-.233-.255-2.055-7.512-2.055-8.273 0-.762 4.39-5.353 4.92-5.936.533-.583 5.327-1.671 6.688-1.671 1.361 0 4.082-.19 4.662.824.579 1.014 4.343 9.51 4.343 9.51s2.257 3.957.731 3.846c-1.954-.143-2.321-.574-2.822-1.825-.537-1.345-1.045-4.365-3.736-3.366-4.55 1.686-8.152-.786-8.152-.786v-.004Z" fill="#37231B"/><path d="M7.706 97.393c-1.743-11.883 6.912-39.222 12.53-41.711 3.96-1.756 7.01-.375 7.745 4.423.735 4.798-5.958 27.407-5.958 27.407s19.629-5.906 21.368 0c1.737 5.906.868 10.09.868 10.09l-36.55-.209h-.003Z" fill="#FCC583"/><path d="M25.853 88.115c-1.798 0-3.396-.043-4.605-.078-.582-.016-1.087-.03-1.498-.037a.485.485 0 0 1-.421-.248c-.45-.76.528-3.351 2.446-8.254 1.962-5.018 4.402-11.263 4.402-14.65 0-.149.11-.268.245-.268s.244.12.244.267c0 3.5-2.462 9.799-4.442 14.862-.789 2.017-1.532 3.921-1.999 5.34-.668 2.03-.525 2.363-.485 2.413h.016c.413.007.92.02 1.504.037 2.683.074 6.735.187 10.905-.15.135-.01.252.1.262.248.01.148-.091.277-.226.287-2.188.177-4.386.229-6.348.229v.002Z" fill="#C99565"/><path d="M28.862 48.96c-.044.31.252 1.243.884 1.03.417-.142.348-1.308-.143-1.522-.4-.172-.698.183-.741.492ZM34.043 47.228c-.073.302.187 1.26.835 1.118.43-.091.415-1.253-.05-1.52-.38-.22-.711.1-.785.402Z" fill="#372313"/><path d="M31.625 54.15c.344.435 1.169.946 2.437.476 1.267-.47 1.122-1.87 1.122-1.87-1.144.793-2.235 1.174-3.559 1.391v.003Z" fill="#E66C40"/><path d="M33.112 46.16c.254 0 1.059-.619 1.824-.484.765.135.737.02.555-.183-.185-.202-.704-.41-1.674-.274-1.176.168-.926.94-.705.94ZM29.738 47.047c.014-.267-.511-.333-.89-.224-.521.15-1.316.981-1.447 1.578-.07.31.13.463.423.026.346-.516.618-.83 1.057-.903.354-.061.847-.266.857-.475v-.002Z" fill="#37231B"/><path d="M25.356 49.796c.62.957 1.475 2.84.839 3.333-.636.494-2.522-.585-3.142-1.542-.62-.958-.608-2.135.028-2.629.636-.494 1.655-.12 2.275.838Z" fill="#FBAE96"/><path d="M32.972 57.984a6.293 6.293 0 0 1-2.345-.483.182.182 0 0 1-.088-.229c.034-.09.128-.133.21-.096.017.009 1.822.801 3.467.274.085-.026.173.027.199.12.024.094-.024.19-.11.218-.449.143-.904.198-1.333.198v-.002Z" fill="#C99565"/><path d="M26.024 53.41c.451.494 2.54 2.733 4.664 3.93.616.348.304 2.664.25 3.01-.405 2.633-2.98 2.065-4.519 1.222-1.651-.905-.105-6.675-2.442-6.85-2.65-.197-3.702 1.086-4.088.975-.755-.22.598-1.503 2.44-2.11 1.477-.486 3.425-.366 3.695-.177Z" fill="#37231B"/><path d="M27.139 35.614c-1.002-.18-1.49 1.14-1.96 1.865-.093.144.123.327.223.19.437-.597.836-1.856 1.697-1.741.16.022.2-.283.038-.314h.002ZM27.59 36.744c-.675.067-1.071.64-1.462 1.181-.114.157.085.379.202.222.336-.455.688-1.01 1.262-1.086.181-.024.189-.337 0-.317h-.002ZM22.749 43.413c-.576.757-.968 1.724-1.129 2.694-.034.198.242.285.28.085.167-.91.52-1.828 1.052-2.557.113-.154-.084-.376-.203-.222ZM29.42 58.798c.014-.207-.274-.202-.292 0-.035.44.042.881.022 1.323-.01.198-.031.429-.145.592-.145.209-.383.209-.602.191-.19-.015-.18.294 0 .32 1.34.183.962-1.545 1.018-2.426ZM42.839 48.777c-.166-.374-.38-.718-.58-1.068-.132-.231-.368-.555-.356-.843.007-.2-.275-.2-.285 0-.014.242.11.483.215.686.165.32.356.624.526.94.156.283.33.594.38.927.052.346-.133.492-.417.577-.183.054-.105.35.077.308.29-.067.565-.245.632-.583.064-.32-.065-.659-.19-.942l-.002-.002ZM42.855 52.613c-.165-.202-.374-.3-.593-.413-.264-.14-.4-.277-.361-.62.017-.172-.259-.216-.28-.042-.066.512.164.768.566.973.199.1.525.252.574.522.038.213-.284.385-.397.522-.125.153.07.37.206.227.151-.16.37-.292.458-.51.097-.241-.024-.476-.171-.657l-.002-.002ZM35.27 37.981c-.252-.296-.574-.402-.934-.44-.405-.043-.8-.019-1.08-.397-.122-.163-.329.067-.211.23.522.72 1.454.222 2.017.834.133.146.334-.076.206-.227h.002Z" fill="#55341B"/><path d="M46.145 58.005c2.227.331 9.296 9.387 18.243 11.49 8.947 2.102 12.216-.116 12.216-.116l3.82 6.776c-8.754 7.022-22.429 3.334-31.098-1.395l-3.181-16.755Z" fill="#FCC583"/><path d="M81.618 96.427s5.405-18.677-5.925-27.829c-2.385-1.926-4.46-2.833-9.473-2.814-5.34.022-10.146 5.5-12.034 9.21-3.497 6.873-6.395 21.433-6.395 21.433h33.827Z" fill="#DB7E5D"/><path d="M75.227 96.411c-.133 0-.238-.117-.238-.26V85.51c-.002-.05-.302-6.39-1.113-8.857-.046-.137.02-.287.145-.335.125-.05.262.022.306.159.837 2.542 1.129 8.758 1.143 9.022v10.653c0 .146-.108.261-.239.261l-.004-.002ZM57.605 94.717c-.12 0-.222-.098-.236-.233-.058-.546-1.415-13.44-.64-17.97.023-.14.149-.234.28-.208.13.026.215.163.19.306-.762 4.453.633 17.68.647 17.813.016.144-.08.274-.211.292h-.03Z" fill="#9E614B"/><path d="M63.083 67.952c-1.2 1.493-1.965 6.06.225 6.182 5.149.29 6.943-7.368 5.564-7.855-3.152-1.117-5.789 1.673-5.789 1.673Z" fill="#F1F2F2"/><path d="M62.863 64.134c0 .583-.312 4.304.562 4.835 2.56 1.553 5.45-1.698 5.45-2.688v-3.194l-6.01 1.049-.002-.002Z" fill="#FBAE96"/><path d="M58.753 49.516c-.25-2.846-1.77-5.222-3.084-4.03-1.314 1.193-2.816 2.448-2.496 4.03.178.886 4.39 2.333 4.39 2.333l1.19-2.333Z" fill="#37231B"/><path d="M56.162 52.292a.23.23 0 0 1-.187-.098.28.28 0 0 1 .035-.368c.837-.737 1.245-1.525 1.245-2.406 0-.146.107-.261.238-.261s.239.117.239.26c0 1.037-.48 1.983-1.423 2.817a.224.224 0 0 1-.15.058l.003-.002Z" fill="#DE501D"/><path d="M56.915 56.28c-.832.204-1.449.439-1.79.067-.342-.374 0-1.338 0-1.338l1.099-.194.691 1.464Z" fill="#82512B"/><path d="M72.301 57.248c-.79 5.973-4.294 10.703-9.211 10.703-3.633 0-6.032-1.99-6.425-6.062-.092-.946.083-2.26.018-2.816-.11-.933-.738-1.969-.738-2.948 0-5.973 4.69-8.839 9.607-8.839 4.917 0 7.532 4.052 6.75 9.962Z" fill="#FBAE96"/><path d="M61.743 57.785c-.02-.193.4-.583.974-.435.572.148.997.592.81.714-.186.122-.606-.257-.971-.211-.366.043-.797.07-.811-.068h-.002ZM58.898 57.899c.02-.194-.4-.584-.974-.435-.573.147-.998.591-.811.713.187.122.606-.257.972-.21.365.045.797.069.81-.068h.003ZM61.005 54.118c4.186-.448 4.422 1.4 5.619 3.129 1.198 1.73 4.131 1.397 5.479 1.164.459-.078 1.152-3.346.961-5.298-.14-1.447-.063-4.106-2.786-5.656-2.723-1.549-3.668-1.897-6.314-1.36-2.643.538-5.514 8.295-2.96 8.021h.001Z" fill="#37231B"/><path d="M68.123 49.697c.25-2.846 2.796-5.268 4.112-4.075 1.316 1.192 2.546 4.58 1.864 5.098-.682.518-4.785 1.31-4.785 1.31l-1.191-2.333Z" fill="#37231B"/><path d="M69.725 52.106c-1.158 0-1.635-.777-1.794-1.142-.278-.638-.249-1.417.067-1.737a.225.225 0 0 1 .338.015.28.28 0 0 1-.014.37c-.111.113-.18.625.038 1.125.167.383.618.997 1.765.812.129-.022.252.078.272.222.02.143-.072.276-.203.298-.169.026-.326.039-.47.039l.001-.002Z" fill="#D9886B"/><path d="M54.805 56.056c1.397 1.986 1.944-3.419 5.827-2.385 1.516.402.326-2.444 1.77-3.547 1.444-1.103 3.745-3.57 1.24-3.928-2.503-.357-5.894 1.227-6.836 2.92-.419.753-1.285 1.759-1.41 3.116-.168 1.833-.992 3.251-.589 3.824h-.002Z" fill="#37231B"/><path d="M59.482 64.265s.436 1.096 1.596 1.164c1.16.067 1.37-1.154 1.37-1.154-1.022.381-1.906.46-2.966-.01Z" fill="#F1F2F2"/><path d="M62.589 59.304c-.203.083-.407.44-.31.966.097.524.457.755.682.596.224-.159.385-.894.244-1.2-.141-.308-.487-.414-.618-.36l.002-.002ZM58.048 59.313c-.199.091-.391.457-.274.98.117.52.483.733.703.565.221-.17.352-.91.201-1.21-.15-.3-.503-.392-.63-.333v-.002Z" fill="#372313"/><path d="M65.51 51.99c-.494-.627-1.42-.794-2.108-.503-.167.072-.097.366.075.299a1.66 1.66 0 0 1 1.827.43c.135.146.33-.071.206-.226ZM66.462 49.099c-.844-.222-1.623-.113-2.398.307-.167.091-.02.363.147.274.715-.381 1.4-.44 2.176-.277.18.04.26-.256.077-.304h-.002ZM69.84 55.039c-.497.178-1.117-.396-1.097-.953.008-.2-.27-.198-.282 0-.044.74.79 1.545 1.456 1.26.17-.074.104-.372-.077-.307ZM58.229 50.728c-.483-.05-.968.126-1.25.579-.105.167-.157.359-.213.55-.081.281-.169.41-.45.438-.184.02-.19.313 0 .317.416.007.621-.26.74-.668.07-.239.136-.454.312-.63.235-.236.555-.299.863-.28.183.012.177-.289 0-.306h-.002ZM60.553 47.993c-.32-.09-.535-.346-.889-.298-.33.046-.592.298-.794.57-.116.154.075.379.204.224.195-.228.436-.503.75-.47.232.024.423.226.653.276.18.04.257-.252.076-.302Z" fill="#643D20"/><path d="M63.087 68.125c-.088 0-.16-.078-.16-.174 0-.095.072-.174.16-.174 1.39 0 2.55-.293 3.44-.872.075-.05.173-.022.218.06.046.083.02.19-.055.24-.94.611-2.153.92-3.603.92Z" fill="#C48976"/><path d="M63.986 96.486c0-2.797 3.568-8.237 10.116-8.237s9.903.501 9.903.501v7.631l-20.019.105Z" fill="#DB7E5D"/><path d="M63.873 90.222a.239.239 0 0 1-.222-.168c-.048-.135.014-.287.137-.34 2.037-.852 9.714-1.744 11.443-1.72.133 0 .239.12.237.265 0 .144-.11.259-.239.259h-.004c-1.655-.026-9.319.87-11.264 1.686a.239.239 0 0 1-.085.018h-.002Z" fill="#9E614B"/><path d="M32.065 91.862h30.042c1.767 0 3.202 1.572 3.202 3.506v.544H32.063V91.86l.002.002Z" fill="#7781A6"/><path d="M58.042 95.914H24.961l-2.174-26.919c-.125-.777.185-1.493.896-1.493h30.989c.552 0 1.027.44 1.125 1.045l2.245 27.367Z" fill="#7781A6"/><path d="M41.59 77.628c.088 1.493-.866 2.774-2.13 2.863-1.264.09-2.36-1.046-2.45-2.539-.09-1.493.866-2.774 2.13-2.864 1.264-.089 2.361 1.047 2.45 2.54Z" fill="#DBDBDB"/><path d="M127 95.424H-27v5.602h154v-5.602Z" fill="#DCBFA3"/><path d="M99.825 42.602c0-2.54-.25-13.59 3.07-18.805 0 0 .751 4.391.751 7.79s-2.319 16.642-2.319 16.642l-1.504-5.627h.002ZM87.87 23.042s6.33 26.834 6.33 32.187c0 5.353-2.916 3.294-2.916 3.294s-2.163-18.632-2.916-20.76c-.75-2.129-.282-3.913-.282-5.388 0-1.476-.69-3.362-.69-4.77 0-1.408.472-4.563.472-4.563h.002Z" fill="#A7CBBD"/><path d="M96.694 82.007c.564-2.64 4.042-6.082 4.042-9.526 0-3.445-.376-16.642.658-19.282 1.033-2.64 1.88-7 1.88-9.526s2.82-5.164 2.82-7v-3.099s1.315 1.952 1.315 5.05c0 3.1-1.033 7.116-1.88 8.15-.846 1.033-1.411 2.295-1.411 4.476 0 2.18-.471 12.969-.471 15.839 0 2.87-.189 3.442-.846 6.197-.658 2.755-5.642 9.296-5.642 9.296l-.472-.575h.007Z" fill="#A4CABB"/><path d="M91.33 82.007c-1.316-3.214-3.384-10.099-3.384-13.428 0-3.33.47-6.541 0-8.378-.471-1.836-3.114-14.1-2.085-18.611.642-2.811.862-.831.862-.831s4.138 7.163 4.607 10.031c.47 2.868-.145 8.264.471 9.862.614 1.597 1.693 5.403 1.693 7.929v13.084l-2.162.344-.002-.002Z" fill="#C2E8D8"/><path d="m96.69 39.54-4.324-9.295s-1.505 5.279-1.505 7-.564 3.099-.564 4.82 1.316 5.279 1.316 8.264c0 2.986-.472 6.082-.472 8.609 0 2.526 2.352 23.07 2.352 23.07h1.693l1.504-42.465v-.002Z" fill="#92BCAB"/><path d="M95.188 82.007c0-2.296-.658-4.132-.658-7.575 0-3.442 0-5.622-.564-9.87-.565-4.247 1.222-10.444 1.222-13.2 0-2.754-.94-10.903 0-14.002.94-3.098 1.973-9.41 1.973-9.41s4.889 11.935 4.889 14.002v13.771c0 2.64-1.033 6.887-1.504 9.755-.471 2.87-.471 5.05-.471 8.034 0 2.983-2.123 8.493-2.123 8.493h-2.766l.002.002Z" fill="#C2E8D8"/><path d="M102.598 95.55h-13.6l-1.794-16.638c-.09-.843.511-1.582 1.286-1.582h14.542c.773 0 1.373.735 1.285 1.575L102.6 95.549h-.002Z" fill="#E3AC69"/><path d="M103.579 90.608H87.927l-.529-8.03h16.678l-.497 8.03Z" fill="#FCC583"/><path d="M2.245 89.179c-8.36 0-15.163-7.449-15.163-16.603 0-5.146 2.127-9.918 5.837-13.09a.415.415 0 0 1 .61.071l18.814 24.778c.153.2.131.498-.048.67-2.772 2.69-6.341 4.172-10.052 4.172l.002.002ZM-6.87 60.543c-3.288 2.983-5.164 7.344-5.164 12.035 0 8.621 6.406 15.635 14.28 15.635 3.35 0 6.58-1.284 9.141-3.623L-6.87 60.543Z" fill="#9CA8D3"/><path d="M2.244 85.86c6.7 0 12.133-5.947 12.133-13.284 0-7.337-5.432-13.284-12.133-13.284-6.7 0-12.133 5.947-12.133 13.284 0 7.337 5.432 13.284 12.133 13.284Z" fill="#A3D8F5"/><mask id="b" style="mask-type:luminance" maskUnits="userSpaceOnUse" x="-10" y="59" width="25" height="27"><path d="M2.248 85.86c6.7 0 12.133-5.948 12.133-13.285 0-7.336-5.432-13.284-12.133-13.284-6.7 0-12.133 5.948-12.133 13.284 0 7.337 5.432 13.285 12.133 13.285Z" fill="#fff"/></mask><g mask="url(#b)"><path d="M-3.693 69.477c-1.878 1.388-4.245 6.417-1.878 6.036 2.365-.38 3.48-2.133 4.592-.305 1.113 1.828 1.233 3.125 3.226 3.125 1.993 0 4.58 1.632 4.986 1.19.404-.441-1.043-3.094-1.808-5.61C4.659 71.4 2.362 68.886.832 68.2c-1.53-.686-4.523 1.277-4.523 1.277h-.002Z" fill="#DEB788"/><path d="M3.428 70.389c-.865-1.038-1.829-1.845-2.6-2.189-1.53-.686-4.523 1.277-4.523 1.277-.865.64-1.832 2.05-2.395 3.35 1.135.265 1.212-.856 3.25-1.074 2.364-.254 2.225-.256 3.432.557 1.206.814.755-.454 1.653-.964.574-.324.97-.67 1.183-.957Z" fill="#7DD2B1"/><path d="M6.325 58.817c-3.55 0-5.775 3.438-3.34 4.428 2.434.99 2.853.827 4.314 1.863 1.46 1.033 2.852 2.328 3.202 1.338.348-.99 1.808-1.219 1.808-2.056 0-.838-5.427-5.57-5.984-5.57v-.003Z" fill="#7CC8AA"/><path d="M.827 86.408C.41 85.19.38 84.81 1.96 84.124c1.58-.686 1.789-.838 3.112-1.523 1.322-.686 1.6-.686 2.924-.686 1.323 0 1.947 1.6 1.947 1.6s-2.611 1.766-2.808 1.98c-.197.213-6.308.913-6.308.913ZM-5.727 62.333c.722 0 1.044.379 3.063-.383 2.017-.762 3.096-2.6 3.096-2.6l-3.792.733-2.365 2.25h-.002Z" fill="#F1F2F2"/></g><path d="M9.343 75.698c.347.381.33 1.086.73.649.4-.438-.069-.857.593-.649.662.21 1.08-.228 1.08-.876 0-.649.035-1.334-.627-1.067-.662.268-1.079.457-1.496.686-.418.228-.278 1.257-.278 1.257h-.002ZM11.746 76.84c0-.456.203-.743.556-.356.354.387 1.288 1.308.662 1.08-.626-.23-1.216-.725-1.216-.725l-.002.002Z" fill="#DCF8C1"/><path d="M10.873 72.841c0-.38.735-.79 1.129-1.218.391-.43.091-1.143.455-1.143s.364-.115.364.457c0 .573.278 1.334-.209 1.334s-.556.228-.869.572c-.313.344-.87 0-.87 0v-.002Z" fill="#E3AC69"/><path d="m2.385 88.695 2.197 4.877H-.096l2.48-4.877Z" fill="#9CA8D3"/><path d="M-1.017 92.731h6.524c1.262 0 2.288 1.123 2.288 2.505v.47h-11.1v-.47c0-1.382 1.026-2.505 2.288-2.505Z" fill="#9CA8D3"/><path d="M76.73 69.494c-.166 1.926-2.53 3.055-.51 5.266.566.62 1.415 1.162 2.095 1.04 1.222-.22 2.208-1.832 2.13-2.656-.222-2.342-2.897-4.866-3.19-4.546-.292.32-.467.246-.524.896Z" fill="#FBAE96"/><path d="M75.873 74.252a.11.11 0 0 1-.093-.056c-.032-.057-.016-.13.036-.163.743-.5 1.651-1.582 1.828-2.453.175-.866.493-2.215.497-2.228.016-.063.075-.102.133-.085a.12.12 0 0 1 .078.146 87.25 87.25 0 0 0-.495 2.222c-.191.946-1.129 2.067-1.928 2.604a.095.095 0 0 1-.058.018l.002-.005ZM76.443 74.976a.111.111 0 0 1-.107-.096c-.012-.065.028-.126.086-.14.548-.117 1.73-1.294 1.947-1.849.23-.59.71-2.37.71-2.578 0-.066.05-.12.109-.12.06 0 .11.054.11.12 0 .28-.516 2.132-.726 2.672-.223.57-1.439 1.847-2.107 1.989l-.02.002h-.002ZM77.602 75.568a.11.11 0 0 1-.104-.08c-.02-.064.01-.131.068-.153.715-.274 1.542-1.258 1.75-1.789.215-.544.585-1.834.587-1.847.018-.063.08-.098.137-.078.058.02.09.087.072.15-.016.054-.378 1.314-.594 1.869-.221.564-1.084 1.617-1.88 1.921a.106.106 0 0 1-.036.007Z" fill="#C99565"/><path d="m20.579 95.686-10.716.034-.013-4.993 10.715-.035c.412-.002.747.363.748.813l.009 3.36c.001.45-.332.817-.743.818v.002Z" fill="#7096C4"/><path d="m13.18 94.318-.005-2.239c0-.25-.161-.455-.36-.455l-12.228.042c-.012 0-.024-.009-.03-.022-.11-.261-.105-.55 0-.862.006-.015.016-.024.03-.024l12.904-.043c.196 0 .357.202.36.455l.011 4.084c0 .25-.159.455-.357.457L.67 95.754c-.06 0-.113-.045-.133-.117a1.272 1.272 0 0 1 .002-.7c.02-.073.074-.12.133-.12l12.15-.04c.198 0 .359-.204.359-.457v-.002Z" fill="#79ADDD"/><path d="m2.923 92.384-1.947.007c.036-.111.083-.111.139-.888l11.982-.04c.043 0 .057.205.06.26l.007 3.07c0 .054-12.11.048-12.11.048-.096-.74-.12-.775-.152-1.094l1.167-.033-1.139.004c-.032 0-.018-.807.03-1.21l1.963-.126v.002Z" fill="#E6E6E6"/><path d="m12.897 92.571.004 1.46.002.327-.525-.161-.523.165v-.326l-.003-1.46 1.045-.005Z" fill="#F6A447"/><path d="M88.487 71.826c-.344 2.9-2.896 4.86-5.533 4.402-2.637-.457-4.438-3.17-4.018-6.058.417-2.887 2.895-4.859 5.532-4.4 2.638.46 4.275 3.893 4.02 6.058l-.001-.002Z" fill="#FCDCB5"/><path d="M95.827 83.026c.636 6.51.775 12.893-7.188 12.893-6.072 0-7.691-4.902-7.357-12.4.328-7.362 2.293-15.002 5.962-13.085 4.066 2.124 7.939 6.023 8.583 12.592Z" fill="#FCDCB5"/><path d="M82.31 76.032a.22.22 0 0 1-.114-.033.263.263 0 0 1-.083-.341c1.437-2.733 2.945-3.558 4.493-4.226 1.6-.69 2.12-.324 2.21-.244l-.292.385s.004.005.012.01c-.004-.003-.413-.269-1.76.313-1.47.633-2.902 1.416-4.266 4.01a.226.226 0 0 1-.198.126h-.002Z" fill="#9E614B"/><path d="M100.517 108.999h-.055c-.686-.033-1.217-.668-1.187-1.417 0-.024.098-2.531-.018-5.209-.198-4.602-.93-5.407-1.492-5.73-.835-.44-4.245-1.022-7.508-1.331-.684-.066-1.189-.725-1.13-1.471.06-.749.663-1.301 1.344-1.236 1.735.165 7.512.772 9.06 1.68.815.476 1.362 1.525 1.72 3.3.228 1.13.387 2.592.473 4.346.143 2.925.035 5.655.031 5.771-.029.729-.578 1.299-1.24 1.299l.002-.002ZM79.76 70.066l-1.599-2.257c-.17-.241.006-.59.282-.56l2.562.284-1.244 2.533ZM85.717 66.491l-.916-2.12a.183.183 0 0 0-.353 0l-.81 1.905 2.08.213v.002ZM83.445 83.54c-.79-.111-1.385-.866-1.352-1.752.048-1.253-.514-1.915-.995-2.25-.606-.422-1.185-.409-1.336-.333-.676.56-1.64.422-2.16-.313-.525-.74-.4-1.804.276-2.376 1.111-.94 2.904-.982 4.462-.1 1.876 1.06 2.941 3.122 2.85 5.516-.036.936-.758 1.66-1.612 1.62a.896.896 0 0 1-.133-.012ZM85.875 93.355c-.326 0-5.632-.346-5.648 1.236-.018 1.582.68 1.3 2.623 1.3 1.944 0 5.002.019 5.002.019l-1.977-2.555Z" fill="#FCDCB5"/><path d="m7.826 9.95 4.663 9.502c1.824-3.023 4.117-3.632 8.27-4.318L15.08 6.217c-4.307.901-5.674 1.406-7.252 3.732h-.002ZM20.76 15.133s3.281-6.071 7.419-5.368L21.33.634s-1.868-.27-3.722 1.446c-1.854 1.717-2.528 4.134-2.528 4.134l5.68 8.918Z" fill="#ABCFE3"/><path d="M16.448 6.44c-.04 0-.071-.035-.071-.079 0-.796.731-2.195 1.956-3.161 1.152-.91 1.8-1.186 2.776-1.186.04 0 .071.034.071.078s-.031.078-.071.078c-.95 0-1.554.26-2.693 1.158-1.17.923-1.896 2.293-1.896 3.033 0 .044-.032.079-.072.079ZM17.187 7.636c-.04 0-.072-.034-.072-.078 0-.796.732-2.196 1.956-3.162 1.152-.91 1.802-1.186 2.776-1.186.04 0 .072.035.072.079 0 .043-.032.078-.072.078-.95 0-1.554.26-2.693 1.158-1.17.922-1.896 2.293-1.896 3.033 0 .044-.031.078-.071.078ZM18.064 9.042c-.04 0-.072-.035-.072-.078 0-.797.732-2.196 1.956-3.162 1.152-.91 1.8-1.186 2.776-1.186.04 0 .072.035.072.079 0 .043-.032.078-.072.078-.95 0-1.554.259-2.693 1.158-1.17.922-1.896 2.293-1.896 3.033 0 .043-.032.078-.071.078ZM18.896 10.474c-.04 0-.072-.034-.072-.078 0-.796.732-2.196 1.956-3.162 1.152-.91 1.8-1.186 2.776-1.186.04 0 .072.035.072.079 0 .043-.032.078-.072.078-.95 0-1.554.259-2.693 1.158-1.17.922-1.896 2.293-1.896 3.033 0 .043-.031.078-.071.078ZM19.514 11.177l1.246 2.004s.656-1.821 1.584-2.422l-1.236-1.952s-.714.377-1.141 1.04c-.358.555-.451 1.328-.451 1.328l-.002.002Z" fill="#7496B8"/><path d="m67.571 13.454-1.536-1.394-6.71 8.858 1.536 1.395 6.71-8.859Z" fill="#C98446"/><path d="m67.57 13.456-.478-.435-6.71 8.859.479.434 6.71-8.858ZM66.508 12.496l-.479-.434-6.71 8.858.48.435 6.71-8.859Z" fill="#A36B39"/><path d="m67.571 13.453-1.536-1.395 1.441-.63.64-.278-.167.705-.378 1.598Z" fill="#E5C3A5"/><path d="m67.94 11.866-.471-.429.64-.28-.17.71Z" fill="#877268"/><path d="M59.317 20.922c-.063.141-1.693 1.636-.751 2.559.96.942 2.287-1.162 2.287-1.162l-1.536-1.395v-.002Z" fill="#FA9876"/><path d="m-1.482 22.146-1.106 1.818 8.748 6.38 1.106-1.817-8.748-6.38Z" fill="#E4AF9C"/><path d="m-1.481 22.148-.345.566 8.748 6.38.344-.566-8.747-6.38Z" fill="#FBE8E2"/><path d="m-2.24 23.399-.344.567 8.748 6.38.345-.566-8.748-6.381Z" fill="#E4AF9C"/><path d="M6.162 30.348c.135.055 1.662 1.674 2.403.55.755-1.144-1.296-2.369-1.296-2.369l-1.107 1.82Z" fill="#FCC583"/><path d="M47.355-.724c-3.358 3.272-3.684 8.889-.749 12.599l1.38-1.345 1.059-1.032 7.389-7.2 1.059-1.033 1.38-1.343C55.846-3.701 50.715-4 47.355-.724Zm.807 8.608c-.71-2.041-.244-4.437 1.334-5.973C51.074.372 53.302.144 55.07 1.154l-6.908 6.732v-.002Z" fill="#DCF8C1"/><path d="M45.101 7.236a.101.101 0 0 1-.097-.09c-.01-.058.026-.117.08-.128l.808-.172c.056-.01.107.028.117.087.01.059-.024.118-.08.128l-.808.172h-.02v.003ZM48.12.668a.092.092 0 0 1-.073-.037l-.678-.833a.117.117 0 0 1 .008-.155.094.094 0 0 1 .141.009l.678.833a.117.117 0 0 1-.008.155.1.1 0 0 1-.066.028h-.002ZM48.597 10.046a.092.092 0 0 1-.073-.037l-.473-.58a.117.117 0 0 1 .008-.155.094.094 0 0 1 .14.008l.474.581a.117.117 0 0 1-.008.155.09.09 0 0 1-.066.028h-.002ZM49.835 8.838a.092.092 0 0 1-.073-.037l-.473-.581a.117.117 0 0 1 .008-.155.094.094 0 0 1 .14.009l.474.58a.117.117 0 0 1-.008.155.1.1 0 0 1-.066.029h-.002ZM51.08 7.627a.092.092 0 0 1-.074-.037l-.473-.58a.117.117 0 0 1 .008-.155.094.094 0 0 1 .141.008l.473.581a.117.117 0 0 1-.008.155.1.1 0 0 1-.066.028h-.002ZM52.32 6.417a.092.092 0 0 1-.074-.037l-.473-.58a.117.117 0 0 1 .008-.155.094.094 0 0 1 .141.008l.473.581a.117.117 0 0 1-.008.155.1.1 0 0 1-.065.028h-.002ZM53.56 5.207a.092.092 0 0 1-.074-.037l-.472-.58a.117.117 0 0 1 .007-.155.094.094 0 0 1 .142.009l.473.58a.117.117 0 0 1-.008.155.096.096 0 0 1-.066.028h-.002ZM54.802 4a.092.092 0 0 1-.073-.037l-.473-.581a.117.117 0 0 1 .008-.155.094.094 0 0 1 .14.009l.474.581a.117.117 0 0 1-.008.154.096.096 0 0 1-.066.029h-.002ZM56.042 2.79a.092.092 0 0 1-.073-.037l-.473-.581a.117.117 0 0 1 .008-.155.094.094 0 0 1 .141.01l.473.58a.117.117 0 0 1-.008.155.1.1 0 0 1-.066.028h-.002ZM57.283 1.58a.092.092 0 0 1-.074-.037l-.473-.581a.117.117 0 0 1 .008-.155.094.094 0 0 1 .141.01l.473.58a.117.117 0 0 1-.008.155.096.096 0 0 1-.065.028h-.002Z" fill="#A4C5EE"/><path d="m91.343 13.798 1.54.64c0-.087-.04-.102.097-.65l-9.474-3.943c-.033-.013-.095.121-.107.159l-.725 2.09c-.012.038 9.573 3.991 9.573 3.991.248-.474.276-.49.376-.696l-.917-.402.9.374c.024.01.203-.544.26-.836l-1.523-.727Z" fill="#D9D4A7"/><path d="M92.73 13.599c.05.94-.91 2.513-.91 2.513l.424.11s.721-1.438.808-1.838c.088-.4.088-.655.088-.655l-.412-.128.003-.002Z" fill="#C2BD95"/><path d="m82.771 11.766.529-1.525c.06-.172.234-.257.391-.191l9.669 4.023s.02 0 .028-.007c.149-.143.212-.341.202-.587a.03.03 0 0 0-.018-.026L83.37 9.205c-.157-.065-.332.022-.391.192l-.966 2.783c-.06.172.02.363.175.429l10.147 4.223c.048.02.1.005.133-.037a.79.79 0 0 0 .163-.479.133.133 0 0 0-.077-.126l-9.607-4c-.157-.064-.234-.256-.175-.428v.004Z" fill="#B1B1E8"/><path d="m83.877 10.957-1.012 2.909-.224.648.739-.063.509.583.224-.648 1.012-2.91-1.248-.52Z" fill="#F5A98D"/><path d="m82.094 12.545-3.893-7.363.853-2.148c.18-.452.663-.66 1.077-.459l9.295 4.51 4.147 6.368-10.356-4.01-1.123 3.1v.002Z" fill="#B1B1E8"/><path d="M79.688 2.51a.822.822 0 0 0-.632.526l-.853 2.148 3.893 7.364 1.123-3.101.195.076c-1.085-1.98-2.951-5.412-3.726-7.011V2.51Z" fill="#C8C8F0"/></g><defs><clipPath id="a"><path fill="#fff" d="M0 0h100v100H0z"/></clipPath></defs></svg>