<svg width="394" height="229" fill="none" xmlns="http://www.w3.org/2000/svg"><g clip-path="url(#a)"><path d="M263.726 157.319c-2.252-1.103-3.926 2.473-1.201 3.52 2.725 1.046 4.27 1.728 5.128 1.728.858 0 1.643-2.228.91-2.962-.734-.734-3.282-1.526-4.837-2.286Z" fill="#FBAE96"/><path d="M156.882 128.155c3.817 0 4.821 4.909 9.585 6.492 5.908 1.963 13.584-1.14 15.565-6.2 2.574-6.576-2.299-10.001-1.191-20.929.734-7.242-4.192-6.601-8.409-13.65-4.218-7.055-3.089-7.82-8.81-14.301-5.721-6.482-15.28-7.398-22.462-6.258-7.182 1.14-10.76 2.457-16.382 6.325-5.622 3.868-3.079 8.012-6.693 10.746-3.614 2.728-5.227 5.898-6.319 11.323-2.101 10.412 4.962 15.446 1.789 19.044-3.172 3.597-9.611 19.72 7.047 18.747 5.887-.344 11.161 1.593 14.047-2.879 4.249-6.581 6.371-2.202 12.19-5.086 5.825-2.89 10.038-3.364 10.038-3.364l.005-.01Z" fill="#37231B"/><path d="M114.189 131.716c14.027-11.428 15.358 0 49.006-2.234 4.15-.276 23.039 3.53 26.685 5.774 18.483 11.365 32.93 85.791 32.93 85.791l-107.029-1.182-1.592-88.149Z" fill="#FCC583"/><path d="M141.015 126.52c-.244 4.717-4.535.255-4.535 6.232 0 5.19 5.804 13.484 22.233 10.855 10.448-1.672 13.59-10.6 7.38-13.203-3.516-1.473-5.175-7.393-5.175-7.393l-19.903 3.504v.005Z" fill="#FBAE96"/><path d="M163.29 99.48c3.229 12.952 3.104 31.767-11.634 32.897-18.031 1.385-37.882-34.037-23.414-47.042 14.469-13.005 30.471-4.196 35.048 14.145Z" fill="#FBAE96"/><path d="M134.7 95.023c-2.122 4.097-2.273 4.831-4.624 7.184-2.35 2.354-2.132 8.45-1.009 11.928 5.352 16.581.77 8.574-.291 9.636-1.061 1.062-5.455-9.767-6.059-10.37-.608-.61-5.377-17.972-5.377-19.794 0-1.822 11.488-12.807 12.877-14.202 1.393-1.395 13.937-3.999 17.5-3.999 3.562 0 10.682-.452 12.201 1.974 1.513 2.426 11.363 22.75 11.363 22.75s5.908 9.47 1.914 9.205c-5.112-.344-6.075-1.375-7.385-4.368-1.404-3.218-2.736-10.444-9.777-8.054-11.905 4.035-21.333-1.88-21.333-1.88v-.01Z" fill="#37231B"/><path d="M85.82 228.247c-4.56-28.43 18.088-93.84 32.791-99.795 10.359-4.202 18.342-.896 20.267 10.584 1.924 11.479-15.592 65.57-15.592 65.57s51.367-14.129 55.917 0c4.546 14.13 2.273 24.141 2.273 24.141l-95.65-.5h-.005Z" fill="#FCC583"/><path d="M133.308 206.049c-4.707 0-8.888-.104-12.05-.188-1.524-.036-2.845-.072-3.922-.088a1.29 1.29 0 0 1-1.102-.594c-1.176-1.816 1.383-8.017 6.402-19.746 5.133-12.006 11.519-26.947 11.519-35.053a.64.64 0 1 1 1.28 0c0 8.371-6.444 23.443-11.624 35.558-2.065 4.826-4.01 9.381-5.232 12.775-1.747 4.858-1.373 5.654-1.269 5.774h.042c1.082.016 2.408.047 3.937.089 7.021.177 17.625.447 28.536-.36a.642.642 0 0 1 .093 1.281c-5.725.422-11.477.547-16.61.547v.005Z" fill="#C99565"/><path d="M141.181 112.37c-.114.739.66 2.972 2.314 2.462 1.092-.338.91-3.129-.374-3.639-1.046-.411-1.826.437-1.94 1.177ZM154.739 108.226c-.193.723.488 3.014 2.184 2.676 1.123-.219 1.087-2.999-.13-3.639-.993-.526-1.862.239-2.054.963Z" fill="#372313"/><path d="M148.414 124.786c.9 1.042 3.058 2.265 6.376 1.141 3.318-1.125 2.938-4.472 2.938-4.472-2.995 1.895-5.85 2.806-9.314 3.326v.005Z" fill="#E66C40"/><path d="M152.305 105.67c.666 0 2.772-1.479 4.774-1.156 2.002.323 1.93.047 1.451-.437-.483-.484-1.841-.984-4.379-.656-3.079.401-2.423 2.249-1.846 2.249ZM143.48 107.794c.037-.64-1.336-.797-2.33-.536-1.362.359-3.442 2.348-3.786 3.774-.182.745.344 1.109 1.108.063.905-1.234 1.617-1.984 2.767-2.161.926-.146 2.215-.635 2.241-1.135v-.005Z" fill="#37231B"/><path d="M132.007 114.369c1.623 2.291 3.859 6.794 2.195 7.976-1.664 1.182-6.6-1.4-8.222-3.691-1.623-2.291-1.592-5.107.072-6.289 1.665-1.182 4.333-.286 5.955 2.004Z" fill="#FBAE96"/><path d="M151.94 133.96c-3.271 0-5.986-1.094-6.137-1.156a.42.42 0 0 1 .318-.776c.046.021 4.769 1.916 9.075.656a.423.423 0 0 1 .52.286.423.423 0 0 1-.286.521c-1.176.344-2.367.474-3.49.474v-.005Z" fill="#C99565"/><path d="M133.755 123.017c1.181 1.181 6.647 6.538 12.206 9.402 1.612.833.796 6.372.655 7.2-1.061 6.299-7.801 4.94-11.826 2.926-4.322-2.166-.276-15.973-6.392-16.389-6.932-.474-9.688 2.598-10.697 2.332-1.977-.526 1.565-3.597 6.386-5.05 3.864-1.161 8.961-.874 9.668-.421Z" fill="#37231B"/><path d="M136.682 80.441c-2.621-.432-3.901 2.728-5.128 4.462-.244.343.322.78.582.453 1.145-1.427 2.19-4.441 4.442-4.165.421.052.525-.677.099-.75h.005ZM137.863 83.143c-1.768.161-2.803 1.53-3.827 2.827-.297.374.223.906.53.53.879-1.087 1.799-2.415 3.302-2.597.474-.057.494-.807 0-.76h-.005ZM125.194 99.1c-1.508 1.811-2.533 4.123-2.954 6.444-.089.474.634.682.733.203.437-2.176 1.363-4.373 2.751-6.117.297-.37-.218-.9-.53-.53ZM142.662 135.907c.037-.495-.717-.485-.764 0-.094 1.051.109 2.108.057 3.165-.026.474-.083 1.026-.38 1.416-.379.5-1.003.5-1.575.458-.5-.036-.474.703 0 .765 3.505.438 2.517-3.696 2.662-5.804ZM177.772 111.932c-.431-.895-.993-1.718-1.518-2.556-.344-.552-.963-1.328-.931-2.015.02-.479-.718-.479-.744 0-.036.578.286 1.156.562 1.64.431.765.931 1.494 1.378 2.249.405.677.863 1.421.993 2.218.135.828-.348 1.176-1.092 1.38-.478.13-.276.838.203.739.759-.162 1.477-.588 1.654-1.395.166-.766-.172-1.578-.5-2.255l-.005-.005ZM177.807 121.111c-.431-.484-.977-.719-1.549-.989-.692-.334-1.046-.662-.947-1.484.047-.411-.676-.515-.733-.099-.172 1.223.431 1.838 1.482 2.327.52.24 1.373.604 1.503 1.25.099.51-.744.921-1.04 1.249-.328.364.182.885.541.541.395-.38.967-.697 1.196-1.218.255-.578-.063-1.14-.447-1.572l-.006-.005ZM157.953 86.105c-.661-.708-1.503-.963-2.444-1.051-1.061-.105-2.096-.047-2.83-.953-.317-.39-.858.161-.551.552 1.368 1.723 3.807.53 5.279 1.994.348.348.874-.183.541-.542h.005Z" fill="#55341B"/><path d="M186.408 134.011c5.83.792 24.329 22.459 47.742 27.488 23.413 5.029 31.969-.276 31.969-.276l9.995 16.212c-22.909 16.8-58.694 7.976-81.38-3.337l-8.326-40.087Z" fill="#FCC583"/><path d="M279.245 225.936s14.146-44.684-15.503-66.581c-6.241-4.608-11.671-6.779-24.792-6.732-13.974.052-26.549 13.156-31.49 22.032-9.153 16.447-16.735 51.281-16.735 51.281h88.52Z" fill="#DB7E5D"/><path d="M262.53 225.899a.622.622 0 0 1-.624-.625v-25.458c-.006-.119-.791-15.285-2.913-21.189a.622.622 0 0 1 .38-.801.622.622 0 0 1 .801.38c2.189 6.08 2.954 20.954 2.99 21.584v25.489a.623.623 0 0 1-.624.625l-.01-.005ZM216.41 221.844a.624.624 0 0 1-.619-.557c-.151-1.307-3.703-32.153-1.675-42.992a.63.63 0 0 1 .734-.5.63.63 0 0 1 .499.734c-1.997 10.652 1.654 42.3 1.69 42.617a.63.63 0 0 1-.551.698h-.078Z" fill="#9E614B"/><path d="M230.743 157.809c-3.141 3.571-5.143 14.499.588 14.791 13.475.692 18.171-17.628 14.562-18.794-8.248-2.671-15.15 4.003-15.15 4.003Z" fill="#F1F2F2"/><path d="M230.165 148.673c0 1.395-.816 10.297 1.472 11.568 6.698 3.717 14.26-4.061 14.26-6.43v-7.643l-15.727 2.51-.005-.005Z" fill="#FBAE96"/><path d="M219.413 113.703c-.655-6.81-4.634-12.495-8.072-9.642-3.437 2.853-7.369 5.857-6.532 9.642.468 2.119 11.489 5.581 11.489 5.581l3.115-5.581Z" fill="#37231B"/><path d="M212.631 120.346a.628.628 0 0 1-.395-1.114c2.189-1.765 3.255-3.65 3.255-5.758a.623.623 0 1 1 1.249 0c0 2.478-1.254 4.743-3.724 6.737a.622.622 0 0 1-.39.14l.005-.005Z" fill="#DE501D"/><path d="M214.595 129.884c-2.179.489-3.791 1.051-4.686.161-.894-.895 0-3.202 0-3.202l2.876-.463 1.81 3.504Z" fill="#82512B"/><path d="M254.856 132.2c-2.07 14.29-11.239 25.608-24.105 25.608-9.507 0-15.784-4.763-16.814-14.504-.239-2.264.219-5.409.047-6.736-.286-2.234-1.929-4.712-1.929-7.055 0-14.29 12.273-21.147 25.14-21.147 12.866 0 19.71 9.694 17.661 23.834Z" fill="#FBAE96"/><path d="M227.242 133.486c-.052-.463 1.045-1.395 2.548-1.041 1.498.354 2.611 1.416 2.122 1.707-.489.292-1.586-.614-2.543-.505-.957.104-2.085.167-2.122-.161h-.005ZM219.795 133.757c.052-.463-1.046-1.395-2.549-1.041-1.497.354-2.61 1.416-2.122 1.707.489.292 1.587-.614 2.544-.505.957.11 2.085.167 2.121-.161h.006ZM225.304 124.713c10.953-1.072 11.572 3.348 14.703 7.487 3.136 4.139 10.812 3.342 14.338 2.785 1.201-.187 3.016-8.007 2.517-12.677-.369-3.462-.167-9.824-7.291-13.53-7.125-3.707-9.601-4.54-16.523-3.254-6.917 1.286-14.432 19.845-7.749 19.189h.005Z" fill="#37231B"/><path d="M243.939 114.135c.656-6.81 7.318-12.604 10.761-9.751 3.442 2.853 6.662 10.959 4.878 12.198-1.784 1.239-12.523 3.134-12.523 3.134l-3.116-5.581Z" fill="#37231B"/><path d="M248.126 119.898c-3.032 0-4.28-1.858-4.696-2.733-.728-1.525-.65-3.389.177-4.154a.626.626 0 0 1 .848.921c-.291.271-.473 1.494.099 2.692.436.916 1.617 2.384 4.618 1.941a.629.629 0 0 1 .182 1.245 8.912 8.912 0 0 1-1.233.093l.005-.005Z" fill="#D9886B"/><path d="M209.083 129.347c3.656 4.753 5.086-8.179 15.248-5.706 3.969.963.853-5.846 4.634-8.486 3.776-2.639 9.798-8.543 3.245-9.397-6.552-.854-15.425 2.936-17.89 6.987-1.097 1.801-3.365 4.206-3.692 7.455-.437 4.383-2.595 7.778-1.54 9.147h-.005Z" fill="#37231B"/><path d="M221.316 148.99s1.139 2.624 4.177 2.785c3.037.161 3.583-2.759 3.583-2.759-2.673.911-4.988 1.098-7.76-.026Z" fill="#F1F2F2"/><path d="M229.449 137.12c-.53.198-1.066 1.052-.811 2.312.255 1.254 1.196 1.806 1.784 1.426.587-.38 1.008-2.14.639-2.874s-1.274-.989-1.617-.859l.005-.005ZM217.563 137.141c-.52.218-1.025 1.093-.718 2.342.307 1.245 1.264 1.755 1.841 1.354.578-.406.921-2.176.526-2.895-.396-.718-1.316-.937-1.649-.796v-.005Z" fill="#372313"/><path d="M237.099 119.622c-1.295-1.499-3.718-1.9-5.517-1.202-.437.171-.255.874.197.713 1.649-.588 3.531-.198 4.78 1.031.353.349.863-.172.54-.542ZM239.575 112.703c-2.21-.531-4.249-.271-6.277.734-.437.218-.052.869.385.656 1.872-.911 3.666-1.052 5.694-.661.474.093.682-.615.203-.729h-.005ZM248.42 126.916c-1.3.427-2.923-.948-2.871-2.28.021-.479-.707-.474-.738 0-.114 1.77 2.07 3.696 3.812 3.014.442-.177.27-.89-.203-.734ZM218.039 116.602c-1.264-.12-2.533.302-3.271 1.385-.276.401-.411.859-.557 1.317-.213.672-.442.979-1.18 1.047-.479.046-.494.749 0 .76 1.092.015 1.628-.625 1.94-1.599.182-.572.353-1.088.816-1.509.614-.563 1.451-.714 2.257-.667.479.026.463-.692 0-.734h-.005ZM224.123 110.058c-.837-.213-1.399-.827-2.325-.713-.863.109-1.549.713-2.08 1.364-.302.37.198.906.536.536.509-.546 1.139-1.202 1.96-1.124.609.057 1.108.541 1.711.661.468.094.671-.604.198-.724Z" fill="#643D20"/><path d="M230.744 158.226a.417.417 0 0 1 0-.833c3.641 0 6.673-.703 9.002-2.088a.417.417 0 1 1 .427.718c-2.46 1.463-5.632 2.203-9.429 2.203Z" fill="#C48976"/><path d="M233.105 226.077c0-6.69 9.336-19.705 26.472-19.705 17.136 0 25.915 1.197 25.915 1.197v18.258l-52.387.25Z" fill="#DB7E5D"/><path d="M232.814 211.088a.628.628 0 0 1-.223-1.213c5.33-2.041 25.42-4.175 29.945-4.118.348 0 .624.286.619.635 0 .344-.286.62-.624.62h-.011c-4.332-.063-24.386 2.082-29.477 4.034a.682.682 0 0 1-.224.042h-.005Z" fill="#9E614B"/><path d="M149.568 215.014h78.618c4.623 0 8.378 3.758 8.378 8.387v1.301h-87.002v-9.694l.006.006Z" fill="#7781A6"/><path d="M217.551 224.707h-86.57l-5.689-64.405c-.328-1.858.483-3.571 2.345-3.571h81.094c1.446 0 2.689 1.052 2.943 2.499l5.877 65.477Z" fill="#7781A6"/><path d="M174.495 180.955c.229 3.571-2.268 6.638-5.575 6.851-3.308.214-6.179-2.504-6.413-6.075-.234-3.572 2.268-6.638 5.575-6.852 3.308-.213 6.179 2.505 6.413 6.076Z" fill="#DBDBDB"/><path d="M397.999 223.538H-5.002v13.401h403.001v-13.401Z" fill="#DCBFA3"/><path d="M326.88 97.158c0-6.076-.655-32.513 8.035-44.992 0 0 1.966 10.506 1.966 18.638 0 8.132-6.069 39.817-6.069 39.817l-3.937-13.463h.005ZM295.593 50.36s16.564 64.202 16.564 77.009c0 12.807-7.629 7.882-7.629 7.882s-5.658-44.58-7.629-49.671c-1.966-5.092-.739-9.361-.739-12.89 0-3.53-1.805-8.044-1.805-11.412 0-3.369 1.233-10.918 1.233-10.918h.005Z" fill="#A7CBBD"/><path d="M318.68 191.435c1.477-6.315 10.578-14.551 10.578-22.792 0-8.242-.983-39.817 1.721-46.132 2.705-6.315 4.92-16.748 4.92-22.792 0-6.044 7.38-12.354 7.38-16.748v-7.413s3.443 4.67 3.443 12.083-2.705 17.024-4.92 19.497c-2.216 2.473-3.693 5.492-3.693 10.709 0 5.216-1.232 31.028-1.232 37.895 0 6.867-.494 8.236-2.216 14.827-1.721 6.591-14.764 22.24-14.764 22.24l-1.233-1.374h.016Z" fill="#A4CABB"/><path d="M304.652 191.435c-3.442-7.689-8.856-24.161-8.856-32.127 0-7.965 1.232-15.649 0-20.043-1.233-4.394-8.15-33.736-5.456-44.528 1.68-6.726 2.257-1.989 2.257-1.989s10.828 17.139 12.055 24c1.228 6.862-.379 19.773 1.233 23.594 1.607 3.822 4.431 12.927 4.431 18.971v31.305l-5.658.822-.006-.005Z" fill="#C2E8D8"/><path d="m318.678 89.833-11.317-22.24s-3.937 12.63-3.937 16.747c0 4.118-1.477 7.414-1.477 11.532s3.443 12.63 3.443 19.773c0 7.142-1.232 14.551-1.232 20.595 0 6.044 6.152 55.195 6.152 55.195h4.431l3.937-101.597v-.005Z" fill="#92BCAB"/><path d="M314.743 191.435c0-5.492-1.722-9.886-1.722-18.122s0-13.453-1.477-23.615c-1.477-10.162 3.199-24.989 3.199-31.58 0-6.591-2.46-26.088 0-33.502 2.46-7.413 5.164-22.516 5.164-22.516s12.794 28.556 12.794 33.501v32.95c0 6.315-2.705 16.477-3.937 23.339-1.233 6.866-1.233 12.083-1.233 19.22 0 7.138-5.554 20.32-5.554 20.32h-7.239l.005.005Z" fill="#C2E8D8"/><path d="M334.146 223.838h-35.593l-4.691-39.806a3.388 3.388 0 0 1 3.365-3.785h38.053a3.386 3.386 0 0 1 3.365 3.769l-4.494 39.822h-.005Z" fill="#E3AC69"/><path d="M336.705 212.015h-40.96l-1.384-19.211h43.644l-1.3 19.211Z" fill="#FCC583"/><path d="M71.532 208.594c-21.879 0-39.68-17.821-39.68-39.723 0-12.312 5.564-23.729 15.274-31.319a1.15 1.15 0 0 1 1.596.171l49.235 59.282c.4.479.343 1.192-.125 1.604a39.606 39.606 0 0 1-26.305 9.98l.005.005Zm-23.855-68.512c-8.602 7.137-13.511 17.57-13.511 28.795 0 20.626 16.762 37.405 37.367 37.405 8.768 0 17.219-3.071 23.922-8.668l-47.778-57.532Z" fill="#9CA8D3"/><path d="M71.533 200.655c17.535 0 31.75-14.23 31.75-31.783 0-17.554-14.215-31.784-31.75-31.784s-31.75 14.23-31.75 31.784c0 17.553 14.215 31.783 31.75 31.783Z" fill="#A3D8F5"/><mask id="b" style="mask-type:luminance" maskUnits="userSpaceOnUse" x="39" y="137" width="65" height="64"><path d="M71.535 200.655c17.535 0 31.75-14.23 31.75-31.783 0-17.554-14.215-31.784-31.75-31.784s-31.75 14.23-31.75 31.784c0 17.553 14.215 31.783 31.75 31.783Z" fill="#fff"/></mask><g mask="url(#b)"><path d="M55.988 161.458c-4.914 3.322-11.108 15.353-4.914 14.442 6.188-.911 9.106-5.102 12.018-.729 2.912 4.373 3.225 7.476 8.44 7.476 5.217 0 11.988 3.905 13.05 2.848 1.055-1.057-2.731-7.403-4.733-13.422-2.003-6.013-8.014-12.031-12.019-13.671-4.005-1.64-11.837 3.056-11.837 3.056h-.005Z" fill="#DEB788"/><path d="M74.627 163.64c-2.263-2.484-4.785-4.415-6.803-5.238-4.004-1.64-11.837 3.056-11.837 3.056-2.262 1.531-4.794 4.904-6.266 8.012 2.97.636 3.172-2.046 8.503-2.566 6.188-.609 5.825-.615 8.981 1.333 3.157 1.947 1.977-1.089 4.327-2.307 1.503-.775 2.538-1.603 3.095-2.29Z" fill="#7DD2B1"/><path d="M51.801 161.458c-3.458-1.234-5.642-.869-5.642-5.065 0-4.196 1.326-5.389-.884-5.389s-7.13 9.564-7.13 12.396c0 2.832 5.632 2.879 6.828 1.682 1.196-1.198 6.828-3.624 6.828-3.624Z" fill="#DEB788"/><path d="M82.21 135.953c-9.288 0-15.113 8.226-8.742 10.595 6.37 2.368 7.468 1.978 11.29 4.456 3.823 2.473 7.463 5.57 8.379 3.202.91-2.369 4.732-2.916 4.732-4.92s-14.203-13.328-15.659-13.328v-.005Z" fill="#7CC8AA"/><path d="M67.825 201.967c-1.093-2.916-1.17-3.827 2.964-5.467 4.134-1.639 4.68-2.004 8.144-3.644 3.458-1.64 4.187-1.64 7.65-1.64 3.464 0 5.097 3.827 5.097 3.827s-6.834 4.227-7.349 4.737c-.515.511-16.507 2.187-16.507 2.187ZM50.672 144.366c1.888 0 2.73.906 8.014-.916 5.279-1.822 8.103-6.221 8.103-6.221l-9.923 1.754-6.189 5.383h-.005Z" fill="#F1F2F2"/></g><path d="M90.108 176.342c.91.911.863 2.598 1.914 1.552 1.045-1.047-.183-2.052 1.55-1.552 1.731.5 2.823-.547 2.823-2.098 0-1.551.094-3.191-1.638-2.551-1.732.64-2.824 1.093-3.916 1.64-1.092.547-.728 3.009-.728 3.009h-.005ZM96.393 179.075c0-1.093.53-1.78 1.456-.853.925.926 3.37 3.129 1.732 2.582-1.639-.547-3.183-1.734-3.183-1.734l-.005.005Z" fill="#DCF8C1"/><path d="M94.113 169.507c0-.911 1.924-1.89 2.954-2.916 1.025-1.025.24-2.733 1.191-2.733.952 0 .952-.276.952 1.094 0 1.369.728 3.191-.546 3.191s-1.456.546-2.273 1.369c-.822.823-2.278 0-2.278 0v-.005Z" fill="#E3AC69"/><path d="m71.903 207.438 5.751 11.667H65.412l6.49-11.667Z" fill="#9CA8D3"/><path d="M63 217.095h17.073a5.994 5.994 0 0 1 5.986 5.992v1.125H57.014v-1.125A5.994 5.994 0 0 1 63 217.095Z" fill="#9CA8D3"/><path d="M266.447 161.5c-.437 4.607-6.62 7.309-1.336 12.599 1.482 1.483 3.702 2.78 5.481 2.488 3.199-.526 5.778-4.383 5.575-6.356-.582-5.602-7.582-11.641-8.347-10.876-.764.765-1.222.588-1.373 2.145Z" fill="#FBAE96"/><path d="M264.201 172.885a.292.292 0 0 1-.244-.135.28.28 0 0 1 .094-.39c1.945-1.198 4.321-3.785 4.784-5.868.458-2.072 1.29-5.3 1.3-5.331a.285.285 0 1 1 .552.146c-.011.031-.838 3.249-1.295 5.315-.5 2.265-2.954 4.946-5.045 6.232a.268.268 0 0 1-.151.042l.005-.011ZM265.698 174.614a.283.283 0 0 1-.057-.562c1.436-.281 4.53-3.097 5.097-4.425.603-1.411 1.857-5.669 1.857-6.169a.29.29 0 0 1 .286-.287.29.29 0 0 1 .286.287c0 .671-1.347 5.102-1.899 6.393-.582 1.364-3.765 4.42-5.512 4.758-.016 0-.037.005-.052.005h-.006ZM268.72 176.03a.284.284 0 0 1-.27-.192.285.285 0 0 1 .177-.365c1.872-.656 4.035-3.009 4.581-4.279.562-1.302 1.529-4.389 1.534-4.42a.287.287 0 0 1 .547.171c-.042.131-.989 3.145-1.555 4.473-.578 1.348-2.835 3.868-4.92 4.597a.308.308 0 0 1-.094.015Z" fill="#C99565"/><path d="m119.517 224.162-28.042.083-.036-11.948 28.042-.083a1.95 1.95 0 0 1 1.956 1.946l.024 8.038a1.952 1.952 0 0 1-1.944 1.958v.006Z" fill="#7096C4"/><path d="m100.151 220.891-.015-5.357c0-.598-.421-1.088-.941-1.088l-32 .099a.091.091 0 0 1-.078-.052c-.286-.625-.276-1.317 0-2.062.015-.036.041-.057.078-.057l33.768-.104c.515 0 .936.484.941 1.088l.031 9.772c0 .599-.416 1.088-.936 1.093l-33.586.104c-.156 0-.296-.109-.348-.281-.177-.541-.161-1.098.005-1.676.052-.172.193-.287.349-.287l31.796-.093c.515 0 .936-.49.936-1.093v-.006Z" fill="#79ADDD"/><path d="m73.307 216.263-5.097.016c.094-.266.218-.266.364-2.124l31.355-.094c.114 0 .151.489.156.62l.021 7.345c0 .131-31.693.115-31.693.115-.25-1.77-.312-1.853-.395-2.619l3.052-.078-2.98.011c-.083 0-.046-1.932.078-2.895l5.139-.302v.005Z" fill="#E6E6E6"/><path d="m99.402 216.71.01 3.494.005.781-1.373-.386-1.368.396v-.781l-.01-3.493 2.736-.011Z" fill="#F6A447"/><path d="M297.219 167.076c-.899 6.939-7.577 11.625-14.478 10.532-6.901-1.094-11.613-7.586-10.516-14.494 1.092-6.909 7.577-11.625 14.479-10.527 6.901 1.099 11.186 9.314 10.521 14.494l-.006-.005Z" fill="#FCDCB5"/><path d="M316.424 193.871c1.664 15.577 2.028 30.846-18.811 30.846-15.888 0-20.127-11.729-19.253-29.669.858-17.612 6.002-35.891 15.602-31.304 10.641 5.081 20.777 14.41 22.462 30.127Z" fill="#FCDCB5"/><path d="M281.049 177.139a.598.598 0 0 1-.515-.895c3.76-6.539 7.707-8.512 11.759-10.111 4.186-1.65 5.549-.775 5.783-.583l-.765.922s.011.01.032.02c-.011-.005-1.082-.64-4.608.75-3.844 1.515-7.593 3.389-11.161 9.595a.597.597 0 0 1-.52.302h-.005Z" fill="#9E614B"/><path d="M328.702 256.012h-.145a3.251 3.251 0 0 1-3.105-3.39c0-.057.255-6.054-.047-12.463-.52-11.011-2.434-12.937-3.906-13.708-2.184-1.051-11.108-2.446-19.648-3.186a3.249 3.249 0 0 1-2.954-3.519 3.248 3.248 0 0 1 3.516-2.957c4.54.396 19.658 1.848 23.71 4.019 2.132 1.14 3.562 3.649 4.498 7.898.598 2.702 1.014 6.2 1.238 10.396.374 6.997.094 13.531.083 13.807a3.25 3.25 0 0 1-3.245 3.108l.005-.005ZM274.376 162.864l-4.186-5.399c-.448-.578.015-1.411.738-1.338l6.704.677-3.256 6.06ZM289.963 154.31l-2.397-5.07a.492.492 0 0 0-.926 0l-2.117 4.555 5.44.51v.005ZM284.024 195.1a4.06 4.06 0 0 1-3.536-4.191c.124-2.999-1.347-4.581-2.606-5.383-1.586-1.01-3.1-.979-3.495-.796a4.055 4.055 0 0 1-5.653-.75 4.051 4.051 0 0 1 .723-5.685c2.907-2.249 7.598-2.348 11.675-.24 4.91 2.536 7.697 7.471 7.458 13.198a4.049 4.049 0 0 1-4.566 3.847ZM290.375 218.585c-.853 0-14.739-.828-14.78 2.957-.047 3.785 1.778 3.108 6.864 3.108 5.087 0 13.091.047 13.091.047l-5.175-6.112Z" fill="#FCDCB5"/><path d="m86.12 19.034 12.2 22.735c4.774-7.23 10.776-8.689 21.645-10.328l-14.863-21.335c-11.27 2.155-14.848 3.363-18.978 8.928h-.005ZM119.965 31.435s8.586-14.525 19.414-12.843L121.458-3.253s-4.889-.646-9.741 3.462c-4.852 4.108-6.615 9.892-6.615 9.892l14.863 21.334Z" fill="#ABCFE3"/><path d="M108.681 10.637a.186.186 0 0 1-.187-.187c0-1.906 1.914-5.253 5.118-7.565C116.628.71 118.323.048 120.877.048c.104 0 .187.083.187.187a.186.186 0 0 1-.187.188c-2.486 0-4.067.62-7.047 2.77-3.063 2.207-4.961 5.487-4.961 7.257a.187.187 0 0 1-.188.187ZM110.609 13.5a.186.186 0 0 1-.187-.187c0-1.905 1.914-5.253 5.117-7.565 3.017-2.176 4.717-2.837 7.266-2.837.104 0 .187.083.187.188a.186.186 0 0 1-.187.187c-2.486 0-4.067.62-7.047 2.77-3.063 2.207-4.962 5.487-4.962 7.257a.186.186 0 0 1-.187.187ZM112.908 16.863a.186.186 0 0 1-.187-.187c0-1.906 1.914-5.253 5.117-7.565 3.017-2.176 4.712-2.837 7.265-2.837a.187.187 0 1 1 0 .375c-2.485 0-4.066.62-7.046 2.77-3.064 2.207-4.962 5.487-4.962 7.257a.186.186 0 0 1-.187.187ZM115.088 20.29a.187.187 0 0 1-.188-.188c0-1.905 1.914-5.253 5.118-7.565 3.016-2.176 4.712-2.837 7.265-2.837.104 0 .187.083.187.188a.186.186 0 0 1-.187.187c-2.486 0-4.067.62-7.047 2.77-3.063 2.207-4.961 5.487-4.961 7.257a.186.186 0 0 1-.187.187ZM116.705 21.97l3.261 4.796s1.716-4.358 4.145-5.795l-3.235-4.67s-1.867.9-2.985 2.489c-.936 1.327-1.181 3.175-1.181 3.175l-.005.006Z" fill="#7496B8"/><path d="m242.451 27.421-4.019-3.337-17.559 21.195 4.019 3.337 17.559-21.195Z" fill="#C98446"/><path d="m242.448 27.426-1.253-1.04-17.559 21.195 1.253 1.04 17.559-21.195ZM239.681 25.13l-1.253-1.04-17.559 21.195 1.253 1.04 17.559-21.195Z" fill="#A36B39"/><path d="m242.454 27.418-4.02-3.337 3.77-1.505 1.675-.666-.437 1.686-.988 3.822Z" fill="#E5C3A5"/><path d="m243.42 23.622-1.232-1.025 1.674-.672-.442 1.697Z" fill="#877268"/><path d="M220.86 45.29c-.166.338-4.431 3.915-1.966 6.122 2.512 2.255 5.986-2.78 5.986-2.78l-4.02-3.337v-.005Z" fill="#FA9876"/><path d="m61.758 48.217-2.895 4.35 22.892 15.266 2.895-4.35-22.892-15.266Z" fill="#E4AF9C"/><path d="m61.762 48.222-.903 1.357 22.892 15.265.903-1.356-22.892-15.266Z" fill="#FBE8E2"/><path d="m59.772 51.214-.903 1.356 22.892 15.265.903-1.356-22.892-15.265Z" fill="#E4AF9C"/><path d="m61.747 48.21-2.897 4.352-1.893-3.597-.832-1.593 1.721.255 3.9.583Z" fill="#E5C3A5"/><path d="m57.872 47.647-.889 1.333-.842-1.593 1.731.26Z" fill="#877268"/><path d="M81.76 67.842c.353.13 4.347 4.004 6.287 1.317 1.977-2.738-3.39-5.67-3.39-5.67l-2.897 4.353Z" fill="#FCC583"/><path d="M189.573-6.5c-8.789 7.83-9.642 21.266-1.961 30.143l3.609-3.218 2.772-2.468L213.329.732l2.772-2.473 3.61-3.212c-7.916-8.669-21.344-9.382-30.138-1.547Zm2.111 20.595c-1.856-4.884-.639-10.616 3.49-14.291 4.129-3.68 9.959-4.227 14.588-1.812L191.684 14.1v-.005Z" fill="#DCF8C1"/><path d="M183.669 12.543a.258.258 0 0 1-.255-.213.265.265 0 0 1 .209-.307l2.116-.412a.262.262 0 0 1 .307.208.26.26 0 0 1-.208.308l-2.117.411h-.052v.005ZM192.818 19.27a.25.25 0 0 1-.192-.09l-1.238-1.39a.264.264 0 0 1 .021-.369.262.262 0 0 1 .369.02l1.238 1.39a.263.263 0 0 1-.192.438h-.006ZM196.068 16.375a.25.25 0 0 1-.192-.088l-1.238-1.39a.264.264 0 0 1 .021-.37.262.262 0 0 1 .369.02l1.238 1.39a.263.263 0 0 1-.192.438h-.006ZM199.313 13.48a.25.25 0 0 1-.193-.088l-1.238-1.39a.264.264 0 0 1 .021-.37.262.262 0 0 1 .369.02l1.238 1.39a.262.262 0 0 1-.192.438h-.005ZM202.565 10.586a.25.25 0 0 1-.193-.089l-1.238-1.39a.264.264 0 0 1 .021-.37.262.262 0 0 1 .369.021l1.238 1.39a.262.262 0 0 1-.192.438h-.005ZM205.809 7.691a.25.25 0 0 1-.193-.088l-1.238-1.39a.264.264 0 0 1 .021-.37.263.263 0 0 1 .37.02l1.237 1.39a.262.262 0 0 1-.192.438h-.005ZM209.061 4.802a.25.25 0 0 1-.193-.089l-1.238-1.39a.264.264 0 0 1 .021-.37.262.262 0 0 1 .369.022l1.238 1.39a.262.262 0 0 1-.192.437h-.005ZM212.305 1.907a.25.25 0 0 1-.193-.088l-1.237-1.39a.263.263 0 0 1 .02-.37.263.263 0 0 1 .37.021l1.237 1.39c.094.11.089.27-.02.37a.276.276 0 0 1-.172.067h-.005Z" fill="#A4C5EE"/><path d="m304.687 28.244 4.031 1.53c0-.207-.104-.244.255-1.556l-24.792-9.433c-.088-.031-.25.291-.281.38l-1.898 5.003c-.031.088 25.051 9.548 25.051 9.548.651-1.135.723-1.172.983-1.666l-2.397-.963 2.356.895c.062.026.53-1.301.681-1.999l-3.989-1.739Z" fill="#D9D4A7"/><path d="M308.317 27.766c.13 2.249-2.381 6.013-2.381 6.013l1.107.265s1.888-3.441 2.117-4.399c.229-.958.229-1.567.229-1.567l-1.077-.307.005-.005Z" fill="#C2BD95"/><path d="m282.257 23.382 1.384-3.65a.79.79 0 0 1 1.024-.457l25.301 9.626s.052 0 .073-.016c.39-.344.557-.817.531-1.406 0-.026-.021-.052-.047-.062l-26.7-10.162a.796.796 0 0 0-1.025.458l-2.527 6.658a.797.797 0 0 0 .457 1.026l26.555 10.105c.125.047.26.01.348-.089.276-.317.411-.702.427-1.145a.317.317 0 0 0-.203-.302l-25.14-9.569a.793.793 0 0 1-.458-1.025v.01Z" fill="#B1B1E8"/><path d="m285.145 21.446-2.647 6.96-.588 1.552 1.935-.151 1.331 1.395.588-1.551 2.647-6.96-3.266-1.245Z" fill="#F5A98D"/><path d="M280.485 25.246 270.297 7.628l2.231-5.138a2.134 2.134 0 0 1 2.819-1.099l24.323 10.793 10.854 15.233-27.101-9.595-2.938 7.419v.005Z" fill="#B1B1E8"/><path d="M274.186 1.236a2.117 2.117 0 0 0-1.654 1.26l-2.231 5.138 10.188 17.618 2.938-7.42.51.183c-2.84-4.738-7.723-12.947-9.751-16.774v-.005Z" fill="#C8C8F0"/></g><defs><clipPath id="a"><path fill="#fff" d="M0 0h394v229H0z"/></clipPath></defs></svg>