<svg width="377" height="440" fill="none" xmlns="http://www.w3.org/2000/svg"><g clip-path="url(#a)"><path d="M211.141 259.139c6.325 0 7.988 8.135 15.881 10.757 9.789 3.252 22.508-1.889 25.792-10.274 4.265-10.895-3.809-16.571-1.974-34.677 1.215-11.999-6.945-10.938-13.934-22.618-6.988-11.689-5.118-12.957-14.597-23.697-9.479-10.739-25.318-12.258-37.218-10.368-11.901 1.889-17.829 4.071-27.144 10.481-9.316 6.409-5.102 13.275-11.091 17.804-5.989 4.52-8.66 9.774-10.47 18.762-3.481 17.253 8.221 25.594 2.965 31.555-5.257 5.961-15.925 32.676 11.676 31.063 9.755-.569 18.493 2.64 23.275-4.77 7.04-10.904 10.556-3.649 20.199-8.428 9.651-4.788 16.631-5.573 16.631-5.573l.009-.017Z" fill="#37231B"/><path d="M140.401 265.04c23.241-18.935 25.447 0 81.201-3.701 6.876-.457 38.174 5.849 44.215 9.567 30.625 18.831 54.564 142.152 54.564 142.152l-177.343-1.959-2.637-146.059Z" fill="#FCC583"/><path d="M184.849 256.431c-.405 7.815-7.514.423-7.514 10.326 0 8.6 9.617 22.342 36.839 17.985 17.312-2.769 22.516-17.563 12.227-21.876-5.825-2.441-8.574-12.249-8.574-12.249l-32.978 5.805v.009Z" fill="#FBAE96"/><path d="M221.756 211.626c5.351 21.462 5.144 52.637-19.277 54.509-29.876 2.295-62.768-56.398-38.795-77.946 23.973-21.549 50.489-6.953 58.072 23.437Z" fill="#FBAE96"/><path d="M174.389 204.242c-3.516 6.789-3.765 8.005-7.66 11.904-3.895 3.899-3.533 14-1.672 19.763 8.867 27.474 1.275 14.207-.483 15.967-1.758 1.76-9.039-16.183-10.039-17.184-1.008-1.009-8.91-29.777-8.91-32.797 0-3.019 19.035-21.22 21.336-23.532 2.31-2.312 23.094-6.625 28.997-6.625 5.903 0 17.7-.75 20.216 3.269 2.508 4.02 18.829 37.697 18.829 37.697s9.789 15.691 3.171 15.251c-8.471-.569-10.065-2.277-12.236-7.237-2.327-5.331-4.533-17.304-16.201-13.345-19.725 6.685-35.348-3.114-35.348-3.114v-.017Z" fill="#37231B"/><path d="M93.395 424.988c-7.558-47.108 29.97-155.489 54.331-165.357 17.166-6.961 30.393-1.484 33.582 17.537 3.188 19.021-25.835 108.648-25.835 108.648s85.113-23.412 92.653 0c7.531 23.412 3.766 40 3.766 40l-158.489-.828h-.008Z" fill="#FCC583"/><path d="M172.078 388.205c-7.799 0-14.727-.172-19.966-.31-2.525-.061-4.714-.121-6.497-.147-.776-.008-1.422-.362-1.827-.983-1.948-3.011 2.292-13.285 10.607-32.72 8.506-19.892 19.088-44.649 19.088-58.08a1.06 1.06 0 1 1 2.119 0c0 13.871-10.676 38.844-19.259 58.917-3.421 7.997-6.644 15.545-8.669 21.169-2.895 8.048-2.275 9.368-2.103 9.567h.069c1.793.025 3.99.077 6.524.146 11.633.293 29.203.742 47.282-.595a1.063 1.063 0 1 1 .155 2.122c-9.487.699-19.018.906-27.523.906v.008Z" fill="#C99565"/><path d="M185.124 232.985c-.19 1.224 1.094 4.925 3.834 4.08 1.81-.561 1.508-5.185-.62-6.03-1.732-.681-3.025.725-3.214 1.95ZM207.587 226.118c-.319 1.199.81 4.995 3.619 4.434 1.861-.362 1.801-4.969-.216-6.03-1.646-.871-3.085.397-3.403 1.596Z" fill="#372313"/><path d="M197.113 253.558c1.491 1.725 5.067 3.752 10.565 1.889 5.498-1.863 4.869-7.41 4.869-7.41-4.964 3.14-9.695 4.65-15.434 5.512v.009Z" fill="#E66C40"/><path d="M203.56 221.883c1.103 0 4.593-2.45 7.911-1.915 3.318.534 3.197.077 2.404-.725-.801-.802-3.05-1.63-7.256-1.087-5.101.664-4.015 3.727-3.059 3.727ZM188.934 225.402c.06-1.061-2.215-1.32-3.86-.888-2.258.595-5.705 3.89-6.274 6.254-.301 1.233.569 1.837 1.836.103 1.499-2.044 2.68-3.286 4.584-3.58 1.534-.241 3.671-1.052 3.714-1.88v-.009Z" fill="#37231B"/><path d="M169.923 236.297c2.689 3.796 6.394 11.257 3.636 13.216-2.757 1.958-10.935-2.321-13.623-6.116-2.689-3.796-2.637-8.463.12-10.421 2.758-1.958 7.178-.474 9.867 3.321Z" fill="#FBAE96"/><path d="M202.955 268.758c-5.42 0-9.918-1.812-10.168-1.915a.696.696 0 0 1 .526-1.286c.077.035 7.902 3.175 15.037 1.087a.698.698 0 0 1 .861.475.698.698 0 0 1-.474.862c-1.947.57-3.92.785-5.782.785v-.008Z" fill="#C99565"/><path d="M172.822 250.625c1.956 1.958 11.013 10.835 20.225 15.579 2.671 1.38 1.318 10.559 1.085 11.93-1.757 10.438-12.925 8.187-19.595 4.848-7.161-3.588-.457-26.465-10.591-27.155-11.486-.785-16.054 4.304-17.725 3.864-3.275-.871 2.593-5.96 10.582-8.367 6.402-1.924 14.847-1.449 16.019-.699Z" fill="#37231B"/><path d="M177.672 180.08c-4.343-.716-6.463 4.52-8.497 7.392-.405.57.535 1.294.965.751 1.896-2.364 3.628-7.358 7.36-6.901.698.086.87-1.122.163-1.242h.009ZM179.629 184.556c-2.93.268-4.645 2.537-6.342 4.685-.491.621.37 1.5.879.879 1.456-1.802 2.981-4.002 5.472-4.304.784-.095.818-1.337 0-1.26h-.009ZM158.636 210.996c-2.499 3.002-4.196 6.832-4.894 10.679-.147.785 1.051 1.13 1.215.337.724-3.606 2.258-7.246 4.558-10.136.492-.613-.362-1.492-.879-.88ZM187.579 271.984c.06-.82-1.189-.802-1.267 0-.155 1.742.181 3.494.095 5.245-.043.785-.138 1.699-.629 2.346-.629.828-1.663.828-2.611.759-.827-.06-.784 1.165 0 1.268 5.808.725 4.171-6.124 4.412-9.618ZM245.758 232.26c-.716-1.484-1.646-2.847-2.517-4.236-.568-.914-1.594-2.199-1.542-3.338.034-.794-1.189-.794-1.232 0-.061.958.474 1.915.93 2.717.715 1.268 1.543 2.476 2.284 3.727.672 1.121 1.43 2.355 1.646 3.675.224 1.371-.578 1.949-1.81 2.286-.793.215-.457 1.388.336 1.225 1.258-.268 2.447-.975 2.74-2.312.276-1.268-.284-2.614-.827-3.735l-.008-.009ZM245.82 247.468c-.715-.802-1.62-1.19-2.568-1.639-1.146-.552-1.732-1.096-1.568-2.458.077-.682-1.12-.854-1.215-.164-.284 2.027.715 3.045 2.456 3.856.862.396 2.275 1 2.49 2.07.164.845-1.232 1.527-1.723 2.07-.543.604.301 1.467.896.897.655-.629 1.603-1.156 1.982-2.018.422-.958-.104-1.889-.741-2.605l-.009-.009ZM212.917 189.465c-1.094-1.173-2.49-1.596-4.05-1.742-1.758-.173-3.472-.078-4.687-1.579-.526-.647-1.422.267-.914.914 2.266 2.856 6.308.88 8.747 3.304.577.578 1.447-.302.896-.897h.008Z" fill="#55341B"/><path d="M260.06 268.844c9.659 1.311 40.311 37.213 79.106 45.546 38.795 8.333 52.97-.457 52.97-.457l16.562 26.862c-37.959 27.837-97.254 13.216-134.842-5.529l-13.796-66.422Z" fill="#FCC583"/><path d="M413.888 421.158s23.439-74.04-25.688-110.322c-10.341-7.634-19.337-11.231-41.079-11.153-23.154.086-43.991 21.798-52.177 36.506-15.166 27.25-27.73 84.969-27.73 84.969h146.674Z" fill="#DB7E5D"/><path d="M309.773 414.378c-.517 0-.965-.389-1.026-.923-.25-2.166-6.135-53.276-2.775-71.236a1.041 1.041 0 0 1 1.216-.828c.56.103.93.647.827 1.216-3.309 17.649 2.74 70.088 2.8 70.615a1.044 1.044 0 0 1-.913 1.156h-.129Z" fill="#9E614B"/><path d="M333.521 308.274c-5.205 5.918-8.522 24.024.974 24.507 22.327 1.148 30.109-29.208 24.128-31.14-13.667-4.426-25.102 6.633-25.102 6.633Z" fill="#F1F2F2"/><path d="M332.565 293.135c0 2.312-1.353 17.063 2.438 19.168 11.099 6.159 23.629-6.729 23.629-10.654v-12.663l-26.059 4.158-.008-.009Z" fill="#FBAE96"/><path d="M314.747 235.193c-1.086-11.284-7.678-20.703-13.374-15.976-5.696 4.727-12.211 9.704-10.824 15.976.776 3.511 19.036 9.247 19.036 9.247l5.162-9.247Z" fill="#37231B"/><path d="M303.511 246.2a1.038 1.038 0 0 1-.655-1.846c3.628-2.925 5.394-6.047 5.394-9.541 0-.578.466-1.035 1.035-1.035.568 0 1.034.466 1.034 1.035 0 4.106-2.077 7.858-6.17 11.162-.19.156-.423.233-.647.233l.009-.008Z" fill="#DE501D"/><path d="M306.767 262.003c-3.611.811-6.282 1.742-7.765.267-1.482-1.484 0-5.305 0-5.305l4.766-.768 2.999 5.806Z" fill="#82512B"/><path d="M373.475 265.842c-3.429 23.679-18.621 42.432-39.94 42.432-15.753 0-26.154-7.893-27.86-24.032-.396-3.753.362-8.963.078-11.163-.474-3.7-3.197-7.807-3.197-11.688 0-23.679 20.336-35.04 41.655-35.04 21.319 0 32.66 16.062 29.264 39.491Z" fill="#FBAE96"/><path d="M327.713 267.972c-.086-.767 1.732-2.311 4.222-1.725 2.482.587 4.326 2.347 3.516 2.83-.81.483-2.628-1.018-4.214-.837-1.585.172-3.455.276-3.515-.268h-.009ZM315.377 268.421c.086-.768-1.732-2.312-4.223-1.725-2.481.586-4.325 2.346-3.515 2.829.81.483 2.628-1.018 4.213-.837 1.586.182 3.456.276 3.516-.267h.009ZM324.511 253.437c18.148-1.777 19.173 5.547 24.361 12.405 5.196 6.858 17.915 5.538 23.758 4.615 1.99-.311 4.998-13.267 4.17-21.005-.612-5.737-.275-16.278-12.081-22.42-11.806-6.142-15.907-7.522-27.377-5.391-11.461 2.13-23.913 32.883-12.84 31.796h.009Z" fill="#37231B"/><path d="M355.384 235.908c1.086-11.283 12.124-20.884 17.829-16.157 5.704 4.728 11.039 18.159 8.083 20.212-2.956 2.053-20.75 5.193-20.75 5.193l-5.162-9.248Z" fill="#37231B"/><path d="M362.32 245.458c-5.023 0-7.092-3.08-7.781-4.529-1.206-2.528-1.077-5.616.293-6.884a1.038 1.038 0 0 1 1.405 1.527c-.483.448-.784 2.476.163 4.46.724 1.518 2.68 3.95 7.652 3.217a1.041 1.041 0 0 1 .302 2.062c-.732.103-1.413.155-2.042.155l.008-.008Z" fill="#D9886B"/><path d="M297.632 261.115c6.058 7.876 8.428-13.552 25.266-9.455 6.575 1.596 1.413-9.687 7.678-14.06 6.256-4.374 16.235-14.156 5.377-15.571-10.858-1.414-25.559 4.865-29.643 11.577-1.819 2.984-5.576 6.97-6.119 12.352-.724 7.264-4.3 12.888-2.55 15.157h-.009Z" fill="#37231B"/><path d="M317.9 293.661s1.888 4.348 6.92 4.615c5.032.268 5.937-4.571 5.937-4.571-4.429 1.509-8.264 1.82-12.857-.044Z" fill="#F1F2F2"/><path d="M331.378 273.994c-.879.327-1.767 1.742-1.345 3.83.422 2.079 1.982 2.993 2.956 2.363.974-.63 1.672-3.545 1.06-4.761-.612-1.217-2.111-1.639-2.68-1.424l.009-.008ZM311.677 274.028c-.862.362-1.698 1.812-1.189 3.882.508 2.062 2.094 2.907 3.05 2.243.957-.673 1.525-3.606.871-4.797-.655-1.19-2.181-1.552-2.732-1.319v-.009Z" fill="#372313"/><path d="M344.055 245.001c-2.145-2.484-6.161-3.149-9.143-1.993-.723.285-.422 1.45.328 1.182 2.731-.975 5.851-.328 7.919 1.708.586.578 1.431-.285.896-.897ZM348.159 233.537c-3.662-.88-7.04-.449-10.401 1.216-.724.362-.086 1.441.638 1.087 3.102-1.51 6.075-1.743 9.436-1.096.784.156 1.128-1.018.336-1.207h-.009ZM362.817 257.086c-2.155.708-4.843-1.57-4.757-3.778.034-.794-1.172-.785-1.224 0-.189 2.933 3.43 6.125 6.317 4.995.732-.294.448-1.475-.336-1.217ZM312.476 239.998c-2.094-.199-4.197.5-5.42 2.294-.457.665-.681 1.424-.922 2.183-.354 1.113-.733 1.621-1.956 1.734-.793.077-.819 1.242 0 1.259 1.809.026 2.697-1.035 3.214-2.648.301-.949.586-1.803 1.353-2.502 1.017-.931 2.404-1.182 3.74-1.104.792.043.767-1.147 0-1.216h-.009ZM322.558 229.154c-1.387-.353-2.318-1.371-3.851-1.181-1.431.181-2.568 1.181-3.447 2.26-.5.612.327 1.501.887.888.845-.906 1.887-1.992 3.249-1.863 1.008.095 1.835.897 2.835 1.095.776.156 1.112-1 .327-1.199Z" fill="#643D20"/><path d="M333.524 308.964a.691.691 0 0 1 0-1.38c6.032 0 11.056-1.165 14.917-3.459a.69.69 0 1 1 .706 1.19c-4.076 2.424-9.332 3.649-15.623 3.649Z" fill="#C48976"/><path d="M337.433 421.39c0-11.085 15.468-32.65 43.861-32.65 28.394 0 42.94 1.984 42.94 1.984v30.252l-86.801.414Z" fill="#DB7E5D"/><path d="M336.95 396.556a1.041 1.041 0 0 1-.37-2.01c8.832-3.382 42.121-6.919 49.618-6.824.577 0 1.034.475 1.025 1.053 0 .569-.474 1.026-1.034 1.026h-.017c-7.178-.103-40.406 3.451-48.843 6.686-.12.043-.25.069-.37.069h-.009Z" fill="#9E614B"/><path d="M199.014 403.06h130.267c7.661 0 13.883 6.228 13.883 13.897v2.157H199.006v-16.062l.008.008Z" fill="#7781A6"/><path d="M311.662 419.122H168.22l-9.428-106.715c-.543-3.08.802-5.918 3.887-5.918h134.368c2.396 0 4.455 1.743 4.878 4.141l9.737 108.492Z" fill="#7781A6"/><path d="M240.322 346.627c.38 5.918-3.757 10.999-9.237 11.352-5.481.354-10.238-4.149-10.625-10.066-.388-5.918 3.757-10.999 9.237-11.352 5.481-.354 10.238 4.149 10.625 10.066Z" fill="#DBDBDB"/><path d="M553.554 417.439H0v22.696h553.554v-22.696Z" fill="#DCBFA3"/><path d="M69.714 392.423c-36.252 0-65.75-29.527-65.75-65.818 0-20.401 9.221-39.318 25.31-51.895a1.907 1.907 0 0 1 2.645.284l81.579 98.227a1.91 1.91 0 0 1-.206 2.657 65.62 65.62 0 0 1-43.586 16.537l.008.008ZM30.187 278.902C15.934 290.729 7.8 308.016 7.8 326.614c0 34.177 27.773 61.979 61.914 61.979a61.803 61.803 0 0 0 39.64-14.362l-79.167-95.329Z" fill="#9CA8D3"/><path d="M69.716 379.268c29.054 0 52.608-23.578 52.608-52.663 0-29.085-23.554-52.663-52.608-52.663-29.055 0-52.609 23.578-52.609 52.663 0 29.085 23.554 52.663 52.609 52.663Z" fill="#A3D8F5"/><mask id="b" style="mask-type:luminance" maskUnits="userSpaceOnUse" x="17" y="273" width="106" height="107"><path d="M69.718 379.269c29.054 0 52.608-23.578 52.608-52.664 0-29.085-23.554-52.663-52.608-52.663-29.055 0-52.609 23.578-52.609 52.663 0 29.086 23.554 52.664 52.609 52.664Z" fill="#fff"/></mask><g mask="url(#b)"><path d="M43.962 314.322c-8.143 5.503-18.406 25.438-8.143 23.929 10.254-1.51 15.089-8.454 19.914-1.208 4.826 7.246 5.343 12.387 13.986 12.387s19.863 6.47 21.62 4.719c1.75-1.751-4.523-12.267-7.841-22.238-3.318-9.964-13.28-19.936-19.914-22.653-6.636-2.717-19.613 5.064-19.613 5.064h-.009Z" fill="#DEB788"/><path d="M74.843 317.936c-3.748-4.115-7.928-7.315-11.271-8.678-6.636-2.717-19.613 5.064-19.613 5.064-3.748 2.536-7.945 8.126-10.384 13.275 4.92 1.053 5.257-3.39 14.09-4.252 10.254-1.01 9.65-1.018 14.881 2.208s3.275-1.803 7.17-3.821c2.49-1.286 4.205-2.657 5.127-3.796Z" fill="#7DD2B1"/><path d="M37.023 314.321c-5.73-2.044-9.35-1.44-9.35-8.393 0-6.953 2.198-8.928-1.464-8.928-3.663 0-11.814 15.846-11.814 20.539 0 4.693 9.332 4.77 11.314 2.786 1.982-1.984 11.314-6.004 11.314-6.004Z" fill="#DEB788"/><path d="M87.406 272.061c-15.39 0-25.041 13.63-14.485 17.555 10.556 3.925 12.374 3.278 18.708 7.384 6.334 4.097 12.366 9.23 13.882 5.305 1.508-3.925 7.842-4.831 7.842-8.152 0-3.321-23.534-22.083-25.947-22.083v-.009Z" fill="#7CC8AA"/><path d="M63.573 381.442c-1.81-4.83-1.939-6.34 4.912-9.057 6.85-2.717 7.755-3.321 13.494-6.039 5.73-2.717 6.937-2.717 12.676-2.717s8.445 6.34 8.445 6.34-11.323 7.005-12.176 7.85c-.853.846-27.351 3.623-27.351 3.623ZM35.155 286.002c3.128 0 4.524 1.501 13.28-1.519 8.746-3.019 13.425-10.308 13.425-10.308l-16.442 2.907-10.254 8.92h-.009Z" fill="#F1F2F2"/></g><path d="M100.494 338.983c1.508 1.51 1.431 4.305 3.171 2.571 1.732-1.734-.301-3.399 2.568-2.571 2.87.829 4.679-.905 4.679-3.476 0-2.571.155-5.288-2.714-4.227-2.87 1.061-4.679 1.812-6.489 2.717-1.81.906-1.206 4.986-1.206 4.986h-.009ZM110.904 343.513c0-1.812.879-2.951 2.413-1.415 1.534 1.535 5.584 5.184 2.87 4.278-2.715-.905-5.274-2.872-5.274-2.872l-.009.009Z" fill="#DCF8C1"/><path d="M107.128 327.657c0-1.509 3.188-3.131 4.895-4.83 1.697-1.7.396-4.529 1.973-4.529s1.577-.457 1.577 1.811c0 2.269 1.206 5.288-.905 5.288-2.111 0-2.413.906-3.766 2.269-1.361 1.363-3.774 0-3.774 0v-.009Z" fill="#E3AC69"/><path d="m70.326 390.508 9.53 19.331H59.571l10.755-19.331Z" fill="#9CA8D3"/><path d="M55.574 406.51h28.29c5.472 0 9.918 4.451 9.918 9.929v1.863H45.655v-1.863c0-5.478 4.447-9.929 9.919-9.929Z" fill="#9CA8D3"/><path d="m149.216 418.218-46.464.138-.059-19.798 46.464-.138a3.235 3.235 0 0 1 3.241 3.226l.04 13.319a3.234 3.234 0 0 1-3.222 3.244v.009Z" fill="#7096C4"/><path d="m117.132 412.799-.026-8.876c0-.992-.698-1.803-1.56-1.803l-53.022.164a.151.151 0 0 1-.13-.087c-.473-1.035-.456-2.182 0-3.416.027-.06.07-.095.13-.095l55.952-.172c.853 0 1.551.802 1.56 1.803l.051 16.191c0 .992-.689 1.803-1.551 1.812l-55.65.172c-.258 0-.491-.181-.577-.466-.293-.897-.267-1.82.008-2.777.087-.285.32-.475.578-.475l52.685-.155c.854 0 1.552-.811 1.552-1.811v-.009Z" fill="#79ADDD"/><path d="m72.648 405.13-8.444.026c.155-.44.362-.44.603-3.519l51.953-.156c.19 0 .25.811.259 1.027l.034 12.172c0 .215-52.513.189-52.513.189-.414-2.933-.517-3.071-.655-4.339l5.058-.129-4.938.017c-.137 0-.077-3.2.13-4.796l8.513-.5v.008Z" fill="#E6E6E6"/><path d="m115.89 405.872.017 5.788.009 1.294-2.275-.638-2.266.655v-1.293l-.018-5.789 4.533-.017Z" fill="#F6A447"/><path d="m93.887 78.333 20.216 37.671c7.91-11.982 17.855-14.398 35.865-17.115L125.34 63.54c-18.674 3.571-24.603 5.572-31.445 14.794h-.008ZM149.966 98.88s14.227-24.067 32.168-21.28l-29.695-36.196s-8.1-1.07-16.14 5.736c-8.04 6.806-10.961 16.39-10.961 16.39l24.628 35.35Z" fill="#ABCFE3"/><path d="M131.267 64.419a.31.31 0 0 1-.31-.31c0-3.158 3.171-8.705 8.479-12.535 4.998-3.605 7.808-4.701 12.039-4.701a.31.31 0 0 1 .31.31.31.31 0 0 1-.31.311c-4.119 0-6.739 1.027-11.677 4.59-5.075 3.657-8.221 9.091-8.221 12.024 0 .173-.137.31-.31.31ZM134.465 69.163a.31.31 0 0 1-.31-.31c0-3.158 3.171-8.704 8.48-12.534 4.998-3.606 7.815-4.702 12.038-4.702a.31.31 0 0 1 .31.31.31.31 0 0 1-.31.311c-4.119 0-6.739 1.027-11.676 4.59-5.076 3.657-8.221 9.091-8.221 12.024a.31.31 0 0 1-.311.311ZM138.276 74.736a.31.31 0 0 1-.31-.311c0-3.157 3.171-8.704 8.479-12.534 4.998-3.606 7.807-4.701 12.038-4.701a.31.31 0 0 1 .311.31.31.31 0 0 1-.311.31c-4.119 0-6.738 1.027-11.676 4.59-5.075 3.658-8.221 9.092-8.221 12.025a.31.31 0 0 1-.31.31ZM141.882 80.412a.31.31 0 0 1-.31-.31c0-3.158 3.171-8.705 8.48-12.535 4.998-3.605 7.807-4.701 12.038-4.701a.31.31 0 0 1 .31.31.31.31 0 0 1-.31.311c-4.119 0-6.739 1.027-11.676 4.59-5.076 3.657-8.221 9.091-8.221 12.024a.31.31 0 0 1-.311.31ZM144.565 83.198l5.403 7.945s2.844-7.22 6.868-9.601l-5.36-7.738s-3.093 1.492-4.946 4.123c-1.551 2.2-1.956 5.263-1.956 5.263l-.009.008Z" fill="#7496B8"/><path d="m352.92 92.227-6.659-5.529-29.095 35.119 6.66 5.528 29.094-35.118Z" fill="#C98446"/><path d="m352.914 92.236-2.076-1.724-29.095 35.119 2.077 1.723 29.094-35.118ZM348.329 88.431l-2.076-1.724-29.095 35.119 2.077 1.724 29.094-35.119Z" fill="#A36B39"/><path d="m352.922 92.221-6.661-5.53 6.247-2.492 2.775-1.105-.724 2.795-1.637 6.332Z" fill="#E5C3A5"/><path d="m354.528 85.933-2.043-1.7 2.775-1.113-.732 2.813Z" fill="#877268"/><path d="M317.145 121.835c-.275.561-7.341 6.487-3.257 10.144 4.162 3.736 9.919-4.606 9.919-4.606l-6.662-5.529v-.009Z" fill="#FA9876"/><path d="m53.52 126.687-4.797 7.208 37.93 25.294 4.797-7.208-37.93-25.294Z" fill="#E4AF9C"/><path d="m53.528 126.696-1.496 2.247 37.931 25.294 1.495-2.247-37.93-25.294Z" fill="#FBE8E2"/><path d="m50.225 131.651-1.495 2.247 37.93 25.295 1.496-2.247-37.931-25.295Z" fill="#E4AF9C"/><path d="m53.5 126.674-4.799 7.212-3.137-5.961-1.379-2.639 2.853.422 6.463.966Z" fill="#E5C3A5"/><path d="m47.08 125.742-1.474 2.209-1.396-2.64 2.87.431Z" fill="#877268"/><path d="M86.66 159.204c.586.216 7.204 6.634 10.418 2.183 3.275-4.538-5.618-9.394-5.618-9.394l-4.8 7.211Z" fill="#FCC583"/><path d="M265.302 36.022c-14.563 12.973-15.976 35.238-3.249 49.946l5.981-5.332 4.593-4.088 32.039-28.545 4.593-4.097 5.98-5.322c-13.115-14.363-35.365-15.545-49.937-2.563Zm3.499 34.125c-3.077-8.092-1.06-17.589 5.782-23.68 6.842-6.098 16.502-7.004 24.171-3.001l-29.953 26.69v-.01Z" fill="#DCF8C1"/><path d="M255.525 67.576a.425.425 0 0 1-.422-.353.44.44 0 0 1 .345-.51l3.507-.68a.434.434 0 0 1 .508.344.432.432 0 0 1-.344.51l-3.508.68h-.086v.01ZM296.142 33.839c-.043 0-.086 0-.129-.017a.44.44 0 0 1-.284-.544l1.085-3.407a.44.44 0 0 1 .543-.285c.224.069.353.32.285.543l-1.086 3.408a.435.435 0 0 1-.414.302ZM268.622 41.542a.412.412 0 0 1-.318-.146l-2.939-3.304a.434.434 0 0 1 .646-.578l2.939 3.304a.436.436 0 0 1-.319.724h-.009ZM270.678 78.722a.415.415 0 0 1-.319-.147l-2.05-2.303a.435.435 0 0 1 .034-.613.435.435 0 0 1 .612.035l2.051 2.303a.436.436 0 0 1-.319.725h-.009ZM276.068 73.925a.414.414 0 0 1-.319-.147l-2.051-2.303a.434.434 0 0 1 .646-.578l2.051 2.303a.436.436 0 0 1-.034.613.454.454 0 0 1-.284.112h-.009ZM281.443 69.129a.414.414 0 0 1-.319-.147l-2.051-2.303a.434.434 0 0 1 .646-.578l2.051 2.303a.436.436 0 0 1-.034.613.454.454 0 0 1-.284.112h-.009ZM286.828 64.333a.412.412 0 0 1-.319-.147l-2.051-2.303a.436.436 0 0 1 .034-.612.435.435 0 0 1 .612.034l2.051 2.303a.436.436 0 0 1-.034.613.457.457 0 0 1-.285.112h-.008ZM292.202 59.537a.412.412 0 0 1-.319-.147l-2.051-2.303a.436.436 0 0 1 .034-.613.435.435 0 0 1 .612.035l2.051 2.303a.436.436 0 0 1-.319.725h-.008ZM297.588 54.75a.412.412 0 0 1-.318-.148l-2.051-2.303a.436.436 0 0 1 .034-.612.435.435 0 0 1 .612.034l2.051 2.304a.436.436 0 0 1-.319.724h-.009ZM302.966 49.953a.412.412 0 0 1-.318-.147l-2.051-2.303a.436.436 0 0 1 .034-.613.435.435 0 0 1 .612.035l2.051 2.303a.436.436 0 0 1-.319.725h-.009ZM308.354 45.157a.414.414 0 0 1-.319-.147l-2.051-2.303a.436.436 0 0 1 .035-.613.435.435 0 0 1 .612.035l2.051 2.303a.436.436 0 0 1-.319.725h-.009Z" fill="#A4C5EE"/></g><defs><clipPath id="a"><path fill="#fff" d="M0 0h377v440H0z"/></clipPath></defs></svg>