<svg width="25" height="25" fill="none" xmlns="http://www.w3.org/2000/svg"><path d="M12.5 25C19.404 25 25 19.404 25 12.5S19.404 0 12.5 0 0 5.596 0 12.5 5.596 25 12.5 25Z" fill="#29A71A"/><path d="M18.012 6.989a7.751 7.751 0 0 0-12.418 8.967l-.822 3.993a.295.295 0 0 0 .046.231.3.3 0 0 0 .319.124l3.913-.928A7.75 7.75 0 0 0 18.012 6.99Zm-1.22 9.738A6.071 6.071 0 0 1 9.8 17.863l-.545-.27-2.4.569.007-.03.498-2.415-.267-.527a6.068 6.068 0 1 1 9.698 1.537Z" fill="#fff"/><path d="M16.578 14.956c-.294.463-.758 1.03-1.342 1.17-1.023.248-2.593.009-4.546-1.812l-.024-.021c-1.717-1.593-2.163-2.918-2.055-3.97.06-.596.557-1.135.976-1.488a.558.558 0 0 1 .873.2l.632 1.421a.555.555 0 0 1-.07.568l-.319.415a.549.549 0 0 0-.05.614c.18.313.608.775 1.084 1.203.534.483 1.127.925 1.502 1.075a.543.543 0 0 0 .595-.125l.37-.374a.57.57 0 0 1 .555-.142l1.501.427a.568.568 0 0 1 .318.839Z" fill="#fff"/></svg>