<svg width="161" height="160" fill="none" xmlns="http://www.w3.org/2000/svg"><mask id="a" style="mask-type:alpha" maskUnits="userSpaceOnUse" x="0" y="0" width="161" height="160"><path fill="#D9D9D9" d="M0 0h161v160H0z"/></mask><g mask="url(#a)"><path opacity=".75" d="M97.44 127.341c-.908.392-2.13.58-1.923.245.142-.4-.645-.646-1.324-.999-.679-.354.186-.573-.266-1.025-.452-.452-.937-.612-.86-1.077.078-.464-.343-.56-.73-.947-.452-.452.477-.607.168-1.458-.096-.421-.517-.517-1.12-.687-.55-.225-.765-.656-.213-1.079.553-.423.89-1.278 1.704-2.091.813-.813 6.708-6.192 8.043-7.785 1.334-1.592 3.409-4.829 3.931-5.608.511-.899 5.729-9.99 8.367-16.241 2.637-6.252 5.757-17.117 6.371-22.248.614-5.132 1.277-17.153.522-23.11-.818-6.023-1.123-10.881-3.287-15.43-2.228-4.612-6.508-11.82-8.607-13.593 0 0 .702-.057 2.716 1.414 2.013 1.472 7.716 6.74 10.519 10.52 2.6 3.467 6.852 12.38 7.511 20.628.659 8.247 1.395 16.03-.031 24.685-1.427 8.655-2.17 13.658-5.69 21.954-3.456 8.36-4.194 9.357-4.37 10.048-.175.692-.328.974-.761 1.407-.434.434-.382 1.028-.632 1.536-.315.444-3.503 6.471-8.187 11.543-4.739 5.126-9.58 8.417-11.85 9.398Z" fill="#FFCA42"/><path opacity=".75" d="M33.035 144.892c1.378.945 3.348 2.589 5.601 3.433 2.254.845 8.826 1.888 12.262 1.421 3.435-.467 10.387-2.513 15.621-4.65 5.225-2.256 7.878-4.264 9.383-5.252 1.505-.989 3.345-2.184 4.298-2.749.888-.63 5.784-4.623 7.55-6.001 1.71-1.324 4.462-3.559 5.699-4.925 1.182-1.311 5.972-5.843 6.796-6.538.823-.694 2.958-2.57 3.977-3.719 1.02-1.149 2.703-3.477 3.658-4.69.955-1.213 6.119-7.539 7.11-9.692.937-2.099 1.577-2.868 2.38-3.8.749-.877.981-2.271 1.198-2.488.216-.217 3.066-5.39 3.871-6.97.805-1.579 2.676-7.839 3.512-11.772.901-3.87 1.35-8.19 1.329-11.139-.021-2.948.095-5-1.658-9.571-1.743-4.453-3.622-7.091-5.987-9.89-2.365-2.798-4.825-6.017-7.321-8.297-2.497-2.28-4.683-3.707-5.352-3.942 0 0 10.166 12.551 9.442 26.57-.67 13.965-9.125 30.552-23.891 48.416-14.766 17.864-37.368 28.978-43.516 30.092 0 0-.196.455 1.706-.028 1.957-.537 4.228-1.517 4.228-1.517s-1.257 1.127-5.289 2.191c-4.032 1.063-6.97 1.161-9.27 1.137-2.18-.013-5.04-.38-7.4-1.763-2.295-1.32-5.385-3.651-7.45-5.716-2.065-2.065-3.095-3.746-2.935-3.26.16.485 2.13 4.84 4.686 8.48 2.61 3.585 4.383 5.684 5.762 6.629Zm33.012-3.196c2.627-.949 4.23-2.165 4.956-2.632.725-.467 1.125-.609 1.786-1.141.66-.532.15.366.93-.155.779-.521 1.646-1.388 2.805-2.289 1.159-.901 2.478-1.317 3.725-2.563 1.192-1.193 3.876-2.845 5.404-4.243 1.528-1.399 3.11-2.853 4.368-3.98 1.257-1.128 2.436-1.792 3.575-2.93 1.084-1.084 2.676-2.418 1.786-1.141-.413.671-2.408 2.796-3.438 3.825-.976.976-3.392 3.005-4.27 3.753-.877.749-11.73 9.408-13.765 10.41-2.034 1.001-8.85 4.591-11.868 5.801-2.963 1.157-5.47 1.469-5.47 1.469s6.848-3.234 9.476-4.184Z" fill="#FFCA42"/><path opacity=".75" d="M33.843 145.375c.495.279-3.72-9.574-4.323-13.103-.601-3.529-.006-14.967 1.246-20.219 1.251-5.253 6.88-19.788 7.414-21.097.48-1.254 1.27-1.657 1.608-2.511.338-.855.333.441.834-.576.5-1.017 4.547-8.678 5.417-10.193.87-1.515 4.163-7.003 5.467-8.952C52.809 66.775 63.1 53 67.534 48.436 72.022 43.82 80.377 36.239 83.8 33.59c3.423-2.648 8.337-5.756 12.028-8.027 3.691-2.271 8.067-2.774 10.811-3.066 2.679-.356 5.051.499 7.251 1.398 2.08.888 7.597 4.02 10.114 6.536 0 0-1.165-3.224-4.81-7.194-3.645-3.97-10.747-10.422-15.798-10.92-5.052-.5-13.707.928-21.905 6.931-8.143 5.95-16.315 13.605-17.616 14.906-1.3 1.3-5.247 5.376-6.06 6.19-.813.812-1.291 1.419-1.877 2.134-.586.715-.144 1.048.18.723.326-.326.153-.282.576-.834.424-.552.511-.898.912-1.04.4-.142.562-.305.823-.695.26-.39.488-.487.921-.921.434-.434.326-.325.749-.878.423-.552.973-.327.973-.327s-.25.508-.684.942c-.434.433-2.602 2.602-2.97 3.1a6.213 6.213 0 0 1-1.302 1.3c-.444.315-.813.814-1.138 1.139-.325.325.18.723-.144 1.048-.326.325-.292.033-.726.467-.433.434-.782 1.17-1.161 1.549-.38.38-.276 1.566-.818 2.108-.542.543-.674 1.061-1.105.847-.431-.214-.53.013-.336.207.194.193.646.645.33 1.089-.314.444-.748.877-1.106 1.494-.36.617-1.24 2.014-1.619 2.393-.379.38-.898.511-.898.511s1.172-1.43 1.585-2.1c.413-.672.968-1.743.534-1.31l-1.3 1.301c-.326.326-.563.305-.868.868-.305.562-.274.918-.751 1.525-.477.607-.392.909-.934 1.45l-.976.976c-.217.217-.748.878-1.063 1.322-.315.444-.047.82-.362 1.265-.315.444-1.324 1.711-1.639 2.155-.315.444-.717 1.234-.968 1.742-.25.509-.707 1.353-1.076 1.851-.369.498-.4.142-.996.738s-1.017.5-1.487 1.874c-.47 1.373-.242 1.275-.472 2.021-.23.746-.947 1.98-1.468 2.76-.522.78-.6 1.244-.925 1.569-.325.325-.542.542-.23.746.313.204.246.787-.175.692-.42-.096-.735.348-.735.348-.338.855-.602 1.892-.927 2.217-.325.326-.413.672-.805 1.58-.392.909-.392.909-.707 1.353-.315.444.449 1.1.09 1.716-.358.617-1.086 1.732-1.37 2.532-.284.8-.728 1.115-1.012 1.916-.284.8-.552.423.405-1.438.958-1.861.754-2.174.33-1.621-.423.552-.622 1.654-1.187 2.607-.565.952-.653 1.298-.676 1.709-.023.41.452.451.158 1.133-.295.681-.71 2-1.004 2.682-.294.681-1.033 1.677-1.208 2.37-.176.691-.643 1.416-.764 2.054-.121.638-.34 1.502-.124 1.285.217-.216.534-1.308.872-2.163.339-.854.837-1.223.837-1.223s-.264 1.038-.666 1.827c-.403.79-.307 1.211-.601 1.892-.295.682-.297 1.33-.134 1.167.162-.162.846-1.105.67-.413-.175.692-.523 1.428-.851 2.401-.328.973-.248 2.571-.248 2.571s-.43-.214-.439-.981c-.007-.767.005-1.296-.343-.56-.348.735-.27.271-.48 1.254-.209.984-.614 2.421-.91 3.751-.298 1.329-.46 1.492-.463 2.14-.002.648-.24.627-.002.648.237.02.583-.068.583-.068-.273.919-.049 1.469-.289 2.096-.24.628.142 2.311.031 3.067-.11.756-.418 1.967-.366 2.561.052.593.039 1.123.057 2.008.018.885.486 2.87.602 3.529.116.658.372 1.564.66 2.178.29.615.811 2.546 2.141 4.959.852 3.02 5.886 10.765 8.894 12.146Zm-3.953-41.353c1.094-3.676 2.722-8.66 3.159-9.742.382-1.027 2.544-4.61 3.2-6.556.72-1.882 3.502-6.47 4.351-8.224.85-1.752 6.654-11.558 8.825-14.374 2.17-2.816 8.249-10.83 9.604-12.186 1.3-1.3 2.34-2.212 2.764-2.764.424-.553.989-1.505 1.693-2.21.705-.704.782-1.169 1.324-1.711l1.626-1.626c.597-.596 17.157-16.124 21.104-17.49.627-.24-10.508 8.572-11.386 9.32-.877.75-7.823 6.92-9.55 9.422-1.79 2.437-7.872 8.389-9.088 9.991-1.27 1.657-9.283 13.157-10.249 14.251-.965 1.094-4.003 7.488-5.123 9.512-1.066 1.97-5.706 9.579-7.087 11.992-1.381 2.413-2.468 6.856-3.482 9.419-.96 2.509-3.406 12.313-3.76 14.344-.108.108.991-7.573 2.075-11.368Z" fill="#FFCA42"/><ellipse cx="80.991" cy="84.5" rx="56" ry="55.5" fill="#DFEBFB"/><mask id="b" maskUnits="userSpaceOnUse" x="52.991" y="41" width="55" height="86" fill="#000"><path fill="#fff" d="M52.991 41h55v86h-55z"/><path fill-rule="evenodd" clip-rule="evenodd" d="M55.35 48.115c.94-.532 2.235-.678 3.417-.67-1.476-1.275-2.559-2.957.022-4.082 1.964-.856 4.046-.08 5.799 1.101.194-.248.478-.484.873-.7 2.413-1.325 4.518.9 5.784 2.816.224-.261.563-.429 1.063-.45 1.954-.077 2.526 2.57 2.715 4.052 4.234.177 3.49 4.992 2.549 7.983.585.08 1.114.404 1.44 1.156 1.07 2.463-2.087 5.33-4.304 4.49a12.43 12.43 0 0 1-.766 1.62c-.53.908-1.417 1.686-2.505 2.317l.66 1.28c.498-.02.998-.006 1.496.041.183.02.366.044.547.074.481.073.951.203 1.4.388.309-.041.648-.024.992.03.006-.114.127-2.286 1.7-2.14.654.061 1.243.198 1.882 1.864l.028-.006c1.831-.423 4.398.95 4.398.95s.946 1.58 2.082 3.762l1.584.921-.11.075c.06.012.112.04.152.088.317.384 1.743 2.349 1.789 2.524.006.025.046.152.108.352.368 1.176 1.522 4.864 1.307 5.158-.138.189-.617.65-1.02 1.025.014.187.02.367.016.538 0 0-2.532 1.46-6.99 2.978h-.001c-.011.001-.283.039-.677.082l-.605.073c.295 1.236.507 2.213.59 2.76.46.636.98 1.446 1.313 2.25.713 1.724 7.002 3.758 7.002 3.758s.077.3.082.816l.366.084v.002c-.015.11-.308 2.445.407 3.654l-1.635-.419c-.652 1.238-1.776 2.634-3.688 4.01 0 0-2.892-.663-6.054-2.4a24.334 24.334 0 0 1-1.516-.911c-.275 1.39-.406 2.729-.292 3.882 0 0-1.597 1.718-3.951 2.369l.126 1.27.003.002h.001c.254 2.592.604 6.227.724 8.252v.005l.17-.004.183 2.832a.92.92 0 0 0 .077-.145c.178-.415.424 1.057.52 1.637.017.099.029.171.036.205v.001s-.034.465-.158.857c-.124.393-3.792 2.052-5.691 2.324-1.9.273-2.726-.006-3.15-.292-.34-.229-.335-.883-.124-1.264.019-.276.471-.546 1.003-.864.223-.133.46-.275.685-.429.42-.287.932-.54 1.423-.783l.023-.011-.013-.204c.153-.012.289-.009.408.007.114-.058.224-.115.33-.173l-.016-.205c.132-.012.255-.012.368-.001.104-.066.2-.133.284-.2l-.025-.204c.093-.015.18-.024.264-.029a.708.708 0 0 0 .15-.295c.083-.392-.146-.744-.308-.994-.156-.24-.252-.387.046-.387.182 0 .409.025.639.084l-.13-1.386h.001v-.001l-1.803-8.864-.08-.389-.002-.017-.018-.15v-.025l.006-.16.001-.019.034-.158a7.223 7.223 0 0 1-.975-.465l-.248-.339v-.001c0-.055.006-5.68.095-7.127.048-.78.695-2.7 1.284-4.312a2.672 2.672 0 0 1-.303-.125s-1.557-6.22-2.918-11.158c-.047.143-.096.286-.146.429 0 0-.48.007-1.143-.123l-1.714 5.389a.456.456 0 0 1-.054.114c.151.244-3.522 2.694-4.707 3.475l.013.018s-.121 1.766-.79 2.395a.551.551 0 0 1-.144.097c-.035.231-.336.683-.85.784-.388.076-.561-.13-.632-.267-.393.165-.714-.172-.832-.296l-.005-.006a.109.109 0 0 1-.02-.028c-.454.207-.946.036-1.286-.199-.296-.204-.236-.481-.134-.677-.159.013-.278-.001-.323-.043a1.577 1.577 0 0 0-.15-.111c-.35-.243-1-.694-.317-1.565.674-.859 1.272-1.122 1.448-1.185.154-.462.56-1.04.87-1.24.39-.25 2.097.805 2.361.971l3.498-3.01a.858.858 0 0 1 .151-.097c0-.05.004-.1.014-.15l1.07-5.56a3.747 3.747 0 0 1-.828-1.096l.17-.736c.382-1.615 1.342-5.493 2.237-7.601.174-.995.593-1.928 1.369-2.694a3.94 3.94 0 0 1 .35-.322h.001a5.793 5.793 0 0 1 .826-.557l-.203-.634.002-.001-.08-.253c-2.54.61-5.232.616-6.96-.111h-.003a4.02 4.02 0 0 1-.77-.42c-3.048-2.148-2.417-6.751-2.196-8.244.147-.992.117-4.22.097-6.306l-.006-.644a2.683 2.683 0 0 1-.135-.012s-1.502-.105-2.611-.849c-.816-.546-1.42-1.438-1.063-2.886.183-.736.642-1.246 1.254-1.591Zm24.048 22.483v-.001h.004-.003Zm-1.99-.83c-.27-.082-.549-.152-.825-.198l.225.016s.173-1.895 1.512-1.548c.697.18.986.819 1.102 1.39-.272.052-.57.105-.883.158l-.556.09h.001l-.575.091ZM68.33 75.34v.002c.289.368.504.56.504.56l-.504-.562ZM57.928 95.961l.233-.109s-.003-.068.003-.169l-.032-.012c-.05.088-.117.185-.204.29Zm22.805-.237c2.635 1.213 5.59 1.926 7.666 2.317-2.075-.39-5.032-1.103-7.666-2.317Zm11.844 5.57-.64-.165c-.715-1.21-.422-3.544-.408-3.654v-.002l.49.112 1.53-1.056 3.227-2.23-.018-.027 2.487-1.752a.997.997 0 0 0-.078-.001c-.452.01.791-.826 1.278-1.153a10.53 10.53 0 0 0 .175-.118h.003l.004-.001c.075-.027.466-.162.833-.207.409-.05 3.437 2.605 4.469 4.22 1.034 1.617 1.123 2.484 1.037 2.989-.068.403-.665.669-1.1.635-.26.094-.692-.206-1.2-.558a13.27 13.27 0 0 0-.672-.445c-.436-.263-.881-.627-1.306-.975l-.017-.014-.181.097a1.946 1.946 0 0 1-.163-.375 14.381 14.381 0 0 0-.291-.227l-.18.099a2.102 2.102 0 0 1-.153-.335 3.076 3.076 0 0 0-.301-.176l-.175.107a2.68 2.68 0 0 1-.136-.229.705.705 0 0 0-.329-.014c-.391.087-.617.44-.778.691-.154.242-.249.39-.372.118a2.578 2.578 0 0 1-.15-.441l-.98.732-.15-.233-.002.002-3.753 3-1.991 1.59-.01-.004Z"/></mask><path fill-rule="evenodd" clip-rule="evenodd" d="M55.35 48.115c.94-.532 2.235-.678 3.417-.67-1.476-1.275-2.559-2.957.022-4.082 1.964-.856 4.046-.08 5.799 1.101.194-.248.478-.484.873-.7 2.413-1.325 4.518.9 5.784 2.816.224-.261.563-.429 1.063-.45 1.954-.077 2.526 2.57 2.715 4.052 4.234.177 3.49 4.992 2.549 7.983.585.08 1.114.404 1.44 1.156 1.07 2.463-2.087 5.33-4.304 4.49a12.43 12.43 0 0 1-.766 1.62c-.53.908-1.417 1.686-2.505 2.317l.66 1.28c.498-.02.998-.006 1.496.041.183.02.366.044.547.074.481.073.951.203 1.4.388.309-.041.648-.024.992.03.006-.114.127-2.286 1.7-2.14.654.061 1.243.198 1.882 1.864l.028-.006c1.831-.423 4.398.95 4.398.95s.946 1.58 2.082 3.762l1.584.921-.11.075c.06.012.112.04.152.088.317.384 1.743 2.349 1.789 2.524.006.025.046.152.108.352.368 1.176 1.522 4.864 1.307 5.158-.138.189-.617.65-1.02 1.025.014.187.02.367.016.538 0 0-2.532 1.46-6.99 2.978h-.001c-.011.001-.283.039-.677.082l-.605.073c.295 1.236.507 2.213.59 2.76.46.636.98 1.446 1.313 2.25.713 1.724 7.002 3.758 7.002 3.758s.077.3.082.816l.366.084v.002c-.015.11-.308 2.445.407 3.654l-1.635-.419c-.652 1.238-1.776 2.634-3.688 4.01 0 0-2.892-.663-6.054-2.4a24.334 24.334 0 0 1-1.516-.911c-.275 1.39-.406 2.729-.292 3.882 0 0-1.597 1.718-3.951 2.369l.126 1.27.003.002h.001c.254 2.592.604 6.227.724 8.252v.005l.17-.004.183 2.832a.92.92 0 0 0 .077-.145c.178-.415.424 1.057.52 1.637.017.099.029.171.036.205v.001s-.034.465-.158.857c-.124.393-3.792 2.052-5.691 2.324-1.9.273-2.726-.006-3.15-.292-.34-.229-.335-.883-.124-1.264.019-.276.471-.546 1.003-.864.223-.133.46-.275.685-.429.42-.287.932-.54 1.423-.783l.023-.011-.013-.204c.153-.012.289-.009.408.007.114-.058.224-.115.33-.173l-.016-.205c.132-.012.255-.012.368-.001.104-.066.2-.133.284-.2l-.025-.204c.093-.015.18-.024.264-.029a.708.708 0 0 0 .15-.295c.083-.392-.146-.744-.308-.994-.156-.24-.252-.387.046-.387.182 0 .409.025.639.084l-.13-1.386h.001v-.001l-1.803-8.864-.08-.389-.002-.017-.018-.15v-.025l.006-.16.001-.019.034-.158a7.223 7.223 0 0 1-.975-.465l-.248-.339v-.001c0-.055.006-5.68.095-7.127.048-.78.695-2.7 1.284-4.312a2.672 2.672 0 0 1-.303-.125s-1.557-6.22-2.918-11.158c-.047.143-.096.286-.146.429 0 0-.48.007-1.143-.123l-1.714 5.389a.456.456 0 0 1-.054.114c.151.244-3.522 2.694-4.707 3.475l.013.018s-.121 1.766-.79 2.395a.551.551 0 0 1-.144.097c-.035.231-.336.683-.85.784-.388.076-.561-.13-.632-.267-.393.165-.714-.172-.832-.296l-.005-.006a.109.109 0 0 1-.02-.028c-.454.207-.946.036-1.286-.199-.296-.204-.236-.481-.134-.677-.159.013-.278-.001-.323-.043a1.577 1.577 0 0 0-.15-.111c-.35-.243-1-.694-.317-1.565.674-.859 1.272-1.122 1.448-1.185.154-.462.56-1.04.87-1.24.39-.25 2.097.805 2.361.971l3.498-3.01a.858.858 0 0 1 .151-.097c0-.05.004-.1.014-.15l1.07-5.56a3.747 3.747 0 0 1-.828-1.096l.17-.736c.382-1.615 1.342-5.493 2.237-7.601.174-.995.593-1.928 1.369-2.694a3.94 3.94 0 0 1 .35-.322h.001a5.793 5.793 0 0 1 .826-.557l-.203-.634.002-.001-.08-.253c-2.54.61-5.232.616-6.96-.111h-.003a4.02 4.02 0 0 1-.77-.42c-3.048-2.148-2.417-6.751-2.196-8.244.147-.992.117-4.22.097-6.306l-.006-.644a2.683 2.683 0 0 1-.135-.012s-1.502-.105-2.611-.849c-.816-.546-1.42-1.438-1.063-2.886.183-.736.642-1.246 1.254-1.591Zm24.048 22.483v-.001h.004-.003Zm-1.99-.83c-.27-.082-.549-.152-.825-.198l.225.016s.173-1.895 1.512-1.548c.697.18.986.819 1.102 1.39-.272.052-.57.105-.883.158l-.556.09h.001l-.575.091ZM68.33 75.34v.002c.289.368.504.56.504.56l-.504-.562ZM57.928 95.961l.233-.109s-.003-.068.003-.169l-.032-.012c-.05.088-.117.185-.204.29Zm22.805-.237c2.635 1.213 5.59 1.926 7.666 2.317-2.075-.39-5.032-1.103-7.666-2.317Zm11.844 5.57-.64-.165c-.715-1.21-.422-3.544-.408-3.654v-.002l.49.112 1.53-1.056 3.227-2.23-.018-.027 2.487-1.752a.997.997 0 0 0-.078-.001c-.452.01.791-.826 1.278-1.153a10.53 10.53 0 0 0 .175-.118h.003l.004-.001c.075-.027.466-.162.833-.207.409-.05 3.437 2.605 4.469 4.22 1.034 1.617 1.123 2.484 1.037 2.989-.068.403-.665.669-1.1.635-.26.094-.692-.206-1.2-.558a13.27 13.27 0 0 0-.672-.445c-.436-.263-.881-.627-1.306-.975l-.017-.014-.181.097a1.946 1.946 0 0 1-.163-.375 14.381 14.381 0 0 0-.291-.227l-.18.099a2.102 2.102 0 0 1-.153-.335 3.076 3.076 0 0 0-.301-.176l-.175.107a2.68 2.68 0 0 1-.136-.229.705.705 0 0 0-.329-.014c-.391.087-.617.44-.778.691-.154.242-.249.39-.372.118a2.578 2.578 0 0 1-.15-.441l-.98.732-.15-.233-.002.002-3.753 3-1.991 1.59-.01-.004Z" fill="#fff"/><path d="m69.206 75.567-.504-.56-.744.668.505.56.743-.668ZM58.767 47.445l-.007 1a1 1 0 0 0 .66-1.757l-.653.757Zm-3.417.67-.992.117a1 1 0 0 0 1.485.753l-.493-.87Zm3.439-4.752.4.917-.4-.917Zm5.799 1.101-.56.83a1 1 0 0 0 1.347-.213l-.787-.617Zm.873-.7.481.876-.48-.877Zm5.784 2.816-.835.551a1 1 0 0 0 1.594.1l-.76-.65Zm1.063-.45-.04-.998.04.999Zm2.715 4.052-.992.127a1 1 0 0 0 .95.872l.042-.999Zm2.549 7.983-.954-.3a1 1 0 0 0 .817 1.29l.137-.99Zm1.44 1.156-.917.398.917-.398Zm-4.304 4.49.354-.934a1 1 0 0 0-1.283.565l.929.37Zm-.766 1.62-.863-.504.863.505Zm-2.505 2.317-.502-.865a1 1 0 0 0-.387 1.323l.888-.458Zm.66 1.28-.89.458a1 1 0 0 0 .928.54l-.039-.998Zm1.496.041.105-.994-.011-.001-.094.995Zm.547.074.993.12a1 1 0 0 0-.828-1.106l-.165.986Zm0 0-.992-.12a1 1 0 0 0 .844 1.11l.148-.99Zm1.4.388-.38.924a1 1 0 0 0 .512.067l-.132-.991Zm.992.03-.156.988a1 1 0 0 0 1.155-.941l-.999-.046Zm1.7-2.14.095-.996h-.002l-.093.996Zm1.882 1.864-.934.359a1 1 0 0 0 1.158.616l-.224-.975Zm.028-.006.225.974-.225-.974Zm4.398.95.165.986a1 1 0 0 0 .306-1.868l-.471.882Zm0 0-.166-.986a1 1 0 0 0-.693 1.5l.858-.514Zm2.082 3.762-.887.462a1 1 0 0 0 1.248.47l-.361-.932Zm0 0 .503-.864a1 1 0 0 0-.865-.068l.362.932Zm1.584.921.562.828a1 1 0 0 0-.06-1.692l-.502.864Zm-.11.075-.562-.827a1 1 0 0 0 .364 1.807l.198-.98Zm.152.088-.772.636.002.002.77-.638Zm1.789 2.524.969-.246-.002-.006-.967.252Zm.108.352-.954.299.001.004.953-.303Zm0 0 .955-.298-.002-.005-.953.303Zm1.307 5.158-.807-.59-.002.001.809.589Zm-1.02 1.025-.682-.731a1 1 0 0 0-.315.806l.997-.075Zm.016.538.5.867a1 1 0 0 0 .5-.847l-1-.02Zm-6.99 2.978.285.958a.931.931 0 0 0 .037-.012l-.323-.946Zm0 0 .11.994c.06-.007.118-.019.175-.036l-.286-.958Zm-.001 0-.111-.994-.02.002.13.992Zm0 0-.131-.992-.006.001.136.99Zm-.677.082-.11-.994-.01.001.12.993Zm-.605.073-.12-.992a1 1 0 0 0-.853 1.224l.973-.232Zm.59 2.76-.988.152a.999.999 0 0 0 .178.435l.81-.586Zm1.313 2.25.924-.382-.924.382Zm7.002 3.758.968-.248a1 1 0 0 0-.66-.703l-.308.951Zm.082.816-1 .01a1 1 0 0 0 .775.964l.225-.974Zm.366.084.992.125a1 1 0 0 0-.767-1.099l-.225.974Zm0 .002-.993-.125.992.125Zm.407 3.654-.248.968a.998.998 0 0 0 1.109-1.477l-.861.509Zm-1.635-.419.249-.969a1 1 0 0 0-1.133.503l.884.466Zm-3.688 4.01-.223.974c.28.065.574.005.807-.163l-.584-.811Zm-6.054-2.4-.482.876.482-.876Zm-1.516-.911.543-.839a1 1 0 0 0-1.524.645l.98.194Zm-.292 3.882.732.681a1 1 0 0 0 .263-.779l-.995.098Zm-3.951 2.369-.267-.963a1 1 0 0 0-.728 1.064l.995-.101Zm.126 1.27-.995.096a1 1 0 0 0 .49.767l.505-.863Zm.003.002-.505.863c.08.046.165.082.254.105l.251-.968Zm.001 0 .995-.097a1 1 0 0 0-.744-.871l-.251.968Zm.724 8.252.998-.059-.998.059Zm0 .005-.998.059a1 1 0 0 0 1.024.941l-.026-1Zm.17-.004.998-.065a1 1 0 0 0-1.024-.935l.026 1Zm.183 2.832-.998.064a1 1 0 0 0 1.837.479l-.84-.543Zm.077-.145-.92-.394.92.394Zm.52 1.637.987-.164-.987.164Zm.036.205.986-.165-.006-.034-.98.199Zm0 .001-.987.164c.046.273.202.514.432.668l.555-.832Zm0 0 .998.075a1 1 0 0 0-.443-.907l-.555.832Zm-.158.857.953.302v-.002l-.953-.3Zm-5.691 2.324-.142-.99.142.99Zm-3.15-.292.56-.829-.002-.001-.558.83Zm-.124-1.264.875.482a1 1 0 0 0 .122-.412l-.998-.07Zm1.003-.864.513.859-.513-.859Zm.685-.429.565.825-.565-.825Zm1.423-.783-.371-.928a.668.668 0 0 0-.072.032l.443.896Zm0 0 .372.929a1.65 1.65 0 0 0 .071-.032l-.443-.897Zm.023-.011.443.896a1 1 0 0 0 .555-.964l-.998.068Zm-.013-.204-.078-.997a1 1 0 0 0-.92 1.064l.998-.067Zm.408.007-.127.992c.2.025.401-.01.58-.101l-.453-.891Zm.33-.173.478.878a1 1 0 0 0 .519-.951l-.998.073Zm-.016-.205-.09-.996a1 1 0 0 0-.907 1.069l.997-.073Zm.368-.001-.093.996c.22.02.442-.033.629-.152l-.536-.844Zm.284-.2.626.779a.999.999 0 0 0 .367-.902l-.993.123Zm-.025-.204-.152-.989a1.001 1.001 0 0 0-.84 1.112l.992-.123Zm.264-.029.058.999c.282-.017.544-.152.722-.373l-.78-.626Zm.15-.295-.979-.208v.002l.979.206Zm-.308-.994-.839.544.839-.544Zm.685-.303-.248.968a.997.997 0 0 0 1.244-1.061l-.996.093Zm-.13-1.386-.03-.999a1.001 1.001 0 0 0-.965 1.092l.996-.093Zm.001 0 .031 1a.998.998 0 0 0 .949-1.2l-.98.2Zm0-.001-.98.2v.001l.98-.201Zm-1.803-8.864-.31-.95a1 1 0 0 0-.67 1.15l.98-.2Zm0 0 .31.951a1 1 0 0 0 .67-1.15l-.98.199Zm-.08-.389-.99.141.01.058.98-.199Zm-.002-.017-.993.119.003.023.99-.142Zm-.018-.15-.999.048a.97.97 0 0 0 .007.072l.992-.12Zm0-.025-1-.044v.092l1-.048Zm.006-.16-.998-.063v.018l.998.045Zm.001-.019-.978-.208a.983.983 0 0 0-.02.145l.998.063Zm.034-.158.978.208a1 1 0 0 0-.618-1.141l-.36.933Zm-.975-.465-.807.59a.992.992 0 0 0 .31.277l.498-.867Zm-.248-.339h-1c0 .212.068.419.193.59l.808-.59Zm0-.001-1-.001v.001h1Zm.095-7.127-.998-.062.998.062Zm1.284-4.312.939.343a1 1 0 0 0-.613-1.288l-.326.945Zm-.303-.125-.97.243a1 1 0 0 0 .53.655l.44-.898Zm-2.918-11.158.965-.266a1 1 0 0 0-1.914-.048l.95.314Zm-.146.429.014 1a1 1 0 0 0 .93-.668l-.944-.332Zm-1.143-.123.192-.981a1 1 0 0 0-1.145.678l.953.303Zm-1.714 5.389-.953-.303v.002l.953.3Zm-.054.114-.834-.553a1 1 0 0 0-.015 1.081l.849-.528Zm-4.707 3.475-.55-.834a1 1 0 0 0-.26 1.422l.81-.588Zm.013.018.998.069a1 1 0 0 0-.189-.656l-.809.587Zm-.79 2.395.682.73h.002l-.685-.73Zm-.144.097-.425-.905a1 1 0 0 0-.564.754l.989.151Zm-.85.784-.194-.981.193.98Zm-.632-.267.89-.457a1 1 0 0 0-1.277-.465l.387.922Zm-.832-.296.725-.69-.725.69Zm-.005-.006.724-.69-.724.69Zm-.02-.028.9-.438a1 1 0 0 0-1.313-.472l.413.91Zm-1.286-.199.568-.822-.568.822Zm-.134-.677.887.462a1 1 0 0 0-.968-1.459l.081.997Zm-.323-.043.677-.736-.002-.001-.675.737Zm-.15-.111-.57.822.57-.822Zm-.317-1.565-.787-.617.787.617Zm1.448-1.185.336.942a1 1 0 0 0 .612-.625l-.948-.317Zm.87-1.24-.54-.841.54.841Zm2.361.971-.532.847a1 1 0 0 0 1.184-.089l-.652-.758Zm3.498-3.01-.63-.776a.964.964 0 0 0-.023.018l.653.758Zm.151-.097.454.891a1 1 0 0 0 .546-.901l-1 .01Zm.014-.15.981.192v-.003l-.981-.189Zm1.07-5.56.983.19a1 1 0 0 0-.307-.928l-.675.738Zm-.828-1.096-.975-.22a1 1 0 0 0 .08.668l.895-.448Zm.17-.736.974.228a1 1 0 0 0-.155-.802l-.819.574Zm0 0-.973-.23a1 1 0 0 0 .154.803l.82-.573Zm2.237-7.601.92.391c.03-.07.052-.143.065-.218l-.985-.173Zm1.369-2.694 1 .013a1 1 0 0 0-1.703-.724l.703.711Zm.018.604-.998.072a1 1 0 0 0 1.995-.144l-.997.072Zm-.018-.604-.72-.694a1 1 0 0 0-.28.68l1 .014Zm.35-.322.632.776c.063-.052.12-.111.17-.177l-.801-.599Zm.001 0-.632-.775a1 1 0 0 0-.169.176l.801.599Zm.185-.144.597.802-.597-.802Zm.64-.413.487.874a1 1 0 0 0 .466-1.178l-.952.304Zm-.202-.634-.514-.858a1 1 0 0 0-.438 1.162l.952-.304Zm.002-.001.515.857a1 1 0 0 0 .438-1.16l-.953.303Zm-.08-.253.953-.303a1 1 0 0 0-1.186-.669l.233.972Zm-6.96-.111.388-.922a1.004 1.004 0 0 0-.28-.072l-.108.994Zm-.003 0-.388.921a1 1 0 0 0 .28.073l.108-.994Zm-.77-.42.578-.816-.003-.001-.576.817Zm-2.196-8.244.99.147v-.001l-.99-.146Zm.097-6.306 1-.01-1 .01Zm0 0 1-.01v-.006l-1 .016Zm0 0-1 .009v.006l1-.015Zm-.006-.644 1-.008a1 1 0 0 0-.93-.99l-.07.998Zm-.135-.012.12-.993a1.012 1.012 0 0 0-.098-.007l-.022 1Zm0 0-.07.997.047.002.022-1Zm-2.611-.849.557-.83-.557.83Zm-1.063-2.886-.97-.242-.001.003.971.239Zm1.254-1.591.993-.118a1 1 0 0 0-1.484-.753l.491.87ZM79.4 70.597l.886.463a1 1 0 0 0-.403-1.338l-.483.875Zm0 0-.887-.462a1 1 0 0 0 .823 1.46l.063-.997Zm0 0 .05-.999a1 1 0 0 0-.534 1.874l.483-.875Zm0 0-.05.998a1 1 0 0 0 .122 0l-.072-.998Zm.003 0 .449.893a1 1 0 0 0-.52-1.89l.071.997Zm-.003 0-.063.999a1 1 0 0 0 .512-.105l-.449-.893Zm-2.816-1.027.07-.998a1 1 0 0 0-.236 1.984l.166-.986Zm.826.197-.289.958a1 1 0 0 0 .44.03l-.151-.988Zm-.601-.181-.07.997a1 1 0 0 0 1.066-.906l-.996-.091Zm1.512-1.548-.25.968.25-.968Zm1.102 1.39.187.983a1 1 0 0 0 .793-1.182l-.98.2Zm-.883.158.161.987.005-.001-.166-.986Zm-.556.09-.161-.986a1 1 0 0 0-.061 1.962l.222-.975Zm.001 0 .158.988a1 1 0 0 0 .064-1.962l-.222.975Zm-9.654 5.666-.963.267a1 1 0 0 0 .176.35l.787-.617Zm0-.002.743-.668a1 1 0 0 0-1.707.936l.964-.268Zm.504.562-.668.745a1 1 0 0 0 1.164.123l-.496-.868Zm0 0 .497.868a1 1 0 0 0 .247-1.537l-.744.668Zm-10.673 19.95.423.907a1 1 0 0 0 .576-.952l-.999.045Zm-.233.11-.769-.64a1 1 0 0 0 1.19 1.546l-.421-.907Zm.236-.279.998.057a1 1 0 0 0-.628-.985l-.37.928Zm-.032-.012.37-.93a1 1 0 0 0-1.24.436l.87.494Zm30.267 2.37.994.115a1 1 0 0 0-.809-1.098l-.185.983Zm-7.666-2.317.418-.909a1 1 0 0 0-1.354.556l.936.353Zm7.666 2.317-.185.983a1 1 0 0 0 1.179-.868l-.994-.115Zm-7.666-2.317-.936-.352a1 1 0 0 0 .517 1.26l.419-.908Zm11.204 5.405-.861.508a.997.997 0 0 0 .61.46l.25-.968Zm.64.165.39-.921a1.162 1.162 0 0 0-.14-.048l-.25.969Zm-1.048-3.819-.992-.125.992.125Zm0-.002.222-.975a1 1 0 0 0-1.214.85l.992.125Zm.49.112-.222.975a1 1 0 0 0 .79-.152l-.568-.823Zm1.53-1.056.568.823-.568-.823Zm3.227-2.23.568.823a1 1 0 0 0 .272-1.365l-.84.542Zm-.018-.027-.576-.818a1 1 0 0 0-.264 1.36l.84-.542Zm2.487-1.752.576.818a1.001 1.001 0 0 0-.516-1.816l-.06.998Zm-.078-.001-.02-1 .02 1Zm1.278-1.153.558.83.007-.005-.565-.825Zm0 0-.557-.83-.008.005.565.825Zm.17-.116-.586-.81.586.81Zm.005-.002-.213-.977c-.022.004-.044.01-.066.016l.279.96Zm.003 0-.087-.997c-.042.004-.084.01-.126.019l.213.977Zm.004-.001.087.996c.085-.007.169-.026.25-.055l-.337-.941Zm.833-.207.12.993h.003l-.123-.993Zm4.469 4.22-.842.54.842-.54Zm1.037 2.989-.986-.17v.004l.986.166Zm-1.1.635.076-.997a.998.998 0 0 0-.415.056l.339.941Zm-1.2-.558.57-.822-.015-.01-.555.832Zm0 0-.581.814.027.019.554-.833Zm0 0 .582-.813-.012-.009-.57.822Zm-.672-.445.517-.856h-.001l-.516.856Zm-1.306-.975-.707.708a.895.895 0 0 0 .074.067l.633-.775Zm0 0 .707-.707a1.041 1.041 0 0 0-.074-.067l-.633.774Zm-.017-.014.633-.774a1 1 0 0 0-1.105-.107l.472.882Zm-.181.097-.876.483a1 1 0 0 0 1.347.399l-.471-.882Zm-.163-.375.956-.294a1.001 1.001 0 0 0-.332-.488l-.624.782Zm-.291-.227.601-.799a1 1 0 0 0-1.082-.078l.481.877Zm-.18.099-.87.494a1 1 0 0 0 1.351.383l-.481-.877Zm-.153-.335.945-.328a1.002 1.002 0 0 0-.397-.508l-.548.836Zm-.301-.176.452-.892a.999.999 0 0 0-.973.039l.521.853Zm-.175.107-.837.548a1 1 0 0 0 1.359.305l-.522-.853Zm-.136-.229.885-.466a.998.998 0 0 0-.637-.503l-.248.97Zm-.329-.014.217.976h.001l-.218-.976Zm-.778.691.843.54-.843-.54Zm-.372.118.911-.413-.001-.001-.91.414Zm-.15-.441.971-.239a1 1 0 0 0-1.57-.562l.599.801Zm-.98.732-.84.543a1 1 0 0 0 1.438.258l-.598-.801Zm-.15-.233.84-.543a1 1 0 0 0-1.465-.237l.625.78Zm-.002.002.624.78-.624-.78Zm-3.753 3 .624.781-.624-.781Zm-1.991 1.59-.39.92a1 1 0 0 0 1.014-.139l-.624-.781ZM58.775 46.445c-1.227-.009-2.742.134-3.917.8l.985 1.74c.703-.398 1.778-.548 2.917-.54l.015-2Zm-.386-3.998c-.738.321-1.333.732-1.715 1.27a2.332 2.332 0 0 0-.4 1.812c.105.572.394 1.081.714 1.503.325.429.724.824 1.126 1.17l1.307-1.514a5.904 5.904 0 0 1-.84-.864c-.217-.288-.313-.508-.34-.657a.338.338 0 0 1 .064-.292c.094-.133.331-.354.883-.595l-.799-1.834Zm6.758 1.188c-1.834-1.235-4.308-2.257-6.758-1.188l.8 1.833c1.477-.645 3.167-.114 4.84 1.014l1.118-1.659Zm-.167-.748c-.484.265-.883.582-1.18.961l1.575 1.233c.092-.118.26-.273.567-.44l-.962-1.754Zm7.1 3.142c-.66-1-1.596-2.172-2.758-2.915-1.212-.774-2.737-1.108-4.342-.227l.962 1.753c.808-.443 1.542-.327 2.303.16.81.517 1.56 1.415 2.165 2.331l1.67-1.102Zm.188-.897c-.722.03-1.344.286-1.782.797l1.518 1.302a.184.184 0 0 1 .071-.05.764.764 0 0 1 .274-.05l-.081-2Zm3.747 4.924c-.098-.768-.304-1.935-.79-2.925-.486-.991-1.4-2.061-2.956-2l.08 2c.397-.017.746.198 1.08.881.337.685.51 1.582.602 2.297l1.984-.253Zm2.51 8.409c.482-1.53.961-3.658.703-5.486-.131-.93-.465-1.87-1.173-2.594-.724-.74-1.732-1.15-2.99-1.202l-.084 1.998c.858.036 1.345.296 1.643.601.314.322.53.807.624 1.476.193 1.37-.17 3.145-.63 4.607l1.908.6Zm1.405.458c-.469-1.08-1.299-1.621-2.222-1.749l-.273 1.982c.151.02.263.067.353.135.09.067.203.189.307.428l1.835-.796Zm-5.576 5.824c1.612.61 3.353-.158 4.44-1.23 1.105-1.09 1.894-2.847 1.136-4.594l-1.835.796c.31.716.056 1.623-.705 2.373-.778.768-1.724 1.013-2.328.785l-.708 1.87Zm.451 1.19c.276-.472.561-1.076.832-1.755l-1.858-.74a11.45 11.45 0 0 1-.7 1.485l1.726 1.01Zm-2.867 2.676c1.18-.684 2.223-1.572 2.868-2.678l-1.728-1.007c-.413.708-1.147 1.377-2.143 1.955l1.003 1.73Zm1.047-.043-.66-1.28-1.777.916.66 1.28 1.777-.916Zm.702-.496a12.296 12.296 0 0 0-1.63-.046l.078 1.999c.454-.018.91-.005 1.364.038l.188-1.991Zm.618.083a10.239 10.239 0 0 0-.608-.082l-.209 1.989c.163.017.326.039.488.066l.329-1.973Zm.828 1.107-1.985-.24 1.985.24Zm.787-.658a7.04 7.04 0 0 0-1.63-.451l-.299 1.977c.402.06.794.17 1.168.323l.761-1.849Zm.769-.032a4.481 4.481 0 0 0-1.281-.034l.264 1.982a2.51 2.51 0 0 1 .704.027l.313-1.975Zm1.636-2.15c-.649-.06-1.208.124-1.644.47-.41.326-.656.752-.808 1.11a4.761 4.761 0 0 0-.34 1.512l1.998.092.007-.08a2.92 2.92 0 0 1 .027-.204c.029-.17.077-.367.15-.542.077-.18.155-.277.21-.322.03-.023.077-.057.215-.044l.185-1.991Zm2.722 2.503c-.344-.897-.73-1.54-1.24-1.953-.547-.443-1.108-.514-1.48-.549l-.189 1.991c.28.027.34.055.41.112.109.088.337.346.632 1.116l1.867-.717Zm-1.13-.623-.028.007.45 1.949.028-.007-.45-1.949Zm4.623 1.925.47-.882-.004-.002-.008-.005-.028-.015a10.837 10.837 0 0 0-.447-.215 12.364 12.364 0 0 0-1.18-.463c-.906-.303-2.228-.62-3.426-.343l.45 1.95c.634-.147 1.51.012 2.344.29a10.397 10.397 0 0 1 1.34.558l.015.008.003.001.47-.882Zm.165.986-.33-1.972h-.001l.33 1.972Zm2.804 2.315a87.175 87.175 0 0 0-2.067-3.739l-.033-.056-.009-.014a.2.2 0 0 1-.002-.004v-.002h-.001l-.858.514-.858.514.002.004a5.651 5.651 0 0 0 .039.064l.12.203c.104.18.256.441.443.77.374.66.888 1.59 1.45 2.669l1.774-.923Zm-1.249-.471.723 1.865-.723-1.865Zm2.449.99-1.584-.922-1.006 1.729 1.584.92 1.006-1.728Zm-.051 1.765.11-.074-1.124-1.655-.11.075 1.124 1.654Zm.362-1.374a1.256 1.256 0 0 0-.726-.433l-.396 1.96a.745.745 0 0 1-.422-.256l1.544-1.271Zm1.984 2.907c-.037-.143-.102-.258-.112-.277a2.854 2.854 0 0 0-.081-.14 9.406 9.406 0 0 0-.2-.305c-.152-.226-.35-.508-.554-.792a35.375 35.375 0 0 0-1.039-1.395l-1.54 1.275c.132.16.548.719.953 1.285.199.276.385.542.523.746a7.458 7.458 0 0 1 .173.267l.006.01-.004-.007a.857.857 0 0 1-.06-.163l1.935-.504Zm.096.306-.075-.24-.02-.065-.004-.013.005.018-1.939.491c.016.061.07.234.124.406l1.909-.597Zm-.002-.005-1.906.606 1.906-.606Zm1.16 6.051c.19-.258.21-.534.216-.608.009-.12.003-.237-.006-.329a5.696 5.696 0 0 0-.099-.62c-.09-.439-.233-.99-.388-1.55a100.909 100.909 0 0 0-.881-2.94l-1.909.598c.184.589.56 1.79.863 2.879.152.546.28 1.046.357 1.417.039.19.059.319.065.394.004.04 0 .034.003 0a.89.89 0 0 1 .165-.422L92.26 83.7Zm-1.144 1.166c.205-.19.434-.407.631-.603.176-.175.39-.394.515-.564l-1.617-1.178c.003-.004-.018.024-.083.094-.059.062-.134.14-.223.227-.177.176-.389.377-.587.562l1.364 1.462Zm.334-.173a6.7 6.7 0 0 0-.019-.633l-1.994.15c.012.16.016.308.014.444l2 .04Zm-7.668 3.904a53.033 53.033 0 0 0 5.267-2.098 34.448 34.448 0 0 0 1.766-.884l.096-.053.027-.015.008-.005.002-.001h.001l-.499-.868-.499-.866-.003.002-.018.01a32.283 32.283 0 0 1-1.726.868 51.06 51.06 0 0 1-5.067 2.017l.645 1.893Zm-.037.012-.571-1.917.57 1.917Zm-.175.036-.222-1.988.222 1.988Zm.019-.003-.26-1.983h-.001l.261 1.983Zm-.698.085c.406-.045.687-.083.704-.085l-.273-1.982c-.004 0-.267.037-.65.079l.219 1.988Zm-.593.072.604-.073-.24-1.986-.605.074.24 1.985Zm1.458 1.617c-.09-.594-.312-1.609-.606-2.842l-1.945.464c.295 1.239.498 2.178.574 2.68l1.977-.302Zm1.248 2.017c-.376-.908-.947-1.79-1.426-2.452l-1.62 1.172c.44.61.908 1.346 1.198 2.046l1.848-.766Zm6.078 4.141.308-.95v-.001h-.003l-.012-.005-.05-.016a28.02 28.02 0 0 1-.896-.313 37.871 37.871 0 0 1-2.181-.864c-.811-.353-1.613-.746-2.242-1.141a5.246 5.246 0 0 1-.744-.548c-.19-.174-.248-.278-.258-.302l-1.848.764c.168.407.462.744.753 1.01.3.277.659.534 1.034.77.75.47 1.655.91 2.506 1.28a39.84 39.84 0 0 0 3.304 1.261l.015.005a.102.102 0 0 0 .006.002l.308-.952Zm1.082.805a5.618 5.618 0 0 0-.09-.948 3.32 3.32 0 0 0-.02-.09l-.002-.008v-.004l-.001-.001v-.001l-.97.248-.968.248v-.002l-.001-.003-.001-.004v-.002a1.921 1.921 0 0 1 .02.118c.014.1.031.26.033.47l2-.021Zm-.41-.879-.364-.084-.451 1.948.365.085.45-1.949Zm.767 1.102v-.003l-1.984-.25v.002l1.984.25Zm.277 3.019c-.217-.366-.324-1.024-.338-1.75-.013-.678.057-1.234.061-1.27l-1.984-.25c-.01.075-.093.74-.077 1.559.015.772.118 1.885.616 2.729l1.722-1.018Zm-2.744 1.058 1.635.419.496-1.937-1.634-.419-.497 1.937Zm-2.856 3.853c2.025-1.456 3.257-2.966 3.99-4.355l-1.77-.932c-.574 1.088-1.589 2.37-3.388 3.664l1.168 1.623Zm-7.12-2.335a27.989 27.989 0 0 0 5.767 2.356 14.608 14.608 0 0 0 .502.132l.03.007.01.002a.004.004 0 0 0 .002.001h.001l.224-.974.224-.975-.004-.001-.02-.005a12.976 12.976 0 0 1-.434-.113 26.012 26.012 0 0 1-5.34-2.183l-.962 1.753Zm-1.578-.948c.522.339 1.052.659 1.578.948l.964-1.753a23.365 23.365 0 0 1-1.455-.873l-1.087 1.678Zm1.247 2.945c-.1-1.017.012-2.249.278-3.59l-1.962-.388c-.285 1.439-.434 2.885-.307 4.174l1.99-.196Zm-4.68 3.431c1.333-.369 2.43-1.032 3.185-1.587a10.822 10.822 0 0 0 1.133-.964c.03-.028.052-.052.068-.069a.321.321 0 0 0 .02-.021l.007-.007.002-.002.001-.001v-.001l-.731-.681-.733-.681.001-.001v-.001.001l-.007.008-.042.042a8.631 8.631 0 0 1-.905.767c-.633.466-1.51.988-2.532 1.271l.533 1.927Zm.855.209a295 295 0 0 0-.127-1.273l-1.99.201c.04.379.082.805.127 1.265l1.99-.193Zm-.486-.764-.004-.002-1.01 1.726.003.002 1.01-1.726Zm-.254-.105-.503 1.936h.001l.502-1.936Zm1.471 9.161c-.121-2.049-.474-5.706-.727-8.29l-1.99.195c.255 2.599.602 6.212.72 8.213l1.997-.118Zm0 .006v-.006l-1.997.117v.006l1.997-.117Zm-.854-.946-.17.005.052 1.999.17-.004-.052-2Zm1.207 3.767-.184-2.832-1.995.129.183 2.832 1.996-.129Zm-1.84-.474.002-.005 1.68 1.087c.057-.09.11-.188.156-.294l-1.838-.788Zm2.426 1.867c-.047-.281-.139-.834-.246-1.267-.045-.183-.121-.473-.246-.695a1.233 1.233 0 0 0-.205-.273 1.044 1.044 0 0 0-1.493.008 1.176 1.176 0 0 0-.236.36l1.838.788a.83.83 0 0 1-.17.248.954.954 0 0 1-1.348.015.776.776 0 0 1-.131-.17c-.025-.045-.001-.008.05.198.084.344.164.817.214 1.117l1.973-.329Zm.029.17-.009-.048a21.358 21.358 0 0 1-.02-.122l-1.973.329c.014.086.03.183.042.239l1.96-.398Zm.006.035v-.001l-1.973.329v.001l1.973-.329Zm-.431-.667-1.11 1.664 1.11-1.664Zm.24 1.989c.085-.268.134-.541.162-.731a6.394 6.394 0 0 0 .038-.317l.002-.023a.165.165 0 0 0 0-.01v-.001l-.997-.075-.997-.075v-.001c0-.001 0 0 0 0v.009l-.005.042c-.004.039-.01.095-.02.162-.02.141-.05.296-.09.419l1.908.601Zm-6.502 3.014c1.083-.155 2.573-.681 3.76-1.187a18.262 18.262 0 0 0 1.596-.76c.212-.117.413-.237.575-.354.08-.058.173-.13.258-.215.06-.059.23-.23.313-.496l-1.906-.605a.857.857 0 0 1 .122-.244c.03-.042.055-.067.064-.076.017-.017.016-.013-.02.013-.069.05-.19.126-.37.224-.353.194-.85.433-1.415.673-1.152.491-2.445.93-3.26 1.047l.283 1.98Zm-3.852-.453c.718.484 1.836.743 3.852.453l-.284-1.98c-1.784.257-2.317-.043-2.448-.131l-1.12 1.658Zm-.44-2.575a2.315 2.315 0 0 0-.266 1.233c.023.381.166.978.708 1.342l1.116-1.659c.104.07.15.151.164.185.014.031.01.036.008.008a.38.38 0 0 1 .007-.097c.008-.037.017-.053.014-.048l-1.752-.964Zm1.366-1.24c-.248.148-.554.329-.795.517-.124.096-.27.224-.396.386a1.383 1.383 0 0 0-.297.748l1.995.141a.624.624 0 0 1-.117.335c-.018.024-.015.013.044-.032.054-.043.13-.095.235-.162.105-.066.221-.136.357-.216l-1.026-1.717Zm.633-.396a12.1 12.1 0 0 1-.633.396l1.026 1.717c.219-.131.483-.289.737-.463l-1.13-1.65Zm1.545-.854c-.476.235-1.056.519-1.545.854l1.13 1.65c.35-.239.794-.461 1.301-.711l-.886-1.793Zm.072-.032.742 1.857-.742-1.857Zm-.049.02-.023.012.886 1.793.023-.012-.886-1.793Zm-.568.76.014.204 1.995-.135-.013-.203-1.996.134Zm1.533-1.052a2.965 2.965 0 0 0-.613-.012l.155 1.994a.995.995 0 0 1 .204.002l.254-1.984Zm-.277-.059c-.094.052-.195.104-.303.159l.906 1.783c.12-.06.239-.122.355-.186l-.958-1.756Zm-.533.746.015.205 1.995-.146-.016-.206-1.994.147Zm1.458-1.07a2.978 2.978 0 0 0-.55.001l.179 1.992a.96.96 0 0 1 .185-.001l.186-1.992Zm-.435.016a2.394 2.394 0 0 1-.194.136l1.072 1.688c.126-.08.253-.168.374-.265l-1.252-1.559Zm-.392.699.026.203 1.984-.245-.025-.204-1.985.246Zm1.2-1.15a3.84 3.84 0 0 0-.36.038l.305 1.977c.063-.01.12-.016.17-.018l-.116-1.997Zm-.772.497c.02-.091.056-.133.05-.125l1.559 1.252c.146-.181.286-.42.348-.715l-1.957-.412Zm-.168-.244c.042.065.073.114.102.162a.897.897 0 0 1 .054.108c.02.051 0 .029.012-.028l1.957.416c.182-.861-.33-1.565-.447-1.747l-1.678 1.089Zm.885-1.931c-.11 0-.384.005-.653.159a1.076 1.076 0 0 0-.536 1.035c.023.255.133.452.167.514.047.086.104.173.137.223l1.678-1.089a4.806 4.806 0 0 1-.047-.072l-.013-.021a.804.804 0 0 1 .07.263.92.92 0 0 1-.724.979.533.533 0 0 1-.058.008l-.02.001v-2Zm.887.115a3.634 3.634 0 0 0-.887-.115v2c.098 0 .241.014.39.052l.497-1.937Zm-1.373-.324.13 1.386 1.99-.186-.129-1.386-1.991.186Zm.965-1.092.062 1.999-.062-1.999Zm-.949 1.199v.001l1.96-.401v-.001l-1.96.401Zm-1.803-8.865 1.803 8.864 1.96-.399-1.803-8.864-1.96.399Zm.67-1.151v.001l.62 1.901-.62-1.902Zm-.75.761.08.389 1.96-.398-.08-.389-1.96.398Zm-.012-.074.003.016 1.98-.282-.003-.017-1.98.283Zm-.02-.172.017.149 1.986-.238-.018-.15-1.986.239Zm-.008-.097.001.025 1.998-.095-.001-.025-1.998.095Zm.007-.253-.007.161 1.998.089.007-.16-1.998-.09Zm.002-.037v.019l1.995.125.002-.019-1.997-.125Zm.054-.302-.034.157 1.957.415.033-.157-1.956-.415Zm-.493.609c.37.213.742.389 1.11.531l.72-1.866a6.125 6.125 0 0 1-.837-.4l-.993 1.735Zm-.559-.616.248.339 1.615-1.181-.248-.339-1.615 1.181Zm-.192-.591v.001h2v-.001h-2Zm0 0h2-2Zm0 0h2-2Zm0 0h2-2Zm.096-7.189c-.092 1.487-.096 7.156-.096 7.188l2 .002c0-.079.005-5.659.092-7.067l-1.996-.123Zm1.343-4.593a55.344 55.344 0 0 0-.861 2.515c-.236.763-.45 1.55-.482 2.078l1.996.123c.016-.252.15-.815.396-1.61.235-.756.537-1.62.829-2.42l-1.879-.686Zm.196 1.116c.136.067.275.124.417.173l.652-1.891a1.675 1.675 0 0 1-.19-.078l-.879 1.796Zm-3.442-11.79a478.451 478.451 0 0 1 1.965 7.414 685.858 685.858 0 0 1 .878 3.445l.051.206.014.052.003.014v.003h.001l.97-.242.97-.243-.001-.004-.004-.014-.013-.053-.052-.207-.195-.773c-.167-.662-.405-1.595-.685-2.683-.56-2.174-1.29-4.97-1.974-7.447l-1.928.531Zm1.761.495c.053-.149.104-.298.153-.448l-1.9-.627a22.58 22.58 0 0 1-.14.411l1.887.664Zm-2.278.526a7.852 7.852 0 0 0 1.225.14 3.943 3.943 0 0 0 .11.002H67.589l-.014-1-.014-1h.003H67.515a5.836 5.836 0 0 1-.89-.104l-.385 1.962Zm-.569 4.71 1.714-5.388-1.906-.606-1.713 5.389 1.905.606Zm-.174.365c.075-.113.134-.236.175-.366l-1.907-.602a.542.542 0 0 1 .065-.138l1.667 1.106Zm-4.99 3.757a116.53 116.53 0 0 0 2.882-1.957 29.045 29.045 0 0 0 1.399-1.04c.178-.144.354-.294.487-.433.06-.063.155-.167.232-.296a1.14 1.14 0 0 0 .137-.344 1.038 1.038 0 0 0-.131-.768l-1.699 1.056a.962.962 0 0 1-.125-.709.867.867 0 0 1 .102-.262c.04-.066.069-.09.042-.062a3.72 3.72 0 0 1-.303.264c-.315.255-.776.593-1.296.96-1.033.732-2.237 1.532-2.827 1.922l1.1 1.67Zm.272-1.404-.013-.018-1.618 1.175.012.017 1.62-1.174Zm-.915 3.711c.314-.295.514-.67.645-.985.136-.327.229-.669.294-.963a8.623 8.623 0 0 0 .162-1.076l.002-.02v-.011l-.997-.069-.998-.069v.01l-.004.044c-.004.04-.01.101-.02.178a6.55 6.55 0 0 1-.1.585c-.048.225-.111.443-.186.624-.08.193-.146.275-.167.294l1.369 1.458Zm-.403.274c.144-.068.28-.159.401-.273l-1.366-1.46a.446.446 0 0 1 .115-.078l.85 1.81Zm-1.083.86a2.126 2.126 0 0 0 1.144-.644c.237-.253.446-.6.502-.97l-1.977-.303a.55.55 0 0 1 .024-.095c.005-.015.01-.022.01-.023l-.006.009a.212.212 0 0 1-.056.052.082.082 0 0 1-.026.01l.385 1.963Zm-1.713-.791c.09.175.265.433.58.618.336.197.73.251 1.133.172l-.386-1.962c.001 0 .034-.007.088.002a.497.497 0 0 1 .177.063.482.482 0 0 1 .187.192l-1.78.915Zm-.668-.065c.057.06.261.281.556.444.32.176.827.321 1.388.086l-.774-1.845a.457.457 0 0 1 .226-.03c.07.008.113.03.124.036.011.006.008.006-.01-.009a.934.934 0 0 1-.06-.06l-1.45 1.378Zm-.005-.006.006.006 1.449-1.379-.006-.005-1.449 1.378Zm-.194-.279c.052.107.12.2.194.28l1.449-1.38a.89.89 0 0 1 .155.224l-1.798.876Zm-.956.186c.469.324 1.35.704 2.27.287l-.828-1.821-.013.003a.21.21 0 0 1-.056-.006.687.687 0 0 1-.236-.108l-1.137 1.645Zm-.451-1.962c-.093.177-.223.49-.193.874.033.442.267.827.644 1.088l1.137-1.645a.473.473 0 0 1 .131.147c.05.084.075.174.082.257a.483.483 0 0 1-.024.194l-.004.01-1.773-.925Zm-.114 1.155c.261.24.568.285.669.298.147.019.291.016.412.006l-.162-1.994c-.038.003-.033 0 .004.004a.65.65 0 0 1 .13.032c.06.02.179.07.3.182l-1.353 1.472Zm-.043-.026c.016.012.03.02.04.029l.025.017.005.003c-.003-.001-.012-.009-.025-.021l1.35-1.475c-.096-.088-.216-.17-.254-.196l-1.14 1.644Zm-.534-3.003c-.241.308-.42.648-.486 1.022-.068.389-.001.746.143 1.046.254.529.742.841.877.935l1.14-1.643a4.408 4.408 0 0 1-.114-.08 1.087 1.087 0 0 1-.111-.098c-.004-.004.002.002.01.02a.288.288 0 0 1 .025.165c-.006.037-.01-.005.09-.133L53.7 92.725Zm1.899-1.51c-.343.123-1.101.493-1.899 1.51l1.573 1.234c.551-.701.99-.857.998-.86l-.672-1.884Zm.666-1.14c-.316.203-.584.52-.772.79-.2.284-.392.63-.507.975l1.897.634c.04-.117.128-.291.247-.46.057-.082.112-.15.158-.199.051-.054.072-.066.058-.056l-1.08-1.683Zm3.434.967c-.14-.088-.667-.414-1.22-.69a5.964 5.964 0 0 0-.888-.369 2.321 2.321 0 0 0-.521-.1 1.326 1.326 0 0 0-.805.193l1.08 1.683c-.213.137-.398.12-.4.12-.023-.002-.005-.004.066.018.14.042.34.127.576.245.463.23.922.515 1.047.593l1.065-1.693Zm2.313-2.922-3.498 3.01 1.304 1.516 3.498-3.01-1.305-1.516Zm.35-.23c-.111.056-.223.126-.329.212l1.261 1.552a.23.23 0 0 1-.02.016l-.005.002-.908-1.782Zm-.514.55a1.745 1.745 0 0 0-.033.352l2-.022a.26.26 0 0 1-.005.053l-1.962-.384Zm1.07-5.558-1.071 5.56 1.964.378 1.07-5.56-1.963-.378Zm-.741-.46c.28.56.643 1.016 1.048 1.387l1.35-1.476a2.747 2.747 0 0 1-.61-.805l-1.788.895Zm.09-1.411-.126.545-.033.148-.01.038-.002.01a.02.02 0 0 1 0 .003l.975.22.976.22v-.003a115.838 115.838 0 0 1 .168-.725l-1.947-.456Zm.155.801 1.638-1.147-1.638 1.147Zm2.136-8.565c-.935 2.201-1.913 6.166-2.29 7.762l1.946.46c.386-1.635 1.329-5.425 2.184-7.44l-1.84-.782Zm1.586-3.014c-.947.935-1.447 2.069-1.651 3.232l1.97.346c.145-.826.482-1.558 1.087-2.155l-1.406-1.423Zm1.718 1.243a6.103 6.103 0 0 1-.015-.519l-2-.026c-.003.236.004.466.02.689l1.995-.144Zm-2.014-.546c-.004.236.003.466.02.69l1.994-.144a6.058 6.058 0 0 1-.015-.518l-2-.028Zm.719-1.084a4.95 4.95 0 0 0-.44.404l1.44 1.388c.082-.085.17-.165.262-.24l-1.262-1.552Zm-.17.177 1.601 1.198-1.6-1.198Zm.39-.348a6.348 6.348 0 0 0-.22.172l1.263 1.55a4.29 4.29 0 0 1 .15-.117l-1.194-1.605Zm.75-.484c-.268.15-.518.311-.751.485l1.194 1.604c.16-.12.336-.233.53-.341l-.973-1.748Zm-.668.544.202.634 1.905-.608-.202-.634-1.905.608Zm.44-1.163-.002.001 1.029 1.715.002-.001-1.029-1.715Zm-.519.909.08.252 1.906-.607-.08-.252-1.906.607Zm-6.395.507c2.006.844 4.94.796 7.582.162l-.467-1.945c-2.44.586-4.889.55-6.34-.06l-.775 1.843Zm.277.072h.004l.215-1.988h-.004l-.215 1.988Zm-1.241-.598c.297.21.622.383.961.525l.775-1.843a3.032 3.032 0 0 1-.58-.314l-1.156 1.632Zm-2.606-9.207c-.112.756-.345 2.395-.132 4.144.213 1.746.89 3.76 2.74 5.064l1.152-1.634c-1.197-.844-1.728-2.205-1.906-3.672-.178-1.462.015-2.872.124-3.608l-1.978-.294Zm.086-6.15c.01 1.045.022 2.365.014 3.548-.009 1.213-.04 2.19-.1 2.603l1.978.292c.086-.58.114-1.712.122-2.882a226.8 226.8 0 0 0-.014-3.58l-2 .019Zm0 0 2-.02-2 .02Zm0 .006 2-.031-2 .031Zm-.006-.65.006.644 2-.019-.006-.642-2 .017Zm.745.971c.062.008.124.014.186.018l.139-1.995a1.606 1.606 0 0 1-.084-.008l-.241 1.985Zm.097.007.045-2-.045 2Zm-3.145-1.017c.697.467 1.48.714 2.052.847a8.034 8.034 0 0 0 1.014.166l.02.001h.01v.001h.001l.07-.997.07-.998h.002-.005l-.034-.004a6.037 6.037 0 0 1-.696-.118c-.456-.106-.977-.283-1.39-.56l-1.114 1.662Zm-1.477-3.956c-.224.907-.162 1.722.148 2.424.305.69.81 1.184 1.33 1.532l1.112-1.661c-.296-.2-.5-.424-.612-.678-.107-.243-.17-.598-.036-1.139l-1.942-.478Zm1.734-2.223c-.808.455-1.472 1.173-1.733 2.22l1.94.484c.106-.424.36-.728.775-.962l-.982-1.742Zm1.484.754v-.001l-1.986.236 1.986-.235Zm22.17 22.137-.001.001 1.773.926v-.001l-1.773-.926Zm.402 1.338.967-1.75-.967 1.75Zm.536-1.874h-.001l-.103 1.997h.001l.103-1.997Zm-.12.001h-.003l.143 1.995h.002l-.142-1.995Zm.517 1.892h.003l-.898-1.788-.003.001.898 1.788Zm-.513.105.128-1.996h-.001l-.127 1.996Zm-2.918-1.04a5.8 5.8 0 0 1 .703.169l.577-1.915c-.3-.09-.621-.171-.948-.226l-.332 1.972Zm.46-1.968-.225-.016-.139 1.995.225.016.14-1.995Zm1.693-1.518c-.58-.15-1.128-.07-1.584.217-.42.265-.672.649-.822.955a3.732 3.732 0 0 0-.286.842 4.037 4.037 0 0 0-.064.393l-.001.01v.006h-.001l.996.093c.996.09.996.091.996.092v.003l-.001.002v-.003l.005-.033a1.747 1.747 0 0 1 .152-.526c.06-.124.103-.149.092-.142-.047.03-.072.004.017.027l.501-1.936Zm1.832 2.159c-.137-.672-.555-1.83-1.832-2.16l-.5 1.937c.078.02.134.058.194.145.072.105.135.267.178.477l1.96-.4Zm-1.697 1.343c.318-.054.623-.108.904-.161l-.374-1.965c-.263.05-.554.102-.863.154l.333 1.972Zm-.56.091.555-.09-.323-1.974-.555.09.323 1.975Zm.061-1.961-.445 1.95.445-1.95Zm-.645 2.053.581-.09-.316-1.976-.57.09.305 1.977Zm-8.267 4.32v-.002l-1.928.535v.001l1.928-.535Zm-.46.827.667-.745.001.001.001.001.002.002a4.733 4.733 0 0 1-.387-.435l-1.575 1.233a6.76 6.76 0 0 0 .558.627 3.668 3.668 0 0 0 .061.058l.003.001v.001h.001l.668-.744Zm-.496-.869.992 1.737-.992-1.737Zm-.752.976.505.561 1.487-1.337-.505-.561-1.487 1.337ZM57.74 94.946l-.234.109.845 1.813.234-.11-.845-1.812Zm-.573.68a3.117 3.117 0 0 0-.005.181v.058a1.922 1.922 0 0 0 .001.027v.005l1-.045.998-.045v.008-.012c0-.013 0-.035.002-.063l-1.996-.113Zm.595.974.033.012.74-1.857-.032-.013-.74 1.858Zm.935 0a3.01 3.01 0 0 0 .305-.435l-1.739-.989c-.018.033-.05.082-.103.145l1.537 1.28Zm29.888.458c-2.04-.384-4.906-1.078-7.433-2.243l-.837 1.817c2.743 1.263 5.79 1.994 7.9 2.392l.37-1.966Zm.809 1.098-1.987-.23 1.987.23Zm-9.079-1.524c2.743 1.264 5.79 1.995 7.9 2.392l.37-1.966c-2.04-.384-4.906-1.078-7.433-2.242l-.837 1.816Zm-.517-1.26 1.872.704-1.872-.704Zm11.89 6.725.64.165.5-1.937-.64-.165-.5 1.937Zm-1.15-4.746c-.01.073-.093.739-.077 1.558.015.771.117 1.885.616 2.728l1.722-1.017c-.217-.366-.325-1.024-.339-1.75-.013-.678.058-1.234.062-1.27l-1.984-.25Zm0-.003v.002l1.984.25V97.6l-1.984-.251Zm1.704-.739-.49-.11-.444 1.95.49.11.444-1.95Zm.74-.903-1.53 1.055 1.136 1.647 1.53-1.056-1.136-1.646Zm3.226-2.23-3.226 2.23 1.137 1.646 3.226-2.23-1.137-1.645Zm-.289 1.339.018.027 1.68-1.085-.018-.028-1.68 1.086Zm2.751-3.112-2.487 1.751 1.151 1.636 2.488-1.752-1.151-1.635Zm.519 1.816h-.002l.119-1.997c-.052-.003-.104-.004-.158-.003l.04 2Zm.7-2.983c-.237.158-.703.47-1.053.748-.15.117-.381.306-.532.511-.043.059-.112.161-.164.299a1.045 1.045 0 0 0 .62 1.357c.182.066.344.07.429.068l-.04-2a.824.824 0 0 1 .296.052.957.957 0 0 1 .568 1.223.766.766 0 0 1-.1.188c-.03.04-.005.003.161-.128.28-.22.679-.49.93-.658l-1.116-1.66Zm-.008.005 1.13 1.65h.001l-1.131-1.65Zm.149-.101-.04.027-.101.069 1.115 1.66.198-.135-1.172-1.621Zm.312-.153a1.014 1.014 0 0 0-.312.153l1.172 1.62a.992.992 0 0 1-.302.148l-.558-1.92Zm.069-.017h-.003l.425 1.955h.003l-.425-1.955Zm.131-.02h-.005l.173 1.993h.005l-.173-1.992Zm.8-.202a5.289 5.289 0 0 0-1.05.257l.673 1.883a3.586 3.586 0 0 1 .616-.155l-.239-1.985Zm5.431 4.674c-.589-.922-1.684-2.06-2.635-2.933-.485-.445-.96-.846-1.353-1.139a5.699 5.699 0 0 0-.56-.377 2.206 2.206 0 0 0-.302-.146 1.226 1.226 0 0 0-.584-.079l.245 1.985a.858.858 0 0 1-.372-.037c-.023-.008-.019-.009.02.013.073.042.192.121.356.244.323.24.746.595 1.198 1.01.923.846 1.858 1.842 2.302 2.536l1.685-1.077Zm1.179 3.695c.147-.855-.083-1.982-1.179-3.696l-1.685 1.078c.972 1.519.919 2.127.893 2.28l1.971.338Zm-2.162 1.464c.427.033.873-.076 1.233-.268.337-.178.822-.555.93-1.199l-1.972-.331a.451.451 0 0 1 .1-.226c.023-.025.03-.024.004-.01a.372.372 0 0 1-.092.033c-.036.008-.055.007-.05.007l-.153 1.994Zm-1.692-.733c.236.164.527.368.797.51.138.072.314.152.512.2.197.047.486.08.798-.033l-.677-1.882a.621.621 0 0 1 .347-.03c.028.007.016.008-.05-.026a3.073 3.073 0 0 1-.244-.148 14.901 14.901 0 0 1-.344-.235l-1.139 1.644Zm.015.01 1.109-1.664-1.109 1.665Zm-.027-.018 1.163-1.627-1.163 1.627Zm-.609-.404c.202.122.403.262.621.412l1.139-1.644a13.72 13.72 0 0 0-.725-.479l-1.035 1.711Zm-1.421-1.055c.412.337.913.75 1.422 1.056l1.033-1.713c-.363-.219-.75-.532-1.189-.892l-1.266 1.549Zm-.074-.067 1.414-1.415-1.414 1.415Zm.057.053.017.014 1.266-1.549-.017-.014-1.266 1.549Zm.923.204.181-.097-.943-1.763-.181.097.943 1.763Zm-1.59-.964c.058.189.139.377.243.565l1.751-.965a1.05 1.05 0 0 1-.082-.187l-1.912.587Zm.064.28c.085.063.174.133.268.208l1.248-1.563a12.07 12.07 0 0 0-.314-.244l-1.202 1.598Zm.902.176.18-.099-.962-1.754-.18.1.962 1.753Zm-1.579-.884c.058.167.134.334.228.5l1.739-.987a1.01 1.01 0 0 1-.077-.169l-1.89.656Zm.192.388c.056.028.124.068.205.12l1.096-1.672a4.229 4.229 0 0 0-.397-.232l-.904 1.784Zm.799.068.175-.107-1.043-1.706-.176.107 1.044 1.706Zm-1.542-.616c.054.103.115.207.183.311l1.674-1.096a1.984 1.984 0 0 1-.088-.147l-1.769.932Zm.773.496c-.092.02-.146.004-.136.007l.495-1.938a1.7 1.7 0 0 0-.794-.021l.435 1.952Zm-.153.254c.041-.065.072-.113.105-.159a.913.913 0 0 1 .076-.094c.038-.04.027-.013-.029 0l-.433-1.953c-.858.19-1.287.946-1.404 1.128l1.685 1.078Zm-2.126-.008c.046.1.163.347.415.529a1.076 1.076 0 0 0 1.164.061c.223-.127.357-.308.4-.364.058-.079.114-.167.147-.218l-1.685-1.078a4.925 4.925 0 0 1-.06.093l-.005.007.008-.011a.798.798 0 0 1 .207-.168.926.926 0 0 1 .992.054.83.83 0 0 1 .229.25l.01.019-1.822.826Zm-.21-.615c.055.223.128.433.21.616l1.821-.828a1.523 1.523 0 0 1-.089-.266l-1.942.478Zm.59 1.294.979-.732-1.197-1.602-.98.732 1.197 1.602Zm-1.59-.49.151.232 1.68-1.086-.15-.233-1.68 1.086Zm1.464.238.002-.001-1.25-1.561-.002.001 1.25 1.561Zm-3.753 3.001 3.752-3-1.249-1.562-3.752 3 1.249 1.562Zm-1.992 1.59 1.991-1.59-1.248-1.563-1.991 1.59 1.248 1.563Zm-1.024.135.01.004.78-1.841-.008-.004-.782 1.841Z" fill="#727E99" mask="url(#b)"/><path d="M65.353 75.53 62.829 88.63a.74.74 0 0 0 .363.787l.868.491a.455.455 0 0 0 .659-.258l3.799-11.947-3.165-2.175Z" fill="#FFB5A2"/><path d="M67.812 83.674c-2.703-.286-3.98-1.593-4.57-2.436.573-2.43 2.457-9.98 3.46-8.922 1.903 2.004 2.813 5.974 1.11 11.358Z" fill="#8DD06B"/><path d="M67.812 83.674c-.075.238-.154.475-.237.71 0 0-3.276.047-4.504-2.409l.17-.736c.591.842 1.868 2.148 4.571 2.435Z" fill="#CD6D66"/><path d="m58.698 92.291.896 1.188s5.275-3.439 5.068-3.716c-.182-.245-.488-.775-.935-1.017-.345-.186-.827-.06-1.063.132l-3.966 3.413Z" fill="#FFB5A2"/><path d="M59.97 93.258s-.121 1.766-.79 2.395c-.672.628-2.385-.82-2.385-.82l.594-2.314 1.748-.409.833 1.148Z" fill="#DD8C7F"/><path d="M59.2 91.91s-1.973-1.264-2.395-.993c-.421.271-1.016 1.237-.925 1.667.09.427.94 2.214 1.794 2.376.853.163 1.042-1.06.59-1.47-.453-.411-.874-.97-.874-.97s1.04 1.577 2.053.778c0 .001.41-1.038-.242-1.388Z" fill="#FFA893"/><path d="M55.005 93.646s1.898-.986 2.039.077c.136 1.03-1.866 1.501-2.09 1.295-.226-.207-1.271-.65-.467-1.676.804-1.024 1.5-1.202 1.5-1.202l.304 1.152-1.286.354Z" fill="#FFA893"/><path d="M55.444 94.823s-.541.564-.033.916c.508.35 1.355.558 1.91-.421.554-.979-.108-1.313-.547-1.162-.438.15-1.33.667-1.33.667Z" fill="#FFA893"/><path d="M58.261 95.055s-.342-.72-.822-.158c-.48.562-.865.918-.722 1.068.142.15.618.665 1.156.06.538-.607.388-.97.388-.97Z" fill="#FFA893"/><path d="M59.038 95.688s-.032-.874-.474-.779c-.441.096-.403.943-.403.943l-.65.303s.108.49.674.379c.567-.111.874-.647.853-.846Z" fill="#FFA893"/><path d="m70.845 108.401 1.803 8.864.292 1.434.132.654.151.054.026.009.02.007.081.025c.145.043.34.094.55.127.216.032.452.05.68.028l.022-.001.074-.011.048-.007.057-.011.063-.017.042-.012.074-.024.032-.012.08-.035.021-.009.088-.051.012-.007.02-.012.04-.03.048-.038.014-.013.022-.021.015-.015.044-.046.016-.02.02-.022.009-.013.037-.054.02-.03.011-.018.01-.013.028-.059.026-.053v-.004l.008-.013.02-.057.03-.087.005-.024c.038-.149.06-.314.059-.5 0-.262-.016-.632-.042-1.08-.12-2.025-.47-5.66-.724-8.252-.003.007-1.74-1.272-4.084-.531Z" fill="#FFB5A2"/><path d="m75.823 117.185.224 3.465-3.063.22-.337-3.604 3.175-.081Z" fill="#92CBD7"/><path d="m76.307 121.492.332.223s-.034.465-.158.857c-.124.393-3.792 2.052-5.691 2.324-1.9.273-2.726-.006-3.15-.292-.45-.303-.295-1.354.141-1.527.709-.282 8.526-1.585 8.526-1.585Z" fill="#CD9567"/><path d="M75.35 120.486s.524-.127.733-.614c.208-.486.509 1.612.555 1.842.046.23-5.791 3.228-8.304 2.27-1.772-.675-.289-1.144.87-1.937 1.159-.793 3.034-1.33 3.195-2.098.163-.768-.87-1.381-.26-1.381.608 0 1.72.281 1.79 1.176.069.896 1.42.742 1.42.742Z" fill="#CD6D66"/><path d="m73.34 121.126.344-.151c-.014-.037-.336-.912-1.698-.702l.05.406c1.057-.162 1.294.423 1.304.447Zm-.735.469.313-.219c-.02-.032-.47-.797-1.559-.698l.03.408c.87-.078 1.213.503 1.216.509Zm-.981.468.351-.132-.013-.046c-.068-.251-.248-.92-1.325-.836l.027.409c.78-.062.886.333.942.545l.018.06Z" fill="#BABA54"/><path d="m70.744 107.82.001.025.018.15.003.017.079.389c2.344-.741 4.08.537 4.08.537-.05-.519-.098-.994-.14-1.408l-.03-.329a1.037 1.037 0 0 0-.38-.708l-.015-.011-.111-.077-.023-.013-.005-.003-.012-.006-.123-.058-.017-.005-.02-.007-.015-.006-.13-.033-.012-.003-.034-.005-.128-.01-.022-.003-.111.006-.278.031-.005.003-.26.034-.038.006-.264.044-.028.006-.065.013-.102.021-.098.021-.026.006-.057.013h-.002l-.2.049-.026.007-.043.015-.013.004-.046.014-.143.041-.027.009-.036.012-.026.009-.186.066-.01.005-.026.01-.012.006-.208.087-.014.009-.132.076-.017.011-.127.107-.012.009-.053.059-.01.009-.009.011-.038.052-.01.011-.084.14-.004.008-.003.006-.006.015.001-.006-.062.159-.005.008v.007l-.035.159v.019l-.008.16Z" fill="#FF7E5F"/><path d="M69.658 99.55c.09-1.454 2.257-6.863 2.257-6.863l5.46-2.498 5.487.595s-4.635 9.219-4.112 14.507c0 0-4.152 4.467-8.939 1.727l-.248-.339c0 .001.005-5.674.095-7.128Z" fill="#458BBD"/><path d="m91.937 101.129.65.168c.442-1.495-.568-3.712-.568-3.712l-.49-.112c-.01.077-.312 2.437.408 3.656Z" fill="#FFB5A2"/><path d="m88.157 100.158 2.142.551 1.636.42c-.72-1.219-.417-3.579-.407-3.656l-.368-.085-2.62-.6-.14 1.253-.243 2.117Z" fill="#FF7E5F"/><path d="M73.19 96.57c1.497 1.65 4.537 4.193 7.368 5.75 3.162 1.737 6.054 2.4 6.054 2.4 3.215-2.313 4.202-4.684 4.466-6.268 0 0-12.997-1.323-15.828-7.413l-2.03.529-.03 5.002Z" fill="#458BBD"/><path d="M75.25 91.04c2.831 6.088 15.827 7.412 15.827 7.412.19-1.145.003-1.879.003-1.879s-6.29-2.034-7.002-3.758c-.714-1.724-2.287-3.477-2.287-3.477l-6.541 1.701Z" fill="#5B98C5"/><path d="M91.656 98.09c.053-.532.363-.505.363-.505l1.53-1.056 3.227-2.23 2.361-1.63 1.119 1.523.453.615-1.312 1.047-1.067.854-3.753 3-1.991 1.59c-.767-.317-.984-2.68-.93-3.209Z" fill="#FFB5A2"/><path d="m96.758 94.272 2.838-1.999 1.785 2.5-2.9 2.166-1.723-2.667Z" fill="#92CBD7"/><path d="m100.55 91.646.065-.395s.437-.161.845-.21c.409-.05 3.437 2.604 4.469 4.22 1.034 1.616 1.123 2.483 1.037 2.988-.09.534-1.111.827-1.45.502-.546-.528-4.966-7.105-4.966-7.105Z" fill="#CD9567"/><path d="M100.03 92.932s-.333-.424-.862-.413c-.529.01 1.257-1.131 1.447-1.269.191-.138 5.334 3.937 5.502 6.621.117 1.893-.924.736-2.123.01-1.202-.725-2.467-2.212-3.232-2.042-.766.17-.898 1.363-1.15.809-.251-.554-.455-1.682.33-2.116.787-.433.088-1.6.088-1.6Z" fill="#CD6D66"/><path d="m101.442 94.497-.279-.25c-.027.026-.691.683.064 1.835l.348-.213c-.586-.895-.151-1.353-.133-1.372Zm.732.476-.328-.195c-.023.03-.531.757.01 1.708l.358-.197c-.43-.76-.044-1.311-.04-1.316Zm.831.7-.266-.265-.035.03c-.201.165-.736.606-.214 1.551l.36-.193c-.377-.684-.063-.944.107-1.083l.048-.04Z" fill="#BABA54"/><path d="m83.457 87.65-8.968 1.088-.491-18.487 5.401.347 4.058 17.052Z" fill="#D5806F"/><path d="M70.639 95.114c.932.457 2.288.39 3.759.04 4.026-4.09 2.284-19.68 1.473-25.475a6.039 6.039 0 0 0-1.731-.536c-.113.92-.824 4.206-5.306 6.76 0 0-2.028-1.816-1.987-4.959-2.1 2.073-1.584 5.367-.688 7.798 1.2 3.265 4.48 16.372 4.48 16.372Z" fill="#8DD06B"/><path d="M68.544 71.695c2.374-.512 3.927-1.94 3.927-1.94l-1.066-2.069c-.915.372-2.358 1.01-3.584 1.745l.723 2.264Z" fill="#FFB5A2"/><path d="M68.835 75.902c4.482-2.553 5.193-5.838 5.305-6.759a9.243 9.243 0 0 0-.547-.074 11.3 11.3 0 0 0-2.827.089c-1.579.27-2.736.786-3.566 1.463a3.95 3.95 0 0 0-.353.323c-.043 3.143 1.988 4.958 1.988 4.958Z" fill="#CD6D66"/><path d="M68.9 75.056s3.436-2.221 4.691-5.986a11.305 11.305 0 0 0-2.826.089c-1.58.27-2.737.786-3.567 1.463l-.014.02s.23 3.1 1.715 4.414Z" fill="#FFB5A2"/><path d="M67.824 69.43c1.225-.736 2.67-1.373 3.583-1.745l-1.431-2.77-3.079 1.607.927 2.908Z" fill="#FF7E5F"/><path d="M74.397 95.156c3.792-.899 8.348-3.669 8.406-4.157.117-1.01-3.844-15.843-5.13-19.354-.348-.95-1.014-1.57-1.802-1.965.81 5.794 2.552 21.384-1.474 25.476Z" fill="#7FAD68"/><path d="M86.823 75.595s1.107-.905 1.425-.52c.317.384 1.743 2.349 1.789 2.524.044.175 1.666 5.166 1.415 5.51-.25.344-1.629 1.584-1.629 1.584l-3-9.098Z" fill="#BD7B59"/><path d="m88.206 74.912-1.106.752-1.993-1.087 1.515-.586 1.584.921Z" fill="#E38B83"/><path d="M79.4 70.598c.972-.491 5.14-.37 5.14-.37s5.997 10.009 5.909 14.444c0 0-2.533 1.46-6.992 2.978L79.4 70.598Z" fill="#EEB374"/><path d="M84.54 70.229s-2.567-1.373-4.398-.95c-1.829.424-6.547 1.023-6.547 1.023l5.805.295 5.14-.368Z" fill="#BD7B59"/><path d="M86.03 84.03c.188-1.747-3.86-13.183-4.032-13.668l-3.43-.781-.585.096 3.63.828c1.459 4.115 4.188 12.167 4.044 13.493l.373.031Z" fill="#75688D"/><path d="m86.123 83.219-.53.022-.034.954.695-.062-.131-.914Z" fill="#63A2BA"/><path d="m85.515 85.597 1.162-.228-.653-1.709-.386.04-.123 1.897Zm.72-.969-.469.122.054-.768.136-.034.28.68Z" fill="#ACB3D1"/><path d="m80.467 70.35-.977.074s.17-2.04-1.17-2.387c-1.338-.346-1.512 1.548-1.512 1.548l-.276-.019s.084-2.295 1.7-2.145c.772.073 1.454.25 2.235 2.929Z" fill="#383148"/><path d="M80.586 74.1s4.005 6.223 3.973 6.524c-.03.3-1.502 1.107-2.26.997 0 0-4.199-4.998-4.343-5.21-.142-.212 2.63-2.31 2.63-2.31Z" fill="#FFB5A2"/><path d="M78.203 78.343c2.478-1.025 3.296-2.406 3.6-3.226-1.28-1.686-5.487-6.004-6.295-5.116-1.201 1.323-.548 4.738 2.695 8.342Z" fill="#8DD06B"/><path d="M78.204 78.343c.148.195.3.394.46.591 0 0 2.946-.64 3.568-3.202 0 0-.174-.218-.426-.616-.453.937-1.146 2.063-3.602 3.227Z" fill="#CD6D66"/><path d="m79.328 70.732-2.158-.206-1.415-.448 2.109.013 1.464.641Z" fill="#242630"/><path d="M79.328 70.732s-6.127-3.327-2.98 7.689c3.149 11.014 7.07 9.06 7.07 9.06l.039.169s-2.715.374-3.573.147c-.86-.226-3.197-2.316-4.962-7.292-1.764-4.977-1.483-9.867-.06-10.747 1.422-.878 4.537.839 4.537.839l-.071.135Z" fill="#484B5D"/><path d="m78.12 79.66-1.67-1.826s-1.711-.493-2.236-.353c-.525.142-1.433.585-1.159.965.276.378 1.219.079 1.219.079l1.434.477s-1.163.46-1.33.461c-.169.002-.823.43-.728.724.093.293.205.647.571.578.368-.068 1.67-.219 1.67-.219s-1.826.22-1.809.574c.013.277.03.738.797.796.767.058 1.52-.326 1.52-.326s-1.643.292-1.588.63c.104.631.565.674 1.362.674.797 0 1.918-.436 2.026-.587.107-.148.634-1.632-.08-2.646Z" fill="#FFB5A2"/><path d="M83.421 79.446s-2.06.956-5.158.469l-.135 2.263s5.016 1.167 6.048.198c1.034-.97.213-2.82-.755-2.93Z" fill="#FFB5A2"/><path d="M54.097 49.706c.461-1.868 2.718-2.275 4.67-2.26-1.476-1.276-2.559-2.958.022-4.083 1.964-.856 4.046-.08 5.799 1.101.194-.248.478-.484.873-.7 2.413-1.325 4.518.9 5.784 2.816.224-.261.563-.429 1.063-.45 2.658-.105 2.759 4.83 2.816 5.019l-1.078 2.66-16.277-.37s-4.514-.313-3.672-3.733Z" fill="#8F4F34"/><path d="M60.01 68.646c.226.16.484.3.77.42 5.06.547 9.66-.268 11.577-4.21 3.49-7.176 2.345-10.786 1.136-12.532-4.465-1.562-14.248-2.648-15.58-.084-.058.114.122 6.669-.099 8.162-.221 1.493-.852 6.096 2.195 8.244Z" fill="#FFB5A2"/><path d="M60.78 69.064c3.53 1.49 11.093-.085 13.162-3.632 1.594-2.727 4.11-11.447-.265-13.043l-.184-.066c1.209 1.746 2.353 5.355-1.136 12.532-1.917 3.943-6.517 4.757-11.578 4.21Z" fill="#CD9081"/><path d="M61.818 62.744c.581-.171.79.034.798.043l.037.038-.037.037c-.254.246-.917.272-.924.272l-.195-.145c-.02-.145.237-.22.321-.245Zm-2.07-.915c.074-.345.354-.656.835-.92.753-.411.525-1.69.496-1.834l-.01-.052.209-.04.018.088c.229 1.052.032 1.808-.554 2.128-.388.212-.62.453-.67.696-.033.161.011.323.133.48.291.375 1.002.71 1.01.714l.235.11-.715-.025-.031-.008c-.3-.127-.562-.33-.76-.59a.894.894 0 0 1-.195-.747Z" fill="#E47D7D"/><path d="M68.255 58.688s-1.436-1.65-2.86-.95c-1.422.701-1.47 2.212-1.47 2.212s.978 1.27 2.63.787c1.405-.41 1.7-2.049 1.7-2.049Z" fill="#fff"/><path d="M64.568 59.267c.051.844.685 1.49 1.417 1.446.73-.044 1.281-.765 1.23-1.608-.053-.843-.687-1.49-1.418-1.446-.73.045-1.28.765-1.23 1.608Z" fill="#64B2B5"/><path d="M65.26 59.224c.024.401.326.71.675.688.347-.022.61-.364.585-.766-.026-.401-.328-.71-.674-.688-.349.022-.61.365-.586.766Z" fill="#514C7E"/><path d="M67.725 59.123a.668.668 0 1 1-1.331.114.668.668 0 0 1 1.331-.114Zm-6.801.4s-.404-1.782-1.52-1.758c-1.119.025-1.096.892-1.096.892s-.055 1.635 1.118 2.014c1.172.379 1.497-1.147 1.497-1.147Z" fill="#fff"/><path d="M58.516 59.246c.042.689.484 1.223.988 1.192.504-.031.877-.616.836-1.305-.043-.689-.486-1.223-.989-1.192-.503.031-.877.616-.835 1.305Z" fill="#64B2B5"/><path d="M58.994 59.217c.02.327.23.581.47.568.24-.016.42-.292.398-.622-.02-.327-.23-.581-.47-.568-.241.016-.419.292-.398.622Z" fill="#514C7E"/><path d="M60.586 59.171c.013.348-.175.636-.42.645-.246.01-.456-.264-.47-.61-.013-.346.175-.635.42-.644.246-.009.456.263.47.61Z" fill="#fff"/><path d="M68.254 58.688s-1.136-.873-2.608-.703c-1.36.158-1.72 1.965-1.72 1.965s0-2.607 1.843-2.788c1.965-.194 2.485 1.526 2.485 1.526Zm-7.33.836s-1.405-2.582-2.615-.94c0 0-.02-1.173 1.168-1.076 1.186.101 1.447 2.016 1.447 2.016Z" fill="#CA725D"/><path d="M65.663 56.139c.435-.048.874-.04 1.306.025.598.088 1.371.145 1.44-.166.107-.506-4.225-1.872-4.582-.827-.34.995.955 1.065 1.837.968Zm-5.24.008s.574-.956-.302-.952c-.875.005-2.27.975-2.156 1.372.114.397 2.122.036 2.458-.42Z" fill="#A85351"/><path d="M75.629 60.145c-.235-.057-.47-.11-.707-.16l.074.104s1.421.418 1.618.418c.03 0 .159-.24.333-.648-.761.187-1.285.303-1.318.286Zm-18.783-9.72c2.075 1.046 5.53-.235 5.53-.235 2.77.86 5.11-.925 5.11-.925s1.912 2.738 4.35 1.946c.66-.213 1.108-.667 1.409-1.217l-8.929-3.185-6.932 2.672c-.204.3-.383.616-.538.944Z" fill="#8F4F34"/><path d="M57.77 53.44c1.349.164 3.136-.717 4.654-1.7l.23.113c1.337.59 3.22.115 4.716-.48.007.366.237.728.874 1.024 1.4.654 2.66.259 3.478-.166-.333 2.653 2.68 7.023 3.201 7.754.438.096.692.153.707.16.032.017.557-.1 1.32-.286.996-2.317 3.465-10.04-2.583-9.669a5.8 5.8 0 0 0-.442.047l-.68-.243c-.3.55-.748 1.004-1.407 1.217-2.438.792-4.352-1.946-4.352-1.946s-2.34 1.785-5.11.925c0 0-3.454 1.28-5.529.235-.528 1.096-.998 2.78.923 3.014Z" fill="#A85351"/><path d="M57.759 53.438c-1.91-.24-1.44-1.92-.915-3.014-.77-.387-1.35-1.098-1.494-2.31-.612.345-1.07.855-1.254 1.59-.818 3.323 3.42 3.715 3.663 3.734Z" fill="#A85351"/><path d="M74.427 59.186s3.471-2.432 4.585.135c1.116 2.569-2.367 5.578-4.585 4.361-2.218-1.218 0-4.496 0-4.496Z" fill="#FFB5A2"/><path d="M75.667 59.633s2.822-1.075 2.382 1.254c-.439 2.328-3.19 1.6-3.19 1.6s2.737-1.556.808-2.854Z" fill="#CA725D"/><path d="M60.665 64.946s.612 2.31 2.726 2.277c1.394-.025 2.234-.97 2.585-1.95l.082-.303v-.008c.049-.179.074-.36.081-.53.017-.212 0-.407-.032-.578 0 0-1.525 1.624-5.067 1.15l-.122-.017-.253-.04Z" fill="#884356"/><path d="M61.041 65.004c.146.44.514.84 1.257 1.012 1.5.343 2.962-.49 3.76-1.053.05-.178.075-.36.082-.53.017-.212 0-.407-.032-.578-.001-.001-1.526 1.622-5.067 1.149Z" fill="#fff"/></g></svg>