<svg width="160" height="160" fill="none" xmlns="http://www.w3.org/2000/svg"><mask id="a" style="mask-type:alpha" maskUnits="userSpaceOnUse" x="0" y="0" width="160" height="160"><path fill="#D9D9D9" d="M0 0h160v160H0z"/></mask><g mask="url(#a)"><path opacity=".75" d="M33.326 96.421c-.322-.936-.416-2.168-.097-1.936.388.172.693-.594 1.098-1.244.404-.65.557.23 1.042-.186.485-.416.682-.888 1.14-.775.456.113.584-.3 1-.656.485-.415.568.523 1.441.28.427-.064.554-.476.77-1.065.267-.531.713-.712 1.093-.128.38.583 1.205.985 1.954 1.858.748.873 5.659 7.164 7.144 8.617 1.486 1.452 4.554 3.769 5.291 4.349.857.578 9.52 6.479 15.552 9.588 6.03 3.11 16.624 7.054 21.693 8.059 5.07 1.006 17.005 2.589 23.003 2.293 6.067-.354 10.934-.285 15.635-2.094 4.77-1.867 12.285-5.582 14.214-7.539 0 0 .003.704-1.619 2.599-1.621 1.895-7.312 7.177-11.295 9.682-3.656 2.326-12.87 5.882-21.144 5.907-8.273.024-16.09.161-24.61-1.925-8.52-2.087-13.45-3.211-21.452-7.357-8.071-4.087-9.008-4.899-9.684-5.127-.676-.228-.945-.402-1.344-.867-.4-.466-.995-.46-1.483-.749-.419-.348-6.184-3.988-10.881-9.048-4.748-5.118-7.658-10.196-8.461-12.536Z" fill="#FFCA42"/><path opacity=".75" d="M35.669 44.035s8.445.737 12.988 1.69c4.493.894 20.006 3.145 30.892 11.078 10.887 7.932 18.73 14.84 28.774 28.24 10.044 13.4 11.24 22.37 10.215 26.783-1.026 4.412-5.656 11.914-8.436 14.701 0 0 8.083-5.717 10.42-7.618 2.406-1.962 9.097-7.899 9.184-16.353.136-8.396-5.637-19.198-11.687-27.238s-17.138-19.434-24.505-23.822C86.147 47.11 73.42 40.956 69.8 39.819c-3.69-1.078-5.488-1.354-5.17-1.122.32.232 3.64 1.02 4.316 1.248.677.228 5.222 1.885 6.774 2.574 1.333.573 2.608 1.5 2.877 1.673-.369-.29-3.354-1.669-4.468-2.127-1.183-.399-2.943-.91-3.282-1.024-.338-.114-.665.066-.983-.166-.32-.232-.419-.348-.707-.404-.358.004-1.045-.517-1.502-.63-.458-.113-.765-.051-1.004-.049-.238.003-.626-.17-.934-.108-.357.004-.477.005-.795-.227-.25-.29-.688-.521-.995-.46-.308.062-.646-.052-.746-.168-.1-.116-.499-.582-.856-.578-.239.002-4.831-1.008-6.53-1.168a24.172 24.172 0 0 0-3.299-.201c-.357.003-.684.183-.784.066-.22-.115-.458-.113-.527-.053a.662.662 0 0 1-.665.065c-.219-.115-.884-.05-2.303.258-1.47.25-1.708.252-4.563 1.69-2.785 1.378-7.245 3.888-7.986 5.128Zm20.582.733c.408.054.746.168 1.153.223 2.644.56 9.116 2.08 13.096 3.919 5.194 2.413 12.49 6.156 14.52 7.544 2.032 1.389 2.232 1.621 2.393 2.09.16.467.2.232.967.988.768.755 1.932 1.272 2.3 1.561.369.29 3.966 3.365 7.517 7.087 3.6 3.779 8.472 10.305 8.472 10.305s-8.342-10.013-12.826-13.843c-4.535-3.887-6.347-5.16-7.204-5.739-.856-.578-6.366-5.043-13.608-8.023-6.566-2.751-11.68-4.93-15.577-5.83-.864-.168-1.322-.281-1.203-.282Z" fill="#FFCA42"/><path opacity=".75" d="M20.767 30.859c-1.048 1.302-2.839 3.14-3.854 5.322-1.014 2.182-2.559 8.655-2.357 12.116.203 3.461 1.71 10.55 3.439 15.933 1.848 5.382 3.647 8.181 4.517 9.757.87 1.577 1.92 3.503 2.41 4.496.56.934 4.166 6.122 5.405 7.988 1.19 1.808 3.207 4.723 4.473 6.06 1.217 1.28 5.369 6.403 5.998 7.278.629.874 2.336 3.146 3.403 4.251 1.067 1.104 3.26 2.961 4.396 4.006 1.136 1.045 7.047 6.68 9.118 7.833 2.02 1.095 2.738 1.792 3.606 2.664.817.814 2.19 1.152 2.389 1.385.2.233 5.138 3.471 6.652 4.395 1.513.924 7.61 3.269 11.469 4.404 3.788 1.195 8.062 1.974 11.003 2.179 2.941.206 4.978.479 9.671-.919 4.573-1.396 7.348-3.067 10.319-5.21 2.972-2.144 6.37-4.35 8.834-6.664 2.465-2.314 4.056-4.384 4.341-5.033 0 0-13.294 9.174-27.216 7.376-13.872-1.739-29.762-11.441-46.44-27.534-16.68-16.093-26.027-39.48-26.666-45.696 0 0-.438-.23-.103 1.703.385 1.992 1.189 4.333 1.189 4.333s-1.029-1.34-1.78-5.442c-.75-4.102-.622-7.038-.423-9.33.18-2.173.766-4.997 2.326-7.243 1.492-2.187 4.053-5.089 6.27-6.99 2.218-1.9 3.973-2.799 3.477-2.676-.497.122-4.99 1.752-8.815 4.021-3.775 2.328-6.004 3.935-7.052 5.237Zm.654 33.16c.745 2.693 1.834 4.384 2.244 5.143.41.76.521 1.169 1 1.869.48.7-.376.12.084.938.46.817 1.258 1.748 2.067 2.973.81 1.225 1.123 2.572 2.27 3.91 1.098 1.28 2.539 4.084 3.816 5.715 1.278 1.63 2.605 3.32 3.634 4.66 1.028 1.34 1.599 2.566 2.646 3.788.998 1.164 2.206 2.855 1 1.869-.637-.463-2.602-2.616-3.55-3.721-.898-1.048-2.735-3.612-3.414-4.545-.679-.932-8.48-12.418-9.323-14.523-.842-2.105-3.899-9.177-4.874-12.279-.926-3.043-1.045-5.566-1.045-5.566s2.7 7.076 3.445 9.769Z" fill="#FFCA42"/><path opacity=".75" d="M20.223 31.628c-.316.472 9.832-2.976 13.396-3.305 3.565-.33 14.923 1.142 20.064 2.793 5.142 1.65 19.202 8.377 20.466 9.01 1.214.575 1.555 1.393 2.38 1.796.827.403-.465.298.51.875.976.578 8.305 5.2 9.748 6.184 1.444.983 6.663 4.688 8.506 6.136 1.843 1.45 14.789 12.766 18.999 17.538 4.26 4.83 11.177 13.741 13.555 17.357 2.378 3.615 5.099 8.754 7.081 12.608 1.981 3.855 2.147 8.256 2.227 11.014.15 2.699-.884 4.998-1.949 7.122-1.045 2.007-4.59 7.267-7.293 9.583 0 0 3.304-.913 7.542-4.243 4.239-3.33 11.216-9.916 12.1-14.915.885-4.998.126-13.737-5.231-22.371-5.307-8.576-12.313-17.311-13.511-18.708-1.197-1.397-4.958-5.644-5.706-6.517-.748-.873-1.317-1.396-1.984-2.035-.668-.639-1.034-.224-.735.125.299.35.269.173.787.638.518.464.857.578.967.988.111.41.261.584.63.874.368.29.448.524.848.99.399.465.299.349.817.813.518.465.252.996.252.996s-.487-.29-.887-.755c-.399-.465-2.394-2.793-2.863-3.2a6.229 6.229 0 0 1-1.197-1.396c-.28-.467-.748-.873-1.047-1.223-.3-.349-.735.125-1.034-.224-.3-.35-.011-.293-.41-.759-.399-.466-1.106-.87-1.455-1.277-.35-.407-1.541-.395-2.04-.977-.499-.582-1.006-.753-.76-1.167.247-.413.028-.528-.18-.35-.208.178-.693.594-1.111.246-.419-.348-.818-.814-1.405-1.219-.588-.405-1.913-1.39-2.262-1.797a2.192 2.192 0 0 1-.441-.935s1.336 1.278 1.974 1.742c.637.463 1.663 1.098 1.264.633l-1.198-1.397c-.299-.35-.26-.584-.798-.931-.538-.347-.895-.344-1.463-.866-.569-.523-.876-.461-1.375-1.043l-.898-1.048c-.2-.232-.818-.813-1.236-1.161-.419-.348-.815-.11-1.233-.457-.419-.348-1.605-1.452-2.024-1.8-.418-.348-1.175-.81-1.663-1.099-.487-.288-1.294-.808-1.762-1.215-.469-.406-.111-.41-.66-1.05-.549-.64-.421-1.052-1.754-1.626-1.333-.573-1.253-.34-1.98-.625-.725-.287-1.9-1.097-2.638-1.676-.737-.58-1.194-.693-1.494-1.042-.299-.35-.499-.582-.726-.286-.227.296-.804.184-.676-.228.127-.412-.291-.76-.291-.76-.826-.403-1.84-.745-2.14-1.094-.3-.35-.637-.463-1.513-.924-.876-.461-.876-.461-1.294-.81-.419-.347-1.131.364-1.719-.04-.587-.405-1.643-1.217-2.42-1.561-.775-.345-1.055-.811-1.831-1.156-.777-.344-.38-.583 1.402.514 1.782 1.098 2.11.919 1.59.454-.517-.464-1.601-.747-2.507-1.384-.907-.636-1.245-.75-1.652-.805-.408-.054-.485.416-1.142.07-.657-.345-1.94-.86-2.597-1.206s-1.594-1.158-2.27-1.386c-.676-.228-1.364-.75-1.99-.92-.627-.17-1.472-.454-1.272-.222.2.233 1.263.633 2.09 1.036.825.403 1.155.928 1.155.928s-1.014-.342-1.77-.804c-.758-.462-1.184-.4-1.841-.745-.657-.346-1.303-.398-1.153-.223.15.174 1.036.929.36.7-.676-.227-1.383-.631-2.328-1.033-.945-.401-2.545-.444-2.545-.444s.247-.413 1.012-.362c.765.05 1.292.104.585-.3-.707-.403-.25-.29-1.214-.574-.965-.284-2.367-.798-3.67-1.196-1.302-.398-1.452-.573-2.098-.625-.646-.052-.607-.287-.646-.052-.038.235.023.587.023.587-.896-.343-1.461-.162-2.068-.45-.607-.287-2.315-.035-3.06-.203-.746-.169-1.93-.568-2.525-.562-.596.006-1.123-.047-2.007-.097-.884-.05-2.9.264-3.564.33-.666.065-1.589.25-2.223.491-.635.241-2.6.613-5.109 1.754-3.076.618-11.184 5.043-12.792 7.936Zm41.535-.77c3.58 1.373 8.425 3.379 9.47 3.897.995.46 4.401 2.89 6.292 3.694 1.82.862 6.183 3.988 7.865 4.969 1.683.981 11.015 7.52 13.656 9.9 2.641 2.381 10.166 9.056 11.413 10.511 1.197 1.397 2.026 2.504 2.544 2.968.518.465 1.425 1.102 2.073 1.858.649.757 1.106.87 1.605 1.451l1.497 1.747c.548.64 14.76 18.342 15.819 22.382.191.644-7.741-11.134-8.42-12.067-.679-.932-6.299-8.33-8.661-10.244-2.292-1.973-7.76-8.493-9.265-9.828-1.554-1.393-12.405-10.265-13.422-11.312-1.017-1.046-7.16-4.565-9.09-5.837-1.883-1.214-9.114-6.425-11.414-7.986-2.3-1.562-6.647-2.986-9.124-4.194-2.428-1.15-12.016-4.34-14.014-4.849-.1-.116 7.475 1.569 11.175 2.94Z" fill="#FFCA42"/><ellipse cx="75.927" cy="79.686" rx="56" ry="55.5" fill="#DFEBFB"/><path d="M87.737 96.87h-23.52a3.228 3.228 0 0 0 0 6.454h23.52a3.227 3.227 0 1 0 0-6.455Z" fill="#FFBD86"/><path d="M65.496 87.15V99.7c0 5.789 4.692 10.481 10.48 10.481 2.895 0 5.514-1.173 7.411-3.069a10.45 10.45 0 0 0 3.07-7.411V87.15h-20.96Z" fill="#FED2A4"/><path d="M76.083 77.674c-7.805-.058-14.15 6.252-14.15 14.043v.716a.653.653 0 0 0 .652.653h5.088a10.25 10.25 0 0 0 8.303-4.238 10.253 10.253 0 0 0 8.303 4.238h5.088a.653.653 0 0 0 .653-.653v-.54c0-7.743-6.194-14.161-13.937-14.219Z" fill="#918291"/><path d="M76.083 77.674a14.24 14.24 0 0 0-1.404.06c7.184.66 12.759 6.813 12.759 14.16v.539a.653.653 0 0 1-.653.652h2.582a.652.652 0 0 0 .653-.652v-.54c0-7.743-6.194-14.162-13.937-14.219Z" fill="#7A6D79"/><path d="M72.609 52.902v2.127c0 .507-.282.971-.732 1.205l-2.284 1.19a1.359 1.359 0 0 0-.732 1.205v5.005c0 .958.777 1.735 1.735 1.735h2.013v4.042a1.986 1.986 0 1 0 3.972 0V66.69a.346.346 0 0 1 .346-.346h3.592a2.572 2.572 0 0 0 2.573-2.572v-10.87H72.609Z" fill="#FED2A4"/><path d="M80.51 52.902v10.87a2.572 2.572 0 0 1-2.573 2.572h2.582a2.572 2.572 0 0 0 2.573-2.572v-10.87H80.51Z" fill="#FFBD86"/><path d="M83.091 52.902H72.608v-3.517a.23.23 0 0 1 .23-.23h10.023a.23.23 0 0 1 .23.23v3.517Z" fill="#62DBFB"/><path d="M82.861 49.154H80.28a.23.23 0 0 1 .23.23v3.518h2.583v-3.517a.23.23 0 0 0-.23-.23Z" fill="#01D0FB"/><path d="m106.269 66.67-9.079-5.242 1.759-3.046a.233.233 0 0 1 .23-.113c.03.004.059.014.085.029l8.679 5.01a.222.222 0 0 1 .107.14.226.226 0 0 1-.023.175l-1.758 3.046Z" fill="#5DE1C4"/><path d="m45.684 66.67 9.078-5.242-1.758-3.046a.23.23 0 0 0-.315-.084l-8.68 5.01a.233.233 0 0 0-.112.23c.004.03.013.059.028.085l1.759 3.046Z" fill="#FD8087"/><path d="m97.19 61.428-1.063 1.842a1.36 1.36 0 0 1-1.237.678l-2.572-.113a1.36 1.36 0 0 0-1.237.679l-2.503 4.335c-.479.83-.194 1.89.635 2.37l1.744 1.006-2.021 3.5a1.986 1.986 0 1 0 3.44 1.986l1.36-2.356a.346.346 0 0 1 .472-.127l3.112 1.796c1.23.71 2.803.29 3.513-.941l5.435-9.414-9.078-5.241Z" fill="#FED2A4"/><path d="m107.943 63.308-1.889-1.09a.237.237 0 0 1-.03.09l-1.828 3.165 2.072 1.196 1.759-3.046a.23.23 0 0 0-.084-.315Z" fill="#0ED2B3"/><path d="m104.197 65.473-5.475 9.483a2.613 2.613 0 0 1-2.832 1.243l1.43.826c1.23.71 2.804.288 3.514-.942l5.435-9.414-2.072-1.196Z" fill="#FFBD86"/><path d="m54.763 61.428 1.063 1.842a1.36 1.36 0 0 0 1.237.678l2.572-.113a1.361 1.361 0 0 1 1.237.679l2.503 4.335c.479.83.194 1.89-.635 2.37l-1.744 1.006 2.021 3.5a1.986 1.986 0 0 1-3.44 1.986l-1.36-2.356a.346.346 0 0 0-.472-.127l-3.111 1.796a2.572 2.572 0 0 1-3.514-.941l-5.435-9.414 9.078-5.241Z" fill="#FED2A4"/><path d="m51.505 59.252 1.757 3.042 1.501-.866-1.758-3.046a.23.23 0 0 0-.315-.084l-1.505.868a.234.234 0 0 1 .32.086Z" fill="#FE646F"/><path d="m53.29 62.344 1.08 1.87a1.38 1.38 0 0 0 1.255.688l2.611-.114a1.38 1.38 0 0 1 1.256.688l2.54 4.4c.323.56.303 1.222.007 1.747l.7-.405a1.735 1.735 0 0 0 .636-2.37l-2.503-4.334a1.36 1.36 0 0 0-1.236-.679l-2.573.113a1.36 1.36 0 0 1-1.237-.678l-1.063-1.842-1.501.867.028.049Z" fill="#FFBD86"/><path d="M70.596 66.337h1.045v3.074a2.958 2.958 0 0 0 2.954 2.955 2.958 2.958 0 0 0 2.955-2.955v-2.098h2.97a3.544 3.544 0 0 0 3.54-3.54v-3.247a.968.968 0 1 0-1.936 0v3.246c0 .885-.72 1.604-1.604 1.604h-3.593c-.724 0-1.314.59-1.314 1.314v2.721a1.02 1.02 0 0 1-2.036 0v-6.23a.968.968 0 0 0-1.936 0v1.22h-1.045a.767.767 0 0 1-.766-.767V58.63a.39.39 0 0 1 .21-.347l2.284-1.189a2.32 2.32 0 0 0 1.253-2.064V53.87h8.547v2.137a.968.968 0 1 0 1.936 0v-6.622a1.2 1.2 0 0 0-1.199-1.2H72.84a1.2 1.2 0 0 0-1.198 1.2v5.644a.39.39 0 0 1-.21.346l-2.285 1.19a2.32 2.32 0 0 0-1.253 2.064v5.006a2.706 2.706 0 0 0 2.703 2.702Zm11.528-16.214v1.81h-8.547v-1.81h8.547Zm26.303 12.347-8.68-5.011a1.2 1.2 0 0 0-1.637.439l-2.822 4.887a.39.39 0 0 1-.355.196l-2.573-.113a2.324 2.324 0 0 0-2.117 1.162l-2.503 4.335a2.706 2.706 0 0 0 .99 3.692l.904.522-1.537 2.662a2.958 2.958 0 0 0 1.082 4.036 2.953 2.953 0 0 0 4.036-1.082l1.049-1.817 2.572 1.485c1.69.976 3.86.395 4.836-1.296l7.194-12.46a1.199 1.199 0 0 0-.439-1.637Zm-9.008-2.965 7.401 4.273-.905 1.568-7.402-4.273.906-1.568Zm.576 16.094a1.594 1.594 0 0 1-.974.747 1.595 1.595 0 0 1-1.217-.16l-3.111-1.796a1.315 1.315 0 0 0-1.795.48l-1.36 2.358a1.017 1.017 0 1 1-1.764-1.018l3.115-5.395a.968.968 0 0 0-1.677-.968l-.61 1.055-.904-.522a.768.768 0 0 1-.28-1.047l2.502-4.335a.39.39 0 0 1 .356-.195l2.572.113a2.323 2.323 0 0 0 2.118-1.162l.579-1.003 7.401 4.273-4.95 8.575Zm-37.22 3.678a2.958 2.958 0 0 0 1.08-4.036L62.32 72.58l.905-.522a2.706 2.706 0 0 0 .989-3.693L61.71 64.03a2.32 2.32 0 0 0-2.117-1.161l-2.573.113a.39.39 0 0 1-.355-.196l-2.822-4.888a1.2 1.2 0 0 0-1.638-.438l-8.68 5.01a1.2 1.2 0 0 0-.438 1.638l7.194 12.46a3.544 3.544 0 0 0 4.836 1.296l2.572-1.485 1.05 1.817a2.953 2.953 0 0 0 4.035 1.082Zm-10.24-19.772.905 1.568-7.401 4.273-.906-1.568 7.401-4.273Zm5.38 14.709c-.223 0-.448.056-.655.176l-3.111 1.796a1.593 1.593 0 0 1-1.217.16 1.595 1.595 0 0 1-.974-.747l-4.951-8.576 7.401-4.273.58 1.004a2.322 2.322 0 0 0 2.117 1.161l2.573-.112a.389.389 0 0 1 .355.195l2.503 4.335a.767.767 0 0 1-.28 1.046l-.905.523-.61-1.056a.968.968 0 0 0-1.677.968l3.115 5.395a1.019 1.019 0 0 1-1.763 1.018l-1.36-2.357a1.316 1.316 0 0 0-1.141-.656Z" fill="#727E99"/><path d="M70.596 66.337h1.045v3.074a2.958 2.958 0 0 0 2.954 2.955 2.958 2.958 0 0 0 2.955-2.955v-2.098h2.97a3.544 3.544 0 0 0 3.54-3.54v-3.247a.968.968 0 1 0-1.936 0v3.246c0 .885-.72 1.604-1.604 1.604h-3.593c-.724 0-1.314.59-1.314 1.314v2.721a1.02 1.02 0 0 1-2.036 0v-6.23a.968.968 0 0 0-1.936 0v1.22h-1.045a.767.767 0 0 1-.766-.767V58.63a.39.39 0 0 1 .21-.347l2.284-1.189a2.32 2.32 0 0 0 1.253-2.064V53.87h8.547v2.137a.968.968 0 1 0 1.936 0v-6.622a1.2 1.2 0 0 0-1.199-1.2H72.84a1.2 1.2 0 0 0-1.198 1.2v5.644a.39.39 0 0 1-.21.346l-2.285 1.19a2.32 2.32 0 0 0-1.253 2.064v5.006a2.706 2.706 0 0 0 2.703 2.702Zm11.528-16.214v1.81h-8.547v-1.81h8.547Zm26.303 12.347-8.68-5.011a1.2 1.2 0 0 0-1.637.439l-2.822 4.887a.39.39 0 0 1-.355.196l-2.573-.113a2.324 2.324 0 0 0-2.117 1.162l-2.503 4.335a2.706 2.706 0 0 0 .99 3.692l.904.522-1.537 2.662a2.958 2.958 0 0 0 1.082 4.036 2.953 2.953 0 0 0 4.036-1.082l1.049-1.817 2.572 1.485c1.69.976 3.86.395 4.836-1.296l7.194-12.46a1.199 1.199 0 0 0-.439-1.637Zm-9.008-2.965 7.401 4.273-.905 1.568-7.402-4.273.906-1.568Zm.576 16.094a1.594 1.594 0 0 1-.974.747 1.595 1.595 0 0 1-1.217-.16l-3.111-1.796a1.315 1.315 0 0 0-1.795.48l-1.36 2.358a1.018 1.018 0 1 1-1.764-1.018l3.115-5.395a.968.968 0 0 0-1.677-.968l-.61 1.055-.904-.522a.768.768 0 0 1-.28-1.047l2.502-4.335a.39.39 0 0 1 .356-.195l2.572.113a2.323 2.323 0 0 0 2.118-1.162l.579-1.003 7.401 4.273-4.95 8.575Zm-37.22 3.678a2.958 2.958 0 0 0 1.08-4.036L62.32 72.58l.905-.522a2.706 2.706 0 0 0 .989-3.693L61.71 64.03a2.32 2.32 0 0 0-2.117-1.161l-2.573.113a.39.39 0 0 1-.355-.196l-2.822-4.888a1.2 1.2 0 0 0-1.638-.438l-8.68 5.01a1.2 1.2 0 0 0-.438 1.638l7.194 12.46a3.544 3.544 0 0 0 4.836 1.296l2.572-1.485 1.05 1.817a2.953 2.953 0 0 0 4.035 1.082Zm-10.24-19.772.905 1.568-7.401 4.273-.906-1.568 7.401-4.273Zm5.38 14.709c-.223 0-.448.056-.655.176l-3.111 1.796a1.593 1.593 0 0 1-1.217.16 1.594 1.594 0 0 1-.974-.747l-4.951-8.576 7.401-4.273.58 1.004a2.322 2.322 0 0 0 2.117 1.161l2.573-.112a.388.388 0 0 1 .355.195l2.503 4.335a.767.767 0 0 1-.28 1.046l-.905.523-.61-1.056a.968.968 0 0 0-1.677.968l3.115 5.395a1.019 1.019 0 0 1-1.763 1.018l-1.36-2.357a1.316 1.316 0 0 0-1.141-.656ZM87.736 95.9h-.31v-1.847h1.942c.893 0 1.62-.727 1.62-1.62v-.54c0-8.314-6.683-15.127-14.898-15.188h-.114A14.91 14.91 0 0 0 65.4 81.062c-5.056 5.019-4.376 11.04-4.436 11.37 0 .894.727 1.62 1.62 1.62h1.943v1.848h-.312a4.2 4.2 0 0 0-4.195 4.196 4.2 4.2 0 0 0 4.195 4.195h1.27c.353.807.8 1.571 1.328 2.275a.968.968 0 1 0 1.55-1.162 9.462 9.462 0 0 1-1.9-5.704v-5.647c.462-.085 5.554.677 9.513-3.673 3.94 4.327 9.086 3.595 9.511 3.673V99.7a9.468 9.468 0 0 1-2.786 6.726 9.451 9.451 0 0 1-6.726 2.786 9.546 9.546 0 0 1-4.534-1.147.958.958 0 0 0-.737-.077.965.965 0 0 0-.653 1.204.977.977 0 0 0 .467.575 11.48 11.48 0 0 0 5.457 1.381 11.37 11.37 0 0 0 8.096-3.353 11.424 11.424 0 0 0 2.395-3.504h1.27a4.2 4.2 0 0 0 4.195-4.195 4.2 4.2 0 0 0-4.196-4.196Zm-23.52 6.455a2.262 2.262 0 0 1-2.258-2.259 2.262 2.262 0 0 1 2.259-2.26h.311v1.864c0 .905.105 1.794.309 2.655h-.62ZM76.762 88.28a.969.969 0 0 0-1.569 0 9.304 9.304 0 0 1-7.518 3.837H62.9c.042-.218-.468-5.38 3.864-9.68a12.967 12.967 0 0 1 9.311-3.795c7.155.053 12.976 5.998 12.976 13.252v.223H84.28a9.308 9.308 0 0 1-7.52-3.837Zm10.975 14.076h-.621c.206-.87.31-1.761.31-2.655v-1.864h.311a2.262 2.262 0 0 1 2.26 2.26 2.262 2.262 0 0 1-2.26 2.259Z" fill="#727E99"/><path d="M72.537 104.408a.968.968 0 1 0 1.724.881c.28-.548.92-1.102 1.715-1.102.797 0 1.436.554 1.717 1.102a.968.968 0 1 0 1.724-.881c-.67-1.311-2.02-2.158-3.44-2.158-1.42.001-2.77.847-3.44 2.158Zm.986-6.083a.968.968 0 1 0-1.54-1.173c-.058.075-.312.24-.695.24-.382 0-.636-.165-.694-.24a.968.968 0 0 0-1.54 1.173c.47.619 1.327 1.003 2.234 1.003.908 0 1.764-.384 2.235-1.003Zm7.142 1.003c.907 0 1.764-.384 2.235-1.003a.968.968 0 1 0-1.54-1.173c-.058.075-.312.24-.695.24-.383 0-.637-.165-.694-.24a.968.968 0 0 0-1.54 1.173c.47.619 1.327 1.003 2.234 1.003Z" fill="#727E99"/></g></svg>