<svg width="160" height="160" fill="none" xmlns="http://www.w3.org/2000/svg"><mask id="a" style="mask-type:alpha" maskUnits="userSpaceOnUse" x="0" y="0" width="160" height="160"><path fill="#D9D9D9" d="M0 0h160v160H0z"/></mask><g mask="url(#a)"><path opacity=".75" d="M31.432 122.669c.218 2.168.445 2.557.987 4.745.576 2.064.243 3.822-.498 4.879-.74 1.057-1.845 1.491-3.006 1.645-1.162.155-1.545-.144-2.53-.405-.987-.26-2.888-.301-3.673-.575-.74-.195-2.025-.073-3.134-.366-1.11-.294-2.79-.672-2.867-1.879-.076-1.207-.024-1.655.82-2.355.8-.778 1.54-1.835 1.6-2.808.06-.973 1.088-3.867 1.037-4.671-.051-.805.12-3.2.459-4.231.338-1.031.203-2.518.497-3.627.293-1.11 1.174-5.69 1.545-6.845a155.01 155.01 0 0 0 1.426-4.898c.352-.83.932-3.776 1.218-4.36.287-.583.853-2.478 1.127-3.263.24-.661.586-2.219 1.158-3.386.573-1.168 1.4-4.048 1.92-4.768.52-.72.943-2.322 1.366-2.672.422-.35 1.052-1.238 1.585-1.757.578-.44 2.175-.744 3.603-1.158 1.506-.459 3.842-.567 4.913-.877 1.117-.233 2.226.06 2.355.82s-.735 1.784-1.067 2.29c-.331.506-2.152 3.651-2.594 4.326-.442.674-3.154 6.947-3.786 9.087-.632 2.141-.432 3.38-1.068 3.543-.513.194-.566.641-.482 1.323.13.759-.112 1.421-.385 2.206-.196.739-1.375 5.703-1.468 6.799-.014 1.052-.484 3.829-.654 4.971-.17 1.142.31 1.071-.164 1.868-.475.798.193 1.766-.204 2.518-.072.772-.19 2.719-.036 3.881ZM74.262 97.33c1.441-.213 5.114.362 6.912.045 1.752-.394 4.53.077 5.974-3.893 1.445-3.97 1.647-10.972 3.32-15.805 1.718-4.755 3.898-10.51 5.122-14.142 0 0 1.249 3.759 2.544 6.343s4.136 4.06 6.596 3.985c2.459-.075 5.153-.287 7.139-.817 1.908-.484 3.948-2.715 4.917-4.634.891-1.875 1.492-5.145 2.207-6.604.67-1.538 2.549-10.14 3.678-10.172 1.129-.031 4.983.855 6.962.851 1.979-.004 6.62-.097 7.919-1.27 1.299-1.173 2.398-3.586 2.912-5.033.515-1.446.641-3.919.765-5.139.203-1.265.086-1.823 1.472-4.82 1.385-2.996 1.255-2.503 1.9-4.443.644-1.94.488-1.849.164-1.869-.279.058-.325-.02-.493-.13-.169-.11-.26-.267-.149-.435.065-.247.163-.616.384-.954.221-.337.663-1.011.429-.875-.234.136-.266.259-.435.149-.169-.111-.259-.267-.071-.48.189-.215.41-.552.118-.695-.292-.143-.785-.273-.785-.273s-.013-.202-.201.012c-.143.292-.319.707-.475.798-.156.09-.382-.299-.35-.422.033-.123.273-.785.572-1.168.254-.46.131-.493.352-.83.221-.337.195-.74-.071-.48-.267.26-.598.765-.819 1.102-.143.292-.364.63-.397.753-.11.168-.143.291-.266.259-.123-.033-.428-.377-.428-.377s-.058-.28.007-.526.221-.337.332-.506c.065-.246-.182-.311-.383-.299-.123-.032-.759.13-.792.253-.11.168-.475.797-.63.888-.156.09-4.837 7.821-5.409 8.989-.54 1.044-2.543 5.13-2.985 5.805-.442.674-1.04 1.44-1.423 1.14-.382-.298-5.028-.933-6.559-.876-1.487.135-5.893.091-7.354.628-1.493.66-3.954 1.988-4.676 3.973-.723 1.985-4.675 14.194-4.675 14.194s-2.946-6.317-3.309-6.94c-.363-.624-.79-1-1.731-1.184-.941-.182-8.8.114-9.638.289-.837.174-3.668 1.404-4.077 1.955-.41.551-4.16 5.758-5.246 8.373-1.087 2.614-3.241 8.77-3.69 9.97-.527 1.246-3.265 7.116-3.916 8.328-.695 1.135-1.933 11.556-2.837 13.23-.858 1.75-1.151 2.86-.522 3.224.584.286 2.095.554 2.095.554Z" fill="#FFCA42"/><ellipse cx="79.982" cy="79.725" rx="56" ry="55.5" fill="#DFEBFB"/><path d="M106.415 63.783c0 .863-.064 1.713-.185 2.543a17.526 17.526 0 0 1-4.968 9.845c-3.178 3.18-7.562 5.152-12.386 5.152H67.101L61.569 93.79c-1.446 3.262-6.323 2.23-6.323-1.34V79.223c-5.492-2.97-9.245-8.787-9.245-15.44 0-4.822 1.972-9.207 5.152-12.386 1.14-1.14 2.43-2.119 3.835-2.91a17.38 17.38 0 0 1 8.551-2.242h25.337c9.646 0 17.539 7.892 17.539 17.538Z" fill="#A6D2E3"/><path d="M106.415 63.783c0 .863-.064 1.713-.185 2.543a31.206 31.206 0 0 1-20.459 7.6c-15.291 0-28.024-10.952-30.783-25.44a17.38 17.38 0 0 1 8.551-2.24h25.337c9.646 0 17.539 7.891 17.539 17.537Z" fill="#C0DFEB"/><path d="M95.633 113.287c9.757 0 17.666-7.91 17.666-17.666 0-9.757-7.909-17.666-17.666-17.666-9.757 0-17.666 7.909-17.666 17.666 0 9.756 7.91 17.666 17.666 17.666Z" fill="#BF6A6A"/><path d="M110.739 104.784a17.623 17.623 0 0 1-3.811 1.839c-9.228 3.168-19.277-1.745-22.444-10.973-1.772-5.159-1.017-10.574 1.605-14.9a17.726 17.726 0 0 1 3.81-1.838c9.228-3.168 19.276 1.746 22.444 10.974a17.632 17.632 0 0 1-1.604 14.898Z" fill="#F17B7B"/><path d="M90.692 63.435V55.63c0-1.371-.458-2.641-1.228-3.663a6.104 6.104 0 0 0-4.874-2.44H72.566a2.882 2.882 0 0 0-2.873 2.874v13.226a2.882 2.882 0 0 0 2.873 2.873h2.62c.252 0 .492.113.653.309l6.163 7.44c1.058 1.285 2.938 1.594 4.303.64a3.178 3.178 0 0 0 .635-4.614l-1.977-2.399a.847.847 0 0 1 .662-1.376c1.399 0 2.666-.568 3.582-1.483a5.05 5.05 0 0 0 1.485-3.583Z" fill="#E3A76F"/><path d="M90.69 63.435V55.63c0-1.371-.457-2.641-1.227-3.663-8.37 1.175-14.92 8.024-15.634 16.534h1.356c.252 0 .493.112.653.308l6.163 7.44c1.059 1.285 2.939 1.595 4.304.641a3.178 3.178 0 0 0 .634-4.615l-1.976-2.398a.847.847 0 0 1 .661-1.377c1.4 0 2.667-.567 3.582-1.483a5.05 5.05 0 0 0 1.485-3.583Z" fill="#F2BB88"/><path d="M69.693 52.317V66.11a2.14 2.14 0 0 1-2.134 2.134h-4.032a1.804 1.804 0 0 1-1.802-1.804V51.987c0-.996.806-1.803 1.802-1.803h4.032a2.14 2.14 0 0 1 2.134 2.133Z" fill="#3A92BA"/><path d="M69.693 52.317v12.27h-2.509a1.802 1.802 0 0 1-1.802-1.803v-12.6h2.177a2.14 2.14 0 0 1 2.134 2.133Z" fill="#66AECC"/><path d="M63.527 69.33h4.032c.861 0 1.642-.34 2.22-.891a3.94 3.94 0 0 0 2.787 1.149h2.505l6.092 7.353a4.361 4.361 0 0 0 3.366 1.59c3.58 0 5.506-4.202 3.25-6.945l-1.663-2.017a6.163 6.163 0 0 0 5.662-6.135V55.63c0-3.964-3.225-7.189-7.189-7.189H72.566a3.942 3.942 0 0 0-2.99 1.37 3.195 3.195 0 0 0-2.017-.713h-4.032a2.892 2.892 0 0 0-2.89 2.89v14.451a2.894 2.894 0 0 0 2.89 2.89ZM70.78 52.4c0-.985.801-1.786 1.786-1.786h12.023a5.02 5.02 0 0 1 5.015 5.015v7.804a3.985 3.985 0 0 1-3.98 3.98c-.75 0-1.418.42-1.743 1.096-.365.762-.158 1.657.243 2.058l1.977 2.4c.365.444.53 1.03.451 1.606-.25 1.82-2.528 2.424-3.714.983l-6.16-7.438a1.929 1.929 0 0 0-1.493-.705h-2.62a1.788 1.788 0 0 1-1.785-1.786V52.401Zm-7.969-.414a.717.717 0 0 1 .716-.716h4.032c.577 0 1.047.469 1.047 1.046V66.11c0 .577-.47 1.047-1.047 1.047h-4.032a.718.718 0 0 1-.716-.717V51.987Z" fill="#727E99"/><path d="M78.354 81.323a1.021 1.021 0 0 0-.629-.941 1.017 1.017 0 0 0-.39-.078H67.102a1.017 1.017 0 0 0-.932.605l-5.53 12.467c-.546 1.23-1.615 1.363-2.05 1.363-1.126 0-2.324-.803-2.324-2.29V79.223a1.02 1.02 0 0 0-.534-.896c-5.373-2.906-8.711-8.48-8.711-14.544 0-7.408 5.002-13.961 12.163-15.932a1.017 1.017 0 0 0 .534-1.608 1.017 1.017 0 0 0-1.075-.357c-8.043 2.215-13.66 9.575-13.66 17.897 0 6.61 3.527 12.699 9.246 16.036v12.63c0 4.618 6.368 6.05 8.274 1.753l5.261-11.86h9.573a1.02 1.02 0 0 0 1.018-1.019Z" fill="#727E99"/><path d="M101.083 77.75c3.89-3.405 6.35-8.404 6.35-13.967 0-10.232-8.324-18.557-18.557-18.557-26.792.005-25.329-.01-25.98.011a1.02 1.02 0 0 0 .07 2.036c.491-.017-.888-.006 25.91-.009 9.11 0 16.52 7.411 16.52 16.52 0 5.497-2.699 10.375-6.841 13.38-4.853-.776-9.728.43-13.614 3.14h-3.53a1.018 1.018 0 1 0 0 2.038h1.082a18.53 18.53 0 0 0-3.122 4.078c-5.11 9.022-1.861 20.417 7.06 25.463a1.02 1.02 0 0 0 1.004-1.774 16.687 16.687 0 0 1-8.452-14.504c0-9.105 7.361-16.485 16.388-16.632 9.384-.138 16.913 7.453 16.913 16.664 0 11.004-10.661 19.095-21.32 15.968a1.02 1.02 0 0 0-1.081.338 1.02 1.02 0 0 0 .508 1.616c11.955 3.504 23.931-5.542 23.931-17.922 0-8.124-5.288-15.462-13.239-17.888Z" fill="#727E99"/><path d="M91.764 89.915a1.69 1.69 0 1 0 0-3.382 1.69 1.69 0 0 0 0 3.382ZM99.502 89.915a1.69 1.69 0 1 0 0-3.381 1.69 1.69 0 0 0 0 3.381ZM85.502 101.047a1.018 1.018 0 0 0 2.038 0c0-4.463 3.63-8.094 8.094-8.094 4.463 0 8.094 3.63 8.094 8.094a1.027 1.027 0 0 0 .298.72 1.012 1.012 0 0 0 .721.298 1.027 1.027 0 0 0 .72-.298 1.018 1.018 0 0 0 .298-.72c0-5.587-4.545-10.132-10.131-10.132-5.587 0-10.132 4.545-10.132 10.132Z" fill="#727E99"/></g></svg>