<svg width="160" height="160" fill="none" xmlns="http://www.w3.org/2000/svg"><mask id="a" style="mask-type:alpha" maskUnits="userSpaceOnUse" x="0" y="0" width="160" height="160"><path fill="#D9D9D9" d="M0 0h160v160H0z"/></mask><g mask="url(#a)"><path opacity=".75" d="M31.432 123.669c.218 2.168.445 2.557.987 4.745.576 2.064.243 3.822-.498 4.879-.74 1.057-1.845 1.491-3.006 1.645-1.162.155-1.545-.144-2.53-.405-.987-.26-2.888-.301-3.673-.575-.74-.195-2.025-.073-3.134-.366-1.11-.294-2.79-.672-2.867-1.879-.076-1.207-.024-1.655.82-2.355.8-.778 1.54-1.835 1.6-2.808.06-.973 1.088-3.867 1.037-4.671-.051-.805.12-3.2.459-4.231.338-1.031.203-2.518.497-3.627.293-1.11 1.174-5.69 1.545-6.845a155.01 155.01 0 0 0 1.426-4.898c.352-.83.932-3.776 1.218-4.36.287-.583.853-2.478 1.127-3.263.24-.661.586-2.219 1.158-3.386.573-1.168 1.4-4.048 1.92-4.768.52-.72.943-2.322 1.366-2.672.422-.35 1.052-1.238 1.585-1.757.578-.44 2.175-.744 3.603-1.158 1.506-.459 3.842-.567 4.913-.877 1.117-.233 2.226.06 2.355.82s-.735 1.784-1.067 2.29c-.331.506-2.152 3.651-2.594 4.326-.442.674-3.154 6.947-3.786 9.087-.632 2.141-.432 3.38-1.068 3.542-.513.195-.566.642-.482 1.324.13.759-.112 1.421-.385 2.206-.196.739-1.375 5.703-1.468 6.799-.014 1.052-.484 3.829-.654 4.971-.17 1.142.31 1.071-.164 1.868-.475.798.193 1.766-.204 2.518-.072.772-.19 2.719-.036 3.881Z" fill="#FFCA42"/><path opacity=".75" d="M74.508 68.456c-.46-.254-1.668-.178-3.096.236-.649-.04-1.298-.079-1.7-.053-.974-.06-4.434.806-5.225 1.058-.637.162-.948.343-.968.668-.533.518-1.02 1.115-1.741 1.847-1.144 1.083-2.107 3.73-3.103 6.5-1.073 2.815-5.017 18.983-5.48 21.234-.463 2.251-1.472 4.82-1.86 3.794-.434-1.103-1.674-6.64-2.268-9.632-.187-1.04-1.746-5.869-2.134-6.895-.31-1.07-2.726-5.402-3.504-6.2-.778-.8-1.349-.885-2.355-.821-1.006.064-2.246.264-3.005.393-.76.129-3.44.541-4.433.806-.915.22-1.384 1.744-1.313 2.224 0 0 .939 1.436 1.62 2.605.634 1.09 2.531 4.889 2.94 5.59.408.701 1.632 2.805 1.832 4.045.2 1.24 1.414 6.374 1.516 7.984.148 1.687 1.121 7.483 1.1 9.06.024 1.655.816 8.392 1.015 9.632.2 1.24.862 1.48 1.783 1.988.876.429 2.427.048 3.725.127s4.238-.067 5.334.025c0 0 1.298.079 2.376-.757 1.078-.836.922-.745 2.852-2.807 1.93-2.061 1.224-3.632 2.27-5.598 1.048-1.965 1.956-7.396 2.419-9.647.463-2.251 3.092-14.942 3.944-17.42.241-.662.612-1.817 1.049-3.218.277 1.194.588 2.266.795 2.98.711 2.298 1.486 5.602 2.101 7.017.739 1.448 2.216 3.091 3.268 3.105 1.129-.03 3.576-.307 5.243-.13 1.668.177 4.44-.08 5.452-.67 1.013-.589.112-1.42-.387-2.277-.498-.858-.983-2.766-1.274-4.162-.368-1.35-1.482-3.622-1.707-5.264-.304-1.597-2.076-6.615-2.193-7.174-.116-.558-2.594-7.147-3.255-8.64-.103-.358-.362-.624-.576-.813.175-.415-.519-.532-1.057-.74Z" fill="#FFCA42"/><path opacity=".75" d="M74.262 98.33c1.441-.213 5.114.362 6.912.045 1.752-.394 4.53.077 5.974-3.893 1.445-3.97 1.647-10.972 3.32-15.805 1.718-4.755 3.898-10.51 5.122-14.142 0 0 1.249 3.759 2.544 6.343s4.136 4.06 6.596 3.985c2.459-.075 5.153-.287 7.139-.817 1.908-.484 3.948-2.715 4.917-4.634.891-1.875 1.492-5.145 2.207-6.604.67-1.538 2.549-10.14 3.678-10.172 1.129-.031 4.983.855 6.962.851 1.979-.004 6.62-.097 7.919-1.27 1.299-1.173 2.398-3.586 2.912-5.033.515-1.446.641-3.919.765-5.139.203-1.265.086-1.823 1.472-4.82 1.385-2.996 1.255-2.503 1.9-4.443.644-1.94.488-1.849.164-1.869-.279.058-.325-.02-.493-.13-.169-.11-.26-.267-.149-.435.065-.247.163-.616.384-.954.221-.337.663-1.011.429-.875-.234.136-.266.259-.435.149-.169-.111-.259-.267-.071-.48.189-.215.41-.552.118-.695-.292-.143-.785-.273-.785-.273s-.013-.202-.201.012c-.143.292-.319.707-.475.798-.156.09-.382-.299-.35-.422.033-.123.273-.785.572-1.168.254-.46.131-.493.352-.83.221-.337.195-.74-.071-.48-.267.26-.598.765-.819 1.102-.143.292-.364.63-.397.753-.11.168-.143.291-.266.259-.123-.033-.428-.377-.428-.377s-.058-.28.007-.526.221-.337.332-.506c.065-.246-.182-.311-.383-.299-.123-.032-.759.13-.792.253-.11.168-.475.797-.63.888-.156.09-4.837 7.821-5.409 8.989-.54 1.044-2.543 5.13-2.985 5.805-.442.674-1.04 1.44-1.423 1.14-.382-.298-5.028-.933-6.559-.876-1.487.135-5.893.091-7.354.628-1.493.66-3.954 1.988-4.676 3.973-.723 1.985-4.675 14.194-4.675 14.194s-2.946-6.317-3.309-6.94c-.363-.624-.79-1-1.731-1.184-.941-.182-8.8.114-9.638.289-.837.174-3.668 1.404-4.077 1.955-.41.551-4.16 5.758-5.246 8.373-1.087 2.614-3.241 8.77-3.69 9.97-.527 1.246-3.265 7.116-3.916 8.328-.695 1.135-1.933 11.556-2.837 13.23-.858 1.75-1.151 2.86-.522 3.224.584.286 2.095.554 2.095.554Z" fill="#FFCA42"/><ellipse cx="79.982" cy="79.725" rx="56" ry="55.5" fill="#DFEBFB"/><path d="M92.956 102.694c-12.406 7.162-28.27 2.912-35.433-9.495-7.162-12.406-2.912-28.27 9.495-35.432 12.406-7.163 28.27-2.912 35.432 9.494 7.163 12.406 2.912 28.27-9.494 35.433Z" fill="#9DD9F3"/><path d="M81.818 72.468c-.186.044-.548.136-.705.261-.195.157.11.36-.001.45-.193.154-.332.433-.744.407-.861-.055-2.184-1.169-2.97-1.59 1.267-1.305-.739-1.5-1.52-1.435-1.013.085-2.766-.007-3.68.508-.635.358-1.489 1.841-2 2.43-.712.82-1.428 1.533-1.892 2.515-1.702 3.602.917 7.737 5.034 7.253 1.143-.134 2.341-.852 3.354.096.747.698.352 1.356.55 2.17.171.706.952 1.14 1.222 1.787.518 1.242.19 2.018-.18 3.163-.485 1.502.77 3.286 1.258 4.736.246.73.963 2.775 1.667 3.094 1.107.504 2.841-1.005 3.502-1.817.516-.634.348-1.278.695-1.872.375-.643.85-.836 1.114-1.665.283-.893.578-1.116 1.177-1.768.964-1.049.814-1.662.429-2.906-.801-2.585 2.109-3.793 3.42-5.69 1.368-1.982-1.278-1.321-2.314-1.999-1.066-.697-1.532-2.02-2.046-3.118-.514-1.098-.939-2.748-1.79-3.65-.655-.694-2.649-1.016-3.58-1.36Zm13.39 17.338-1.24 4.181c-.29.975-1.312 4.162-2.746 2.12-.545-.775-.102-1.792.202-2.506.384-.9-.135-1.354.133-2.207.307-.977 1.569-1.01 2.165-1.698.417-.48.674-1.242.978-1.803l.508 1.913Z" fill="#B4DC89"/><path d="M102.451 67.26c-4.468-7.737-12.32-12.302-20.608-12.904l-3.392 4.255-7.27 2.549-1.95 4.728 3.008 4.214.32-.89a3.745 3.745 0 0 1 3.525-2.48h4.958l5.7 2.002 1.962 1.874v1.19l2.73 5.228.794-.293a12.648 12.648 0 0 0 4.568-2.924l-.659-.988a.473.473 0 0 1 .394-.735h1.59c.466 0 .909.204 1.21.558l1.3 1.521c.124.145.221.311.286.49l1.434 3.943.682-.683c.43-.43.648-1.016.658-1.625a1.77 1.77 0 0 1 .587-1.28l.522-.466c.13-.116.277-.212.435-.284a25.987 25.987 0 0 0-2.784-7Zm-38.805 1.014 1.24-1.33a3.388 3.388 0 0 0 .657-3.603 3.784 3.784 0 0 0-3.002-2.31 25.94 25.94 0 0 0-8.25 15.66c.97.846 1.983 1.752 1.977 1.832-.011.153 3.63-.457 3.63-.457l-1.875-2.75 2.691-1.924 2.932-5.118ZM66.17 94.12a2.226 2.226 0 0 0 1.43-2.805l-.335-1.028a2.225 2.225 0 0 1 .002-1.382 2.226 2.226 0 0 0-1.688-2.879l-2.621-.512-4.788-3.64-3.959 1.285A25.849 25.849 0 0 0 57.524 93.2a25.867 25.867 0 0 0 6.417 7.418l1.18-6.157 1.048-.34Z" fill="#B4DC89"/><path d="m92.427 101.782-.04.023a1.054 1.054 0 1 0 1.058 1.824l.04-.023a1.055 1.055 0 0 0-1.058-1.824Z" fill="#727E99"/><path d="M103.364 66.734c-3.605-6.244-9.426-10.711-16.39-12.577-6.965-1.866-14.24-.908-20.484 2.697-6.244 3.605-10.71 9.425-12.576 16.39-1.866 6.964-.909 14.239 2.696 20.483a26.987 26.987 0 0 0 23.395 13.498c3.276 0 6.547-.596 9.638-1.784a1.055 1.055 0 1 0-.757-1.968c-8.228 3.162-17.136 1.725-23.792-3.27l.945-4.933.455-.147a3.285 3.285 0 0 0 2.107-4.135l-.334-1.028a1.164 1.164 0 0 1 .001-.727 3.283 3.283 0 0 0-2.488-4.243l-2.38-.465-4.593-3.492a1.054 1.054 0 0 0-.965-.163l-2.689.873a24.877 24.877 0 0 1-.003-2.88c.074.069.147.139.217.21.053.089.119.169.195.238.22.2.418.29.836.29.383 0 .952-.076 1.89-.214.595-.09 1.19-.183 1.783-.282a1.055 1.055 0 0 0 .697-1.634l-1.293-1.896 1.852-1.325c.124-.088.227-.202.302-.334l2.871-5.012 1.157-1.24a4.455 4.455 0 0 0 .86-4.725 4.85 4.85 0 0 0-1.921-2.262 24.954 24.954 0 0 1 2.95-1.997 24.728 24.728 0 0 1 12.153-3.326l-1.884 2.362-6.983 2.449a1.056 1.056 0 0 0-.626.593l-1.95 4.728a1.055 1.055 0 0 0 .116 1.014l2.849 3.99c-.408.373-.806.915-1.28 1.588-.208.295-.404.574-.54.73-.117.134-.234.268-.353.4-.613.69-1.246 1.403-1.696 2.355-.99 2.095-.79 4.529.521 6.353 1.268 1.764 3.358 2.661 5.59 2.399a8.213 8.213 0 0 0 1.03-.208c.904-.224 1.19-.246 1.48.025.141.132.154.157.151.605-.002.286-.004.64.094 1.046.158.648.565 1.096.892 1.456.162.178.33.363.382.487.33.789.186 1.225-.128 2.182a36.74 36.74 0 0 0-.082.25c-.477 1.477.188 2.94.775 4.233.19.419.37.815.488 1.165.948 2.814 1.659 3.458 2.23 3.718.298.135.607.195.92.195 1.52 0 3.106-1.412 3.835-2.307.458-.562.57-1.124.653-1.535.04-.205.073-.366.135-.471.094-.162.205-.287.346-.445.282-.319.634-.715.862-1.433.174-.546.3-.68.716-1.123l.233-.25c1.405-1.529 1.043-2.696.66-3.932-.323-1.04.241-1.706 1.605-2.976.59-.55 1.202-1.12 1.674-1.803.207-.3.836-1.21.447-2.112-.382-.885-1.351-1.034-2.13-1.153-.308-.047-.773-.119-.92-.216-.653-.426-1.053-1.316-1.439-2.178-.077-.171-.152-.34-.23-.504a16.999 16.999 0 0 1-.418-1.023c-.384-.993-.819-2.119-1.56-2.904-.665-.705-1.919-1.044-3.026-1.344-.372-.1-.723-.196-.955-.281a1.053 1.053 0 0 0-.606-.038c-.538.126-.875.266-1.124.465a1.31 1.31 0 0 0-.376.506c-.386-.186-.917-.54-1.243-.757l-.02-.014c.11-.44.01-.794-.095-1.015-.589-1.246-2.544-1.149-2.93-1.116-.22.018-.497.028-.79.039-.46.016-.97.034-1.474.09l.026-.072a2.697 2.697 0 0 1 2.532-1.781h.6a1.055 1.055 0 0 0 0-2.11h-.6c-1.68 0-3.22.885-4.082 2.278l-1.573-2.204L71.975 62l6.825-2.393c.187-.066.352-.183.475-.338l3.034-3.805c7.751.737 15.047 5.083 19.228 12.325a24.575 24.575 0 0 1 2.485 6.037l-.447.398a2.825 2.825 0 0 0-.938 2.05l-.001.025-.728-2.003a2.633 2.633 0 0 0-.475-.815l-1.299-1.521a2.647 2.647 0 0 0-2.013-.928h-1.59a1.525 1.525 0 0 0-1.526 1.602c.013.276.101.543.255.773l.16.242a11.687 11.687 0 0 1-3.481 2.068l-2.18-4.176v-.932a1.055 1.055 0 0 0-.326-.763l-1.963-1.874a1.056 1.056 0 0 0-.379-.232l-1.767-.62a1.054 1.054 0 1 0-.7 1.99l1.553.545 1.473 1.406v.739c0 .17.041.337.12.488l2.729 5.227a1.054 1.054 0 0 0 1.3.502l.794-.293a13.803 13.803 0 0 0 4.949-3.168 1.054 1.054 0 0 0 .132-1.33l-.056-.084h.503a.536.536 0 0 1 .409.188l1.3 1.521c.041.05.073.105.096.166l1.434 3.942a1.05 1.05 0 0 0 1.286.652c.17-.05.325-.141.45-.266l.683-.683c.432-.432.729-.98.872-1.586 1.055 8.46-2.262 17.21-9.273 22.713a1.054 1.054 0 1 0 1.302 1.659 26.983 26.983 0 0 0 9.792-16 26.978 26.978 0 0 0-3.108-18.713ZM57.969 83.046l4.349 3.307c.129.097.278.164.436.195l2.621.512c.335.066.614.264.786.558.173.294.209.634.103.958a3.26 3.26 0 0 0-.003 2.036l.334 1.028c.2.614-.138 1.277-.752 1.477l-1.048.34a1.055 1.055 0 0 0-.71.805l-.844 4.403a25.16 25.16 0 0 1-4.804-5.993 24.753 24.753 0 0 1-3.064-8.782l2.596-.844Zm6.598-19.303a2.34 2.34 0 0 1-.451 2.482l-1.241 1.33c-.056.059-.104.124-.144.195l-2.818 4.918-2.503 1.79a1.055 1.055 0 0 0-.258 1.453l.936 1.373c-.54.08-1.024.147-1.346.182a53.275 53.275 0 0 0-1.312-1.18 24.928 24.928 0 0 1 7.428-14.108c.77.243 1.4.817 1.71 1.565Zm10.507 7.914c.32-.012.62-.022.89-.045.143-.012.3-.01.45.002a1.054 1.054 0 0 0 .485 1.312c.198.106.473.29.765.484.824.55 1.758 1.172 2.636 1.228.798.052 1.242-.403 1.433-.597l.044-.045a1.13 1.13 0 0 0 .282-.345c.17.048.346.096.528.145.624.17 1.787.484 2.044.756.456.484.811 1.404 1.125 2.216.159.41.308.798.476 1.157.073.154.144.313.216.473.486 1.086 1.038 2.316 2.208 3.081.53.347 1.181.447 1.755.535l.23.036c-.341.475-.826.927-1.339 1.404-1.305 1.216-2.93 2.73-2.182 5.143.354 1.14.37 1.263-.198 1.881l-.217.233c-.486.518-.87.927-1.189 1.929-.092.29-.212.426-.43.67-.173.196-.39.44-.59.782-.239.409-.318.803-.381 1.12-.063.312-.098.468-.22.618a6.145 6.145 0 0 1-1.332 1.178c-.496.314-.785.357-.883.352-.113-.121-.52-.65-1.137-2.478-.152-.45-.362-.915-.566-1.363-.45-.99-.913-2.013-.688-2.712l.08-.242c.36-1.1.701-2.138.07-3.65-.192-.461-.498-.798-.768-1.095-.175-.192-.372-.41-.403-.535-.037-.153-.036-.33-.034-.534.003-.55.009-1.383-.82-2.159-1.166-1.092-2.527-.755-3.428-.533-.276.069-.538.133-.77.16-1.481.174-2.804-.385-3.63-1.534-.864-1.202-.989-2.82-.327-4.221.32-.678.805-1.223 1.366-1.854.122-.138.246-.277.37-.42.205-.236.431-.557.67-.897.286-.406.818-1.161 1.05-1.305.47-.264 1.561-.303 2.359-.331Z" fill="#727E99"/><path d="M92.433 97.809c1.076-.176 1.884-1.295 2.545-3.522l1.24-4.18c.056-.187.059-.384.01-.572l-.508-1.912a1.055 1.055 0 0 0-1.947-.232c-.115.213-.22.438-.32.657-.17.367-.344.746-.526.956-.103.118-.366.245-.62.367-.607.293-1.438.694-1.756 1.707-.197.628-.124 1.125-.07 1.488.047.315.058.424-.027.621l-.01.025c-.336.788-.96 2.254-.085 3.501.625.89 1.282 1.119 1.793 1.119.1 0 .194-.009.281-.023Zm-.348-2.308c-.201-.287.1-.994.3-1.462l.01-.025c.321-.754.235-1.334.173-1.757-.04-.27-.055-.387-.004-.547.04-.132.288-.26.66-.44.165-.079.347-.166.53-.273l-.798 2.69c-.336 1.136-.635 1.666-.806 1.9a1.77 1.77 0 0 1-.065-.086ZM81.391 65.736a1.055 1.055 0 0 0-.698 1.99l.071.025a1.051 1.051 0 0 0 1.345-.646 1.055 1.055 0 0 0-.647-1.344l-.07-.025Z" fill="#727E99"/></g></svg>