<svg width="51" height="58" viewBox="0 0 51 58" fill="none" xmlns="http://www.w3.org/2000/svg">
<path d="M10.928 0C8.92444 0 7.28516 1.63125 7.28516 3.625V54.375C7.28516 56.3688 8.92444 58 10.928 58H47.3566C49.3602 58 50.9994 56.3688 50.9994 54.375V14.5L36.428 0H10.928Z" fill="#E2E5E7"/>
<path d="M40.0706 14.5H50.9992L36.4277 0V10.875C36.4277 12.8688 38.067 14.5 40.0706 14.5Z" fill="#B0B7BD"/>
<path d="M50.9989 25.3748L40.0703 14.4998H50.9989V25.3748Z" fill="#CAD1D8"/>
<path d="M43.7143 47.1248C43.7143 48.1216 42.8946 48.9373 41.8929 48.9373H1.82143C0.819643 48.9373 0 48.1216 0 47.1248V28.9998C0 28.0029 0.819643 27.1873 1.82143 27.1873H41.8929C42.8946 27.1873 43.7143 28.0029 43.7143 28.9998V47.1248Z" fill="#F15642"/>
<path d="M7.93945 34.3421C7.93945 33.8636 8.31831 33.3416 8.92849 33.3416H12.2927C14.187 33.3416 15.8918 34.6031 15.8918 37.0209C15.8918 39.3119 14.187 40.5879 12.2927 40.5879H9.86106V42.5019C9.86106 43.1399 9.45306 43.5006 8.92849 43.5006C8.44763 43.5006 7.93945 43.1399 7.93945 42.5019V34.3421ZM9.86106 35.1667V38.7772H12.2927C13.269 38.7772 14.0412 37.9199 14.0412 37.0209C14.0412 36.0077 13.269 35.1667 12.2927 35.1667H9.86106ZM18.7442 43.5006C18.2633 43.5006 17.7387 43.2396 17.7387 42.6034V34.3711C17.7387 33.8509 18.2633 33.4721 18.7442 33.4721H22.0792C28.7347 33.4721 28.589 43.5006 22.2103 43.5006H18.7442ZM19.6622 35.2411V41.7334H22.0792C26.0117 41.7334 26.1865 35.2411 22.0792 35.2411H19.6622ZM30.9496 35.3571V37.6607H34.6635C35.188 37.6607 35.7126 38.1827 35.7126 38.6884C35.7126 39.1669 35.188 39.5584 34.6635 39.5584H30.9496V42.6016C30.9496 43.1091 30.5871 43.4988 30.0771 43.4988C29.436 43.4988 29.0443 43.1091 29.0443 42.6016V34.3692C29.0443 33.8491 29.4378 33.4702 30.0771 33.4702H35.1898C35.831 33.4702 36.2098 33.8491 36.2098 34.3692C36.2098 34.8332 35.831 35.3552 35.1898 35.3552H30.9496V35.3571Z" fill="white"/>
<path d="M41.8923 48.9368H7.28516V50.7493H41.8923C42.8941 50.7493 43.7137 49.9336 43.7137 48.9368V47.1243C43.7137 48.1211 42.8941 48.9368 41.8923 48.9368Z" fill="#CAD1D8"/>
</svg>
