<svg width="599" height="341" viewBox="0 0 599 341" fill="none" xmlns="http://www.w3.org/2000/svg">
<path opacity="0.75" d="M362.189 6.61945C365.931 7.97948 369.984 10.6995 368.425 11.0395C366.866 11.7195 368.425 14.4396 369.36 17.1596C370.296 19.8797 367.178 18.1797 367.178 20.5597C367.178 22.9397 368.113 24.6398 366.554 25.6598C364.995 26.6798 365.931 28.0398 365.931 30.0799C365.931 32.4599 362.813 30.4199 361.254 33.4799C360.318 34.8399 361.254 36.2 362.501 38.24C363.436 40.28 362.813 41.9801 360.007 41.6401C357.201 41.3001 353.771 42.6601 349.094 42.6601C344.417 42.6601 311.992 41.3001 303.573 41.9801C295.155 42.6601 279.878 45.7201 276.136 46.4002C272.083 47.4202 230.927 57.6203 205.361 67.1405C179.794 76.6607 139.574 97.0611 123.049 108.961C106.524 120.861 70.0451 150.782 55.0793 168.462C40.1136 186.483 27.0186 200.083 20.1592 217.763C13.2999 235.783 4.8817 266.044 5.81706 276.244C5.81706 276.244 3.63455 274.544 2.07562 265.364C0.516686 256.184 -0.73046 227.283 2.07562 209.943C4.56991 193.963 17.9767 159.282 39.8018 135.822C61.6269 112.361 81.893 89.9209 110.889 70.8806C139.885 51.8402 156.41 40.6201 190.395 28.0398C224.379 15.1196 229.368 14.4396 231.862 13.0796C234.357 11.7195 235.604 11.3795 238.098 11.3795C240.592 11.3795 242.151 9.67951 244.334 8.99949C246.516 8.65949 273.018 1.17936 301.079 0.159338C329.452 -0.86068 352.836 3.21939 362.189 6.61945Z" fill="#cbf1cc"/>
<path opacity="0.75" d="M517.771 140.242C517.771 140.242 493.14 162.342 478.174 172.883C463.52 183.423 415.505 221.843 362.189 233.404C308.874 244.964 266.782 250.404 198.813 246.324C130.843 242.244 99.9766 223.883 89.0641 210.283C78.1515 196.683 67.239 165.402 65.9918 150.782C65.9918 150.782 62.2504 187.503 61.9386 198.723C61.6268 210.283 62.2504 243.604 88.1287 264.344C113.695 285.085 162.334 294.945 203.178 297.325C244.022 299.705 308.562 295.965 341.611 285.765C374.661 275.564 427.353 254.484 440.448 247.004C453.543 239.184 459.155 234.764 457.596 235.104C456.037 235.444 444.813 242.924 442.318 244.284C439.824 245.644 422.676 254.484 416.44 257.204C411.14 259.584 404.904 260.944 403.657 261.284C405.528 260.944 417.687 255.844 422.052 253.804C426.417 251.424 432.653 247.684 433.9 247.004C435.147 246.324 435.459 244.964 437.018 244.624C438.577 244.284 439.201 244.284 440.136 243.604C441.071 242.584 444.501 241.904 446.06 240.884C447.619 239.864 448.242 238.844 448.866 238.164C449.489 237.484 451.048 236.804 451.672 235.784C452.607 234.764 452.919 234.424 454.478 234.084C456.037 234.084 457.908 233.404 458.531 232.384C459.155 231.364 460.402 230.684 461.026 230.684C461.649 230.684 464.143 230.684 465.079 229.664C465.702 228.984 480.98 218.443 485.968 214.023C491.269 209.603 494.387 206.203 495.322 205.183C496.257 204.163 496.569 202.803 497.193 202.803C498.128 202.463 498.752 201.783 498.752 201.443C498.752 200.763 499.375 199.743 500.311 199.403C501.246 199.063 502.805 197.023 505.611 192.263C508.729 187.503 509.352 186.823 512.47 175.263C515.588 164.042 519.641 145.342 517.771 140.242ZM461.026 196.683C459.778 197.703 458.531 198.383 457.284 199.403C448.554 205.523 426.729 220.143 410.516 226.943C389.315 235.784 358.448 247.344 348.782 249.724C339.117 252.104 337.87 252.104 335.999 251.424C334.128 250.744 334.752 251.424 330.387 251.764C326.022 252.104 321.345 254.144 319.474 254.484C317.604 254.824 298.585 257.544 277.695 258.564C256.493 259.584 223.444 257.544 223.444 257.544C223.444 257.544 276.448 258.224 300.144 254.824C324.151 251.424 332.881 249.384 336.934 248.364C340.988 247.344 369.36 242.584 397.733 229.324C423.611 217.423 443.877 208.243 456.972 199.403C459.778 197.363 461.337 196.343 461.026 196.683Z" fill="#cbf1cc"/>
<path opacity="0.75" d="M597.9 130.042C596.653 123.922 595.717 114.401 591.664 106.241C587.611 98.0811 571.71 78.0208 560.485 70.2007C549.261 62.3805 523.383 49.4603 502.181 41.3001C480.668 33.48 467.261 31.78 460.09 30.42C452.919 29.0599 444.189 27.3599 439.824 26.3399C435.459 25.6599 409.892 23.2798 400.851 22.2598C392.121 21.2398 377.778 19.8798 370.296 20.2198C363.124 20.5598 336.311 19.8798 331.946 19.5398C327.581 19.1998 316.045 18.5197 309.809 18.8598C303.573 19.1998 292.037 20.8998 285.801 21.5798C279.566 22.2598 246.516 25.3199 237.474 28.3799C228.744 31.44 224.691 31.78 219.703 32.12C215.026 32.46 210.349 35.5201 209.102 35.5201C207.855 35.5201 184.782 41.6402 177.923 43.6802C171.064 45.7202 147.68 57.2804 133.961 65.4406C120.243 73.2607 106.524 83.4609 98.1057 91.281C89.6875 99.1012 83.4518 104.201 75.3453 120.862C67.5506 137.182 65.3681 149.082 64.121 162.682C62.8738 176.283 60.6913 191.243 61.3149 203.823C61.9385 216.403 64.121 225.923 65.3681 228.303C65.3681 228.303 72.2274 168.462 114.63 133.442C156.722 98.4212 228.744 77.0008 322.592 68.8406C416.44 60.6805 513.406 90.941 534.295 104.201C534.295 104.201 536.166 103.521 529.307 99.7812C522.136 96.0411 512.782 92.6411 512.782 92.6411C512.782 92.6411 519.641 92.9811 534.295 100.801C548.949 108.621 557.679 116.101 564.227 122.222C570.463 128.002 577.634 136.502 580.44 146.362C583.246 155.882 585.428 170.162 585.428 181.043C585.428 191.923 583.558 199.063 584.493 197.363C585.428 195.663 592.288 179.003 595.405 162.682C598.212 146.362 599.147 136.162 597.9 130.042ZM493.763 51.5003C483.474 47.0803 475.368 46.0602 471.938 45.3802C468.508 44.7002 466.949 44.0202 463.52 43.6802C460.09 43.3402 464.143 42.3202 460.402 41.6402C456.66 40.9601 451.672 40.9601 445.748 40.2801C439.824 39.6001 434.835 37.2201 427.664 37.2201C420.805 37.2201 408.333 34.5 399.915 34.16C391.497 33.82 382.767 33.48 375.908 33.14C369.048 32.8 363.748 31.44 357.2 31.44C350.965 31.44 342.546 30.76 348.782 29.7399C351.9 29.0599 363.748 28.7199 369.672 28.7199C375.284 28.7199 388.067 29.7399 392.744 30.08C397.421 30.42 453.543 36.2001 462.273 38.9201C471.003 41.6402 500.934 50.1403 513.094 54.9004C524.942 59.6605 533.048 65.4406 533.048 65.4406C533.048 65.4406 504.052 55.9204 493.763 51.5003Z" fill="#cbf1cc"/>
<path opacity="0.75" d="M596.965 126.642C596.341 124.602 580.128 161.662 571.71 172.543C563.292 183.423 528.683 211.983 509.976 222.523C491.269 233.064 433.276 256.524 427.976 258.564C422.988 260.604 419.558 259.584 416.128 260.944C412.699 262.304 416.44 258.904 412.075 260.264C407.71 261.624 374.037 271.144 367.178 272.844C360.318 274.544 335.064 280.325 325.71 282.025C316.356 283.725 247.14 292.905 221.262 293.245C195.071 293.585 149.239 291.545 131.779 289.505C114.319 287.465 91.2465 282.705 74.0982 278.964C56.95 275.224 42.9196 265.024 34.1895 258.564C25.4595 252.444 21.0945 243.944 17.3531 235.784C13.9234 227.964 7.06411 205.183 7.06411 191.923C7.06411 191.923 1.14016 203.483 0.204798 223.544C-0.730562 243.604 1.14016 279.305 14.2352 293.925C27.3302 308.545 56.3264 327.585 97.1704 333.365C137.703 339.146 183.224 340.506 190.706 340.506C198.189 340.506 221.262 340.166 225.938 340.166C230.615 340.166 233.733 339.826 237.474 339.486C241.216 339.146 240.904 337.105 239.033 337.105C237.163 337.105 237.786 337.446 234.98 337.786C232.174 338.126 230.927 338.806 229.368 338.126C227.809 337.446 226.874 337.446 225.003 337.786C223.132 338.126 222.197 337.786 219.703 337.786C217.208 337.786 217.832 337.786 215.026 338.126C212.22 338.466 211.284 336.426 211.284 336.426C211.284 336.426 213.467 335.745 215.961 335.745C218.455 335.745 230.927 335.745 233.421 335.405C235.604 335.065 238.722 335.065 240.904 335.405C243.087 335.745 245.581 335.405 247.452 335.405C249.322 335.405 249.011 333.025 250.881 333.025C252.752 333.025 251.817 333.705 254.311 333.705C256.805 333.705 259.923 332.685 262.106 332.685C264.288 332.685 267.406 329.285 270.524 329.285C273.642 329.285 275.512 328.265 276.136 329.965C276.76 331.665 277.695 331.325 277.695 330.305C277.695 329.285 277.695 326.905 279.877 326.565C282.06 326.225 284.554 326.225 287.36 325.545C290.166 324.865 296.714 323.505 298.896 323.505C301.079 323.505 302.95 324.525 302.95 324.525C302.95 324.525 295.467 325.205 292.349 325.885C289.231 326.565 284.554 327.925 287.049 327.925C289.543 327.925 292.661 327.925 294.531 327.925C296.402 327.925 297.026 328.605 299.52 327.925C302.014 327.245 302.95 326.225 306.068 325.885C309.185 325.545 309.809 324.525 312.927 324.525C316.045 324.525 317.292 324.525 318.539 324.525C319.786 324.525 323.216 324.185 325.398 323.845C327.581 323.505 327.893 321.805 330.075 321.465C332.258 321.125 338.805 320.445 340.988 320.105C343.17 319.765 346.6 318.745 348.782 318.065C350.965 317.385 354.706 316.365 357.201 316.025C359.695 315.685 358.759 316.705 362.189 316.705C365.619 316.705 366.554 318.065 371.855 315.685C377.155 313.305 376.22 312.965 379.026 311.605C381.832 310.245 387.444 308.885 391.185 308.205C394.927 307.525 396.486 306.505 398.356 306.505C400.227 306.505 401.474 306.505 401.163 305.145C400.851 303.785 402.721 302.425 403.657 303.785C404.592 305.145 406.775 304.805 406.775 304.805C410.204 303.445 413.946 301.405 415.816 301.405C417.687 301.405 418.934 300.725 422.676 299.365C426.417 298.005 426.417 298.005 428.6 297.665C430.782 297.325 430.47 293.585 433.277 292.905C436.083 292.225 441.383 291.205 444.501 289.845C447.619 288.485 449.801 288.825 452.919 287.465C456.037 286.105 455.725 287.805 447.619 290.185C439.512 292.565 439.2 293.925 442.007 293.585C444.813 293.245 448.554 290.865 452.919 289.845C457.284 288.825 458.531 288.145 459.778 287.125C461.026 286.105 459.778 284.745 462.584 283.725C465.391 282.705 470.379 280.325 473.185 279.304C475.991 278.284 480.98 277.604 483.474 276.244C485.968 274.884 489.398 274.204 491.581 272.844C493.763 271.484 496.881 269.784 495.634 269.784C494.387 269.784 490.333 271.824 486.904 273.184C483.474 274.544 480.98 274.204 480.98 274.204C480.98 274.204 484.721 272.164 488.151 271.144C491.581 270.124 492.516 268.764 495.322 267.744C498.128 266.724 499.999 265.024 499.063 265.024C498.128 265.024 493.451 265.704 495.946 264.344C498.44 262.984 501.558 261.964 505.299 260.264C509.041 258.564 513.406 254.144 513.406 254.144C513.406 254.144 514.029 255.844 511.847 257.884C509.664 259.924 508.105 261.284 511.223 260.264C514.341 259.244 512.782 260.264 516.212 258.224C519.641 256.184 524.942 253.464 529.619 250.744C534.295 248.024 535.231 248.024 537.101 246.324C538.972 244.624 539.596 245.304 538.972 244.624C538.349 243.944 537.101 243.264 537.101 243.264C540.531 241.564 541.466 239.524 543.961 238.504C546.455 237.484 550.196 232.044 552.691 230.344C555.185 228.644 559.55 226.264 561.109 224.564C562.668 222.864 564.227 221.503 566.721 219.123C569.215 216.743 573.581 210.283 575.139 208.243C576.698 206.203 578.569 203.143 579.504 200.763C580.44 198.383 584.493 191.923 587.611 182.063C593.847 171.863 601.641 138.202 596.965 126.642ZM489.398 245.984C475.68 252.784 456.66 261.624 452.296 263.324C448.242 265.024 431.718 268.764 424.235 272.164C416.752 275.224 395.55 279.985 388.067 282.365C380.585 284.745 335.687 295.285 321.345 296.985C307.003 298.685 266.471 303.785 258.676 303.785C251.193 303.785 245.581 303.445 242.775 303.785C239.969 304.125 235.604 305.145 231.551 305.145C227.497 305.145 225.938 306.165 222.82 306.165C219.391 306.165 216.897 306.165 213.467 306.165C210.037 306.165 117.748 303.445 102.471 296.645C99.9765 295.625 157.345 301.745 162.022 302.085C166.699 302.425 204.425 304.465 216.585 302.425C228.744 300.725 263.353 301.065 271.459 300.045C279.877 299.025 335.999 289.845 341.923 289.505C347.847 289.165 374.972 280.325 384.014 277.944C392.744 275.564 427.976 267.744 438.889 265.024C449.801 262.304 465.702 253.464 475.991 249.384C485.968 245.304 521.2 225.924 528.06 221.503C528.683 221.503 503.429 238.844 489.398 245.984Z" fill="#cbf1cc"/>
</svg>
